<?xml version='1.0' encoding='ASCII' standalone='yes'?>
<svg xmlns="http://www.w3.org/2000/svg" version="1.1" width="29.700220cm" height="21.000720cm" viewBox="0 0 297002200 210007200">
            <title>Picture generated by PcbDraw </title>
            <desc>Picture generated by PcbDraw</desc>
        <defs><clipPath id="cut-off"><path d=" M 182000000.0 101300000.0 L 182000000.0 65700000.0 L 119000000.0 65700000.0 L 119000000.0 101300000.0 L 182000000.0 101300000.0 " style="fill-rule: evenodd;"/></clipPath><mask id="pads-mask-silkscreen"><rect x="112215962" y="61694275" width="76951038" height="39680828" fill="white"/><g style="fill:#000000; fill-opacity:0.0;  stroke:#000000; stroke-width:0.000000; stroke-opacity:1;  stroke-linecap:round; stroke-linejoin:round;">
<g style="fill:#000000; fill-opacity:1.0;  stroke:#000000; stroke-width:1.000000; stroke-opacity:1;  stroke-linecap:round; stroke-linejoin:round;">
<circle cx="177000000.000000" cy="97000000.000000" r="1400000.000000"/> 
</g>
<g style="fill:#000000; fill-opacity:1.0;  stroke:#000000; stroke-width:1.000000; stroke-opacity:1;  stroke-linecap:round; stroke-linejoin:round;">
<circle cx="123000000.000000" cy="97000000.000000" r="1400000.000000"/> 
</g>
<g style="fill:#000000; fill-opacity:1.0;  stroke:#000000; stroke-width:1.000000; stroke-opacity:1;  stroke-linecap:round; stroke-linejoin:round;">
<circle cx="123000000.000000" cy="69500000.000000" r="1400000.000000"/> 
</g>
<g style="fill:#000000; fill-opacity:1.0;  stroke:#000000; stroke-width:1.000000; stroke-opacity:1;  stroke-linecap:round; stroke-linejoin:round;">
<circle cx="177000000.000000" cy="69500000.000000" r="1400000.000000"/> 
</g>
<g style="fill:#000000; fill-opacity:1.0;  stroke:#000000; stroke-width:1.000000; stroke-opacity:1;  stroke-linecap:round; stroke-linejoin:round;">
<circle cx="127600000.000000" cy="81200000.000000" r="1050000.000000"/> 
</g>
<g style="fill:#000000; fill-opacity:0.0;  stroke:#000000; stroke-width:1600000.000000; stroke-opacity:1;  stroke-linecap:round; stroke-linejoin:round;">
<path d="M123200000 81450000 L123200000 80950000 "/>
</g>
<g style="fill:#000000; fill-opacity:1.0;  stroke:#000000; stroke-width:1.000000; stroke-opacity:1;  stroke-linecap:round; stroke-linejoin:round;">
<path style="fill:#000000; fill-opacity:1.0;  stroke:#000000; stroke-width:1.000000; stroke-opacity:1;  stroke-linecap:round; stroke-linejoin:round;fill-rule:evenodd;" d="M 137200000.000000,80350000.000000 137196194.000000,80369134.000000 137185355.000000,80385355.000000 137169134.000000,80396194.000000 137150000.000000,80400000.000000 135450000.000000,80400000.000000 135430866.000000,80396194.000000 135414645.000000,80385355.000000 135403806.000000,80369134.000000 135400000.000000,80350000.000000 135400000.000000,78650000.000000 135403806.000000,78630866.000000 135414645.000000,78614645.000000 135430866.000000,78603806.000000 135450000.000000,78600000.000000 137150000.000000,78600000.000000 137169134.000000,78603806.000000 137185355.000000,78614645.000000 137196194.000000,78630866.000000 137200000.000000,78650000.000000 Z"/> 
<circle cx="136300000.000000" cy="76960000.000000" r="900000.000000"/> 
<circle cx="136300000.000000" cy="74420000.000000" r="900000.000000"/> 
<circle cx="136300000.000000" cy="71880000.000000" r="900000.000000"/> 
<circle cx="136300000.000000" cy="69340000.000000" r="900000.000000"/> 
</g>
<g style="fill:#000000; fill-opacity:1.0;  stroke:#000000; stroke-width:1.000000; stroke-opacity:1;  stroke-linecap:round; stroke-linejoin:round;">
<path style="fill:#000000; fill-opacity:1.0;  stroke:#000000; stroke-width:1.000000; stroke-opacity:1;  stroke-linecap:round; stroke-linejoin:round;fill-rule:evenodd;" d="M 150992000.000000,94400000.000000 150995806.000000,94380866.000000 151006645.000000,94364645.000000 151022866.000000,94353806.000000 151042000.000000,94350000.000000 152742000.000000,94350000.000000 152761134.000000,94353806.000000 152777355.000000,94364645.000000 152788194.000000,94380866.000000 152792000.000000,94400000.000000 152792000.000000,96100000.000000 152788194.000000,96119134.000000 152777355.000000,96135355.000000 152761134.000000,96146194.000000 152742000.000000,96150000.000000 151042000.000000,96150000.000000 151022866.000000,96146194.000000 151006645.000000,96135355.000000 150995806.000000,96119134.000000 150992000.000000,96100000.000000 Z"/> 
<circle cx="154432000.000000" cy="95250000.000000" r="900000.000000"/> 
<circle cx="151892000.000000" cy="97790000.000000" r="900000.000000"/> 
<circle cx="154432000.000000" cy="97790000.000000" r="900000.000000"/> 
</g>
<g style="fill:#000000; fill-opacity:1.0;  stroke:#000000; stroke-width:1.000000; stroke-opacity:1;  stroke-linecap:round; stroke-linejoin:round;">
<path style="fill:#000000; fill-opacity:1.0;  stroke:#000000; stroke-width:1.000000; stroke-opacity:1;  stroke-linecap:round; stroke-linejoin:round;fill-rule:evenodd;" d="M 140272400.000000,98664600.000000 140253266.000000,98660794.000000 140237045.000000,98649955.000000 140226206.000000,98633734.000000 140222400.000000,98614600.000000 140222400.000000,96914600.000000 140226206.000000,96895466.000000 140237045.000000,96879245.000000 140253266.000000,96868406.000000 140272400.000000,96864600.000000 141972400.000000,96864600.000000 141991534.000000,96868406.000000 142007755.000000,96879245.000000 142018594.000000,96895466.000000 142022400.000000,96914600.000000 142022400.000000,98614600.000000 142018594.000000,98633734.000000 142007755.000000,98649955.000000 141991534.000000,98660794.000000 141972400.000000,98664600.000000 Z"/> 
<circle cx="141122400.000000" cy="95224600.000000" r="900000.000000"/> 
<circle cx="143662400.000000" cy="97764600.000000" r="900000.000000"/> 
<circle cx="143662400.000000" cy="95224600.000000" r="900000.000000"/> 
<circle cx="146202400.000000" cy="97764600.000000" r="900000.000000"/> 
<circle cx="146202400.000000" cy="95224600.000000" r="900000.000000"/> 
</g>
<g style="fill:#000000; fill-opacity:1.0;  stroke:#000000; stroke-width:1.000000; stroke-opacity:1;  stroke-linecap:round; stroke-linejoin:round;">
<path style="fill:#000000; fill-opacity:1.0;  stroke:#000000; stroke-width:1.000000; stroke-opacity:1;  stroke-linecap:round; stroke-linejoin:round;fill-rule:evenodd;" d="M 140070000.000000,76366000.000000 140073806.000000,76346866.000000 140084645.000000,76330645.000000 140100866.000000,76319806.000000 140120000.000000,76316000.000000 141820000.000000,76316000.000000 141839134.000000,76319806.000000 141855355.000000,76330645.000000 141866194.000000,76346866.000000 141870000.000000,76366000.000000 141870000.000000,78066000.000000 141866194.000000,78085134.000000 141855355.000000,78101355.000000 141839134.000000,78112194.000000 141820000.000000,78116000.000000 140120000.000000,78116000.000000 140100866.000000,78112194.000000 140084645.000000,78101355.000000 140073806.000000,78085134.000000 140070000.000000,78066000.000000 Z"/> 
<circle cx="140970000.000000" cy="79756000.000000" r="900000.000000"/> 
<circle cx="140970000.000000" cy="82296000.000000" r="900000.000000"/> 
<circle cx="140970000.000000" cy="84836000.000000" r="900000.000000"/> 
<circle cx="140970000.000000" cy="87376000.000000" r="900000.000000"/> 
<circle cx="140970000.000000" cy="89916000.000000" r="900000.000000"/> 
</g>
<g style="fill:#000000; fill-opacity:1.0;  stroke:#000000; stroke-width:1.000000; stroke-opacity:1;  stroke-linecap:round; stroke-linejoin:round;">
<path style="fill:#000000; fill-opacity:1.0;  stroke:#000000; stroke-width:1.000000; stroke-opacity:1;  stroke-linecap:round; stroke-linejoin:round;fill-rule:evenodd;" d="M 172682000.000000,82384000.000000 172662866.000000,82380194.000000 172646645.000000,82369355.000000 172635806.000000,82353134.000000 172632000.000000,82334000.000000 172632000.000000,80734000.000000 172635806.000000,80714866.000000 172646645.000000,80698645.000000 172662866.000000,80687806.000000 172682000.000000,80684000.000000 174282000.000000,80684000.000000 174301134.000000,80687806.000000 174317355.000000,80698645.000000 174328194.000000,80714866.000000 174332000.000000,80734000.000000 174332000.000000,82334000.000000 174328194.000000,82353134.000000 174317355.000000,82369355.000000 174301134.000000,82380194.000000 174282000.000000,82384000.000000 Z"/> 
<circle cx="173482000.000000" cy="84034000.000000" r="850000.000000"/> 
</g>
<g style="fill:#000000; fill-opacity:1.0;  stroke:#000000; stroke-width:1.000000; stroke-opacity:1;  stroke-linecap:round; stroke-linejoin:round;">
<circle cx="175482000.000000" cy="84034000.000000" r="850000.000000"/> 
</g>
<g style="fill:#000000; fill-opacity:1.0;  stroke:#000000; stroke-width:1.000000; stroke-opacity:1;  stroke-linecap:round; stroke-linejoin:round;">
<circle cx="175482000.000000" cy="81534000.000000" r="850000.000000"/> 
</g>
<g style="fill:#000000; fill-opacity:1.0;  stroke:#000000; stroke-width:1.000000; stroke-opacity:1;  stroke-linecap:round; stroke-linejoin:round;">
<circle cx="178342000.000000" cy="76784000.000000" r="2050000.000000"/> 
</g>
<g style="fill:#000000; fill-opacity:1.0;  stroke:#000000; stroke-width:1.000000; stroke-opacity:1;  stroke-linecap:round; stroke-linejoin:round;">
<circle cx="178342000.000000" cy="88784000.000000" r="2050000.000000"/> 
</g>
<g style="fill:#000000; fill-opacity:1.0;  stroke:#000000; stroke-width:1.000000; stroke-opacity:1;  stroke-linecap:round; stroke-linejoin:round;">
<circle cx="167792400.000000" cy="80162400.000000" r="550000.000000"/> 
</g>
<g style="fill:#000000; fill-opacity:1.0;  stroke:#000000; stroke-width:1.000000; stroke-opacity:1;  stroke-linecap:round; stroke-linejoin:round;">
<circle cx="173482000.000000" cy="78486000.000000" r="550000.000000"/> 
</g>
<g style="fill:#000000; fill-opacity:1.0;  stroke:#000000; stroke-width:1.000000; stroke-opacity:1;  stroke-linecap:round; stroke-linejoin:round;">
<circle cx="179070000.000000" cy="80772000.000000" r="550000.000000"/> 
</g>
<g style="fill:#000000; fill-opacity:1.0;  stroke:#000000; stroke-width:1.000000; stroke-opacity:1;  stroke-linecap:round; stroke-linejoin:round;">
<circle cx="179070000.000000" cy="84074000.000000" r="550000.000000"/> 
</g>
<g style="fill:#000000; fill-opacity:1.0;  stroke:#000000; stroke-width:1.000000; stroke-opacity:1;  stroke-linecap:round; stroke-linejoin:round;">
<circle cx="164287200.000000" cy="70053200.000000" r="550000.000000"/> 
</g>
<g style="fill:#000000; fill-opacity:1.0;  stroke:#000000; stroke-width:1.000000; stroke-opacity:1;  stroke-linecap:round; stroke-linejoin:round;">
<circle cx="153492200.000000" cy="70027800.000000" r="550000.000000"/> 
</g>
<g style="fill:#000000; fill-opacity:1.0;  stroke:#000000; stroke-width:1.000000; stroke-opacity:1;  stroke-linecap:round; stroke-linejoin:round;">
<circle cx="155956000.000000" cy="84582000.000000" r="550000.000000"/> 
</g>
</g> 
</mask></defs><g transform="scale(-1,1) translate(-297002200,0)" id="boardContainer"><g clip-path="url(#cut-off)" mask="url(#pads-mask-silkscreen)"><g id="substrate-board" style="fill:#143324; fill-opacity:0.25098039215686274; stroke:#143324;"><path d=" M 182000000.0 101300000.0 L 182000000.0 65700000.0 L 119000000.0 65700000.0 L 119000000.0 101300000.0 L 182000000.0 101300000.0 " style="fill-rule: evenodd;"/><g style="fill-opacity: 0.0;stroke-width: 50000.000000;stroke-opacity: 1;stroke-linecap: round;stroke-linejoin: round">
<path d="M119000000 101300000 L182000000 101300000 "/>
<path d="M182000000 101300000 L182000000 65700000 "/>
<path d="M119000000 65700000 L119000000 101300000 "/>
<path d="M182000000 65700000 L119000000 65700000 "/>
</g> 
</g></g></g></svg>
