<?xml version="1.0" standalone="no"?>
 <!DOCTYPE svg PUBLIC "-//W3C//DTD SVG 1.1//EN" 
 "http://www.w3.org/Graphics/SVG/1.1/DTD/svg11.dtd"> 
<svg
  xmlns:svg="http://www.w3.org/2000/svg"
  xmlns="http://www.w3.org/2000/svg"
  xmlns:xlink="http://www.w3.org/1999/xlink"
  version="1.1"
  width="29.700220cm" height="21.000720cm" viewBox="0 0 2970022 2100072">
<title>SVG Picture created as t1-F_Courtyard.svg date 2023/06/26 15:43:29 </title>
  <desc>Picture generated by PCBNEW </desc>
<g style="fill:#000000; fill-opacity:1.000000;stroke:#000000; stroke-opacity:1.000000;
stroke-linecap:round; stroke-linejoin:round;"
 transform="translate(0 0) scale(1 1)">
</g>
<g style="fill:#000000; fill-opacity:0.0; 
stroke:#000000; stroke-width:0.000000; stroke-opacity:1; 
stroke-linecap:round; stroke-linejoin:round;">
</g>
<g style="fill:#000000; fill-opacity:0.0; 
stroke:#000000; stroke-width:500.000000; stroke-opacity:1; 
stroke-linecap:round; stroke-linejoin:round;">
<path d="M1323354 904944
L1323354 896444
" />
<path d="M1340854 904944
L1352354 916444
" />
<path d="M1264354 916444
L1264354 992944
" />
<path d="M1293354 992944
L1264354 992944
" />
<path d="M1323354 992944
L1323354 1001444
" />
<path d="M1352354 916444
L1352354 992944
" />
<path d="M1323354 896444
L1293354 896444
" />
<path d="M1323354 1001444
L1293354 1001444
" />
<path d="M1293354 896444
L1293354 904944
" />
<path d="M1293354 1001444
L1293354 992944
" />
<path d="M1352354 992944
L1323354 992944
" />
<path d="M1275854 904944
L1264354 916444
" />
<path d="M1293354 904944
L1275854 904944
" />
<path d="M1340854 904944
L1323354 904944
" />
<path d="M1213200 918500
L1213200 899500
" />
<path d="M1213200 899500
L1246800 899500
" />
<path d="M1246800 918500
L1213200 918500
" />
<path d="M1246800 899500
L1246800 918500
" />
<path d="M1613100 767960
L1613100 734360
" />
<path d="M1613100 734360
L1632100 734360
" />
<path d="M1632100 767960
L1613100 767960
" />
<path d="M1632100 734360
L1632100 767960
" />
<path d="M1568600 734360
L1568600 767960
" />
<path d="M1549600 767960
L1549600 734360
" />
<path d="M1549600 734360
L1568600 734360
" />
<path d="M1568600 767960
L1549600 767960
" />
<path d="M1642720 874740
L1642720 908340
" />
<path d="M1642720 908340
L1623720 908340
" />
<path d="M1623720 908340
L1623720 874740
" />
<path d="M1623720 874740
L1642720 874740
" />
<path d="M1556548 779170
L1556548 798170
" />
<path d="M1522948 798170
L1522948 779170
" />
<path d="M1556548 798170
L1522948 798170
" />
<path d="M1522948 779170
L1556548 779170
" />
<path d="M1457046 806486
L1438046 806486
" />
<path d="M1438046 806486
L1438046 772886
" />
<path d="M1457046 772886
L1457046 806486
" />
<path d="M1438046 772886
L1457046 772886
" />
<path d="M1616940 990540
L1616940 944940
" />
<path d="M1639340 944940
L1639340 990540
" />
<path d="M1616940 944940
L1639340 944940
" />
<path d="M1639340 990540
L1616940 990540
" />
<path d="M1482700 732700
L1482700 766300
" />
<path d="M1463700 766300
L1463700 732700
" />
<path d="M1482700 766300
L1463700 766300
" />
<path d="M1463700 732700
L1482700 732700
" />
<path d="M1457300 766300
L1438300 766300
" />
<path d="M1457300 732700
L1457300 766300
" />
<path d="M1438300 732700
L1457300 732700
" />
<path d="M1438300 766300
L1438300 732700
" />
<path d="M1649440 752660
L1708440 752660
" />
<path d="M1649440 791660
L1649440 752660
" />
<path d="M1708440 752660
L1708440 791660
" />
<path d="M1708440 791660
L1649440 791660
" />
<path d="M1662140 916280
L1662140 897280
" />
<path d="M1662140 897280
L1695740 897280
" />
<path d="M1695740 916280
L1662140 916280
" />
<path d="M1695740 897280
L1695740 916280
" />
<circle cx="1694180.000000" cy="706120.000000" r="10000.000000" /> 
<circle cx="1717040.000000" cy="972820.000000" r="10000.000000" /> 
<circle cx="1299972.000000" cy="700786.000000" r="10000.000000" /> 
<circle cx="1372108.000000" cy="981710.000000" r="10000.000000" /> 
<circle cx="1770000.000000" cy="970000.000000" r="29500.000000" /> 
<circle cx="1230000.000000" cy="970000.000000" r="29500.000000" /> 
<circle cx="1230000.000000" cy="695000.000000" r="29500.000000" /> 
<circle cx="1770000.000000" cy="695000.000000" r="29500.000000" /> 
<path d="M1176000 887000
L1176000 737000
" />
<path d="M1333000 887000
L1333000 737000
" />
<path d="M1176000 737000
L1333000 737000
" />
<path d="M1176000 887000
L1333000 887000
" />
<path d="M1345000 675500
L1345000 813000
" />
<path d="M1381000 675500
L1345000 675500
" />
<path d="M1381000 813000
L1381000 675500
" />
<path d="M1345000 813000
L1381000 813000
" />
<path d="M1562420 996000
L1562420 934500
" />
<path d="M1562420 934500
L1500920 934500
" />
<path d="M1500920 996000
L1562420 996000
" />
<path d="M1500920 934500
L1500920 996000
" />
<path d="M1393224 995646
L1479724 995646
" />
<path d="M1479724 995646
L1479724 934146
" />
<path d="M1479724 934146
L1393224 934146
" />
<path d="M1393224 934146
L1393224 995646
" />
<path d="M1391700 754160
L1391700 917160
" />
<path d="M1427700 754160
L1391700 754160
" />
<path d="M1391700 917160
L1427700 917160
" />
<path d="M1427700 917160
L1427700 754160
" />
<path d="M1660090 974334
L1660090 941334
" />
<path d="M1685090 941334
L1660090 941334
" />
<path d="M1660090 974334
L1685090 974334
" />
<path d="M1685090 941334
L1685090 974334
" />
<path d="M1680500 851560
L1680500 870560
" />
<path d="M1646900 851560
L1680500 851560
" />
<path d="M1680500 870560
L1646900 870560
" />
<path d="M1646900 870560
L1646900 851560
" />
<path d="M1646900 828700
L1680500 828700
" />
<path d="M1680500 828700
L1680500 847700
" />
<path d="M1646900 847700
L1646900 828700
" />
<path d="M1680500 847700
L1646900 847700
" />
<path d="M1606380 768280
L1572780 768280
" />
<path d="M1572780 749280
L1606380 749280
" />
<path d="M1572780 768280
L1572780 749280
" />
<path d="M1606380 749280
L1606380 768280
" />
<path d="M1580540 974380
L1580540 940780
" />
<path d="M1580540 940780
L1599540 940780
" />
<path d="M1599540 940780
L1599540 974380
" />
<path d="M1599540 974380
L1580540 974380
" />
<path d="M1438046 811240
L1457046 811240
" />
<path d="M1457046 844840
L1438046 844840
" />
<path d="M1457046 811240
L1457046 844840
" />
<path d="M1438046 844840
L1438046 811240
" />
<path d="M1463700 684948
L1482700 684948
" />
<path d="M1482700 684948
L1482700 718548
" />
<path d="M1482700 718548
L1463700 718548
" />
<path d="M1463700 718548
L1463700 684948
" />
<path d="M1457300 684948
L1457300 718548
" />
<path d="M1438300 718548
L1438300 684948
" />
<path d="M1438300 684948
L1457300 684948
" />
<path d="M1457300 718548
L1438300 718548
" />
<path d="M1697040 888305
L1697040 858705
" />
<path d="M1711640 858705
L1711640 888305
" />
<path d="M1697040 858705
L1711640 858705
" />
<path d="M1711640 888305
L1697040 888305
" />
<path d="M1556278 681278
L1556278 719278
" />
<path d="M1622278 719278
L1622278 681278
" />
<path d="M1556278 719278
L1622278 719278
" />
<path d="M1622278 681278
L1556278 681278
" />
<path d="M1891420 912840
L1891420 742840
" />
<path d="M1717420 742840
L1717420 912840
" />
<path d="M1717420 912840
L1891420 912840
" />
<path d="M1891420 742840
L1717420 742840
" />
<path d="M1597320 805520
L1597320 911520
" />
<path d="M1491320 805520
L1491320 911520
" />
<path d="M1597320 805520
L1491320 805520
" />
<path d="M1597320 911520
L1491320 911520
" />
<path d="M1697040 838014
L1697040 808414
" />
<path d="M1711640 808414
L1711640 838014
" />
<path d="M1711640 838014
L1697040 838014
" />
<path d="M1697040 808414
L1711640 808414
" />
<path d="M1633322 803874
L1633322 837474
" />
<path d="M1614322 837474
L1614322 803874
" />
<path d="M1614322 803874
L1633322 803874
" />
<path d="M1633322 837474
L1614322 837474
" />
<g >
</g>
<g >
</g>
<g >
</g>
<g >
</g>
<g >
</g>
<g >
</g>
<g >
</g>
<g >
</g>
<g >
</g>
<g >
</g>
<g >
</g>
<g >
</g>
<g >
</g>
<g >
</g>
<g >
</g>
<g >
</g>
<g >
</g>
<g >
</g>
<g >
</g>
<g >
</g>
<g >
</g>
<g >
</g>
<g >
</g>
<g >
</g>
<g >
</g>
<g >
</g>
<g >
</g>
<g >
</g>
<g >
</g>
<g >
</g>
<g >
</g>
<g >
</g>
<g >
</g>
<g >
</g>
<g >
</g>
<g >
</g>
<g >
</g>
<g >
</g>
<g >
</g>
<g >
</g>
<g >
</g>
<g >
</g>
<g >
</g>
<g >
</g>
<g >
</g>
<g >
</g>
<g >
</g>
<g >
</g>
<g >
</g>
<g >
</g>
</g> 
</svg>
