<?xml version='1.0' encoding='ASCII' standalone='yes'?>
<svg xmlns:svg="http://www.w3.org/2000/svg" xmlns="http://www.w3.org/2000/svg" xmlns:xlink="http://www.w3.org/1999/xlink" version="1.1" width="29.700220cm" height="21.000720cm" viewBox="0 0 2970022 2100072">
<title>SVG Picture created as t1-F_Courtyard.svg date 2023/08/17 11:42:43 </title>
  <desc>Picture generated by PCBNEW </desc>
<g style="fill:#C2C2C2; fill-opacity:1.000000;stroke:#C2C2C2; stroke-opacity:1.000000; stroke-linecap:round; stroke-linejoin:round;" transform="translate(0 0) scale(1 1)">
</g>
<g style="fill:#C2C2C2; fill-opacity:0.0;  stroke:#C2C2C2; stroke-width:0.000000; stroke-opacity:1;  stroke-linecap:round; stroke-linejoin:round;">
</g>
<g style="fill:#C2C2C2; fill-opacity:0.0;  stroke:#C2C2C2; stroke-width:500.000000; stroke-opacity:1;  stroke-linecap:round; stroke-linejoin:round;">
<path d="M1323354 904944 L1323354 896444 "/>
<path d="M1340854 904944 L1352354 916444 "/>
<path d="M1264354 916444 L1264354 992944 "/>
<path d="M1293354 992944 L1264354 992944 "/>
<path d="M1323354 992944 L1323354 1001444 "/>
<path d="M1352354 916444 L1352354 992944 "/>
<path d="M1323354 896444 L1293354 896444 "/>
<path d="M1323354 1001444 L1293354 1001444 "/>
<path d="M1293354 896444 L1293354 904944 "/>
<path d="M1293354 1001444 L1293354 992944 "/>
<path d="M1352354 992944 L1323354 992944 "/>
<path d="M1275854 904944 L1264354 916444 "/>
<path d="M1293354 904944 L1275854 904944 "/>
<path d="M1340854 904944 L1323354 904944 "/>
<path d="M1213200 918500 L1213200 899500 "/>
<path d="M1213200 899500 L1246800 899500 "/>
<path d="M1246800 918500 L1213200 918500 "/>
<path d="M1246800 899500 L1246800 918500 "/>
<path d="M1613100 767960 L1613100 734360 "/>
<path d="M1613100 734360 L1632100 734360 "/>
<path d="M1632100 767960 L1613100 767960 "/>
<path d="M1632100 734360 L1632100 767960 "/>
<path d="M1568600 734360 L1568600 767960 "/>
<path d="M1549600 767960 L1549600 734360 "/>
<path d="M1549600 734360 L1568600 734360 "/>
<path d="M1568600 767960 L1549600 767960 "/>
<path d="M1642720 874740 L1642720 908340 "/>
<path d="M1642720 908340 L1623720 908340 "/>
<path d="M1623720 908340 L1623720 874740 "/>
<path d="M1623720 874740 L1642720 874740 "/>
<path d="M1556548 779170 L1556548 798170 "/>
<path d="M1522948 798170 L1522948 779170 "/>
<path d="M1556548 798170 L1522948 798170 "/>
<path d="M1522948 779170 L1556548 779170 "/>
<path d="M1457046 806486 L1438046 806486 "/>
<path d="M1438046 806486 L1438046 772886 "/>
<path d="M1457046 772886 L1457046 806486 "/>
<path d="M1438046 772886 L1457046 772886 "/>
<path d="M1616940 990540 L1616940 944940 "/>
<path d="M1639340 944940 L1639340 990540 "/>
<path d="M1616940 944940 L1639340 944940 "/>
<path d="M1639340 990540 L1616940 990540 "/>
<path d="M1482700 732700 L1482700 766300 "/>
<path d="M1463700 766300 L1463700 732700 "/>
<path d="M1482700 766300 L1463700 766300 "/>
<path d="M1463700 732700 L1482700 732700 "/>
<path d="M1457300 766300 L1438300 766300 "/>
<path d="M1457300 732700 L1457300 766300 "/>
<path d="M1438300 732700 L1457300 732700 "/>
<path d="M1438300 766300 L1438300 732700 "/>
<path d="M1649440 752660 L1708440 752660 "/>
<path d="M1649440 791660 L1649440 752660 "/>
<path d="M1708440 752660 L1708440 791660 "/>
<path d="M1708440 791660 L1649440 791660 "/>
<path d="M1662140 916280 L1662140 897280 "/>
<path d="M1662140 897280 L1695740 897280 "/>
<path d="M1695740 916280 L1662140 916280 "/>
<path d="M1695740 897280 L1695740 916280 "/>
<circle cx="1694180.000000" cy="706120.000000" r="10000.000000"/> 
<circle cx="1717040.000000" cy="972820.000000" r="10000.000000"/> 
<circle cx="1299972.000000" cy="700786.000000" r="10000.000000"/> 
<circle cx="1372108.000000" cy="981710.000000" r="10000.000000"/> 
<circle cx="1770000.000000" cy="970000.000000" r="29500.000000"/> 
<circle cx="1230000.000000" cy="970000.000000" r="29500.000000"/> 
<circle cx="1230000.000000" cy="695000.000000" r="29500.000000"/> 
<circle cx="1770000.000000" cy="695000.000000" r="29500.000000"/> 
<path d="M1176000 887000 L1176000 737000 "/>
<path d="M1333000 887000 L1333000 737000 "/>
<path d="M1176000 737000 L1333000 737000 "/>
<path d="M1176000 887000 L1333000 887000 "/>
<path d="M1345000 675500 L1345000 813000 "/>
<path d="M1381000 675500 L1345000 675500 "/>
<path d="M1381000 813000 L1381000 675500 "/>
<path d="M1345000 813000 L1381000 813000 "/>
<path d="M1562420 996000 L1562420 934500 "/>
<path d="M1562420 934500 L1500920 934500 "/>
<path d="M1500920 996000 L1562420 996000 "/>
<path d="M1500920 934500 L1500920 996000 "/>
<path d="M1393224 995646 L1479724 995646 "/>
<path d="M1479724 995646 L1479724 934146 "/>
<path d="M1479724 934146 L1393224 934146 "/>
<path d="M1393224 934146 L1393224 995646 "/>
<path d="M1391700 754160 L1391700 917160 "/>
<path d="M1427700 754160 L1391700 754160 "/>
<path d="M1391700 917160 L1427700 917160 "/>
<path d="M1427700 917160 L1427700 754160 "/>
<path d="M1660090 974334 L1660090 941334 "/>
<path d="M1685090 941334 L1660090 941334 "/>
<path d="M1660090 974334 L1685090 974334 "/>
<path d="M1685090 941334 L1685090 974334 "/>
<path d="M1680500 851560 L1680500 870560 "/>
<path d="M1646900 851560 L1680500 851560 "/>
<path d="M1680500 870560 L1646900 870560 "/>
<path d="M1646900 870560 L1646900 851560 "/>
<path d="M1646900 828700 L1680500 828700 "/>
<path d="M1680500 828700 L1680500 847700 "/>
<path d="M1646900 847700 L1646900 828700 "/>
<path d="M1680500 847700 L1646900 847700 "/>
<path d="M1606380 768280 L1572780 768280 "/>
<path d="M1572780 749280 L1606380 749280 "/>
<path d="M1572780 768280 L1572780 749280 "/>
<path d="M1606380 749280 L1606380 768280 "/>
<path d="M1580540 974380 L1580540 940780 "/>
<path d="M1580540 940780 L1599540 940780 "/>
<path d="M1599540 940780 L1599540 974380 "/>
<path d="M1599540 974380 L1580540 974380 "/>
<path d="M1438046 811240 L1457046 811240 "/>
<path d="M1457046 844840 L1438046 844840 "/>
<path d="M1457046 811240 L1457046 844840 "/>
<path d="M1438046 844840 L1438046 811240 "/>
<path d="M1463700 684948 L1482700 684948 "/>
<path d="M1482700 684948 L1482700 718548 "/>
<path d="M1482700 718548 L1463700 718548 "/>
<path d="M1463700 718548 L1463700 684948 "/>
<path d="M1457300 684948 L1457300 718548 "/>
<path d="M1438300 718548 L1438300 684948 "/>
<path d="M1438300 684948 L1457300 684948 "/>
<path d="M1457300 718548 L1438300 718548 "/>
<path d="M1697040 888305 L1697040 858705 "/>
<path d="M1711640 858705 L1711640 888305 "/>
<path d="M1697040 858705 L1711640 858705 "/>
<path d="M1711640 888305 L1697040 888305 "/>
<path d="M1556278 681278 L1556278 719278 "/>
<path d="M1622278 719278 L1622278 681278 "/>
<path d="M1556278 719278 L1622278 719278 "/>
<path d="M1622278 681278 L1556278 681278 "/>
<path d="M1891420 912840 L1891420 742840 "/>
<path d="M1717420 742840 L1717420 912840 "/>
<path d="M1717420 912840 L1891420 912840 "/>
<path d="M1891420 742840 L1717420 742840 "/>
<path d="M1597320 805520 L1597320 911520 "/>
<path d="M1491320 805520 L1491320 911520 "/>
<path d="M1597320 805520 L1491320 805520 "/>
<path d="M1597320 911520 L1491320 911520 "/>
<path d="M1697040 838014 L1697040 808414 "/>
<path d="M1711640 808414 L1711640 838014 "/>
<path d="M1711640 838014 L1697040 838014 "/>
<path d="M1697040 808414 L1711640 808414 "/>
<path d="M1633322 803874 L1633322 837474 "/>
<path d="M1614322 837474 L1614322 803874 "/>
<path d="M1614322 803874 L1633322 803874 "/>
<path d="M1633322 837474 L1614322 837474 "/>
<g>
</g>
<g>
</g>
<g>
</g>
<g>
</g>
<g>
</g>
<g>
</g>
<g>
</g>
<g>
</g>
<g>
</g>
<g>
</g>
<g>
</g>
<g>
</g>
<g>
</g>
<g>
</g>
<g>
</g>
<g>
</g>
<g>
</g>
<g>
</g>
<g>
</g>
<g>
</g>
<g>
</g>
<g>
</g>
<g>
</g>
<g>
</g>
<g>
</g>
<g>
</g>
<g>
</g>
<g>
</g>
<g>
</g>
<g>
</g>
<g>
</g>
<g>
</g>
<g>
</g>
<g>
</g>
<g>
</g>
<g>
</g>
<g>
</g>
<g>
</g>
<g>
</g>
<g>
</g>
<g>
</g>
<g>
</g>
<g>
</g>
<g>
</g>
<g>
</g>
<g>
</g>
<g>
</g>
<g>
</g>
<g>
</g>
<g>
</g>
</g> 
<svg:g><svg:g><svg:title>SVG Picture created as t1-Edge_Cuts.svg date 2023/08/17 11:42:43 </svg:title>
  <svg:desc>Picture generated by PCBNEW </svg:desc>
<svg:g style="fill:#C2C200; fill-opacity:1.000000;stroke:#C2C200; stroke-opacity:1.000000; stroke-linecap:round; stroke-linejoin:round;" transform="translate(0 0) scale(1 1)">
</svg:g>
<svg:g style="fill:#C2C200; fill-opacity:0.0;  stroke:#C2C200; stroke-width:0.000000; stroke-opacity:1;  stroke-linecap:round; stroke-linejoin:round;">
</svg:g>
<svg:g style="fill:#C2C200; fill-opacity:0.0;  stroke:#C2C200; stroke-width:500.000000; stroke-opacity:1;  stroke-linecap:round; stroke-linejoin:round;">
<svg:path d="M1190000 1013000 L1820000 1013000 "/>
<svg:path d="M1820000 1013000 L1820000 657000 "/>
<svg:path d="M1190000 657000 L1190000 1013000 "/>
<svg:path d="M1820000 657000 L1190000 657000 "/>
<svg:g>
</svg:g>
<svg:g>
</svg:g>
<svg:g>
</svg:g>
<svg:g>
</svg:g>
<svg:g>
</svg:g>
<svg:g>
</svg:g>
<svg:g>
</svg:g>
<svg:g>
</svg:g>
<svg:g>
</svg:g>
<svg:g>
</svg:g>
<svg:g>
</svg:g>
<svg:g>
</svg:g>
<svg:g>
</svg:g>
<svg:g>
</svg:g>
<svg:g>
</svg:g>
<svg:g>
</svg:g>
<svg:g>
</svg:g>
<svg:g>
</svg:g>
<svg:g>
</svg:g>
<svg:g>
</svg:g>
<svg:g>
</svg:g>
<svg:g>
</svg:g>
<svg:g>
</svg:g>
<svg:g>
</svg:g>
<svg:g>
</svg:g>
<svg:g>
</svg:g>
<svg:g>
</svg:g>
<svg:g>
</svg:g>
<svg:g>
</svg:g>
<svg:g>
</svg:g>
<svg:g>
</svg:g>
<svg:g>
</svg:g>
<svg:g>
</svg:g>
<svg:g>
</svg:g>
<svg:g>
</svg:g>
<svg:g>
</svg:g>
<svg:g>
</svg:g>
<svg:g>
</svg:g>
<svg:g>
</svg:g>
<svg:g>
</svg:g>
<svg:g>
</svg:g>
<svg:g>
</svg:g>
<svg:g>
</svg:g>
<svg:g>
</svg:g>
<svg:g>
</svg:g>
<svg:g>
</svg:g>
<svg:g>
</svg:g>
<svg:g>
</svg:g>
<svg:g>
</svg:g>
<svg:g>
</svg:g>
</svg:g> 
</svg:g></svg:g><svg:g><svg:g><svg:title>SVG Picture created as t1-User_Drawings.svg date 2023/08/17 11:42:43 </svg:title>
  <svg:desc>Picture generated by PCBNEW </svg:desc>
<svg:g style="fill:#C2C2C2; fill-opacity:1.000000;stroke:#C2C2C2; stroke-opacity:1.000000; stroke-linecap:round; stroke-linejoin:round;" transform="translate(0 0) scale(1 1)">
</svg:g>
<svg:g style="fill:#C2C2C2; fill-opacity:0.0;  stroke:#C2C2C2; stroke-width:0.000000; stroke-opacity:1;  stroke-linecap:round; stroke-linejoin:round;">
</svg:g>
<svg:g style="fill:#C2C2C2; fill-opacity:0.0;  stroke:#C2C2C2; stroke-width:1500.000000; stroke-opacity:1;  stroke-linecap:round; stroke-linejoin:round;">
<svg:g transform="rotate(89.998391 1171004.860000 834922.540000)">
<svg:text x="1171004.860000" y="839922.540000" textLength="98140.480000" font-size="13333.330000" lengthAdjust="spacingAndGlyphs" text-anchor="middle" opacity="0.01" style="font-family:monospace">35.6156 mm</svg:text>
</svg:g>
<svg:g class="stroked-text"><svg:desc>35.6156 mm</svg:desc>
<svg:path d="M1176479 788255 L1176479 794446 L1172670 791112 L1172670 792541 L1172194 793493 L1171717 793970 L1170765 794446 L1168384 794446 L1167432 793970 L1166956 793494 L1166479 792541 L1166479 789684 L1166955 788732 L1167432 788255 "/>
<svg:path d="M1176480 803493 L1176480 798731 L1171718 798255 L1172194 798732 L1172670 799684 L1172670 802065 L1172194 803017 L1171718 803493 L1170765 803970 L1168384 803970 L1167432 803494 L1166956 803017 L1166480 802065 L1166480 799684 L1166956 798732 L1167432 798255 "/>
<svg:path d="M1167432 808255 L1166956 808732 L1166480 808256 L1166956 807779 L1167432 808255 L1166480 808256 "/>
<svg:path d="M1176480 817303 L1176480 815398 L1176004 814446 L1175528 813970 L1174099 813017 L1172194 812541 L1168385 812541 L1167432 813017 L1166956 813494 L1166480 814446 L1166480 816351 L1166956 817303 L1167432 817779 L1168385 818255 L1170766 818255 L1171718 817779 L1172194 817303 L1172671 816351 L1172670 814446 L1172194 813493 L1171718 813017 L1170766 812541 "/>
<svg:path d="M1166480 827779 L1166480 822065 "/>
<svg:path d="M1166480 824922 L1176480 824922 L1175052 823970 L1174099 823017 L1173623 822065 "/>
<svg:path d="M1176481 836827 L1176480 832065 L1171719 831589 L1172195 832065 L1172671 833017 L1172671 835398 L1172195 836351 L1171719 836827 L1170766 837303 L1168385 837303 L1167433 836827 L1166957 836351 L1166481 835398 L1166480 833017 L1166957 832065 L1167433 831589 "/>
<svg:path d="M1176481 845874 L1176481 843970 L1176005 843017 L1175528 842541 L1174100 841589 L1172195 841112 L1168385 841113 L1167433 841589 L1166957 842065 L1166481 843017 L1166481 844922 L1166957 845875 L1167433 846351 L1168386 846827 L1170767 846827 L1171719 846351 L1172195 845874 L1172671 844922 L1172671 843017 L1172195 842065 L1171719 841589 L1170766 841113 "/>
<svg:path d="M1166481 858732 L1173148 858732 "/>
<svg:path d="M1172196 858732 L1172672 859208 L1173148 860160 L1173148 861589 L1172672 862541 L1171719 863017 L1166481 863017 "/>
<svg:path d="M1171719 863017 L1172672 863493 L1173148 864446 L1173148 865874 L1172672 866827 L1171720 867303 L1166481 867303 "/>
<svg:path d="M1166482 872065 L1173148 872065 "/>
<svg:path d="M1172196 872065 L1172672 872541 L1173148 873493 L1173148 874922 L1172672 875874 L1171720 876351 L1166482 876351 "/>
<svg:path d="M1171720 876351 L1172672 876827 L1173148 877779 L1173148 879208 L1172672 880160 L1171720 880636 L1166482 880636 "/>
</svg:g><svg:path d="M1190000 1013000 L1153645 1013001 "/>
<svg:path d="M1189990 656844 L1153635 656845 "/>
<svg:path d="M1159509 1013000 L1159499 656844 "/>
<svg:path d="M1159509 1013000 L1159499 656844 "/>
<svg:path d="M1159509 1013000 L1165373 1001735 "/>
<svg:path d="M1159509 1013000 L1153645 1001735 "/>
<svg:path d="M1159499 656844 L1153635 668110 "/>
<svg:path d="M1159499 656844 L1165364 668109 "/>
<svg:g transform="rotate(-359.985813 1505002.630000 626117.750000)">
<svg:text x="1505002.630000" y="631117.750000" textLength="98140.480000" font-size="13333.330000" lengthAdjust="spacingAndGlyphs" text-anchor="middle" opacity="0.01" style="font-family:monospace">63.0010 mm</svg:text>
</svg:g>
<svg:g class="stroked-text"><svg:desc>63.0010 mm</svg:desc>
<svg:path d="M1463575 620631 L1461670 620630 L1460718 621106 L1460241 621582 L1459289 623011 L1458812 624915 L1458811 628725 L1459287 629677 L1459763 630154 L1460715 630630 L1462620 630631 L1463573 630155 L1464049 629679 L1464525 628726 L1464526 626345 L1464050 625393 L1463574 624917 L1462622 624440 L1460717 624440 L1459764 624916 L1459288 625392 L1458812 626344 "/>
<svg:path d="M1467861 620632 L1474051 620633 L1470717 624442 L1472145 624442 L1473098 624919 L1473574 625395 L1474050 626348 L1474049 628729 L1473573 629681 L1473096 630157 L1472144 630633 L1469287 630632 L1468334 630156 L1467858 629679 "/>
<svg:path d="M1478335 629682 L1478811 630158 L1478334 630634 L1477858 630158 L1478335 629682 L1478334 630634 "/>
<svg:path d="M1485003 620636 L1485956 620636 L1486908 621113 L1487384 621589 L1487860 622542 L1488336 624446 L1488335 626827 L1487859 628732 L1487382 629684 L1486906 630160 L1485953 630636 L1485001 630636 L1484049 630160 L1483573 629683 L1483097 628731 L1482621 626826 L1482622 624445 L1483098 622540 L1483575 621588 L1484051 621112 L1485003 620636 "/>
<svg:path d="M1494527 620638 L1495480 620639 L1496432 621115 L1496908 621591 L1497384 622544 L1497860 624449 L1497859 626830 L1497382 628734 L1496906 629687 L1496430 630163 L1495477 630639 L1494525 630638 L1493573 630162 L1493096 629686 L1492621 628733 L1492145 626828 L1492145 624447 L1492622 622543 L1493098 621590 L1493575 621114 L1494527 620638 "/>
<svg:path d="M1507382 630642 L1501668 630640 "/>
<svg:path d="M1504525 630641 L1504527 620641 L1503575 622069 L1502622 623021 L1501669 623497 "/>
<svg:path d="M1513575 620643 L1514527 620643 L1515480 621120 L1515956 621596 L1516432 622549 L1516907 624454 L1516907 626834 L1516430 628739 L1515954 629691 L1515477 630167 L1514525 630643 L1513572 630643 L1512620 630167 L1512144 629690 L1511668 628738 L1511192 626833 L1511193 624452 L1511670 622547 L1512146 621595 L1512622 621119 L1513575 620643 "/>
<svg:path d="M1528811 630647 L1528812 623980 "/>
<svg:path d="M1528812 624933 L1529288 624457 L1530241 623981 L1531669 623981 L1532622 624457 L1533098 625410 L1533096 630648 "/>
<svg:path d="M1533098 625410 L1533574 624458 L1534526 623982 L1535955 623982 L1536907 624458 L1537383 625411 L1537382 630649 "/>
<svg:path d="M1542144 630650 L1542146 623984 "/>
<svg:path d="M1542145 624936 L1542622 624460 L1543574 623984 L1545003 623984 L1545955 624461 L1546431 625413 L1546430 630651 "/>
<svg:path d="M1546431 625413 L1546907 624461 L1547860 623985 L1549288 623985 L1550241 624462 L1550717 625414 L1550715 630652 "/>
</svg:g><svg:path d="M1189990 656844 L1189996 631675 "/>
<svg:path d="M1820000 657000 L1820006 631831 "/>
<svg:path d="M1189994 637539 L1820004 637695 "/>
<svg:path d="M1189994 637539 L1820004 637695 "/>
<svg:path d="M1189994 637539 L1201258 643406 "/>
<svg:path d="M1189994 637539 L1201261 631678 "/>
<svg:path d="M1820004 637695 L1808741 631828 "/>
<svg:path d="M1820004 637695 L1808738 643557 "/>
<svg:g>
</svg:g>
<svg:g>
</svg:g>
<svg:g>
</svg:g>
<svg:g>
</svg:g>
<svg:g>
</svg:g>
<svg:g>
</svg:g>
<svg:g>
</svg:g>
<svg:g>
</svg:g>
<svg:g>
</svg:g>
<svg:g>
</svg:g>
<svg:g>
</svg:g>
<svg:g>
</svg:g>
<svg:g>
</svg:g>
<svg:g>
</svg:g>
<svg:g>
</svg:g>
<svg:g>
</svg:g>
<svg:g>
</svg:g>
<svg:g>
</svg:g>
<svg:g>
</svg:g>
<svg:g>
</svg:g>
<svg:g>
</svg:g>
<svg:g>
</svg:g>
<svg:g>
</svg:g>
<svg:g>
</svg:g>
<svg:g>
</svg:g>
<svg:g>
</svg:g>
<svg:g>
</svg:g>
<svg:g>
</svg:g>
<svg:g>
</svg:g>
<svg:g>
</svg:g>
<svg:g>
</svg:g>
<svg:g>
</svg:g>
<svg:g>
</svg:g>
<svg:g>
</svg:g>
<svg:g>
</svg:g>
<svg:g>
</svg:g>
<svg:g>
</svg:g>
<svg:g>
</svg:g>
<svg:g>
</svg:g>
<svg:g>
</svg:g>
<svg:g>
</svg:g>
<svg:g>
</svg:g>
<svg:g>
</svg:g>
<svg:g>
</svg:g>
<svg:g>
</svg:g>
<svg:g>
</svg:g>
<svg:g>
</svg:g>
<svg:g>
</svg:g>
<svg:g>
</svg:g>
<svg:g>
</svg:g>
</svg:g> 
</svg:g></svg:g><svg:g><svg:g><svg:title>SVG Picture created as t1-User_Comments.svg date 2023/08/17 11:42:43 </svg:title>
  <svg:desc>Picture generated by PCBNEW </svg:desc>
<svg:g style="fill:#000084; fill-opacity:1.000000;stroke:#000084; stroke-opacity:1.000000; stroke-linecap:round; stroke-linejoin:round;" transform="translate(0 0) scale(1 1)">
</svg:g>
<svg:g style="fill:#000084; fill-opacity:0.0;  stroke:#000084; stroke-width:0.000000; stroke-opacity:1;  stroke-linecap:round; stroke-linejoin:round;">
</svg:g>
<svg:g style="fill:#000084; fill-opacity:0.0;  stroke:#000084; stroke-width:1500.000000; stroke-opacity:1;  stroke-linecap:round; stroke-linejoin:round;">
<svg:circle cx="1770000.000000" cy="970000.000000" r="27000.000000"/> 
<svg:circle cx="1230000.000000" cy="970000.000000" r="27000.000000"/> 
<svg:circle cx="1230000.000000" cy="695000.000000" r="27000.000000"/> 
<svg:circle cx="1770000.000000" cy="695000.000000" r="27000.000000"/> 
<svg:g>
</svg:g>
<svg:g>
</svg:g>
<svg:g>
</svg:g>
<svg:g>
</svg:g>
<svg:g>
</svg:g>
<svg:g>
</svg:g>
<svg:g>
</svg:g>
<svg:g>
</svg:g>
<svg:g>
</svg:g>
<svg:g>
</svg:g>
<svg:g>
</svg:g>
<svg:g>
</svg:g>
<svg:g>
</svg:g>
<svg:g>
</svg:g>
<svg:g>
</svg:g>
<svg:g>
</svg:g>
<svg:g>
</svg:g>
<svg:g>
</svg:g>
<svg:g>
</svg:g>
<svg:g>
</svg:g>
<svg:g>
</svg:g>
<svg:g>
</svg:g>
<svg:g>
</svg:g>
<svg:g>
</svg:g>
<svg:g>
</svg:g>
<svg:g>
</svg:g>
<svg:g>
</svg:g>
<svg:g>
</svg:g>
<svg:g>
</svg:g>
<svg:g>
</svg:g>
<svg:g>
</svg:g>
<svg:g>
</svg:g>
<svg:g>
</svg:g>
<svg:g>
</svg:g>
<svg:g>
</svg:g>
<svg:g>
</svg:g>
<svg:g>
</svg:g>
<svg:g>
</svg:g>
<svg:g>
</svg:g>
<svg:g>
</svg:g>
<svg:g>
</svg:g>
<svg:g>
</svg:g>
<svg:g>
</svg:g>
<svg:g>
</svg:g>
<svg:g>
</svg:g>
<svg:g>
</svg:g>
<svg:g>
</svg:g>
<svg:g>
</svg:g>
<svg:g>
</svg:g>
<svg:g>
</svg:g>
</svg:g> 
</svg:g></svg:g><svg:g><svg:g><svg:title>SVG Picture created as t1-frame.svg date 2023/08/17 11:42:43 </svg:title>
  <svg:desc>Picture generated by PCBNEW </svg:desc>
<svg:g style="fill:#480000; fill-opacity:1.000000;stroke:#480000; stroke-opacity:1.000000; stroke-linecap:round; stroke-linejoin:round;" transform="translate(0 0) scale(1 1)">
</svg:g>
<svg:g style="fill:#480000; fill-opacity:0.0;  stroke:#480000; stroke-width:0.000000; stroke-opacity:1;  stroke-linecap:round; stroke-linejoin:round;">
</svg:g>
<svg:g style="fill:#480000; fill-opacity:0.01;  stroke:#480000; stroke-width:1500.000000; stroke-opacity:1;  stroke-linecap:round; stroke-linejoin:round;">
<svg:path d="M2610000 1915000 L2610000 1980000 "/>
<svg:path d="M1970000 1915000 L1970000 1945000 "/>
<svg:text x="1780000.000000" y="1687500.000000" textLength="337664.290000" font-size="20000.000000" lengthAdjust="spacingAndGlyphs" text-anchor="start" opacity="0.01" style="font-family:monospace">An example of KiBot variants</svg:text>
<svg:g class="stroked-text"><svg:desc>An example of KiBot variants</svg:desc>
<svg:path d="M1783832 1682500 L1790975 1682500 "/>
<svg:path d="M1782403 1686785 L1787403 1671785 L1792403 1686785 "/>
<svg:path d="M1797403 1676785 L1797403 1686785 "/>
<svg:path d="M1797403 1678214 L1798117 1677500 L1799546 1676785 L1801689 1676785 L1803117 1677500 L1803832 1678928 L1803832 1686785 "/>
<svg:path d="M1828117 1686071 L1826689 1686785 L1823832 1686785 L1822403 1686071 L1821689 1684642 L1821689 1678928 L1822403 1677500 L1823832 1676785 L1826689 1676785 L1828117 1677500 L1828832 1678928 L1828832 1680357 L1821689 1681785 "/>
<svg:path d="M1833832 1686785 L1841689 1676785 "/>
<svg:path d="M1833832 1676785 L1841689 1686785 "/>
<svg:path d="M1853832 1686785 L1853832 1678928 L1853117 1677500 L1851689 1676785 L1848832 1676785 L1847403 1677500 "/>
<svg:path d="M1853832 1686071 L1852403 1686785 L1848832 1686785 L1847403 1686071 L1846689 1684642 L1846689 1683214 L1847403 1681785 L1848832 1681071 L1852403 1681071 L1853832 1680357 "/>
<svg:path d="M1860975 1686785 L1860975 1676785 "/>
<svg:path d="M1860975 1678214 L1861689 1677500 L1863117 1676785 L1865260 1676785 L1866689 1677500 L1867403 1678928 L1867403 1686785 "/>
<svg:path d="M1867403 1678928 L1868117 1677500 L1869546 1676785 L1871689 1676785 L1873117 1677500 L1873832 1678928 L1873832 1686785 "/>
<svg:path d="M1880975 1676785 L1880975 1691785 "/>
<svg:path d="M1880975 1677500 L1882403 1676785 L1885260 1676785 L1886689 1677500 L1887403 1678214 L1888117 1679642 L1888117 1683928 L1887403 1685357 L1886689 1686071 L1885260 1686785 L1882403 1686785 L1880975 1686071 "/>
<svg:path d="M1896689 1686785 L1895260 1686071 L1894546 1684642 L1894546 1671785 "/>
<svg:path d="M1908117 1686071 L1906689 1686785 L1903832 1686785 L1902403 1686071 L1901689 1684642 L1901689 1678928 L1902403 1677500 L1903832 1676785 L1906689 1676785 L1908117 1677500 L1908832 1678928 L1908832 1680357 L1901689 1681785 "/>
<svg:path d="M1928832 1686785 L1927403 1686071 L1926689 1685357 L1925975 1683928 L1925975 1679642 L1926689 1678214 L1927403 1677500 L1928832 1676785 L1930975 1676785 L1932403 1677500 L1933117 1678214 L1933832 1679642 L1933832 1683928 L1933117 1685357 L1932403 1686071 L1930975 1686785 L1928832 1686785 "/>
<svg:path d="M1938117 1676785 L1943832 1676785 "/>
<svg:path d="M1940260 1686785 L1940260 1673928 L1940975 1672500 L1942403 1671785 L1943832 1671785 "/>
<svg:path d="M1960260 1686785 L1960260 1671785 "/>
<svg:path d="M1968832 1686785 L1962403 1678214 "/>
<svg:path d="M1968832 1671785 L1960260 1680357 "/>
<svg:path d="M1975260 1686785 L1975260 1676785 "/>
<svg:path d="M1975260 1671785 L1974546 1672500 L1975260 1673214 L1975975 1672500 L1975260 1671785 L1975260 1673214 "/>
<svg:path d="M1987403 1678928 L1989546 1679642 L1990260 1680357 L1990975 1681785 L1990975 1683928 L1990260 1685357 L1989546 1686071 L1988117 1686785 L1982403 1686785 L1982403 1671785 L1987403 1671785 L1988832 1672500 L1989546 1673214 L1990260 1674642 L1990260 1676071 L1989546 1677500 L1988832 1678214 L1987403 1678928 L1982403 1678928 "/>
<svg:path d="M1999546 1686785 L1998117 1686071 L1997403 1685357 L1996689 1683928 L1996689 1679642 L1997403 1678214 L1998117 1677500 L1999546 1676785 L2001689 1676785 L2003117 1677500 L2003832 1678214 L2004546 1679642 L2004546 1683928 L2003832 1685357 L2003117 1686071 L2001689 1686785 L1999546 1686785 "/>
<svg:path d="M2008832 1676785 L2014546 1676785 "/>
<svg:path d="M2010975 1671785 L2010975 1684642 L2011689 1686071 L2013117 1686785 L2014546 1686785 "/>
<svg:path d="M2029546 1676785 L2033117 1686785 L2036689 1676785 "/>
<svg:path d="M2048832 1686785 L2048832 1678928 L2048117 1677500 L2046689 1676785 L2043832 1676785 L2042403 1677500 "/>
<svg:path d="M2048832 1686071 L2047403 1686785 L2043832 1686785 L2042403 1686071 L2041689 1684642 L2041689 1683214 L2042403 1681785 L2043832 1681071 L2047403 1681071 L2048832 1680357 "/>
<svg:path d="M2055975 1686785 L2055975 1676785 "/>
<svg:path d="M2055975 1679642 L2056689 1678214 L2057403 1677500 L2058832 1676785 L2060260 1676785 "/>
<svg:path d="M2065260 1686785 L2065260 1676785 "/>
<svg:path d="M2065260 1671785 L2064546 1672500 L2065260 1673214 L2065975 1672500 L2065260 1671785 L2065260 1673214 "/>
<svg:path d="M2078832 1686785 L2078832 1678928 L2078117 1677500 L2076689 1676785 L2073832 1676785 L2072403 1677500 "/>
<svg:path d="M2078832 1686071 L2077403 1686785 L2073832 1686785 L2072403 1686071 L2071689 1684642 L2071689 1683214 L2072403 1681785 L2073832 1681071 L2077403 1681071 L2078832 1680357 "/>
<svg:path d="M2085975 1676785 L2085975 1686785 "/>
<svg:path d="M2085975 1678214 L2086689 1677500 L2088117 1676785 L2090260 1676785 L2091689 1677500 L2092403 1678928 L2092403 1686785 "/>
<svg:path d="M2097403 1676785 L2103117 1676785 "/>
<svg:path d="M2099546 1671785 L2099546 1684642 L2100260 1686071 L2101689 1686785 L2103117 1686785 "/>
<svg:path d="M2107403 1686071 L2108832 1686785 L2111689 1686785 L2113117 1686071 L2113832 1684642 L2113832 1683928 L2113117 1682500 L2111689 1681785 L2109546 1681785 L2108117 1681071 L2107403 1679642 L2107403 1678928 L2108117 1677500 L2109546 1676785 L2111689 1676785 L2113117 1677500 "/>
</svg:g></svg:g>
<svg:g style="fill:#480000; fill-opacity:0.01;  stroke:#480000; stroke-width:3000.000000; stroke-opacity:1;  stroke-linecap:round; stroke-linejoin:round;">
<svg:text x="1780000.000000" y="1807500.000000" textLength="491235.710000" font-size="20000.000000" lengthAdjust="spacingAndGlyphs" text-anchor="start" opacity="0.01" style="font-family:monospace">Instituto Nacional de Tecnolog&#237;a Industrial</svg:text>
<svg:g class="stroked-text"><svg:desc>Instituto Nacional de Tecnolog&#237;a Industrial</svg:desc>
<svg:path d="M1785521 1806785 L1785521 1791785 "/>
<svg:path d="M1792664 1796785 L1792664 1806785 "/>
<svg:path d="M1792664 1798214 L1793378 1797500 L1794807 1796785 L1796950 1796785 L1798378 1797500 L1799092 1798928 L1799092 1806785 "/>
<svg:path d="M1805521 1806071 L1806950 1806785 L1809807 1806785 L1811235 1806071 L1811950 1804642 L1811950 1803928 L1811235 1802500 L1809807 1801785 L1807664 1801785 L1806235 1801071 L1805521 1799642 L1805521 1798928 L1806235 1797500 L1807664 1796785 L1809807 1796785 L1811235 1797500 "/>
<svg:path d="M1816235 1796785 L1821950 1796785 "/>
<svg:path d="M1818378 1791785 L1818378 1804642 L1819092 1806071 L1820521 1806785 L1821950 1806785 "/>
<svg:path d="M1826950 1806785 L1826950 1796785 "/>
<svg:path d="M1826950 1791785 L1826235 1792500 L1826950 1793214 L1827664 1792500 L1826950 1791785 L1826950 1793214 "/>
<svg:path d="M1831950 1796785 L1837664 1796785 "/>
<svg:path d="M1834092 1791785 L1834092 1804642 L1834807 1806071 L1836235 1806785 L1837664 1806785 "/>
<svg:path d="M1849092 1796785 L1849092 1806785 "/>
<svg:path d="M1842664 1796785 L1842664 1804642 L1843378 1806071 L1844807 1806785 L1846950 1806785 L1848378 1806071 L1849092 1805357 "/>
<svg:path d="M1854092 1796785 L1859807 1796785 "/>
<svg:path d="M1856235 1791785 L1856235 1804642 L1856950 1806071 L1858378 1806785 L1859807 1806785 "/>
<svg:path d="M1866950 1806785 L1865521 1806071 L1864807 1805357 L1864092 1803928 L1864092 1799642 L1864807 1798214 L1865521 1797500 L1866950 1796785 L1869092 1796785 L1870521 1797500 L1871235 1798214 L1871950 1799642 L1871950 1803928 L1871235 1805357 L1870521 1806071 L1869092 1806785 L1866950 1806785 "/>
<svg:path d="M1889807 1806785 L1889807 1791785 L1898378 1806785 L1898378 1791785 "/>
<svg:path d="M1911950 1806785 L1911950 1798928 L1911235 1797500 L1909807 1796785 L1906950 1796785 L1905521 1797500 "/>
<svg:path d="M1911950 1806071 L1910521 1806785 L1906950 1806785 L1905521 1806071 L1904807 1804642 L1904807 1803214 L1905521 1801785 L1906950 1801071 L1910521 1801071 L1911950 1800357 "/>
<svg:path d="M1925521 1806071 L1924092 1806785 L1921235 1806785 L1919807 1806071 L1919092 1805357 L1918378 1803928 L1918378 1799642 L1919092 1798214 L1919807 1797500 L1921235 1796785 L1924092 1796785 L1925521 1797500 "/>
<svg:path d="M1931950 1806785 L1931950 1796785 "/>
<svg:path d="M1931950 1791785 L1931235 1792500 L1931950 1793214 L1932664 1792500 L1931950 1791785 L1931950 1793214 "/>
<svg:path d="M1941235 1806785 L1939807 1806071 L1939092 1805357 L1938378 1803928 L1938378 1799642 L1939092 1798214 L1939807 1797500 L1941235 1796785 L1943378 1796785 L1944807 1797500 L1945521 1798214 L1946235 1799642 L1946235 1803928 L1945521 1805357 L1944807 1806071 L1943378 1806785 L1941235 1806785 "/>
<svg:path d="M1952664 1796785 L1952664 1806785 "/>
<svg:path d="M1952664 1798214 L1953378 1797500 L1954807 1796785 L1956950 1796785 L1958378 1797500 L1959092 1798928 L1959092 1806785 "/>
<svg:path d="M1972664 1806785 L1972664 1798928 L1971950 1797500 L1970521 1796785 L1967664 1796785 L1966235 1797500 "/>
<svg:path d="M1972664 1806071 L1971235 1806785 L1967664 1806785 L1966235 1806071 L1965521 1804642 L1965521 1803214 L1966235 1801785 L1967664 1801071 L1971235 1801071 L1972664 1800357 "/>
<svg:path d="M1981950 1806785 L1980521 1806071 L1979807 1804642 L1979807 1791785 "/>
<svg:path d="M2005521 1806785 L2005521 1791785 "/>
<svg:path d="M2005521 1806071 L2004092 1806785 L2001235 1806785 L1999807 1806071 L1999092 1805357 L1998378 1803928 L1998378 1799642 L1999092 1798214 L1999807 1797500 L2001235 1796785 L2004092 1796785 L2005521 1797500 "/>
<svg:path d="M2018378 1806071 L2016950 1806785 L2014092 1806785 L2012664 1806071 L2011950 1804642 L2011950 1798928 L2012664 1797500 L2014092 1796785 L2016950 1796785 L2018378 1797500 L2019092 1798928 L2019092 1800357 L2011950 1801785 "/>
<svg:path d="M2034807 1791785 L2043378 1791785 "/>
<svg:path d="M2039092 1806785 L2039092 1791785 "/>
<svg:path d="M2054092 1806071 L2052664 1806785 L2049807 1806785 L2048378 1806071 L2047664 1804642 L2047664 1798928 L2048378 1797500 L2049807 1796785 L2052664 1796785 L2054092 1797500 L2054807 1798928 L2054807 1800357 L2047664 1801785 "/>
<svg:path d="M2067664 1806071 L2066235 1806785 L2063378 1806785 L2061950 1806071 L2061235 1805357 L2060521 1803928 L2060521 1799642 L2061235 1798214 L2061950 1797500 L2063378 1796785 L2066235 1796785 L2067664 1797500 "/>
<svg:path d="M2074092 1796785 L2074092 1806785 "/>
<svg:path d="M2074092 1798214 L2074807 1797500 L2076235 1796785 L2078378 1796785 L2079807 1797500 L2080521 1798928 L2080521 1806785 "/>
<svg:path d="M2089807 1806785 L2088378 1806071 L2087664 1805357 L2086950 1803928 L2086950 1799642 L2087664 1798214 L2088378 1797500 L2089807 1796785 L2091950 1796785 L2093378 1797500 L2094092 1798214 L2094807 1799642 L2094807 1803928 L2094092 1805357 L2093378 1806071 L2091950 1806785 L2089807 1806785 "/>
<svg:path d="M2103378 1806785 L2101950 1806071 L2101235 1804642 L2101235 1791785 "/>
<svg:path d="M2111235 1806785 L2109807 1806071 L2109092 1805357 L2108378 1803928 L2108378 1799642 L2109092 1798214 L2109807 1797500 L2111235 1796785 L2113378 1796785 L2114807 1797500 L2115521 1798214 L2116235 1799642 L2116235 1803928 L2115521 1805357 L2114807 1806071 L2113378 1806785 L2111235 1806785 "/>
<svg:path d="M2129092 1796785 L2129092 1808928 L2128378 1810357 L2127664 1811071 L2126235 1811785 L2124092 1811785 L2122664 1811071 "/>
<svg:path d="M2129092 1806071 L2127664 1806785 L2124807 1806785 L2123378 1806071 L2122664 1805357 L2121950 1803928 L2121950 1799642 L2122664 1798214 L2123378 1797500 L2124807 1796785 L2127664 1796785 L2129092 1797500 "/>
<svg:path d="M2136235 1806785 L2136235 1796785 "/>
<svg:path d="M2137664 1791071 L2135521 1793214 "/>
<svg:path d="M2149807 1806785 L2149807 1798928 L2149092 1797500 L2147664 1796785 L2144807 1796785 L2143378 1797500 "/>
<svg:path d="M2149807 1806071 L2148378 1806785 L2144807 1806785 L2143378 1806071 L2142664 1804642 L2142664 1803214 L2143378 1801785 L2144807 1801071 L2148378 1801071 L2149807 1800357 "/>
<svg:path d="M2168378 1806785 L2168378 1791785 "/>
<svg:path d="M2175521 1796785 L2175521 1806785 "/>
<svg:path d="M2175521 1798214 L2176235 1797500 L2177664 1796785 L2179807 1796785 L2181235 1797500 L2181950 1798928 L2181950 1806785 "/>
<svg:path d="M2195521 1806785 L2195521 1791785 "/>
<svg:path d="M2195521 1806071 L2194092 1806785 L2191235 1806785 L2189807 1806071 L2189092 1805357 L2188378 1803928 L2188378 1799642 L2189092 1798214 L2189807 1797500 L2191235 1796785 L2194092 1796785 L2195521 1797500 "/>
<svg:path d="M2209092 1796785 L2209092 1806785 "/>
<svg:path d="M2202664 1796785 L2202664 1804642 L2203378 1806071 L2204807 1806785 L2206950 1806785 L2208378 1806071 L2209092 1805357 "/>
<svg:path d="M2215521 1806071 L2216950 1806785 L2219807 1806785 L2221235 1806071 L2221950 1804642 L2221950 1803928 L2221235 1802500 L2219807 1801785 L2217664 1801785 L2216235 1801071 L2215521 1799642 L2215521 1798928 L2216235 1797500 L2217664 1796785 L2219807 1796785 L2221235 1797500 "/>
<svg:path d="M2226235 1796785 L2231950 1796785 "/>
<svg:path d="M2228378 1791785 L2228378 1804642 L2229092 1806071 L2230521 1806785 L2231950 1806785 "/>
<svg:path d="M2236950 1806785 L2236950 1796785 "/>
<svg:path d="M2236950 1799642 L2237664 1798214 L2238378 1797500 L2239807 1796785 L2241235 1796785 "/>
<svg:path d="M2246235 1806785 L2246235 1796785 "/>
<svg:path d="M2246235 1791785 L2245521 1792500 L2246235 1793214 L2246950 1792500 L2246235 1791785 L2246235 1793214 "/>
<svg:path d="M2259807 1806785 L2259807 1798928 L2259092 1797500 L2257664 1796785 L2254807 1796785 L2253378 1797500 "/>
<svg:path d="M2259807 1806071 L2258378 1806785 L2254807 1806785 L2253378 1806071 L2252664 1804642 L2252664 1803214 L2253378 1801785 L2254807 1801071 L2258378 1801071 L2259807 1800357 "/>
<svg:path d="M2269092 1806785 L2267664 1806071 L2266950 1804642 L2266950 1791785 "/>
</svg:g></svg:g>
<svg:g style="fill:#480000; fill-opacity:0.01;  stroke:#480000; stroke-width:1500.000000; stroke-opacity:1;  stroke-linecap:round; stroke-linejoin:round;">
<svg:text x="1780000.000000" y="1837500.000000" textLength="320328.570000" font-size="20000.000000" lengthAdjust="spacingAndGlyphs" text-anchor="start" opacity="0.01" style="font-family:monospace">Sheet: Front courtyard area</svg:text>
<svg:g class="stroked-text"><svg:desc>Sheet: Front courtyard area</svg:desc>
<svg:path d="M1783832 1836071 L1785975 1836785 L1789546 1836785 L1790975 1836071 L1791689 1835357 L1792403 1833928 L1792403 1832500 L1791689 1831071 L1790975 1830357 L1789546 1829642 L1786689 1828928 L1785260 1828214 L1784546 1827500 L1783832 1826071 L1783832 1824642 L1784546 1823214 L1785260 1822500 L1786689 1821785 L1790260 1821785 L1792403 1822500 "/>
<svg:path d="M1798832 1836785 L1798832 1821785 "/>
<svg:path d="M1805260 1836785 L1805260 1828928 L1804546 1827500 L1803117 1826785 L1800975 1826785 L1799546 1827500 L1798832 1828214 "/>
<svg:path d="M1818117 1836071 L1816689 1836785 L1813832 1836785 L1812403 1836071 L1811689 1834642 L1811689 1828928 L1812403 1827500 L1813832 1826785 L1816689 1826785 L1818117 1827500 L1818832 1828928 L1818832 1830357 L1811689 1831785 "/>
<svg:path d="M1830975 1836071 L1829546 1836785 L1826689 1836785 L1825260 1836071 L1824546 1834642 L1824546 1828928 L1825260 1827500 L1826689 1826785 L1829546 1826785 L1830975 1827500 L1831689 1828928 L1831689 1830357 L1824546 1831785 "/>
<svg:path d="M1835975 1826785 L1841689 1826785 "/>
<svg:path d="M1838117 1821785 L1838117 1834642 L1838832 1836071 L1840260 1836785 L1841689 1836785 "/>
<svg:path d="M1846689 1835357 L1847403 1836071 L1846689 1836785 L1845975 1836071 L1846689 1835357 L1846689 1836785 "/>
<svg:path d="M1846689 1827500 L1847403 1828214 L1846689 1828928 L1845975 1828214 L1846689 1827500 L1846689 1828928 "/>
<svg:path d="M1870260 1828928 L1865260 1828928 "/>
<svg:path d="M1865260 1836785 L1865260 1821785 L1872403 1821785 "/>
<svg:path d="M1878117 1836785 L1878117 1826785 "/>
<svg:path d="M1878117 1829642 L1878832 1828214 L1879546 1827500 L1880975 1826785 L1882403 1826785 "/>
<svg:path d="M1889546 1836785 L1888117 1836071 L1887403 1835357 L1886689 1833928 L1886689 1829642 L1887403 1828214 L1888117 1827500 L1889546 1826785 L1891689 1826785 L1893117 1827500 L1893832 1828214 L1894546 1829642 L1894546 1833928 L1893832 1835357 L1893117 1836071 L1891689 1836785 L1889546 1836785 "/>
<svg:path d="M1900975 1826785 L1900975 1836785 "/>
<svg:path d="M1900975 1828214 L1901689 1827500 L1903117 1826785 L1905260 1826785 L1906689 1827500 L1907403 1828928 L1907403 1836785 "/>
<svg:path d="M1912403 1826785 L1918117 1826785 "/>
<svg:path d="M1914546 1821785 L1914546 1834642 L1915260 1836071 L1916689 1836785 L1918117 1836785 "/>
<svg:path d="M1940975 1836071 L1939546 1836785 L1936689 1836785 L1935260 1836071 L1934546 1835357 L1933832 1833928 L1933832 1829642 L1934546 1828214 L1935260 1827500 L1936689 1826785 L1939546 1826785 L1940975 1827500 "/>
<svg:path d="M1949546 1836785 L1948117 1836071 L1947403 1835357 L1946689 1833928 L1946689 1829642 L1947403 1828214 L1948117 1827500 L1949546 1826785 L1951689 1826785 L1953117 1827500 L1953832 1828214 L1954546 1829642 L1954546 1833928 L1953832 1835357 L1953117 1836071 L1951689 1836785 L1949546 1836785 "/>
<svg:path d="M1967403 1826785 L1967403 1836785 "/>
<svg:path d="M1960975 1826785 L1960975 1834642 L1961689 1836071 L1963117 1836785 L1965260 1836785 L1966689 1836071 L1967403 1835357 "/>
<svg:path d="M1974546 1836785 L1974546 1826785 "/>
<svg:path d="M1974546 1829642 L1975260 1828214 L1975975 1827500 L1977403 1826785 L1978832 1826785 "/>
<svg:path d="M1981689 1826785 L1987403 1826785 "/>
<svg:path d="M1983832 1821785 L1983832 1834642 L1984546 1836071 L1985975 1836785 L1987403 1836785 "/>
<svg:path d="M1990975 1826785 L1994546 1836785 "/>
<svg:path d="M1998117 1826785 L1994546 1836785 L1993117 1840357 L1992403 1841071 L1990975 1841785 "/>
<svg:path d="M2010260 1836785 L2010260 1828928 L2009546 1827500 L2008117 1826785 L2005260 1826785 L2003832 1827500 "/>
<svg:path d="M2010260 1836071 L2008832 1836785 L2005260 1836785 L2003832 1836071 L2003117 1834642 L2003117 1833214 L2003832 1831785 L2005260 1831071 L2008832 1831071 L2010260 1830357 "/>
<svg:path d="M2017403 1836785 L2017403 1826785 "/>
<svg:path d="M2017403 1829642 L2018117 1828214 L2018832 1827500 L2020260 1826785 L2021689 1826785 "/>
<svg:path d="M2033117 1836785 L2033117 1821785 "/>
<svg:path d="M2033117 1836071 L2031689 1836785 L2028832 1836785 L2027403 1836071 L2026689 1835357 L2025975 1833928 L2025975 1829642 L2026689 1828214 L2027403 1827500 L2028832 1826785 L2031689 1826785 L2033117 1827500 "/>
<svg:path d="M2058117 1836785 L2058117 1828928 L2057403 1827500 L2055975 1826785 L2053117 1826785 L2051689 1827500 "/>
<svg:path d="M2058117 1836071 L2056689 1836785 L2053117 1836785 L2051689 1836071 L2050975 1834642 L2050975 1833214 L2051689 1831785 L2053117 1831071 L2056689 1831071 L2058117 1830357 "/>
<svg:path d="M2065260 1836785 L2065260 1826785 "/>
<svg:path d="M2065260 1829642 L2065975 1828214 L2066689 1827500 L2068117 1826785 L2069546 1826785 "/>
<svg:path d="M2080260 1836071 L2078832 1836785 L2075975 1836785 L2074546 1836071 L2073832 1834642 L2073832 1828928 L2074546 1827500 L2075975 1826785 L2078832 1826785 L2080260 1827500 L2080975 1828928 L2080975 1830357 L2073832 1831785 "/>
<svg:path d="M2093832 1836785 L2093832 1828928 L2093117 1827500 L2091689 1826785 L2088832 1826785 L2087403 1827500 "/>
<svg:path d="M2093832 1836071 L2092403 1836785 L2088832 1836785 L2087403 1836071 L2086689 1834642 L2086689 1833214 L2087403 1831785 L2088832 1831071 L2092403 1831071 L2093832 1830357 "/>
</svg:g><svg:path d="M1770000 1815000 L2850000 1815000 "/>
<svg:text x="1780000.000000" y="1864500.000000" textLength="201950.000000" font-size="20000.000000" lengthAdjust="spacingAndGlyphs" text-anchor="start" opacity="0.01" style="font-family:monospace">File: t1.kicad_pcb</svg:text>
<svg:g class="stroked-text"><svg:desc>File: t1.kicad_pcb</svg:desc>
<svg:path d="M1789546 1855928 L1784546 1855928 "/>
<svg:path d="M1784546 1863785 L1784546 1848785 L1791689 1848785 "/>
<svg:path d="M1797403 1863785 L1797403 1853785 "/>
<svg:path d="M1797403 1848785 L1796689 1849500 L1797403 1850214 L1798117 1849500 L1797403 1848785 L1797403 1850214 "/>
<svg:path d="M1806689 1863785 L1805260 1863071 L1804546 1861642 L1804546 1848785 "/>
<svg:path d="M1818117 1863071 L1816689 1863785 L1813832 1863785 L1812403 1863071 L1811689 1861642 L1811689 1855928 L1812403 1854500 L1813832 1853785 L1816689 1853785 L1818117 1854500 L1818832 1855928 L1818832 1857357 L1811689 1858785 "/>
<svg:path d="M1825260 1862357 L1825975 1863071 L1825260 1863785 L1824546 1863071 L1825260 1862357 L1825260 1863785 "/>
<svg:path d="M1825260 1854500 L1825975 1855214 L1825260 1855928 L1824546 1855214 L1825260 1854500 L1825260 1855928 "/>
<svg:path d="M1841689 1853785 L1847403 1853785 "/>
<svg:path d="M1843832 1848785 L1843832 1861642 L1844546 1863071 L1845975 1863785 L1847403 1863785 "/>
<svg:path d="M1860260 1863785 L1851689 1863785 "/>
<svg:path d="M1855975 1863785 L1855975 1848785 L1854546 1850928 L1853117 1852357 L1851689 1853071 "/>
<svg:path d="M1866689 1862357 L1867403 1863071 L1866689 1863785 L1865975 1863071 L1866689 1862357 L1866689 1863785 "/>
<svg:path d="M1873832 1863785 L1873832 1848785 "/>
<svg:path d="M1875260 1858071 L1879546 1863785 "/>
<svg:path d="M1879546 1853785 L1873832 1859500 "/>
<svg:path d="M1885975 1863785 L1885975 1853785 "/>
<svg:path d="M1885975 1848785 L1885260 1849500 L1885975 1850214 L1886689 1849500 L1885975 1848785 L1885975 1850214 "/>
<svg:path d="M1899546 1863071 L1898117 1863785 L1895260 1863785 L1893832 1863071 L1893117 1862357 L1892403 1860928 L1892403 1856642 L1893117 1855214 L1893832 1854500 L1895260 1853785 L1898117 1853785 L1899546 1854500 "/>
<svg:path d="M1912403 1863785 L1912403 1855928 L1911689 1854500 L1910260 1853785 L1907403 1853785 L1905975 1854500 "/>
<svg:path d="M1912403 1863071 L1910975 1863785 L1907403 1863785 L1905975 1863071 L1905260 1861642 L1905260 1860214 L1905975 1858785 L1907403 1858071 L1910975 1858071 L1912403 1857357 "/>
<svg:path d="M1925975 1863785 L1925975 1848785 "/>
<svg:path d="M1925975 1863071 L1924546 1863785 L1921689 1863785 L1920260 1863071 L1919546 1862357 L1918832 1860928 L1918832 1856642 L1919546 1855214 L1920260 1854500 L1921689 1853785 L1924546 1853785 L1925975 1854500 "/>
<svg:path d="M1929546 1865214 L1940975 1865214 "/>
<svg:path d="M1944546 1853785 L1944546 1868785 "/>
<svg:path d="M1944546 1854500 L1945975 1853785 L1948832 1853785 L1950260 1854500 L1950975 1855214 L1951689 1856642 L1951689 1860928 L1950975 1862357 L1950260 1863071 L1948832 1863785 L1945975 1863785 L1944546 1863071 "/>
<svg:path d="M1964546 1863071 L1963117 1863785 L1960260 1863785 L1958832 1863071 L1958117 1862357 L1957403 1860928 L1957403 1856642 L1958117 1855214 L1958832 1854500 L1960260 1853785 L1963117 1853785 L1964546 1854500 "/>
<svg:path d="M1970975 1863785 L1970975 1848785 "/>
<svg:path d="M1970975 1854500 L1972403 1853785 L1975260 1853785 L1976689 1854500 L1977403 1855214 L1978117 1856642 L1978117 1860928 L1977403 1862357 L1976689 1863071 L1975260 1863785 L1972403 1863785 L1970975 1863071 "/>
</svg:g></svg:g>
<svg:g style="fill:#480000; fill-opacity:0.01;  stroke:#480000; stroke-width:3000.000000; stroke-opacity:1;  stroke-linecap:round; stroke-linejoin:round;">
<svg:text x="1780000.000000" y="1903000.000000" textLength="94546.430000" font-size="26666.660000" lengthAdjust="spacingAndGlyphs" text-anchor="start" opacity="0.01" style="font-family:monospace">Title: </svg:text>
<svg:g class="stroked-text"><svg:desc>Title: </svg:desc>
<svg:path d="M1786473 1882047 L1797902 1882047 "/>
<svg:path d="M1789688 1902047 L1792188 1882047 "/>
<svg:path d="M1802069 1902047 L1803735 1888714 "/>
<svg:path d="M1804569 1882047 L1803497 1883000 L1804330 1883952 L1805402 1883000 L1804569 1882047 L1804330 1883952 "/>
<svg:path d="M1810402 1888714 L1818021 1888714 "/>
<svg:path d="M1814092 1882047 L1811950 1899190 L1812664 1901095 L1814450 1902047 L1816354 1902047 "/>
<svg:path d="M1825878 1902047 L1824092 1901095 L1823378 1899190 L1825521 1882047 "/>
<svg:path d="M1841235 1901095 L1839211 1902047 L1835402 1902047 L1833616 1901095 L1832902 1899190 L1833854 1891571 L1835045 1889666 L1837069 1888714 L1840878 1888714 L1842664 1889666 L1843378 1891571 L1843140 1893476 L1833378 1895380 "/>
<svg:path d="M1850878 1900142 L1851711 1901095 L1850640 1902047 L1849807 1901095 L1850878 1900142 L1850640 1902047 "/>
<svg:path d="M1852188 1889666 L1853021 1890619 L1851950 1891571 L1851116 1890619 L1852188 1889666 L1851950 1891571 "/>
</svg:g></svg:g>
<svg:g style="fill:#480000; fill-opacity:0.01;  stroke:#480000; stroke-width:1500.000000; stroke-opacity:1;  stroke-linecap:round; stroke-linejoin:round;">
<svg:path d="M1770000 1875000 L2850000 1875000 "/>
<svg:text x="2630000.000000" y="1966500.010000" textLength="87471.430000" font-size="20000.000000" lengthAdjust="spacingAndGlyphs" text-anchor="start" opacity="0.01" style="font-family:monospace">Id: 6/8</svg:text>
<svg:g class="stroked-text"><svg:desc>Id: 6/8</svg:desc>
<svg:path d="M2634546 1965785 L2634546 1950785 "/>
<svg:path d="M2648117 1965785 L2648117 1950785 "/>
<svg:path d="M2648117 1965071 L2646689 1965785 L2643832 1965785 L2642403 1965071 L2641689 1964357 L2640975 1962928 L2640975 1958642 L2641689 1957214 L2642403 1956500 L2643832 1955785 L2646689 1955785 L2648117 1956500 "/>
<svg:path d="M2655260 1964357 L2655975 1965071 L2655260 1965785 L2654546 1965071 L2655260 1964357 L2655260 1965785 "/>
<svg:path d="M2655260 1956500 L2655975 1957214 L2655260 1957928 L2654546 1957214 L2655260 1956500 L2655260 1957928 "/>
<svg:path d="M2680260 1950785 L2677403 1950785 L2675975 1951500 L2675260 1952214 L2673832 1954357 L2673117 1957214 L2673117 1962928 L2673832 1964357 L2674546 1965071 L2675975 1965785 L2678832 1965785 L2680260 1965071 L2680975 1964357 L2681689 1962928 L2681689 1959357 L2680975 1957928 L2680260 1957214 L2678832 1956500 L2675975 1956500 L2674546 1957214 L2673832 1957928 L2673117 1959357 "/>
<svg:path d="M2698832 1950071 L2685975 1969357 "/>
<svg:path d="M2705975 1957214 L2704546 1956500 L2703832 1955785 L2703117 1954357 L2703117 1953642 L2703832 1952214 L2704546 1951500 L2705975 1950785 L2708832 1950785 L2710260 1951500 L2710975 1952214 L2711689 1953642 L2711689 1954357 L2710975 1955785 L2710260 1956500 L2708832 1957214 L2705975 1957214 L2704546 1957928 L2703832 1958642 L2703117 1960071 L2703117 1962928 L2703832 1964357 L2704546 1965071 L2705975 1965785 L2708832 1965785 L2710260 1965071 L2710975 1964357 L2711689 1962928 L2711689 1960071 L2710975 1958642 L2710260 1957928 L2708832 1957214 "/>
</svg:g><svg:text x="1780000.000000" y="1938500.000000" textLength="94092.860000" font-size="20000.000000" lengthAdjust="spacingAndGlyphs" text-anchor="start" opacity="0.01" style="font-family:monospace">Size: A4</svg:text>
<svg:g class="stroked-text"><svg:desc>Size: A4</svg:desc>
<svg:path d="M1783832 1937071 L1785975 1937785 L1789546 1937785 L1790975 1937071 L1791689 1936357 L1792403 1934928 L1792403 1933500 L1791689 1932071 L1790975 1931357 L1789546 1930642 L1786689 1929928 L1785260 1929214 L1784546 1928500 L1783832 1927071 L1783832 1925642 L1784546 1924214 L1785260 1923500 L1786689 1922785 L1790260 1922785 L1792403 1923500 "/>
<svg:path d="M1798832 1937785 L1798832 1927785 "/>
<svg:path d="M1798832 1922785 L1798117 1923500 L1798832 1924214 L1799546 1923500 L1798832 1922785 L1798832 1924214 "/>
<svg:path d="M1804546 1927785 L1812403 1927785 L1804546 1937785 L1812403 1937785 "/>
<svg:path d="M1823832 1937071 L1822403 1937785 L1819546 1937785 L1818117 1937071 L1817403 1935642 L1817403 1929928 L1818117 1928500 L1819546 1927785 L1822403 1927785 L1823832 1928500 L1824546 1929928 L1824546 1931357 L1817403 1932785 "/>
<svg:path d="M1830975 1936357 L1831689 1937071 L1830975 1937785 L1830260 1937071 L1830975 1936357 L1830975 1937785 "/>
<svg:path d="M1830975 1928500 L1831689 1929214 L1830975 1929928 L1830260 1929214 L1830975 1928500 L1830975 1929928 "/>
<svg:path d="M1848832 1933500 L1855975 1933500 "/>
<svg:path d="M1847403 1937785 L1852403 1922785 L1857403 1937785 "/>
<svg:path d="M1868832 1927785 L1868832 1937785 "/>
<svg:path d="M1865260 1922071 L1861689 1932785 L1870975 1932785 "/>
</svg:g></svg:g>
<svg:g style="fill:#480000; fill-opacity:0.01;  stroke:#480000; stroke-width:3000.000000; stroke-opacity:1;  stroke-linecap:round; stroke-linejoin:round;">
<svg:text x="2630000.000000" y="1938500.000000" textLength="187664.290000" font-size="20000.000000" lengthAdjust="spacingAndGlyphs" text-anchor="start" opacity="0.01" style="font-family:monospace">Rev: ${git_hash}</svg:text>
<svg:g class="stroked-text"><svg:desc>Rev: ${git_hash}</svg:desc>
<svg:path d="M2644092 1937785 L2639092 1930642 "/>
<svg:path d="M2635521 1937785 L2635521 1922785 L2641235 1922785 L2642664 1923500 L2643378 1924214 L2644092 1925642 L2644092 1927785 L2643378 1929214 L2642664 1929928 L2641235 1930642 L2635521 1930642 "/>
<svg:path d="M2656235 1937071 L2654807 1937785 L2651950 1937785 L2650521 1937071 L2649807 1935642 L2649807 1929928 L2650521 1928500 L2651950 1927785 L2654807 1927785 L2656235 1928500 L2656950 1929928 L2656950 1931357 L2649807 1932785 "/>
<svg:path d="M2661950 1927785 L2665521 1937785 L2669092 1927785 "/>
<svg:path d="M2674807 1936357 L2675521 1937071 L2674807 1937785 L2674092 1937071 L2674807 1936357 L2674807 1937785 "/>
<svg:path d="M2674807 1928500 L2675521 1929214 L2674807 1929928 L2674092 1929214 L2674807 1928500 L2674807 1929928 "/>
<svg:path d="M2692664 1937071 L2694807 1937785 L2698378 1937785 L2699807 1937071 L2700521 1936357 L2701235 1934928 L2701235 1933500 L2700521 1932071 L2699807 1931357 L2698378 1930642 L2695521 1929928 L2694092 1929214 L2693378 1928500 L2692664 1927071 L2692664 1925642 L2693378 1924214 L2694092 1923500 L2695521 1922785 L2699092 1922785 L2701235 1923500 "/>
<svg:path d="M2696950 1920642 L2696950 1939928 "/>
<svg:path d="M2711950 1943500 L2711235 1943500 L2709807 1942785 L2709092 1941357 L2709092 1934214 L2708378 1932785 L2706950 1932071 L2708378 1931357 L2709092 1929928 L2709092 1922785 L2709807 1921357 L2711235 1920642 L2711950 1920642 "/>
<svg:path d="M2724092 1927785 L2724092 1939928 L2723378 1941357 L2722664 1942071 L2721235 1942785 L2719092 1942785 L2717664 1942071 "/>
<svg:path d="M2724092 1937071 L2722664 1937785 L2719807 1937785 L2718378 1937071 L2717664 1936357 L2716950 1934928 L2716950 1930642 L2717664 1929214 L2718378 1928500 L2719807 1927785 L2722664 1927785 L2724092 1928500 "/>
<svg:path d="M2731235 1937785 L2731235 1927785 "/>
<svg:path d="M2731235 1922785 L2730521 1923500 L2731235 1924214 L2731950 1923500 L2731235 1922785 L2731235 1924214 "/>
<svg:path d="M2736235 1927785 L2741950 1927785 "/>
<svg:path d="M2738378 1922785 L2738378 1935642 L2739092 1937071 L2740521 1937785 L2741950 1937785 "/>
<svg:path d="M2743378 1939214 L2754807 1939214 "/>
<svg:path d="M2758378 1937785 L2758378 1922785 "/>
<svg:path d="M2764807 1937785 L2764807 1929928 L2764092 1928500 L2762664 1927785 L2760521 1927785 L2759092 1928500 L2758378 1929214 "/>
<svg:path d="M2778378 1937785 L2778378 1929928 L2777664 1928500 L2776235 1927785 L2773378 1927785 L2771950 1928500 "/>
<svg:path d="M2778378 1937071 L2776950 1937785 L2773378 1937785 L2771950 1937071 L2771235 1935642 L2771235 1934214 L2771950 1932785 L2773378 1932071 L2776950 1932071 L2778378 1931357 "/>
<svg:path d="M2784807 1937071 L2786235 1937785 L2789092 1937785 L2790521 1937071 L2791235 1935642 L2791235 1934928 L2790521 1933500 L2789092 1932785 L2786950 1932785 L2785521 1932071 L2784807 1930642 L2784807 1929928 L2785521 1928500 L2786950 1927785 L2789092 1927785 L2790521 1928500 "/>
<svg:path d="M2797664 1937785 L2797664 1922785 "/>
<svg:path d="M2804092 1937785 L2804092 1929928 L2803378 1928500 L2801950 1927785 L2799807 1927785 L2798378 1928500 L2797664 1929214 "/>
<svg:path d="M2809807 1943500 L2810521 1943500 L2811950 1942785 L2812664 1941357 L2812664 1934214 L2813378 1932785 L2814807 1932071 L2813378 1931357 L2812664 1929928 L2812664 1922785 L2811950 1921357 L2810521 1920642 L2809807 1920642 "/>
</svg:g></svg:g>
<svg:g style="fill:#480000; fill-opacity:0.01;  stroke:#480000; stroke-width:1500.000000; stroke-opacity:1;  stroke-linecap:round; stroke-linejoin:round;">
<svg:path d="M1770000 1915000 L2850000 1915000 "/>
<svg:text x="1780000.000000" y="1966500.010000" textLength="505328.570000" font-size="20000.000000" lengthAdjust="spacingAndGlyphs" text-anchor="start" opacity="0.01" style="font-family:monospace">KiCad E.D.A. 6.0.11+dfsg-1 + KiBot v1.6.4</svg:text>
<svg:g class="stroked-text"><svg:desc>KiCad E.D.A. 6.0.11+dfsg-1 + KiBot v1.6.4</svg:desc>
<svg:path d="M1784546 1965785 L1784546 1950785 "/>
<svg:path d="M1793117 1965785 L1786689 1957214 "/>
<svg:path d="M1793117 1950785 L1784546 1959357 "/>
<svg:path d="M1799546 1965785 L1799546 1955785 "/>
<svg:path d="M1799546 1950785 L1798832 1951500 L1799546 1952214 L1800260 1951500 L1799546 1950785 L1799546 1952214 "/>
<svg:path d="M1815260 1964357 L1814546 1965071 L1812403 1965785 L1810975 1965785 L1808832 1965071 L1807403 1963642 L1806689 1962214 L1805975 1959357 L1805975 1957214 L1806689 1954357 L1807403 1952928 L1808832 1951500 L1810975 1950785 L1812403 1950785 L1814546 1951500 L1815260 1952214 "/>
<svg:path d="M1828117 1965785 L1828117 1957928 L1827403 1956500 L1825975 1955785 L1823117 1955785 L1821689 1956500 "/>
<svg:path d="M1828117 1965071 L1826689 1965785 L1823117 1965785 L1821689 1965071 L1820975 1963642 L1820975 1962214 L1821689 1960785 L1823117 1960071 L1826689 1960071 L1828117 1959357 "/>
<svg:path d="M1841689 1965785 L1841689 1950785 "/>
<svg:path d="M1841689 1965071 L1840260 1965785 L1837403 1965785 L1835975 1965071 L1835260 1964357 L1834546 1962928 L1834546 1958642 L1835260 1957214 L1835975 1956500 L1837403 1955785 L1840260 1955785 L1841689 1956500 "/>
<svg:path d="M1860260 1957928 L1865260 1957928 "/>
<svg:path d="M1867403 1965785 L1860260 1965785 L1860260 1950785 L1867403 1950785 "/>
<svg:path d="M1873832 1964357 L1874546 1965071 L1873832 1965785 L1873117 1965071 L1873832 1964357 L1873832 1965785 "/>
<svg:path d="M1880975 1965785 L1880975 1950785 L1884546 1950785 L1886689 1951500 L1888117 1952928 L1888832 1954357 L1889546 1957214 L1889546 1959357 L1888832 1962214 L1888117 1963642 L1886689 1965071 L1884546 1965785 L1880975 1965785 "/>
<svg:path d="M1895975 1964357 L1896689 1965071 L1895975 1965785 L1895260 1965071 L1895975 1964357 L1895975 1965785 "/>
<svg:path d="M1902403 1961500 L1909546 1961500 "/>
<svg:path d="M1900975 1965785 L1905975 1950785 L1910975 1965785 "/>
<svg:path d="M1915975 1964357 L1916689 1965071 L1915975 1965785 L1915260 1965071 L1915975 1964357 L1915975 1965785 "/>
<svg:path d="M1940975 1950785 L1938117 1950785 L1936689 1951500 L1935975 1952214 L1934546 1954357 L1933832 1957214 L1933832 1962928 L1934546 1964357 L1935260 1965071 L1936689 1965785 L1939546 1965785 L1940975 1965071 L1941689 1964357 L1942403 1962928 L1942403 1959357 L1941689 1957928 L1940975 1957214 L1939546 1956500 L1936689 1956500 L1935260 1957214 L1934546 1957928 L1933832 1959357 "/>
<svg:path d="M1948832 1964357 L1949546 1965071 L1948832 1965785 L1948117 1965071 L1948832 1964357 L1948832 1965785 "/>
<svg:path d="M1958832 1950785 L1960260 1950785 L1961689 1951500 L1962403 1952214 L1963117 1953642 L1963832 1956500 L1963832 1960071 L1963117 1962928 L1962403 1964357 L1961689 1965071 L1960260 1965785 L1958832 1965785 L1957403 1965071 L1956689 1964357 L1955975 1962928 L1955260 1960071 L1955260 1956500 L1955975 1953642 L1956689 1952214 L1957403 1951500 L1958832 1950785 "/>
<svg:path d="M1970260 1964357 L1970975 1965071 L1970260 1965785 L1969546 1965071 L1970260 1964357 L1970260 1965785 "/>
<svg:path d="M1985260 1965785 L1976689 1965785 "/>
<svg:path d="M1980975 1965785 L1980975 1950785 L1979546 1952928 L1978117 1954357 L1976689 1955071 "/>
<svg:path d="M1999546 1965785 L1990975 1965785 "/>
<svg:path d="M1995260 1965785 L1995260 1950785 L1993832 1952928 L1992403 1954357 L1990975 1955071 "/>
<svg:path d="M2005975 1960071 L2017403 1960071 "/>
<svg:path d="M2011689 1965785 L2011689 1954357 "/>
<svg:path d="M2030975 1965785 L2030975 1950785 "/>
<svg:path d="M2030975 1965071 L2029546 1965785 L2026689 1965785 L2025260 1965071 L2024546 1964357 L2023832 1962928 L2023832 1958642 L2024546 1957214 L2025260 1956500 L2026689 1955785 L2029546 1955785 L2030975 1956500 "/>
<svg:path d="M2035975 1955785 L2041689 1955785 "/>
<svg:path d="M2038117 1965785 L2038117 1952928 L2038832 1951500 L2040260 1950785 L2041689 1950785 "/>
<svg:path d="M2045975 1965071 L2047403 1965785 L2050260 1965785 L2051689 1965071 L2052403 1963642 L2052403 1962928 L2051689 1961500 L2050260 1960785 L2048117 1960785 L2046689 1960071 L2045975 1958642 L2045975 1957928 L2046689 1956500 L2048117 1955785 L2050260 1955785 L2051689 1956500 "/>
<svg:path d="M2065260 1955785 L2065260 1967928 L2064546 1969357 L2063832 1970071 L2062403 1970785 L2060260 1970785 L2058832 1970071 "/>
<svg:path d="M2065260 1965071 L2063832 1965785 L2060975 1965785 L2059546 1965071 L2058832 1964357 L2058117 1962928 L2058117 1958642 L2058832 1957214 L2059546 1956500 L2060975 1955785 L2063832 1955785 L2065260 1956500 "/>
<svg:path d="M2072403 1960071 L2083832 1960071 "/>
<svg:path d="M2098832 1965785 L2090260 1965785 "/>
<svg:path d="M2094546 1965785 L2094546 1950785 L2093117 1952928 L2091689 1954357 L2090260 1955071 "/>
<svg:path d="M2116689 1960071 L2128117 1960071 "/>
<svg:path d="M2122403 1965785 L2122403 1954357 "/>
<svg:path d="M2146689 1965785 L2146689 1950785 "/>
<svg:path d="M2155260 1965785 L2148832 1957214 "/>
<svg:path d="M2155260 1950785 L2146689 1959357 "/>
<svg:path d="M2161689 1965785 L2161689 1955785 "/>
<svg:path d="M2161689 1950785 L2160975 1951500 L2161689 1952214 L2162403 1951500 L2161689 1950785 L2161689 1952214 "/>
<svg:path d="M2173832 1957928 L2175975 1958642 L2176689 1959357 L2177403 1960785 L2177403 1962928 L2176689 1964357 L2175975 1965071 L2174546 1965785 L2168832 1965785 L2168832 1950785 L2173832 1950785 L2175260 1951500 L2175975 1952214 L2176689 1953642 L2176689 1955071 L2175975 1956500 L2175260 1957214 L2173832 1957928 L2168832 1957928 "/>
<svg:path d="M2185975 1965785 L2184546 1965071 L2183832 1964357 L2183117 1962928 L2183117 1958642 L2183832 1957214 L2184546 1956500 L2185975 1955785 L2188117 1955785 L2189546 1956500 L2190260 1957214 L2190975 1958642 L2190975 1962928 L2190260 1964357 L2189546 1965071 L2188117 1965785 L2185975 1965785 "/>
<svg:path d="M2195260 1955785 L2200975 1955785 "/>
<svg:path d="M2197403 1950785 L2197403 1963642 L2198117 1965071 L2199546 1965785 L2200975 1965785 "/>
<svg:path d="M2215975 1955785 L2219546 1965785 L2223117 1955785 "/>
<svg:path d="M2236689 1965785 L2228117 1965785 "/>
<svg:path d="M2232403 1965785 L2232403 1950785 L2230975 1952928 L2229546 1954357 L2228117 1955071 "/>
<svg:path d="M2243117 1964357 L2243832 1965071 L2243117 1965785 L2242403 1965071 L2243117 1964357 L2243117 1965785 "/>
<svg:path d="M2256689 1950785 L2253832 1950785 L2252403 1951500 L2251689 1952214 L2250260 1954357 L2249546 1957214 L2249546 1962928 L2250260 1964357 L2250975 1965071 L2252403 1965785 L2255260 1965785 L2256689 1965071 L2257403 1964357 L2258117 1962928 L2258117 1959357 L2257403 1957928 L2256689 1957214 L2255260 1956500 L2252403 1956500 L2250975 1957214 L2250260 1957928 L2249546 1959357 "/>
<svg:path d="M2264546 1964357 L2265260 1965071 L2264546 1965785 L2263832 1965071 L2264546 1964357 L2264546 1965785 "/>
<svg:path d="M2278117 1955785 L2278117 1965785 "/>
<svg:path d="M2274546 1950071 L2270975 1960785 L2280260 1960785 "/>
</svg:g><svg:path d="M1770000 1945000 L2850000 1945000 "/>
<svg:text x="2000000.000000" y="1938500.000000" textLength="356235.710000" font-size="20000.000000" lengthAdjust="spacingAndGlyphs" text-anchor="start" opacity="0.01" style="font-family:monospace">Date: 2023-08-17_11-33-19</svg:text>
<svg:g class="stroked-text"><svg:desc>Date: 2023-08-17_11-33-19</svg:desc>
<svg:path d="M2004546 1937785 L2004546 1922785 L2008117 1922785 L2010260 1923500 L2011689 1924928 L2012403 1926357 L2013117 1929214 L2013117 1931357 L2012403 1934214 L2011689 1935642 L2010260 1937071 L2008117 1937785 L2004546 1937785 "/>
<svg:path d="M2025975 1937785 L2025975 1929928 L2025260 1928500 L2023832 1927785 L2020975 1927785 L2019546 1928500 "/>
<svg:path d="M2025975 1937071 L2024546 1937785 L2020975 1937785 L2019546 1937071 L2018832 1935642 L2018832 1934214 L2019546 1932785 L2020975 1932071 L2024546 1932071 L2025975 1931357 "/>
<svg:path d="M2030975 1927785 L2036689 1927785 "/>
<svg:path d="M2033117 1922785 L2033117 1935642 L2033832 1937071 L2035260 1937785 L2036689 1937785 "/>
<svg:path d="M2047403 1937071 L2045975 1937785 L2043117 1937785 L2041689 1937071 L2040975 1935642 L2040975 1929928 L2041689 1928500 L2043117 1927785 L2045975 1927785 L2047403 1928500 L2048117 1929928 L2048117 1931357 L2040975 1932785 "/>
<svg:path d="M2054546 1936357 L2055260 1937071 L2054546 1937785 L2053832 1937071 L2054546 1936357 L2054546 1937785 "/>
<svg:path d="M2054546 1928500 L2055260 1929214 L2054546 1929928 L2053832 1929214 L2054546 1928500 L2054546 1929928 "/>
<svg:path d="M2072403 1924214 L2073117 1923500 L2074546 1922785 L2078117 1922785 L2079546 1923500 L2080260 1924214 L2080975 1925642 L2080975 1927071 L2080260 1929214 L2071689 1937785 L2080975 1937785 "/>
<svg:path d="M2090260 1922785 L2091689 1922785 L2093117 1923500 L2093832 1924214 L2094546 1925642 L2095260 1928500 L2095260 1932071 L2094546 1934928 L2093832 1936357 L2093117 1937071 L2091689 1937785 L2090260 1937785 L2088832 1937071 L2088117 1936357 L2087403 1934928 L2086689 1932071 L2086689 1928500 L2087403 1925642 L2088117 1924214 L2088832 1923500 L2090260 1922785 "/>
<svg:path d="M2100975 1924214 L2101689 1923500 L2103117 1922785 L2106689 1922785 L2108117 1923500 L2108832 1924214 L2109546 1925642 L2109546 1927071 L2108832 1929214 L2100260 1937785 L2109546 1937785 "/>
<svg:path d="M2114546 1922785 L2123832 1922785 L2118832 1928500 L2120975 1928500 L2122403 1929214 L2123117 1929928 L2123832 1931357 L2123832 1934928 L2123117 1936357 L2122403 1937071 L2120975 1937785 L2116689 1937785 L2115260 1937071 L2114546 1936357 "/>
<svg:path d="M2130260 1932071 L2141689 1932071 "/>
<svg:path d="M2151689 1922785 L2153117 1922785 L2154546 1923500 L2155260 1924214 L2155975 1925642 L2156689 1928500 L2156689 1932071 L2155975 1934928 L2155260 1936357 L2154546 1937071 L2153117 1937785 L2151689 1937785 L2150260 1937071 L2149546 1936357 L2148832 1934928 L2148117 1932071 L2148117 1928500 L2148832 1925642 L2149546 1924214 L2150260 1923500 L2151689 1922785 "/>
<svg:path d="M2165260 1929214 L2163832 1928500 L2163117 1927785 L2162403 1926357 L2162403 1925642 L2163117 1924214 L2163832 1923500 L2165260 1922785 L2168117 1922785 L2169546 1923500 L2170260 1924214 L2170975 1925642 L2170975 1926357 L2170260 1927785 L2169546 1928500 L2168117 1929214 L2165260 1929214 L2163832 1929928 L2163117 1930642 L2162403 1932071 L2162403 1934928 L2163117 1936357 L2163832 1937071 L2165260 1937785 L2168117 1937785 L2169546 1937071 L2170260 1936357 L2170975 1934928 L2170975 1932071 L2170260 1930642 L2169546 1929928 L2168117 1929214 "/>
<svg:path d="M2177403 1932071 L2188832 1932071 "/>
<svg:path d="M2203832 1937785 L2195260 1937785 "/>
<svg:path d="M2199546 1937785 L2199546 1922785 L2198117 1924928 L2196689 1926357 L2195260 1927071 "/>
<svg:path d="M2208832 1922785 L2218832 1922785 L2212403 1937785 "/>
<svg:path d="M2220975 1939214 L2232403 1939214 "/>
<svg:path d="M2243832 1937785 L2235260 1937785 "/>
<svg:path d="M2239546 1937785 L2239546 1922785 L2238117 1924928 L2236689 1926357 L2235260 1927071 "/>
<svg:path d="M2258117 1937785 L2249546 1937785 "/>
<svg:path d="M2253832 1937785 L2253832 1922785 L2252403 1924928 L2250975 1926357 L2249546 1927071 "/>
<svg:path d="M2264546 1932071 L2275975 1932071 "/>
<svg:path d="M2281689 1922785 L2290975 1922785 L2285975 1928500 L2288117 1928500 L2289546 1929214 L2290260 1929928 L2290975 1931357 L2290975 1934928 L2290260 1936357 L2289546 1937071 L2288117 1937785 L2283832 1937785 L2282403 1937071 L2281689 1936357 "/>
<svg:path d="M2295975 1922785 L2305260 1922785 L2300260 1928500 L2302403 1928500 L2303832 1929214 L2304546 1929928 L2305260 1931357 L2305260 1934928 L2304546 1936357 L2303832 1937071 L2302403 1937785 L2298117 1937785 L2296689 1937071 L2295975 1936357 "/>
<svg:path d="M2311689 1932071 L2323117 1932071 "/>
<svg:path d="M2338117 1937785 L2329546 1937785 "/>
<svg:path d="M2333832 1937785 L2333832 1922785 L2332403 1924928 L2330975 1926357 L2329546 1927071 "/>
<svg:path d="M2345260 1937785 L2348117 1937785 L2349546 1937071 L2350260 1936357 L2351689 1934214 L2352403 1931357 L2352403 1925642 L2351689 1924214 L2350975 1923500 L2349546 1922785 L2346689 1922785 L2345260 1923500 L2344546 1924214 L2343832 1925642 L2343832 1929214 L2344546 1930642 L2345260 1931357 L2346689 1932071 L2349546 1932071 L2350975 1931357 L2351689 1930642 L2352403 1929214 "/>
</svg:g><svg:text x="2860000.000000" y="1856500.000000" textLength="14950.000000" font-size="17333.330000" lengthAdjust="spacingAndGlyphs" text-anchor="middle" opacity="0.01" style="font-family:monospace">D</svg:text>
<svg:g class="stroked-text"><svg:desc>D</svg:desc>
<svg:path d="M2856595 1855880 L2856595 1842880 L2859690 1842880 L2861547 1843500 L2862785 1844738 L2863404 1845976 L2864023 1848452 L2864023 1850309 L2863404 1852785 L2862785 1854023 L2861547 1855261 L2859690 1855880 L2856595 1855880 "/>
</svg:g><svg:text x="2860000.000000" y="1356500.000000" textLength="14950.000000" font-size="17333.330000" lengthAdjust="spacingAndGlyphs" text-anchor="middle" opacity="0.01" style="font-family:monospace">C</svg:text>
<svg:g class="stroked-text"><svg:desc>C</svg:desc>
<svg:path d="M2864023 1354642 L2863404 1355261 L2861547 1355880 L2860309 1355880 L2858452 1355261 L2857214 1354023 L2856595 1352785 L2855976 1350309 L2855976 1348452 L2856595 1345976 L2857214 1344738 L2858452 1343500 L2860309 1342880 L2861547 1342880 L2863404 1343500 L2864023 1344119 "/>
</svg:g><svg:text x="2860000.000000" y="856500.000000" textLength="14950.000000" font-size="17333.330000" lengthAdjust="spacingAndGlyphs" text-anchor="middle" opacity="0.01" style="font-family:monospace">B</svg:text>
<svg:g class="stroked-text"><svg:desc>B</svg:desc>
<svg:path d="M2860928 849071 L2862785 849690 L2863404 850309 L2864023 851547 L2864023 853404 L2863404 854642 L2862785 855261 L2861547 855880 L2856595 855880 L2856595 842880 L2860928 842880 L2862166 843500 L2862785 844119 L2863404 845357 L2863404 846595 L2862785 847833 L2862166 848452 L2860928 849071 L2856595 849071 "/>
</svg:g><svg:text x="2860000.000000" y="356500.000000" textLength="13092.860000" font-size="17333.330000" lengthAdjust="spacingAndGlyphs" text-anchor="middle" opacity="0.01" style="font-family:monospace">A</svg:text>
<svg:g class="stroked-text"><svg:desc>A</svg:desc>
<svg:path d="M2856904 352166 L2863095 352166 "/>
<svg:path d="M2855666 355880 L2860000 342880 L2864333 355880 "/>
</svg:g><svg:path d="M2870000 1600000 L2850000 1600000 "/>
<svg:path d="M2870000 1100000 L2850000 1100000 "/>
<svg:path d="M2870000 600000 L2850000 600000 "/>
<svg:text x="110000.000000" y="1856500.000000" textLength="14950.000000" font-size="17333.330000" lengthAdjust="spacingAndGlyphs" text-anchor="middle" opacity="0.01" style="font-family:monospace">D</svg:text>
<svg:g class="stroked-text"><svg:desc>D</svg:desc>
<svg:path d="M106595 1855880 L106595 1842880 L109690 1842880 L111547 1843500 L112785 1844738 L113404 1845976 L114023 1848452 L114023 1850309 L113404 1852785 L112785 1854023 L111547 1855261 L109690 1855880 L106595 1855880 "/>
</svg:g><svg:text x="110000.000000" y="1356500.000000" textLength="14950.000000" font-size="17333.330000" lengthAdjust="spacingAndGlyphs" text-anchor="middle" opacity="0.01" style="font-family:monospace">C</svg:text>
<svg:g class="stroked-text"><svg:desc>C</svg:desc>
<svg:path d="M114023 1354642 L113404 1355261 L111547 1355880 L110309 1355880 L108452 1355261 L107214 1354023 L106595 1352785 L105976 1350309 L105976 1348452 L106595 1345976 L107214 1344738 L108452 1343500 L110309 1342880 L111547 1342880 L113404 1343500 L114023 1344119 "/>
</svg:g><svg:text x="110000.000000" y="856500.000000" textLength="14950.000000" font-size="17333.330000" lengthAdjust="spacingAndGlyphs" text-anchor="middle" opacity="0.01" style="font-family:monospace">B</svg:text>
<svg:g class="stroked-text"><svg:desc>B</svg:desc>
<svg:path d="M110928 849071 L112785 849690 L113404 850309 L114023 851547 L114023 853404 L113404 854642 L112785 855261 L111547 855880 L106595 855880 L106595 842880 L110928 842880 L112166 843500 L112785 844119 L113404 845357 L113404 846595 L112785 847833 L112166 848452 L110928 849071 L106595 849071 "/>
</svg:g><svg:text x="110000.000000" y="356500.000000" textLength="13092.860000" font-size="17333.330000" lengthAdjust="spacingAndGlyphs" text-anchor="middle" opacity="0.01" style="font-family:monospace">A</svg:text>
<svg:g class="stroked-text"><svg:desc>A</svg:desc>
<svg:path d="M106904 352166 L113095 352166 "/>
<svg:path d="M105666 355880 L110000 342880 L114333 355880 "/>
</svg:g><svg:path d="M100000 1600000 L120000 1600000 "/>
<svg:path d="M100000 1100000 L120000 1100000 "/>
<svg:path d="M100000 600000 L120000 600000 "/>
<svg:text x="2850000.000000" y="1996500.000000" textLength="14330.950000" font-size="17333.330000" lengthAdjust="spacingAndGlyphs" text-anchor="start" opacity="0.01" style="font-family:monospace">6</svg:text>
<svg:g class="stroked-text"><svg:desc>6</svg:desc>
<svg:path d="M2859641 1982880 L2857165 1982880 L2855927 1983500 L2855308 1984119 L2854070 1985976 L2853451 1988452 L2853451 1993404 L2854070 1994642 L2854689 1995261 L2855927 1995880 L2858403 1995880 L2859641 1995261 L2860260 1994642 L2860879 1993404 L2860879 1990309 L2860260 1989071 L2859641 1988452 L2858403 1987833 L2855927 1987833 L2854689 1988452 L2854070 1989071 L2853451 1990309 "/>
</svg:g><svg:text x="2350000.000000" y="1996500.000000" textLength="14330.950000" font-size="17333.330000" lengthAdjust="spacingAndGlyphs" text-anchor="start" opacity="0.01" style="font-family:monospace">5</svg:text>
<svg:g class="stroked-text"><svg:desc>5</svg:desc>
<svg:path d="M2360260 1982880 L2354070 1982880 L2353451 1989071 L2354070 1988452 L2355308 1987833 L2358403 1987833 L2359641 1988452 L2360260 1989071 L2360879 1990309 L2360879 1993404 L2360260 1994642 L2359641 1995261 L2358403 1995880 L2355308 1995880 L2354070 1995261 L2353451 1994642 "/>
</svg:g><svg:text x="1850000.000000" y="1996500.000000" textLength="14330.950000" font-size="17333.330000" lengthAdjust="spacingAndGlyphs" text-anchor="start" opacity="0.01" style="font-family:monospace">4</svg:text>
<svg:g class="stroked-text"><svg:desc>4</svg:desc>
<svg:path d="M1859641 1987214 L1859641 1995880 "/>
<svg:path d="M1856546 1982261 L1853451 1991547 L1861498 1991547 "/>
</svg:g><svg:text x="1350000.000000" y="1996500.000000" textLength="14330.950000" font-size="17333.330000" lengthAdjust="spacingAndGlyphs" text-anchor="start" opacity="0.01" style="font-family:monospace">3</svg:text>
<svg:g class="stroked-text"><svg:desc>3</svg:desc>
<svg:path d="M1352832 1982880 L1360879 1982880 L1356546 1987833 L1358403 1987833 L1359641 1988452 L1360260 1989071 L1360879 1990309 L1360879 1993404 L1360260 1994642 L1359641 1995261 L1358403 1995880 L1354689 1995880 L1353451 1995261 L1352832 1994642 "/>
</svg:g><svg:text x="850000.000000" y="1996500.000000" textLength="14330.950000" font-size="17333.330000" lengthAdjust="spacingAndGlyphs" text-anchor="start" opacity="0.01" style="font-family:monospace">2</svg:text>
<svg:g class="stroked-text"><svg:desc>2</svg:desc>
<svg:path d="M853451 1984119 L854070 1983500 L855308 1982880 L858403 1982880 L859641 1983500 L860260 1984119 L860879 1985357 L860879 1986595 L860260 1988452 L852832 1995880 L860879 1995880 "/>
</svg:g><svg:text x="350000.000000" y="1996500.000000" textLength="14330.950000" font-size="17333.330000" lengthAdjust="spacingAndGlyphs" text-anchor="start" opacity="0.01" style="font-family:monospace">1</svg:text>
<svg:g class="stroked-text"><svg:desc>1</svg:desc>
<svg:path d="M360879 1995880 L353451 1995880 "/>
<svg:path d="M357165 1995880 L357165 1982880 L355927 1984738 L354689 1985976 L353451 1986595 "/>
</svg:g><svg:path d="M2600000 1980000 L2600000 2000000 "/>
<svg:path d="M2100000 1980000 L2100000 2000000 "/>
<svg:path d="M1600000 1980000 L1600000 2000000 "/>
<svg:path d="M1100000 1980000 L1100000 2000000 "/>
<svg:path d="M600000 1980000 L600000 2000000 "/>
<svg:text x="2850000.000000" y="116500.000000" textLength="14330.950000" font-size="17333.330000" lengthAdjust="spacingAndGlyphs" text-anchor="start" opacity="0.01" style="font-family:monospace">6</svg:text>
<svg:g class="stroked-text"><svg:desc>6</svg:desc>
<svg:path d="M2859641 102880 L2857165 102880 L2855927 103500 L2855308 104119 L2854070 105976 L2853451 108452 L2853451 113404 L2854070 114642 L2854689 115261 L2855927 115880 L2858403 115880 L2859641 115261 L2860260 114642 L2860879 113404 L2860879 110309 L2860260 109071 L2859641 108452 L2858403 107833 L2855927 107833 L2854689 108452 L2854070 109071 L2853451 110309 "/>
</svg:g><svg:text x="2350000.000000" y="116500.000000" textLength="14330.950000" font-size="17333.330000" lengthAdjust="spacingAndGlyphs" text-anchor="start" opacity="0.01" style="font-family:monospace">5</svg:text>
<svg:g class="stroked-text"><svg:desc>5</svg:desc>
<svg:path d="M2360260 102880 L2354070 102880 L2353451 109071 L2354070 108452 L2355308 107833 L2358403 107833 L2359641 108452 L2360260 109071 L2360879 110309 L2360879 113404 L2360260 114642 L2359641 115261 L2358403 115880 L2355308 115880 L2354070 115261 L2353451 114642 "/>
</svg:g><svg:text x="1850000.000000" y="116500.000000" textLength="14330.950000" font-size="17333.330000" lengthAdjust="spacingAndGlyphs" text-anchor="start" opacity="0.01" style="font-family:monospace">4</svg:text>
<svg:g class="stroked-text"><svg:desc>4</svg:desc>
<svg:path d="M1859641 107214 L1859641 115880 "/>
<svg:path d="M1856546 102261 L1853451 111547 L1861498 111547 "/>
</svg:g><svg:text x="1350000.000000" y="116500.000000" textLength="14330.950000" font-size="17333.330000" lengthAdjust="spacingAndGlyphs" text-anchor="start" opacity="0.01" style="font-family:monospace">3</svg:text>
<svg:g class="stroked-text"><svg:desc>3</svg:desc>
<svg:path d="M1352832 102880 L1360879 102880 L1356546 107833 L1358403 107833 L1359641 108452 L1360260 109071 L1360879 110309 L1360879 113404 L1360260 114642 L1359641 115261 L1358403 115880 L1354689 115880 L1353451 115261 L1352832 114642 "/>
</svg:g><svg:text x="850000.000000" y="116500.000000" textLength="14330.950000" font-size="17333.330000" lengthAdjust="spacingAndGlyphs" text-anchor="start" opacity="0.01" style="font-family:monospace">2</svg:text>
<svg:g class="stroked-text"><svg:desc>2</svg:desc>
<svg:path d="M853451 104119 L854070 103500 L855308 102880 L858403 102880 L859641 103500 L860260 104119 L860879 105357 L860879 106595 L860260 108452 L852832 115880 L860879 115880 "/>
</svg:g><svg:text x="350000.000000" y="116500.000000" textLength="14330.950000" font-size="17333.330000" lengthAdjust="spacingAndGlyphs" text-anchor="start" opacity="0.01" style="font-family:monospace">1</svg:text>
<svg:g class="stroked-text"><svg:desc>1</svg:desc>
<svg:path d="M360879 115880 L353451 115880 "/>
<svg:path d="M357165 115880 L357165 102880 L355927 104738 L354689 105976 L353451 106595 "/>
</svg:g><svg:path d="M2600000 120000 L2600000 100000 "/>
<svg:path d="M2100000 120000 L2100000 100000 "/>
<svg:path d="M1600000 120000 L1600000 100000 "/>
<svg:path d="M1100000 120000 L1100000 100000 "/>
<svg:path d="M600000 120000 L600000 100000 "/>
<svg:path d="M120000 120000 L2850000 120000 "/>
<svg:path d="M2850000 120000 L2850000 1980000 "/>
<svg:path d="M2850000 1980000 L120000 1980000 "/>
<svg:path d="M120000 1980000 L120000 120000 "/>
<svg:path d="M100000 100000 L2870000 100000 "/>
<svg:path d="M2870000 100000 L2870000 2000000 "/>
<svg:path d="M2870000 2000000 L100000 2000000 "/>
<svg:path d="M100000 2000000 L100000 100000 "/>
<svg:path d="M1770000 1660000 L2850000 1660000 "/>
<svg:path d="M2850000 1660000 L2850000 1980000 "/>
<svg:path d="M2850000 1980000 L1770000 1980000 "/>
<svg:path d="M1770000 1980000 L1770000 1660000 "/>
<svg:g>
</svg:g>
<svg:g>
</svg:g>
<svg:g>
</svg:g>
<svg:g>
</svg:g>
<svg:g>
</svg:g>
<svg:g>
</svg:g>
<svg:g>
</svg:g>
<svg:g>
</svg:g>
<svg:g>
</svg:g>
<svg:g>
</svg:g>
<svg:g>
</svg:g>
<svg:g>
</svg:g>
<svg:g>
</svg:g>
<svg:g>
</svg:g>
<svg:g>
</svg:g>
<svg:g>
</svg:g>
<svg:g>
</svg:g>
<svg:g>
</svg:g>
<svg:g>
</svg:g>
<svg:g>
</svg:g>
<svg:g>
</svg:g>
<svg:g>
</svg:g>
<svg:g>
</svg:g>
<svg:g>
</svg:g>
<svg:g>
</svg:g>
<svg:g>
</svg:g>
<svg:g>
</svg:g>
<svg:g>
</svg:g>
<svg:g>
</svg:g>
<svg:g>
</svg:g>
<svg:g>
</svg:g>
<svg:g>
</svg:g>
<svg:g>
</svg:g>
<svg:g>
</svg:g>
<svg:g>
</svg:g>
<svg:g>
</svg:g>
<svg:g>
</svg:g>
<svg:g>
</svg:g>
<svg:g>
</svg:g>
<svg:g>
</svg:g>
<svg:g>
</svg:g>
<svg:g>
</svg:g>
<svg:g>
</svg:g>
<svg:g>
</svg:g>
<svg:g>
</svg:g>
<svg:g>
</svg:g>
<svg:g>
</svg:g>
<svg:g>
</svg:g>
<svg:g>
</svg:g>
<svg:g>
</svg:g>
</svg:g> 
</svg:g></svg:g></svg>
