  0
SECTION
  2
HEADER
  9
$ANGBASE
  50
0.0
  9
$ANGDIR
  70
1
  9
$MEASUREMENT
  70
0
  0
ENDSEC
  0
SECTION
  2
TABLES
  0
TABLE
  2
LTYPE
  70
4
  0
LTYPE
  5
40F
  2
CONTINUOUS
  70
0
  3
Solid line
  72
65
  73
0
  40
0.0
  0
LTYPE
  5
410
  2
DASHDOT
 70
0
  3
Dash Dot ____ _ ____ _
 72
65
 73
4
 40
2.0
 49
1.25
 49
-0.25
 49
0.25
 49
-0.25
  0
LTYPE
  5
411
  2
DASHED
 70
0
  3
Dashed __ __ __ __ __
 72
65
 73
2
 40
0.75
 49
0.5
 49
-0.25
  0
LTYPE
  5
43B
  2
DOTTED
 70
0
  3
Dotted .  .  .  .
 72
65
 73
2
 40
0.2
 49
0.0
 49
-0.2
  0
ENDTAB
  0
TABLE
  2
STYLE
  70
4
  0
STYLE
  2
KICAD
  70
0
  40
0
  41
1
  42
1
  50
0
  71
0
  3
isocp.shx
  0
STYLE
  2
KICADB
  70
0
  40
0
  41
1
  42
1
  50
0
  71
0
  3
isocp.shx
  0
STYLE
  2
KICADI
  70
0
  40
0
  41
1
  42
1
  50
15
  71
0
  3
isocp.shx
  0
STYLE
  2
KICADBI
  70
0
  40
0
  41
1
  42
1
  50
15
  71
0
  3
isocp.shx
  0
ENDTAB
  0
TABLE
  2
LAYER
  70
1
  0
LAYER
  2
BLACK
  70
0
  62
7
  6
CONTINUOUS
  0
ENDTAB
  0
ENDSEC
  0
SECTION
  2
ENTITIES
0
LINE
8
BLACK
6
CONTINUOUS
10
6.151714251968504
20
-3.2913833070866141
11
6.1590229133858267
21
-3.2944106692913384
0
LINE
8
BLACK
6
CONTINUOUS
10
6.1590229133858267
20
-3.2944106692913384
11
6.1656005118110233
21
-3.2988056692913386
0
LINE
8
BLACK
6
CONTINUOUS
10
6.1656005118110233
20
-3.2988056692913386
11
6.1711943307086612
21
-3.3043994881889764
0
LINE
8
BLACK
6
CONTINUOUS
10
6.1711943307086612
20
-3.3043994881889764
11
6.1755893307086609
21
-3.310977086614173
0
LINE
8
BLACK
6
CONTINUOUS
10
6.1755893307086609
20
-3.310977086614173
11
6.1786166929133861
21
-3.3182857480314958
0
LINE
8
BLACK
6
CONTINUOUS
10
6.1786166929133861
20
-3.3182857480314958
11
6.1801599999999999
21
-3.3260445669291339
0
LINE
8
BLACK
6
CONTINUOUS
10
6.1801599999999999
20
-3.3260445669291339
11
6.1801599999999999
21
-3.3339554330708663
0
LINE
8
BLACK
6
CONTINUOUS
10
6.1801599999999999
20
-3.3339554330708663
11
6.1786166929133861
21
-3.3417142519685039
0
LINE
8
BLACK
6
CONTINUOUS
10
6.1786166929133861
20
-3.3417142519685039
11
6.1755893307086609
21
-3.3490229133858267
0
LINE
8
BLACK
6
CONTINUOUS
10
6.1755893307086609
20
-3.3490229133858267
11
6.1711943307086612
21
-3.3556005118110237
0
LINE
8
BLACK
6
CONTINUOUS
10
6.1711943307086612
20
-3.3556005118110237
11
6.1656005118110233
21
-3.3611943307086611
0
LINE
8
BLACK
6
CONTINUOUS
10
6.1656005118110233
20
-3.3611943307086611
11
6.1590229133858267
21
-3.3655893307086613
0
LINE
8
BLACK
6
CONTINUOUS
10
6.1590229133858267
20
-3.3655893307086613
11
6.151714251968504
21
-3.3686166929133856
0
LINE
8
BLACK
6
CONTINUOUS
10
6.151714251968504
20
-3.3686166929133856
11
6.1439554330708663
21
-3.3701599999999998
0
LINE
8
BLACK
6
CONTINUOUS
10
6.1439554330708663
20
-3.3701599999999998
11
6.1360445669291339
21
-3.3701599999999998
0
LINE
8
BLACK
6
CONTINUOUS
10
6.1360445669291339
20
-3.3701599999999998
11
6.1282857480314963
21
-3.3686166929133856
0
LINE
8
BLACK
6
CONTINUOUS
10
6.1282857480314963
20
-3.3686166929133856
11
6.1209770866141735
21
-3.3655893307086613
0
LINE
8
BLACK
6
CONTINUOUS
10
6.1209770866141735
20
-3.3655893307086613
11
6.1143994881889761
21
-3.3611943307086611
0
LINE
8
BLACK
6
CONTINUOUS
10
6.1143994881889761
20
-3.3611943307086611
11
6.1088056692913382
21
-3.3556005118110237
0
LINE
8
BLACK
6
CONTINUOUS
10
6.1088056692913382
20
-3.3556005118110237
11
6.1044106692913385
21
-3.3490229133858267
0
LINE
8
BLACK
6
CONTINUOUS
10
6.1044106692913385
20
-3.3490229133858267
11
6.1013833070866141
21
-3.3417142519685039
0
LINE
8
BLACK
6
CONTINUOUS
10
6.1013833070866141
20
-3.3417142519685039
11
6.0998399999999995
21
-3.3339554330708663
0
LINE
8
BLACK
6
CONTINUOUS
10
6.0998399999999995
20
-3.3339554330708663
11
6.0998399999999995
21
-3.3262193307086614
0
LINE
8
BLACK
6
CONTINUOUS
10
6.0998399999999995
20
-3.3262193307086614
11
6.0998399999999995
21
-3.3260445669291339
0
LINE
8
BLACK
6
CONTINUOUS
10
6.0998399999999995
20
-3.3260445669291339
11
6.1013833070866141
21
-3.3182857480314958
0
LINE
8
BLACK
6
CONTINUOUS
10
6.1013833070866141
20
-3.3182857480314958
11
6.1044106692913385
21
-3.310977086614173
0
LINE
8
BLACK
6
CONTINUOUS
10
6.1044106692913385
20
-3.310977086614173
11
6.1088056692913382
21
-3.3043994881889764
0
LINE
8
BLACK
6
CONTINUOUS
10
6.1088056692913382
20
-3.3043994881889764
11
6.1143994881889761
21
-3.2988056692913386
0
LINE
8
BLACK
6
CONTINUOUS
10
6.1143994881889761
20
-3.2988056692913386
11
6.1209770866141735
21
-3.2944106692913384
0
LINE
8
BLACK
6
CONTINUOUS
10
6.1209770866141735
20
-3.2944106692913384
11
6.1282857480314963
21
-3.2913833070866141
0
LINE
8
BLACK
6
CONTINUOUS
10
6.1282857480314963
20
-3.2913833070866141
11
6.1360445669291339
21
-3.2898399999999999
0
LINE
8
BLACK
6
CONTINUOUS
10
6.1360445669291339
20
-3.2898399999999999
11
6.1439554330708663
21
-3.2898399999999999
0
LINE
8
BLACK
6
CONTINUOUS
10
6.1439554330708663
20
-3.2898399999999999
11
6.151714251968504
21
-3.2913833070866141
0
LINE
8
BLACK
6
CONTINUOUS
10
6.101614173228346
20
-3.3337806692913383
11
6.1030892913385824
21
-3.3411967322834646
0
LINE
8
BLACK
6
CONTINUOUS
10
6.1030892913385824
20
-3.3411967322834646
11
6.1059829133858265
21
-3.3481825196850394
0
LINE
8
BLACK
6
CONTINUOUS
10
6.1059829133858265
20
-3.3481825196850394
11
6.1101837795275591
21
-3.3544695669291338
0
LINE
8
BLACK
6
CONTINUOUS
10
6.1101837795275591
20
-3.3544695669291338
11
6.115530433070866
21
-3.3598162204724407
0
LINE
8
BLACK
6
CONTINUOUS
10
6.115530433070866
20
-3.3598162204724407
11
6.1218174803149603
21
-3.3640170866141732
0
LINE
8
BLACK
6
CONTINUOUS
10
6.1218174803149603
20
-3.3640170866141732
11
6.1288032677165356
21
-3.3669107086614174
0
LINE
8
BLACK
6
CONTINUOUS
10
6.1288032677165356
20
-3.3669107086614174
11
6.136219330708661
21
-3.3683858267716533
0
LINE
8
BLACK
6
CONTINUOUS
10
6.136219330708661
20
-3.3683858267716533
11
6.1437806692913384
21
-3.3683858267716533
0
LINE
8
BLACK
6
CONTINUOUS
10
6.1437806692913384
20
-3.3683858267716533
11
6.1511967322834646
21
-3.3669107086614174
0
LINE
8
BLACK
6
CONTINUOUS
10
6.1511967322834646
20
-3.3669107086614174
11
6.158182519685039
21
-3.3640170866141732
0
LINE
8
BLACK
6
CONTINUOUS
10
6.158182519685039
20
-3.3640170866141732
11
6.1644695669291334
21
-3.3598162204724407
0
LINE
8
BLACK
6
CONTINUOUS
10
6.1644695669291334
20
-3.3598162204724407
11
6.1698162204724412
21
-3.3544695669291338
0
LINE
8
BLACK
6
CONTINUOUS
10
6.1698162204724412
20
-3.3544695669291338
11
6.1740170866141728
21
-3.3481825196850394
0
LINE
8
BLACK
6
CONTINUOUS
10
6.1740170866141728
20
-3.3481825196850394
11
6.176910708661417
21
-3.3411967322834646
0
LINE
8
BLACK
6
CONTINUOUS
10
6.176910708661417
20
-3.3411967322834646
11
6.1783858267716534
21
-3.3337806692913383
0
LINE
8
BLACK
6
CONTINUOUS
10
6.1783858267716534
20
-3.3337806692913383
11
6.1783858267716534
21
-3.3262193307086614
0
LINE
8
BLACK
6
CONTINUOUS
10
6.1783858267716534
20
-3.3262193307086614
11
6.176910708661417
21
-3.3188032677165356
0
LINE
8
BLACK
6
CONTINUOUS
10
6.176910708661417
20
-3.3188032677165356
11
6.1740170866141728
21
-3.3118174803149607
0
LINE
8
BLACK
6
CONTINUOUS
10
6.1740170866141728
20
-3.3118174803149607
11
6.1698162204724412
21
-3.3055304330708659
0
LINE
8
BLACK
6
CONTINUOUS
10
6.1698162204724412
20
-3.3055304330708659
11
6.1644695669291334
21
-3.300183779527559
0
LINE
8
BLACK
6
CONTINUOUS
10
6.1644695669291334
20
-3.300183779527559
11
6.158182519685039
21
-3.2959829133858265
0
LINE
8
BLACK
6
CONTINUOUS
10
6.158182519685039
20
-3.2959829133858265
11
6.1511967322834646
21
-3.2930892913385827
0
LINE
8
BLACK
6
CONTINUOUS
10
6.1511967322834646
20
-3.2930892913385827
11
6.1437806692913384
21
-3.2916141732283464
0
LINE
8
BLACK
6
CONTINUOUS
10
6.1437806692913384
20
-3.2916141732283464
11
6.136219330708661
21
-3.2916141732283464
0
LINE
8
BLACK
6
CONTINUOUS
10
6.136219330708661
20
-3.2916141732283464
11
6.1288032677165356
21
-3.2930892913385827
0
LINE
8
BLACK
6
CONTINUOUS
10
6.1288032677165356
20
-3.2930892913385827
11
6.1218174803149603
21
-3.2959829133858265
0
LINE
8
BLACK
6
CONTINUOUS
10
6.1218174803149603
20
-3.2959829133858265
11
6.115530433070866
21
-3.300183779527559
0
LINE
8
BLACK
6
CONTINUOUS
10
6.115530433070866
20
-3.300183779527559
11
6.1101837795275591
21
-3.3055304330708659
0
LINE
8
BLACK
6
CONTINUOUS
10
6.1101837795275591
20
-3.3055304330708659
11
6.1059829133858265
21
-3.3118174803149607
0
LINE
8
BLACK
6
CONTINUOUS
10
6.1059829133858265
20
-3.3118174803149607
11
6.1030892913385824
21
-3.3188032677165356
0
LINE
8
BLACK
6
CONTINUOUS
10
6.1030892913385824
20
-3.3188032677165356
11
6.101614173228346
21
-3.3262193307086614
0
LINE
8
BLACK
6
CONTINUOUS
10
6.101614173228346
20
-3.3262193307086614
11
6.101614173228346
21
-3.3337806692913383
0
LINE
8
BLACK
6
CONTINUOUS
10
7.0617142519685041
20
-3.2713833070866141
11
7.0690229133858269
21
-3.2744106692913384
0
LINE
8
BLACK
6
CONTINUOUS
10
7.0690229133858269
20
-3.2744106692913384
11
7.0756005118110235
21
-3.2788056692913385
0
LINE
8
BLACK
6
CONTINUOUS
10
7.0756005118110235
20
-3.2788056692913385
11
7.0811943307086613
21
-3.2843994881889764
0
LINE
8
BLACK
6
CONTINUOUS
10
7.0811943307086613
20
-3.2843994881889764
11
7.085589330708661
21
-3.290977086614173
0
LINE
8
BLACK
6
CONTINUOUS
10
7.085589330708661
20
-3.290977086614173
11
7.0886166929133854
21
-3.2982857480314958
0
LINE
8
BLACK
6
CONTINUOUS
10
7.0886166929133854
20
-3.2982857480314958
11
7.09016
21
-3.3060445669291338
0
LINE
8
BLACK
6
CONTINUOUS
10
7.09016
20
-3.3060445669291338
11
7.09016
21
-3.3139554330708663
0
LINE
8
BLACK
6
CONTINUOUS
10
7.09016
20
-3.3139554330708663
11
7.0886166929133854
21
-3.3217142519685039
0
LINE
8
BLACK
6
CONTINUOUS
10
7.0886166929133854
20
-3.3217142519685039
11
7.085589330708661
21
-3.3290229133858267
0
LINE
8
BLACK
6
CONTINUOUS
10
7.085589330708661
20
-3.3290229133858267
11
7.0811943307086613
21
-3.3356005118110237
0
LINE
8
BLACK
6
CONTINUOUS
10
7.0811943307086613
20
-3.3356005118110237
11
7.0756005118110235
21
-3.3411943307086611
0
LINE
8
BLACK
6
CONTINUOUS
10
7.0756005118110235
20
-3.3411943307086611
11
7.0690229133858269
21
-3.3455893307086613
0
LINE
8
BLACK
6
CONTINUOUS
10
7.0690229133858269
20
-3.3455893307086613
11
7.0617142519685041
21
-3.3486166929133856
0
LINE
8
BLACK
6
CONTINUOUS
10
7.0617142519685041
20
-3.3486166929133856
11
7.0539554330708656
21
-3.3501599999999998
0
LINE
8
BLACK
6
CONTINUOUS
10
7.0539554330708656
20
-3.3501599999999998
11
7.0460445669291341
21
-3.3501599999999998
0
LINE
8
BLACK
6
CONTINUOUS
10
7.0460445669291341
20
-3.3501599999999998
11
7.0382857480314955
21
-3.3486166929133856
0
LINE
8
BLACK
6
CONTINUOUS
10
7.0382857480314955
20
-3.3486166929133856
11
7.0309770866141728
21
-3.3455893307086613
0
LINE
8
BLACK
6
CONTINUOUS
10
7.0309770866141728
20
-3.3455893307086613
11
7.0243994881889762
21
-3.3411943307086611
0
LINE
8
BLACK
6
CONTINUOUS
10
7.0243994881889762
20
-3.3411943307086611
11
7.0188056692913383
21
-3.3356005118110237
0
LINE
8
BLACK
6
CONTINUOUS
10
7.0188056692913383
20
-3.3356005118110237
11
7.0144106692913386
21
-3.3290229133858267
0
LINE
8
BLACK
6
CONTINUOUS
10
7.0144106692913386
20
-3.3290229133858267
11
7.0113833070866143
21
-3.3217142519685039
0
LINE
8
BLACK
6
CONTINUOUS
10
7.0113833070866143
20
-3.3217142519685039
11
7.0098399999999996
21
-3.3139554330708663
0
LINE
8
BLACK
6
CONTINUOUS
10
7.0098399999999996
20
-3.3139554330708663
11
7.0098399999999996
21
-3.3062193307086614
0
LINE
8
BLACK
6
CONTINUOUS
10
7.0098399999999996
20
-3.3062193307086614
11
7.0098399999999996
21
-3.3060445669291338
0
LINE
8
BLACK
6
CONTINUOUS
10
7.0098399999999996
20
-3.3060445669291338
11
7.0113833070866143
21
-3.2982857480314958
0
LINE
8
BLACK
6
CONTINUOUS
10
7.0113833070866143
20
-3.2982857480314958
11
7.0144106692913386
21
-3.290977086614173
0
LINE
8
BLACK
6
CONTINUOUS
10
7.0144106692913386
20
-3.290977086614173
11
7.0188056692913383
21
-3.2843994881889764
0
LINE
8
BLACK
6
CONTINUOUS
10
7.0188056692913383
20
-3.2843994881889764
11
7.0243994881889762
21
-3.2788056692913385
0
LINE
8
BLACK
6
CONTINUOUS
10
7.0243994881889762
20
-3.2788056692913385
11
7.0309770866141728
21
-3.2744106692913384
0
LINE
8
BLACK
6
CONTINUOUS
10
7.0309770866141728
20
-3.2744106692913384
11
7.0382857480314955
21
-3.2713833070866141
0
LINE
8
BLACK
6
CONTINUOUS
10
7.0382857480314955
20
-3.2713833070866141
11
7.0460445669291341
21
-3.2698399999999999
0
LINE
8
BLACK
6
CONTINUOUS
10
7.0460445669291341
20
-3.2698399999999999
11
7.0539554330708656
21
-3.2698399999999999
0
LINE
8
BLACK
6
CONTINUOUS
10
7.0539554330708656
20
-3.2698399999999999
11
7.0617142519685041
21
-3.2713833070866141
0
LINE
8
BLACK
6
CONTINUOUS
10
7.0116141732283461
20
-3.3137806692913383
11
7.0130892913385825
21
-3.3211967322834646
0
LINE
8
BLACK
6
CONTINUOUS
10
7.0130892913385825
20
-3.3211967322834646
11
7.0159829133858267
21
-3.3281825196850394
0
LINE
8
BLACK
6
CONTINUOUS
10
7.0159829133858267
20
-3.3281825196850394
11
7.0201837795275592
21
-3.3344695669291338
0
LINE
8
BLACK
6
CONTINUOUS
10
7.0201837795275592
20
-3.3344695669291338
11
7.0255304330708661
21
-3.3398162204724411
0
LINE
8
BLACK
6
CONTINUOUS
10
7.0255304330708661
20
-3.3398162204724411
11
7.0318174803149605
21
-3.3440170866141732
0
LINE
8
BLACK
6
CONTINUOUS
10
7.0318174803149605
20
-3.3440170866141732
11
7.0388032677165349
21
-3.3469107086614174
0
LINE
8
BLACK
6
CONTINUOUS
10
7.0388032677165349
20
-3.3469107086614174
11
7.0462193307086611
21
-3.3483858267716533
0
LINE
8
BLACK
6
CONTINUOUS
10
7.0462193307086611
20
-3.3483858267716533
11
7.0537806692913385
21
-3.3483858267716533
0
LINE
8
BLACK
6
CONTINUOUS
10
7.0537806692913385
20
-3.3483858267716533
11
7.0611967322834648
21
-3.3469107086614174
0
LINE
8
BLACK
6
CONTINUOUS
10
7.0611967322834648
20
-3.3469107086614174
11
7.0681825196850392
21
-3.3440170866141732
0
LINE
8
BLACK
6
CONTINUOUS
10
7.0681825196850392
20
-3.3440170866141732
11
7.0744695669291335
21
-3.3398162204724411
0
LINE
8
BLACK
6
CONTINUOUS
10
7.0744695669291335
20
-3.3398162204724411
11
7.0798162204724404
21
-3.3344695669291338
0
LINE
8
BLACK
6
CONTINUOUS
10
7.0798162204724404
20
-3.3344695669291338
11
7.084017086614173
21
-3.3281825196850394
0
LINE
8
BLACK
6
CONTINUOUS
10
7.084017086614173
20
-3.3281825196850394
11
7.0869107086614171
21
-3.3211967322834646
0
LINE
8
BLACK
6
CONTINUOUS
10
7.0869107086614171
20
-3.3211967322834646
11
7.0883858267716535
21
-3.3137806692913383
0
LINE
8
BLACK
6
CONTINUOUS
10
7.0883858267716535
20
-3.3137806692913383
11
7.0883858267716535
21
-3.3062193307086614
0
LINE
8
BLACK
6
CONTINUOUS
10
7.0883858267716535
20
-3.3062193307086614
11
7.0869107086614171
21
-3.2988032677165355
0
LINE
8
BLACK
6
CONTINUOUS
10
7.0869107086614171
20
-3.2988032677165355
11
7.084017086614173
21
-3.2918174803149607
0
LINE
8
BLACK
6
CONTINUOUS
10
7.084017086614173
20
-3.2918174803149607
11
7.0798162204724404
21
-3.2855304330708659
0
LINE
8
BLACK
6
CONTINUOUS
10
7.0798162204724404
20
-3.2855304330708659
11
7.0744695669291335
21
-3.280183779527559
0
LINE
8
BLACK
6
CONTINUOUS
10
7.0744695669291335
20
-3.280183779527559
11
7.0681825196850392
21
-3.2759829133858265
0
LINE
8
BLACK
6
CONTINUOUS
10
7.0681825196850392
20
-3.2759829133858265
11
7.0611967322834648
21
-3.2730892913385827
0
LINE
8
BLACK
6
CONTINUOUS
10
7.0611967322834648
20
-3.2730892913385827
11
7.0537806692913385
21
-3.2716141732283464
0
LINE
8
BLACK
6
CONTINUOUS
10
7.0537806692913385
20
-3.2716141732283464
11
7.0462193307086611
21
-3.2716141732283464
0
LINE
8
BLACK
6
CONTINUOUS
10
7.0462193307086611
20
-3.2716141732283464
11
7.0388032677165349
21
-3.2730892913385827
0
LINE
8
BLACK
6
CONTINUOUS
10
7.0388032677165349
20
-3.2730892913385827
11
7.0318174803149605
21
-3.2759829133858265
0
LINE
8
BLACK
6
CONTINUOUS
10
7.0318174803149605
20
-3.2759829133858265
11
7.0255304330708661
21
-3.280183779527559
0
LINE
8
BLACK
6
CONTINUOUS
10
7.0255304330708661
20
-3.280183779527559
11
7.0201837795275592
21
-3.2855304330708659
0
LINE
8
BLACK
6
CONTINUOUS
10
7.0201837795275592
20
-3.2855304330708659
11
7.0159829133858267
21
-3.2918174803149607
0
LINE
8
BLACK
6
CONTINUOUS
10
7.0159829133858267
20
-3.2918174803149607
11
7.0130892913385825
21
-3.2988032677165355
0
LINE
8
BLACK
6
CONTINUOUS
10
7.0130892913385825
20
-3.2988032677165355
11
7.0116141732283461
21
-3.3062193307086614
0
LINE
8
BLACK
6
CONTINUOUS
10
7.0116141732283461
20
-3.3062193307086614
11
7.0116141732283461
21
-3.3137806692913383
0
LINE
8
BLACK
6
CONTINUOUS
10
7.0617142519685041
20
-3.1413833070866142
11
7.0690229133858269
21
-3.1444106692913385
0
LINE
8
BLACK
6
CONTINUOUS
10
7.0690229133858269
20
-3.1444106692913385
11
7.0756005118110235
21
-3.1488056692913386
0
LINE
8
BLACK
6
CONTINUOUS
10
7.0756005118110235
20
-3.1488056692913386
11
7.0811943307086613
21
-3.1543994881889761
0
LINE
8
BLACK
6
CONTINUOUS
10
7.0811943307086613
20
-3.1543994881889761
11
7.085589330708661
21
-3.1609770866141731
0
LINE
8
BLACK
6
CONTINUOUS
10
7.085589330708661
20
-3.1609770866141731
11
7.0886166929133854
21
-3.1682857480314959
0
LINE
8
BLACK
6
CONTINUOUS
10
7.0886166929133854
20
-3.1682857480314959
11
7.09016
21
-3.1760445669291339
0
LINE
8
BLACK
6
CONTINUOUS
10
7.09016
20
-3.1760445669291339
11
7.09016
21
-3.1839554330708659
0
LINE
8
BLACK
6
CONTINUOUS
10
7.09016
20
-3.1839554330708659
11
7.0886166929133854
21
-3.191714251968504
0
LINE
8
BLACK
6
CONTINUOUS
10
7.0886166929133854
20
-3.191714251968504
11
7.085589330708661
21
-3.1990229133858268
0
LINE
8
BLACK
6
CONTINUOUS
10
7.085589330708661
20
-3.1990229133858268
11
7.0811943307086613
21
-3.2056005118110233
0
LINE
8
BLACK
6
CONTINUOUS
10
7.0811943307086613
20
-3.2056005118110233
11
7.0756005118110235
21
-3.2111943307086612
0
LINE
8
BLACK
6
CONTINUOUS
10
7.0756005118110235
20
-3.2111943307086612
11
7.0690229133858269
21
-3.2155893307086614
0
LINE
8
BLACK
6
CONTINUOUS
10
7.0690229133858269
20
-3.2155893307086614
11
7.0617142519685041
21
-3.2186166929133857
0
LINE
8
BLACK
6
CONTINUOUS
10
7.0617142519685041
20
-3.2186166929133857
11
7.0539554330708656
21
-3.2201599999999999
0
LINE
8
BLACK
6
CONTINUOUS
10
7.0539554330708656
20
-3.2201599999999999
11
7.0460445669291341
21
-3.2201599999999999
0
LINE
8
BLACK
6
CONTINUOUS
10
7.0460445669291341
20
-3.2201599999999999
11
7.0382857480314955
21
-3.2186166929133857
0
LINE
8
BLACK
6
CONTINUOUS
10
7.0382857480314955
20
-3.2186166929133857
11
7.0309770866141728
21
-3.2155893307086614
0
LINE
8
BLACK
6
CONTINUOUS
10
7.0309770866141728
20
-3.2155893307086614
11
7.0243994881889762
21
-3.2111943307086612
0
LINE
8
BLACK
6
CONTINUOUS
10
7.0243994881889762
20
-3.2111943307086612
11
7.0188056692913383
21
-3.2056005118110233
0
LINE
8
BLACK
6
CONTINUOUS
10
7.0188056692913383
20
-3.2056005118110233
11
7.0144106692913386
21
-3.1990229133858268
0
LINE
8
BLACK
6
CONTINUOUS
10
7.0144106692913386
20
-3.1990229133858268
11
7.0113833070866143
21
-3.191714251968504
0
LINE
8
BLACK
6
CONTINUOUS
10
7.0113833070866143
20
-3.191714251968504
11
7.0098399999999996
21
-3.1839554330708659
0
LINE
8
BLACK
6
CONTINUOUS
10
7.0098399999999996
20
-3.1839554330708659
11
7.0098399999999996
21
-3.1762193307086615
0
LINE
8
BLACK
6
CONTINUOUS
10
7.0098399999999996
20
-3.1762193307086615
11
7.0098399999999996
21
-3.1760445669291339
0
LINE
8
BLACK
6
CONTINUOUS
10
7.0098399999999996
20
-3.1760445669291339
11
7.0113833070866143
21
-3.1682857480314959
0
LINE
8
BLACK
6
CONTINUOUS
10
7.0113833070866143
20
-3.1682857480314959
11
7.0144106692913386
21
-3.1609770866141731
0
LINE
8
BLACK
6
CONTINUOUS
10
7.0144106692913386
20
-3.1609770866141731
11
7.0188056692913383
21
-3.1543994881889761
0
LINE
8
BLACK
6
CONTINUOUS
10
7.0188056692913383
20
-3.1543994881889761
11
7.0243994881889762
21
-3.1488056692913386
0
LINE
8
BLACK
6
CONTINUOUS
10
7.0243994881889762
20
-3.1488056692913386
11
7.0309770866141728
21
-3.1444106692913385
0
LINE
8
BLACK
6
CONTINUOUS
10
7.0309770866141728
20
-3.1444106692913385
11
7.0382857480314955
21
-3.1413833070866142
0
LINE
8
BLACK
6
CONTINUOUS
10
7.0382857480314955
20
-3.1413833070866142
11
7.0460445669291341
21
-3.13984
0
LINE
8
BLACK
6
CONTINUOUS
10
7.0460445669291341
20
-3.13984
11
7.0539554330708656
21
-3.13984
0
LINE
8
BLACK
6
CONTINUOUS
10
7.0539554330708656
20
-3.13984
11
7.0617142519685041
21
-3.1413833070866142
0
LINE
8
BLACK
6
CONTINUOUS
10
7.0116141732283461
20
-3.1837806692913384
11
7.0130892913385825
21
-3.1911967322834647
0
LINE
8
BLACK
6
CONTINUOUS
10
7.0130892913385825
20
-3.1911967322834647
11
7.0159829133858267
21
-3.1981825196850391
0
LINE
8
BLACK
6
CONTINUOUS
10
7.0159829133858267
20
-3.1981825196850391
11
7.0201837795275592
21
-3.2044695669291339
0
LINE
8
BLACK
6
CONTINUOUS
10
7.0201837795275592
20
-3.2044695669291339
11
7.0255304330708661
21
-3.2098162204724408
0
LINE
8
BLACK
6
CONTINUOUS
10
7.0255304330708661
20
-3.2098162204724408
11
7.0318174803149605
21
-3.2140170866141733
0
LINE
8
BLACK
6
CONTINUOUS
10
7.0318174803149605
20
-3.2140170866141733
11
7.0388032677165349
21
-3.216910708661417
0
LINE
8
BLACK
6
CONTINUOUS
10
7.0388032677165349
20
-3.216910708661417
11
7.0462193307086611
21
-3.2183858267716534
0
LINE
8
BLACK
6
CONTINUOUS
10
7.0462193307086611
20
-3.2183858267716534
11
7.0537806692913385
21
-3.2183858267716534
0
LINE
8
BLACK
6
CONTINUOUS
10
7.0537806692913385
20
-3.2183858267716534
11
7.0611967322834648
21
-3.216910708661417
0
LINE
8
BLACK
6
CONTINUOUS
10
7.0611967322834648
20
-3.216910708661417
11
7.0681825196850392
21
-3.2140170866141733
0
LINE
8
BLACK
6
CONTINUOUS
10
7.0681825196850392
20
-3.2140170866141733
11
7.0744695669291335
21
-3.2098162204724408
0
LINE
8
BLACK
6
CONTINUOUS
10
7.0744695669291335
20
-3.2098162204724408
11
7.0798162204724404
21
-3.2044695669291339
0
LINE
8
BLACK
6
CONTINUOUS
10
7.0798162204724404
20
-3.2044695669291339
11
7.084017086614173
21
-3.1981825196850391
0
LINE
8
BLACK
6
CONTINUOUS
10
7.084017086614173
20
-3.1981825196850391
11
7.0869107086614171
21
-3.1911967322834647
0
LINE
8
BLACK
6
CONTINUOUS
10
7.0869107086614171
20
-3.1911967322834647
11
7.0883858267716535
21
-3.1837806692913384
0
LINE
8
BLACK
6
CONTINUOUS
10
7.0883858267716535
20
-3.1837806692913384
11
7.0883858267716535
21
-3.1762193307086615
0
LINE
8
BLACK
6
CONTINUOUS
10
7.0883858267716535
20
-3.1762193307086615
11
7.0869107086614171
21
-3.1688032677165352
0
LINE
8
BLACK
6
CONTINUOUS
10
7.0869107086614171
20
-3.1688032677165352
11
7.084017086614173
21
-3.1618174803149603
0
LINE
8
BLACK
6
CONTINUOUS
10
7.084017086614173
20
-3.1618174803149603
11
7.0798162204724404
21
-3.155530433070866
0
LINE
8
BLACK
6
CONTINUOUS
10
7.0798162204724404
20
-3.155530433070866
11
7.0744695669291335
21
-3.1501837795275591
0
LINE
8
BLACK
6
CONTINUOUS
10
7.0744695669291335
20
-3.1501837795275591
11
7.0681825196850392
21
-3.1459829133858266
0
LINE
8
BLACK
6
CONTINUOUS
10
7.0681825196850392
20
-3.1459829133858266
11
7.0611967322834648
21
-3.1430892913385824
0
LINE
8
BLACK
6
CONTINUOUS
10
7.0611967322834648
20
-3.1430892913385824
11
7.0537806692913385
21
-3.1416141732283465
0
LINE
8
BLACK
6
CONTINUOUS
10
7.0537806692913385
20
-3.1416141732283465
11
7.0462193307086611
21
-3.1416141732283465
0
LINE
8
BLACK
6
CONTINUOUS
10
7.0462193307086611
20
-3.1416141732283465
11
7.0388032677165349
21
-3.1430892913385824
0
LINE
8
BLACK
6
CONTINUOUS
10
7.0388032677165349
20
-3.1430892913385824
11
7.0318174803149605
21
-3.1459829133858266
0
LINE
8
BLACK
6
CONTINUOUS
10
7.0318174803149605
20
-3.1459829133858266
11
7.0255304330708661
21
-3.1501837795275591
0
LINE
8
BLACK
6
CONTINUOUS
10
7.0255304330708661
20
-3.1501837795275591
11
7.0201837795275592
21
-3.155530433070866
0
LINE
8
BLACK
6
CONTINUOUS
10
7.0201837795275592
20
-3.155530433070866
11
7.0159829133858267
21
-3.1618174803149603
0
LINE
8
BLACK
6
CONTINUOUS
10
7.0159829133858267
20
-3.1618174803149603
11
7.0130892913385825
21
-3.1688032677165352
0
LINE
8
BLACK
6
CONTINUOUS
10
7.0130892913385825
20
-3.1688032677165352
11
7.0116141732283461
21
-3.1762193307086615
0
LINE
8
BLACK
6
CONTINUOUS
10
7.0116141732283461
20
-3.1762193307086615
11
7.0116141732283461
21
-3.1837806692913384
0
LINE
8
BLACK
6
CONTINUOUS
10
6.6177142519685042
20
-3.1173833070866142
11
6.6250229133858269
21
-3.1204106692913385
0
LINE
8
BLACK
6
CONTINUOUS
10
6.6250229133858269
20
-3.1204106692913385
11
6.6316005118110235
21
-3.1248056692913386
0
LINE
8
BLACK
6
CONTINUOUS
10
6.6316005118110235
20
-3.1248056692913386
11
6.6371943307086614
21
-3.1303994881889765
0
LINE
8
BLACK
6
CONTINUOUS
10
6.6371943307086614
20
-3.1303994881889765
11
6.6415893307086611
21
-3.1369770866141731
0
LINE
8
BLACK
6
CONTINUOUS
10
6.6415893307086611
20
-3.1369770866141731
11
6.6446166929133854
21
-3.1442857480314959
0
LINE
8
BLACK
6
CONTINUOUS
10
6.6446166929133854
20
-3.1442857480314959
11
6.6461600000000001
21
-3.1520445669291339
0
LINE
8
BLACK
6
CONTINUOUS
10
6.6461600000000001
20
-3.1520445669291339
11
6.6461600000000001
21
-3.1599554330708659
0
LINE
8
BLACK
6
CONTINUOUS
10
6.6461600000000001
20
-3.1599554330708659
11
6.6446166929133854
21
-3.167714251968504
0
LINE
8
BLACK
6
CONTINUOUS
10
6.6446166929133854
20
-3.167714251968504
11
6.6415893307086611
21
-3.1750229133858268
0
LINE
8
BLACK
6
CONTINUOUS
10
6.6415893307086611
20
-3.1750229133858268
11
6.6371943307086614
21
-3.1816005118110238
0
LINE
8
BLACK
6
CONTINUOUS
10
6.6371943307086614
20
-3.1816005118110238
11
6.6316005118110235
21
-3.1871943307086612
0
LINE
8
BLACK
6
CONTINUOUS
10
6.6316005118110235
20
-3.1871943307086612
11
6.6250229133858269
21
-3.1915893307086614
0
LINE
8
BLACK
6
CONTINUOUS
10
6.6250229133858269
20
-3.1915893307086614
11
6.6177142519685042
21
-3.1946166929133857
0
LINE
8
BLACK
6
CONTINUOUS
10
6.6177142519685042
20
-3.1946166929133857
11
6.6099554330708656
21
-3.1961599999999999
0
LINE
8
BLACK
6
CONTINUOUS
10
6.6099554330708656
20
-3.1961599999999999
11
6.6020445669291341
21
-3.1961599999999999
0
LINE
8
BLACK
6
CONTINUOUS
10
6.6020445669291341
20
-3.1961599999999999
11
6.5942857480314956
21
-3.1946166929133857
0
LINE
8
BLACK
6
CONTINUOUS
10
6.5942857480314956
20
-3.1946166929133857
11
6.5869770866141728
21
-3.1915893307086614
0
LINE
8
BLACK
6
CONTINUOUS
10
6.5869770866141728
20
-3.1915893307086614
11
6.5803994881889762
21
-3.1871943307086612
0
LINE
8
BLACK
6
CONTINUOUS
10
6.5803994881889762
20
-3.1871943307086612
11
6.5748056692913384
21
-3.1816005118110238
0
LINE
8
BLACK
6
CONTINUOUS
10
6.5748056692913384
20
-3.1816005118110238
11
6.5704106692913387
21
-3.1750229133858268
0
LINE
8
BLACK
6
CONTINUOUS
10
6.5704106692913387
20
-3.1750229133858268
11
6.5673833070866143
21
-3.167714251968504
0
LINE
8
BLACK
6
CONTINUOUS
10
6.5673833070866143
20
-3.167714251968504
11
6.5658399999999997
21
-3.1599554330708659
0
LINE
8
BLACK
6
CONTINUOUS
10
6.5658399999999997
20
-3.1599554330708659
11
6.5658399999999997
21
-3.1522193307086614
0
LINE
8
BLACK
6
CONTINUOUS
10
6.5658399999999997
20
-3.1522193307086614
11
6.5658399999999997
21
-3.1520445669291339
0
LINE
8
BLACK
6
CONTINUOUS
10
6.5658399999999997
20
-3.1520445669291339
11
6.5673833070866143
21
-3.1442857480314959
0
LINE
8
BLACK
6
CONTINUOUS
10
6.5673833070866143
20
-3.1442857480314959
11
6.5704106692913387
21
-3.1369770866141731
0
LINE
8
BLACK
6
CONTINUOUS
10
6.5704106692913387
20
-3.1369770866141731
11
6.5748056692913384
21
-3.1303994881889765
0
LINE
8
BLACK
6
CONTINUOUS
10
6.5748056692913384
20
-3.1303994881889765
11
6.5803994881889762
21
-3.1248056692913386
0
LINE
8
BLACK
6
CONTINUOUS
10
6.5803994881889762
20
-3.1248056692913386
11
6.5869770866141728
21
-3.1204106692913385
0
LINE
8
BLACK
6
CONTINUOUS
10
6.5869770866141728
20
-3.1204106692913385
11
6.5942857480314956
21
-3.1173833070866142
0
LINE
8
BLACK
6
CONTINUOUS
10
6.5942857480314956
20
-3.1173833070866142
11
6.6020445669291341
21
-3.1158399999999999
0
LINE
8
BLACK
6
CONTINUOUS
10
6.6020445669291341
20
-3.1158399999999999
11
6.6099554330708656
21
-3.1158399999999999
0
LINE
8
BLACK
6
CONTINUOUS
10
6.6099554330708656
20
-3.1158399999999999
11
6.6177142519685042
21
-3.1173833070866142
0
LINE
8
BLACK
6
CONTINUOUS
10
6.5676141732283462
20
-3.1597806692913384
11
6.5690892913385825
21
-3.1671967322834647
0
LINE
8
BLACK
6
CONTINUOUS
10
6.5690892913385825
20
-3.1671967322834647
11
6.5719829133858267
21
-3.1741825196850395
0
LINE
8
BLACK
6
CONTINUOUS
10
6.5719829133858267
20
-3.1741825196850395
11
6.5761837795275593
21
-3.1804695669291339
0
LINE
8
BLACK
6
CONTINUOUS
10
6.5761837795275593
20
-3.1804695669291339
11
6.5815304330708662
21
-3.1858162204724407
0
LINE
8
BLACK
6
CONTINUOUS
10
6.5815304330708662
20
-3.1858162204724407
11
6.5878174803149605
21
-3.1900170866141733
0
LINE
8
BLACK
6
CONTINUOUS
10
6.5878174803149605
20
-3.1900170866141733
11
6.5948032677165349
21
-3.1929107086614175
0
LINE
8
BLACK
6
CONTINUOUS
10
6.5948032677165349
20
-3.1929107086614175
11
6.6022193307086612
21
-3.1943858267716534
0
LINE
8
BLACK
6
CONTINUOUS
10
6.6022193307086612
20
-3.1943858267716534
11
6.6097806692913386
21
-3.1943858267716534
0
LINE
8
BLACK
6
CONTINUOUS
10
6.6097806692913386
20
-3.1943858267716534
11
6.6171967322834648
21
-3.1929107086614175
0
LINE
8
BLACK
6
CONTINUOUS
10
6.6171967322834648
20
-3.1929107086614175
11
6.6241825196850392
21
-3.1900170866141733
0
LINE
8
BLACK
6
CONTINUOUS
10
6.6241825196850392
20
-3.1900170866141733
11
6.6304695669291336
21
-3.1858162204724407
0
LINE
8
BLACK
6
CONTINUOUS
10
6.6304695669291336
20
-3.1858162204724407
11
6.6358162204724405
21
-3.1804695669291339
0
LINE
8
BLACK
6
CONTINUOUS
10
6.6358162204724405
20
-3.1804695669291339
11
6.640017086614173
21
-3.1741825196850395
0
LINE
8
BLACK
6
CONTINUOUS
10
6.640017086614173
20
-3.1741825196850395
11
6.6429107086614172
21
-3.1671967322834647
0
LINE
8
BLACK
6
CONTINUOUS
10
6.6429107086614172
20
-3.1671967322834647
11
6.6443858267716536
21
-3.1597806692913384
0
LINE
8
BLACK
6
CONTINUOUS
10
6.6443858267716536
20
-3.1597806692913384
11
6.6443858267716536
21
-3.1522193307086614
0
LINE
8
BLACK
6
CONTINUOUS
10
6.6443858267716536
20
-3.1522193307086614
11
6.6429107086614172
21
-3.1448032677165352
0
LINE
8
BLACK
6
CONTINUOUS
10
6.6429107086614172
20
-3.1448032677165352
11
6.640017086614173
21
-3.1378174803149608
0
LINE
8
BLACK
6
CONTINUOUS
10
6.640017086614173
20
-3.1378174803149608
11
6.6358162204724405
21
-3.131530433070866
0
LINE
8
BLACK
6
CONTINUOUS
10
6.6358162204724405
20
-3.131530433070866
11
6.6304695669291336
21
-3.1261837795275591
0
LINE
8
BLACK
6
CONTINUOUS
10
6.6304695669291336
20
-3.1261837795275591
11
6.6241825196850392
21
-3.1219829133858266
0
LINE
8
BLACK
6
CONTINUOUS
10
6.6241825196850392
20
-3.1219829133858266
11
6.6171967322834648
21
-3.1190892913385828
0
LINE
8
BLACK
6
CONTINUOUS
10
6.6171967322834648
20
-3.1190892913385828
11
6.6097806692913386
21
-3.1176141732283464
0
LINE
8
BLACK
6
CONTINUOUS
10
6.6097806692913386
20
-3.1176141732283464
11
6.6022193307086612
21
-3.1176141732283464
0
LINE
8
BLACK
6
CONTINUOUS
10
6.6022193307086612
20
-3.1176141732283464
11
6.5948032677165349
21
-3.1190892913385828
0
LINE
8
BLACK
6
CONTINUOUS
10
6.5948032677165349
20
-3.1190892913385828
11
6.5878174803149605
21
-3.1219829133858266
0
LINE
8
BLACK
6
CONTINUOUS
10
6.5878174803149605
20
-3.1219829133858266
11
6.5815304330708662
21
-3.1261837795275591
0
LINE
8
BLACK
6
CONTINUOUS
10
6.5815304330708662
20
-3.1261837795275591
11
6.5761837795275593
21
-3.131530433070866
0
LINE
8
BLACK
6
CONTINUOUS
10
6.5761837795275593
20
-3.131530433070866
11
6.5719829133858267
21
-3.1378174803149608
0
LINE
8
BLACK
6
CONTINUOUS
10
6.5719829133858267
20
-3.1378174803149608
11
6.5690892913385825
21
-3.1448032677165352
0
LINE
8
BLACK
6
CONTINUOUS
10
6.5690892913385825
20
-3.1448032677165352
11
6.5676141732283462
21
-3.1522193307086614
0
LINE
8
BLACK
6
CONTINUOUS
10
6.5676141732283462
20
-3.1522193307086614
11
6.5676141732283462
21
-3.1597806692913384
0
LINE
8
BLACK
6
CONTINUOUS
10
6.8417142519685035
20
-3.0513833070866143
11
6.8490229133858263
21
-3.0544106692913386
0
LINE
8
BLACK
6
CONTINUOUS
10
6.8490229133858263
20
-3.0544106692913386
11
6.8556005118110237
21
-3.0588056692913383
0
LINE
8
BLACK
6
CONTINUOUS
10
6.8556005118110237
20
-3.0588056692913383
11
6.8611943307086616
21
-3.0643994881889762
0
LINE
8
BLACK
6
CONTINUOUS
10
6.8611943307086616
20
-3.0643994881889762
11
6.8655893307086613
21
-3.0709770866141732
0
LINE
8
BLACK
6
CONTINUOUS
10
6.8655893307086613
20
-3.0709770866141732
11
6.8686166929133856
21
-3.078285748031496
0
LINE
8
BLACK
6
CONTINUOUS
10
6.8686166929133856
20
-3.078285748031496
11
6.8701600000000003
21
-3.0860445669291336
0
LINE
8
BLACK
6
CONTINUOUS
10
6.8701600000000003
20
-3.0860445669291336
11
6.8701600000000003
21
-3.0939554330708661
0
LINE
8
BLACK
6
CONTINUOUS
10
6.8701600000000003
20
-3.0939554330708661
11
6.8686166929133856
21
-3.1017142519685037
0
LINE
8
BLACK
6
CONTINUOUS
10
6.8686166929133856
20
-3.1017142519685037
11
6.8655893307086613
21
-3.1090229133858265
0
LINE
8
BLACK
6
CONTINUOUS
10
6.8655893307086613
20
-3.1090229133858265
11
6.8611943307086616
21
-3.1156005118110235
0
LINE
8
BLACK
6
CONTINUOUS
10
6.8611943307086616
20
-3.1156005118110235
11
6.8556005118110237
21
-3.1211943307086614
0
LINE
8
BLACK
6
CONTINUOUS
10
6.8556005118110237
20
-3.1211943307086614
11
6.8490229133858263
21
-3.1255893307086615
0
LINE
8
BLACK
6
CONTINUOUS
10
6.8490229133858263
20
-3.1255893307086615
11
6.8417142519685035
21
-3.1286166929133858
0
LINE
8
BLACK
6
CONTINUOUS
10
6.8417142519685035
20
-3.1286166929133858
11
6.8339554330708658
21
-3.1301600000000001
0
LINE
8
BLACK
6
CONTINUOUS
10
6.8339554330708658
20
-3.1301600000000001
11
6.8260445669291334
21
-3.1301600000000001
0
LINE
8
BLACK
6
CONTINUOUS
10
6.8260445669291334
20
-3.1301600000000001
11
6.8182857480314958
21
-3.1286166929133858
0
LINE
8
BLACK
6
CONTINUOUS
10
6.8182857480314958
20
-3.1286166929133858
11
6.810977086614173
21
-3.1255893307086615
0
LINE
8
BLACK
6
CONTINUOUS
10
6.810977086614173
20
-3.1255893307086615
11
6.8043994881889764
21
-3.1211943307086614
0
LINE
8
BLACK
6
CONTINUOUS
10
6.8043994881889764
20
-3.1211943307086614
11
6.7988056692913386
21
-3.1156005118110235
0
LINE
8
BLACK
6
CONTINUOUS
10
6.7988056692913386
20
-3.1156005118110235
11
6.7944106692913389
21
-3.1090229133858265
0
LINE
8
BLACK
6
CONTINUOUS
10
6.7944106692913389
20
-3.1090229133858265
11
6.7913833070866136
21
-3.1017142519685037
0
LINE
8
BLACK
6
CONTINUOUS
10
6.7913833070866136
20
-3.1017142519685037
11
6.7898399999999999
21
-3.0939554330708661
0
LINE
8
BLACK
6
CONTINUOUS
10
6.7898399999999999
20
-3.0939554330708661
11
6.7898399999999999
21
-3.0862193307086612
0
LINE
8
BLACK
6
CONTINUOUS
10
6.7898399999999999
20
-3.0862193307086612
11
6.7898399999999999
21
-3.0860445669291336
0
LINE
8
BLACK
6
CONTINUOUS
10
6.7898399999999999
20
-3.0860445669291336
11
6.7913833070866136
21
-3.078285748031496
0
LINE
8
BLACK
6
CONTINUOUS
10
6.7913833070866136
20
-3.078285748031496
11
6.7944106692913389
21
-3.0709770866141732
0
LINE
8
BLACK
6
CONTINUOUS
10
6.7944106692913389
20
-3.0709770866141732
11
6.7988056692913386
21
-3.0643994881889762
0
LINE
8
BLACK
6
CONTINUOUS
10
6.7988056692913386
20
-3.0643994881889762
11
6.8043994881889764
21
-3.0588056692913383
0
LINE
8
BLACK
6
CONTINUOUS
10
6.8043994881889764
20
-3.0588056692913383
11
6.810977086614173
21
-3.0544106692913386
0
LINE
8
BLACK
6
CONTINUOUS
10
6.810977086614173
20
-3.0544106692913386
11
6.8182857480314958
21
-3.0513833070866143
0
LINE
8
BLACK
6
CONTINUOUS
10
6.8182857480314958
20
-3.0513833070866143
11
6.8260445669291334
21
-3.0498400000000001
0
LINE
8
BLACK
6
CONTINUOUS
10
6.8260445669291334
20
-3.0498400000000001
11
6.8339554330708658
21
-3.0498400000000001
0
LINE
8
BLACK
6
CONTINUOUS
10
6.8339554330708658
20
-3.0498400000000001
11
6.8417142519685035
21
-3.0513833070866143
0
LINE
8
BLACK
6
CONTINUOUS
10
6.7916141732283464
20
-3.0937806692913385
11
6.7930892913385827
21
-3.1011967322834644
0
LINE
8
BLACK
6
CONTINUOUS
10
6.7930892913385827
20
-3.1011967322834644
11
6.7959829133858269
21
-3.1081825196850392
0
LINE
8
BLACK
6
CONTINUOUS
10
6.7959829133858269
20
-3.1081825196850392
11
6.8001837795275586
21
-3.1144695669291336
0
LINE
8
BLACK
6
CONTINUOUS
10
6.8001837795275586
20
-3.1144695669291336
11
6.8055304330708664
21
-3.1198162204724409
0
LINE
8
BLACK
6
CONTINUOUS
10
6.8055304330708664
20
-3.1198162204724409
11
6.8118174803149607
21
-3.124017086614173
0
LINE
8
BLACK
6
CONTINUOUS
10
6.8118174803149607
20
-3.124017086614173
11
6.8188032677165351
21
-3.1269107086614172
0
LINE
8
BLACK
6
CONTINUOUS
10
6.8188032677165351
20
-3.1269107086614172
11
6.8262193307086614
21
-3.1283858267716536
0
LINE
8
BLACK
6
CONTINUOUS
10
6.8262193307086614
20
-3.1283858267716536
11
6.8337806692913388
21
-3.1283858267716536
0
LINE
8
BLACK
6
CONTINUOUS
10
6.8337806692913388
20
-3.1283858267716536
11
6.8411967322834641
21
-3.1269107086614172
0
LINE
8
BLACK
6
CONTINUOUS
10
6.8411967322834641
20
-3.1269107086614172
11
6.8481825196850394
21
-3.124017086614173
0
LINE
8
BLACK
6
CONTINUOUS
10
6.8481825196850394
20
-3.124017086614173
11
6.8544695669291338
21
-3.1198162204724409
0
LINE
8
BLACK
6
CONTINUOUS
10
6.8544695669291338
20
-3.1198162204724409
11
6.8598162204724407
21
-3.1144695669291336
0
LINE
8
BLACK
6
CONTINUOUS
10
6.8598162204724407
20
-3.1144695669291336
11
6.8640170866141732
21
-3.1081825196850392
0
LINE
8
BLACK
6
CONTINUOUS
10
6.8640170866141732
20
-3.1081825196850392
11
6.8669107086614174
21
-3.1011967322834644
0
LINE
8
BLACK
6
CONTINUOUS
10
6.8669107086614174
20
-3.1011967322834644
11
6.8683858267716538
21
-3.0937806692913385
0
LINE
8
BLACK
6
CONTINUOUS
10
6.8683858267716538
20
-3.0937806692913385
11
6.8683858267716538
21
-3.0862193307086612
0
LINE
8
BLACK
6
CONTINUOUS
10
6.8683858267716538
20
-3.0862193307086612
11
6.8669107086614174
21
-3.0788032677165353
0
LINE
8
BLACK
6
CONTINUOUS
10
6.8669107086614174
20
-3.0788032677165353
11
6.8640170866141732
21
-3.0718174803149605
0
LINE
8
BLACK
6
CONTINUOUS
10
6.8640170866141732
20
-3.0718174803149605
11
6.8598162204724407
21
-3.0655304330708661
0
LINE
8
BLACK
6
CONTINUOUS
10
6.8598162204724407
20
-3.0655304330708661
11
6.8544695669291338
21
-3.0601837795275588
0
LINE
8
BLACK
6
CONTINUOUS
10
6.8544695669291338
20
-3.0601837795275588
11
6.8481825196850394
21
-3.0559829133858267
0
LINE
8
BLACK
6
CONTINUOUS
10
6.8481825196850394
20
-3.0559829133858267
11
6.8411967322834641
21
-3.0530892913385825
0
LINE
8
BLACK
6
CONTINUOUS
10
6.8411967322834641
20
-3.0530892913385825
11
6.8337806692913388
21
-3.0516141732283466
0
LINE
8
BLACK
6
CONTINUOUS
10
6.8337806692913388
20
-3.0516141732283466
11
6.8262193307086614
21
-3.0516141732283466
0
LINE
8
BLACK
6
CONTINUOUS
10
6.8262193307086614
20
-3.0516141732283466
11
6.8188032677165351
21
-3.0530892913385825
0
LINE
8
BLACK
6
CONTINUOUS
10
6.8188032677165351
20
-3.0530892913385825
11
6.8118174803149607
21
-3.0559829133858267
0
LINE
8
BLACK
6
CONTINUOUS
10
6.8118174803149607
20
-3.0559829133858267
11
6.8055304330708664
21
-3.0601837795275588
0
LINE
8
BLACK
6
CONTINUOUS
10
6.8055304330708664
20
-3.0601837795275588
11
6.8001837795275586
21
-3.0655304330708661
0
LINE
8
BLACK
6
CONTINUOUS
10
6.8001837795275586
20
-3.0655304330708661
11
6.7959829133858269
21
-3.0718174803149605
0
LINE
8
BLACK
6
CONTINUOUS
10
6.7959829133858269
20
-3.0718174803149605
11
6.7930892913385827
21
-3.0788032677165353
0
LINE
8
BLACK
6
CONTINUOUS
10
6.7930892913385827
20
-3.0788032677165353
11
6.7916141732283464
21
-3.0862193307086612
0
LINE
8
BLACK
6
CONTINUOUS
10
6.7916141732283464
20
-3.0862193307086612
11
6.7916141732283464
21
-3.0937806692913385
0
LINE
8
BLACK
6
CONTINUOUS
10
6.4797142519685034
20
-2.719383307086614
11
6.487022913385827
21
-2.7224106692913383
0
LINE
8
BLACK
6
CONTINUOUS
10
6.487022913385827
20
-2.7224106692913383
11
6.4936005118110236
21
-2.7268056692913385
0
LINE
8
BLACK
6
CONTINUOUS
10
6.4936005118110236
20
-2.7268056692913385
11
6.4991943307086615
21
-2.7323994881889764
0
LINE
8
BLACK
6
CONTINUOUS
10
6.4991943307086615
20
-2.7323994881889764
11
6.5035893307086612
21
-2.7389770866141734
0
LINE
8
BLACK
6
CONTINUOUS
10
6.5035893307086612
20
-2.7389770866141734
11
6.5066166929133855
21
-2.7462857480314962
0
LINE
8
BLACK
6
CONTINUOUS
10
6.5066166929133855
20
-2.7462857480314962
11
6.5081600000000002
21
-2.7540445669291338
0
LINE
8
BLACK
6
CONTINUOUS
10
6.5081600000000002
20
-2.7540445669291338
11
6.5081600000000002
21
-2.7619554330708662
0
LINE
8
BLACK
6
CONTINUOUS
10
6.5081600000000002
20
-2.7619554330708662
11
6.5066166929133855
21
-2.7697142519685038
0
LINE
8
BLACK
6
CONTINUOUS
10
6.5066166929133855
20
-2.7697142519685038
11
6.5035893307086612
21
-2.7770229133858266
0
LINE
8
BLACK
6
CONTINUOUS
10
6.5035893307086612
20
-2.7770229133858266
11
6.4991943307086615
21
-2.7836005118110236
0
LINE
8
BLACK
6
CONTINUOUS
10
6.4991943307086615
20
-2.7836005118110236
11
6.4936005118110236
21
-2.7891943307086615
0
LINE
8
BLACK
6
CONTINUOUS
10
6.4936005118110236
20
-2.7891943307086615
11
6.487022913385827
21
-2.7935893307086612
0
LINE
8
BLACK
6
CONTINUOUS
10
6.487022913385827
20
-2.7935893307086612
11
6.4797142519685034
21
-2.7966166929133855
0
LINE
8
BLACK
6
CONTINUOUS
10
6.4797142519685034
20
-2.7966166929133855
11
6.4719554330708657
21
-2.7981599999999998
0
LINE
8
BLACK
6
CONTINUOUS
10
6.4719554330708657
20
-2.7981599999999998
11
6.4640445669291333
21
-2.7981599999999998
0
LINE
8
BLACK
6
CONTINUOUS
10
6.4640445669291333
20
-2.7981599999999998
11
6.4562857480314957
21
-2.7966166929133855
0
LINE
8
BLACK
6
CONTINUOUS
10
6.4562857480314957
20
-2.7966166929133855
11
6.4489770866141729
21
-2.7935893307086612
0
LINE
8
BLACK
6
CONTINUOUS
10
6.4489770866141729
20
-2.7935893307086612
11
6.4423994881889763
21
-2.7891943307086615
0
LINE
8
BLACK
6
CONTINUOUS
10
6.4423994881889763
20
-2.7891943307086615
11
6.4368056692913385
21
-2.7836005118110236
0
LINE
8
BLACK
6
CONTINUOUS
10
6.4368056692913385
20
-2.7836005118110236
11
6.4324106692913388
21
-2.7770229133858266
0
LINE
8
BLACK
6
CONTINUOUS
10
6.4324106692913388
20
-2.7770229133858266
11
6.4293833070866144
21
-2.7697142519685038
0
LINE
8
BLACK
6
CONTINUOUS
10
6.4293833070866144
20
-2.7697142519685038
11
6.4278399999999998
21
-2.7619554330708662
0
LINE
8
BLACK
6
CONTINUOUS
10
6.4278399999999998
20
-2.7619554330708662
11
6.4278399999999998
21
-2.7542193307086613
0
LINE
8
BLACK
6
CONTINUOUS
10
6.4278399999999998
20
-2.7542193307086613
11
6.4278399999999998
21
-2.7540445669291338
0
LINE
8
BLACK
6
CONTINUOUS
10
6.4278399999999998
20
-2.7540445669291338
11
6.4293833070866144
21
-2.7462857480314962
0
LINE
8
BLACK
6
CONTINUOUS
10
6.4293833070866144
20
-2.7462857480314962
11
6.4324106692913388
21
-2.7389770866141734
0
LINE
8
BLACK
6
CONTINUOUS
10
6.4324106692913388
20
-2.7389770866141734
11
6.4368056692913385
21
-2.7323994881889764
0
LINE
8
BLACK
6
CONTINUOUS
10
6.4368056692913385
20
-2.7323994881889764
11
6.4423994881889763
21
-2.7268056692913385
0
LINE
8
BLACK
6
CONTINUOUS
10
6.4423994881889763
20
-2.7268056692913385
11
6.4489770866141729
21
-2.7224106692913383
0
LINE
8
BLACK
6
CONTINUOUS
10
6.4489770866141729
20
-2.7224106692913383
11
6.4562857480314957
21
-2.719383307086614
0
LINE
8
BLACK
6
CONTINUOUS
10
6.4562857480314957
20
-2.719383307086614
11
6.4640445669291333
21
-2.7178399999999998
0
LINE
8
BLACK
6
CONTINUOUS
10
6.4640445669291333
20
-2.7178399999999998
11
6.4719554330708657
21
-2.7178399999999998
0
LINE
8
BLACK
6
CONTINUOUS
10
6.4719554330708657
20
-2.7178399999999998
11
6.4797142519685034
21
-2.719383307086614
0
LINE
8
BLACK
6
CONTINUOUS
10
6.4296141732283463
20
-2.7617806692913387
11
6.4310892913385826
21
-2.7691967322834645
0
LINE
8
BLACK
6
CONTINUOUS
10
6.4310892913385826
20
-2.7691967322834645
11
6.4339829133858268
21
-2.7761825196850394
0
LINE
8
BLACK
6
CONTINUOUS
10
6.4339829133858268
20
-2.7761825196850394
11
6.4381837795275585
21
-2.7824695669291337
0
LINE
8
BLACK
6
CONTINUOUS
10
6.4381837795275585
20
-2.7824695669291337
11
6.4435304330708663
21
-2.787816220472441
0
LINE
8
BLACK
6
CONTINUOUS
10
6.4435304330708663
20
-2.787816220472441
11
6.4498174803149606
21
-2.7920170866141731
0
LINE
8
BLACK
6
CONTINUOUS
10
6.4498174803149606
20
-2.7920170866141731
11
6.456803267716535
21
-2.7949107086614173
0
LINE
8
BLACK
6
CONTINUOUS
10
6.456803267716535
20
-2.7949107086614173
11
6.4642193307086613
21
-2.7963858267716533
0
LINE
8
BLACK
6
CONTINUOUS
10
6.4642193307086613
20
-2.7963858267716533
11
6.4717806692913387
21
-2.7963858267716533
0
LINE
8
BLACK
6
CONTINUOUS
10
6.4717806692913387
20
-2.7963858267716533
11
6.479196732283464
21
-2.7949107086614173
0
LINE
8
BLACK
6
CONTINUOUS
10
6.479196732283464
20
-2.7949107086614173
11
6.4861825196850393
21
-2.7920170866141731
0
LINE
8
BLACK
6
CONTINUOUS
10
6.4861825196850393
20
-2.7920170866141731
11
6.4924695669291337
21
-2.787816220472441
0
LINE
8
BLACK
6
CONTINUOUS
10
6.4924695669291337
20
-2.787816220472441
11
6.4978162204724406
21
-2.7824695669291337
0
LINE
8
BLACK
6
CONTINUOUS
10
6.4978162204724406
20
-2.7824695669291337
11
6.5020170866141731
21
-2.7761825196850394
0
LINE
8
BLACK
6
CONTINUOUS
10
6.5020170866141731
20
-2.7761825196850394
11
6.5049107086614173
21
-2.7691967322834645
0
LINE
8
BLACK
6
CONTINUOUS
10
6.5049107086614173
20
-2.7691967322834645
11
6.5063858267716537
21
-2.7617806692913387
0
LINE
8
BLACK
6
CONTINUOUS
10
6.5063858267716537
20
-2.7617806692913387
11
6.5063858267716537
21
-2.7542193307086613
0
LINE
8
BLACK
6
CONTINUOUS
10
6.5063858267716537
20
-2.7542193307086613
11
6.5049107086614173
21
-2.7468032677165355
0
LINE
8
BLACK
6
CONTINUOUS
10
6.5049107086614173
20
-2.7468032677165355
11
6.5020170866141731
21
-2.7398174803149606
0
LINE
8
BLACK
6
CONTINUOUS
10
6.5020170866141731
20
-2.7398174803149606
11
6.4978162204724406
21
-2.7335304330708663
0
LINE
8
BLACK
6
CONTINUOUS
10
6.4978162204724406
20
-2.7335304330708663
11
6.4924695669291337
21
-2.728183779527559
0
LINE
8
BLACK
6
CONTINUOUS
10
6.4924695669291337
20
-2.728183779527559
11
6.4861825196850393
21
-2.7239829133858269
0
LINE
8
BLACK
6
CONTINUOUS
10
6.4861825196850393
20
-2.7239829133858269
11
6.479196732283464
21
-2.7210892913385827
0
LINE
8
BLACK
6
CONTINUOUS
10
6.479196732283464
20
-2.7210892913385827
11
6.4717806692913387
21
-2.7196141732283463
0
LINE
8
BLACK
6
CONTINUOUS
10
6.4717806692913387
20
-2.7196141732283463
11
6.4642193307086613
21
-2.7196141732283463
0
LINE
8
BLACK
6
CONTINUOUS
10
6.4642193307086613
20
-2.7196141732283463
11
6.456803267716535
21
-2.7210892913385827
0
LINE
8
BLACK
6
CONTINUOUS
10
6.456803267716535
20
-2.7210892913385827
11
6.4498174803149606
21
-2.7239829133858269
0
LINE
8
BLACK
6
CONTINUOUS
10
6.4498174803149606
20
-2.7239829133858269
11
6.4435304330708663
21
-2.728183779527559
0
LINE
8
BLACK
6
CONTINUOUS
10
6.4435304330708663
20
-2.728183779527559
11
6.4381837795275585
21
-2.7335304330708663
0
LINE
8
BLACK
6
CONTINUOUS
10
6.4381837795275585
20
-2.7335304330708663
11
6.4339829133858268
21
-2.7398174803149606
0
LINE
8
BLACK
6
CONTINUOUS
10
6.4339829133858268
20
-2.7398174803149606
11
6.4310892913385826
21
-2.7468032677165355
0
LINE
8
BLACK
6
CONTINUOUS
10
6.4310892913385826
20
-2.7468032677165355
11
6.4296141732283463
21
-2.7542193307086613
0
LINE
8
BLACK
6
CONTINUOUS
10
6.4296141732283463
20
-2.7542193307086613
11
6.4296141732283463
21
-2.7617806692913387
0
LINE
8
BLACK
6
CONTINUOUS
10
6.0547142519685035
20
-2.7183833070866141
11
6.0620229133858263
21
-2.7214106692913385
0
LINE
8
BLACK
6
CONTINUOUS
10
6.0620229133858263
20
-2.7214106692913385
11
6.0686005118110238
21
-2.7258056692913386
0
LINE
8
BLACK
6
CONTINUOUS
10
6.0686005118110238
20
-2.7258056692913386
11
6.0741943307086617
21
-2.7313994881889765
0
LINE
8
BLACK
6
CONTINUOUS
10
6.0741943307086617
20
-2.7313994881889765
11
6.0785893307086614
21
-2.7379770866141731
0
LINE
8
BLACK
6
CONTINUOUS
10
6.0785893307086614
20
-2.7379770866141731
11
6.0816166929133857
21
-2.7452857480314958
0
LINE
8
BLACK
6
CONTINUOUS
10
6.0816166929133857
20
-2.7452857480314958
11
6.0831599999999995
21
-2.7530445669291339
0
LINE
8
BLACK
6
CONTINUOUS
10
6.0831599999999995
20
-2.7530445669291339
11
6.0831599999999995
21
-2.7609554330708659
0
LINE
8
BLACK
6
CONTINUOUS
10
6.0831599999999995
20
-2.7609554330708659
11
6.0816166929133857
21
-2.768714251968504
0
LINE
8
BLACK
6
CONTINUOUS
10
6.0816166929133857
20
-2.768714251968504
11
6.0785893307086614
21
-2.7760229133858267
0
LINE
8
BLACK
6
CONTINUOUS
10
6.0785893307086614
20
-2.7760229133858267
11
6.0741943307086617
21
-2.7826005118110237
0
LINE
8
BLACK
6
CONTINUOUS
10
6.0741943307086617
20
-2.7826005118110237
11
6.0686005118110238
21
-2.7881943307086612
0
LINE
8
BLACK
6
CONTINUOUS
10
6.0686005118110238
20
-2.7881943307086612
11
6.0620229133858263
21
-2.7925893307086613
0
LINE
8
BLACK
6
CONTINUOUS
10
6.0620229133858263
20
-2.7925893307086613
11
6.0547142519685035
21
-2.7956166929133857
0
LINE
8
BLACK
6
CONTINUOUS
10
6.0547142519685035
20
-2.7956166929133857
11
6.0469554330708659
21
-2.7971599999999999
0
LINE
8
BLACK
6
CONTINUOUS
10
6.0469554330708659
20
-2.7971599999999999
11
6.0390445669291335
21
-2.7971599999999999
0
LINE
8
BLACK
6
CONTINUOUS
10
6.0390445669291335
20
-2.7971599999999999
11
6.0312857480314959
21
-2.7956166929133857
0
LINE
8
BLACK
6
CONTINUOUS
10
6.0312857480314959
20
-2.7956166929133857
11
6.0239770866141731
21
-2.7925893307086613
0
LINE
8
BLACK
6
CONTINUOUS
10
6.0239770866141731
20
-2.7925893307086613
11
6.0173994881889765
21
-2.7881943307086612
0
LINE
8
BLACK
6
CONTINUOUS
10
6.0173994881889765
20
-2.7881943307086612
11
6.0118056692913386
21
-2.7826005118110237
0
LINE
8
BLACK
6
CONTINUOUS
10
6.0118056692913386
20
-2.7826005118110237
11
6.007410669291338
21
-2.7760229133858267
0
LINE
8
BLACK
6
CONTINUOUS
10
6.007410669291338
20
-2.7760229133858267
11
6.0043833070866137
21
-2.768714251968504
0
LINE
8
BLACK
6
CONTINUOUS
10
6.0043833070866137
20
-2.768714251968504
11
6.00284
21
-2.7609554330708659
0
LINE
8
BLACK
6
CONTINUOUS
10
6.00284
20
-2.7609554330708659
11
6.00284
21
-2.7532193307086614
0
LINE
8
BLACK
6
CONTINUOUS
10
6.00284
20
-2.7532193307086614
11
6.00284
21
-2.7530445669291339
0
LINE
8
BLACK
6
CONTINUOUS
10
6.00284
20
-2.7530445669291339
11
6.0043833070866137
21
-2.7452857480314958
0
LINE
8
BLACK
6
CONTINUOUS
10
6.0043833070866137
20
-2.7452857480314958
11
6.007410669291338
21
-2.7379770866141731
0
LINE
8
BLACK
6
CONTINUOUS
10
6.007410669291338
20
-2.7379770866141731
11
6.0118056692913386
21
-2.7313994881889765
0
LINE
8
BLACK
6
CONTINUOUS
10
6.0118056692913386
20
-2.7313994881889765
11
6.0173994881889765
21
-2.7258056692913386
0
LINE
8
BLACK
6
CONTINUOUS
10
6.0173994881889765
20
-2.7258056692913386
11
6.0239770866141731
21
-2.7214106692913385
0
LINE
8
BLACK
6
CONTINUOUS
10
6.0239770866141731
20
-2.7214106692913385
11
6.0312857480314959
21
-2.7183833070866141
0
LINE
8
BLACK
6
CONTINUOUS
10
6.0312857480314959
20
-2.7183833070866141
11
6.0390445669291335
21
-2.7168399999999999
0
LINE
8
BLACK
6
CONTINUOUS
10
6.0390445669291335
20
-2.7168399999999999
11
6.0469554330708659
21
-2.7168399999999999
0
LINE
8
BLACK
6
CONTINUOUS
10
6.0469554330708659
20
-2.7168399999999999
11
6.0547142519685035
21
-2.7183833070866141
0
LINE
8
BLACK
6
CONTINUOUS
10
6.0046141732283465
20
-2.7607806692913384
11
6.0060892913385828
21
-2.7681967322834646
0
LINE
8
BLACK
6
CONTINUOUS
10
6.0060892913385828
20
-2.7681967322834646
11
6.008982913385827
21
-2.7751825196850395
0
LINE
8
BLACK
6
CONTINUOUS
10
6.008982913385827
20
-2.7751825196850395
11
6.0131837795275587
21
-2.7814695669291338
0
LINE
8
BLACK
6
CONTINUOUS
10
6.0131837795275587
20
-2.7814695669291338
11
6.0185304330708664
21
-2.7868162204724407
0
LINE
8
BLACK
6
CONTINUOUS
10
6.0185304330708664
20
-2.7868162204724407
11
6.0248174803149608
21
-2.7910170866141732
0
LINE
8
BLACK
6
CONTINUOUS
10
6.0248174803149608
20
-2.7910170866141732
11
6.0318032677165352
21
-2.7939107086614174
0
LINE
8
BLACK
6
CONTINUOUS
10
6.0318032677165352
20
-2.7939107086614174
11
6.0392193307086615
21
-2.7953858267716534
0
LINE
8
BLACK
6
CONTINUOUS
10
6.0392193307086615
20
-2.7953858267716534
11
6.0467806692913388
21
-2.7953858267716534
0
LINE
8
BLACK
6
CONTINUOUS
10
6.0467806692913388
20
-2.7953858267716534
11
6.0541967322834642
21
-2.7939107086614174
0
LINE
8
BLACK
6
CONTINUOUS
10
6.0541967322834642
20
-2.7939107086614174
11
6.0611825196850395
21
-2.7910170866141732
0
LINE
8
BLACK
6
CONTINUOUS
10
6.0611825196850395
20
-2.7910170866141732
11
6.0674695669291339
21
-2.7868162204724407
0
LINE
8
BLACK
6
CONTINUOUS
10
6.0674695669291339
20
-2.7868162204724407
11
6.0728162204724407
21
-2.7814695669291338
0
LINE
8
BLACK
6
CONTINUOUS
10
6.0728162204724407
20
-2.7814695669291338
11
6.0770170866141733
21
-2.7751825196850395
0
LINE
8
BLACK
6
CONTINUOUS
10
6.0770170866141733
20
-2.7751825196850395
11
6.0799107086614175
21
-2.7681967322834646
0
LINE
8
BLACK
6
CONTINUOUS
10
6.0799107086614175
20
-2.7681967322834646
11
6.0813858267716538
21
-2.7607806692913384
0
LINE
8
BLACK
6
CONTINUOUS
10
6.0813858267716538
20
-2.7607806692913384
11
6.0813858267716538
21
-2.7532193307086614
0
LINE
8
BLACK
6
CONTINUOUS
10
6.0813858267716538
20
-2.7532193307086614
11
6.0799107086614175
21
-2.7458032677165352
0
LINE
8
BLACK
6
CONTINUOUS
10
6.0799107086614175
20
-2.7458032677165352
11
6.0770170866141733
21
-2.7388174803149608
0
LINE
8
BLACK
6
CONTINUOUS
10
6.0770170866141733
20
-2.7388174803149608
11
6.0728162204724407
21
-2.732530433070866
0
LINE
8
BLACK
6
CONTINUOUS
10
6.0728162204724407
20
-2.732530433070866
11
6.0674695669291339
21
-2.7271837795275591
0
LINE
8
BLACK
6
CONTINUOUS
10
6.0674695669291339
20
-2.7271837795275591
11
6.0611825196850395
21
-2.7229829133858265
0
LINE
8
BLACK
6
CONTINUOUS
10
6.0611825196850395
20
-2.7229829133858265
11
6.0541967322834642
21
-2.7200892913385828
0
LINE
8
BLACK
6
CONTINUOUS
10
6.0541967322834642
20
-2.7200892913385828
11
6.0467806692913388
21
-2.7186141732283464
0
LINE
8
BLACK
6
CONTINUOUS
10
6.0467806692913388
20
-2.7186141732283464
11
6.0392193307086615
21
-2.7186141732283464
0
LINE
8
BLACK
6
CONTINUOUS
10
6.0392193307086615
20
-2.7186141732283464
11
6.0318032677165352
21
-2.7200892913385828
0
LINE
8
BLACK
6
CONTINUOUS
10
6.0318032677165352
20
-2.7200892913385828
11
6.0248174803149608
21
-2.7229829133858265
0
LINE
8
BLACK
6
CONTINUOUS
10
6.0248174803149608
20
-2.7229829133858265
11
6.0185304330708664
21
-2.7271837795275591
0
LINE
8
BLACK
6
CONTINUOUS
10
6.0185304330708664
20
-2.7271837795275591
11
6.0131837795275587
21
-2.732530433070866
0
LINE
8
BLACK
6
CONTINUOUS
10
6.0131837795275587
20
-2.732530433070866
11
6.008982913385827
21
-2.7388174803149608
0
LINE
8
BLACK
6
CONTINUOUS
10
6.008982913385827
20
-2.7388174803149608
11
6.0060892913385828
21
-2.7458032677165352
0
LINE
8
BLACK
6
CONTINUOUS
10
6.0060892913385828
20
-2.7458032677165352
11
6.0046141732283465
21
-2.7532193307086614
0
LINE
8
BLACK
6
CONTINUOUS
10
6.0046141732283465
20
-2.7532193307086614
11
6.0046141732283465
21
-2.7607806692913384
0
CIRCLE
8
BLACK
10
6.9685039370078741
20
-3.8188976377952755
40
0.0531496062992126
0
CIRCLE
8
BLACK
10
4.8425196850393704
20
-3.8188976377952755
40
0.0531496062992126
0
CIRCLE
8
BLACK
10
4.8425196850393704
20
-2.7362204724409449
40
0.0531496062992126
0
CIRCLE
8
BLACK
10
6.9685039370078741
20
-2.7362204724409449
40
0.0531496062992126
0
LINE
8
BLACK
6
CONTINUOUS
10
4.8210083070866139
20
-3.1841136614173227
11
4.8221375984251971
21
-3.1784364566929133
0
LINE
8
BLACK
6
CONTINUOUS
10
4.8221375984251971
20
-3.1784364566929133
11
4.824352716535433
21
-3.1730886614173226
0
LINE
8
BLACK
6
CONTINUOUS
10
4.824352716535433
20
-3.1730886614173226
11
4.8275685826771655
21
-3.1682757874015746
0
LINE
8
BLACK
6
CONTINUOUS
10
4.8275685826771655
20
-3.1682757874015746
11
4.8316616141732283
21
-3.1641827559055118
0
LINE
8
BLACK
6
CONTINUOUS
10
4.8316616141732283
20
-3.1641827559055118
11
4.8364744881889763
21
-3.1609668897637793
0
LINE
8
BLACK
6
CONTINUOUS
10
4.8364744881889763
20
-3.1609668897637793
11
4.841822283464567
21
-3.1587517716535434
0
LINE
8
BLACK
6
CONTINUOUS
10
4.841822283464567
20
-3.1587517716535434
11
4.8474994881889764
21
-3.1576224803149606
0
LINE
8
BLACK
6
CONTINUOUS
10
4.8474994881889764
20
-3.1576224803149606
11
4.8532879133858264
21
-3.1576224803149606
0
LINE
8
BLACK
6
CONTINUOUS
10
4.8532879133858264
20
-3.1576224803149606
11
4.8589651181102358
21
-3.1587517716535434
0
LINE
8
BLACK
6
CONTINUOUS
10
4.8589651181102358
20
-3.1587517716535434
11
4.8643129133858265
21
-3.1609668897637793
0
LINE
8
BLACK
6
CONTINUOUS
10
4.8643129133858265
20
-3.1609668897637793
11
4.8691257874015745
21
-3.1641827559055118
0
LINE
8
BLACK
6
CONTINUOUS
10
4.8691257874015745
20
-3.1641827559055118
11
4.8732188188976373
21
-3.1682757874015746
0
LINE
8
BLACK
6
CONTINUOUS
10
4.8732188188976373
20
-3.1682757874015746
11
4.8764346850393698
21
-3.1730886614173226
0
LINE
8
BLACK
6
CONTINUOUS
10
4.8764346850393698
20
-3.1730886614173226
11
4.8786498031496066
21
-3.1784364566929133
0
LINE
8
BLACK
6
CONTINUOUS
10
4.8786498031496066
20
-3.1784364566929133
11
4.8797790944881889
21
-3.1841136614173227
0
LINE
8
BLACK
6
CONTINUOUS
10
4.8797790944881889
20
-3.1841136614173227
11
4.8799212598425195
21
-3.1870078740157481
0
LINE
8
BLACK
6
CONTINUOUS
10
4.8799212598425195
20
-3.1870078740157481
11
4.8799212598425195
21
-3.2066929133858268
0
LINE
8
BLACK
6
CONTINUOUS
10
4.8799212598425195
20
-3.2066929133858268
11
4.8797790944881889
21
-3.2095871259842519
0
LINE
8
BLACK
6
CONTINUOUS
10
4.8797790944881889
20
-3.2095871259842519
11
4.8786498031496066
21
-3.2152643307086612
0
LINE
8
BLACK
6
CONTINUOUS
10
4.8786498031496066
20
-3.2152643307086612
11
4.8764346850393698
21
-3.2206121259842519
0
LINE
8
BLACK
6
CONTINUOUS
10
4.8764346850393698
20
-3.2206121259842519
11
4.8732188188976373
21
-3.225425
0
LINE
8
BLACK
6
CONTINUOUS
10
4.8732188188976373
20
-3.225425
11
4.8691257874015745
21
-3.2295180314960628
0
LINE
8
BLACK
6
CONTINUOUS
10
4.8691257874015745
20
-3.2295180314960628
11
4.8643129133858265
21
-3.2327338976377953
0
LINE
8
BLACK
6
CONTINUOUS
10
4.8643129133858265
20
-3.2327338976377953
11
4.8589651181102358
21
-3.2349490157480316
0
LINE
8
BLACK
6
CONTINUOUS
10
4.8589651181102358
20
-3.2349490157480316
11
4.8532879133858264
21
-3.2360783070866139
0
LINE
8
BLACK
6
CONTINUOUS
10
4.8532879133858264
20
-3.2360783070866139
11
4.8474994881889764
21
-3.2360783070866139
0
LINE
8
BLACK
6
CONTINUOUS
10
4.8474994881889764
20
-3.2360783070866139
11
4.841822283464567
21
-3.2349490157480316
0
LINE
8
BLACK
6
CONTINUOUS
10
4.841822283464567
20
-3.2349490157480316
11
4.8364744881889763
21
-3.2327338976377953
0
LINE
8
BLACK
6
CONTINUOUS
10
4.8364744881889763
20
-3.2327338976377953
11
4.8316616141732283
21
-3.2295180314960628
0
LINE
8
BLACK
6
CONTINUOUS
10
4.8316616141732283
20
-3.2295180314960628
11
4.8275685826771655
21
-3.225425
0
LINE
8
BLACK
6
CONTINUOUS
10
4.8275685826771655
20
-3.225425
11
4.824352716535433
21
-3.2206121259842519
0
LINE
8
BLACK
6
CONTINUOUS
10
4.824352716535433
20
-3.2206121259842519
11
4.8221375984251971
21
-3.2152643307086612
0
LINE
8
BLACK
6
CONTINUOUS
10
4.8221375984251971
20
-3.2152643307086612
11
4.8210083070866139
21
-3.2095871259842519
0
LINE
8
BLACK
6
CONTINUOUS
10
4.8210083070866139
20
-3.2095871259842519
11
4.8208661417322833
21
-3.2066929133858268
0
LINE
8
BLACK
6
CONTINUOUS
10
4.8208661417322833
20
-3.2066929133858268
11
4.8208661417322833
21
-3.1870078740157481
0
LINE
8
BLACK
6
CONTINUOUS
10
4.8208661417322833
20
-3.1870078740157481
11
4.8210083070866139
21
-3.1841136614173227
0
CIRCLE
8
BLACK
10
5.0236220472440944
20
-3.1968503937007875
40
0.0393700787401575
0
CIRCLE
8
BLACK
10
5.3661417322834648
20
-3.1299212598425195
40
0.0196850393700787
0
CIRCLE
8
BLACK
10
5.3661417322834648
20
-3.0299212598425198
40
0.0196850393700787
0
CIRCLE
8
BLACK
10
5.3661417322834648
20
-2.9299212598425197
40
0.0196850393700787
0
CIRCLE
8
BLACK
10
5.3661417322834648
20
-2.8299212598425196
40
0.0196850393700787
0
CIRCLE
8
BLACK
10
5.3661417322834648
20
-2.7299212598425195
40
0.0196850393700787
0
CIRCLE
8
BLACK
10
5.9799999999999995
20
-3.75
40
0.0196850393700787
0
CIRCLE
8
BLACK
10
6.0800000000000001
20
-3.75
40
0.0196850393700787
0
CIRCLE
8
BLACK
10
5.9799999999999995
20
-3.8500000000000001
40
0.0196850393700787
0
CIRCLE
8
BLACK
10
6.0800000000000001
20
-3.8500000000000001
40
0.0196850393700787
0
CIRCLE
8
BLACK
10
5.556
20
-3.8489999999999998
40
0.0196850393700787
0
CIRCLE
8
BLACK
10
5.556
20
-3.7490000000000001
40
0.0196850393700787
0
CIRCLE
8
BLACK
10
5.6559999999999997
20
-3.8489999999999998
40
0.0196850393700787
0
CIRCLE
8
BLACK
10
5.6559999999999997
20
-3.7490000000000001
40
0.0196850393700787
0
CIRCLE
8
BLACK
10
5.7560000000000002
20
-3.8489999999999998
40
0.0196850393700787
0
CIRCLE
8
BLACK
10
5.7560000000000002
20
-3.7490000000000001
40
0.0196850393700787
0
CIRCLE
8
BLACK
10
5.5499999999999998
20
-3.04
40
0.0196850393700787
0
CIRCLE
8
BLACK
10
5.5499999999999998
20
-3.1400000000000001
40
0.0196850393700787
0
CIRCLE
8
BLACK
10
5.5499999999999998
20
-3.2399999999999998
40
0.0196850393700787
0
CIRCLE
8
BLACK
10
5.5499999999999998
20
-3.3399999999999999
40
0.0196850393700787
0
CIRCLE
8
BLACK
10
5.5499999999999998
20
-3.4399999999999999
40
0.0196850393700787
0
CIRCLE
8
BLACK
10
5.5499999999999998
20
-3.54
40
0.0196850393700787
0
CIRCLE
8
BLACK
10
6.8300000000000001
20
-3.21
40
0.0187007874015748
0
CIRCLE
8
BLACK
10
6.8300000000000001
20
-3.3084251968503935
40
0.0187007874015748
0
CIRCLE
8
BLACK
10
6.9087401574803149
20
-3.3084251968503935
40
0.0187007874015748
0
CIRCLE
8
BLACK
10
6.9087401574803149
20
-3.21
40
0.0187007874015748
0
CIRCLE
8
BLACK
10
7.0213385826771653
20
-3.0229921259842518
40
0.0452755905511811
0
CIRCLE
8
BLACK
10
7.0213385826771653
20
-3.4954330708661416
40
0.0452755905511811
0
CIRCLE
8
BLACK
10
6.9685039370078741
20
-3.8188976377952755
40
0.0531495669291339
0
CIRCLE
8
BLACK
10
4.8425196850393704
20
-3.8188976377952755
40
0.0531495669291339
0
CIRCLE
8
BLACK
10
4.8425196850393704
20
-2.7362204724409449
40
0.0531495669291339
0
CIRCLE
8
BLACK
10
6.9685039370078741
20
-2.7362204724409449
40
0.0531495669291339
0
LINE
8
BLACK
6
CONTINUOUS
10
4.8799212204724407
20
-3.2066929133858268
11
4.8799212204724407
21
-3.1870078740157481
0
ARC
8
BLACK
10
4.8503937007874018
20
-3.1870078740157481
40
0.0295275196850394
50
0.00000000
51
180.00000000
0
LINE
8
BLACK
6
CONTINUOUS
10
4.8208661811023621
20
-3.1870078740157481
11
4.8208661811023621
21
-3.2066929133858268
0
ARC
8
BLACK
10
4.8503937007874018
20
-3.2066929133858268
40
0.0295275196850394
50
180.00000000
51
360.00000000
0
CIRCLE
8
BLACK
10
5.0236220472440944
20
-3.1968503937007875
40
0.0393700393700787
0
CIRCLE
8
BLACK
10
5.3661417322834648
20
-3.1299212598425195
40
0.0196850393700787
0
CIRCLE
8
BLACK
10
5.3661417322834648
20
-3.0299212598425198
40
0.0196850393700787
0
CIRCLE
8
BLACK
10
5.3661417322834648
20
-2.9299212598425197
40
0.0196850393700787
0
CIRCLE
8
BLACK
10
5.3661417322834648
20
-2.8299212598425196
40
0.0196850393700787
0
CIRCLE
8
BLACK
10
5.3661417322834648
20
-2.7299212598425195
40
0.0196850393700787
0
CIRCLE
8
BLACK
10
5.9799999999999995
20
-3.75
40
0.0196850393700787
0
CIRCLE
8
BLACK
10
6.0800000000000001
20
-3.75
40
0.0196850393700787
0
CIRCLE
8
BLACK
10
5.9799999999999995
20
-3.8500000000000001
40
0.0196850393700787
0
CIRCLE
8
BLACK
10
6.0800000000000001
20
-3.8500000000000001
40
0.0196850393700787
0
CIRCLE
8
BLACK
10
5.556
20
-3.8489999999999998
40
0.0196850393700787
0
CIRCLE
8
BLACK
10
5.556
20
-3.7490000000000001
40
0.0196850393700787
0
CIRCLE
8
BLACK
10
5.6559999999999997
20
-3.8489999999999998
40
0.0196850393700787
0
CIRCLE
8
BLACK
10
5.6559999999999997
20
-3.7490000000000001
40
0.0196850393700787
0
CIRCLE
8
BLACK
10
5.7560000000000002
20
-3.8489999999999998
40
0.0196850393700787
0
CIRCLE
8
BLACK
10
5.7560000000000002
20
-3.7490000000000001
40
0.0196850393700787
0
CIRCLE
8
BLACK
10
5.5499999999999998
20
-3.04
40
0.0196850393700787
0
CIRCLE
8
BLACK
10
5.5499999999999998
20
-3.1400000000000001
40
0.0196850393700787
0
CIRCLE
8
BLACK
10
5.5499999999999998
20
-3.2399999999999998
40
0.0196850393700787
0
CIRCLE
8
BLACK
10
5.5499999999999998
20
-3.3399999999999999
40
0.0196850393700787
0
CIRCLE
8
BLACK
10
5.5499999999999998
20
-3.4399999999999999
40
0.0196850393700787
0
CIRCLE
8
BLACK
10
5.5499999999999998
20
-3.54
40
0.0196850393700787
0
CIRCLE
8
BLACK
10
6.8300000000000001
20
-3.21
40
0.0187007874015748
0
CIRCLE
8
BLACK
10
6.8300000000000001
20
-3.3084251968503935
40
0.0187007874015748
0
CIRCLE
8
BLACK
10
6.9087401574803149
20
-3.3084251968503935
40
0.0187007874015748
0
CIRCLE
8
BLACK
10
6.9087401574803149
20
-3.21
40
0.0187007874015748
0
CIRCLE
8
BLACK
10
7.0213385826771653
20
-3.0229921259842518
40
0.0452755905511811
0
CIRCLE
8
BLACK
10
7.0213385826771653
20
-3.4954330708661416
40
0.0452755905511811
  0
ENDSEC
  0
EOF
