  0
SECTION
  2
HEADER
  9
$ANGBASE
  50
0.0
  9
$ANGDIR
  70
1
  9
$MEASUREMENT
  70
0
  0
ENDSEC
  0
SECTION
  2
TABLES
  0
TABLE
  2
LTYPE
  70
4
  0
LTYPE
  5
40F
  2
CONTINUOUS
  70
0
  3
Solid line
  72
65
  73
0
  40
0.0
  0
LTYPE
  5
410
  2
DASHDOT
 70
0
  3
Dash Dot ____ _ ____ _
 72
65
 73
4
 40
2.0
 49
1.25
 49
-0.25
 49
0.25
 49
-0.25
  0
LTYPE
  5
411
  2
DASHED
 70
0
  3
Dashed __ __ __ __ __
 72
65
 73
2
 40
0.75
 49
0.5
 49
-0.25
  0
LTYPE
  5
43B
  2
DOTTED
 70
0
  3
Dotted .  .  .  .
 72
65
 73
2
 40
0.2
 49
0.0
 49
-0.2
  0
ENDTAB
  0
TABLE
  2
STYLE
  70
4
  0
STYLE
  2
KICAD
  70
0
  40
0
  41
1
  42
1
  50
0
  71
0
  3
isocp.shx
  0
STYLE
  2
KICADB
  70
0
  40
0
  41
1
  42
1
  50
0
  71
0
  3
isocp.shx
  0
STYLE
  2
KICADI
  70
0
  40
0
  41
1
  42
1
  50
15
  71
0
  3
isocp.shx
  0
STYLE
  2
KICADBI
  70
0
  40
0
  41
1
  42
1
  50
15
  71
0
  3
isocp.shx
  0
ENDTAB
  0
TABLE
  2
LAYER
  70
1
  0
LAYER
  2
BLACK
  70
0
  62
7
  6
CONTINUOUS
  0
ENDTAB
  0
ENDSEC
  0
SECTION
  2
ENTITIES
0
LINE
8
BLACK
6
CONTINUOUS
10
5.9909494094488185
20
-3.8163011417322834
11
5.9977165354330708
21
-3.81931405511811
0
LINE
8
BLACK
6
CONTINUOUS
10
5.9977165354330708
20
-3.81931405511811
11
6.0037093700787398
21
-3.8236681102362202
0
LINE
8
BLACK
6
CONTINUOUS
10
6.0037093700787398
20
-3.8236681102362202
11
6.0086659448818898
21
-3.8291729527559055
0
LINE
8
BLACK
6
CONTINUOUS
10
6.0086659448818898
20
-3.8291729527559055
11
6.0123697244094485
21
-3.8355880708661418
0
LINE
8
BLACK
6
CONTINUOUS
10
6.0123697244094485
20
-3.8355880708661418
11
6.0146587795275588
21
-3.8426330314960628
0
LINE
8
BLACK
6
CONTINUOUS
10
6.0146587795275588
20
-3.8426330314960628
11
6.0154330708661412
21
-3.8500000000000001
0
LINE
8
BLACK
6
CONTINUOUS
10
6.0154330708661412
20
-3.8500000000000001
11
6.0146587795275588
21
-3.8573669685039369
0
LINE
8
BLACK
6
CONTINUOUS
10
6.0146587795275588
20
-3.8573669685039369
11
6.0123697244094485
21
-3.8644119291338583
0
LINE
8
BLACK
6
CONTINUOUS
10
6.0123697244094485
20
-3.8644119291338583
11
6.0086659448818898
21
-3.8708270472440942
0
LINE
8
BLACK
6
CONTINUOUS
10
6.0086659448818898
20
-3.8708270472440942
11
6.0037093700787398
21
-3.8763318897637795
0
LINE
8
BLACK
6
CONTINUOUS
10
6.0037093700787398
20
-3.8763318897637795
11
5.9977165354330708
21
-3.8806859448818898
0
LINE
8
BLACK
6
CONTINUOUS
10
5.9977165354330708
20
-3.8806859448818898
11
5.9909494094488185
21
-3.8836988582677163
0
LINE
8
BLACK
6
CONTINUOUS
10
5.9909494094488185
20
-3.8836988582677163
11
5.9837037795275592
21
-3.8852389763779525
0
LINE
8
BLACK
6
CONTINUOUS
10
5.9837037795275592
20
-3.8852389763779525
11
5.9762962204724408
21
-3.8852389763779525
0
LINE
8
BLACK
6
CONTINUOUS
10
5.9762962204724408
20
-3.8852389763779525
11
5.9690505905511806
21
-3.8836988582677163
0
LINE
8
BLACK
6
CONTINUOUS
10
5.9690505905511806
20
-3.8836988582677163
11
5.9622834645669291
21
-3.8806859448818898
0
LINE
8
BLACK
6
CONTINUOUS
10
5.9622834645669291
20
-3.8806859448818898
11
5.9562906299212601
21
-3.8763318897637795
0
LINE
8
BLACK
6
CONTINUOUS
10
5.9562906299212601
20
-3.8763318897637795
11
5.9513340551181102
21
-3.8708270472440942
0
LINE
8
BLACK
6
CONTINUOUS
10
5.9513340551181102
20
-3.8708270472440942
11
5.9476302755905515
21
-3.8644119291338583
0
LINE
8
BLACK
6
CONTINUOUS
10
5.9476302755905515
20
-3.8644119291338583
11
5.9453412204724412
21
-3.8573669685039369
0
LINE
8
BLACK
6
CONTINUOUS
10
5.9453412204724412
20
-3.8573669685039369
11
5.9445669291338579
21
-3.8500000000000001
0
LINE
8
BLACK
6
CONTINUOUS
10
5.9445669291338579
20
-3.8500000000000001
11
5.9453412204724412
21
-3.8426330314960628
0
LINE
8
BLACK
6
CONTINUOUS
10
5.9453412204724412
20
-3.8426330314960628
11
5.9476302755905515
21
-3.8355880708661418
0
LINE
8
BLACK
6
CONTINUOUS
10
5.9476302755905515
20
-3.8355880708661418
11
5.9513340551181102
21
-3.8291729527559055
0
LINE
8
BLACK
6
CONTINUOUS
10
5.9513340551181102
20
-3.8291729527559055
11
5.9562906299212601
21
-3.8236681102362202
0
LINE
8
BLACK
6
CONTINUOUS
10
5.9562906299212601
20
-3.8236681102362202
11
5.9622834645669291
21
-3.81931405511811
0
LINE
8
BLACK
6
CONTINUOUS
10
5.9622834645669291
20
-3.81931405511811
11
5.9690505905511806
21
-3.8163011417322834
0
LINE
8
BLACK
6
CONTINUOUS
10
5.9690505905511806
20
-3.8163011417322834
11
5.9762962204724408
21
-3.8147610236220473
0
LINE
8
BLACK
6
CONTINUOUS
10
5.9762962204724408
20
-3.8147610236220473
11
5.9837037795275592
21
-3.8147610236220473
0
LINE
8
BLACK
6
CONTINUOUS
10
5.9837037795275592
20
-3.8147610236220473
11
5.9909494094488185
21
-3.8163011417322834
0
LINE
8
BLACK
6
CONTINUOUS
10
6.090949409448819
20
-3.8163011417322834
11
6.0977165354330705
21
-3.81931405511811
0
LINE
8
BLACK
6
CONTINUOUS
10
6.0977165354330705
20
-3.81931405511811
11
6.1037093700787404
21
-3.8236681102362202
0
LINE
8
BLACK
6
CONTINUOUS
10
6.1037093700787404
20
-3.8236681102362202
11
6.1086659448818894
21
-3.8291729527559055
0
LINE
8
BLACK
6
CONTINUOUS
10
6.1086659448818894
20
-3.8291729527559055
11
6.112369724409449
21
-3.8355880708661418
0
LINE
8
BLACK
6
CONTINUOUS
10
6.112369724409449
20
-3.8355880708661418
11
6.1146587795275593
21
-3.8426330314960628
0
LINE
8
BLACK
6
CONTINUOUS
10
6.1146587795275593
20
-3.8426330314960628
11
6.1154330708661417
21
-3.8500000000000001
0
LINE
8
BLACK
6
CONTINUOUS
10
6.1154330708661417
20
-3.8500000000000001
11
6.1146587795275593
21
-3.8573669685039369
0
LINE
8
BLACK
6
CONTINUOUS
10
6.1146587795275593
20
-3.8573669685039369
11
6.112369724409449
21
-3.8644119291338583
0
LINE
8
BLACK
6
CONTINUOUS
10
6.112369724409449
20
-3.8644119291338583
11
6.1086659448818894
21
-3.8708270472440942
0
LINE
8
BLACK
6
CONTINUOUS
10
6.1086659448818894
20
-3.8708270472440942
11
6.1037093700787404
21
-3.8763318897637795
0
LINE
8
BLACK
6
CONTINUOUS
10
6.1037093700787404
20
-3.8763318897637795
11
6.0977165354330705
21
-3.8806859448818898
0
LINE
8
BLACK
6
CONTINUOUS
10
6.0977165354330705
20
-3.8806859448818898
11
6.090949409448819
21
-3.8836988582677163
0
LINE
8
BLACK
6
CONTINUOUS
10
6.090949409448819
20
-3.8836988582677163
11
6.0837037795275588
21
-3.8852389763779525
0
LINE
8
BLACK
6
CONTINUOUS
10
6.0837037795275588
20
-3.8852389763779525
11
6.0762962204724404
21
-3.8852389763779525
0
LINE
8
BLACK
6
CONTINUOUS
10
6.0762962204724404
20
-3.8852389763779525
11
6.0690505905511811
21
-3.8836988582677163
0
LINE
8
BLACK
6
CONTINUOUS
10
6.0690505905511811
20
-3.8836988582677163
11
6.0622834645669288
21
-3.8806859448818898
0
LINE
8
BLACK
6
CONTINUOUS
10
6.0622834645669288
20
-3.8806859448818898
11
6.0562906299212598
21
-3.8763318897637795
0
LINE
8
BLACK
6
CONTINUOUS
10
6.0562906299212598
20
-3.8763318897637795
11
6.0513340551181098
21
-3.8708270472440942
0
LINE
8
BLACK
6
CONTINUOUS
10
6.0513340551181098
20
-3.8708270472440942
11
6.0476302755905511
21
-3.8644119291338583
0
LINE
8
BLACK
6
CONTINUOUS
10
6.0476302755905511
20
-3.8644119291338583
11
6.0453412204724408
21
-3.8573669685039369
0
LINE
8
BLACK
6
CONTINUOUS
10
6.0453412204724408
20
-3.8573669685039369
11
6.0445669291338584
21
-3.8500000000000001
0
LINE
8
BLACK
6
CONTINUOUS
10
6.0445669291338584
20
-3.8500000000000001
11
6.0453412204724408
21
-3.8426330314960628
0
LINE
8
BLACK
6
CONTINUOUS
10
6.0453412204724408
20
-3.8426330314960628
11
6.0476302755905511
21
-3.8355880708661418
0
LINE
8
BLACK
6
CONTINUOUS
10
6.0476302755905511
20
-3.8355880708661418
11
6.0513340551181098
21
-3.8291729527559055
0
LINE
8
BLACK
6
CONTINUOUS
10
6.0513340551181098
20
-3.8291729527559055
11
6.0562906299212598
21
-3.8236681102362202
0
LINE
8
BLACK
6
CONTINUOUS
10
6.0562906299212598
20
-3.8236681102362202
11
6.0622834645669288
21
-3.81931405511811
0
LINE
8
BLACK
6
CONTINUOUS
10
6.0622834645669288
20
-3.81931405511811
11
6.0690505905511811
21
-3.8163011417322834
0
LINE
8
BLACK
6
CONTINUOUS
10
6.0690505905511811
20
-3.8163011417322834
11
6.0762962204724404
21
-3.8147610236220473
0
LINE
8
BLACK
6
CONTINUOUS
10
6.0762962204724404
20
-3.8147610236220473
11
6.0837037795275588
21
-3.8147610236220473
0
LINE
8
BLACK
6
CONTINUOUS
10
6.0837037795275588
20
-3.8147610236220473
11
6.090949409448819
21
-3.8163011417322834
0
LINE
8
BLACK
6
CONTINUOUS
10
5.5902178740157478
20
-3.8137167716535432
11
5.5908564960629921
21
-3.8141435039370077
0
LINE
8
BLACK
6
CONTINUOUS
10
5.5908564960629921
20
-3.8141435039370077
11
5.5912832283464562
21
-3.814782125984252
0
LINE
8
BLACK
6
CONTINUOUS
10
5.5912832283464562
20
-3.814782125984252
11
5.5914330708661417
21
-3.815535433070866
0
LINE
8
BLACK
6
CONTINUOUS
10
5.5914330708661417
20
-3.815535433070866
11
5.5914330708661417
21
-3.8824645669291336
0
LINE
8
BLACK
6
CONTINUOUS
10
5.5914330708661417
20
-3.8824645669291336
11
5.5912832283464562
21
-3.8832178740157479
0
LINE
8
BLACK
6
CONTINUOUS
10
5.5912832283464562
20
-3.8832178740157479
11
5.5908564960629921
21
-3.8838564960629922
0
LINE
8
BLACK
6
CONTINUOUS
10
5.5908564960629921
20
-3.8838564960629922
11
5.5902178740157478
21
-3.8842832283464568
0
LINE
8
BLACK
6
CONTINUOUS
10
5.5902178740157478
20
-3.8842832283464568
11
5.5894645669291334
21
-3.8844330708661414
0
LINE
8
BLACK
6
CONTINUOUS
10
5.5894645669291334
20
-3.8844330708661414
11
5.5225354330708658
21
-3.8844330708661414
0
LINE
8
BLACK
6
CONTINUOUS
10
5.5225354330708658
20
-3.8844330708661414
11
5.5217821259842514
21
-3.8842832283464568
0
LINE
8
BLACK
6
CONTINUOUS
10
5.5217821259842514
20
-3.8842832283464568
11
5.521143503937008
21
-3.8838564960629922
0
LINE
8
BLACK
6
CONTINUOUS
10
5.521143503937008
20
-3.8838564960629922
11
5.520716771653543
21
-3.8832178740157479
0
LINE
8
BLACK
6
CONTINUOUS
10
5.520716771653543
20
-3.8832178740157479
11
5.5205669291338584
21
-3.8824645669291336
0
LINE
8
BLACK
6
CONTINUOUS
10
5.5205669291338584
20
-3.8824645669291336
11
5.5205669291338584
21
-3.815535433070866
0
LINE
8
BLACK
6
CONTINUOUS
10
5.5205669291338584
20
-3.815535433070866
11
5.520716771653543
21
-3.814782125984252
0
LINE
8
BLACK
6
CONTINUOUS
10
5.520716771653543
20
-3.814782125984252
11
5.521143503937008
21
-3.8141435039370077
0
LINE
8
BLACK
6
CONTINUOUS
10
5.521143503937008
20
-3.8141435039370077
11
5.5217821259842514
21
-3.8137167716535432
0
LINE
8
BLACK
6
CONTINUOUS
10
5.5217821259842514
20
-3.8137167716535432
11
5.5225354330708658
21
-3.8135669291338581
0
LINE
8
BLACK
6
CONTINUOUS
10
5.5225354330708658
20
-3.8135669291338581
11
5.5894645669291334
21
-3.8135669291338581
0
LINE
8
BLACK
6
CONTINUOUS
10
5.5894645669291334
20
-3.8135669291338581
11
5.5902178740157478
21
-3.8137167716535432
0
LINE
8
BLACK
6
CONTINUOUS
10
5.6669494094488186
20
-3.8153011417322835
11
5.673716535433071
21
-3.8183140551181101
0
LINE
8
BLACK
6
CONTINUOUS
10
5.673716535433071
20
-3.8183140551181101
11
5.67970937007874
21
-3.8226681102362203
0
LINE
8
BLACK
6
CONTINUOUS
10
5.67970937007874
20
-3.8226681102362203
11
5.6846659448818899
21
-3.8281729527559056
0
LINE
8
BLACK
6
CONTINUOUS
10
5.6846659448818899
20
-3.8281729527559056
11
5.6883697244094487
21
-3.8345880708661415
0
LINE
8
BLACK
6
CONTINUOUS
10
5.6883697244094487
20
-3.8345880708661415
11
5.6906587795275589
21
-3.8416330314960629
0
LINE
8
BLACK
6
CONTINUOUS
10
5.6906587795275589
20
-3.8416330314960629
11
5.6914330708661414
21
-3.8489999999999998
0
LINE
8
BLACK
6
CONTINUOUS
10
5.6914330708661414
20
-3.8489999999999998
11
5.6906587795275589
21
-3.856366968503937
0
LINE
8
BLACK
6
CONTINUOUS
10
5.6906587795275589
20
-3.856366968503937
11
5.6883697244094487
21
-3.863411929133858
0
LINE
8
BLACK
6
CONTINUOUS
10
5.6883697244094487
20
-3.863411929133858
11
5.6846659448818899
21
-3.8698270472440943
0
LINE
8
BLACK
6
CONTINUOUS
10
5.6846659448818899
20
-3.8698270472440943
11
5.67970937007874
21
-3.8753318897637796
0
LINE
8
BLACK
6
CONTINUOUS
10
5.67970937007874
20
-3.8753318897637796
11
5.673716535433071
21
-3.8796859448818899
0
LINE
8
BLACK
6
CONTINUOUS
10
5.673716535433071
20
-3.8796859448818899
11
5.6669494094488186
21
-3.8826988582677164
0
LINE
8
BLACK
6
CONTINUOUS
10
5.6669494094488186
20
-3.8826988582677164
11
5.6597037795275593
21
-3.8842389763779526
0
LINE
8
BLACK
6
CONTINUOUS
10
5.6597037795275593
20
-3.8842389763779526
11
5.652296220472441
21
-3.8842389763779526
0
LINE
8
BLACK
6
CONTINUOUS
10
5.652296220472441
20
-3.8842389763779526
11
5.6450505905511807
21
-3.8826988582677164
0
LINE
8
BLACK
6
CONTINUOUS
10
5.6450505905511807
20
-3.8826988582677164
11
5.6382834645669293
21
-3.8796859448818899
0
LINE
8
BLACK
6
CONTINUOUS
10
5.6382834645669293
20
-3.8796859448818899
11
5.6322906299212594
21
-3.8753318897637796
0
LINE
8
BLACK
6
CONTINUOUS
10
5.6322906299212594
20
-3.8753318897637796
11
5.6273340551181104
21
-3.8698270472440943
0
LINE
8
BLACK
6
CONTINUOUS
10
5.6273340551181104
20
-3.8698270472440943
11
5.6236302755905507
21
-3.863411929133858
0
LINE
8
BLACK
6
CONTINUOUS
10
5.6236302755905507
20
-3.863411929133858
11
5.6213412204724404
21
-3.856366968503937
0
LINE
8
BLACK
6
CONTINUOUS
10
5.6213412204724404
20
-3.856366968503937
11
5.620566929133858
21
-3.8489999999999998
0
LINE
8
BLACK
6
CONTINUOUS
10
5.620566929133858
20
-3.8489999999999998
11
5.6213412204724404
21
-3.8416330314960629
0
LINE
8
BLACK
6
CONTINUOUS
10
5.6213412204724404
20
-3.8416330314960629
11
5.6236302755905507
21
-3.8345880708661415
0
LINE
8
BLACK
6
CONTINUOUS
10
5.6236302755905507
20
-3.8345880708661415
11
5.6273340551181104
21
-3.8281729527559056
0
LINE
8
BLACK
6
CONTINUOUS
10
5.6273340551181104
20
-3.8281729527559056
11
5.6322906299212594
21
-3.8226681102362203
0
LINE
8
BLACK
6
CONTINUOUS
10
5.6322906299212594
20
-3.8226681102362203
11
5.6382834645669293
21
-3.8183140551181101
0
LINE
8
BLACK
6
CONTINUOUS
10
5.6382834645669293
20
-3.8183140551181101
11
5.6450505905511807
21
-3.8153011417322835
0
LINE
8
BLACK
6
CONTINUOUS
10
5.6450505905511807
20
-3.8153011417322835
11
5.652296220472441
21
-3.8137610236220469
0
LINE
8
BLACK
6
CONTINUOUS
10
5.652296220472441
20
-3.8137610236220469
11
5.6597037795275593
21
-3.8137610236220469
0
LINE
8
BLACK
6
CONTINUOUS
10
5.6597037795275593
20
-3.8137610236220469
11
5.6669494094488186
21
-3.8153011417322835
0
LINE
8
BLACK
6
CONTINUOUS
10
5.7669494094488192
20
-3.8153011417322835
11
5.7737165354330706
21
-3.8183140551181101
0
LINE
8
BLACK
6
CONTINUOUS
10
5.7737165354330706
20
-3.8183140551181101
11
5.7797093700787396
21
-3.8226681102362203
0
LINE
8
BLACK
6
CONTINUOUS
10
5.7797093700787396
20
-3.8226681102362203
11
5.7846659448818896
21
-3.8281729527559056
0
LINE
8
BLACK
6
CONTINUOUS
10
5.7846659448818896
20
-3.8281729527559056
11
5.7883697244094483
21
-3.8345880708661415
0
LINE
8
BLACK
6
CONTINUOUS
10
5.7883697244094483
20
-3.8345880708661415
11
5.7906587795275586
21
-3.8416330314960629
0
LINE
8
BLACK
6
CONTINUOUS
10
5.7906587795275586
20
-3.8416330314960629
11
5.7914330708661419
21
-3.8489999999999998
0
LINE
8
BLACK
6
CONTINUOUS
10
5.7914330708661419
20
-3.8489999999999998
11
5.7906587795275586
21
-3.856366968503937
0
LINE
8
BLACK
6
CONTINUOUS
10
5.7906587795275586
20
-3.856366968503937
11
5.7883697244094483
21
-3.863411929133858
0
LINE
8
BLACK
6
CONTINUOUS
10
5.7883697244094483
20
-3.863411929133858
11
5.7846659448818896
21
-3.8698270472440943
0
LINE
8
BLACK
6
CONTINUOUS
10
5.7846659448818896
20
-3.8698270472440943
11
5.7797093700787396
21
-3.8753318897637796
0
LINE
8
BLACK
6
CONTINUOUS
10
5.7797093700787396
20
-3.8753318897637796
11
5.7737165354330706
21
-3.8796859448818899
0
LINE
8
BLACK
6
CONTINUOUS
10
5.7737165354330706
20
-3.8796859448818899
11
5.7669494094488192
21
-3.8826988582677164
0
LINE
8
BLACK
6
CONTINUOUS
10
5.7669494094488192
20
-3.8826988582677164
11
5.759703779527559
21
-3.8842389763779526
0
LINE
8
BLACK
6
CONTINUOUS
10
5.759703779527559
20
-3.8842389763779526
11
5.7522962204724406
21
-3.8842389763779526
0
LINE
8
BLACK
6
CONTINUOUS
10
5.7522962204724406
20
-3.8842389763779526
11
5.7450505905511813
21
-3.8826988582677164
0
LINE
8
BLACK
6
CONTINUOUS
10
5.7450505905511813
20
-3.8826988582677164
11
5.7382834645669289
21
-3.8796859448818899
0
LINE
8
BLACK
6
CONTINUOUS
10
5.7382834645669289
20
-3.8796859448818899
11
5.7322906299212599
21
-3.8753318897637796
0
LINE
8
BLACK
6
CONTINUOUS
10
5.7322906299212599
20
-3.8753318897637796
11
5.72733405511811
21
-3.8698270472440943
0
LINE
8
BLACK
6
CONTINUOUS
10
5.72733405511811
20
-3.8698270472440943
11
5.7236302755905513
21
-3.863411929133858
0
LINE
8
BLACK
6
CONTINUOUS
10
5.7236302755905513
20
-3.863411929133858
11
5.721341220472441
21
-3.856366968503937
0
LINE
8
BLACK
6
CONTINUOUS
10
5.721341220472441
20
-3.856366968503937
11
5.7205669291338586
21
-3.8489999999999998
0
LINE
8
BLACK
6
CONTINUOUS
10
5.7205669291338586
20
-3.8489999999999998
11
5.721341220472441
21
-3.8416330314960629
0
LINE
8
BLACK
6
CONTINUOUS
10
5.721341220472441
20
-3.8416330314960629
11
5.7236302755905513
21
-3.8345880708661415
0
LINE
8
BLACK
6
CONTINUOUS
10
5.7236302755905513
20
-3.8345880708661415
11
5.72733405511811
21
-3.8281729527559056
0
LINE
8
BLACK
6
CONTINUOUS
10
5.72733405511811
20
-3.8281729527559056
11
5.7322906299212599
21
-3.8226681102362203
0
LINE
8
BLACK
6
CONTINUOUS
10
5.7322906299212599
20
-3.8226681102362203
11
5.7382834645669289
21
-3.8183140551181101
0
LINE
8
BLACK
6
CONTINUOUS
10
5.7382834645669289
20
-3.8183140551181101
11
5.7450505905511813
21
-3.8153011417322835
0
LINE
8
BLACK
6
CONTINUOUS
10
5.7450505905511813
20
-3.8153011417322835
11
5.7522962204724406
21
-3.8137610236220469
0
LINE
8
BLACK
6
CONTINUOUS
10
5.7522962204724406
20
-3.8137610236220469
11
5.759703779527559
21
-3.8137610236220469
0
LINE
8
BLACK
6
CONTINUOUS
10
5.759703779527559
20
-3.8137610236220469
11
5.7669494094488192
21
-3.8153011417322835
0
LINE
8
BLACK
6
CONTINUOUS
10
4.8560503937007873
20
-3.7654661417322832
11
4.8646603937007873
21
-3.7684219291338583
0
LINE
8
BLACK
6
CONTINUOUS
10
4.8646603937007873
20
-3.7684219291338583
11
4.8726664173228347
21
-3.7727546062992126
0
LINE
8
BLACK
6
CONTINUOUS
10
4.8726664173228347
20
-3.7727546062992126
11
4.8798501574803153
21
-3.7783459448818895
0
LINE
8
BLACK
6
CONTINUOUS
10
4.8798501574803153
20
-3.7783459448818895
11
4.8860156299212596
21
-3.7850433858267714
0
LINE
8
BLACK
6
CONTINUOUS
10
4.8860156299212596
20
-3.7850433858267714
11
4.8909946062992127
21
-3.7926643307086612
0
LINE
8
BLACK
6
CONTINUOUS
10
4.8909946062992127
20
-3.7926643307086612
11
4.8946513385826771
21
-3.8010008267716535
0
LINE
8
BLACK
6
CONTINUOUS
10
4.8946513385826771
20
-3.8010008267716535
11
4.8968860629921256
21
-3.8098255118110234
0
LINE
8
BLACK
6
CONTINUOUS
10
4.8968860629921256
20
-3.8098255118110234
11
4.8976377952755907
21
-3.8188976377952755
0
LINE
8
BLACK
6
CONTINUOUS
10
4.8976377952755907
20
-3.8188976377952755
11
4.8968860629921256
21
-3.8279697637795276
0
LINE
8
BLACK
6
CONTINUOUS
10
4.8968860629921256
20
-3.8279697637795276
11
4.8946513385826771
21
-3.8367944488188974
0
LINE
8
BLACK
6
CONTINUOUS
10
4.8946513385826771
20
-3.8367944488188974
11
4.8909946062992127
21
-3.8451309448818898
0
LINE
8
BLACK
6
CONTINUOUS
10
4.8909946062992127
20
-3.8451309448818898
11
4.8860156299212596
21
-3.8527518897637796
0
LINE
8
BLACK
6
CONTINUOUS
10
4.8860156299212596
20
-3.8527518897637796
11
4.8798501574803153
21
-3.8594493307086615
0
LINE
8
BLACK
6
CONTINUOUS
10
4.8798501574803153
20
-3.8594493307086615
11
4.8726664173228347
21
-3.8650406692913384
0
LINE
8
BLACK
6
CONTINUOUS
10
4.8726664173228347
20
-3.8650406692913384
11
4.8646603937007873
21
-3.8693733464566926
0
LINE
8
BLACK
6
CONTINUOUS
10
4.8646603937007873
20
-3.8693733464566926
11
4.8560503937007873
21
-3.8723291338582677
0
LINE
8
BLACK
6
CONTINUOUS
10
4.8560503937007873
20
-3.8723291338582677
11
4.8470712992125984
21
-3.8738274803149606
0
LINE
8
BLACK
6
CONTINUOUS
10
4.8470712992125984
20
-3.8738274803149606
11
4.8379680708661414
21
-3.8738274803149606
0
LINE
8
BLACK
6
CONTINUOUS
10
4.8379680708661414
20
-3.8738274803149606
11
4.8289889763779525
21
-3.8723291338582677
0
LINE
8
BLACK
6
CONTINUOUS
10
4.8289889763779525
20
-3.8723291338582677
11
4.8203789763779525
21
-3.8693733464566926
0
LINE
8
BLACK
6
CONTINUOUS
10
4.8203789763779525
20
-3.8693733464566926
11
4.8123729527559052
21
-3.8650406692913384
0
LINE
8
BLACK
6
CONTINUOUS
10
4.8123729527559052
20
-3.8650406692913384
11
4.8051892125984255
21
-3.8594493307086615
0
LINE
8
BLACK
6
CONTINUOUS
10
4.8051892125984255
20
-3.8594493307086615
11
4.7990237401574802
21
-3.8527518897637796
0
LINE
8
BLACK
6
CONTINUOUS
10
4.7990237401574802
20
-3.8527518897637796
11
4.7940447637795272
21
-3.8451309448818898
0
LINE
8
BLACK
6
CONTINUOUS
10
4.7940447637795272
20
-3.8451309448818898
11
4.7903880314960627
21
-3.8367944488188974
0
LINE
8
BLACK
6
CONTINUOUS
10
4.7903880314960627
20
-3.8367944488188974
11
4.7881533070866142
21
-3.8279697637795276
0
LINE
8
BLACK
6
CONTINUOUS
10
4.7881533070866142
20
-3.8279697637795276
11
4.7874015748031491
21
-3.8188976377952755
0
LINE
8
BLACK
6
CONTINUOUS
10
4.7874015748031491
20
-3.8188976377952755
11
4.7881533070866142
21
-3.8098255118110234
0
LINE
8
BLACK
6
CONTINUOUS
10
4.7881533070866142
20
-3.8098255118110234
11
4.7903880314960627
21
-3.8010008267716535
0
LINE
8
BLACK
6
CONTINUOUS
10
4.7903880314960627
20
-3.8010008267716535
11
4.7940447637795272
21
-3.7926643307086612
0
LINE
8
BLACK
6
CONTINUOUS
10
4.7940447637795272
20
-3.7926643307086612
11
4.7990237401574802
21
-3.7850433858267714
0
LINE
8
BLACK
6
CONTINUOUS
10
4.7990237401574802
20
-3.7850433858267714
11
4.8051892125984255
21
-3.7783459448818895
0
LINE
8
BLACK
6
CONTINUOUS
10
4.8051892125984255
20
-3.7783459448818895
11
4.8123729527559052
21
-3.7727546062992126
0
LINE
8
BLACK
6
CONTINUOUS
10
4.8123729527559052
20
-3.7727546062992126
11
4.8203789763779525
21
-3.7684219291338583
0
LINE
8
BLACK
6
CONTINUOUS
10
4.8203789763779525
20
-3.7684219291338583
11
4.8289889763779525
21
-3.7654661417322832
0
LINE
8
BLACK
6
CONTINUOUS
10
4.8289889763779525
20
-3.7654661417322832
11
4.8379680708661414
21
-3.7639677952755903
0
LINE
8
BLACK
6
CONTINUOUS
10
4.8379680708661414
20
-3.7639677952755903
11
4.8470712992125984
21
-3.7639677952755903
0
LINE
8
BLACK
6
CONTINUOUS
10
4.8470712992125984
20
-3.7639677952755903
11
4.8560503937007873
21
-3.7654661417322832
0
LINE
8
BLACK
6
CONTINUOUS
10
6.982034645669291
20
-3.7654661417322832
11
6.990644645669291
21
-3.7684219291338583
0
LINE
8
BLACK
6
CONTINUOUS
10
6.990644645669291
20
-3.7684219291338583
11
6.9986506692913384
21
-3.7727546062992126
0
LINE
8
BLACK
6
CONTINUOUS
10
6.9986506692913384
20
-3.7727546062992126
11
7.005834409448819
21
-3.7783459448818895
0
LINE
8
BLACK
6
CONTINUOUS
10
7.005834409448819
20
-3.7783459448818895
11
7.0119998818897633
21
-3.7850433858267714
0
LINE
8
BLACK
6
CONTINUOUS
10
7.0119998818897633
20
-3.7850433858267714
11
7.0169788582677164
21
-3.7926643307086612
0
LINE
8
BLACK
6
CONTINUOUS
10
7.0169788582677164
20
-3.7926643307086612
11
7.0206355905511808
21
-3.8010008267716535
0
LINE
8
BLACK
6
CONTINUOUS
10
7.0206355905511808
20
-3.8010008267716535
11
7.0228703149606302
21
-3.8098255118110234
0
LINE
8
BLACK
6
CONTINUOUS
10
7.0228703149606302
20
-3.8098255118110234
11
7.0236220472440944
21
-3.8188976377952755
0
LINE
8
BLACK
6
CONTINUOUS
10
7.0236220472440944
20
-3.8188976377952755
11
7.0228703149606302
21
-3.8279697637795276
0
LINE
8
BLACK
6
CONTINUOUS
10
7.0228703149606302
20
-3.8279697637795276
11
7.0206355905511808
21
-3.8367944488188974
0
LINE
8
BLACK
6
CONTINUOUS
10
7.0206355905511808
20
-3.8367944488188974
11
7.0169788582677164
21
-3.8451309448818898
0
LINE
8
BLACK
6
CONTINUOUS
10
7.0169788582677164
20
-3.8451309448818898
11
7.0119998818897633
21
-3.8527518897637796
0
LINE
8
BLACK
6
CONTINUOUS
10
7.0119998818897633
20
-3.8527518897637796
11
7.005834409448819
21
-3.8594493307086615
0
LINE
8
BLACK
6
CONTINUOUS
10
7.005834409448819
20
-3.8594493307086615
11
6.9986506692913384
21
-3.8650406692913384
0
LINE
8
BLACK
6
CONTINUOUS
10
6.9986506692913384
20
-3.8650406692913384
11
6.990644645669291
21
-3.8693733464566926
0
LINE
8
BLACK
6
CONTINUOUS
10
6.990644645669291
20
-3.8693733464566926
11
6.982034645669291
21
-3.8723291338582677
0
LINE
8
BLACK
6
CONTINUOUS
10
6.982034645669291
20
-3.8723291338582677
11
6.9730555511811021
21
-3.8738274803149606
0
LINE
8
BLACK
6
CONTINUOUS
10
6.9730555511811021
20
-3.8738274803149606
11
6.9639523228346452
21
-3.8738274803149606
0
LINE
8
BLACK
6
CONTINUOUS
10
6.9639523228346452
20
-3.8738274803149606
11
6.9549732283464563
21
-3.8723291338582677
0
LINE
8
BLACK
6
CONTINUOUS
10
6.9549732283464563
20
-3.8723291338582677
11
6.9463632283464563
21
-3.8693733464566926
0
LINE
8
BLACK
6
CONTINUOUS
10
6.9463632283464563
20
-3.8693733464566926
11
6.9383572047244089
21
-3.8650406692913384
0
LINE
8
BLACK
6
CONTINUOUS
10
6.9383572047244089
20
-3.8650406692913384
11
6.9311734645669292
21
-3.8594493307086615
0
LINE
8
BLACK
6
CONTINUOUS
10
6.9311734645669292
20
-3.8594493307086615
11
6.9250079921259839
21
-3.8527518897637796
0
LINE
8
BLACK
6
CONTINUOUS
10
6.9250079921259839
20
-3.8527518897637796
11
6.9200290157480318
21
-3.8451309448818898
0
LINE
8
BLACK
6
CONTINUOUS
10
6.9200290157480318
20
-3.8451309448818898
11
6.9163722834645665
21
-3.8367944488188974
0
LINE
8
BLACK
6
CONTINUOUS
10
6.9163722834645665
20
-3.8367944488188974
11
6.914137559055118
21
-3.8279697637795276
0
LINE
8
BLACK
6
CONTINUOUS
10
6.914137559055118
20
-3.8279697637795276
11
6.9133858267716537
21
-3.8188976377952755
0
LINE
8
BLACK
6
CONTINUOUS
10
6.9133858267716537
20
-3.8188976377952755
11
6.914137559055118
21
-3.8098255118110234
0
LINE
8
BLACK
6
CONTINUOUS
10
6.914137559055118
20
-3.8098255118110234
11
6.9163722834645665
21
-3.8010008267716535
0
LINE
8
BLACK
6
CONTINUOUS
10
6.9163722834645665
20
-3.8010008267716535
11
6.9200290157480318
21
-3.7926643307086612
0
LINE
8
BLACK
6
CONTINUOUS
10
6.9200290157480318
20
-3.7926643307086612
11
6.9250079921259839
21
-3.7850433858267714
0
LINE
8
BLACK
6
CONTINUOUS
10
6.9250079921259839
20
-3.7850433858267714
11
6.9311734645669292
21
-3.7783459448818895
0
LINE
8
BLACK
6
CONTINUOUS
10
6.9311734645669292
20
-3.7783459448818895
11
6.9383572047244089
21
-3.7727546062992126
0
LINE
8
BLACK
6
CONTINUOUS
10
6.9383572047244089
20
-3.7727546062992126
11
6.9463632283464563
21
-3.7684219291338583
0
LINE
8
BLACK
6
CONTINUOUS
10
6.9463632283464563
20
-3.7684219291338583
11
6.9549732283464563
21
-3.7654661417322832
0
LINE
8
BLACK
6
CONTINUOUS
10
6.9549732283464563
20
-3.7654661417322832
11
6.9639523228346452
21
-3.7639677952755903
0
LINE
8
BLACK
6
CONTINUOUS
10
6.9639523228346452
20
-3.7639677952755903
11
6.9730555511811021
21
-3.7639677952755903
0
LINE
8
BLACK
6
CONTINUOUS
10
6.9730555511811021
20
-3.7639677952755903
11
6.982034645669291
21
-3.7654661417322832
0
LINE
8
BLACK
6
CONTINUOUS
10
6.0142178740157481
20
-3.7147167716535434
11
6.0148564960629916
21
-3.715143503937008
0
LINE
8
BLACK
6
CONTINUOUS
10
6.0148564960629916
20
-3.715143503937008
11
6.0152832283464566
21
-3.7157821259842518
0
LINE
8
BLACK
6
CONTINUOUS
10
6.0152832283464566
20
-3.7157821259842518
11
6.0154330708661412
21
-3.7165354330708662
0
LINE
8
BLACK
6
CONTINUOUS
10
6.0154330708661412
20
-3.7165354330708662
11
6.0154330708661412
21
-3.7834645669291338
0
LINE
8
BLACK
6
CONTINUOUS
10
6.0154330708661412
20
-3.7834645669291338
11
6.0152832283464566
21
-3.7842178740157482
0
LINE
8
BLACK
6
CONTINUOUS
10
6.0152832283464566
20
-3.7842178740157482
11
6.0148564960629916
21
-3.784856496062992
0
LINE
8
BLACK
6
CONTINUOUS
10
6.0148564960629916
20
-3.784856496062992
11
6.0142178740157481
21
-3.7852832283464566
0
LINE
8
BLACK
6
CONTINUOUS
10
6.0142178740157481
20
-3.7852832283464566
11
6.0134645669291338
21
-3.7854330708661417
0
LINE
8
BLACK
6
CONTINUOUS
10
6.0134645669291338
20
-3.7854330708661417
11
5.9465354330708662
21
-3.7854330708661417
0
LINE
8
BLACK
6
CONTINUOUS
10
5.9465354330708662
20
-3.7854330708661417
11
5.9457821259842518
21
-3.7852832283464566
0
LINE
8
BLACK
6
CONTINUOUS
10
5.9457821259842518
20
-3.7852832283464566
11
5.9451435039370075
21
-3.784856496062992
0
LINE
8
BLACK
6
CONTINUOUS
10
5.9451435039370075
20
-3.784856496062992
11
5.9447167716535434
21
-3.7842178740157482
0
LINE
8
BLACK
6
CONTINUOUS
10
5.9447167716535434
20
-3.7842178740157482
11
5.9445669291338579
21
-3.7834645669291338
0
LINE
8
BLACK
6
CONTINUOUS
10
5.9445669291338579
20
-3.7834645669291338
11
5.9445669291338579
21
-3.7165354330708662
0
LINE
8
BLACK
6
CONTINUOUS
10
5.9445669291338579
20
-3.7165354330708662
11
5.9447167716535434
21
-3.7157821259842518
0
LINE
8
BLACK
6
CONTINUOUS
10
5.9447167716535434
20
-3.7157821259842518
11
5.9451435039370075
21
-3.715143503937008
0
LINE
8
BLACK
6
CONTINUOUS
10
5.9451435039370075
20
-3.715143503937008
11
5.9457821259842518
21
-3.7147167716535434
0
LINE
8
BLACK
6
CONTINUOUS
10
5.9457821259842518
20
-3.7147167716535434
11
5.9465354330708662
21
-3.7145669291338583
0
LINE
8
BLACK
6
CONTINUOUS
10
5.9465354330708662
20
-3.7145669291338583
11
6.0134645669291338
21
-3.7145669291338583
0
LINE
8
BLACK
6
CONTINUOUS
10
6.0134645669291338
20
-3.7145669291338583
11
6.0142178740157481
21
-3.7147167716535434
0
LINE
8
BLACK
6
CONTINUOUS
10
6.090949409448819
20
-3.7163011417322833
11
6.0977165354330705
21
-3.7193140551181103
0
LINE
8
BLACK
6
CONTINUOUS
10
6.0977165354330705
20
-3.7193140551181103
11
6.1037093700787404
21
-3.7236681102362206
0
LINE
8
BLACK
6
CONTINUOUS
10
6.1037093700787404
20
-3.7236681102362206
11
6.1086659448818894
21
-3.7291729527559054
0
LINE
8
BLACK
6
CONTINUOUS
10
6.1086659448818894
20
-3.7291729527559054
11
6.112369724409449
21
-3.7355880708661418
0
LINE
8
BLACK
6
CONTINUOUS
10
6.112369724409449
20
-3.7355880708661418
11
6.1146587795275593
21
-3.7426330314960627
0
LINE
8
BLACK
6
CONTINUOUS
10
6.1146587795275593
20
-3.7426330314960627
11
6.1154330708661417
21
-3.75
0
LINE
8
BLACK
6
CONTINUOUS
10
6.1154330708661417
20
-3.75
11
6.1146587795275593
21
-3.7573669685039368
0
LINE
8
BLACK
6
CONTINUOUS
10
6.1146587795275593
20
-3.7573669685039368
11
6.112369724409449
21
-3.7644119291338582
0
LINE
8
BLACK
6
CONTINUOUS
10
6.112369724409449
20
-3.7644119291338582
11
6.1086659448818894
21
-3.7708270472440946
0
LINE
8
BLACK
6
CONTINUOUS
10
6.1086659448818894
20
-3.7708270472440946
11
6.1037093700787404
21
-3.7763318897637794
0
LINE
8
BLACK
6
CONTINUOUS
10
6.1037093700787404
20
-3.7763318897637794
11
6.0977165354330705
21
-3.7806859448818897
0
LINE
8
BLACK
6
CONTINUOUS
10
6.0977165354330705
20
-3.7806859448818897
11
6.090949409448819
21
-3.7836988582677162
0
LINE
8
BLACK
6
CONTINUOUS
10
6.090949409448819
20
-3.7836988582677162
11
6.0837037795275588
21
-3.7852389763779528
0
LINE
8
BLACK
6
CONTINUOUS
10
6.0837037795275588
20
-3.7852389763779528
11
6.0762962204724404
21
-3.7852389763779528
0
LINE
8
BLACK
6
CONTINUOUS
10
6.0762962204724404
20
-3.7852389763779528
11
6.0690505905511811
21
-3.7836988582677162
0
LINE
8
BLACK
6
CONTINUOUS
10
6.0690505905511811
20
-3.7836988582677162
11
6.0622834645669288
21
-3.7806859448818897
0
LINE
8
BLACK
6
CONTINUOUS
10
6.0622834645669288
20
-3.7806859448818897
11
6.0562906299212598
21
-3.7763318897637794
0
LINE
8
BLACK
6
CONTINUOUS
10
6.0562906299212598
20
-3.7763318897637794
11
6.0513340551181098
21
-3.7708270472440946
0
LINE
8
BLACK
6
CONTINUOUS
10
6.0513340551181098
20
-3.7708270472440946
11
6.0476302755905511
21
-3.7644119291338582
0
LINE
8
BLACK
6
CONTINUOUS
10
6.0476302755905511
20
-3.7644119291338582
11
6.0453412204724408
21
-3.7573669685039368
0
LINE
8
BLACK
6
CONTINUOUS
10
6.0453412204724408
20
-3.7573669685039368
11
6.0445669291338584
21
-3.75
0
LINE
8
BLACK
6
CONTINUOUS
10
6.0445669291338584
20
-3.75
11
6.0453412204724408
21
-3.7426330314960627
0
LINE
8
BLACK
6
CONTINUOUS
10
6.0453412204724408
20
-3.7426330314960627
11
6.0476302755905511
21
-3.7355880708661418
0
LINE
8
BLACK
6
CONTINUOUS
10
6.0476302755905511
20
-3.7355880708661418
11
6.0513340551181098
21
-3.7291729527559054
0
LINE
8
BLACK
6
CONTINUOUS
10
6.0513340551181098
20
-3.7291729527559054
11
6.0562906299212598
21
-3.7236681102362206
0
LINE
8
BLACK
6
CONTINUOUS
10
6.0562906299212598
20
-3.7236681102362206
11
6.0622834645669288
21
-3.7193140551181103
0
LINE
8
BLACK
6
CONTINUOUS
10
6.0622834645669288
20
-3.7193140551181103
11
6.0690505905511811
21
-3.7163011417322833
0
LINE
8
BLACK
6
CONTINUOUS
10
6.0690505905511811
20
-3.7163011417322833
11
6.0762962204724404
21
-3.7147610236220472
0
LINE
8
BLACK
6
CONTINUOUS
10
6.0762962204724404
20
-3.7147610236220472
11
6.0837037795275588
21
-3.7147610236220472
0
LINE
8
BLACK
6
CONTINUOUS
10
6.0837037795275588
20
-3.7147610236220472
11
6.090949409448819
21
-3.7163011417322833
0
LINE
8
BLACK
6
CONTINUOUS
10
5.566949409448819
20
-3.7153011417322834
11
5.5737165354330704
21
-3.71831405511811
0
LINE
8
BLACK
6
CONTINUOUS
10
5.5737165354330704
20
-3.71831405511811
11
5.5797093700787403
21
-3.7226681102362202
0
LINE
8
BLACK
6
CONTINUOUS
10
5.5797093700787403
20
-3.7226681102362202
11
5.5846659448818894
21
-3.7281729527559055
0
LINE
8
BLACK
6
CONTINUOUS
10
5.5846659448818894
20
-3.7281729527559055
11
5.588369724409449
21
-3.7345880708661419
0
LINE
8
BLACK
6
CONTINUOUS
10
5.588369724409449
20
-3.7345880708661419
11
5.5906587795275593
21
-3.7416330314960629
0
LINE
8
BLACK
6
CONTINUOUS
10
5.5906587795275593
20
-3.7416330314960629
11
5.5914330708661417
21
-3.7490000000000001
0
LINE
8
BLACK
6
CONTINUOUS
10
5.5914330708661417
20
-3.7490000000000001
11
5.5906587795275593
21
-3.7563669685039369
0
LINE
8
BLACK
6
CONTINUOUS
10
5.5906587795275593
20
-3.7563669685039369
11
5.588369724409449
21
-3.7634119291338584
0
LINE
8
BLACK
6
CONTINUOUS
10
5.588369724409449
20
-3.7634119291338584
11
5.5846659448818894
21
-3.7698270472440942
0
LINE
8
BLACK
6
CONTINUOUS
10
5.5846659448818894
20
-3.7698270472440942
11
5.5797093700787403
21
-3.7753318897637795
0
LINE
8
BLACK
6
CONTINUOUS
10
5.5797093700787403
20
-3.7753318897637795
11
5.5737165354330704
21
-3.7796859448818898
0
LINE
8
BLACK
6
CONTINUOUS
10
5.5737165354330704
20
-3.7796859448818898
11
5.566949409448819
21
-3.7826988582677163
0
LINE
8
BLACK
6
CONTINUOUS
10
5.566949409448819
20
-3.7826988582677163
11
5.5597037795275588
21
-3.7842389763779525
0
LINE
8
BLACK
6
CONTINUOUS
10
5.5597037795275588
20
-3.7842389763779525
11
5.5522962204724404
21
-3.7842389763779525
0
LINE
8
BLACK
6
CONTINUOUS
10
5.5522962204724404
20
-3.7842389763779525
11
5.5450505905511811
21
-3.7826988582677163
0
LINE
8
BLACK
6
CONTINUOUS
10
5.5450505905511811
20
-3.7826988582677163
11
5.5382834645669288
21
-3.7796859448818898
0
LINE
8
BLACK
6
CONTINUOUS
10
5.5382834645669288
20
-3.7796859448818898
11
5.5322906299212598
21
-3.7753318897637795
0
LINE
8
BLACK
6
CONTINUOUS
10
5.5322906299212598
20
-3.7753318897637795
11
5.5273340551181098
21
-3.7698270472440942
0
LINE
8
BLACK
6
CONTINUOUS
10
5.5273340551181098
20
-3.7698270472440942
11
5.5236302755905511
21
-3.7634119291338584
0
LINE
8
BLACK
6
CONTINUOUS
10
5.5236302755905511
20
-3.7634119291338584
11
5.5213412204724408
21
-3.7563669685039369
0
LINE
8
BLACK
6
CONTINUOUS
10
5.5213412204724408
20
-3.7563669685039369
11
5.5205669291338584
21
-3.7490000000000001
0
LINE
8
BLACK
6
CONTINUOUS
10
5.5205669291338584
20
-3.7490000000000001
11
5.5213412204724408
21
-3.7416330314960629
0
LINE
8
BLACK
6
CONTINUOUS
10
5.5213412204724408
20
-3.7416330314960629
11
5.5236302755905511
21
-3.7345880708661419
0
LINE
8
BLACK
6
CONTINUOUS
10
5.5236302755905511
20
-3.7345880708661419
11
5.5273340551181098
21
-3.7281729527559055
0
LINE
8
BLACK
6
CONTINUOUS
10
5.5273340551181098
20
-3.7281729527559055
11
5.5322906299212598
21
-3.7226681102362202
0
LINE
8
BLACK
6
CONTINUOUS
10
5.5322906299212598
20
-3.7226681102362202
11
5.5382834645669288
21
-3.71831405511811
0
LINE
8
BLACK
6
CONTINUOUS
10
5.5382834645669288
20
-3.71831405511811
11
5.5450505905511811
21
-3.7153011417322834
0
LINE
8
BLACK
6
CONTINUOUS
10
5.5450505905511811
20
-3.7153011417322834
11
5.5522962204724404
21
-3.7137610236220473
0
LINE
8
BLACK
6
CONTINUOUS
10
5.5522962204724404
20
-3.7137610236220473
11
5.5597037795275588
21
-3.7137610236220473
0
LINE
8
BLACK
6
CONTINUOUS
10
5.5597037795275588
20
-3.7137610236220473
11
5.566949409448819
21
-3.7153011417322834
0
LINE
8
BLACK
6
CONTINUOUS
10
5.6669494094488186
20
-3.7153011417322834
11
5.673716535433071
21
-3.71831405511811
0
LINE
8
BLACK
6
CONTINUOUS
10
5.673716535433071
20
-3.71831405511811
11
5.67970937007874
21
-3.7226681102362202
0
LINE
8
BLACK
6
CONTINUOUS
10
5.67970937007874
20
-3.7226681102362202
11
5.6846659448818899
21
-3.7281729527559055
0
LINE
8
BLACK
6
CONTINUOUS
10
5.6846659448818899
20
-3.7281729527559055
11
5.6883697244094487
21
-3.7345880708661419
0
LINE
8
BLACK
6
CONTINUOUS
10
5.6883697244094487
20
-3.7345880708661419
11
5.6906587795275589
21
-3.7416330314960629
0
LINE
8
BLACK
6
CONTINUOUS
10
5.6906587795275589
20
-3.7416330314960629
11
5.6914330708661414
21
-3.7490000000000001
0
LINE
8
BLACK
6
CONTINUOUS
10
5.6914330708661414
20
-3.7490000000000001
11
5.6906587795275589
21
-3.7563669685039369
0
LINE
8
BLACK
6
CONTINUOUS
10
5.6906587795275589
20
-3.7563669685039369
11
5.6883697244094487
21
-3.7634119291338584
0
LINE
8
BLACK
6
CONTINUOUS
10
5.6883697244094487
20
-3.7634119291338584
11
5.6846659448818899
21
-3.7698270472440942
0
LINE
8
BLACK
6
CONTINUOUS
10
5.6846659448818899
20
-3.7698270472440942
11
5.67970937007874
21
-3.7753318897637795
0
LINE
8
BLACK
6
CONTINUOUS
10
5.67970937007874
20
-3.7753318897637795
11
5.673716535433071
21
-3.7796859448818898
0
LINE
8
BLACK
6
CONTINUOUS
10
5.673716535433071
20
-3.7796859448818898
11
5.6669494094488186
21
-3.7826988582677163
0
LINE
8
BLACK
6
CONTINUOUS
10
5.6669494094488186
20
-3.7826988582677163
11
5.6597037795275593
21
-3.7842389763779525
0
LINE
8
BLACK
6
CONTINUOUS
10
5.6597037795275593
20
-3.7842389763779525
11
5.652296220472441
21
-3.7842389763779525
0
LINE
8
BLACK
6
CONTINUOUS
10
5.652296220472441
20
-3.7842389763779525
11
5.6450505905511807
21
-3.7826988582677163
0
LINE
8
BLACK
6
CONTINUOUS
10
5.6450505905511807
20
-3.7826988582677163
11
5.6382834645669293
21
-3.7796859448818898
0
LINE
8
BLACK
6
CONTINUOUS
10
5.6382834645669293
20
-3.7796859448818898
11
5.6322906299212594
21
-3.7753318897637795
0
LINE
8
BLACK
6
CONTINUOUS
10
5.6322906299212594
20
-3.7753318897637795
11
5.6273340551181104
21
-3.7698270472440942
0
LINE
8
BLACK
6
CONTINUOUS
10
5.6273340551181104
20
-3.7698270472440942
11
5.6236302755905507
21
-3.7634119291338584
0
LINE
8
BLACK
6
CONTINUOUS
10
5.6236302755905507
20
-3.7634119291338584
11
5.6213412204724404
21
-3.7563669685039369
0
LINE
8
BLACK
6
CONTINUOUS
10
5.6213412204724404
20
-3.7563669685039369
11
5.620566929133858
21
-3.7490000000000001
0
LINE
8
BLACK
6
CONTINUOUS
10
5.620566929133858
20
-3.7490000000000001
11
5.6213412204724404
21
-3.7416330314960629
0
LINE
8
BLACK
6
CONTINUOUS
10
5.6213412204724404
20
-3.7416330314960629
11
5.6236302755905507
21
-3.7345880708661419
0
LINE
8
BLACK
6
CONTINUOUS
10
5.6236302755905507
20
-3.7345880708661419
11
5.6273340551181104
21
-3.7281729527559055
0
LINE
8
BLACK
6
CONTINUOUS
10
5.6273340551181104
20
-3.7281729527559055
11
5.6322906299212594
21
-3.7226681102362202
0
LINE
8
BLACK
6
CONTINUOUS
10
5.6322906299212594
20
-3.7226681102362202
11
5.6382834645669293
21
-3.71831405511811
0
LINE
8
BLACK
6
CONTINUOUS
10
5.6382834645669293
20
-3.71831405511811
11
5.6450505905511807
21
-3.7153011417322834
0
LINE
8
BLACK
6
CONTINUOUS
10
5.6450505905511807
20
-3.7153011417322834
11
5.652296220472441
21
-3.7137610236220473
0
LINE
8
BLACK
6
CONTINUOUS
10
5.652296220472441
20
-3.7137610236220473
11
5.6597037795275593
21
-3.7137610236220473
0
LINE
8
BLACK
6
CONTINUOUS
10
5.6597037795275593
20
-3.7137610236220473
11
5.6669494094488186
21
-3.7153011417322834
0
LINE
8
BLACK
6
CONTINUOUS
10
5.7669494094488192
20
-3.7153011417322834
11
5.7737165354330706
21
-3.71831405511811
0
LINE
8
BLACK
6
CONTINUOUS
10
5.7737165354330706
20
-3.71831405511811
11
5.7797093700787396
21
-3.7226681102362202
0
LINE
8
BLACK
6
CONTINUOUS
10
5.7797093700787396
20
-3.7226681102362202
11
5.7846659448818896
21
-3.7281729527559055
0
LINE
8
BLACK
6
CONTINUOUS
10
5.7846659448818896
20
-3.7281729527559055
11
5.7883697244094483
21
-3.7345880708661419
0
LINE
8
BLACK
6
CONTINUOUS
10
5.7883697244094483
20
-3.7345880708661419
11
5.7906587795275586
21
-3.7416330314960629
0
LINE
8
BLACK
6
CONTINUOUS
10
5.7906587795275586
20
-3.7416330314960629
11
5.7914330708661419
21
-3.7490000000000001
0
LINE
8
BLACK
6
CONTINUOUS
10
5.7914330708661419
20
-3.7490000000000001
11
5.7906587795275586
21
-3.7563669685039369
0
LINE
8
BLACK
6
CONTINUOUS
10
5.7906587795275586
20
-3.7563669685039369
11
5.7883697244094483
21
-3.7634119291338584
0
LINE
8
BLACK
6
CONTINUOUS
10
5.7883697244094483
20
-3.7634119291338584
11
5.7846659448818896
21
-3.7698270472440942
0
LINE
8
BLACK
6
CONTINUOUS
10
5.7846659448818896
20
-3.7698270472440942
11
5.7797093700787396
21
-3.7753318897637795
0
LINE
8
BLACK
6
CONTINUOUS
10
5.7797093700787396
20
-3.7753318897637795
11
5.7737165354330706
21
-3.7796859448818898
0
LINE
8
BLACK
6
CONTINUOUS
10
5.7737165354330706
20
-3.7796859448818898
11
5.7669494094488192
21
-3.7826988582677163
0
LINE
8
BLACK
6
CONTINUOUS
10
5.7669494094488192
20
-3.7826988582677163
11
5.759703779527559
21
-3.7842389763779525
0
LINE
8
BLACK
6
CONTINUOUS
10
5.759703779527559
20
-3.7842389763779525
11
5.7522962204724406
21
-3.7842389763779525
0
LINE
8
BLACK
6
CONTINUOUS
10
5.7522962204724406
20
-3.7842389763779525
11
5.7450505905511813
21
-3.7826988582677163
0
LINE
8
BLACK
6
CONTINUOUS
10
5.7450505905511813
20
-3.7826988582677163
11
5.7382834645669289
21
-3.7796859448818898
0
LINE
8
BLACK
6
CONTINUOUS
10
5.7382834645669289
20
-3.7796859448818898
11
5.7322906299212599
21
-3.7753318897637795
0
LINE
8
BLACK
6
CONTINUOUS
10
5.7322906299212599
20
-3.7753318897637795
11
5.72733405511811
21
-3.7698270472440942
0
LINE
8
BLACK
6
CONTINUOUS
10
5.72733405511811
20
-3.7698270472440942
11
5.7236302755905513
21
-3.7634119291338584
0
LINE
8
BLACK
6
CONTINUOUS
10
5.7236302755905513
20
-3.7634119291338584
11
5.721341220472441
21
-3.7563669685039369
0
LINE
8
BLACK
6
CONTINUOUS
10
5.721341220472441
20
-3.7563669685039369
11
5.7205669291338586
21
-3.7490000000000001
0
LINE
8
BLACK
6
CONTINUOUS
10
5.7205669291338586
20
-3.7490000000000001
11
5.721341220472441
21
-3.7416330314960629
0
LINE
8
BLACK
6
CONTINUOUS
10
5.721341220472441
20
-3.7416330314960629
11
5.7236302755905513
21
-3.7345880708661419
0
LINE
8
BLACK
6
CONTINUOUS
10
5.7236302755905513
20
-3.7345880708661419
11
5.72733405511811
21
-3.7281729527559055
0
LINE
8
BLACK
6
CONTINUOUS
10
5.72733405511811
20
-3.7281729527559055
11
5.7322906299212599
21
-3.7226681102362202
0
LINE
8
BLACK
6
CONTINUOUS
10
5.7322906299212599
20
-3.7226681102362202
11
5.7382834645669289
21
-3.71831405511811
0
LINE
8
BLACK
6
CONTINUOUS
10
5.7382834645669289
20
-3.71831405511811
11
5.7450505905511813
21
-3.7153011417322834
0
LINE
8
BLACK
6
CONTINUOUS
10
5.7450505905511813
20
-3.7153011417322834
11
5.7522962204724406
21
-3.7137610236220473
0
LINE
8
BLACK
6
CONTINUOUS
10
5.7522962204724406
20
-3.7137610236220473
11
5.759703779527559
21
-3.7137610236220473
0
LINE
8
BLACK
6
CONTINUOUS
10
5.759703779527559
20
-3.7137610236220473
11
5.7669494094488192
21
-3.7153011417322834
0
LINE
8
BLACK
6
CONTINUOUS
10
7.0377592519685042
20
-3.4164125196850392
11
7.0483662598425196
21
-3.4193844488188976
0
LINE
8
BLACK
6
CONTINUOUS
10
7.0483662598425196
20
-3.4193844488188976
11
7.058469803149606
21
-3.4237730314960628
0
LINE
8
BLACK
6
CONTINUOUS
10
7.058469803149606
20
-3.4237730314960628
11
7.0678816929133861
21
-3.4294965354330706
0
LINE
8
BLACK
6
CONTINUOUS
10
7.0678816929133861
20
-3.4294965354330706
11
7.0764265354330709
21
-3.4364482677165356
0
LINE
8
BLACK
6
CONTINUOUS
10
7.0764265354330709
20
-3.4364482677165356
11
7.0839451968503937
21
-3.4444988188976375
0
LINE
8
BLACK
6
CONTINUOUS
10
7.0839451968503937
20
-3.4444988188976375
11
7.0902976377952758
21
-3.4534981496062991
0
LINE
8
BLACK
6
CONTINUOUS
10
7.0902976377952758
20
-3.4534981496062991
11
7.0953654724409443
21
-3.4632786614173225
0
LINE
8
BLACK
6
CONTINUOUS
10
7.0953654724409443
20
-3.4632786614173225
11
7.0990543307086611
21
-3.4736581496062993
0
LINE
8
BLACK
6
CONTINUOUS
10
7.0990543307086611
20
-3.4736581496062993
11
7.1012955118110233
21
-3.4844432283464566
0
LINE
8
BLACK
6
CONTINUOUS
10
7.1012955118110233
20
-3.4844432283464566
11
7.1020472440944884
21
-3.4954330708661416
0
LINE
8
BLACK
6
CONTINUOUS
10
7.1020472440944884
20
-3.4954330708661416
11
7.1012955118110233
21
-3.5064229133858267
0
LINE
8
BLACK
6
CONTINUOUS
10
7.1012955118110233
20
-3.5064229133858267
11
7.0990543307086611
21
-3.517207992125984
0
LINE
8
BLACK
6
CONTINUOUS
10
7.0990543307086611
20
-3.517207992125984
11
7.0953654724409443
21
-3.5275874803149607
0
LINE
8
BLACK
6
CONTINUOUS
10
7.0953654724409443
20
-3.5275874803149607
11
7.0902976377952758
21
-3.5373679921259842
0
LINE
8
BLACK
6
CONTINUOUS
10
7.0902976377952758
20
-3.5373679921259842
11
7.0839451968503937
21
-3.5463673228346457
0
LINE
8
BLACK
6
CONTINUOUS
10
7.0839451968503937
20
-3.5463673228346457
11
7.0764265354330709
21
-3.5544178740157482
0
LINE
8
BLACK
6
CONTINUOUS
10
7.0764265354330709
20
-3.5544178740157482
11
7.0678816929133861
21
-3.5613696062992126
0
LINE
8
BLACK
6
CONTINUOUS
10
7.0678816929133861
20
-3.5613696062992126
11
7.058469803149606
21
-3.5670931102362204
0
LINE
8
BLACK
6
CONTINUOUS
10
7.058469803149606
20
-3.5670931102362204
11
7.0483662598425196
21
-3.5714816929133857
0
LINE
8
BLACK
6
CONTINUOUS
10
7.0483662598425196
20
-3.5714816929133857
11
7.0377592519685042
21
-3.574453622047244
0
LINE
8
BLACK
6
CONTINUOUS
10
7.0377592519685042
20
-3.574453622047244
11
7.0268463385826774
21
-3.5759535826771653
0
LINE
8
BLACK
6
CONTINUOUS
10
7.0268463385826774
20
-3.5759535826771653
11
7.0158308267716532
21
-3.5759535826771653
0
LINE
8
BLACK
6
CONTINUOUS
10
7.0158308267716532
20
-3.5759535826771653
11
7.0049179133858264
21
-3.574453622047244
0
LINE
8
BLACK
6
CONTINUOUS
10
7.0049179133858264
20
-3.574453622047244
11
6.9943109055118109
21
-3.5714816929133857
0
LINE
8
BLACK
6
CONTINUOUS
10
6.9943109055118109
20
-3.5714816929133857
11
6.9842073622047245
21
-3.5670931102362204
0
LINE
8
BLACK
6
CONTINUOUS
10
6.9842073622047245
20
-3.5670931102362204
11
6.9747954724409444
21
-3.5613696062992126
0
LINE
8
BLACK
6
CONTINUOUS
10
6.9747954724409444
20
-3.5613696062992126
11
6.9662506299212597
21
-3.5544178740157482
0
LINE
8
BLACK
6
CONTINUOUS
10
6.9662506299212597
20
-3.5544178740157482
11
6.9587319685039368
21
-3.5463673228346457
0
LINE
8
BLACK
6
CONTINUOUS
10
6.9587319685039368
20
-3.5463673228346457
11
6.9523795275590548
21
-3.5373679921259842
0
LINE
8
BLACK
6
CONTINUOUS
10
6.9523795275590548
20
-3.5373679921259842
11
6.9473116929133854
21
-3.5275874803149607
0
LINE
8
BLACK
6
CONTINUOUS
10
6.9473116929133854
20
-3.5275874803149607
11
6.9436228346456694
21
-3.517207992125984
0
LINE
8
BLACK
6
CONTINUOUS
10
6.9436228346456694
20
-3.517207992125984
11
6.9413816535433073
21
-3.5064229133858267
0
LINE
8
BLACK
6
CONTINUOUS
10
6.9413816535433073
20
-3.5064229133858267
11
6.9406299212598421
21
-3.4954330708661416
0
LINE
8
BLACK
6
CONTINUOUS
10
6.9406299212598421
20
-3.4954330708661416
11
6.9413816535433073
21
-3.4844432283464566
0
LINE
8
BLACK
6
CONTINUOUS
10
6.9413816535433073
20
-3.4844432283464566
11
6.9436228346456694
21
-3.4736581496062993
0
LINE
8
BLACK
6
CONTINUOUS
10
6.9436228346456694
20
-3.4736581496062993
11
6.9473116929133854
21
-3.4632786614173225
0
LINE
8
BLACK
6
CONTINUOUS
10
6.9473116929133854
20
-3.4632786614173225
11
6.9523795275590548
21
-3.4534981496062991
0
LINE
8
BLACK
6
CONTINUOUS
10
6.9523795275590548
20
-3.4534981496062991
11
6.9587319685039368
21
-3.4444988188976375
0
LINE
8
BLACK
6
CONTINUOUS
10
6.9587319685039368
20
-3.4444988188976375
11
6.9662506299212597
21
-3.4364482677165356
0
LINE
8
BLACK
6
CONTINUOUS
10
6.9662506299212597
20
-3.4364482677165356
11
6.9747954724409444
21
-3.4294965354330706
0
LINE
8
BLACK
6
CONTINUOUS
10
6.9747954724409444
20
-3.4294965354330706
11
6.9842073622047245
21
-3.4237730314960628
0
LINE
8
BLACK
6
CONTINUOUS
10
6.9842073622047245
20
-3.4237730314960628
11
6.9943109055118109
21
-3.4193844488188976
0
LINE
8
BLACK
6
CONTINUOUS
10
6.9943109055118109
20
-3.4193844488188976
11
7.0049179133858264
21
-3.4164125196850392
0
LINE
8
BLACK
6
CONTINUOUS
10
7.0049179133858264
20
-3.4164125196850392
11
7.0158308267716532
21
-3.4149125590551179
0
LINE
8
BLACK
6
CONTINUOUS
10
7.0158308267716532
20
-3.4149125590551179
11
7.0268463385826774
21
-3.4149125590551179
0
LINE
8
BLACK
6
CONTINUOUS
10
7.0268463385826774
20
-3.4149125590551179
11
7.0377592519685042
21
-3.4164125196850392
0
LINE
8
BLACK
6
CONTINUOUS
10
5.5609494094488188
20
-3.5063011417322834
11
5.5677165354330711
21
-3.5093140551181103
0
LINE
8
BLACK
6
CONTINUOUS
10
5.5677165354330711
20
-3.5093140551181103
11
5.5737093700787401
21
-3.5136681102362206
0
LINE
8
BLACK
6
CONTINUOUS
10
5.5737093700787401
20
-3.5136681102362206
11
5.57866594488189
21
-3.5191729527559055
0
LINE
8
BLACK
6
CONTINUOUS
10
5.57866594488189
20
-3.5191729527559055
11
5.5823697244094488
21
-3.5255880708661418
0
LINE
8
BLACK
6
CONTINUOUS
10
5.5823697244094488
20
-3.5255880708661418
11
5.5846587795275591
21
-3.5326330314960628
0
LINE
8
BLACK
6
CONTINUOUS
10
5.5846587795275591
20
-3.5326330314960628
11
5.5854330708661415
21
-3.54
0
LINE
8
BLACK
6
CONTINUOUS
10
5.5854330708661415
20
-3.54
11
5.5846587795275591
21
-3.5473669685039368
0
LINE
8
BLACK
6
CONTINUOUS
10
5.5846587795275591
20
-3.5473669685039368
11
5.5823697244094488
21
-3.5544119291338583
0
LINE
8
BLACK
6
CONTINUOUS
10
5.5823697244094488
20
-3.5544119291338583
11
5.57866594488189
21
-3.5608270472440946
0
LINE
8
BLACK
6
CONTINUOUS
10
5.57866594488189
20
-3.5608270472440946
11
5.5737093700787401
21
-3.5663318897637795
0
LINE
8
BLACK
6
CONTINUOUS
10
5.5737093700787401
20
-3.5663318897637795
11
5.5677165354330711
21
-3.5706859448818897
0
LINE
8
BLACK
6
CONTINUOUS
10
5.5677165354330711
20
-3.5706859448818897
11
5.5609494094488188
21
-3.5736988582677163
0
LINE
8
BLACK
6
CONTINUOUS
10
5.5609494094488188
20
-3.5736988582677163
11
5.5537037795275586
21
-3.5752389763779528
0
LINE
8
BLACK
6
CONTINUOUS
10
5.5537037795275586
20
-3.5752389763779528
11
5.5462962204724411
21
-3.5752389763779528
0
LINE
8
BLACK
6
CONTINUOUS
10
5.5462962204724411
20
-3.5752389763779528
11
5.5390505905511809
21
-3.5736988582677163
0
LINE
8
BLACK
6
CONTINUOUS
10
5.5390505905511809
20
-3.5736988582677163
11
5.5322834645669294
21
-3.5706859448818897
0
LINE
8
BLACK
6
CONTINUOUS
10
5.5322834645669294
20
-3.5706859448818897
11
5.5262906299212595
21
-3.5663318897637795
0
LINE
8
BLACK
6
CONTINUOUS
10
5.5262906299212595
20
-3.5663318897637795
11
5.5213340551181105
21
-3.5608270472440946
0
LINE
8
BLACK
6
CONTINUOUS
10
5.5213340551181105
20
-3.5608270472440946
11
5.5176302755905509
21
-3.5544119291338583
0
LINE
8
BLACK
6
CONTINUOUS
10
5.5176302755905509
20
-3.5544119291338583
11
5.5153412204724406
21
-3.5473669685039368
0
LINE
8
BLACK
6
CONTINUOUS
10
5.5153412204724406
20
-3.5473669685039368
11
5.5145669291338582
21
-3.54
0
LINE
8
BLACK
6
CONTINUOUS
10
5.5145669291338582
20
-3.54
11
5.5153412204724406
21
-3.5326330314960628
0
LINE
8
BLACK
6
CONTINUOUS
10
5.5153412204724406
20
-3.5326330314960628
11
5.5176302755905509
21
-3.5255880708661418
0
LINE
8
BLACK
6
CONTINUOUS
10
5.5176302755905509
20
-3.5255880708661418
11
5.5213340551181105
21
-3.5191729527559055
0
LINE
8
BLACK
6
CONTINUOUS
10
5.5213340551181105
20
-3.5191729527559055
11
5.5262906299212595
21
-3.5136681102362206
0
LINE
8
BLACK
6
CONTINUOUS
10
5.5262906299212595
20
-3.5136681102362206
11
5.5322834645669294
21
-3.5093140551181103
0
LINE
8
BLACK
6
CONTINUOUS
10
5.5322834645669294
20
-3.5093140551181103
11
5.5390505905511809
21
-3.5063011417322834
0
LINE
8
BLACK
6
CONTINUOUS
10
5.5390505905511809
20
-3.5063011417322834
11
5.5462962204724411
21
-3.5047610236220472
0
LINE
8
BLACK
6
CONTINUOUS
10
5.5462962204724411
20
-3.5047610236220472
11
5.5537037795275586
21
-3.5047610236220472
0
LINE
8
BLACK
6
CONTINUOUS
10
5.5537037795275586
20
-3.5047610236220472
11
5.5609494094488188
21
-3.5063011417322834
0
LINE
8
BLACK
6
CONTINUOUS
10
5.5609494094488188
20
-3.4063011417322833
11
5.5677165354330711
21
-3.4093140551181103
0
LINE
8
BLACK
6
CONTINUOUS
10
5.5677165354330711
20
-3.4093140551181103
11
5.5737093700787401
21
-3.4136681102362205
0
LINE
8
BLACK
6
CONTINUOUS
10
5.5737093700787401
20
-3.4136681102362205
11
5.57866594488189
21
-3.4191729527559054
0
LINE
8
BLACK
6
CONTINUOUS
10
5.57866594488189
20
-3.4191729527559054
11
5.5823697244094488
21
-3.4255880708661417
0
LINE
8
BLACK
6
CONTINUOUS
10
5.5823697244094488
20
-3.4255880708661417
11
5.5846587795275591
21
-3.4326330314960627
0
LINE
8
BLACK
6
CONTINUOUS
10
5.5846587795275591
20
-3.4326330314960627
11
5.5854330708661415
21
-3.4399999999999999
0
LINE
8
BLACK
6
CONTINUOUS
10
5.5854330708661415
20
-3.4399999999999999
11
5.5846587795275591
21
-3.4473669685039368
0
LINE
8
BLACK
6
CONTINUOUS
10
5.5846587795275591
20
-3.4473669685039368
11
5.5823697244094488
21
-3.4544119291338582
0
LINE
8
BLACK
6
CONTINUOUS
10
5.5823697244094488
20
-3.4544119291338582
11
5.57866594488189
21
-3.4608270472440945
0
LINE
8
BLACK
6
CONTINUOUS
10
5.57866594488189
20
-3.4608270472440945
11
5.5737093700787401
21
-3.4663318897637794
0
LINE
8
BLACK
6
CONTINUOUS
10
5.5737093700787401
20
-3.4663318897637794
11
5.5677165354330711
21
-3.4706859448818896
0
LINE
8
BLACK
6
CONTINUOUS
10
5.5677165354330711
20
-3.4706859448818896
11
5.5609494094488188
21
-3.4736988582677166
0
LINE
8
BLACK
6
CONTINUOUS
10
5.5609494094488188
20
-3.4736988582677166
11
5.5537037795275586
21
-3.4752389763779528
0
LINE
8
BLACK
6
CONTINUOUS
10
5.5537037795275586
20
-3.4752389763779528
11
5.5462962204724411
21
-3.4752389763779528
0
LINE
8
BLACK
6
CONTINUOUS
10
5.5462962204724411
20
-3.4752389763779528
11
5.5390505905511809
21
-3.4736988582677166
0
LINE
8
BLACK
6
CONTINUOUS
10
5.5390505905511809
20
-3.4736988582677166
11
5.5322834645669294
21
-3.4706859448818896
0
LINE
8
BLACK
6
CONTINUOUS
10
5.5322834645669294
20
-3.4706859448818896
11
5.5262906299212595
21
-3.4663318897637794
0
LINE
8
BLACK
6
CONTINUOUS
10
5.5262906299212595
20
-3.4663318897637794
11
5.5213340551181105
21
-3.4608270472440945
0
LINE
8
BLACK
6
CONTINUOUS
10
5.5213340551181105
20
-3.4608270472440945
11
5.5176302755905509
21
-3.4544119291338582
0
LINE
8
BLACK
6
CONTINUOUS
10
5.5176302755905509
20
-3.4544119291338582
11
5.5153412204724406
21
-3.4473669685039368
0
LINE
8
BLACK
6
CONTINUOUS
10
5.5153412204724406
20
-3.4473669685039368
11
5.5145669291338582
21
-3.4399999999999999
0
LINE
8
BLACK
6
CONTINUOUS
10
5.5145669291338582
20
-3.4399999999999999
11
5.5153412204724406
21
-3.4326330314960627
0
LINE
8
BLACK
6
CONTINUOUS
10
5.5153412204724406
20
-3.4326330314960627
11
5.5176302755905509
21
-3.4255880708661417
0
LINE
8
BLACK
6
CONTINUOUS
10
5.5176302755905509
20
-3.4255880708661417
11
5.5213340551181105
21
-3.4191729527559054
0
LINE
8
BLACK
6
CONTINUOUS
10
5.5213340551181105
20
-3.4191729527559054
11
5.5262906299212595
21
-3.4136681102362205
0
LINE
8
BLACK
6
CONTINUOUS
10
5.5262906299212595
20
-3.4136681102362205
11
5.5322834645669294
21
-3.4093140551181103
0
LINE
8
BLACK
6
CONTINUOUS
10
5.5322834645669294
20
-3.4093140551181103
11
5.5390505905511809
21
-3.4063011417322833
0
LINE
8
BLACK
6
CONTINUOUS
10
5.5390505905511809
20
-3.4063011417322833
11
5.5462962204724411
21
-3.4047610236220471
0
LINE
8
BLACK
6
CONTINUOUS
10
5.5462962204724411
20
-3.4047610236220471
11
5.5537037795275586
21
-3.4047610236220471
0
LINE
8
BLACK
6
CONTINUOUS
10
5.5537037795275586
20
-3.4047610236220471
11
5.5609494094488188
21
-3.4063011417322833
0
LINE
8
BLACK
6
CONTINUOUS
10
5.5609494094488188
20
-3.3063011417322832
11
5.5677165354330711
21
-3.3093140551181102
0
LINE
8
BLACK
6
CONTINUOUS
10
5.5677165354330711
20
-3.3093140551181102
11
5.5737093700787401
21
-3.3136681102362204
0
LINE
8
BLACK
6
CONTINUOUS
10
5.5737093700787401
20
-3.3136681102362204
11
5.57866594488189
21
-3.3191729527559053
0
LINE
8
BLACK
6
CONTINUOUS
10
5.57866594488189
20
-3.3191729527559053
11
5.5823697244094488
21
-3.3255880708661416
0
LINE
8
BLACK
6
CONTINUOUS
10
5.5823697244094488
20
-3.3255880708661416
11
5.5846587795275591
21
-3.332633031496063
0
LINE
8
BLACK
6
CONTINUOUS
10
5.5846587795275591
20
-3.332633031496063
11
5.5854330708661415
21
-3.3399999999999999
0
LINE
8
BLACK
6
CONTINUOUS
10
5.5854330708661415
20
-3.3399999999999999
11
5.5846587795275591
21
-3.3473669685039371
0
LINE
8
BLACK
6
CONTINUOUS
10
5.5846587795275591
20
-3.3473669685039371
11
5.5823697244094488
21
-3.3544119291338581
0
LINE
8
BLACK
6
CONTINUOUS
10
5.5823697244094488
20
-3.3544119291338581
11
5.57866594488189
21
-3.3608270472440944
0
LINE
8
BLACK
6
CONTINUOUS
10
5.57866594488189
20
-3.3608270472440944
11
5.5737093700787401
21
-3.3663318897637793
0
LINE
8
BLACK
6
CONTINUOUS
10
5.5737093700787401
20
-3.3663318897637793
11
5.5677165354330711
21
-3.3706859448818896
0
LINE
8
BLACK
6
CONTINUOUS
10
5.5677165354330711
20
-3.3706859448818896
11
5.5609494094488188
21
-3.3736988582677165
0
LINE
8
BLACK
6
CONTINUOUS
10
5.5609494094488188
20
-3.3736988582677165
11
5.5537037795275586
21
-3.3752389763779527
0
LINE
8
BLACK
6
CONTINUOUS
10
5.5537037795275586
20
-3.3752389763779527
11
5.5462962204724411
21
-3.3752389763779527
0
LINE
8
BLACK
6
CONTINUOUS
10
5.5462962204724411
20
-3.3752389763779527
11
5.5390505905511809
21
-3.3736988582677165
0
LINE
8
BLACK
6
CONTINUOUS
10
5.5390505905511809
20
-3.3736988582677165
11
5.5322834645669294
21
-3.3706859448818896
0
LINE
8
BLACK
6
CONTINUOUS
10
5.5322834645669294
20
-3.3706859448818896
11
5.5262906299212595
21
-3.3663318897637793
0
LINE
8
BLACK
6
CONTINUOUS
10
5.5262906299212595
20
-3.3663318897637793
11
5.5213340551181105
21
-3.3608270472440944
0
LINE
8
BLACK
6
CONTINUOUS
10
5.5213340551181105
20
-3.3608270472440944
11
5.5176302755905509
21
-3.3544119291338581
0
LINE
8
BLACK
6
CONTINUOUS
10
5.5176302755905509
20
-3.3544119291338581
11
5.5153412204724406
21
-3.3473669685039371
0
LINE
8
BLACK
6
CONTINUOUS
10
5.5153412204724406
20
-3.3473669685039371
11
5.5145669291338582
21
-3.3399999999999999
0
LINE
8
BLACK
6
CONTINUOUS
10
5.5145669291338582
20
-3.3399999999999999
11
5.5153412204724406
21
-3.332633031496063
0
LINE
8
BLACK
6
CONTINUOUS
10
5.5153412204724406
20
-3.332633031496063
11
5.5176302755905509
21
-3.3255880708661416
0
LINE
8
BLACK
6
CONTINUOUS
10
5.5176302755905509
20
-3.3255880708661416
11
5.5213340551181105
21
-3.3191729527559053
0
LINE
8
BLACK
6
CONTINUOUS
10
5.5213340551181105
20
-3.3191729527559053
11
5.5262906299212595
21
-3.3136681102362204
0
LINE
8
BLACK
6
CONTINUOUS
10
5.5262906299212595
20
-3.3136681102362204
11
5.5322834645669294
21
-3.3093140551181102
0
LINE
8
BLACK
6
CONTINUOUS
10
5.5322834645669294
20
-3.3093140551181102
11
5.5390505905511809
21
-3.3063011417322832
0
LINE
8
BLACK
6
CONTINUOUS
10
5.5390505905511809
20
-3.3063011417322832
11
5.5462962204724411
21
-3.304761023622047
0
LINE
8
BLACK
6
CONTINUOUS
10
5.5462962204724411
20
-3.304761023622047
11
5.5537037795275586
21
-3.304761023622047
0
LINE
8
BLACK
6
CONTINUOUS
10
5.5537037795275586
20
-3.304761023622047
11
5.5609494094488188
21
-3.3063011417322832
0
LINE
8
BLACK
6
CONTINUOUS
10
6.145604330708661
20
-3.3090842913385825
11
6.1508267716535432
21
-3.3112474803149605
0
LINE
8
BLACK
6
CONTINUOUS
10
6.1508267716535432
20
-3.3112474803149605
11
6.1553113779527555
21
-3.3146886220472442
0
LINE
8
BLACK
6
CONTINUOUS
10
6.1553113779527555
20
-3.3146886220472442
11
6.1587525196850397
21
-3.3191732283464566
0
LINE
8
BLACK
6
CONTINUOUS
10
6.1587525196850397
20
-3.3191732283464566
11
6.1609157086614168
21
-3.3243956692913383
0
LINE
8
BLACK
6
CONTINUOUS
10
6.1609157086614168
20
-3.3243956692913383
11
6.1616535433070867
21
-3.3300000000000001
0
LINE
8
BLACK
6
CONTINUOUS
10
6.1616535433070867
20
-3.3300000000000001
11
6.1609157086614168
21
-3.3356043307086614
0
LINE
8
BLACK
6
CONTINUOUS
10
6.1609157086614168
20
-3.3356043307086614
11
6.1587525196850397
21
-3.3408267716535431
0
LINE
8
BLACK
6
CONTINUOUS
10
6.1587525196850397
20
-3.3408267716535431
11
6.1553113779527555
21
-3.3453113779527559
0
LINE
8
BLACK
6
CONTINUOUS
10
6.1553113779527555
20
-3.3453113779527559
11
6.1508267716535432
21
-3.3487525196850392
0
LINE
8
BLACK
6
CONTINUOUS
10
6.1508267716535432
20
-3.3487525196850392
11
6.145604330708661
21
-3.3509157086614172
0
LINE
8
BLACK
6
CONTINUOUS
10
6.145604330708661
20
-3.3509157086614172
11
6.1399999999999997
21
-3.3516535433070866
0
LINE
8
BLACK
6
CONTINUOUS
10
6.1399999999999997
20
-3.3516535433070866
11
6.1343956692913384
21
-3.3509157086614172
0
LINE
8
BLACK
6
CONTINUOUS
10
6.1343956692913384
20
-3.3509157086614172
11
6.1291732283464562
21
-3.3487525196850392
0
LINE
8
BLACK
6
CONTINUOUS
10
6.1291732283464562
20
-3.3487525196850392
11
6.1246886220472438
21
-3.3453113779527559
0
LINE
8
BLACK
6
CONTINUOUS
10
6.1246886220472438
20
-3.3453113779527559
11
6.1212474803149606
21
-3.3408267716535431
0
LINE
8
BLACK
6
CONTINUOUS
10
6.1212474803149606
20
-3.3408267716535431
11
6.1190842913385826
21
-3.3356043307086614
0
LINE
8
BLACK
6
CONTINUOUS
10
6.1190842913385826
20
-3.3356043307086614
11
6.1183464566929135
21
-3.3300000000000001
0
LINE
8
BLACK
6
CONTINUOUS
10
6.1183464566929135
20
-3.3300000000000001
11
6.1190842913385826
21
-3.3243956692913383
0
LINE
8
BLACK
6
CONTINUOUS
10
6.1190842913385826
20
-3.3243956692913383
11
6.1212474803149606
21
-3.3191732283464566
0
LINE
8
BLACK
6
CONTINUOUS
10
6.1212474803149606
20
-3.3191732283464566
11
6.1246886220472438
21
-3.3146886220472442
0
LINE
8
BLACK
6
CONTINUOUS
10
6.1246886220472438
20
-3.3146886220472442
11
6.1291732283464562
21
-3.3112474803149605
0
LINE
8
BLACK
6
CONTINUOUS
10
6.1291732283464562
20
-3.3112474803149605
11
6.1343956692913384
21
-3.3090842913385825
0
LINE
8
BLACK
6
CONTINUOUS
10
6.1343956692913384
20
-3.3090842913385825
11
6.1399999999999997
21
-3.3083464566929135
0
LINE
8
BLACK
6
CONTINUOUS
10
6.1399999999999997
20
-3.3083464566929135
11
6.145604330708661
21
-3.3090842913385825
0
LINE
8
BLACK
6
CONTINUOUS
10
6.8403411023622045
20
-3.2765985039370076
11
6.8467322834645667
21
-3.2794440157480316
0
LINE
8
BLACK
6
CONTINUOUS
10
6.8467322834645667
20
-3.2794440157480316
11
6.8523921653543303
21
-3.2835561811023619
0
LINE
8
BLACK
6
CONTINUOUS
10
6.8523921653543303
20
-3.2835561811023619
11
6.8570733858267712
21
-3.2887552362204722
0
LINE
8
BLACK
6
CONTINUOUS
10
6.8570733858267712
20
-3.2887552362204722
11
6.8605714173228343
21
-3.2948139370078739
0
LINE
8
BLACK
6
CONTINUOUS
10
6.8605714173228343
20
-3.2948139370078739
11
6.8627332677165356
21
-3.3014675196850392
0
LINE
8
BLACK
6
CONTINUOUS
10
6.8627332677165356
20
-3.3014675196850392
11
6.8634645669291334
21
-3.3084251968503935
0
LINE
8
BLACK
6
CONTINUOUS
10
6.8634645669291334
20
-3.3084251968503935
11
6.8627332677165356
21
-3.3153828740157478
0
LINE
8
BLACK
6
CONTINUOUS
10
6.8627332677165356
20
-3.3153828740157478
11
6.8605714173228343
21
-3.3220364566929135
0
LINE
8
BLACK
6
CONTINUOUS
10
6.8605714173228343
20
-3.3220364566929135
11
6.8570733858267712
21
-3.3280951574803148
0
LINE
8
BLACK
6
CONTINUOUS
10
6.8570733858267712
20
-3.3280951574803148
11
6.8523921653543303
21
-3.3332942125984251
0
LINE
8
BLACK
6
CONTINUOUS
10
6.8523921653543303
20
-3.3332942125984251
11
6.8467322834645667
21
-3.3374063779527559
0
LINE
8
BLACK
6
CONTINUOUS
10
6.8467322834645667
20
-3.3374063779527559
11
6.8403411023622045
21
-3.3402518897637794
0
LINE
8
BLACK
6
CONTINUOUS
10
6.8403411023622045
20
-3.3402518897637794
11
6.8334979921259844
21
-3.3417064566929131
0
LINE
8
BLACK
6
CONTINUOUS
10
6.8334979921259844
20
-3.3417064566929131
11
6.8265020078740157
21
-3.3417064566929131
0
LINE
8
BLACK
6
CONTINUOUS
10
6.8265020078740157
20
-3.3417064566929131
11
6.8196588976377948
21
-3.3402518897637794
0
LINE
8
BLACK
6
CONTINUOUS
10
6.8196588976377948
20
-3.3402518897637794
11
6.8132677165354325
21
-3.3374063779527559
0
LINE
8
BLACK
6
CONTINUOUS
10
6.8132677165354325
20
-3.3374063779527559
11
6.807607834645669
21
-3.3332942125984251
0
LINE
8
BLACK
6
CONTINUOUS
10
6.807607834645669
20
-3.3332942125984251
11
6.8029266141732281
21
-3.3280951574803148
0
LINE
8
BLACK
6
CONTINUOUS
10
6.8029266141732281
20
-3.3280951574803148
11
6.799428582677165
21
-3.3220364566929135
0
LINE
8
BLACK
6
CONTINUOUS
10
6.799428582677165
20
-3.3220364566929135
11
6.7972667322834646
21
-3.3153828740157478
0
LINE
8
BLACK
6
CONTINUOUS
10
6.7972667322834646
20
-3.3153828740157478
11
6.7965354330708658
21
-3.3084251968503935
0
LINE
8
BLACK
6
CONTINUOUS
10
6.7965354330708658
20
-3.3084251968503935
11
6.7972667322834646
21
-3.3014675196850392
0
LINE
8
BLACK
6
CONTINUOUS
10
6.7972667322834646
20
-3.3014675196850392
11
6.799428582677165
21
-3.2948139370078739
0
LINE
8
BLACK
6
CONTINUOUS
10
6.799428582677165
20
-3.2948139370078739
11
6.8029266141732281
21
-3.2887552362204722
0
LINE
8
BLACK
6
CONTINUOUS
10
6.8029266141732281
20
-3.2887552362204722
11
6.807607834645669
21
-3.2835561811023619
0
LINE
8
BLACK
6
CONTINUOUS
10
6.807607834645669
20
-3.2835561811023619
11
6.8132677165354325
21
-3.2794440157480316
0
LINE
8
BLACK
6
CONTINUOUS
10
6.8132677165354325
20
-3.2794440157480316
11
6.8196588976377948
21
-3.2765985039370076
0
LINE
8
BLACK
6
CONTINUOUS
10
6.8196588976377948
20
-3.2765985039370076
11
6.8265020078740157
21
-3.2751439370078739
0
LINE
8
BLACK
6
CONTINUOUS
10
6.8265020078740157
20
-3.2751439370078739
11
6.8334979921259844
21
-3.2751439370078739
0
LINE
8
BLACK
6
CONTINUOUS
10
6.8334979921259844
20
-3.2751439370078739
11
6.8403411023622045
21
-3.2765985039370076
0
LINE
8
BLACK
6
CONTINUOUS
10
6.9190812598425193
20
-3.2765985039370076
11
6.9254724409448816
21
-3.2794440157480316
0
LINE
8
BLACK
6
CONTINUOUS
10
6.9254724409448816
20
-3.2794440157480316
11
6.9311323228346451
21
-3.2835561811023619
0
LINE
8
BLACK
6
CONTINUOUS
10
6.9311323228346451
20
-3.2835561811023619
11
6.9358135433070869
21
-3.2887552362204722
0
LINE
8
BLACK
6
CONTINUOUS
10
6.9358135433070869
20
-3.2887552362204722
11
6.9393115748031491
21
-3.2948139370078739
0
LINE
8
BLACK
6
CONTINUOUS
10
6.9393115748031491
20
-3.2948139370078739
11
6.9414734251968504
21
-3.3014675196850392
0
LINE
8
BLACK
6
CONTINUOUS
10
6.9414734251968504
20
-3.3014675196850392
11
6.9422047244094482
21
-3.3084251968503935
0
LINE
8
BLACK
6
CONTINUOUS
10
6.9422047244094482
20
-3.3084251968503935
11
6.9414734251968504
21
-3.3153828740157478
0
LINE
8
BLACK
6
CONTINUOUS
10
6.9414734251968504
20
-3.3153828740157478
11
6.9393115748031491
21
-3.3220364566929135
0
LINE
8
BLACK
6
CONTINUOUS
10
6.9393115748031491
20
-3.3220364566929135
11
6.9358135433070869
21
-3.3280951574803148
0
LINE
8
BLACK
6
CONTINUOUS
10
6.9358135433070869
20
-3.3280951574803148
11
6.9311323228346451
21
-3.3332942125984251
0
LINE
8
BLACK
6
CONTINUOUS
10
6.9311323228346451
20
-3.3332942125984251
11
6.9254724409448816
21
-3.3374063779527559
0
LINE
8
BLACK
6
CONTINUOUS
10
6.9254724409448816
20
-3.3374063779527559
11
6.9190812598425193
21
-3.3402518897637794
0
LINE
8
BLACK
6
CONTINUOUS
10
6.9190812598425193
20
-3.3402518897637794
11
6.9122381496062992
21
-3.3417064566929131
0
LINE
8
BLACK
6
CONTINUOUS
10
6.9122381496062992
20
-3.3417064566929131
11
6.9052421653543306
21
-3.3417064566929131
0
LINE
8
BLACK
6
CONTINUOUS
10
6.9052421653543306
20
-3.3417064566929131
11
6.8983990551181105
21
-3.3402518897637794
0
LINE
8
BLACK
6
CONTINUOUS
10
6.8983990551181105
20
-3.3402518897637794
11
6.8920078740157482
21
-3.3374063779527559
0
LINE
8
BLACK
6
CONTINUOUS
10
6.8920078740157482
20
-3.3374063779527559
11
6.8863479921259838
21
-3.3332942125984251
0
LINE
8
BLACK
6
CONTINUOUS
10
6.8863479921259838
20
-3.3332942125984251
11
6.8816667716535429
21
-3.3280951574803148
0
LINE
8
BLACK
6
CONTINUOUS
10
6.8816667716535429
20
-3.3280951574803148
11
6.8781687401574798
21
-3.3220364566929135
0
LINE
8
BLACK
6
CONTINUOUS
10
6.8781687401574798
20
-3.3220364566929135
11
6.8760068897637794
21
-3.3153828740157478
0
LINE
8
BLACK
6
CONTINUOUS
10
6.8760068897637794
20
-3.3153828740157478
11
6.8752755905511806
21
-3.3084251968503935
0
LINE
8
BLACK
6
CONTINUOUS
10
6.8752755905511806
20
-3.3084251968503935
11
6.8760068897637794
21
-3.3014675196850392
0
LINE
8
BLACK
6
CONTINUOUS
10
6.8760068897637794
20
-3.3014675196850392
11
6.8781687401574798
21
-3.2948139370078739
0
LINE
8
BLACK
6
CONTINUOUS
10
6.8781687401574798
20
-3.2948139370078739
11
6.8816667716535429
21
-3.2887552362204722
0
LINE
8
BLACK
6
CONTINUOUS
10
6.8816667716535429
20
-3.2887552362204722
11
6.8863479921259838
21
-3.2835561811023619
0
LINE
8
BLACK
6
CONTINUOUS
10
6.8863479921259838
20
-3.2835561811023619
11
6.8920078740157482
21
-3.2794440157480316
0
LINE
8
BLACK
6
CONTINUOUS
10
6.8920078740157482
20
-3.2794440157480316
11
6.8983990551181105
21
-3.2765985039370076
0
LINE
8
BLACK
6
CONTINUOUS
10
6.8983990551181105
20
-3.2765985039370076
11
6.9052421653543306
21
-3.2751439370078739
0
LINE
8
BLACK
6
CONTINUOUS
10
6.9052421653543306
20
-3.2751439370078739
11
6.9122381496062992
21
-3.2751439370078739
0
LINE
8
BLACK
6
CONTINUOUS
10
6.9122381496062992
20
-3.2751439370078739
11
6.9190812598425193
21
-3.2765985039370076
0
LINE
8
BLACK
6
CONTINUOUS
10
7.0556043307086611
20
-3.2890842913385825
11
7.0608267716535433
21
-3.2912474803149605
0
LINE
8
BLACK
6
CONTINUOUS
10
7.0608267716535433
20
-3.2912474803149605
11
7.0653113779527557
21
-3.2946886220472442
0
LINE
8
BLACK
6
CONTINUOUS
10
7.0653113779527557
20
-3.2946886220472442
11
7.0687525196850389
21
-3.2991732283464565
0
LINE
8
BLACK
6
CONTINUOUS
10
7.0687525196850389
20
-3.2991732283464565
11
7.0709157086614169
21
-3.3043956692913383
0
LINE
8
BLACK
6
CONTINUOUS
10
7.0709157086614169
20
-3.3043956692913383
11
7.0716535433070868
21
-3.3100000000000001
0
LINE
8
BLACK
6
CONTINUOUS
10
7.0716535433070868
20
-3.3100000000000001
11
7.0709157086614169
21
-3.3156043307086613
0
LINE
8
BLACK
6
CONTINUOUS
10
7.0709157086614169
20
-3.3156043307086613
11
7.0687525196850389
21
-3.3208267716535431
0
LINE
8
BLACK
6
CONTINUOUS
10
7.0687525196850389
20
-3.3208267716535431
11
7.0653113779527557
21
-3.3253113779527559
0
LINE
8
BLACK
6
CONTINUOUS
10
7.0653113779527557
20
-3.3253113779527559
11
7.0608267716535433
21
-3.3287525196850392
0
LINE
8
BLACK
6
CONTINUOUS
10
7.0608267716535433
20
-3.3287525196850392
11
7.0556043307086611
21
-3.3309157086614172
0
LINE
8
BLACK
6
CONTINUOUS
10
7.0556043307086611
20
-3.3309157086614172
11
7.0499999999999998
21
-3.3316535433070866
0
LINE
8
BLACK
6
CONTINUOUS
10
7.0499999999999998
20
-3.3316535433070866
11
7.0443956692913385
21
-3.3309157086614172
0
LINE
8
BLACK
6
CONTINUOUS
10
7.0443956692913385
20
-3.3309157086614172
11
7.0391732283464563
21
-3.3287525196850392
0
LINE
8
BLACK
6
CONTINUOUS
10
7.0391732283464563
20
-3.3287525196850392
11
7.034688622047244
21
-3.3253113779527559
0
LINE
8
BLACK
6
CONTINUOUS
10
7.034688622047244
20
-3.3253113779527559
11
7.0312474803149607
21
-3.3208267716535431
0
LINE
8
BLACK
6
CONTINUOUS
10
7.0312474803149607
20
-3.3208267716535431
11
7.0290842913385827
21
-3.3156043307086613
0
LINE
8
BLACK
6
CONTINUOUS
10
7.0290842913385827
20
-3.3156043307086613
11
7.0283464566929128
21
-3.3100000000000001
0
LINE
8
BLACK
6
CONTINUOUS
10
7.0283464566929128
20
-3.3100000000000001
11
7.0290842913385827
21
-3.3043956692913383
0
LINE
8
BLACK
6
CONTINUOUS
10
7.0290842913385827
20
-3.3043956692913383
11
7.0312474803149607
21
-3.2991732283464565
0
LINE
8
BLACK
6
CONTINUOUS
10
7.0312474803149607
20
-3.2991732283464565
11
7.034688622047244
21
-3.2946886220472442
0
LINE
8
BLACK
6
CONTINUOUS
10
7.034688622047244
20
-3.2946886220472442
11
7.0391732283464563
21
-3.2912474803149605
0
LINE
8
BLACK
6
CONTINUOUS
10
7.0391732283464563
20
-3.2912474803149605
11
7.0443956692913385
21
-3.2890842913385825
0
LINE
8
BLACK
6
CONTINUOUS
10
7.0443956692913385
20
-3.2890842913385825
11
7.0499999999999998
21
-3.2883464566929135
0
LINE
8
BLACK
6
CONTINUOUS
10
7.0499999999999998
20
-3.2883464566929135
11
7.0556043307086611
21
-3.2890842913385825
0
LINE
8
BLACK
6
CONTINUOUS
10
5.5609494094488188
20
-3.2063011417322835
11
5.5677165354330711
21
-3.2093140551181101
0
LINE
8
BLACK
6
CONTINUOUS
10
5.5677165354330711
20
-3.2093140551181101
11
5.5737093700787401
21
-3.2136681102362203
0
LINE
8
BLACK
6
CONTINUOUS
10
5.5737093700787401
20
-3.2136681102362203
11
5.57866594488189
21
-3.2191729527559056
0
LINE
8
BLACK
6
CONTINUOUS
10
5.57866594488189
20
-3.2191729527559056
11
5.5823697244094488
21
-3.2255880708661415
0
LINE
8
BLACK
6
CONTINUOUS
10
5.5823697244094488
20
-3.2255880708661415
11
5.5846587795275591
21
-3.232633031496063
0
LINE
8
BLACK
6
CONTINUOUS
10
5.5846587795275591
20
-3.232633031496063
11
5.5854330708661415
21
-3.2399999999999998
0
LINE
8
BLACK
6
CONTINUOUS
10
5.5854330708661415
20
-3.2399999999999998
11
5.5846587795275591
21
-3.247366968503937
0
LINE
8
BLACK
6
CONTINUOUS
10
5.5846587795275591
20
-3.247366968503937
11
5.5823697244094488
21
-3.254411929133858
0
LINE
8
BLACK
6
CONTINUOUS
10
5.5823697244094488
20
-3.254411929133858
11
5.57866594488189
21
-3.2608270472440943
0
LINE
8
BLACK
6
CONTINUOUS
10
5.57866594488189
20
-3.2608270472440943
11
5.5737093700787401
21
-3.2663318897637796
0
LINE
8
BLACK
6
CONTINUOUS
10
5.5737093700787401
20
-3.2663318897637796
11
5.5677165354330711
21
-3.2706859448818899
0
LINE
8
BLACK
6
CONTINUOUS
10
5.5677165354330711
20
-3.2706859448818899
11
5.5609494094488188
21
-3.2736988582677164
0
LINE
8
BLACK
6
CONTINUOUS
10
5.5609494094488188
20
-3.2736988582677164
11
5.5537037795275586
21
-3.2752389763779526
0
LINE
8
BLACK
6
CONTINUOUS
10
5.5537037795275586
20
-3.2752389763779526
11
5.5462962204724411
21
-3.2752389763779526
0
LINE
8
BLACK
6
CONTINUOUS
10
5.5462962204724411
20
-3.2752389763779526
11
5.5390505905511809
21
-3.2736988582677164
0
LINE
8
BLACK
6
CONTINUOUS
10
5.5390505905511809
20
-3.2736988582677164
11
5.5322834645669294
21
-3.2706859448818899
0
LINE
8
BLACK
6
CONTINUOUS
10
5.5322834645669294
20
-3.2706859448818899
11
5.5262906299212595
21
-3.2663318897637796
0
LINE
8
BLACK
6
CONTINUOUS
10
5.5262906299212595
20
-3.2663318897637796
11
5.5213340551181105
21
-3.2608270472440943
0
LINE
8
BLACK
6
CONTINUOUS
10
5.5213340551181105
20
-3.2608270472440943
11
5.5176302755905509
21
-3.254411929133858
0
LINE
8
BLACK
6
CONTINUOUS
10
5.5176302755905509
20
-3.254411929133858
11
5.5153412204724406
21
-3.247366968503937
0
LINE
8
BLACK
6
CONTINUOUS
10
5.5153412204724406
20
-3.247366968503937
11
5.5145669291338582
21
-3.2399999999999998
0
LINE
8
BLACK
6
CONTINUOUS
10
5.5145669291338582
20
-3.2399999999999998
11
5.5153412204724406
21
-3.232633031496063
0
LINE
8
BLACK
6
CONTINUOUS
10
5.5153412204724406
20
-3.232633031496063
11
5.5176302755905509
21
-3.2255880708661415
0
LINE
8
BLACK
6
CONTINUOUS
10
5.5176302755905509
20
-3.2255880708661415
11
5.5213340551181105
21
-3.2191729527559056
0
LINE
8
BLACK
6
CONTINUOUS
10
5.5213340551181105
20
-3.2191729527559056
11
5.5262906299212595
21
-3.2136681102362203
0
LINE
8
BLACK
6
CONTINUOUS
10
5.5262906299212595
20
-3.2136681102362203
11
5.5322834645669294
21
-3.2093140551181101
0
LINE
8
BLACK
6
CONTINUOUS
10
5.5322834645669294
20
-3.2093140551181101
11
5.5390505905511809
21
-3.2063011417322835
0
LINE
8
BLACK
6
CONTINUOUS
10
5.5390505905511809
20
-3.2063011417322835
11
5.5462962204724411
21
-3.204761023622047
0
LINE
8
BLACK
6
CONTINUOUS
10
5.5462962204724411
20
-3.204761023622047
11
5.5537037795275586
21
-3.204761023622047
0
LINE
8
BLACK
6
CONTINUOUS
10
5.5537037795275586
20
-3.204761023622047
11
5.5609494094488188
21
-3.2063011417322835
0
LINE
8
BLACK
6
CONTINUOUS
10
6.8622493700787404
20
-3.1766852755905512
11
6.8628879921259838
21
-3.1771120078740158
0
LINE
8
BLACK
6
CONTINUOUS
10
6.8628879921259838
20
-3.1771120078740158
11
6.8633147244094488
21
-3.1777506299212597
0
LINE
8
BLACK
6
CONTINUOUS
10
6.8633147244094488
20
-3.1777506299212597
11
6.8634645669291334
21
-3.178503937007874
0
LINE
8
BLACK
6
CONTINUOUS
10
6.8634645669291334
20
-3.178503937007874
11
6.8634645669291334
21
-3.2414960629921259
0
LINE
8
BLACK
6
CONTINUOUS
10
6.8634645669291334
20
-3.2414960629921259
11
6.8633147244094488
21
-3.2422493700787403
0
LINE
8
BLACK
6
CONTINUOUS
10
6.8633147244094488
20
-3.2422493700787403
11
6.8628879921259838
21
-3.2428879921259841
0
LINE
8
BLACK
6
CONTINUOUS
10
6.8628879921259838
20
-3.2428879921259841
11
6.8622493700787404
21
-3.2433147244094487
0
LINE
8
BLACK
6
CONTINUOUS
10
6.8622493700787404
20
-3.2433147244094487
11
6.861496062992126
21
-3.2434645669291338
0
LINE
8
BLACK
6
CONTINUOUS
10
6.861496062992126
20
-3.2434645669291338
11
6.7985039370078741
21
-3.2434645669291338
0
LINE
8
BLACK
6
CONTINUOUS
10
6.7985039370078741
20
-3.2434645669291338
11
6.7977506299212598
21
-3.2433147244094487
0
LINE
8
BLACK
6
CONTINUOUS
10
6.7977506299212598
20
-3.2433147244094487
11
6.7971120078740155
21
-3.2428879921259841
0
LINE
8
BLACK
6
CONTINUOUS
10
6.7971120078740155
20
-3.2428879921259841
11
6.7966852755905514
21
-3.2422493700787403
0
LINE
8
BLACK
6
CONTINUOUS
10
6.7966852755905514
20
-3.2422493700787403
11
6.7965354330708658
21
-3.2414960629921259
0
LINE
8
BLACK
6
CONTINUOUS
10
6.7965354330708658
20
-3.2414960629921259
11
6.7965354330708658
21
-3.178503937007874
0
LINE
8
BLACK
6
CONTINUOUS
10
6.7965354330708658
20
-3.178503937007874
11
6.7966852755905514
21
-3.1777506299212597
0
LINE
8
BLACK
6
CONTINUOUS
10
6.7966852755905514
20
-3.1777506299212597
11
6.7971120078740155
21
-3.1771120078740158
0
LINE
8
BLACK
6
CONTINUOUS
10
6.7971120078740155
20
-3.1771120078740158
11
6.7977506299212598
21
-3.1766852755905512
0
LINE
8
BLACK
6
CONTINUOUS
10
6.7977506299212598
20
-3.1766852755905512
11
6.7985039370078741
21
-3.1765354330708662
0
LINE
8
BLACK
6
CONTINUOUS
10
6.7985039370078741
20
-3.1765354330708662
11
6.861496062992126
21
-3.1765354330708662
0
LINE
8
BLACK
6
CONTINUOUS
10
6.861496062992126
20
-3.1765354330708662
11
6.8622493700787404
21
-3.1766852755905512
0
LINE
8
BLACK
6
CONTINUOUS
10
6.9190812598425193
20
-3.1781733070866141
11
6.9254724409448816
21
-3.1810188188976376
0
LINE
8
BLACK
6
CONTINUOUS
10
6.9254724409448816
20
-3.1810188188976376
11
6.9311323228346451
21
-3.1851309842519684
0
LINE
8
BLACK
6
CONTINUOUS
10
6.9311323228346451
20
-3.1851309842519684
11
6.9358135433070869
21
-3.1903300393700786
0
LINE
8
BLACK
6
CONTINUOUS
10
6.9358135433070869
20
-3.1903300393700786
11
6.9393115748031491
21
-3.1963887401574804
0
LINE
8
BLACK
6
CONTINUOUS
10
6.9393115748031491
20
-3.1963887401574804
11
6.9414734251968504
21
-3.2030423228346456
0
LINE
8
BLACK
6
CONTINUOUS
10
6.9414734251968504
20
-3.2030423228346456
11
6.9422047244094482
21
-3.21
0
LINE
8
BLACK
6
CONTINUOUS
10
6.9422047244094482
20
-3.21
11
6.9414734251968504
21
-3.2169576771653543
0
LINE
8
BLACK
6
CONTINUOUS
10
6.9414734251968504
20
-3.2169576771653543
11
6.9393115748031491
21
-3.2236112598425195
0
LINE
8
BLACK
6
CONTINUOUS
10
6.9393115748031491
20
-3.2236112598425195
11
6.9358135433070869
21
-3.2296699606299213
0
LINE
8
BLACK
6
CONTINUOUS
10
6.9358135433070869
20
-3.2296699606299213
11
6.9311323228346451
21
-3.2348690157480315
0
LINE
8
BLACK
6
CONTINUOUS
10
6.9311323228346451
20
-3.2348690157480315
11
6.9254724409448816
21
-3.2389811811023623
0
LINE
8
BLACK
6
CONTINUOUS
10
6.9254724409448816
20
-3.2389811811023623
11
6.9190812598425193
21
-3.2418266929133859
0
LINE
8
BLACK
6
CONTINUOUS
10
6.9190812598425193
20
-3.2418266929133859
11
6.9122381496062992
21
-3.2432812598425196
0
LINE
8
BLACK
6
CONTINUOUS
10
6.9122381496062992
20
-3.2432812598425196
11
6.9052421653543306
21
-3.2432812598425196
0
LINE
8
BLACK
6
CONTINUOUS
10
6.9052421653543306
20
-3.2432812598425196
11
6.8983990551181105
21
-3.2418266929133859
0
LINE
8
BLACK
6
CONTINUOUS
10
6.8983990551181105
20
-3.2418266929133859
11
6.8920078740157482
21
-3.2389811811023623
0
LINE
8
BLACK
6
CONTINUOUS
10
6.8920078740157482
20
-3.2389811811023623
11
6.8863479921259838
21
-3.2348690157480315
0
LINE
8
BLACK
6
CONTINUOUS
10
6.8863479921259838
20
-3.2348690157480315
11
6.8816667716535429
21
-3.2296699606299213
0
LINE
8
BLACK
6
CONTINUOUS
10
6.8816667716535429
20
-3.2296699606299213
11
6.8781687401574798
21
-3.2236112598425195
0
LINE
8
BLACK
6
CONTINUOUS
10
6.8781687401574798
20
-3.2236112598425195
11
6.8760068897637794
21
-3.2169576771653543
0
LINE
8
BLACK
6
CONTINUOUS
10
6.8760068897637794
20
-3.2169576771653543
11
6.8752755905511806
21
-3.21
0
LINE
8
BLACK
6
CONTINUOUS
10
6.8752755905511806
20
-3.21
11
6.8760068897637794
21
-3.2030423228346456
0
LINE
8
BLACK
6
CONTINUOUS
10
6.8760068897637794
20
-3.2030423228346456
11
6.8781687401574798
21
-3.1963887401574804
0
LINE
8
BLACK
6
CONTINUOUS
10
6.8781687401574798
20
-3.1963887401574804
11
6.8816667716535429
21
-3.1903300393700786
0
LINE
8
BLACK
6
CONTINUOUS
10
6.8816667716535429
20
-3.1903300393700786
11
6.8863479921259838
21
-3.1851309842519684
0
LINE
8
BLACK
6
CONTINUOUS
10
6.8863479921259838
20
-3.1851309842519684
11
6.8920078740157482
21
-3.1810188188976376
0
LINE
8
BLACK
6
CONTINUOUS
10
6.8920078740157482
20
-3.1810188188976376
11
6.8983990551181105
21
-3.1781733070866141
0
LINE
8
BLACK
6
CONTINUOUS
10
6.8983990551181105
20
-3.1781733070866141
11
6.9052421653543306
21
-3.1767187401574803
0
LINE
8
BLACK
6
CONTINUOUS
10
6.9052421653543306
20
-3.1767187401574803
11
6.9122381496062992
21
-3.1767187401574803
0
LINE
8
BLACK
6
CONTINUOUS
10
6.9122381496062992
20
-3.1767187401574803
11
6.9190812598425193
21
-3.1781733070866141
0
LINE
8
BLACK
6
CONTINUOUS
10
4.8574022440944882
20
-3.156301496062992
11
4.8640593307086615
21
-3.1586309055118109
0
LINE
8
BLACK
6
CONTINUOUS
10
4.8640593307086615
20
-3.1586309055118109
11
4.8700311811023624
21
-3.1623832677165353
0
LINE
8
BLACK
6
CONTINUOUS
10
4.8700311811023624
20
-3.1623832677165353
11
4.8750183070866138
21
-3.1673703937007875
0
LINE
8
BLACK
6
CONTINUOUS
10
4.8750183070866138
20
-3.1673703937007875
11
4.8787706692913382
21
-3.1733422440944881
0
LINE
8
BLACK
6
CONTINUOUS
10
4.8787706692913382
20
-3.1733422440944881
11
4.8811000787401575
21
-3.1799993307086614
0
LINE
8
BLACK
6
CONTINUOUS
10
4.8811000787401575
20
-3.1799993307086614
11
4.8818897637795278
21
-3.1870078740157481
0
LINE
8
BLACK
6
CONTINUOUS
10
4.8818897637795278
20
-3.1870078740157481
11
4.8818897637795278
21
-3.2066929133858268
0
LINE
8
BLACK
6
CONTINUOUS
10
4.8818897637795278
20
-3.2066929133858268
11
4.8811000787401575
21
-3.2137014566929132
0
LINE
8
BLACK
6
CONTINUOUS
10
4.8811000787401575
20
-3.2137014566929132
11
4.8787706692913382
21
-3.2203585433070865
0
LINE
8
BLACK
6
CONTINUOUS
10
4.8787706692913382
20
-3.2203585433070865
11
4.8750183070866138
21
-3.2263303937007874
0
LINE
8
BLACK
6
CONTINUOUS
10
4.8750183070866138
20
-3.2263303937007874
11
4.8700311811023624
21
-3.2313175196850392
0
LINE
8
BLACK
6
CONTINUOUS
10
4.8700311811023624
20
-3.2313175196850392
11
4.8640593307086615
21
-3.2350698818897636
0
LINE
8
BLACK
6
CONTINUOUS
10
4.8640593307086615
20
-3.2350698818897636
11
4.8574022440944882
21
-3.2373992913385825
0
LINE
8
BLACK
6
CONTINUOUS
10
4.8574022440944882
20
-3.2373992913385825
11
4.8503937007874018
21
-3.2381889763779528
0
LINE
8
BLACK
6
CONTINUOUS
10
4.8503937007874018
20
-3.2381889763779528
11
4.8433851574803146
21
-3.2373992913385825
0
LINE
8
BLACK
6
CONTINUOUS
10
4.8433851574803146
20
-3.2373992913385825
11
4.8367280708661413
21
-3.2350698818897636
0
LINE
8
BLACK
6
CONTINUOUS
10
4.8367280708661413
20
-3.2350698818897636
11
4.8307562204724412
21
-3.2313175196850392
0
LINE
8
BLACK
6
CONTINUOUS
10
4.8307562204724412
20
-3.2313175196850392
11
4.825769094488189
21
-3.2263303937007874
0
LINE
8
BLACK
6
CONTINUOUS
10
4.825769094488189
20
-3.2263303937007874
11
4.8220167322834646
21
-3.2203585433070865
0
LINE
8
BLACK
6
CONTINUOUS
10
4.8220167322834646
20
-3.2203585433070865
11
4.8196873228346453
21
-3.2137014566929132
0
LINE
8
BLACK
6
CONTINUOUS
10
4.8196873228346453
20
-3.2137014566929132
11
4.8188976377952759
21
-3.2066929133858268
0
LINE
8
BLACK
6
CONTINUOUS
10
4.8188976377952759
20
-3.2066929133858268
11
4.8188976377952759
21
-3.1870078740157481
0
LINE
8
BLACK
6
CONTINUOUS
10
4.8188976377952759
20
-3.1870078740157481
11
4.8196873228346453
21
-3.1799993307086614
0
LINE
8
BLACK
6
CONTINUOUS
10
4.8196873228346453
20
-3.1799993307086614
11
4.8220167322834646
21
-3.1733422440944881
0
LINE
8
BLACK
6
CONTINUOUS
10
4.8220167322834646
20
-3.1733422440944881
11
4.825769094488189
21
-3.1673703937007875
0
LINE
8
BLACK
6
CONTINUOUS
10
4.825769094488189
20
-3.1673703937007875
11
4.8307562204724412
21
-3.1623832677165353
0
LINE
8
BLACK
6
CONTINUOUS
10
4.8307562204724412
20
-3.1623832677165353
11
4.8367280708661413
21
-3.1586309055118109
0
LINE
8
BLACK
6
CONTINUOUS
10
4.8367280708661413
20
-3.1586309055118109
11
4.8433851574803146
21
-3.156301496062992
0
LINE
8
BLACK
6
CONTINUOUS
10
4.8433851574803146
20
-3.156301496062992
11
4.8503937007874018
21
-3.1555118110236218
0
LINE
8
BLACK
6
CONTINUOUS
10
4.8503937007874018
20
-3.1555118110236218
11
4.8574022440944882
21
-3.156301496062992
0
LINE
8
BLACK
6
CONTINUOUS
10
5.0316868110236221
20
-3.1563061023622048
11
5.0394416535433066
21
-3.1586585039370076
0
LINE
8
BLACK
6
CONTINUOUS
10
5.0394416535433066
20
-3.1586585039370076
11
5.0465885433070863
21
-3.1624786220472441
0
LINE
8
BLACK
6
CONTINUOUS
10
5.0465885433070863
20
-3.1624786220472441
11
5.0528528346456696
21
-3.1676196062992124
0
LINE
8
BLACK
6
CONTINUOUS
10
5.0528528346456696
20
-3.1676196062992124
11
5.0579938188976374
21
-3.1738838976377952
0
LINE
8
BLACK
6
CONTINUOUS
10
5.0579938188976374
20
-3.1738838976377952
11
5.0618139370078739
21
-3.1810307874015749
0
LINE
8
BLACK
6
CONTINUOUS
10
5.0618139370078739
20
-3.1810307874015749
11
5.0641663385826767
21
-3.1887856299212598
0
LINE
8
BLACK
6
CONTINUOUS
10
5.0641663385826767
20
-3.1887856299212598
11
5.0649606299212602
21
-3.1968503937007875
0
LINE
8
BLACK
6
CONTINUOUS
10
5.0649606299212602
20
-3.1968503937007875
11
5.0641663385826767
21
-3.2049151574803147
0
LINE
8
BLACK
6
CONTINUOUS
10
5.0641663385826767
20
-3.2049151574803147
11
5.0618139370078739
21
-3.2126700000000001
0
LINE
8
BLACK
6
CONTINUOUS
10
5.0618139370078739
20
-3.2126700000000001
11
5.0579938188976374
21
-3.2198168897637793
0
LINE
8
BLACK
6
CONTINUOUS
10
5.0579938188976374
20
-3.2198168897637793
11
5.0528528346456696
21
-3.2260811811023622
0
LINE
8
BLACK
6
CONTINUOUS
10
5.0528528346456696
20
-3.2260811811023622
11
5.0465885433070863
21
-3.2312221653543305
0
LINE
8
BLACK
6
CONTINUOUS
10
5.0465885433070863
20
-3.2312221653543305
11
5.0394416535433066
21
-3.2350422834645669
0
LINE
8
BLACK
6
CONTINUOUS
10
5.0394416535433066
20
-3.2350422834645669
11
5.0316868110236221
21
-3.2373946850393702
0
LINE
8
BLACK
6
CONTINUOUS
10
5.0316868110236221
20
-3.2373946850393702
11
5.0236220472440944
21
-3.2381889763779528
0
LINE
8
BLACK
6
CONTINUOUS
10
5.0236220472440944
20
-3.2381889763779528
11
5.0155572834645668
21
-3.2373946850393702
0
LINE
8
BLACK
6
CONTINUOUS
10
5.0155572834645668
20
-3.2373946850393702
11
5.0078024409448814
21
-3.2350422834645669
0
LINE
8
BLACK
6
CONTINUOUS
10
5.0078024409448814
20
-3.2350422834645669
11
5.0006555511811026
21
-3.2312221653543305
0
LINE
8
BLACK
6
CONTINUOUS
10
5.0006555511811026
20
-3.2312221653543305
11
4.9943912598425193
21
-3.2260811811023622
0
LINE
8
BLACK
6
CONTINUOUS
10
4.9943912598425193
20
-3.2260811811023622
11
4.9892502755905515
21
-3.2198168897637793
0
LINE
8
BLACK
6
CONTINUOUS
10
4.9892502755905515
20
-3.2198168897637793
11
4.985430157480315
21
-3.2126700000000001
0
LINE
8
BLACK
6
CONTINUOUS
10
4.985430157480315
20
-3.2126700000000001
11
4.9830777559055113
21
-3.2049151574803147
0
LINE
8
BLACK
6
CONTINUOUS
10
4.9830777559055113
20
-3.2049151574803147
11
4.9822834645669287
21
-3.1968503937007875
0
LINE
8
BLACK
6
CONTINUOUS
10
4.9822834645669287
20
-3.1968503937007875
11
4.9830777559055113
21
-3.1887856299212598
0
LINE
8
BLACK
6
CONTINUOUS
10
4.9830777559055113
20
-3.1887856299212598
11
4.985430157480315
21
-3.1810307874015749
0
LINE
8
BLACK
6
CONTINUOUS
10
4.985430157480315
20
-3.1810307874015749
11
4.9892502755905515
21
-3.1738838976377952
0
LINE
8
BLACK
6
CONTINUOUS
10
4.9892502755905515
20
-3.1738838976377952
11
4.9943912598425193
21
-3.1676196062992124
0
LINE
8
BLACK
6
CONTINUOUS
10
4.9943912598425193
20
-3.1676196062992124
11
5.0006555511811026
21
-3.1624786220472441
0
LINE
8
BLACK
6
CONTINUOUS
10
5.0006555511811026
20
-3.1624786220472441
11
5.0078024409448814
21
-3.1586585039370076
0
LINE
8
BLACK
6
CONTINUOUS
10
5.0078024409448814
20
-3.1586585039370076
11
5.0155572834645668
21
-3.1563061023622048
0
LINE
8
BLACK
6
CONTINUOUS
10
5.0155572834645668
20
-3.1563061023622048
11
5.0236220472440944
21
-3.1555118110236218
0
LINE
8
BLACK
6
CONTINUOUS
10
5.0236220472440944
20
-3.1555118110236218
11
5.0316868110236221
21
-3.1563061023622048
0
LINE
8
BLACK
6
CONTINUOUS
10
7.0556043307086611
20
-3.1590842913385826
11
7.0608267716535433
21
-3.1612474803149606
0
LINE
8
BLACK
6
CONTINUOUS
10
7.0608267716535433
20
-3.1612474803149606
11
7.0653113779527557
21
-3.1646886220472439
0
LINE
8
BLACK
6
CONTINUOUS
10
7.0653113779527557
20
-3.1646886220472439
11
7.0687525196850389
21
-3.1691732283464566
0
LINE
8
BLACK
6
CONTINUOUS
10
7.0687525196850389
20
-3.1691732283464566
11
7.0709157086614169
21
-3.1743956692913384
0
LINE
8
BLACK
6
CONTINUOUS
10
7.0709157086614169
20
-3.1743956692913384
11
7.0716535433070868
21
-3.1799999999999997
0
LINE
8
BLACK
6
CONTINUOUS
10
7.0716535433070868
20
-3.1799999999999997
11
7.0709157086614169
21
-3.1856043307086614
0
LINE
8
BLACK
6
CONTINUOUS
10
7.0709157086614169
20
-3.1856043307086614
11
7.0687525196850389
21
-3.1908267716535432
0
LINE
8
BLACK
6
CONTINUOUS
10
7.0687525196850389
20
-3.1908267716535432
11
7.0653113779527557
21
-3.195311377952756
0
LINE
8
BLACK
6
CONTINUOUS
10
7.0653113779527557
20
-3.195311377952756
11
7.0608267716535433
21
-3.1987525196850393
0
LINE
8
BLACK
6
CONTINUOUS
10
7.0608267716535433
20
-3.1987525196850393
11
7.0556043307086611
21
-3.2009157086614173
0
LINE
8
BLACK
6
CONTINUOUS
10
7.0556043307086611
20
-3.2009157086614173
11
7.0499999999999998
21
-3.2016535433070867
0
LINE
8
BLACK
6
CONTINUOUS
10
7.0499999999999998
20
-3.2016535433070867
11
7.0443956692913385
21
-3.2009157086614173
0
LINE
8
BLACK
6
CONTINUOUS
10
7.0443956692913385
20
-3.2009157086614173
11
7.0391732283464563
21
-3.1987525196850393
0
LINE
8
BLACK
6
CONTINUOUS
10
7.0391732283464563
20
-3.1987525196850393
11
7.034688622047244
21
-3.195311377952756
0
LINE
8
BLACK
6
CONTINUOUS
10
7.034688622047244
20
-3.195311377952756
11
7.0312474803149607
21
-3.1908267716535432
0
LINE
8
BLACK
6
CONTINUOUS
10
7.0312474803149607
20
-3.1908267716535432
11
7.0290842913385827
21
-3.1856043307086614
0
LINE
8
BLACK
6
CONTINUOUS
10
7.0290842913385827
20
-3.1856043307086614
11
7.0283464566929128
21
-3.1799999999999997
0
LINE
8
BLACK
6
CONTINUOUS
10
7.0283464566929128
20
-3.1799999999999997
11
7.0290842913385827
21
-3.1743956692913384
0
LINE
8
BLACK
6
CONTINUOUS
10
7.0290842913385827
20
-3.1743956692913384
11
7.0312474803149607
21
-3.1691732283464566
0
LINE
8
BLACK
6
CONTINUOUS
10
7.0312474803149607
20
-3.1691732283464566
11
7.034688622047244
21
-3.1646886220472439
0
LINE
8
BLACK
6
CONTINUOUS
10
7.034688622047244
20
-3.1646886220472439
11
7.0391732283464563
21
-3.1612474803149606
0
LINE
8
BLACK
6
CONTINUOUS
10
7.0391732283464563
20
-3.1612474803149606
11
7.0443956692913385
21
-3.1590842913385826
0
LINE
8
BLACK
6
CONTINUOUS
10
7.0443956692913385
20
-3.1590842913385826
11
7.0499999999999998
21
-3.1583464566929131
0
LINE
8
BLACK
6
CONTINUOUS
10
7.0499999999999998
20
-3.1583464566929131
11
7.0556043307086611
21
-3.1590842913385826
0
LINE
8
BLACK
6
CONTINUOUS
10
6.6116043307086612
20
-3.1350842913385826
11
6.6168267716535434
21
-3.1372474803149606
0
LINE
8
BLACK
6
CONTINUOUS
10
6.6168267716535434
20
-3.1372474803149606
11
6.6213113779527557
21
-3.1406886220472439
0
LINE
8
BLACK
6
CONTINUOUS
10
6.6213113779527557
20
-3.1406886220472439
11
6.624752519685039
21
-3.1451732283464566
0
LINE
8
BLACK
6
CONTINUOUS
10
6.624752519685039
20
-3.1451732283464566
11
6.626915708661417
21
-3.1503956692913384
0
LINE
8
BLACK
6
CONTINUOUS
10
6.626915708661417
20
-3.1503956692913384
11
6.6276535433070869
21
-3.1560000000000001
0
LINE
8
BLACK
6
CONTINUOUS
10
6.6276535433070869
20
-3.1560000000000001
11
6.626915708661417
21
-3.1616043307086614
0
LINE
8
BLACK
6
CONTINUOUS
10
6.626915708661417
20
-3.1616043307086614
11
6.624752519685039
21
-3.1668267716535432
0
LINE
8
BLACK
6
CONTINUOUS
10
6.624752519685039
20
-3.1668267716535432
11
6.6213113779527557
21
-3.171311377952756
0
LINE
8
BLACK
6
CONTINUOUS
10
6.6213113779527557
20
-3.171311377952756
11
6.6168267716535434
21
-3.1747525196850392
0
LINE
8
BLACK
6
CONTINUOUS
10
6.6168267716535434
20
-3.1747525196850392
11
6.6116043307086612
21
-3.1769157086614173
0
LINE
8
BLACK
6
CONTINUOUS
10
6.6116043307086612
20
-3.1769157086614173
11
6.6059999999999999
21
-3.1776535433070867
0
LINE
8
BLACK
6
CONTINUOUS
10
6.6059999999999999
20
-3.1776535433070867
11
6.6003956692913386
21
-3.1769157086614173
0
LINE
8
BLACK
6
CONTINUOUS
10
6.6003956692913386
20
-3.1769157086614173
11
6.5951732283464564
21
-3.1747525196850392
0
LINE
8
BLACK
6
CONTINUOUS
10
6.5951732283464564
20
-3.1747525196850392
11
6.590688622047244
21
-3.171311377952756
0
LINE
8
BLACK
6
CONTINUOUS
10
6.590688622047244
20
-3.171311377952756
11
6.5872474803149608
21
-3.1668267716535432
0
LINE
8
BLACK
6
CONTINUOUS
10
6.5872474803149608
20
-3.1668267716535432
11
6.5850842913385828
21
-3.1616043307086614
0
LINE
8
BLACK
6
CONTINUOUS
10
6.5850842913385828
20
-3.1616043307086614
11
6.5843464566929129
21
-3.1560000000000001
0
LINE
8
BLACK
6
CONTINUOUS
10
6.5843464566929129
20
-3.1560000000000001
11
6.5850842913385828
21
-3.1503956692913384
0
LINE
8
BLACK
6
CONTINUOUS
10
6.5850842913385828
20
-3.1503956692913384
11
6.5872474803149608
21
-3.1451732283464566
0
LINE
8
BLACK
6
CONTINUOUS
10
6.5872474803149608
20
-3.1451732283464566
11
6.590688622047244
21
-3.1406886220472439
0
LINE
8
BLACK
6
CONTINUOUS
10
6.590688622047244
20
-3.1406886220472439
11
6.5951732283464564
21
-3.1372474803149606
0
LINE
8
BLACK
6
CONTINUOUS
10
6.5951732283464564
20
-3.1372474803149606
11
6.6003956692913386
21
-3.1350842913385826
0
LINE
8
BLACK
6
CONTINUOUS
10
6.6003956692913386
20
-3.1350842913385826
11
6.6059999999999999
21
-3.1343464566929131
0
LINE
8
BLACK
6
CONTINUOUS
10
6.6059999999999999
20
-3.1343464566929131
11
6.6116043307086612
21
-3.1350842913385826
0
LINE
8
BLACK
6
CONTINUOUS
10
5.5609494094488188
20
-3.1063011417322834
11
5.5677165354330711
21
-3.10931405511811
0
LINE
8
BLACK
6
CONTINUOUS
10
5.5677165354330711
20
-3.10931405511811
11
5.5737093700787401
21
-3.1136681102362203
0
LINE
8
BLACK
6
CONTINUOUS
10
5.5737093700787401
20
-3.1136681102362203
11
5.57866594488189
21
-3.1191729527559056
0
LINE
8
BLACK
6
CONTINUOUS
10
5.57866594488189
20
-3.1191729527559056
11
5.5823697244094488
21
-3.1255880708661419
0
LINE
8
BLACK
6
CONTINUOUS
10
5.5823697244094488
20
-3.1255880708661419
11
5.5846587795275591
21
-3.1326330314960629
0
LINE
8
BLACK
6
CONTINUOUS
10
5.5846587795275591
20
-3.1326330314960629
11
5.5854330708661415
21
-3.1400000000000001
0
LINE
8
BLACK
6
CONTINUOUS
10
5.5854330708661415
20
-3.1400000000000001
11
5.5846587795275591
21
-3.1473669685039369
0
LINE
8
BLACK
6
CONTINUOUS
10
5.5846587795275591
20
-3.1473669685039369
11
5.5823697244094488
21
-3.1544119291338584
0
LINE
8
BLACK
6
CONTINUOUS
10
5.5823697244094488
20
-3.1544119291338584
11
5.57866594488189
21
-3.1608270472440942
0
LINE
8
BLACK
6
CONTINUOUS
10
5.57866594488189
20
-3.1608270472440942
11
5.5737093700787401
21
-3.1663318897637796
0
LINE
8
BLACK
6
CONTINUOUS
10
5.5737093700787401
20
-3.1663318897637796
11
5.5677165354330711
21
-3.1706859448818898
0
LINE
8
BLACK
6
CONTINUOUS
10
5.5677165354330711
20
-3.1706859448818898
11
5.5609494094488188
21
-3.1736988582677164
0
LINE
8
BLACK
6
CONTINUOUS
10
5.5609494094488188
20
-3.1736988582677164
11
5.5537037795275586
21
-3.1752389763779525
0
LINE
8
BLACK
6
CONTINUOUS
10
5.5537037795275586
20
-3.1752389763779525
11
5.5462962204724411
21
-3.1752389763779525
0
LINE
8
BLACK
6
CONTINUOUS
10
5.5462962204724411
20
-3.1752389763779525
11
5.5390505905511809
21
-3.1736988582677164
0
LINE
8
BLACK
6
CONTINUOUS
10
5.5390505905511809
20
-3.1736988582677164
11
5.5322834645669294
21
-3.1706859448818898
0
LINE
8
BLACK
6
CONTINUOUS
10
5.5322834645669294
20
-3.1706859448818898
11
5.5262906299212595
21
-3.1663318897637796
0
LINE
8
BLACK
6
CONTINUOUS
10
5.5262906299212595
20
-3.1663318897637796
11
5.5213340551181105
21
-3.1608270472440942
0
LINE
8
BLACK
6
CONTINUOUS
10
5.5213340551181105
20
-3.1608270472440942
11
5.5176302755905509
21
-3.1544119291338584
0
LINE
8
BLACK
6
CONTINUOUS
10
5.5176302755905509
20
-3.1544119291338584
11
5.5153412204724406
21
-3.1473669685039369
0
LINE
8
BLACK
6
CONTINUOUS
10
5.5153412204724406
20
-3.1473669685039369
11
5.5145669291338582
21
-3.1400000000000001
0
LINE
8
BLACK
6
CONTINUOUS
10
5.5145669291338582
20
-3.1400000000000001
11
5.5153412204724406
21
-3.1326330314960629
0
LINE
8
BLACK
6
CONTINUOUS
10
5.5153412204724406
20
-3.1326330314960629
11
5.5176302755905509
21
-3.1255880708661419
0
LINE
8
BLACK
6
CONTINUOUS
10
5.5176302755905509
20
-3.1255880708661419
11
5.5213340551181105
21
-3.1191729527559056
0
LINE
8
BLACK
6
CONTINUOUS
10
5.5213340551181105
20
-3.1191729527559056
11
5.5262906299212595
21
-3.1136681102362203
0
LINE
8
BLACK
6
CONTINUOUS
10
5.5262906299212595
20
-3.1136681102362203
11
5.5322834645669294
21
-3.10931405511811
0
LINE
8
BLACK
6
CONTINUOUS
10
5.5322834645669294
20
-3.10931405511811
11
5.5390505905511809
21
-3.1063011417322834
0
LINE
8
BLACK
6
CONTINUOUS
10
5.5390505905511809
20
-3.1063011417322834
11
5.5462962204724411
21
-3.1047610236220473
0
LINE
8
BLACK
6
CONTINUOUS
10
5.5462962204724411
20
-3.1047610236220473
11
5.5537037795275586
21
-3.1047610236220473
0
LINE
8
BLACK
6
CONTINUOUS
10
5.5537037795275586
20
-3.1047610236220473
11
5.5609494094488188
21
-3.1063011417322834
0
LINE
8
BLACK
6
CONTINUOUS
10
5.4003596062992125
20
-3.0946380314960629
11
5.4009982283464568
21
-3.0950647637795274
0
LINE
8
BLACK
6
CONTINUOUS
10
5.4009982283464568
20
-3.0950647637795274
11
5.4014249606299209
21
-3.0957033858267717
0
LINE
8
BLACK
6
CONTINUOUS
10
5.4014249606299209
20
-3.0957033858267717
11
5.4015748031496065
21
-3.0964566929133857
0
LINE
8
BLACK
6
CONTINUOUS
10
5.4015748031496065
20
-3.0964566929133857
11
5.4015748031496065
21
-3.1633858267716533
0
LINE
8
BLACK
6
CONTINUOUS
10
5.4015748031496065
20
-3.1633858267716533
11
5.4014249606299209
21
-3.1641391338582676
0
LINE
8
BLACK
6
CONTINUOUS
10
5.4014249606299209
20
-3.1641391338582676
11
5.4009982283464568
21
-3.1647777559055119
0
LINE
8
BLACK
6
CONTINUOUS
10
5.4009982283464568
20
-3.1647777559055119
11
5.4003596062992125
21
-3.1652044881889765
0
LINE
8
BLACK
6
CONTINUOUS
10
5.4003596062992125
20
-3.1652044881889765
11
5.3996062992125982
21
-3.1653543307086611
0
LINE
8
BLACK
6
CONTINUOUS
10
5.3996062992125982
20
-3.1653543307086611
11
5.3326771653543306
21
-3.1653543307086611
0
LINE
8
BLACK
6
CONTINUOUS
10
5.3326771653543306
20
-3.1653543307086611
11
5.3319238582677162
21
-3.1652044881889765
0
LINE
8
BLACK
6
CONTINUOUS
10
5.3319238582677162
20
-3.1652044881889765
11
5.3312852362204719
21
-3.1647777559055119
0
LINE
8
BLACK
6
CONTINUOUS
10
5.3312852362204719
20
-3.1647777559055119
11
5.3308585039370078
21
-3.1641391338582676
0
LINE
8
BLACK
6
CONTINUOUS
10
5.3308585039370078
20
-3.1641391338582676
11
5.3307086614173231
21
-3.1633858267716533
0
LINE
8
BLACK
6
CONTINUOUS
10
5.3307086614173231
20
-3.1633858267716533
11
5.3307086614173231
21
-3.0964566929133857
0
LINE
8
BLACK
6
CONTINUOUS
10
5.3307086614173231
20
-3.0964566929133857
11
5.3308585039370078
21
-3.0957033858267717
0
LINE
8
BLACK
6
CONTINUOUS
10
5.3308585039370078
20
-3.0957033858267717
11
5.3312852362204719
21
-3.0950647637795274
0
LINE
8
BLACK
6
CONTINUOUS
10
5.3312852362204719
20
-3.0950647637795274
11
5.3319238582677162
21
-3.0946380314960629
0
LINE
8
BLACK
6
CONTINUOUS
10
5.3319238582677162
20
-3.0946380314960629
11
5.3326771653543306
21
-3.0944881889763778
0
LINE
8
BLACK
6
CONTINUOUS
10
5.3326771653543306
20
-3.0944881889763778
11
5.3996062992125982
21
-3.0944881889763778
0
LINE
8
BLACK
6
CONTINUOUS
10
5.3996062992125982
20
-3.0944881889763778
11
5.4003596062992125
21
-3.0946380314960629
0
LINE
8
BLACK
6
CONTINUOUS
10
6.8356043307086614
20
-3.0690842913385827
11
6.8408267716535436
21
-3.0712474803149608
0
LINE
8
BLACK
6
CONTINUOUS
10
6.8408267716535436
20
-3.0712474803149608
11
6.8453113779527559
21
-3.074688622047244
0
LINE
8
BLACK
6
CONTINUOUS
10
6.8453113779527559
20
-3.074688622047244
11
6.8487525196850392
21
-3.0791732283464568
0
LINE
8
BLACK
6
CONTINUOUS
10
6.8487525196850392
20
-3.0791732283464568
11
6.8509157086614172
21
-3.0843956692913386
0
LINE
8
BLACK
6
CONTINUOUS
10
6.8509157086614172
20
-3.0843956692913386
11
6.8516535433070862
21
-3.0899999999999999
0
LINE
8
BLACK
6
CONTINUOUS
10
6.8516535433070862
20
-3.0899999999999999
11
6.8509157086614172
21
-3.0956043307086611
0
LINE
8
BLACK
6
CONTINUOUS
10
6.8509157086614172
20
-3.0956043307086611
11
6.8487525196850392
21
-3.1008267716535434
0
LINE
8
BLACK
6
CONTINUOUS
10
6.8487525196850392
20
-3.1008267716535434
11
6.8453113779527559
21
-3.1053113779527557
0
LINE
8
BLACK
6
CONTINUOUS
10
6.8453113779527559
20
-3.1053113779527557
11
6.8408267716535436
21
-3.1087525196850394
0
LINE
8
BLACK
6
CONTINUOUS
10
6.8408267716535436
20
-3.1087525196850394
11
6.8356043307086614
21
-3.1109157086614174
0
LINE
8
BLACK
6
CONTINUOUS
10
6.8356043307086614
20
-3.1109157086614174
11
6.8300000000000001
21
-3.1116535433070864
0
LINE
8
BLACK
6
CONTINUOUS
10
6.8300000000000001
20
-3.1116535433070864
11
6.8243956692913388
21
-3.1109157086614174
0
LINE
8
BLACK
6
CONTINUOUS
10
6.8243956692913388
20
-3.1109157086614174
11
6.8191732283464566
21
-3.1087525196850394
0
LINE
8
BLACK
6
CONTINUOUS
10
6.8191732283464566
20
-3.1087525196850394
11
6.8146886220472442
21
-3.1053113779527557
0
LINE
8
BLACK
6
CONTINUOUS
10
6.8146886220472442
20
-3.1053113779527557
11
6.8112474803149601
21
-3.1008267716535434
0
LINE
8
BLACK
6
CONTINUOUS
10
6.8112474803149601
20
-3.1008267716535434
11
6.809084291338583
21
-3.0956043307086611
0
LINE
8
BLACK
6
CONTINUOUS
10
6.809084291338583
20
-3.0956043307086611
11
6.8083464566929131
21
-3.0899999999999999
0
LINE
8
BLACK
6
CONTINUOUS
10
6.8083464566929131
20
-3.0899999999999999
11
6.809084291338583
21
-3.0843956692913386
0
LINE
8
BLACK
6
CONTINUOUS
10
6.809084291338583
20
-3.0843956692913386
11
6.8112474803149601
21
-3.0791732283464568
0
LINE
8
BLACK
6
CONTINUOUS
10
6.8112474803149601
20
-3.0791732283464568
11
6.8146886220472442
21
-3.074688622047244
0
LINE
8
BLACK
6
CONTINUOUS
10
6.8146886220472442
20
-3.074688622047244
11
6.8191732283464566
21
-3.0712474803149608
0
LINE
8
BLACK
6
CONTINUOUS
10
6.8191732283464566
20
-3.0712474803149608
11
6.8243956692913388
21
-3.0690842913385827
0
LINE
8
BLACK
6
CONTINUOUS
10
6.8243956692913388
20
-3.0690842913385827
11
6.8300000000000001
21
-3.0683464566929133
0
LINE
8
BLACK
6
CONTINUOUS
10
6.8300000000000001
20
-3.0683464566929133
11
6.8356043307086614
21
-3.0690842913385827
0
LINE
8
BLACK
6
CONTINUOUS
10
7.0377592519685042
20
-2.9439715748031494
11
7.0483662598425196
21
-2.9469435039370078
0
LINE
8
BLACK
6
CONTINUOUS
10
7.0483662598425196
20
-2.9469435039370078
11
7.058469803149606
21
-2.951332086614173
0
LINE
8
BLACK
6
CONTINUOUS
10
7.058469803149606
20
-2.951332086614173
11
7.0678816929133861
21
-2.9570555905511808
0
LINE
8
BLACK
6
CONTINUOUS
10
7.0678816929133861
20
-2.9570555905511808
11
7.0764265354330709
21
-2.9640073228346457
0
LINE
8
BLACK
6
CONTINUOUS
10
7.0764265354330709
20
-2.9640073228346457
11
7.0839451968503937
21
-2.9720578740157482
0
LINE
8
BLACK
6
CONTINUOUS
10
7.0839451968503937
20
-2.9720578740157482
11
7.0902976377952758
21
-2.9810572047244093
0
LINE
8
BLACK
6
CONTINUOUS
10
7.0902976377952758
20
-2.9810572047244093
11
7.0953654724409443
21
-2.9908377165354332
0
LINE
8
BLACK
6
CONTINUOUS
10
7.0953654724409443
20
-2.9908377165354332
11
7.0990543307086611
21
-3.0012172047244094
0
LINE
8
BLACK
6
CONTINUOUS
10
7.0990543307086611
20
-3.0012172047244094
11
7.1012955118110233
21
-3.0120022834645668
0
LINE
8
BLACK
6
CONTINUOUS
10
7.1012955118110233
20
-3.0120022834645668
11
7.1020472440944884
21
-3.0229921259842518
0
LINE
8
BLACK
6
CONTINUOUS
10
7.1020472440944884
20
-3.0229921259842518
11
7.1012955118110233
21
-3.0339819685039369
0
LINE
8
BLACK
6
CONTINUOUS
10
7.1012955118110233
20
-3.0339819685039369
11
7.0990543307086611
21
-3.0447670472440946
0
LINE
8
BLACK
6
CONTINUOUS
10
7.0990543307086611
20
-3.0447670472440946
11
7.0953654724409443
21
-3.0551465354330709
0
LINE
8
BLACK
6
CONTINUOUS
10
7.0953654724409443
20
-3.0551465354330709
11
7.0902976377952758
21
-3.0649270472440944
0
LINE
8
BLACK
6
CONTINUOUS
10
7.0902976377952758
20
-3.0649270472440944
11
7.0839451968503937
21
-3.0739263779527559
0
LINE
8
BLACK
6
CONTINUOUS
10
7.0839451968503937
20
-3.0739263779527559
11
7.0764265354330709
21
-3.0819769291338583
0
LINE
8
BLACK
6
CONTINUOUS
10
7.0764265354330709
20
-3.0819769291338583
11
7.0678816929133861
21
-3.0889286614173228
0
LINE
8
BLACK
6
CONTINUOUS
10
7.0678816929133861
20
-3.0889286614173228
11
7.058469803149606
21
-3.0946521653543306
0
LINE
8
BLACK
6
CONTINUOUS
10
7.058469803149606
20
-3.0946521653543306
11
7.0483662598425196
21
-3.0990407480314959
0
LINE
8
BLACK
6
CONTINUOUS
10
7.0483662598425196
20
-3.0990407480314959
11
7.0377592519685042
21
-3.1020126771653542
0
LINE
8
BLACK
6
CONTINUOUS
10
7.0377592519685042
20
-3.1020126771653542
11
7.0268463385826774
21
-3.1035126377952755
0
LINE
8
BLACK
6
CONTINUOUS
10
7.0268463385826774
20
-3.1035126377952755
11
7.0158308267716532
21
-3.1035126377952755
0
LINE
8
BLACK
6
CONTINUOUS
10
7.0158308267716532
20
-3.1035126377952755
11
7.0049179133858264
21
-3.1020126771653542
0
LINE
8
BLACK
6
CONTINUOUS
10
7.0049179133858264
20
-3.1020126771653542
11
6.9943109055118109
21
-3.0990407480314959
0
LINE
8
BLACK
6
CONTINUOUS
10
6.9943109055118109
20
-3.0990407480314959
11
6.9842073622047245
21
-3.0946521653543306
0
LINE
8
BLACK
6
CONTINUOUS
10
6.9842073622047245
20
-3.0946521653543306
11
6.9747954724409444
21
-3.0889286614173228
0
LINE
8
BLACK
6
CONTINUOUS
10
6.9747954724409444
20
-3.0889286614173228
11
6.9662506299212597
21
-3.0819769291338583
0
LINE
8
BLACK
6
CONTINUOUS
10
6.9662506299212597
20
-3.0819769291338583
11
6.9587319685039368
21
-3.0739263779527559
0
LINE
8
BLACK
6
CONTINUOUS
10
6.9587319685039368
20
-3.0739263779527559
11
6.9523795275590548
21
-3.0649270472440944
0
LINE
8
BLACK
6
CONTINUOUS
10
6.9523795275590548
20
-3.0649270472440944
11
6.9473116929133854
21
-3.0551465354330709
0
LINE
8
BLACK
6
CONTINUOUS
10
6.9473116929133854
20
-3.0551465354330709
11
6.9436228346456694
21
-3.0447670472440946
0
LINE
8
BLACK
6
CONTINUOUS
10
6.9436228346456694
20
-3.0447670472440946
11
6.9413816535433073
21
-3.0339819685039369
0
LINE
8
BLACK
6
CONTINUOUS
10
6.9413816535433073
20
-3.0339819685039369
11
6.9406299212598421
21
-3.0229921259842518
0
LINE
8
BLACK
6
CONTINUOUS
10
6.9406299212598421
20
-3.0229921259842518
11
6.9413816535433073
21
-3.0120022834645668
0
LINE
8
BLACK
6
CONTINUOUS
10
6.9413816535433073
20
-3.0120022834645668
11
6.9436228346456694
21
-3.0012172047244094
0
LINE
8
BLACK
6
CONTINUOUS
10
6.9436228346456694
20
-3.0012172047244094
11
6.9473116929133854
21
-2.9908377165354332
0
LINE
8
BLACK
6
CONTINUOUS
10
6.9473116929133854
20
-2.9908377165354332
11
6.9523795275590548
21
-2.9810572047244093
0
LINE
8
BLACK
6
CONTINUOUS
10
6.9523795275590548
20
-2.9810572047244093
11
6.9587319685039368
21
-2.9720578740157482
0
LINE
8
BLACK
6
CONTINUOUS
10
6.9587319685039368
20
-2.9720578740157482
11
6.9662506299212597
21
-2.9640073228346457
0
LINE
8
BLACK
6
CONTINUOUS
10
6.9662506299212597
20
-2.9640073228346457
11
6.9747954724409444
21
-2.9570555905511808
0
LINE
8
BLACK
6
CONTINUOUS
10
6.9747954724409444
20
-2.9570555905511808
11
6.9842073622047245
21
-2.951332086614173
0
LINE
8
BLACK
6
CONTINUOUS
10
6.9842073622047245
20
-2.951332086614173
11
6.9943109055118109
21
-2.9469435039370078
0
LINE
8
BLACK
6
CONTINUOUS
10
6.9943109055118109
20
-2.9469435039370078
11
7.0049179133858264
21
-2.9439715748031494
0
LINE
8
BLACK
6
CONTINUOUS
10
7.0049179133858264
20
-2.9439715748031494
11
7.0158308267716532
21
-2.9424716141732281
0
LINE
8
BLACK
6
CONTINUOUS
10
7.0158308267716532
20
-2.9424716141732281
11
7.0268463385826774
21
-2.9424716141732281
0
LINE
8
BLACK
6
CONTINUOUS
10
7.0268463385826774
20
-2.9424716141732281
11
7.0377592519685042
21
-2.9439715748031494
0
LINE
8
BLACK
6
CONTINUOUS
10
5.5842178740157475
20
-3.0047167716535435
11
5.5848564960629918
21
-3.005143503937008
0
LINE
8
BLACK
6
CONTINUOUS
10
5.5848564960629918
20
-3.005143503937008
11
5.5852832283464569
21
-3.0057821259842519
0
LINE
8
BLACK
6
CONTINUOUS
10
5.5852832283464569
20
-3.0057821259842519
11
5.5854330708661415
21
-3.0065354330708662
0
LINE
8
BLACK
6
CONTINUOUS
10
5.5854330708661415
20
-3.0065354330708662
11
5.5854330708661415
21
-3.0734645669291338
0
LINE
8
BLACK
6
CONTINUOUS
10
5.5854330708661415
20
-3.0734645669291338
11
5.5852832283464569
21
-3.0742178740157478
0
LINE
8
BLACK
6
CONTINUOUS
10
5.5852832283464569
20
-3.0742178740157478
11
5.5848564960629918
21
-3.0748564960629921
0
LINE
8
BLACK
6
CONTINUOUS
10
5.5848564960629918
20
-3.0748564960629921
11
5.5842178740157475
21
-3.0752832283464566
0
LINE
8
BLACK
6
CONTINUOUS
10
5.5842178740157475
20
-3.0752832283464566
11
5.5834645669291341
21
-3.0754330708661417
0
LINE
8
BLACK
6
CONTINUOUS
10
5.5834645669291341
20
-3.0754330708661417
11
5.5165354330708656
21
-3.0754330708661417
0
LINE
8
BLACK
6
CONTINUOUS
10
5.5165354330708656
20
-3.0754330708661417
11
5.5157821259842521
21
-3.0752832283464566
0
LINE
8
BLACK
6
CONTINUOUS
10
5.5157821259842521
20
-3.0752832283464566
11
5.5151435039370078
21
-3.0748564960629921
0
LINE
8
BLACK
6
CONTINUOUS
10
5.5151435039370078
20
-3.0748564960629921
11
5.5147167716535428
21
-3.0742178740157478
0
LINE
8
BLACK
6
CONTINUOUS
10
5.5147167716535428
20
-3.0742178740157478
11
5.5145669291338582
21
-3.0734645669291338
0
LINE
8
BLACK
6
CONTINUOUS
10
5.5145669291338582
20
-3.0734645669291338
11
5.5145669291338582
21
-3.0065354330708662
0
LINE
8
BLACK
6
CONTINUOUS
10
5.5145669291338582
20
-3.0065354330708662
11
5.5147167716535428
21
-3.0057821259842519
0
LINE
8
BLACK
6
CONTINUOUS
10
5.5147167716535428
20
-3.0057821259842519
11
5.5151435039370078
21
-3.005143503937008
0
LINE
8
BLACK
6
CONTINUOUS
10
5.5151435039370078
20
-3.005143503937008
11
5.5157821259842521
21
-3.0047167716535435
0
LINE
8
BLACK
6
CONTINUOUS
10
5.5157821259842521
20
-3.0047167716535435
11
5.5165354330708656
21
-3.0045669291338584
0
LINE
8
BLACK
6
CONTINUOUS
10
5.5165354330708656
20
-3.0045669291338584
11
5.5834645669291341
21
-3.0045669291338584
0
LINE
8
BLACK
6
CONTINUOUS
10
5.5834645669291341
20
-3.0045669291338584
11
5.5842178740157475
21
-3.0047167716535435
0
LINE
8
BLACK
6
CONTINUOUS
10
5.3770911417322838
20
-2.9962224015748031
11
5.3838582677165352
21
-2.9992353149606297
0
LINE
8
BLACK
6
CONTINUOUS
10
5.3838582677165352
20
-2.9992353149606297
11
5.3898511023622042
21
-3.0035893700787399
0
LINE
8
BLACK
6
CONTINUOUS
10
5.3898511023622042
20
-3.0035893700787399
11
5.3948076771653541
21
-3.0090942125984252
0
LINE
8
BLACK
6
CONTINUOUS
10
5.3948076771653541
20
-3.0090942125984252
11
5.3985114566929129
21
-3.0155093307086616
0
LINE
8
BLACK
6
CONTINUOUS
10
5.3985114566929129
20
-3.0155093307086616
11
5.4008005118110232
21
-3.0225542913385826
0
LINE
8
BLACK
6
CONTINUOUS
10
5.4008005118110232
20
-3.0225542913385826
11
5.4015748031496065
21
-3.0299212598425198
0
LINE
8
BLACK
6
CONTINUOUS
10
5.4015748031496065
20
-3.0299212598425198
11
5.4008005118110232
21
-3.0372882283464566
0
LINE
8
BLACK
6
CONTINUOUS
10
5.4008005118110232
20
-3.0372882283464566
11
5.3985114566929129
21
-3.0443331889763781
0
LINE
8
BLACK
6
CONTINUOUS
10
5.3985114566929129
20
-3.0443331889763781
11
5.3948076771653541
21
-3.0507483070866139
0
LINE
8
BLACK
6
CONTINUOUS
10
5.3948076771653541
20
-3.0507483070866139
11
5.3898511023622042
21
-3.0562531496062992
0
LINE
8
BLACK
6
CONTINUOUS
10
5.3898511023622042
20
-3.0562531496062992
11
5.3838582677165352
21
-3.0606072047244095
0
LINE
8
BLACK
6
CONTINUOUS
10
5.3838582677165352
20
-3.0606072047244095
11
5.3770911417322838
21
-3.063620118110236
0
LINE
8
BLACK
6
CONTINUOUS
10
5.3770911417322838
20
-3.063620118110236
11
5.3698455118110235
21
-3.0651602362204722
0
LINE
8
BLACK
6
CONTINUOUS
10
5.3698455118110235
20
-3.0651602362204722
11
5.3624379527559052
21
-3.0651602362204722
0
LINE
8
BLACK
6
CONTINUOUS
10
5.3624379527559052
20
-3.0651602362204722
11
5.3551923228346459
21
-3.063620118110236
0
LINE
8
BLACK
6
CONTINUOUS
10
5.3551923228346459
20
-3.063620118110236
11
5.3484251968503935
21
-3.0606072047244095
0
LINE
8
BLACK
6
CONTINUOUS
10
5.3484251968503935
20
-3.0606072047244095
11
5.3424323622047245
21
-3.0562531496062992
0
LINE
8
BLACK
6
CONTINUOUS
10
5.3424323622047245
20
-3.0562531496062992
11
5.3374757874015746
21
-3.0507483070866139
0
LINE
8
BLACK
6
CONTINUOUS
10
5.3374757874015746
20
-3.0507483070866139
11
5.3337720078740158
21
-3.0443331889763781
0
LINE
8
BLACK
6
CONTINUOUS
10
5.3337720078740158
20
-3.0443331889763781
11
5.3314829527559056
21
-3.0372882283464566
0
LINE
8
BLACK
6
CONTINUOUS
10
5.3314829527559056
20
-3.0372882283464566
11
5.3307086614173231
21
-3.0299212598425198
0
LINE
8
BLACK
6
CONTINUOUS
10
5.3307086614173231
20
-3.0299212598425198
11
5.3314829527559056
21
-3.0225542913385826
0
LINE
8
BLACK
6
CONTINUOUS
10
5.3314829527559056
20
-3.0225542913385826
11
5.3337720078740158
21
-3.0155093307086616
0
LINE
8
BLACK
6
CONTINUOUS
10
5.3337720078740158
20
-3.0155093307086616
11
5.3374757874015746
21
-3.0090942125984252
0
LINE
8
BLACK
6
CONTINUOUS
10
5.3374757874015746
20
-3.0090942125984252
11
5.3424323622047245
21
-3.0035893700787399
0
LINE
8
BLACK
6
CONTINUOUS
10
5.3424323622047245
20
-3.0035893700787399
11
5.3484251968503935
21
-2.9992353149606297
0
LINE
8
BLACK
6
CONTINUOUS
10
5.3484251968503935
20
-2.9992353149606297
11
5.3551923228346459
21
-2.9962224015748031
0
LINE
8
BLACK
6
CONTINUOUS
10
5.3551923228346459
20
-2.9962224015748031
11
5.3624379527559052
21
-2.994682283464567
0
LINE
8
BLACK
6
CONTINUOUS
10
5.3624379527559052
20
-2.994682283464567
11
5.3698455118110235
21
-2.994682283464567
0
LINE
8
BLACK
6
CONTINUOUS
10
5.3698455118110235
20
-2.994682283464567
11
5.3770911417322838
21
-2.9962224015748031
0
LINE
8
BLACK
6
CONTINUOUS
10
5.3770911417322838
20
-2.896222401574803
11
5.3838582677165352
21
-2.89923531496063
0
LINE
8
BLACK
6
CONTINUOUS
10
5.3838582677165352
20
-2.89923531496063
11
5.3898511023622042
21
-2.9035893700787403
0
LINE
8
BLACK
6
CONTINUOUS
10
5.3898511023622042
20
-2.9035893700787403
11
5.3948076771653541
21
-2.9090942125984252
0
LINE
8
BLACK
6
CONTINUOUS
10
5.3948076771653541
20
-2.9090942125984252
11
5.3985114566929129
21
-2.9155093307086615
0
LINE
8
BLACK
6
CONTINUOUS
10
5.3985114566929129
20
-2.9155093307086615
11
5.4008005118110232
21
-2.9225542913385825
0
LINE
8
BLACK
6
CONTINUOUS
10
5.4008005118110232
20
-2.9225542913385825
11
5.4015748031496065
21
-2.9299212598425197
0
LINE
8
BLACK
6
CONTINUOUS
10
5.4015748031496065
20
-2.9299212598425197
11
5.4008005118110232
21
-2.9372882283464565
0
LINE
8
BLACK
6
CONTINUOUS
10
5.4008005118110232
20
-2.9372882283464565
11
5.3985114566929129
21
-2.944333188976378
0
LINE
8
BLACK
6
CONTINUOUS
10
5.3985114566929129
20
-2.944333188976378
11
5.3948076771653541
21
-2.9507483070866143
0
LINE
8
BLACK
6
CONTINUOUS
10
5.3948076771653541
20
-2.9507483070866143
11
5.3898511023622042
21
-2.9562531496062991
0
LINE
8
BLACK
6
CONTINUOUS
10
5.3898511023622042
20
-2.9562531496062991
11
5.3838582677165352
21
-2.9606072047244094
0
LINE
8
BLACK
6
CONTINUOUS
10
5.3838582677165352
20
-2.9606072047244094
11
5.3770911417322838
21
-2.963620118110236
0
LINE
8
BLACK
6
CONTINUOUS
10
5.3770911417322838
20
-2.963620118110236
11
5.3698455118110235
21
-2.9651602362204725
0
LINE
8
BLACK
6
CONTINUOUS
10
5.3698455118110235
20
-2.9651602362204725
11
5.3624379527559052
21
-2.9651602362204725
0
LINE
8
BLACK
6
CONTINUOUS
10
5.3624379527559052
20
-2.9651602362204725
11
5.3551923228346459
21
-2.963620118110236
0
LINE
8
BLACK
6
CONTINUOUS
10
5.3551923228346459
20
-2.963620118110236
11
5.3484251968503935
21
-2.9606072047244094
0
LINE
8
BLACK
6
CONTINUOUS
10
5.3484251968503935
20
-2.9606072047244094
11
5.3424323622047245
21
-2.9562531496062991
0
LINE
8
BLACK
6
CONTINUOUS
10
5.3424323622047245
20
-2.9562531496062991
11
5.3374757874015746
21
-2.9507483070866143
0
LINE
8
BLACK
6
CONTINUOUS
10
5.3374757874015746
20
-2.9507483070866143
11
5.3337720078740158
21
-2.944333188976378
0
LINE
8
BLACK
6
CONTINUOUS
10
5.3337720078740158
20
-2.944333188976378
11
5.3314829527559056
21
-2.9372882283464565
0
LINE
8
BLACK
6
CONTINUOUS
10
5.3314829527559056
20
-2.9372882283464565
11
5.3307086614173231
21
-2.9299212598425197
0
LINE
8
BLACK
6
CONTINUOUS
10
5.3307086614173231
20
-2.9299212598425197
11
5.3314829527559056
21
-2.9225542913385825
0
LINE
8
BLACK
6
CONTINUOUS
10
5.3314829527559056
20
-2.9225542913385825
11
5.3337720078740158
21
-2.9155093307086615
0
LINE
8
BLACK
6
CONTINUOUS
10
5.3337720078740158
20
-2.9155093307086615
11
5.3374757874015746
21
-2.9090942125984252
0
LINE
8
BLACK
6
CONTINUOUS
10
5.3374757874015746
20
-2.9090942125984252
11
5.3424323622047245
21
-2.9035893700787403
0
LINE
8
BLACK
6
CONTINUOUS
10
5.3424323622047245
20
-2.9035893700787403
11
5.3484251968503935
21
-2.89923531496063
0
LINE
8
BLACK
6
CONTINUOUS
10
5.3484251968503935
20
-2.89923531496063
11
5.3551923228346459
21
-2.896222401574803
0
LINE
8
BLACK
6
CONTINUOUS
10
5.3551923228346459
20
-2.896222401574803
11
5.3624379527559052
21
-2.8946822834645669
0
LINE
8
BLACK
6
CONTINUOUS
10
5.3624379527559052
20
-2.8946822834645669
11
5.3698455118110235
21
-2.8946822834645669
0
LINE
8
BLACK
6
CONTINUOUS
10
5.3698455118110235
20
-2.8946822834645669
11
5.3770911417322838
21
-2.896222401574803
0
LINE
8
BLACK
6
CONTINUOUS
10
5.3770911417322838
20
-2.796222401574803
11
5.3838582677165352
21
-2.7992353149606299
0
LINE
8
BLACK
6
CONTINUOUS
10
5.3838582677165352
20
-2.7992353149606299
11
5.3898511023622042
21
-2.8035893700787402
0
LINE
8
BLACK
6
CONTINUOUS
10
5.3898511023622042
20
-2.8035893700787402
11
5.3948076771653541
21
-2.8090942125984251
0
LINE
8
BLACK
6
CONTINUOUS
10
5.3948076771653541
20
-2.8090942125984251
11
5.3985114566929129
21
-2.8155093307086614
0
LINE
8
BLACK
6
CONTINUOUS
10
5.3985114566929129
20
-2.8155093307086614
11
5.4008005118110232
21
-2.8225542913385828
0
LINE
8
BLACK
6
CONTINUOUS
10
5.4008005118110232
20
-2.8225542913385828
11
5.4015748031496065
21
-2.8299212598425196
0
LINE
8
BLACK
6
CONTINUOUS
10
5.4015748031496065
20
-2.8299212598425196
11
5.4008005118110232
21
-2.8372882283464564
0
LINE
8
BLACK
6
CONTINUOUS
10
5.4008005118110232
20
-2.8372882283464564
11
5.3985114566929129
21
-2.8443331889763779
0
LINE
8
BLACK
6
CONTINUOUS
10
5.3985114566929129
20
-2.8443331889763779
11
5.3948076771653541
21
-2.8507483070866142
0
LINE
8
BLACK
6
CONTINUOUS
10
5.3948076771653541
20
-2.8507483070866142
11
5.3898511023622042
21
-2.8562531496062991
0
LINE
8
BLACK
6
CONTINUOUS
10
5.3898511023622042
20
-2.8562531496062991
11
5.3838582677165352
21
-2.8606072047244093
0
LINE
8
BLACK
6
CONTINUOUS
10
5.3838582677165352
20
-2.8606072047244093
11
5.3770911417322838
21
-2.8636201181102363
0
LINE
8
BLACK
6
CONTINUOUS
10
5.3770911417322838
20
-2.8636201181102363
11
5.3698455118110235
21
-2.8651602362204724
0
LINE
8
BLACK
6
CONTINUOUS
10
5.3698455118110235
20
-2.8651602362204724
11
5.3624379527559052
21
-2.8651602362204724
0
LINE
8
BLACK
6
CONTINUOUS
10
5.3624379527559052
20
-2.8651602362204724
11
5.3551923228346459
21
-2.8636201181102363
0
LINE
8
BLACK
6
CONTINUOUS
10
5.3551923228346459
20
-2.8636201181102363
11
5.3484251968503935
21
-2.8606072047244093
0
LINE
8
BLACK
6
CONTINUOUS
10
5.3484251968503935
20
-2.8606072047244093
11
5.3424323622047245
21
-2.8562531496062991
0
LINE
8
BLACK
6
CONTINUOUS
10
5.3424323622047245
20
-2.8562531496062991
11
5.3374757874015746
21
-2.8507483070866142
0
LINE
8
BLACK
6
CONTINUOUS
10
5.3374757874015746
20
-2.8507483070866142
11
5.3337720078740158
21
-2.8443331889763779
0
LINE
8
BLACK
6
CONTINUOUS
10
5.3337720078740158
20
-2.8443331889763779
11
5.3314829527559056
21
-2.8372882283464564
0
LINE
8
BLACK
6
CONTINUOUS
10
5.3314829527559056
20
-2.8372882283464564
11
5.3307086614173231
21
-2.8299212598425196
0
LINE
8
BLACK
6
CONTINUOUS
10
5.3307086614173231
20
-2.8299212598425196
11
5.3314829527559056
21
-2.8225542913385828
0
LINE
8
BLACK
6
CONTINUOUS
10
5.3314829527559056
20
-2.8225542913385828
11
5.3337720078740158
21
-2.8155093307086614
0
LINE
8
BLACK
6
CONTINUOUS
10
5.3337720078740158
20
-2.8155093307086614
11
5.3374757874015746
21
-2.8090942125984251
0
LINE
8
BLACK
6
CONTINUOUS
10
5.3374757874015746
20
-2.8090942125984251
11
5.3424323622047245
21
-2.8035893700787402
0
LINE
8
BLACK
6
CONTINUOUS
10
5.3424323622047245
20
-2.8035893700787402
11
5.3484251968503935
21
-2.7992353149606299
0
LINE
8
BLACK
6
CONTINUOUS
10
5.3484251968503935
20
-2.7992353149606299
11
5.3551923228346459
21
-2.796222401574803
0
LINE
8
BLACK
6
CONTINUOUS
10
5.3551923228346459
20
-2.796222401574803
11
5.3624379527559052
21
-2.7946822834645668
0
LINE
8
BLACK
6
CONTINUOUS
10
5.3624379527559052
20
-2.7946822834645668
11
5.3698455118110235
21
-2.7946822834645668
0
LINE
8
BLACK
6
CONTINUOUS
10
5.3698455118110235
20
-2.7946822834645668
11
5.3770911417322838
21
-2.796222401574803
0
LINE
8
BLACK
6
CONTINUOUS
10
4.8560503937007873
20
-2.6827889763779527
11
4.8646603937007873
21
-2.6857447637795273
0
LINE
8
BLACK
6
CONTINUOUS
10
4.8646603937007873
20
-2.6857447637795273
11
4.8726664173228347
21
-2.690077440944882
0
LINE
8
BLACK
6
CONTINUOUS
10
4.8726664173228347
20
-2.690077440944882
11
4.8798501574803153
21
-2.6956687795275589
0
LINE
8
BLACK
6
CONTINUOUS
10
4.8798501574803153
20
-2.6956687795275589
11
4.8860156299212596
21
-2.7023662204724408
0
LINE
8
BLACK
6
CONTINUOUS
10
4.8860156299212596
20
-2.7023662204724408
11
4.8909946062992127
21
-2.7099871653543306
0
LINE
8
BLACK
6
CONTINUOUS
10
4.8909946062992127
20
-2.7099871653543306
11
4.8946513385826771
21
-2.718323661417323
0
LINE
8
BLACK
6
CONTINUOUS
10
4.8946513385826771
20
-2.718323661417323
11
4.8968860629921256
21
-2.7271483464566928
0
LINE
8
BLACK
6
CONTINUOUS
10
4.8968860629921256
20
-2.7271483464566928
11
4.8976377952755907
21
-2.7362204724409449
0
LINE
8
BLACK
6
CONTINUOUS
10
4.8976377952755907
20
-2.7362204724409449
11
4.8968860629921256
21
-2.7452925984251966
0
LINE
8
BLACK
6
CONTINUOUS
10
4.8968860629921256
20
-2.7452925984251966
11
4.8946513385826771
21
-2.7541172834645669
0
LINE
8
BLACK
6
CONTINUOUS
10
4.8946513385826771
20
-2.7541172834645669
11
4.8909946062992127
21
-2.7624537795275588
0
LINE
8
BLACK
6
CONTINUOUS
10
4.8909946062992127
20
-2.7624537795275588
11
4.8860156299212596
21
-2.7700747244094486
0
LINE
8
BLACK
6
CONTINUOUS
10
4.8860156299212596
20
-2.7700747244094486
11
4.8798501574803153
21
-2.7767721653543305
0
LINE
8
BLACK
6
CONTINUOUS
10
4.8798501574803153
20
-2.7767721653543305
11
4.8726664173228347
21
-2.7823635039370078
0
LINE
8
BLACK
6
CONTINUOUS
10
4.8726664173228347
20
-2.7823635039370078
11
4.8646603937007873
21
-2.7866961811023621
0
LINE
8
BLACK
6
CONTINUOUS
10
4.8646603937007873
20
-2.7866961811023621
11
4.8560503937007873
21
-2.7896519685039372
0
LINE
8
BLACK
6
CONTINUOUS
10
4.8560503937007873
20
-2.7896519685039372
11
4.8470712992125984
21
-2.79115031496063
0
LINE
8
BLACK
6
CONTINUOUS
10
4.8470712992125984
20
-2.79115031496063
11
4.8379680708661414
21
-2.79115031496063
0
LINE
8
BLACK
6
CONTINUOUS
10
4.8379680708661414
20
-2.79115031496063
11
4.8289889763779525
21
-2.7896519685039372
0
LINE
8
BLACK
6
CONTINUOUS
10
4.8289889763779525
20
-2.7896519685039372
11
4.8203789763779525
21
-2.7866961811023621
0
LINE
8
BLACK
6
CONTINUOUS
10
4.8203789763779525
20
-2.7866961811023621
11
4.8123729527559052
21
-2.7823635039370078
0
LINE
8
BLACK
6
CONTINUOUS
10
4.8123729527559052
20
-2.7823635039370078
11
4.8051892125984255
21
-2.7767721653543305
0
LINE
8
BLACK
6
CONTINUOUS
10
4.8051892125984255
20
-2.7767721653543305
11
4.7990237401574802
21
-2.7700747244094486
0
LINE
8
BLACK
6
CONTINUOUS
10
4.7990237401574802
20
-2.7700747244094486
11
4.7940447637795272
21
-2.7624537795275588
0
LINE
8
BLACK
6
CONTINUOUS
10
4.7940447637795272
20
-2.7624537795275588
11
4.7903880314960627
21
-2.7541172834645669
0
LINE
8
BLACK
6
CONTINUOUS
10
4.7903880314960627
20
-2.7541172834645669
11
4.7881533070866142
21
-2.7452925984251966
0
LINE
8
BLACK
6
CONTINUOUS
10
4.7881533070866142
20
-2.7452925984251966
11
4.7874015748031491
21
-2.7362204724409449
0
LINE
8
BLACK
6
CONTINUOUS
10
4.7874015748031491
20
-2.7362204724409449
11
4.7881533070866142
21
-2.7271483464566928
0
LINE
8
BLACK
6
CONTINUOUS
10
4.7881533070866142
20
-2.7271483464566928
11
4.7903880314960627
21
-2.718323661417323
0
LINE
8
BLACK
6
CONTINUOUS
10
4.7903880314960627
20
-2.718323661417323
11
4.7940447637795272
21
-2.7099871653543306
0
LINE
8
BLACK
6
CONTINUOUS
10
4.7940447637795272
20
-2.7099871653543306
11
4.7990237401574802
21
-2.7023662204724408
0
LINE
8
BLACK
6
CONTINUOUS
10
4.7990237401574802
20
-2.7023662204724408
11
4.8051892125984255
21
-2.6956687795275589
0
LINE
8
BLACK
6
CONTINUOUS
10
4.8051892125984255
20
-2.6956687795275589
11
4.8123729527559052
21
-2.690077440944882
0
LINE
8
BLACK
6
CONTINUOUS
10
4.8123729527559052
20
-2.690077440944882
11
4.8203789763779525
21
-2.6857447637795273
0
LINE
8
BLACK
6
CONTINUOUS
10
4.8203789763779525
20
-2.6857447637795273
11
4.8289889763779525
21
-2.6827889763779527
0
LINE
8
BLACK
6
CONTINUOUS
10
4.8289889763779525
20
-2.6827889763779527
11
4.8379680708661414
21
-2.6812906299212598
0
LINE
8
BLACK
6
CONTINUOUS
10
4.8379680708661414
20
-2.6812906299212598
11
4.8470712992125984
21
-2.6812906299212598
0
LINE
8
BLACK
6
CONTINUOUS
10
4.8470712992125984
20
-2.6812906299212598
11
4.8560503937007873
21
-2.6827889763779527
0
LINE
8
BLACK
6
CONTINUOUS
10
6.982034645669291
20
-2.6827889763779527
11
6.990644645669291
21
-2.6857447637795273
0
LINE
8
BLACK
6
CONTINUOUS
10
6.990644645669291
20
-2.6857447637795273
11
6.9986506692913384
21
-2.690077440944882
0
LINE
8
BLACK
6
CONTINUOUS
10
6.9986506692913384
20
-2.690077440944882
11
7.005834409448819
21
-2.6956687795275589
0
LINE
8
BLACK
6
CONTINUOUS
10
7.005834409448819
20
-2.6956687795275589
11
7.0119998818897633
21
-2.7023662204724408
0
LINE
8
BLACK
6
CONTINUOUS
10
7.0119998818897633
20
-2.7023662204724408
11
7.0169788582677164
21
-2.7099871653543306
0
LINE
8
BLACK
6
CONTINUOUS
10
7.0169788582677164
20
-2.7099871653543306
11
7.0206355905511808
21
-2.718323661417323
0
LINE
8
BLACK
6
CONTINUOUS
10
7.0206355905511808
20
-2.718323661417323
11
7.0228703149606302
21
-2.7271483464566928
0
LINE
8
BLACK
6
CONTINUOUS
10
7.0228703149606302
20
-2.7271483464566928
11
7.0236220472440944
21
-2.7362204724409449
0
LINE
8
BLACK
6
CONTINUOUS
10
7.0236220472440944
20
-2.7362204724409449
11
7.0228703149606302
21
-2.7452925984251966
0
LINE
8
BLACK
6
CONTINUOUS
10
7.0228703149606302
20
-2.7452925984251966
11
7.0206355905511808
21
-2.7541172834645669
0
LINE
8
BLACK
6
CONTINUOUS
10
7.0206355905511808
20
-2.7541172834645669
11
7.0169788582677164
21
-2.7624537795275588
0
LINE
8
BLACK
6
CONTINUOUS
10
7.0169788582677164
20
-2.7624537795275588
11
7.0119998818897633
21
-2.7700747244094486
0
LINE
8
BLACK
6
CONTINUOUS
10
7.0119998818897633
20
-2.7700747244094486
11
7.005834409448819
21
-2.7767721653543305
0
LINE
8
BLACK
6
CONTINUOUS
10
7.005834409448819
20
-2.7767721653543305
11
6.9986506692913384
21
-2.7823635039370078
0
LINE
8
BLACK
6
CONTINUOUS
10
6.9986506692913384
20
-2.7823635039370078
11
6.990644645669291
21
-2.7866961811023621
0
LINE
8
BLACK
6
CONTINUOUS
10
6.990644645669291
20
-2.7866961811023621
11
6.982034645669291
21
-2.7896519685039372
0
LINE
8
BLACK
6
CONTINUOUS
10
6.982034645669291
20
-2.7896519685039372
11
6.9730555511811021
21
-2.79115031496063
0
LINE
8
BLACK
6
CONTINUOUS
10
6.9730555511811021
20
-2.79115031496063
11
6.9639523228346452
21
-2.79115031496063
0
LINE
8
BLACK
6
CONTINUOUS
10
6.9639523228346452
20
-2.79115031496063
11
6.9549732283464563
21
-2.7896519685039372
0
LINE
8
BLACK
6
CONTINUOUS
10
6.9549732283464563
20
-2.7896519685039372
11
6.9463632283464563
21
-2.7866961811023621
0
LINE
8
BLACK
6
CONTINUOUS
10
6.9463632283464563
20
-2.7866961811023621
11
6.9383572047244089
21
-2.7823635039370078
0
LINE
8
BLACK
6
CONTINUOUS
10
6.9383572047244089
20
-2.7823635039370078
11
6.9311734645669292
21
-2.7767721653543305
0
LINE
8
BLACK
6
CONTINUOUS
10
6.9311734645669292
20
-2.7767721653543305
11
6.9250079921259839
21
-2.7700747244094486
0
LINE
8
BLACK
6
CONTINUOUS
10
6.9250079921259839
20
-2.7700747244094486
11
6.9200290157480318
21
-2.7624537795275588
0
LINE
8
BLACK
6
CONTINUOUS
10
6.9200290157480318
20
-2.7624537795275588
11
6.9163722834645665
21
-2.7541172834645669
0
LINE
8
BLACK
6
CONTINUOUS
10
6.9163722834645665
20
-2.7541172834645669
11
6.914137559055118
21
-2.7452925984251966
0
LINE
8
BLACK
6
CONTINUOUS
10
6.914137559055118
20
-2.7452925984251966
11
6.9133858267716537
21
-2.7362204724409449
0
LINE
8
BLACK
6
CONTINUOUS
10
6.9133858267716537
20
-2.7362204724409449
11
6.914137559055118
21
-2.7271483464566928
0
LINE
8
BLACK
6
CONTINUOUS
10
6.914137559055118
20
-2.7271483464566928
11
6.9163722834645665
21
-2.718323661417323
0
LINE
8
BLACK
6
CONTINUOUS
10
6.9163722834645665
20
-2.718323661417323
11
6.9200290157480318
21
-2.7099871653543306
0
LINE
8
BLACK
6
CONTINUOUS
10
6.9200290157480318
20
-2.7099871653543306
11
6.9250079921259839
21
-2.7023662204724408
0
LINE
8
BLACK
6
CONTINUOUS
10
6.9250079921259839
20
-2.7023662204724408
11
6.9311734645669292
21
-2.6956687795275589
0
LINE
8
BLACK
6
CONTINUOUS
10
6.9311734645669292
20
-2.6956687795275589
11
6.9383572047244089
21
-2.690077440944882
0
LINE
8
BLACK
6
CONTINUOUS
10
6.9383572047244089
20
-2.690077440944882
11
6.9463632283464563
21
-2.6857447637795273
0
LINE
8
BLACK
6
CONTINUOUS
10
6.9463632283464563
20
-2.6857447637795273
11
6.9549732283464563
21
-2.6827889763779527
0
LINE
8
BLACK
6
CONTINUOUS
10
6.9549732283464563
20
-2.6827889763779527
11
6.9639523228346452
21
-2.6812906299212598
0
LINE
8
BLACK
6
CONTINUOUS
10
6.9639523228346452
20
-2.6812906299212598
11
6.9730555511811021
21
-2.6812906299212598
0
LINE
8
BLACK
6
CONTINUOUS
10
6.9730555511811021
20
-2.6812906299212598
11
6.982034645669291
21
-2.6827889763779527
0
LINE
8
BLACK
6
CONTINUOUS
10
6.4736043307086613
20
-2.7370842913385824
11
6.4788267716535435
21
-2.7392474803149605
0
LINE
8
BLACK
6
CONTINUOUS
10
6.4788267716535435
20
-2.7392474803149605
11
6.4833113779527558
21
-2.7426886220472442
0
LINE
8
BLACK
6
CONTINUOUS
10
6.4833113779527558
20
-2.7426886220472442
11
6.4867525196850391
21
-2.7471732283464565
0
LINE
8
BLACK
6
CONTINUOUS
10
6.4867525196850391
20
-2.7471732283464565
11
6.4889157086614171
21
-2.7523956692913387
0
LINE
8
BLACK
6
CONTINUOUS
10
6.4889157086614171
20
-2.7523956692913387
11
6.4896535433070861
21
-2.758
0
LINE
8
BLACK
6
CONTINUOUS
10
6.4896535433070861
20
-2.758
11
6.4889157086614171
21
-2.7636043307086613
0
LINE
8
BLACK
6
CONTINUOUS
10
6.4889157086614171
20
-2.7636043307086613
11
6.4867525196850391
21
-2.7688267716535431
0
LINE
8
BLACK
6
CONTINUOUS
10
6.4867525196850391
20
-2.7688267716535431
11
6.4833113779527558
21
-2.7733113779527558
0
LINE
8
BLACK
6
CONTINUOUS
10
6.4833113779527558
20
-2.7733113779527558
11
6.4788267716535435
21
-2.7767525196850391
0
LINE
8
BLACK
6
CONTINUOUS
10
6.4788267716535435
20
-2.7767525196850391
11
6.4736043307086613
21
-2.7789157086614171
0
LINE
8
BLACK
6
CONTINUOUS
10
6.4736043307086613
20
-2.7789157086614171
11
6.468
21
-2.7796535433070866
0
LINE
8
BLACK
6
CONTINUOUS
10
6.468
20
-2.7796535433070866
11
6.4623956692913387
21
-2.7789157086614171
0
LINE
8
BLACK
6
CONTINUOUS
10
6.4623956692913387
20
-2.7789157086614171
11
6.4571732283464565
21
-2.7767525196850391
0
LINE
8
BLACK
6
CONTINUOUS
10
6.4571732283464565
20
-2.7767525196850391
11
6.4526886220472441
21
-2.7733113779527558
0
LINE
8
BLACK
6
CONTINUOUS
10
6.4526886220472441
20
-2.7733113779527558
11
6.4492474803149609
21
-2.7688267716535431
0
LINE
8
BLACK
6
CONTINUOUS
10
6.4492474803149609
20
-2.7688267716535431
11
6.4470842913385829
21
-2.7636043307086613
0
LINE
8
BLACK
6
CONTINUOUS
10
6.4470842913385829
20
-2.7636043307086613
11
6.446346456692913
21
-2.758
0
LINE
8
BLACK
6
CONTINUOUS
10
6.446346456692913
20
-2.758
11
6.4470842913385829
21
-2.7523956692913387
0
LINE
8
BLACK
6
CONTINUOUS
10
6.4470842913385829
20
-2.7523956692913387
11
6.4492474803149609
21
-2.7471732283464565
0
LINE
8
BLACK
6
CONTINUOUS
10
6.4492474803149609
20
-2.7471732283464565
11
6.4526886220472441
21
-2.7426886220472442
0
LINE
8
BLACK
6
CONTINUOUS
10
6.4526886220472441
20
-2.7426886220472442
11
6.4571732283464565
21
-2.7392474803149605
0
LINE
8
BLACK
6
CONTINUOUS
10
6.4571732283464565
20
-2.7392474803149605
11
6.4623956692913387
21
-2.7370842913385824
0
LINE
8
BLACK
6
CONTINUOUS
10
6.4623956692913387
20
-2.7370842913385824
11
6.468
21
-2.7363464566929134
0
LINE
8
BLACK
6
CONTINUOUS
10
6.468
20
-2.7363464566929134
11
6.4736043307086613
21
-2.7370842913385824
0
LINE
8
BLACK
6
CONTINUOUS
10
6.0486043307086614
20
-2.7360842913385826
11
6.0538267716535428
21
-2.7382474803149606
0
LINE
8
BLACK
6
CONTINUOUS
10
6.0538267716535428
20
-2.7382474803149606
11
6.058311377952756
21
-2.7416886220472438
0
LINE
8
BLACK
6
CONTINUOUS
10
6.058311377952756
20
-2.7416886220472438
11
6.0617525196850393
21
-2.7461732283464566
0
LINE
8
BLACK
6
CONTINUOUS
10
6.0617525196850393
20
-2.7461732283464566
11
6.0639157086614173
21
-2.7513956692913384
0
LINE
8
BLACK
6
CONTINUOUS
10
6.0639157086614173
20
-2.7513956692913384
11
6.0646535433070863
21
-2.7570000000000001
0
LINE
8
BLACK
6
CONTINUOUS
10
6.0646535433070863
20
-2.7570000000000001
11
6.0639157086614173
21
-2.7626043307086614
0
LINE
8
BLACK
6
CONTINUOUS
10
6.0639157086614173
20
-2.7626043307086614
11
6.0617525196850393
21
-2.7678267716535432
0
LINE
8
BLACK
6
CONTINUOUS
10
6.0617525196850393
20
-2.7678267716535432
11
6.058311377952756
21
-2.772311377952756
0
LINE
8
BLACK
6
CONTINUOUS
10
6.058311377952756
20
-2.772311377952756
11
6.0538267716535428
21
-2.7757525196850392
0
LINE
8
BLACK
6
CONTINUOUS
10
6.0538267716535428
20
-2.7757525196850392
11
6.0486043307086614
21
-2.7779157086614172
0
LINE
8
BLACK
6
CONTINUOUS
10
6.0486043307086614
20
-2.7779157086614172
11
6.0430000000000001
21
-2.7786535433070867
0
LINE
8
BLACK
6
CONTINUOUS
10
6.0430000000000001
20
-2.7786535433070867
11
6.0373956692913389
21
-2.7779157086614172
0
LINE
8
BLACK
6
CONTINUOUS
10
6.0373956692913389
20
-2.7779157086614172
11
6.0321732283464566
21
-2.7757525196850392
0
LINE
8
BLACK
6
CONTINUOUS
10
6.0321732283464566
20
-2.7757525196850392
11
6.0276886220472443
21
-2.772311377952756
0
LINE
8
BLACK
6
CONTINUOUS
10
6.0276886220472443
20
-2.772311377952756
11
6.0242474803149602
21
-2.7678267716535432
0
LINE
8
BLACK
6
CONTINUOUS
10
6.0242474803149602
20
-2.7678267716535432
11
6.0220842913385821
21
-2.7626043307086614
0
LINE
8
BLACK
6
CONTINUOUS
10
6.0220842913385821
20
-2.7626043307086614
11
6.0213464566929131
21
-2.7570000000000001
0
LINE
8
BLACK
6
CONTINUOUS
10
6.0213464566929131
20
-2.7570000000000001
11
6.0220842913385821
21
-2.7513956692913384
0
LINE
8
BLACK
6
CONTINUOUS
10
6.0220842913385821
20
-2.7513956692913384
11
6.0242474803149602
21
-2.7461732283464566
0
LINE
8
BLACK
6
CONTINUOUS
10
6.0242474803149602
20
-2.7461732283464566
11
6.0276886220472443
21
-2.7416886220472438
0
LINE
8
BLACK
6
CONTINUOUS
10
6.0276886220472443
20
-2.7416886220472438
11
6.0321732283464566
21
-2.7382474803149606
0
LINE
8
BLACK
6
CONTINUOUS
10
6.0321732283464566
20
-2.7382474803149606
11
6.0373956692913389
21
-2.7360842913385826
0
LINE
8
BLACK
6
CONTINUOUS
10
6.0373956692913389
20
-2.7360842913385826
11
6.0430000000000001
21
-2.7353464566929135
0
LINE
8
BLACK
6
CONTINUOUS
10
6.0430000000000001
20
-2.7353464566929135
11
6.0486043307086614
21
-2.7360842913385826
0
LINE
8
BLACK
6
CONTINUOUS
10
5.3770911417322838
20
-2.6962224015748033
11
5.3838582677165352
21
-2.6992353149606299
0
LINE
8
BLACK
6
CONTINUOUS
10
5.3838582677165352
20
-2.6992353149606299
11
5.3898511023622042
21
-2.7035893700787401
0
LINE
8
BLACK
6
CONTINUOUS
10
5.3898511023622042
20
-2.7035893700787401
11
5.3948076771653541
21
-2.709094212598425
0
LINE
8
BLACK
6
CONTINUOUS
10
5.3948076771653541
20
-2.709094212598425
11
5.3985114566929129
21
-2.7155093307086613
0
LINE
8
BLACK
6
CONTINUOUS
10
5.3985114566929129
20
-2.7155093307086613
11
5.4008005118110232
21
-2.7225542913385827
0
LINE
8
BLACK
6
CONTINUOUS
10
5.4008005118110232
20
-2.7225542913385827
11
5.4015748031496065
21
-2.7299212598425195
0
LINE
8
BLACK
6
CONTINUOUS
10
5.4015748031496065
20
-2.7299212598425195
11
5.4008005118110232
21
-2.7372882283464568
0
LINE
8
BLACK
6
CONTINUOUS
10
5.4008005118110232
20
-2.7372882283464568
11
5.3985114566929129
21
-2.7443331889763778
0
LINE
8
BLACK
6
CONTINUOUS
10
5.3985114566929129
20
-2.7443331889763778
11
5.3948076771653541
21
-2.7507483070866141
0
LINE
8
BLACK
6
CONTINUOUS
10
5.3948076771653541
20
-2.7507483070866141
11
5.3898511023622042
21
-2.756253149606299
0
LINE
8
BLACK
6
CONTINUOUS
10
5.3898511023622042
20
-2.756253149606299
11
5.3838582677165352
21
-2.7606072047244092
0
LINE
8
BLACK
6
CONTINUOUS
10
5.3838582677165352
20
-2.7606072047244092
11
5.3770911417322838
21
-2.7636201181102362
0
LINE
8
BLACK
6
CONTINUOUS
10
5.3770911417322838
20
-2.7636201181102362
11
5.3698455118110235
21
-2.7651602362204724
0
LINE
8
BLACK
6
CONTINUOUS
10
5.3698455118110235
20
-2.7651602362204724
11
5.3624379527559052
21
-2.7651602362204724
0
LINE
8
BLACK
6
CONTINUOUS
10
5.3624379527559052
20
-2.7651602362204724
11
5.3551923228346459
21
-2.7636201181102362
0
LINE
8
BLACK
6
CONTINUOUS
10
5.3551923228346459
20
-2.7636201181102362
11
5.3484251968503935
21
-2.7606072047244092
0
LINE
8
BLACK
6
CONTINUOUS
10
5.3484251968503935
20
-2.7606072047244092
11
5.3424323622047245
21
-2.756253149606299
0
LINE
8
BLACK
6
CONTINUOUS
10
5.3424323622047245
20
-2.756253149606299
11
5.3374757874015746
21
-2.7507483070866141
0
LINE
8
BLACK
6
CONTINUOUS
10
5.3374757874015746
20
-2.7507483070866141
11
5.3337720078740158
21
-2.7443331889763778
0
LINE
8
BLACK
6
CONTINUOUS
10
5.3337720078740158
20
-2.7443331889763778
11
5.3314829527559056
21
-2.7372882283464568
0
LINE
8
BLACK
6
CONTINUOUS
10
5.3314829527559056
20
-2.7372882283464568
11
5.3307086614173231
21
-2.7299212598425195
0
LINE
8
BLACK
6
CONTINUOUS
10
5.3307086614173231
20
-2.7299212598425195
11
5.3314829527559056
21
-2.7225542913385827
0
LINE
8
BLACK
6
CONTINUOUS
10
5.3314829527559056
20
-2.7225542913385827
11
5.3337720078740158
21
-2.7155093307086613
0
LINE
8
BLACK
6
CONTINUOUS
10
5.3337720078740158
20
-2.7155093307086613
11
5.3374757874015746
21
-2.709094212598425
0
LINE
8
BLACK
6
CONTINUOUS
10
5.3374757874015746
20
-2.709094212598425
11
5.3424323622047245
21
-2.7035893700787401
0
LINE
8
BLACK
6
CONTINUOUS
10
5.3424323622047245
20
-2.7035893700787401
11
5.3484251968503935
21
-2.6992353149606299
0
LINE
8
BLACK
6
CONTINUOUS
10
5.3484251968503935
20
-2.6992353149606299
11
5.3551923228346459
21
-2.6962224015748033
0
LINE
8
BLACK
6
CONTINUOUS
10
5.3551923228346459
20
-2.6962224015748033
11
5.3624379527559052
21
-2.6946822834645667
0
LINE
8
BLACK
6
CONTINUOUS
10
5.3624379527559052
20
-2.6946822834645667
11
5.3698455118110235
21
-2.6946822834645667
0
LINE
8
BLACK
6
CONTINUOUS
10
5.3698455118110235
20
-2.6946822834645667
11
5.3770911417322838
21
-2.6962224015748033
  0
ENDSEC
  0
EOF
