  0
SECTION
  2
HEADER
  9
$ANGBASE
  50
0.0
  9
$ANGDIR
  70
1
  9
$MEASUREMENT
  70
0
  0
ENDSEC
  0
SECTION
  2
TABLES
  0
TABLE
  2
LTYPE
  70
4
  0
LTYPE
  5
40F
  2
CONTINUOUS
  70
0
  3
Solid line
  72
65
  73
0
  40
0.0
  0
LTYPE
  5
410
  2
DASHDOT
 70
0
  3
Dash Dot ____ _ ____ _
 72
65
 73
4
 40
2.0
 49
1.25
 49
-0.25
 49
0.25
 49
-0.25
  0
LTYPE
  5
411
  2
DASHED
 70
0
  3
Dashed __ __ __ __ __
 72
65
 73
2
 40
0.75
 49
0.5
 49
-0.25
  0
LTYPE
  5
43B
  2
DOTTED
 70
0
  3
Dotted .  .  .  .
 72
65
 73
2
 40
0.2
 49
0.0
 49
-0.2
  0
ENDTAB
  0
TABLE
  2
STYLE
  70
4
  0
STYLE
  2
KICAD
  70
0
  40
0
  41
1
  42
1
  50
0
  71
0
  3
isocp.shx
  0
STYLE
  2
KICADB
  70
0
  40
0
  41
1
  42
1
  50
0
  71
0
  3
isocp.shx
  0
STYLE
  2
KICADI
  70
0
  40
0
  41
1
  42
1
  50
15
  71
0
  3
isocp.shx
  0
STYLE
  2
KICADBI
  70
0
  40
0
  41
1
  42
1
  50
15
  71
0
  3
isocp.shx
  0
ENDTAB
  0
TABLE
  2
LAYER
  70
1
  0
LAYER
  2
BLACK
  70
0
  62
7
  6
CONTINUOUS
  0
ENDTAB
  0
ENDSEC
  0
SECTION
  2
ENTITIES
0
LINE
8
BLACK
6
CONTINUOUS
10
6.29787
20
-3.86702
11
6.30226
21
-3.86926
0
LINE
8
BLACK
6
CONTINUOUS
10
6.30226
20
-3.86926
11
6.30574
21
-3.87274
0
LINE
8
BLACK
6
CONTINUOUS
10
6.30574
20
-3.87274
11
6.30798
21
-3.87713
0
LINE
8
BLACK
6
CONTINUOUS
10
6.30798
20
-3.87713
11
6.30875
21
-3.882
0
LINE
8
BLACK
6
CONTINUOUS
10
6.30875
20
-3.882
11
6.30798
21
-3.88687
0
LINE
8
BLACK
6
CONTINUOUS
10
6.30798
20
-3.88687
11
6.30574
21
-3.89126
0
LINE
8
BLACK
6
CONTINUOUS
10
6.30574
20
-3.89126
11
6.30226
21
-3.89474
0
LINE
8
BLACK
6
CONTINUOUS
10
6.30226
20
-3.89474
11
6.29787
21
-3.89698
0
LINE
8
BLACK
6
CONTINUOUS
10
6.29787
20
-3.89698
11
6.293
21
-3.89775
0
LINE
8
BLACK
6
CONTINUOUS
10
6.293
20
-3.89775
11
6.28813
21
-3.89698
0
LINE
8
BLACK
6
CONTINUOUS
10
6.28813
20
-3.89698
11
6.28374
21
-3.89474
0
LINE
8
BLACK
6
CONTINUOUS
10
6.28374
20
-3.89474
11
6.28026
21
-3.89126
0
LINE
8
BLACK
6
CONTINUOUS
10
6.28026
20
-3.89126
11
6.27802
21
-3.88687
0
LINE
8
BLACK
6
CONTINUOUS
10
6.27802
20
-3.88687
11
6.27725
21
-3.882
0
LINE
8
BLACK
6
CONTINUOUS
10
6.27725
20
-3.882
11
6.27802
21
-3.87713
0
LINE
8
BLACK
6
CONTINUOUS
10
6.27802
20
-3.87713
11
6.28026
21
-3.87274
0
LINE
8
BLACK
6
CONTINUOUS
10
6.28026
20
-3.87274
11
6.28374
21
-3.86926
0
LINE
8
BLACK
6
CONTINUOUS
10
6.28374
20
-3.86926
11
6.28813
21
-3.86702
0
LINE
8
BLACK
6
CONTINUOUS
10
6.28813
20
-3.86702
11
6.293
21
-3.86625
0
LINE
8
BLACK
6
CONTINUOUS
10
6.293
20
-3.86625
11
6.29787
21
-3.86702
0
LINE
8
BLACK
6
CONTINUOUS
10
5.99034
20
-3.81817
11
5.99673
21
-3.82102
0
LINE
8
BLACK
6
CONTINUOUS
10
5.99673
20
-3.82102
11
6.00239
21
-3.82513
0
LINE
8
BLACK
6
CONTINUOUS
10
6.00239
20
-3.82513
11
6.00707
21
-3.83033
0
LINE
8
BLACK
6
CONTINUOUS
10
6.00707
20
-3.83033
11
6.01057
21
-3.83639
0
LINE
8
BLACK
6
CONTINUOUS
10
6.01057
20
-3.83639
11
6.01273
21
-3.84304
0
LINE
8
BLACK
6
CONTINUOUS
10
6.01273
20
-3.84304
11
6.01346
21
-3.85
0
LINE
8
BLACK
6
CONTINUOUS
10
6.01346
20
-3.85
11
6.01273
21
-3.85696
0
LINE
8
BLACK
6
CONTINUOUS
10
6.01273
20
-3.85696
11
6.01057
21
-3.86361
0
LINE
8
BLACK
6
CONTINUOUS
10
6.01057
20
-3.86361
11
6.00707
21
-3.86967
0
LINE
8
BLACK
6
CONTINUOUS
10
6.00707
20
-3.86967
11
6.00239
21
-3.87487
0
LINE
8
BLACK
6
CONTINUOUS
10
6.00239
20
-3.87487
11
5.99673
21
-3.87898
0
LINE
8
BLACK
6
CONTINUOUS
10
5.99673
20
-3.87898
11
5.99034
21
-3.88183
0
LINE
8
BLACK
6
CONTINUOUS
10
5.99034
20
-3.88183
11
5.9835
21
-3.88328
0
LINE
8
BLACK
6
CONTINUOUS
10
5.9835
20
-3.88328
11
5.9765
21
-3.88328
0
LINE
8
BLACK
6
CONTINUOUS
10
5.9765
20
-3.88328
11
5.96966
21
-3.88183
0
LINE
8
BLACK
6
CONTINUOUS
10
5.96966
20
-3.88183
11
5.96327
21
-3.87898
0
LINE
8
BLACK
6
CONTINUOUS
10
5.96327
20
-3.87898
11
5.95761
21
-3.87487
0
LINE
8
BLACK
6
CONTINUOUS
10
5.95761
20
-3.87487
11
5.95293
21
-3.86967
0
LINE
8
BLACK
6
CONTINUOUS
10
5.95293
20
-3.86967
11
5.94943
21
-3.86361
0
LINE
8
BLACK
6
CONTINUOUS
10
5.94943
20
-3.86361
11
5.94727
21
-3.85696
0
LINE
8
BLACK
6
CONTINUOUS
10
5.94727
20
-3.85696
11
5.94654
21
-3.85
0
LINE
8
BLACK
6
CONTINUOUS
10
5.94654
20
-3.85
11
5.94727
21
-3.84304
0
LINE
8
BLACK
6
CONTINUOUS
10
5.94727
20
-3.84304
11
5.94943
21
-3.83639
0
LINE
8
BLACK
6
CONTINUOUS
10
5.94943
20
-3.83639
11
5.95293
21
-3.83033
0
LINE
8
BLACK
6
CONTINUOUS
10
5.95293
20
-3.83033
11
5.95761
21
-3.82513
0
LINE
8
BLACK
6
CONTINUOUS
10
5.95761
20
-3.82513
11
5.96327
21
-3.82102
0
LINE
8
BLACK
6
CONTINUOUS
10
5.96327
20
-3.82102
11
5.96966
21
-3.81817
0
LINE
8
BLACK
6
CONTINUOUS
10
5.96966
20
-3.81817
11
5.9765
21
-3.81672
0
LINE
8
BLACK
6
CONTINUOUS
10
5.9765
20
-3.81672
11
5.9835
21
-3.81672
0
LINE
8
BLACK
6
CONTINUOUS
10
5.9835
20
-3.81672
11
5.99034
21
-3.81817
0
LINE
8
BLACK
6
CONTINUOUS
10
6.09034
20
-3.81817
11
6.09673
21
-3.82102
0
LINE
8
BLACK
6
CONTINUOUS
10
6.09673
20
-3.82102
11
6.10239
21
-3.82513
0
LINE
8
BLACK
6
CONTINUOUS
10
6.10239
20
-3.82513
11
6.10707
21
-3.83033
0
LINE
8
BLACK
6
CONTINUOUS
10
6.10707
20
-3.83033
11
6.11057
21
-3.83639
0
LINE
8
BLACK
6
CONTINUOUS
10
6.11057
20
-3.83639
11
6.11273
21
-3.84304
0
LINE
8
BLACK
6
CONTINUOUS
10
6.11273
20
-3.84304
11
6.11346
21
-3.85
0
LINE
8
BLACK
6
CONTINUOUS
10
6.11346
20
-3.85
11
6.11273
21
-3.85696
0
LINE
8
BLACK
6
CONTINUOUS
10
6.11273
20
-3.85696
11
6.11057
21
-3.86361
0
LINE
8
BLACK
6
CONTINUOUS
10
6.11057
20
-3.86361
11
6.10707
21
-3.86967
0
LINE
8
BLACK
6
CONTINUOUS
10
6.10707
20
-3.86967
11
6.10239
21
-3.87487
0
LINE
8
BLACK
6
CONTINUOUS
10
6.10239
20
-3.87487
11
6.09673
21
-3.87898
0
LINE
8
BLACK
6
CONTINUOUS
10
6.09673
20
-3.87898
11
6.09034
21
-3.88183
0
LINE
8
BLACK
6
CONTINUOUS
10
6.09034
20
-3.88183
11
6.0835
21
-3.88328
0
LINE
8
BLACK
6
CONTINUOUS
10
6.0835
20
-3.88328
11
6.0765
21
-3.88328
0
LINE
8
BLACK
6
CONTINUOUS
10
6.0765
20
-3.88328
11
6.06966
21
-3.88183
0
LINE
8
BLACK
6
CONTINUOUS
10
6.06966
20
-3.88183
11
6.06327
21
-3.87898
0
LINE
8
BLACK
6
CONTINUOUS
10
6.06327
20
-3.87898
11
6.05761
21
-3.87487
0
LINE
8
BLACK
6
CONTINUOUS
10
6.05761
20
-3.87487
11
6.05293
21
-3.86967
0
LINE
8
BLACK
6
CONTINUOUS
10
6.05293
20
-3.86967
11
6.04943
21
-3.86361
0
LINE
8
BLACK
6
CONTINUOUS
10
6.04943
20
-3.86361
11
6.04727
21
-3.85696
0
LINE
8
BLACK
6
CONTINUOUS
10
6.04727
20
-3.85696
11
6.04654
21
-3.85
0
LINE
8
BLACK
6
CONTINUOUS
10
6.04654
20
-3.85
11
6.04727
21
-3.84304
0
LINE
8
BLACK
6
CONTINUOUS
10
6.04727
20
-3.84304
11
6.04943
21
-3.83639
0
LINE
8
BLACK
6
CONTINUOUS
10
6.04943
20
-3.83639
11
6.05293
21
-3.83033
0
LINE
8
BLACK
6
CONTINUOUS
10
6.05293
20
-3.83033
11
6.05761
21
-3.82513
0
LINE
8
BLACK
6
CONTINUOUS
10
6.05761
20
-3.82513
11
6.06327
21
-3.82102
0
LINE
8
BLACK
6
CONTINUOUS
10
6.06327
20
-3.82102
11
6.06966
21
-3.81817
0
LINE
8
BLACK
6
CONTINUOUS
10
6.06966
20
-3.81817
11
6.0765
21
-3.81672
0
LINE
8
BLACK
6
CONTINUOUS
10
6.0765
20
-3.81672
11
6.0835
21
-3.81672
0
LINE
8
BLACK
6
CONTINUOUS
10
6.0835
20
-3.81672
11
6.09034
21
-3.81817
0
LINE
8
BLACK
6
CONTINUOUS
10
5.58946
20
-3.88246
11
5.52254
21
-3.88246
0
LINE
8
BLACK
6
CONTINUOUS
10
5.52254
20
-3.88246
11
5.52254
21
-3.81554
0
LINE
8
BLACK
6
CONTINUOUS
10
5.52254
20
-3.81554
11
5.58946
21
-3.81554
0
LINE
8
BLACK
6
CONTINUOUS
10
5.58946
20
-3.81554
11
5.58946
21
-3.88246
0
LINE
8
BLACK
6
CONTINUOUS
10
5.76634
20
-3.81717
11
5.77273
21
-3.82002
0
LINE
8
BLACK
6
CONTINUOUS
10
5.77273
20
-3.82002
11
5.77839
21
-3.82413
0
LINE
8
BLACK
6
CONTINUOUS
10
5.77839
20
-3.82413
11
5.78307
21
-3.82933
0
LINE
8
BLACK
6
CONTINUOUS
10
5.78307
20
-3.82933
11
5.78657
21
-3.83539
0
LINE
8
BLACK
6
CONTINUOUS
10
5.78657
20
-3.83539
11
5.78873
21
-3.84204
0
LINE
8
BLACK
6
CONTINUOUS
10
5.78873
20
-3.84204
11
5.78946
21
-3.849
0
LINE
8
BLACK
6
CONTINUOUS
10
5.78946
20
-3.849
11
5.78873
21
-3.85596
0
LINE
8
BLACK
6
CONTINUOUS
10
5.78873
20
-3.85596
11
5.78657
21
-3.86261
0
LINE
8
BLACK
6
CONTINUOUS
10
5.78657
20
-3.86261
11
5.78307
21
-3.86867
0
LINE
8
BLACK
6
CONTINUOUS
10
5.78307
20
-3.86867
11
5.77839
21
-3.87387
0
LINE
8
BLACK
6
CONTINUOUS
10
5.77839
20
-3.87387
11
5.77273
21
-3.87798
0
LINE
8
BLACK
6
CONTINUOUS
10
5.77273
20
-3.87798
11
5.76634
21
-3.88083
0
LINE
8
BLACK
6
CONTINUOUS
10
5.76634
20
-3.88083
11
5.7595
21
-3.88228
0
LINE
8
BLACK
6
CONTINUOUS
10
5.7595
20
-3.88228
11
5.7525
21
-3.88228
0
LINE
8
BLACK
6
CONTINUOUS
10
5.7525
20
-3.88228
11
5.74566
21
-3.88083
0
LINE
8
BLACK
6
CONTINUOUS
10
5.74566
20
-3.88083
11
5.73927
21
-3.87798
0
LINE
8
BLACK
6
CONTINUOUS
10
5.73927
20
-3.87798
11
5.73361
21
-3.87387
0
LINE
8
BLACK
6
CONTINUOUS
10
5.73361
20
-3.87387
11
5.72893
21
-3.86867
0
LINE
8
BLACK
6
CONTINUOUS
10
5.72893
20
-3.86867
11
5.72543
21
-3.86261
0
LINE
8
BLACK
6
CONTINUOUS
10
5.72543
20
-3.86261
11
5.72327
21
-3.85596
0
LINE
8
BLACK
6
CONTINUOUS
10
5.72327
20
-3.85596
11
5.72254
21
-3.849
0
LINE
8
BLACK
6
CONTINUOUS
10
5.72254
20
-3.849
11
5.72327
21
-3.84204
0
LINE
8
BLACK
6
CONTINUOUS
10
5.72327
20
-3.84204
11
5.72543
21
-3.83539
0
LINE
8
BLACK
6
CONTINUOUS
10
5.72543
20
-3.83539
11
5.72893
21
-3.82933
0
LINE
8
BLACK
6
CONTINUOUS
10
5.72893
20
-3.82933
11
5.73361
21
-3.82413
0
LINE
8
BLACK
6
CONTINUOUS
10
5.73361
20
-3.82413
11
5.73927
21
-3.82002
0
LINE
8
BLACK
6
CONTINUOUS
10
5.73927
20
-3.82002
11
5.74566
21
-3.81717
0
LINE
8
BLACK
6
CONTINUOUS
10
5.74566
20
-3.81717
11
5.7525
21
-3.81572
0
LINE
8
BLACK
6
CONTINUOUS
10
5.7525
20
-3.81572
11
5.7595
21
-3.81572
0
LINE
8
BLACK
6
CONTINUOUS
10
5.7595
20
-3.81572
11
5.76634
21
-3.81717
0
LINE
8
BLACK
6
CONTINUOUS
10
5.66634
20
-3.81717
11
5.67273
21
-3.82002
0
LINE
8
BLACK
6
CONTINUOUS
10
5.67273
20
-3.82002
11
5.67839
21
-3.82413
0
LINE
8
BLACK
6
CONTINUOUS
10
5.67839
20
-3.82413
11
5.68307
21
-3.82933
0
LINE
8
BLACK
6
CONTINUOUS
10
5.68307
20
-3.82933
11
5.68657
21
-3.83539
0
LINE
8
BLACK
6
CONTINUOUS
10
5.68657
20
-3.83539
11
5.68873
21
-3.84204
0
LINE
8
BLACK
6
CONTINUOUS
10
5.68873
20
-3.84204
11
5.68946
21
-3.849
0
LINE
8
BLACK
6
CONTINUOUS
10
5.68946
20
-3.849
11
5.68873
21
-3.85596
0
LINE
8
BLACK
6
CONTINUOUS
10
5.68873
20
-3.85596
11
5.68657
21
-3.86261
0
LINE
8
BLACK
6
CONTINUOUS
10
5.68657
20
-3.86261
11
5.68307
21
-3.86867
0
LINE
8
BLACK
6
CONTINUOUS
10
5.68307
20
-3.86867
11
5.67839
21
-3.87387
0
LINE
8
BLACK
6
CONTINUOUS
10
5.67839
20
-3.87387
11
5.67273
21
-3.87798
0
LINE
8
BLACK
6
CONTINUOUS
10
5.67273
20
-3.87798
11
5.66634
21
-3.88083
0
LINE
8
BLACK
6
CONTINUOUS
10
5.66634
20
-3.88083
11
5.6595
21
-3.88228
0
LINE
8
BLACK
6
CONTINUOUS
10
5.6595
20
-3.88228
11
5.6525
21
-3.88228
0
LINE
8
BLACK
6
CONTINUOUS
10
5.6525
20
-3.88228
11
5.64566
21
-3.88083
0
LINE
8
BLACK
6
CONTINUOUS
10
5.64566
20
-3.88083
11
5.63927
21
-3.87798
0
LINE
8
BLACK
6
CONTINUOUS
10
5.63927
20
-3.87798
11
5.63361
21
-3.87387
0
LINE
8
BLACK
6
CONTINUOUS
10
5.63361
20
-3.87387
11
5.62893
21
-3.86867
0
LINE
8
BLACK
6
CONTINUOUS
10
5.62893
20
-3.86867
11
5.62543
21
-3.86261
0
LINE
8
BLACK
6
CONTINUOUS
10
5.62543
20
-3.86261
11
5.62327
21
-3.85596
0
LINE
8
BLACK
6
CONTINUOUS
10
5.62327
20
-3.85596
11
5.62254
21
-3.849
0
LINE
8
BLACK
6
CONTINUOUS
10
5.62254
20
-3.849
11
5.62327
21
-3.84204
0
LINE
8
BLACK
6
CONTINUOUS
10
5.62327
20
-3.84204
11
5.62543
21
-3.83539
0
LINE
8
BLACK
6
CONTINUOUS
10
5.62543
20
-3.83539
11
5.62893
21
-3.82933
0
LINE
8
BLACK
6
CONTINUOUS
10
5.62893
20
-3.82933
11
5.63361
21
-3.82413
0
LINE
8
BLACK
6
CONTINUOUS
10
5.63361
20
-3.82413
11
5.63927
21
-3.82002
0
LINE
8
BLACK
6
CONTINUOUS
10
5.63927
20
-3.82002
11
5.64566
21
-3.81717
0
LINE
8
BLACK
6
CONTINUOUS
10
5.64566
20
-3.81717
11
5.6525
21
-3.81572
0
LINE
8
BLACK
6
CONTINUOUS
10
5.6525
20
-3.81572
11
5.6595
21
-3.81572
0
LINE
8
BLACK
6
CONTINUOUS
10
5.6595
20
-3.81572
11
5.66634
21
-3.81717
0
LINE
8
BLACK
6
CONTINUOUS
10
6.58987
20
-3.84102
11
6.59426
21
-3.84326
0
LINE
8
BLACK
6
CONTINUOUS
10
6.59426
20
-3.84326
11
6.59774
21
-3.84674
0
LINE
8
BLACK
6
CONTINUOUS
10
6.59774
20
-3.84674
11
6.59998
21
-3.85113
0
LINE
8
BLACK
6
CONTINUOUS
10
6.59998
20
-3.85113
11
6.60075
21
-3.856
0
LINE
8
BLACK
6
CONTINUOUS
10
6.60075
20
-3.856
11
6.59998
21
-3.86087
0
LINE
8
BLACK
6
CONTINUOUS
10
6.59998
20
-3.86087
11
6.59774
21
-3.86526
0
LINE
8
BLACK
6
CONTINUOUS
10
6.59774
20
-3.86526
11
6.59426
21
-3.86874
0
LINE
8
BLACK
6
CONTINUOUS
10
6.59426
20
-3.86874
11
6.58987
21
-3.87098
0
LINE
8
BLACK
6
CONTINUOUS
10
6.58987
20
-3.87098
11
6.585
21
-3.87175
0
LINE
8
BLACK
6
CONTINUOUS
10
6.585
20
-3.87175
11
6.58013
21
-3.87098
0
LINE
8
BLACK
6
CONTINUOUS
10
6.58013
20
-3.87098
11
6.57574
21
-3.86874
0
LINE
8
BLACK
6
CONTINUOUS
10
6.57574
20
-3.86874
11
6.57226
21
-3.86526
0
LINE
8
BLACK
6
CONTINUOUS
10
6.57226
20
-3.86526
11
6.57002
21
-3.86087
0
LINE
8
BLACK
6
CONTINUOUS
10
6.57002
20
-3.86087
11
6.56925
21
-3.856
0
LINE
8
BLACK
6
CONTINUOUS
10
6.56925
20
-3.856
11
6.57002
21
-3.85113
0
LINE
8
BLACK
6
CONTINUOUS
10
6.57002
20
-3.85113
11
6.57226
21
-3.84674
0
LINE
8
BLACK
6
CONTINUOUS
10
6.57226
20
-3.84674
11
6.57574
21
-3.84326
0
LINE
8
BLACK
6
CONTINUOUS
10
6.57574
20
-3.84326
11
6.58013
21
-3.84102
0
LINE
8
BLACK
6
CONTINUOUS
10
6.58013
20
-3.84102
11
6.585
21
-3.84025
0
LINE
8
BLACK
6
CONTINUOUS
10
6.585
20
-3.84025
11
6.58987
21
-3.84102
0
LINE
8
BLACK
6
CONTINUOUS
10
6.01346
20
-3.78346
11
5.94654
21
-3.78346
0
LINE
8
BLACK
6
CONTINUOUS
10
5.94654
20
-3.78346
11
5.94654
21
-3.71654
0
LINE
8
BLACK
6
CONTINUOUS
10
5.94654
20
-3.71654
11
6.01346
21
-3.71654
0
LINE
8
BLACK
6
CONTINUOUS
10
6.01346
20
-3.71654
11
6.01346
21
-3.78346
0
LINE
8
BLACK
6
CONTINUOUS
10
6.09034
20
-3.71817
11
6.09673
21
-3.72102
0
LINE
8
BLACK
6
CONTINUOUS
10
6.09673
20
-3.72102
11
6.10239
21
-3.72513
0
LINE
8
BLACK
6
CONTINUOUS
10
6.10239
20
-3.72513
11
6.10707
21
-3.73033
0
LINE
8
BLACK
6
CONTINUOUS
10
6.10707
20
-3.73033
11
6.11057
21
-3.73639
0
LINE
8
BLACK
6
CONTINUOUS
10
6.11057
20
-3.73639
11
6.11273
21
-3.74304
0
LINE
8
BLACK
6
CONTINUOUS
10
6.11273
20
-3.74304
11
6.11346
21
-3.75
0
LINE
8
BLACK
6
CONTINUOUS
10
6.11346
20
-3.75
11
6.11273
21
-3.75696
0
LINE
8
BLACK
6
CONTINUOUS
10
6.11273
20
-3.75696
11
6.11057
21
-3.76361
0
LINE
8
BLACK
6
CONTINUOUS
10
6.11057
20
-3.76361
11
6.10707
21
-3.76967
0
LINE
8
BLACK
6
CONTINUOUS
10
6.10707
20
-3.76967
11
6.10239
21
-3.77487
0
LINE
8
BLACK
6
CONTINUOUS
10
6.10239
20
-3.77487
11
6.09673
21
-3.77898
0
LINE
8
BLACK
6
CONTINUOUS
10
6.09673
20
-3.77898
11
6.09034
21
-3.78183
0
LINE
8
BLACK
6
CONTINUOUS
10
6.09034
20
-3.78183
11
6.0835
21
-3.78328
0
LINE
8
BLACK
6
CONTINUOUS
10
6.0835
20
-3.78328
11
6.0765
21
-3.78328
0
LINE
8
BLACK
6
CONTINUOUS
10
6.0765
20
-3.78328
11
6.06966
21
-3.78183
0
LINE
8
BLACK
6
CONTINUOUS
10
6.06966
20
-3.78183
11
6.06327
21
-3.77898
0
LINE
8
BLACK
6
CONTINUOUS
10
6.06327
20
-3.77898
11
6.05761
21
-3.77487
0
LINE
8
BLACK
6
CONTINUOUS
10
6.05761
20
-3.77487
11
6.05293
21
-3.76967
0
LINE
8
BLACK
6
CONTINUOUS
10
6.05293
20
-3.76967
11
6.04943
21
-3.76361
0
LINE
8
BLACK
6
CONTINUOUS
10
6.04943
20
-3.76361
11
6.04727
21
-3.75696
0
LINE
8
BLACK
6
CONTINUOUS
10
6.04727
20
-3.75696
11
6.04654
21
-3.75
0
LINE
8
BLACK
6
CONTINUOUS
10
6.04654
20
-3.75
11
6.04727
21
-3.74304
0
LINE
8
BLACK
6
CONTINUOUS
10
6.04727
20
-3.74304
11
6.04943
21
-3.73639
0
LINE
8
BLACK
6
CONTINUOUS
10
6.04943
20
-3.73639
11
6.05293
21
-3.73033
0
LINE
8
BLACK
6
CONTINUOUS
10
6.05293
20
-3.73033
11
6.05761
21
-3.72513
0
LINE
8
BLACK
6
CONTINUOUS
10
6.05761
20
-3.72513
11
6.06327
21
-3.72102
0
LINE
8
BLACK
6
CONTINUOUS
10
6.06327
20
-3.72102
11
6.06966
21
-3.71817
0
LINE
8
BLACK
6
CONTINUOUS
10
6.06966
20
-3.71817
11
6.0765
21
-3.71672
0
LINE
8
BLACK
6
CONTINUOUS
10
6.0765
20
-3.71672
11
6.0835
21
-3.71672
0
LINE
8
BLACK
6
CONTINUOUS
10
6.0835
20
-3.71672
11
6.09034
21
-3.71817
0
LINE
8
BLACK
6
CONTINUOUS
10
5.76634
20
-3.71717
11
5.77273
21
-3.72002
0
LINE
8
BLACK
6
CONTINUOUS
10
5.77273
20
-3.72002
11
5.77839
21
-3.72413
0
LINE
8
BLACK
6
CONTINUOUS
10
5.77839
20
-3.72413
11
5.78307
21
-3.72933
0
LINE
8
BLACK
6
CONTINUOUS
10
5.78307
20
-3.72933
11
5.78657
21
-3.73539
0
LINE
8
BLACK
6
CONTINUOUS
10
5.78657
20
-3.73539
11
5.78873
21
-3.74204
0
LINE
8
BLACK
6
CONTINUOUS
10
5.78873
20
-3.74204
11
5.78946
21
-3.749
0
LINE
8
BLACK
6
CONTINUOUS
10
5.78946
20
-3.749
11
5.78873
21
-3.75596
0
LINE
8
BLACK
6
CONTINUOUS
10
5.78873
20
-3.75596
11
5.78657
21
-3.76261
0
LINE
8
BLACK
6
CONTINUOUS
10
5.78657
20
-3.76261
11
5.78307
21
-3.76867
0
LINE
8
BLACK
6
CONTINUOUS
10
5.78307
20
-3.76867
11
5.77839
21
-3.77387
0
LINE
8
BLACK
6
CONTINUOUS
10
5.77839
20
-3.77387
11
5.77273
21
-3.77798
0
LINE
8
BLACK
6
CONTINUOUS
10
5.77273
20
-3.77798
11
5.76634
21
-3.78083
0
LINE
8
BLACK
6
CONTINUOUS
10
5.76634
20
-3.78083
11
5.7595
21
-3.78228
0
LINE
8
BLACK
6
CONTINUOUS
10
5.7595
20
-3.78228
11
5.7525
21
-3.78228
0
LINE
8
BLACK
6
CONTINUOUS
10
5.7525
20
-3.78228
11
5.74566
21
-3.78083
0
LINE
8
BLACK
6
CONTINUOUS
10
5.74566
20
-3.78083
11
5.73927
21
-3.77798
0
LINE
8
BLACK
6
CONTINUOUS
10
5.73927
20
-3.77798
11
5.73361
21
-3.77387
0
LINE
8
BLACK
6
CONTINUOUS
10
5.73361
20
-3.77387
11
5.72893
21
-3.76867
0
LINE
8
BLACK
6
CONTINUOUS
10
5.72893
20
-3.76867
11
5.72543
21
-3.76261
0
LINE
8
BLACK
6
CONTINUOUS
10
5.72543
20
-3.76261
11
5.72327
21
-3.75596
0
LINE
8
BLACK
6
CONTINUOUS
10
5.72327
20
-3.75596
11
5.72254
21
-3.749
0
LINE
8
BLACK
6
CONTINUOUS
10
5.72254
20
-3.749
11
5.72327
21
-3.74204
0
LINE
8
BLACK
6
CONTINUOUS
10
5.72327
20
-3.74204
11
5.72543
21
-3.73539
0
LINE
8
BLACK
6
CONTINUOUS
10
5.72543
20
-3.73539
11
5.72893
21
-3.72933
0
LINE
8
BLACK
6
CONTINUOUS
10
5.72893
20
-3.72933
11
5.73361
21
-3.72413
0
LINE
8
BLACK
6
CONTINUOUS
10
5.73361
20
-3.72413
11
5.73927
21
-3.72002
0
LINE
8
BLACK
6
CONTINUOUS
10
5.73927
20
-3.72002
11
5.74566
21
-3.71717
0
LINE
8
BLACK
6
CONTINUOUS
10
5.74566
20
-3.71717
11
5.7525
21
-3.71572
0
LINE
8
BLACK
6
CONTINUOUS
10
5.7525
20
-3.71572
11
5.7595
21
-3.71572
0
LINE
8
BLACK
6
CONTINUOUS
10
5.7595
20
-3.71572
11
5.76634
21
-3.71717
0
LINE
8
BLACK
6
CONTINUOUS
10
5.66634
20
-3.71717
11
5.67273
21
-3.72002
0
LINE
8
BLACK
6
CONTINUOUS
10
5.67273
20
-3.72002
11
5.67839
21
-3.72413
0
LINE
8
BLACK
6
CONTINUOUS
10
5.67839
20
-3.72413
11
5.68307
21
-3.72933
0
LINE
8
BLACK
6
CONTINUOUS
10
5.68307
20
-3.72933
11
5.68657
21
-3.73539
0
LINE
8
BLACK
6
CONTINUOUS
10
5.68657
20
-3.73539
11
5.68873
21
-3.74204
0
LINE
8
BLACK
6
CONTINUOUS
10
5.68873
20
-3.74204
11
5.68946
21
-3.749
0
LINE
8
BLACK
6
CONTINUOUS
10
5.68946
20
-3.749
11
5.68873
21
-3.75596
0
LINE
8
BLACK
6
CONTINUOUS
10
5.68873
20
-3.75596
11
5.68657
21
-3.76261
0
LINE
8
BLACK
6
CONTINUOUS
10
5.68657
20
-3.76261
11
5.68307
21
-3.76867
0
LINE
8
BLACK
6
CONTINUOUS
10
5.68307
20
-3.76867
11
5.67839
21
-3.77387
0
LINE
8
BLACK
6
CONTINUOUS
10
5.67839
20
-3.77387
11
5.67273
21
-3.77798
0
LINE
8
BLACK
6
CONTINUOUS
10
5.67273
20
-3.77798
11
5.66634
21
-3.78083
0
LINE
8
BLACK
6
CONTINUOUS
10
5.66634
20
-3.78083
11
5.6595
21
-3.78228
0
LINE
8
BLACK
6
CONTINUOUS
10
5.6595
20
-3.78228
11
5.6525
21
-3.78228
0
LINE
8
BLACK
6
CONTINUOUS
10
5.6525
20
-3.78228
11
5.64566
21
-3.78083
0
LINE
8
BLACK
6
CONTINUOUS
10
5.64566
20
-3.78083
11
5.63927
21
-3.77798
0
LINE
8
BLACK
6
CONTINUOUS
10
5.63927
20
-3.77798
11
5.63361
21
-3.77387
0
LINE
8
BLACK
6
CONTINUOUS
10
5.63361
20
-3.77387
11
5.62893
21
-3.76867
0
LINE
8
BLACK
6
CONTINUOUS
10
5.62893
20
-3.76867
11
5.62543
21
-3.76261
0
LINE
8
BLACK
6
CONTINUOUS
10
5.62543
20
-3.76261
11
5.62327
21
-3.75596
0
LINE
8
BLACK
6
CONTINUOUS
10
5.62327
20
-3.75596
11
5.62254
21
-3.749
0
LINE
8
BLACK
6
CONTINUOUS
10
5.62254
20
-3.749
11
5.62327
21
-3.74204
0
LINE
8
BLACK
6
CONTINUOUS
10
5.62327
20
-3.74204
11
5.62543
21
-3.73539
0
LINE
8
BLACK
6
CONTINUOUS
10
5.62543
20
-3.73539
11
5.62893
21
-3.72933
0
LINE
8
BLACK
6
CONTINUOUS
10
5.62893
20
-3.72933
11
5.63361
21
-3.72413
0
LINE
8
BLACK
6
CONTINUOUS
10
5.63361
20
-3.72413
11
5.63927
21
-3.72002
0
LINE
8
BLACK
6
CONTINUOUS
10
5.63927
20
-3.72002
11
5.64566
21
-3.71717
0
LINE
8
BLACK
6
CONTINUOUS
10
5.64566
20
-3.71717
11
5.6525
21
-3.71572
0
LINE
8
BLACK
6
CONTINUOUS
10
5.6525
20
-3.71572
11
5.6595
21
-3.71572
0
LINE
8
BLACK
6
CONTINUOUS
10
5.6595
20
-3.71572
11
5.66634
21
-3.71717
0
LINE
8
BLACK
6
CONTINUOUS
10
5.56634
20
-3.71717
11
5.57273
21
-3.72002
0
LINE
8
BLACK
6
CONTINUOUS
10
5.57273
20
-3.72002
11
5.57839
21
-3.72413
0
LINE
8
BLACK
6
CONTINUOUS
10
5.57839
20
-3.72413
11
5.58307
21
-3.72933
0
LINE
8
BLACK
6
CONTINUOUS
10
5.58307
20
-3.72933
11
5.58657
21
-3.73539
0
LINE
8
BLACK
6
CONTINUOUS
10
5.58657
20
-3.73539
11
5.58873
21
-3.74204
0
LINE
8
BLACK
6
CONTINUOUS
10
5.58873
20
-3.74204
11
5.58946
21
-3.749
0
LINE
8
BLACK
6
CONTINUOUS
10
5.58946
20
-3.749
11
5.58873
21
-3.75596
0
LINE
8
BLACK
6
CONTINUOUS
10
5.58873
20
-3.75596
11
5.58657
21
-3.76261
0
LINE
8
BLACK
6
CONTINUOUS
10
5.58657
20
-3.76261
11
5.58307
21
-3.76867
0
LINE
8
BLACK
6
CONTINUOUS
10
5.58307
20
-3.76867
11
5.57839
21
-3.77387
0
LINE
8
BLACK
6
CONTINUOUS
10
5.57839
20
-3.77387
11
5.57273
21
-3.77798
0
LINE
8
BLACK
6
CONTINUOUS
10
5.57273
20
-3.77798
11
5.56634
21
-3.78083
0
LINE
8
BLACK
6
CONTINUOUS
10
5.56634
20
-3.78083
11
5.5595
21
-3.78228
0
LINE
8
BLACK
6
CONTINUOUS
10
5.5595
20
-3.78228
11
5.5525
21
-3.78228
0
LINE
8
BLACK
6
CONTINUOUS
10
5.5525
20
-3.78228
11
5.54566
21
-3.78083
0
LINE
8
BLACK
6
CONTINUOUS
10
5.54566
20
-3.78083
11
5.53927
21
-3.77798
0
LINE
8
BLACK
6
CONTINUOUS
10
5.53927
20
-3.77798
11
5.53361
21
-3.77387
0
LINE
8
BLACK
6
CONTINUOUS
10
5.53361
20
-3.77387
11
5.52893
21
-3.76867
0
LINE
8
BLACK
6
CONTINUOUS
10
5.52893
20
-3.76867
11
5.52543
21
-3.76261
0
LINE
8
BLACK
6
CONTINUOUS
10
5.52543
20
-3.76261
11
5.52327
21
-3.75596
0
LINE
8
BLACK
6
CONTINUOUS
10
5.52327
20
-3.75596
11
5.52254
21
-3.749
0
LINE
8
BLACK
6
CONTINUOUS
10
5.52254
20
-3.749
11
5.52327
21
-3.74204
0
LINE
8
BLACK
6
CONTINUOUS
10
5.52327
20
-3.74204
11
5.52543
21
-3.73539
0
LINE
8
BLACK
6
CONTINUOUS
10
5.52543
20
-3.73539
11
5.52893
21
-3.72933
0
LINE
8
BLACK
6
CONTINUOUS
10
5.52893
20
-3.72933
11
5.53361
21
-3.72413
0
LINE
8
BLACK
6
CONTINUOUS
10
5.53361
20
-3.72413
11
5.53927
21
-3.72002
0
LINE
8
BLACK
6
CONTINUOUS
10
5.53927
20
-3.72002
11
5.54566
21
-3.71717
0
LINE
8
BLACK
6
CONTINUOUS
10
5.54566
20
-3.71717
11
5.5525
21
-3.71572
0
LINE
8
BLACK
6
CONTINUOUS
10
5.5525
20
-3.71572
11
5.5595
21
-3.71572
0
LINE
8
BLACK
6
CONTINUOUS
10
5.5595
20
-3.71572
11
5.56634
21
-3.71717
0
LINE
8
BLACK
6
CONTINUOUS
10
5.15487
20
-3.73902
11
5.15926
21
-3.74126
0
LINE
8
BLACK
6
CONTINUOUS
10
5.15926
20
-3.74126
11
5.16274
21
-3.74474
0
LINE
8
BLACK
6
CONTINUOUS
10
5.16274
20
-3.74474
11
5.16498
21
-3.74913
0
LINE
8
BLACK
6
CONTINUOUS
10
5.16498
20
-3.74913
11
5.16575
21
-3.754
0
LINE
8
BLACK
6
CONTINUOUS
10
5.16575
20
-3.754
11
5.16498
21
-3.75887
0
LINE
8
BLACK
6
CONTINUOUS
10
5.16498
20
-3.75887
11
5.16274
21
-3.76326
0
LINE
8
BLACK
6
CONTINUOUS
10
5.16274
20
-3.76326
11
5.15926
21
-3.76674
0
LINE
8
BLACK
6
CONTINUOUS
10
5.15926
20
-3.76674
11
5.15487
21
-3.76898
0
LINE
8
BLACK
6
CONTINUOUS
10
5.15487
20
-3.76898
11
5.15
21
-3.76975
0
LINE
8
BLACK
6
CONTINUOUS
10
5.15
20
-3.76975
11
5.14513
21
-3.76898
0
LINE
8
BLACK
6
CONTINUOUS
10
5.14513
20
-3.76898
11
5.14074
21
-3.76674
0
LINE
8
BLACK
6
CONTINUOUS
10
5.14074
20
-3.76674
11
5.13726
21
-3.76326
0
LINE
8
BLACK
6
CONTINUOUS
10
5.13726
20
-3.76326
11
5.13502
21
-3.75887
0
LINE
8
BLACK
6
CONTINUOUS
10
5.13502
20
-3.75887
11
5.13425
21
-3.754
0
LINE
8
BLACK
6
CONTINUOUS
10
5.13425
20
-3.754
11
5.13502
21
-3.74913
0
LINE
8
BLACK
6
CONTINUOUS
10
5.13502
20
-3.74913
11
5.13726
21
-3.74474
0
LINE
8
BLACK
6
CONTINUOUS
10
5.13726
20
-3.74474
11
5.14074
21
-3.74126
0
LINE
8
BLACK
6
CONTINUOUS
10
5.14074
20
-3.74126
11
5.14513
21
-3.73902
0
LINE
8
BLACK
6
CONTINUOUS
10
5.14513
20
-3.73902
11
5.15
21
-3.73825
0
LINE
8
BLACK
6
CONTINUOUS
10
5.15
20
-3.73825
11
5.15487
21
-3.73902
0
LINE
8
BLACK
6
CONTINUOUS
10
6.58887
20
-3.66702
11
6.59326
21
-3.66926
0
LINE
8
BLACK
6
CONTINUOUS
10
6.59326
20
-3.66926
11
6.59674
21
-3.67274
0
LINE
8
BLACK
6
CONTINUOUS
10
6.59674
20
-3.67274
11
6.59898
21
-3.67713
0
LINE
8
BLACK
6
CONTINUOUS
10
6.59898
20
-3.67713
11
6.59975
21
-3.682
0
LINE
8
BLACK
6
CONTINUOUS
10
6.59975
20
-3.682
11
6.59898
21
-3.68687
0
LINE
8
BLACK
6
CONTINUOUS
10
6.59898
20
-3.68687
11
6.59674
21
-3.69126
0
LINE
8
BLACK
6
CONTINUOUS
10
6.59674
20
-3.69126
11
6.59326
21
-3.69474
0
LINE
8
BLACK
6
CONTINUOUS
10
6.59326
20
-3.69474
11
6.58887
21
-3.69698
0
LINE
8
BLACK
6
CONTINUOUS
10
6.58887
20
-3.69698
11
6.584
21
-3.69775
0
LINE
8
BLACK
6
CONTINUOUS
10
6.584
20
-3.69775
11
6.57913
21
-3.69698
0
LINE
8
BLACK
6
CONTINUOUS
10
6.57913
20
-3.69698
11
6.57474
21
-3.69474
0
LINE
8
BLACK
6
CONTINUOUS
10
6.57474
20
-3.69474
11
6.57126
21
-3.69126
0
LINE
8
BLACK
6
CONTINUOUS
10
6.57126
20
-3.69126
11
6.56902
21
-3.68687
0
LINE
8
BLACK
6
CONTINUOUS
10
6.56902
20
-3.68687
11
6.56825
21
-3.682
0
LINE
8
BLACK
6
CONTINUOUS
10
6.56825
20
-3.682
11
6.56902
21
-3.67713
0
LINE
8
BLACK
6
CONTINUOUS
10
6.56902
20
-3.67713
11
6.57126
21
-3.67274
0
LINE
8
BLACK
6
CONTINUOUS
10
6.57126
20
-3.67274
11
6.57474
21
-3.66926
0
LINE
8
BLACK
6
CONTINUOUS
10
6.57474
20
-3.66926
11
6.57913
21
-3.66702
0
LINE
8
BLACK
6
CONTINUOUS
10
6.57913
20
-3.66702
11
6.584
21
-3.66625
0
LINE
8
BLACK
6
CONTINUOUS
10
6.584
20
-3.66625
11
6.58887
21
-3.66702
0
LINE
8
BLACK
6
CONTINUOUS
10
5.46617
20
-3.62024
11
5.46293
21
-3.61807
0
LINE
8
BLACK
6
CONTINUOUS
10
5.46293
20
-3.61807
11
5.43793
21
-3.59307
0
LINE
8
BLACK
6
CONTINUOUS
10
5.43793
20
-3.59307
11
5.43704
21
-3.59174
0
LINE
8
BLACK
6
CONTINUOUS
10
5.43704
20
-3.59174
11
5.43576
21
-3.58983
0
LINE
8
BLACK
6
CONTINUOUS
10
5.43576
20
-3.58983
11
5.435
21
-3.586
0
LINE
8
BLACK
6
CONTINUOUS
10
5.435
20
-3.586
11
5.435
21
-3.06514
0
LINE
8
BLACK
6
CONTINUOUS
10
5.435
20
-3.06514
11
5.40978
21
-3.03992
0
LINE
8
BLACK
6
CONTINUOUS
10
5.40978
20
-3.03992
11
5.39789
21
-3.03992
0
LINE
8
BLACK
6
CONTINUOUS
10
5.39789
20
-3.03992
11
5.39671
21
-3.04353
0
LINE
8
BLACK
6
CONTINUOUS
10
5.39671
20
-3.04353
11
5.39322
21
-3.04959
0
LINE
8
BLACK
6
CONTINUOUS
10
5.39322
20
-3.04959
11
5.38853
21
-3.05479
0
LINE
8
BLACK
6
CONTINUOUS
10
5.38853
20
-3.05479
11
5.38287
21
-3.0589
0
LINE
8
BLACK
6
CONTINUOUS
10
5.38287
20
-3.0589
11
5.37648
21
-3.06175
0
LINE
8
BLACK
6
CONTINUOUS
10
5.37648
20
-3.06175
11
5.36964
21
-3.0632
0
LINE
8
BLACK
6
CONTINUOUS
10
5.36964
20
-3.0632
11
5.36264
21
-3.0632
0
LINE
8
BLACK
6
CONTINUOUS
10
5.36264
20
-3.0632
11
5.3558
21
-3.06175
0
LINE
8
BLACK
6
CONTINUOUS
10
5.3558
20
-3.06175
11
5.34941
21
-3.0589
0
LINE
8
BLACK
6
CONTINUOUS
10
5.34941
20
-3.0589
11
5.34375
21
-3.05479
0
LINE
8
BLACK
6
CONTINUOUS
10
5.34375
20
-3.05479
11
5.33907
21
-3.04959
0
LINE
8
BLACK
6
CONTINUOUS
10
5.33907
20
-3.04959
11
5.33557
21
-3.04353
0
LINE
8
BLACK
6
CONTINUOUS
10
5.33557
20
-3.04353
11
5.33341
21
-3.03688
0
LINE
8
BLACK
6
CONTINUOUS
10
5.33341
20
-3.03688
11
5.33268
21
-3.02992
0
LINE
8
BLACK
6
CONTINUOUS
10
5.33268
20
-3.02992
11
5.33341
21
-3.02296
0
LINE
8
BLACK
6
CONTINUOUS
10
5.33341
20
-3.02296
11
5.33557
21
-3.01631
0
LINE
8
BLACK
6
CONTINUOUS
10
5.33557
20
-3.01631
11
5.33907
21
-3.01025
0
LINE
8
BLACK
6
CONTINUOUS
10
5.33907
20
-3.01025
11
5.34375
21
-3.00505
0
LINE
8
BLACK
6
CONTINUOUS
10
5.34375
20
-3.00505
11
5.34941
21
-3.00094
0
LINE
8
BLACK
6
CONTINUOUS
10
5.34941
20
-3.00094
11
5.3558
21
-2.99809
0
LINE
8
BLACK
6
CONTINUOUS
10
5.3558
20
-2.99809
11
5.36264
21
-2.99664
0
LINE
8
BLACK
6
CONTINUOUS
10
5.36264
20
-2.99664
11
5.36964
21
-2.99664
0
LINE
8
BLACK
6
CONTINUOUS
10
5.36964
20
-2.99664
11
5.37648
21
-2.99809
0
LINE
8
BLACK
6
CONTINUOUS
10
5.37648
20
-2.99809
11
5.38287
21
-3.00094
0
LINE
8
BLACK
6
CONTINUOUS
10
5.38287
20
-3.00094
11
5.38853
21
-3.00505
0
LINE
8
BLACK
6
CONTINUOUS
10
5.38853
20
-3.00505
11
5.39322
21
-3.01025
0
LINE
8
BLACK
6
CONTINUOUS
10
5.39322
20
-3.01025
11
5.39671
21
-3.01631
0
LINE
8
BLACK
6
CONTINUOUS
10
5.39671
20
-3.01631
11
5.39789
21
-3.01992
0
LINE
8
BLACK
6
CONTINUOUS
10
5.39789
20
-3.01992
11
5.41392
21
-3.01992
0
LINE
8
BLACK
6
CONTINUOUS
10
5.41392
20
-3.01992
11
5.41775
21
-3.02068
0
LINE
8
BLACK
6
CONTINUOUS
10
5.41775
20
-3.02068
11
5.42099
21
-3.02285
0
LINE
8
BLACK
6
CONTINUOUS
10
5.42099
20
-3.02285
11
5.45207
21
-3.05393
0
LINE
8
BLACK
6
CONTINUOUS
10
5.45207
20
-3.05393
11
5.45424
21
-3.05717
0
LINE
8
BLACK
6
CONTINUOUS
10
5.45424
20
-3.05717
11
5.455
21
-3.061
0
LINE
8
BLACK
6
CONTINUOUS
10
5.455
20
-3.061
11
5.455
21
-3.58186
0
LINE
8
BLACK
6
CONTINUOUS
10
5.455
20
-3.58186
11
5.47414
21
-3.601
0
LINE
8
BLACK
6
CONTINUOUS
10
5.47414
20
-3.601
11
5.71761
21
-3.601
0
LINE
8
BLACK
6
CONTINUOUS
10
5.71761
20
-3.601
11
5.71797
21
-3.60076
0
LINE
8
BLACK
6
CONTINUOUS
10
5.71797
20
-3.60076
11
5.72179
21
-3.6
0
LINE
8
BLACK
6
CONTINUOUS
10
5.72179
20
-3.6
11
6.141
21
-3.6
0
LINE
8
BLACK
6
CONTINUOUS
10
6.141
20
-3.6
11
6.14374
21
-3.59726
0
LINE
8
BLACK
6
CONTINUOUS
10
6.14374
20
-3.59726
11
6.14813
21
-3.59502
0
LINE
8
BLACK
6
CONTINUOUS
10
6.14813
20
-3.59502
11
6.153
21
-3.59425
0
LINE
8
BLACK
6
CONTINUOUS
10
6.153
20
-3.59425
11
6.15787
21
-3.59502
0
LINE
8
BLACK
6
CONTINUOUS
10
6.15787
20
-3.59502
11
6.16226
21
-3.59726
0
LINE
8
BLACK
6
CONTINUOUS
10
6.16226
20
-3.59726
11
6.16574
21
-3.60074
0
LINE
8
BLACK
6
CONTINUOUS
10
6.16574
20
-3.60074
11
6.16798
21
-3.60513
0
LINE
8
BLACK
6
CONTINUOUS
10
6.16798
20
-3.60513
11
6.16875
21
-3.61
0
LINE
8
BLACK
6
CONTINUOUS
10
6.16875
20
-3.61
11
6.16798
21
-3.61487
0
LINE
8
BLACK
6
CONTINUOUS
10
6.16798
20
-3.61487
11
6.16574
21
-3.61926
0
LINE
8
BLACK
6
CONTINUOUS
10
6.16574
20
-3.61926
11
6.16226
21
-3.62274
0
LINE
8
BLACK
6
CONTINUOUS
10
6.16226
20
-3.62274
11
6.15787
21
-3.62498
0
LINE
8
BLACK
6
CONTINUOUS
10
6.15787
20
-3.62498
11
6.153
21
-3.62575
0
LINE
8
BLACK
6
CONTINUOUS
10
6.153
20
-3.62575
11
6.14813
21
-3.62498
0
LINE
8
BLACK
6
CONTINUOUS
10
6.14813
20
-3.62498
11
6.14374
21
-3.62274
0
LINE
8
BLACK
6
CONTINUOUS
10
6.14374
20
-3.62274
11
6.141
21
-3.62
0
LINE
8
BLACK
6
CONTINUOUS
10
6.141
20
-3.62
11
5.72498
21
-3.62
0
LINE
8
BLACK
6
CONTINUOUS
10
5.72498
20
-3.62
11
5.72462
21
-3.62024
0
LINE
8
BLACK
6
CONTINUOUS
10
5.72462
20
-3.62024
11
5.72079
21
-3.621
0
LINE
8
BLACK
6
CONTINUOUS
10
5.72079
20
-3.621
11
5.47
21
-3.621
0
LINE
8
BLACK
6
CONTINUOUS
10
5.47
20
-3.621
11
5.46617
21
-3.62024
0
LINE
8
BLACK
6
CONTINUOUS
10
4.93987
20
-3.56402
11
4.94426
21
-3.56626
0
LINE
8
BLACK
6
CONTINUOUS
10
4.94426
20
-3.56626
11
4.94774
21
-3.56974
0
LINE
8
BLACK
6
CONTINUOUS
10
4.94774
20
-3.56974
11
4.94998
21
-3.57413
0
LINE
8
BLACK
6
CONTINUOUS
10
4.94998
20
-3.57413
11
4.95075
21
-3.579
0
LINE
8
BLACK
6
CONTINUOUS
10
4.95075
20
-3.579
11
4.94998
21
-3.58387
0
LINE
8
BLACK
6
CONTINUOUS
10
4.94998
20
-3.58387
11
4.94774
21
-3.58826
0
LINE
8
BLACK
6
CONTINUOUS
10
4.94774
20
-3.58826
11
4.94426
21
-3.59174
0
LINE
8
BLACK
6
CONTINUOUS
10
4.94426
20
-3.59174
11
4.93987
21
-3.59398
0
LINE
8
BLACK
6
CONTINUOUS
10
4.93987
20
-3.59398
11
4.935
21
-3.59475
0
LINE
8
BLACK
6
CONTINUOUS
10
4.935
20
-3.59475
11
4.93013
21
-3.59398
0
LINE
8
BLACK
6
CONTINUOUS
10
4.93013
20
-3.59398
11
4.92574
21
-3.59174
0
LINE
8
BLACK
6
CONTINUOUS
10
4.92574
20
-3.59174
11
4.92226
21
-3.58826
0
LINE
8
BLACK
6
CONTINUOUS
10
4.92226
20
-3.58826
11
4.92002
21
-3.58387
0
LINE
8
BLACK
6
CONTINUOUS
10
4.92002
20
-3.58387
11
4.91925
21
-3.579
0
LINE
8
BLACK
6
CONTINUOUS
10
4.91925
20
-3.579
11
4.92002
21
-3.57413
0
LINE
8
BLACK
6
CONTINUOUS
10
4.92002
20
-3.57413
11
4.92226
21
-3.56974
0
LINE
8
BLACK
6
CONTINUOUS
10
4.92226
20
-3.56974
11
4.92574
21
-3.56626
0
LINE
8
BLACK
6
CONTINUOUS
10
4.92574
20
-3.56626
11
4.93013
21
-3.56402
0
LINE
8
BLACK
6
CONTINUOUS
10
4.93013
20
-3.56402
11
4.935
21
-3.56325
0
LINE
8
BLACK
6
CONTINUOUS
10
4.935
20
-3.56325
11
4.93987
21
-3.56402
0
LINE
8
BLACK
6
CONTINUOUS
10
6.71987
20
-3.55502
11
6.72426
21
-3.55726
0
LINE
8
BLACK
6
CONTINUOUS
10
6.72426
20
-3.55726
11
6.72774
21
-3.56074
0
LINE
8
BLACK
6
CONTINUOUS
10
6.72774
20
-3.56074
11
6.72998
21
-3.56513
0
LINE
8
BLACK
6
CONTINUOUS
10
6.72998
20
-3.56513
11
6.73075
21
-3.57
0
LINE
8
BLACK
6
CONTINUOUS
10
6.73075
20
-3.57
11
6.72998
21
-3.57487
0
LINE
8
BLACK
6
CONTINUOUS
10
6.72998
20
-3.57487
11
6.72774
21
-3.57926
0
LINE
8
BLACK
6
CONTINUOUS
10
6.72774
20
-3.57926
11
6.72426
21
-3.58274
0
LINE
8
BLACK
6
CONTINUOUS
10
6.72426
20
-3.58274
11
6.71987
21
-3.58498
0
LINE
8
BLACK
6
CONTINUOUS
10
6.71987
20
-3.58498
11
6.715
21
-3.58575
0
LINE
8
BLACK
6
CONTINUOUS
10
6.715
20
-3.58575
11
6.71013
21
-3.58498
0
LINE
8
BLACK
6
CONTINUOUS
10
6.71013
20
-3.58498
11
6.70574
21
-3.58274
0
LINE
8
BLACK
6
CONTINUOUS
10
6.70574
20
-3.58274
11
6.70226
21
-3.57926
0
LINE
8
BLACK
6
CONTINUOUS
10
6.70226
20
-3.57926
11
6.70002
21
-3.57487
0
LINE
8
BLACK
6
CONTINUOUS
10
6.70002
20
-3.57487
11
6.69925
21
-3.57
0
LINE
8
BLACK
6
CONTINUOUS
10
6.69925
20
-3.57
11
6.70002
21
-3.56513
0
LINE
8
BLACK
6
CONTINUOUS
10
6.70002
20
-3.56513
11
6.70226
21
-3.56074
0
LINE
8
BLACK
6
CONTINUOUS
10
6.70226
20
-3.56074
11
6.70574
21
-3.55726
0
LINE
8
BLACK
6
CONTINUOUS
10
6.70574
20
-3.55726
11
6.71013
21
-3.55502
0
LINE
8
BLACK
6
CONTINUOUS
10
6.71013
20
-3.55502
11
6.715
21
-3.55425
0
LINE
8
BLACK
6
CONTINUOUS
10
6.715
20
-3.55425
11
6.71987
21
-3.55502
0
LINE
8
BLACK
6
CONTINUOUS
10
6.50287
20
-3.54602
11
6.50726
21
-3.54826
0
LINE
8
BLACK
6
CONTINUOUS
10
6.50726
20
-3.54826
11
6.51074
21
-3.55174
0
LINE
8
BLACK
6
CONTINUOUS
10
6.51074
20
-3.55174
11
6.51298
21
-3.55613
0
LINE
8
BLACK
6
CONTINUOUS
10
6.51298
20
-3.55613
11
6.51375
21
-3.561
0
LINE
8
BLACK
6
CONTINUOUS
10
6.51375
20
-3.561
11
6.51298
21
-3.56587
0
LINE
8
BLACK
6
CONTINUOUS
10
6.51298
20
-3.56587
11
6.51074
21
-3.57026
0
LINE
8
BLACK
6
CONTINUOUS
10
6.51074
20
-3.57026
11
6.50726
21
-3.57374
0
LINE
8
BLACK
6
CONTINUOUS
10
6.50726
20
-3.57374
11
6.50287
21
-3.57598
0
LINE
8
BLACK
6
CONTINUOUS
10
6.50287
20
-3.57598
11
6.498
21
-3.57675
0
LINE
8
BLACK
6
CONTINUOUS
10
6.498
20
-3.57675
11
6.49313
21
-3.57598
0
LINE
8
BLACK
6
CONTINUOUS
10
6.49313
20
-3.57598
11
6.48874
21
-3.57374
0
LINE
8
BLACK
6
CONTINUOUS
10
6.48874
20
-3.57374
11
6.48526
21
-3.57026
0
LINE
8
BLACK
6
CONTINUOUS
10
6.48526
20
-3.57026
11
6.48302
21
-3.56587
0
LINE
8
BLACK
6
CONTINUOUS
10
6.48302
20
-3.56587
11
6.48225
21
-3.561
0
LINE
8
BLACK
6
CONTINUOUS
10
6.48225
20
-3.561
11
6.48302
21
-3.55613
0
LINE
8
BLACK
6
CONTINUOUS
10
6.48302
20
-3.55613
11
6.48526
21
-3.55174
0
LINE
8
BLACK
6
CONTINUOUS
10
6.48526
20
-3.55174
11
6.48874
21
-3.54826
0
LINE
8
BLACK
6
CONTINUOUS
10
6.48874
20
-3.54826
11
6.49313
21
-3.54602
0
LINE
8
BLACK
6
CONTINUOUS
10
6.49313
20
-3.54602
11
6.498
21
-3.54525
0
LINE
8
BLACK
6
CONTINUOUS
10
6.498
20
-3.54525
11
6.50287
21
-3.54602
0
LINE
8
BLACK
6
CONTINUOUS
10
7.03366
20
-3.41766
11
7.04449
21
-3.42017
0
LINE
8
BLACK
6
CONTINUOUS
10
7.04449
20
-3.42017
11
7.05486
21
-3.42419
0
LINE
8
BLACK
6
CONTINUOUS
10
7.05486
20
-3.42419
11
7.06457
21
-3.42962
0
LINE
8
BLACK
6
CONTINUOUS
10
7.06457
20
-3.42962
11
7.07341
21
-3.43637
0
LINE
8
BLACK
6
CONTINUOUS
10
7.07341
20
-3.43637
11
7.08121
21
-3.4443
0
LINE
8
BLACK
6
CONTINUOUS
10
7.08121
20
-3.4443
11
7.08782
21
-3.45324
0
LINE
8
BLACK
6
CONTINUOUS
10
7.08782
20
-3.45324
11
7.0931
21
-3.46303
0
LINE
8
BLACK
6
CONTINUOUS
10
7.0931
20
-3.46303
11
7.09695
21
-3.47347
0
LINE
8
BLACK
6
CONTINUOUS
10
7.09695
20
-3.47347
11
7.09929
21
-3.48434
0
LINE
8
BLACK
6
CONTINUOUS
10
7.09929
20
-3.48434
11
7.10008
21
-3.49543
0
LINE
8
BLACK
6
CONTINUOUS
10
7.10008
20
-3.49543
11
7.09992
21
-3.50038
0
LINE
8
BLACK
6
CONTINUOUS
10
7.09992
20
-3.50038
11
7.09844
21
-3.5114
0
LINE
8
BLACK
6
CONTINUOUS
10
7.09844
20
-3.5114
11
7.09542
21
-3.52211
0
LINE
8
BLACK
6
CONTINUOUS
10
7.09542
20
-3.52211
11
7.09093
21
-3.53228
0
LINE
8
BLACK
6
CONTINUOUS
10
7.09093
20
-3.53228
11
7.08504
21
-3.54172
0
LINE
8
BLACK
6
CONTINUOUS
10
7.08504
20
-3.54172
11
7.07788
21
-3.55023
0
LINE
8
BLACK
6
CONTINUOUS
10
7.07788
20
-3.55023
11
7.0696
21
-3.55765
0
LINE
8
BLACK
6
CONTINUOUS
10
7.0696
20
-3.55765
11
7.06035
21
-3.56383
0
LINE
8
BLACK
6
CONTINUOUS
10
7.06035
20
-3.56383
11
7.05032
21
-3.56864
0
LINE
8
BLACK
6
CONTINUOUS
10
7.05032
20
-3.56864
11
7.03972
21
-3.572
0
LINE
8
BLACK
6
CONTINUOUS
10
7.03972
20
-3.572
11
7.02875
21
-3.57382
0
LINE
8
BLACK
6
CONTINUOUS
10
7.02875
20
-3.57382
11
7.01763
21
-3.57409
0
LINE
8
BLACK
6
CONTINUOUS
10
7.01763
20
-3.57409
11
7.00658
21
-3.57278
0
LINE
8
BLACK
6
CONTINUOUS
10
7.00658
20
-3.57278
11
6.99583
21
-3.56993
0
LINE
8
BLACK
6
CONTINUOUS
10
6.99583
20
-3.56993
11
6.98559
21
-3.56559
0
LINE
8
BLACK
6
CONTINUOUS
10
6.98559
20
-3.56559
11
6.97606
21
-3.55985
0
LINE
8
BLACK
6
CONTINUOUS
10
6.97606
20
-3.55985
11
6.96744
21
-3.55283
0
LINE
8
BLACK
6
CONTINUOUS
10
6.96744
20
-3.55283
11
6.95989
21
-3.54466
0
LINE
8
BLACK
6
CONTINUOUS
10
6.95989
20
-3.54466
11
6.95356
21
-3.53552
0
LINE
8
BLACK
6
CONTINUOUS
10
6.95356
20
-3.53552
11
6.94859
21
-3.52557
0
LINE
8
BLACK
6
CONTINUOUS
10
6.94859
20
-3.52557
11
6.94507
21
-3.51501
0
LINE
8
BLACK
6
CONTINUOUS
10
6.94507
20
-3.51501
11
6.94307
21
-3.50407
0
LINE
8
BLACK
6
CONTINUOUS
10
6.94307
20
-3.50407
11
6.94264
21
-3.49296
0
LINE
8
BLACK
6
CONTINUOUS
10
6.94264
20
-3.49296
11
6.94377
21
-3.4819
0
LINE
8
BLACK
6
CONTINUOUS
10
6.94377
20
-3.4819
11
6.94645
21
-3.4711
0
LINE
8
BLACK
6
CONTINUOUS
10
6.94645
20
-3.4711
11
6.95063
21
-3.46079
0
LINE
8
BLACK
6
CONTINUOUS
10
6.95063
20
-3.46079
11
6.95621
21
-3.45117
0
LINE
8
BLACK
6
CONTINUOUS
10
6.95621
20
-3.45117
11
6.9631
21
-3.44244
0
LINE
8
BLACK
6
CONTINUOUS
10
6.9631
20
-3.44244
11
6.97115
21
-3.43476
0
LINE
8
BLACK
6
CONTINUOUS
10
6.97115
20
-3.43476
11
6.9802
21
-3.4283
0
LINE
8
BLACK
6
CONTINUOUS
10
6.9802
20
-3.4283
11
6.99007
21
-3.42317
0
LINE
8
BLACK
6
CONTINUOUS
10
6.99007
20
-3.42317
11
7.00056
21
-3.41948
0
LINE
8
BLACK
6
CONTINUOUS
10
7.00056
20
-3.41948
11
7.01147
21
-3.41731
0
LINE
8
BLACK
6
CONTINUOUS
10
7.01147
20
-3.41731
11
7.02258
21
-3.4167
0
LINE
8
BLACK
6
CONTINUOUS
10
7.02258
20
-3.4167
11
7.03366
21
-3.41766
0
LINE
8
BLACK
6
CONTINUOUS
10
5.58057
20
-3.55361
11
5.57707
21
-3.55967
0
LINE
8
BLACK
6
CONTINUOUS
10
5.57707
20
-3.55967
11
5.57239
21
-3.56487
0
LINE
8
BLACK
6
CONTINUOUS
10
5.57239
20
-3.56487
11
5.56673
21
-3.56898
0
LINE
8
BLACK
6
CONTINUOUS
10
5.56673
20
-3.56898
11
5.56034
21
-3.57183
0
LINE
8
BLACK
6
CONTINUOUS
10
5.56034
20
-3.57183
11
5.5535
21
-3.57328
0
LINE
8
BLACK
6
CONTINUOUS
10
5.5535
20
-3.57328
11
5.5465
21
-3.57328
0
LINE
8
BLACK
6
CONTINUOUS
10
5.5465
20
-3.57328
11
5.53966
21
-3.57183
0
LINE
8
BLACK
6
CONTINUOUS
10
5.53966
20
-3.57183
11
5.53327
21
-3.56898
0
LINE
8
BLACK
6
CONTINUOUS
10
5.53327
20
-3.56898
11
5.52761
21
-3.56487
0
LINE
8
BLACK
6
CONTINUOUS
10
5.52761
20
-3.56487
11
5.52293
21
-3.55967
0
LINE
8
BLACK
6
CONTINUOUS
10
5.52293
20
-3.55967
11
5.51943
21
-3.55361
0
LINE
8
BLACK
6
CONTINUOUS
10
5.51943
20
-3.55361
11
5.51727
21
-3.54696
0
LINE
8
BLACK
6
CONTINUOUS
10
5.51727
20
-3.54696
11
5.51654
21
-3.54
0
LINE
8
BLACK
6
CONTINUOUS
10
5.51654
20
-3.54
11
5.51727
21
-3.53304
0
LINE
8
BLACK
6
CONTINUOUS
10
5.51727
20
-3.53304
11
5.51943
21
-3.52639
0
LINE
8
BLACK
6
CONTINUOUS
10
5.51943
20
-3.52639
11
5.52293
21
-3.52033
0
LINE
8
BLACK
6
CONTINUOUS
10
5.52293
20
-3.52033
11
5.52761
21
-3.51513
0
LINE
8
BLACK
6
CONTINUOUS
10
5.52761
20
-3.51513
11
5.53327
21
-3.51102
0
LINE
8
BLACK
6
CONTINUOUS
10
5.53327
20
-3.51102
11
5.53966
21
-3.50817
0
LINE
8
BLACK
6
CONTINUOUS
10
5.53966
20
-3.50817
11
5.5465
21
-3.50672
0
LINE
8
BLACK
6
CONTINUOUS
10
5.5465
20
-3.50672
11
5.5535
21
-3.50672
0
LINE
8
BLACK
6
CONTINUOUS
10
5.5535
20
-3.50672
11
5.56034
21
-3.50817
0
LINE
8
BLACK
6
CONTINUOUS
10
5.56034
20
-3.50817
11
5.56673
21
-3.51102
0
LINE
8
BLACK
6
CONTINUOUS
10
5.56673
20
-3.51102
11
5.57239
21
-3.51513
0
LINE
8
BLACK
6
CONTINUOUS
10
5.57239
20
-3.51513
11
5.57707
21
-3.52033
0
LINE
8
BLACK
6
CONTINUOUS
10
5.57707
20
-3.52033
11
5.58057
21
-3.52639
0
LINE
8
BLACK
6
CONTINUOUS
10
5.58057
20
-3.52639
11
5.58174
21
-3.53
0
LINE
8
BLACK
6
CONTINUOUS
10
5.58174
20
-3.53
11
5.74686
21
-3.53
0
LINE
8
BLACK
6
CONTINUOUS
10
5.74686
20
-3.53
11
5.80693
21
-3.46993
0
LINE
8
BLACK
6
CONTINUOUS
10
5.80693
20
-3.46993
11
5.81017
21
-3.46776
0
LINE
8
BLACK
6
CONTINUOUS
10
5.81017
20
-3.46776
11
5.814
21
-3.467
0
LINE
8
BLACK
6
CONTINUOUS
10
5.814
20
-3.467
11
5.999
21
-3.467
0
LINE
8
BLACK
6
CONTINUOUS
10
5.999
20
-3.467
11
6.00174
21
-3.46426
0
LINE
8
BLACK
6
CONTINUOUS
10
6.00174
20
-3.46426
11
6.00613
21
-3.46202
0
LINE
8
BLACK
6
CONTINUOUS
10
6.00613
20
-3.46202
11
6.011
21
-3.46125
0
LINE
8
BLACK
6
CONTINUOUS
10
6.011
20
-3.46125
11
6.01587
21
-3.46202
0
LINE
8
BLACK
6
CONTINUOUS
10
6.01587
20
-3.46202
11
6.02026
21
-3.46426
0
LINE
8
BLACK
6
CONTINUOUS
10
6.02026
20
-3.46426
11
6.02374
21
-3.46774
0
LINE
8
BLACK
6
CONTINUOUS
10
6.02374
20
-3.46774
11
6.02598
21
-3.47213
0
LINE
8
BLACK
6
CONTINUOUS
10
6.02598
20
-3.47213
11
6.02675
21
-3.477
0
LINE
8
BLACK
6
CONTINUOUS
10
6.02675
20
-3.477
11
6.02598
21
-3.48187
0
LINE
8
BLACK
6
CONTINUOUS
10
6.02598
20
-3.48187
11
6.02374
21
-3.48626
0
LINE
8
BLACK
6
CONTINUOUS
10
6.02374
20
-3.48626
11
6.02026
21
-3.48974
0
LINE
8
BLACK
6
CONTINUOUS
10
6.02026
20
-3.48974
11
6.01587
21
-3.49198
0
LINE
8
BLACK
6
CONTINUOUS
10
6.01587
20
-3.49198
11
6.011
21
-3.49275
0
LINE
8
BLACK
6
CONTINUOUS
10
6.011
20
-3.49275
11
6.00613
21
-3.49198
0
LINE
8
BLACK
6
CONTINUOUS
10
6.00613
20
-3.49198
11
6.00174
21
-3.48974
0
LINE
8
BLACK
6
CONTINUOUS
10
6.00174
20
-3.48974
11
5.999
21
-3.487
0
LINE
8
BLACK
6
CONTINUOUS
10
5.999
20
-3.487
11
5.81814
21
-3.487
0
LINE
8
BLACK
6
CONTINUOUS
10
5.81814
20
-3.487
11
5.75807
21
-3.54707
0
LINE
8
BLACK
6
CONTINUOUS
10
5.75807
20
-3.54707
11
5.75483
21
-3.54924
0
LINE
8
BLACK
6
CONTINUOUS
10
5.75483
20
-3.54924
11
5.751
21
-3.55
0
LINE
8
BLACK
6
CONTINUOUS
10
5.751
20
-3.55
11
5.58174
21
-3.55
0
LINE
8
BLACK
6
CONTINUOUS
10
5.58174
20
-3.55
11
5.58057
21
-3.55361
0
LINE
8
BLACK
6
CONTINUOUS
10
4.79087
20
-3.50202
11
4.79526
21
-3.50426
0
LINE
8
BLACK
6
CONTINUOUS
10
4.79526
20
-3.50426
11
4.79874
21
-3.50774
0
LINE
8
BLACK
6
CONTINUOUS
10
4.79874
20
-3.50774
11
4.80098
21
-3.51213
0
LINE
8
BLACK
6
CONTINUOUS
10
4.80098
20
-3.51213
11
4.80175
21
-3.517
0
LINE
8
BLACK
6
CONTINUOUS
10
4.80175
20
-3.517
11
4.80098
21
-3.52187
0
LINE
8
BLACK
6
CONTINUOUS
10
4.80098
20
-3.52187
11
4.79874
21
-3.52626
0
LINE
8
BLACK
6
CONTINUOUS
10
4.79874
20
-3.52626
11
4.79526
21
-3.52974
0
LINE
8
BLACK
6
CONTINUOUS
10
4.79526
20
-3.52974
11
4.79087
21
-3.53198
0
LINE
8
BLACK
6
CONTINUOUS
10
4.79087
20
-3.53198
11
4.786
21
-3.53275
0
LINE
8
BLACK
6
CONTINUOUS
10
4.786
20
-3.53275
11
4.78113
21
-3.53198
0
LINE
8
BLACK
6
CONTINUOUS
10
4.78113
20
-3.53198
11
4.77674
21
-3.52974
0
LINE
8
BLACK
6
CONTINUOUS
10
4.77674
20
-3.52974
11
4.77326
21
-3.52626
0
LINE
8
BLACK
6
CONTINUOUS
10
4.77326
20
-3.52626
11
4.77102
21
-3.52187
0
LINE
8
BLACK
6
CONTINUOUS
10
4.77102
20
-3.52187
11
4.77025
21
-3.517
0
LINE
8
BLACK
6
CONTINUOUS
10
4.77025
20
-3.517
11
4.77102
21
-3.51213
0
LINE
8
BLACK
6
CONTINUOUS
10
4.77102
20
-3.51213
11
4.77326
21
-3.50774
0
LINE
8
BLACK
6
CONTINUOUS
10
4.77326
20
-3.50774
11
4.77674
21
-3.50426
0
LINE
8
BLACK
6
CONTINUOUS
10
4.77674
20
-3.50426
11
4.78113
21
-3.50202
0
LINE
8
BLACK
6
CONTINUOUS
10
4.78113
20
-3.50202
11
4.786
21
-3.50125
0
LINE
8
BLACK
6
CONTINUOUS
10
4.786
20
-3.50125
11
4.79087
21
-3.50202
0
LINE
8
BLACK
6
CONTINUOUS
10
5.15587
20
-3.48502
11
5.16026
21
-3.48726
0
LINE
8
BLACK
6
CONTINUOUS
10
5.16026
20
-3.48726
11
5.16374
21
-3.49074
0
LINE
8
BLACK
6
CONTINUOUS
10
5.16374
20
-3.49074
11
5.16598
21
-3.49513
0
LINE
8
BLACK
6
CONTINUOUS
10
5.16598
20
-3.49513
11
5.16675
21
-3.5
0
LINE
8
BLACK
6
CONTINUOUS
10
5.16675
20
-3.5
11
5.16598
21
-3.50487
0
LINE
8
BLACK
6
CONTINUOUS
10
5.16598
20
-3.50487
11
5.16374
21
-3.50926
0
LINE
8
BLACK
6
CONTINUOUS
10
5.16374
20
-3.50926
11
5.16026
21
-3.51274
0
LINE
8
BLACK
6
CONTINUOUS
10
5.16026
20
-3.51274
11
5.15587
21
-3.51498
0
LINE
8
BLACK
6
CONTINUOUS
10
5.15587
20
-3.51498
11
5.151
21
-3.51575
0
LINE
8
BLACK
6
CONTINUOUS
10
5.151
20
-3.51575
11
5.14613
21
-3.51498
0
LINE
8
BLACK
6
CONTINUOUS
10
5.14613
20
-3.51498
11
5.14174
21
-3.51274
0
LINE
8
BLACK
6
CONTINUOUS
10
5.14174
20
-3.51274
11
5.13826
21
-3.50926
0
LINE
8
BLACK
6
CONTINUOUS
10
5.13826
20
-3.50926
11
5.13602
21
-3.50487
0
LINE
8
BLACK
6
CONTINUOUS
10
5.13602
20
-3.50487
11
5.13525
21
-3.5
0
LINE
8
BLACK
6
CONTINUOUS
10
5.13525
20
-3.5
11
5.13602
21
-3.49513
0
LINE
8
BLACK
6
CONTINUOUS
10
5.13602
20
-3.49513
11
5.13826
21
-3.49074
0
LINE
8
BLACK
6
CONTINUOUS
10
5.13826
20
-3.49074
11
5.14174
21
-3.48726
0
LINE
8
BLACK
6
CONTINUOUS
10
5.14174
20
-3.48726
11
5.14613
21
-3.48502
0
LINE
8
BLACK
6
CONTINUOUS
10
5.14613
20
-3.48502
11
5.151
21
-3.48425
0
LINE
8
BLACK
6
CONTINUOUS
10
5.151
20
-3.48425
11
5.15587
21
-3.48502
0
LINE
8
BLACK
6
CONTINUOUS
10
6.57487
20
-3.48002
11
6.57926
21
-3.48226
0
LINE
8
BLACK
6
CONTINUOUS
10
6.57926
20
-3.48226
11
6.58274
21
-3.48574
0
LINE
8
BLACK
6
CONTINUOUS
10
6.58274
20
-3.48574
11
6.58498
21
-3.49013
0
LINE
8
BLACK
6
CONTINUOUS
10
6.58498
20
-3.49013
11
6.58575
21
-3.495
0
LINE
8
BLACK
6
CONTINUOUS
10
6.58575
20
-3.495
11
6.58498
21
-3.49987
0
LINE
8
BLACK
6
CONTINUOUS
10
6.58498
20
-3.49987
11
6.58274
21
-3.50426
0
LINE
8
BLACK
6
CONTINUOUS
10
6.58274
20
-3.50426
11
6.57926
21
-3.50774
0
LINE
8
BLACK
6
CONTINUOUS
10
6.57926
20
-3.50774
11
6.57487
21
-3.50998
0
LINE
8
BLACK
6
CONTINUOUS
10
6.57487
20
-3.50998
11
6.57
21
-3.51075
0
LINE
8
BLACK
6
CONTINUOUS
10
6.57
20
-3.51075
11
6.56513
21
-3.50998
0
LINE
8
BLACK
6
CONTINUOUS
10
6.56513
20
-3.50998
11
6.56074
21
-3.50774
0
LINE
8
BLACK
6
CONTINUOUS
10
6.56074
20
-3.50774
11
6.55726
21
-3.50426
0
LINE
8
BLACK
6
CONTINUOUS
10
6.55726
20
-3.50426
11
6.55502
21
-3.49987
0
LINE
8
BLACK
6
CONTINUOUS
10
6.55502
20
-3.49987
11
6.55425
21
-3.495
0
LINE
8
BLACK
6
CONTINUOUS
10
6.55425
20
-3.495
11
6.55502
21
-3.49013
0
LINE
8
BLACK
6
CONTINUOUS
10
6.55502
20
-3.49013
11
6.55726
21
-3.48574
0
LINE
8
BLACK
6
CONTINUOUS
10
6.55726
20
-3.48574
11
6.56074
21
-3.48226
0
LINE
8
BLACK
6
CONTINUOUS
10
6.56074
20
-3.48226
11
6.56513
21
-3.48002
0
LINE
8
BLACK
6
CONTINUOUS
10
6.56513
20
-3.48002
11
6.57
21
-3.47925
0
LINE
8
BLACK
6
CONTINUOUS
10
6.57
20
-3.47925
11
6.57487
21
-3.48002
0
LINE
8
BLACK
6
CONTINUOUS
10
5.89728
20
-2.97122
11
5.90053
21
-2.97339
0
LINE
8
BLACK
6
CONTINUOUS
10
5.90053
20
-2.97339
11
6.02607
21
-3.09893
0
LINE
8
BLACK
6
CONTINUOUS
10
6.02607
20
-3.09893
11
6.02824
21
-3.10217
0
LINE
8
BLACK
6
CONTINUOUS
10
6.02824
20
-3.10217
11
6.02874
21
-3.10467
0
LINE
8
BLACK
6
CONTINUOUS
10
6.02874
20
-3.10467
11
6.029
21
-3.106
0
LINE
8
BLACK
6
CONTINUOUS
10
6.029
20
-3.106
11
6.029
21
-3.39786
0
LINE
8
BLACK
6
CONTINUOUS
10
6.029
20
-3.39786
11
6.10361
21
-3.47247
0
LINE
8
BLACK
6
CONTINUOUS
10
6.10361
20
-3.47247
11
6.105
21
-3.47225
0
LINE
8
BLACK
6
CONTINUOUS
10
6.105
20
-3.47225
11
6.10987
21
-3.47302
0
LINE
8
BLACK
6
CONTINUOUS
10
6.10987
20
-3.47302
11
6.11426
21
-3.47526
0
LINE
8
BLACK
6
CONTINUOUS
10
6.11426
20
-3.47526
11
6.11774
21
-3.47874
0
LINE
8
BLACK
6
CONTINUOUS
10
6.11774
20
-3.47874
11
6.11998
21
-3.48313
0
LINE
8
BLACK
6
CONTINUOUS
10
6.11998
20
-3.48313
11
6.12075
21
-3.488
0
LINE
8
BLACK
6
CONTINUOUS
10
6.12075
20
-3.488
11
6.11998
21
-3.49287
0
LINE
8
BLACK
6
CONTINUOUS
10
6.11998
20
-3.49287
11
6.11774
21
-3.49726
0
LINE
8
BLACK
6
CONTINUOUS
10
6.11774
20
-3.49726
11
6.11426
21
-3.50074
0
LINE
8
BLACK
6
CONTINUOUS
10
6.11426
20
-3.50074
11
6.10987
21
-3.50298
0
LINE
8
BLACK
6
CONTINUOUS
10
6.10987
20
-3.50298
11
6.105
21
-3.50375
0
LINE
8
BLACK
6
CONTINUOUS
10
6.105
20
-3.50375
11
6.10013
21
-3.50298
0
LINE
8
BLACK
6
CONTINUOUS
10
6.10013
20
-3.50298
11
6.09574
21
-3.50074
0
LINE
8
BLACK
6
CONTINUOUS
10
6.09574
20
-3.50074
11
6.09226
21
-3.49726
0
LINE
8
BLACK
6
CONTINUOUS
10
6.09226
20
-3.49726
11
6.09002
21
-3.49287
0
LINE
8
BLACK
6
CONTINUOUS
10
6.09002
20
-3.49287
11
6.08925
21
-3.488
0
LINE
8
BLACK
6
CONTINUOUS
10
6.08925
20
-3.488
11
6.08947
21
-3.48661
0
LINE
8
BLACK
6
CONTINUOUS
10
6.08947
20
-3.48661
11
6.01193
21
-3.40907
0
LINE
8
BLACK
6
CONTINUOUS
10
6.01193
20
-3.40907
11
6.01036
21
-3.40672
0
LINE
8
BLACK
6
CONTINUOUS
10
6.01036
20
-3.40672
11
6.00976
21
-3.40583
0
LINE
8
BLACK
6
CONTINUOUS
10
6.00976
20
-3.40583
11
6.009
21
-3.402
0
LINE
8
BLACK
6
CONTINUOUS
10
6.009
20
-3.402
11
6.009
21
-3.11014
0
LINE
8
BLACK
6
CONTINUOUS
10
6.009
20
-3.11014
11
5.88931
21
-2.99046
0
LINE
8
BLACK
6
CONTINUOUS
10
5.88931
20
-2.99046
11
5.34654
21
-2.99046
0
LINE
8
BLACK
6
CONTINUOUS
10
5.34654
20
-2.99046
11
5.297
21
-3.04
0
LINE
8
BLACK
6
CONTINUOUS
10
5.297
20
-3.04
11
5.297
21
-3.07486
0
LINE
8
BLACK
6
CONTINUOUS
10
5.297
20
-3.07486
11
5.33268
21
-3.11054
0
LINE
8
BLACK
6
CONTINUOUS
10
5.33268
20
-3.11054
11
5.33268
21
-3.09646
0
LINE
8
BLACK
6
CONTINUOUS
10
5.33268
20
-3.09646
11
5.39961
21
-3.09646
0
LINE
8
BLACK
6
CONTINUOUS
10
5.39961
20
-3.09646
11
5.39961
21
-3.16339
0
LINE
8
BLACK
6
CONTINUOUS
10
5.39961
20
-3.16339
11
5.33268
21
-3.16339
0
LINE
8
BLACK
6
CONTINUOUS
10
5.33268
20
-3.16339
11
5.33268
21
-3.13821
0
LINE
8
BLACK
6
CONTINUOUS
10
5.33268
20
-3.13821
11
5.33085
21
-3.13699
0
LINE
8
BLACK
6
CONTINUOUS
10
5.33085
20
-3.13699
11
5.27993
21
-3.08607
0
LINE
8
BLACK
6
CONTINUOUS
10
5.27993
20
-3.08607
11
5.27904
21
-3.08475
0
LINE
8
BLACK
6
CONTINUOUS
10
5.27904
20
-3.08475
11
5.27776
21
-3.08283
0
LINE
8
BLACK
6
CONTINUOUS
10
5.27776
20
-3.08283
11
5.277
21
-3.079
0
LINE
8
BLACK
6
CONTINUOUS
10
5.277
20
-3.079
11
5.277
21
-3.03586
0
LINE
8
BLACK
6
CONTINUOUS
10
5.277
20
-3.03586
11
5.27776
21
-3.03203
0
LINE
8
BLACK
6
CONTINUOUS
10
5.27776
20
-3.03203
11
5.27993
21
-3.02878
0
LINE
8
BLACK
6
CONTINUOUS
10
5.27993
20
-3.02878
11
5.33533
21
-2.97339
0
LINE
8
BLACK
6
CONTINUOUS
10
5.33533
20
-2.97339
11
5.33857
21
-2.97122
0
LINE
8
BLACK
6
CONTINUOUS
10
5.33857
20
-2.97122
11
5.3424
21
-2.97046
0
LINE
8
BLACK
6
CONTINUOUS
10
5.3424
20
-2.97046
11
5.89346
21
-2.97046
0
LINE
8
BLACK
6
CONTINUOUS
10
5.89346
20
-2.97046
11
5.89728
21
-2.97122
0
LINE
8
BLACK
6
CONTINUOUS
10
5.37648
20
-2.89809
11
5.38287
21
-2.90094
0
LINE
8
BLACK
6
CONTINUOUS
10
5.38287
20
-2.90094
11
5.38853
21
-2.90505
0
LINE
8
BLACK
6
CONTINUOUS
10
5.38853
20
-2.90505
11
5.39322
21
-2.91025
0
LINE
8
BLACK
6
CONTINUOUS
10
5.39322
20
-2.91025
11
5.39671
21
-2.91631
0
LINE
8
BLACK
6
CONTINUOUS
10
5.39671
20
-2.91631
11
5.39789
21
-2.91992
0
LINE
8
BLACK
6
CONTINUOUS
10
5.39789
20
-2.91992
11
5.89092
21
-2.91992
0
LINE
8
BLACK
6
CONTINUOUS
10
5.89092
20
-2.91992
11
5.89475
21
-2.92068
0
LINE
8
BLACK
6
CONTINUOUS
10
5.89475
20
-2.92068
11
5.89799
21
-2.92285
0
LINE
8
BLACK
6
CONTINUOUS
10
5.89799
20
-2.92285
11
6.05907
21
-3.08393
0
LINE
8
BLACK
6
CONTINUOUS
10
6.05907
20
-3.08393
11
6.06124
21
-3.08717
0
LINE
8
BLACK
6
CONTINUOUS
10
6.06124
20
-3.08717
11
6.062
21
-3.091
0
LINE
8
BLACK
6
CONTINUOUS
10
6.062
20
-3.091
11
6.062
21
-3.37986
0
LINE
8
BLACK
6
CONTINUOUS
10
6.062
20
-3.37986
11
6.14661
21
-3.46447
0
LINE
8
BLACK
6
CONTINUOUS
10
6.14661
20
-3.46447
11
6.148
21
-3.46425
0
LINE
8
BLACK
6
CONTINUOUS
10
6.148
20
-3.46425
11
6.15287
21
-3.46502
0
LINE
8
BLACK
6
CONTINUOUS
10
6.15287
20
-3.46502
11
6.15726
21
-3.46726
0
LINE
8
BLACK
6
CONTINUOUS
10
6.15726
20
-3.46726
11
6.16074
21
-3.47074
0
LINE
8
BLACK
6
CONTINUOUS
10
6.16074
20
-3.47074
11
6.16298
21
-3.47513
0
LINE
8
BLACK
6
CONTINUOUS
10
6.16298
20
-3.47513
11
6.16375
21
-3.48
0
LINE
8
BLACK
6
CONTINUOUS
10
6.16375
20
-3.48
11
6.16298
21
-3.48487
0
LINE
8
BLACK
6
CONTINUOUS
10
6.16298
20
-3.48487
11
6.16074
21
-3.48926
0
LINE
8
BLACK
6
CONTINUOUS
10
6.16074
20
-3.48926
11
6.15726
21
-3.49274
0
LINE
8
BLACK
6
CONTINUOUS
10
6.15726
20
-3.49274
11
6.15287
21
-3.49498
0
LINE
8
BLACK
6
CONTINUOUS
10
6.15287
20
-3.49498
11
6.148
21
-3.49575
0
LINE
8
BLACK
6
CONTINUOUS
10
6.148
20
-3.49575
11
6.14313
21
-3.49498
0
LINE
8
BLACK
6
CONTINUOUS
10
6.14313
20
-3.49498
11
6.13874
21
-3.49274
0
LINE
8
BLACK
6
CONTINUOUS
10
6.13874
20
-3.49274
11
6.13526
21
-3.48926
0
LINE
8
BLACK
6
CONTINUOUS
10
6.13526
20
-3.48926
11
6.13302
21
-3.48487
0
LINE
8
BLACK
6
CONTINUOUS
10
6.13302
20
-3.48487
11
6.13225
21
-3.48
0
LINE
8
BLACK
6
CONTINUOUS
10
6.13225
20
-3.48
11
6.13247
21
-3.47861
0
LINE
8
BLACK
6
CONTINUOUS
10
6.13247
20
-3.47861
11
6.04493
21
-3.39107
0
LINE
8
BLACK
6
CONTINUOUS
10
6.04493
20
-3.39107
11
6.04276
21
-3.38783
0
LINE
8
BLACK
6
CONTINUOUS
10
6.04276
20
-3.38783
11
6.042
21
-3.384
0
LINE
8
BLACK
6
CONTINUOUS
10
6.042
20
-3.384
11
6.042
21
-3.09514
0
LINE
8
BLACK
6
CONTINUOUS
10
6.042
20
-3.09514
11
5.88678
21
-2.93992
0
LINE
8
BLACK
6
CONTINUOUS
10
5.88678
20
-2.93992
11
5.39789
21
-2.93992
0
LINE
8
BLACK
6
CONTINUOUS
10
5.39789
20
-2.93992
11
5.39671
21
-2.94353
0
LINE
8
BLACK
6
CONTINUOUS
10
5.39671
20
-2.94353
11
5.39322
21
-2.94959
0
LINE
8
BLACK
6
CONTINUOUS
10
5.39322
20
-2.94959
11
5.38853
21
-2.95479
0
LINE
8
BLACK
6
CONTINUOUS
10
5.38853
20
-2.95479
11
5.38287
21
-2.9589
0
LINE
8
BLACK
6
CONTINUOUS
10
5.38287
20
-2.9589
11
5.37648
21
-2.96175
0
LINE
8
BLACK
6
CONTINUOUS
10
5.37648
20
-2.96175
11
5.36964
21
-2.9632
0
LINE
8
BLACK
6
CONTINUOUS
10
5.36964
20
-2.9632
11
5.36264
21
-2.9632
0
LINE
8
BLACK
6
CONTINUOUS
10
5.36264
20
-2.9632
11
5.3558
21
-2.96175
0
LINE
8
BLACK
6
CONTINUOUS
10
5.3558
20
-2.96175
11
5.34941
21
-2.9589
0
LINE
8
BLACK
6
CONTINUOUS
10
5.34941
20
-2.9589
11
5.34375
21
-2.95479
0
LINE
8
BLACK
6
CONTINUOUS
10
5.34375
20
-2.95479
11
5.33907
21
-2.94959
0
LINE
8
BLACK
6
CONTINUOUS
10
5.33907
20
-2.94959
11
5.33557
21
-2.94353
0
LINE
8
BLACK
6
CONTINUOUS
10
5.33557
20
-2.94353
11
5.33341
21
-2.93688
0
LINE
8
BLACK
6
CONTINUOUS
10
5.33341
20
-2.93688
11
5.33268
21
-2.92992
0
LINE
8
BLACK
6
CONTINUOUS
10
5.33268
20
-2.92992
11
5.33341
21
-2.92296
0
LINE
8
BLACK
6
CONTINUOUS
10
5.33341
20
-2.92296
11
5.33557
21
-2.91631
0
LINE
8
BLACK
6
CONTINUOUS
10
5.33557
20
-2.91631
11
5.33907
21
-2.91025
0
LINE
8
BLACK
6
CONTINUOUS
10
5.33907
20
-2.91025
11
5.34375
21
-2.90505
0
LINE
8
BLACK
6
CONTINUOUS
10
5.34375
20
-2.90505
11
5.34941
21
-2.90094
0
LINE
8
BLACK
6
CONTINUOUS
10
5.34941
20
-2.90094
11
5.3558
21
-2.89809
0
LINE
8
BLACK
6
CONTINUOUS
10
5.3558
20
-2.89809
11
5.36264
21
-2.89664
0
LINE
8
BLACK
6
CONTINUOUS
10
5.36264
20
-2.89664
11
5.36964
21
-2.89664
0
LINE
8
BLACK
6
CONTINUOUS
10
5.36964
20
-2.89664
11
5.37648
21
-2.89809
0
LINE
8
BLACK
6
CONTINUOUS
10
6.79187
20
-3.45502
11
6.79626
21
-3.45726
0
LINE
8
BLACK
6
CONTINUOUS
10
6.79626
20
-3.45726
11
6.79974
21
-3.46074
0
LINE
8
BLACK
6
CONTINUOUS
10
6.79974
20
-3.46074
11
6.80198
21
-3.46513
0
LINE
8
BLACK
6
CONTINUOUS
10
6.80198
20
-3.46513
11
6.80275
21
-3.47
0
LINE
8
BLACK
6
CONTINUOUS
10
6.80275
20
-3.47
11
6.80198
21
-3.47487
0
LINE
8
BLACK
6
CONTINUOUS
10
6.80198
20
-3.47487
11
6.79974
21
-3.47926
0
LINE
8
BLACK
6
CONTINUOUS
10
6.79974
20
-3.47926
11
6.79626
21
-3.48274
0
LINE
8
BLACK
6
CONTINUOUS
10
6.79626
20
-3.48274
11
6.79187
21
-3.48498
0
LINE
8
BLACK
6
CONTINUOUS
10
6.79187
20
-3.48498
11
6.787
21
-3.48575
0
LINE
8
BLACK
6
CONTINUOUS
10
6.787
20
-3.48575
11
6.78213
21
-3.48498
0
LINE
8
BLACK
6
CONTINUOUS
10
6.78213
20
-3.48498
11
6.77774
21
-3.48274
0
LINE
8
BLACK
6
CONTINUOUS
10
6.77774
20
-3.48274
11
6.77426
21
-3.47926
0
LINE
8
BLACK
6
CONTINUOUS
10
6.77426
20
-3.47926
11
6.77202
21
-3.47487
0
LINE
8
BLACK
6
CONTINUOUS
10
6.77202
20
-3.47487
11
6.77125
21
-3.47
0
LINE
8
BLACK
6
CONTINUOUS
10
6.77125
20
-3.47
11
6.77202
21
-3.46513
0
LINE
8
BLACK
6
CONTINUOUS
10
6.77202
20
-3.46513
11
6.77426
21
-3.46074
0
LINE
8
BLACK
6
CONTINUOUS
10
6.77426
20
-3.46074
11
6.77774
21
-3.45726
0
LINE
8
BLACK
6
CONTINUOUS
10
6.77774
20
-3.45726
11
6.78213
21
-3.45502
0
LINE
8
BLACK
6
CONTINUOUS
10
6.78213
20
-3.45502
11
6.787
21
-3.45425
0
LINE
8
BLACK
6
CONTINUOUS
10
6.787
20
-3.45425
11
6.79187
21
-3.45502
0
LINE
8
BLACK
6
CONTINUOUS
10
5.56034
20
-3.40817
11
5.56673
21
-3.41102
0
LINE
8
BLACK
6
CONTINUOUS
10
5.56673
20
-3.41102
11
5.57239
21
-3.41513
0
LINE
8
BLACK
6
CONTINUOUS
10
5.57239
20
-3.41513
11
5.57707
21
-3.42033
0
LINE
8
BLACK
6
CONTINUOUS
10
5.57707
20
-3.42033
11
5.57919
21
-3.424
0
LINE
8
BLACK
6
CONTINUOUS
10
5.57919
20
-3.424
11
5.975
21
-3.424
0
LINE
8
BLACK
6
CONTINUOUS
10
5.975
20
-3.424
11
5.97774
21
-3.42126
0
LINE
8
BLACK
6
CONTINUOUS
10
5.97774
20
-3.42126
11
5.98213
21
-3.41902
0
LINE
8
BLACK
6
CONTINUOUS
10
5.98213
20
-3.41902
11
5.987
21
-3.41825
0
LINE
8
BLACK
6
CONTINUOUS
10
5.987
20
-3.41825
11
5.99187
21
-3.41902
0
LINE
8
BLACK
6
CONTINUOUS
10
5.99187
20
-3.41902
11
5.99626
21
-3.42126
0
LINE
8
BLACK
6
CONTINUOUS
10
5.99626
20
-3.42126
11
5.99974
21
-3.42474
0
LINE
8
BLACK
6
CONTINUOUS
10
5.99974
20
-3.42474
11
6.00198
21
-3.42913
0
LINE
8
BLACK
6
CONTINUOUS
10
6.00198
20
-3.42913
11
6.00275
21
-3.434
0
LINE
8
BLACK
6
CONTINUOUS
10
6.00275
20
-3.434
11
6.00198
21
-3.43887
0
LINE
8
BLACK
6
CONTINUOUS
10
6.00198
20
-3.43887
11
5.99974
21
-3.44326
0
LINE
8
BLACK
6
CONTINUOUS
10
5.99974
20
-3.44326
11
5.99626
21
-3.44674
0
LINE
8
BLACK
6
CONTINUOUS
10
5.99626
20
-3.44674
11
5.99187
21
-3.44898
0
LINE
8
BLACK
6
CONTINUOUS
10
5.99187
20
-3.44898
11
5.987
21
-3.44975
0
LINE
8
BLACK
6
CONTINUOUS
10
5.987
20
-3.44975
11
5.98213
21
-3.44898
0
LINE
8
BLACK
6
CONTINUOUS
10
5.98213
20
-3.44898
11
5.97774
21
-3.44674
0
LINE
8
BLACK
6
CONTINUOUS
10
5.97774
20
-3.44674
11
5.975
21
-3.444
0
LINE
8
BLACK
6
CONTINUOUS
10
5.975
20
-3.444
11
5.58304
21
-3.444
0
LINE
8
BLACK
6
CONTINUOUS
10
5.58304
20
-3.444
11
5.58273
21
-3.44696
0
LINE
8
BLACK
6
CONTINUOUS
10
5.58273
20
-3.44696
11
5.58057
21
-3.45361
0
LINE
8
BLACK
6
CONTINUOUS
10
5.58057
20
-3.45361
11
5.57707
21
-3.45967
0
LINE
8
BLACK
6
CONTINUOUS
10
5.57707
20
-3.45967
11
5.57239
21
-3.46487
0
LINE
8
BLACK
6
CONTINUOUS
10
5.57239
20
-3.46487
11
5.56673
21
-3.46898
0
LINE
8
BLACK
6
CONTINUOUS
10
5.56673
20
-3.46898
11
5.56034
21
-3.47183
0
LINE
8
BLACK
6
CONTINUOUS
10
5.56034
20
-3.47183
11
5.5535
21
-3.47328
0
LINE
8
BLACK
6
CONTINUOUS
10
5.5535
20
-3.47328
11
5.5465
21
-3.47328
0
LINE
8
BLACK
6
CONTINUOUS
10
5.5465
20
-3.47328
11
5.53966
21
-3.47183
0
LINE
8
BLACK
6
CONTINUOUS
10
5.53966
20
-3.47183
11
5.53327
21
-3.46898
0
LINE
8
BLACK
6
CONTINUOUS
10
5.53327
20
-3.46898
11
5.52761
21
-3.46487
0
LINE
8
BLACK
6
CONTINUOUS
10
5.52761
20
-3.46487
11
5.52293
21
-3.45967
0
LINE
8
BLACK
6
CONTINUOUS
10
5.52293
20
-3.45967
11
5.51943
21
-3.45361
0
LINE
8
BLACK
6
CONTINUOUS
10
5.51943
20
-3.45361
11
5.51727
21
-3.44696
0
LINE
8
BLACK
6
CONTINUOUS
10
5.51727
20
-3.44696
11
5.51654
21
-3.44
0
LINE
8
BLACK
6
CONTINUOUS
10
5.51654
20
-3.44
11
5.51727
21
-3.43304
0
LINE
8
BLACK
6
CONTINUOUS
10
5.51727
20
-3.43304
11
5.51943
21
-3.42639
0
LINE
8
BLACK
6
CONTINUOUS
10
5.51943
20
-3.42639
11
5.52293
21
-3.42033
0
LINE
8
BLACK
6
CONTINUOUS
10
5.52293
20
-3.42033
11
5.52761
21
-3.41513
0
LINE
8
BLACK
6
CONTINUOUS
10
5.52761
20
-3.41513
11
5.53327
21
-3.41102
0
LINE
8
BLACK
6
CONTINUOUS
10
5.53327
20
-3.41102
11
5.53966
21
-3.40817
0
LINE
8
BLACK
6
CONTINUOUS
10
5.53966
20
-3.40817
11
5.5465
21
-3.40672
0
LINE
8
BLACK
6
CONTINUOUS
10
5.5465
20
-3.40672
11
5.5535
21
-3.40672
0
LINE
8
BLACK
6
CONTINUOUS
10
5.5535
20
-3.40672
11
5.56034
21
-3.40817
0
LINE
8
BLACK
6
CONTINUOUS
10
5.37648
20
-2.79809
11
5.38287
21
-2.80094
0
LINE
8
BLACK
6
CONTINUOUS
10
5.38287
20
-2.80094
11
5.38853
21
-2.80505
0
LINE
8
BLACK
6
CONTINUOUS
10
5.38853
20
-2.80505
11
5.39322
21
-2.81025
0
LINE
8
BLACK
6
CONTINUOUS
10
5.39322
20
-2.81025
11
5.39671
21
-2.81631
0
LINE
8
BLACK
6
CONTINUOUS
10
5.39671
20
-2.81631
11
5.39789
21
-2.81992
0
LINE
8
BLACK
6
CONTINUOUS
10
5.39789
20
-2.81992
11
5.86192
21
-2.81992
0
LINE
8
BLACK
6
CONTINUOUS
10
5.86192
20
-2.81992
11
5.86575
21
-2.82068
0
LINE
8
BLACK
6
CONTINUOUS
10
5.86575
20
-2.82068
11
5.86899
21
-2.82285
0
LINE
8
BLACK
6
CONTINUOUS
10
5.86899
20
-2.82285
11
6.18407
21
-3.13793
0
LINE
8
BLACK
6
CONTINUOUS
10
6.18407
20
-3.13793
11
6.18624
21
-3.14117
0
LINE
8
BLACK
6
CONTINUOUS
10
6.18624
20
-3.14117
11
6.187
21
-3.145
0
LINE
8
BLACK
6
CONTINUOUS
10
6.187
20
-3.145
11
6.187
21
-3.435
0
LINE
8
BLACK
6
CONTINUOUS
10
6.187
20
-3.435
11
6.18974
21
-3.43774
0
LINE
8
BLACK
6
CONTINUOUS
10
6.18974
20
-3.43774
11
6.19198
21
-3.44213
0
LINE
8
BLACK
6
CONTINUOUS
10
6.19198
20
-3.44213
11
6.19275
21
-3.447
0
LINE
8
BLACK
6
CONTINUOUS
10
6.19275
20
-3.447
11
6.19198
21
-3.45187
0
LINE
8
BLACK
6
CONTINUOUS
10
6.19198
20
-3.45187
11
6.18974
21
-3.45626
0
LINE
8
BLACK
6
CONTINUOUS
10
6.18974
20
-3.45626
11
6.18626
21
-3.45974
0
LINE
8
BLACK
6
CONTINUOUS
10
6.18626
20
-3.45974
11
6.18187
21
-3.46198
0
LINE
8
BLACK
6
CONTINUOUS
10
6.18187
20
-3.46198
11
6.177
21
-3.46275
0
LINE
8
BLACK
6
CONTINUOUS
10
6.177
20
-3.46275
11
6.17213
21
-3.46198
0
LINE
8
BLACK
6
CONTINUOUS
10
6.17213
20
-3.46198
11
6.16774
21
-3.45974
0
LINE
8
BLACK
6
CONTINUOUS
10
6.16774
20
-3.45974
11
6.16426
21
-3.45626
0
LINE
8
BLACK
6
CONTINUOUS
10
6.16426
20
-3.45626
11
6.16202
21
-3.45187
0
LINE
8
BLACK
6
CONTINUOUS
10
6.16202
20
-3.45187
11
6.16125
21
-3.447
0
LINE
8
BLACK
6
CONTINUOUS
10
6.16125
20
-3.447
11
6.16202
21
-3.44213
0
LINE
8
BLACK
6
CONTINUOUS
10
6.16202
20
-3.44213
11
6.16426
21
-3.43774
0
LINE
8
BLACK
6
CONTINUOUS
10
6.16426
20
-3.43774
11
6.167
21
-3.435
0
LINE
8
BLACK
6
CONTINUOUS
10
6.167
20
-3.435
11
6.167
21
-3.14914
0
LINE
8
BLACK
6
CONTINUOUS
10
6.167
20
-3.14914
11
5.85778
21
-2.83992
0
LINE
8
BLACK
6
CONTINUOUS
10
5.85778
20
-2.83992
11
5.39789
21
-2.83992
0
LINE
8
BLACK
6
CONTINUOUS
10
5.39789
20
-2.83992
11
5.39671
21
-2.84353
0
LINE
8
BLACK
6
CONTINUOUS
10
5.39671
20
-2.84353
11
5.39322
21
-2.84959
0
LINE
8
BLACK
6
CONTINUOUS
10
5.39322
20
-2.84959
11
5.38853
21
-2.85479
0
LINE
8
BLACK
6
CONTINUOUS
10
5.38853
20
-2.85479
11
5.38287
21
-2.8589
0
LINE
8
BLACK
6
CONTINUOUS
10
5.38287
20
-2.8589
11
5.37648
21
-2.86175
0
LINE
8
BLACK
6
CONTINUOUS
10
5.37648
20
-2.86175
11
5.36964
21
-2.8632
0
LINE
8
BLACK
6
CONTINUOUS
10
5.36964
20
-2.8632
11
5.36264
21
-2.8632
0
LINE
8
BLACK
6
CONTINUOUS
10
5.36264
20
-2.8632
11
5.3558
21
-2.86175
0
LINE
8
BLACK
6
CONTINUOUS
10
5.3558
20
-2.86175
11
5.34941
21
-2.8589
0
LINE
8
BLACK
6
CONTINUOUS
10
5.34941
20
-2.8589
11
5.34375
21
-2.85479
0
LINE
8
BLACK
6
CONTINUOUS
10
5.34375
20
-2.85479
11
5.33907
21
-2.84959
0
LINE
8
BLACK
6
CONTINUOUS
10
5.33907
20
-2.84959
11
5.33557
21
-2.84353
0
LINE
8
BLACK
6
CONTINUOUS
10
5.33557
20
-2.84353
11
5.33341
21
-2.83688
0
LINE
8
BLACK
6
CONTINUOUS
10
5.33341
20
-2.83688
11
5.33268
21
-2.82992
0
LINE
8
BLACK
6
CONTINUOUS
10
5.33268
20
-2.82992
11
5.33341
21
-2.82296
0
LINE
8
BLACK
6
CONTINUOUS
10
5.33341
20
-2.82296
11
5.33557
21
-2.81631
0
LINE
8
BLACK
6
CONTINUOUS
10
5.33557
20
-2.81631
11
5.33907
21
-2.81025
0
LINE
8
BLACK
6
CONTINUOUS
10
5.33907
20
-2.81025
11
5.34375
21
-2.80505
0
LINE
8
BLACK
6
CONTINUOUS
10
5.34375
20
-2.80505
11
5.34941
21
-2.80094
0
LINE
8
BLACK
6
CONTINUOUS
10
5.34941
20
-2.80094
11
5.3558
21
-2.79809
0
LINE
8
BLACK
6
CONTINUOUS
10
5.3558
20
-2.79809
11
5.36264
21
-2.79664
0
LINE
8
BLACK
6
CONTINUOUS
10
5.36264
20
-2.79664
11
5.36964
21
-2.79664
0
LINE
8
BLACK
6
CONTINUOUS
10
5.36964
20
-2.79664
11
5.37648
21
-2.79809
0
LINE
8
BLACK
6
CONTINUOUS
10
6.32587
20
-3.38002
11
6.33026
21
-3.38226
0
LINE
8
BLACK
6
CONTINUOUS
10
6.33026
20
-3.38226
11
6.33374
21
-3.38574
0
LINE
8
BLACK
6
CONTINUOUS
10
6.33374
20
-3.38574
11
6.33598
21
-3.39013
0
LINE
8
BLACK
6
CONTINUOUS
10
6.33598
20
-3.39013
11
6.33675
21
-3.395
0
LINE
8
BLACK
6
CONTINUOUS
10
6.33675
20
-3.395
11
6.33598
21
-3.39987
0
LINE
8
BLACK
6
CONTINUOUS
10
6.33598
20
-3.39987
11
6.33374
21
-3.40426
0
LINE
8
BLACK
6
CONTINUOUS
10
6.33374
20
-3.40426
11
6.33026
21
-3.40774
0
LINE
8
BLACK
6
CONTINUOUS
10
6.33026
20
-3.40774
11
6.32587
21
-3.40998
0
LINE
8
BLACK
6
CONTINUOUS
10
6.32587
20
-3.40998
11
6.321
21
-3.41075
0
LINE
8
BLACK
6
CONTINUOUS
10
6.321
20
-3.41075
11
6.31613
21
-3.40998
0
LINE
8
BLACK
6
CONTINUOUS
10
6.31613
20
-3.40998
11
6.31174
21
-3.40774
0
LINE
8
BLACK
6
CONTINUOUS
10
6.31174
20
-3.40774
11
6.30826
21
-3.40426
0
LINE
8
BLACK
6
CONTINUOUS
10
6.30826
20
-3.40426
11
6.30602
21
-3.39987
0
LINE
8
BLACK
6
CONTINUOUS
10
6.30602
20
-3.39987
11
6.30525
21
-3.395
0
LINE
8
BLACK
6
CONTINUOUS
10
6.30525
20
-3.395
11
6.30602
21
-3.39013
0
LINE
8
BLACK
6
CONTINUOUS
10
6.30602
20
-3.39013
11
6.30826
21
-3.38574
0
LINE
8
BLACK
6
CONTINUOUS
10
6.30826
20
-3.38574
11
6.31174
21
-3.38226
0
LINE
8
BLACK
6
CONTINUOUS
10
6.31174
20
-3.38226
11
6.31613
21
-3.38002
0
LINE
8
BLACK
6
CONTINUOUS
10
6.31613
20
-3.38002
11
6.321
21
-3.37925
0
LINE
8
BLACK
6
CONTINUOUS
10
6.321
20
-3.37925
11
6.32587
21
-3.38002
0
LINE
8
BLACK
6
CONTINUOUS
10
5.60192
20
-3.40499
11
5.59868
21
-3.40282
0
LINE
8
BLACK
6
CONTINUOUS
10
5.59868
20
-3.40282
11
5.56542
21
-3.36956
0
LINE
8
BLACK
6
CONTINUOUS
10
5.56542
20
-3.36956
11
5.56034
21
-3.37183
0
LINE
8
BLACK
6
CONTINUOUS
10
5.56034
20
-3.37183
11
5.5535
21
-3.37328
0
LINE
8
BLACK
6
CONTINUOUS
10
5.5535
20
-3.37328
11
5.5465
21
-3.37328
0
LINE
8
BLACK
6
CONTINUOUS
10
5.5465
20
-3.37328
11
5.53966
21
-3.37183
0
LINE
8
BLACK
6
CONTINUOUS
10
5.53966
20
-3.37183
11
5.53327
21
-3.36898
0
LINE
8
BLACK
6
CONTINUOUS
10
5.53327
20
-3.36898
11
5.52761
21
-3.36487
0
LINE
8
BLACK
6
CONTINUOUS
10
5.52761
20
-3.36487
11
5.52293
21
-3.35967
0
LINE
8
BLACK
6
CONTINUOUS
10
5.52293
20
-3.35967
11
5.51943
21
-3.35361
0
LINE
8
BLACK
6
CONTINUOUS
10
5.51943
20
-3.35361
11
5.51727
21
-3.34696
0
LINE
8
BLACK
6
CONTINUOUS
10
5.51727
20
-3.34696
11
5.51654
21
-3.34
0
LINE
8
BLACK
6
CONTINUOUS
10
5.51654
20
-3.34
11
5.51727
21
-3.33304
0
LINE
8
BLACK
6
CONTINUOUS
10
5.51727
20
-3.33304
11
5.51943
21
-3.32639
0
LINE
8
BLACK
6
CONTINUOUS
10
5.51943
20
-3.32639
11
5.52293
21
-3.32033
0
LINE
8
BLACK
6
CONTINUOUS
10
5.52293
20
-3.32033
11
5.52761
21
-3.31513
0
LINE
8
BLACK
6
CONTINUOUS
10
5.52761
20
-3.31513
11
5.53327
21
-3.31102
0
LINE
8
BLACK
6
CONTINUOUS
10
5.53327
20
-3.31102
11
5.53966
21
-3.30817
0
LINE
8
BLACK
6
CONTINUOUS
10
5.53966
20
-3.30817
11
5.5465
21
-3.30672
0
LINE
8
BLACK
6
CONTINUOUS
10
5.5465
20
-3.30672
11
5.5535
21
-3.30672
0
LINE
8
BLACK
6
CONTINUOUS
10
5.5535
20
-3.30672
11
5.56034
21
-3.30817
0
LINE
8
BLACK
6
CONTINUOUS
10
5.56034
20
-3.30817
11
5.56673
21
-3.31102
0
LINE
8
BLACK
6
CONTINUOUS
10
5.56673
20
-3.31102
11
5.57239
21
-3.31513
0
LINE
8
BLACK
6
CONTINUOUS
10
5.57239
20
-3.31513
11
5.57707
21
-3.32033
0
LINE
8
BLACK
6
CONTINUOUS
10
5.57707
20
-3.32033
11
5.58057
21
-3.32639
0
LINE
8
BLACK
6
CONTINUOUS
10
5.58057
20
-3.32639
11
5.58273
21
-3.33304
0
LINE
8
BLACK
6
CONTINUOUS
10
5.58273
20
-3.33304
11
5.58346
21
-3.34
0
LINE
8
BLACK
6
CONTINUOUS
10
5.58346
20
-3.34
11
5.58273
21
-3.34696
0
LINE
8
BLACK
6
CONTINUOUS
10
5.58273
20
-3.34696
11
5.58057
21
-3.35361
0
LINE
8
BLACK
6
CONTINUOUS
10
5.58057
20
-3.35361
11
5.57954
21
-3.3554
0
LINE
8
BLACK
6
CONTINUOUS
10
5.57954
20
-3.3554
11
5.60989
21
-3.38575
0
LINE
8
BLACK
6
CONTINUOUS
10
5.60989
20
-3.38575
11
5.95212
21
-3.38575
0
LINE
8
BLACK
6
CONTINUOUS
10
5.95212
20
-3.38575
11
5.95648
21
-3.38139
0
LINE
8
BLACK
6
CONTINUOUS
10
5.95648
20
-3.38139
11
5.95626
21
-3.38
0
LINE
8
BLACK
6
CONTINUOUS
10
5.95626
20
-3.38
11
5.95703
21
-3.37513
0
LINE
8
BLACK
6
CONTINUOUS
10
5.95703
20
-3.37513
11
5.95927
21
-3.37074
0
LINE
8
BLACK
6
CONTINUOUS
10
5.95927
20
-3.37074
11
5.96276
21
-3.36726
0
LINE
8
BLACK
6
CONTINUOUS
10
5.96276
20
-3.36726
11
5.96715
21
-3.36502
0
LINE
8
BLACK
6
CONTINUOUS
10
5.96715
20
-3.36502
11
5.97201
21
-3.36425
0
LINE
8
BLACK
6
CONTINUOUS
10
5.97201
20
-3.36425
11
5.97688
21
-3.36502
0
LINE
8
BLACK
6
CONTINUOUS
10
5.97688
20
-3.36502
11
5.98127
21
-3.36726
0
LINE
8
BLACK
6
CONTINUOUS
10
5.98127
20
-3.36726
11
5.98475
21
-3.37074
0
LINE
8
BLACK
6
CONTINUOUS
10
5.98475
20
-3.37074
11
5.98699
21
-3.37513
0
LINE
8
BLACK
6
CONTINUOUS
10
5.98699
20
-3.37513
11
5.98776
21
-3.38
0
LINE
8
BLACK
6
CONTINUOUS
10
5.98776
20
-3.38
11
5.98699
21
-3.38487
0
LINE
8
BLACK
6
CONTINUOUS
10
5.98699
20
-3.38487
11
5.98475
21
-3.38926
0
LINE
8
BLACK
6
CONTINUOUS
10
5.98475
20
-3.38926
11
5.98127
21
-3.39274
0
LINE
8
BLACK
6
CONTINUOUS
10
5.98127
20
-3.39274
11
5.97688
21
-3.39498
0
LINE
8
BLACK
6
CONTINUOUS
10
5.97688
20
-3.39498
11
5.97201
21
-3.39575
0
LINE
8
BLACK
6
CONTINUOUS
10
5.97201
20
-3.39575
11
5.97063
21
-3.39553
0
LINE
8
BLACK
6
CONTINUOUS
10
5.97063
20
-3.39553
11
5.96333
21
-3.40282
0
LINE
8
BLACK
6
CONTINUOUS
10
5.96333
20
-3.40282
11
5.96009
21
-3.40499
0
LINE
8
BLACK
6
CONTINUOUS
10
5.96009
20
-3.40499
11
5.95626
21
-3.40575
0
LINE
8
BLACK
6
CONTINUOUS
10
5.95626
20
-3.40575
11
5.60575
21
-3.40575
0
LINE
8
BLACK
6
CONTINUOUS
10
5.60575
20
-3.40575
11
5.60192
21
-3.40499
0
LINE
8
BLACK
6
CONTINUOUS
10
6.14291
20
-3.31053
11
6.14826
21
-3.31213
0
LINE
8
BLACK
6
CONTINUOUS
10
6.14826
20
-3.31213
11
6.15294
21
-3.31517
0
LINE
8
BLACK
6
CONTINUOUS
10
6.15294
20
-3.31517
11
6.15658
21
-3.31939
0
LINE
8
BLACK
6
CONTINUOUS
10
6.15658
20
-3.31939
11
6.15889
21
-3.32448
0
LINE
8
BLACK
6
CONTINUOUS
10
6.15889
20
-3.32448
11
6.15969
21
-3.33
0
LINE
8
BLACK
6
CONTINUOUS
10
6.15969
20
-3.33
11
6.15968
21
-3.33048
0
LINE
8
BLACK
6
CONTINUOUS
10
6.15968
20
-3.33048
11
6.15875
21
-3.33598
0
LINE
8
BLACK
6
CONTINUOUS
10
6.15875
20
-3.33598
11
6.15632
21
-3.34101
0
LINE
8
BLACK
6
CONTINUOUS
10
6.15632
20
-3.34101
11
6.15257
21
-3.34515
0
LINE
8
BLACK
6
CONTINUOUS
10
6.15257
20
-3.34515
11
6.14782
21
-3.34807
0
LINE
8
BLACK
6
CONTINUOUS
10
6.14782
20
-3.34807
11
6.1475
21
-3.34815
0
LINE
8
BLACK
6
CONTINUOUS
10
6.1475
20
-3.34815
11
6.1475
21
-3.36336
0
LINE
8
BLACK
6
CONTINUOUS
10
6.1475
20
-3.36336
11
6.14926
21
-3.36426
0
LINE
8
BLACK
6
CONTINUOUS
10
6.14926
20
-3.36426
11
6.15274
21
-3.36774
0
LINE
8
BLACK
6
CONTINUOUS
10
6.15274
20
-3.36774
11
6.15498
21
-3.37213
0
LINE
8
BLACK
6
CONTINUOUS
10
6.15498
20
-3.37213
11
6.15575
21
-3.377
0
LINE
8
BLACK
6
CONTINUOUS
10
6.15575
20
-3.377
11
6.15498
21
-3.38187
0
LINE
8
BLACK
6
CONTINUOUS
10
6.15498
20
-3.38187
11
6.15274
21
-3.38626
0
LINE
8
BLACK
6
CONTINUOUS
10
6.15274
20
-3.38626
11
6.14926
21
-3.38974
0
LINE
8
BLACK
6
CONTINUOUS
10
6.14926
20
-3.38974
11
6.14487
21
-3.39198
0
LINE
8
BLACK
6
CONTINUOUS
10
6.14487
20
-3.39198
11
6.14
21
-3.39275
0
LINE
8
BLACK
6
CONTINUOUS
10
6.14
20
-3.39275
11
6.13513
21
-3.39198
0
LINE
8
BLACK
6
CONTINUOUS
10
6.13513
20
-3.39198
11
6.13074
21
-3.38974
0
LINE
8
BLACK
6
CONTINUOUS
10
6.13074
20
-3.38974
11
6.12726
21
-3.38626
0
LINE
8
BLACK
6
CONTINUOUS
10
6.12726
20
-3.38626
11
6.12502
21
-3.38187
0
LINE
8
BLACK
6
CONTINUOUS
10
6.12502
20
-3.38187
11
6.12425
21
-3.377
0
LINE
8
BLACK
6
CONTINUOUS
10
6.12425
20
-3.377
11
6.12502
21
-3.37213
0
LINE
8
BLACK
6
CONTINUOUS
10
6.12502
20
-3.37213
11
6.12726
21
-3.36774
0
LINE
8
BLACK
6
CONTINUOUS
10
6.12726
20
-3.36774
11
6.13074
21
-3.36426
0
LINE
8
BLACK
6
CONTINUOUS
10
6.13074
20
-3.36426
11
6.1325
21
-3.36336
0
LINE
8
BLACK
6
CONTINUOUS
10
6.1325
20
-3.36336
11
6.1325
21
-3.34807
0
LINE
8
BLACK
6
CONTINUOUS
10
6.1325
20
-3.34807
11
6.13153
21
-3.34777
0
LINE
8
BLACK
6
CONTINUOUS
10
6.13153
20
-3.34777
11
6.12688
21
-3.34467
0
LINE
8
BLACK
6
CONTINUOUS
10
6.12688
20
-3.34467
11
6.12329
21
-3.3404
0
LINE
8
BLACK
6
CONTINUOUS
10
6.12329
20
-3.3404
11
6.12104
21
-3.33529
0
LINE
8
BLACK
6
CONTINUOUS
10
6.12104
20
-3.33529
11
6.12032
21
-3.32976
0
LINE
8
BLACK
6
CONTINUOUS
10
6.12032
20
-3.32976
11
6.12118
21
-3.32424
0
LINE
8
BLACK
6
CONTINUOUS
10
6.12118
20
-3.32424
11
6.12355
21
-3.31919
0
LINE
8
BLACK
6
CONTINUOUS
10
6.12355
20
-3.31919
11
6.12724
21
-3.31501
0
LINE
8
BLACK
6
CONTINUOUS
10
6.12724
20
-3.31501
11
6.13196
21
-3.31203
0
LINE
8
BLACK
6
CONTINUOUS
10
6.13196
20
-3.31203
11
6.13733
21
-3.3105
0
LINE
8
BLACK
6
CONTINUOUS
10
6.13733
20
-3.3105
11
6.14291
21
-3.31053
0
LINE
8
BLACK
6
CONTINUOUS
10
5.56034
20
-3.10817
11
5.56673
21
-3.11102
0
LINE
8
BLACK
6
CONTINUOUS
10
5.56673
20
-3.11102
11
5.57239
21
-3.11513
0
LINE
8
BLACK
6
CONTINUOUS
10
5.57239
20
-3.11513
11
5.57707
21
-3.12033
0
LINE
8
BLACK
6
CONTINUOUS
10
5.57707
20
-3.12033
11
5.58057
21
-3.12639
0
LINE
8
BLACK
6
CONTINUOUS
10
5.58057
20
-3.12639
11
5.58273
21
-3.13304
0
LINE
8
BLACK
6
CONTINUOUS
10
5.58273
20
-3.13304
11
5.58346
21
-3.14
0
LINE
8
BLACK
6
CONTINUOUS
10
5.58346
20
-3.14
11
5.58273
21
-3.14696
0
LINE
8
BLACK
6
CONTINUOUS
10
5.58273
20
-3.14696
11
5.58057
21
-3.15361
0
LINE
8
BLACK
6
CONTINUOUS
10
5.58057
20
-3.15361
11
5.57707
21
-3.15967
0
LINE
8
BLACK
6
CONTINUOUS
10
5.57707
20
-3.15967
11
5.57239
21
-3.16487
0
LINE
8
BLACK
6
CONTINUOUS
10
5.57239
20
-3.16487
11
5.56673
21
-3.16898
0
LINE
8
BLACK
6
CONTINUOUS
10
5.56673
20
-3.16898
11
5.56034
21
-3.17183
0
LINE
8
BLACK
6
CONTINUOUS
10
5.56034
20
-3.17183
11
5.5535
21
-3.17328
0
LINE
8
BLACK
6
CONTINUOUS
10
5.5535
20
-3.17328
11
5.5465
21
-3.17328
0
LINE
8
BLACK
6
CONTINUOUS
10
5.5465
20
-3.17328
11
5.53966
21
-3.17183
0
LINE
8
BLACK
6
CONTINUOUS
10
5.53966
20
-3.17183
11
5.53458
21
-3.16956
0
LINE
8
BLACK
6
CONTINUOUS
10
5.53458
20
-3.16956
11
5.5
21
-3.20414
0
LINE
8
BLACK
6
CONTINUOUS
10
5.5
20
-3.20414
11
5.5
21
-3.24907
0
LINE
8
BLACK
6
CONTINUOUS
10
5.5
20
-3.24907
11
5.5304
21
-3.27946
0
LINE
8
BLACK
6
CONTINUOUS
10
5.5304
20
-3.27946
11
5.77787
21
-3.27946
0
LINE
8
BLACK
6
CONTINUOUS
10
5.77787
20
-3.27946
11
5.78169
21
-3.28023
0
LINE
8
BLACK
6
CONTINUOUS
10
5.78169
20
-3.28023
11
5.78494
21
-3.28239
0
LINE
8
BLACK
6
CONTINUOUS
10
5.78494
20
-3.28239
11
5.84881
21
-3.34627
0
LINE
8
BLACK
6
CONTINUOUS
10
5.84881
20
-3.34627
11
5.8502
21
-3.34605
0
LINE
8
BLACK
6
CONTINUOUS
10
5.8502
20
-3.34605
11
5.85507
21
-3.34682
0
LINE
8
BLACK
6
CONTINUOUS
10
5.85507
20
-3.34682
11
5.85946
21
-3.34906
0
LINE
8
BLACK
6
CONTINUOUS
10
5.85946
20
-3.34906
11
5.86294
21
-3.35254
0
LINE
8
BLACK
6
CONTINUOUS
10
5.86294
20
-3.35254
11
5.86518
21
-3.35693
0
LINE
8
BLACK
6
CONTINUOUS
10
5.86518
20
-3.35693
11
5.86595
21
-3.3618
0
LINE
8
BLACK
6
CONTINUOUS
10
5.86595
20
-3.3618
11
5.86518
21
-3.36667
0
LINE
8
BLACK
6
CONTINUOUS
10
5.86518
20
-3.36667
11
5.86294
21
-3.37106
0
LINE
8
BLACK
6
CONTINUOUS
10
5.86294
20
-3.37106
11
5.85946
21
-3.37454
0
LINE
8
BLACK
6
CONTINUOUS
10
5.85946
20
-3.37454
11
5.85507
21
-3.37678
0
LINE
8
BLACK
6
CONTINUOUS
10
5.85507
20
-3.37678
11
5.8502
21
-3.37755
0
LINE
8
BLACK
6
CONTINUOUS
10
5.8502
20
-3.37755
11
5.84533
21
-3.37678
0
LINE
8
BLACK
6
CONTINUOUS
10
5.84533
20
-3.37678
11
5.84094
21
-3.37454
0
LINE
8
BLACK
6
CONTINUOUS
10
5.84094
20
-3.37454
11
5.83746
21
-3.37106
0
LINE
8
BLACK
6
CONTINUOUS
10
5.83746
20
-3.37106
11
5.83522
21
-3.36667
0
LINE
8
BLACK
6
CONTINUOUS
10
5.83522
20
-3.36667
11
5.83445
21
-3.3618
0
LINE
8
BLACK
6
CONTINUOUS
10
5.83445
20
-3.3618
11
5.83467
21
-3.36041
0
LINE
8
BLACK
6
CONTINUOUS
10
5.83467
20
-3.36041
11
5.77372
21
-3.29946
0
LINE
8
BLACK
6
CONTINUOUS
10
5.77372
20
-3.29946
11
5.52626
21
-3.29946
0
LINE
8
BLACK
6
CONTINUOUS
10
5.52626
20
-3.29946
11
5.52243
21
-3.2987
0
LINE
8
BLACK
6
CONTINUOUS
10
5.52243
20
-3.2987
11
5.51919
21
-3.29654
0
LINE
8
BLACK
6
CONTINUOUS
10
5.51919
20
-3.29654
11
5.48293
21
-3.26028
0
LINE
8
BLACK
6
CONTINUOUS
10
5.48293
20
-3.26028
11
5.48252
21
-3.25967
0
LINE
8
BLACK
6
CONTINUOUS
10
5.48252
20
-3.25967
11
5.48076
21
-3.25703
0
LINE
8
BLACK
6
CONTINUOUS
10
5.48076
20
-3.25703
11
5.48
21
-3.25321
0
LINE
8
BLACK
6
CONTINUOUS
10
5.48
20
-3.25321
11
5.48
21
-3.2
0
LINE
8
BLACK
6
CONTINUOUS
10
5.48
20
-3.2
11
5.48076
21
-3.19617
0
LINE
8
BLACK
6
CONTINUOUS
10
5.48076
20
-3.19617
11
5.48293
21
-3.19293
0
LINE
8
BLACK
6
CONTINUOUS
10
5.48293
20
-3.19293
11
5.52046
21
-3.1554
0
LINE
8
BLACK
6
CONTINUOUS
10
5.52046
20
-3.1554
11
5.51943
21
-3.15361
0
LINE
8
BLACK
6
CONTINUOUS
10
5.51943
20
-3.15361
11
5.51727
21
-3.14696
0
LINE
8
BLACK
6
CONTINUOUS
10
5.51727
20
-3.14696
11
5.51654
21
-3.14
0
LINE
8
BLACK
6
CONTINUOUS
10
5.51654
20
-3.14
11
5.51727
21
-3.13304
0
LINE
8
BLACK
6
CONTINUOUS
10
5.51727
20
-3.13304
11
5.51943
21
-3.12639
0
LINE
8
BLACK
6
CONTINUOUS
10
5.51943
20
-3.12639
11
5.52293
21
-3.12033
0
LINE
8
BLACK
6
CONTINUOUS
10
5.52293
20
-3.12033
11
5.52761
21
-3.11513
0
LINE
8
BLACK
6
CONTINUOUS
10
5.52761
20
-3.11513
11
5.53327
21
-3.11102
0
LINE
8
BLACK
6
CONTINUOUS
10
5.53327
20
-3.11102
11
5.53966
21
-3.10817
0
LINE
8
BLACK
6
CONTINUOUS
10
5.53966
20
-3.10817
11
5.5465
21
-3.10672
0
LINE
8
BLACK
6
CONTINUOUS
10
5.5465
20
-3.10672
11
5.5535
21
-3.10672
0
LINE
8
BLACK
6
CONTINUOUS
10
5.5535
20
-3.10672
11
5.56034
21
-3.10817
0
LINE
8
BLACK
6
CONTINUOUS
10
5.70687
20
-3.33402
11
5.71126
21
-3.33626
0
LINE
8
BLACK
6
CONTINUOUS
10
5.71126
20
-3.33626
11
5.71474
21
-3.33974
0
LINE
8
BLACK
6
CONTINUOUS
10
5.71474
20
-3.33974
11
5.71698
21
-3.34413
0
LINE
8
BLACK
6
CONTINUOUS
10
5.71698
20
-3.34413
11
5.71775
21
-3.349
0
LINE
8
BLACK
6
CONTINUOUS
10
5.71775
20
-3.349
11
5.71698
21
-3.35387
0
LINE
8
BLACK
6
CONTINUOUS
10
5.71698
20
-3.35387
11
5.71474
21
-3.35826
0
LINE
8
BLACK
6
CONTINUOUS
10
5.71474
20
-3.35826
11
5.71126
21
-3.36174
0
LINE
8
BLACK
6
CONTINUOUS
10
5.71126
20
-3.36174
11
5.70687
21
-3.36398
0
LINE
8
BLACK
6
CONTINUOUS
10
5.70687
20
-3.36398
11
5.702
21
-3.36475
0
LINE
8
BLACK
6
CONTINUOUS
10
5.702
20
-3.36475
11
5.69713
21
-3.36398
0
LINE
8
BLACK
6
CONTINUOUS
10
5.69713
20
-3.36398
11
5.69274
21
-3.36174
0
LINE
8
BLACK
6
CONTINUOUS
10
5.69274
20
-3.36174
11
5.68926
21
-3.35826
0
LINE
8
BLACK
6
CONTINUOUS
10
5.68926
20
-3.35826
11
5.68702
21
-3.35387
0
LINE
8
BLACK
6
CONTINUOUS
10
5.68702
20
-3.35387
11
5.68625
21
-3.349
0
LINE
8
BLACK
6
CONTINUOUS
10
5.68625
20
-3.349
11
5.68702
21
-3.34413
0
LINE
8
BLACK
6
CONTINUOUS
10
5.68702
20
-3.34413
11
5.68926
21
-3.33974
0
LINE
8
BLACK
6
CONTINUOUS
10
5.68926
20
-3.33974
11
5.69274
21
-3.33626
0
LINE
8
BLACK
6
CONTINUOUS
10
5.69274
20
-3.33626
11
5.69713
21
-3.33402
0
LINE
8
BLACK
6
CONTINUOUS
10
5.69713
20
-3.33402
11
5.702
21
-3.33325
0
LINE
8
BLACK
6
CONTINUOUS
10
5.702
20
-3.33325
11
5.70687
21
-3.33402
0
LINE
8
BLACK
6
CONTINUOUS
10
6.83719
20
-3.27776
11
6.84381
21
-3.28012
0
LINE
8
BLACK
6
CONTINUOUS
10
6.84381
20
-3.28012
11
6.84974
21
-3.28388
0
LINE
8
BLACK
6
CONTINUOUS
10
6.84974
20
-3.28388
11
6.85468
21
-3.28886
0
LINE
8
BLACK
6
CONTINUOUS
10
6.85468
20
-3.28886
11
6.8584
21
-3.29482
0
LINE
8
BLACK
6
CONTINUOUS
10
6.8584
20
-3.29482
11
6.86071
21
-3.30145
0
LINE
8
BLACK
6
CONTINUOUS
10
6.86071
20
-3.30145
11
6.8615
21
-3.30843
0
LINE
8
BLACK
6
CONTINUOUS
10
6.8615
20
-3.30843
11
6.86148
21
-3.3093
0
LINE
8
BLACK
6
CONTINUOUS
10
6.86148
20
-3.3093
11
6.86051
21
-3.31626
0
LINE
8
BLACK
6
CONTINUOUS
10
6.86051
20
-3.31626
11
6.85801
21
-3.32282
0
LINE
8
BLACK
6
CONTINUOUS
10
6.85801
20
-3.32282
11
6.85413
21
-3.32867
0
LINE
8
BLACK
6
CONTINUOUS
10
6.85413
20
-3.32867
11
6.84904
21
-3.33351
0
LINE
8
BLACK
6
CONTINUOUS
10
6.84904
20
-3.33351
11
6.84301
21
-3.33711
0
LINE
8
BLACK
6
CONTINUOUS
10
6.84301
20
-3.33711
11
6.83633
21
-3.33928
0
LINE
8
BLACK
6
CONTINUOUS
10
6.83633
20
-3.33928
11
6.82934
21
-3.33991
0
LINE
8
BLACK
6
CONTINUOUS
10
6.82934
20
-3.33991
11
6.82238
21
-3.33899
0
LINE
8
BLACK
6
CONTINUOUS
10
6.82238
20
-3.33899
11
6.8158
21
-3.33654
0
LINE
8
BLACK
6
CONTINUOUS
10
6.8158
20
-3.33654
11
6.80992
21
-3.33269
0
LINE
8
BLACK
6
CONTINUOUS
10
6.80992
20
-3.33269
11
6.80505
21
-3.32764
0
LINE
8
BLACK
6
CONTINUOUS
10
6.80505
20
-3.32764
11
6.80141
21
-3.32164
0
LINE
8
BLACK
6
CONTINUOUS
10
6.80141
20
-3.32164
11
6.79919
21
-3.31497
0
LINE
8
BLACK
6
CONTINUOUS
10
6.79919
20
-3.31497
11
6.79851
21
-3.30799
0
LINE
8
BLACK
6
CONTINUOUS
10
6.79851
20
-3.30799
11
6.79939
21
-3.30102
0
LINE
8
BLACK
6
CONTINUOUS
10
6.79939
20
-3.30102
11
6.80179
21
-3.29442
0
LINE
8
BLACK
6
CONTINUOUS
10
6.80179
20
-3.29442
11
6.80559
21
-3.28852
0
LINE
8
BLACK
6
CONTINUOUS
10
6.80559
20
-3.28852
11
6.81061
21
-3.28361
0
LINE
8
BLACK
6
CONTINUOUS
10
6.81061
20
-3.28361
11
6.81659
21
-3.27993
0
LINE
8
BLACK
6
CONTINUOUS
10
6.81659
20
-3.27993
11
6.82324
21
-3.27766
0
LINE
8
BLACK
6
CONTINUOUS
10
6.82324
20
-3.27766
11
6.83022
21
-3.27693
0
LINE
8
BLACK
6
CONTINUOUS
10
6.83022
20
-3.27693
11
6.83719
21
-3.27776
0
LINE
8
BLACK
6
CONTINUOUS
10
6.91593
20
-3.27776
11
6.92255
21
-3.28012
0
LINE
8
BLACK
6
CONTINUOUS
10
6.92255
20
-3.28012
11
6.92848
21
-3.28388
0
LINE
8
BLACK
6
CONTINUOUS
10
6.92848
20
-3.28388
11
6.93342
21
-3.28886
0
LINE
8
BLACK
6
CONTINUOUS
10
6.93342
20
-3.28886
11
6.93714
21
-3.29482
0
LINE
8
BLACK
6
CONTINUOUS
10
6.93714
20
-3.29482
11
6.9384
21
-3.29843
0
LINE
8
BLACK
6
CONTINUOUS
10
6.9384
20
-3.29843
11
7.03422
21
-3.29843
0
LINE
8
BLACK
6
CONTINUOUS
10
7.03422
20
-3.29843
11
7.03724
21
-3.29501
0
LINE
8
BLACK
6
CONTINUOUS
10
7.03724
20
-3.29501
11
7.04196
21
-3.29203
0
LINE
8
BLACK
6
CONTINUOUS
10
7.04196
20
-3.29203
11
7.04733
21
-3.2905
0
LINE
8
BLACK
6
CONTINUOUS
10
7.04733
20
-3.2905
11
7.05291
21
-3.29053
0
LINE
8
BLACK
6
CONTINUOUS
10
7.05291
20
-3.29053
11
7.05826
21
-3.29213
0
LINE
8
BLACK
6
CONTINUOUS
10
7.05826
20
-3.29213
11
7.06294
21
-3.29517
0
LINE
8
BLACK
6
CONTINUOUS
10
7.06294
20
-3.29517
11
7.06658
21
-3.29939
0
LINE
8
BLACK
6
CONTINUOUS
10
7.06658
20
-3.29939
11
7.06889
21
-3.30448
0
LINE
8
BLACK
6
CONTINUOUS
10
7.06889
20
-3.30448
11
7.06969
21
-3.31
0
LINE
8
BLACK
6
CONTINUOUS
10
7.06969
20
-3.31
11
7.06968
21
-3.31048
0
LINE
8
BLACK
6
CONTINUOUS
10
7.06968
20
-3.31048
11
7.06875
21
-3.31598
0
LINE
8
BLACK
6
CONTINUOUS
10
7.06875
20
-3.31598
11
7.06632
21
-3.32101
0
LINE
8
BLACK
6
CONTINUOUS
10
7.06632
20
-3.32101
11
7.06257
21
-3.32515
0
LINE
8
BLACK
6
CONTINUOUS
10
7.06257
20
-3.32515
11
7.05782
21
-3.32807
0
LINE
8
BLACK
6
CONTINUOUS
10
7.05782
20
-3.32807
11
7.05243
21
-3.32953
0
LINE
8
BLACK
6
CONTINUOUS
10
7.05243
20
-3.32953
11
7.04685
21
-3.32943
0
LINE
8
BLACK
6
CONTINUOUS
10
7.04685
20
-3.32943
11
7.04153
21
-3.32777
0
LINE
8
BLACK
6
CONTINUOUS
10
7.04153
20
-3.32777
11
7.03688
21
-3.32467
0
LINE
8
BLACK
6
CONTINUOUS
10
7.03688
20
-3.32467
11
7.03329
21
-3.3204
0
LINE
8
BLACK
6
CONTINUOUS
10
7.03329
20
-3.3204
11
7.03242
21
-3.31843
0
LINE
8
BLACK
6
CONTINUOUS
10
7.03242
20
-3.31843
11
6.93842
21
-3.31843
0
LINE
8
BLACK
6
CONTINUOUS
10
6.93842
20
-3.31843
11
6.93675
21
-3.32282
0
LINE
8
BLACK
6
CONTINUOUS
10
6.93675
20
-3.32282
11
6.93287
21
-3.32867
0
LINE
8
BLACK
6
CONTINUOUS
10
6.93287
20
-3.32867
11
6.92778
21
-3.33351
0
LINE
8
BLACK
6
CONTINUOUS
10
6.92778
20
-3.33351
11
6.92175
21
-3.33711
0
LINE
8
BLACK
6
CONTINUOUS
10
6.92175
20
-3.33711
11
6.91507
21
-3.33928
0
LINE
8
BLACK
6
CONTINUOUS
10
6.91507
20
-3.33928
11
6.90808
21
-3.33991
0
LINE
8
BLACK
6
CONTINUOUS
10
6.90808
20
-3.33991
11
6.90112
21
-3.33899
0
LINE
8
BLACK
6
CONTINUOUS
10
6.90112
20
-3.33899
11
6.89454
21
-3.33654
0
LINE
8
BLACK
6
CONTINUOUS
10
6.89454
20
-3.33654
11
6.88866
21
-3.33269
0
LINE
8
BLACK
6
CONTINUOUS
10
6.88866
20
-3.33269
11
6.88379
21
-3.32764
0
LINE
8
BLACK
6
CONTINUOUS
10
6.88379
20
-3.32764
11
6.88015
21
-3.32164
0
LINE
8
BLACK
6
CONTINUOUS
10
6.88015
20
-3.32164
11
6.87793
21
-3.31497
0
LINE
8
BLACK
6
CONTINUOUS
10
6.87793
20
-3.31497
11
6.87725
21
-3.30799
0
LINE
8
BLACK
6
CONTINUOUS
10
6.87725
20
-3.30799
11
6.87813
21
-3.30102
0
LINE
8
BLACK
6
CONTINUOUS
10
6.87813
20
-3.30102
11
6.88053
21
-3.29442
0
LINE
8
BLACK
6
CONTINUOUS
10
6.88053
20
-3.29442
11
6.88433
21
-3.28852
0
LINE
8
BLACK
6
CONTINUOUS
10
6.88433
20
-3.28852
11
6.88935
21
-3.28361
0
LINE
8
BLACK
6
CONTINUOUS
10
6.88935
20
-3.28361
11
6.89533
21
-3.27993
0
LINE
8
BLACK
6
CONTINUOUS
10
6.89533
20
-3.27993
11
6.90198
21
-3.27766
0
LINE
8
BLACK
6
CONTINUOUS
10
6.90198
20
-3.27766
11
6.90896
21
-3.27693
0
LINE
8
BLACK
6
CONTINUOUS
10
6.90896
20
-3.27693
11
6.91593
21
-3.27776
0
LINE
8
BLACK
6
CONTINUOUS
10
4.85287
20
-3.30802
11
4.85726
21
-3.31026
0
LINE
8
BLACK
6
CONTINUOUS
10
4.85726
20
-3.31026
11
4.86074
21
-3.31374
0
LINE
8
BLACK
6
CONTINUOUS
10
4.86074
20
-3.31374
11
4.86298
21
-3.31813
0
LINE
8
BLACK
6
CONTINUOUS
10
4.86298
20
-3.31813
11
4.86375
21
-3.323
0
LINE
8
BLACK
6
CONTINUOUS
10
4.86375
20
-3.323
11
4.86298
21
-3.32787
0
LINE
8
BLACK
6
CONTINUOUS
10
4.86298
20
-3.32787
11
4.86074
21
-3.33226
0
LINE
8
BLACK
6
CONTINUOUS
10
4.86074
20
-3.33226
11
4.85726
21
-3.33574
0
LINE
8
BLACK
6
CONTINUOUS
10
4.85726
20
-3.33574
11
4.85287
21
-3.33798
0
LINE
8
BLACK
6
CONTINUOUS
10
4.85287
20
-3.33798
11
4.848
21
-3.33875
0
LINE
8
BLACK
6
CONTINUOUS
10
4.848
20
-3.33875
11
4.84313
21
-3.33798
0
LINE
8
BLACK
6
CONTINUOUS
10
4.84313
20
-3.33798
11
4.83874
21
-3.33574
0
LINE
8
BLACK
6
CONTINUOUS
10
4.83874
20
-3.33574
11
4.83526
21
-3.33226
0
LINE
8
BLACK
6
CONTINUOUS
10
4.83526
20
-3.33226
11
4.83302
21
-3.32787
0
LINE
8
BLACK
6
CONTINUOUS
10
4.83302
20
-3.32787
11
4.83225
21
-3.323
0
LINE
8
BLACK
6
CONTINUOUS
10
4.83225
20
-3.323
11
4.83302
21
-3.31813
0
LINE
8
BLACK
6
CONTINUOUS
10
4.83302
20
-3.31813
11
4.83526
21
-3.31374
0
LINE
8
BLACK
6
CONTINUOUS
10
4.83526
20
-3.31374
11
4.83874
21
-3.31026
0
LINE
8
BLACK
6
CONTINUOUS
10
4.83874
20
-3.31026
11
4.84313
21
-3.30802
0
LINE
8
BLACK
6
CONTINUOUS
10
4.84313
20
-3.30802
11
4.848
21
-3.30725
0
LINE
8
BLACK
6
CONTINUOUS
10
4.848
20
-3.30725
11
4.85287
21
-3.30802
0
LINE
8
BLACK
6
CONTINUOUS
10
5.08787
20
-3.30402
11
5.09226
21
-3.30626
0
LINE
8
BLACK
6
CONTINUOUS
10
5.09226
20
-3.30626
11
5.09574
21
-3.30974
0
LINE
8
BLACK
6
CONTINUOUS
10
5.09574
20
-3.30974
11
5.09798
21
-3.31413
0
LINE
8
BLACK
6
CONTINUOUS
10
5.09798
20
-3.31413
11
5.09875
21
-3.319
0
LINE
8
BLACK
6
CONTINUOUS
10
5.09875
20
-3.319
11
5.09798
21
-3.32387
0
LINE
8
BLACK
6
CONTINUOUS
10
5.09798
20
-3.32387
11
5.09574
21
-3.32826
0
LINE
8
BLACK
6
CONTINUOUS
10
5.09574
20
-3.32826
11
5.09226
21
-3.33174
0
LINE
8
BLACK
6
CONTINUOUS
10
5.09226
20
-3.33174
11
5.08787
21
-3.33398
0
LINE
8
BLACK
6
CONTINUOUS
10
5.08787
20
-3.33398
11
5.083
21
-3.33475
0
LINE
8
BLACK
6
CONTINUOUS
10
5.083
20
-3.33475
11
5.07813
21
-3.33398
0
LINE
8
BLACK
6
CONTINUOUS
10
5.07813
20
-3.33398
11
5.07374
21
-3.33174
0
LINE
8
BLACK
6
CONTINUOUS
10
5.07374
20
-3.33174
11
5.07026
21
-3.32826
0
LINE
8
BLACK
6
CONTINUOUS
10
5.07026
20
-3.32826
11
5.06802
21
-3.32387
0
LINE
8
BLACK
6
CONTINUOUS
10
5.06802
20
-3.32387
11
5.06725
21
-3.319
0
LINE
8
BLACK
6
CONTINUOUS
10
5.06725
20
-3.319
11
5.06802
21
-3.31413
0
LINE
8
BLACK
6
CONTINUOUS
10
5.06802
20
-3.31413
11
5.07026
21
-3.30974
0
LINE
8
BLACK
6
CONTINUOUS
10
5.07026
20
-3.30974
11
5.07374
21
-3.30626
0
LINE
8
BLACK
6
CONTINUOUS
10
5.07374
20
-3.30626
11
5.07813
21
-3.30402
0
LINE
8
BLACK
6
CONTINUOUS
10
5.07813
20
-3.30402
11
5.083
21
-3.30325
0
LINE
8
BLACK
6
CONTINUOUS
10
5.083
20
-3.30325
11
5.08787
21
-3.30402
0
LINE
8
BLACK
6
CONTINUOUS
10
6.08887
20
-3.26402
11
6.09326
21
-3.26626
0
LINE
8
BLACK
6
CONTINUOUS
10
6.09326
20
-3.26626
11
6.09674
21
-3.26974
0
LINE
8
BLACK
6
CONTINUOUS
10
6.09674
20
-3.26974
11
6.09898
21
-3.27413
0
LINE
8
BLACK
6
CONTINUOUS
10
6.09898
20
-3.27413
11
6.09975
21
-3.279
0
LINE
8
BLACK
6
CONTINUOUS
10
6.09975
20
-3.279
11
6.09898
21
-3.28387
0
LINE
8
BLACK
6
CONTINUOUS
10
6.09898
20
-3.28387
11
6.09674
21
-3.28826
0
LINE
8
BLACK
6
CONTINUOUS
10
6.09674
20
-3.28826
11
6.09326
21
-3.29174
0
LINE
8
BLACK
6
CONTINUOUS
10
6.09326
20
-3.29174
11
6.08887
21
-3.29398
0
LINE
8
BLACK
6
CONTINUOUS
10
6.08887
20
-3.29398
11
6.084
21
-3.29475
0
LINE
8
BLACK
6
CONTINUOUS
10
6.084
20
-3.29475
11
6.07913
21
-3.29398
0
LINE
8
BLACK
6
CONTINUOUS
10
6.07913
20
-3.29398
11
6.07474
21
-3.29174
0
LINE
8
BLACK
6
CONTINUOUS
10
6.07474
20
-3.29174
11
6.07126
21
-3.28826
0
LINE
8
BLACK
6
CONTINUOUS
10
6.07126
20
-3.28826
11
6.06902
21
-3.28387
0
LINE
8
BLACK
6
CONTINUOUS
10
6.06902
20
-3.28387
11
6.06825
21
-3.279
0
LINE
8
BLACK
6
CONTINUOUS
10
6.06825
20
-3.279
11
6.06902
21
-3.27413
0
LINE
8
BLACK
6
CONTINUOUS
10
6.06902
20
-3.27413
11
6.07126
21
-3.26974
0
LINE
8
BLACK
6
CONTINUOUS
10
6.07126
20
-3.26974
11
6.07474
21
-3.26626
0
LINE
8
BLACK
6
CONTINUOUS
10
6.07474
20
-3.26626
11
6.07913
21
-3.26402
0
LINE
8
BLACK
6
CONTINUOUS
10
6.07913
20
-3.26402
11
6.084
21
-3.26325
0
LINE
8
BLACK
6
CONTINUOUS
10
6.084
20
-3.26325
11
6.08887
21
-3.26402
0
LINE
8
BLACK
6
CONTINUOUS
10
6.13387
20
-3.25502
11
6.13826
21
-3.25726
0
LINE
8
BLACK
6
CONTINUOUS
10
6.13826
20
-3.25726
11
6.14174
21
-3.26074
0
LINE
8
BLACK
6
CONTINUOUS
10
6.14174
20
-3.26074
11
6.14398
21
-3.26513
0
LINE
8
BLACK
6
CONTINUOUS
10
6.14398
20
-3.26513
11
6.14475
21
-3.27
0
LINE
8
BLACK
6
CONTINUOUS
10
6.14475
20
-3.27
11
6.14398
21
-3.27487
0
LINE
8
BLACK
6
CONTINUOUS
10
6.14398
20
-3.27487
11
6.14174
21
-3.27926
0
LINE
8
BLACK
6
CONTINUOUS
10
6.14174
20
-3.27926
11
6.13826
21
-3.28274
0
LINE
8
BLACK
6
CONTINUOUS
10
6.13826
20
-3.28274
11
6.13387
21
-3.28498
0
LINE
8
BLACK
6
CONTINUOUS
10
6.13387
20
-3.28498
11
6.129
21
-3.28575
0
LINE
8
BLACK
6
CONTINUOUS
10
6.129
20
-3.28575
11
6.12413
21
-3.28498
0
LINE
8
BLACK
6
CONTINUOUS
10
6.12413
20
-3.28498
11
6.11974
21
-3.28274
0
LINE
8
BLACK
6
CONTINUOUS
10
6.11974
20
-3.28274
11
6.11626
21
-3.27926
0
LINE
8
BLACK
6
CONTINUOUS
10
6.11626
20
-3.27926
11
6.11402
21
-3.27487
0
LINE
8
BLACK
6
CONTINUOUS
10
6.11402
20
-3.27487
11
6.11325
21
-3.27
0
LINE
8
BLACK
6
CONTINUOUS
10
6.11325
20
-3.27
11
6.11402
21
-3.26513
0
LINE
8
BLACK
6
CONTINUOUS
10
6.11402
20
-3.26513
11
6.11626
21
-3.26074
0
LINE
8
BLACK
6
CONTINUOUS
10
6.11626
20
-3.26074
11
6.11974
21
-3.25726
0
LINE
8
BLACK
6
CONTINUOUS
10
6.11974
20
-3.25726
11
6.12413
21
-3.25502
0
LINE
8
BLACK
6
CONTINUOUS
10
6.12413
20
-3.25502
11
6.129
21
-3.25425
0
LINE
8
BLACK
6
CONTINUOUS
10
6.129
20
-3.25425
11
6.13387
21
-3.25502
0
LINE
8
BLACK
6
CONTINUOUS
10
5.58057
20
-3.25361
11
5.57707
21
-3.25967
0
LINE
8
BLACK
6
CONTINUOUS
10
5.57707
20
-3.25967
11
5.57239
21
-3.26487
0
LINE
8
BLACK
6
CONTINUOUS
10
5.57239
20
-3.26487
11
5.56673
21
-3.26898
0
LINE
8
BLACK
6
CONTINUOUS
10
5.56673
20
-3.26898
11
5.56034
21
-3.27183
0
LINE
8
BLACK
6
CONTINUOUS
10
5.56034
20
-3.27183
11
5.5535
21
-3.27328
0
LINE
8
BLACK
6
CONTINUOUS
10
5.5535
20
-3.27328
11
5.5465
21
-3.27328
0
LINE
8
BLACK
6
CONTINUOUS
10
5.5465
20
-3.27328
11
5.53966
21
-3.27183
0
LINE
8
BLACK
6
CONTINUOUS
10
5.53966
20
-3.27183
11
5.53327
21
-3.26898
0
LINE
8
BLACK
6
CONTINUOUS
10
5.53327
20
-3.26898
11
5.52761
21
-3.26487
0
LINE
8
BLACK
6
CONTINUOUS
10
5.52761
20
-3.26487
11
5.52293
21
-3.25967
0
LINE
8
BLACK
6
CONTINUOUS
10
5.52293
20
-3.25967
11
5.51943
21
-3.25361
0
LINE
8
BLACK
6
CONTINUOUS
10
5.51943
20
-3.25361
11
5.51727
21
-3.24696
0
LINE
8
BLACK
6
CONTINUOUS
10
5.51727
20
-3.24696
11
5.51654
21
-3.24
0
LINE
8
BLACK
6
CONTINUOUS
10
5.51654
20
-3.24
11
5.51727
21
-3.23304
0
LINE
8
BLACK
6
CONTINUOUS
10
5.51727
20
-3.23304
11
5.51943
21
-3.22639
0
LINE
8
BLACK
6
CONTINUOUS
10
5.51943
20
-3.22639
11
5.52293
21
-3.22033
0
LINE
8
BLACK
6
CONTINUOUS
10
5.52293
20
-3.22033
11
5.52761
21
-3.21513
0
LINE
8
BLACK
6
CONTINUOUS
10
5.52761
20
-3.21513
11
5.53327
21
-3.21102
0
LINE
8
BLACK
6
CONTINUOUS
10
5.53327
20
-3.21102
11
5.53966
21
-3.20817
0
LINE
8
BLACK
6
CONTINUOUS
10
5.53966
20
-3.20817
11
5.5465
21
-3.20672
0
LINE
8
BLACK
6
CONTINUOUS
10
5.5465
20
-3.20672
11
5.5535
21
-3.20672
0
LINE
8
BLACK
6
CONTINUOUS
10
5.5535
20
-3.20672
11
5.56034
21
-3.20817
0
LINE
8
BLACK
6
CONTINUOUS
10
5.56034
20
-3.20817
11
5.56673
21
-3.21102
0
LINE
8
BLACK
6
CONTINUOUS
10
5.56673
20
-3.21102
11
5.57239
21
-3.21513
0
LINE
8
BLACK
6
CONTINUOUS
10
5.57239
20
-3.21513
11
5.57707
21
-3.22033
0
LINE
8
BLACK
6
CONTINUOUS
10
5.57707
20
-3.22033
11
5.58057
21
-3.22639
0
LINE
8
BLACK
6
CONTINUOUS
10
5.58057
20
-3.22639
11
5.58174
21
-3.23
0
LINE
8
BLACK
6
CONTINUOUS
10
5.58174
20
-3.23
11
5.81686
21
-3.23
0
LINE
8
BLACK
6
CONTINUOUS
10
5.81686
20
-3.23
11
5.82993
21
-3.21693
0
LINE
8
BLACK
6
CONTINUOUS
10
5.82993
20
-3.21693
11
5.8305
21
-3.21655
0
LINE
8
BLACK
6
CONTINUOUS
10
5.8305
20
-3.21655
11
5.83317
21
-3.21476
0
LINE
8
BLACK
6
CONTINUOUS
10
5.83317
20
-3.21476
11
5.837
21
-3.214
0
LINE
8
BLACK
6
CONTINUOUS
10
5.837
20
-3.214
11
5.899
21
-3.214
0
LINE
8
BLACK
6
CONTINUOUS
10
5.899
20
-3.214
11
5.90174
21
-3.21126
0
LINE
8
BLACK
6
CONTINUOUS
10
5.90174
20
-3.21126
11
5.90613
21
-3.20902
0
LINE
8
BLACK
6
CONTINUOUS
10
5.90613
20
-3.20902
11
5.911
21
-3.20825
0
LINE
8
BLACK
6
CONTINUOUS
10
5.911
20
-3.20825
11
5.91587
21
-3.20902
0
LINE
8
BLACK
6
CONTINUOUS
10
5.91587
20
-3.20902
11
5.92026
21
-3.21126
0
LINE
8
BLACK
6
CONTINUOUS
10
5.92026
20
-3.21126
11
5.92374
21
-3.21474
0
LINE
8
BLACK
6
CONTINUOUS
10
5.92374
20
-3.21474
11
5.92598
21
-3.21913
0
LINE
8
BLACK
6
CONTINUOUS
10
5.92598
20
-3.21913
11
5.92675
21
-3.224
0
LINE
8
BLACK
6
CONTINUOUS
10
5.92675
20
-3.224
11
5.92598
21
-3.22887
0
LINE
8
BLACK
6
CONTINUOUS
10
5.92598
20
-3.22887
11
5.92374
21
-3.23326
0
LINE
8
BLACK
6
CONTINUOUS
10
5.92374
20
-3.23326
11
5.92026
21
-3.23674
0
LINE
8
BLACK
6
CONTINUOUS
10
5.92026
20
-3.23674
11
5.91587
21
-3.23898
0
LINE
8
BLACK
6
CONTINUOUS
10
5.91587
20
-3.23898
11
5.911
21
-3.23975
0
LINE
8
BLACK
6
CONTINUOUS
10
5.911
20
-3.23975
11
5.90613
21
-3.23898
0
LINE
8
BLACK
6
CONTINUOUS
10
5.90613
20
-3.23898
11
5.90174
21
-3.23674
0
LINE
8
BLACK
6
CONTINUOUS
10
5.90174
20
-3.23674
11
5.899
21
-3.234
0
LINE
8
BLACK
6
CONTINUOUS
10
5.899
20
-3.234
11
5.84114
21
-3.234
0
LINE
8
BLACK
6
CONTINUOUS
10
5.84114
20
-3.234
11
5.82807
21
-3.24707
0
LINE
8
BLACK
6
CONTINUOUS
10
5.82807
20
-3.24707
11
5.82483
21
-3.24924
0
LINE
8
BLACK
6
CONTINUOUS
10
5.82483
20
-3.24924
11
5.821
21
-3.25
0
LINE
8
BLACK
6
CONTINUOUS
10
5.821
20
-3.25
11
5.58174
21
-3.25
0
LINE
8
BLACK
6
CONTINUOUS
10
5.58174
20
-3.25
11
5.58057
21
-3.25361
0
LINE
8
BLACK
6
CONTINUOUS
10
6.27187
20
-3.21202
11
6.27626
21
-3.21426
0
LINE
8
BLACK
6
CONTINUOUS
10
6.27626
20
-3.21426
11
6.27974
21
-3.21774
0
LINE
8
BLACK
6
CONTINUOUS
10
6.27974
20
-3.21774
11
6.28198
21
-3.22213
0
LINE
8
BLACK
6
CONTINUOUS
10
6.28198
20
-3.22213
11
6.28275
21
-3.227
0
LINE
8
BLACK
6
CONTINUOUS
10
6.28275
20
-3.227
11
6.28198
21
-3.23187
0
LINE
8
BLACK
6
CONTINUOUS
10
6.28198
20
-3.23187
11
6.27974
21
-3.23626
0
LINE
8
BLACK
6
CONTINUOUS
10
6.27974
20
-3.23626
11
6.27626
21
-3.23974
0
LINE
8
BLACK
6
CONTINUOUS
10
6.27626
20
-3.23974
11
6.27187
21
-3.24198
0
LINE
8
BLACK
6
CONTINUOUS
10
6.27187
20
-3.24198
11
6.267
21
-3.24275
0
LINE
8
BLACK
6
CONTINUOUS
10
6.267
20
-3.24275
11
6.26213
21
-3.24198
0
LINE
8
BLACK
6
CONTINUOUS
10
6.26213
20
-3.24198
11
6.25774
21
-3.23974
0
LINE
8
BLACK
6
CONTINUOUS
10
6.25774
20
-3.23974
11
6.25426
21
-3.23626
0
LINE
8
BLACK
6
CONTINUOUS
10
6.25426
20
-3.23626
11
6.25202
21
-3.23187
0
LINE
8
BLACK
6
CONTINUOUS
10
6.25202
20
-3.23187
11
6.25125
21
-3.227
0
LINE
8
BLACK
6
CONTINUOUS
10
6.25125
20
-3.227
11
6.25202
21
-3.22213
0
LINE
8
BLACK
6
CONTINUOUS
10
6.25202
20
-3.22213
11
6.25426
21
-3.21774
0
LINE
8
BLACK
6
CONTINUOUS
10
6.25426
20
-3.21774
11
6.25774
21
-3.21426
0
LINE
8
BLACK
6
CONTINUOUS
10
6.25774
20
-3.21426
11
6.26213
21
-3.21202
0
LINE
8
BLACK
6
CONTINUOUS
10
6.26213
20
-3.21202
11
6.267
21
-3.21125
0
LINE
8
BLACK
6
CONTINUOUS
10
6.267
20
-3.21125
11
6.27187
21
-3.21202
0
LINE
8
BLACK
6
CONTINUOUS
10
6.83291
20
-3.07053
11
6.83826
21
-3.07213
0
LINE
8
BLACK
6
CONTINUOUS
10
6.83826
20
-3.07213
11
6.84294
21
-3.07517
0
LINE
8
BLACK
6
CONTINUOUS
10
6.84294
20
-3.07517
11
6.84658
21
-3.07939
0
LINE
8
BLACK
6
CONTINUOUS
10
6.84658
20
-3.07939
11
6.84889
21
-3.08448
0
LINE
8
BLACK
6
CONTINUOUS
10
6.84889
20
-3.08448
11
6.84969
21
-3.09
0
LINE
8
BLACK
6
CONTINUOUS
10
6.84969
20
-3.09
11
6.84968
21
-3.09048
0
LINE
8
BLACK
6
CONTINUOUS
10
6.84968
20
-3.09048
11
6.84875
21
-3.09598
0
LINE
8
BLACK
6
CONTINUOUS
10
6.84875
20
-3.09598
11
6.84632
21
-3.10101
0
LINE
8
BLACK
6
CONTINUOUS
10
6.84632
20
-3.10101
11
6.84257
21
-3.10515
0
LINE
8
BLACK
6
CONTINUOUS
10
6.84257
20
-3.10515
11
6.84
21
-3.10673
0
LINE
8
BLACK
6
CONTINUOUS
10
6.84
20
-3.10673
11
6.84
21
-3.1785
0
LINE
8
BLACK
6
CONTINUOUS
10
6.84
20
-3.1785
11
6.8615
21
-3.1785
0
LINE
8
BLACK
6
CONTINUOUS
10
6.8615
20
-3.1785
11
6.8615
21
-3.2415
0
LINE
8
BLACK
6
CONTINUOUS
10
6.8615
20
-3.2415
11
6.7985
21
-3.2415
0
LINE
8
BLACK
6
CONTINUOUS
10
6.7985
20
-3.2415
11
6.7985
21
-3.1785
0
LINE
8
BLACK
6
CONTINUOUS
10
6.7985
20
-3.1785
11
6.82
21
-3.1785
0
LINE
8
BLACK
6
CONTINUOUS
10
6.82
20
-3.1785
11
6.82
21
-3.10675
0
LINE
8
BLACK
6
CONTINUOUS
10
6.82
20
-3.10675
11
6.81688
21
-3.10467
0
LINE
8
BLACK
6
CONTINUOUS
10
6.81688
20
-3.10467
11
6.81329
21
-3.1004
0
LINE
8
BLACK
6
CONTINUOUS
10
6.81329
20
-3.1004
11
6.81104
21
-3.09529
0
LINE
8
BLACK
6
CONTINUOUS
10
6.81104
20
-3.09529
11
6.81032
21
-3.08976
0
LINE
8
BLACK
6
CONTINUOUS
10
6.81032
20
-3.08976
11
6.81118
21
-3.08424
0
LINE
8
BLACK
6
CONTINUOUS
10
6.81118
20
-3.08424
11
6.81355
21
-3.07919
0
LINE
8
BLACK
6
CONTINUOUS
10
6.81355
20
-3.07919
11
6.81724
21
-3.07501
0
LINE
8
BLACK
6
CONTINUOUS
10
6.81724
20
-3.07501
11
6.82196
21
-3.07203
0
LINE
8
BLACK
6
CONTINUOUS
10
6.82196
20
-3.07203
11
6.82733
21
-3.0705
0
LINE
8
BLACK
6
CONTINUOUS
10
6.82733
20
-3.0705
11
6.83291
21
-3.07053
0
LINE
8
BLACK
6
CONTINUOUS
10
6.93675
20
-3.2244
11
6.93287
21
-3.23025
0
LINE
8
BLACK
6
CONTINUOUS
10
6.93287
20
-3.23025
11
6.92778
21
-3.23509
0
LINE
8
BLACK
6
CONTINUOUS
10
6.92778
20
-3.23509
11
6.92175
21
-3.23868
0
LINE
8
BLACK
6
CONTINUOUS
10
6.92175
20
-3.23868
11
6.91507
21
-3.24085
0
LINE
8
BLACK
6
CONTINUOUS
10
6.91507
20
-3.24085
11
6.90808
21
-3.24149
0
LINE
8
BLACK
6
CONTINUOUS
10
6.90808
20
-3.24149
11
6.90112
21
-3.24056
0
LINE
8
BLACK
6
CONTINUOUS
10
6.90112
20
-3.24056
11
6.89454
21
-3.23811
0
LINE
8
BLACK
6
CONTINUOUS
10
6.89454
20
-3.23811
11
6.88866
21
-3.23427
0
LINE
8
BLACK
6
CONTINUOUS
10
6.88866
20
-3.23427
11
6.88379
21
-3.22922
0
LINE
8
BLACK
6
CONTINUOUS
10
6.88379
20
-3.22922
11
6.88015
21
-3.22321
0
LINE
8
BLACK
6
CONTINUOUS
10
6.88015
20
-3.22321
11
6.87793
21
-3.21655
0
LINE
8
BLACK
6
CONTINUOUS
10
6.87793
20
-3.21655
11
6.87725
21
-3.20956
0
LINE
8
BLACK
6
CONTINUOUS
10
6.87725
20
-3.20956
11
6.87813
21
-3.20259
0
LINE
8
BLACK
6
CONTINUOUS
10
6.87813
20
-3.20259
11
6.88053
21
-3.196
0
LINE
8
BLACK
6
CONTINUOUS
10
6.88053
20
-3.196
11
6.88433
21
-3.19009
0
LINE
8
BLACK
6
CONTINUOUS
10
6.88433
20
-3.19009
11
6.88935
21
-3.18518
0
LINE
8
BLACK
6
CONTINUOUS
10
6.88935
20
-3.18518
11
6.89533
21
-3.1815
0
LINE
8
BLACK
6
CONTINUOUS
10
6.89533
20
-3.1815
11
6.90198
21
-3.17924
0
LINE
8
BLACK
6
CONTINUOUS
10
6.90198
20
-3.17924
11
6.90896
21
-3.1785
0
LINE
8
BLACK
6
CONTINUOUS
10
6.90896
20
-3.1785
11
6.91593
21
-3.17934
0
LINE
8
BLACK
6
CONTINUOUS
10
6.91593
20
-3.17934
11
6.92255
21
-3.18169
0
LINE
8
BLACK
6
CONTINUOUS
10
6.92255
20
-3.18169
11
6.92848
21
-3.18545
0
LINE
8
BLACK
6
CONTINUOUS
10
6.92848
20
-3.18545
11
6.93342
21
-3.19044
0
LINE
8
BLACK
6
CONTINUOUS
10
6.93342
20
-3.19044
11
6.93714
21
-3.19639
0
LINE
8
BLACK
6
CONTINUOUS
10
6.93714
20
-3.19639
11
6.9384
21
-3.2
0
LINE
8
BLACK
6
CONTINUOUS
10
6.9384
20
-3.2
11
7.01586
21
-3.2
0
LINE
8
BLACK
6
CONTINUOUS
10
7.01586
20
-3.2
11
7.03099
21
-3.18487
0
LINE
8
BLACK
6
CONTINUOUS
10
7.03099
20
-3.18487
11
7.03032
21
-3.17976
0
LINE
8
BLACK
6
CONTINUOUS
10
7.03032
20
-3.17976
11
7.03118
21
-3.17424
0
LINE
8
BLACK
6
CONTINUOUS
10
7.03118
20
-3.17424
11
7.03355
21
-3.16919
0
LINE
8
BLACK
6
CONTINUOUS
10
7.03355
20
-3.16919
11
7.03724
21
-3.16501
0
LINE
8
BLACK
6
CONTINUOUS
10
7.03724
20
-3.16501
11
7.04196
21
-3.16203
0
LINE
8
BLACK
6
CONTINUOUS
10
7.04196
20
-3.16203
11
7.04733
21
-3.1605
0
LINE
8
BLACK
6
CONTINUOUS
10
7.04733
20
-3.1605
11
7.05291
21
-3.16053
0
LINE
8
BLACK
6
CONTINUOUS
10
7.05291
20
-3.16053
11
7.05826
21
-3.16213
0
LINE
8
BLACK
6
CONTINUOUS
10
7.05826
20
-3.16213
11
7.06294
21
-3.16517
0
LINE
8
BLACK
6
CONTINUOUS
10
7.06294
20
-3.16517
11
7.06658
21
-3.16939
0
LINE
8
BLACK
6
CONTINUOUS
10
7.06658
20
-3.16939
11
7.06889
21
-3.17448
0
LINE
8
BLACK
6
CONTINUOUS
10
7.06889
20
-3.17448
11
7.06969
21
-3.18
0
LINE
8
BLACK
6
CONTINUOUS
10
7.06969
20
-3.18
11
7.06968
21
-3.18048
0
LINE
8
BLACK
6
CONTINUOUS
10
7.06968
20
-3.18048
11
7.06875
21
-3.18598
0
LINE
8
BLACK
6
CONTINUOUS
10
7.06875
20
-3.18598
11
7.06632
21
-3.19101
0
LINE
8
BLACK
6
CONTINUOUS
10
7.06632
20
-3.19101
11
7.06257
21
-3.19515
0
LINE
8
BLACK
6
CONTINUOUS
10
7.06257
20
-3.19515
11
7.05782
21
-3.19807
0
LINE
8
BLACK
6
CONTINUOUS
10
7.05782
20
-3.19807
11
7.05243
21
-3.19953
0
LINE
8
BLACK
6
CONTINUOUS
10
7.05243
20
-3.19953
11
7.04685
21
-3.19943
0
LINE
8
BLACK
6
CONTINUOUS
10
7.04685
20
-3.19943
11
7.04522
21
-3.19892
0
LINE
8
BLACK
6
CONTINUOUS
10
7.04522
20
-3.19892
11
7.02707
21
-3.21707
0
LINE
8
BLACK
6
CONTINUOUS
10
7.02707
20
-3.21707
11
7.02383
21
-3.21924
0
LINE
8
BLACK
6
CONTINUOUS
10
7.02383
20
-3.21924
11
7.02
21
-3.22
0
LINE
8
BLACK
6
CONTINUOUS
10
7.02
20
-3.22
11
6.93842
21
-3.22
0
LINE
8
BLACK
6
CONTINUOUS
10
6.93842
20
-3.22
11
6.93675
21
-3.2244
0
LINE
8
BLACK
6
CONTINUOUS
10
6.33087
20
-3.18002
11
6.33526
21
-3.18226
0
LINE
8
BLACK
6
CONTINUOUS
10
6.33526
20
-3.18226
11
6.33874
21
-3.18574
0
LINE
8
BLACK
6
CONTINUOUS
10
6.33874
20
-3.18574
11
6.34098
21
-3.19013
0
LINE
8
BLACK
6
CONTINUOUS
10
6.34098
20
-3.19013
11
6.34175
21
-3.195
0
LINE
8
BLACK
6
CONTINUOUS
10
6.34175
20
-3.195
11
6.34098
21
-3.19987
0
LINE
8
BLACK
6
CONTINUOUS
10
6.34098
20
-3.19987
11
6.33874
21
-3.20426
0
LINE
8
BLACK
6
CONTINUOUS
10
6.33874
20
-3.20426
11
6.33526
21
-3.20774
0
LINE
8
BLACK
6
CONTINUOUS
10
6.33526
20
-3.20774
11
6.33087
21
-3.20998
0
LINE
8
BLACK
6
CONTINUOUS
10
6.33087
20
-3.20998
11
6.326
21
-3.21075
0
LINE
8
BLACK
6
CONTINUOUS
10
6.326
20
-3.21075
11
6.32113
21
-3.20998
0
LINE
8
BLACK
6
CONTINUOUS
10
6.32113
20
-3.20998
11
6.31674
21
-3.20774
0
LINE
8
BLACK
6
CONTINUOUS
10
6.31674
20
-3.20774
11
6.31326
21
-3.20426
0
LINE
8
BLACK
6
CONTINUOUS
10
6.31326
20
-3.20426
11
6.31102
21
-3.19987
0
LINE
8
BLACK
6
CONTINUOUS
10
6.31102
20
-3.19987
11
6.31025
21
-3.195
0
LINE
8
BLACK
6
CONTINUOUS
10
6.31025
20
-3.195
11
6.31102
21
-3.19013
0
LINE
8
BLACK
6
CONTINUOUS
10
6.31102
20
-3.19013
11
6.31326
21
-3.18574
0
LINE
8
BLACK
6
CONTINUOUS
10
6.31326
20
-3.18574
11
6.31674
21
-3.18226
0
LINE
8
BLACK
6
CONTINUOUS
10
6.31674
20
-3.18226
11
6.32113
21
-3.18002
0
LINE
8
BLACK
6
CONTINUOUS
10
6.32113
20
-3.18002
11
6.326
21
-3.17925
0
LINE
8
BLACK
6
CONTINUOUS
10
6.326
20
-3.17925
11
6.33087
21
-3.18002
0
LINE
8
BLACK
6
CONTINUOUS
10
6.71587
20
-3.15102
11
6.72026
21
-3.15326
0
LINE
8
BLACK
6
CONTINUOUS
10
6.72026
20
-3.15326
11
6.72374
21
-3.15674
0
LINE
8
BLACK
6
CONTINUOUS
10
6.72374
20
-3.15674
11
6.72598
21
-3.16113
0
LINE
8
BLACK
6
CONTINUOUS
10
6.72598
20
-3.16113
11
6.72675
21
-3.166
0
LINE
8
BLACK
6
CONTINUOUS
10
6.72675
20
-3.166
11
6.72598
21
-3.17087
0
LINE
8
BLACK
6
CONTINUOUS
10
6.72598
20
-3.17087
11
6.72374
21
-3.17526
0
LINE
8
BLACK
6
CONTINUOUS
10
6.72374
20
-3.17526
11
6.72026
21
-3.17874
0
LINE
8
BLACK
6
CONTINUOUS
10
6.72026
20
-3.17874
11
6.71587
21
-3.18098
0
LINE
8
BLACK
6
CONTINUOUS
10
6.71587
20
-3.18098
11
6.711
21
-3.18175
0
LINE
8
BLACK
6
CONTINUOUS
10
6.711
20
-3.18175
11
6.70613
21
-3.18098
0
LINE
8
BLACK
6
CONTINUOUS
10
6.70613
20
-3.18098
11
6.70174
21
-3.17874
0
LINE
8
BLACK
6
CONTINUOUS
10
6.70174
20
-3.17874
11
6.69826
21
-3.17526
0
LINE
8
BLACK
6
CONTINUOUS
10
6.69826
20
-3.17526
11
6.69602
21
-3.17087
0
LINE
8
BLACK
6
CONTINUOUS
10
6.69602
20
-3.17087
11
6.69525
21
-3.166
0
LINE
8
BLACK
6
CONTINUOUS
10
6.69525
20
-3.166
11
6.69602
21
-3.16113
0
LINE
8
BLACK
6
CONTINUOUS
10
6.69602
20
-3.16113
11
6.69826
21
-3.15674
0
LINE
8
BLACK
6
CONTINUOUS
10
6.69826
20
-3.15674
11
6.70174
21
-3.15326
0
LINE
8
BLACK
6
CONTINUOUS
10
6.70174
20
-3.15326
11
6.70613
21
-3.15102
0
LINE
8
BLACK
6
CONTINUOUS
10
6.70613
20
-3.15102
11
6.711
21
-3.15025
0
LINE
8
BLACK
6
CONTINUOUS
10
6.711
20
-3.15025
11
6.71587
21
-3.15102
0
LINE
8
BLACK
6
CONTINUOUS
10
6.60891
20
-3.13653
11
6.61426
21
-3.13813
0
LINE
8
BLACK
6
CONTINUOUS
10
6.61426
20
-3.13813
11
6.61894
21
-3.14117
0
LINE
8
BLACK
6
CONTINUOUS
10
6.61894
20
-3.14117
11
6.62258
21
-3.14539
0
LINE
8
BLACK
6
CONTINUOUS
10
6.62258
20
-3.14539
11
6.62489
21
-3.15048
0
LINE
8
BLACK
6
CONTINUOUS
10
6.62489
20
-3.15048
11
6.62569
21
-3.156
0
LINE
8
BLACK
6
CONTINUOUS
10
6.62569
20
-3.156
11
6.62568
21
-3.15648
0
LINE
8
BLACK
6
CONTINUOUS
10
6.62568
20
-3.15648
11
6.62475
21
-3.16198
0
LINE
8
BLACK
6
CONTINUOUS
10
6.62475
20
-3.16198
11
6.62232
21
-3.16701
0
LINE
8
BLACK
6
CONTINUOUS
10
6.62232
20
-3.16701
11
6.61857
21
-3.17115
0
LINE
8
BLACK
6
CONTINUOUS
10
6.61857
20
-3.17115
11
6.61382
21
-3.17407
0
LINE
8
BLACK
6
CONTINUOUS
10
6.61382
20
-3.17407
11
6.60843
21
-3.17553
0
LINE
8
BLACK
6
CONTINUOUS
10
6.60843
20
-3.17553
11
6.60285
21
-3.17543
0
LINE
8
BLACK
6
CONTINUOUS
10
6.60285
20
-3.17543
11
6.59753
21
-3.17377
0
LINE
8
BLACK
6
CONTINUOUS
10
6.59753
20
-3.17377
11
6.59288
21
-3.17067
0
LINE
8
BLACK
6
CONTINUOUS
10
6.59288
20
-3.17067
11
6.58929
21
-3.1664
0
LINE
8
BLACK
6
CONTINUOUS
10
6.58929
20
-3.1664
11
6.58911
21
-3.166
0
LINE
8
BLACK
6
CONTINUOUS
10
6.58911
20
-3.166
11
6.537
21
-3.166
0
LINE
8
BLACK
6
CONTINUOUS
10
6.537
20
-3.166
11
6.53426
21
-3.16874
0
LINE
8
BLACK
6
CONTINUOUS
10
6.53426
20
-3.16874
11
6.52987
21
-3.17098
0
LINE
8
BLACK
6
CONTINUOUS
10
6.52987
20
-3.17098
11
6.525
21
-3.17175
0
LINE
8
BLACK
6
CONTINUOUS
10
6.525
20
-3.17175
11
6.52013
21
-3.17098
0
LINE
8
BLACK
6
CONTINUOUS
10
6.52013
20
-3.17098
11
6.51574
21
-3.16874
0
LINE
8
BLACK
6
CONTINUOUS
10
6.51574
20
-3.16874
11
6.51226
21
-3.16526
0
LINE
8
BLACK
6
CONTINUOUS
10
6.51226
20
-3.16526
11
6.51002
21
-3.16087
0
LINE
8
BLACK
6
CONTINUOUS
10
6.51002
20
-3.16087
11
6.50925
21
-3.156
0
LINE
8
BLACK
6
CONTINUOUS
10
6.50925
20
-3.156
11
6.51002
21
-3.15113
0
LINE
8
BLACK
6
CONTINUOUS
10
6.51002
20
-3.15113
11
6.51226
21
-3.14674
0
LINE
8
BLACK
6
CONTINUOUS
10
6.51226
20
-3.14674
11
6.51574
21
-3.14326
0
LINE
8
BLACK
6
CONTINUOUS
10
6.51574
20
-3.14326
11
6.52013
21
-3.14102
0
LINE
8
BLACK
6
CONTINUOUS
10
6.52013
20
-3.14102
11
6.525
21
-3.14025
0
LINE
8
BLACK
6
CONTINUOUS
10
6.525
20
-3.14025
11
6.52987
21
-3.14102
0
LINE
8
BLACK
6
CONTINUOUS
10
6.52987
20
-3.14102
11
6.53426
21
-3.14326
0
LINE
8
BLACK
6
CONTINUOUS
10
6.53426
20
-3.14326
11
6.537
21
-3.146
0
LINE
8
BLACK
6
CONTINUOUS
10
6.537
20
-3.146
11
6.58917
21
-3.146
0
LINE
8
BLACK
6
CONTINUOUS
10
6.58917
20
-3.146
11
6.58955
21
-3.14519
0
LINE
8
BLACK
6
CONTINUOUS
10
6.58955
20
-3.14519
11
6.59324
21
-3.14101
0
LINE
8
BLACK
6
CONTINUOUS
10
6.59324
20
-3.14101
11
6.59796
21
-3.13803
0
LINE
8
BLACK
6
CONTINUOUS
10
6.59796
20
-3.13803
11
6.60333
21
-3.1365
0
LINE
8
BLACK
6
CONTINUOUS
10
6.60333
20
-3.1365
11
6.60891
21
-3.13653
0
LINE
8
BLACK
6
CONTINUOUS
10
7.03366
20
-2.94522
11
7.04449
21
-2.94773
0
LINE
8
BLACK
6
CONTINUOUS
10
7.04449
20
-2.94773
11
7.05486
21
-2.95175
0
LINE
8
BLACK
6
CONTINUOUS
10
7.05486
20
-2.95175
11
7.06457
21
-2.95718
0
LINE
8
BLACK
6
CONTINUOUS
10
7.06457
20
-2.95718
11
7.07341
21
-2.96393
0
LINE
8
BLACK
6
CONTINUOUS
10
7.07341
20
-2.96393
11
7.08121
21
-2.97185
0
LINE
8
BLACK
6
CONTINUOUS
10
7.08121
20
-2.97185
11
7.08782
21
-2.9808
0
LINE
8
BLACK
6
CONTINUOUS
10
7.08782
20
-2.9808
11
7.0931
21
-2.99059
0
LINE
8
BLACK
6
CONTINUOUS
10
7.0931
20
-2.99059
11
7.09695
21
-3.00102
0
LINE
8
BLACK
6
CONTINUOUS
10
7.09695
20
-3.00102
11
7.09929
21
-3.0119
0
LINE
8
BLACK
6
CONTINUOUS
10
7.09929
20
-3.0119
11
7.10008
21
-3.02299
0
LINE
8
BLACK
6
CONTINUOUS
10
7.10008
20
-3.02299
11
7.09992
21
-3.02794
0
LINE
8
BLACK
6
CONTINUOUS
10
7.09992
20
-3.02794
11
7.09844
21
-3.03896
0
LINE
8
BLACK
6
CONTINUOUS
10
7.09844
20
-3.03896
11
7.09542
21
-3.04966
0
LINE
8
BLACK
6
CONTINUOUS
10
7.09542
20
-3.04966
11
7.09093
21
-3.05984
0
LINE
8
BLACK
6
CONTINUOUS
10
7.09093
20
-3.05984
11
7.08504
21
-3.06927
0
LINE
8
BLACK
6
CONTINUOUS
10
7.08504
20
-3.06927
11
7.07788
21
-3.07779
0
LINE
8
BLACK
6
CONTINUOUS
10
7.07788
20
-3.07779
11
7.0696
21
-3.08521
0
LINE
8
BLACK
6
CONTINUOUS
10
7.0696
20
-3.08521
11
7.06035
21
-3.09139
0
LINE
8
BLACK
6
CONTINUOUS
10
7.06035
20
-3.09139
11
7.05032
21
-3.0962
0
LINE
8
BLACK
6
CONTINUOUS
10
7.05032
20
-3.0962
11
7.03972
21
-3.09956
0
LINE
8
BLACK
6
CONTINUOUS
10
7.03972
20
-3.09956
11
7.02875
21
-3.10138
0
LINE
8
BLACK
6
CONTINUOUS
10
7.02875
20
-3.10138
11
7.01763
21
-3.10164
0
LINE
8
BLACK
6
CONTINUOUS
10
7.01763
20
-3.10164
11
7.00658
21
-3.10034
0
LINE
8
BLACK
6
CONTINUOUS
10
7.00658
20
-3.10034
11
6.99583
21
-3.09749
0
LINE
8
BLACK
6
CONTINUOUS
10
6.99583
20
-3.09749
11
6.98559
21
-3.09315
0
LINE
8
BLACK
6
CONTINUOUS
10
6.98559
20
-3.09315
11
6.97606
21
-3.08741
0
LINE
8
BLACK
6
CONTINUOUS
10
6.97606
20
-3.08741
11
6.96744
21
-3.08039
0
LINE
8
BLACK
6
CONTINUOUS
10
6.96744
20
-3.08039
11
6.95989
21
-3.07222
0
LINE
8
BLACK
6
CONTINUOUS
10
6.95989
20
-3.07222
11
6.95356
21
-3.06307
0
LINE
8
BLACK
6
CONTINUOUS
10
6.95356
20
-3.06307
11
6.94859
21
-3.05312
0
LINE
8
BLACK
6
CONTINUOUS
10
6.94859
20
-3.05312
11
6.94507
21
-3.04257
0
LINE
8
BLACK
6
CONTINUOUS
10
6.94507
20
-3.04257
11
6.94307
21
-3.03163
0
LINE
8
BLACK
6
CONTINUOUS
10
6.94307
20
-3.03163
11
6.94264
21
-3.02052
0
LINE
8
BLACK
6
CONTINUOUS
10
6.94264
20
-3.02052
11
6.94377
21
-3.00945
0
LINE
8
BLACK
6
CONTINUOUS
10
6.94377
20
-3.00945
11
6.94645
21
-2.99866
0
LINE
8
BLACK
6
CONTINUOUS
10
6.94645
20
-2.99866
11
6.95063
21
-2.98835
0
LINE
8
BLACK
6
CONTINUOUS
10
6.95063
20
-2.98835
11
6.95621
21
-2.97873
0
LINE
8
BLACK
6
CONTINUOUS
10
6.95621
20
-2.97873
11
6.9631
21
-2.97
0
LINE
8
BLACK
6
CONTINUOUS
10
6.9631
20
-2.97
11
6.97115
21
-2.96232
0
LINE
8
BLACK
6
CONTINUOUS
10
6.97115
20
-2.96232
11
6.9802
21
-2.95586
0
LINE
8
BLACK
6
CONTINUOUS
10
6.9802
20
-2.95586
11
6.99007
21
-2.95073
0
LINE
8
BLACK
6
CONTINUOUS
10
6.99007
20
-2.95073
11
7.00056
21
-2.94704
0
LINE
8
BLACK
6
CONTINUOUS
10
7.00056
20
-2.94704
11
7.01147
21
-2.94487
0
LINE
8
BLACK
6
CONTINUOUS
10
7.01147
20
-2.94487
11
7.02258
21
-2.94426
0
LINE
8
BLACK
6
CONTINUOUS
10
7.02258
20
-2.94426
11
7.03366
21
-2.94522
0
LINE
8
BLACK
6
CONTINUOUS
10
4.85087
20
-3.06102
11
4.85526
21
-3.06326
0
LINE
8
BLACK
6
CONTINUOUS
10
4.85526
20
-3.06326
11
4.85874
21
-3.06674
0
LINE
8
BLACK
6
CONTINUOUS
10
4.85874
20
-3.06674
11
4.86098
21
-3.07113
0
LINE
8
BLACK
6
CONTINUOUS
10
4.86098
20
-3.07113
11
4.86175
21
-3.076
0
LINE
8
BLACK
6
CONTINUOUS
10
4.86175
20
-3.076
11
4.86098
21
-3.08087
0
LINE
8
BLACK
6
CONTINUOUS
10
4.86098
20
-3.08087
11
4.85874
21
-3.08526
0
LINE
8
BLACK
6
CONTINUOUS
10
4.85874
20
-3.08526
11
4.85526
21
-3.08874
0
LINE
8
BLACK
6
CONTINUOUS
10
4.85526
20
-3.08874
11
4.85087
21
-3.09098
0
LINE
8
BLACK
6
CONTINUOUS
10
4.85087
20
-3.09098
11
4.846
21
-3.09175
0
LINE
8
BLACK
6
CONTINUOUS
10
4.846
20
-3.09175
11
4.84113
21
-3.09098
0
LINE
8
BLACK
6
CONTINUOUS
10
4.84113
20
-3.09098
11
4.83674
21
-3.08874
0
LINE
8
BLACK
6
CONTINUOUS
10
4.83674
20
-3.08874
11
4.83326
21
-3.08526
0
LINE
8
BLACK
6
CONTINUOUS
10
4.83326
20
-3.08526
11
4.83102
21
-3.08087
0
LINE
8
BLACK
6
CONTINUOUS
10
4.83102
20
-3.08087
11
4.83025
21
-3.076
0
LINE
8
BLACK
6
CONTINUOUS
10
4.83025
20
-3.076
11
4.83102
21
-3.07113
0
LINE
8
BLACK
6
CONTINUOUS
10
4.83102
20
-3.07113
11
4.83326
21
-3.06674
0
LINE
8
BLACK
6
CONTINUOUS
10
4.83326
20
-3.06674
11
4.83674
21
-3.06326
0
LINE
8
BLACK
6
CONTINUOUS
10
4.83674
20
-3.06326
11
4.84113
21
-3.06102
0
LINE
8
BLACK
6
CONTINUOUS
10
4.84113
20
-3.06102
11
4.846
21
-3.06025
0
LINE
8
BLACK
6
CONTINUOUS
10
4.846
20
-3.06025
11
4.85087
21
-3.06102
0
LINE
8
BLACK
6
CONTINUOUS
10
5.08787
20
-3.05402
11
5.09226
21
-3.05626
0
LINE
8
BLACK
6
CONTINUOUS
10
5.09226
20
-3.05626
11
5.09574
21
-3.05974
0
LINE
8
BLACK
6
CONTINUOUS
10
5.09574
20
-3.05974
11
5.09798
21
-3.06413
0
LINE
8
BLACK
6
CONTINUOUS
10
5.09798
20
-3.06413
11
5.09875
21
-3.069
0
LINE
8
BLACK
6
CONTINUOUS
10
5.09875
20
-3.069
11
5.09798
21
-3.07387
0
LINE
8
BLACK
6
CONTINUOUS
10
5.09798
20
-3.07387
11
5.09574
21
-3.07826
0
LINE
8
BLACK
6
CONTINUOUS
10
5.09574
20
-3.07826
11
5.09226
21
-3.08174
0
LINE
8
BLACK
6
CONTINUOUS
10
5.09226
20
-3.08174
11
5.08787
21
-3.08398
0
LINE
8
BLACK
6
CONTINUOUS
10
5.08787
20
-3.08398
11
5.083
21
-3.08475
0
LINE
8
BLACK
6
CONTINUOUS
10
5.083
20
-3.08475
11
5.07813
21
-3.08398
0
LINE
8
BLACK
6
CONTINUOUS
10
5.07813
20
-3.08398
11
5.07374
21
-3.08174
0
LINE
8
BLACK
6
CONTINUOUS
10
5.07374
20
-3.08174
11
5.07026
21
-3.07826
0
LINE
8
BLACK
6
CONTINUOUS
10
5.07026
20
-3.07826
11
5.06802
21
-3.07387
0
LINE
8
BLACK
6
CONTINUOUS
10
5.06802
20
-3.07387
11
5.06725
21
-3.069
0
LINE
8
BLACK
6
CONTINUOUS
10
5.06725
20
-3.069
11
5.06802
21
-3.06413
0
LINE
8
BLACK
6
CONTINUOUS
10
5.06802
20
-3.06413
11
5.07026
21
-3.05974
0
LINE
8
BLACK
6
CONTINUOUS
10
5.07026
20
-3.05974
11
5.07374
21
-3.05626
0
LINE
8
BLACK
6
CONTINUOUS
10
5.07374
20
-3.05626
11
5.07813
21
-3.05402
0
LINE
8
BLACK
6
CONTINUOUS
10
5.07813
20
-3.05402
11
5.083
21
-3.05325
0
LINE
8
BLACK
6
CONTINUOUS
10
5.083
20
-3.05325
11
5.08787
21
-3.05402
0
LINE
8
BLACK
6
CONTINUOUS
10
5.58346
20
-3.07346
11
5.51654
21
-3.07346
0
LINE
8
BLACK
6
CONTINUOUS
10
5.51654
20
-3.07346
11
5.51654
21
-3.00654
0
LINE
8
BLACK
6
CONTINUOUS
10
5.51654
20
-3.00654
11
5.58346
21
-3.00654
0
LINE
8
BLACK
6
CONTINUOUS
10
5.58346
20
-3.00654
11
5.58346
21
-3.07346
0
LINE
8
BLACK
6
CONTINUOUS
10
6.45487
20
-3.00702
11
6.45926
21
-3.00926
0
LINE
8
BLACK
6
CONTINUOUS
10
6.45926
20
-3.00926
11
6.46274
21
-3.01274
0
LINE
8
BLACK
6
CONTINUOUS
10
6.46274
20
-3.01274
11
6.46498
21
-3.01713
0
LINE
8
BLACK
6
CONTINUOUS
10
6.46498
20
-3.01713
11
6.46575
21
-3.022
0
LINE
8
BLACK
6
CONTINUOUS
10
6.46575
20
-3.022
11
6.46498
21
-3.02687
0
LINE
8
BLACK
6
CONTINUOUS
10
6.46498
20
-3.02687
11
6.46274
21
-3.03126
0
LINE
8
BLACK
6
CONTINUOUS
10
6.46274
20
-3.03126
11
6.45926
21
-3.03474
0
LINE
8
BLACK
6
CONTINUOUS
10
6.45926
20
-3.03474
11
6.45487
21
-3.03698
0
LINE
8
BLACK
6
CONTINUOUS
10
6.45487
20
-3.03698
11
6.45
21
-3.03775
0
LINE
8
BLACK
6
CONTINUOUS
10
6.45
20
-3.03775
11
6.44513
21
-3.03698
0
LINE
8
BLACK
6
CONTINUOUS
10
6.44513
20
-3.03698
11
6.44074
21
-3.03474
0
LINE
8
BLACK
6
CONTINUOUS
10
6.44074
20
-3.03474
11
6.43726
21
-3.03126
0
LINE
8
BLACK
6
CONTINUOUS
10
6.43726
20
-3.03126
11
6.43502
21
-3.02687
0
LINE
8
BLACK
6
CONTINUOUS
10
6.43502
20
-3.02687
11
6.43425
21
-3.022
0
LINE
8
BLACK
6
CONTINUOUS
10
6.43425
20
-3.022
11
6.43502
21
-3.01713
0
LINE
8
BLACK
6
CONTINUOUS
10
6.43502
20
-3.01713
11
6.43726
21
-3.01274
0
LINE
8
BLACK
6
CONTINUOUS
10
6.43726
20
-3.01274
11
6.44074
21
-3.00926
0
LINE
8
BLACK
6
CONTINUOUS
10
6.44074
20
-3.00926
11
6.44513
21
-3.00702
0
LINE
8
BLACK
6
CONTINUOUS
10
6.44513
20
-3.00702
11
6.45
21
-3.00625
0
LINE
8
BLACK
6
CONTINUOUS
10
6.45
20
-3.00625
11
6.45487
21
-3.00702
0
LINE
8
BLACK
6
CONTINUOUS
10
6.08187
20
-2.96902
11
6.08626
21
-2.97126
0
LINE
8
BLACK
6
CONTINUOUS
10
6.08626
20
-2.97126
11
6.08974
21
-2.97474
0
LINE
8
BLACK
6
CONTINUOUS
10
6.08974
20
-2.97474
11
6.09198
21
-2.97913
0
LINE
8
BLACK
6
CONTINUOUS
10
6.09198
20
-2.97913
11
6.09275
21
-2.984
0
LINE
8
BLACK
6
CONTINUOUS
10
6.09275
20
-2.984
11
6.09198
21
-2.98887
0
LINE
8
BLACK
6
CONTINUOUS
10
6.09198
20
-2.98887
11
6.08974
21
-2.99326
0
LINE
8
BLACK
6
CONTINUOUS
10
6.08974
20
-2.99326
11
6.08626
21
-2.99674
0
LINE
8
BLACK
6
CONTINUOUS
10
6.08626
20
-2.99674
11
6.08187
21
-2.99898
0
LINE
8
BLACK
6
CONTINUOUS
10
6.08187
20
-2.99898
11
6.077
21
-2.99975
0
LINE
8
BLACK
6
CONTINUOUS
10
6.077
20
-2.99975
11
6.07213
21
-2.99898
0
LINE
8
BLACK
6
CONTINUOUS
10
6.07213
20
-2.99898
11
6.06774
21
-2.99674
0
LINE
8
BLACK
6
CONTINUOUS
10
6.06774
20
-2.99674
11
6.06426
21
-2.99326
0
LINE
8
BLACK
6
CONTINUOUS
10
6.06426
20
-2.99326
11
6.06202
21
-2.98887
0
LINE
8
BLACK
6
CONTINUOUS
10
6.06202
20
-2.98887
11
6.06125
21
-2.984
0
LINE
8
BLACK
6
CONTINUOUS
10
6.06125
20
-2.984
11
6.06202
21
-2.97913
0
LINE
8
BLACK
6
CONTINUOUS
10
6.06202
20
-2.97913
11
6.06426
21
-2.97474
0
LINE
8
BLACK
6
CONTINUOUS
10
6.06426
20
-2.97474
11
6.06774
21
-2.97126
0
LINE
8
BLACK
6
CONTINUOUS
10
6.06774
20
-2.97126
11
6.07213
21
-2.96902
0
LINE
8
BLACK
6
CONTINUOUS
10
6.07213
20
-2.96902
11
6.077
21
-2.96825
0
LINE
8
BLACK
6
CONTINUOUS
10
6.077
20
-2.96825
11
6.08187
21
-2.96902
0
LINE
8
BLACK
6
CONTINUOUS
10
5.08687
20
-2.87402
11
5.09126
21
-2.87626
0
LINE
8
BLACK
6
CONTINUOUS
10
5.09126
20
-2.87626
11
5.09474
21
-2.87974
0
LINE
8
BLACK
6
CONTINUOUS
10
5.09474
20
-2.87974
11
5.09698
21
-2.88413
0
LINE
8
BLACK
6
CONTINUOUS
10
5.09698
20
-2.88413
11
5.09775
21
-2.889
0
LINE
8
BLACK
6
CONTINUOUS
10
5.09775
20
-2.889
11
5.09698
21
-2.89387
0
LINE
8
BLACK
6
CONTINUOUS
10
5.09698
20
-2.89387
11
5.09474
21
-2.89826
0
LINE
8
BLACK
6
CONTINUOUS
10
5.09474
20
-2.89826
11
5.09126
21
-2.90174
0
LINE
8
BLACK
6
CONTINUOUS
10
5.09126
20
-2.90174
11
5.08687
21
-2.90398
0
LINE
8
BLACK
6
CONTINUOUS
10
5.08687
20
-2.90398
11
5.082
21
-2.90475
0
LINE
8
BLACK
6
CONTINUOUS
10
5.082
20
-2.90475
11
5.07713
21
-2.90398
0
LINE
8
BLACK
6
CONTINUOUS
10
5.07713
20
-2.90398
11
5.07274
21
-2.90174
0
LINE
8
BLACK
6
CONTINUOUS
10
5.07274
20
-2.90174
11
5.06926
21
-2.89826
0
LINE
8
BLACK
6
CONTINUOUS
10
5.06926
20
-2.89826
11
5.06702
21
-2.89387
0
LINE
8
BLACK
6
CONTINUOUS
10
5.06702
20
-2.89387
11
5.06625
21
-2.889
0
LINE
8
BLACK
6
CONTINUOUS
10
5.06625
20
-2.889
11
5.06702
21
-2.88413
0
LINE
8
BLACK
6
CONTINUOUS
10
5.06702
20
-2.88413
11
5.06926
21
-2.87974
0
LINE
8
BLACK
6
CONTINUOUS
10
5.06926
20
-2.87974
11
5.07274
21
-2.87626
0
LINE
8
BLACK
6
CONTINUOUS
10
5.07274
20
-2.87626
11
5.07713
21
-2.87402
0
LINE
8
BLACK
6
CONTINUOUS
10
5.07713
20
-2.87402
11
5.082
21
-2.87325
0
LINE
8
BLACK
6
CONTINUOUS
10
5.082
20
-2.87325
11
5.08687
21
-2.87402
0
LINE
8
BLACK
6
CONTINUOUS
10
4.85187
20
-2.87202
11
4.85626
21
-2.87426
0
LINE
8
BLACK
6
CONTINUOUS
10
4.85626
20
-2.87426
11
4.85974
21
-2.87774
0
LINE
8
BLACK
6
CONTINUOUS
10
4.85974
20
-2.87774
11
4.86198
21
-2.88213
0
LINE
8
BLACK
6
CONTINUOUS
10
4.86198
20
-2.88213
11
4.86275
21
-2.887
0
LINE
8
BLACK
6
CONTINUOUS
10
4.86275
20
-2.887
11
4.86198
21
-2.89187
0
LINE
8
BLACK
6
CONTINUOUS
10
4.86198
20
-2.89187
11
4.85974
21
-2.89626
0
LINE
8
BLACK
6
CONTINUOUS
10
4.85974
20
-2.89626
11
4.85626
21
-2.89974
0
LINE
8
BLACK
6
CONTINUOUS
10
4.85626
20
-2.89974
11
4.85187
21
-2.90198
0
LINE
8
BLACK
6
CONTINUOUS
10
4.85187
20
-2.90198
11
4.847
21
-2.90275
0
LINE
8
BLACK
6
CONTINUOUS
10
4.847
20
-2.90275
11
4.84213
21
-2.90198
0
LINE
8
BLACK
6
CONTINUOUS
10
4.84213
20
-2.90198
11
4.83774
21
-2.89974
0
LINE
8
BLACK
6
CONTINUOUS
10
4.83774
20
-2.89974
11
4.83426
21
-2.89626
0
LINE
8
BLACK
6
CONTINUOUS
10
4.83426
20
-2.89626
11
4.83202
21
-2.89187
0
LINE
8
BLACK
6
CONTINUOUS
10
4.83202
20
-2.89187
11
4.83125
21
-2.887
0
LINE
8
BLACK
6
CONTINUOUS
10
4.83125
20
-2.887
11
4.83202
21
-2.88213
0
LINE
8
BLACK
6
CONTINUOUS
10
4.83202
20
-2.88213
11
4.83426
21
-2.87774
0
LINE
8
BLACK
6
CONTINUOUS
10
4.83426
20
-2.87774
11
4.83774
21
-2.87426
0
LINE
8
BLACK
6
CONTINUOUS
10
4.83774
20
-2.87426
11
4.84213
21
-2.87202
0
LINE
8
BLACK
6
CONTINUOUS
10
4.84213
20
-2.87202
11
4.847
21
-2.87125
0
LINE
8
BLACK
6
CONTINUOUS
10
4.847
20
-2.87125
11
4.85187
21
-2.87202
0
LINE
8
BLACK
6
CONTINUOUS
10
6.47091
20
-2.73853
11
6.47626
21
-2.74013
0
LINE
8
BLACK
6
CONTINUOUS
10
6.47626
20
-2.74013
11
6.48094
21
-2.74317
0
LINE
8
BLACK
6
CONTINUOUS
10
6.48094
20
-2.74317
11
6.48458
21
-2.74739
0
LINE
8
BLACK
6
CONTINUOUS
10
6.48458
20
-2.74739
11
6.48689
21
-2.75248
0
LINE
8
BLACK
6
CONTINUOUS
10
6.48689
20
-2.75248
11
6.48769
21
-2.758
0
LINE
8
BLACK
6
CONTINUOUS
10
6.48769
20
-2.758
11
6.48768
21
-2.75848
0
LINE
8
BLACK
6
CONTINUOUS
10
6.48768
20
-2.75848
11
6.48675
21
-2.76398
0
LINE
8
BLACK
6
CONTINUOUS
10
6.48675
20
-2.76398
11
6.48432
21
-2.76901
0
LINE
8
BLACK
6
CONTINUOUS
10
6.48432
20
-2.76901
11
6.48057
21
-2.77315
0
LINE
8
BLACK
6
CONTINUOUS
10
6.48057
20
-2.77315
11
6.47582
21
-2.77607
0
LINE
8
BLACK
6
CONTINUOUS
10
6.47582
20
-2.77607
11
6.47043
21
-2.77753
0
LINE
8
BLACK
6
CONTINUOUS
10
6.47043
20
-2.77753
11
6.46485
21
-2.77743
0
LINE
8
BLACK
6
CONTINUOUS
10
6.46485
20
-2.77743
11
6.45953
21
-2.77577
0
LINE
8
BLACK
6
CONTINUOUS
10
6.45953
20
-2.77577
11
6.45488
21
-2.77267
0
LINE
8
BLACK
6
CONTINUOUS
10
6.45488
20
-2.77267
11
6.45129
21
-2.7684
0
LINE
8
BLACK
6
CONTINUOUS
10
6.45129
20
-2.7684
11
6.45023
21
-2.766
0
LINE
8
BLACK
6
CONTINUOUS
10
6.45023
20
-2.766
11
6.42
21
-2.766
0
LINE
8
BLACK
6
CONTINUOUS
10
6.42
20
-2.766
11
6.41726
21
-2.76874
0
LINE
8
BLACK
6
CONTINUOUS
10
6.41726
20
-2.76874
11
6.41287
21
-2.77098
0
LINE
8
BLACK
6
CONTINUOUS
10
6.41287
20
-2.77098
11
6.408
21
-2.77175
0
LINE
8
BLACK
6
CONTINUOUS
10
6.408
20
-2.77175
11
6.40313
21
-2.77098
0
LINE
8
BLACK
6
CONTINUOUS
10
6.40313
20
-2.77098
11
6.39874
21
-2.76874
0
LINE
8
BLACK
6
CONTINUOUS
10
6.39874
20
-2.76874
11
6.39526
21
-2.76526
0
LINE
8
BLACK
6
CONTINUOUS
10
6.39526
20
-2.76526
11
6.39302
21
-2.76087
0
LINE
8
BLACK
6
CONTINUOUS
10
6.39302
20
-2.76087
11
6.39225
21
-2.756
0
LINE
8
BLACK
6
CONTINUOUS
10
6.39225
20
-2.756
11
6.39302
21
-2.75113
0
LINE
8
BLACK
6
CONTINUOUS
10
6.39302
20
-2.75113
11
6.39526
21
-2.74674
0
LINE
8
BLACK
6
CONTINUOUS
10
6.39526
20
-2.74674
11
6.39874
21
-2.74326
0
LINE
8
BLACK
6
CONTINUOUS
10
6.39874
20
-2.74326
11
6.40313
21
-2.74102
0
LINE
8
BLACK
6
CONTINUOUS
10
6.40313
20
-2.74102
11
6.408
21
-2.74025
0
LINE
8
BLACK
6
CONTINUOUS
10
6.408
20
-2.74025
11
6.41287
21
-2.74102
0
LINE
8
BLACK
6
CONTINUOUS
10
6.41287
20
-2.74102
11
6.41726
21
-2.74326
0
LINE
8
BLACK
6
CONTINUOUS
10
6.41726
20
-2.74326
11
6.42
21
-2.746
0
LINE
8
BLACK
6
CONTINUOUS
10
6.42
20
-2.746
11
6.4526
21
-2.746
0
LINE
8
BLACK
6
CONTINUOUS
10
6.4526
20
-2.746
11
6.45524
21
-2.74301
0
LINE
8
BLACK
6
CONTINUOUS
10
6.45524
20
-2.74301
11
6.45996
21
-2.74003
0
LINE
8
BLACK
6
CONTINUOUS
10
6.45996
20
-2.74003
11
6.46533
21
-2.7385
0
LINE
8
BLACK
6
CONTINUOUS
10
6.46533
20
-2.7385
11
6.47091
21
-2.73853
0
LINE
8
BLACK
6
CONTINUOUS
10
6.04591
20
-2.73753
11
6.05126
21
-2.73913
0
LINE
8
BLACK
6
CONTINUOUS
10
6.05126
20
-2.73913
11
6.05594
21
-2.74217
0
LINE
8
BLACK
6
CONTINUOUS
10
6.05594
20
-2.74217
11
6.05958
21
-2.74639
0
LINE
8
BLACK
6
CONTINUOUS
10
6.05958
20
-2.74639
11
6.05986
21
-2.747
0
LINE
8
BLACK
6
CONTINUOUS
10
6.05986
20
-2.747
11
6.094
21
-2.747
0
LINE
8
BLACK
6
CONTINUOUS
10
6.094
20
-2.747
11
6.09474
21
-2.74626
0
LINE
8
BLACK
6
CONTINUOUS
10
6.09474
20
-2.74626
11
6.09913
21
-2.74402
0
LINE
8
BLACK
6
CONTINUOUS
10
6.09913
20
-2.74402
11
6.104
21
-2.74325
0
LINE
8
BLACK
6
CONTINUOUS
10
6.104
20
-2.74325
11
6.10887
21
-2.74402
0
LINE
8
BLACK
6
CONTINUOUS
10
6.10887
20
-2.74402
11
6.11326
21
-2.74626
0
LINE
8
BLACK
6
CONTINUOUS
10
6.11326
20
-2.74626
11
6.11674
21
-2.74974
0
LINE
8
BLACK
6
CONTINUOUS
10
6.11674
20
-2.74974
11
6.11898
21
-2.75413
0
LINE
8
BLACK
6
CONTINUOUS
10
6.11898
20
-2.75413
11
6.11975
21
-2.759
0
LINE
8
BLACK
6
CONTINUOUS
10
6.11975
20
-2.759
11
6.11898
21
-2.76387
0
LINE
8
BLACK
6
CONTINUOUS
10
6.11898
20
-2.76387
11
6.11674
21
-2.76826
0
LINE
8
BLACK
6
CONTINUOUS
10
6.11674
20
-2.76826
11
6.11326
21
-2.77174
0
LINE
8
BLACK
6
CONTINUOUS
10
6.11326
20
-2.77174
11
6.10887
21
-2.77398
0
LINE
8
BLACK
6
CONTINUOUS
10
6.10887
20
-2.77398
11
6.104
21
-2.77475
0
LINE
8
BLACK
6
CONTINUOUS
10
6.104
20
-2.77475
11
6.09913
21
-2.77398
0
LINE
8
BLACK
6
CONTINUOUS
10
6.09913
20
-2.77398
11
6.09474
21
-2.77174
0
LINE
8
BLACK
6
CONTINUOUS
10
6.09474
20
-2.77174
11
6.09126
21
-2.76826
0
LINE
8
BLACK
6
CONTINUOUS
10
6.09126
20
-2.76826
11
6.09062
21
-2.767
0
LINE
8
BLACK
6
CONTINUOUS
10
6.09062
20
-2.767
11
6.05981
21
-2.767
0
LINE
8
BLACK
6
CONTINUOUS
10
6.05981
20
-2.767
11
6.05932
21
-2.76801
0
LINE
8
BLACK
6
CONTINUOUS
10
6.05932
20
-2.76801
11
6.05557
21
-2.77215
0
LINE
8
BLACK
6
CONTINUOUS
10
6.05557
20
-2.77215
11
6.05082
21
-2.77507
0
LINE
8
BLACK
6
CONTINUOUS
10
6.05082
20
-2.77507
11
6.04543
21
-2.77653
0
LINE
8
BLACK
6
CONTINUOUS
10
6.04543
20
-2.77653
11
6.03985
21
-2.77643
0
LINE
8
BLACK
6
CONTINUOUS
10
6.03985
20
-2.77643
11
6.03453
21
-2.77477
0
LINE
8
BLACK
6
CONTINUOUS
10
6.03453
20
-2.77477
11
6.02988
21
-2.77167
0
LINE
8
BLACK
6
CONTINUOUS
10
6.02988
20
-2.77167
11
6.02629
21
-2.7674
0
LINE
8
BLACK
6
CONTINUOUS
10
6.02629
20
-2.7674
11
6.02404
21
-2.76229
0
LINE
8
BLACK
6
CONTINUOUS
10
6.02404
20
-2.76229
11
6.02332
21
-2.75676
0
LINE
8
BLACK
6
CONTINUOUS
10
6.02332
20
-2.75676
11
6.02418
21
-2.75124
0
LINE
8
BLACK
6
CONTINUOUS
10
6.02418
20
-2.75124
11
6.02655
21
-2.74619
0
LINE
8
BLACK
6
CONTINUOUS
10
6.02655
20
-2.74619
11
6.03024
21
-2.74201
0
LINE
8
BLACK
6
CONTINUOUS
10
6.03024
20
-2.74201
11
6.03496
21
-2.73903
0
LINE
8
BLACK
6
CONTINUOUS
10
6.03496
20
-2.73903
11
6.04033
21
-2.7375
0
LINE
8
BLACK
6
CONTINUOUS
10
6.04033
20
-2.7375
11
6.04591
21
-2.73753
0
LINE
8
BLACK
6
CONTINUOUS
10
5.37648
20
-2.69809
11
5.38287
21
-2.70094
0
LINE
8
BLACK
6
CONTINUOUS
10
5.38287
20
-2.70094
11
5.38853
21
-2.70505
0
LINE
8
BLACK
6
CONTINUOUS
10
5.38853
20
-2.70505
11
5.39322
21
-2.71025
0
LINE
8
BLACK
6
CONTINUOUS
10
5.39322
20
-2.71025
11
5.39671
21
-2.71631
0
LINE
8
BLACK
6
CONTINUOUS
10
5.39671
20
-2.71631
11
5.39888
21
-2.72296
0
LINE
8
BLACK
6
CONTINUOUS
10
5.39888
20
-2.72296
11
5.39961
21
-2.72992
0
LINE
8
BLACK
6
CONTINUOUS
10
5.39961
20
-2.72992
11
5.39888
21
-2.73688
0
LINE
8
BLACK
6
CONTINUOUS
10
5.39888
20
-2.73688
11
5.39671
21
-2.74353
0
LINE
8
BLACK
6
CONTINUOUS
10
5.39671
20
-2.74353
11
5.39322
21
-2.74959
0
LINE
8
BLACK
6
CONTINUOUS
10
5.39322
20
-2.74959
11
5.38853
21
-2.75479
0
LINE
8
BLACK
6
CONTINUOUS
10
5.38853
20
-2.75479
11
5.38287
21
-2.7589
0
LINE
8
BLACK
6
CONTINUOUS
10
5.38287
20
-2.7589
11
5.37648
21
-2.76175
0
LINE
8
BLACK
6
CONTINUOUS
10
5.37648
20
-2.76175
11
5.36964
21
-2.7632
0
LINE
8
BLACK
6
CONTINUOUS
10
5.36964
20
-2.7632
11
5.36264
21
-2.7632
0
LINE
8
BLACK
6
CONTINUOUS
10
5.36264
20
-2.7632
11
5.3558
21
-2.76175
0
LINE
8
BLACK
6
CONTINUOUS
10
5.3558
20
-2.76175
11
5.34941
21
-2.7589
0
LINE
8
BLACK
6
CONTINUOUS
10
5.34941
20
-2.7589
11
5.34375
21
-2.75479
0
LINE
8
BLACK
6
CONTINUOUS
10
5.34375
20
-2.75479
11
5.33907
21
-2.74959
0
LINE
8
BLACK
6
CONTINUOUS
10
5.33907
20
-2.74959
11
5.33557
21
-2.74353
0
LINE
8
BLACK
6
CONTINUOUS
10
5.33557
20
-2.74353
11
5.33341
21
-2.73688
0
LINE
8
BLACK
6
CONTINUOUS
10
5.33341
20
-2.73688
11
5.33268
21
-2.72992
0
LINE
8
BLACK
6
CONTINUOUS
10
5.33268
20
-2.72992
11
5.33341
21
-2.72296
0
LINE
8
BLACK
6
CONTINUOUS
10
5.33341
20
-2.72296
11
5.33557
21
-2.71631
0
LINE
8
BLACK
6
CONTINUOUS
10
5.33557
20
-2.71631
11
5.33907
21
-2.71025
0
LINE
8
BLACK
6
CONTINUOUS
10
5.33907
20
-2.71025
11
5.34375
21
-2.70505
0
LINE
8
BLACK
6
CONTINUOUS
10
5.34375
20
-2.70505
11
5.34941
21
-2.70094
0
LINE
8
BLACK
6
CONTINUOUS
10
5.34941
20
-2.70094
11
5.3558
21
-2.69809
0
LINE
8
BLACK
6
CONTINUOUS
10
5.3558
20
-2.69809
11
5.36264
21
-2.69664
0
LINE
8
BLACK
6
CONTINUOUS
10
5.36264
20
-2.69664
11
5.36964
21
-2.69664
0
LINE
8
BLACK
6
CONTINUOUS
10
5.36964
20
-2.69664
11
5.37648
21
-2.69809
0
LINE
8
BLACK
6
CONTINUOUS
10
5.75387
20
-2.71102
11
5.75826
21
-2.71326
0
LINE
8
BLACK
6
CONTINUOUS
10
5.75826
20
-2.71326
11
5.76174
21
-2.71674
0
LINE
8
BLACK
6
CONTINUOUS
10
5.76174
20
-2.71674
11
5.76398
21
-2.72113
0
LINE
8
BLACK
6
CONTINUOUS
10
5.76398
20
-2.72113
11
5.76475
21
-2.726
0
LINE
8
BLACK
6
CONTINUOUS
10
5.76475
20
-2.726
11
5.76398
21
-2.73087
0
LINE
8
BLACK
6
CONTINUOUS
10
5.76398
20
-2.73087
11
5.76174
21
-2.73526
0
LINE
8
BLACK
6
CONTINUOUS
10
5.76174
20
-2.73526
11
5.75826
21
-2.73874
0
LINE
8
BLACK
6
CONTINUOUS
10
5.75826
20
-2.73874
11
5.75387
21
-2.74098
0
LINE
8
BLACK
6
CONTINUOUS
10
5.75387
20
-2.74098
11
5.749
21
-2.74175
0
LINE
8
BLACK
6
CONTINUOUS
10
5.749
20
-2.74175
11
5.74413
21
-2.74098
0
LINE
8
BLACK
6
CONTINUOUS
10
5.74413
20
-2.74098
11
5.73974
21
-2.73874
0
LINE
8
BLACK
6
CONTINUOUS
10
5.73974
20
-2.73874
11
5.73626
21
-2.73526
0
LINE
8
BLACK
6
CONTINUOUS
10
5.73626
20
-2.73526
11
5.73402
21
-2.73087
0
LINE
8
BLACK
6
CONTINUOUS
10
5.73402
20
-2.73087
11
5.73325
21
-2.726
0
LINE
8
BLACK
6
CONTINUOUS
10
5.73325
20
-2.726
11
5.73402
21
-2.72113
0
LINE
8
BLACK
6
CONTINUOUS
10
5.73402
20
-2.72113
11
5.73626
21
-2.71674
0
LINE
8
BLACK
6
CONTINUOUS
10
5.73626
20
-2.71674
11
5.73974
21
-2.71326
0
LINE
8
BLACK
6
CONTINUOUS
10
5.73974
20
-2.71326
11
5.74413
21
-2.71102
0
LINE
8
BLACK
6
CONTINUOUS
10
5.74413
20
-2.71102
11
5.749
21
-2.71025
0
LINE
8
BLACK
6
CONTINUOUS
10
5.749
20
-2.71025
11
5.75387
21
-2.71102
0
CIRCLE
8
BLACK
10
6.9685
20
-3.8189
40
0.0531496
0
CIRCLE
8
BLACK
10
4.84252
20
-3.8189
40
0.0531496
0
CIRCLE
8
BLACK
10
4.84252
20
-2.73622
40
0.0531496
0
CIRCLE
8
BLACK
10
6.9685
20
-2.73622
40
0.0531496
0
CIRCLE
8
BLACK
10
5.02362
20
-3.19685
40
0.0393701
0
LINE
8
BLACK
6
CONTINUOUS
10
4.82109
20
-3.18336
11
4.82272
21
-3.17672
0
LINE
8
BLACK
6
CONTINUOUS
10
4.82272
20
-3.17672
11
4.82583
21
-3.17062
0
LINE
8
BLACK
6
CONTINUOUS
10
4.82583
20
-3.17062
11
4.83026
21
-3.16541
0
LINE
8
BLACK
6
CONTINUOUS
10
4.83026
20
-3.16541
11
4.83576
21
-3.16136
0
LINE
8
BLACK
6
CONTINUOUS
10
4.83576
20
-3.16136
11
4.84206
21
-3.15868
0
LINE
8
BLACK
6
CONTINUOUS
10
4.84206
20
-3.15868
11
4.8488
21
-3.15752
0
LINE
8
BLACK
6
CONTINUOUS
10
4.8488
20
-3.15752
11
4.85562
21
-3.15795
0
LINE
8
BLACK
6
CONTINUOUS
10
4.85562
20
-3.15795
11
4.86217
21
-3.15993
0
LINE
8
BLACK
6
CONTINUOUS
10
4.86217
20
-3.15993
11
4.86808
21
-3.16336
0
LINE
8
BLACK
6
CONTINUOUS
10
4.86808
20
-3.16336
11
4.87305
21
-3.16807
0
LINE
8
BLACK
6
CONTINUOUS
10
4.87305
20
-3.16807
11
4.8768
21
-3.17379
0
LINE
8
BLACK
6
CONTINUOUS
10
4.8768
20
-3.17379
11
4.87913
21
-3.18022
0
LINE
8
BLACK
6
CONTINUOUS
10
4.87913
20
-3.18022
11
4.87992
21
-3.18701
0
LINE
8
BLACK
6
CONTINUOUS
10
4.87992
20
-3.18701
11
4.87992
21
-3.20669
0
LINE
8
BLACK
6
CONTINUOUS
10
4.87992
20
-3.20669
11
4.87969
21
-3.21034
0
LINE
8
BLACK
6
CONTINUOUS
10
4.87969
20
-3.21034
11
4.87807
21
-3.21699
0
LINE
8
BLACK
6
CONTINUOUS
10
4.87807
20
-3.21699
11
4.87496
21
-3.22308
0
LINE
8
BLACK
6
CONTINUOUS
10
4.87496
20
-3.22308
11
4.87053
21
-3.22829
0
LINE
8
BLACK
6
CONTINUOUS
10
4.87053
20
-3.22829
11
4.86502
21
-3.23234
0
LINE
8
BLACK
6
CONTINUOUS
10
4.86502
20
-3.23234
11
4.85873
21
-3.23502
0
LINE
8
BLACK
6
CONTINUOUS
10
4.85873
20
-3.23502
11
4.85199
21
-3.23618
0
LINE
8
BLACK
6
CONTINUOUS
10
4.85199
20
-3.23618
11
4.84516
21
-3.23575
0
LINE
8
BLACK
6
CONTINUOUS
10
4.84516
20
-3.23575
11
4.83862
21
-3.23377
0
LINE
8
BLACK
6
CONTINUOUS
10
4.83862
20
-3.23377
11
4.83271
21
-3.23034
0
LINE
8
BLACK
6
CONTINUOUS
10
4.83271
20
-3.23034
11
4.82774
21
-3.22563
0
LINE
8
BLACK
6
CONTINUOUS
10
4.82774
20
-3.22563
11
4.82399
21
-3.21991
0
LINE
8
BLACK
6
CONTINUOUS
10
4.82399
20
-3.21991
11
4.82166
21
-3.21349
0
LINE
8
BLACK
6
CONTINUOUS
10
4.82166
20
-3.21349
11
4.82087
21
-3.20669
0
LINE
8
BLACK
6
CONTINUOUS
10
4.82087
20
-3.20669
11
4.82087
21
-3.18701
0
LINE
8
BLACK
6
CONTINUOUS
10
4.82087
20
-3.18701
11
4.82109
21
-3.18336
0
CIRCLE
8
BLACK
10
5.36614
20
-3.12992
40
0.019685
0
CIRCLE
8
BLACK
10
5.36614
20
-3.02992
40
0.019685
0
CIRCLE
8
BLACK
10
5.36614
20
-2.92992
40
0.019685
0
CIRCLE
8
BLACK
10
5.36614
20
-2.82992
40
0.019685
0
CIRCLE
8
BLACK
10
5.36614
20
-2.72992
40
0.019685
0
CIRCLE
8
BLACK
10
5.98
20
-3.75
40
0.019685
0
CIRCLE
8
BLACK
10
6.08
20
-3.75
40
0.019685
0
CIRCLE
8
BLACK
10
5.98
20
-3.85
40
0.019685
0
CIRCLE
8
BLACK
10
6.08
20
-3.85
40
0.019685
0
CIRCLE
8
BLACK
10
5.556
20
-3.849
40
0.019685
0
CIRCLE
8
BLACK
10
5.556
20
-3.749
40
0.019685
0
CIRCLE
8
BLACK
10
5.656
20
-3.849
40
0.019685
0
CIRCLE
8
BLACK
10
5.656
20
-3.749
40
0.019685
0
CIRCLE
8
BLACK
10
5.756
20
-3.849
40
0.019685
0
CIRCLE
8
BLACK
10
5.756
20
-3.749
40
0.019685
0
CIRCLE
8
BLACK
10
5.55
20
-3.04
40
0.019685
0
CIRCLE
8
BLACK
10
5.55
20
-3.14
40
0.019685
0
CIRCLE
8
BLACK
10
5.55
20
-3.24
40
0.019685
0
CIRCLE
8
BLACK
10
5.55
20
-3.34
40
0.019685
0
CIRCLE
8
BLACK
10
5.55
20
-3.44
40
0.019685
0
CIRCLE
8
BLACK
10
5.55
20
-3.54
40
0.019685
0
CIRCLE
8
BLACK
10
6.83
20
-3.21
40
0.0187008
0
CIRCLE
8
BLACK
10
6.83
20
-3.30843
40
0.0187008
0
CIRCLE
8
BLACK
10
6.90874
20
-3.30843
40
0.0187008
0
CIRCLE
8
BLACK
10
6.90874
20
-3.21
40
0.0187008
0
CIRCLE
8
BLACK
10
7.02134
20
-3.02299
40
0.0452756
0
CIRCLE
8
BLACK
10
7.02134
20
-3.49543
40
0.0452756
0
CIRCLE
8
BLACK
10
6.077
20
-2.984
40
0.00787402
0
CIRCLE
8
BLACK
10
4.847
20
-2.887
40
0.00787402
0
CIRCLE
8
BLACK
10
5.083
20
-3.069
40
0.00787402
0
CIRCLE
8
BLACK
10
6.585
20
-3.856
40
0.00787402
0
CIRCLE
8
BLACK
10
6.129
20
-3.27
40
0.00787402
0
CIRCLE
8
BLACK
10
6.45
20
-3.022
40
0.00787402
0
CIRCLE
8
BLACK
10
4.935
20
-3.579
40
0.00787402
0
CIRCLE
8
BLACK
10
5.15
20
-3.754
40
0.00787402
0
CIRCLE
8
BLACK
10
5.082
20
-2.889
40
0.00787402
0
CIRCLE
8
BLACK
10
5.702
20
-3.349
40
0.00787402
0
CIRCLE
8
BLACK
10
4.846
20
-3.076
40
0.00787402
0
CIRCLE
8
BLACK
10
6.293
20
-3.882
40
0.00787402
0
CIRCLE
8
BLACK
10
6.084
20
-3.279
40
0.00787402
0
CIRCLE
8
BLACK
10
5.749
20
-2.726
40
0.00787402
0
CIRCLE
8
BLACK
10
6.267
20
-3.227
40
0.00787402
0
CIRCLE
8
BLACK
10
5.151
20
-3.5
40
0.00787402
0
CIRCLE
8
BLACK
10
5.083
20
-3.319
40
0.00787402
0
CIRCLE
8
BLACK
10
4.786
20
-3.517
40
0.00787402
0
CIRCLE
8
BLACK
10
4.848
20
-3.323
40
0.00787402
0
CIRCLE
8
BLACK
10
6.408
20
-2.756
40
0.00787402
0
CIRCLE
8
BLACK
10
6.104
20
-2.759
40
0.00787402
0
CIRCLE
8
BLACK
10
6.326
20
-3.195
40
0.00787402
0
CIRCLE
8
BLACK
10
6.57
20
-3.495
40
0.00787402
0
CIRCLE
8
BLACK
10
6.321
20
-3.395
40
0.00787402
0
CIRCLE
8
BLACK
10
6.584
20
-3.682
40
0.00787402
0
CIRCLE
8
BLACK
10
6.498
20
-3.561
40
0.00787402
0
CIRCLE
8
BLACK
10
6.525
20
-3.156
40
0.00787402
0
CIRCLE
8
BLACK
10
6.711
20
-3.166
40
0.00787402
0
CIRCLE
8
BLACK
10
6.787
20
-3.47
40
0.00787402
0
CIRCLE
8
BLACK
10
6.715
20
-3.57
40
0.00787402
0
CIRCLE
8
BLACK
10
6.177
20
-3.447
40
0.00787402
0
CIRCLE
8
BLACK
10
6.148
20
-3.48
40
0.00787402
0
CIRCLE
8
BLACK
10
6.153
20
-3.61
40
0.00787402
0
CIRCLE
8
BLACK
10
6.105
20
-3.488
40
0.00787402
0
CIRCLE
8
BLACK
10
6.011
20
-3.477
40
0.00787402
0
CIRCLE
8
BLACK
10
5.987
20
-3.434
40
0.00787402
0
CIRCLE
8
BLACK
10
5.97201
20
-3.38
40
0.00787402
0
CIRCLE
8
BLACK
10
5.911
20
-3.224
40
0.00787402
0
CIRCLE
8
BLACK
10
5.8502
20
-3.3618
40
0.00787402
0
CIRCLE
8
BLACK
10
6.14
20
-3.377
40
0.00787402
  0
ENDSEC
  0
EOF
