  0
SECTION
  2
HEADER
  9
$ANGBASE
  50
0.0
  9
$ANGDIR
  70
1
  9
$MEASUREMENT
  70
0
  0
ENDSEC
  0
SECTION
  2
TABLES
  0
TABLE
  2
LTYPE
  70
4
  0
LTYPE
  5
40F
  2
CONTINUOUS
  70
0
  3
Solid line
  72
65
  73
0
  40
0.0
  0
LTYPE
  5
410
  2
DASHDOT
 70
0
  3
Dash Dot ____ _ ____ _
 72
65
 73
4
 40
2.0
 49
1.25
 49
-0.25
 49
0.25
 49
-0.25
  0
LTYPE
  5
411
  2
DASHED
 70
0
  3
Dashed __ __ __ __ __
 72
65
 73
2
 40
0.75
 49
0.5
 49
-0.25
  0
LTYPE
  5
43B
  2
DOTTED
 70
0
  3
Dotted .  .  .  .
 72
65
 73
2
 40
0.2
 49
0.0
 49
-0.2
  0
ENDTAB
  0
TABLE
  2
STYLE
  70
4
  0
STYLE
  2
KICAD
  70
0
  40
0
  41
1
  42
1
  50
0
  71
0
  3
isocp.shx
  0
STYLE
  2
KICADB
  70
0
  40
0
  41
1
  42
1
  50
0
  71
0
  3
isocp.shx
  0
STYLE
  2
KICADI
  70
0
  40
0
  41
1
  42
1
  50
15
  71
0
  3
isocp.shx
  0
STYLE
  2
KICADBI
  70
0
  40
0
  41
1
  42
1
  50
15
  71
0
  3
isocp.shx
  0
ENDTAB
  0
TABLE
  2
LAYER
  70
1
  0
LAYER
  2
BLACK
  70
0
  62
7
  6
CONTINUOUS
  0
ENDTAB
  0
ENDSEC
  0
SECTION
  2
ENTITIES
0
LINE
8
BLACK
6
CONTINUOUS
10
5.9902856692913389
20
-3.8160926771653543
11
5.9967030314960628
21
-3.8187508267716535
0
LINE
8
BLACK
6
CONTINUOUS
10
5.9967030314960628
20
-3.8187508267716535
11
6.0024785039370077
21
-3.8226098818897638
0
LINE
8
BLACK
6
CONTINUOUS
10
6.0024785039370077
20
-3.8226098818897638
11
6.0073901181102363
21
-3.827521496062992
0
LINE
8
BLACK
6
CONTINUOUS
10
6.0073901181102363
20
-3.827521496062992
11
6.0112491732283466
21
-3.8332969685039369
0
LINE
8
BLACK
6
CONTINUOUS
10
6.0112491732283466
20
-3.8332969685039369
11
6.0139073228346458
21
-3.8397143307086612
0
LINE
8
BLACK
6
CONTINUOUS
10
6.0139073228346458
20
-3.8397143307086612
11
6.0152624409448814
21
-3.8465269685039369
0
LINE
8
BLACK
6
CONTINUOUS
10
6.0152624409448814
20
-3.8465269685039369
11
6.0152624409448814
21
-3.8534730314960628
0
LINE
8
BLACK
6
CONTINUOUS
10
6.0152624409448814
20
-3.8534730314960628
11
6.0139073228346458
21
-3.8602856692913385
0
LINE
8
BLACK
6
CONTINUOUS
10
6.0139073228346458
20
-3.8602856692913385
11
6.0112491732283466
21
-3.8667030314960629
0
LINE
8
BLACK
6
CONTINUOUS
10
6.0112491732283466
20
-3.8667030314960629
11
6.0073901181102363
21
-3.8724785039370078
0
LINE
8
BLACK
6
CONTINUOUS
10
6.0073901181102363
20
-3.8724785039370078
11
6.0024785039370077
21
-3.8773901181102359
0
LINE
8
BLACK
6
CONTINUOUS
10
6.0024785039370077
20
-3.8773901181102359
11
5.9967030314960628
21
-3.8812491732283463
0
LINE
8
BLACK
6
CONTINUOUS
10
5.9967030314960628
20
-3.8812491732283463
11
5.9902856692913389
21
-3.8839073228346455
0
LINE
8
BLACK
6
CONTINUOUS
10
5.9902856692913389
20
-3.8839073228346455
11
5.9834730314960627
21
-3.8852624409448819
0
LINE
8
BLACK
6
CONTINUOUS
10
5.9834730314960627
20
-3.8852624409448819
11
5.9765269685039373
21
-3.8852624409448819
0
LINE
8
BLACK
6
CONTINUOUS
10
5.9765269685039373
20
-3.8852624409448819
11
5.9697143307086611
21
-3.8839073228346455
0
LINE
8
BLACK
6
CONTINUOUS
10
5.9697143307086611
20
-3.8839073228346455
11
5.9632969685039372
21
-3.8812491732283463
0
LINE
8
BLACK
6
CONTINUOUS
10
5.9632969685039372
20
-3.8812491732283463
11
5.9575214960629923
21
-3.8773901181102359
0
LINE
8
BLACK
6
CONTINUOUS
10
5.9575214960629923
20
-3.8773901181102359
11
5.9526098818897637
21
-3.8724785039370078
0
LINE
8
BLACK
6
CONTINUOUS
10
5.9526098818897637
20
-3.8724785039370078
11
5.9487508267716533
21
-3.8667030314960629
0
LINE
8
BLACK
6
CONTINUOUS
10
5.9487508267716533
20
-3.8667030314960629
11
5.9460926771653542
21
-3.8602856692913385
0
LINE
8
BLACK
6
CONTINUOUS
10
5.9460926771653542
20
-3.8602856692913385
11
5.9447375590551177
21
-3.8534730314960628
0
LINE
8
BLACK
6
CONTINUOUS
10
5.9447375590551177
20
-3.8534730314960628
11
5.9447375590551177
21
-3.8465269685039369
0
LINE
8
BLACK
6
CONTINUOUS
10
5.9447375590551177
20
-3.8465269685039369
11
5.9460926771653542
21
-3.8397143307086612
0
LINE
8
BLACK
6
CONTINUOUS
10
5.9460926771653542
20
-3.8397143307086612
11
5.9487508267716533
21
-3.8332969685039369
0
LINE
8
BLACK
6
CONTINUOUS
10
5.9487508267716533
20
-3.8332969685039369
11
5.9526098818897637
21
-3.827521496062992
0
LINE
8
BLACK
6
CONTINUOUS
10
5.9526098818897637
20
-3.827521496062992
11
5.9575214960629923
21
-3.8226098818897638
0
LINE
8
BLACK
6
CONTINUOUS
10
5.9575214960629923
20
-3.8226098818897638
11
5.9632969685039372
21
-3.8187508267716535
0
LINE
8
BLACK
6
CONTINUOUS
10
5.9632969685039372
20
-3.8187508267716535
11
5.9697143307086611
21
-3.8160926771653543
0
LINE
8
BLACK
6
CONTINUOUS
10
5.9697143307086611
20
-3.8160926771653543
11
5.9765269685039373
21
-3.8147375590551182
0
LINE
8
BLACK
6
CONTINUOUS
10
5.9765269685039373
20
-3.8147375590551182
11
5.9834730314960627
21
-3.8147375590551182
0
LINE
8
BLACK
6
CONTINUOUS
10
5.9834730314960627
20
-3.8147375590551182
11
5.9902856692913389
21
-3.8160926771653543
0
LINE
8
BLACK
6
CONTINUOUS
10
6.0902856692913385
20
-3.8160926771653543
11
6.0967030314960633
21
-3.8187508267716535
0
LINE
8
BLACK
6
CONTINUOUS
10
6.0967030314960633
20
-3.8187508267716535
11
6.1024785039370073
21
-3.8226098818897638
0
LINE
8
BLACK
6
CONTINUOUS
10
6.1024785039370073
20
-3.8226098818897638
11
6.1073901181102359
21
-3.827521496062992
0
LINE
8
BLACK
6
CONTINUOUS
10
6.1073901181102359
20
-3.827521496062992
11
6.1112491732283463
21
-3.8332969685039369
0
LINE
8
BLACK
6
CONTINUOUS
10
6.1112491732283463
20
-3.8332969685039369
11
6.1139073228346454
21
-3.8397143307086612
0
LINE
8
BLACK
6
CONTINUOUS
10
6.1139073228346454
20
-3.8397143307086612
11
6.1152624409448819
21
-3.8465269685039369
0
LINE
8
BLACK
6
CONTINUOUS
10
6.1152624409448819
20
-3.8465269685039369
11
6.1152624409448819
21
-3.8534730314960628
0
LINE
8
BLACK
6
CONTINUOUS
10
6.1152624409448819
20
-3.8534730314960628
11
6.1139073228346454
21
-3.8602856692913385
0
LINE
8
BLACK
6
CONTINUOUS
10
6.1139073228346454
20
-3.8602856692913385
11
6.1112491732283463
21
-3.8667030314960629
0
LINE
8
BLACK
6
CONTINUOUS
10
6.1112491732283463
20
-3.8667030314960629
11
6.1073901181102359
21
-3.8724785039370078
0
LINE
8
BLACK
6
CONTINUOUS
10
6.1073901181102359
20
-3.8724785039370078
11
6.1024785039370073
21
-3.8773901181102359
0
LINE
8
BLACK
6
CONTINUOUS
10
6.1024785039370073
20
-3.8773901181102359
11
6.0967030314960633
21
-3.8812491732283463
0
LINE
8
BLACK
6
CONTINUOUS
10
6.0967030314960633
20
-3.8812491732283463
11
6.0902856692913385
21
-3.8839073228346455
0
LINE
8
BLACK
6
CONTINUOUS
10
6.0902856692913385
20
-3.8839073228346455
11
6.0834730314960632
21
-3.8852624409448819
0
LINE
8
BLACK
6
CONTINUOUS
10
6.0834730314960632
20
-3.8852624409448819
11
6.0765269685039369
21
-3.8852624409448819
0
LINE
8
BLACK
6
CONTINUOUS
10
6.0765269685039369
20
-3.8852624409448819
11
6.0697143307086616
21
-3.8839073228346455
0
LINE
8
BLACK
6
CONTINUOUS
10
6.0697143307086616
20
-3.8839073228346455
11
6.0632969685039368
21
-3.8812491732283463
0
LINE
8
BLACK
6
CONTINUOUS
10
6.0632969685039368
20
-3.8812491732283463
11
6.057521496062992
21
-3.8773901181102359
0
LINE
8
BLACK
6
CONTINUOUS
10
6.057521496062992
20
-3.8773901181102359
11
6.0526098818897633
21
-3.8724785039370078
0
LINE
8
BLACK
6
CONTINUOUS
10
6.0526098818897633
20
-3.8724785039370078
11
6.048750826771653
21
-3.8667030314960629
0
LINE
8
BLACK
6
CONTINUOUS
10
6.048750826771653
20
-3.8667030314960629
11
6.0460926771653538
21
-3.8602856692913385
0
LINE
8
BLACK
6
CONTINUOUS
10
6.0460926771653538
20
-3.8602856692913385
11
6.0447375590551182
21
-3.8534730314960628
0
LINE
8
BLACK
6
CONTINUOUS
10
6.0447375590551182
20
-3.8534730314960628
11
6.0447375590551182
21
-3.8465269685039369
0
LINE
8
BLACK
6
CONTINUOUS
10
6.0447375590551182
20
-3.8465269685039369
11
6.0460926771653538
21
-3.8397143307086612
0
LINE
8
BLACK
6
CONTINUOUS
10
6.0460926771653538
20
-3.8397143307086612
11
6.048750826771653
21
-3.8332969685039369
0
LINE
8
BLACK
6
CONTINUOUS
10
6.048750826771653
20
-3.8332969685039369
11
6.0526098818897633
21
-3.827521496062992
0
LINE
8
BLACK
6
CONTINUOUS
10
6.0526098818897633
20
-3.827521496062992
11
6.057521496062992
21
-3.8226098818897638
0
LINE
8
BLACK
6
CONTINUOUS
10
6.057521496062992
20
-3.8226098818897638
11
6.0632969685039368
21
-3.8187508267716535
0
LINE
8
BLACK
6
CONTINUOUS
10
6.0632969685039368
20
-3.8187508267716535
11
6.0697143307086616
21
-3.8160926771653543
0
LINE
8
BLACK
6
CONTINUOUS
10
6.0697143307086616
20
-3.8160926771653543
11
6.0765269685039369
21
-3.8147375590551182
0
LINE
8
BLACK
6
CONTINUOUS
10
6.0765269685039369
20
-3.8147375590551182
11
6.0834730314960632
21
-3.8147375590551182
0
LINE
8
BLACK
6
CONTINUOUS
10
6.0834730314960632
20
-3.8147375590551182
11
6.0902856692913385
21
-3.8160926771653543
0
LINE
8
BLACK
6
CONTINUOUS
10
5.5902178740157478
20
-3.8137167716535432
11
5.5908564960629921
21
-3.8141435039370077
0
LINE
8
BLACK
6
CONTINUOUS
10
5.5908564960629921
20
-3.8141435039370077
11
5.5912832283464562
21
-3.814782125984252
0
LINE
8
BLACK
6
CONTINUOUS
10
5.5912832283464562
20
-3.814782125984252
11
5.5914330708661417
21
-3.815535433070866
0
LINE
8
BLACK
6
CONTINUOUS
10
5.5914330708661417
20
-3.815535433070866
11
5.5914330708661417
21
-3.8824645669291336
0
LINE
8
BLACK
6
CONTINUOUS
10
5.5914330708661417
20
-3.8824645669291336
11
5.5912832283464562
21
-3.8832178740157479
0
LINE
8
BLACK
6
CONTINUOUS
10
5.5912832283464562
20
-3.8832178740157479
11
5.5908564960629921
21
-3.8838564960629922
0
LINE
8
BLACK
6
CONTINUOUS
10
5.5908564960629921
20
-3.8838564960629922
11
5.5902178740157478
21
-3.8842832283464568
0
LINE
8
BLACK
6
CONTINUOUS
10
5.5902178740157478
20
-3.8842832283464568
11
5.5894645669291334
21
-3.8844330708661414
0
LINE
8
BLACK
6
CONTINUOUS
10
5.5894645669291334
20
-3.8844330708661414
11
5.5225354330708658
21
-3.8844330708661414
0
LINE
8
BLACK
6
CONTINUOUS
10
5.5225354330708658
20
-3.8844330708661414
11
5.5217821259842514
21
-3.8842832283464568
0
LINE
8
BLACK
6
CONTINUOUS
10
5.5217821259842514
20
-3.8842832283464568
11
5.521143503937008
21
-3.8838564960629922
0
LINE
8
BLACK
6
CONTINUOUS
10
5.521143503937008
20
-3.8838564960629922
11
5.520716771653543
21
-3.8832178740157479
0
LINE
8
BLACK
6
CONTINUOUS
10
5.520716771653543
20
-3.8832178740157479
11
5.5205669291338584
21
-3.8824645669291336
0
LINE
8
BLACK
6
CONTINUOUS
10
5.5205669291338584
20
-3.8824645669291336
11
5.5205669291338584
21
-3.815535433070866
0
LINE
8
BLACK
6
CONTINUOUS
10
5.5205669291338584
20
-3.815535433070866
11
5.520716771653543
21
-3.814782125984252
0
LINE
8
BLACK
6
CONTINUOUS
10
5.520716771653543
20
-3.814782125984252
11
5.521143503937008
21
-3.8141435039370077
0
LINE
8
BLACK
6
CONTINUOUS
10
5.521143503937008
20
-3.8141435039370077
11
5.5217821259842514
21
-3.8137167716535432
0
LINE
8
BLACK
6
CONTINUOUS
10
5.5217821259842514
20
-3.8137167716535432
11
5.5225354330708658
21
-3.8135669291338581
0
LINE
8
BLACK
6
CONTINUOUS
10
5.5225354330708658
20
-3.8135669291338581
11
5.5894645669291334
21
-3.8135669291338581
0
LINE
8
BLACK
6
CONTINUOUS
10
5.5894645669291334
20
-3.8135669291338581
11
5.5902178740157478
21
-3.8137167716535432
0
LINE
8
BLACK
6
CONTINUOUS
10
5.6662856692913381
20
-3.8150926771653544
11
5.6727030314960629
21
-3.8177508267716536
0
LINE
8
BLACK
6
CONTINUOUS
10
5.6727030314960629
20
-3.8177508267716536
11
5.6784785039370078
21
-3.8216098818897635
0
LINE
8
BLACK
6
CONTINUOUS
10
5.6784785039370078
20
-3.8216098818897635
11
5.6833901181102364
21
-3.8265214960629921
0
LINE
8
BLACK
6
CONTINUOUS
10
5.6833901181102364
20
-3.8265214960629921
11
5.6872491732283459
21
-3.832296968503937
0
LINE
8
BLACK
6
CONTINUOUS
10
5.6872491732283459
20
-3.832296968503937
11
5.689907322834646
21
-3.8387143307086613
0
LINE
8
BLACK
6
CONTINUOUS
10
5.689907322834646
20
-3.8387143307086613
11
5.6912624409448815
21
-3.845526968503937
0
LINE
8
BLACK
6
CONTINUOUS
10
5.6912624409448815
20
-3.845526968503937
11
5.6912624409448815
21
-3.8524730314960629
0
LINE
8
BLACK
6
CONTINUOUS
10
5.6912624409448815
20
-3.8524730314960629
11
5.689907322834646
21
-3.8592856692913386
0
LINE
8
BLACK
6
CONTINUOUS
10
5.689907322834646
20
-3.8592856692913386
11
5.6872491732283459
21
-3.865703031496063
0
LINE
8
BLACK
6
CONTINUOUS
10
5.6872491732283459
20
-3.865703031496063
11
5.6833901181102364
21
-3.8714785039370079
0
LINE
8
BLACK
6
CONTINUOUS
10
5.6833901181102364
20
-3.8714785039370079
11
5.6784785039370078
21
-3.876390118110236
0
LINE
8
BLACK
6
CONTINUOUS
10
5.6784785039370078
20
-3.876390118110236
11
5.6727030314960629
21
-3.8802491732283464
0
LINE
8
BLACK
6
CONTINUOUS
10
5.6727030314960629
20
-3.8802491732283464
11
5.6662856692913381
21
-3.8829073228346456
0
LINE
8
BLACK
6
CONTINUOUS
10
5.6662856692913381
20
-3.8829073228346456
11
5.6594730314960628
21
-3.8842624409448816
0
LINE
8
BLACK
6
CONTINUOUS
10
5.6594730314960628
20
-3.8842624409448816
11
5.6525269685039365
21
-3.8842624409448816
0
LINE
8
BLACK
6
CONTINUOUS
10
5.6525269685039365
20
-3.8842624409448816
11
5.6457143307086612
21
-3.8829073228346456
0
LINE
8
BLACK
6
CONTINUOUS
10
5.6457143307086612
20
-3.8829073228346456
11
5.6392969685039365
21
-3.8802491732283464
0
LINE
8
BLACK
6
CONTINUOUS
10
5.6392969685039365
20
-3.8802491732283464
11
5.6335214960629916
21
-3.876390118110236
0
LINE
8
BLACK
6
CONTINUOUS
10
5.6335214960629916
20
-3.876390118110236
11
5.6286098818897639
21
-3.8714785039370079
0
LINE
8
BLACK
6
CONTINUOUS
10
5.6286098818897639
20
-3.8714785039370079
11
5.6247508267716535
21
-3.865703031496063
0
LINE
8
BLACK
6
CONTINUOUS
10
5.6247508267716535
20
-3.865703031496063
11
5.6220926771653543
21
-3.8592856692913386
0
LINE
8
BLACK
6
CONTINUOUS
10
5.6220926771653543
20
-3.8592856692913386
11
5.6207375590551178
21
-3.8524730314960629
0
LINE
8
BLACK
6
CONTINUOUS
10
5.6207375590551178
20
-3.8524730314960629
11
5.6207375590551178
21
-3.845526968503937
0
LINE
8
BLACK
6
CONTINUOUS
10
5.6207375590551178
20
-3.845526968503937
11
5.6220926771653543
21
-3.8387143307086613
0
LINE
8
BLACK
6
CONTINUOUS
10
5.6220926771653543
20
-3.8387143307086613
11
5.6247508267716535
21
-3.832296968503937
0
LINE
8
BLACK
6
CONTINUOUS
10
5.6247508267716535
20
-3.832296968503937
11
5.6286098818897639
21
-3.8265214960629921
0
LINE
8
BLACK
6
CONTINUOUS
10
5.6286098818897639
20
-3.8265214960629921
11
5.6335214960629916
21
-3.8216098818897635
0
LINE
8
BLACK
6
CONTINUOUS
10
5.6335214960629916
20
-3.8216098818897635
11
5.6392969685039365
21
-3.8177508267716536
0
LINE
8
BLACK
6
CONTINUOUS
10
5.6392969685039365
20
-3.8177508267716536
11
5.6457143307086612
21
-3.8150926771653544
0
LINE
8
BLACK
6
CONTINUOUS
10
5.6457143307086612
20
-3.8150926771653544
11
5.6525269685039365
21
-3.8137375590551179
0
LINE
8
BLACK
6
CONTINUOUS
10
5.6525269685039365
20
-3.8137375590551179
11
5.6594730314960628
21
-3.8137375590551179
0
LINE
8
BLACK
6
CONTINUOUS
10
5.6594730314960628
20
-3.8137375590551179
11
5.6662856692913381
21
-3.8150926771653544
0
LINE
8
BLACK
6
CONTINUOUS
10
5.7662856692913387
20
-3.8150926771653544
11
5.7727030314960626
21
-3.8177508267716536
0
LINE
8
BLACK
6
CONTINUOUS
10
5.7727030314960626
20
-3.8177508267716536
11
5.7784785039370075
21
-3.8216098818897635
0
LINE
8
BLACK
6
CONTINUOUS
10
5.7784785039370075
20
-3.8216098818897635
11
5.7833901181102361
21
-3.8265214960629921
0
LINE
8
BLACK
6
CONTINUOUS
10
5.7833901181102361
20
-3.8265214960629921
11
5.7872491732283464
21
-3.832296968503937
0
LINE
8
BLACK
6
CONTINUOUS
10
5.7872491732283464
20
-3.832296968503937
11
5.7899073228346456
21
-3.8387143307086613
0
LINE
8
BLACK
6
CONTINUOUS
10
5.7899073228346456
20
-3.8387143307086613
11
5.7912624409448821
21
-3.845526968503937
0
LINE
8
BLACK
6
CONTINUOUS
10
5.7912624409448821
20
-3.845526968503937
11
5.7912624409448821
21
-3.8524730314960629
0
LINE
8
BLACK
6
CONTINUOUS
10
5.7912624409448821
20
-3.8524730314960629
11
5.7899073228346456
21
-3.8592856692913386
0
LINE
8
BLACK
6
CONTINUOUS
10
5.7899073228346456
20
-3.8592856692913386
11
5.7872491732283464
21
-3.865703031496063
0
LINE
8
BLACK
6
CONTINUOUS
10
5.7872491732283464
20
-3.865703031496063
11
5.7833901181102361
21
-3.8714785039370079
0
LINE
8
BLACK
6
CONTINUOUS
10
5.7833901181102361
20
-3.8714785039370079
11
5.7784785039370075
21
-3.876390118110236
0
LINE
8
BLACK
6
CONTINUOUS
10
5.7784785039370075
20
-3.876390118110236
11
5.7727030314960626
21
-3.8802491732283464
0
LINE
8
BLACK
6
CONTINUOUS
10
5.7727030314960626
20
-3.8802491732283464
11
5.7662856692913387
21
-3.8829073228346456
0
LINE
8
BLACK
6
CONTINUOUS
10
5.7662856692913387
20
-3.8829073228346456
11
5.7594730314960625
21
-3.8842624409448816
0
LINE
8
BLACK
6
CONTINUOUS
10
5.7594730314960625
20
-3.8842624409448816
11
5.7525269685039371
21
-3.8842624409448816
0
LINE
8
BLACK
6
CONTINUOUS
10
5.7525269685039371
20
-3.8842624409448816
11
5.7457143307086609
21
-3.8829073228346456
0
LINE
8
BLACK
6
CONTINUOUS
10
5.7457143307086609
20
-3.8829073228346456
11
5.739296968503937
21
-3.8802491732283464
0
LINE
8
BLACK
6
CONTINUOUS
10
5.739296968503937
20
-3.8802491732283464
11
5.7335214960629921
21
-3.876390118110236
0
LINE
8
BLACK
6
CONTINUOUS
10
5.7335214960629921
20
-3.876390118110236
11
5.7286098818897635
21
-3.8714785039370079
0
LINE
8
BLACK
6
CONTINUOUS
10
5.7286098818897635
20
-3.8714785039370079
11
5.7247508267716531
21
-3.865703031496063
0
LINE
8
BLACK
6
CONTINUOUS
10
5.7247508267716531
20
-3.865703031496063
11
5.722092677165354
21
-3.8592856692913386
0
LINE
8
BLACK
6
CONTINUOUS
10
5.722092677165354
20
-3.8592856692913386
11
5.7207375590551184
21
-3.8524730314960629
0
LINE
8
BLACK
6
CONTINUOUS
10
5.7207375590551184
20
-3.8524730314960629
11
5.7207375590551184
21
-3.845526968503937
0
LINE
8
BLACK
6
CONTINUOUS
10
5.7207375590551184
20
-3.845526968503937
11
5.722092677165354
21
-3.8387143307086613
0
LINE
8
BLACK
6
CONTINUOUS
10
5.722092677165354
20
-3.8387143307086613
11
5.7247508267716531
21
-3.832296968503937
0
LINE
8
BLACK
6
CONTINUOUS
10
5.7247508267716531
20
-3.832296968503937
11
5.7286098818897635
21
-3.8265214960629921
0
LINE
8
BLACK
6
CONTINUOUS
10
5.7286098818897635
20
-3.8265214960629921
11
5.7335214960629921
21
-3.8216098818897635
0
LINE
8
BLACK
6
CONTINUOUS
10
5.7335214960629921
20
-3.8216098818897635
11
5.739296968503937
21
-3.8177508267716536
0
LINE
8
BLACK
6
CONTINUOUS
10
5.739296968503937
20
-3.8177508267716536
11
5.7457143307086609
21
-3.8150926771653544
0
LINE
8
BLACK
6
CONTINUOUS
10
5.7457143307086609
20
-3.8150926771653544
11
5.7525269685039371
21
-3.8137375590551179
0
LINE
8
BLACK
6
CONTINUOUS
10
5.7525269685039371
20
-3.8137375590551179
11
5.7594730314960625
21
-3.8137375590551179
0
LINE
8
BLACK
6
CONTINUOUS
10
5.7594730314960625
20
-3.8137375590551179
11
5.7662856692913387
21
-3.8150926771653544
0
LINE
8
BLACK
6
CONTINUOUS
10
4.855386771653543
20
-3.7653024409448816
11
4.863612480314961
21
-3.7679751574803149
0
LINE
8
BLACK
6
CONTINUOUS
10
4.863612480314961
20
-3.7679751574803149
11
4.8713188188976373
21
-3.7719017322834643
0
LINE
8
BLACK
6
CONTINUOUS
10
4.8713188188976373
20
-3.7719017322834643
11
4.8783160236220473
21
-3.7769855118110236
0
LINE
8
BLACK
6
CONTINUOUS
10
4.8783160236220473
20
-3.7769855118110236
11
4.8844318110236218
21
-3.7831012992125985
0
LINE
8
BLACK
6
CONTINUOUS
10
4.8844318110236218
20
-3.7831012992125985
11
4.8895155905511807
21
-3.7900985039370076
0
LINE
8
BLACK
6
CONTINUOUS
10
4.8895155905511807
20
-3.7900985039370076
11
4.8934421653543305
21
-3.7978048425196849
0
LINE
8
BLACK
6
CONTINUOUS
10
4.8934421653543305
20
-3.7978048425196849
11
4.8961148818897637
21
-3.8060305511811023
0
LINE
8
BLACK
6
CONTINUOUS
10
4.8961148818897637
20
-3.8060305511811023
11
4.8974678740157476
21
-3.8145731102362204
0
LINE
8
BLACK
6
CONTINUOUS
10
4.8974678740157476
20
-3.8145731102362204
11
4.8974678740157476
21
-3.8232221653543306
0
LINE
8
BLACK
6
CONTINUOUS
10
4.8974678740157476
20
-3.8232221653543306
11
4.8961148818897637
21
-3.8317647244094486
0
LINE
8
BLACK
6
CONTINUOUS
10
4.8961148818897637
20
-3.8317647244094486
11
4.8934421653543305
21
-3.8399904330708661
0
LINE
8
BLACK
6
CONTINUOUS
10
4.8934421653543305
20
-3.8399904330708661
11
4.8895155905511807
21
-3.8476967716535433
0
LINE
8
BLACK
6
CONTINUOUS
10
4.8895155905511807
20
-3.8476967716535433
11
4.8844318110236218
21
-3.8546939763779529
0
LINE
8
BLACK
6
CONTINUOUS
10
4.8844318110236218
20
-3.8546939763779529
11
4.8783160236220473
21
-3.8608097637795273
0
LINE
8
BLACK
6
CONTINUOUS
10
4.8783160236220473
20
-3.8608097637795273
11
4.8713188188976373
21
-3.8658935433070867
0
LINE
8
BLACK
6
CONTINUOUS
10
4.8713188188976373
20
-3.8658935433070867
11
4.863612480314961
21
-3.8698201181102361
0
LINE
8
BLACK
6
CONTINUOUS
10
4.863612480314961
20
-3.8698201181102361
11
4.855386771653543
21
-3.8724928346456693
0
LINE
8
BLACK
6
CONTINUOUS
10
4.855386771653543
20
-3.8724928346456693
11
4.846844212598425
21
-3.8738458267716536
0
LINE
8
BLACK
6
CONTINUOUS
10
4.846844212598425
20
-3.8738458267716536
11
4.8381951574803148
21
-3.8738458267716536
0
LINE
8
BLACK
6
CONTINUOUS
10
4.8381951574803148
20
-3.8738458267716536
11
4.8296525984251968
21
-3.8724928346456693
0
LINE
8
BLACK
6
CONTINUOUS
10
4.8296525984251968
20
-3.8724928346456693
11
4.8214268897637798
21
-3.8698201181102361
0
LINE
8
BLACK
6
CONTINUOUS
10
4.8214268897637798
20
-3.8698201181102361
11
4.8137205511811025
21
-3.8658935433070867
0
LINE
8
BLACK
6
CONTINUOUS
10
4.8137205511811025
20
-3.8658935433070867
11
4.8067233464566925
21
-3.8608097637795273
0
LINE
8
BLACK
6
CONTINUOUS
10
4.8067233464566925
20
-3.8608097637795273
11
4.800607559055118
21
-3.8546939763779529
0
LINE
8
BLACK
6
CONTINUOUS
10
4.800607559055118
20
-3.8546939763779529
11
4.7955237795275591
21
-3.8476967716535433
0
LINE
8
BLACK
6
CONTINUOUS
10
4.7955237795275591
20
-3.8476967716535433
11
4.7915972047244093
21
-3.8399904330708661
0
LINE
8
BLACK
6
CONTINUOUS
10
4.7915972047244093
20
-3.8399904330708661
11
4.7889244881889761
21
-3.8317647244094486
0
LINE
8
BLACK
6
CONTINUOUS
10
4.7889244881889761
20
-3.8317647244094486
11
4.7875714960629923
21
-3.8232221653543306
0
LINE
8
BLACK
6
CONTINUOUS
10
4.7875714960629923
20
-3.8232221653543306
11
4.7875714960629923
21
-3.8145731102362204
0
LINE
8
BLACK
6
CONTINUOUS
10
4.7875714960629923
20
-3.8145731102362204
11
4.7889244881889761
21
-3.8060305511811023
0
LINE
8
BLACK
6
CONTINUOUS
10
4.7889244881889761
20
-3.8060305511811023
11
4.7915972047244093
21
-3.7978048425196849
0
LINE
8
BLACK
6
CONTINUOUS
10
4.7915972047244093
20
-3.7978048425196849
11
4.7955237795275591
21
-3.7900985039370076
0
LINE
8
BLACK
6
CONTINUOUS
10
4.7955237795275591
20
-3.7900985039370076
11
4.800607559055118
21
-3.7831012992125985
0
LINE
8
BLACK
6
CONTINUOUS
10
4.800607559055118
20
-3.7831012992125985
11
4.8067233464566925
21
-3.7769855118110236
0
LINE
8
BLACK
6
CONTINUOUS
10
4.8067233464566925
20
-3.7769855118110236
11
4.8137205511811025
21
-3.7719017322834643
0
LINE
8
BLACK
6
CONTINUOUS
10
4.8137205511811025
20
-3.7719017322834643
11
4.8214268897637798
21
-3.7679751574803149
0
LINE
8
BLACK
6
CONTINUOUS
10
4.8214268897637798
20
-3.7679751574803149
11
4.8296525984251968
21
-3.7653024409448816
0
LINE
8
BLACK
6
CONTINUOUS
10
4.8296525984251968
20
-3.7653024409448816
11
4.8381951574803148
21
-3.7639494488188974
0
LINE
8
BLACK
6
CONTINUOUS
10
4.8381951574803148
20
-3.7639494488188974
11
4.846844212598425
21
-3.7639494488188974
0
LINE
8
BLACK
6
CONTINUOUS
10
4.846844212598425
20
-3.7639494488188974
11
4.855386771653543
21
-3.7653024409448816
0
LINE
8
BLACK
6
CONTINUOUS
10
6.9813710236220468
20
-3.7653024409448816
11
6.9895967322834647
21
-3.7679751574803149
0
LINE
8
BLACK
6
CONTINUOUS
10
6.9895967322834647
20
-3.7679751574803149
11
6.9973030708661419
21
-3.7719017322834643
0
LINE
8
BLACK
6
CONTINUOUS
10
6.9973030708661419
20
-3.7719017322834643
11
7.004300275590551
21
-3.7769855118110236
0
LINE
8
BLACK
6
CONTINUOUS
10
7.004300275590551
20
-3.7769855118110236
11
7.0104160629921255
21
-3.7831012992125985
0
LINE
8
BLACK
6
CONTINUOUS
10
7.0104160629921255
20
-3.7831012992125985
11
7.0154998425196853
21
-3.7900985039370076
0
LINE
8
BLACK
6
CONTINUOUS
10
7.0154998425196853
20
-3.7900985039370076
11
7.0194264173228342
21
-3.7978048425196849
0
LINE
8
BLACK
6
CONTINUOUS
10
7.0194264173228342
20
-3.7978048425196849
11
7.0220991338582675
21
-3.8060305511811023
0
LINE
8
BLACK
6
CONTINUOUS
10
7.0220991338582675
20
-3.8060305511811023
11
7.0234521259842522
21
-3.8145731102362204
0
LINE
8
BLACK
6
CONTINUOUS
10
7.0234521259842522
20
-3.8145731102362204
11
7.0234521259842522
21
-3.8232221653543306
0
LINE
8
BLACK
6
CONTINUOUS
10
7.0234521259842522
20
-3.8232221653543306
11
7.0220991338582675
21
-3.8317647244094486
0
LINE
8
BLACK
6
CONTINUOUS
10
7.0220991338582675
20
-3.8317647244094486
11
7.0194264173228342
21
-3.8399904330708661
0
LINE
8
BLACK
6
CONTINUOUS
10
7.0194264173228342
20
-3.8399904330708661
11
7.0154998425196853
21
-3.8476967716535433
0
LINE
8
BLACK
6
CONTINUOUS
10
7.0154998425196853
20
-3.8476967716535433
11
7.0104160629921255
21
-3.8546939763779529
0
LINE
8
BLACK
6
CONTINUOUS
10
7.0104160629921255
20
-3.8546939763779529
11
7.004300275590551
21
-3.8608097637795273
0
LINE
8
BLACK
6
CONTINUOUS
10
7.004300275590551
20
-3.8608097637795273
11
6.9973030708661419
21
-3.8658935433070867
0
LINE
8
BLACK
6
CONTINUOUS
10
6.9973030708661419
20
-3.8658935433070867
11
6.9895967322834647
21
-3.8698201181102361
0
LINE
8
BLACK
6
CONTINUOUS
10
6.9895967322834647
20
-3.8698201181102361
11
6.9813710236220468
21
-3.8724928346456693
0
LINE
8
BLACK
6
CONTINUOUS
10
6.9813710236220468
20
-3.8724928346456693
11
6.9728284645669287
21
-3.8738458267716536
0
LINE
8
BLACK
6
CONTINUOUS
10
6.9728284645669287
20
-3.8738458267716536
11
6.9641794094488185
21
-3.8738458267716536
0
LINE
8
BLACK
6
CONTINUOUS
10
6.9641794094488185
20
-3.8738458267716536
11
6.9556368503937005
21
-3.8724928346456693
0
LINE
8
BLACK
6
CONTINUOUS
10
6.9556368503937005
20
-3.8724928346456693
11
6.9474111417322835
21
-3.8698201181102361
0
LINE
8
BLACK
6
CONTINUOUS
10
6.9474111417322835
20
-3.8698201181102361
11
6.9397048031496062
21
-3.8658935433070867
0
LINE
8
BLACK
6
CONTINUOUS
10
6.9397048031496062
20
-3.8658935433070867
11
6.9327075984251971
21
-3.8608097637795273
0
LINE
8
BLACK
6
CONTINUOUS
10
6.9327075984251971
20
-3.8608097637795273
11
6.9265918110236218
21
-3.8546939763779529
0
LINE
8
BLACK
6
CONTINUOUS
10
6.9265918110236218
20
-3.8546939763779529
11
6.9215080314960629
21
-3.8476967716535433
0
LINE
8
BLACK
6
CONTINUOUS
10
6.9215080314960629
20
-3.8476967716535433
11
6.917581456692913
21
-3.8399904330708661
0
LINE
8
BLACK
6
CONTINUOUS
10
6.917581456692913
20
-3.8399904330708661
11
6.9149087401574798
21
-3.8317647244094486
0
LINE
8
BLACK
6
CONTINUOUS
10
6.9149087401574798
20
-3.8317647244094486
11
6.913555748031496
21
-3.8232221653543306
0
LINE
8
BLACK
6
CONTINUOUS
10
6.913555748031496
20
-3.8232221653543306
11
6.913555748031496
21
-3.8145731102362204
0
LINE
8
BLACK
6
CONTINUOUS
10
6.913555748031496
20
-3.8145731102362204
11
6.9149087401574798
21
-3.8060305511811023
0
LINE
8
BLACK
6
CONTINUOUS
10
6.9149087401574798
20
-3.8060305511811023
11
6.917581456692913
21
-3.7978048425196849
0
LINE
8
BLACK
6
CONTINUOUS
10
6.917581456692913
20
-3.7978048425196849
11
6.9215080314960629
21
-3.7900985039370076
0
LINE
8
BLACK
6
CONTINUOUS
10
6.9215080314960629
20
-3.7900985039370076
11
6.9265918110236218
21
-3.7831012992125985
0
LINE
8
BLACK
6
CONTINUOUS
10
6.9265918110236218
20
-3.7831012992125985
11
6.9327075984251971
21
-3.7769855118110236
0
LINE
8
BLACK
6
CONTINUOUS
10
6.9327075984251971
20
-3.7769855118110236
11
6.9397048031496062
21
-3.7719017322834643
0
LINE
8
BLACK
6
CONTINUOUS
10
6.9397048031496062
20
-3.7719017322834643
11
6.9474111417322835
21
-3.7679751574803149
0
LINE
8
BLACK
6
CONTINUOUS
10
6.9474111417322835
20
-3.7679751574803149
11
6.9556368503937005
21
-3.7653024409448816
0
LINE
8
BLACK
6
CONTINUOUS
10
6.9556368503937005
20
-3.7653024409448816
11
6.9641794094488185
21
-3.7639494488188974
0
LINE
8
BLACK
6
CONTINUOUS
10
6.9641794094488185
20
-3.7639494488188974
11
6.9728284645669287
21
-3.7639494488188974
0
LINE
8
BLACK
6
CONTINUOUS
10
6.9728284645669287
20
-3.7639494488188974
11
6.9813710236220468
21
-3.7653024409448816
0
LINE
8
BLACK
6
CONTINUOUS
10
6.0142178740157481
20
-3.7147167716535434
11
6.0148564960629916
21
-3.715143503937008
0
LINE
8
BLACK
6
CONTINUOUS
10
6.0148564960629916
20
-3.715143503937008
11
6.0152832283464566
21
-3.7157821259842518
0
LINE
8
BLACK
6
CONTINUOUS
10
6.0152832283464566
20
-3.7157821259842518
11
6.0154330708661412
21
-3.7165354330708662
0
LINE
8
BLACK
6
CONTINUOUS
10
6.0154330708661412
20
-3.7165354330708662
11
6.0154330708661412
21
-3.7834645669291338
0
LINE
8
BLACK
6
CONTINUOUS
10
6.0154330708661412
20
-3.7834645669291338
11
6.0152832283464566
21
-3.7842178740157482
0
LINE
8
BLACK
6
CONTINUOUS
10
6.0152832283464566
20
-3.7842178740157482
11
6.0148564960629916
21
-3.784856496062992
0
LINE
8
BLACK
6
CONTINUOUS
10
6.0148564960629916
20
-3.784856496062992
11
6.0142178740157481
21
-3.7852832283464566
0
LINE
8
BLACK
6
CONTINUOUS
10
6.0142178740157481
20
-3.7852832283464566
11
6.0134645669291338
21
-3.7854330708661417
0
LINE
8
BLACK
6
CONTINUOUS
10
6.0134645669291338
20
-3.7854330708661417
11
5.9465354330708662
21
-3.7854330708661417
0
LINE
8
BLACK
6
CONTINUOUS
10
5.9465354330708662
20
-3.7854330708661417
11
5.9457821259842518
21
-3.7852832283464566
0
LINE
8
BLACK
6
CONTINUOUS
10
5.9457821259842518
20
-3.7852832283464566
11
5.9451435039370075
21
-3.784856496062992
0
LINE
8
BLACK
6
CONTINUOUS
10
5.9451435039370075
20
-3.784856496062992
11
5.9447167716535434
21
-3.7842178740157482
0
LINE
8
BLACK
6
CONTINUOUS
10
5.9447167716535434
20
-3.7842178740157482
11
5.9445669291338579
21
-3.7834645669291338
0
LINE
8
BLACK
6
CONTINUOUS
10
5.9445669291338579
20
-3.7834645669291338
11
5.9445669291338579
21
-3.7165354330708662
0
LINE
8
BLACK
6
CONTINUOUS
10
5.9445669291338579
20
-3.7165354330708662
11
5.9447167716535434
21
-3.7157821259842518
0
LINE
8
BLACK
6
CONTINUOUS
10
5.9447167716535434
20
-3.7157821259842518
11
5.9451435039370075
21
-3.715143503937008
0
LINE
8
BLACK
6
CONTINUOUS
10
5.9451435039370075
20
-3.715143503937008
11
5.9457821259842518
21
-3.7147167716535434
0
LINE
8
BLACK
6
CONTINUOUS
10
5.9457821259842518
20
-3.7147167716535434
11
5.9465354330708662
21
-3.7145669291338583
0
LINE
8
BLACK
6
CONTINUOUS
10
5.9465354330708662
20
-3.7145669291338583
11
6.0134645669291338
21
-3.7145669291338583
0
LINE
8
BLACK
6
CONTINUOUS
10
6.0134645669291338
20
-3.7145669291338583
11
6.0142178740157481
21
-3.7147167716535434
0
LINE
8
BLACK
6
CONTINUOUS
10
6.0902856692913385
20
-3.7160926771653542
11
6.0967030314960633
21
-3.7187508267716534
0
LINE
8
BLACK
6
CONTINUOUS
10
6.0967030314960633
20
-3.7187508267716534
11
6.1024785039370073
21
-3.7226098818897637
0
LINE
8
BLACK
6
CONTINUOUS
10
6.1024785039370073
20
-3.7226098818897637
11
6.1073901181102359
21
-3.7275214960629919
0
LINE
8
BLACK
6
CONTINUOUS
10
6.1073901181102359
20
-3.7275214960629919
11
6.1112491732283463
21
-3.7332969685039368
0
LINE
8
BLACK
6
CONTINUOUS
10
6.1112491732283463
20
-3.7332969685039368
11
6.1139073228346454
21
-3.7397143307086615
0
LINE
8
BLACK
6
CONTINUOUS
10
6.1139073228346454
20
-3.7397143307086615
11
6.1152624409448819
21
-3.7465269685039368
0
LINE
8
BLACK
6
CONTINUOUS
10
6.1152624409448819
20
-3.7465269685039368
11
6.1152624409448819
21
-3.7534730314960627
0
LINE
8
BLACK
6
CONTINUOUS
10
6.1152624409448819
20
-3.7534730314960627
11
6.1139073228346454
21
-3.7602856692913385
0
LINE
8
BLACK
6
CONTINUOUS
10
6.1139073228346454
20
-3.7602856692913385
11
6.1112491732283463
21
-3.7667030314960628
0
LINE
8
BLACK
6
CONTINUOUS
10
6.1112491732283463
20
-3.7667030314960628
11
6.1073901181102359
21
-3.7724785039370077
0
LINE
8
BLACK
6
CONTINUOUS
10
6.1073901181102359
20
-3.7724785039370077
11
6.1024785039370073
21
-3.7773901181102363
0
LINE
8
BLACK
6
CONTINUOUS
10
6.1024785039370073
20
-3.7773901181102363
11
6.0967030314960633
21
-3.7812491732283462
0
LINE
8
BLACK
6
CONTINUOUS
10
6.0967030314960633
20
-3.7812491732283462
11
6.0902856692913385
21
-3.7839073228346454
0
LINE
8
BLACK
6
CONTINUOUS
10
6.0902856692913385
20
-3.7839073228346454
11
6.0834730314960632
21
-3.7852624409448818
0
LINE
8
BLACK
6
CONTINUOUS
10
6.0834730314960632
20
-3.7852624409448818
11
6.0765269685039369
21
-3.7852624409448818
0
LINE
8
BLACK
6
CONTINUOUS
10
6.0765269685039369
20
-3.7852624409448818
11
6.0697143307086616
21
-3.7839073228346454
0
LINE
8
BLACK
6
CONTINUOUS
10
6.0697143307086616
20
-3.7839073228346454
11
6.0632969685039368
21
-3.7812491732283462
0
LINE
8
BLACK
6
CONTINUOUS
10
6.0632969685039368
20
-3.7812491732283462
11
6.057521496062992
21
-3.7773901181102363
0
LINE
8
BLACK
6
CONTINUOUS
10
6.057521496062992
20
-3.7773901181102363
11
6.0526098818897633
21
-3.7724785039370077
0
LINE
8
BLACK
6
CONTINUOUS
10
6.0526098818897633
20
-3.7724785039370077
11
6.048750826771653
21
-3.7667030314960628
0
LINE
8
BLACK
6
CONTINUOUS
10
6.048750826771653
20
-3.7667030314960628
11
6.0460926771653538
21
-3.7602856692913385
0
LINE
8
BLACK
6
CONTINUOUS
10
6.0460926771653538
20
-3.7602856692913385
11
6.0447375590551182
21
-3.7534730314960627
0
LINE
8
BLACK
6
CONTINUOUS
10
6.0447375590551182
20
-3.7534730314960627
11
6.0447375590551182
21
-3.7465269685039368
0
LINE
8
BLACK
6
CONTINUOUS
10
6.0447375590551182
20
-3.7465269685039368
11
6.0460926771653538
21
-3.7397143307086615
0
LINE
8
BLACK
6
CONTINUOUS
10
6.0460926771653538
20
-3.7397143307086615
11
6.048750826771653
21
-3.7332969685039368
0
LINE
8
BLACK
6
CONTINUOUS
10
6.048750826771653
20
-3.7332969685039368
11
6.0526098818897633
21
-3.7275214960629919
0
LINE
8
BLACK
6
CONTINUOUS
10
6.0526098818897633
20
-3.7275214960629919
11
6.057521496062992
21
-3.7226098818897637
0
LINE
8
BLACK
6
CONTINUOUS
10
6.057521496062992
20
-3.7226098818897637
11
6.0632969685039368
21
-3.7187508267716534
0
LINE
8
BLACK
6
CONTINUOUS
10
6.0632969685039368
20
-3.7187508267716534
11
6.0697143307086616
21
-3.7160926771653542
0
LINE
8
BLACK
6
CONTINUOUS
10
6.0697143307086616
20
-3.7160926771653542
11
6.0765269685039369
21
-3.7147375590551182
0
LINE
8
BLACK
6
CONTINUOUS
10
6.0765269685039369
20
-3.7147375590551182
11
6.0834730314960632
21
-3.7147375590551182
0
LINE
8
BLACK
6
CONTINUOUS
10
6.0834730314960632
20
-3.7147375590551182
11
6.0902856692913385
21
-3.7160926771653542
0
LINE
8
BLACK
6
CONTINUOUS
10
5.5662856692913385
20
-3.7150926771653543
11
5.5727030314960633
21
-3.7177508267716535
0
LINE
8
BLACK
6
CONTINUOUS
10
5.5727030314960633
20
-3.7177508267716535
11
5.5784785039370082
21
-3.7216098818897638
0
LINE
8
BLACK
6
CONTINUOUS
10
5.5784785039370082
20
-3.7216098818897638
11
5.5833901181102359
21
-3.726521496062992
0
LINE
8
BLACK
6
CONTINUOUS
10
5.5833901181102359
20
-3.726521496062992
11
5.5872491732283462
21
-3.7322969685039369
0
LINE
8
BLACK
6
CONTINUOUS
10
5.5872491732283462
20
-3.7322969685039369
11
5.5899073228346454
21
-3.7387143307086612
0
LINE
8
BLACK
6
CONTINUOUS
10
5.5899073228346454
20
-3.7387143307086612
11
5.5912624409448819
21
-3.745526968503937
0
LINE
8
BLACK
6
CONTINUOUS
10
5.5912624409448819
20
-3.745526968503937
11
5.5912624409448819
21
-3.7524730314960628
0
LINE
8
BLACK
6
CONTINUOUS
10
5.5912624409448819
20
-3.7524730314960628
11
5.5899073228346454
21
-3.7592856692913386
0
LINE
8
BLACK
6
CONTINUOUS
10
5.5899073228346454
20
-3.7592856692913386
11
5.5872491732283462
21
-3.7657030314960629
0
LINE
8
BLACK
6
CONTINUOUS
10
5.5872491732283462
20
-3.7657030314960629
11
5.5833901181102359
21
-3.7714785039370078
0
LINE
8
BLACK
6
CONTINUOUS
10
5.5833901181102359
20
-3.7714785039370078
11
5.5784785039370082
21
-3.7763901181102359
0
LINE
8
BLACK
6
CONTINUOUS
10
5.5784785039370082
20
-3.7763901181102359
11
5.5727030314960633
21
-3.7802491732283463
0
LINE
8
BLACK
6
CONTINUOUS
10
5.5727030314960633
20
-3.7802491732283463
11
5.5662856692913385
21
-3.7829073228346455
0
LINE
8
BLACK
6
CONTINUOUS
10
5.5662856692913385
20
-3.7829073228346455
11
5.5594730314960632
21
-3.784262440944882
0
LINE
8
BLACK
6
CONTINUOUS
10
5.5594730314960632
20
-3.784262440944882
11
5.5525269685039369
21
-3.784262440944882
0
LINE
8
BLACK
6
CONTINUOUS
10
5.5525269685039369
20
-3.784262440944882
11
5.5457143307086616
21
-3.7829073228346455
0
LINE
8
BLACK
6
CONTINUOUS
10
5.5457143307086616
20
-3.7829073228346455
11
5.5392969685039368
21
-3.7802491732283463
0
LINE
8
BLACK
6
CONTINUOUS
10
5.5392969685039368
20
-3.7802491732283463
11
5.5335214960629919
21
-3.7763901181102359
0
LINE
8
BLACK
6
CONTINUOUS
10
5.5335214960629919
20
-3.7763901181102359
11
5.5286098818897633
21
-3.7714785039370078
0
LINE
8
BLACK
6
CONTINUOUS
10
5.5286098818897633
20
-3.7714785039370078
11
5.5247508267716539
21
-3.7657030314960629
0
LINE
8
BLACK
6
CONTINUOUS
10
5.5247508267716539
20
-3.7657030314960629
11
5.5220926771653538
21
-3.7592856692913386
0
LINE
8
BLACK
6
CONTINUOUS
10
5.5220926771653538
20
-3.7592856692913386
11
5.5207375590551182
21
-3.7524730314960628
0
LINE
8
BLACK
6
CONTINUOUS
10
5.5207375590551182
20
-3.7524730314960628
11
5.5207375590551182
21
-3.745526968503937
0
LINE
8
BLACK
6
CONTINUOUS
10
5.5207375590551182
20
-3.745526968503937
11
5.5220926771653538
21
-3.7387143307086612
0
LINE
8
BLACK
6
CONTINUOUS
10
5.5220926771653538
20
-3.7387143307086612
11
5.5247508267716539
21
-3.7322969685039369
0
LINE
8
BLACK
6
CONTINUOUS
10
5.5247508267716539
20
-3.7322969685039369
11
5.5286098818897633
21
-3.726521496062992
0
LINE
8
BLACK
6
CONTINUOUS
10
5.5286098818897633
20
-3.726521496062992
11
5.5335214960629919
21
-3.7216098818897638
0
LINE
8
BLACK
6
CONTINUOUS
10
5.5335214960629919
20
-3.7216098818897638
11
5.5392969685039368
21
-3.7177508267716535
0
LINE
8
BLACK
6
CONTINUOUS
10
5.5392969685039368
20
-3.7177508267716535
11
5.5457143307086616
21
-3.7150926771653543
0
LINE
8
BLACK
6
CONTINUOUS
10
5.5457143307086616
20
-3.7150926771653543
11
5.5525269685039369
21
-3.7137375590551178
0
LINE
8
BLACK
6
CONTINUOUS
10
5.5525269685039369
20
-3.7137375590551178
11
5.5594730314960632
21
-3.7137375590551178
0
LINE
8
BLACK
6
CONTINUOUS
10
5.5594730314960632
20
-3.7137375590551178
11
5.5662856692913385
21
-3.7150926771653543
0
LINE
8
BLACK
6
CONTINUOUS
10
5.6662856692913381
20
-3.7150926771653543
11
5.6727030314960629
21
-3.7177508267716535
0
LINE
8
BLACK
6
CONTINUOUS
10
5.6727030314960629
20
-3.7177508267716535
11
5.6784785039370078
21
-3.7216098818897638
0
LINE
8
BLACK
6
CONTINUOUS
10
5.6784785039370078
20
-3.7216098818897638
11
5.6833901181102364
21
-3.726521496062992
0
LINE
8
BLACK
6
CONTINUOUS
10
5.6833901181102364
20
-3.726521496062992
11
5.6872491732283459
21
-3.7322969685039369
0
LINE
8
BLACK
6
CONTINUOUS
10
5.6872491732283459
20
-3.7322969685039369
11
5.689907322834646
21
-3.7387143307086612
0
LINE
8
BLACK
6
CONTINUOUS
10
5.689907322834646
20
-3.7387143307086612
11
5.6912624409448815
21
-3.745526968503937
0
LINE
8
BLACK
6
CONTINUOUS
10
5.6912624409448815
20
-3.745526968503937
11
5.6912624409448815
21
-3.7524730314960628
0
LINE
8
BLACK
6
CONTINUOUS
10
5.6912624409448815
20
-3.7524730314960628
11
5.689907322834646
21
-3.7592856692913386
0
LINE
8
BLACK
6
CONTINUOUS
10
5.689907322834646
20
-3.7592856692913386
11
5.6872491732283459
21
-3.7657030314960629
0
LINE
8
BLACK
6
CONTINUOUS
10
5.6872491732283459
20
-3.7657030314960629
11
5.6833901181102364
21
-3.7714785039370078
0
LINE
8
BLACK
6
CONTINUOUS
10
5.6833901181102364
20
-3.7714785039370078
11
5.6784785039370078
21
-3.7763901181102359
0
LINE
8
BLACK
6
CONTINUOUS
10
5.6784785039370078
20
-3.7763901181102359
11
5.6727030314960629
21
-3.7802491732283463
0
LINE
8
BLACK
6
CONTINUOUS
10
5.6727030314960629
20
-3.7802491732283463
11
5.6662856692913381
21
-3.7829073228346455
0
LINE
8
BLACK
6
CONTINUOUS
10
5.6662856692913381
20
-3.7829073228346455
11
5.6594730314960628
21
-3.784262440944882
0
LINE
8
BLACK
6
CONTINUOUS
10
5.6594730314960628
20
-3.784262440944882
11
5.6525269685039365
21
-3.784262440944882
0
LINE
8
BLACK
6
CONTINUOUS
10
5.6525269685039365
20
-3.784262440944882
11
5.6457143307086612
21
-3.7829073228346455
0
LINE
8
BLACK
6
CONTINUOUS
10
5.6457143307086612
20
-3.7829073228346455
11
5.6392969685039365
21
-3.7802491732283463
0
LINE
8
BLACK
6
CONTINUOUS
10
5.6392969685039365
20
-3.7802491732283463
11
5.6335214960629916
21
-3.7763901181102359
0
LINE
8
BLACK
6
CONTINUOUS
10
5.6335214960629916
20
-3.7763901181102359
11
5.6286098818897639
21
-3.7714785039370078
0
LINE
8
BLACK
6
CONTINUOUS
10
5.6286098818897639
20
-3.7714785039370078
11
5.6247508267716535
21
-3.7657030314960629
0
LINE
8
BLACK
6
CONTINUOUS
10
5.6247508267716535
20
-3.7657030314960629
11
5.6220926771653543
21
-3.7592856692913386
0
LINE
8
BLACK
6
CONTINUOUS
10
5.6220926771653543
20
-3.7592856692913386
11
5.6207375590551178
21
-3.7524730314960628
0
LINE
8
BLACK
6
CONTINUOUS
10
5.6207375590551178
20
-3.7524730314960628
11
5.6207375590551178
21
-3.745526968503937
0
LINE
8
BLACK
6
CONTINUOUS
10
5.6207375590551178
20
-3.745526968503937
11
5.6220926771653543
21
-3.7387143307086612
0
LINE
8
BLACK
6
CONTINUOUS
10
5.6220926771653543
20
-3.7387143307086612
11
5.6247508267716535
21
-3.7322969685039369
0
LINE
8
BLACK
6
CONTINUOUS
10
5.6247508267716535
20
-3.7322969685039369
11
5.6286098818897639
21
-3.726521496062992
0
LINE
8
BLACK
6
CONTINUOUS
10
5.6286098818897639
20
-3.726521496062992
11
5.6335214960629916
21
-3.7216098818897638
0
LINE
8
BLACK
6
CONTINUOUS
10
5.6335214960629916
20
-3.7216098818897638
11
5.6392969685039365
21
-3.7177508267716535
0
LINE
8
BLACK
6
CONTINUOUS
10
5.6392969685039365
20
-3.7177508267716535
11
5.6457143307086612
21
-3.7150926771653543
0
LINE
8
BLACK
6
CONTINUOUS
10
5.6457143307086612
20
-3.7150926771653543
11
5.6525269685039365
21
-3.7137375590551178
0
LINE
8
BLACK
6
CONTINUOUS
10
5.6525269685039365
20
-3.7137375590551178
11
5.6594730314960628
21
-3.7137375590551178
0
LINE
8
BLACK
6
CONTINUOUS
10
5.6594730314960628
20
-3.7137375590551178
11
5.6662856692913381
21
-3.7150926771653543
0
LINE
8
BLACK
6
CONTINUOUS
10
5.7662856692913387
20
-3.7150926771653543
11
5.7727030314960626
21
-3.7177508267716535
0
LINE
8
BLACK
6
CONTINUOUS
10
5.7727030314960626
20
-3.7177508267716535
11
5.7784785039370075
21
-3.7216098818897638
0
LINE
8
BLACK
6
CONTINUOUS
10
5.7784785039370075
20
-3.7216098818897638
11
5.7833901181102361
21
-3.726521496062992
0
LINE
8
BLACK
6
CONTINUOUS
10
5.7833901181102361
20
-3.726521496062992
11
5.7872491732283464
21
-3.7322969685039369
0
LINE
8
BLACK
6
CONTINUOUS
10
5.7872491732283464
20
-3.7322969685039369
11
5.7899073228346456
21
-3.7387143307086612
0
LINE
8
BLACK
6
CONTINUOUS
10
5.7899073228346456
20
-3.7387143307086612
11
5.7912624409448821
21
-3.745526968503937
0
LINE
8
BLACK
6
CONTINUOUS
10
5.7912624409448821
20
-3.745526968503937
11
5.7912624409448821
21
-3.7524730314960628
0
LINE
8
BLACK
6
CONTINUOUS
10
5.7912624409448821
20
-3.7524730314960628
11
5.7899073228346456
21
-3.7592856692913386
0
LINE
8
BLACK
6
CONTINUOUS
10
5.7899073228346456
20
-3.7592856692913386
11
5.7872491732283464
21
-3.7657030314960629
0
LINE
8
BLACK
6
CONTINUOUS
10
5.7872491732283464
20
-3.7657030314960629
11
5.7833901181102361
21
-3.7714785039370078
0
LINE
8
BLACK
6
CONTINUOUS
10
5.7833901181102361
20
-3.7714785039370078
11
5.7784785039370075
21
-3.7763901181102359
0
LINE
8
BLACK
6
CONTINUOUS
10
5.7784785039370075
20
-3.7763901181102359
11
5.7727030314960626
21
-3.7802491732283463
0
LINE
8
BLACK
6
CONTINUOUS
10
5.7727030314960626
20
-3.7802491732283463
11
5.7662856692913387
21
-3.7829073228346455
0
LINE
8
BLACK
6
CONTINUOUS
10
5.7662856692913387
20
-3.7829073228346455
11
5.7594730314960625
21
-3.784262440944882
0
LINE
8
BLACK
6
CONTINUOUS
10
5.7594730314960625
20
-3.784262440944882
11
5.7525269685039371
21
-3.784262440944882
0
LINE
8
BLACK
6
CONTINUOUS
10
5.7525269685039371
20
-3.784262440944882
11
5.7457143307086609
21
-3.7829073228346455
0
LINE
8
BLACK
6
CONTINUOUS
10
5.7457143307086609
20
-3.7829073228346455
11
5.739296968503937
21
-3.7802491732283463
0
LINE
8
BLACK
6
CONTINUOUS
10
5.739296968503937
20
-3.7802491732283463
11
5.7335214960629921
21
-3.7763901181102359
0
LINE
8
BLACK
6
CONTINUOUS
10
5.7335214960629921
20
-3.7763901181102359
11
5.7286098818897635
21
-3.7714785039370078
0
LINE
8
BLACK
6
CONTINUOUS
10
5.7286098818897635
20
-3.7714785039370078
11
5.7247508267716531
21
-3.7657030314960629
0
LINE
8
BLACK
6
CONTINUOUS
10
5.7247508267716531
20
-3.7657030314960629
11
5.722092677165354
21
-3.7592856692913386
0
LINE
8
BLACK
6
CONTINUOUS
10
5.722092677165354
20
-3.7592856692913386
11
5.7207375590551184
21
-3.7524730314960628
0
LINE
8
BLACK
6
CONTINUOUS
10
5.7207375590551184
20
-3.7524730314960628
11
5.7207375590551184
21
-3.745526968503937
0
LINE
8
BLACK
6
CONTINUOUS
10
5.7207375590551184
20
-3.745526968503937
11
5.722092677165354
21
-3.7387143307086612
0
LINE
8
BLACK
6
CONTINUOUS
10
5.722092677165354
20
-3.7387143307086612
11
5.7247508267716531
21
-3.7322969685039369
0
LINE
8
BLACK
6
CONTINUOUS
10
5.7247508267716531
20
-3.7322969685039369
11
5.7286098818897635
21
-3.726521496062992
0
LINE
8
BLACK
6
CONTINUOUS
10
5.7286098818897635
20
-3.726521496062992
11
5.7335214960629921
21
-3.7216098818897638
0
LINE
8
BLACK
6
CONTINUOUS
10
5.7335214960629921
20
-3.7216098818897638
11
5.739296968503937
21
-3.7177508267716535
0
LINE
8
BLACK
6
CONTINUOUS
10
5.739296968503937
20
-3.7177508267716535
11
5.7457143307086609
21
-3.7150926771653543
0
LINE
8
BLACK
6
CONTINUOUS
10
5.7457143307086609
20
-3.7150926771653543
11
5.7525269685039371
21
-3.7137375590551178
0
LINE
8
BLACK
6
CONTINUOUS
10
5.7525269685039371
20
-3.7137375590551178
11
5.7594730314960625
21
-3.7137375590551178
0
LINE
8
BLACK
6
CONTINUOUS
10
5.7594730314960625
20
-3.7137375590551178
11
5.7662856692913387
21
-3.7150926771653543
0
LINE
8
BLACK
6
CONTINUOUS
10
7.0370840551181102
20
-3.4162751968503935
11
7.0472815354330711
21
-3.4190075984251966
0
LINE
8
BLACK
6
CONTINUOUS
10
7.0472815354330711
20
-3.4190075984251966
11
7.0570351181102362
21
-3.4230476771653544
0
LINE
8
BLACK
6
CONTINUOUS
10
7.0570351181102362
20
-3.4230476771653544
11
7.0661779133858262
21
-3.4283262598425197
0
LINE
8
BLACK
6
CONTINUOUS
10
7.0661779133858262
20
-3.4283262598425197
11
7.0745535039370075
21
-3.4347530708661416
0
LINE
8
BLACK
6
CONTINUOUS
10
7.0745535039370075
20
-3.4347530708661416
11
7.0820185826771649
21
-3.4422181496062993
0
LINE
8
BLACK
6
CONTINUOUS
10
7.0820185826771649
20
-3.4422181496062993
11
7.0884453937007876
21
-3.4505937401574802
0
LINE
8
BLACK
6
CONTINUOUS
10
7.0884453937007876
20
-3.4505937401574802
11
7.0937239763779525
21
-3.4597365354330707
0
LINE
8
BLACK
6
CONTINUOUS
10
7.0937239763779525
20
-3.4597365354330707
11
7.0977640551181098
21
-3.4694901181102362
0
LINE
8
BLACK
6
CONTINUOUS
10
7.0977640551181098
20
-3.4694901181102362
11
7.1004964566929134
21
-3.4796875984251967
0
LINE
8
BLACK
6
CONTINUOUS
10
7.1004964566929134
20
-3.4796875984251967
11
7.1018744488188972
21
-3.4901544881889763
0
LINE
8
BLACK
6
CONTINUOUS
10
7.1018744488188972
20
-3.4901544881889763
11
7.1018744488188972
21
-3.5007116535433069
0
LINE
8
BLACK
6
CONTINUOUS
10
7.1018744488188972
20
-3.5007116535433069
11
7.1004964566929134
21
-3.5111785433070866
0
LINE
8
BLACK
6
CONTINUOUS
10
7.1004964566929134
20
-3.5111785433070866
11
7.0977640551181098
21
-3.521376023622047
0
LINE
8
BLACK
6
CONTINUOUS
10
7.0977640551181098
20
-3.521376023622047
11
7.0937239763779525
21
-3.5311296062992126
0
LINE
8
BLACK
6
CONTINUOUS
10
7.0937239763779525
20
-3.5311296062992126
11
7.0884453937007876
21
-3.5402724015748031
0
LINE
8
BLACK
6
CONTINUOUS
10
7.0884453937007876
20
-3.5402724015748031
11
7.0820185826771649
21
-3.5486479921259844
0
LINE
8
BLACK
6
CONTINUOUS
10
7.0820185826771649
20
-3.5486479921259844
11
7.0745535039370075
21
-3.5561130708661417
0
LINE
8
BLACK
6
CONTINUOUS
10
7.0745535039370075
20
-3.5561130708661417
11
7.0661779133858262
21
-3.5625398818897636
0
LINE
8
BLACK
6
CONTINUOUS
10
7.0661779133858262
20
-3.5625398818897636
11
7.0570351181102362
21
-3.5678184645669289
0
LINE
8
BLACK
6
CONTINUOUS
10
7.0570351181102362
20
-3.5678184645669289
11
7.0472815354330711
21
-3.5718585433070866
0
LINE
8
BLACK
6
CONTINUOUS
10
7.0472815354330711
20
-3.5718585433070866
11
7.0370840551181102
21
-3.5745909448818898
0
LINE
8
BLACK
6
CONTINUOUS
10
7.0370840551181102
20
-3.5745909448818898
11
7.0266171653543301
21
-3.575968937007874
0
LINE
8
BLACK
6
CONTINUOUS
10
7.0266171653543301
20
-3.575968937007874
11
7.0160599999999995
21
-3.575968937007874
0
LINE
8
BLACK
6
CONTINUOUS
10
7.0160599999999995
20
-3.575968937007874
11
7.0055931102362203
21
-3.5745909448818898
0
LINE
8
BLACK
6
CONTINUOUS
10
7.0055931102362203
20
-3.5745909448818898
11
6.9953956299212594
21
-3.5718585433070866
0
LINE
8
BLACK
6
CONTINUOUS
10
6.9953956299212594
20
-3.5718585433070866
11
6.9856420472440943
21
-3.5678184645669289
0
LINE
8
BLACK
6
CONTINUOUS
10
6.9856420472440943
20
-3.5678184645669289
11
6.9764992519685034
21
-3.5625398818897636
0
LINE
8
BLACK
6
CONTINUOUS
10
6.9764992519685034
20
-3.5625398818897636
11
6.968123661417323
21
-3.5561130708661417
0
LINE
8
BLACK
6
CONTINUOUS
10
6.968123661417323
20
-3.5561130708661417
11
6.9606585826771656
21
-3.5486479921259844
0
LINE
8
BLACK
6
CONTINUOUS
10
6.9606585826771656
20
-3.5486479921259844
11
6.9542317716535429
21
-3.5402724015748031
0
LINE
8
BLACK
6
CONTINUOUS
10
6.9542317716535429
20
-3.5402724015748031
11
6.948953188976378
21
-3.5311296062992126
0
LINE
8
BLACK
6
CONTINUOUS
10
6.948953188976378
20
-3.5311296062992126
11
6.9449131102362207
21
-3.521376023622047
0
LINE
8
BLACK
6
CONTINUOUS
10
6.9449131102362207
20
-3.521376023622047
11
6.9421807086614171
21
-3.5111785433070866
0
LINE
8
BLACK
6
CONTINUOUS
10
6.9421807086614171
20
-3.5111785433070866
11
6.9408027165354333
21
-3.5007116535433069
0
LINE
8
BLACK
6
CONTINUOUS
10
6.9408027165354333
20
-3.5007116535433069
11
6.9408027165354333
21
-3.4901544881889763
0
LINE
8
BLACK
6
CONTINUOUS
10
6.9408027165354333
20
-3.4901544881889763
11
6.9421807086614171
21
-3.4796875984251967
0
LINE
8
BLACK
6
CONTINUOUS
10
6.9421807086614171
20
-3.4796875984251967
11
6.9449131102362207
21
-3.4694901181102362
0
LINE
8
BLACK
6
CONTINUOUS
10
6.9449131102362207
20
-3.4694901181102362
11
6.948953188976378
21
-3.4597365354330707
0
LINE
8
BLACK
6
CONTINUOUS
10
6.948953188976378
20
-3.4597365354330707
11
6.9542317716535429
21
-3.4505937401574802
0
LINE
8
BLACK
6
CONTINUOUS
10
6.9542317716535429
20
-3.4505937401574802
11
6.9606585826771656
21
-3.4422181496062993
0
LINE
8
BLACK
6
CONTINUOUS
10
6.9606585826771656
20
-3.4422181496062993
11
6.968123661417323
21
-3.4347530708661416
0
LINE
8
BLACK
6
CONTINUOUS
10
6.968123661417323
20
-3.4347530708661416
11
6.9764992519685034
21
-3.4283262598425197
0
LINE
8
BLACK
6
CONTINUOUS
10
6.9764992519685034
20
-3.4283262598425197
11
6.9856420472440943
21
-3.4230476771653544
0
LINE
8
BLACK
6
CONTINUOUS
10
6.9856420472440943
20
-3.4230476771653544
11
6.9953956299212594
21
-3.4190075984251966
0
LINE
8
BLACK
6
CONTINUOUS
10
6.9953956299212594
20
-3.4190075984251966
11
7.0055931102362203
21
-3.4162751968503935
0
LINE
8
BLACK
6
CONTINUOUS
10
7.0055931102362203
20
-3.4162751968503935
11
7.0160599999999995
21
-3.4148972047244093
0
LINE
8
BLACK
6
CONTINUOUS
10
7.0160599999999995
20
-3.4148972047244093
11
7.0266171653543301
21
-3.4148972047244093
0
LINE
8
BLACK
6
CONTINUOUS
10
7.0266171653543301
20
-3.4148972047244093
11
7.0370840551181102
21
-3.4162751968503935
0
LINE
8
BLACK
6
CONTINUOUS
10
5.5602856692913383
20
-3.5060926771653542
11
5.566703031496063
21
-3.5087508267716534
0
LINE
8
BLACK
6
CONTINUOUS
10
5.566703031496063
20
-3.5087508267716534
11
5.5724785039370079
21
-3.5126098818897638
0
LINE
8
BLACK
6
CONTINUOUS
10
5.5724785039370079
20
-3.5126098818897638
11
5.5773901181102357
21
-3.5175214960629919
0
LINE
8
BLACK
6
CONTINUOUS
10
5.5773901181102357
20
-3.5175214960629919
11
5.581249173228346
21
-3.5232969685039368
0
LINE
8
BLACK
6
CONTINUOUS
10
5.581249173228346
20
-3.5232969685039368
11
5.5839073228346452
21
-3.5297143307086611
0
LINE
8
BLACK
6
CONTINUOUS
10
5.5839073228346452
20
-3.5297143307086611
11
5.5852624409448817
21
-3.5365269685039369
0
LINE
8
BLACK
6
CONTINUOUS
10
5.5852624409448817
20
-3.5365269685039369
11
5.5852624409448817
21
-3.5434730314960627
0
LINE
8
BLACK
6
CONTINUOUS
10
5.5852624409448817
20
-3.5434730314960627
11
5.5839073228346452
21
-3.5502856692913385
0
LINE
8
BLACK
6
CONTINUOUS
10
5.5839073228346452
20
-3.5502856692913385
11
5.581249173228346
21
-3.5567030314960628
0
LINE
8
BLACK
6
CONTINUOUS
10
5.581249173228346
20
-3.5567030314960628
11
5.5773901181102357
21
-3.5624785039370077
0
LINE
8
BLACK
6
CONTINUOUS
10
5.5773901181102357
20
-3.5624785039370077
11
5.5724785039370079
21
-3.5673901181102363
0
LINE
8
BLACK
6
CONTINUOUS
10
5.5724785039370079
20
-3.5673901181102363
11
5.566703031496063
21
-3.5712491732283462
0
LINE
8
BLACK
6
CONTINUOUS
10
5.566703031496063
20
-3.5712491732283462
11
5.5602856692913383
21
-3.5739073228346454
0
LINE
8
BLACK
6
CONTINUOUS
10
5.5602856692913383
20
-3.5739073228346454
11
5.553473031496063
21
-3.5752624409448819
0
LINE
8
BLACK
6
CONTINUOUS
10
5.553473031496063
20
-3.5752624409448819
11
5.5465269685039367
21
-3.5752624409448819
0
LINE
8
BLACK
6
CONTINUOUS
10
5.5465269685039367
20
-3.5752624409448819
11
5.5397143307086614
21
-3.5739073228346454
0
LINE
8
BLACK
6
CONTINUOUS
10
5.5397143307086614
20
-3.5739073228346454
11
5.5332969685039366
21
-3.5712491732283462
0
LINE
8
BLACK
6
CONTINUOUS
10
5.5332969685039366
20
-3.5712491732283462
11
5.5275214960629917
21
-3.5673901181102363
0
LINE
8
BLACK
6
CONTINUOUS
10
5.5275214960629917
20
-3.5673901181102363
11
5.522609881889764
21
-3.5624785039370077
0
LINE
8
BLACK
6
CONTINUOUS
10
5.522609881889764
20
-3.5624785039370077
11
5.5187508267716536
21
-3.5567030314960628
0
LINE
8
BLACK
6
CONTINUOUS
10
5.5187508267716536
20
-3.5567030314960628
11
5.5160926771653545
21
-3.5502856692913385
0
LINE
8
BLACK
6
CONTINUOUS
10
5.5160926771653545
20
-3.5502856692913385
11
5.514737559055118
21
-3.5434730314960627
0
LINE
8
BLACK
6
CONTINUOUS
10
5.514737559055118
20
-3.5434730314960627
11
5.514737559055118
21
-3.5365269685039369
0
LINE
8
BLACK
6
CONTINUOUS
10
5.514737559055118
20
-3.5365269685039369
11
5.5160926771653545
21
-3.5297143307086611
0
LINE
8
BLACK
6
CONTINUOUS
10
5.5160926771653545
20
-3.5297143307086611
11
5.5187508267716536
21
-3.5232969685039368
0
LINE
8
BLACK
6
CONTINUOUS
10
5.5187508267716536
20
-3.5232969685039368
11
5.522609881889764
21
-3.5175214960629919
0
LINE
8
BLACK
6
CONTINUOUS
10
5.522609881889764
20
-3.5175214960629919
11
5.5275214960629917
21
-3.5126098818897638
0
LINE
8
BLACK
6
CONTINUOUS
10
5.5275214960629917
20
-3.5126098818897638
11
5.5332969685039366
21
-3.5087508267716534
0
LINE
8
BLACK
6
CONTINUOUS
10
5.5332969685039366
20
-3.5087508267716534
11
5.5397143307086614
21
-3.5060926771653542
0
LINE
8
BLACK
6
CONTINUOUS
10
5.5397143307086614
20
-3.5060926771653542
11
5.5465269685039367
21
-3.5047375590551182
0
LINE
8
BLACK
6
CONTINUOUS
10
5.5465269685039367
20
-3.5047375590551182
11
5.553473031496063
21
-3.5047375590551182
0
LINE
8
BLACK
6
CONTINUOUS
10
5.553473031496063
20
-3.5047375590551182
11
5.5602856692913383
21
-3.5060926771653542
0
LINE
8
BLACK
6
CONTINUOUS
10
5.5602856692913383
20
-3.4060926771653541
11
5.566703031496063
21
-3.4087508267716533
0
LINE
8
BLACK
6
CONTINUOUS
10
5.566703031496063
20
-3.4087508267716533
11
5.5724785039370079
21
-3.4126098818897637
0
LINE
8
BLACK
6
CONTINUOUS
10
5.5724785039370079
20
-3.4126098818897637
11
5.5773901181102357
21
-3.4175214960629923
0
LINE
8
BLACK
6
CONTINUOUS
10
5.5773901181102357
20
-3.4175214960629923
11
5.581249173228346
21
-3.4232969685039367
0
LINE
8
BLACK
6
CONTINUOUS
10
5.581249173228346
20
-3.4232969685039367
11
5.5839073228346452
21
-3.4297143307086615
0
LINE
8
BLACK
6
CONTINUOUS
10
5.5839073228346452
20
-3.4297143307086615
11
5.5852624409448817
21
-3.4365269685039368
0
LINE
8
BLACK
6
CONTINUOUS
10
5.5852624409448817
20
-3.4365269685039368
11
5.5852624409448817
21
-3.4434730314960631
0
LINE
8
BLACK
6
CONTINUOUS
10
5.5852624409448817
20
-3.4434730314960631
11
5.5839073228346452
21
-3.4502856692913384
0
LINE
8
BLACK
6
CONTINUOUS
10
5.5839073228346452
20
-3.4502856692913384
11
5.581249173228346
21
-3.4567030314960627
0
LINE
8
BLACK
6
CONTINUOUS
10
5.581249173228346
20
-3.4567030314960627
11
5.5773901181102357
21
-3.4624785039370076
0
LINE
8
BLACK
6
CONTINUOUS
10
5.5773901181102357
20
-3.4624785039370076
11
5.5724785039370079
21
-3.4673901181102362
0
LINE
8
BLACK
6
CONTINUOUS
10
5.5724785039370079
20
-3.4673901181102362
11
5.566703031496063
21
-3.4712491732283466
0
LINE
8
BLACK
6
CONTINUOUS
10
5.566703031496063
20
-3.4712491732283466
11
5.5602856692913383
21
-3.4739073228346458
0
LINE
8
BLACK
6
CONTINUOUS
10
5.5602856692913383
20
-3.4739073228346458
11
5.553473031496063
21
-3.4752624409448818
0
LINE
8
BLACK
6
CONTINUOUS
10
5.553473031496063
20
-3.4752624409448818
11
5.5465269685039367
21
-3.4752624409448818
0
LINE
8
BLACK
6
CONTINUOUS
10
5.5465269685039367
20
-3.4752624409448818
11
5.5397143307086614
21
-3.4739073228346458
0
LINE
8
BLACK
6
CONTINUOUS
10
5.5397143307086614
20
-3.4739073228346458
11
5.5332969685039366
21
-3.4712491732283466
0
LINE
8
BLACK
6
CONTINUOUS
10
5.5332969685039366
20
-3.4712491732283466
11
5.5275214960629917
21
-3.4673901181102362
0
LINE
8
BLACK
6
CONTINUOUS
10
5.5275214960629917
20
-3.4673901181102362
11
5.522609881889764
21
-3.4624785039370076
0
LINE
8
BLACK
6
CONTINUOUS
10
5.522609881889764
20
-3.4624785039370076
11
5.5187508267716536
21
-3.4567030314960627
0
LINE
8
BLACK
6
CONTINUOUS
10
5.5187508267716536
20
-3.4567030314960627
11
5.5160926771653545
21
-3.4502856692913384
0
LINE
8
BLACK
6
CONTINUOUS
10
5.5160926771653545
20
-3.4502856692913384
11
5.514737559055118
21
-3.4434730314960631
0
LINE
8
BLACK
6
CONTINUOUS
10
5.514737559055118
20
-3.4434730314960631
11
5.514737559055118
21
-3.4365269685039368
0
LINE
8
BLACK
6
CONTINUOUS
10
5.514737559055118
20
-3.4365269685039368
11
5.5160926771653545
21
-3.4297143307086615
0
LINE
8
BLACK
6
CONTINUOUS
10
5.5160926771653545
20
-3.4297143307086615
11
5.5187508267716536
21
-3.4232969685039367
0
LINE
8
BLACK
6
CONTINUOUS
10
5.5187508267716536
20
-3.4232969685039367
11
5.522609881889764
21
-3.4175214960629923
0
LINE
8
BLACK
6
CONTINUOUS
10
5.522609881889764
20
-3.4175214960629923
11
5.5275214960629917
21
-3.4126098818897637
0
LINE
8
BLACK
6
CONTINUOUS
10
5.5275214960629917
20
-3.4126098818897637
11
5.5332969685039366
21
-3.4087508267716533
0
LINE
8
BLACK
6
CONTINUOUS
10
5.5332969685039366
20
-3.4087508267716533
11
5.5397143307086614
21
-3.4060926771653541
0
LINE
8
BLACK
6
CONTINUOUS
10
5.5397143307086614
20
-3.4060926771653541
11
5.5465269685039367
21
-3.4047375590551181
0
LINE
8
BLACK
6
CONTINUOUS
10
5.5465269685039367
20
-3.4047375590551181
11
5.553473031496063
21
-3.4047375590551181
0
LINE
8
BLACK
6
CONTINUOUS
10
5.553473031496063
20
-3.4047375590551181
11
5.5602856692913383
21
-3.4060926771653541
0
LINE
8
BLACK
6
CONTINUOUS
10
5.5602856692913383
20
-3.306092677165354
11
5.566703031496063
21
-3.3087508267716537
0
LINE
8
BLACK
6
CONTINUOUS
10
5.566703031496063
20
-3.3087508267716537
11
5.5724785039370079
21
-3.3126098818897636
0
LINE
8
BLACK
6
CONTINUOUS
10
5.5724785039370079
20
-3.3126098818897636
11
5.5773901181102357
21
-3.3175214960629922
0
LINE
8
BLACK
6
CONTINUOUS
10
5.5773901181102357
20
-3.3175214960629922
11
5.581249173228346
21
-3.3232969685039371
0
LINE
8
BLACK
6
CONTINUOUS
10
5.581249173228346
20
-3.3232969685039371
11
5.5839073228346452
21
-3.3297143307086614
0
LINE
8
BLACK
6
CONTINUOUS
10
5.5839073228346452
20
-3.3297143307086614
11
5.5852624409448817
21
-3.3365269685039372
0
LINE
8
BLACK
6
CONTINUOUS
10
5.5852624409448817
20
-3.3365269685039372
11
5.5852624409448817
21
-3.343473031496063
0
LINE
8
BLACK
6
CONTINUOUS
10
5.5852624409448817
20
-3.343473031496063
11
5.5839073228346452
21
-3.3502856692913383
0
LINE
8
BLACK
6
CONTINUOUS
10
5.5839073228346452
20
-3.3502856692913383
11
5.581249173228346
21
-3.3567030314960631
0
LINE
8
BLACK
6
CONTINUOUS
10
5.581249173228346
20
-3.3567030314960631
11
5.5773901181102357
21
-3.362478503937008
0
LINE
8
BLACK
6
CONTINUOUS
10
5.5773901181102357
20
-3.362478503937008
11
5.5724785039370079
21
-3.3673901181102361
0
LINE
8
BLACK
6
CONTINUOUS
10
5.5724785039370079
20
-3.3673901181102361
11
5.566703031496063
21
-3.3712491732283465
0
LINE
8
BLACK
6
CONTINUOUS
10
5.566703031496063
20
-3.3712491732283465
11
5.5602856692913383
21
-3.3739073228346457
0
LINE
8
BLACK
6
CONTINUOUS
10
5.5602856692913383
20
-3.3739073228346457
11
5.553473031496063
21
-3.3752624409448817
0
LINE
8
BLACK
6
CONTINUOUS
10
5.553473031496063
20
-3.3752624409448817
11
5.5465269685039367
21
-3.3752624409448817
0
LINE
8
BLACK
6
CONTINUOUS
10
5.5465269685039367
20
-3.3752624409448817
11
5.5397143307086614
21
-3.3739073228346457
0
LINE
8
BLACK
6
CONTINUOUS
10
5.5397143307086614
20
-3.3739073228346457
11
5.5332969685039366
21
-3.3712491732283465
0
LINE
8
BLACK
6
CONTINUOUS
10
5.5332969685039366
20
-3.3712491732283465
11
5.5275214960629917
21
-3.3673901181102361
0
LINE
8
BLACK
6
CONTINUOUS
10
5.5275214960629917
20
-3.3673901181102361
11
5.522609881889764
21
-3.362478503937008
0
LINE
8
BLACK
6
CONTINUOUS
10
5.522609881889764
20
-3.362478503937008
11
5.5187508267716536
21
-3.3567030314960631
0
LINE
8
BLACK
6
CONTINUOUS
10
5.5187508267716536
20
-3.3567030314960631
11
5.5160926771653545
21
-3.3502856692913383
0
LINE
8
BLACK
6
CONTINUOUS
10
5.5160926771653545
20
-3.3502856692913383
11
5.514737559055118
21
-3.343473031496063
0
LINE
8
BLACK
6
CONTINUOUS
10
5.514737559055118
20
-3.343473031496063
11
5.514737559055118
21
-3.3365269685039372
0
LINE
8
BLACK
6
CONTINUOUS
10
5.514737559055118
20
-3.3365269685039372
11
5.5160926771653545
21
-3.3297143307086614
0
LINE
8
BLACK
6
CONTINUOUS
10
5.5160926771653545
20
-3.3297143307086614
11
5.5187508267716536
21
-3.3232969685039371
0
LINE
8
BLACK
6
CONTINUOUS
10
5.5187508267716536
20
-3.3232969685039371
11
5.522609881889764
21
-3.3175214960629922
0
LINE
8
BLACK
6
CONTINUOUS
10
5.522609881889764
20
-3.3175214960629922
11
5.5275214960629917
21
-3.3126098818897636
0
LINE
8
BLACK
6
CONTINUOUS
10
5.5275214960629917
20
-3.3126098818897636
11
5.5332969685039366
21
-3.3087508267716537
0
LINE
8
BLACK
6
CONTINUOUS
10
5.5332969685039366
20
-3.3087508267716537
11
5.5397143307086614
21
-3.306092677165354
0
LINE
8
BLACK
6
CONTINUOUS
10
5.5397143307086614
20
-3.306092677165354
11
5.5465269685039367
21
-3.304737559055118
0
LINE
8
BLACK
6
CONTINUOUS
10
5.5465269685039367
20
-3.304737559055118
11
5.553473031496063
21
-3.304737559055118
0
LINE
8
BLACK
6
CONTINUOUS
10
5.553473031496063
20
-3.304737559055118
11
5.5602856692913383
21
-3.306092677165354
0
LINE
8
BLACK
6
CONTINUOUS
10
6.1482864566929134
20
-3.3099947244094485
11
6.1531818503937004
21
-3.3128211023622045
0
LINE
8
BLACK
6
CONTINUOUS
10
6.1531818503937004
20
-3.3128211023622045
11
6.1571788976377952
21
-3.3168181496062989
0
LINE
8
BLACK
6
CONTINUOUS
10
6.1571788976377952
20
-3.3168181496062989
11
6.1600052755905512
21
-3.3217135433070863
0
LINE
8
BLACK
6
CONTINUOUS
10
6.1600052755905512
20
-3.3217135433070863
11
6.1614683070866141
21
-3.3271736614173228
0
LINE
8
BLACK
6
CONTINUOUS
10
6.1614683070866141
20
-3.3271736614173228
11
6.1614683070866141
21
-3.3328263385826773
0
LINE
8
BLACK
6
CONTINUOUS
10
6.1614683070866141
20
-3.3328263385826773
11
6.1600052755905512
21
-3.3382864566929134
0
LINE
8
BLACK
6
CONTINUOUS
10
6.1600052755905512
20
-3.3382864566929134
11
6.1571788976377952
21
-3.3431818503937007
0
LINE
8
BLACK
6
CONTINUOUS
10
6.1571788976377952
20
-3.3431818503937007
11
6.1531818503937004
21
-3.3471788976377952
0
LINE
8
BLACK
6
CONTINUOUS
10
6.1531818503937004
20
-3.3471788976377952
11
6.1482864566929134
21
-3.3500052755905512
0
LINE
8
BLACK
6
CONTINUOUS
10
6.1482864566929134
20
-3.3500052755905512
11
6.1428263385826769
21
-3.351468307086614
0
LINE
8
BLACK
6
CONTINUOUS
10
6.1428263385826769
20
-3.351468307086614
11
6.1371736614173225
21
-3.351468307086614
0
LINE
8
BLACK
6
CONTINUOUS
10
6.1371736614173225
20
-3.351468307086614
11
6.1317135433070868
21
-3.3500052755905512
0
LINE
8
BLACK
6
CONTINUOUS
10
6.1317135433070868
20
-3.3500052755905512
11
6.126818149606299
21
-3.3471788976377952
0
LINE
8
BLACK
6
CONTINUOUS
10
6.126818149606299
20
-3.3471788976377952
11
6.122821102362205
21
-3.3431818503937007
0
LINE
8
BLACK
6
CONTINUOUS
10
6.122821102362205
20
-3.3431818503937007
11
6.119994724409449
21
-3.3382864566929134
0
LINE
8
BLACK
6
CONTINUOUS
10
6.119994724409449
20
-3.3382864566929134
11
6.1185316929133853
21
-3.3328263385826773
0
LINE
8
BLACK
6
CONTINUOUS
10
6.1185316929133853
20
-3.3328263385826773
11
6.1185316929133853
21
-3.3271736614173228
0
LINE
8
BLACK
6
CONTINUOUS
10
6.1185316929133853
20
-3.3271736614173228
11
6.119994724409449
21
-3.3217135433070863
0
LINE
8
BLACK
6
CONTINUOUS
10
6.119994724409449
20
-3.3217135433070863
11
6.122821102362205
21
-3.3168181496062989
0
LINE
8
BLACK
6
CONTINUOUS
10
6.122821102362205
20
-3.3168181496062989
11
6.126818149606299
21
-3.3128211023622045
0
LINE
8
BLACK
6
CONTINUOUS
10
6.126818149606299
20
-3.3128211023622045
11
6.1317135433070868
21
-3.3099947244094485
0
LINE
8
BLACK
6
CONTINUOUS
10
6.1317135433070868
20
-3.3099947244094485
11
6.1371736614173225
21
-3.3085316929133857
0
LINE
8
BLACK
6
CONTINUOUS
10
6.1371736614173225
20
-3.3085316929133857
11
6.1428263385826769
21
-3.3085316929133857
0
LINE
8
BLACK
6
CONTINUOUS
10
6.1428263385826769
20
-3.3085316929133857
11
6.1482864566929134
21
-3.3099947244094485
0
LINE
8
BLACK
6
CONTINUOUS
10
6.8397142519685037
20
-3.2764016141732282
11
6.8457750787401572
21
-3.2789120866141732
0
LINE
8
BLACK
6
CONTINUOUS
10
6.8457750787401572
20
-3.2789120866141732
11
6.8512296850393701
21
-3.2825567322834646
0
LINE
8
BLACK
6
CONTINUOUS
10
6.8512296850393701
20
-3.2825567322834646
11
6.855868464566929
21
-3.2871955118110234
0
LINE
8
BLACK
6
CONTINUOUS
10
6.855868464566929
20
-3.2871955118110234
11
6.8595131102362199
21
-3.2926501181102363
0
LINE
8
BLACK
6
CONTINUOUS
10
6.8595131102362199
20
-3.2926501181102363
11
6.8620235826771649
21
-3.2987109448818899
0
LINE
8
BLACK
6
CONTINUOUS
10
6.8620235826771649
20
-3.2987109448818899
11
6.8633034251968503
21
-3.3051450787401575
0
LINE
8
BLACK
6
CONTINUOUS
10
6.8633034251968503
20
-3.3051450787401575
11
6.8633034251968503
21
-3.3117053149606299
0
LINE
8
BLACK
6
CONTINUOUS
10
6.8633034251968503
20
-3.3117053149606299
11
6.8620235826771649
21
-3.3181394488188976
0
LINE
8
BLACK
6
CONTINUOUS
10
6.8620235826771649
20
-3.3181394488188976
11
6.8595131102362199
21
-3.3242002755905511
0
LINE
8
BLACK
6
CONTINUOUS
10
6.8595131102362199
20
-3.3242002755905511
11
6.855868464566929
21
-3.3296548818897636
0
LINE
8
BLACK
6
CONTINUOUS
10
6.855868464566929
20
-3.3296548818897636
11
6.8512296850393701
21
-3.3342936614173229
0
LINE
8
BLACK
6
CONTINUOUS
10
6.8512296850393701
20
-3.3342936614173229
11
6.8457750787401572
21
-3.3379383070866142
0
LINE
8
BLACK
6
CONTINUOUS
10
6.8457750787401572
20
-3.3379383070866142
11
6.8397142519685037
21
-3.3404487795275588
0
LINE
8
BLACK
6
CONTINUOUS
10
6.8397142519685037
20
-3.3404487795275588
11
6.8332801181102365
21
-3.3417286220472442
0
LINE
8
BLACK
6
CONTINUOUS
10
6.8332801181102365
20
-3.3417286220472442
11
6.8267198818897636
21
-3.3417286220472442
0
LINE
8
BLACK
6
CONTINUOUS
10
6.8267198818897636
20
-3.3417286220472442
11
6.8202857480314956
21
-3.3404487795275588
0
LINE
8
BLACK
6
CONTINUOUS
10
6.8202857480314956
20
-3.3404487795275588
11
6.814224921259842
21
-3.3379383070866142
0
LINE
8
BLACK
6
CONTINUOUS
10
6.814224921259842
20
-3.3379383070866142
11
6.80877031496063
21
-3.3342936614173229
0
LINE
8
BLACK
6
CONTINUOUS
10
6.80877031496063
20
-3.3342936614173229
11
6.8041315354330711
21
-3.3296548818897636
0
LINE
8
BLACK
6
CONTINUOUS
10
6.8041315354330711
20
-3.3296548818897636
11
6.8004868897637794
21
-3.3242002755905511
0
LINE
8
BLACK
6
CONTINUOUS
10
6.8004868897637794
20
-3.3242002755905511
11
6.7979764173228343
21
-3.3181394488188976
0
LINE
8
BLACK
6
CONTINUOUS
10
6.7979764173228343
20
-3.3181394488188976
11
6.7966965748031498
21
-3.3117053149606299
0
LINE
8
BLACK
6
CONTINUOUS
10
6.7966965748031498
20
-3.3117053149606299
11
6.7966965748031498
21
-3.3051450787401575
0
LINE
8
BLACK
6
CONTINUOUS
10
6.7966965748031498
20
-3.3051450787401575
11
6.7979764173228343
21
-3.2987109448818899
0
LINE
8
BLACK
6
CONTINUOUS
10
6.7979764173228343
20
-3.2987109448818899
11
6.8004868897637794
21
-3.2926501181102363
0
LINE
8
BLACK
6
CONTINUOUS
10
6.8004868897637794
20
-3.2926501181102363
11
6.8041315354330711
21
-3.2871955118110234
0
LINE
8
BLACK
6
CONTINUOUS
10
6.8041315354330711
20
-3.2871955118110234
11
6.80877031496063
21
-3.2825567322834646
0
LINE
8
BLACK
6
CONTINUOUS
10
6.80877031496063
20
-3.2825567322834646
11
6.814224921259842
21
-3.2789120866141732
0
LINE
8
BLACK
6
CONTINUOUS
10
6.814224921259842
20
-3.2789120866141732
11
6.8202857480314956
21
-3.2764016141732282
0
LINE
8
BLACK
6
CONTINUOUS
10
6.8202857480314956
20
-3.2764016141732282
11
6.8267198818897636
21
-3.2751217716535432
0
LINE
8
BLACK
6
CONTINUOUS
10
6.8267198818897636
20
-3.2751217716535432
11
6.8332801181102365
21
-3.2751217716535432
0
LINE
8
BLACK
6
CONTINUOUS
10
6.8332801181102365
20
-3.2751217716535432
11
6.8397142519685037
21
-3.2764016141732282
0
LINE
8
BLACK
6
CONTINUOUS
10
6.9184544094488185
20
-3.2764016141732282
11
6.924515236220472
21
-3.2789120866141732
0
LINE
8
BLACK
6
CONTINUOUS
10
6.924515236220472
20
-3.2789120866141732
11
6.929969842519685
21
-3.2825567322834646
0
LINE
8
BLACK
6
CONTINUOUS
10
6.929969842519685
20
-3.2825567322834646
11
6.9346086220472438
21
-3.2871955118110234
0
LINE
8
BLACK
6
CONTINUOUS
10
6.9346086220472438
20
-3.2871955118110234
11
6.9382532677165356
21
-3.2926501181102363
0
LINE
8
BLACK
6
CONTINUOUS
10
6.9382532677165356
20
-3.2926501181102363
11
6.9407637401574798
21
-3.2987109448818899
0
LINE
8
BLACK
6
CONTINUOUS
10
6.9407637401574798
20
-3.2987109448818899
11
6.9420435826771651
21
-3.3051450787401575
0
LINE
8
BLACK
6
CONTINUOUS
10
6.9420435826771651
20
-3.3051450787401575
11
6.9420435826771651
21
-3.3117053149606299
0
LINE
8
BLACK
6
CONTINUOUS
10
6.9420435826771651
20
-3.3117053149606299
11
6.9407637401574798
21
-3.3181394488188976
0
LINE
8
BLACK
6
CONTINUOUS
10
6.9407637401574798
20
-3.3181394488188976
11
6.9382532677165356
21
-3.3242002755905511
0
LINE
8
BLACK
6
CONTINUOUS
10
6.9382532677165356
20
-3.3242002755905511
11
6.9346086220472438
21
-3.3296548818897636
0
LINE
8
BLACK
6
CONTINUOUS
10
6.9346086220472438
20
-3.3296548818897636
11
6.929969842519685
21
-3.3342936614173229
0
LINE
8
BLACK
6
CONTINUOUS
10
6.929969842519685
20
-3.3342936614173229
11
6.924515236220472
21
-3.3379383070866142
0
LINE
8
BLACK
6
CONTINUOUS
10
6.924515236220472
20
-3.3379383070866142
11
6.9184544094488185
21
-3.3404487795275588
0
LINE
8
BLACK
6
CONTINUOUS
10
6.9184544094488185
20
-3.3404487795275588
11
6.9120202755905513
21
-3.3417286220472442
0
LINE
8
BLACK
6
CONTINUOUS
10
6.9120202755905513
20
-3.3417286220472442
11
6.9054600393700785
21
-3.3417286220472442
0
LINE
8
BLACK
6
CONTINUOUS
10
6.9054600393700785
20
-3.3417286220472442
11
6.8990259055118113
21
-3.3404487795275588
0
LINE
8
BLACK
6
CONTINUOUS
10
6.8990259055118113
20
-3.3404487795275588
11
6.8929650787401577
21
-3.3379383070866142
0
LINE
8
BLACK
6
CONTINUOUS
10
6.8929650787401577
20
-3.3379383070866142
11
6.8875104724409448
21
-3.3342936614173229
0
LINE
8
BLACK
6
CONTINUOUS
10
6.8875104724409448
20
-3.3342936614173229
11
6.882871692913386
21
-3.3296548818897636
0
LINE
8
BLACK
6
CONTINUOUS
10
6.882871692913386
20
-3.3296548818897636
11
6.8792270472440942
21
-3.3242002755905511
0
LINE
8
BLACK
6
CONTINUOUS
10
6.8792270472440942
20
-3.3242002755905511
11
6.8767165748031491
21
-3.3181394488188976
0
LINE
8
BLACK
6
CONTINUOUS
10
6.8767165748031491
20
-3.3181394488188976
11
6.8754367322834646
21
-3.3117053149606299
0
LINE
8
BLACK
6
CONTINUOUS
10
6.8754367322834646
20
-3.3117053149606299
11
6.8754367322834646
21
-3.3051450787401575
0
LINE
8
BLACK
6
CONTINUOUS
10
6.8754367322834646
20
-3.3051450787401575
11
6.8767165748031491
21
-3.2987109448818899
0
LINE
8
BLACK
6
CONTINUOUS
10
6.8767165748031491
20
-3.2987109448818899
11
6.8792270472440942
21
-3.2926501181102363
0
LINE
8
BLACK
6
CONTINUOUS
10
6.8792270472440942
20
-3.2926501181102363
11
6.882871692913386
21
-3.2871955118110234
0
LINE
8
BLACK
6
CONTINUOUS
10
6.882871692913386
20
-3.2871955118110234
11
6.8875104724409448
21
-3.2825567322834646
0
LINE
8
BLACK
6
CONTINUOUS
10
6.8875104724409448
20
-3.2825567322834646
11
6.8929650787401577
21
-3.2789120866141732
0
LINE
8
BLACK
6
CONTINUOUS
10
6.8929650787401577
20
-3.2789120866141732
11
6.8990259055118113
21
-3.2764016141732282
0
LINE
8
BLACK
6
CONTINUOUS
10
6.8990259055118113
20
-3.2764016141732282
11
6.9054600393700785
21
-3.2751217716535432
0
LINE
8
BLACK
6
CONTINUOUS
10
6.9054600393700785
20
-3.2751217716535432
11
6.9120202755905513
21
-3.2751217716535432
0
LINE
8
BLACK
6
CONTINUOUS
10
6.9120202755905513
20
-3.2751217716535432
11
6.9184544094488185
21
-3.2764016141732282
0
LINE
8
BLACK
6
CONTINUOUS
10
7.0582864566929135
20
-3.289994724409449
11
7.0631818503937005
21
-3.2928211023622045
0
LINE
8
BLACK
6
CONTINUOUS
10
7.0631818503937005
20
-3.2928211023622045
11
7.0671788976377954
21
-3.2968181496062989
0
LINE
8
BLACK
6
CONTINUOUS
10
7.0671788976377954
20
-3.2968181496062989
11
7.0700052755905514
21
-3.3017135433070863
0
LINE
8
BLACK
6
CONTINUOUS
10
7.0700052755905514
20
-3.3017135433070863
11
7.0714683070866142
21
-3.3071736614173228
0
LINE
8
BLACK
6
CONTINUOUS
10
7.0714683070866142
20
-3.3071736614173228
11
7.0714683070866142
21
-3.3128263385826773
0
LINE
8
BLACK
6
CONTINUOUS
10
7.0714683070866142
20
-3.3128263385826773
11
7.0700052755905514
21
-3.3182864566929133
0
LINE
8
BLACK
6
CONTINUOUS
10
7.0700052755905514
20
-3.3182864566929133
11
7.0671788976377954
21
-3.3231818503937007
0
LINE
8
BLACK
6
CONTINUOUS
10
7.0671788976377954
20
-3.3231818503937007
11
7.0631818503937005
21
-3.3271788976377952
0
LINE
8
BLACK
6
CONTINUOUS
10
7.0631818503937005
20
-3.3271788976377952
11
7.0582864566929135
21
-3.3300052755905512
0
LINE
8
BLACK
6
CONTINUOUS
10
7.0582864566929135
20
-3.3300052755905512
11
7.052826338582677
21
-3.331468307086614
0
LINE
8
BLACK
6
CONTINUOUS
10
7.052826338582677
20
-3.331468307086614
11
7.0471736614173226
21
-3.331468307086614
0
LINE
8
BLACK
6
CONTINUOUS
10
7.0471736614173226
20
-3.331468307086614
11
7.0417135433070861
21
-3.3300052755905512
0
LINE
8
BLACK
6
CONTINUOUS
10
7.0417135433070861
20
-3.3300052755905512
11
7.0368181496062991
21
-3.3271788976377952
0
LINE
8
BLACK
6
CONTINUOUS
10
7.0368181496062991
20
-3.3271788976377952
11
7.0328211023622043
21
-3.3231818503937007
0
LINE
8
BLACK
6
CONTINUOUS
10
7.0328211023622043
20
-3.3231818503937007
11
7.0299947244094483
21
-3.3182864566929133
0
LINE
8
BLACK
6
CONTINUOUS
10
7.0299947244094483
20
-3.3182864566929133
11
7.0285316929133854
21
-3.3128263385826773
0
LINE
8
BLACK
6
CONTINUOUS
10
7.0285316929133854
20
-3.3128263385826773
11
7.0285316929133854
21
-3.3071736614173228
0
LINE
8
BLACK
6
CONTINUOUS
10
7.0285316929133854
20
-3.3071736614173228
11
7.0299947244094483
21
-3.3017135433070863
0
LINE
8
BLACK
6
CONTINUOUS
10
7.0299947244094483
20
-3.3017135433070863
11
7.0328211023622043
21
-3.2968181496062989
0
LINE
8
BLACK
6
CONTINUOUS
10
7.0328211023622043
20
-3.2968181496062989
11
7.0368181496062991
21
-3.2928211023622045
0
LINE
8
BLACK
6
CONTINUOUS
10
7.0368181496062991
20
-3.2928211023622045
11
7.0417135433070861
21
-3.289994724409449
0
LINE
8
BLACK
6
CONTINUOUS
10
7.0417135433070861
20
-3.289994724409449
11
7.0471736614173226
21
-3.2885316929133857
0
LINE
8
BLACK
6
CONTINUOUS
10
7.0471736614173226
20
-3.2885316929133857
11
7.052826338582677
21
-3.2885316929133857
0
LINE
8
BLACK
6
CONTINUOUS
10
7.052826338582677
20
-3.2885316929133857
11
7.0582864566929135
21
-3.289994724409449
0
LINE
8
BLACK
6
CONTINUOUS
10
5.5602856692913383
20
-3.2060926771653544
11
5.566703031496063
21
-3.2087508267716536
0
LINE
8
BLACK
6
CONTINUOUS
10
5.566703031496063
20
-3.2087508267716536
11
5.5724785039370079
21
-3.2126098818897635
0
LINE
8
BLACK
6
CONTINUOUS
10
5.5724785039370079
20
-3.2126098818897635
11
5.5773901181102357
21
-3.2175214960629921
0
LINE
8
BLACK
6
CONTINUOUS
10
5.5773901181102357
20
-3.2175214960629921
11
5.581249173228346
21
-3.223296968503937
0
LINE
8
BLACK
6
CONTINUOUS
10
5.581249173228346
20
-3.223296968503937
11
5.5839073228346452
21
-3.2297143307086613
0
LINE
8
BLACK
6
CONTINUOUS
10
5.5839073228346452
20
-3.2297143307086613
11
5.5852624409448817
21
-3.2365269685039371
0
LINE
8
BLACK
6
CONTINUOUS
10
5.5852624409448817
20
-3.2365269685039371
11
5.5852624409448817
21
-3.2434730314960629
0
LINE
8
BLACK
6
CONTINUOUS
10
5.5852624409448817
20
-3.2434730314960629
11
5.5839073228346452
21
-3.2502856692913387
0
LINE
8
BLACK
6
CONTINUOUS
10
5.5839073228346452
20
-3.2502856692913387
11
5.581249173228346
21
-3.256703031496063
0
LINE
8
BLACK
6
CONTINUOUS
10
5.581249173228346
20
-3.256703031496063
11
5.5773901181102357
21
-3.2624785039370079
0
LINE
8
BLACK
6
CONTINUOUS
10
5.5773901181102357
20
-3.2624785039370079
11
5.5724785039370079
21
-3.2673901181102361
0
LINE
8
BLACK
6
CONTINUOUS
10
5.5724785039370079
20
-3.2673901181102361
11
5.566703031496063
21
-3.2712491732283464
0
LINE
8
BLACK
6
CONTINUOUS
10
5.566703031496063
20
-3.2712491732283464
11
5.5602856692913383
21
-3.2739073228346456
0
LINE
8
BLACK
6
CONTINUOUS
10
5.5602856692913383
20
-3.2739073228346456
11
5.553473031496063
21
-3.2752624409448816
0
LINE
8
BLACK
6
CONTINUOUS
10
5.553473031496063
20
-3.2752624409448816
11
5.5465269685039367
21
-3.2752624409448816
0
LINE
8
BLACK
6
CONTINUOUS
10
5.5465269685039367
20
-3.2752624409448816
11
5.5397143307086614
21
-3.2739073228346456
0
LINE
8
BLACK
6
CONTINUOUS
10
5.5397143307086614
20
-3.2739073228346456
11
5.5332969685039366
21
-3.2712491732283464
0
LINE
8
BLACK
6
CONTINUOUS
10
5.5332969685039366
20
-3.2712491732283464
11
5.5275214960629917
21
-3.2673901181102361
0
LINE
8
BLACK
6
CONTINUOUS
10
5.5275214960629917
20
-3.2673901181102361
11
5.522609881889764
21
-3.2624785039370079
0
LINE
8
BLACK
6
CONTINUOUS
10
5.522609881889764
20
-3.2624785039370079
11
5.5187508267716536
21
-3.256703031496063
0
LINE
8
BLACK
6
CONTINUOUS
10
5.5187508267716536
20
-3.256703031496063
11
5.5160926771653545
21
-3.2502856692913387
0
LINE
8
BLACK
6
CONTINUOUS
10
5.5160926771653545
20
-3.2502856692913387
11
5.514737559055118
21
-3.2434730314960629
0
LINE
8
BLACK
6
CONTINUOUS
10
5.514737559055118
20
-3.2434730314960629
11
5.514737559055118
21
-3.2365269685039371
0
LINE
8
BLACK
6
CONTINUOUS
10
5.514737559055118
20
-3.2365269685039371
11
5.5160926771653545
21
-3.2297143307086613
0
LINE
8
BLACK
6
CONTINUOUS
10
5.5160926771653545
20
-3.2297143307086613
11
5.5187508267716536
21
-3.223296968503937
0
LINE
8
BLACK
6
CONTINUOUS
10
5.5187508267716536
20
-3.223296968503937
11
5.522609881889764
21
-3.2175214960629921
0
LINE
8
BLACK
6
CONTINUOUS
10
5.522609881889764
20
-3.2175214960629921
11
5.5275214960629917
21
-3.2126098818897635
0
LINE
8
BLACK
6
CONTINUOUS
10
5.5275214960629917
20
-3.2126098818897635
11
5.5332969685039366
21
-3.2087508267716536
0
LINE
8
BLACK
6
CONTINUOUS
10
5.5332969685039366
20
-3.2087508267716536
11
5.5397143307086614
21
-3.2060926771653544
0
LINE
8
BLACK
6
CONTINUOUS
10
5.5397143307086614
20
-3.2060926771653544
11
5.5465269685039367
21
-3.2047375590551179
0
LINE
8
BLACK
6
CONTINUOUS
10
5.5465269685039367
20
-3.2047375590551179
11
5.553473031496063
21
-3.2047375590551179
0
LINE
8
BLACK
6
CONTINUOUS
10
5.553473031496063
20
-3.2047375590551179
11
5.5602856692913383
21
-3.2060926771653544
0
LINE
8
BLACK
6
CONTINUOUS
10
6.8622493700787404
20
-3.1766852755905512
11
6.8628879921259838
21
-3.1771120078740158
0
LINE
8
BLACK
6
CONTINUOUS
10
6.8628879921259838
20
-3.1771120078740158
11
6.8633147244094488
21
-3.1777506299212597
0
LINE
8
BLACK
6
CONTINUOUS
10
6.8633147244094488
20
-3.1777506299212597
11
6.8634645669291334
21
-3.178503937007874
0
LINE
8
BLACK
6
CONTINUOUS
10
6.8634645669291334
20
-3.178503937007874
11
6.8634645669291334
21
-3.2414960629921259
0
LINE
8
BLACK
6
CONTINUOUS
10
6.8634645669291334
20
-3.2414960629921259
11
6.8633147244094488
21
-3.2422493700787403
0
LINE
8
BLACK
6
CONTINUOUS
10
6.8633147244094488
20
-3.2422493700787403
11
6.8628879921259838
21
-3.2428879921259841
0
LINE
8
BLACK
6
CONTINUOUS
10
6.8628879921259838
20
-3.2428879921259841
11
6.8622493700787404
21
-3.2433147244094487
0
LINE
8
BLACK
6
CONTINUOUS
10
6.8622493700787404
20
-3.2433147244094487
11
6.861496062992126
21
-3.2434645669291338
0
LINE
8
BLACK
6
CONTINUOUS
10
6.861496062992126
20
-3.2434645669291338
11
6.7985039370078741
21
-3.2434645669291338
0
LINE
8
BLACK
6
CONTINUOUS
10
6.7985039370078741
20
-3.2434645669291338
11
6.7977506299212598
21
-3.2433147244094487
0
LINE
8
BLACK
6
CONTINUOUS
10
6.7977506299212598
20
-3.2433147244094487
11
6.7971120078740155
21
-3.2428879921259841
0
LINE
8
BLACK
6
CONTINUOUS
10
6.7971120078740155
20
-3.2428879921259841
11
6.7966852755905514
21
-3.2422493700787403
0
LINE
8
BLACK
6
CONTINUOUS
10
6.7966852755905514
20
-3.2422493700787403
11
6.7965354330708658
21
-3.2414960629921259
0
LINE
8
BLACK
6
CONTINUOUS
10
6.7965354330708658
20
-3.2414960629921259
11
6.7965354330708658
21
-3.178503937007874
0
LINE
8
BLACK
6
CONTINUOUS
10
6.7965354330708658
20
-3.178503937007874
11
6.7966852755905514
21
-3.1777506299212597
0
LINE
8
BLACK
6
CONTINUOUS
10
6.7966852755905514
20
-3.1777506299212597
11
6.7971120078740155
21
-3.1771120078740158
0
LINE
8
BLACK
6
CONTINUOUS
10
6.7971120078740155
20
-3.1771120078740158
11
6.7977506299212598
21
-3.1766852755905512
0
LINE
8
BLACK
6
CONTINUOUS
10
6.7977506299212598
20
-3.1766852755905512
11
6.7985039370078741
21
-3.1765354330708662
0
LINE
8
BLACK
6
CONTINUOUS
10
6.7985039370078741
20
-3.1765354330708662
11
6.861496062992126
21
-3.1765354330708662
0
LINE
8
BLACK
6
CONTINUOUS
10
6.861496062992126
20
-3.1765354330708662
11
6.8622493700787404
21
-3.1766852755905512
0
LINE
8
BLACK
6
CONTINUOUS
10
6.9184544094488185
20
-3.1779764173228346
11
6.924515236220472
21
-3.1804868897637792
0
LINE
8
BLACK
6
CONTINUOUS
10
6.924515236220472
20
-3.1804868897637792
11
6.929969842519685
21
-3.1841315354330706
0
LINE
8
BLACK
6
CONTINUOUS
10
6.929969842519685
20
-3.1841315354330706
11
6.9346086220472438
21
-3.1887703149606299
0
LINE
8
BLACK
6
CONTINUOUS
10
6.9346086220472438
20
-3.1887703149606299
11
6.9382532677165356
21
-3.1942249212598424
0
LINE
8
BLACK
6
CONTINUOUS
10
6.9382532677165356
20
-3.1942249212598424
11
6.9407637401574798
21
-3.2002857480314959
0
LINE
8
BLACK
6
CONTINUOUS
10
6.9407637401574798
20
-3.2002857480314959
11
6.9420435826771651
21
-3.2067198818897635
0
LINE
8
BLACK
6
CONTINUOUS
10
6.9420435826771651
20
-3.2067198818897635
11
6.9420435826771651
21
-3.213280118110236
0
LINE
8
BLACK
6
CONTINUOUS
10
6.9420435826771651
20
-3.213280118110236
11
6.9407637401574798
21
-3.219714251968504
0
LINE
8
BLACK
6
CONTINUOUS
10
6.9407637401574798
20
-3.219714251968504
11
6.9382532677165356
21
-3.2257750787401576
0
LINE
8
BLACK
6
CONTINUOUS
10
6.9382532677165356
20
-3.2257750787401576
11
6.9346086220472438
21
-3.23122968503937
0
LINE
8
BLACK
6
CONTINUOUS
10
6.9346086220472438
20
-3.23122968503937
11
6.929969842519685
21
-3.2358684645669289
0
LINE
8
BLACK
6
CONTINUOUS
10
6.929969842519685
20
-3.2358684645669289
11
6.924515236220472
21
-3.2395131102362202
0
LINE
8
BLACK
6
CONTINUOUS
10
6.924515236220472
20
-3.2395131102362202
11
6.9184544094488185
21
-3.2420235826771653
0
LINE
8
BLACK
6
CONTINUOUS
10
6.9184544094488185
20
-3.2420235826771653
11
6.9120202755905513
21
-3.2433034251968502
0
LINE
8
BLACK
6
CONTINUOUS
10
6.9120202755905513
20
-3.2433034251968502
11
6.9054600393700785
21
-3.2433034251968502
0
LINE
8
BLACK
6
CONTINUOUS
10
6.9054600393700785
20
-3.2433034251968502
11
6.8990259055118113
21
-3.2420235826771653
0
LINE
8
BLACK
6
CONTINUOUS
10
6.8990259055118113
20
-3.2420235826771653
11
6.8929650787401577
21
-3.2395131102362202
0
LINE
8
BLACK
6
CONTINUOUS
10
6.8929650787401577
20
-3.2395131102362202
11
6.8875104724409448
21
-3.2358684645669289
0
LINE
8
BLACK
6
CONTINUOUS
10
6.8875104724409448
20
-3.2358684645669289
11
6.882871692913386
21
-3.23122968503937
0
LINE
8
BLACK
6
CONTINUOUS
10
6.882871692913386
20
-3.23122968503937
11
6.8792270472440942
21
-3.2257750787401576
0
LINE
8
BLACK
6
CONTINUOUS
10
6.8792270472440942
20
-3.2257750787401576
11
6.8767165748031491
21
-3.219714251968504
0
LINE
8
BLACK
6
CONTINUOUS
10
6.8767165748031491
20
-3.219714251968504
11
6.8754367322834646
21
-3.213280118110236
0
LINE
8
BLACK
6
CONTINUOUS
10
6.8754367322834646
20
-3.213280118110236
11
6.8754367322834646
21
-3.2067198818897635
0
LINE
8
BLACK
6
CONTINUOUS
10
6.8754367322834646
20
-3.2067198818897635
11
6.8767165748031491
21
-3.2002857480314959
0
LINE
8
BLACK
6
CONTINUOUS
10
6.8767165748031491
20
-3.2002857480314959
11
6.8792270472440942
21
-3.1942249212598424
0
LINE
8
BLACK
6
CONTINUOUS
10
6.8792270472440942
20
-3.1942249212598424
11
6.882871692913386
21
-3.1887703149606299
0
LINE
8
BLACK
6
CONTINUOUS
10
6.882871692913386
20
-3.1887703149606299
11
6.8875104724409448
21
-3.1841315354330706
0
LINE
8
BLACK
6
CONTINUOUS
10
6.8875104724409448
20
-3.1841315354330706
11
6.8929650787401577
21
-3.1804868897637792
0
LINE
8
BLACK
6
CONTINUOUS
10
6.8929650787401577
20
-3.1804868897637792
11
6.8990259055118113
21
-3.1779764173228346
0
LINE
8
BLACK
6
CONTINUOUS
10
6.8990259055118113
20
-3.1779764173228346
11
6.9054600393700785
21
-3.1766965748031497
0
LINE
8
BLACK
6
CONTINUOUS
10
6.9054600393700785
20
-3.1766965748031497
11
6.9120202755905513
21
-3.1766965748031497
0
LINE
8
BLACK
6
CONTINUOUS
10
6.9120202755905513
20
-3.1766965748031497
11
6.9184544094488185
21
-3.1779764173228346
0
LINE
8
BLACK
6
CONTINUOUS
10
4.8595365354330706
20
-3.1568680314960629
11
4.8652408267716538
21
-3.1592308267716533
0
LINE
8
BLACK
6
CONTINUOUS
10
4.8652408267716538
20
-3.1592308267716533
11
4.8703746062992126
21
-3.1626611023622044
0
LINE
8
BLACK
6
CONTINUOUS
10
4.8703746062992126
20
-3.1626611023622044
11
4.8747404724409451
21
-3.1670269685039369
0
LINE
8
BLACK
6
CONTINUOUS
10
4.8747404724409451
20
-3.1670269685039369
11
4.8781707480314962
21
-3.1721607480314962
0
LINE
8
BLACK
6
CONTINUOUS
10
4.8781707480314962
20
-3.1721607480314962
11
4.8805335433070862
21
-3.1778650393700785
0
LINE
8
BLACK
6
CONTINUOUS
10
4.8805335433070862
20
-3.1778650393700785
11
4.8817381102362205
21
-3.1839207086614172
0
LINE
8
BLACK
6
CONTINUOUS
10
4.8817381102362205
20
-3.1839207086614172
11
4.8818897637795278
21
-3.1870078740157481
0
LINE
8
BLACK
6
CONTINUOUS
10
4.8818897637795278
20
-3.1870078740157481
11
4.8818897637795278
21
-3.2066929133858268
0
LINE
8
BLACK
6
CONTINUOUS
10
4.8818897637795278
20
-3.2066929133858268
11
4.8817381102362205
21
-3.2097800787401574
0
LINE
8
BLACK
6
CONTINUOUS
10
4.8817381102362205
20
-3.2097800787401574
11
4.8805335433070862
21
-3.2158357480314961
0
LINE
8
BLACK
6
CONTINUOUS
10
4.8805335433070862
20
-3.2158357480314961
11
4.8781707480314962
21
-3.2215400393700788
0
LINE
8
BLACK
6
CONTINUOUS
10
4.8781707480314962
20
-3.2215400393700788
11
4.8747404724409451
21
-3.2266738188976376
0
LINE
8
BLACK
6
CONTINUOUS
10
4.8747404724409451
20
-3.2266738188976376
11
4.8703746062992126
21
-3.2310396850393701
0
LINE
8
BLACK
6
CONTINUOUS
10
4.8703746062992126
20
-3.2310396850393701
11
4.8652408267716538
21
-3.2344699606299212
0
LINE
8
BLACK
6
CONTINUOUS
10
4.8652408267716538
20
-3.2344699606299212
11
4.8595365354330706
21
-3.2368327559055117
0
LINE
8
BLACK
6
CONTINUOUS
10
4.8595365354330706
20
-3.2368327559055117
11
4.8534808661417319
21
-3.2380373228346455
0
LINE
8
BLACK
6
CONTINUOUS
10
4.8534808661417319
20
-3.2380373228346455
11
4.8473065354330709
21
-3.2380373228346455
0
LINE
8
BLACK
6
CONTINUOUS
10
4.8473065354330709
20
-3.2380373228346455
11
4.8412508661417322
21
-3.2368327559055117
0
LINE
8
BLACK
6
CONTINUOUS
10
4.8412508661417322
20
-3.2368327559055117
11
4.8355465748031499
21
-3.2344699606299212
0
LINE
8
BLACK
6
CONTINUOUS
10
4.8355465748031499
20
-3.2344699606299212
11
4.8304127952755902
21
-3.2310396850393701
0
LINE
8
BLACK
6
CONTINUOUS
10
4.8304127952755902
20
-3.2310396850393701
11
4.8260469291338586
21
-3.2266738188976376
0
LINE
8
BLACK
6
CONTINUOUS
10
4.8260469291338586
20
-3.2266738188976376
11
4.8226166535433066
21
-3.2215400393700788
0
LINE
8
BLACK
6
CONTINUOUS
10
4.8226166535433066
20
-3.2215400393700788
11
4.8202538582677166
21
-3.2158357480314961
0
LINE
8
BLACK
6
CONTINUOUS
10
4.8202538582677166
20
-3.2158357480314961
11
4.8190492913385823
21
-3.2097800787401574
0
LINE
8
BLACK
6
CONTINUOUS
10
4.8190492913385823
20
-3.2097800787401574
11
4.8188976377952759
21
-3.2066929133858268
0
LINE
8
BLACK
6
CONTINUOUS
10
4.8188976377952759
20
-3.2066929133858268
11
4.8188976377952759
21
-3.1870078740157481
0
LINE
8
BLACK
6
CONTINUOUS
10
4.8188976377952759
20
-3.1870078740157481
11
4.8190492913385823
21
-3.1839207086614172
0
LINE
8
BLACK
6
CONTINUOUS
10
4.8190492913385823
20
-3.1839207086614172
11
4.8202538582677166
21
-3.1778650393700785
0
LINE
8
BLACK
6
CONTINUOUS
10
4.8202538582677166
20
-3.1778650393700785
11
4.8226166535433066
21
-3.1721607480314962
0
LINE
8
BLACK
6
CONTINUOUS
10
4.8226166535433066
20
-3.1721607480314962
11
4.8260469291338586
21
-3.1670269685039369
0
LINE
8
BLACK
6
CONTINUOUS
10
4.8260469291338586
20
-3.1670269685039369
11
4.8304127952755902
21
-3.1626611023622044
0
LINE
8
BLACK
6
CONTINUOUS
10
4.8304127952755902
20
-3.1626611023622044
11
4.8355465748031499
21
-3.1592308267716533
0
LINE
8
BLACK
6
CONTINUOUS
10
4.8355465748031499
20
-3.1592308267716533
11
4.8412508661417322
21
-3.1568680314960629
0
LINE
8
BLACK
6
CONTINUOUS
10
4.8412508661417322
20
-3.1568680314960629
11
4.8473065354330709
21
-3.155663464566929
0
LINE
8
BLACK
6
CONTINUOUS
10
4.8473065354330709
20
-3.155663464566929
11
4.8534808661417319
21
-3.155663464566929
0
LINE
8
BLACK
6
CONTINUOUS
10
4.8534808661417319
20
-3.155663464566929
11
4.8595365354330706
21
-3.1568680314960629
0
LINE
8
BLACK
6
CONTINUOUS
10
5.0356220078740153
20
-3.1572918503937006
11
5.0431089370078741
21
-3.1603930314960631
0
LINE
8
BLACK
6
CONTINUOUS
10
5.0431089370078741
20
-3.1603930314960631
11
5.0498469685039371
21
-3.1648952362204725
0
LINE
8
BLACK
6
CONTINUOUS
10
5.0498469685039371
20
-3.1648952362204725
11
5.0555772047244094
21
-3.1706254724409448
0
LINE
8
BLACK
6
CONTINUOUS
10
5.0555772047244094
20
-3.1706254724409448
11
5.0600794094488188
21
-3.1773635039370078
0
LINE
8
BLACK
6
CONTINUOUS
10
5.0600794094488188
20
-3.1773635039370078
11
5.0631805905511813
21
-3.1848504330708662
0
LINE
8
BLACK
6
CONTINUOUS
10
5.0631805905511813
20
-3.1848504330708662
11
5.0647615748031498
21
-3.1927985039370079
0
LINE
8
BLACK
6
CONTINUOUS
10
5.0647615748031498
20
-3.1927985039370079
11
5.0647615748031498
21
-3.2009022834645671
0
LINE
8
BLACK
6
CONTINUOUS
10
5.0647615748031498
20
-3.2009022834645671
11
5.0631805905511813
21
-3.2088503543307088
0
LINE
8
BLACK
6
CONTINUOUS
10
5.0631805905511813
20
-3.2088503543307088
11
5.0600794094488188
21
-3.2163372834645667
0
LINE
8
BLACK
6
CONTINUOUS
10
5.0600794094488188
20
-3.2163372834645667
11
5.0555772047244094
21
-3.2230753149606297
0
LINE
8
BLACK
6
CONTINUOUS
10
5.0555772047244094
20
-3.2230753149606297
11
5.0498469685039371
21
-3.2288055511811025
0
LINE
8
BLACK
6
CONTINUOUS
10
5.0498469685039371
20
-3.2288055511811025
11
5.0431089370078741
21
-3.2333077559055119
0
LINE
8
BLACK
6
CONTINUOUS
10
5.0431089370078741
20
-3.2333077559055119
11
5.0356220078740153
21
-3.2364089370078739
0
LINE
8
BLACK
6
CONTINUOUS
10
5.0356220078740153
20
-3.2364089370078739
11
5.027673937007874
21
-3.2379899212598424
0
LINE
8
BLACK
6
CONTINUOUS
10
5.027673937007874
20
-3.2379899212598424
11
5.0195701574803149
21
-3.2379899212598424
0
LINE
8
BLACK
6
CONTINUOUS
10
5.0195701574803149
20
-3.2379899212598424
11
5.0116220866141727
21
-3.2364089370078739
0
LINE
8
BLACK
6
CONTINUOUS
10
5.0116220866141727
20
-3.2364089370078739
11
5.0041351574803148
21
-3.2333077559055119
0
LINE
8
BLACK
6
CONTINUOUS
10
5.0041351574803148
20
-3.2333077559055119
11
4.9973971259842518
21
-3.2288055511811025
0
LINE
8
BLACK
6
CONTINUOUS
10
4.9973971259842518
20
-3.2288055511811025
11
4.9916668897637795
21
-3.2230753149606297
0
LINE
8
BLACK
6
CONTINUOUS
10
4.9916668897637795
20
-3.2230753149606297
11
4.98716468503937
21
-3.2163372834645667
0
LINE
8
BLACK
6
CONTINUOUS
10
4.98716468503937
20
-3.2163372834645667
11
4.9840635039370076
21
-3.2088503543307088
0
LINE
8
BLACK
6
CONTINUOUS
10
4.9840635039370076
20
-3.2088503543307088
11
4.9824825196850391
21
-3.2009022834645671
0
LINE
8
BLACK
6
CONTINUOUS
10
4.9824825196850391
20
-3.2009022834645671
11
4.9824825196850391
21
-3.1927985039370079
0
LINE
8
BLACK
6
CONTINUOUS
10
4.9824825196850391
20
-3.1927985039370079
11
4.9840635039370076
21
-3.1848504330708662
0
LINE
8
BLACK
6
CONTINUOUS
10
4.9840635039370076
20
-3.1848504330708662
11
4.98716468503937
21
-3.1773635039370078
0
LINE
8
BLACK
6
CONTINUOUS
10
4.98716468503937
20
-3.1773635039370078
11
4.9916668897637795
21
-3.1706254724409448
0
LINE
8
BLACK
6
CONTINUOUS
10
4.9916668897637795
20
-3.1706254724409448
11
4.9973971259842518
21
-3.1648952362204725
0
LINE
8
BLACK
6
CONTINUOUS
10
4.9973971259842518
20
-3.1648952362204725
11
5.0041351574803148
21
-3.1603930314960631
0
LINE
8
BLACK
6
CONTINUOUS
10
5.0041351574803148
20
-3.1603930314960631
11
5.0116220866141727
21
-3.1572918503937006
0
LINE
8
BLACK
6
CONTINUOUS
10
5.0116220866141727
20
-3.1572918503937006
11
5.0195701574803149
21
-3.1557108661417321
0
LINE
8
BLACK
6
CONTINUOUS
10
5.0195701574803149
20
-3.1557108661417321
11
5.027673937007874
21
-3.1557108661417321
0
LINE
8
BLACK
6
CONTINUOUS
10
5.027673937007874
20
-3.1557108661417321
11
5.0356220078740153
21
-3.1572918503937006
0
LINE
8
BLACK
6
CONTINUOUS
10
7.0582864566929135
20
-3.1599947244094486
11
7.0631818503937005
21
-3.1628211023622046
0
LINE
8
BLACK
6
CONTINUOUS
10
7.0631818503937005
20
-3.1628211023622046
11
7.0671788976377954
21
-3.166818149606299
0
LINE
8
BLACK
6
CONTINUOUS
10
7.0671788976377954
20
-3.166818149606299
11
7.0700052755905514
21
-3.1717135433070864
0
LINE
8
BLACK
6
CONTINUOUS
10
7.0700052755905514
20
-3.1717135433070864
11
7.0714683070866142
21
-3.1771736614173229
0
LINE
8
BLACK
6
CONTINUOUS
10
7.0714683070866142
20
-3.1771736614173229
11
7.0714683070866142
21
-3.1828263385826769
0
LINE
8
BLACK
6
CONTINUOUS
10
7.0714683070866142
20
-3.1828263385826769
11
7.0700052755905514
21
-3.1882864566929134
0
LINE
8
BLACK
6
CONTINUOUS
10
7.0700052755905514
20
-3.1882864566929134
11
7.0671788976377954
21
-3.1931818503937008
0
LINE
8
BLACK
6
CONTINUOUS
10
7.0671788976377954
20
-3.1931818503937008
11
7.0631818503937005
21
-3.1971788976377953
0
LINE
8
BLACK
6
CONTINUOUS
10
7.0631818503937005
20
-3.1971788976377953
11
7.0582864566929135
21
-3.2000052755905513
0
LINE
8
BLACK
6
CONTINUOUS
10
7.0582864566929135
20
-3.2000052755905513
11
7.052826338582677
21
-3.2014683070866141
0
LINE
8
BLACK
6
CONTINUOUS
10
7.052826338582677
20
-3.2014683070866141
11
7.0471736614173226
21
-3.2014683070866141
0
LINE
8
BLACK
6
CONTINUOUS
10
7.0471736614173226
20
-3.2014683070866141
11
7.0417135433070861
21
-3.2000052755905513
0
LINE
8
BLACK
6
CONTINUOUS
10
7.0417135433070861
20
-3.2000052755905513
11
7.0368181496062991
21
-3.1971788976377953
0
LINE
8
BLACK
6
CONTINUOUS
10
7.0368181496062991
20
-3.1971788976377953
11
7.0328211023622043
21
-3.1931818503937008
0
LINE
8
BLACK
6
CONTINUOUS
10
7.0328211023622043
20
-3.1931818503937008
11
7.0299947244094483
21
-3.1882864566929134
0
LINE
8
BLACK
6
CONTINUOUS
10
7.0299947244094483
20
-3.1882864566929134
11
7.0285316929133854
21
-3.1828263385826769
0
LINE
8
BLACK
6
CONTINUOUS
10
7.0285316929133854
20
-3.1828263385826769
11
7.0285316929133854
21
-3.1771736614173229
0
LINE
8
BLACK
6
CONTINUOUS
10
7.0285316929133854
20
-3.1771736614173229
11
7.0299947244094483
21
-3.1717135433070864
0
LINE
8
BLACK
6
CONTINUOUS
10
7.0299947244094483
20
-3.1717135433070864
11
7.0328211023622043
21
-3.166818149606299
0
LINE
8
BLACK
6
CONTINUOUS
10
7.0328211023622043
20
-3.166818149606299
11
7.0368181496062991
21
-3.1628211023622046
0
LINE
8
BLACK
6
CONTINUOUS
10
7.0368181496062991
20
-3.1628211023622046
11
7.0417135433070861
21
-3.1599947244094486
0
LINE
8
BLACK
6
CONTINUOUS
10
7.0417135433070861
20
-3.1599947244094486
11
7.0471736614173226
21
-3.1585316929133858
0
LINE
8
BLACK
6
CONTINUOUS
10
7.0471736614173226
20
-3.1585316929133858
11
7.052826338582677
21
-3.1585316929133858
0
LINE
8
BLACK
6
CONTINUOUS
10
7.052826338582677
20
-3.1585316929133858
11
7.0582864566929135
21
-3.1599947244094486
0
LINE
8
BLACK
6
CONTINUOUS
10
6.6142864566929136
20
-3.1359947244094486
11
6.6191818503937006
21
-3.1388211023622046
0
LINE
8
BLACK
6
CONTINUOUS
10
6.6191818503937006
20
-3.1388211023622046
11
6.6231788976377954
21
-3.142818149606299
0
LINE
8
BLACK
6
CONTINUOUS
10
6.6231788976377954
20
-3.142818149606299
11
6.6260052755905514
21
-3.1477135433070864
0
LINE
8
BLACK
6
CONTINUOUS
10
6.6260052755905514
20
-3.1477135433070864
11
6.6274683070866143
21
-3.1531736614173229
0
LINE
8
BLACK
6
CONTINUOUS
10
6.6274683070866143
20
-3.1531736614173229
11
6.6274683070866143
21
-3.1588263385826769
0
LINE
8
BLACK
6
CONTINUOUS
10
6.6274683070866143
20
-3.1588263385826769
11
6.6260052755905514
21
-3.1642864566929134
0
LINE
8
BLACK
6
CONTINUOUS
10
6.6260052755905514
20
-3.1642864566929134
11
6.6231788976377954
21
-3.1691818503937008
0
LINE
8
BLACK
6
CONTINUOUS
10
6.6231788976377954
20
-3.1691818503937008
11
6.6191818503937006
21
-3.1731788976377953
0
LINE
8
BLACK
6
CONTINUOUS
10
6.6191818503937006
20
-3.1731788976377953
11
6.6142864566929136
21
-3.1760052755905512
0
LINE
8
BLACK
6
CONTINUOUS
10
6.6142864566929136
20
-3.1760052755905512
11
6.6088263385826771
21
-3.1774683070866141
0
LINE
8
BLACK
6
CONTINUOUS
10
6.6088263385826771
20
-3.1774683070866141
11
6.6031736614173226
21
-3.1774683070866141
0
LINE
8
BLACK
6
CONTINUOUS
10
6.6031736614173226
20
-3.1774683070866141
11
6.5977135433070861
21
-3.1760052755905512
0
LINE
8
BLACK
6
CONTINUOUS
10
6.5977135433070861
20
-3.1760052755905512
11
6.5928181496062992
21
-3.1731788976377953
0
LINE
8
BLACK
6
CONTINUOUS
10
6.5928181496062992
20
-3.1731788976377953
11
6.5888211023622043
21
-3.1691818503937008
0
LINE
8
BLACK
6
CONTINUOUS
10
6.5888211023622043
20
-3.1691818503937008
11
6.5859947244094483
21
-3.1642864566929134
0
LINE
8
BLACK
6
CONTINUOUS
10
6.5859947244094483
20
-3.1642864566929134
11
6.5845316929133855
21
-3.1588263385826769
0
LINE
8
BLACK
6
CONTINUOUS
10
6.5845316929133855
20
-3.1588263385826769
11
6.5845316929133855
21
-3.1531736614173229
0
LINE
8
BLACK
6
CONTINUOUS
10
6.5845316929133855
20
-3.1531736614173229
11
6.5859947244094483
21
-3.1477135433070864
0
LINE
8
BLACK
6
CONTINUOUS
10
6.5859947244094483
20
-3.1477135433070864
11
6.5888211023622043
21
-3.142818149606299
0
LINE
8
BLACK
6
CONTINUOUS
10
6.5888211023622043
20
-3.142818149606299
11
6.5928181496062992
21
-3.1388211023622046
0
LINE
8
BLACK
6
CONTINUOUS
10
6.5928181496062992
20
-3.1388211023622046
11
6.5977135433070861
21
-3.1359947244094486
0
LINE
8
BLACK
6
CONTINUOUS
10
6.5977135433070861
20
-3.1359947244094486
11
6.6031736614173226
21
-3.1345316929133857
0
LINE
8
BLACK
6
CONTINUOUS
10
6.6031736614173226
20
-3.1345316929133857
11
6.6088263385826771
21
-3.1345316929133857
0
LINE
8
BLACK
6
CONTINUOUS
10
6.6088263385826771
20
-3.1345316929133857
11
6.6142864566929136
21
-3.1359947244094486
0
LINE
8
BLACK
6
CONTINUOUS
10
5.5602856692913383
20
-3.1060926771653543
11
5.566703031496063
21
-3.1087508267716535
0
LINE
8
BLACK
6
CONTINUOUS
10
5.566703031496063
20
-3.1087508267716535
11
5.5724785039370079
21
-3.1126098818897638
0
LINE
8
BLACK
6
CONTINUOUS
10
5.5724785039370079
20
-3.1126098818897638
11
5.5773901181102357
21
-3.117521496062992
0
LINE
8
BLACK
6
CONTINUOUS
10
5.5773901181102357
20
-3.117521496062992
11
5.581249173228346
21
-3.1232969685039369
0
LINE
8
BLACK
6
CONTINUOUS
10
5.581249173228346
20
-3.1232969685039369
11
5.5839073228346452
21
-3.1297143307086612
0
LINE
8
BLACK
6
CONTINUOUS
10
5.5839073228346452
20
-3.1297143307086612
11
5.5852624409448817
21
-3.136526968503937
0
LINE
8
BLACK
6
CONTINUOUS
10
5.5852624409448817
20
-3.136526968503937
11
5.5852624409448817
21
-3.1434730314960628
0
LINE
8
BLACK
6
CONTINUOUS
10
5.5852624409448817
20
-3.1434730314960628
11
5.5839073228346452
21
-3.1502856692913386
0
LINE
8
BLACK
6
CONTINUOUS
10
5.5839073228346452
20
-3.1502856692913386
11
5.581249173228346
21
-3.1567030314960629
0
LINE
8
BLACK
6
CONTINUOUS
10
5.581249173228346
20
-3.1567030314960629
11
5.5773901181102357
21
-3.1624785039370078
0
LINE
8
BLACK
6
CONTINUOUS
10
5.5773901181102357
20
-3.1624785039370078
11
5.5724785039370079
21
-3.167390118110236
0
LINE
8
BLACK
6
CONTINUOUS
10
5.5724785039370079
20
-3.167390118110236
11
5.566703031496063
21
-3.1712491732283463
0
LINE
8
BLACK
6
CONTINUOUS
10
5.566703031496063
20
-3.1712491732283463
11
5.5602856692913383
21
-3.1739073228346455
0
LINE
8
BLACK
6
CONTINUOUS
10
5.5602856692913383
20
-3.1739073228346455
11
5.553473031496063
21
-3.175262440944882
0
LINE
8
BLACK
6
CONTINUOUS
10
5.553473031496063
20
-3.175262440944882
11
5.5465269685039367
21
-3.175262440944882
0
LINE
8
BLACK
6
CONTINUOUS
10
5.5465269685039367
20
-3.175262440944882
11
5.5397143307086614
21
-3.1739073228346455
0
LINE
8
BLACK
6
CONTINUOUS
10
5.5397143307086614
20
-3.1739073228346455
11
5.5332969685039366
21
-3.1712491732283463
0
LINE
8
BLACK
6
CONTINUOUS
10
5.5332969685039366
20
-3.1712491732283463
11
5.5275214960629917
21
-3.167390118110236
0
LINE
8
BLACK
6
CONTINUOUS
10
5.5275214960629917
20
-3.167390118110236
11
5.522609881889764
21
-3.1624785039370078
0
LINE
8
BLACK
6
CONTINUOUS
10
5.522609881889764
20
-3.1624785039370078
11
5.5187508267716536
21
-3.1567030314960629
0
LINE
8
BLACK
6
CONTINUOUS
10
5.5187508267716536
20
-3.1567030314960629
11
5.5160926771653545
21
-3.1502856692913386
0
LINE
8
BLACK
6
CONTINUOUS
10
5.5160926771653545
20
-3.1502856692913386
11
5.514737559055118
21
-3.1434730314960628
0
LINE
8
BLACK
6
CONTINUOUS
10
5.514737559055118
20
-3.1434730314960628
11
5.514737559055118
21
-3.136526968503937
0
LINE
8
BLACK
6
CONTINUOUS
10
5.514737559055118
20
-3.136526968503937
11
5.5160926771653545
21
-3.1297143307086612
0
LINE
8
BLACK
6
CONTINUOUS
10
5.5160926771653545
20
-3.1297143307086612
11
5.5187508267716536
21
-3.1232969685039369
0
LINE
8
BLACK
6
CONTINUOUS
10
5.5187508267716536
20
-3.1232969685039369
11
5.522609881889764
21
-3.117521496062992
0
LINE
8
BLACK
6
CONTINUOUS
10
5.522609881889764
20
-3.117521496062992
11
5.5275214960629917
21
-3.1126098818897638
0
LINE
8
BLACK
6
CONTINUOUS
10
5.5275214960629917
20
-3.1126098818897638
11
5.5332969685039366
21
-3.1087508267716535
0
LINE
8
BLACK
6
CONTINUOUS
10
5.5332969685039366
20
-3.1087508267716535
11
5.5397143307086614
21
-3.1060926771653543
0
LINE
8
BLACK
6
CONTINUOUS
10
5.5397143307086614
20
-3.1060926771653543
11
5.5465269685039367
21
-3.1047375590551178
0
LINE
8
BLACK
6
CONTINUOUS
10
5.5465269685039367
20
-3.1047375590551178
11
5.553473031496063
21
-3.1047375590551178
0
LINE
8
BLACK
6
CONTINUOUS
10
5.553473031496063
20
-3.1047375590551178
11
5.5602856692913383
21
-3.1060926771653543
0
LINE
8
BLACK
6
CONTINUOUS
10
5.4003596062992125
20
-3.0946380314960629
11
5.4009982283464568
21
-3.0950647637795274
0
LINE
8
BLACK
6
CONTINUOUS
10
5.4009982283464568
20
-3.0950647637795274
11
5.4014249606299209
21
-3.0957033858267717
0
LINE
8
BLACK
6
CONTINUOUS
10
5.4014249606299209
20
-3.0957033858267717
11
5.4015748031496065
21
-3.0964566929133857
0
LINE
8
BLACK
6
CONTINUOUS
10
5.4015748031496065
20
-3.0964566929133857
11
5.4015748031496065
21
-3.1633858267716533
0
LINE
8
BLACK
6
CONTINUOUS
10
5.4015748031496065
20
-3.1633858267716533
11
5.4014249606299209
21
-3.1641391338582676
0
LINE
8
BLACK
6
CONTINUOUS
10
5.4014249606299209
20
-3.1641391338582676
11
5.4009982283464568
21
-3.1647777559055119
0
LINE
8
BLACK
6
CONTINUOUS
10
5.4009982283464568
20
-3.1647777559055119
11
5.4003596062992125
21
-3.1652044881889765
0
LINE
8
BLACK
6
CONTINUOUS
10
5.4003596062992125
20
-3.1652044881889765
11
5.3996062992125982
21
-3.1653543307086611
0
LINE
8
BLACK
6
CONTINUOUS
10
5.3996062992125982
20
-3.1653543307086611
11
5.3326771653543306
21
-3.1653543307086611
0
LINE
8
BLACK
6
CONTINUOUS
10
5.3326771653543306
20
-3.1653543307086611
11
5.3319238582677162
21
-3.1652044881889765
0
LINE
8
BLACK
6
CONTINUOUS
10
5.3319238582677162
20
-3.1652044881889765
11
5.3312852362204719
21
-3.1647777559055119
0
LINE
8
BLACK
6
CONTINUOUS
10
5.3312852362204719
20
-3.1647777559055119
11
5.3308585039370078
21
-3.1641391338582676
0
LINE
8
BLACK
6
CONTINUOUS
10
5.3308585039370078
20
-3.1641391338582676
11
5.3307086614173231
21
-3.1633858267716533
0
LINE
8
BLACK
6
CONTINUOUS
10
5.3307086614173231
20
-3.1633858267716533
11
5.3307086614173231
21
-3.0964566929133857
0
LINE
8
BLACK
6
CONTINUOUS
10
5.3307086614173231
20
-3.0964566929133857
11
5.3308585039370078
21
-3.0957033858267717
0
LINE
8
BLACK
6
CONTINUOUS
10
5.3308585039370078
20
-3.0957033858267717
11
5.3312852362204719
21
-3.0950647637795274
0
LINE
8
BLACK
6
CONTINUOUS
10
5.3312852362204719
20
-3.0950647637795274
11
5.3319238582677162
21
-3.0946380314960629
0
LINE
8
BLACK
6
CONTINUOUS
10
5.3319238582677162
20
-3.0946380314960629
11
5.3326771653543306
21
-3.0944881889763778
0
LINE
8
BLACK
6
CONTINUOUS
10
5.3326771653543306
20
-3.0944881889763778
11
5.3996062992125982
21
-3.0944881889763778
0
LINE
8
BLACK
6
CONTINUOUS
10
5.3996062992125982
20
-3.0944881889763778
11
5.4003596062992125
21
-3.0946380314960629
0
LINE
8
BLACK
6
CONTINUOUS
10
6.8382864566929129
20
-3.0699947244094488
11
6.8431818503937007
21
-3.0728211023622047
0
LINE
8
BLACK
6
CONTINUOUS
10
6.8431818503937007
20
-3.0728211023622047
11
6.8471788976377947
21
-3.0768181496062992
0
LINE
8
BLACK
6
CONTINUOUS
10
6.8471788976377947
20
-3.0768181496062992
11
6.8500052755905507
21
-3.0817135433070866
0
LINE
8
BLACK
6
CONTINUOUS
10
6.8500052755905507
20
-3.0817135433070866
11
6.8514683070866136
21
-3.0871736614173226
0
LINE
8
BLACK
6
CONTINUOUS
10
6.8514683070866136
20
-3.0871736614173226
11
6.8514683070866136
21
-3.0928263385826771
0
LINE
8
BLACK
6
CONTINUOUS
10
6.8514683070866136
20
-3.0928263385826771
11
6.8500052755905507
21
-3.0982864566929131
0
LINE
8
BLACK
6
CONTINUOUS
10
6.8500052755905507
20
-3.0982864566929131
11
6.8471788976377947
21
-3.1031818503937005
0
LINE
8
BLACK
6
CONTINUOUS
10
6.8471788976377947
20
-3.1031818503937005
11
6.8431818503937007
21
-3.1071788976377954
0
LINE
8
BLACK
6
CONTINUOUS
10
6.8431818503937007
20
-3.1071788976377954
11
6.8382864566929129
21
-3.110005275590551
0
LINE
8
BLACK
6
CONTINUOUS
10
6.8382864566929129
20
-3.110005275590551
11
6.8328263385826773
21
-3.1114683070866143
0
LINE
8
BLACK
6
CONTINUOUS
10
6.8328263385826773
20
-3.1114683070866143
11
6.8271736614173228
21
-3.1114683070866143
0
LINE
8
BLACK
6
CONTINUOUS
10
6.8271736614173228
20
-3.1114683070866143
11
6.8217135433070863
21
-3.110005275590551
0
LINE
8
BLACK
6
CONTINUOUS
10
6.8217135433070863
20
-3.110005275590551
11
6.8168181496062994
21
-3.1071788976377954
0
LINE
8
BLACK
6
CONTINUOUS
10
6.8168181496062994
20
-3.1071788976377954
11
6.8128211023622045
21
-3.1031818503937005
0
LINE
8
BLACK
6
CONTINUOUS
10
6.8128211023622045
20
-3.1031818503937005
11
6.8099947244094485
21
-3.0982864566929131
0
LINE
8
BLACK
6
CONTINUOUS
10
6.8099947244094485
20
-3.0982864566929131
11
6.8085316929133857
21
-3.0928263385826771
0
LINE
8
BLACK
6
CONTINUOUS
10
6.8085316929133857
20
-3.0928263385826771
11
6.8085316929133857
21
-3.0871736614173226
0
LINE
8
BLACK
6
CONTINUOUS
10
6.8085316929133857
20
-3.0871736614173226
11
6.8099947244094485
21
-3.0817135433070866
0
LINE
8
BLACK
6
CONTINUOUS
10
6.8099947244094485
20
-3.0817135433070866
11
6.8128211023622045
21
-3.0768181496062992
0
LINE
8
BLACK
6
CONTINUOUS
10
6.8128211023622045
20
-3.0768181496062992
11
6.8168181496062994
21
-3.0728211023622047
0
LINE
8
BLACK
6
CONTINUOUS
10
6.8168181496062994
20
-3.0728211023622047
11
6.8217135433070863
21
-3.0699947244094488
0
LINE
8
BLACK
6
CONTINUOUS
10
6.8217135433070863
20
-3.0699947244094488
11
6.8271736614173228
21
-3.0685316929133859
0
LINE
8
BLACK
6
CONTINUOUS
10
6.8271736614173228
20
-3.0685316929133859
11
6.8328263385826773
21
-3.0685316929133859
0
LINE
8
BLACK
6
CONTINUOUS
10
6.8328263385826773
20
-3.0685316929133859
11
6.8382864566929129
21
-3.0699947244094488
0
LINE
8
BLACK
6
CONTINUOUS
10
7.0370840551181102
20
-2.9438342519685037
11
7.0472815354330711
21
-2.9465666535433068
0
LINE
8
BLACK
6
CONTINUOUS
10
7.0472815354330711
20
-2.9465666535433068
11
7.0570351181102362
21
-2.9506067322834646
0
LINE
8
BLACK
6
CONTINUOUS
10
7.0570351181102362
20
-2.9506067322834646
11
7.0661779133858262
21
-2.9558853149606299
0
LINE
8
BLACK
6
CONTINUOUS
10
7.0661779133858262
20
-2.9558853149606299
11
7.0745535039370075
21
-2.9623121259842518
0
LINE
8
BLACK
6
CONTINUOUS
10
7.0745535039370075
20
-2.9623121259842518
11
7.0820185826771649
21
-2.9697772047244095
0
LINE
8
BLACK
6
CONTINUOUS
10
7.0820185826771649
20
-2.9697772047244095
11
7.0884453937007876
21
-2.9781527952755904
0
LINE
8
BLACK
6
CONTINUOUS
10
7.0884453937007876
20
-2.9781527952755904
11
7.0937239763779525
21
-2.9872955905511809
0
LINE
8
BLACK
6
CONTINUOUS
10
7.0937239763779525
20
-2.9872955905511809
11
7.0977640551181098
21
-2.9970491732283464
0
LINE
8
BLACK
6
CONTINUOUS
10
7.0977640551181098
20
-2.9970491732283464
11
7.1004964566929134
21
-3.0072466535433069
0
LINE
8
BLACK
6
CONTINUOUS
10
7.1004964566929134
20
-3.0072466535433069
11
7.1018744488188972
21
-3.0177135433070865
0
LINE
8
BLACK
6
CONTINUOUS
10
7.1018744488188972
20
-3.0177135433070865
11
7.1018744488188972
21
-3.0282707086614171
0
LINE
8
BLACK
6
CONTINUOUS
10
7.1018744488188972
20
-3.0282707086614171
11
7.1004964566929134
21
-3.0387375984251968
0
LINE
8
BLACK
6
CONTINUOUS
10
7.1004964566929134
20
-3.0387375984251968
11
7.0977640551181098
21
-3.0489350787401572
0
LINE
8
BLACK
6
CONTINUOUS
10
7.0977640551181098
20
-3.0489350787401572
11
7.0937239763779525
21
-3.0586886614173228
0
LINE
8
BLACK
6
CONTINUOUS
10
7.0937239763779525
20
-3.0586886614173228
11
7.0884453937007876
21
-3.0678314566929132
0
LINE
8
BLACK
6
CONTINUOUS
10
7.0884453937007876
20
-3.0678314566929132
11
7.0820185826771649
21
-3.0762070472440946
0
LINE
8
BLACK
6
CONTINUOUS
10
7.0820185826771649
20
-3.0762070472440946
11
7.0745535039370075
21
-3.0836721259842519
0
LINE
8
BLACK
6
CONTINUOUS
10
7.0745535039370075
20
-3.0836721259842519
11
7.0661779133858262
21
-3.0900989370078737
0
LINE
8
BLACK
6
CONTINUOUS
10
7.0661779133858262
20
-3.0900989370078737
11
7.0570351181102362
21
-3.0953775196850395
0
LINE
8
BLACK
6
CONTINUOUS
10
7.0570351181102362
20
-3.0953775196850395
11
7.0472815354330711
21
-3.0994175984251968
0
LINE
8
BLACK
6
CONTINUOUS
10
7.0472815354330711
20
-3.0994175984251968
11
7.0370840551181102
21
-3.10215
0
LINE
8
BLACK
6
CONTINUOUS
10
7.0370840551181102
20
-3.10215
11
7.0266171653543301
21
-3.1035279921259842
0
LINE
8
BLACK
6
CONTINUOUS
10
7.0266171653543301
20
-3.1035279921259842
11
7.0160599999999995
21
-3.1035279921259842
0
LINE
8
BLACK
6
CONTINUOUS
10
7.0160599999999995
20
-3.1035279921259842
11
7.0055931102362203
21
-3.10215
0
LINE
8
BLACK
6
CONTINUOUS
10
7.0055931102362203
20
-3.10215
11
6.9953956299212594
21
-3.0994175984251968
0
LINE
8
BLACK
6
CONTINUOUS
10
6.9953956299212594
20
-3.0994175984251968
11
6.9856420472440943
21
-3.0953775196850395
0
LINE
8
BLACK
6
CONTINUOUS
10
6.9856420472440943
20
-3.0953775196850395
11
6.9764992519685034
21
-3.0900989370078737
0
LINE
8
BLACK
6
CONTINUOUS
10
6.9764992519685034
20
-3.0900989370078737
11
6.968123661417323
21
-3.0836721259842519
0
LINE
8
BLACK
6
CONTINUOUS
10
6.968123661417323
20
-3.0836721259842519
11
6.9606585826771656
21
-3.0762070472440946
0
LINE
8
BLACK
6
CONTINUOUS
10
6.9606585826771656
20
-3.0762070472440946
11
6.9542317716535429
21
-3.0678314566929132
0
LINE
8
BLACK
6
CONTINUOUS
10
6.9542317716535429
20
-3.0678314566929132
11
6.948953188976378
21
-3.0586886614173228
0
LINE
8
BLACK
6
CONTINUOUS
10
6.948953188976378
20
-3.0586886614173228
11
6.9449131102362207
21
-3.0489350787401572
0
LINE
8
BLACK
6
CONTINUOUS
10
6.9449131102362207
20
-3.0489350787401572
11
6.9421807086614171
21
-3.0387375984251968
0
LINE
8
BLACK
6
CONTINUOUS
10
6.9421807086614171
20
-3.0387375984251968
11
6.9408027165354333
21
-3.0282707086614171
0
LINE
8
BLACK
6
CONTINUOUS
10
6.9408027165354333
20
-3.0282707086614171
11
6.9408027165354333
21
-3.0177135433070865
0
LINE
8
BLACK
6
CONTINUOUS
10
6.9408027165354333
20
-3.0177135433070865
11
6.9421807086614171
21
-3.0072466535433069
0
LINE
8
BLACK
6
CONTINUOUS
10
6.9421807086614171
20
-3.0072466535433069
11
6.9449131102362207
21
-2.9970491732283464
0
LINE
8
BLACK
6
CONTINUOUS
10
6.9449131102362207
20
-2.9970491732283464
11
6.948953188976378
21
-2.9872955905511809
0
LINE
8
BLACK
6
CONTINUOUS
10
6.948953188976378
20
-2.9872955905511809
11
6.9542317716535429
21
-2.9781527952755904
0
LINE
8
BLACK
6
CONTINUOUS
10
6.9542317716535429
20
-2.9781527952755904
11
6.9606585826771656
21
-2.9697772047244095
0
LINE
8
BLACK
6
CONTINUOUS
10
6.9606585826771656
20
-2.9697772047244095
11
6.968123661417323
21
-2.9623121259842518
0
LINE
8
BLACK
6
CONTINUOUS
10
6.968123661417323
20
-2.9623121259842518
11
6.9764992519685034
21
-2.9558853149606299
0
LINE
8
BLACK
6
CONTINUOUS
10
6.9764992519685034
20
-2.9558853149606299
11
6.9856420472440943
21
-2.9506067322834646
0
LINE
8
BLACK
6
CONTINUOUS
10
6.9856420472440943
20
-2.9506067322834646
11
6.9953956299212594
21
-2.9465666535433068
0
LINE
8
BLACK
6
CONTINUOUS
10
6.9953956299212594
20
-2.9465666535433068
11
7.0055931102362203
21
-2.9438342519685037
0
LINE
8
BLACK
6
CONTINUOUS
10
7.0055931102362203
20
-2.9438342519685037
11
7.0160599999999995
21
-2.9424562598425195
0
LINE
8
BLACK
6
CONTINUOUS
10
7.0160599999999995
20
-2.9424562598425195
11
7.0266171653543301
21
-2.9424562598425195
0
LINE
8
BLACK
6
CONTINUOUS
10
7.0266171653543301
20
-2.9424562598425195
11
7.0370840551181102
21
-2.9438342519685037
0
LINE
8
BLACK
6
CONTINUOUS
10
5.5842178740157475
20
-3.0047167716535435
11
5.5848564960629918
21
-3.005143503937008
0
LINE
8
BLACK
6
CONTINUOUS
10
5.5848564960629918
20
-3.005143503937008
11
5.5852832283464569
21
-3.0057821259842519
0
LINE
8
BLACK
6
CONTINUOUS
10
5.5852832283464569
20
-3.0057821259842519
11
5.5854330708661415
21
-3.0065354330708662
0
LINE
8
BLACK
6
CONTINUOUS
10
5.5854330708661415
20
-3.0065354330708662
11
5.5854330708661415
21
-3.0734645669291338
0
LINE
8
BLACK
6
CONTINUOUS
10
5.5854330708661415
20
-3.0734645669291338
11
5.5852832283464569
21
-3.0742178740157478
0
LINE
8
BLACK
6
CONTINUOUS
10
5.5852832283464569
20
-3.0742178740157478
11
5.5848564960629918
21
-3.0748564960629921
0
LINE
8
BLACK
6
CONTINUOUS
10
5.5848564960629918
20
-3.0748564960629921
11
5.5842178740157475
21
-3.0752832283464566
0
LINE
8
BLACK
6
CONTINUOUS
10
5.5842178740157475
20
-3.0752832283464566
11
5.5834645669291341
21
-3.0754330708661417
0
LINE
8
BLACK
6
CONTINUOUS
10
5.5834645669291341
20
-3.0754330708661417
11
5.5165354330708656
21
-3.0754330708661417
0
LINE
8
BLACK
6
CONTINUOUS
10
5.5165354330708656
20
-3.0754330708661417
11
5.5157821259842521
21
-3.0752832283464566
0
LINE
8
BLACK
6
CONTINUOUS
10
5.5157821259842521
20
-3.0752832283464566
11
5.5151435039370078
21
-3.0748564960629921
0
LINE
8
BLACK
6
CONTINUOUS
10
5.5151435039370078
20
-3.0748564960629921
11
5.5147167716535428
21
-3.0742178740157478
0
LINE
8
BLACK
6
CONTINUOUS
10
5.5147167716535428
20
-3.0742178740157478
11
5.5145669291338582
21
-3.0734645669291338
0
LINE
8
BLACK
6
CONTINUOUS
10
5.5145669291338582
20
-3.0734645669291338
11
5.5145669291338582
21
-3.0065354330708662
0
LINE
8
BLACK
6
CONTINUOUS
10
5.5145669291338582
20
-3.0065354330708662
11
5.5147167716535428
21
-3.0057821259842519
0
LINE
8
BLACK
6
CONTINUOUS
10
5.5147167716535428
20
-3.0057821259842519
11
5.5151435039370078
21
-3.005143503937008
0
LINE
8
BLACK
6
CONTINUOUS
10
5.5151435039370078
20
-3.005143503937008
11
5.5157821259842521
21
-3.0047167716535435
0
LINE
8
BLACK
6
CONTINUOUS
10
5.5157821259842521
20
-3.0047167716535435
11
5.5165354330708656
21
-3.0045669291338584
0
LINE
8
BLACK
6
CONTINUOUS
10
5.5165354330708656
20
-3.0045669291338584
11
5.5834645669291341
21
-3.0045669291338584
0
LINE
8
BLACK
6
CONTINUOUS
10
5.5834645669291341
20
-3.0045669291338584
11
5.5842178740157475
21
-3.0047167716535435
0
LINE
8
BLACK
6
CONTINUOUS
10
5.3764274015748033
20
-2.996013937007874
11
5.3828447637795271
21
-2.9986720866141732
0
LINE
8
BLACK
6
CONTINUOUS
10
5.3828447637795271
20
-2.9986720866141732
11
5.388620236220472
21
-3.0025311417322835
0
LINE
8
BLACK
6
CONTINUOUS
10
5.388620236220472
20
-3.0025311417322835
11
5.3935318503937006
21
-3.0074427559055117
0
LINE
8
BLACK
6
CONTINUOUS
10
5.3935318503937006
20
-3.0074427559055117
11
5.397390905511811
21
-3.0132182283464566
0
LINE
8
BLACK
6
CONTINUOUS
10
5.397390905511811
20
-3.0132182283464566
11
5.4000490551181102
21
-3.0196355905511809
0
LINE
8
BLACK
6
CONTINUOUS
10
5.4000490551181102
20
-3.0196355905511809
11
5.4014041732283467
21
-3.0264482283464567
0
LINE
8
BLACK
6
CONTINUOUS
10
5.4014041732283467
20
-3.0264482283464567
11
5.4014041732283467
21
-3.0333942913385825
0
LINE
8
BLACK
6
CONTINUOUS
10
5.4014041732283467
20
-3.0333942913385825
11
5.4000490551181102
21
-3.0402069291338583
0
LINE
8
BLACK
6
CONTINUOUS
10
5.4000490551181102
20
-3.0402069291338583
11
5.397390905511811
21
-3.0466242913385826
0
LINE
8
BLACK
6
CONTINUOUS
10
5.397390905511811
20
-3.0466242913385826
11
5.3935318503937006
21
-3.0523997637795275
0
LINE
8
BLACK
6
CONTINUOUS
10
5.3935318503937006
20
-3.0523997637795275
11
5.388620236220472
21
-3.0573113779527556
0
LINE
8
BLACK
6
CONTINUOUS
10
5.388620236220472
20
-3.0573113779527556
11
5.3828447637795271
21
-3.061170433070866
0
LINE
8
BLACK
6
CONTINUOUS
10
5.3828447637795271
20
-3.061170433070866
11
5.3764274015748033
21
-3.0638285826771652
0
LINE
8
BLACK
6
CONTINUOUS
10
5.3764274015748033
20
-3.0638285826771652
11
5.3696147637795271
21
-3.0651837007874017
0
LINE
8
BLACK
6
CONTINUOUS
10
5.3696147637795271
20
-3.0651837007874017
11
5.3626687007874017
21
-3.0651837007874017
0
LINE
8
BLACK
6
CONTINUOUS
10
5.3626687007874017
20
-3.0651837007874017
11
5.3558560629921255
21
-3.0638285826771652
0
LINE
8
BLACK
6
CONTINUOUS
10
5.3558560629921255
20
-3.0638285826771652
11
5.3494387007874016
21
-3.061170433070866
0
LINE
8
BLACK
6
CONTINUOUS
10
5.3494387007874016
20
-3.061170433070866
11
5.3436632283464567
21
-3.0573113779527556
0
LINE
8
BLACK
6
CONTINUOUS
10
5.3436632283464567
20
-3.0573113779527556
11
5.3387516141732281
21
-3.0523997637795275
0
LINE
8
BLACK
6
CONTINUOUS
10
5.3387516141732281
20
-3.0523997637795275
11
5.3348925590551177
21
-3.0466242913385826
0
LINE
8
BLACK
6
CONTINUOUS
10
5.3348925590551177
20
-3.0466242913385826
11
5.3322344094488185
21
-3.0402069291338583
0
LINE
8
BLACK
6
CONTINUOUS
10
5.3322344094488185
20
-3.0402069291338583
11
5.330879291338583
21
-3.0333942913385825
0
LINE
8
BLACK
6
CONTINUOUS
10
5.330879291338583
20
-3.0333942913385825
11
5.330879291338583
21
-3.0264482283464567
0
LINE
8
BLACK
6
CONTINUOUS
10
5.330879291338583
20
-3.0264482283464567
11
5.3322344094488185
21
-3.0196355905511809
0
LINE
8
BLACK
6
CONTINUOUS
10
5.3322344094488185
20
-3.0196355905511809
11
5.3348925590551177
21
-3.0132182283464566
0
LINE
8
BLACK
6
CONTINUOUS
10
5.3348925590551177
20
-3.0132182283464566
11
5.3387516141732281
21
-3.0074427559055117
0
LINE
8
BLACK
6
CONTINUOUS
10
5.3387516141732281
20
-3.0074427559055117
11
5.3436632283464567
21
-3.0025311417322835
0
LINE
8
BLACK
6
CONTINUOUS
10
5.3436632283464567
20
-3.0025311417322835
11
5.3494387007874016
21
-2.9986720866141732
0
LINE
8
BLACK
6
CONTINUOUS
10
5.3494387007874016
20
-2.9986720866141732
11
5.3558560629921255
21
-2.996013937007874
0
LINE
8
BLACK
6
CONTINUOUS
10
5.3558560629921255
20
-2.996013937007874
11
5.3626687007874017
21
-2.9946588188976375
0
LINE
8
BLACK
6
CONTINUOUS
10
5.3626687007874017
20
-2.9946588188976375
11
5.3696147637795271
21
-2.9946588188976375
0
LINE
8
BLACK
6
CONTINUOUS
10
5.3696147637795271
20
-2.9946588188976375
11
5.3764274015748033
21
-2.996013937007874
0
LINE
8
BLACK
6
CONTINUOUS
10
5.3764274015748033
20
-2.8960139370078739
11
5.3828447637795271
21
-2.8986720866141731
0
LINE
8
BLACK
6
CONTINUOUS
10
5.3828447637795271
20
-2.8986720866141731
11
5.388620236220472
21
-2.9025311417322834
0
LINE
8
BLACK
6
CONTINUOUS
10
5.388620236220472
20
-2.9025311417322834
11
5.3935318503937006
21
-2.9074427559055116
0
LINE
8
BLACK
6
CONTINUOUS
10
5.3935318503937006
20
-2.9074427559055116
11
5.397390905511811
21
-2.9132182283464565
0
LINE
8
BLACK
6
CONTINUOUS
10
5.397390905511811
20
-2.9132182283464565
11
5.4000490551181102
21
-2.9196355905511808
0
LINE
8
BLACK
6
CONTINUOUS
10
5.4000490551181102
20
-2.9196355905511808
11
5.4014041732283467
21
-2.9264482283464566
0
LINE
8
BLACK
6
CONTINUOUS
10
5.4014041732283467
20
-2.9264482283464566
11
5.4014041732283467
21
-2.9333942913385824
0
LINE
8
BLACK
6
CONTINUOUS
10
5.4014041732283467
20
-2.9333942913385824
11
5.4000490551181102
21
-2.9402069291338582
0
LINE
8
BLACK
6
CONTINUOUS
10
5.4000490551181102
20
-2.9402069291338582
11
5.397390905511811
21
-2.9466242913385825
0
LINE
8
BLACK
6
CONTINUOUS
10
5.397390905511811
20
-2.9466242913385825
11
5.3935318503937006
21
-2.9523997637795274
0
LINE
8
BLACK
6
CONTINUOUS
10
5.3935318503937006
20
-2.9523997637795274
11
5.388620236220472
21
-2.957311377952756
0
LINE
8
BLACK
6
CONTINUOUS
10
5.388620236220472
20
-2.957311377952756
11
5.3828447637795271
21
-2.9611704330708659
0
LINE
8
BLACK
6
CONTINUOUS
10
5.3828447637795271
20
-2.9611704330708659
11
5.3764274015748033
21
-2.9638285826771651
0
LINE
8
BLACK
6
CONTINUOUS
10
5.3764274015748033
20
-2.9638285826771651
11
5.3696147637795271
21
-2.9651837007874016
0
LINE
8
BLACK
6
CONTINUOUS
10
5.3696147637795271
20
-2.9651837007874016
11
5.3626687007874017
21
-2.9651837007874016
0
LINE
8
BLACK
6
CONTINUOUS
10
5.3626687007874017
20
-2.9651837007874016
11
5.3558560629921255
21
-2.9638285826771651
0
LINE
8
BLACK
6
CONTINUOUS
10
5.3558560629921255
20
-2.9638285826771651
11
5.3494387007874016
21
-2.9611704330708659
0
LINE
8
BLACK
6
CONTINUOUS
10
5.3494387007874016
20
-2.9611704330708659
11
5.3436632283464567
21
-2.957311377952756
0
LINE
8
BLACK
6
CONTINUOUS
10
5.3436632283464567
20
-2.957311377952756
11
5.3387516141732281
21
-2.9523997637795274
0
LINE
8
BLACK
6
CONTINUOUS
10
5.3387516141732281
20
-2.9523997637795274
11
5.3348925590551177
21
-2.9466242913385825
0
LINE
8
BLACK
6
CONTINUOUS
10
5.3348925590551177
20
-2.9466242913385825
11
5.3322344094488185
21
-2.9402069291338582
0
LINE
8
BLACK
6
CONTINUOUS
10
5.3322344094488185
20
-2.9402069291338582
11
5.330879291338583
21
-2.9333942913385824
0
LINE
8
BLACK
6
CONTINUOUS
10
5.330879291338583
20
-2.9333942913385824
11
5.330879291338583
21
-2.9264482283464566
0
LINE
8
BLACK
6
CONTINUOUS
10
5.330879291338583
20
-2.9264482283464566
11
5.3322344094488185
21
-2.9196355905511808
0
LINE
8
BLACK
6
CONTINUOUS
10
5.3322344094488185
20
-2.9196355905511808
11
5.3348925590551177
21
-2.9132182283464565
0
LINE
8
BLACK
6
CONTINUOUS
10
5.3348925590551177
20
-2.9132182283464565
11
5.3387516141732281
21
-2.9074427559055116
0
LINE
8
BLACK
6
CONTINUOUS
10
5.3387516141732281
20
-2.9074427559055116
11
5.3436632283464567
21
-2.9025311417322834
0
LINE
8
BLACK
6
CONTINUOUS
10
5.3436632283464567
20
-2.9025311417322834
11
5.3494387007874016
21
-2.8986720866141731
0
LINE
8
BLACK
6
CONTINUOUS
10
5.3494387007874016
20
-2.8986720866141731
11
5.3558560629921255
21
-2.8960139370078739
0
LINE
8
BLACK
6
CONTINUOUS
10
5.3558560629921255
20
-2.8960139370078739
11
5.3626687007874017
21
-2.8946588188976379
0
LINE
8
BLACK
6
CONTINUOUS
10
5.3626687007874017
20
-2.8946588188976379
11
5.3696147637795271
21
-2.8946588188976379
0
LINE
8
BLACK
6
CONTINUOUS
10
5.3696147637795271
20
-2.8946588188976379
11
5.3764274015748033
21
-2.8960139370078739
0
LINE
8
BLACK
6
CONTINUOUS
10
5.3764274015748033
20
-2.7960139370078738
11
5.3828447637795271
21
-2.798672086614173
0
LINE
8
BLACK
6
CONTINUOUS
10
5.3828447637795271
20
-2.798672086614173
11
5.388620236220472
21
-2.8025311417322833
0
LINE
8
BLACK
6
CONTINUOUS
10
5.388620236220472
20
-2.8025311417322833
11
5.3935318503937006
21
-2.807442755905512
0
LINE
8
BLACK
6
CONTINUOUS
10
5.3935318503937006
20
-2.807442755905512
11
5.397390905511811
21
-2.8132182283464569
0
LINE
8
BLACK
6
CONTINUOUS
10
5.397390905511811
20
-2.8132182283464569
11
5.4000490551181102
21
-2.8196355905511812
0
LINE
8
BLACK
6
CONTINUOUS
10
5.4000490551181102
20
-2.8196355905511812
11
5.4014041732283467
21
-2.8264482283464565
0
LINE
8
BLACK
6
CONTINUOUS
10
5.4014041732283467
20
-2.8264482283464565
11
5.4014041732283467
21
-2.8333942913385828
0
LINE
8
BLACK
6
CONTINUOUS
10
5.4014041732283467
20
-2.8333942913385828
11
5.4000490551181102
21
-2.8402069291338581
0
LINE
8
BLACK
6
CONTINUOUS
10
5.4000490551181102
20
-2.8402069291338581
11
5.397390905511811
21
-2.8466242913385824
0
LINE
8
BLACK
6
CONTINUOUS
10
5.397390905511811
20
-2.8466242913385824
11
5.3935318503937006
21
-2.8523997637795273
0
LINE
8
BLACK
6
CONTINUOUS
10
5.3935318503937006
20
-2.8523997637795273
11
5.388620236220472
21
-2.8573113779527559
0
LINE
8
BLACK
6
CONTINUOUS
10
5.388620236220472
20
-2.8573113779527559
11
5.3828447637795271
21
-2.8611704330708663
0
LINE
8
BLACK
6
CONTINUOUS
10
5.3828447637795271
20
-2.8611704330708663
11
5.3764274015748033
21
-2.8638285826771654
0
LINE
8
BLACK
6
CONTINUOUS
10
5.3764274015748033
20
-2.8638285826771654
11
5.3696147637795271
21
-2.8651837007874015
0
LINE
8
BLACK
6
CONTINUOUS
10
5.3696147637795271
20
-2.8651837007874015
11
5.3626687007874017
21
-2.8651837007874015
0
LINE
8
BLACK
6
CONTINUOUS
10
5.3626687007874017
20
-2.8651837007874015
11
5.3558560629921255
21
-2.8638285826771654
0
LINE
8
BLACK
6
CONTINUOUS
10
5.3558560629921255
20
-2.8638285826771654
11
5.3494387007874016
21
-2.8611704330708663
0
LINE
8
BLACK
6
CONTINUOUS
10
5.3494387007874016
20
-2.8611704330708663
11
5.3436632283464567
21
-2.8573113779527559
0
LINE
8
BLACK
6
CONTINUOUS
10
5.3436632283464567
20
-2.8573113779527559
11
5.3387516141732281
21
-2.8523997637795273
0
LINE
8
BLACK
6
CONTINUOUS
10
5.3387516141732281
20
-2.8523997637795273
11
5.3348925590551177
21
-2.8466242913385824
0
LINE
8
BLACK
6
CONTINUOUS
10
5.3348925590551177
20
-2.8466242913385824
11
5.3322344094488185
21
-2.8402069291338581
0
LINE
8
BLACK
6
CONTINUOUS
10
5.3322344094488185
20
-2.8402069291338581
11
5.330879291338583
21
-2.8333942913385828
0
LINE
8
BLACK
6
CONTINUOUS
10
5.330879291338583
20
-2.8333942913385828
11
5.330879291338583
21
-2.8264482283464565
0
LINE
8
BLACK
6
CONTINUOUS
10
5.330879291338583
20
-2.8264482283464565
11
5.3322344094488185
21
-2.8196355905511812
0
LINE
8
BLACK
6
CONTINUOUS
10
5.3322344094488185
20
-2.8196355905511812
11
5.3348925590551177
21
-2.8132182283464569
0
LINE
8
BLACK
6
CONTINUOUS
10
5.3348925590551177
20
-2.8132182283464569
11
5.3387516141732281
21
-2.807442755905512
0
LINE
8
BLACK
6
CONTINUOUS
10
5.3387516141732281
20
-2.807442755905512
11
5.3436632283464567
21
-2.8025311417322833
0
LINE
8
BLACK
6
CONTINUOUS
10
5.3436632283464567
20
-2.8025311417322833
11
5.3494387007874016
21
-2.798672086614173
0
LINE
8
BLACK
6
CONTINUOUS
10
5.3494387007874016
20
-2.798672086614173
11
5.3558560629921255
21
-2.7960139370078738
0
LINE
8
BLACK
6
CONTINUOUS
10
5.3558560629921255
20
-2.7960139370078738
11
5.3626687007874017
21
-2.7946588188976378
0
LINE
8
BLACK
6
CONTINUOUS
10
5.3626687007874017
20
-2.7946588188976378
11
5.3696147637795271
21
-2.7946588188976378
0
LINE
8
BLACK
6
CONTINUOUS
10
5.3696147637795271
20
-2.7946588188976378
11
5.3764274015748033
21
-2.7960139370078738
0
LINE
8
BLACK
6
CONTINUOUS
10
4.855386771653543
20
-2.6826252755905511
11
4.863612480314961
21
-2.6852979921259843
0
LINE
8
BLACK
6
CONTINUOUS
10
4.863612480314961
20
-2.6852979921259843
11
4.8713188188976373
21
-2.6892245669291337
0
LINE
8
BLACK
6
CONTINUOUS
10
4.8713188188976373
20
-2.6892245669291337
11
4.8783160236220473
21
-2.694308346456693
0
LINE
8
BLACK
6
CONTINUOUS
10
4.8783160236220473
20
-2.694308346456693
11
4.8844318110236218
21
-2.7004241338582675
0
LINE
8
BLACK
6
CONTINUOUS
10
4.8844318110236218
20
-2.7004241338582675
11
4.8895155905511807
21
-2.7074213385826771
0
LINE
8
BLACK
6
CONTINUOUS
10
4.8895155905511807
20
-2.7074213385826771
11
4.8934421653543305
21
-2.7151276771653543
0
LINE
8
BLACK
6
CONTINUOUS
10
4.8934421653543305
20
-2.7151276771653543
11
4.8961148818897637
21
-2.7233533858267718
0
LINE
8
BLACK
6
CONTINUOUS
10
4.8961148818897637
20
-2.7233533858267718
11
4.8974678740157476
21
-2.7318959448818898
0
LINE
8
BLACK
6
CONTINUOUS
10
4.8974678740157476
20
-2.7318959448818898
11
4.8974678740157476
21
-2.740545
0
LINE
8
BLACK
6
CONTINUOUS
10
4.8974678740157476
20
-2.740545
11
4.8961148818897637
21
-2.749087559055118
0
LINE
8
BLACK
6
CONTINUOUS
10
4.8961148818897637
20
-2.749087559055118
11
4.8934421653543305
21
-2.7573132677165355
0
LINE
8
BLACK
6
CONTINUOUS
10
4.8934421653543305
20
-2.7573132677165355
11
4.8895155905511807
21
-2.7650196062992127
0
LINE
8
BLACK
6
CONTINUOUS
10
4.8895155905511807
20
-2.7650196062992127
11
4.8844318110236218
21
-2.7720168110236219
0
LINE
8
BLACK
6
CONTINUOUS
10
4.8844318110236218
20
-2.7720168110236219
11
4.8783160236220473
21
-2.7781325984251968
0
LINE
8
BLACK
6
CONTINUOUS
10
4.8783160236220473
20
-2.7781325984251968
11
4.8713188188976373
21
-2.7832163779527557
0
LINE
8
BLACK
6
CONTINUOUS
10
4.8713188188976373
20
-2.7832163779527557
11
4.863612480314961
21
-2.7871429527559055
0
LINE
8
BLACK
6
CONTINUOUS
10
4.863612480314961
20
-2.7871429527559055
11
4.855386771653543
21
-2.7898156692913387
0
LINE
8
BLACK
6
CONTINUOUS
10
4.855386771653543
20
-2.7898156692913387
11
4.846844212598425
21
-2.7911686614173226
0
LINE
8
BLACK
6
CONTINUOUS
10
4.846844212598425
20
-2.7911686614173226
11
4.8381951574803148
21
-2.7911686614173226
0
LINE
8
BLACK
6
CONTINUOUS
10
4.8381951574803148
20
-2.7911686614173226
11
4.8296525984251968
21
-2.7898156692913387
0
LINE
8
BLACK
6
CONTINUOUS
10
4.8296525984251968
20
-2.7898156692913387
11
4.8214268897637798
21
-2.7871429527559055
0
LINE
8
BLACK
6
CONTINUOUS
10
4.8214268897637798
20
-2.7871429527559055
11
4.8137205511811025
21
-2.7832163779527557
0
LINE
8
BLACK
6
CONTINUOUS
10
4.8137205511811025
20
-2.7832163779527557
11
4.8067233464566925
21
-2.7781325984251968
0
LINE
8
BLACK
6
CONTINUOUS
10
4.8067233464566925
20
-2.7781325984251968
11
4.800607559055118
21
-2.7720168110236219
0
LINE
8
BLACK
6
CONTINUOUS
10
4.800607559055118
20
-2.7720168110236219
11
4.7955237795275591
21
-2.7650196062992127
0
LINE
8
BLACK
6
CONTINUOUS
10
4.7955237795275591
20
-2.7650196062992127
11
4.7915972047244093
21
-2.7573132677165355
0
LINE
8
BLACK
6
CONTINUOUS
10
4.7915972047244093
20
-2.7573132677165355
11
4.7889244881889761
21
-2.749087559055118
0
LINE
8
BLACK
6
CONTINUOUS
10
4.7889244881889761
20
-2.749087559055118
11
4.7875714960629923
21
-2.740545
0
LINE
8
BLACK
6
CONTINUOUS
10
4.7875714960629923
20
-2.740545
11
4.7875714960629923
21
-2.7318959448818898
0
LINE
8
BLACK
6
CONTINUOUS
10
4.7875714960629923
20
-2.7318959448818898
11
4.7889244881889761
21
-2.7233533858267718
0
LINE
8
BLACK
6
CONTINUOUS
10
4.7889244881889761
20
-2.7233533858267718
11
4.7915972047244093
21
-2.7151276771653543
0
LINE
8
BLACK
6
CONTINUOUS
10
4.7915972047244093
20
-2.7151276771653543
11
4.7955237795275591
21
-2.7074213385826771
0
LINE
8
BLACK
6
CONTINUOUS
10
4.7955237795275591
20
-2.7074213385826771
11
4.800607559055118
21
-2.7004241338582675
0
LINE
8
BLACK
6
CONTINUOUS
10
4.800607559055118
20
-2.7004241338582675
11
4.8067233464566925
21
-2.694308346456693
0
LINE
8
BLACK
6
CONTINUOUS
10
4.8067233464566925
20
-2.694308346456693
11
4.8137205511811025
21
-2.6892245669291337
0
LINE
8
BLACK
6
CONTINUOUS
10
4.8137205511811025
20
-2.6892245669291337
11
4.8214268897637798
21
-2.6852979921259843
0
LINE
8
BLACK
6
CONTINUOUS
10
4.8214268897637798
20
-2.6852979921259843
11
4.8296525984251968
21
-2.6826252755905511
0
LINE
8
BLACK
6
CONTINUOUS
10
4.8296525984251968
20
-2.6826252755905511
11
4.8381951574803148
21
-2.6812722834645668
0
LINE
8
BLACK
6
CONTINUOUS
10
4.8381951574803148
20
-2.6812722834645668
11
4.846844212598425
21
-2.6812722834645668
0
LINE
8
BLACK
6
CONTINUOUS
10
4.846844212598425
20
-2.6812722834645668
11
4.855386771653543
21
-2.6826252755905511
0
LINE
8
BLACK
6
CONTINUOUS
10
6.9813710236220468
20
-2.6826252755905511
11
6.9895967322834647
21
-2.6852979921259843
0
LINE
8
BLACK
6
CONTINUOUS
10
6.9895967322834647
20
-2.6852979921259843
11
6.9973030708661419
21
-2.6892245669291337
0
LINE
8
BLACK
6
CONTINUOUS
10
6.9973030708661419
20
-2.6892245669291337
11
7.004300275590551
21
-2.694308346456693
0
LINE
8
BLACK
6
CONTINUOUS
10
7.004300275590551
20
-2.694308346456693
11
7.0104160629921255
21
-2.7004241338582675
0
LINE
8
BLACK
6
CONTINUOUS
10
7.0104160629921255
20
-2.7004241338582675
11
7.0154998425196853
21
-2.7074213385826771
0
LINE
8
BLACK
6
CONTINUOUS
10
7.0154998425196853
20
-2.7074213385826771
11
7.0194264173228342
21
-2.7151276771653543
0
LINE
8
BLACK
6
CONTINUOUS
10
7.0194264173228342
20
-2.7151276771653543
11
7.0220991338582675
21
-2.7233533858267718
0
LINE
8
BLACK
6
CONTINUOUS
10
7.0220991338582675
20
-2.7233533858267718
11
7.0234521259842522
21
-2.7318959448818898
0
LINE
8
BLACK
6
CONTINUOUS
10
7.0234521259842522
20
-2.7318959448818898
11
7.0234521259842522
21
-2.740545
0
LINE
8
BLACK
6
CONTINUOUS
10
7.0234521259842522
20
-2.740545
11
7.0220991338582675
21
-2.749087559055118
0
LINE
8
BLACK
6
CONTINUOUS
10
7.0220991338582675
20
-2.749087559055118
11
7.0194264173228342
21
-2.7573132677165355
0
LINE
8
BLACK
6
CONTINUOUS
10
7.0194264173228342
20
-2.7573132677165355
11
7.0154998425196853
21
-2.7650196062992127
0
LINE
8
BLACK
6
CONTINUOUS
10
7.0154998425196853
20
-2.7650196062992127
11
7.0104160629921255
21
-2.7720168110236219
0
LINE
8
BLACK
6
CONTINUOUS
10
7.0104160629921255
20
-2.7720168110236219
11
7.004300275590551
21
-2.7781325984251968
0
LINE
8
BLACK
6
CONTINUOUS
10
7.004300275590551
20
-2.7781325984251968
11
6.9973030708661419
21
-2.7832163779527557
0
LINE
8
BLACK
6
CONTINUOUS
10
6.9973030708661419
20
-2.7832163779527557
11
6.9895967322834647
21
-2.7871429527559055
0
LINE
8
BLACK
6
CONTINUOUS
10
6.9895967322834647
20
-2.7871429527559055
11
6.9813710236220468
21
-2.7898156692913387
0
LINE
8
BLACK
6
CONTINUOUS
10
6.9813710236220468
20
-2.7898156692913387
11
6.9728284645669287
21
-2.7911686614173226
0
LINE
8
BLACK
6
CONTINUOUS
10
6.9728284645669287
20
-2.7911686614173226
11
6.9641794094488185
21
-2.7911686614173226
0
LINE
8
BLACK
6
CONTINUOUS
10
6.9641794094488185
20
-2.7911686614173226
11
6.9556368503937005
21
-2.7898156692913387
0
LINE
8
BLACK
6
CONTINUOUS
10
6.9556368503937005
20
-2.7898156692913387
11
6.9474111417322835
21
-2.7871429527559055
0
LINE
8
BLACK
6
CONTINUOUS
10
6.9474111417322835
20
-2.7871429527559055
11
6.9397048031496062
21
-2.7832163779527557
0
LINE
8
BLACK
6
CONTINUOUS
10
6.9397048031496062
20
-2.7832163779527557
11
6.9327075984251971
21
-2.7781325984251968
0
LINE
8
BLACK
6
CONTINUOUS
10
6.9327075984251971
20
-2.7781325984251968
11
6.9265918110236218
21
-2.7720168110236219
0
LINE
8
BLACK
6
CONTINUOUS
10
6.9265918110236218
20
-2.7720168110236219
11
6.9215080314960629
21
-2.7650196062992127
0
LINE
8
BLACK
6
CONTINUOUS
10
6.9215080314960629
20
-2.7650196062992127
11
6.917581456692913
21
-2.7573132677165355
0
LINE
8
BLACK
6
CONTINUOUS
10
6.917581456692913
20
-2.7573132677165355
11
6.9149087401574798
21
-2.749087559055118
0
LINE
8
BLACK
6
CONTINUOUS
10
6.9149087401574798
20
-2.749087559055118
11
6.913555748031496
21
-2.740545
0
LINE
8
BLACK
6
CONTINUOUS
10
6.913555748031496
20
-2.740545
11
6.913555748031496
21
-2.7318959448818898
0
LINE
8
BLACK
6
CONTINUOUS
10
6.913555748031496
20
-2.7318959448818898
11
6.9149087401574798
21
-2.7233533858267718
0
LINE
8
BLACK
6
CONTINUOUS
10
6.9149087401574798
20
-2.7233533858267718
11
6.917581456692913
21
-2.7151276771653543
0
LINE
8
BLACK
6
CONTINUOUS
10
6.917581456692913
20
-2.7151276771653543
11
6.9215080314960629
21
-2.7074213385826771
0
LINE
8
BLACK
6
CONTINUOUS
10
6.9215080314960629
20
-2.7074213385826771
11
6.9265918110236218
21
-2.7004241338582675
0
LINE
8
BLACK
6
CONTINUOUS
10
6.9265918110236218
20
-2.7004241338582675
11
6.9327075984251971
21
-2.694308346456693
0
LINE
8
BLACK
6
CONTINUOUS
10
6.9327075984251971
20
-2.694308346456693
11
6.9397048031496062
21
-2.6892245669291337
0
LINE
8
BLACK
6
CONTINUOUS
10
6.9397048031496062
20
-2.6892245669291337
11
6.9474111417322835
21
-2.6852979921259843
0
LINE
8
BLACK
6
CONTINUOUS
10
6.9474111417322835
20
-2.6852979921259843
11
6.9556368503937005
21
-2.6826252755905511
0
LINE
8
BLACK
6
CONTINUOUS
10
6.9556368503937005
20
-2.6826252755905511
11
6.9641794094488185
21
-2.6812722834645668
0
LINE
8
BLACK
6
CONTINUOUS
10
6.9641794094488185
20
-2.6812722834645668
11
6.9728284645669287
21
-2.6812722834645668
0
LINE
8
BLACK
6
CONTINUOUS
10
6.9728284645669287
20
-2.6812722834645668
11
6.9813710236220468
21
-2.6826252755905511
0
LINE
8
BLACK
6
CONTINUOUS
10
6.4762864566929128
20
-2.7379947244094489
11
6.4811818503937006
21
-2.7408211023622044
0
LINE
8
BLACK
6
CONTINUOUS
10
6.4811818503937006
20
-2.7408211023622044
11
6.4851788976377955
21
-2.7448181496062993
0
LINE
8
BLACK
6
CONTINUOUS
10
6.4851788976377955
20
-2.7448181496062993
11
6.4880052755905506
21
-2.7497135433070867
0
LINE
8
BLACK
6
CONTINUOUS
10
6.4880052755905506
20
-2.7497135433070867
11
6.4894683070866144
21
-2.7551736614173228
0
LINE
8
BLACK
6
CONTINUOUS
10
6.4894683070866144
20
-2.7551736614173228
11
6.4894683070866144
21
-2.7608263385826772
0
LINE
8
BLACK
6
CONTINUOUS
10
6.4894683070866144
20
-2.7608263385826772
11
6.4880052755905506
21
-2.7662864566929133
0
LINE
8
BLACK
6
CONTINUOUS
10
6.4880052755905506
20
-2.7662864566929133
11
6.4851788976377955
21
-2.7711818503937007
0
LINE
8
BLACK
6
CONTINUOUS
10
6.4851788976377955
20
-2.7711818503937007
11
6.4811818503937006
21
-2.7751788976377951
0
LINE
8
BLACK
6
CONTINUOUS
10
6.4811818503937006
20
-2.7751788976377951
11
6.4762864566929128
21
-2.7780052755905511
0
LINE
8
BLACK
6
CONTINUOUS
10
6.4762864566929128
20
-2.7780052755905511
11
6.4708263385826772
21
-2.779468307086614
0
LINE
8
BLACK
6
CONTINUOUS
10
6.4708263385826772
20
-2.779468307086614
11
6.4651736614173227
21
-2.779468307086614
0
LINE
8
BLACK
6
CONTINUOUS
10
6.4651736614173227
20
-2.779468307086614
11
6.4597135433070862
21
-2.7780052755905511
0
LINE
8
BLACK
6
CONTINUOUS
10
6.4597135433070862
20
-2.7780052755905511
11
6.4548181496062993
21
-2.7751788976377951
0
LINE
8
BLACK
6
CONTINUOUS
10
6.4548181496062993
20
-2.7751788976377951
11
6.4508211023622044
21
-2.7711818503937007
0
LINE
8
BLACK
6
CONTINUOUS
10
6.4508211023622044
20
-2.7711818503937007
11
6.4479947244094484
21
-2.7662864566929133
0
LINE
8
BLACK
6
CONTINUOUS
10
6.4479947244094484
20
-2.7662864566929133
11
6.4465316929133856
21
-2.7608263385826772
0
LINE
8
BLACK
6
CONTINUOUS
10
6.4465316929133856
20
-2.7608263385826772
11
6.4465316929133856
21
-2.7551736614173228
0
LINE
8
BLACK
6
CONTINUOUS
10
6.4465316929133856
20
-2.7551736614173228
11
6.4479947244094484
21
-2.7497135433070867
0
LINE
8
BLACK
6
CONTINUOUS
10
6.4479947244094484
20
-2.7497135433070867
11
6.4508211023622044
21
-2.7448181496062993
0
LINE
8
BLACK
6
CONTINUOUS
10
6.4508211023622044
20
-2.7448181496062993
11
6.4548181496062993
21
-2.7408211023622044
0
LINE
8
BLACK
6
CONTINUOUS
10
6.4548181496062993
20
-2.7408211023622044
11
6.4597135433070862
21
-2.7379947244094489
0
LINE
8
BLACK
6
CONTINUOUS
10
6.4597135433070862
20
-2.7379947244094489
11
6.4651736614173227
21
-2.7365316929133856
0
LINE
8
BLACK
6
CONTINUOUS
10
6.4651736614173227
20
-2.7365316929133856
11
6.4708263385826772
21
-2.7365316929133856
0
LINE
8
BLACK
6
CONTINUOUS
10
6.4708263385826772
20
-2.7365316929133856
11
6.4762864566929128
21
-2.7379947244094489
0
LINE
8
BLACK
6
CONTINUOUS
10
6.051286456692913
20
-2.7369947244094486
11
6.0561818503937008
21
-2.7398211023622046
0
LINE
8
BLACK
6
CONTINUOUS
10
6.0561818503937008
20
-2.7398211023622046
11
6.0601788976377948
21
-2.743818149606299
0
LINE
8
BLACK
6
CONTINUOUS
10
6.0601788976377948
20
-2.743818149606299
11
6.0630052755905508
21
-2.7487135433070864
0
LINE
8
BLACK
6
CONTINUOUS
10
6.0630052755905508
20
-2.7487135433070864
11
6.0644683070866137
21
-2.7541736614173229
0
LINE
8
BLACK
6
CONTINUOUS
10
6.0644683070866137
20
-2.7541736614173229
11
6.0644683070866137
21
-2.7598263385826769
0
LINE
8
BLACK
6
CONTINUOUS
10
6.0644683070866137
20
-2.7598263385826769
11
6.0630052755905508
21
-2.7652864566929134
0
LINE
8
BLACK
6
CONTINUOUS
10
6.0630052755905508
20
-2.7652864566929134
11
6.0601788976377948
21
-2.7701818503937008
0
LINE
8
BLACK
6
CONTINUOUS
10
6.0601788976377948
20
-2.7701818503937008
11
6.0561818503937008
21
-2.7741788976377952
0
LINE
8
BLACK
6
CONTINUOUS
10
6.0561818503937008
20
-2.7741788976377952
11
6.051286456692913
21
-2.7770052755905512
0
LINE
8
BLACK
6
CONTINUOUS
10
6.051286456692913
20
-2.7770052755905512
11
6.0458263385826774
21
-2.7784683070866141
0
LINE
8
BLACK
6
CONTINUOUS
10
6.0458263385826774
20
-2.7784683070866141
11
6.0401736614173229
21
-2.7784683070866141
0
LINE
8
BLACK
6
CONTINUOUS
10
6.0401736614173229
20
-2.7784683070866141
11
6.0347135433070864
21
-2.7770052755905512
0
LINE
8
BLACK
6
CONTINUOUS
10
6.0347135433070864
20
-2.7770052755905512
11
6.0298181496062995
21
-2.7741788976377952
0
LINE
8
BLACK
6
CONTINUOUS
10
6.0298181496062995
20
-2.7741788976377952
11
6.0258211023622046
21
-2.7701818503937008
0
LINE
8
BLACK
6
CONTINUOUS
10
6.0258211023622046
20
-2.7701818503937008
11
6.0229947244094486
21
-2.7652864566929134
0
LINE
8
BLACK
6
CONTINUOUS
10
6.0229947244094486
20
-2.7652864566929134
11
6.0215316929133857
21
-2.7598263385826769
0
LINE
8
BLACK
6
CONTINUOUS
10
6.0215316929133857
20
-2.7598263385826769
11
6.0215316929133857
21
-2.7541736614173229
0
LINE
8
BLACK
6
CONTINUOUS
10
6.0215316929133857
20
-2.7541736614173229
11
6.0229947244094486
21
-2.7487135433070864
0
LINE
8
BLACK
6
CONTINUOUS
10
6.0229947244094486
20
-2.7487135433070864
11
6.0258211023622046
21
-2.743818149606299
0
LINE
8
BLACK
6
CONTINUOUS
10
6.0258211023622046
20
-2.743818149606299
11
6.0298181496062995
21
-2.7398211023622046
0
LINE
8
BLACK
6
CONTINUOUS
10
6.0298181496062995
20
-2.7398211023622046
11
6.0347135433070864
21
-2.7369947244094486
0
LINE
8
BLACK
6
CONTINUOUS
10
6.0347135433070864
20
-2.7369947244094486
11
6.0401736614173229
21
-2.7355316929133857
0
LINE
8
BLACK
6
CONTINUOUS
10
6.0401736614173229
20
-2.7355316929133857
11
6.0458263385826774
21
-2.7355316929133857
0
LINE
8
BLACK
6
CONTINUOUS
10
6.0458263385826774
20
-2.7355316929133857
11
6.051286456692913
21
-2.7369947244094486
0
LINE
8
BLACK
6
CONTINUOUS
10
5.3764274015748033
20
-2.6960139370078742
11
5.3828447637795271
21
-2.6986720866141733
0
LINE
8
BLACK
6
CONTINUOUS
10
5.3828447637795271
20
-2.6986720866141733
11
5.388620236220472
21
-2.7025311417322833
0
LINE
8
BLACK
6
CONTINUOUS
10
5.388620236220472
20
-2.7025311417322833
11
5.3935318503937006
21
-2.7074427559055119
0
LINE
8
BLACK
6
CONTINUOUS
10
5.3935318503937006
20
-2.7074427559055119
11
5.397390905511811
21
-2.7132182283464568
0
LINE
8
BLACK
6
CONTINUOUS
10
5.397390905511811
20
-2.7132182283464568
11
5.4000490551181102
21
-2.7196355905511811
0
LINE
8
BLACK
6
CONTINUOUS
10
5.4000490551181102
20
-2.7196355905511811
11
5.4014041732283467
21
-2.7264482283464568
0
LINE
8
BLACK
6
CONTINUOUS
10
5.4014041732283467
20
-2.7264482283464568
11
5.4014041732283467
21
-2.7333942913385827
0
LINE
8
BLACK
6
CONTINUOUS
10
5.4014041732283467
20
-2.7333942913385827
11
5.4000490551181102
21
-2.740206929133858
0
LINE
8
BLACK
6
CONTINUOUS
10
5.4000490551181102
20
-2.740206929133858
11
5.397390905511811
21
-2.7466242913385828
0
LINE
8
BLACK
6
CONTINUOUS
10
5.397390905511811
20
-2.7466242913385828
11
5.3935318503937006
21
-2.7523997637795277
0
LINE
8
BLACK
6
CONTINUOUS
10
5.3935318503937006
20
-2.7523997637795277
11
5.388620236220472
21
-2.7573113779527558
0
LINE
8
BLACK
6
CONTINUOUS
10
5.388620236220472
20
-2.7573113779527558
11
5.3828447637795271
21
-2.7611704330708662
0
LINE
8
BLACK
6
CONTINUOUS
10
5.3828447637795271
20
-2.7611704330708662
11
5.3764274015748033
21
-2.7638285826771654
0
LINE
8
BLACK
6
CONTINUOUS
10
5.3764274015748033
20
-2.7638285826771654
11
5.3696147637795271
21
-2.7651837007874014
0
LINE
8
BLACK
6
CONTINUOUS
10
5.3696147637795271
20
-2.7651837007874014
11
5.3626687007874017
21
-2.7651837007874014
0
LINE
8
BLACK
6
CONTINUOUS
10
5.3626687007874017
20
-2.7651837007874014
11
5.3558560629921255
21
-2.7638285826771654
0
LINE
8
BLACK
6
CONTINUOUS
10
5.3558560629921255
20
-2.7638285826771654
11
5.3494387007874016
21
-2.7611704330708662
0
LINE
8
BLACK
6
CONTINUOUS
10
5.3494387007874016
20
-2.7611704330708662
11
5.3436632283464567
21
-2.7573113779527558
0
LINE
8
BLACK
6
CONTINUOUS
10
5.3436632283464567
20
-2.7573113779527558
11
5.3387516141732281
21
-2.7523997637795277
0
LINE
8
BLACK
6
CONTINUOUS
10
5.3387516141732281
20
-2.7523997637795277
11
5.3348925590551177
21
-2.7466242913385828
0
LINE
8
BLACK
6
CONTINUOUS
10
5.3348925590551177
20
-2.7466242913385828
11
5.3322344094488185
21
-2.740206929133858
0
LINE
8
BLACK
6
CONTINUOUS
10
5.3322344094488185
20
-2.740206929133858
11
5.330879291338583
21
-2.7333942913385827
0
LINE
8
BLACK
6
CONTINUOUS
10
5.330879291338583
20
-2.7333942913385827
11
5.330879291338583
21
-2.7264482283464568
0
LINE
8
BLACK
6
CONTINUOUS
10
5.330879291338583
20
-2.7264482283464568
11
5.3322344094488185
21
-2.7196355905511811
0
LINE
8
BLACK
6
CONTINUOUS
10
5.3322344094488185
20
-2.7196355905511811
11
5.3348925590551177
21
-2.7132182283464568
0
LINE
8
BLACK
6
CONTINUOUS
10
5.3348925590551177
20
-2.7132182283464568
11
5.3387516141732281
21
-2.7074427559055119
0
LINE
8
BLACK
6
CONTINUOUS
10
5.3387516141732281
20
-2.7074427559055119
11
5.3436632283464567
21
-2.7025311417322833
0
LINE
8
BLACK
6
CONTINUOUS
10
5.3436632283464567
20
-2.7025311417322833
11
5.3494387007874016
21
-2.6986720866141733
0
LINE
8
BLACK
6
CONTINUOUS
10
5.3494387007874016
20
-2.6986720866141733
11
5.3558560629921255
21
-2.6960139370078742
0
LINE
8
BLACK
6
CONTINUOUS
10
5.3558560629921255
20
-2.6960139370078742
11
5.3626687007874017
21
-2.6946588188976377
0
LINE
8
BLACK
6
CONTINUOUS
10
5.3626687007874017
20
-2.6946588188976377
11
5.3696147637795271
21
-2.6946588188976377
0
LINE
8
BLACK
6
CONTINUOUS
10
5.3696147637795271
20
-2.6946588188976377
11
5.3764274015748033
21
-2.6960139370078742
  0
ENDSEC
  0
EOF
