  0
SECTION
  2
HEADER
  9
$ANGBASE
  50
0.0
  9
$ANGDIR
  70
1
  9
$MEASUREMENT
  70
0
  0
ENDSEC
  0
SECTION
  2
TABLES
  0
TABLE
  2
LTYPE
  70
4
  0
LTYPE
  5
40F
  2
CONTINUOUS
  70
0
  3
Solid line
  72
65
  73
0
  40
0.0
  0
LTYPE
  5
410
  2
DASHDOT
 70
0
  3
Dash Dot ____ _ ____ _
 72
65
 73
4
 40
2.0
 49
1.25
 49
-0.25
 49
0.25
 49
-0.25
  0
LTYPE
  5
411
  2
DASHED
 70
0
  3
Dashed __ __ __ __ __
 72
65
 73
2
 40
0.75
 49
0.5
 49
-0.25
  0
LTYPE
  5
43B
  2
DOTTED
 70
0
  3
Dotted .  .  .  .
 72
65
 73
2
 40
0.2
 49
0.0
 49
-0.2
  0
ENDTAB
  0
TABLE
  2
STYLE
  70
4
  0
STYLE
  2
KICAD
  70
0
  40
0
  41
1
  42
1
  50
0
  71
0
  3
isocp.shx
  0
STYLE
  2
KICADB
  70
0
  40
0
  41
1
  42
1
  50
0
  71
0
  3
isocp.shx
  0
STYLE
  2
KICADI
  70
0
  40
0
  41
1
  42
1
  50
15
  71
0
  3
isocp.shx
  0
STYLE
  2
KICADBI
  70
0
  40
0
  41
1
  42
1
  50
15
  71
0
  3
isocp.shx
  0
ENDTAB
  0
TABLE
  2
LAYER
  70
1
  0
LAYER
  2
BLACK
  70
0
  62
7
  6
CONTINUOUS
  0
ENDTAB
  0
ENDSEC
  0
SECTION
  2
ENTITIES
0
LINE
8
BLACK
6
CONTINUOUS
10
6.09095
20
-3.8163
11
6.09772
21
-3.81931
0
LINE
8
BLACK
6
CONTINUOUS
10
6.09772
20
-3.81931
11
6.10371
21
-3.82367
0
LINE
8
BLACK
6
CONTINUOUS
10
6.10371
20
-3.82367
11
6.10867
21
-3.82917
0
LINE
8
BLACK
6
CONTINUOUS
10
6.10867
20
-3.82917
11
6.11237
21
-3.83559
0
LINE
8
BLACK
6
CONTINUOUS
10
6.11237
20
-3.83559
11
6.11466
21
-3.84263
0
LINE
8
BLACK
6
CONTINUOUS
10
6.11466
20
-3.84263
11
6.11543
21
-3.85
0
LINE
8
BLACK
6
CONTINUOUS
10
6.11543
20
-3.85
11
6.11466
21
-3.85737
0
LINE
8
BLACK
6
CONTINUOUS
10
6.11466
20
-3.85737
11
6.11237
21
-3.86441
0
LINE
8
BLACK
6
CONTINUOUS
10
6.11237
20
-3.86441
11
6.10867
21
-3.87083
0
LINE
8
BLACK
6
CONTINUOUS
10
6.10867
20
-3.87083
11
6.10371
21
-3.87633
0
LINE
8
BLACK
6
CONTINUOUS
10
6.10371
20
-3.87633
11
6.09772
21
-3.88069
0
LINE
8
BLACK
6
CONTINUOUS
10
6.09772
20
-3.88069
11
6.09095
21
-3.8837
0
LINE
8
BLACK
6
CONTINUOUS
10
6.09095
20
-3.8837
11
6.0837
21
-3.88524
0
LINE
8
BLACK
6
CONTINUOUS
10
6.0837
20
-3.88524
11
6.0763
21
-3.88524
0
LINE
8
BLACK
6
CONTINUOUS
10
6.0763
20
-3.88524
11
6.06905
21
-3.8837
0
LINE
8
BLACK
6
CONTINUOUS
10
6.06905
20
-3.8837
11
6.06228
21
-3.88069
0
LINE
8
BLACK
6
CONTINUOUS
10
6.06228
20
-3.88069
11
6.05629
21
-3.87633
0
LINE
8
BLACK
6
CONTINUOUS
10
6.05629
20
-3.87633
11
6.05133
21
-3.87083
0
LINE
8
BLACK
6
CONTINUOUS
10
6.05133
20
-3.87083
11
6.04763
21
-3.86441
0
LINE
8
BLACK
6
CONTINUOUS
10
6.04763
20
-3.86441
11
6.04534
21
-3.85737
0
LINE
8
BLACK
6
CONTINUOUS
10
6.04534
20
-3.85737
11
6.04457
21
-3.85
0
LINE
8
BLACK
6
CONTINUOUS
10
6.04457
20
-3.85
11
6.04534
21
-3.84263
0
LINE
8
BLACK
6
CONTINUOUS
10
6.04534
20
-3.84263
11
6.04763
21
-3.83559
0
LINE
8
BLACK
6
CONTINUOUS
10
6.04763
20
-3.83559
11
6.05133
21
-3.82917
0
LINE
8
BLACK
6
CONTINUOUS
10
6.05133
20
-3.82917
11
6.05629
21
-3.82367
0
LINE
8
BLACK
6
CONTINUOUS
10
6.05629
20
-3.82367
11
6.06228
21
-3.81931
0
LINE
8
BLACK
6
CONTINUOUS
10
6.06228
20
-3.81931
11
6.06905
21
-3.8163
0
LINE
8
BLACK
6
CONTINUOUS
10
6.06905
20
-3.8163
11
6.0763
21
-3.81476
0
LINE
8
BLACK
6
CONTINUOUS
10
6.0763
20
-3.81476
11
6.0837
21
-3.81476
0
LINE
8
BLACK
6
CONTINUOUS
10
6.0837
20
-3.81476
11
6.09095
21
-3.8163
0
LINE
8
BLACK
6
CONTINUOUS
10
5.99095
20
-3.8163
11
5.99772
21
-3.81931
0
LINE
8
BLACK
6
CONTINUOUS
10
5.99772
20
-3.81931
11
6.00371
21
-3.82367
0
LINE
8
BLACK
6
CONTINUOUS
10
6.00371
20
-3.82367
11
6.00867
21
-3.82917
0
LINE
8
BLACK
6
CONTINUOUS
10
6.00867
20
-3.82917
11
6.01237
21
-3.83559
0
LINE
8
BLACK
6
CONTINUOUS
10
6.01237
20
-3.83559
11
6.01466
21
-3.84263
0
LINE
8
BLACK
6
CONTINUOUS
10
6.01466
20
-3.84263
11
6.01543
21
-3.85
0
LINE
8
BLACK
6
CONTINUOUS
10
6.01543
20
-3.85
11
6.01466
21
-3.85737
0
LINE
8
BLACK
6
CONTINUOUS
10
6.01466
20
-3.85737
11
6.01237
21
-3.86441
0
LINE
8
BLACK
6
CONTINUOUS
10
6.01237
20
-3.86441
11
6.00867
21
-3.87083
0
LINE
8
BLACK
6
CONTINUOUS
10
6.00867
20
-3.87083
11
6.00371
21
-3.87633
0
LINE
8
BLACK
6
CONTINUOUS
10
6.00371
20
-3.87633
11
5.99772
21
-3.88069
0
LINE
8
BLACK
6
CONTINUOUS
10
5.99772
20
-3.88069
11
5.99095
21
-3.8837
0
LINE
8
BLACK
6
CONTINUOUS
10
5.99095
20
-3.8837
11
5.9837
21
-3.88524
0
LINE
8
BLACK
6
CONTINUOUS
10
5.9837
20
-3.88524
11
5.9763
21
-3.88524
0
LINE
8
BLACK
6
CONTINUOUS
10
5.9763
20
-3.88524
11
5.96905
21
-3.8837
0
LINE
8
BLACK
6
CONTINUOUS
10
5.96905
20
-3.8837
11
5.96228
21
-3.88069
0
LINE
8
BLACK
6
CONTINUOUS
10
5.96228
20
-3.88069
11
5.95629
21
-3.87633
0
LINE
8
BLACK
6
CONTINUOUS
10
5.95629
20
-3.87633
11
5.95133
21
-3.87083
0
LINE
8
BLACK
6
CONTINUOUS
10
5.95133
20
-3.87083
11
5.94763
21
-3.86441
0
LINE
8
BLACK
6
CONTINUOUS
10
5.94763
20
-3.86441
11
5.94534
21
-3.85737
0
LINE
8
BLACK
6
CONTINUOUS
10
5.94534
20
-3.85737
11
5.94457
21
-3.85
0
LINE
8
BLACK
6
CONTINUOUS
10
5.94457
20
-3.85
11
5.94534
21
-3.84263
0
LINE
8
BLACK
6
CONTINUOUS
10
5.94534
20
-3.84263
11
5.94763
21
-3.83559
0
LINE
8
BLACK
6
CONTINUOUS
10
5.94763
20
-3.83559
11
5.95133
21
-3.82917
0
LINE
8
BLACK
6
CONTINUOUS
10
5.95133
20
-3.82917
11
5.95629
21
-3.82367
0
LINE
8
BLACK
6
CONTINUOUS
10
5.95629
20
-3.82367
11
5.96228
21
-3.81931
0
LINE
8
BLACK
6
CONTINUOUS
10
5.96228
20
-3.81931
11
5.96905
21
-3.8163
0
LINE
8
BLACK
6
CONTINUOUS
10
5.96905
20
-3.8163
11
5.9763
21
-3.81476
0
LINE
8
BLACK
6
CONTINUOUS
10
5.9763
20
-3.81476
11
5.9837
21
-3.81476
0
LINE
8
BLACK
6
CONTINUOUS
10
5.9837
20
-3.81476
11
5.99095
21
-3.8163
0
LINE
8
BLACK
6
CONTINUOUS
10
5.59022
20
-3.81372
11
5.59086
21
-3.81414
0
LINE
8
BLACK
6
CONTINUOUS
10
5.59086
20
-3.81414
11
5.59128
21
-3.81478
0
LINE
8
BLACK
6
CONTINUOUS
10
5.59128
20
-3.81478
11
5.59143
21
-3.81554
0
LINE
8
BLACK
6
CONTINUOUS
10
5.59143
20
-3.81554
11
5.59143
21
-3.88246
0
LINE
8
BLACK
6
CONTINUOUS
10
5.59143
20
-3.88246
11
5.59128
21
-3.88322
0
LINE
8
BLACK
6
CONTINUOUS
10
5.59128
20
-3.88322
11
5.59086
21
-3.88386
0
LINE
8
BLACK
6
CONTINUOUS
10
5.59086
20
-3.88386
11
5.59022
21
-3.88428
0
LINE
8
BLACK
6
CONTINUOUS
10
5.59022
20
-3.88428
11
5.58946
21
-3.88443
0
LINE
8
BLACK
6
CONTINUOUS
10
5.58946
20
-3.88443
11
5.52254
21
-3.88443
0
LINE
8
BLACK
6
CONTINUOUS
10
5.52254
20
-3.88443
11
5.52178
21
-3.88428
0
LINE
8
BLACK
6
CONTINUOUS
10
5.52178
20
-3.88428
11
5.52114
21
-3.88386
0
LINE
8
BLACK
6
CONTINUOUS
10
5.52114
20
-3.88386
11
5.52072
21
-3.88322
0
LINE
8
BLACK
6
CONTINUOUS
10
5.52072
20
-3.88322
11
5.52057
21
-3.88246
0
LINE
8
BLACK
6
CONTINUOUS
10
5.52057
20
-3.88246
11
5.52057
21
-3.81554
0
LINE
8
BLACK
6
CONTINUOUS
10
5.52057
20
-3.81554
11
5.52072
21
-3.81478
0
LINE
8
BLACK
6
CONTINUOUS
10
5.52072
20
-3.81478
11
5.52114
21
-3.81414
0
LINE
8
BLACK
6
CONTINUOUS
10
5.52114
20
-3.81414
11
5.52178
21
-3.81372
0
LINE
8
BLACK
6
CONTINUOUS
10
5.52178
20
-3.81372
11
5.52254
21
-3.81357
0
LINE
8
BLACK
6
CONTINUOUS
10
5.52254
20
-3.81357
11
5.58946
21
-3.81357
0
LINE
8
BLACK
6
CONTINUOUS
10
5.58946
20
-3.81357
11
5.59022
21
-3.81372
0
LINE
8
BLACK
6
CONTINUOUS
10
5.76695
20
-3.8153
11
5.77372
21
-3.81831
0
LINE
8
BLACK
6
CONTINUOUS
10
5.77372
20
-3.81831
11
5.77971
21
-3.82267
0
LINE
8
BLACK
6
CONTINUOUS
10
5.77971
20
-3.82267
11
5.78467
21
-3.82817
0
LINE
8
BLACK
6
CONTINUOUS
10
5.78467
20
-3.82817
11
5.78837
21
-3.83459
0
LINE
8
BLACK
6
CONTINUOUS
10
5.78837
20
-3.83459
11
5.79066
21
-3.84163
0
LINE
8
BLACK
6
CONTINUOUS
10
5.79066
20
-3.84163
11
5.79143
21
-3.849
0
LINE
8
BLACK
6
CONTINUOUS
10
5.79143
20
-3.849
11
5.79066
21
-3.85637
0
LINE
8
BLACK
6
CONTINUOUS
10
5.79066
20
-3.85637
11
5.78837
21
-3.86341
0
LINE
8
BLACK
6
CONTINUOUS
10
5.78837
20
-3.86341
11
5.78467
21
-3.86983
0
LINE
8
BLACK
6
CONTINUOUS
10
5.78467
20
-3.86983
11
5.77971
21
-3.87533
0
LINE
8
BLACK
6
CONTINUOUS
10
5.77971
20
-3.87533
11
5.77372
21
-3.87969
0
LINE
8
BLACK
6
CONTINUOUS
10
5.77372
20
-3.87969
11
5.76695
21
-3.8827
0
LINE
8
BLACK
6
CONTINUOUS
10
5.76695
20
-3.8827
11
5.7597
21
-3.88424
0
LINE
8
BLACK
6
CONTINUOUS
10
5.7597
20
-3.88424
11
5.7523
21
-3.88424
0
LINE
8
BLACK
6
CONTINUOUS
10
5.7523
20
-3.88424
11
5.74505
21
-3.8827
0
LINE
8
BLACK
6
CONTINUOUS
10
5.74505
20
-3.8827
11
5.73828
21
-3.87969
0
LINE
8
BLACK
6
CONTINUOUS
10
5.73828
20
-3.87969
11
5.73229
21
-3.87533
0
LINE
8
BLACK
6
CONTINUOUS
10
5.73229
20
-3.87533
11
5.72733
21
-3.86983
0
LINE
8
BLACK
6
CONTINUOUS
10
5.72733
20
-3.86983
11
5.72363
21
-3.86341
0
LINE
8
BLACK
6
CONTINUOUS
10
5.72363
20
-3.86341
11
5.72134
21
-3.85637
0
LINE
8
BLACK
6
CONTINUOUS
10
5.72134
20
-3.85637
11
5.72057
21
-3.849
0
LINE
8
BLACK
6
CONTINUOUS
10
5.72057
20
-3.849
11
5.72134
21
-3.84163
0
LINE
8
BLACK
6
CONTINUOUS
10
5.72134
20
-3.84163
11
5.72363
21
-3.83459
0
LINE
8
BLACK
6
CONTINUOUS
10
5.72363
20
-3.83459
11
5.72733
21
-3.82817
0
LINE
8
BLACK
6
CONTINUOUS
10
5.72733
20
-3.82817
11
5.73229
21
-3.82267
0
LINE
8
BLACK
6
CONTINUOUS
10
5.73229
20
-3.82267
11
5.73828
21
-3.81831
0
LINE
8
BLACK
6
CONTINUOUS
10
5.73828
20
-3.81831
11
5.74505
21
-3.8153
0
LINE
8
BLACK
6
CONTINUOUS
10
5.74505
20
-3.8153
11
5.7523
21
-3.81376
0
LINE
8
BLACK
6
CONTINUOUS
10
5.7523
20
-3.81376
11
5.7597
21
-3.81376
0
LINE
8
BLACK
6
CONTINUOUS
10
5.7597
20
-3.81376
11
5.76695
21
-3.8153
0
LINE
8
BLACK
6
CONTINUOUS
10
5.66695
20
-3.8153
11
5.67372
21
-3.81831
0
LINE
8
BLACK
6
CONTINUOUS
10
5.67372
20
-3.81831
11
5.67971
21
-3.82267
0
LINE
8
BLACK
6
CONTINUOUS
10
5.67971
20
-3.82267
11
5.68467
21
-3.82817
0
LINE
8
BLACK
6
CONTINUOUS
10
5.68467
20
-3.82817
11
5.68837
21
-3.83459
0
LINE
8
BLACK
6
CONTINUOUS
10
5.68837
20
-3.83459
11
5.69066
21
-3.84163
0
LINE
8
BLACK
6
CONTINUOUS
10
5.69066
20
-3.84163
11
5.69143
21
-3.849
0
LINE
8
BLACK
6
CONTINUOUS
10
5.69143
20
-3.849
11
5.69066
21
-3.85637
0
LINE
8
BLACK
6
CONTINUOUS
10
5.69066
20
-3.85637
11
5.68837
21
-3.86341
0
LINE
8
BLACK
6
CONTINUOUS
10
5.68837
20
-3.86341
11
5.68467
21
-3.86983
0
LINE
8
BLACK
6
CONTINUOUS
10
5.68467
20
-3.86983
11
5.67971
21
-3.87533
0
LINE
8
BLACK
6
CONTINUOUS
10
5.67971
20
-3.87533
11
5.67372
21
-3.87969
0
LINE
8
BLACK
6
CONTINUOUS
10
5.67372
20
-3.87969
11
5.66695
21
-3.8827
0
LINE
8
BLACK
6
CONTINUOUS
10
5.66695
20
-3.8827
11
5.6597
21
-3.88424
0
LINE
8
BLACK
6
CONTINUOUS
10
5.6597
20
-3.88424
11
5.6523
21
-3.88424
0
LINE
8
BLACK
6
CONTINUOUS
10
5.6523
20
-3.88424
11
5.64505
21
-3.8827
0
LINE
8
BLACK
6
CONTINUOUS
10
5.64505
20
-3.8827
11
5.63828
21
-3.87969
0
LINE
8
BLACK
6
CONTINUOUS
10
5.63828
20
-3.87969
11
5.63229
21
-3.87533
0
LINE
8
BLACK
6
CONTINUOUS
10
5.63229
20
-3.87533
11
5.62733
21
-3.86983
0
LINE
8
BLACK
6
CONTINUOUS
10
5.62733
20
-3.86983
11
5.62363
21
-3.86341
0
LINE
8
BLACK
6
CONTINUOUS
10
5.62363
20
-3.86341
11
5.62134
21
-3.85637
0
LINE
8
BLACK
6
CONTINUOUS
10
5.62134
20
-3.85637
11
5.62057
21
-3.849
0
LINE
8
BLACK
6
CONTINUOUS
10
5.62057
20
-3.849
11
5.62134
21
-3.84163
0
LINE
8
BLACK
6
CONTINUOUS
10
5.62134
20
-3.84163
11
5.62363
21
-3.83459
0
LINE
8
BLACK
6
CONTINUOUS
10
5.62363
20
-3.83459
11
5.62733
21
-3.82817
0
LINE
8
BLACK
6
CONTINUOUS
10
5.62733
20
-3.82817
11
5.63229
21
-3.82267
0
LINE
8
BLACK
6
CONTINUOUS
10
5.63229
20
-3.82267
11
5.63828
21
-3.81831
0
LINE
8
BLACK
6
CONTINUOUS
10
5.63828
20
-3.81831
11
5.64505
21
-3.8153
0
LINE
8
BLACK
6
CONTINUOUS
10
5.64505
20
-3.8153
11
5.6523
21
-3.81376
0
LINE
8
BLACK
6
CONTINUOUS
10
5.6523
20
-3.81376
11
5.6597
21
-3.81376
0
LINE
8
BLACK
6
CONTINUOUS
10
5.6597
20
-3.81376
11
5.66695
21
-3.8153
0
LINE
8
BLACK
6
CONTINUOUS
10
4.84771
20
-3.76402
11
4.8566
21
-3.76561
0
LINE
8
BLACK
6
CONTINUOUS
10
4.8566
20
-3.76561
11
4.86511
21
-3.76862
0
LINE
8
BLACK
6
CONTINUOUS
10
4.86511
20
-3.76862
11
4.87302
21
-3.77299
0
LINE
8
BLACK
6
CONTINUOUS
10
4.87302
20
-3.77299
11
4.88011
21
-3.77859
0
LINE
8
BLACK
6
CONTINUOUS
10
4.88011
20
-3.77859
11
4.88619
21
-3.78527
0
LINE
8
BLACK
6
CONTINUOUS
10
4.88619
20
-3.78527
11
4.8911
21
-3.79285
0
LINE
8
BLACK
6
CONTINUOUS
10
4.8911
20
-3.79285
11
4.8947
21
-3.80113
0
LINE
8
BLACK
6
CONTINUOUS
10
4.8947
20
-3.80113
11
4.8969
21
-3.8099
0
LINE
8
BLACK
6
CONTINUOUS
10
4.8969
20
-3.8099
11
4.89764
21
-3.8189
0
LINE
8
BLACK
6
CONTINUOUS
10
4.89764
20
-3.8189
11
4.89757
21
-3.82159
0
LINE
8
BLACK
6
CONTINUOUS
10
4.89757
20
-3.82159
11
4.89639
21
-3.83055
0
LINE
8
BLACK
6
CONTINUOUS
10
4.89639
20
-3.83055
11
4.89377
21
-3.83919
0
LINE
8
BLACK
6
CONTINUOUS
10
4.89377
20
-3.83919
11
4.88977
21
-3.84729
0
LINE
8
BLACK
6
CONTINUOUS
10
4.88977
20
-3.84729
11
4.88449
21
-3.85462
0
LINE
8
BLACK
6
CONTINUOUS
10
4.88449
20
-3.85462
11
4.8781
21
-3.861
0
LINE
8
BLACK
6
CONTINUOUS
10
4.8781
20
-3.861
11
4.87074
21
-3.86624
0
LINE
8
BLACK
6
CONTINUOUS
10
4.87074
20
-3.86624
11
4.86263
21
-3.87022
0
LINE
8
BLACK
6
CONTINUOUS
10
4.86263
20
-3.87022
11
4.85398
21
-3.87281
0
LINE
8
BLACK
6
CONTINUOUS
10
4.85398
20
-3.87281
11
4.84502
21
-3.87396
0
LINE
8
BLACK
6
CONTINUOUS
10
4.84502
20
-3.87396
11
4.83599
21
-3.87363
0
LINE
8
BLACK
6
CONTINUOUS
10
4.83599
20
-3.87363
11
4.82714
21
-3.87183
0
LINE
8
BLACK
6
CONTINUOUS
10
4.82714
20
-3.87183
11
4.8187
21
-3.8686
0
LINE
8
BLACK
6
CONTINUOUS
10
4.8187
20
-3.8686
11
4.81091
21
-3.86405
0
LINE
8
BLACK
6
CONTINUOUS
10
4.81091
20
-3.86405
11
4.80396
21
-3.85828
0
LINE
8
BLACK
6
CONTINUOUS
10
4.80396
20
-3.85828
11
4.79804
21
-3.85145
0
LINE
8
BLACK
6
CONTINUOUS
10
4.79804
20
-3.85145
11
4.79332
21
-3.84375
0
LINE
8
BLACK
6
CONTINUOUS
10
4.79332
20
-3.84375
11
4.78992
21
-3.83538
0
LINE
8
BLACK
6
CONTINUOUS
10
4.78992
20
-3.83538
11
4.78794
21
-3.82657
0
LINE
8
BLACK
6
CONTINUOUS
10
4.78794
20
-3.82657
11
4.78742
21
-3.81755
0
LINE
8
BLACK
6
CONTINUOUS
10
4.78742
20
-3.81755
11
4.78838
21
-3.80857
0
LINE
8
BLACK
6
CONTINUOUS
10
4.78838
20
-3.80857
11
4.79079
21
-3.79987
0
LINE
8
BLACK
6
CONTINUOUS
10
4.79079
20
-3.79987
11
4.79459
21
-3.79167
0
LINE
8
BLACK
6
CONTINUOUS
10
4.79459
20
-3.79167
11
4.79968
21
-3.78421
0
LINE
8
BLACK
6
CONTINUOUS
10
4.79968
20
-3.78421
11
4.80593
21
-3.77768
0
LINE
8
BLACK
6
CONTINUOUS
10
4.80593
20
-3.77768
11
4.81315
21
-3.77226
0
LINE
8
BLACK
6
CONTINUOUS
10
4.81315
20
-3.77226
11
4.82116
21
-3.76809
0
LINE
8
BLACK
6
CONTINUOUS
10
4.82116
20
-3.76809
11
4.82975
21
-3.76528
0
LINE
8
BLACK
6
CONTINUOUS
10
4.82975
20
-3.76528
11
4.83867
21
-3.76391
0
LINE
8
BLACK
6
CONTINUOUS
10
4.83867
20
-3.76391
11
4.84771
21
-3.76402
0
LINE
8
BLACK
6
CONTINUOUS
10
6.97369
20
-3.76402
11
6.98258
21
-3.76561
0
LINE
8
BLACK
6
CONTINUOUS
10
6.98258
20
-3.76561
11
6.9911
21
-3.76862
0
LINE
8
BLACK
6
CONTINUOUS
10
6.9911
20
-3.76862
11
6.99901
21
-3.77299
0
LINE
8
BLACK
6
CONTINUOUS
10
6.99901
20
-3.77299
11
7.00609
21
-3.77859
0
LINE
8
BLACK
6
CONTINUOUS
10
7.00609
20
-3.77859
11
7.01217
21
-3.78527
0
LINE
8
BLACK
6
CONTINUOUS
10
7.01217
20
-3.78527
11
7.01708
21
-3.79285
0
LINE
8
BLACK
6
CONTINUOUS
10
7.01708
20
-3.79285
11
7.02068
21
-3.80113
0
LINE
8
BLACK
6
CONTINUOUS
10
7.02068
20
-3.80113
11
7.02288
21
-3.8099
0
LINE
8
BLACK
6
CONTINUOUS
10
7.02288
20
-3.8099
11
7.02362
21
-3.8189
0
LINE
8
BLACK
6
CONTINUOUS
10
7.02362
20
-3.8189
11
7.02356
21
-3.82159
0
LINE
8
BLACK
6
CONTINUOUS
10
7.02356
20
-3.82159
11
7.02238
21
-3.83055
0
LINE
8
BLACK
6
CONTINUOUS
10
7.02238
20
-3.83055
11
7.01975
21
-3.83919
0
LINE
8
BLACK
6
CONTINUOUS
10
7.01975
20
-3.83919
11
7.01575
21
-3.84729
0
LINE
8
BLACK
6
CONTINUOUS
10
7.01575
20
-3.84729
11
7.01048
21
-3.85462
0
LINE
8
BLACK
6
CONTINUOUS
10
7.01048
20
-3.85462
11
7.00408
21
-3.861
0
LINE
8
BLACK
6
CONTINUOUS
10
7.00408
20
-3.861
11
6.99673
21
-3.86624
0
LINE
8
BLACK
6
CONTINUOUS
10
6.99673
20
-3.86624
11
6.98862
21
-3.87022
0
LINE
8
BLACK
6
CONTINUOUS
10
6.98862
20
-3.87022
11
6.97996
21
-3.87281
0
LINE
8
BLACK
6
CONTINUOUS
10
6.97996
20
-3.87281
11
6.971
21
-3.87396
0
LINE
8
BLACK
6
CONTINUOUS
10
6.971
20
-3.87396
11
6.96198
21
-3.87363
0
LINE
8
BLACK
6
CONTINUOUS
10
6.96198
20
-3.87363
11
6.95313
21
-3.87183
0
LINE
8
BLACK
6
CONTINUOUS
10
6.95313
20
-3.87183
11
6.94469
21
-3.8686
0
LINE
8
BLACK
6
CONTINUOUS
10
6.94469
20
-3.8686
11
6.93689
21
-3.86405
0
LINE
8
BLACK
6
CONTINUOUS
10
6.93689
20
-3.86405
11
6.92994
21
-3.85828
0
LINE
8
BLACK
6
CONTINUOUS
10
6.92994
20
-3.85828
11
6.92403
21
-3.85145
0
LINE
8
BLACK
6
CONTINUOUS
10
6.92403
20
-3.85145
11
6.91931
21
-3.84375
0
LINE
8
BLACK
6
CONTINUOUS
10
6.91931
20
-3.84375
11
6.91591
21
-3.83538
0
LINE
8
BLACK
6
CONTINUOUS
10
6.91591
20
-3.83538
11
6.91392
21
-3.82657
0
LINE
8
BLACK
6
CONTINUOUS
10
6.91392
20
-3.82657
11
6.9134
21
-3.81755
0
LINE
8
BLACK
6
CONTINUOUS
10
6.9134
20
-3.81755
11
6.91436
21
-3.80857
0
LINE
8
BLACK
6
CONTINUOUS
10
6.91436
20
-3.80857
11
6.91678
21
-3.79987
0
LINE
8
BLACK
6
CONTINUOUS
10
6.91678
20
-3.79987
11
6.92058
21
-3.79167
0
LINE
8
BLACK
6
CONTINUOUS
10
6.92058
20
-3.79167
11
6.92567
21
-3.78421
0
LINE
8
BLACK
6
CONTINUOUS
10
6.92567
20
-3.78421
11
6.93191
21
-3.77768
0
LINE
8
BLACK
6
CONTINUOUS
10
6.93191
20
-3.77768
11
6.93913
21
-3.77226
0
LINE
8
BLACK
6
CONTINUOUS
10
6.93913
20
-3.77226
11
6.94714
21
-3.76809
0
LINE
8
BLACK
6
CONTINUOUS
10
6.94714
20
-3.76809
11
6.95573
21
-3.76528
0
LINE
8
BLACK
6
CONTINUOUS
10
6.95573
20
-3.76528
11
6.96466
21
-3.76391
0
LINE
8
BLACK
6
CONTINUOUS
10
6.96466
20
-3.76391
11
6.97369
21
-3.76402
0
LINE
8
BLACK
6
CONTINUOUS
10
6.01422
20
-3.71472
11
6.01486
21
-3.71514
0
LINE
8
BLACK
6
CONTINUOUS
10
6.01486
20
-3.71514
11
6.01528
21
-3.71578
0
LINE
8
BLACK
6
CONTINUOUS
10
6.01528
20
-3.71578
11
6.01543
21
-3.71654
0
LINE
8
BLACK
6
CONTINUOUS
10
6.01543
20
-3.71654
11
6.01543
21
-3.78346
0
LINE
8
BLACK
6
CONTINUOUS
10
6.01543
20
-3.78346
11
6.01528
21
-3.78422
0
LINE
8
BLACK
6
CONTINUOUS
10
6.01528
20
-3.78422
11
6.01486
21
-3.78486
0
LINE
8
BLACK
6
CONTINUOUS
10
6.01486
20
-3.78486
11
6.01422
21
-3.78528
0
LINE
8
BLACK
6
CONTINUOUS
10
6.01422
20
-3.78528
11
6.01346
21
-3.78543
0
LINE
8
BLACK
6
CONTINUOUS
10
6.01346
20
-3.78543
11
5.94654
21
-3.78543
0
LINE
8
BLACK
6
CONTINUOUS
10
5.94654
20
-3.78543
11
5.94578
21
-3.78528
0
LINE
8
BLACK
6
CONTINUOUS
10
5.94578
20
-3.78528
11
5.94514
21
-3.78486
0
LINE
8
BLACK
6
CONTINUOUS
10
5.94514
20
-3.78486
11
5.94472
21
-3.78422
0
LINE
8
BLACK
6
CONTINUOUS
10
5.94472
20
-3.78422
11
5.94457
21
-3.78346
0
LINE
8
BLACK
6
CONTINUOUS
10
5.94457
20
-3.78346
11
5.94457
21
-3.71654
0
LINE
8
BLACK
6
CONTINUOUS
10
5.94457
20
-3.71654
11
5.94472
21
-3.71578
0
LINE
8
BLACK
6
CONTINUOUS
10
5.94472
20
-3.71578
11
5.94514
21
-3.71514
0
LINE
8
BLACK
6
CONTINUOUS
10
5.94514
20
-3.71514
11
5.94578
21
-3.71472
0
LINE
8
BLACK
6
CONTINUOUS
10
5.94578
20
-3.71472
11
5.94654
21
-3.71457
0
LINE
8
BLACK
6
CONTINUOUS
10
5.94654
20
-3.71457
11
6.01346
21
-3.71457
0
LINE
8
BLACK
6
CONTINUOUS
10
6.01346
20
-3.71457
11
6.01422
21
-3.71472
0
LINE
8
BLACK
6
CONTINUOUS
10
6.09095
20
-3.7163
11
6.09772
21
-3.71931
0
LINE
8
BLACK
6
CONTINUOUS
10
6.09772
20
-3.71931
11
6.10371
21
-3.72367
0
LINE
8
BLACK
6
CONTINUOUS
10
6.10371
20
-3.72367
11
6.10867
21
-3.72917
0
LINE
8
BLACK
6
CONTINUOUS
10
6.10867
20
-3.72917
11
6.11237
21
-3.73559
0
LINE
8
BLACK
6
CONTINUOUS
10
6.11237
20
-3.73559
11
6.11466
21
-3.74263
0
LINE
8
BLACK
6
CONTINUOUS
10
6.11466
20
-3.74263
11
6.11543
21
-3.75
0
LINE
8
BLACK
6
CONTINUOUS
10
6.11543
20
-3.75
11
6.11466
21
-3.75737
0
LINE
8
BLACK
6
CONTINUOUS
10
6.11466
20
-3.75737
11
6.11237
21
-3.76441
0
LINE
8
BLACK
6
CONTINUOUS
10
6.11237
20
-3.76441
11
6.10867
21
-3.77083
0
LINE
8
BLACK
6
CONTINUOUS
10
6.10867
20
-3.77083
11
6.10371
21
-3.77633
0
LINE
8
BLACK
6
CONTINUOUS
10
6.10371
20
-3.77633
11
6.09772
21
-3.78069
0
LINE
8
BLACK
6
CONTINUOUS
10
6.09772
20
-3.78069
11
6.09095
21
-3.7837
0
LINE
8
BLACK
6
CONTINUOUS
10
6.09095
20
-3.7837
11
6.0837
21
-3.78524
0
LINE
8
BLACK
6
CONTINUOUS
10
6.0837
20
-3.78524
11
6.0763
21
-3.78524
0
LINE
8
BLACK
6
CONTINUOUS
10
6.0763
20
-3.78524
11
6.06905
21
-3.7837
0
LINE
8
BLACK
6
CONTINUOUS
10
6.06905
20
-3.7837
11
6.06228
21
-3.78069
0
LINE
8
BLACK
6
CONTINUOUS
10
6.06228
20
-3.78069
11
6.05629
21
-3.77633
0
LINE
8
BLACK
6
CONTINUOUS
10
6.05629
20
-3.77633
11
6.05133
21
-3.77083
0
LINE
8
BLACK
6
CONTINUOUS
10
6.05133
20
-3.77083
11
6.04763
21
-3.76441
0
LINE
8
BLACK
6
CONTINUOUS
10
6.04763
20
-3.76441
11
6.04534
21
-3.75737
0
LINE
8
BLACK
6
CONTINUOUS
10
6.04534
20
-3.75737
11
6.04457
21
-3.75
0
LINE
8
BLACK
6
CONTINUOUS
10
6.04457
20
-3.75
11
6.04534
21
-3.74263
0
LINE
8
BLACK
6
CONTINUOUS
10
6.04534
20
-3.74263
11
6.04763
21
-3.73559
0
LINE
8
BLACK
6
CONTINUOUS
10
6.04763
20
-3.73559
11
6.05133
21
-3.72917
0
LINE
8
BLACK
6
CONTINUOUS
10
6.05133
20
-3.72917
11
6.05629
21
-3.72367
0
LINE
8
BLACK
6
CONTINUOUS
10
6.05629
20
-3.72367
11
6.06228
21
-3.71931
0
LINE
8
BLACK
6
CONTINUOUS
10
6.06228
20
-3.71931
11
6.06905
21
-3.7163
0
LINE
8
BLACK
6
CONTINUOUS
10
6.06905
20
-3.7163
11
6.0763
21
-3.71476
0
LINE
8
BLACK
6
CONTINUOUS
10
6.0763
20
-3.71476
11
6.0837
21
-3.71476
0
LINE
8
BLACK
6
CONTINUOUS
10
6.0837
20
-3.71476
11
6.09095
21
-3.7163
0
LINE
8
BLACK
6
CONTINUOUS
10
5.76695
20
-3.7153
11
5.77372
21
-3.71831
0
LINE
8
BLACK
6
CONTINUOUS
10
5.77372
20
-3.71831
11
5.77971
21
-3.72267
0
LINE
8
BLACK
6
CONTINUOUS
10
5.77971
20
-3.72267
11
5.78467
21
-3.72817
0
LINE
8
BLACK
6
CONTINUOUS
10
5.78467
20
-3.72817
11
5.78837
21
-3.73459
0
LINE
8
BLACK
6
CONTINUOUS
10
5.78837
20
-3.73459
11
5.79066
21
-3.74163
0
LINE
8
BLACK
6
CONTINUOUS
10
5.79066
20
-3.74163
11
5.79143
21
-3.749
0
LINE
8
BLACK
6
CONTINUOUS
10
5.79143
20
-3.749
11
5.79066
21
-3.75637
0
LINE
8
BLACK
6
CONTINUOUS
10
5.79066
20
-3.75637
11
5.78837
21
-3.76341
0
LINE
8
BLACK
6
CONTINUOUS
10
5.78837
20
-3.76341
11
5.78467
21
-3.76983
0
LINE
8
BLACK
6
CONTINUOUS
10
5.78467
20
-3.76983
11
5.77971
21
-3.77533
0
LINE
8
BLACK
6
CONTINUOUS
10
5.77971
20
-3.77533
11
5.77372
21
-3.77969
0
LINE
8
BLACK
6
CONTINUOUS
10
5.77372
20
-3.77969
11
5.76695
21
-3.7827
0
LINE
8
BLACK
6
CONTINUOUS
10
5.76695
20
-3.7827
11
5.7597
21
-3.78424
0
LINE
8
BLACK
6
CONTINUOUS
10
5.7597
20
-3.78424
11
5.7523
21
-3.78424
0
LINE
8
BLACK
6
CONTINUOUS
10
5.7523
20
-3.78424
11
5.74505
21
-3.7827
0
LINE
8
BLACK
6
CONTINUOUS
10
5.74505
20
-3.7827
11
5.73828
21
-3.77969
0
LINE
8
BLACK
6
CONTINUOUS
10
5.73828
20
-3.77969
11
5.73229
21
-3.77533
0
LINE
8
BLACK
6
CONTINUOUS
10
5.73229
20
-3.77533
11
5.72733
21
-3.76983
0
LINE
8
BLACK
6
CONTINUOUS
10
5.72733
20
-3.76983
11
5.72363
21
-3.76341
0
LINE
8
BLACK
6
CONTINUOUS
10
5.72363
20
-3.76341
11
5.72134
21
-3.75637
0
LINE
8
BLACK
6
CONTINUOUS
10
5.72134
20
-3.75637
11
5.72057
21
-3.749
0
LINE
8
BLACK
6
CONTINUOUS
10
5.72057
20
-3.749
11
5.72134
21
-3.74163
0
LINE
8
BLACK
6
CONTINUOUS
10
5.72134
20
-3.74163
11
5.72363
21
-3.73459
0
LINE
8
BLACK
6
CONTINUOUS
10
5.72363
20
-3.73459
11
5.72733
21
-3.72817
0
LINE
8
BLACK
6
CONTINUOUS
10
5.72733
20
-3.72817
11
5.73229
21
-3.72267
0
LINE
8
BLACK
6
CONTINUOUS
10
5.73229
20
-3.72267
11
5.73828
21
-3.71831
0
LINE
8
BLACK
6
CONTINUOUS
10
5.73828
20
-3.71831
11
5.74505
21
-3.7153
0
LINE
8
BLACK
6
CONTINUOUS
10
5.74505
20
-3.7153
11
5.7523
21
-3.71376
0
LINE
8
BLACK
6
CONTINUOUS
10
5.7523
20
-3.71376
11
5.7597
21
-3.71376
0
LINE
8
BLACK
6
CONTINUOUS
10
5.7597
20
-3.71376
11
5.76695
21
-3.7153
0
LINE
8
BLACK
6
CONTINUOUS
10
5.66695
20
-3.7153
11
5.67372
21
-3.71831
0
LINE
8
BLACK
6
CONTINUOUS
10
5.67372
20
-3.71831
11
5.67971
21
-3.72267
0
LINE
8
BLACK
6
CONTINUOUS
10
5.67971
20
-3.72267
11
5.68467
21
-3.72817
0
LINE
8
BLACK
6
CONTINUOUS
10
5.68467
20
-3.72817
11
5.68837
21
-3.73459
0
LINE
8
BLACK
6
CONTINUOUS
10
5.68837
20
-3.73459
11
5.69066
21
-3.74163
0
LINE
8
BLACK
6
CONTINUOUS
10
5.69066
20
-3.74163
11
5.69143
21
-3.749
0
LINE
8
BLACK
6
CONTINUOUS
10
5.69143
20
-3.749
11
5.69066
21
-3.75637
0
LINE
8
BLACK
6
CONTINUOUS
10
5.69066
20
-3.75637
11
5.68837
21
-3.76341
0
LINE
8
BLACK
6
CONTINUOUS
10
5.68837
20
-3.76341
11
5.68467
21
-3.76983
0
LINE
8
BLACK
6
CONTINUOUS
10
5.68467
20
-3.76983
11
5.67971
21
-3.77533
0
LINE
8
BLACK
6
CONTINUOUS
10
5.67971
20
-3.77533
11
5.67372
21
-3.77969
0
LINE
8
BLACK
6
CONTINUOUS
10
5.67372
20
-3.77969
11
5.66695
21
-3.7827
0
LINE
8
BLACK
6
CONTINUOUS
10
5.66695
20
-3.7827
11
5.6597
21
-3.78424
0
LINE
8
BLACK
6
CONTINUOUS
10
5.6597
20
-3.78424
11
5.6523
21
-3.78424
0
LINE
8
BLACK
6
CONTINUOUS
10
5.6523
20
-3.78424
11
5.64505
21
-3.7827
0
LINE
8
BLACK
6
CONTINUOUS
10
5.64505
20
-3.7827
11
5.63828
21
-3.77969
0
LINE
8
BLACK
6
CONTINUOUS
10
5.63828
20
-3.77969
11
5.63229
21
-3.77533
0
LINE
8
BLACK
6
CONTINUOUS
10
5.63229
20
-3.77533
11
5.62733
21
-3.76983
0
LINE
8
BLACK
6
CONTINUOUS
10
5.62733
20
-3.76983
11
5.62363
21
-3.76341
0
LINE
8
BLACK
6
CONTINUOUS
10
5.62363
20
-3.76341
11
5.62134
21
-3.75637
0
LINE
8
BLACK
6
CONTINUOUS
10
5.62134
20
-3.75637
11
5.62057
21
-3.749
0
LINE
8
BLACK
6
CONTINUOUS
10
5.62057
20
-3.749
11
5.62134
21
-3.74163
0
LINE
8
BLACK
6
CONTINUOUS
10
5.62134
20
-3.74163
11
5.62363
21
-3.73459
0
LINE
8
BLACK
6
CONTINUOUS
10
5.62363
20
-3.73459
11
5.62733
21
-3.72817
0
LINE
8
BLACK
6
CONTINUOUS
10
5.62733
20
-3.72817
11
5.63229
21
-3.72267
0
LINE
8
BLACK
6
CONTINUOUS
10
5.63229
20
-3.72267
11
5.63828
21
-3.71831
0
LINE
8
BLACK
6
CONTINUOUS
10
5.63828
20
-3.71831
11
5.64505
21
-3.7153
0
LINE
8
BLACK
6
CONTINUOUS
10
5.64505
20
-3.7153
11
5.6523
21
-3.71376
0
LINE
8
BLACK
6
CONTINUOUS
10
5.6523
20
-3.71376
11
5.6597
21
-3.71376
0
LINE
8
BLACK
6
CONTINUOUS
10
5.6597
20
-3.71376
11
5.66695
21
-3.7153
0
LINE
8
BLACK
6
CONTINUOUS
10
5.56695
20
-3.7153
11
5.57372
21
-3.71831
0
LINE
8
BLACK
6
CONTINUOUS
10
5.57372
20
-3.71831
11
5.57971
21
-3.72267
0
LINE
8
BLACK
6
CONTINUOUS
10
5.57971
20
-3.72267
11
5.58467
21
-3.72817
0
LINE
8
BLACK
6
CONTINUOUS
10
5.58467
20
-3.72817
11
5.58837
21
-3.73459
0
LINE
8
BLACK
6
CONTINUOUS
10
5.58837
20
-3.73459
11
5.59066
21
-3.74163
0
LINE
8
BLACK
6
CONTINUOUS
10
5.59066
20
-3.74163
11
5.59143
21
-3.749
0
LINE
8
BLACK
6
CONTINUOUS
10
5.59143
20
-3.749
11
5.59066
21
-3.75637
0
LINE
8
BLACK
6
CONTINUOUS
10
5.59066
20
-3.75637
11
5.58837
21
-3.76341
0
LINE
8
BLACK
6
CONTINUOUS
10
5.58837
20
-3.76341
11
5.58467
21
-3.76983
0
LINE
8
BLACK
6
CONTINUOUS
10
5.58467
20
-3.76983
11
5.57971
21
-3.77533
0
LINE
8
BLACK
6
CONTINUOUS
10
5.57971
20
-3.77533
11
5.57372
21
-3.77969
0
LINE
8
BLACK
6
CONTINUOUS
10
5.57372
20
-3.77969
11
5.56695
21
-3.7827
0
LINE
8
BLACK
6
CONTINUOUS
10
5.56695
20
-3.7827
11
5.5597
21
-3.78424
0
LINE
8
BLACK
6
CONTINUOUS
10
5.5597
20
-3.78424
11
5.5523
21
-3.78424
0
LINE
8
BLACK
6
CONTINUOUS
10
5.5523
20
-3.78424
11
5.54505
21
-3.7827
0
LINE
8
BLACK
6
CONTINUOUS
10
5.54505
20
-3.7827
11
5.53828
21
-3.77969
0
LINE
8
BLACK
6
CONTINUOUS
10
5.53828
20
-3.77969
11
5.53229
21
-3.77533
0
LINE
8
BLACK
6
CONTINUOUS
10
5.53229
20
-3.77533
11
5.52733
21
-3.76983
0
LINE
8
BLACK
6
CONTINUOUS
10
5.52733
20
-3.76983
11
5.52363
21
-3.76341
0
LINE
8
BLACK
6
CONTINUOUS
10
5.52363
20
-3.76341
11
5.52134
21
-3.75637
0
LINE
8
BLACK
6
CONTINUOUS
10
5.52134
20
-3.75637
11
5.52057
21
-3.749
0
LINE
8
BLACK
6
CONTINUOUS
10
5.52057
20
-3.749
11
5.52134
21
-3.74163
0
LINE
8
BLACK
6
CONTINUOUS
10
5.52134
20
-3.74163
11
5.52363
21
-3.73459
0
LINE
8
BLACK
6
CONTINUOUS
10
5.52363
20
-3.73459
11
5.52733
21
-3.72817
0
LINE
8
BLACK
6
CONTINUOUS
10
5.52733
20
-3.72817
11
5.53229
21
-3.72267
0
LINE
8
BLACK
6
CONTINUOUS
10
5.53229
20
-3.72267
11
5.53828
21
-3.71831
0
LINE
8
BLACK
6
CONTINUOUS
10
5.53828
20
-3.71831
11
5.54505
21
-3.7153
0
LINE
8
BLACK
6
CONTINUOUS
10
5.54505
20
-3.7153
11
5.5523
21
-3.71376
0
LINE
8
BLACK
6
CONTINUOUS
10
5.5523
20
-3.71376
11
5.5597
21
-3.71376
0
LINE
8
BLACK
6
CONTINUOUS
10
5.5597
20
-3.71376
11
5.56695
21
-3.7153
0
LINE
8
BLACK
6
CONTINUOUS
10
7.02725
20
-3.41494
11
7.03812
21
-3.41649
0
LINE
8
BLACK
6
CONTINUOUS
10
7.03812
20
-3.41649
11
7.04868
21
-3.4195
0
LINE
8
BLACK
6
CONTINUOUS
10
7.04868
20
-3.4195
11
7.05873
21
-3.42391
0
LINE
8
BLACK
6
CONTINUOUS
10
7.05873
20
-3.42391
11
7.06809
21
-3.42965
0
LINE
8
BLACK
6
CONTINUOUS
10
7.06809
20
-3.42965
11
7.07659
21
-3.4366
0
LINE
8
BLACK
6
CONTINUOUS
10
7.07659
20
-3.4366
11
7.08406
21
-3.44464
0
LINE
8
BLACK
6
CONTINUOUS
10
7.08406
20
-3.44464
11
7.09037
21
-3.45362
0
LINE
8
BLACK
6
CONTINUOUS
10
7.09037
20
-3.45362
11
7.09541
21
-3.46338
0
LINE
8
BLACK
6
CONTINUOUS
10
7.09541
20
-3.46338
11
7.09907
21
-3.47373
0
LINE
8
BLACK
6
CONTINUOUS
10
7.09907
20
-3.47373
11
7.1013
21
-3.48448
0
LINE
8
BLACK
6
CONTINUOUS
10
7.1013
20
-3.48448
11
7.10205
21
-3.49543
0
LINE
8
BLACK
6
CONTINUOUS
10
7.10205
20
-3.49543
11
7.10203
21
-3.49712
0
LINE
8
BLACK
6
CONTINUOUS
10
7.10203
20
-3.49712
11
7.10105
21
-3.50806
0
LINE
8
BLACK
6
CONTINUOUS
10
7.10105
20
-3.50806
11
7.0986
21
-3.51876
0
LINE
8
BLACK
6
CONTINUOUS
10
7.0986
20
-3.51876
11
7.09472
21
-3.52903
0
LINE
8
BLACK
6
CONTINUOUS
10
7.09472
20
-3.52903
11
7.08948
21
-3.53868
0
LINE
8
BLACK
6
CONTINUOUS
10
7.08948
20
-3.53868
11
7.08298
21
-3.54753
0
LINE
8
BLACK
6
CONTINUOUS
10
7.08298
20
-3.54753
11
7.07534
21
-3.55541
0
LINE
8
BLACK
6
CONTINUOUS
10
7.07534
20
-3.55541
11
7.0667
21
-3.56219
0
LINE
8
BLACK
6
CONTINUOUS
10
7.0667
20
-3.56219
11
7.05722
21
-3.56772
0
LINE
8
BLACK
6
CONTINUOUS
10
7.05722
20
-3.56772
11
7.04708
21
-3.57193
0
LINE
8
BLACK
6
CONTINUOUS
10
7.04708
20
-3.57193
11
7.03646
21
-3.57471
0
LINE
8
BLACK
6
CONTINUOUS
10
7.03646
20
-3.57471
11
7.02556
21
-3.57603
0
LINE
8
BLACK
6
CONTINUOUS
10
7.02556
20
-3.57603
11
7.01459
21
-3.57586
0
LINE
8
BLACK
6
CONTINUOUS
10
7.01459
20
-3.57586
11
7.00373
21
-3.5742
0
LINE
8
BLACK
6
CONTINUOUS
10
7.00373
20
-3.5742
11
6.99321
21
-3.57108
0
LINE
8
BLACK
6
CONTINUOUS
10
6.99321
20
-3.57108
11
6.9832
21
-3.56656
0
LINE
8
BLACK
6
CONTINUOUS
10
6.9832
20
-3.56656
11
6.9739
21
-3.56073
0
LINE
8
BLACK
6
CONTINUOUS
10
6.9739
20
-3.56073
11
6.96548
21
-3.55369
0
LINE
8
BLACK
6
CONTINUOUS
10
6.96548
20
-3.55369
11
6.95809
21
-3.54557
0
LINE
8
BLACK
6
CONTINUOUS
10
6.95809
20
-3.54557
11
6.95187
21
-3.53652
0
LINE
8
BLACK
6
CONTINUOUS
10
6.95187
20
-3.53652
11
6.94694
21
-3.52671
0
LINE
8
BLACK
6
CONTINUOUS
10
6.94694
20
-3.52671
11
6.94338
21
-3.51632
0
LINE
8
BLACK
6
CONTINUOUS
10
6.94338
20
-3.51632
11
6.94127
21
-3.50555
0
LINE
8
BLACK
6
CONTINUOUS
10
6.94127
20
-3.50555
11
6.94063
21
-3.49459
0
LINE
8
BLACK
6
CONTINUOUS
10
6.94063
20
-3.49459
11
6.9415
21
-3.48364
0
LINE
8
BLACK
6
CONTINUOUS
10
6.9415
20
-3.48364
11
6.94383
21
-3.47292
0
LINE
8
BLACK
6
CONTINUOUS
10
6.94383
20
-3.47292
11
6.94761
21
-3.46261
0
LINE
8
BLACK
6
CONTINUOUS
10
6.94761
20
-3.46261
11
6.95274
21
-3.4529
0
LINE
8
BLACK
6
CONTINUOUS
10
6.95274
20
-3.4529
11
6.95915
21
-3.44399
0
LINE
8
BLACK
6
CONTINUOUS
10
6.95915
20
-3.44399
11
6.96671
21
-3.43602
0
LINE
8
BLACK
6
CONTINUOUS
10
6.96671
20
-3.43602
11
6.97528
21
-3.42916
0
LINE
8
BLACK
6
CONTINUOUS
10
6.97528
20
-3.42916
11
6.9847
21
-3.42352
0
LINE
8
BLACK
6
CONTINUOUS
10
6.9847
20
-3.42352
11
6.9948
21
-3.41921
0
LINE
8
BLACK
6
CONTINUOUS
10
6.9948
20
-3.41921
11
7.00539
21
-3.41632
0
LINE
8
BLACK
6
CONTINUOUS
10
7.00539
20
-3.41632
11
7.01627
21
-3.41488
0
LINE
8
BLACK
6
CONTINUOUS
10
7.01627
20
-3.41488
11
7.02725
21
-3.41494
0
LINE
8
BLACK
6
CONTINUOUS
10
5.56095
20
-3.5063
11
5.56772
21
-3.50931
0
LINE
8
BLACK
6
CONTINUOUS
10
5.56772
20
-3.50931
11
5.57371
21
-3.51367
0
LINE
8
BLACK
6
CONTINUOUS
10
5.57371
20
-3.51367
11
5.57867
21
-3.51917
0
LINE
8
BLACK
6
CONTINUOUS
10
5.57867
20
-3.51917
11
5.58237
21
-3.52559
0
LINE
8
BLACK
6
CONTINUOUS
10
5.58237
20
-3.52559
11
5.58466
21
-3.53263
0
LINE
8
BLACK
6
CONTINUOUS
10
5.58466
20
-3.53263
11
5.58543
21
-3.54
0
LINE
8
BLACK
6
CONTINUOUS
10
5.58543
20
-3.54
11
5.58466
21
-3.54737
0
LINE
8
BLACK
6
CONTINUOUS
10
5.58466
20
-3.54737
11
5.58237
21
-3.55441
0
LINE
8
BLACK
6
CONTINUOUS
10
5.58237
20
-3.55441
11
5.57867
21
-3.56083
0
LINE
8
BLACK
6
CONTINUOUS
10
5.57867
20
-3.56083
11
5.57371
21
-3.56633
0
LINE
8
BLACK
6
CONTINUOUS
10
5.57371
20
-3.56633
11
5.56772
21
-3.57069
0
LINE
8
BLACK
6
CONTINUOUS
10
5.56772
20
-3.57069
11
5.56095
21
-3.5737
0
LINE
8
BLACK
6
CONTINUOUS
10
5.56095
20
-3.5737
11
5.5537
21
-3.57524
0
LINE
8
BLACK
6
CONTINUOUS
10
5.5537
20
-3.57524
11
5.5463
21
-3.57524
0
LINE
8
BLACK
6
CONTINUOUS
10
5.5463
20
-3.57524
11
5.53905
21
-3.5737
0
LINE
8
BLACK
6
CONTINUOUS
10
5.53905
20
-3.5737
11
5.53228
21
-3.57069
0
LINE
8
BLACK
6
CONTINUOUS
10
5.53228
20
-3.57069
11
5.52629
21
-3.56633
0
LINE
8
BLACK
6
CONTINUOUS
10
5.52629
20
-3.56633
11
5.52133
21
-3.56083
0
LINE
8
BLACK
6
CONTINUOUS
10
5.52133
20
-3.56083
11
5.51763
21
-3.55441
0
LINE
8
BLACK
6
CONTINUOUS
10
5.51763
20
-3.55441
11
5.51534
21
-3.54737
0
LINE
8
BLACK
6
CONTINUOUS
10
5.51534
20
-3.54737
11
5.51457
21
-3.54
0
LINE
8
BLACK
6
CONTINUOUS
10
5.51457
20
-3.54
11
5.51534
21
-3.53263
0
LINE
8
BLACK
6
CONTINUOUS
10
5.51534
20
-3.53263
11
5.51763
21
-3.52559
0
LINE
8
BLACK
6
CONTINUOUS
10
5.51763
20
-3.52559
11
5.52133
21
-3.51917
0
LINE
8
BLACK
6
CONTINUOUS
10
5.52133
20
-3.51917
11
5.52629
21
-3.51367
0
LINE
8
BLACK
6
CONTINUOUS
10
5.52629
20
-3.51367
11
5.53228
21
-3.50931
0
LINE
8
BLACK
6
CONTINUOUS
10
5.53228
20
-3.50931
11
5.53905
21
-3.5063
0
LINE
8
BLACK
6
CONTINUOUS
10
5.53905
20
-3.5063
11
5.5463
21
-3.50476
0
LINE
8
BLACK
6
CONTINUOUS
10
5.5463
20
-3.50476
11
5.5537
21
-3.50476
0
LINE
8
BLACK
6
CONTINUOUS
10
5.5537
20
-3.50476
11
5.56095
21
-3.5063
0
LINE
8
BLACK
6
CONTINUOUS
10
5.56095
20
-3.4063
11
5.56772
21
-3.40931
0
LINE
8
BLACK
6
CONTINUOUS
10
5.56772
20
-3.40931
11
5.57371
21
-3.41367
0
LINE
8
BLACK
6
CONTINUOUS
10
5.57371
20
-3.41367
11
5.57867
21
-3.41917
0
LINE
8
BLACK
6
CONTINUOUS
10
5.57867
20
-3.41917
11
5.58237
21
-3.42559
0
LINE
8
BLACK
6
CONTINUOUS
10
5.58237
20
-3.42559
11
5.58466
21
-3.43263
0
LINE
8
BLACK
6
CONTINUOUS
10
5.58466
20
-3.43263
11
5.58543
21
-3.44
0
LINE
8
BLACK
6
CONTINUOUS
10
5.58543
20
-3.44
11
5.58466
21
-3.44737
0
LINE
8
BLACK
6
CONTINUOUS
10
5.58466
20
-3.44737
11
5.58237
21
-3.45441
0
LINE
8
BLACK
6
CONTINUOUS
10
5.58237
20
-3.45441
11
5.57867
21
-3.46083
0
LINE
8
BLACK
6
CONTINUOUS
10
5.57867
20
-3.46083
11
5.57371
21
-3.46633
0
LINE
8
BLACK
6
CONTINUOUS
10
5.57371
20
-3.46633
11
5.56772
21
-3.47069
0
LINE
8
BLACK
6
CONTINUOUS
10
5.56772
20
-3.47069
11
5.56095
21
-3.4737
0
LINE
8
BLACK
6
CONTINUOUS
10
5.56095
20
-3.4737
11
5.5537
21
-3.47524
0
LINE
8
BLACK
6
CONTINUOUS
10
5.5537
20
-3.47524
11
5.5463
21
-3.47524
0
LINE
8
BLACK
6
CONTINUOUS
10
5.5463
20
-3.47524
11
5.53905
21
-3.4737
0
LINE
8
BLACK
6
CONTINUOUS
10
5.53905
20
-3.4737
11
5.53228
21
-3.47069
0
LINE
8
BLACK
6
CONTINUOUS
10
5.53228
20
-3.47069
11
5.52629
21
-3.46633
0
LINE
8
BLACK
6
CONTINUOUS
10
5.52629
20
-3.46633
11
5.52133
21
-3.46083
0
LINE
8
BLACK
6
CONTINUOUS
10
5.52133
20
-3.46083
11
5.51763
21
-3.45441
0
LINE
8
BLACK
6
CONTINUOUS
10
5.51763
20
-3.45441
11
5.51534
21
-3.44737
0
LINE
8
BLACK
6
CONTINUOUS
10
5.51534
20
-3.44737
11
5.51457
21
-3.44
0
LINE
8
BLACK
6
CONTINUOUS
10
5.51457
20
-3.44
11
5.51534
21
-3.43263
0
LINE
8
BLACK
6
CONTINUOUS
10
5.51534
20
-3.43263
11
5.51763
21
-3.42559
0
LINE
8
BLACK
6
CONTINUOUS
10
5.51763
20
-3.42559
11
5.52133
21
-3.41917
0
LINE
8
BLACK
6
CONTINUOUS
10
5.52133
20
-3.41917
11
5.52629
21
-3.41367
0
LINE
8
BLACK
6
CONTINUOUS
10
5.52629
20
-3.41367
11
5.53228
21
-3.40931
0
LINE
8
BLACK
6
CONTINUOUS
10
5.53228
20
-3.40931
11
5.53905
21
-3.4063
0
LINE
8
BLACK
6
CONTINUOUS
10
5.53905
20
-3.4063
11
5.5463
21
-3.40476
0
LINE
8
BLACK
6
CONTINUOUS
10
5.5463
20
-3.40476
11
5.5537
21
-3.40476
0
LINE
8
BLACK
6
CONTINUOUS
10
5.5537
20
-3.40476
11
5.56095
21
-3.4063
0
LINE
8
BLACK
6
CONTINUOUS
10
5.56095
20
-3.3063
11
5.56772
21
-3.30931
0
LINE
8
BLACK
6
CONTINUOUS
10
5.56772
20
-3.30931
11
5.57371
21
-3.31367
0
LINE
8
BLACK
6
CONTINUOUS
10
5.57371
20
-3.31367
11
5.57867
21
-3.31917
0
LINE
8
BLACK
6
CONTINUOUS
10
5.57867
20
-3.31917
11
5.58237
21
-3.32559
0
LINE
8
BLACK
6
CONTINUOUS
10
5.58237
20
-3.32559
11
5.58466
21
-3.33263
0
LINE
8
BLACK
6
CONTINUOUS
10
5.58466
20
-3.33263
11
5.58543
21
-3.34
0
LINE
8
BLACK
6
CONTINUOUS
10
5.58543
20
-3.34
11
5.58466
21
-3.34737
0
LINE
8
BLACK
6
CONTINUOUS
10
5.58466
20
-3.34737
11
5.58237
21
-3.35441
0
LINE
8
BLACK
6
CONTINUOUS
10
5.58237
20
-3.35441
11
5.57867
21
-3.36083
0
LINE
8
BLACK
6
CONTINUOUS
10
5.57867
20
-3.36083
11
5.57371
21
-3.36633
0
LINE
8
BLACK
6
CONTINUOUS
10
5.57371
20
-3.36633
11
5.56772
21
-3.37069
0
LINE
8
BLACK
6
CONTINUOUS
10
5.56772
20
-3.37069
11
5.56095
21
-3.3737
0
LINE
8
BLACK
6
CONTINUOUS
10
5.56095
20
-3.3737
11
5.5537
21
-3.37524
0
LINE
8
BLACK
6
CONTINUOUS
10
5.5537
20
-3.37524
11
5.5463
21
-3.37524
0
LINE
8
BLACK
6
CONTINUOUS
10
5.5463
20
-3.37524
11
5.53905
21
-3.3737
0
LINE
8
BLACK
6
CONTINUOUS
10
5.53905
20
-3.3737
11
5.53228
21
-3.37069
0
LINE
8
BLACK
6
CONTINUOUS
10
5.53228
20
-3.37069
11
5.52629
21
-3.36633
0
LINE
8
BLACK
6
CONTINUOUS
10
5.52629
20
-3.36633
11
5.52133
21
-3.36083
0
LINE
8
BLACK
6
CONTINUOUS
10
5.52133
20
-3.36083
11
5.51763
21
-3.35441
0
LINE
8
BLACK
6
CONTINUOUS
10
5.51763
20
-3.35441
11
5.51534
21
-3.34737
0
LINE
8
BLACK
6
CONTINUOUS
10
5.51534
20
-3.34737
11
5.51457
21
-3.34
0
LINE
8
BLACK
6
CONTINUOUS
10
5.51457
20
-3.34
11
5.51534
21
-3.33263
0
LINE
8
BLACK
6
CONTINUOUS
10
5.51534
20
-3.33263
11
5.51763
21
-3.32559
0
LINE
8
BLACK
6
CONTINUOUS
10
5.51763
20
-3.32559
11
5.52133
21
-3.31917
0
LINE
8
BLACK
6
CONTINUOUS
10
5.52133
20
-3.31917
11
5.52629
21
-3.31367
0
LINE
8
BLACK
6
CONTINUOUS
10
5.52629
20
-3.31367
11
5.53228
21
-3.30931
0
LINE
8
BLACK
6
CONTINUOUS
10
5.53228
20
-3.30931
11
5.53905
21
-3.3063
0
LINE
8
BLACK
6
CONTINUOUS
10
5.53905
20
-3.3063
11
5.5463
21
-3.30476
0
LINE
8
BLACK
6
CONTINUOUS
10
5.5463
20
-3.30476
11
5.5537
21
-3.30476
0
LINE
8
BLACK
6
CONTINUOUS
10
5.5537
20
-3.30476
11
5.56095
21
-3.3063
0
LINE
8
BLACK
6
CONTINUOUS
10
6.1456
20
-3.30908
11
6.15083
21
-3.31125
0
LINE
8
BLACK
6
CONTINUOUS
10
6.15083
20
-3.31125
11
6.15531
21
-3.31469
0
LINE
8
BLACK
6
CONTINUOUS
10
6.15531
20
-3.31469
11
6.15875
21
-3.31917
0
LINE
8
BLACK
6
CONTINUOUS
10
6.15875
20
-3.31917
11
6.16092
21
-3.3244
0
LINE
8
BLACK
6
CONTINUOUS
10
6.16092
20
-3.3244
11
6.16165
21
-3.33
0
LINE
8
BLACK
6
CONTINUOUS
10
6.16165
20
-3.33
11
6.16092
21
-3.3356
0
LINE
8
BLACK
6
CONTINUOUS
10
6.16092
20
-3.3356
11
6.15875
21
-3.34083
0
LINE
8
BLACK
6
CONTINUOUS
10
6.15875
20
-3.34083
11
6.15531
21
-3.34531
0
LINE
8
BLACK
6
CONTINUOUS
10
6.15531
20
-3.34531
11
6.15083
21
-3.34875
0
LINE
8
BLACK
6
CONTINUOUS
10
6.15083
20
-3.34875
11
6.1456
21
-3.35092
0
LINE
8
BLACK
6
CONTINUOUS
10
6.1456
20
-3.35092
11
6.14
21
-3.35165
0
LINE
8
BLACK
6
CONTINUOUS
10
6.14
20
-3.35165
11
6.1344
21
-3.35092
0
LINE
8
BLACK
6
CONTINUOUS
10
6.1344
20
-3.35092
11
6.12917
21
-3.34875
0
LINE
8
BLACK
6
CONTINUOUS
10
6.12917
20
-3.34875
11
6.12469
21
-3.34531
0
LINE
8
BLACK
6
CONTINUOUS
10
6.12469
20
-3.34531
11
6.12125
21
-3.34083
0
LINE
8
BLACK
6
CONTINUOUS
10
6.12125
20
-3.34083
11
6.11908
21
-3.3356
0
LINE
8
BLACK
6
CONTINUOUS
10
6.11908
20
-3.3356
11
6.11835
21
-3.33
0
LINE
8
BLACK
6
CONTINUOUS
10
6.11835
20
-3.33
11
6.11908
21
-3.3244
0
LINE
8
BLACK
6
CONTINUOUS
10
6.11908
20
-3.3244
11
6.12125
21
-3.31917
0
LINE
8
BLACK
6
CONTINUOUS
10
6.12125
20
-3.31917
11
6.12469
21
-3.31469
0
LINE
8
BLACK
6
CONTINUOUS
10
6.12469
20
-3.31469
11
6.12917
21
-3.31125
0
LINE
8
BLACK
6
CONTINUOUS
10
6.12917
20
-3.31125
11
6.1344
21
-3.30908
0
LINE
8
BLACK
6
CONTINUOUS
10
6.1344
20
-3.30908
11
6.14
21
-3.30835
0
LINE
8
BLACK
6
CONTINUOUS
10
6.14
20
-3.30835
11
6.1456
21
-3.30908
0
LINE
8
BLACK
6
CONTINUOUS
10
6.91908
20
-3.2766
11
6.92547
21
-3.27944
0
LINE
8
BLACK
6
CONTINUOUS
10
6.92547
20
-3.27944
11
6.93113
21
-3.28356
0
LINE
8
BLACK
6
CONTINUOUS
10
6.93113
20
-3.28356
11
6.93581
21
-3.28876
0
LINE
8
BLACK
6
CONTINUOUS
10
6.93581
20
-3.28876
11
6.93931
21
-3.29481
0
LINE
8
BLACK
6
CONTINUOUS
10
6.93931
20
-3.29481
11
6.94147
21
-3.30147
0
LINE
8
BLACK
6
CONTINUOUS
10
6.94147
20
-3.30147
11
6.9422
21
-3.30843
0
LINE
8
BLACK
6
CONTINUOUS
10
6.9422
20
-3.30843
11
6.94147
21
-3.31538
0
LINE
8
BLACK
6
CONTINUOUS
10
6.94147
20
-3.31538
11
6.93931
21
-3.32204
0
LINE
8
BLACK
6
CONTINUOUS
10
6.93931
20
-3.32204
11
6.93581
21
-3.3281
0
LINE
8
BLACK
6
CONTINUOUS
10
6.93581
20
-3.3281
11
6.93113
21
-3.33329
0
LINE
8
BLACK
6
CONTINUOUS
10
6.93113
20
-3.33329
11
6.92547
21
-3.33741
0
LINE
8
BLACK
6
CONTINUOUS
10
6.92547
20
-3.33741
11
6.91908
21
-3.34025
0
LINE
8
BLACK
6
CONTINUOUS
10
6.91908
20
-3.34025
11
6.91224
21
-3.34171
0
LINE
8
BLACK
6
CONTINUOUS
10
6.91224
20
-3.34171
11
6.90524
21
-3.34171
0
LINE
8
BLACK
6
CONTINUOUS
10
6.90524
20
-3.34171
11
6.8984
21
-3.34025
0
LINE
8
BLACK
6
CONTINUOUS
10
6.8984
20
-3.34025
11
6.89201
21
-3.33741
0
LINE
8
BLACK
6
CONTINUOUS
10
6.89201
20
-3.33741
11
6.88635
21
-3.33329
0
LINE
8
BLACK
6
CONTINUOUS
10
6.88635
20
-3.33329
11
6.88167
21
-3.3281
0
LINE
8
BLACK
6
CONTINUOUS
10
6.88167
20
-3.3281
11
6.87817
21
-3.32204
0
LINE
8
BLACK
6
CONTINUOUS
10
6.87817
20
-3.32204
11
6.87601
21
-3.31538
0
LINE
8
BLACK
6
CONTINUOUS
10
6.87601
20
-3.31538
11
6.87528
21
-3.30843
0
LINE
8
BLACK
6
CONTINUOUS
10
6.87528
20
-3.30843
11
6.87601
21
-3.30147
0
LINE
8
BLACK
6
CONTINUOUS
10
6.87601
20
-3.30147
11
6.87817
21
-3.29481
0
LINE
8
BLACK
6
CONTINUOUS
10
6.87817
20
-3.29481
11
6.88167
21
-3.28876
0
LINE
8
BLACK
6
CONTINUOUS
10
6.88167
20
-3.28876
11
6.88635
21
-3.28356
0
LINE
8
BLACK
6
CONTINUOUS
10
6.88635
20
-3.28356
11
6.89201
21
-3.27944
0
LINE
8
BLACK
6
CONTINUOUS
10
6.89201
20
-3.27944
11
6.8984
21
-3.2766
0
LINE
8
BLACK
6
CONTINUOUS
10
6.8984
20
-3.2766
11
6.90524
21
-3.27514
0
LINE
8
BLACK
6
CONTINUOUS
10
6.90524
20
-3.27514
11
6.91224
21
-3.27514
0
LINE
8
BLACK
6
CONTINUOUS
10
6.91224
20
-3.27514
11
6.91908
21
-3.2766
0
LINE
8
BLACK
6
CONTINUOUS
10
6.84034
20
-3.2766
11
6.84673
21
-3.27944
0
LINE
8
BLACK
6
CONTINUOUS
10
6.84673
20
-3.27944
11
6.85239
21
-3.28356
0
LINE
8
BLACK
6
CONTINUOUS
10
6.85239
20
-3.28356
11
6.85707
21
-3.28876
0
LINE
8
BLACK
6
CONTINUOUS
10
6.85707
20
-3.28876
11
6.86057
21
-3.29481
0
LINE
8
BLACK
6
CONTINUOUS
10
6.86057
20
-3.29481
11
6.86273
21
-3.30147
0
LINE
8
BLACK
6
CONTINUOUS
10
6.86273
20
-3.30147
11
6.86346
21
-3.30843
0
LINE
8
BLACK
6
CONTINUOUS
10
6.86346
20
-3.30843
11
6.86273
21
-3.31538
0
LINE
8
BLACK
6
CONTINUOUS
10
6.86273
20
-3.31538
11
6.86057
21
-3.32204
0
LINE
8
BLACK
6
CONTINUOUS
10
6.86057
20
-3.32204
11
6.85707
21
-3.3281
0
LINE
8
BLACK
6
CONTINUOUS
10
6.85707
20
-3.3281
11
6.85239
21
-3.33329
0
LINE
8
BLACK
6
CONTINUOUS
10
6.85239
20
-3.33329
11
6.84673
21
-3.33741
0
LINE
8
BLACK
6
CONTINUOUS
10
6.84673
20
-3.33741
11
6.84034
21
-3.34025
0
LINE
8
BLACK
6
CONTINUOUS
10
6.84034
20
-3.34025
11
6.8335
21
-3.34171
0
LINE
8
BLACK
6
CONTINUOUS
10
6.8335
20
-3.34171
11
6.8265
21
-3.34171
0
LINE
8
BLACK
6
CONTINUOUS
10
6.8265
20
-3.34171
11
6.81966
21
-3.34025
0
LINE
8
BLACK
6
CONTINUOUS
10
6.81966
20
-3.34025
11
6.81327
21
-3.33741
0
LINE
8
BLACK
6
CONTINUOUS
10
6.81327
20
-3.33741
11
6.80761
21
-3.33329
0
LINE
8
BLACK
6
CONTINUOUS
10
6.80761
20
-3.33329
11
6.80293
21
-3.3281
0
LINE
8
BLACK
6
CONTINUOUS
10
6.80293
20
-3.3281
11
6.79943
21
-3.32204
0
LINE
8
BLACK
6
CONTINUOUS
10
6.79943
20
-3.32204
11
6.79727
21
-3.31538
0
LINE
8
BLACK
6
CONTINUOUS
10
6.79727
20
-3.31538
11
6.79654
21
-3.30843
0
LINE
8
BLACK
6
CONTINUOUS
10
6.79654
20
-3.30843
11
6.79727
21
-3.30147
0
LINE
8
BLACK
6
CONTINUOUS
10
6.79727
20
-3.30147
11
6.79943
21
-3.29481
0
LINE
8
BLACK
6
CONTINUOUS
10
6.79943
20
-3.29481
11
6.80293
21
-3.28876
0
LINE
8
BLACK
6
CONTINUOUS
10
6.80293
20
-3.28876
11
6.80761
21
-3.28356
0
LINE
8
BLACK
6
CONTINUOUS
10
6.80761
20
-3.28356
11
6.81327
21
-3.27944
0
LINE
8
BLACK
6
CONTINUOUS
10
6.81327
20
-3.27944
11
6.81966
21
-3.2766
0
LINE
8
BLACK
6
CONTINUOUS
10
6.81966
20
-3.2766
11
6.8265
21
-3.27514
0
LINE
8
BLACK
6
CONTINUOUS
10
6.8265
20
-3.27514
11
6.8335
21
-3.27514
0
LINE
8
BLACK
6
CONTINUOUS
10
6.8335
20
-3.27514
11
6.84034
21
-3.2766
0
LINE
8
BLACK
6
CONTINUOUS
10
7.0556
20
-3.28908
11
7.06083
21
-3.29125
0
LINE
8
BLACK
6
CONTINUOUS
10
7.06083
20
-3.29125
11
7.06531
21
-3.29469
0
LINE
8
BLACK
6
CONTINUOUS
10
7.06531
20
-3.29469
11
7.06875
21
-3.29917
0
LINE
8
BLACK
6
CONTINUOUS
10
7.06875
20
-3.29917
11
7.07092
21
-3.3044
0
LINE
8
BLACK
6
CONTINUOUS
10
7.07092
20
-3.3044
11
7.07165
21
-3.31
0
LINE
8
BLACK
6
CONTINUOUS
10
7.07165
20
-3.31
11
7.07092
21
-3.3156
0
LINE
8
BLACK
6
CONTINUOUS
10
7.07092
20
-3.3156
11
7.06875
21
-3.32083
0
LINE
8
BLACK
6
CONTINUOUS
10
7.06875
20
-3.32083
11
7.06531
21
-3.32531
0
LINE
8
BLACK
6
CONTINUOUS
10
7.06531
20
-3.32531
11
7.06083
21
-3.32875
0
LINE
8
BLACK
6
CONTINUOUS
10
7.06083
20
-3.32875
11
7.0556
21
-3.33092
0
LINE
8
BLACK
6
CONTINUOUS
10
7.0556
20
-3.33092
11
7.05
21
-3.33165
0
LINE
8
BLACK
6
CONTINUOUS
10
7.05
20
-3.33165
11
7.0444
21
-3.33092
0
LINE
8
BLACK
6
CONTINUOUS
10
7.0444
20
-3.33092
11
7.03917
21
-3.32875
0
LINE
8
BLACK
6
CONTINUOUS
10
7.03917
20
-3.32875
11
7.03469
21
-3.32531
0
LINE
8
BLACK
6
CONTINUOUS
10
7.03469
20
-3.32531
11
7.03125
21
-3.32083
0
LINE
8
BLACK
6
CONTINUOUS
10
7.03125
20
-3.32083
11
7.02908
21
-3.3156
0
LINE
8
BLACK
6
CONTINUOUS
10
7.02908
20
-3.3156
11
7.02835
21
-3.31
0
LINE
8
BLACK
6
CONTINUOUS
10
7.02835
20
-3.31
11
7.02908
21
-3.3044
0
LINE
8
BLACK
6
CONTINUOUS
10
7.02908
20
-3.3044
11
7.03125
21
-3.29917
0
LINE
8
BLACK
6
CONTINUOUS
10
7.03125
20
-3.29917
11
7.03469
21
-3.29469
0
LINE
8
BLACK
6
CONTINUOUS
10
7.03469
20
-3.29469
11
7.03917
21
-3.29125
0
LINE
8
BLACK
6
CONTINUOUS
10
7.03917
20
-3.29125
11
7.0444
21
-3.28908
0
LINE
8
BLACK
6
CONTINUOUS
10
7.0444
20
-3.28908
11
7.05
21
-3.28835
0
LINE
8
BLACK
6
CONTINUOUS
10
7.05
20
-3.28835
11
7.0556
21
-3.28908
0
LINE
8
BLACK
6
CONTINUOUS
10
5.56095
20
-3.2063
11
5.56772
21
-3.20931
0
LINE
8
BLACK
6
CONTINUOUS
10
5.56772
20
-3.20931
11
5.57371
21
-3.21367
0
LINE
8
BLACK
6
CONTINUOUS
10
5.57371
20
-3.21367
11
5.57867
21
-3.21917
0
LINE
8
BLACK
6
CONTINUOUS
10
5.57867
20
-3.21917
11
5.58237
21
-3.22559
0
LINE
8
BLACK
6
CONTINUOUS
10
5.58237
20
-3.22559
11
5.58466
21
-3.23263
0
LINE
8
BLACK
6
CONTINUOUS
10
5.58466
20
-3.23263
11
5.58543
21
-3.24
0
LINE
8
BLACK
6
CONTINUOUS
10
5.58543
20
-3.24
11
5.58466
21
-3.24737
0
LINE
8
BLACK
6
CONTINUOUS
10
5.58466
20
-3.24737
11
5.58237
21
-3.25441
0
LINE
8
BLACK
6
CONTINUOUS
10
5.58237
20
-3.25441
11
5.57867
21
-3.26083
0
LINE
8
BLACK
6
CONTINUOUS
10
5.57867
20
-3.26083
11
5.57371
21
-3.26633
0
LINE
8
BLACK
6
CONTINUOUS
10
5.57371
20
-3.26633
11
5.56772
21
-3.27069
0
LINE
8
BLACK
6
CONTINUOUS
10
5.56772
20
-3.27069
11
5.56095
21
-3.2737
0
LINE
8
BLACK
6
CONTINUOUS
10
5.56095
20
-3.2737
11
5.5537
21
-3.27524
0
LINE
8
BLACK
6
CONTINUOUS
10
5.5537
20
-3.27524
11
5.5463
21
-3.27524
0
LINE
8
BLACK
6
CONTINUOUS
10
5.5463
20
-3.27524
11
5.53905
21
-3.2737
0
LINE
8
BLACK
6
CONTINUOUS
10
5.53905
20
-3.2737
11
5.53228
21
-3.27069
0
LINE
8
BLACK
6
CONTINUOUS
10
5.53228
20
-3.27069
11
5.52629
21
-3.26633
0
LINE
8
BLACK
6
CONTINUOUS
10
5.52629
20
-3.26633
11
5.52133
21
-3.26083
0
LINE
8
BLACK
6
CONTINUOUS
10
5.52133
20
-3.26083
11
5.51763
21
-3.25441
0
LINE
8
BLACK
6
CONTINUOUS
10
5.51763
20
-3.25441
11
5.51534
21
-3.24737
0
LINE
8
BLACK
6
CONTINUOUS
10
5.51534
20
-3.24737
11
5.51457
21
-3.24
0
LINE
8
BLACK
6
CONTINUOUS
10
5.51457
20
-3.24
11
5.51534
21
-3.23263
0
LINE
8
BLACK
6
CONTINUOUS
10
5.51534
20
-3.23263
11
5.51763
21
-3.22559
0
LINE
8
BLACK
6
CONTINUOUS
10
5.51763
20
-3.22559
11
5.52133
21
-3.21917
0
LINE
8
BLACK
6
CONTINUOUS
10
5.52133
20
-3.21917
11
5.52629
21
-3.21367
0
LINE
8
BLACK
6
CONTINUOUS
10
5.52629
20
-3.21367
11
5.53228
21
-3.20931
0
LINE
8
BLACK
6
CONTINUOUS
10
5.53228
20
-3.20931
11
5.53905
21
-3.2063
0
LINE
8
BLACK
6
CONTINUOUS
10
5.53905
20
-3.2063
11
5.5463
21
-3.20476
0
LINE
8
BLACK
6
CONTINUOUS
10
5.5463
20
-3.20476
11
5.5537
21
-3.20476
0
LINE
8
BLACK
6
CONTINUOUS
10
5.5537
20
-3.20476
11
5.56095
21
-3.2063
0
LINE
8
BLACK
6
CONTINUOUS
10
6.86225
20
-3.17669
11
6.86289
21
-3.17711
0
LINE
8
BLACK
6
CONTINUOUS
10
6.86289
20
-3.17711
11
6.86331
21
-3.17775
0
LINE
8
BLACK
6
CONTINUOUS
10
6.86331
20
-3.17775
11
6.86346
21
-3.1785
0
LINE
8
BLACK
6
CONTINUOUS
10
6.86346
20
-3.1785
11
6.86346
21
-3.2415
0
LINE
8
BLACK
6
CONTINUOUS
10
6.86346
20
-3.2415
11
6.86331
21
-3.24225
0
LINE
8
BLACK
6
CONTINUOUS
10
6.86331
20
-3.24225
11
6.86289
21
-3.24289
0
LINE
8
BLACK
6
CONTINUOUS
10
6.86289
20
-3.24289
11
6.86225
21
-3.24331
0
LINE
8
BLACK
6
CONTINUOUS
10
6.86225
20
-3.24331
11
6.8615
21
-3.24346
0
LINE
8
BLACK
6
CONTINUOUS
10
6.8615
20
-3.24346
11
6.7985
21
-3.24346
0
LINE
8
BLACK
6
CONTINUOUS
10
6.7985
20
-3.24346
11
6.79775
21
-3.24331
0
LINE
8
BLACK
6
CONTINUOUS
10
6.79775
20
-3.24331
11
6.79711
21
-3.24289
0
LINE
8
BLACK
6
CONTINUOUS
10
6.79711
20
-3.24289
11
6.79669
21
-3.24225
0
LINE
8
BLACK
6
CONTINUOUS
10
6.79669
20
-3.24225
11
6.79654
21
-3.2415
0
LINE
8
BLACK
6
CONTINUOUS
10
6.79654
20
-3.2415
11
6.79654
21
-3.1785
0
LINE
8
BLACK
6
CONTINUOUS
10
6.79654
20
-3.1785
11
6.79669
21
-3.17775
0
LINE
8
BLACK
6
CONTINUOUS
10
6.79669
20
-3.17775
11
6.79711
21
-3.17711
0
LINE
8
BLACK
6
CONTINUOUS
10
6.79711
20
-3.17711
11
6.79775
21
-3.17669
0
LINE
8
BLACK
6
CONTINUOUS
10
6.79775
20
-3.17669
11
6.7985
21
-3.17654
0
LINE
8
BLACK
6
CONTINUOUS
10
6.7985
20
-3.17654
11
6.8615
21
-3.17654
0
LINE
8
BLACK
6
CONTINUOUS
10
6.8615
20
-3.17654
11
6.86225
21
-3.17669
0
LINE
8
BLACK
6
CONTINUOUS
10
6.91908
20
-3.17817
11
6.92547
21
-3.18102
0
LINE
8
BLACK
6
CONTINUOUS
10
6.92547
20
-3.18102
11
6.93113
21
-3.18513
0
LINE
8
BLACK
6
CONTINUOUS
10
6.93113
20
-3.18513
11
6.93581
21
-3.19033
0
LINE
8
BLACK
6
CONTINUOUS
10
6.93581
20
-3.19033
11
6.93931
21
-3.19639
0
LINE
8
BLACK
6
CONTINUOUS
10
6.93931
20
-3.19639
11
6.94147
21
-3.20304
0
LINE
8
BLACK
6
CONTINUOUS
10
6.94147
20
-3.20304
11
6.9422
21
-3.21
0
LINE
8
BLACK
6
CONTINUOUS
10
6.9422
20
-3.21
11
6.94147
21
-3.21696
0
LINE
8
BLACK
6
CONTINUOUS
10
6.94147
20
-3.21696
11
6.93931
21
-3.22361
0
LINE
8
BLACK
6
CONTINUOUS
10
6.93931
20
-3.22361
11
6.93581
21
-3.22967
0
LINE
8
BLACK
6
CONTINUOUS
10
6.93581
20
-3.22967
11
6.93113
21
-3.23487
0
LINE
8
BLACK
6
CONTINUOUS
10
6.93113
20
-3.23487
11
6.92547
21
-3.23898
0
LINE
8
BLACK
6
CONTINUOUS
10
6.92547
20
-3.23898
11
6.91908
21
-3.24183
0
LINE
8
BLACK
6
CONTINUOUS
10
6.91908
20
-3.24183
11
6.91224
21
-3.24328
0
LINE
8
BLACK
6
CONTINUOUS
10
6.91224
20
-3.24328
11
6.90524
21
-3.24328
0
LINE
8
BLACK
6
CONTINUOUS
10
6.90524
20
-3.24328
11
6.8984
21
-3.24183
0
LINE
8
BLACK
6
CONTINUOUS
10
6.8984
20
-3.24183
11
6.89201
21
-3.23898
0
LINE
8
BLACK
6
CONTINUOUS
10
6.89201
20
-3.23898
11
6.88635
21
-3.23487
0
LINE
8
BLACK
6
CONTINUOUS
10
6.88635
20
-3.23487
11
6.88167
21
-3.22967
0
LINE
8
BLACK
6
CONTINUOUS
10
6.88167
20
-3.22967
11
6.87817
21
-3.22361
0
LINE
8
BLACK
6
CONTINUOUS
10
6.87817
20
-3.22361
11
6.87601
21
-3.21696
0
LINE
8
BLACK
6
CONTINUOUS
10
6.87601
20
-3.21696
11
6.87528
21
-3.21
0
LINE
8
BLACK
6
CONTINUOUS
10
6.87528
20
-3.21
11
6.87601
21
-3.20304
0
LINE
8
BLACK
6
CONTINUOUS
10
6.87601
20
-3.20304
11
6.87817
21
-3.19639
0
LINE
8
BLACK
6
CONTINUOUS
10
6.87817
20
-3.19639
11
6.88167
21
-3.19033
0
LINE
8
BLACK
6
CONTINUOUS
10
6.88167
20
-3.19033
11
6.88635
21
-3.18513
0
LINE
8
BLACK
6
CONTINUOUS
10
6.88635
20
-3.18513
11
6.89201
21
-3.18102
0
LINE
8
BLACK
6
CONTINUOUS
10
6.89201
20
-3.18102
11
6.8984
21
-3.17817
0
LINE
8
BLACK
6
CONTINUOUS
10
6.8984
20
-3.17817
11
6.90524
21
-3.17672
0
LINE
8
BLACK
6
CONTINUOUS
10
6.90524
20
-3.17672
11
6.91224
21
-3.17672
0
LINE
8
BLACK
6
CONTINUOUS
10
6.91224
20
-3.17672
11
6.91908
21
-3.17817
0
LINE
8
BLACK
6
CONTINUOUS
10
4.85759
20
-3.15634
11
4.8642
21
-3.1587
0
LINE
8
BLACK
6
CONTINUOUS
10
4.8642
20
-3.1587
11
4.87013
21
-3.16246
0
LINE
8
BLACK
6
CONTINUOUS
10
4.87013
20
-3.16246
11
4.87508
21
-3.16744
0
LINE
8
BLACK
6
CONTINUOUS
10
4.87508
20
-3.16744
11
4.8788
21
-3.1734
0
LINE
8
BLACK
6
CONTINUOUS
10
4.8788
20
-3.1734
11
4.88111
21
-3.18003
0
LINE
8
BLACK
6
CONTINUOUS
10
4.88111
20
-3.18003
11
4.88189
21
-3.18701
0
LINE
8
BLACK
6
CONTINUOUS
10
4.88189
20
-3.18701
11
4.88189
21
-3.20669
0
LINE
8
BLACK
6
CONTINUOUS
10
4.88189
20
-3.20669
11
4.88189
21
-3.20713
0
LINE
8
BLACK
6
CONTINUOUS
10
4.88189
20
-3.20713
11
4.88101
21
-3.2141
0
LINE
8
BLACK
6
CONTINUOUS
10
4.88101
20
-3.2141
11
4.87861
21
-3.2207
0
LINE
8
BLACK
6
CONTINUOUS
10
4.87861
20
-3.2207
11
4.8748
21
-3.2266
0
LINE
8
BLACK
6
CONTINUOUS
10
4.8748
20
-3.2266
11
4.86978
21
-3.23151
0
LINE
8
BLACK
6
CONTINUOUS
10
4.86978
20
-3.23151
11
4.8638
21
-3.23519
0
LINE
8
BLACK
6
CONTINUOUS
10
4.8638
20
-3.23519
11
4.85716
21
-3.23745
0
LINE
8
BLACK
6
CONTINUOUS
10
4.85716
20
-3.23745
11
4.85017
21
-3.23819
0
LINE
8
BLACK
6
CONTINUOUS
10
4.85017
20
-3.23819
11
4.8432
21
-3.23736
0
LINE
8
BLACK
6
CONTINUOUS
10
4.8432
20
-3.23736
11
4.83659
21
-3.235
0
LINE
8
BLACK
6
CONTINUOUS
10
4.83659
20
-3.235
11
4.83066
21
-3.23124
0
LINE
8
BLACK
6
CONTINUOUS
10
4.83066
20
-3.23124
11
4.82571
21
-3.22626
0
LINE
8
BLACK
6
CONTINUOUS
10
4.82571
20
-3.22626
11
4.82199
21
-3.2203
0
LINE
8
BLACK
6
CONTINUOUS
10
4.82199
20
-3.2203
11
4.81968
21
-3.21367
0
LINE
8
BLACK
6
CONTINUOUS
10
4.81968
20
-3.21367
11
4.8189
21
-3.20669
0
LINE
8
BLACK
6
CONTINUOUS
10
4.8189
20
-3.20669
11
4.8189
21
-3.18701
0
LINE
8
BLACK
6
CONTINUOUS
10
4.8189
20
-3.18701
11
4.8189
21
-3.18657
0
LINE
8
BLACK
6
CONTINUOUS
10
4.8189
20
-3.18657
11
4.81978
21
-3.1796
0
LINE
8
BLACK
6
CONTINUOUS
10
4.81978
20
-3.1796
11
4.82218
21
-3.173
0
LINE
8
BLACK
6
CONTINUOUS
10
4.82218
20
-3.173
11
4.82599
21
-3.1671
0
LINE
8
BLACK
6
CONTINUOUS
10
4.82599
20
-3.1671
11
4.831
21
-3.16219
0
LINE
8
BLACK
6
CONTINUOUS
10
4.831
20
-3.16219
11
4.83698
21
-3.15851
0
LINE
8
BLACK
6
CONTINUOUS
10
4.83698
20
-3.15851
11
4.84363
21
-3.15625
0
LINE
8
BLACK
6
CONTINUOUS
10
4.84363
20
-3.15625
11
4.85061
21
-3.15551
0
LINE
8
BLACK
6
CONTINUOUS
10
4.85061
20
-3.15551
11
4.85759
21
-3.15634
0
LINE
8
BLACK
6
CONTINUOUS
10
5.03193
20
-3.15636
11
5.03964
21
-3.15874
0
LINE
8
BLACK
6
CONTINUOUS
10
5.03964
20
-3.15874
11
5.04674
21
-3.16258
0
LINE
8
BLACK
6
CONTINUOUS
10
5.04674
20
-3.16258
11
5.05295
21
-3.16772
0
LINE
8
BLACK
6
CONTINUOUS
10
5.05295
20
-3.16772
11
5.05805
21
-3.17397
0
LINE
8
BLACK
6
CONTINUOUS
10
5.05805
20
-3.17397
11
5.06184
21
-3.1811
0
LINE
8
BLACK
6
CONTINUOUS
10
5.06184
20
-3.1811
11
5.06417
21
-3.18882
0
LINE
8
BLACK
6
CONTINUOUS
10
5.06417
20
-3.18882
11
5.06496
21
-3.19685
0
LINE
8
BLACK
6
CONTINUOUS
10
5.06496
20
-3.19685
11
5.06494
21
-3.198
0
LINE
8
BLACK
6
CONTINUOUS
10
5.06494
20
-3.198
11
5.06393
21
-3.20601
0
LINE
8
BLACK
6
CONTINUOUS
10
5.06393
20
-3.20601
11
5.06139
21
-3.21366
0
LINE
8
BLACK
6
CONTINUOUS
10
5.06139
20
-3.21366
11
5.0574
21
-3.22068
0
LINE
8
BLACK
6
CONTINUOUS
10
5.0574
20
-3.22068
11
5.05213
21
-3.22679
0
LINE
8
BLACK
6
CONTINUOUS
10
5.05213
20
-3.22679
11
5.04577
21
-3.23175
0
LINE
8
BLACK
6
CONTINUOUS
10
5.04577
20
-3.23175
11
5.03857
21
-3.23539
0
LINE
8
BLACK
6
CONTINUOUS
10
5.03857
20
-3.23539
11
5.0308
21
-3.23756
0
LINE
8
BLACK
6
CONTINUOUS
10
5.0308
20
-3.23756
11
5.02276
21
-3.23818
0
LINE
8
BLACK
6
CONTINUOUS
10
5.02276
20
-3.23818
11
5.01475
21
-3.23722
0
LINE
8
BLACK
6
CONTINUOUS
10
5.01475
20
-3.23722
11
5.00707
21
-3.23473
0
LINE
8
BLACK
6
CONTINUOUS
10
5.00707
20
-3.23473
11
5.00003
21
-3.2308
0
LINE
8
BLACK
6
CONTINUOUS
10
5.00003
20
-3.2308
11
4.99389
21
-3.22557
0
LINE
8
BLACK
6
CONTINUOUS
10
4.99389
20
-3.22557
11
4.98887
21
-3.21924
0
LINE
8
BLACK
6
CONTINUOUS
10
4.98887
20
-3.21924
11
4.98519
21
-3.21207
0
LINE
8
BLACK
6
CONTINUOUS
10
4.98519
20
-3.21207
11
4.98296
21
-3.20431
0
LINE
8
BLACK
6
CONTINUOUS
10
4.98296
20
-3.20431
11
4.98229
21
-3.19627
0
LINE
8
BLACK
6
CONTINUOUS
10
4.98229
20
-3.19627
11
4.98319
21
-3.18826
0
LINE
8
BLACK
6
CONTINUOUS
10
4.98319
20
-3.18826
11
4.98563
21
-3.18057
0
LINE
8
BLACK
6
CONTINUOUS
10
4.98563
20
-3.18057
11
4.98951
21
-3.1735
0
LINE
8
BLACK
6
CONTINUOUS
10
4.98951
20
-3.1735
11
4.9947
21
-3.16732
0
LINE
8
BLACK
6
CONTINUOUS
10
4.9947
20
-3.16732
11
5.00099
21
-3.16226
0
LINE
8
BLACK
6
CONTINUOUS
10
5.00099
20
-3.16226
11
5.00814
21
-3.15852
0
LINE
8
BLACK
6
CONTINUOUS
10
5.00814
20
-3.15852
11
5.01588
21
-3.15624
0
LINE
8
BLACK
6
CONTINUOUS
10
5.01588
20
-3.15624
11
5.02391
21
-3.15551
0
LINE
8
BLACK
6
CONTINUOUS
10
5.02391
20
-3.15551
11
5.03193
21
-3.15636
0
LINE
8
BLACK
6
CONTINUOUS
10
7.0556
20
-3.15908
11
7.06083
21
-3.16125
0
LINE
8
BLACK
6
CONTINUOUS
10
7.06083
20
-3.16125
11
7.06531
21
-3.16469
0
LINE
8
BLACK
6
CONTINUOUS
10
7.06531
20
-3.16469
11
7.06875
21
-3.16917
0
LINE
8
BLACK
6
CONTINUOUS
10
7.06875
20
-3.16917
11
7.07092
21
-3.1744
0
LINE
8
BLACK
6
CONTINUOUS
10
7.07092
20
-3.1744
11
7.07165
21
-3.18
0
LINE
8
BLACK
6
CONTINUOUS
10
7.07165
20
-3.18
11
7.07092
21
-3.1856
0
LINE
8
BLACK
6
CONTINUOUS
10
7.07092
20
-3.1856
11
7.06875
21
-3.19083
0
LINE
8
BLACK
6
CONTINUOUS
10
7.06875
20
-3.19083
11
7.06531
21
-3.19531
0
LINE
8
BLACK
6
CONTINUOUS
10
7.06531
20
-3.19531
11
7.06083
21
-3.19875
0
LINE
8
BLACK
6
CONTINUOUS
10
7.06083
20
-3.19875
11
7.0556
21
-3.20092
0
LINE
8
BLACK
6
CONTINUOUS
10
7.0556
20
-3.20092
11
7.05
21
-3.20165
0
LINE
8
BLACK
6
CONTINUOUS
10
7.05
20
-3.20165
11
7.0444
21
-3.20092
0
LINE
8
BLACK
6
CONTINUOUS
10
7.0444
20
-3.20092
11
7.03917
21
-3.19875
0
LINE
8
BLACK
6
CONTINUOUS
10
7.03917
20
-3.19875
11
7.03469
21
-3.19531
0
LINE
8
BLACK
6
CONTINUOUS
10
7.03469
20
-3.19531
11
7.03125
21
-3.19083
0
LINE
8
BLACK
6
CONTINUOUS
10
7.03125
20
-3.19083
11
7.02908
21
-3.1856
0
LINE
8
BLACK
6
CONTINUOUS
10
7.02908
20
-3.1856
11
7.02835
21
-3.18
0
LINE
8
BLACK
6
CONTINUOUS
10
7.02835
20
-3.18
11
7.02908
21
-3.1744
0
LINE
8
BLACK
6
CONTINUOUS
10
7.02908
20
-3.1744
11
7.03125
21
-3.16917
0
LINE
8
BLACK
6
CONTINUOUS
10
7.03125
20
-3.16917
11
7.03469
21
-3.16469
0
LINE
8
BLACK
6
CONTINUOUS
10
7.03469
20
-3.16469
11
7.03917
21
-3.16125
0
LINE
8
BLACK
6
CONTINUOUS
10
7.03917
20
-3.16125
11
7.0444
21
-3.15908
0
LINE
8
BLACK
6
CONTINUOUS
10
7.0444
20
-3.15908
11
7.05
21
-3.15835
0
LINE
8
BLACK
6
CONTINUOUS
10
7.05
20
-3.15835
11
7.0556
21
-3.15908
0
LINE
8
BLACK
6
CONTINUOUS
10
6.6116
20
-3.13508
11
6.61683
21
-3.13725
0
LINE
8
BLACK
6
CONTINUOUS
10
6.61683
20
-3.13725
11
6.62131
21
-3.14069
0
LINE
8
BLACK
6
CONTINUOUS
10
6.62131
20
-3.14069
11
6.62475
21
-3.14517
0
LINE
8
BLACK
6
CONTINUOUS
10
6.62475
20
-3.14517
11
6.62692
21
-3.1504
0
LINE
8
BLACK
6
CONTINUOUS
10
6.62692
20
-3.1504
11
6.62765
21
-3.156
0
LINE
8
BLACK
6
CONTINUOUS
10
6.62765
20
-3.156
11
6.62692
21
-3.1616
0
LINE
8
BLACK
6
CONTINUOUS
10
6.62692
20
-3.1616
11
6.62475
21
-3.16683
0
LINE
8
BLACK
6
CONTINUOUS
10
6.62475
20
-3.16683
11
6.62131
21
-3.17131
0
LINE
8
BLACK
6
CONTINUOUS
10
6.62131
20
-3.17131
11
6.61683
21
-3.17475
0
LINE
8
BLACK
6
CONTINUOUS
10
6.61683
20
-3.17475
11
6.6116
21
-3.17692
0
LINE
8
BLACK
6
CONTINUOUS
10
6.6116
20
-3.17692
11
6.606
21
-3.17765
0
LINE
8
BLACK
6
CONTINUOUS
10
6.606
20
-3.17765
11
6.6004
21
-3.17692
0
LINE
8
BLACK
6
CONTINUOUS
10
6.6004
20
-3.17692
11
6.59517
21
-3.17475
0
LINE
8
BLACK
6
CONTINUOUS
10
6.59517
20
-3.17475
11
6.59069
21
-3.17131
0
LINE
8
BLACK
6
CONTINUOUS
10
6.59069
20
-3.17131
11
6.58725
21
-3.16683
0
LINE
8
BLACK
6
CONTINUOUS
10
6.58725
20
-3.16683
11
6.58508
21
-3.1616
0
LINE
8
BLACK
6
CONTINUOUS
10
6.58508
20
-3.1616
11
6.58435
21
-3.156
0
LINE
8
BLACK
6
CONTINUOUS
10
6.58435
20
-3.156
11
6.58508
21
-3.1504
0
LINE
8
BLACK
6
CONTINUOUS
10
6.58508
20
-3.1504
11
6.58725
21
-3.14517
0
LINE
8
BLACK
6
CONTINUOUS
10
6.58725
20
-3.14517
11
6.59069
21
-3.14069
0
LINE
8
BLACK
6
CONTINUOUS
10
6.59069
20
-3.14069
11
6.59517
21
-3.13725
0
LINE
8
BLACK
6
CONTINUOUS
10
6.59517
20
-3.13725
11
6.6004
21
-3.13508
0
LINE
8
BLACK
6
CONTINUOUS
10
6.6004
20
-3.13508
11
6.606
21
-3.13435
0
LINE
8
BLACK
6
CONTINUOUS
10
6.606
20
-3.13435
11
6.6116
21
-3.13508
0
LINE
8
BLACK
6
CONTINUOUS
10
5.56095
20
-3.1063
11
5.56772
21
-3.10931
0
LINE
8
BLACK
6
CONTINUOUS
10
5.56772
20
-3.10931
11
5.57371
21
-3.11367
0
LINE
8
BLACK
6
CONTINUOUS
10
5.57371
20
-3.11367
11
5.57867
21
-3.11917
0
LINE
8
BLACK
6
CONTINUOUS
10
5.57867
20
-3.11917
11
5.58237
21
-3.12559
0
LINE
8
BLACK
6
CONTINUOUS
10
5.58237
20
-3.12559
11
5.58466
21
-3.13263
0
LINE
8
BLACK
6
CONTINUOUS
10
5.58466
20
-3.13263
11
5.58543
21
-3.14
0
LINE
8
BLACK
6
CONTINUOUS
10
5.58543
20
-3.14
11
5.58466
21
-3.14737
0
LINE
8
BLACK
6
CONTINUOUS
10
5.58466
20
-3.14737
11
5.58237
21
-3.15441
0
LINE
8
BLACK
6
CONTINUOUS
10
5.58237
20
-3.15441
11
5.57867
21
-3.16083
0
LINE
8
BLACK
6
CONTINUOUS
10
5.57867
20
-3.16083
11
5.57371
21
-3.16633
0
LINE
8
BLACK
6
CONTINUOUS
10
5.57371
20
-3.16633
11
5.56772
21
-3.17069
0
LINE
8
BLACK
6
CONTINUOUS
10
5.56772
20
-3.17069
11
5.56095
21
-3.1737
0
LINE
8
BLACK
6
CONTINUOUS
10
5.56095
20
-3.1737
11
5.5537
21
-3.17524
0
LINE
8
BLACK
6
CONTINUOUS
10
5.5537
20
-3.17524
11
5.5463
21
-3.17524
0
LINE
8
BLACK
6
CONTINUOUS
10
5.5463
20
-3.17524
11
5.53905
21
-3.1737
0
LINE
8
BLACK
6
CONTINUOUS
10
5.53905
20
-3.1737
11
5.53228
21
-3.17069
0
LINE
8
BLACK
6
CONTINUOUS
10
5.53228
20
-3.17069
11
5.52629
21
-3.16633
0
LINE
8
BLACK
6
CONTINUOUS
10
5.52629
20
-3.16633
11
5.52133
21
-3.16083
0
LINE
8
BLACK
6
CONTINUOUS
10
5.52133
20
-3.16083
11
5.51763
21
-3.15441
0
LINE
8
BLACK
6
CONTINUOUS
10
5.51763
20
-3.15441
11
5.51534
21
-3.14737
0
LINE
8
BLACK
6
CONTINUOUS
10
5.51534
20
-3.14737
11
5.51457
21
-3.14
0
LINE
8
BLACK
6
CONTINUOUS
10
5.51457
20
-3.14
11
5.51534
21
-3.13263
0
LINE
8
BLACK
6
CONTINUOUS
10
5.51534
20
-3.13263
11
5.51763
21
-3.12559
0
LINE
8
BLACK
6
CONTINUOUS
10
5.51763
20
-3.12559
11
5.52133
21
-3.11917
0
LINE
8
BLACK
6
CONTINUOUS
10
5.52133
20
-3.11917
11
5.52629
21
-3.11367
0
LINE
8
BLACK
6
CONTINUOUS
10
5.52629
20
-3.11367
11
5.53228
21
-3.10931
0
LINE
8
BLACK
6
CONTINUOUS
10
5.53228
20
-3.10931
11
5.53905
21
-3.1063
0
LINE
8
BLACK
6
CONTINUOUS
10
5.53905
20
-3.1063
11
5.5463
21
-3.10476
0
LINE
8
BLACK
6
CONTINUOUS
10
5.5463
20
-3.10476
11
5.5537
21
-3.10476
0
LINE
8
BLACK
6
CONTINUOUS
10
5.5537
20
-3.10476
11
5.56095
21
-3.1063
0
LINE
8
BLACK
6
CONTINUOUS
10
5.40036
20
-3.09464
11
5.401
21
-3.09506
0
LINE
8
BLACK
6
CONTINUOUS
10
5.401
20
-3.09506
11
5.40142
21
-3.0957
0
LINE
8
BLACK
6
CONTINUOUS
10
5.40142
20
-3.0957
11
5.40157
21
-3.09646
0
LINE
8
BLACK
6
CONTINUOUS
10
5.40157
20
-3.09646
11
5.40157
21
-3.16339
0
LINE
8
BLACK
6
CONTINUOUS
10
5.40157
20
-3.16339
11
5.40142
21
-3.16414
0
LINE
8
BLACK
6
CONTINUOUS
10
5.40142
20
-3.16414
11
5.401
21
-3.16478
0
LINE
8
BLACK
6
CONTINUOUS
10
5.401
20
-3.16478
11
5.40036
21
-3.1652
0
LINE
8
BLACK
6
CONTINUOUS
10
5.40036
20
-3.1652
11
5.39961
21
-3.16535
0
LINE
8
BLACK
6
CONTINUOUS
10
5.39961
20
-3.16535
11
5.33268
21
-3.16535
0
LINE
8
BLACK
6
CONTINUOUS
10
5.33268
20
-3.16535
11
5.33192
21
-3.1652
0
LINE
8
BLACK
6
CONTINUOUS
10
5.33192
20
-3.1652
11
5.33129
21
-3.16478
0
LINE
8
BLACK
6
CONTINUOUS
10
5.33129
20
-3.16478
11
5.33086
21
-3.16414
0
LINE
8
BLACK
6
CONTINUOUS
10
5.33086
20
-3.16414
11
5.33071
21
-3.16339
0
LINE
8
BLACK
6
CONTINUOUS
10
5.33071
20
-3.16339
11
5.33071
21
-3.09646
0
LINE
8
BLACK
6
CONTINUOUS
10
5.33071
20
-3.09646
11
5.33086
21
-3.0957
0
LINE
8
BLACK
6
CONTINUOUS
10
5.33086
20
-3.0957
11
5.33129
21
-3.09506
0
LINE
8
BLACK
6
CONTINUOUS
10
5.33129
20
-3.09506
11
5.33192
21
-3.09464
0
LINE
8
BLACK
6
CONTINUOUS
10
5.33192
20
-3.09464
11
5.33268
21
-3.09449
0
LINE
8
BLACK
6
CONTINUOUS
10
5.33268
20
-3.09449
11
5.39961
21
-3.09449
0
LINE
8
BLACK
6
CONTINUOUS
10
5.39961
20
-3.09449
11
5.40036
21
-3.09464
0
LINE
8
BLACK
6
CONTINUOUS
10
6.8356
20
-3.06908
11
6.84083
21
-3.07125
0
LINE
8
BLACK
6
CONTINUOUS
10
6.84083
20
-3.07125
11
6.84531
21
-3.07469
0
LINE
8
BLACK
6
CONTINUOUS
10
6.84531
20
-3.07469
11
6.84875
21
-3.07917
0
LINE
8
BLACK
6
CONTINUOUS
10
6.84875
20
-3.07917
11
6.85092
21
-3.0844
0
LINE
8
BLACK
6
CONTINUOUS
10
6.85092
20
-3.0844
11
6.85165
21
-3.09
0
LINE
8
BLACK
6
CONTINUOUS
10
6.85165
20
-3.09
11
6.85092
21
-3.0956
0
LINE
8
BLACK
6
CONTINUOUS
10
6.85092
20
-3.0956
11
6.84875
21
-3.10083
0
LINE
8
BLACK
6
CONTINUOUS
10
6.84875
20
-3.10083
11
6.84531
21
-3.10531
0
LINE
8
BLACK
6
CONTINUOUS
10
6.84531
20
-3.10531
11
6.84083
21
-3.10875
0
LINE
8
BLACK
6
CONTINUOUS
10
6.84083
20
-3.10875
11
6.8356
21
-3.11092
0
LINE
8
BLACK
6
CONTINUOUS
10
6.8356
20
-3.11092
11
6.83
21
-3.11165
0
LINE
8
BLACK
6
CONTINUOUS
10
6.83
20
-3.11165
11
6.8244
21
-3.11092
0
LINE
8
BLACK
6
CONTINUOUS
10
6.8244
20
-3.11092
11
6.81917
21
-3.10875
0
LINE
8
BLACK
6
CONTINUOUS
10
6.81917
20
-3.10875
11
6.81469
21
-3.10531
0
LINE
8
BLACK
6
CONTINUOUS
10
6.81469
20
-3.10531
11
6.81125
21
-3.10083
0
LINE
8
BLACK
6
CONTINUOUS
10
6.81125
20
-3.10083
11
6.80908
21
-3.0956
0
LINE
8
BLACK
6
CONTINUOUS
10
6.80908
20
-3.0956
11
6.80835
21
-3.09
0
LINE
8
BLACK
6
CONTINUOUS
10
6.80835
20
-3.09
11
6.80908
21
-3.0844
0
LINE
8
BLACK
6
CONTINUOUS
10
6.80908
20
-3.0844
11
6.81125
21
-3.07917
0
LINE
8
BLACK
6
CONTINUOUS
10
6.81125
20
-3.07917
11
6.81469
21
-3.07469
0
LINE
8
BLACK
6
CONTINUOUS
10
6.81469
20
-3.07469
11
6.81917
21
-3.07125
0
LINE
8
BLACK
6
CONTINUOUS
10
6.81917
20
-3.07125
11
6.8244
21
-3.06908
0
LINE
8
BLACK
6
CONTINUOUS
10
6.8244
20
-3.06908
11
6.83
21
-3.06835
0
LINE
8
BLACK
6
CONTINUOUS
10
6.83
20
-3.06835
11
6.8356
21
-3.06908
0
LINE
8
BLACK
6
CONTINUOUS
10
7.02725
20
-2.9425
11
7.03812
21
-2.94405
0
LINE
8
BLACK
6
CONTINUOUS
10
7.03812
20
-2.94405
11
7.04868
21
-2.94705
0
LINE
8
BLACK
6
CONTINUOUS
10
7.04868
20
-2.94705
11
7.05873
21
-2.95147
0
LINE
8
BLACK
6
CONTINUOUS
10
7.05873
20
-2.95147
11
7.06809
21
-2.9572
0
LINE
8
BLACK
6
CONTINUOUS
10
7.06809
20
-2.9572
11
7.07659
21
-2.96416
0
LINE
8
BLACK
6
CONTINUOUS
10
7.07659
20
-2.96416
11
7.08406
21
-2.9722
0
LINE
8
BLACK
6
CONTINUOUS
10
7.08406
20
-2.9722
11
7.09037
21
-2.98118
0
LINE
8
BLACK
6
CONTINUOUS
10
7.09037
20
-2.98118
11
7.09541
21
-2.99094
0
LINE
8
BLACK
6
CONTINUOUS
10
7.09541
20
-2.99094
11
7.09907
21
-3.00129
0
LINE
8
BLACK
6
CONTINUOUS
10
7.09907
20
-3.00129
11
7.1013
21
-3.01204
0
LINE
8
BLACK
6
CONTINUOUS
10
7.1013
20
-3.01204
11
7.10205
21
-3.02299
0
LINE
8
BLACK
6
CONTINUOUS
10
7.10205
20
-3.02299
11
7.10203
21
-3.02468
0
LINE
8
BLACK
6
CONTINUOUS
10
7.10203
20
-3.02468
11
7.10105
21
-3.03562
0
LINE
8
BLACK
6
CONTINUOUS
10
7.10105
20
-3.03562
11
7.0986
21
-3.04632
0
LINE
8
BLACK
6
CONTINUOUS
10
7.0986
20
-3.04632
11
7.09472
21
-3.05659
0
LINE
8
BLACK
6
CONTINUOUS
10
7.09472
20
-3.05659
11
7.08948
21
-3.06624
0
LINE
8
BLACK
6
CONTINUOUS
10
7.08948
20
-3.06624
11
7.08298
21
-3.07509
0
LINE
8
BLACK
6
CONTINUOUS
10
7.08298
20
-3.07509
11
7.07534
21
-3.08297
0
LINE
8
BLACK
6
CONTINUOUS
10
7.07534
20
-3.08297
11
7.0667
21
-3.08974
0
LINE
8
BLACK
6
CONTINUOUS
10
7.0667
20
-3.08974
11
7.05722
21
-3.09528
0
LINE
8
BLACK
6
CONTINUOUS
10
7.05722
20
-3.09528
11
7.04708
21
-3.09949
0
LINE
8
BLACK
6
CONTINUOUS
10
7.04708
20
-3.09949
11
7.03646
21
-3.10227
0
LINE
8
BLACK
6
CONTINUOUS
10
7.03646
20
-3.10227
11
7.02556
21
-3.10359
0
LINE
8
BLACK
6
CONTINUOUS
10
7.02556
20
-3.10359
11
7.01459
21
-3.10342
0
LINE
8
BLACK
6
CONTINUOUS
10
7.01459
20
-3.10342
11
7.00373
21
-3.10176
0
LINE
8
BLACK
6
CONTINUOUS
10
7.00373
20
-3.10176
11
6.99321
21
-3.09864
0
LINE
8
BLACK
6
CONTINUOUS
10
6.99321
20
-3.09864
11
6.9832
21
-3.09412
0
LINE
8
BLACK
6
CONTINUOUS
10
6.9832
20
-3.09412
11
6.9739
21
-3.08829
0
LINE
8
BLACK
6
CONTINUOUS
10
6.9739
20
-3.08829
11
6.96548
21
-3.08124
0
LINE
8
BLACK
6
CONTINUOUS
10
6.96548
20
-3.08124
11
6.95809
21
-3.07312
0
LINE
8
BLACK
6
CONTINUOUS
10
6.95809
20
-3.07312
11
6.95187
21
-3.06408
0
LINE
8
BLACK
6
CONTINUOUS
10
6.95187
20
-3.06408
11
6.94694
21
-3.05427
0
LINE
8
BLACK
6
CONTINUOUS
10
6.94694
20
-3.05427
11
6.94338
21
-3.04388
0
LINE
8
BLACK
6
CONTINUOUS
10
6.94338
20
-3.04388
11
6.94127
21
-3.03311
0
LINE
8
BLACK
6
CONTINUOUS
10
6.94127
20
-3.03311
11
6.94063
21
-3.02215
0
LINE
8
BLACK
6
CONTINUOUS
10
6.94063
20
-3.02215
11
6.9415
21
-3.0112
0
LINE
8
BLACK
6
CONTINUOUS
10
6.9415
20
-3.0112
11
6.94383
21
-3.00048
0
LINE
8
BLACK
6
CONTINUOUS
10
6.94383
20
-3.00048
11
6.94761
21
-2.99016
0
LINE
8
BLACK
6
CONTINUOUS
10
6.94761
20
-2.99016
11
6.95274
21
-2.98046
0
LINE
8
BLACK
6
CONTINUOUS
10
6.95274
20
-2.98046
11
6.95915
21
-2.97155
0
LINE
8
BLACK
6
CONTINUOUS
10
6.95915
20
-2.97155
11
6.96671
21
-2.96358
0
LINE
8
BLACK
6
CONTINUOUS
10
6.96671
20
-2.96358
11
6.97528
21
-2.95672
0
LINE
8
BLACK
6
CONTINUOUS
10
6.97528
20
-2.95672
11
6.9847
21
-2.95108
0
LINE
8
BLACK
6
CONTINUOUS
10
6.9847
20
-2.95108
11
6.9948
21
-2.94677
0
LINE
8
BLACK
6
CONTINUOUS
10
6.9948
20
-2.94677
11
7.00539
21
-2.94388
0
LINE
8
BLACK
6
CONTINUOUS
10
7.00539
20
-2.94388
11
7.01627
21
-2.94244
0
LINE
8
BLACK
6
CONTINUOUS
10
7.01627
20
-2.94244
11
7.02725
21
-2.9425
0
LINE
8
BLACK
6
CONTINUOUS
10
5.58422
20
-3.00472
11
5.58486
21
-3.00514
0
LINE
8
BLACK
6
CONTINUOUS
10
5.58486
20
-3.00514
11
5.58528
21
-3.00578
0
LINE
8
BLACK
6
CONTINUOUS
10
5.58528
20
-3.00578
11
5.58543
21
-3.00654
0
LINE
8
BLACK
6
CONTINUOUS
10
5.58543
20
-3.00654
11
5.58543
21
-3.07346
0
LINE
8
BLACK
6
CONTINUOUS
10
5.58543
20
-3.07346
11
5.58528
21
-3.07422
0
LINE
8
BLACK
6
CONTINUOUS
10
5.58528
20
-3.07422
11
5.58486
21
-3.07486
0
LINE
8
BLACK
6
CONTINUOUS
10
5.58486
20
-3.07486
11
5.58422
21
-3.07528
0
LINE
8
BLACK
6
CONTINUOUS
10
5.58422
20
-3.07528
11
5.58346
21
-3.07543
0
LINE
8
BLACK
6
CONTINUOUS
10
5.58346
20
-3.07543
11
5.51654
21
-3.07543
0
LINE
8
BLACK
6
CONTINUOUS
10
5.51654
20
-3.07543
11
5.51578
21
-3.07528
0
LINE
8
BLACK
6
CONTINUOUS
10
5.51578
20
-3.07528
11
5.51514
21
-3.07486
0
LINE
8
BLACK
6
CONTINUOUS
10
5.51514
20
-3.07486
11
5.51472
21
-3.07422
0
LINE
8
BLACK
6
CONTINUOUS
10
5.51472
20
-3.07422
11
5.51457
21
-3.07346
0
LINE
8
BLACK
6
CONTINUOUS
10
5.51457
20
-3.07346
11
5.51457
21
-3.00654
0
LINE
8
BLACK
6
CONTINUOUS
10
5.51457
20
-3.00654
11
5.51472
21
-3.00578
0
LINE
8
BLACK
6
CONTINUOUS
10
5.51472
20
-3.00578
11
5.51514
21
-3.00514
0
LINE
8
BLACK
6
CONTINUOUS
10
5.51514
20
-3.00514
11
5.51578
21
-3.00472
0
LINE
8
BLACK
6
CONTINUOUS
10
5.51578
20
-3.00472
11
5.51654
21
-3.00457
0
LINE
8
BLACK
6
CONTINUOUS
10
5.51654
20
-3.00457
11
5.58346
21
-3.00457
0
LINE
8
BLACK
6
CONTINUOUS
10
5.58346
20
-3.00457
11
5.58422
21
-3.00472
0
LINE
8
BLACK
6
CONTINUOUS
10
5.37709
20
-2.99622
11
5.38386
21
-2.99924
0
LINE
8
BLACK
6
CONTINUOUS
10
5.38386
20
-2.99924
11
5.38985
21
-3.00359
0
LINE
8
BLACK
6
CONTINUOUS
10
5.38985
20
-3.00359
11
5.39481
21
-3.00909
0
LINE
8
BLACK
6
CONTINUOUS
10
5.39481
20
-3.00909
11
5.39851
21
-3.01551
0
LINE
8
BLACK
6
CONTINUOUS
10
5.39851
20
-3.01551
11
5.4008
21
-3.02255
0
LINE
8
BLACK
6
CONTINUOUS
10
5.4008
20
-3.02255
11
5.40157
21
-3.02992
0
LINE
8
BLACK
6
CONTINUOUS
10
5.40157
20
-3.02992
11
5.4008
21
-3.03729
0
LINE
8
BLACK
6
CONTINUOUS
10
5.4008
20
-3.03729
11
5.39851
21
-3.04433
0
LINE
8
BLACK
6
CONTINUOUS
10
5.39851
20
-3.04433
11
5.39481
21
-3.05075
0
LINE
8
BLACK
6
CONTINUOUS
10
5.39481
20
-3.05075
11
5.38985
21
-3.05625
0
LINE
8
BLACK
6
CONTINUOUS
10
5.38985
20
-3.05625
11
5.38386
21
-3.06061
0
LINE
8
BLACK
6
CONTINUOUS
10
5.38386
20
-3.06061
11
5.37709
21
-3.06362
0
LINE
8
BLACK
6
CONTINUOUS
10
5.37709
20
-3.06362
11
5.36985
21
-3.06516
0
LINE
8
BLACK
6
CONTINUOUS
10
5.36985
20
-3.06516
11
5.36244
21
-3.06516
0
LINE
8
BLACK
6
CONTINUOUS
10
5.36244
20
-3.06516
11
5.35519
21
-3.06362
0
LINE
8
BLACK
6
CONTINUOUS
10
5.35519
20
-3.06362
11
5.34843
21
-3.06061
0
LINE
8
BLACK
6
CONTINUOUS
10
5.34843
20
-3.06061
11
5.34243
21
-3.05625
0
LINE
8
BLACK
6
CONTINUOUS
10
5.34243
20
-3.05625
11
5.33748
21
-3.05075
0
LINE
8
BLACK
6
CONTINUOUS
10
5.33748
20
-3.05075
11
5.33377
21
-3.04433
0
LINE
8
BLACK
6
CONTINUOUS
10
5.33377
20
-3.04433
11
5.33148
21
-3.03729
0
LINE
8
BLACK
6
CONTINUOUS
10
5.33148
20
-3.03729
11
5.33071
21
-3.02992
0
LINE
8
BLACK
6
CONTINUOUS
10
5.33071
20
-3.02992
11
5.33148
21
-3.02255
0
LINE
8
BLACK
6
CONTINUOUS
10
5.33148
20
-3.02255
11
5.33377
21
-3.01551
0
LINE
8
BLACK
6
CONTINUOUS
10
5.33377
20
-3.01551
11
5.33748
21
-3.00909
0
LINE
8
BLACK
6
CONTINUOUS
10
5.33748
20
-3.00909
11
5.34243
21
-3.00359
0
LINE
8
BLACK
6
CONTINUOUS
10
5.34243
20
-3.00359
11
5.34843
21
-2.99924
0
LINE
8
BLACK
6
CONTINUOUS
10
5.34843
20
-2.99924
11
5.35519
21
-2.99622
0
LINE
8
BLACK
6
CONTINUOUS
10
5.35519
20
-2.99622
11
5.36244
21
-2.99468
0
LINE
8
BLACK
6
CONTINUOUS
10
5.36244
20
-2.99468
11
5.36985
21
-2.99468
0
LINE
8
BLACK
6
CONTINUOUS
10
5.36985
20
-2.99468
11
5.37709
21
-2.99622
0
LINE
8
BLACK
6
CONTINUOUS
10
5.37709
20
-2.89622
11
5.38386
21
-2.89924
0
LINE
8
BLACK
6
CONTINUOUS
10
5.38386
20
-2.89924
11
5.38985
21
-2.90359
0
LINE
8
BLACK
6
CONTINUOUS
10
5.38985
20
-2.90359
11
5.39481
21
-2.90909
0
LINE
8
BLACK
6
CONTINUOUS
10
5.39481
20
-2.90909
11
5.39851
21
-2.91551
0
LINE
8
BLACK
6
CONTINUOUS
10
5.39851
20
-2.91551
11
5.4008
21
-2.92255
0
LINE
8
BLACK
6
CONTINUOUS
10
5.4008
20
-2.92255
11
5.40157
21
-2.92992
0
LINE
8
BLACK
6
CONTINUOUS
10
5.40157
20
-2.92992
11
5.4008
21
-2.93729
0
LINE
8
BLACK
6
CONTINUOUS
10
5.4008
20
-2.93729
11
5.39851
21
-2.94433
0
LINE
8
BLACK
6
CONTINUOUS
10
5.39851
20
-2.94433
11
5.39481
21
-2.95075
0
LINE
8
BLACK
6
CONTINUOUS
10
5.39481
20
-2.95075
11
5.38985
21
-2.95625
0
LINE
8
BLACK
6
CONTINUOUS
10
5.38985
20
-2.95625
11
5.38386
21
-2.96061
0
LINE
8
BLACK
6
CONTINUOUS
10
5.38386
20
-2.96061
11
5.37709
21
-2.96362
0
LINE
8
BLACK
6
CONTINUOUS
10
5.37709
20
-2.96362
11
5.36985
21
-2.96516
0
LINE
8
BLACK
6
CONTINUOUS
10
5.36985
20
-2.96516
11
5.36244
21
-2.96516
0
LINE
8
BLACK
6
CONTINUOUS
10
5.36244
20
-2.96516
11
5.35519
21
-2.96362
0
LINE
8
BLACK
6
CONTINUOUS
10
5.35519
20
-2.96362
11
5.34843
21
-2.96061
0
LINE
8
BLACK
6
CONTINUOUS
10
5.34843
20
-2.96061
11
5.34243
21
-2.95625
0
LINE
8
BLACK
6
CONTINUOUS
10
5.34243
20
-2.95625
11
5.33748
21
-2.95075
0
LINE
8
BLACK
6
CONTINUOUS
10
5.33748
20
-2.95075
11
5.33377
21
-2.94433
0
LINE
8
BLACK
6
CONTINUOUS
10
5.33377
20
-2.94433
11
5.33148
21
-2.93729
0
LINE
8
BLACK
6
CONTINUOUS
10
5.33148
20
-2.93729
11
5.33071
21
-2.92992
0
LINE
8
BLACK
6
CONTINUOUS
10
5.33071
20
-2.92992
11
5.33148
21
-2.92255
0
LINE
8
BLACK
6
CONTINUOUS
10
5.33148
20
-2.92255
11
5.33377
21
-2.91551
0
LINE
8
BLACK
6
CONTINUOUS
10
5.33377
20
-2.91551
11
5.33748
21
-2.90909
0
LINE
8
BLACK
6
CONTINUOUS
10
5.33748
20
-2.90909
11
5.34243
21
-2.90359
0
LINE
8
BLACK
6
CONTINUOUS
10
5.34243
20
-2.90359
11
5.34843
21
-2.89924
0
LINE
8
BLACK
6
CONTINUOUS
10
5.34843
20
-2.89924
11
5.35519
21
-2.89622
0
LINE
8
BLACK
6
CONTINUOUS
10
5.35519
20
-2.89622
11
5.36244
21
-2.89468
0
LINE
8
BLACK
6
CONTINUOUS
10
5.36244
20
-2.89468
11
5.36985
21
-2.89468
0
LINE
8
BLACK
6
CONTINUOUS
10
5.36985
20
-2.89468
11
5.37709
21
-2.89622
0
LINE
8
BLACK
6
CONTINUOUS
10
5.37709
20
-2.79622
11
5.38386
21
-2.79924
0
LINE
8
BLACK
6
CONTINUOUS
10
5.38386
20
-2.79924
11
5.38985
21
-2.80359
0
LINE
8
BLACK
6
CONTINUOUS
10
5.38985
20
-2.80359
11
5.39481
21
-2.80909
0
LINE
8
BLACK
6
CONTINUOUS
10
5.39481
20
-2.80909
11
5.39851
21
-2.81551
0
LINE
8
BLACK
6
CONTINUOUS
10
5.39851
20
-2.81551
11
5.4008
21
-2.82255
0
LINE
8
BLACK
6
CONTINUOUS
10
5.4008
20
-2.82255
11
5.40157
21
-2.82992
0
LINE
8
BLACK
6
CONTINUOUS
10
5.40157
20
-2.82992
11
5.4008
21
-2.83729
0
LINE
8
BLACK
6
CONTINUOUS
10
5.4008
20
-2.83729
11
5.39851
21
-2.84433
0
LINE
8
BLACK
6
CONTINUOUS
10
5.39851
20
-2.84433
11
5.39481
21
-2.85075
0
LINE
8
BLACK
6
CONTINUOUS
10
5.39481
20
-2.85075
11
5.38985
21
-2.85625
0
LINE
8
BLACK
6
CONTINUOUS
10
5.38985
20
-2.85625
11
5.38386
21
-2.86061
0
LINE
8
BLACK
6
CONTINUOUS
10
5.38386
20
-2.86061
11
5.37709
21
-2.86362
0
LINE
8
BLACK
6
CONTINUOUS
10
5.37709
20
-2.86362
11
5.36985
21
-2.86516
0
LINE
8
BLACK
6
CONTINUOUS
10
5.36985
20
-2.86516
11
5.36244
21
-2.86516
0
LINE
8
BLACK
6
CONTINUOUS
10
5.36244
20
-2.86516
11
5.35519
21
-2.86362
0
LINE
8
BLACK
6
CONTINUOUS
10
5.35519
20
-2.86362
11
5.34843
21
-2.86061
0
LINE
8
BLACK
6
CONTINUOUS
10
5.34843
20
-2.86061
11
5.34243
21
-2.85625
0
LINE
8
BLACK
6
CONTINUOUS
10
5.34243
20
-2.85625
11
5.33748
21
-2.85075
0
LINE
8
BLACK
6
CONTINUOUS
10
5.33748
20
-2.85075
11
5.33377
21
-2.84433
0
LINE
8
BLACK
6
CONTINUOUS
10
5.33377
20
-2.84433
11
5.33148
21
-2.83729
0
LINE
8
BLACK
6
CONTINUOUS
10
5.33148
20
-2.83729
11
5.33071
21
-2.82992
0
LINE
8
BLACK
6
CONTINUOUS
10
5.33071
20
-2.82992
11
5.33148
21
-2.82255
0
LINE
8
BLACK
6
CONTINUOUS
10
5.33148
20
-2.82255
11
5.33377
21
-2.81551
0
LINE
8
BLACK
6
CONTINUOUS
10
5.33377
20
-2.81551
11
5.33748
21
-2.80909
0
LINE
8
BLACK
6
CONTINUOUS
10
5.33748
20
-2.80909
11
5.34243
21
-2.80359
0
LINE
8
BLACK
6
CONTINUOUS
10
5.34243
20
-2.80359
11
5.34843
21
-2.79924
0
LINE
8
BLACK
6
CONTINUOUS
10
5.34843
20
-2.79924
11
5.35519
21
-2.79622
0
LINE
8
BLACK
6
CONTINUOUS
10
5.35519
20
-2.79622
11
5.36244
21
-2.79468
0
LINE
8
BLACK
6
CONTINUOUS
10
5.36244
20
-2.79468
11
5.36985
21
-2.79468
0
LINE
8
BLACK
6
CONTINUOUS
10
5.36985
20
-2.79468
11
5.37709
21
-2.79622
0
LINE
8
BLACK
6
CONTINUOUS
10
4.84771
20
-2.68135
11
4.8566
21
-2.68293
0
LINE
8
BLACK
6
CONTINUOUS
10
4.8566
20
-2.68293
11
4.86511
21
-2.68595
0
LINE
8
BLACK
6
CONTINUOUS
10
4.86511
20
-2.68595
11
4.87302
21
-2.69031
0
LINE
8
BLACK
6
CONTINUOUS
10
4.87302
20
-2.69031
11
4.88011
21
-2.69591
0
LINE
8
BLACK
6
CONTINUOUS
10
4.88011
20
-2.69591
11
4.88619
21
-2.70259
0
LINE
8
BLACK
6
CONTINUOUS
10
4.88619
20
-2.70259
11
4.8911
21
-2.71017
0
LINE
8
BLACK
6
CONTINUOUS
10
4.8911
20
-2.71017
11
4.8947
21
-2.71846
0
LINE
8
BLACK
6
CONTINUOUS
10
4.8947
20
-2.71846
11
4.8969
21
-2.72722
0
LINE
8
BLACK
6
CONTINUOUS
10
4.8969
20
-2.72722
11
4.89764
21
-2.73622
0
LINE
8
BLACK
6
CONTINUOUS
10
4.89764
20
-2.73622
11
4.89757
21
-2.73891
0
LINE
8
BLACK
6
CONTINUOUS
10
4.89757
20
-2.73891
11
4.89639
21
-2.74787
0
LINE
8
BLACK
6
CONTINUOUS
10
4.89639
20
-2.74787
11
4.89377
21
-2.75651
0
LINE
8
BLACK
6
CONTINUOUS
10
4.89377
20
-2.75651
11
4.88977
21
-2.76461
0
LINE
8
BLACK
6
CONTINUOUS
10
4.88977
20
-2.76461
11
4.88449
21
-2.77194
0
LINE
8
BLACK
6
CONTINUOUS
10
4.88449
20
-2.77194
11
4.8781
21
-2.77832
0
LINE
8
BLACK
6
CONTINUOUS
10
4.8781
20
-2.77832
11
4.87074
21
-2.78356
0
LINE
8
BLACK
6
CONTINUOUS
10
4.87074
20
-2.78356
11
4.86263
21
-2.78754
0
LINE
8
BLACK
6
CONTINUOUS
10
4.86263
20
-2.78754
11
4.85398
21
-2.79013
0
LINE
8
BLACK
6
CONTINUOUS
10
4.85398
20
-2.79013
11
4.84502
21
-2.79128
0
LINE
8
BLACK
6
CONTINUOUS
10
4.84502
20
-2.79128
11
4.83599
21
-2.79095
0
LINE
8
BLACK
6
CONTINUOUS
10
4.83599
20
-2.79095
11
4.82714
21
-2.78915
0
LINE
8
BLACK
6
CONTINUOUS
10
4.82714
20
-2.78915
11
4.8187
21
-2.78593
0
LINE
8
BLACK
6
CONTINUOUS
10
4.8187
20
-2.78593
11
4.81091
21
-2.78137
0
LINE
8
BLACK
6
CONTINUOUS
10
4.81091
20
-2.78137
11
4.80396
21
-2.7756
0
LINE
8
BLACK
6
CONTINUOUS
10
4.80396
20
-2.7756
11
4.79804
21
-2.76877
0
LINE
8
BLACK
6
CONTINUOUS
10
4.79804
20
-2.76877
11
4.79332
21
-2.76107
0
LINE
8
BLACK
6
CONTINUOUS
10
4.79332
20
-2.76107
11
4.78992
21
-2.7527
0
LINE
8
BLACK
6
CONTINUOUS
10
4.78992
20
-2.7527
11
4.78794
21
-2.74389
0
LINE
8
BLACK
6
CONTINUOUS
10
4.78794
20
-2.74389
11
4.78742
21
-2.73487
0
LINE
8
BLACK
6
CONTINUOUS
10
4.78742
20
-2.73487
11
4.78838
21
-2.72589
0
LINE
8
BLACK
6
CONTINUOUS
10
4.78838
20
-2.72589
11
4.79079
21
-2.71719
0
LINE
8
BLACK
6
CONTINUOUS
10
4.79079
20
-2.71719
11
4.79459
21
-2.709
0
LINE
8
BLACK
6
CONTINUOUS
10
4.79459
20
-2.709
11
4.79968
21
-2.70153
0
LINE
8
BLACK
6
CONTINUOUS
10
4.79968
20
-2.70153
11
4.80593
21
-2.695
0
LINE
8
BLACK
6
CONTINUOUS
10
4.80593
20
-2.695
11
4.81315
21
-2.68958
0
LINE
8
BLACK
6
CONTINUOUS
10
4.81315
20
-2.68958
11
4.82116
21
-2.68541
0
LINE
8
BLACK
6
CONTINUOUS
10
4.82116
20
-2.68541
11
4.82975
21
-2.6826
0
LINE
8
BLACK
6
CONTINUOUS
10
4.82975
20
-2.6826
11
4.83867
21
-2.68124
0
LINE
8
BLACK
6
CONTINUOUS
10
4.83867
20
-2.68124
11
4.84771
21
-2.68135
0
LINE
8
BLACK
6
CONTINUOUS
10
6.97369
20
-2.68135
11
6.98258
21
-2.68293
0
LINE
8
BLACK
6
CONTINUOUS
10
6.98258
20
-2.68293
11
6.9911
21
-2.68595
0
LINE
8
BLACK
6
CONTINUOUS
10
6.9911
20
-2.68595
11
6.99901
21
-2.69031
0
LINE
8
BLACK
6
CONTINUOUS
10
6.99901
20
-2.69031
11
7.00609
21
-2.69591
0
LINE
8
BLACK
6
CONTINUOUS
10
7.00609
20
-2.69591
11
7.01217
21
-2.70259
0
LINE
8
BLACK
6
CONTINUOUS
10
7.01217
20
-2.70259
11
7.01708
21
-2.71017
0
LINE
8
BLACK
6
CONTINUOUS
10
7.01708
20
-2.71017
11
7.02068
21
-2.71846
0
LINE
8
BLACK
6
CONTINUOUS
10
7.02068
20
-2.71846
11
7.02288
21
-2.72722
0
LINE
8
BLACK
6
CONTINUOUS
10
7.02288
20
-2.72722
11
7.02362
21
-2.73622
0
LINE
8
BLACK
6
CONTINUOUS
10
7.02362
20
-2.73622
11
7.02356
21
-2.73891
0
LINE
8
BLACK
6
CONTINUOUS
10
7.02356
20
-2.73891
11
7.02238
21
-2.74787
0
LINE
8
BLACK
6
CONTINUOUS
10
7.02238
20
-2.74787
11
7.01975
21
-2.75651
0
LINE
8
BLACK
6
CONTINUOUS
10
7.01975
20
-2.75651
11
7.01575
21
-2.76461
0
LINE
8
BLACK
6
CONTINUOUS
10
7.01575
20
-2.76461
11
7.01048
21
-2.77194
0
LINE
8
BLACK
6
CONTINUOUS
10
7.01048
20
-2.77194
11
7.00408
21
-2.77832
0
LINE
8
BLACK
6
CONTINUOUS
10
7.00408
20
-2.77832
11
6.99673
21
-2.78356
0
LINE
8
BLACK
6
CONTINUOUS
10
6.99673
20
-2.78356
11
6.98862
21
-2.78754
0
LINE
8
BLACK
6
CONTINUOUS
10
6.98862
20
-2.78754
11
6.97996
21
-2.79013
0
LINE
8
BLACK
6
CONTINUOUS
10
6.97996
20
-2.79013
11
6.971
21
-2.79128
0
LINE
8
BLACK
6
CONTINUOUS
10
6.971
20
-2.79128
11
6.96198
21
-2.79095
0
LINE
8
BLACK
6
CONTINUOUS
10
6.96198
20
-2.79095
11
6.95313
21
-2.78915
0
LINE
8
BLACK
6
CONTINUOUS
10
6.95313
20
-2.78915
11
6.94469
21
-2.78593
0
LINE
8
BLACK
6
CONTINUOUS
10
6.94469
20
-2.78593
11
6.93689
21
-2.78137
0
LINE
8
BLACK
6
CONTINUOUS
10
6.93689
20
-2.78137
11
6.92994
21
-2.7756
0
LINE
8
BLACK
6
CONTINUOUS
10
6.92994
20
-2.7756
11
6.92403
21
-2.76877
0
LINE
8
BLACK
6
CONTINUOUS
10
6.92403
20
-2.76877
11
6.91931
21
-2.76107
0
LINE
8
BLACK
6
CONTINUOUS
10
6.91931
20
-2.76107
11
6.91591
21
-2.7527
0
LINE
8
BLACK
6
CONTINUOUS
10
6.91591
20
-2.7527
11
6.91392
21
-2.74389
0
LINE
8
BLACK
6
CONTINUOUS
10
6.91392
20
-2.74389
11
6.9134
21
-2.73487
0
LINE
8
BLACK
6
CONTINUOUS
10
6.9134
20
-2.73487
11
6.91436
21
-2.72589
0
LINE
8
BLACK
6
CONTINUOUS
10
6.91436
20
-2.72589
11
6.91678
21
-2.71719
0
LINE
8
BLACK
6
CONTINUOUS
10
6.91678
20
-2.71719
11
6.92058
21
-2.709
0
LINE
8
BLACK
6
CONTINUOUS
10
6.92058
20
-2.709
11
6.92567
21
-2.70153
0
LINE
8
BLACK
6
CONTINUOUS
10
6.92567
20
-2.70153
11
6.93191
21
-2.695
0
LINE
8
BLACK
6
CONTINUOUS
10
6.93191
20
-2.695
11
6.93913
21
-2.68958
0
LINE
8
BLACK
6
CONTINUOUS
10
6.93913
20
-2.68958
11
6.94714
21
-2.68541
0
LINE
8
BLACK
6
CONTINUOUS
10
6.94714
20
-2.68541
11
6.95573
21
-2.6826
0
LINE
8
BLACK
6
CONTINUOUS
10
6.95573
20
-2.6826
11
6.96466
21
-2.68124
0
LINE
8
BLACK
6
CONTINUOUS
10
6.96466
20
-2.68124
11
6.97369
21
-2.68135
0
LINE
8
BLACK
6
CONTINUOUS
10
6.4736
20
-2.73708
11
6.47883
21
-2.73925
0
LINE
8
BLACK
6
CONTINUOUS
10
6.47883
20
-2.73925
11
6.48331
21
-2.74269
0
LINE
8
BLACK
6
CONTINUOUS
10
6.48331
20
-2.74269
11
6.48675
21
-2.74717
0
LINE
8
BLACK
6
CONTINUOUS
10
6.48675
20
-2.74717
11
6.48892
21
-2.7524
0
LINE
8
BLACK
6
CONTINUOUS
10
6.48892
20
-2.7524
11
6.48965
21
-2.758
0
LINE
8
BLACK
6
CONTINUOUS
10
6.48965
20
-2.758
11
6.48892
21
-2.7636
0
LINE
8
BLACK
6
CONTINUOUS
10
6.48892
20
-2.7636
11
6.48675
21
-2.76883
0
LINE
8
BLACK
6
CONTINUOUS
10
6.48675
20
-2.76883
11
6.48331
21
-2.77331
0
LINE
8
BLACK
6
CONTINUOUS
10
6.48331
20
-2.77331
11
6.47883
21
-2.77675
0
LINE
8
BLACK
6
CONTINUOUS
10
6.47883
20
-2.77675
11
6.4736
21
-2.77892
0
LINE
8
BLACK
6
CONTINUOUS
10
6.4736
20
-2.77892
11
6.468
21
-2.77965
0
LINE
8
BLACK
6
CONTINUOUS
10
6.468
20
-2.77965
11
6.4624
21
-2.77892
0
LINE
8
BLACK
6
CONTINUOUS
10
6.4624
20
-2.77892
11
6.45717
21
-2.77675
0
LINE
8
BLACK
6
CONTINUOUS
10
6.45717
20
-2.77675
11
6.45269
21
-2.77331
0
LINE
8
BLACK
6
CONTINUOUS
10
6.45269
20
-2.77331
11
6.44925
21
-2.76883
0
LINE
8
BLACK
6
CONTINUOUS
10
6.44925
20
-2.76883
11
6.44708
21
-2.7636
0
LINE
8
BLACK
6
CONTINUOUS
10
6.44708
20
-2.7636
11
6.44635
21
-2.758
0
LINE
8
BLACK
6
CONTINUOUS
10
6.44635
20
-2.758
11
6.44708
21
-2.7524
0
LINE
8
BLACK
6
CONTINUOUS
10
6.44708
20
-2.7524
11
6.44925
21
-2.74717
0
LINE
8
BLACK
6
CONTINUOUS
10
6.44925
20
-2.74717
11
6.45269
21
-2.74269
0
LINE
8
BLACK
6
CONTINUOUS
10
6.45269
20
-2.74269
11
6.45717
21
-2.73925
0
LINE
8
BLACK
6
CONTINUOUS
10
6.45717
20
-2.73925
11
6.4624
21
-2.73708
0
LINE
8
BLACK
6
CONTINUOUS
10
6.4624
20
-2.73708
11
6.468
21
-2.73635
0
LINE
8
BLACK
6
CONTINUOUS
10
6.468
20
-2.73635
11
6.4736
21
-2.73708
0
LINE
8
BLACK
6
CONTINUOUS
10
6.0486
20
-2.73608
11
6.05383
21
-2.73825
0
LINE
8
BLACK
6
CONTINUOUS
10
6.05383
20
-2.73825
11
6.05831
21
-2.74169
0
LINE
8
BLACK
6
CONTINUOUS
10
6.05831
20
-2.74169
11
6.06175
21
-2.74617
0
LINE
8
BLACK
6
CONTINUOUS
10
6.06175
20
-2.74617
11
6.06392
21
-2.7514
0
LINE
8
BLACK
6
CONTINUOUS
10
6.06392
20
-2.7514
11
6.06465
21
-2.757
0
LINE
8
BLACK
6
CONTINUOUS
10
6.06465
20
-2.757
11
6.06392
21
-2.7626
0
LINE
8
BLACK
6
CONTINUOUS
10
6.06392
20
-2.7626
11
6.06175
21
-2.76783
0
LINE
8
BLACK
6
CONTINUOUS
10
6.06175
20
-2.76783
11
6.05831
21
-2.77231
0
LINE
8
BLACK
6
CONTINUOUS
10
6.05831
20
-2.77231
11
6.05383
21
-2.77575
0
LINE
8
BLACK
6
CONTINUOUS
10
6.05383
20
-2.77575
11
6.0486
21
-2.77792
0
LINE
8
BLACK
6
CONTINUOUS
10
6.0486
20
-2.77792
11
6.043
21
-2.77865
0
LINE
8
BLACK
6
CONTINUOUS
10
6.043
20
-2.77865
11
6.0374
21
-2.77792
0
LINE
8
BLACK
6
CONTINUOUS
10
6.0374
20
-2.77792
11
6.03217
21
-2.77575
0
LINE
8
BLACK
6
CONTINUOUS
10
6.03217
20
-2.77575
11
6.02769
21
-2.77231
0
LINE
8
BLACK
6
CONTINUOUS
10
6.02769
20
-2.77231
11
6.02425
21
-2.76783
0
LINE
8
BLACK
6
CONTINUOUS
10
6.02425
20
-2.76783
11
6.02208
21
-2.7626
0
LINE
8
BLACK
6
CONTINUOUS
10
6.02208
20
-2.7626
11
6.02135
21
-2.757
0
LINE
8
BLACK
6
CONTINUOUS
10
6.02135
20
-2.757
11
6.02208
21
-2.7514
0
LINE
8
BLACK
6
CONTINUOUS
10
6.02208
20
-2.7514
11
6.02425
21
-2.74617
0
LINE
8
BLACK
6
CONTINUOUS
10
6.02425
20
-2.74617
11
6.02769
21
-2.74169
0
LINE
8
BLACK
6
CONTINUOUS
10
6.02769
20
-2.74169
11
6.03217
21
-2.73825
0
LINE
8
BLACK
6
CONTINUOUS
10
6.03217
20
-2.73825
11
6.0374
21
-2.73608
0
LINE
8
BLACK
6
CONTINUOUS
10
6.0374
20
-2.73608
11
6.043
21
-2.73535
0
LINE
8
BLACK
6
CONTINUOUS
10
6.043
20
-2.73535
11
6.0486
21
-2.73608
0
LINE
8
BLACK
6
CONTINUOUS
10
5.37709
20
-2.69622
11
5.38386
21
-2.69924
0
LINE
8
BLACK
6
CONTINUOUS
10
5.38386
20
-2.69924
11
5.38985
21
-2.70359
0
LINE
8
BLACK
6
CONTINUOUS
10
5.38985
20
-2.70359
11
5.39481
21
-2.70909
0
LINE
8
BLACK
6
CONTINUOUS
10
5.39481
20
-2.70909
11
5.39851
21
-2.71551
0
LINE
8
BLACK
6
CONTINUOUS
10
5.39851
20
-2.71551
11
5.4008
21
-2.72255
0
LINE
8
BLACK
6
CONTINUOUS
10
5.4008
20
-2.72255
11
5.40157
21
-2.72992
0
LINE
8
BLACK
6
CONTINUOUS
10
5.40157
20
-2.72992
11
5.4008
21
-2.73729
0
LINE
8
BLACK
6
CONTINUOUS
10
5.4008
20
-2.73729
11
5.39851
21
-2.74433
0
LINE
8
BLACK
6
CONTINUOUS
10
5.39851
20
-2.74433
11
5.39481
21
-2.75075
0
LINE
8
BLACK
6
CONTINUOUS
10
5.39481
20
-2.75075
11
5.38985
21
-2.75625
0
LINE
8
BLACK
6
CONTINUOUS
10
5.38985
20
-2.75625
11
5.38386
21
-2.76061
0
LINE
8
BLACK
6
CONTINUOUS
10
5.38386
20
-2.76061
11
5.37709
21
-2.76362
0
LINE
8
BLACK
6
CONTINUOUS
10
5.37709
20
-2.76362
11
5.36985
21
-2.76516
0
LINE
8
BLACK
6
CONTINUOUS
10
5.36985
20
-2.76516
11
5.36244
21
-2.76516
0
LINE
8
BLACK
6
CONTINUOUS
10
5.36244
20
-2.76516
11
5.35519
21
-2.76362
0
LINE
8
BLACK
6
CONTINUOUS
10
5.35519
20
-2.76362
11
5.34843
21
-2.76061
0
LINE
8
BLACK
6
CONTINUOUS
10
5.34843
20
-2.76061
11
5.34243
21
-2.75625
0
LINE
8
BLACK
6
CONTINUOUS
10
5.34243
20
-2.75625
11
5.33748
21
-2.75075
0
LINE
8
BLACK
6
CONTINUOUS
10
5.33748
20
-2.75075
11
5.33377
21
-2.74433
0
LINE
8
BLACK
6
CONTINUOUS
10
5.33377
20
-2.74433
11
5.33148
21
-2.73729
0
LINE
8
BLACK
6
CONTINUOUS
10
5.33148
20
-2.73729
11
5.33071
21
-2.72992
0
LINE
8
BLACK
6
CONTINUOUS
10
5.33071
20
-2.72992
11
5.33148
21
-2.72255
0
LINE
8
BLACK
6
CONTINUOUS
10
5.33148
20
-2.72255
11
5.33377
21
-2.71551
0
LINE
8
BLACK
6
CONTINUOUS
10
5.33377
20
-2.71551
11
5.33748
21
-2.70909
0
LINE
8
BLACK
6
CONTINUOUS
10
5.33748
20
-2.70909
11
5.34243
21
-2.70359
0
LINE
8
BLACK
6
CONTINUOUS
10
5.34243
20
-2.70359
11
5.34843
21
-2.69924
0
LINE
8
BLACK
6
CONTINUOUS
10
5.34843
20
-2.69924
11
5.35519
21
-2.69622
0
LINE
8
BLACK
6
CONTINUOUS
10
5.35519
20
-2.69622
11
5.36244
21
-2.69468
0
LINE
8
BLACK
6
CONTINUOUS
10
5.36244
20
-2.69468
11
5.36985
21
-2.69468
0
LINE
8
BLACK
6
CONTINUOUS
10
5.36985
20
-2.69468
11
5.37709
21
-2.69622
  0
ENDSEC
  0
EOF
