  0
SECTION
  2
HEADER
  9
$ANGBASE
  50
0.0
  9
$ANGDIR
  70
1
  9
$MEASUREMENT
  70
0
  0
ENDSEC
  0
SECTION
  2
TABLES
  0
TABLE
  2
LTYPE
  70
4
  0
LTYPE
  5
40F
  2
CONTINUOUS
  70
0
  3
Solid line
  72
65
  73
0
  40
0.0
  0
LTYPE
  5
410
  2
DASHDOT
 70
0
  3
Dash Dot ____ _ ____ _
 72
65
 73
4
 40
2.0
 49
1.25
 49
-0.25
 49
0.25
 49
-0.25
  0
LTYPE
  5
411
  2
DASHED
 70
0
  3
Dashed __ __ __ __ __
 72
65
 73
2
 40
0.75
 49
0.5
 49
-0.25
  0
LTYPE
  5
43B
  2
DOTTED
 70
0
  3
Dotted .  .  .  .
 72
65
 73
2
 40
0.2
 49
0.0
 49
-0.2
  0
ENDTAB
  0
TABLE
  2
STYLE
  70
4
  0
STYLE
  2
KICAD
  70
0
  40
0
  41
1
  42
1
  50
0
  71
0
  3
isocp.shx
  0
STYLE
  2
KICADB
  70
0
  40
0
  41
1
  42
1
  50
0
  71
0
  3
isocp.shx
  0
STYLE
  2
KICADI
  70
0
  40
0
  41
1
  42
1
  50
15
  71
0
  3
isocp.shx
  0
STYLE
  2
KICADBI
  70
0
  40
0
  41
1
  42
1
  50
15
  71
0
  3
isocp.shx
  0
ENDTAB
  0
TABLE
  2
LAYER
  70
1
  0
LAYER
  2
BLACK
  70
0
  62
7
  6
CONTINUOUS
  0
ENDTAB
  0
ENDSEC
  0
SECTION
  2
ENTITIES
0
LINE
8
BLACK
6
CONTINUOUS
10
6.10053
20
-3.32161
11
6.10291
21
-3.3141
0
LINE
8
BLACK
6
CONTINUOUS
10
6.10291
20
-3.3141
11
6.1067
21
-3.3072
0
LINE
8
BLACK
6
CONTINUOUS
10
6.1067
20
-3.3072
11
6.11177
21
-3.30117
0
LINE
8
BLACK
6
CONTINUOUS
10
6.11177
20
-3.30117
11
6.1179
21
-3.29623
0
LINE
8
BLACK
6
CONTINUOUS
10
6.1179
20
-3.29623
11
6.12488
21
-3.29258
0
LINE
8
BLACK
6
CONTINUOUS
10
6.12488
20
-3.29258
11
6.13244
21
-3.29036
0
LINE
8
BLACK
6
CONTINUOUS
10
6.13244
20
-3.29036
11
6.14028
21
-3.28965
0
LINE
8
BLACK
6
CONTINUOUS
10
6.14028
20
-3.28965
11
6.14811
21
-3.29047
0
LINE
8
BLACK
6
CONTINUOUS
10
6.14811
20
-3.29047
11
6.15564
21
-3.2928
0
LINE
8
BLACK
6
CONTINUOUS
10
6.15564
20
-3.2928
11
6.16257
21
-3.29654
0
LINE
8
BLACK
6
CONTINUOUS
10
6.16257
20
-3.29654
11
6.16863
21
-3.30156
0
LINE
8
BLACK
6
CONTINUOUS
10
6.16863
20
-3.30156
11
6.17361
21
-3.30767
0
LINE
8
BLACK
6
CONTINUOUS
10
6.17361
20
-3.30767
11
6.17731
21
-3.31462
0
LINE
8
BLACK
6
CONTINUOUS
10
6.17731
20
-3.31462
11
6.17959
21
-3.32216
0
LINE
8
BLACK
6
CONTINUOUS
10
6.17959
20
-3.32216
11
6.18035
21
-3.33
0
LINE
8
BLACK
6
CONTINUOUS
10
6.18035
20
-3.33
11
6.18034
21
-3.33113
0
LINE
8
BLACK
6
CONTINUOUS
10
6.18034
20
-3.33113
11
6.17935
21
-3.33894
0
LINE
8
BLACK
6
CONTINUOUS
10
6.17935
20
-3.33894
11
6.17687
21
-3.34641
0
LINE
8
BLACK
6
CONTINUOUS
10
6.17687
20
-3.34641
11
6.17298
21
-3.35326
0
LINE
8
BLACK
6
CONTINUOUS
10
6.17298
20
-3.35326
11
6.16783
21
-3.35922
0
LINE
8
BLACK
6
CONTINUOUS
10
6.16783
20
-3.35922
11
6.16162
21
-3.36407
0
LINE
8
BLACK
6
CONTINUOUS
10
6.16162
20
-3.36407
11
6.15459
21
-3.36762
0
LINE
8
BLACK
6
CONTINUOUS
10
6.15459
20
-3.36762
11
6.14701
21
-3.36974
0
LINE
8
BLACK
6
CONTINUOUS
10
6.14701
20
-3.36974
11
6.13915
21
-3.37035
0
LINE
8
BLACK
6
CONTINUOUS
10
6.13915
20
-3.37035
11
6.13133
21
-3.36941
0
LINE
8
BLACK
6
CONTINUOUS
10
6.13133
20
-3.36941
11
6.12384
21
-3.36698
0
LINE
8
BLACK
6
CONTINUOUS
10
6.12384
20
-3.36698
11
6.11697
21
-3.36314
0
LINE
8
BLACK
6
CONTINUOUS
10
6.11697
20
-3.36314
11
6.11097
21
-3.35803
0
LINE
8
BLACK
6
CONTINUOUS
10
6.11097
20
-3.35803
11
6.10608
21
-3.35186
0
LINE
8
BLACK
6
CONTINUOUS
10
6.10608
20
-3.35186
11
6.10248
21
-3.34486
0
LINE
8
BLACK
6
CONTINUOUS
10
6.10248
20
-3.34486
11
6.10031
21
-3.33728
0
LINE
8
BLACK
6
CONTINUOUS
10
6.10031
20
-3.33728
11
6.09965
21
-3.32946
0
LINE
8
BLACK
6
CONTINUOUS
10
6.09965
20
-3.32946
11
6.09965
21
-3.32944
0
LINE
8
BLACK
6
CONTINUOUS
10
6.09965
20
-3.32944
11
6.10053
21
-3.32161
0
LINE
8
BLACK
6
CONTINUOUS
10
6.10414
20
-3.3442
11
6.10758
21
-3.35089
0
LINE
8
BLACK
6
CONTINUOUS
10
6.10758
20
-3.35089
11
6.11225
21
-3.35679
0
LINE
8
BLACK
6
CONTINUOUS
10
6.11225
20
-3.35679
11
6.11799
21
-3.36167
0
LINE
8
BLACK
6
CONTINUOUS
10
6.11799
20
-3.36167
11
6.12456
21
-3.36535
0
LINE
8
BLACK
6
CONTINUOUS
10
6.12456
20
-3.36535
11
6.13172
21
-3.36767
0
LINE
8
BLACK
6
CONTINUOUS
10
6.13172
20
-3.36767
11
6.13919
21
-3.36856
0
LINE
8
BLACK
6
CONTINUOUS
10
6.13919
20
-3.36856
11
6.1467
21
-3.36799
0
LINE
8
BLACK
6
CONTINUOUS
10
6.1467
20
-3.36799
11
6.15395
21
-3.36596
0
LINE
8
BLACK
6
CONTINUOUS
10
6.15395
20
-3.36596
11
6.16067
21
-3.36257
0
LINE
8
BLACK
6
CONTINUOUS
10
6.16067
20
-3.36257
11
6.1666
21
-3.35793
0
LINE
8
BLACK
6
CONTINUOUS
10
6.1666
20
-3.35793
11
6.17152
21
-3.35223
0
LINE
8
BLACK
6
CONTINUOUS
10
6.17152
20
-3.35223
11
6.17524
21
-3.34569
0
LINE
8
BLACK
6
CONTINUOUS
10
6.17524
20
-3.34569
11
6.17761
21
-3.33855
0
LINE
8
BLACK
6
CONTINUOUS
10
6.17761
20
-3.33855
11
6.17856
21
-3.33108
0
LINE
8
BLACK
6
CONTINUOUS
10
6.17856
20
-3.33108
11
6.17857
21
-3.33
0
LINE
8
BLACK
6
CONTINUOUS
10
6.17857
20
-3.33
11
6.17784
21
-3.32251
0
LINE
8
BLACK
6
CONTINUOUS
10
6.17784
20
-3.32251
11
6.17566
21
-3.3153
0
LINE
8
BLACK
6
CONTINUOUS
10
6.17566
20
-3.3153
11
6.17213
21
-3.30865
0
LINE
8
BLACK
6
CONTINUOUS
10
6.17213
20
-3.30865
11
6.16737
21
-3.30282
0
LINE
8
BLACK
6
CONTINUOUS
10
6.16737
20
-3.30282
11
6.16157
21
-3.29802
0
LINE
8
BLACK
6
CONTINUOUS
10
6.16157
20
-3.29802
11
6.15495
21
-3.29444
0
LINE
8
BLACK
6
CONTINUOUS
10
6.15495
20
-3.29444
11
6.14776
21
-3.29222
0
LINE
8
BLACK
6
CONTINUOUS
10
6.14776
20
-3.29222
11
6.14027
21
-3.29143
0
LINE
8
BLACK
6
CONTINUOUS
10
6.14027
20
-3.29143
11
6.13277
21
-3.29211
0
LINE
8
BLACK
6
CONTINUOUS
10
6.13277
20
-3.29211
11
6.12555
21
-3.29424
0
LINE
8
BLACK
6
CONTINUOUS
10
6.12555
20
-3.29424
11
6.11888
21
-3.29772
0
LINE
8
BLACK
6
CONTINUOUS
10
6.11888
20
-3.29772
11
6.11301
21
-3.30244
0
LINE
8
BLACK
6
CONTINUOUS
10
6.11301
20
-3.30244
11
6.10817
21
-3.30821
0
LINE
8
BLACK
6
CONTINUOUS
10
6.10817
20
-3.30821
11
6.10455
21
-3.31481
0
LINE
8
BLACK
6
CONTINUOUS
10
6.10455
20
-3.31481
11
6.10227
21
-3.32198
0
LINE
8
BLACK
6
CONTINUOUS
10
6.10227
20
-3.32198
11
6.10143
21
-3.32946
0
LINE
8
BLACK
6
CONTINUOUS
10
6.10143
20
-3.32946
11
6.10206
21
-3.33696
0
LINE
8
BLACK
6
CONTINUOUS
10
6.10206
20
-3.33696
11
6.10414
21
-3.3442
0
LINE
8
BLACK
6
CONTINUOUS
10
7.01053
20
-3.30161
11
7.01291
21
-3.2941
0
LINE
8
BLACK
6
CONTINUOUS
10
7.01291
20
-3.2941
11
7.0167
21
-3.2872
0
LINE
8
BLACK
6
CONTINUOUS
10
7.0167
20
-3.2872
11
7.02177
21
-3.28117
0
LINE
8
BLACK
6
CONTINUOUS
10
7.02177
20
-3.28117
11
7.0279
21
-3.27623
0
LINE
8
BLACK
6
CONTINUOUS
10
7.0279
20
-3.27623
11
7.03488
21
-3.27258
0
LINE
8
BLACK
6
CONTINUOUS
10
7.03488
20
-3.27258
11
7.04244
21
-3.27036
0
LINE
8
BLACK
6
CONTINUOUS
10
7.04244
20
-3.27036
11
7.05028
21
-3.26965
0
LINE
8
BLACK
6
CONTINUOUS
10
7.05028
20
-3.26965
11
7.05811
21
-3.27047
0
LINE
8
BLACK
6
CONTINUOUS
10
7.05811
20
-3.27047
11
7.06564
21
-3.2728
0
LINE
8
BLACK
6
CONTINUOUS
10
7.06564
20
-3.2728
11
7.07257
21
-3.27654
0
LINE
8
BLACK
6
CONTINUOUS
10
7.07257
20
-3.27654
11
7.07863
21
-3.28156
0
LINE
8
BLACK
6
CONTINUOUS
10
7.07863
20
-3.28156
11
7.08361
21
-3.28767
0
LINE
8
BLACK
6
CONTINUOUS
10
7.08361
20
-3.28767
11
7.08731
21
-3.29462
0
LINE
8
BLACK
6
CONTINUOUS
10
7.08731
20
-3.29462
11
7.08959
21
-3.30216
0
LINE
8
BLACK
6
CONTINUOUS
10
7.08959
20
-3.30216
11
7.09035
21
-3.31
0
LINE
8
BLACK
6
CONTINUOUS
10
7.09035
20
-3.31
11
7.09034
21
-3.31113
0
LINE
8
BLACK
6
CONTINUOUS
10
7.09034
20
-3.31113
11
7.08935
21
-3.31894
0
LINE
8
BLACK
6
CONTINUOUS
10
7.08935
20
-3.31894
11
7.08687
21
-3.32641
0
LINE
8
BLACK
6
CONTINUOUS
10
7.08687
20
-3.32641
11
7.08298
21
-3.33326
0
LINE
8
BLACK
6
CONTINUOUS
10
7.08298
20
-3.33326
11
7.07783
21
-3.33922
0
LINE
8
BLACK
6
CONTINUOUS
10
7.07783
20
-3.33922
11
7.07162
21
-3.34407
0
LINE
8
BLACK
6
CONTINUOUS
10
7.07162
20
-3.34407
11
7.06459
21
-3.34762
0
LINE
8
BLACK
6
CONTINUOUS
10
7.06459
20
-3.34762
11
7.05701
21
-3.34974
0
LINE
8
BLACK
6
CONTINUOUS
10
7.05701
20
-3.34974
11
7.04915
21
-3.35035
0
LINE
8
BLACK
6
CONTINUOUS
10
7.04915
20
-3.35035
11
7.04133
21
-3.34941
0
LINE
8
BLACK
6
CONTINUOUS
10
7.04133
20
-3.34941
11
7.03384
21
-3.34698
0
LINE
8
BLACK
6
CONTINUOUS
10
7.03384
20
-3.34698
11
7.02697
21
-3.34314
0
LINE
8
BLACK
6
CONTINUOUS
10
7.02697
20
-3.34314
11
7.02097
21
-3.33803
0
LINE
8
BLACK
6
CONTINUOUS
10
7.02097
20
-3.33803
11
7.01608
21
-3.33186
0
LINE
8
BLACK
6
CONTINUOUS
10
7.01608
20
-3.33186
11
7.01248
21
-3.32486
0
LINE
8
BLACK
6
CONTINUOUS
10
7.01248
20
-3.32486
11
7.01031
21
-3.31728
0
LINE
8
BLACK
6
CONTINUOUS
10
7.01031
20
-3.31728
11
7.00965
21
-3.30946
0
LINE
8
BLACK
6
CONTINUOUS
10
7.00965
20
-3.30946
11
7.00965
21
-3.30944
0
LINE
8
BLACK
6
CONTINUOUS
10
7.00965
20
-3.30944
11
7.01053
21
-3.30161
0
LINE
8
BLACK
6
CONTINUOUS
10
7.01414
20
-3.3242
11
7.01758
21
-3.33089
0
LINE
8
BLACK
6
CONTINUOUS
10
7.01758
20
-3.33089
11
7.02225
21
-3.33679
0
LINE
8
BLACK
6
CONTINUOUS
10
7.02225
20
-3.33679
11
7.02799
21
-3.34167
0
LINE
8
BLACK
6
CONTINUOUS
10
7.02799
20
-3.34167
11
7.03456
21
-3.34535
0
LINE
8
BLACK
6
CONTINUOUS
10
7.03456
20
-3.34535
11
7.04172
21
-3.34767
0
LINE
8
BLACK
6
CONTINUOUS
10
7.04172
20
-3.34767
11
7.04919
21
-3.34856
0
LINE
8
BLACK
6
CONTINUOUS
10
7.04919
20
-3.34856
11
7.0567
21
-3.34799
0
LINE
8
BLACK
6
CONTINUOUS
10
7.0567
20
-3.34799
11
7.06395
21
-3.34596
0
LINE
8
BLACK
6
CONTINUOUS
10
7.06395
20
-3.34596
11
7.07067
21
-3.34257
0
LINE
8
BLACK
6
CONTINUOUS
10
7.07067
20
-3.34257
11
7.0766
21
-3.33793
0
LINE
8
BLACK
6
CONTINUOUS
10
7.0766
20
-3.33793
11
7.08152
21
-3.33223
0
LINE
8
BLACK
6
CONTINUOUS
10
7.08152
20
-3.33223
11
7.08524
21
-3.32569
0
LINE
8
BLACK
6
CONTINUOUS
10
7.08524
20
-3.32569
11
7.08761
21
-3.31855
0
LINE
8
BLACK
6
CONTINUOUS
10
7.08761
20
-3.31855
11
7.08856
21
-3.31108
0
LINE
8
BLACK
6
CONTINUOUS
10
7.08856
20
-3.31108
11
7.08857
21
-3.31
0
LINE
8
BLACK
6
CONTINUOUS
10
7.08857
20
-3.31
11
7.08784
21
-3.30251
0
LINE
8
BLACK
6
CONTINUOUS
10
7.08784
20
-3.30251
11
7.08566
21
-3.2953
0
LINE
8
BLACK
6
CONTINUOUS
10
7.08566
20
-3.2953
11
7.08213
21
-3.28865
0
LINE
8
BLACK
6
CONTINUOUS
10
7.08213
20
-3.28865
11
7.07737
21
-3.28282
0
LINE
8
BLACK
6
CONTINUOUS
10
7.07737
20
-3.28282
11
7.07157
21
-3.27802
0
LINE
8
BLACK
6
CONTINUOUS
10
7.07157
20
-3.27802
11
7.06495
21
-3.27444
0
LINE
8
BLACK
6
CONTINUOUS
10
7.06495
20
-3.27444
11
7.05776
21
-3.27222
0
LINE
8
BLACK
6
CONTINUOUS
10
7.05776
20
-3.27222
11
7.05027
21
-3.27143
0
LINE
8
BLACK
6
CONTINUOUS
10
7.05027
20
-3.27143
11
7.04277
21
-3.27211
0
LINE
8
BLACK
6
CONTINUOUS
10
7.04277
20
-3.27211
11
7.03555
21
-3.27424
0
LINE
8
BLACK
6
CONTINUOUS
10
7.03555
20
-3.27424
11
7.02888
21
-3.27772
0
LINE
8
BLACK
6
CONTINUOUS
10
7.02888
20
-3.27772
11
7.02301
21
-3.28244
0
LINE
8
BLACK
6
CONTINUOUS
10
7.02301
20
-3.28244
11
7.01817
21
-3.28821
0
LINE
8
BLACK
6
CONTINUOUS
10
7.01817
20
-3.28821
11
7.01455
21
-3.29481
0
LINE
8
BLACK
6
CONTINUOUS
10
7.01455
20
-3.29481
11
7.01227
21
-3.30198
0
LINE
8
BLACK
6
CONTINUOUS
10
7.01227
20
-3.30198
11
7.01143
21
-3.30946
0
LINE
8
BLACK
6
CONTINUOUS
10
7.01143
20
-3.30946
11
7.01206
21
-3.31696
0
LINE
8
BLACK
6
CONTINUOUS
10
7.01206
20
-3.31696
11
7.01414
21
-3.3242
0
LINE
8
BLACK
6
CONTINUOUS
10
7.01053
20
-3.17161
11
7.01291
21
-3.1641
0
LINE
8
BLACK
6
CONTINUOUS
10
7.01291
20
-3.1641
11
7.0167
21
-3.1572
0
LINE
8
BLACK
6
CONTINUOUS
10
7.0167
20
-3.1572
11
7.02177
21
-3.15117
0
LINE
8
BLACK
6
CONTINUOUS
10
7.02177
20
-3.15117
11
7.0279
21
-3.14623
0
LINE
8
BLACK
6
CONTINUOUS
10
7.0279
20
-3.14623
11
7.03488
21
-3.14258
0
LINE
8
BLACK
6
CONTINUOUS
10
7.03488
20
-3.14258
11
7.04244
21
-3.14036
0
LINE
8
BLACK
6
CONTINUOUS
10
7.04244
20
-3.14036
11
7.05028
21
-3.13965
0
LINE
8
BLACK
6
CONTINUOUS
10
7.05028
20
-3.13965
11
7.05811
21
-3.14047
0
LINE
8
BLACK
6
CONTINUOUS
10
7.05811
20
-3.14047
11
7.06564
21
-3.1428
0
LINE
8
BLACK
6
CONTINUOUS
10
7.06564
20
-3.1428
11
7.07257
21
-3.14654
0
LINE
8
BLACK
6
CONTINUOUS
10
7.07257
20
-3.14654
11
7.07863
21
-3.15156
0
LINE
8
BLACK
6
CONTINUOUS
10
7.07863
20
-3.15156
11
7.08361
21
-3.15767
0
LINE
8
BLACK
6
CONTINUOUS
10
7.08361
20
-3.15767
11
7.08731
21
-3.16462
0
LINE
8
BLACK
6
CONTINUOUS
10
7.08731
20
-3.16462
11
7.08959
21
-3.17216
0
LINE
8
BLACK
6
CONTINUOUS
10
7.08959
20
-3.17216
11
7.09035
21
-3.18
0
LINE
8
BLACK
6
CONTINUOUS
10
7.09035
20
-3.18
11
7.09034
21
-3.18113
0
LINE
8
BLACK
6
CONTINUOUS
10
7.09034
20
-3.18113
11
7.08935
21
-3.18894
0
LINE
8
BLACK
6
CONTINUOUS
10
7.08935
20
-3.18894
11
7.08687
21
-3.19641
0
LINE
8
BLACK
6
CONTINUOUS
10
7.08687
20
-3.19641
11
7.08298
21
-3.20326
0
LINE
8
BLACK
6
CONTINUOUS
10
7.08298
20
-3.20326
11
7.07783
21
-3.20922
0
LINE
8
BLACK
6
CONTINUOUS
10
7.07783
20
-3.20922
11
7.07162
21
-3.21407
0
LINE
8
BLACK
6
CONTINUOUS
10
7.07162
20
-3.21407
11
7.06459
21
-3.21762
0
LINE
8
BLACK
6
CONTINUOUS
10
7.06459
20
-3.21762
11
7.05701
21
-3.21974
0
LINE
8
BLACK
6
CONTINUOUS
10
7.05701
20
-3.21974
11
7.04915
21
-3.22035
0
LINE
8
BLACK
6
CONTINUOUS
10
7.04915
20
-3.22035
11
7.04133
21
-3.21941
0
LINE
8
BLACK
6
CONTINUOUS
10
7.04133
20
-3.21941
11
7.03384
21
-3.21698
0
LINE
8
BLACK
6
CONTINUOUS
10
7.03384
20
-3.21698
11
7.02697
21
-3.21314
0
LINE
8
BLACK
6
CONTINUOUS
10
7.02697
20
-3.21314
11
7.02097
21
-3.20803
0
LINE
8
BLACK
6
CONTINUOUS
10
7.02097
20
-3.20803
11
7.01608
21
-3.20186
0
LINE
8
BLACK
6
CONTINUOUS
10
7.01608
20
-3.20186
11
7.01248
21
-3.19486
0
LINE
8
BLACK
6
CONTINUOUS
10
7.01248
20
-3.19486
11
7.01031
21
-3.18728
0
LINE
8
BLACK
6
CONTINUOUS
10
7.01031
20
-3.18728
11
7.00965
21
-3.17946
0
LINE
8
BLACK
6
CONTINUOUS
10
7.00965
20
-3.17946
11
7.00965
21
-3.17944
0
LINE
8
BLACK
6
CONTINUOUS
10
7.00965
20
-3.17944
11
7.01053
21
-3.17161
0
LINE
8
BLACK
6
CONTINUOUS
10
7.01414
20
-3.1942
11
7.01758
21
-3.20089
0
LINE
8
BLACK
6
CONTINUOUS
10
7.01758
20
-3.20089
11
7.02225
21
-3.20679
0
LINE
8
BLACK
6
CONTINUOUS
10
7.02225
20
-3.20679
11
7.02799
21
-3.21167
0
LINE
8
BLACK
6
CONTINUOUS
10
7.02799
20
-3.21167
11
7.03456
21
-3.21535
0
LINE
8
BLACK
6
CONTINUOUS
10
7.03456
20
-3.21535
11
7.04172
21
-3.21767
0
LINE
8
BLACK
6
CONTINUOUS
10
7.04172
20
-3.21767
11
7.04919
21
-3.21856
0
LINE
8
BLACK
6
CONTINUOUS
10
7.04919
20
-3.21856
11
7.0567
21
-3.21799
0
LINE
8
BLACK
6
CONTINUOUS
10
7.0567
20
-3.21799
11
7.06395
21
-3.21596
0
LINE
8
BLACK
6
CONTINUOUS
10
7.06395
20
-3.21596
11
7.07067
21
-3.21257
0
LINE
8
BLACK
6
CONTINUOUS
10
7.07067
20
-3.21257
11
7.0766
21
-3.20793
0
LINE
8
BLACK
6
CONTINUOUS
10
7.0766
20
-3.20793
11
7.08152
21
-3.20223
0
LINE
8
BLACK
6
CONTINUOUS
10
7.08152
20
-3.20223
11
7.08524
21
-3.19569
0
LINE
8
BLACK
6
CONTINUOUS
10
7.08524
20
-3.19569
11
7.08761
21
-3.18855
0
LINE
8
BLACK
6
CONTINUOUS
10
7.08761
20
-3.18855
11
7.08856
21
-3.18108
0
LINE
8
BLACK
6
CONTINUOUS
10
7.08856
20
-3.18108
11
7.08857
21
-3.18
0
LINE
8
BLACK
6
CONTINUOUS
10
7.08857
20
-3.18
11
7.08784
21
-3.17251
0
LINE
8
BLACK
6
CONTINUOUS
10
7.08784
20
-3.17251
11
7.08566
21
-3.1653
0
LINE
8
BLACK
6
CONTINUOUS
10
7.08566
20
-3.1653
11
7.08213
21
-3.15865
0
LINE
8
BLACK
6
CONTINUOUS
10
7.08213
20
-3.15865
11
7.07737
21
-3.15282
0
LINE
8
BLACK
6
CONTINUOUS
10
7.07737
20
-3.15282
11
7.07157
21
-3.14802
0
LINE
8
BLACK
6
CONTINUOUS
10
7.07157
20
-3.14802
11
7.06495
21
-3.14444
0
LINE
8
BLACK
6
CONTINUOUS
10
7.06495
20
-3.14444
11
7.05776
21
-3.14222
0
LINE
8
BLACK
6
CONTINUOUS
10
7.05776
20
-3.14222
11
7.05027
21
-3.14143
0
LINE
8
BLACK
6
CONTINUOUS
10
7.05027
20
-3.14143
11
7.04277
21
-3.14211
0
LINE
8
BLACK
6
CONTINUOUS
10
7.04277
20
-3.14211
11
7.03555
21
-3.14424
0
LINE
8
BLACK
6
CONTINUOUS
10
7.03555
20
-3.14424
11
7.02888
21
-3.14772
0
LINE
8
BLACK
6
CONTINUOUS
10
7.02888
20
-3.14772
11
7.02301
21
-3.15244
0
LINE
8
BLACK
6
CONTINUOUS
10
7.02301
20
-3.15244
11
7.01817
21
-3.15821
0
LINE
8
BLACK
6
CONTINUOUS
10
7.01817
20
-3.15821
11
7.01455
21
-3.16481
0
LINE
8
BLACK
6
CONTINUOUS
10
7.01455
20
-3.16481
11
7.01227
21
-3.17198
0
LINE
8
BLACK
6
CONTINUOUS
10
7.01227
20
-3.17198
11
7.01143
21
-3.17946
0
LINE
8
BLACK
6
CONTINUOUS
10
7.01143
20
-3.17946
11
7.01206
21
-3.18696
0
LINE
8
BLACK
6
CONTINUOUS
10
7.01206
20
-3.18696
11
7.01414
21
-3.1942
0
LINE
8
BLACK
6
CONTINUOUS
10
6.56653
20
-3.14761
11
6.56891
21
-3.1401
0
LINE
8
BLACK
6
CONTINUOUS
10
6.56891
20
-3.1401
11
6.5727
21
-3.1332
0
LINE
8
BLACK
6
CONTINUOUS
10
6.5727
20
-3.1332
11
6.57777
21
-3.12717
0
LINE
8
BLACK
6
CONTINUOUS
10
6.57777
20
-3.12717
11
6.5839
21
-3.12223
0
LINE
8
BLACK
6
CONTINUOUS
10
6.5839
20
-3.12223
11
6.59088
21
-3.11858
0
LINE
8
BLACK
6
CONTINUOUS
10
6.59088
20
-3.11858
11
6.59844
21
-3.11636
0
LINE
8
BLACK
6
CONTINUOUS
10
6.59844
20
-3.11636
11
6.60628
21
-3.11565
0
LINE
8
BLACK
6
CONTINUOUS
10
6.60628
20
-3.11565
11
6.61411
21
-3.11647
0
LINE
8
BLACK
6
CONTINUOUS
10
6.61411
20
-3.11647
11
6.62164
21
-3.1188
0
LINE
8
BLACK
6
CONTINUOUS
10
6.62164
20
-3.1188
11
6.62857
21
-3.12254
0
LINE
8
BLACK
6
CONTINUOUS
10
6.62857
20
-3.12254
11
6.63463
21
-3.12756
0
LINE
8
BLACK
6
CONTINUOUS
10
6.63463
20
-3.12756
11
6.63961
21
-3.13367
0
LINE
8
BLACK
6
CONTINUOUS
10
6.63961
20
-3.13367
11
6.64331
21
-3.14062
0
LINE
8
BLACK
6
CONTINUOUS
10
6.64331
20
-3.14062
11
6.64559
21
-3.14816
0
LINE
8
BLACK
6
CONTINUOUS
10
6.64559
20
-3.14816
11
6.64635
21
-3.156
0
LINE
8
BLACK
6
CONTINUOUS
10
6.64635
20
-3.156
11
6.64634
21
-3.15713
0
LINE
8
BLACK
6
CONTINUOUS
10
6.64634
20
-3.15713
11
6.64535
21
-3.16494
0
LINE
8
BLACK
6
CONTINUOUS
10
6.64535
20
-3.16494
11
6.64287
21
-3.17241
0
LINE
8
BLACK
6
CONTINUOUS
10
6.64287
20
-3.17241
11
6.63898
21
-3.17926
0
LINE
8
BLACK
6
CONTINUOUS
10
6.63898
20
-3.17926
11
6.63383
21
-3.18522
0
LINE
8
BLACK
6
CONTINUOUS
10
6.63383
20
-3.18522
11
6.62762
21
-3.19007
0
LINE
8
BLACK
6
CONTINUOUS
10
6.62762
20
-3.19007
11
6.62059
21
-3.19362
0
LINE
8
BLACK
6
CONTINUOUS
10
6.62059
20
-3.19362
11
6.61301
21
-3.19574
0
LINE
8
BLACK
6
CONTINUOUS
10
6.61301
20
-3.19574
11
6.60515
21
-3.19635
0
LINE
8
BLACK
6
CONTINUOUS
10
6.60515
20
-3.19635
11
6.59733
21
-3.19541
0
LINE
8
BLACK
6
CONTINUOUS
10
6.59733
20
-3.19541
11
6.58984
21
-3.19298
0
LINE
8
BLACK
6
CONTINUOUS
10
6.58984
20
-3.19298
11
6.58297
21
-3.18914
0
LINE
8
BLACK
6
CONTINUOUS
10
6.58297
20
-3.18914
11
6.57697
21
-3.18403
0
LINE
8
BLACK
6
CONTINUOUS
10
6.57697
20
-3.18403
11
6.57208
21
-3.17786
0
LINE
8
BLACK
6
CONTINUOUS
10
6.57208
20
-3.17786
11
6.56848
21
-3.17086
0
LINE
8
BLACK
6
CONTINUOUS
10
6.56848
20
-3.17086
11
6.56631
21
-3.16328
0
LINE
8
BLACK
6
CONTINUOUS
10
6.56631
20
-3.16328
11
6.56565
21
-3.15546
0
LINE
8
BLACK
6
CONTINUOUS
10
6.56565
20
-3.15546
11
6.56565
21
-3.15544
0
LINE
8
BLACK
6
CONTINUOUS
10
6.56565
20
-3.15544
11
6.56653
21
-3.14761
0
LINE
8
BLACK
6
CONTINUOUS
10
6.57014
20
-3.1702
11
6.57358
21
-3.17689
0
LINE
8
BLACK
6
CONTINUOUS
10
6.57358
20
-3.17689
11
6.57825
21
-3.18279
0
LINE
8
BLACK
6
CONTINUOUS
10
6.57825
20
-3.18279
11
6.58399
21
-3.18767
0
LINE
8
BLACK
6
CONTINUOUS
10
6.58399
20
-3.18767
11
6.59056
21
-3.19135
0
LINE
8
BLACK
6
CONTINUOUS
10
6.59056
20
-3.19135
11
6.59772
21
-3.19367
0
LINE
8
BLACK
6
CONTINUOUS
10
6.59772
20
-3.19367
11
6.60519
21
-3.19456
0
LINE
8
BLACK
6
CONTINUOUS
10
6.60519
20
-3.19456
11
6.6127
21
-3.19399
0
LINE
8
BLACK
6
CONTINUOUS
10
6.6127
20
-3.19399
11
6.61995
21
-3.19196
0
LINE
8
BLACK
6
CONTINUOUS
10
6.61995
20
-3.19196
11
6.62667
21
-3.18857
0
LINE
8
BLACK
6
CONTINUOUS
10
6.62667
20
-3.18857
11
6.6326
21
-3.18393
0
LINE
8
BLACK
6
CONTINUOUS
10
6.6326
20
-3.18393
11
6.63752
21
-3.17823
0
LINE
8
BLACK
6
CONTINUOUS
10
6.63752
20
-3.17823
11
6.64124
21
-3.17169
0
LINE
8
BLACK
6
CONTINUOUS
10
6.64124
20
-3.17169
11
6.64361
21
-3.16455
0
LINE
8
BLACK
6
CONTINUOUS
10
6.64361
20
-3.16455
11
6.64456
21
-3.15708
0
LINE
8
BLACK
6
CONTINUOUS
10
6.64456
20
-3.15708
11
6.64457
21
-3.156
0
LINE
8
BLACK
6
CONTINUOUS
10
6.64457
20
-3.156
11
6.64384
21
-3.14851
0
LINE
8
BLACK
6
CONTINUOUS
10
6.64384
20
-3.14851
11
6.64166
21
-3.1413
0
LINE
8
BLACK
6
CONTINUOUS
10
6.64166
20
-3.1413
11
6.63813
21
-3.13465
0
LINE
8
BLACK
6
CONTINUOUS
10
6.63813
20
-3.13465
11
6.63337
21
-3.12882
0
LINE
8
BLACK
6
CONTINUOUS
10
6.63337
20
-3.12882
11
6.62757
21
-3.12402
0
LINE
8
BLACK
6
CONTINUOUS
10
6.62757
20
-3.12402
11
6.62095
21
-3.12044
0
LINE
8
BLACK
6
CONTINUOUS
10
6.62095
20
-3.12044
11
6.61376
21
-3.11822
0
LINE
8
BLACK
6
CONTINUOUS
10
6.61376
20
-3.11822
11
6.60627
21
-3.11743
0
LINE
8
BLACK
6
CONTINUOUS
10
6.60627
20
-3.11743
11
6.59877
21
-3.11811
0
LINE
8
BLACK
6
CONTINUOUS
10
6.59877
20
-3.11811
11
6.59155
21
-3.12024
0
LINE
8
BLACK
6
CONTINUOUS
10
6.59155
20
-3.12024
11
6.58488
21
-3.12372
0
LINE
8
BLACK
6
CONTINUOUS
10
6.58488
20
-3.12372
11
6.57901
21
-3.12844
0
LINE
8
BLACK
6
CONTINUOUS
10
6.57901
20
-3.12844
11
6.57417
21
-3.13421
0
LINE
8
BLACK
6
CONTINUOUS
10
6.57417
20
-3.13421
11
6.57055
21
-3.14081
0
LINE
8
BLACK
6
CONTINUOUS
10
6.57055
20
-3.14081
11
6.56827
21
-3.14798
0
LINE
8
BLACK
6
CONTINUOUS
10
6.56827
20
-3.14798
11
6.56743
21
-3.15546
0
LINE
8
BLACK
6
CONTINUOUS
10
6.56743
20
-3.15546
11
6.56806
21
-3.16296
0
LINE
8
BLACK
6
CONTINUOUS
10
6.56806
20
-3.16296
11
6.57014
21
-3.1702
0
LINE
8
BLACK
6
CONTINUOUS
10
6.79053
20
-3.08161
11
6.79291
21
-3.0741
0
LINE
8
BLACK
6
CONTINUOUS
10
6.79291
20
-3.0741
11
6.7967
21
-3.0672
0
LINE
8
BLACK
6
CONTINUOUS
10
6.7967
20
-3.0672
11
6.80177
21
-3.06117
0
LINE
8
BLACK
6
CONTINUOUS
10
6.80177
20
-3.06117
11
6.8079
21
-3.05623
0
LINE
8
BLACK
6
CONTINUOUS
10
6.8079
20
-3.05623
11
6.81488
21
-3.05258
0
LINE
8
BLACK
6
CONTINUOUS
10
6.81488
20
-3.05258
11
6.82244
21
-3.05036
0
LINE
8
BLACK
6
CONTINUOUS
10
6.82244
20
-3.05036
11
6.83028
21
-3.04965
0
LINE
8
BLACK
6
CONTINUOUS
10
6.83028
20
-3.04965
11
6.83811
21
-3.05047
0
LINE
8
BLACK
6
CONTINUOUS
10
6.83811
20
-3.05047
11
6.84564
21
-3.0528
0
LINE
8
BLACK
6
CONTINUOUS
10
6.84564
20
-3.0528
11
6.85257
21
-3.05654
0
LINE
8
BLACK
6
CONTINUOUS
10
6.85257
20
-3.05654
11
6.85863
21
-3.06156
0
LINE
8
BLACK
6
CONTINUOUS
10
6.85863
20
-3.06156
11
6.86361
21
-3.06767
0
LINE
8
BLACK
6
CONTINUOUS
10
6.86361
20
-3.06767
11
6.86731
21
-3.07462
0
LINE
8
BLACK
6
CONTINUOUS
10
6.86731
20
-3.07462
11
6.86959
21
-3.08216
0
LINE
8
BLACK
6
CONTINUOUS
10
6.86959
20
-3.08216
11
6.87035
21
-3.09
0
LINE
8
BLACK
6
CONTINUOUS
10
6.87035
20
-3.09
11
6.87034
21
-3.09113
0
LINE
8
BLACK
6
CONTINUOUS
10
6.87034
20
-3.09113
11
6.86935
21
-3.09894
0
LINE
8
BLACK
6
CONTINUOUS
10
6.86935
20
-3.09894
11
6.86687
21
-3.10641
0
LINE
8
BLACK
6
CONTINUOUS
10
6.86687
20
-3.10641
11
6.86298
21
-3.11326
0
LINE
8
BLACK
6
CONTINUOUS
10
6.86298
20
-3.11326
11
6.85783
21
-3.11922
0
LINE
8
BLACK
6
CONTINUOUS
10
6.85783
20
-3.11922
11
6.85162
21
-3.12407
0
LINE
8
BLACK
6
CONTINUOUS
10
6.85162
20
-3.12407
11
6.84459
21
-3.12762
0
LINE
8
BLACK
6
CONTINUOUS
10
6.84459
20
-3.12762
11
6.83701
21
-3.12974
0
LINE
8
BLACK
6
CONTINUOUS
10
6.83701
20
-3.12974
11
6.82915
21
-3.13035
0
LINE
8
BLACK
6
CONTINUOUS
10
6.82915
20
-3.13035
11
6.82133
21
-3.12941
0
LINE
8
BLACK
6
CONTINUOUS
10
6.82133
20
-3.12941
11
6.81384
21
-3.12698
0
LINE
8
BLACK
6
CONTINUOUS
10
6.81384
20
-3.12698
11
6.80697
21
-3.12314
0
LINE
8
BLACK
6
CONTINUOUS
10
6.80697
20
-3.12314
11
6.80097
21
-3.11803
0
LINE
8
BLACK
6
CONTINUOUS
10
6.80097
20
-3.11803
11
6.79608
21
-3.11186
0
LINE
8
BLACK
6
CONTINUOUS
10
6.79608
20
-3.11186
11
6.79248
21
-3.10486
0
LINE
8
BLACK
6
CONTINUOUS
10
6.79248
20
-3.10486
11
6.79031
21
-3.09728
0
LINE
8
BLACK
6
CONTINUOUS
10
6.79031
20
-3.09728
11
6.78965
21
-3.08946
0
LINE
8
BLACK
6
CONTINUOUS
10
6.78965
20
-3.08946
11
6.78965
21
-3.08944
0
LINE
8
BLACK
6
CONTINUOUS
10
6.78965
20
-3.08944
11
6.79053
21
-3.08161
0
LINE
8
BLACK
6
CONTINUOUS
10
6.79414
20
-3.1042
11
6.79758
21
-3.11089
0
LINE
8
BLACK
6
CONTINUOUS
10
6.79758
20
-3.11089
11
6.80225
21
-3.11679
0
LINE
8
BLACK
6
CONTINUOUS
10
6.80225
20
-3.11679
11
6.80799
21
-3.12167
0
LINE
8
BLACK
6
CONTINUOUS
10
6.80799
20
-3.12167
11
6.81456
21
-3.12535
0
LINE
8
BLACK
6
CONTINUOUS
10
6.81456
20
-3.12535
11
6.82172
21
-3.12767
0
LINE
8
BLACK
6
CONTINUOUS
10
6.82172
20
-3.12767
11
6.82919
21
-3.12856
0
LINE
8
BLACK
6
CONTINUOUS
10
6.82919
20
-3.12856
11
6.8367
21
-3.12799
0
LINE
8
BLACK
6
CONTINUOUS
10
6.8367
20
-3.12799
11
6.84395
21
-3.12596
0
LINE
8
BLACK
6
CONTINUOUS
10
6.84395
20
-3.12596
11
6.85067
21
-3.12257
0
LINE
8
BLACK
6
CONTINUOUS
10
6.85067
20
-3.12257
11
6.8566
21
-3.11793
0
LINE
8
BLACK
6
CONTINUOUS
10
6.8566
20
-3.11793
11
6.86152
21
-3.11223
0
LINE
8
BLACK
6
CONTINUOUS
10
6.86152
20
-3.11223
11
6.86524
21
-3.10569
0
LINE
8
BLACK
6
CONTINUOUS
10
6.86524
20
-3.10569
11
6.86761
21
-3.09855
0
LINE
8
BLACK
6
CONTINUOUS
10
6.86761
20
-3.09855
11
6.86856
21
-3.09108
0
LINE
8
BLACK
6
CONTINUOUS
10
6.86856
20
-3.09108
11
6.86857
21
-3.09
0
LINE
8
BLACK
6
CONTINUOUS
10
6.86857
20
-3.09
11
6.86784
21
-3.08251
0
LINE
8
BLACK
6
CONTINUOUS
10
6.86784
20
-3.08251
11
6.86566
21
-3.0753
0
LINE
8
BLACK
6
CONTINUOUS
10
6.86566
20
-3.0753
11
6.86213
21
-3.06865
0
LINE
8
BLACK
6
CONTINUOUS
10
6.86213
20
-3.06865
11
6.85737
21
-3.06282
0
LINE
8
BLACK
6
CONTINUOUS
10
6.85737
20
-3.06282
11
6.85157
21
-3.05802
0
LINE
8
BLACK
6
CONTINUOUS
10
6.85157
20
-3.05802
11
6.84495
21
-3.05444
0
LINE
8
BLACK
6
CONTINUOUS
10
6.84495
20
-3.05444
11
6.83776
21
-3.05222
0
LINE
8
BLACK
6
CONTINUOUS
10
6.83776
20
-3.05222
11
6.83027
21
-3.05143
0
LINE
8
BLACK
6
CONTINUOUS
10
6.83027
20
-3.05143
11
6.82277
21
-3.05211
0
LINE
8
BLACK
6
CONTINUOUS
10
6.82277
20
-3.05211
11
6.81555
21
-3.05424
0
LINE
8
BLACK
6
CONTINUOUS
10
6.81555
20
-3.05424
11
6.80888
21
-3.05772
0
LINE
8
BLACK
6
CONTINUOUS
10
6.80888
20
-3.05772
11
6.80301
21
-3.06244
0
LINE
8
BLACK
6
CONTINUOUS
10
6.80301
20
-3.06244
11
6.79817
21
-3.06821
0
LINE
8
BLACK
6
CONTINUOUS
10
6.79817
20
-3.06821
11
6.79455
21
-3.07481
0
LINE
8
BLACK
6
CONTINUOUS
10
6.79455
20
-3.07481
11
6.79227
21
-3.08198
0
LINE
8
BLACK
6
CONTINUOUS
10
6.79227
20
-3.08198
11
6.79143
21
-3.08946
0
LINE
8
BLACK
6
CONTINUOUS
10
6.79143
20
-3.08946
11
6.79206
21
-3.09696
0
LINE
8
BLACK
6
CONTINUOUS
10
6.79206
20
-3.09696
11
6.79414
21
-3.1042
0
LINE
8
BLACK
6
CONTINUOUS
10
6.42853
20
-2.74961
11
6.43091
21
-2.7421
0
LINE
8
BLACK
6
CONTINUOUS
10
6.43091
20
-2.7421
11
6.4347
21
-2.7352
0
LINE
8
BLACK
6
CONTINUOUS
10
6.4347
20
-2.7352
11
6.43977
21
-2.72917
0
LINE
8
BLACK
6
CONTINUOUS
10
6.43977
20
-2.72917
11
6.4459
21
-2.72423
0
LINE
8
BLACK
6
CONTINUOUS
10
6.4459
20
-2.72423
11
6.45288
21
-2.72058
0
LINE
8
BLACK
6
CONTINUOUS
10
6.45288
20
-2.72058
11
6.46044
21
-2.71836
0
LINE
8
BLACK
6
CONTINUOUS
10
6.46044
20
-2.71836
11
6.46828
21
-2.71765
0
LINE
8
BLACK
6
CONTINUOUS
10
6.46828
20
-2.71765
11
6.47611
21
-2.71847
0
LINE
8
BLACK
6
CONTINUOUS
10
6.47611
20
-2.71847
11
6.48364
21
-2.7208
0
LINE
8
BLACK
6
CONTINUOUS
10
6.48364
20
-2.7208
11
6.49057
21
-2.72454
0
LINE
8
BLACK
6
CONTINUOUS
10
6.49057
20
-2.72454
11
6.49663
21
-2.72956
0
LINE
8
BLACK
6
CONTINUOUS
10
6.49663
20
-2.72956
11
6.50161
21
-2.73567
0
LINE
8
BLACK
6
CONTINUOUS
10
6.50161
20
-2.73567
11
6.50531
21
-2.74262
0
LINE
8
BLACK
6
CONTINUOUS
10
6.50531
20
-2.74262
11
6.50759
21
-2.75016
0
LINE
8
BLACK
6
CONTINUOUS
10
6.50759
20
-2.75016
11
6.50835
21
-2.758
0
LINE
8
BLACK
6
CONTINUOUS
10
6.50835
20
-2.758
11
6.50834
21
-2.75913
0
LINE
8
BLACK
6
CONTINUOUS
10
6.50834
20
-2.75913
11
6.50735
21
-2.76694
0
LINE
8
BLACK
6
CONTINUOUS
10
6.50735
20
-2.76694
11
6.50487
21
-2.77441
0
LINE
8
BLACK
6
CONTINUOUS
10
6.50487
20
-2.77441
11
6.50098
21
-2.78126
0
LINE
8
BLACK
6
CONTINUOUS
10
6.50098
20
-2.78126
11
6.49583
21
-2.78722
0
LINE
8
BLACK
6
CONTINUOUS
10
6.49583
20
-2.78722
11
6.48962
21
-2.79207
0
LINE
8
BLACK
6
CONTINUOUS
10
6.48962
20
-2.79207
11
6.48259
21
-2.79562
0
LINE
8
BLACK
6
CONTINUOUS
10
6.48259
20
-2.79562
11
6.47501
21
-2.79774
0
LINE
8
BLACK
6
CONTINUOUS
10
6.47501
20
-2.79774
11
6.46715
21
-2.79835
0
LINE
8
BLACK
6
CONTINUOUS
10
6.46715
20
-2.79835
11
6.45933
21
-2.79741
0
LINE
8
BLACK
6
CONTINUOUS
10
6.45933
20
-2.79741
11
6.45184
21
-2.79498
0
LINE
8
BLACK
6
CONTINUOUS
10
6.45184
20
-2.79498
11
6.44497
21
-2.79114
0
LINE
8
BLACK
6
CONTINUOUS
10
6.44497
20
-2.79114
11
6.43897
21
-2.78603
0
LINE
8
BLACK
6
CONTINUOUS
10
6.43897
20
-2.78603
11
6.43408
21
-2.77986
0
LINE
8
BLACK
6
CONTINUOUS
10
6.43408
20
-2.77986
11
6.43048
21
-2.77286
0
LINE
8
BLACK
6
CONTINUOUS
10
6.43048
20
-2.77286
11
6.42831
21
-2.76528
0
LINE
8
BLACK
6
CONTINUOUS
10
6.42831
20
-2.76528
11
6.42765
21
-2.75746
0
LINE
8
BLACK
6
CONTINUOUS
10
6.42765
20
-2.75746
11
6.42765
21
-2.75744
0
LINE
8
BLACK
6
CONTINUOUS
10
6.42765
20
-2.75744
11
6.42853
21
-2.74961
0
LINE
8
BLACK
6
CONTINUOUS
10
6.43214
20
-2.7722
11
6.43558
21
-2.77889
0
LINE
8
BLACK
6
CONTINUOUS
10
6.43558
20
-2.77889
11
6.44025
21
-2.78479
0
LINE
8
BLACK
6
CONTINUOUS
10
6.44025
20
-2.78479
11
6.44599
21
-2.78967
0
LINE
8
BLACK
6
CONTINUOUS
10
6.44599
20
-2.78967
11
6.45256
21
-2.79335
0
LINE
8
BLACK
6
CONTINUOUS
10
6.45256
20
-2.79335
11
6.45972
21
-2.79567
0
LINE
8
BLACK
6
CONTINUOUS
10
6.45972
20
-2.79567
11
6.46719
21
-2.79656
0
LINE
8
BLACK
6
CONTINUOUS
10
6.46719
20
-2.79656
11
6.4747
21
-2.79599
0
LINE
8
BLACK
6
CONTINUOUS
10
6.4747
20
-2.79599
11
6.48195
21
-2.79396
0
LINE
8
BLACK
6
CONTINUOUS
10
6.48195
20
-2.79396
11
6.48867
21
-2.79057
0
LINE
8
BLACK
6
CONTINUOUS
10
6.48867
20
-2.79057
11
6.4946
21
-2.78593
0
LINE
8
BLACK
6
CONTINUOUS
10
6.4946
20
-2.78593
11
6.49952
21
-2.78023
0
LINE
8
BLACK
6
CONTINUOUS
10
6.49952
20
-2.78023
11
6.50324
21
-2.77369
0
LINE
8
BLACK
6
CONTINUOUS
10
6.50324
20
-2.77369
11
6.50561
21
-2.76655
0
LINE
8
BLACK
6
CONTINUOUS
10
6.50561
20
-2.76655
11
6.50656
21
-2.75908
0
LINE
8
BLACK
6
CONTINUOUS
10
6.50656
20
-2.75908
11
6.50657
21
-2.758
0
LINE
8
BLACK
6
CONTINUOUS
10
6.50657
20
-2.758
11
6.50584
21
-2.75051
0
LINE
8
BLACK
6
CONTINUOUS
10
6.50584
20
-2.75051
11
6.50366
21
-2.7433
0
LINE
8
BLACK
6
CONTINUOUS
10
6.50366
20
-2.7433
11
6.50013
21
-2.73665
0
LINE
8
BLACK
6
CONTINUOUS
10
6.50013
20
-2.73665
11
6.49537
21
-2.73082
0
LINE
8
BLACK
6
CONTINUOUS
10
6.49537
20
-2.73082
11
6.48957
21
-2.72602
0
LINE
8
BLACK
6
CONTINUOUS
10
6.48957
20
-2.72602
11
6.48295
21
-2.72244
0
LINE
8
BLACK
6
CONTINUOUS
10
6.48295
20
-2.72244
11
6.47576
21
-2.72022
0
LINE
8
BLACK
6
CONTINUOUS
10
6.47576
20
-2.72022
11
6.46827
21
-2.71943
0
LINE
8
BLACK
6
CONTINUOUS
10
6.46827
20
-2.71943
11
6.46077
21
-2.72011
0
LINE
8
BLACK
6
CONTINUOUS
10
6.46077
20
-2.72011
11
6.45355
21
-2.72224
0
LINE
8
BLACK
6
CONTINUOUS
10
6.45355
20
-2.72224
11
6.44688
21
-2.72572
0
LINE
8
BLACK
6
CONTINUOUS
10
6.44688
20
-2.72572
11
6.44101
21
-2.73044
0
LINE
8
BLACK
6
CONTINUOUS
10
6.44101
20
-2.73044
11
6.43617
21
-2.73621
0
LINE
8
BLACK
6
CONTINUOUS
10
6.43617
20
-2.73621
11
6.43255
21
-2.74281
0
LINE
8
BLACK
6
CONTINUOUS
10
6.43255
20
-2.74281
11
6.43027
21
-2.74998
0
LINE
8
BLACK
6
CONTINUOUS
10
6.43027
20
-2.74998
11
6.42943
21
-2.75746
0
LINE
8
BLACK
6
CONTINUOUS
10
6.42943
20
-2.75746
11
6.43006
21
-2.76496
0
LINE
8
BLACK
6
CONTINUOUS
10
6.43006
20
-2.76496
11
6.43214
21
-2.7722
0
LINE
8
BLACK
6
CONTINUOUS
10
6.00353
20
-2.74861
11
6.00591
21
-2.7411
0
LINE
8
BLACK
6
CONTINUOUS
10
6.00591
20
-2.7411
11
6.0097
21
-2.7342
0
LINE
8
BLACK
6
CONTINUOUS
10
6.0097
20
-2.7342
11
6.01477
21
-2.72817
0
LINE
8
BLACK
6
CONTINUOUS
10
6.01477
20
-2.72817
11
6.0209
21
-2.72323
0
LINE
8
BLACK
6
CONTINUOUS
10
6.0209
20
-2.72323
11
6.02788
21
-2.71958
0
LINE
8
BLACK
6
CONTINUOUS
10
6.02788
20
-2.71958
11
6.03544
21
-2.71736
0
LINE
8
BLACK
6
CONTINUOUS
10
6.03544
20
-2.71736
11
6.04328
21
-2.71665
0
LINE
8
BLACK
6
CONTINUOUS
10
6.04328
20
-2.71665
11
6.05111
21
-2.71747
0
LINE
8
BLACK
6
CONTINUOUS
10
6.05111
20
-2.71747
11
6.05864
21
-2.7198
0
LINE
8
BLACK
6
CONTINUOUS
10
6.05864
20
-2.7198
11
6.06557
21
-2.72354
0
LINE
8
BLACK
6
CONTINUOUS
10
6.06557
20
-2.72354
11
6.07163
21
-2.72856
0
LINE
8
BLACK
6
CONTINUOUS
10
6.07163
20
-2.72856
11
6.07661
21
-2.73467
0
LINE
8
BLACK
6
CONTINUOUS
10
6.07661
20
-2.73467
11
6.08031
21
-2.74162
0
LINE
8
BLACK
6
CONTINUOUS
10
6.08031
20
-2.74162
11
6.08259
21
-2.74916
0
LINE
8
BLACK
6
CONTINUOUS
10
6.08259
20
-2.74916
11
6.08335
21
-2.757
0
LINE
8
BLACK
6
CONTINUOUS
10
6.08335
20
-2.757
11
6.08334
21
-2.75813
0
LINE
8
BLACK
6
CONTINUOUS
10
6.08334
20
-2.75813
11
6.08235
21
-2.76594
0
LINE
8
BLACK
6
CONTINUOUS
10
6.08235
20
-2.76594
11
6.07987
21
-2.77341
0
LINE
8
BLACK
6
CONTINUOUS
10
6.07987
20
-2.77341
11
6.07598
21
-2.78026
0
LINE
8
BLACK
6
CONTINUOUS
10
6.07598
20
-2.78026
11
6.07083
21
-2.78622
0
LINE
8
BLACK
6
CONTINUOUS
10
6.07083
20
-2.78622
11
6.06462
21
-2.79107
0
LINE
8
BLACK
6
CONTINUOUS
10
6.06462
20
-2.79107
11
6.05759
21
-2.79462
0
LINE
8
BLACK
6
CONTINUOUS
10
6.05759
20
-2.79462
11
6.05001
21
-2.79674
0
LINE
8
BLACK
6
CONTINUOUS
10
6.05001
20
-2.79674
11
6.04215
21
-2.79735
0
LINE
8
BLACK
6
CONTINUOUS
10
6.04215
20
-2.79735
11
6.03433
21
-2.79641
0
LINE
8
BLACK
6
CONTINUOUS
10
6.03433
20
-2.79641
11
6.02684
21
-2.79398
0
LINE
8
BLACK
6
CONTINUOUS
10
6.02684
20
-2.79398
11
6.01997
21
-2.79014
0
LINE
8
BLACK
6
CONTINUOUS
10
6.01997
20
-2.79014
11
6.01397
21
-2.78503
0
LINE
8
BLACK
6
CONTINUOUS
10
6.01397
20
-2.78503
11
6.00908
21
-2.77886
0
LINE
8
BLACK
6
CONTINUOUS
10
6.00908
20
-2.77886
11
6.00548
21
-2.77186
0
LINE
8
BLACK
6
CONTINUOUS
10
6.00548
20
-2.77186
11
6.00331
21
-2.76428
0
LINE
8
BLACK
6
CONTINUOUS
10
6.00331
20
-2.76428
11
6.00265
21
-2.75646
0
LINE
8
BLACK
6
CONTINUOUS
10
6.00265
20
-2.75646
11
6.00265
21
-2.75644
0
LINE
8
BLACK
6
CONTINUOUS
10
6.00265
20
-2.75644
11
6.00353
21
-2.74861
0
LINE
8
BLACK
6
CONTINUOUS
10
6.00714
20
-2.7712
11
6.01058
21
-2.77789
0
LINE
8
BLACK
6
CONTINUOUS
10
6.01058
20
-2.77789
11
6.01525
21
-2.78379
0
LINE
8
BLACK
6
CONTINUOUS
10
6.01525
20
-2.78379
11
6.02099
21
-2.78867
0
LINE
8
BLACK
6
CONTINUOUS
10
6.02099
20
-2.78867
11
6.02756
21
-2.79235
0
LINE
8
BLACK
6
CONTINUOUS
10
6.02756
20
-2.79235
11
6.03472
21
-2.79467
0
LINE
8
BLACK
6
CONTINUOUS
10
6.03472
20
-2.79467
11
6.04219
21
-2.79556
0
LINE
8
BLACK
6
CONTINUOUS
10
6.04219
20
-2.79556
11
6.0497
21
-2.79499
0
LINE
8
BLACK
6
CONTINUOUS
10
6.0497
20
-2.79499
11
6.05695
21
-2.79296
0
LINE
8
BLACK
6
CONTINUOUS
10
6.05695
20
-2.79296
11
6.06367
21
-2.78957
0
LINE
8
BLACK
6
CONTINUOUS
10
6.06367
20
-2.78957
11
6.0696
21
-2.78493
0
LINE
8
BLACK
6
CONTINUOUS
10
6.0696
20
-2.78493
11
6.07452
21
-2.77923
0
LINE
8
BLACK
6
CONTINUOUS
10
6.07452
20
-2.77923
11
6.07824
21
-2.77269
0
LINE
8
BLACK
6
CONTINUOUS
10
6.07824
20
-2.77269
11
6.08061
21
-2.76555
0
LINE
8
BLACK
6
CONTINUOUS
10
6.08061
20
-2.76555
11
6.08156
21
-2.75808
0
LINE
8
BLACK
6
CONTINUOUS
10
6.08156
20
-2.75808
11
6.08157
21
-2.757
0
LINE
8
BLACK
6
CONTINUOUS
10
6.08157
20
-2.757
11
6.08084
21
-2.74951
0
LINE
8
BLACK
6
CONTINUOUS
10
6.08084
20
-2.74951
11
6.07866
21
-2.7423
0
LINE
8
BLACK
6
CONTINUOUS
10
6.07866
20
-2.7423
11
6.07513
21
-2.73565
0
LINE
8
BLACK
6
CONTINUOUS
10
6.07513
20
-2.73565
11
6.07037
21
-2.72982
0
LINE
8
BLACK
6
CONTINUOUS
10
6.07037
20
-2.72982
11
6.06457
21
-2.72502
0
LINE
8
BLACK
6
CONTINUOUS
10
6.06457
20
-2.72502
11
6.05795
21
-2.72144
0
LINE
8
BLACK
6
CONTINUOUS
10
6.05795
20
-2.72144
11
6.05076
21
-2.71922
0
LINE
8
BLACK
6
CONTINUOUS
10
6.05076
20
-2.71922
11
6.04327
21
-2.71843
0
LINE
8
BLACK
6
CONTINUOUS
10
6.04327
20
-2.71843
11
6.03577
21
-2.71911
0
LINE
8
BLACK
6
CONTINUOUS
10
6.03577
20
-2.71911
11
6.02855
21
-2.72124
0
LINE
8
BLACK
6
CONTINUOUS
10
6.02855
20
-2.72124
11
6.02188
21
-2.72472
0
LINE
8
BLACK
6
CONTINUOUS
10
6.02188
20
-2.72472
11
6.01601
21
-2.72944
0
LINE
8
BLACK
6
CONTINUOUS
10
6.01601
20
-2.72944
11
6.01117
21
-2.73521
0
LINE
8
BLACK
6
CONTINUOUS
10
6.01117
20
-2.73521
11
6.00755
21
-2.74181
0
LINE
8
BLACK
6
CONTINUOUS
10
6.00755
20
-2.74181
11
6.00527
21
-2.74898
0
LINE
8
BLACK
6
CONTINUOUS
10
6.00527
20
-2.74898
11
6.00443
21
-2.75646
0
LINE
8
BLACK
6
CONTINUOUS
10
6.00443
20
-2.75646
11
6.00506
21
-2.76396
0
LINE
8
BLACK
6
CONTINUOUS
10
6.00506
20
-2.76396
11
6.00714
21
-2.7712
  0
ENDSEC
  0
EOF
