  0
SECTION
  2
HEADER
  9
$ANGBASE
  50
0.0
  9
$ANGDIR
  70
1
  9
$MEASUREMENT
  70
0
  0
ENDSEC
  0
SECTION
  2
TABLES
  0
TABLE
  2
LTYPE
  70
4
  0
LTYPE
  5
40F
  2
CONTINUOUS
  70
0
  3
Solid line
  72
65
  73
0
  40
0.0
  0
LTYPE
  5
410
  2
DASHDOT
 70
0
  3
Dash Dot ____ _ ____ _
 72
65
 73
4
 40
2.0
 49
1.25
 49
-0.25
 49
0.25
 49
-0.25
  0
LTYPE
  5
411
  2
DASHED
 70
0
  3
Dashed __ __ __ __ __
 72
65
 73
2
 40
0.75
 49
0.5
 49
-0.25
  0
LTYPE
  5
43B
  2
DOTTED
 70
0
  3
Dotted .  .  .  .
 72
65
 73
2
 40
0.2
 49
0.0
 49
-0.2
  0
ENDTAB
  0
TABLE
  2
STYLE
  70
4
  0
STYLE
  2
KICAD
  70
0
  40
0
  41
1
  42
1
  50
0
  71
0
  3
isocp.shx
  0
STYLE
  2
KICADB
  70
0
  40
0
  41
1
  42
1
  50
0
  71
0
  3
isocp.shx
  0
STYLE
  2
KICADI
  70
0
  40
0
  41
1
  42
1
  50
15
  71
0
  3
isocp.shx
  0
STYLE
  2
KICADBI
  70
0
  40
0
  41
1
  42
1
  50
15
  71
0
  3
isocp.shx
  0
ENDTAB
  0
TABLE
  2
LAYER
  70
1
  0
LAYER
  2
BLACK
  70
0
  62
7
  6
CONTINUOUS
  0
ENDTAB
  0
ENDSEC
  0
SECTION
  2
ENTITIES
0
LINE
8
BLACK
6
CONTINUOUS
10
6.147872755905512
20
-3.290421062992126
11
6.1554429527559051
21
-3.2927174409448816
0
LINE
8
BLACK
6
CONTINUOUS
10
6.1554429527559051
20
-3.2927174409448816
11
6.1624196456692912
21
-3.2964466141732283
0
LINE
8
BLACK
6
CONTINUOUS
10
6.1624196456692912
20
-3.2964466141732283
11
6.1685348031496066
21
-3.3014651968503936
0
LINE
8
BLACK
6
CONTINUOUS
10
6.1685348031496066
20
-3.3014651968503936
11
6.1735533858267715
21
-3.3075803543307085
0
LINE
8
BLACK
6
CONTINUOUS
10
6.1735533858267715
20
-3.3075803543307085
11
6.1772825590551177
21
-3.3145570472440946
0
LINE
8
BLACK
6
CONTINUOUS
10
6.1772825590551177
20
-3.3145570472440946
11
6.1795789370078742
21
-3.3221272440944882
0
LINE
8
BLACK
6
CONTINUOUS
10
6.1795789370078742
20
-3.3221272440944882
11
6.1803543307086617
21
-3.3300000000000001
0
LINE
8
BLACK
6
CONTINUOUS
10
6.1803543307086617
20
-3.3300000000000001
11
6.1795789370078742
21
-3.3378727559055119
0
LINE
8
BLACK
6
CONTINUOUS
10
6.1795789370078742
20
-3.3378727559055119
11
6.1772825590551177
21
-3.3454429527559055
0
LINE
8
BLACK
6
CONTINUOUS
10
6.1772825590551177
20
-3.3454429527559055
11
6.1735533858267715
21
-3.3524196456692912
0
LINE
8
BLACK
6
CONTINUOUS
10
6.1735533858267715
20
-3.3524196456692912
11
6.1685348031496066
21
-3.3585348031496061
0
LINE
8
BLACK
6
CONTINUOUS
10
6.1685348031496066
20
-3.3585348031496061
11
6.1624196456692912
21
-3.3635533858267714
0
LINE
8
BLACK
6
CONTINUOUS
10
6.1624196456692912
20
-3.3635533858267714
11
6.1554429527559051
21
-3.3672825590551181
0
LINE
8
BLACK
6
CONTINUOUS
10
6.1554429527559051
20
-3.3672825590551181
11
6.147872755905512
21
-3.3695789370078741
0
LINE
8
BLACK
6
CONTINUOUS
10
6.147872755905512
20
-3.3695789370078741
11
6.1399999999999997
21
-3.3703543307086612
0
LINE
8
BLACK
6
CONTINUOUS
10
6.1399999999999997
20
-3.3703543307086612
11
6.1321272440944883
21
-3.3695789370078741
0
LINE
8
BLACK
6
CONTINUOUS
10
6.1321272440944883
20
-3.3695789370078741
11
6.1245570472440942
21
-3.3672825590551181
0
LINE
8
BLACK
6
CONTINUOUS
10
6.1245570472440942
20
-3.3672825590551181
11
6.1175803543307081
21
-3.3635533858267714
0
LINE
8
BLACK
6
CONTINUOUS
10
6.1175803543307081
20
-3.3635533858267714
11
6.1114651968503937
21
-3.3585348031496061
0
LINE
8
BLACK
6
CONTINUOUS
10
6.1114651968503937
20
-3.3585348031496061
11
6.1064466141732279
21
-3.3524196456692912
0
LINE
8
BLACK
6
CONTINUOUS
10
6.1064466141732279
20
-3.3524196456692912
11
6.1027174409448817
21
-3.3454429527559055
0
LINE
8
BLACK
6
CONTINUOUS
10
6.1027174409448817
20
-3.3454429527559055
11
6.1004210629921261
21
-3.3378727559055119
0
LINE
8
BLACK
6
CONTINUOUS
10
6.1004210629921261
20
-3.3378727559055119
11
6.0996456692913386
21
-3.3300000000000001
0
LINE
8
BLACK
6
CONTINUOUS
10
6.0996456692913386
20
-3.3300000000000001
11
6.1004210629921261
21
-3.3221272440944882
0
LINE
8
BLACK
6
CONTINUOUS
10
6.1004210629921261
20
-3.3221272440944882
11
6.1027174409448817
21
-3.3145570472440946
0
LINE
8
BLACK
6
CONTINUOUS
10
6.1027174409448817
20
-3.3145570472440946
11
6.1064466141732279
21
-3.3075803543307085
0
LINE
8
BLACK
6
CONTINUOUS
10
6.1064466141732279
20
-3.3075803543307085
11
6.1114651968503937
21
-3.3014651968503936
0
LINE
8
BLACK
6
CONTINUOUS
10
6.1114651968503937
20
-3.3014651968503936
11
6.1175803543307081
21
-3.2964466141732283
0
LINE
8
BLACK
6
CONTINUOUS
10
6.1175803543307081
20
-3.2964466141732283
11
6.1245570472440942
21
-3.2927174409448816
0
LINE
8
BLACK
6
CONTINUOUS
10
6.1245570472440942
20
-3.2927174409448816
11
6.1321272440944883
21
-3.290421062992126
0
LINE
8
BLACK
6
CONTINUOUS
10
6.1321272440944883
20
-3.290421062992126
11
6.1399999999999997
21
-3.2896456692913385
0
LINE
8
BLACK
6
CONTINUOUS
10
6.1399999999999997
20
-3.2896456692913385
11
6.147872755905512
21
-3.290421062992126
0
LINE
8
BLACK
6
CONTINUOUS
10
6.1021695669291338
20
-3.3375249606299211
11
6.1043645275590546
21
-3.3447607086614171
0
LINE
8
BLACK
6
CONTINUOUS
10
6.1043645275590546
20
-3.3447607086614171
11
6.1079288976377955
21
-3.3514292125984251
0
LINE
8
BLACK
6
CONTINUOUS
10
6.1079288976377955
20
-3.3514292125984251
11
6.1127257874015744
21
-3.357274212598425
0
LINE
8
BLACK
6
CONTINUOUS
10
6.1127257874015744
20
-3.357274212598425
11
6.1185707874015742
21
-3.3620711023622047
0
LINE
8
BLACK
6
CONTINUOUS
10
6.1185707874015742
20
-3.3620711023622047
11
6.1252392913385822
21
-3.3656354724409447
0
LINE
8
BLACK
6
CONTINUOUS
10
6.1252392913385822
20
-3.3656354724409447
11
6.1324750393700782
21
-3.3678304330708659
0
LINE
8
BLACK
6
CONTINUOUS
10
6.1324750393700782
20
-3.3678304330708659
11
6.1399999999999997
21
-3.3685715748031497
0
LINE
8
BLACK
6
CONTINUOUS
10
6.1399999999999997
20
-3.3685715748031497
11
6.1475249606299212
21
-3.3678304330708659
0
LINE
8
BLACK
6
CONTINUOUS
10
6.1475249606299212
20
-3.3678304330708659
11
6.1547607086614171
21
-3.3656354724409447
0
LINE
8
BLACK
6
CONTINUOUS
10
6.1547607086614171
20
-3.3656354724409447
11
6.1614292125984251
21
-3.3620711023622047
0
LINE
8
BLACK
6
CONTINUOUS
10
6.1614292125984251
20
-3.3620711023622047
11
6.167274212598425
21
-3.357274212598425
0
LINE
8
BLACK
6
CONTINUOUS
10
6.167274212598425
20
-3.357274212598425
11
6.1720711023622048
21
-3.3514292125984251
0
LINE
8
BLACK
6
CONTINUOUS
10
6.1720711023622048
20
-3.3514292125984251
11
6.1756354724409448
21
-3.3447607086614171
0
LINE
8
BLACK
6
CONTINUOUS
10
6.1756354724409448
20
-3.3447607086614171
11
6.1778304330708664
21
-3.3375249606299211
0
LINE
8
BLACK
6
CONTINUOUS
10
6.1778304330708664
20
-3.3375249606299211
11
6.1785715748031498
21
-3.3300000000000001
0
LINE
8
BLACK
6
CONTINUOUS
10
6.1785715748031498
20
-3.3300000000000001
11
6.1778304330708664
21
-3.3224750393700786
0
LINE
8
BLACK
6
CONTINUOUS
10
6.1778304330708664
20
-3.3224750393700786
11
6.1756354724409448
21
-3.3152392913385826
0
LINE
8
BLACK
6
CONTINUOUS
10
6.1756354724409448
20
-3.3152392913385826
11
6.1720711023622048
21
-3.3085707874015746
0
LINE
8
BLACK
6
CONTINUOUS
10
6.1720711023622048
20
-3.3085707874015746
11
6.167274212598425
21
-3.3027257874015747
0
LINE
8
BLACK
6
CONTINUOUS
10
6.167274212598425
20
-3.3027257874015747
11
6.1614292125984251
21
-3.2979288976377954
0
LINE
8
BLACK
6
CONTINUOUS
10
6.1614292125984251
20
-3.2979288976377954
11
6.1547607086614171
21
-3.294364527559055
0
LINE
8
BLACK
6
CONTINUOUS
10
6.1547607086614171
20
-3.294364527559055
11
6.1475249606299212
21
-3.2921695669291338
0
LINE
8
BLACK
6
CONTINUOUS
10
6.1475249606299212
20
-3.2921695669291338
11
6.1399999999999997
21
-3.2914284251968504
0
LINE
8
BLACK
6
CONTINUOUS
10
6.1399999999999997
20
-3.2914284251968504
11
6.1324750393700782
21
-3.2921695669291338
0
LINE
8
BLACK
6
CONTINUOUS
10
6.1324750393700782
20
-3.2921695669291338
11
6.1252392913385822
21
-3.294364527559055
0
LINE
8
BLACK
6
CONTINUOUS
10
6.1252392913385822
20
-3.294364527559055
11
6.1185707874015742
21
-3.2979288976377954
0
LINE
8
BLACK
6
CONTINUOUS
10
6.1185707874015742
20
-3.2979288976377954
11
6.1127257874015744
21
-3.3027257874015747
0
LINE
8
BLACK
6
CONTINUOUS
10
6.1127257874015744
20
-3.3027257874015747
11
6.1079288976377955
21
-3.3085707874015746
0
LINE
8
BLACK
6
CONTINUOUS
10
6.1079288976377955
20
-3.3085707874015746
11
6.1043645275590546
21
-3.3152392913385826
0
LINE
8
BLACK
6
CONTINUOUS
10
6.1043645275590546
20
-3.3152392913385826
11
6.1021695669291338
21
-3.3224750393700786
0
LINE
8
BLACK
6
CONTINUOUS
10
6.1021695669291338
20
-3.3224750393700786
11
6.1014284251968505
21
-3.3300000000000001
0
LINE
8
BLACK
6
CONTINUOUS
10
6.1014284251968505
20
-3.3300000000000001
11
6.1021695669291338
21
-3.3375249606299211
0
LINE
8
BLACK
6
CONTINUOUS
10
7.0578727559055112
20
-3.270421062992126
11
7.0654429527559053
21
-3.2727174409448816
0
LINE
8
BLACK
6
CONTINUOUS
10
7.0654429527559053
20
-3.2727174409448816
11
7.0724196456692914
21
-3.2764466141732282
0
LINE
8
BLACK
6
CONTINUOUS
10
7.0724196456692914
20
-3.2764466141732282
11
7.0785348031496058
21
-3.2814651968503936
0
LINE
8
BLACK
6
CONTINUOUS
10
7.0785348031496058
20
-3.2814651968503936
11
7.0835533858267716
21
-3.2875803543307085
0
LINE
8
BLACK
6
CONTINUOUS
10
7.0835533858267716
20
-3.2875803543307085
11
7.0872825590551178
21
-3.2945570472440946
0
LINE
8
BLACK
6
CONTINUOUS
10
7.0872825590551178
20
-3.2945570472440946
11
7.0895789370078734
21
-3.3021272440944882
0
LINE
8
BLACK
6
CONTINUOUS
10
7.0895789370078734
20
-3.3021272440944882
11
7.0903543307086609
21
-3.3100000000000001
0
LINE
8
BLACK
6
CONTINUOUS
10
7.0903543307086609
20
-3.3100000000000001
11
7.0895789370078734
21
-3.3178727559055119
0
LINE
8
BLACK
6
CONTINUOUS
10
7.0895789370078734
20
-3.3178727559055119
11
7.0872825590551178
21
-3.3254429527559055
0
LINE
8
BLACK
6
CONTINUOUS
10
7.0872825590551178
20
-3.3254429527559055
11
7.0835533858267716
21
-3.3324196456692912
0
LINE
8
BLACK
6
CONTINUOUS
10
7.0835533858267716
20
-3.3324196456692912
11
7.0785348031496058
21
-3.338534803149606
0
LINE
8
BLACK
6
CONTINUOUS
10
7.0785348031496058
20
-3.338534803149606
11
7.0724196456692914
21
-3.3435533858267714
0
LINE
8
BLACK
6
CONTINUOUS
10
7.0724196456692914
20
-3.3435533858267714
11
7.0654429527559053
21
-3.3472825590551181
0
LINE
8
BLACK
6
CONTINUOUS
10
7.0654429527559053
20
-3.3472825590551181
11
7.0578727559055112
21
-3.3495789370078741
0
LINE
8
BLACK
6
CONTINUOUS
10
7.0578727559055112
20
-3.3495789370078741
11
7.0499999999999998
21
-3.3503543307086612
0
LINE
8
BLACK
6
CONTINUOUS
10
7.0499999999999998
20
-3.3503543307086612
11
7.0421272440944884
21
-3.3495789370078741
0
LINE
8
BLACK
6
CONTINUOUS
10
7.0421272440944884
20
-3.3495789370078741
11
7.0345570472440944
21
-3.3472825590551181
0
LINE
8
BLACK
6
CONTINUOUS
10
7.0345570472440944
20
-3.3472825590551181
11
7.0275803543307083
21
-3.3435533858267714
0
LINE
8
BLACK
6
CONTINUOUS
10
7.0275803543307083
20
-3.3435533858267714
11
7.0214651968503938
21
-3.338534803149606
0
LINE
8
BLACK
6
CONTINUOUS
10
7.0214651968503938
20
-3.338534803149606
11
7.016446614173228
21
-3.3324196456692912
0
LINE
8
BLACK
6
CONTINUOUS
10
7.016446614173228
20
-3.3324196456692912
11
7.0127174409448818
21
-3.3254429527559055
0
LINE
8
BLACK
6
CONTINUOUS
10
7.0127174409448818
20
-3.3254429527559055
11
7.0104210629921262
21
-3.3178727559055119
0
LINE
8
BLACK
6
CONTINUOUS
10
7.0104210629921262
20
-3.3178727559055119
11
7.0096456692913387
21
-3.3100000000000001
0
LINE
8
BLACK
6
CONTINUOUS
10
7.0096456692913387
20
-3.3100000000000001
11
7.0104210629921262
21
-3.3021272440944882
0
LINE
8
BLACK
6
CONTINUOUS
10
7.0104210629921262
20
-3.3021272440944882
11
7.0127174409448818
21
-3.2945570472440946
0
LINE
8
BLACK
6
CONTINUOUS
10
7.0127174409448818
20
-3.2945570472440946
11
7.016446614173228
21
-3.2875803543307085
0
LINE
8
BLACK
6
CONTINUOUS
10
7.016446614173228
20
-3.2875803543307085
11
7.0214651968503938
21
-3.2814651968503936
0
LINE
8
BLACK
6
CONTINUOUS
10
7.0214651968503938
20
-3.2814651968503936
11
7.0275803543307083
21
-3.2764466141732282
0
LINE
8
BLACK
6
CONTINUOUS
10
7.0275803543307083
20
-3.2764466141732282
11
7.0345570472440944
21
-3.2727174409448816
0
LINE
8
BLACK
6
CONTINUOUS
10
7.0345570472440944
20
-3.2727174409448816
11
7.0421272440944884
21
-3.270421062992126
0
LINE
8
BLACK
6
CONTINUOUS
10
7.0421272440944884
20
-3.270421062992126
11
7.0499999999999998
21
-3.2696456692913385
0
LINE
8
BLACK
6
CONTINUOUS
10
7.0499999999999998
20
-3.2696456692913385
11
7.0578727559055112
21
-3.270421062992126
0
LINE
8
BLACK
6
CONTINUOUS
10
7.012169566929134
20
-3.3175249606299211
11
7.0143645275590547
21
-3.324760708661417
0
LINE
8
BLACK
6
CONTINUOUS
10
7.0143645275590547
20
-3.324760708661417
11
7.0179288976377947
21
-3.3314292125984251
0
LINE
8
BLACK
6
CONTINUOUS
10
7.0179288976377947
20
-3.3314292125984251
11
7.0227257874015745
21
-3.3372742125984249
0
LINE
8
BLACK
6
CONTINUOUS
10
7.0227257874015745
20
-3.3372742125984249
11
7.0285707874015744
21
-3.3420711023622047
0
LINE
8
BLACK
6
CONTINUOUS
10
7.0285707874015744
20
-3.3420711023622047
11
7.0352392913385824
21
-3.3456354724409447
0
LINE
8
BLACK
6
CONTINUOUS
10
7.0352392913385824
20
-3.3456354724409447
11
7.0424750393700783
21
-3.3478304330708659
0
LINE
8
BLACK
6
CONTINUOUS
10
7.0424750393700783
20
-3.3478304330708659
11
7.0499999999999998
21
-3.3485715748031497
0
LINE
8
BLACK
6
CONTINUOUS
10
7.0499999999999998
20
-3.3485715748031497
11
7.0575249606299213
21
-3.3478304330708659
0
LINE
8
BLACK
6
CONTINUOUS
10
7.0575249606299213
20
-3.3478304330708659
11
7.0647607086614173
21
-3.3456354724409447
0
LINE
8
BLACK
6
CONTINUOUS
10
7.0647607086614173
20
-3.3456354724409447
11
7.0714292125984253
21
-3.3420711023622047
0
LINE
8
BLACK
6
CONTINUOUS
10
7.0714292125984253
20
-3.3420711023622047
11
7.0772742125984252
21
-3.3372742125984249
0
LINE
8
BLACK
6
CONTINUOUS
10
7.0772742125984252
20
-3.3372742125984249
11
7.0820711023622049
21
-3.3314292125984251
0
LINE
8
BLACK
6
CONTINUOUS
10
7.0820711023622049
20
-3.3314292125984251
11
7.0856354724409449
21
-3.324760708661417
0
LINE
8
BLACK
6
CONTINUOUS
10
7.0856354724409449
20
-3.324760708661417
11
7.0878304330708657
21
-3.3175249606299211
0
LINE
8
BLACK
6
CONTINUOUS
10
7.0878304330708657
20
-3.3175249606299211
11
7.088571574803149
21
-3.3100000000000001
0
LINE
8
BLACK
6
CONTINUOUS
10
7.088571574803149
20
-3.3100000000000001
11
7.0878304330708657
21
-3.3024750393700786
0
LINE
8
BLACK
6
CONTINUOUS
10
7.0878304330708657
20
-3.3024750393700786
11
7.0856354724409449
21
-3.2952392913385826
0
LINE
8
BLACK
6
CONTINUOUS
10
7.0856354724409449
20
-3.2952392913385826
11
7.0820711023622049
21
-3.2885707874015746
0
LINE
8
BLACK
6
CONTINUOUS
10
7.0820711023622049
20
-3.2885707874015746
11
7.0772742125984252
21
-3.2827257874015747
0
LINE
8
BLACK
6
CONTINUOUS
10
7.0772742125984252
20
-3.2827257874015747
11
7.0714292125984253
21
-3.2779288976377954
0
LINE
8
BLACK
6
CONTINUOUS
10
7.0714292125984253
20
-3.2779288976377954
11
7.0647607086614173
21
-3.2743645275590549
0
LINE
8
BLACK
6
CONTINUOUS
10
7.0647607086614173
20
-3.2743645275590549
11
7.0575249606299213
21
-3.2721695669291337
0
LINE
8
BLACK
6
CONTINUOUS
10
7.0575249606299213
20
-3.2721695669291337
11
7.0499999999999998
21
-3.2714284251968504
0
LINE
8
BLACK
6
CONTINUOUS
10
7.0499999999999998
20
-3.2714284251968504
11
7.0424750393700783
21
-3.2721695669291337
0
LINE
8
BLACK
6
CONTINUOUS
10
7.0424750393700783
20
-3.2721695669291337
11
7.0352392913385824
21
-3.2743645275590549
0
LINE
8
BLACK
6
CONTINUOUS
10
7.0352392913385824
20
-3.2743645275590549
11
7.0285707874015744
21
-3.2779288976377954
0
LINE
8
BLACK
6
CONTINUOUS
10
7.0285707874015744
20
-3.2779288976377954
11
7.0227257874015745
21
-3.2827257874015747
0
LINE
8
BLACK
6
CONTINUOUS
10
7.0227257874015745
20
-3.2827257874015747
11
7.0179288976377947
21
-3.2885707874015746
0
LINE
8
BLACK
6
CONTINUOUS
10
7.0179288976377947
20
-3.2885707874015746
11
7.0143645275590547
21
-3.2952392913385826
0
LINE
8
BLACK
6
CONTINUOUS
10
7.0143645275590547
20
-3.2952392913385826
11
7.012169566929134
21
-3.3024750393700786
0
LINE
8
BLACK
6
CONTINUOUS
10
7.012169566929134
20
-3.3024750393700786
11
7.0114284251968506
21
-3.3100000000000001
0
LINE
8
BLACK
6
CONTINUOUS
10
7.0114284251968506
20
-3.3100000000000001
11
7.012169566929134
21
-3.3175249606299211
0
LINE
8
BLACK
6
CONTINUOUS
10
7.0578727559055112
20
-3.1404210629921261
11
7.0654429527559053
21
-3.1427174409448817
0
LINE
8
BLACK
6
CONTINUOUS
10
7.0654429527559053
20
-3.1427174409448817
11
7.0724196456692914
21
-3.1464466141732284
0
LINE
8
BLACK
6
CONTINUOUS
10
7.0724196456692914
20
-3.1464466141732284
11
7.0785348031496058
21
-3.1514651968503937
0
LINE
8
BLACK
6
CONTINUOUS
10
7.0785348031496058
20
-3.1514651968503937
11
7.0835533858267716
21
-3.1575803543307086
0
LINE
8
BLACK
6
CONTINUOUS
10
7.0835533858267716
20
-3.1575803543307086
11
7.0872825590551178
21
-3.1645570472440943
0
LINE
8
BLACK
6
CONTINUOUS
10
7.0872825590551178
20
-3.1645570472440943
11
7.0895789370078734
21
-3.1721272440944883
0
LINE
8
BLACK
6
CONTINUOUS
10
7.0895789370078734
20
-3.1721272440944883
11
7.0903543307086609
21
-3.1799999999999997
0
LINE
8
BLACK
6
CONTINUOUS
10
7.0903543307086609
20
-3.1799999999999997
11
7.0895789370078734
21
-3.1878727559055116
0
LINE
8
BLACK
6
CONTINUOUS
10
7.0895789370078734
20
-3.1878727559055116
11
7.0872825590551178
21
-3.1954429527559056
0
LINE
8
BLACK
6
CONTINUOUS
10
7.0872825590551178
20
-3.1954429527559056
11
7.0835533858267716
21
-3.2024196456692913
0
LINE
8
BLACK
6
CONTINUOUS
10
7.0835533858267716
20
-3.2024196456692913
11
7.0785348031496058
21
-3.2085348031496062
0
LINE
8
BLACK
6
CONTINUOUS
10
7.0785348031496058
20
-3.2085348031496062
11
7.0724196456692914
21
-3.2135533858267715
0
LINE
8
BLACK
6
CONTINUOUS
10
7.0724196456692914
20
-3.2135533858267715
11
7.0654429527559053
21
-3.2172825590551182
0
LINE
8
BLACK
6
CONTINUOUS
10
7.0654429527559053
20
-3.2172825590551182
11
7.0578727559055112
21
-3.2195789370078738
0
LINE
8
BLACK
6
CONTINUOUS
10
7.0578727559055112
20
-3.2195789370078738
11
7.0499999999999998
21
-3.2203543307086613
0
LINE
8
BLACK
6
CONTINUOUS
10
7.0499999999999998
20
-3.2203543307086613
11
7.0421272440944884
21
-3.2195789370078738
0
LINE
8
BLACK
6
CONTINUOUS
10
7.0421272440944884
20
-3.2195789370078738
11
7.0345570472440944
21
-3.2172825590551182
0
LINE
8
BLACK
6
CONTINUOUS
10
7.0345570472440944
20
-3.2172825590551182
11
7.0275803543307083
21
-3.2135533858267715
0
LINE
8
BLACK
6
CONTINUOUS
10
7.0275803543307083
20
-3.2135533858267715
11
7.0214651968503938
21
-3.2085348031496062
0
LINE
8
BLACK
6
CONTINUOUS
10
7.0214651968503938
20
-3.2085348031496062
11
7.016446614173228
21
-3.2024196456692913
0
LINE
8
BLACK
6
CONTINUOUS
10
7.016446614173228
20
-3.2024196456692913
11
7.0127174409448818
21
-3.1954429527559056
0
LINE
8
BLACK
6
CONTINUOUS
10
7.0127174409448818
20
-3.1954429527559056
11
7.0104210629921262
21
-3.1878727559055116
0
LINE
8
BLACK
6
CONTINUOUS
10
7.0104210629921262
20
-3.1878727559055116
11
7.0096456692913387
21
-3.1799999999999997
0
LINE
8
BLACK
6
CONTINUOUS
10
7.0096456692913387
20
-3.1799999999999997
11
7.0104210629921262
21
-3.1721272440944883
0
LINE
8
BLACK
6
CONTINUOUS
10
7.0104210629921262
20
-3.1721272440944883
11
7.0127174409448818
21
-3.1645570472440943
0
LINE
8
BLACK
6
CONTINUOUS
10
7.0127174409448818
20
-3.1645570472440943
11
7.016446614173228
21
-3.1575803543307086
0
LINE
8
BLACK
6
CONTINUOUS
10
7.016446614173228
20
-3.1575803543307086
11
7.0214651968503938
21
-3.1514651968503937
0
LINE
8
BLACK
6
CONTINUOUS
10
7.0214651968503938
20
-3.1514651968503937
11
7.0275803543307083
21
-3.1464466141732284
0
LINE
8
BLACK
6
CONTINUOUS
10
7.0275803543307083
20
-3.1464466141732284
11
7.0345570472440944
21
-3.1427174409448817
0
LINE
8
BLACK
6
CONTINUOUS
10
7.0345570472440944
20
-3.1427174409448817
11
7.0421272440944884
21
-3.1404210629921261
0
LINE
8
BLACK
6
CONTINUOUS
10
7.0421272440944884
20
-3.1404210629921261
11
7.0499999999999998
21
-3.1396456692913386
0
LINE
8
BLACK
6
CONTINUOUS
10
7.0499999999999998
20
-3.1396456692913386
11
7.0578727559055112
21
-3.1404210629921261
0
LINE
8
BLACK
6
CONTINUOUS
10
7.012169566929134
20
-3.1875249606299212
11
7.0143645275590547
21
-3.1947607086614171
0
LINE
8
BLACK
6
CONTINUOUS
10
7.0143645275590547
20
-3.1947607086614171
11
7.0179288976377947
21
-3.2014292125984252
0
LINE
8
BLACK
6
CONTINUOUS
10
7.0179288976377947
20
-3.2014292125984252
11
7.0227257874015745
21
-3.207274212598425
0
LINE
8
BLACK
6
CONTINUOUS
10
7.0227257874015745
20
-3.207274212598425
11
7.0285707874015744
21
-3.2120711023622048
0
LINE
8
BLACK
6
CONTINUOUS
10
7.0285707874015744
20
-3.2120711023622048
11
7.0352392913385824
21
-3.2156354724409448
0
LINE
8
BLACK
6
CONTINUOUS
10
7.0352392913385824
20
-3.2156354724409448
11
7.0424750393700783
21
-3.217830433070866
0
LINE
8
BLACK
6
CONTINUOUS
10
7.0424750393700783
20
-3.217830433070866
11
7.0499999999999998
21
-3.2185715748031494
0
LINE
8
BLACK
6
CONTINUOUS
10
7.0499999999999998
20
-3.2185715748031494
11
7.0575249606299213
21
-3.217830433070866
0
LINE
8
BLACK
6
CONTINUOUS
10
7.0575249606299213
20
-3.217830433070866
11
7.0647607086614173
21
-3.2156354724409448
0
LINE
8
BLACK
6
CONTINUOUS
10
7.0647607086614173
20
-3.2156354724409448
11
7.0714292125984253
21
-3.2120711023622048
0
LINE
8
BLACK
6
CONTINUOUS
10
7.0714292125984253
20
-3.2120711023622048
11
7.0772742125984252
21
-3.207274212598425
0
LINE
8
BLACK
6
CONTINUOUS
10
7.0772742125984252
20
-3.207274212598425
11
7.0820711023622049
21
-3.2014292125984252
0
LINE
8
BLACK
6
CONTINUOUS
10
7.0820711023622049
20
-3.2014292125984252
11
7.0856354724409449
21
-3.1947607086614171
0
LINE
8
BLACK
6
CONTINUOUS
10
7.0856354724409449
20
-3.1947607086614171
11
7.0878304330708657
21
-3.1875249606299212
0
LINE
8
BLACK
6
CONTINUOUS
10
7.0878304330708657
20
-3.1875249606299212
11
7.088571574803149
21
-3.1799999999999997
0
LINE
8
BLACK
6
CONTINUOUS
10
7.088571574803149
20
-3.1799999999999997
11
7.0878304330708657
21
-3.1724750393700787
0
LINE
8
BLACK
6
CONTINUOUS
10
7.0878304330708657
20
-3.1724750393700787
11
7.0856354724409449
21
-3.1652392913385827
0
LINE
8
BLACK
6
CONTINUOUS
10
7.0856354724409449
20
-3.1652392913385827
11
7.0820711023622049
21
-3.1585707874015747
0
LINE
8
BLACK
6
CONTINUOUS
10
7.0820711023622049
20
-3.1585707874015747
11
7.0772742125984252
21
-3.1527257874015748
0
LINE
8
BLACK
6
CONTINUOUS
10
7.0772742125984252
20
-3.1527257874015748
11
7.0714292125984253
21
-3.147928897637795
0
LINE
8
BLACK
6
CONTINUOUS
10
7.0714292125984253
20
-3.147928897637795
11
7.0647607086614173
21
-3.144364527559055
0
LINE
8
BLACK
6
CONTINUOUS
10
7.0647607086614173
20
-3.144364527559055
11
7.0575249606299213
21
-3.1421695669291339
0
LINE
8
BLACK
6
CONTINUOUS
10
7.0575249606299213
20
-3.1421695669291339
11
7.0499999999999998
21
-3.1414284251968505
0
LINE
8
BLACK
6
CONTINUOUS
10
7.0499999999999998
20
-3.1414284251968505
11
7.0424750393700783
21
-3.1421695669291339
0
LINE
8
BLACK
6
CONTINUOUS
10
7.0424750393700783
20
-3.1421695669291339
11
7.0352392913385824
21
-3.144364527559055
0
LINE
8
BLACK
6
CONTINUOUS
10
7.0352392913385824
20
-3.144364527559055
11
7.0285707874015744
21
-3.147928897637795
0
LINE
8
BLACK
6
CONTINUOUS
10
7.0285707874015744
20
-3.147928897637795
11
7.0227257874015745
21
-3.1527257874015748
0
LINE
8
BLACK
6
CONTINUOUS
10
7.0227257874015745
20
-3.1527257874015748
11
7.0179288976377947
21
-3.1585707874015747
0
LINE
8
BLACK
6
CONTINUOUS
10
7.0179288976377947
20
-3.1585707874015747
11
7.0143645275590547
21
-3.1652392913385827
0
LINE
8
BLACK
6
CONTINUOUS
10
7.0143645275590547
20
-3.1652392913385827
11
7.012169566929134
21
-3.1724750393700787
0
LINE
8
BLACK
6
CONTINUOUS
10
7.012169566929134
20
-3.1724750393700787
11
7.0114284251968506
21
-3.1799999999999997
0
LINE
8
BLACK
6
CONTINUOUS
10
7.0114284251968506
20
-3.1799999999999997
11
7.012169566929134
21
-3.1875249606299212
0
LINE
8
BLACK
6
CONTINUOUS
10
6.6138727559055113
20
-3.1164210629921261
11
6.6214429527559053
21
-3.1187174409448817
0
LINE
8
BLACK
6
CONTINUOUS
10
6.6214429527559053
20
-3.1187174409448817
11
6.6284196456692914
21
-3.1224466141732283
0
LINE
8
BLACK
6
CONTINUOUS
10
6.6284196456692914
20
-3.1224466141732283
11
6.6345348031496059
21
-3.1274651968503937
0
LINE
8
BLACK
6
CONTINUOUS
10
6.6345348031496059
20
-3.1274651968503937
11
6.6395533858267717
21
-3.1335803543307086
0
LINE
8
BLACK
6
CONTINUOUS
10
6.6395533858267717
20
-3.1335803543307086
11
6.6432825590551179
21
-3.1405570472440942
0
LINE
8
BLACK
6
CONTINUOUS
10
6.6432825590551179
20
-3.1405570472440942
11
6.6455789370078735
21
-3.1481272440944883
0
LINE
8
BLACK
6
CONTINUOUS
10
6.6455789370078735
20
-3.1481272440944883
11
6.646354330708661
21
-3.1560000000000001
0
LINE
8
BLACK
6
CONTINUOUS
10
6.646354330708661
20
-3.1560000000000001
11
6.6455789370078735
21
-3.1638727559055115
0
LINE
8
BLACK
6
CONTINUOUS
10
6.6455789370078735
20
-3.1638727559055115
11
6.6432825590551179
21
-3.1714429527559056
0
LINE
8
BLACK
6
CONTINUOUS
10
6.6432825590551179
20
-3.1714429527559056
11
6.6395533858267717
21
-3.1784196456692912
0
LINE
8
BLACK
6
CONTINUOUS
10
6.6395533858267717
20
-3.1784196456692912
11
6.6345348031496059
21
-3.1845348031496061
0
LINE
8
BLACK
6
CONTINUOUS
10
6.6345348031496059
20
-3.1845348031496061
11
6.6284196456692914
21
-3.1895533858267715
0
LINE
8
BLACK
6
CONTINUOUS
10
6.6284196456692914
20
-3.1895533858267715
11
6.6214429527559053
21
-3.1932825590551182
0
LINE
8
BLACK
6
CONTINUOUS
10
6.6214429527559053
20
-3.1932825590551182
11
6.6138727559055113
21
-3.1955789370078738
0
LINE
8
BLACK
6
CONTINUOUS
10
6.6138727559055113
20
-3.1955789370078738
11
6.6059999999999999
21
-3.1963543307086613
0
LINE
8
BLACK
6
CONTINUOUS
10
6.6059999999999999
20
-3.1963543307086613
11
6.5981272440944885
21
-3.1955789370078738
0
LINE
8
BLACK
6
CONTINUOUS
10
6.5981272440944885
20
-3.1955789370078738
11
6.5905570472440944
21
-3.1932825590551182
0
LINE
8
BLACK
6
CONTINUOUS
10
6.5905570472440944
20
-3.1932825590551182
11
6.5835803543307083
21
-3.1895533858267715
0
LINE
8
BLACK
6
CONTINUOUS
10
6.5835803543307083
20
-3.1895533858267715
11
6.5774651968503939
21
-3.1845348031496061
0
LINE
8
BLACK
6
CONTINUOUS
10
6.5774651968503939
20
-3.1845348031496061
11
6.5724466141732281
21
-3.1784196456692912
0
LINE
8
BLACK
6
CONTINUOUS
10
6.5724466141732281
20
-3.1784196456692912
11
6.5687174409448819
21
-3.1714429527559056
0
LINE
8
BLACK
6
CONTINUOUS
10
6.5687174409448819
20
-3.1714429527559056
11
6.5664210629921262
21
-3.1638727559055115
0
LINE
8
BLACK
6
CONTINUOUS
10
6.5664210629921262
20
-3.1638727559055115
11
6.5656456692913387
21
-3.1560000000000001
0
LINE
8
BLACK
6
CONTINUOUS
10
6.5656456692913387
20
-3.1560000000000001
11
6.5664210629921262
21
-3.1481272440944883
0
LINE
8
BLACK
6
CONTINUOUS
10
6.5664210629921262
20
-3.1481272440944883
11
6.5687174409448819
21
-3.1405570472440942
0
LINE
8
BLACK
6
CONTINUOUS
10
6.5687174409448819
20
-3.1405570472440942
11
6.5724466141732281
21
-3.1335803543307086
0
LINE
8
BLACK
6
CONTINUOUS
10
6.5724466141732281
20
-3.1335803543307086
11
6.5774651968503939
21
-3.1274651968503937
0
LINE
8
BLACK
6
CONTINUOUS
10
6.5774651968503939
20
-3.1274651968503937
11
6.5835803543307083
21
-3.1224466141732283
0
LINE
8
BLACK
6
CONTINUOUS
10
6.5835803543307083
20
-3.1224466141732283
11
6.5905570472440944
21
-3.1187174409448817
0
LINE
8
BLACK
6
CONTINUOUS
10
6.5905570472440944
20
-3.1187174409448817
11
6.5981272440944885
21
-3.1164210629921261
0
LINE
8
BLACK
6
CONTINUOUS
10
6.5981272440944885
20
-3.1164210629921261
11
6.6059999999999999
21
-3.1156456692913386
0
LINE
8
BLACK
6
CONTINUOUS
10
6.6059999999999999
20
-3.1156456692913386
11
6.6138727559055113
21
-3.1164210629921261
0
LINE
8
BLACK
6
CONTINUOUS
10
6.568169566929134
20
-3.1635249606299212
11
6.5703645275590548
21
-3.1707607086614171
0
LINE
8
BLACK
6
CONTINUOUS
10
6.5703645275590548
20
-3.1707607086614171
11
6.5739288976377948
21
-3.1774292125984251
0
LINE
8
BLACK
6
CONTINUOUS
10
6.5739288976377948
20
-3.1774292125984251
11
6.5787257874015745
21
-3.183274212598425
0
LINE
8
BLACK
6
CONTINUOUS
10
6.5787257874015745
20
-3.183274212598425
11
6.5845707874015744
21
-3.1880711023622048
0
LINE
8
BLACK
6
CONTINUOUS
10
6.5845707874015744
20
-3.1880711023622048
11
6.5912392913385824
21
-3.1916354724409448
0
LINE
8
BLACK
6
CONTINUOUS
10
6.5912392913385824
20
-3.1916354724409448
11
6.5984750393700784
21
-3.193830433070866
0
LINE
8
BLACK
6
CONTINUOUS
10
6.5984750393700784
20
-3.193830433070866
11
6.6059999999999999
21
-3.1945715748031493
0
LINE
8
BLACK
6
CONTINUOUS
10
6.6059999999999999
20
-3.1945715748031493
11
6.6135249606299213
21
-3.193830433070866
0
LINE
8
BLACK
6
CONTINUOUS
10
6.6135249606299213
20
-3.193830433070866
11
6.6207607086614173
21
-3.1916354724409448
0
LINE
8
BLACK
6
CONTINUOUS
10
6.6207607086614173
20
-3.1916354724409448
11
6.6274292125984253
21
-3.1880711023622048
0
LINE
8
BLACK
6
CONTINUOUS
10
6.6274292125984253
20
-3.1880711023622048
11
6.6332742125984252
21
-3.183274212598425
0
LINE
8
BLACK
6
CONTINUOUS
10
6.6332742125984252
20
-3.183274212598425
11
6.638071102362205
21
-3.1774292125984251
0
LINE
8
BLACK
6
CONTINUOUS
10
6.638071102362205
20
-3.1774292125984251
11
6.641635472440945
21
-3.1707607086614171
0
LINE
8
BLACK
6
CONTINUOUS
10
6.641635472440945
20
-3.1707607086614171
11
6.6438304330708657
21
-3.1635249606299212
0
LINE
8
BLACK
6
CONTINUOUS
10
6.6438304330708657
20
-3.1635249606299212
11
6.6445715748031491
21
-3.1560000000000001
0
LINE
8
BLACK
6
CONTINUOUS
10
6.6445715748031491
20
-3.1560000000000001
11
6.6438304330708657
21
-3.1484750393700787
0
LINE
8
BLACK
6
CONTINUOUS
10
6.6438304330708657
20
-3.1484750393700787
11
6.641635472440945
21
-3.1412392913385827
0
LINE
8
BLACK
6
CONTINUOUS
10
6.641635472440945
20
-3.1412392913385827
11
6.638071102362205
21
-3.1345707874015747
0
LINE
8
BLACK
6
CONTINUOUS
10
6.638071102362205
20
-3.1345707874015747
11
6.6332742125984252
21
-3.1287257874015748
0
LINE
8
BLACK
6
CONTINUOUS
10
6.6332742125984252
20
-3.1287257874015748
11
6.6274292125984253
21
-3.123928897637795
0
LINE
8
BLACK
6
CONTINUOUS
10
6.6274292125984253
20
-3.123928897637795
11
6.6207607086614173
21
-3.120364527559055
0
LINE
8
BLACK
6
CONTINUOUS
10
6.6207607086614173
20
-3.120364527559055
11
6.6135249606299213
21
-3.1181695669291338
0
LINE
8
BLACK
6
CONTINUOUS
10
6.6135249606299213
20
-3.1181695669291338
11
6.6059999999999999
21
-3.1174284251968505
0
LINE
8
BLACK
6
CONTINUOUS
10
6.6059999999999999
20
-3.1174284251968505
11
6.5984750393700784
21
-3.1181695669291338
0
LINE
8
BLACK
6
CONTINUOUS
10
6.5984750393700784
20
-3.1181695669291338
11
6.5912392913385824
21
-3.120364527559055
0
LINE
8
BLACK
6
CONTINUOUS
10
6.5912392913385824
20
-3.120364527559055
11
6.5845707874015744
21
-3.123928897637795
0
LINE
8
BLACK
6
CONTINUOUS
10
6.5845707874015744
20
-3.123928897637795
11
6.5787257874015745
21
-3.1287257874015748
0
LINE
8
BLACK
6
CONTINUOUS
10
6.5787257874015745
20
-3.1287257874015748
11
6.5739288976377948
21
-3.1345707874015747
0
LINE
8
BLACK
6
CONTINUOUS
10
6.5739288976377948
20
-3.1345707874015747
11
6.5703645275590548
21
-3.1412392913385827
0
LINE
8
BLACK
6
CONTINUOUS
10
6.5703645275590548
20
-3.1412392913385827
11
6.568169566929134
21
-3.1484750393700787
0
LINE
8
BLACK
6
CONTINUOUS
10
6.568169566929134
20
-3.1484750393700787
11
6.5674284251968507
21
-3.1560000000000001
0
LINE
8
BLACK
6
CONTINUOUS
10
6.5674284251968507
20
-3.1560000000000001
11
6.568169566929134
21
-3.1635249606299212
0
LINE
8
BLACK
6
CONTINUOUS
10
6.8378727559055115
20
-3.0504210629921258
11
6.8454429527559055
21
-3.0527174409448818
0
LINE
8
BLACK
6
CONTINUOUS
10
6.8454429527559055
20
-3.0527174409448818
11
6.8524196456692916
21
-3.0564466141732285
0
LINE
8
BLACK
6
CONTINUOUS
10
6.8524196456692916
20
-3.0564466141732285
11
6.8585348031496061
21
-3.0614651968503934
0
LINE
8
BLACK
6
CONTINUOUS
10
6.8585348031496061
20
-3.0614651968503934
11
6.8635533858267719
21
-3.0675803543307087
0
LINE
8
BLACK
6
CONTINUOUS
10
6.8635533858267719
20
-3.0675803543307087
11
6.8672825590551181
21
-3.0745570472440944
0
LINE
8
BLACK
6
CONTINUOUS
10
6.8672825590551181
20
-3.0745570472440944
11
6.8695789370078737
21
-3.082127244094488
0
LINE
8
BLACK
6
CONTINUOUS
10
6.8695789370078737
20
-3.082127244094488
11
6.8703543307086612
21
-3.0899999999999999
0
LINE
8
BLACK
6
CONTINUOUS
10
6.8703543307086612
20
-3.0899999999999999
11
6.8695789370078737
21
-3.0978727559055117
0
LINE
8
BLACK
6
CONTINUOUS
10
6.8695789370078737
20
-3.0978727559055117
11
6.8672825590551181
21
-3.1054429527559053
0
LINE
8
BLACK
6
CONTINUOUS
10
6.8672825590551181
20
-3.1054429527559053
11
6.8635533858267719
21
-3.1124196456692914
0
LINE
8
BLACK
6
CONTINUOUS
10
6.8635533858267719
20
-3.1124196456692914
11
6.8585348031496061
21
-3.1185348031496063
0
LINE
8
BLACK
6
CONTINUOUS
10
6.8585348031496061
20
-3.1185348031496063
11
6.8524196456692916
21
-3.1235533858267717
0
LINE
8
BLACK
6
CONTINUOUS
10
6.8524196456692916
20
-3.1235533858267717
11
6.8454429527559055
21
-3.1272825590551179
0
LINE
8
BLACK
6
CONTINUOUS
10
6.8454429527559055
20
-3.1272825590551179
11
6.8378727559055115
21
-3.1295789370078739
0
LINE
8
BLACK
6
CONTINUOUS
10
6.8378727559055115
20
-3.1295789370078739
11
6.8300000000000001
21
-3.1303543307086614
0
LINE
8
BLACK
6
CONTINUOUS
10
6.8300000000000001
20
-3.1303543307086614
11
6.8221272440944878
21
-3.1295789370078739
0
LINE
8
BLACK
6
CONTINUOUS
10
6.8221272440944878
20
-3.1295789370078739
11
6.8145570472440946
21
-3.1272825590551179
0
LINE
8
BLACK
6
CONTINUOUS
10
6.8145570472440946
20
-3.1272825590551179
11
6.8075803543307085
21
-3.1235533858267717
0
LINE
8
BLACK
6
CONTINUOUS
10
6.8075803543307085
20
-3.1235533858267717
11
6.8014651968503932
21
-3.1185348031496063
0
LINE
8
BLACK
6
CONTINUOUS
10
6.8014651968503932
20
-3.1185348031496063
11
6.7964466141732283
21
-3.1124196456692914
0
LINE
8
BLACK
6
CONTINUOUS
10
6.7964466141732283
20
-3.1124196456692914
11
6.7927174409448821
21
-3.1054429527559053
0
LINE
8
BLACK
6
CONTINUOUS
10
6.7927174409448821
20
-3.1054429527559053
11
6.7904210629921256
21
-3.0978727559055117
0
LINE
8
BLACK
6
CONTINUOUS
10
6.7904210629921256
20
-3.0978727559055117
11
6.7896456692913381
21
-3.0899999999999999
0
LINE
8
BLACK
6
CONTINUOUS
10
6.7896456692913381
20
-3.0899999999999999
11
6.7904210629921256
21
-3.082127244094488
0
LINE
8
BLACK
6
CONTINUOUS
10
6.7904210629921256
20
-3.082127244094488
11
6.7927174409448821
21
-3.0745570472440944
0
LINE
8
BLACK
6
CONTINUOUS
10
6.7927174409448821
20
-3.0745570472440944
11
6.7964466141732283
21
-3.0675803543307087
0
LINE
8
BLACK
6
CONTINUOUS
10
6.7964466141732283
20
-3.0675803543307087
11
6.8014651968503932
21
-3.0614651968503934
0
LINE
8
BLACK
6
CONTINUOUS
10
6.8014651968503932
20
-3.0614651968503934
11
6.8075803543307085
21
-3.0564466141732285
0
LINE
8
BLACK
6
CONTINUOUS
10
6.8075803543307085
20
-3.0564466141732285
11
6.8145570472440946
21
-3.0527174409448818
0
LINE
8
BLACK
6
CONTINUOUS
10
6.8145570472440946
20
-3.0527174409448818
11
6.8221272440944878
21
-3.0504210629921258
0
LINE
8
BLACK
6
CONTINUOUS
10
6.8221272440944878
20
-3.0504210629921258
11
6.8300000000000001
21
-3.0496456692913387
0
LINE
8
BLACK
6
CONTINUOUS
10
6.8300000000000001
20
-3.0496456692913387
11
6.8378727559055115
21
-3.0504210629921258
0
LINE
8
BLACK
6
CONTINUOUS
10
6.7921695669291333
20
-3.0975249606299213
11
6.794364527559055
21
-3.1047607086614173
0
LINE
8
BLACK
6
CONTINUOUS
10
6.794364527559055
20
-3.1047607086614173
11
6.797928897637795
21
-3.1114292125984253
0
LINE
8
BLACK
6
CONTINUOUS
10
6.797928897637795
20
-3.1114292125984253
11
6.8027257874015747
21
-3.1172742125984252
0
LINE
8
BLACK
6
CONTINUOUS
10
6.8027257874015747
20
-3.1172742125984252
11
6.8085707874015746
21
-3.1220711023622045
0
LINE
8
BLACK
6
CONTINUOUS
10
6.8085707874015746
20
-3.1220711023622045
11
6.8152392913385826
21
-3.125635472440945
0
LINE
8
BLACK
6
CONTINUOUS
10
6.8152392913385826
20
-3.125635472440945
11
6.8224750393700786
21
-3.1278304330708662
0
LINE
8
BLACK
6
CONTINUOUS
10
6.8224750393700786
20
-3.1278304330708662
11
6.8300000000000001
21
-3.1285715748031495
0
LINE
8
BLACK
6
CONTINUOUS
10
6.8300000000000001
20
-3.1285715748031495
11
6.8375249606299215
21
-3.1278304330708662
0
LINE
8
BLACK
6
CONTINUOUS
10
6.8375249606299215
20
-3.1278304330708662
11
6.8447607086614175
21
-3.125635472440945
0
LINE
8
BLACK
6
CONTINUOUS
10
6.8447607086614175
20
-3.125635472440945
11
6.8514292125984246
21
-3.1220711023622045
0
LINE
8
BLACK
6
CONTINUOUS
10
6.8514292125984246
20
-3.1220711023622045
11
6.8572742125984254
21
-3.1172742125984252
0
LINE
8
BLACK
6
CONTINUOUS
10
6.8572742125984254
20
-3.1172742125984252
11
6.8620711023622043
21
-3.1114292125984253
0
LINE
8
BLACK
6
CONTINUOUS
10
6.8620711023622043
20
-3.1114292125984253
11
6.8656354724409443
21
-3.1047607086614173
0
LINE
8
BLACK
6
CONTINUOUS
10
6.8656354724409443
20
-3.1047607086614173
11
6.8678304330708659
21
-3.0975249606299213
0
LINE
8
BLACK
6
CONTINUOUS
10
6.8678304330708659
20
-3.0975249606299213
11
6.8685715748031493
21
-3.0899999999999999
0
LINE
8
BLACK
6
CONTINUOUS
10
6.8685715748031493
20
-3.0899999999999999
11
6.8678304330708659
21
-3.0824750393700788
0
LINE
8
BLACK
6
CONTINUOUS
10
6.8678304330708659
20
-3.0824750393700788
11
6.8656354724409443
21
-3.0752392913385824
0
LINE
8
BLACK
6
CONTINUOUS
10
6.8656354724409443
20
-3.0752392913385824
11
6.8620711023622043
21
-3.0685707874015749
0
LINE
8
BLACK
6
CONTINUOUS
10
6.8620711023622043
20
-3.0685707874015749
11
6.8572742125984254
21
-3.0627257874015745
0
LINE
8
BLACK
6
CONTINUOUS
10
6.8572742125984254
20
-3.0627257874015745
11
6.8514292125984246
21
-3.0579288976377952
0
LINE
8
BLACK
6
CONTINUOUS
10
6.8514292125984246
20
-3.0579288976377952
11
6.8447607086614175
21
-3.0543645275590552
0
LINE
8
BLACK
6
CONTINUOUS
10
6.8447607086614175
20
-3.0543645275590552
11
6.8375249606299215
21
-3.052169566929134
0
LINE
8
BLACK
6
CONTINUOUS
10
6.8375249606299215
20
-3.052169566929134
11
6.8300000000000001
21
-3.0514284251968502
0
LINE
8
BLACK
6
CONTINUOUS
10
6.8300000000000001
20
-3.0514284251968502
11
6.8224750393700786
21
-3.052169566929134
0
LINE
8
BLACK
6
CONTINUOUS
10
6.8224750393700786
20
-3.052169566929134
11
6.8152392913385826
21
-3.0543645275590552
0
LINE
8
BLACK
6
CONTINUOUS
10
6.8152392913385826
20
-3.0543645275590552
11
6.8085707874015746
21
-3.0579288976377952
0
LINE
8
BLACK
6
CONTINUOUS
10
6.8085707874015746
20
-3.0579288976377952
11
6.8027257874015747
21
-3.0627257874015745
0
LINE
8
BLACK
6
CONTINUOUS
10
6.8027257874015747
20
-3.0627257874015745
11
6.797928897637795
21
-3.0685707874015749
0
LINE
8
BLACK
6
CONTINUOUS
10
6.797928897637795
20
-3.0685707874015749
11
6.794364527559055
21
-3.0752392913385824
0
LINE
8
BLACK
6
CONTINUOUS
10
6.794364527559055
20
-3.0752392913385824
11
6.7921695669291333
21
-3.0824750393700788
0
LINE
8
BLACK
6
CONTINUOUS
10
6.7921695669291333
20
-3.0824750393700788
11
6.79142842519685
21
-3.0899999999999999
0
LINE
8
BLACK
6
CONTINUOUS
10
6.79142842519685
20
-3.0899999999999999
11
6.7921695669291333
21
-3.0975249606299213
0
LINE
8
BLACK
6
CONTINUOUS
10
6.4758727559055114
20
-2.7184210629921259
11
6.4834429527559054
21
-2.720717440944882
0
LINE
8
BLACK
6
CONTINUOUS
10
6.4834429527559054
20
-2.720717440944882
11
6.4904196456692915
21
-2.7244466141732282
0
LINE
8
BLACK
6
CONTINUOUS
10
6.4904196456692915
20
-2.7244466141732282
11
6.496534803149606
21
-2.7294651968503936
0
LINE
8
BLACK
6
CONTINUOUS
10
6.496534803149606
20
-2.7294651968503936
11
6.5015533858267718
21
-2.7355803543307085
0
LINE
8
BLACK
6
CONTINUOUS
10
6.5015533858267718
20
-2.7355803543307085
11
6.505282559055118
21
-2.7425570472440945
0
LINE
8
BLACK
6
CONTINUOUS
10
6.505282559055118
20
-2.7425570472440945
11
6.5075789370078736
21
-2.7501272440944882
0
LINE
8
BLACK
6
CONTINUOUS
10
6.5075789370078736
20
-2.7501272440944882
11
6.5083543307086611
21
-2.758
0
LINE
8
BLACK
6
CONTINUOUS
10
6.5083543307086611
20
-2.758
11
6.5075789370078736
21
-2.7658727559055118
0
LINE
8
BLACK
6
CONTINUOUS
10
6.5075789370078736
20
-2.7658727559055118
11
6.505282559055118
21
-2.7734429527559055
0
LINE
8
BLACK
6
CONTINUOUS
10
6.505282559055118
20
-2.7734429527559055
11
6.5015533858267718
21
-2.7804196456692911
0
LINE
8
BLACK
6
CONTINUOUS
10
6.5015533858267718
20
-2.7804196456692911
11
6.496534803149606
21
-2.7865348031496064
0
LINE
8
BLACK
6
CONTINUOUS
10
6.496534803149606
20
-2.7865348031496064
11
6.4904196456692915
21
-2.7915533858267714
0
LINE
8
BLACK
6
CONTINUOUS
10
6.4904196456692915
20
-2.7915533858267714
11
6.4834429527559054
21
-2.795282559055118
0
LINE
8
BLACK
6
CONTINUOUS
10
6.4834429527559054
20
-2.795282559055118
11
6.4758727559055114
21
-2.7975789370078741
0
LINE
8
BLACK
6
CONTINUOUS
10
6.4758727559055114
20
-2.7975789370078741
11
6.468
21
-2.7983543307086616
0
LINE
8
BLACK
6
CONTINUOUS
10
6.468
20
-2.7983543307086616
11
6.4601272440944877
21
-2.7975789370078741
0
LINE
8
BLACK
6
CONTINUOUS
10
6.4601272440944877
20
-2.7975789370078741
11
6.4525570472440945
21
-2.795282559055118
0
LINE
8
BLACK
6
CONTINUOUS
10
6.4525570472440945
20
-2.795282559055118
11
6.4455803543307084
21
-2.7915533858267714
0
LINE
8
BLACK
6
CONTINUOUS
10
6.4455803543307084
20
-2.7915533858267714
11
6.439465196850394
21
-2.7865348031496064
0
LINE
8
BLACK
6
CONTINUOUS
10
6.439465196850394
20
-2.7865348031496064
11
6.4344466141732282
21
-2.7804196456692911
0
LINE
8
BLACK
6
CONTINUOUS
10
6.4344466141732282
20
-2.7804196456692911
11
6.430717440944882
21
-2.7734429527559055
0
LINE
8
BLACK
6
CONTINUOUS
10
6.430717440944882
20
-2.7734429527559055
11
6.4284210629921255
21
-2.7658727559055118
0
LINE
8
BLACK
6
CONTINUOUS
10
6.4284210629921255
20
-2.7658727559055118
11
6.4276456692913388
21
-2.758
0
LINE
8
BLACK
6
CONTINUOUS
10
6.4276456692913388
20
-2.758
11
6.4284210629921255
21
-2.7501272440944882
0
LINE
8
BLACK
6
CONTINUOUS
10
6.4284210629921255
20
-2.7501272440944882
11
6.430717440944882
21
-2.7425570472440945
0
LINE
8
BLACK
6
CONTINUOUS
10
6.430717440944882
20
-2.7425570472440945
11
6.4344466141732282
21
-2.7355803543307085
0
LINE
8
BLACK
6
CONTINUOUS
10
6.4344466141732282
20
-2.7355803543307085
11
6.439465196850394
21
-2.7294651968503936
0
LINE
8
BLACK
6
CONTINUOUS
10
6.439465196850394
20
-2.7294651968503936
11
6.4455803543307084
21
-2.7244466141732282
0
LINE
8
BLACK
6
CONTINUOUS
10
6.4455803543307084
20
-2.7244466141732282
11
6.4525570472440945
21
-2.720717440944882
0
LINE
8
BLACK
6
CONTINUOUS
10
6.4525570472440945
20
-2.720717440944882
11
6.4601272440944877
21
-2.7184210629921259
0
LINE
8
BLACK
6
CONTINUOUS
10
6.4601272440944877
20
-2.7184210629921259
11
6.468
21
-2.7176456692913384
0
LINE
8
BLACK
6
CONTINUOUS
10
6.468
20
-2.7176456692913384
11
6.4758727559055114
21
-2.7184210629921259
0
LINE
8
BLACK
6
CONTINUOUS
10
6.4301695669291341
20
-2.765524960629921
11
6.4323645275590549
21
-2.7727607086614174
0
LINE
8
BLACK
6
CONTINUOUS
10
6.4323645275590549
20
-2.7727607086614174
11
6.4359288976377949
21
-2.779429212598425
0
LINE
8
BLACK
6
CONTINUOUS
10
6.4359288976377949
20
-2.779429212598425
11
6.4407257874015746
21
-2.7852742125984253
0
LINE
8
BLACK
6
CONTINUOUS
10
6.4407257874015746
20
-2.7852742125984253
11
6.4465707874015745
21
-2.7900711023622047
0
LINE
8
BLACK
6
CONTINUOUS
10
6.4465707874015745
20
-2.7900711023622047
11
6.4532392913385825
21
-2.7936354724409447
0
LINE
8
BLACK
6
CONTINUOUS
10
6.4532392913385825
20
-2.7936354724409447
11
6.4604750393700785
21
-2.7958304330708659
0
LINE
8
BLACK
6
CONTINUOUS
10
6.4604750393700785
20
-2.7958304330708659
11
6.468
21
-2.7965715748031497
0
LINE
8
BLACK
6
CONTINUOUS
10
6.468
20
-2.7965715748031497
11
6.4755249606299214
21
-2.7958304330708659
0
LINE
8
BLACK
6
CONTINUOUS
10
6.4755249606299214
20
-2.7958304330708659
11
6.4827607086614174
21
-2.7936354724409447
0
LINE
8
BLACK
6
CONTINUOUS
10
6.4827607086614174
20
-2.7936354724409447
11
6.4894292125984254
21
-2.7900711023622047
0
LINE
8
BLACK
6
CONTINUOUS
10
6.4894292125984254
20
-2.7900711023622047
11
6.4952742125984253
21
-2.7852742125984253
0
LINE
8
BLACK
6
CONTINUOUS
10
6.4952742125984253
20
-2.7852742125984253
11
6.5000711023622042
21
-2.779429212598425
0
LINE
8
BLACK
6
CONTINUOUS
10
6.5000711023622042
20
-2.779429212598425
11
6.5036354724409451
21
-2.7727607086614174
0
LINE
8
BLACK
6
CONTINUOUS
10
6.5036354724409451
20
-2.7727607086614174
11
6.5058304330708658
21
-2.765524960629921
0
LINE
8
BLACK
6
CONTINUOUS
10
6.5058304330708658
20
-2.765524960629921
11
6.5065715748031492
21
-2.758
0
LINE
8
BLACK
6
CONTINUOUS
10
6.5065715748031492
20
-2.758
11
6.5058304330708658
21
-2.7504750393700785
0
LINE
8
BLACK
6
CONTINUOUS
10
6.5058304330708658
20
-2.7504750393700785
11
6.5036354724409451
21
-2.7432392913385826
0
LINE
8
BLACK
6
CONTINUOUS
10
6.5036354724409451
20
-2.7432392913385826
11
6.5000711023622042
21
-2.7365707874015746
0
LINE
8
BLACK
6
CONTINUOUS
10
6.5000711023622042
20
-2.7365707874015746
11
6.4952742125984253
21
-2.7307257874015747
0
LINE
8
BLACK
6
CONTINUOUS
10
6.4952742125984253
20
-2.7307257874015747
11
6.4894292125984254
21
-2.7259288976377953
0
LINE
8
BLACK
6
CONTINUOUS
10
6.4894292125984254
20
-2.7259288976377953
11
6.4827607086614174
21
-2.7223645275590549
0
LINE
8
BLACK
6
CONTINUOUS
10
6.4827607086614174
20
-2.7223645275590549
11
6.4755249606299214
21
-2.7201695669291337
0
LINE
8
BLACK
6
CONTINUOUS
10
6.4755249606299214
20
-2.7201695669291337
11
6.468
21
-2.7194284251968504
0
LINE
8
BLACK
6
CONTINUOUS
10
6.468
20
-2.7194284251968504
11
6.4604750393700785
21
-2.7201695669291337
0
LINE
8
BLACK
6
CONTINUOUS
10
6.4604750393700785
20
-2.7201695669291337
11
6.4532392913385825
21
-2.7223645275590549
0
LINE
8
BLACK
6
CONTINUOUS
10
6.4532392913385825
20
-2.7223645275590549
11
6.4465707874015745
21
-2.7259288976377953
0
LINE
8
BLACK
6
CONTINUOUS
10
6.4465707874015745
20
-2.7259288976377953
11
6.4407257874015746
21
-2.7307257874015747
0
LINE
8
BLACK
6
CONTINUOUS
10
6.4407257874015746
20
-2.7307257874015747
11
6.4359288976377949
21
-2.7365707874015746
0
LINE
8
BLACK
6
CONTINUOUS
10
6.4359288976377949
20
-2.7365707874015746
11
6.4323645275590549
21
-2.7432392913385826
0
LINE
8
BLACK
6
CONTINUOUS
10
6.4323645275590549
20
-2.7432392913385826
11
6.4301695669291341
21
-2.7504750393700785
0
LINE
8
BLACK
6
CONTINUOUS
10
6.4301695669291341
20
-2.7504750393700785
11
6.4294284251968499
21
-2.758
0
LINE
8
BLACK
6
CONTINUOUS
10
6.4294284251968499
20
-2.758
11
6.4301695669291341
21
-2.765524960629921
0
LINE
8
BLACK
6
CONTINUOUS
10
6.0508727559055115
20
-2.717421062992126
11
6.0584429527559056
21
-2.7197174409448817
0
LINE
8
BLACK
6
CONTINUOUS
10
6.0584429527559056
20
-2.7197174409448817
11
6.0654196456692908
21
-2.7234466141732283
0
LINE
8
BLACK
6
CONTINUOUS
10
6.0654196456692908
20
-2.7234466141732283
11
6.0715348031496061
21
-2.7284651968503937
0
LINE
8
BLACK
6
CONTINUOUS
10
6.0715348031496061
20
-2.7284651968503937
11
6.076553385826772
21
-2.7345803543307086
0
LINE
8
BLACK
6
CONTINUOUS
10
6.076553385826772
20
-2.7345803543307086
11
6.0802825590551182
21
-2.7415570472440942
0
LINE
8
BLACK
6
CONTINUOUS
10
6.0802825590551182
20
-2.7415570472440942
11
6.0825789370078738
21
-2.7491272440944883
0
LINE
8
BLACK
6
CONTINUOUS
10
6.0825789370078738
20
-2.7491272440944883
11
6.0833543307086613
21
-2.7570000000000001
0
LINE
8
BLACK
6
CONTINUOUS
10
6.0833543307086613
20
-2.7570000000000001
11
6.0825789370078738
21
-2.764872755905512
0
LINE
8
BLACK
6
CONTINUOUS
10
6.0825789370078738
20
-2.764872755905512
11
6.0802825590551182
21
-2.7724429527559056
0
LINE
8
BLACK
6
CONTINUOUS
10
6.0802825590551182
20
-2.7724429527559056
11
6.076553385826772
21
-2.7794196456692912
0
LINE
8
BLACK
6
CONTINUOUS
10
6.076553385826772
20
-2.7794196456692912
11
6.0715348031496061
21
-2.7855348031496061
0
LINE
8
BLACK
6
CONTINUOUS
10
6.0715348031496061
20
-2.7855348031496061
11
6.0654196456692908
21
-2.7905533858267715
0
LINE
8
BLACK
6
CONTINUOUS
10
6.0654196456692908
20
-2.7905533858267715
11
6.0584429527559056
21
-2.7942825590551181
0
LINE
8
BLACK
6
CONTINUOUS
10
6.0584429527559056
20
-2.7942825590551181
11
6.0508727559055115
21
-2.7965789370078737
0
LINE
8
BLACK
6
CONTINUOUS
10
6.0508727559055115
20
-2.7965789370078737
11
6.0430000000000001
21
-2.7973543307086612
0
LINE
8
BLACK
6
CONTINUOUS
10
6.0430000000000001
20
-2.7973543307086612
11
6.0351272440944879
21
-2.7965789370078737
0
LINE
8
BLACK
6
CONTINUOUS
10
6.0351272440944879
20
-2.7965789370078737
11
6.0275570472440947
21
-2.7942825590551181
0
LINE
8
BLACK
6
CONTINUOUS
10
6.0275570472440947
20
-2.7942825590551181
11
6.0205803543307086
21
-2.7905533858267715
0
LINE
8
BLACK
6
CONTINUOUS
10
6.0205803543307086
20
-2.7905533858267715
11
6.0144651968503933
21
-2.7855348031496061
0
LINE
8
BLACK
6
CONTINUOUS
10
6.0144651968503933
20
-2.7855348031496061
11
6.0094466141732283
21
-2.7794196456692912
0
LINE
8
BLACK
6
CONTINUOUS
10
6.0094466141732283
20
-2.7794196456692912
11
6.0057174409448821
21
-2.7724429527559056
0
LINE
8
BLACK
6
CONTINUOUS
10
6.0057174409448821
20
-2.7724429527559056
11
6.0034210629921256
21
-2.764872755905512
0
LINE
8
BLACK
6
CONTINUOUS
10
6.0034210629921256
20
-2.764872755905512
11
6.0026456692913381
21
-2.7570000000000001
0
LINE
8
BLACK
6
CONTINUOUS
10
6.0026456692913381
20
-2.7570000000000001
11
6.0034210629921256
21
-2.7491272440944883
0
LINE
8
BLACK
6
CONTINUOUS
10
6.0034210629921256
20
-2.7491272440944883
11
6.0057174409448821
21
-2.7415570472440942
0
LINE
8
BLACK
6
CONTINUOUS
10
6.0057174409448821
20
-2.7415570472440942
11
6.0094466141732283
21
-2.7345803543307086
0
LINE
8
BLACK
6
CONTINUOUS
10
6.0094466141732283
20
-2.7345803543307086
11
6.0144651968503933
21
-2.7284651968503937
0
LINE
8
BLACK
6
CONTINUOUS
10
6.0144651968503933
20
-2.7284651968503937
11
6.0205803543307086
21
-2.7234466141732283
0
LINE
8
BLACK
6
CONTINUOUS
10
6.0205803543307086
20
-2.7234466141732283
11
6.0275570472440947
21
-2.7197174409448817
0
LINE
8
BLACK
6
CONTINUOUS
10
6.0275570472440947
20
-2.7197174409448817
11
6.0351272440944879
21
-2.717421062992126
0
LINE
8
BLACK
6
CONTINUOUS
10
6.0351272440944879
20
-2.717421062992126
11
6.0430000000000001
21
-2.7166456692913385
0
LINE
8
BLACK
6
CONTINUOUS
10
6.0430000000000001
20
-2.7166456692913385
11
6.0508727559055115
21
-2.717421062992126
0
LINE
8
BLACK
6
CONTINUOUS
10
6.0051695669291334
20
-2.7645249606299211
11
6.007364527559055
21
-2.7717607086614171
0
LINE
8
BLACK
6
CONTINUOUS
10
6.007364527559055
20
-2.7717607086614171
11
6.010928897637795
21
-2.7784292125984251
0
LINE
8
BLACK
6
CONTINUOUS
10
6.010928897637795
20
-2.7784292125984251
11
6.0157257874015748
21
-2.784274212598425
0
LINE
8
BLACK
6
CONTINUOUS
10
6.0157257874015748
20
-2.784274212598425
11
6.0215707874015747
21
-2.7890711023622048
0
LINE
8
BLACK
6
CONTINUOUS
10
6.0215707874015747
20
-2.7890711023622048
11
6.0282392913385827
21
-2.7926354724409448
0
LINE
8
BLACK
6
CONTINUOUS
10
6.0282392913385827
20
-2.7926354724409448
11
6.0354750393700787
21
-2.794830433070866
0
LINE
8
BLACK
6
CONTINUOUS
10
6.0354750393700787
20
-2.794830433070866
11
6.0430000000000001
21
-2.7955715748031493
0
LINE
8
BLACK
6
CONTINUOUS
10
6.0430000000000001
20
-2.7955715748031493
11
6.0505249606299207
21
-2.794830433070866
0
LINE
8
BLACK
6
CONTINUOUS
10
6.0505249606299207
20
-2.794830433070866
11
6.0577607086614176
21
-2.7926354724409448
0
LINE
8
BLACK
6
CONTINUOUS
10
6.0577607086614176
20
-2.7926354724409448
11
6.0644292125984247
21
-2.7890711023622048
0
LINE
8
BLACK
6
CONTINUOUS
10
6.0644292125984247
20
-2.7890711023622048
11
6.0702742125984255
21
-2.784274212598425
0
LINE
8
BLACK
6
CONTINUOUS
10
6.0702742125984255
20
-2.784274212598425
11
6.0750711023622044
21
-2.7784292125984251
0
LINE
8
BLACK
6
CONTINUOUS
10
6.0750711023622044
20
-2.7784292125984251
11
6.0786354724409444
21
-2.7717607086614171
0
LINE
8
BLACK
6
CONTINUOUS
10
6.0786354724409444
20
-2.7717607086614171
11
6.080830433070866
21
-2.7645249606299211
0
LINE
8
BLACK
6
CONTINUOUS
10
6.080830433070866
20
-2.7645249606299211
11
6.0815715748031494
21
-2.7570000000000001
0
LINE
8
BLACK
6
CONTINUOUS
10
6.0815715748031494
20
-2.7570000000000001
11
6.080830433070866
21
-2.7494750393700786
0
LINE
8
BLACK
6
CONTINUOUS
10
6.080830433070866
20
-2.7494750393700786
11
6.0786354724409444
21
-2.7422392913385827
0
LINE
8
BLACK
6
CONTINUOUS
10
6.0786354724409444
20
-2.7422392913385827
11
6.0750711023622044
21
-2.7355707874015747
0
LINE
8
BLACK
6
CONTINUOUS
10
6.0750711023622044
20
-2.7355707874015747
11
6.0702742125984255
21
-2.7297257874015748
0
LINE
8
BLACK
6
CONTINUOUS
10
6.0702742125984255
20
-2.7297257874015748
11
6.0644292125984247
21
-2.724928897637795
0
LINE
8
BLACK
6
CONTINUOUS
10
6.0644292125984247
20
-2.724928897637795
11
6.0577607086614176
21
-2.721364527559055
0
LINE
8
BLACK
6
CONTINUOUS
10
6.0577607086614176
20
-2.721364527559055
11
6.0505249606299207
21
-2.7191695669291338
0
LINE
8
BLACK
6
CONTINUOUS
10
6.0505249606299207
20
-2.7191695669291338
11
6.0430000000000001
21
-2.7184284251968505
0
LINE
8
BLACK
6
CONTINUOUS
10
6.0430000000000001
20
-2.7184284251968505
11
6.0354750393700787
21
-2.7191695669291338
0
LINE
8
BLACK
6
CONTINUOUS
10
6.0354750393700787
20
-2.7191695669291338
11
6.0282392913385827
21
-2.721364527559055
0
LINE
8
BLACK
6
CONTINUOUS
10
6.0282392913385827
20
-2.721364527559055
11
6.0215707874015747
21
-2.724928897637795
0
LINE
8
BLACK
6
CONTINUOUS
10
6.0215707874015747
20
-2.724928897637795
11
6.0157257874015748
21
-2.7297257874015748
0
LINE
8
BLACK
6
CONTINUOUS
10
6.0157257874015748
20
-2.7297257874015748
11
6.010928897637795
21
-2.7355707874015747
0
LINE
8
BLACK
6
CONTINUOUS
10
6.010928897637795
20
-2.7355707874015747
11
6.007364527559055
21
-2.7422392913385827
0
LINE
8
BLACK
6
CONTINUOUS
10
6.007364527559055
20
-2.7422392913385827
11
6.0051695669291334
21
-2.7494750393700786
0
LINE
8
BLACK
6
CONTINUOUS
10
6.0051695669291334
20
-2.7494750393700786
11
6.00442842519685
21
-2.7570000000000001
0
LINE
8
BLACK
6
CONTINUOUS
10
6.00442842519685
20
-2.7570000000000001
11
6.0051695669291334
21
-2.7645249606299211
  0
ENDSEC
  0
EOF
