  0
SECTION
  2
HEADER
  9
$ANGBASE
  50
0.0
  9
$ANGDIR
  70
1
  9
$MEASUREMENT
  70
0
  0
ENDSEC
  0
SECTION
  2
TABLES
  0
TABLE
  2
LTYPE
  70
4
  0
LTYPE
  5
40F
  2
CONTINUOUS
  70
0
  3
Solid line
  72
65
  73
0
  40
0.0
  0
LTYPE
  5
410
  2
DASHDOT
 70
0
  3
Dash Dot ____ _ ____ _
 72
65
 73
4
 40
2.0
 49
1.25
 49
-0.25
 49
0.25
 49
-0.25
  0
LTYPE
  5
411
  2
DASHED
 70
0
  3
Dashed __ __ __ __ __
 72
65
 73
2
 40
0.75
 49
0.5
 49
-0.25
  0
LTYPE
  5
43B
  2
DOTTED
 70
0
  3
Dotted .  .  .  .
 72
65
 73
2
 40
0.2
 49
0.0
 49
-0.2
  0
ENDTAB
  0
TABLE
  2
STYLE
  70
4
  0
STYLE
  2
KICAD
  70
0
  40
0
  41
1
  42
1
  50
0
  71
0
  3
isocp.shx
  0
STYLE
  2
KICADB
  70
0
  40
0
  41
1
  42
1
  50
0
  71
0
  3
isocp.shx
  0
STYLE
  2
KICADI
  70
0
  40
0
  41
1
  42
1
  50
15
  71
0
  3
isocp.shx
  0
STYLE
  2
KICADBI
  70
0
  40
0
  41
1
  42
1
  50
15
  71
0
  3
isocp.shx
  0
ENDTAB
  0
TABLE
  2
LAYER
  70
1
  0
LAYER
  2
BLACK
  70
0
  62
7
  6
CONTINUOUS
  0
ENDTAB
  0
ENDSEC
  0
SECTION
  2
ENTITIES
0
LINE
8
BLACK
6
CONTINUOUS
10
7.1657309842519687
20
-2.5857048425196849
11
7.1662636614173225
21
-2.5862375196850391
0
LINE
8
BLACK
6
CONTINUOUS
10
7.1662636614173225
20
-2.5862375196850391
11
7.1663385826771648
21
-2.5866141732283463
0
LINE
8
BLACK
6
CONTINUOUS
10
7.1663385826771648
20
-2.5866141732283463
11
7.1663385826771648
21
-3.9881889763779528
0
LINE
8
BLACK
6
CONTINUOUS
10
7.1663385826771648
20
-3.9881889763779528
11
7.1662636614173225
21
-3.98856562992126
0
LINE
8
BLACK
6
CONTINUOUS
10
7.1662636614173225
20
-3.98856562992126
11
7.1657309842519687
21
-3.9890983070866142
0
LINE
8
BLACK
6
CONTINUOUS
10
7.1657309842519687
20
-3.9890983070866142
11
7.1653543307086611
21
-3.9891732283464565
0
LINE
8
BLACK
6
CONTINUOUS
10
7.1653543307086611
20
-3.9891732283464565
11
4.6850393700787398
21
-3.9891732283464565
0
LINE
8
BLACK
6
CONTINUOUS
10
4.6850393700787398
20
-3.9891732283464565
11
4.6846627165354331
21
-3.9890983070866142
0
LINE
8
BLACK
6
CONTINUOUS
10
4.6846627165354331
20
-3.9890983070866142
11
4.6841300393700784
21
-3.98856562992126
0
LINE
8
BLACK
6
CONTINUOUS
10
4.6841300393700784
20
-3.98856562992126
11
4.6840551181102361
21
-3.9881889763779528
0
LINE
8
BLACK
6
CONTINUOUS
10
4.6840551181102361
20
-3.9881889763779528
11
4.6840551181102361
21
-2.5866141732283463
0
LINE
8
BLACK
6
CONTINUOUS
10
4.6840551181102361
20
-2.5866141732283463
11
4.6841300393700784
21
-2.5862375196850391
0
LINE
8
BLACK
6
CONTINUOUS
10
4.6841300393700784
20
-2.5862375196850391
11
4.6846627165354331
21
-2.5857048425196849
0
LINE
8
BLACK
6
CONTINUOUS
10
4.6846627165354331
20
-2.5857048425196849
11
4.6850393700787398
21
-2.5856299212598426
0
LINE
8
BLACK
6
CONTINUOUS
10
4.6850393700787398
20
-2.5856299212598426
11
7.1653543307086611
21
-2.5856299212598426
0
LINE
8
BLACK
6
CONTINUOUS
10
7.1653543307086611
20
-2.5856299212598426
11
7.1657309842519687
21
-2.5857048425196849
0
LINE
8
BLACK
6
CONTINUOUS
10
4.6860236220472444
20
-2.5875984251968505
11
4.6860236220472444
21
-3.9872047244094486
0
LINE
8
BLACK
6
CONTINUOUS
10
4.6860236220472444
20
-3.9872047244094486
11
7.1643700787401574
21
-3.9872047244094486
0
LINE
8
BLACK
6
CONTINUOUS
10
7.1643700787401574
20
-3.9872047244094486
11
7.1643700787401574
21
-2.5875984251968505
0
LINE
8
BLACK
6
CONTINUOUS
10
7.1643700787401574
20
-2.5875984251968505
11
4.6860236220472444
21
-2.5875984251968505
0
CIRCLE
8
BLACK
10
6.9685039370078741
20
-3.8188976377952755
40
0.0531496062992126
0
CIRCLE
8
BLACK
10
4.8425196850393704
20
-3.8188976377952755
40
0.0531496062992126
0
CIRCLE
8
BLACK
10
4.8425196850393704
20
-2.7362204724409449
40
0.0531496062992126
0
CIRCLE
8
BLACK
10
6.9685039370078741
20
-2.7362204724409449
40
0.0531496062992126
0
LINE
8
BLACK
6
CONTINUOUS
10
4.8210083070866139
20
-3.1841136614173227
11
4.8221375984251971
21
-3.1784364566929133
0
LINE
8
BLACK
6
CONTINUOUS
10
4.8221375984251971
20
-3.1784364566929133
11
4.824352716535433
21
-3.1730886614173226
0
LINE
8
BLACK
6
CONTINUOUS
10
4.824352716535433
20
-3.1730886614173226
11
4.8275685826771655
21
-3.1682757874015746
0
LINE
8
BLACK
6
CONTINUOUS
10
4.8275685826771655
20
-3.1682757874015746
11
4.8316616141732283
21
-3.1641827559055118
0
LINE
8
BLACK
6
CONTINUOUS
10
4.8316616141732283
20
-3.1641827559055118
11
4.8364744881889763
21
-3.1609668897637793
0
LINE
8
BLACK
6
CONTINUOUS
10
4.8364744881889763
20
-3.1609668897637793
11
4.841822283464567
21
-3.1587517716535434
0
LINE
8
BLACK
6
CONTINUOUS
10
4.841822283464567
20
-3.1587517716535434
11
4.8474994881889764
21
-3.1576224803149606
0
LINE
8
BLACK
6
CONTINUOUS
10
4.8474994881889764
20
-3.1576224803149606
11
4.8532879133858264
21
-3.1576224803149606
0
LINE
8
BLACK
6
CONTINUOUS
10
4.8532879133858264
20
-3.1576224803149606
11
4.8589651181102358
21
-3.1587517716535434
0
LINE
8
BLACK
6
CONTINUOUS
10
4.8589651181102358
20
-3.1587517716535434
11
4.8643129133858265
21
-3.1609668897637793
0
LINE
8
BLACK
6
CONTINUOUS
10
4.8643129133858265
20
-3.1609668897637793
11
4.8691257874015745
21
-3.1641827559055118
0
LINE
8
BLACK
6
CONTINUOUS
10
4.8691257874015745
20
-3.1641827559055118
11
4.8732188188976373
21
-3.1682757874015746
0
LINE
8
BLACK
6
CONTINUOUS
10
4.8732188188976373
20
-3.1682757874015746
11
4.8764346850393698
21
-3.1730886614173226
0
LINE
8
BLACK
6
CONTINUOUS
10
4.8764346850393698
20
-3.1730886614173226
11
4.8786498031496066
21
-3.1784364566929133
0
LINE
8
BLACK
6
CONTINUOUS
10
4.8786498031496066
20
-3.1784364566929133
11
4.8797790944881889
21
-3.1841136614173227
0
LINE
8
BLACK
6
CONTINUOUS
10
4.8797790944881889
20
-3.1841136614173227
11
4.8799212598425195
21
-3.1870078740157481
0
LINE
8
BLACK
6
CONTINUOUS
10
4.8799212598425195
20
-3.1870078740157481
11
4.8799212598425195
21
-3.2066929133858268
0
LINE
8
BLACK
6
CONTINUOUS
10
4.8799212598425195
20
-3.2066929133858268
11
4.8797790944881889
21
-3.2095871259842519
0
LINE
8
BLACK
6
CONTINUOUS
10
4.8797790944881889
20
-3.2095871259842519
11
4.8786498031496066
21
-3.2152643307086612
0
LINE
8
BLACK
6
CONTINUOUS
10
4.8786498031496066
20
-3.2152643307086612
11
4.8764346850393698
21
-3.2206121259842519
0
LINE
8
BLACK
6
CONTINUOUS
10
4.8764346850393698
20
-3.2206121259842519
11
4.8732188188976373
21
-3.225425
0
LINE
8
BLACK
6
CONTINUOUS
10
4.8732188188976373
20
-3.225425
11
4.8691257874015745
21
-3.2295180314960628
0
LINE
8
BLACK
6
CONTINUOUS
10
4.8691257874015745
20
-3.2295180314960628
11
4.8643129133858265
21
-3.2327338976377953
0
LINE
8
BLACK
6
CONTINUOUS
10
4.8643129133858265
20
-3.2327338976377953
11
4.8589651181102358
21
-3.2349490157480316
0
LINE
8
BLACK
6
CONTINUOUS
10
4.8589651181102358
20
-3.2349490157480316
11
4.8532879133858264
21
-3.2360783070866139
0
LINE
8
BLACK
6
CONTINUOUS
10
4.8532879133858264
20
-3.2360783070866139
11
4.8474994881889764
21
-3.2360783070866139
0
LINE
8
BLACK
6
CONTINUOUS
10
4.8474994881889764
20
-3.2360783070866139
11
4.841822283464567
21
-3.2349490157480316
0
LINE
8
BLACK
6
CONTINUOUS
10
4.841822283464567
20
-3.2349490157480316
11
4.8364744881889763
21
-3.2327338976377953
0
LINE
8
BLACK
6
CONTINUOUS
10
4.8364744881889763
20
-3.2327338976377953
11
4.8316616141732283
21
-3.2295180314960628
0
LINE
8
BLACK
6
CONTINUOUS
10
4.8316616141732283
20
-3.2295180314960628
11
4.8275685826771655
21
-3.225425
0
LINE
8
BLACK
6
CONTINUOUS
10
4.8275685826771655
20
-3.225425
11
4.824352716535433
21
-3.2206121259842519
0
LINE
8
BLACK
6
CONTINUOUS
10
4.824352716535433
20
-3.2206121259842519
11
4.8221375984251971
21
-3.2152643307086612
0
LINE
8
BLACK
6
CONTINUOUS
10
4.8221375984251971
20
-3.2152643307086612
11
4.8210083070866139
21
-3.2095871259842519
0
LINE
8
BLACK
6
CONTINUOUS
10
4.8210083070866139
20
-3.2095871259842519
11
4.8208661417322833
21
-3.2066929133858268
0
LINE
8
BLACK
6
CONTINUOUS
10
4.8208661417322833
20
-3.2066929133858268
11
4.8208661417322833
21
-3.1870078740157481
0
LINE
8
BLACK
6
CONTINUOUS
10
4.8208661417322833
20
-3.1870078740157481
11
4.8210083070866139
21
-3.1841136614173227
0
CIRCLE
8
BLACK
10
5.0236220472440944
20
-3.1968503937007875
40
0.0393700787401575
0
CIRCLE
8
BLACK
10
5.3661417322834648
20
-3.1299212598425195
40
0.0196850393700787
0
CIRCLE
8
BLACK
10
5.3661417322834648
20
-3.0299212598425198
40
0.0196850393700787
0
CIRCLE
8
BLACK
10
5.3661417322834648
20
-2.9299212598425197
40
0.0196850393700787
0
CIRCLE
8
BLACK
10
5.3661417322834648
20
-2.8299212598425196
40
0.0196850393700787
0
CIRCLE
8
BLACK
10
5.3661417322834648
20
-2.7299212598425195
40
0.0196850393700787
0
CIRCLE
8
BLACK
10
5.9799999999999995
20
-3.75
40
0.0196850393700787
0
CIRCLE
8
BLACK
10
6.0800000000000001
20
-3.75
40
0.0196850393700787
0
CIRCLE
8
BLACK
10
5.9799999999999995
20
-3.8500000000000001
40
0.0196850393700787
0
CIRCLE
8
BLACK
10
6.0800000000000001
20
-3.8500000000000001
40
0.0196850393700787
0
CIRCLE
8
BLACK
10
5.556
20
-3.8489999999999998
40
0.0196850393700787
0
CIRCLE
8
BLACK
10
5.556
20
-3.7490000000000001
40
0.0196850393700787
0
CIRCLE
8
BLACK
10
5.6559999999999997
20
-3.8489999999999998
40
0.0196850393700787
0
CIRCLE
8
BLACK
10
5.6559999999999997
20
-3.7490000000000001
40
0.0196850393700787
0
CIRCLE
8
BLACK
10
5.7560000000000002
20
-3.8489999999999998
40
0.0196850393700787
0
CIRCLE
8
BLACK
10
5.7560000000000002
20
-3.7490000000000001
40
0.0196850393700787
0
CIRCLE
8
BLACK
10
5.5499999999999998
20
-3.04
40
0.0196850393700787
0
CIRCLE
8
BLACK
10
5.5499999999999998
20
-3.1400000000000001
40
0.0196850393700787
0
CIRCLE
8
BLACK
10
5.5499999999999998
20
-3.2399999999999998
40
0.0196850393700787
0
CIRCLE
8
BLACK
10
5.5499999999999998
20
-3.3399999999999999
40
0.0196850393700787
0
CIRCLE
8
BLACK
10
5.5499999999999998
20
-3.4399999999999999
40
0.0196850393700787
0
CIRCLE
8
BLACK
10
5.5499999999999998
20
-3.54
40
0.0196850393700787
0
CIRCLE
8
BLACK
10
6.8300000000000001
20
-3.21
40
0.0187007874015748
0
CIRCLE
8
BLACK
10
6.8300000000000001
20
-3.3084251968503935
40
0.0187007874015748
0
CIRCLE
8
BLACK
10
6.9087401574803149
20
-3.3084251968503935
40
0.0187007874015748
0
CIRCLE
8
BLACK
10
6.9087401574803149
20
-3.21
40
0.0187007874015748
0
CIRCLE
8
BLACK
10
7.0213385826771653
20
-3.0229921259842518
40
0.0452755905511811
0
CIRCLE
8
BLACK
10
7.0213385826771653
20
-3.4954330708661416
40
0.0452755905511811
0
CIRCLE
8
BLACK
10
6.9685039370078741
20
-3.8188976377952755
40
0.0531495669291339
0
CIRCLE
8
BLACK
10
4.8425196850393704
20
-3.8188976377952755
40
0.0531495669291339
0
CIRCLE
8
BLACK
10
4.8425196850393704
20
-2.7362204724409449
40
0.0531495669291339
0
CIRCLE
8
BLACK
10
6.9685039370078741
20
-2.7362204724409449
40
0.0531495669291339
0
LINE
8
BLACK
6
CONTINUOUS
10
4.8799212204724407
20
-3.2066929133858268
11
4.8799212204724407
21
-3.1870078740157481
0
ARC
8
BLACK
10
4.8503937007874018
20
-3.1870078740157481
40
0.0295275196850394
50
0.00000000
51
180.00000000
0
LINE
8
BLACK
6
CONTINUOUS
10
4.8208661811023621
20
-3.1870078740157481
11
4.8208661811023621
21
-3.2066929133858268
0
ARC
8
BLACK
10
4.8503937007874018
20
-3.2066929133858268
40
0.0295275196850394
50
180.00000000
51
360.00000000
0
CIRCLE
8
BLACK
10
5.0236220472440944
20
-3.1968503937007875
40
0.0393700393700787
0
CIRCLE
8
BLACK
10
5.3661417322834648
20
-3.1299212598425195
40
0.0196850393700787
0
CIRCLE
8
BLACK
10
5.3661417322834648
20
-3.0299212598425198
40
0.0196850393700787
0
CIRCLE
8
BLACK
10
5.3661417322834648
20
-2.9299212598425197
40
0.0196850393700787
0
CIRCLE
8
BLACK
10
5.3661417322834648
20
-2.8299212598425196
40
0.0196850393700787
0
CIRCLE
8
BLACK
10
5.3661417322834648
20
-2.7299212598425195
40
0.0196850393700787
0
CIRCLE
8
BLACK
10
5.9799999999999995
20
-3.75
40
0.0196850393700787
0
CIRCLE
8
BLACK
10
6.0800000000000001
20
-3.75
40
0.0196850393700787
0
CIRCLE
8
BLACK
10
5.9799999999999995
20
-3.8500000000000001
40
0.0196850393700787
0
CIRCLE
8
BLACK
10
6.0800000000000001
20
-3.8500000000000001
40
0.0196850393700787
0
CIRCLE
8
BLACK
10
5.556
20
-3.8489999999999998
40
0.0196850393700787
0
CIRCLE
8
BLACK
10
5.556
20
-3.7490000000000001
40
0.0196850393700787
0
CIRCLE
8
BLACK
10
5.6559999999999997
20
-3.8489999999999998
40
0.0196850393700787
0
CIRCLE
8
BLACK
10
5.6559999999999997
20
-3.7490000000000001
40
0.0196850393700787
0
CIRCLE
8
BLACK
10
5.7560000000000002
20
-3.8489999999999998
40
0.0196850393700787
0
CIRCLE
8
BLACK
10
5.7560000000000002
20
-3.7490000000000001
40
0.0196850393700787
0
CIRCLE
8
BLACK
10
5.5499999999999998
20
-3.04
40
0.0196850393700787
0
CIRCLE
8
BLACK
10
5.5499999999999998
20
-3.1400000000000001
40
0.0196850393700787
0
CIRCLE
8
BLACK
10
5.5499999999999998
20
-3.2399999999999998
40
0.0196850393700787
0
CIRCLE
8
BLACK
10
5.5499999999999998
20
-3.3399999999999999
40
0.0196850393700787
0
CIRCLE
8
BLACK
10
5.5499999999999998
20
-3.4399999999999999
40
0.0196850393700787
0
CIRCLE
8
BLACK
10
5.5499999999999998
20
-3.54
40
0.0196850393700787
0
CIRCLE
8
BLACK
10
6.8300000000000001
20
-3.21
40
0.0187007874015748
0
CIRCLE
8
BLACK
10
6.8300000000000001
20
-3.3084251968503935
40
0.0187007874015748
0
CIRCLE
8
BLACK
10
6.9087401574803149
20
-3.3084251968503935
40
0.0187007874015748
0
CIRCLE
8
BLACK
10
6.9087401574803149
20
-3.21
40
0.0187007874015748
0
CIRCLE
8
BLACK
10
7.0213385826771653
20
-3.0229921259842518
40
0.0452755905511811
0
CIRCLE
8
BLACK
10
7.0213385826771653
20
-3.4954330708661416
40
0.0452755905511811
  0
ENDSEC
  0
EOF
