  0
SECTION
  2
HEADER
  9
$ANGBASE
  50
0.0
  9
$ANGDIR
  70
1
  9
$MEASUREMENT
  70
0
  0
ENDSEC
  0
SECTION
  2
TABLES
  0
TABLE
  2
LTYPE
  70
4
  0
LTYPE
  5
40F
  2
CONTINUOUS
  70
0
  3
Solid line
  72
65
  73
0
  40
0.0
  0
LTYPE
  5
410
  2
DASHDOT
 70
0
  3
Dash Dot ____ _ ____ _
 72
65
 73
4
 40
2.0
 49
1.25
 49
-0.25
 49
0.25
 49
-0.25
  0
LTYPE
  5
411
  2
DASHED
 70
0
  3
Dashed __ __ __ __ __
 72
65
 73
2
 40
0.75
 49
0.5
 49
-0.25
  0
LTYPE
  5
43B
  2
DOTTED
 70
0
  3
Dotted .  .  .  .
 72
65
 73
2
 40
0.2
 49
0.0
 49
-0.2
  0
ENDTAB
  0
TABLE
  2
STYLE
  70
4
  0
STYLE
  2
KICAD
  70
0
  40
0
  41
1
  42
1
  50
0
  71
0
  3
isocp.shx
  0
STYLE
  2
KICADB
  70
0
  40
0
  41
1
  42
1
  50
0
  71
0
  3
isocp.shx
  0
STYLE
  2
KICADI
  70
0
  40
0
  41
1
  42
1
  50
15
  71
0
  3
isocp.shx
  0
STYLE
  2
KICADBI
  70
0
  40
0
  41
1
  42
1
  50
15
  71
0
  3
isocp.shx
  0
ENDTAB
  0
TABLE
  2
LAYER
  70
1
  0
LAYER
  2
BLACK
  70
0
  62
7
  6
CONTINUOUS
  0
ENDTAB
  0
ENDSEC
  0
SECTION
  2
ENTITIES
0
LINE
8
BLACK
6
CONTINUOUS
10
6.2652864566929134
20
-2.7369947244094486
11
6.2701818503937004
21
-2.7398211023622046
0
LINE
8
BLACK
6
CONTINUOUS
10
6.2701818503937004
20
-2.7398211023622046
11
6.2741788976377952
21
-2.743818149606299
0
LINE
8
BLACK
6
CONTINUOUS
10
6.2741788976377952
20
-2.743818149606299
11
6.2770052755905512
21
-2.7487135433070864
0
LINE
8
BLACK
6
CONTINUOUS
10
6.2770052755905512
20
-2.7487135433070864
11
6.2784683070866141
21
-2.7541736614173229
0
LINE
8
BLACK
6
CONTINUOUS
10
6.2784683070866141
20
-2.7541736614173229
11
6.2784683070866141
21
-2.7598263385826769
0
LINE
8
BLACK
6
CONTINUOUS
10
6.2784683070866141
20
-2.7598263385826769
11
6.2770052755905512
21
-2.7652864566929134
0
LINE
8
BLACK
6
CONTINUOUS
10
6.2770052755905512
20
-2.7652864566929134
11
6.2741788976377952
21
-2.7701818503937008
0
LINE
8
BLACK
6
CONTINUOUS
10
6.2741788976377952
20
-2.7701818503937008
11
6.2701818503937004
21
-2.7741788976377952
0
LINE
8
BLACK
6
CONTINUOUS
10
6.2701818503937004
20
-2.7741788976377952
11
6.2652864566929134
21
-2.7770052755905512
0
LINE
8
BLACK
6
CONTINUOUS
10
6.2652864566929134
20
-2.7770052755905512
11
6.2598263385826769
21
-2.7784683070866141
0
LINE
8
BLACK
6
CONTINUOUS
10
6.2598263385826769
20
-2.7784683070866141
11
6.2541736614173224
21
-2.7784683070866141
0
LINE
8
BLACK
6
CONTINUOUS
10
6.2541736614173224
20
-2.7784683070866141
11
6.2487135433070868
21
-2.7770052755905512
0
LINE
8
BLACK
6
CONTINUOUS
10
6.2487135433070868
20
-2.7770052755905512
11
6.243818149606299
21
-2.7741788976377952
0
LINE
8
BLACK
6
CONTINUOUS
10
6.243818149606299
20
-2.7741788976377952
11
6.239821102362205
21
-2.7701818503937008
0
LINE
8
BLACK
6
CONTINUOUS
10
6.239821102362205
20
-2.7701818503937008
11
6.236994724409449
21
-2.7652864566929134
0
LINE
8
BLACK
6
CONTINUOUS
10
6.236994724409449
20
-2.7652864566929134
11
6.2355316929133853
21
-2.7598263385826769
0
LINE
8
BLACK
6
CONTINUOUS
10
6.2355316929133853
20
-2.7598263385826769
11
6.2355316929133853
21
-2.7546675590551182
0
LINE
8
BLACK
6
CONTINUOUS
10
6.2355316929133853
20
-2.7546675590551182
11
6.2355316929133853
21
-2.7541736614173229
0
LINE
8
BLACK
6
CONTINUOUS
10
6.2355316929133853
20
-2.7541736614173229
11
6.236994724409449
21
-2.7487135433070864
0
LINE
8
BLACK
6
CONTINUOUS
10
6.236994724409449
20
-2.7487135433070864
11
6.239821102362205
21
-2.743818149606299
0
LINE
8
BLACK
6
CONTINUOUS
10
6.239821102362205
20
-2.743818149606299
11
6.243818149606299
21
-2.7398211023622046
0
LINE
8
BLACK
6
CONTINUOUS
10
6.243818149606299
20
-2.7398211023622046
11
6.2487135433070868
21
-2.7369947244094486
0
LINE
8
BLACK
6
CONTINUOUS
10
6.2487135433070868
20
-2.7369947244094486
11
6.2541736614173224
21
-2.7355316929133857
0
LINE
8
BLACK
6
CONTINUOUS
10
6.2541736614173224
20
-2.7355316929133857
11
6.2598263385826769
21
-2.7355316929133857
0
LINE
8
BLACK
6
CONTINUOUS
10
6.2598263385826769
20
-2.7355316929133857
11
6.2652864566929134
21
-2.7369947244094486
0
LINE
8
BLACK
6
CONTINUOUS
10
6.2569999606299209
20
-2.7570000000000001
11
6.2569999999999997
21
-2.7570000393700789
0
LINE
8
BLACK
6
CONTINUOUS
10
6.2569999999999997
20
-2.7570000393700789
11
6.2570000393700784
21
-2.7570000000000001
0
LINE
8
BLACK
6
CONTINUOUS
10
6.2570000393700784
20
-2.7570000000000001
11
6.2569999999999997
21
-2.7569999606299214
0
LINE
8
BLACK
6
CONTINUOUS
10
6.2569999999999997
20
-2.7569999606299214
11
6.2569999606299209
21
-2.7570000000000001
0
CIRCLE
8
BLACK
10
6.9685039370078741
20
-3.8188976377952755
40
0.0531495669291339
0
CIRCLE
8
BLACK
10
4.8425196850393704
20
-3.8188976377952755
40
0.0531495669291339
0
CIRCLE
8
BLACK
10
4.8425196850393704
20
-2.7362204724409449
40
0.0531495669291339
0
CIRCLE
8
BLACK
10
6.9685039370078741
20
-2.7362204724409449
40
0.0531495669291339
0
LINE
8
BLACK
6
CONTINUOUS
10
4.8799212204724407
20
-3.2066929133858268
11
4.8799212204724407
21
-3.1870078740157481
0
ARC
8
BLACK
10
4.8503937007874018
20
-3.1870078740157481
40
0.0295275196850394
50
0.00000000
51
180.00000000
0
LINE
8
BLACK
6
CONTINUOUS
10
4.8208661811023621
20
-3.1870078740157481
11
4.8208661811023621
21
-3.2066929133858268
0
ARC
8
BLACK
10
4.8503937007874018
20
-3.2066929133858268
40
0.0295275196850394
50
180.00000000
51
360.00000000
0
CIRCLE
8
BLACK
10
5.0236220472440944
20
-3.1968503937007875
40
0.0393700393700787
0
CIRCLE
8
BLACK
10
5.3661417322834648
20
-3.1299212598425195
40
0.0196850393700787
0
CIRCLE
8
BLACK
10
5.3661417322834648
20
-3.0299212598425198
40
0.0196850393700787
0
CIRCLE
8
BLACK
10
5.3661417322834648
20
-2.9299212598425197
40
0.0196850393700787
0
CIRCLE
8
BLACK
10
5.3661417322834648
20
-2.8299212598425196
40
0.0196850393700787
0
CIRCLE
8
BLACK
10
5.3661417322834648
20
-2.7299212598425195
40
0.0196850393700787
0
CIRCLE
8
BLACK
10
5.9799999999999995
20
-3.75
40
0.0196850393700787
0
CIRCLE
8
BLACK
10
6.0800000000000001
20
-3.75
40
0.0196850393700787
0
CIRCLE
8
BLACK
10
5.9799999999999995
20
-3.8500000000000001
40
0.0196850393700787
0
CIRCLE
8
BLACK
10
6.0800000000000001
20
-3.8500000000000001
40
0.0196850393700787
0
CIRCLE
8
BLACK
10
5.556
20
-3.8489999999999998
40
0.0196850393700787
0
CIRCLE
8
BLACK
10
5.556
20
-3.7490000000000001
40
0.0196850393700787
0
CIRCLE
8
BLACK
10
5.6559999999999997
20
-3.8489999999999998
40
0.0196850393700787
0
CIRCLE
8
BLACK
10
5.6559999999999997
20
-3.7490000000000001
40
0.0196850393700787
0
CIRCLE
8
BLACK
10
5.7560000000000002
20
-3.8489999999999998
40
0.0196850393700787
0
CIRCLE
8
BLACK
10
5.7560000000000002
20
-3.7490000000000001
40
0.0196850393700787
0
CIRCLE
8
BLACK
10
5.5499999999999998
20
-3.04
40
0.0196850393700787
0
CIRCLE
8
BLACK
10
5.5499999999999998
20
-3.1400000000000001
40
0.0196850393700787
0
CIRCLE
8
BLACK
10
5.5499999999999998
20
-3.2399999999999998
40
0.0196850393700787
0
CIRCLE
8
BLACK
10
5.5499999999999998
20
-3.3399999999999999
40
0.0196850393700787
0
CIRCLE
8
BLACK
10
5.5499999999999998
20
-3.4399999999999999
40
0.0196850393700787
0
CIRCLE
8
BLACK
10
5.5499999999999998
20
-3.54
40
0.0196850393700787
0
CIRCLE
8
BLACK
10
6.8300000000000001
20
-3.21
40
0.0187007874015748
0
CIRCLE
8
BLACK
10
6.8300000000000001
20
-3.3084251968503935
40
0.0187007874015748
0
CIRCLE
8
BLACK
10
6.9087401574803149
20
-3.3084251968503935
40
0.0187007874015748
0
CIRCLE
8
BLACK
10
6.9087401574803149
20
-3.21
40
0.0187007874015748
0
CIRCLE
8
BLACK
10
7.0213385826771653
20
-3.0229921259842518
40
0.0452755905511811
0
CIRCLE
8
BLACK
10
7.0213385826771653
20
-3.4954330708661416
40
0.0452755905511811
  0
ENDSEC
  0
EOF
