  0
SECTION
  2
HEADER
  9
$ANGBASE
  50
0.0
  9
$ANGDIR
  70
1
  9
$MEASUREMENT
  70
0
  0
ENDSEC
  0
SECTION
  2
TABLES
  0
TABLE
  2
LTYPE
  70
4
  0
LTYPE
  5
40F
  2
CONTINUOUS
  70
0
  3
Solid line
  72
65
  73
0
  40
0.0
  0
LTYPE
  5
410
  2
DASHDOT
 70
0
  3
Dash Dot ____ _ ____ _
 72
65
 73
4
 40
2.0
 49
1.25
 49
-0.25
 49
0.25
 49
-0.25
  0
LTYPE
  5
411
  2
DASHED
 70
0
  3
Dashed __ __ __ __ __
 72
65
 73
2
 40
0.75
 49
0.5
 49
-0.25
  0
LTYPE
  5
43B
  2
DOTTED
 70
0
  3
Dotted .  .  .  .
 72
65
 73
2
 40
0.2
 49
0.0
 49
-0.2
  0
ENDTAB
  0
TABLE
  2
STYLE
  70
4
  0
STYLE
  2
KICAD
  70
0
  40
0
  41
1
  42
1
  50
0
  71
0
  3
isocp.shx
  0
STYLE
  2
KICADB
  70
0
  40
0
  41
1
  42
1
  50
0
  71
0
  3
isocp.shx
  0
STYLE
  2
KICADI
  70
0
  40
0
  41
1
  42
1
  50
15
  71
0
  3
isocp.shx
  0
STYLE
  2
KICADBI
  70
0
  40
0
  41
1
  42
1
  50
15
  71
0
  3
isocp.shx
  0
ENDTAB
  0
TABLE
  2
LAYER
  70
1
  0
LAYER
  2
BLACK
  70
0
  62
7
  6
CONTINUOUS
  0
ENDTAB
  0
ENDSEC
  0
SECTION
  2
ENTITIES
0
LINE
8
BLACK
6
CONTINUOUS
10
6.262604330708661
20
-2.7360842913385826
11
6.2678267716535432
21
-2.7382474803149606
0
LINE
8
BLACK
6
CONTINUOUS
10
6.2678267716535432
20
-2.7382474803149606
11
6.2723113779527555
21
-2.7416886220472438
0
LINE
8
BLACK
6
CONTINUOUS
10
6.2723113779527555
20
-2.7416886220472438
11
6.2757525196850397
21
-2.7461732283464566
0
LINE
8
BLACK
6
CONTINUOUS
10
6.2757525196850397
20
-2.7461732283464566
11
6.2779157086614168
21
-2.7513956692913384
0
LINE
8
BLACK
6
CONTINUOUS
10
6.2779157086614168
20
-2.7513956692913384
11
6.2786535433070867
21
-2.7570000000000001
0
LINE
8
BLACK
6
CONTINUOUS
10
6.2786535433070867
20
-2.7570000000000001
11
6.2779157086614168
21
-2.7626043307086614
0
LINE
8
BLACK
6
CONTINUOUS
10
6.2779157086614168
20
-2.7626043307086614
11
6.2757525196850397
21
-2.7678267716535432
0
LINE
8
BLACK
6
CONTINUOUS
10
6.2757525196850397
20
-2.7678267716535432
11
6.2723113779527555
21
-2.772311377952756
0
LINE
8
BLACK
6
CONTINUOUS
10
6.2723113779527555
20
-2.772311377952756
11
6.2678267716535432
21
-2.7757525196850392
0
LINE
8
BLACK
6
CONTINUOUS
10
6.2678267716535432
20
-2.7757525196850392
11
6.262604330708661
21
-2.7779157086614172
0
LINE
8
BLACK
6
CONTINUOUS
10
6.262604330708661
20
-2.7779157086614172
11
6.2569999999999997
21
-2.7786535433070867
0
LINE
8
BLACK
6
CONTINUOUS
10
6.2569999999999997
20
-2.7786535433070867
11
6.2513956692913384
21
-2.7779157086614172
0
LINE
8
BLACK
6
CONTINUOUS
10
6.2513956692913384
20
-2.7779157086614172
11
6.2461732283464562
21
-2.7757525196850392
0
LINE
8
BLACK
6
CONTINUOUS
10
6.2461732283464562
20
-2.7757525196850392
11
6.2416886220472438
21
-2.772311377952756
0
LINE
8
BLACK
6
CONTINUOUS
10
6.2416886220472438
20
-2.772311377952756
11
6.2382474803149606
21
-2.7678267716535432
0
LINE
8
BLACK
6
CONTINUOUS
10
6.2382474803149606
20
-2.7678267716535432
11
6.2360842913385826
21
-2.7626043307086614
0
LINE
8
BLACK
6
CONTINUOUS
10
6.2360842913385826
20
-2.7626043307086614
11
6.2353464566929135
21
-2.7570000000000001
0
LINE
8
BLACK
6
CONTINUOUS
10
6.2353464566929135
20
-2.7570000000000001
11
6.2360842913385826
21
-2.7513956692913384
0
LINE
8
BLACK
6
CONTINUOUS
10
6.2360842913385826
20
-2.7513956692913384
11
6.2382474803149606
21
-2.7461732283464566
0
LINE
8
BLACK
6
CONTINUOUS
10
6.2382474803149606
20
-2.7461732283464566
11
6.2416886220472438
21
-2.7416886220472438
0
LINE
8
BLACK
6
CONTINUOUS
10
6.2416886220472438
20
-2.7416886220472438
11
6.2461732283464562
21
-2.7382474803149606
0
LINE
8
BLACK
6
CONTINUOUS
10
6.2461732283464562
20
-2.7382474803149606
11
6.2513956692913384
21
-2.7360842913385826
0
LINE
8
BLACK
6
CONTINUOUS
10
6.2513956692913384
20
-2.7360842913385826
11
6.2569999999999997
21
-2.7353464566929135
0
LINE
8
BLACK
6
CONTINUOUS
10
6.2569999999999997
20
-2.7353464566929135
11
6.262604330708661
21
-2.7360842913385826
0
LINE
8
BLACK
6
CONTINUOUS
10
6.2569999606299209
20
-2.7570000000000001
11
6.2569999606299209
21
-2.7570000393700789
0
LINE
8
BLACK
6
CONTINUOUS
10
6.2569999606299209
20
-2.7570000393700789
11
6.2569999999999997
21
-2.7570000393700789
0
LINE
8
BLACK
6
CONTINUOUS
10
6.2569999999999997
20
-2.7570000393700789
11
6.2570000393700784
21
-2.7570000393700789
0
LINE
8
BLACK
6
CONTINUOUS
10
6.2570000393700784
20
-2.7570000393700789
11
6.2570000393700784
21
-2.7570000000000001
0
LINE
8
BLACK
6
CONTINUOUS
10
6.2570000393700784
20
-2.7570000000000001
11
6.2570000393700784
21
-2.7569999606299214
0
LINE
8
BLACK
6
CONTINUOUS
10
6.2570000393700784
20
-2.7569999606299214
11
6.2569999999999997
21
-2.7569999606299214
0
LINE
8
BLACK
6
CONTINUOUS
10
6.2569999999999997
20
-2.7569999606299214
11
6.2569999606299209
21
-2.7569999606299214
0
LINE
8
BLACK
6
CONTINUOUS
10
6.2569999606299209
20
-2.7569999606299214
11
6.2569999606299209
21
-2.7570000000000001
  0
ENDSEC
  0
EOF
