  0
SECTION
  2
HEADER
  9
$ANGBASE
  50
0.0
  9
$ANGDIR
  70
1
  9
$MEASUREMENT
  70
0
  0
ENDSEC
  0
SECTION
  2
TABLES
  0
TABLE
  2
LTYPE
  70
4
  0
LTYPE
  5
40F
  2
CONTINUOUS
  70
0
  3
Solid line
  72
65
  73
0
  40
0.0
  0
LTYPE
  5
410
  2
DASHDOT
 70
0
  3
Dash Dot ____ _ ____ _
 72
65
 73
4
 40
2.0
 49
1.25
 49
-0.25
 49
0.25
 49
-0.25
  0
LTYPE
  5
411
  2
DASHED
 70
0
  3
Dashed __ __ __ __ __
 72
65
 73
2
 40
0.75
 49
0.5
 49
-0.25
  0
LTYPE
  5
43B
  2
DOTTED
 70
0
  3
Dotted .  .  .  .
 72
65
 73
2
 40
0.2
 49
0.0
 49
-0.2
  0
ENDTAB
  0
TABLE
  2
STYLE
  70
4
  0
STYLE
  2
KICAD
  70
0
  40
0
  41
1
  42
1
  50
0
  71
0
  3
isocp.shx
  0
STYLE
  2
KICADB
  70
0
  40
0
  41
1
  42
1
  50
0
  71
0
  3
isocp.shx
  0
STYLE
  2
KICADI
  70
0
  40
0
  41
1
  42
1
  50
15
  71
0
  3
isocp.shx
  0
STYLE
  2
KICADBI
  70
0
  40
0
  41
1
  42
1
  50
15
  71
0
  3
isocp.shx
  0
ENDTAB
  0
TABLE
  2
LAYER
  70
1
  0
LAYER
  2
BLACK
  70
0
  62
7
  6
CONTINUOUS
  0
ENDTAB
  0
ENDSEC
  0
SECTION
  2
ENTITIES
0
LINE
8
BLACK
6
CONTINUOUS
10
5.1941366535433069
20
-3.7958043307086613
11
5.1973298031496062
21
-3.7979379133858266
0
LINE
8
BLACK
6
CONTINUOUS
10
5.1973298031496062
20
-3.7979379133858266
11
5.1994633858267711
21
-3.801131062992126
0
LINE
8
BLACK
6
CONTINUOUS
10
5.1994633858267711
20
-3.801131062992126
11
5.200212598425197
21
-3.8048976377952757
0
LINE
8
BLACK
6
CONTINUOUS
10
5.200212598425197
20
-3.8048976377952757
11
5.200212598425197
21
-3.9230078740157479
0
LINE
8
BLACK
6
CONTINUOUS
10
5.200212598425197
20
-3.9230078740157479
11
5.1994633858267711
21
-3.9267744488188976
0
LINE
8
BLACK
6
CONTINUOUS
10
5.1994633858267711
20
-3.9267744488188976
11
5.1973298031496062
21
-3.9299675984251969
0
LINE
8
BLACK
6
CONTINUOUS
10
5.1973298031496062
20
-3.9299675984251969
11
5.1941366535433069
21
-3.9321011811023623
0
LINE
8
BLACK
6
CONTINUOUS
10
5.1941366535433069
20
-3.9321011811023623
11
5.1903700787401572
21
-3.9328503937007873
0
LINE
8
BLACK
6
CONTINUOUS
10
5.1903700787401572
20
-3.9328503937007873
11
5.1116299212598424
21
-3.9328503937007873
0
LINE
8
BLACK
6
CONTINUOUS
10
5.1116299212598424
20
-3.9328503937007873
11
5.1078633464566927
21
-3.9321011811023623
0
LINE
8
BLACK
6
CONTINUOUS
10
5.1078633464566927
20
-3.9321011811023623
11
5.1046701968503934
21
-3.9299675984251969
0
LINE
8
BLACK
6
CONTINUOUS
10
5.1046701968503934
20
-3.9299675984251969
11
5.1025366141732285
21
-3.9267744488188976
0
LINE
8
BLACK
6
CONTINUOUS
10
5.1025366141732285
20
-3.9267744488188976
11
5.1017874015748026
21
-3.9230078740157479
0
LINE
8
BLACK
6
CONTINUOUS
10
5.1017874015748026
20
-3.9230078740157479
11
5.1017874015748026
21
-3.8048976377952757
0
LINE
8
BLACK
6
CONTINUOUS
10
5.1017874015748026
20
-3.8048976377952757
11
5.1025366141732285
21
-3.801131062992126
0
LINE
8
BLACK
6
CONTINUOUS
10
5.1025366141732285
20
-3.801131062992126
11
5.1046701968503934
21
-3.7979379133858266
0
LINE
8
BLACK
6
CONTINUOUS
10
5.1046701968503934
20
-3.7979379133858266
11
5.1078633464566927
21
-3.7958043307086613
0
LINE
8
BLACK
6
CONTINUOUS
10
5.1078633464566927
20
-3.7958043307086613
11
5.1116299212598424
21
-3.7950551181102363
0
LINE
8
BLACK
6
CONTINUOUS
10
5.1116299212598424
20
-3.7950551181102363
11
5.1903700787401572
21
-3.7950551181102363
0
LINE
8
BLACK
6
CONTINUOUS
10
5.1903700787401572
20
-3.7950551181102363
11
5.1941366535433069
21
-3.7958043307086613
0
LINE
8
BLACK
6
CONTINUOUS
10
6.438372874015748
20
-3.8412610236220472
11
6.4415660236220473
21
-3.8433946062992126
0
LINE
8
BLACK
6
CONTINUOUS
10
6.4415660236220473
20
-3.8433946062992126
11
6.4436996062992122
21
-3.8465877559055119
0
LINE
8
BLACK
6
CONTINUOUS
10
6.4436996062992122
20
-3.8465877559055119
11
6.4444488188976372
21
-3.8503543307086612
0
LINE
8
BLACK
6
CONTINUOUS
10
6.4444488188976372
20
-3.8503543307086612
11
6.4444488188976372
21
-3.8798818897637792
0
LINE
8
BLACK
6
CONTINUOUS
10
6.4444488188976372
20
-3.8798818897637792
11
6.4436996062992122
21
-3.8836484645669289
0
LINE
8
BLACK
6
CONTINUOUS
10
6.4436996062992122
20
-3.8836484645669289
11
6.4415660236220473
21
-3.8868416141732283
0
LINE
8
BLACK
6
CONTINUOUS
10
6.4415660236220473
20
-3.8868416141732283
11
6.438372874015748
21
-3.8889751968503936
0
LINE
8
BLACK
6
CONTINUOUS
10
6.438372874015748
20
-3.8889751968503936
11
6.4346062992125983
21
-3.8897244094488186
0
LINE
8
BLACK
6
CONTINUOUS
10
6.4346062992125983
20
-3.8897244094488186
11
6.3853937007874011
21
-3.8897244094488186
0
LINE
8
BLACK
6
CONTINUOUS
10
6.3853937007874011
20
-3.8897244094488186
11
6.3816271259842514
21
-3.8889751968503936
0
LINE
8
BLACK
6
CONTINUOUS
10
6.3816271259842514
20
-3.8889751968503936
11
6.378433976377953
21
-3.8868416141732283
0
LINE
8
BLACK
6
CONTINUOUS
10
6.378433976377953
20
-3.8868416141732283
11
6.3763003937007872
21
-3.8836484645669289
0
LINE
8
BLACK
6
CONTINUOUS
10
6.3763003937007872
20
-3.8836484645669289
11
6.3755511811023622
21
-3.8798818897637792
0
LINE
8
BLACK
6
CONTINUOUS
10
6.3755511811023622
20
-3.8798818897637792
11
6.3755511811023622
21
-3.8503543307086612
0
LINE
8
BLACK
6
CONTINUOUS
10
6.3755511811023622
20
-3.8503543307086612
11
6.3763003937007872
21
-3.8465877559055119
0
LINE
8
BLACK
6
CONTINUOUS
10
6.3763003937007872
20
-3.8465877559055119
11
6.378433976377953
21
-3.8433946062992126
0
LINE
8
BLACK
6
CONTINUOUS
10
6.378433976377953
20
-3.8433946062992126
11
6.3816271259842514
21
-3.8412610236220472
0
LINE
8
BLACK
6
CONTINUOUS
10
6.3816271259842514
20
-3.8412610236220472
11
6.3853937007874011
21
-3.8405118110236218
0
LINE
8
BLACK
6
CONTINUOUS
10
6.3853937007874011
20
-3.8405118110236218
11
6.4346062992125983
21
-3.8405118110236218
0
LINE
8
BLACK
6
CONTINUOUS
10
6.4346062992125983
20
-3.8405118110236218
11
6.438372874015748
21
-3.8412610236220472
0
LINE
8
BLACK
6
CONTINUOUS
10
6.2816349999999996
20
-3.7884470078740158
11
6.2847483070866144
21
-3.7905272834645669
0
LINE
8
BLACK
6
CONTINUOUS
10
6.2847483070866144
20
-3.7905272834645669
11
6.286828582677165
21
-3.7936405905511812
0
LINE
8
BLACK
6
CONTINUOUS
10
6.286828582677165
20
-3.7936405905511812
11
6.28755905511811
21
-3.7973129921259843
0
LINE
8
BLACK
6
CONTINUOUS
10
6.28755905511811
20
-3.7973129921259843
11
6.28755905511811
21
-3.8165059055118111
0
LINE
8
BLACK
6
CONTINUOUS
10
6.28755905511811
20
-3.8165059055118111
11
6.286828582677165
21
-3.8201783070866142
0
LINE
8
BLACK
6
CONTINUOUS
10
6.286828582677165
20
-3.8201783070866142
11
6.2847483070866144
21
-3.823291614173228
0
LINE
8
BLACK
6
CONTINUOUS
10
6.2847483070866144
20
-3.823291614173228
11
6.2816349999999996
21
-3.8253718897637796
0
LINE
8
BLACK
6
CONTINUOUS
10
6.2816349999999996
20
-3.8253718897637796
11
6.277962598425197
21
-3.8261023622047241
0
LINE
8
BLACK
6
CONTINUOUS
10
6.277962598425197
20
-3.8261023622047241
11
6.2420374015748026
21
-3.8261023622047241
0
LINE
8
BLACK
6
CONTINUOUS
10
6.2420374015748026
20
-3.8261023622047241
11
6.2383649999999999
21
-3.8253718897637796
0
LINE
8
BLACK
6
CONTINUOUS
10
6.2383649999999999
20
-3.8253718897637796
11
6.2352516929133861
21
-3.823291614173228
0
LINE
8
BLACK
6
CONTINUOUS
10
6.2352516929133861
20
-3.823291614173228
11
6.2331714173228345
21
-3.8201783070866142
0
LINE
8
BLACK
6
CONTINUOUS
10
6.2331714173228345
20
-3.8201783070866142
11
6.2324409448818896
21
-3.8165059055118111
0
LINE
8
BLACK
6
CONTINUOUS
10
6.2324409448818896
20
-3.8165059055118111
11
6.2324409448818896
21
-3.7973129921259843
0
LINE
8
BLACK
6
CONTINUOUS
10
6.2324409448818896
20
-3.7973129921259843
11
6.2331714173228345
21
-3.7936405905511812
0
LINE
8
BLACK
6
CONTINUOUS
10
6.2331714173228345
20
-3.7936405905511812
11
6.2352516929133861
21
-3.7905272834645669
0
LINE
8
BLACK
6
CONTINUOUS
10
6.2352516929133861
20
-3.7905272834645669
11
6.2383649999999999
21
-3.7884470078740158
0
LINE
8
BLACK
6
CONTINUOUS
10
6.2383649999999999
20
-3.7884470078740158
11
6.2420374015748026
21
-3.7877165354330709
0
LINE
8
BLACK
6
CONTINUOUS
10
6.2420374015748026
20
-3.7877165354330709
11
6.277962598425197
21
-3.7877165354330709
0
LINE
8
BLACK
6
CONTINUOUS
10
6.277962598425197
20
-3.7877165354330709
11
6.2816349999999996
21
-3.7884470078740158
0
LINE
8
BLACK
6
CONTINUOUS
10
6.438372874015748
20
-3.7310248031496061
11
6.4415660236220473
21
-3.7331583858267714
0
LINE
8
BLACK
6
CONTINUOUS
10
6.4415660236220473
20
-3.7331583858267714
11
6.4436996062992122
21
-3.7363515354330707
0
LINE
8
BLACK
6
CONTINUOUS
10
6.4436996062992122
20
-3.7363515354330707
11
6.4444488188976372
21
-3.7401181102362204
0
LINE
8
BLACK
6
CONTINUOUS
10
6.4444488188976372
20
-3.7401181102362204
11
6.4444488188976372
21
-3.7696456692913385
0
LINE
8
BLACK
6
CONTINUOUS
10
6.4444488188976372
20
-3.7696456692913385
11
6.4436996062992122
21
-3.7734122440944882
0
LINE
8
BLACK
6
CONTINUOUS
10
6.4436996062992122
20
-3.7734122440944882
11
6.4415660236220473
21
-3.7766053937007875
0
LINE
8
BLACK
6
CONTINUOUS
10
6.4415660236220473
20
-3.7766053937007875
11
6.438372874015748
21
-3.7787389763779529
0
LINE
8
BLACK
6
CONTINUOUS
10
6.438372874015748
20
-3.7787389763779529
11
6.4346062992125983
21
-3.7794881889763778
0
LINE
8
BLACK
6
CONTINUOUS
10
6.4346062992125983
20
-3.7794881889763778
11
6.3853937007874011
21
-3.7794881889763778
0
LINE
8
BLACK
6
CONTINUOUS
10
6.3853937007874011
20
-3.7794881889763778
11
6.3816271259842514
21
-3.7787389763779529
0
LINE
8
BLACK
6
CONTINUOUS
10
6.3816271259842514
20
-3.7787389763779529
11
6.378433976377953
21
-3.7766053937007875
0
LINE
8
BLACK
6
CONTINUOUS
10
6.378433976377953
20
-3.7766053937007875
11
6.3763003937007872
21
-3.7734122440944882
0
LINE
8
BLACK
6
CONTINUOUS
10
6.3763003937007872
20
-3.7734122440944882
11
6.3755511811023622
21
-3.7696456692913385
0
LINE
8
BLACK
6
CONTINUOUS
10
6.3755511811023622
20
-3.7696456692913385
11
6.3755511811023622
21
-3.7401181102362204
0
LINE
8
BLACK
6
CONTINUOUS
10
6.3755511811023622
20
-3.7401181102362204
11
6.3763003937007872
21
-3.7363515354330707
0
LINE
8
BLACK
6
CONTINUOUS
10
6.3763003937007872
20
-3.7363515354330707
11
6.378433976377953
21
-3.7331583858267714
0
LINE
8
BLACK
6
CONTINUOUS
10
6.378433976377953
20
-3.7331583858267714
11
6.3816271259842514
21
-3.7310248031496061
0
LINE
8
BLACK
6
CONTINUOUS
10
6.3816271259842514
20
-3.7310248031496061
11
6.3853937007874011
21
-3.7302755905511811
0
LINE
8
BLACK
6
CONTINUOUS
10
6.3853937007874011
20
-3.7302755905511811
11
6.4346062992125983
21
-3.7302755905511811
0
LINE
8
BLACK
6
CONTINUOUS
10
6.4346062992125983
20
-3.7302755905511811
11
6.438372874015748
21
-3.7310248031496061
0
LINE
8
BLACK
6
CONTINUOUS
10
6.2816349999999996
20
-3.7146281102362204
11
6.2847483070866144
21
-3.7167083858267715
0
LINE
8
BLACK
6
CONTINUOUS
10
6.2847483070866144
20
-3.7167083858267715
11
6.286828582677165
21
-3.7198216929133858
0
LINE
8
BLACK
6
CONTINUOUS
10
6.286828582677165
20
-3.7198216929133858
11
6.28755905511811
21
-3.7234940944881889
0
LINE
8
BLACK
6
CONTINUOUS
10
6.28755905511811
20
-3.7234940944881889
11
6.28755905511811
21
-3.7426870078740158
0
LINE
8
BLACK
6
CONTINUOUS
10
6.28755905511811
20
-3.7426870078740158
11
6.286828582677165
21
-3.7463594094488188
0
LINE
8
BLACK
6
CONTINUOUS
10
6.286828582677165
20
-3.7463594094488188
11
6.2847483070866144
21
-3.7494727165354331
0
LINE
8
BLACK
6
CONTINUOUS
10
6.2847483070866144
20
-3.7494727165354331
11
6.2816349999999996
21
-3.7515529921259843
0
LINE
8
BLACK
6
CONTINUOUS
10
6.2816349999999996
20
-3.7515529921259843
11
6.277962598425197
21
-3.7522834645669292
0
LINE
8
BLACK
6
CONTINUOUS
10
6.277962598425197
20
-3.7522834645669292
11
6.2420374015748026
21
-3.7522834645669292
0
LINE
8
BLACK
6
CONTINUOUS
10
6.2420374015748026
20
-3.7522834645669292
11
6.2383649999999999
21
-3.7515529921259843
0
LINE
8
BLACK
6
CONTINUOUS
10
6.2383649999999999
20
-3.7515529921259843
11
6.2352516929133861
21
-3.7494727165354331
0
LINE
8
BLACK
6
CONTINUOUS
10
6.2352516929133861
20
-3.7494727165354331
11
6.2331714173228345
21
-3.7463594094488188
0
LINE
8
BLACK
6
CONTINUOUS
10
6.2331714173228345
20
-3.7463594094488188
11
6.2324409448818896
21
-3.7426870078740158
0
LINE
8
BLACK
6
CONTINUOUS
10
6.2324409448818896
20
-3.7426870078740158
11
6.2324409448818896
21
-3.7234940944881889
0
LINE
8
BLACK
6
CONTINUOUS
10
6.2324409448818896
20
-3.7234940944881889
11
6.2331714173228345
21
-3.7198216929133858
0
LINE
8
BLACK
6
CONTINUOUS
10
6.2331714173228345
20
-3.7198216929133858
11
6.2352516929133861
21
-3.7167083858267715
0
LINE
8
BLACK
6
CONTINUOUS
10
6.2352516929133861
20
-3.7167083858267715
11
6.2383649999999999
21
-3.7146281102362204
0
LINE
8
BLACK
6
CONTINUOUS
10
6.2383649999999999
20
-3.7146281102362204
11
6.2420374015748026
21
-3.7138976377952755
0
LINE
8
BLACK
6
CONTINUOUS
10
6.2420374015748026
20
-3.7138976377952755
11
6.277962598425197
21
-3.7138976377952755
0
LINE
8
BLACK
6
CONTINUOUS
10
6.277962598425197
20
-3.7138976377952755
11
6.2816349999999996
21
-3.7146281102362204
0
LINE
8
BLACK
6
CONTINUOUS
10
5.1941366535433069
20
-3.5398988188976377
11
5.1973298031496062
21
-3.542032401574803
0
LINE
8
BLACK
6
CONTINUOUS
10
5.1973298031496062
20
-3.542032401574803
11
5.1994633858267711
21
-3.5452255511811024
0
LINE
8
BLACK
6
CONTINUOUS
10
5.1994633858267711
20
-3.5452255511811024
11
5.200212598425197
21
-3.5489921259842521
0
LINE
8
BLACK
6
CONTINUOUS
10
5.200212598425197
20
-3.5489921259842521
11
5.200212598425197
21
-3.6671023622047243
0
LINE
8
BLACK
6
CONTINUOUS
10
5.200212598425197
20
-3.6671023622047243
11
5.1994633858267711
21
-3.670868937007874
0
LINE
8
BLACK
6
CONTINUOUS
10
5.1994633858267711
20
-3.670868937007874
11
5.1973298031496062
21
-3.6740620866141733
0
LINE
8
BLACK
6
CONTINUOUS
10
5.1973298031496062
20
-3.6740620866141733
11
5.1941366535433069
21
-3.6761956692913387
0
LINE
8
BLACK
6
CONTINUOUS
10
5.1941366535433069
20
-3.6761956692913387
11
5.1903700787401572
21
-3.6769448818897636
0
LINE
8
BLACK
6
CONTINUOUS
10
5.1903700787401572
20
-3.6769448818897636
11
5.1116299212598424
21
-3.6769448818897636
0
LINE
8
BLACK
6
CONTINUOUS
10
5.1116299212598424
20
-3.6769448818897636
11
5.1078633464566927
21
-3.6761956692913387
0
LINE
8
BLACK
6
CONTINUOUS
10
5.1078633464566927
20
-3.6761956692913387
11
5.1046701968503934
21
-3.6740620866141733
0
LINE
8
BLACK
6
CONTINUOUS
10
5.1046701968503934
20
-3.6740620866141733
11
5.1025366141732285
21
-3.670868937007874
0
LINE
8
BLACK
6
CONTINUOUS
10
5.1025366141732285
20
-3.670868937007874
11
5.1017874015748026
21
-3.6671023622047243
0
LINE
8
BLACK
6
CONTINUOUS
10
5.1017874015748026
20
-3.6671023622047243
11
5.1017874015748026
21
-3.5489921259842521
0
LINE
8
BLACK
6
CONTINUOUS
10
5.1017874015748026
20
-3.5489921259842521
11
5.1025366141732285
21
-3.5452255511811024
0
LINE
8
BLACK
6
CONTINUOUS
10
5.1025366141732285
20
-3.5452255511811024
11
5.1046701968503934
21
-3.542032401574803
0
LINE
8
BLACK
6
CONTINUOUS
10
5.1046701968503934
20
-3.542032401574803
11
5.1078633464566927
21
-3.5398988188976377
0
LINE
8
BLACK
6
CONTINUOUS
10
5.1078633464566927
20
-3.5398988188976377
11
5.1116299212598424
21
-3.5391496062992127
0
LINE
8
BLACK
6
CONTINUOUS
10
5.1116299212598424
20
-3.5391496062992127
11
5.1903700787401572
21
-3.5391496062992127
0
LINE
8
BLACK
6
CONTINUOUS
10
5.1903700787401572
20
-3.5391496062992127
11
5.1941366535433069
21
-3.5398988188976377
0
LINE
8
BLACK
6
CONTINUOUS
10
4.8188790944881887
20
-3.5519115748031496
11
4.8219924015748035
21
-3.5539918503937007
0
LINE
8
BLACK
6
CONTINUOUS
10
4.8219924015748035
20
-3.5539918503937007
11
4.8240726771653542
21
-3.557105157480315
0
LINE
8
BLACK
6
CONTINUOUS
10
4.8240726771653542
20
-3.557105157480315
11
4.8248031496062991
21
-3.5607775590551181
0
LINE
8
BLACK
6
CONTINUOUS
10
4.8248031496062991
20
-3.5607775590551181
11
4.8248031496062991
21
-3.5967027559055116
0
LINE
8
BLACK
6
CONTINUOUS
10
4.8248031496062991
20
-3.5967027559055116
11
4.8240726771653542
21
-3.6003751574803147
0
LINE
8
BLACK
6
CONTINUOUS
10
4.8240726771653542
20
-3.6003751574803147
11
4.8219924015748035
21
-3.603488464566929
0
LINE
8
BLACK
6
CONTINUOUS
10
4.8219924015748035
20
-3.603488464566929
11
4.8188790944881887
21
-3.6055687401574801
0
LINE
8
BLACK
6
CONTINUOUS
10
4.8188790944881887
20
-3.6055687401574801
11
4.8152066929133861
21
-3.606299212598425
0
LINE
8
BLACK
6
CONTINUOUS
10
4.8152066929133861
20
-3.606299212598425
11
4.7960137795275593
21
-3.606299212598425
0
LINE
8
BLACK
6
CONTINUOUS
10
4.7960137795275593
20
-3.606299212598425
11
4.7923413779527557
21
-3.6055687401574801
0
LINE
8
BLACK
6
CONTINUOUS
10
4.7923413779527557
20
-3.6055687401574801
11
4.7892280708661419
21
-3.603488464566929
0
LINE
8
BLACK
6
CONTINUOUS
10
4.7892280708661419
20
-3.603488464566929
11
4.7871477952755903
21
-3.6003751574803147
0
LINE
8
BLACK
6
CONTINUOUS
10
4.7871477952755903
20
-3.6003751574803147
11
4.7864173228346454
21
-3.5967027559055116
0
LINE
8
BLACK
6
CONTINUOUS
10
4.7864173228346454
20
-3.5967027559055116
11
4.7864173228346454
21
-3.5607775590551181
0
LINE
8
BLACK
6
CONTINUOUS
10
4.7864173228346454
20
-3.5607775590551181
11
4.7871477952755903
21
-3.557105157480315
0
LINE
8
BLACK
6
CONTINUOUS
10
4.7871477952755903
20
-3.557105157480315
11
4.7892280708661419
21
-3.5539918503937007
0
LINE
8
BLACK
6
CONTINUOUS
10
4.7892280708661419
20
-3.5539918503937007
11
4.7923413779527557
21
-3.5519115748031496
0
LINE
8
BLACK
6
CONTINUOUS
10
4.7923413779527557
20
-3.5519115748031496
11
4.7960137795275593
21
-3.5511811023622046
0
LINE
8
BLACK
6
CONTINUOUS
10
4.7960137795275593
20
-3.5511811023622046
11
4.8152066929133861
21
-3.5511811023622046
0
LINE
8
BLACK
6
CONTINUOUS
10
4.8152066929133861
20
-3.5511811023622046
11
4.8188790944881887
21
-3.5519115748031496
0
LINE
8
BLACK
6
CONTINUOUS
10
4.8926979921259841
20
-3.5519115748031496
11
4.8958112992125979
21
-3.5539918503937007
0
LINE
8
BLACK
6
CONTINUOUS
10
4.8958112992125979
20
-3.5539918503937007
11
4.8978915748031495
21
-3.557105157480315
0
LINE
8
BLACK
6
CONTINUOUS
10
4.8978915748031495
20
-3.557105157480315
11
4.8986220472440944
21
-3.5607775590551181
0
LINE
8
BLACK
6
CONTINUOUS
10
4.8986220472440944
20
-3.5607775590551181
11
4.8986220472440944
21
-3.5967027559055116
0
LINE
8
BLACK
6
CONTINUOUS
10
4.8986220472440944
20
-3.5967027559055116
11
4.8978915748031495
21
-3.6003751574803147
0
LINE
8
BLACK
6
CONTINUOUS
10
4.8978915748031495
20
-3.6003751574803147
11
4.8958112992125979
21
-3.603488464566929
0
LINE
8
BLACK
6
CONTINUOUS
10
4.8958112992125979
20
-3.603488464566929
11
4.8926979921259841
21
-3.6055687401574801
0
LINE
8
BLACK
6
CONTINUOUS
10
4.8926979921259841
20
-3.6055687401574801
11
4.8890255905511806
21
-3.606299212598425
0
LINE
8
BLACK
6
CONTINUOUS
10
4.8890255905511806
20
-3.606299212598425
11
4.8698326771653546
21
-3.606299212598425
0
LINE
8
BLACK
6
CONTINUOUS
10
4.8698326771653546
20
-3.606299212598425
11
4.8661602755905511
21
-3.6055687401574801
0
LINE
8
BLACK
6
CONTINUOUS
10
4.8661602755905511
20
-3.6055687401574801
11
4.8630469685039373
21
-3.603488464566929
0
LINE
8
BLACK
6
CONTINUOUS
10
4.8630469685039373
20
-3.603488464566929
11
4.8609666929133857
21
-3.6003751574803147
0
LINE
8
BLACK
6
CONTINUOUS
10
4.8609666929133857
20
-3.6003751574803147
11
4.8602362204724407
21
-3.5967027559055116
0
LINE
8
BLACK
6
CONTINUOUS
10
4.8602362204724407
20
-3.5967027559055116
11
4.8602362204724407
21
-3.5607775590551181
0
LINE
8
BLACK
6
CONTINUOUS
10
4.8602362204724407
20
-3.5607775590551181
11
4.8609666929133857
21
-3.557105157480315
0
LINE
8
BLACK
6
CONTINUOUS
10
4.8609666929133857
20
-3.557105157480315
11
4.8630469685039373
21
-3.5539918503937007
0
LINE
8
BLACK
6
CONTINUOUS
10
4.8630469685039373
20
-3.5539918503937007
11
4.8661602755905511
21
-3.5519115748031496
0
LINE
8
BLACK
6
CONTINUOUS
10
4.8661602755905511
20
-3.5519115748031496
11
4.8698326771653546
21
-3.5511811023622046
0
LINE
8
BLACK
6
CONTINUOUS
10
4.8698326771653546
20
-3.5511811023622046
11
4.8890255905511806
21
-3.5511811023622046
0
LINE
8
BLACK
6
CONTINUOUS
10
4.8890255905511806
20
-3.5511811023622046
11
4.8926979921259841
21
-3.5519115748031496
0
LINE
8
BLACK
6
CONTINUOUS
10
6.5863594094488187
20
-3.5431714173228346
11
6.5894727165354325
21
-3.5452516929133857
0
LINE
8
BLACK
6
CONTINUOUS
10
6.5894727165354325
20
-3.5452516929133857
11
6.5915529921259841
21
-3.548365
0
LINE
8
BLACK
6
CONTINUOUS
10
6.5915529921259841
20
-3.548365
11
6.592283464566929
21
-3.5520374015748031
0
LINE
8
BLACK
6
CONTINUOUS
10
6.592283464566929
20
-3.5520374015748031
11
6.592283464566929
21
-3.5879625984251966
0
LINE
8
BLACK
6
CONTINUOUS
10
6.592283464566929
20
-3.5879625984251966
11
6.5915529921259841
21
-3.5916350000000001
0
LINE
8
BLACK
6
CONTINUOUS
10
6.5915529921259841
20
-3.5916350000000001
11
6.5894727165354325
21
-3.594748307086614
0
LINE
8
BLACK
6
CONTINUOUS
10
6.5894727165354325
20
-3.594748307086614
11
6.5863594094488187
21
-3.5968285826771651
0
LINE
8
BLACK
6
CONTINUOUS
10
6.5863594094488187
20
-3.5968285826771651
11
6.5826870078740152
21
-3.59755905511811
0
LINE
8
BLACK
6
CONTINUOUS
10
6.5826870078740152
20
-3.59755905511811
11
6.5634940944881892
21
-3.59755905511811
0
LINE
8
BLACK
6
CONTINUOUS
10
6.5634940944881892
20
-3.59755905511811
11
6.5598216929133857
21
-3.5968285826771651
0
LINE
8
BLACK
6
CONTINUOUS
10
6.5598216929133857
20
-3.5968285826771651
11
6.5567083858267718
21
-3.594748307086614
0
LINE
8
BLACK
6
CONTINUOUS
10
6.5567083858267718
20
-3.594748307086614
11
6.5546281102362203
21
-3.5916350000000001
0
LINE
8
BLACK
6
CONTINUOUS
10
6.5546281102362203
20
-3.5916350000000001
11
6.5538976377952753
21
-3.5879625984251966
0
LINE
8
BLACK
6
CONTINUOUS
10
6.5538976377952753
20
-3.5879625984251966
11
6.5538976377952753
21
-3.5520374015748031
0
LINE
8
BLACK
6
CONTINUOUS
10
6.5538976377952753
20
-3.5520374015748031
11
6.5546281102362203
21
-3.548365
0
LINE
8
BLACK
6
CONTINUOUS
10
6.5546281102362203
20
-3.548365
11
6.5567083858267718
21
-3.5452516929133857
0
LINE
8
BLACK
6
CONTINUOUS
10
6.5567083858267718
20
-3.5452516929133857
11
6.5598216929133857
21
-3.5431714173228346
0
LINE
8
BLACK
6
CONTINUOUS
10
6.5598216929133857
20
-3.5431714173228346
11
6.5634940944881892
21
-3.5424409448818897
0
LINE
8
BLACK
6
CONTINUOUS
10
6.5634940944881892
20
-3.5424409448818897
11
6.5826870078740152
21
-3.5424409448818897
0
LINE
8
BLACK
6
CONTINUOUS
10
6.5826870078740152
20
-3.5424409448818897
11
6.5863594094488187
21
-3.5431714173228346
0
LINE
8
BLACK
6
CONTINUOUS
10
6.6601783070866141
20
-3.5431714173228346
11
6.6632916141732279
21
-3.5452516929133857
0
LINE
8
BLACK
6
CONTINUOUS
10
6.6632916141732279
20
-3.5452516929133857
11
6.6653718897637795
21
-3.548365
0
LINE
8
BLACK
6
CONTINUOUS
10
6.6653718897637795
20
-3.548365
11
6.6661023622047244
21
-3.5520374015748031
0
LINE
8
BLACK
6
CONTINUOUS
10
6.6661023622047244
20
-3.5520374015748031
11
6.6661023622047244
21
-3.5879625984251966
0
LINE
8
BLACK
6
CONTINUOUS
10
6.6661023622047244
20
-3.5879625984251966
11
6.6653718897637795
21
-3.5916350000000001
0
LINE
8
BLACK
6
CONTINUOUS
10
6.6653718897637795
20
-3.5916350000000001
11
6.6632916141732279
21
-3.594748307086614
0
LINE
8
BLACK
6
CONTINUOUS
10
6.6632916141732279
20
-3.594748307086614
11
6.6601783070866141
21
-3.5968285826771651
0
LINE
8
BLACK
6
CONTINUOUS
10
6.6601783070866141
20
-3.5968285826771651
11
6.6565059055118105
21
-3.59755905511811
0
LINE
8
BLACK
6
CONTINUOUS
10
6.6565059055118105
20
-3.59755905511811
11
6.6373129921259837
21
-3.59755905511811
0
LINE
8
BLACK
6
CONTINUOUS
10
6.6373129921259837
20
-3.59755905511811
11
6.633640590551181
21
-3.5968285826771651
0
LINE
8
BLACK
6
CONTINUOUS
10
6.633640590551181
20
-3.5968285826771651
11
6.6305272834645672
21
-3.594748307086614
0
LINE
8
BLACK
6
CONTINUOUS
10
6.6305272834645672
20
-3.594748307086614
11
6.6284470078740156
21
-3.5916350000000001
0
LINE
8
BLACK
6
CONTINUOUS
10
6.6284470078740156
20
-3.5916350000000001
11
6.6277165354330707
21
-3.5879625984251966
0
LINE
8
BLACK
6
CONTINUOUS
10
6.6277165354330707
20
-3.5879625984251966
11
6.6277165354330707
21
-3.5520374015748031
0
LINE
8
BLACK
6
CONTINUOUS
10
6.6277165354330707
20
-3.5520374015748031
11
6.6284470078740156
21
-3.548365
0
LINE
8
BLACK
6
CONTINUOUS
10
6.6284470078740156
20
-3.548365
11
6.6305272834645672
21
-3.5452516929133857
0
LINE
8
BLACK
6
CONTINUOUS
10
6.6305272834645672
20
-3.5452516929133857
11
6.633640590551181
21
-3.5431714173228346
0
LINE
8
BLACK
6
CONTINUOUS
10
6.633640590551181
20
-3.5431714173228346
11
6.6373129921259837
21
-3.5424409448818897
0
LINE
8
BLACK
6
CONTINUOUS
10
6.6373129921259837
20
-3.5424409448818897
11
6.6565059055118105
21
-3.5424409448818897
0
LINE
8
BLACK
6
CONTINUOUS
10
6.6565059055118105
20
-3.5424409448818897
11
6.6601783070866141
21
-3.5431714173228346
0
LINE
8
BLACK
6
CONTINUOUS
10
5.9805905511811019
20
-3.5788188976377953
11
5.9589370078740158
21
-3.5788188976377953
0
LINE
8
BLACK
6
CONTINUOUS
10
5.9589370078740158
20
-3.5788188976377953
11
5.9589370078740158
21
-3.5158267716535434
0
LINE
8
BLACK
6
CONTINUOUS
10
5.9589370078740158
20
-3.5158267716535434
11
5.9805905511811019
21
-3.5158267716535434
0
LINE
8
BLACK
6
CONTINUOUS
10
5.9805905511811019
20
-3.5158267716535434
11
5.9805905511811019
21
-3.5788188976377953
0
LINE
8
BLACK
6
CONTINUOUS
10
6.0120866141732279
20
-3.5788188976377953
11
5.9904330708661417
21
-3.5788188976377953
0
LINE
8
BLACK
6
CONTINUOUS
10
5.9904330708661417
20
-3.5788188976377953
11
5.9904330708661417
21
-3.5158267716535434
0
LINE
8
BLACK
6
CONTINUOUS
10
5.9904330708661417
20
-3.5158267716535434
11
6.0120866141732279
21
-3.5158267716535434
0
LINE
8
BLACK
6
CONTINUOUS
10
6.0120866141732279
20
-3.5158267716535434
11
6.0120866141732279
21
-3.5788188976377953
0
LINE
8
BLACK
6
CONTINUOUS
10
6.0435826771653538
20
-3.5788188976377953
11
6.0219291338582677
21
-3.5788188976377953
0
LINE
8
BLACK
6
CONTINUOUS
10
6.0219291338582677
20
-3.5788188976377953
11
6.0219291338582677
21
-3.5158267716535434
0
LINE
8
BLACK
6
CONTINUOUS
10
6.0219291338582677
20
-3.5158267716535434
11
6.0435826771653538
21
-3.5158267716535434
0
LINE
8
BLACK
6
CONTINUOUS
10
6.0435826771653538
20
-3.5158267716535434
11
6.0435826771653538
21
-3.5788188976377953
0
LINE
8
BLACK
6
CONTINUOUS
10
6.0750787401574806
20
-3.5788188976377953
11
6.0534251968503936
21
-3.5788188976377953
0
LINE
8
BLACK
6
CONTINUOUS
10
6.0534251968503936
20
-3.5788188976377953
11
6.0534251968503936
21
-3.5158267716535434
0
LINE
8
BLACK
6
CONTINUOUS
10
6.0534251968503936
20
-3.5158267716535434
11
6.0750787401574806
21
-3.5158267716535434
0
LINE
8
BLACK
6
CONTINUOUS
10
6.0750787401574806
20
-3.5158267716535434
11
6.0750787401574806
21
-3.5788188976377953
0
LINE
8
BLACK
6
CONTINUOUS
10
6.1065748031496065
20
-3.5788188976377953
11
6.0849212598425195
21
-3.5788188976377953
0
LINE
8
BLACK
6
CONTINUOUS
10
6.0849212598425195
20
-3.5788188976377953
11
6.0849212598425195
21
-3.5158267716535434
0
LINE
8
BLACK
6
CONTINUOUS
10
6.0849212598425195
20
-3.5158267716535434
11
6.1065748031496065
21
-3.5158267716535434
0
LINE
8
BLACK
6
CONTINUOUS
10
6.1065748031496065
20
-3.5158267716535434
11
6.1065748031496065
21
-3.5788188976377953
0
LINE
8
BLACK
6
CONTINUOUS
10
6.1380708661417325
20
-3.5788188976377953
11
6.1164173228346455
21
-3.5788188976377953
0
LINE
8
BLACK
6
CONTINUOUS
10
6.1164173228346455
20
-3.5788188976377953
11
6.1164173228346455
21
-3.5158267716535434
0
LINE
8
BLACK
6
CONTINUOUS
10
6.1164173228346455
20
-3.5158267716535434
11
6.1380708661417325
21
-3.5158267716535434
0
LINE
8
BLACK
6
CONTINUOUS
10
6.1380708661417325
20
-3.5158267716535434
11
6.1380708661417325
21
-3.5788188976377953
0
LINE
8
BLACK
6
CONTINUOUS
10
6.1695669291338584
20
-3.5788188976377953
11
6.1479133858267714
21
-3.5788188976377953
0
LINE
8
BLACK
6
CONTINUOUS
10
6.1479133858267714
20
-3.5788188976377953
11
6.1479133858267714
21
-3.5158267716535434
0
LINE
8
BLACK
6
CONTINUOUS
10
6.1479133858267714
20
-3.5158267716535434
11
6.1695669291338584
21
-3.5158267716535434
0
LINE
8
BLACK
6
CONTINUOUS
10
6.1695669291338584
20
-3.5158267716535434
11
6.1695669291338584
21
-3.5788188976377953
0
LINE
8
BLACK
6
CONTINUOUS
10
6.2010629921259843
20
-3.5788188976377953
11
6.1794094488188973
21
-3.5788188976377953
0
LINE
8
BLACK
6
CONTINUOUS
10
6.1794094488188973
20
-3.5788188976377953
11
6.1794094488188973
21
-3.5158267716535434
0
LINE
8
BLACK
6
CONTINUOUS
10
6.1794094488188973
20
-3.5158267716535434
11
6.2010629921259843
21
-3.5158267716535434
0
LINE
8
BLACK
6
CONTINUOUS
10
6.2010629921259843
20
-3.5158267716535434
11
6.2010629921259843
21
-3.5788188976377953
0
LINE
8
BLACK
6
CONTINUOUS
10
6.4516349999999996
20
-3.5284470078740156
11
6.4547483070866143
21
-3.5305272834645667
0
LINE
8
BLACK
6
CONTINUOUS
10
6.4547483070866143
20
-3.5305272834645667
11
6.456828582677165
21
-3.533640590551181
0
LINE
8
BLACK
6
CONTINUOUS
10
6.456828582677165
20
-3.533640590551181
11
6.4575590551181099
21
-3.537312992125984
0
LINE
8
BLACK
6
CONTINUOUS
10
6.4575590551181099
20
-3.537312992125984
11
6.4575590551181099
21
-3.5565059055118109
0
LINE
8
BLACK
6
CONTINUOUS
10
6.4575590551181099
20
-3.5565059055118109
11
6.456828582677165
21
-3.560178307086614
0
LINE
8
BLACK
6
CONTINUOUS
10
6.456828582677165
20
-3.560178307086614
11
6.4547483070866143
21
-3.5632916141732283
0
LINE
8
BLACK
6
CONTINUOUS
10
6.4547483070866143
20
-3.5632916141732283
11
6.4516349999999996
21
-3.5653718897637794
0
LINE
8
BLACK
6
CONTINUOUS
10
6.4516349999999996
20
-3.5653718897637794
11
6.4479625984251969
21
-3.5661023622047243
0
LINE
8
BLACK
6
CONTINUOUS
10
6.4479625984251969
20
-3.5661023622047243
11
6.4120374015748034
21
-3.5661023622047243
0
LINE
8
BLACK
6
CONTINUOUS
10
6.4120374015748034
20
-3.5661023622047243
11
6.4083649999999999
21
-3.5653718897637794
0
LINE
8
BLACK
6
CONTINUOUS
10
6.4083649999999999
20
-3.5653718897637794
11
6.405251692913386
21
-3.5632916141732283
0
LINE
8
BLACK
6
CONTINUOUS
10
6.405251692913386
20
-3.5632916141732283
11
6.4031714173228345
21
-3.560178307086614
0
LINE
8
BLACK
6
CONTINUOUS
10
6.4031714173228345
20
-3.560178307086614
11
6.4024409448818895
21
-3.5565059055118109
0
LINE
8
BLACK
6
CONTINUOUS
10
6.4024409448818895
20
-3.5565059055118109
11
6.4024409448818895
21
-3.537312992125984
0
LINE
8
BLACK
6
CONTINUOUS
10
6.4024409448818895
20
-3.537312992125984
11
6.4031714173228345
21
-3.533640590551181
0
LINE
8
BLACK
6
CONTINUOUS
10
6.4031714173228345
20
-3.533640590551181
11
6.405251692913386
21
-3.5305272834645667
0
LINE
8
BLACK
6
CONTINUOUS
10
6.405251692913386
20
-3.5305272834645667
11
6.4083649999999999
21
-3.5284470078740156
0
LINE
8
BLACK
6
CONTINUOUS
10
6.4083649999999999
20
-3.5284470078740156
11
6.4120374015748034
21
-3.5277165354330706
0
LINE
8
BLACK
6
CONTINUOUS
10
6.4120374015748034
20
-3.5277165354330706
11
6.4479625984251969
21
-3.5277165354330706
0
LINE
8
BLACK
6
CONTINUOUS
10
6.4479625984251969
20
-3.5277165354330706
11
6.4516349999999996
21
-3.5284470078740156
0
LINE
8
BLACK
6
CONTINUOUS
10
5.9441732283464566
20
-3.5010629921259842
11
5.8811811023622047
21
-3.5010629921259842
0
LINE
8
BLACK
6
CONTINUOUS
10
5.8811811023622047
20
-3.5010629921259842
11
5.8811811023622047
21
-3.4794094488188976
0
LINE
8
BLACK
6
CONTINUOUS
10
5.8811811023622047
20
-3.4794094488188976
11
5.9441732283464566
21
-3.4794094488188976
0
LINE
8
BLACK
6
CONTINUOUS
10
5.9441732283464566
20
-3.4794094488188976
11
5.9441732283464566
21
-3.5010629921259842
0
LINE
8
BLACK
6
CONTINUOUS
10
6.2788188976377954
20
-3.5010629921259842
11
6.2158267716535436
21
-3.5010629921259842
0
LINE
8
BLACK
6
CONTINUOUS
10
6.2158267716535436
20
-3.5010629921259842
11
6.2158267716535436
21
-3.4794094488188976
0
LINE
8
BLACK
6
CONTINUOUS
10
6.2158267716535436
20
-3.4794094488188976
11
6.2788188976377954
21
-3.4794094488188976
0
LINE
8
BLACK
6
CONTINUOUS
10
6.2788188976377954
20
-3.4794094488188976
11
6.2788188976377954
21
-3.5010629921259842
0
LINE
8
BLACK
6
CONTINUOUS
10
6.4516349999999996
20
-3.4546281102362202
11
6.4547483070866143
21
-3.4567083858267718
0
LINE
8
BLACK
6
CONTINUOUS
10
6.4547483070866143
20
-3.4567083858267718
11
6.456828582677165
21
-3.4598216929133856
0
LINE
8
BLACK
6
CONTINUOUS
10
6.456828582677165
20
-3.4598216929133856
11
6.4575590551181099
21
-3.4634940944881887
0
LINE
8
BLACK
6
CONTINUOUS
10
6.4575590551181099
20
-3.4634940944881887
11
6.4575590551181099
21
-3.4826870078740155
0
LINE
8
BLACK
6
CONTINUOUS
10
6.4575590551181099
20
-3.4826870078740155
11
6.456828582677165
21
-3.4863594094488186
0
LINE
8
BLACK
6
CONTINUOUS
10
6.456828582677165
20
-3.4863594094488186
11
6.4547483070866143
21
-3.4894727165354329
0
LINE
8
BLACK
6
CONTINUOUS
10
6.4547483070866143
20
-3.4894727165354329
11
6.4516349999999996
21
-3.491552992125984
0
LINE
8
BLACK
6
CONTINUOUS
10
6.4516349999999996
20
-3.491552992125984
11
6.4479625984251969
21
-3.492283464566929
0
LINE
8
BLACK
6
CONTINUOUS
10
6.4479625984251969
20
-3.492283464566929
11
6.4120374015748034
21
-3.492283464566929
0
LINE
8
BLACK
6
CONTINUOUS
10
6.4120374015748034
20
-3.492283464566929
11
6.4083649999999999
21
-3.491552992125984
0
LINE
8
BLACK
6
CONTINUOUS
10
6.4083649999999999
20
-3.491552992125984
11
6.405251692913386
21
-3.4894727165354329
0
LINE
8
BLACK
6
CONTINUOUS
10
6.405251692913386
20
-3.4894727165354329
11
6.4031714173228345
21
-3.4863594094488186
0
LINE
8
BLACK
6
CONTINUOUS
10
6.4031714173228345
20
-3.4863594094488186
11
6.4024409448818895
21
-3.4826870078740155
0
LINE
8
BLACK
6
CONTINUOUS
10
6.4024409448818895
20
-3.4826870078740155
11
6.4024409448818895
21
-3.4634940944881887
0
LINE
8
BLACK
6
CONTINUOUS
10
6.4024409448818895
20
-3.4634940944881887
11
6.4031714173228345
21
-3.4598216929133856
0
LINE
8
BLACK
6
CONTINUOUS
10
6.4031714173228345
20
-3.4598216929133856
11
6.405251692913386
21
-3.4567083858267718
0
LINE
8
BLACK
6
CONTINUOUS
10
6.405251692913386
20
-3.4567083858267718
11
6.4083649999999999
21
-3.4546281102362202
0
LINE
8
BLACK
6
CONTINUOUS
10
6.4083649999999999
20
-3.4546281102362202
11
6.4120374015748034
21
-3.4538976377952757
0
LINE
8
BLACK
6
CONTINUOUS
10
6.4120374015748034
20
-3.4538976377952757
11
6.4479625984251969
21
-3.4538976377952757
0
LINE
8
BLACK
6
CONTINUOUS
10
6.4479625984251969
20
-3.4538976377952757
11
6.4516349999999996
21
-3.4546281102362202
0
LINE
8
BLACK
6
CONTINUOUS
10
6.7233843307086616
20
-3.4534311417322834
11
6.7261783464566927
21
-3.4552980314960631
0
LINE
8
BLACK
6
CONTINUOUS
10
6.7261783464566927
20
-3.4552980314960631
11
6.7280452362204723
21
-3.4580920472440946
0
LINE
8
BLACK
6
CONTINUOUS
10
6.7280452362204723
20
-3.4580920472440946
11
6.728700787401575
21
-3.4613877952755905
0
LINE
8
BLACK
6
CONTINUOUS
10
6.728700787401575
20
-3.4613877952755905
11
6.728700787401575
21
-3.4786122047244095
0
LINE
8
BLACK
6
CONTINUOUS
10
6.728700787401575
20
-3.4786122047244095
11
6.7280452362204723
21
-3.4819079527559054
0
LINE
8
BLACK
6
CONTINUOUS
10
6.7280452362204723
20
-3.4819079527559054
11
6.7261783464566927
21
-3.4847019685039369
0
LINE
8
BLACK
6
CONTINUOUS
10
6.7261783464566927
20
-3.4847019685039369
11
6.7233843307086616
21
-3.4865688582677166
0
LINE
8
BLACK
6
CONTINUOUS
10
6.7233843307086616
20
-3.4865688582677166
11
6.7200885826771648
21
-3.4872244094488187
0
LINE
8
BLACK
6
CONTINUOUS
10
6.7200885826771648
20
-3.4872244094488187
11
6.6999114173228342
21
-3.4872244094488187
0
LINE
8
BLACK
6
CONTINUOUS
10
6.6999114173228342
20
-3.4872244094488187
11
6.6966156692913383
21
-3.4865688582677166
0
LINE
8
BLACK
6
CONTINUOUS
10
6.6966156692913383
20
-3.4865688582677166
11
6.6938216535433073
21
-3.4847019685039369
0
LINE
8
BLACK
6
CONTINUOUS
10
6.6938216535433073
20
-3.4847019685039369
11
6.6919547637795276
21
-3.4819079527559054
0
LINE
8
BLACK
6
CONTINUOUS
10
6.6919547637795276
20
-3.4819079527559054
11
6.691299212598425
21
-3.4786122047244095
0
LINE
8
BLACK
6
CONTINUOUS
10
6.691299212598425
20
-3.4786122047244095
11
6.691299212598425
21
-3.4613877952755905
0
LINE
8
BLACK
6
CONTINUOUS
10
6.691299212598425
20
-3.4613877952755905
11
6.6919547637795276
21
-3.4580920472440946
0
LINE
8
BLACK
6
CONTINUOUS
10
6.6919547637795276
20
-3.4580920472440946
11
6.6938216535433073
21
-3.4552980314960631
0
LINE
8
BLACK
6
CONTINUOUS
10
6.6938216535433073
20
-3.4552980314960631
11
6.6966156692913383
21
-3.4534311417322834
0
LINE
8
BLACK
6
CONTINUOUS
10
6.6966156692913383
20
-3.4534311417322834
11
6.6999114173228342
21
-3.4527755905511812
0
LINE
8
BLACK
6
CONTINUOUS
10
6.6999114173228342
20
-3.4527755905511812
11
6.7200885826771648
21
-3.4527755905511812
0
LINE
8
BLACK
6
CONTINUOUS
10
6.7200885826771648
20
-3.4527755905511812
11
6.7233843307086616
21
-3.4534311417322834
0
LINE
8
BLACK
6
CONTINUOUS
10
4.8858267716535435
20
-3.4724409448818898
11
4.8070866141732278
21
-3.4724409448818898
0
LINE
8
BLACK
6
CONTINUOUS
10
4.8070866141732278
20
-3.4724409448818898
11
4.8070866141732278
21
-3.3543307086614171
0
LINE
8
BLACK
6
CONTINUOUS
10
4.8070866141732278
20
-3.3543307086614171
11
4.8858267716535435
21
-3.3543307086614171
0
LINE
8
BLACK
6
CONTINUOUS
10
4.8858267716535435
20
-3.3543307086614171
11
4.8858267716535435
21
-3.4724409448818898
0
LINE
8
BLACK
6
CONTINUOUS
10
5.122047244094488
20
-3.4724409448818898
11
5.0433070866141732
21
-3.4724409448818898
0
LINE
8
BLACK
6
CONTINUOUS
10
5.0433070866141732
20
-3.4724409448818898
11
5.0433070866141732
21
-3.3543307086614171
0
LINE
8
BLACK
6
CONTINUOUS
10
5.0433070866141732
20
-3.3543307086614171
11
5.122047244094488
21
-3.3543307086614171
0
LINE
8
BLACK
6
CONTINUOUS
10
5.122047244094488
20
-3.3543307086614171
11
5.122047244094488
21
-3.4724409448818898
0
LINE
8
BLACK
6
CONTINUOUS
10
5.9441732283464566
20
-3.4695669291338582
11
5.8811811023622047
21
-3.4695669291338582
0
LINE
8
BLACK
6
CONTINUOUS
10
5.8811811023622047
20
-3.4695669291338582
11
5.8811811023622047
21
-3.4479133858267716
0
LINE
8
BLACK
6
CONTINUOUS
10
5.8811811023622047
20
-3.4479133858267716
11
5.9441732283464566
21
-3.4479133858267716
0
LINE
8
BLACK
6
CONTINUOUS
10
5.9441732283464566
20
-3.4479133858267716
11
5.9441732283464566
21
-3.4695669291338582
0
LINE
8
BLACK
6
CONTINUOUS
10
6.2788188976377954
20
-3.4695669291338582
11
6.2158267716535436
21
-3.4695669291338582
0
LINE
8
BLACK
6
CONTINUOUS
10
6.2158267716535436
20
-3.4695669291338582
11
6.2158267716535436
21
-3.4479133858267716
0
LINE
8
BLACK
6
CONTINUOUS
10
6.2158267716535436
20
-3.4479133858267716
11
6.2788188976377954
21
-3.4479133858267716
0
LINE
8
BLACK
6
CONTINUOUS
10
6.2788188976377954
20
-3.4479133858267716
11
6.2788188976377954
21
-3.4695669291338582
0
LINE
8
BLACK
6
CONTINUOUS
10
5.9441732283464566
20
-3.4380708661417323
11
5.8811811023622047
21
-3.4380708661417323
0
LINE
8
BLACK
6
CONTINUOUS
10
5.8811811023622047
20
-3.4380708661417323
11
5.8811811023622047
21
-3.4164173228346457
0
LINE
8
BLACK
6
CONTINUOUS
10
5.8811811023622047
20
-3.4164173228346457
11
5.9441732283464566
21
-3.4164173228346457
0
LINE
8
BLACK
6
CONTINUOUS
10
5.9441732283464566
20
-3.4164173228346457
11
5.9441732283464566
21
-3.4380708661417323
0
LINE
8
BLACK
6
CONTINUOUS
10
6.2788188976377954
20
-3.4380708661417323
11
6.2158267716535436
21
-3.4380708661417323
0
LINE
8
BLACK
6
CONTINUOUS
10
6.2158267716535436
20
-3.4380708661417323
11
6.2158267716535436
21
-3.4164173228346457
0
LINE
8
BLACK
6
CONTINUOUS
10
6.2158267716535436
20
-3.4164173228346457
11
6.2788188976377954
21
-3.4164173228346457
0
LINE
8
BLACK
6
CONTINUOUS
10
6.2788188976377954
20
-3.4164173228346457
11
6.2788188976377954
21
-3.4380708661417323
0
LINE
8
BLACK
6
CONTINUOUS
10
6.7233843307086616
20
-3.3914232677165352
11
6.7261783464566927
21
-3.3932901574803149
0
LINE
8
BLACK
6
CONTINUOUS
10
6.7261783464566927
20
-3.3932901574803149
11
6.7280452362204723
21
-3.3960841732283464
0
LINE
8
BLACK
6
CONTINUOUS
10
6.7280452362204723
20
-3.3960841732283464
11
6.728700787401575
21
-3.3993799212598423
0
LINE
8
BLACK
6
CONTINUOUS
10
6.728700787401575
20
-3.3993799212598423
11
6.728700787401575
21
-3.4166043307086613
0
LINE
8
BLACK
6
CONTINUOUS
10
6.728700787401575
20
-3.4166043307086613
11
6.7280452362204723
21
-3.4199000787401572
0
LINE
8
BLACK
6
CONTINUOUS
10
6.7280452362204723
20
-3.4199000787401572
11
6.7261783464566927
21
-3.4226940944881887
0
LINE
8
BLACK
6
CONTINUOUS
10
6.7261783464566927
20
-3.4226940944881887
11
6.7233843307086616
21
-3.4245609842519684
0
LINE
8
BLACK
6
CONTINUOUS
10
6.7233843307086616
20
-3.4245609842519684
11
6.7200885826771648
21
-3.4252165354330706
0
LINE
8
BLACK
6
CONTINUOUS
10
6.7200885826771648
20
-3.4252165354330706
11
6.6999114173228342
21
-3.4252165354330706
0
LINE
8
BLACK
6
CONTINUOUS
10
6.6999114173228342
20
-3.4252165354330706
11
6.6966156692913383
21
-3.4245609842519684
0
LINE
8
BLACK
6
CONTINUOUS
10
6.6966156692913383
20
-3.4245609842519684
11
6.6938216535433073
21
-3.4226940944881887
0
LINE
8
BLACK
6
CONTINUOUS
10
6.6938216535433073
20
-3.4226940944881887
11
6.6919547637795276
21
-3.4199000787401572
0
LINE
8
BLACK
6
CONTINUOUS
10
6.6919547637795276
20
-3.4199000787401572
11
6.691299212598425
21
-3.4166043307086613
0
LINE
8
BLACK
6
CONTINUOUS
10
6.691299212598425
20
-3.4166043307086613
11
6.691299212598425
21
-3.3993799212598423
0
LINE
8
BLACK
6
CONTINUOUS
10
6.691299212598425
20
-3.3993799212598423
11
6.6919547637795276
21
-3.3960841732283464
0
LINE
8
BLACK
6
CONTINUOUS
10
6.6919547637795276
20
-3.3960841732283464
11
6.6938216535433073
21
-3.3932901574803149
0
LINE
8
BLACK
6
CONTINUOUS
10
6.6938216535433073
20
-3.3932901574803149
11
6.6966156692913383
21
-3.3914232677165352
0
LINE
8
BLACK
6
CONTINUOUS
10
6.6966156692913383
20
-3.3914232677165352
11
6.6999114173228342
21
-3.3907677165354331
0
LINE
8
BLACK
6
CONTINUOUS
10
6.6999114173228342
20
-3.3907677165354331
11
6.7200885826771648
21
-3.3907677165354331
0
LINE
8
BLACK
6
CONTINUOUS
10
6.7200885826771648
20
-3.3907677165354331
11
6.7233843307086616
21
-3.3914232677165352
0
LINE
8
BLACK
6
CONTINUOUS
10
6.5263594094488191
20
-3.3631714173228344
11
6.5294727165354329
21
-3.3652516929133856
0
LINE
8
BLACK
6
CONTINUOUS
10
6.5294727165354329
20
-3.3652516929133856
11
6.5315529921259845
21
-3.3683649999999998
0
LINE
8
BLACK
6
CONTINUOUS
10
6.5315529921259845
20
-3.3683649999999998
11
6.5322834645669285
21
-3.3720374015748029
0
LINE
8
BLACK
6
CONTINUOUS
10
6.5322834645669285
20
-3.3720374015748029
11
6.5322834645669285
21
-3.4079625984251969
0
LINE
8
BLACK
6
CONTINUOUS
10
6.5322834645669285
20
-3.4079625984251969
11
6.5315529921259845
21
-3.411635
0
LINE
8
BLACK
6
CONTINUOUS
10
6.5315529921259845
20
-3.411635
11
6.5294727165354329
21
-3.4147483070866143
0
LINE
8
BLACK
6
CONTINUOUS
10
6.5294727165354329
20
-3.4147483070866143
11
6.5263594094488191
21
-3.4168285826771654
0
LINE
8
BLACK
6
CONTINUOUS
10
6.5263594094488191
20
-3.4168285826771654
11
6.5226870078740156
21
-3.4175590551181103
0
LINE
8
BLACK
6
CONTINUOUS
10
6.5226870078740156
20
-3.4175590551181103
11
6.5034940944881887
21
-3.4175590551181103
0
LINE
8
BLACK
6
CONTINUOUS
10
6.5034940944881887
20
-3.4175590551181103
11
6.4998216929133861
21
-3.4168285826771654
0
LINE
8
BLACK
6
CONTINUOUS
10
6.4998216929133861
20
-3.4168285826771654
11
6.4967083858267713
21
-3.4147483070866143
0
LINE
8
BLACK
6
CONTINUOUS
10
6.4967083858267713
20
-3.4147483070866143
11
6.4946281102362207
21
-3.411635
0
LINE
8
BLACK
6
CONTINUOUS
10
6.4946281102362207
20
-3.411635
11
6.4938976377952757
21
-3.4079625984251969
0
LINE
8
BLACK
6
CONTINUOUS
10
6.4938976377952757
20
-3.4079625984251969
11
6.4938976377952757
21
-3.3720374015748029
0
LINE
8
BLACK
6
CONTINUOUS
10
6.4938976377952757
20
-3.3720374015748029
11
6.4946281102362207
21
-3.3683649999999998
0
LINE
8
BLACK
6
CONTINUOUS
10
6.4946281102362207
20
-3.3683649999999998
11
6.4967083858267713
21
-3.3652516929133856
0
LINE
8
BLACK
6
CONTINUOUS
10
6.4967083858267713
20
-3.3652516929133856
11
6.4998216929133861
21
-3.3631714173228344
0
LINE
8
BLACK
6
CONTINUOUS
10
6.4998216929133861
20
-3.3631714173228344
11
6.5034940944881887
21
-3.3624409448818895
0
LINE
8
BLACK
6
CONTINUOUS
10
6.5034940944881887
20
-3.3624409448818895
11
6.5226870078740156
21
-3.3624409448818895
0
LINE
8
BLACK
6
CONTINUOUS
10
6.5226870078740156
20
-3.3624409448818895
11
6.5263594094488191
21
-3.3631714173228344
0
LINE
8
BLACK
6
CONTINUOUS
10
6.6001783070866145
20
-3.3631714173228344
11
6.6032916141732283
21
-3.3652516929133856
0
LINE
8
BLACK
6
CONTINUOUS
10
6.6032916141732283
20
-3.3652516929133856
11
6.605371889763779
21
-3.3683649999999998
0
LINE
8
BLACK
6
CONTINUOUS
10
6.605371889763779
20
-3.3683649999999998
11
6.6061023622047239
21
-3.3720374015748029
0
LINE
8
BLACK
6
CONTINUOUS
10
6.6061023622047239
20
-3.3720374015748029
11
6.6061023622047239
21
-3.4079625984251969
0
LINE
8
BLACK
6
CONTINUOUS
10
6.6061023622047239
20
-3.4079625984251969
11
6.605371889763779
21
-3.411635
0
LINE
8
BLACK
6
CONTINUOUS
10
6.605371889763779
20
-3.411635
11
6.6032916141732283
21
-3.4147483070866143
0
LINE
8
BLACK
6
CONTINUOUS
10
6.6032916141732283
20
-3.4147483070866143
11
6.6001783070866145
21
-3.4168285826771654
0
LINE
8
BLACK
6
CONTINUOUS
10
6.6001783070866145
20
-3.4168285826771654
11
6.5965059055118109
21
-3.4175590551181103
0
LINE
8
BLACK
6
CONTINUOUS
10
6.5965059055118109
20
-3.4175590551181103
11
6.5773129921259841
21
-3.4175590551181103
0
LINE
8
BLACK
6
CONTINUOUS
10
6.5773129921259841
20
-3.4175590551181103
11
6.5736405905511806
21
-3.4168285826771654
0
LINE
8
BLACK
6
CONTINUOUS
10
6.5736405905511806
20
-3.4168285826771654
11
6.5705272834645667
21
-3.4147483070866143
0
LINE
8
BLACK
6
CONTINUOUS
10
6.5705272834645667
20
-3.4147483070866143
11
6.568447007874016
21
-3.411635
0
LINE
8
BLACK
6
CONTINUOUS
10
6.568447007874016
20
-3.411635
11
6.5677165354330711
21
-3.4079625984251969
0
LINE
8
BLACK
6
CONTINUOUS
10
6.5677165354330711
20
-3.4079625984251969
11
6.5677165354330711
21
-3.3720374015748029
0
LINE
8
BLACK
6
CONTINUOUS
10
6.5677165354330711
20
-3.3720374015748029
11
6.568447007874016
21
-3.3683649999999998
0
LINE
8
BLACK
6
CONTINUOUS
10
6.568447007874016
20
-3.3683649999999998
11
6.5705272834645667
21
-3.3652516929133856
0
LINE
8
BLACK
6
CONTINUOUS
10
6.5705272834645667
20
-3.3652516929133856
11
6.5736405905511806
21
-3.3631714173228344
0
LINE
8
BLACK
6
CONTINUOUS
10
6.5736405905511806
20
-3.3631714173228344
11
6.5773129921259841
21
-3.3624409448818895
0
LINE
8
BLACK
6
CONTINUOUS
10
6.5773129921259841
20
-3.3624409448818895
11
6.5965059055118109
21
-3.3624409448818895
0
LINE
8
BLACK
6
CONTINUOUS
10
6.5965059055118109
20
-3.3624409448818895
11
6.6001783070866145
21
-3.3631714173228344
0
LINE
8
BLACK
6
CONTINUOUS
10
5.9441732283464566
20
-3.4065748031496064
11
5.8811811023622047
21
-3.4065748031496064
0
LINE
8
BLACK
6
CONTINUOUS
10
5.8811811023622047
20
-3.4065748031496064
11
5.8811811023622047
21
-3.3849212598425198
0
LINE
8
BLACK
6
CONTINUOUS
10
5.8811811023622047
20
-3.3849212598425198
11
5.9441732283464566
21
-3.3849212598425198
0
LINE
8
BLACK
6
CONTINUOUS
10
5.9441732283464566
20
-3.3849212598425198
11
5.9441732283464566
21
-3.4065748031496064
0
LINE
8
BLACK
6
CONTINUOUS
10
6.2788188976377954
20
-3.4065748031496064
11
6.2158267716535436
21
-3.4065748031496064
0
LINE
8
BLACK
6
CONTINUOUS
10
6.2158267716535436
20
-3.4065748031496064
11
6.2158267716535436
21
-3.3849212598425198
0
LINE
8
BLACK
6
CONTINUOUS
10
6.2158267716535436
20
-3.3849212598425198
11
6.2788188976377954
21
-3.3849212598425198
0
LINE
8
BLACK
6
CONTINUOUS
10
6.2788188976377954
20
-3.3849212598425198
11
6.2788188976377954
21
-3.4065748031496064
0
LINE
8
BLACK
6
CONTINUOUS
10
5.9441732283464566
20
-3.3750787401574804
11
5.8811811023622047
21
-3.3750787401574804
0
LINE
8
BLACK
6
CONTINUOUS
10
5.8811811023622047
20
-3.3750787401574804
11
5.8811811023622047
21
-3.3534251968503934
0
LINE
8
BLACK
6
CONTINUOUS
10
5.8811811023622047
20
-3.3534251968503934
11
5.9441732283464566
21
-3.3534251968503934
0
LINE
8
BLACK
6
CONTINUOUS
10
5.9441732283464566
20
-3.3534251968503934
11
5.9441732283464566
21
-3.3750787401574804
0
LINE
8
BLACK
6
CONTINUOUS
10
6.2788188976377954
20
-3.3750787401574804
11
6.2158267716535436
21
-3.3750787401574804
0
LINE
8
BLACK
6
CONTINUOUS
10
6.2158267716535436
20
-3.3750787401574804
11
6.2158267716535436
21
-3.3534251968503934
0
LINE
8
BLACK
6
CONTINUOUS
10
6.2158267716535436
20
-3.3534251968503934
11
6.2788188976377954
21
-3.3534251968503934
0
LINE
8
BLACK
6
CONTINUOUS
10
6.2788188976377954
20
-3.3534251968503934
11
6.2788188976377954
21
-3.3750787401574804
0
LINE
8
BLACK
6
CONTINUOUS
10
5.9441732283464566
20
-3.3435826771653541
11
5.8811811023622047
21
-3.3435826771653541
0
LINE
8
BLACK
6
CONTINUOUS
10
5.8811811023622047
20
-3.3435826771653541
11
5.8811811023622047
21
-3.3219291338582675
0
LINE
8
BLACK
6
CONTINUOUS
10
5.8811811023622047
20
-3.3219291338582675
11
5.9441732283464566
21
-3.3219291338582675
0
LINE
8
BLACK
6
CONTINUOUS
10
5.9441732283464566
20
-3.3219291338582675
11
5.9441732283464566
21
-3.3435826771653541
0
LINE
8
BLACK
6
CONTINUOUS
10
6.2788188976377954
20
-3.3435826771653541
11
6.2158267716535436
21
-3.3435826771653541
0
LINE
8
BLACK
6
CONTINUOUS
10
6.2158267716535436
20
-3.3435826771653541
11
6.2158267716535436
21
-3.3219291338582675
0
LINE
8
BLACK
6
CONTINUOUS
10
6.2158267716535436
20
-3.3219291338582675
11
6.2788188976377954
21
-3.3219291338582675
0
LINE
8
BLACK
6
CONTINUOUS
10
6.2788188976377954
20
-3.3219291338582675
11
6.2788188976377954
21
-3.3435826771653541
0
LINE
8
BLACK
6
CONTINUOUS
10
6.5263594094488191
20
-3.2731714173228346
11
6.5294727165354329
21
-3.2752516929133857
0
LINE
8
BLACK
6
CONTINUOUS
10
6.5294727165354329
20
-3.2752516929133857
11
6.5315529921259845
21
-3.278365
0
LINE
8
BLACK
6
CONTINUOUS
10
6.5315529921259845
20
-3.278365
11
6.5322834645669285
21
-3.2820374015748031
0
LINE
8
BLACK
6
CONTINUOUS
10
6.5322834645669285
20
-3.2820374015748031
11
6.5322834645669285
21
-3.3179625984251966
0
LINE
8
BLACK
6
CONTINUOUS
10
6.5322834645669285
20
-3.3179625984251966
11
6.5315529921259845
21
-3.3216350000000001
0
LINE
8
BLACK
6
CONTINUOUS
10
6.5315529921259845
20
-3.3216350000000001
11
6.5294727165354329
21
-3.324748307086614
0
LINE
8
BLACK
6
CONTINUOUS
10
6.5294727165354329
20
-3.324748307086614
11
6.5263594094488191
21
-3.3268285826771651
0
LINE
8
BLACK
6
CONTINUOUS
10
6.5263594094488191
20
-3.3268285826771651
11
6.5226870078740156
21
-3.32755905511811
0
LINE
8
BLACK
6
CONTINUOUS
10
6.5226870078740156
20
-3.32755905511811
11
6.5034940944881887
21
-3.32755905511811
0
LINE
8
BLACK
6
CONTINUOUS
10
6.5034940944881887
20
-3.32755905511811
11
6.4998216929133861
21
-3.3268285826771651
0
LINE
8
BLACK
6
CONTINUOUS
10
6.4998216929133861
20
-3.3268285826771651
11
6.4967083858267713
21
-3.324748307086614
0
LINE
8
BLACK
6
CONTINUOUS
10
6.4967083858267713
20
-3.324748307086614
11
6.4946281102362207
21
-3.3216350000000001
0
LINE
8
BLACK
6
CONTINUOUS
10
6.4946281102362207
20
-3.3216350000000001
11
6.4938976377952757
21
-3.3179625984251966
0
LINE
8
BLACK
6
CONTINUOUS
10
6.4938976377952757
20
-3.3179625984251966
11
6.4938976377952757
21
-3.2820374015748031
0
LINE
8
BLACK
6
CONTINUOUS
10
6.4938976377952757
20
-3.2820374015748031
11
6.4946281102362207
21
-3.278365
0
LINE
8
BLACK
6
CONTINUOUS
10
6.4946281102362207
20
-3.278365
11
6.4967083858267713
21
-3.2752516929133857
0
LINE
8
BLACK
6
CONTINUOUS
10
6.4967083858267713
20
-3.2752516929133857
11
6.4998216929133861
21
-3.2731714173228346
0
LINE
8
BLACK
6
CONTINUOUS
10
6.4998216929133861
20
-3.2731714173228346
11
6.5034940944881887
21
-3.2724409448818896
0
LINE
8
BLACK
6
CONTINUOUS
10
6.5034940944881887
20
-3.2724409448818896
11
6.5226870078740156
21
-3.2724409448818896
0
LINE
8
BLACK
6
CONTINUOUS
10
6.5226870078740156
20
-3.2724409448818896
11
6.5263594094488191
21
-3.2731714173228346
0
LINE
8
BLACK
6
CONTINUOUS
10
6.6001783070866145
20
-3.2731714173228346
11
6.6032916141732283
21
-3.2752516929133857
0
LINE
8
BLACK
6
CONTINUOUS
10
6.6032916141732283
20
-3.2752516929133857
11
6.605371889763779
21
-3.278365
0
LINE
8
BLACK
6
CONTINUOUS
10
6.605371889763779
20
-3.278365
11
6.6061023622047239
21
-3.2820374015748031
0
LINE
8
BLACK
6
CONTINUOUS
10
6.6061023622047239
20
-3.2820374015748031
11
6.6061023622047239
21
-3.3179625984251966
0
LINE
8
BLACK
6
CONTINUOUS
10
6.6061023622047239
20
-3.3179625984251966
11
6.605371889763779
21
-3.3216350000000001
0
LINE
8
BLACK
6
CONTINUOUS
10
6.605371889763779
20
-3.3216350000000001
11
6.6032916141732283
21
-3.324748307086614
0
LINE
8
BLACK
6
CONTINUOUS
10
6.6032916141732283
20
-3.324748307086614
11
6.6001783070866145
21
-3.3268285826771651
0
LINE
8
BLACK
6
CONTINUOUS
10
6.6001783070866145
20
-3.3268285826771651
11
6.5965059055118109
21
-3.32755905511811
0
LINE
8
BLACK
6
CONTINUOUS
10
6.5965059055118109
20
-3.32755905511811
11
6.5773129921259841
21
-3.32755905511811
0
LINE
8
BLACK
6
CONTINUOUS
10
6.5773129921259841
20
-3.32755905511811
11
6.5736405905511806
21
-3.3268285826771651
0
LINE
8
BLACK
6
CONTINUOUS
10
6.5736405905511806
20
-3.3268285826771651
11
6.5705272834645667
21
-3.324748307086614
0
LINE
8
BLACK
6
CONTINUOUS
10
6.5705272834645667
20
-3.324748307086614
11
6.568447007874016
21
-3.3216350000000001
0
LINE
8
BLACK
6
CONTINUOUS
10
6.568447007874016
20
-3.3216350000000001
11
6.5677165354330711
21
-3.3179625984251966
0
LINE
8
BLACK
6
CONTINUOUS
10
6.5677165354330711
20
-3.3179625984251966
11
6.5677165354330711
21
-3.2820374015748031
0
LINE
8
BLACK
6
CONTINUOUS
10
6.5677165354330711
20
-3.2820374015748031
11
6.568447007874016
21
-3.278365
0
LINE
8
BLACK
6
CONTINUOUS
10
6.568447007874016
20
-3.278365
11
6.5705272834645667
21
-3.2752516929133857
0
LINE
8
BLACK
6
CONTINUOUS
10
6.5705272834645667
20
-3.2752516929133857
11
6.5736405905511806
21
-3.2731714173228346
0
LINE
8
BLACK
6
CONTINUOUS
10
6.5736405905511806
20
-3.2731714173228346
11
6.5773129921259841
21
-3.2724409448818896
0
LINE
8
BLACK
6
CONTINUOUS
10
6.5773129921259841
20
-3.2724409448818896
11
6.5965059055118109
21
-3.2724409448818896
0
LINE
8
BLACK
6
CONTINUOUS
10
6.5965059055118109
20
-3.2724409448818896
11
6.6001783070866145
21
-3.2731714173228346
0
LINE
8
BLACK
6
CONTINUOUS
10
5.7206349999999997
20
-3.2784470078740156
11
5.7237483070866144
21
-3.2805272834645667
0
LINE
8
BLACK
6
CONTINUOUS
10
5.7237483070866144
20
-3.2805272834645667
11
5.7258285826771651
21
-3.283640590551181
0
LINE
8
BLACK
6
CONTINUOUS
10
5.7258285826771651
20
-3.283640590551181
11
5.72655905511811
21
-3.287312992125984
0
LINE
8
BLACK
6
CONTINUOUS
10
5.72655905511811
20
-3.287312992125984
11
5.72655905511811
21
-3.3065059055118109
0
LINE
8
BLACK
6
CONTINUOUS
10
5.72655905511811
20
-3.3065059055118109
11
5.7258285826771651
21
-3.310178307086614
0
LINE
8
BLACK
6
CONTINUOUS
10
5.7258285826771651
20
-3.310178307086614
11
5.7237483070866144
21
-3.3132916141732283
0
LINE
8
BLACK
6
CONTINUOUS
10
5.7237483070866144
20
-3.3132916141732283
11
5.7206349999999997
21
-3.3153718897637794
0
LINE
8
BLACK
6
CONTINUOUS
10
5.7206349999999997
20
-3.3153718897637794
11
5.7169625984251971
21
-3.3161023622047243
0
LINE
8
BLACK
6
CONTINUOUS
10
5.7169625984251971
20
-3.3161023622047243
11
5.6810374015748026
21
-3.3161023622047243
0
LINE
8
BLACK
6
CONTINUOUS
10
5.6810374015748026
20
-3.3161023622047243
11
5.677365
21
-3.3153718897637794
0
LINE
8
BLACK
6
CONTINUOUS
10
5.677365
20
-3.3153718897637794
11
5.6742516929133853
21
-3.3132916141732283
0
LINE
8
BLACK
6
CONTINUOUS
10
5.6742516929133853
20
-3.3132916141732283
11
5.6721714173228346
21
-3.310178307086614
0
LINE
8
BLACK
6
CONTINUOUS
10
5.6721714173228346
20
-3.310178307086614
11
5.6714409448818897
21
-3.3065059055118109
0
LINE
8
BLACK
6
CONTINUOUS
10
5.6714409448818897
20
-3.3065059055118109
11
5.6714409448818897
21
-3.287312992125984
0
LINE
8
BLACK
6
CONTINUOUS
10
5.6714409448818897
20
-3.287312992125984
11
5.6721714173228346
21
-3.283640590551181
0
LINE
8
BLACK
6
CONTINUOUS
10
5.6721714173228346
20
-3.283640590551181
11
5.6742516929133853
21
-3.2805272834645667
0
LINE
8
BLACK
6
CONTINUOUS
10
5.6742516929133853
20
-3.2805272834645667
11
5.677365
21
-3.2784470078740156
0
LINE
8
BLACK
6
CONTINUOUS
10
5.677365
20
-3.2784470078740156
11
5.6810374015748026
21
-3.2777165354330706
0
LINE
8
BLACK
6
CONTINUOUS
10
5.6810374015748026
20
-3.2777165354330706
11
5.7169625984251971
21
-3.2777165354330706
0
LINE
8
BLACK
6
CONTINUOUS
10
5.7169625984251971
20
-3.2777165354330706
11
5.7206349999999997
21
-3.2784470078740156
0
LINE
8
BLACK
6
CONTINUOUS
10
5.9441732283464566
20
-3.3120866141732281
11
5.8811811023622047
21
-3.3120866141732281
0
LINE
8
BLACK
6
CONTINUOUS
10
5.8811811023622047
20
-3.3120866141732281
11
5.8811811023622047
21
-3.2904330708661416
0
LINE
8
BLACK
6
CONTINUOUS
10
5.8811811023622047
20
-3.2904330708661416
11
5.9441732283464566
21
-3.2904330708661416
0
LINE
8
BLACK
6
CONTINUOUS
10
5.9441732283464566
20
-3.2904330708661416
11
5.9441732283464566
21
-3.3120866141732281
0
LINE
8
BLACK
6
CONTINUOUS
10
6.2788188976377954
20
-3.3120866141732281
11
6.2158267716535436
21
-3.3120866141732281
0
LINE
8
BLACK
6
CONTINUOUS
10
6.2158267716535436
20
-3.3120866141732281
11
6.2158267716535436
21
-3.2904330708661416
0
LINE
8
BLACK
6
CONTINUOUS
10
6.2158267716535436
20
-3.2904330708661416
11
6.2788188976377954
21
-3.2904330708661416
0
LINE
8
BLACK
6
CONTINUOUS
10
6.2788188976377954
20
-3.2904330708661416
11
6.2788188976377954
21
-3.3120866141732281
0
LINE
8
BLACK
6
CONTINUOUS
10
6.7233843307086616
20
-3.2554350787401574
11
6.7261783464566927
21
-3.2573019685039371
0
LINE
8
BLACK
6
CONTINUOUS
10
6.7261783464566927
20
-3.2573019685039371
11
6.7280452362204723
21
-3.2600959842519686
0
LINE
8
BLACK
6
CONTINUOUS
10
6.7280452362204723
20
-3.2600959842519686
11
6.728700787401575
21
-3.2633917322834645
0
LINE
8
BLACK
6
CONTINUOUS
10
6.728700787401575
20
-3.2633917322834645
11
6.728700787401575
21
-3.2806161417322834
0
LINE
8
BLACK
6
CONTINUOUS
10
6.728700787401575
20
-3.2806161417322834
11
6.7280452362204723
21
-3.2839118897637793
0
LINE
8
BLACK
6
CONTINUOUS
10
6.7280452362204723
20
-3.2839118897637793
11
6.7261783464566927
21
-3.2867059055118109
0
LINE
8
BLACK
6
CONTINUOUS
10
6.7261783464566927
20
-3.2867059055118109
11
6.7233843307086616
21
-3.2885727952755905
0
LINE
8
BLACK
6
CONTINUOUS
10
6.7233843307086616
20
-3.2885727952755905
11
6.7200885826771648
21
-3.2892283464566927
0
LINE
8
BLACK
6
CONTINUOUS
10
6.7200885826771648
20
-3.2892283464566927
11
6.6999114173228342
21
-3.2892283464566927
0
LINE
8
BLACK
6
CONTINUOUS
10
6.6999114173228342
20
-3.2892283464566927
11
6.6966156692913383
21
-3.2885727952755905
0
LINE
8
BLACK
6
CONTINUOUS
10
6.6966156692913383
20
-3.2885727952755905
11
6.6938216535433073
21
-3.2867059055118109
0
LINE
8
BLACK
6
CONTINUOUS
10
6.6938216535433073
20
-3.2867059055118109
11
6.6919547637795276
21
-3.2839118897637793
0
LINE
8
BLACK
6
CONTINUOUS
10
6.6919547637795276
20
-3.2839118897637793
11
6.691299212598425
21
-3.2806161417322834
0
LINE
8
BLACK
6
CONTINUOUS
10
6.691299212598425
20
-3.2806161417322834
11
6.691299212598425
21
-3.2633917322834645
0
LINE
8
BLACK
6
CONTINUOUS
10
6.691299212598425
20
-3.2633917322834645
11
6.6919547637795276
21
-3.2600959842519686
0
LINE
8
BLACK
6
CONTINUOUS
10
6.6919547637795276
20
-3.2600959842519686
11
6.6938216535433073
21
-3.2573019685039371
0
LINE
8
BLACK
6
CONTINUOUS
10
6.6938216535433073
20
-3.2573019685039371
11
6.6966156692913383
21
-3.2554350787401574
0
LINE
8
BLACK
6
CONTINUOUS
10
6.6966156692913383
20
-3.2554350787401574
11
6.6999114173228342
21
-3.2547795275590552
0
LINE
8
BLACK
6
CONTINUOUS
10
6.6999114173228342
20
-3.2547795275590552
11
6.7200885826771648
21
-3.2547795275590552
0
LINE
8
BLACK
6
CONTINUOUS
10
6.7200885826771648
20
-3.2547795275590552
11
6.7233843307086616
21
-3.2554350787401574
0
LINE
8
BLACK
6
CONTINUOUS
10
6.4146349999999996
20
-3.2494470078740156
11
6.4177483070866144
21
-3.2515272834645668
0
LINE
8
BLACK
6
CONTINUOUS
10
6.4177483070866144
20
-3.2515272834645668
11
6.4198285826771651
21
-3.254640590551181
0
LINE
8
BLACK
6
CONTINUOUS
10
6.4198285826771651
20
-3.254640590551181
11
6.42055905511811
21
-3.2583129921259841
0
LINE
8
BLACK
6
CONTINUOUS
10
6.42055905511811
20
-3.2583129921259841
11
6.42055905511811
21
-3.277505905511811
0
LINE
8
BLACK
6
CONTINUOUS
10
6.42055905511811
20
-3.277505905511811
11
6.4198285826771651
21
-3.2811783070866141
0
LINE
8
BLACK
6
CONTINUOUS
10
6.4198285826771651
20
-3.2811783070866141
11
6.4177483070866144
21
-3.2842916141732283
0
LINE
8
BLACK
6
CONTINUOUS
10
6.4177483070866144
20
-3.2842916141732283
11
6.4146349999999996
21
-3.2863718897637795
0
LINE
8
BLACK
6
CONTINUOUS
10
6.4146349999999996
20
-3.2863718897637795
11
6.410962598425197
21
-3.2871023622047244
0
LINE
8
BLACK
6
CONTINUOUS
10
6.410962598425197
20
-3.2871023622047244
11
6.3750374015748026
21
-3.2871023622047244
0
LINE
8
BLACK
6
CONTINUOUS
10
6.3750374015748026
20
-3.2871023622047244
11
6.3713649999999999
21
-3.2863718897637795
0
LINE
8
BLACK
6
CONTINUOUS
10
6.3713649999999999
20
-3.2863718897637795
11
6.3682516929133861
21
-3.2842916141732283
0
LINE
8
BLACK
6
CONTINUOUS
10
6.3682516929133861
20
-3.2842916141732283
11
6.3661714173228345
21
-3.2811783070866141
0
LINE
8
BLACK
6
CONTINUOUS
10
6.3661714173228345
20
-3.2811783070866141
11
6.3654409448818896
21
-3.277505905511811
0
LINE
8
BLACK
6
CONTINUOUS
10
6.3654409448818896
20
-3.277505905511811
11
6.3654409448818896
21
-3.2583129921259841
0
LINE
8
BLACK
6
CONTINUOUS
10
6.3654409448818896
20
-3.2583129921259841
11
6.3661714173228345
21
-3.254640590551181
0
LINE
8
BLACK
6
CONTINUOUS
10
6.3661714173228345
20
-3.254640590551181
11
6.3682516929133861
21
-3.2515272834645668
0
LINE
8
BLACK
6
CONTINUOUS
10
6.3682516929133861
20
-3.2515272834645668
11
6.3713649999999999
21
-3.2494470078740156
0
LINE
8
BLACK
6
CONTINUOUS
10
6.3713649999999999
20
-3.2494470078740156
11
6.3750374015748026
21
-3.2487165354330707
0
LINE
8
BLACK
6
CONTINUOUS
10
6.3750374015748026
20
-3.2487165354330707
11
6.410962598425197
21
-3.2487165354330707
0
LINE
8
BLACK
6
CONTINUOUS
10
6.410962598425197
20
-3.2487165354330707
11
6.4146349999999996
21
-3.2494470078740156
0
LINE
8
BLACK
6
CONTINUOUS
10
5.9441732283464566
20
-3.2805905511811022
11
5.8811811023622047
21
-3.2805905511811022
0
LINE
8
BLACK
6
CONTINUOUS
10
5.8811811023622047
20
-3.2805905511811022
11
5.8811811023622047
21
-3.2589370078740156
0
LINE
8
BLACK
6
CONTINUOUS
10
5.8811811023622047
20
-3.2589370078740156
11
5.9441732283464566
21
-3.2589370078740156
0
LINE
8
BLACK
6
CONTINUOUS
10
5.9441732283464566
20
-3.2589370078740156
11
5.9441732283464566
21
-3.2805905511811022
0
LINE
8
BLACK
6
CONTINUOUS
10
6.2788188976377954
20
-3.2805905511811022
11
6.2158267716535436
21
-3.2805905511811022
0
LINE
8
BLACK
6
CONTINUOUS
10
6.2158267716535436
20
-3.2805905511811022
11
6.2158267716535436
21
-3.2589370078740156
0
LINE
8
BLACK
6
CONTINUOUS
10
6.2158267716535436
20
-3.2589370078740156
11
6.2788188976377954
21
-3.2589370078740156
0
LINE
8
BLACK
6
CONTINUOUS
10
6.2788188976377954
20
-3.2589370078740156
11
6.2788188976377954
21
-3.2805905511811022
0
LINE
8
BLACK
6
CONTINUOUS
10
5.9805905511811019
20
-3.2441732283464568
11
5.9589370078740158
21
-3.2441732283464568
0
LINE
8
BLACK
6
CONTINUOUS
10
5.9589370078740158
20
-3.2441732283464568
11
5.9589370078740158
21
-3.1811811023622045
0
LINE
8
BLACK
6
CONTINUOUS
10
5.9589370078740158
20
-3.1811811023622045
11
5.9805905511811019
21
-3.1811811023622045
0
LINE
8
BLACK
6
CONTINUOUS
10
5.9805905511811019
20
-3.1811811023622045
11
5.9805905511811019
21
-3.2441732283464568
0
LINE
8
BLACK
6
CONTINUOUS
10
6.0120866141732279
20
-3.2441732283464568
11
5.9904330708661417
21
-3.2441732283464568
0
LINE
8
BLACK
6
CONTINUOUS
10
5.9904330708661417
20
-3.2441732283464568
11
5.9904330708661417
21
-3.1811811023622045
0
LINE
8
BLACK
6
CONTINUOUS
10
5.9904330708661417
20
-3.1811811023622045
11
6.0120866141732279
21
-3.1811811023622045
0
LINE
8
BLACK
6
CONTINUOUS
10
6.0120866141732279
20
-3.1811811023622045
11
6.0120866141732279
21
-3.2441732283464568
0
LINE
8
BLACK
6
CONTINUOUS
10
6.0435826771653538
20
-3.2441732283464568
11
6.0219291338582677
21
-3.2441732283464568
0
LINE
8
BLACK
6
CONTINUOUS
10
6.0219291338582677
20
-3.2441732283464568
11
6.0219291338582677
21
-3.1811811023622045
0
LINE
8
BLACK
6
CONTINUOUS
10
6.0219291338582677
20
-3.1811811023622045
11
6.0435826771653538
21
-3.1811811023622045
0
LINE
8
BLACK
6
CONTINUOUS
10
6.0435826771653538
20
-3.1811811023622045
11
6.0435826771653538
21
-3.2441732283464568
0
LINE
8
BLACK
6
CONTINUOUS
10
6.0750787401574806
20
-3.2441732283464568
11
6.0534251968503936
21
-3.2441732283464568
0
LINE
8
BLACK
6
CONTINUOUS
10
6.0534251968503936
20
-3.2441732283464568
11
6.0534251968503936
21
-3.1811811023622045
0
LINE
8
BLACK
6
CONTINUOUS
10
6.0534251968503936
20
-3.1811811023622045
11
6.0750787401574806
21
-3.1811811023622045
0
LINE
8
BLACK
6
CONTINUOUS
10
6.0750787401574806
20
-3.1811811023622045
11
6.0750787401574806
21
-3.2441732283464568
0
LINE
8
BLACK
6
CONTINUOUS
10
6.1065748031496065
20
-3.2441732283464568
11
6.0849212598425195
21
-3.2441732283464568
0
LINE
8
BLACK
6
CONTINUOUS
10
6.0849212598425195
20
-3.2441732283464568
11
6.0849212598425195
21
-3.1811811023622045
0
LINE
8
BLACK
6
CONTINUOUS
10
6.0849212598425195
20
-3.1811811023622045
11
6.1065748031496065
21
-3.1811811023622045
0
LINE
8
BLACK
6
CONTINUOUS
10
6.1065748031496065
20
-3.1811811023622045
11
6.1065748031496065
21
-3.2441732283464568
0
LINE
8
BLACK
6
CONTINUOUS
10
6.1380708661417325
20
-3.2441732283464568
11
6.1164173228346455
21
-3.2441732283464568
0
LINE
8
BLACK
6
CONTINUOUS
10
6.1164173228346455
20
-3.2441732283464568
11
6.1164173228346455
21
-3.1811811023622045
0
LINE
8
BLACK
6
CONTINUOUS
10
6.1164173228346455
20
-3.1811811023622045
11
6.1380708661417325
21
-3.1811811023622045
0
LINE
8
BLACK
6
CONTINUOUS
10
6.1380708661417325
20
-3.1811811023622045
11
6.1380708661417325
21
-3.2441732283464568
0
LINE
8
BLACK
6
CONTINUOUS
10
6.1695669291338584
20
-3.2441732283464568
11
6.1479133858267714
21
-3.2441732283464568
0
LINE
8
BLACK
6
CONTINUOUS
10
6.1479133858267714
20
-3.2441732283464568
11
6.1479133858267714
21
-3.1811811023622045
0
LINE
8
BLACK
6
CONTINUOUS
10
6.1479133858267714
20
-3.1811811023622045
11
6.1695669291338584
21
-3.1811811023622045
0
LINE
8
BLACK
6
CONTINUOUS
10
6.1695669291338584
20
-3.1811811023622045
11
6.1695669291338584
21
-3.2441732283464568
0
LINE
8
BLACK
6
CONTINUOUS
10
6.2010629921259843
20
-3.2441732283464568
11
6.1794094488188973
21
-3.2441732283464568
0
LINE
8
BLACK
6
CONTINUOUS
10
6.1794094488188973
20
-3.2441732283464568
11
6.1794094488188973
21
-3.1811811023622045
0
LINE
8
BLACK
6
CONTINUOUS
10
6.1794094488188973
20
-3.1811811023622045
11
6.2010629921259843
21
-3.1811811023622045
0
LINE
8
BLACK
6
CONTINUOUS
10
6.2010629921259843
20
-3.1811811023622045
11
6.2010629921259843
21
-3.2441732283464568
0
LINE
8
BLACK
6
CONTINUOUS
10
5.7206349999999997
20
-3.2046281102362202
11
5.7237483070866144
21
-3.2067083858267718
0
LINE
8
BLACK
6
CONTINUOUS
10
5.7237483070866144
20
-3.2067083858267718
11
5.7258285826771651
21
-3.2098216929133856
0
LINE
8
BLACK
6
CONTINUOUS
10
5.7258285826771651
20
-3.2098216929133856
11
5.72655905511811
21
-3.2134940944881891
0
LINE
8
BLACK
6
CONTINUOUS
10
5.72655905511811
20
-3.2134940944881891
11
5.72655905511811
21
-3.2326870078740155
0
LINE
8
BLACK
6
CONTINUOUS
10
5.72655905511811
20
-3.2326870078740155
11
5.7258285826771651
21
-3.2363594094488186
0
LINE
8
BLACK
6
CONTINUOUS
10
5.7258285826771651
20
-3.2363594094488186
11
5.7237483070866144
21
-3.2394727165354329
0
LINE
8
BLACK
6
CONTINUOUS
10
5.7237483070866144
20
-3.2394727165354329
11
5.7206349999999997
21
-3.241552992125984
0
LINE
8
BLACK
6
CONTINUOUS
10
5.7206349999999997
20
-3.241552992125984
11
5.7169625984251971
21
-3.242283464566929
0
LINE
8
BLACK
6
CONTINUOUS
10
5.7169625984251971
20
-3.242283464566929
11
5.6810374015748026
21
-3.242283464566929
0
LINE
8
BLACK
6
CONTINUOUS
10
5.6810374015748026
20
-3.242283464566929
11
5.677365
21
-3.241552992125984
0
LINE
8
BLACK
6
CONTINUOUS
10
5.677365
20
-3.241552992125984
11
5.6742516929133853
21
-3.2394727165354329
0
LINE
8
BLACK
6
CONTINUOUS
10
5.6742516929133853
20
-3.2394727165354329
11
5.6721714173228346
21
-3.2363594094488186
0
LINE
8
BLACK
6
CONTINUOUS
10
5.6721714173228346
20
-3.2363594094488186
11
5.6714409448818897
21
-3.2326870078740155
0
LINE
8
BLACK
6
CONTINUOUS
10
5.6714409448818897
20
-3.2326870078740155
11
5.6714409448818897
21
-3.2134940944881891
0
LINE
8
BLACK
6
CONTINUOUS
10
5.6714409448818897
20
-3.2134940944881891
11
5.6721714173228346
21
-3.2098216929133856
0
LINE
8
BLACK
6
CONTINUOUS
10
5.6721714173228346
20
-3.2098216929133856
11
5.6742516929133853
21
-3.2067083858267718
0
LINE
8
BLACK
6
CONTINUOUS
10
5.6742516929133853
20
-3.2067083858267718
11
5.677365
21
-3.2046281102362202
0
LINE
8
BLACK
6
CONTINUOUS
10
5.677365
20
-3.2046281102362202
11
5.6810374015748026
21
-3.2038976377952757
0
LINE
8
BLACK
6
CONTINUOUS
10
5.6810374015748026
20
-3.2038976377952757
11
5.7169625984251971
21
-3.2038976377952757
0
LINE
8
BLACK
6
CONTINUOUS
10
5.7169625984251971
20
-3.2038976377952757
11
5.7206349999999997
21
-3.2046281102362202
0
LINE
8
BLACK
6
CONTINUOUS
10
6.7233843307086616
20
-3.1934272047244092
11
6.7261783464566927
21
-3.1952940944881889
0
LINE
8
BLACK
6
CONTINUOUS
10
6.7261783464566927
20
-3.1952940944881889
11
6.7280452362204723
21
-3.1980881102362204
0
LINE
8
BLACK
6
CONTINUOUS
10
6.7280452362204723
20
-3.1980881102362204
11
6.728700787401575
21
-3.2013838582677163
0
LINE
8
BLACK
6
CONTINUOUS
10
6.728700787401575
20
-3.2013838582677163
11
6.728700787401575
21
-3.2186082677165353
0
LINE
8
BLACK
6
CONTINUOUS
10
6.728700787401575
20
-3.2186082677165353
11
6.7280452362204723
21
-3.2219040157480312
0
LINE
8
BLACK
6
CONTINUOUS
10
6.7280452362204723
20
-3.2219040157480312
11
6.7261783464566927
21
-3.2246980314960627
0
LINE
8
BLACK
6
CONTINUOUS
10
6.7261783464566927
20
-3.2246980314960627
11
6.7233843307086616
21
-3.2265649212598424
0
LINE
8
BLACK
6
CONTINUOUS
10
6.7233843307086616
20
-3.2265649212598424
11
6.7200885826771648
21
-3.227220472440945
0
LINE
8
BLACK
6
CONTINUOUS
10
6.7200885826771648
20
-3.227220472440945
11
6.6999114173228342
21
-3.227220472440945
0
LINE
8
BLACK
6
CONTINUOUS
10
6.6999114173228342
20
-3.227220472440945
11
6.6966156692913383
21
-3.2265649212598424
0
LINE
8
BLACK
6
CONTINUOUS
10
6.6966156692913383
20
-3.2265649212598424
11
6.6938216535433073
21
-3.2246980314960627
0
LINE
8
BLACK
6
CONTINUOUS
10
6.6938216535433073
20
-3.2246980314960627
11
6.6919547637795276
21
-3.2219040157480312
0
LINE
8
BLACK
6
CONTINUOUS
10
6.6919547637795276
20
-3.2219040157480312
11
6.691299212598425
21
-3.2186082677165353
0
LINE
8
BLACK
6
CONTINUOUS
10
6.691299212598425
20
-3.2186082677165353
11
6.691299212598425
21
-3.2013838582677163
0
LINE
8
BLACK
6
CONTINUOUS
10
6.691299212598425
20
-3.2013838582677163
11
6.6919547637795276
21
-3.1980881102362204
0
LINE
8
BLACK
6
CONTINUOUS
10
6.6919547637795276
20
-3.1980881102362204
11
6.6938216535433073
21
-3.1952940944881889
0
LINE
8
BLACK
6
CONTINUOUS
10
6.6938216535433073
20
-3.1952940944881889
11
6.6966156692913383
21
-3.1934272047244092
0
LINE
8
BLACK
6
CONTINUOUS
10
6.6966156692913383
20
-3.1934272047244092
11
6.6999114173228342
21
-3.1927716535433071
0
LINE
8
BLACK
6
CONTINUOUS
10
6.6999114173228342
20
-3.1927716535433071
11
6.7200885826771648
21
-3.1927716535433071
0
LINE
8
BLACK
6
CONTINUOUS
10
6.7200885826771648
20
-3.1927716535433071
11
6.7233843307086616
21
-3.1934272047244092
0
LINE
8
BLACK
6
CONTINUOUS
10
6.4146349999999996
20
-3.1756281102362203
11
6.4177483070866144
21
-3.1777083858267714
0
LINE
8
BLACK
6
CONTINUOUS
10
6.4177483070866144
20
-3.1777083858267714
11
6.4198285826771651
21
-3.1808216929133857
0
LINE
8
BLACK
6
CONTINUOUS
10
6.4198285826771651
20
-3.1808216929133857
11
6.42055905511811
21
-3.1844940944881888
0
LINE
8
BLACK
6
CONTINUOUS
10
6.42055905511811
20
-3.1844940944881888
11
6.42055905511811
21
-3.2036870078740156
0
LINE
8
BLACK
6
CONTINUOUS
10
6.42055905511811
20
-3.2036870078740156
11
6.4198285826771651
21
-3.2073594094488187
0
LINE
8
BLACK
6
CONTINUOUS
10
6.4198285826771651
20
-3.2073594094488187
11
6.4177483070866144
21
-3.210472716535433
0
LINE
8
BLACK
6
CONTINUOUS
10
6.4177483070866144
20
-3.210472716535433
11
6.4146349999999996
21
-3.2125529921259841
0
LINE
8
BLACK
6
CONTINUOUS
10
6.4146349999999996
20
-3.2125529921259841
11
6.410962598425197
21
-3.213283464566929
0
LINE
8
BLACK
6
CONTINUOUS
10
6.410962598425197
20
-3.213283464566929
11
6.3750374015748026
21
-3.213283464566929
0
LINE
8
BLACK
6
CONTINUOUS
10
6.3750374015748026
20
-3.213283464566929
11
6.3713649999999999
21
-3.2125529921259841
0
LINE
8
BLACK
6
CONTINUOUS
10
6.3713649999999999
20
-3.2125529921259841
11
6.3682516929133861
21
-3.210472716535433
0
LINE
8
BLACK
6
CONTINUOUS
10
6.3682516929133861
20
-3.210472716535433
11
6.3661714173228345
21
-3.2073594094488187
0
LINE
8
BLACK
6
CONTINUOUS
10
6.3661714173228345
20
-3.2073594094488187
11
6.3654409448818896
21
-3.2036870078740156
0
LINE
8
BLACK
6
CONTINUOUS
10
6.3654409448818896
20
-3.2036870078740156
11
6.3654409448818896
21
-3.1844940944881888
0
LINE
8
BLACK
6
CONTINUOUS
10
6.3654409448818896
20
-3.1844940944881888
11
6.3661714173228345
21
-3.1808216929133857
0
LINE
8
BLACK
6
CONTINUOUS
10
6.3661714173228345
20
-3.1808216929133857
11
6.3682516929133861
21
-3.1777083858267714
0
LINE
8
BLACK
6
CONTINUOUS
10
6.3682516929133861
20
-3.1777083858267714
11
6.3713649999999999
21
-3.1756281102362203
0
LINE
8
BLACK
6
CONTINUOUS
10
6.3713649999999999
20
-3.1756281102362203
11
6.3750374015748026
21
-3.1748976377952753
0
LINE
8
BLACK
6
CONTINUOUS
10
6.3750374015748026
20
-3.1748976377952753
11
6.410962598425197
21
-3.1748976377952753
0
LINE
8
BLACK
6
CONTINUOUS
10
6.410962598425197
20
-3.1748976377952753
11
6.4146349999999996
21
-3.1756281102362203
0
LINE
8
BLACK
6
CONTINUOUS
10
5.7206349999999997
20
-3.1274470078740157
11
5.7237483070866144
21
-3.1295272834645669
0
LINE
8
BLACK
6
CONTINUOUS
10
5.7237483070866144
20
-3.1295272834645669
11
5.7258285826771651
21
-3.1326405905511812
0
LINE
8
BLACK
6
CONTINUOUS
10
5.7258285826771651
20
-3.1326405905511812
11
5.72655905511811
21
-3.1363129921259842
0
LINE
8
BLACK
6
CONTINUOUS
10
5.72655905511811
20
-3.1363129921259842
11
5.72655905511811
21
-3.1555059055118111
0
LINE
8
BLACK
6
CONTINUOUS
10
5.72655905511811
20
-3.1555059055118111
11
5.7258285826771651
21
-3.1591783070866142
0
LINE
8
BLACK
6
CONTINUOUS
10
5.7258285826771651
20
-3.1591783070866142
11
5.7237483070866144
21
-3.1622916141732285
0
LINE
8
BLACK
6
CONTINUOUS
10
5.7237483070866144
20
-3.1622916141732285
11
5.7206349999999997
21
-3.1643718897637796
0
LINE
8
BLACK
6
CONTINUOUS
10
5.7206349999999997
20
-3.1643718897637796
11
5.7169625984251971
21
-3.1651023622047245
0
LINE
8
BLACK
6
CONTINUOUS
10
5.7169625984251971
20
-3.1651023622047245
11
5.6810374015748026
21
-3.1651023622047245
0
LINE
8
BLACK
6
CONTINUOUS
10
5.6810374015748026
20
-3.1651023622047245
11
5.677365
21
-3.1643718897637796
0
LINE
8
BLACK
6
CONTINUOUS
10
5.677365
20
-3.1643718897637796
11
5.6742516929133853
21
-3.1622916141732285
0
LINE
8
BLACK
6
CONTINUOUS
10
5.6742516929133853
20
-3.1622916141732285
11
5.6721714173228346
21
-3.1591783070866142
0
LINE
8
BLACK
6
CONTINUOUS
10
5.6721714173228346
20
-3.1591783070866142
11
5.6714409448818897
21
-3.1555059055118111
0
LINE
8
BLACK
6
CONTINUOUS
10
5.6714409448818897
20
-3.1555059055118111
11
5.6714409448818897
21
-3.1363129921259842
0
LINE
8
BLACK
6
CONTINUOUS
10
5.6714409448818897
20
-3.1363129921259842
11
5.6721714173228346
21
-3.1326405905511812
0
LINE
8
BLACK
6
CONTINUOUS
10
5.6721714173228346
20
-3.1326405905511812
11
5.6742516929133853
21
-3.1295272834645669
0
LINE
8
BLACK
6
CONTINUOUS
10
5.6742516929133853
20
-3.1295272834645669
11
5.677365
21
-3.1274470078740157
0
LINE
8
BLACK
6
CONTINUOUS
10
5.677365
20
-3.1274470078740157
11
5.6810374015748026
21
-3.1267165354330708
0
LINE
8
BLACK
6
CONTINUOUS
10
5.6810374015748026
20
-3.1267165354330708
11
5.7169625984251971
21
-3.1267165354330708
0
LINE
8
BLACK
6
CONTINUOUS
10
5.7169625984251971
20
-3.1267165354330708
11
5.7206349999999997
21
-3.1274470078740157
0
LINE
8
BLACK
6
CONTINUOUS
10
6.0383594094488187
20
-3.0781714173228347
11
6.0414727165354325
21
-3.0802516929133859
0
LINE
8
BLACK
6
CONTINUOUS
10
6.0414727165354325
20
-3.0802516929133859
11
6.0435529921259841
21
-3.0833650000000001
0
LINE
8
BLACK
6
CONTINUOUS
10
6.0435529921259841
20
-3.0833650000000001
11
6.044283464566929
21
-3.0870374015748032
0
LINE
8
BLACK
6
CONTINUOUS
10
6.044283464566929
20
-3.0870374015748032
11
6.044283464566929
21
-3.1229625984251967
0
LINE
8
BLACK
6
CONTINUOUS
10
6.044283464566929
20
-3.1229625984251967
11
6.0435529921259841
21
-3.1266349999999998
0
LINE
8
BLACK
6
CONTINUOUS
10
6.0435529921259841
20
-3.1266349999999998
11
6.0414727165354325
21
-3.1297483070866141
0
LINE
8
BLACK
6
CONTINUOUS
10
6.0414727165354325
20
-3.1297483070866141
11
6.0383594094488187
21
-3.1318285826771652
0
LINE
8
BLACK
6
CONTINUOUS
10
6.0383594094488187
20
-3.1318285826771652
11
6.034687007874016
21
-3.1325590551181102
0
LINE
8
BLACK
6
CONTINUOUS
10
6.034687007874016
20
-3.1325590551181102
11
6.0154940944881892
21
-3.1325590551181102
0
LINE
8
BLACK
6
CONTINUOUS
10
6.0154940944881892
20
-3.1325590551181102
11
6.0118216929133856
21
-3.1318285826771652
0
LINE
8
BLACK
6
CONTINUOUS
10
6.0118216929133856
20
-3.1318285826771652
11
6.0087083858267718
21
-3.1297483070866141
0
LINE
8
BLACK
6
CONTINUOUS
10
6.0087083858267718
20
-3.1297483070866141
11
6.0066281102362202
21
-3.1266349999999998
0
LINE
8
BLACK
6
CONTINUOUS
10
6.0066281102362202
20
-3.1266349999999998
11
6.0058976377952753
21
-3.1229625984251967
0
LINE
8
BLACK
6
CONTINUOUS
10
6.0058976377952753
20
-3.1229625984251967
11
6.0058976377952753
21
-3.0870374015748032
0
LINE
8
BLACK
6
CONTINUOUS
10
6.0058976377952753
20
-3.0870374015748032
11
6.0066281102362202
21
-3.0833650000000001
0
LINE
8
BLACK
6
CONTINUOUS
10
6.0066281102362202
20
-3.0833650000000001
11
6.0087083858267718
21
-3.0802516929133859
0
LINE
8
BLACK
6
CONTINUOUS
10
6.0087083858267718
20
-3.0802516929133859
11
6.0118216929133856
21
-3.0781714173228347
0
LINE
8
BLACK
6
CONTINUOUS
10
6.0118216929133856
20
-3.0781714173228347
11
6.0154940944881892
21
-3.0774409448818898
0
LINE
8
BLACK
6
CONTINUOUS
10
6.0154940944881892
20
-3.0774409448818898
11
6.034687007874016
21
-3.0774409448818898
0
LINE
8
BLACK
6
CONTINUOUS
10
6.034687007874016
20
-3.0774409448818898
11
6.0383594094488187
21
-3.0781714173228347
0
LINE
8
BLACK
6
CONTINUOUS
10
6.112178307086614
20
-3.0781714173228347
11
6.1152916141732279
21
-3.0802516929133859
0
LINE
8
BLACK
6
CONTINUOUS
10
6.1152916141732279
20
-3.0802516929133859
11
6.1173718897637794
21
-3.0833650000000001
0
LINE
8
BLACK
6
CONTINUOUS
10
6.1173718897637794
20
-3.0833650000000001
11
6.1181023622047244
21
-3.0870374015748032
0
LINE
8
BLACK
6
CONTINUOUS
10
6.1181023622047244
20
-3.0870374015748032
11
6.1181023622047244
21
-3.1229625984251967
0
LINE
8
BLACK
6
CONTINUOUS
10
6.1181023622047244
20
-3.1229625984251967
11
6.1173718897637794
21
-3.1266349999999998
0
LINE
8
BLACK
6
CONTINUOUS
10
6.1173718897637794
20
-3.1266349999999998
11
6.1152916141732279
21
-3.1297483070866141
0
LINE
8
BLACK
6
CONTINUOUS
10
6.1152916141732279
20
-3.1297483070866141
11
6.112178307086614
21
-3.1318285826771652
0
LINE
8
BLACK
6
CONTINUOUS
10
6.112178307086614
20
-3.1318285826771652
11
6.1085059055118105
21
-3.1325590551181102
0
LINE
8
BLACK
6
CONTINUOUS
10
6.1085059055118105
20
-3.1325590551181102
11
6.0893129921259845
21
-3.1325590551181102
0
LINE
8
BLACK
6
CONTINUOUS
10
6.0893129921259845
20
-3.1325590551181102
11
6.085640590551181
21
-3.1318285826771652
0
LINE
8
BLACK
6
CONTINUOUS
10
6.085640590551181
20
-3.1318285826771652
11
6.0825272834645672
21
-3.1297483070866141
0
LINE
8
BLACK
6
CONTINUOUS
10
6.0825272834645672
20
-3.1297483070866141
11
6.0804470078740156
21
-3.1266349999999998
0
LINE
8
BLACK
6
CONTINUOUS
10
6.0804470078740156
20
-3.1266349999999998
11
6.0797165354330707
21
-3.1229625984251967
0
LINE
8
BLACK
6
CONTINUOUS
10
6.0797165354330707
20
-3.1229625984251967
11
6.0797165354330707
21
-3.0870374015748032
0
LINE
8
BLACK
6
CONTINUOUS
10
6.0797165354330707
20
-3.0870374015748032
11
6.0804470078740156
21
-3.0833650000000001
0
LINE
8
BLACK
6
CONTINUOUS
10
6.0804470078740156
20
-3.0833650000000001
11
6.0825272834645672
21
-3.0802516929133859
0
LINE
8
BLACK
6
CONTINUOUS
10
6.0825272834645672
20
-3.0802516929133859
11
6.085640590551181
21
-3.0781714173228347
0
LINE
8
BLACK
6
CONTINUOUS
10
6.085640590551181
20
-3.0781714173228347
11
6.0893129921259845
21
-3.0774409448818898
0
LINE
8
BLACK
6
CONTINUOUS
10
6.0893129921259845
20
-3.0774409448818898
11
6.1085059055118105
21
-3.0774409448818898
0
LINE
8
BLACK
6
CONTINUOUS
10
6.1085059055118105
20
-3.0774409448818898
11
6.112178307086614
21
-3.0781714173228347
0
LINE
8
BLACK
6
CONTINUOUS
10
6.5419161811023621
20
-2.9738200787401574
11
6.5451093307086614
21
-2.9759536614173228
0
LINE
8
BLACK
6
CONTINUOUS
10
6.5451093307086614
20
-2.9759536614173228
11
6.5472429133858263
21
-2.9791468110236221
0
LINE
8
BLACK
6
CONTINUOUS
10
6.5472429133858263
20
-2.9791468110236221
11
6.5479921259842522
21
-2.9829133858267718
0
LINE
8
BLACK
6
CONTINUOUS
10
6.5479921259842522
20
-2.9829133858267718
11
6.5479921259842522
21
-3.0970866141732283
0
LINE
8
BLACK
6
CONTINUOUS
10
6.5479921259842522
20
-3.0970866141732283
11
6.5472429133858263
21
-3.100853188976378
0
LINE
8
BLACK
6
CONTINUOUS
10
6.5472429133858263
20
-3.100853188976378
11
6.5451093307086614
21
-3.1040463385826773
0
LINE
8
BLACK
6
CONTINUOUS
10
6.5451093307086614
20
-3.1040463385826773
11
6.5419161811023621
21
-3.1061799212598427
0
LINE
8
BLACK
6
CONTINUOUS
10
6.5419161811023621
20
-3.1061799212598427
11
6.5381496062992124
21
-3.1069291338582676
0
LINE
8
BLACK
6
CONTINUOUS
10
6.5381496062992124
20
-3.1069291338582676
11
6.5135433070866142
21
-3.1069291338582676
0
LINE
8
BLACK
6
CONTINUOUS
10
6.5135433070866142
20
-3.1069291338582676
11
6.5097767322834645
21
-3.1061799212598427
0
LINE
8
BLACK
6
CONTINUOUS
10
6.5097767322834645
20
-3.1061799212598427
11
6.5065835826771652
21
-3.1040463385826773
0
LINE
8
BLACK
6
CONTINUOUS
10
6.5065835826771652
20
-3.1040463385826773
11
6.5044500000000003
21
-3.100853188976378
0
LINE
8
BLACK
6
CONTINUOUS
10
6.5044500000000003
20
-3.100853188976378
11
6.5037007874015744
21
-3.0970866141732283
0
LINE
8
BLACK
6
CONTINUOUS
10
6.5037007874015744
20
-3.0970866141732283
11
6.5037007874015744
21
-2.9829133858267718
0
LINE
8
BLACK
6
CONTINUOUS
10
6.5037007874015744
20
-2.9829133858267718
11
6.5044500000000003
21
-2.9791468110236221
0
LINE
8
BLACK
6
CONTINUOUS
10
6.5044500000000003
20
-2.9791468110236221
11
6.5065835826771652
21
-2.9759536614173228
0
LINE
8
BLACK
6
CONTINUOUS
10
6.5065835826771652
20
-2.9759536614173228
11
6.5097767322834645
21
-2.9738200787401574
0
LINE
8
BLACK
6
CONTINUOUS
10
6.5097767322834645
20
-2.9738200787401574
11
6.5135433070866142
21
-2.973070866141732
0
LINE
8
BLACK
6
CONTINUOUS
10
6.5135433070866142
20
-2.973070866141732
11
6.5381496062992124
21
-2.973070866141732
0
LINE
8
BLACK
6
CONTINUOUS
10
6.5381496062992124
20
-2.973070866141732
11
6.5419161811023621
21
-2.9738200787401574
0
LINE
8
BLACK
6
CONTINUOUS
10
6.7102232677165352
20
-2.9738200787401574
11
6.7134164173228346
21
-2.9759536614173228
0
LINE
8
BLACK
6
CONTINUOUS
10
6.7134164173228346
20
-2.9759536614173228
11
6.7155499999999995
21
-2.9791468110236221
0
LINE
8
BLACK
6
CONTINUOUS
10
6.7155499999999995
20
-2.9791468110236221
11
6.7162992125984253
21
-2.9829133858267718
0
LINE
8
BLACK
6
CONTINUOUS
10
6.7162992125984253
20
-2.9829133858267718
11
6.7162992125984253
21
-3.0970866141732283
0
LINE
8
BLACK
6
CONTINUOUS
10
6.7162992125984253
20
-3.0970866141732283
11
6.7155499999999995
21
-3.100853188976378
0
LINE
8
BLACK
6
CONTINUOUS
10
6.7155499999999995
20
-3.100853188976378
11
6.7134164173228346
21
-3.1040463385826773
0
LINE
8
BLACK
6
CONTINUOUS
10
6.7134164173228346
20
-3.1040463385826773
11
6.7102232677165352
21
-3.1061799212598427
0
LINE
8
BLACK
6
CONTINUOUS
10
6.7102232677165352
20
-3.1061799212598427
11
6.7064566929133855
21
-3.1069291338582676
0
LINE
8
BLACK
6
CONTINUOUS
10
6.7064566929133855
20
-3.1069291338582676
11
6.6818503937007874
21
-3.1069291338582676
0
LINE
8
BLACK
6
CONTINUOUS
10
6.6818503937007874
20
-3.1069291338582676
11
6.6780838188976377
21
-3.1061799212598427
0
LINE
8
BLACK
6
CONTINUOUS
10
6.6780838188976377
20
-3.1061799212598427
11
6.6748906692913383
21
-3.1040463385826773
0
LINE
8
BLACK
6
CONTINUOUS
10
6.6748906692913383
20
-3.1040463385826773
11
6.6727570866141734
21
-3.100853188976378
0
LINE
8
BLACK
6
CONTINUOUS
10
6.6727570866141734
20
-3.100853188976378
11
6.6720078740157476
21
-3.0970866141732283
0
LINE
8
BLACK
6
CONTINUOUS
10
6.6720078740157476
20
-3.0970866141732283
11
6.6720078740157476
21
-2.9829133858267718
0
LINE
8
BLACK
6
CONTINUOUS
10
6.6720078740157476
20
-2.9829133858267718
11
6.6727570866141734
21
-2.9791468110236221
0
LINE
8
BLACK
6
CONTINUOUS
10
6.6727570866141734
20
-2.9791468110236221
11
6.6748906692913383
21
-2.9759536614173228
0
LINE
8
BLACK
6
CONTINUOUS
10
6.6748906692913383
20
-2.9759536614173228
11
6.6780838188976377
21
-2.9738200787401574
0
LINE
8
BLACK
6
CONTINUOUS
10
6.6780838188976377
20
-2.9738200787401574
11
6.6818503937007874
21
-2.973070866141732
0
LINE
8
BLACK
6
CONTINUOUS
10
6.6818503937007874
20
-2.973070866141732
11
6.7064566929133855
21
-2.973070866141732
0
LINE
8
BLACK
6
CONTINUOUS
10
6.7064566929133855
20
-2.973070866141732
11
6.7102232677165352
21
-2.9738200787401574
0
LINE
8
BLACK
6
CONTINUOUS
10
5.7206349999999997
20
-3.0536281102362204
11
5.7237483070866144
21
-3.0557083858267715
0
LINE
8
BLACK
6
CONTINUOUS
10
5.7237483070866144
20
-3.0557083858267715
11
5.7258285826771651
21
-3.0588216929133858
0
LINE
8
BLACK
6
CONTINUOUS
10
5.7258285826771651
20
-3.0588216929133858
11
5.72655905511811
21
-3.0624940944881889
0
LINE
8
BLACK
6
CONTINUOUS
10
5.72655905511811
20
-3.0624940944881889
11
5.72655905511811
21
-3.0816870078740157
0
LINE
8
BLACK
6
CONTINUOUS
10
5.72655905511811
20
-3.0816870078740157
11
5.7258285826771651
21
-3.0853594094488188
0
LINE
8
BLACK
6
CONTINUOUS
10
5.7258285826771651
20
-3.0853594094488188
11
5.7237483070866144
21
-3.0884727165354331
0
LINE
8
BLACK
6
CONTINUOUS
10
5.7237483070866144
20
-3.0884727165354331
11
5.7206349999999997
21
-3.0905529921259842
0
LINE
8
BLACK
6
CONTINUOUS
10
5.7206349999999997
20
-3.0905529921259842
11
5.7169625984251971
21
-3.0912834645669292
0
LINE
8
BLACK
6
CONTINUOUS
10
5.7169625984251971
20
-3.0912834645669292
11
5.6810374015748026
21
-3.0912834645669292
0
LINE
8
BLACK
6
CONTINUOUS
10
5.6810374015748026
20
-3.0912834645669292
11
5.677365
21
-3.0905529921259842
0
LINE
8
BLACK
6
CONTINUOUS
10
5.677365
20
-3.0905529921259842
11
5.6742516929133853
21
-3.0884727165354331
0
LINE
8
BLACK
6
CONTINUOUS
10
5.6742516929133853
20
-3.0884727165354331
11
5.6721714173228346
21
-3.0853594094488188
0
LINE
8
BLACK
6
CONTINUOUS
10
5.6721714173228346
20
-3.0853594094488188
11
5.6714409448818897
21
-3.0816870078740157
0
LINE
8
BLACK
6
CONTINUOUS
10
5.6714409448818897
20
-3.0816870078740157
11
5.6714409448818897
21
-3.0624940944881889
0
LINE
8
BLACK
6
CONTINUOUS
10
5.6714409448818897
20
-3.0624940944881889
11
5.6721714173228346
21
-3.0588216929133858
0
LINE
8
BLACK
6
CONTINUOUS
10
5.6721714173228346
20
-3.0588216929133858
11
5.6742516929133853
21
-3.0557083858267715
0
LINE
8
BLACK
6
CONTINUOUS
10
5.6742516929133853
20
-3.0557083858267715
11
5.677365
21
-3.0536281102362204
0
LINE
8
BLACK
6
CONTINUOUS
10
5.677365
20
-3.0536281102362204
11
5.6810374015748026
21
-3.0528976377952755
0
LINE
8
BLACK
6
CONTINUOUS
10
5.6810374015748026
20
-3.0528976377952755
11
5.7169625984251971
21
-3.0528976377952755
0
LINE
8
BLACK
6
CONTINUOUS
10
5.7169625984251971
20
-3.0528976377952755
11
5.7206349999999997
21
-3.0536281102362204
0
LINE
8
BLACK
6
CONTINUOUS
10
4.8858267716535435
20
-3.0393700787401574
11
4.8070866141732278
21
-3.0393700787401574
0
LINE
8
BLACK
6
CONTINUOUS
10
4.8070866141732278
20
-3.0393700787401574
11
4.8070866141732278
21
-2.9212598425196852
0
LINE
8
BLACK
6
CONTINUOUS
10
4.8070866141732278
20
-2.9212598425196852
11
4.8858267716535435
21
-2.9212598425196852
0
LINE
8
BLACK
6
CONTINUOUS
10
4.8858267716535435
20
-2.9212598425196852
11
4.8858267716535435
21
-3.0393700787401574
0
LINE
8
BLACK
6
CONTINUOUS
10
5.122047244094488
20
-3.0393700787401574
11
5.0433070866141732
21
-3.0393700787401574
0
LINE
8
BLACK
6
CONTINUOUS
10
5.0433070866141732
20
-3.0393700787401574
11
5.0433070866141732
21
-2.9212598425196852
0
LINE
8
BLACK
6
CONTINUOUS
10
5.0433070866141732
20
-2.9212598425196852
11
5.122047244094488
21
-2.9212598425196852
0
LINE
8
BLACK
6
CONTINUOUS
10
5.122047244094488
20
-2.9212598425196852
11
5.122047244094488
21
-3.0393700787401574
0
LINE
8
BLACK
6
CONTINUOUS
10
6.2345483858267716
20
-2.960494251968504
11
6.2376616929133855
21
-2.9625745275590551
0
LINE
8
BLACK
6
CONTINUOUS
10
6.2376616929133855
20
-2.9625745275590551
11
6.239741968503937
21
-2.9656878346456694
0
LINE
8
BLACK
6
CONTINUOUS
10
6.239741968503937
20
-2.9656878346456694
11
6.240472440944882
21
-2.9693602362204725
0
LINE
8
BLACK
6
CONTINUOUS
10
6.240472440944882
20
-2.9693602362204725
11
6.240472440944882
21
-3.005285433070866
0
LINE
8
BLACK
6
CONTINUOUS
10
6.240472440944882
20
-3.005285433070866
11
6.239741968503937
21
-3.0089578346456691
0
LINE
8
BLACK
6
CONTINUOUS
10
6.239741968503937
20
-3.0089578346456691
11
6.2376616929133855
21
-3.0120711417322834
0
LINE
8
BLACK
6
CONTINUOUS
10
6.2376616929133855
20
-3.0120711417322834
11
6.2345483858267716
21
-3.0141514173228345
0
LINE
8
BLACK
6
CONTINUOUS
10
6.2345483858267716
20
-3.0141514173228345
11
6.2308759842519681
21
-3.0148818897637795
0
LINE
8
BLACK
6
CONTINUOUS
10
6.2308759842519681
20
-3.0148818897637795
11
6.2116830708661412
21
-3.0148818897637795
0
LINE
8
BLACK
6
CONTINUOUS
10
6.2116830708661412
20
-3.0148818897637795
11
6.2080106692913386
21
-3.0141514173228345
0
LINE
8
BLACK
6
CONTINUOUS
10
6.2080106692913386
20
-3.0141514173228345
11
6.2048973622047239
21
-3.0120711417322834
0
LINE
8
BLACK
6
CONTINUOUS
10
6.2048973622047239
20
-3.0120711417322834
11
6.2028170866141732
21
-3.0089578346456691
0
LINE
8
BLACK
6
CONTINUOUS
10
6.2028170866141732
20
-3.0089578346456691
11
6.2020866141732283
21
-3.005285433070866
0
LINE
8
BLACK
6
CONTINUOUS
10
6.2020866141732283
20
-3.005285433070866
11
6.2020866141732283
21
-2.9693602362204725
0
LINE
8
BLACK
6
CONTINUOUS
10
6.2020866141732283
20
-2.9693602362204725
11
6.2028170866141732
21
-2.9656878346456694
0
LINE
8
BLACK
6
CONTINUOUS
10
6.2028170866141732
20
-2.9656878346456694
11
6.2048973622047239
21
-2.9625745275590551
0
LINE
8
BLACK
6
CONTINUOUS
10
6.2048973622047239
20
-2.9625745275590551
11
6.2080106692913386
21
-2.960494251968504
0
LINE
8
BLACK
6
CONTINUOUS
10
6.2080106692913386
20
-2.960494251968504
11
6.2116830708661412
21
-2.9597637795275591
0
LINE
8
BLACK
6
CONTINUOUS
10
6.2116830708661412
20
-2.9597637795275591
11
6.2308759842519681
21
-2.9597637795275591
0
LINE
8
BLACK
6
CONTINUOUS
10
6.2308759842519681
20
-2.9597637795275591
11
6.2345483858267716
21
-2.960494251968504
0
LINE
8
BLACK
6
CONTINUOUS
10
6.308367283464567
20
-2.960494251968504
11
6.3114805905511808
21
-2.9625745275590551
0
LINE
8
BLACK
6
CONTINUOUS
10
6.3114805905511808
20
-2.9625745275590551
11
6.3135608661417324
21
-2.9656878346456694
0
LINE
8
BLACK
6
CONTINUOUS
10
6.3135608661417324
20
-2.9656878346456694
11
6.3142913385826773
21
-2.9693602362204725
0
LINE
8
BLACK
6
CONTINUOUS
10
6.3142913385826773
20
-2.9693602362204725
11
6.3142913385826773
21
-3.005285433070866
0
LINE
8
BLACK
6
CONTINUOUS
10
6.3142913385826773
20
-3.005285433070866
11
6.3135608661417324
21
-3.0089578346456691
0
LINE
8
BLACK
6
CONTINUOUS
10
6.3135608661417324
20
-3.0089578346456691
11
6.3114805905511808
21
-3.0120711417322834
0
LINE
8
BLACK
6
CONTINUOUS
10
6.3114805905511808
20
-3.0120711417322834
11
6.308367283464567
21
-3.0141514173228345
0
LINE
8
BLACK
6
CONTINUOUS
10
6.308367283464567
20
-3.0141514173228345
11
6.3046948818897635
21
-3.0148818897637795
0
LINE
8
BLACK
6
CONTINUOUS
10
6.3046948818897635
20
-3.0148818897637795
11
6.2855019685039366
21
-3.0148818897637795
0
LINE
8
BLACK
6
CONTINUOUS
10
6.2855019685039366
20
-3.0148818897637795
11
6.281829566929134
21
-3.0141514173228345
0
LINE
8
BLACK
6
CONTINUOUS
10
6.281829566929134
20
-3.0141514173228345
11
6.2787162598425192
21
-3.0120711417322834
0
LINE
8
BLACK
6
CONTINUOUS
10
6.2787162598425192
20
-3.0120711417322834
11
6.2766359842519686
21
-3.0089578346456691
0
LINE
8
BLACK
6
CONTINUOUS
10
6.2766359842519686
20
-3.0089578346456691
11
6.2759055118110236
21
-3.005285433070866
0
LINE
8
BLACK
6
CONTINUOUS
10
6.2759055118110236
20
-3.005285433070866
11
6.2759055118110236
21
-2.9693602362204725
0
LINE
8
BLACK
6
CONTINUOUS
10
6.2759055118110236
20
-2.9693602362204725
11
6.2766359842519686
21
-2.9656878346456694
0
LINE
8
BLACK
6
CONTINUOUS
10
6.2766359842519686
20
-2.9656878346456694
11
6.2787162598425192
21
-2.9625745275590551
0
LINE
8
BLACK
6
CONTINUOUS
10
6.2787162598425192
20
-2.9625745275590551
11
6.281829566929134
21
-2.960494251968504
0
LINE
8
BLACK
6
CONTINUOUS
10
6.281829566929134
20
-2.960494251968504
11
6.2855019685039366
21
-2.9597637795275591
0
LINE
8
BLACK
6
CONTINUOUS
10
6.2855019685039366
20
-2.9597637795275591
11
6.3046948818897635
21
-2.9597637795275591
0
LINE
8
BLACK
6
CONTINUOUS
10
6.3046948818897635
20
-2.9597637795275591
11
6.308367283464567
21
-2.960494251968504
0
LINE
8
BLACK
6
CONTINUOUS
10
6.159823976377953
20
-2.9757698425196848
11
6.1629372834645668
21
-2.9778501181102364
0
LINE
8
BLACK
6
CONTINUOUS
10
6.1629372834645668
20
-2.9778501181102364
11
6.1650175590551184
21
-2.9809634251968502
0
LINE
8
BLACK
6
CONTINUOUS
10
6.1650175590551184
20
-2.9809634251968502
11
6.1657480314960624
21
-2.9846358267716533
0
LINE
8
BLACK
6
CONTINUOUS
10
6.1657480314960624
20
-2.9846358267716533
11
6.1657480314960624
21
-3.0038287401574801
0
LINE
8
BLACK
6
CONTINUOUS
10
6.1657480314960624
20
-3.0038287401574801
11
6.1650175590551184
21
-3.0075011417322832
0
LINE
8
BLACK
6
CONTINUOUS
10
6.1650175590551184
20
-3.0075011417322832
11
6.1629372834645668
21
-3.0106144488188975
0
LINE
8
BLACK
6
CONTINUOUS
10
6.1629372834645668
20
-3.0106144488188975
11
6.159823976377953
21
-3.0126947244094486
0
LINE
8
BLACK
6
CONTINUOUS
10
6.159823976377953
20
-3.0126947244094486
11
6.1561515748031495
21
-3.0134251968503936
0
LINE
8
BLACK
6
CONTINUOUS
10
6.1561515748031495
20
-3.0134251968503936
11
6.1202263779527559
21
-3.0134251968503936
0
LINE
8
BLACK
6
CONTINUOUS
10
6.1202263779527559
20
-3.0134251968503936
11
6.1165539763779524
21
-3.0126947244094486
0
LINE
8
BLACK
6
CONTINUOUS
10
6.1165539763779524
20
-3.0126947244094486
11
6.1134406692913386
21
-3.0106144488188975
0
LINE
8
BLACK
6
CONTINUOUS
10
6.1134406692913386
20
-3.0106144488188975
11
6.111360393700787
21
-3.0075011417322832
0
LINE
8
BLACK
6
CONTINUOUS
10
6.111360393700787
20
-3.0075011417322832
11
6.1106299212598421
21
-3.0038287401574801
0
LINE
8
BLACK
6
CONTINUOUS
10
6.1106299212598421
20
-3.0038287401574801
11
6.1106299212598421
21
-2.9846358267716533
0
LINE
8
BLACK
6
CONTINUOUS
10
6.1106299212598421
20
-2.9846358267716533
11
6.111360393700787
21
-2.9809634251968502
0
LINE
8
BLACK
6
CONTINUOUS
10
6.111360393700787
20
-2.9809634251968502
11
6.1134406692913386
21
-2.9778501181102364
0
LINE
8
BLACK
6
CONTINUOUS
10
6.1134406692913386
20
-2.9778501181102364
11
6.1165539763779524
21
-2.9757698425196848
0
LINE
8
BLACK
6
CONTINUOUS
10
6.1165539763779524
20
-2.9757698425196848
11
6.1202263779527559
21
-2.9750393700787403
0
LINE
8
BLACK
6
CONTINUOUS
10
6.1202263779527559
20
-2.9750393700787403
11
6.1561515748031495
21
-2.9750393700787403
0
LINE
8
BLACK
6
CONTINUOUS
10
6.1561515748031495
20
-2.9750393700787403
11
6.159823976377953
21
-2.9757698425196848
0
LINE
8
BLACK
6
CONTINUOUS
10
6.409823976377953
20
-2.9757698425196848
11
6.4129372834645668
21
-2.9778501181102364
0
LINE
8
BLACK
6
CONTINUOUS
10
6.4129372834645668
20
-2.9778501181102364
11
6.4150175590551184
21
-2.9809634251968502
0
LINE
8
BLACK
6
CONTINUOUS
10
6.4150175590551184
20
-2.9809634251968502
11
6.4157480314960624
21
-2.9846358267716533
0
LINE
8
BLACK
6
CONTINUOUS
10
6.4157480314960624
20
-2.9846358267716533
11
6.4157480314960624
21
-3.0038287401574801
0
LINE
8
BLACK
6
CONTINUOUS
10
6.4157480314960624
20
-3.0038287401574801
11
6.4150175590551184
21
-3.0075011417322832
0
LINE
8
BLACK
6
CONTINUOUS
10
6.4150175590551184
20
-3.0075011417322832
11
6.4129372834645668
21
-3.0106144488188975
0
LINE
8
BLACK
6
CONTINUOUS
10
6.4129372834645668
20
-3.0106144488188975
11
6.409823976377953
21
-3.0126947244094486
0
LINE
8
BLACK
6
CONTINUOUS
10
6.409823976377953
20
-3.0126947244094486
11
6.4061515748031495
21
-3.0134251968503936
0
LINE
8
BLACK
6
CONTINUOUS
10
6.4061515748031495
20
-3.0134251968503936
11
6.3702263779527559
21
-3.0134251968503936
0
LINE
8
BLACK
6
CONTINUOUS
10
6.3702263779527559
20
-3.0134251968503936
11
6.3665539763779524
21
-3.0126947244094486
0
LINE
8
BLACK
6
CONTINUOUS
10
6.3665539763779524
20
-3.0126947244094486
11
6.3634406692913386
21
-3.0106144488188975
0
LINE
8
BLACK
6
CONTINUOUS
10
6.3634406692913386
20
-3.0106144488188975
11
6.361360393700787
21
-3.0075011417322832
0
LINE
8
BLACK
6
CONTINUOUS
10
6.361360393700787
20
-3.0075011417322832
11
6.3606299212598421
21
-3.0038287401574801
0
LINE
8
BLACK
6
CONTINUOUS
10
6.3606299212598421
20
-3.0038287401574801
11
6.3606299212598421
21
-2.9846358267716533
0
LINE
8
BLACK
6
CONTINUOUS
10
6.3606299212598421
20
-2.9846358267716533
11
6.361360393700787
21
-2.9809634251968502
0
LINE
8
BLACK
6
CONTINUOUS
10
6.361360393700787
20
-2.9809634251968502
11
6.3634406692913386
21
-2.9778501181102364
0
LINE
8
BLACK
6
CONTINUOUS
10
6.3634406692913386
20
-2.9778501181102364
11
6.3665539763779524
21
-2.9757698425196848
0
LINE
8
BLACK
6
CONTINUOUS
10
6.3665539763779524
20
-2.9757698425196848
11
6.3702263779527559
21
-2.9750393700787403
0
LINE
8
BLACK
6
CONTINUOUS
10
6.3702263779527559
20
-2.9750393700787403
11
6.4061515748031495
21
-2.9750393700787403
0
LINE
8
BLACK
6
CONTINUOUS
10
6.4061515748031495
20
-2.9750393700787403
11
6.409823976377953
21
-2.9757698425196848
0
LINE
8
BLACK
6
CONTINUOUS
10
5.721635
20
-2.969234409448819
11
5.7247483070866139
21
-2.9713146850393701
0
LINE
8
BLACK
6
CONTINUOUS
10
5.7247483070866139
20
-2.9713146850393701
11
5.7268285826771654
21
-2.974427992125984
0
LINE
8
BLACK
6
CONTINUOUS
10
5.7268285826771654
20
-2.974427992125984
11
5.7275590551181104
21
-2.9781003937007875
0
LINE
8
BLACK
6
CONTINUOUS
10
5.7275590551181104
20
-2.9781003937007875
11
5.7275590551181104
21
-2.9972933070866139
0
LINE
8
BLACK
6
CONTINUOUS
10
5.7275590551181104
20
-2.9972933070866139
11
5.7268285826771654
21
-3.0009657086614174
0
LINE
8
BLACK
6
CONTINUOUS
10
5.7268285826771654
20
-3.0009657086614174
11
5.7247483070866139
21
-3.0040790157480313
0
LINE
8
BLACK
6
CONTINUOUS
10
5.7247483070866139
20
-3.0040790157480313
11
5.721635
21
-3.0061592913385824
0
LINE
8
BLACK
6
CONTINUOUS
10
5.721635
20
-3.0061592913385824
11
5.7179625984251965
21
-3.0068897637795273
0
LINE
8
BLACK
6
CONTINUOUS
10
5.7179625984251965
20
-3.0068897637795273
11
5.682037401574803
21
-3.0068897637795273
0
LINE
8
BLACK
6
CONTINUOUS
10
5.682037401574803
20
-3.0068897637795273
11
5.6783649999999994
21
-3.0061592913385824
0
LINE
8
BLACK
6
CONTINUOUS
10
5.6783649999999994
20
-3.0061592913385824
11
5.6752516929133856
21
-3.0040790157480313
0
LINE
8
BLACK
6
CONTINUOUS
10
5.6752516929133856
20
-3.0040790157480313
11
5.6731714173228349
21
-3.0009657086614174
0
LINE
8
BLACK
6
CONTINUOUS
10
5.6731714173228349
20
-3.0009657086614174
11
5.67244094488189
21
-2.9972933070866139
0
LINE
8
BLACK
6
CONTINUOUS
10
5.67244094488189
20
-2.9972933070866139
11
5.67244094488189
21
-2.9781003937007875
0
LINE
8
BLACK
6
CONTINUOUS
10
5.67244094488189
20
-2.9781003937007875
11
5.6731714173228349
21
-2.974427992125984
0
LINE
8
BLACK
6
CONTINUOUS
10
5.6731714173228349
20
-2.974427992125984
11
5.6752516929133856
21
-2.9713146850393701
0
LINE
8
BLACK
6
CONTINUOUS
10
5.6752516929133856
20
-2.9713146850393701
11
5.6783649999999994
21
-2.969234409448819
0
LINE
8
BLACK
6
CONTINUOUS
10
5.6783649999999994
20
-2.969234409448819
11
5.682037401574803
21
-2.9685039370078741
0
LINE
8
BLACK
6
CONTINUOUS
10
5.682037401574803
20
-2.9685039370078741
11
5.7179625984251965
21
-2.9685039370078741
0
LINE
8
BLACK
6
CONTINUOUS
10
5.7179625984251965
20
-2.9685039370078741
11
5.721635
21
-2.969234409448819
0
LINE
8
BLACK
6
CONTINUOUS
10
5.8216349999999997
20
-2.969234409448819
11
5.8247483070866144
21
-2.9713146850393701
0
LINE
8
BLACK
6
CONTINUOUS
10
5.8247483070866144
20
-2.9713146850393701
11
5.8268285826771651
21
-2.974427992125984
0
LINE
8
BLACK
6
CONTINUOUS
10
5.8268285826771651
20
-2.974427992125984
11
5.82755905511811
21
-2.9781003937007875
0
LINE
8
BLACK
6
CONTINUOUS
10
5.82755905511811
20
-2.9781003937007875
11
5.82755905511811
21
-2.9972933070866139
0
LINE
8
BLACK
6
CONTINUOUS
10
5.82755905511811
20
-2.9972933070866139
11
5.8268285826771651
21
-3.0009657086614174
0
LINE
8
BLACK
6
CONTINUOUS
10
5.8268285826771651
20
-3.0009657086614174
11
5.8247483070866144
21
-3.0040790157480313
0
LINE
8
BLACK
6
CONTINUOUS
10
5.8247483070866144
20
-3.0040790157480313
11
5.8216349999999997
21
-3.0061592913385824
0
LINE
8
BLACK
6
CONTINUOUS
10
5.8216349999999997
20
-3.0061592913385824
11
5.817962598425197
21
-3.0068897637795273
0
LINE
8
BLACK
6
CONTINUOUS
10
5.817962598425197
20
-3.0068897637795273
11
5.7820374015748026
21
-3.0068897637795273
0
LINE
8
BLACK
6
CONTINUOUS
10
5.7820374015748026
20
-3.0068897637795273
11
5.778365
21
-3.0061592913385824
0
LINE
8
BLACK
6
CONTINUOUS
10
5.778365
20
-3.0061592913385824
11
5.7752516929133861
21
-3.0040790157480313
0
LINE
8
BLACK
6
CONTINUOUS
10
5.7752516929133861
20
-3.0040790157480313
11
5.7731714173228346
21
-3.0009657086614174
0
LINE
8
BLACK
6
CONTINUOUS
10
5.7731714173228346
20
-3.0009657086614174
11
5.7724409448818896
21
-2.9972933070866139
0
LINE
8
BLACK
6
CONTINUOUS
10
5.7724409448818896
20
-2.9972933070866139
11
5.7724409448818896
21
-2.9781003937007875
0
LINE
8
BLACK
6
CONTINUOUS
10
5.7724409448818896
20
-2.9781003937007875
11
5.7731714173228346
21
-2.974427992125984
0
LINE
8
BLACK
6
CONTINUOUS
10
5.7731714173228346
20
-2.974427992125984
11
5.7752516929133861
21
-2.9713146850393701
0
LINE
8
BLACK
6
CONTINUOUS
10
5.7752516929133861
20
-2.9713146850393701
11
5.778365
21
-2.969234409448819
0
LINE
8
BLACK
6
CONTINUOUS
10
5.778365
20
-2.969234409448819
11
5.7820374015748026
21
-2.9685039370078741
0
LINE
8
BLACK
6
CONTINUOUS
10
5.7820374015748026
20
-2.9685039370078741
11
5.817962598425197
21
-2.9685039370078741
0
LINE
8
BLACK
6
CONTINUOUS
10
5.817962598425197
20
-2.9685039370078741
11
5.8216349999999997
21
-2.969234409448819
0
LINE
8
BLACK
6
CONTINUOUS
10
6.159823976377953
20
-2.9019509448818899
11
6.1629372834645668
21
-2.904031220472441
0
LINE
8
BLACK
6
CONTINUOUS
10
6.1629372834645668
20
-2.904031220472441
11
6.1650175590551184
21
-2.9071445275590548
0
LINE
8
BLACK
6
CONTINUOUS
10
6.1650175590551184
20
-2.9071445275590548
11
6.1657480314960624
21
-2.9108169291338584
0
LINE
8
BLACK
6
CONTINUOUS
10
6.1657480314960624
20
-2.9108169291338584
11
6.1657480314960624
21
-2.9300098425196848
0
LINE
8
BLACK
6
CONTINUOUS
10
6.1657480314960624
20
-2.9300098425196848
11
6.1650175590551184
21
-2.9336822440944883
0
LINE
8
BLACK
6
CONTINUOUS
10
6.1650175590551184
20
-2.9336822440944883
11
6.1629372834645668
21
-2.9367955511811021
0
LINE
8
BLACK
6
CONTINUOUS
10
6.1629372834645668
20
-2.9367955511811021
11
6.159823976377953
21
-2.9388758267716533
0
LINE
8
BLACK
6
CONTINUOUS
10
6.159823976377953
20
-2.9388758267716533
11
6.1561515748031495
21
-2.9396062992125982
0
LINE
8
BLACK
6
CONTINUOUS
10
6.1561515748031495
20
-2.9396062992125982
11
6.1202263779527559
21
-2.9396062992125982
0
LINE
8
BLACK
6
CONTINUOUS
10
6.1202263779527559
20
-2.9396062992125982
11
6.1165539763779524
21
-2.9388758267716533
0
LINE
8
BLACK
6
CONTINUOUS
10
6.1165539763779524
20
-2.9388758267716533
11
6.1134406692913386
21
-2.9367955511811021
0
LINE
8
BLACK
6
CONTINUOUS
10
6.1134406692913386
20
-2.9367955511811021
11
6.111360393700787
21
-2.9336822440944883
0
LINE
8
BLACK
6
CONTINUOUS
10
6.111360393700787
20
-2.9336822440944883
11
6.1106299212598421
21
-2.9300098425196848
0
LINE
8
BLACK
6
CONTINUOUS
10
6.1106299212598421
20
-2.9300098425196848
11
6.1106299212598421
21
-2.9108169291338584
0
LINE
8
BLACK
6
CONTINUOUS
10
6.1106299212598421
20
-2.9108169291338584
11
6.111360393700787
21
-2.9071445275590548
0
LINE
8
BLACK
6
CONTINUOUS
10
6.111360393700787
20
-2.9071445275590548
11
6.1134406692913386
21
-2.904031220472441
0
LINE
8
BLACK
6
CONTINUOUS
10
6.1134406692913386
20
-2.904031220472441
11
6.1165539763779524
21
-2.9019509448818899
0
LINE
8
BLACK
6
CONTINUOUS
10
6.1165539763779524
20
-2.9019509448818899
11
6.1202263779527559
21
-2.9012204724409449
0
LINE
8
BLACK
6
CONTINUOUS
10
6.1202263779527559
20
-2.9012204724409449
11
6.1561515748031495
21
-2.9012204724409449
0
LINE
8
BLACK
6
CONTINUOUS
10
6.1561515748031495
20
-2.9012204724409449
11
6.159823976377953
21
-2.9019509448818899
0
LINE
8
BLACK
6
CONTINUOUS
10
6.409823976377953
20
-2.9019509448818899
11
6.4129372834645668
21
-2.904031220472441
0
LINE
8
BLACK
6
CONTINUOUS
10
6.4129372834645668
20
-2.904031220472441
11
6.4150175590551184
21
-2.9071445275590548
0
LINE
8
BLACK
6
CONTINUOUS
10
6.4150175590551184
20
-2.9071445275590548
11
6.4157480314960624
21
-2.9108169291338584
0
LINE
8
BLACK
6
CONTINUOUS
10
6.4157480314960624
20
-2.9108169291338584
11
6.4157480314960624
21
-2.9300098425196848
0
LINE
8
BLACK
6
CONTINUOUS
10
6.4157480314960624
20
-2.9300098425196848
11
6.4150175590551184
21
-2.9336822440944883
0
LINE
8
BLACK
6
CONTINUOUS
10
6.4150175590551184
20
-2.9336822440944883
11
6.4129372834645668
21
-2.9367955511811021
0
LINE
8
BLACK
6
CONTINUOUS
10
6.4129372834645668
20
-2.9367955511811021
11
6.409823976377953
21
-2.9388758267716533
0
LINE
8
BLACK
6
CONTINUOUS
10
6.409823976377953
20
-2.9388758267716533
11
6.4061515748031495
21
-2.9396062992125982
0
LINE
8
BLACK
6
CONTINUOUS
10
6.4061515748031495
20
-2.9396062992125982
11
6.3702263779527559
21
-2.9396062992125982
0
LINE
8
BLACK
6
CONTINUOUS
10
6.3702263779527559
20
-2.9396062992125982
11
6.3665539763779524
21
-2.9388758267716533
0
LINE
8
BLACK
6
CONTINUOUS
10
6.3665539763779524
20
-2.9388758267716533
11
6.3634406692913386
21
-2.9367955511811021
0
LINE
8
BLACK
6
CONTINUOUS
10
6.3634406692913386
20
-2.9367955511811021
11
6.361360393700787
21
-2.9336822440944883
0
LINE
8
BLACK
6
CONTINUOUS
10
6.361360393700787
20
-2.9336822440944883
11
6.3606299212598421
21
-2.9300098425196848
0
LINE
8
BLACK
6
CONTINUOUS
10
6.3606299212598421
20
-2.9300098425196848
11
6.3606299212598421
21
-2.9108169291338584
0
LINE
8
BLACK
6
CONTINUOUS
10
6.3606299212598421
20
-2.9108169291338584
11
6.361360393700787
21
-2.9071445275590548
0
LINE
8
BLACK
6
CONTINUOUS
10
6.361360393700787
20
-2.9071445275590548
11
6.3634406692913386
21
-2.904031220472441
0
LINE
8
BLACK
6
CONTINUOUS
10
6.3634406692913386
20
-2.904031220472441
11
6.3665539763779524
21
-2.9019509448818899
0
LINE
8
BLACK
6
CONTINUOUS
10
6.3665539763779524
20
-2.9019509448818899
11
6.3702263779527559
21
-2.9012204724409449
0
LINE
8
BLACK
6
CONTINUOUS
10
6.3702263779527559
20
-2.9012204724409449
11
6.4061515748031495
21
-2.9012204724409449
0
LINE
8
BLACK
6
CONTINUOUS
10
6.4061515748031495
20
-2.9012204724409449
11
6.409823976377953
21
-2.9019509448818899
0
LINE
8
BLACK
6
CONTINUOUS
10
5.721635
20
-2.8954155118110236
11
5.7247483070866139
21
-2.8974957874015748
0
LINE
8
BLACK
6
CONTINUOUS
10
5.7247483070866139
20
-2.8974957874015748
11
5.7268285826771654
21
-2.900609094488189
0
LINE
8
BLACK
6
CONTINUOUS
10
5.7268285826771654
20
-2.900609094488189
11
5.7275590551181104
21
-2.9042814960629921
0
LINE
8
BLACK
6
CONTINUOUS
10
5.7275590551181104
20
-2.9042814960629921
11
5.7275590551181104
21
-2.923474409448819
0
LINE
8
BLACK
6
CONTINUOUS
10
5.7275590551181104
20
-2.923474409448819
11
5.7268285826771654
21
-2.9271468110236221
0
LINE
8
BLACK
6
CONTINUOUS
10
5.7268285826771654
20
-2.9271468110236221
11
5.7247483070866139
21
-2.9302601181102363
0
LINE
8
BLACK
6
CONTINUOUS
10
5.7247483070866139
20
-2.9302601181102363
11
5.721635
21
-2.9323403937007875
0
LINE
8
BLACK
6
CONTINUOUS
10
5.721635
20
-2.9323403937007875
11
5.7179625984251965
21
-2.9330708661417324
0
LINE
8
BLACK
6
CONTINUOUS
10
5.7179625984251965
20
-2.9330708661417324
11
5.682037401574803
21
-2.9330708661417324
0
LINE
8
BLACK
6
CONTINUOUS
10
5.682037401574803
20
-2.9330708661417324
11
5.6783649999999994
21
-2.9323403937007875
0
LINE
8
BLACK
6
CONTINUOUS
10
5.6783649999999994
20
-2.9323403937007875
11
5.6752516929133856
21
-2.9302601181102363
0
LINE
8
BLACK
6
CONTINUOUS
10
5.6752516929133856
20
-2.9302601181102363
11
5.6731714173228349
21
-2.9271468110236221
0
LINE
8
BLACK
6
CONTINUOUS
10
5.6731714173228349
20
-2.9271468110236221
11
5.67244094488189
21
-2.923474409448819
0
LINE
8
BLACK
6
CONTINUOUS
10
5.67244094488189
20
-2.923474409448819
11
5.67244094488189
21
-2.9042814960629921
0
LINE
8
BLACK
6
CONTINUOUS
10
5.67244094488189
20
-2.9042814960629921
11
5.6731714173228349
21
-2.900609094488189
0
LINE
8
BLACK
6
CONTINUOUS
10
5.6731714173228349
20
-2.900609094488189
11
5.6752516929133856
21
-2.8974957874015748
0
LINE
8
BLACK
6
CONTINUOUS
10
5.6752516929133856
20
-2.8974957874015748
11
5.6783649999999994
21
-2.8954155118110236
0
LINE
8
BLACK
6
CONTINUOUS
10
5.6783649999999994
20
-2.8954155118110236
11
5.682037401574803
21
-2.8946850393700787
0
LINE
8
BLACK
6
CONTINUOUS
10
5.682037401574803
20
-2.8946850393700787
11
5.7179625984251965
21
-2.8946850393700787
0
LINE
8
BLACK
6
CONTINUOUS
10
5.7179625984251965
20
-2.8946850393700787
11
5.721635
21
-2.8954155118110236
0
LINE
8
BLACK
6
CONTINUOUS
10
5.8216349999999997
20
-2.8954155118110236
11
5.8247483070866144
21
-2.8974957874015748
0
LINE
8
BLACK
6
CONTINUOUS
10
5.8247483070866144
20
-2.8974957874015748
11
5.8268285826771651
21
-2.900609094488189
0
LINE
8
BLACK
6
CONTINUOUS
10
5.8268285826771651
20
-2.900609094488189
11
5.82755905511811
21
-2.9042814960629921
0
LINE
8
BLACK
6
CONTINUOUS
10
5.82755905511811
20
-2.9042814960629921
11
5.82755905511811
21
-2.923474409448819
0
LINE
8
BLACK
6
CONTINUOUS
10
5.82755905511811
20
-2.923474409448819
11
5.8268285826771651
21
-2.9271468110236221
0
LINE
8
BLACK
6
CONTINUOUS
10
5.8268285826771651
20
-2.9271468110236221
11
5.8247483070866144
21
-2.9302601181102363
0
LINE
8
BLACK
6
CONTINUOUS
10
5.8247483070866144
20
-2.9302601181102363
11
5.8216349999999997
21
-2.9323403937007875
0
LINE
8
BLACK
6
CONTINUOUS
10
5.8216349999999997
20
-2.9323403937007875
11
5.817962598425197
21
-2.9330708661417324
0
LINE
8
BLACK
6
CONTINUOUS
10
5.817962598425197
20
-2.9330708661417324
11
5.7820374015748026
21
-2.9330708661417324
0
LINE
8
BLACK
6
CONTINUOUS
10
5.7820374015748026
20
-2.9330708661417324
11
5.778365
21
-2.9323403937007875
0
LINE
8
BLACK
6
CONTINUOUS
10
5.778365
20
-2.9323403937007875
11
5.7752516929133861
21
-2.9302601181102363
0
LINE
8
BLACK
6
CONTINUOUS
10
5.7752516929133861
20
-2.9302601181102363
11
5.7731714173228346
21
-2.9271468110236221
0
LINE
8
BLACK
6
CONTINUOUS
10
5.7731714173228346
20
-2.9271468110236221
11
5.7724409448818896
21
-2.923474409448819
0
LINE
8
BLACK
6
CONTINUOUS
10
5.7724409448818896
20
-2.923474409448819
11
5.7724409448818896
21
-2.9042814960629921
0
LINE
8
BLACK
6
CONTINUOUS
10
5.7724409448818896
20
-2.9042814960629921
11
5.7731714173228346
21
-2.900609094488189
0
LINE
8
BLACK
6
CONTINUOUS
10
5.7731714173228346
20
-2.900609094488189
11
5.7752516929133861
21
-2.8974957874015748
0
LINE
8
BLACK
6
CONTINUOUS
10
5.7752516929133861
20
-2.8974957874015748
11
5.778365
21
-2.8954155118110236
0
LINE
8
BLACK
6
CONTINUOUS
10
5.778365
20
-2.8954155118110236
11
5.7820374015748026
21
-2.8946850393700787
0
LINE
8
BLACK
6
CONTINUOUS
10
5.7820374015748026
20
-2.8946850393700787
11
5.817962598425197
21
-2.8946850393700787
0
LINE
8
BLACK
6
CONTINUOUS
10
5.817962598425197
20
-2.8946850393700787
11
5.8216349999999997
21
-2.8954155118110236
0
LINE
8
BLACK
6
CONTINUOUS
10
5.721635
20
-2.7812344094488188
11
5.7247483070866139
21
-2.78331468503937
0
LINE
8
BLACK
6
CONTINUOUS
10
5.7247483070866139
20
-2.78331468503937
11
5.7268285826771654
21
-2.7864279921259842
0
LINE
8
BLACK
6
CONTINUOUS
10
5.7268285826771654
20
-2.7864279921259842
11
5.7275590551181104
21
-2.7901003937007873
0
LINE
8
BLACK
6
CONTINUOUS
10
5.7275590551181104
20
-2.7901003937007873
11
5.7275590551181104
21
-2.8092933070866142
0
LINE
8
BLACK
6
CONTINUOUS
10
5.7275590551181104
20
-2.8092933070866142
11
5.7268285826771654
21
-2.8129657086614173
0
LINE
8
BLACK
6
CONTINUOUS
10
5.7268285826771654
20
-2.8129657086614173
11
5.7247483070866139
21
-2.8160790157480315
0
LINE
8
BLACK
6
CONTINUOUS
10
5.7247483070866139
20
-2.8160790157480315
11
5.721635
21
-2.8181592913385827
0
LINE
8
BLACK
6
CONTINUOUS
10
5.721635
20
-2.8181592913385827
11
5.7179625984251965
21
-2.8188897637795276
0
LINE
8
BLACK
6
CONTINUOUS
10
5.7179625984251965
20
-2.8188897637795276
11
5.682037401574803
21
-2.8188897637795276
0
LINE
8
BLACK
6
CONTINUOUS
10
5.682037401574803
20
-2.8188897637795276
11
5.6783649999999994
21
-2.8181592913385827
0
LINE
8
BLACK
6
CONTINUOUS
10
5.6783649999999994
20
-2.8181592913385827
11
5.6752516929133856
21
-2.8160790157480315
0
LINE
8
BLACK
6
CONTINUOUS
10
5.6752516929133856
20
-2.8160790157480315
11
5.6731714173228349
21
-2.8129657086614173
0
LINE
8
BLACK
6
CONTINUOUS
10
5.6731714173228349
20
-2.8129657086614173
11
5.67244094488189
21
-2.8092933070866142
0
LINE
8
BLACK
6
CONTINUOUS
10
5.67244094488189
20
-2.8092933070866142
11
5.67244094488189
21
-2.7901003937007873
0
LINE
8
BLACK
6
CONTINUOUS
10
5.67244094488189
20
-2.7901003937007873
11
5.6731714173228349
21
-2.7864279921259842
0
LINE
8
BLACK
6
CONTINUOUS
10
5.6731714173228349
20
-2.7864279921259842
11
5.6752516929133856
21
-2.78331468503937
0
LINE
8
BLACK
6
CONTINUOUS
10
5.6752516929133856
20
-2.78331468503937
11
5.6783649999999994
21
-2.7812344094488188
0
LINE
8
BLACK
6
CONTINUOUS
10
5.6783649999999994
20
-2.7812344094488188
11
5.682037401574803
21
-2.7805039370078739
0
LINE
8
BLACK
6
CONTINUOUS
10
5.682037401574803
20
-2.7805039370078739
11
5.7179625984251965
21
-2.7805039370078739
0
LINE
8
BLACK
6
CONTINUOUS
10
5.7179625984251965
20
-2.7805039370078739
11
5.721635
21
-2.7812344094488188
0
LINE
8
BLACK
6
CONTINUOUS
10
5.8216349999999997
20
-2.7812344094488188
11
5.8247483070866144
21
-2.78331468503937
0
LINE
8
BLACK
6
CONTINUOUS
10
5.8247483070866144
20
-2.78331468503937
11
5.8268285826771651
21
-2.7864279921259842
0
LINE
8
BLACK
6
CONTINUOUS
10
5.8268285826771651
20
-2.7864279921259842
11
5.82755905511811
21
-2.7901003937007873
0
LINE
8
BLACK
6
CONTINUOUS
10
5.82755905511811
20
-2.7901003937007873
11
5.82755905511811
21
-2.8092933070866142
0
LINE
8
BLACK
6
CONTINUOUS
10
5.82755905511811
20
-2.8092933070866142
11
5.8268285826771651
21
-2.8129657086614173
0
LINE
8
BLACK
6
CONTINUOUS
10
5.8268285826771651
20
-2.8129657086614173
11
5.8247483070866144
21
-2.8160790157480315
0
LINE
8
BLACK
6
CONTINUOUS
10
5.8247483070866144
20
-2.8160790157480315
11
5.8216349999999997
21
-2.8181592913385827
0
LINE
8
BLACK
6
CONTINUOUS
10
5.8216349999999997
20
-2.8181592913385827
11
5.817962598425197
21
-2.8188897637795276
0
LINE
8
BLACK
6
CONTINUOUS
10
5.817962598425197
20
-2.8188897637795276
11
5.7820374015748026
21
-2.8188897637795276
0
LINE
8
BLACK
6
CONTINUOUS
10
5.7820374015748026
20
-2.8188897637795276
11
5.778365
21
-2.8181592913385827
0
LINE
8
BLACK
6
CONTINUOUS
10
5.778365
20
-2.8181592913385827
11
5.7752516929133861
21
-2.8160790157480315
0
LINE
8
BLACK
6
CONTINUOUS
10
5.7752516929133861
20
-2.8160790157480315
11
5.7731714173228346
21
-2.8129657086614173
0
LINE
8
BLACK
6
CONTINUOUS
10
5.7731714173228346
20
-2.8129657086614173
11
5.7724409448818896
21
-2.8092933070866142
0
LINE
8
BLACK
6
CONTINUOUS
10
5.7724409448818896
20
-2.8092933070866142
11
5.7724409448818896
21
-2.7901003937007873
0
LINE
8
BLACK
6
CONTINUOUS
10
5.7724409448818896
20
-2.7901003937007873
11
5.7731714173228346
21
-2.7864279921259842
0
LINE
8
BLACK
6
CONTINUOUS
10
5.7731714173228346
20
-2.7864279921259842
11
5.7752516929133861
21
-2.78331468503937
0
LINE
8
BLACK
6
CONTINUOUS
10
5.7752516929133861
20
-2.78331468503937
11
5.778365
21
-2.7812344094488188
0
LINE
8
BLACK
6
CONTINUOUS
10
5.778365
20
-2.7812344094488188
11
5.7820374015748026
21
-2.7805039370078739
0
LINE
8
BLACK
6
CONTINUOUS
10
5.7820374015748026
20
-2.7805039370078739
11
5.817962598425197
21
-2.7805039370078739
0
LINE
8
BLACK
6
CONTINUOUS
10
5.817962598425197
20
-2.7805039370078739
11
5.8216349999999997
21
-2.7812344094488188
0
LINE
8
BLACK
6
CONTINUOUS
10
6.2136929133858265
20
-2.804244094488189
11
6.1388897637795274
21
-2.804244094488189
0
LINE
8
BLACK
6
CONTINUOUS
10
6.1388897637795274
20
-2.804244094488189
11
6.1388897637795274
21
-2.7097559055118108
0
LINE
8
BLACK
6
CONTINUOUS
10
6.1388897637795274
20
-2.7097559055118108
11
6.2136929133858265
21
-2.7097559055118108
0
LINE
8
BLACK
6
CONTINUOUS
10
6.2136929133858265
20
-2.7097559055118108
11
6.2136929133858265
21
-2.804244094488189
0
LINE
8
BLACK
6
CONTINUOUS
10
6.3751102362204719
20
-2.804244094488189
11
6.3003070866141728
21
-2.804244094488189
0
LINE
8
BLACK
6
CONTINUOUS
10
6.3003070866141728
20
-2.804244094488189
11
6.3003070866141728
21
-2.7097559055118108
0
LINE
8
BLACK
6
CONTINUOUS
10
6.3003070866141728
20
-2.7097559055118108
11
6.3751102362204719
21
-2.7097559055118108
0
LINE
8
BLACK
6
CONTINUOUS
10
6.3751102362204719
20
-2.7097559055118108
11
6.3751102362204719
21
-2.804244094488189
0
LINE
8
BLACK
6
CONTINUOUS
10
5.721635
20
-2.7074155118110235
11
5.7247483070866139
21
-2.7094957874015746
0
LINE
8
BLACK
6
CONTINUOUS
10
5.7247483070866139
20
-2.7094957874015746
11
5.7268285826771654
21
-2.7126090944881889
0
LINE
8
BLACK
6
CONTINUOUS
10
5.7268285826771654
20
-2.7126090944881889
11
5.7275590551181104
21
-2.716281496062992
0
LINE
8
BLACK
6
CONTINUOUS
10
5.7275590551181104
20
-2.716281496062992
11
5.7275590551181104
21
-2.7354744094488188
0
LINE
8
BLACK
6
CONTINUOUS
10
5.7275590551181104
20
-2.7354744094488188
11
5.7268285826771654
21
-2.7391468110236219
0
LINE
8
BLACK
6
CONTINUOUS
10
5.7268285826771654
20
-2.7391468110236219
11
5.7247483070866139
21
-2.7422601181102362
0
LINE
8
BLACK
6
CONTINUOUS
10
5.7247483070866139
20
-2.7422601181102362
11
5.721635
21
-2.7443403937007873
0
LINE
8
BLACK
6
CONTINUOUS
10
5.721635
20
-2.7443403937007873
11
5.7179625984251965
21
-2.7450708661417322
0
LINE
8
BLACK
6
CONTINUOUS
10
5.7179625984251965
20
-2.7450708661417322
11
5.682037401574803
21
-2.7450708661417322
0
LINE
8
BLACK
6
CONTINUOUS
10
5.682037401574803
20
-2.7450708661417322
11
5.6783649999999994
21
-2.7443403937007873
0
LINE
8
BLACK
6
CONTINUOUS
10
5.6783649999999994
20
-2.7443403937007873
11
5.6752516929133856
21
-2.7422601181102362
0
LINE
8
BLACK
6
CONTINUOUS
10
5.6752516929133856
20
-2.7422601181102362
11
5.6731714173228349
21
-2.7391468110236219
0
LINE
8
BLACK
6
CONTINUOUS
10
5.6731714173228349
20
-2.7391468110236219
11
5.67244094488189
21
-2.7354744094488188
0
LINE
8
BLACK
6
CONTINUOUS
10
5.67244094488189
20
-2.7354744094488188
11
5.67244094488189
21
-2.716281496062992
0
LINE
8
BLACK
6
CONTINUOUS
10
5.67244094488189
20
-2.716281496062992
11
5.6731714173228349
21
-2.7126090944881889
0
LINE
8
BLACK
6
CONTINUOUS
10
5.6731714173228349
20
-2.7126090944881889
11
5.6752516929133856
21
-2.7094957874015746
0
LINE
8
BLACK
6
CONTINUOUS
10
5.6752516929133856
20
-2.7094957874015746
11
5.6783649999999994
21
-2.7074155118110235
0
LINE
8
BLACK
6
CONTINUOUS
10
5.6783649999999994
20
-2.7074155118110235
11
5.682037401574803
21
-2.7066850393700785
0
LINE
8
BLACK
6
CONTINUOUS
10
5.682037401574803
20
-2.7066850393700785
11
5.7179625984251965
21
-2.7066850393700785
0
LINE
8
BLACK
6
CONTINUOUS
10
5.7179625984251965
20
-2.7066850393700785
11
5.721635
21
-2.7074155118110235
0
LINE
8
BLACK
6
CONTINUOUS
10
5.8216349999999997
20
-2.7074155118110235
11
5.8247483070866144
21
-2.7094957874015746
0
LINE
8
BLACK
6
CONTINUOUS
10
5.8247483070866144
20
-2.7094957874015746
11
5.8268285826771651
21
-2.7126090944881889
0
LINE
8
BLACK
6
CONTINUOUS
10
5.8268285826771651
20
-2.7126090944881889
11
5.82755905511811
21
-2.716281496062992
0
LINE
8
BLACK
6
CONTINUOUS
10
5.82755905511811
20
-2.716281496062992
11
5.82755905511811
21
-2.7354744094488188
0
LINE
8
BLACK
6
CONTINUOUS
10
5.82755905511811
20
-2.7354744094488188
11
5.8268285826771651
21
-2.7391468110236219
0
LINE
8
BLACK
6
CONTINUOUS
10
5.8268285826771651
20
-2.7391468110236219
11
5.8247483070866144
21
-2.7422601181102362
0
LINE
8
BLACK
6
CONTINUOUS
10
5.8247483070866144
20
-2.7422601181102362
11
5.8216349999999997
21
-2.7443403937007873
0
LINE
8
BLACK
6
CONTINUOUS
10
5.8216349999999997
20
-2.7443403937007873
11
5.817962598425197
21
-2.7450708661417322
0
LINE
8
BLACK
6
CONTINUOUS
10
5.817962598425197
20
-2.7450708661417322
11
5.7820374015748026
21
-2.7450708661417322
0
LINE
8
BLACK
6
CONTINUOUS
10
5.7820374015748026
20
-2.7450708661417322
11
5.778365
21
-2.7443403937007873
0
LINE
8
BLACK
6
CONTINUOUS
10
5.778365
20
-2.7443403937007873
11
5.7752516929133861
21
-2.7422601181102362
0
LINE
8
BLACK
6
CONTINUOUS
10
5.7752516929133861
20
-2.7422601181102362
11
5.7731714173228346
21
-2.7391468110236219
0
LINE
8
BLACK
6
CONTINUOUS
10
5.7731714173228346
20
-2.7391468110236219
11
5.7724409448818896
21
-2.7354744094488188
0
LINE
8
BLACK
6
CONTINUOUS
10
5.7724409448818896
20
-2.7354744094488188
11
5.7724409448818896
21
-2.716281496062992
0
LINE
8
BLACK
6
CONTINUOUS
10
5.7724409448818896
20
-2.716281496062992
11
5.7731714173228346
21
-2.7126090944881889
0
LINE
8
BLACK
6
CONTINUOUS
10
5.7731714173228346
20
-2.7126090944881889
11
5.7752516929133861
21
-2.7094957874015746
0
LINE
8
BLACK
6
CONTINUOUS
10
5.7752516929133861
20
-2.7094957874015746
11
5.778365
21
-2.7074155118110235
0
LINE
8
BLACK
6
CONTINUOUS
10
5.778365
20
-2.7074155118110235
11
5.7820374015748026
21
-2.7066850393700785
0
LINE
8
BLACK
6
CONTINUOUS
10
5.7820374015748026
20
-2.7066850393700785
11
5.817962598425197
21
-2.7066850393700785
0
LINE
8
BLACK
6
CONTINUOUS
10
5.817962598425197
20
-2.7066850393700785
11
5.8216349999999997
21
-2.7074155118110235
0
CIRCLE
8
BLACK
10
6.9685039370078741
20
-3.8188976377952755
40
0.0531495669291339
0
CIRCLE
8
BLACK
10
4.8425196850393704
20
-3.8188976377952755
40
0.0531495669291339
0
CIRCLE
8
BLACK
10
4.8425196850393704
20
-2.7362204724409449
40
0.0531495669291339
0
CIRCLE
8
BLACK
10
6.9685039370078741
20
-2.7362204724409449
40
0.0531495669291339
0
LINE
8
BLACK
6
CONTINUOUS
10
4.8799212204724407
20
-3.2066929133858268
11
4.8799212204724407
21
-3.1870078740157481
0
ARC
8
BLACK
10
4.8503937007874018
20
-3.1870078740157481
40
0.0295275196850394
50
0.00000000
51
180.00000000
0
LINE
8
BLACK
6
CONTINUOUS
10
4.8208661811023621
20
-3.1870078740157481
11
4.8208661811023621
21
-3.2066929133858268
0
ARC
8
BLACK
10
4.8503937007874018
20
-3.2066929133858268
40
0.0295275196850394
50
180.00000000
51
360.00000000
0
CIRCLE
8
BLACK
10
5.0236220472440944
20
-3.1968503937007875
40
0.0393700393700787
0
CIRCLE
8
BLACK
10
5.3661417322834648
20
-3.1299212598425195
40
0.0196850393700787
0
CIRCLE
8
BLACK
10
5.3661417322834648
20
-3.0299212598425198
40
0.0196850393700787
0
CIRCLE
8
BLACK
10
5.3661417322834648
20
-2.9299212598425197
40
0.0196850393700787
0
CIRCLE
8
BLACK
10
5.3661417322834648
20
-2.8299212598425196
40
0.0196850393700787
0
CIRCLE
8
BLACK
10
5.3661417322834648
20
-2.7299212598425195
40
0.0196850393700787
0
CIRCLE
8
BLACK
10
5.9799999999999995
20
-3.75
40
0.0196850393700787
0
CIRCLE
8
BLACK
10
6.0800000000000001
20
-3.75
40
0.0196850393700787
0
CIRCLE
8
BLACK
10
5.9799999999999995
20
-3.8500000000000001
40
0.0196850393700787
0
CIRCLE
8
BLACK
10
6.0800000000000001
20
-3.8500000000000001
40
0.0196850393700787
0
CIRCLE
8
BLACK
10
5.556
20
-3.8489999999999998
40
0.0196850393700787
0
CIRCLE
8
BLACK
10
5.556
20
-3.7490000000000001
40
0.0196850393700787
0
CIRCLE
8
BLACK
10
5.6559999999999997
20
-3.8489999999999998
40
0.0196850393700787
0
CIRCLE
8
BLACK
10
5.6559999999999997
20
-3.7490000000000001
40
0.0196850393700787
0
CIRCLE
8
BLACK
10
5.7560000000000002
20
-3.8489999999999998
40
0.0196850393700787
0
CIRCLE
8
BLACK
10
5.7560000000000002
20
-3.7490000000000001
40
0.0196850393700787
0
CIRCLE
8
BLACK
10
5.5499999999999998
20
-3.04
40
0.0196850393700787
0
CIRCLE
8
BLACK
10
5.5499999999999998
20
-3.1400000000000001
40
0.0196850393700787
0
CIRCLE
8
BLACK
10
5.5499999999999998
20
-3.2399999999999998
40
0.0196850393700787
0
CIRCLE
8
BLACK
10
5.5499999999999998
20
-3.3399999999999999
40
0.0196850393700787
0
CIRCLE
8
BLACK
10
5.5499999999999998
20
-3.4399999999999999
40
0.0196850393700787
0
CIRCLE
8
BLACK
10
5.5499999999999998
20
-3.54
40
0.0196850393700787
0
CIRCLE
8
BLACK
10
6.8300000000000001
20
-3.21
40
0.0187007874015748
0
CIRCLE
8
BLACK
10
6.8300000000000001
20
-3.3084251968503935
40
0.0187007874015748
0
CIRCLE
8
BLACK
10
6.9087401574803149
20
-3.3084251968503935
40
0.0187007874015748
0
CIRCLE
8
BLACK
10
6.9087401574803149
20
-3.21
40
0.0187007874015748
0
CIRCLE
8
BLACK
10
7.0213385826771653
20
-3.0229921259842518
40
0.0452755905511811
0
CIRCLE
8
BLACK
10
7.0213385826771653
20
-3.4954330708661416
40
0.0452755905511811
  0
ENDSEC
  0
EOF
