  0
SECTION
  2
HEADER
  9
$ANGBASE
  50
0.0
  9
$ANGDIR
  70
1
  9
$MEASUREMENT
  70
0
  0
ENDSEC
  0
SECTION
  2
TABLES
  0
TABLE
  2
LTYPE
  70
4
  0
LTYPE
  5
40F
  2
CONTINUOUS
  70
0
  3
Solid line
  72
65
  73
0
  40
0.0
  0
LTYPE
  5
410
  2
DASHDOT
 70
0
  3
Dash Dot ____ _ ____ _
 72
65
 73
4
 40
2.0
 49
1.25
 49
-0.25
 49
0.25
 49
-0.25
  0
LTYPE
  5
411
  2
DASHED
 70
0
  3
Dashed __ __ __ __ __
 72
65
 73
2
 40
0.75
 49
0.5
 49
-0.25
  0
LTYPE
  5
43B
  2
DOTTED
 70
0
  3
Dotted .  .  .  .
 72
65
 73
2
 40
0.2
 49
0.0
 49
-0.2
  0
ENDTAB
  0
TABLE
  2
STYLE
  70
4
  0
STYLE
  2
KICAD
  70
0
  40
0
  41
1
  42
1
  50
0
  71
0
  3
isocp.shx
  0
STYLE
  2
KICADB
  70
0
  40
0
  41
1
  42
1
  50
0
  71
0
  3
isocp.shx
  0
STYLE
  2
KICADI
  70
0
  40
0
  41
1
  42
1
  50
15
  71
0
  3
isocp.shx
  0
STYLE
  2
KICADBI
  70
0
  40
0
  41
1
  42
1
  50
15
  71
0
  3
isocp.shx
  0
ENDTAB
  0
TABLE
  2
LAYER
  70
1
  0
LAYER
  2
BLACK
  70
0
  62
7
  6
CONTINUOUS
  0
ENDTAB
  0
ENDSEC
  0
SECTION
  2
ENTITIES
0
LINE
8
BLACK
6
CONTINUOUS
10
5.32492
20
-3.60735
11
5.32492
21
-3.60735
0
LINE
8
BLACK
6
CONTINUOUS
10
5.32492
20
-3.60735
11
5.32492
21
-3.60735
0
LINE
8
BLACK
6
CONTINUOUS
10
5.32492
20
-3.60735
11
5.32521
21
-3.60805
0
LINE
8
BLACK
6
CONTINUOUS
10
5.32521
20
-3.60805
11
5.32521
21
-3.60805
0
LINE
8
BLACK
6
CONTINUOUS
10
5.32521
20
-3.60805
11
5.32521
21
-3.90923
0
LINE
8
BLACK
6
CONTINUOUS
10
5.32521
20
-3.90923
11
5.32492
21
-3.90992
0
LINE
8
BLACK
6
CONTINUOUS
10
5.32492
20
-3.90992
11
5.32423
21
-3.91021
0
LINE
8
BLACK
6
CONTINUOUS
10
5.32423
20
-3.91021
11
5.21104
21
-3.91021
0
LINE
8
BLACK
6
CONTINUOUS
10
5.21104
20
-3.91021
11
5.21104
21
-3.94269
0
LINE
8
BLACK
6
CONTINUOUS
10
5.21104
20
-3.94269
11
5.21075
21
-3.94339
0
LINE
8
BLACK
6
CONTINUOUS
10
5.21075
20
-3.94339
11
5.21006
21
-3.94368
0
LINE
8
BLACK
6
CONTINUOUS
10
5.21006
20
-3.94368
11
5.09194
21
-3.94368
0
LINE
8
BLACK
6
CONTINUOUS
10
5.09194
20
-3.94368
11
5.09125
21
-3.94339
0
LINE
8
BLACK
6
CONTINUOUS
10
5.09125
20
-3.94339
11
5.09096
21
-3.94269
0
LINE
8
BLACK
6
CONTINUOUS
10
5.09096
20
-3.94269
11
5.09096
21
-3.91021
0
LINE
8
BLACK
6
CONTINUOUS
10
5.09096
20
-3.91021
11
4.97777
21
-3.91021
0
LINE
8
BLACK
6
CONTINUOUS
10
4.97777
20
-3.91021
11
4.97708
21
-3.90992
0
LINE
8
BLACK
6
CONTINUOUS
10
4.97708
20
-3.90992
11
4.97679
21
-3.90923
0
LINE
8
BLACK
6
CONTINUOUS
10
4.97679
20
-3.90923
11
4.97679
21
-3.60805
0
LINE
8
BLACK
6
CONTINUOUS
10
4.97679
20
-3.60805
11
4.97708
21
-3.60735
0
LINE
8
BLACK
6
CONTINUOUS
10
4.97708
20
-3.60735
11
5.02235
21
-3.56208
0
LINE
8
BLACK
6
CONTINUOUS
10
5.02235
20
-3.56208
11
5.02235
21
-3.56208
0
LINE
8
BLACK
6
CONTINUOUS
10
5.02235
20
-3.56208
11
5.02256
21
-3.56199
0
LINE
8
BLACK
6
CONTINUOUS
10
5.02256
20
-3.56199
11
5.02305
21
-3.56179
0
LINE
8
BLACK
6
CONTINUOUS
10
5.02305
20
-3.56179
11
5.02305
21
-3.56179
0
LINE
8
BLACK
6
CONTINUOUS
10
5.02305
20
-3.56179
11
5.09096
21
-3.56179
0
LINE
8
BLACK
6
CONTINUOUS
10
5.09096
20
-3.56179
11
5.09096
21
-3.52931
0
LINE
8
BLACK
6
CONTINUOUS
10
5.09096
20
-3.52931
11
5.09125
21
-3.52861
0
LINE
8
BLACK
6
CONTINUOUS
10
5.09125
20
-3.52861
11
5.09194
21
-3.52832
0
LINE
8
BLACK
6
CONTINUOUS
10
5.09194
20
-3.52832
11
5.21006
21
-3.52832
0
LINE
8
BLACK
6
CONTINUOUS
10
5.21006
20
-3.52832
11
5.21075
21
-3.52861
0
LINE
8
BLACK
6
CONTINUOUS
10
5.21075
20
-3.52861
11
5.21104
21
-3.52931
0
LINE
8
BLACK
6
CONTINUOUS
10
5.21104
20
-3.52931
11
5.21104
21
-3.56179
0
LINE
8
BLACK
6
CONTINUOUS
10
5.21104
20
-3.56179
11
5.27895
21
-3.56179
0
LINE
8
BLACK
6
CONTINUOUS
10
5.27895
20
-3.56179
11
5.27965
21
-3.56208
0
LINE
8
BLACK
6
CONTINUOUS
10
5.27965
20
-3.56208
11
5.32492
21
-3.60735
0
LINE
8
BLACK
6
CONTINUOUS
10
4.97876
20
-3.60845
11
4.97876
21
-3.90824
0
LINE
8
BLACK
6
CONTINUOUS
10
4.97876
20
-3.90824
11
5.09194
21
-3.90824
0
LINE
8
BLACK
6
CONTINUOUS
10
5.09194
20
-3.90824
11
5.09264
21
-3.90853
0
LINE
8
BLACK
6
CONTINUOUS
10
5.09264
20
-3.90853
11
5.09293
21
-3.90923
0
LINE
8
BLACK
6
CONTINUOUS
10
5.09293
20
-3.90923
11
5.09293
21
-3.94171
0
LINE
8
BLACK
6
CONTINUOUS
10
5.09293
20
-3.94171
11
5.20907
21
-3.94171
0
LINE
8
BLACK
6
CONTINUOUS
10
5.20907
20
-3.94171
11
5.20907
21
-3.90923
0
LINE
8
BLACK
6
CONTINUOUS
10
5.20907
20
-3.90923
11
5.20936
21
-3.90853
0
LINE
8
BLACK
6
CONTINUOUS
10
5.20936
20
-3.90853
11
5.21006
21
-3.90824
0
LINE
8
BLACK
6
CONTINUOUS
10
5.21006
20
-3.90824
11
5.32324
21
-3.90824
0
LINE
8
BLACK
6
CONTINUOUS
10
5.32324
20
-3.90824
11
5.32324
21
-3.60845
0
LINE
8
BLACK
6
CONTINUOUS
10
5.32324
20
-3.60845
11
5.27855
21
-3.56376
0
LINE
8
BLACK
6
CONTINUOUS
10
5.27855
20
-3.56376
11
5.21006
21
-3.56376
0
LINE
8
BLACK
6
CONTINUOUS
10
5.21006
20
-3.56376
11
5.20936
21
-3.56347
0
LINE
8
BLACK
6
CONTINUOUS
10
5.20936
20
-3.56347
11
5.20907
21
-3.56277
0
LINE
8
BLACK
6
CONTINUOUS
10
5.20907
20
-3.56277
11
5.20907
21
-3.53029
0
LINE
8
BLACK
6
CONTINUOUS
10
5.20907
20
-3.53029
11
5.09293
21
-3.53029
0
LINE
8
BLACK
6
CONTINUOUS
10
5.09293
20
-3.53029
11
5.09293
21
-3.56277
0
LINE
8
BLACK
6
CONTINUOUS
10
5.09293
20
-3.56277
11
5.09264
21
-3.56347
0
LINE
8
BLACK
6
CONTINUOUS
10
5.09264
20
-3.56347
11
5.09194
21
-3.56376
0
LINE
8
BLACK
6
CONTINUOUS
10
5.09194
20
-3.56376
11
5.02345
21
-3.56376
0
LINE
8
BLACK
6
CONTINUOUS
10
5.02345
20
-3.56376
11
4.97876
21
-3.60845
0
LINE
8
BLACK
6
CONTINUOUS
10
5.90844
20
-3.92196
11
5.90815
21
-3.92126
0
LINE
8
BLACK
6
CONTINUOUS
10
5.90815
20
-3.92126
11
5.90815
21
-3.67913
0
LINE
8
BLACK
6
CONTINUOUS
10
5.90815
20
-3.67913
11
5.90844
21
-3.67844
0
LINE
8
BLACK
6
CONTINUOUS
10
5.90844
20
-3.67844
11
5.90913
21
-3.67815
0
LINE
8
BLACK
6
CONTINUOUS
10
5.90913
20
-3.67815
11
6.15126
21
-3.67815
0
LINE
8
BLACK
6
CONTINUOUS
10
6.15126
20
-3.67815
11
6.15196
21
-3.67844
0
LINE
8
BLACK
6
CONTINUOUS
10
6.15196
20
-3.67844
11
6.15224
21
-3.67913
0
LINE
8
BLACK
6
CONTINUOUS
10
6.15224
20
-3.67913
11
6.15224
21
-3.92126
0
LINE
8
BLACK
6
CONTINUOUS
10
6.15224
20
-3.92126
11
6.15196
21
-3.92196
0
LINE
8
BLACK
6
CONTINUOUS
10
6.15196
20
-3.92196
11
6.15126
21
-3.92224
0
LINE
8
BLACK
6
CONTINUOUS
10
6.15126
20
-3.92224
11
5.90913
21
-3.92224
0
LINE
8
BLACK
6
CONTINUOUS
10
5.90913
20
-3.92224
11
5.90844
21
-3.92196
0
LINE
8
BLACK
6
CONTINUOUS
10
5.91012
20
-3.68012
11
5.91012
21
-3.92028
0
LINE
8
BLACK
6
CONTINUOUS
10
5.91012
20
-3.92028
11
6.15028
21
-3.92028
0
LINE
8
BLACK
6
CONTINUOUS
10
6.15028
20
-3.92028
11
6.15028
21
-3.68012
0
LINE
8
BLACK
6
CONTINUOUS
10
6.15028
20
-3.68012
11
5.91012
21
-3.68012
0
LINE
8
BLACK
6
CONTINUOUS
10
5.48444
20
-3.92056
11
5.48415
21
-3.91987
0
LINE
8
BLACK
6
CONTINUOUS
10
5.48415
20
-3.91987
11
5.48415
21
-3.67774
0
LINE
8
BLACK
6
CONTINUOUS
10
5.48415
20
-3.67774
11
5.48444
21
-3.67704
0
LINE
8
BLACK
6
CONTINUOUS
10
5.48444
20
-3.67704
11
5.48513
21
-3.67676
0
LINE
8
BLACK
6
CONTINUOUS
10
5.48513
20
-3.67676
11
5.82569
21
-3.67676
0
LINE
8
BLACK
6
CONTINUOUS
10
5.82569
20
-3.67676
11
5.82638
21
-3.67704
0
LINE
8
BLACK
6
CONTINUOUS
10
5.82638
20
-3.67704
11
5.82667
21
-3.67774
0
LINE
8
BLACK
6
CONTINUOUS
10
5.82667
20
-3.67774
11
5.82667
21
-3.91987
0
LINE
8
BLACK
6
CONTINUOUS
10
5.82667
20
-3.91987
11
5.82638
21
-3.92056
0
LINE
8
BLACK
6
CONTINUOUS
10
5.82638
20
-3.92056
11
5.82569
21
-3.92085
0
LINE
8
BLACK
6
CONTINUOUS
10
5.82569
20
-3.92085
11
5.48513
21
-3.92085
0
LINE
8
BLACK
6
CONTINUOUS
10
5.48513
20
-3.92085
11
5.48444
21
-3.92056
0
LINE
8
BLACK
6
CONTINUOUS
10
5.48612
20
-3.67872
11
5.48612
21
-3.91888
0
LINE
8
BLACK
6
CONTINUOUS
10
5.48612
20
-3.91888
11
5.8247
21
-3.91888
0
LINE
8
BLACK
6
CONTINUOUS
10
5.8247
20
-3.91888
11
5.8247
21
-3.67872
0
LINE
8
BLACK
6
CONTINUOUS
10
5.8247
20
-3.67872
11
5.48612
21
-3.67872
0
LINE
8
BLACK
6
CONTINUOUS
10
6.36521
20
-3.90046
11
6.36492
21
-3.89976
0
LINE
8
BLACK
6
CONTINUOUS
10
6.36492
20
-3.89976
11
6.36492
21
-3.72024
0
LINE
8
BLACK
6
CONTINUOUS
10
6.36492
20
-3.72024
11
6.36521
21
-3.71954
0
LINE
8
BLACK
6
CONTINUOUS
10
6.36521
20
-3.71954
11
6.36591
21
-3.71925
0
LINE
8
BLACK
6
CONTINUOUS
10
6.36591
20
-3.71925
11
6.45409
21
-3.71925
0
LINE
8
BLACK
6
CONTINUOUS
10
6.45409
20
-3.71925
11
6.45479
21
-3.71954
0
LINE
8
BLACK
6
CONTINUOUS
10
6.45479
20
-3.71954
11
6.45508
21
-3.72024
0
LINE
8
BLACK
6
CONTINUOUS
10
6.45508
20
-3.72024
11
6.45508
21
-3.89976
0
LINE
8
BLACK
6
CONTINUOUS
10
6.45508
20
-3.89976
11
6.45479
21
-3.90046
0
LINE
8
BLACK
6
CONTINUOUS
10
6.45479
20
-3.90046
11
6.45409
21
-3.90075
0
LINE
8
BLACK
6
CONTINUOUS
10
6.45409
20
-3.90075
11
6.36591
21
-3.90075
0
LINE
8
BLACK
6
CONTINUOUS
10
6.36591
20
-3.90075
11
6.36521
21
-3.90046
0
LINE
8
BLACK
6
CONTINUOUS
10
6.36689
20
-3.72122
11
6.36689
21
-3.89878
0
LINE
8
BLACK
6
CONTINUOUS
10
6.36689
20
-3.89878
11
6.45311
21
-3.89878
0
LINE
8
BLACK
6
CONTINUOUS
10
6.45311
20
-3.89878
11
6.45311
21
-3.72122
0
LINE
8
BLACK
6
CONTINUOUS
10
6.45311
20
-3.72122
11
6.36689
21
-3.72122
0
LINE
8
BLACK
6
CONTINUOUS
10
6.2219
20
-3.83684
11
6.22161
21
-3.83614
0
LINE
8
BLACK
6
CONTINUOUS
10
6.22161
20
-3.83614
11
6.22161
21
-3.70386
0
LINE
8
BLACK
6
CONTINUOUS
10
6.22161
20
-3.70386
11
6.2219
21
-3.70316
0
LINE
8
BLACK
6
CONTINUOUS
10
6.2219
20
-3.70316
11
6.2226
21
-3.70287
0
LINE
8
BLACK
6
CONTINUOUS
10
6.2226
20
-3.70287
11
6.2974
21
-3.70287
0
LINE
8
BLACK
6
CONTINUOUS
10
6.2974
20
-3.70287
11
6.2981
21
-3.70316
0
LINE
8
BLACK
6
CONTINUOUS
10
6.2981
20
-3.70316
11
6.29839
21
-3.70386
0
LINE
8
BLACK
6
CONTINUOUS
10
6.29839
20
-3.70386
11
6.29839
21
-3.83614
0
LINE
8
BLACK
6
CONTINUOUS
10
6.29839
20
-3.83614
11
6.2981
21
-3.83684
0
LINE
8
BLACK
6
CONTINUOUS
10
6.2981
20
-3.83684
11
6.2974
21
-3.83713
0
LINE
8
BLACK
6
CONTINUOUS
10
6.2974
20
-3.83713
11
6.2226
21
-3.83713
0
LINE
8
BLACK
6
CONTINUOUS
10
6.2226
20
-3.83713
11
6.2219
21
-3.83684
0
LINE
8
BLACK
6
CONTINUOUS
10
6.22358
20
-3.70484
11
6.22358
21
-3.83516
0
LINE
8
BLACK
6
CONTINUOUS
10
6.22358
20
-3.83516
11
6.29642
21
-3.83516
0
LINE
8
BLACK
6
CONTINUOUS
10
6.29642
20
-3.83516
11
6.29642
21
-3.70484
0
LINE
8
BLACK
6
CONTINUOUS
10
6.29642
20
-3.70484
11
6.22358
21
-3.70484
0
LINE
8
BLACK
6
CONTINUOUS
10
6.53509
20
-3.83666
11
6.5348
21
-3.83596
0
LINE
8
BLACK
6
CONTINUOUS
10
6.5348
20
-3.83596
11
6.5348
21
-3.70604
0
LINE
8
BLACK
6
CONTINUOUS
10
6.5348
20
-3.70604
11
6.53509
21
-3.70534
0
LINE
8
BLACK
6
CONTINUOUS
10
6.53509
20
-3.70534
11
6.53579
21
-3.70506
0
LINE
8
BLACK
6
CONTINUOUS
10
6.53579
20
-3.70506
11
6.63421
21
-3.70506
0
LINE
8
BLACK
6
CONTINUOUS
10
6.63421
20
-3.70506
11
6.63491
21
-3.70534
0
LINE
8
BLACK
6
CONTINUOUS
10
6.63491
20
-3.70534
11
6.6352
21
-3.70604
0
LINE
8
BLACK
6
CONTINUOUS
10
6.6352
20
-3.70604
11
6.6352
21
-3.83596
0
LINE
8
BLACK
6
CONTINUOUS
10
6.6352
20
-3.83596
11
6.63491
21
-3.83666
0
LINE
8
BLACK
6
CONTINUOUS
10
6.63491
20
-3.83666
11
6.63421
21
-3.83694
0
LINE
8
BLACK
6
CONTINUOUS
10
6.63421
20
-3.83694
11
6.53579
21
-3.83694
0
LINE
8
BLACK
6
CONTINUOUS
10
6.53579
20
-3.83694
11
6.53509
21
-3.83666
0
LINE
8
BLACK
6
CONTINUOUS
10
6.53677
20
-3.70702
11
6.53677
21
-3.83498
0
LINE
8
BLACK
6
CONTINUOUS
10
6.53677
20
-3.83498
11
6.63323
21
-3.83498
0
LINE
8
BLACK
6
CONTINUOUS
10
6.63323
20
-3.83498
11
6.63323
21
-3.70702
0
LINE
8
BLACK
6
CONTINUOUS
10
6.63323
20
-3.70702
11
6.53677
21
-3.70702
0
LINE
8
BLACK
6
CONTINUOUS
10
4.77568
20
-3.61684
11
4.77539
21
-3.61614
0
LINE
8
BLACK
6
CONTINUOUS
10
4.77539
20
-3.61614
11
4.77539
21
-3.54134
0
LINE
8
BLACK
6
CONTINUOUS
10
4.77539
20
-3.54134
11
4.77568
21
-3.54064
0
LINE
8
BLACK
6
CONTINUOUS
10
4.77568
20
-3.54064
11
4.77638
21
-3.54035
0
LINE
8
BLACK
6
CONTINUOUS
10
4.77638
20
-3.54035
11
4.90866
21
-3.54035
0
LINE
8
BLACK
6
CONTINUOUS
10
4.90866
20
-3.54035
11
4.90936
21
-3.54064
0
LINE
8
BLACK
6
CONTINUOUS
10
4.90936
20
-3.54064
11
4.90965
21
-3.54134
0
LINE
8
BLACK
6
CONTINUOUS
10
4.90965
20
-3.54134
11
4.90965
21
-3.61614
0
LINE
8
BLACK
6
CONTINUOUS
10
4.90965
20
-3.61614
11
4.90936
21
-3.61684
0
LINE
8
BLACK
6
CONTINUOUS
10
4.90936
20
-3.61684
11
4.90866
21
-3.61713
0
LINE
8
BLACK
6
CONTINUOUS
10
4.90866
20
-3.61713
11
4.77638
21
-3.61713
0
LINE
8
BLACK
6
CONTINUOUS
10
4.77638
20
-3.61713
11
4.77568
21
-3.61684
0
LINE
8
BLACK
6
CONTINUOUS
10
4.77736
20
-3.54232
11
4.77736
21
-3.61516
0
LINE
8
BLACK
6
CONTINUOUS
10
4.77736
20
-3.61516
11
4.90768
21
-3.61516
0
LINE
8
BLACK
6
CONTINUOUS
10
4.90768
20
-3.61516
11
4.90768
21
-3.54232
0
LINE
8
BLACK
6
CONTINUOUS
10
4.90768
20
-3.54232
11
4.77736
21
-3.54232
0
LINE
8
BLACK
6
CONTINUOUS
10
5.47844
20
-3.61156
11
5.47815
21
-3.61087
0
LINE
8
BLACK
6
CONTINUOUS
10
5.47815
20
-3.61087
11
5.47815
21
-2.96913
0
LINE
8
BLACK
6
CONTINUOUS
10
5.47815
20
-2.96913
11
5.47844
21
-2.96844
0
LINE
8
BLACK
6
CONTINUOUS
10
5.47844
20
-2.96844
11
5.47913
21
-2.96815
0
LINE
8
BLACK
6
CONTINUOUS
10
5.47913
20
-2.96815
11
5.62087
21
-2.96815
0
LINE
8
BLACK
6
CONTINUOUS
10
5.62087
20
-2.96815
11
5.62156
21
-2.96844
0
LINE
8
BLACK
6
CONTINUOUS
10
5.62156
20
-2.96844
11
5.62185
21
-2.96913
0
LINE
8
BLACK
6
CONTINUOUS
10
5.62185
20
-2.96913
11
5.62185
21
-3.61087
0
LINE
8
BLACK
6
CONTINUOUS
10
5.62185
20
-3.61087
11
5.62156
21
-3.61156
0
LINE
8
BLACK
6
CONTINUOUS
10
5.62156
20
-3.61156
11
5.62087
21
-3.61185
0
LINE
8
BLACK
6
CONTINUOUS
10
5.62087
20
-3.61185
11
5.47913
21
-3.61185
0
LINE
8
BLACK
6
CONTINUOUS
10
5.47913
20
-3.61185
11
5.47844
21
-3.61156
0
LINE
8
BLACK
6
CONTINUOUS
10
5.48012
20
-2.97012
11
5.48012
21
-3.60988
0
LINE
8
BLACK
6
CONTINUOUS
10
5.48012
20
-3.60988
11
5.61988
21
-3.60988
0
LINE
8
BLACK
6
CONTINUOUS
10
5.61988
20
-3.60988
11
5.61988
21
-2.97012
0
LINE
8
BLACK
6
CONTINUOUS
10
5.61988
20
-2.97012
11
5.48012
21
-2.97012
0
LINE
8
BLACK
6
CONTINUOUS
10
6.54316
20
-3.6081
11
6.54287
21
-3.6074
0
LINE
8
BLACK
6
CONTINUOUS
10
6.54287
20
-3.6074
11
6.54287
21
-3.5326
0
LINE
8
BLACK
6
CONTINUOUS
10
6.54287
20
-3.5326
11
6.54316
21
-3.5319
0
LINE
8
BLACK
6
CONTINUOUS
10
6.54316
20
-3.5319
11
6.54386
21
-3.53161
0
LINE
8
BLACK
6
CONTINUOUS
10
6.54386
20
-3.53161
11
6.67614
21
-3.53161
0
LINE
8
BLACK
6
CONTINUOUS
10
6.67614
20
-3.53161
11
6.67684
21
-3.5319
0
LINE
8
BLACK
6
CONTINUOUS
10
6.67684
20
-3.5319
11
6.67713
21
-3.5326
0
LINE
8
BLACK
6
CONTINUOUS
10
6.67713
20
-3.5326
11
6.67713
21
-3.6074
0
LINE
8
BLACK
6
CONTINUOUS
10
6.67713
20
-3.6074
11
6.67684
21
-3.6081
0
LINE
8
BLACK
6
CONTINUOUS
10
6.67684
20
-3.6081
11
6.67614
21
-3.60839
0
LINE
8
BLACK
6
CONTINUOUS
10
6.67614
20
-3.60839
11
6.54386
21
-3.60839
0
LINE
8
BLACK
6
CONTINUOUS
10
6.54386
20
-3.60839
11
6.54316
21
-3.6081
0
LINE
8
BLACK
6
CONTINUOUS
10
6.54484
20
-3.53358
11
6.54484
21
-3.60642
0
LINE
8
BLACK
6
CONTINUOUS
10
6.54484
20
-3.60642
11
6.67516
21
-3.60642
0
LINE
8
BLACK
6
CONTINUOUS
10
6.67516
20
-3.60642
11
6.67516
21
-3.53358
0
LINE
8
BLACK
6
CONTINUOUS
10
6.67516
20
-3.53358
11
6.54484
21
-3.53358
0
LINE
8
BLACK
6
CONTINUOUS
10
6.7608
20
-3.59455
11
6.76051
21
-3.59386
0
LINE
8
BLACK
6
CONTINUOUS
10
6.76051
20
-3.59386
11
6.76051
21
-2.92457
0
LINE
8
BLACK
6
CONTINUOUS
10
6.76051
20
-2.92457
11
6.7608
21
-2.92387
0
LINE
8
BLACK
6
CONTINUOUS
10
6.7608
20
-2.92387
11
6.7615
21
-2.92358
0
LINE
8
BLACK
6
CONTINUOUS
10
6.7615
20
-2.92358
11
7.44654
21
-2.92358
0
LINE
8
BLACK
6
CONTINUOUS
10
7.44654
20
-2.92358
11
7.44723
21
-2.92387
0
LINE
8
BLACK
6
CONTINUOUS
10
7.44723
20
-2.92387
11
7.44752
21
-2.92457
0
LINE
8
BLACK
6
CONTINUOUS
10
7.44752
20
-2.92457
11
7.44752
21
-3.59386
0
LINE
8
BLACK
6
CONTINUOUS
10
7.44752
20
-3.59386
11
7.44723
21
-3.59455
0
LINE
8
BLACK
6
CONTINUOUS
10
7.44723
20
-3.59455
11
7.44654
21
-3.59484
0
LINE
8
BLACK
6
CONTINUOUS
10
7.44654
20
-3.59484
11
6.7615
21
-3.59484
0
LINE
8
BLACK
6
CONTINUOUS
10
6.7615
20
-3.59484
11
6.7608
21
-3.59455
0
LINE
8
BLACK
6
CONTINUOUS
10
6.76248
20
-2.92555
11
6.76248
21
-3.59287
0
LINE
8
BLACK
6
CONTINUOUS
10
6.76248
20
-3.59287
11
7.44555
21
-3.59287
0
LINE
8
BLACK
6
CONTINUOUS
10
7.44555
20
-3.59287
11
7.44555
21
-2.92555
0
LINE
8
BLACK
6
CONTINUOUS
10
7.44555
20
-2.92555
11
6.76248
21
-2.92555
0
LINE
8
BLACK
6
CONTINUOUS
10
5.87064
20
-3.58936
11
5.87035
21
-3.58866
0
LINE
8
BLACK
6
CONTINUOUS
10
5.87035
20
-3.58866
11
5.87035
21
-3.17134
0
LINE
8
BLACK
6
CONTINUOUS
10
5.87035
20
-3.17134
11
5.87064
21
-3.17064
0
LINE
8
BLACK
6
CONTINUOUS
10
5.87064
20
-3.17064
11
5.87134
21
-3.17035
0
LINE
8
BLACK
6
CONTINUOUS
10
5.87134
20
-3.17035
11
6.28866
21
-3.17035
0
LINE
8
BLACK
6
CONTINUOUS
10
6.28866
20
-3.17035
11
6.28936
21
-3.17064
0
LINE
8
BLACK
6
CONTINUOUS
10
6.28936
20
-3.17064
11
6.28965
21
-3.17134
0
LINE
8
BLACK
6
CONTINUOUS
10
6.28965
20
-3.17134
11
6.28965
21
-3.58866
0
LINE
8
BLACK
6
CONTINUOUS
10
6.28965
20
-3.58866
11
6.28936
21
-3.58936
0
LINE
8
BLACK
6
CONTINUOUS
10
6.28936
20
-3.58936
11
6.28866
21
-3.58965
0
LINE
8
BLACK
6
CONTINUOUS
10
6.28866
20
-3.58965
11
5.87134
21
-3.58965
0
LINE
8
BLACK
6
CONTINUOUS
10
5.87134
20
-3.58965
11
5.87064
21
-3.58936
0
LINE
8
BLACK
6
CONTINUOUS
10
5.87232
20
-3.17232
11
5.87232
21
-3.58768
0
LINE
8
BLACK
6
CONTINUOUS
10
5.87232
20
-3.58768
11
6.28768
21
-3.58768
0
LINE
8
BLACK
6
CONTINUOUS
10
6.28768
20
-3.58768
11
6.28768
21
-3.17232
0
LINE
8
BLACK
6
CONTINUOUS
10
6.28768
20
-3.17232
11
5.87232
21
-3.17232
0
LINE
8
BLACK
6
CONTINUOUS
10
6.3919
20
-3.57684
11
6.39161
21
-3.57614
0
LINE
8
BLACK
6
CONTINUOUS
10
6.39161
20
-3.57614
11
6.39161
21
-3.44386
0
LINE
8
BLACK
6
CONTINUOUS
10
6.39161
20
-3.44386
11
6.3919
21
-3.44316
0
LINE
8
BLACK
6
CONTINUOUS
10
6.3919
20
-3.44316
11
6.3926
21
-3.44287
0
LINE
8
BLACK
6
CONTINUOUS
10
6.3926
20
-3.44287
11
6.4674
21
-3.44287
0
LINE
8
BLACK
6
CONTINUOUS
10
6.4674
20
-3.44287
11
6.4681
21
-3.44316
0
LINE
8
BLACK
6
CONTINUOUS
10
6.4681
20
-3.44316
11
6.46839
21
-3.44386
0
LINE
8
BLACK
6
CONTINUOUS
10
6.46839
20
-3.44386
11
6.46839
21
-3.57614
0
LINE
8
BLACK
6
CONTINUOUS
10
6.46839
20
-3.57614
11
6.4681
21
-3.57684
0
LINE
8
BLACK
6
CONTINUOUS
10
6.4681
20
-3.57684
11
6.4674
21
-3.57713
0
LINE
8
BLACK
6
CONTINUOUS
10
6.4674
20
-3.57713
11
6.3926
21
-3.57713
0
LINE
8
BLACK
6
CONTINUOUS
10
6.3926
20
-3.57713
11
6.3919
21
-3.57684
0
LINE
8
BLACK
6
CONTINUOUS
10
6.39358
20
-3.44484
11
6.39358
21
-3.57516
0
LINE
8
BLACK
6
CONTINUOUS
10
6.39358
20
-3.57516
11
6.46642
21
-3.57516
0
LINE
8
BLACK
6
CONTINUOUS
10
6.46642
20
-3.57516
11
6.46642
21
-3.44484
0
LINE
8
BLACK
6
CONTINUOUS
10
6.46642
20
-3.44484
11
6.39358
21
-3.44484
0
LINE
8
BLACK
6
CONTINUOUS
10
6.68056
20
-3.49796
11
6.68028
21
-3.49726
0
LINE
8
BLACK
6
CONTINUOUS
10
6.68028
20
-3.49726
11
6.68028
21
-3.38073
0
LINE
8
BLACK
6
CONTINUOUS
10
6.68028
20
-3.38073
11
6.68056
21
-3.38003
0
LINE
8
BLACK
6
CONTINUOUS
10
6.68056
20
-3.38003
11
6.68126
21
-3.37974
0
LINE
8
BLACK
6
CONTINUOUS
10
6.68126
20
-3.37974
11
6.73874
21
-3.37974
0
LINE
8
BLACK
6
CONTINUOUS
10
6.73874
20
-3.37974
11
6.73944
21
-3.38003
0
LINE
8
BLACK
6
CONTINUOUS
10
6.73944
20
-3.38003
11
6.73972
21
-3.38073
0
LINE
8
BLACK
6
CONTINUOUS
10
6.73972
20
-3.38073
11
6.73972
21
-3.49726
0
LINE
8
BLACK
6
CONTINUOUS
10
6.73972
20
-3.49726
11
6.73944
21
-3.49796
0
LINE
8
BLACK
6
CONTINUOUS
10
6.73944
20
-3.49796
11
6.73874
21
-3.49825
0
LINE
8
BLACK
6
CONTINUOUS
10
6.73874
20
-3.49825
11
6.68126
21
-3.49825
0
LINE
8
BLACK
6
CONTINUOUS
10
6.68126
20
-3.49825
11
6.68056
21
-3.49796
0
LINE
8
BLACK
6
CONTINUOUS
10
6.68224
20
-3.38171
11
6.68224
21
-3.49628
0
LINE
8
BLACK
6
CONTINUOUS
10
6.68224
20
-3.49628
11
6.73776
21
-3.49628
0
LINE
8
BLACK
6
CONTINUOUS
10
6.73776
20
-3.49628
11
6.73776
21
-3.38171
0
LINE
8
BLACK
6
CONTINUOUS
10
6.73776
20
-3.38171
11
6.68224
21
-3.38171
0
LINE
8
BLACK
6
CONTINUOUS
10
4.62923
20
-3.49282
11
4.62894
21
-3.49213
0
LINE
8
BLACK
6
CONTINUOUS
10
4.62894
20
-3.49213
11
4.62894
21
-2.90157
0
LINE
8
BLACK
6
CONTINUOUS
10
4.62894
20
-2.90157
11
4.62923
21
-2.90088
0
LINE
8
BLACK
6
CONTINUOUS
10
4.62923
20
-2.90088
11
4.62992
21
-2.90059
0
LINE
8
BLACK
6
CONTINUOUS
10
4.62992
20
-2.90059
11
5.24803
21
-2.90059
0
LINE
8
BLACK
6
CONTINUOUS
10
5.24803
20
-2.90059
11
5.24873
21
-2.90088
0
LINE
8
BLACK
6
CONTINUOUS
10
5.24873
20
-2.90088
11
5.24902
21
-2.90157
0
LINE
8
BLACK
6
CONTINUOUS
10
5.24902
20
-2.90157
11
5.24902
21
-3.49213
0
LINE
8
BLACK
6
CONTINUOUS
10
5.24902
20
-3.49213
11
5.24873
21
-3.49282
0
LINE
8
BLACK
6
CONTINUOUS
10
5.24873
20
-3.49282
11
5.24803
21
-3.49311
0
LINE
8
BLACK
6
CONTINUOUS
10
5.24803
20
-3.49311
11
4.62992
21
-3.49311
0
LINE
8
BLACK
6
CONTINUOUS
10
4.62992
20
-3.49311
11
4.62923
21
-3.49282
0
LINE
8
BLACK
6
CONTINUOUS
10
4.63091
20
-2.90256
11
4.63091
21
-3.49114
0
LINE
8
BLACK
6
CONTINUOUS
10
4.63091
20
-3.49114
11
5.24705
21
-3.49114
0
LINE
8
BLACK
6
CONTINUOUS
10
5.24705
20
-3.49114
11
5.24705
21
-2.90256
0
LINE
8
BLACK
6
CONTINUOUS
10
5.24705
20
-2.90256
11
4.63091
21
-2.90256
0
LINE
8
BLACK
6
CONTINUOUS
10
6.48316
20
-3.4281
11
6.48287
21
-3.4274
0
LINE
8
BLACK
6
CONTINUOUS
10
6.48287
20
-3.4274
11
6.48287
21
-3.3526
0
LINE
8
BLACK
6
CONTINUOUS
10
6.48287
20
-3.3526
11
6.48316
21
-3.3519
0
LINE
8
BLACK
6
CONTINUOUS
10
6.48316
20
-3.3519
11
6.48386
21
-3.35161
0
LINE
8
BLACK
6
CONTINUOUS
10
6.48386
20
-3.35161
11
6.61614
21
-3.35161
0
LINE
8
BLACK
6
CONTINUOUS
10
6.61614
20
-3.35161
11
6.61684
21
-3.3519
0
LINE
8
BLACK
6
CONTINUOUS
10
6.61684
20
-3.3519
11
6.61713
21
-3.3526
0
LINE
8
BLACK
6
CONTINUOUS
10
6.61713
20
-3.3526
11
6.61713
21
-3.4274
0
LINE
8
BLACK
6
CONTINUOUS
10
6.61713
20
-3.4274
11
6.61684
21
-3.4281
0
LINE
8
BLACK
6
CONTINUOUS
10
6.61684
20
-3.4281
11
6.61614
21
-3.42839
0
LINE
8
BLACK
6
CONTINUOUS
10
6.61614
20
-3.42839
11
6.48386
21
-3.42839
0
LINE
8
BLACK
6
CONTINUOUS
10
6.48386
20
-3.42839
11
6.48316
21
-3.4281
0
LINE
8
BLACK
6
CONTINUOUS
10
6.48484
20
-3.35358
11
6.48484
21
-3.42642
0
LINE
8
BLACK
6
CONTINUOUS
10
6.48484
20
-3.42642
11
6.61516
21
-3.42642
0
LINE
8
BLACK
6
CONTINUOUS
10
6.61516
20
-3.42642
11
6.61516
21
-3.35358
0
LINE
8
BLACK
6
CONTINUOUS
10
6.61516
20
-3.35358
11
6.48484
21
-3.35358
0
LINE
8
BLACK
6
CONTINUOUS
10
6.48316
20
-3.3381
11
6.48287
21
-3.3374
0
LINE
8
BLACK
6
CONTINUOUS
10
6.48287
20
-3.3374
11
6.48287
21
-3.2626
0
LINE
8
BLACK
6
CONTINUOUS
10
6.48287
20
-3.2626
11
6.48316
21
-3.2619
0
LINE
8
BLACK
6
CONTINUOUS
10
6.48316
20
-3.2619
11
6.48386
21
-3.26161
0
LINE
8
BLACK
6
CONTINUOUS
10
6.48386
20
-3.26161
11
6.61614
21
-3.26161
0
LINE
8
BLACK
6
CONTINUOUS
10
6.61614
20
-3.26161
11
6.61684
21
-3.2619
0
LINE
8
BLACK
6
CONTINUOUS
10
6.61684
20
-3.2619
11
6.61713
21
-3.2626
0
LINE
8
BLACK
6
CONTINUOUS
10
6.61713
20
-3.2626
11
6.61713
21
-3.3374
0
LINE
8
BLACK
6
CONTINUOUS
10
6.61713
20
-3.3374
11
6.61684
21
-3.3381
0
LINE
8
BLACK
6
CONTINUOUS
10
6.61684
20
-3.3381
11
6.61614
21
-3.33839
0
LINE
8
BLACK
6
CONTINUOUS
10
6.61614
20
-3.33839
11
6.48386
21
-3.33839
0
LINE
8
BLACK
6
CONTINUOUS
10
6.48386
20
-3.33839
11
6.48316
21
-3.3381
0
LINE
8
BLACK
6
CONTINUOUS
10
6.48484
20
-3.26358
11
6.48484
21
-3.33642
0
LINE
8
BLACK
6
CONTINUOUS
10
6.48484
20
-3.33642
11
6.61516
21
-3.33642
0
LINE
8
BLACK
6
CONTINUOUS
10
6.61516
20
-3.33642
11
6.61516
21
-3.26358
0
LINE
8
BLACK
6
CONTINUOUS
10
6.61516
20
-3.26358
11
6.48484
21
-3.26358
0
LINE
8
BLACK
6
CONTINUOUS
10
5.6609
20
-3.32684
11
5.66061
21
-3.32614
0
LINE
8
BLACK
6
CONTINUOUS
10
5.66061
20
-3.32614
11
5.66061
21
-3.19386
0
LINE
8
BLACK
6
CONTINUOUS
10
5.66061
20
-3.19386
11
5.6609
21
-3.19316
0
LINE
8
BLACK
6
CONTINUOUS
10
5.6609
20
-3.19316
11
5.6616
21
-3.19287
0
LINE
8
BLACK
6
CONTINUOUS
10
5.6616
20
-3.19287
11
5.7364
21
-3.19287
0
LINE
8
BLACK
6
CONTINUOUS
10
5.7364
20
-3.19287
11
5.7371
21
-3.19316
0
LINE
8
BLACK
6
CONTINUOUS
10
5.7371
20
-3.19316
11
5.73739
21
-3.19386
0
LINE
8
BLACK
6
CONTINUOUS
10
5.73739
20
-3.19386
11
5.73739
21
-3.32614
0
LINE
8
BLACK
6
CONTINUOUS
10
5.73739
20
-3.32614
11
5.7371
21
-3.32684
0
LINE
8
BLACK
6
CONTINUOUS
10
5.7371
20
-3.32684
11
5.7364
21
-3.32713
0
LINE
8
BLACK
6
CONTINUOUS
10
5.7364
20
-3.32713
11
5.6616
21
-3.32713
0
LINE
8
BLACK
6
CONTINUOUS
10
5.6616
20
-3.32713
11
5.6609
21
-3.32684
0
LINE
8
BLACK
6
CONTINUOUS
10
5.66258
20
-3.19484
11
5.66258
21
-3.32516
0
LINE
8
BLACK
6
CONTINUOUS
10
5.66258
20
-3.32516
11
5.73542
21
-3.32516
0
LINE
8
BLACK
6
CONTINUOUS
10
5.73542
20
-3.32516
11
5.73542
21
-3.19484
0
LINE
8
BLACK
6
CONTINUOUS
10
5.73542
20
-3.19484
11
5.66258
21
-3.19484
0
LINE
8
BLACK
6
CONTINUOUS
10
6.68056
20
-3.29996
11
6.68028
21
-3.29927
0
LINE
8
BLACK
6
CONTINUOUS
10
6.68028
20
-3.29927
11
6.68028
21
-3.18273
0
LINE
8
BLACK
6
CONTINUOUS
10
6.68028
20
-3.18273
11
6.68056
21
-3.18204
0
LINE
8
BLACK
6
CONTINUOUS
10
6.68056
20
-3.18204
11
6.68126
21
-3.18175
0
LINE
8
BLACK
6
CONTINUOUS
10
6.68126
20
-3.18175
11
6.73874
21
-3.18175
0
LINE
8
BLACK
6
CONTINUOUS
10
6.73874
20
-3.18175
11
6.73944
21
-3.18204
0
LINE
8
BLACK
6
CONTINUOUS
10
6.73944
20
-3.18204
11
6.73972
21
-3.18273
0
LINE
8
BLACK
6
CONTINUOUS
10
6.73972
20
-3.18273
11
6.73972
21
-3.29927
0
LINE
8
BLACK
6
CONTINUOUS
10
6.73972
20
-3.29927
11
6.73944
21
-3.29996
0
LINE
8
BLACK
6
CONTINUOUS
10
6.73944
20
-3.29996
11
6.73874
21
-3.30025
0
LINE
8
BLACK
6
CONTINUOUS
10
6.73874
20
-3.30025
11
6.68126
21
-3.30025
0
LINE
8
BLACK
6
CONTINUOUS
10
6.68126
20
-3.30025
11
6.68056
21
-3.29996
0
LINE
8
BLACK
6
CONTINUOUS
10
6.68224
20
-3.18372
11
6.68224
21
-3.29828
0
LINE
8
BLACK
6
CONTINUOUS
10
6.68224
20
-3.29828
11
6.73776
21
-3.29828
0
LINE
8
BLACK
6
CONTINUOUS
10
6.73776
20
-3.29828
11
6.73776
21
-3.18372
0
LINE
8
BLACK
6
CONTINUOUS
10
6.73776
20
-3.18372
11
6.68224
21
-3.18372
0
LINE
8
BLACK
6
CONTINUOUS
10
6.3549
20
-3.29784
11
6.35461
21
-3.29714
0
LINE
8
BLACK
6
CONTINUOUS
10
6.35461
20
-3.29714
11
6.35461
21
-3.16486
0
LINE
8
BLACK
6
CONTINUOUS
10
6.35461
20
-3.16486
11
6.3549
21
-3.16416
0
LINE
8
BLACK
6
CONTINUOUS
10
6.3549
20
-3.16416
11
6.3556
21
-3.16387
0
LINE
8
BLACK
6
CONTINUOUS
10
6.3556
20
-3.16387
11
6.4304
21
-3.16387
0
LINE
8
BLACK
6
CONTINUOUS
10
6.4304
20
-3.16387
11
6.4311
21
-3.16416
0
LINE
8
BLACK
6
CONTINUOUS
10
6.4311
20
-3.16416
11
6.43139
21
-3.16486
0
LINE
8
BLACK
6
CONTINUOUS
10
6.43139
20
-3.16486
11
6.43139
21
-3.29714
0
LINE
8
BLACK
6
CONTINUOUS
10
6.43139
20
-3.29714
11
6.4311
21
-3.29784
0
LINE
8
BLACK
6
CONTINUOUS
10
6.4311
20
-3.29784
11
6.4304
21
-3.29813
0
LINE
8
BLACK
6
CONTINUOUS
10
6.4304
20
-3.29813
11
6.3556
21
-3.29813
0
LINE
8
BLACK
6
CONTINUOUS
10
6.3556
20
-3.29813
11
6.3549
21
-3.29784
0
LINE
8
BLACK
6
CONTINUOUS
10
6.35658
20
-3.16584
11
6.35658
21
-3.29616
0
LINE
8
BLACK
6
CONTINUOUS
10
6.35658
20
-3.29616
11
6.42942
21
-3.29616
0
LINE
8
BLACK
6
CONTINUOUS
10
6.42942
20
-3.29616
11
6.42942
21
-3.16584
0
LINE
8
BLACK
6
CONTINUOUS
10
6.42942
20
-3.16584
11
6.35658
21
-3.16584
0
LINE
8
BLACK
6
CONTINUOUS
10
5.29458
20
-3.20148
11
5.29429
21
-3.20079
0
LINE
8
BLACK
6
CONTINUOUS
10
5.29429
20
-3.20079
11
5.29429
21
-2.65945
0
LINE
8
BLACK
6
CONTINUOUS
10
5.29429
20
-2.65945
11
5.29458
21
-2.65875
0
LINE
8
BLACK
6
CONTINUOUS
10
5.29458
20
-2.65875
11
5.29528
21
-2.65846
0
LINE
8
BLACK
6
CONTINUOUS
10
5.29528
20
-2.65846
11
5.43701
21
-2.65846
0
LINE
8
BLACK
6
CONTINUOUS
10
5.43701
20
-2.65846
11
5.4377
21
-2.65875
0
LINE
8
BLACK
6
CONTINUOUS
10
5.4377
20
-2.65875
11
5.43799
21
-2.65945
0
LINE
8
BLACK
6
CONTINUOUS
10
5.43799
20
-2.65945
11
5.43799
21
-3.20079
0
LINE
8
BLACK
6
CONTINUOUS
10
5.43799
20
-3.20079
11
5.4377
21
-3.20148
0
LINE
8
BLACK
6
CONTINUOUS
10
5.4377
20
-3.20148
11
5.43701
21
-3.20177
0
LINE
8
BLACK
6
CONTINUOUS
10
5.43701
20
-3.20177
11
5.29528
21
-3.20177
0
LINE
8
BLACK
6
CONTINUOUS
10
5.29528
20
-3.20177
11
5.29458
21
-3.20148
0
LINE
8
BLACK
6
CONTINUOUS
10
5.29626
20
-2.66043
11
5.29626
21
-3.1998
0
LINE
8
BLACK
6
CONTINUOUS
10
5.29626
20
-3.1998
11
5.43602
21
-3.1998
0
LINE
8
BLACK
6
CONTINUOUS
10
5.43602
20
-3.1998
11
5.43602
21
-2.66043
0
LINE
8
BLACK
6
CONTINUOUS
10
5.43602
20
-2.66043
11
5.29626
21
-2.66043
0
LINE
8
BLACK
6
CONTINUOUS
10
5.6609
20
-3.17584
11
5.66061
21
-3.17514
0
LINE
8
BLACK
6
CONTINUOUS
10
5.66061
20
-3.17514
11
5.66061
21
-3.04286
0
LINE
8
BLACK
6
CONTINUOUS
10
5.66061
20
-3.04286
11
5.6609
21
-3.04216
0
LINE
8
BLACK
6
CONTINUOUS
10
5.6609
20
-3.04216
11
5.6616
21
-3.04187
0
LINE
8
BLACK
6
CONTINUOUS
10
5.6616
20
-3.04187
11
5.7364
21
-3.04187
0
LINE
8
BLACK
6
CONTINUOUS
10
5.7364
20
-3.04187
11
5.7371
21
-3.04216
0
LINE
8
BLACK
6
CONTINUOUS
10
5.7371
20
-3.04216
11
5.73739
21
-3.04286
0
LINE
8
BLACK
6
CONTINUOUS
10
5.73739
20
-3.04286
11
5.73739
21
-3.17514
0
LINE
8
BLACK
6
CONTINUOUS
10
5.73739
20
-3.17514
11
5.7371
21
-3.17584
0
LINE
8
BLACK
6
CONTINUOUS
10
5.7371
20
-3.17584
11
5.7364
21
-3.17613
0
LINE
8
BLACK
6
CONTINUOUS
10
5.7364
20
-3.17613
11
5.6616
21
-3.17613
0
LINE
8
BLACK
6
CONTINUOUS
10
5.6616
20
-3.17613
11
5.6609
21
-3.17584
0
LINE
8
BLACK
6
CONTINUOUS
10
5.66258
20
-3.04384
11
5.66258
21
-3.17416
0
LINE
8
BLACK
6
CONTINUOUS
10
5.66258
20
-3.17416
11
5.73542
21
-3.17416
0
LINE
8
BLACK
6
CONTINUOUS
10
5.73542
20
-3.17416
11
5.73542
21
-3.04384
0
LINE
8
BLACK
6
CONTINUOUS
10
5.73542
20
-3.04384
11
5.66258
21
-3.04384
0
LINE
8
BLACK
6
CONTINUOUS
10
5.99516
20
-3.1431
11
5.99487
21
-3.1424
0
LINE
8
BLACK
6
CONTINUOUS
10
5.99487
20
-3.1424
11
5.99487
21
-3.0676
0
LINE
8
BLACK
6
CONTINUOUS
10
5.99487
20
-3.0676
11
5.99516
21
-3.0669
0
LINE
8
BLACK
6
CONTINUOUS
10
5.99516
20
-3.0669
11
5.99586
21
-3.06661
0
LINE
8
BLACK
6
CONTINUOUS
10
5.99586
20
-3.06661
11
6.12814
21
-3.06661
0
LINE
8
BLACK
6
CONTINUOUS
10
6.12814
20
-3.06661
11
6.12884
21
-3.0669
0
LINE
8
BLACK
6
CONTINUOUS
10
6.12884
20
-3.0669
11
6.12913
21
-3.0676
0
LINE
8
BLACK
6
CONTINUOUS
10
6.12913
20
-3.0676
11
6.12913
21
-3.1424
0
LINE
8
BLACK
6
CONTINUOUS
10
6.12913
20
-3.1424
11
6.12884
21
-3.1431
0
LINE
8
BLACK
6
CONTINUOUS
10
6.12884
20
-3.1431
11
6.12814
21
-3.14339
0
LINE
8
BLACK
6
CONTINUOUS
10
6.12814
20
-3.14339
11
5.99586
21
-3.14339
0
LINE
8
BLACK
6
CONTINUOUS
10
5.99586
20
-3.14339
11
5.99516
21
-3.1431
0
LINE
8
BLACK
6
CONTINUOUS
10
5.99684
20
-3.06858
11
5.99684
21
-3.14142
0
LINE
8
BLACK
6
CONTINUOUS
10
5.99684
20
-3.14142
11
6.12716
21
-3.14142
0
LINE
8
BLACK
6
CONTINUOUS
10
6.12716
20
-3.14142
11
6.12716
21
-3.06858
0
LINE
8
BLACK
6
CONTINUOUS
10
6.12716
20
-3.06858
11
5.99684
21
-3.06858
0
LINE
8
BLACK
6
CONTINUOUS
10
6.49316
20
-3.11747
11
6.49287
21
-3.11677
0
LINE
8
BLACK
6
CONTINUOUS
10
6.49287
20
-3.11677
11
6.49287
21
-2.96323
0
LINE
8
BLACK
6
CONTINUOUS
10
6.49287
20
-2.96323
11
6.49316
21
-2.96253
0
LINE
8
BLACK
6
CONTINUOUS
10
6.49316
20
-2.96253
11
6.49386
21
-2.96224
0
LINE
8
BLACK
6
CONTINUOUS
10
6.49386
20
-2.96224
11
6.72614
21
-2.96224
0
LINE
8
BLACK
6
CONTINUOUS
10
6.72614
20
-2.96224
11
6.72684
21
-2.96253
0
LINE
8
BLACK
6
CONTINUOUS
10
6.72684
20
-2.96253
11
6.72713
21
-2.96323
0
LINE
8
BLACK
6
CONTINUOUS
10
6.72713
20
-2.96323
11
6.72713
21
-3.11677
0
LINE
8
BLACK
6
CONTINUOUS
10
6.72713
20
-3.11677
11
6.72684
21
-3.11747
0
LINE
8
BLACK
6
CONTINUOUS
10
6.72684
20
-3.11747
11
6.72614
21
-3.11776
0
LINE
8
BLACK
6
CONTINUOUS
10
6.72614
20
-3.11776
11
6.49386
21
-3.11776
0
LINE
8
BLACK
6
CONTINUOUS
10
6.49386
20
-3.11776
11
6.49316
21
-3.11747
0
LINE
8
BLACK
6
CONTINUOUS
10
6.49484
20
-2.96421
11
6.49484
21
-3.11579
0
LINE
8
BLACK
6
CONTINUOUS
10
6.49484
20
-3.11579
11
6.72516
21
-3.11579
0
LINE
8
BLACK
6
CONTINUOUS
10
6.72516
20
-3.11579
11
6.72516
21
-2.96421
0
LINE
8
BLACK
6
CONTINUOUS
10
6.72516
20
-2.96421
11
6.49484
21
-2.96421
0
LINE
8
BLACK
6
CONTINUOUS
10
6.19135
20
-3.02542
11
6.19106
21
-3.02472
0
LINE
8
BLACK
6
CONTINUOUS
10
6.19106
20
-3.02472
11
6.19106
21
-2.94992
0
LINE
8
BLACK
6
CONTINUOUS
10
6.19106
20
-2.94992
11
6.19135
21
-2.94923
0
LINE
8
BLACK
6
CONTINUOUS
10
6.19135
20
-2.94923
11
6.19205
21
-2.94894
0
LINE
8
BLACK
6
CONTINUOUS
10
6.19205
20
-2.94894
11
6.32433
21
-2.94894
0
LINE
8
BLACK
6
CONTINUOUS
10
6.32433
20
-2.94894
11
6.32503
21
-2.94923
0
LINE
8
BLACK
6
CONTINUOUS
10
6.32503
20
-2.94923
11
6.32531
21
-2.94992
0
LINE
8
BLACK
6
CONTINUOUS
10
6.32531
20
-2.94992
11
6.32531
21
-3.02472
0
LINE
8
BLACK
6
CONTINUOUS
10
6.32531
20
-3.02472
11
6.32503
21
-3.02542
0
LINE
8
BLACK
6
CONTINUOUS
10
6.32503
20
-3.02542
11
6.32433
21
-3.02571
0
LINE
8
BLACK
6
CONTINUOUS
10
6.32433
20
-3.02571
11
6.19205
21
-3.02571
0
LINE
8
BLACK
6
CONTINUOUS
10
6.19205
20
-3.02571
11
6.19135
21
-3.02542
0
LINE
8
BLACK
6
CONTINUOUS
10
6.19303
20
-2.95091
11
6.19303
21
-3.02374
0
LINE
8
BLACK
6
CONTINUOUS
10
6.19303
20
-3.02374
11
6.32335
21
-3.02374
0
LINE
8
BLACK
6
CONTINUOUS
10
6.32335
20
-3.02374
11
6.32335
21
-2.95091
0
LINE
8
BLACK
6
CONTINUOUS
10
6.32335
20
-2.95091
11
6.19303
21
-2.95091
0
LINE
8
BLACK
6
CONTINUOUS
10
6.35009
20
-3.02416
11
6.3498
21
-3.02346
0
LINE
8
BLACK
6
CONTINUOUS
10
6.3498
20
-3.02346
11
6.3498
21
-2.89118
0
LINE
8
BLACK
6
CONTINUOUS
10
6.3498
20
-2.89118
11
6.35009
21
-2.89049
0
LINE
8
BLACK
6
CONTINUOUS
10
6.35009
20
-2.89049
11
6.35079
21
-2.8902
0
LINE
8
BLACK
6
CONTINUOUS
10
6.35079
20
-2.8902
11
6.42559
21
-2.8902
0
LINE
8
BLACK
6
CONTINUOUS
10
6.42559
20
-2.8902
11
6.42629
21
-2.89049
0
LINE
8
BLACK
6
CONTINUOUS
10
6.42629
20
-2.89049
11
6.42657
21
-2.89118
0
LINE
8
BLACK
6
CONTINUOUS
10
6.42657
20
-2.89118
11
6.42657
21
-3.02346
0
LINE
8
BLACK
6
CONTINUOUS
10
6.42657
20
-3.02346
11
6.42629
21
-3.02416
0
LINE
8
BLACK
6
CONTINUOUS
10
6.42629
20
-3.02416
11
6.42559
21
-3.02445
0
LINE
8
BLACK
6
CONTINUOUS
10
6.42559
20
-3.02445
11
6.35079
21
-3.02445
0
LINE
8
BLACK
6
CONTINUOUS
10
6.35079
20
-3.02445
11
6.35009
21
-3.02416
0
LINE
8
BLACK
6
CONTINUOUS
10
6.35177
20
-2.89217
11
6.35177
21
-3.02248
0
LINE
8
BLACK
6
CONTINUOUS
10
6.35177
20
-3.02248
11
6.42461
21
-3.02248
0
LINE
8
BLACK
6
CONTINUOUS
10
6.42461
20
-3.02248
11
6.42461
21
-2.89217
0
LINE
8
BLACK
6
CONTINUOUS
10
6.42461
20
-2.89217
11
6.35177
21
-2.89217
0
LINE
8
BLACK
6
CONTINUOUS
10
6.10009
20
-3.02416
11
6.0998
21
-3.02346
0
LINE
8
BLACK
6
CONTINUOUS
10
6.0998
20
-3.02346
11
6.0998
21
-2.89118
0
LINE
8
BLACK
6
CONTINUOUS
10
6.0998
20
-2.89118
11
6.10009
21
-2.89049
0
LINE
8
BLACK
6
CONTINUOUS
10
6.10009
20
-2.89049
11
6.10079
21
-2.8902
0
LINE
8
BLACK
6
CONTINUOUS
10
6.10079
20
-2.8902
11
6.17559
21
-2.8902
0
LINE
8
BLACK
6
CONTINUOUS
10
6.17559
20
-2.8902
11
6.17629
21
-2.89049
0
LINE
8
BLACK
6
CONTINUOUS
10
6.17629
20
-2.89049
11
6.17657
21
-2.89118
0
LINE
8
BLACK
6
CONTINUOUS
10
6.17657
20
-2.89118
11
6.17657
21
-3.02346
0
LINE
8
BLACK
6
CONTINUOUS
10
6.17657
20
-3.02346
11
6.17629
21
-3.02416
0
LINE
8
BLACK
6
CONTINUOUS
10
6.17629
20
-3.02416
11
6.17559
21
-3.02445
0
LINE
8
BLACK
6
CONTINUOUS
10
6.17559
20
-3.02445
11
6.10079
21
-3.02445
0
LINE
8
BLACK
6
CONTINUOUS
10
6.10079
20
-3.02445
11
6.10009
21
-3.02416
0
LINE
8
BLACK
6
CONTINUOUS
10
6.10177
20
-2.89217
11
6.10177
21
-3.02248
0
LINE
8
BLACK
6
CONTINUOUS
10
6.10177
20
-3.02248
11
6.17461
21
-3.02248
0
LINE
8
BLACK
6
CONTINUOUS
10
6.17461
20
-3.02248
11
6.17461
21
-2.89217
0
LINE
8
BLACK
6
CONTINUOUS
10
6.17461
20
-2.89217
11
6.10177
21
-2.89217
0
LINE
8
BLACK
6
CONTINUOUS
10
5.6619
20
-3.01763
11
5.66161
21
-3.01693
0
LINE
8
BLACK
6
CONTINUOUS
10
5.66161
20
-3.01693
11
5.66161
21
-2.88465
0
LINE
8
BLACK
6
CONTINUOUS
10
5.66161
20
-2.88465
11
5.6619
21
-2.88395
0
LINE
8
BLACK
6
CONTINUOUS
10
5.6619
20
-2.88395
11
5.6626
21
-2.88366
0
LINE
8
BLACK
6
CONTINUOUS
10
5.6626
20
-2.88366
11
5.7374
21
-2.88366
0
LINE
8
BLACK
6
CONTINUOUS
10
5.7374
20
-2.88366
11
5.7381
21
-2.88395
0
LINE
8
BLACK
6
CONTINUOUS
10
5.7381
20
-2.88395
11
5.73839
21
-2.88465
0
LINE
8
BLACK
6
CONTINUOUS
10
5.73839
20
-2.88465
11
5.73839
21
-3.01693
0
LINE
8
BLACK
6
CONTINUOUS
10
5.73839
20
-3.01693
11
5.7381
21
-3.01763
0
LINE
8
BLACK
6
CONTINUOUS
10
5.7381
20
-3.01763
11
5.7374
21
-3.01791
0
LINE
8
BLACK
6
CONTINUOUS
10
5.7374
20
-3.01791
11
5.6626
21
-3.01791
0
LINE
8
BLACK
6
CONTINUOUS
10
5.6626
20
-3.01791
11
5.6619
21
-3.01763
0
LINE
8
BLACK
6
CONTINUOUS
10
5.66358
20
-2.88563
11
5.66358
21
-3.01594
0
LINE
8
BLACK
6
CONTINUOUS
10
5.66358
20
-3.01594
11
5.73642
21
-3.01594
0
LINE
8
BLACK
6
CONTINUOUS
10
5.73642
20
-3.01594
11
5.73642
21
-2.88563
0
LINE
8
BLACK
6
CONTINUOUS
10
5.73642
20
-2.88563
11
5.66358
21
-2.88563
0
LINE
8
BLACK
6
CONTINUOUS
10
5.7619
20
-3.01763
11
5.76161
21
-3.01693
0
LINE
8
BLACK
6
CONTINUOUS
10
5.76161
20
-3.01693
11
5.76161
21
-2.88465
0
LINE
8
BLACK
6
CONTINUOUS
10
5.76161
20
-2.88465
11
5.7619
21
-2.88395
0
LINE
8
BLACK
6
CONTINUOUS
10
5.7619
20
-2.88395
11
5.7626
21
-2.88366
0
LINE
8
BLACK
6
CONTINUOUS
10
5.7626
20
-2.88366
11
5.8374
21
-2.88366
0
LINE
8
BLACK
6
CONTINUOUS
10
5.8374
20
-2.88366
11
5.8381
21
-2.88395
0
LINE
8
BLACK
6
CONTINUOUS
10
5.8381
20
-2.88395
11
5.83839
21
-2.88465
0
LINE
8
BLACK
6
CONTINUOUS
10
5.83839
20
-2.88465
11
5.83839
21
-3.01693
0
LINE
8
BLACK
6
CONTINUOUS
10
5.83839
20
-3.01693
11
5.8381
21
-3.01763
0
LINE
8
BLACK
6
CONTINUOUS
10
5.8381
20
-3.01763
11
5.8374
21
-3.01791
0
LINE
8
BLACK
6
CONTINUOUS
10
5.8374
20
-3.01791
11
5.7626
21
-3.01791
0
LINE
8
BLACK
6
CONTINUOUS
10
5.7626
20
-3.01791
11
5.7619
21
-3.01763
0
LINE
8
BLACK
6
CONTINUOUS
10
5.76358
20
-2.88563
11
5.76358
21
-3.01594
0
LINE
8
BLACK
6
CONTINUOUS
10
5.76358
20
-3.01594
11
5.83642
21
-3.01594
0
LINE
8
BLACK
6
CONTINUOUS
10
5.83642
20
-3.01594
11
5.83642
21
-2.88563
0
LINE
8
BLACK
6
CONTINUOUS
10
5.83642
20
-2.88563
11
5.76358
21
-2.88563
0
LINE
8
BLACK
6
CONTINUOUS
10
6.12638
20
-2.8325
11
6.12609
21
-2.8318
0
LINE
8
BLACK
6
CONTINUOUS
10
6.12609
20
-2.8318
11
6.12609
21
-2.6822
0
LINE
8
BLACK
6
CONTINUOUS
10
6.12609
20
-2.6822
11
6.12638
21
-2.6815
0
LINE
8
BLACK
6
CONTINUOUS
10
6.12638
20
-2.6815
11
6.12708
21
-2.68121
0
LINE
8
BLACK
6
CONTINUOUS
10
6.12708
20
-2.68121
11
6.38692
21
-2.68121
0
LINE
8
BLACK
6
CONTINUOUS
10
6.38692
20
-2.68121
11
6.38762
21
-2.6815
0
LINE
8
BLACK
6
CONTINUOUS
10
6.38762
20
-2.6815
11
6.38791
21
-2.6822
0
LINE
8
BLACK
6
CONTINUOUS
10
6.38791
20
-2.6822
11
6.38791
21
-2.8318
0
LINE
8
BLACK
6
CONTINUOUS
10
6.38791
20
-2.8318
11
6.38762
21
-2.8325
0
LINE
8
BLACK
6
CONTINUOUS
10
6.38762
20
-2.8325
11
6.38692
21
-2.83279
0
LINE
8
BLACK
6
CONTINUOUS
10
6.38692
20
-2.83279
11
6.12708
21
-2.83279
0
LINE
8
BLACK
6
CONTINUOUS
10
6.12708
20
-2.83279
11
6.12638
21
-2.8325
0
LINE
8
BLACK
6
CONTINUOUS
10
6.12806
20
-2.68318
11
6.12806
21
-2.83082
0
LINE
8
BLACK
6
CONTINUOUS
10
6.12806
20
-2.83082
11
6.38594
21
-2.83082
0
LINE
8
BLACK
6
CONTINUOUS
10
6.38594
20
-2.83082
11
6.38594
21
-2.68318
0
LINE
8
BLACK
6
CONTINUOUS
10
6.38594
20
-2.68318
11
6.12806
21
-2.68318
0
LINE
8
BLACK
6
CONTINUOUS
10
5.6619
20
-2.82963
11
5.66161
21
-2.82893
0
LINE
8
BLACK
6
CONTINUOUS
10
5.66161
20
-2.82893
11
5.66161
21
-2.69665
0
LINE
8
BLACK
6
CONTINUOUS
10
5.66161
20
-2.69665
11
5.6619
21
-2.69595
0
LINE
8
BLACK
6
CONTINUOUS
10
5.6619
20
-2.69595
11
5.6626
21
-2.69566
0
LINE
8
BLACK
6
CONTINUOUS
10
5.6626
20
-2.69566
11
5.7374
21
-2.69566
0
LINE
8
BLACK
6
CONTINUOUS
10
5.7374
20
-2.69566
11
5.7381
21
-2.69595
0
LINE
8
BLACK
6
CONTINUOUS
10
5.7381
20
-2.69595
11
5.73839
21
-2.69665
0
LINE
8
BLACK
6
CONTINUOUS
10
5.73839
20
-2.69665
11
5.73839
21
-2.82893
0
LINE
8
BLACK
6
CONTINUOUS
10
5.73839
20
-2.82893
11
5.7381
21
-2.82963
0
LINE
8
BLACK
6
CONTINUOUS
10
5.7381
20
-2.82963
11
5.7374
21
-2.82991
0
LINE
8
BLACK
6
CONTINUOUS
10
5.7374
20
-2.82991
11
5.6626
21
-2.82991
0
LINE
8
BLACK
6
CONTINUOUS
10
5.6626
20
-2.82991
11
5.6619
21
-2.82963
0
LINE
8
BLACK
6
CONTINUOUS
10
5.66358
20
-2.69763
11
5.66358
21
-2.82794
0
LINE
8
BLACK
6
CONTINUOUS
10
5.66358
20
-2.82794
11
5.73642
21
-2.82794
0
LINE
8
BLACK
6
CONTINUOUS
10
5.73642
20
-2.82794
11
5.73642
21
-2.69763
0
LINE
8
BLACK
6
CONTINUOUS
10
5.73642
20
-2.69763
11
5.66358
21
-2.69763
0
LINE
8
BLACK
6
CONTINUOUS
10
5.7619
20
-2.82963
11
5.76161
21
-2.82893
0
LINE
8
BLACK
6
CONTINUOUS
10
5.76161
20
-2.82893
11
5.76161
21
-2.69665
0
LINE
8
BLACK
6
CONTINUOUS
10
5.76161
20
-2.69665
11
5.7619
21
-2.69595
0
LINE
8
BLACK
6
CONTINUOUS
10
5.7619
20
-2.69595
11
5.7626
21
-2.69566
0
LINE
8
BLACK
6
CONTINUOUS
10
5.7626
20
-2.69566
11
5.8374
21
-2.69566
0
LINE
8
BLACK
6
CONTINUOUS
10
5.8374
20
-2.69566
11
5.8381
21
-2.69595
0
LINE
8
BLACK
6
CONTINUOUS
10
5.8381
20
-2.69595
11
5.83839
21
-2.69665
0
LINE
8
BLACK
6
CONTINUOUS
10
5.83839
20
-2.69665
11
5.83839
21
-2.82893
0
LINE
8
BLACK
6
CONTINUOUS
10
5.83839
20
-2.82893
11
5.8381
21
-2.82963
0
LINE
8
BLACK
6
CONTINUOUS
10
5.8381
20
-2.82963
11
5.8374
21
-2.82991
0
LINE
8
BLACK
6
CONTINUOUS
10
5.8374
20
-2.82991
11
5.7626
21
-2.82991
0
LINE
8
BLACK
6
CONTINUOUS
10
5.7626
20
-2.82991
11
5.7619
21
-2.82963
0
LINE
8
BLACK
6
CONTINUOUS
10
5.76358
20
-2.69763
11
5.76358
21
-2.82794
0
LINE
8
BLACK
6
CONTINUOUS
10
5.76358
20
-2.82794
11
5.83642
21
-2.82794
0
LINE
8
BLACK
6
CONTINUOUS
10
5.83642
20
-2.82794
11
5.83642
21
-2.69763
0
LINE
8
BLACK
6
CONTINUOUS
10
5.83642
20
-2.69763
11
5.76358
21
-2.69763
0
LINE
8
BLACK
6
CONTINUOUS
10
5.36253
20
-3.85661
11
5.36491
21
-3.8491
0
LINE
8
BLACK
6
CONTINUOUS
10
5.36491
20
-3.8491
11
5.3687
21
-3.8422
0
LINE
8
BLACK
6
CONTINUOUS
10
5.3687
20
-3.8422
11
5.37377
21
-3.83617
0
LINE
8
BLACK
6
CONTINUOUS
10
5.37377
20
-3.83617
11
5.3799
21
-3.83123
0
LINE
8
BLACK
6
CONTINUOUS
10
5.3799
20
-3.83123
11
5.38688
21
-3.82758
0
LINE
8
BLACK
6
CONTINUOUS
10
5.38688
20
-3.82758
11
5.39444
21
-3.82536
0
LINE
8
BLACK
6
CONTINUOUS
10
5.39444
20
-3.82536
11
5.40228
21
-3.82465
0
LINE
8
BLACK
6
CONTINUOUS
10
5.40228
20
-3.82465
11
5.41011
21
-3.82547
0
LINE
8
BLACK
6
CONTINUOUS
10
5.41011
20
-3.82547
11
5.41764
21
-3.8278
0
LINE
8
BLACK
6
CONTINUOUS
10
5.41764
20
-3.8278
11
5.42457
21
-3.83154
0
LINE
8
BLACK
6
CONTINUOUS
10
5.42457
20
-3.83154
11
5.43063
21
-3.83656
0
LINE
8
BLACK
6
CONTINUOUS
10
5.43063
20
-3.83656
11
5.43561
21
-3.84267
0
LINE
8
BLACK
6
CONTINUOUS
10
5.43561
20
-3.84267
11
5.43931
21
-3.84962
0
LINE
8
BLACK
6
CONTINUOUS
10
5.43931
20
-3.84962
11
5.44159
21
-3.85716
0
LINE
8
BLACK
6
CONTINUOUS
10
5.44159
20
-3.85716
11
5.44235
21
-3.865
0
LINE
8
BLACK
6
CONTINUOUS
10
5.44235
20
-3.865
11
5.44234
21
-3.86613
0
LINE
8
BLACK
6
CONTINUOUS
10
5.44234
20
-3.86613
11
5.44135
21
-3.87394
0
LINE
8
BLACK
6
CONTINUOUS
10
5.44135
20
-3.87394
11
5.43887
21
-3.88141
0
LINE
8
BLACK
6
CONTINUOUS
10
5.43887
20
-3.88141
11
5.43498
21
-3.88826
0
LINE
8
BLACK
6
CONTINUOUS
10
5.43498
20
-3.88826
11
5.42983
21
-3.89422
0
LINE
8
BLACK
6
CONTINUOUS
10
5.42983
20
-3.89422
11
5.42362
21
-3.89907
0
LINE
8
BLACK
6
CONTINUOUS
10
5.42362
20
-3.89907
11
5.41659
21
-3.90262
0
LINE
8
BLACK
6
CONTINUOUS
10
5.41659
20
-3.90262
11
5.40901
21
-3.90474
0
LINE
8
BLACK
6
CONTINUOUS
10
5.40901
20
-3.90474
11
5.40115
21
-3.90535
0
LINE
8
BLACK
6
CONTINUOUS
10
5.40115
20
-3.90535
11
5.39333
21
-3.90441
0
LINE
8
BLACK
6
CONTINUOUS
10
5.39333
20
-3.90441
11
5.38584
21
-3.90198
0
LINE
8
BLACK
6
CONTINUOUS
10
5.38584
20
-3.90198
11
5.37897
21
-3.89814
0
LINE
8
BLACK
6
CONTINUOUS
10
5.37897
20
-3.89814
11
5.37297
21
-3.89303
0
LINE
8
BLACK
6
CONTINUOUS
10
5.37297
20
-3.89303
11
5.36808
21
-3.88686
0
LINE
8
BLACK
6
CONTINUOUS
10
5.36808
20
-3.88686
11
5.36448
21
-3.87986
0
LINE
8
BLACK
6
CONTINUOUS
10
5.36448
20
-3.87986
11
5.36231
21
-3.87228
0
LINE
8
BLACK
6
CONTINUOUS
10
5.36231
20
-3.87228
11
5.36165
21
-3.86446
0
LINE
8
BLACK
6
CONTINUOUS
10
5.36165
20
-3.86446
11
5.36165
21
-3.86444
0
LINE
8
BLACK
6
CONTINUOUS
10
5.36165
20
-3.86444
11
5.36253
21
-3.85661
0
LINE
8
BLACK
6
CONTINUOUS
10
5.36614
20
-3.8792
11
5.36958
21
-3.88589
0
LINE
8
BLACK
6
CONTINUOUS
10
5.36958
20
-3.88589
11
5.37425
21
-3.89179
0
LINE
8
BLACK
6
CONTINUOUS
10
5.37425
20
-3.89179
11
5.37999
21
-3.89667
0
LINE
8
BLACK
6
CONTINUOUS
10
5.37999
20
-3.89667
11
5.38656
21
-3.90035
0
LINE
8
BLACK
6
CONTINUOUS
10
5.38656
20
-3.90035
11
5.39372
21
-3.90267
0
LINE
8
BLACK
6
CONTINUOUS
10
5.39372
20
-3.90267
11
5.40119
21
-3.90356
0
LINE
8
BLACK
6
CONTINUOUS
10
5.40119
20
-3.90356
11
5.4087
21
-3.90299
0
LINE
8
BLACK
6
CONTINUOUS
10
5.4087
20
-3.90299
11
5.41595
21
-3.90096
0
LINE
8
BLACK
6
CONTINUOUS
10
5.41595
20
-3.90096
11
5.42267
21
-3.89757
0
LINE
8
BLACK
6
CONTINUOUS
10
5.42267
20
-3.89757
11
5.4286
21
-3.89293
0
LINE
8
BLACK
6
CONTINUOUS
10
5.4286
20
-3.89293
11
5.43352
21
-3.88723
0
LINE
8
BLACK
6
CONTINUOUS
10
5.43352
20
-3.88723
11
5.43724
21
-3.88069
0
LINE
8
BLACK
6
CONTINUOUS
10
5.43724
20
-3.88069
11
5.43961
21
-3.87355
0
LINE
8
BLACK
6
CONTINUOUS
10
5.43961
20
-3.87355
11
5.44056
21
-3.86608
0
LINE
8
BLACK
6
CONTINUOUS
10
5.44056
20
-3.86608
11
5.44057
21
-3.865
0
LINE
8
BLACK
6
CONTINUOUS
10
5.44057
20
-3.865
11
5.43984
21
-3.85751
0
LINE
8
BLACK
6
CONTINUOUS
10
5.43984
20
-3.85751
11
5.43766
21
-3.8503
0
LINE
8
BLACK
6
CONTINUOUS
10
5.43766
20
-3.8503
11
5.43413
21
-3.84365
0
LINE
8
BLACK
6
CONTINUOUS
10
5.43413
20
-3.84365
11
5.42937
21
-3.83782
0
LINE
8
BLACK
6
CONTINUOUS
10
5.42937
20
-3.83782
11
5.42357
21
-3.83302
0
LINE
8
BLACK
6
CONTINUOUS
10
5.42357
20
-3.83302
11
5.41695
21
-3.82944
0
LINE
8
BLACK
6
CONTINUOUS
10
5.41695
20
-3.82944
11
5.40976
21
-3.82722
0
LINE
8
BLACK
6
CONTINUOUS
10
5.40976
20
-3.82722
11
5.40227
21
-3.82643
0
LINE
8
BLACK
6
CONTINUOUS
10
5.40227
20
-3.82643
11
5.39477
21
-3.82711
0
LINE
8
BLACK
6
CONTINUOUS
10
5.39477
20
-3.82711
11
5.38755
21
-3.82924
0
LINE
8
BLACK
6
CONTINUOUS
10
5.38755
20
-3.82924
11
5.38088
21
-3.83272
0
LINE
8
BLACK
6
CONTINUOUS
10
5.38088
20
-3.83272
11
5.37501
21
-3.83744
0
LINE
8
BLACK
6
CONTINUOUS
10
5.37501
20
-3.83744
11
5.37017
21
-3.84321
0
LINE
8
BLACK
6
CONTINUOUS
10
5.37017
20
-3.84321
11
5.36655
21
-3.84981
0
LINE
8
BLACK
6
CONTINUOUS
10
5.36655
20
-3.84981
11
5.36427
21
-3.85698
0
LINE
8
BLACK
6
CONTINUOUS
10
5.36427
20
-3.85698
11
5.36343
21
-3.86446
0
LINE
8
BLACK
6
CONTINUOUS
10
5.36343
20
-3.86446
11
5.36406
21
-3.87196
0
LINE
8
BLACK
6
CONTINUOUS
10
5.36406
20
-3.87196
11
5.36614
21
-3.8792
0
LINE
8
BLACK
6
CONTINUOUS
10
6.72053
20
-3.82161
11
6.72291
21
-3.8141
0
LINE
8
BLACK
6
CONTINUOUS
10
6.72291
20
-3.8141
11
6.7267
21
-3.8072
0
LINE
8
BLACK
6
CONTINUOUS
10
6.7267
20
-3.8072
11
6.73177
21
-3.80117
0
LINE
8
BLACK
6
CONTINUOUS
10
6.73177
20
-3.80117
11
6.7379
21
-3.79623
0
LINE
8
BLACK
6
CONTINUOUS
10
6.7379
20
-3.79623
11
6.74488
21
-3.79258
0
LINE
8
BLACK
6
CONTINUOUS
10
6.74488
20
-3.79258
11
6.75244
21
-3.79036
0
LINE
8
BLACK
6
CONTINUOUS
10
6.75244
20
-3.79036
11
6.76028
21
-3.78965
0
LINE
8
BLACK
6
CONTINUOUS
10
6.76028
20
-3.78965
11
6.76811
21
-3.79047
0
LINE
8
BLACK
6
CONTINUOUS
10
6.76811
20
-3.79047
11
6.77564
21
-3.7928
0
LINE
8
BLACK
6
CONTINUOUS
10
6.77564
20
-3.7928
11
6.78257
21
-3.79654
0
LINE
8
BLACK
6
CONTINUOUS
10
6.78257
20
-3.79654
11
6.78863
21
-3.80156
0
LINE
8
BLACK
6
CONTINUOUS
10
6.78863
20
-3.80156
11
6.79361
21
-3.80767
0
LINE
8
BLACK
6
CONTINUOUS
10
6.79361
20
-3.80767
11
6.79731
21
-3.81462
0
LINE
8
BLACK
6
CONTINUOUS
10
6.79731
20
-3.81462
11
6.79959
21
-3.82216
0
LINE
8
BLACK
6
CONTINUOUS
10
6.79959
20
-3.82216
11
6.80035
21
-3.83
0
LINE
8
BLACK
6
CONTINUOUS
10
6.80035
20
-3.83
11
6.80034
21
-3.83113
0
LINE
8
BLACK
6
CONTINUOUS
10
6.80034
20
-3.83113
11
6.79935
21
-3.83894
0
LINE
8
BLACK
6
CONTINUOUS
10
6.79935
20
-3.83894
11
6.79687
21
-3.84641
0
LINE
8
BLACK
6
CONTINUOUS
10
6.79687
20
-3.84641
11
6.79298
21
-3.85326
0
LINE
8
BLACK
6
CONTINUOUS
10
6.79298
20
-3.85326
11
6.78783
21
-3.85922
0
LINE
8
BLACK
6
CONTINUOUS
10
6.78783
20
-3.85922
11
6.78162
21
-3.86407
0
LINE
8
BLACK
6
CONTINUOUS
10
6.78162
20
-3.86407
11
6.77459
21
-3.86762
0
LINE
8
BLACK
6
CONTINUOUS
10
6.77459
20
-3.86762
11
6.76701
21
-3.86974
0
LINE
8
BLACK
6
CONTINUOUS
10
6.76701
20
-3.86974
11
6.75915
21
-3.87035
0
LINE
8
BLACK
6
CONTINUOUS
10
6.75915
20
-3.87035
11
6.75133
21
-3.86941
0
LINE
8
BLACK
6
CONTINUOUS
10
6.75133
20
-3.86941
11
6.74384
21
-3.86698
0
LINE
8
BLACK
6
CONTINUOUS
10
6.74384
20
-3.86698
11
6.73697
21
-3.86314
0
LINE
8
BLACK
6
CONTINUOUS
10
6.73697
20
-3.86314
11
6.73097
21
-3.85803
0
LINE
8
BLACK
6
CONTINUOUS
10
6.73097
20
-3.85803
11
6.72608
21
-3.85186
0
LINE
8
BLACK
6
CONTINUOUS
10
6.72608
20
-3.85186
11
6.72248
21
-3.84486
0
LINE
8
BLACK
6
CONTINUOUS
10
6.72248
20
-3.84486
11
6.72031
21
-3.83728
0
LINE
8
BLACK
6
CONTINUOUS
10
6.72031
20
-3.83728
11
6.71965
21
-3.82946
0
LINE
8
BLACK
6
CONTINUOUS
10
6.71965
20
-3.82946
11
6.71965
21
-3.82944
0
LINE
8
BLACK
6
CONTINUOUS
10
6.71965
20
-3.82944
11
6.72053
21
-3.82161
0
LINE
8
BLACK
6
CONTINUOUS
10
6.72414
20
-3.8442
11
6.72758
21
-3.85089
0
LINE
8
BLACK
6
CONTINUOUS
10
6.72758
20
-3.85089
11
6.73225
21
-3.85679
0
LINE
8
BLACK
6
CONTINUOUS
10
6.73225
20
-3.85679
11
6.73799
21
-3.86167
0
LINE
8
BLACK
6
CONTINUOUS
10
6.73799
20
-3.86167
11
6.74456
21
-3.86535
0
LINE
8
BLACK
6
CONTINUOUS
10
6.74456
20
-3.86535
11
6.75172
21
-3.86767
0
LINE
8
BLACK
6
CONTINUOUS
10
6.75172
20
-3.86767
11
6.75919
21
-3.86856
0
LINE
8
BLACK
6
CONTINUOUS
10
6.75919
20
-3.86856
11
6.7667
21
-3.86799
0
LINE
8
BLACK
6
CONTINUOUS
10
6.7667
20
-3.86799
11
6.77395
21
-3.86596
0
LINE
8
BLACK
6
CONTINUOUS
10
6.77395
20
-3.86596
11
6.78067
21
-3.86257
0
LINE
8
BLACK
6
CONTINUOUS
10
6.78067
20
-3.86257
11
6.7866
21
-3.85793
0
LINE
8
BLACK
6
CONTINUOUS
10
6.7866
20
-3.85793
11
6.79152
21
-3.85223
0
LINE
8
BLACK
6
CONTINUOUS
10
6.79152
20
-3.85223
11
6.79524
21
-3.84569
0
LINE
8
BLACK
6
CONTINUOUS
10
6.79524
20
-3.84569
11
6.79761
21
-3.83855
0
LINE
8
BLACK
6
CONTINUOUS
10
6.79761
20
-3.83855
11
6.79856
21
-3.83108
0
LINE
8
BLACK
6
CONTINUOUS
10
6.79856
20
-3.83108
11
6.79857
21
-3.83
0
LINE
8
BLACK
6
CONTINUOUS
10
6.79857
20
-3.83
11
6.79784
21
-3.82251
0
LINE
8
BLACK
6
CONTINUOUS
10
6.79784
20
-3.82251
11
6.79566
21
-3.8153
0
LINE
8
BLACK
6
CONTINUOUS
10
6.79566
20
-3.8153
11
6.79213
21
-3.80865
0
LINE
8
BLACK
6
CONTINUOUS
10
6.79213
20
-3.80865
11
6.78737
21
-3.80282
0
LINE
8
BLACK
6
CONTINUOUS
10
6.78737
20
-3.80282
11
6.78157
21
-3.79802
0
LINE
8
BLACK
6
CONTINUOUS
10
6.78157
20
-3.79802
11
6.77495
21
-3.79444
0
LINE
8
BLACK
6
CONTINUOUS
10
6.77495
20
-3.79444
11
6.76776
21
-3.79222
0
LINE
8
BLACK
6
CONTINUOUS
10
6.76776
20
-3.79222
11
6.76027
21
-3.79143
0
LINE
8
BLACK
6
CONTINUOUS
10
6.76027
20
-3.79143
11
6.75277
21
-3.79211
0
LINE
8
BLACK
6
CONTINUOUS
10
6.75277
20
-3.79211
11
6.74555
21
-3.79424
0
LINE
8
BLACK
6
CONTINUOUS
10
6.74555
20
-3.79424
11
6.73888
21
-3.79772
0
LINE
8
BLACK
6
CONTINUOUS
10
6.73888
20
-3.79772
11
6.73301
21
-3.80244
0
LINE
8
BLACK
6
CONTINUOUS
10
6.73301
20
-3.80244
11
6.72817
21
-3.80821
0
LINE
8
BLACK
6
CONTINUOUS
10
6.72817
20
-3.80821
11
6.72455
21
-3.81481
0
LINE
8
BLACK
6
CONTINUOUS
10
6.72455
20
-3.81481
11
6.72227
21
-3.82198
0
LINE
8
BLACK
6
CONTINUOUS
10
6.72227
20
-3.82198
11
6.72143
21
-3.82946
0
LINE
8
BLACK
6
CONTINUOUS
10
6.72143
20
-3.82946
11
6.72206
21
-3.83696
0
LINE
8
BLACK
6
CONTINUOUS
10
6.72206
20
-3.83696
11
6.72414
21
-3.8442
0
LINE
8
BLACK
6
CONTINUOUS
10
6.85263
20
-3.80179
11
6.85537
21
-3.78858
0
LINE
8
BLACK
6
CONTINUOUS
10
6.85537
20
-3.78858
11
6.8596
21
-3.77578
0
LINE
8
BLACK
6
CONTINUOUS
10
6.8596
20
-3.77578
11
6.86528
21
-3.76355
0
LINE
8
BLACK
6
CONTINUOUS
10
6.86528
20
-3.76355
11
6.87233
21
-3.75205
0
LINE
8
BLACK
6
CONTINUOUS
10
6.87233
20
-3.75205
11
6.88065
21
-3.74144
0
LINE
8
BLACK
6
CONTINUOUS
10
6.88065
20
-3.74144
11
6.89013
21
-3.73186
0
LINE
8
BLACK
6
CONTINUOUS
10
6.89013
20
-3.73186
11
6.90066
21
-3.72342
0
LINE
8
BLACK
6
CONTINUOUS
10
6.90066
20
-3.72342
11
6.91208
21
-3.71626
0
LINE
8
BLACK
6
CONTINUOUS
10
6.91208
20
-3.71626
11
6.92425
21
-3.71045
0
LINE
8
BLACK
6
CONTINUOUS
10
6.92425
20
-3.71045
11
6.93701
21
-3.70609
0
LINE
8
BLACK
6
CONTINUOUS
10
6.93701
20
-3.70609
11
6.95018
21
-3.70321
0
LINE
8
BLACK
6
CONTINUOUS
10
6.95018
20
-3.70321
11
6.9636
21
-3.70187
0
LINE
8
BLACK
6
CONTINUOUS
10
6.9636
20
-3.70187
11
6.97708
21
-3.70209
0
LINE
8
BLACK
6
CONTINUOUS
10
6.97708
20
-3.70209
11
6.99045
21
-3.70385
0
LINE
8
BLACK
6
CONTINUOUS
10
6.99045
20
-3.70385
11
7.00353
21
-3.70713
0
LINE
8
BLACK
6
CONTINUOUS
10
7.00353
20
-3.70713
11
7.01614
21
-3.7119
0
LINE
8
BLACK
6
CONTINUOUS
10
7.01614
20
-3.7119
11
7.02813
21
-3.71808
0
LINE
8
BLACK
6
CONTINUOUS
10
7.02813
20
-3.71808
11
7.03932
21
-3.7256
0
LINE
8
BLACK
6
CONTINUOUS
10
7.03932
20
-3.7256
11
7.04957
21
-3.73436
0
LINE
8
BLACK
6
CONTINUOUS
10
7.04957
20
-3.73436
11
7.05875
21
-3.74424
0
LINE
8
BLACK
6
CONTINUOUS
10
7.05875
20
-3.74424
11
7.06673
21
-3.75511
0
LINE
8
BLACK
6
CONTINUOUS
10
7.06673
20
-3.75511
11
7.07342
21
-3.76682
0
LINE
8
BLACK
6
CONTINUOUS
10
7.07342
20
-3.76682
11
7.07871
21
-3.77922
0
LINE
8
BLACK
6
CONTINUOUS
10
7.07871
20
-3.77922
11
7.08254
21
-3.79215
0
LINE
8
BLACK
6
CONTINUOUS
10
7.08254
20
-3.79215
11
7.08485
21
-3.80544
0
LINE
8
BLACK
6
CONTINUOUS
10
7.08485
20
-3.80544
11
7.08563
21
-3.8189
0
LINE
8
BLACK
6
CONTINUOUS
10
7.08563
20
-3.8189
11
7.0854
21
-3.82625
0
LINE
8
BLACK
6
CONTINUOUS
10
7.0854
20
-3.82625
11
7.08378
21
-3.83964
0
LINE
8
BLACK
6
CONTINUOUS
10
7.08378
20
-3.83964
11
7.08063
21
-3.85275
0
LINE
8
BLACK
6
CONTINUOUS
10
7.08063
20
-3.85275
11
7.076
21
-3.86541
0
LINE
8
BLACK
6
CONTINUOUS
10
7.076
20
-3.86541
11
7.06994
21
-3.87746
0
LINE
8
BLACK
6
CONTINUOUS
10
7.06994
20
-3.87746
11
7.06253
21
-3.88873
0
LINE
8
BLACK
6
CONTINUOUS
10
7.06253
20
-3.88873
11
7.05389
21
-3.89908
0
LINE
8
BLACK
6
CONTINUOUS
10
7.05389
20
-3.89908
11
7.0441
21
-3.90836
0
LINE
8
BLACK
6
CONTINUOUS
10
7.0441
20
-3.90836
11
7.03332
21
-3.91645
0
LINE
8
BLACK
6
CONTINUOUS
10
7.03332
20
-3.91645
11
7.02168
21
-3.92326
0
LINE
8
BLACK
6
CONTINUOUS
10
7.02168
20
-3.92326
11
7.00933
21
-3.92868
0
LINE
8
BLACK
6
CONTINUOUS
10
7.00933
20
-3.92868
11
6.99644
21
-3.93264
0
LINE
8
BLACK
6
CONTINUOUS
10
6.99644
20
-3.93264
11
6.98318
21
-3.9351
0
LINE
8
BLACK
6
CONTINUOUS
10
6.98318
20
-3.9351
11
6.96973
21
-3.93602
0
LINE
8
BLACK
6
CONTINUOUS
10
6.96973
20
-3.93602
11
6.95626
21
-3.93538
0
LINE
8
BLACK
6
CONTINUOUS
10
6.95626
20
-3.93538
11
6.94295
21
-3.9332
0
LINE
8
BLACK
6
CONTINUOUS
10
6.94295
20
-3.9332
11
6.92999
21
-3.92951
0
LINE
8
BLACK
6
CONTINUOUS
10
6.92999
20
-3.92951
11
6.91753
21
-3.92435
0
LINE
8
BLACK
6
CONTINUOUS
10
6.91753
20
-3.92435
11
6.90574
21
-3.91779
0
LINE
8
BLACK
6
CONTINUOUS
10
6.90574
20
-3.91779
11
6.89479
21
-3.90992
0
LINE
8
BLACK
6
CONTINUOUS
10
6.89479
20
-3.90992
11
6.88482
21
-3.90085
0
LINE
8
BLACK
6
CONTINUOUS
10
6.88482
20
-3.90085
11
6.87596
21
-3.89068
0
LINE
8
BLACK
6
CONTINUOUS
10
6.87596
20
-3.89068
11
6.86832
21
-3.87957
0
LINE
8
BLACK
6
CONTINUOUS
10
6.86832
20
-3.87957
11
6.86201
21
-3.86765
0
LINE
8
BLACK
6
CONTINUOUS
10
6.86201
20
-3.86765
11
6.85711
21
-3.85509
0
LINE
8
BLACK
6
CONTINUOUS
10
6.85711
20
-3.85509
11
6.85369
21
-3.84205
0
LINE
8
BLACK
6
CONTINUOUS
10
6.85369
20
-3.84205
11
6.85179
21
-3.8287
0
LINE
8
BLACK
6
CONTINUOUS
10
6.85179
20
-3.8287
11
6.85144
21
-3.81527
0
LINE
8
BLACK
6
CONTINUOUS
10
6.85144
20
-3.81527
11
6.85144
21
-3.81522
0
LINE
8
BLACK
6
CONTINUOUS
10
6.85144
20
-3.81522
11
6.85263
21
-3.80179
0
LINE
8
BLACK
6
CONTINUOUS
10
6.85543
20
-3.8417
11
6.8588
21
-3.85454
0
LINE
8
BLACK
6
CONTINUOUS
10
6.8588
20
-3.85454
11
6.86362
21
-3.86692
0
LINE
8
BLACK
6
CONTINUOUS
10
6.86362
20
-3.86692
11
6.86984
21
-3.87865
0
LINE
8
BLACK
6
CONTINUOUS
10
6.86984
20
-3.87865
11
6.87736
21
-3.8896
0
LINE
8
BLACK
6
CONTINUOUS
10
6.87736
20
-3.8896
11
6.88609
21
-3.89961
0
LINE
8
BLACK
6
CONTINUOUS
10
6.88609
20
-3.89961
11
6.89591
21
-3.90854
0
LINE
8
BLACK
6
CONTINUOUS
10
6.89591
20
-3.90854
11
6.90669
21
-3.91629
0
LINE
8
BLACK
6
CONTINUOUS
10
6.90669
20
-3.91629
11
6.9183
21
-3.92275
0
LINE
8
BLACK
6
CONTINUOUS
10
6.9183
20
-3.92275
11
6.93057
21
-3.92783
0
LINE
8
BLACK
6
CONTINUOUS
10
6.93057
20
-3.92783
11
6.94334
21
-3.93147
0
LINE
8
BLACK
6
CONTINUOUS
10
6.94334
20
-3.93147
11
6.95645
21
-3.93362
0
LINE
8
BLACK
6
CONTINUOUS
10
6.95645
20
-3.93362
11
6.96971
21
-3.93424
0
LINE
8
BLACK
6
CONTINUOUS
10
6.96971
20
-3.93424
11
6.98296
21
-3.93334
0
LINE
8
BLACK
6
CONTINUOUS
10
6.98296
20
-3.93334
11
6.99602
21
-3.93092
0
LINE
8
BLACK
6
CONTINUOUS
10
6.99602
20
-3.93092
11
7.00871
21
-3.92702
0
LINE
8
BLACK
6
CONTINUOUS
10
7.00871
20
-3.92702
11
7.02087
21
-3.92168
0
LINE
8
BLACK
6
CONTINUOUS
10
7.02087
20
-3.92168
11
7.03234
21
-3.91498
0
LINE
8
BLACK
6
CONTINUOUS
10
7.03234
20
-3.91498
11
7.04296
21
-3.907
0
LINE
8
BLACK
6
CONTINUOUS
10
7.04296
20
-3.907
11
7.05259
21
-3.89786
0
LINE
8
BLACK
6
CONTINUOUS
10
7.05259
20
-3.89786
11
7.06111
21
-3.88767
0
LINE
8
BLACK
6
CONTINUOUS
10
7.06111
20
-3.88767
11
7.0684
21
-3.87657
0
LINE
8
BLACK
6
CONTINUOUS
10
7.0684
20
-3.87657
11
7.07437
21
-3.86471
0
LINE
8
BLACK
6
CONTINUOUS
10
7.07437
20
-3.86471
11
7.07893
21
-3.85224
0
LINE
8
BLACK
6
CONTINUOUS
10
7.07893
20
-3.85224
11
7.08203
21
-3.83932
0
LINE
8
BLACK
6
CONTINUOUS
10
7.08203
20
-3.83932
11
7.08363
21
-3.82614
0
LINE
8
BLACK
6
CONTINUOUS
10
7.08363
20
-3.82614
11
7.08386
21
-3.8189
0
LINE
8
BLACK
6
CONTINUOUS
10
7.08386
20
-3.8189
11
7.08309
21
-3.80564
0
LINE
8
BLACK
6
CONTINUOUS
10
7.08309
20
-3.80564
11
7.08081
21
-3.79256
0
LINE
8
BLACK
6
CONTINUOUS
10
7.08081
20
-3.79256
11
7.07704
21
-3.77982
0
LINE
8
BLACK
6
CONTINUOUS
10
7.07704
20
-3.77982
11
7.07183
21
-3.76761
0
LINE
8
BLACK
6
CONTINUOUS
10
7.07183
20
-3.76761
11
7.06525
21
-3.75607
0
LINE
8
BLACK
6
CONTINUOUS
10
7.06525
20
-3.75607
11
7.05738
21
-3.74537
0
LINE
8
BLACK
6
CONTINUOUS
10
7.05738
20
-3.74537
11
7.04834
21
-3.73564
0
LINE
8
BLACK
6
CONTINUOUS
10
7.04834
20
-3.73564
11
7.03825
21
-3.72702
0
LINE
8
BLACK
6
CONTINUOUS
10
7.03825
20
-3.72702
11
7.02722
21
-3.71961
0
LINE
8
BLACK
6
CONTINUOUS
10
7.02722
20
-3.71961
11
7.01542
21
-3.71352
0
LINE
8
BLACK
6
CONTINUOUS
10
7.01542
20
-3.71352
11
7.003
21
-3.70882
0
LINE
8
BLACK
6
CONTINUOUS
10
7.003
20
-3.70882
11
6.99012
21
-3.70559
0
LINE
8
BLACK
6
CONTINUOUS
10
6.99012
20
-3.70559
11
6.97695
21
-3.70385
0
LINE
8
BLACK
6
CONTINUOUS
10
6.97695
20
-3.70385
11
6.96367
21
-3.70365
0
LINE
8
BLACK
6
CONTINUOUS
10
6.96367
20
-3.70365
11
6.95046
21
-3.70497
0
LINE
8
BLACK
6
CONTINUOUS
10
6.95046
20
-3.70497
11
6.93748
21
-3.70779
0
LINE
8
BLACK
6
CONTINUOUS
10
6.93748
20
-3.70779
11
6.92492
21
-3.7121
0
LINE
8
BLACK
6
CONTINUOUS
10
6.92492
20
-3.7121
11
6.91293
21
-3.71781
0
LINE
8
BLACK
6
CONTINUOUS
10
6.91293
20
-3.71781
11
6.90168
21
-3.72487
0
LINE
8
BLACK
6
CONTINUOUS
10
6.90168
20
-3.72487
11
6.89132
21
-3.73317
0
LINE
8
BLACK
6
CONTINUOUS
10
6.89132
20
-3.73317
11
6.88198
21
-3.74261
0
LINE
8
BLACK
6
CONTINUOUS
10
6.88198
20
-3.74261
11
6.87378
21
-3.75306
0
LINE
8
BLACK
6
CONTINUOUS
10
6.87378
20
-3.75306
11
6.86684
21
-3.76439
0
LINE
8
BLACK
6
CONTINUOUS
10
6.86684
20
-3.76439
11
6.86125
21
-3.77643
0
LINE
8
BLACK
6
CONTINUOUS
10
6.86125
20
-3.77643
11
6.85708
21
-3.78904
0
LINE
8
BLACK
6
CONTINUOUS
10
6.85708
20
-3.78904
11
6.85439
21
-3.80205
0
LINE
8
BLACK
6
CONTINUOUS
10
6.85439
20
-3.80205
11
6.85321
21
-3.81527
0
LINE
8
BLACK
6
CONTINUOUS
10
6.85321
20
-3.81527
11
6.85356
21
-3.82855
0
LINE
8
BLACK
6
CONTINUOUS
10
6.85356
20
-3.82855
11
6.85543
21
-3.8417
0
LINE
8
BLACK
6
CONTINUOUS
10
4.72665
20
-3.80179
11
4.72938
21
-3.78858
0
LINE
8
BLACK
6
CONTINUOUS
10
4.72938
20
-3.78858
11
4.73362
21
-3.77578
0
LINE
8
BLACK
6
CONTINUOUS
10
4.73362
20
-3.77578
11
4.7393
21
-3.76355
0
LINE
8
BLACK
6
CONTINUOUS
10
4.7393
20
-3.76355
11
4.74634
21
-3.75205
0
LINE
8
BLACK
6
CONTINUOUS
10
4.74634
20
-3.75205
11
4.75466
21
-3.74144
0
LINE
8
BLACK
6
CONTINUOUS
10
4.75466
20
-3.74144
11
4.76415
21
-3.73186
0
LINE
8
BLACK
6
CONTINUOUS
10
4.76415
20
-3.73186
11
4.77467
21
-3.72342
0
LINE
8
BLACK
6
CONTINUOUS
10
4.77467
20
-3.72342
11
4.78609
21
-3.71626
0
LINE
8
BLACK
6
CONTINUOUS
10
4.78609
20
-3.71626
11
4.79826
21
-3.71045
0
LINE
8
BLACK
6
CONTINUOUS
10
4.79826
20
-3.71045
11
4.81102
21
-3.70609
0
LINE
8
BLACK
6
CONTINUOUS
10
4.81102
20
-3.70609
11
4.8242
21
-3.70321
0
LINE
8
BLACK
6
CONTINUOUS
10
4.8242
20
-3.70321
11
4.83761
21
-3.70187
0
LINE
8
BLACK
6
CONTINUOUS
10
4.83761
20
-3.70187
11
4.8511
21
-3.70209
0
LINE
8
BLACK
6
CONTINUOUS
10
4.8511
20
-3.70209
11
4.86447
21
-3.70385
0
LINE
8
BLACK
6
CONTINUOUS
10
4.86447
20
-3.70385
11
4.87755
21
-3.70713
0
LINE
8
BLACK
6
CONTINUOUS
10
4.87755
20
-3.70713
11
4.89016
21
-3.7119
0
LINE
8
BLACK
6
CONTINUOUS
10
4.89016
20
-3.7119
11
4.90214
21
-3.71808
0
LINE
8
BLACK
6
CONTINUOUS
10
4.90214
20
-3.71808
11
4.91333
21
-3.7256
0
LINE
8
BLACK
6
CONTINUOUS
10
4.91333
20
-3.7256
11
4.92359
21
-3.73436
0
LINE
8
BLACK
6
CONTINUOUS
10
4.92359
20
-3.73436
11
4.93277
21
-3.74424
0
LINE
8
BLACK
6
CONTINUOUS
10
4.93277
20
-3.74424
11
4.94075
21
-3.75511
0
LINE
8
BLACK
6
CONTINUOUS
10
4.94075
20
-3.75511
11
4.94743
21
-3.76682
0
LINE
8
BLACK
6
CONTINUOUS
10
4.94743
20
-3.76682
11
4.95272
21
-3.77922
0
LINE
8
BLACK
6
CONTINUOUS
10
4.95272
20
-3.77922
11
4.95655
21
-3.79215
0
LINE
8
BLACK
6
CONTINUOUS
10
4.95655
20
-3.79215
11
4.95887
21
-3.80544
0
LINE
8
BLACK
6
CONTINUOUS
10
4.95887
20
-3.80544
11
4.95965
21
-3.8189
0
LINE
8
BLACK
6
CONTINUOUS
10
4.95965
20
-3.8189
11
4.95941
21
-3.82625
0
LINE
8
BLACK
6
CONTINUOUS
10
4.95941
20
-3.82625
11
4.95779
21
-3.83964
0
LINE
8
BLACK
6
CONTINUOUS
10
4.95779
20
-3.83964
11
4.95465
21
-3.85275
0
LINE
8
BLACK
6
CONTINUOUS
10
4.95465
20
-3.85275
11
4.95001
21
-3.86541
0
LINE
8
BLACK
6
CONTINUOUS
10
4.95001
20
-3.86541
11
4.94395
21
-3.87746
0
LINE
8
BLACK
6
CONTINUOUS
10
4.94395
20
-3.87746
11
4.93655
21
-3.88873
0
LINE
8
BLACK
6
CONTINUOUS
10
4.93655
20
-3.88873
11
4.9279
21
-3.89908
0
LINE
8
BLACK
6
CONTINUOUS
10
4.9279
20
-3.89908
11
4.91812
21
-3.90836
0
LINE
8
BLACK
6
CONTINUOUS
10
4.91812
20
-3.90836
11
4.90734
21
-3.91645
0
LINE
8
BLACK
6
CONTINUOUS
10
4.90734
20
-3.91645
11
4.89569
21
-3.92326
0
LINE
8
BLACK
6
CONTINUOUS
10
4.89569
20
-3.92326
11
4.88335
21
-3.92868
0
LINE
8
BLACK
6
CONTINUOUS
10
4.88335
20
-3.92868
11
4.87046
21
-3.93264
0
LINE
8
BLACK
6
CONTINUOUS
10
4.87046
20
-3.93264
11
4.8572
21
-3.9351
0
LINE
8
BLACK
6
CONTINUOUS
10
4.8572
20
-3.9351
11
4.84375
21
-3.93602
0
LINE
8
BLACK
6
CONTINUOUS
10
4.84375
20
-3.93602
11
4.83028
21
-3.93538
0
LINE
8
BLACK
6
CONTINUOUS
10
4.83028
20
-3.93538
11
4.81697
21
-3.9332
0
LINE
8
BLACK
6
CONTINUOUS
10
4.81697
20
-3.9332
11
4.804
21
-3.92951
0
LINE
8
BLACK
6
CONTINUOUS
10
4.804
20
-3.92951
11
4.79154
21
-3.92435
0
LINE
8
BLACK
6
CONTINUOUS
10
4.79154
20
-3.92435
11
4.77976
21
-3.91779
0
LINE
8
BLACK
6
CONTINUOUS
10
4.77976
20
-3.91779
11
4.76881
21
-3.90992
0
LINE
8
BLACK
6
CONTINUOUS
10
4.76881
20
-3.90992
11
4.75884
21
-3.90085
0
LINE
8
BLACK
6
CONTINUOUS
10
4.75884
20
-3.90085
11
4.74997
21
-3.89068
0
LINE
8
BLACK
6
CONTINUOUS
10
4.74997
20
-3.89068
11
4.74233
21
-3.87957
0
LINE
8
BLACK
6
CONTINUOUS
10
4.74233
20
-3.87957
11
4.73602
21
-3.86765
0
LINE
8
BLACK
6
CONTINUOUS
10
4.73602
20
-3.86765
11
4.73113
21
-3.85509
0
LINE
8
BLACK
6
CONTINUOUS
10
4.73113
20
-3.85509
11
4.7277
21
-3.84205
0
LINE
8
BLACK
6
CONTINUOUS
10
4.7277
20
-3.84205
11
4.7258
21
-3.8287
0
LINE
8
BLACK
6
CONTINUOUS
10
4.7258
20
-3.8287
11
4.72545
21
-3.81527
0
LINE
8
BLACK
6
CONTINUOUS
10
4.72545
20
-3.81527
11
4.72545
21
-3.81522
0
LINE
8
BLACK
6
CONTINUOUS
10
4.72545
20
-3.81522
11
4.72665
21
-3.80179
0
LINE
8
BLACK
6
CONTINUOUS
10
4.72944
20
-3.8417
11
4.73281
21
-3.85454
0
LINE
8
BLACK
6
CONTINUOUS
10
4.73281
20
-3.85454
11
4.73764
21
-3.86692
0
LINE
8
BLACK
6
CONTINUOUS
10
4.73764
20
-3.86692
11
4.74385
21
-3.87865
0
LINE
8
BLACK
6
CONTINUOUS
10
4.74385
20
-3.87865
11
4.75137
21
-3.8896
0
LINE
8
BLACK
6
CONTINUOUS
10
4.75137
20
-3.8896
11
4.7601
21
-3.89961
0
LINE
8
BLACK
6
CONTINUOUS
10
4.7601
20
-3.89961
11
4.76993
21
-3.90854
0
LINE
8
BLACK
6
CONTINUOUS
10
4.76993
20
-3.90854
11
4.78071
21
-3.91629
0
LINE
8
BLACK
6
CONTINUOUS
10
4.78071
20
-3.91629
11
4.79231
21
-3.92275
0
LINE
8
BLACK
6
CONTINUOUS
10
4.79231
20
-3.92275
11
4.80458
21
-3.92783
0
LINE
8
BLACK
6
CONTINUOUS
10
4.80458
20
-3.92783
11
4.81736
21
-3.93147
0
LINE
8
BLACK
6
CONTINUOUS
10
4.81736
20
-3.93147
11
4.83046
21
-3.93362
0
LINE
8
BLACK
6
CONTINUOUS
10
4.83046
20
-3.93362
11
4.84373
21
-3.93424
0
LINE
8
BLACK
6
CONTINUOUS
10
4.84373
20
-3.93424
11
4.85698
21
-3.93334
0
LINE
8
BLACK
6
CONTINUOUS
10
4.85698
20
-3.93334
11
4.87004
21
-3.93092
0
LINE
8
BLACK
6
CONTINUOUS
10
4.87004
20
-3.93092
11
4.88273
21
-3.92702
0
LINE
8
BLACK
6
CONTINUOUS
10
4.88273
20
-3.92702
11
4.89489
21
-3.92168
0
LINE
8
BLACK
6
CONTINUOUS
10
4.89489
20
-3.92168
11
4.90635
21
-3.91498
0
LINE
8
BLACK
6
CONTINUOUS
10
4.90635
20
-3.91498
11
4.91697
21
-3.907
0
LINE
8
BLACK
6
CONTINUOUS
10
4.91697
20
-3.907
11
4.92661
21
-3.89786
0
LINE
8
BLACK
6
CONTINUOUS
10
4.92661
20
-3.89786
11
4.93513
21
-3.88767
0
LINE
8
BLACK
6
CONTINUOUS
10
4.93513
20
-3.88767
11
4.94242
21
-3.87657
0
LINE
8
BLACK
6
CONTINUOUS
10
4.94242
20
-3.87657
11
4.94839
21
-3.86471
0
LINE
8
BLACK
6
CONTINUOUS
10
4.94839
20
-3.86471
11
4.95295
21
-3.85224
0
LINE
8
BLACK
6
CONTINUOUS
10
4.95295
20
-3.85224
11
4.95605
21
-3.83932
0
LINE
8
BLACK
6
CONTINUOUS
10
4.95605
20
-3.83932
11
4.95764
21
-3.82614
0
LINE
8
BLACK
6
CONTINUOUS
10
4.95764
20
-3.82614
11
4.95787
21
-3.8189
0
LINE
8
BLACK
6
CONTINUOUS
10
4.95787
20
-3.8189
11
4.95711
21
-3.80564
0
LINE
8
BLACK
6
CONTINUOUS
10
4.95711
20
-3.80564
11
4.95482
21
-3.79256
0
LINE
8
BLACK
6
CONTINUOUS
10
4.95482
20
-3.79256
11
4.95105
21
-3.77982
0
LINE
8
BLACK
6
CONTINUOUS
10
4.95105
20
-3.77982
11
4.94584
21
-3.76761
0
LINE
8
BLACK
6
CONTINUOUS
10
4.94584
20
-3.76761
11
4.93926
21
-3.75607
0
LINE
8
BLACK
6
CONTINUOUS
10
4.93926
20
-3.75607
11
4.9314
21
-3.74537
0
LINE
8
BLACK
6
CONTINUOUS
10
4.9314
20
-3.74537
11
4.92236
21
-3.73564
0
LINE
8
BLACK
6
CONTINUOUS
10
4.92236
20
-3.73564
11
4.91226
21
-3.72702
0
LINE
8
BLACK
6
CONTINUOUS
10
4.91226
20
-3.72702
11
4.90124
21
-3.71961
0
LINE
8
BLACK
6
CONTINUOUS
10
4.90124
20
-3.71961
11
4.88944
21
-3.71352
0
LINE
8
BLACK
6
CONTINUOUS
10
4.88944
20
-3.71352
11
4.87701
21
-3.70882
0
LINE
8
BLACK
6
CONTINUOUS
10
4.87701
20
-3.70882
11
4.86413
21
-3.70559
0
LINE
8
BLACK
6
CONTINUOUS
10
4.86413
20
-3.70559
11
4.85097
21
-3.70385
0
LINE
8
BLACK
6
CONTINUOUS
10
4.85097
20
-3.70385
11
4.83769
21
-3.70365
0
LINE
8
BLACK
6
CONTINUOUS
10
4.83769
20
-3.70365
11
4.82447
21
-3.70497
0
LINE
8
BLACK
6
CONTINUOUS
10
4.82447
20
-3.70497
11
4.8115
21
-3.70779
0
LINE
8
BLACK
6
CONTINUOUS
10
4.8115
20
-3.70779
11
4.79893
21
-3.7121
0
LINE
8
BLACK
6
CONTINUOUS
10
4.79893
20
-3.7121
11
4.78695
21
-3.71781
0
LINE
8
BLACK
6
CONTINUOUS
10
4.78695
20
-3.71781
11
4.7757
21
-3.72487
0
LINE
8
BLACK
6
CONTINUOUS
10
4.7757
20
-3.72487
11
4.76533
21
-3.73317
0
LINE
8
BLACK
6
CONTINUOUS
10
4.76533
20
-3.73317
11
4.75599
21
-3.74261
0
LINE
8
BLACK
6
CONTINUOUS
10
4.75599
20
-3.74261
11
4.7478
21
-3.75306
0
LINE
8
BLACK
6
CONTINUOUS
10
4.7478
20
-3.75306
11
4.74086
21
-3.76439
0
LINE
8
BLACK
6
CONTINUOUS
10
4.74086
20
-3.76439
11
4.73527
21
-3.77643
0
LINE
8
BLACK
6
CONTINUOUS
10
4.73527
20
-3.77643
11
4.7311
21
-3.78904
0
LINE
8
BLACK
6
CONTINUOUS
10
4.7311
20
-3.78904
11
4.7284
21
-3.80205
0
LINE
8
BLACK
6
CONTINUOUS
10
4.7284
20
-3.80205
11
4.72722
21
-3.81527
0
LINE
8
BLACK
6
CONTINUOUS
10
4.72722
20
-3.81527
11
4.72757
21
-3.82855
0
LINE
8
BLACK
6
CONTINUOUS
10
4.72757
20
-3.82855
11
4.72944
21
-3.8417
0
LINE
8
BLACK
6
CONTINUOUS
10
6.63053
20
-2.77161
11
6.63291
21
-2.7641
0
LINE
8
BLACK
6
CONTINUOUS
10
6.63291
20
-2.7641
11
6.6367
21
-2.7572
0
LINE
8
BLACK
6
CONTINUOUS
10
6.6367
20
-2.7572
11
6.64177
21
-2.75117
0
LINE
8
BLACK
6
CONTINUOUS
10
6.64177
20
-2.75117
11
6.6479
21
-2.74623
0
LINE
8
BLACK
6
CONTINUOUS
10
6.6479
20
-2.74623
11
6.65488
21
-2.74258
0
LINE
8
BLACK
6
CONTINUOUS
10
6.65488
20
-2.74258
11
6.66244
21
-2.74036
0
LINE
8
BLACK
6
CONTINUOUS
10
6.66244
20
-2.74036
11
6.67028
21
-2.73965
0
LINE
8
BLACK
6
CONTINUOUS
10
6.67028
20
-2.73965
11
6.67811
21
-2.74047
0
LINE
8
BLACK
6
CONTINUOUS
10
6.67811
20
-2.74047
11
6.68564
21
-2.7428
0
LINE
8
BLACK
6
CONTINUOUS
10
6.68564
20
-2.7428
11
6.69257
21
-2.74654
0
LINE
8
BLACK
6
CONTINUOUS
10
6.69257
20
-2.74654
11
6.69863
21
-2.75156
0
LINE
8
BLACK
6
CONTINUOUS
10
6.69863
20
-2.75156
11
6.70361
21
-2.75767
0
LINE
8
BLACK
6
CONTINUOUS
10
6.70361
20
-2.75767
11
6.70731
21
-2.76462
0
LINE
8
BLACK
6
CONTINUOUS
10
6.70731
20
-2.76462
11
6.70959
21
-2.77216
0
LINE
8
BLACK
6
CONTINUOUS
10
6.70959
20
-2.77216
11
6.71035
21
-2.78
0
LINE
8
BLACK
6
CONTINUOUS
10
6.71035
20
-2.78
11
6.71034
21
-2.78113
0
LINE
8
BLACK
6
CONTINUOUS
10
6.71034
20
-2.78113
11
6.70935
21
-2.78894
0
LINE
8
BLACK
6
CONTINUOUS
10
6.70935
20
-2.78894
11
6.70687
21
-2.79641
0
LINE
8
BLACK
6
CONTINUOUS
10
6.70687
20
-2.79641
11
6.70298
21
-2.80326
0
LINE
8
BLACK
6
CONTINUOUS
10
6.70298
20
-2.80326
11
6.69783
21
-2.80922
0
LINE
8
BLACK
6
CONTINUOUS
10
6.69783
20
-2.80922
11
6.69162
21
-2.81407
0
LINE
8
BLACK
6
CONTINUOUS
10
6.69162
20
-2.81407
11
6.68459
21
-2.81762
0
LINE
8
BLACK
6
CONTINUOUS
10
6.68459
20
-2.81762
11
6.67701
21
-2.81974
0
LINE
8
BLACK
6
CONTINUOUS
10
6.67701
20
-2.81974
11
6.66915
21
-2.82035
0
LINE
8
BLACK
6
CONTINUOUS
10
6.66915
20
-2.82035
11
6.66133
21
-2.81941
0
LINE
8
BLACK
6
CONTINUOUS
10
6.66133
20
-2.81941
11
6.65384
21
-2.81698
0
LINE
8
BLACK
6
CONTINUOUS
10
6.65384
20
-2.81698
11
6.64697
21
-2.81314
0
LINE
8
BLACK
6
CONTINUOUS
10
6.64697
20
-2.81314
11
6.64097
21
-2.80803
0
LINE
8
BLACK
6
CONTINUOUS
10
6.64097
20
-2.80803
11
6.63608
21
-2.80186
0
LINE
8
BLACK
6
CONTINUOUS
10
6.63608
20
-2.80186
11
6.63248
21
-2.79486
0
LINE
8
BLACK
6
CONTINUOUS
10
6.63248
20
-2.79486
11
6.63031
21
-2.78728
0
LINE
8
BLACK
6
CONTINUOUS
10
6.63031
20
-2.78728
11
6.62965
21
-2.77946
0
LINE
8
BLACK
6
CONTINUOUS
10
6.62965
20
-2.77946
11
6.62965
21
-2.77944
0
LINE
8
BLACK
6
CONTINUOUS
10
6.62965
20
-2.77944
11
6.63053
21
-2.77161
0
LINE
8
BLACK
6
CONTINUOUS
10
6.63414
20
-2.7942
11
6.63758
21
-2.80089
0
LINE
8
BLACK
6
CONTINUOUS
10
6.63758
20
-2.80089
11
6.64225
21
-2.80679
0
LINE
8
BLACK
6
CONTINUOUS
10
6.64225
20
-2.80679
11
6.64799
21
-2.81167
0
LINE
8
BLACK
6
CONTINUOUS
10
6.64799
20
-2.81167
11
6.65456
21
-2.81535
0
LINE
8
BLACK
6
CONTINUOUS
10
6.65456
20
-2.81535
11
6.66172
21
-2.81767
0
LINE
8
BLACK
6
CONTINUOUS
10
6.66172
20
-2.81767
11
6.66919
21
-2.81856
0
LINE
8
BLACK
6
CONTINUOUS
10
6.66919
20
-2.81856
11
6.6767
21
-2.81799
0
LINE
8
BLACK
6
CONTINUOUS
10
6.6767
20
-2.81799
11
6.68395
21
-2.81596
0
LINE
8
BLACK
6
CONTINUOUS
10
6.68395
20
-2.81596
11
6.69067
21
-2.81257
0
LINE
8
BLACK
6
CONTINUOUS
10
6.69067
20
-2.81257
11
6.6966
21
-2.80793
0
LINE
8
BLACK
6
CONTINUOUS
10
6.6966
20
-2.80793
11
6.70152
21
-2.80223
0
LINE
8
BLACK
6
CONTINUOUS
10
6.70152
20
-2.80223
11
6.70524
21
-2.79569
0
LINE
8
BLACK
6
CONTINUOUS
10
6.70524
20
-2.79569
11
6.70761
21
-2.78855
0
LINE
8
BLACK
6
CONTINUOUS
10
6.70761
20
-2.78855
11
6.70856
21
-2.78108
0
LINE
8
BLACK
6
CONTINUOUS
10
6.70856
20
-2.78108
11
6.70857
21
-2.78
0
LINE
8
BLACK
6
CONTINUOUS
10
6.70857
20
-2.78
11
6.70784
21
-2.77251
0
LINE
8
BLACK
6
CONTINUOUS
10
6.70784
20
-2.77251
11
6.70566
21
-2.7653
0
LINE
8
BLACK
6
CONTINUOUS
10
6.70566
20
-2.7653
11
6.70213
21
-2.75865
0
LINE
8
BLACK
6
CONTINUOUS
10
6.70213
20
-2.75865
11
6.69737
21
-2.75282
0
LINE
8
BLACK
6
CONTINUOUS
10
6.69737
20
-2.75282
11
6.69157
21
-2.74802
0
LINE
8
BLACK
6
CONTINUOUS
10
6.69157
20
-2.74802
11
6.68495
21
-2.74444
0
LINE
8
BLACK
6
CONTINUOUS
10
6.68495
20
-2.74444
11
6.67776
21
-2.74222
0
LINE
8
BLACK
6
CONTINUOUS
10
6.67776
20
-2.74222
11
6.67027
21
-2.74143
0
LINE
8
BLACK
6
CONTINUOUS
10
6.67027
20
-2.74143
11
6.66277
21
-2.74211
0
LINE
8
BLACK
6
CONTINUOUS
10
6.66277
20
-2.74211
11
6.65555
21
-2.74424
0
LINE
8
BLACK
6
CONTINUOUS
10
6.65555
20
-2.74424
11
6.64888
21
-2.74772
0
LINE
8
BLACK
6
CONTINUOUS
10
6.64888
20
-2.74772
11
6.64301
21
-2.75244
0
LINE
8
BLACK
6
CONTINUOUS
10
6.64301
20
-2.75244
11
6.63817
21
-2.75821
0
LINE
8
BLACK
6
CONTINUOUS
10
6.63817
20
-2.75821
11
6.63455
21
-2.76481
0
LINE
8
BLACK
6
CONTINUOUS
10
6.63455
20
-2.76481
11
6.63227
21
-2.77198
0
LINE
8
BLACK
6
CONTINUOUS
10
6.63227
20
-2.77198
11
6.63143
21
-2.77946
0
LINE
8
BLACK
6
CONTINUOUS
10
6.63143
20
-2.77946
11
6.63206
21
-2.78696
0
LINE
8
BLACK
6
CONTINUOUS
10
6.63206
20
-2.78696
11
6.63414
21
-2.7942
0
LINE
8
BLACK
6
CONTINUOUS
10
5.07853
20
-2.75061
11
5.08091
21
-2.7431
0
LINE
8
BLACK
6
CONTINUOUS
10
5.08091
20
-2.7431
11
5.0847
21
-2.7362
0
LINE
8
BLACK
6
CONTINUOUS
10
5.0847
20
-2.7362
11
5.08977
21
-2.73017
0
LINE
8
BLACK
6
CONTINUOUS
10
5.08977
20
-2.73017
11
5.0959
21
-2.72523
0
LINE
8
BLACK
6
CONTINUOUS
10
5.0959
20
-2.72523
11
5.10288
21
-2.72158
0
LINE
8
BLACK
6
CONTINUOUS
10
5.10288
20
-2.72158
11
5.11044
21
-2.71936
0
LINE
8
BLACK
6
CONTINUOUS
10
5.11044
20
-2.71936
11
5.11828
21
-2.71865
0
LINE
8
BLACK
6
CONTINUOUS
10
5.11828
20
-2.71865
11
5.12611
21
-2.71947
0
LINE
8
BLACK
6
CONTINUOUS
10
5.12611
20
-2.71947
11
5.13364
21
-2.7218
0
LINE
8
BLACK
6
CONTINUOUS
10
5.13364
20
-2.7218
11
5.14057
21
-2.72554
0
LINE
8
BLACK
6
CONTINUOUS
10
5.14057
20
-2.72554
11
5.14663
21
-2.73056
0
LINE
8
BLACK
6
CONTINUOUS
10
5.14663
20
-2.73056
11
5.15161
21
-2.73667
0
LINE
8
BLACK
6
CONTINUOUS
10
5.15161
20
-2.73667
11
5.15531
21
-2.74362
0
LINE
8
BLACK
6
CONTINUOUS
10
5.15531
20
-2.74362
11
5.15759
21
-2.75116
0
LINE
8
BLACK
6
CONTINUOUS
10
5.15759
20
-2.75116
11
5.15835
21
-2.759
0
LINE
8
BLACK
6
CONTINUOUS
10
5.15835
20
-2.759
11
5.15834
21
-2.76013
0
LINE
8
BLACK
6
CONTINUOUS
10
5.15834
20
-2.76013
11
5.15735
21
-2.76794
0
LINE
8
BLACK
6
CONTINUOUS
10
5.15735
20
-2.76794
11
5.15487
21
-2.77541
0
LINE
8
BLACK
6
CONTINUOUS
10
5.15487
20
-2.77541
11
5.15098
21
-2.78226
0
LINE
8
BLACK
6
CONTINUOUS
10
5.15098
20
-2.78226
11
5.14583
21
-2.78822
0
LINE
8
BLACK
6
CONTINUOUS
10
5.14583
20
-2.78822
11
5.13962
21
-2.79307
0
LINE
8
BLACK
6
CONTINUOUS
10
5.13962
20
-2.79307
11
5.13259
21
-2.79662
0
LINE
8
BLACK
6
CONTINUOUS
10
5.13259
20
-2.79662
11
5.12501
21
-2.79874
0
LINE
8
BLACK
6
CONTINUOUS
10
5.12501
20
-2.79874
11
5.11715
21
-2.79935
0
LINE
8
BLACK
6
CONTINUOUS
10
5.11715
20
-2.79935
11
5.10933
21
-2.79841
0
LINE
8
BLACK
6
CONTINUOUS
10
5.10933
20
-2.79841
11
5.10184
21
-2.79598
0
LINE
8
BLACK
6
CONTINUOUS
10
5.10184
20
-2.79598
11
5.09497
21
-2.79214
0
LINE
8
BLACK
6
CONTINUOUS
10
5.09497
20
-2.79214
11
5.08897
21
-2.78703
0
LINE
8
BLACK
6
CONTINUOUS
10
5.08897
20
-2.78703
11
5.08408
21
-2.78086
0
LINE
8
BLACK
6
CONTINUOUS
10
5.08408
20
-2.78086
11
5.08048
21
-2.77386
0
LINE
8
BLACK
6
CONTINUOUS
10
5.08048
20
-2.77386
11
5.07831
21
-2.76628
0
LINE
8
BLACK
6
CONTINUOUS
10
5.07831
20
-2.76628
11
5.07765
21
-2.75846
0
LINE
8
BLACK
6
CONTINUOUS
10
5.07765
20
-2.75846
11
5.07765
21
-2.75844
0
LINE
8
BLACK
6
CONTINUOUS
10
5.07765
20
-2.75844
11
5.07853
21
-2.75061
0
LINE
8
BLACK
6
CONTINUOUS
10
5.08214
20
-2.7732
11
5.08558
21
-2.77989
0
LINE
8
BLACK
6
CONTINUOUS
10
5.08558
20
-2.77989
11
5.09025
21
-2.78579
0
LINE
8
BLACK
6
CONTINUOUS
10
5.09025
20
-2.78579
11
5.09599
21
-2.79067
0
LINE
8
BLACK
6
CONTINUOUS
10
5.09599
20
-2.79067
11
5.10256
21
-2.79435
0
LINE
8
BLACK
6
CONTINUOUS
10
5.10256
20
-2.79435
11
5.10972
21
-2.79667
0
LINE
8
BLACK
6
CONTINUOUS
10
5.10972
20
-2.79667
11
5.11719
21
-2.79756
0
LINE
8
BLACK
6
CONTINUOUS
10
5.11719
20
-2.79756
11
5.1247
21
-2.79699
0
LINE
8
BLACK
6
CONTINUOUS
10
5.1247
20
-2.79699
11
5.13195
21
-2.79496
0
LINE
8
BLACK
6
CONTINUOUS
10
5.13195
20
-2.79496
11
5.13867
21
-2.79157
0
LINE
8
BLACK
6
CONTINUOUS
10
5.13867
20
-2.79157
11
5.1446
21
-2.78693
0
LINE
8
BLACK
6
CONTINUOUS
10
5.1446
20
-2.78693
11
5.14952
21
-2.78123
0
LINE
8
BLACK
6
CONTINUOUS
10
5.14952
20
-2.78123
11
5.15324
21
-2.77469
0
LINE
8
BLACK
6
CONTINUOUS
10
5.15324
20
-2.77469
11
5.15561
21
-2.76755
0
LINE
8
BLACK
6
CONTINUOUS
10
5.15561
20
-2.76755
11
5.15656
21
-2.76008
0
LINE
8
BLACK
6
CONTINUOUS
10
5.15656
20
-2.76008
11
5.15657
21
-2.759
0
LINE
8
BLACK
6
CONTINUOUS
10
5.15657
20
-2.759
11
5.15584
21
-2.75151
0
LINE
8
BLACK
6
CONTINUOUS
10
5.15584
20
-2.75151
11
5.15366
21
-2.7443
0
LINE
8
BLACK
6
CONTINUOUS
10
5.15366
20
-2.7443
11
5.15013
21
-2.73765
0
LINE
8
BLACK
6
CONTINUOUS
10
5.15013
20
-2.73765
11
5.14537
21
-2.73182
0
LINE
8
BLACK
6
CONTINUOUS
10
5.14537
20
-2.73182
11
5.13957
21
-2.72702
0
LINE
8
BLACK
6
CONTINUOUS
10
5.13957
20
-2.72702
11
5.13295
21
-2.72344
0
LINE
8
BLACK
6
CONTINUOUS
10
5.13295
20
-2.72344
11
5.12576
21
-2.72122
0
LINE
8
BLACK
6
CONTINUOUS
10
5.12576
20
-2.72122
11
5.11827
21
-2.72043
0
LINE
8
BLACK
6
CONTINUOUS
10
5.11827
20
-2.72043
11
5.11077
21
-2.72111
0
LINE
8
BLACK
6
CONTINUOUS
10
5.11077
20
-2.72111
11
5.10355
21
-2.72324
0
LINE
8
BLACK
6
CONTINUOUS
10
5.10355
20
-2.72324
11
5.09688
21
-2.72672
0
LINE
8
BLACK
6
CONTINUOUS
10
5.09688
20
-2.72672
11
5.09101
21
-2.73144
0
LINE
8
BLACK
6
CONTINUOUS
10
5.09101
20
-2.73144
11
5.08617
21
-2.73721
0
LINE
8
BLACK
6
CONTINUOUS
10
5.08617
20
-2.73721
11
5.08255
21
-2.74381
0
LINE
8
BLACK
6
CONTINUOUS
10
5.08255
20
-2.74381
11
5.08027
21
-2.75098
0
LINE
8
BLACK
6
CONTINUOUS
10
5.08027
20
-2.75098
11
5.07943
21
-2.75846
0
LINE
8
BLACK
6
CONTINUOUS
10
5.07943
20
-2.75846
11
5.08006
21
-2.76596
0
LINE
8
BLACK
6
CONTINUOUS
10
5.08006
20
-2.76596
11
5.08214
21
-2.7732
0
LINE
8
BLACK
6
CONTINUOUS
10
4.72665
20
-2.71911
11
4.72938
21
-2.70591
0
LINE
8
BLACK
6
CONTINUOUS
10
4.72938
20
-2.70591
11
4.73362
21
-2.6931
0
LINE
8
BLACK
6
CONTINUOUS
10
4.73362
20
-2.6931
11
4.7393
21
-2.68087
0
LINE
8
BLACK
6
CONTINUOUS
10
4.7393
20
-2.68087
11
4.74634
21
-2.66938
0
LINE
8
BLACK
6
CONTINUOUS
10
4.74634
20
-2.66938
11
4.75466
21
-2.65876
0
LINE
8
BLACK
6
CONTINUOUS
10
4.75466
20
-2.65876
11
4.76415
21
-2.64918
0
LINE
8
BLACK
6
CONTINUOUS
10
4.76415
20
-2.64918
11
4.77467
21
-2.64075
0
LINE
8
BLACK
6
CONTINUOUS
10
4.77467
20
-2.64075
11
4.78609
21
-2.63358
0
LINE
8
BLACK
6
CONTINUOUS
10
4.78609
20
-2.63358
11
4.79826
21
-2.62778
0
LINE
8
BLACK
6
CONTINUOUS
10
4.79826
20
-2.62778
11
4.81102
21
-2.62341
0
LINE
8
BLACK
6
CONTINUOUS
10
4.81102
20
-2.62341
11
4.8242
21
-2.62054
0
LINE
8
BLACK
6
CONTINUOUS
10
4.8242
20
-2.62054
11
4.83761
21
-2.6192
0
LINE
8
BLACK
6
CONTINUOUS
10
4.83761
20
-2.6192
11
4.8511
21
-2.61941
0
LINE
8
BLACK
6
CONTINUOUS
10
4.8511
20
-2.61941
11
4.86447
21
-2.62117
0
LINE
8
BLACK
6
CONTINUOUS
10
4.86447
20
-2.62117
11
4.87755
21
-2.62445
0
LINE
8
BLACK
6
CONTINUOUS
10
4.87755
20
-2.62445
11
4.89016
21
-2.62922
0
LINE
8
BLACK
6
CONTINUOUS
10
4.89016
20
-2.62922
11
4.90214
21
-2.63541
0
LINE
8
BLACK
6
CONTINUOUS
10
4.90214
20
-2.63541
11
4.91333
21
-2.64293
0
LINE
8
BLACK
6
CONTINUOUS
10
4.91333
20
-2.64293
11
4.92359
21
-2.65168
0
LINE
8
BLACK
6
CONTINUOUS
10
4.92359
20
-2.65168
11
4.93277
21
-2.66156
0
LINE
8
BLACK
6
CONTINUOUS
10
4.93277
20
-2.66156
11
4.94075
21
-2.67243
0
LINE
8
BLACK
6
CONTINUOUS
10
4.94075
20
-2.67243
11
4.94743
21
-2.68414
0
LINE
8
BLACK
6
CONTINUOUS
10
4.94743
20
-2.68414
11
4.95272
21
-2.69655
0
LINE
8
BLACK
6
CONTINUOUS
10
4.95272
20
-2.69655
11
4.95655
21
-2.70947
0
LINE
8
BLACK
6
CONTINUOUS
10
4.95655
20
-2.70947
11
4.95887
21
-2.72276
0
LINE
8
BLACK
6
CONTINUOUS
10
4.95887
20
-2.72276
11
4.95965
21
-2.73622
0
LINE
8
BLACK
6
CONTINUOUS
10
4.95965
20
-2.73622
11
4.95941
21
-2.74357
0
LINE
8
BLACK
6
CONTINUOUS
10
4.95941
20
-2.74357
11
4.95779
21
-2.75696
0
LINE
8
BLACK
6
CONTINUOUS
10
4.95779
20
-2.75696
11
4.95465
21
-2.77007
0
LINE
8
BLACK
6
CONTINUOUS
10
4.95465
20
-2.77007
11
4.95001
21
-2.78274
0
LINE
8
BLACK
6
CONTINUOUS
10
4.95001
20
-2.78274
11
4.94395
21
-2.79478
0
LINE
8
BLACK
6
CONTINUOUS
10
4.94395
20
-2.79478
11
4.93655
21
-2.80605
0
LINE
8
BLACK
6
CONTINUOUS
10
4.93655
20
-2.80605
11
4.9279
21
-2.8164
0
LINE
8
BLACK
6
CONTINUOUS
10
4.9279
20
-2.8164
11
4.91812
21
-2.82568
0
LINE
8
BLACK
6
CONTINUOUS
10
4.91812
20
-2.82568
11
4.90734
21
-2.83378
0
LINE
8
BLACK
6
CONTINUOUS
10
4.90734
20
-2.83378
11
4.89569
21
-2.84058
0
LINE
8
BLACK
6
CONTINUOUS
10
4.89569
20
-2.84058
11
4.88335
21
-2.846
0
LINE
8
BLACK
6
CONTINUOUS
10
4.88335
20
-2.846
11
4.87046
21
-2.84997
0
LINE
8
BLACK
6
CONTINUOUS
10
4.87046
20
-2.84997
11
4.8572
21
-2.85242
0
LINE
8
BLACK
6
CONTINUOUS
10
4.8572
20
-2.85242
11
4.84375
21
-2.85334
0
LINE
8
BLACK
6
CONTINUOUS
10
4.84375
20
-2.85334
11
4.83028
21
-2.8527
0
LINE
8
BLACK
6
CONTINUOUS
10
4.83028
20
-2.8527
11
4.81697
21
-2.85053
0
LINE
8
BLACK
6
CONTINUOUS
10
4.81697
20
-2.85053
11
4.804
21
-2.84683
0
LINE
8
BLACK
6
CONTINUOUS
10
4.804
20
-2.84683
11
4.79154
21
-2.84167
0
LINE
8
BLACK
6
CONTINUOUS
10
4.79154
20
-2.84167
11
4.77976
21
-2.83511
0
LINE
8
BLACK
6
CONTINUOUS
10
4.77976
20
-2.83511
11
4.76881
21
-2.82724
0
LINE
8
BLACK
6
CONTINUOUS
10
4.76881
20
-2.82724
11
4.75884
21
-2.81817
0
LINE
8
BLACK
6
CONTINUOUS
10
4.75884
20
-2.81817
11
4.74997
21
-2.80801
0
LINE
8
BLACK
6
CONTINUOUS
10
4.74997
20
-2.80801
11
4.74233
21
-2.79689
0
LINE
8
BLACK
6
CONTINUOUS
10
4.74233
20
-2.79689
11
4.73602
21
-2.78498
0
LINE
8
BLACK
6
CONTINUOUS
10
4.73602
20
-2.78498
11
4.73113
21
-2.77241
0
LINE
8
BLACK
6
CONTINUOUS
10
4.73113
20
-2.77241
11
4.7277
21
-2.75937
0
LINE
8
BLACK
6
CONTINUOUS
10
4.7277
20
-2.75937
11
4.7258
21
-2.74602
0
LINE
8
BLACK
6
CONTINUOUS
10
4.7258
20
-2.74602
11
4.72545
21
-2.7326
0
LINE
8
BLACK
6
CONTINUOUS
10
4.72545
20
-2.7326
11
4.72545
21
-2.73254
0
LINE
8
BLACK
6
CONTINUOUS
10
4.72545
20
-2.73254
11
4.72665
21
-2.71911
0
LINE
8
BLACK
6
CONTINUOUS
10
4.72944
20
-2.75902
11
4.73281
21
-2.77187
0
LINE
8
BLACK
6
CONTINUOUS
10
4.73281
20
-2.77187
11
4.73764
21
-2.78424
0
LINE
8
BLACK
6
CONTINUOUS
10
4.73764
20
-2.78424
11
4.74385
21
-2.79598
0
LINE
8
BLACK
6
CONTINUOUS
10
4.74385
20
-2.79598
11
4.75137
21
-2.80692
0
LINE
8
BLACK
6
CONTINUOUS
10
4.75137
20
-2.80692
11
4.7601
21
-2.81693
0
LINE
8
BLACK
6
CONTINUOUS
10
4.7601
20
-2.81693
11
4.76993
21
-2.82587
0
LINE
8
BLACK
6
CONTINUOUS
10
4.76993
20
-2.82587
11
4.78071
21
-2.83362
0
LINE
8
BLACK
6
CONTINUOUS
10
4.78071
20
-2.83362
11
4.79231
21
-2.84007
0
LINE
8
BLACK
6
CONTINUOUS
10
4.79231
20
-2.84007
11
4.80458
21
-2.84516
0
LINE
8
BLACK
6
CONTINUOUS
10
4.80458
20
-2.84516
11
4.81736
21
-2.8488
0
LINE
8
BLACK
6
CONTINUOUS
10
4.81736
20
-2.8488
11
4.83046
21
-2.85094
0
LINE
8
BLACK
6
CONTINUOUS
10
4.83046
20
-2.85094
11
4.84373
21
-2.85157
0
LINE
8
BLACK
6
CONTINUOUS
10
4.84373
20
-2.85157
11
4.85698
21
-2.85066
0
LINE
8
BLACK
6
CONTINUOUS
10
4.85698
20
-2.85066
11
4.87004
21
-2.84824
0
LINE
8
BLACK
6
CONTINUOUS
10
4.87004
20
-2.84824
11
4.88273
21
-2.84434
0
LINE
8
BLACK
6
CONTINUOUS
10
4.88273
20
-2.84434
11
4.89489
21
-2.839
0
LINE
8
BLACK
6
CONTINUOUS
10
4.89489
20
-2.839
11
4.90635
21
-2.8323
0
LINE
8
BLACK
6
CONTINUOUS
10
4.90635
20
-2.8323
11
4.91697
21
-2.82433
0
LINE
8
BLACK
6
CONTINUOUS
10
4.91697
20
-2.82433
11
4.92661
21
-2.81518
0
LINE
8
BLACK
6
CONTINUOUS
10
4.92661
20
-2.81518
11
4.93513
21
-2.805
0
LINE
8
BLACK
6
CONTINUOUS
10
4.93513
20
-2.805
11
4.94242
21
-2.7939
0
LINE
8
BLACK
6
CONTINUOUS
10
4.94242
20
-2.7939
11
4.94839
21
-2.78203
0
LINE
8
BLACK
6
CONTINUOUS
10
4.94839
20
-2.78203
11
4.95295
21
-2.76956
0
LINE
8
BLACK
6
CONTINUOUS
10
4.95295
20
-2.76956
11
4.95605
21
-2.75665
0
LINE
8
BLACK
6
CONTINUOUS
10
4.95605
20
-2.75665
11
4.95764
21
-2.74346
0
LINE
8
BLACK
6
CONTINUOUS
10
4.95764
20
-2.74346
11
4.95787
21
-2.73622
0
LINE
8
BLACK
6
CONTINUOUS
10
4.95787
20
-2.73622
11
4.95711
21
-2.72296
0
LINE
8
BLACK
6
CONTINUOUS
10
4.95711
20
-2.72296
11
4.95482
21
-2.70988
0
LINE
8
BLACK
6
CONTINUOUS
10
4.95482
20
-2.70988
11
4.95105
21
-2.69715
0
LINE
8
BLACK
6
CONTINUOUS
10
4.95105
20
-2.69715
11
4.94584
21
-2.68493
0
LINE
8
BLACK
6
CONTINUOUS
10
4.94584
20
-2.68493
11
4.93926
21
-2.67339
0
LINE
8
BLACK
6
CONTINUOUS
10
4.93926
20
-2.67339
11
4.9314
21
-2.66269
0
LINE
8
BLACK
6
CONTINUOUS
10
4.9314
20
-2.66269
11
4.92236
21
-2.65296
0
LINE
8
BLACK
6
CONTINUOUS
10
4.92236
20
-2.65296
11
4.91226
21
-2.64434
0
LINE
8
BLACK
6
CONTINUOUS
10
4.91226
20
-2.64434
11
4.90124
21
-2.63693
0
LINE
8
BLACK
6
CONTINUOUS
10
4.90124
20
-2.63693
11
4.88944
21
-2.63084
0
LINE
8
BLACK
6
CONTINUOUS
10
4.88944
20
-2.63084
11
4.87701
21
-2.62615
0
LINE
8
BLACK
6
CONTINUOUS
10
4.87701
20
-2.62615
11
4.86413
21
-2.62291
0
LINE
8
BLACK
6
CONTINUOUS
10
4.86413
20
-2.62291
11
4.85097
21
-2.62118
0
LINE
8
BLACK
6
CONTINUOUS
10
4.85097
20
-2.62118
11
4.83769
21
-2.62097
0
LINE
8
BLACK
6
CONTINUOUS
10
4.83769
20
-2.62097
11
4.82447
21
-2.62229
0
LINE
8
BLACK
6
CONTINUOUS
10
4.82447
20
-2.62229
11
4.8115
21
-2.62512
0
LINE
8
BLACK
6
CONTINUOUS
10
4.8115
20
-2.62512
11
4.79893
21
-2.62942
0
LINE
8
BLACK
6
CONTINUOUS
10
4.79893
20
-2.62942
11
4.78695
21
-2.63514
0
LINE
8
BLACK
6
CONTINUOUS
10
4.78695
20
-2.63514
11
4.7757
21
-2.64219
0
LINE
8
BLACK
6
CONTINUOUS
10
4.7757
20
-2.64219
11
4.76533
21
-2.6505
0
LINE
8
BLACK
6
CONTINUOUS
10
4.76533
20
-2.6505
11
4.75599
21
-2.65994
0
LINE
8
BLACK
6
CONTINUOUS
10
4.75599
20
-2.65994
11
4.7478
21
-2.67039
0
LINE
8
BLACK
6
CONTINUOUS
10
4.7478
20
-2.67039
11
4.74086
21
-2.68171
0
LINE
8
BLACK
6
CONTINUOUS
10
4.74086
20
-2.68171
11
4.73527
21
-2.69376
0
LINE
8
BLACK
6
CONTINUOUS
10
4.73527
20
-2.69376
11
4.7311
21
-2.70636
0
LINE
8
BLACK
6
CONTINUOUS
10
4.7311
20
-2.70636
11
4.7284
21
-2.71937
0
LINE
8
BLACK
6
CONTINUOUS
10
4.7284
20
-2.71937
11
4.72722
21
-2.7326
0
LINE
8
BLACK
6
CONTINUOUS
10
4.72722
20
-2.7326
11
4.72757
21
-2.74587
0
LINE
8
BLACK
6
CONTINUOUS
10
4.72757
20
-2.74587
11
4.72944
21
-2.75902
0
LINE
8
BLACK
6
CONTINUOUS
10
6.85263
20
-2.71911
11
6.85537
21
-2.70591
0
LINE
8
BLACK
6
CONTINUOUS
10
6.85537
20
-2.70591
11
6.8596
21
-2.6931
0
LINE
8
BLACK
6
CONTINUOUS
10
6.8596
20
-2.6931
11
6.86528
21
-2.68087
0
LINE
8
BLACK
6
CONTINUOUS
10
6.86528
20
-2.68087
11
6.87233
21
-2.66938
0
LINE
8
BLACK
6
CONTINUOUS
10
6.87233
20
-2.66938
11
6.88065
21
-2.65876
0
LINE
8
BLACK
6
CONTINUOUS
10
6.88065
20
-2.65876
11
6.89013
21
-2.64918
0
LINE
8
BLACK
6
CONTINUOUS
10
6.89013
20
-2.64918
11
6.90066
21
-2.64075
0
LINE
8
BLACK
6
CONTINUOUS
10
6.90066
20
-2.64075
11
6.91208
21
-2.63358
0
LINE
8
BLACK
6
CONTINUOUS
10
6.91208
20
-2.63358
11
6.92425
21
-2.62778
0
LINE
8
BLACK
6
CONTINUOUS
10
6.92425
20
-2.62778
11
6.93701
21
-2.62341
0
LINE
8
BLACK
6
CONTINUOUS
10
6.93701
20
-2.62341
11
6.95018
21
-2.62054
0
LINE
8
BLACK
6
CONTINUOUS
10
6.95018
20
-2.62054
11
6.9636
21
-2.6192
0
LINE
8
BLACK
6
CONTINUOUS
10
6.9636
20
-2.6192
11
6.97708
21
-2.61941
0
LINE
8
BLACK
6
CONTINUOUS
10
6.97708
20
-2.61941
11
6.99045
21
-2.62117
0
LINE
8
BLACK
6
CONTINUOUS
10
6.99045
20
-2.62117
11
7.00353
21
-2.62445
0
LINE
8
BLACK
6
CONTINUOUS
10
7.00353
20
-2.62445
11
7.01614
21
-2.62922
0
LINE
8
BLACK
6
CONTINUOUS
10
7.01614
20
-2.62922
11
7.02813
21
-2.63541
0
LINE
8
BLACK
6
CONTINUOUS
10
7.02813
20
-2.63541
11
7.03932
21
-2.64293
0
LINE
8
BLACK
6
CONTINUOUS
10
7.03932
20
-2.64293
11
7.04957
21
-2.65168
0
LINE
8
BLACK
6
CONTINUOUS
10
7.04957
20
-2.65168
11
7.05875
21
-2.66156
0
LINE
8
BLACK
6
CONTINUOUS
10
7.05875
20
-2.66156
11
7.06673
21
-2.67243
0
LINE
8
BLACK
6
CONTINUOUS
10
7.06673
20
-2.67243
11
7.07342
21
-2.68414
0
LINE
8
BLACK
6
CONTINUOUS
10
7.07342
20
-2.68414
11
7.07871
21
-2.69655
0
LINE
8
BLACK
6
CONTINUOUS
10
7.07871
20
-2.69655
11
7.08254
21
-2.70947
0
LINE
8
BLACK
6
CONTINUOUS
10
7.08254
20
-2.70947
11
7.08485
21
-2.72276
0
LINE
8
BLACK
6
CONTINUOUS
10
7.08485
20
-2.72276
11
7.08563
21
-2.73622
0
LINE
8
BLACK
6
CONTINUOUS
10
7.08563
20
-2.73622
11
7.0854
21
-2.74357
0
LINE
8
BLACK
6
CONTINUOUS
10
7.0854
20
-2.74357
11
7.08378
21
-2.75696
0
LINE
8
BLACK
6
CONTINUOUS
10
7.08378
20
-2.75696
11
7.08063
21
-2.77007
0
LINE
8
BLACK
6
CONTINUOUS
10
7.08063
20
-2.77007
11
7.076
21
-2.78274
0
LINE
8
BLACK
6
CONTINUOUS
10
7.076
20
-2.78274
11
7.06994
21
-2.79478
0
LINE
8
BLACK
6
CONTINUOUS
10
7.06994
20
-2.79478
11
7.06253
21
-2.80605
0
LINE
8
BLACK
6
CONTINUOUS
10
7.06253
20
-2.80605
11
7.05389
21
-2.8164
0
LINE
8
BLACK
6
CONTINUOUS
10
7.05389
20
-2.8164
11
7.0441
21
-2.82568
0
LINE
8
BLACK
6
CONTINUOUS
10
7.0441
20
-2.82568
11
7.03332
21
-2.83378
0
LINE
8
BLACK
6
CONTINUOUS
10
7.03332
20
-2.83378
11
7.02168
21
-2.84058
0
LINE
8
BLACK
6
CONTINUOUS
10
7.02168
20
-2.84058
11
7.00933
21
-2.846
0
LINE
8
BLACK
6
CONTINUOUS
10
7.00933
20
-2.846
11
6.99644
21
-2.84997
0
LINE
8
BLACK
6
CONTINUOUS
10
6.99644
20
-2.84997
11
6.98318
21
-2.85242
0
LINE
8
BLACK
6
CONTINUOUS
10
6.98318
20
-2.85242
11
6.96973
21
-2.85334
0
LINE
8
BLACK
6
CONTINUOUS
10
6.96973
20
-2.85334
11
6.95626
21
-2.8527
0
LINE
8
BLACK
6
CONTINUOUS
10
6.95626
20
-2.8527
11
6.94295
21
-2.85053
0
LINE
8
BLACK
6
CONTINUOUS
10
6.94295
20
-2.85053
11
6.92999
21
-2.84683
0
LINE
8
BLACK
6
CONTINUOUS
10
6.92999
20
-2.84683
11
6.91753
21
-2.84167
0
LINE
8
BLACK
6
CONTINUOUS
10
6.91753
20
-2.84167
11
6.90574
21
-2.83511
0
LINE
8
BLACK
6
CONTINUOUS
10
6.90574
20
-2.83511
11
6.89479
21
-2.82724
0
LINE
8
BLACK
6
CONTINUOUS
10
6.89479
20
-2.82724
11
6.88482
21
-2.81817
0
LINE
8
BLACK
6
CONTINUOUS
10
6.88482
20
-2.81817
11
6.87596
21
-2.80801
0
LINE
8
BLACK
6
CONTINUOUS
10
6.87596
20
-2.80801
11
6.86832
21
-2.79689
0
LINE
8
BLACK
6
CONTINUOUS
10
6.86832
20
-2.79689
11
6.86201
21
-2.78498
0
LINE
8
BLACK
6
CONTINUOUS
10
6.86201
20
-2.78498
11
6.85711
21
-2.77241
0
LINE
8
BLACK
6
CONTINUOUS
10
6.85711
20
-2.77241
11
6.85369
21
-2.75937
0
LINE
8
BLACK
6
CONTINUOUS
10
6.85369
20
-2.75937
11
6.85179
21
-2.74602
0
LINE
8
BLACK
6
CONTINUOUS
10
6.85179
20
-2.74602
11
6.85144
21
-2.7326
0
LINE
8
BLACK
6
CONTINUOUS
10
6.85144
20
-2.7326
11
6.85144
21
-2.73254
0
LINE
8
BLACK
6
CONTINUOUS
10
6.85144
20
-2.73254
11
6.85263
21
-2.71911
0
LINE
8
BLACK
6
CONTINUOUS
10
6.85543
20
-2.75902
11
6.8588
21
-2.77187
0
LINE
8
BLACK
6
CONTINUOUS
10
6.8588
20
-2.77187
11
6.86362
21
-2.78424
0
LINE
8
BLACK
6
CONTINUOUS
10
6.86362
20
-2.78424
11
6.86984
21
-2.79598
0
LINE
8
BLACK
6
CONTINUOUS
10
6.86984
20
-2.79598
11
6.87736
21
-2.80692
0
LINE
8
BLACK
6
CONTINUOUS
10
6.87736
20
-2.80692
11
6.88609
21
-2.81693
0
LINE
8
BLACK
6
CONTINUOUS
10
6.88609
20
-2.81693
11
6.89591
21
-2.82587
0
LINE
8
BLACK
6
CONTINUOUS
10
6.89591
20
-2.82587
11
6.90669
21
-2.83362
0
LINE
8
BLACK
6
CONTINUOUS
10
6.90669
20
-2.83362
11
6.9183
21
-2.84007
0
LINE
8
BLACK
6
CONTINUOUS
10
6.9183
20
-2.84007
11
6.93057
21
-2.84516
0
LINE
8
BLACK
6
CONTINUOUS
10
6.93057
20
-2.84516
11
6.94334
21
-2.8488
0
LINE
8
BLACK
6
CONTINUOUS
10
6.94334
20
-2.8488
11
6.95645
21
-2.85094
0
LINE
8
BLACK
6
CONTINUOUS
10
6.95645
20
-2.85094
11
6.96971
21
-2.85157
0
LINE
8
BLACK
6
CONTINUOUS
10
6.96971
20
-2.85157
11
6.98296
21
-2.85066
0
LINE
8
BLACK
6
CONTINUOUS
10
6.98296
20
-2.85066
11
6.99602
21
-2.84824
0
LINE
8
BLACK
6
CONTINUOUS
10
6.99602
20
-2.84824
11
7.00871
21
-2.84434
0
LINE
8
BLACK
6
CONTINUOUS
10
7.00871
20
-2.84434
11
7.02087
21
-2.839
0
LINE
8
BLACK
6
CONTINUOUS
10
7.02087
20
-2.839
11
7.03234
21
-2.8323
0
LINE
8
BLACK
6
CONTINUOUS
10
7.03234
20
-2.8323
11
7.04296
21
-2.82433
0
LINE
8
BLACK
6
CONTINUOUS
10
7.04296
20
-2.82433
11
7.05259
21
-2.81518
0
LINE
8
BLACK
6
CONTINUOUS
10
7.05259
20
-2.81518
11
7.06111
21
-2.805
0
LINE
8
BLACK
6
CONTINUOUS
10
7.06111
20
-2.805
11
7.0684
21
-2.7939
0
LINE
8
BLACK
6
CONTINUOUS
10
7.0684
20
-2.7939
11
7.07437
21
-2.78203
0
LINE
8
BLACK
6
CONTINUOUS
10
7.07437
20
-2.78203
11
7.07893
21
-2.76956
0
LINE
8
BLACK
6
CONTINUOUS
10
7.07893
20
-2.76956
11
7.08203
21
-2.75665
0
LINE
8
BLACK
6
CONTINUOUS
10
7.08203
20
-2.75665
11
7.08363
21
-2.74346
0
LINE
8
BLACK
6
CONTINUOUS
10
7.08363
20
-2.74346
11
7.08386
21
-2.73622
0
LINE
8
BLACK
6
CONTINUOUS
10
7.08386
20
-2.73622
11
7.08309
21
-2.72296
0
LINE
8
BLACK
6
CONTINUOUS
10
7.08309
20
-2.72296
11
7.08081
21
-2.70988
0
LINE
8
BLACK
6
CONTINUOUS
10
7.08081
20
-2.70988
11
7.07704
21
-2.69715
0
LINE
8
BLACK
6
CONTINUOUS
10
7.07704
20
-2.69715
11
7.07183
21
-2.68493
0
LINE
8
BLACK
6
CONTINUOUS
10
7.07183
20
-2.68493
11
7.06525
21
-2.67339
0
LINE
8
BLACK
6
CONTINUOUS
10
7.06525
20
-2.67339
11
7.05738
21
-2.66269
0
LINE
8
BLACK
6
CONTINUOUS
10
7.05738
20
-2.66269
11
7.04834
21
-2.65296
0
LINE
8
BLACK
6
CONTINUOUS
10
7.04834
20
-2.65296
11
7.03825
21
-2.64434
0
LINE
8
BLACK
6
CONTINUOUS
10
7.03825
20
-2.64434
11
7.02722
21
-2.63693
0
LINE
8
BLACK
6
CONTINUOUS
10
7.02722
20
-2.63693
11
7.01542
21
-2.63084
0
LINE
8
BLACK
6
CONTINUOUS
10
7.01542
20
-2.63084
11
7.003
21
-2.62615
0
LINE
8
BLACK
6
CONTINUOUS
10
7.003
20
-2.62615
11
6.99012
21
-2.62291
0
LINE
8
BLACK
6
CONTINUOUS
10
6.99012
20
-2.62291
11
6.97695
21
-2.62118
0
LINE
8
BLACK
6
CONTINUOUS
10
6.97695
20
-2.62118
11
6.96367
21
-2.62097
0
LINE
8
BLACK
6
CONTINUOUS
10
6.96367
20
-2.62097
11
6.95046
21
-2.62229
0
LINE
8
BLACK
6
CONTINUOUS
10
6.95046
20
-2.62229
11
6.93748
21
-2.62512
0
LINE
8
BLACK
6
CONTINUOUS
10
6.93748
20
-2.62512
11
6.92492
21
-2.62942
0
LINE
8
BLACK
6
CONTINUOUS
10
6.92492
20
-2.62942
11
6.91293
21
-2.63514
0
LINE
8
BLACK
6
CONTINUOUS
10
6.91293
20
-2.63514
11
6.90168
21
-2.64219
0
LINE
8
BLACK
6
CONTINUOUS
10
6.90168
20
-2.64219
11
6.89132
21
-2.6505
0
LINE
8
BLACK
6
CONTINUOUS
10
6.89132
20
-2.6505
11
6.88198
21
-2.65994
0
LINE
8
BLACK
6
CONTINUOUS
10
6.88198
20
-2.65994
11
6.87378
21
-2.67039
0
LINE
8
BLACK
6
CONTINUOUS
10
6.87378
20
-2.67039
11
6.86684
21
-2.68171
0
LINE
8
BLACK
6
CONTINUOUS
10
6.86684
20
-2.68171
11
6.86125
21
-2.69376
0
LINE
8
BLACK
6
CONTINUOUS
10
6.86125
20
-2.69376
11
6.85708
21
-2.70636
0
LINE
8
BLACK
6
CONTINUOUS
10
6.85708
20
-2.70636
11
6.85439
21
-2.71937
0
LINE
8
BLACK
6
CONTINUOUS
10
6.85439
20
-2.71937
11
6.85321
21
-2.7326
0
LINE
8
BLACK
6
CONTINUOUS
10
6.85321
20
-2.7326
11
6.85356
21
-2.74587
0
LINE
8
BLACK
6
CONTINUOUS
10
6.85356
20
-2.74587
11
6.85543
21
-2.75902
  0
ENDSEC
  0
EOF
