  0
SECTION
  2
HEADER
  9
$ANGBASE
  50
0.0
  9
$ANGDIR
  70
1
  9
$MEASUREMENT
  70
0
  0
ENDSEC
  0
SECTION
  2
TABLES
  0
TABLE
  2
LTYPE
  70
4
  0
LTYPE
  5
40F
  2
CONTINUOUS
  70
0
  3
Solid line
  72
65
  73
0
  40
0.0
  0
LTYPE
  5
410
  2
DASHDOT
 70
0
  3
Dash Dot ____ _ ____ _
 72
65
 73
4
 40
2.0
 49
1.25
 49
-0.25
 49
0.25
 49
-0.25
  0
LTYPE
  5
411
  2
DASHED
 70
0
  3
Dashed __ __ __ __ __
 72
65
 73
2
 40
0.75
 49
0.5
 49
-0.25
  0
LTYPE
  5
43B
  2
DOTTED
 70
0
  3
Dotted .  .  .  .
 72
65
 73
2
 40
0.2
 49
0.0
 49
-0.2
  0
ENDTAB
  0
TABLE
  2
STYLE
  70
4
  0
STYLE
  2
KICAD
  70
0
  40
0
  41
1
  42
1
  50
0
  71
0
  3
isocp.shx
  0
STYLE
  2
KICADB
  70
0
  40
0
  41
1
  42
1
  50
0
  71
0
  3
isocp.shx
  0
STYLE
  2
KICADI
  70
0
  40
0
  41
1
  42
1
  50
15
  71
0
  3
isocp.shx
  0
STYLE
  2
KICADBI
  70
0
  40
0
  41
1
  42
1
  50
15
  71
0
  3
isocp.shx
  0
ENDTAB
  0
TABLE
  2
LAYER
  70
1
  0
LAYER
  2
BLACK
  70
0
  62
7
  6
CONTINUOUS
  0
ENDTAB
  0
ENDSEC
  0
SECTION
  2
ENTITIES
0
LINE
8
BLACK
6
CONTINUOUS
10
5.19414
20
-3.7958
11
5.19733
21
-3.79794
0
LINE
8
BLACK
6
CONTINUOUS
10
5.19733
20
-3.79794
11
5.19946
21
-3.80113
0
LINE
8
BLACK
6
CONTINUOUS
10
5.19946
20
-3.80113
11
5.20021
21
-3.8049
0
LINE
8
BLACK
6
CONTINUOUS
10
5.20021
20
-3.8049
11
5.20021
21
-3.92301
0
LINE
8
BLACK
6
CONTINUOUS
10
5.20021
20
-3.92301
11
5.19946
21
-3.92677
0
LINE
8
BLACK
6
CONTINUOUS
10
5.19946
20
-3.92677
11
5.19733
21
-3.92997
0
LINE
8
BLACK
6
CONTINUOUS
10
5.19733
20
-3.92997
11
5.19414
21
-3.9321
0
LINE
8
BLACK
6
CONTINUOUS
10
5.19414
20
-3.9321
11
5.19037
21
-3.93285
0
LINE
8
BLACK
6
CONTINUOUS
10
5.19037
20
-3.93285
11
5.11163
21
-3.93285
0
LINE
8
BLACK
6
CONTINUOUS
10
5.11163
20
-3.93285
11
5.10786
21
-3.9321
0
LINE
8
BLACK
6
CONTINUOUS
10
5.10786
20
-3.9321
11
5.10467
21
-3.92997
0
LINE
8
BLACK
6
CONTINUOUS
10
5.10467
20
-3.92997
11
5.10254
21
-3.92677
0
LINE
8
BLACK
6
CONTINUOUS
10
5.10254
20
-3.92677
11
5.10179
21
-3.92301
0
LINE
8
BLACK
6
CONTINUOUS
10
5.10179
20
-3.92301
11
5.10179
21
-3.8049
0
LINE
8
BLACK
6
CONTINUOUS
10
5.10179
20
-3.8049
11
5.10254
21
-3.80113
0
LINE
8
BLACK
6
CONTINUOUS
10
5.10254
20
-3.80113
11
5.10467
21
-3.79794
0
LINE
8
BLACK
6
CONTINUOUS
10
5.10467
20
-3.79794
11
5.10786
21
-3.7958
0
LINE
8
BLACK
6
CONTINUOUS
10
5.10786
20
-3.7958
11
5.11163
21
-3.79506
0
LINE
8
BLACK
6
CONTINUOUS
10
5.11163
20
-3.79506
11
5.19037
21
-3.79506
0
LINE
8
BLACK
6
CONTINUOUS
10
5.19037
20
-3.79506
11
5.19414
21
-3.7958
0
LINE
8
BLACK
6
CONTINUOUS
10
6.43837
20
-3.84126
11
6.44157
21
-3.84339
0
LINE
8
BLACK
6
CONTINUOUS
10
6.44157
20
-3.84339
11
6.4437
21
-3.84659
0
LINE
8
BLACK
6
CONTINUOUS
10
6.4437
20
-3.84659
11
6.44445
21
-3.85035
0
LINE
8
BLACK
6
CONTINUOUS
10
6.44445
20
-3.85035
11
6.44445
21
-3.87988
0
LINE
8
BLACK
6
CONTINUOUS
10
6.44445
20
-3.87988
11
6.4437
21
-3.88365
0
LINE
8
BLACK
6
CONTINUOUS
10
6.4437
20
-3.88365
11
6.44157
21
-3.88684
0
LINE
8
BLACK
6
CONTINUOUS
10
6.44157
20
-3.88684
11
6.43837
21
-3.88898
0
LINE
8
BLACK
6
CONTINUOUS
10
6.43837
20
-3.88898
11
6.43461
21
-3.88972
0
LINE
8
BLACK
6
CONTINUOUS
10
6.43461
20
-3.88972
11
6.38539
21
-3.88972
0
LINE
8
BLACK
6
CONTINUOUS
10
6.38539
20
-3.88972
11
6.38163
21
-3.88898
0
LINE
8
BLACK
6
CONTINUOUS
10
6.38163
20
-3.88898
11
6.37843
21
-3.88684
0
LINE
8
BLACK
6
CONTINUOUS
10
6.37843
20
-3.88684
11
6.3763
21
-3.88365
0
LINE
8
BLACK
6
CONTINUOUS
10
6.3763
20
-3.88365
11
6.37555
21
-3.87988
0
LINE
8
BLACK
6
CONTINUOUS
10
6.37555
20
-3.87988
11
6.37555
21
-3.85035
0
LINE
8
BLACK
6
CONTINUOUS
10
6.37555
20
-3.85035
11
6.3763
21
-3.84659
0
LINE
8
BLACK
6
CONTINUOUS
10
6.3763
20
-3.84659
11
6.37843
21
-3.84339
0
LINE
8
BLACK
6
CONTINUOUS
10
6.37843
20
-3.84339
11
6.38163
21
-3.84126
0
LINE
8
BLACK
6
CONTINUOUS
10
6.38163
20
-3.84126
11
6.38539
21
-3.84051
0
LINE
8
BLACK
6
CONTINUOUS
10
6.38539
20
-3.84051
11
6.43461
21
-3.84051
0
LINE
8
BLACK
6
CONTINUOUS
10
6.43461
20
-3.84051
11
6.43837
21
-3.84126
0
LINE
8
BLACK
6
CONTINUOUS
10
6.28163
20
-3.78845
11
6.28475
21
-3.79053
0
LINE
8
BLACK
6
CONTINUOUS
10
6.28475
20
-3.79053
11
6.28683
21
-3.79364
0
LINE
8
BLACK
6
CONTINUOUS
10
6.28683
20
-3.79364
11
6.28756
21
-3.79731
0
LINE
8
BLACK
6
CONTINUOUS
10
6.28756
20
-3.79731
11
6.28756
21
-3.81651
0
LINE
8
BLACK
6
CONTINUOUS
10
6.28756
20
-3.81651
11
6.28683
21
-3.82018
0
LINE
8
BLACK
6
CONTINUOUS
10
6.28683
20
-3.82018
11
6.28475
21
-3.82329
0
LINE
8
BLACK
6
CONTINUOUS
10
6.28475
20
-3.82329
11
6.28163
21
-3.82537
0
LINE
8
BLACK
6
CONTINUOUS
10
6.28163
20
-3.82537
11
6.27796
21
-3.8261
0
LINE
8
BLACK
6
CONTINUOUS
10
6.27796
20
-3.8261
11
6.24204
21
-3.8261
0
LINE
8
BLACK
6
CONTINUOUS
10
6.24204
20
-3.8261
11
6.23836
21
-3.82537
0
LINE
8
BLACK
6
CONTINUOUS
10
6.23836
20
-3.82537
11
6.23525
21
-3.82329
0
LINE
8
BLACK
6
CONTINUOUS
10
6.23525
20
-3.82329
11
6.23317
21
-3.82018
0
LINE
8
BLACK
6
CONTINUOUS
10
6.23317
20
-3.82018
11
6.23244
21
-3.81651
0
LINE
8
BLACK
6
CONTINUOUS
10
6.23244
20
-3.81651
11
6.23244
21
-3.79731
0
LINE
8
BLACK
6
CONTINUOUS
10
6.23244
20
-3.79731
11
6.23317
21
-3.79364
0
LINE
8
BLACK
6
CONTINUOUS
10
6.23317
20
-3.79364
11
6.23525
21
-3.79053
0
LINE
8
BLACK
6
CONTINUOUS
10
6.23525
20
-3.79053
11
6.23836
21
-3.78845
0
LINE
8
BLACK
6
CONTINUOUS
10
6.23836
20
-3.78845
11
6.24204
21
-3.78772
0
LINE
8
BLACK
6
CONTINUOUS
10
6.24204
20
-3.78772
11
6.27796
21
-3.78772
0
LINE
8
BLACK
6
CONTINUOUS
10
6.27796
20
-3.78772
11
6.28163
21
-3.78845
0
LINE
8
BLACK
6
CONTINUOUS
10
6.43837
20
-3.73102
11
6.44157
21
-3.73316
0
LINE
8
BLACK
6
CONTINUOUS
10
6.44157
20
-3.73316
11
6.4437
21
-3.73635
0
LINE
8
BLACK
6
CONTINUOUS
10
6.4437
20
-3.73635
11
6.44445
21
-3.74012
0
LINE
8
BLACK
6
CONTINUOUS
10
6.44445
20
-3.74012
11
6.44445
21
-3.76965
0
LINE
8
BLACK
6
CONTINUOUS
10
6.44445
20
-3.76965
11
6.4437
21
-3.77341
0
LINE
8
BLACK
6
CONTINUOUS
10
6.4437
20
-3.77341
11
6.44157
21
-3.77661
0
LINE
8
BLACK
6
CONTINUOUS
10
6.44157
20
-3.77661
11
6.43837
21
-3.77874
0
LINE
8
BLACK
6
CONTINUOUS
10
6.43837
20
-3.77874
11
6.43461
21
-3.77949
0
LINE
8
BLACK
6
CONTINUOUS
10
6.43461
20
-3.77949
11
6.38539
21
-3.77949
0
LINE
8
BLACK
6
CONTINUOUS
10
6.38539
20
-3.77949
11
6.38163
21
-3.77874
0
LINE
8
BLACK
6
CONTINUOUS
10
6.38163
20
-3.77874
11
6.37843
21
-3.77661
0
LINE
8
BLACK
6
CONTINUOUS
10
6.37843
20
-3.77661
11
6.3763
21
-3.77341
0
LINE
8
BLACK
6
CONTINUOUS
10
6.3763
20
-3.77341
11
6.37555
21
-3.76965
0
LINE
8
BLACK
6
CONTINUOUS
10
6.37555
20
-3.76965
11
6.37555
21
-3.74012
0
LINE
8
BLACK
6
CONTINUOUS
10
6.37555
20
-3.74012
11
6.3763
21
-3.73635
0
LINE
8
BLACK
6
CONTINUOUS
10
6.3763
20
-3.73635
11
6.37843
21
-3.73316
0
LINE
8
BLACK
6
CONTINUOUS
10
6.37843
20
-3.73316
11
6.38163
21
-3.73102
0
LINE
8
BLACK
6
CONTINUOUS
10
6.38163
20
-3.73102
11
6.38539
21
-3.73028
0
LINE
8
BLACK
6
CONTINUOUS
10
6.38539
20
-3.73028
11
6.43461
21
-3.73028
0
LINE
8
BLACK
6
CONTINUOUS
10
6.43461
20
-3.73028
11
6.43837
21
-3.73102
0
LINE
8
BLACK
6
CONTINUOUS
10
6.28163
20
-3.71463
11
6.28475
21
-3.71671
0
LINE
8
BLACK
6
CONTINUOUS
10
6.28475
20
-3.71671
11
6.28683
21
-3.71982
0
LINE
8
BLACK
6
CONTINUOUS
10
6.28683
20
-3.71982
11
6.28756
21
-3.72349
0
LINE
8
BLACK
6
CONTINUOUS
10
6.28756
20
-3.72349
11
6.28756
21
-3.74269
0
LINE
8
BLACK
6
CONTINUOUS
10
6.28756
20
-3.74269
11
6.28683
21
-3.74636
0
LINE
8
BLACK
6
CONTINUOUS
10
6.28683
20
-3.74636
11
6.28475
21
-3.74947
0
LINE
8
BLACK
6
CONTINUOUS
10
6.28475
20
-3.74947
11
6.28163
21
-3.75155
0
LINE
8
BLACK
6
CONTINUOUS
10
6.28163
20
-3.75155
11
6.27796
21
-3.75228
0
LINE
8
BLACK
6
CONTINUOUS
10
6.27796
20
-3.75228
11
6.24204
21
-3.75228
0
LINE
8
BLACK
6
CONTINUOUS
10
6.24204
20
-3.75228
11
6.23836
21
-3.75155
0
LINE
8
BLACK
6
CONTINUOUS
10
6.23836
20
-3.75155
11
6.23525
21
-3.74947
0
LINE
8
BLACK
6
CONTINUOUS
10
6.23525
20
-3.74947
11
6.23317
21
-3.74636
0
LINE
8
BLACK
6
CONTINUOUS
10
6.23317
20
-3.74636
11
6.23244
21
-3.74269
0
LINE
8
BLACK
6
CONTINUOUS
10
6.23244
20
-3.74269
11
6.23244
21
-3.72349
0
LINE
8
BLACK
6
CONTINUOUS
10
6.23244
20
-3.72349
11
6.23317
21
-3.71982
0
LINE
8
BLACK
6
CONTINUOUS
10
6.23317
20
-3.71982
11
6.23525
21
-3.71671
0
LINE
8
BLACK
6
CONTINUOUS
10
6.23525
20
-3.71671
11
6.23836
21
-3.71463
0
LINE
8
BLACK
6
CONTINUOUS
10
6.23836
20
-3.71463
11
6.24204
21
-3.7139
0
LINE
8
BLACK
6
CONTINUOUS
10
6.24204
20
-3.7139
11
6.27796
21
-3.7139
0
LINE
8
BLACK
6
CONTINUOUS
10
6.27796
20
-3.7139
11
6.28163
21
-3.71463
0
LINE
8
BLACK
6
CONTINUOUS
10
5.19414
20
-3.5399
11
5.19733
21
-3.54203
0
LINE
8
BLACK
6
CONTINUOUS
10
5.19733
20
-3.54203
11
5.19946
21
-3.54523
0
LINE
8
BLACK
6
CONTINUOUS
10
5.19946
20
-3.54523
11
5.20021
21
-3.54899
0
LINE
8
BLACK
6
CONTINUOUS
10
5.20021
20
-3.54899
11
5.20021
21
-3.6671
0
LINE
8
BLACK
6
CONTINUOUS
10
5.20021
20
-3.6671
11
5.19946
21
-3.67087
0
LINE
8
BLACK
6
CONTINUOUS
10
5.19946
20
-3.67087
11
5.19733
21
-3.67406
0
LINE
8
BLACK
6
CONTINUOUS
10
5.19733
20
-3.67406
11
5.19414
21
-3.6762
0
LINE
8
BLACK
6
CONTINUOUS
10
5.19414
20
-3.6762
11
5.19037
21
-3.67694
0
LINE
8
BLACK
6
CONTINUOUS
10
5.19037
20
-3.67694
11
5.11163
21
-3.67694
0
LINE
8
BLACK
6
CONTINUOUS
10
5.11163
20
-3.67694
11
5.10786
21
-3.6762
0
LINE
8
BLACK
6
CONTINUOUS
10
5.10786
20
-3.6762
11
5.10467
21
-3.67406
0
LINE
8
BLACK
6
CONTINUOUS
10
5.10467
20
-3.67406
11
5.10254
21
-3.67087
0
LINE
8
BLACK
6
CONTINUOUS
10
5.10254
20
-3.67087
11
5.10179
21
-3.6671
0
LINE
8
BLACK
6
CONTINUOUS
10
5.10179
20
-3.6671
11
5.10179
21
-3.54899
0
LINE
8
BLACK
6
CONTINUOUS
10
5.10179
20
-3.54899
11
5.10254
21
-3.54523
0
LINE
8
BLACK
6
CONTINUOUS
10
5.10254
20
-3.54523
11
5.10467
21
-3.54203
0
LINE
8
BLACK
6
CONTINUOUS
10
5.10467
20
-3.54203
11
5.10786
21
-3.5399
0
LINE
8
BLACK
6
CONTINUOUS
10
5.10786
20
-3.5399
11
5.11163
21
-3.53915
0
LINE
8
BLACK
6
CONTINUOUS
10
5.11163
20
-3.53915
11
5.19037
21
-3.53915
0
LINE
8
BLACK
6
CONTINUOUS
10
5.19037
20
-3.53915
11
5.19414
21
-3.5399
0
LINE
8
BLACK
6
CONTINUOUS
10
4.81888
20
-3.55191
11
4.82199
21
-3.55399
0
LINE
8
BLACK
6
CONTINUOUS
10
4.82199
20
-3.55399
11
4.82407
21
-3.55711
0
LINE
8
BLACK
6
CONTINUOUS
10
4.82407
20
-3.55711
11
4.8248
21
-3.56078
0
LINE
8
BLACK
6
CONTINUOUS
10
4.8248
20
-3.56078
11
4.8248
21
-3.5967
0
LINE
8
BLACK
6
CONTINUOUS
10
4.8248
20
-3.5967
11
4.82407
21
-3.60038
0
LINE
8
BLACK
6
CONTINUOUS
10
4.82407
20
-3.60038
11
4.82199
21
-3.60349
0
LINE
8
BLACK
6
CONTINUOUS
10
4.82199
20
-3.60349
11
4.81888
21
-3.60557
0
LINE
8
BLACK
6
CONTINUOUS
10
4.81888
20
-3.60557
11
4.81521
21
-3.6063
0
LINE
8
BLACK
6
CONTINUOUS
10
4.81521
20
-3.6063
11
4.79601
21
-3.6063
0
LINE
8
BLACK
6
CONTINUOUS
10
4.79601
20
-3.6063
11
4.79234
21
-3.60557
0
LINE
8
BLACK
6
CONTINUOUS
10
4.79234
20
-3.60557
11
4.78923
21
-3.60349
0
LINE
8
BLACK
6
CONTINUOUS
10
4.78923
20
-3.60349
11
4.78715
21
-3.60038
0
LINE
8
BLACK
6
CONTINUOUS
10
4.78715
20
-3.60038
11
4.78642
21
-3.5967
0
LINE
8
BLACK
6
CONTINUOUS
10
4.78642
20
-3.5967
11
4.78642
21
-3.56078
0
LINE
8
BLACK
6
CONTINUOUS
10
4.78642
20
-3.56078
11
4.78715
21
-3.55711
0
LINE
8
BLACK
6
CONTINUOUS
10
4.78715
20
-3.55711
11
4.78923
21
-3.55399
0
LINE
8
BLACK
6
CONTINUOUS
10
4.78923
20
-3.55399
11
4.79234
21
-3.55191
0
LINE
8
BLACK
6
CONTINUOUS
10
4.79234
20
-3.55191
11
4.79601
21
-3.55118
0
LINE
8
BLACK
6
CONTINUOUS
10
4.79601
20
-3.55118
11
4.81521
21
-3.55118
0
LINE
8
BLACK
6
CONTINUOUS
10
4.81521
20
-3.55118
11
4.81888
21
-3.55191
0
LINE
8
BLACK
6
CONTINUOUS
10
4.8927
20
-3.55191
11
4.89581
21
-3.55399
0
LINE
8
BLACK
6
CONTINUOUS
10
4.89581
20
-3.55399
11
4.89789
21
-3.55711
0
LINE
8
BLACK
6
CONTINUOUS
10
4.89789
20
-3.55711
11
4.89862
21
-3.56078
0
LINE
8
BLACK
6
CONTINUOUS
10
4.89862
20
-3.56078
11
4.89862
21
-3.5967
0
LINE
8
BLACK
6
CONTINUOUS
10
4.89862
20
-3.5967
11
4.89789
21
-3.60038
0
LINE
8
BLACK
6
CONTINUOUS
10
4.89789
20
-3.60038
11
4.89581
21
-3.60349
0
LINE
8
BLACK
6
CONTINUOUS
10
4.89581
20
-3.60349
11
4.8927
21
-3.60557
0
LINE
8
BLACK
6
CONTINUOUS
10
4.8927
20
-3.60557
11
4.88903
21
-3.6063
0
LINE
8
BLACK
6
CONTINUOUS
10
4.88903
20
-3.6063
11
4.86983
21
-3.6063
0
LINE
8
BLACK
6
CONTINUOUS
10
4.86983
20
-3.6063
11
4.86616
21
-3.60557
0
LINE
8
BLACK
6
CONTINUOUS
10
4.86616
20
-3.60557
11
4.86305
21
-3.60349
0
LINE
8
BLACK
6
CONTINUOUS
10
4.86305
20
-3.60349
11
4.86097
21
-3.60038
0
LINE
8
BLACK
6
CONTINUOUS
10
4.86097
20
-3.60038
11
4.86024
21
-3.5967
0
LINE
8
BLACK
6
CONTINUOUS
10
4.86024
20
-3.5967
11
4.86024
21
-3.56078
0
LINE
8
BLACK
6
CONTINUOUS
10
4.86024
20
-3.56078
11
4.86097
21
-3.55711
0
LINE
8
BLACK
6
CONTINUOUS
10
4.86097
20
-3.55711
11
4.86305
21
-3.55399
0
LINE
8
BLACK
6
CONTINUOUS
10
4.86305
20
-3.55399
11
4.86616
21
-3.55191
0
LINE
8
BLACK
6
CONTINUOUS
10
4.86616
20
-3.55191
11
4.86983
21
-3.55118
0
LINE
8
BLACK
6
CONTINUOUS
10
4.86983
20
-3.55118
11
4.88903
21
-3.55118
0
LINE
8
BLACK
6
CONTINUOUS
10
4.88903
20
-3.55118
11
4.8927
21
-3.55191
0
LINE
8
BLACK
6
CONTINUOUS
10
6.58636
20
-3.54317
11
6.58947
21
-3.54525
0
LINE
8
BLACK
6
CONTINUOUS
10
6.58947
20
-3.54525
11
6.59155
21
-3.54836
0
LINE
8
BLACK
6
CONTINUOUS
10
6.59155
20
-3.54836
11
6.59228
21
-3.55204
0
LINE
8
BLACK
6
CONTINUOUS
10
6.59228
20
-3.55204
11
6.59228
21
-3.58796
0
LINE
8
BLACK
6
CONTINUOUS
10
6.59228
20
-3.58796
11
6.59155
21
-3.59164
0
LINE
8
BLACK
6
CONTINUOUS
10
6.59155
20
-3.59164
11
6.58947
21
-3.59475
0
LINE
8
BLACK
6
CONTINUOUS
10
6.58947
20
-3.59475
11
6.58636
21
-3.59683
0
LINE
8
BLACK
6
CONTINUOUS
10
6.58636
20
-3.59683
11
6.58269
21
-3.59756
0
LINE
8
BLACK
6
CONTINUOUS
10
6.58269
20
-3.59756
11
6.56349
21
-3.59756
0
LINE
8
BLACK
6
CONTINUOUS
10
6.56349
20
-3.59756
11
6.55982
21
-3.59683
0
LINE
8
BLACK
6
CONTINUOUS
10
6.55982
20
-3.59683
11
6.55671
21
-3.59475
0
LINE
8
BLACK
6
CONTINUOUS
10
6.55671
20
-3.59475
11
6.55463
21
-3.59164
0
LINE
8
BLACK
6
CONTINUOUS
10
6.55463
20
-3.59164
11
6.5539
21
-3.58796
0
LINE
8
BLACK
6
CONTINUOUS
10
6.5539
20
-3.58796
11
6.5539
21
-3.55204
0
LINE
8
BLACK
6
CONTINUOUS
10
6.5539
20
-3.55204
11
6.55463
21
-3.54836
0
LINE
8
BLACK
6
CONTINUOUS
10
6.55463
20
-3.54836
11
6.55671
21
-3.54525
0
LINE
8
BLACK
6
CONTINUOUS
10
6.55671
20
-3.54525
11
6.55982
21
-3.54317
0
LINE
8
BLACK
6
CONTINUOUS
10
6.55982
20
-3.54317
11
6.56349
21
-3.54244
0
LINE
8
BLACK
6
CONTINUOUS
10
6.56349
20
-3.54244
11
6.58269
21
-3.54244
0
LINE
8
BLACK
6
CONTINUOUS
10
6.58269
20
-3.54244
11
6.58636
21
-3.54317
0
LINE
8
BLACK
6
CONTINUOUS
10
6.66018
20
-3.54317
11
6.66329
21
-3.54525
0
LINE
8
BLACK
6
CONTINUOUS
10
6.66329
20
-3.54525
11
6.66537
21
-3.54836
0
LINE
8
BLACK
6
CONTINUOUS
10
6.66537
20
-3.54836
11
6.6661
21
-3.55204
0
LINE
8
BLACK
6
CONTINUOUS
10
6.6661
20
-3.55204
11
6.6661
21
-3.58796
0
LINE
8
BLACK
6
CONTINUOUS
10
6.6661
20
-3.58796
11
6.66537
21
-3.59164
0
LINE
8
BLACK
6
CONTINUOUS
10
6.66537
20
-3.59164
11
6.66329
21
-3.59475
0
LINE
8
BLACK
6
CONTINUOUS
10
6.66329
20
-3.59475
11
6.66018
21
-3.59683
0
LINE
8
BLACK
6
CONTINUOUS
10
6.66018
20
-3.59683
11
6.65651
21
-3.59756
0
LINE
8
BLACK
6
CONTINUOUS
10
6.65651
20
-3.59756
11
6.63731
21
-3.59756
0
LINE
8
BLACK
6
CONTINUOUS
10
6.63731
20
-3.59756
11
6.63364
21
-3.59683
0
LINE
8
BLACK
6
CONTINUOUS
10
6.63364
20
-3.59683
11
6.63053
21
-3.59475
0
LINE
8
BLACK
6
CONTINUOUS
10
6.63053
20
-3.59475
11
6.62845
21
-3.59164
0
LINE
8
BLACK
6
CONTINUOUS
10
6.62845
20
-3.59164
11
6.62772
21
-3.58796
0
LINE
8
BLACK
6
CONTINUOUS
10
6.62772
20
-3.58796
11
6.62772
21
-3.55204
0
LINE
8
BLACK
6
CONTINUOUS
10
6.62772
20
-3.55204
11
6.62845
21
-3.54836
0
LINE
8
BLACK
6
CONTINUOUS
10
6.62845
20
-3.54836
11
6.63053
21
-3.54525
0
LINE
8
BLACK
6
CONTINUOUS
10
6.63053
20
-3.54525
11
6.63364
21
-3.54317
0
LINE
8
BLACK
6
CONTINUOUS
10
6.63364
20
-3.54317
11
6.63731
21
-3.54244
0
LINE
8
BLACK
6
CONTINUOUS
10
6.63731
20
-3.54244
11
6.65651
21
-3.54244
0
LINE
8
BLACK
6
CONTINUOUS
10
6.65651
20
-3.54244
11
6.66018
21
-3.54317
0
LINE
8
BLACK
6
CONTINUOUS
10
6.07508
20
-3.57882
11
6.05343
21
-3.57882
0
LINE
8
BLACK
6
CONTINUOUS
10
6.05343
20
-3.57882
11
6.05343
21
-3.51583
0
LINE
8
BLACK
6
CONTINUOUS
10
6.05343
20
-3.51583
11
6.07508
21
-3.51583
0
LINE
8
BLACK
6
CONTINUOUS
10
6.07508
20
-3.51583
11
6.07508
21
-3.57882
0
LINE
8
BLACK
6
CONTINUOUS
10
6.10657
20
-3.57882
11
6.08492
21
-3.57882
0
LINE
8
BLACK
6
CONTINUOUS
10
6.08492
20
-3.57882
11
6.08492
21
-3.51583
0
LINE
8
BLACK
6
CONTINUOUS
10
6.08492
20
-3.51583
11
6.10657
21
-3.51583
0
LINE
8
BLACK
6
CONTINUOUS
10
6.10657
20
-3.51583
11
6.10657
21
-3.57882
0
LINE
8
BLACK
6
CONTINUOUS
10
6.13807
20
-3.57882
11
6.11642
21
-3.57882
0
LINE
8
BLACK
6
CONTINUOUS
10
6.11642
20
-3.57882
11
6.11642
21
-3.51583
0
LINE
8
BLACK
6
CONTINUOUS
10
6.11642
20
-3.51583
11
6.13807
21
-3.51583
0
LINE
8
BLACK
6
CONTINUOUS
10
6.13807
20
-3.51583
11
6.13807
21
-3.57882
0
LINE
8
BLACK
6
CONTINUOUS
10
6.16957
20
-3.57882
11
6.14791
21
-3.57882
0
LINE
8
BLACK
6
CONTINUOUS
10
6.14791
20
-3.57882
11
6.14791
21
-3.51583
0
LINE
8
BLACK
6
CONTINUOUS
10
6.14791
20
-3.51583
11
6.16957
21
-3.51583
0
LINE
8
BLACK
6
CONTINUOUS
10
6.16957
20
-3.51583
11
6.16957
21
-3.57882
0
LINE
8
BLACK
6
CONTINUOUS
10
6.20106
20
-3.57882
11
6.17941
21
-3.57882
0
LINE
8
BLACK
6
CONTINUOUS
10
6.17941
20
-3.57882
11
6.17941
21
-3.51583
0
LINE
8
BLACK
6
CONTINUOUS
10
6.17941
20
-3.51583
11
6.20106
21
-3.51583
0
LINE
8
BLACK
6
CONTINUOUS
10
6.20106
20
-3.51583
11
6.20106
21
-3.57882
0
LINE
8
BLACK
6
CONTINUOUS
10
6.01209
20
-3.57882
11
5.99043
21
-3.57882
0
LINE
8
BLACK
6
CONTINUOUS
10
5.99043
20
-3.57882
11
5.99043
21
-3.51583
0
LINE
8
BLACK
6
CONTINUOUS
10
5.99043
20
-3.51583
11
6.01209
21
-3.51583
0
LINE
8
BLACK
6
CONTINUOUS
10
6.01209
20
-3.51583
11
6.01209
21
-3.57882
0
LINE
8
BLACK
6
CONTINUOUS
10
5.98059
20
-3.57882
11
5.95894
21
-3.57882
0
LINE
8
BLACK
6
CONTINUOUS
10
5.95894
20
-3.57882
11
5.95894
21
-3.51583
0
LINE
8
BLACK
6
CONTINUOUS
10
5.95894
20
-3.51583
11
5.98059
21
-3.51583
0
LINE
8
BLACK
6
CONTINUOUS
10
5.98059
20
-3.51583
11
5.98059
21
-3.57882
0
LINE
8
BLACK
6
CONTINUOUS
10
6.04358
20
-3.57882
11
6.02193
21
-3.57882
0
LINE
8
BLACK
6
CONTINUOUS
10
6.02193
20
-3.57882
11
6.02193
21
-3.51583
0
LINE
8
BLACK
6
CONTINUOUS
10
6.02193
20
-3.51583
11
6.04358
21
-3.51583
0
LINE
8
BLACK
6
CONTINUOUS
10
6.04358
20
-3.51583
11
6.04358
21
-3.57882
0
LINE
8
BLACK
6
CONTINUOUS
10
6.45163
20
-3.52845
11
6.45475
21
-3.53053
0
LINE
8
BLACK
6
CONTINUOUS
10
6.45475
20
-3.53053
11
6.45683
21
-3.53364
0
LINE
8
BLACK
6
CONTINUOUS
10
6.45683
20
-3.53364
11
6.45756
21
-3.53731
0
LINE
8
BLACK
6
CONTINUOUS
10
6.45756
20
-3.53731
11
6.45756
21
-3.55651
0
LINE
8
BLACK
6
CONTINUOUS
10
6.45756
20
-3.55651
11
6.45683
21
-3.56018
0
LINE
8
BLACK
6
CONTINUOUS
10
6.45683
20
-3.56018
11
6.45475
21
-3.56329
0
LINE
8
BLACK
6
CONTINUOUS
10
6.45475
20
-3.56329
11
6.45163
21
-3.56537
0
LINE
8
BLACK
6
CONTINUOUS
10
6.45163
20
-3.56537
11
6.44796
21
-3.5661
0
LINE
8
BLACK
6
CONTINUOUS
10
6.44796
20
-3.5661
11
6.41204
21
-3.5661
0
LINE
8
BLACK
6
CONTINUOUS
10
6.41204
20
-3.5661
11
6.40836
21
-3.56537
0
LINE
8
BLACK
6
CONTINUOUS
10
6.40836
20
-3.56537
11
6.40525
21
-3.56329
0
LINE
8
BLACK
6
CONTINUOUS
10
6.40525
20
-3.56329
11
6.40317
21
-3.56018
0
LINE
8
BLACK
6
CONTINUOUS
10
6.40317
20
-3.56018
11
6.40244
21
-3.55651
0
LINE
8
BLACK
6
CONTINUOUS
10
6.40244
20
-3.55651
11
6.40244
21
-3.53731
0
LINE
8
BLACK
6
CONTINUOUS
10
6.40244
20
-3.53731
11
6.40317
21
-3.53364
0
LINE
8
BLACK
6
CONTINUOUS
10
6.40317
20
-3.53364
11
6.40525
21
-3.53053
0
LINE
8
BLACK
6
CONTINUOUS
10
6.40525
20
-3.53053
11
6.40836
21
-3.52845
0
LINE
8
BLACK
6
CONTINUOUS
10
6.40836
20
-3.52845
11
6.41204
21
-3.52772
0
LINE
8
BLACK
6
CONTINUOUS
10
6.41204
20
-3.52772
11
6.44796
21
-3.52772
0
LINE
8
BLACK
6
CONTINUOUS
10
6.44796
20
-3.52772
11
6.45163
21
-3.52845
0
LINE
8
BLACK
6
CONTINUOUS
10
5.94417
20
-3.50106
11
5.88118
21
-3.50106
0
LINE
8
BLACK
6
CONTINUOUS
10
5.88118
20
-3.50106
11
5.88118
21
-3.47941
0
LINE
8
BLACK
6
CONTINUOUS
10
5.88118
20
-3.47941
11
5.94417
21
-3.47941
0
LINE
8
BLACK
6
CONTINUOUS
10
5.94417
20
-3.47941
11
5.94417
21
-3.50106
0
LINE
8
BLACK
6
CONTINUOUS
10
6.27882
20
-3.50106
11
6.21583
21
-3.50106
0
LINE
8
BLACK
6
CONTINUOUS
10
6.21583
20
-3.50106
11
6.21583
21
-3.47941
0
LINE
8
BLACK
6
CONTINUOUS
10
6.21583
20
-3.47941
11
6.27882
21
-3.47941
0
LINE
8
BLACK
6
CONTINUOUS
10
6.27882
20
-3.47941
11
6.27882
21
-3.50106
0
LINE
8
BLACK
6
CONTINUOUS
10
6.45163
20
-3.45463
11
6.45475
21
-3.45671
0
LINE
8
BLACK
6
CONTINUOUS
10
6.45475
20
-3.45671
11
6.45683
21
-3.45982
0
LINE
8
BLACK
6
CONTINUOUS
10
6.45683
20
-3.45982
11
6.45756
21
-3.46349
0
LINE
8
BLACK
6
CONTINUOUS
10
6.45756
20
-3.46349
11
6.45756
21
-3.48269
0
LINE
8
BLACK
6
CONTINUOUS
10
6.45756
20
-3.48269
11
6.45683
21
-3.48636
0
LINE
8
BLACK
6
CONTINUOUS
10
6.45683
20
-3.48636
11
6.45475
21
-3.48947
0
LINE
8
BLACK
6
CONTINUOUS
10
6.45475
20
-3.48947
11
6.45163
21
-3.49155
0
LINE
8
BLACK
6
CONTINUOUS
10
6.45163
20
-3.49155
11
6.44796
21
-3.49228
0
LINE
8
BLACK
6
CONTINUOUS
10
6.44796
20
-3.49228
11
6.41204
21
-3.49228
0
LINE
8
BLACK
6
CONTINUOUS
10
6.41204
20
-3.49228
11
6.40836
21
-3.49155
0
LINE
8
BLACK
6
CONTINUOUS
10
6.40836
20
-3.49155
11
6.40525
21
-3.48947
0
LINE
8
BLACK
6
CONTINUOUS
10
6.40525
20
-3.48947
11
6.40317
21
-3.48636
0
LINE
8
BLACK
6
CONTINUOUS
10
6.40317
20
-3.48636
11
6.40244
21
-3.48269
0
LINE
8
BLACK
6
CONTINUOUS
10
6.40244
20
-3.48269
11
6.40244
21
-3.46349
0
LINE
8
BLACK
6
CONTINUOUS
10
6.40244
20
-3.46349
11
6.40317
21
-3.45982
0
LINE
8
BLACK
6
CONTINUOUS
10
6.40317
20
-3.45982
11
6.40525
21
-3.45671
0
LINE
8
BLACK
6
CONTINUOUS
10
6.40525
20
-3.45671
11
6.40836
21
-3.45463
0
LINE
8
BLACK
6
CONTINUOUS
10
6.40836
20
-3.45463
11
6.41204
21
-3.4539
0
LINE
8
BLACK
6
CONTINUOUS
10
6.41204
20
-3.4539
11
6.44796
21
-3.4539
0
LINE
8
BLACK
6
CONTINUOUS
10
6.44796
20
-3.4539
11
6.45163
21
-3.45463
0
LINE
8
BLACK
6
CONTINUOUS
10
6.72338
20
-3.45343
11
6.72618
21
-3.4553
0
LINE
8
BLACK
6
CONTINUOUS
10
6.72618
20
-3.4553
11
6.72805
21
-3.45809
0
LINE
8
BLACK
6
CONTINUOUS
10
6.72805
20
-3.45809
11
6.7287
21
-3.46139
0
LINE
8
BLACK
6
CONTINUOUS
10
6.7287
20
-3.46139
11
6.7287
21
-3.47861
0
LINE
8
BLACK
6
CONTINUOUS
10
6.7287
20
-3.47861
11
6.72805
21
-3.48191
0
LINE
8
BLACK
6
CONTINUOUS
10
6.72805
20
-3.48191
11
6.72618
21
-3.4847
0
LINE
8
BLACK
6
CONTINUOUS
10
6.72618
20
-3.4847
11
6.72338
21
-3.48657
0
LINE
8
BLACK
6
CONTINUOUS
10
6.72338
20
-3.48657
11
6.72009
21
-3.48722
0
LINE
8
BLACK
6
CONTINUOUS
10
6.72009
20
-3.48722
11
6.69991
21
-3.48722
0
LINE
8
BLACK
6
CONTINUOUS
10
6.69991
20
-3.48722
11
6.69662
21
-3.48657
0
LINE
8
BLACK
6
CONTINUOUS
10
6.69662
20
-3.48657
11
6.69382
21
-3.4847
0
LINE
8
BLACK
6
CONTINUOUS
10
6.69382
20
-3.4847
11
6.69195
21
-3.48191
0
LINE
8
BLACK
6
CONTINUOUS
10
6.69195
20
-3.48191
11
6.6913
21
-3.47861
0
LINE
8
BLACK
6
CONTINUOUS
10
6.6913
20
-3.47861
11
6.6913
21
-3.46139
0
LINE
8
BLACK
6
CONTINUOUS
10
6.6913
20
-3.46139
11
6.69195
21
-3.45809
0
LINE
8
BLACK
6
CONTINUOUS
10
6.69195
20
-3.45809
11
6.69382
21
-3.4553
0
LINE
8
BLACK
6
CONTINUOUS
10
6.69382
20
-3.4553
11
6.69662
21
-3.45343
0
LINE
8
BLACK
6
CONTINUOUS
10
6.69662
20
-3.45343
11
6.69991
21
-3.45278
0
LINE
8
BLACK
6
CONTINUOUS
10
6.69991
20
-3.45278
11
6.72009
21
-3.45278
0
LINE
8
BLACK
6
CONTINUOUS
10
6.72009
20
-3.45278
11
6.72338
21
-3.45343
0
LINE
8
BLACK
6
CONTINUOUS
10
5.12205
20
-3.47244
11
5.04331
21
-3.47244
0
LINE
8
BLACK
6
CONTINUOUS
10
5.04331
20
-3.47244
11
5.04331
21
-3.35433
0
LINE
8
BLACK
6
CONTINUOUS
10
5.04331
20
-3.35433
11
5.12205
21
-3.35433
0
LINE
8
BLACK
6
CONTINUOUS
10
5.12205
20
-3.35433
11
5.12205
21
-3.47244
0
LINE
8
BLACK
6
CONTINUOUS
10
4.88583
20
-3.47244
11
4.80709
21
-3.47244
0
LINE
8
BLACK
6
CONTINUOUS
10
4.80709
20
-3.47244
11
4.80709
21
-3.35433
0
LINE
8
BLACK
6
CONTINUOUS
10
4.80709
20
-3.35433
11
4.88583
21
-3.35433
0
LINE
8
BLACK
6
CONTINUOUS
10
4.88583
20
-3.35433
11
4.88583
21
-3.47244
0
LINE
8
BLACK
6
CONTINUOUS
10
6.27882
20
-3.46957
11
6.21583
21
-3.46957
0
LINE
8
BLACK
6
CONTINUOUS
10
6.21583
20
-3.46957
11
6.21583
21
-3.44791
0
LINE
8
BLACK
6
CONTINUOUS
10
6.21583
20
-3.44791
11
6.27882
21
-3.44791
0
LINE
8
BLACK
6
CONTINUOUS
10
6.27882
20
-3.44791
11
6.27882
21
-3.46957
0
LINE
8
BLACK
6
CONTINUOUS
10
5.94417
20
-3.46957
11
5.88118
21
-3.46957
0
LINE
8
BLACK
6
CONTINUOUS
10
5.88118
20
-3.46957
11
5.88118
21
-3.44791
0
LINE
8
BLACK
6
CONTINUOUS
10
5.88118
20
-3.44791
11
5.94417
21
-3.44791
0
LINE
8
BLACK
6
CONTINUOUS
10
5.94417
20
-3.44791
11
5.94417
21
-3.46957
0
LINE
8
BLACK
6
CONTINUOUS
10
6.27882
20
-3.43807
11
6.21583
21
-3.43807
0
LINE
8
BLACK
6
CONTINUOUS
10
6.21583
20
-3.43807
11
6.21583
21
-3.41642
0
LINE
8
BLACK
6
CONTINUOUS
10
6.21583
20
-3.41642
11
6.27882
21
-3.41642
0
LINE
8
BLACK
6
CONTINUOUS
10
6.27882
20
-3.41642
11
6.27882
21
-3.43807
0
LINE
8
BLACK
6
CONTINUOUS
10
5.94417
20
-3.43807
11
5.88118
21
-3.43807
0
LINE
8
BLACK
6
CONTINUOUS
10
5.88118
20
-3.43807
11
5.88118
21
-3.41642
0
LINE
8
BLACK
6
CONTINUOUS
10
5.88118
20
-3.41642
11
5.94417
21
-3.41642
0
LINE
8
BLACK
6
CONTINUOUS
10
5.94417
20
-3.41642
11
5.94417
21
-3.43807
0
LINE
8
BLACK
6
CONTINUOUS
10
6.72338
20
-3.39142
11
6.72618
21
-3.39329
0
LINE
8
BLACK
6
CONTINUOUS
10
6.72618
20
-3.39329
11
6.72805
21
-3.39608
0
LINE
8
BLACK
6
CONTINUOUS
10
6.72805
20
-3.39608
11
6.7287
21
-3.39938
0
LINE
8
BLACK
6
CONTINUOUS
10
6.7287
20
-3.39938
11
6.7287
21
-3.4166
0
LINE
8
BLACK
6
CONTINUOUS
10
6.7287
20
-3.4166
11
6.72805
21
-3.4199
0
LINE
8
BLACK
6
CONTINUOUS
10
6.72805
20
-3.4199
11
6.72618
21
-3.42269
0
LINE
8
BLACK
6
CONTINUOUS
10
6.72618
20
-3.42269
11
6.72338
21
-3.42456
0
LINE
8
BLACK
6
CONTINUOUS
10
6.72338
20
-3.42456
11
6.72009
21
-3.42522
0
LINE
8
BLACK
6
CONTINUOUS
10
6.72009
20
-3.42522
11
6.69991
21
-3.42522
0
LINE
8
BLACK
6
CONTINUOUS
10
6.69991
20
-3.42522
11
6.69662
21
-3.42456
0
LINE
8
BLACK
6
CONTINUOUS
10
6.69662
20
-3.42456
11
6.69382
21
-3.42269
0
LINE
8
BLACK
6
CONTINUOUS
10
6.69382
20
-3.42269
11
6.69195
21
-3.4199
0
LINE
8
BLACK
6
CONTINUOUS
10
6.69195
20
-3.4199
11
6.6913
21
-3.4166
0
LINE
8
BLACK
6
CONTINUOUS
10
6.6913
20
-3.4166
11
6.6913
21
-3.39938
0
LINE
8
BLACK
6
CONTINUOUS
10
6.6913
20
-3.39938
11
6.69195
21
-3.39608
0
LINE
8
BLACK
6
CONTINUOUS
10
6.69195
20
-3.39608
11
6.69382
21
-3.39329
0
LINE
8
BLACK
6
CONTINUOUS
10
6.69382
20
-3.39329
11
6.69662
21
-3.39142
0
LINE
8
BLACK
6
CONTINUOUS
10
6.69662
20
-3.39142
11
6.69991
21
-3.39077
0
LINE
8
BLACK
6
CONTINUOUS
10
6.69991
20
-3.39077
11
6.72009
21
-3.39077
0
LINE
8
BLACK
6
CONTINUOUS
10
6.72009
20
-3.39077
11
6.72338
21
-3.39142
0
LINE
8
BLACK
6
CONTINUOUS
10
6.60018
20
-3.36317
11
6.60329
21
-3.36525
0
LINE
8
BLACK
6
CONTINUOUS
10
6.60329
20
-3.36525
11
6.60537
21
-3.36836
0
LINE
8
BLACK
6
CONTINUOUS
10
6.60537
20
-3.36836
11
6.6061
21
-3.37204
0
LINE
8
BLACK
6
CONTINUOUS
10
6.6061
20
-3.37204
11
6.6061
21
-3.40796
0
LINE
8
BLACK
6
CONTINUOUS
10
6.6061
20
-3.40796
11
6.60537
21
-3.41163
0
LINE
8
BLACK
6
CONTINUOUS
10
6.60537
20
-3.41163
11
6.60329
21
-3.41475
0
LINE
8
BLACK
6
CONTINUOUS
10
6.60329
20
-3.41475
11
6.60018
21
-3.41683
0
LINE
8
BLACK
6
CONTINUOUS
10
6.60018
20
-3.41683
11
6.59651
21
-3.41756
0
LINE
8
BLACK
6
CONTINUOUS
10
6.59651
20
-3.41756
11
6.57731
21
-3.41756
0
LINE
8
BLACK
6
CONTINUOUS
10
6.57731
20
-3.41756
11
6.57364
21
-3.41683
0
LINE
8
BLACK
6
CONTINUOUS
10
6.57364
20
-3.41683
11
6.57053
21
-3.41475
0
LINE
8
BLACK
6
CONTINUOUS
10
6.57053
20
-3.41475
11
6.56845
21
-3.41163
0
LINE
8
BLACK
6
CONTINUOUS
10
6.56845
20
-3.41163
11
6.56772
21
-3.40796
0
LINE
8
BLACK
6
CONTINUOUS
10
6.56772
20
-3.40796
11
6.56772
21
-3.37204
0
LINE
8
BLACK
6
CONTINUOUS
10
6.56772
20
-3.37204
11
6.56845
21
-3.36836
0
LINE
8
BLACK
6
CONTINUOUS
10
6.56845
20
-3.36836
11
6.57053
21
-3.36525
0
LINE
8
BLACK
6
CONTINUOUS
10
6.57053
20
-3.36525
11
6.57364
21
-3.36317
0
LINE
8
BLACK
6
CONTINUOUS
10
6.57364
20
-3.36317
11
6.57731
21
-3.36244
0
LINE
8
BLACK
6
CONTINUOUS
10
6.57731
20
-3.36244
11
6.59651
21
-3.36244
0
LINE
8
BLACK
6
CONTINUOUS
10
6.59651
20
-3.36244
11
6.60018
21
-3.36317
0
LINE
8
BLACK
6
CONTINUOUS
10
6.52636
20
-3.36317
11
6.52947
21
-3.36525
0
LINE
8
BLACK
6
CONTINUOUS
10
6.52947
20
-3.36525
11
6.53155
21
-3.36836
0
LINE
8
BLACK
6
CONTINUOUS
10
6.53155
20
-3.36836
11
6.53228
21
-3.37204
0
LINE
8
BLACK
6
CONTINUOUS
10
6.53228
20
-3.37204
11
6.53228
21
-3.40796
0
LINE
8
BLACK
6
CONTINUOUS
10
6.53228
20
-3.40796
11
6.53155
21
-3.41163
0
LINE
8
BLACK
6
CONTINUOUS
10
6.53155
20
-3.41163
11
6.52947
21
-3.41475
0
LINE
8
BLACK
6
CONTINUOUS
10
6.52947
20
-3.41475
11
6.52636
21
-3.41683
0
LINE
8
BLACK
6
CONTINUOUS
10
6.52636
20
-3.41683
11
6.52269
21
-3.41756
0
LINE
8
BLACK
6
CONTINUOUS
10
6.52269
20
-3.41756
11
6.50349
21
-3.41756
0
LINE
8
BLACK
6
CONTINUOUS
10
6.50349
20
-3.41756
11
6.49982
21
-3.41683
0
LINE
8
BLACK
6
CONTINUOUS
10
6.49982
20
-3.41683
11
6.49671
21
-3.41475
0
LINE
8
BLACK
6
CONTINUOUS
10
6.49671
20
-3.41475
11
6.49463
21
-3.41163
0
LINE
8
BLACK
6
CONTINUOUS
10
6.49463
20
-3.41163
11
6.4939
21
-3.40796
0
LINE
8
BLACK
6
CONTINUOUS
10
6.4939
20
-3.40796
11
6.4939
21
-3.37204
0
LINE
8
BLACK
6
CONTINUOUS
10
6.4939
20
-3.37204
11
6.49463
21
-3.36836
0
LINE
8
BLACK
6
CONTINUOUS
10
6.49463
20
-3.36836
11
6.49671
21
-3.36525
0
LINE
8
BLACK
6
CONTINUOUS
10
6.49671
20
-3.36525
11
6.49982
21
-3.36317
0
LINE
8
BLACK
6
CONTINUOUS
10
6.49982
20
-3.36317
11
6.50349
21
-3.36244
0
LINE
8
BLACK
6
CONTINUOUS
10
6.50349
20
-3.36244
11
6.52269
21
-3.36244
0
LINE
8
BLACK
6
CONTINUOUS
10
6.52269
20
-3.36244
11
6.52636
21
-3.36317
0
LINE
8
BLACK
6
CONTINUOUS
10
6.27882
20
-3.40657
11
6.21583
21
-3.40657
0
LINE
8
BLACK
6
CONTINUOUS
10
6.21583
20
-3.40657
11
6.21583
21
-3.38492
0
LINE
8
BLACK
6
CONTINUOUS
10
6.21583
20
-3.38492
11
6.27882
21
-3.38492
0
LINE
8
BLACK
6
CONTINUOUS
10
6.27882
20
-3.38492
11
6.27882
21
-3.40657
0
LINE
8
BLACK
6
CONTINUOUS
10
5.94417
20
-3.40657
11
5.88118
21
-3.40657
0
LINE
8
BLACK
6
CONTINUOUS
10
5.88118
20
-3.40657
11
5.88118
21
-3.38492
0
LINE
8
BLACK
6
CONTINUOUS
10
5.88118
20
-3.38492
11
5.94417
21
-3.38492
0
LINE
8
BLACK
6
CONTINUOUS
10
5.94417
20
-3.38492
11
5.94417
21
-3.40657
0
LINE
8
BLACK
6
CONTINUOUS
10
5.94417
20
-3.37508
11
5.88118
21
-3.37508
0
LINE
8
BLACK
6
CONTINUOUS
10
5.88118
20
-3.37508
11
5.88118
21
-3.35343
0
LINE
8
BLACK
6
CONTINUOUS
10
5.88118
20
-3.35343
11
5.94417
21
-3.35343
0
LINE
8
BLACK
6
CONTINUOUS
10
5.94417
20
-3.35343
11
5.94417
21
-3.37508
0
LINE
8
BLACK
6
CONTINUOUS
10
6.27882
20
-3.37508
11
6.21583
21
-3.37508
0
LINE
8
BLACK
6
CONTINUOUS
10
6.21583
20
-3.37508
11
6.21583
21
-3.35343
0
LINE
8
BLACK
6
CONTINUOUS
10
6.21583
20
-3.35343
11
6.27882
21
-3.35343
0
LINE
8
BLACK
6
CONTINUOUS
10
6.27882
20
-3.35343
11
6.27882
21
-3.37508
0
LINE
8
BLACK
6
CONTINUOUS
10
5.94417
20
-3.34358
11
5.88118
21
-3.34358
0
LINE
8
BLACK
6
CONTINUOUS
10
5.88118
20
-3.34358
11
5.88118
21
-3.32193
0
LINE
8
BLACK
6
CONTINUOUS
10
5.88118
20
-3.32193
11
5.94417
21
-3.32193
0
LINE
8
BLACK
6
CONTINUOUS
10
5.94417
20
-3.32193
11
5.94417
21
-3.34358
0
LINE
8
BLACK
6
CONTINUOUS
10
6.27882
20
-3.34358
11
6.21583
21
-3.34358
0
LINE
8
BLACK
6
CONTINUOUS
10
6.21583
20
-3.34358
11
6.21583
21
-3.32193
0
LINE
8
BLACK
6
CONTINUOUS
10
6.21583
20
-3.32193
11
6.27882
21
-3.32193
0
LINE
8
BLACK
6
CONTINUOUS
10
6.27882
20
-3.32193
11
6.27882
21
-3.34358
0
LINE
8
BLACK
6
CONTINUOUS
10
6.52636
20
-3.27317
11
6.52947
21
-3.27525
0
LINE
8
BLACK
6
CONTINUOUS
10
6.52947
20
-3.27525
11
6.53155
21
-3.27836
0
LINE
8
BLACK
6
CONTINUOUS
10
6.53155
20
-3.27836
11
6.53228
21
-3.28204
0
LINE
8
BLACK
6
CONTINUOUS
10
6.53228
20
-3.28204
11
6.53228
21
-3.31796
0
LINE
8
BLACK
6
CONTINUOUS
10
6.53228
20
-3.31796
11
6.53155
21
-3.32164
0
LINE
8
BLACK
6
CONTINUOUS
10
6.53155
20
-3.32164
11
6.52947
21
-3.32475
0
LINE
8
BLACK
6
CONTINUOUS
10
6.52947
20
-3.32475
11
6.52636
21
-3.32683
0
LINE
8
BLACK
6
CONTINUOUS
10
6.52636
20
-3.32683
11
6.52269
21
-3.32756
0
LINE
8
BLACK
6
CONTINUOUS
10
6.52269
20
-3.32756
11
6.50349
21
-3.32756
0
LINE
8
BLACK
6
CONTINUOUS
10
6.50349
20
-3.32756
11
6.49982
21
-3.32683
0
LINE
8
BLACK
6
CONTINUOUS
10
6.49982
20
-3.32683
11
6.49671
21
-3.32475
0
LINE
8
BLACK
6
CONTINUOUS
10
6.49671
20
-3.32475
11
6.49463
21
-3.32164
0
LINE
8
BLACK
6
CONTINUOUS
10
6.49463
20
-3.32164
11
6.4939
21
-3.31796
0
LINE
8
BLACK
6
CONTINUOUS
10
6.4939
20
-3.31796
11
6.4939
21
-3.28204
0
LINE
8
BLACK
6
CONTINUOUS
10
6.4939
20
-3.28204
11
6.49463
21
-3.27836
0
LINE
8
BLACK
6
CONTINUOUS
10
6.49463
20
-3.27836
11
6.49671
21
-3.27525
0
LINE
8
BLACK
6
CONTINUOUS
10
6.49671
20
-3.27525
11
6.49982
21
-3.27317
0
LINE
8
BLACK
6
CONTINUOUS
10
6.49982
20
-3.27317
11
6.50349
21
-3.27244
0
LINE
8
BLACK
6
CONTINUOUS
10
6.50349
20
-3.27244
11
6.52269
21
-3.27244
0
LINE
8
BLACK
6
CONTINUOUS
10
6.52269
20
-3.27244
11
6.52636
21
-3.27317
0
LINE
8
BLACK
6
CONTINUOUS
10
6.60018
20
-3.27317
11
6.60329
21
-3.27525
0
LINE
8
BLACK
6
CONTINUOUS
10
6.60329
20
-3.27525
11
6.60537
21
-3.27836
0
LINE
8
BLACK
6
CONTINUOUS
10
6.60537
20
-3.27836
11
6.6061
21
-3.28204
0
LINE
8
BLACK
6
CONTINUOUS
10
6.6061
20
-3.28204
11
6.6061
21
-3.31796
0
LINE
8
BLACK
6
CONTINUOUS
10
6.6061
20
-3.31796
11
6.60537
21
-3.32164
0
LINE
8
BLACK
6
CONTINUOUS
10
6.60537
20
-3.32164
11
6.60329
21
-3.32475
0
LINE
8
BLACK
6
CONTINUOUS
10
6.60329
20
-3.32475
11
6.60018
21
-3.32683
0
LINE
8
BLACK
6
CONTINUOUS
10
6.60018
20
-3.32683
11
6.59651
21
-3.32756
0
LINE
8
BLACK
6
CONTINUOUS
10
6.59651
20
-3.32756
11
6.57731
21
-3.32756
0
LINE
8
BLACK
6
CONTINUOUS
10
6.57731
20
-3.32756
11
6.57364
21
-3.32683
0
LINE
8
BLACK
6
CONTINUOUS
10
6.57364
20
-3.32683
11
6.57053
21
-3.32475
0
LINE
8
BLACK
6
CONTINUOUS
10
6.57053
20
-3.32475
11
6.56845
21
-3.32164
0
LINE
8
BLACK
6
CONTINUOUS
10
6.56845
20
-3.32164
11
6.56772
21
-3.31796
0
LINE
8
BLACK
6
CONTINUOUS
10
6.56772
20
-3.31796
11
6.56772
21
-3.28204
0
LINE
8
BLACK
6
CONTINUOUS
10
6.56772
20
-3.28204
11
6.56845
21
-3.27836
0
LINE
8
BLACK
6
CONTINUOUS
10
6.56845
20
-3.27836
11
6.57053
21
-3.27525
0
LINE
8
BLACK
6
CONTINUOUS
10
6.57053
20
-3.27525
11
6.57364
21
-3.27317
0
LINE
8
BLACK
6
CONTINUOUS
10
6.57364
20
-3.27317
11
6.57731
21
-3.27244
0
LINE
8
BLACK
6
CONTINUOUS
10
6.57731
20
-3.27244
11
6.59651
21
-3.27244
0
LINE
8
BLACK
6
CONTINUOUS
10
6.59651
20
-3.27244
11
6.60018
21
-3.27317
0
LINE
8
BLACK
6
CONTINUOUS
10
5.72063
20
-3.27845
11
5.72375
21
-3.28053
0
LINE
8
BLACK
6
CONTINUOUS
10
5.72375
20
-3.28053
11
5.72583
21
-3.28364
0
LINE
8
BLACK
6
CONTINUOUS
10
5.72583
20
-3.28364
11
5.72656
21
-3.28731
0
LINE
8
BLACK
6
CONTINUOUS
10
5.72656
20
-3.28731
11
5.72656
21
-3.30651
0
LINE
8
BLACK
6
CONTINUOUS
10
5.72656
20
-3.30651
11
5.72583
21
-3.31018
0
LINE
8
BLACK
6
CONTINUOUS
10
5.72583
20
-3.31018
11
5.72375
21
-3.31329
0
LINE
8
BLACK
6
CONTINUOUS
10
5.72375
20
-3.31329
11
5.72063
21
-3.31537
0
LINE
8
BLACK
6
CONTINUOUS
10
5.72063
20
-3.31537
11
5.71696
21
-3.3161
0
LINE
8
BLACK
6
CONTINUOUS
10
5.71696
20
-3.3161
11
5.68104
21
-3.3161
0
LINE
8
BLACK
6
CONTINUOUS
10
5.68104
20
-3.3161
11
5.67736
21
-3.31537
0
LINE
8
BLACK
6
CONTINUOUS
10
5.67736
20
-3.31537
11
5.67425
21
-3.31329
0
LINE
8
BLACK
6
CONTINUOUS
10
5.67425
20
-3.31329
11
5.67217
21
-3.31018
0
LINE
8
BLACK
6
CONTINUOUS
10
5.67217
20
-3.31018
11
5.67144
21
-3.30651
0
LINE
8
BLACK
6
CONTINUOUS
10
5.67144
20
-3.30651
11
5.67144
21
-3.28731
0
LINE
8
BLACK
6
CONTINUOUS
10
5.67144
20
-3.28731
11
5.67217
21
-3.28364
0
LINE
8
BLACK
6
CONTINUOUS
10
5.67217
20
-3.28364
11
5.67425
21
-3.28053
0
LINE
8
BLACK
6
CONTINUOUS
10
5.67425
20
-3.28053
11
5.67736
21
-3.27845
0
LINE
8
BLACK
6
CONTINUOUS
10
5.67736
20
-3.27845
11
5.68104
21
-3.27772
0
LINE
8
BLACK
6
CONTINUOUS
10
5.68104
20
-3.27772
11
5.71696
21
-3.27772
0
LINE
8
BLACK
6
CONTINUOUS
10
5.71696
20
-3.27772
11
5.72063
21
-3.27845
0
LINE
8
BLACK
6
CONTINUOUS
10
6.27882
20
-3.31209
11
6.21583
21
-3.31209
0
LINE
8
BLACK
6
CONTINUOUS
10
6.21583
20
-3.31209
11
6.21583
21
-3.29043
0
LINE
8
BLACK
6
CONTINUOUS
10
6.21583
20
-3.29043
11
6.27882
21
-3.29043
0
LINE
8
BLACK
6
CONTINUOUS
10
6.27882
20
-3.29043
11
6.27882
21
-3.31209
0
LINE
8
BLACK
6
CONTINUOUS
10
5.94417
20
-3.31209
11
5.88118
21
-3.31209
0
LINE
8
BLACK
6
CONTINUOUS
10
5.88118
20
-3.31209
11
5.88118
21
-3.29043
0
LINE
8
BLACK
6
CONTINUOUS
10
5.88118
20
-3.29043
11
5.94417
21
-3.29043
0
LINE
8
BLACK
6
CONTINUOUS
10
5.94417
20
-3.29043
11
5.94417
21
-3.31209
0
LINE
8
BLACK
6
CONTINUOUS
10
6.72338
20
-3.25544
11
6.72618
21
-3.2573
0
LINE
8
BLACK
6
CONTINUOUS
10
6.72618
20
-3.2573
11
6.72805
21
-3.2601
0
LINE
8
BLACK
6
CONTINUOUS
10
6.72805
20
-3.2601
11
6.7287
21
-3.26339
0
LINE
8
BLACK
6
CONTINUOUS
10
6.7287
20
-3.26339
11
6.7287
21
-3.28062
0
LINE
8
BLACK
6
CONTINUOUS
10
6.7287
20
-3.28062
11
6.72805
21
-3.28391
0
LINE
8
BLACK
6
CONTINUOUS
10
6.72805
20
-3.28391
11
6.72618
21
-3.28671
0
LINE
8
BLACK
6
CONTINUOUS
10
6.72618
20
-3.28671
11
6.72338
21
-3.28857
0
LINE
8
BLACK
6
CONTINUOUS
10
6.72338
20
-3.28857
11
6.72009
21
-3.28923
0
LINE
8
BLACK
6
CONTINUOUS
10
6.72009
20
-3.28923
11
6.69991
21
-3.28923
0
LINE
8
BLACK
6
CONTINUOUS
10
6.69991
20
-3.28923
11
6.69662
21
-3.28857
0
LINE
8
BLACK
6
CONTINUOUS
10
6.69662
20
-3.28857
11
6.69382
21
-3.28671
0
LINE
8
BLACK
6
CONTINUOUS
10
6.69382
20
-3.28671
11
6.69195
21
-3.28391
0
LINE
8
BLACK
6
CONTINUOUS
10
6.69195
20
-3.28391
11
6.6913
21
-3.28062
0
LINE
8
BLACK
6
CONTINUOUS
10
6.6913
20
-3.28062
11
6.6913
21
-3.26339
0
LINE
8
BLACK
6
CONTINUOUS
10
6.6913
20
-3.26339
11
6.69195
21
-3.2601
0
LINE
8
BLACK
6
CONTINUOUS
10
6.69195
20
-3.2601
11
6.69382
21
-3.2573
0
LINE
8
BLACK
6
CONTINUOUS
10
6.69382
20
-3.2573
11
6.69662
21
-3.25544
0
LINE
8
BLACK
6
CONTINUOUS
10
6.69662
20
-3.25544
11
6.69991
21
-3.25478
0
LINE
8
BLACK
6
CONTINUOUS
10
6.69991
20
-3.25478
11
6.72009
21
-3.25478
0
LINE
8
BLACK
6
CONTINUOUS
10
6.72009
20
-3.25478
11
6.72338
21
-3.25544
0
LINE
8
BLACK
6
CONTINUOUS
10
6.41463
20
-3.24945
11
6.41775
21
-3.25153
0
LINE
8
BLACK
6
CONTINUOUS
10
6.41775
20
-3.25153
11
6.41983
21
-3.25464
0
LINE
8
BLACK
6
CONTINUOUS
10
6.41983
20
-3.25464
11
6.42056
21
-3.25831
0
LINE
8
BLACK
6
CONTINUOUS
10
6.42056
20
-3.25831
11
6.42056
21
-3.27751
0
LINE
8
BLACK
6
CONTINUOUS
10
6.42056
20
-3.27751
11
6.41983
21
-3.28118
0
LINE
8
BLACK
6
CONTINUOUS
10
6.41983
20
-3.28118
11
6.41775
21
-3.28429
0
LINE
8
BLACK
6
CONTINUOUS
10
6.41775
20
-3.28429
11
6.41463
21
-3.28637
0
LINE
8
BLACK
6
CONTINUOUS
10
6.41463
20
-3.28637
11
6.41096
21
-3.2871
0
LINE
8
BLACK
6
CONTINUOUS
10
6.41096
20
-3.2871
11
6.37504
21
-3.2871
0
LINE
8
BLACK
6
CONTINUOUS
10
6.37504
20
-3.2871
11
6.37136
21
-3.28637
0
LINE
8
BLACK
6
CONTINUOUS
10
6.37136
20
-3.28637
11
6.36825
21
-3.28429
0
LINE
8
BLACK
6
CONTINUOUS
10
6.36825
20
-3.28429
11
6.36617
21
-3.28118
0
LINE
8
BLACK
6
CONTINUOUS
10
6.36617
20
-3.28118
11
6.36544
21
-3.27751
0
LINE
8
BLACK
6
CONTINUOUS
10
6.36544
20
-3.27751
11
6.36544
21
-3.25831
0
LINE
8
BLACK
6
CONTINUOUS
10
6.36544
20
-3.25831
11
6.36617
21
-3.25464
0
LINE
8
BLACK
6
CONTINUOUS
10
6.36617
20
-3.25464
11
6.36825
21
-3.25153
0
LINE
8
BLACK
6
CONTINUOUS
10
6.36825
20
-3.25153
11
6.37136
21
-3.24945
0
LINE
8
BLACK
6
CONTINUOUS
10
6.37136
20
-3.24945
11
6.37504
21
-3.24872
0
LINE
8
BLACK
6
CONTINUOUS
10
6.37504
20
-3.24872
11
6.41096
21
-3.24872
0
LINE
8
BLACK
6
CONTINUOUS
10
6.41096
20
-3.24872
11
6.41463
21
-3.24945
0
LINE
8
BLACK
6
CONTINUOUS
10
5.94417
20
-3.28059
11
5.88118
21
-3.28059
0
LINE
8
BLACK
6
CONTINUOUS
10
5.88118
20
-3.28059
11
5.88118
21
-3.25894
0
LINE
8
BLACK
6
CONTINUOUS
10
5.88118
20
-3.25894
11
5.94417
21
-3.25894
0
LINE
8
BLACK
6
CONTINUOUS
10
5.94417
20
-3.25894
11
5.94417
21
-3.28059
0
LINE
8
BLACK
6
CONTINUOUS
10
6.27882
20
-3.28059
11
6.21583
21
-3.28059
0
LINE
8
BLACK
6
CONTINUOUS
10
6.21583
20
-3.28059
11
6.21583
21
-3.25894
0
LINE
8
BLACK
6
CONTINUOUS
10
6.21583
20
-3.25894
11
6.27882
21
-3.25894
0
LINE
8
BLACK
6
CONTINUOUS
10
6.27882
20
-3.25894
11
6.27882
21
-3.28059
0
LINE
8
BLACK
6
CONTINUOUS
10
6.20106
20
-3.24417
11
6.17941
21
-3.24417
0
LINE
8
BLACK
6
CONTINUOUS
10
6.17941
20
-3.24417
11
6.17941
21
-3.18118
0
LINE
8
BLACK
6
CONTINUOUS
10
6.17941
20
-3.18118
11
6.20106
21
-3.18118
0
LINE
8
BLACK
6
CONTINUOUS
10
6.20106
20
-3.18118
11
6.20106
21
-3.24417
0
LINE
8
BLACK
6
CONTINUOUS
10
6.16957
20
-3.24417
11
6.14791
21
-3.24417
0
LINE
8
BLACK
6
CONTINUOUS
10
6.14791
20
-3.24417
11
6.14791
21
-3.18118
0
LINE
8
BLACK
6
CONTINUOUS
10
6.14791
20
-3.18118
11
6.16957
21
-3.18118
0
LINE
8
BLACK
6
CONTINUOUS
10
6.16957
20
-3.18118
11
6.16957
21
-3.24417
0
LINE
8
BLACK
6
CONTINUOUS
10
6.13807
20
-3.24417
11
6.11642
21
-3.24417
0
LINE
8
BLACK
6
CONTINUOUS
10
6.11642
20
-3.24417
11
6.11642
21
-3.18118
0
LINE
8
BLACK
6
CONTINUOUS
10
6.11642
20
-3.18118
11
6.13807
21
-3.18118
0
LINE
8
BLACK
6
CONTINUOUS
10
6.13807
20
-3.18118
11
6.13807
21
-3.24417
0
LINE
8
BLACK
6
CONTINUOUS
10
6.10657
20
-3.24417
11
6.08492
21
-3.24417
0
LINE
8
BLACK
6
CONTINUOUS
10
6.08492
20
-3.24417
11
6.08492
21
-3.18118
0
LINE
8
BLACK
6
CONTINUOUS
10
6.08492
20
-3.18118
11
6.10657
21
-3.18118
0
LINE
8
BLACK
6
CONTINUOUS
10
6.10657
20
-3.18118
11
6.10657
21
-3.24417
0
LINE
8
BLACK
6
CONTINUOUS
10
6.07508
20
-3.24417
11
6.05343
21
-3.24417
0
LINE
8
BLACK
6
CONTINUOUS
10
6.05343
20
-3.24417
11
6.05343
21
-3.18118
0
LINE
8
BLACK
6
CONTINUOUS
10
6.05343
20
-3.18118
11
6.07508
21
-3.18118
0
LINE
8
BLACK
6
CONTINUOUS
10
6.07508
20
-3.18118
11
6.07508
21
-3.24417
0
LINE
8
BLACK
6
CONTINUOUS
10
6.04358
20
-3.24417
11
6.02193
21
-3.24417
0
LINE
8
BLACK
6
CONTINUOUS
10
6.02193
20
-3.24417
11
6.02193
21
-3.18118
0
LINE
8
BLACK
6
CONTINUOUS
10
6.02193
20
-3.18118
11
6.04358
21
-3.18118
0
LINE
8
BLACK
6
CONTINUOUS
10
6.04358
20
-3.18118
11
6.04358
21
-3.24417
0
LINE
8
BLACK
6
CONTINUOUS
10
6.01209
20
-3.24417
11
5.99043
21
-3.24417
0
LINE
8
BLACK
6
CONTINUOUS
10
5.99043
20
-3.24417
11
5.99043
21
-3.18118
0
LINE
8
BLACK
6
CONTINUOUS
10
5.99043
20
-3.18118
11
6.01209
21
-3.18118
0
LINE
8
BLACK
6
CONTINUOUS
10
6.01209
20
-3.18118
11
6.01209
21
-3.24417
0
LINE
8
BLACK
6
CONTINUOUS
10
5.98059
20
-3.24417
11
5.95894
21
-3.24417
0
LINE
8
BLACK
6
CONTINUOUS
10
5.95894
20
-3.24417
11
5.95894
21
-3.18118
0
LINE
8
BLACK
6
CONTINUOUS
10
5.95894
20
-3.18118
11
5.98059
21
-3.18118
0
LINE
8
BLACK
6
CONTINUOUS
10
5.98059
20
-3.18118
11
5.98059
21
-3.24417
0
LINE
8
BLACK
6
CONTINUOUS
10
5.72063
20
-3.20463
11
5.72375
21
-3.20671
0
LINE
8
BLACK
6
CONTINUOUS
10
5.72375
20
-3.20671
11
5.72583
21
-3.20982
0
LINE
8
BLACK
6
CONTINUOUS
10
5.72583
20
-3.20982
11
5.72656
21
-3.21349
0
LINE
8
BLACK
6
CONTINUOUS
10
5.72656
20
-3.21349
11
5.72656
21
-3.23269
0
LINE
8
BLACK
6
CONTINUOUS
10
5.72656
20
-3.23269
11
5.72583
21
-3.23636
0
LINE
8
BLACK
6
CONTINUOUS
10
5.72583
20
-3.23636
11
5.72375
21
-3.23947
0
LINE
8
BLACK
6
CONTINUOUS
10
5.72375
20
-3.23947
11
5.72063
21
-3.24155
0
LINE
8
BLACK
6
CONTINUOUS
10
5.72063
20
-3.24155
11
5.71696
21
-3.24228
0
LINE
8
BLACK
6
CONTINUOUS
10
5.71696
20
-3.24228
11
5.68104
21
-3.24228
0
LINE
8
BLACK
6
CONTINUOUS
10
5.68104
20
-3.24228
11
5.67736
21
-3.24155
0
LINE
8
BLACK
6
CONTINUOUS
10
5.67736
20
-3.24155
11
5.67425
21
-3.23947
0
LINE
8
BLACK
6
CONTINUOUS
10
5.67425
20
-3.23947
11
5.67217
21
-3.23636
0
LINE
8
BLACK
6
CONTINUOUS
10
5.67217
20
-3.23636
11
5.67144
21
-3.23269
0
LINE
8
BLACK
6
CONTINUOUS
10
5.67144
20
-3.23269
11
5.67144
21
-3.21349
0
LINE
8
BLACK
6
CONTINUOUS
10
5.67144
20
-3.21349
11
5.67217
21
-3.20982
0
LINE
8
BLACK
6
CONTINUOUS
10
5.67217
20
-3.20982
11
5.67425
21
-3.20671
0
LINE
8
BLACK
6
CONTINUOUS
10
5.67425
20
-3.20671
11
5.67736
21
-3.20463
0
LINE
8
BLACK
6
CONTINUOUS
10
5.67736
20
-3.20463
11
5.68104
21
-3.2039
0
LINE
8
BLACK
6
CONTINUOUS
10
5.68104
20
-3.2039
11
5.71696
21
-3.2039
0
LINE
8
BLACK
6
CONTINUOUS
10
5.71696
20
-3.2039
11
5.72063
21
-3.20463
0
LINE
8
BLACK
6
CONTINUOUS
10
6.72338
20
-3.19343
11
6.72618
21
-3.19529
0
LINE
8
BLACK
6
CONTINUOUS
10
6.72618
20
-3.19529
11
6.72805
21
-3.19809
0
LINE
8
BLACK
6
CONTINUOUS
10
6.72805
20
-3.19809
11
6.7287
21
-3.20138
0
LINE
8
BLACK
6
CONTINUOUS
10
6.7287
20
-3.20138
11
6.7287
21
-3.21861
0
LINE
8
BLACK
6
CONTINUOUS
10
6.7287
20
-3.21861
11
6.72805
21
-3.2219
0
LINE
8
BLACK
6
CONTINUOUS
10
6.72805
20
-3.2219
11
6.72618
21
-3.2247
0
LINE
8
BLACK
6
CONTINUOUS
10
6.72618
20
-3.2247
11
6.72338
21
-3.22656
0
LINE
8
BLACK
6
CONTINUOUS
10
6.72338
20
-3.22656
11
6.72009
21
-3.22722
0
LINE
8
BLACK
6
CONTINUOUS
10
6.72009
20
-3.22722
11
6.69991
21
-3.22722
0
LINE
8
BLACK
6
CONTINUOUS
10
6.69991
20
-3.22722
11
6.69662
21
-3.22656
0
LINE
8
BLACK
6
CONTINUOUS
10
6.69662
20
-3.22656
11
6.69382
21
-3.2247
0
LINE
8
BLACK
6
CONTINUOUS
10
6.69382
20
-3.2247
11
6.69195
21
-3.2219
0
LINE
8
BLACK
6
CONTINUOUS
10
6.69195
20
-3.2219
11
6.6913
21
-3.21861
0
LINE
8
BLACK
6
CONTINUOUS
10
6.6913
20
-3.21861
11
6.6913
21
-3.20138
0
LINE
8
BLACK
6
CONTINUOUS
10
6.6913
20
-3.20138
11
6.69195
21
-3.19809
0
LINE
8
BLACK
6
CONTINUOUS
10
6.69195
20
-3.19809
11
6.69382
21
-3.19529
0
LINE
8
BLACK
6
CONTINUOUS
10
6.69382
20
-3.19529
11
6.69662
21
-3.19343
0
LINE
8
BLACK
6
CONTINUOUS
10
6.69662
20
-3.19343
11
6.69991
21
-3.19277
0
LINE
8
BLACK
6
CONTINUOUS
10
6.69991
20
-3.19277
11
6.72009
21
-3.19277
0
LINE
8
BLACK
6
CONTINUOUS
10
6.72009
20
-3.19277
11
6.72338
21
-3.19343
0
LINE
8
BLACK
6
CONTINUOUS
10
6.41463
20
-3.17563
11
6.41775
21
-3.17771
0
LINE
8
BLACK
6
CONTINUOUS
10
6.41775
20
-3.17771
11
6.41983
21
-3.18082
0
LINE
8
BLACK
6
CONTINUOUS
10
6.41983
20
-3.18082
11
6.42056
21
-3.18449
0
LINE
8
BLACK
6
CONTINUOUS
10
6.42056
20
-3.18449
11
6.42056
21
-3.20369
0
LINE
8
BLACK
6
CONTINUOUS
10
6.42056
20
-3.20369
11
6.41983
21
-3.20736
0
LINE
8
BLACK
6
CONTINUOUS
10
6.41983
20
-3.20736
11
6.41775
21
-3.21047
0
LINE
8
BLACK
6
CONTINUOUS
10
6.41775
20
-3.21047
11
6.41463
21
-3.21255
0
LINE
8
BLACK
6
CONTINUOUS
10
6.41463
20
-3.21255
11
6.41096
21
-3.21328
0
LINE
8
BLACK
6
CONTINUOUS
10
6.41096
20
-3.21328
11
6.37504
21
-3.21328
0
LINE
8
BLACK
6
CONTINUOUS
10
6.37504
20
-3.21328
11
6.37136
21
-3.21255
0
LINE
8
BLACK
6
CONTINUOUS
10
6.37136
20
-3.21255
11
6.36825
21
-3.21047
0
LINE
8
BLACK
6
CONTINUOUS
10
6.36825
20
-3.21047
11
6.36617
21
-3.20736
0
LINE
8
BLACK
6
CONTINUOUS
10
6.36617
20
-3.20736
11
6.36544
21
-3.20369
0
LINE
8
BLACK
6
CONTINUOUS
10
6.36544
20
-3.20369
11
6.36544
21
-3.18449
0
LINE
8
BLACK
6
CONTINUOUS
10
6.36544
20
-3.18449
11
6.36617
21
-3.18082
0
LINE
8
BLACK
6
CONTINUOUS
10
6.36617
20
-3.18082
11
6.36825
21
-3.17771
0
LINE
8
BLACK
6
CONTINUOUS
10
6.36825
20
-3.17771
11
6.37136
21
-3.17563
0
LINE
8
BLACK
6
CONTINUOUS
10
6.37136
20
-3.17563
11
6.37504
21
-3.1749
0
LINE
8
BLACK
6
CONTINUOUS
10
6.37504
20
-3.1749
11
6.41096
21
-3.1749
0
LINE
8
BLACK
6
CONTINUOUS
10
6.41096
20
-3.1749
11
6.41463
21
-3.17563
0
LINE
8
BLACK
6
CONTINUOUS
10
5.72063
20
-3.12745
11
5.72375
21
-3.12953
0
LINE
8
BLACK
6
CONTINUOUS
10
5.72375
20
-3.12953
11
5.72583
21
-3.13264
0
LINE
8
BLACK
6
CONTINUOUS
10
5.72583
20
-3.13264
11
5.72656
21
-3.13631
0
LINE
8
BLACK
6
CONTINUOUS
10
5.72656
20
-3.13631
11
5.72656
21
-3.15551
0
LINE
8
BLACK
6
CONTINUOUS
10
5.72656
20
-3.15551
11
5.72583
21
-3.15918
0
LINE
8
BLACK
6
CONTINUOUS
10
5.72583
20
-3.15918
11
5.72375
21
-3.16229
0
LINE
8
BLACK
6
CONTINUOUS
10
5.72375
20
-3.16229
11
5.72063
21
-3.16437
0
LINE
8
BLACK
6
CONTINUOUS
10
5.72063
20
-3.16437
11
5.71696
21
-3.1651
0
LINE
8
BLACK
6
CONTINUOUS
10
5.71696
20
-3.1651
11
5.68104
21
-3.1651
0
LINE
8
BLACK
6
CONTINUOUS
10
5.68104
20
-3.1651
11
5.67736
21
-3.16437
0
LINE
8
BLACK
6
CONTINUOUS
10
5.67736
20
-3.16437
11
5.67425
21
-3.16229
0
LINE
8
BLACK
6
CONTINUOUS
10
5.67425
20
-3.16229
11
5.67217
21
-3.15918
0
LINE
8
BLACK
6
CONTINUOUS
10
5.67217
20
-3.15918
11
5.67144
21
-3.15551
0
LINE
8
BLACK
6
CONTINUOUS
10
5.67144
20
-3.15551
11
5.67144
21
-3.13631
0
LINE
8
BLACK
6
CONTINUOUS
10
5.67144
20
-3.13631
11
5.67217
21
-3.13264
0
LINE
8
BLACK
6
CONTINUOUS
10
5.67217
20
-3.13264
11
5.67425
21
-3.12953
0
LINE
8
BLACK
6
CONTINUOUS
10
5.67425
20
-3.12953
11
5.67736
21
-3.12745
0
LINE
8
BLACK
6
CONTINUOUS
10
5.67736
20
-3.12745
11
5.68104
21
-3.12672
0
LINE
8
BLACK
6
CONTINUOUS
10
5.68104
20
-3.12672
11
5.71696
21
-3.12672
0
LINE
8
BLACK
6
CONTINUOUS
10
5.71696
20
-3.12672
11
5.72063
21
-3.12745
0
LINE
8
BLACK
6
CONTINUOUS
10
6.11218
20
-3.07817
11
6.11529
21
-3.08025
0
LINE
8
BLACK
6
CONTINUOUS
10
6.11529
20
-3.08025
11
6.11737
21
-3.08337
0
LINE
8
BLACK
6
CONTINUOUS
10
6.11737
20
-3.08337
11
6.1181
21
-3.08704
0
LINE
8
BLACK
6
CONTINUOUS
10
6.1181
20
-3.08704
11
6.1181
21
-3.12296
0
LINE
8
BLACK
6
CONTINUOUS
10
6.1181
20
-3.12296
11
6.11737
21
-3.12663
0
LINE
8
BLACK
6
CONTINUOUS
10
6.11737
20
-3.12663
11
6.11529
21
-3.12975
0
LINE
8
BLACK
6
CONTINUOUS
10
6.11529
20
-3.12975
11
6.11218
21
-3.13183
0
LINE
8
BLACK
6
CONTINUOUS
10
6.11218
20
-3.13183
11
6.10851
21
-3.13256
0
LINE
8
BLACK
6
CONTINUOUS
10
6.10851
20
-3.13256
11
6.08931
21
-3.13256
0
LINE
8
BLACK
6
CONTINUOUS
10
6.08931
20
-3.13256
11
6.08564
21
-3.13183
0
LINE
8
BLACK
6
CONTINUOUS
10
6.08564
20
-3.13183
11
6.08253
21
-3.12975
0
LINE
8
BLACK
6
CONTINUOUS
10
6.08253
20
-3.12975
11
6.08045
21
-3.12663
0
LINE
8
BLACK
6
CONTINUOUS
10
6.08045
20
-3.12663
11
6.07972
21
-3.12296
0
LINE
8
BLACK
6
CONTINUOUS
10
6.07972
20
-3.12296
11
6.07972
21
-3.08704
0
LINE
8
BLACK
6
CONTINUOUS
10
6.07972
20
-3.08704
11
6.08045
21
-3.08337
0
LINE
8
BLACK
6
CONTINUOUS
10
6.08045
20
-3.08337
11
6.08253
21
-3.08025
0
LINE
8
BLACK
6
CONTINUOUS
10
6.08253
20
-3.08025
11
6.08564
21
-3.07817
0
LINE
8
BLACK
6
CONTINUOUS
10
6.08564
20
-3.07817
11
6.08931
21
-3.07744
0
LINE
8
BLACK
6
CONTINUOUS
10
6.08931
20
-3.07744
11
6.10851
21
-3.07744
0
LINE
8
BLACK
6
CONTINUOUS
10
6.10851
20
-3.07744
11
6.11218
21
-3.07817
0
LINE
8
BLACK
6
CONTINUOUS
10
6.03836
20
-3.07817
11
6.04147
21
-3.08025
0
LINE
8
BLACK
6
CONTINUOUS
10
6.04147
20
-3.08025
11
6.04355
21
-3.08337
0
LINE
8
BLACK
6
CONTINUOUS
10
6.04355
20
-3.08337
11
6.04428
21
-3.08704
0
LINE
8
BLACK
6
CONTINUOUS
10
6.04428
20
-3.08704
11
6.04428
21
-3.12296
0
LINE
8
BLACK
6
CONTINUOUS
10
6.04428
20
-3.12296
11
6.04355
21
-3.12663
0
LINE
8
BLACK
6
CONTINUOUS
10
6.04355
20
-3.12663
11
6.04147
21
-3.12975
0
LINE
8
BLACK
6
CONTINUOUS
10
6.04147
20
-3.12975
11
6.03836
21
-3.13183
0
LINE
8
BLACK
6
CONTINUOUS
10
6.03836
20
-3.13183
11
6.03469
21
-3.13256
0
LINE
8
BLACK
6
CONTINUOUS
10
6.03469
20
-3.13256
11
6.01549
21
-3.13256
0
LINE
8
BLACK
6
CONTINUOUS
10
6.01549
20
-3.13256
11
6.01182
21
-3.13183
0
LINE
8
BLACK
6
CONTINUOUS
10
6.01182
20
-3.13183
11
6.00871
21
-3.12975
0
LINE
8
BLACK
6
CONTINUOUS
10
6.00871
20
-3.12975
11
6.00663
21
-3.12663
0
LINE
8
BLACK
6
CONTINUOUS
10
6.00663
20
-3.12663
11
6.0059
21
-3.12296
0
LINE
8
BLACK
6
CONTINUOUS
10
6.0059
20
-3.12296
11
6.0059
21
-3.08704
0
LINE
8
BLACK
6
CONTINUOUS
10
6.0059
20
-3.08704
11
6.00663
21
-3.08337
0
LINE
8
BLACK
6
CONTINUOUS
10
6.00663
20
-3.08337
11
6.00871
21
-3.08025
0
LINE
8
BLACK
6
CONTINUOUS
10
6.00871
20
-3.08025
11
6.01182
21
-3.07817
0
LINE
8
BLACK
6
CONTINUOUS
10
6.01182
20
-3.07817
11
6.01549
21
-3.07744
0
LINE
8
BLACK
6
CONTINUOUS
10
6.01549
20
-3.07744
11
6.03469
21
-3.07744
0
LINE
8
BLACK
6
CONTINUOUS
10
6.03469
20
-3.07744
11
6.03836
21
-3.07817
0
LINE
8
BLACK
6
CONTINUOUS
10
6.54192
20
-2.97382
11
6.54511
21
-2.97595
0
LINE
8
BLACK
6
CONTINUOUS
10
6.54511
20
-2.97595
11
6.54724
21
-2.97915
0
LINE
8
BLACK
6
CONTINUOUS
10
6.54724
20
-2.97915
11
6.54799
21
-2.98291
0
LINE
8
BLACK
6
CONTINUOUS
10
6.54799
20
-2.98291
11
6.54799
21
-3.09709
0
LINE
8
BLACK
6
CONTINUOUS
10
6.54799
20
-3.09709
11
6.54724
21
-3.10085
0
LINE
8
BLACK
6
CONTINUOUS
10
6.54724
20
-3.10085
11
6.54511
21
-3.10405
0
LINE
8
BLACK
6
CONTINUOUS
10
6.54511
20
-3.10405
11
6.54192
21
-3.10618
0
LINE
8
BLACK
6
CONTINUOUS
10
6.54192
20
-3.10618
11
6.53815
21
-3.10693
0
LINE
8
BLACK
6
CONTINUOUS
10
6.53815
20
-3.10693
11
6.51354
21
-3.10693
0
LINE
8
BLACK
6
CONTINUOUS
10
6.51354
20
-3.10693
11
6.50978
21
-3.10618
0
LINE
8
BLACK
6
CONTINUOUS
10
6.50978
20
-3.10618
11
6.50658
21
-3.10405
0
LINE
8
BLACK
6
CONTINUOUS
10
6.50658
20
-3.10405
11
6.50445
21
-3.10085
0
LINE
8
BLACK
6
CONTINUOUS
10
6.50445
20
-3.10085
11
6.5037
21
-3.09709
0
LINE
8
BLACK
6
CONTINUOUS
10
6.5037
20
-3.09709
11
6.5037
21
-2.98291
0
LINE
8
BLACK
6
CONTINUOUS
10
6.5037
20
-2.98291
11
6.50445
21
-2.97915
0
LINE
8
BLACK
6
CONTINUOUS
10
6.50445
20
-2.97915
11
6.50658
21
-2.97595
0
LINE
8
BLACK
6
CONTINUOUS
10
6.50658
20
-2.97595
11
6.50978
21
-2.97382
0
LINE
8
BLACK
6
CONTINUOUS
10
6.50978
20
-2.97382
11
6.51354
21
-2.97307
0
LINE
8
BLACK
6
CONTINUOUS
10
6.51354
20
-2.97307
11
6.53815
21
-2.97307
0
LINE
8
BLACK
6
CONTINUOUS
10
6.53815
20
-2.97307
11
6.54192
21
-2.97382
0
LINE
8
BLACK
6
CONTINUOUS
10
6.71022
20
-2.97382
11
6.71342
21
-2.97595
0
LINE
8
BLACK
6
CONTINUOUS
10
6.71342
20
-2.97595
11
6.71555
21
-2.97915
0
LINE
8
BLACK
6
CONTINUOUS
10
6.71555
20
-2.97915
11
6.7163
21
-2.98291
0
LINE
8
BLACK
6
CONTINUOUS
10
6.7163
20
-2.98291
11
6.7163
21
-3.09709
0
LINE
8
BLACK
6
CONTINUOUS
10
6.7163
20
-3.09709
11
6.71555
21
-3.10085
0
LINE
8
BLACK
6
CONTINUOUS
10
6.71555
20
-3.10085
11
6.71342
21
-3.10405
0
LINE
8
BLACK
6
CONTINUOUS
10
6.71342
20
-3.10405
11
6.71022
21
-3.10618
0
LINE
8
BLACK
6
CONTINUOUS
10
6.71022
20
-3.10618
11
6.70646
21
-3.10693
0
LINE
8
BLACK
6
CONTINUOUS
10
6.70646
20
-3.10693
11
6.68185
21
-3.10693
0
LINE
8
BLACK
6
CONTINUOUS
10
6.68185
20
-3.10693
11
6.67808
21
-3.10618
0
LINE
8
BLACK
6
CONTINUOUS
10
6.67808
20
-3.10618
11
6.67489
21
-3.10405
0
LINE
8
BLACK
6
CONTINUOUS
10
6.67489
20
-3.10405
11
6.67276
21
-3.10085
0
LINE
8
BLACK
6
CONTINUOUS
10
6.67276
20
-3.10085
11
6.67201
21
-3.09709
0
LINE
8
BLACK
6
CONTINUOUS
10
6.67201
20
-3.09709
11
6.67201
21
-2.98291
0
LINE
8
BLACK
6
CONTINUOUS
10
6.67201
20
-2.98291
11
6.67276
21
-2.97915
0
LINE
8
BLACK
6
CONTINUOUS
10
6.67276
20
-2.97915
11
6.67489
21
-2.97595
0
LINE
8
BLACK
6
CONTINUOUS
10
6.67489
20
-2.97595
11
6.67808
21
-2.97382
0
LINE
8
BLACK
6
CONTINUOUS
10
6.67808
20
-2.97382
11
6.68185
21
-2.97307
0
LINE
8
BLACK
6
CONTINUOUS
10
6.68185
20
-2.97307
11
6.70646
21
-2.97307
0
LINE
8
BLACK
6
CONTINUOUS
10
6.70646
20
-2.97307
11
6.71022
21
-2.97382
0
LINE
8
BLACK
6
CONTINUOUS
10
5.72063
20
-3.05363
11
5.72375
21
-3.05571
0
LINE
8
BLACK
6
CONTINUOUS
10
5.72375
20
-3.05571
11
5.72583
21
-3.05882
0
LINE
8
BLACK
6
CONTINUOUS
10
5.72583
20
-3.05882
11
5.72656
21
-3.06249
0
LINE
8
BLACK
6
CONTINUOUS
10
5.72656
20
-3.06249
11
5.72656
21
-3.08169
0
LINE
8
BLACK
6
CONTINUOUS
10
5.72656
20
-3.08169
11
5.72583
21
-3.08536
0
LINE
8
BLACK
6
CONTINUOUS
10
5.72583
20
-3.08536
11
5.72375
21
-3.08847
0
LINE
8
BLACK
6
CONTINUOUS
10
5.72375
20
-3.08847
11
5.72063
21
-3.09055
0
LINE
8
BLACK
6
CONTINUOUS
10
5.72063
20
-3.09055
11
5.71696
21
-3.09128
0
LINE
8
BLACK
6
CONTINUOUS
10
5.71696
20
-3.09128
11
5.68104
21
-3.09128
0
LINE
8
BLACK
6
CONTINUOUS
10
5.68104
20
-3.09128
11
5.67736
21
-3.09055
0
LINE
8
BLACK
6
CONTINUOUS
10
5.67736
20
-3.09055
11
5.67425
21
-3.08847
0
LINE
8
BLACK
6
CONTINUOUS
10
5.67425
20
-3.08847
11
5.67217
21
-3.08536
0
LINE
8
BLACK
6
CONTINUOUS
10
5.67217
20
-3.08536
11
5.67144
21
-3.08169
0
LINE
8
BLACK
6
CONTINUOUS
10
5.67144
20
-3.08169
11
5.67144
21
-3.06249
0
LINE
8
BLACK
6
CONTINUOUS
10
5.67144
20
-3.06249
11
5.67217
21
-3.05882
0
LINE
8
BLACK
6
CONTINUOUS
10
5.67217
20
-3.05882
11
5.67425
21
-3.05571
0
LINE
8
BLACK
6
CONTINUOUS
10
5.67425
20
-3.05571
11
5.67736
21
-3.05363
0
LINE
8
BLACK
6
CONTINUOUS
10
5.67736
20
-3.05363
11
5.68104
21
-3.0529
0
LINE
8
BLACK
6
CONTINUOUS
10
5.68104
20
-3.0529
11
5.71696
21
-3.0529
0
LINE
8
BLACK
6
CONTINUOUS
10
5.71696
20
-3.0529
11
5.72063
21
-3.05363
0
LINE
8
BLACK
6
CONTINUOUS
10
5.12205
20
-3.03937
11
5.04331
21
-3.03937
0
LINE
8
BLACK
6
CONTINUOUS
10
5.04331
20
-3.03937
11
5.04331
21
-2.92126
0
LINE
8
BLACK
6
CONTINUOUS
10
5.04331
20
-2.92126
11
5.12205
21
-2.92126
0
LINE
8
BLACK
6
CONTINUOUS
10
5.12205
20
-2.92126
11
5.12205
21
-3.03937
0
LINE
8
BLACK
6
CONTINUOUS
10
4.88583
20
-3.03937
11
4.80709
21
-3.03937
0
LINE
8
BLACK
6
CONTINUOUS
10
4.80709
20
-3.03937
11
4.80709
21
-2.92126
0
LINE
8
BLACK
6
CONTINUOUS
10
4.80709
20
-2.92126
11
4.88583
21
-2.92126
0
LINE
8
BLACK
6
CONTINUOUS
10
4.88583
20
-2.92126
11
4.88583
21
-3.03937
0
LINE
8
BLACK
6
CONTINUOUS
10
6.30837
20
-2.96049
11
6.31148
21
-2.96257
0
LINE
8
BLACK
6
CONTINUOUS
10
6.31148
20
-2.96257
11
6.31356
21
-2.96569
0
LINE
8
BLACK
6
CONTINUOUS
10
6.31356
20
-2.96569
11
6.31429
21
-2.96936
0
LINE
8
BLACK
6
CONTINUOUS
10
6.31429
20
-2.96936
11
6.31429
21
-3.00529
0
LINE
8
BLACK
6
CONTINUOUS
10
6.31429
20
-3.00529
11
6.31356
21
-3.00896
0
LINE
8
BLACK
6
CONTINUOUS
10
6.31356
20
-3.00896
11
6.31148
21
-3.01207
0
LINE
8
BLACK
6
CONTINUOUS
10
6.31148
20
-3.01207
11
6.30837
21
-3.01415
0
LINE
8
BLACK
6
CONTINUOUS
10
6.30837
20
-3.01415
11
6.30469
21
-3.01488
0
LINE
8
BLACK
6
CONTINUOUS
10
6.30469
20
-3.01488
11
6.2855
21
-3.01488
0
LINE
8
BLACK
6
CONTINUOUS
10
6.2855
20
-3.01488
11
6.28183
21
-3.01415
0
LINE
8
BLACK
6
CONTINUOUS
10
6.28183
20
-3.01415
11
6.27872
21
-3.01207
0
LINE
8
BLACK
6
CONTINUOUS
10
6.27872
20
-3.01207
11
6.27664
21
-3.00896
0
LINE
8
BLACK
6
CONTINUOUS
10
6.27664
20
-3.00896
11
6.27591
21
-3.00529
0
LINE
8
BLACK
6
CONTINUOUS
10
6.27591
20
-3.00529
11
6.27591
21
-2.96936
0
LINE
8
BLACK
6
CONTINUOUS
10
6.27591
20
-2.96936
11
6.27664
21
-2.96569
0
LINE
8
BLACK
6
CONTINUOUS
10
6.27664
20
-2.96569
11
6.27872
21
-2.96257
0
LINE
8
BLACK
6
CONTINUOUS
10
6.27872
20
-2.96257
11
6.28183
21
-2.96049
0
LINE
8
BLACK
6
CONTINUOUS
10
6.28183
20
-2.96049
11
6.2855
21
-2.95976
0
LINE
8
BLACK
6
CONTINUOUS
10
6.2855
20
-2.95976
11
6.30469
21
-2.95976
0
LINE
8
BLACK
6
CONTINUOUS
10
6.30469
20
-2.95976
11
6.30837
21
-2.96049
0
LINE
8
BLACK
6
CONTINUOUS
10
6.23455
20
-2.96049
11
6.23766
21
-2.96257
0
LINE
8
BLACK
6
CONTINUOUS
10
6.23766
20
-2.96257
11
6.23974
21
-2.96569
0
LINE
8
BLACK
6
CONTINUOUS
10
6.23974
20
-2.96569
11
6.24047
21
-2.96936
0
LINE
8
BLACK
6
CONTINUOUS
10
6.24047
20
-2.96936
11
6.24047
21
-3.00529
0
LINE
8
BLACK
6
CONTINUOUS
10
6.24047
20
-3.00529
11
6.23974
21
-3.00896
0
LINE
8
BLACK
6
CONTINUOUS
10
6.23974
20
-3.00896
11
6.23766
21
-3.01207
0
LINE
8
BLACK
6
CONTINUOUS
10
6.23766
20
-3.01207
11
6.23455
21
-3.01415
0
LINE
8
BLACK
6
CONTINUOUS
10
6.23455
20
-3.01415
11
6.23088
21
-3.01488
0
LINE
8
BLACK
6
CONTINUOUS
10
6.23088
20
-3.01488
11
6.21168
21
-3.01488
0
LINE
8
BLACK
6
CONTINUOUS
10
6.21168
20
-3.01488
11
6.20801
21
-3.01415
0
LINE
8
BLACK
6
CONTINUOUS
10
6.20801
20
-3.01415
11
6.2049
21
-3.01207
0
LINE
8
BLACK
6
CONTINUOUS
10
6.2049
20
-3.01207
11
6.20282
21
-3.00896
0
LINE
8
BLACK
6
CONTINUOUS
10
6.20282
20
-3.00896
11
6.20209
21
-3.00529
0
LINE
8
BLACK
6
CONTINUOUS
10
6.20209
20
-3.00529
11
6.20209
21
-2.96936
0
LINE
8
BLACK
6
CONTINUOUS
10
6.20209
20
-2.96936
11
6.20282
21
-2.96569
0
LINE
8
BLACK
6
CONTINUOUS
10
6.20282
20
-2.96569
11
6.2049
21
-2.96257
0
LINE
8
BLACK
6
CONTINUOUS
10
6.2049
20
-2.96257
11
6.20801
21
-2.96049
0
LINE
8
BLACK
6
CONTINUOUS
10
6.20801
20
-2.96049
11
6.21168
21
-2.95976
0
LINE
8
BLACK
6
CONTINUOUS
10
6.21168
20
-2.95976
11
6.23088
21
-2.95976
0
LINE
8
BLACK
6
CONTINUOUS
10
6.23088
20
-2.95976
11
6.23455
21
-2.96049
0
LINE
8
BLACK
6
CONTINUOUS
10
6.15982
20
-2.97577
11
6.16294
21
-2.97785
0
LINE
8
BLACK
6
CONTINUOUS
10
6.16294
20
-2.97785
11
6.16502
21
-2.98096
0
LINE
8
BLACK
6
CONTINUOUS
10
6.16502
20
-2.98096
11
6.16575
21
-2.98464
0
LINE
8
BLACK
6
CONTINUOUS
10
6.16575
20
-2.98464
11
6.16575
21
-3.00383
0
LINE
8
BLACK
6
CONTINUOUS
10
6.16575
20
-3.00383
11
6.16502
21
-3.0075
0
LINE
8
BLACK
6
CONTINUOUS
10
6.16502
20
-3.0075
11
6.16294
21
-3.01061
0
LINE
8
BLACK
6
CONTINUOUS
10
6.16294
20
-3.01061
11
6.15982
21
-3.01269
0
LINE
8
BLACK
6
CONTINUOUS
10
6.15982
20
-3.01269
11
6.15615
21
-3.01343
0
LINE
8
BLACK
6
CONTINUOUS
10
6.15615
20
-3.01343
11
6.12023
21
-3.01343
0
LINE
8
BLACK
6
CONTINUOUS
10
6.12023
20
-3.01343
11
6.11655
21
-3.01269
0
LINE
8
BLACK
6
CONTINUOUS
10
6.11655
20
-3.01269
11
6.11344
21
-3.01061
0
LINE
8
BLACK
6
CONTINUOUS
10
6.11344
20
-3.01061
11
6.11136
21
-3.0075
0
LINE
8
BLACK
6
CONTINUOUS
10
6.11136
20
-3.0075
11
6.11063
21
-3.00383
0
LINE
8
BLACK
6
CONTINUOUS
10
6.11063
20
-3.00383
11
6.11063
21
-2.98464
0
LINE
8
BLACK
6
CONTINUOUS
10
6.11063
20
-2.98464
11
6.11136
21
-2.98096
0
LINE
8
BLACK
6
CONTINUOUS
10
6.11136
20
-2.98096
11
6.11344
21
-2.97785
0
LINE
8
BLACK
6
CONTINUOUS
10
6.11344
20
-2.97785
11
6.11655
21
-2.97577
0
LINE
8
BLACK
6
CONTINUOUS
10
6.11655
20
-2.97577
11
6.12023
21
-2.97504
0
LINE
8
BLACK
6
CONTINUOUS
10
6.12023
20
-2.97504
11
6.15615
21
-2.97504
0
LINE
8
BLACK
6
CONTINUOUS
10
6.15615
20
-2.97504
11
6.15982
21
-2.97577
0
LINE
8
BLACK
6
CONTINUOUS
10
6.40982
20
-2.97577
11
6.41294
21
-2.97785
0
LINE
8
BLACK
6
CONTINUOUS
10
6.41294
20
-2.97785
11
6.41502
21
-2.98096
0
LINE
8
BLACK
6
CONTINUOUS
10
6.41502
20
-2.98096
11
6.41575
21
-2.98464
0
LINE
8
BLACK
6
CONTINUOUS
10
6.41575
20
-2.98464
11
6.41575
21
-3.00383
0
LINE
8
BLACK
6
CONTINUOUS
10
6.41575
20
-3.00383
11
6.41502
21
-3.0075
0
LINE
8
BLACK
6
CONTINUOUS
10
6.41502
20
-3.0075
11
6.41294
21
-3.01061
0
LINE
8
BLACK
6
CONTINUOUS
10
6.41294
20
-3.01061
11
6.40982
21
-3.01269
0
LINE
8
BLACK
6
CONTINUOUS
10
6.40982
20
-3.01269
11
6.40615
21
-3.01343
0
LINE
8
BLACK
6
CONTINUOUS
10
6.40615
20
-3.01343
11
6.37023
21
-3.01343
0
LINE
8
BLACK
6
CONTINUOUS
10
6.37023
20
-3.01343
11
6.36655
21
-3.01269
0
LINE
8
BLACK
6
CONTINUOUS
10
6.36655
20
-3.01269
11
6.36344
21
-3.01061
0
LINE
8
BLACK
6
CONTINUOUS
10
6.36344
20
-3.01061
11
6.36136
21
-3.0075
0
LINE
8
BLACK
6
CONTINUOUS
10
6.36136
20
-3.0075
11
6.36063
21
-3.00383
0
LINE
8
BLACK
6
CONTINUOUS
10
6.36063
20
-3.00383
11
6.36063
21
-2.98464
0
LINE
8
BLACK
6
CONTINUOUS
10
6.36063
20
-2.98464
11
6.36136
21
-2.98096
0
LINE
8
BLACK
6
CONTINUOUS
10
6.36136
20
-2.98096
11
6.36344
21
-2.97785
0
LINE
8
BLACK
6
CONTINUOUS
10
6.36344
20
-2.97785
11
6.36655
21
-2.97577
0
LINE
8
BLACK
6
CONTINUOUS
10
6.36655
20
-2.97577
11
6.37023
21
-2.97504
0
LINE
8
BLACK
6
CONTINUOUS
10
6.37023
20
-2.97504
11
6.40615
21
-2.97504
0
LINE
8
BLACK
6
CONTINUOUS
10
6.40615
20
-2.97504
11
6.40982
21
-2.97577
0
LINE
8
BLACK
6
CONTINUOUS
10
5.72164
20
-2.96923
11
5.72475
21
-2.97131
0
LINE
8
BLACK
6
CONTINUOUS
10
5.72475
20
-2.97131
11
5.72683
21
-2.97443
0
LINE
8
BLACK
6
CONTINUOUS
10
5.72683
20
-2.97443
11
5.72756
21
-2.9781
0
LINE
8
BLACK
6
CONTINUOUS
10
5.72756
20
-2.9781
11
5.72756
21
-2.99729
0
LINE
8
BLACK
6
CONTINUOUS
10
5.72756
20
-2.99729
11
5.72683
21
-3.00097
0
LINE
8
BLACK
6
CONTINUOUS
10
5.72683
20
-3.00097
11
5.72475
21
-3.00408
0
LINE
8
BLACK
6
CONTINUOUS
10
5.72475
20
-3.00408
11
5.72164
21
-3.00616
0
LINE
8
BLACK
6
CONTINUOUS
10
5.72164
20
-3.00616
11
5.71796
21
-3.00689
0
LINE
8
BLACK
6
CONTINUOUS
10
5.71796
20
-3.00689
11
5.68204
21
-3.00689
0
LINE
8
BLACK
6
CONTINUOUS
10
5.68204
20
-3.00689
11
5.67836
21
-3.00616
0
LINE
8
BLACK
6
CONTINUOUS
10
5.67836
20
-3.00616
11
5.67525
21
-3.00408
0
LINE
8
BLACK
6
CONTINUOUS
10
5.67525
20
-3.00408
11
5.67317
21
-3.00097
0
LINE
8
BLACK
6
CONTINUOUS
10
5.67317
20
-3.00097
11
5.67244
21
-2.99729
0
LINE
8
BLACK
6
CONTINUOUS
10
5.67244
20
-2.99729
11
5.67244
21
-2.9781
0
LINE
8
BLACK
6
CONTINUOUS
10
5.67244
20
-2.9781
11
5.67317
21
-2.97443
0
LINE
8
BLACK
6
CONTINUOUS
10
5.67317
20
-2.97443
11
5.67525
21
-2.97131
0
LINE
8
BLACK
6
CONTINUOUS
10
5.67525
20
-2.97131
11
5.67836
21
-2.96923
0
LINE
8
BLACK
6
CONTINUOUS
10
5.67836
20
-2.96923
11
5.68204
21
-2.9685
0
LINE
8
BLACK
6
CONTINUOUS
10
5.68204
20
-2.9685
11
5.71796
21
-2.9685
0
LINE
8
BLACK
6
CONTINUOUS
10
5.71796
20
-2.9685
11
5.72164
21
-2.96923
0
LINE
8
BLACK
6
CONTINUOUS
10
5.82163
20
-2.96923
11
5.82475
21
-2.97131
0
LINE
8
BLACK
6
CONTINUOUS
10
5.82475
20
-2.97131
11
5.82683
21
-2.97443
0
LINE
8
BLACK
6
CONTINUOUS
10
5.82683
20
-2.97443
11
5.82756
21
-2.9781
0
LINE
8
BLACK
6
CONTINUOUS
10
5.82756
20
-2.9781
11
5.82756
21
-2.99729
0
LINE
8
BLACK
6
CONTINUOUS
10
5.82756
20
-2.99729
11
5.82683
21
-3.00097
0
LINE
8
BLACK
6
CONTINUOUS
10
5.82683
20
-3.00097
11
5.82475
21
-3.00408
0
LINE
8
BLACK
6
CONTINUOUS
10
5.82475
20
-3.00408
11
5.82163
21
-3.00616
0
LINE
8
BLACK
6
CONTINUOUS
10
5.82163
20
-3.00616
11
5.81796
21
-3.00689
0
LINE
8
BLACK
6
CONTINUOUS
10
5.81796
20
-3.00689
11
5.78204
21
-3.00689
0
LINE
8
BLACK
6
CONTINUOUS
10
5.78204
20
-3.00689
11
5.77836
21
-3.00616
0
LINE
8
BLACK
6
CONTINUOUS
10
5.77836
20
-3.00616
11
5.77525
21
-3.00408
0
LINE
8
BLACK
6
CONTINUOUS
10
5.77525
20
-3.00408
11
5.77317
21
-3.00097
0
LINE
8
BLACK
6
CONTINUOUS
10
5.77317
20
-3.00097
11
5.77244
21
-2.99729
0
LINE
8
BLACK
6
CONTINUOUS
10
5.77244
20
-2.99729
11
5.77244
21
-2.9781
0
LINE
8
BLACK
6
CONTINUOUS
10
5.77244
20
-2.9781
11
5.77317
21
-2.97443
0
LINE
8
BLACK
6
CONTINUOUS
10
5.77317
20
-2.97443
11
5.77525
21
-2.97131
0
LINE
8
BLACK
6
CONTINUOUS
10
5.77525
20
-2.97131
11
5.77836
21
-2.96923
0
LINE
8
BLACK
6
CONTINUOUS
10
5.77836
20
-2.96923
11
5.78204
21
-2.9685
0
LINE
8
BLACK
6
CONTINUOUS
10
5.78204
20
-2.9685
11
5.81796
21
-2.9685
0
LINE
8
BLACK
6
CONTINUOUS
10
5.81796
20
-2.9685
11
5.82163
21
-2.96923
0
LINE
8
BLACK
6
CONTINUOUS
10
6.15982
20
-2.90195
11
6.16294
21
-2.90403
0
LINE
8
BLACK
6
CONTINUOUS
10
6.16294
20
-2.90403
11
6.16502
21
-2.90714
0
LINE
8
BLACK
6
CONTINUOUS
10
6.16502
20
-2.90714
11
6.16575
21
-2.91082
0
LINE
8
BLACK
6
CONTINUOUS
10
6.16575
20
-2.91082
11
6.16575
21
-2.93001
0
LINE
8
BLACK
6
CONTINUOUS
10
6.16575
20
-2.93001
11
6.16502
21
-2.93368
0
LINE
8
BLACK
6
CONTINUOUS
10
6.16502
20
-2.93368
11
6.16294
21
-2.9368
0
LINE
8
BLACK
6
CONTINUOUS
10
6.16294
20
-2.9368
11
6.15982
21
-2.93888
0
LINE
8
BLACK
6
CONTINUOUS
10
6.15982
20
-2.93888
11
6.15615
21
-2.93961
0
LINE
8
BLACK
6
CONTINUOUS
10
6.15615
20
-2.93961
11
6.12023
21
-2.93961
0
LINE
8
BLACK
6
CONTINUOUS
10
6.12023
20
-2.93961
11
6.11655
21
-2.93888
0
LINE
8
BLACK
6
CONTINUOUS
10
6.11655
20
-2.93888
11
6.11344
21
-2.9368
0
LINE
8
BLACK
6
CONTINUOUS
10
6.11344
20
-2.9368
11
6.11136
21
-2.93368
0
LINE
8
BLACK
6
CONTINUOUS
10
6.11136
20
-2.93368
11
6.11063
21
-2.93001
0
LINE
8
BLACK
6
CONTINUOUS
10
6.11063
20
-2.93001
11
6.11063
21
-2.91082
0
LINE
8
BLACK
6
CONTINUOUS
10
6.11063
20
-2.91082
11
6.11136
21
-2.90714
0
LINE
8
BLACK
6
CONTINUOUS
10
6.11136
20
-2.90714
11
6.11344
21
-2.90403
0
LINE
8
BLACK
6
CONTINUOUS
10
6.11344
20
-2.90403
11
6.11655
21
-2.90195
0
LINE
8
BLACK
6
CONTINUOUS
10
6.11655
20
-2.90195
11
6.12023
21
-2.90122
0
LINE
8
BLACK
6
CONTINUOUS
10
6.12023
20
-2.90122
11
6.15615
21
-2.90122
0
LINE
8
BLACK
6
CONTINUOUS
10
6.15615
20
-2.90122
11
6.15982
21
-2.90195
0
LINE
8
BLACK
6
CONTINUOUS
10
6.40982
20
-2.90195
11
6.41294
21
-2.90403
0
LINE
8
BLACK
6
CONTINUOUS
10
6.41294
20
-2.90403
11
6.41502
21
-2.90714
0
LINE
8
BLACK
6
CONTINUOUS
10
6.41502
20
-2.90714
11
6.41575
21
-2.91082
0
LINE
8
BLACK
6
CONTINUOUS
10
6.41575
20
-2.91082
11
6.41575
21
-2.93001
0
LINE
8
BLACK
6
CONTINUOUS
10
6.41575
20
-2.93001
11
6.41502
21
-2.93368
0
LINE
8
BLACK
6
CONTINUOUS
10
6.41502
20
-2.93368
11
6.41294
21
-2.9368
0
LINE
8
BLACK
6
CONTINUOUS
10
6.41294
20
-2.9368
11
6.40982
21
-2.93888
0
LINE
8
BLACK
6
CONTINUOUS
10
6.40982
20
-2.93888
11
6.40615
21
-2.93961
0
LINE
8
BLACK
6
CONTINUOUS
10
6.40615
20
-2.93961
11
6.37023
21
-2.93961
0
LINE
8
BLACK
6
CONTINUOUS
10
6.37023
20
-2.93961
11
6.36655
21
-2.93888
0
LINE
8
BLACK
6
CONTINUOUS
10
6.36655
20
-2.93888
11
6.36344
21
-2.9368
0
LINE
8
BLACK
6
CONTINUOUS
10
6.36344
20
-2.9368
11
6.36136
21
-2.93368
0
LINE
8
BLACK
6
CONTINUOUS
10
6.36136
20
-2.93368
11
6.36063
21
-2.93001
0
LINE
8
BLACK
6
CONTINUOUS
10
6.36063
20
-2.93001
11
6.36063
21
-2.91082
0
LINE
8
BLACK
6
CONTINUOUS
10
6.36063
20
-2.91082
11
6.36136
21
-2.90714
0
LINE
8
BLACK
6
CONTINUOUS
10
6.36136
20
-2.90714
11
6.36344
21
-2.90403
0
LINE
8
BLACK
6
CONTINUOUS
10
6.36344
20
-2.90403
11
6.36655
21
-2.90195
0
LINE
8
BLACK
6
CONTINUOUS
10
6.36655
20
-2.90195
11
6.37023
21
-2.90122
0
LINE
8
BLACK
6
CONTINUOUS
10
6.37023
20
-2.90122
11
6.40615
21
-2.90122
0
LINE
8
BLACK
6
CONTINUOUS
10
6.40615
20
-2.90122
11
6.40982
21
-2.90195
0
LINE
8
BLACK
6
CONTINUOUS
10
5.72164
20
-2.89542
11
5.72475
21
-2.8975
0
LINE
8
BLACK
6
CONTINUOUS
10
5.72475
20
-2.8975
11
5.72683
21
-2.90061
0
LINE
8
BLACK
6
CONTINUOUS
10
5.72683
20
-2.90061
11
5.72756
21
-2.90428
0
LINE
8
BLACK
6
CONTINUOUS
10
5.72756
20
-2.90428
11
5.72756
21
-2.92347
0
LINE
8
BLACK
6
CONTINUOUS
10
5.72756
20
-2.92347
11
5.72683
21
-2.92715
0
LINE
8
BLACK
6
CONTINUOUS
10
5.72683
20
-2.92715
11
5.72475
21
-2.93026
0
LINE
8
BLACK
6
CONTINUOUS
10
5.72475
20
-2.93026
11
5.72164
21
-2.93234
0
LINE
8
BLACK
6
CONTINUOUS
10
5.72164
20
-2.93234
11
5.71796
21
-2.93307
0
LINE
8
BLACK
6
CONTINUOUS
10
5.71796
20
-2.93307
11
5.68204
21
-2.93307
0
LINE
8
BLACK
6
CONTINUOUS
10
5.68204
20
-2.93307
11
5.67836
21
-2.93234
0
LINE
8
BLACK
6
CONTINUOUS
10
5.67836
20
-2.93234
11
5.67525
21
-2.93026
0
LINE
8
BLACK
6
CONTINUOUS
10
5.67525
20
-2.93026
11
5.67317
21
-2.92715
0
LINE
8
BLACK
6
CONTINUOUS
10
5.67317
20
-2.92715
11
5.67244
21
-2.92347
0
LINE
8
BLACK
6
CONTINUOUS
10
5.67244
20
-2.92347
11
5.67244
21
-2.90428
0
LINE
8
BLACK
6
CONTINUOUS
10
5.67244
20
-2.90428
11
5.67317
21
-2.90061
0
LINE
8
BLACK
6
CONTINUOUS
10
5.67317
20
-2.90061
11
5.67525
21
-2.8975
0
LINE
8
BLACK
6
CONTINUOUS
10
5.67525
20
-2.8975
11
5.67836
21
-2.89542
0
LINE
8
BLACK
6
CONTINUOUS
10
5.67836
20
-2.89542
11
5.68204
21
-2.89469
0
LINE
8
BLACK
6
CONTINUOUS
10
5.68204
20
-2.89469
11
5.71796
21
-2.89469
0
LINE
8
BLACK
6
CONTINUOUS
10
5.71796
20
-2.89469
11
5.72164
21
-2.89542
0
LINE
8
BLACK
6
CONTINUOUS
10
5.82163
20
-2.89542
11
5.82475
21
-2.8975
0
LINE
8
BLACK
6
CONTINUOUS
10
5.82475
20
-2.8975
11
5.82683
21
-2.90061
0
LINE
8
BLACK
6
CONTINUOUS
10
5.82683
20
-2.90061
11
5.82756
21
-2.90428
0
LINE
8
BLACK
6
CONTINUOUS
10
5.82756
20
-2.90428
11
5.82756
21
-2.92347
0
LINE
8
BLACK
6
CONTINUOUS
10
5.82756
20
-2.92347
11
5.82683
21
-2.92715
0
LINE
8
BLACK
6
CONTINUOUS
10
5.82683
20
-2.92715
11
5.82475
21
-2.93026
0
LINE
8
BLACK
6
CONTINUOUS
10
5.82475
20
-2.93026
11
5.82163
21
-2.93234
0
LINE
8
BLACK
6
CONTINUOUS
10
5.82163
20
-2.93234
11
5.81796
21
-2.93307
0
LINE
8
BLACK
6
CONTINUOUS
10
5.81796
20
-2.93307
11
5.78204
21
-2.93307
0
LINE
8
BLACK
6
CONTINUOUS
10
5.78204
20
-2.93307
11
5.77836
21
-2.93234
0
LINE
8
BLACK
6
CONTINUOUS
10
5.77836
20
-2.93234
11
5.77525
21
-2.93026
0
LINE
8
BLACK
6
CONTINUOUS
10
5.77525
20
-2.93026
11
5.77317
21
-2.92715
0
LINE
8
BLACK
6
CONTINUOUS
10
5.77317
20
-2.92715
11
5.77244
21
-2.92347
0
LINE
8
BLACK
6
CONTINUOUS
10
5.77244
20
-2.92347
11
5.77244
21
-2.90428
0
LINE
8
BLACK
6
CONTINUOUS
10
5.77244
20
-2.90428
11
5.77317
21
-2.90061
0
LINE
8
BLACK
6
CONTINUOUS
10
5.77317
20
-2.90061
11
5.77525
21
-2.8975
0
LINE
8
BLACK
6
CONTINUOUS
10
5.77525
20
-2.8975
11
5.77836
21
-2.89542
0
LINE
8
BLACK
6
CONTINUOUS
10
5.77836
20
-2.89542
11
5.78204
21
-2.89469
0
LINE
8
BLACK
6
CONTINUOUS
10
5.78204
20
-2.89469
11
5.81796
21
-2.89469
0
LINE
8
BLACK
6
CONTINUOUS
10
5.81796
20
-2.89469
11
5.82163
21
-2.89542
0
LINE
8
BLACK
6
CONTINUOUS
10
5.82163
20
-2.78123
11
5.82475
21
-2.78331
0
LINE
8
BLACK
6
CONTINUOUS
10
5.82475
20
-2.78331
11
5.82683
21
-2.78643
0
LINE
8
BLACK
6
CONTINUOUS
10
5.82683
20
-2.78643
11
5.82756
21
-2.7901
0
LINE
8
BLACK
6
CONTINUOUS
10
5.82756
20
-2.7901
11
5.82756
21
-2.80929
0
LINE
8
BLACK
6
CONTINUOUS
10
5.82756
20
-2.80929
11
5.82683
21
-2.81297
0
LINE
8
BLACK
6
CONTINUOUS
10
5.82683
20
-2.81297
11
5.82475
21
-2.81608
0
LINE
8
BLACK
6
CONTINUOUS
10
5.82475
20
-2.81608
11
5.82163
21
-2.81816
0
LINE
8
BLACK
6
CONTINUOUS
10
5.82163
20
-2.81816
11
5.81796
21
-2.81889
0
LINE
8
BLACK
6
CONTINUOUS
10
5.81796
20
-2.81889
11
5.78204
21
-2.81889
0
LINE
8
BLACK
6
CONTINUOUS
10
5.78204
20
-2.81889
11
5.77836
21
-2.81816
0
LINE
8
BLACK
6
CONTINUOUS
10
5.77836
20
-2.81816
11
5.77525
21
-2.81608
0
LINE
8
BLACK
6
CONTINUOUS
10
5.77525
20
-2.81608
11
5.77317
21
-2.81297
0
LINE
8
BLACK
6
CONTINUOUS
10
5.77317
20
-2.81297
11
5.77244
21
-2.80929
0
LINE
8
BLACK
6
CONTINUOUS
10
5.77244
20
-2.80929
11
5.77244
21
-2.7901
0
LINE
8
BLACK
6
CONTINUOUS
10
5.77244
20
-2.7901
11
5.77317
21
-2.78643
0
LINE
8
BLACK
6
CONTINUOUS
10
5.77317
20
-2.78643
11
5.77525
21
-2.78331
0
LINE
8
BLACK
6
CONTINUOUS
10
5.77525
20
-2.78331
11
5.77836
21
-2.78123
0
LINE
8
BLACK
6
CONTINUOUS
10
5.77836
20
-2.78123
11
5.78204
21
-2.7805
0
LINE
8
BLACK
6
CONTINUOUS
10
5.78204
20
-2.7805
11
5.81796
21
-2.7805
0
LINE
8
BLACK
6
CONTINUOUS
10
5.81796
20
-2.7805
11
5.82163
21
-2.78123
0
LINE
8
BLACK
6
CONTINUOUS
10
5.72164
20
-2.78123
11
5.72475
21
-2.78331
0
LINE
8
BLACK
6
CONTINUOUS
10
5.72475
20
-2.78331
11
5.72683
21
-2.78643
0
LINE
8
BLACK
6
CONTINUOUS
10
5.72683
20
-2.78643
11
5.72756
21
-2.7901
0
LINE
8
BLACK
6
CONTINUOUS
10
5.72756
20
-2.7901
11
5.72756
21
-2.80929
0
LINE
8
BLACK
6
CONTINUOUS
10
5.72756
20
-2.80929
11
5.72683
21
-2.81297
0
LINE
8
BLACK
6
CONTINUOUS
10
5.72683
20
-2.81297
11
5.72475
21
-2.81608
0
LINE
8
BLACK
6
CONTINUOUS
10
5.72475
20
-2.81608
11
5.72164
21
-2.81816
0
LINE
8
BLACK
6
CONTINUOUS
10
5.72164
20
-2.81816
11
5.71796
21
-2.81889
0
LINE
8
BLACK
6
CONTINUOUS
10
5.71796
20
-2.81889
11
5.68204
21
-2.81889
0
LINE
8
BLACK
6
CONTINUOUS
10
5.68204
20
-2.81889
11
5.67836
21
-2.81816
0
LINE
8
BLACK
6
CONTINUOUS
10
5.67836
20
-2.81816
11
5.67525
21
-2.81608
0
LINE
8
BLACK
6
CONTINUOUS
10
5.67525
20
-2.81608
11
5.67317
21
-2.81297
0
LINE
8
BLACK
6
CONTINUOUS
10
5.67317
20
-2.81297
11
5.67244
21
-2.80929
0
LINE
8
BLACK
6
CONTINUOUS
10
5.67244
20
-2.80929
11
5.67244
21
-2.7901
0
LINE
8
BLACK
6
CONTINUOUS
10
5.67244
20
-2.7901
11
5.67317
21
-2.78643
0
LINE
8
BLACK
6
CONTINUOUS
10
5.67317
20
-2.78643
11
5.67525
21
-2.78331
0
LINE
8
BLACK
6
CONTINUOUS
10
5.67525
20
-2.78331
11
5.67836
21
-2.78123
0
LINE
8
BLACK
6
CONTINUOUS
10
5.67836
20
-2.78123
11
5.68204
21
-2.7805
0
LINE
8
BLACK
6
CONTINUOUS
10
5.68204
20
-2.7805
11
5.71796
21
-2.7805
0
LINE
8
BLACK
6
CONTINUOUS
10
5.71796
20
-2.7805
11
5.72164
21
-2.78123
0
LINE
8
BLACK
6
CONTINUOUS
10
6.21369
20
-2.80424
11
6.13889
21
-2.80424
0
LINE
8
BLACK
6
CONTINUOUS
10
6.13889
20
-2.80424
11
6.13889
21
-2.70976
0
LINE
8
BLACK
6
CONTINUOUS
10
6.13889
20
-2.70976
11
6.21369
21
-2.70976
0
LINE
8
BLACK
6
CONTINUOUS
10
6.21369
20
-2.70976
11
6.21369
21
-2.80424
0
LINE
8
BLACK
6
CONTINUOUS
10
6.37511
20
-2.80424
11
6.30031
21
-2.80424
0
LINE
8
BLACK
6
CONTINUOUS
10
6.30031
20
-2.80424
11
6.30031
21
-2.70976
0
LINE
8
BLACK
6
CONTINUOUS
10
6.30031
20
-2.70976
11
6.37511
21
-2.70976
0
LINE
8
BLACK
6
CONTINUOUS
10
6.37511
20
-2.70976
11
6.37511
21
-2.80424
0
LINE
8
BLACK
6
CONTINUOUS
10
5.82163
20
-2.70742
11
5.82475
21
-2.7095
0
LINE
8
BLACK
6
CONTINUOUS
10
5.82475
20
-2.7095
11
5.82683
21
-2.71261
0
LINE
8
BLACK
6
CONTINUOUS
10
5.82683
20
-2.71261
11
5.82756
21
-2.71628
0
LINE
8
BLACK
6
CONTINUOUS
10
5.82756
20
-2.71628
11
5.82756
21
-2.73547
0
LINE
8
BLACK
6
CONTINUOUS
10
5.82756
20
-2.73547
11
5.82683
21
-2.73915
0
LINE
8
BLACK
6
CONTINUOUS
10
5.82683
20
-2.73915
11
5.82475
21
-2.74226
0
LINE
8
BLACK
6
CONTINUOUS
10
5.82475
20
-2.74226
11
5.82163
21
-2.74434
0
LINE
8
BLACK
6
CONTINUOUS
10
5.82163
20
-2.74434
11
5.81796
21
-2.74507
0
LINE
8
BLACK
6
CONTINUOUS
10
5.81796
20
-2.74507
11
5.78204
21
-2.74507
0
LINE
8
BLACK
6
CONTINUOUS
10
5.78204
20
-2.74507
11
5.77836
21
-2.74434
0
LINE
8
BLACK
6
CONTINUOUS
10
5.77836
20
-2.74434
11
5.77525
21
-2.74226
0
LINE
8
BLACK
6
CONTINUOUS
10
5.77525
20
-2.74226
11
5.77317
21
-2.73915
0
LINE
8
BLACK
6
CONTINUOUS
10
5.77317
20
-2.73915
11
5.77244
21
-2.73547
0
LINE
8
BLACK
6
CONTINUOUS
10
5.77244
20
-2.73547
11
5.77244
21
-2.71628
0
LINE
8
BLACK
6
CONTINUOUS
10
5.77244
20
-2.71628
11
5.77317
21
-2.71261
0
LINE
8
BLACK
6
CONTINUOUS
10
5.77317
20
-2.71261
11
5.77525
21
-2.7095
0
LINE
8
BLACK
6
CONTINUOUS
10
5.77525
20
-2.7095
11
5.77836
21
-2.70742
0
LINE
8
BLACK
6
CONTINUOUS
10
5.77836
20
-2.70742
11
5.78204
21
-2.70669
0
LINE
8
BLACK
6
CONTINUOUS
10
5.78204
20
-2.70669
11
5.81796
21
-2.70669
0
LINE
8
BLACK
6
CONTINUOUS
10
5.81796
20
-2.70669
11
5.82163
21
-2.70742
0
LINE
8
BLACK
6
CONTINUOUS
10
5.72164
20
-2.70742
11
5.72475
21
-2.7095
0
LINE
8
BLACK
6
CONTINUOUS
10
5.72475
20
-2.7095
11
5.72683
21
-2.71261
0
LINE
8
BLACK
6
CONTINUOUS
10
5.72683
20
-2.71261
11
5.72756
21
-2.71628
0
LINE
8
BLACK
6
CONTINUOUS
10
5.72756
20
-2.71628
11
5.72756
21
-2.73547
0
LINE
8
BLACK
6
CONTINUOUS
10
5.72756
20
-2.73547
11
5.72683
21
-2.73915
0
LINE
8
BLACK
6
CONTINUOUS
10
5.72683
20
-2.73915
11
5.72475
21
-2.74226
0
LINE
8
BLACK
6
CONTINUOUS
10
5.72475
20
-2.74226
11
5.72164
21
-2.74434
0
LINE
8
BLACK
6
CONTINUOUS
10
5.72164
20
-2.74434
11
5.71796
21
-2.74507
0
LINE
8
BLACK
6
CONTINUOUS
10
5.71796
20
-2.74507
11
5.68204
21
-2.74507
0
LINE
8
BLACK
6
CONTINUOUS
10
5.68204
20
-2.74507
11
5.67836
21
-2.74434
0
LINE
8
BLACK
6
CONTINUOUS
10
5.67836
20
-2.74434
11
5.67525
21
-2.74226
0
LINE
8
BLACK
6
CONTINUOUS
10
5.67525
20
-2.74226
11
5.67317
21
-2.73915
0
LINE
8
BLACK
6
CONTINUOUS
10
5.67317
20
-2.73915
11
5.67244
21
-2.73547
0
LINE
8
BLACK
6
CONTINUOUS
10
5.67244
20
-2.73547
11
5.67244
21
-2.71628
0
LINE
8
BLACK
6
CONTINUOUS
10
5.67244
20
-2.71628
11
5.67317
21
-2.71261
0
LINE
8
BLACK
6
CONTINUOUS
10
5.67317
20
-2.71261
11
5.67525
21
-2.7095
0
LINE
8
BLACK
6
CONTINUOUS
10
5.67525
20
-2.7095
11
5.67836
21
-2.70742
0
LINE
8
BLACK
6
CONTINUOUS
10
5.67836
20
-2.70742
11
5.68204
21
-2.70669
0
LINE
8
BLACK
6
CONTINUOUS
10
5.68204
20
-2.70669
11
5.71796
21
-2.70669
0
LINE
8
BLACK
6
CONTINUOUS
10
5.71796
20
-2.70669
11
5.72164
21
-2.70742
  0
ENDSEC
  0
EOF
