  0
SECTION
  2
HEADER
  9
$ANGBASE
  50
0.0
  9
$ANGDIR
  70
1
  9
$MEASUREMENT
  70
0
  0
ENDSEC
  0
SECTION
  2
TABLES
  0
TABLE
  2
LTYPE
  70
4
  0
LTYPE
  5
40F
  2
CONTINUOUS
  70
0
  3
Solid line
  72
65
  73
0
  40
0.0
  0
LTYPE
  5
410
  2
DASHDOT
 70
0
  3
Dash Dot ____ _ ____ _
 72
65
 73
4
 40
2.0
 49
1.25
 49
-0.25
 49
0.25
 49
-0.25
  0
LTYPE
  5
411
  2
DASHED
 70
0
  3
Dashed __ __ __ __ __
 72
65
 73
2
 40
0.75
 49
0.5
 49
-0.25
  0
LTYPE
  5
43B
  2
DOTTED
 70
0
  3
Dotted .  .  .  .
 72
65
 73
2
 40
0.2
 49
0.0
 49
-0.2
  0
ENDTAB
  0
TABLE
  2
STYLE
  70
4
  0
STYLE
  2
KICAD
  70
0
  40
0
  41
1
  42
1
  50
0
  71
0
  3
isocp.shx
  0
STYLE
  2
KICADB
  70
0
  40
0
  41
1
  42
1
  50
0
  71
0
  3
isocp.shx
  0
STYLE
  2
KICADI
  70
0
  40
0
  41
1
  42
1
  50
15
  71
0
  3
isocp.shx
  0
STYLE
  2
KICADBI
  70
0
  40
0
  41
1
  42
1
  50
15
  71
0
  3
isocp.shx
  0
ENDTAB
  0
TABLE
  2
LAYER
  70
1
  0
LAYER
  2
BLACK
  70
0
  62
7
  6
CONTINUOUS
  0
ENDTAB
  0
ENDSEC
  0
SECTION
  2
ENTITIES
0
LINE
8
BLACK
6
CONTINUOUS
10
5.2104317716535435
20
-3.5283977559055115
11
5.2109644488188973
21
-3.5289304330708662
0
LINE
8
BLACK
6
CONTINUOUS
10
5.2109644488188973
20
-3.5289304330708662
11
5.2110393700787396
21
-3.5293070866141734
0
LINE
8
BLACK
6
CONTINUOUS
10
5.2110393700787396
20
-3.5293070866141734
11
5.2110393700787396
21
-3.561787401574803
0
LINE
8
BLACK
6
CONTINUOUS
10
5.2110393700787396
20
-3.561787401574803
11
5.2789527559055118
21
-3.561787401574803
0
LINE
8
BLACK
6
CONTINUOUS
10
5.2789527559055118
20
-3.561787401574803
11
5.2793294094488186
21
-3.5618623228346458
0
LINE
8
BLACK
6
CONTINUOUS
10
5.2793294094488186
20
-3.5618623228346458
11
5.2796487401574801
21
-3.5620756692913385
0
LINE
8
BLACK
6
CONTINUOUS
10
5.2796487401574801
20
-3.5620756692913385
11
5.3249243307086616
21
-3.6073512992125982
0
LINE
8
BLACK
6
CONTINUOUS
10
5.3249243307086616
20
-3.6073512992125982
11
5.3251376771653538
21
-3.607670590551181
0
LINE
8
BLACK
6
CONTINUOUS
10
5.3251376771653538
20
-3.607670590551181
11
5.325212598425197
21
-3.6080472440944882
0
LINE
8
BLACK
6
CONTINUOUS
10
5.325212598425197
20
-3.6080472440944882
11
5.325212598425197
21
-3.9092283464566928
0
LINE
8
BLACK
6
CONTINUOUS
10
5.325212598425197
20
-3.9092283464566928
11
5.3251376771653538
21
-3.909605
0
LINE
8
BLACK
6
CONTINUOUS
10
5.3251376771653538
20
-3.909605
11
5.324605
21
-3.9101376771653542
0
LINE
8
BLACK
6
CONTINUOUS
10
5.324605
20
-3.9101376771653542
11
5.3242283464566924
21
-3.910212598425197
0
LINE
8
BLACK
6
CONTINUOUS
10
5.3242283464566924
20
-3.910212598425197
11
5.2110393700787396
21
-3.910212598425197
0
LINE
8
BLACK
6
CONTINUOUS
10
5.2110393700787396
20
-3.910212598425197
11
5.2110393700787396
21
-3.9426929133858266
0
LINE
8
BLACK
6
CONTINUOUS
10
5.2110393700787396
20
-3.9426929133858266
11
5.2109644488188973
21
-3.9430695669291338
0
LINE
8
BLACK
6
CONTINUOUS
10
5.2109644488188973
20
-3.9430695669291338
11
5.2104317716535435
21
-3.943602244094488
0
LINE
8
BLACK
6
CONTINUOUS
10
5.2104317716535435
20
-3.943602244094488
11
5.2100551181102359
21
-3.9436771653543308
0
LINE
8
BLACK
6
CONTINUOUS
10
5.2100551181102359
20
-3.9436771653543308
11
5.0919448818897637
21
-3.9436771653543308
0
LINE
8
BLACK
6
CONTINUOUS
10
5.0919448818897637
20
-3.9436771653543308
11
5.0915682283464569
21
-3.943602244094488
0
LINE
8
BLACK
6
CONTINUOUS
10
5.0915682283464569
20
-3.943602244094488
11
5.0910355511811023
21
-3.9430695669291338
0
LINE
8
BLACK
6
CONTINUOUS
10
5.0910355511811023
20
-3.9430695669291338
11
5.09096062992126
21
-3.9426929133858266
0
LINE
8
BLACK
6
CONTINUOUS
10
5.09096062992126
20
-3.9426929133858266
11
5.09096062992126
21
-3.910212598425197
0
LINE
8
BLACK
6
CONTINUOUS
10
5.09096062992126
20
-3.910212598425197
11
4.9777716535433072
21
-3.910212598425197
0
LINE
8
BLACK
6
CONTINUOUS
10
4.9777716535433072
20
-3.910212598425197
11
4.9773949999999996
21
-3.9101376771653542
0
LINE
8
BLACK
6
CONTINUOUS
10
4.9773949999999996
20
-3.9101376771653542
11
4.9768623228346458
21
-3.909605
0
LINE
8
BLACK
6
CONTINUOUS
10
4.9768623228346458
20
-3.909605
11
4.9767874015748026
21
-3.9092283464566928
0
LINE
8
BLACK
6
CONTINUOUS
10
4.9767874015748026
20
-3.9092283464566928
11
4.9767874015748026
21
-3.6080472440944882
0
LINE
8
BLACK
6
CONTINUOUS
10
4.9767874015748026
20
-3.6080472440944882
11
4.9768623228346458
21
-3.607670590551181
0
LINE
8
BLACK
6
CONTINUOUS
10
4.9768623228346458
20
-3.607670590551181
11
4.977075669291338
21
-3.6073512598425195
0
LINE
8
BLACK
6
CONTINUOUS
10
4.977075669291338
20
-3.6073512598425195
11
5.0223512992125983
21
-3.5620756692913385
0
LINE
8
BLACK
6
CONTINUOUS
10
5.0223512992125983
20
-3.5620756692913385
11
5.022670590551181
21
-3.5618623228346458
0
LINE
8
BLACK
6
CONTINUOUS
10
5.022670590551181
20
-3.5618623228346458
11
5.0230472440944878
21
-3.561787401574803
0
LINE
8
BLACK
6
CONTINUOUS
10
5.0230472440944878
20
-3.561787401574803
11
5.09096062992126
21
-3.561787401574803
0
LINE
8
BLACK
6
CONTINUOUS
10
5.09096062992126
20
-3.561787401574803
11
5.09096062992126
21
-3.5293070866141734
0
LINE
8
BLACK
6
CONTINUOUS
10
5.09096062992126
20
-3.5293070866141734
11
5.0910355511811023
21
-3.5289304330708662
0
LINE
8
BLACK
6
CONTINUOUS
10
5.0910355511811023
20
-3.5289304330708662
11
5.0915682283464569
21
-3.5283977559055115
0
LINE
8
BLACK
6
CONTINUOUS
10
5.0915682283464569
20
-3.5283977559055115
11
5.0919448818897637
21
-3.5283228346456692
0
LINE
8
BLACK
6
CONTINUOUS
10
5.0919448818897637
20
-3.5283228346456692
11
5.2100551181102359
21
-3.5283228346456692
0
LINE
8
BLACK
6
CONTINUOUS
10
5.2100551181102359
20
-3.5283228346456692
11
5.2104317716535435
21
-3.5283977559055115
0
LINE
8
BLACK
6
CONTINUOUS
10
5.0929291338582674
20
-3.5302913385826771
11
5.0929291338582674
21
-3.5627716535433072
0
LINE
8
BLACK
6
CONTINUOUS
10
5.0929291338582674
20
-3.5627716535433072
11
5.0928542125984251
21
-3.5631483070866139
0
LINE
8
BLACK
6
CONTINUOUS
10
5.0928542125984251
20
-3.5631483070866139
11
5.0923215354330704
21
-3.5636809842519686
0
LINE
8
BLACK
6
CONTINUOUS
10
5.0923215354330704
20
-3.5636809842519686
11
5.0919448818897637
21
-3.5637559055118109
0
LINE
8
BLACK
6
CONTINUOUS
10
5.0919448818897637
20
-3.5637559055118109
11
5.0234549212598427
21
-3.5637559055118109
0
LINE
8
BLACK
6
CONTINUOUS
10
5.0234549212598427
20
-3.5637559055118109
11
4.9787559055118109
21
-3.6084549212598422
0
LINE
8
BLACK
6
CONTINUOUS
10
4.9787559055118109
20
-3.6084549212598422
11
4.9787559055118109
21
-3.9082440944881891
0
LINE
8
BLACK
6
CONTINUOUS
10
4.9787559055118109
20
-3.9082440944881891
11
5.0919448818897637
21
-3.9082440944881891
0
LINE
8
BLACK
6
CONTINUOUS
10
5.0919448818897637
20
-3.9082440944881891
11
5.0923215354330704
21
-3.9083190157480314
0
LINE
8
BLACK
6
CONTINUOUS
10
5.0923215354330704
20
-3.9083190157480314
11
5.0928542125984251
21
-3.9088516929133856
0
LINE
8
BLACK
6
CONTINUOUS
10
5.0928542125984251
20
-3.9088516929133856
11
5.0929291338582674
21
-3.9092283464566928
0
LINE
8
BLACK
6
CONTINUOUS
10
5.0929291338582674
20
-3.9092283464566928
11
5.0929291338582674
21
-3.9417086614173229
0
LINE
8
BLACK
6
CONTINUOUS
10
5.0929291338582674
20
-3.9417086614173229
11
5.2090708661417322
21
-3.9417086614173229
0
LINE
8
BLACK
6
CONTINUOUS
10
5.2090708661417322
20
-3.9417086614173229
11
5.2090708661417322
21
-3.9092283464566928
0
LINE
8
BLACK
6
CONTINUOUS
10
5.2090708661417322
20
-3.9092283464566928
11
5.2091457874015745
21
-3.9088516929133856
0
LINE
8
BLACK
6
CONTINUOUS
10
5.2091457874015745
20
-3.9088516929133856
11
5.2096784645669292
21
-3.9083190157480314
0
LINE
8
BLACK
6
CONTINUOUS
10
5.2096784645669292
20
-3.9083190157480314
11
5.2100551181102359
21
-3.9082440944881891
0
LINE
8
BLACK
6
CONTINUOUS
10
5.2100551181102359
20
-3.9082440944881891
11
5.3232440944881887
21
-3.9082440944881891
0
LINE
8
BLACK
6
CONTINUOUS
10
5.3232440944881887
20
-3.9082440944881891
11
5.3232440944881887
21
-3.6084549212598422
0
LINE
8
BLACK
6
CONTINUOUS
10
5.3232440944881887
20
-3.6084549212598422
11
5.278545039370079
21
-3.5637559055118109
0
LINE
8
BLACK
6
CONTINUOUS
10
5.278545039370079
20
-3.5637559055118109
11
5.2100551181102359
21
-3.5637559055118109
0
LINE
8
BLACK
6
CONTINUOUS
10
5.2100551181102359
20
-3.5637559055118109
11
5.2096784645669292
21
-3.5636809842519686
0
LINE
8
BLACK
6
CONTINUOUS
10
5.2096784645669292
20
-3.5636809842519686
11
5.2091457874015745
21
-3.5631483070866139
0
LINE
8
BLACK
6
CONTINUOUS
10
5.2091457874015745
20
-3.5631483070866139
11
5.2090708661417322
21
-3.5627716535433072
0
LINE
8
BLACK
6
CONTINUOUS
10
5.2090708661417322
20
-3.5627716535433072
11
5.2090708661417322
21
-3.5302913385826771
0
LINE
8
BLACK
6
CONTINUOUS
10
5.2090708661417322
20
-3.5302913385826771
11
5.0929291338582674
21
-3.5302913385826771
0
LINE
8
BLACK
6
CONTINUOUS
10
4.8621390157480313
20
-3.7034265354330707
11
4.8749443307086615
21
-3.7063492519685037
0
LINE
8
BLACK
6
CONTINUOUS
10
4.8749443307086615
20
-3.7063492519685037
11
4.8873418503937005
21
-3.7106873228346458
0
LINE
8
BLACK
6
CONTINUOUS
10
4.8873418503937005
20
-3.7106873228346458
11
4.8991757480314959
21
-3.7163862204724407
0
LINE
8
BLACK
6
CONTINUOUS
10
4.8991757480314959
20
-3.7163862204724407
11
4.9102971259842523
21
-3.723374251968504
0
LINE
8
BLACK
6
CONTINUOUS
10
4.9102971259842523
20
-3.723374251968504
11
4.9205661811023624
21
-3.7315635826771651
0
LINE
8
BLACK
6
CONTINUOUS
10
4.9205661811023624
20
-3.7315635826771651
11
4.9298537401574798
21
-3.7408511417322834
0
LINE
8
BLACK
6
CONTINUOUS
10
4.9298537401574798
20
-3.7408511417322834
11
4.9380430708661418
21
-3.7511201968503936
0
LINE
8
BLACK
6
CONTINUOUS
10
4.9380430708661418
20
-3.7511201968503936
11
4.9450311023622042
21
-3.7622415748031495
0
LINE
8
BLACK
6
CONTINUOUS
10
4.9450311023622042
20
-3.7622415748031495
11
4.9507300000000001
21
-3.7740754724409449
0
LINE
8
BLACK
6
CONTINUOUS
10
4.9507300000000001
20
-3.7740754724409449
11
4.9550680708661412
21
-3.7864729921259843
0
LINE
8
BLACK
6
CONTINUOUS
10
4.9550680708661412
20
-3.7864729921259843
11
4.9579907874015747
21
-3.7992783070866141
0
LINE
8
BLACK
6
CONTINUOUS
10
4.9579907874015747
20
-3.7992783070866141
11
4.9594614173228342
21
-3.8123303149606298
0
LINE
8
BLACK
6
CONTINUOUS
10
4.9594614173228342
20
-3.8123303149606298
11
4.9594614173228342
21
-3.8254649606299211
0
LINE
8
BLACK
6
CONTINUOUS
10
4.9594614173228342
20
-3.8254649606299211
11
4.9579907874015747
21
-3.8385169685039369
0
LINE
8
BLACK
6
CONTINUOUS
10
4.9579907874015747
20
-3.8385169685039369
11
4.9550680708661412
21
-3.8513222834645666
0
LINE
8
BLACK
6
CONTINUOUS
10
4.9550680708661412
20
-3.8513222834645666
11
4.9507300000000001
21
-3.8637198031496061
0
LINE
8
BLACK
6
CONTINUOUS
10
4.9507300000000001
20
-3.8637198031496061
11
4.9450311023622042
21
-3.8755537007874015
0
LINE
8
BLACK
6
CONTINUOUS
10
4.9450311023622042
20
-3.8755537007874015
11
4.9380430708661418
21
-3.8866750787401574
0
LINE
8
BLACK
6
CONTINUOUS
10
4.9380430708661418
20
-3.8866750787401574
11
4.9298537401574798
21
-3.8969441338582675
0
LINE
8
BLACK
6
CONTINUOUS
10
4.9298537401574798
20
-3.8969441338582675
11
4.9205661811023624
21
-3.9062316929133858
0
LINE
8
BLACK
6
CONTINUOUS
10
4.9205661811023624
20
-3.9062316929133858
11
4.9102971259842523
21
-3.9144210236220474
0
LINE
8
BLACK
6
CONTINUOUS
10
4.9102971259842523
20
-3.9144210236220474
11
4.8991757480314959
21
-3.9214090551181102
0
LINE
8
BLACK
6
CONTINUOUS
10
4.8991757480314959
20
-3.9214090551181102
11
4.8873418503937005
21
-3.9271079527559056
0
LINE
8
BLACK
6
CONTINUOUS
10
4.8873418503937005
20
-3.9271079527559056
11
4.8749443307086615
21
-3.9314460236220472
0
LINE
8
BLACK
6
CONTINUOUS
10
4.8749443307086615
20
-3.9314460236220472
11
4.8621390157480313
21
-3.9343687401574803
0
LINE
8
BLACK
6
CONTINUOUS
10
4.8621390157480313
20
-3.9343687401574803
11
4.849087007874016
21
-3.9358393700787402
0
LINE
8
BLACK
6
CONTINUOUS
10
4.849087007874016
20
-3.9358393700787402
11
4.8359523622047247
21
-3.9358393700787402
0
LINE
8
BLACK
6
CONTINUOUS
10
4.8359523622047247
20
-3.9358393700787402
11
4.8229003543307085
21
-3.9343687401574803
0
LINE
8
BLACK
6
CONTINUOUS
10
4.8229003543307085
20
-3.9343687401574803
11
4.8100950393700783
21
-3.9314460236220472
0
LINE
8
BLACK
6
CONTINUOUS
10
4.8100950393700783
20
-3.9314460236220472
11
4.7976975196850393
21
-3.9271079527559056
0
LINE
8
BLACK
6
CONTINUOUS
10
4.7976975196850393
20
-3.9271079527559056
11
4.7858636220472439
21
-3.9214090551181102
0
LINE
8
BLACK
6
CONTINUOUS
10
4.7858636220472439
20
-3.9214090551181102
11
4.7747422440944884
21
-3.9144210236220474
0
LINE
8
BLACK
6
CONTINUOUS
10
4.7747422440944884
20
-3.9144210236220474
11
4.7644731889763783
21
-3.9062316929133858
0
LINE
8
BLACK
6
CONTINUOUS
10
4.7644731889763783
20
-3.9062316929133858
11
4.75518562992126
21
-3.8969441338582675
0
LINE
8
BLACK
6
CONTINUOUS
10
4.75518562992126
20
-3.8969441338582675
11
4.746996299212598
21
-3.8866750787401574
0
LINE
8
BLACK
6
CONTINUOUS
10
4.746996299212598
20
-3.8866750787401574
11
4.7400082677165356
21
-3.8755537007874015
0
LINE
8
BLACK
6
CONTINUOUS
10
4.7400082677165356
20
-3.8755537007874015
11
4.7343093700787398
21
-3.8637198031496061
0
LINE
8
BLACK
6
CONTINUOUS
10
4.7343093700787398
20
-3.8637198031496061
11
4.7299712992125986
21
-3.8513222834645666
0
LINE
8
BLACK
6
CONTINUOUS
10
4.7299712992125986
20
-3.8513222834645666
11
4.7270485826771651
21
-3.8385169685039369
0
LINE
8
BLACK
6
CONTINUOUS
10
4.7270485826771651
20
-3.8385169685039369
11
4.7255779527559056
21
-3.8254649606299211
0
LINE
8
BLACK
6
CONTINUOUS
10
4.7255779527559056
20
-3.8254649606299211
11
4.7255779527559056
21
-3.8124305511811021
0
LINE
8
BLACK
6
CONTINUOUS
10
4.7255779527559056
20
-3.8124305511811021
11
4.7255779527559056
21
-3.8123303149606298
0
LINE
8
BLACK
6
CONTINUOUS
10
4.7255779527559056
20
-3.8123303149606298
11
4.7270485826771651
21
-3.7992783070866141
0
LINE
8
BLACK
6
CONTINUOUS
10
4.7270485826771651
20
-3.7992783070866141
11
4.7299712992125986
21
-3.7864729921259843
0
LINE
8
BLACK
6
CONTINUOUS
10
4.7299712992125986
20
-3.7864729921259843
11
4.7343093700787398
21
-3.7740754724409449
0
LINE
8
BLACK
6
CONTINUOUS
10
4.7343093700787398
20
-3.7740754724409449
11
4.7400082677165356
21
-3.7622415748031495
0
LINE
8
BLACK
6
CONTINUOUS
10
4.7400082677165356
20
-3.7622415748031495
11
4.746996299212598
21
-3.7511201968503936
0
LINE
8
BLACK
6
CONTINUOUS
10
4.746996299212598
20
-3.7511201968503936
11
4.75518562992126
21
-3.7408511417322834
0
LINE
8
BLACK
6
CONTINUOUS
10
4.75518562992126
20
-3.7408511417322834
11
4.7644731889763783
21
-3.7315635826771651
0
LINE
8
BLACK
6
CONTINUOUS
10
4.7644731889763783
20
-3.7315635826771651
11
4.7747422440944884
21
-3.723374251968504
0
LINE
8
BLACK
6
CONTINUOUS
10
4.7747422440944884
20
-3.723374251968504
11
4.7858636220472439
21
-3.7163862204724407
0
LINE
8
BLACK
6
CONTINUOUS
10
4.7858636220472439
20
-3.7163862204724407
11
4.7976975196850393
21
-3.7106873228346458
0
LINE
8
BLACK
6
CONTINUOUS
10
4.7976975196850393
20
-3.7106873228346458
11
4.8100950393700783
21
-3.7063492519685037
0
LINE
8
BLACK
6
CONTINUOUS
10
4.8100950393700783
20
-3.7063492519685037
11
4.8229003543307085
21
-3.7034265354330707
0
LINE
8
BLACK
6
CONTINUOUS
10
4.8229003543307085
20
-3.7034265354330707
11
4.8359523622047247
21
-3.7019559055118108
0
LINE
8
BLACK
6
CONTINUOUS
10
4.8359523622047247
20
-3.7019559055118108
11
4.849087007874016
21
-3.7019559055118108
0
LINE
8
BLACK
6
CONTINUOUS
10
4.849087007874016
20
-3.7019559055118108
11
4.8621390157480313
21
-3.7034265354330707
0
LINE
8
BLACK
6
CONTINUOUS
10
4.7273622047244093
20
-3.8253647244094489
11
4.728810354330709
21
-3.8382176377952755
0
LINE
8
BLACK
6
CONTINUOUS
10
4.728810354330709
20
-3.8382176377952755
11
4.7316885039370078
21
-3.850827559055118
0
LINE
8
BLACK
6
CONTINUOUS
10
4.7316885039370078
20
-3.850827559055118
11
4.735960393700787
21
-3.8630359448818896
0
LINE
8
BLACK
6
CONTINUOUS
10
4.735960393700787
20
-3.8630359448818896
11
4.7415723622047246
21
-3.8746892519685039
0
LINE
8
BLACK
6
CONTINUOUS
10
4.7415723622047246
20
-3.8746892519685039
11
4.7484537795275585
21
-3.8856409842519684
0
LINE
8
BLACK
6
CONTINUOUS
10
4.7484537795275585
20
-3.8856409842519684
11
4.75651811023622
21
-3.8957533464566927
0
LINE
8
BLACK
6
CONTINUOUS
10
4.75651811023622
20
-3.8957533464566927
11
4.7656639763779527
21
-3.904899212598425
0
LINE
8
BLACK
6
CONTINUOUS
10
4.7656639763779527
20
-3.904899212598425
11
4.775776338582677
21
-3.9129635433070864
0
LINE
8
BLACK
6
CONTINUOUS
10
4.775776338582677
20
-3.9129635433070864
11
4.7867280708661415
21
-3.9198449606299213
0
LINE
8
BLACK
6
CONTINUOUS
10
4.7867280708661415
20
-3.9198449606299213
11
4.7983813779527562
21
-3.9254569291338584
0
LINE
8
BLACK
6
CONTINUOUS
10
4.7983813779527562
20
-3.9254569291338584
11
4.8105897637795278
21
-3.9297288188976376
0
LINE
8
BLACK
6
CONTINUOUS
10
4.8105897637795278
20
-3.9297288188976376
11
4.8231996850393699
21
-3.9326069685039369
0
LINE
8
BLACK
6
CONTINUOUS
10
4.8231996850393699
20
-3.9326069685039369
11
4.836052598425197
21
-3.9340551181102361
0
LINE
8
BLACK
6
CONTINUOUS
10
4.836052598425197
20
-3.9340551181102361
11
4.8489867716535429
21
-3.9340551181102361
0
LINE
8
BLACK
6
CONTINUOUS
10
4.8489867716535429
20
-3.9340551181102361
11
4.8618396850393699
21
-3.9326069685039369
0
LINE
8
BLACK
6
CONTINUOUS
10
4.8618396850393699
20
-3.9326069685039369
11
4.8744496062992129
21
-3.9297288188976376
0
LINE
8
BLACK
6
CONTINUOUS
10
4.8744496062992129
20
-3.9297288188976376
11
4.8866579921259845
21
-3.9254569291338584
0
LINE
8
BLACK
6
CONTINUOUS
10
4.8866579921259845
20
-3.9254569291338584
11
4.8983112992125983
21
-3.9198449606299213
0
LINE
8
BLACK
6
CONTINUOUS
10
4.8983112992125983
20
-3.9198449606299213
11
4.9092630314960628
21
-3.9129635433070864
0
LINE
8
BLACK
6
CONTINUOUS
10
4.9092630314960628
20
-3.9129635433070864
11
4.9193753937007871
21
-3.904899212598425
0
LINE
8
BLACK
6
CONTINUOUS
10
4.9193753937007871
20
-3.904899212598425
11
4.9285212598425199
21
-3.8957533464566927
0
LINE
8
BLACK
6
CONTINUOUS
10
4.9285212598425199
20
-3.8957533464566927
11
4.9365855905511813
21
-3.8856409842519684
0
LINE
8
BLACK
6
CONTINUOUS
10
4.9365855905511813
20
-3.8856409842519684
11
4.9434670078740153
21
-3.8746892519685039
0
LINE
8
BLACK
6
CONTINUOUS
10
4.9434670078740153
20
-3.8746892519685039
11
4.9490789763779528
21
-3.8630359448818896
0
LINE
8
BLACK
6
CONTINUOUS
10
4.9490789763779528
20
-3.8630359448818896
11
4.953350866141732
21
-3.850827559055118
0
LINE
8
BLACK
6
CONTINUOUS
10
4.953350866141732
20
-3.850827559055118
11
4.9562290157480318
21
-3.8382176377952755
0
LINE
8
BLACK
6
CONTINUOUS
10
4.9562290157480318
20
-3.8382176377952755
11
4.9576771653543306
21
-3.8253647244094489
0
LINE
8
BLACK
6
CONTINUOUS
10
4.9576771653543306
20
-3.8253647244094489
11
4.9576771653543306
21
-3.8124305511811021
0
LINE
8
BLACK
6
CONTINUOUS
10
4.9576771653543306
20
-3.8124305511811021
11
4.9562290157480318
21
-3.7995776377952755
0
LINE
8
BLACK
6
CONTINUOUS
10
4.9562290157480318
20
-3.7995776377952755
11
4.953350866141732
21
-3.786967716535433
0
LINE
8
BLACK
6
CONTINUOUS
10
4.953350866141732
20
-3.786967716535433
11
4.9490789763779528
21
-3.7747593307086613
0
LINE
8
BLACK
6
CONTINUOUS
10
4.9490789763779528
20
-3.7747593307086613
11
4.9434670078740153
21
-3.763106023622047
0
LINE
8
BLACK
6
CONTINUOUS
10
4.9434670078740153
20
-3.763106023622047
11
4.9365855905511813
21
-3.7521542913385826
0
LINE
8
BLACK
6
CONTINUOUS
10
4.9365855905511813
20
-3.7521542913385826
11
4.9285212598425199
21
-3.7420419291338582
0
LINE
8
BLACK
6
CONTINUOUS
10
4.9285212598425199
20
-3.7420419291338582
11
4.9193753937007871
21
-3.732896062992126
0
LINE
8
BLACK
6
CONTINUOUS
10
4.9193753937007871
20
-3.732896062992126
11
4.9092630314960628
21
-3.7248317322834645
0
LINE
8
BLACK
6
CONTINUOUS
10
4.9092630314960628
20
-3.7248317322834645
11
4.8983112992125983
21
-3.7179503149606297
0
LINE
8
BLACK
6
CONTINUOUS
10
4.8983112992125983
20
-3.7179503149606297
11
4.8866579921259845
21
-3.712338346456693
0
LINE
8
BLACK
6
CONTINUOUS
10
4.8866579921259845
20
-3.712338346456693
11
4.8744496062992129
21
-3.7080664566929133
0
LINE
8
BLACK
6
CONTINUOUS
10
4.8744496062992129
20
-3.7080664566929133
11
4.8618396850393699
21
-3.7051883070866141
0
LINE
8
BLACK
6
CONTINUOUS
10
4.8618396850393699
20
-3.7051883070866141
11
4.8489867716535429
21
-3.7037401574803148
0
LINE
8
BLACK
6
CONTINUOUS
10
4.8489867716535429
20
-3.7037401574803148
11
4.836052598425197
21
-3.7037401574803148
0
LINE
8
BLACK
6
CONTINUOUS
10
4.836052598425197
20
-3.7037401574803148
11
4.8231996850393699
21
-3.7051883070866141
0
LINE
8
BLACK
6
CONTINUOUS
10
4.8231996850393699
20
-3.7051883070866141
11
4.8105897637795278
21
-3.7080664566929133
0
LINE
8
BLACK
6
CONTINUOUS
10
4.8105897637795278
20
-3.7080664566929133
11
4.7983813779527562
21
-3.712338346456693
0
LINE
8
BLACK
6
CONTINUOUS
10
4.7983813779527562
20
-3.712338346456693
11
4.7867280708661415
21
-3.7179503149606297
0
LINE
8
BLACK
6
CONTINUOUS
10
4.7867280708661415
20
-3.7179503149606297
11
4.775776338582677
21
-3.7248317322834645
0
LINE
8
BLACK
6
CONTINUOUS
10
4.775776338582677
20
-3.7248317322834645
11
4.7656639763779527
21
-3.732896062992126
0
LINE
8
BLACK
6
CONTINUOUS
10
4.7656639763779527
20
-3.732896062992126
11
4.75651811023622
21
-3.7420419291338582
0
LINE
8
BLACK
6
CONTINUOUS
10
4.75651811023622
20
-3.7420419291338582
11
4.7484537795275585
21
-3.7521542913385826
0
LINE
8
BLACK
6
CONTINUOUS
10
4.7484537795275585
20
-3.7521542913385826
11
4.7415723622047246
21
-3.763106023622047
0
LINE
8
BLACK
6
CONTINUOUS
10
4.7415723622047246
20
-3.763106023622047
11
4.735960393700787
21
-3.7747593307086613
0
LINE
8
BLACK
6
CONTINUOUS
10
4.735960393700787
20
-3.7747593307086613
11
4.7316885039370078
21
-3.786967716535433
0
LINE
8
BLACK
6
CONTINUOUS
10
4.7316885039370078
20
-3.786967716535433
11
4.728810354330709
21
-3.7995776377952755
0
LINE
8
BLACK
6
CONTINUOUS
10
4.728810354330709
20
-3.7995776377952755
11
4.7273622047244093
21
-3.8124305511811021
0
LINE
8
BLACK
6
CONTINUOUS
10
4.7273622047244093
20
-3.8124305511811021
11
4.7273622047244093
21
-3.8253647244094489
0
LINE
8
BLACK
6
CONTINUOUS
10
6.988123267716535
20
-3.7034265354330707
11
7.0009285826771652
21
-3.7063492519685037
0
LINE
8
BLACK
6
CONTINUOUS
10
7.0009285826771652
20
-3.7063492519685037
11
7.0133261023622042
21
-3.7106873228346458
0
LINE
8
BLACK
6
CONTINUOUS
10
7.0133261023622042
20
-3.7106873228346458
11
7.0251599999999996
21
-3.7163862204724407
0
LINE
8
BLACK
6
CONTINUOUS
10
7.0251599999999996
20
-3.7163862204724407
11
7.036281377952756
21
-3.723374251968504
0
LINE
8
BLACK
6
CONTINUOUS
10
7.036281377952756
20
-3.723374251968504
11
7.0465504330708661
21
-3.7315635826771651
0
LINE
8
BLACK
6
CONTINUOUS
10
7.0465504330708661
20
-3.7315635826771651
11
7.0558379921259844
21
-3.7408511417322834
0
LINE
8
BLACK
6
CONTINUOUS
10
7.0558379921259844
20
-3.7408511417322834
11
7.0640273228346455
21
-3.7511201968503936
0
LINE
8
BLACK
6
CONTINUOUS
10
7.0640273228346455
20
-3.7511201968503936
11
7.0710153543307088
21
-3.7622415748031495
0
LINE
8
BLACK
6
CONTINUOUS
10
7.0710153543307088
20
-3.7622415748031495
11
7.0767142519685038
21
-3.7740754724409449
0
LINE
8
BLACK
6
CONTINUOUS
10
7.0767142519685038
20
-3.7740754724409449
11
7.0810523228346458
21
-3.7864729921259843
0
LINE
8
BLACK
6
CONTINUOUS
10
7.0810523228346458
20
-3.7864729921259843
11
7.0839750393700784
21
-3.7992783070866141
0
LINE
8
BLACK
6
CONTINUOUS
10
7.0839750393700784
20
-3.7992783070866141
11
7.0854456692913388
21
-3.8123303149606298
0
LINE
8
BLACK
6
CONTINUOUS
10
7.0854456692913388
20
-3.8123303149606298
11
7.0854456692913388
21
-3.8254649606299211
0
LINE
8
BLACK
6
CONTINUOUS
10
7.0854456692913388
20
-3.8254649606299211
11
7.0839750393700784
21
-3.8385169685039369
0
LINE
8
BLACK
6
CONTINUOUS
10
7.0839750393700784
20
-3.8385169685039369
11
7.0810523228346458
21
-3.8513222834645666
0
LINE
8
BLACK
6
CONTINUOUS
10
7.0810523228346458
20
-3.8513222834645666
11
7.0767142519685038
21
-3.8637198031496061
0
LINE
8
BLACK
6
CONTINUOUS
10
7.0767142519685038
20
-3.8637198031496061
11
7.0710153543307088
21
-3.8755537007874015
0
LINE
8
BLACK
6
CONTINUOUS
10
7.0710153543307088
20
-3.8755537007874015
11
7.0640273228346455
21
-3.8866750787401574
0
LINE
8
BLACK
6
CONTINUOUS
10
7.0640273228346455
20
-3.8866750787401574
11
7.0558379921259844
21
-3.8969441338582675
0
LINE
8
BLACK
6
CONTINUOUS
10
7.0558379921259844
20
-3.8969441338582675
11
7.0465504330708661
21
-3.9062316929133858
0
LINE
8
BLACK
6
CONTINUOUS
10
7.0465504330708661
20
-3.9062316929133858
11
7.036281377952756
21
-3.9144210236220474
0
LINE
8
BLACK
6
CONTINUOUS
10
7.036281377952756
20
-3.9144210236220474
11
7.0251599999999996
21
-3.9214090551181102
0
LINE
8
BLACK
6
CONTINUOUS
10
7.0251599999999996
20
-3.9214090551181102
11
7.0133261023622042
21
-3.9271079527559056
0
LINE
8
BLACK
6
CONTINUOUS
10
7.0133261023622042
20
-3.9271079527559056
11
7.0009285826771652
21
-3.9314460236220472
0
LINE
8
BLACK
6
CONTINUOUS
10
7.0009285826771652
20
-3.9314460236220472
11
6.988123267716535
21
-3.9343687401574803
0
LINE
8
BLACK
6
CONTINUOUS
10
6.988123267716535
20
-3.9343687401574803
11
6.9750712598425197
21
-3.9358393700787402
0
LINE
8
BLACK
6
CONTINUOUS
10
6.9750712598425197
20
-3.9358393700787402
11
6.9619366141732284
21
-3.9358393700787402
0
LINE
8
BLACK
6
CONTINUOUS
10
6.9619366141732284
20
-3.9358393700787402
11
6.9488846062992122
21
-3.9343687401574803
0
LINE
8
BLACK
6
CONTINUOUS
10
6.9488846062992122
20
-3.9343687401574803
11
6.9360792913385829
21
-3.9314460236220472
0
LINE
8
BLACK
6
CONTINUOUS
10
6.9360792913385829
20
-3.9314460236220472
11
6.923681771653543
21
-3.9271079527559056
0
LINE
8
BLACK
6
CONTINUOUS
10
6.923681771653543
20
-3.9271079527559056
11
6.9118478740157476
21
-3.9214090551181102
0
LINE
8
BLACK
6
CONTINUOUS
10
6.9118478740157476
20
-3.9214090551181102
11
6.9007264960629922
21
-3.9144210236220474
0
LINE
8
BLACK
6
CONTINUOUS
10
6.9007264960629922
20
-3.9144210236220474
11
6.890457440944882
21
-3.9062316929133858
0
LINE
8
BLACK
6
CONTINUOUS
10
6.890457440944882
20
-3.9062316929133858
11
6.8811698818897638
21
-3.8969441338582675
0
LINE
8
BLACK
6
CONTINUOUS
10
6.8811698818897638
20
-3.8969441338582675
11
6.8729805511811026
21
-3.8866750787401574
0
LINE
8
BLACK
6
CONTINUOUS
10
6.8729805511811026
20
-3.8866750787401574
11
6.8659925196850393
21
-3.8755537007874015
0
LINE
8
BLACK
6
CONTINUOUS
10
6.8659925196850393
20
-3.8755537007874015
11
6.8602936220472444
21
-3.8637198031496061
0
LINE
8
BLACK
6
CONTINUOUS
10
6.8602936220472444
20
-3.8637198031496061
11
6.8559555511811023
21
-3.8513222834645666
0
LINE
8
BLACK
6
CONTINUOUS
10
6.8559555511811023
20
-3.8513222834645666
11
6.8530328346456688
21
-3.8385169685039369
0
LINE
8
BLACK
6
CONTINUOUS
10
6.8530328346456688
20
-3.8385169685039369
11
6.8515622047244094
21
-3.8254649606299211
0
LINE
8
BLACK
6
CONTINUOUS
10
6.8515622047244094
20
-3.8254649606299211
11
6.8515622047244094
21
-3.8124305511811021
0
LINE
8
BLACK
6
CONTINUOUS
10
6.8515622047244094
20
-3.8124305511811021
11
6.8515622047244094
21
-3.8123303149606298
0
LINE
8
BLACK
6
CONTINUOUS
10
6.8515622047244094
20
-3.8123303149606298
11
6.8530328346456688
21
-3.7992783070866141
0
LINE
8
BLACK
6
CONTINUOUS
10
6.8530328346456688
20
-3.7992783070866141
11
6.8559555511811023
21
-3.7864729921259843
0
LINE
8
BLACK
6
CONTINUOUS
10
6.8559555511811023
20
-3.7864729921259843
11
6.8602936220472444
21
-3.7740754724409449
0
LINE
8
BLACK
6
CONTINUOUS
10
6.8602936220472444
20
-3.7740754724409449
11
6.8659925196850393
21
-3.7622415748031495
0
LINE
8
BLACK
6
CONTINUOUS
10
6.8659925196850393
20
-3.7622415748031495
11
6.8729805511811026
21
-3.7511201968503936
0
LINE
8
BLACK
6
CONTINUOUS
10
6.8729805511811026
20
-3.7511201968503936
11
6.8811698818897638
21
-3.7408511417322834
0
LINE
8
BLACK
6
CONTINUOUS
10
6.8811698818897638
20
-3.7408511417322834
11
6.890457440944882
21
-3.7315635826771651
0
LINE
8
BLACK
6
CONTINUOUS
10
6.890457440944882
20
-3.7315635826771651
11
6.9007264960629922
21
-3.723374251968504
0
LINE
8
BLACK
6
CONTINUOUS
10
6.9007264960629922
20
-3.723374251968504
11
6.9118478740157476
21
-3.7163862204724407
0
LINE
8
BLACK
6
CONTINUOUS
10
6.9118478740157476
20
-3.7163862204724407
11
6.923681771653543
21
-3.7106873228346458
0
LINE
8
BLACK
6
CONTINUOUS
10
6.923681771653543
20
-3.7106873228346458
11
6.9360792913385829
21
-3.7063492519685037
0
LINE
8
BLACK
6
CONTINUOUS
10
6.9360792913385829
20
-3.7063492519685037
11
6.9488846062992122
21
-3.7034265354330707
0
LINE
8
BLACK
6
CONTINUOUS
10
6.9488846062992122
20
-3.7034265354330707
11
6.9619366141732284
21
-3.7019559055118108
0
LINE
8
BLACK
6
CONTINUOUS
10
6.9619366141732284
20
-3.7019559055118108
11
6.9750712598425197
21
-3.7019559055118108
0
LINE
8
BLACK
6
CONTINUOUS
10
6.9750712598425197
20
-3.7019559055118108
11
6.988123267716535
21
-3.7034265354330707
0
LINE
8
BLACK
6
CONTINUOUS
10
6.853346456692913
20
-3.8253647244094489
11
6.8547946062992127
21
-3.8382176377952755
0
LINE
8
BLACK
6
CONTINUOUS
10
6.8547946062992127
20
-3.8382176377952755
11
6.8576727559055115
21
-3.850827559055118
0
LINE
8
BLACK
6
CONTINUOUS
10
6.8576727559055115
20
-3.850827559055118
11
6.8619446456692907
21
-3.8630359448818896
0
LINE
8
BLACK
6
CONTINUOUS
10
6.8619446456692907
20
-3.8630359448818896
11
6.8675566141732283
21
-3.8746892519685039
0
LINE
8
BLACK
6
CONTINUOUS
10
6.8675566141732283
20
-3.8746892519685039
11
6.8744380314960631
21
-3.8856409842519684
0
LINE
8
BLACK
6
CONTINUOUS
10
6.8744380314960631
20
-3.8856409842519684
11
6.8825023622047246
21
-3.8957533464566927
0
LINE
8
BLACK
6
CONTINUOUS
10
6.8825023622047246
20
-3.8957533464566927
11
6.8916482283464564
21
-3.904899212598425
0
LINE
8
BLACK
6
CONTINUOUS
10
6.8916482283464564
20
-3.904899212598425
11
6.9017605905511807
21
-3.9129635433070864
0
LINE
8
BLACK
6
CONTINUOUS
10
6.9017605905511807
20
-3.9129635433070864
11
6.9127123228346452
21
-3.9198449606299213
0
LINE
8
BLACK
6
CONTINUOUS
10
6.9127123228346452
20
-3.9198449606299213
11
6.9243656299212599
21
-3.9254569291338584
0
LINE
8
BLACK
6
CONTINUOUS
10
6.9243656299212599
20
-3.9254569291338584
11
6.9365740157480316
21
-3.9297288188976376
0
LINE
8
BLACK
6
CONTINUOUS
10
6.9365740157480316
20
-3.9297288188976376
11
6.9491839370078736
21
-3.9326069685039369
0
LINE
8
BLACK
6
CONTINUOUS
10
6.9491839370078736
20
-3.9326069685039369
11
6.9620368503937007
21
-3.9340551181102361
0
LINE
8
BLACK
6
CONTINUOUS
10
6.9620368503937007
20
-3.9340551181102361
11
6.9749710236220475
21
-3.9340551181102361
0
LINE
8
BLACK
6
CONTINUOUS
10
6.9749710236220475
20
-3.9340551181102361
11
6.9878239370078736
21
-3.9326069685039369
0
LINE
8
BLACK
6
CONTINUOUS
10
6.9878239370078736
20
-3.9326069685039369
11
7.0004338582677166
21
-3.9297288188976376
0
LINE
8
BLACK
6
CONTINUOUS
10
7.0004338582677166
20
-3.9297288188976376
11
7.0126422440944882
21
-3.9254569291338584
0
LINE
8
BLACK
6
CONTINUOUS
10
7.0126422440944882
20
-3.9254569291338584
11
7.024295551181102
21
-3.9198449606299213
0
LINE
8
BLACK
6
CONTINUOUS
10
7.024295551181102
20
-3.9198449606299213
11
7.0352472834645665
21
-3.9129635433070864
0
LINE
8
BLACK
6
CONTINUOUS
10
7.0352472834645665
20
-3.9129635433070864
11
7.0453596456692908
21
-3.904899212598425
0
LINE
8
BLACK
6
CONTINUOUS
10
7.0453596456692908
20
-3.904899212598425
11
7.0545055118110236
21
-3.8957533464566927
0
LINE
8
BLACK
6
CONTINUOUS
10
7.0545055118110236
20
-3.8957533464566927
11
7.062569842519685
21
-3.8856409842519684
0
LINE
8
BLACK
6
CONTINUOUS
10
7.062569842519685
20
-3.8856409842519684
11
7.0694512598425199
21
-3.8746892519685039
0
LINE
8
BLACK
6
CONTINUOUS
10
7.0694512598425199
20
-3.8746892519685039
11
7.0750632283464565
21
-3.8630359448818896
0
LINE
8
BLACK
6
CONTINUOUS
10
7.0750632283464565
20
-3.8630359448818896
11
7.0793351181102357
21
-3.850827559055118
0
LINE
8
BLACK
6
CONTINUOUS
10
7.0793351181102357
20
-3.850827559055118
11
7.0822132677165355
21
-3.8382176377952755
0
LINE
8
BLACK
6
CONTINUOUS
10
7.0822132677165355
20
-3.8382176377952755
11
7.0836614173228343
21
-3.8253647244094489
0
LINE
8
BLACK
6
CONTINUOUS
10
7.0836614173228343
20
-3.8253647244094489
11
7.0836614173228343
21
-3.8124305511811021
0
LINE
8
BLACK
6
CONTINUOUS
10
7.0836614173228343
20
-3.8124305511811021
11
7.0822132677165355
21
-3.7995776377952755
0
LINE
8
BLACK
6
CONTINUOUS
10
7.0822132677165355
20
-3.7995776377952755
11
7.0793351181102357
21
-3.786967716535433
0
LINE
8
BLACK
6
CONTINUOUS
10
7.0793351181102357
20
-3.786967716535433
11
7.0750632283464565
21
-3.7747593307086613
0
LINE
8
BLACK
6
CONTINUOUS
10
7.0750632283464565
20
-3.7747593307086613
11
7.0694512598425199
21
-3.763106023622047
0
LINE
8
BLACK
6
CONTINUOUS
10
7.0694512598425199
20
-3.763106023622047
11
7.062569842519685
21
-3.7521542913385826
0
LINE
8
BLACK
6
CONTINUOUS
10
7.062569842519685
20
-3.7521542913385826
11
7.0545055118110236
21
-3.7420419291338582
0
LINE
8
BLACK
6
CONTINUOUS
10
7.0545055118110236
20
-3.7420419291338582
11
7.0453596456692908
21
-3.732896062992126
0
LINE
8
BLACK
6
CONTINUOUS
10
7.0453596456692908
20
-3.732896062992126
11
7.0352472834645665
21
-3.7248317322834645
0
LINE
8
BLACK
6
CONTINUOUS
10
7.0352472834645665
20
-3.7248317322834645
11
7.024295551181102
21
-3.7179503149606297
0
LINE
8
BLACK
6
CONTINUOUS
10
7.024295551181102
20
-3.7179503149606297
11
7.0126422440944882
21
-3.712338346456693
0
LINE
8
BLACK
6
CONTINUOUS
10
7.0126422440944882
20
-3.712338346456693
11
7.0004338582677166
21
-3.7080664566929133
0
LINE
8
BLACK
6
CONTINUOUS
10
7.0004338582677166
20
-3.7080664566929133
11
6.9878239370078736
21
-3.7051883070866141
0
LINE
8
BLACK
6
CONTINUOUS
10
6.9878239370078736
20
-3.7051883070866141
11
6.9749710236220475
21
-3.7037401574803148
0
LINE
8
BLACK
6
CONTINUOUS
10
6.9749710236220475
20
-3.7037401574803148
11
6.9620368503937007
21
-3.7037401574803148
0
LINE
8
BLACK
6
CONTINUOUS
10
6.9620368503937007
20
-3.7037401574803148
11
6.9491839370078736
21
-3.7051883070866141
0
LINE
8
BLACK
6
CONTINUOUS
10
6.9491839370078736
20
-3.7051883070866141
11
6.9365740157480316
21
-3.7080664566929133
0
LINE
8
BLACK
6
CONTINUOUS
10
6.9365740157480316
20
-3.7080664566929133
11
6.9243656299212599
21
-3.712338346456693
0
LINE
8
BLACK
6
CONTINUOUS
10
6.9243656299212599
20
-3.712338346456693
11
6.9127123228346452
21
-3.7179503149606297
0
LINE
8
BLACK
6
CONTINUOUS
10
6.9127123228346452
20
-3.7179503149606297
11
6.9017605905511807
21
-3.7248317322834645
0
LINE
8
BLACK
6
CONTINUOUS
10
6.9017605905511807
20
-3.7248317322834645
11
6.8916482283464564
21
-3.732896062992126
0
LINE
8
BLACK
6
CONTINUOUS
10
6.8916482283464564
20
-3.732896062992126
11
6.8825023622047246
21
-3.7420419291338582
0
LINE
8
BLACK
6
CONTINUOUS
10
6.8825023622047246
20
-3.7420419291338582
11
6.8744380314960631
21
-3.7521542913385826
0
LINE
8
BLACK
6
CONTINUOUS
10
6.8744380314960631
20
-3.7521542913385826
11
6.8675566141732283
21
-3.763106023622047
0
LINE
8
BLACK
6
CONTINUOUS
10
6.8675566141732283
20
-3.763106023622047
11
6.8619446456692907
21
-3.7747593307086613
0
LINE
8
BLACK
6
CONTINUOUS
10
6.8619446456692907
20
-3.7747593307086613
11
6.8576727559055115
21
-3.786967716535433
0
LINE
8
BLACK
6
CONTINUOUS
10
6.8576727559055115
20
-3.786967716535433
11
6.8547946062992127
21
-3.7995776377952755
0
LINE
8
BLACK
6
CONTINUOUS
10
6.8547946062992127
20
-3.7995776377952755
11
6.853346456692913
21
-3.8124305511811021
0
LINE
8
BLACK
6
CONTINUOUS
10
6.853346456692913
20
-3.8124305511811021
11
6.853346456692913
21
-3.8253647244094489
0
LINE
8
BLACK
6
CONTINUOUS
10
6.1516364960629923
20
-3.6782245275590548
11
6.1521691732283461
21
-3.6787572047244095
0
LINE
8
BLACK
6
CONTINUOUS
10
6.1521691732283461
20
-3.6787572047244095
11
6.1522440944881884
21
-3.6791338582677167
0
LINE
8
BLACK
6
CONTINUOUS
10
6.1522440944881884
20
-3.6791338582677167
11
6.1522440944881884
21
-3.9212598425196847
0
LINE
8
BLACK
6
CONTINUOUS
10
6.1522440944881884
20
-3.9212598425196847
11
6.1521691732283461
21
-3.9216364960629919
0
LINE
8
BLACK
6
CONTINUOUS
10
6.1521691732283461
20
-3.9216364960629919
11
6.1516364960629923
21
-3.9221691732283466
0
LINE
8
BLACK
6
CONTINUOUS
10
6.1516364960629923
20
-3.9221691732283466
11
6.1512598425196847
21
-3.9222440944881889
0
LINE
8
BLACK
6
CONTINUOUS
10
6.1512598425196847
20
-3.9222440944881889
11
5.9091338582677162
21
-3.9222440944881889
0
LINE
8
BLACK
6
CONTINUOUS
10
5.9091338582677162
20
-3.9222440944881889
11
5.9087572047244095
21
-3.9221691732283466
0
LINE
8
BLACK
6
CONTINUOUS
10
5.9087572047244095
20
-3.9221691732283466
11
5.9082245275590548
21
-3.9216364960629919
0
LINE
8
BLACK
6
CONTINUOUS
10
5.9082245275590548
20
-3.9216364960629919
11
5.9081496062992125
21
-3.9212598425196847
0
LINE
8
BLACK
6
CONTINUOUS
10
5.9081496062992125
20
-3.9212598425196847
11
5.9081496062992125
21
-3.6791338582677167
0
LINE
8
BLACK
6
CONTINUOUS
10
5.9081496062992125
20
-3.6791338582677167
11
5.9082245275590548
21
-3.6787572047244095
0
LINE
8
BLACK
6
CONTINUOUS
10
5.9082245275590548
20
-3.6787572047244095
11
5.9087572047244095
21
-3.6782245275590548
0
LINE
8
BLACK
6
CONTINUOUS
10
5.9087572047244095
20
-3.6782245275590548
11
5.9091338582677162
21
-3.6781496062992125
0
LINE
8
BLACK
6
CONTINUOUS
10
5.9091338582677162
20
-3.6781496062992125
11
6.1512598425196847
21
-3.6781496062992125
0
LINE
8
BLACK
6
CONTINUOUS
10
6.1512598425196847
20
-3.6781496062992125
11
6.1516364960629923
21
-3.6782245275590548
0
LINE
8
BLACK
6
CONTINUOUS
10
5.9101181102362199
20
-3.6801181102362204
11
5.9101181102362199
21
-3.920275590551181
0
LINE
8
BLACK
6
CONTINUOUS
10
5.9101181102362199
20
-3.920275590551181
11
6.150275590551181
21
-3.920275590551181
0
LINE
8
BLACK
6
CONTINUOUS
10
6.150275590551181
20
-3.920275590551181
11
6.150275590551181
21
-3.6801181102362204
0
LINE
8
BLACK
6
CONTINUOUS
10
6.150275590551181
20
-3.6801181102362204
11
5.9101181102362199
21
-3.6801181102362204
0
LINE
8
BLACK
6
CONTINUOUS
10
5.8260616929133855
20
-3.6768308267716536
11
5.8265943700787401
21
-3.6773635039370078
0
LINE
8
BLACK
6
CONTINUOUS
10
5.8265943700787401
20
-3.6773635039370078
11
5.8266692913385825
21
-3.677740157480315
0
LINE
8
BLACK
6
CONTINUOUS
10
5.8266692913385825
20
-3.677740157480315
11
5.8266692913385825
21
-3.9198661417322835
0
LINE
8
BLACK
6
CONTINUOUS
10
5.8266692913385825
20
-3.9198661417322835
11
5.8265943700787401
21
-3.9202427952755903
0
LINE
8
BLACK
6
CONTINUOUS
10
5.8265943700787401
20
-3.9202427952755903
11
5.8260616929133855
21
-3.9207754724409449
0
LINE
8
BLACK
6
CONTINUOUS
10
5.8260616929133855
20
-3.9207754724409449
11
5.8256850393700788
21
-3.9208503937007873
0
LINE
8
BLACK
6
CONTINUOUS
10
5.8256850393700788
20
-3.9208503937007873
11
5.4851338582677167
21
-3.9208503937007873
0
LINE
8
BLACK
6
CONTINUOUS
10
5.4851338582677167
20
-3.9208503937007873
11
5.4847572047244091
21
-3.9207754724409449
0
LINE
8
BLACK
6
CONTINUOUS
10
5.4847572047244091
20
-3.9207754724409449
11
5.4842245275590553
21
-3.9202427952755903
0
LINE
8
BLACK
6
CONTINUOUS
10
5.4842245275590553
20
-3.9202427952755903
11
5.4841496062992121
21
-3.9198661417322835
0
LINE
8
BLACK
6
CONTINUOUS
10
5.4841496062992121
20
-3.9198661417322835
11
5.4841496062992121
21
-3.677740157480315
0
LINE
8
BLACK
6
CONTINUOUS
10
5.4841496062992121
20
-3.677740157480315
11
5.4842245275590553
21
-3.6773635039370078
0
LINE
8
BLACK
6
CONTINUOUS
10
5.4842245275590553
20
-3.6773635039370078
11
5.4847572047244091
21
-3.6768308267716536
0
LINE
8
BLACK
6
CONTINUOUS
10
5.4847572047244091
20
-3.6768308267716536
11
5.4851338582677167
21
-3.6767559055118109
0
LINE
8
BLACK
6
CONTINUOUS
10
5.4851338582677167
20
-3.6767559055118109
11
5.8256850393700788
21
-3.6767559055118109
0
LINE
8
BLACK
6
CONTINUOUS
10
5.8256850393700788
20
-3.6767559055118109
11
5.8260616929133855
21
-3.6768308267716536
0
LINE
8
BLACK
6
CONTINUOUS
10
5.4861181102362204
20
-3.6787244094488187
11
5.4861181102362204
21
-3.9188818897637794
0
LINE
8
BLACK
6
CONTINUOUS
10
5.4861181102362204
20
-3.9188818897637794
11
5.824700787401575
21
-3.9188818897637794
0
LINE
8
BLACK
6
CONTINUOUS
10
5.824700787401575
20
-3.9188818897637794
11
5.824700787401575
21
-3.6787244094488187
0
LINE
8
BLACK
6
CONTINUOUS
10
5.824700787401575
20
-3.6787244094488187
11
5.4861181102362204
21
-3.6787244094488187
0
LINE
8
BLACK
6
CONTINUOUS
10
5.4137142519685035
20
-3.8263833070866142
11
5.4210229133858263
21
-3.8294106692913386
0
LINE
8
BLACK
6
CONTINUOUS
10
5.4210229133858263
20
-3.8294106692913386
11
5.4276005118110238
21
-3.8338056692913387
0
LINE
8
BLACK
6
CONTINUOUS
10
5.4276005118110238
20
-3.8338056692913387
11
5.4331943307086616
21
-3.8393994881889761
0
LINE
8
BLACK
6
CONTINUOUS
10
5.4331943307086616
20
-3.8393994881889761
11
5.4375893307086614
21
-3.8459770866141731
0
LINE
8
BLACK
6
CONTINUOUS
10
5.4375893307086614
20
-3.8459770866141731
11
5.4406166929133857
21
-3.8532857480314959
0
LINE
8
BLACK
6
CONTINUOUS
10
5.4406166929133857
20
-3.8532857480314959
11
5.4421599999999994
21
-3.8610445669291336
0
LINE
8
BLACK
6
CONTINUOUS
10
5.4421599999999994
20
-3.8610445669291336
11
5.4421599999999994
21
-3.868955433070866
0
LINE
8
BLACK
6
CONTINUOUS
10
5.4421599999999994
20
-3.868955433070866
11
5.4406166929133857
21
-3.8767142519685041
0
LINE
8
BLACK
6
CONTINUOUS
10
5.4406166929133857
20
-3.8767142519685041
11
5.4375893307086614
21
-3.8840229133858268
0
LINE
8
BLACK
6
CONTINUOUS
10
5.4375893307086614
20
-3.8840229133858268
11
5.4331943307086616
21
-3.8906005118110234
0
LINE
8
BLACK
6
CONTINUOUS
10
5.4331943307086616
20
-3.8906005118110234
11
5.4276005118110238
21
-3.8961943307086613
0
LINE
8
BLACK
6
CONTINUOUS
10
5.4276005118110238
20
-3.8961943307086613
11
5.4210229133858263
21
-3.9005893307086614
0
LINE
8
BLACK
6
CONTINUOUS
10
5.4210229133858263
20
-3.9005893307086614
11
5.4137142519685035
21
-3.9036166929133858
0
LINE
8
BLACK
6
CONTINUOUS
10
5.4137142519685035
20
-3.9036166929133858
11
5.4059554330708659
21
-3.90516
0
LINE
8
BLACK
6
CONTINUOUS
10
5.4059554330708659
20
-3.90516
11
5.3980445669291335
21
-3.90516
0
LINE
8
BLACK
6
CONTINUOUS
10
5.3980445669291335
20
-3.90516
11
5.3902857480314958
21
-3.9036166929133858
0
LINE
8
BLACK
6
CONTINUOUS
10
5.3902857480314958
20
-3.9036166929133858
11
5.3829770866141731
21
-3.9005893307086614
0
LINE
8
BLACK
6
CONTINUOUS
10
5.3829770866141731
20
-3.9005893307086614
11
5.3763994881889765
21
-3.8961943307086613
0
LINE
8
BLACK
6
CONTINUOUS
10
5.3763994881889765
20
-3.8961943307086613
11
5.3708056692913386
21
-3.8906005118110234
0
LINE
8
BLACK
6
CONTINUOUS
10
5.3708056692913386
20
-3.8906005118110234
11
5.366410669291338
21
-3.8840229133858268
0
LINE
8
BLACK
6
CONTINUOUS
10
5.366410669291338
20
-3.8840229133858268
11
5.3633833070866137
21
-3.8767142519685041
0
LINE
8
BLACK
6
CONTINUOUS
10
5.3633833070866137
20
-3.8767142519685041
11
5.3618399999999999
21
-3.868955433070866
0
LINE
8
BLACK
6
CONTINUOUS
10
5.3618399999999999
20
-3.868955433070866
11
5.3618399999999999
21
-3.8612193307086615
0
LINE
8
BLACK
6
CONTINUOUS
10
5.3618399999999999
20
-3.8612193307086615
11
5.3618399999999999
21
-3.8610445669291336
0
LINE
8
BLACK
6
CONTINUOUS
10
5.3618399999999999
20
-3.8610445669291336
11
5.3633833070866137
21
-3.8532857480314959
0
LINE
8
BLACK
6
CONTINUOUS
10
5.3633833070866137
20
-3.8532857480314959
11
5.366410669291338
21
-3.8459770866141731
0
LINE
8
BLACK
6
CONTINUOUS
10
5.366410669291338
20
-3.8459770866141731
11
5.3708056692913386
21
-3.8393994881889761
0
LINE
8
BLACK
6
CONTINUOUS
10
5.3708056692913386
20
-3.8393994881889761
11
5.3763994881889765
21
-3.8338056692913387
0
LINE
8
BLACK
6
CONTINUOUS
10
5.3763994881889765
20
-3.8338056692913387
11
5.3829770866141731
21
-3.8294106692913386
0
LINE
8
BLACK
6
CONTINUOUS
10
5.3829770866141731
20
-3.8294106692913386
11
5.3902857480314958
21
-3.8263833070866142
0
LINE
8
BLACK
6
CONTINUOUS
10
5.3902857480314958
20
-3.8263833070866142
11
5.3980445669291335
21
-3.82484
0
LINE
8
BLACK
6
CONTINUOUS
10
5.3980445669291335
20
-3.82484
11
5.4059554330708659
21
-3.82484
0
LINE
8
BLACK
6
CONTINUOUS
10
5.4059554330708659
20
-3.82484
11
5.4137142519685035
21
-3.8263833070866142
0
LINE
8
BLACK
6
CONTINUOUS
10
5.3636141732283464
20
-3.8687806692913385
11
5.3650892913385828
21
-3.8761967322834643
0
LINE
8
BLACK
6
CONTINUOUS
10
5.3650892913385828
20
-3.8761967322834643
11
5.367982913385827
21
-3.8831825196850391
0
LINE
8
BLACK
6
CONTINUOUS
10
5.367982913385827
20
-3.8831825196850391
11
5.3721837795275587
21
-3.8894695669291339
0
LINE
8
BLACK
6
CONTINUOUS
10
5.3721837795275587
20
-3.8894695669291339
11
5.3775304330708664
21
-3.8948162204724408
0
LINE
8
BLACK
6
CONTINUOUS
10
5.3775304330708664
20
-3.8948162204724408
11
5.3838174803149608
21
-3.8990170866141733
0
LINE
8
BLACK
6
CONTINUOUS
10
5.3838174803149608
20
-3.8990170866141733
11
5.3908032677165352
21
-3.9019107086614171
0
LINE
8
BLACK
6
CONTINUOUS
10
5.3908032677165352
20
-3.9019107086614171
11
5.3982193307086614
21
-3.9033858267716535
0
LINE
8
BLACK
6
CONTINUOUS
10
5.3982193307086614
20
-3.9033858267716535
11
5.4057806692913388
21
-3.9033858267716535
0
LINE
8
BLACK
6
CONTINUOUS
10
5.4057806692913388
20
-3.9033858267716535
11
5.4131967322834642
21
-3.9019107086614171
0
LINE
8
BLACK
6
CONTINUOUS
10
5.4131967322834642
20
-3.9019107086614171
11
5.4201825196850395
21
-3.8990170866141733
0
LINE
8
BLACK
6
CONTINUOUS
10
5.4201825196850395
20
-3.8990170866141733
11
5.4264695669291338
21
-3.8948162204724408
0
LINE
8
BLACK
6
CONTINUOUS
10
5.4264695669291338
20
-3.8948162204724408
11
5.4318162204724407
21
-3.8894695669291339
0
LINE
8
BLACK
6
CONTINUOUS
10
5.4318162204724407
20
-3.8894695669291339
11
5.4360170866141733
21
-3.8831825196850391
0
LINE
8
BLACK
6
CONTINUOUS
10
5.4360170866141733
20
-3.8831825196850391
11
5.4389107086614175
21
-3.8761967322834643
0
LINE
8
BLACK
6
CONTINUOUS
10
5.4389107086614175
20
-3.8761967322834643
11
5.4403858267716538
21
-3.8687806692913385
0
LINE
8
BLACK
6
CONTINUOUS
10
5.4403858267716538
20
-3.8687806692913385
11
5.4403858267716538
21
-3.8612193307086615
0
LINE
8
BLACK
6
CONTINUOUS
10
5.4403858267716538
20
-3.8612193307086615
11
5.4389107086614175
21
-3.8538032677165353
0
LINE
8
BLACK
6
CONTINUOUS
10
5.4389107086614175
20
-3.8538032677165353
11
5.4360170866141733
21
-3.8468174803149604
0
LINE
8
BLACK
6
CONTINUOUS
10
5.4360170866141733
20
-3.8468174803149604
11
5.4318162204724407
21
-3.8405304330708661
0
LINE
8
BLACK
6
CONTINUOUS
10
5.4318162204724407
20
-3.8405304330708661
11
5.4264695669291338
21
-3.8351837795275592
0
LINE
8
BLACK
6
CONTINUOUS
10
5.4264695669291338
20
-3.8351837795275592
11
5.4201825196850395
21
-3.8309829133858266
0
LINE
8
BLACK
6
CONTINUOUS
10
5.4201825196850395
20
-3.8309829133858266
11
5.4131967322834642
21
-3.8280892913385824
0
LINE
8
BLACK
6
CONTINUOUS
10
5.4131967322834642
20
-3.8280892913385824
11
5.4057806692913388
21
-3.8266141732283465
0
LINE
8
BLACK
6
CONTINUOUS
10
5.4057806692913388
20
-3.8266141732283465
11
5.3982193307086614
21
-3.8266141732283465
0
LINE
8
BLACK
6
CONTINUOUS
10
5.3982193307086614
20
-3.8266141732283465
11
5.3908032677165352
21
-3.8280892913385824
0
LINE
8
BLACK
6
CONTINUOUS
10
5.3908032677165352
20
-3.8280892913385824
11
5.3838174803149608
21
-3.8309829133858266
0
LINE
8
BLACK
6
CONTINUOUS
10
5.3838174803149608
20
-3.8309829133858266
11
5.3775304330708664
21
-3.8351837795275592
0
LINE
8
BLACK
6
CONTINUOUS
10
5.3775304330708664
20
-3.8351837795275592
11
5.3721837795275587
21
-3.8405304330708661
0
LINE
8
BLACK
6
CONTINUOUS
10
5.3721837795275587
20
-3.8405304330708661
11
5.367982913385827
21
-3.8468174803149604
0
LINE
8
BLACK
6
CONTINUOUS
10
5.367982913385827
20
-3.8468174803149604
11
5.3650892913385828
21
-3.8538032677165353
0
LINE
8
BLACK
6
CONTINUOUS
10
5.3650892913385828
20
-3.8538032677165353
11
5.3636141732283464
21
-3.8612193307086615
0
LINE
8
BLACK
6
CONTINUOUS
10
5.3636141732283464
20
-3.8612193307086615
11
5.3636141732283464
21
-3.8687806692913385
0
LINE
8
BLACK
6
CONTINUOUS
10
6.4544711417322835
20
-3.7193268897637792
11
6.4550038188976373
21
-3.7198595669291339
0
LINE
8
BLACK
6
CONTINUOUS
10
6.4550038188976373
20
-3.7198595669291339
11
6.4550787401574805
21
-3.7202362204724411
0
LINE
8
BLACK
6
CONTINUOUS
10
6.4550787401574805
20
-3.7202362204724411
11
6.4550787401574805
21
-3.899763779527559
0
LINE
8
BLACK
6
CONTINUOUS
10
6.4550787401574805
20
-3.899763779527559
11
6.4550038188976373
21
-3.9001404330708662
0
LINE
8
BLACK
6
CONTINUOUS
10
6.4550038188976373
20
-3.9001404330708662
11
6.4544711417322835
21
-3.9006731102362204
0
LINE
8
BLACK
6
CONTINUOUS
10
6.4544711417322835
20
-3.9006731102362204
11
6.4540944881889759
21
-3.9007480314960628
0
LINE
8
BLACK
6
CONTINUOUS
10
6.4540944881889759
20
-3.9007480314960628
11
6.3659055118110235
21
-3.9007480314960628
0
LINE
8
BLACK
6
CONTINUOUS
10
6.3659055118110235
20
-3.9007480314960628
11
6.3655288582677167
21
-3.9006731102362204
0
LINE
8
BLACK
6
CONTINUOUS
10
6.3655288582677167
20
-3.9006731102362204
11
6.3649961811023621
21
-3.9001404330708662
0
LINE
8
BLACK
6
CONTINUOUS
10
6.3649961811023621
20
-3.9001404330708662
11
6.3649212598425198
21
-3.899763779527559
0
LINE
8
BLACK
6
CONTINUOUS
10
6.3649212598425198
20
-3.899763779527559
11
6.3649212598425198
21
-3.7202362204724411
0
LINE
8
BLACK
6
CONTINUOUS
10
6.3649212598425198
20
-3.7202362204724411
11
6.3649961811023621
21
-3.7198595669291339
0
LINE
8
BLACK
6
CONTINUOUS
10
6.3649961811023621
20
-3.7198595669291339
11
6.3655288582677167
21
-3.7193268897637792
0
LINE
8
BLACK
6
CONTINUOUS
10
6.3655288582677167
20
-3.7193268897637792
11
6.3659055118110235
21
-3.7192519685039369
0
LINE
8
BLACK
6
CONTINUOUS
10
6.3659055118110235
20
-3.7192519685039369
11
6.4540944881889759
21
-3.7192519685039369
0
LINE
8
BLACK
6
CONTINUOUS
10
6.4540944881889759
20
-3.7192519685039369
11
6.4544711417322835
21
-3.7193268897637792
0
LINE
8
BLACK
6
CONTINUOUS
10
6.3668897637795272
20
-3.7212204724409448
11
6.3668897637795272
21
-3.8987795275590549
0
LINE
8
BLACK
6
CONTINUOUS
10
6.3668897637795272
20
-3.8987795275590549
11
6.4531102362204722
21
-3.8987795275590549
0
LINE
8
BLACK
6
CONTINUOUS
10
6.4531102362204722
20
-3.8987795275590549
11
6.4531102362204722
21
-3.7212204724409448
0
LINE
8
BLACK
6
CONTINUOUS
10
6.4531102362204722
20
-3.7212204724409448
11
6.3668897637795272
21
-3.7212204724409448
0
LINE
8
BLACK
6
CONTINUOUS
10
6.7717142519685041
20
-3.7913833070866141
11
6.7790229133858269
21
-3.7944106692913384
0
LINE
8
BLACK
6
CONTINUOUS
10
6.7790229133858269
20
-3.7944106692913384
11
6.7856005118110234
21
-3.7988056692913386
0
LINE
8
BLACK
6
CONTINUOUS
10
6.7856005118110234
20
-3.7988056692913386
11
6.7911943307086613
21
-3.8043994881889764
0
LINE
8
BLACK
6
CONTINUOUS
10
6.7911943307086613
20
-3.8043994881889764
11
6.795589330708661
21
-3.810977086614173
0
LINE
8
BLACK
6
CONTINUOUS
10
6.795589330708661
20
-3.810977086614173
11
6.7986166929133853
21
-3.8182857480314958
0
LINE
8
BLACK
6
CONTINUOUS
10
6.7986166929133853
20
-3.8182857480314958
11
6.80016
21
-3.8260445669291339
0
LINE
8
BLACK
6
CONTINUOUS
10
6.80016
20
-3.8260445669291339
11
6.80016
21
-3.8339554330708658
0
LINE
8
BLACK
6
CONTINUOUS
10
6.80016
20
-3.8339554330708658
11
6.7986166929133853
21
-3.8417142519685039
0
LINE
8
BLACK
6
CONTINUOUS
10
6.7986166929133853
20
-3.8417142519685039
11
6.795589330708661
21
-3.8490229133858267
0
LINE
8
BLACK
6
CONTINUOUS
10
6.795589330708661
20
-3.8490229133858267
11
6.7911943307086613
21
-3.8556005118110237
0
LINE
8
BLACK
6
CONTINUOUS
10
6.7911943307086613
20
-3.8556005118110237
11
6.7856005118110234
21
-3.8611943307086611
0
LINE
8
BLACK
6
CONTINUOUS
10
6.7856005118110234
20
-3.8611943307086611
11
6.7790229133858269
21
-3.8655893307086613
0
LINE
8
BLACK
6
CONTINUOUS
10
6.7790229133858269
20
-3.8655893307086613
11
6.7717142519685041
21
-3.8686166929133856
0
LINE
8
BLACK
6
CONTINUOUS
10
6.7717142519685041
20
-3.8686166929133856
11
6.7639554330708656
21
-3.8701599999999998
0
LINE
8
BLACK
6
CONTINUOUS
10
6.7639554330708656
20
-3.8701599999999998
11
6.756044566929134
21
-3.8701599999999998
0
LINE
8
BLACK
6
CONTINUOUS
10
6.756044566929134
20
-3.8701599999999998
11
6.7482857480314955
21
-3.8686166929133856
0
LINE
8
BLACK
6
CONTINUOUS
10
6.7482857480314955
20
-3.8686166929133856
11
6.7409770866141727
21
-3.8655893307086613
0
LINE
8
BLACK
6
CONTINUOUS
10
6.7409770866141727
20
-3.8655893307086613
11
6.7343994881889762
21
-3.8611943307086611
0
LINE
8
BLACK
6
CONTINUOUS
10
6.7343994881889762
20
-3.8611943307086611
11
6.7288056692913383
21
-3.8556005118110237
0
LINE
8
BLACK
6
CONTINUOUS
10
6.7288056692913383
20
-3.8556005118110237
11
6.7244106692913386
21
-3.8490229133858267
0
LINE
8
BLACK
6
CONTINUOUS
10
6.7244106692913386
20
-3.8490229133858267
11
6.7213833070866142
21
-3.8417142519685039
0
LINE
8
BLACK
6
CONTINUOUS
10
6.7213833070866142
20
-3.8417142519685039
11
6.7198399999999996
21
-3.8339554330708658
0
LINE
8
BLACK
6
CONTINUOUS
10
6.7198399999999996
20
-3.8339554330708658
11
6.7198399999999996
21
-3.8262193307086614
0
LINE
8
BLACK
6
CONTINUOUS
10
6.7198399999999996
20
-3.8262193307086614
11
6.7198399999999996
21
-3.8260445669291339
0
LINE
8
BLACK
6
CONTINUOUS
10
6.7198399999999996
20
-3.8260445669291339
11
6.7213833070866142
21
-3.8182857480314958
0
LINE
8
BLACK
6
CONTINUOUS
10
6.7213833070866142
20
-3.8182857480314958
11
6.7244106692913386
21
-3.810977086614173
0
LINE
8
BLACK
6
CONTINUOUS
10
6.7244106692913386
20
-3.810977086614173
11
6.7288056692913383
21
-3.8043994881889764
0
LINE
8
BLACK
6
CONTINUOUS
10
6.7288056692913383
20
-3.8043994881889764
11
6.7343994881889762
21
-3.7988056692913386
0
LINE
8
BLACK
6
CONTINUOUS
10
6.7343994881889762
20
-3.7988056692913386
11
6.7409770866141727
21
-3.7944106692913384
0
LINE
8
BLACK
6
CONTINUOUS
10
6.7409770866141727
20
-3.7944106692913384
11
6.7482857480314955
21
-3.7913833070866141
0
LINE
8
BLACK
6
CONTINUOUS
10
6.7482857480314955
20
-3.7913833070866141
11
6.756044566929134
21
-3.7898399999999999
0
LINE
8
BLACK
6
CONTINUOUS
10
6.756044566929134
20
-3.7898399999999999
11
6.7639554330708656
21
-3.7898399999999999
0
LINE
8
BLACK
6
CONTINUOUS
10
6.7639554330708656
20
-3.7898399999999999
11
6.7717142519685041
21
-3.7913833070866141
0
LINE
8
BLACK
6
CONTINUOUS
10
6.7216141732283461
20
-3.8337806692913383
11
6.7230892913385825
21
-3.8411967322834646
0
LINE
8
BLACK
6
CONTINUOUS
10
6.7230892913385825
20
-3.8411967322834646
11
6.7259829133858267
21
-3.8481825196850394
0
LINE
8
BLACK
6
CONTINUOUS
10
6.7259829133858267
20
-3.8481825196850394
11
6.7301837795275592
21
-3.8544695669291338
0
LINE
8
BLACK
6
CONTINUOUS
10
6.7301837795275592
20
-3.8544695669291338
11
6.7355304330708661
21
-3.8598162204724407
0
LINE
8
BLACK
6
CONTINUOUS
10
6.7355304330708661
20
-3.8598162204724407
11
6.7418174803149604
21
-3.8640170866141732
0
LINE
8
BLACK
6
CONTINUOUS
10
6.7418174803149604
20
-3.8640170866141732
11
6.7488032677165357
21
-3.8669107086614174
0
LINE
8
BLACK
6
CONTINUOUS
10
6.7488032677165357
20
-3.8669107086614174
11
6.7562193307086611
21
-3.8683858267716533
0
LINE
8
BLACK
6
CONTINUOUS
10
6.7562193307086611
20
-3.8683858267716533
11
6.7637806692913385
21
-3.8683858267716533
0
LINE
8
BLACK
6
CONTINUOUS
10
6.7637806692913385
20
-3.8683858267716533
11
6.7711967322834647
21
-3.8669107086614174
0
LINE
8
BLACK
6
CONTINUOUS
10
6.7711967322834647
20
-3.8669107086614174
11
6.7781825196850392
21
-3.8640170866141732
0
LINE
8
BLACK
6
CONTINUOUS
10
6.7781825196850392
20
-3.8640170866141732
11
6.7844695669291335
21
-3.8598162204724407
0
LINE
8
BLACK
6
CONTINUOUS
10
6.7844695669291335
20
-3.8598162204724407
11
6.7898162204724404
21
-3.8544695669291338
0
LINE
8
BLACK
6
CONTINUOUS
10
6.7898162204724404
20
-3.8544695669291338
11
6.7940170866141729
21
-3.8481825196850394
0
LINE
8
BLACK
6
CONTINUOUS
10
6.7940170866141729
20
-3.8481825196850394
11
6.7969107086614171
21
-3.8411967322834646
0
LINE
8
BLACK
6
CONTINUOUS
10
6.7969107086614171
20
-3.8411967322834646
11
6.7983858267716535
21
-3.8337806692913383
0
LINE
8
BLACK
6
CONTINUOUS
10
6.7983858267716535
20
-3.8337806692913383
11
6.7983858267716535
21
-3.8262193307086614
0
LINE
8
BLACK
6
CONTINUOUS
10
6.7983858267716535
20
-3.8262193307086614
11
6.7969107086614171
21
-3.8188032677165356
0
LINE
8
BLACK
6
CONTINUOUS
10
6.7969107086614171
20
-3.8188032677165356
11
6.7940170866141729
21
-3.8118174803149607
0
LINE
8
BLACK
6
CONTINUOUS
10
6.7940170866141729
20
-3.8118174803149607
11
6.7898162204724404
21
-3.8055304330708659
0
LINE
8
BLACK
6
CONTINUOUS
10
6.7898162204724404
20
-3.8055304330708659
11
6.7844695669291335
21
-3.800183779527559
0
LINE
8
BLACK
6
CONTINUOUS
10
6.7844695669291335
20
-3.800183779527559
11
6.7781825196850392
21
-3.7959829133858265
0
LINE
8
BLACK
6
CONTINUOUS
10
6.7781825196850392
20
-3.7959829133858265
11
6.7711967322834647
21
-3.7930892913385827
0
LINE
8
BLACK
6
CONTINUOUS
10
6.7711967322834647
20
-3.7930892913385827
11
6.7637806692913385
21
-3.7916141732283464
0
LINE
8
BLACK
6
CONTINUOUS
10
6.7637806692913385
20
-3.7916141732283464
11
6.7562193307086611
21
-3.7916141732283464
0
LINE
8
BLACK
6
CONTINUOUS
10
6.7562193307086611
20
-3.7916141732283464
11
6.7488032677165357
21
-3.7930892913385827
0
LINE
8
BLACK
6
CONTINUOUS
10
6.7488032677165357
20
-3.7930892913385827
11
6.7418174803149604
21
-3.7959829133858265
0
LINE
8
BLACK
6
CONTINUOUS
10
6.7418174803149604
20
-3.7959829133858265
11
6.7355304330708661
21
-3.800183779527559
0
LINE
8
BLACK
6
CONTINUOUS
10
6.7355304330708661
20
-3.800183779527559
11
6.7301837795275592
21
-3.8055304330708659
0
LINE
8
BLACK
6
CONTINUOUS
10
6.7301837795275592
20
-3.8055304330708659
11
6.7259829133858267
21
-3.8118174803149607
0
LINE
8
BLACK
6
CONTINUOUS
10
6.7259829133858267
20
-3.8118174803149607
11
6.7230892913385825
21
-3.8188032677165356
0
LINE
8
BLACK
6
CONTINUOUS
10
6.7230892913385825
20
-3.8188032677165356
11
6.7216141732283461
21
-3.8262193307086614
0
LINE
8
BLACK
6
CONTINUOUS
10
6.7216141732283461
20
-3.8262193307086614
11
6.7216141732283461
21
-3.8337806692913383
0
LINE
8
BLACK
6
CONTINUOUS
10
6.2977782283464565
20
-3.7029489370078741
11
6.2983109055118112
21
-3.7034816141732283
0
LINE
8
BLACK
6
CONTINUOUS
10
6.2983109055118112
20
-3.7034816141732283
11
6.2983858267716535
21
-3.7038582677165355
0
LINE
8
BLACK
6
CONTINUOUS
10
6.2983858267716535
20
-3.7038582677165355
11
6.2983858267716535
21
-3.8361417322834646
0
LINE
8
BLACK
6
CONTINUOUS
10
6.2983858267716535
20
-3.8361417322834646
11
6.2983109055118112
21
-3.8365183858267717
0
LINE
8
BLACK
6
CONTINUOUS
10
6.2983109055118112
20
-3.8365183858267717
11
6.2977782283464565
21
-3.8370510629921259
0
LINE
8
BLACK
6
CONTINUOUS
10
6.2977782283464565
20
-3.8370510629921259
11
6.2974015748031498
21
-3.8371259842519683
0
LINE
8
BLACK
6
CONTINUOUS
10
6.2974015748031498
20
-3.8371259842519683
11
6.2225984251968507
21
-3.8371259842519683
0
LINE
8
BLACK
6
CONTINUOUS
10
6.2225984251968507
20
-3.8371259842519683
11
6.2222217716535431
21
-3.8370510629921259
0
LINE
8
BLACK
6
CONTINUOUS
10
6.2222217716535431
20
-3.8370510629921259
11
6.2216890944881884
21
-3.8365183858267717
0
LINE
8
BLACK
6
CONTINUOUS
10
6.2216890944881884
20
-3.8365183858267717
11
6.2216141732283461
21
-3.8361417322834646
0
LINE
8
BLACK
6
CONTINUOUS
10
6.2216141732283461
20
-3.8361417322834646
11
6.2216141732283461
21
-3.7038582677165355
0
LINE
8
BLACK
6
CONTINUOUS
10
6.2216141732283461
20
-3.7038582677165355
11
6.2216890944881884
21
-3.7034816141732283
0
LINE
8
BLACK
6
CONTINUOUS
10
6.2216890944881884
20
-3.7034816141732283
11
6.2222217716535431
21
-3.7029489370078741
0
LINE
8
BLACK
6
CONTINUOUS
10
6.2222217716535431
20
-3.7029489370078741
11
6.2225984251968507
21
-3.7028740157480313
0
LINE
8
BLACK
6
CONTINUOUS
10
6.2225984251968507
20
-3.7028740157480313
11
6.2974015748031498
21
-3.7028740157480313
0
LINE
8
BLACK
6
CONTINUOUS
10
6.2974015748031498
20
-3.7028740157480313
11
6.2977782283464565
21
-3.7029489370078741
0
LINE
8
BLACK
6
CONTINUOUS
10
6.2235826771653544
20
-3.7048425196850392
11
6.2235826771653544
21
-3.8351574803149604
0
LINE
8
BLACK
6
CONTINUOUS
10
6.2235826771653544
20
-3.8351574803149604
11
6.2964173228346452
21
-3.8351574803149604
0
LINE
8
BLACK
6
CONTINUOUS
10
6.2964173228346452
20
-3.8351574803149604
11
6.2964173228346452
21
-3.7048425196850392
0
LINE
8
BLACK
6
CONTINUOUS
10
6.2964173228346452
20
-3.7048425196850392
11
6.2235826771653544
21
-3.7048425196850392
0
LINE
8
BLACK
6
CONTINUOUS
10
6.6345892519685039
20
-3.7051300393700788
11
6.6351219291338577
21
-3.705662716535433
0
LINE
8
BLACK
6
CONTINUOUS
10
6.6351219291338577
20
-3.705662716535433
11
6.6351968503937009
21
-3.7060393700787402
0
LINE
8
BLACK
6
CONTINUOUS
10
6.6351968503937009
20
-3.7060393700787402
11
6.6351968503937009
21
-3.8359606299212596
0
LINE
8
BLACK
6
CONTINUOUS
10
6.6351968503937009
20
-3.8359606299212596
11
6.6351219291338577
21
-3.8363372834645668
0
LINE
8
BLACK
6
CONTINUOUS
10
6.6351219291338577
20
-3.8363372834645668
11
6.6345892519685039
21
-3.836869960629921
0
LINE
8
BLACK
6
CONTINUOUS
10
6.6345892519685039
20
-3.836869960629921
11
6.6342125984251963
21
-3.8369448818897638
0
LINE
8
BLACK
6
CONTINUOUS
10
6.6342125984251963
20
-3.8369448818897638
11
6.5357874015748028
21
-3.8369448818897638
0
LINE
8
BLACK
6
CONTINUOUS
10
6.5357874015748028
20
-3.8369448818897638
11
6.535410748031496
21
-3.836869960629921
0
LINE
8
BLACK
6
CONTINUOUS
10
6.535410748031496
20
-3.836869960629921
11
6.5348780708661414
21
-3.8363372834645668
0
LINE
8
BLACK
6
CONTINUOUS
10
6.5348780708661414
20
-3.8363372834645668
11
6.534803149606299
21
-3.8359606299212596
0
LINE
8
BLACK
6
CONTINUOUS
10
6.534803149606299
20
-3.8359606299212596
11
6.534803149606299
21
-3.7060393700787402
0
LINE
8
BLACK
6
CONTINUOUS
10
6.534803149606299
20
-3.7060393700787402
11
6.5348780708661414
21
-3.705662716535433
0
LINE
8
BLACK
6
CONTINUOUS
10
6.5348780708661414
20
-3.705662716535433
11
6.535410748031496
21
-3.7051300393700788
0
LINE
8
BLACK
6
CONTINUOUS
10
6.535410748031496
20
-3.7051300393700788
11
6.5357874015748028
21
-3.705055118110236
0
LINE
8
BLACK
6
CONTINUOUS
10
6.5357874015748028
20
-3.705055118110236
11
6.6342125984251963
21
-3.705055118110236
0
LINE
8
BLACK
6
CONTINUOUS
10
6.6342125984251963
20
-3.705055118110236
11
6.6345892519685039
21
-3.7051300393700788
0
LINE
8
BLACK
6
CONTINUOUS
10
6.5367716535433074
20
-3.7070236220472439
11
6.5367716535433074
21
-3.8349763779527559
0
LINE
8
BLACK
6
CONTINUOUS
10
6.5367716535433074
20
-3.8349763779527559
11
6.6332283464566926
21
-3.8349763779527559
0
LINE
8
BLACK
6
CONTINUOUS
10
6.6332283464566926
20
-3.8349763779527559
11
6.6332283464566926
21
-3.7070236220472439
0
LINE
8
BLACK
6
CONTINUOUS
10
6.6332283464566926
20
-3.7070236220472439
11
6.5367716535433074
21
-3.7070236220472439
0
LINE
8
BLACK
6
CONTINUOUS
10
4.9090380708661412
20
-3.5404292519685039
11
4.9095707480314958
21
-3.5409619291338581
0
LINE
8
BLACK
6
CONTINUOUS
10
4.9095707480314958
20
-3.5409619291338581
11
4.9096456692913382
21
-3.5413385826771653
0
LINE
8
BLACK
6
CONTINUOUS
10
4.9096456692913382
20
-3.5413385826771653
11
4.9096456692913382
21
-3.6161417322834644
0
LINE
8
BLACK
6
CONTINUOUS
10
4.9096456692913382
20
-3.6161417322834644
11
4.9095707480314958
21
-3.6165183858267715
0
LINE
8
BLACK
6
CONTINUOUS
10
4.9095707480314958
20
-3.6165183858267715
11
4.9090380708661412
21
-3.6170510629921258
0
LINE
8
BLACK
6
CONTINUOUS
10
4.9090380708661412
20
-3.6170510629921258
11
4.9086614173228345
21
-3.6171259842519685
0
LINE
8
BLACK
6
CONTINUOUS
10
4.9086614173228345
20
-3.6171259842519685
11
4.7763779527559054
21
-3.6171259842519685
0
LINE
8
BLACK
6
CONTINUOUS
10
4.7763779527559054
20
-3.6171259842519685
11
4.7760012992125986
21
-3.6170510629921258
0
LINE
8
BLACK
6
CONTINUOUS
10
4.7760012992125986
20
-3.6170510629921258
11
4.775468622047244
21
-3.6165183858267715
0
LINE
8
BLACK
6
CONTINUOUS
10
4.775468622047244
20
-3.6165183858267715
11
4.7753937007874017
21
-3.6161417322834644
0
LINE
8
BLACK
6
CONTINUOUS
10
4.7753937007874017
20
-3.6161417322834644
11
4.7753937007874017
21
-3.5413385826771653
0
LINE
8
BLACK
6
CONTINUOUS
10
4.7753937007874017
20
-3.5413385826771653
11
4.775468622047244
21
-3.5409619291338581
0
LINE
8
BLACK
6
CONTINUOUS
10
4.775468622047244
20
-3.5409619291338581
11
4.7760012992125986
21
-3.5404292519685039
0
LINE
8
BLACK
6
CONTINUOUS
10
4.7760012992125986
20
-3.5404292519685039
11
4.7763779527559054
21
-3.5403543307086611
0
LINE
8
BLACK
6
CONTINUOUS
10
4.7763779527559054
20
-3.5403543307086611
11
4.9086614173228345
21
-3.5403543307086611
0
LINE
8
BLACK
6
CONTINUOUS
10
4.9086614173228345
20
-3.5403543307086611
11
4.9090380708661412
21
-3.5404292519685039
0
LINE
8
BLACK
6
CONTINUOUS
10
4.7773622047244091
20
-3.542322834645669
11
4.7773622047244091
21
-3.6151574803149606
0
LINE
8
BLACK
6
CONTINUOUS
10
4.7773622047244091
20
-3.6151574803149606
11
4.9076771653543307
21
-3.6151574803149606
0
LINE
8
BLACK
6
CONTINUOUS
10
4.9076771653543307
20
-3.6151574803149606
11
4.9076771653543307
21
-3.542322834645669
0
LINE
8
BLACK
6
CONTINUOUS
10
4.9076771653543307
20
-3.542322834645669
11
4.7773622047244091
21
-3.542322834645669
0
LINE
8
BLACK
6
CONTINUOUS
10
5.6212427952755908
20
-2.9682245275590549
11
5.6217754724409446
21
-2.9687572047244095
0
LINE
8
BLACK
6
CONTINUOUS
10
5.6217754724409446
20
-2.9687572047244095
11
5.6218503937007869
21
-2.9691338582677163
0
LINE
8
BLACK
6
CONTINUOUS
10
5.6218503937007869
20
-2.9691338582677163
11
5.6218503937007869
21
-3.6108661417322834
0
LINE
8
BLACK
6
CONTINUOUS
10
5.6218503937007869
20
-3.6108661417322834
11
5.6217754724409446
21
-3.6112427952755906
0
LINE
8
BLACK
6
CONTINUOUS
10
5.6217754724409446
20
-3.6112427952755906
11
5.6212427952755908
21
-3.6117754724409448
0
LINE
8
BLACK
6
CONTINUOUS
10
5.6212427952755908
20
-3.6117754724409448
11
5.6208661417322832
21
-3.6118503937007875
0
LINE
8
BLACK
6
CONTINUOUS
10
5.6208661417322832
20
-3.6118503937007875
11
5.4791338582677165
21
-3.6118503937007875
0
LINE
8
BLACK
6
CONTINUOUS
10
5.4791338582677165
20
-3.6118503937007875
11
5.4787572047244097
21
-3.6117754724409448
0
LINE
8
BLACK
6
CONTINUOUS
10
5.4787572047244097
20
-3.6117754724409448
11
5.4782245275590551
21
-3.6112427952755906
0
LINE
8
BLACK
6
CONTINUOUS
10
5.4782245275590551
20
-3.6112427952755906
11
5.4781496062992128
21
-3.6108661417322834
0
LINE
8
BLACK
6
CONTINUOUS
10
5.4781496062992128
20
-3.6108661417322834
11
5.4781496062992128
21
-2.9691338582677163
0
LINE
8
BLACK
6
CONTINUOUS
10
5.4781496062992128
20
-2.9691338582677163
11
5.4782245275590551
21
-2.9687572047244095
0
LINE
8
BLACK
6
CONTINUOUS
10
5.4782245275590551
20
-2.9687572047244095
11
5.4787572047244097
21
-2.9682245275590549
0
LINE
8
BLACK
6
CONTINUOUS
10
5.4787572047244097
20
-2.9682245275590549
11
5.4791338582677165
21
-2.9681496062992125
0
LINE
8
BLACK
6
CONTINUOUS
10
5.4791338582677165
20
-2.9681496062992125
11
5.6208661417322832
21
-2.9681496062992125
0
LINE
8
BLACK
6
CONTINUOUS
10
5.6208661417322832
20
-2.9681496062992125
11
5.6212427952755908
21
-2.9682245275590549
0
LINE
8
BLACK
6
CONTINUOUS
10
5.4801181102362202
20
-2.9701181102362204
11
5.4801181102362202
21
-3.6098818897637797
0
LINE
8
BLACK
6
CONTINUOUS
10
5.4801181102362202
20
-3.6098818897637797
11
5.6198818897637794
21
-3.6098818897637797
0
LINE
8
BLACK
6
CONTINUOUS
10
5.6198818897637794
20
-3.6098818897637797
11
5.6198818897637794
21
-2.9701181102362204
0
LINE
8
BLACK
6
CONTINUOUS
10
5.6198818897637794
20
-2.9701181102362204
11
5.4801181102362202
21
-2.9701181102362204
0
LINE
8
BLACK
6
CONTINUOUS
10
6.6765183858267712
20
-3.5316890944881889
11
6.6770510629921258
21
-3.5322217716535431
0
LINE
8
BLACK
6
CONTINUOUS
10
6.6770510629921258
20
-3.5322217716535431
11
6.6771259842519681
21
-3.5325984251968503
0
LINE
8
BLACK
6
CONTINUOUS
10
6.6771259842519681
20
-3.5325984251968503
11
6.6771259842519681
21
-3.6074015748031494
0
LINE
8
BLACK
6
CONTINUOUS
10
6.6771259842519681
20
-3.6074015748031494
11
6.6770510629921258
21
-3.6077782283464566
0
LINE
8
BLACK
6
CONTINUOUS
10
6.6770510629921258
20
-3.6077782283464566
11
6.6765183858267712
21
-3.6083109055118108
0
LINE
8
BLACK
6
CONTINUOUS
10
6.6765183858267712
20
-3.6083109055118108
11
6.6761417322834644
21
-3.6083858267716535
0
LINE
8
BLACK
6
CONTINUOUS
10
6.6761417322834644
20
-3.6083858267716535
11
6.5438582677165353
21
-3.6083858267716535
0
LINE
8
BLACK
6
CONTINUOUS
10
6.5438582677165353
20
-3.6083858267716535
11
6.5434816141732286
21
-3.6083109055118108
0
LINE
8
BLACK
6
CONTINUOUS
10
6.5434816141732286
20
-3.6083109055118108
11
6.5429489370078739
21
-3.6077782283464566
0
LINE
8
BLACK
6
CONTINUOUS
10
6.5429489370078739
20
-3.6077782283464566
11
6.5428740157480316
21
-3.6074015748031494
0
LINE
8
BLACK
6
CONTINUOUS
10
6.5428740157480316
20
-3.6074015748031494
11
6.5428740157480316
21
-3.5325984251968503
0
LINE
8
BLACK
6
CONTINUOUS
10
6.5428740157480316
20
-3.5325984251968503
11
6.5429489370078739
21
-3.5322217716535431
0
LINE
8
BLACK
6
CONTINUOUS
10
6.5429489370078739
20
-3.5322217716535431
11
6.5434816141732286
21
-3.5316890944881889
0
LINE
8
BLACK
6
CONTINUOUS
10
6.5434816141732286
20
-3.5316890944881889
11
6.5438582677165353
21
-3.5316141732283466
0
LINE
8
BLACK
6
CONTINUOUS
10
6.5438582677165353
20
-3.5316141732283466
11
6.6761417322834644
21
-3.5316141732283466
0
LINE
8
BLACK
6
CONTINUOUS
10
6.6761417322834644
20
-3.5316141732283466
11
6.6765183858267712
21
-3.5316890944881889
0
LINE
8
BLACK
6
CONTINUOUS
10
6.5448425196850391
20
-3.5335826771653545
11
6.5448425196850391
21
-3.6064173228346457
0
LINE
8
BLACK
6
CONTINUOUS
10
6.5448425196850391
20
-3.6064173228346457
11
6.6751574803149607
21
-3.6064173228346457
0
LINE
8
BLACK
6
CONTINUOUS
10
6.6751574803149607
20
-3.6064173228346457
11
6.6751574803149607
21
-3.5335826771653545
0
LINE
8
BLACK
6
CONTINUOUS
10
6.6751574803149607
20
-3.5335826771653545
11
6.5448425196850391
21
-3.5335826771653545
0
LINE
8
BLACK
6
CONTINUOUS
10
7.4469120866141729
20
-2.9236575984251969
11
7.4474447637795276
21
-2.9241902755905511
0
LINE
8
BLACK
6
CONTINUOUS
10
7.4474447637795276
20
-2.9241902755905511
11
7.4475196850393699
21
-2.9245669291338583
0
LINE
8
BLACK
6
CONTINUOUS
10
7.4475196850393699
20
-2.9245669291338583
11
7.4475196850393699
21
-3.5938582677165352
0
LINE
8
BLACK
6
CONTINUOUS
10
7.4475196850393699
20
-3.5938582677165352
11
7.4474447637795276
21
-3.5942349212598423
0
LINE
8
BLACK
6
CONTINUOUS
10
7.4474447637795276
20
-3.5942349212598423
11
7.4469120866141729
21
-3.5947675984251966
0
LINE
8
BLACK
6
CONTINUOUS
10
7.4469120866141729
20
-3.5947675984251966
11
7.4465354330708662
21
-3.5948425196850393
0
LINE
8
BLACK
6
CONTINUOUS
10
7.4465354330708662
20
-3.5948425196850393
11
6.7614960629921255
21
-3.5948425196850393
0
LINE
8
BLACK
6
CONTINUOUS
10
6.7614960629921255
20
-3.5948425196850393
11
6.7611194094488187
21
-3.5947675984251966
0
LINE
8
BLACK
6
CONTINUOUS
10
6.7611194094488187
20
-3.5947675984251966
11
6.7605867322834641
21
-3.5942349212598423
0
LINE
8
BLACK
6
CONTINUOUS
10
6.7605867322834641
20
-3.5942349212598423
11
6.7605118110236218
21
-3.5938582677165352
0
LINE
8
BLACK
6
CONTINUOUS
10
6.7605118110236218
20
-3.5938582677165352
11
6.7605118110236218
21
-2.9245669291338583
0
LINE
8
BLACK
6
CONTINUOUS
10
6.7605118110236218
20
-2.9245669291338583
11
6.7605867322834641
21
-2.9241902755905511
0
LINE
8
BLACK
6
CONTINUOUS
10
6.7605867322834641
20
-2.9241902755905511
11
6.7611194094488187
21
-2.9236575984251969
0
LINE
8
BLACK
6
CONTINUOUS
10
6.7611194094488187
20
-2.9236575984251969
11
6.7614960629921255
21
-2.9235826771653541
0
LINE
8
BLACK
6
CONTINUOUS
10
6.7614960629921255
20
-2.9235826771653541
11
7.4465354330708662
21
-2.9235826771653541
0
LINE
8
BLACK
6
CONTINUOUS
10
7.4465354330708662
20
-2.9235826771653541
11
7.4469120866141729
21
-2.9236575984251969
0
LINE
8
BLACK
6
CONTINUOUS
10
6.7624803149606301
20
-2.925551181102362
11
6.7624803149606301
21
-3.5928740157480314
0
LINE
8
BLACK
6
CONTINUOUS
10
6.7624803149606301
20
-3.5928740157480314
11
7.4455511811023625
21
-3.5928740157480314
0
LINE
8
BLACK
6
CONTINUOUS
10
7.4455511811023625
20
-3.5928740157480314
11
7.4455511811023625
21
-2.925551181102362
0
LINE
8
BLACK
6
CONTINUOUS
10
7.4455511811023625
20
-2.925551181102362
11
6.7624803149606301
21
-2.925551181102362
0
LINE
8
BLACK
6
CONTINUOUS
10
6.289038070866142
20
-3.1704292519685038
11
6.2895707480314957
21
-3.170961929133858
0
LINE
8
BLACK
6
CONTINUOUS
10
6.2895707480314957
20
-3.170961929133858
11
6.2896456692913381
21
-3.1713385826771652
0
LINE
8
BLACK
6
CONTINUOUS
10
6.2896456692913381
20
-3.1713385826771652
11
6.2896456692913381
21
-3.5886614173228346
0
LINE
8
BLACK
6
CONTINUOUS
10
6.2896456692913381
20
-3.5886614173228346
11
6.2895707480314957
21
-3.5890380708661418
0
LINE
8
BLACK
6
CONTINUOUS
10
6.2895707480314957
20
-3.5890380708661418
11
6.289038070866142
21
-3.589570748031496
0
LINE
8
BLACK
6
CONTINUOUS
10
6.289038070866142
20
-3.589570748031496
11
6.2886614173228343
21
-3.5896456692913383
0
LINE
8
BLACK
6
CONTINUOUS
10
6.2886614173228343
20
-3.5896456692913383
11
5.8713385826771649
21
-3.5896456692913383
0
LINE
8
BLACK
6
CONTINUOUS
10
5.8713385826771649
20
-3.5896456692913383
11
5.8709619291338582
21
-3.589570748031496
0
LINE
8
BLACK
6
CONTINUOUS
10
5.8709619291338582
20
-3.589570748031496
11
5.8704292519685035
21
-3.5890380708661418
0
LINE
8
BLACK
6
CONTINUOUS
10
5.8704292519685035
20
-3.5890380708661418
11
5.8703543307086612
21
-3.5886614173228346
0
LINE
8
BLACK
6
CONTINUOUS
10
5.8703543307086612
20
-3.5886614173228346
11
5.8703543307086612
21
-3.1713385826771652
0
LINE
8
BLACK
6
CONTINUOUS
10
5.8703543307086612
20
-3.1713385826771652
11
5.8704292519685035
21
-3.170961929133858
0
LINE
8
BLACK
6
CONTINUOUS
10
5.8704292519685035
20
-3.170961929133858
11
5.8709619291338582
21
-3.1704292519685038
0
LINE
8
BLACK
6
CONTINUOUS
10
5.8709619291338582
20
-3.1704292519685038
11
5.8713385826771649
21
-3.1703543307086615
0
LINE
8
BLACK
6
CONTINUOUS
10
5.8713385826771649
20
-3.1703543307086615
11
6.2886614173228343
21
-3.1703543307086615
0
LINE
8
BLACK
6
CONTINUOUS
10
6.2886614173228343
20
-3.1703543307086615
11
6.289038070866142
21
-3.1704292519685038
0
LINE
8
BLACK
6
CONTINUOUS
10
5.8723228346456695
20
-3.1723228346456693
11
5.8723228346456695
21
-3.5876771653543305
0
LINE
8
BLACK
6
CONTINUOUS
10
5.8723228346456695
20
-3.5876771653543305
11
6.2876771653543306
21
-3.5876771653543305
0
LINE
8
BLACK
6
CONTINUOUS
10
6.2876771653543306
20
-3.5876771653543305
11
6.2876771653543306
21
-3.1723228346456693
0
LINE
8
BLACK
6
CONTINUOUS
10
6.2876771653543306
20
-3.1723228346456693
11
5.8723228346456695
21
-3.1723228346456693
0
LINE
8
BLACK
6
CONTINUOUS
10
6.4677782283464564
20
-3.4429489370078739
11
6.4683109055118111
21
-3.4434816141732281
0
LINE
8
BLACK
6
CONTINUOUS
10
6.4683109055118111
20
-3.4434816141732281
11
6.4683858267716534
21
-3.4438582677165352
0
LINE
8
BLACK
6
CONTINUOUS
10
6.4683858267716534
20
-3.4438582677165352
11
6.4683858267716534
21
-3.5761417322834643
0
LINE
8
BLACK
6
CONTINUOUS
10
6.4683858267716534
20
-3.5761417322834643
11
6.4683109055118111
21
-3.5765183858267715
0
LINE
8
BLACK
6
CONTINUOUS
10
6.4683109055118111
20
-3.5765183858267715
11
6.4677782283464564
21
-3.5770510629921257
0
LINE
8
BLACK
6
CONTINUOUS
10
6.4677782283464564
20
-3.5770510629921257
11
6.4674015748031497
21
-3.5771259842519685
0
LINE
8
BLACK
6
CONTINUOUS
10
6.4674015748031497
20
-3.5771259842519685
11
6.3925984251968506
21
-3.5771259842519685
0
LINE
8
BLACK
6
CONTINUOUS
10
6.3925984251968506
20
-3.5771259842519685
11
6.392221771653543
21
-3.5770510629921257
0
LINE
8
BLACK
6
CONTINUOUS
10
6.392221771653543
20
-3.5770510629921257
11
6.3916890944881892
21
-3.5765183858267715
0
LINE
8
BLACK
6
CONTINUOUS
10
6.3916890944881892
20
-3.5765183858267715
11
6.391614173228346
21
-3.5761417322834643
0
LINE
8
BLACK
6
CONTINUOUS
10
6.391614173228346
20
-3.5761417322834643
11
6.391614173228346
21
-3.4438582677165352
0
LINE
8
BLACK
6
CONTINUOUS
10
6.391614173228346
20
-3.4438582677165352
11
6.3916890944881892
21
-3.4434816141732281
0
LINE
8
BLACK
6
CONTINUOUS
10
6.3916890944881892
20
-3.4434816141732281
11
6.392221771653543
21
-3.4429489370078739
0
LINE
8
BLACK
6
CONTINUOUS
10
6.392221771653543
20
-3.4429489370078739
11
6.3925984251968506
21
-3.4428740157480315
0
LINE
8
BLACK
6
CONTINUOUS
10
6.3925984251968506
20
-3.4428740157480315
11
6.4674015748031497
21
-3.4428740157480315
0
LINE
8
BLACK
6
CONTINUOUS
10
6.4674015748031497
20
-3.4428740157480315
11
6.4677782283464564
21
-3.4429489370078739
0
LINE
8
BLACK
6
CONTINUOUS
10
6.3935826771653543
20
-3.4448425196850394
11
6.3935826771653543
21
-3.5751574803149606
0
LINE
8
BLACK
6
CONTINUOUS
10
6.3935826771653543
20
-3.5751574803149606
11
6.4664173228346451
21
-3.5751574803149606
0
LINE
8
BLACK
6
CONTINUOUS
10
6.4664173228346451
20
-3.5751574803149606
11
6.4664173228346451
21
-3.4448425196850394
0
LINE
8
BLACK
6
CONTINUOUS
10
6.4664173228346451
20
-3.4448425196850394
11
6.3935826771653543
21
-3.4448425196850394
0
LINE
8
BLACK
6
CONTINUOUS
10
6.7391168110236217
20
-3.3798190157480312
11
6.7396494881889764
21
-3.3803516929133859
0
LINE
8
BLACK
6
CONTINUOUS
10
6.7396494881889764
20
-3.3803516929133859
11
6.7397244094488187
21
-3.3807283464566926
0
LINE
8
BLACK
6
CONTINUOUS
10
6.7397244094488187
20
-3.3807283464566926
11
6.7397244094488187
21
-3.4972637795275592
0
LINE
8
BLACK
6
CONTINUOUS
10
6.7397244094488187
20
-3.4972637795275592
11
6.7396494881889764
21
-3.4976404330708659
0
LINE
8
BLACK
6
CONTINUOUS
10
6.7396494881889764
20
-3.4976404330708659
11
6.7391168110236217
21
-3.4981731102362206
0
LINE
8
BLACK
6
CONTINUOUS
10
6.7391168110236217
20
-3.4981731102362206
11
6.738740157480315
21
-3.4982480314960629
0
LINE
8
BLACK
6
CONTINUOUS
10
6.738740157480315
20
-3.4982480314960629
11
6.681259842519685
21
-3.4982480314960629
0
LINE
8
BLACK
6
CONTINUOUS
10
6.681259842519685
20
-3.4982480314960629
11
6.6808831889763782
21
-3.4981731102362206
0
LINE
8
BLACK
6
CONTINUOUS
10
6.6808831889763782
20
-3.4981731102362206
11
6.6803505118110236
21
-3.4976404330708659
0
LINE
8
BLACK
6
CONTINUOUS
10
6.6803505118110236
20
-3.4976404330708659
11
6.6802755905511813
21
-3.4972637795275592
0
LINE
8
BLACK
6
CONTINUOUS
10
6.6802755905511813
20
-3.4972637795275592
11
6.6802755905511813
21
-3.3807283464566926
0
LINE
8
BLACK
6
CONTINUOUS
10
6.6802755905511813
20
-3.3807283464566926
11
6.6803505118110236
21
-3.3803516929133859
0
LINE
8
BLACK
6
CONTINUOUS
10
6.6803505118110236
20
-3.3803516929133859
11
6.6808831889763782
21
-3.3798190157480312
0
LINE
8
BLACK
6
CONTINUOUS
10
6.6808831889763782
20
-3.3798190157480312
11
6.681259842519685
21
-3.3797440944881889
0
LINE
8
BLACK
6
CONTINUOUS
10
6.681259842519685
20
-3.3797440944881889
11
6.738740157480315
21
-3.3797440944881889
0
LINE
8
BLACK
6
CONTINUOUS
10
6.738740157480315
20
-3.3797440944881889
11
6.7391168110236217
21
-3.3798190157480312
0
LINE
8
BLACK
6
CONTINUOUS
10
6.6822440944881887
20
-3.3817125984251968
11
6.6822440944881887
21
-3.496279527559055
0
LINE
8
BLACK
6
CONTINUOUS
10
6.6822440944881887
20
-3.496279527559055
11
6.7377559055118112
21
-3.496279527559055
0
LINE
8
BLACK
6
CONTINUOUS
10
6.7377559055118112
20
-3.496279527559055
11
6.7377559055118112
21
-3.3817125984251968
0
LINE
8
BLACK
6
CONTINUOUS
10
6.7377559055118112
20
-3.3817125984251968
11
6.6822440944881887
21
-3.3817125984251968
0
LINE
8
BLACK
6
CONTINUOUS
10
5.2484081496062993
20
-2.9006654724409446
11
5.2489408267716531
21
-2.9011981496062993
0
LINE
8
BLACK
6
CONTINUOUS
10
5.2489408267716531
20
-2.9011981496062993
11
5.2490157480314963
21
-2.901574803149606
0
LINE
8
BLACK
6
CONTINUOUS
10
5.2490157480314963
20
-2.901574803149606
11
5.2490157480314963
21
-3.4921259842519685
0
LINE
8
BLACK
6
CONTINUOUS
10
5.2490157480314963
20
-3.4921259842519685
11
5.2489408267716531
21
-3.4925026377952757
0
LINE
8
BLACK
6
CONTINUOUS
10
5.2489408267716531
20
-3.4925026377952757
11
5.2484081496062993
21
-3.4930353149606299
0
LINE
8
BLACK
6
CONTINUOUS
10
5.2484081496062993
20
-3.4930353149606299
11
5.2480314960629917
21
-3.4931102362204722
0
LINE
8
BLACK
6
CONTINUOUS
10
5.2480314960629917
20
-3.4931102362204722
11
4.6299212598425195
21
-3.4931102362204722
0
LINE
8
BLACK
6
CONTINUOUS
10
4.6299212598425195
20
-3.4931102362204722
11
4.6295446062992127
21
-3.4930353149606299
0
LINE
8
BLACK
6
CONTINUOUS
10
4.6295446062992127
20
-3.4930353149606299
11
4.6290119291338581
21
-3.4925026377952757
0
LINE
8
BLACK
6
CONTINUOUS
10
4.6290119291338581
20
-3.4925026377952757
11
4.6289370078740157
21
-3.4921259842519685
0
LINE
8
BLACK
6
CONTINUOUS
10
4.6289370078740157
20
-3.4921259842519685
11
4.6289370078740157
21
-2.901574803149606
0
LINE
8
BLACK
6
CONTINUOUS
10
4.6289370078740157
20
-2.901574803149606
11
4.6290119291338581
21
-2.9011981496062993
0
LINE
8
BLACK
6
CONTINUOUS
10
4.6290119291338581
20
-2.9011981496062993
11
4.6295446062992127
21
-2.9006654724409446
0
LINE
8
BLACK
6
CONTINUOUS
10
4.6295446062992127
20
-2.9006654724409446
11
4.6299212598425195
21
-2.9005905511811023
0
LINE
8
BLACK
6
CONTINUOUS
10
4.6299212598425195
20
-2.9005905511811023
11
5.2480314960629917
21
-2.9005905511811023
0
LINE
8
BLACK
6
CONTINUOUS
10
5.2480314960629917
20
-2.9005905511811023
11
5.2484081496062993
21
-2.9006654724409446
0
LINE
8
BLACK
6
CONTINUOUS
10
4.6309055118110232
20
-2.9025590551181102
11
4.6309055118110232
21
-3.4911417322834644
0
LINE
8
BLACK
6
CONTINUOUS
10
4.6309055118110232
20
-3.4911417322834644
11
5.247047244094488
21
-3.4911417322834644
0
LINE
8
BLACK
6
CONTINUOUS
10
5.247047244094488
20
-3.4911417322834644
11
5.247047244094488
21
-2.9025590551181102
0
LINE
8
BLACK
6
CONTINUOUS
10
5.247047244094488
20
-2.9025590551181102
11
4.6309055118110232
21
-2.9025590551181102
0
LINE
8
BLACK
6
CONTINUOUS
10
6.6165183858267715
20
-3.3516890944881887
11
6.6170510629921262
21
-3.3522217716535434
0
LINE
8
BLACK
6
CONTINUOUS
10
6.6170510629921262
20
-3.3522217716535434
11
6.6171259842519685
21
-3.3525984251968501
0
LINE
8
BLACK
6
CONTINUOUS
10
6.6171259842519685
20
-3.3525984251968501
11
6.6171259842519685
21
-3.4274015748031497
0
LINE
8
BLACK
6
CONTINUOUS
10
6.6171259842519685
20
-3.4274015748031497
11
6.6170510629921262
21
-3.4277782283464564
0
LINE
8
BLACK
6
CONTINUOUS
10
6.6170510629921262
20
-3.4277782283464564
11
6.6165183858267715
21
-3.4283109055118111
0
LINE
8
BLACK
6
CONTINUOUS
10
6.6165183858267715
20
-3.4283109055118111
11
6.6161417322834648
21
-3.4283858267716534
0
LINE
8
BLACK
6
CONTINUOUS
10
6.6161417322834648
20
-3.4283858267716534
11
6.4838582677165357
21
-3.4283858267716534
0
LINE
8
BLACK
6
CONTINUOUS
10
6.4838582677165357
20
-3.4283858267716534
11
6.4834816141732281
21
-3.4283109055118111
0
LINE
8
BLACK
6
CONTINUOUS
10
6.4834816141732281
20
-3.4283109055118111
11
6.4829489370078734
21
-3.4277782283464564
0
LINE
8
BLACK
6
CONTINUOUS
10
6.4829489370078734
20
-3.4277782283464564
11
6.4828740157480311
21
-3.4274015748031497
0
LINE
8
BLACK
6
CONTINUOUS
10
6.4828740157480311
20
-3.4274015748031497
11
6.4828740157480311
21
-3.3525984251968501
0
LINE
8
BLACK
6
CONTINUOUS
10
6.4828740157480311
20
-3.3525984251968501
11
6.4829489370078734
21
-3.3522217716535434
0
LINE
8
BLACK
6
CONTINUOUS
10
6.4829489370078734
20
-3.3522217716535434
11
6.4834816141732281
21
-3.3516890944881887
0
LINE
8
BLACK
6
CONTINUOUS
10
6.4834816141732281
20
-3.3516890944881887
11
6.4838582677165357
21
-3.3516141732283464
0
LINE
8
BLACK
6
CONTINUOUS
10
6.4838582677165357
20
-3.3516141732283464
11
6.6161417322834648
21
-3.3516141732283464
0
LINE
8
BLACK
6
CONTINUOUS
10
6.6161417322834648
20
-3.3516141732283464
11
6.6165183858267715
21
-3.3516890944881887
0
LINE
8
BLACK
6
CONTINUOUS
10
6.4848425196850394
20
-3.3535826771653543
11
6.4848425196850394
21
-3.4264173228346455
0
LINE
8
BLACK
6
CONTINUOUS
10
6.4848425196850394
20
-3.4264173228346455
11
6.6151574803149602
21
-3.4264173228346455
0
LINE
8
BLACK
6
CONTINUOUS
10
6.6151574803149602
20
-3.4264173228346455
11
6.6151574803149602
21
-3.3535826771653543
0
LINE
8
BLACK
6
CONTINUOUS
10
6.6151574803149602
20
-3.3535826771653543
11
6.4848425196850394
21
-3.3535826771653543
0
LINE
8
BLACK
6
CONTINUOUS
10
6.6165183858267715
20
-3.2616890944881889
11
6.6170510629921262
21
-3.2622217716535431
0
LINE
8
BLACK
6
CONTINUOUS
10
6.6170510629921262
20
-3.2622217716535431
11
6.6171259842519685
21
-3.2625984251968503
0
LINE
8
BLACK
6
CONTINUOUS
10
6.6171259842519685
20
-3.2625984251968503
11
6.6171259842519685
21
-3.3374015748031494
0
LINE
8
BLACK
6
CONTINUOUS
10
6.6171259842519685
20
-3.3374015748031494
11
6.6170510629921262
21
-3.3377782283464565
0
LINE
8
BLACK
6
CONTINUOUS
10
6.6170510629921262
20
-3.3377782283464565
11
6.6165183858267715
21
-3.3383109055118108
0
LINE
8
BLACK
6
CONTINUOUS
10
6.6165183858267715
20
-3.3383109055118108
11
6.6161417322834648
21
-3.3383858267716535
0
LINE
8
BLACK
6
CONTINUOUS
10
6.6161417322834648
20
-3.3383858267716535
11
6.4838582677165357
21
-3.3383858267716535
0
LINE
8
BLACK
6
CONTINUOUS
10
6.4838582677165357
20
-3.3383858267716535
11
6.4834816141732281
21
-3.3383109055118108
0
LINE
8
BLACK
6
CONTINUOUS
10
6.4834816141732281
20
-3.3383109055118108
11
6.4829489370078734
21
-3.3377782283464565
0
LINE
8
BLACK
6
CONTINUOUS
10
6.4829489370078734
20
-3.3377782283464565
11
6.4828740157480311
21
-3.3374015748031494
0
LINE
8
BLACK
6
CONTINUOUS
10
6.4828740157480311
20
-3.3374015748031494
11
6.4828740157480311
21
-3.2625984251968503
0
LINE
8
BLACK
6
CONTINUOUS
10
6.4828740157480311
20
-3.2625984251968503
11
6.4829489370078734
21
-3.2622217716535431
0
LINE
8
BLACK
6
CONTINUOUS
10
6.4829489370078734
20
-3.2622217716535431
11
6.4834816141732281
21
-3.2616890944881889
0
LINE
8
BLACK
6
CONTINUOUS
10
6.4834816141732281
20
-3.2616890944881889
11
6.4838582677165357
21
-3.2616141732283466
0
LINE
8
BLACK
6
CONTINUOUS
10
6.4838582677165357
20
-3.2616141732283466
11
6.6161417322834648
21
-3.2616141732283466
0
LINE
8
BLACK
6
CONTINUOUS
10
6.6161417322834648
20
-3.2616141732283466
11
6.6165183858267715
21
-3.2616890944881889
0
LINE
8
BLACK
6
CONTINUOUS
10
6.4848425196850394
20
-3.2635826771653544
11
6.4848425196850394
21
-3.3364173228346456
0
LINE
8
BLACK
6
CONTINUOUS
10
6.4848425196850394
20
-3.3364173228346456
11
6.6151574803149602
21
-3.3364173228346456
0
LINE
8
BLACK
6
CONTINUOUS
10
6.6151574803149602
20
-3.3364173228346456
11
6.6151574803149602
21
-3.2635826771653544
0
LINE
8
BLACK
6
CONTINUOUS
10
6.6151574803149602
20
-3.2635826771653544
11
6.4848425196850394
21
-3.2635826771653544
0
LINE
8
BLACK
6
CONTINUOUS
10
5.7367782283464566
20
-3.1929489370078739
11
5.7373109055118112
21
-3.1934816141732281
0
LINE
8
BLACK
6
CONTINUOUS
10
5.7373109055118112
20
-3.1934816141732281
11
5.7373858267716535
21
-3.1938582677165352
0
LINE
8
BLACK
6
CONTINUOUS
10
5.7373858267716535
20
-3.1938582677165352
11
5.7373858267716535
21
-3.3261417322834643
0
LINE
8
BLACK
6
CONTINUOUS
10
5.7373858267716535
20
-3.3261417322834643
11
5.7373109055118112
21
-3.3265183858267715
0
LINE
8
BLACK
6
CONTINUOUS
10
5.7373109055118112
20
-3.3265183858267715
11
5.7367782283464566
21
-3.3270510629921257
0
LINE
8
BLACK
6
CONTINUOUS
10
5.7367782283464566
20
-3.3270510629921257
11
5.7364015748031498
21
-3.3271259842519685
0
LINE
8
BLACK
6
CONTINUOUS
10
5.7364015748031498
20
-3.3271259842519685
11
5.6615984251968499
21
-3.3271259842519685
0
LINE
8
BLACK
6
CONTINUOUS
10
5.6615984251968499
20
-3.3271259842519685
11
5.6612217716535431
21
-3.3270510629921257
0
LINE
8
BLACK
6
CONTINUOUS
10
5.6612217716535431
20
-3.3270510629921257
11
5.6606890944881885
21
-3.3265183858267715
0
LINE
8
BLACK
6
CONTINUOUS
10
5.6606890944881885
20
-3.3265183858267715
11
5.6606141732283461
21
-3.3261417322834643
0
LINE
8
BLACK
6
CONTINUOUS
10
5.6606141732283461
20
-3.3261417322834643
11
5.6606141732283461
21
-3.1938582677165352
0
LINE
8
BLACK
6
CONTINUOUS
10
5.6606141732283461
20
-3.1938582677165352
11
5.6606890944881885
21
-3.1934816141732281
0
LINE
8
BLACK
6
CONTINUOUS
10
5.6606890944881885
20
-3.1934816141732281
11
5.6612217716535431
21
-3.1929489370078739
0
LINE
8
BLACK
6
CONTINUOUS
10
5.6612217716535431
20
-3.1929489370078739
11
5.6615984251968499
21
-3.1928740157480315
0
LINE
8
BLACK
6
CONTINUOUS
10
5.6615984251968499
20
-3.1928740157480315
11
5.7364015748031498
21
-3.1928740157480315
0
LINE
8
BLACK
6
CONTINUOUS
10
5.7364015748031498
20
-3.1928740157480315
11
5.7367782283464566
21
-3.1929489370078739
0
LINE
8
BLACK
6
CONTINUOUS
10
5.6625826771653545
20
-3.1948425196850394
11
5.6625826771653545
21
-3.3251574803149606
0
LINE
8
BLACK
6
CONTINUOUS
10
5.6625826771653545
20
-3.3251574803149606
11
5.7354173228346452
21
-3.3251574803149606
0
LINE
8
BLACK
6
CONTINUOUS
10
5.7354173228346452
20
-3.3251574803149606
11
5.7354173228346452
21
-3.1948425196850394
0
LINE
8
BLACK
6
CONTINUOUS
10
5.7354173228346452
20
-3.1948425196850394
11
5.6625826771653545
21
-3.1948425196850394
0
LINE
8
BLACK
6
CONTINUOUS
10
6.7391168110236217
20
-3.1818229527559057
11
6.7396494881889764
21
-3.1823556299212599
0
LINE
8
BLACK
6
CONTINUOUS
10
6.7396494881889764
20
-3.1823556299212599
11
6.7397244094488187
21
-3.182732283464567
0
LINE
8
BLACK
6
CONTINUOUS
10
6.7397244094488187
20
-3.182732283464567
11
6.7397244094488187
21
-3.2992677165354332
0
LINE
8
BLACK
6
CONTINUOUS
10
6.7397244094488187
20
-3.2992677165354332
11
6.7396494881889764
21
-3.2996443700787399
0
LINE
8
BLACK
6
CONTINUOUS
10
6.7396494881889764
20
-3.2996443700787399
11
6.7391168110236217
21
-3.3001770472440946
0
LINE
8
BLACK
6
CONTINUOUS
10
6.7391168110236217
20
-3.3001770472440946
11
6.738740157480315
21
-3.3002519685039369
0
LINE
8
BLACK
6
CONTINUOUS
10
6.738740157480315
20
-3.3002519685039369
11
6.681259842519685
21
-3.3002519685039369
0
LINE
8
BLACK
6
CONTINUOUS
10
6.681259842519685
20
-3.3002519685039369
11
6.6808831889763782
21
-3.3001770472440946
0
LINE
8
BLACK
6
CONTINUOUS
10
6.6808831889763782
20
-3.3001770472440946
11
6.6803505118110236
21
-3.2996443700787399
0
LINE
8
BLACK
6
CONTINUOUS
10
6.6803505118110236
20
-3.2996443700787399
11
6.6802755905511813
21
-3.2992677165354332
0
LINE
8
BLACK
6
CONTINUOUS
10
6.6802755905511813
20
-3.2992677165354332
11
6.6802755905511813
21
-3.182732283464567
0
LINE
8
BLACK
6
CONTINUOUS
10
6.6802755905511813
20
-3.182732283464567
11
6.6803505118110236
21
-3.1823556299212599
0
LINE
8
BLACK
6
CONTINUOUS
10
6.6803505118110236
20
-3.1823556299212599
11
6.6808831889763782
21
-3.1818229527559057
0
LINE
8
BLACK
6
CONTINUOUS
10
6.6808831889763782
20
-3.1818229527559057
11
6.681259842519685
21
-3.1817480314960629
0
LINE
8
BLACK
6
CONTINUOUS
10
6.681259842519685
20
-3.1817480314960629
11
6.738740157480315
21
-3.1817480314960629
0
LINE
8
BLACK
6
CONTINUOUS
10
6.738740157480315
20
-3.1817480314960629
11
6.7391168110236217
21
-3.1818229527559057
0
LINE
8
BLACK
6
CONTINUOUS
10
6.6822440944881887
20
-3.1837165354330708
11
6.6822440944881887
21
-3.298283464566929
0
LINE
8
BLACK
6
CONTINUOUS
10
6.6822440944881887
20
-3.298283464566929
11
6.7377559055118112
21
-3.298283464566929
0
LINE
8
BLACK
6
CONTINUOUS
10
6.7377559055118112
20
-3.298283464566929
11
6.7377559055118112
21
-3.1837165354330708
0
LINE
8
BLACK
6
CONTINUOUS
10
6.7377559055118112
20
-3.1837165354330708
11
6.6822440944881887
21
-3.1837165354330708
0
LINE
8
BLACK
6
CONTINUOUS
10
6.4307782283464565
20
-3.1639489370078739
11
6.4313109055118112
21
-3.1644816141732282
0
LINE
8
BLACK
6
CONTINUOUS
10
6.4313109055118112
20
-3.1644816141732282
11
6.4313858267716535
21
-3.1648582677165353
0
LINE
8
BLACK
6
CONTINUOUS
10
6.4313858267716535
20
-3.1648582677165353
11
6.4313858267716535
21
-3.2971417322834644
0
LINE
8
BLACK
6
CONTINUOUS
10
6.4313858267716535
20
-3.2971417322834644
11
6.4313109055118112
21
-3.2975183858267716
0
LINE
8
BLACK
6
CONTINUOUS
10
6.4313109055118112
20
-3.2975183858267716
11
6.4307782283464565
21
-3.2980510629921258
0
LINE
8
BLACK
6
CONTINUOUS
10
6.4307782283464565
20
-3.2980510629921258
11
6.4304015748031498
21
-3.2981259842519686
0
LINE
8
BLACK
6
CONTINUOUS
10
6.4304015748031498
20
-3.2981259842519686
11
6.3555984251968498
21
-3.2981259842519686
0
LINE
8
BLACK
6
CONTINUOUS
10
6.3555984251968498
20
-3.2981259842519686
11
6.3552217716535431
21
-3.2980510629921258
0
LINE
8
BLACK
6
CONTINUOUS
10
6.3552217716535431
20
-3.2980510629921258
11
6.3546890944881884
21
-3.2975183858267716
0
LINE
8
BLACK
6
CONTINUOUS
10
6.3546890944881884
20
-3.2975183858267716
11
6.3546141732283461
21
-3.2971417322834644
0
LINE
8
BLACK
6
CONTINUOUS
10
6.3546141732283461
20
-3.2971417322834644
11
6.3546141732283461
21
-3.1648582677165353
0
LINE
8
BLACK
6
CONTINUOUS
10
6.3546141732283461
20
-3.1648582677165353
11
6.3546890944881884
21
-3.1644816141732282
0
LINE
8
BLACK
6
CONTINUOUS
10
6.3546890944881884
20
-3.1644816141732282
11
6.3552217716535431
21
-3.1639489370078739
0
LINE
8
BLACK
6
CONTINUOUS
10
6.3552217716535431
20
-3.1639489370078739
11
6.3555984251968498
21
-3.1638740157480316
0
LINE
8
BLACK
6
CONTINUOUS
10
6.3555984251968498
20
-3.1638740157480316
11
6.4304015748031498
21
-3.1638740157480316
0
LINE
8
BLACK
6
CONTINUOUS
10
6.4304015748031498
20
-3.1638740157480316
11
6.4307782283464565
21
-3.1639489370078739
0
LINE
8
BLACK
6
CONTINUOUS
10
6.3565826771653544
20
-3.1658425196850395
11
6.3565826771653544
21
-3.2961574803149607
0
LINE
8
BLACK
6
CONTINUOUS
10
6.3565826771653544
20
-3.2961574803149607
11
6.4294173228346452
21
-3.2961574803149607
0
LINE
8
BLACK
6
CONTINUOUS
10
6.4294173228346452
20
-3.2961574803149607
11
6.4294173228346452
21
-3.1658425196850395
0
LINE
8
BLACK
6
CONTINUOUS
10
6.4294173228346452
20
-3.1658425196850395
11
6.3565826771653544
21
-3.1658425196850395
0
LINE
8
BLACK
6
CONTINUOUS
10
5.4373845275590549
20
-2.6585394881889761
11
5.4379172047244095
21
-2.6590721653543308
0
LINE
8
BLACK
6
CONTINUOUS
10
5.4379172047244095
20
-2.6590721653543308
11
5.4379921259842519
21
-2.659448818897638
0
LINE
8
BLACK
6
CONTINUOUS
10
5.4379921259842519
20
-2.659448818897638
11
5.4379921259842519
21
-3.2007874015748032
0
LINE
8
BLACK
6
CONTINUOUS
10
5.4379921259842519
20
-3.2007874015748032
11
5.4379172047244095
21
-3.20116405511811
0
LINE
8
BLACK
6
CONTINUOUS
10
5.4379172047244095
20
-3.20116405511811
11
5.4373845275590549
21
-3.2016967322834646
0
LINE
8
BLACK
6
CONTINUOUS
10
5.4373845275590549
20
-3.2016967322834646
11
5.4370078740157481
21
-3.201771653543307
0
LINE
8
BLACK
6
CONTINUOUS
10
5.4370078740157481
20
-3.201771653543307
11
5.2952755905511806
21
-3.201771653543307
0
LINE
8
BLACK
6
CONTINUOUS
10
5.2952755905511806
20
-3.201771653543307
11
5.2948989370078738
21
-3.2016967322834646
0
LINE
8
BLACK
6
CONTINUOUS
10
5.2948989370078738
20
-3.2016967322834646
11
5.2943662598425192
21
-3.20116405511811
0
LINE
8
BLACK
6
CONTINUOUS
10
5.2943662598425192
20
-3.20116405511811
11
5.2942913385826769
21
-3.2007874015748032
0
LINE
8
BLACK
6
CONTINUOUS
10
5.2942913385826769
20
-3.2007874015748032
11
5.2942913385826769
21
-2.659448818897638
0
LINE
8
BLACK
6
CONTINUOUS
10
5.2942913385826769
20
-2.659448818897638
11
5.2943662598425192
21
-2.6590721653543308
0
LINE
8
BLACK
6
CONTINUOUS
10
5.2943662598425192
20
-2.6590721653543308
11
5.2948989370078738
21
-2.6585394881889761
0
LINE
8
BLACK
6
CONTINUOUS
10
5.2948989370078738
20
-2.6585394881889761
11
5.2952755905511806
21
-2.6584645669291338
0
LINE
8
BLACK
6
CONTINUOUS
10
5.2952755905511806
20
-2.6584645669291338
11
5.4370078740157481
21
-2.6584645669291338
0
LINE
8
BLACK
6
CONTINUOUS
10
5.4370078740157481
20
-2.6584645669291338
11
5.4373845275590549
21
-2.6585394881889761
0
LINE
8
BLACK
6
CONTINUOUS
10
5.2962598425196852
20
-2.6604330708661417
11
5.2962598425196852
21
-3.1998031496062991
0
LINE
8
BLACK
6
CONTINUOUS
10
5.2962598425196852
20
-3.1998031496062991
11
5.4360236220472435
21
-3.1998031496062991
0
LINE
8
BLACK
6
CONTINUOUS
10
5.4360236220472435
20
-3.1998031496062991
11
5.4360236220472435
21
-2.6604330708661417
0
LINE
8
BLACK
6
CONTINUOUS
10
5.4360236220472435
20
-2.6604330708661417
11
5.2962598425196852
21
-2.6604330708661417
0
LINE
8
BLACK
6
CONTINUOUS
10
5.7367782283464566
20
-3.0419489370078741
11
5.7373109055118112
21
-3.0424816141732283
0
LINE
8
BLACK
6
CONTINUOUS
10
5.7373109055118112
20
-3.0424816141732283
11
5.7373858267716535
21
-3.0428582677165354
0
LINE
8
BLACK
6
CONTINUOUS
10
5.7373858267716535
20
-3.0428582677165354
11
5.7373858267716535
21
-3.1751417322834645
0
LINE
8
BLACK
6
CONTINUOUS
10
5.7373858267716535
20
-3.1751417322834645
11
5.7373109055118112
21
-3.1755183858267717
0
LINE
8
BLACK
6
CONTINUOUS
10
5.7373109055118112
20
-3.1755183858267717
11
5.7367782283464566
21
-3.1760510629921259
0
LINE
8
BLACK
6
CONTINUOUS
10
5.7367782283464566
20
-3.1760510629921259
11
5.7364015748031498
21
-3.1761259842519682
0
LINE
8
BLACK
6
CONTINUOUS
10
5.7364015748031498
20
-3.1761259842519682
11
5.6615984251968499
21
-3.1761259842519682
0
LINE
8
BLACK
6
CONTINUOUS
10
5.6615984251968499
20
-3.1761259842519682
11
5.6612217716535431
21
-3.1760510629921259
0
LINE
8
BLACK
6
CONTINUOUS
10
5.6612217716535431
20
-3.1760510629921259
11
5.6606890944881885
21
-3.1755183858267717
0
LINE
8
BLACK
6
CONTINUOUS
10
5.6606890944881885
20
-3.1755183858267717
11
5.6606141732283461
21
-3.1751417322834645
0
LINE
8
BLACK
6
CONTINUOUS
10
5.6606141732283461
20
-3.1751417322834645
11
5.6606141732283461
21
-3.0428582677165354
0
LINE
8
BLACK
6
CONTINUOUS
10
5.6606141732283461
20
-3.0428582677165354
11
5.6606890944881885
21
-3.0424816141732283
0
LINE
8
BLACK
6
CONTINUOUS
10
5.6606890944881885
20
-3.0424816141732283
11
5.6612217716535431
21
-3.0419489370078741
0
LINE
8
BLACK
6
CONTINUOUS
10
5.6612217716535431
20
-3.0419489370078741
11
5.6615984251968499
21
-3.0418740157480313
0
LINE
8
BLACK
6
CONTINUOUS
10
5.6615984251968499
20
-3.0418740157480313
11
5.7364015748031498
21
-3.0418740157480313
0
LINE
8
BLACK
6
CONTINUOUS
10
5.7364015748031498
20
-3.0418740157480313
11
5.7367782283464566
21
-3.0419489370078741
0
LINE
8
BLACK
6
CONTINUOUS
10
5.6625826771653545
20
-3.0438425196850392
11
5.6625826771653545
21
-3.1741574803149604
0
LINE
8
BLACK
6
CONTINUOUS
10
5.6625826771653545
20
-3.1741574803149604
11
5.7354173228346452
21
-3.1741574803149604
0
LINE
8
BLACK
6
CONTINUOUS
10
5.7354173228346452
20
-3.1741574803149604
11
5.7354173228346452
21
-3.0438425196850392
0
LINE
8
BLACK
6
CONTINUOUS
10
5.7354173228346452
20
-3.0438425196850392
11
5.6625826771653545
21
-3.0438425196850392
0
LINE
8
BLACK
6
CONTINUOUS
10
6.1285183858267711
20
-3.066689094488189
11
6.1290510629921258
21
-3.0672217716535433
0
LINE
8
BLACK
6
CONTINUOUS
10
6.1290510629921258
20
-3.0672217716535433
11
6.1291259842519681
21
-3.0675984251968504
0
LINE
8
BLACK
6
CONTINUOUS
10
6.1291259842519681
20
-3.0675984251968504
11
6.1291259842519681
21
-3.1424015748031495
0
LINE
8
BLACK
6
CONTINUOUS
10
6.1291259842519681
20
-3.1424015748031495
11
6.1290510629921258
21
-3.1427782283464567
0
LINE
8
BLACK
6
CONTINUOUS
10
6.1290510629921258
20
-3.1427782283464567
11
6.1285183858267711
21
-3.1433109055118109
0
LINE
8
BLACK
6
CONTINUOUS
10
6.1285183858267711
20
-3.1433109055118109
11
6.1281417322834644
21
-3.1433858267716537
0
LINE
8
BLACK
6
CONTINUOUS
10
6.1281417322834644
20
-3.1433858267716537
11
5.9958582677165353
21
-3.1433858267716537
0
LINE
8
BLACK
6
CONTINUOUS
10
5.9958582677165353
20
-3.1433858267716537
11
5.9954816141732286
21
-3.1433109055118109
0
LINE
8
BLACK
6
CONTINUOUS
10
5.9954816141732286
20
-3.1433109055118109
11
5.9949489370078739
21
-3.1427782283464567
0
LINE
8
BLACK
6
CONTINUOUS
10
5.9949489370078739
20
-3.1427782283464567
11
5.9948740157480316
21
-3.1424015748031495
0
LINE
8
BLACK
6
CONTINUOUS
10
5.9948740157480316
20
-3.1424015748031495
11
5.9948740157480316
21
-3.0675984251968504
0
LINE
8
BLACK
6
CONTINUOUS
10
5.9948740157480316
20
-3.0675984251968504
11
5.9949489370078739
21
-3.0672217716535433
0
LINE
8
BLACK
6
CONTINUOUS
10
5.9949489370078739
20
-3.0672217716535433
11
5.9954816141732286
21
-3.066689094488189
0
LINE
8
BLACK
6
CONTINUOUS
10
5.9954816141732286
20
-3.066689094488189
11
5.9958582677165353
21
-3.0666141732283463
0
LINE
8
BLACK
6
CONTINUOUS
10
5.9958582677165353
20
-3.0666141732283463
11
6.1281417322834644
21
-3.0666141732283463
0
LINE
8
BLACK
6
CONTINUOUS
10
6.1281417322834644
20
-3.0666141732283463
11
6.1285183858267711
21
-3.066689094488189
0
LINE
8
BLACK
6
CONTINUOUS
10
5.996842519685039
20
-3.0685826771653542
11
5.996842519685039
21
-3.1414173228346458
0
LINE
8
BLACK
6
CONTINUOUS
10
5.996842519685039
20
-3.1414173228346458
11
6.1271574803149607
21
-3.1414173228346458
0
LINE
8
BLACK
6
CONTINUOUS
10
6.1271574803149607
20
-3.1414173228346458
11
6.1271574803149607
21
-3.0685826771653542
0
LINE
8
BLACK
6
CONTINUOUS
10
6.1271574803149607
20
-3.0685826771653542
11
5.996842519685039
21
-3.0685826771653542
0
LINE
8
BLACK
6
CONTINUOUS
10
6.7265183858267719
20
-2.9623190157480312
11
6.7270510629921256
21
-2.9628516929133859
0
LINE
8
BLACK
6
CONTINUOUS
10
6.7270510629921256
20
-2.9628516929133859
11
6.7271259842519679
21
-2.9632283464566926
0
LINE
8
BLACK
6
CONTINUOUS
10
6.7271259842519679
20
-2.9632283464566926
11
6.7271259842519679
21
-3.116771653543307
0
LINE
8
BLACK
6
CONTINUOUS
10
6.7271259842519679
20
-3.116771653543307
11
6.7270510629921256
21
-3.1171483070866142
0
LINE
8
BLACK
6
CONTINUOUS
10
6.7270510629921256
20
-3.1171483070866142
11
6.7265183858267719
21
-3.1176809842519684
0
LINE
8
BLACK
6
CONTINUOUS
10
6.7265183858267719
20
-3.1176809842519684
11
6.7261417322834642
21
-3.1177559055118111
0
LINE
8
BLACK
6
CONTINUOUS
10
6.7261417322834642
20
-3.1177559055118111
11
6.4938582677165355
21
-3.1177559055118111
0
LINE
8
BLACK
6
CONTINUOUS
10
6.4938582677165355
20
-3.1177559055118111
11
6.4934816141732279
21
-3.1176809842519684
0
LINE
8
BLACK
6
CONTINUOUS
10
6.4934816141732279
20
-3.1176809842519684
11
6.4929489370078741
21
-3.1171483070866142
0
LINE
8
BLACK
6
CONTINUOUS
10
6.4929489370078741
20
-3.1171483070866142
11
6.4928740157480309
21
-3.116771653543307
0
LINE
8
BLACK
6
CONTINUOUS
10
6.4928740157480309
20
-3.116771653543307
11
6.4928740157480309
21
-2.9632283464566926
0
LINE
8
BLACK
6
CONTINUOUS
10
6.4928740157480309
20
-2.9632283464566926
11
6.4929489370078741
21
-2.9628516929133859
0
LINE
8
BLACK
6
CONTINUOUS
10
6.4929489370078741
20
-2.9628516929133859
11
6.4934816141732279
21
-2.9623190157480312
0
LINE
8
BLACK
6
CONTINUOUS
10
6.4934816141732279
20
-2.9623190157480312
11
6.4938582677165355
21
-2.9622440944881889
0
LINE
8
BLACK
6
CONTINUOUS
10
6.4938582677165355
20
-2.9622440944881889
11
6.7261417322834642
21
-2.9622440944881889
0
LINE
8
BLACK
6
CONTINUOUS
10
6.7261417322834642
20
-2.9622440944881889
11
6.7265183858267719
21
-2.9623190157480312
0
LINE
8
BLACK
6
CONTINUOUS
10
6.4948425196850392
20
-2.9642125984251968
11
6.4948425196850392
21
-3.1157874015748033
0
LINE
8
BLACK
6
CONTINUOUS
10
6.4948425196850392
20
-3.1157874015748033
11
6.7251574803149605
21
-3.1157874015748033
0
LINE
8
BLACK
6
CONTINUOUS
10
6.7251574803149605
20
-3.1157874015748033
11
6.7251574803149605
21
-2.9642125984251968
0
LINE
8
BLACK
6
CONTINUOUS
10
6.7251574803149605
20
-2.9642125984251968
11
6.4948425196850392
21
-2.9642125984251968
0
LINE
8
BLACK
6
CONTINUOUS
10
6.3247073622047241
20
-2.9490119291338583
11
6.3252400393700787
21
-2.9495446062992126
0
LINE
8
BLACK
6
CONTINUOUS
10
6.3252400393700787
20
-2.9495446062992126
11
6.325314960629921
21
-2.9499212598425197
0
LINE
8
BLACK
6
CONTINUOUS
10
6.325314960629921
20
-2.9499212598425197
11
6.325314960629921
21
-3.0247244094488188
0
LINE
8
BLACK
6
CONTINUOUS
10
6.325314960629921
20
-3.0247244094488188
11
6.3252400393700787
21
-3.025101062992126
0
LINE
8
BLACK
6
CONTINUOUS
10
6.3252400393700787
20
-3.025101062992126
11
6.3247073622047241
21
-3.0256337401574802
0
LINE
8
BLACK
6
CONTINUOUS
10
6.3247073622047241
20
-3.0256337401574802
11
6.3243307086614173
21
-3.025708661417323
0
LINE
8
BLACK
6
CONTINUOUS
10
6.3243307086614173
20
-3.025708661417323
11
6.1920472440944883
21
-3.025708661417323
0
LINE
8
BLACK
6
CONTINUOUS
10
6.1920472440944883
20
-3.025708661417323
11
6.1916705905511806
21
-3.0256337401574802
0
LINE
8
BLACK
6
CONTINUOUS
10
6.1916705905511806
20
-3.0256337401574802
11
6.1911379133858269
21
-3.025101062992126
0
LINE
8
BLACK
6
CONTINUOUS
10
6.1911379133858269
20
-3.025101062992126
11
6.1910629921259845
21
-3.0247244094488188
0
LINE
8
BLACK
6
CONTINUOUS
10
6.1910629921259845
20
-3.0247244094488188
11
6.1910629921259845
21
-2.9499212598425197
0
LINE
8
BLACK
6
CONTINUOUS
10
6.1910629921259845
20
-2.9499212598425197
11
6.1911379133858269
21
-2.9495446062992126
0
LINE
8
BLACK
6
CONTINUOUS
10
6.1911379133858269
20
-2.9495446062992126
11
6.1916705905511806
21
-2.9490119291338583
0
LINE
8
BLACK
6
CONTINUOUS
10
6.1916705905511806
20
-2.9490119291338583
11
6.1920472440944883
21
-2.9489370078740156
0
LINE
8
BLACK
6
CONTINUOUS
10
6.1920472440944883
20
-2.9489370078740156
11
6.3243307086614173
21
-2.9489370078740156
0
LINE
8
BLACK
6
CONTINUOUS
10
6.3243307086614173
20
-2.9489370078740156
11
6.3247073622047241
21
-2.9490119291338583
0
LINE
8
BLACK
6
CONTINUOUS
10
6.193031496062992
20
-2.9509055118110235
11
6.193031496062992
21
-3.0237401574803151
0
LINE
8
BLACK
6
CONTINUOUS
10
6.193031496062992
20
-3.0237401574803151
11
6.3233464566929136
21
-3.0237401574803151
0
LINE
8
BLACK
6
CONTINUOUS
10
6.3233464566929136
20
-3.0237401574803151
11
6.3233464566929136
21
-2.9509055118110235
0
LINE
8
BLACK
6
CONTINUOUS
10
6.3233464566929136
20
-2.9509055118110235
11
6.193031496062992
21
-2.9509055118110235
0
LINE
8
BLACK
6
CONTINUOUS
10
6.175967204724409
20
-2.8902717716535431
11
6.1764998818897636
21
-2.8908044488188978
0
LINE
8
BLACK
6
CONTINUOUS
10
6.1764998818897636
20
-2.8908044488188978
11
6.1765748031496059
21
-2.8911811023622045
0
LINE
8
BLACK
6
CONTINUOUS
10
6.1765748031496059
20
-2.8911811023622045
11
6.1765748031496059
21
-3.0234645669291336
0
LINE
8
BLACK
6
CONTINUOUS
10
6.1765748031496059
20
-3.0234645669291336
11
6.1764998818897636
21
-3.0238412204724407
0
LINE
8
BLACK
6
CONTINUOUS
10
6.1764998818897636
20
-3.0238412204724407
11
6.175967204724409
21
-3.0243738976377954
0
LINE
8
BLACK
6
CONTINUOUS
10
6.175967204724409
20
-3.0243738976377954
11
6.1755905511811022
21
-3.0244488188976377
0
LINE
8
BLACK
6
CONTINUOUS
10
6.1755905511811022
20
-3.0244488188976377
11
6.1007874015748031
21
-3.0244488188976377
0
LINE
8
BLACK
6
CONTINUOUS
10
6.1007874015748031
20
-3.0244488188976377
11
6.1004107480314955
21
-3.0243738976377954
0
LINE
8
BLACK
6
CONTINUOUS
10
6.1004107480314955
20
-3.0243738976377954
11
6.0998780708661418
21
-3.0238412204724407
0
LINE
8
BLACK
6
CONTINUOUS
10
6.0998780708661418
20
-3.0238412204724407
11
6.0998031496062994
21
-3.0234645669291336
0
LINE
8
BLACK
6
CONTINUOUS
10
6.0998031496062994
20
-3.0234645669291336
11
6.0998031496062994
21
-2.8911811023622045
0
LINE
8
BLACK
6
CONTINUOUS
10
6.0998031496062994
20
-2.8911811023622045
11
6.0998780708661418
21
-2.8908044488188978
0
LINE
8
BLACK
6
CONTINUOUS
10
6.0998780708661418
20
-2.8908044488188978
11
6.1004107480314955
21
-2.8902717716535431
0
LINE
8
BLACK
6
CONTINUOUS
10
6.1004107480314955
20
-2.8902717716535431
11
6.1007874015748031
21
-2.8901968503937008
0
LINE
8
BLACK
6
CONTINUOUS
10
6.1007874015748031
20
-2.8901968503937008
11
6.1755905511811022
21
-2.8901968503937008
0
LINE
8
BLACK
6
CONTINUOUS
10
6.1755905511811022
20
-2.8901968503937008
11
6.175967204724409
21
-2.8902717716535431
0
LINE
8
BLACK
6
CONTINUOUS
10
6.1017716535433069
20
-2.8921653543307086
11
6.1017716535433069
21
-3.0224803149606299
0
LINE
8
BLACK
6
CONTINUOUS
10
6.1017716535433069
20
-3.0224803149606299
11
6.1746062992125985
21
-3.0224803149606299
0
LINE
8
BLACK
6
CONTINUOUS
10
6.1746062992125985
20
-3.0224803149606299
11
6.1746062992125985
21
-2.8921653543307086
0
LINE
8
BLACK
6
CONTINUOUS
10
6.1746062992125985
20
-2.8921653543307086
11
6.1017716535433069
21
-2.8921653543307086
0
LINE
8
BLACK
6
CONTINUOUS
10
6.425967204724409
20
-2.8902717716535431
11
6.4264998818897636
21
-2.8908044488188978
0
LINE
8
BLACK
6
CONTINUOUS
10
6.4264998818897636
20
-2.8908044488188978
11
6.4265748031496059
21
-2.8911811023622045
0
LINE
8
BLACK
6
CONTINUOUS
10
6.4265748031496059
20
-2.8911811023622045
11
6.4265748031496059
21
-3.0234645669291336
0
LINE
8
BLACK
6
CONTINUOUS
10
6.4265748031496059
20
-3.0234645669291336
11
6.4264998818897636
21
-3.0238412204724407
0
LINE
8
BLACK
6
CONTINUOUS
10
6.4264998818897636
20
-3.0238412204724407
11
6.425967204724409
21
-3.0243738976377954
0
LINE
8
BLACK
6
CONTINUOUS
10
6.425967204724409
20
-3.0243738976377954
11
6.4255905511811022
21
-3.0244488188976377
0
LINE
8
BLACK
6
CONTINUOUS
10
6.4255905511811022
20
-3.0244488188976377
11
6.3507874015748031
21
-3.0244488188976377
0
LINE
8
BLACK
6
CONTINUOUS
10
6.3507874015748031
20
-3.0244488188976377
11
6.3504107480314955
21
-3.0243738976377954
0
LINE
8
BLACK
6
CONTINUOUS
10
6.3504107480314955
20
-3.0243738976377954
11
6.3498780708661418
21
-3.0238412204724407
0
LINE
8
BLACK
6
CONTINUOUS
10
6.3498780708661418
20
-3.0238412204724407
11
6.3498031496062994
21
-3.0234645669291336
0
LINE
8
BLACK
6
CONTINUOUS
10
6.3498031496062994
20
-3.0234645669291336
11
6.3498031496062994
21
-2.8911811023622045
0
LINE
8
BLACK
6
CONTINUOUS
10
6.3498031496062994
20
-2.8911811023622045
11
6.3498780708661418
21
-2.8908044488188978
0
LINE
8
BLACK
6
CONTINUOUS
10
6.3498780708661418
20
-2.8908044488188978
11
6.3504107480314955
21
-2.8902717716535431
0
LINE
8
BLACK
6
CONTINUOUS
10
6.3504107480314955
20
-2.8902717716535431
11
6.3507874015748031
21
-2.8901968503937008
0
LINE
8
BLACK
6
CONTINUOUS
10
6.3507874015748031
20
-2.8901968503937008
11
6.4255905511811022
21
-2.8901968503937008
0
LINE
8
BLACK
6
CONTINUOUS
10
6.4255905511811022
20
-2.8901968503937008
11
6.425967204724409
21
-2.8902717716535431
0
LINE
8
BLACK
6
CONTINUOUS
10
6.3517716535433069
20
-2.8921653543307086
11
6.3517716535433069
21
-3.0224803149606299
0
LINE
8
BLACK
6
CONTINUOUS
10
6.3517716535433069
20
-3.0224803149606299
11
6.4246062992125985
21
-3.0224803149606299
0
LINE
8
BLACK
6
CONTINUOUS
10
6.4246062992125985
20
-3.0224803149606299
11
6.4246062992125985
21
-2.8921653543307086
0
LINE
8
BLACK
6
CONTINUOUS
10
6.4246062992125985
20
-2.8921653543307086
11
6.3517716535433069
21
-2.8921653543307086
0
LINE
8
BLACK
6
CONTINUOUS
10
5.7377782283464569
20
-2.8837363385826773
11
5.7383109055118107
21
-2.8842690157480315
0
LINE
8
BLACK
6
CONTINUOUS
10
5.7383109055118107
20
-2.8842690157480315
11
5.738385826771653
21
-2.8846456692913387
0
LINE
8
BLACK
6
CONTINUOUS
10
5.738385826771653
20
-2.8846456692913387
11
5.738385826771653
21
-3.0169291338582678
0
LINE
8
BLACK
6
CONTINUOUS
10
5.738385826771653
20
-3.0169291338582678
11
5.7383109055118107
21
-3.0173057874015745
0
LINE
8
BLACK
6
CONTINUOUS
10
5.7383109055118107
20
-3.0173057874015745
11
5.7377782283464569
21
-3.0178384645669292
0
LINE
8
BLACK
6
CONTINUOUS
10
5.7377782283464569
20
-3.0178384645669292
11
5.7374015748031493
21
-3.0179133858267715
0
LINE
8
BLACK
6
CONTINUOUS
10
5.7374015748031493
20
-3.0179133858267715
11
5.6625984251968502
21
-3.0179133858267715
0
LINE
8
BLACK
6
CONTINUOUS
10
5.6625984251968502
20
-3.0179133858267715
11
5.6622217716535435
21
-3.0178384645669292
0
LINE
8
BLACK
6
CONTINUOUS
10
5.6622217716535435
20
-3.0178384645669292
11
5.6616890944881888
21
-3.0173057874015745
0
LINE
8
BLACK
6
CONTINUOUS
10
5.6616890944881888
20
-3.0173057874015745
11
5.6616141732283465
21
-3.0169291338582678
0
LINE
8
BLACK
6
CONTINUOUS
10
5.6616141732283465
20
-3.0169291338582678
11
5.6616141732283465
21
-2.8846456692913387
0
LINE
8
BLACK
6
CONTINUOUS
10
5.6616141732283465
20
-2.8846456692913387
11
5.6616890944881888
21
-2.8842690157480315
0
LINE
8
BLACK
6
CONTINUOUS
10
5.6616890944881888
20
-2.8842690157480315
11
5.6622217716535435
21
-2.8837363385826773
0
LINE
8
BLACK
6
CONTINUOUS
10
5.6622217716535435
20
-2.8837363385826773
11
5.6625984251968502
21
-2.8836614173228345
0
LINE
8
BLACK
6
CONTINUOUS
10
5.6625984251968502
20
-2.8836614173228345
11
5.7374015748031493
21
-2.8836614173228345
0
LINE
8
BLACK
6
CONTINUOUS
10
5.7374015748031493
20
-2.8836614173228345
11
5.7377782283464569
21
-2.8837363385826773
0
LINE
8
BLACK
6
CONTINUOUS
10
5.6635826771653539
20
-2.8856299212598424
11
5.6635826771653539
21
-3.0159448818897636
0
LINE
8
BLACK
6
CONTINUOUS
10
5.6635826771653539
20
-3.0159448818897636
11
5.7364173228346456
21
-3.0159448818897636
0
LINE
8
BLACK
6
CONTINUOUS
10
5.7364173228346456
20
-3.0159448818897636
11
5.7364173228346456
21
-2.8856299212598424
0
LINE
8
BLACK
6
CONTINUOUS
10
5.7364173228346456
20
-2.8856299212598424
11
5.6635826771653539
21
-2.8856299212598424
0
LINE
8
BLACK
6
CONTINUOUS
10
5.8377782283464565
20
-2.8837363385826773
11
5.8383109055118112
21
-2.8842690157480315
0
LINE
8
BLACK
6
CONTINUOUS
10
5.8383109055118112
20
-2.8842690157480315
11
5.8383858267716535
21
-2.8846456692913387
0
LINE
8
BLACK
6
CONTINUOUS
10
5.8383858267716535
20
-2.8846456692913387
11
5.8383858267716535
21
-3.0169291338582678
0
LINE
8
BLACK
6
CONTINUOUS
10
5.8383858267716535
20
-3.0169291338582678
11
5.8383109055118112
21
-3.0173057874015745
0
LINE
8
BLACK
6
CONTINUOUS
10
5.8383109055118112
20
-3.0173057874015745
11
5.8377782283464565
21
-3.0178384645669292
0
LINE
8
BLACK
6
CONTINUOUS
10
5.8377782283464565
20
-3.0178384645669292
11
5.8374015748031498
21
-3.0179133858267715
0
LINE
8
BLACK
6
CONTINUOUS
10
5.8374015748031498
20
-3.0179133858267715
11
5.7625984251968498
21
-3.0179133858267715
0
LINE
8
BLACK
6
CONTINUOUS
10
5.7625984251968498
20
-3.0179133858267715
11
5.7622217716535431
21
-3.0178384645669292
0
LINE
8
BLACK
6
CONTINUOUS
10
5.7622217716535431
20
-3.0178384645669292
11
5.7616890944881884
21
-3.0173057874015745
0
LINE
8
BLACK
6
CONTINUOUS
10
5.7616890944881884
20
-3.0173057874015745
11
5.7616141732283461
21
-3.0169291338582678
0
LINE
8
BLACK
6
CONTINUOUS
10
5.7616141732283461
20
-3.0169291338582678
11
5.7616141732283461
21
-2.8846456692913387
0
LINE
8
BLACK
6
CONTINUOUS
10
5.7616141732283461
20
-2.8846456692913387
11
5.7616890944881884
21
-2.8842690157480315
0
LINE
8
BLACK
6
CONTINUOUS
10
5.7616890944881884
20
-2.8842690157480315
11
5.7622217716535431
21
-2.8837363385826773
0
LINE
8
BLACK
6
CONTINUOUS
10
5.7622217716535431
20
-2.8837363385826773
11
5.7625984251968498
21
-2.8836614173228345
0
LINE
8
BLACK
6
CONTINUOUS
10
5.7625984251968498
20
-2.8836614173228345
11
5.8374015748031498
21
-2.8836614173228345
0
LINE
8
BLACK
6
CONTINUOUS
10
5.8374015748031498
20
-2.8836614173228345
11
5.8377782283464565
21
-2.8837363385826773
0
LINE
8
BLACK
6
CONTINUOUS
10
5.7635826771653544
20
-2.8856299212598424
11
5.7635826771653544
21
-3.0159448818897636
0
LINE
8
BLACK
6
CONTINUOUS
10
5.7635826771653544
20
-3.0159448818897636
11
5.8364173228346452
21
-3.0159448818897636
0
LINE
8
BLACK
6
CONTINUOUS
10
5.8364173228346452
20
-3.0159448818897636
11
5.8364173228346452
21
-2.8856299212598424
0
LINE
8
BLACK
6
CONTINUOUS
10
5.8364173228346452
20
-2.8856299212598424
11
5.7635826771653544
21
-2.8856299212598424
0
LINE
8
BLACK
6
CONTINUOUS
10
4.8621390157480313
20
-2.6207493700787401
11
4.8749443307086615
21
-2.6236720866141732
0
LINE
8
BLACK
6
CONTINUOUS
10
4.8749443307086615
20
-2.6236720866141732
11
4.8873418503937005
21
-2.6280101574803147
0
LINE
8
BLACK
6
CONTINUOUS
10
4.8873418503937005
20
-2.6280101574803147
11
4.8991757480314959
21
-2.6337090551181102
0
LINE
8
BLACK
6
CONTINUOUS
10
4.8991757480314959
20
-2.6337090551181102
11
4.9102971259842523
21
-2.640697086614173
0
LINE
8
BLACK
6
CONTINUOUS
10
4.9102971259842523
20
-2.640697086614173
11
4.9205661811023624
21
-2.6488864173228346
0
LINE
8
BLACK
6
CONTINUOUS
10
4.9205661811023624
20
-2.6488864173228346
11
4.9298537401574798
21
-2.6581739763779528
0
LINE
8
BLACK
6
CONTINUOUS
10
4.9298537401574798
20
-2.6581739763779528
11
4.9380430708661418
21
-2.668443031496063
0
LINE
8
BLACK
6
CONTINUOUS
10
4.9380430708661418
20
-2.668443031496063
11
4.9450311023622042
21
-2.6795644094488189
0
LINE
8
BLACK
6
CONTINUOUS
10
4.9450311023622042
20
-2.6795644094488189
11
4.9507300000000001
21
-2.6913983070866143
0
LINE
8
BLACK
6
CONTINUOUS
10
4.9507300000000001
20
-2.6913983070866143
11
4.9550680708661412
21
-2.7037958267716533
0
LINE
8
BLACK
6
CONTINUOUS
10
4.9550680708661412
20
-2.7037958267716533
11
4.9579907874015747
21
-2.7166011417322835
0
LINE
8
BLACK
6
CONTINUOUS
10
4.9579907874015747
20
-2.7166011417322835
11
4.9594614173228342
21
-2.7296531496062992
0
LINE
8
BLACK
6
CONTINUOUS
10
4.9594614173228342
20
-2.7296531496062992
11
4.9594614173228342
21
-2.7427877952755906
0
LINE
8
BLACK
6
CONTINUOUS
10
4.9594614173228342
20
-2.7427877952755906
11
4.9579907874015747
21
-2.7558398031496063
0
LINE
8
BLACK
6
CONTINUOUS
10
4.9579907874015747
20
-2.7558398031496063
11
4.9550680708661412
21
-2.7686451181102361
0
LINE
8
BLACK
6
CONTINUOUS
10
4.9550680708661412
20
-2.7686451181102361
11
4.9507300000000001
21
-2.7810426377952755
0
LINE
8
BLACK
6
CONTINUOUS
10
4.9507300000000001
20
-2.7810426377952755
11
4.9450311023622042
21
-2.7928765354330709
0
LINE
8
BLACK
6
CONTINUOUS
10
4.9450311023622042
20
-2.7928765354330709
11
4.9380430708661418
21
-2.8039979133858268
0
LINE
8
BLACK
6
CONTINUOUS
10
4.9380430708661418
20
-2.8039979133858268
11
4.9298537401574798
21
-2.814266968503937
0
LINE
8
BLACK
6
CONTINUOUS
10
4.9298537401574798
20
-2.814266968503937
11
4.9205661811023624
21
-2.8235545275590552
0
LINE
8
BLACK
6
CONTINUOUS
10
4.9205661811023624
20
-2.8235545275590552
11
4.9102971259842523
21
-2.8317438582677164
0
LINE
8
BLACK
6
CONTINUOUS
10
4.9102971259842523
20
-2.8317438582677164
11
4.8991757480314959
21
-2.8387318897637797
0
LINE
8
BLACK
6
CONTINUOUS
10
4.8991757480314959
20
-2.8387318897637797
11
4.8873418503937005
21
-2.8444307874015746
0
LINE
8
BLACK
6
CONTINUOUS
10
4.8873418503937005
20
-2.8444307874015746
11
4.8749443307086615
21
-2.8487688582677166
0
LINE
8
BLACK
6
CONTINUOUS
10
4.8749443307086615
20
-2.8487688582677166
11
4.8621390157480313
21
-2.8516915748031497
0
LINE
8
BLACK
6
CONTINUOUS
10
4.8621390157480313
20
-2.8516915748031497
11
4.849087007874016
21
-2.8531622047244092
0
LINE
8
BLACK
6
CONTINUOUS
10
4.849087007874016
20
-2.8531622047244092
11
4.8359523622047247
21
-2.8531622047244092
0
LINE
8
BLACK
6
CONTINUOUS
10
4.8359523622047247
20
-2.8531622047244092
11
4.8229003543307085
21
-2.8516915748031497
0
LINE
8
BLACK
6
CONTINUOUS
10
4.8229003543307085
20
-2.8516915748031497
11
4.8100950393700783
21
-2.8487688582677166
0
LINE
8
BLACK
6
CONTINUOUS
10
4.8100950393700783
20
-2.8487688582677166
11
4.7976975196850393
21
-2.8444307874015746
0
LINE
8
BLACK
6
CONTINUOUS
10
4.7976975196850393
20
-2.8444307874015746
11
4.7858636220472439
21
-2.8387318897637797
0
LINE
8
BLACK
6
CONTINUOUS
10
4.7858636220472439
20
-2.8387318897637797
11
4.7747422440944884
21
-2.8317438582677164
0
LINE
8
BLACK
6
CONTINUOUS
10
4.7747422440944884
20
-2.8317438582677164
11
4.7644731889763783
21
-2.8235545275590552
0
LINE
8
BLACK
6
CONTINUOUS
10
4.7644731889763783
20
-2.8235545275590552
11
4.75518562992126
21
-2.814266968503937
0
LINE
8
BLACK
6
CONTINUOUS
10
4.75518562992126
20
-2.814266968503937
11
4.746996299212598
21
-2.8039979133858268
0
LINE
8
BLACK
6
CONTINUOUS
10
4.746996299212598
20
-2.8039979133858268
11
4.7400082677165356
21
-2.7928765354330709
0
LINE
8
BLACK
6
CONTINUOUS
10
4.7400082677165356
20
-2.7928765354330709
11
4.7343093700787398
21
-2.7810426377952755
0
LINE
8
BLACK
6
CONTINUOUS
10
4.7343093700787398
20
-2.7810426377952755
11
4.7299712992125986
21
-2.7686451181102361
0
LINE
8
BLACK
6
CONTINUOUS
10
4.7299712992125986
20
-2.7686451181102361
11
4.7270485826771651
21
-2.7558398031496063
0
LINE
8
BLACK
6
CONTINUOUS
10
4.7270485826771651
20
-2.7558398031496063
11
4.7255779527559056
21
-2.7427877952755906
0
LINE
8
BLACK
6
CONTINUOUS
10
4.7255779527559056
20
-2.7427877952755906
11
4.7255779527559056
21
-2.7297533858267715
0
LINE
8
BLACK
6
CONTINUOUS
10
4.7255779527559056
20
-2.7297533858267715
11
4.7255779527559056
21
-2.7296531496062992
0
LINE
8
BLACK
6
CONTINUOUS
10
4.7255779527559056
20
-2.7296531496062992
11
4.7270485826771651
21
-2.7166011417322835
0
LINE
8
BLACK
6
CONTINUOUS
10
4.7270485826771651
20
-2.7166011417322835
11
4.7299712992125986
21
-2.7037958267716533
0
LINE
8
BLACK
6
CONTINUOUS
10
4.7299712992125986
20
-2.7037958267716533
11
4.7343093700787398
21
-2.6913983070866143
0
LINE
8
BLACK
6
CONTINUOUS
10
4.7343093700787398
20
-2.6913983070866143
11
4.7400082677165356
21
-2.6795644094488189
0
LINE
8
BLACK
6
CONTINUOUS
10
4.7400082677165356
20
-2.6795644094488189
11
4.746996299212598
21
-2.668443031496063
0
LINE
8
BLACK
6
CONTINUOUS
10
4.746996299212598
20
-2.668443031496063
11
4.75518562992126
21
-2.6581739763779528
0
LINE
8
BLACK
6
CONTINUOUS
10
4.75518562992126
20
-2.6581739763779528
11
4.7644731889763783
21
-2.6488864173228346
0
LINE
8
BLACK
6
CONTINUOUS
10
4.7644731889763783
20
-2.6488864173228346
11
4.7747422440944884
21
-2.640697086614173
0
LINE
8
BLACK
6
CONTINUOUS
10
4.7747422440944884
20
-2.640697086614173
11
4.7858636220472439
21
-2.6337090551181102
0
LINE
8
BLACK
6
CONTINUOUS
10
4.7858636220472439
20
-2.6337090551181102
11
4.7976975196850393
21
-2.6280101574803147
0
LINE
8
BLACK
6
CONTINUOUS
10
4.7976975196850393
20
-2.6280101574803147
11
4.8100950393700783
21
-2.6236720866141732
0
LINE
8
BLACK
6
CONTINUOUS
10
4.8100950393700783
20
-2.6236720866141732
11
4.8229003543307085
21
-2.6207493700787401
0
LINE
8
BLACK
6
CONTINUOUS
10
4.8229003543307085
20
-2.6207493700787401
11
4.8359523622047247
21
-2.6192787401574802
0
LINE
8
BLACK
6
CONTINUOUS
10
4.8359523622047247
20
-2.6192787401574802
11
4.849087007874016
21
-2.6192787401574802
0
LINE
8
BLACK
6
CONTINUOUS
10
4.849087007874016
20
-2.6192787401574802
11
4.8621390157480313
21
-2.6207493700787401
0
LINE
8
BLACK
6
CONTINUOUS
10
4.7273622047244093
20
-2.7426875590551179
11
4.728810354330709
21
-2.7555404724409449
0
LINE
8
BLACK
6
CONTINUOUS
10
4.728810354330709
20
-2.7555404724409449
11
4.7316885039370078
21
-2.7681503937007874
0
LINE
8
BLACK
6
CONTINUOUS
10
4.7316885039370078
20
-2.7681503937007874
11
4.735960393700787
21
-2.7803587795275591
0
LINE
8
BLACK
6
CONTINUOUS
10
4.735960393700787
20
-2.7803587795275591
11
4.7415723622047246
21
-2.7920120866141733
0
LINE
8
BLACK
6
CONTINUOUS
10
4.7415723622047246
20
-2.7920120866141733
11
4.7484537795275585
21
-2.8029638188976378
0
LINE
8
BLACK
6
CONTINUOUS
10
4.7484537795275585
20
-2.8029638188976378
11
4.75651811023622
21
-2.8130761811023621
0
LINE
8
BLACK
6
CONTINUOUS
10
4.75651811023622
20
-2.8130761811023621
11
4.7656639763779527
21
-2.8222220472440944
0
LINE
8
BLACK
6
CONTINUOUS
10
4.7656639763779527
20
-2.8222220472440944
11
4.775776338582677
21
-2.8302863779527558
0
LINE
8
BLACK
6
CONTINUOUS
10
4.775776338582677
20
-2.8302863779527558
11
4.7867280708661415
21
-2.8371677952755903
0
LINE
8
BLACK
6
CONTINUOUS
10
4.7867280708661415
20
-2.8371677952755903
11
4.7983813779527562
21
-2.8427797637795273
0
LINE
8
BLACK
6
CONTINUOUS
10
4.7983813779527562
20
-2.8427797637795273
11
4.8105897637795278
21
-2.847051653543307
0
LINE
8
BLACK
6
CONTINUOUS
10
4.8105897637795278
20
-2.847051653543307
11
4.8231996850393699
21
-2.8499298031496063
0
LINE
8
BLACK
6
CONTINUOUS
10
4.8231996850393699
20
-2.8499298031496063
11
4.836052598425197
21
-2.8513779527559056
0
LINE
8
BLACK
6
CONTINUOUS
10
4.836052598425197
20
-2.8513779527559056
11
4.8489867716535429
21
-2.8513779527559056
0
LINE
8
BLACK
6
CONTINUOUS
10
4.8489867716535429
20
-2.8513779527559056
11
4.8618396850393699
21
-2.8499298031496063
0
LINE
8
BLACK
6
CONTINUOUS
10
4.8618396850393699
20
-2.8499298031496063
11
4.8744496062992129
21
-2.847051653543307
0
LINE
8
BLACK
6
CONTINUOUS
10
4.8744496062992129
20
-2.847051653543307
11
4.8866579921259845
21
-2.8427797637795273
0
LINE
8
BLACK
6
CONTINUOUS
10
4.8866579921259845
20
-2.8427797637795273
11
4.8983112992125983
21
-2.8371677952755903
0
LINE
8
BLACK
6
CONTINUOUS
10
4.8983112992125983
20
-2.8371677952755903
11
4.9092630314960628
21
-2.8302863779527558
0
LINE
8
BLACK
6
CONTINUOUS
10
4.9092630314960628
20
-2.8302863779527558
11
4.9193753937007871
21
-2.8222220472440944
0
LINE
8
BLACK
6
CONTINUOUS
10
4.9193753937007871
20
-2.8222220472440944
11
4.9285212598425199
21
-2.8130761811023621
0
LINE
8
BLACK
6
CONTINUOUS
10
4.9285212598425199
20
-2.8130761811023621
11
4.9365855905511813
21
-2.8029638188976378
0
LINE
8
BLACK
6
CONTINUOUS
10
4.9365855905511813
20
-2.8029638188976378
11
4.9434670078740153
21
-2.7920120866141733
0
LINE
8
BLACK
6
CONTINUOUS
10
4.9434670078740153
20
-2.7920120866141733
11
4.9490789763779528
21
-2.7803587795275591
0
LINE
8
BLACK
6
CONTINUOUS
10
4.9490789763779528
20
-2.7803587795275591
11
4.953350866141732
21
-2.7681503937007874
0
LINE
8
BLACK
6
CONTINUOUS
10
4.953350866141732
20
-2.7681503937007874
11
4.9562290157480318
21
-2.7555404724409449
0
LINE
8
BLACK
6
CONTINUOUS
10
4.9562290157480318
20
-2.7555404724409449
11
4.9576771653543306
21
-2.7426875590551179
0
LINE
8
BLACK
6
CONTINUOUS
10
4.9576771653543306
20
-2.7426875590551179
11
4.9576771653543306
21
-2.7297533858267715
0
LINE
8
BLACK
6
CONTINUOUS
10
4.9576771653543306
20
-2.7297533858267715
11
4.9562290157480318
21
-2.7169004724409449
0
LINE
8
BLACK
6
CONTINUOUS
10
4.9562290157480318
20
-2.7169004724409449
11
4.953350866141732
21
-2.7042905511811024
0
LINE
8
BLACK
6
CONTINUOUS
10
4.953350866141732
20
-2.7042905511811024
11
4.9490789763779528
21
-2.6920821653543308
0
LINE
8
BLACK
6
CONTINUOUS
10
4.9490789763779528
20
-2.6920821653543308
11
4.9434670078740153
21
-2.6804288582677165
0
LINE
8
BLACK
6
CONTINUOUS
10
4.9434670078740153
20
-2.6804288582677165
11
4.9365855905511813
21
-2.669477125984252
0
LINE
8
BLACK
6
CONTINUOUS
10
4.9365855905511813
20
-2.669477125984252
11
4.9285212598425199
21
-2.6593647637795277
0
LINE
8
BLACK
6
CONTINUOUS
10
4.9285212598425199
20
-2.6593647637795277
11
4.9193753937007871
21
-2.6502188976377954
0
LINE
8
BLACK
6
CONTINUOUS
10
4.9193753937007871
20
-2.6502188976377954
11
4.9092630314960628
21
-2.642154566929134
0
LINE
8
BLACK
6
CONTINUOUS
10
4.9092630314960628
20
-2.642154566929134
11
4.8983112992125983
21
-2.6352731496062991
0
LINE
8
BLACK
6
CONTINUOUS
10
4.8983112992125983
20
-2.6352731496062991
11
4.8866579921259845
21
-2.629661181102362
0
LINE
8
BLACK
6
CONTINUOUS
10
4.8866579921259845
20
-2.629661181102362
11
4.8744496062992129
21
-2.6253892913385828
0
LINE
8
BLACK
6
CONTINUOUS
10
4.8744496062992129
20
-2.6253892913385828
11
4.8618396850393699
21
-2.6225111417322835
0
LINE
8
BLACK
6
CONTINUOUS
10
4.8618396850393699
20
-2.6225111417322835
11
4.8489867716535429
21
-2.6210629921259843
0
LINE
8
BLACK
6
CONTINUOUS
10
4.8489867716535429
20
-2.6210629921259843
11
4.836052598425197
21
-2.6210629921259843
0
LINE
8
BLACK
6
CONTINUOUS
10
4.836052598425197
20
-2.6210629921259843
11
4.8231996850393699
21
-2.6225111417322835
0
LINE
8
BLACK
6
CONTINUOUS
10
4.8231996850393699
20
-2.6225111417322835
11
4.8105897637795278
21
-2.6253892913385828
0
LINE
8
BLACK
6
CONTINUOUS
10
4.8105897637795278
20
-2.6253892913385828
11
4.7983813779527562
21
-2.629661181102362
0
LINE
8
BLACK
6
CONTINUOUS
10
4.7983813779527562
20
-2.629661181102362
11
4.7867280708661415
21
-2.6352731496062991
0
LINE
8
BLACK
6
CONTINUOUS
10
4.7867280708661415
20
-2.6352731496062991
11
4.775776338582677
21
-2.642154566929134
0
LINE
8
BLACK
6
CONTINUOUS
10
4.775776338582677
20
-2.642154566929134
11
4.7656639763779527
21
-2.6502188976377954
0
LINE
8
BLACK
6
CONTINUOUS
10
4.7656639763779527
20
-2.6502188976377954
11
4.75651811023622
21
-2.6593647637795277
0
LINE
8
BLACK
6
CONTINUOUS
10
4.75651811023622
20
-2.6593647637795277
11
4.7484537795275585
21
-2.669477125984252
0
LINE
8
BLACK
6
CONTINUOUS
10
4.7484537795275585
20
-2.669477125984252
11
4.7415723622047246
21
-2.6804288582677165
0
LINE
8
BLACK
6
CONTINUOUS
10
4.7415723622047246
20
-2.6804288582677165
11
4.735960393700787
21
-2.6920821653543308
0
LINE
8
BLACK
6
CONTINUOUS
10
4.735960393700787
20
-2.6920821653543308
11
4.7316885039370078
21
-2.7042905511811024
0
LINE
8
BLACK
6
CONTINUOUS
10
4.7316885039370078
20
-2.7042905511811024
11
4.728810354330709
21
-2.7169004724409449
0
LINE
8
BLACK
6
CONTINUOUS
10
4.728810354330709
20
-2.7169004724409449
11
4.7273622047244093
21
-2.7297533858267715
0
LINE
8
BLACK
6
CONTINUOUS
10
4.7273622047244093
20
-2.7297533858267715
11
4.7273622047244093
21
-2.7426875590551179
0
LINE
8
BLACK
6
CONTINUOUS
10
6.988123267716535
20
-2.6207493700787401
11
7.0009285826771652
21
-2.6236720866141732
0
LINE
8
BLACK
6
CONTINUOUS
10
7.0009285826771652
20
-2.6236720866141732
11
7.0133261023622042
21
-2.6280101574803147
0
LINE
8
BLACK
6
CONTINUOUS
10
7.0133261023622042
20
-2.6280101574803147
11
7.0251599999999996
21
-2.6337090551181102
0
LINE
8
BLACK
6
CONTINUOUS
10
7.0251599999999996
20
-2.6337090551181102
11
7.036281377952756
21
-2.640697086614173
0
LINE
8
BLACK
6
CONTINUOUS
10
7.036281377952756
20
-2.640697086614173
11
7.0465504330708661
21
-2.6488864173228346
0
LINE
8
BLACK
6
CONTINUOUS
10
7.0465504330708661
20
-2.6488864173228346
11
7.0558379921259844
21
-2.6581739763779528
0
LINE
8
BLACK
6
CONTINUOUS
10
7.0558379921259844
20
-2.6581739763779528
11
7.0640273228346455
21
-2.668443031496063
0
LINE
8
BLACK
6
CONTINUOUS
10
7.0640273228346455
20
-2.668443031496063
11
7.0710153543307088
21
-2.6795644094488189
0
LINE
8
BLACK
6
CONTINUOUS
10
7.0710153543307088
20
-2.6795644094488189
11
7.0767142519685038
21
-2.6913983070866143
0
LINE
8
BLACK
6
CONTINUOUS
10
7.0767142519685038
20
-2.6913983070866143
11
7.0810523228346458
21
-2.7037958267716533
0
LINE
8
BLACK
6
CONTINUOUS
10
7.0810523228346458
20
-2.7037958267716533
11
7.0839750393700784
21
-2.7166011417322835
0
LINE
8
BLACK
6
CONTINUOUS
10
7.0839750393700784
20
-2.7166011417322835
11
7.0854456692913388
21
-2.7296531496062992
0
LINE
8
BLACK
6
CONTINUOUS
10
7.0854456692913388
20
-2.7296531496062992
11
7.0854456692913388
21
-2.7427877952755906
0
LINE
8
BLACK
6
CONTINUOUS
10
7.0854456692913388
20
-2.7427877952755906
11
7.0839750393700784
21
-2.7558398031496063
0
LINE
8
BLACK
6
CONTINUOUS
10
7.0839750393700784
20
-2.7558398031496063
11
7.0810523228346458
21
-2.7686451181102361
0
LINE
8
BLACK
6
CONTINUOUS
10
7.0810523228346458
20
-2.7686451181102361
11
7.0767142519685038
21
-2.7810426377952755
0
LINE
8
BLACK
6
CONTINUOUS
10
7.0767142519685038
20
-2.7810426377952755
11
7.0710153543307088
21
-2.7928765354330709
0
LINE
8
BLACK
6
CONTINUOUS
10
7.0710153543307088
20
-2.7928765354330709
11
7.0640273228346455
21
-2.8039979133858268
0
LINE
8
BLACK
6
CONTINUOUS
10
7.0640273228346455
20
-2.8039979133858268
11
7.0558379921259844
21
-2.814266968503937
0
LINE
8
BLACK
6
CONTINUOUS
10
7.0558379921259844
20
-2.814266968503937
11
7.0465504330708661
21
-2.8235545275590552
0
LINE
8
BLACK
6
CONTINUOUS
10
7.0465504330708661
20
-2.8235545275590552
11
7.036281377952756
21
-2.8317438582677164
0
LINE
8
BLACK
6
CONTINUOUS
10
7.036281377952756
20
-2.8317438582677164
11
7.0251599999999996
21
-2.8387318897637797
0
LINE
8
BLACK
6
CONTINUOUS
10
7.0251599999999996
20
-2.8387318897637797
11
7.0133261023622042
21
-2.8444307874015746
0
LINE
8
BLACK
6
CONTINUOUS
10
7.0133261023622042
20
-2.8444307874015746
11
7.0009285826771652
21
-2.8487688582677166
0
LINE
8
BLACK
6
CONTINUOUS
10
7.0009285826771652
20
-2.8487688582677166
11
6.988123267716535
21
-2.8516915748031497
0
LINE
8
BLACK
6
CONTINUOUS
10
6.988123267716535
20
-2.8516915748031497
11
6.9750712598425197
21
-2.8531622047244092
0
LINE
8
BLACK
6
CONTINUOUS
10
6.9750712598425197
20
-2.8531622047244092
11
6.9619366141732284
21
-2.8531622047244092
0
LINE
8
BLACK
6
CONTINUOUS
10
6.9619366141732284
20
-2.8531622047244092
11
6.9488846062992122
21
-2.8516915748031497
0
LINE
8
BLACK
6
CONTINUOUS
10
6.9488846062992122
20
-2.8516915748031497
11
6.9360792913385829
21
-2.8487688582677166
0
LINE
8
BLACK
6
CONTINUOUS
10
6.9360792913385829
20
-2.8487688582677166
11
6.923681771653543
21
-2.8444307874015746
0
LINE
8
BLACK
6
CONTINUOUS
10
6.923681771653543
20
-2.8444307874015746
11
6.9118478740157476
21
-2.8387318897637797
0
LINE
8
BLACK
6
CONTINUOUS
10
6.9118478740157476
20
-2.8387318897637797
11
6.9007264960629922
21
-2.8317438582677164
0
LINE
8
BLACK
6
CONTINUOUS
10
6.9007264960629922
20
-2.8317438582677164
11
6.890457440944882
21
-2.8235545275590552
0
LINE
8
BLACK
6
CONTINUOUS
10
6.890457440944882
20
-2.8235545275590552
11
6.8811698818897638
21
-2.814266968503937
0
LINE
8
BLACK
6
CONTINUOUS
10
6.8811698818897638
20
-2.814266968503937
11
6.8729805511811026
21
-2.8039979133858268
0
LINE
8
BLACK
6
CONTINUOUS
10
6.8729805511811026
20
-2.8039979133858268
11
6.8659925196850393
21
-2.7928765354330709
0
LINE
8
BLACK
6
CONTINUOUS
10
6.8659925196850393
20
-2.7928765354330709
11
6.8602936220472444
21
-2.7810426377952755
0
LINE
8
BLACK
6
CONTINUOUS
10
6.8602936220472444
20
-2.7810426377952755
11
6.8559555511811023
21
-2.7686451181102361
0
LINE
8
BLACK
6
CONTINUOUS
10
6.8559555511811023
20
-2.7686451181102361
11
6.8530328346456688
21
-2.7558398031496063
0
LINE
8
BLACK
6
CONTINUOUS
10
6.8530328346456688
20
-2.7558398031496063
11
6.8515622047244094
21
-2.7427877952755906
0
LINE
8
BLACK
6
CONTINUOUS
10
6.8515622047244094
20
-2.7427877952755906
11
6.8515622047244094
21
-2.7297533858267715
0
LINE
8
BLACK
6
CONTINUOUS
10
6.8515622047244094
20
-2.7297533858267715
11
6.8515622047244094
21
-2.7296531496062992
0
LINE
8
BLACK
6
CONTINUOUS
10
6.8515622047244094
20
-2.7296531496062992
11
6.8530328346456688
21
-2.7166011417322835
0
LINE
8
BLACK
6
CONTINUOUS
10
6.8530328346456688
20
-2.7166011417322835
11
6.8559555511811023
21
-2.7037958267716533
0
LINE
8
BLACK
6
CONTINUOUS
10
6.8559555511811023
20
-2.7037958267716533
11
6.8602936220472444
21
-2.6913983070866143
0
LINE
8
BLACK
6
CONTINUOUS
10
6.8602936220472444
20
-2.6913983070866143
11
6.8659925196850393
21
-2.6795644094488189
0
LINE
8
BLACK
6
CONTINUOUS
10
6.8659925196850393
20
-2.6795644094488189
11
6.8729805511811026
21
-2.668443031496063
0
LINE
8
BLACK
6
CONTINUOUS
10
6.8729805511811026
20
-2.668443031496063
11
6.8811698818897638
21
-2.6581739763779528
0
LINE
8
BLACK
6
CONTINUOUS
10
6.8811698818897638
20
-2.6581739763779528
11
6.890457440944882
21
-2.6488864173228346
0
LINE
8
BLACK
6
CONTINUOUS
10
6.890457440944882
20
-2.6488864173228346
11
6.9007264960629922
21
-2.640697086614173
0
LINE
8
BLACK
6
CONTINUOUS
10
6.9007264960629922
20
-2.640697086614173
11
6.9118478740157476
21
-2.6337090551181102
0
LINE
8
BLACK
6
CONTINUOUS
10
6.9118478740157476
20
-2.6337090551181102
11
6.923681771653543
21
-2.6280101574803147
0
LINE
8
BLACK
6
CONTINUOUS
10
6.923681771653543
20
-2.6280101574803147
11
6.9360792913385829
21
-2.6236720866141732
0
LINE
8
BLACK
6
CONTINUOUS
10
6.9360792913385829
20
-2.6236720866141732
11
6.9488846062992122
21
-2.6207493700787401
0
LINE
8
BLACK
6
CONTINUOUS
10
6.9488846062992122
20
-2.6207493700787401
11
6.9619366141732284
21
-2.6192787401574802
0
LINE
8
BLACK
6
CONTINUOUS
10
6.9619366141732284
20
-2.6192787401574802
11
6.9750712598425197
21
-2.6192787401574802
0
LINE
8
BLACK
6
CONTINUOUS
10
6.9750712598425197
20
-2.6192787401574802
11
6.988123267716535
21
-2.6207493700787401
0
LINE
8
BLACK
6
CONTINUOUS
10
6.853346456692913
20
-2.7426875590551179
11
6.8547946062992127
21
-2.7555404724409449
0
LINE
8
BLACK
6
CONTINUOUS
10
6.8547946062992127
20
-2.7555404724409449
11
6.8576727559055115
21
-2.7681503937007874
0
LINE
8
BLACK
6
CONTINUOUS
10
6.8576727559055115
20
-2.7681503937007874
11
6.8619446456692907
21
-2.7803587795275591
0
LINE
8
BLACK
6
CONTINUOUS
10
6.8619446456692907
20
-2.7803587795275591
11
6.8675566141732283
21
-2.7920120866141733
0
LINE
8
BLACK
6
CONTINUOUS
10
6.8675566141732283
20
-2.7920120866141733
11
6.8744380314960631
21
-2.8029638188976378
0
LINE
8
BLACK
6
CONTINUOUS
10
6.8744380314960631
20
-2.8029638188976378
11
6.8825023622047246
21
-2.8130761811023621
0
LINE
8
BLACK
6
CONTINUOUS
10
6.8825023622047246
20
-2.8130761811023621
11
6.8916482283464564
21
-2.8222220472440944
0
LINE
8
BLACK
6
CONTINUOUS
10
6.8916482283464564
20
-2.8222220472440944
11
6.9017605905511807
21
-2.8302863779527558
0
LINE
8
BLACK
6
CONTINUOUS
10
6.9017605905511807
20
-2.8302863779527558
11
6.9127123228346452
21
-2.8371677952755903
0
LINE
8
BLACK
6
CONTINUOUS
10
6.9127123228346452
20
-2.8371677952755903
11
6.9243656299212599
21
-2.8427797637795273
0
LINE
8
BLACK
6
CONTINUOUS
10
6.9243656299212599
20
-2.8427797637795273
11
6.9365740157480316
21
-2.847051653543307
0
LINE
8
BLACK
6
CONTINUOUS
10
6.9365740157480316
20
-2.847051653543307
11
6.9491839370078736
21
-2.8499298031496063
0
LINE
8
BLACK
6
CONTINUOUS
10
6.9491839370078736
20
-2.8499298031496063
11
6.9620368503937007
21
-2.8513779527559056
0
LINE
8
BLACK
6
CONTINUOUS
10
6.9620368503937007
20
-2.8513779527559056
11
6.9749710236220475
21
-2.8513779527559056
0
LINE
8
BLACK
6
CONTINUOUS
10
6.9749710236220475
20
-2.8513779527559056
11
6.9878239370078736
21
-2.8499298031496063
0
LINE
8
BLACK
6
CONTINUOUS
10
6.9878239370078736
20
-2.8499298031496063
11
7.0004338582677166
21
-2.847051653543307
0
LINE
8
BLACK
6
CONTINUOUS
10
7.0004338582677166
20
-2.847051653543307
11
7.0126422440944882
21
-2.8427797637795273
0
LINE
8
BLACK
6
CONTINUOUS
10
7.0126422440944882
20
-2.8427797637795273
11
7.024295551181102
21
-2.8371677952755903
0
LINE
8
BLACK
6
CONTINUOUS
10
7.024295551181102
20
-2.8371677952755903
11
7.0352472834645665
21
-2.8302863779527558
0
LINE
8
BLACK
6
CONTINUOUS
10
7.0352472834645665
20
-2.8302863779527558
11
7.0453596456692908
21
-2.8222220472440944
0
LINE
8
BLACK
6
CONTINUOUS
10
7.0453596456692908
20
-2.8222220472440944
11
7.0545055118110236
21
-2.8130761811023621
0
LINE
8
BLACK
6
CONTINUOUS
10
7.0545055118110236
20
-2.8130761811023621
11
7.062569842519685
21
-2.8029638188976378
0
LINE
8
BLACK
6
CONTINUOUS
10
7.062569842519685
20
-2.8029638188976378
11
7.0694512598425199
21
-2.7920120866141733
0
LINE
8
BLACK
6
CONTINUOUS
10
7.0694512598425199
20
-2.7920120866141733
11
7.0750632283464565
21
-2.7803587795275591
0
LINE
8
BLACK
6
CONTINUOUS
10
7.0750632283464565
20
-2.7803587795275591
11
7.0793351181102357
21
-2.7681503937007874
0
LINE
8
BLACK
6
CONTINUOUS
10
7.0793351181102357
20
-2.7681503937007874
11
7.0822132677165355
21
-2.7555404724409449
0
LINE
8
BLACK
6
CONTINUOUS
10
7.0822132677165355
20
-2.7555404724409449
11
7.0836614173228343
21
-2.7426875590551179
0
LINE
8
BLACK
6
CONTINUOUS
10
7.0836614173228343
20
-2.7426875590551179
11
7.0836614173228343
21
-2.7297533858267715
0
LINE
8
BLACK
6
CONTINUOUS
10
7.0836614173228343
20
-2.7297533858267715
11
7.0822132677165355
21
-2.7169004724409449
0
LINE
8
BLACK
6
CONTINUOUS
10
7.0822132677165355
20
-2.7169004724409449
11
7.0793351181102357
21
-2.7042905511811024
0
LINE
8
BLACK
6
CONTINUOUS
10
7.0793351181102357
20
-2.7042905511811024
11
7.0750632283464565
21
-2.6920821653543308
0
LINE
8
BLACK
6
CONTINUOUS
10
7.0750632283464565
20
-2.6920821653543308
11
7.0694512598425199
21
-2.6804288582677165
0
LINE
8
BLACK
6
CONTINUOUS
10
7.0694512598425199
20
-2.6804288582677165
11
7.062569842519685
21
-2.669477125984252
0
LINE
8
BLACK
6
CONTINUOUS
10
7.062569842519685
20
-2.669477125984252
11
7.0545055118110236
21
-2.6593647637795277
0
LINE
8
BLACK
6
CONTINUOUS
10
7.0545055118110236
20
-2.6593647637795277
11
7.0453596456692908
21
-2.6502188976377954
0
LINE
8
BLACK
6
CONTINUOUS
10
7.0453596456692908
20
-2.6502188976377954
11
7.0352472834645665
21
-2.642154566929134
0
LINE
8
BLACK
6
CONTINUOUS
10
7.0352472834645665
20
-2.642154566929134
11
7.024295551181102
21
-2.6352731496062991
0
LINE
8
BLACK
6
CONTINUOUS
10
7.024295551181102
20
-2.6352731496062991
11
7.0126422440944882
21
-2.629661181102362
0
LINE
8
BLACK
6
CONTINUOUS
10
7.0126422440944882
20
-2.629661181102362
11
7.0004338582677166
21
-2.6253892913385828
0
LINE
8
BLACK
6
CONTINUOUS
10
7.0004338582677166
20
-2.6253892913385828
11
6.9878239370078736
21
-2.6225111417322835
0
LINE
8
BLACK
6
CONTINUOUS
10
6.9878239370078736
20
-2.6225111417322835
11
6.9749710236220475
21
-2.6210629921259843
0
LINE
8
BLACK
6
CONTINUOUS
10
6.9749710236220475
20
-2.6210629921259843
11
6.9620368503937007
21
-2.6210629921259843
0
LINE
8
BLACK
6
CONTINUOUS
10
6.9620368503937007
20
-2.6210629921259843
11
6.9491839370078736
21
-2.6225111417322835
0
LINE
8
BLACK
6
CONTINUOUS
10
6.9491839370078736
20
-2.6225111417322835
11
6.9365740157480316
21
-2.6253892913385828
0
LINE
8
BLACK
6
CONTINUOUS
10
6.9365740157480316
20
-2.6253892913385828
11
6.9243656299212599
21
-2.629661181102362
0
LINE
8
BLACK
6
CONTINUOUS
10
6.9243656299212599
20
-2.629661181102362
11
6.9127123228346452
21
-2.6352731496062991
0
LINE
8
BLACK
6
CONTINUOUS
10
6.9127123228346452
20
-2.6352731496062991
11
6.9017605905511807
21
-2.642154566929134
0
LINE
8
BLACK
6
CONTINUOUS
10
6.9017605905511807
20
-2.642154566929134
11
6.8916482283464564
21
-2.6502188976377954
0
LINE
8
BLACK
6
CONTINUOUS
10
6.8916482283464564
20
-2.6502188976377954
11
6.8825023622047246
21
-2.6593647637795277
0
LINE
8
BLACK
6
CONTINUOUS
10
6.8825023622047246
20
-2.6593647637795277
11
6.8744380314960631
21
-2.669477125984252
0
LINE
8
BLACK
6
CONTINUOUS
10
6.8744380314960631
20
-2.669477125984252
11
6.8675566141732283
21
-2.6804288582677165
0
LINE
8
BLACK
6
CONTINUOUS
10
6.8675566141732283
20
-2.6804288582677165
11
6.8619446456692907
21
-2.6920821653543308
0
LINE
8
BLACK
6
CONTINUOUS
10
6.8619446456692907
20
-2.6920821653543308
11
6.8576727559055115
21
-2.7042905511811024
0
LINE
8
BLACK
6
CONTINUOUS
10
6.8576727559055115
20
-2.7042905511811024
11
6.8547946062992127
21
-2.7169004724409449
0
LINE
8
BLACK
6
CONTINUOUS
10
6.8547946062992127
20
-2.7169004724409449
11
6.853346456692913
21
-2.7297533858267715
0
LINE
8
BLACK
6
CONTINUOUS
10
6.853346456692913
20
-2.7297533858267715
11
6.853346456692913
21
-2.7426875590551179
0
LINE
8
BLACK
6
CONTINUOUS
10
6.3872979133858268
20
-2.6812875196850392
11
6.3878305905511805
21
-2.6818201968503939
0
LINE
8
BLACK
6
CONTINUOUS
10
6.3878305905511805
20
-2.6818201968503939
11
6.3879055118110237
21
-2.6821968503937006
0
LINE
8
BLACK
6
CONTINUOUS
10
6.3879055118110237
20
-2.6821968503937006
11
6.3879055118110237
21
-2.8318031496062992
0
LINE
8
BLACK
6
CONTINUOUS
10
6.3879055118110237
20
-2.8318031496062992
11
6.3878305905511805
21
-2.8321798031496064
0
LINE
8
BLACK
6
CONTINUOUS
10
6.3878305905511805
20
-2.8321798031496064
11
6.3872979133858268
21
-2.8327124803149606
0
LINE
8
BLACK
6
CONTINUOUS
10
6.3872979133858268
20
-2.8327124803149606
11
6.3869212598425191
21
-2.8327874015748029
0
LINE
8
BLACK
6
CONTINUOUS
10
6.3869212598425191
20
-2.8327874015748029
11
6.1270787401574802
21
-2.8327874015748029
0
LINE
8
BLACK
6
CONTINUOUS
10
6.1270787401574802
20
-2.8327874015748029
11
6.1267020866141735
21
-2.8327124803149606
0
LINE
8
BLACK
6
CONTINUOUS
10
6.1267020866141735
20
-2.8327124803149606
11
6.1261694094488188
21
-2.8321798031496064
0
LINE
8
BLACK
6
CONTINUOUS
10
6.1261694094488188
20
-2.8321798031496064
11
6.1260944881889765
21
-2.8318031496062992
0
LINE
8
BLACK
6
CONTINUOUS
10
6.1260944881889765
20
-2.8318031496062992
11
6.1260944881889765
21
-2.6821968503937006
0
LINE
8
BLACK
6
CONTINUOUS
10
6.1260944881889765
20
-2.6821968503937006
11
6.1261694094488188
21
-2.6818201968503939
0
LINE
8
BLACK
6
CONTINUOUS
10
6.1261694094488188
20
-2.6818201968503939
11
6.1267020866141735
21
-2.6812875196850392
0
LINE
8
BLACK
6
CONTINUOUS
10
6.1267020866141735
20
-2.6812875196850392
11
6.1270787401574802
21
-2.6812125984251969
0
LINE
8
BLACK
6
CONTINUOUS
10
6.1270787401574802
20
-2.6812125984251969
11
6.3869212598425191
21
-2.6812125984251969
0
LINE
8
BLACK
6
CONTINUOUS
10
6.3869212598425191
20
-2.6812125984251969
11
6.3872979133858268
21
-2.6812875196850392
0
LINE
8
BLACK
6
CONTINUOUS
10
6.1280629921259839
20
-2.6831811023622048
11
6.1280629921259839
21
-2.830818897637795
0
LINE
8
BLACK
6
CONTINUOUS
10
6.1280629921259839
20
-2.830818897637795
11
6.3859370078740154
21
-2.830818897637795
0
LINE
8
BLACK
6
CONTINUOUS
10
6.3859370078740154
20
-2.830818897637795
11
6.3859370078740154
21
-2.6831811023622048
0
LINE
8
BLACK
6
CONTINUOUS
10
6.3859370078740154
20
-2.6831811023622048
11
6.1280629921259839
21
-2.6831811023622048
0
LINE
8
BLACK
6
CONTINUOUS
10
5.7377782283464569
20
-2.6957363385826771
11
5.7383109055118107
21
-2.6962690157480314
0
LINE
8
BLACK
6
CONTINUOUS
10
5.7383109055118107
20
-2.6962690157480314
11
5.738385826771653
21
-2.6966456692913385
0
LINE
8
BLACK
6
CONTINUOUS
10
5.738385826771653
20
-2.6966456692913385
11
5.738385826771653
21
-2.8289291338582676
0
LINE
8
BLACK
6
CONTINUOUS
10
5.738385826771653
20
-2.8289291338582676
11
5.7383109055118107
21
-2.8293057874015748
0
LINE
8
BLACK
6
CONTINUOUS
10
5.7383109055118107
20
-2.8293057874015748
11
5.7377782283464569
21
-2.829838464566929
0
LINE
8
BLACK
6
CONTINUOUS
10
5.7377782283464569
20
-2.829838464566929
11
5.7374015748031493
21
-2.8299133858267718
0
LINE
8
BLACK
6
CONTINUOUS
10
5.7374015748031493
20
-2.8299133858267718
11
5.6625984251968502
21
-2.8299133858267718
0
LINE
8
BLACK
6
CONTINUOUS
10
5.6625984251968502
20
-2.8299133858267718
11
5.6622217716535435
21
-2.829838464566929
0
LINE
8
BLACK
6
CONTINUOUS
10
5.6622217716535435
20
-2.829838464566929
11
5.6616890944881888
21
-2.8293057874015748
0
LINE
8
BLACK
6
CONTINUOUS
10
5.6616890944881888
20
-2.8293057874015748
11
5.6616141732283465
21
-2.8289291338582676
0
LINE
8
BLACK
6
CONTINUOUS
10
5.6616141732283465
20
-2.8289291338582676
11
5.6616141732283465
21
-2.6966456692913385
0
LINE
8
BLACK
6
CONTINUOUS
10
5.6616141732283465
20
-2.6966456692913385
11
5.6616890944881888
21
-2.6962690157480314
0
LINE
8
BLACK
6
CONTINUOUS
10
5.6616890944881888
20
-2.6962690157480314
11
5.6622217716535435
21
-2.6957363385826771
0
LINE
8
BLACK
6
CONTINUOUS
10
5.6622217716535435
20
-2.6957363385826771
11
5.6625984251968502
21
-2.6956614173228344
0
LINE
8
BLACK
6
CONTINUOUS
10
5.6625984251968502
20
-2.6956614173228344
11
5.7374015748031493
21
-2.6956614173228344
0
LINE
8
BLACK
6
CONTINUOUS
10
5.7374015748031493
20
-2.6956614173228344
11
5.7377782283464569
21
-2.6957363385826771
0
LINE
8
BLACK
6
CONTINUOUS
10
5.6635826771653539
20
-2.6976299212598422
11
5.6635826771653539
21
-2.8279448818897639
0
LINE
8
BLACK
6
CONTINUOUS
10
5.6635826771653539
20
-2.8279448818897639
11
5.7364173228346456
21
-2.8279448818897639
0
LINE
8
BLACK
6
CONTINUOUS
10
5.7364173228346456
20
-2.8279448818897639
11
5.7364173228346456
21
-2.6976299212598422
0
LINE
8
BLACK
6
CONTINUOUS
10
5.7364173228346456
20
-2.6976299212598422
11
5.6635826771653539
21
-2.6976299212598422
0
LINE
8
BLACK
6
CONTINUOUS
10
5.8377782283464565
20
-2.6957363385826771
11
5.8383109055118112
21
-2.6962690157480314
0
LINE
8
BLACK
6
CONTINUOUS
10
5.8383109055118112
20
-2.6962690157480314
11
5.8383858267716535
21
-2.6966456692913385
0
LINE
8
BLACK
6
CONTINUOUS
10
5.8383858267716535
20
-2.6966456692913385
11
5.8383858267716535
21
-2.8289291338582676
0
LINE
8
BLACK
6
CONTINUOUS
10
5.8383858267716535
20
-2.8289291338582676
11
5.8383109055118112
21
-2.8293057874015748
0
LINE
8
BLACK
6
CONTINUOUS
10
5.8383109055118112
20
-2.8293057874015748
11
5.8377782283464565
21
-2.829838464566929
0
LINE
8
BLACK
6
CONTINUOUS
10
5.8377782283464565
20
-2.829838464566929
11
5.8374015748031498
21
-2.8299133858267718
0
LINE
8
BLACK
6
CONTINUOUS
10
5.8374015748031498
20
-2.8299133858267718
11
5.7625984251968498
21
-2.8299133858267718
0
LINE
8
BLACK
6
CONTINUOUS
10
5.7625984251968498
20
-2.8299133858267718
11
5.7622217716535431
21
-2.829838464566929
0
LINE
8
BLACK
6
CONTINUOUS
10
5.7622217716535431
20
-2.829838464566929
11
5.7616890944881884
21
-2.8293057874015748
0
LINE
8
BLACK
6
CONTINUOUS
10
5.7616890944881884
20
-2.8293057874015748
11
5.7616141732283461
21
-2.8289291338582676
0
LINE
8
BLACK
6
CONTINUOUS
10
5.7616141732283461
20
-2.8289291338582676
11
5.7616141732283461
21
-2.6966456692913385
0
LINE
8
BLACK
6
CONTINUOUS
10
5.7616141732283461
20
-2.6966456692913385
11
5.7616890944881884
21
-2.6962690157480314
0
LINE
8
BLACK
6
CONTINUOUS
10
5.7616890944881884
20
-2.6962690157480314
11
5.7622217716535431
21
-2.6957363385826771
0
LINE
8
BLACK
6
CONTINUOUS
10
5.7622217716535431
20
-2.6957363385826771
11
5.7625984251968498
21
-2.6956614173228344
0
LINE
8
BLACK
6
CONTINUOUS
10
5.7625984251968498
20
-2.6956614173228344
11
5.8374015748031498
21
-2.6956614173228344
0
LINE
8
BLACK
6
CONTINUOUS
10
5.8374015748031498
20
-2.6956614173228344
11
5.8377782283464565
21
-2.6957363385826771
0
LINE
8
BLACK
6
CONTINUOUS
10
5.7635826771653544
20
-2.6976299212598422
11
5.7635826771653544
21
-2.8279448818897639
0
LINE
8
BLACK
6
CONTINUOUS
10
5.7635826771653544
20
-2.8279448818897639
11
5.8364173228346452
21
-2.8279448818897639
0
LINE
8
BLACK
6
CONTINUOUS
10
5.8364173228346452
20
-2.8279448818897639
11
5.8364173228346452
21
-2.6976299212598422
0
LINE
8
BLACK
6
CONTINUOUS
10
5.8364173228346452
20
-2.6976299212598422
11
5.7635826771653544
21
-2.6976299212598422
0
LINE
8
BLACK
6
CONTINUOUS
10
6.6817142519685042
20
-2.7413833070866143
11
6.689022913385827
21
-2.7444106692913386
0
LINE
8
BLACK
6
CONTINUOUS
10
6.689022913385827
20
-2.7444106692913386
11
6.6956005118110236
21
-2.7488056692913387
0
LINE
8
BLACK
6
CONTINUOUS
10
6.6956005118110236
20
-2.7488056692913387
11
6.7011943307086614
21
-2.7543994881889762
0
LINE
8
BLACK
6
CONTINUOUS
10
6.7011943307086614
20
-2.7543994881889762
11
6.7055893307086611
21
-2.7609770866141732
0
LINE
8
BLACK
6
CONTINUOUS
10
6.7055893307086611
20
-2.7609770866141732
11
6.7086166929133855
21
-2.768285748031496
0
LINE
8
BLACK
6
CONTINUOUS
10
6.7086166929133855
20
-2.768285748031496
11
6.7101600000000001
21
-2.7760445669291336
0
LINE
8
BLACK
6
CONTINUOUS
10
6.7101600000000001
20
-2.7760445669291336
11
6.7101600000000001
21
-2.783955433070866
0
LINE
8
BLACK
6
CONTINUOUS
10
6.7101600000000001
20
-2.783955433070866
11
6.7086166929133855
21
-2.7917142519685041
0
LINE
8
BLACK
6
CONTINUOUS
10
6.7086166929133855
20
-2.7917142519685041
11
6.7055893307086611
21
-2.7990229133858269
0
LINE
8
BLACK
6
CONTINUOUS
10
6.7055893307086611
20
-2.7990229133858269
11
6.7011943307086614
21
-2.8056005118110234
0
LINE
8
BLACK
6
CONTINUOUS
10
6.7011943307086614
20
-2.8056005118110234
11
6.6956005118110236
21
-2.8111943307086613
0
LINE
8
BLACK
6
CONTINUOUS
10
6.6956005118110236
20
-2.8111943307086613
11
6.689022913385827
21
-2.8155893307086615
0
LINE
8
BLACK
6
CONTINUOUS
10
6.689022913385827
20
-2.8155893307086615
11
6.6817142519685042
21
-2.8186166929133858
0
LINE
8
BLACK
6
CONTINUOUS
10
6.6817142519685042
20
-2.8186166929133858
11
6.6739554330708657
21
-2.82016
0
LINE
8
BLACK
6
CONTINUOUS
10
6.6739554330708657
20
-2.82016
11
6.6660445669291333
21
-2.82016
0
LINE
8
BLACK
6
CONTINUOUS
10
6.6660445669291333
20
-2.82016
11
6.6582857480314956
21
-2.8186166929133858
0
LINE
8
BLACK
6
CONTINUOUS
10
6.6582857480314956
20
-2.8186166929133858
11
6.6509770866141729
21
-2.8155893307086615
0
LINE
8
BLACK
6
CONTINUOUS
10
6.6509770866141729
20
-2.8155893307086615
11
6.6443994881889763
21
-2.8111943307086613
0
LINE
8
BLACK
6
CONTINUOUS
10
6.6443994881889763
20
-2.8111943307086613
11
6.6388056692913384
21
-2.8056005118110234
0
LINE
8
BLACK
6
CONTINUOUS
10
6.6388056692913384
20
-2.8056005118110234
11
6.6344106692913387
21
-2.7990229133858269
0
LINE
8
BLACK
6
CONTINUOUS
10
6.6344106692913387
20
-2.7990229133858269
11
6.6313833070866144
21
-2.7917142519685041
0
LINE
8
BLACK
6
CONTINUOUS
10
6.6313833070866144
20
-2.7917142519685041
11
6.6298399999999997
21
-2.783955433070866
0
LINE
8
BLACK
6
CONTINUOUS
10
6.6298399999999997
20
-2.783955433070866
11
6.6298399999999997
21
-2.7762193307086616
0
LINE
8
BLACK
6
CONTINUOUS
10
6.6298399999999997
20
-2.7762193307086616
11
6.6298399999999997
21
-2.7760445669291336
0
LINE
8
BLACK
6
CONTINUOUS
10
6.6298399999999997
20
-2.7760445669291336
11
6.6313833070866144
21
-2.768285748031496
0
LINE
8
BLACK
6
CONTINUOUS
10
6.6313833070866144
20
-2.768285748031496
11
6.6344106692913387
21
-2.7609770866141732
0
LINE
8
BLACK
6
CONTINUOUS
10
6.6344106692913387
20
-2.7609770866141732
11
6.6388056692913384
21
-2.7543994881889762
0
LINE
8
BLACK
6
CONTINUOUS
10
6.6388056692913384
20
-2.7543994881889762
11
6.6443994881889763
21
-2.7488056692913387
0
LINE
8
BLACK
6
CONTINUOUS
10
6.6443994881889763
20
-2.7488056692913387
11
6.6509770866141729
21
-2.7444106692913386
0
LINE
8
BLACK
6
CONTINUOUS
10
6.6509770866141729
20
-2.7444106692913386
11
6.6582857480314956
21
-2.7413833070866143
0
LINE
8
BLACK
6
CONTINUOUS
10
6.6582857480314956
20
-2.7413833070866143
11
6.6660445669291333
21
-2.7398400000000001
0
LINE
8
BLACK
6
CONTINUOUS
10
6.6660445669291333
20
-2.7398400000000001
11
6.6739554330708657
21
-2.7398400000000001
0
LINE
8
BLACK
6
CONTINUOUS
10
6.6739554330708657
20
-2.7398400000000001
11
6.6817142519685042
21
-2.7413833070866143
0
LINE
8
BLACK
6
CONTINUOUS
10
6.6316141732283462
20
-2.7837806692913385
11
6.6330892913385826
21
-2.7911967322834643
0
LINE
8
BLACK
6
CONTINUOUS
10
6.6330892913385826
20
-2.7911967322834643
11
6.6359829133858268
21
-2.7981825196850392
0
LINE
8
BLACK
6
CONTINUOUS
10
6.6359829133858268
20
-2.7981825196850392
11
6.6401837795275593
21
-2.804469566929134
0
LINE
8
BLACK
6
CONTINUOUS
10
6.6401837795275593
20
-2.804469566929134
11
6.6455304330708662
21
-2.8098162204724408
0
LINE
8
BLACK
6
CONTINUOUS
10
6.6455304330708662
20
-2.8098162204724408
11
6.6518174803149606
21
-2.8140170866141734
0
LINE
8
BLACK
6
CONTINUOUS
10
6.6518174803149606
20
-2.8140170866141734
11
6.658803267716535
21
-2.8169107086614171
0
LINE
8
BLACK
6
CONTINUOUS
10
6.658803267716535
20
-2.8169107086614171
11
6.6662193307086612
21
-2.8183858267716535
0
LINE
8
BLACK
6
CONTINUOUS
10
6.6662193307086612
20
-2.8183858267716535
11
6.6737806692913386
21
-2.8183858267716535
0
LINE
8
BLACK
6
CONTINUOUS
10
6.6737806692913386
20
-2.8183858267716535
11
6.681196732283464
21
-2.8169107086614171
0
LINE
8
BLACK
6
CONTINUOUS
10
6.681196732283464
20
-2.8169107086614171
11
6.6881825196850393
21
-2.8140170866141734
0
LINE
8
BLACK
6
CONTINUOUS
10
6.6881825196850393
20
-2.8140170866141734
11
6.6944695669291336
21
-2.8098162204724408
0
LINE
8
BLACK
6
CONTINUOUS
10
6.6944695669291336
20
-2.8098162204724408
11
6.6998162204724405
21
-2.804469566929134
0
LINE
8
BLACK
6
CONTINUOUS
10
6.6998162204724405
20
-2.804469566929134
11
6.7040170866141731
21
-2.7981825196850392
0
LINE
8
BLACK
6
CONTINUOUS
10
6.7040170866141731
20
-2.7981825196850392
11
6.7069107086614173
21
-2.7911967322834643
0
LINE
8
BLACK
6
CONTINUOUS
10
6.7069107086614173
20
-2.7911967322834643
11
6.7083858267716536
21
-2.7837806692913385
0
LINE
8
BLACK
6
CONTINUOUS
10
6.7083858267716536
20
-2.7837806692913385
11
6.7083858267716536
21
-2.7762193307086616
0
LINE
8
BLACK
6
CONTINUOUS
10
6.7083858267716536
20
-2.7762193307086616
11
6.7069107086614173
21
-2.7688032677165353
0
LINE
8
BLACK
6
CONTINUOUS
10
6.7069107086614173
20
-2.7688032677165353
11
6.7040170866141731
21
-2.7618174803149604
0
LINE
8
BLACK
6
CONTINUOUS
10
6.7040170866141731
20
-2.7618174803149604
11
6.6998162204724405
21
-2.7555304330708661
0
LINE
8
BLACK
6
CONTINUOUS
10
6.6998162204724405
20
-2.7555304330708661
11
6.6944695669291336
21
-2.7501837795275592
0
LINE
8
BLACK
6
CONTINUOUS
10
6.6944695669291336
20
-2.7501837795275592
11
6.6881825196850393
21
-2.7459829133858267
0
LINE
8
BLACK
6
CONTINUOUS
10
6.6881825196850393
20
-2.7459829133858267
11
6.681196732283464
21
-2.7430892913385825
0
LINE
8
BLACK
6
CONTINUOUS
10
6.681196732283464
20
-2.7430892913385825
11
6.6737806692913386
21
-2.7416141732283466
0
LINE
8
BLACK
6
CONTINUOUS
10
6.6737806692913386
20
-2.7416141732283466
11
6.6662193307086612
21
-2.7416141732283466
0
LINE
8
BLACK
6
CONTINUOUS
10
6.6662193307086612
20
-2.7416141732283466
11
6.658803267716535
21
-2.7430892913385825
0
LINE
8
BLACK
6
CONTINUOUS
10
6.658803267716535
20
-2.7430892913385825
11
6.6518174803149606
21
-2.7459829133858267
0
LINE
8
BLACK
6
CONTINUOUS
10
6.6518174803149606
20
-2.7459829133858267
11
6.6455304330708662
21
-2.7501837795275592
0
LINE
8
BLACK
6
CONTINUOUS
10
6.6455304330708662
20
-2.7501837795275592
11
6.6401837795275593
21
-2.7555304330708661
0
LINE
8
BLACK
6
CONTINUOUS
10
6.6401837795275593
20
-2.7555304330708661
11
6.6359829133858268
21
-2.7618174803149604
0
LINE
8
BLACK
6
CONTINUOUS
10
6.6359829133858268
20
-2.7618174803149604
11
6.6330892913385826
21
-2.7688032677165353
0
LINE
8
BLACK
6
CONTINUOUS
10
6.6330892913385826
20
-2.7688032677165353
11
6.6316141732283462
21
-2.7762193307086616
0
LINE
8
BLACK
6
CONTINUOUS
10
6.6316141732283462
20
-2.7762193307086616
11
6.6316141732283462
21
-2.7837806692913385
0
LINE
8
BLACK
6
CONTINUOUS
10
5.1297142519685037
20
-2.7203833070866139
11
5.1370229133858265
21
-2.7234106692913387
0
LINE
8
BLACK
6
CONTINUOUS
10
5.1370229133858265
20
-2.7234106692913387
11
5.1436005118110231
21
-2.7278056692913384
0
LINE
8
BLACK
6
CONTINUOUS
10
5.1436005118110231
20
-2.7278056692913384
11
5.1491943307086609
21
-2.7333994881889763
0
LINE
8
BLACK
6
CONTINUOUS
10
5.1491943307086609
20
-2.7333994881889763
11
5.1535893307086615
21
-2.7399770866141733
0
LINE
8
BLACK
6
CONTINUOUS
10
5.1535893307086615
20
-2.7399770866141733
11
5.1566166929133859
21
-2.7472857480314961
0
LINE
8
BLACK
6
CONTINUOUS
10
5.1566166929133859
20
-2.7472857480314961
11
5.1581599999999996
21
-2.7550445669291337
0
LINE
8
BLACK
6
CONTINUOUS
10
5.1581599999999996
20
-2.7550445669291337
11
5.1581599999999996
21
-2.7629554330708661
0
LINE
8
BLACK
6
CONTINUOUS
10
5.1581599999999996
20
-2.7629554330708661
11
5.1566166929133859
21
-2.7707142519685037
0
LINE
8
BLACK
6
CONTINUOUS
10
5.1566166929133859
20
-2.7707142519685037
11
5.1535893307086615
21
-2.7780229133858265
0
LINE
8
BLACK
6
CONTINUOUS
10
5.1535893307086615
20
-2.7780229133858265
11
5.1491943307086609
21
-2.7846005118110235
0
LINE
8
BLACK
6
CONTINUOUS
10
5.1491943307086609
20
-2.7846005118110235
11
5.1436005118110231
21
-2.7901943307086614
0
LINE
8
BLACK
6
CONTINUOUS
10
5.1436005118110231
20
-2.7901943307086614
11
5.1370229133858265
21
-2.7945893307086616
0
LINE
8
BLACK
6
CONTINUOUS
10
5.1370229133858265
20
-2.7945893307086616
11
5.1297142519685037
21
-2.7976166929133859
0
LINE
8
BLACK
6
CONTINUOUS
10
5.1297142519685037
20
-2.7976166929133859
11
5.1219554330708661
21
-2.7991600000000001
0
LINE
8
BLACK
6
CONTINUOUS
10
5.1219554330708661
20
-2.7991600000000001
11
5.1140445669291337
21
-2.7991600000000001
0
LINE
8
BLACK
6
CONTINUOUS
10
5.1140445669291337
20
-2.7991600000000001
11
5.106285748031496
21
-2.7976166929133859
0
LINE
8
BLACK
6
CONTINUOUS
10
5.106285748031496
20
-2.7976166929133859
11
5.0989770866141733
21
-2.7945893307086616
0
LINE
8
BLACK
6
CONTINUOUS
10
5.0989770866141733
20
-2.7945893307086616
11
5.0923994881889767
21
-2.7901943307086614
0
LINE
8
BLACK
6
CONTINUOUS
10
5.0923994881889767
20
-2.7901943307086614
11
5.0868056692913388
21
-2.7846005118110235
0
LINE
8
BLACK
6
CONTINUOUS
10
5.0868056692913388
20
-2.7846005118110235
11
5.0824106692913382
21
-2.7780229133858265
0
LINE
8
BLACK
6
CONTINUOUS
10
5.0824106692913382
20
-2.7780229133858265
11
5.0793833070866139
21
-2.7707142519685037
0
LINE
8
BLACK
6
CONTINUOUS
10
5.0793833070866139
20
-2.7707142519685037
11
5.0778400000000001
21
-2.7629554330708661
0
LINE
8
BLACK
6
CONTINUOUS
10
5.0778400000000001
20
-2.7629554330708661
11
5.0778400000000001
21
-2.7552193307086612
0
LINE
8
BLACK
6
CONTINUOUS
10
5.0778400000000001
20
-2.7552193307086612
11
5.0778400000000001
21
-2.7550445669291337
0
LINE
8
BLACK
6
CONTINUOUS
10
5.0778400000000001
20
-2.7550445669291337
11
5.0793833070866139
21
-2.7472857480314961
0
LINE
8
BLACK
6
CONTINUOUS
10
5.0793833070866139
20
-2.7472857480314961
11
5.0824106692913382
21
-2.7399770866141733
0
LINE
8
BLACK
6
CONTINUOUS
10
5.0824106692913382
20
-2.7399770866141733
11
5.0868056692913388
21
-2.7333994881889763
0
LINE
8
BLACK
6
CONTINUOUS
10
5.0868056692913388
20
-2.7333994881889763
11
5.0923994881889767
21
-2.7278056692913384
0
LINE
8
BLACK
6
CONTINUOUS
10
5.0923994881889767
20
-2.7278056692913384
11
5.0989770866141733
21
-2.7234106692913387
0
LINE
8
BLACK
6
CONTINUOUS
10
5.0989770866141733
20
-2.7234106692913387
11
5.106285748031496
21
-2.7203833070866139
0
LINE
8
BLACK
6
CONTINUOUS
10
5.106285748031496
20
-2.7203833070866139
11
5.1140445669291337
21
-2.7188400000000001
0
LINE
8
BLACK
6
CONTINUOUS
10
5.1140445669291337
20
-2.7188400000000001
11
5.1219554330708661
21
-2.7188400000000001
0
LINE
8
BLACK
6
CONTINUOUS
10
5.1219554330708661
20
-2.7188400000000001
11
5.1297142519685037
21
-2.7203833070866139
0
LINE
8
BLACK
6
CONTINUOUS
10
5.0796141732283466
20
-2.7627806692913386
11
5.081089291338583
21
-2.7701967322834644
0
LINE
8
BLACK
6
CONTINUOUS
10
5.081089291338583
20
-2.7701967322834644
11
5.0839829133858263
21
-2.7771825196850393
0
LINE
8
BLACK
6
CONTINUOUS
10
5.0839829133858263
20
-2.7771825196850393
11
5.0881837795275588
21
-2.7834695669291336
0
LINE
8
BLACK
6
CONTINUOUS
10
5.0881837795275588
20
-2.7834695669291336
11
5.0935304330708657
21
-2.7888162204724409
0
LINE
8
BLACK
6
CONTINUOUS
10
5.0935304330708657
20
-2.7888162204724409
11
5.0998174803149601
21
-2.793017086614173
0
LINE
8
BLACK
6
CONTINUOUS
10
5.0998174803149601
20
-2.793017086614173
11
5.1068032677165354
21
-2.7959107086614172
0
LINE
8
BLACK
6
CONTINUOUS
10
5.1068032677165354
20
-2.7959107086614172
11
5.1142193307086616
21
-2.7973858267716536
0
LINE
8
BLACK
6
CONTINUOUS
10
5.1142193307086616
20
-2.7973858267716536
11
5.1217806692913381
21
-2.7973858267716536
0
LINE
8
BLACK
6
CONTINUOUS
10
5.1217806692913381
20
-2.7973858267716536
11
5.1291967322834644
21
-2.7959107086614172
0
LINE
8
BLACK
6
CONTINUOUS
10
5.1291967322834644
20
-2.7959107086614172
11
5.1361825196850397
21
-2.793017086614173
0
LINE
8
BLACK
6
CONTINUOUS
10
5.1361825196850397
20
-2.793017086614173
11
5.142469566929134
21
-2.7888162204724409
0
LINE
8
BLACK
6
CONTINUOUS
10
5.142469566929134
20
-2.7888162204724409
11
5.1478162204724409
21
-2.7834695669291336
0
LINE
8
BLACK
6
CONTINUOUS
10
5.1478162204724409
20
-2.7834695669291336
11
5.1520170866141735
21
-2.7771825196850393
0
LINE
8
BLACK
6
CONTINUOUS
10
5.1520170866141735
20
-2.7771825196850393
11
5.1549107086614168
21
-2.7701967322834644
0
LINE
8
BLACK
6
CONTINUOUS
10
5.1549107086614168
20
-2.7701967322834644
11
5.1563858267716531
21
-2.7627806692913386
0
LINE
8
BLACK
6
CONTINUOUS
10
5.1563858267716531
20
-2.7627806692913386
11
5.1563858267716531
21
-2.7552193307086612
0
LINE
8
BLACK
6
CONTINUOUS
10
5.1563858267716531
20
-2.7552193307086612
11
5.1549107086614168
21
-2.7478032677165354
0
LINE
8
BLACK
6
CONTINUOUS
10
5.1549107086614168
20
-2.7478032677165354
11
5.1520170866141735
21
-2.7408174803149605
0
LINE
8
BLACK
6
CONTINUOUS
10
5.1520170866141735
20
-2.7408174803149605
11
5.1478162204724409
21
-2.7345304330708662
0
LINE
8
BLACK
6
CONTINUOUS
10
5.1478162204724409
20
-2.7345304330708662
11
5.142469566929134
21
-2.7291837795275589
0
LINE
8
BLACK
6
CONTINUOUS
10
5.142469566929134
20
-2.7291837795275589
11
5.1361825196850397
21
-2.7249829133858268
0
LINE
8
BLACK
6
CONTINUOUS
10
5.1361825196850397
20
-2.7249829133858268
11
5.1291967322834644
21
-2.7220892913385826
0
LINE
8
BLACK
6
CONTINUOUS
10
5.1291967322834644
20
-2.7220892913385826
11
5.1217806692913381
21
-2.7206141732283462
0
LINE
8
BLACK
6
CONTINUOUS
10
5.1217806692913381
20
-2.7206141732283462
11
5.1142193307086616
21
-2.7206141732283462
0
LINE
8
BLACK
6
CONTINUOUS
10
5.1142193307086616
20
-2.7206141732283462
11
5.1068032677165354
21
-2.7220892913385826
0
LINE
8
BLACK
6
CONTINUOUS
10
5.1068032677165354
20
-2.7220892913385826
11
5.0998174803149601
21
-2.7249829133858268
0
LINE
8
BLACK
6
CONTINUOUS
10
5.0998174803149601
20
-2.7249829133858268
11
5.0935304330708657
21
-2.7291837795275589
0
LINE
8
BLACK
6
CONTINUOUS
10
5.0935304330708657
20
-2.7291837795275589
11
5.0881837795275588
21
-2.7345304330708662
0
LINE
8
BLACK
6
CONTINUOUS
10
5.0881837795275588
20
-2.7345304330708662
11
5.0839829133858263
21
-2.7408174803149605
0
LINE
8
BLACK
6
CONTINUOUS
10
5.0839829133858263
20
-2.7408174803149605
11
5.081089291338583
21
-2.7478032677165354
0
LINE
8
BLACK
6
CONTINUOUS
10
5.081089291338583
20
-2.7478032677165354
11
5.0796141732283466
21
-2.7552193307086612
0
LINE
8
BLACK
6
CONTINUOUS
10
5.0796141732283466
20
-2.7552193307086612
11
5.0796141732283466
21
-2.7627806692913386
0
CIRCLE
8
BLACK
10
6.9685039370078741
20
-3.8188976377952755
40
0.0531496062992126
0
CIRCLE
8
BLACK
10
4.8425196850393704
20
-3.8188976377952755
40
0.0531496062992126
0
CIRCLE
8
BLACK
10
4.8425196850393704
20
-2.7362204724409449
40
0.0531496062992126
0
CIRCLE
8
BLACK
10
6.9685039370078741
20
-2.7362204724409449
40
0.0531496062992126
0
LINE
8
BLACK
6
CONTINUOUS
10
4.8210083070866139
20
-3.1841136614173227
11
4.8221375984251971
21
-3.1784364566929133
0
LINE
8
BLACK
6
CONTINUOUS
10
4.8221375984251971
20
-3.1784364566929133
11
4.824352716535433
21
-3.1730886614173226
0
LINE
8
BLACK
6
CONTINUOUS
10
4.824352716535433
20
-3.1730886614173226
11
4.8275685826771655
21
-3.1682757874015746
0
LINE
8
BLACK
6
CONTINUOUS
10
4.8275685826771655
20
-3.1682757874015746
11
4.8316616141732283
21
-3.1641827559055118
0
LINE
8
BLACK
6
CONTINUOUS
10
4.8316616141732283
20
-3.1641827559055118
11
4.8364744881889763
21
-3.1609668897637793
0
LINE
8
BLACK
6
CONTINUOUS
10
4.8364744881889763
20
-3.1609668897637793
11
4.841822283464567
21
-3.1587517716535434
0
LINE
8
BLACK
6
CONTINUOUS
10
4.841822283464567
20
-3.1587517716535434
11
4.8474994881889764
21
-3.1576224803149606
0
LINE
8
BLACK
6
CONTINUOUS
10
4.8474994881889764
20
-3.1576224803149606
11
4.8532879133858264
21
-3.1576224803149606
0
LINE
8
BLACK
6
CONTINUOUS
10
4.8532879133858264
20
-3.1576224803149606
11
4.8589651181102358
21
-3.1587517716535434
0
LINE
8
BLACK
6
CONTINUOUS
10
4.8589651181102358
20
-3.1587517716535434
11
4.8643129133858265
21
-3.1609668897637793
0
LINE
8
BLACK
6
CONTINUOUS
10
4.8643129133858265
20
-3.1609668897637793
11
4.8691257874015745
21
-3.1641827559055118
0
LINE
8
BLACK
6
CONTINUOUS
10
4.8691257874015745
20
-3.1641827559055118
11
4.8732188188976373
21
-3.1682757874015746
0
LINE
8
BLACK
6
CONTINUOUS
10
4.8732188188976373
20
-3.1682757874015746
11
4.8764346850393698
21
-3.1730886614173226
0
LINE
8
BLACK
6
CONTINUOUS
10
4.8764346850393698
20
-3.1730886614173226
11
4.8786498031496066
21
-3.1784364566929133
0
LINE
8
BLACK
6
CONTINUOUS
10
4.8786498031496066
20
-3.1784364566929133
11
4.8797790944881889
21
-3.1841136614173227
0
LINE
8
BLACK
6
CONTINUOUS
10
4.8797790944881889
20
-3.1841136614173227
11
4.8799212598425195
21
-3.1870078740157481
0
LINE
8
BLACK
6
CONTINUOUS
10
4.8799212598425195
20
-3.1870078740157481
11
4.8799212598425195
21
-3.2066929133858268
0
LINE
8
BLACK
6
CONTINUOUS
10
4.8799212598425195
20
-3.2066929133858268
11
4.8797790944881889
21
-3.2095871259842519
0
LINE
8
BLACK
6
CONTINUOUS
10
4.8797790944881889
20
-3.2095871259842519
11
4.8786498031496066
21
-3.2152643307086612
0
LINE
8
BLACK
6
CONTINUOUS
10
4.8786498031496066
20
-3.2152643307086612
11
4.8764346850393698
21
-3.2206121259842519
0
LINE
8
BLACK
6
CONTINUOUS
10
4.8764346850393698
20
-3.2206121259842519
11
4.8732188188976373
21
-3.225425
0
LINE
8
BLACK
6
CONTINUOUS
10
4.8732188188976373
20
-3.225425
11
4.8691257874015745
21
-3.2295180314960628
0
LINE
8
BLACK
6
CONTINUOUS
10
4.8691257874015745
20
-3.2295180314960628
11
4.8643129133858265
21
-3.2327338976377953
0
LINE
8
BLACK
6
CONTINUOUS
10
4.8643129133858265
20
-3.2327338976377953
11
4.8589651181102358
21
-3.2349490157480316
0
LINE
8
BLACK
6
CONTINUOUS
10
4.8589651181102358
20
-3.2349490157480316
11
4.8532879133858264
21
-3.2360783070866139
0
LINE
8
BLACK
6
CONTINUOUS
10
4.8532879133858264
20
-3.2360783070866139
11
4.8474994881889764
21
-3.2360783070866139
0
LINE
8
BLACK
6
CONTINUOUS
10
4.8474994881889764
20
-3.2360783070866139
11
4.841822283464567
21
-3.2349490157480316
0
LINE
8
BLACK
6
CONTINUOUS
10
4.841822283464567
20
-3.2349490157480316
11
4.8364744881889763
21
-3.2327338976377953
0
LINE
8
BLACK
6
CONTINUOUS
10
4.8364744881889763
20
-3.2327338976377953
11
4.8316616141732283
21
-3.2295180314960628
0
LINE
8
BLACK
6
CONTINUOUS
10
4.8316616141732283
20
-3.2295180314960628
11
4.8275685826771655
21
-3.225425
0
LINE
8
BLACK
6
CONTINUOUS
10
4.8275685826771655
20
-3.225425
11
4.824352716535433
21
-3.2206121259842519
0
LINE
8
BLACK
6
CONTINUOUS
10
4.824352716535433
20
-3.2206121259842519
11
4.8221375984251971
21
-3.2152643307086612
0
LINE
8
BLACK
6
CONTINUOUS
10
4.8221375984251971
20
-3.2152643307086612
11
4.8210083070866139
21
-3.2095871259842519
0
LINE
8
BLACK
6
CONTINUOUS
10
4.8210083070866139
20
-3.2095871259842519
11
4.8208661417322833
21
-3.2066929133858268
0
LINE
8
BLACK
6
CONTINUOUS
10
4.8208661417322833
20
-3.2066929133858268
11
4.8208661417322833
21
-3.1870078740157481
0
LINE
8
BLACK
6
CONTINUOUS
10
4.8208661417322833
20
-3.1870078740157481
11
4.8210083070866139
21
-3.1841136614173227
0
CIRCLE
8
BLACK
10
5.0236220472440944
20
-3.1968503937007875
40
0.0393700787401575
0
CIRCLE
8
BLACK
10
5.3661417322834648
20
-3.1299212598425195
40
0.0196850393700787
0
CIRCLE
8
BLACK
10
5.3661417322834648
20
-3.0299212598425198
40
0.0196850393700787
0
CIRCLE
8
BLACK
10
5.3661417322834648
20
-2.9299212598425197
40
0.0196850393700787
0
CIRCLE
8
BLACK
10
5.3661417322834648
20
-2.8299212598425196
40
0.0196850393700787
0
CIRCLE
8
BLACK
10
5.3661417322834648
20
-2.7299212598425195
40
0.0196850393700787
0
CIRCLE
8
BLACK
10
5.9799999999999995
20
-3.75
40
0.0196850393700787
0
CIRCLE
8
BLACK
10
6.0800000000000001
20
-3.75
40
0.0196850393700787
0
CIRCLE
8
BLACK
10
5.9799999999999995
20
-3.8500000000000001
40
0.0196850393700787
0
CIRCLE
8
BLACK
10
6.0800000000000001
20
-3.8500000000000001
40
0.0196850393700787
0
CIRCLE
8
BLACK
10
5.556
20
-3.8489999999999998
40
0.0196850393700787
0
CIRCLE
8
BLACK
10
5.556
20
-3.7490000000000001
40
0.0196850393700787
0
CIRCLE
8
BLACK
10
5.6559999999999997
20
-3.8489999999999998
40
0.0196850393700787
0
CIRCLE
8
BLACK
10
5.6559999999999997
20
-3.7490000000000001
40
0.0196850393700787
0
CIRCLE
8
BLACK
10
5.7560000000000002
20
-3.8489999999999998
40
0.0196850393700787
0
CIRCLE
8
BLACK
10
5.7560000000000002
20
-3.7490000000000001
40
0.0196850393700787
0
CIRCLE
8
BLACK
10
5.5499999999999998
20
-3.04
40
0.0196850393700787
0
CIRCLE
8
BLACK
10
5.5499999999999998
20
-3.1400000000000001
40
0.0196850393700787
0
CIRCLE
8
BLACK
10
5.5499999999999998
20
-3.2399999999999998
40
0.0196850393700787
0
CIRCLE
8
BLACK
10
5.5499999999999998
20
-3.3399999999999999
40
0.0196850393700787
0
CIRCLE
8
BLACK
10
5.5499999999999998
20
-3.4399999999999999
40
0.0196850393700787
0
CIRCLE
8
BLACK
10
5.5499999999999998
20
-3.54
40
0.0196850393700787
0
CIRCLE
8
BLACK
10
6.8300000000000001
20
-3.21
40
0.0187007874015748
0
CIRCLE
8
BLACK
10
6.8300000000000001
20
-3.3084251968503935
40
0.0187007874015748
0
CIRCLE
8
BLACK
10
6.9087401574803149
20
-3.3084251968503935
40
0.0187007874015748
0
CIRCLE
8
BLACK
10
6.9087401574803149
20
-3.21
40
0.0187007874015748
0
CIRCLE
8
BLACK
10
7.0213385826771653
20
-3.0229921259842518
40
0.0452755905511811
0
CIRCLE
8
BLACK
10
7.0213385826771653
20
-3.4954330708661416
40
0.0452755905511811
0
CIRCLE
8
BLACK
10
6.9685039370078741
20
-3.8188976377952755
40
0.0531495669291339
0
CIRCLE
8
BLACK
10
4.8425196850393704
20
-3.8188976377952755
40
0.0531495669291339
0
CIRCLE
8
BLACK
10
4.8425196850393704
20
-2.7362204724409449
40
0.0531495669291339
0
CIRCLE
8
BLACK
10
6.9685039370078741
20
-2.7362204724409449
40
0.0531495669291339
0
LINE
8
BLACK
6
CONTINUOUS
10
4.8799212204724407
20
-3.2066929133858268
11
4.8799212204724407
21
-3.1870078740157481
0
ARC
8
BLACK
10
4.8503937007874018
20
-3.1870078740157481
40
0.0295275196850394
50
0.00000000
51
180.00000000
0
LINE
8
BLACK
6
CONTINUOUS
10
4.8208661811023621
20
-3.1870078740157481
11
4.8208661811023621
21
-3.2066929133858268
0
ARC
8
BLACK
10
4.8503937007874018
20
-3.2066929133858268
40
0.0295275196850394
50
180.00000000
51
360.00000000
0
CIRCLE
8
BLACK
10
5.0236220472440944
20
-3.1968503937007875
40
0.0393700393700787
0
CIRCLE
8
BLACK
10
5.3661417322834648
20
-3.1299212598425195
40
0.0196850393700787
0
CIRCLE
8
BLACK
10
5.3661417322834648
20
-3.0299212598425198
40
0.0196850393700787
0
CIRCLE
8
BLACK
10
5.3661417322834648
20
-2.9299212598425197
40
0.0196850393700787
0
CIRCLE
8
BLACK
10
5.3661417322834648
20
-2.8299212598425196
40
0.0196850393700787
0
CIRCLE
8
BLACK
10
5.3661417322834648
20
-2.7299212598425195
40
0.0196850393700787
0
CIRCLE
8
BLACK
10
5.9799999999999995
20
-3.75
40
0.0196850393700787
0
CIRCLE
8
BLACK
10
6.0800000000000001
20
-3.75
40
0.0196850393700787
0
CIRCLE
8
BLACK
10
5.9799999999999995
20
-3.8500000000000001
40
0.0196850393700787
0
CIRCLE
8
BLACK
10
6.0800000000000001
20
-3.8500000000000001
40
0.0196850393700787
0
CIRCLE
8
BLACK
10
5.556
20
-3.8489999999999998
40
0.0196850393700787
0
CIRCLE
8
BLACK
10
5.556
20
-3.7490000000000001
40
0.0196850393700787
0
CIRCLE
8
BLACK
10
5.6559999999999997
20
-3.8489999999999998
40
0.0196850393700787
0
CIRCLE
8
BLACK
10
5.6559999999999997
20
-3.7490000000000001
40
0.0196850393700787
0
CIRCLE
8
BLACK
10
5.7560000000000002
20
-3.8489999999999998
40
0.0196850393700787
0
CIRCLE
8
BLACK
10
5.7560000000000002
20
-3.7490000000000001
40
0.0196850393700787
0
CIRCLE
8
BLACK
10
5.5499999999999998
20
-3.04
40
0.0196850393700787
0
CIRCLE
8
BLACK
10
5.5499999999999998
20
-3.1400000000000001
40
0.0196850393700787
0
CIRCLE
8
BLACK
10
5.5499999999999998
20
-3.2399999999999998
40
0.0196850393700787
0
CIRCLE
8
BLACK
10
5.5499999999999998
20
-3.3399999999999999
40
0.0196850393700787
0
CIRCLE
8
BLACK
10
5.5499999999999998
20
-3.4399999999999999
40
0.0196850393700787
0
CIRCLE
8
BLACK
10
5.5499999999999998
20
-3.54
40
0.0196850393700787
0
CIRCLE
8
BLACK
10
6.8300000000000001
20
-3.21
40
0.0187007874015748
0
CIRCLE
8
BLACK
10
6.8300000000000001
20
-3.3084251968503935
40
0.0187007874015748
0
CIRCLE
8
BLACK
10
6.9087401574803149
20
-3.3084251968503935
40
0.0187007874015748
0
CIRCLE
8
BLACK
10
6.9087401574803149
20
-3.21
40
0.0187007874015748
0
CIRCLE
8
BLACK
10
7.0213385826771653
20
-3.0229921259842518
40
0.0452755905511811
0
CIRCLE
8
BLACK
10
7.0213385826771653
20
-3.4954330708661416
40
0.0452755905511811
  0
ENDSEC
  0
EOF
