  0
SECTION
  2
HEADER
  9
$ANGBASE
  50
0.0
  9
$ANGDIR
  70
1
  9
$MEASUREMENT
  70
0
  0
ENDSEC
  0
SECTION
  2
TABLES
  0
TABLE
  2
LTYPE
  70
4
  0
LTYPE
  5
40F
  2
CONTINUOUS
  70
0
  3
Solid line
  72
65
  73
0
  40
0.0
  0
LTYPE
  5
410
  2
DASHDOT
 70
0
  3
Dash Dot ____ _ ____ _
 72
65
 73
4
 40
2.0
 49
1.25
 49
-0.25
 49
0.25
 49
-0.25
  0
LTYPE
  5
411
  2
DASHED
 70
0
  3
Dashed __ __ __ __ __
 72
65
 73
2
 40
0.75
 49
0.5
 49
-0.25
  0
LTYPE
  5
43B
  2
DOTTED
 70
0
  3
Dotted .  .  .  .
 72
65
 73
2
 40
0.2
 49
0.0
 49
-0.2
  0
ENDTAB
  0
TABLE
  2
STYLE
  70
4
  0
STYLE
  2
KICAD
  70
0
  40
0
  41
1
  42
1
  50
0
  71
0
  3
isocp.shx
  0
STYLE
  2
KICADB
  70
0
  40
0
  41
1
  42
1
  50
0
  71
0
  3
isocp.shx
  0
STYLE
  2
KICADI
  70
0
  40
0
  41
1
  42
1
  50
15
  71
0
  3
isocp.shx
  0
STYLE
  2
KICADBI
  70
0
  40
0
  41
1
  42
1
  50
15
  71
0
  3
isocp.shx
  0
ENDTAB
  0
TABLE
  2
LAYER
  70
1
  0
LAYER
  2
BLACK
  70
0
  62
7
  6
CONTINUOUS
  0
ENDTAB
  0
ENDSEC
  0
SECTION
  2
ENTITIES
0
LINE
8
BLACK
6
CONTINUOUS
10
5.2100551181102359
20
-3.5283228346456692
11
5.2107511023622042
21
-3.5286111023622047
0
LINE
8
BLACK
6
CONTINUOUS
10
5.2107511023622042
20
-3.5286111023622047
11
5.2110393700787396
21
-3.5293070866141734
0
LINE
8
BLACK
6
CONTINUOUS
10
5.2110393700787396
20
-3.5293070866141734
11
5.2110393700787396
21
-3.561787401574803
0
LINE
8
BLACK
6
CONTINUOUS
10
5.2110393700787396
20
-3.561787401574803
11
5.2789527559055118
21
-3.561787401574803
0
LINE
8
BLACK
6
CONTINUOUS
10
5.2789527559055118
20
-3.561787401574803
11
5.2796487401574801
21
-3.5620756692913385
0
LINE
8
BLACK
6
CONTINUOUS
10
5.2796487401574801
20
-3.5620756692913385
11
5.3249242519685041
21
-3.6073512204724407
0
LINE
8
BLACK
6
CONTINUOUS
10
5.3249242519685041
20
-3.6073512204724407
11
5.3249243307086616
21
-3.6073512598425195
0
LINE
8
BLACK
6
CONTINUOUS
10
5.3249243307086616
20
-3.6073512598425195
11
5.3249243307086616
21
-3.6073512992125982
0
LINE
8
BLACK
6
CONTINUOUS
10
5.3249243307086616
20
-3.6073512992125982
11
5.3252126377952758
21
-3.6080472440944882
0
LINE
8
BLACK
6
CONTINUOUS
10
5.3252126377952758
20
-3.6080472440944882
11
5.325212598425197
21
-3.6080473228346457
0
LINE
8
BLACK
6
CONTINUOUS
10
5.325212598425197
20
-3.6080473228346457
11
5.325212598425197
21
-3.9092283464566928
0
LINE
8
BLACK
6
CONTINUOUS
10
5.325212598425197
20
-3.9092283464566928
11
5.3249243307086616
21
-3.9099243307086615
0
LINE
8
BLACK
6
CONTINUOUS
10
5.3249243307086616
20
-3.9099243307086615
11
5.3242283464566924
21
-3.910212598425197
0
LINE
8
BLACK
6
CONTINUOUS
10
5.3242283464566924
20
-3.910212598425197
11
5.2110393700787396
21
-3.910212598425197
0
LINE
8
BLACK
6
CONTINUOUS
10
5.2110393700787396
20
-3.910212598425197
11
5.2110393700787396
21
-3.9426929133858266
0
LINE
8
BLACK
6
CONTINUOUS
10
5.2110393700787396
20
-3.9426929133858266
11
5.2107511023622042
21
-3.9433888976377953
0
LINE
8
BLACK
6
CONTINUOUS
10
5.2107511023622042
20
-3.9433888976377953
11
5.2100551181102359
21
-3.9436771653543308
0
LINE
8
BLACK
6
CONTINUOUS
10
5.2100551181102359
20
-3.9436771653543308
11
5.0919448818897637
21
-3.9436771653543308
0
LINE
8
BLACK
6
CONTINUOUS
10
5.0919448818897637
20
-3.9436771653543308
11
5.0912488976377954
21
-3.9433888976377953
0
LINE
8
BLACK
6
CONTINUOUS
10
5.0912488976377954
20
-3.9433888976377953
11
5.09096062992126
21
-3.9426929133858266
0
LINE
8
BLACK
6
CONTINUOUS
10
5.09096062992126
20
-3.9426929133858266
11
5.09096062992126
21
-3.910212598425197
0
LINE
8
BLACK
6
CONTINUOUS
10
5.09096062992126
20
-3.910212598425197
11
4.9777716535433072
21
-3.910212598425197
0
LINE
8
BLACK
6
CONTINUOUS
10
4.9777716535433072
20
-3.910212598425197
11
4.977075669291338
21
-3.9099243307086615
0
LINE
8
BLACK
6
CONTINUOUS
10
4.977075669291338
20
-3.9099243307086615
11
4.9767874015748026
21
-3.9092283464566928
0
LINE
8
BLACK
6
CONTINUOUS
10
4.9767874015748026
20
-3.9092283464566928
11
4.9767874015748026
21
-3.6080472440944882
0
LINE
8
BLACK
6
CONTINUOUS
10
4.9767874015748026
20
-3.6080472440944882
11
4.977075669291338
21
-3.6073512598425195
0
LINE
8
BLACK
6
CONTINUOUS
10
4.977075669291338
20
-3.6073512598425195
11
5.0223512204724408
21
-3.5620757086614172
0
LINE
8
BLACK
6
CONTINUOUS
10
5.0223512204724408
20
-3.5620757086614172
11
5.0223512598425195
21
-3.5620756692913385
0
LINE
8
BLACK
6
CONTINUOUS
10
5.0223512598425195
20
-3.5620756692913385
11
5.0225551181102359
21
-3.5619912204724407
0
LINE
8
BLACK
6
CONTINUOUS
10
5.0225551181102359
20
-3.5619912204724407
11
5.0230472440944878
21
-3.5617873622047242
0
LINE
8
BLACK
6
CONTINUOUS
10
5.0230472440944878
20
-3.5617873622047242
11
5.0230473228346453
21
-3.561787401574803
0
LINE
8
BLACK
6
CONTINUOUS
10
5.0230473228346453
20
-3.561787401574803
11
5.09096062992126
21
-3.561787401574803
0
LINE
8
BLACK
6
CONTINUOUS
10
5.09096062992126
20
-3.561787401574803
11
5.09096062992126
21
-3.5293070866141734
0
LINE
8
BLACK
6
CONTINUOUS
10
5.09096062992126
20
-3.5293070866141734
11
5.0912488976377954
21
-3.5286111023622047
0
LINE
8
BLACK
6
CONTINUOUS
10
5.0912488976377954
20
-3.5286111023622047
11
5.0919448818897637
21
-3.5283228346456692
0
LINE
8
BLACK
6
CONTINUOUS
10
5.0919448818897637
20
-3.5283228346456692
11
5.2100551181102359
21
-3.5283228346456692
0
LINE
8
BLACK
6
CONTINUOUS
10
5.0929291338582674
20
-3.5302913385826771
11
5.0929291338582674
21
-3.5627716535433072
0
LINE
8
BLACK
6
CONTINUOUS
10
5.0929291338582674
20
-3.5627716535433072
11
5.0926408661417319
21
-3.5634676377952754
0
LINE
8
BLACK
6
CONTINUOUS
10
5.0926408661417319
20
-3.5634676377952754
11
5.0919448818897637
21
-3.5637559055118109
0
LINE
8
BLACK
6
CONTINUOUS
10
5.0919448818897637
20
-3.5637559055118109
11
5.0234549212598427
21
-3.5637559055118109
0
LINE
8
BLACK
6
CONTINUOUS
10
5.0234549212598427
20
-3.5637559055118109
11
4.9787559055118109
21
-3.6084549212598422
0
LINE
8
BLACK
6
CONTINUOUS
10
4.9787559055118109
20
-3.6084549212598422
11
4.9787559055118109
21
-3.9082440944881891
0
LINE
8
BLACK
6
CONTINUOUS
10
4.9787559055118109
20
-3.9082440944881891
11
5.0919448818897637
21
-3.9082440944881891
0
LINE
8
BLACK
6
CONTINUOUS
10
5.0919448818897637
20
-3.9082440944881891
11
5.0926408661417319
21
-3.9085323622047241
0
LINE
8
BLACK
6
CONTINUOUS
10
5.0926408661417319
20
-3.9085323622047241
11
5.0929291338582674
21
-3.9092283464566928
0
LINE
8
BLACK
6
CONTINUOUS
10
5.0929291338582674
20
-3.9092283464566928
11
5.0929291338582674
21
-3.9417086614173229
0
LINE
8
BLACK
6
CONTINUOUS
10
5.0929291338582674
20
-3.9417086614173229
11
5.2090708661417322
21
-3.9417086614173229
0
LINE
8
BLACK
6
CONTINUOUS
10
5.2090708661417322
20
-3.9417086614173229
11
5.2090708661417322
21
-3.9092283464566928
0
LINE
8
BLACK
6
CONTINUOUS
10
5.2090708661417322
20
-3.9092283464566928
11
5.2093591338582677
21
-3.9085323622047241
0
LINE
8
BLACK
6
CONTINUOUS
10
5.2093591338582677
20
-3.9085323622047241
11
5.2100551181102359
21
-3.9082440944881891
0
LINE
8
BLACK
6
CONTINUOUS
10
5.2100551181102359
20
-3.9082440944881891
11
5.3232440944881887
21
-3.9082440944881891
0
LINE
8
BLACK
6
CONTINUOUS
10
5.3232440944881887
20
-3.9082440944881891
11
5.3232440944881887
21
-3.6084549212598422
0
LINE
8
BLACK
6
CONTINUOUS
10
5.3232440944881887
20
-3.6084549212598422
11
5.278545039370079
21
-3.5637559055118109
0
LINE
8
BLACK
6
CONTINUOUS
10
5.278545039370079
20
-3.5637559055118109
11
5.2100551181102359
21
-3.5637559055118109
0
LINE
8
BLACK
6
CONTINUOUS
10
5.2100551181102359
20
-3.5637559055118109
11
5.2093591338582677
21
-3.5634676377952754
0
LINE
8
BLACK
6
CONTINUOUS
10
5.2093591338582677
20
-3.5634676377952754
11
5.2090708661417322
21
-3.5627716535433072
0
LINE
8
BLACK
6
CONTINUOUS
10
5.2090708661417322
20
-3.5627716535433072
11
5.2090708661417322
21
-3.5302913385826771
0
LINE
8
BLACK
6
CONTINUOUS
10
5.2090708661417322
20
-3.5302913385826771
11
5.0929291338582674
21
-3.5302913385826771
0
LINE
8
BLACK
6
CONTINUOUS
10
4.8628583858267715
20
-3.7035510629921258
11
4.8761118110236223
21
-3.7066921653543305
0
LINE
8
BLACK
6
CONTINUOUS
10
4.8761118110236223
20
-3.7066921653543305
11
4.8889109055118105
21
-3.7113506692913383
0
LINE
8
BLACK
6
CONTINUOUS
10
4.8889109055118105
20
-3.7113506692913383
11
4.9010826771653546
21
-3.7174635433070864
0
LINE
8
BLACK
6
CONTINUOUS
10
4.9010826771653546
20
-3.7174635433070864
11
4.9124624803149608
21
-3.724948188976378
0
LINE
8
BLACK
6
CONTINUOUS
10
4.9124624803149608
20
-3.724948188976378
11
4.9228964173228347
21
-3.7337032677165354
0
LINE
8
BLACK
6
CONTINUOUS
10
4.9228964173228347
20
-3.7337032677165354
11
4.9322433858267711
21
-3.7436105118110237
0
LINE
8
BLACK
6
CONTINUOUS
10
4.9322433858267711
20
-3.7436105118110237
11
4.9403770078740159
21
-3.7545358661417323
0
LINE
8
BLACK
6
CONTINUOUS
10
4.9403770078740159
20
-3.7545358661417323
11
4.9471872834645669
21
-3.7663315748031496
0
LINE
8
BLACK
6
CONTINUOUS
10
4.9471872834645669
20
-3.7663315748031496
11
4.952582125984252
21
-3.778838188976378
0
LINE
8
BLACK
6
CONTINUOUS
10
4.952582125984252
20
-3.778838188976378
11
4.9564885039370079
21
-3.7918865354330706
0
LINE
8
BLACK
6
CONTINUOUS
10
4.9564885039370079
20
-3.7918865354330706
11
4.9588537007874018
21
-3.8053001574803149
0
LINE
8
BLACK
6
CONTINUOUS
10
4.9588537007874018
20
-3.8053001574803149
11
4.9596456692913389
21
-3.8188976377952755
0
LINE
8
BLACK
6
CONTINUOUS
10
4.9596456692913389
20
-3.8188976377952755
11
4.9588537007874018
21
-3.832495118110236
0
LINE
8
BLACK
6
CONTINUOUS
10
4.9588537007874018
20
-3.832495118110236
11
4.9564885039370079
21
-3.8459087401574803
0
LINE
8
BLACK
6
CONTINUOUS
10
4.9564885039370079
20
-3.8459087401574803
11
4.952582125984252
21
-3.8589570866141734
0
LINE
8
BLACK
6
CONTINUOUS
10
4.952582125984252
20
-3.8589570866141734
11
4.9471872834645669
21
-3.8714637007874013
0
LINE
8
BLACK
6
CONTINUOUS
10
4.9471872834645669
20
-3.8714637007874013
11
4.9403770078740159
21
-3.8832594094488186
0
LINE
8
BLACK
6
CONTINUOUS
10
4.9403770078740159
20
-3.8832594094488186
11
4.9322433858267711
21
-3.8941847637795273
0
LINE
8
BLACK
6
CONTINUOUS
10
4.9322433858267711
20
-3.8941847637795273
11
4.9228964173228347
21
-3.9040920078740156
0
LINE
8
BLACK
6
CONTINUOUS
10
4.9228964173228347
20
-3.9040920078740156
11
4.9124624803149608
21
-3.9128470866141734
0
LINE
8
BLACK
6
CONTINUOUS
10
4.9124624803149608
20
-3.9128470866141734
11
4.9010826771653546
21
-3.9203317322834645
0
LINE
8
BLACK
6
CONTINUOUS
10
4.9010826771653546
20
-3.9203317322834645
11
4.8889109055118105
21
-3.9264446062992127
0
LINE
8
BLACK
6
CONTINUOUS
10
4.8889109055118105
20
-3.9264446062992127
11
4.8761118110236223
21
-3.9311031102362204
0
LINE
8
BLACK
6
CONTINUOUS
10
4.8761118110236223
20
-3.9311031102362204
11
4.8628583858267715
21
-3.9342442125984252
0
LINE
8
BLACK
6
CONTINUOUS
10
4.8628583858267715
20
-3.9342442125984252
11
4.8493299606299214
21
-3.9358254724409449
0
LINE
8
BLACK
6
CONTINUOUS
10
4.8493299606299214
20
-3.9358254724409449
11
4.8357094094488184
21
-3.9358254724409449
0
LINE
8
BLACK
6
CONTINUOUS
10
4.8357094094488184
20
-3.9358254724409449
11
4.8221809842519683
21
-3.9342442125984252
0
LINE
8
BLACK
6
CONTINUOUS
10
4.8221809842519683
20
-3.9342442125984252
11
4.8089275590551184
21
-3.9311031102362204
0
LINE
8
BLACK
6
CONTINUOUS
10
4.8089275590551184
20
-3.9311031102362204
11
4.7961284645669293
21
-3.9264446062992127
0
LINE
8
BLACK
6
CONTINUOUS
10
4.7961284645669293
20
-3.9264446062992127
11
4.7839566929133861
21
-3.9203317322834645
0
LINE
8
BLACK
6
CONTINUOUS
10
4.7839566929133861
20
-3.9203317322834645
11
4.772576889763779
21
-3.9128470866141734
0
LINE
8
BLACK
6
CONTINUOUS
10
4.772576889763779
20
-3.9128470866141734
11
4.7621429527559052
21
-3.9040920078740156
0
LINE
8
BLACK
6
CONTINUOUS
10
4.7621429527559052
20
-3.9040920078740156
11
4.7527959842519687
21
-3.8941847637795273
0
LINE
8
BLACK
6
CONTINUOUS
10
4.7527959842519687
20
-3.8941847637795273
11
4.7446623622047239
21
-3.8832594094488186
0
LINE
8
BLACK
6
CONTINUOUS
10
4.7446623622047239
20
-3.8832594094488186
11
4.7378520866141729
21
-3.8714637007874013
0
LINE
8
BLACK
6
CONTINUOUS
10
4.7378520866141729
20
-3.8714637007874013
11
4.7324572440944879
21
-3.8589570866141734
0
LINE
8
BLACK
6
CONTINUOUS
10
4.7324572440944879
20
-3.8589570866141734
11
4.7285508661417319
21
-3.8459087401574803
0
LINE
8
BLACK
6
CONTINUOUS
10
4.7285508661417319
20
-3.8459087401574803
11
4.7261856692913389
21
-3.832495118110236
0
LINE
8
BLACK
6
CONTINUOUS
10
4.7261856692913389
20
-3.832495118110236
11
4.7253937007874018
21
-3.8188976377952755
0
LINE
8
BLACK
6
CONTINUOUS
10
4.7253937007874018
20
-3.8188976377952755
11
4.7261856692913389
21
-3.8053001574803149
0
LINE
8
BLACK
6
CONTINUOUS
10
4.7261856692913389
20
-3.8053001574803149
11
4.7285508661417319
21
-3.7918865354330706
0
LINE
8
BLACK
6
CONTINUOUS
10
4.7285508661417319
20
-3.7918865354330706
11
4.7324572440944879
21
-3.778838188976378
0
LINE
8
BLACK
6
CONTINUOUS
10
4.7324572440944879
20
-3.778838188976378
11
4.7378520866141729
21
-3.7663315748031496
0
LINE
8
BLACK
6
CONTINUOUS
10
4.7378520866141729
20
-3.7663315748031496
11
4.7446623622047239
21
-3.7545358661417323
0
LINE
8
BLACK
6
CONTINUOUS
10
4.7446623622047239
20
-3.7545358661417323
11
4.7527959842519687
21
-3.7436105118110237
0
LINE
8
BLACK
6
CONTINUOUS
10
4.7527959842519687
20
-3.7436105118110237
11
4.7621429527559052
21
-3.7337032677165354
0
LINE
8
BLACK
6
CONTINUOUS
10
4.7621429527559052
20
-3.7337032677165354
11
4.772576889763779
21
-3.724948188976378
0
LINE
8
BLACK
6
CONTINUOUS
10
4.772576889763779
20
-3.724948188976378
11
4.7839566929133861
21
-3.7174635433070864
0
LINE
8
BLACK
6
CONTINUOUS
10
4.7839566929133861
20
-3.7174635433070864
11
4.7961284645669293
21
-3.7113506692913383
0
LINE
8
BLACK
6
CONTINUOUS
10
4.7961284645669293
20
-3.7113506692913383
11
4.8089275590551184
21
-3.7066921653543305
0
LINE
8
BLACK
6
CONTINUOUS
10
4.8089275590551184
20
-3.7066921653543305
11
4.8221809842519683
21
-3.7035510629921258
0
LINE
8
BLACK
6
CONTINUOUS
10
4.8221809842519683
20
-3.7035510629921258
11
4.8357094094488184
21
-3.701969803149606
0
LINE
8
BLACK
6
CONTINUOUS
10
4.8357094094488184
20
-3.701969803149606
11
4.8493299606299214
21
-3.701969803149606
0
LINE
8
BLACK
6
CONTINUOUS
10
4.8493299606299214
20
-3.701969803149606
11
4.8628583858267715
21
-3.7035510629921258
0
LINE
8
BLACK
6
CONTINUOUS
10
4.7279470078740156
20
-3.8322892519685037
11
4.7302763779527561
21
-3.8454998031496062
0
LINE
8
BLACK
6
CONTINUOUS
10
4.7302763779527561
20
-3.8454998031496062
11
4.734123661417323
21
-3.8583505511811023
0
LINE
8
BLACK
6
CONTINUOUS
10
4.734123661417323
20
-3.8583505511811023
11
4.739436811023622
21
-3.8706677952755904
0
LINE
8
BLACK
6
CONTINUOUS
10
4.739436811023622
20
-3.8706677952755904
11
4.7461439763779527
21
-3.8822849606299212
0
LINE
8
BLACK
6
CONTINUOUS
10
4.7461439763779527
20
-3.8822849606299212
11
4.7541544488188974
21
-3.8930448818897636
0
LINE
8
BLACK
6
CONTINUOUS
10
4.7541544488188974
20
-3.8930448818897636
11
4.7633599212598421
21
-3.902802086614173
0
LINE
8
BLACK
6
CONTINUOUS
10
4.7633599212598421
20
-3.902802086614173
11
4.7736358661417322
21
-3.9114246456692912
0
LINE
8
BLACK
6
CONTINUOUS
10
4.7736358661417322
20
-3.9114246456692912
11
4.7848433464566931
21
-3.9187959448818899
0
LINE
8
BLACK
6
CONTINUOUS
10
4.7848433464566931
20
-3.9187959448818899
11
4.7968308267716537
21
-3.9248162992125981
0
LINE
8
BLACK
6
CONTINUOUS
10
4.7968308267716537
20
-3.9248162992125981
11
4.8094361811023623
21
-3.9294042519685037
0
LINE
8
BLACK
6
CONTINUOUS
10
4.8094361811023623
20
-3.9294042519685037
11
4.8224888976377951
21
-3.9324977952755904
0
LINE
8
BLACK
6
CONTINUOUS
10
4.8224888976377951
20
-3.9324977952755904
11
4.8358125196850397
21
-3.9340551181102361
0
LINE
8
BLACK
6
CONTINUOUS
10
4.8358125196850397
20
-3.9340551181102361
11
4.849226850393701
21
-3.9340551181102361
0
LINE
8
BLACK
6
CONTINUOUS
10
4.849226850393701
20
-3.9340551181102361
11
4.8625504724409447
21
-3.9324977952755904
0
LINE
8
BLACK
6
CONTINUOUS
10
4.8625504724409447
20
-3.9324977952755904
11
4.8756031889763776
21
-3.9294042519685037
0
LINE
8
BLACK
6
CONTINUOUS
10
4.8756031889763776
20
-3.9294042519685037
11
4.8882085433070861
21
-3.9248162992125981
0
LINE
8
BLACK
6
CONTINUOUS
10
4.8882085433070861
20
-3.9248162992125981
11
4.9001960236220468
21
-3.9187959448818899
0
LINE
8
BLACK
6
CONTINUOUS
10
4.9001960236220468
20
-3.9187959448818899
11
4.9114035039370076
21
-3.9114246456692912
0
LINE
8
BLACK
6
CONTINUOUS
10
4.9114035039370076
20
-3.9114246456692912
11
4.9216794488188977
21
-3.902802086614173
0
LINE
8
BLACK
6
CONTINUOUS
10
4.9216794488188977
20
-3.902802086614173
11
4.9308849212598425
21
-3.8930448818897636
0
LINE
8
BLACK
6
CONTINUOUS
10
4.9308849212598425
20
-3.8930448818897636
11
4.9388953937007871
21
-3.8822849606299212
0
LINE
8
BLACK
6
CONTINUOUS
10
4.9388953937007871
20
-3.8822849606299212
11
4.9456025590551178
21
-3.8706677952755904
0
LINE
8
BLACK
6
CONTINUOUS
10
4.9456025590551178
20
-3.8706677952755904
11
4.9509157086614168
21
-3.8583505511811023
0
LINE
8
BLACK
6
CONTINUOUS
10
4.9509157086614168
20
-3.8583505511811023
11
4.9547629921259837
21
-3.8454998031496062
0
LINE
8
BLACK
6
CONTINUOUS
10
4.9547629921259837
20
-3.8454998031496062
11
4.9570923622047243
21
-3.8322892519685037
0
LINE
8
BLACK
6
CONTINUOUS
10
4.9570923622047243
20
-3.8322892519685037
11
4.9578723228346453
21
-3.8188976377952755
0
LINE
8
BLACK
6
CONTINUOUS
10
4.9578723228346453
20
-3.8188976377952755
11
4.9570923622047243
21
-3.8055060236220473
0
LINE
8
BLACK
6
CONTINUOUS
10
4.9570923622047243
20
-3.8055060236220473
11
4.9547629921259837
21
-3.7922954724409448
0
LINE
8
BLACK
6
CONTINUOUS
10
4.9547629921259837
20
-3.7922954724409448
11
4.9509157086614168
21
-3.7794447244094487
0
LINE
8
BLACK
6
CONTINUOUS
10
4.9509157086614168
20
-3.7794447244094487
11
4.9456025590551178
21
-3.7671274803149606
0
LINE
8
BLACK
6
CONTINUOUS
10
4.9456025590551178
20
-3.7671274803149606
11
4.9388953937007871
21
-3.7555103149606297
0
LINE
8
BLACK
6
CONTINUOUS
10
4.9388953937007871
20
-3.7555103149606297
11
4.9308849212598425
21
-3.7447503937007873
0
LINE
8
BLACK
6
CONTINUOUS
10
4.9308849212598425
20
-3.7447503937007873
11
4.9216794488188977
21
-3.7349931889763779
0
LINE
8
BLACK
6
CONTINUOUS
10
4.9216794488188977
20
-3.7349931889763779
11
4.9114035039370076
21
-3.7263706299212598
0
LINE
8
BLACK
6
CONTINUOUS
10
4.9114035039370076
20
-3.7263706299212598
11
4.9001960236220468
21
-3.7189993307086615
0
LINE
8
BLACK
6
CONTINUOUS
10
4.9001960236220468
20
-3.7189993307086615
11
4.8882085433070861
21
-3.7129789763779528
0
LINE
8
BLACK
6
CONTINUOUS
10
4.8882085433070861
20
-3.7129789763779528
11
4.8756031889763776
21
-3.7083910236220472
0
LINE
8
BLACK
6
CONTINUOUS
10
4.8756031889763776
20
-3.7083910236220472
11
4.8625504724409447
21
-3.7052974803149605
0
LINE
8
BLACK
6
CONTINUOUS
10
4.8625504724409447
20
-3.7052974803149605
11
4.849226850393701
21
-3.7037401574803148
0
LINE
8
BLACK
6
CONTINUOUS
10
4.849226850393701
20
-3.7037401574803148
11
4.8358125196850397
21
-3.7037401574803148
0
LINE
8
BLACK
6
CONTINUOUS
10
4.8358125196850397
20
-3.7037401574803148
11
4.8224888976377951
21
-3.7052974803149605
0
LINE
8
BLACK
6
CONTINUOUS
10
4.8224888976377951
20
-3.7052974803149605
11
4.8094361811023623
21
-3.7083910236220472
0
LINE
8
BLACK
6
CONTINUOUS
10
4.8094361811023623
20
-3.7083910236220472
11
4.7968308267716537
21
-3.7129789763779528
0
LINE
8
BLACK
6
CONTINUOUS
10
4.7968308267716537
20
-3.7129789763779528
11
4.7848433464566931
21
-3.7189993307086615
0
LINE
8
BLACK
6
CONTINUOUS
10
4.7848433464566931
20
-3.7189993307086615
11
4.7736358661417322
21
-3.7263706299212598
0
LINE
8
BLACK
6
CONTINUOUS
10
4.7736358661417322
20
-3.7263706299212598
11
4.7633599212598421
21
-3.7349931889763779
0
LINE
8
BLACK
6
CONTINUOUS
10
4.7633599212598421
20
-3.7349931889763779
11
4.7541544488188974
21
-3.7447503937007873
0
LINE
8
BLACK
6
CONTINUOUS
10
4.7541544488188974
20
-3.7447503937007873
11
4.7461439763779527
21
-3.7555103149606297
0
LINE
8
BLACK
6
CONTINUOUS
10
4.7461439763779527
20
-3.7555103149606297
11
4.739436811023622
21
-3.7671274803149606
0
LINE
8
BLACK
6
CONTINUOUS
10
4.739436811023622
20
-3.7671274803149606
11
4.734123661417323
21
-3.7794447244094487
0
LINE
8
BLACK
6
CONTINUOUS
10
4.734123661417323
20
-3.7794447244094487
11
4.7302763779527561
21
-3.7922954724409448
0
LINE
8
BLACK
6
CONTINUOUS
10
4.7302763779527561
20
-3.7922954724409448
11
4.7279470078740156
21
-3.8055060236220473
0
LINE
8
BLACK
6
CONTINUOUS
10
4.7279470078740156
20
-3.8055060236220473
11
4.7271670472440945
21
-3.8188976377952755
0
LINE
8
BLACK
6
CONTINUOUS
10
4.7271670472440945
20
-3.8188976377952755
11
4.7279470078740156
21
-3.8322892519685037
0
LINE
8
BLACK
6
CONTINUOUS
10
6.9888426377952753
20
-3.7035510629921258
11
7.0020960629921261
21
-3.7066921653543305
0
LINE
8
BLACK
6
CONTINUOUS
10
7.0020960629921261
20
-3.7066921653543305
11
7.0148951574803151
21
-3.7113506692913383
0
LINE
8
BLACK
6
CONTINUOUS
10
7.0148951574803151
20
-3.7113506692913383
11
7.0270669291338583
21
-3.7174635433070864
0
LINE
8
BLACK
6
CONTINUOUS
10
7.0270669291338583
20
-3.7174635433070864
11
7.0384467322834645
21
-3.724948188976378
0
LINE
8
BLACK
6
CONTINUOUS
10
7.0384467322834645
20
-3.724948188976378
11
7.0488806692913384
21
-3.7337032677165354
0
LINE
8
BLACK
6
CONTINUOUS
10
7.0488806692913384
20
-3.7337032677165354
11
7.0582276377952757
21
-3.7436105118110237
0
LINE
8
BLACK
6
CONTINUOUS
10
7.0582276377952757
20
-3.7436105118110237
11
7.0663612598425196
21
-3.7545358661417323
0
LINE
8
BLACK
6
CONTINUOUS
10
7.0663612598425196
20
-3.7545358661417323
11
7.0731715354330706
21
-3.7663315748031496
0
LINE
8
BLACK
6
CONTINUOUS
10
7.0731715354330706
20
-3.7663315748031496
11
7.0785663779527557
21
-3.778838188976378
0
LINE
8
BLACK
6
CONTINUOUS
10
7.0785663779527557
20
-3.778838188976378
11
7.0824727559055116
21
-3.7918865354330706
0
LINE
8
BLACK
6
CONTINUOUS
10
7.0824727559055116
20
-3.7918865354330706
11
7.0848379527559056
21
-3.8053001574803149
0
LINE
8
BLACK
6
CONTINUOUS
10
7.0848379527559056
20
-3.8053001574803149
11
7.0856299212598426
21
-3.8188976377952755
0
LINE
8
BLACK
6
CONTINUOUS
10
7.0856299212598426
20
-3.8188976377952755
11
7.0848379527559056
21
-3.832495118110236
0
LINE
8
BLACK
6
CONTINUOUS
10
7.0848379527559056
20
-3.832495118110236
11
7.0824727559055116
21
-3.8459087401574803
0
LINE
8
BLACK
6
CONTINUOUS
10
7.0824727559055116
20
-3.8459087401574803
11
7.0785663779527557
21
-3.8589570866141734
0
LINE
8
BLACK
6
CONTINUOUS
10
7.0785663779527557
20
-3.8589570866141734
11
7.0731715354330706
21
-3.8714637007874013
0
LINE
8
BLACK
6
CONTINUOUS
10
7.0731715354330706
20
-3.8714637007874013
11
7.0663612598425196
21
-3.8832594094488186
0
LINE
8
BLACK
6
CONTINUOUS
10
7.0663612598425196
20
-3.8832594094488186
11
7.0582276377952757
21
-3.8941847637795273
0
LINE
8
BLACK
6
CONTINUOUS
10
7.0582276377952757
20
-3.8941847637795273
11
7.0488806692913384
21
-3.9040920078740156
0
LINE
8
BLACK
6
CONTINUOUS
10
7.0488806692913384
20
-3.9040920078740156
11
7.0384467322834645
21
-3.9128470866141734
0
LINE
8
BLACK
6
CONTINUOUS
10
7.0384467322834645
20
-3.9128470866141734
11
7.0270669291338583
21
-3.9203317322834645
0
LINE
8
BLACK
6
CONTINUOUS
10
7.0270669291338583
20
-3.9203317322834645
11
7.0148951574803151
21
-3.9264446062992127
0
LINE
8
BLACK
6
CONTINUOUS
10
7.0148951574803151
20
-3.9264446062992127
11
7.0020960629921261
21
-3.9311031102362204
0
LINE
8
BLACK
6
CONTINUOUS
10
7.0020960629921261
20
-3.9311031102362204
11
6.9888426377952753
21
-3.9342442125984252
0
LINE
8
BLACK
6
CONTINUOUS
10
6.9888426377952753
20
-3.9342442125984252
11
6.9753142125984251
21
-3.9358254724409449
0
LINE
8
BLACK
6
CONTINUOUS
10
6.9753142125984251
20
-3.9358254724409449
11
6.961693661417323
21
-3.9358254724409449
0
LINE
8
BLACK
6
CONTINUOUS
10
6.961693661417323
20
-3.9358254724409449
11
6.948165236220472
21
-3.9342442125984252
0
LINE
8
BLACK
6
CONTINUOUS
10
6.948165236220472
20
-3.9342442125984252
11
6.9349118110236221
21
-3.9311031102362204
0
LINE
8
BLACK
6
CONTINUOUS
10
6.9349118110236221
20
-3.9311031102362204
11
6.922112716535433
21
-3.9264446062992127
0
LINE
8
BLACK
6
CONTINUOUS
10
6.922112716535433
20
-3.9264446062992127
11
6.9099409448818898
21
-3.9203317322834645
0
LINE
8
BLACK
6
CONTINUOUS
10
6.9099409448818898
20
-3.9203317322834645
11
6.8985611417322836
21
-3.9128470866141734
0
LINE
8
BLACK
6
CONTINUOUS
10
6.8985611417322836
20
-3.9128470866141734
11
6.8881272047244089
21
-3.9040920078740156
0
LINE
8
BLACK
6
CONTINUOUS
10
6.8881272047244089
20
-3.9040920078740156
11
6.8787802362204724
21
-3.8941847637795273
0
LINE
8
BLACK
6
CONTINUOUS
10
6.8787802362204724
20
-3.8941847637795273
11
6.8706466141732285
21
-3.8832594094488186
0
LINE
8
BLACK
6
CONTINUOUS
10
6.8706466141732285
20
-3.8832594094488186
11
6.8638363385826766
21
-3.8714637007874013
0
LINE
8
BLACK
6
CONTINUOUS
10
6.8638363385826766
20
-3.8714637007874013
11
6.8584414960629916
21
-3.8589570866141734
0
LINE
8
BLACK
6
CONTINUOUS
10
6.8584414960629916
20
-3.8589570866141734
11
6.8545351181102356
21
-3.8459087401574803
0
LINE
8
BLACK
6
CONTINUOUS
10
6.8545351181102356
20
-3.8459087401574803
11
6.8521699212598426
21
-3.832495118110236
0
LINE
8
BLACK
6
CONTINUOUS
10
6.8521699212598426
20
-3.832495118110236
11
6.8513779527559056
21
-3.8188976377952755
0
LINE
8
BLACK
6
CONTINUOUS
10
6.8513779527559056
20
-3.8188976377952755
11
6.8521699212598426
21
-3.8053001574803149
0
LINE
8
BLACK
6
CONTINUOUS
10
6.8521699212598426
20
-3.8053001574803149
11
6.8545351181102356
21
-3.7918865354330706
0
LINE
8
BLACK
6
CONTINUOUS
10
6.8545351181102356
20
-3.7918865354330706
11
6.8584414960629916
21
-3.778838188976378
0
LINE
8
BLACK
6
CONTINUOUS
10
6.8584414960629916
20
-3.778838188976378
11
6.8638363385826766
21
-3.7663315748031496
0
LINE
8
BLACK
6
CONTINUOUS
10
6.8638363385826766
20
-3.7663315748031496
11
6.8706466141732285
21
-3.7545358661417323
0
LINE
8
BLACK
6
CONTINUOUS
10
6.8706466141732285
20
-3.7545358661417323
11
6.8787802362204724
21
-3.7436105118110237
0
LINE
8
BLACK
6
CONTINUOUS
10
6.8787802362204724
20
-3.7436105118110237
11
6.8881272047244089
21
-3.7337032677165354
0
LINE
8
BLACK
6
CONTINUOUS
10
6.8881272047244089
20
-3.7337032677165354
11
6.8985611417322836
21
-3.724948188976378
0
LINE
8
BLACK
6
CONTINUOUS
10
6.8985611417322836
20
-3.724948188976378
11
6.9099409448818898
21
-3.7174635433070864
0
LINE
8
BLACK
6
CONTINUOUS
10
6.9099409448818898
20
-3.7174635433070864
11
6.922112716535433
21
-3.7113506692913383
0
LINE
8
BLACK
6
CONTINUOUS
10
6.922112716535433
20
-3.7113506692913383
11
6.9349118110236221
21
-3.7066921653543305
0
LINE
8
BLACK
6
CONTINUOUS
10
6.9349118110236221
20
-3.7066921653543305
11
6.948165236220472
21
-3.7035510629921258
0
LINE
8
BLACK
6
CONTINUOUS
10
6.948165236220472
20
-3.7035510629921258
11
6.961693661417323
21
-3.701969803149606
0
LINE
8
BLACK
6
CONTINUOUS
10
6.961693661417323
20
-3.701969803149606
11
6.9753142125984251
21
-3.701969803149606
0
LINE
8
BLACK
6
CONTINUOUS
10
6.9753142125984251
20
-3.701969803149606
11
6.9888426377952753
21
-3.7035510629921258
0
LINE
8
BLACK
6
CONTINUOUS
10
6.8539312598425193
20
-3.8322892519685037
11
6.8562606299212598
21
-3.8454998031496062
0
LINE
8
BLACK
6
CONTINUOUS
10
6.8562606299212598
20
-3.8454998031496062
11
6.8601079133858267
21
-3.8583505511811023
0
LINE
8
BLACK
6
CONTINUOUS
10
6.8601079133858267
20
-3.8583505511811023
11
6.8654210629921257
21
-3.8706677952755904
0
LINE
8
BLACK
6
CONTINUOUS
10
6.8654210629921257
20
-3.8706677952755904
11
6.8721282283464564
21
-3.8822849606299212
0
LINE
8
BLACK
6
CONTINUOUS
10
6.8721282283464564
20
-3.8822849606299212
11
6.8801387007874011
21
-3.8930448818897636
0
LINE
8
BLACK
6
CONTINUOUS
10
6.8801387007874011
20
-3.8930448818897636
11
6.8893441732283467
21
-3.902802086614173
0
LINE
8
BLACK
6
CONTINUOUS
10
6.8893441732283467
20
-3.902802086614173
11
6.8996201181102359
21
-3.9114246456692912
0
LINE
8
BLACK
6
CONTINUOUS
10
6.8996201181102359
20
-3.9114246456692912
11
6.9108275984251968
21
-3.9187959448818899
0
LINE
8
BLACK
6
CONTINUOUS
10
6.9108275984251968
20
-3.9187959448818899
11
6.9228150787401574
21
-3.9248162992125981
0
LINE
8
BLACK
6
CONTINUOUS
10
6.9228150787401574
20
-3.9248162992125981
11
6.935420433070866
21
-3.9294042519685037
0
LINE
8
BLACK
6
CONTINUOUS
10
6.935420433070866
20
-3.9294042519685037
11
6.9484731496062988
21
-3.9324977952755904
0
LINE
8
BLACK
6
CONTINUOUS
10
6.9484731496062988
20
-3.9324977952755904
11
6.9617967716535434
21
-3.9340551181102361
0
LINE
8
BLACK
6
CONTINUOUS
10
6.9617967716535434
20
-3.9340551181102361
11
6.9752111023622048
21
-3.9340551181102361
0
LINE
8
BLACK
6
CONTINUOUS
10
6.9752111023622048
20
-3.9340551181102361
11
6.9885347244094485
21
-3.9324977952755904
0
LINE
8
BLACK
6
CONTINUOUS
10
6.9885347244094485
20
-3.9324977952755904
11
7.0015874409448822
21
-3.9294042519685037
0
LINE
8
BLACK
6
CONTINUOUS
10
7.0015874409448822
20
-3.9294042519685037
11
7.0141927952755907
21
-3.9248162992125981
0
LINE
8
BLACK
6
CONTINUOUS
10
7.0141927952755907
20
-3.9248162992125981
11
7.0261802755905514
21
-3.9187959448818899
0
LINE
8
BLACK
6
CONTINUOUS
10
7.0261802755905514
20
-3.9187959448818899
11
7.0373877559055114
21
-3.9114246456692912
0
LINE
8
BLACK
6
CONTINUOUS
10
7.0373877559055114
20
-3.9114246456692912
11
7.0476637007874015
21
-3.902802086614173
0
LINE
8
BLACK
6
CONTINUOUS
10
7.0476637007874015
20
-3.902802086614173
11
7.0568691732283462
21
-3.8930448818897636
0
LINE
8
BLACK
6
CONTINUOUS
10
7.0568691732283462
20
-3.8930448818897636
11
7.0648796456692908
21
-3.8822849606299212
0
LINE
8
BLACK
6
CONTINUOUS
10
7.0648796456692908
20
-3.8822849606299212
11
7.0715868110236215
21
-3.8706677952755904
0
LINE
8
BLACK
6
CONTINUOUS
10
7.0715868110236215
20
-3.8706677952755904
11
7.0768999606299214
21
-3.8583505511811023
0
LINE
8
BLACK
6
CONTINUOUS
10
7.0768999606299214
20
-3.8583505511811023
11
7.0807472440944883
21
-3.8454998031496062
0
LINE
8
BLACK
6
CONTINUOUS
10
7.0807472440944883
20
-3.8454998031496062
11
7.083076614173228
21
-3.8322892519685037
0
LINE
8
BLACK
6
CONTINUOUS
10
7.083076614173228
20
-3.8322892519685037
11
7.083856574803149
21
-3.8188976377952755
0
LINE
8
BLACK
6
CONTINUOUS
10
7.083856574803149
20
-3.8188976377952755
11
7.083076614173228
21
-3.8055060236220473
0
LINE
8
BLACK
6
CONTINUOUS
10
7.083076614173228
20
-3.8055060236220473
11
7.0807472440944883
21
-3.7922954724409448
0
LINE
8
BLACK
6
CONTINUOUS
10
7.0807472440944883
20
-3.7922954724409448
11
7.0768999606299214
21
-3.7794447244094487
0
LINE
8
BLACK
6
CONTINUOUS
10
7.0768999606299214
20
-3.7794447244094487
11
7.0715868110236215
21
-3.7671274803149606
0
LINE
8
BLACK
6
CONTINUOUS
10
7.0715868110236215
20
-3.7671274803149606
11
7.0648796456692908
21
-3.7555103149606297
0
LINE
8
BLACK
6
CONTINUOUS
10
7.0648796456692908
20
-3.7555103149606297
11
7.0568691732283462
21
-3.7447503937007873
0
LINE
8
BLACK
6
CONTINUOUS
10
7.0568691732283462
20
-3.7447503937007873
11
7.0476637007874015
21
-3.7349931889763779
0
LINE
8
BLACK
6
CONTINUOUS
10
7.0476637007874015
20
-3.7349931889763779
11
7.0373877559055114
21
-3.7263706299212598
0
LINE
8
BLACK
6
CONTINUOUS
10
7.0373877559055114
20
-3.7263706299212598
11
7.0261802755905514
21
-3.7189993307086615
0
LINE
8
BLACK
6
CONTINUOUS
10
7.0261802755905514
20
-3.7189993307086615
11
7.0141927952755907
21
-3.7129789763779528
0
LINE
8
BLACK
6
CONTINUOUS
10
7.0141927952755907
20
-3.7129789763779528
11
7.0015874409448822
21
-3.7083910236220472
0
LINE
8
BLACK
6
CONTINUOUS
10
7.0015874409448822
20
-3.7083910236220472
11
6.9885347244094485
21
-3.7052974803149605
0
LINE
8
BLACK
6
CONTINUOUS
10
6.9885347244094485
20
-3.7052974803149605
11
6.9752111023622048
21
-3.7037401574803148
0
LINE
8
BLACK
6
CONTINUOUS
10
6.9752111023622048
20
-3.7037401574803148
11
6.9617967716535434
21
-3.7037401574803148
0
LINE
8
BLACK
6
CONTINUOUS
10
6.9617967716535434
20
-3.7037401574803148
11
6.9484731496062988
21
-3.7052974803149605
0
LINE
8
BLACK
6
CONTINUOUS
10
6.9484731496062988
20
-3.7052974803149605
11
6.935420433070866
21
-3.7083910236220472
0
LINE
8
BLACK
6
CONTINUOUS
10
6.935420433070866
20
-3.7083910236220472
11
6.9228150787401574
21
-3.7129789763779528
0
LINE
8
BLACK
6
CONTINUOUS
10
6.9228150787401574
20
-3.7129789763779528
11
6.9108275984251968
21
-3.7189993307086615
0
LINE
8
BLACK
6
CONTINUOUS
10
6.9108275984251968
20
-3.7189993307086615
11
6.8996201181102359
21
-3.7263706299212598
0
LINE
8
BLACK
6
CONTINUOUS
10
6.8996201181102359
20
-3.7263706299212598
11
6.8893441732283467
21
-3.7349931889763779
0
LINE
8
BLACK
6
CONTINUOUS
10
6.8893441732283467
20
-3.7349931889763779
11
6.8801387007874011
21
-3.7447503937007873
0
LINE
8
BLACK
6
CONTINUOUS
10
6.8801387007874011
20
-3.7447503937007873
11
6.8721282283464564
21
-3.7555103149606297
0
LINE
8
BLACK
6
CONTINUOUS
10
6.8721282283464564
20
-3.7555103149606297
11
6.8654210629921257
21
-3.7671274803149606
0
LINE
8
BLACK
6
CONTINUOUS
10
6.8654210629921257
20
-3.7671274803149606
11
6.8601079133858267
21
-3.7794447244094487
0
LINE
8
BLACK
6
CONTINUOUS
10
6.8601079133858267
20
-3.7794447244094487
11
6.8562606299212598
21
-3.7922954724409448
0
LINE
8
BLACK
6
CONTINUOUS
10
6.8562606299212598
20
-3.7922954724409448
11
6.8539312598425193
21
-3.8055060236220473
0
LINE
8
BLACK
6
CONTINUOUS
10
6.8539312598425193
20
-3.8055060236220473
11
6.8531512992125982
21
-3.8188976377952755
0
LINE
8
BLACK
6
CONTINUOUS
10
6.8531512992125982
20
-3.8188976377952755
11
6.8539312598425193
21
-3.8322892519685037
0
LINE
8
BLACK
6
CONTINUOUS
10
6.1512598425196847
20
-3.6781496062992125
11
6.151955826771653
21
-3.678437874015748
0
LINE
8
BLACK
6
CONTINUOUS
10
6.151955826771653
20
-3.678437874015748
11
6.1522440944881884
21
-3.6791338582677167
0
LINE
8
BLACK
6
CONTINUOUS
10
6.1522440944881884
20
-3.6791338582677167
11
6.1522440944881884
21
-3.9212598425196847
0
LINE
8
BLACK
6
CONTINUOUS
10
6.1522440944881884
20
-3.9212598425196847
11
6.151955826771653
21
-3.9219558267716534
0
LINE
8
BLACK
6
CONTINUOUS
10
6.151955826771653
20
-3.9219558267716534
11
6.1512598425196847
21
-3.9222440944881889
0
LINE
8
BLACK
6
CONTINUOUS
10
6.1512598425196847
20
-3.9222440944881889
11
5.9091338582677162
21
-3.9222440944881889
0
LINE
8
BLACK
6
CONTINUOUS
10
5.9091338582677162
20
-3.9222440944881889
11
5.9084378740157479
21
-3.9219558267716534
0
LINE
8
BLACK
6
CONTINUOUS
10
5.9084378740157479
20
-3.9219558267716534
11
5.9081496062992125
21
-3.9212598425196847
0
LINE
8
BLACK
6
CONTINUOUS
10
5.9081496062992125
20
-3.9212598425196847
11
5.9081496062992125
21
-3.6791338582677167
0
LINE
8
BLACK
6
CONTINUOUS
10
5.9081496062992125
20
-3.6791338582677167
11
5.9084378740157479
21
-3.678437874015748
0
LINE
8
BLACK
6
CONTINUOUS
10
5.9084378740157479
20
-3.678437874015748
11
5.9091338582677162
21
-3.6781496062992125
0
LINE
8
BLACK
6
CONTINUOUS
10
5.9091338582677162
20
-3.6781496062992125
11
6.1512598425196847
21
-3.6781496062992125
0
LINE
8
BLACK
6
CONTINUOUS
10
5.9101181102362199
20
-3.6801181102362204
11
5.9101181102362199
21
-3.920275590551181
0
LINE
8
BLACK
6
CONTINUOUS
10
5.9101181102362199
20
-3.920275590551181
11
6.150275590551181
21
-3.920275590551181
0
LINE
8
BLACK
6
CONTINUOUS
10
6.150275590551181
20
-3.920275590551181
11
6.150275590551181
21
-3.6801181102362204
0
LINE
8
BLACK
6
CONTINUOUS
10
6.150275590551181
20
-3.6801181102362204
11
5.9101181102362199
21
-3.6801181102362204
0
LINE
8
BLACK
6
CONTINUOUS
10
5.8256850393700788
20
-3.6767559055118109
11
5.826381023622047
21
-3.6770441732283463
0
LINE
8
BLACK
6
CONTINUOUS
10
5.826381023622047
20
-3.6770441732283463
11
5.8266692913385825
21
-3.677740157480315
0
LINE
8
BLACK
6
CONTINUOUS
10
5.8266692913385825
20
-3.677740157480315
11
5.8266692913385825
21
-3.9198661417322835
0
LINE
8
BLACK
6
CONTINUOUS
10
5.8266692913385825
20
-3.9198661417322835
11
5.826381023622047
21
-3.9205621259842518
0
LINE
8
BLACK
6
CONTINUOUS
10
5.826381023622047
20
-3.9205621259842518
11
5.8256850393700788
21
-3.9208503937007873
0
LINE
8
BLACK
6
CONTINUOUS
10
5.8256850393700788
20
-3.9208503937007873
11
5.4851338582677167
21
-3.9208503937007873
0
LINE
8
BLACK
6
CONTINUOUS
10
5.4851338582677167
20
-3.9208503937007873
11
5.4844378740157476
21
-3.9205621259842518
0
LINE
8
BLACK
6
CONTINUOUS
10
5.4844378740157476
20
-3.9205621259842518
11
5.4841496062992121
21
-3.9198661417322835
0
LINE
8
BLACK
6
CONTINUOUS
10
5.4841496062992121
20
-3.9198661417322835
11
5.4841496062992121
21
-3.677740157480315
0
LINE
8
BLACK
6
CONTINUOUS
10
5.4841496062992121
20
-3.677740157480315
11
5.4844378740157476
21
-3.6770441732283463
0
LINE
8
BLACK
6
CONTINUOUS
10
5.4844378740157476
20
-3.6770441732283463
11
5.4851338582677167
21
-3.6767559055118109
0
LINE
8
BLACK
6
CONTINUOUS
10
5.4851338582677167
20
-3.6767559055118109
11
5.8256850393700788
21
-3.6767559055118109
0
LINE
8
BLACK
6
CONTINUOUS
10
5.4861181102362204
20
-3.6787244094488187
11
5.4861181102362204
21
-3.9188818897637794
0
LINE
8
BLACK
6
CONTINUOUS
10
5.4861181102362204
20
-3.9188818897637794
11
5.824700787401575
21
-3.9188818897637794
0
LINE
8
BLACK
6
CONTINUOUS
10
5.824700787401575
20
-3.9188818897637794
11
5.824700787401575
21
-3.6787244094488187
0
LINE
8
BLACK
6
CONTINUOUS
10
5.824700787401575
20
-3.6787244094488187
11
5.4861181102362204
21
-3.6787244094488187
0
LINE
8
BLACK
6
CONTINUOUS
10
5.4098727559055115
20
-3.8254210629921257
11
5.4174429527559056
21
-3.8277174409448818
0
LINE
8
BLACK
6
CONTINUOUS
10
5.4174429527559056
20
-3.8277174409448818
11
5.4244196456692908
21
-3.8314466141732284
0
LINE
8
BLACK
6
CONTINUOUS
10
5.4244196456692908
20
-3.8314466141732284
11
5.4305348031496061
21
-3.8364651968503938
0
LINE
8
BLACK
6
CONTINUOUS
10
5.4305348031496061
20
-3.8364651968503938
11
5.4355533858267719
21
-3.8425803543307087
0
LINE
8
BLACK
6
CONTINUOUS
10
5.4355533858267719
20
-3.8425803543307087
11
5.4392825590551181
21
-3.8495570472440943
0
LINE
8
BLACK
6
CONTINUOUS
10
5.4392825590551181
20
-3.8495570472440943
11
5.4415789370078738
21
-3.8571272440944879
0
LINE
8
BLACK
6
CONTINUOUS
10
5.4415789370078738
20
-3.8571272440944879
11
5.4423543307086613
21
-3.8649999999999998
0
LINE
8
BLACK
6
CONTINUOUS
10
5.4423543307086613
20
-3.8649999999999998
11
5.4415789370078738
21
-3.8728727559055116
0
LINE
8
BLACK
6
CONTINUOUS
10
5.4415789370078738
20
-3.8728727559055116
11
5.4392825590551181
21
-3.8804429527559052
0
LINE
8
BLACK
6
CONTINUOUS
10
5.4392825590551181
20
-3.8804429527559052
11
5.4355533858267719
21
-3.8874196456692913
0
LINE
8
BLACK
6
CONTINUOUS
10
5.4355533858267719
20
-3.8874196456692913
11
5.4305348031496061
21
-3.8935348031496062
0
LINE
8
BLACK
6
CONTINUOUS
10
5.4305348031496061
20
-3.8935348031496062
11
5.4244196456692908
21
-3.8985533858267716
0
LINE
8
BLACK
6
CONTINUOUS
10
5.4244196456692908
20
-3.8985533858267716
11
5.4174429527559056
21
-3.9022825590551182
0
LINE
8
BLACK
6
CONTINUOUS
10
5.4174429527559056
20
-3.9022825590551182
11
5.4098727559055115
21
-3.9045789370078738
0
LINE
8
BLACK
6
CONTINUOUS
10
5.4098727559055115
20
-3.9045789370078738
11
5.4020000000000001
21
-3.9053543307086613
0
LINE
8
BLACK
6
CONTINUOUS
10
5.4020000000000001
20
-3.9053543307086613
11
5.3941272440944878
21
-3.9045789370078738
0
LINE
8
BLACK
6
CONTINUOUS
10
5.3941272440944878
20
-3.9045789370078738
11
5.3865570472440947
21
-3.9022825590551182
0
LINE
8
BLACK
6
CONTINUOUS
10
5.3865570472440947
20
-3.9022825590551182
11
5.3795803543307086
21
-3.8985533858267716
0
LINE
8
BLACK
6
CONTINUOUS
10
5.3795803543307086
20
-3.8985533858267716
11
5.3734651968503933
21
-3.8935348031496062
0
LINE
8
BLACK
6
CONTINUOUS
10
5.3734651968503933
20
-3.8935348031496062
11
5.3684466141732283
21
-3.8874196456692913
0
LINE
8
BLACK
6
CONTINUOUS
10
5.3684466141732283
20
-3.8874196456692913
11
5.3647174409448821
21
-3.8804429527559052
0
LINE
8
BLACK
6
CONTINUOUS
10
5.3647174409448821
20
-3.8804429527559052
11
5.3624210629921256
21
-3.8728727559055116
0
LINE
8
BLACK
6
CONTINUOUS
10
5.3624210629921256
20
-3.8728727559055116
11
5.3616456692913381
21
-3.8649999999999998
0
LINE
8
BLACK
6
CONTINUOUS
10
5.3616456692913381
20
-3.8649999999999998
11
5.3624210629921256
21
-3.8571272440944879
0
LINE
8
BLACK
6
CONTINUOUS
10
5.3624210629921256
20
-3.8571272440944879
11
5.3647174409448821
21
-3.8495570472440943
0
LINE
8
BLACK
6
CONTINUOUS
10
5.3647174409448821
20
-3.8495570472440943
11
5.3684466141732283
21
-3.8425803543307087
0
LINE
8
BLACK
6
CONTINUOUS
10
5.3684466141732283
20
-3.8425803543307087
11
5.3734651968503933
21
-3.8364651968503938
0
LINE
8
BLACK
6
CONTINUOUS
10
5.3734651968503933
20
-3.8364651968503938
11
5.3795803543307086
21
-3.8314466141732284
0
LINE
8
BLACK
6
CONTINUOUS
10
5.3795803543307086
20
-3.8314466141732284
11
5.3865570472440947
21
-3.8277174409448818
0
LINE
8
BLACK
6
CONTINUOUS
10
5.3865570472440947
20
-3.8277174409448818
11
5.3941272440944878
21
-3.8254210629921257
0
LINE
8
BLACK
6
CONTINUOUS
10
5.3941272440944878
20
-3.8254210629921257
11
5.4020000000000001
21
-3.8246456692913386
0
LINE
8
BLACK
6
CONTINUOUS
10
5.4020000000000001
20
-3.8246456692913386
11
5.4098727559055115
21
-3.8254210629921257
0
LINE
8
BLACK
6
CONTINUOUS
10
5.3641695669291334
20
-3.8725249606299212
11
5.366364527559055
21
-3.8797607086614172
0
LINE
8
BLACK
6
CONTINUOUS
10
5.366364527559055
20
-3.8797607086614172
11
5.369928897637795
21
-3.8864292125984252
0
LINE
8
BLACK
6
CONTINUOUS
10
5.369928897637795
20
-3.8864292125984252
11
5.3747257874015748
21
-3.8922742125984251
0
LINE
8
BLACK
6
CONTINUOUS
10
5.3747257874015748
20
-3.8922742125984251
11
5.3805707874015747
21
-3.8970711023622044
0
LINE
8
BLACK
6
CONTINUOUS
10
5.3805707874015747
20
-3.8970711023622044
11
5.3872392913385827
21
-3.9006354724409449
0
LINE
8
BLACK
6
CONTINUOUS
10
5.3872392913385827
20
-3.9006354724409449
11
5.3944750393700787
21
-3.9028304330708661
0
LINE
8
BLACK
6
CONTINUOUS
10
5.3944750393700787
20
-3.9028304330708661
11
5.4020000000000001
21
-3.9035715748031494
0
LINE
8
BLACK
6
CONTINUOUS
10
5.4020000000000001
20
-3.9035715748031494
11
5.4095249606299207
21
-3.9028304330708661
0
LINE
8
BLACK
6
CONTINUOUS
10
5.4095249606299207
20
-3.9028304330708661
11
5.4167607086614176
21
-3.9006354724409449
0
LINE
8
BLACK
6
CONTINUOUS
10
5.4167607086614176
20
-3.9006354724409449
11
5.4234292125984247
21
-3.8970711023622044
0
LINE
8
BLACK
6
CONTINUOUS
10
5.4234292125984247
20
-3.8970711023622044
11
5.4292742125984255
21
-3.8922742125984251
0
LINE
8
BLACK
6
CONTINUOUS
10
5.4292742125984255
20
-3.8922742125984251
11
5.4340711023622044
21
-3.8864292125984252
0
LINE
8
BLACK
6
CONTINUOUS
10
5.4340711023622044
20
-3.8864292125984252
11
5.4376354724409444
21
-3.8797607086614172
0
LINE
8
BLACK
6
CONTINUOUS
10
5.4376354724409444
20
-3.8797607086614172
11
5.439830433070866
21
-3.8725249606299212
0
LINE
8
BLACK
6
CONTINUOUS
10
5.439830433070866
20
-3.8725249606299212
11
5.4405715748031493
21
-3.8649999999999998
0
LINE
8
BLACK
6
CONTINUOUS
10
5.4405715748031493
20
-3.8649999999999998
11
5.439830433070866
21
-3.8574750393700787
0
LINE
8
BLACK
6
CONTINUOUS
10
5.439830433070866
20
-3.8574750393700787
11
5.4376354724409444
21
-3.8502392913385828
0
LINE
8
BLACK
6
CONTINUOUS
10
5.4376354724409444
20
-3.8502392913385828
11
5.4340711023622044
21
-3.8435707874015748
0
LINE
8
BLACK
6
CONTINUOUS
10
5.4340711023622044
20
-3.8435707874015748
11
5.4292742125984255
21
-3.8377257874015749
0
LINE
8
BLACK
6
CONTINUOUS
10
5.4292742125984255
20
-3.8377257874015749
11
5.4234292125984247
21
-3.8329288976377951
0
LINE
8
BLACK
6
CONTINUOUS
10
5.4234292125984247
20
-3.8329288976377951
11
5.4167607086614176
21
-3.8293645275590551
0
LINE
8
BLACK
6
CONTINUOUS
10
5.4167607086614176
20
-3.8293645275590551
11
5.4095249606299207
21
-3.8271695669291339
0
LINE
8
BLACK
6
CONTINUOUS
10
5.4095249606299207
20
-3.8271695669291339
11
5.4020000000000001
21
-3.8264284251968501
0
LINE
8
BLACK
6
CONTINUOUS
10
5.4020000000000001
20
-3.8264284251968501
11
5.3944750393700787
21
-3.8271695669291339
0
LINE
8
BLACK
6
CONTINUOUS
10
5.3944750393700787
20
-3.8271695669291339
11
5.3872392913385827
21
-3.8293645275590551
0
LINE
8
BLACK
6
CONTINUOUS
10
5.3872392913385827
20
-3.8293645275590551
11
5.3805707874015747
21
-3.8329288976377951
0
LINE
8
BLACK
6
CONTINUOUS
10
5.3805707874015747
20
-3.8329288976377951
11
5.3747257874015748
21
-3.8377257874015749
0
LINE
8
BLACK
6
CONTINUOUS
10
5.3747257874015748
20
-3.8377257874015749
11
5.369928897637795
21
-3.8435707874015748
0
LINE
8
BLACK
6
CONTINUOUS
10
5.369928897637795
20
-3.8435707874015748
11
5.366364527559055
21
-3.8502392913385828
0
LINE
8
BLACK
6
CONTINUOUS
10
5.366364527559055
20
-3.8502392913385828
11
5.3641695669291334
21
-3.8574750393700787
0
LINE
8
BLACK
6
CONTINUOUS
10
5.3641695669291334
20
-3.8574750393700787
11
5.36342842519685
21
-3.8649999999999998
0
LINE
8
BLACK
6
CONTINUOUS
10
5.36342842519685
20
-3.8649999999999998
11
5.3641695669291334
21
-3.8725249606299212
0
LINE
8
BLACK
6
CONTINUOUS
10
6.4540944881889759
20
-3.7192519685039369
11
6.4547904724409451
21
-3.7195402362204724
0
LINE
8
BLACK
6
CONTINUOUS
10
6.4547904724409451
20
-3.7195402362204724
11
6.4550787401574805
21
-3.7202362204724411
0
LINE
8
BLACK
6
CONTINUOUS
10
6.4550787401574805
20
-3.7202362204724411
11
6.4550787401574805
21
-3.899763779527559
0
LINE
8
BLACK
6
CONTINUOUS
10
6.4550787401574805
20
-3.899763779527559
11
6.4547904724409451
21
-3.9004597637795273
0
LINE
8
BLACK
6
CONTINUOUS
10
6.4547904724409451
20
-3.9004597637795273
11
6.4540944881889759
21
-3.9007480314960628
0
LINE
8
BLACK
6
CONTINUOUS
10
6.4540944881889759
20
-3.9007480314960628
11
6.3659055118110235
21
-3.9007480314960628
0
LINE
8
BLACK
6
CONTINUOUS
10
6.3659055118110235
20
-3.9007480314960628
11
6.3652095275590552
21
-3.9004597637795273
0
LINE
8
BLACK
6
CONTINUOUS
10
6.3652095275590552
20
-3.9004597637795273
11
6.3649212598425198
21
-3.899763779527559
0
LINE
8
BLACK
6
CONTINUOUS
10
6.3649212598425198
20
-3.899763779527559
11
6.3649212598425198
21
-3.7202362204724411
0
LINE
8
BLACK
6
CONTINUOUS
10
6.3649212598425198
20
-3.7202362204724411
11
6.3652095275590552
21
-3.7195402362204724
0
LINE
8
BLACK
6
CONTINUOUS
10
6.3652095275590552
20
-3.7195402362204724
11
6.3659055118110235
21
-3.7192519685039369
0
LINE
8
BLACK
6
CONTINUOUS
10
6.3659055118110235
20
-3.7192519685039369
11
6.4540944881889759
21
-3.7192519685039369
0
LINE
8
BLACK
6
CONTINUOUS
10
6.3668897637795272
20
-3.7212204724409448
11
6.3668897637795272
21
-3.8987795275590549
0
LINE
8
BLACK
6
CONTINUOUS
10
6.3668897637795272
20
-3.8987795275590549
11
6.4531102362204722
21
-3.8987795275590549
0
LINE
8
BLACK
6
CONTINUOUS
10
6.4531102362204722
20
-3.8987795275590549
11
6.4531102362204722
21
-3.7212204724409448
0
LINE
8
BLACK
6
CONTINUOUS
10
6.4531102362204722
20
-3.7212204724409448
11
6.3668897637795272
21
-3.7212204724409448
0
LINE
8
BLACK
6
CONTINUOUS
10
6.7678727559055121
20
-3.790421062992126
11
6.7754429527559052
21
-3.7927174409448816
0
LINE
8
BLACK
6
CONTINUOUS
10
6.7754429527559052
20
-3.7927174409448816
11
6.7824196456692913
21
-3.7964466141732283
0
LINE
8
BLACK
6
CONTINUOUS
10
6.7824196456692913
20
-3.7964466141732283
11
6.7885348031496058
21
-3.8014651968503936
0
LINE
8
BLACK
6
CONTINUOUS
10
6.7885348031496058
20
-3.8014651968503936
11
6.7935533858267716
21
-3.8075803543307085
0
LINE
8
BLACK
6
CONTINUOUS
10
6.7935533858267716
20
-3.8075803543307085
11
6.7972825590551178
21
-3.8145570472440946
0
LINE
8
BLACK
6
CONTINUOUS
10
6.7972825590551178
20
-3.8145570472440946
11
6.7995789370078743
21
-3.8221272440944882
0
LINE
8
BLACK
6
CONTINUOUS
10
6.7995789370078743
20
-3.8221272440944882
11
6.8003543307086609
21
-3.8300000000000001
0
LINE
8
BLACK
6
CONTINUOUS
10
6.8003543307086609
20
-3.8300000000000001
11
6.7995789370078743
21
-3.8378727559055119
0
LINE
8
BLACK
6
CONTINUOUS
10
6.7995789370078743
20
-3.8378727559055119
11
6.7972825590551178
21
-3.8454429527559055
0
LINE
8
BLACK
6
CONTINUOUS
10
6.7972825590551178
20
-3.8454429527559055
11
6.7935533858267716
21
-3.8524196456692912
0
LINE
8
BLACK
6
CONTINUOUS
10
6.7935533858267716
20
-3.8524196456692912
11
6.7885348031496058
21
-3.8585348031496061
0
LINE
8
BLACK
6
CONTINUOUS
10
6.7885348031496058
20
-3.8585348031496061
11
6.7824196456692913
21
-3.8635533858267714
0
LINE
8
BLACK
6
CONTINUOUS
10
6.7824196456692913
20
-3.8635533858267714
11
6.7754429527559052
21
-3.8672825590551181
0
LINE
8
BLACK
6
CONTINUOUS
10
6.7754429527559052
20
-3.8672825590551181
11
6.7678727559055121
21
-3.8695789370078741
0
LINE
8
BLACK
6
CONTINUOUS
10
6.7678727559055121
20
-3.8695789370078741
11
6.7599999999999998
21
-3.8703543307086612
0
LINE
8
BLACK
6
CONTINUOUS
10
6.7599999999999998
20
-3.8703543307086612
11
6.7521272440944884
21
-3.8695789370078741
0
LINE
8
BLACK
6
CONTINUOUS
10
6.7521272440944884
20
-3.8695789370078741
11
6.7445570472440943
21
-3.8672825590551181
0
LINE
8
BLACK
6
CONTINUOUS
10
6.7445570472440943
20
-3.8672825590551181
11
6.7375803543307082
21
-3.8635533858267714
0
LINE
8
BLACK
6
CONTINUOUS
10
6.7375803543307082
20
-3.8635533858267714
11
6.7314651968503938
21
-3.8585348031496061
0
LINE
8
BLACK
6
CONTINUOUS
10
6.7314651968503938
20
-3.8585348031496061
11
6.726446614173228
21
-3.8524196456692912
0
LINE
8
BLACK
6
CONTINUOUS
10
6.726446614173228
20
-3.8524196456692912
11
6.7227174409448818
21
-3.8454429527559055
0
LINE
8
BLACK
6
CONTINUOUS
10
6.7227174409448818
20
-3.8454429527559055
11
6.7204210629921262
21
-3.8378727559055119
0
LINE
8
BLACK
6
CONTINUOUS
10
6.7204210629921262
20
-3.8378727559055119
11
6.7196456692913387
21
-3.8300000000000001
0
LINE
8
BLACK
6
CONTINUOUS
10
6.7196456692913387
20
-3.8300000000000001
11
6.7204210629921262
21
-3.8221272440944882
0
LINE
8
BLACK
6
CONTINUOUS
10
6.7204210629921262
20
-3.8221272440944882
11
6.7227174409448818
21
-3.8145570472440946
0
LINE
8
BLACK
6
CONTINUOUS
10
6.7227174409448818
20
-3.8145570472440946
11
6.726446614173228
21
-3.8075803543307085
0
LINE
8
BLACK
6
CONTINUOUS
10
6.726446614173228
20
-3.8075803543307085
11
6.7314651968503938
21
-3.8014651968503936
0
LINE
8
BLACK
6
CONTINUOUS
10
6.7314651968503938
20
-3.8014651968503936
11
6.7375803543307082
21
-3.7964466141732283
0
LINE
8
BLACK
6
CONTINUOUS
10
6.7375803543307082
20
-3.7964466141732283
11
6.7445570472440943
21
-3.7927174409448816
0
LINE
8
BLACK
6
CONTINUOUS
10
6.7445570472440943
20
-3.7927174409448816
11
6.7521272440944884
21
-3.790421062992126
0
LINE
8
BLACK
6
CONTINUOUS
10
6.7521272440944884
20
-3.790421062992126
11
6.7599999999999998
21
-3.7896456692913385
0
LINE
8
BLACK
6
CONTINUOUS
10
6.7599999999999998
20
-3.7896456692913385
11
6.7678727559055121
21
-3.790421062992126
0
LINE
8
BLACK
6
CONTINUOUS
10
6.7221695669291339
20
-3.8375249606299211
11
6.7243645275590547
21
-3.8447607086614171
0
LINE
8
BLACK
6
CONTINUOUS
10
6.7243645275590547
20
-3.8447607086614171
11
6.7279288976377956
21
-3.8514292125984251
0
LINE
8
BLACK
6
CONTINUOUS
10
6.7279288976377956
20
-3.8514292125984251
11
6.7327257874015745
21
-3.857274212598425
0
LINE
8
BLACK
6
CONTINUOUS
10
6.7327257874015745
20
-3.857274212598425
11
6.7385707874015743
21
-3.8620711023622047
0
LINE
8
BLACK
6
CONTINUOUS
10
6.7385707874015743
20
-3.8620711023622047
11
6.7452392913385824
21
-3.8656354724409447
0
LINE
8
BLACK
6
CONTINUOUS
10
6.7452392913385824
20
-3.8656354724409447
11
6.7524750393700783
21
-3.8678304330708659
0
LINE
8
BLACK
6
CONTINUOUS
10
6.7524750393700783
20
-3.8678304330708659
11
6.7599999999999998
21
-3.8685715748031497
0
LINE
8
BLACK
6
CONTINUOUS
10
6.7599999999999998
20
-3.8685715748031497
11
6.7675249606299213
21
-3.8678304330708659
0
LINE
8
BLACK
6
CONTINUOUS
10
6.7675249606299213
20
-3.8678304330708659
11
6.7747607086614172
21
-3.8656354724409447
0
LINE
8
BLACK
6
CONTINUOUS
10
6.7747607086614172
20
-3.8656354724409447
11
6.7814292125984252
21
-3.8620711023622047
0
LINE
8
BLACK
6
CONTINUOUS
10
6.7814292125984252
20
-3.8620711023622047
11
6.7872742125984251
21
-3.857274212598425
0
LINE
8
BLACK
6
CONTINUOUS
10
6.7872742125984251
20
-3.857274212598425
11
6.7920711023622049
21
-3.8514292125984251
0
LINE
8
BLACK
6
CONTINUOUS
10
6.7920711023622049
20
-3.8514292125984251
11
6.7956354724409449
21
-3.8447607086614171
0
LINE
8
BLACK
6
CONTINUOUS
10
6.7956354724409449
20
-3.8447607086614171
11
6.7978304330708657
21
-3.8375249606299211
0
LINE
8
BLACK
6
CONTINUOUS
10
6.7978304330708657
20
-3.8375249606299211
11
6.7985715748031499
21
-3.8300000000000001
0
LINE
8
BLACK
6
CONTINUOUS
10
6.7985715748031499
20
-3.8300000000000001
11
6.7978304330708657
21
-3.8224750393700786
0
LINE
8
BLACK
6
CONTINUOUS
10
6.7978304330708657
20
-3.8224750393700786
11
6.7956354724409449
21
-3.8152392913385826
0
LINE
8
BLACK
6
CONTINUOUS
10
6.7956354724409449
20
-3.8152392913385826
11
6.7920711023622049
21
-3.8085707874015746
0
LINE
8
BLACK
6
CONTINUOUS
10
6.7920711023622049
20
-3.8085707874015746
11
6.7872742125984251
21
-3.8027257874015747
0
LINE
8
BLACK
6
CONTINUOUS
10
6.7872742125984251
20
-3.8027257874015747
11
6.7814292125984252
21
-3.7979288976377954
0
LINE
8
BLACK
6
CONTINUOUS
10
6.7814292125984252
20
-3.7979288976377954
11
6.7747607086614172
21
-3.794364527559055
0
LINE
8
BLACK
6
CONTINUOUS
10
6.7747607086614172
20
-3.794364527559055
11
6.7675249606299213
21
-3.7921695669291338
0
LINE
8
BLACK
6
CONTINUOUS
10
6.7675249606299213
20
-3.7921695669291338
11
6.7599999999999998
21
-3.7914284251968504
0
LINE
8
BLACK
6
CONTINUOUS
10
6.7599999999999998
20
-3.7914284251968504
11
6.7524750393700783
21
-3.7921695669291338
0
LINE
8
BLACK
6
CONTINUOUS
10
6.7524750393700783
20
-3.7921695669291338
11
6.7452392913385824
21
-3.794364527559055
0
LINE
8
BLACK
6
CONTINUOUS
10
6.7452392913385824
20
-3.794364527559055
11
6.7385707874015743
21
-3.7979288976377954
0
LINE
8
BLACK
6
CONTINUOUS
10
6.7385707874015743
20
-3.7979288976377954
11
6.7327257874015745
21
-3.8027257874015747
0
LINE
8
BLACK
6
CONTINUOUS
10
6.7327257874015745
20
-3.8027257874015747
11
6.7279288976377956
21
-3.8085707874015746
0
LINE
8
BLACK
6
CONTINUOUS
10
6.7279288976377956
20
-3.8085707874015746
11
6.7243645275590547
21
-3.8152392913385826
0
LINE
8
BLACK
6
CONTINUOUS
10
6.7243645275590547
20
-3.8152392913385826
11
6.7221695669291339
21
-3.8224750393700786
0
LINE
8
BLACK
6
CONTINUOUS
10
6.7221695669291339
20
-3.8224750393700786
11
6.7214284251968506
21
-3.8300000000000001
0
LINE
8
BLACK
6
CONTINUOUS
10
6.7214284251968506
20
-3.8300000000000001
11
6.7221695669291339
21
-3.8375249606299211
0
LINE
8
BLACK
6
CONTINUOUS
10
6.2974015748031498
20
-3.7028740157480313
11
6.298097559055118
21
-3.7031622834645668
0
LINE
8
BLACK
6
CONTINUOUS
10
6.298097559055118
20
-3.7031622834645668
11
6.2983858267716535
21
-3.7038582677165355
0
LINE
8
BLACK
6
CONTINUOUS
10
6.2983858267716535
20
-3.7038582677165355
11
6.2983858267716535
21
-3.8361417322834646
0
LINE
8
BLACK
6
CONTINUOUS
10
6.2983858267716535
20
-3.8361417322834646
11
6.298097559055118
21
-3.8368377165354328
0
LINE
8
BLACK
6
CONTINUOUS
10
6.298097559055118
20
-3.8368377165354328
11
6.2974015748031498
21
-3.8371259842519683
0
LINE
8
BLACK
6
CONTINUOUS
10
6.2974015748031498
20
-3.8371259842519683
11
6.2225984251968507
21
-3.8371259842519683
0
LINE
8
BLACK
6
CONTINUOUS
10
6.2225984251968507
20
-3.8371259842519683
11
6.2219024409448815
21
-3.8368377165354328
0
LINE
8
BLACK
6
CONTINUOUS
10
6.2219024409448815
20
-3.8368377165354328
11
6.2216141732283461
21
-3.8361417322834646
0
LINE
8
BLACK
6
CONTINUOUS
10
6.2216141732283461
20
-3.8361417322834646
11
6.2216141732283461
21
-3.7038582677165355
0
LINE
8
BLACK
6
CONTINUOUS
10
6.2216141732283461
20
-3.7038582677165355
11
6.2219024409448815
21
-3.7031622834645668
0
LINE
8
BLACK
6
CONTINUOUS
10
6.2219024409448815
20
-3.7031622834645668
11
6.2225984251968507
21
-3.7028740157480313
0
LINE
8
BLACK
6
CONTINUOUS
10
6.2225984251968507
20
-3.7028740157480313
11
6.2974015748031498
21
-3.7028740157480313
0
LINE
8
BLACK
6
CONTINUOUS
10
6.2235826771653544
20
-3.7048425196850392
11
6.2235826771653544
21
-3.8351574803149604
0
LINE
8
BLACK
6
CONTINUOUS
10
6.2235826771653544
20
-3.8351574803149604
11
6.2964173228346452
21
-3.8351574803149604
0
LINE
8
BLACK
6
CONTINUOUS
10
6.2964173228346452
20
-3.8351574803149604
11
6.2964173228346452
21
-3.7048425196850392
0
LINE
8
BLACK
6
CONTINUOUS
10
6.2964173228346452
20
-3.7048425196850392
11
6.2235826771653544
21
-3.7048425196850392
0
LINE
8
BLACK
6
CONTINUOUS
10
6.6342125984251963
20
-3.705055118110236
11
6.6349085826771654
21
-3.7053433858267715
0
LINE
8
BLACK
6
CONTINUOUS
10
6.6349085826771654
20
-3.7053433858267715
11
6.6351968503937009
21
-3.7060393700787402
0
LINE
8
BLACK
6
CONTINUOUS
10
6.6351968503937009
20
-3.7060393700787402
11
6.6351968503937009
21
-3.8359606299212596
0
LINE
8
BLACK
6
CONTINUOUS
10
6.6351968503937009
20
-3.8359606299212596
11
6.6349085826771654
21
-3.8366566141732283
0
LINE
8
BLACK
6
CONTINUOUS
10
6.6349085826771654
20
-3.8366566141732283
11
6.6342125984251963
21
-3.8369448818897638
0
LINE
8
BLACK
6
CONTINUOUS
10
6.6342125984251963
20
-3.8369448818897638
11
6.5357874015748028
21
-3.8369448818897638
0
LINE
8
BLACK
6
CONTINUOUS
10
6.5357874015748028
20
-3.8369448818897638
11
6.5350914173228345
21
-3.8366566141732283
0
LINE
8
BLACK
6
CONTINUOUS
10
6.5350914173228345
20
-3.8366566141732283
11
6.534803149606299
21
-3.8359606299212596
0
LINE
8
BLACK
6
CONTINUOUS
10
6.534803149606299
20
-3.8359606299212596
11
6.534803149606299
21
-3.7060393700787402
0
LINE
8
BLACK
6
CONTINUOUS
10
6.534803149606299
20
-3.7060393700787402
11
6.5350914173228345
21
-3.7053433858267715
0
LINE
8
BLACK
6
CONTINUOUS
10
6.5350914173228345
20
-3.7053433858267715
11
6.5357874015748028
21
-3.705055118110236
0
LINE
8
BLACK
6
CONTINUOUS
10
6.5357874015748028
20
-3.705055118110236
11
6.6342125984251963
21
-3.705055118110236
0
LINE
8
BLACK
6
CONTINUOUS
10
6.5367716535433074
20
-3.7070236220472439
11
6.5367716535433074
21
-3.8349763779527559
0
LINE
8
BLACK
6
CONTINUOUS
10
6.5367716535433074
20
-3.8349763779527559
11
6.6332283464566926
21
-3.8349763779527559
0
LINE
8
BLACK
6
CONTINUOUS
10
6.6332283464566926
20
-3.8349763779527559
11
6.6332283464566926
21
-3.7070236220472439
0
LINE
8
BLACK
6
CONTINUOUS
10
6.6332283464566926
20
-3.7070236220472439
11
6.5367716535433074
21
-3.7070236220472439
0
LINE
8
BLACK
6
CONTINUOUS
10
4.9086614173228345
20
-3.5403543307086611
11
4.9093574015748027
21
-3.5406425984251966
0
LINE
8
BLACK
6
CONTINUOUS
10
4.9093574015748027
20
-3.5406425984251966
11
4.9096456692913382
21
-3.5413385826771653
0
LINE
8
BLACK
6
CONTINUOUS
10
4.9096456692913382
20
-3.5413385826771653
11
4.9096456692913382
21
-3.6161417322834644
0
LINE
8
BLACK
6
CONTINUOUS
10
4.9096456692913382
20
-3.6161417322834644
11
4.9093574015748027
21
-3.6168377165354331
0
LINE
8
BLACK
6
CONTINUOUS
10
4.9093574015748027
20
-3.6168377165354331
11
4.9086614173228345
21
-3.6171259842519685
0
LINE
8
BLACK
6
CONTINUOUS
10
4.9086614173228345
20
-3.6171259842519685
11
4.7763779527559054
21
-3.6171259842519685
0
LINE
8
BLACK
6
CONTINUOUS
10
4.7763779527559054
20
-3.6171259842519685
11
4.7756819685039371
21
-3.6168377165354331
0
LINE
8
BLACK
6
CONTINUOUS
10
4.7756819685039371
20
-3.6168377165354331
11
4.7753937007874017
21
-3.6161417322834644
0
LINE
8
BLACK
6
CONTINUOUS
10
4.7753937007874017
20
-3.6161417322834644
11
4.7753937007874017
21
-3.5413385826771653
0
LINE
8
BLACK
6
CONTINUOUS
10
4.7753937007874017
20
-3.5413385826771653
11
4.7756819685039371
21
-3.5406425984251966
0
LINE
8
BLACK
6
CONTINUOUS
10
4.7756819685039371
20
-3.5406425984251966
11
4.7763779527559054
21
-3.5403543307086611
0
LINE
8
BLACK
6
CONTINUOUS
10
4.7763779527559054
20
-3.5403543307086611
11
4.9086614173228345
21
-3.5403543307086611
0
LINE
8
BLACK
6
CONTINUOUS
10
4.7773622047244091
20
-3.542322834645669
11
4.7773622047244091
21
-3.6151574803149606
0
LINE
8
BLACK
6
CONTINUOUS
10
4.7773622047244091
20
-3.6151574803149606
11
4.9076771653543307
21
-3.6151574803149606
0
LINE
8
BLACK
6
CONTINUOUS
10
4.9076771653543307
20
-3.6151574803149606
11
4.9076771653543307
21
-3.542322834645669
0
LINE
8
BLACK
6
CONTINUOUS
10
4.9076771653543307
20
-3.542322834645669
11
4.7773622047244091
21
-3.542322834645669
0
LINE
8
BLACK
6
CONTINUOUS
10
5.6208661417322832
20
-2.9681496062992125
11
5.6215621259842514
21
-2.968437874015748
0
LINE
8
BLACK
6
CONTINUOUS
10
5.6215621259842514
20
-2.968437874015748
11
5.6218503937007869
21
-2.9691338582677163
0
LINE
8
BLACK
6
CONTINUOUS
10
5.6218503937007869
20
-2.9691338582677163
11
5.6218503937007869
21
-3.6108661417322834
0
LINE
8
BLACK
6
CONTINUOUS
10
5.6218503937007869
20
-3.6108661417322834
11
5.6215621259842514
21
-3.6115621259842521
0
LINE
8
BLACK
6
CONTINUOUS
10
5.6215621259842514
20
-3.6115621259842521
11
5.6208661417322832
21
-3.6118503937007875
0
LINE
8
BLACK
6
CONTINUOUS
10
5.6208661417322832
20
-3.6118503937007875
11
5.4791338582677165
21
-3.6118503937007875
0
LINE
8
BLACK
6
CONTINUOUS
10
5.4791338582677165
20
-3.6118503937007875
11
5.4784378740157482
21
-3.6115621259842521
0
LINE
8
BLACK
6
CONTINUOUS
10
5.4784378740157482
20
-3.6115621259842521
11
5.4781496062992128
21
-3.6108661417322834
0
LINE
8
BLACK
6
CONTINUOUS
10
5.4781496062992128
20
-3.6108661417322834
11
5.4781496062992128
21
-2.9691338582677163
0
LINE
8
BLACK
6
CONTINUOUS
10
5.4781496062992128
20
-2.9691338582677163
11
5.4784378740157482
21
-2.968437874015748
0
LINE
8
BLACK
6
CONTINUOUS
10
5.4784378740157482
20
-2.968437874015748
11
5.4791338582677165
21
-2.9681496062992125
0
LINE
8
BLACK
6
CONTINUOUS
10
5.4791338582677165
20
-2.9681496062992125
11
5.6208661417322832
21
-2.9681496062992125
0
LINE
8
BLACK
6
CONTINUOUS
10
5.4801181102362202
20
-2.9701181102362204
11
5.4801181102362202
21
-3.6098818897637797
0
LINE
8
BLACK
6
CONTINUOUS
10
5.4801181102362202
20
-3.6098818897637797
11
5.6198818897637794
21
-3.6098818897637797
0
LINE
8
BLACK
6
CONTINUOUS
10
5.6198818897637794
20
-3.6098818897637797
11
5.6198818897637794
21
-2.9701181102362204
0
LINE
8
BLACK
6
CONTINUOUS
10
5.6198818897637794
20
-2.9701181102362204
11
5.4801181102362202
21
-2.9701181102362204
0
LINE
8
BLACK
6
CONTINUOUS
10
6.6761417322834644
20
-3.5316141732283466
11
6.6768377165354327
21
-3.5319024409448816
0
LINE
8
BLACK
6
CONTINUOUS
10
6.6768377165354327
20
-3.5319024409448816
11
6.6771259842519681
21
-3.5325984251968503
0
LINE
8
BLACK
6
CONTINUOUS
10
6.6771259842519681
20
-3.5325984251968503
11
6.6771259842519681
21
-3.6074015748031494
0
LINE
8
BLACK
6
CONTINUOUS
10
6.6771259842519681
20
-3.6074015748031494
11
6.6768377165354327
21
-3.6080975590551181
0
LINE
8
BLACK
6
CONTINUOUS
10
6.6768377165354327
20
-3.6080975590551181
11
6.6761417322834644
21
-3.6083858267716535
0
LINE
8
BLACK
6
CONTINUOUS
10
6.6761417322834644
20
-3.6083858267716535
11
6.5438582677165353
21
-3.6083858267716535
0
LINE
8
BLACK
6
CONTINUOUS
10
6.5438582677165353
20
-3.6083858267716535
11
6.5431622834645671
21
-3.6080975590551181
0
LINE
8
BLACK
6
CONTINUOUS
10
6.5431622834645671
20
-3.6080975590551181
11
6.5428740157480316
21
-3.6074015748031494
0
LINE
8
BLACK
6
CONTINUOUS
10
6.5428740157480316
20
-3.6074015748031494
11
6.5428740157480316
21
-3.5325984251968503
0
LINE
8
BLACK
6
CONTINUOUS
10
6.5428740157480316
20
-3.5325984251968503
11
6.5431622834645671
21
-3.5319024409448816
0
LINE
8
BLACK
6
CONTINUOUS
10
6.5431622834645671
20
-3.5319024409448816
11
6.5438582677165353
21
-3.5316141732283466
0
LINE
8
BLACK
6
CONTINUOUS
10
6.5438582677165353
20
-3.5316141732283466
11
6.6761417322834644
21
-3.5316141732283466
0
LINE
8
BLACK
6
CONTINUOUS
10
6.5448425196850391
20
-3.5335826771653545
11
6.5448425196850391
21
-3.6064173228346457
0
LINE
8
BLACK
6
CONTINUOUS
10
6.5448425196850391
20
-3.6064173228346457
11
6.6751574803149607
21
-3.6064173228346457
0
LINE
8
BLACK
6
CONTINUOUS
10
6.6751574803149607
20
-3.6064173228346457
11
6.6751574803149607
21
-3.5335826771653545
0
LINE
8
BLACK
6
CONTINUOUS
10
6.6751574803149607
20
-3.5335826771653545
11
6.5448425196850391
21
-3.5335826771653545
0
LINE
8
BLACK
6
CONTINUOUS
10
7.4465354330708662
20
-2.9235826771653541
11
7.4472314173228344
21
-2.9238709448818896
0
LINE
8
BLACK
6
CONTINUOUS
10
7.4472314173228344
20
-2.9238709448818896
11
7.4475196850393699
21
-2.9245669291338583
0
LINE
8
BLACK
6
CONTINUOUS
10
7.4475196850393699
20
-2.9245669291338583
11
7.4475196850393699
21
-3.5938582677165352
0
LINE
8
BLACK
6
CONTINUOUS
10
7.4475196850393699
20
-3.5938582677165352
11
7.4472314173228344
21
-3.5945542519685039
0
LINE
8
BLACK
6
CONTINUOUS
10
7.4472314173228344
20
-3.5945542519685039
11
7.4465354330708662
21
-3.5948425196850393
0
LINE
8
BLACK
6
CONTINUOUS
10
7.4465354330708662
20
-3.5948425196850393
11
6.7614960629921255
21
-3.5948425196850393
0
LINE
8
BLACK
6
CONTINUOUS
10
6.7614960629921255
20
-3.5948425196850393
11
6.7608000787401572
21
-3.5945542519685039
0
LINE
8
BLACK
6
CONTINUOUS
10
6.7608000787401572
20
-3.5945542519685039
11
6.7605118110236218
21
-3.5938582677165352
0
LINE
8
BLACK
6
CONTINUOUS
10
6.7605118110236218
20
-3.5938582677165352
11
6.7605118110236218
21
-2.9245669291338583
0
LINE
8
BLACK
6
CONTINUOUS
10
6.7605118110236218
20
-2.9245669291338583
11
6.7608000787401572
21
-2.9238709448818896
0
LINE
8
BLACK
6
CONTINUOUS
10
6.7608000787401572
20
-2.9238709448818896
11
6.7614960629921255
21
-2.9235826771653541
0
LINE
8
BLACK
6
CONTINUOUS
10
6.7614960629921255
20
-2.9235826771653541
11
7.4465354330708662
21
-2.9235826771653541
0
LINE
8
BLACK
6
CONTINUOUS
10
6.7624803149606301
20
-2.925551181102362
11
6.7624803149606301
21
-3.5928740157480314
0
LINE
8
BLACK
6
CONTINUOUS
10
6.7624803149606301
20
-3.5928740157480314
11
7.4455511811023625
21
-3.5928740157480314
0
LINE
8
BLACK
6
CONTINUOUS
10
7.4455511811023625
20
-3.5928740157480314
11
7.4455511811023625
21
-2.925551181102362
0
LINE
8
BLACK
6
CONTINUOUS
10
7.4455511811023625
20
-2.925551181102362
11
6.7624803149606301
21
-2.925551181102362
0
LINE
8
BLACK
6
CONTINUOUS
10
6.2886614173228343
20
-3.1703543307086615
11
6.2893574015748026
21
-3.1706425984251969
0
LINE
8
BLACK
6
CONTINUOUS
10
6.2893574015748026
20
-3.1706425984251969
11
6.2896456692913381
21
-3.1713385826771652
0
LINE
8
BLACK
6
CONTINUOUS
10
6.2896456692913381
20
-3.1713385826771652
11
6.2896456692913381
21
-3.5886614173228346
0
LINE
8
BLACK
6
CONTINUOUS
10
6.2896456692913381
20
-3.5886614173228346
11
6.2893574015748026
21
-3.5893574015748029
0
LINE
8
BLACK
6
CONTINUOUS
10
6.2893574015748026
20
-3.5893574015748029
11
6.2886614173228343
21
-3.5896456692913383
0
LINE
8
BLACK
6
CONTINUOUS
10
6.2886614173228343
20
-3.5896456692913383
11
5.8713385826771649
21
-3.5896456692913383
0
LINE
8
BLACK
6
CONTINUOUS
10
5.8713385826771649
20
-3.5896456692913383
11
5.8706425984251966
21
-3.5893574015748029
0
LINE
8
BLACK
6
CONTINUOUS
10
5.8706425984251966
20
-3.5893574015748029
11
5.8703543307086612
21
-3.5886614173228346
0
LINE
8
BLACK
6
CONTINUOUS
10
5.8703543307086612
20
-3.5886614173228346
11
5.8703543307086612
21
-3.1713385826771652
0
LINE
8
BLACK
6
CONTINUOUS
10
5.8703543307086612
20
-3.1713385826771652
11
5.8706425984251966
21
-3.1706425984251969
0
LINE
8
BLACK
6
CONTINUOUS
10
5.8706425984251966
20
-3.1706425984251969
11
5.8713385826771649
21
-3.1703543307086615
0
LINE
8
BLACK
6
CONTINUOUS
10
5.8713385826771649
20
-3.1703543307086615
11
6.2886614173228343
21
-3.1703543307086615
0
LINE
8
BLACK
6
CONTINUOUS
10
5.8723228346456695
20
-3.1723228346456693
11
5.8723228346456695
21
-3.5876771653543305
0
LINE
8
BLACK
6
CONTINUOUS
10
5.8723228346456695
20
-3.5876771653543305
11
6.2876771653543306
21
-3.5876771653543305
0
LINE
8
BLACK
6
CONTINUOUS
10
6.2876771653543306
20
-3.5876771653543305
11
6.2876771653543306
21
-3.1723228346456693
0
LINE
8
BLACK
6
CONTINUOUS
10
6.2876771653543306
20
-3.1723228346456693
11
5.8723228346456695
21
-3.1723228346456693
0
LINE
8
BLACK
6
CONTINUOUS
10
6.4674015748031497
20
-3.4428740157480315
11
6.468097559055118
21
-3.443162283464567
0
LINE
8
BLACK
6
CONTINUOUS
10
6.468097559055118
20
-3.443162283464567
11
6.4683858267716534
21
-3.4438582677165352
0
LINE
8
BLACK
6
CONTINUOUS
10
6.4683858267716534
20
-3.4438582677165352
11
6.4683858267716534
21
-3.5761417322834643
0
LINE
8
BLACK
6
CONTINUOUS
10
6.4683858267716534
20
-3.5761417322834643
11
6.468097559055118
21
-3.576837716535433
0
LINE
8
BLACK
6
CONTINUOUS
10
6.468097559055118
20
-3.576837716535433
11
6.4674015748031497
21
-3.5771259842519685
0
LINE
8
BLACK
6
CONTINUOUS
10
6.4674015748031497
20
-3.5771259842519685
11
6.3925984251968506
21
-3.5771259842519685
0
LINE
8
BLACK
6
CONTINUOUS
10
6.3925984251968506
20
-3.5771259842519685
11
6.3919024409448815
21
-3.576837716535433
0
LINE
8
BLACK
6
CONTINUOUS
10
6.3919024409448815
20
-3.576837716535433
11
6.391614173228346
21
-3.5761417322834643
0
LINE
8
BLACK
6
CONTINUOUS
10
6.391614173228346
20
-3.5761417322834643
11
6.391614173228346
21
-3.4438582677165352
0
LINE
8
BLACK
6
CONTINUOUS
10
6.391614173228346
20
-3.4438582677165352
11
6.3919024409448815
21
-3.443162283464567
0
LINE
8
BLACK
6
CONTINUOUS
10
6.3919024409448815
20
-3.443162283464567
11
6.3925984251968506
21
-3.4428740157480315
0
LINE
8
BLACK
6
CONTINUOUS
10
6.3925984251968506
20
-3.4428740157480315
11
6.4674015748031497
21
-3.4428740157480315
0
LINE
8
BLACK
6
CONTINUOUS
10
6.3935826771653543
20
-3.4448425196850394
11
6.3935826771653543
21
-3.5751574803149606
0
LINE
8
BLACK
6
CONTINUOUS
10
6.3935826771653543
20
-3.5751574803149606
11
6.4664173228346451
21
-3.5751574803149606
0
LINE
8
BLACK
6
CONTINUOUS
10
6.4664173228346451
20
-3.5751574803149606
11
6.4664173228346451
21
-3.4448425196850394
0
LINE
8
BLACK
6
CONTINUOUS
10
6.4664173228346451
20
-3.4448425196850394
11
6.3935826771653543
21
-3.4448425196850394
0
LINE
8
BLACK
6
CONTINUOUS
10
6.738740157480315
20
-3.3797440944881889
11
6.7394361417322832
21
-3.3800323622047244
0
LINE
8
BLACK
6
CONTINUOUS
10
6.7394361417322832
20
-3.3800323622047244
11
6.7397244094488187
21
-3.3807283464566926
0
LINE
8
BLACK
6
CONTINUOUS
10
6.7397244094488187
20
-3.3807283464566926
11
6.7397244094488187
21
-3.4972637795275592
0
LINE
8
BLACK
6
CONTINUOUS
10
6.7397244094488187
20
-3.4972637795275592
11
6.7394361417322832
21
-3.4979597637795274
0
LINE
8
BLACK
6
CONTINUOUS
10
6.7394361417322832
20
-3.4979597637795274
11
6.738740157480315
21
-3.4982480314960629
0
LINE
8
BLACK
6
CONTINUOUS
10
6.738740157480315
20
-3.4982480314960629
11
6.681259842519685
21
-3.4982480314960629
0
LINE
8
BLACK
6
CONTINUOUS
10
6.681259842519685
20
-3.4982480314960629
11
6.6805638582677167
21
-3.4979597637795274
0
LINE
8
BLACK
6
CONTINUOUS
10
6.6805638582677167
20
-3.4979597637795274
11
6.6802755905511813
21
-3.4972637795275592
0
LINE
8
BLACK
6
CONTINUOUS
10
6.6802755905511813
20
-3.4972637795275592
11
6.6802755905511813
21
-3.3807283464566926
0
LINE
8
BLACK
6
CONTINUOUS
10
6.6802755905511813
20
-3.3807283464566926
11
6.6805638582677167
21
-3.3800323622047244
0
LINE
8
BLACK
6
CONTINUOUS
10
6.6805638582677167
20
-3.3800323622047244
11
6.681259842519685
21
-3.3797440944881889
0
LINE
8
BLACK
6
CONTINUOUS
10
6.681259842519685
20
-3.3797440944881889
11
6.738740157480315
21
-3.3797440944881889
0
LINE
8
BLACK
6
CONTINUOUS
10
6.6822440944881887
20
-3.3817125984251968
11
6.6822440944881887
21
-3.496279527559055
0
LINE
8
BLACK
6
CONTINUOUS
10
6.6822440944881887
20
-3.496279527559055
11
6.7377559055118112
21
-3.496279527559055
0
LINE
8
BLACK
6
CONTINUOUS
10
6.7377559055118112
20
-3.496279527559055
11
6.7377559055118112
21
-3.3817125984251968
0
LINE
8
BLACK
6
CONTINUOUS
10
6.7377559055118112
20
-3.3817125984251968
11
6.6822440944881887
21
-3.3817125984251968
0
LINE
8
BLACK
6
CONTINUOUS
10
5.2480314960629917
20
-2.9005905511811023
11
5.2487274803149608
21
-2.9008788188976378
0
LINE
8
BLACK
6
CONTINUOUS
10
5.2487274803149608
20
-2.9008788188976378
11
5.2490157480314963
21
-2.901574803149606
0
LINE
8
BLACK
6
CONTINUOUS
10
5.2490157480314963
20
-2.901574803149606
11
5.2490157480314963
21
-3.4921259842519685
0
LINE
8
BLACK
6
CONTINUOUS
10
5.2490157480314963
20
-3.4921259842519685
11
5.2487274803149608
21
-3.4928219685039368
0
LINE
8
BLACK
6
CONTINUOUS
10
5.2487274803149608
20
-3.4928219685039368
11
5.2480314960629917
21
-3.4931102362204722
0
LINE
8
BLACK
6
CONTINUOUS
10
5.2480314960629917
20
-3.4931102362204722
11
4.6299212598425195
21
-3.4931102362204722
0
LINE
8
BLACK
6
CONTINUOUS
10
4.6299212598425195
20
-3.4931102362204722
11
4.6292252755905512
21
-3.4928219685039368
0
LINE
8
BLACK
6
CONTINUOUS
10
4.6292252755905512
20
-3.4928219685039368
11
4.6289370078740157
21
-3.4921259842519685
0
LINE
8
BLACK
6
CONTINUOUS
10
4.6289370078740157
20
-3.4921259842519685
11
4.6289370078740157
21
-2.901574803149606
0
LINE
8
BLACK
6
CONTINUOUS
10
4.6289370078740157
20
-2.901574803149606
11
4.6292252755905512
21
-2.9008788188976378
0
LINE
8
BLACK
6
CONTINUOUS
10
4.6292252755905512
20
-2.9008788188976378
11
4.6299212598425195
21
-2.9005905511811023
0
LINE
8
BLACK
6
CONTINUOUS
10
4.6299212598425195
20
-2.9005905511811023
11
5.2480314960629917
21
-2.9005905511811023
0
LINE
8
BLACK
6
CONTINUOUS
10
4.6309055118110232
20
-2.9025590551181102
11
4.6309055118110232
21
-3.4911417322834644
0
LINE
8
BLACK
6
CONTINUOUS
10
4.6309055118110232
20
-3.4911417322834644
11
5.247047244094488
21
-3.4911417322834644
0
LINE
8
BLACK
6
CONTINUOUS
10
5.247047244094488
20
-3.4911417322834644
11
5.247047244094488
21
-2.9025590551181102
0
LINE
8
BLACK
6
CONTINUOUS
10
5.247047244094488
20
-2.9025590551181102
11
4.6309055118110232
21
-2.9025590551181102
0
LINE
8
BLACK
6
CONTINUOUS
10
6.6161417322834648
20
-3.3516141732283464
11
6.6168377165354331
21
-3.3519024409448819
0
LINE
8
BLACK
6
CONTINUOUS
10
6.6168377165354331
20
-3.3519024409448819
11
6.6171259842519685
21
-3.3525984251968501
0
LINE
8
BLACK
6
CONTINUOUS
10
6.6171259842519685
20
-3.3525984251968501
11
6.6171259842519685
21
-3.4274015748031497
0
LINE
8
BLACK
6
CONTINUOUS
10
6.6171259842519685
20
-3.4274015748031497
11
6.6168377165354331
21
-3.4280975590551179
0
LINE
8
BLACK
6
CONTINUOUS
10
6.6168377165354331
20
-3.4280975590551179
11
6.6161417322834648
21
-3.4283858267716534
0
LINE
8
BLACK
6
CONTINUOUS
10
6.6161417322834648
20
-3.4283858267716534
11
6.4838582677165357
21
-3.4283858267716534
0
LINE
8
BLACK
6
CONTINUOUS
10
6.4838582677165357
20
-3.4283858267716534
11
6.4831622834645666
21
-3.4280975590551179
0
LINE
8
BLACK
6
CONTINUOUS
10
6.4831622834645666
20
-3.4280975590551179
11
6.4828740157480311
21
-3.4274015748031497
0
LINE
8
BLACK
6
CONTINUOUS
10
6.4828740157480311
20
-3.4274015748031497
11
6.4828740157480311
21
-3.3525984251968501
0
LINE
8
BLACK
6
CONTINUOUS
10
6.4828740157480311
20
-3.3525984251968501
11
6.4831622834645666
21
-3.3519024409448819
0
LINE
8
BLACK
6
CONTINUOUS
10
6.4831622834645666
20
-3.3519024409448819
11
6.4838582677165357
21
-3.3516141732283464
0
LINE
8
BLACK
6
CONTINUOUS
10
6.4838582677165357
20
-3.3516141732283464
11
6.6161417322834648
21
-3.3516141732283464
0
LINE
8
BLACK
6
CONTINUOUS
10
6.4848425196850394
20
-3.3535826771653543
11
6.4848425196850394
21
-3.4264173228346455
0
LINE
8
BLACK
6
CONTINUOUS
10
6.4848425196850394
20
-3.4264173228346455
11
6.6151574803149602
21
-3.4264173228346455
0
LINE
8
BLACK
6
CONTINUOUS
10
6.6151574803149602
20
-3.4264173228346455
11
6.6151574803149602
21
-3.3535826771653543
0
LINE
8
BLACK
6
CONTINUOUS
10
6.6151574803149602
20
-3.3535826771653543
11
6.4848425196850394
21
-3.3535826771653543
0
LINE
8
BLACK
6
CONTINUOUS
10
6.6161417322834648
20
-3.2616141732283466
11
6.6168377165354331
21
-3.261902440944882
0
LINE
8
BLACK
6
CONTINUOUS
10
6.6168377165354331
20
-3.261902440944882
11
6.6171259842519685
21
-3.2625984251968503
0
LINE
8
BLACK
6
CONTINUOUS
10
6.6171259842519685
20
-3.2625984251968503
11
6.6171259842519685
21
-3.3374015748031494
0
LINE
8
BLACK
6
CONTINUOUS
10
6.6171259842519685
20
-3.3374015748031494
11
6.6168377165354331
21
-3.3380975590551181
0
LINE
8
BLACK
6
CONTINUOUS
10
6.6168377165354331
20
-3.3380975590551181
11
6.6161417322834648
21
-3.3383858267716535
0
LINE
8
BLACK
6
CONTINUOUS
10
6.6161417322834648
20
-3.3383858267716535
11
6.4838582677165357
21
-3.3383858267716535
0
LINE
8
BLACK
6
CONTINUOUS
10
6.4838582677165357
20
-3.3383858267716535
11
6.4831622834645666
21
-3.3380975590551181
0
LINE
8
BLACK
6
CONTINUOUS
10
6.4831622834645666
20
-3.3380975590551181
11
6.4828740157480311
21
-3.3374015748031494
0
LINE
8
BLACK
6
CONTINUOUS
10
6.4828740157480311
20
-3.3374015748031494
11
6.4828740157480311
21
-3.2625984251968503
0
LINE
8
BLACK
6
CONTINUOUS
10
6.4828740157480311
20
-3.2625984251968503
11
6.4831622834645666
21
-3.261902440944882
0
LINE
8
BLACK
6
CONTINUOUS
10
6.4831622834645666
20
-3.261902440944882
11
6.4838582677165357
21
-3.2616141732283466
0
LINE
8
BLACK
6
CONTINUOUS
10
6.4838582677165357
20
-3.2616141732283466
11
6.6161417322834648
21
-3.2616141732283466
0
LINE
8
BLACK
6
CONTINUOUS
10
6.4848425196850394
20
-3.2635826771653544
11
6.4848425196850394
21
-3.3364173228346456
0
LINE
8
BLACK
6
CONTINUOUS
10
6.4848425196850394
20
-3.3364173228346456
11
6.6151574803149602
21
-3.3364173228346456
0
LINE
8
BLACK
6
CONTINUOUS
10
6.6151574803149602
20
-3.3364173228346456
11
6.6151574803149602
21
-3.2635826771653544
0
LINE
8
BLACK
6
CONTINUOUS
10
6.6151574803149602
20
-3.2635826771653544
11
6.4848425196850394
21
-3.2635826771653544
0
LINE
8
BLACK
6
CONTINUOUS
10
5.7364015748031498
20
-3.1928740157480315
11
5.7370975590551181
21
-3.193162283464567
0
LINE
8
BLACK
6
CONTINUOUS
10
5.7370975590551181
20
-3.193162283464567
11
5.7373858267716535
21
-3.1938582677165352
0
LINE
8
BLACK
6
CONTINUOUS
10
5.7373858267716535
20
-3.1938582677165352
11
5.7373858267716535
21
-3.3261417322834643
0
LINE
8
BLACK
6
CONTINUOUS
10
5.7373858267716535
20
-3.3261417322834643
11
5.7370975590551181
21
-3.326837716535433
0
LINE
8
BLACK
6
CONTINUOUS
10
5.7370975590551181
20
-3.326837716535433
11
5.7364015748031498
21
-3.3271259842519685
0
LINE
8
BLACK
6
CONTINUOUS
10
5.7364015748031498
20
-3.3271259842519685
11
5.6615984251968499
21
-3.3271259842519685
0
LINE
8
BLACK
6
CONTINUOUS
10
5.6615984251968499
20
-3.3271259842519685
11
5.6609024409448816
21
-3.326837716535433
0
LINE
8
BLACK
6
CONTINUOUS
10
5.6609024409448816
20
-3.326837716535433
11
5.6606141732283461
21
-3.3261417322834643
0
LINE
8
BLACK
6
CONTINUOUS
10
5.6606141732283461
20
-3.3261417322834643
11
5.6606141732283461
21
-3.1938582677165352
0
LINE
8
BLACK
6
CONTINUOUS
10
5.6606141732283461
20
-3.1938582677165352
11
5.6609024409448816
21
-3.193162283464567
0
LINE
8
BLACK
6
CONTINUOUS
10
5.6609024409448816
20
-3.193162283464567
11
5.6615984251968499
21
-3.1928740157480315
0
LINE
8
BLACK
6
CONTINUOUS
10
5.6615984251968499
20
-3.1928740157480315
11
5.7364015748031498
21
-3.1928740157480315
0
LINE
8
BLACK
6
CONTINUOUS
10
5.6625826771653545
20
-3.1948425196850394
11
5.6625826771653545
21
-3.3251574803149606
0
LINE
8
BLACK
6
CONTINUOUS
10
5.6625826771653545
20
-3.3251574803149606
11
5.7354173228346452
21
-3.3251574803149606
0
LINE
8
BLACK
6
CONTINUOUS
10
5.7354173228346452
20
-3.3251574803149606
11
5.7354173228346452
21
-3.1948425196850394
0
LINE
8
BLACK
6
CONTINUOUS
10
5.7354173228346452
20
-3.1948425196850394
11
5.6625826771653545
21
-3.1948425196850394
0
LINE
8
BLACK
6
CONTINUOUS
10
6.738740157480315
20
-3.1817480314960629
11
6.7394361417322832
21
-3.1820362992125983
0
LINE
8
BLACK
6
CONTINUOUS
10
6.7394361417322832
20
-3.1820362992125983
11
6.7397244094488187
21
-3.182732283464567
0
LINE
8
BLACK
6
CONTINUOUS
10
6.7397244094488187
20
-3.182732283464567
11
6.7397244094488187
21
-3.2992677165354332
0
LINE
8
BLACK
6
CONTINUOUS
10
6.7397244094488187
20
-3.2992677165354332
11
6.7394361417322832
21
-3.2999637007874014
0
LINE
8
BLACK
6
CONTINUOUS
10
6.7394361417322832
20
-3.2999637007874014
11
6.738740157480315
21
-3.3002519685039369
0
LINE
8
BLACK
6
CONTINUOUS
10
6.738740157480315
20
-3.3002519685039369
11
6.681259842519685
21
-3.3002519685039369
0
LINE
8
BLACK
6
CONTINUOUS
10
6.681259842519685
20
-3.3002519685039369
11
6.6805638582677167
21
-3.2999637007874014
0
LINE
8
BLACK
6
CONTINUOUS
10
6.6805638582677167
20
-3.2999637007874014
11
6.6802755905511813
21
-3.2992677165354332
0
LINE
8
BLACK
6
CONTINUOUS
10
6.6802755905511813
20
-3.2992677165354332
11
6.6802755905511813
21
-3.182732283464567
0
LINE
8
BLACK
6
CONTINUOUS
10
6.6802755905511813
20
-3.182732283464567
11
6.6805638582677167
21
-3.1820362992125983
0
LINE
8
BLACK
6
CONTINUOUS
10
6.6805638582677167
20
-3.1820362992125983
11
6.681259842519685
21
-3.1817480314960629
0
LINE
8
BLACK
6
CONTINUOUS
10
6.681259842519685
20
-3.1817480314960629
11
6.738740157480315
21
-3.1817480314960629
0
LINE
8
BLACK
6
CONTINUOUS
10
6.6822440944881887
20
-3.1837165354330708
11
6.6822440944881887
21
-3.298283464566929
0
LINE
8
BLACK
6
CONTINUOUS
10
6.6822440944881887
20
-3.298283464566929
11
6.7377559055118112
21
-3.298283464566929
0
LINE
8
BLACK
6
CONTINUOUS
10
6.7377559055118112
20
-3.298283464566929
11
6.7377559055118112
21
-3.1837165354330708
0
LINE
8
BLACK
6
CONTINUOUS
10
6.7377559055118112
20
-3.1837165354330708
11
6.6822440944881887
21
-3.1837165354330708
0
LINE
8
BLACK
6
CONTINUOUS
10
6.4304015748031498
20
-3.1638740157480316
11
6.431097559055118
21
-3.1641622834645671
0
LINE
8
BLACK
6
CONTINUOUS
10
6.431097559055118
20
-3.1641622834645671
11
6.4313858267716535
21
-3.1648582677165353
0
LINE
8
BLACK
6
CONTINUOUS
10
6.4313858267716535
20
-3.1648582677165353
11
6.4313858267716535
21
-3.2971417322834644
0
LINE
8
BLACK
6
CONTINUOUS
10
6.4313858267716535
20
-3.2971417322834644
11
6.431097559055118
21
-3.2978377165354331
0
LINE
8
BLACK
6
CONTINUOUS
10
6.431097559055118
20
-3.2978377165354331
11
6.4304015748031498
21
-3.2981259842519686
0
LINE
8
BLACK
6
CONTINUOUS
10
6.4304015748031498
20
-3.2981259842519686
11
6.3555984251968498
21
-3.2981259842519686
0
LINE
8
BLACK
6
CONTINUOUS
10
6.3555984251968498
20
-3.2981259842519686
11
6.3549024409448815
21
-3.2978377165354331
0
LINE
8
BLACK
6
CONTINUOUS
10
6.3549024409448815
20
-3.2978377165354331
11
6.3546141732283461
21
-3.2971417322834644
0
LINE
8
BLACK
6
CONTINUOUS
10
6.3546141732283461
20
-3.2971417322834644
11
6.3546141732283461
21
-3.1648582677165353
0
LINE
8
BLACK
6
CONTINUOUS
10
6.3546141732283461
20
-3.1648582677165353
11
6.3549024409448815
21
-3.1641622834645671
0
LINE
8
BLACK
6
CONTINUOUS
10
6.3549024409448815
20
-3.1641622834645671
11
6.3555984251968498
21
-3.1638740157480316
0
LINE
8
BLACK
6
CONTINUOUS
10
6.3555984251968498
20
-3.1638740157480316
11
6.4304015748031498
21
-3.1638740157480316
0
LINE
8
BLACK
6
CONTINUOUS
10
6.3565826771653544
20
-3.1658425196850395
11
6.3565826771653544
21
-3.2961574803149607
0
LINE
8
BLACK
6
CONTINUOUS
10
6.3565826771653544
20
-3.2961574803149607
11
6.4294173228346452
21
-3.2961574803149607
0
LINE
8
BLACK
6
CONTINUOUS
10
6.4294173228346452
20
-3.2961574803149607
11
6.4294173228346452
21
-3.1658425196850395
0
LINE
8
BLACK
6
CONTINUOUS
10
6.4294173228346452
20
-3.1658425196850395
11
6.3565826771653544
21
-3.1658425196850395
0
LINE
8
BLACK
6
CONTINUOUS
10
5.4370078740157481
20
-2.6584645669291338
11
5.4377038582677164
21
-2.6587528346456692
0
LINE
8
BLACK
6
CONTINUOUS
10
5.4377038582677164
20
-2.6587528346456692
11
5.4379921259842519
21
-2.659448818897638
0
LINE
8
BLACK
6
CONTINUOUS
10
5.4379921259842519
20
-2.659448818897638
11
5.4379921259842519
21
-3.2007874015748032
0
LINE
8
BLACK
6
CONTINUOUS
10
5.4379921259842519
20
-3.2007874015748032
11
5.4377038582677164
21
-3.2014833858267715
0
LINE
8
BLACK
6
CONTINUOUS
10
5.4377038582677164
20
-3.2014833858267715
11
5.4370078740157481
21
-3.201771653543307
0
LINE
8
BLACK
6
CONTINUOUS
10
5.4370078740157481
20
-3.201771653543307
11
5.2952755905511806
21
-3.201771653543307
0
LINE
8
BLACK
6
CONTINUOUS
10
5.2952755905511806
20
-3.201771653543307
11
5.2945796062992123
21
-3.2014833858267715
0
LINE
8
BLACK
6
CONTINUOUS
10
5.2945796062992123
20
-3.2014833858267715
11
5.2942913385826769
21
-3.2007874015748032
0
LINE
8
BLACK
6
CONTINUOUS
10
5.2942913385826769
20
-3.2007874015748032
11
5.2942913385826769
21
-2.659448818897638
0
LINE
8
BLACK
6
CONTINUOUS
10
5.2942913385826769
20
-2.659448818897638
11
5.2945796062992123
21
-2.6587528346456692
0
LINE
8
BLACK
6
CONTINUOUS
10
5.2945796062992123
20
-2.6587528346456692
11
5.2952755905511806
21
-2.6584645669291338
0
LINE
8
BLACK
6
CONTINUOUS
10
5.2952755905511806
20
-2.6584645669291338
11
5.4370078740157481
21
-2.6584645669291338
0
LINE
8
BLACK
6
CONTINUOUS
10
5.2962598425196852
20
-2.6604330708661417
11
5.2962598425196852
21
-3.1998031496062991
0
LINE
8
BLACK
6
CONTINUOUS
10
5.2962598425196852
20
-3.1998031496062991
11
5.4360236220472435
21
-3.1998031496062991
0
LINE
8
BLACK
6
CONTINUOUS
10
5.4360236220472435
20
-3.1998031496062991
11
5.4360236220472435
21
-2.6604330708661417
0
LINE
8
BLACK
6
CONTINUOUS
10
5.4360236220472435
20
-2.6604330708661417
11
5.2962598425196852
21
-2.6604330708661417
0
LINE
8
BLACK
6
CONTINUOUS
10
5.7364015748031498
20
-3.0418740157480313
11
5.7370975590551181
21
-3.0421622834645667
0
LINE
8
BLACK
6
CONTINUOUS
10
5.7370975590551181
20
-3.0421622834645667
11
5.7373858267716535
21
-3.0428582677165354
0
LINE
8
BLACK
6
CONTINUOUS
10
5.7373858267716535
20
-3.0428582677165354
11
5.7373858267716535
21
-3.1751417322834645
0
LINE
8
BLACK
6
CONTINUOUS
10
5.7373858267716535
20
-3.1751417322834645
11
5.7370975590551181
21
-3.1758377165354328
0
LINE
8
BLACK
6
CONTINUOUS
10
5.7370975590551181
20
-3.1758377165354328
11
5.7364015748031498
21
-3.1761259842519682
0
LINE
8
BLACK
6
CONTINUOUS
10
5.7364015748031498
20
-3.1761259842519682
11
5.6615984251968499
21
-3.1761259842519682
0
LINE
8
BLACK
6
CONTINUOUS
10
5.6615984251968499
20
-3.1761259842519682
11
5.6609024409448816
21
-3.1758377165354328
0
LINE
8
BLACK
6
CONTINUOUS
10
5.6609024409448816
20
-3.1758377165354328
11
5.6606141732283461
21
-3.1751417322834645
0
LINE
8
BLACK
6
CONTINUOUS
10
5.6606141732283461
20
-3.1751417322834645
11
5.6606141732283461
21
-3.0428582677165354
0
LINE
8
BLACK
6
CONTINUOUS
10
5.6606141732283461
20
-3.0428582677165354
11
5.6609024409448816
21
-3.0421622834645667
0
LINE
8
BLACK
6
CONTINUOUS
10
5.6609024409448816
20
-3.0421622834645667
11
5.6615984251968499
21
-3.0418740157480313
0
LINE
8
BLACK
6
CONTINUOUS
10
5.6615984251968499
20
-3.0418740157480313
11
5.7364015748031498
21
-3.0418740157480313
0
LINE
8
BLACK
6
CONTINUOUS
10
5.6625826771653545
20
-3.0438425196850392
11
5.6625826771653545
21
-3.1741574803149604
0
LINE
8
BLACK
6
CONTINUOUS
10
5.6625826771653545
20
-3.1741574803149604
11
5.7354173228346452
21
-3.1741574803149604
0
LINE
8
BLACK
6
CONTINUOUS
10
5.7354173228346452
20
-3.1741574803149604
11
5.7354173228346452
21
-3.0438425196850392
0
LINE
8
BLACK
6
CONTINUOUS
10
5.7354173228346452
20
-3.0438425196850392
11
5.6625826771653545
21
-3.0438425196850392
0
LINE
8
BLACK
6
CONTINUOUS
10
6.1281417322834644
20
-3.0666141732283463
11
6.1288377165354326
21
-3.0669024409448817
0
LINE
8
BLACK
6
CONTINUOUS
10
6.1288377165354326
20
-3.0669024409448817
11
6.1291259842519681
21
-3.0675984251968504
0
LINE
8
BLACK
6
CONTINUOUS
10
6.1291259842519681
20
-3.0675984251968504
11
6.1291259842519681
21
-3.1424015748031495
0
LINE
8
BLACK
6
CONTINUOUS
10
6.1291259842519681
20
-3.1424015748031495
11
6.1288377165354326
21
-3.1430975590551182
0
LINE
8
BLACK
6
CONTINUOUS
10
6.1288377165354326
20
-3.1430975590551182
11
6.1281417322834644
21
-3.1433858267716537
0
LINE
8
BLACK
6
CONTINUOUS
10
6.1281417322834644
20
-3.1433858267716537
11
5.9958582677165353
21
-3.1433858267716537
0
LINE
8
BLACK
6
CONTINUOUS
10
5.9958582677165353
20
-3.1433858267716537
11
5.995162283464567
21
-3.1430975590551182
0
LINE
8
BLACK
6
CONTINUOUS
10
5.995162283464567
20
-3.1430975590551182
11
5.9948740157480316
21
-3.1424015748031495
0
LINE
8
BLACK
6
CONTINUOUS
10
5.9948740157480316
20
-3.1424015748031495
11
5.9948740157480316
21
-3.0675984251968504
0
LINE
8
BLACK
6
CONTINUOUS
10
5.9948740157480316
20
-3.0675984251968504
11
5.995162283464567
21
-3.0669024409448817
0
LINE
8
BLACK
6
CONTINUOUS
10
5.995162283464567
20
-3.0669024409448817
11
5.9958582677165353
21
-3.0666141732283463
0
LINE
8
BLACK
6
CONTINUOUS
10
5.9958582677165353
20
-3.0666141732283463
11
6.1281417322834644
21
-3.0666141732283463
0
LINE
8
BLACK
6
CONTINUOUS
10
5.996842519685039
20
-3.0685826771653542
11
5.996842519685039
21
-3.1414173228346458
0
LINE
8
BLACK
6
CONTINUOUS
10
5.996842519685039
20
-3.1414173228346458
11
6.1271574803149607
21
-3.1414173228346458
0
LINE
8
BLACK
6
CONTINUOUS
10
6.1271574803149607
20
-3.1414173228346458
11
6.1271574803149607
21
-3.0685826771653542
0
LINE
8
BLACK
6
CONTINUOUS
10
6.1271574803149607
20
-3.0685826771653542
11
5.996842519685039
21
-3.0685826771653542
0
LINE
8
BLACK
6
CONTINUOUS
10
6.7261417322834642
20
-2.9622440944881889
11
6.7268377165354325
21
-2.9625323622047244
0
LINE
8
BLACK
6
CONTINUOUS
10
6.7268377165354325
20
-2.9625323622047244
11
6.7271259842519679
21
-2.9632283464566926
0
LINE
8
BLACK
6
CONTINUOUS
10
6.7271259842519679
20
-2.9632283464566926
11
6.7271259842519679
21
-3.116771653543307
0
LINE
8
BLACK
6
CONTINUOUS
10
6.7271259842519679
20
-3.116771653543307
11
6.7268377165354325
21
-3.1174676377952757
0
LINE
8
BLACK
6
CONTINUOUS
10
6.7268377165354325
20
-3.1174676377952757
11
6.7261417322834642
21
-3.1177559055118111
0
LINE
8
BLACK
6
CONTINUOUS
10
6.7261417322834642
20
-3.1177559055118111
11
6.4938582677165355
21
-3.1177559055118111
0
LINE
8
BLACK
6
CONTINUOUS
10
6.4938582677165355
20
-3.1177559055118111
11
6.4931622834645664
21
-3.1174676377952757
0
LINE
8
BLACK
6
CONTINUOUS
10
6.4931622834645664
20
-3.1174676377952757
11
6.4928740157480309
21
-3.116771653543307
0
LINE
8
BLACK
6
CONTINUOUS
10
6.4928740157480309
20
-3.116771653543307
11
6.4928740157480309
21
-2.9632283464566926
0
LINE
8
BLACK
6
CONTINUOUS
10
6.4928740157480309
20
-2.9632283464566926
11
6.4931622834645664
21
-2.9625323622047244
0
LINE
8
BLACK
6
CONTINUOUS
10
6.4931622834645664
20
-2.9625323622047244
11
6.4938582677165355
21
-2.9622440944881889
0
LINE
8
BLACK
6
CONTINUOUS
10
6.4938582677165355
20
-2.9622440944881889
11
6.7261417322834642
21
-2.9622440944881889
0
LINE
8
BLACK
6
CONTINUOUS
10
6.4948425196850392
20
-2.9642125984251968
11
6.4948425196850392
21
-3.1157874015748033
0
LINE
8
BLACK
6
CONTINUOUS
10
6.4948425196850392
20
-3.1157874015748033
11
6.7251574803149605
21
-3.1157874015748033
0
LINE
8
BLACK
6
CONTINUOUS
10
6.7251574803149605
20
-3.1157874015748033
11
6.7251574803149605
21
-2.9642125984251968
0
LINE
8
BLACK
6
CONTINUOUS
10
6.7251574803149605
20
-2.9642125984251968
11
6.4948425196850392
21
-2.9642125984251968
0
LINE
8
BLACK
6
CONTINUOUS
10
6.3243307086614173
20
-2.9489370078740156
11
6.3250266929133856
21
-2.949225275590551
0
LINE
8
BLACK
6
CONTINUOUS
10
6.3250266929133856
20
-2.949225275590551
11
6.325314960629921
21
-2.9499212598425197
0
LINE
8
BLACK
6
CONTINUOUS
10
6.325314960629921
20
-2.9499212598425197
11
6.325314960629921
21
-3.0247244094488188
0
LINE
8
BLACK
6
CONTINUOUS
10
6.325314960629921
20
-3.0247244094488188
11
6.3250266929133856
21
-3.0254203937007875
0
LINE
8
BLACK
6
CONTINUOUS
10
6.3250266929133856
20
-3.0254203937007875
11
6.3243307086614173
21
-3.025708661417323
0
LINE
8
BLACK
6
CONTINUOUS
10
6.3243307086614173
20
-3.025708661417323
11
6.1920472440944883
21
-3.025708661417323
0
LINE
8
BLACK
6
CONTINUOUS
10
6.1920472440944883
20
-3.025708661417323
11
6.1913512598425191
21
-3.0254203937007875
0
LINE
8
BLACK
6
CONTINUOUS
10
6.1913512598425191
20
-3.0254203937007875
11
6.1910629921259845
21
-3.0247244094488188
0
LINE
8
BLACK
6
CONTINUOUS
10
6.1910629921259845
20
-3.0247244094488188
11
6.1910629921259845
21
-2.9499212598425197
0
LINE
8
BLACK
6
CONTINUOUS
10
6.1910629921259845
20
-2.9499212598425197
11
6.1913512598425191
21
-2.949225275590551
0
LINE
8
BLACK
6
CONTINUOUS
10
6.1913512598425191
20
-2.949225275590551
11
6.1920472440944883
21
-2.9489370078740156
0
LINE
8
BLACK
6
CONTINUOUS
10
6.1920472440944883
20
-2.9489370078740156
11
6.3243307086614173
21
-2.9489370078740156
0
LINE
8
BLACK
6
CONTINUOUS
10
6.193031496062992
20
-2.9509055118110235
11
6.193031496062992
21
-3.0237401574803151
0
LINE
8
BLACK
6
CONTINUOUS
10
6.193031496062992
20
-3.0237401574803151
11
6.3233464566929136
21
-3.0237401574803151
0
LINE
8
BLACK
6
CONTINUOUS
10
6.3233464566929136
20
-3.0237401574803151
11
6.3233464566929136
21
-2.9509055118110235
0
LINE
8
BLACK
6
CONTINUOUS
10
6.3233464566929136
20
-2.9509055118110235
11
6.193031496062992
21
-2.9509055118110235
0
LINE
8
BLACK
6
CONTINUOUS
10
6.1755905511811022
20
-2.8901968503937008
11
6.1762865354330705
21
-2.8904851181102362
0
LINE
8
BLACK
6
CONTINUOUS
10
6.1762865354330705
20
-2.8904851181102362
11
6.1765748031496059
21
-2.8911811023622045
0
LINE
8
BLACK
6
CONTINUOUS
10
6.1765748031496059
20
-2.8911811023622045
11
6.1765748031496059
21
-3.0234645669291336
0
LINE
8
BLACK
6
CONTINUOUS
10
6.1765748031496059
20
-3.0234645669291336
11
6.1762865354330705
21
-3.0241605511811023
0
LINE
8
BLACK
6
CONTINUOUS
10
6.1762865354330705
20
-3.0241605511811023
11
6.1755905511811022
21
-3.0244488188976377
0
LINE
8
BLACK
6
CONTINUOUS
10
6.1755905511811022
20
-3.0244488188976377
11
6.1007874015748031
21
-3.0244488188976377
0
LINE
8
BLACK
6
CONTINUOUS
10
6.1007874015748031
20
-3.0244488188976377
11
6.1000914173228349
21
-3.0241605511811023
0
LINE
8
BLACK
6
CONTINUOUS
10
6.1000914173228349
20
-3.0241605511811023
11
6.0998031496062994
21
-3.0234645669291336
0
LINE
8
BLACK
6
CONTINUOUS
10
6.0998031496062994
20
-3.0234645669291336
11
6.0998031496062994
21
-2.8911811023622045
0
LINE
8
BLACK
6
CONTINUOUS
10
6.0998031496062994
20
-2.8911811023622045
11
6.1000914173228349
21
-2.8904851181102362
0
LINE
8
BLACK
6
CONTINUOUS
10
6.1000914173228349
20
-2.8904851181102362
11
6.1007874015748031
21
-2.8901968503937008
0
LINE
8
BLACK
6
CONTINUOUS
10
6.1007874015748031
20
-2.8901968503937008
11
6.1755905511811022
21
-2.8901968503937008
0
LINE
8
BLACK
6
CONTINUOUS
10
6.1017716535433069
20
-2.8921653543307086
11
6.1017716535433069
21
-3.0224803149606299
0
LINE
8
BLACK
6
CONTINUOUS
10
6.1017716535433069
20
-3.0224803149606299
11
6.1746062992125985
21
-3.0224803149606299
0
LINE
8
BLACK
6
CONTINUOUS
10
6.1746062992125985
20
-3.0224803149606299
11
6.1746062992125985
21
-2.8921653543307086
0
LINE
8
BLACK
6
CONTINUOUS
10
6.1746062992125985
20
-2.8921653543307086
11
6.1017716535433069
21
-2.8921653543307086
0
LINE
8
BLACK
6
CONTINUOUS
10
6.4255905511811022
20
-2.8901968503937008
11
6.4262865354330705
21
-2.8904851181102362
0
LINE
8
BLACK
6
CONTINUOUS
10
6.4262865354330705
20
-2.8904851181102362
11
6.4265748031496059
21
-2.8911811023622045
0
LINE
8
BLACK
6
CONTINUOUS
10
6.4265748031496059
20
-2.8911811023622045
11
6.4265748031496059
21
-3.0234645669291336
0
LINE
8
BLACK
6
CONTINUOUS
10
6.4265748031496059
20
-3.0234645669291336
11
6.4262865354330705
21
-3.0241605511811023
0
LINE
8
BLACK
6
CONTINUOUS
10
6.4262865354330705
20
-3.0241605511811023
11
6.4255905511811022
21
-3.0244488188976377
0
LINE
8
BLACK
6
CONTINUOUS
10
6.4255905511811022
20
-3.0244488188976377
11
6.3507874015748031
21
-3.0244488188976377
0
LINE
8
BLACK
6
CONTINUOUS
10
6.3507874015748031
20
-3.0244488188976377
11
6.3500914173228349
21
-3.0241605511811023
0
LINE
8
BLACK
6
CONTINUOUS
10
6.3500914173228349
20
-3.0241605511811023
11
6.3498031496062994
21
-3.0234645669291336
0
LINE
8
BLACK
6
CONTINUOUS
10
6.3498031496062994
20
-3.0234645669291336
11
6.3498031496062994
21
-2.8911811023622045
0
LINE
8
BLACK
6
CONTINUOUS
10
6.3498031496062994
20
-2.8911811023622045
11
6.3500914173228349
21
-2.8904851181102362
0
LINE
8
BLACK
6
CONTINUOUS
10
6.3500914173228349
20
-2.8904851181102362
11
6.3507874015748031
21
-2.8901968503937008
0
LINE
8
BLACK
6
CONTINUOUS
10
6.3507874015748031
20
-2.8901968503937008
11
6.4255905511811022
21
-2.8901968503937008
0
LINE
8
BLACK
6
CONTINUOUS
10
6.3517716535433069
20
-2.8921653543307086
11
6.3517716535433069
21
-3.0224803149606299
0
LINE
8
BLACK
6
CONTINUOUS
10
6.3517716535433069
20
-3.0224803149606299
11
6.4246062992125985
21
-3.0224803149606299
0
LINE
8
BLACK
6
CONTINUOUS
10
6.4246062992125985
20
-3.0224803149606299
11
6.4246062992125985
21
-2.8921653543307086
0
LINE
8
BLACK
6
CONTINUOUS
10
6.4246062992125985
20
-2.8921653543307086
11
6.3517716535433069
21
-2.8921653543307086
0
LINE
8
BLACK
6
CONTINUOUS
10
5.7374015748031493
20
-2.8836614173228345
11
5.7380975590551175
21
-2.88394968503937
0
LINE
8
BLACK
6
CONTINUOUS
10
5.7380975590551175
20
-2.88394968503937
11
5.738385826771653
21
-2.8846456692913387
0
LINE
8
BLACK
6
CONTINUOUS
10
5.738385826771653
20
-2.8846456692913387
11
5.738385826771653
21
-3.0169291338582678
0
LINE
8
BLACK
6
CONTINUOUS
10
5.738385826771653
20
-3.0169291338582678
11
5.7380975590551175
21
-3.017625118110236
0
LINE
8
BLACK
6
CONTINUOUS
10
5.7380975590551175
20
-3.017625118110236
11
5.7374015748031493
21
-3.0179133858267715
0
LINE
8
BLACK
6
CONTINUOUS
10
5.7374015748031493
20
-3.0179133858267715
11
5.6625984251968502
21
-3.0179133858267715
0
LINE
8
BLACK
6
CONTINUOUS
10
5.6625984251968502
20
-3.0179133858267715
11
5.6619024409448819
21
-3.017625118110236
0
LINE
8
BLACK
6
CONTINUOUS
10
5.6619024409448819
20
-3.017625118110236
11
5.6616141732283465
21
-3.0169291338582678
0
LINE
8
BLACK
6
CONTINUOUS
10
5.6616141732283465
20
-3.0169291338582678
11
5.6616141732283465
21
-2.8846456692913387
0
LINE
8
BLACK
6
CONTINUOUS
10
5.6616141732283465
20
-2.8846456692913387
11
5.6619024409448819
21
-2.88394968503937
0
LINE
8
BLACK
6
CONTINUOUS
10
5.6619024409448819
20
-2.88394968503937
11
5.6625984251968502
21
-2.8836614173228345
0
LINE
8
BLACK
6
CONTINUOUS
10
5.6625984251968502
20
-2.8836614173228345
11
5.7374015748031493
21
-2.8836614173228345
0
LINE
8
BLACK
6
CONTINUOUS
10
5.6635826771653539
20
-2.8856299212598424
11
5.6635826771653539
21
-3.0159448818897636
0
LINE
8
BLACK
6
CONTINUOUS
10
5.6635826771653539
20
-3.0159448818897636
11
5.7364173228346456
21
-3.0159448818897636
0
LINE
8
BLACK
6
CONTINUOUS
10
5.7364173228346456
20
-3.0159448818897636
11
5.7364173228346456
21
-2.8856299212598424
0
LINE
8
BLACK
6
CONTINUOUS
10
5.7364173228346456
20
-2.8856299212598424
11
5.6635826771653539
21
-2.8856299212598424
0
LINE
8
BLACK
6
CONTINUOUS
10
5.8374015748031498
20
-2.8836614173228345
11
5.8380975590551181
21
-2.88394968503937
0
LINE
8
BLACK
6
CONTINUOUS
10
5.8380975590551181
20
-2.88394968503937
11
5.8383858267716535
21
-2.8846456692913387
0
LINE
8
BLACK
6
CONTINUOUS
10
5.8383858267716535
20
-2.8846456692913387
11
5.8383858267716535
21
-3.0169291338582678
0
LINE
8
BLACK
6
CONTINUOUS
10
5.8383858267716535
20
-3.0169291338582678
11
5.8380975590551181
21
-3.017625118110236
0
LINE
8
BLACK
6
CONTINUOUS
10
5.8380975590551181
20
-3.017625118110236
11
5.8374015748031498
21
-3.0179133858267715
0
LINE
8
BLACK
6
CONTINUOUS
10
5.8374015748031498
20
-3.0179133858267715
11
5.7625984251968498
21
-3.0179133858267715
0
LINE
8
BLACK
6
CONTINUOUS
10
5.7625984251968498
20
-3.0179133858267715
11
5.7619024409448816
21
-3.017625118110236
0
LINE
8
BLACK
6
CONTINUOUS
10
5.7619024409448816
20
-3.017625118110236
11
5.7616141732283461
21
-3.0169291338582678
0
LINE
8
BLACK
6
CONTINUOUS
10
5.7616141732283461
20
-3.0169291338582678
11
5.7616141732283461
21
-2.8846456692913387
0
LINE
8
BLACK
6
CONTINUOUS
10
5.7616141732283461
20
-2.8846456692913387
11
5.7619024409448816
21
-2.88394968503937
0
LINE
8
BLACK
6
CONTINUOUS
10
5.7619024409448816
20
-2.88394968503937
11
5.7625984251968498
21
-2.8836614173228345
0
LINE
8
BLACK
6
CONTINUOUS
10
5.7625984251968498
20
-2.8836614173228345
11
5.8374015748031498
21
-2.8836614173228345
0
LINE
8
BLACK
6
CONTINUOUS
10
5.7635826771653544
20
-2.8856299212598424
11
5.7635826771653544
21
-3.0159448818897636
0
LINE
8
BLACK
6
CONTINUOUS
10
5.7635826771653544
20
-3.0159448818897636
11
5.8364173228346452
21
-3.0159448818897636
0
LINE
8
BLACK
6
CONTINUOUS
10
5.8364173228346452
20
-3.0159448818897636
11
5.8364173228346452
21
-2.8856299212598424
0
LINE
8
BLACK
6
CONTINUOUS
10
5.8364173228346452
20
-2.8856299212598424
11
5.7635826771653544
21
-2.8856299212598424
0
LINE
8
BLACK
6
CONTINUOUS
10
4.8628583858267715
20
-2.6208738976377952
11
4.8761118110236223
21
-2.624015
0
LINE
8
BLACK
6
CONTINUOUS
10
4.8761118110236223
20
-2.624015
11
4.8889109055118105
21
-2.6286735039370077
0
LINE
8
BLACK
6
CONTINUOUS
10
4.8889109055118105
20
-2.6286735039370077
11
4.9010826771653546
21
-2.6347863779527558
0
LINE
8
BLACK
6
CONTINUOUS
10
4.9010826771653546
20
-2.6347863779527558
11
4.9124624803149608
21
-2.642271023622047
0
LINE
8
BLACK
6
CONTINUOUS
10
4.9124624803149608
20
-2.642271023622047
11
4.9228964173228347
21
-2.6510261023622048
0
LINE
8
BLACK
6
CONTINUOUS
10
4.9228964173228347
20
-2.6510261023622048
11
4.9322433858267711
21
-2.6609333464566927
0
LINE
8
BLACK
6
CONTINUOUS
10
4.9322433858267711
20
-2.6609333464566927
11
4.9403770078740159
21
-2.6718587007874017
0
LINE
8
BLACK
6
CONTINUOUS
10
4.9403770078740159
20
-2.6718587007874017
11
4.9471872834645669
21
-2.6836544094488191
0
LINE
8
BLACK
6
CONTINUOUS
10
4.9471872834645669
20
-2.6836544094488191
11
4.952582125984252
21
-2.696161023622047
0
LINE
8
BLACK
6
CONTINUOUS
10
4.952582125984252
20
-2.696161023622047
11
4.9564885039370079
21
-2.7092093700787401
0
LINE
8
BLACK
6
CONTINUOUS
10
4.9564885039370079
20
-2.7092093700787401
11
4.9588537007874018
21
-2.7226229921259844
0
LINE
8
BLACK
6
CONTINUOUS
10
4.9588537007874018
20
-2.7226229921259844
11
4.9596456692913389
21
-2.7362204724409449
0
LINE
8
BLACK
6
CONTINUOUS
10
4.9596456692913389
20
-2.7362204724409449
11
4.9588537007874018
21
-2.7498179527559055
0
LINE
8
BLACK
6
CONTINUOUS
10
4.9588537007874018
20
-2.7498179527559055
11
4.9564885039370079
21
-2.7632315748031497
0
LINE
8
BLACK
6
CONTINUOUS
10
4.9564885039370079
20
-2.7632315748031497
11
4.952582125984252
21
-2.7762799212598424
0
LINE
8
BLACK
6
CONTINUOUS
10
4.952582125984252
20
-2.7762799212598424
11
4.9471872834645669
21
-2.7887865354330708
0
LINE
8
BLACK
6
CONTINUOUS
10
4.9471872834645669
20
-2.7887865354330708
11
4.9403770078740159
21
-2.8005822440944881
0
LINE
8
BLACK
6
CONTINUOUS
10
4.9403770078740159
20
-2.8005822440944881
11
4.9322433858267711
21
-2.8115075984251967
0
LINE
8
BLACK
6
CONTINUOUS
10
4.9322433858267711
20
-2.8115075984251967
11
4.9228964173228347
21
-2.821414842519685
0
LINE
8
BLACK
6
CONTINUOUS
10
4.9228964173228347
20
-2.821414842519685
11
4.9124624803149608
21
-2.8301699212598423
0
LINE
8
BLACK
6
CONTINUOUS
10
4.9124624803149608
20
-2.8301699212598423
11
4.9010826771653546
21
-2.837654566929134
0
LINE
8
BLACK
6
CONTINUOUS
10
4.9010826771653546
20
-2.837654566929134
11
4.8889109055118105
21
-2.8437674409448817
0
LINE
8
BLACK
6
CONTINUOUS
10
4.8889109055118105
20
-2.8437674409448817
11
4.8761118110236223
21
-2.8484259448818898
0
LINE
8
BLACK
6
CONTINUOUS
10
4.8761118110236223
20
-2.8484259448818898
11
4.8628583858267715
21
-2.8515670472440946
0
LINE
8
BLACK
6
CONTINUOUS
10
4.8628583858267715
20
-2.8515670472440946
11
4.8493299606299214
21
-2.8531483070866139
0
LINE
8
BLACK
6
CONTINUOUS
10
4.8493299606299214
20
-2.8531483070866139
11
4.8357094094488184
21
-2.8531483070866139
0
LINE
8
BLACK
6
CONTINUOUS
10
4.8357094094488184
20
-2.8531483070866139
11
4.8221809842519683
21
-2.8515670472440946
0
LINE
8
BLACK
6
CONTINUOUS
10
4.8221809842519683
20
-2.8515670472440946
11
4.8089275590551184
21
-2.8484259448818898
0
LINE
8
BLACK
6
CONTINUOUS
10
4.8089275590551184
20
-2.8484259448818898
11
4.7961284645669293
21
-2.8437674409448817
0
LINE
8
BLACK
6
CONTINUOUS
10
4.7961284645669293
20
-2.8437674409448817
11
4.7839566929133861
21
-2.837654566929134
0
LINE
8
BLACK
6
CONTINUOUS
10
4.7839566929133861
20
-2.837654566929134
11
4.772576889763779
21
-2.8301699212598423
0
LINE
8
BLACK
6
CONTINUOUS
10
4.772576889763779
20
-2.8301699212598423
11
4.7621429527559052
21
-2.821414842519685
0
LINE
8
BLACK
6
CONTINUOUS
10
4.7621429527559052
20
-2.821414842519685
11
4.7527959842519687
21
-2.8115075984251967
0
LINE
8
BLACK
6
CONTINUOUS
10
4.7527959842519687
20
-2.8115075984251967
11
4.7446623622047239
21
-2.8005822440944881
0
LINE
8
BLACK
6
CONTINUOUS
10
4.7446623622047239
20
-2.8005822440944881
11
4.7378520866141729
21
-2.7887865354330708
0
LINE
8
BLACK
6
CONTINUOUS
10
4.7378520866141729
20
-2.7887865354330708
11
4.7324572440944879
21
-2.7762799212598424
0
LINE
8
BLACK
6
CONTINUOUS
10
4.7324572440944879
20
-2.7762799212598424
11
4.7285508661417319
21
-2.7632315748031497
0
LINE
8
BLACK
6
CONTINUOUS
10
4.7285508661417319
20
-2.7632315748031497
11
4.7261856692913389
21
-2.7498179527559055
0
LINE
8
BLACK
6
CONTINUOUS
10
4.7261856692913389
20
-2.7498179527559055
11
4.7253937007874018
21
-2.7362204724409449
0
LINE
8
BLACK
6
CONTINUOUS
10
4.7253937007874018
20
-2.7362204724409449
11
4.7261856692913389
21
-2.7226229921259844
0
LINE
8
BLACK
6
CONTINUOUS
10
4.7261856692913389
20
-2.7226229921259844
11
4.7285508661417319
21
-2.7092093700787401
0
LINE
8
BLACK
6
CONTINUOUS
10
4.7285508661417319
20
-2.7092093700787401
11
4.7324572440944879
21
-2.696161023622047
0
LINE
8
BLACK
6
CONTINUOUS
10
4.7324572440944879
20
-2.696161023622047
11
4.7378520866141729
21
-2.6836544094488191
0
LINE
8
BLACK
6
CONTINUOUS
10
4.7378520866141729
20
-2.6836544094488191
11
4.7446623622047239
21
-2.6718587007874017
0
LINE
8
BLACK
6
CONTINUOUS
10
4.7446623622047239
20
-2.6718587007874017
11
4.7527959842519687
21
-2.6609333464566927
0
LINE
8
BLACK
6
CONTINUOUS
10
4.7527959842519687
20
-2.6609333464566927
11
4.7621429527559052
21
-2.6510261023622048
0
LINE
8
BLACK
6
CONTINUOUS
10
4.7621429527559052
20
-2.6510261023622048
11
4.772576889763779
21
-2.642271023622047
0
LINE
8
BLACK
6
CONTINUOUS
10
4.772576889763779
20
-2.642271023622047
11
4.7839566929133861
21
-2.6347863779527558
0
LINE
8
BLACK
6
CONTINUOUS
10
4.7839566929133861
20
-2.6347863779527558
11
4.7961284645669293
21
-2.6286735039370077
0
LINE
8
BLACK
6
CONTINUOUS
10
4.7961284645669293
20
-2.6286735039370077
11
4.8089275590551184
21
-2.624015
0
LINE
8
BLACK
6
CONTINUOUS
10
4.8089275590551184
20
-2.624015
11
4.8221809842519683
21
-2.6208738976377952
0
LINE
8
BLACK
6
CONTINUOUS
10
4.8221809842519683
20
-2.6208738976377952
11
4.8357094094488184
21
-2.6192926377952754
0
LINE
8
BLACK
6
CONTINUOUS
10
4.8357094094488184
20
-2.6192926377952754
11
4.8493299606299214
21
-2.6192926377952754
0
LINE
8
BLACK
6
CONTINUOUS
10
4.8493299606299214
20
-2.6192926377952754
11
4.8628583858267715
21
-2.6208738976377952
0
LINE
8
BLACK
6
CONTINUOUS
10
4.7279470078740156
20
-2.7496120866141731
11
4.7302763779527561
21
-2.7628226377952756
0
LINE
8
BLACK
6
CONTINUOUS
10
4.7302763779527561
20
-2.7628226377952756
11
4.734123661417323
21
-2.7756733858267717
0
LINE
8
BLACK
6
CONTINUOUS
10
4.734123661417323
20
-2.7756733858267717
11
4.739436811023622
21
-2.7879906299212598
0
LINE
8
BLACK
6
CONTINUOUS
10
4.739436811023622
20
-2.7879906299212598
11
4.7461439763779527
21
-2.7996077952755907
0
LINE
8
BLACK
6
CONTINUOUS
10
4.7461439763779527
20
-2.7996077952755907
11
4.7541544488188974
21
-2.810367716535433
0
LINE
8
BLACK
6
CONTINUOUS
10
4.7541544488188974
20
-2.810367716535433
11
4.7633599212598421
21
-2.8201249212598425
0
LINE
8
BLACK
6
CONTINUOUS
10
4.7633599212598421
20
-2.8201249212598425
11
4.7736358661417322
21
-2.8287474803149606
0
LINE
8
BLACK
6
CONTINUOUS
10
4.7736358661417322
20
-2.8287474803149606
11
4.7848433464566931
21
-2.8361187795275589
0
LINE
8
BLACK
6
CONTINUOUS
10
4.7848433464566931
20
-2.8361187795275589
11
4.7968308267716537
21
-2.8421391338582676
0
LINE
8
BLACK
6
CONTINUOUS
10
4.7968308267716537
20
-2.8421391338582676
11
4.8094361811023623
21
-2.8467270866141732
0
LINE
8
BLACK
6
CONTINUOUS
10
4.8094361811023623
20
-2.8467270866141732
11
4.8224888976377951
21
-2.8498206299212598
0
LINE
8
BLACK
6
CONTINUOUS
10
4.8224888976377951
20
-2.8498206299212598
11
4.8358125196850397
21
-2.8513779527559056
0
LINE
8
BLACK
6
CONTINUOUS
10
4.8358125196850397
20
-2.8513779527559056
11
4.849226850393701
21
-2.8513779527559056
0
LINE
8
BLACK
6
CONTINUOUS
10
4.849226850393701
20
-2.8513779527559056
11
4.8625504724409447
21
-2.8498206299212598
0
LINE
8
BLACK
6
CONTINUOUS
10
4.8625504724409447
20
-2.8498206299212598
11
4.8756031889763776
21
-2.8467270866141732
0
LINE
8
BLACK
6
CONTINUOUS
10
4.8756031889763776
20
-2.8467270866141732
11
4.8882085433070861
21
-2.8421391338582676
0
LINE
8
BLACK
6
CONTINUOUS
10
4.8882085433070861
20
-2.8421391338582676
11
4.9001960236220468
21
-2.8361187795275589
0
LINE
8
BLACK
6
CONTINUOUS
10
4.9001960236220468
20
-2.8361187795275589
11
4.9114035039370076
21
-2.8287474803149606
0
LINE
8
BLACK
6
CONTINUOUS
10
4.9114035039370076
20
-2.8287474803149606
11
4.9216794488188977
21
-2.8201249212598425
0
LINE
8
BLACK
6
CONTINUOUS
10
4.9216794488188977
20
-2.8201249212598425
11
4.9308849212598425
21
-2.810367716535433
0
LINE
8
BLACK
6
CONTINUOUS
10
4.9308849212598425
20
-2.810367716535433
11
4.9388953937007871
21
-2.7996077952755907
0
LINE
8
BLACK
6
CONTINUOUS
10
4.9388953937007871
20
-2.7996077952755907
11
4.9456025590551178
21
-2.7879906299212598
0
LINE
8
BLACK
6
CONTINUOUS
10
4.9456025590551178
20
-2.7879906299212598
11
4.9509157086614168
21
-2.7756733858267717
0
LINE
8
BLACK
6
CONTINUOUS
10
4.9509157086614168
20
-2.7756733858267717
11
4.9547629921259837
21
-2.7628226377952756
0
LINE
8
BLACK
6
CONTINUOUS
10
4.9547629921259837
20
-2.7628226377952756
11
4.9570923622047243
21
-2.7496120866141731
0
LINE
8
BLACK
6
CONTINUOUS
10
4.9570923622047243
20
-2.7496120866141731
11
4.9578723228346453
21
-2.7362204724409449
0
LINE
8
BLACK
6
CONTINUOUS
10
4.9578723228346453
20
-2.7362204724409449
11
4.9570923622047243
21
-2.7228288582677163
0
LINE
8
BLACK
6
CONTINUOUS
10
4.9570923622047243
20
-2.7228288582677163
11
4.9547629921259837
21
-2.7096183070866142
0
LINE
8
BLACK
6
CONTINUOUS
10
4.9547629921259837
20
-2.7096183070866142
11
4.9509157086614168
21
-2.6967675590551181
0
LINE
8
BLACK
6
CONTINUOUS
10
4.9509157086614168
20
-2.6967675590551181
11
4.9456025590551178
21
-2.68445031496063
0
LINE
8
BLACK
6
CONTINUOUS
10
4.9456025590551178
20
-2.68445031496063
11
4.9388953937007871
21
-2.6728331496062991
0
LINE
8
BLACK
6
CONTINUOUS
10
4.9388953937007871
20
-2.6728331496062991
11
4.9308849212598425
21
-2.6620732283464568
0
LINE
8
BLACK
6
CONTINUOUS
10
4.9308849212598425
20
-2.6620732283464568
11
4.9216794488188977
21
-2.6523160236220473
0
LINE
8
BLACK
6
CONTINUOUS
10
4.9216794488188977
20
-2.6523160236220473
11
4.9114035039370076
21
-2.6436934645669292
0
LINE
8
BLACK
6
CONTINUOUS
10
4.9114035039370076
20
-2.6436934645669292
11
4.9001960236220468
21
-2.6363221653543305
0
LINE
8
BLACK
6
CONTINUOUS
10
4.9001960236220468
20
-2.6363221653543305
11
4.8882085433070861
21
-2.6303018110236218
0
LINE
8
BLACK
6
CONTINUOUS
10
4.8882085433070861
20
-2.6303018110236218
11
4.8756031889763776
21
-2.6257138582677166
0
LINE
8
BLACK
6
CONTINUOUS
10
4.8756031889763776
20
-2.6257138582677166
11
4.8625504724409447
21
-2.62262031496063
0
LINE
8
BLACK
6
CONTINUOUS
10
4.8625504724409447
20
-2.62262031496063
11
4.849226850393701
21
-2.6210629921259843
0
LINE
8
BLACK
6
CONTINUOUS
10
4.849226850393701
20
-2.6210629921259843
11
4.8358125196850397
21
-2.6210629921259843
0
LINE
8
BLACK
6
CONTINUOUS
10
4.8358125196850397
20
-2.6210629921259843
11
4.8224888976377951
21
-2.62262031496063
0
LINE
8
BLACK
6
CONTINUOUS
10
4.8224888976377951
20
-2.62262031496063
11
4.8094361811023623
21
-2.6257138582677166
0
LINE
8
BLACK
6
CONTINUOUS
10
4.8094361811023623
20
-2.6257138582677166
11
4.7968308267716537
21
-2.6303018110236218
0
LINE
8
BLACK
6
CONTINUOUS
10
4.7968308267716537
20
-2.6303018110236218
11
4.7848433464566931
21
-2.6363221653543305
0
LINE
8
BLACK
6
CONTINUOUS
10
4.7848433464566931
20
-2.6363221653543305
11
4.7736358661417322
21
-2.6436934645669292
0
LINE
8
BLACK
6
CONTINUOUS
10
4.7736358661417322
20
-2.6436934645669292
11
4.7633599212598421
21
-2.6523160236220473
0
LINE
8
BLACK
6
CONTINUOUS
10
4.7633599212598421
20
-2.6523160236220473
11
4.7541544488188974
21
-2.6620732283464568
0
LINE
8
BLACK
6
CONTINUOUS
10
4.7541544488188974
20
-2.6620732283464568
11
4.7461439763779527
21
-2.6728331496062991
0
LINE
8
BLACK
6
CONTINUOUS
10
4.7461439763779527
20
-2.6728331496062991
11
4.739436811023622
21
-2.68445031496063
0
LINE
8
BLACK
6
CONTINUOUS
10
4.739436811023622
20
-2.68445031496063
11
4.734123661417323
21
-2.6967675590551181
0
LINE
8
BLACK
6
CONTINUOUS
10
4.734123661417323
20
-2.6967675590551181
11
4.7302763779527561
21
-2.7096183070866142
0
LINE
8
BLACK
6
CONTINUOUS
10
4.7302763779527561
20
-2.7096183070866142
11
4.7279470078740156
21
-2.7228288582677163
0
LINE
8
BLACK
6
CONTINUOUS
10
4.7279470078740156
20
-2.7228288582677163
11
4.7271670472440945
21
-2.7362204724409449
0
LINE
8
BLACK
6
CONTINUOUS
10
4.7271670472440945
20
-2.7362204724409449
11
4.7279470078740156
21
-2.7496120866141731
0
LINE
8
BLACK
6
CONTINUOUS
10
6.9888426377952753
20
-2.6208738976377952
11
7.0020960629921261
21
-2.624015
0
LINE
8
BLACK
6
CONTINUOUS
10
7.0020960629921261
20
-2.624015
11
7.0148951574803151
21
-2.6286735039370077
0
LINE
8
BLACK
6
CONTINUOUS
10
7.0148951574803151
20
-2.6286735039370077
11
7.0270669291338583
21
-2.6347863779527558
0
LINE
8
BLACK
6
CONTINUOUS
10
7.0270669291338583
20
-2.6347863779527558
11
7.0384467322834645
21
-2.642271023622047
0
LINE
8
BLACK
6
CONTINUOUS
10
7.0384467322834645
20
-2.642271023622047
11
7.0488806692913384
21
-2.6510261023622048
0
LINE
8
BLACK
6
CONTINUOUS
10
7.0488806692913384
20
-2.6510261023622048
11
7.0582276377952757
21
-2.6609333464566927
0
LINE
8
BLACK
6
CONTINUOUS
10
7.0582276377952757
20
-2.6609333464566927
11
7.0663612598425196
21
-2.6718587007874017
0
LINE
8
BLACK
6
CONTINUOUS
10
7.0663612598425196
20
-2.6718587007874017
11
7.0731715354330706
21
-2.6836544094488191
0
LINE
8
BLACK
6
CONTINUOUS
10
7.0731715354330706
20
-2.6836544094488191
11
7.0785663779527557
21
-2.696161023622047
0
LINE
8
BLACK
6
CONTINUOUS
10
7.0785663779527557
20
-2.696161023622047
11
7.0824727559055116
21
-2.7092093700787401
0
LINE
8
BLACK
6
CONTINUOUS
10
7.0824727559055116
20
-2.7092093700787401
11
7.0848379527559056
21
-2.7226229921259844
0
LINE
8
BLACK
6
CONTINUOUS
10
7.0848379527559056
20
-2.7226229921259844
11
7.0856299212598426
21
-2.7362204724409449
0
LINE
8
BLACK
6
CONTINUOUS
10
7.0856299212598426
20
-2.7362204724409449
11
7.0848379527559056
21
-2.7498179527559055
0
LINE
8
BLACK
6
CONTINUOUS
10
7.0848379527559056
20
-2.7498179527559055
11
7.0824727559055116
21
-2.7632315748031497
0
LINE
8
BLACK
6
CONTINUOUS
10
7.0824727559055116
20
-2.7632315748031497
11
7.0785663779527557
21
-2.7762799212598424
0
LINE
8
BLACK
6
CONTINUOUS
10
7.0785663779527557
20
-2.7762799212598424
11
7.0731715354330706
21
-2.7887865354330708
0
LINE
8
BLACK
6
CONTINUOUS
10
7.0731715354330706
20
-2.7887865354330708
11
7.0663612598425196
21
-2.8005822440944881
0
LINE
8
BLACK
6
CONTINUOUS
10
7.0663612598425196
20
-2.8005822440944881
11
7.0582276377952757
21
-2.8115075984251967
0
LINE
8
BLACK
6
CONTINUOUS
10
7.0582276377952757
20
-2.8115075984251967
11
7.0488806692913384
21
-2.821414842519685
0
LINE
8
BLACK
6
CONTINUOUS
10
7.0488806692913384
20
-2.821414842519685
11
7.0384467322834645
21
-2.8301699212598423
0
LINE
8
BLACK
6
CONTINUOUS
10
7.0384467322834645
20
-2.8301699212598423
11
7.0270669291338583
21
-2.837654566929134
0
LINE
8
BLACK
6
CONTINUOUS
10
7.0270669291338583
20
-2.837654566929134
11
7.0148951574803151
21
-2.8437674409448817
0
LINE
8
BLACK
6
CONTINUOUS
10
7.0148951574803151
20
-2.8437674409448817
11
7.0020960629921261
21
-2.8484259448818898
0
LINE
8
BLACK
6
CONTINUOUS
10
7.0020960629921261
20
-2.8484259448818898
11
6.9888426377952753
21
-2.8515670472440946
0
LINE
8
BLACK
6
CONTINUOUS
10
6.9888426377952753
20
-2.8515670472440946
11
6.9753142125984251
21
-2.8531483070866139
0
LINE
8
BLACK
6
CONTINUOUS
10
6.9753142125984251
20
-2.8531483070866139
11
6.961693661417323
21
-2.8531483070866139
0
LINE
8
BLACK
6
CONTINUOUS
10
6.961693661417323
20
-2.8531483070866139
11
6.948165236220472
21
-2.8515670472440946
0
LINE
8
BLACK
6
CONTINUOUS
10
6.948165236220472
20
-2.8515670472440946
11
6.9349118110236221
21
-2.8484259448818898
0
LINE
8
BLACK
6
CONTINUOUS
10
6.9349118110236221
20
-2.8484259448818898
11
6.922112716535433
21
-2.8437674409448817
0
LINE
8
BLACK
6
CONTINUOUS
10
6.922112716535433
20
-2.8437674409448817
11
6.9099409448818898
21
-2.837654566929134
0
LINE
8
BLACK
6
CONTINUOUS
10
6.9099409448818898
20
-2.837654566929134
11
6.8985611417322836
21
-2.8301699212598423
0
LINE
8
BLACK
6
CONTINUOUS
10
6.8985611417322836
20
-2.8301699212598423
11
6.8881272047244089
21
-2.821414842519685
0
LINE
8
BLACK
6
CONTINUOUS
10
6.8881272047244089
20
-2.821414842519685
11
6.8787802362204724
21
-2.8115075984251967
0
LINE
8
BLACK
6
CONTINUOUS
10
6.8787802362204724
20
-2.8115075984251967
11
6.8706466141732285
21
-2.8005822440944881
0
LINE
8
BLACK
6
CONTINUOUS
10
6.8706466141732285
20
-2.8005822440944881
11
6.8638363385826766
21
-2.7887865354330708
0
LINE
8
BLACK
6
CONTINUOUS
10
6.8638363385826766
20
-2.7887865354330708
11
6.8584414960629916
21
-2.7762799212598424
0
LINE
8
BLACK
6
CONTINUOUS
10
6.8584414960629916
20
-2.7762799212598424
11
6.8545351181102356
21
-2.7632315748031497
0
LINE
8
BLACK
6
CONTINUOUS
10
6.8545351181102356
20
-2.7632315748031497
11
6.8521699212598426
21
-2.7498179527559055
0
LINE
8
BLACK
6
CONTINUOUS
10
6.8521699212598426
20
-2.7498179527559055
11
6.8513779527559056
21
-2.7362204724409449
0
LINE
8
BLACK
6
CONTINUOUS
10
6.8513779527559056
20
-2.7362204724409449
11
6.8521699212598426
21
-2.7226229921259844
0
LINE
8
BLACK
6
CONTINUOUS
10
6.8521699212598426
20
-2.7226229921259844
11
6.8545351181102356
21
-2.7092093700787401
0
LINE
8
BLACK
6
CONTINUOUS
10
6.8545351181102356
20
-2.7092093700787401
11
6.8584414960629916
21
-2.696161023622047
0
LINE
8
BLACK
6
CONTINUOUS
10
6.8584414960629916
20
-2.696161023622047
11
6.8638363385826766
21
-2.6836544094488191
0
LINE
8
BLACK
6
CONTINUOUS
10
6.8638363385826766
20
-2.6836544094488191
11
6.8706466141732285
21
-2.6718587007874017
0
LINE
8
BLACK
6
CONTINUOUS
10
6.8706466141732285
20
-2.6718587007874017
11
6.8787802362204724
21
-2.6609333464566927
0
LINE
8
BLACK
6
CONTINUOUS
10
6.8787802362204724
20
-2.6609333464566927
11
6.8881272047244089
21
-2.6510261023622048
0
LINE
8
BLACK
6
CONTINUOUS
10
6.8881272047244089
20
-2.6510261023622048
11
6.8985611417322836
21
-2.642271023622047
0
LINE
8
BLACK
6
CONTINUOUS
10
6.8985611417322836
20
-2.642271023622047
11
6.9099409448818898
21
-2.6347863779527558
0
LINE
8
BLACK
6
CONTINUOUS
10
6.9099409448818898
20
-2.6347863779527558
11
6.922112716535433
21
-2.6286735039370077
0
LINE
8
BLACK
6
CONTINUOUS
10
6.922112716535433
20
-2.6286735039370077
11
6.9349118110236221
21
-2.624015
0
LINE
8
BLACK
6
CONTINUOUS
10
6.9349118110236221
20
-2.624015
11
6.948165236220472
21
-2.6208738976377952
0
LINE
8
BLACK
6
CONTINUOUS
10
6.948165236220472
20
-2.6208738976377952
11
6.961693661417323
21
-2.6192926377952754
0
LINE
8
BLACK
6
CONTINUOUS
10
6.961693661417323
20
-2.6192926377952754
11
6.9753142125984251
21
-2.6192926377952754
0
LINE
8
BLACK
6
CONTINUOUS
10
6.9753142125984251
20
-2.6192926377952754
11
6.9888426377952753
21
-2.6208738976377952
0
LINE
8
BLACK
6
CONTINUOUS
10
6.8539312598425193
20
-2.7496120866141731
11
6.8562606299212598
21
-2.7628226377952756
0
LINE
8
BLACK
6
CONTINUOUS
10
6.8562606299212598
20
-2.7628226377952756
11
6.8601079133858267
21
-2.7756733858267717
0
LINE
8
BLACK
6
CONTINUOUS
10
6.8601079133858267
20
-2.7756733858267717
11
6.8654210629921257
21
-2.7879906299212598
0
LINE
8
BLACK
6
CONTINUOUS
10
6.8654210629921257
20
-2.7879906299212598
11
6.8721282283464564
21
-2.7996077952755907
0
LINE
8
BLACK
6
CONTINUOUS
10
6.8721282283464564
20
-2.7996077952755907
11
6.8801387007874011
21
-2.810367716535433
0
LINE
8
BLACK
6
CONTINUOUS
10
6.8801387007874011
20
-2.810367716535433
11
6.8893441732283467
21
-2.8201249212598425
0
LINE
8
BLACK
6
CONTINUOUS
10
6.8893441732283467
20
-2.8201249212598425
11
6.8996201181102359
21
-2.8287474803149606
0
LINE
8
BLACK
6
CONTINUOUS
10
6.8996201181102359
20
-2.8287474803149606
11
6.9108275984251968
21
-2.8361187795275589
0
LINE
8
BLACK
6
CONTINUOUS
10
6.9108275984251968
20
-2.8361187795275589
11
6.9228150787401574
21
-2.8421391338582676
0
LINE
8
BLACK
6
CONTINUOUS
10
6.9228150787401574
20
-2.8421391338582676
11
6.935420433070866
21
-2.8467270866141732
0
LINE
8
BLACK
6
CONTINUOUS
10
6.935420433070866
20
-2.8467270866141732
11
6.9484731496062988
21
-2.8498206299212598
0
LINE
8
BLACK
6
CONTINUOUS
10
6.9484731496062988
20
-2.8498206299212598
11
6.9617967716535434
21
-2.8513779527559056
0
LINE
8
BLACK
6
CONTINUOUS
10
6.9617967716535434
20
-2.8513779527559056
11
6.9752111023622048
21
-2.8513779527559056
0
LINE
8
BLACK
6
CONTINUOUS
10
6.9752111023622048
20
-2.8513779527559056
11
6.9885347244094485
21
-2.8498206299212598
0
LINE
8
BLACK
6
CONTINUOUS
10
6.9885347244094485
20
-2.8498206299212598
11
7.0015874409448822
21
-2.8467270866141732
0
LINE
8
BLACK
6
CONTINUOUS
10
7.0015874409448822
20
-2.8467270866141732
11
7.0141927952755907
21
-2.8421391338582676
0
LINE
8
BLACK
6
CONTINUOUS
10
7.0141927952755907
20
-2.8421391338582676
11
7.0261802755905514
21
-2.8361187795275589
0
LINE
8
BLACK
6
CONTINUOUS
10
7.0261802755905514
20
-2.8361187795275589
11
7.0373877559055114
21
-2.8287474803149606
0
LINE
8
BLACK
6
CONTINUOUS
10
7.0373877559055114
20
-2.8287474803149606
11
7.0476637007874015
21
-2.8201249212598425
0
LINE
8
BLACK
6
CONTINUOUS
10
7.0476637007874015
20
-2.8201249212598425
11
7.0568691732283462
21
-2.810367716535433
0
LINE
8
BLACK
6
CONTINUOUS
10
7.0568691732283462
20
-2.810367716535433
11
7.0648796456692908
21
-2.7996077952755907
0
LINE
8
BLACK
6
CONTINUOUS
10
7.0648796456692908
20
-2.7996077952755907
11
7.0715868110236215
21
-2.7879906299212598
0
LINE
8
BLACK
6
CONTINUOUS
10
7.0715868110236215
20
-2.7879906299212598
11
7.0768999606299214
21
-2.7756733858267717
0
LINE
8
BLACK
6
CONTINUOUS
10
7.0768999606299214
20
-2.7756733858267717
11
7.0807472440944883
21
-2.7628226377952756
0
LINE
8
BLACK
6
CONTINUOUS
10
7.0807472440944883
20
-2.7628226377952756
11
7.083076614173228
21
-2.7496120866141731
0
LINE
8
BLACK
6
CONTINUOUS
10
7.083076614173228
20
-2.7496120866141731
11
7.083856574803149
21
-2.7362204724409449
0
LINE
8
BLACK
6
CONTINUOUS
10
7.083856574803149
20
-2.7362204724409449
11
7.083076614173228
21
-2.7228288582677163
0
LINE
8
BLACK
6
CONTINUOUS
10
7.083076614173228
20
-2.7228288582677163
11
7.0807472440944883
21
-2.7096183070866142
0
LINE
8
BLACK
6
CONTINUOUS
10
7.0807472440944883
20
-2.7096183070866142
11
7.0768999606299214
21
-2.6967675590551181
0
LINE
8
BLACK
6
CONTINUOUS
10
7.0768999606299214
20
-2.6967675590551181
11
7.0715868110236215
21
-2.68445031496063
0
LINE
8
BLACK
6
CONTINUOUS
10
7.0715868110236215
20
-2.68445031496063
11
7.0648796456692908
21
-2.6728331496062991
0
LINE
8
BLACK
6
CONTINUOUS
10
7.0648796456692908
20
-2.6728331496062991
11
7.0568691732283462
21
-2.6620732283464568
0
LINE
8
BLACK
6
CONTINUOUS
10
7.0568691732283462
20
-2.6620732283464568
11
7.0476637007874015
21
-2.6523160236220473
0
LINE
8
BLACK
6
CONTINUOUS
10
7.0476637007874015
20
-2.6523160236220473
11
7.0373877559055114
21
-2.6436934645669292
0
LINE
8
BLACK
6
CONTINUOUS
10
7.0373877559055114
20
-2.6436934645669292
11
7.0261802755905514
21
-2.6363221653543305
0
LINE
8
BLACK
6
CONTINUOUS
10
7.0261802755905514
20
-2.6363221653543305
11
7.0141927952755907
21
-2.6303018110236218
0
LINE
8
BLACK
6
CONTINUOUS
10
7.0141927952755907
20
-2.6303018110236218
11
7.0015874409448822
21
-2.6257138582677166
0
LINE
8
BLACK
6
CONTINUOUS
10
7.0015874409448822
20
-2.6257138582677166
11
6.9885347244094485
21
-2.62262031496063
0
LINE
8
BLACK
6
CONTINUOUS
10
6.9885347244094485
20
-2.62262031496063
11
6.9752111023622048
21
-2.6210629921259843
0
LINE
8
BLACK
6
CONTINUOUS
10
6.9752111023622048
20
-2.6210629921259843
11
6.9617967716535434
21
-2.6210629921259843
0
LINE
8
BLACK
6
CONTINUOUS
10
6.9617967716535434
20
-2.6210629921259843
11
6.9484731496062988
21
-2.62262031496063
0
LINE
8
BLACK
6
CONTINUOUS
10
6.9484731496062988
20
-2.62262031496063
11
6.935420433070866
21
-2.6257138582677166
0
LINE
8
BLACK
6
CONTINUOUS
10
6.935420433070866
20
-2.6257138582677166
11
6.9228150787401574
21
-2.6303018110236218
0
LINE
8
BLACK
6
CONTINUOUS
10
6.9228150787401574
20
-2.6303018110236218
11
6.9108275984251968
21
-2.6363221653543305
0
LINE
8
BLACK
6
CONTINUOUS
10
6.9108275984251968
20
-2.6363221653543305
11
6.8996201181102359
21
-2.6436934645669292
0
LINE
8
BLACK
6
CONTINUOUS
10
6.8996201181102359
20
-2.6436934645669292
11
6.8893441732283467
21
-2.6523160236220473
0
LINE
8
BLACK
6
CONTINUOUS
10
6.8893441732283467
20
-2.6523160236220473
11
6.8801387007874011
21
-2.6620732283464568
0
LINE
8
BLACK
6
CONTINUOUS
10
6.8801387007874011
20
-2.6620732283464568
11
6.8721282283464564
21
-2.6728331496062991
0
LINE
8
BLACK
6
CONTINUOUS
10
6.8721282283464564
20
-2.6728331496062991
11
6.8654210629921257
21
-2.68445031496063
0
LINE
8
BLACK
6
CONTINUOUS
10
6.8654210629921257
20
-2.68445031496063
11
6.8601079133858267
21
-2.6967675590551181
0
LINE
8
BLACK
6
CONTINUOUS
10
6.8601079133858267
20
-2.6967675590551181
11
6.8562606299212598
21
-2.7096183070866142
0
LINE
8
BLACK
6
CONTINUOUS
10
6.8562606299212598
20
-2.7096183070866142
11
6.8539312598425193
21
-2.7228288582677163
0
LINE
8
BLACK
6
CONTINUOUS
10
6.8539312598425193
20
-2.7228288582677163
11
6.8531512992125982
21
-2.7362204724409449
0
LINE
8
BLACK
6
CONTINUOUS
10
6.8531512992125982
20
-2.7362204724409449
11
6.8539312598425193
21
-2.7496120866141731
0
LINE
8
BLACK
6
CONTINUOUS
10
6.3869212598425191
20
-2.6812125984251969
11
6.3876172440944883
21
-2.6815008661417323
0
LINE
8
BLACK
6
CONTINUOUS
10
6.3876172440944883
20
-2.6815008661417323
11
6.3879055118110237
21
-2.6821968503937006
0
LINE
8
BLACK
6
CONTINUOUS
10
6.3879055118110237
20
-2.6821968503937006
11
6.3879055118110237
21
-2.8318031496062992
0
LINE
8
BLACK
6
CONTINUOUS
10
6.3879055118110237
20
-2.8318031496062992
11
6.3876172440944883
21
-2.8324991338582675
0
LINE
8
BLACK
6
CONTINUOUS
10
6.3876172440944883
20
-2.8324991338582675
11
6.3869212598425191
21
-2.8327874015748029
0
LINE
8
BLACK
6
CONTINUOUS
10
6.3869212598425191
20
-2.8327874015748029
11
6.1270787401574802
21
-2.8327874015748029
0
LINE
8
BLACK
6
CONTINUOUS
10
6.1270787401574802
20
-2.8327874015748029
11
6.126382755905512
21
-2.8324991338582675
0
LINE
8
BLACK
6
CONTINUOUS
10
6.126382755905512
20
-2.8324991338582675
11
6.1260944881889765
21
-2.8318031496062992
0
LINE
8
BLACK
6
CONTINUOUS
10
6.1260944881889765
20
-2.8318031496062992
11
6.1260944881889765
21
-2.6821968503937006
0
LINE
8
BLACK
6
CONTINUOUS
10
6.1260944881889765
20
-2.6821968503937006
11
6.126382755905512
21
-2.6815008661417323
0
LINE
8
BLACK
6
CONTINUOUS
10
6.126382755905512
20
-2.6815008661417323
11
6.1270787401574802
21
-2.6812125984251969
0
LINE
8
BLACK
6
CONTINUOUS
10
6.1270787401574802
20
-2.6812125984251969
11
6.3869212598425191
21
-2.6812125984251969
0
LINE
8
BLACK
6
CONTINUOUS
10
6.1280629921259839
20
-2.6831811023622048
11
6.1280629921259839
21
-2.830818897637795
0
LINE
8
BLACK
6
CONTINUOUS
10
6.1280629921259839
20
-2.830818897637795
11
6.3859370078740154
21
-2.830818897637795
0
LINE
8
BLACK
6
CONTINUOUS
10
6.3859370078740154
20
-2.830818897637795
11
6.3859370078740154
21
-2.6831811023622048
0
LINE
8
BLACK
6
CONTINUOUS
10
6.3859370078740154
20
-2.6831811023622048
11
6.1280629921259839
21
-2.6831811023622048
0
LINE
8
BLACK
6
CONTINUOUS
10
5.7374015748031493
20
-2.6956614173228344
11
5.7380975590551175
21
-2.6959496850393698
0
LINE
8
BLACK
6
CONTINUOUS
10
5.7380975590551175
20
-2.6959496850393698
11
5.738385826771653
21
-2.6966456692913385
0
LINE
8
BLACK
6
CONTINUOUS
10
5.738385826771653
20
-2.6966456692913385
11
5.738385826771653
21
-2.8289291338582676
0
LINE
8
BLACK
6
CONTINUOUS
10
5.738385826771653
20
-2.8289291338582676
11
5.7380975590551175
21
-2.8296251181102363
0
LINE
8
BLACK
6
CONTINUOUS
10
5.7380975590551175
20
-2.8296251181102363
11
5.7374015748031493
21
-2.8299133858267718
0
LINE
8
BLACK
6
CONTINUOUS
10
5.7374015748031493
20
-2.8299133858267718
11
5.6625984251968502
21
-2.8299133858267718
0
LINE
8
BLACK
6
CONTINUOUS
10
5.6625984251968502
20
-2.8299133858267718
11
5.6619024409448819
21
-2.8296251181102363
0
LINE
8
BLACK
6
CONTINUOUS
10
5.6619024409448819
20
-2.8296251181102363
11
5.6616141732283465
21
-2.8289291338582676
0
LINE
8
BLACK
6
CONTINUOUS
10
5.6616141732283465
20
-2.8289291338582676
11
5.6616141732283465
21
-2.6966456692913385
0
LINE
8
BLACK
6
CONTINUOUS
10
5.6616141732283465
20
-2.6966456692913385
11
5.6619024409448819
21
-2.6959496850393698
0
LINE
8
BLACK
6
CONTINUOUS
10
5.6619024409448819
20
-2.6959496850393698
11
5.6625984251968502
21
-2.6956614173228344
0
LINE
8
BLACK
6
CONTINUOUS
10
5.6625984251968502
20
-2.6956614173228344
11
5.7374015748031493
21
-2.6956614173228344
0
LINE
8
BLACK
6
CONTINUOUS
10
5.6635826771653539
20
-2.6976299212598422
11
5.6635826771653539
21
-2.8279448818897639
0
LINE
8
BLACK
6
CONTINUOUS
10
5.6635826771653539
20
-2.8279448818897639
11
5.7364173228346456
21
-2.8279448818897639
0
LINE
8
BLACK
6
CONTINUOUS
10
5.7364173228346456
20
-2.8279448818897639
11
5.7364173228346456
21
-2.6976299212598422
0
LINE
8
BLACK
6
CONTINUOUS
10
5.7364173228346456
20
-2.6976299212598422
11
5.6635826771653539
21
-2.6976299212598422
0
LINE
8
BLACK
6
CONTINUOUS
10
5.8374015748031498
20
-2.6956614173228344
11
5.8380975590551181
21
-2.6959496850393698
0
LINE
8
BLACK
6
CONTINUOUS
10
5.8380975590551181
20
-2.6959496850393698
11
5.8383858267716535
21
-2.6966456692913385
0
LINE
8
BLACK
6
CONTINUOUS
10
5.8383858267716535
20
-2.6966456692913385
11
5.8383858267716535
21
-2.8289291338582676
0
LINE
8
BLACK
6
CONTINUOUS
10
5.8383858267716535
20
-2.8289291338582676
11
5.8380975590551181
21
-2.8296251181102363
0
LINE
8
BLACK
6
CONTINUOUS
10
5.8380975590551181
20
-2.8296251181102363
11
5.8374015748031498
21
-2.8299133858267718
0
LINE
8
BLACK
6
CONTINUOUS
10
5.8374015748031498
20
-2.8299133858267718
11
5.7625984251968498
21
-2.8299133858267718
0
LINE
8
BLACK
6
CONTINUOUS
10
5.7625984251968498
20
-2.8299133858267718
11
5.7619024409448816
21
-2.8296251181102363
0
LINE
8
BLACK
6
CONTINUOUS
10
5.7619024409448816
20
-2.8296251181102363
11
5.7616141732283461
21
-2.8289291338582676
0
LINE
8
BLACK
6
CONTINUOUS
10
5.7616141732283461
20
-2.8289291338582676
11
5.7616141732283461
21
-2.6966456692913385
0
LINE
8
BLACK
6
CONTINUOUS
10
5.7616141732283461
20
-2.6966456692913385
11
5.7619024409448816
21
-2.6959496850393698
0
LINE
8
BLACK
6
CONTINUOUS
10
5.7619024409448816
20
-2.6959496850393698
11
5.7625984251968498
21
-2.6956614173228344
0
LINE
8
BLACK
6
CONTINUOUS
10
5.7625984251968498
20
-2.6956614173228344
11
5.8374015748031498
21
-2.6956614173228344
0
LINE
8
BLACK
6
CONTINUOUS
10
5.7635826771653544
20
-2.6976299212598422
11
5.7635826771653544
21
-2.8279448818897639
0
LINE
8
BLACK
6
CONTINUOUS
10
5.7635826771653544
20
-2.8279448818897639
11
5.8364173228346452
21
-2.8279448818897639
0
LINE
8
BLACK
6
CONTINUOUS
10
5.8364173228346452
20
-2.8279448818897639
11
5.8364173228346452
21
-2.6976299212598422
0
LINE
8
BLACK
6
CONTINUOUS
10
5.8364173228346452
20
-2.6976299212598422
11
5.7635826771653544
21
-2.6976299212598422
0
LINE
8
BLACK
6
CONTINUOUS
10
6.6778727559055113
20
-2.7404210629921257
11
6.6854429527559054
21
-2.7427174409448818
0
LINE
8
BLACK
6
CONTINUOUS
10
6.6854429527559054
20
-2.7427174409448818
11
6.6924196456692915
21
-2.7464466141732284
0
LINE
8
BLACK
6
CONTINUOUS
10
6.6924196456692915
20
-2.7464466141732284
11
6.6985348031496059
21
-2.7514651968503938
0
LINE
8
BLACK
6
CONTINUOUS
10
6.6985348031496059
20
-2.7514651968503938
11
6.7035533858267717
21
-2.7575803543307087
0
LINE
8
BLACK
6
CONTINUOUS
10
6.7035533858267717
20
-2.7575803543307087
11
6.7072825590551179
21
-2.7645570472440943
0
LINE
8
BLACK
6
CONTINUOUS
10
6.7072825590551179
20
-2.7645570472440943
11
6.7095789370078736
21
-2.772127244094488
0
LINE
8
BLACK
6
CONTINUOUS
10
6.7095789370078736
20
-2.772127244094488
11
6.7103543307086611
21
-2.7799999999999998
0
LINE
8
BLACK
6
CONTINUOUS
10
6.7103543307086611
20
-2.7799999999999998
11
6.7095789370078736
21
-2.7878727559055116
0
LINE
8
BLACK
6
CONTINUOUS
10
6.7095789370078736
20
-2.7878727559055116
11
6.7072825590551179
21
-2.7954429527559053
0
LINE
8
BLACK
6
CONTINUOUS
10
6.7072825590551179
20
-2.7954429527559053
11
6.7035533858267717
21
-2.8024196456692914
0
LINE
8
BLACK
6
CONTINUOUS
10
6.7035533858267717
20
-2.8024196456692914
11
6.6985348031496059
21
-2.8085348031496062
0
LINE
8
BLACK
6
CONTINUOUS
10
6.6985348031496059
20
-2.8085348031496062
11
6.6924196456692915
21
-2.8135533858267716
0
LINE
8
BLACK
6
CONTINUOUS
10
6.6924196456692915
20
-2.8135533858267716
11
6.6854429527559054
21
-2.8172825590551183
0
LINE
8
BLACK
6
CONTINUOUS
10
6.6854429527559054
20
-2.8172825590551183
11
6.6778727559055113
21
-2.8195789370078739
0
LINE
8
BLACK
6
CONTINUOUS
10
6.6778727559055113
20
-2.8195789370078739
11
6.6699999999999999
21
-2.8203543307086614
0
LINE
8
BLACK
6
CONTINUOUS
10
6.6699999999999999
20
-2.8203543307086614
11
6.6621272440944876
21
-2.8195789370078739
0
LINE
8
BLACK
6
CONTINUOUS
10
6.6621272440944876
20
-2.8195789370078739
11
6.6545570472440945
21
-2.8172825590551183
0
LINE
8
BLACK
6
CONTINUOUS
10
6.6545570472440945
20
-2.8172825590551183
11
6.6475803543307084
21
-2.8135533858267716
0
LINE
8
BLACK
6
CONTINUOUS
10
6.6475803543307084
20
-2.8135533858267716
11
6.6414651968503939
21
-2.8085348031496062
0
LINE
8
BLACK
6
CONTINUOUS
10
6.6414651968503939
20
-2.8085348031496062
11
6.6364466141732281
21
-2.8024196456692914
0
LINE
8
BLACK
6
CONTINUOUS
10
6.6364466141732281
20
-2.8024196456692914
11
6.6327174409448819
21
-2.7954429527559053
0
LINE
8
BLACK
6
CONTINUOUS
10
6.6327174409448819
20
-2.7954429527559053
11
6.6304210629921254
21
-2.7878727559055116
0
LINE
8
BLACK
6
CONTINUOUS
10
6.6304210629921254
20
-2.7878727559055116
11
6.6296456692913388
21
-2.7799999999999998
0
LINE
8
BLACK
6
CONTINUOUS
10
6.6296456692913388
20
-2.7799999999999998
11
6.6304210629921254
21
-2.772127244094488
0
LINE
8
BLACK
6
CONTINUOUS
10
6.6304210629921254
20
-2.772127244094488
11
6.6327174409448819
21
-2.7645570472440943
0
LINE
8
BLACK
6
CONTINUOUS
10
6.6327174409448819
20
-2.7645570472440943
11
6.6364466141732281
21
-2.7575803543307087
0
LINE
8
BLACK
6
CONTINUOUS
10
6.6364466141732281
20
-2.7575803543307087
11
6.6414651968503939
21
-2.7514651968503938
0
LINE
8
BLACK
6
CONTINUOUS
10
6.6414651968503939
20
-2.7514651968503938
11
6.6475803543307084
21
-2.7464466141732284
0
LINE
8
BLACK
6
CONTINUOUS
10
6.6475803543307084
20
-2.7464466141732284
11
6.6545570472440945
21
-2.7427174409448818
0
LINE
8
BLACK
6
CONTINUOUS
10
6.6545570472440945
20
-2.7427174409448818
11
6.6621272440944876
21
-2.7404210629921257
0
LINE
8
BLACK
6
CONTINUOUS
10
6.6621272440944876
20
-2.7404210629921257
11
6.6699999999999999
21
-2.7396456692913387
0
LINE
8
BLACK
6
CONTINUOUS
10
6.6699999999999999
20
-2.7396456692913387
11
6.6778727559055113
21
-2.7404210629921257
0
LINE
8
BLACK
6
CONTINUOUS
10
6.6321695669291341
20
-2.7875249606299213
11
6.6343645275590548
21
-2.7947607086614172
0
LINE
8
BLACK
6
CONTINUOUS
10
6.6343645275590548
20
-2.7947607086614172
11
6.6379288976377948
21
-2.8014292125984253
0
LINE
8
BLACK
6
CONTINUOUS
10
6.6379288976377948
20
-2.8014292125984253
11
6.6427257874015746
21
-2.8072742125984251
0
LINE
8
BLACK
6
CONTINUOUS
10
6.6427257874015746
20
-2.8072742125984251
11
6.6485707874015745
21
-2.8120711023622045
0
LINE
8
BLACK
6
CONTINUOUS
10
6.6485707874015745
20
-2.8120711023622045
11
6.6552392913385825
21
-2.8156354724409449
0
LINE
8
BLACK
6
CONTINUOUS
10
6.6552392913385825
20
-2.8156354724409449
11
6.6624750393700785
21
-2.8178304330708661
0
LINE
8
BLACK
6
CONTINUOUS
10
6.6624750393700785
20
-2.8178304330708661
11
6.6699999999999999
21
-2.8185715748031495
0
LINE
8
BLACK
6
CONTINUOUS
10
6.6699999999999999
20
-2.8185715748031495
11
6.6775249606299214
21
-2.8178304330708661
0
LINE
8
BLACK
6
CONTINUOUS
10
6.6775249606299214
20
-2.8178304330708661
11
6.6847607086614174
21
-2.8156354724409449
0
LINE
8
BLACK
6
CONTINUOUS
10
6.6847607086614174
20
-2.8156354724409449
11
6.6914292125984254
21
-2.8120711023622045
0
LINE
8
BLACK
6
CONTINUOUS
10
6.6914292125984254
20
-2.8120711023622045
11
6.6972742125984253
21
-2.8072742125984251
0
LINE
8
BLACK
6
CONTINUOUS
10
6.6972742125984253
20
-2.8072742125984251
11
6.7020711023622042
21
-2.8014292125984253
0
LINE
8
BLACK
6
CONTINUOUS
10
6.7020711023622042
20
-2.8014292125984253
11
6.705635472440945
21
-2.7947607086614172
0
LINE
8
BLACK
6
CONTINUOUS
10
6.705635472440945
20
-2.7947607086614172
11
6.7078304330708658
21
-2.7875249606299213
0
LINE
8
BLACK
6
CONTINUOUS
10
6.7078304330708658
20
-2.7875249606299213
11
6.7085715748031491
21
-2.7799999999999998
0
LINE
8
BLACK
6
CONTINUOUS
10
6.7085715748031491
20
-2.7799999999999998
11
6.7078304330708658
21
-2.7724750393700788
0
LINE
8
BLACK
6
CONTINUOUS
10
6.7078304330708658
20
-2.7724750393700788
11
6.705635472440945
21
-2.7652392913385828
0
LINE
8
BLACK
6
CONTINUOUS
10
6.705635472440945
20
-2.7652392913385828
11
6.7020711023622042
21
-2.7585707874015748
0
LINE
8
BLACK
6
CONTINUOUS
10
6.7020711023622042
20
-2.7585707874015748
11
6.6972742125984253
21
-2.7527257874015749
0
LINE
8
BLACK
6
CONTINUOUS
10
6.6972742125984253
20
-2.7527257874015749
11
6.6914292125984254
21
-2.7479288976377951
0
LINE
8
BLACK
6
CONTINUOUS
10
6.6914292125984254
20
-2.7479288976377951
11
6.6847607086614174
21
-2.7443645275590551
0
LINE
8
BLACK
6
CONTINUOUS
10
6.6847607086614174
20
-2.7443645275590551
11
6.6775249606299214
21
-2.7421695669291339
0
LINE
8
BLACK
6
CONTINUOUS
10
6.6775249606299214
20
-2.7421695669291339
11
6.6699999999999999
21
-2.7414284251968501
0
LINE
8
BLACK
6
CONTINUOUS
10
6.6699999999999999
20
-2.7414284251968501
11
6.6624750393700785
21
-2.7421695669291339
0
LINE
8
BLACK
6
CONTINUOUS
10
6.6624750393700785
20
-2.7421695669291339
11
6.6552392913385825
21
-2.7443645275590551
0
LINE
8
BLACK
6
CONTINUOUS
10
6.6552392913385825
20
-2.7443645275590551
11
6.6485707874015745
21
-2.7479288976377951
0
LINE
8
BLACK
6
CONTINUOUS
10
6.6485707874015745
20
-2.7479288976377951
11
6.6427257874015746
21
-2.7527257874015749
0
LINE
8
BLACK
6
CONTINUOUS
10
6.6427257874015746
20
-2.7527257874015749
11
6.6379288976377948
21
-2.7585707874015748
0
LINE
8
BLACK
6
CONTINUOUS
10
6.6379288976377948
20
-2.7585707874015748
11
6.6343645275590548
21
-2.7652392913385828
0
LINE
8
BLACK
6
CONTINUOUS
10
6.6343645275590548
20
-2.7652392913385828
11
6.6321695669291341
21
-2.7724750393700788
0
LINE
8
BLACK
6
CONTINUOUS
10
6.6321695669291341
20
-2.7724750393700788
11
6.6314284251968498
21
-2.7799999999999998
0
LINE
8
BLACK
6
CONTINUOUS
10
6.6314284251968498
20
-2.7799999999999998
11
6.6321695669291341
21
-2.7875249606299213
0
LINE
8
BLACK
6
CONTINUOUS
10
5.1258727559055117
20
-2.7194210629921258
11
5.1334429527559058
21
-2.7217174409448819
0
LINE
8
BLACK
6
CONTINUOUS
10
5.1334429527559058
20
-2.7217174409448819
11
5.140419645669291
21
-2.7254466141732281
0
LINE
8
BLACK
6
CONTINUOUS
10
5.140419645669291
20
-2.7254466141732281
11
5.1465348031496063
21
-2.7304651968503935
0
LINE
8
BLACK
6
CONTINUOUS
10
5.1465348031496063
20
-2.7304651968503935
11
5.1515533858267712
21
-2.7365803543307088
0
LINE
8
BLACK
6
CONTINUOUS
10
5.1515533858267712
20
-2.7365803543307088
11
5.1552825590551183
21
-2.7435570472440944
0
LINE
8
BLACK
6
CONTINUOUS
10
5.1552825590551183
20
-2.7435570472440944
11
5.157578937007874
21
-2.7511272440944881
0
LINE
8
BLACK
6
CONTINUOUS
10
5.157578937007874
20
-2.7511272440944881
11
5.1583543307086615
21
-2.7589999999999999
0
LINE
8
BLACK
6
CONTINUOUS
10
5.1583543307086615
20
-2.7589999999999999
11
5.157578937007874
21
-2.7668727559055117
0
LINE
8
BLACK
6
CONTINUOUS
10
5.157578937007874
20
-2.7668727559055117
11
5.1552825590551183
21
-2.7744429527559054
0
LINE
8
BLACK
6
CONTINUOUS
10
5.1552825590551183
20
-2.7744429527559054
11
5.1515533858267712
21
-2.7814196456692915
0
LINE
8
BLACK
6
CONTINUOUS
10
5.1515533858267712
20
-2.7814196456692915
11
5.1465348031496063
21
-2.7875348031496063
0
LINE
8
BLACK
6
CONTINUOUS
10
5.1465348031496063
20
-2.7875348031496063
11
5.140419645669291
21
-2.7925533858267717
0
LINE
8
BLACK
6
CONTINUOUS
10
5.140419645669291
20
-2.7925533858267717
11
5.1334429527559058
21
-2.7962825590551179
0
LINE
8
BLACK
6
CONTINUOUS
10
5.1334429527559058
20
-2.7962825590551179
11
5.1258727559055117
21
-2.798578937007874
0
LINE
8
BLACK
6
CONTINUOUS
10
5.1258727559055117
20
-2.798578937007874
11
5.1180000000000003
21
-2.7993543307086615
0
LINE
8
BLACK
6
CONTINUOUS
10
5.1180000000000003
20
-2.7993543307086615
11
5.110127244094488
21
-2.798578937007874
0
LINE
8
BLACK
6
CONTINUOUS
10
5.110127244094488
20
-2.798578937007874
11
5.102557047244094
21
-2.7962825590551179
0
LINE
8
BLACK
6
CONTINUOUS
10
5.102557047244094
20
-2.7962825590551179
11
5.0955803543307088
21
-2.7925533858267717
0
LINE
8
BLACK
6
CONTINUOUS
10
5.0955803543307088
20
-2.7925533858267717
11
5.0894651968503934
21
-2.7875348031496063
0
LINE
8
BLACK
6
CONTINUOUS
10
5.0894651968503934
20
-2.7875348031496063
11
5.0844466141732285
21
-2.7814196456692915
0
LINE
8
BLACK
6
CONTINUOUS
10
5.0844466141732285
20
-2.7814196456692915
11
5.0807174409448814
21
-2.7744429527559054
0
LINE
8
BLACK
6
CONTINUOUS
10
5.0807174409448814
20
-2.7744429527559054
11
5.0784210629921258
21
-2.7668727559055117
0
LINE
8
BLACK
6
CONTINUOUS
10
5.0784210629921258
20
-2.7668727559055117
11
5.0776456692913383
21
-2.7589999999999999
0
LINE
8
BLACK
6
CONTINUOUS
10
5.0776456692913383
20
-2.7589999999999999
11
5.0784210629921258
21
-2.7511272440944881
0
LINE
8
BLACK
6
CONTINUOUS
10
5.0784210629921258
20
-2.7511272440944881
11
5.0807174409448814
21
-2.7435570472440944
0
LINE
8
BLACK
6
CONTINUOUS
10
5.0807174409448814
20
-2.7435570472440944
11
5.0844466141732285
21
-2.7365803543307088
0
LINE
8
BLACK
6
CONTINUOUS
10
5.0844466141732285
20
-2.7365803543307088
11
5.0894651968503934
21
-2.7304651968503935
0
LINE
8
BLACK
6
CONTINUOUS
10
5.0894651968503934
20
-2.7304651968503935
11
5.0955803543307088
21
-2.7254466141732281
0
LINE
8
BLACK
6
CONTINUOUS
10
5.0955803543307088
20
-2.7254466141732281
11
5.102557047244094
21
-2.7217174409448819
0
LINE
8
BLACK
6
CONTINUOUS
10
5.102557047244094
20
-2.7217174409448819
11
5.110127244094488
21
-2.7194210629921258
0
LINE
8
BLACK
6
CONTINUOUS
10
5.110127244094488
20
-2.7194210629921258
11
5.1180000000000003
21
-2.7186456692913383
0
LINE
8
BLACK
6
CONTINUOUS
10
5.1180000000000003
20
-2.7186456692913383
11
5.1258727559055117
21
-2.7194210629921258
0
LINE
8
BLACK
6
CONTINUOUS
10
5.0801695669291336
20
-2.7665249606299214
11
5.0823645275590552
21
-2.7737607086614173
0
LINE
8
BLACK
6
CONTINUOUS
10
5.0823645275590552
20
-2.7737607086614173
11
5.0859288976377952
21
-2.7804292125984253
0
LINE
8
BLACK
6
CONTINUOUS
10
5.0859288976377952
20
-2.7804292125984253
11
5.090725787401575
21
-2.7862742125984252
0
LINE
8
BLACK
6
CONTINUOUS
10
5.090725787401575
20
-2.7862742125984252
11
5.0965707874015749
21
-2.7910711023622046
0
LINE
8
BLACK
6
CONTINUOUS
10
5.0965707874015749
20
-2.7910711023622046
11
5.1032392913385829
21
-2.794635472440945
0
LINE
8
BLACK
6
CONTINUOUS
10
5.1032392913385829
20
-2.794635472440945
11
5.1104750393700789
21
-2.7968304330708662
0
LINE
8
BLACK
6
CONTINUOUS
10
5.1104750393700789
20
-2.7968304330708662
11
5.1180000000000003
21
-2.7975715748031496
0
LINE
8
BLACK
6
CONTINUOUS
10
5.1180000000000003
20
-2.7975715748031496
11
5.1255249606299209
21
-2.7968304330708662
0
LINE
8
BLACK
6
CONTINUOUS
10
5.1255249606299209
20
-2.7968304330708662
11
5.1327607086614169
21
-2.794635472440945
0
LINE
8
BLACK
6
CONTINUOUS
10
5.1327607086614169
20
-2.794635472440945
11
5.1394292125984249
21
-2.7910711023622046
0
LINE
8
BLACK
6
CONTINUOUS
10
5.1394292125984249
20
-2.7910711023622046
11
5.1452742125984248
21
-2.7862742125984252
0
LINE
8
BLACK
6
CONTINUOUS
10
5.1452742125984248
20
-2.7862742125984252
11
5.1500711023622046
21
-2.7804292125984253
0
LINE
8
BLACK
6
CONTINUOUS
10
5.1500711023622046
20
-2.7804292125984253
11
5.1536354724409446
21
-2.7737607086614173
0
LINE
8
BLACK
6
CONTINUOUS
10
5.1536354724409446
20
-2.7737607086614173
11
5.1558304330708662
21
-2.7665249606299214
0
LINE
8
BLACK
6
CONTINUOUS
10
5.1558304330708662
20
-2.7665249606299214
11
5.1565715748031495
21
-2.7589999999999999
0
LINE
8
BLACK
6
CONTINUOUS
10
5.1565715748031495
20
-2.7589999999999999
11
5.1558304330708662
21
-2.7514750393700789
0
LINE
8
BLACK
6
CONTINUOUS
10
5.1558304330708662
20
-2.7514750393700789
11
5.1536354724409446
21
-2.7442392913385825
0
LINE
8
BLACK
6
CONTINUOUS
10
5.1536354724409446
20
-2.7442392913385825
11
5.1500711023622046
21
-2.7375707874015749
0
LINE
8
BLACK
6
CONTINUOUS
10
5.1500711023622046
20
-2.7375707874015749
11
5.1452742125984248
21
-2.7317257874015746
0
LINE
8
BLACK
6
CONTINUOUS
10
5.1452742125984248
20
-2.7317257874015746
11
5.1394292125984249
21
-2.7269288976377952
0
LINE
8
BLACK
6
CONTINUOUS
10
5.1394292125984249
20
-2.7269288976377952
11
5.1327607086614169
21
-2.7233645275590552
0
LINE
8
BLACK
6
CONTINUOUS
10
5.1327607086614169
20
-2.7233645275590552
11
5.1255249606299209
21
-2.7211695669291336
0
LINE
8
BLACK
6
CONTINUOUS
10
5.1255249606299209
20
-2.7211695669291336
11
5.1180000000000003
21
-2.7204284251968502
0
LINE
8
BLACK
6
CONTINUOUS
10
5.1180000000000003
20
-2.7204284251968502
11
5.1104750393700789
21
-2.7211695669291336
0
LINE
8
BLACK
6
CONTINUOUS
10
5.1104750393700789
20
-2.7211695669291336
11
5.1032392913385829
21
-2.7233645275590552
0
LINE
8
BLACK
6
CONTINUOUS
10
5.1032392913385829
20
-2.7233645275590552
11
5.0965707874015749
21
-2.7269288976377952
0
LINE
8
BLACK
6
CONTINUOUS
10
5.0965707874015749
20
-2.7269288976377952
11
5.090725787401575
21
-2.7317257874015746
0
LINE
8
BLACK
6
CONTINUOUS
10
5.090725787401575
20
-2.7317257874015746
11
5.0859288976377952
21
-2.7375707874015749
0
LINE
8
BLACK
6
CONTINUOUS
10
5.0859288976377952
20
-2.7375707874015749
11
5.0823645275590552
21
-2.7442392913385825
0
LINE
8
BLACK
6
CONTINUOUS
10
5.0823645275590552
20
-2.7442392913385825
11
5.0801695669291336
21
-2.7514750393700789
0
LINE
8
BLACK
6
CONTINUOUS
10
5.0801695669291336
20
-2.7514750393700789
11
5.0794284251968502
21
-2.7589999999999999
0
LINE
8
BLACK
6
CONTINUOUS
10
5.0794284251968502
20
-2.7589999999999999
11
5.0801695669291336
21
-2.7665249606299214
  0
ENDSEC
  0
EOF
