  0
SECTION
  2
HEADER
  9
$ANGBASE
  50
0.0
  9
$ANGDIR
  70
1
  9
$MEASUREMENT
  70
0
  0
ENDSEC
  0
SECTION
  2
TABLES
  0
TABLE
  2
LTYPE
  70
4
  0
LTYPE
  5
40F
  2
CONTINUOUS
  70
0
  3
Solid line
  72
65
  73
0
  40
0.0
  0
LTYPE
  5
410
  2
DASHDOT
 70
0
  3
Dash Dot ____ _ ____ _
 72
65
 73
4
 40
2.0
 49
1.25
 49
-0.25
 49
0.25
 49
-0.25
  0
LTYPE
  5
411
  2
DASHED
 70
0
  3
Dashed __ __ __ __ __
 72
65
 73
2
 40
0.75
 49
0.5
 49
-0.25
  0
LTYPE
  5
43B
  2
DOTTED
 70
0
  3
Dotted .  .  .  .
 72
65
 73
2
 40
0.2
 49
0.0
 49
-0.2
  0
ENDTAB
  0
TABLE
  2
STYLE
  70
4
  0
STYLE
  2
KICAD
  70
0
  40
0
  41
1
  42
1
  50
0
  71
0
  3
isocp.shx
  0
STYLE
  2
KICADB
  70
0
  40
0
  41
1
  42
1
  50
0
  71
0
  3
isocp.shx
  0
STYLE
  2
KICADI
  70
0
  40
0
  41
1
  42
1
  50
15
  71
0
  3
isocp.shx
  0
STYLE
  2
KICADBI
  70
0
  40
0
  41
1
  42
1
  50
15
  71
0
  3
isocp.shx
  0
ENDTAB
  0
TABLE
  2
LAYER
  70
1
  0
LAYER
  2
BLACK
  70
0
  62
7
  6
CONTINUOUS
  0
ENDTAB
  0
ENDSEC
  0
SECTION
  2
ENTITIES
0
LINE
8
BLACK
6
CONTINUOUS
10
4.8556885433070862
20
-3.7104422440944882
11
4.8686653937007875
21
-3.7128203149606298
0
LINE
8
BLACK
6
CONTINUOUS
10
4.8686653937007875
20
-3.7128203149606298
11
4.8812609842519681
21
-3.7167452755905512
0
LINE
8
BLACK
6
CONTINUOUS
10
4.8812609842519681
20
-3.7167452755905512
11
4.8932916141732283
21
-3.7221598425196851
0
LINE
8
BLACK
6
CONTINUOUS
10
4.8932916141732283
20
-3.7221598425196851
11
4.9045818897637794
21
-3.7289850393700785
0
LINE
8
BLACK
6
CONTINUOUS
10
4.9045818897637794
20
-3.7289850393700785
11
4.9149671259842522
21
-3.7371213779527559
0
LINE
8
BLACK
6
CONTINUOUS
10
4.9149671259842522
20
-3.7371213779527559
11
4.9242959448818899
21
-3.7464501968503936
0
LINE
8
BLACK
6
CONTINUOUS
10
4.9242959448818899
20
-3.7464501968503936
11
4.9324322834645669
21
-3.756835433070866
0
LINE
8
BLACK
6
CONTINUOUS
10
4.9324322834645669
20
-3.756835433070866
11
4.9392574803149607
21
-3.7681257086614171
0
LINE
8
BLACK
6
CONTINUOUS
10
4.9392574803149607
20
-3.7681257086614171
11
4.9446720472440946
21
-3.7801563385826773
0
LINE
8
BLACK
6
CONTINUOUS
10
4.9446720472440946
20
-3.7801563385826773
11
4.9485970078740156
21
-3.7927519291338583
0
LINE
8
BLACK
6
CONTINUOUS
10
4.9485970078740156
20
-3.7927519291338583
11
4.9509750787401572
21
-3.8057287795275592
0
LINE
8
BLACK
6
CONTINUOUS
10
4.9509750787401572
20
-3.8057287795275592
11
4.9517716535433074
21
-3.8188976377952755
0
LINE
8
BLACK
6
CONTINUOUS
10
4.9517716535433074
20
-3.8188976377952755
11
4.9509750787401572
21
-3.8320664960629922
0
LINE
8
BLACK
6
CONTINUOUS
10
4.9509750787401572
20
-3.8320664960629922
11
4.9485970078740156
21
-3.8450433464566927
0
LINE
8
BLACK
6
CONTINUOUS
10
4.9485970078740156
20
-3.8450433464566927
11
4.9446720472440946
21
-3.8576389370078741
0
LINE
8
BLACK
6
CONTINUOUS
10
4.9446720472440946
20
-3.8576389370078741
11
4.9392574803149607
21
-3.8696695669291339
0
LINE
8
BLACK
6
CONTINUOUS
10
4.9392574803149607
20
-3.8696695669291339
11
4.9324322834645669
21
-3.880959842519685
0
LINE
8
BLACK
6
CONTINUOUS
10
4.9324322834645669
20
-3.880959842519685
11
4.9242959448818899
21
-3.8913450787401573
0
LINE
8
BLACK
6
CONTINUOUS
10
4.9242959448818899
20
-3.8913450787401573
11
4.9149671259842522
21
-3.900673897637795
0
LINE
8
BLACK
6
CONTINUOUS
10
4.9149671259842522
20
-3.900673897637795
11
4.9045818897637794
21
-3.9088102362204724
0
LINE
8
BLACK
6
CONTINUOUS
10
4.9045818897637794
20
-3.9088102362204724
11
4.8932916141732283
21
-3.9156354330708663
0
LINE
8
BLACK
6
CONTINUOUS
10
4.8932916141732283
20
-3.9156354330708663
11
4.8812609842519681
21
-3.9210499999999997
0
LINE
8
BLACK
6
CONTINUOUS
10
4.8812609842519681
20
-3.9210499999999997
11
4.8686653937007875
21
-3.9249749606299211
0
LINE
8
BLACK
6
CONTINUOUS
10
4.8686653937007875
20
-3.9249749606299211
11
4.8556885433070862
21
-3.9273530314960627
0
LINE
8
BLACK
6
CONTINUOUS
10
4.8556885433070862
20
-3.9273530314960627
11
4.8425196850393704
21
-3.9281496062992125
0
LINE
8
BLACK
6
CONTINUOUS
10
4.8425196850393704
20
-3.9281496062992125
11
4.8293508267716536
21
-3.9273530314960627
0
LINE
8
BLACK
6
CONTINUOUS
10
4.8293508267716536
20
-3.9273530314960627
11
4.8163739763779523
21
-3.9249749606299211
0
LINE
8
BLACK
6
CONTINUOUS
10
4.8163739763779523
20
-3.9249749606299211
11
4.8037783858267717
21
-3.9210499999999997
0
LINE
8
BLACK
6
CONTINUOUS
10
4.8037783858267717
20
-3.9210499999999997
11
4.7917477559055115
21
-3.9156354330708663
0
LINE
8
BLACK
6
CONTINUOUS
10
4.7917477559055115
20
-3.9156354330708663
11
4.7804574803149604
21
-3.9088102362204724
0
LINE
8
BLACK
6
CONTINUOUS
10
4.7804574803149604
20
-3.9088102362204724
11
4.7700722440944885
21
-3.900673897637795
0
LINE
8
BLACK
6
CONTINUOUS
10
4.7700722440944885
20
-3.900673897637795
11
4.7607434251968499
21
-3.8913450787401573
0
LINE
8
BLACK
6
CONTINUOUS
10
4.7607434251968499
20
-3.8913450787401573
11
4.752607086614173
21
-3.880959842519685
0
LINE
8
BLACK
6
CONTINUOUS
10
4.752607086614173
20
-3.880959842519685
11
4.7457818897637791
21
-3.8696695669291339
0
LINE
8
BLACK
6
CONTINUOUS
10
4.7457818897637791
20
-3.8696695669291339
11
4.7403673228346452
21
-3.8576389370078741
0
LINE
8
BLACK
6
CONTINUOUS
10
4.7403673228346452
20
-3.8576389370078741
11
4.7364423622047243
21
-3.8450433464566927
0
LINE
8
BLACK
6
CONTINUOUS
10
4.7364423622047243
20
-3.8450433464566927
11
4.7340642913385826
21
-3.8320664960629922
0
LINE
8
BLACK
6
CONTINUOUS
10
4.7340642913385826
20
-3.8320664960629922
11
4.7332677165354333
21
-3.8188976377952755
0
LINE
8
BLACK
6
CONTINUOUS
10
4.7332677165354333
20
-3.8188976377952755
11
4.7340642913385826
21
-3.8057287795275592
0
LINE
8
BLACK
6
CONTINUOUS
10
4.7340642913385826
20
-3.8057287795275592
11
4.7364423622047243
21
-3.7927519291338583
0
LINE
8
BLACK
6
CONTINUOUS
10
4.7364423622047243
20
-3.7927519291338583
11
4.7403673228346452
21
-3.7801563385826773
0
LINE
8
BLACK
6
CONTINUOUS
10
4.7403673228346452
20
-3.7801563385826773
11
4.7457818897637791
21
-3.7681257086614171
0
LINE
8
BLACK
6
CONTINUOUS
10
4.7457818897637791
20
-3.7681257086614171
11
4.752607086614173
21
-3.756835433070866
0
LINE
8
BLACK
6
CONTINUOUS
10
4.752607086614173
20
-3.756835433070866
11
4.7607434251968499
21
-3.7464501968503936
0
LINE
8
BLACK
6
CONTINUOUS
10
4.7607434251968499
20
-3.7464501968503936
11
4.7700722440944885
21
-3.7371213779527559
0
LINE
8
BLACK
6
CONTINUOUS
10
4.7700722440944885
20
-3.7371213779527559
11
4.7804574803149604
21
-3.7289850393700785
0
LINE
8
BLACK
6
CONTINUOUS
10
4.7804574803149604
20
-3.7289850393700785
11
4.7917477559055115
21
-3.7221598425196851
0
LINE
8
BLACK
6
CONTINUOUS
10
4.7917477559055115
20
-3.7221598425196851
11
4.8037783858267717
21
-3.7167452755905512
0
LINE
8
BLACK
6
CONTINUOUS
10
4.8037783858267717
20
-3.7167452755905512
11
4.8163739763779523
21
-3.7128203149606298
0
LINE
8
BLACK
6
CONTINUOUS
10
4.8163739763779523
20
-3.7128203149606298
11
4.8293508267716536
21
-3.7104422440944882
0
LINE
8
BLACK
6
CONTINUOUS
10
4.8293508267716536
20
-3.7104422440944882
11
4.8425196850393704
21
-3.7096456692913384
0
LINE
8
BLACK
6
CONTINUOUS
10
4.8425196850393704
20
-3.7096456692913384
11
4.8556885433070862
21
-3.7104422440944882
0
LINE
8
BLACK
6
CONTINUOUS
10
4.7397392125984252
20
-3.8313774409448818
11
4.7419928740157475
21
-3.843675275590551
0
LINE
8
BLACK
6
CONTINUOUS
10
4.7419928740157475
20
-3.843675275590551
11
4.7457124409448816
21
-3.8556117716535434
0
LINE
8
BLACK
6
CONTINUOUS
10
4.7457124409448816
20
-3.8556117716535434
11
4.7508437007874011
21
-3.8670129133858269
0
LINE
8
BLACK
6
CONTINUOUS
10
4.7508437007874011
20
-3.8670129133858269
11
4.7573117716535434
21
-3.8777124409448818
0
LINE
8
BLACK
6
CONTINUOUS
10
4.7573117716535434
20
-3.8777124409448818
11
4.7650223622047241
21
-3.8875542913385828
0
LINE
8
BLACK
6
CONTINUOUS
10
4.7650223622047241
20
-3.8875542913385828
11
4.7738630314960631
21
-3.8963949606299213
0
LINE
8
BLACK
6
CONTINUOUS
10
4.7738630314960631
20
-3.8963949606299213
11
4.7837048818897641
21
-3.9041055511811025
0
LINE
8
BLACK
6
CONTINUOUS
10
4.7837048818897641
20
-3.9041055511811025
11
4.794404409448819
21
-3.9105736220472438
0
LINE
8
BLACK
6
CONTINUOUS
10
4.794404409448819
20
-3.9105736220472438
11
4.805805551181102
21
-3.9157048818897637
0
LINE
8
BLACK
6
CONTINUOUS
10
4.805805551181102
20
-3.9157048818897637
11
4.8177420472440939
21
-3.9194244488188974
0
LINE
8
BLACK
6
CONTINUOUS
10
4.8177420472440939
20
-3.9194244488188974
11
4.8300398818897641
21
-3.9216781102362206
0
LINE
8
BLACK
6
CONTINUOUS
10
4.8300398818897641
20
-3.9216781102362206
11
4.8425196850393704
21
-3.9224329921259842
0
LINE
8
BLACK
6
CONTINUOUS
10
4.8425196850393704
20
-3.9224329921259842
11
4.8549994881889766
21
-3.9216781102362206
0
LINE
8
BLACK
6
CONTINUOUS
10
4.8549994881889766
20
-3.9216781102362206
11
4.8672973228346459
21
-3.9194244488188974
0
LINE
8
BLACK
6
CONTINUOUS
10
4.8672973228346459
20
-3.9194244488188974
11
4.8792338188976379
21
-3.9157048818897637
0
LINE
8
BLACK
6
CONTINUOUS
10
4.8792338188976379
20
-3.9157048818897637
11
4.8906349606299209
21
-3.9105736220472438
0
LINE
8
BLACK
6
CONTINUOUS
10
4.8906349606299209
20
-3.9105736220472438
11
4.9013344881889767
21
-3.9041055511811025
0
LINE
8
BLACK
6
CONTINUOUS
10
4.9013344881889767
20
-3.9041055511811025
11
4.9111763385826768
21
-3.8963949606299213
0
LINE
8
BLACK
6
CONTINUOUS
10
4.9111763385826768
20
-3.8963949606299213
11
4.9200170078740157
21
-3.8875542913385828
0
LINE
8
BLACK
6
CONTINUOUS
10
4.9200170078740157
20
-3.8875542913385828
11
4.9277275984251965
21
-3.8777124409448818
0
LINE
8
BLACK
6
CONTINUOUS
10
4.9277275984251965
20
-3.8777124409448818
11
4.9341956692913387
21
-3.8670129133858269
0
LINE
8
BLACK
6
CONTINUOUS
10
4.9341956692913387
20
-3.8670129133858269
11
4.9393269291338582
21
-3.8556117716535434
0
LINE
8
BLACK
6
CONTINUOUS
10
4.9393269291338582
20
-3.8556117716535434
11
4.9430464960629923
21
-3.843675275590551
0
LINE
8
BLACK
6
CONTINUOUS
10
4.9430464960629923
20
-3.843675275590551
11
4.9453001574803146
21
-3.8313774409448818
0
LINE
8
BLACK
6
CONTINUOUS
10
4.9453001574803146
20
-3.8313774409448818
11
4.9460550393700791
21
-3.8188976377952755
0
LINE
8
BLACK
6
CONTINUOUS
10
4.9460550393700791
20
-3.8188976377952755
11
4.9453001574803146
21
-3.8064178346456692
0
LINE
8
BLACK
6
CONTINUOUS
10
4.9453001574803146
20
-3.8064178346456692
11
4.9430464960629923
21
-3.7941199999999999
0
LINE
8
BLACK
6
CONTINUOUS
10
4.9430464960629923
20
-3.7941199999999999
11
4.9393269291338582
21
-3.782183503937008
0
LINE
8
BLACK
6
CONTINUOUS
10
4.9393269291338582
20
-3.782183503937008
11
4.9341956692913387
21
-3.7707823622047245
0
LINE
8
BLACK
6
CONTINUOUS
10
4.9341956692913387
20
-3.7707823622047245
11
4.9277275984251965
21
-3.7600828346456692
0
LINE
8
BLACK
6
CONTINUOUS
10
4.9277275984251965
20
-3.7600828346456692
11
4.9200170078740157
21
-3.7502409842519686
0
LINE
8
BLACK
6
CONTINUOUS
10
4.9200170078740157
20
-3.7502409842519686
11
4.9111763385826768
21
-3.7414003149606296
0
LINE
8
BLACK
6
CONTINUOUS
10
4.9111763385826768
20
-3.7414003149606296
11
4.9013344881889767
21
-3.7336897244094489
0
LINE
8
BLACK
6
CONTINUOUS
10
4.9013344881889767
20
-3.7336897244094489
11
4.8906349606299209
21
-3.7272216535433071
0
LINE
8
BLACK
6
CONTINUOUS
10
4.8906349606299209
20
-3.7272216535433071
11
4.8792338188976379
21
-3.7220903937007872
0
LINE
8
BLACK
6
CONTINUOUS
10
4.8792338188976379
20
-3.7220903937007872
11
4.8672973228346459
21
-3.7183708267716535
0
LINE
8
BLACK
6
CONTINUOUS
10
4.8672973228346459
20
-3.7183708267716535
11
4.8549994881889766
21
-3.7161171653543308
0
LINE
8
BLACK
6
CONTINUOUS
10
4.8549994881889766
20
-3.7161171653543308
11
4.8425196850393704
21
-3.7153622834645668
0
LINE
8
BLACK
6
CONTINUOUS
10
4.8425196850393704
20
-3.7153622834645668
11
4.8300398818897641
21
-3.7161171653543308
0
LINE
8
BLACK
6
CONTINUOUS
10
4.8300398818897641
20
-3.7161171653543308
11
4.8177420472440939
21
-3.7183708267716535
0
LINE
8
BLACK
6
CONTINUOUS
10
4.8177420472440939
20
-3.7183708267716535
11
4.805805551181102
21
-3.7220903937007872
0
LINE
8
BLACK
6
CONTINUOUS
10
4.805805551181102
20
-3.7220903937007872
11
4.794404409448819
21
-3.7272216535433071
0
LINE
8
BLACK
6
CONTINUOUS
10
4.794404409448819
20
-3.7272216535433071
11
4.7837048818897641
21
-3.7336897244094489
0
LINE
8
BLACK
6
CONTINUOUS
10
4.7837048818897641
20
-3.7336897244094489
11
4.7738630314960631
21
-3.7414003149606296
0
LINE
8
BLACK
6
CONTINUOUS
10
4.7738630314960631
20
-3.7414003149606296
11
4.7650223622047241
21
-3.7502409842519686
0
LINE
8
BLACK
6
CONTINUOUS
10
4.7650223622047241
20
-3.7502409842519686
11
4.7573117716535434
21
-3.7600828346456692
0
LINE
8
BLACK
6
CONTINUOUS
10
4.7573117716535434
20
-3.7600828346456692
11
4.7508437007874011
21
-3.7707823622047245
0
LINE
8
BLACK
6
CONTINUOUS
10
4.7508437007874011
20
-3.7707823622047245
11
4.7457124409448816
21
-3.782183503937008
0
LINE
8
BLACK
6
CONTINUOUS
10
4.7457124409448816
20
-3.782183503937008
11
4.7419928740157475
21
-3.7941199999999999
0
LINE
8
BLACK
6
CONTINUOUS
10
4.7419928740157475
20
-3.7941199999999999
11
4.7397392125984252
21
-3.8064178346456692
0
LINE
8
BLACK
6
CONTINUOUS
10
4.7397392125984252
20
-3.8064178346456692
11
4.7389843307086617
21
-3.8188976377952755
0
LINE
8
BLACK
6
CONTINUOUS
10
4.7389843307086617
20
-3.8188976377952755
11
4.7397392125984252
21
-3.8313774409448818
0
LINE
8
BLACK
6
CONTINUOUS
10
6.9816727952755908
20
-3.7104422440944882
11
6.9946496456692913
21
-3.7128203149606298
0
LINE
8
BLACK
6
CONTINUOUS
10
6.9946496456692913
20
-3.7128203149606298
11
7.0072452362204727
21
-3.7167452755905512
0
LINE
8
BLACK
6
CONTINUOUS
10
7.0072452362204727
20
-3.7167452755905512
11
7.019275866141732
21
-3.7221598425196851
0
LINE
8
BLACK
6
CONTINUOUS
10
7.019275866141732
20
-3.7221598425196851
11
7.0305661417322831
21
-3.7289850393700785
0
LINE
8
BLACK
6
CONTINUOUS
10
7.0305661417322831
20
-3.7289850393700785
11
7.0409513779527559
21
-3.7371213779527559
0
LINE
8
BLACK
6
CONTINUOUS
10
7.0409513779527559
20
-3.7371213779527559
11
7.0502801968503936
21
-3.7464501968503936
0
LINE
8
BLACK
6
CONTINUOUS
10
7.0502801968503936
20
-3.7464501968503936
11
7.0584165354330706
21
-3.756835433070866
0
LINE
8
BLACK
6
CONTINUOUS
10
7.0584165354330706
20
-3.756835433070866
11
7.0652417322834644
21
-3.7681257086614171
0
LINE
8
BLACK
6
CONTINUOUS
10
7.0652417322834644
20
-3.7681257086614171
11
7.0706562992125983
21
-3.7801563385826773
0
LINE
8
BLACK
6
CONTINUOUS
10
7.0706562992125983
20
-3.7801563385826773
11
7.0745812598425193
21
-3.7927519291338583
0
LINE
8
BLACK
6
CONTINUOUS
10
7.0745812598425193
20
-3.7927519291338583
11
7.0769593307086609
21
-3.8057287795275592
0
LINE
8
BLACK
6
CONTINUOUS
10
7.0769593307086609
20
-3.8057287795275592
11
7.0777559055118111
21
-3.8188976377952755
0
LINE
8
BLACK
6
CONTINUOUS
10
7.0777559055118111
20
-3.8188976377952755
11
7.0769593307086609
21
-3.8320664960629922
0
LINE
8
BLACK
6
CONTINUOUS
10
7.0769593307086609
20
-3.8320664960629922
11
7.0745812598425193
21
-3.8450433464566927
0
LINE
8
BLACK
6
CONTINUOUS
10
7.0745812598425193
20
-3.8450433464566927
11
7.0706562992125983
21
-3.8576389370078741
0
LINE
8
BLACK
6
CONTINUOUS
10
7.0706562992125983
20
-3.8576389370078741
11
7.0652417322834644
21
-3.8696695669291339
0
LINE
8
BLACK
6
CONTINUOUS
10
7.0652417322834644
20
-3.8696695669291339
11
7.0584165354330706
21
-3.880959842519685
0
LINE
8
BLACK
6
CONTINUOUS
10
7.0584165354330706
20
-3.880959842519685
11
7.0502801968503936
21
-3.8913450787401573
0
LINE
8
BLACK
6
CONTINUOUS
10
7.0502801968503936
20
-3.8913450787401573
11
7.0409513779527559
21
-3.900673897637795
0
LINE
8
BLACK
6
CONTINUOUS
10
7.0409513779527559
20
-3.900673897637795
11
7.0305661417322831
21
-3.9088102362204724
0
LINE
8
BLACK
6
CONTINUOUS
10
7.0305661417322831
20
-3.9088102362204724
11
7.019275866141732
21
-3.9156354330708663
0
LINE
8
BLACK
6
CONTINUOUS
10
7.019275866141732
20
-3.9156354330708663
11
7.0072452362204727
21
-3.9210499999999997
0
LINE
8
BLACK
6
CONTINUOUS
10
7.0072452362204727
20
-3.9210499999999997
11
6.9946496456692913
21
-3.9249749606299211
0
LINE
8
BLACK
6
CONTINUOUS
10
6.9946496456692913
20
-3.9249749606299211
11
6.9816727952755908
21
-3.9273530314960627
0
LINE
8
BLACK
6
CONTINUOUS
10
6.9816727952755908
20
-3.9273530314960627
11
6.9685039370078741
21
-3.9281496062992125
0
LINE
8
BLACK
6
CONTINUOUS
10
6.9685039370078741
20
-3.9281496062992125
11
6.9553350787401573
21
-3.9273530314960627
0
LINE
8
BLACK
6
CONTINUOUS
10
6.9553350787401573
20
-3.9273530314960627
11
6.9423582283464569
21
-3.9249749606299211
0
LINE
8
BLACK
6
CONTINUOUS
10
6.9423582283464569
20
-3.9249749606299211
11
6.9297626377952755
21
-3.9210499999999997
0
LINE
8
BLACK
6
CONTINUOUS
10
6.9297626377952755
20
-3.9210499999999997
11
6.9177320078740152
21
-3.9156354330708663
0
LINE
8
BLACK
6
CONTINUOUS
10
6.9177320078740152
20
-3.9156354330708663
11
6.9064417322834641
21
-3.9088102362204724
0
LINE
8
BLACK
6
CONTINUOUS
10
6.9064417322834641
20
-3.9088102362204724
11
6.8960564960629922
21
-3.900673897637795
0
LINE
8
BLACK
6
CONTINUOUS
10
6.8960564960629922
20
-3.900673897637795
11
6.8867276771653545
21
-3.8913450787401573
0
LINE
8
BLACK
6
CONTINUOUS
10
6.8867276771653545
20
-3.8913450787401573
11
6.8785913385826767
21
-3.880959842519685
0
LINE
8
BLACK
6
CONTINUOUS
10
6.8785913385826767
20
-3.880959842519685
11
6.8717661417322837
21
-3.8696695669291339
0
LINE
8
BLACK
6
CONTINUOUS
10
6.8717661417322837
20
-3.8696695669291339
11
6.8663515748031498
21
-3.8576389370078741
0
LINE
8
BLACK
6
CONTINUOUS
10
6.8663515748031498
20
-3.8576389370078741
11
6.862426614173228
21
-3.8450433464566927
0
LINE
8
BLACK
6
CONTINUOUS
10
6.862426614173228
20
-3.8450433464566927
11
6.8600485433070864
21
-3.8320664960629922
0
LINE
8
BLACK
6
CONTINUOUS
10
6.8600485433070864
20
-3.8320664960629922
11
6.859251968503937
21
-3.8188976377952755
0
LINE
8
BLACK
6
CONTINUOUS
10
6.859251968503937
20
-3.8188976377952755
11
6.8600485433070864
21
-3.8057287795275592
0
LINE
8
BLACK
6
CONTINUOUS
10
6.8600485433070864
20
-3.8057287795275592
11
6.862426614173228
21
-3.7927519291338583
0
LINE
8
BLACK
6
CONTINUOUS
10
6.862426614173228
20
-3.7927519291338583
11
6.8663515748031498
21
-3.7801563385826773
0
LINE
8
BLACK
6
CONTINUOUS
10
6.8663515748031498
20
-3.7801563385826773
11
6.8717661417322837
21
-3.7681257086614171
0
LINE
8
BLACK
6
CONTINUOUS
10
6.8717661417322837
20
-3.7681257086614171
11
6.8785913385826767
21
-3.756835433070866
0
LINE
8
BLACK
6
CONTINUOUS
10
6.8785913385826767
20
-3.756835433070866
11
6.8867276771653545
21
-3.7464501968503936
0
LINE
8
BLACK
6
CONTINUOUS
10
6.8867276771653545
20
-3.7464501968503936
11
6.8960564960629922
21
-3.7371213779527559
0
LINE
8
BLACK
6
CONTINUOUS
10
6.8960564960629922
20
-3.7371213779527559
11
6.9064417322834641
21
-3.7289850393700785
0
LINE
8
BLACK
6
CONTINUOUS
10
6.9064417322834641
20
-3.7289850393700785
11
6.9177320078740152
21
-3.7221598425196851
0
LINE
8
BLACK
6
CONTINUOUS
10
6.9177320078740152
20
-3.7221598425196851
11
6.9297626377952755
21
-3.7167452755905512
0
LINE
8
BLACK
6
CONTINUOUS
10
6.9297626377952755
20
-3.7167452755905512
11
6.9423582283464569
21
-3.7128203149606298
0
LINE
8
BLACK
6
CONTINUOUS
10
6.9423582283464569
20
-3.7128203149606298
11
6.9553350787401573
21
-3.7104422440944882
0
LINE
8
BLACK
6
CONTINUOUS
10
6.9553350787401573
20
-3.7104422440944882
11
6.9685039370078741
21
-3.7096456692913384
0
LINE
8
BLACK
6
CONTINUOUS
10
6.9685039370078741
20
-3.7096456692913384
11
6.9816727952755908
21
-3.7104422440944882
0
LINE
8
BLACK
6
CONTINUOUS
10
6.8657234645669289
20
-3.8313774409448818
11
6.8679771259842521
21
-3.843675275590551
0
LINE
8
BLACK
6
CONTINUOUS
10
6.8679771259842521
20
-3.843675275590551
11
6.8716966929133854
21
-3.8556117716535434
0
LINE
8
BLACK
6
CONTINUOUS
10
6.8716966929133854
20
-3.8556117716535434
11
6.8768279527559057
21
-3.8670129133858269
0
LINE
8
BLACK
6
CONTINUOUS
10
6.8768279527559057
20
-3.8670129133858269
11
6.8832960236220471
21
-3.8777124409448818
0
LINE
8
BLACK
6
CONTINUOUS
10
6.8832960236220471
20
-3.8777124409448818
11
6.8910066141732278
21
-3.8875542913385828
0
LINE
8
BLACK
6
CONTINUOUS
10
6.8910066141732278
20
-3.8875542913385828
11
6.8998472834645668
21
-3.8963949606299213
0
LINE
8
BLACK
6
CONTINUOUS
10
6.8998472834645668
20
-3.8963949606299213
11
6.9096891338582678
21
-3.9041055511811025
0
LINE
8
BLACK
6
CONTINUOUS
10
6.9096891338582678
20
-3.9041055511811025
11
6.9203886614173227
21
-3.9105736220472438
0
LINE
8
BLACK
6
CONTINUOUS
10
6.9203886614173227
20
-3.9105736220472438
11
6.9317898031496066
21
-3.9157048818897637
0
LINE
8
BLACK
6
CONTINUOUS
10
6.9317898031496066
20
-3.9157048818897637
11
6.9437262992125985
21
-3.9194244488188974
0
LINE
8
BLACK
6
CONTINUOUS
10
6.9437262992125985
20
-3.9194244488188974
11
6.9560241338582678
21
-3.9216781102362206
0
LINE
8
BLACK
6
CONTINUOUS
10
6.9560241338582678
20
-3.9216781102362206
11
6.9685039370078741
21
-3.9224329921259842
0
LINE
8
BLACK
6
CONTINUOUS
10
6.9685039370078741
20
-3.9224329921259842
11
6.9809837401574804
21
-3.9216781102362206
0
LINE
8
BLACK
6
CONTINUOUS
10
6.9809837401574804
20
-3.9216781102362206
11
6.9932815748031496
21
-3.9194244488188974
0
LINE
8
BLACK
6
CONTINUOUS
10
6.9932815748031496
20
-3.9194244488188974
11
7.0052180708661416
21
-3.9157048818897637
0
LINE
8
BLACK
6
CONTINUOUS
10
7.0052180708661416
20
-3.9157048818897637
11
7.0166192125984255
21
-3.9105736220472438
0
LINE
8
BLACK
6
CONTINUOUS
10
7.0166192125984255
20
-3.9105736220472438
11
7.0273187401574804
21
-3.9041055511811025
0
LINE
8
BLACK
6
CONTINUOUS
10
7.0273187401574804
20
-3.9041055511811025
11
7.0371605905511814
21
-3.8963949606299213
0
LINE
8
BLACK
6
CONTINUOUS
10
7.0371605905511814
20
-3.8963949606299213
11
7.0460012598425195
21
-3.8875542913385828
0
LINE
8
BLACK
6
CONTINUOUS
10
7.0460012598425195
20
-3.8875542913385828
11
7.0537118503937002
21
-3.8777124409448818
0
LINE
8
BLACK
6
CONTINUOUS
10
7.0537118503937002
20
-3.8777124409448818
11
7.0601799212598424
21
-3.8670129133858269
0
LINE
8
BLACK
6
CONTINUOUS
10
7.0601799212598424
20
-3.8670129133858269
11
7.0653111811023619
21
-3.8556117716535434
0
LINE
8
BLACK
6
CONTINUOUS
10
7.0653111811023619
20
-3.8556117716535434
11
7.069030748031496
21
-3.843675275590551
0
LINE
8
BLACK
6
CONTINUOUS
10
7.069030748031496
20
-3.843675275590551
11
7.0712844094488183
21
-3.8313774409448818
0
LINE
8
BLACK
6
CONTINUOUS
10
7.0712844094488183
20
-3.8313774409448818
11
7.0720392913385828
21
-3.8188976377952755
0
LINE
8
BLACK
6
CONTINUOUS
10
7.0720392913385828
20
-3.8188976377952755
11
7.0712844094488183
21
-3.8064178346456692
0
LINE
8
BLACK
6
CONTINUOUS
10
7.0712844094488183
20
-3.8064178346456692
11
7.069030748031496
21
-3.7941199999999999
0
LINE
8
BLACK
6
CONTINUOUS
10
7.069030748031496
20
-3.7941199999999999
11
7.0653111811023619
21
-3.782183503937008
0
LINE
8
BLACK
6
CONTINUOUS
10
7.0653111811023619
20
-3.782183503937008
11
7.0601799212598424
21
-3.7707823622047245
0
LINE
8
BLACK
6
CONTINUOUS
10
7.0601799212598424
20
-3.7707823622047245
11
7.0537118503937002
21
-3.7600828346456692
0
LINE
8
BLACK
6
CONTINUOUS
10
7.0537118503937002
20
-3.7600828346456692
11
7.0460012598425195
21
-3.7502409842519686
0
LINE
8
BLACK
6
CONTINUOUS
10
7.0460012598425195
20
-3.7502409842519686
11
7.0371605905511814
21
-3.7414003149606296
0
LINE
8
BLACK
6
CONTINUOUS
10
7.0371605905511814
20
-3.7414003149606296
11
7.0273187401574804
21
-3.7336897244094489
0
LINE
8
BLACK
6
CONTINUOUS
10
7.0273187401574804
20
-3.7336897244094489
11
7.0166192125984255
21
-3.7272216535433071
0
LINE
8
BLACK
6
CONTINUOUS
10
7.0166192125984255
20
-3.7272216535433071
11
7.0052180708661416
21
-3.7220903937007872
0
LINE
8
BLACK
6
CONTINUOUS
10
7.0052180708661416
20
-3.7220903937007872
11
6.9932815748031496
21
-3.7183708267716535
0
LINE
8
BLACK
6
CONTINUOUS
10
6.9932815748031496
20
-3.7183708267716535
11
6.9809837401574804
21
-3.7161171653543308
0
LINE
8
BLACK
6
CONTINUOUS
10
6.9809837401574804
20
-3.7161171653543308
11
6.9685039370078741
21
-3.7153622834645668
0
LINE
8
BLACK
6
CONTINUOUS
10
6.9685039370078741
20
-3.7153622834645668
11
6.9560241338582678
21
-3.7161171653543308
0
LINE
8
BLACK
6
CONTINUOUS
10
6.9560241338582678
20
-3.7161171653543308
11
6.9437262992125985
21
-3.7183708267716535
0
LINE
8
BLACK
6
CONTINUOUS
10
6.9437262992125985
20
-3.7183708267716535
11
6.9317898031496066
21
-3.7220903937007872
0
LINE
8
BLACK
6
CONTINUOUS
10
6.9317898031496066
20
-3.7220903937007872
11
6.9203886614173227
21
-3.7272216535433071
0
LINE
8
BLACK
6
CONTINUOUS
10
6.9203886614173227
20
-3.7272216535433071
11
6.9096891338582678
21
-3.7336897244094489
0
LINE
8
BLACK
6
CONTINUOUS
10
6.9096891338582678
20
-3.7336897244094489
11
6.8998472834645668
21
-3.7414003149606296
0
LINE
8
BLACK
6
CONTINUOUS
10
6.8998472834645668
20
-3.7414003149606296
11
6.8910066141732278
21
-3.7502409842519686
0
LINE
8
BLACK
6
CONTINUOUS
10
6.8910066141732278
20
-3.7502409842519686
11
6.8832960236220471
21
-3.7600828346456692
0
LINE
8
BLACK
6
CONTINUOUS
10
6.8832960236220471
20
-3.7600828346456692
11
6.8768279527559057
21
-3.7707823622047245
0
LINE
8
BLACK
6
CONTINUOUS
10
6.8768279527559057
20
-3.7707823622047245
11
6.8716966929133854
21
-3.782183503937008
0
LINE
8
BLACK
6
CONTINUOUS
10
6.8716966929133854
20
-3.782183503937008
11
6.8679771259842521
21
-3.7941199999999999
0
LINE
8
BLACK
6
CONTINUOUS
10
6.8679771259842521
20
-3.7941199999999999
11
6.8657234645669289
21
-3.8064178346456692
0
LINE
8
BLACK
6
CONTINUOUS
10
6.8657234645669289
20
-3.8064178346456692
11
6.8649685826771654
21
-3.8188976377952755
0
LINE
8
BLACK
6
CONTINUOUS
10
6.8649685826771654
20
-3.8188976377952755
11
6.8657234645669289
21
-3.8313774409448818
0
LINE
8
BLACK
6
CONTINUOUS
10
4.8556885433070862
20
-2.6277650787401576
11
4.8686653937007875
21
-2.6301431496062992
0
LINE
8
BLACK
6
CONTINUOUS
10
4.8686653937007875
20
-2.6301431496062992
11
4.8812609842519681
21
-2.6340681102362202
0
LINE
8
BLACK
6
CONTINUOUS
10
4.8812609842519681
20
-2.6340681102362202
11
4.8932916141732283
21
-2.6394826771653541
0
LINE
8
BLACK
6
CONTINUOUS
10
4.8932916141732283
20
-2.6394826771653541
11
4.9045818897637794
21
-2.646307874015748
0
LINE
8
BLACK
6
CONTINUOUS
10
4.9045818897637794
20
-2.646307874015748
11
4.9149671259842522
21
-2.6544442125984253
0
LINE
8
BLACK
6
CONTINUOUS
10
4.9149671259842522
20
-2.6544442125984253
11
4.9242959448818899
21
-2.663773031496063
0
LINE
8
BLACK
6
CONTINUOUS
10
4.9242959448818899
20
-2.663773031496063
11
4.9324322834645669
21
-2.6741582677165354
0
LINE
8
BLACK
6
CONTINUOUS
10
4.9324322834645669
20
-2.6741582677165354
11
4.9392574803149607
21
-2.6854485433070865
0
LINE
8
BLACK
6
CONTINUOUS
10
4.9392574803149607
20
-2.6854485433070865
11
4.9446720472440946
21
-2.6974791732283463
0
LINE
8
BLACK
6
CONTINUOUS
10
4.9446720472440946
20
-2.6974791732283463
11
4.9485970078740156
21
-2.7100747637795277
0
LINE
8
BLACK
6
CONTINUOUS
10
4.9485970078740156
20
-2.7100747637795277
11
4.9509750787401572
21
-2.7230516141732282
0
LINE
8
BLACK
6
CONTINUOUS
10
4.9509750787401572
20
-2.7230516141732282
11
4.9517716535433074
21
-2.7362204724409449
0
LINE
8
BLACK
6
CONTINUOUS
10
4.9517716535433074
20
-2.7362204724409449
11
4.9509750787401572
21
-2.7493893307086612
0
LINE
8
BLACK
6
CONTINUOUS
10
4.9509750787401572
20
-2.7493893307086612
11
4.9485970078740156
21
-2.7623661811023621
0
LINE
8
BLACK
6
CONTINUOUS
10
4.9485970078740156
20
-2.7623661811023621
11
4.9446720472440946
21
-2.7749617716535431
0
LINE
8
BLACK
6
CONTINUOUS
10
4.9446720472440946
20
-2.7749617716535431
11
4.9392574803149607
21
-2.7869924015748029
0
LINE
8
BLACK
6
CONTINUOUS
10
4.9392574803149607
20
-2.7869924015748029
11
4.9324322834645669
21
-2.7982826771653544
0
LINE
8
BLACK
6
CONTINUOUS
10
4.9324322834645669
20
-2.7982826771653544
11
4.9242959448818899
21
-2.8086679133858268
0
LINE
8
BLACK
6
CONTINUOUS
10
4.9242959448818899
20
-2.8086679133858268
11
4.9149671259842522
21
-2.8179967322834645
0
LINE
8
BLACK
6
CONTINUOUS
10
4.9149671259842522
20
-2.8179967322834645
11
4.9045818897637794
21
-2.8261330708661418
0
LINE
8
BLACK
6
CONTINUOUS
10
4.9045818897637794
20
-2.8261330708661418
11
4.8932916141732283
21
-2.8329582677165353
0
LINE
8
BLACK
6
CONTINUOUS
10
4.8932916141732283
20
-2.8329582677165353
11
4.8812609842519681
21
-2.8383728346456691
0
LINE
8
BLACK
6
CONTINUOUS
10
4.8812609842519681
20
-2.8383728346456691
11
4.8686653937007875
21
-2.8422977952755906
0
LINE
8
BLACK
6
CONTINUOUS
10
4.8686653937007875
20
-2.8422977952755906
11
4.8556885433070862
21
-2.8446758661417322
0
LINE
8
BLACK
6
CONTINUOUS
10
4.8556885433070862
20
-2.8446758661417322
11
4.8425196850393704
21
-2.8454724409448819
0
LINE
8
BLACK
6
CONTINUOUS
10
4.8425196850393704
20
-2.8454724409448819
11
4.8293508267716536
21
-2.8446758661417322
0
LINE
8
BLACK
6
CONTINUOUS
10
4.8293508267716536
20
-2.8446758661417322
11
4.8163739763779523
21
-2.8422977952755906
0
LINE
8
BLACK
6
CONTINUOUS
10
4.8163739763779523
20
-2.8422977952755906
11
4.8037783858267717
21
-2.8383728346456691
0
LINE
8
BLACK
6
CONTINUOUS
10
4.8037783858267717
20
-2.8383728346456691
11
4.7917477559055115
21
-2.8329582677165353
0
LINE
8
BLACK
6
CONTINUOUS
10
4.7917477559055115
20
-2.8329582677165353
11
4.7804574803149604
21
-2.8261330708661418
0
LINE
8
BLACK
6
CONTINUOUS
10
4.7804574803149604
20
-2.8261330708661418
11
4.7700722440944885
21
-2.8179967322834645
0
LINE
8
BLACK
6
CONTINUOUS
10
4.7700722440944885
20
-2.8179967322834645
11
4.7607434251968499
21
-2.8086679133858268
0
LINE
8
BLACK
6
CONTINUOUS
10
4.7607434251968499
20
-2.8086679133858268
11
4.752607086614173
21
-2.7982826771653544
0
LINE
8
BLACK
6
CONTINUOUS
10
4.752607086614173
20
-2.7982826771653544
11
4.7457818897637791
21
-2.7869924015748029
0
LINE
8
BLACK
6
CONTINUOUS
10
4.7457818897637791
20
-2.7869924015748029
11
4.7403673228346452
21
-2.7749617716535431
0
LINE
8
BLACK
6
CONTINUOUS
10
4.7403673228346452
20
-2.7749617716535431
11
4.7364423622047243
21
-2.7623661811023621
0
LINE
8
BLACK
6
CONTINUOUS
10
4.7364423622047243
20
-2.7623661811023621
11
4.7340642913385826
21
-2.7493893307086612
0
LINE
8
BLACK
6
CONTINUOUS
10
4.7340642913385826
20
-2.7493893307086612
11
4.7332677165354333
21
-2.7362204724409449
0
LINE
8
BLACK
6
CONTINUOUS
10
4.7332677165354333
20
-2.7362204724409449
11
4.7340642913385826
21
-2.7230516141732282
0
LINE
8
BLACK
6
CONTINUOUS
10
4.7340642913385826
20
-2.7230516141732282
11
4.7364423622047243
21
-2.7100747637795277
0
LINE
8
BLACK
6
CONTINUOUS
10
4.7364423622047243
20
-2.7100747637795277
11
4.7403673228346452
21
-2.6974791732283463
0
LINE
8
BLACK
6
CONTINUOUS
10
4.7403673228346452
20
-2.6974791732283463
11
4.7457818897637791
21
-2.6854485433070865
0
LINE
8
BLACK
6
CONTINUOUS
10
4.7457818897637791
20
-2.6854485433070865
11
4.752607086614173
21
-2.6741582677165354
0
LINE
8
BLACK
6
CONTINUOUS
10
4.752607086614173
20
-2.6741582677165354
11
4.7607434251968499
21
-2.663773031496063
0
LINE
8
BLACK
6
CONTINUOUS
10
4.7607434251968499
20
-2.663773031496063
11
4.7700722440944885
21
-2.6544442125984253
0
LINE
8
BLACK
6
CONTINUOUS
10
4.7700722440944885
20
-2.6544442125984253
11
4.7804574803149604
21
-2.646307874015748
0
LINE
8
BLACK
6
CONTINUOUS
10
4.7804574803149604
20
-2.646307874015748
11
4.7917477559055115
21
-2.6394826771653541
0
LINE
8
BLACK
6
CONTINUOUS
10
4.7917477559055115
20
-2.6394826771653541
11
4.8037783858267717
21
-2.6340681102362202
0
LINE
8
BLACK
6
CONTINUOUS
10
4.8037783858267717
20
-2.6340681102362202
11
4.8163739763779523
21
-2.6301431496062992
0
LINE
8
BLACK
6
CONTINUOUS
10
4.8163739763779523
20
-2.6301431496062992
11
4.8293508267716536
21
-2.6277650787401576
0
LINE
8
BLACK
6
CONTINUOUS
10
4.8293508267716536
20
-2.6277650787401576
11
4.8425196850393704
21
-2.6269685039370079
0
LINE
8
BLACK
6
CONTINUOUS
10
4.8425196850393704
20
-2.6269685039370079
11
4.8556885433070862
21
-2.6277650787401576
0
LINE
8
BLACK
6
CONTINUOUS
10
4.7397392125984252
20
-2.7487002755905512
11
4.7419928740157475
21
-2.7609981102362204
0
LINE
8
BLACK
6
CONTINUOUS
10
4.7419928740157475
20
-2.7609981102362204
11
4.7457124409448816
21
-2.7729346062992124
0
LINE
8
BLACK
6
CONTINUOUS
10
4.7457124409448816
20
-2.7729346062992124
11
4.7508437007874011
21
-2.7843357480314959
0
LINE
8
BLACK
6
CONTINUOUS
10
4.7508437007874011
20
-2.7843357480314959
11
4.7573117716535434
21
-2.7950352755905512
0
LINE
8
BLACK
6
CONTINUOUS
10
4.7573117716535434
20
-2.7950352755905512
11
4.7650223622047241
21
-2.8048771259842518
0
LINE
8
BLACK
6
CONTINUOUS
10
4.7650223622047241
20
-2.8048771259842518
11
4.7738630314960631
21
-2.8137177952755903
0
LINE
8
BLACK
6
CONTINUOUS
10
4.7738630314960631
20
-2.8137177952755903
11
4.7837048818897641
21
-2.8214283858267715
0
LINE
8
BLACK
6
CONTINUOUS
10
4.7837048818897641
20
-2.8214283858267715
11
4.794404409448819
21
-2.8278964566929132
0
LINE
8
BLACK
6
CONTINUOUS
10
4.794404409448819
20
-2.8278964566929132
11
4.805805551181102
21
-2.8330277165354332
0
LINE
8
BLACK
6
CONTINUOUS
10
4.805805551181102
20
-2.8330277165354332
11
4.8177420472440939
21
-2.8367472834645668
0
LINE
8
BLACK
6
CONTINUOUS
10
4.8177420472440939
20
-2.8367472834645668
11
4.8300398818897641
21
-2.8390009448818896
0
LINE
8
BLACK
6
CONTINUOUS
10
4.8300398818897641
20
-2.8390009448818896
11
4.8425196850393704
21
-2.8397558267716536
0
LINE
8
BLACK
6
CONTINUOUS
10
4.8425196850393704
20
-2.8397558267716536
11
4.8549994881889766
21
-2.8390009448818896
0
LINE
8
BLACK
6
CONTINUOUS
10
4.8549994881889766
20
-2.8390009448818896
11
4.8672973228346459
21
-2.8367472834645668
0
LINE
8
BLACK
6
CONTINUOUS
10
4.8672973228346459
20
-2.8367472834645668
11
4.8792338188976379
21
-2.8330277165354332
0
LINE
8
BLACK
6
CONTINUOUS
10
4.8792338188976379
20
-2.8330277165354332
11
4.8906349606299209
21
-2.8278964566929132
0
LINE
8
BLACK
6
CONTINUOUS
10
4.8906349606299209
20
-2.8278964566929132
11
4.9013344881889767
21
-2.8214283858267715
0
LINE
8
BLACK
6
CONTINUOUS
10
4.9013344881889767
20
-2.8214283858267715
11
4.9111763385826768
21
-2.8137177952755903
0
LINE
8
BLACK
6
CONTINUOUS
10
4.9111763385826768
20
-2.8137177952755903
11
4.9200170078740157
21
-2.8048771259842518
0
LINE
8
BLACK
6
CONTINUOUS
10
4.9200170078740157
20
-2.8048771259842518
11
4.9277275984251965
21
-2.7950352755905512
0
LINE
8
BLACK
6
CONTINUOUS
10
4.9277275984251965
20
-2.7950352755905512
11
4.9341956692913387
21
-2.7843357480314959
0
LINE
8
BLACK
6
CONTINUOUS
10
4.9341956692913387
20
-2.7843357480314959
11
4.9393269291338582
21
-2.7729346062992124
0
LINE
8
BLACK
6
CONTINUOUS
10
4.9393269291338582
20
-2.7729346062992124
11
4.9430464960629923
21
-2.7609981102362204
0
LINE
8
BLACK
6
CONTINUOUS
10
4.9430464960629923
20
-2.7609981102362204
11
4.9453001574803146
21
-2.7487002755905512
0
LINE
8
BLACK
6
CONTINUOUS
10
4.9453001574803146
20
-2.7487002755905512
11
4.9460550393700791
21
-2.7362204724409449
0
LINE
8
BLACK
6
CONTINUOUS
10
4.9460550393700791
20
-2.7362204724409449
11
4.9453001574803146
21
-2.7237406692913386
0
LINE
8
BLACK
6
CONTINUOUS
10
4.9453001574803146
20
-2.7237406692913386
11
4.9430464960629923
21
-2.7114428346456694
0
LINE
8
BLACK
6
CONTINUOUS
10
4.9430464960629923
20
-2.7114428346456694
11
4.9393269291338582
21
-2.699506338582677
0
LINE
8
BLACK
6
CONTINUOUS
10
4.9393269291338582
20
-2.699506338582677
11
4.9341956692913387
21
-2.6881051968503935
0
LINE
8
BLACK
6
CONTINUOUS
10
4.9341956692913387
20
-2.6881051968503935
11
4.9277275984251965
21
-2.6774056692913386
0
LINE
8
BLACK
6
CONTINUOUS
10
4.9277275984251965
20
-2.6774056692913386
11
4.9200170078740157
21
-2.6675638188976376
0
LINE
8
BLACK
6
CONTINUOUS
10
4.9200170078740157
20
-2.6675638188976376
11
4.9111763385826768
21
-2.6587231496062991
0
LINE
8
BLACK
6
CONTINUOUS
10
4.9111763385826768
20
-2.6587231496062991
11
4.9013344881889767
21
-2.6510125590551179
0
LINE
8
BLACK
6
CONTINUOUS
10
4.9013344881889767
20
-2.6510125590551179
11
4.8906349606299209
21
-2.6445444881889761
0
LINE
8
BLACK
6
CONTINUOUS
10
4.8906349606299209
20
-2.6445444881889761
11
4.8792338188976379
21
-2.6394132283464566
0
LINE
8
BLACK
6
CONTINUOUS
10
4.8792338188976379
20
-2.6394132283464566
11
4.8672973228346459
21
-2.635693661417323
0
LINE
8
BLACK
6
CONTINUOUS
10
4.8672973228346459
20
-2.635693661417323
11
4.8549994881889766
21
-2.6334399999999998
0
LINE
8
BLACK
6
CONTINUOUS
10
4.8549994881889766
20
-2.6334399999999998
11
4.8425196850393704
21
-2.6326851181102362
0
LINE
8
BLACK
6
CONTINUOUS
10
4.8425196850393704
20
-2.6326851181102362
11
4.8300398818897641
21
-2.6334399999999998
0
LINE
8
BLACK
6
CONTINUOUS
10
4.8300398818897641
20
-2.6334399999999998
11
4.8177420472440939
21
-2.635693661417323
0
LINE
8
BLACK
6
CONTINUOUS
10
4.8177420472440939
20
-2.635693661417323
11
4.805805551181102
21
-2.6394132283464566
0
LINE
8
BLACK
6
CONTINUOUS
10
4.805805551181102
20
-2.6394132283464566
11
4.794404409448819
21
-2.6445444881889761
0
LINE
8
BLACK
6
CONTINUOUS
10
4.794404409448819
20
-2.6445444881889761
11
4.7837048818897641
21
-2.6510125590551179
0
LINE
8
BLACK
6
CONTINUOUS
10
4.7837048818897641
20
-2.6510125590551179
11
4.7738630314960631
21
-2.6587231496062991
0
LINE
8
BLACK
6
CONTINUOUS
10
4.7738630314960631
20
-2.6587231496062991
11
4.7650223622047241
21
-2.6675638188976376
0
LINE
8
BLACK
6
CONTINUOUS
10
4.7650223622047241
20
-2.6675638188976376
11
4.7573117716535434
21
-2.6774056692913386
0
LINE
8
BLACK
6
CONTINUOUS
10
4.7573117716535434
20
-2.6774056692913386
11
4.7508437007874011
21
-2.6881051968503935
0
LINE
8
BLACK
6
CONTINUOUS
10
4.7508437007874011
20
-2.6881051968503935
11
4.7457124409448816
21
-2.699506338582677
0
LINE
8
BLACK
6
CONTINUOUS
10
4.7457124409448816
20
-2.699506338582677
11
4.7419928740157475
21
-2.7114428346456694
0
LINE
8
BLACK
6
CONTINUOUS
10
4.7419928740157475
20
-2.7114428346456694
11
4.7397392125984252
21
-2.7237406692913386
0
LINE
8
BLACK
6
CONTINUOUS
10
4.7397392125984252
20
-2.7237406692913386
11
4.7389843307086617
21
-2.7362204724409449
0
LINE
8
BLACK
6
CONTINUOUS
10
4.7389843307086617
20
-2.7362204724409449
11
4.7397392125984252
21
-2.7487002755905512
0
LINE
8
BLACK
6
CONTINUOUS
10
6.9816727952755908
20
-2.6277650787401576
11
6.9946496456692913
21
-2.6301431496062992
0
LINE
8
BLACK
6
CONTINUOUS
10
6.9946496456692913
20
-2.6301431496062992
11
7.0072452362204727
21
-2.6340681102362202
0
LINE
8
BLACK
6
CONTINUOUS
10
7.0072452362204727
20
-2.6340681102362202
11
7.019275866141732
21
-2.6394826771653541
0
LINE
8
BLACK
6
CONTINUOUS
10
7.019275866141732
20
-2.6394826771653541
11
7.0305661417322831
21
-2.646307874015748
0
LINE
8
BLACK
6
CONTINUOUS
10
7.0305661417322831
20
-2.646307874015748
11
7.0409513779527559
21
-2.6544442125984253
0
LINE
8
BLACK
6
CONTINUOUS
10
7.0409513779527559
20
-2.6544442125984253
11
7.0502801968503936
21
-2.663773031496063
0
LINE
8
BLACK
6
CONTINUOUS
10
7.0502801968503936
20
-2.663773031496063
11
7.0584165354330706
21
-2.6741582677165354
0
LINE
8
BLACK
6
CONTINUOUS
10
7.0584165354330706
20
-2.6741582677165354
11
7.0652417322834644
21
-2.6854485433070865
0
LINE
8
BLACK
6
CONTINUOUS
10
7.0652417322834644
20
-2.6854485433070865
11
7.0706562992125983
21
-2.6974791732283463
0
LINE
8
BLACK
6
CONTINUOUS
10
7.0706562992125983
20
-2.6974791732283463
11
7.0745812598425193
21
-2.7100747637795277
0
LINE
8
BLACK
6
CONTINUOUS
10
7.0745812598425193
20
-2.7100747637795277
11
7.0769593307086609
21
-2.7230516141732282
0
LINE
8
BLACK
6
CONTINUOUS
10
7.0769593307086609
20
-2.7230516141732282
11
7.0777559055118111
21
-2.7362204724409449
0
LINE
8
BLACK
6
CONTINUOUS
10
7.0777559055118111
20
-2.7362204724409449
11
7.0769593307086609
21
-2.7493893307086612
0
LINE
8
BLACK
6
CONTINUOUS
10
7.0769593307086609
20
-2.7493893307086612
11
7.0745812598425193
21
-2.7623661811023621
0
LINE
8
BLACK
6
CONTINUOUS
10
7.0745812598425193
20
-2.7623661811023621
11
7.0706562992125983
21
-2.7749617716535431
0
LINE
8
BLACK
6
CONTINUOUS
10
7.0706562992125983
20
-2.7749617716535431
11
7.0652417322834644
21
-2.7869924015748029
0
LINE
8
BLACK
6
CONTINUOUS
10
7.0652417322834644
20
-2.7869924015748029
11
7.0584165354330706
21
-2.7982826771653544
0
LINE
8
BLACK
6
CONTINUOUS
10
7.0584165354330706
20
-2.7982826771653544
11
7.0502801968503936
21
-2.8086679133858268
0
LINE
8
BLACK
6
CONTINUOUS
10
7.0502801968503936
20
-2.8086679133858268
11
7.0409513779527559
21
-2.8179967322834645
0
LINE
8
BLACK
6
CONTINUOUS
10
7.0409513779527559
20
-2.8179967322834645
11
7.0305661417322831
21
-2.8261330708661418
0
LINE
8
BLACK
6
CONTINUOUS
10
7.0305661417322831
20
-2.8261330708661418
11
7.019275866141732
21
-2.8329582677165353
0
LINE
8
BLACK
6
CONTINUOUS
10
7.019275866141732
20
-2.8329582677165353
11
7.0072452362204727
21
-2.8383728346456691
0
LINE
8
BLACK
6
CONTINUOUS
10
7.0072452362204727
20
-2.8383728346456691
11
6.9946496456692913
21
-2.8422977952755906
0
LINE
8
BLACK
6
CONTINUOUS
10
6.9946496456692913
20
-2.8422977952755906
11
6.9816727952755908
21
-2.8446758661417322
0
LINE
8
BLACK
6
CONTINUOUS
10
6.9816727952755908
20
-2.8446758661417322
11
6.9685039370078741
21
-2.8454724409448819
0
LINE
8
BLACK
6
CONTINUOUS
10
6.9685039370078741
20
-2.8454724409448819
11
6.9553350787401573
21
-2.8446758661417322
0
LINE
8
BLACK
6
CONTINUOUS
10
6.9553350787401573
20
-2.8446758661417322
11
6.9423582283464569
21
-2.8422977952755906
0
LINE
8
BLACK
6
CONTINUOUS
10
6.9423582283464569
20
-2.8422977952755906
11
6.9297626377952755
21
-2.8383728346456691
0
LINE
8
BLACK
6
CONTINUOUS
10
6.9297626377952755
20
-2.8383728346456691
11
6.9177320078740152
21
-2.8329582677165353
0
LINE
8
BLACK
6
CONTINUOUS
10
6.9177320078740152
20
-2.8329582677165353
11
6.9064417322834641
21
-2.8261330708661418
0
LINE
8
BLACK
6
CONTINUOUS
10
6.9064417322834641
20
-2.8261330708661418
11
6.8960564960629922
21
-2.8179967322834645
0
LINE
8
BLACK
6
CONTINUOUS
10
6.8960564960629922
20
-2.8179967322834645
11
6.8867276771653545
21
-2.8086679133858268
0
LINE
8
BLACK
6
CONTINUOUS
10
6.8867276771653545
20
-2.8086679133858268
11
6.8785913385826767
21
-2.7982826771653544
0
LINE
8
BLACK
6
CONTINUOUS
10
6.8785913385826767
20
-2.7982826771653544
11
6.8717661417322837
21
-2.7869924015748029
0
LINE
8
BLACK
6
CONTINUOUS
10
6.8717661417322837
20
-2.7869924015748029
11
6.8663515748031498
21
-2.7749617716535431
0
LINE
8
BLACK
6
CONTINUOUS
10
6.8663515748031498
20
-2.7749617716535431
11
6.862426614173228
21
-2.7623661811023621
0
LINE
8
BLACK
6
CONTINUOUS
10
6.862426614173228
20
-2.7623661811023621
11
6.8600485433070864
21
-2.7493893307086612
0
LINE
8
BLACK
6
CONTINUOUS
10
6.8600485433070864
20
-2.7493893307086612
11
6.859251968503937
21
-2.7362204724409449
0
LINE
8
BLACK
6
CONTINUOUS
10
6.859251968503937
20
-2.7362204724409449
11
6.8600485433070864
21
-2.7230516141732282
0
LINE
8
BLACK
6
CONTINUOUS
10
6.8600485433070864
20
-2.7230516141732282
11
6.862426614173228
21
-2.7100747637795277
0
LINE
8
BLACK
6
CONTINUOUS
10
6.862426614173228
20
-2.7100747637795277
11
6.8663515748031498
21
-2.6974791732283463
0
LINE
8
BLACK
6
CONTINUOUS
10
6.8663515748031498
20
-2.6974791732283463
11
6.8717661417322837
21
-2.6854485433070865
0
LINE
8
BLACK
6
CONTINUOUS
10
6.8717661417322837
20
-2.6854485433070865
11
6.8785913385826767
21
-2.6741582677165354
0
LINE
8
BLACK
6
CONTINUOUS
10
6.8785913385826767
20
-2.6741582677165354
11
6.8867276771653545
21
-2.663773031496063
0
LINE
8
BLACK
6
CONTINUOUS
10
6.8867276771653545
20
-2.663773031496063
11
6.8960564960629922
21
-2.6544442125984253
0
LINE
8
BLACK
6
CONTINUOUS
10
6.8960564960629922
20
-2.6544442125984253
11
6.9064417322834641
21
-2.646307874015748
0
LINE
8
BLACK
6
CONTINUOUS
10
6.9064417322834641
20
-2.646307874015748
11
6.9177320078740152
21
-2.6394826771653541
0
LINE
8
BLACK
6
CONTINUOUS
10
6.9177320078740152
20
-2.6394826771653541
11
6.9297626377952755
21
-2.6340681102362202
0
LINE
8
BLACK
6
CONTINUOUS
10
6.9297626377952755
20
-2.6340681102362202
11
6.9423582283464569
21
-2.6301431496062992
0
LINE
8
BLACK
6
CONTINUOUS
10
6.9423582283464569
20
-2.6301431496062992
11
6.9553350787401573
21
-2.6277650787401576
0
LINE
8
BLACK
6
CONTINUOUS
10
6.9553350787401573
20
-2.6277650787401576
11
6.9685039370078741
21
-2.6269685039370079
0
LINE
8
BLACK
6
CONTINUOUS
10
6.9685039370078741
20
-2.6269685039370079
11
6.9816727952755908
21
-2.6277650787401576
0
LINE
8
BLACK
6
CONTINUOUS
10
6.8657234645669289
20
-2.7487002755905512
11
6.8679771259842521
21
-2.7609981102362204
0
LINE
8
BLACK
6
CONTINUOUS
10
6.8679771259842521
20
-2.7609981102362204
11
6.8716966929133854
21
-2.7729346062992124
0
LINE
8
BLACK
6
CONTINUOUS
10
6.8716966929133854
20
-2.7729346062992124
11
6.8768279527559057
21
-2.7843357480314959
0
LINE
8
BLACK
6
CONTINUOUS
10
6.8768279527559057
20
-2.7843357480314959
11
6.8832960236220471
21
-2.7950352755905512
0
LINE
8
BLACK
6
CONTINUOUS
10
6.8832960236220471
20
-2.7950352755905512
11
6.8910066141732278
21
-2.8048771259842518
0
LINE
8
BLACK
6
CONTINUOUS
10
6.8910066141732278
20
-2.8048771259842518
11
6.8998472834645668
21
-2.8137177952755903
0
LINE
8
BLACK
6
CONTINUOUS
10
6.8998472834645668
20
-2.8137177952755903
11
6.9096891338582678
21
-2.8214283858267715
0
LINE
8
BLACK
6
CONTINUOUS
10
6.9096891338582678
20
-2.8214283858267715
11
6.9203886614173227
21
-2.8278964566929132
0
LINE
8
BLACK
6
CONTINUOUS
10
6.9203886614173227
20
-2.8278964566929132
11
6.9317898031496066
21
-2.8330277165354332
0
LINE
8
BLACK
6
CONTINUOUS
10
6.9317898031496066
20
-2.8330277165354332
11
6.9437262992125985
21
-2.8367472834645668
0
LINE
8
BLACK
6
CONTINUOUS
10
6.9437262992125985
20
-2.8367472834645668
11
6.9560241338582678
21
-2.8390009448818896
0
LINE
8
BLACK
6
CONTINUOUS
10
6.9560241338582678
20
-2.8390009448818896
11
6.9685039370078741
21
-2.8397558267716536
0
LINE
8
BLACK
6
CONTINUOUS
10
6.9685039370078741
20
-2.8397558267716536
11
6.9809837401574804
21
-2.8390009448818896
0
LINE
8
BLACK
6
CONTINUOUS
10
6.9809837401574804
20
-2.8390009448818896
11
6.9932815748031496
21
-2.8367472834645668
0
LINE
8
BLACK
6
CONTINUOUS
10
6.9932815748031496
20
-2.8367472834645668
11
7.0052180708661416
21
-2.8330277165354332
0
LINE
8
BLACK
6
CONTINUOUS
10
7.0052180708661416
20
-2.8330277165354332
11
7.0166192125984255
21
-2.8278964566929132
0
LINE
8
BLACK
6
CONTINUOUS
10
7.0166192125984255
20
-2.8278964566929132
11
7.0273187401574804
21
-2.8214283858267715
0
LINE
8
BLACK
6
CONTINUOUS
10
7.0273187401574804
20
-2.8214283858267715
11
7.0371605905511814
21
-2.8137177952755903
0
LINE
8
BLACK
6
CONTINUOUS
10
7.0371605905511814
20
-2.8137177952755903
11
7.0460012598425195
21
-2.8048771259842518
0
LINE
8
BLACK
6
CONTINUOUS
10
7.0460012598425195
20
-2.8048771259842518
11
7.0537118503937002
21
-2.7950352755905512
0
LINE
8
BLACK
6
CONTINUOUS
10
7.0537118503937002
20
-2.7950352755905512
11
7.0601799212598424
21
-2.7843357480314959
0
LINE
8
BLACK
6
CONTINUOUS
10
7.0601799212598424
20
-2.7843357480314959
11
7.0653111811023619
21
-2.7729346062992124
0
LINE
8
BLACK
6
CONTINUOUS
10
7.0653111811023619
20
-2.7729346062992124
11
7.069030748031496
21
-2.7609981102362204
0
LINE
8
BLACK
6
CONTINUOUS
10
7.069030748031496
20
-2.7609981102362204
11
7.0712844094488183
21
-2.7487002755905512
0
LINE
8
BLACK
6
CONTINUOUS
10
7.0712844094488183
20
-2.7487002755905512
11
7.0720392913385828
21
-2.7362204724409449
0
LINE
8
BLACK
6
CONTINUOUS
10
7.0720392913385828
20
-2.7362204724409449
11
7.0712844094488183
21
-2.7237406692913386
0
LINE
8
BLACK
6
CONTINUOUS
10
7.0712844094488183
20
-2.7237406692913386
11
7.069030748031496
21
-2.7114428346456694
0
LINE
8
BLACK
6
CONTINUOUS
10
7.069030748031496
20
-2.7114428346456694
11
7.0653111811023619
21
-2.699506338582677
0
LINE
8
BLACK
6
CONTINUOUS
10
7.0653111811023619
20
-2.699506338582677
11
7.0601799212598424
21
-2.6881051968503935
0
LINE
8
BLACK
6
CONTINUOUS
10
7.0601799212598424
20
-2.6881051968503935
11
7.0537118503937002
21
-2.6774056692913386
0
LINE
8
BLACK
6
CONTINUOUS
10
7.0537118503937002
20
-2.6774056692913386
11
7.0460012598425195
21
-2.6675638188976376
0
LINE
8
BLACK
6
CONTINUOUS
10
7.0460012598425195
20
-2.6675638188976376
11
7.0371605905511814
21
-2.6587231496062991
0
LINE
8
BLACK
6
CONTINUOUS
10
7.0371605905511814
20
-2.6587231496062991
11
7.0273187401574804
21
-2.6510125590551179
0
LINE
8
BLACK
6
CONTINUOUS
10
7.0273187401574804
20
-2.6510125590551179
11
7.0166192125984255
21
-2.6445444881889761
0
LINE
8
BLACK
6
CONTINUOUS
10
7.0166192125984255
20
-2.6445444881889761
11
7.0052180708661416
21
-2.6394132283464566
0
LINE
8
BLACK
6
CONTINUOUS
10
7.0052180708661416
20
-2.6394132283464566
11
6.9932815748031496
21
-2.635693661417323
0
LINE
8
BLACK
6
CONTINUOUS
10
6.9932815748031496
20
-2.635693661417323
11
6.9809837401574804
21
-2.6334399999999998
0
LINE
8
BLACK
6
CONTINUOUS
10
6.9809837401574804
20
-2.6334399999999998
11
6.9685039370078741
21
-2.6326851181102362
0
LINE
8
BLACK
6
CONTINUOUS
10
6.9685039370078741
20
-2.6326851181102362
11
6.9560241338582678
21
-2.6334399999999998
0
LINE
8
BLACK
6
CONTINUOUS
10
6.9560241338582678
20
-2.6334399999999998
11
6.9437262992125985
21
-2.635693661417323
0
LINE
8
BLACK
6
CONTINUOUS
10
6.9437262992125985
20
-2.635693661417323
11
6.9317898031496066
21
-2.6394132283464566
0
LINE
8
BLACK
6
CONTINUOUS
10
6.9317898031496066
20
-2.6394132283464566
11
6.9203886614173227
21
-2.6445444881889761
0
LINE
8
BLACK
6
CONTINUOUS
10
6.9203886614173227
20
-2.6445444881889761
11
6.9096891338582678
21
-2.6510125590551179
0
LINE
8
BLACK
6
CONTINUOUS
10
6.9096891338582678
20
-2.6510125590551179
11
6.8998472834645668
21
-2.6587231496062991
0
LINE
8
BLACK
6
CONTINUOUS
10
6.8998472834645668
20
-2.6587231496062991
11
6.8910066141732278
21
-2.6675638188976376
0
LINE
8
BLACK
6
CONTINUOUS
10
6.8910066141732278
20
-2.6675638188976376
11
6.8832960236220471
21
-2.6774056692913386
0
LINE
8
BLACK
6
CONTINUOUS
10
6.8832960236220471
20
-2.6774056692913386
11
6.8768279527559057
21
-2.6881051968503935
0
LINE
8
BLACK
6
CONTINUOUS
10
6.8768279527559057
20
-2.6881051968503935
11
6.8716966929133854
21
-2.699506338582677
0
LINE
8
BLACK
6
CONTINUOUS
10
6.8716966929133854
20
-2.699506338582677
11
6.8679771259842521
21
-2.7114428346456694
0
LINE
8
BLACK
6
CONTINUOUS
10
6.8679771259842521
20
-2.7114428346456694
11
6.8657234645669289
21
-2.7237406692913386
0
LINE
8
BLACK
6
CONTINUOUS
10
6.8657234645669289
20
-2.7237406692913386
11
6.8649685826771654
21
-2.7362204724409449
0
LINE
8
BLACK
6
CONTINUOUS
10
6.8649685826771654
20
-2.7362204724409449
11
6.8657234645669289
21
-2.7487002755905512
  0
ENDSEC
  0
EOF
