  0
SECTION
  2
HEADER
  9
$ANGBASE
  50
0.0
  9
$ANGDIR
  70
1
  9
$MEASUREMENT
  70
0
  0
ENDSEC
  0
SECTION
  2
TABLES
  0
TABLE
  2
LTYPE
  70
4
  0
LTYPE
  5
40F
  2
CONTINUOUS
  70
0
  3
Solid line
  72
65
  73
0
  40
0.0
  0
LTYPE
  5
410
  2
DASHDOT
 70
0
  3
Dash Dot ____ _ ____ _
 72
65
 73
4
 40
2.0
 49
1.25
 49
-0.25
 49
0.25
 49
-0.25
  0
LTYPE
  5
411
  2
DASHED
 70
0
  3
Dashed __ __ __ __ __
 72
65
 73
2
 40
0.75
 49
0.5
 49
-0.25
  0
LTYPE
  5
43B
  2
DOTTED
 70
0
  3
Dotted .  .  .  .
 72
65
 73
2
 40
0.2
 49
0.0
 49
-0.2
  0
ENDTAB
  0
TABLE
  2
STYLE
  70
4
  0
STYLE
  2
KICAD
  70
0
  40
0
  41
1
  42
1
  50
0
  71
0
  3
isocp.shx
  0
STYLE
  2
KICADB
  70
0
  40
0
  41
1
  42
1
  50
0
  71
0
  3
isocp.shx
  0
STYLE
  2
KICADI
  70
0
  40
0
  41
1
  42
1
  50
15
  71
0
  3
isocp.shx
  0
STYLE
  2
KICADBI
  70
0
  40
0
  41
1
  42
1
  50
15
  71
0
  3
isocp.shx
  0
ENDTAB
  0
TABLE
  2
LAYER
  70
1
  0
LAYER
  2
BLACK
  70
0
  62
7
  6
CONTINUOUS
  0
ENDTAB
  0
ENDSEC
  0
SECTION
  2
ENTITIES
0
LINE
8
BLACK
6
CONTINUOUS
10
4.860820078740157
20
-3.7111892913385827
11
4.8727645275590552
21
-3.7139155118110234
0
LINE
8
BLACK
6
CONTINUOUS
10
4.8727645275590552
20
-3.7139155118110234
11
4.8843286220472439
21
-3.7179619685039369
0
LINE
8
BLACK
6
CONTINUOUS
10
4.8843286220472439
20
-3.7179619685039369
11
4.895366929133858
21
-3.7232777559055119
0
LINE
8
BLACK
6
CONTINUOUS
10
4.895366929133858
20
-3.7232777559055119
11
4.9057406692913386
21
-3.7297960236220473
0
LINE
8
BLACK
6
CONTINUOUS
10
4.9057406692913386
20
-3.7297960236220473
11
4.9153193700787403
21
-3.7374347637795275
0
LINE
8
BLACK
6
CONTINUOUS
10
4.9153193700787403
20
-3.7374347637795275
11
4.9239825590551183
21
-3.7460979527559055
0
LINE
8
BLACK
6
CONTINUOUS
10
4.9239825590551183
20
-3.7460979527559055
11
4.9316212992125985
21
-3.7556766535433068
0
LINE
8
BLACK
6
CONTINUOUS
10
4.9316212992125985
20
-3.7556766535433068
11
4.9381395669291335
21
-3.7660503937007874
0
LINE
8
BLACK
6
CONTINUOUS
10
4.9381395669291335
20
-3.7660503937007874
11
4.9434553543307089
21
-3.7770887007874014
0
LINE
8
BLACK
6
CONTINUOUS
10
4.9434553543307089
20
-3.7770887007874014
11
4.9475018110236215
21
-3.7886527952755906
0
LINE
8
BLACK
6
CONTINUOUS
10
4.9475018110236215
20
-3.7886527952755906
11
4.9502280314960627
21
-3.800597244094488
0
LINE
8
BLACK
6
CONTINUOUS
10
4.9502280314960627
20
-3.800597244094488
11
4.9515997637795275
21
-3.8127718503937005
0
LINE
8
BLACK
6
CONTINUOUS
10
4.9515997637795275
20
-3.8127718503937005
11
4.9515997637795275
21
-3.8250234251968505
0
LINE
8
BLACK
6
CONTINUOUS
10
4.9515997637795275
20
-3.8250234251968505
11
4.9502280314960627
21
-3.837198031496063
0
LINE
8
BLACK
6
CONTINUOUS
10
4.9502280314960627
20
-3.837198031496063
11
4.9475018110236215
21
-3.8491424803149608
0
LINE
8
BLACK
6
CONTINUOUS
10
4.9475018110236215
20
-3.8491424803149608
11
4.9434553543307089
21
-3.8607065748031495
0
LINE
8
BLACK
6
CONTINUOUS
10
4.9434553543307089
20
-3.8607065748031495
11
4.9381395669291335
21
-3.8717448818897635
0
LINE
8
BLACK
6
CONTINUOUS
10
4.9381395669291335
20
-3.8717448818897635
11
4.9316212992125985
21
-3.8821186220472441
0
LINE
8
BLACK
6
CONTINUOUS
10
4.9316212992125985
20
-3.8821186220472441
11
4.9239825590551183
21
-3.8916973228346454
0
LINE
8
BLACK
6
CONTINUOUS
10
4.9239825590551183
20
-3.8916973228346454
11
4.9153193700787403
21
-3.9003605118110234
0
LINE
8
BLACK
6
CONTINUOUS
10
4.9153193700787403
20
-3.9003605118110234
11
4.9057406692913386
21
-3.9079992519685041
0
LINE
8
BLACK
6
CONTINUOUS
10
4.9057406692913386
20
-3.9079992519685041
11
4.895366929133858
21
-3.9145175196850395
0
LINE
8
BLACK
6
CONTINUOUS
10
4.895366929133858
20
-3.9145175196850395
11
4.8843286220472439
21
-3.919833307086614
0
LINE
8
BLACK
6
CONTINUOUS
10
4.8843286220472439
20
-3.919833307086614
11
4.8727645275590552
21
-3.9238797637795275
0
LINE
8
BLACK
6
CONTINUOUS
10
4.8727645275590552
20
-3.9238797637795275
11
4.860820078740157
21
-3.9266059842519683
0
LINE
8
BLACK
6
CONTINUOUS
10
4.860820078740157
20
-3.9266059842519683
11
4.8486454724409445
21
-3.927977716535433
0
LINE
8
BLACK
6
CONTINUOUS
10
4.8486454724409445
20
-3.927977716535433
11
4.8363938976377954
21
-3.927977716535433
0
LINE
8
BLACK
6
CONTINUOUS
10
4.8363938976377954
20
-3.927977716535433
11
4.8242192913385828
21
-3.9266059842519683
0
LINE
8
BLACK
6
CONTINUOUS
10
4.8242192913385828
20
-3.9266059842519683
11
4.8122748425196846
21
-3.9238797637795275
0
LINE
8
BLACK
6
CONTINUOUS
10
4.8122748425196846
20
-3.9238797637795275
11
4.8007107480314959
21
-3.919833307086614
0
LINE
8
BLACK
6
CONTINUOUS
10
4.8007107480314959
20
-3.919833307086614
11
4.7896724409448819
21
-3.9145175196850395
0
LINE
8
BLACK
6
CONTINUOUS
10
4.7896724409448819
20
-3.9145175196850395
11
4.7792987007874013
21
-3.9079992519685041
0
LINE
8
BLACK
6
CONTINUOUS
10
4.7792987007874013
20
-3.9079992519685041
11
4.7697199999999995
21
-3.9003605118110234
0
LINE
8
BLACK
6
CONTINUOUS
10
4.7697199999999995
20
-3.9003605118110234
11
4.7610568110236215
21
-3.8916973228346454
0
LINE
8
BLACK
6
CONTINUOUS
10
4.7610568110236215
20
-3.8916973228346454
11
4.7534180708661413
21
-3.8821186220472441
0
LINE
8
BLACK
6
CONTINUOUS
10
4.7534180708661413
20
-3.8821186220472441
11
4.7468998031496064
21
-3.8717448818897635
0
LINE
8
BLACK
6
CONTINUOUS
10
4.7468998031496064
20
-3.8717448818897635
11
4.7415840157480318
21
-3.8607065748031495
0
LINE
8
BLACK
6
CONTINUOUS
10
4.7415840157480318
20
-3.8607065748031495
11
4.7375375590551183
21
-3.8491424803149608
0
LINE
8
BLACK
6
CONTINUOUS
10
4.7375375590551183
20
-3.8491424803149608
11
4.7348113385826771
21
-3.837198031496063
0
LINE
8
BLACK
6
CONTINUOUS
10
4.7348113385826771
20
-3.837198031496063
11
4.7334396062992123
21
-3.8250234251968505
0
LINE
8
BLACK
6
CONTINUOUS
10
4.7334396062992123
20
-3.8250234251968505
11
4.7334396062992123
21
-3.8130938188976375
0
LINE
8
BLACK
6
CONTINUOUS
10
4.7334396062992123
20
-3.8130938188976375
11
4.7334396062992123
21
-3.8127718503937005
0
LINE
8
BLACK
6
CONTINUOUS
10
4.7334396062992123
20
-3.8127718503937005
11
4.7348113385826771
21
-3.800597244094488
0
LINE
8
BLACK
6
CONTINUOUS
10
4.7348113385826771
20
-3.800597244094488
11
4.7375375590551183
21
-3.7886527952755906
0
LINE
8
BLACK
6
CONTINUOUS
10
4.7375375590551183
20
-3.7886527952755906
11
4.7415840157480318
21
-3.7770887007874014
0
LINE
8
BLACK
6
CONTINUOUS
10
4.7415840157480318
20
-3.7770887007874014
11
4.7468998031496064
21
-3.7660503937007874
0
LINE
8
BLACK
6
CONTINUOUS
10
4.7468998031496064
20
-3.7660503937007874
11
4.7534180708661413
21
-3.7556766535433068
0
LINE
8
BLACK
6
CONTINUOUS
10
4.7534180708661413
20
-3.7556766535433068
11
4.7610568110236215
21
-3.7460979527559055
0
LINE
8
BLACK
6
CONTINUOUS
10
4.7610568110236215
20
-3.7460979527559055
11
4.7697199999999995
21
-3.7374347637795275
0
LINE
8
BLACK
6
CONTINUOUS
10
4.7697199999999995
20
-3.7374347637795275
11
4.7792987007874013
21
-3.7297960236220473
0
LINE
8
BLACK
6
CONTINUOUS
10
4.7792987007874013
20
-3.7297960236220473
11
4.7896724409448819
21
-3.7232777559055119
0
LINE
8
BLACK
6
CONTINUOUS
10
4.7896724409448819
20
-3.7232777559055119
11
4.8007107480314959
21
-3.7179619685039369
0
LINE
8
BLACK
6
CONTINUOUS
10
4.8007107480314959
20
-3.7179619685039369
11
4.8122748425196846
21
-3.7139155118110234
0
LINE
8
BLACK
6
CONTINUOUS
10
4.8122748425196846
20
-3.7139155118110234
11
4.8242192913385828
21
-3.7111892913385827
0
LINE
8
BLACK
6
CONTINUOUS
10
4.8242192913385828
20
-3.7111892913385827
11
4.8363938976377954
21
-3.7098175590551179
0
LINE
8
BLACK
6
CONTINUOUS
10
4.8363938976377954
20
-3.7098175590551179
11
4.8486454724409445
21
-3.7098175590551179
0
LINE
8
BLACK
6
CONTINUOUS
10
4.8486454724409445
20
-3.7098175590551179
11
4.860820078740157
21
-3.7111892913385827
0
LINE
8
BLACK
6
CONTINUOUS
10
4.7391732283464565
20
-3.8247014566929134
11
4.7404728740157482
21
-3.8362361023622045
0
LINE
8
BLACK
6
CONTINUOUS
10
4.7404728740157482
20
-3.8362361023622045
11
4.7430558267716538
21
-3.8475526771653543
0
LINE
8
BLACK
6
CONTINUOUS
10
4.7430558267716538
20
-3.8475526771653543
11
4.7468895669291333
21
-3.858508937007874
0
LINE
8
BLACK
6
CONTINUOUS
10
4.7468895669291333
20
-3.858508937007874
11
4.75192594488189
21
-3.8689670472440945
0
LINE
8
BLACK
6
CONTINUOUS
10
4.75192594488189
20
-3.8689670472440945
11
4.7581015748031499
21
-3.8787955118110236
0
LINE
8
BLACK
6
CONTINUOUS
10
4.7581015748031499
20
-3.8787955118110236
11
4.7653387795275588
21
-3.887870708661417
0
LINE
8
BLACK
6
CONTINUOUS
10
4.7653387795275588
20
-3.887870708661417
11
4.7735466141732283
21
-3.8960785433070866
0
LINE
8
BLACK
6
CONTINUOUS
10
4.7735466141732283
20
-3.8960785433070866
11
4.7826218110236223
21
-3.9033157480314959
0
LINE
8
BLACK
6
CONTINUOUS
10
4.7826218110236223
20
-3.9033157480314959
11
4.7924502755905509
21
-3.9094913779527558
0
LINE
8
BLACK
6
CONTINUOUS
10
4.7924502755905509
20
-3.9094913779527558
11
4.8029083858267718
21
-3.9145277559055116
0
LINE
8
BLACK
6
CONTINUOUS
10
4.8029083858267718
20
-3.9145277559055116
11
4.8138646456692911
21
-3.918361496062992
0
LINE
8
BLACK
6
CONTINUOUS
10
4.8138646456692911
20
-3.918361496062992
11
4.8251812204724409
21
-3.9209444488188976
0
LINE
8
BLACK
6
CONTINUOUS
10
4.8251812204724409
20
-3.9209444488188976
11
4.8367158661417324
21
-3.9222440944881889
0
LINE
8
BLACK
6
CONTINUOUS
10
4.8367158661417324
20
-3.9222440944881889
11
4.8483235039370074
21
-3.9222440944881889
0
LINE
8
BLACK
6
CONTINUOUS
10
4.8483235039370074
20
-3.9222440944881889
11
4.8598581496062989
21
-3.9209444488188976
0
LINE
8
BLACK
6
CONTINUOUS
10
4.8598581496062989
20
-3.9209444488188976
11
4.8711747244094488
21
-3.918361496062992
0
LINE
8
BLACK
6
CONTINUOUS
10
4.8711747244094488
20
-3.918361496062992
11
4.882130984251968
21
-3.9145277559055116
0
LINE
8
BLACK
6
CONTINUOUS
10
4.882130984251968
20
-3.9145277559055116
11
4.8925890944881889
21
-3.9094913779527558
0
LINE
8
BLACK
6
CONTINUOUS
10
4.8925890944881889
20
-3.9094913779527558
11
4.9024175590551176
21
-3.9033157480314959
0
LINE
8
BLACK
6
CONTINUOUS
10
4.9024175590551176
20
-3.9033157480314959
11
4.9114927559055115
21
-3.8960785433070866
0
LINE
8
BLACK
6
CONTINUOUS
10
4.9114927559055115
20
-3.8960785433070866
11
4.919700590551181
21
-3.887870708661417
0
LINE
8
BLACK
6
CONTINUOUS
10
4.919700590551181
20
-3.887870708661417
11
4.9269377952755908
21
-3.8787955118110236
0
LINE
8
BLACK
6
CONTINUOUS
10
4.9269377952755908
20
-3.8787955118110236
11
4.9331134251968507
21
-3.8689670472440945
0
LINE
8
BLACK
6
CONTINUOUS
10
4.9331134251968507
20
-3.8689670472440945
11
4.9381498031496065
21
-3.858508937007874
0
LINE
8
BLACK
6
CONTINUOUS
10
4.9381498031496065
20
-3.858508937007874
11
4.9419835433070869
21
-3.8475526771653543
0
LINE
8
BLACK
6
CONTINUOUS
10
4.9419835433070869
20
-3.8475526771653543
11
4.9445664960629916
21
-3.8362361023622045
0
LINE
8
BLACK
6
CONTINUOUS
10
4.9445664960629916
20
-3.8362361023622045
11
4.9458661417322833
21
-3.8247014566929134
0
LINE
8
BLACK
6
CONTINUOUS
10
4.9458661417322833
20
-3.8247014566929134
11
4.9458661417322833
21
-3.8130938188976375
0
LINE
8
BLACK
6
CONTINUOUS
10
4.9458661417322833
20
-3.8130938188976375
11
4.9445664960629916
21
-3.8015591732283465
0
LINE
8
BLACK
6
CONTINUOUS
10
4.9445664960629916
20
-3.8015591732283465
11
4.9419835433070869
21
-3.7902425984251966
0
LINE
8
BLACK
6
CONTINUOUS
10
4.9419835433070869
20
-3.7902425984251966
11
4.9381498031496065
21
-3.7792863385826769
0
LINE
8
BLACK
6
CONTINUOUS
10
4.9381498031496065
20
-3.7792863385826769
11
4.9331134251968507
21
-3.7688282283464565
0
LINE
8
BLACK
6
CONTINUOUS
10
4.9331134251968507
20
-3.7688282283464565
11
4.9269377952755908
21
-3.7589997637795274
0
LINE
8
BLACK
6
CONTINUOUS
10
4.9269377952755908
20
-3.7589997637795274
11
4.919700590551181
21
-3.7499245669291339
0
LINE
8
BLACK
6
CONTINUOUS
10
4.919700590551181
20
-3.7499245669291339
11
4.9114927559055115
21
-3.7417167322834644
0
LINE
8
BLACK
6
CONTINUOUS
10
4.9114927559055115
20
-3.7417167322834644
11
4.9024175590551176
21
-3.734479527559055
0
LINE
8
BLACK
6
CONTINUOUS
10
4.9024175590551176
20
-3.734479527559055
11
4.8925890944881889
21
-3.7283038976377951
0
LINE
8
BLACK
6
CONTINUOUS
10
4.8925890944881889
20
-3.7283038976377951
11
4.882130984251968
21
-3.7232675196850393
0
LINE
8
BLACK
6
CONTINUOUS
10
4.882130984251968
20
-3.7232675196850393
11
4.8711747244094488
21
-3.7194337795275589
0
LINE
8
BLACK
6
CONTINUOUS
10
4.8711747244094488
20
-3.7194337795275589
11
4.8598581496062989
21
-3.7168508267716533
0
LINE
8
BLACK
6
CONTINUOUS
10
4.8598581496062989
20
-3.7168508267716533
11
4.8483235039370074
21
-3.715551181102362
0
LINE
8
BLACK
6
CONTINUOUS
10
4.8483235039370074
20
-3.715551181102362
11
4.8367158661417324
21
-3.715551181102362
0
LINE
8
BLACK
6
CONTINUOUS
10
4.8367158661417324
20
-3.715551181102362
11
4.8251812204724409
21
-3.7168508267716533
0
LINE
8
BLACK
6
CONTINUOUS
10
4.8251812204724409
20
-3.7168508267716533
11
4.8138646456692911
21
-3.7194337795275589
0
LINE
8
BLACK
6
CONTINUOUS
10
4.8138646456692911
20
-3.7194337795275589
11
4.8029083858267718
21
-3.7232675196850393
0
LINE
8
BLACK
6
CONTINUOUS
10
4.8029083858267718
20
-3.7232675196850393
11
4.7924502755905509
21
-3.7283038976377951
0
LINE
8
BLACK
6
CONTINUOUS
10
4.7924502755905509
20
-3.7283038976377951
11
4.7826218110236223
21
-3.734479527559055
0
LINE
8
BLACK
6
CONTINUOUS
10
4.7826218110236223
20
-3.734479527559055
11
4.7735466141732283
21
-3.7417167322834644
0
LINE
8
BLACK
6
CONTINUOUS
10
4.7735466141732283
20
-3.7417167322834644
11
4.7653387795275588
21
-3.7499245669291339
0
LINE
8
BLACK
6
CONTINUOUS
10
4.7653387795275588
20
-3.7499245669291339
11
4.7581015748031499
21
-3.7589997637795274
0
LINE
8
BLACK
6
CONTINUOUS
10
4.7581015748031499
20
-3.7589997637795274
11
4.75192594488189
21
-3.7688282283464565
0
LINE
8
BLACK
6
CONTINUOUS
10
4.75192594488189
20
-3.7688282283464565
11
4.7468895669291333
21
-3.7792863385826769
0
LINE
8
BLACK
6
CONTINUOUS
10
4.7468895669291333
20
-3.7792863385826769
11
4.7430558267716538
21
-3.7902425984251966
0
LINE
8
BLACK
6
CONTINUOUS
10
4.7430558267716538
20
-3.7902425984251966
11
4.7404728740157482
21
-3.8015591732283465
0
LINE
8
BLACK
6
CONTINUOUS
10
4.7404728740157482
20
-3.8015591732283465
11
4.7391732283464565
21
-3.8130938188976375
0
LINE
8
BLACK
6
CONTINUOUS
10
4.7391732283464565
20
-3.8130938188976375
11
4.7391732283464565
21
-3.8247014566929134
0
LINE
8
BLACK
6
CONTINUOUS
10
6.9868043307086616
20
-3.7111892913385827
11
6.9987487795275589
21
-3.7139155118110234
0
LINE
8
BLACK
6
CONTINUOUS
10
6.9987487795275589
20
-3.7139155118110234
11
7.0103128740157477
21
-3.7179619685039369
0
LINE
8
BLACK
6
CONTINUOUS
10
7.0103128740157477
20
-3.7179619685039369
11
7.0213511811023617
21
-3.7232777559055119
0
LINE
8
BLACK
6
CONTINUOUS
10
7.0213511811023617
20
-3.7232777559055119
11
7.0317249212598423
21
-3.7297960236220473
0
LINE
8
BLACK
6
CONTINUOUS
10
7.0317249212598423
20
-3.7297960236220473
11
7.041303622047244
21
-3.7374347637795275
0
LINE
8
BLACK
6
CONTINUOUS
10
7.041303622047244
20
-3.7374347637795275
11
7.049966811023622
21
-3.7460979527559055
0
LINE
8
BLACK
6
CONTINUOUS
10
7.049966811023622
20
-3.7460979527559055
11
7.0576055511811022
21
-3.7556766535433068
0
LINE
8
BLACK
6
CONTINUOUS
10
7.0576055511811022
20
-3.7556766535433068
11
7.0641238188976381
21
-3.7660503937007874
0
LINE
8
BLACK
6
CONTINUOUS
10
7.0641238188976381
20
-3.7660503937007874
11
7.0694396062992126
21
-3.7770887007874014
0
LINE
8
BLACK
6
CONTINUOUS
10
7.0694396062992126
20
-3.7770887007874014
11
7.0734860629921261
21
-3.7886527952755906
0
LINE
8
BLACK
6
CONTINUOUS
10
7.0734860629921261
20
-3.7886527952755906
11
7.0762122834645664
21
-3.800597244094488
0
LINE
8
BLACK
6
CONTINUOUS
10
7.0762122834645664
20
-3.800597244094488
11
7.0775840157480312
21
-3.8127718503937005
0
LINE
8
BLACK
6
CONTINUOUS
10
7.0775840157480312
20
-3.8127718503937005
11
7.0775840157480312
21
-3.8250234251968505
0
LINE
8
BLACK
6
CONTINUOUS
10
7.0775840157480312
20
-3.8250234251968505
11
7.0762122834645664
21
-3.837198031496063
0
LINE
8
BLACK
6
CONTINUOUS
10
7.0762122834645664
20
-3.837198031496063
11
7.0734860629921261
21
-3.8491424803149608
0
LINE
8
BLACK
6
CONTINUOUS
10
7.0734860629921261
20
-3.8491424803149608
11
7.0694396062992126
21
-3.8607065748031495
0
LINE
8
BLACK
6
CONTINUOUS
10
7.0694396062992126
20
-3.8607065748031495
11
7.0641238188976381
21
-3.8717448818897635
0
LINE
8
BLACK
6
CONTINUOUS
10
7.0641238188976381
20
-3.8717448818897635
11
7.0576055511811022
21
-3.8821186220472441
0
LINE
8
BLACK
6
CONTINUOUS
10
7.0576055511811022
20
-3.8821186220472441
11
7.049966811023622
21
-3.8916973228346454
0
LINE
8
BLACK
6
CONTINUOUS
10
7.049966811023622
20
-3.8916973228346454
11
7.041303622047244
21
-3.9003605118110234
0
LINE
8
BLACK
6
CONTINUOUS
10
7.041303622047244
20
-3.9003605118110234
11
7.0317249212598423
21
-3.9079992519685041
0
LINE
8
BLACK
6
CONTINUOUS
10
7.0317249212598423
20
-3.9079992519685041
11
7.0213511811023617
21
-3.9145175196850395
0
LINE
8
BLACK
6
CONTINUOUS
10
7.0213511811023617
20
-3.9145175196850395
11
7.0103128740157477
21
-3.919833307086614
0
LINE
8
BLACK
6
CONTINUOUS
10
7.0103128740157477
20
-3.919833307086614
11
6.9987487795275589
21
-3.9238797637795275
0
LINE
8
BLACK
6
CONTINUOUS
10
6.9987487795275589
20
-3.9238797637795275
11
6.9868043307086616
21
-3.9266059842519683
0
LINE
8
BLACK
6
CONTINUOUS
10
6.9868043307086616
20
-3.9266059842519683
11
6.9746297244094491
21
-3.927977716535433
0
LINE
8
BLACK
6
CONTINUOUS
10
6.9746297244094491
20
-3.927977716535433
11
6.9623781496062991
21
-3.927977716535433
0
LINE
8
BLACK
6
CONTINUOUS
10
6.9623781496062991
20
-3.927977716535433
11
6.9502035433070866
21
-3.9266059842519683
0
LINE
8
BLACK
6
CONTINUOUS
10
6.9502035433070866
20
-3.9266059842519683
11
6.9382590944881892
21
-3.9238797637795275
0
LINE
8
BLACK
6
CONTINUOUS
10
6.9382590944881892
20
-3.9238797637795275
11
6.9266949999999996
21
-3.919833307086614
0
LINE
8
BLACK
6
CONTINUOUS
10
6.9266949999999996
20
-3.919833307086614
11
6.9156566929133856
21
-3.9145175196850395
0
LINE
8
BLACK
6
CONTINUOUS
10
6.9156566929133856
20
-3.9145175196850395
11
6.905282952755905
21
-3.9079992519685041
0
LINE
8
BLACK
6
CONTINUOUS
10
6.905282952755905
20
-3.9079992519685041
11
6.8957042519685041
21
-3.9003605118110234
0
LINE
8
BLACK
6
CONTINUOUS
10
6.8957042519685041
20
-3.9003605118110234
11
6.8870410629921262
21
-3.8916973228346454
0
LINE
8
BLACK
6
CONTINUOUS
10
6.8870410629921262
20
-3.8916973228346454
11
6.8794023228346459
21
-3.8821186220472441
0
LINE
8
BLACK
6
CONTINUOUS
10
6.8794023228346459
20
-3.8821186220472441
11
6.8728840551181101
21
-3.8717448818897635
0
LINE
8
BLACK
6
CONTINUOUS
10
6.8728840551181101
20
-3.8717448818897635
11
6.8675682677165355
21
-3.8607065748031495
0
LINE
8
BLACK
6
CONTINUOUS
10
6.8675682677165355
20
-3.8607065748031495
11
6.863521811023622
21
-3.8491424803149608
0
LINE
8
BLACK
6
CONTINUOUS
10
6.863521811023622
20
-3.8491424803149608
11
6.8607955905511808
21
-3.837198031496063
0
LINE
8
BLACK
6
CONTINUOUS
10
6.8607955905511808
20
-3.837198031496063
11
6.8594238582677161
21
-3.8250234251968505
0
LINE
8
BLACK
6
CONTINUOUS
10
6.8594238582677161
20
-3.8250234251968505
11
6.8594238582677161
21
-3.8130938188976375
0
LINE
8
BLACK
6
CONTINUOUS
10
6.8594238582677161
20
-3.8130938188976375
11
6.8594238582677161
21
-3.8127718503937005
0
LINE
8
BLACK
6
CONTINUOUS
10
6.8594238582677161
20
-3.8127718503937005
11
6.8607955905511808
21
-3.800597244094488
0
LINE
8
BLACK
6
CONTINUOUS
10
6.8607955905511808
20
-3.800597244094488
11
6.863521811023622
21
-3.7886527952755906
0
LINE
8
BLACK
6
CONTINUOUS
10
6.863521811023622
20
-3.7886527952755906
11
6.8675682677165355
21
-3.7770887007874014
0
LINE
8
BLACK
6
CONTINUOUS
10
6.8675682677165355
20
-3.7770887007874014
11
6.8728840551181101
21
-3.7660503937007874
0
LINE
8
BLACK
6
CONTINUOUS
10
6.8728840551181101
20
-3.7660503937007874
11
6.8794023228346459
21
-3.7556766535433068
0
LINE
8
BLACK
6
CONTINUOUS
10
6.8794023228346459
20
-3.7556766535433068
11
6.8870410629921262
21
-3.7460979527559055
0
LINE
8
BLACK
6
CONTINUOUS
10
6.8870410629921262
20
-3.7460979527559055
11
6.8957042519685041
21
-3.7374347637795275
0
LINE
8
BLACK
6
CONTINUOUS
10
6.8957042519685041
20
-3.7374347637795275
11
6.905282952755905
21
-3.7297960236220473
0
LINE
8
BLACK
6
CONTINUOUS
10
6.905282952755905
20
-3.7297960236220473
11
6.9156566929133856
21
-3.7232777559055119
0
LINE
8
BLACK
6
CONTINUOUS
10
6.9156566929133856
20
-3.7232777559055119
11
6.9266949999999996
21
-3.7179619685039369
0
LINE
8
BLACK
6
CONTINUOUS
10
6.9266949999999996
20
-3.7179619685039369
11
6.9382590944881892
21
-3.7139155118110234
0
LINE
8
BLACK
6
CONTINUOUS
10
6.9382590944881892
20
-3.7139155118110234
11
6.9502035433070866
21
-3.7111892913385827
0
LINE
8
BLACK
6
CONTINUOUS
10
6.9502035433070866
20
-3.7111892913385827
11
6.9623781496062991
21
-3.7098175590551179
0
LINE
8
BLACK
6
CONTINUOUS
10
6.9623781496062991
20
-3.7098175590551179
11
6.9746297244094491
21
-3.7098175590551179
0
LINE
8
BLACK
6
CONTINUOUS
10
6.9746297244094491
20
-3.7098175590551179
11
6.9868043307086616
21
-3.7111892913385827
0
LINE
8
BLACK
6
CONTINUOUS
10
6.8651574803149602
20
-3.8247014566929134
11
6.866457125984252
21
-3.8362361023622045
0
LINE
8
BLACK
6
CONTINUOUS
10
6.866457125984252
20
-3.8362361023622045
11
6.8690400787401575
21
-3.8475526771653543
0
LINE
8
BLACK
6
CONTINUOUS
10
6.8690400787401575
20
-3.8475526771653543
11
6.8728738188976379
21
-3.858508937007874
0
LINE
8
BLACK
6
CONTINUOUS
10
6.8728738188976379
20
-3.858508937007874
11
6.8779101968503937
21
-3.8689670472440945
0
LINE
8
BLACK
6
CONTINUOUS
10
6.8779101968503937
20
-3.8689670472440945
11
6.8840858267716536
21
-3.8787955118110236
0
LINE
8
BLACK
6
CONTINUOUS
10
6.8840858267716536
20
-3.8787955118110236
11
6.8913230314960625
21
-3.887870708661417
0
LINE
8
BLACK
6
CONTINUOUS
10
6.8913230314960625
20
-3.887870708661417
11
6.8995308661417321
21
-3.8960785433070866
0
LINE
8
BLACK
6
CONTINUOUS
10
6.8995308661417321
20
-3.8960785433070866
11
6.908606062992126
21
-3.9033157480314959
0
LINE
8
BLACK
6
CONTINUOUS
10
6.908606062992126
20
-3.9033157480314959
11
6.9184345275590546
21
-3.9094913779527558
0
LINE
8
BLACK
6
CONTINUOUS
10
6.9184345275590546
20
-3.9094913779527558
11
6.9288926377952755
21
-3.9145277559055116
0
LINE
8
BLACK
6
CONTINUOUS
10
6.9288926377952755
20
-3.9145277559055116
11
6.9398488976377948
21
-3.918361496062992
0
LINE
8
BLACK
6
CONTINUOUS
10
6.9398488976377948
20
-3.918361496062992
11
6.9511654724409446
21
-3.9209444488188976
0
LINE
8
BLACK
6
CONTINUOUS
10
6.9511654724409446
20
-3.9209444488188976
11
6.9627001181102361
21
-3.9222440944881889
0
LINE
8
BLACK
6
CONTINUOUS
10
6.9627001181102361
20
-3.9222440944881889
11
6.974307755905512
21
-3.9222440944881889
0
LINE
8
BLACK
6
CONTINUOUS
10
6.974307755905512
20
-3.9222440944881889
11
6.9858424015748026
21
-3.9209444488188976
0
LINE
8
BLACK
6
CONTINUOUS
10
6.9858424015748026
20
-3.9209444488188976
11
6.9971589763779525
21
-3.918361496062992
0
LINE
8
BLACK
6
CONTINUOUS
10
6.9971589763779525
20
-3.918361496062992
11
7.0081152362204726
21
-3.9145277559055116
0
LINE
8
BLACK
6
CONTINUOUS
10
7.0081152362204726
20
-3.9145277559055116
11
7.0185733464566926
21
-3.9094913779527558
0
LINE
8
BLACK
6
CONTINUOUS
10
7.0185733464566926
20
-3.9094913779527558
11
7.0284018110236222
21
-3.9033157480314959
0
LINE
8
BLACK
6
CONTINUOUS
10
7.0284018110236222
20
-3.9033157480314959
11
7.0374770078740152
21
-3.8960785433070866
0
LINE
8
BLACK
6
CONTINUOUS
10
7.0374770078740152
20
-3.8960785433070866
11
7.0456848425196847
21
-3.887870708661417
0
LINE
8
BLACK
6
CONTINUOUS
10
7.0456848425196847
20
-3.887870708661417
11
7.0529220472440945
21
-3.8787955118110236
0
LINE
8
BLACK
6
CONTINUOUS
10
7.0529220472440945
20
-3.8787955118110236
11
7.0590976771653544
21
-3.8689670472440945
0
LINE
8
BLACK
6
CONTINUOUS
10
7.0590976771653544
20
-3.8689670472440945
11
7.0641340551181102
21
-3.858508937007874
0
LINE
8
BLACK
6
CONTINUOUS
10
7.0641340551181102
20
-3.858508937007874
11
7.0679677952755906
21
-3.8475526771653543
0
LINE
8
BLACK
6
CONTINUOUS
10
7.0679677952755906
20
-3.8475526771653543
11
7.0705507480314962
21
-3.8362361023622045
0
LINE
8
BLACK
6
CONTINUOUS
10
7.0705507480314962
20
-3.8362361023622045
11
7.0718503937007871
21
-3.8247014566929134
0
LINE
8
BLACK
6
CONTINUOUS
10
7.0718503937007871
20
-3.8247014566929134
11
7.0718503937007871
21
-3.8130938188976375
0
LINE
8
BLACK
6
CONTINUOUS
10
7.0718503937007871
20
-3.8130938188976375
11
7.0705507480314962
21
-3.8015591732283465
0
LINE
8
BLACK
6
CONTINUOUS
10
7.0705507480314962
20
-3.8015591732283465
11
7.0679677952755906
21
-3.7902425984251966
0
LINE
8
BLACK
6
CONTINUOUS
10
7.0679677952755906
20
-3.7902425984251966
11
7.0641340551181102
21
-3.7792863385826769
0
LINE
8
BLACK
6
CONTINUOUS
10
7.0641340551181102
20
-3.7792863385826769
11
7.0590976771653544
21
-3.7688282283464565
0
LINE
8
BLACK
6
CONTINUOUS
10
7.0590976771653544
20
-3.7688282283464565
11
7.0529220472440945
21
-3.7589997637795274
0
LINE
8
BLACK
6
CONTINUOUS
10
7.0529220472440945
20
-3.7589997637795274
11
7.0456848425196847
21
-3.7499245669291339
0
LINE
8
BLACK
6
CONTINUOUS
10
7.0456848425196847
20
-3.7499245669291339
11
7.0374770078740152
21
-3.7417167322834644
0
LINE
8
BLACK
6
CONTINUOUS
10
7.0374770078740152
20
-3.7417167322834644
11
7.0284018110236222
21
-3.734479527559055
0
LINE
8
BLACK
6
CONTINUOUS
10
7.0284018110236222
20
-3.734479527559055
11
7.0185733464566926
21
-3.7283038976377951
0
LINE
8
BLACK
6
CONTINUOUS
10
7.0185733464566926
20
-3.7283038976377951
11
7.0081152362204726
21
-3.7232675196850393
0
LINE
8
BLACK
6
CONTINUOUS
10
7.0081152362204726
20
-3.7232675196850393
11
6.9971589763779525
21
-3.7194337795275589
0
LINE
8
BLACK
6
CONTINUOUS
10
6.9971589763779525
20
-3.7194337795275589
11
6.9858424015748026
21
-3.7168508267716533
0
LINE
8
BLACK
6
CONTINUOUS
10
6.9858424015748026
20
-3.7168508267716533
11
6.974307755905512
21
-3.715551181102362
0
LINE
8
BLACK
6
CONTINUOUS
10
6.974307755905512
20
-3.715551181102362
11
6.9627001181102361
21
-3.715551181102362
0
LINE
8
BLACK
6
CONTINUOUS
10
6.9627001181102361
20
-3.715551181102362
11
6.9511654724409446
21
-3.7168508267716533
0
LINE
8
BLACK
6
CONTINUOUS
10
6.9511654724409446
20
-3.7168508267716533
11
6.9398488976377948
21
-3.7194337795275589
0
LINE
8
BLACK
6
CONTINUOUS
10
6.9398488976377948
20
-3.7194337795275589
11
6.9288926377952755
21
-3.7232675196850393
0
LINE
8
BLACK
6
CONTINUOUS
10
6.9288926377952755
20
-3.7232675196850393
11
6.9184345275590546
21
-3.7283038976377951
0
LINE
8
BLACK
6
CONTINUOUS
10
6.9184345275590546
20
-3.7283038976377951
11
6.908606062992126
21
-3.734479527559055
0
LINE
8
BLACK
6
CONTINUOUS
10
6.908606062992126
20
-3.734479527559055
11
6.8995308661417321
21
-3.7417167322834644
0
LINE
8
BLACK
6
CONTINUOUS
10
6.8995308661417321
20
-3.7417167322834644
11
6.8913230314960625
21
-3.7499245669291339
0
LINE
8
BLACK
6
CONTINUOUS
10
6.8913230314960625
20
-3.7499245669291339
11
6.8840858267716536
21
-3.7589997637795274
0
LINE
8
BLACK
6
CONTINUOUS
10
6.8840858267716536
20
-3.7589997637795274
11
6.8779101968503937
21
-3.7688282283464565
0
LINE
8
BLACK
6
CONTINUOUS
10
6.8779101968503937
20
-3.7688282283464565
11
6.8728738188976379
21
-3.7792863385826769
0
LINE
8
BLACK
6
CONTINUOUS
10
6.8728738188976379
20
-3.7792863385826769
11
6.8690400787401575
21
-3.7902425984251966
0
LINE
8
BLACK
6
CONTINUOUS
10
6.8690400787401575
20
-3.7902425984251966
11
6.866457125984252
21
-3.8015591732283465
0
LINE
8
BLACK
6
CONTINUOUS
10
6.866457125984252
20
-3.8015591732283465
11
6.8651574803149602
21
-3.8130938188976375
0
LINE
8
BLACK
6
CONTINUOUS
10
6.8651574803149602
20
-3.8130938188976375
11
6.8651574803149602
21
-3.8247014566929134
0
LINE
8
BLACK
6
CONTINUOUS
10
4.860820078740157
20
-2.6285121259842521
11
4.8727645275590552
21
-2.6312383464566929
0
LINE
8
BLACK
6
CONTINUOUS
10
4.8727645275590552
20
-2.6312383464566929
11
4.8843286220472439
21
-2.6352848031496063
0
LINE
8
BLACK
6
CONTINUOUS
10
4.8843286220472439
20
-2.6352848031496063
11
4.895366929133858
21
-2.6406005905511809
0
LINE
8
BLACK
6
CONTINUOUS
10
4.895366929133858
20
-2.6406005905511809
11
4.9057406692913386
21
-2.6471188582677163
0
LINE
8
BLACK
6
CONTINUOUS
10
4.9057406692913386
20
-2.6471188582677163
11
4.9153193700787403
21
-2.654757598425197
0
LINE
8
BLACK
6
CONTINUOUS
10
4.9153193700787403
20
-2.654757598425197
11
4.9239825590551183
21
-2.663420787401575
0
LINE
8
BLACK
6
CONTINUOUS
10
4.9239825590551183
20
-2.663420787401575
11
4.9316212992125985
21
-2.6729994881889763
0
LINE
8
BLACK
6
CONTINUOUS
10
4.9316212992125985
20
-2.6729994881889763
11
4.9381395669291335
21
-2.6833732283464564
0
LINE
8
BLACK
6
CONTINUOUS
10
4.9381395669291335
20
-2.6833732283464564
11
4.9434553543307089
21
-2.6944115354330709
0
LINE
8
BLACK
6
CONTINUOUS
10
4.9434553543307089
20
-2.6944115354330709
11
4.9475018110236215
21
-2.7059756299212596
0
LINE
8
BLACK
6
CONTINUOUS
10
4.9475018110236215
20
-2.7059756299212596
11
4.9502280314960627
21
-2.7179200787401574
0
LINE
8
BLACK
6
CONTINUOUS
10
4.9502280314960627
20
-2.7179200787401574
11
4.9515997637795275
21
-2.7300946850393699
0
LINE
8
BLACK
6
CONTINUOUS
10
4.9515997637795275
20
-2.7300946850393699
11
4.9515997637795275
21
-2.7423462598425195
0
LINE
8
BLACK
6
CONTINUOUS
10
4.9515997637795275
20
-2.7423462598425195
11
4.9502280314960627
21
-2.7545208661417324
0
LINE
8
BLACK
6
CONTINUOUS
10
4.9502280314960627
20
-2.7545208661417324
11
4.9475018110236215
21
-2.7664653149606298
0
LINE
8
BLACK
6
CONTINUOUS
10
4.9475018110236215
20
-2.7664653149606298
11
4.9434553543307089
21
-2.7780294094488189
0
LINE
8
BLACK
6
CONTINUOUS
10
4.9434553543307089
20
-2.7780294094488189
11
4.9381395669291335
21
-2.789067716535433
0
LINE
8
BLACK
6
CONTINUOUS
10
4.9381395669291335
20
-2.789067716535433
11
4.9316212992125985
21
-2.7994414566929131
0
LINE
8
BLACK
6
CONTINUOUS
10
4.9316212992125985
20
-2.7994414566929131
11
4.9239825590551183
21
-2.8090201574803149
0
LINE
8
BLACK
6
CONTINUOUS
10
4.9239825590551183
20
-2.8090201574803149
11
4.9153193700787403
21
-2.8176833464566928
0
LINE
8
BLACK
6
CONTINUOUS
10
4.9153193700787403
20
-2.8176833464566928
11
4.9057406692913386
21
-2.8253220866141731
0
LINE
8
BLACK
6
CONTINUOUS
10
4.9057406692913386
20
-2.8253220866141731
11
4.895366929133858
21
-2.8318403543307085
0
LINE
8
BLACK
6
CONTINUOUS
10
4.895366929133858
20
-2.8318403543307085
11
4.8843286220472439
21
-2.8371561417322835
0
LINE
8
BLACK
6
CONTINUOUS
10
4.8843286220472439
20
-2.8371561417322835
11
4.8727645275590552
21
-2.841202598425197
0
LINE
8
BLACK
6
CONTINUOUS
10
4.8727645275590552
20
-2.841202598425197
11
4.860820078740157
21
-2.8439288188976377
0
LINE
8
BLACK
6
CONTINUOUS
10
4.860820078740157
20
-2.8439288188976377
11
4.8486454724409445
21
-2.8453005511811025
0
LINE
8
BLACK
6
CONTINUOUS
10
4.8486454724409445
20
-2.8453005511811025
11
4.8363938976377954
21
-2.8453005511811025
0
LINE
8
BLACK
6
CONTINUOUS
10
4.8363938976377954
20
-2.8453005511811025
11
4.8242192913385828
21
-2.8439288188976377
0
LINE
8
BLACK
6
CONTINUOUS
10
4.8242192913385828
20
-2.8439288188976377
11
4.8122748425196846
21
-2.841202598425197
0
LINE
8
BLACK
6
CONTINUOUS
10
4.8122748425196846
20
-2.841202598425197
11
4.8007107480314959
21
-2.8371561417322835
0
LINE
8
BLACK
6
CONTINUOUS
10
4.8007107480314959
20
-2.8371561417322835
11
4.7896724409448819
21
-2.8318403543307085
0
LINE
8
BLACK
6
CONTINUOUS
10
4.7896724409448819
20
-2.8318403543307085
11
4.7792987007874013
21
-2.8253220866141731
0
LINE
8
BLACK
6
CONTINUOUS
10
4.7792987007874013
20
-2.8253220866141731
11
4.7697199999999995
21
-2.8176833464566928
0
LINE
8
BLACK
6
CONTINUOUS
10
4.7697199999999995
20
-2.8176833464566928
11
4.7610568110236215
21
-2.8090201574803149
0
LINE
8
BLACK
6
CONTINUOUS
10
4.7610568110236215
20
-2.8090201574803149
11
4.7534180708661413
21
-2.7994414566929131
0
LINE
8
BLACK
6
CONTINUOUS
10
4.7534180708661413
20
-2.7994414566929131
11
4.7468998031496064
21
-2.789067716535433
0
LINE
8
BLACK
6
CONTINUOUS
10
4.7468998031496064
20
-2.789067716535433
11
4.7415840157480318
21
-2.7780294094488189
0
LINE
8
BLACK
6
CONTINUOUS
10
4.7415840157480318
20
-2.7780294094488189
11
4.7375375590551183
21
-2.7664653149606298
0
LINE
8
BLACK
6
CONTINUOUS
10
4.7375375590551183
20
-2.7664653149606298
11
4.7348113385826771
21
-2.7545208661417324
0
LINE
8
BLACK
6
CONTINUOUS
10
4.7348113385826771
20
-2.7545208661417324
11
4.7334396062992123
21
-2.7423462598425195
0
LINE
8
BLACK
6
CONTINUOUS
10
4.7334396062992123
20
-2.7423462598425195
11
4.7334396062992123
21
-2.730416653543307
0
LINE
8
BLACK
6
CONTINUOUS
10
4.7334396062992123
20
-2.730416653543307
11
4.7334396062992123
21
-2.7300946850393699
0
LINE
8
BLACK
6
CONTINUOUS
10
4.7334396062992123
20
-2.7300946850393699
11
4.7348113385826771
21
-2.7179200787401574
0
LINE
8
BLACK
6
CONTINUOUS
10
4.7348113385826771
20
-2.7179200787401574
11
4.7375375590551183
21
-2.7059756299212596
0
LINE
8
BLACK
6
CONTINUOUS
10
4.7375375590551183
20
-2.7059756299212596
11
4.7415840157480318
21
-2.6944115354330709
0
LINE
8
BLACK
6
CONTINUOUS
10
4.7415840157480318
20
-2.6944115354330709
11
4.7468998031496064
21
-2.6833732283464564
0
LINE
8
BLACK
6
CONTINUOUS
10
4.7468998031496064
20
-2.6833732283464564
11
4.7534180708661413
21
-2.6729994881889763
0
LINE
8
BLACK
6
CONTINUOUS
10
4.7534180708661413
20
-2.6729994881889763
11
4.7610568110236215
21
-2.663420787401575
0
LINE
8
BLACK
6
CONTINUOUS
10
4.7610568110236215
20
-2.663420787401575
11
4.7697199999999995
21
-2.654757598425197
0
LINE
8
BLACK
6
CONTINUOUS
10
4.7697199999999995
20
-2.654757598425197
11
4.7792987007874013
21
-2.6471188582677163
0
LINE
8
BLACK
6
CONTINUOUS
10
4.7792987007874013
20
-2.6471188582677163
11
4.7896724409448819
21
-2.6406005905511809
0
LINE
8
BLACK
6
CONTINUOUS
10
4.7896724409448819
20
-2.6406005905511809
11
4.8007107480314959
21
-2.6352848031496063
0
LINE
8
BLACK
6
CONTINUOUS
10
4.8007107480314959
20
-2.6352848031496063
11
4.8122748425196846
21
-2.6312383464566929
0
LINE
8
BLACK
6
CONTINUOUS
10
4.8122748425196846
20
-2.6312383464566929
11
4.8242192913385828
21
-2.6285121259842521
0
LINE
8
BLACK
6
CONTINUOUS
10
4.8242192913385828
20
-2.6285121259842521
11
4.8363938976377954
21
-2.6271403937007873
0
LINE
8
BLACK
6
CONTINUOUS
10
4.8363938976377954
20
-2.6271403937007873
11
4.8486454724409445
21
-2.6271403937007873
0
LINE
8
BLACK
6
CONTINUOUS
10
4.8486454724409445
20
-2.6271403937007873
11
4.860820078740157
21
-2.6285121259842521
0
LINE
8
BLACK
6
CONTINUOUS
10
4.7391732283464565
20
-2.7420242913385828
11
4.7404728740157482
21
-2.7535589370078739
0
LINE
8
BLACK
6
CONTINUOUS
10
4.7404728740157482
20
-2.7535589370078739
11
4.7430558267716538
21
-2.7648755118110238
0
LINE
8
BLACK
6
CONTINUOUS
10
4.7430558267716538
20
-2.7648755118110238
11
4.7468895669291333
21
-2.7758317716535434
0
LINE
8
BLACK
6
CONTINUOUS
10
4.7468895669291333
20
-2.7758317716535434
11
4.75192594488189
21
-2.7862898818897639
0
LINE
8
BLACK
6
CONTINUOUS
10
4.75192594488189
20
-2.7862898818897639
11
4.7581015748031499
21
-2.796118346456693
0
LINE
8
BLACK
6
CONTINUOUS
10
4.7581015748031499
20
-2.796118346456693
11
4.7653387795275588
21
-2.8051935433070865
0
LINE
8
BLACK
6
CONTINUOUS
10
4.7653387795275588
20
-2.8051935433070865
11
4.7735466141732283
21
-2.813401377952756
0
LINE
8
BLACK
6
CONTINUOUS
10
4.7735466141732283
20
-2.813401377952756
11
4.7826218110236223
21
-2.8206385826771654
0
LINE
8
BLACK
6
CONTINUOUS
10
4.7826218110236223
20
-2.8206385826771654
11
4.7924502755905509
21
-2.8268142125984252
0
LINE
8
BLACK
6
CONTINUOUS
10
4.7924502755905509
20
-2.8268142125984252
11
4.8029083858267718
21
-2.831850590551181
0
LINE
8
BLACK
6
CONTINUOUS
10
4.8029083858267718
20
-2.831850590551181
11
4.8138646456692911
21
-2.8356843307086614
0
LINE
8
BLACK
6
CONTINUOUS
10
4.8138646456692911
20
-2.8356843307086614
11
4.8251812204724409
21
-2.838267283464567
0
LINE
8
BLACK
6
CONTINUOUS
10
4.8251812204724409
20
-2.838267283464567
11
4.8367158661417324
21
-2.8395669291338583
0
LINE
8
BLACK
6
CONTINUOUS
10
4.8367158661417324
20
-2.8395669291338583
11
4.8483235039370074
21
-2.8395669291338583
0
LINE
8
BLACK
6
CONTINUOUS
10
4.8483235039370074
20
-2.8395669291338583
11
4.8598581496062989
21
-2.838267283464567
0
LINE
8
BLACK
6
CONTINUOUS
10
4.8598581496062989
20
-2.838267283464567
11
4.8711747244094488
21
-2.8356843307086614
0
LINE
8
BLACK
6
CONTINUOUS
10
4.8711747244094488
20
-2.8356843307086614
11
4.882130984251968
21
-2.831850590551181
0
LINE
8
BLACK
6
CONTINUOUS
10
4.882130984251968
20
-2.831850590551181
11
4.8925890944881889
21
-2.8268142125984252
0
LINE
8
BLACK
6
CONTINUOUS
10
4.8925890944881889
20
-2.8268142125984252
11
4.9024175590551176
21
-2.8206385826771654
0
LINE
8
BLACK
6
CONTINUOUS
10
4.9024175590551176
20
-2.8206385826771654
11
4.9114927559055115
21
-2.813401377952756
0
LINE
8
BLACK
6
CONTINUOUS
10
4.9114927559055115
20
-2.813401377952756
11
4.919700590551181
21
-2.8051935433070865
0
LINE
8
BLACK
6
CONTINUOUS
10
4.919700590551181
20
-2.8051935433070865
11
4.9269377952755908
21
-2.796118346456693
0
LINE
8
BLACK
6
CONTINUOUS
10
4.9269377952755908
20
-2.796118346456693
11
4.9331134251968507
21
-2.7862898818897639
0
LINE
8
BLACK
6
CONTINUOUS
10
4.9331134251968507
20
-2.7862898818897639
11
4.9381498031496065
21
-2.7758317716535434
0
LINE
8
BLACK
6
CONTINUOUS
10
4.9381498031496065
20
-2.7758317716535434
11
4.9419835433070869
21
-2.7648755118110238
0
LINE
8
BLACK
6
CONTINUOUS
10
4.9419835433070869
20
-2.7648755118110238
11
4.9445664960629916
21
-2.7535589370078739
0
LINE
8
BLACK
6
CONTINUOUS
10
4.9445664960629916
20
-2.7535589370078739
11
4.9458661417322833
21
-2.7420242913385828
0
LINE
8
BLACK
6
CONTINUOUS
10
4.9458661417322833
20
-2.7420242913385828
11
4.9458661417322833
21
-2.730416653543307
0
LINE
8
BLACK
6
CONTINUOUS
10
4.9458661417322833
20
-2.730416653543307
11
4.9445664960629916
21
-2.7188820078740159
0
LINE
8
BLACK
6
CONTINUOUS
10
4.9445664960629916
20
-2.7188820078740159
11
4.9419835433070869
21
-2.7075654330708661
0
LINE
8
BLACK
6
CONTINUOUS
10
4.9419835433070869
20
-2.7075654330708661
11
4.9381498031496065
21
-2.6966091732283464
0
LINE
8
BLACK
6
CONTINUOUS
10
4.9381498031496065
20
-2.6966091732283464
11
4.9331134251968507
21
-2.6861510629921259
0
LINE
8
BLACK
6
CONTINUOUS
10
4.9331134251968507
20
-2.6861510629921259
11
4.9269377952755908
21
-2.6763225984251968
0
LINE
8
BLACK
6
CONTINUOUS
10
4.9269377952755908
20
-2.6763225984251968
11
4.919700590551181
21
-2.6672474015748029
0
LINE
8
BLACK
6
CONTINUOUS
10
4.919700590551181
20
-2.6672474015748029
11
4.9114927559055115
21
-2.6590395669291338
0
LINE
8
BLACK
6
CONTINUOUS
10
4.9114927559055115
20
-2.6590395669291338
11
4.9024175590551176
21
-2.6518023622047244
0
LINE
8
BLACK
6
CONTINUOUS
10
4.9024175590551176
20
-2.6518023622047244
11
4.8925890944881889
21
-2.6456267322834646
0
LINE
8
BLACK
6
CONTINUOUS
10
4.8925890944881889
20
-2.6456267322834646
11
4.882130984251968
21
-2.6405903543307088
0
LINE
8
BLACK
6
CONTINUOUS
10
4.882130984251968
20
-2.6405903543307088
11
4.8711747244094488
21
-2.6367566141732284
0
LINE
8
BLACK
6
CONTINUOUS
10
4.8711747244094488
20
-2.6367566141732284
11
4.8598581496062989
21
-2.6341736614173228
0
LINE
8
BLACK
6
CONTINUOUS
10
4.8598581496062989
20
-2.6341736614173228
11
4.8483235039370074
21
-2.6328740157480315
0
LINE
8
BLACK
6
CONTINUOUS
10
4.8483235039370074
20
-2.6328740157480315
11
4.8367158661417324
21
-2.6328740157480315
0
LINE
8
BLACK
6
CONTINUOUS
10
4.8367158661417324
20
-2.6328740157480315
11
4.8251812204724409
21
-2.6341736614173228
0
LINE
8
BLACK
6
CONTINUOUS
10
4.8251812204724409
20
-2.6341736614173228
11
4.8138646456692911
21
-2.6367566141732284
0
LINE
8
BLACK
6
CONTINUOUS
10
4.8138646456692911
20
-2.6367566141732284
11
4.8029083858267718
21
-2.6405903543307088
0
LINE
8
BLACK
6
CONTINUOUS
10
4.8029083858267718
20
-2.6405903543307088
11
4.7924502755905509
21
-2.6456267322834646
0
LINE
8
BLACK
6
CONTINUOUS
10
4.7924502755905509
20
-2.6456267322834646
11
4.7826218110236223
21
-2.6518023622047244
0
LINE
8
BLACK
6
CONTINUOUS
10
4.7826218110236223
20
-2.6518023622047244
11
4.7735466141732283
21
-2.6590395669291338
0
LINE
8
BLACK
6
CONTINUOUS
10
4.7735466141732283
20
-2.6590395669291338
11
4.7653387795275588
21
-2.6672474015748029
0
LINE
8
BLACK
6
CONTINUOUS
10
4.7653387795275588
20
-2.6672474015748029
11
4.7581015748031499
21
-2.6763225984251968
0
LINE
8
BLACK
6
CONTINUOUS
10
4.7581015748031499
20
-2.6763225984251968
11
4.75192594488189
21
-2.6861510629921259
0
LINE
8
BLACK
6
CONTINUOUS
10
4.75192594488189
20
-2.6861510629921259
11
4.7468895669291333
21
-2.6966091732283464
0
LINE
8
BLACK
6
CONTINUOUS
10
4.7468895669291333
20
-2.6966091732283464
11
4.7430558267716538
21
-2.7075654330708661
0
LINE
8
BLACK
6
CONTINUOUS
10
4.7430558267716538
20
-2.7075654330708661
11
4.7404728740157482
21
-2.7188820078740159
0
LINE
8
BLACK
6
CONTINUOUS
10
4.7404728740157482
20
-2.7188820078740159
11
4.7391732283464565
21
-2.730416653543307
0
LINE
8
BLACK
6
CONTINUOUS
10
4.7391732283464565
20
-2.730416653543307
11
4.7391732283464565
21
-2.7420242913385828
0
LINE
8
BLACK
6
CONTINUOUS
10
6.9868043307086616
20
-2.6285121259842521
11
6.9987487795275589
21
-2.6312383464566929
0
LINE
8
BLACK
6
CONTINUOUS
10
6.9987487795275589
20
-2.6312383464566929
11
7.0103128740157477
21
-2.6352848031496063
0
LINE
8
BLACK
6
CONTINUOUS
10
7.0103128740157477
20
-2.6352848031496063
11
7.0213511811023617
21
-2.6406005905511809
0
LINE
8
BLACK
6
CONTINUOUS
10
7.0213511811023617
20
-2.6406005905511809
11
7.0317249212598423
21
-2.6471188582677163
0
LINE
8
BLACK
6
CONTINUOUS
10
7.0317249212598423
20
-2.6471188582677163
11
7.041303622047244
21
-2.654757598425197
0
LINE
8
BLACK
6
CONTINUOUS
10
7.041303622047244
20
-2.654757598425197
11
7.049966811023622
21
-2.663420787401575
0
LINE
8
BLACK
6
CONTINUOUS
10
7.049966811023622
20
-2.663420787401575
11
7.0576055511811022
21
-2.6729994881889763
0
LINE
8
BLACK
6
CONTINUOUS
10
7.0576055511811022
20
-2.6729994881889763
11
7.0641238188976381
21
-2.6833732283464564
0
LINE
8
BLACK
6
CONTINUOUS
10
7.0641238188976381
20
-2.6833732283464564
11
7.0694396062992126
21
-2.6944115354330709
0
LINE
8
BLACK
6
CONTINUOUS
10
7.0694396062992126
20
-2.6944115354330709
11
7.0734860629921261
21
-2.7059756299212596
0
LINE
8
BLACK
6
CONTINUOUS
10
7.0734860629921261
20
-2.7059756299212596
11
7.0762122834645664
21
-2.7179200787401574
0
LINE
8
BLACK
6
CONTINUOUS
10
7.0762122834645664
20
-2.7179200787401574
11
7.0775840157480312
21
-2.7300946850393699
0
LINE
8
BLACK
6
CONTINUOUS
10
7.0775840157480312
20
-2.7300946850393699
11
7.0775840157480312
21
-2.7423462598425195
0
LINE
8
BLACK
6
CONTINUOUS
10
7.0775840157480312
20
-2.7423462598425195
11
7.0762122834645664
21
-2.7545208661417324
0
LINE
8
BLACK
6
CONTINUOUS
10
7.0762122834645664
20
-2.7545208661417324
11
7.0734860629921261
21
-2.7664653149606298
0
LINE
8
BLACK
6
CONTINUOUS
10
7.0734860629921261
20
-2.7664653149606298
11
7.0694396062992126
21
-2.7780294094488189
0
LINE
8
BLACK
6
CONTINUOUS
10
7.0694396062992126
20
-2.7780294094488189
11
7.0641238188976381
21
-2.789067716535433
0
LINE
8
BLACK
6
CONTINUOUS
10
7.0641238188976381
20
-2.789067716535433
11
7.0576055511811022
21
-2.7994414566929131
0
LINE
8
BLACK
6
CONTINUOUS
10
7.0576055511811022
20
-2.7994414566929131
11
7.049966811023622
21
-2.8090201574803149
0
LINE
8
BLACK
6
CONTINUOUS
10
7.049966811023622
20
-2.8090201574803149
11
7.041303622047244
21
-2.8176833464566928
0
LINE
8
BLACK
6
CONTINUOUS
10
7.041303622047244
20
-2.8176833464566928
11
7.0317249212598423
21
-2.8253220866141731
0
LINE
8
BLACK
6
CONTINUOUS
10
7.0317249212598423
20
-2.8253220866141731
11
7.0213511811023617
21
-2.8318403543307085
0
LINE
8
BLACK
6
CONTINUOUS
10
7.0213511811023617
20
-2.8318403543307085
11
7.0103128740157477
21
-2.8371561417322835
0
LINE
8
BLACK
6
CONTINUOUS
10
7.0103128740157477
20
-2.8371561417322835
11
6.9987487795275589
21
-2.841202598425197
0
LINE
8
BLACK
6
CONTINUOUS
10
6.9987487795275589
20
-2.841202598425197
11
6.9868043307086616
21
-2.8439288188976377
0
LINE
8
BLACK
6
CONTINUOUS
10
6.9868043307086616
20
-2.8439288188976377
11
6.9746297244094491
21
-2.8453005511811025
0
LINE
8
BLACK
6
CONTINUOUS
10
6.9746297244094491
20
-2.8453005511811025
11
6.9623781496062991
21
-2.8453005511811025
0
LINE
8
BLACK
6
CONTINUOUS
10
6.9623781496062991
20
-2.8453005511811025
11
6.9502035433070866
21
-2.8439288188976377
0
LINE
8
BLACK
6
CONTINUOUS
10
6.9502035433070866
20
-2.8439288188976377
11
6.9382590944881892
21
-2.841202598425197
0
LINE
8
BLACK
6
CONTINUOUS
10
6.9382590944881892
20
-2.841202598425197
11
6.9266949999999996
21
-2.8371561417322835
0
LINE
8
BLACK
6
CONTINUOUS
10
6.9266949999999996
20
-2.8371561417322835
11
6.9156566929133856
21
-2.8318403543307085
0
LINE
8
BLACK
6
CONTINUOUS
10
6.9156566929133856
20
-2.8318403543307085
11
6.905282952755905
21
-2.8253220866141731
0
LINE
8
BLACK
6
CONTINUOUS
10
6.905282952755905
20
-2.8253220866141731
11
6.8957042519685041
21
-2.8176833464566928
0
LINE
8
BLACK
6
CONTINUOUS
10
6.8957042519685041
20
-2.8176833464566928
11
6.8870410629921262
21
-2.8090201574803149
0
LINE
8
BLACK
6
CONTINUOUS
10
6.8870410629921262
20
-2.8090201574803149
11
6.8794023228346459
21
-2.7994414566929131
0
LINE
8
BLACK
6
CONTINUOUS
10
6.8794023228346459
20
-2.7994414566929131
11
6.8728840551181101
21
-2.789067716535433
0
LINE
8
BLACK
6
CONTINUOUS
10
6.8728840551181101
20
-2.789067716535433
11
6.8675682677165355
21
-2.7780294094488189
0
LINE
8
BLACK
6
CONTINUOUS
10
6.8675682677165355
20
-2.7780294094488189
11
6.863521811023622
21
-2.7664653149606298
0
LINE
8
BLACK
6
CONTINUOUS
10
6.863521811023622
20
-2.7664653149606298
11
6.8607955905511808
21
-2.7545208661417324
0
LINE
8
BLACK
6
CONTINUOUS
10
6.8607955905511808
20
-2.7545208661417324
11
6.8594238582677161
21
-2.7423462598425195
0
LINE
8
BLACK
6
CONTINUOUS
10
6.8594238582677161
20
-2.7423462598425195
11
6.8594238582677161
21
-2.730416653543307
0
LINE
8
BLACK
6
CONTINUOUS
10
6.8594238582677161
20
-2.730416653543307
11
6.8594238582677161
21
-2.7300946850393699
0
LINE
8
BLACK
6
CONTINUOUS
10
6.8594238582677161
20
-2.7300946850393699
11
6.8607955905511808
21
-2.7179200787401574
0
LINE
8
BLACK
6
CONTINUOUS
10
6.8607955905511808
20
-2.7179200787401574
11
6.863521811023622
21
-2.7059756299212596
0
LINE
8
BLACK
6
CONTINUOUS
10
6.863521811023622
20
-2.7059756299212596
11
6.8675682677165355
21
-2.6944115354330709
0
LINE
8
BLACK
6
CONTINUOUS
10
6.8675682677165355
20
-2.6944115354330709
11
6.8728840551181101
21
-2.6833732283464564
0
LINE
8
BLACK
6
CONTINUOUS
10
6.8728840551181101
20
-2.6833732283464564
11
6.8794023228346459
21
-2.6729994881889763
0
LINE
8
BLACK
6
CONTINUOUS
10
6.8794023228346459
20
-2.6729994881889763
11
6.8870410629921262
21
-2.663420787401575
0
LINE
8
BLACK
6
CONTINUOUS
10
6.8870410629921262
20
-2.663420787401575
11
6.8957042519685041
21
-2.654757598425197
0
LINE
8
BLACK
6
CONTINUOUS
10
6.8957042519685041
20
-2.654757598425197
11
6.905282952755905
21
-2.6471188582677163
0
LINE
8
BLACK
6
CONTINUOUS
10
6.905282952755905
20
-2.6471188582677163
11
6.9156566929133856
21
-2.6406005905511809
0
LINE
8
BLACK
6
CONTINUOUS
10
6.9156566929133856
20
-2.6406005905511809
11
6.9266949999999996
21
-2.6352848031496063
0
LINE
8
BLACK
6
CONTINUOUS
10
6.9266949999999996
20
-2.6352848031496063
11
6.9382590944881892
21
-2.6312383464566929
0
LINE
8
BLACK
6
CONTINUOUS
10
6.9382590944881892
20
-2.6312383464566929
11
6.9502035433070866
21
-2.6285121259842521
0
LINE
8
BLACK
6
CONTINUOUS
10
6.9502035433070866
20
-2.6285121259842521
11
6.9623781496062991
21
-2.6271403937007873
0
LINE
8
BLACK
6
CONTINUOUS
10
6.9623781496062991
20
-2.6271403937007873
11
6.9746297244094491
21
-2.6271403937007873
0
LINE
8
BLACK
6
CONTINUOUS
10
6.9746297244094491
20
-2.6271403937007873
11
6.9868043307086616
21
-2.6285121259842521
0
LINE
8
BLACK
6
CONTINUOUS
10
6.8651574803149602
20
-2.7420242913385828
11
6.866457125984252
21
-2.7535589370078739
0
LINE
8
BLACK
6
CONTINUOUS
10
6.866457125984252
20
-2.7535589370078739
11
6.8690400787401575
21
-2.7648755118110238
0
LINE
8
BLACK
6
CONTINUOUS
10
6.8690400787401575
20
-2.7648755118110238
11
6.8728738188976379
21
-2.7758317716535434
0
LINE
8
BLACK
6
CONTINUOUS
10
6.8728738188976379
20
-2.7758317716535434
11
6.8779101968503937
21
-2.7862898818897639
0
LINE
8
BLACK
6
CONTINUOUS
10
6.8779101968503937
20
-2.7862898818897639
11
6.8840858267716536
21
-2.796118346456693
0
LINE
8
BLACK
6
CONTINUOUS
10
6.8840858267716536
20
-2.796118346456693
11
6.8913230314960625
21
-2.8051935433070865
0
LINE
8
BLACK
6
CONTINUOUS
10
6.8913230314960625
20
-2.8051935433070865
11
6.8995308661417321
21
-2.813401377952756
0
LINE
8
BLACK
6
CONTINUOUS
10
6.8995308661417321
20
-2.813401377952756
11
6.908606062992126
21
-2.8206385826771654
0
LINE
8
BLACK
6
CONTINUOUS
10
6.908606062992126
20
-2.8206385826771654
11
6.9184345275590546
21
-2.8268142125984252
0
LINE
8
BLACK
6
CONTINUOUS
10
6.9184345275590546
20
-2.8268142125984252
11
6.9288926377952755
21
-2.831850590551181
0
LINE
8
BLACK
6
CONTINUOUS
10
6.9288926377952755
20
-2.831850590551181
11
6.9398488976377948
21
-2.8356843307086614
0
LINE
8
BLACK
6
CONTINUOUS
10
6.9398488976377948
20
-2.8356843307086614
11
6.9511654724409446
21
-2.838267283464567
0
LINE
8
BLACK
6
CONTINUOUS
10
6.9511654724409446
20
-2.838267283464567
11
6.9627001181102361
21
-2.8395669291338583
0
LINE
8
BLACK
6
CONTINUOUS
10
6.9627001181102361
20
-2.8395669291338583
11
6.974307755905512
21
-2.8395669291338583
0
LINE
8
BLACK
6
CONTINUOUS
10
6.974307755905512
20
-2.8395669291338583
11
6.9858424015748026
21
-2.838267283464567
0
LINE
8
BLACK
6
CONTINUOUS
10
6.9858424015748026
20
-2.838267283464567
11
6.9971589763779525
21
-2.8356843307086614
0
LINE
8
BLACK
6
CONTINUOUS
10
6.9971589763779525
20
-2.8356843307086614
11
7.0081152362204726
21
-2.831850590551181
0
LINE
8
BLACK
6
CONTINUOUS
10
7.0081152362204726
20
-2.831850590551181
11
7.0185733464566926
21
-2.8268142125984252
0
LINE
8
BLACK
6
CONTINUOUS
10
7.0185733464566926
20
-2.8268142125984252
11
7.0284018110236222
21
-2.8206385826771654
0
LINE
8
BLACK
6
CONTINUOUS
10
7.0284018110236222
20
-2.8206385826771654
11
7.0374770078740152
21
-2.813401377952756
0
LINE
8
BLACK
6
CONTINUOUS
10
7.0374770078740152
20
-2.813401377952756
11
7.0456848425196847
21
-2.8051935433070865
0
LINE
8
BLACK
6
CONTINUOUS
10
7.0456848425196847
20
-2.8051935433070865
11
7.0529220472440945
21
-2.796118346456693
0
LINE
8
BLACK
6
CONTINUOUS
10
7.0529220472440945
20
-2.796118346456693
11
7.0590976771653544
21
-2.7862898818897639
0
LINE
8
BLACK
6
CONTINUOUS
10
7.0590976771653544
20
-2.7862898818897639
11
7.0641340551181102
21
-2.7758317716535434
0
LINE
8
BLACK
6
CONTINUOUS
10
7.0641340551181102
20
-2.7758317716535434
11
7.0679677952755906
21
-2.7648755118110238
0
LINE
8
BLACK
6
CONTINUOUS
10
7.0679677952755906
20
-2.7648755118110238
11
7.0705507480314962
21
-2.7535589370078739
0
LINE
8
BLACK
6
CONTINUOUS
10
7.0705507480314962
20
-2.7535589370078739
11
7.0718503937007871
21
-2.7420242913385828
0
LINE
8
BLACK
6
CONTINUOUS
10
7.0718503937007871
20
-2.7420242913385828
11
7.0718503937007871
21
-2.730416653543307
0
LINE
8
BLACK
6
CONTINUOUS
10
7.0718503937007871
20
-2.730416653543307
11
7.0705507480314962
21
-2.7188820078740159
0
LINE
8
BLACK
6
CONTINUOUS
10
7.0705507480314962
20
-2.7188820078740159
11
7.0679677952755906
21
-2.7075654330708661
0
LINE
8
BLACK
6
CONTINUOUS
10
7.0679677952755906
20
-2.7075654330708661
11
7.0641340551181102
21
-2.6966091732283464
0
LINE
8
BLACK
6
CONTINUOUS
10
7.0641340551181102
20
-2.6966091732283464
11
7.0590976771653544
21
-2.6861510629921259
0
LINE
8
BLACK
6
CONTINUOUS
10
7.0590976771653544
20
-2.6861510629921259
11
7.0529220472440945
21
-2.6763225984251968
0
LINE
8
BLACK
6
CONTINUOUS
10
7.0529220472440945
20
-2.6763225984251968
11
7.0456848425196847
21
-2.6672474015748029
0
LINE
8
BLACK
6
CONTINUOUS
10
7.0456848425196847
20
-2.6672474015748029
11
7.0374770078740152
21
-2.6590395669291338
0
LINE
8
BLACK
6
CONTINUOUS
10
7.0374770078740152
20
-2.6590395669291338
11
7.0284018110236222
21
-2.6518023622047244
0
LINE
8
BLACK
6
CONTINUOUS
10
7.0284018110236222
20
-2.6518023622047244
11
7.0185733464566926
21
-2.6456267322834646
0
LINE
8
BLACK
6
CONTINUOUS
10
7.0185733464566926
20
-2.6456267322834646
11
7.0081152362204726
21
-2.6405903543307088
0
LINE
8
BLACK
6
CONTINUOUS
10
7.0081152362204726
20
-2.6405903543307088
11
6.9971589763779525
21
-2.6367566141732284
0
LINE
8
BLACK
6
CONTINUOUS
10
6.9971589763779525
20
-2.6367566141732284
11
6.9858424015748026
21
-2.6341736614173228
0
LINE
8
BLACK
6
CONTINUOUS
10
6.9858424015748026
20
-2.6341736614173228
11
6.974307755905512
21
-2.6328740157480315
0
LINE
8
BLACK
6
CONTINUOUS
10
6.974307755905512
20
-2.6328740157480315
11
6.9627001181102361
21
-2.6328740157480315
0
LINE
8
BLACK
6
CONTINUOUS
10
6.9627001181102361
20
-2.6328740157480315
11
6.9511654724409446
21
-2.6341736614173228
0
LINE
8
BLACK
6
CONTINUOUS
10
6.9511654724409446
20
-2.6341736614173228
11
6.9398488976377948
21
-2.6367566141732284
0
LINE
8
BLACK
6
CONTINUOUS
10
6.9398488976377948
20
-2.6367566141732284
11
6.9288926377952755
21
-2.6405903543307088
0
LINE
8
BLACK
6
CONTINUOUS
10
6.9288926377952755
20
-2.6405903543307088
11
6.9184345275590546
21
-2.6456267322834646
0
LINE
8
BLACK
6
CONTINUOUS
10
6.9184345275590546
20
-2.6456267322834646
11
6.908606062992126
21
-2.6518023622047244
0
LINE
8
BLACK
6
CONTINUOUS
10
6.908606062992126
20
-2.6518023622047244
11
6.8995308661417321
21
-2.6590395669291338
0
LINE
8
BLACK
6
CONTINUOUS
10
6.8995308661417321
20
-2.6590395669291338
11
6.8913230314960625
21
-2.6672474015748029
0
LINE
8
BLACK
6
CONTINUOUS
10
6.8913230314960625
20
-2.6672474015748029
11
6.8840858267716536
21
-2.6763225984251968
0
LINE
8
BLACK
6
CONTINUOUS
10
6.8840858267716536
20
-2.6763225984251968
11
6.8779101968503937
21
-2.6861510629921259
0
LINE
8
BLACK
6
CONTINUOUS
10
6.8779101968503937
20
-2.6861510629921259
11
6.8728738188976379
21
-2.6966091732283464
0
LINE
8
BLACK
6
CONTINUOUS
10
6.8728738188976379
20
-2.6966091732283464
11
6.8690400787401575
21
-2.7075654330708661
0
LINE
8
BLACK
6
CONTINUOUS
10
6.8690400787401575
20
-2.7075654330708661
11
6.866457125984252
21
-2.7188820078740159
0
LINE
8
BLACK
6
CONTINUOUS
10
6.866457125984252
20
-2.7188820078740159
11
6.8651574803149602
21
-2.730416653543307
0
LINE
8
BLACK
6
CONTINUOUS
10
6.8651574803149602
20
-2.730416653543307
11
6.8651574803149602
21
-2.7420242913385828
0
CIRCLE
8
BLACK
10
6.9685039370078741
20
-3.8188976377952755
40
0.0531496062992126
0
CIRCLE
8
BLACK
10
4.8425196850393704
20
-3.8188976377952755
40
0.0531496062992126
0
CIRCLE
8
BLACK
10
4.8425196850393704
20
-2.7362204724409449
40
0.0531496062992126
0
CIRCLE
8
BLACK
10
6.9685039370078741
20
-2.7362204724409449
40
0.0531496062992126
0
LINE
8
BLACK
6
CONTINUOUS
10
4.8210083070866139
20
-3.1841136614173227
11
4.8221375984251971
21
-3.1784364566929133
0
LINE
8
BLACK
6
CONTINUOUS
10
4.8221375984251971
20
-3.1784364566929133
11
4.824352716535433
21
-3.1730886614173226
0
LINE
8
BLACK
6
CONTINUOUS
10
4.824352716535433
20
-3.1730886614173226
11
4.8275685826771655
21
-3.1682757874015746
0
LINE
8
BLACK
6
CONTINUOUS
10
4.8275685826771655
20
-3.1682757874015746
11
4.8316616141732283
21
-3.1641827559055118
0
LINE
8
BLACK
6
CONTINUOUS
10
4.8316616141732283
20
-3.1641827559055118
11
4.8364744881889763
21
-3.1609668897637793
0
LINE
8
BLACK
6
CONTINUOUS
10
4.8364744881889763
20
-3.1609668897637793
11
4.841822283464567
21
-3.1587517716535434
0
LINE
8
BLACK
6
CONTINUOUS
10
4.841822283464567
20
-3.1587517716535434
11
4.8474994881889764
21
-3.1576224803149606
0
LINE
8
BLACK
6
CONTINUOUS
10
4.8474994881889764
20
-3.1576224803149606
11
4.8532879133858264
21
-3.1576224803149606
0
LINE
8
BLACK
6
CONTINUOUS
10
4.8532879133858264
20
-3.1576224803149606
11
4.8589651181102358
21
-3.1587517716535434
0
LINE
8
BLACK
6
CONTINUOUS
10
4.8589651181102358
20
-3.1587517716535434
11
4.8643129133858265
21
-3.1609668897637793
0
LINE
8
BLACK
6
CONTINUOUS
10
4.8643129133858265
20
-3.1609668897637793
11
4.8691257874015745
21
-3.1641827559055118
0
LINE
8
BLACK
6
CONTINUOUS
10
4.8691257874015745
20
-3.1641827559055118
11
4.8732188188976373
21
-3.1682757874015746
0
LINE
8
BLACK
6
CONTINUOUS
10
4.8732188188976373
20
-3.1682757874015746
11
4.8764346850393698
21
-3.1730886614173226
0
LINE
8
BLACK
6
CONTINUOUS
10
4.8764346850393698
20
-3.1730886614173226
11
4.8786498031496066
21
-3.1784364566929133
0
LINE
8
BLACK
6
CONTINUOUS
10
4.8786498031496066
20
-3.1784364566929133
11
4.8797790944881889
21
-3.1841136614173227
0
LINE
8
BLACK
6
CONTINUOUS
10
4.8797790944881889
20
-3.1841136614173227
11
4.8799212598425195
21
-3.1870078740157481
0
LINE
8
BLACK
6
CONTINUOUS
10
4.8799212598425195
20
-3.1870078740157481
11
4.8799212598425195
21
-3.2066929133858268
0
LINE
8
BLACK
6
CONTINUOUS
10
4.8799212598425195
20
-3.2066929133858268
11
4.8797790944881889
21
-3.2095871259842519
0
LINE
8
BLACK
6
CONTINUOUS
10
4.8797790944881889
20
-3.2095871259842519
11
4.8786498031496066
21
-3.2152643307086612
0
LINE
8
BLACK
6
CONTINUOUS
10
4.8786498031496066
20
-3.2152643307086612
11
4.8764346850393698
21
-3.2206121259842519
0
LINE
8
BLACK
6
CONTINUOUS
10
4.8764346850393698
20
-3.2206121259842519
11
4.8732188188976373
21
-3.225425
0
LINE
8
BLACK
6
CONTINUOUS
10
4.8732188188976373
20
-3.225425
11
4.8691257874015745
21
-3.2295180314960628
0
LINE
8
BLACK
6
CONTINUOUS
10
4.8691257874015745
20
-3.2295180314960628
11
4.8643129133858265
21
-3.2327338976377953
0
LINE
8
BLACK
6
CONTINUOUS
10
4.8643129133858265
20
-3.2327338976377953
11
4.8589651181102358
21
-3.2349490157480316
0
LINE
8
BLACK
6
CONTINUOUS
10
4.8589651181102358
20
-3.2349490157480316
11
4.8532879133858264
21
-3.2360783070866139
0
LINE
8
BLACK
6
CONTINUOUS
10
4.8532879133858264
20
-3.2360783070866139
11
4.8474994881889764
21
-3.2360783070866139
0
LINE
8
BLACK
6
CONTINUOUS
10
4.8474994881889764
20
-3.2360783070866139
11
4.841822283464567
21
-3.2349490157480316
0
LINE
8
BLACK
6
CONTINUOUS
10
4.841822283464567
20
-3.2349490157480316
11
4.8364744881889763
21
-3.2327338976377953
0
LINE
8
BLACK
6
CONTINUOUS
10
4.8364744881889763
20
-3.2327338976377953
11
4.8316616141732283
21
-3.2295180314960628
0
LINE
8
BLACK
6
CONTINUOUS
10
4.8316616141732283
20
-3.2295180314960628
11
4.8275685826771655
21
-3.225425
0
LINE
8
BLACK
6
CONTINUOUS
10
4.8275685826771655
20
-3.225425
11
4.824352716535433
21
-3.2206121259842519
0
LINE
8
BLACK
6
CONTINUOUS
10
4.824352716535433
20
-3.2206121259842519
11
4.8221375984251971
21
-3.2152643307086612
0
LINE
8
BLACK
6
CONTINUOUS
10
4.8221375984251971
20
-3.2152643307086612
11
4.8210083070866139
21
-3.2095871259842519
0
LINE
8
BLACK
6
CONTINUOUS
10
4.8210083070866139
20
-3.2095871259842519
11
4.8208661417322833
21
-3.2066929133858268
0
LINE
8
BLACK
6
CONTINUOUS
10
4.8208661417322833
20
-3.2066929133858268
11
4.8208661417322833
21
-3.1870078740157481
0
LINE
8
BLACK
6
CONTINUOUS
10
4.8208661417322833
20
-3.1870078740157481
11
4.8210083070866139
21
-3.1841136614173227
0
CIRCLE
8
BLACK
10
5.0236220472440944
20
-3.1968503937007875
40
0.0393700787401575
0
CIRCLE
8
BLACK
10
5.3661417322834648
20
-3.1299212598425195
40
0.0196850393700787
0
CIRCLE
8
BLACK
10
5.3661417322834648
20
-3.0299212598425198
40
0.0196850393700787
0
CIRCLE
8
BLACK
10
5.3661417322834648
20
-2.9299212598425197
40
0.0196850393700787
0
CIRCLE
8
BLACK
10
5.3661417322834648
20
-2.8299212598425196
40
0.0196850393700787
0
CIRCLE
8
BLACK
10
5.3661417322834648
20
-2.7299212598425195
40
0.0196850393700787
0
CIRCLE
8
BLACK
10
5.9799999999999995
20
-3.75
40
0.0196850393700787
0
CIRCLE
8
BLACK
10
6.0800000000000001
20
-3.75
40
0.0196850393700787
0
CIRCLE
8
BLACK
10
5.9799999999999995
20
-3.8500000000000001
40
0.0196850393700787
0
CIRCLE
8
BLACK
10
6.0800000000000001
20
-3.8500000000000001
40
0.0196850393700787
0
CIRCLE
8
BLACK
10
5.556
20
-3.8489999999999998
40
0.0196850393700787
0
CIRCLE
8
BLACK
10
5.556
20
-3.7490000000000001
40
0.0196850393700787
0
CIRCLE
8
BLACK
10
5.6559999999999997
20
-3.8489999999999998
40
0.0196850393700787
0
CIRCLE
8
BLACK
10
5.6559999999999997
20
-3.7490000000000001
40
0.0196850393700787
0
CIRCLE
8
BLACK
10
5.7560000000000002
20
-3.8489999999999998
40
0.0196850393700787
0
CIRCLE
8
BLACK
10
5.7560000000000002
20
-3.7490000000000001
40
0.0196850393700787
0
CIRCLE
8
BLACK
10
5.5499999999999998
20
-3.04
40
0.0196850393700787
0
CIRCLE
8
BLACK
10
5.5499999999999998
20
-3.1400000000000001
40
0.0196850393700787
0
CIRCLE
8
BLACK
10
5.5499999999999998
20
-3.2399999999999998
40
0.0196850393700787
0
CIRCLE
8
BLACK
10
5.5499999999999998
20
-3.3399999999999999
40
0.0196850393700787
0
CIRCLE
8
BLACK
10
5.5499999999999998
20
-3.4399999999999999
40
0.0196850393700787
0
CIRCLE
8
BLACK
10
5.5499999999999998
20
-3.54
40
0.0196850393700787
0
CIRCLE
8
BLACK
10
6.8300000000000001
20
-3.21
40
0.0187007874015748
0
CIRCLE
8
BLACK
10
6.8300000000000001
20
-3.3084251968503935
40
0.0187007874015748
0
CIRCLE
8
BLACK
10
6.9087401574803149
20
-3.3084251968503935
40
0.0187007874015748
0
CIRCLE
8
BLACK
10
6.9087401574803149
20
-3.21
40
0.0187007874015748
0
CIRCLE
8
BLACK
10
7.0213385826771653
20
-3.0229921259842518
40
0.0452755905511811
0
CIRCLE
8
BLACK
10
7.0213385826771653
20
-3.4954330708661416
40
0.0452755905511811
0
CIRCLE
8
BLACK
10
6.9685039370078741
20
-3.8188976377952755
40
0.0531495669291339
0
CIRCLE
8
BLACK
10
4.8425196850393704
20
-3.8188976377952755
40
0.0531495669291339
0
CIRCLE
8
BLACK
10
4.8425196850393704
20
-2.7362204724409449
40
0.0531495669291339
0
CIRCLE
8
BLACK
10
6.9685039370078741
20
-2.7362204724409449
40
0.0531495669291339
0
LINE
8
BLACK
6
CONTINUOUS
10
4.8799212204724407
20
-3.2066929133858268
11
4.8799212204724407
21
-3.1870078740157481
0
ARC
8
BLACK
10
4.8503937007874018
20
-3.1870078740157481
40
0.0295275196850394
50
0.00000000
51
180.00000000
0
LINE
8
BLACK
6
CONTINUOUS
10
4.8208661811023621
20
-3.1870078740157481
11
4.8208661811023621
21
-3.2066929133858268
0
ARC
8
BLACK
10
4.8503937007874018
20
-3.2066929133858268
40
0.0295275196850394
50
180.00000000
51
360.00000000
0
CIRCLE
8
BLACK
10
5.0236220472440944
20
-3.1968503937007875
40
0.0393700393700787
0
CIRCLE
8
BLACK
10
5.3661417322834648
20
-3.1299212598425195
40
0.0196850393700787
0
CIRCLE
8
BLACK
10
5.3661417322834648
20
-3.0299212598425198
40
0.0196850393700787
0
CIRCLE
8
BLACK
10
5.3661417322834648
20
-2.9299212598425197
40
0.0196850393700787
0
CIRCLE
8
BLACK
10
5.3661417322834648
20
-2.8299212598425196
40
0.0196850393700787
0
CIRCLE
8
BLACK
10
5.3661417322834648
20
-2.7299212598425195
40
0.0196850393700787
0
CIRCLE
8
BLACK
10
5.9799999999999995
20
-3.75
40
0.0196850393700787
0
CIRCLE
8
BLACK
10
6.0800000000000001
20
-3.75
40
0.0196850393700787
0
CIRCLE
8
BLACK
10
5.9799999999999995
20
-3.8500000000000001
40
0.0196850393700787
0
CIRCLE
8
BLACK
10
6.0800000000000001
20
-3.8500000000000001
40
0.0196850393700787
0
CIRCLE
8
BLACK
10
5.556
20
-3.8489999999999998
40
0.0196850393700787
0
CIRCLE
8
BLACK
10
5.556
20
-3.7490000000000001
40
0.0196850393700787
0
CIRCLE
8
BLACK
10
5.6559999999999997
20
-3.8489999999999998
40
0.0196850393700787
0
CIRCLE
8
BLACK
10
5.6559999999999997
20
-3.7490000000000001
40
0.0196850393700787
0
CIRCLE
8
BLACK
10
5.7560000000000002
20
-3.8489999999999998
40
0.0196850393700787
0
CIRCLE
8
BLACK
10
5.7560000000000002
20
-3.7490000000000001
40
0.0196850393700787
0
CIRCLE
8
BLACK
10
5.5499999999999998
20
-3.04
40
0.0196850393700787
0
CIRCLE
8
BLACK
10
5.5499999999999998
20
-3.1400000000000001
40
0.0196850393700787
0
CIRCLE
8
BLACK
10
5.5499999999999998
20
-3.2399999999999998
40
0.0196850393700787
0
CIRCLE
8
BLACK
10
5.5499999999999998
20
-3.3399999999999999
40
0.0196850393700787
0
CIRCLE
8
BLACK
10
5.5499999999999998
20
-3.4399999999999999
40
0.0196850393700787
0
CIRCLE
8
BLACK
10
5.5499999999999998
20
-3.54
40
0.0196850393700787
0
CIRCLE
8
BLACK
10
6.8300000000000001
20
-3.21
40
0.0187007874015748
0
CIRCLE
8
BLACK
10
6.8300000000000001
20
-3.3084251968503935
40
0.0187007874015748
0
CIRCLE
8
BLACK
10
6.9087401574803149
20
-3.3084251968503935
40
0.0187007874015748
0
CIRCLE
8
BLACK
10
6.9087401574803149
20
-3.21
40
0.0187007874015748
0
CIRCLE
8
BLACK
10
7.0213385826771653
20
-3.0229921259842518
40
0.0452755905511811
0
CIRCLE
8
BLACK
10
7.0213385826771653
20
-3.4954330708661416
40
0.0452755905511811
  0
ENDSEC
  0
EOF
