  0
SECTION
  2
HEADER
  9
$ANGBASE
  50
0.0
  9
$ANGDIR
  70
1
  9
$MEASUREMENT
  70
0
  0
ENDSEC
  0
SECTION
  2
TABLES
  0
TABLE
  2
LTYPE
  70
4
  0
LTYPE
  5
40F
  2
CONTINUOUS
  70
0
  3
Solid line
  72
65
  73
0
  40
0.0
  0
LTYPE
  5
410
  2
DASHDOT
 70
0
  3
Dash Dot ____ _ ____ _
 72
65
 73
4
 40
2.0
 49
1.25
 49
-0.25
 49
0.25
 49
-0.25
  0
LTYPE
  5
411
  2
DASHED
 70
0
  3
Dashed __ __ __ __ __
 72
65
 73
2
 40
0.75
 49
0.5
 49
-0.25
  0
LTYPE
  5
43B
  2
DOTTED
 70
0
  3
Dotted .  .  .  .
 72
65
 73
2
 40
0.2
 49
0.0
 49
-0.2
  0
ENDTAB
  0
TABLE
  2
STYLE
  70
4
  0
STYLE
  2
KICAD
  70
0
  40
0
  41
1
  42
1
  50
0
  71
0
  3
isocp.shx
  0
STYLE
  2
KICADB
  70
0
  40
0
  41
1
  42
1
  50
0
  71
0
  3
isocp.shx
  0
STYLE
  2
KICADI
  70
0
  40
0
  41
1
  42
1
  50
15
  71
0
  3
isocp.shx
  0
STYLE
  2
KICADBI
  70
0
  40
0
  41
1
  42
1
  50
15
  71
0
  3
isocp.shx
  0
ENDTAB
  0
TABLE
  2
LAYER
  70
1
  0
LAYER
  2
BLACK
  70
0
  62
7
  6
CONTINUOUS
  0
ENDTAB
  0
ENDSEC
  0
SECTION
  2
ENTITIES
0
LINE
8
BLACK
6
CONTINUOUS
10
6.86019
20
-3.80464
11
6.86268
21
-3.79173
0
LINE
8
BLACK
6
CONTINUOUS
10
6.86268
20
-3.79173
11
6.86671
21
-3.77921
0
LINE
8
BLACK
6
CONTINUOUS
10
6.86671
20
-3.77921
11
6.87222
21
-3.76727
0
LINE
8
BLACK
6
CONTINUOUS
10
6.87222
20
-3.76727
11
6.87912
21
-3.75608
0
LINE
8
BLACK
6
CONTINUOUS
10
6.87912
20
-3.75608
11
6.88731
21
-3.74579
0
LINE
8
BLACK
6
CONTINUOUS
10
6.88731
20
-3.74579
11
6.89668
21
-3.73657
0
LINE
8
BLACK
6
CONTINUOUS
10
6.89668
20
-3.73657
11
6.9071
21
-3.72854
0
LINE
8
BLACK
6
CONTINUOUS
10
6.9071
20
-3.72854
11
6.9184
21
-3.72181
0
LINE
8
BLACK
6
CONTINUOUS
10
6.9184
20
-3.72181
11
6.93042
21
-3.7165
0
LINE
8
BLACK
6
CONTINUOUS
10
6.93042
20
-3.7165
11
6.943
21
-3.71266
0
LINE
8
BLACK
6
CONTINUOUS
10
6.943
20
-3.71266
11
6.95595
21
-3.71037
0
LINE
8
BLACK
6
CONTINUOUS
10
6.95595
20
-3.71037
11
6.96908
21
-3.70965
0
LINE
8
BLACK
6
CONTINUOUS
10
6.96908
20
-3.70965
11
6.9822
21
-3.71051
0
LINE
8
BLACK
6
CONTINUOUS
10
6.9822
20
-3.71051
11
6.99512
21
-3.71294
0
LINE
8
BLACK
6
CONTINUOUS
10
6.99512
20
-3.71294
11
7.00766
21
-3.7169
0
LINE
8
BLACK
6
CONTINUOUS
10
7.00766
20
-3.7169
11
7.01963
21
-3.72234
0
LINE
8
BLACK
6
CONTINUOUS
10
7.01963
20
-3.72234
11
7.03086
21
-3.72919
0
LINE
8
BLACK
6
CONTINUOUS
10
7.03086
20
-3.72919
11
7.04118
21
-3.73733
0
LINE
8
BLACK
6
CONTINUOUS
10
7.04118
20
-3.73733
11
7.05046
21
-3.74665
0
LINE
8
BLACK
6
CONTINUOUS
10
7.05046
20
-3.74665
11
7.05854
21
-3.75702
0
LINE
8
BLACK
6
CONTINUOUS
10
7.05854
20
-3.75702
11
7.06532
21
-3.76828
0
LINE
8
BLACK
6
CONTINUOUS
10
7.06532
20
-3.76828
11
7.0707
21
-3.78028
0
LINE
8
BLACK
6
CONTINUOUS
10
7.0707
20
-3.78028
11
7.0746
21
-3.79284
0
LINE
8
BLACK
6
CONTINUOUS
10
7.0746
20
-3.79284
11
7.07696
21
-3.80577
0
LINE
8
BLACK
6
CONTINUOUS
10
7.07696
20
-3.80577
11
7.07776
21
-3.8189
0
LINE
8
BLACK
6
CONTINUOUS
10
7.07776
20
-3.8189
11
7.07773
21
-3.82119
0
LINE
8
BLACK
6
CONTINUOUS
10
7.07773
20
-3.82119
11
7.07667
21
-3.83429
0
LINE
8
BLACK
6
CONTINUOUS
10
7.07667
20
-3.83429
11
7.07403
21
-3.84717
0
LINE
8
BLACK
6
CONTINUOUS
10
7.07403
20
-3.84717
11
7.06987
21
-3.85965
0
LINE
8
BLACK
6
CONTINUOUS
10
7.06987
20
-3.85965
11
7.06424
21
-3.87153
0
LINE
8
BLACK
6
CONTINUOUS
10
7.06424
20
-3.87153
11
7.05723
21
-3.88265
0
LINE
8
BLACK
6
CONTINUOUS
10
7.05723
20
-3.88265
11
7.04892
21
-3.89285
0
LINE
8
BLACK
6
CONTINUOUS
10
7.04892
20
-3.89285
11
7.03946
21
-3.90197
0
LINE
8
BLACK
6
CONTINUOUS
10
7.03946
20
-3.90197
11
7.02896
21
-3.9099
0
LINE
8
BLACK
6
CONTINUOUS
10
7.02896
20
-3.9099
11
7.01759
21
-3.9165
0
LINE
8
BLACK
6
CONTINUOUS
10
7.01759
20
-3.9165
11
7.00551
21
-3.92169
0
LINE
8
BLACK
6
CONTINUOUS
10
7.00551
20
-3.92169
11
6.99289
21
-3.92539
0
LINE
8
BLACK
6
CONTINUOUS
10
6.99289
20
-3.92539
11
6.97992
21
-3.92755
0
LINE
8
BLACK
6
CONTINUOUS
10
6.97992
20
-3.92755
11
6.96679
21
-3.92814
0
LINE
8
BLACK
6
CONTINUOUS
10
6.96679
20
-3.92814
11
6.95368
21
-3.92714
0
LINE
8
BLACK
6
CONTINUOUS
10
6.95368
20
-3.92714
11
6.94078
21
-3.92457
0
LINE
8
BLACK
6
CONTINUOUS
10
6.94078
20
-3.92457
11
6.92829
21
-3.92048
0
LINE
8
BLACK
6
CONTINUOUS
10
6.92829
20
-3.92048
11
6.91637
21
-3.91491
0
LINE
8
BLACK
6
CONTINUOUS
10
6.91637
20
-3.91491
11
6.90522
21
-3.90795
0
LINE
8
BLACK
6
CONTINUOUS
10
6.90522
20
-3.90795
11
6.89498
21
-3.8997
0
LINE
8
BLACK
6
CONTINUOUS
10
6.89498
20
-3.8997
11
6.8858
21
-3.89029
0
LINE
8
BLACK
6
CONTINUOUS
10
6.8858
20
-3.89029
11
6.87782
21
-3.87983
0
LINE
8
BLACK
6
CONTINUOUS
10
6.87782
20
-3.87983
11
6.87116
21
-3.8685
0
LINE
8
BLACK
6
CONTINUOUS
10
6.87116
20
-3.8685
11
6.86591
21
-3.85644
0
LINE
8
BLACK
6
CONTINUOUS
10
6.86591
20
-3.85644
11
6.86214
21
-3.84385
0
LINE
8
BLACK
6
CONTINUOUS
10
6.86214
20
-3.84385
11
6.85991
21
-3.83089
0
LINE
8
BLACK
6
CONTINUOUS
10
6.85991
20
-3.83089
11
6.85926
21
-3.81781
0
LINE
8
BLACK
6
CONTINUOUS
10
6.85926
20
-3.81781
11
6.85926
21
-3.81775
0
LINE
8
BLACK
6
CONTINUOUS
10
6.85926
20
-3.81775
11
6.86019
21
-3.80464
0
LINE
8
BLACK
6
CONTINUOUS
10
6.8677
20
-3.84254
11
6.87127
21
-3.85448
0
LINE
8
BLACK
6
CONTINUOUS
10
6.87127
20
-3.85448
11
6.87625
21
-3.8659
0
LINE
8
BLACK
6
CONTINUOUS
10
6.87625
20
-3.8659
11
6.88257
21
-3.87664
0
LINE
8
BLACK
6
CONTINUOUS
10
6.88257
20
-3.87664
11
6.89013
21
-3.88655
0
LINE
8
BLACK
6
CONTINUOUS
10
6.89013
20
-3.88655
11
6.89882
21
-3.89548
0
LINE
8
BLACK
6
CONTINUOUS
10
6.89882
20
-3.89548
11
6.90853
21
-3.90329
0
LINE
8
BLACK
6
CONTINUOUS
10
6.90853
20
-3.90329
11
6.9191
21
-3.90989
0
LINE
8
BLACK
6
CONTINUOUS
10
6.9191
20
-3.90989
11
6.93039
21
-3.91516
0
LINE
8
BLACK
6
CONTINUOUS
10
6.93039
20
-3.91516
11
6.94223
21
-3.91904
0
LINE
8
BLACK
6
CONTINUOUS
10
6.94223
20
-3.91904
11
6.95445
21
-3.92148
0
LINE
8
BLACK
6
CONTINUOUS
10
6.95445
20
-3.92148
11
6.96688
21
-3.92242
0
LINE
8
BLACK
6
CONTINUOUS
10
6.96688
20
-3.92242
11
6.97933
21
-3.92187
0
LINE
8
BLACK
6
CONTINUOUS
10
6.97933
20
-3.92187
11
6.99162
21
-3.91982
0
LINE
8
BLACK
6
CONTINUOUS
10
6.99162
20
-3.91982
11
7.00358
21
-3.91631
0
LINE
8
BLACK
6
CONTINUOUS
10
7.00358
20
-3.91631
11
7.01502
21
-3.91139
0
LINE
8
BLACK
6
CONTINUOUS
10
7.01502
20
-3.91139
11
7.0258
21
-3.90513
0
LINE
8
BLACK
6
CONTINUOUS
10
7.0258
20
-3.90513
11
7.03574
21
-3.89763
0
LINE
8
BLACK
6
CONTINUOUS
10
7.03574
20
-3.89763
11
7.04472
21
-3.88898
0
LINE
8
BLACK
6
CONTINUOUS
10
7.04472
20
-3.88898
11
7.05258
21
-3.87931
0
LINE
8
BLACK
6
CONTINUOUS
10
7.05258
20
-3.87931
11
7.05923
21
-3.86878
0
LINE
8
BLACK
6
CONTINUOUS
10
7.05923
20
-3.86878
11
7.06457
21
-3.85752
0
LINE
8
BLACK
6
CONTINUOUS
10
7.06457
20
-3.85752
11
7.06851
21
-3.84569
0
LINE
8
BLACK
6
CONTINUOUS
10
7.06851
20
-3.84569
11
7.07101
21
-3.83349
0
LINE
8
BLACK
6
CONTINUOUS
10
7.07101
20
-3.83349
11
7.07202
21
-3.82107
0
LINE
8
BLACK
6
CONTINUOUS
10
7.07202
20
-3.82107
11
7.07204
21
-3.8189
0
LINE
8
BLACK
6
CONTINUOUS
10
7.07204
20
-3.8189
11
7.07129
21
-3.80646
0
LINE
8
BLACK
6
CONTINUOUS
10
7.07129
20
-3.80646
11
7.06905
21
-3.7942
0
LINE
8
BLACK
6
CONTINUOUS
10
7.06905
20
-3.7942
11
7.06536
21
-3.7823
0
LINE
8
BLACK
6
CONTINUOUS
10
7.06536
20
-3.7823
11
7.06026
21
-3.77093
0
LINE
8
BLACK
6
CONTINUOUS
10
7.06026
20
-3.77093
11
7.05383
21
-3.76025
0
LINE
8
BLACK
6
CONTINUOUS
10
7.05383
20
-3.76025
11
7.04617
21
-3.75043
0
LINE
8
BLACK
6
CONTINUOUS
10
7.04617
20
-3.75043
11
7.03738
21
-3.74159
0
LINE
8
BLACK
6
CONTINUOUS
10
7.03738
20
-3.74159
11
7.02759
21
-3.73388
0
LINE
8
BLACK
6
CONTINUOUS
10
7.02759
20
-3.73388
11
7.01695
21
-3.7274
0
LINE
8
BLACK
6
CONTINUOUS
10
7.01695
20
-3.7274
11
7.00561
21
-3.72224
0
LINE
8
BLACK
6
CONTINUOUS
10
7.00561
20
-3.72224
11
6.99373
21
-3.71848
0
LINE
8
BLACK
6
CONTINUOUS
10
6.99373
20
-3.71848
11
6.98148
21
-3.71618
0
LINE
8
BLACK
6
CONTINUOUS
10
6.98148
20
-3.71618
11
6.96905
21
-3.71536
0
LINE
8
BLACK
6
CONTINUOUS
10
6.96905
20
-3.71536
11
6.9566
21
-3.71605
0
LINE
8
BLACK
6
CONTINUOUS
10
6.9566
20
-3.71605
11
6.94433
21
-3.71822
0
LINE
8
BLACK
6
CONTINUOUS
10
6.94433
20
-3.71822
11
6.93241
21
-3.72186
0
LINE
8
BLACK
6
CONTINUOUS
10
6.93241
20
-3.72186
11
6.92102
21
-3.72689
0
LINE
8
BLACK
6
CONTINUOUS
10
6.92102
20
-3.72689
11
6.91031
21
-3.73327
0
LINE
8
BLACK
6
CONTINUOUS
10
6.91031
20
-3.73327
11
6.90044
21
-3.74088
0
LINE
8
BLACK
6
CONTINUOUS
10
6.90044
20
-3.74088
11
6.89156
21
-3.74962
0
LINE
8
BLACK
6
CONTINUOUS
10
6.89156
20
-3.74962
11
6.8838
21
-3.75936
0
LINE
8
BLACK
6
CONTINUOUS
10
6.8838
20
-3.75936
11
6.87726
21
-3.76997
0
LINE
8
BLACK
6
CONTINUOUS
10
6.87726
20
-3.76997
11
6.87204
21
-3.78129
0
LINE
8
BLACK
6
CONTINUOUS
10
6.87204
20
-3.78129
11
6.86822
21
-3.79315
0
LINE
8
BLACK
6
CONTINUOUS
10
6.86822
20
-3.79315
11
6.86585
21
-3.80538
0
LINE
8
BLACK
6
CONTINUOUS
10
6.86585
20
-3.80538
11
6.86497
21
-3.81781
0
LINE
8
BLACK
6
CONTINUOUS
10
6.86497
20
-3.81781
11
6.86559
21
-3.83026
0
LINE
8
BLACK
6
CONTINUOUS
10
6.86559
20
-3.83026
11
6.8677
21
-3.84254
0
LINE
8
BLACK
6
CONTINUOUS
10
4.7342
20
-3.80464
11
4.7367
21
-3.79173
0
LINE
8
BLACK
6
CONTINUOUS
10
4.7367
20
-3.79173
11
4.74073
21
-3.77921
0
LINE
8
BLACK
6
CONTINUOUS
10
4.74073
20
-3.77921
11
4.74624
21
-3.76727
0
LINE
8
BLACK
6
CONTINUOUS
10
4.74624
20
-3.76727
11
4.75314
21
-3.75608
0
LINE
8
BLACK
6
CONTINUOUS
10
4.75314
20
-3.75608
11
4.76133
21
-3.74579
0
LINE
8
BLACK
6
CONTINUOUS
10
4.76133
20
-3.74579
11
4.7707
21
-3.73657
0
LINE
8
BLACK
6
CONTINUOUS
10
4.7707
20
-3.73657
11
4.78111
21
-3.72854
0
LINE
8
BLACK
6
CONTINUOUS
10
4.78111
20
-3.72854
11
4.79241
21
-3.72181
0
LINE
8
BLACK
6
CONTINUOUS
10
4.79241
20
-3.72181
11
4.80444
21
-3.7165
0
LINE
8
BLACK
6
CONTINUOUS
10
4.80444
20
-3.7165
11
4.81702
21
-3.71266
0
LINE
8
BLACK
6
CONTINUOUS
10
4.81702
20
-3.71266
11
4.82996
21
-3.71037
0
LINE
8
BLACK
6
CONTINUOUS
10
4.82996
20
-3.71037
11
4.84309
21
-3.70965
0
LINE
8
BLACK
6
CONTINUOUS
10
4.84309
20
-3.70965
11
4.85621
21
-3.71051
0
LINE
8
BLACK
6
CONTINUOUS
10
4.85621
20
-3.71051
11
4.86914
21
-3.71294
0
LINE
8
BLACK
6
CONTINUOUS
10
4.86914
20
-3.71294
11
4.88167
21
-3.7169
0
LINE
8
BLACK
6
CONTINUOUS
10
4.88167
20
-3.7169
11
4.89364
21
-3.72234
0
LINE
8
BLACK
6
CONTINUOUS
10
4.89364
20
-3.72234
11
4.90487
21
-3.72919
0
LINE
8
BLACK
6
CONTINUOUS
10
4.90487
20
-3.72919
11
4.9152
21
-3.73733
0
LINE
8
BLACK
6
CONTINUOUS
10
4.9152
20
-3.73733
11
4.92447
21
-3.74665
0
LINE
8
BLACK
6
CONTINUOUS
10
4.92447
20
-3.74665
11
4.93256
21
-3.75702
0
LINE
8
BLACK
6
CONTINUOUS
10
4.93256
20
-3.75702
11
4.93934
21
-3.76828
0
LINE
8
BLACK
6
CONTINUOUS
10
4.93934
20
-3.76828
11
4.94472
21
-3.78028
0
LINE
8
BLACK
6
CONTINUOUS
10
4.94472
20
-3.78028
11
4.94862
21
-3.79284
0
LINE
8
BLACK
6
CONTINUOUS
10
4.94862
20
-3.79284
11
4.95098
21
-3.80577
0
LINE
8
BLACK
6
CONTINUOUS
10
4.95098
20
-3.80577
11
4.95177
21
-3.8189
0
LINE
8
BLACK
6
CONTINUOUS
10
4.95177
20
-3.8189
11
4.95175
21
-3.82119
0
LINE
8
BLACK
6
CONTINUOUS
10
4.95175
20
-3.82119
11
4.95068
21
-3.83429
0
LINE
8
BLACK
6
CONTINUOUS
10
4.95068
20
-3.83429
11
4.94805
21
-3.84717
0
LINE
8
BLACK
6
CONTINUOUS
10
4.94805
20
-3.84717
11
4.94389
21
-3.85965
0
LINE
8
BLACK
6
CONTINUOUS
10
4.94389
20
-3.85965
11
4.93826
21
-3.87153
0
LINE
8
BLACK
6
CONTINUOUS
10
4.93826
20
-3.87153
11
4.93124
21
-3.88265
0
LINE
8
BLACK
6
CONTINUOUS
10
4.93124
20
-3.88265
11
4.92294
21
-3.89285
0
LINE
8
BLACK
6
CONTINUOUS
10
4.92294
20
-3.89285
11
4.91347
21
-3.90197
0
LINE
8
BLACK
6
CONTINUOUS
10
4.91347
20
-3.90197
11
4.90298
21
-3.9099
0
LINE
8
BLACK
6
CONTINUOUS
10
4.90298
20
-3.9099
11
4.89161
21
-3.9165
0
LINE
8
BLACK
6
CONTINUOUS
10
4.89161
20
-3.9165
11
4.87953
21
-3.92169
0
LINE
8
BLACK
6
CONTINUOUS
10
4.87953
20
-3.92169
11
4.86691
21
-3.92539
0
LINE
8
BLACK
6
CONTINUOUS
10
4.86691
20
-3.92539
11
4.85394
21
-3.92755
0
LINE
8
BLACK
6
CONTINUOUS
10
4.85394
20
-3.92755
11
4.8408
21
-3.92814
0
LINE
8
BLACK
6
CONTINUOUS
10
4.8408
20
-3.92814
11
4.82769
21
-3.92714
0
LINE
8
BLACK
6
CONTINUOUS
10
4.82769
20
-3.92714
11
4.8148
21
-3.92457
0
LINE
8
BLACK
6
CONTINUOUS
10
4.8148
20
-3.92457
11
4.8023
21
-3.92048
0
LINE
8
BLACK
6
CONTINUOUS
10
4.8023
20
-3.92048
11
4.79039
21
-3.91491
0
LINE
8
BLACK
6
CONTINUOUS
10
4.79039
20
-3.91491
11
4.77923
21
-3.90795
0
LINE
8
BLACK
6
CONTINUOUS
10
4.77923
20
-3.90795
11
4.76899
21
-3.8997
0
LINE
8
BLACK
6
CONTINUOUS
10
4.76899
20
-3.8997
11
4.75982
21
-3.89029
0
LINE
8
BLACK
6
CONTINUOUS
10
4.75982
20
-3.89029
11
4.75184
21
-3.87983
0
LINE
8
BLACK
6
CONTINUOUS
10
4.75184
20
-3.87983
11
4.74518
21
-3.8685
0
LINE
8
BLACK
6
CONTINUOUS
10
4.74518
20
-3.8685
11
4.73992
21
-3.85644
0
LINE
8
BLACK
6
CONTINUOUS
10
4.73992
20
-3.85644
11
4.73615
21
-3.84385
0
LINE
8
BLACK
6
CONTINUOUS
10
4.73615
20
-3.84385
11
4.73393
21
-3.83089
0
LINE
8
BLACK
6
CONTINUOUS
10
4.73393
20
-3.83089
11
4.73328
21
-3.81781
0
LINE
8
BLACK
6
CONTINUOUS
10
4.73328
20
-3.81781
11
4.73327
21
-3.81775
0
LINE
8
BLACK
6
CONTINUOUS
10
4.73327
20
-3.81775
11
4.7342
21
-3.80464
0
LINE
8
BLACK
6
CONTINUOUS
10
4.74172
20
-3.84254
11
4.74529
21
-3.85448
0
LINE
8
BLACK
6
CONTINUOUS
10
4.74529
20
-3.85448
11
4.75027
21
-3.8659
0
LINE
8
BLACK
6
CONTINUOUS
10
4.75027
20
-3.8659
11
4.75658
21
-3.87664
0
LINE
8
BLACK
6
CONTINUOUS
10
4.75658
20
-3.87664
11
4.76414
21
-3.88655
0
LINE
8
BLACK
6
CONTINUOUS
10
4.76414
20
-3.88655
11
4.77284
21
-3.89548
0
LINE
8
BLACK
6
CONTINUOUS
10
4.77284
20
-3.89548
11
4.78254
21
-3.90329
0
LINE
8
BLACK
6
CONTINUOUS
10
4.78254
20
-3.90329
11
4.79312
21
-3.90989
0
LINE
8
BLACK
6
CONTINUOUS
10
4.79312
20
-3.90989
11
4.80441
21
-3.91516
0
LINE
8
BLACK
6
CONTINUOUS
10
4.80441
20
-3.91516
11
4.81625
21
-3.91904
0
LINE
8
BLACK
6
CONTINUOUS
10
4.81625
20
-3.91904
11
4.82847
21
-3.92148
0
LINE
8
BLACK
6
CONTINUOUS
10
4.82847
20
-3.92148
11
4.84089
21
-3.92242
0
LINE
8
BLACK
6
CONTINUOUS
10
4.84089
20
-3.92242
11
4.85334
21
-3.92187
0
LINE
8
BLACK
6
CONTINUOUS
10
4.85334
20
-3.92187
11
4.86563
21
-3.91982
0
LINE
8
BLACK
6
CONTINUOUS
10
4.86563
20
-3.91982
11
4.87759
21
-3.91631
0
LINE
8
BLACK
6
CONTINUOUS
10
4.87759
20
-3.91631
11
4.88904
21
-3.91139
0
LINE
8
BLACK
6
CONTINUOUS
10
4.88904
20
-3.91139
11
4.89982
21
-3.90513
0
LINE
8
BLACK
6
CONTINUOUS
10
4.89982
20
-3.90513
11
4.90976
21
-3.89763
0
LINE
8
BLACK
6
CONTINUOUS
10
4.90976
20
-3.89763
11
4.91873
21
-3.88898
0
LINE
8
BLACK
6
CONTINUOUS
10
4.91873
20
-3.88898
11
4.9266
21
-3.87931
0
LINE
8
BLACK
6
CONTINUOUS
10
4.9266
20
-3.87931
11
4.93325
21
-3.86878
0
LINE
8
BLACK
6
CONTINUOUS
10
4.93325
20
-3.86878
11
4.93858
21
-3.85752
0
LINE
8
BLACK
6
CONTINUOUS
10
4.93858
20
-3.85752
11
4.94253
21
-3.84569
0
LINE
8
BLACK
6
CONTINUOUS
10
4.94253
20
-3.84569
11
4.94502
21
-3.83349
0
LINE
8
BLACK
6
CONTINUOUS
10
4.94502
20
-3.83349
11
4.94603
21
-3.82107
0
LINE
8
BLACK
6
CONTINUOUS
10
4.94603
20
-3.82107
11
4.94606
21
-3.8189
0
LINE
8
BLACK
6
CONTINUOUS
10
4.94606
20
-3.8189
11
4.94531
21
-3.80646
0
LINE
8
BLACK
6
CONTINUOUS
10
4.94531
20
-3.80646
11
4.94307
21
-3.7942
0
LINE
8
BLACK
6
CONTINUOUS
10
4.94307
20
-3.7942
11
4.93937
21
-3.7823
0
LINE
8
BLACK
6
CONTINUOUS
10
4.93937
20
-3.7823
11
4.93427
21
-3.77093
0
LINE
8
BLACK
6
CONTINUOUS
10
4.93427
20
-3.77093
11
4.92785
21
-3.76025
0
LINE
8
BLACK
6
CONTINUOUS
10
4.92785
20
-3.76025
11
4.92018
21
-3.75043
0
LINE
8
BLACK
6
CONTINUOUS
10
4.92018
20
-3.75043
11
4.91139
21
-3.74159
0
LINE
8
BLACK
6
CONTINUOUS
10
4.91139
20
-3.74159
11
4.90161
21
-3.73388
0
LINE
8
BLACK
6
CONTINUOUS
10
4.90161
20
-3.73388
11
4.89097
21
-3.7274
0
LINE
8
BLACK
6
CONTINUOUS
10
4.89097
20
-3.7274
11
4.87962
21
-3.72224
0
LINE
8
BLACK
6
CONTINUOUS
10
4.87962
20
-3.72224
11
4.86774
21
-3.71848
0
LINE
8
BLACK
6
CONTINUOUS
10
4.86774
20
-3.71848
11
4.8555
21
-3.71618
0
LINE
8
BLACK
6
CONTINUOUS
10
4.8555
20
-3.71618
11
4.84306
21
-3.71536
0
LINE
8
BLACK
6
CONTINUOUS
10
4.84306
20
-3.71536
11
4.83062
21
-3.71605
0
LINE
8
BLACK
6
CONTINUOUS
10
4.83062
20
-3.71605
11
4.81835
21
-3.71822
0
LINE
8
BLACK
6
CONTINUOUS
10
4.81835
20
-3.71822
11
4.80643
21
-3.72186
0
LINE
8
BLACK
6
CONTINUOUS
10
4.80643
20
-3.72186
11
4.79503
21
-3.72689
0
LINE
8
BLACK
6
CONTINUOUS
10
4.79503
20
-3.72689
11
4.78432
21
-3.73327
0
LINE
8
BLACK
6
CONTINUOUS
10
4.78432
20
-3.73327
11
4.77446
21
-3.74088
0
LINE
8
BLACK
6
CONTINUOUS
10
4.77446
20
-3.74088
11
4.76558
21
-3.74962
0
LINE
8
BLACK
6
CONTINUOUS
10
4.76558
20
-3.74962
11
4.75781
21
-3.75936
0
LINE
8
BLACK
6
CONTINUOUS
10
4.75781
20
-3.75936
11
4.75127
21
-3.76997
0
LINE
8
BLACK
6
CONTINUOUS
10
4.75127
20
-3.76997
11
4.74606
21
-3.78129
0
LINE
8
BLACK
6
CONTINUOUS
10
4.74606
20
-3.78129
11
4.74224
21
-3.79315
0
LINE
8
BLACK
6
CONTINUOUS
10
4.74224
20
-3.79315
11
4.73987
21
-3.80538
0
LINE
8
BLACK
6
CONTINUOUS
10
4.73987
20
-3.80538
11
4.73899
21
-3.81781
0
LINE
8
BLACK
6
CONTINUOUS
10
4.73899
20
-3.81781
11
4.73961
21
-3.83026
0
LINE
8
BLACK
6
CONTINUOUS
10
4.73961
20
-3.83026
11
4.74172
21
-3.84254
0
LINE
8
BLACK
6
CONTINUOUS
10
4.7342
20
-2.72196
11
4.7367
21
-2.70905
0
LINE
8
BLACK
6
CONTINUOUS
10
4.7367
20
-2.70905
11
4.74073
21
-2.69653
0
LINE
8
BLACK
6
CONTINUOUS
10
4.74073
20
-2.69653
11
4.74624
21
-2.68459
0
LINE
8
BLACK
6
CONTINUOUS
10
4.74624
20
-2.68459
11
4.75314
21
-2.6734
0
LINE
8
BLACK
6
CONTINUOUS
10
4.75314
20
-2.6734
11
4.76133
21
-2.66312
0
LINE
8
BLACK
6
CONTINUOUS
10
4.76133
20
-2.66312
11
4.7707
21
-2.65389
0
LINE
8
BLACK
6
CONTINUOUS
10
4.7707
20
-2.65389
11
4.78111
21
-2.64586
0
LINE
8
BLACK
6
CONTINUOUS
10
4.78111
20
-2.64586
11
4.79241
21
-2.63914
0
LINE
8
BLACK
6
CONTINUOUS
10
4.79241
20
-2.63914
11
4.80444
21
-2.63382
0
LINE
8
BLACK
6
CONTINUOUS
10
4.80444
20
-2.63382
11
4.81702
21
-2.62999
0
LINE
8
BLACK
6
CONTINUOUS
10
4.81702
20
-2.62999
11
4.82996
21
-2.62769
0
LINE
8
BLACK
6
CONTINUOUS
10
4.82996
20
-2.62769
11
4.84309
21
-2.62697
0
LINE
8
BLACK
6
CONTINUOUS
10
4.84309
20
-2.62697
11
4.85621
21
-2.62783
0
LINE
8
BLACK
6
CONTINUOUS
10
4.85621
20
-2.62783
11
4.86914
21
-2.63026
0
LINE
8
BLACK
6
CONTINUOUS
10
4.86914
20
-2.63026
11
4.88167
21
-2.63422
0
LINE
8
BLACK
6
CONTINUOUS
10
4.88167
20
-2.63422
11
4.89364
21
-2.63967
0
LINE
8
BLACK
6
CONTINUOUS
10
4.89364
20
-2.63967
11
4.90487
21
-2.64651
0
LINE
8
BLACK
6
CONTINUOUS
10
4.90487
20
-2.64651
11
4.9152
21
-2.65465
0
LINE
8
BLACK
6
CONTINUOUS
10
4.9152
20
-2.65465
11
4.92447
21
-2.66397
0
LINE
8
BLACK
6
CONTINUOUS
10
4.92447
20
-2.66397
11
4.93256
21
-2.67434
0
LINE
8
BLACK
6
CONTINUOUS
10
4.93256
20
-2.67434
11
4.93934
21
-2.6856
0
LINE
8
BLACK
6
CONTINUOUS
10
4.93934
20
-2.6856
11
4.94472
21
-2.6976
0
LINE
8
BLACK
6
CONTINUOUS
10
4.94472
20
-2.6976
11
4.94862
21
-2.71016
0
LINE
8
BLACK
6
CONTINUOUS
10
4.94862
20
-2.71016
11
4.95098
21
-2.7231
0
LINE
8
BLACK
6
CONTINUOUS
10
4.95098
20
-2.7231
11
4.95177
21
-2.73622
0
LINE
8
BLACK
6
CONTINUOUS
10
4.95177
20
-2.73622
11
4.95175
21
-2.73851
0
LINE
8
BLACK
6
CONTINUOUS
10
4.95175
20
-2.73851
11
4.95068
21
-2.75161
0
LINE
8
BLACK
6
CONTINUOUS
10
4.95068
20
-2.75161
11
4.94805
21
-2.7645
0
LINE
8
BLACK
6
CONTINUOUS
10
4.94805
20
-2.7645
11
4.94389
21
-2.77697
0
LINE
8
BLACK
6
CONTINUOUS
10
4.94389
20
-2.77697
11
4.93826
21
-2.78885
0
LINE
8
BLACK
6
CONTINUOUS
10
4.93826
20
-2.78885
11
4.93124
21
-2.79997
0
LINE
8
BLACK
6
CONTINUOUS
10
4.93124
20
-2.79997
11
4.92294
21
-2.81017
0
LINE
8
BLACK
6
CONTINUOUS
10
4.92294
20
-2.81017
11
4.91347
21
-2.8193
0
LINE
8
BLACK
6
CONTINUOUS
10
4.91347
20
-2.8193
11
4.90298
21
-2.82722
0
LINE
8
BLACK
6
CONTINUOUS
10
4.90298
20
-2.82722
11
4.89161
21
-2.83382
0
LINE
8
BLACK
6
CONTINUOUS
10
4.89161
20
-2.83382
11
4.87953
21
-2.83901
0
LINE
8
BLACK
6
CONTINUOUS
10
4.87953
20
-2.83901
11
4.86691
21
-2.84272
0
LINE
8
BLACK
6
CONTINUOUS
10
4.86691
20
-2.84272
11
4.85394
21
-2.84487
0
LINE
8
BLACK
6
CONTINUOUS
10
4.85394
20
-2.84487
11
4.8408
21
-2.84546
0
LINE
8
BLACK
6
CONTINUOUS
10
4.8408
20
-2.84546
11
4.82769
21
-2.84446
0
LINE
8
BLACK
6
CONTINUOUS
10
4.82769
20
-2.84446
11
4.8148
21
-2.8419
0
LINE
8
BLACK
6
CONTINUOUS
10
4.8148
20
-2.8419
11
4.8023
21
-2.8378
0
LINE
8
BLACK
6
CONTINUOUS
10
4.8023
20
-2.8378
11
4.79039
21
-2.83223
0
LINE
8
BLACK
6
CONTINUOUS
10
4.79039
20
-2.83223
11
4.77923
21
-2.82527
0
LINE
8
BLACK
6
CONTINUOUS
10
4.77923
20
-2.82527
11
4.76899
21
-2.81703
0
LINE
8
BLACK
6
CONTINUOUS
10
4.76899
20
-2.81703
11
4.75982
21
-2.80761
0
LINE
8
BLACK
6
CONTINUOUS
10
4.75982
20
-2.80761
11
4.75184
21
-2.79716
0
LINE
8
BLACK
6
CONTINUOUS
10
4.75184
20
-2.79716
11
4.74518
21
-2.78582
0
LINE
8
BLACK
6
CONTINUOUS
10
4.74518
20
-2.78582
11
4.73992
21
-2.77377
0
LINE
8
BLACK
6
CONTINUOUS
10
4.73992
20
-2.77377
11
4.73615
21
-2.76117
0
LINE
8
BLACK
6
CONTINUOUS
10
4.73615
20
-2.76117
11
4.73393
21
-2.74821
0
LINE
8
BLACK
6
CONTINUOUS
10
4.73393
20
-2.74821
11
4.73328
21
-2.73514
0
LINE
8
BLACK
6
CONTINUOUS
10
4.73328
20
-2.73514
11
4.73327
21
-2.73508
0
LINE
8
BLACK
6
CONTINUOUS
10
4.73327
20
-2.73508
11
4.7342
21
-2.72196
0
LINE
8
BLACK
6
CONTINUOUS
10
4.74172
20
-2.75986
11
4.74529
21
-2.7718
0
LINE
8
BLACK
6
CONTINUOUS
10
4.74529
20
-2.7718
11
4.75027
21
-2.78322
0
LINE
8
BLACK
6
CONTINUOUS
10
4.75027
20
-2.78322
11
4.75658
21
-2.79397
0
LINE
8
BLACK
6
CONTINUOUS
10
4.75658
20
-2.79397
11
4.76414
21
-2.80387
0
LINE
8
BLACK
6
CONTINUOUS
10
4.76414
20
-2.80387
11
4.77284
21
-2.8128
0
LINE
8
BLACK
6
CONTINUOUS
10
4.77284
20
-2.8128
11
4.78254
21
-2.82062
0
LINE
8
BLACK
6
CONTINUOUS
10
4.78254
20
-2.82062
11
4.79312
21
-2.82721
0
LINE
8
BLACK
6
CONTINUOUS
10
4.79312
20
-2.82721
11
4.80441
21
-2.83249
0
LINE
8
BLACK
6
CONTINUOUS
10
4.80441
20
-2.83249
11
4.81625
21
-2.83637
0
LINE
8
BLACK
6
CONTINUOUS
10
4.81625
20
-2.83637
11
4.82847
21
-2.8388
0
LINE
8
BLACK
6
CONTINUOUS
10
4.82847
20
-2.8388
11
4.84089
21
-2.83974
0
LINE
8
BLACK
6
CONTINUOUS
10
4.84089
20
-2.83974
11
4.85334
21
-2.83919
0
LINE
8
BLACK
6
CONTINUOUS
10
4.85334
20
-2.83919
11
4.86563
21
-2.83714
0
LINE
8
BLACK
6
CONTINUOUS
10
4.86563
20
-2.83714
11
4.87759
21
-2.83363
0
LINE
8
BLACK
6
CONTINUOUS
10
4.87759
20
-2.83363
11
4.88904
21
-2.82872
0
LINE
8
BLACK
6
CONTINUOUS
10
4.88904
20
-2.82872
11
4.89982
21
-2.82246
0
LINE
8
BLACK
6
CONTINUOUS
10
4.89982
20
-2.82246
11
4.90976
21
-2.81495
0
LINE
8
BLACK
6
CONTINUOUS
10
4.90976
20
-2.81495
11
4.91873
21
-2.8063
0
LINE
8
BLACK
6
CONTINUOUS
10
4.91873
20
-2.8063
11
4.9266
21
-2.79664
0
LINE
8
BLACK
6
CONTINUOUS
10
4.9266
20
-2.79664
11
4.93325
21
-2.7861
0
LINE
8
BLACK
6
CONTINUOUS
10
4.93325
20
-2.7861
11
4.93858
21
-2.77484
0
LINE
8
BLACK
6
CONTINUOUS
10
4.93858
20
-2.77484
11
4.94253
21
-2.76302
0
LINE
8
BLACK
6
CONTINUOUS
10
4.94253
20
-2.76302
11
4.94502
21
-2.75081
0
LINE
8
BLACK
6
CONTINUOUS
10
4.94502
20
-2.75081
11
4.94603
21
-2.73839
0
LINE
8
BLACK
6
CONTINUOUS
10
4.94603
20
-2.73839
11
4.94606
21
-2.73622
0
LINE
8
BLACK
6
CONTINUOUS
10
4.94606
20
-2.73622
11
4.94531
21
-2.72378
0
LINE
8
BLACK
6
CONTINUOUS
10
4.94531
20
-2.72378
11
4.94307
21
-2.71152
0
LINE
8
BLACK
6
CONTINUOUS
10
4.94307
20
-2.71152
11
4.93937
21
-2.69962
0
LINE
8
BLACK
6
CONTINUOUS
10
4.93937
20
-2.69962
11
4.93427
21
-2.68825
0
LINE
8
BLACK
6
CONTINUOUS
10
4.93427
20
-2.68825
11
4.92785
21
-2.67758
0
LINE
8
BLACK
6
CONTINUOUS
10
4.92785
20
-2.67758
11
4.92018
21
-2.66775
0
LINE
8
BLACK
6
CONTINUOUS
10
4.92018
20
-2.66775
11
4.91139
21
-2.65892
0
LINE
8
BLACK
6
CONTINUOUS
10
4.91139
20
-2.65892
11
4.90161
21
-2.6512
0
LINE
8
BLACK
6
CONTINUOUS
10
4.90161
20
-2.6512
11
4.89097
21
-2.64472
0
LINE
8
BLACK
6
CONTINUOUS
10
4.89097
20
-2.64472
11
4.87962
21
-2.63956
0
LINE
8
BLACK
6
CONTINUOUS
10
4.87962
20
-2.63956
11
4.86774
21
-2.6358
0
LINE
8
BLACK
6
CONTINUOUS
10
4.86774
20
-2.6358
11
4.8555
21
-2.6335
0
LINE
8
BLACK
6
CONTINUOUS
10
4.8555
20
-2.6335
11
4.84306
21
-2.63269
0
LINE
8
BLACK
6
CONTINUOUS
10
4.84306
20
-2.63269
11
4.83062
21
-2.63337
0
LINE
8
BLACK
6
CONTINUOUS
10
4.83062
20
-2.63337
11
4.81835
21
-2.63555
0
LINE
8
BLACK
6
CONTINUOUS
10
4.81835
20
-2.63555
11
4.80643
21
-2.63918
0
LINE
8
BLACK
6
CONTINUOUS
10
4.80643
20
-2.63918
11
4.79503
21
-2.64422
0
LINE
8
BLACK
6
CONTINUOUS
10
4.79503
20
-2.64422
11
4.78432
21
-2.65059
0
LINE
8
BLACK
6
CONTINUOUS
10
4.78432
20
-2.65059
11
4.77446
21
-2.6582
0
LINE
8
BLACK
6
CONTINUOUS
10
4.77446
20
-2.6582
11
4.76558
21
-2.66694
0
LINE
8
BLACK
6
CONTINUOUS
10
4.76558
20
-2.66694
11
4.75781
21
-2.67669
0
LINE
8
BLACK
6
CONTINUOUS
10
4.75781
20
-2.67669
11
4.75127
21
-2.68729
0
LINE
8
BLACK
6
CONTINUOUS
10
4.75127
20
-2.68729
11
4.74606
21
-2.69861
0
LINE
8
BLACK
6
CONTINUOUS
10
4.74606
20
-2.69861
11
4.74224
21
-2.71047
0
LINE
8
BLACK
6
CONTINUOUS
10
4.74224
20
-2.71047
11
4.73987
21
-2.72271
0
LINE
8
BLACK
6
CONTINUOUS
10
4.73987
20
-2.72271
11
4.73899
21
-2.73514
0
LINE
8
BLACK
6
CONTINUOUS
10
4.73899
20
-2.73514
11
4.73961
21
-2.74758
0
LINE
8
BLACK
6
CONTINUOUS
10
4.73961
20
-2.74758
11
4.74172
21
-2.75986
0
LINE
8
BLACK
6
CONTINUOUS
10
6.86019
20
-2.72196
11
6.86268
21
-2.70905
0
LINE
8
BLACK
6
CONTINUOUS
10
6.86268
20
-2.70905
11
6.86671
21
-2.69653
0
LINE
8
BLACK
6
CONTINUOUS
10
6.86671
20
-2.69653
11
6.87222
21
-2.68459
0
LINE
8
BLACK
6
CONTINUOUS
10
6.87222
20
-2.68459
11
6.87912
21
-2.6734
0
LINE
8
BLACK
6
CONTINUOUS
10
6.87912
20
-2.6734
11
6.88731
21
-2.66312
0
LINE
8
BLACK
6
CONTINUOUS
10
6.88731
20
-2.66312
11
6.89668
21
-2.65389
0
LINE
8
BLACK
6
CONTINUOUS
10
6.89668
20
-2.65389
11
6.9071
21
-2.64586
0
LINE
8
BLACK
6
CONTINUOUS
10
6.9071
20
-2.64586
11
6.9184
21
-2.63914
0
LINE
8
BLACK
6
CONTINUOUS
10
6.9184
20
-2.63914
11
6.93042
21
-2.63382
0
LINE
8
BLACK
6
CONTINUOUS
10
6.93042
20
-2.63382
11
6.943
21
-2.62999
0
LINE
8
BLACK
6
CONTINUOUS
10
6.943
20
-2.62999
11
6.95595
21
-2.62769
0
LINE
8
BLACK
6
CONTINUOUS
10
6.95595
20
-2.62769
11
6.96908
21
-2.62697
0
LINE
8
BLACK
6
CONTINUOUS
10
6.96908
20
-2.62697
11
6.9822
21
-2.62783
0
LINE
8
BLACK
6
CONTINUOUS
10
6.9822
20
-2.62783
11
6.99512
21
-2.63026
0
LINE
8
BLACK
6
CONTINUOUS
10
6.99512
20
-2.63026
11
7.00766
21
-2.63422
0
LINE
8
BLACK
6
CONTINUOUS
10
7.00766
20
-2.63422
11
7.01963
21
-2.63967
0
LINE
8
BLACK
6
CONTINUOUS
10
7.01963
20
-2.63967
11
7.03086
21
-2.64651
0
LINE
8
BLACK
6
CONTINUOUS
10
7.03086
20
-2.64651
11
7.04118
21
-2.65465
0
LINE
8
BLACK
6
CONTINUOUS
10
7.04118
20
-2.65465
11
7.05046
21
-2.66397
0
LINE
8
BLACK
6
CONTINUOUS
10
7.05046
20
-2.66397
11
7.05854
21
-2.67434
0
LINE
8
BLACK
6
CONTINUOUS
10
7.05854
20
-2.67434
11
7.06532
21
-2.6856
0
LINE
8
BLACK
6
CONTINUOUS
10
7.06532
20
-2.6856
11
7.0707
21
-2.6976
0
LINE
8
BLACK
6
CONTINUOUS
10
7.0707
20
-2.6976
11
7.0746
21
-2.71016
0
LINE
8
BLACK
6
CONTINUOUS
10
7.0746
20
-2.71016
11
7.07696
21
-2.7231
0
LINE
8
BLACK
6
CONTINUOUS
10
7.07696
20
-2.7231
11
7.07776
21
-2.73622
0
LINE
8
BLACK
6
CONTINUOUS
10
7.07776
20
-2.73622
11
7.07773
21
-2.73851
0
LINE
8
BLACK
6
CONTINUOUS
10
7.07773
20
-2.73851
11
7.07667
21
-2.75161
0
LINE
8
BLACK
6
CONTINUOUS
10
7.07667
20
-2.75161
11
7.07403
21
-2.7645
0
LINE
8
BLACK
6
CONTINUOUS
10
7.07403
20
-2.7645
11
7.06987
21
-2.77697
0
LINE
8
BLACK
6
CONTINUOUS
10
7.06987
20
-2.77697
11
7.06424
21
-2.78885
0
LINE
8
BLACK
6
CONTINUOUS
10
7.06424
20
-2.78885
11
7.05723
21
-2.79997
0
LINE
8
BLACK
6
CONTINUOUS
10
7.05723
20
-2.79997
11
7.04892
21
-2.81017
0
LINE
8
BLACK
6
CONTINUOUS
10
7.04892
20
-2.81017
11
7.03946
21
-2.8193
0
LINE
8
BLACK
6
CONTINUOUS
10
7.03946
20
-2.8193
11
7.02896
21
-2.82722
0
LINE
8
BLACK
6
CONTINUOUS
10
7.02896
20
-2.82722
11
7.01759
21
-2.83382
0
LINE
8
BLACK
6
CONTINUOUS
10
7.01759
20
-2.83382
11
7.00551
21
-2.83901
0
LINE
8
BLACK
6
CONTINUOUS
10
7.00551
20
-2.83901
11
6.99289
21
-2.84272
0
LINE
8
BLACK
6
CONTINUOUS
10
6.99289
20
-2.84272
11
6.97992
21
-2.84487
0
LINE
8
BLACK
6
CONTINUOUS
10
6.97992
20
-2.84487
11
6.96679
21
-2.84546
0
LINE
8
BLACK
6
CONTINUOUS
10
6.96679
20
-2.84546
11
6.95368
21
-2.84446
0
LINE
8
BLACK
6
CONTINUOUS
10
6.95368
20
-2.84446
11
6.94078
21
-2.8419
0
LINE
8
BLACK
6
CONTINUOUS
10
6.94078
20
-2.8419
11
6.92829
21
-2.8378
0
LINE
8
BLACK
6
CONTINUOUS
10
6.92829
20
-2.8378
11
6.91637
21
-2.83223
0
LINE
8
BLACK
6
CONTINUOUS
10
6.91637
20
-2.83223
11
6.90522
21
-2.82527
0
LINE
8
BLACK
6
CONTINUOUS
10
6.90522
20
-2.82527
11
6.89498
21
-2.81703
0
LINE
8
BLACK
6
CONTINUOUS
10
6.89498
20
-2.81703
11
6.8858
21
-2.80761
0
LINE
8
BLACK
6
CONTINUOUS
10
6.8858
20
-2.80761
11
6.87782
21
-2.79716
0
LINE
8
BLACK
6
CONTINUOUS
10
6.87782
20
-2.79716
11
6.87116
21
-2.78582
0
LINE
8
BLACK
6
CONTINUOUS
10
6.87116
20
-2.78582
11
6.86591
21
-2.77377
0
LINE
8
BLACK
6
CONTINUOUS
10
6.86591
20
-2.77377
11
6.86214
21
-2.76117
0
LINE
8
BLACK
6
CONTINUOUS
10
6.86214
20
-2.76117
11
6.85991
21
-2.74821
0
LINE
8
BLACK
6
CONTINUOUS
10
6.85991
20
-2.74821
11
6.85926
21
-2.73514
0
LINE
8
BLACK
6
CONTINUOUS
10
6.85926
20
-2.73514
11
6.85926
21
-2.73508
0
LINE
8
BLACK
6
CONTINUOUS
10
6.85926
20
-2.73508
11
6.86019
21
-2.72196
0
LINE
8
BLACK
6
CONTINUOUS
10
6.8677
20
-2.75986
11
6.87127
21
-2.7718
0
LINE
8
BLACK
6
CONTINUOUS
10
6.87127
20
-2.7718
11
6.87625
21
-2.78322
0
LINE
8
BLACK
6
CONTINUOUS
10
6.87625
20
-2.78322
11
6.88257
21
-2.79397
0
LINE
8
BLACK
6
CONTINUOUS
10
6.88257
20
-2.79397
11
6.89013
21
-2.80387
0
LINE
8
BLACK
6
CONTINUOUS
10
6.89013
20
-2.80387
11
6.89882
21
-2.8128
0
LINE
8
BLACK
6
CONTINUOUS
10
6.89882
20
-2.8128
11
6.90853
21
-2.82062
0
LINE
8
BLACK
6
CONTINUOUS
10
6.90853
20
-2.82062
11
6.9191
21
-2.82721
0
LINE
8
BLACK
6
CONTINUOUS
10
6.9191
20
-2.82721
11
6.93039
21
-2.83249
0
LINE
8
BLACK
6
CONTINUOUS
10
6.93039
20
-2.83249
11
6.94223
21
-2.83637
0
LINE
8
BLACK
6
CONTINUOUS
10
6.94223
20
-2.83637
11
6.95445
21
-2.8388
0
LINE
8
BLACK
6
CONTINUOUS
10
6.95445
20
-2.8388
11
6.96688
21
-2.83974
0
LINE
8
BLACK
6
CONTINUOUS
10
6.96688
20
-2.83974
11
6.97933
21
-2.83919
0
LINE
8
BLACK
6
CONTINUOUS
10
6.97933
20
-2.83919
11
6.99162
21
-2.83714
0
LINE
8
BLACK
6
CONTINUOUS
10
6.99162
20
-2.83714
11
7.00358
21
-2.83363
0
LINE
8
BLACK
6
CONTINUOUS
10
7.00358
20
-2.83363
11
7.01502
21
-2.82872
0
LINE
8
BLACK
6
CONTINUOUS
10
7.01502
20
-2.82872
11
7.0258
21
-2.82246
0
LINE
8
BLACK
6
CONTINUOUS
10
7.0258
20
-2.82246
11
7.03574
21
-2.81495
0
LINE
8
BLACK
6
CONTINUOUS
10
7.03574
20
-2.81495
11
7.04472
21
-2.8063
0
LINE
8
BLACK
6
CONTINUOUS
10
7.04472
20
-2.8063
11
7.05258
21
-2.79664
0
LINE
8
BLACK
6
CONTINUOUS
10
7.05258
20
-2.79664
11
7.05923
21
-2.7861
0
LINE
8
BLACK
6
CONTINUOUS
10
7.05923
20
-2.7861
11
7.06457
21
-2.77484
0
LINE
8
BLACK
6
CONTINUOUS
10
7.06457
20
-2.77484
11
7.06851
21
-2.76302
0
LINE
8
BLACK
6
CONTINUOUS
10
7.06851
20
-2.76302
11
7.07101
21
-2.75081
0
LINE
8
BLACK
6
CONTINUOUS
10
7.07101
20
-2.75081
11
7.07202
21
-2.73839
0
LINE
8
BLACK
6
CONTINUOUS
10
7.07202
20
-2.73839
11
7.07204
21
-2.73622
0
LINE
8
BLACK
6
CONTINUOUS
10
7.07204
20
-2.73622
11
7.07129
21
-2.72378
0
LINE
8
BLACK
6
CONTINUOUS
10
7.07129
20
-2.72378
11
7.06905
21
-2.71152
0
LINE
8
BLACK
6
CONTINUOUS
10
7.06905
20
-2.71152
11
7.06536
21
-2.69962
0
LINE
8
BLACK
6
CONTINUOUS
10
7.06536
20
-2.69962
11
7.06026
21
-2.68825
0
LINE
8
BLACK
6
CONTINUOUS
10
7.06026
20
-2.68825
11
7.05383
21
-2.67758
0
LINE
8
BLACK
6
CONTINUOUS
10
7.05383
20
-2.67758
11
7.04617
21
-2.66775
0
LINE
8
BLACK
6
CONTINUOUS
10
7.04617
20
-2.66775
11
7.03738
21
-2.65892
0
LINE
8
BLACK
6
CONTINUOUS
10
7.03738
20
-2.65892
11
7.02759
21
-2.6512
0
LINE
8
BLACK
6
CONTINUOUS
10
7.02759
20
-2.6512
11
7.01695
21
-2.64472
0
LINE
8
BLACK
6
CONTINUOUS
10
7.01695
20
-2.64472
11
7.00561
21
-2.63956
0
LINE
8
BLACK
6
CONTINUOUS
10
7.00561
20
-2.63956
11
6.99373
21
-2.6358
0
LINE
8
BLACK
6
CONTINUOUS
10
6.99373
20
-2.6358
11
6.98148
21
-2.6335
0
LINE
8
BLACK
6
CONTINUOUS
10
6.98148
20
-2.6335
11
6.96905
21
-2.63269
0
LINE
8
BLACK
6
CONTINUOUS
10
6.96905
20
-2.63269
11
6.9566
21
-2.63337
0
LINE
8
BLACK
6
CONTINUOUS
10
6.9566
20
-2.63337
11
6.94433
21
-2.63555
0
LINE
8
BLACK
6
CONTINUOUS
10
6.94433
20
-2.63555
11
6.93241
21
-2.63918
0
LINE
8
BLACK
6
CONTINUOUS
10
6.93241
20
-2.63918
11
6.92102
21
-2.64422
0
LINE
8
BLACK
6
CONTINUOUS
10
6.92102
20
-2.64422
11
6.91031
21
-2.65059
0
LINE
8
BLACK
6
CONTINUOUS
10
6.91031
20
-2.65059
11
6.90044
21
-2.6582
0
LINE
8
BLACK
6
CONTINUOUS
10
6.90044
20
-2.6582
11
6.89156
21
-2.66694
0
LINE
8
BLACK
6
CONTINUOUS
10
6.89156
20
-2.66694
11
6.8838
21
-2.67669
0
LINE
8
BLACK
6
CONTINUOUS
10
6.8838
20
-2.67669
11
6.87726
21
-2.68729
0
LINE
8
BLACK
6
CONTINUOUS
10
6.87726
20
-2.68729
11
6.87204
21
-2.69861
0
LINE
8
BLACK
6
CONTINUOUS
10
6.87204
20
-2.69861
11
6.86822
21
-2.71047
0
LINE
8
BLACK
6
CONTINUOUS
10
6.86822
20
-2.71047
11
6.86585
21
-2.72271
0
LINE
8
BLACK
6
CONTINUOUS
10
6.86585
20
-2.72271
11
6.86497
21
-2.73514
0
LINE
8
BLACK
6
CONTINUOUS
10
6.86497
20
-2.73514
11
6.86559
21
-2.74758
0
LINE
8
BLACK
6
CONTINUOUS
10
6.86559
20
-2.74758
11
6.8677
21
-2.75986
  0
ENDSEC
  0
EOF
