  0
SECTION
  2
HEADER
  9
$ANGBASE
  50
0.0
  9
$ANGDIR
  70
1
  9
$MEASUREMENT
  70
0
  0
ENDSEC
  0
SECTION
  2
TABLES
  0
TABLE
  2
LTYPE
  70
4
  0
LTYPE
  5
40F
  2
CONTINUOUS
  70
0
  3
Solid line
  72
65
  73
0
  40
0.0
  0
LTYPE
  5
410
  2
DASHDOT
 70
0
  3
Dash Dot ____ _ ____ _
 72
65
 73
4
 40
2.0
 49
1.25
 49
-0.25
 49
0.25
 49
-0.25
  0
LTYPE
  5
411
  2
DASHED
 70
0
  3
Dashed __ __ __ __ __
 72
65
 73
2
 40
0.75
 49
0.5
 49
-0.25
  0
LTYPE
  5
43B
  2
DOTTED
 70
0
  3
Dotted .  .  .  .
 72
65
 73
2
 40
0.2
 49
0.0
 49
-0.2
  0
ENDTAB
  0
TABLE
  2
STYLE
  70
4
  0
STYLE
  2
KICAD
  70
0
  40
0
  41
1
  42
1
  50
0
  71
0
  3
isocp.shx
  0
STYLE
  2
KICADB
  70
0
  40
0
  41
1
  42
1
  50
0
  71
0
  3
isocp.shx
  0
STYLE
  2
KICADI
  70
0
  40
0
  41
1
  42
1
  50
15
  71
0
  3
isocp.shx
  0
STYLE
  2
KICADBI
  70
0
  40
0
  41
1
  42
1
  50
15
  71
0
  3
isocp.shx
  0
ENDTAB
  0
TABLE
  2
LAYER
  70
1
  0
LAYER
  2
BLACK
  70
0
  62
7
  6
CONTINUOUS
  0
ENDTAB
  0
ENDSEC
  0
SECTION
  2
ENTITIES
0
LINE
8
BLACK
6
CONTINUOUS
10
4.7309622047244098
20
-2.4844326377952757
11
4.7321914173228343
21
-2.4860353543307085
0
LINE
8
BLACK
6
CONTINUOUS
10
4.7321914173228343
20
-2.4860353543307085
11
4.7321027559055118
21
-2.4880531889763779
0
LINE
8
BLACK
6
CONTINUOUS
10
4.7321027559055118
20
-2.4880531889763779
11
4.7307378740157482
21
-2.4895420078740158
0
LINE
8
BLACK
6
CONTINUOUS
10
4.7307378740157482
20
-2.4895420078740158
11
4.6970864173228346
21
-2.5070492125984249
0
LINE
8
BLACK
6
CONTINUOUS
10
4.6970864173228346
20
-2.5070492125984249
11
7.1533069685039372
21
-2.507657440944882
0
LINE
8
BLACK
6
CONTINUOUS
10
7.1533069685039372
20
-2.507657440944882
11
7.1196642125984253
21
-2.4901335433070866
0
LINE
8
BLACK
6
CONTINUOUS
10
7.1196642125984253
20
-2.4901335433070866
11
7.1188507874015743
21
-2.48950905511811
0
LINE
8
BLACK
6
CONTINUOUS
10
7.1188507874015743
20
-2.48950905511811
11
7.1180783070866136
21
-2.4876428346456692
0
LINE
8
BLACK
6
CONTINUOUS
10
7.1180783070866136
20
-2.4876428346456692
11
7.1186861811023618
21
-2.4857166535433071
0
LINE
8
BLACK
6
CONTINUOUS
10
7.1186861811023618
20
-2.4857166535433071
11
7.120389921259842
21
-2.4846318503937006
0
LINE
8
BLACK
6
CONTINUOUS
10
7.120389921259842
20
-2.4846318503937006
11
7.1223924015748032
21
-2.4848959842519682
0
LINE
8
BLACK
6
CONTINUOUS
10
7.1223924015748032
20
-2.4848959842519682
11
7.1624215748031492
21
-2.5057464566929135
0
LINE
8
BLACK
6
CONTINUOUS
10
7.1624215748031492
20
-2.5057464566929135
11
7.1624261023622049
21
-2.4875250787401573
0
LINE
8
BLACK
6
CONTINUOUS
10
7.1624261023622049
20
-2.4875250787401573
11
7.1626044094488188
21
-2.4865151968503936
0
LINE
8
BLACK
6
CONTINUOUS
10
7.1626044094488188
20
-2.4865151968503936
11
7.1639031102362205
21
-2.4849682677165355
0
LINE
8
BLACK
6
CONTINUOUS
10
7.1639031102362205
20
-2.4849682677165355
11
7.1658923228346456
21
-2.4846179921259841
0
LINE
8
BLACK
6
CONTINUOUS
10
7.1658923228346456
20
-2.4846179921259841
11
7.1676412598425197
21
-2.4856283464566928
0
LINE
8
BLACK
6
CONTINUOUS
10
7.1676412598425197
20
-2.4856283464566928
11
7.1683316141732281
21
-2.4875265354330707
0
LINE
8
BLACK
6
CONTINUOUS
10
7.1683316141732281
20
-2.4875265354330707
11
7.1683070866141732
21
-2.5866149212598426
0
LINE
8
BLACK
6
CONTINUOUS
10
7.1683070866141732
20
-2.5866149212598426
11
7.1681287795275592
21
-2.5876247637795275
0
LINE
8
BLACK
6
CONTINUOUS
10
7.1681287795275592
20
-2.5876247637795275
11
7.1668300787401575
21
-2.5891716929133857
0
LINE
8
BLACK
6
CONTINUOUS
10
7.1668300787401575
20
-2.5891716929133857
11
7.1648408661417324
21
-2.589521968503937
0
LINE
8
BLACK
6
CONTINUOUS
10
7.1648408661417324
20
-2.589521968503937
11
7.1630919291338584
21
-2.5885116141732283
0
LINE
8
BLACK
6
CONTINUOUS
10
7.1630919291338584
20
-2.5885116141732283
11
7.1624015748031491
21
-2.5866134251968504
0
LINE
8
BLACK
6
CONTINUOUS
10
7.1624015748031491
20
-2.5866134251968504
11
7.1624191732283462
21
-2.5154784251968505
0
LINE
8
BLACK
6
CONTINUOUS
10
7.1624191732283462
20
-2.5154784251968505
11
7.1223796850393697
21
-2.536309094488189
0
LINE
8
BLACK
6
CONTINUOUS
10
7.1223796850393697
20
-2.536309094488189
11
7.1214015748031496
21
-2.5366172440944883
0
LINE
8
BLACK
6
CONTINUOUS
10
7.1214015748031496
20
-2.5366172440944883
11
7.119429763779527
21
-2.5361795669291336
0
LINE
8
BLACK
6
CONTINUOUS
10
7.119429763779527
20
-2.5361795669291336
11
7.1182005511811024
21
-2.5345768503937007
0
LINE
8
BLACK
6
CONTINUOUS
10
7.1182005511811024
20
-2.5345768503937007
11
7.1182891732283462
21
-2.5325590157480313
0
LINE
8
BLACK
6
CONTINUOUS
10
7.1182891732283462
20
-2.5325590157480313
11
7.1196540944881885
21
-2.5310701968503935
0
LINE
8
BLACK
6
CONTINUOUS
10
7.1196540944881885
20
-2.5310701968503935
11
7.1533055118110234
21
-2.5135629527559056
0
LINE
8
BLACK
6
CONTINUOUS
10
7.1533055118110234
20
-2.5135629527559056
11
4.6970849999999995
21
-2.5129547244094486
0
LINE
8
BLACK
6
CONTINUOUS
10
4.6970849999999995
20
-2.5129547244094486
11
4.7307277559055114
21
-2.5304786614173227
0
LINE
8
BLACK
6
CONTINUOUS
10
4.7307277559055114
20
-2.5304786614173227
11
4.7315411811023624
21
-2.5311031496062992
0
LINE
8
BLACK
6
CONTINUOUS
10
4.7315411811023624
20
-2.5311031496062992
11
4.7323136614173231
21
-2.5329693700787401
0
LINE
8
BLACK
6
CONTINUOUS
10
4.7323136614173231
20
-2.5329693700787401
11
4.7317058267716536
21
-2.534895590551181
0
LINE
8
BLACK
6
CONTINUOUS
10
4.7317058267716536
20
-2.534895590551181
11
4.7300020472440947
21
-2.5359803543307087
0
LINE
8
BLACK
6
CONTINUOUS
10
4.7300020472440947
20
-2.5359803543307087
11
4.7279996062992122
21
-2.5357162204724411
0
LINE
8
BLACK
6
CONTINUOUS
10
4.7279996062992122
20
-2.5357162204724411
11
4.6879703543307087
21
-2.5148657086614175
0
LINE
8
BLACK
6
CONTINUOUS
10
4.6879703543307087
20
-2.5148657086614175
11
4.6879527559055116
21
-2.5860007480314962
0
LINE
8
BLACK
6
CONTINUOUS
10
4.6879527559055116
20
-2.5860007480314962
11
4.6878851181102359
21
-2.5863835826771653
0
LINE
8
BLACK
6
CONTINUOUS
10
4.6878851181102359
20
-2.5863835826771653
11
4.6879079133858266
21
-2.5865126771653544
0
LINE
8
BLACK
6
CONTINUOUS
10
4.6879079133858266
20
-2.5865126771653544
11
4.6878422834645672
21
-2.5866262992125986
0
LINE
8
BLACK
6
CONTINUOUS
10
4.6878422834645672
20
-2.5866262992125986
11
4.6877744488188977
21
-2.5870105905511811
0
LINE
8
BLACK
6
CONTINUOUS
10
4.6877744488188977
20
-2.5870105905511811
11
4.6872814173228345
21
-2.5875977952755904
0
LINE
8
BLACK
6
CONTINUOUS
10
4.6872814173228345
20
-2.5875977952755904
11
4.6868980708661416
21
-2.5882618897637797
0
LINE
8
BLACK
6
CONTINUOUS
10
4.6868980708661416
20
-2.5882618897637797
11
4.6866472834645672
21
-2.588353149606299
0
LINE
8
BLACK
6
CONTINUOUS
10
4.6866472834645672
20
-2.588353149606299
11
4.686475748031496
21
-2.5885575196850392
0
LINE
8
BLACK
6
CONTINUOUS
10
4.686475748031496
20
-2.5885575196850392
11
4.6857205511811024
21
-2.5886904724409447
0
LINE
8
BLACK
6
CONTINUOUS
10
4.6857205511811024
20
-2.5886904724409447
11
4.6850000787401571
21
-2.5889527559055119
0
LINE
8
BLACK
6
CONTINUOUS
10
4.6850000787401571
20
-2.5889527559055119
11
4.5698261417322836
21
-2.5889559842519683
0
LINE
8
BLACK
6
CONTINUOUS
10
4.5698261417322836
20
-2.5889559842519683
11
4.5906678346456689
21
-2.6289897637795274
0
LINE
8
BLACK
6
CONTINUOUS
10
4.5906678346456689
20
-2.6289897637795274
11
4.5909762598425194
21
-2.6299677952755904
0
LINE
8
BLACK
6
CONTINUOUS
10
4.5909762598425194
20
-2.6299677952755904
11
4.5905391338582673
21
-2.6319397244094489
0
LINE
8
BLACK
6
CONTINUOUS
10
4.5905391338582673
20
-2.6319397244094489
11
4.5889367322834644
21
-2.6331693700787402
0
LINE
8
BLACK
6
CONTINUOUS
10
4.5889367322834644
20
-2.6331693700787402
11
4.5869188582677163
21
-2.6330812992125985
0
LINE
8
BLACK
6
CONTINUOUS
10
4.5869188582677163
20
-2.6330812992125985
11
4.5854296456692909
21
-2.6317167716535432
0
LINE
8
BLACK
6
CONTINUOUS
10
4.5854296456692909
20
-2.6317167716535432
11
4.5679131496062988
21
-2.5980701968503936
0
LINE
8
BLACK
6
CONTINUOUS
10
4.5679131496062988
20
-2.5980701968503936
11
4.5679518503937011
21
-3.9761253543307085
0
LINE
8
BLACK
6
CONTINUOUS
10
4.5679518503937011
20
-3.9761253543307085
11
4.5854664566929131
21
-3.9424778346456693
0
LINE
8
BLACK
6
CONTINUOUS
10
4.5854664566929131
20
-3.9424778346456693
11
4.5860907086614171
21
-3.9416642125984249
0
LINE
8
BLACK
6
CONTINUOUS
10
4.5860907086614171
20
-3.9416642125984249
11
4.587956771653543
21
-3.9408912204724409
0
LINE
8
BLACK
6
CONTINUOUS
10
4.587956771653543
20
-3.9408912204724409
11
4.5898831102362205
21
-3.9414985433070866
0
LINE
8
BLACK
6
CONTINUOUS
10
4.5898831102362205
20
-3.9414985433070866
11
4.5909683858267716
21
-3.9432020078740155
0
LINE
8
BLACK
6
CONTINUOUS
10
4.5909683858267716
20
-3.9432020078740155
11
4.5907048031496061
21
-3.945204527559055
0
LINE
8
BLACK
6
CONTINUOUS
10
4.5907048031496061
20
-3.945204527559055
11
4.5698653543307088
21
-3.9852394488188976
0
LINE
8
BLACK
6
CONTINUOUS
10
4.5698653543307088
20
-3.9852394488188976
11
4.6850392913385823
21
-3.9852362204724407
0
LINE
8
BLACK
6
CONTINUOUS
10
4.6850392913385823
20
-3.9852362204724407
11
4.6860492125984248
21
-3.9854142519685039
0
LINE
8
BLACK
6
CONTINUOUS
10
4.6860492125984248
20
-3.9854142519685039
11
4.6875964960629917
21
-3.9867125196850393
0
LINE
8
BLACK
6
CONTINUOUS
10
4.6875964960629917
20
-3.9867125196850393
11
4.6879472834645668
21
-3.9887016535433069
0
LINE
8
BLACK
6
CONTINUOUS
10
4.6879472834645668
20
-3.9887016535433069
11
4.6869374409448818
21
-3.9904508661417322
0
LINE
8
BLACK
6
CONTINUOUS
10
4.6869374409448818
20
-3.9904508661417322
11
4.6850394488188973
21
-3.9911417322834644
0
LINE
8
BLACK
6
CONTINUOUS
10
4.6850394488188973
20
-3.9911417322834644
11
4.5419121259842514
21
-3.9911457480314958
0
LINE
8
BLACK
6
CONTINUOUS
10
4.5419121259842514
20
-3.9911457480314958
11
4.540902204724409
21
-3.9909677165354331
0
LINE
8
BLACK
6
CONTINUOUS
10
4.540902204724409
20
-3.9909677165354331
11
4.5393549212598421
21
-3.9896694488188977
0
LINE
8
BLACK
6
CONTINUOUS
10
4.5393549212598421
20
-3.9896694488188977
11
4.5390041338582678
21
-3.9876803149606297
0
LINE
8
BLACK
6
CONTINUOUS
10
4.5390041338582678
20
-3.9876803149606297
11
4.5400139763779528
21
-3.9859311023622048
0
LINE
8
BLACK
6
CONTINUOUS
10
4.5400139763779528
20
-3.9859311023622048
11
4.5419119685039373
21
-3.9852402362204722
0
LINE
8
BLACK
6
CONTINUOUS
10
4.5419119685039373
20
-3.9852402362204722
11
4.5601333464566931
21
-3.9852397244094488
0
LINE
8
BLACK
6
CONTINUOUS
10
4.5601333464566931
20
-3.9852397244094488
11
4.5392916929133857
21
-3.9452059842519684
0
LINE
8
BLACK
6
CONTINUOUS
10
4.5392916929133857
20
-3.9452059842519684
11
4.5389833070866139
21
-3.9442279527559054
0
LINE
8
BLACK
6
CONTINUOUS
10
4.5389833070866139
20
-3.9442279527559054
11
4.5394203937007873
21
-3.942256023622047
0
LINE
8
BLACK
6
CONTINUOUS
10
4.5394203937007873
20
-3.942256023622047
11
4.5410227952755902
21
-3.9410263779527557
0
LINE
8
BLACK
6
CONTINUOUS
10
4.5410227952755902
20
-3.9410263779527557
11
4.5430406692913383
21
-3.9411144488188974
0
LINE
8
BLACK
6
CONTINUOUS
10
4.5430406692913383
20
-3.9411144488188974
11
4.5445298818897637
21
-3.9424789763779526
0
LINE
8
BLACK
6
CONTINUOUS
10
4.5445298818897637
20
-3.9424789763779526
11
4.5620463385826771
21
-3.9761255118110235
0
LINE
8
BLACK
6
CONTINUOUS
10
4.5620463385826771
20
-3.9761255118110235
11
4.5620076377952756
21
-2.5980703543307087
0
LINE
8
BLACK
6
CONTINUOUS
10
4.5620076377952756
20
-2.5980703543307087
11
4.5444930708661415
21
-2.6317179133858266
0
LINE
8
BLACK
6
CONTINUOUS
10
4.5444930708661415
20
-2.6317179133858266
11
4.5438688188976375
21
-2.6325315354330709
0
LINE
8
BLACK
6
CONTINUOUS
10
4.5438688188976375
20
-2.6325315354330709
11
4.5420027952755904
21
-2.633304527559055
0
LINE
8
BLACK
6
CONTINUOUS
10
4.5420027952755904
20
-2.633304527559055
11
4.540076417322835
21
-2.6326972047244093
0
LINE
8
BLACK
6
CONTINUOUS
10
4.540076417322835
20
-2.6326972047244093
11
4.5389911811023618
21
-2.6309937401574803
0
LINE
8
BLACK
6
CONTINUOUS
10
4.5389911811023618
20
-2.6309937401574803
11
4.5392547244094485
21
-2.6289912204724408
0
LINE
8
BLACK
6
CONTINUOUS
10
4.5392547244094485
20
-2.6289912204724408
11
4.5600941732283466
21
-2.5889562598425195
0
LINE
8
BLACK
6
CONTINUOUS
10
4.5600941732283466
20
-2.5889562598425195
11
4.5418727559055121
21
-2.5889567716535433
0
LINE
8
BLACK
6
CONTINUOUS
10
4.5418727559055121
20
-2.5889567716535433
11
4.5408628346456688
21
-2.5887787401574802
0
LINE
8
BLACK
6
CONTINUOUS
10
4.5408628346456688
20
-2.5887787401574802
11
4.5393155511811019
21
-2.5874804724409448
0
LINE
8
BLACK
6
CONTINUOUS
10
4.5393155511811019
20
-2.5874804724409448
11
4.5389647637795276
21
-2.5854913385826772
0
LINE
8
BLACK
6
CONTINUOUS
10
4.5389647637795276
20
-2.5854913385826772
11
4.5399746062992126
21
-2.5837421259842519
0
LINE
8
BLACK
6
CONTINUOUS
10
4.5399746062992126
20
-2.5837421259842519
11
4.5418725984251971
21
-2.5830512598425197
0
LINE
8
BLACK
6
CONTINUOUS
10
4.5418725984251971
20
-2.5830512598425197
11
4.6820479527559051
21
-2.5830473228346458
0
LINE
8
BLACK
6
CONTINUOUS
10
4.6820479527559051
20
-2.5830473228346458
11
4.6820717716535434
21
-2.4869109055118108
0
LINE
8
BLACK
6
CONTINUOUS
10
4.6820717716535434
20
-2.4869109055118108
11
4.6822500787401573
21
-2.4859010236220471
0
LINE
8
BLACK
6
CONTINUOUS
10
4.6822500787401573
20
-2.4859010236220471
11
4.683548779527559
21
-2.484354094488189
0
LINE
8
BLACK
6
CONTINUOUS
10
4.683548779527559
20
-2.484354094488189
11
4.6855379921259841
21
-2.4840038188976377
0
LINE
8
BLACK
6
CONTINUOUS
10
4.6855379921259841
20
-2.4840038188976377
11
4.6872869291338581
21
-2.4850141732283464
0
LINE
8
BLACK
6
CONTINUOUS
10
4.6872869291338581
20
-2.4850141732283464
11
4.6879772834645665
21
-2.4869123622047242
0
LINE
8
BLACK
6
CONTINUOUS
10
4.6879772834645665
20
-2.4869123622047242
11
4.6879727559055118
21
-2.5051337401574805
0
LINE
8
BLACK
6
CONTINUOUS
10
4.6879727559055118
20
-2.5051337401574805
11
4.728012283464567
21
-2.4843031102362203
0
LINE
8
BLACK
6
CONTINUOUS
10
4.728012283464567
20
-2.4843031102362203
11
4.7289903937007871
21
-2.4839949606299214
0
LINE
8
BLACK
6
CONTINUOUS
10
4.7289903937007871
20
-2.4839949606299214
11
4.7309622047244098
21
-2.4844326377952757
0
LINE
8
BLACK
6
CONTINUOUS
10
4.6196097244094485
20
-3.4305533858267716
11
4.6211570078740154
21
-3.431851653543307
0
LINE
8
BLACK
6
CONTINUOUS
10
4.6211570078740154
20
-3.431851653543307
11
4.6215077952755905
21
-3.4338407874015746
0
LINE
8
BLACK
6
CONTINUOUS
10
4.6215077952755905
20
-3.4338407874015746
11
4.6204979527559056
21
-3.4355899999999999
0
LINE
8
BLACK
6
CONTINUOUS
10
4.6204979527559056
20
-3.4355899999999999
11
4.6202628346456693
21
-3.4356755511811023
0
LINE
8
BLACK
6
CONTINUOUS
10
4.6202628346456693
20
-3.4356755511811023
11
4.6212410236220469
21
-3.4376318110236221
0
LINE
8
BLACK
6
CONTINUOUS
10
4.6212410236220469
20
-3.4376318110236221
11
4.6215334251968505
21
-3.4386147637795275
0
LINE
8
BLACK
6
CONTINUOUS
10
4.6215334251968505
20
-3.4386147637795275
11
4.6214924015748027
21
-3.4387864173228344
0
LINE
8
BLACK
6
CONTINUOUS
10
4.6214924015748027
20
-3.4387864173228344
11
4.6215527952755906
21
-3.4389523228346457
0
LINE
8
BLACK
6
CONTINUOUS
10
4.6215527952755906
20
-3.4389523228346457
11
4.6215529527559056
21
-3.4445766141732284
0
LINE
8
BLACK
6
CONTINUOUS
10
4.6215529527559056
20
-3.4445766141732284
11
4.6213749212598421
21
-3.4455865354330708
0
LINE
8
BLACK
6
CONTINUOUS
10
4.6213749212598421
20
-3.4455865354330708
11
4.6212614173228346
21
-3.4457217716535431
0
LINE
8
BLACK
6
CONTINUOUS
10
4.6212614173228346
20
-3.4457217716535431
11
4.6212412598425194
21
-3.4458971259842519
0
LINE
8
BLACK
6
CONTINUOUS
10
4.6212412598425194
20
-3.4458971259842519
11
4.6193666141732281
21
-3.4496467322834645
0
LINE
8
BLACK
6
CONTINUOUS
10
4.6193666141732281
20
-3.4496467322834645
11
4.618943897637795
21
-3.4502166141732284
0
LINE
8
BLACK
6
CONTINUOUS
10
4.618943897637795
20
-3.4502166141732284
11
4.6190456299212599
21
-3.4504512992125984
0
LINE
8
BLACK
6
CONTINUOUS
10
4.6190456299212599
20
-3.4504512992125984
11
4.6193666535433069
21
-3.4507552362204725
0
LINE
8
BLACK
6
CONTINUOUS
10
4.6193666535433069
20
-3.4507552362204725
11
4.6212414960629919
21
-3.4545046850393701
0
LINE
8
BLACK
6
CONTINUOUS
10
4.6212414960629919
20
-3.4545046850393701
11
4.6215338976377955
21
-3.4554875984251967
0
LINE
8
BLACK
6
CONTINUOUS
10
4.6215338976377955
20
-3.4554875984251967
11
4.6214928740157477
21
-3.4556592913385824
0
LINE
8
BLACK
6
CONTINUOUS
10
4.6214928740157477
20
-3.4556592913385824
11
4.6215532677165356
21
-3.4558251968503937
0
LINE
8
BLACK
6
CONTINUOUS
10
4.6215532677165356
20
-3.4558251968503937
11
4.6215534251968506
21
-3.4614495275590551
0
LINE
8
BLACK
6
CONTINUOUS
10
4.6215534251968506
20
-3.4614495275590551
11
4.6213753937007871
21
-3.4624594488188976
0
LINE
8
BLACK
6
CONTINUOUS
10
4.6213753937007871
20
-3.4624594488188976
11
4.6212618897637796
21
-3.4625946850393698
0
LINE
8
BLACK
6
CONTINUOUS
10
4.6212618897637796
20
-3.4625946850393698
11
4.6212417322834645
21
-3.4627700393700787
0
LINE
8
BLACK
6
CONTINUOUS
10
4.6212417322834645
20
-3.4627700393700787
11
4.6193670866141732
21
-3.4665196062992125
0
LINE
8
BLACK
6
CONTINUOUS
10
4.6193670866141732
20
-3.4665196062992125
11
4.6187561811023619
21
-3.467343307086614
0
LINE
8
BLACK
6
CONTINUOUS
10
4.6187561811023619
20
-3.467343307086614
11
4.6183505118110233
21
-3.4675191338582678
0
LINE
8
BLACK
6
CONTINUOUS
10
4.6183505118110233
20
-3.4675191338582678
11
4.6180466141732284
21
-3.4678401574803148
0
LINE
8
BLACK
6
CONTINUOUS
10
4.6180466141732284
20
-3.4678401574803148
11
4.614297125984252
21
-3.4697150393700786
0
LINE
8
BLACK
6
CONTINUOUS
10
4.614297125984252
20
-3.4697150393700786
11
4.613314212598425
21
-3.4700074409448818
0
LINE
8
BLACK
6
CONTINUOUS
10
4.613314212598425
20
-3.4700074409448818
11
4.6131424803149601
21
-3.4699664173228344
0
LINE
8
BLACK
6
CONTINUOUS
10
4.6131424803149601
20
-3.4699664173228344
11
4.6129766141732285
21
-3.4700268110236219
0
LINE
8
BLACK
6
CONTINUOUS
10
4.6129766141732285
20
-3.4700268110236219
11
4.5923542125984254
21
-3.4700273622047244
0
LINE
8
BLACK
6
CONTINUOUS
10
4.5923542125984254
20
-3.4700273622047244
11
4.5913442913385829
21
-3.4698493307086613
0
LINE
8
BLACK
6
CONTINUOUS
10
4.5913442913385829
20
-3.4698493307086613
11
4.589797007874016
21
-3.4685510629921259
0
LINE
8
BLACK
6
CONTINUOUS
10
4.589797007874016
20
-3.4685510629921259
11
4.5894462204724409
21
-3.4665619291338583
0
LINE
8
BLACK
6
CONTINUOUS
10
4.5894462204724409
20
-3.4665619291338583
11
4.5904560629921258
21
-3.464812716535433
0
LINE
8
BLACK
6
CONTINUOUS
10
4.5904560629921258
20
-3.464812716535433
11
4.5923540551181103
21
-3.4641218503937008
0
LINE
8
BLACK
6
CONTINUOUS
10
4.5923540551181103
20
-3.4641218503937008
11
4.6122793700787401
21
-3.4641212992125983
0
LINE
8
BLACK
6
CONTINUOUS
10
4.6122793700787401
20
-3.4641212992125983
11
4.614525078740157
21
-3.4629983464566929
0
LINE
8
BLACK
6
CONTINUOUS
10
4.614525078740157
20
-3.4629983464566929
11
4.6156478740157478
21
-3.4607526377952755
0
LINE
8
BLACK
6
CONTINUOUS
10
4.6156478740157478
20
-3.4607526377952755
11
4.6156477559055116
21
-3.4565223622047245
0
LINE
8
BLACK
6
CONTINUOUS
10
4.6156477559055116
20
-3.4565223622047245
11
4.6145248818897633
21
-3.4542767322834647
0
LINE
8
BLACK
6
CONTINUOUS
10
4.6145248818897633
20
-3.4542767322834647
11
4.6122790551181101
21
-3.4531538976377951
0
LINE
8
BLACK
6
CONTINUOUS
10
4.6122790551181101
20
-3.4531538976377951
11
4.5923537401574803
21
-3.4531544881889764
0
LINE
8
BLACK
6
CONTINUOUS
10
4.5923537401574803
20
-3.4531544881889764
11
4.5913438188976379
21
-3.4529764566929133
0
LINE
8
BLACK
6
CONTINUOUS
10
4.5913438188976379
20
-3.4529764566929133
11
4.589796535433071
21
-3.4516781889763779
0
LINE
8
BLACK
6
CONTINUOUS
10
4.589796535433071
20
-3.4516781889763779
11
4.5894457480314959
21
-3.4496890551181103
0
LINE
8
BLACK
6
CONTINUOUS
10
4.5894457480314959
20
-3.4496890551181103
11
4.5904555905511808
21
-3.447939842519685
0
LINE
8
BLACK
6
CONTINUOUS
10
4.5904555905511808
20
-3.447939842519685
11
4.5923535826771653
21
-3.4472489763779528
0
LINE
8
BLACK
6
CONTINUOUS
10
4.5923535826771653
20
-3.4472489763779528
11
4.6122789370078738
21
-3.4472483858267715
0
LINE
8
BLACK
6
CONTINUOUS
10
4.6122789370078738
20
-3.4472483858267715
11
4.6145246062992129
21
-3.4461254724409449
0
LINE
8
BLACK
6
CONTINUOUS
10
4.6145246062992129
20
-3.4461254724409449
11
4.6156474015748028
21
-3.4438797244094488
0
LINE
8
BLACK
6
CONTINUOUS
10
4.6156474015748028
20
-3.4438797244094488
11
4.6156472834645665
21
-3.4396494488188978
0
LINE
8
BLACK
6
CONTINUOUS
10
4.6156472834645665
20
-3.4396494488188978
11
4.6142985433070862
21
-3.436952086614173
0
LINE
8
BLACK
6
CONTINUOUS
10
4.6142985433070862
20
-3.436952086614173
11
4.6136273622047241
21
-3.4362809842519684
0
LINE
8
BLACK
6
CONTINUOUS
10
4.6136273622047241
20
-3.4362809842519684
11
4.5923532677165353
21
-3.4362816141732284
0
LINE
8
BLACK
6
CONTINUOUS
10
4.5923532677165353
20
-3.4362816141732284
11
4.5913433464566928
21
-3.4361035826771653
0
LINE
8
BLACK
6
CONTINUOUS
10
4.5913433464566928
20
-3.4361035826771653
11
4.5897960629921259
21
-3.4348053149606299
0
LINE
8
BLACK
6
CONTINUOUS
10
4.5897960629921259
20
-3.4348053149606299
11
4.5894452755905508
21
-3.4328161811023623
0
LINE
8
BLACK
6
CONTINUOUS
10
4.5894452755905508
20
-3.4328161811023623
11
4.5904551181102358
21
-3.431066968503937
0
LINE
8
BLACK
6
CONTINUOUS
10
4.5904551181102358
20
-3.431066968503937
11
4.5923531102362203
21
-3.4303761023622048
0
LINE
8
BLACK
6
CONTINUOUS
10
4.5923531102362203
20
-3.4303761023622048
11
4.6185998031496061
21
-3.4303753543307085
0
LINE
8
BLACK
6
CONTINUOUS
10
4.6185998031496061
20
-3.4303753543307085
11
4.6196097244094485
21
-3.4305533858267716
0
LINE
8
BLACK
6
CONTINUOUS
10
4.6196082677165355
20
-3.3780599606299213
11
4.6211555511811024
21
-3.3793582283464567
0
LINE
8
BLACK
6
CONTINUOUS
10
4.6211555511811024
20
-3.3793582283464567
11
4.6215063385826767
21
-3.3813473622047243
0
LINE
8
BLACK
6
CONTINUOUS
10
4.6215063385826767
20
-3.3813473622047243
11
4.6204964960629917
21
-3.3830965748031496
0
LINE
8
BLACK
6
CONTINUOUS
10
4.6204964960629917
20
-3.3830965748031496
11
4.6202613779527555
21
-3.3831821259842521
0
LINE
8
BLACK
6
CONTINUOUS
10
4.6202613779527555
20
-3.3831821259842521
11
4.621239566929134
21
-3.3851383858267714
0
LINE
8
BLACK
6
CONTINUOUS
10
4.621239566929134
20
-3.3851383858267714
11
4.6215319685039367
21
-3.3861213385826772
0
LINE
8
BLACK
6
CONTINUOUS
10
4.6215319685039367
20
-3.3861213385826772
11
4.6214909448818897
21
-3.3862929921259841
0
LINE
8
BLACK
6
CONTINUOUS
10
4.6214909448818897
20
-3.3862929921259841
11
4.6215513385826767
21
-3.3864588976377954
0
LINE
8
BLACK
6
CONTINUOUS
10
4.6215513385826767
20
-3.3864588976377954
11
4.6215514960629918
21
-3.3920831889763781
0
LINE
8
BLACK
6
CONTINUOUS
10
4.6215514960629918
20
-3.3920831889763781
11
4.6213734645669291
21
-3.3930931102362205
0
LINE
8
BLACK
6
CONTINUOUS
10
4.6213734645669291
20
-3.3930931102362205
11
4.6212599606299207
21
-3.3932283464566928
0
LINE
8
BLACK
6
CONTINUOUS
10
4.6212599606299207
20
-3.3932283464566928
11
4.6212398031496065
21
-3.3934037007874016
0
LINE
8
BLACK
6
CONTINUOUS
10
4.6212398031496065
20
-3.3934037007874016
11
4.6193651574803152
21
-3.3971533070866142
0
LINE
8
BLACK
6
CONTINUOUS
10
4.6193651574803152
20
-3.3971533070866142
11
4.6189424015748033
21
-3.3977232283464565
0
LINE
8
BLACK
6
CONTINUOUS
10
4.6189424015748033
20
-3.3977232283464565
11
4.6190441338582673
21
-3.3979578740157481
0
LINE
8
BLACK
6
CONTINUOUS
10
4.6190441338582673
20
-3.3979578740157481
11
4.6193651574803152
21
-3.3982618110236218
0
LINE
8
BLACK
6
CONTINUOUS
10
4.6193651574803152
20
-3.3982618110236218
11
4.621240039370079
21
-3.4020112598425194
0
LINE
8
BLACK
6
CONTINUOUS
10
4.621240039370079
20
-3.4020112598425194
11
4.6215324409448817
21
-3.4029941732283464
0
LINE
8
BLACK
6
CONTINUOUS
10
4.6215324409448817
20
-3.4029941732283464
11
4.6214914173228347
21
-3.4031658661417321
0
LINE
8
BLACK
6
CONTINUOUS
10
4.6214914173228347
20
-3.4031658661417321
11
4.6215518110236218
21
-3.4033317716535434
0
LINE
8
BLACK
6
CONTINUOUS
10
4.6215518110236218
20
-3.4033317716535434
11
4.6215519685039368
21
-3.4089561023622048
0
LINE
8
BLACK
6
CONTINUOUS
10
4.6215519685039368
20
-3.4089561023622048
11
4.6213739370078741
21
-3.4099660236220473
0
LINE
8
BLACK
6
CONTINUOUS
10
4.6213739370078741
20
-3.4099660236220473
11
4.6212604330708658
21
-3.4101012598425195
0
LINE
8
BLACK
6
CONTINUOUS
10
4.6212604330708658
20
-3.4101012598425195
11
4.6212402755905515
21
-3.4102766141732284
0
LINE
8
BLACK
6
CONTINUOUS
10
4.6212402755905515
20
-3.4102766141732284
11
4.6193656299212593
21
-3.4140261811023622
0
LINE
8
BLACK
6
CONTINUOUS
10
4.6193656299212593
20
-3.4140261811023622
11
4.6187547244094489
21
-3.4148498818897637
0
LINE
8
BLACK
6
CONTINUOUS
10
4.6187547244094489
20
-3.4148498818897637
11
4.6183490551181103
21
-3.4150257086614171
0
LINE
8
BLACK
6
CONTINUOUS
10
4.6183490551181103
20
-3.4150257086614171
11
4.6180451574803145
21
-3.4153467322834645
0
LINE
8
BLACK
6
CONTINUOUS
10
4.6180451574803145
20
-3.4153467322834645
11
4.6142956692913382
21
-3.4172216141732283
0
LINE
8
BLACK
6
CONTINUOUS
10
4.6142956692913382
20
-3.4172216141732283
11
4.613312755905512
21
-3.4175140157480315
0
LINE
8
BLACK
6
CONTINUOUS
10
4.613312755905512
20
-3.4175140157480315
11
4.6131410236220471
21
-3.4174729921259841
0
LINE
8
BLACK
6
CONTINUOUS
10
4.6131410236220471
20
-3.4174729921259841
11
4.6129751574803146
21
-3.4175333858267716
0
LINE
8
BLACK
6
CONTINUOUS
10
4.6129751574803146
20
-3.4175333858267716
11
4.5923527165354328
21
-3.4175339370078741
0
LINE
8
BLACK
6
CONTINUOUS
10
4.5923527165354328
20
-3.4175339370078741
11
4.5913427952755903
21
-3.417355905511811
0
LINE
8
BLACK
6
CONTINUOUS
10
4.5913427952755903
20
-3.417355905511811
11
4.5897955118110234
21
-3.4160576377952756
0
LINE
8
BLACK
6
CONTINUOUS
10
4.5897955118110234
20
-3.4160576377952756
11
4.5894447244094483
21
-3.414068503937008
0
LINE
8
BLACK
6
CONTINUOUS
10
4.5894447244094483
20
-3.414068503937008
11
4.5904545669291341
21
-3.4123192913385827
0
LINE
8
BLACK
6
CONTINUOUS
10
4.5904545669291341
20
-3.4123192913385827
11
4.5923525590551177
21
-3.4116284251968505
0
LINE
8
BLACK
6
CONTINUOUS
10
4.5923525590551177
20
-3.4116284251968505
11
4.6122779133858263
21
-3.411627874015748
0
LINE
8
BLACK
6
CONTINUOUS
10
4.6122779133858263
20
-3.411627874015748
11
4.6145236220472441
21
-3.4105049212598426
0
LINE
8
BLACK
6
CONTINUOUS
10
4.6145236220472441
20
-3.4105049212598426
11
4.6156464173228349
21
-3.4082592125984252
0
LINE
8
BLACK
6
CONTINUOUS
10
4.6156464173228349
20
-3.4082592125984252
11
4.6156462992125986
21
-3.4040289763779525
0
LINE
8
BLACK
6
CONTINUOUS
10
4.6156462992125986
20
-3.4040289763779525
11
4.6145233858267716
21
-3.4017833070866139
0
LINE
8
BLACK
6
CONTINUOUS
10
4.6145233858267716
20
-3.4017833070866139
11
4.6122775590551184
21
-3.4006604724409448
0
LINE
8
BLACK
6
CONTINUOUS
10
4.6122775590551184
20
-3.4006604724409448
11
4.5923522440944877
21
-3.4006610629921261
0
LINE
8
BLACK
6
CONTINUOUS
10
4.5923522440944877
20
-3.4006610629921261
11
4.5913423228346453
21
-3.400483031496063
0
LINE
8
BLACK
6
CONTINUOUS
10
4.5913423228346453
20
-3.400483031496063
11
4.5897950393700784
21
-3.3991847637795276
0
LINE
8
BLACK
6
CONTINUOUS
10
4.5897950393700784
20
-3.3991847637795276
11
4.5894442519685041
21
-3.3971956299212596
0
LINE
8
BLACK
6
CONTINUOUS
10
4.5894442519685041
20
-3.3971956299212596
11
4.5904540944881891
21
-3.3954464173228347
0
LINE
8
BLACK
6
CONTINUOUS
10
4.5904540944881891
20
-3.3954464173228347
11
4.5923520866141727
21
-3.3947555511811025
0
LINE
8
BLACK
6
CONTINUOUS
10
4.5923520866141727
20
-3.3947555511811025
11
4.6122774803149609
21
-3.3947549606299212
0
LINE
8
BLACK
6
CONTINUOUS
10
4.6122774803149609
20
-3.3947549606299212
11
4.6145231496062991
21
-3.3936320472440946
0
LINE
8
BLACK
6
CONTINUOUS
10
4.6145231496062991
20
-3.3936320472440946
11
4.6156459448818898
21
-3.3913862992125985
0
LINE
8
BLACK
6
CONTINUOUS
10
4.6156459448818898
20
-3.3913862992125985
11
4.6156458267716536
21
-3.3871561023622045
0
LINE
8
BLACK
6
CONTINUOUS
10
4.6156458267716536
20
-3.3871561023622045
11
4.6142970078740158
21
-3.3844586220472439
0
LINE
8
BLACK
6
CONTINUOUS
10
4.6142970078740158
20
-3.3844586220472439
11
4.6136259055118112
21
-3.3837875590551181
0
LINE
8
BLACK
6
CONTINUOUS
10
4.6136259055118112
20
-3.3837875590551181
11
4.5923517716535436
21
-3.3837881889763777
0
LINE
8
BLACK
6
CONTINUOUS
10
4.5923517716535436
20
-3.3837881889763777
11
4.5913418503937002
21
-3.383610157480315
0
LINE
8
BLACK
6
CONTINUOUS
10
4.5913418503937002
20
-3.383610157480315
11
4.5897945669291333
21
-3.3823118897637796
0
LINE
8
BLACK
6
CONTINUOUS
10
4.5897945669291333
20
-3.3823118897637796
11
4.5894437795275591
21
-3.3803227559055116
0
LINE
8
BLACK
6
CONTINUOUS
10
4.5894437795275591
20
-3.3803227559055116
11
4.5904536220472441
21
-3.3785735433070867
0
LINE
8
BLACK
6
CONTINUOUS
10
4.5904536220472441
20
-3.3785735433070867
11
4.5923516141732286
21
-3.3778826771653541
0
LINE
8
BLACK
6
CONTINUOUS
10
4.5923516141732286
20
-3.3778826771653541
11
4.6185983464566931
21
-3.3778819291338582
0
LINE
8
BLACK
6
CONTINUOUS
10
4.6185983464566931
20
-3.3778819291338582
11
4.6196082677165355
21
-3.3780599606299213
0
LINE
8
BLACK
6
CONTINUOUS
10
4.6154272834645669
20
-3.3086179921259844
11
4.6155629921259838
21
-3.3086038188976379
0
LINE
8
BLACK
6
CONTINUOUS
10
4.6155629921259838
20
-3.3086038188976379
11
4.6230621259842515
21
-3.3104783858267717
0
LINE
8
BLACK
6
CONTINUOUS
10
4.6230621259842515
20
-3.3104783858267717
11
4.6239673622047244
21
-3.3108820472440943
0
LINE
8
BLACK
6
CONTINUOUS
10
4.6239673622047244
20
-3.3108820472440943
11
4.6239838976377952
21
-3.3108861023622045
0
LINE
8
BLACK
6
CONTINUOUS
10
4.6239838976377952
20
-3.3108861023622045
11
4.6296083070866141
21
-3.3146354724409446
0
LINE
8
BLACK
6
CONTINUOUS
10
4.6296083070866141
20
-3.3146354724409446
11
4.629933661417323
21
-3.3149462598425194
0
LINE
8
BLACK
6
CONTINUOUS
10
4.629933661417323
20
-3.3149462598425194
11
4.6300583464566927
21
-3.3150044094488189
0
LINE
8
BLACK
6
CONTINUOUS
10
4.6300583464566927
20
-3.3150044094488189
11
4.631933149606299
21
-3.3168791338582677
0
LINE
8
BLACK
6
CONTINUOUS
10
4.631933149606299
20
-3.3168791338582677
11
4.6324394094488186
21
-3.3176021259842519
0
LINE
8
BLACK
6
CONTINUOUS
10
4.6324394094488186
20
-3.3176021259842519
11
4.6324862598425192
21
-3.3176464960629919
0
LINE
8
BLACK
6
CONTINUOUS
10
4.6324862598425192
20
-3.3176464960629919
11
4.634361141732283
21
-3.3213959842519682
0
LINE
8
BLACK
6
CONTINUOUS
10
4.634361141732283
20
-3.3213959842519682
11
4.6346535433070866
21
-3.322378937007874
0
LINE
8
BLACK
6
CONTINUOUS
10
4.6346535433070866
20
-3.322378937007874
11
4.6346125196850396
21
-3.322550590551181
0
LINE
8
BLACK
6
CONTINUOUS
10
4.6346125196850396
20
-3.322550590551181
11
4.6346729133858267
21
-3.3227164960629922
0
LINE
8
BLACK
6
CONTINUOUS
10
4.6346729133858267
20
-3.3227164960629922
11
4.6346731102362204
21
-3.3302155511811025
0
LINE
8
BLACK
6
CONTINUOUS
10
4.6346731102362204
20
-3.3302155511811025
11
4.6344950787401578
21
-3.3312254724409449
0
LINE
8
BLACK
6
CONTINUOUS
10
4.6344950787401578
20
-3.3312254724409449
11
4.6331968110236224
21
-3.3327727559055118
0
LINE
8
BLACK
6
CONTINUOUS
10
4.6331968110236224
20
-3.3327727559055118
11
4.6312076771653539
21
-3.3331235433070865
0
LINE
8
BLACK
6
CONTINUOUS
10
4.6312076771653539
20
-3.3331235433070865
11
4.6294584645669294
21
-3.3321137007874015
0
LINE
8
BLACK
6
CONTINUOUS
10
4.6294584645669294
20
-3.3321137007874015
11
4.6287675984251964
21
-3.330215708661417
0
LINE
8
BLACK
6
CONTINUOUS
10
4.6287675984251964
20
-3.330215708661417
11
4.6287674015748035
21
-3.3234137007874014
0
LINE
8
BLACK
6
CONTINUOUS
10
4.6287674015748035
20
-3.3234137007874014
11
4.6274185826771657
21
-3.3207162204724407
0
LINE
8
BLACK
6
CONTINUOUS
10
4.6274185826771657
20
-3.3207162204724407
11
4.6260893700787404
21
-3.319387086614173
0
LINE
8
BLACK
6
CONTINUOUS
10
4.6260893700787404
20
-3.319387086614173
11
4.6211337401574806
21
-3.3160835433070863
0
LINE
8
BLACK
6
CONTINUOUS
10
4.6211337401574806
20
-3.3160835433070863
11
4.6182165354330706
21
-3.3153543307086615
0
LINE
8
BLACK
6
CONTINUOUS
10
4.6182165354330706
20
-3.3153543307086615
11
4.6193629133858263
21
-3.3176468503937007
0
LINE
8
BLACK
6
CONTINUOUS
10
4.6193629133858263
20
-3.3176468503937007
11
4.6196553149606299
21
-3.3186297637795277
0
LINE
8
BLACK
6
CONTINUOUS
10
4.6196553149606299
20
-3.3186297637795277
11
4.6196142913385829
21
-3.3188014566929134
0
LINE
8
BLACK
6
CONTINUOUS
10
4.6196142913385829
20
-3.3188014566929134
11
4.61967468503937
21
-3.3189673622047242
0
LINE
8
BLACK
6
CONTINUOUS
10
4.61967468503937
20
-3.3189673622047242
11
4.6196748818897637
21
-3.3264664173228344
0
LINE
8
BLACK
6
CONTINUOUS
10
4.6196748818897637
20
-3.3264664173228344
11
4.6194968503937011
21
-3.3274763385826769
0
LINE
8
BLACK
6
CONTINUOUS
10
4.6194968503937011
20
-3.3274763385826769
11
4.6193833464566927
21
-3.3276115748031496
0
LINE
8
BLACK
6
CONTINUOUS
10
4.6193833464566927
20
-3.3276115748031496
11
4.6193631889763775
21
-3.327786929133858
0
LINE
8
BLACK
6
CONTINUOUS
10
4.6193631889763775
20
-3.327786929133858
11
4.6174885433070862
21
-3.3315365354330706
0
LINE
8
BLACK
6
CONTINUOUS
10
4.6174885433070862
20
-3.3315365354330706
11
4.616962677165354
21
-3.3322455118110237
0
LINE
8
BLACK
6
CONTINUOUS
10
4.616962677165354
20
-3.3322455118110237
11
4.6169354330708661
21
-3.3323039763779527
0
LINE
8
BLACK
6
CONTINUOUS
10
4.6169354330708661
20
-3.3323039763779527
11
4.6150607086614173
21
-3.334178779527559
0
LINE
8
BLACK
6
CONTINUOUS
10
4.6150607086614173
20
-3.334178779527559
11
4.6143376377952752
21
-3.3346850787401574
0
LINE
8
BLACK
6
CONTINUOUS
10
4.6143376377952752
20
-3.3346850787401574
11
4.6142933464566926
21
-3.3347318897637797
0
LINE
8
BLACK
6
CONTINUOUS
10
4.6142933464566926
20
-3.3347318897637797
11
4.6105438582677163
21
-3.336606771653543
0
LINE
8
BLACK
6
CONTINUOUS
10
4.6105438582677163
20
-3.336606771653543
11
4.6095609448818893
21
-3.3368991732283462
0
LINE
8
BLACK
6
CONTINUOUS
10
4.6095609448818893
20
-3.3368991732283462
11
4.6093892125984253
21
-3.3368581496062992
0
LINE
8
BLACK
6
CONTINUOUS
10
4.6093892125984253
20
-3.3368581496062992
11
4.6092233464566927
21
-3.3369185433070867
0
LINE
8
BLACK
6
CONTINUOUS
10
4.6092233464566927
20
-3.3369185433070867
11
4.599849527559055
21
-3.3369188188976375
0
LINE
8
BLACK
6
CONTINUOUS
10
4.599849527559055
20
-3.3369188188976375
11
4.5988396062992125
21
-3.3367407874015749
0
LINE
8
BLACK
6
CONTINUOUS
10
4.5988396062992125
20
-3.3367407874015749
11
4.598704330708661
21
-3.3366272834645669
0
LINE
8
BLACK
6
CONTINUOUS
10
4.598704330708661
20
-3.3366272834645669
11
4.5985289763779527
21
-3.3366071259842518
0
LINE
8
BLACK
6
CONTINUOUS
10
4.5985289763779527
20
-3.3366071259842518
11
4.5947794094488188
21
-3.3347324409448817
0
LINE
8
BLACK
6
CONTINUOUS
10
4.5947794094488188
20
-3.3347324409448817
11
4.594070393700787
21
-3.3342065748031495
0
LINE
8
BLACK
6
CONTINUOUS
10
4.594070393700787
20
-3.3342065748031495
11
4.5940120472440942
21
-3.3341793700787399
0
LINE
8
BLACK
6
CONTINUOUS
10
4.5940120472440942
20
-3.3341793700787399
11
4.5921372047244091
21
-3.3323046850393698
0
LINE
8
BLACK
6
CONTINUOUS
10
4.5921372047244091
20
-3.3323046850393698
11
4.591630708661417
21
-3.3315814173228344
0
LINE
8
BLACK
6
CONTINUOUS
10
4.591630708661417
20
-3.3315814173228344
11
4.5915840551181102
21
-3.3315372440944881
0
LINE
8
BLACK
6
CONTINUOUS
10
4.5915840551181102
20
-3.3315372440944881
11
4.5897092125984251
21
-3.3277877559055118
0
LINE
8
BLACK
6
CONTINUOUS
10
4.5897092125984251
20
-3.3277877559055118
11
4.5894168110236215
21
-3.3268048425196848
0
LINE
8
BLACK
6
CONTINUOUS
10
4.5894168110236215
20
-3.3268048425196848
11
4.5894577952755906
21
-3.3266331496062991
0
LINE
8
BLACK
6
CONTINUOUS
10
4.5894577952755906
20
-3.3266331496062991
11
4.5893974409448814
21
-3.326467283464567
0
LINE
8
BLACK
6
CONTINUOUS
10
4.5893974409448814
20
-3.326467283464567
11
4.5893972047244089
21
-3.3189682283464568
0
LINE
8
BLACK
6
CONTINUOUS
10
4.5893972047244089
20
-3.3189682283464568
11
4.5895752362204725
21
-3.3179583070866139
0
LINE
8
BLACK
6
CONTINUOUS
10
4.5895752362204725
20
-3.3179583070866139
11
4.5896887007874012
21
-3.3178230314960628
0
LINE
8
BLACK
6
CONTINUOUS
10
4.5896887007874012
20
-3.3178230314960628
11
4.5897088976377951
21
-3.3176477165354328
0
LINE
8
BLACK
6
CONTINUOUS
10
4.5897088976377951
20
-3.3176477165354328
11
4.5915835826771652
21
-3.3138981102362206
0
LINE
8
BLACK
6
CONTINUOUS
10
4.5915835826771652
20
-3.3138981102362206
11
4.5921094094488186
21
-3.3131890944881888
0
LINE
8
BLACK
6
CONTINUOUS
10
4.5921094094488186
20
-3.3131890944881888
11
4.5921366535433066
21
-3.3131307086614172
0
LINE
8
BLACK
6
CONTINUOUS
10
4.5921366535433066
20
-3.3131307086614172
11
4.5940113779527554
21
-3.3112558661417322
0
LINE
8
BLACK
6
CONTINUOUS
10
4.5940113779527554
20
-3.3112558661417322
11
4.5947344881889762
21
-3.3107494488188975
0
LINE
8
BLACK
6
CONTINUOUS
10
4.5947344881889762
20
-3.3107494488188975
11
4.59477874015748
21
-3.3107027559055116
0
LINE
8
BLACK
6
CONTINUOUS
10
4.59477874015748
20
-3.3107027559055116
11
4.5985282283464564
21
-3.3088278740157477
0
LINE
8
BLACK
6
CONTINUOUS
10
4.5985282283464564
20
-3.3088278740157477
11
4.5995111811023621
21
-3.3085354724409446
0
LINE
8
BLACK
6
CONTINUOUS
10
4.5995111811023621
20
-3.3085354724409446
11
4.5996828346456695
21
-3.3085764566929132
0
LINE
8
BLACK
6
CONTINUOUS
10
4.5996828346456695
20
-3.3085764566929132
11
4.5998487401574799
21
-3.3085161023622045
0
LINE
8
BLACK
6
CONTINUOUS
10
4.5998487401574799
20
-3.3085161023622045
11
4.6148468503937004
21
-3.3085156692913387
0
LINE
8
BLACK
6
CONTINUOUS
10
4.6148468503937004
20
-3.3085156692913387
11
4.6154272834645669
21
-3.3086179921259844
0
LINE
8
BLACK
6
CONTINUOUS
10
4.6005459448818895
20
-3.3144215748031494
11
4.5978484645669289
21
-3.3157703937007872
0
LINE
8
BLACK
6
CONTINUOUS
10
4.5978484645669289
20
-3.3157703937007872
11
4.5966514566929133
21
-3.3169675196850394
0
LINE
8
BLACK
6
CONTINUOUS
10
4.5966514566929133
20
-3.3169675196850394
11
4.595302716535433
21
-3.3196651181102363
0
LINE
8
BLACK
6
CONTINUOUS
10
4.595302716535433
20
-3.3196651181102363
11
4.5953029133858267
21
-3.3257700787401574
0
LINE
8
BLACK
6
CONTINUOUS
10
4.5953029133858267
20
-3.3257700787401574
11
4.5966516929133858
21
-3.3284674803149605
0
LINE
8
BLACK
6
CONTINUOUS
10
4.5966516929133858
20
-3.3284674803149605
11
4.5978488582677164
21
-3.3296645275590548
0
LINE
8
BLACK
6
CONTINUOUS
10
4.5978488582677164
20
-3.3296645275590548
11
4.6005464173228345
21
-3.3310132677165352
0
LINE
8
BLACK
6
CONTINUOUS
10
4.6005464173228345
20
-3.3310132677165352
11
4.6085261023622044
21
-3.3310130314960631
0
LINE
8
BLACK
6
CONTINUOUS
10
4.6085261023622044
20
-3.3310130314960631
11
4.611223582677165
21
-3.3296642125984253
0
LINE
8
BLACK
6
CONTINUOUS
10
4.611223582677165
20
-3.3296642125984253
11
4.6124206692913381
21
-3.3284670472440943
0
LINE
8
BLACK
6
CONTINUOUS
10
4.6124206692913381
20
-3.3284670472440943
11
4.6137693307086609
21
-3.3257695275590549
0
LINE
8
BLACK
6
CONTINUOUS
10
4.6137693307086609
20
-3.3257695275590549
11
4.6137691732283468
21
-3.3196645669291338
0
LINE
8
BLACK
6
CONTINUOUS
10
4.6137691732283468
20
-3.3196645669291338
11
4.612420354330709
21
-3.3169671259842519
0
LINE
8
BLACK
6
CONTINUOUS
10
4.612420354330709
20
-3.3169671259842519
11
4.6112232283464563
21
-3.3157700393700789
0
LINE
8
BLACK
6
CONTINUOUS
10
4.6112232283464563
20
-3.3157700393700789
11
4.6085256692913381
21
-3.3144213385826773
0
LINE
8
BLACK
6
CONTINUOUS
10
4.6085256692913381
20
-3.3144213385826773
11
4.6005459448818895
21
-3.3144215748031494
0
LINE
8
BLACK
6
CONTINUOUS
10
4.6132460236220467
20
-3.2710398425196852
11
4.6132648818897639
21
-3.2710350787401574
0
LINE
8
BLACK
6
CONTINUOUS
10
4.6132648818897639
20
-3.2710350787401574
11
4.6320125590551182
21
-3.2729092913385824
0
LINE
8
BLACK
6
CONTINUOUS
10
4.6320125590551182
20
-3.2729092913385824
11
4.6321629133858266
21
-3.2729515748031495
0
LINE
8
BLACK
6
CONTINUOUS
10
4.6321629133858266
20
-3.2729515748031495
11
4.6322314960629924
21
-3.2729394881889764
0
LINE
8
BLACK
6
CONTINUOUS
10
4.6322314960629924
20
-3.2729394881889764
11
4.6323374409448821
21
-3.2730006299212597
0
LINE
8
BLACK
6
CONTINUOUS
10
4.6323374409448821
20
-3.2730006299212597
11
4.6329997637795275
21
-3.2731869291338582
0
LINE
8
BLACK
6
CONTINUOUS
10
4.6329997637795275
20
-3.2731869291338582
11
4.6334376771653538
21
-3.2736358267716534
0
LINE
8
BLACK
6
CONTINUOUS
10
4.6334376771653538
20
-3.2736358267716534
11
4.6339807086614169
21
-3.2739493307086613
0
LINE
8
BLACK
6
CONTINUOUS
10
4.6339807086614169
20
-3.2739493307086613
11
4.6341218503937007
21
-3.2743371653543307
0
LINE
8
BLACK
6
CONTINUOUS
10
4.6341218503937007
20
-3.2743371653543307
11
4.6344101968503937
21
-3.2746327165354332
0
LINE
8
BLACK
6
CONTINUOUS
10
4.6344101968503937
20
-3.2746327165354332
11
4.634457086614173
21
-3.2752581102362206
0
LINE
8
BLACK
6
CONTINUOUS
10
4.634457086614173
20
-3.2752581102362206
11
4.6346715748031491
21
-3.2758473228346454
0
LINE
8
BLACK
6
CONTINUOUS
10
4.6346715748031491
20
-3.2758473228346454
11
4.6346721259842516
21
-3.2945949999999997
0
LINE
8
BLACK
6
CONTINUOUS
10
4.6346721259842516
20
-3.2945949999999997
11
4.6344940944881889
21
-3.2956049212598426
0
LINE
8
BLACK
6
CONTINUOUS
10
4.6344940944881889
20
-3.2956049212598426
11
4.6331958267716535
21
-3.2971522047244095
0
LINE
8
BLACK
6
CONTINUOUS
10
4.6331958267716535
20
-3.2971522047244095
11
4.6312066929133859
21
-3.2975029921259842
0
LINE
8
BLACK
6
CONTINUOUS
10
4.6312066929133859
20
-3.2975029921259842
11
4.6294574803149606
21
-3.2964931496062992
0
LINE
8
BLACK
6
CONTINUOUS
10
4.6294574803149606
20
-3.2964931496062992
11
4.6287666141732284
21
-3.2945951574803147
0
LINE
8
BLACK
6
CONTINUOUS
10
4.6287666141732284
20
-3.2945951574803147
11
4.6287661023622046
21
-3.2785196850393699
0
LINE
8
BLACK
6
CONTINUOUS
10
4.6287661023622046
20
-3.2785196850393699
11
4.6189948031496062
21
-3.2775428346456694
0
LINE
8
BLACK
6
CONTINUOUS
10
4.6189948031496062
20
-3.2775428346456694
11
4.6193618110236221
21
-3.2782767716535433
0
LINE
8
BLACK
6
CONTINUOUS
10
4.6193618110236221
20
-3.2782767716535433
11
4.6196542125984248
21
-3.2792597244094486
0
LINE
8
BLACK
6
CONTINUOUS
10
4.6196542125984248
20
-3.2792597244094486
11
4.6196131889763778
21
-3.279431377952756
0
LINE
8
BLACK
6
CONTINUOUS
10
4.6196131889763778
20
-3.279431377952756
11
4.6196735826771649
21
-3.2795972834645668
0
LINE
8
BLACK
6
CONTINUOUS
10
4.6196735826771649
20
-3.2795972834645668
11
4.6196738188976374
21
-3.2889711023622046
0
LINE
8
BLACK
6
CONTINUOUS
10
4.6196738188976374
20
-3.2889711023622046
11
4.6194957874015747
21
-3.289981023622047
0
LINE
8
BLACK
6
CONTINUOUS
10
4.6194957874015747
20
-3.289981023622047
11
4.6193822834645673
21
-3.2901162598425198
0
LINE
8
BLACK
6
CONTINUOUS
10
4.6193822834645673
20
-3.2901162598425198
11
4.6193621259842521
21
-3.2902916141732281
0
LINE
8
BLACK
6
CONTINUOUS
10
4.6193621259842521
20
-3.2902916141732281
11
4.6174874803149608
21
-3.2940412204724407
0
LINE
8
BLACK
6
CONTINUOUS
10
4.6174874803149608
20
-3.2940412204724407
11
4.6169616141732286
21
-3.2947501968503938
0
LINE
8
BLACK
6
CONTINUOUS
10
4.6169616141732286
20
-3.2947501968503938
11
4.6169343700787397
21
-3.2948086614173229
0
LINE
8
BLACK
6
CONTINUOUS
10
4.6169343700787397
20
-3.2948086614173229
11
4.6150596456692909
21
-3.2966834645669292
0
LINE
8
BLACK
6
CONTINUOUS
10
4.6150596456692909
20
-3.2966834645669292
11
4.6143365748031497
21
-3.2971897637795275
0
LINE
8
BLACK
6
CONTINUOUS
10
4.6143365748031497
20
-3.2971897637795275
11
4.6142922834645672
21
-3.2972365748031494
0
LINE
8
BLACK
6
CONTINUOUS
10
4.6142922834645672
20
-3.2972365748031494
11
4.6105428346456696
21
-3.2991114566929132
0
LINE
8
BLACK
6
CONTINUOUS
10
4.6105428346456696
20
-3.2991114566929132
11
4.6095599212598426
21
-3.2994038582677163
0
LINE
8
BLACK
6
CONTINUOUS
10
4.6095599212598426
20
-3.2994038582677163
11
4.6093881889763777
21
-3.2993628346456694
0
LINE
8
BLACK
6
CONTINUOUS
10
4.6093881889763777
20
-3.2993628346456694
11
4.6092223228346452
21
-3.2994232283464564
0
LINE
8
BLACK
6
CONTINUOUS
10
4.6092223228346452
20
-3.2994232283464564
11
4.5998484645669286
21
-3.2994235039370077
0
LINE
8
BLACK
6
CONTINUOUS
10
4.5998484645669286
20
-3.2994235039370077
11
4.5988385433070862
21
-3.299245472440945
0
LINE
8
BLACK
6
CONTINUOUS
10
4.5988385433070862
20
-3.299245472440945
11
4.5987032677165356
21
-3.2991319685039371
0
LINE
8
BLACK
6
CONTINUOUS
10
4.5987032677165356
20
-3.2991319685039371
11
4.5985279133858263
21
-3.2991118110236219
0
LINE
8
BLACK
6
CONTINUOUS
10
4.5985279133858263
20
-3.2991118110236219
11
4.5947783464566925
21
-3.2972371259842519
0
LINE
8
BLACK
6
CONTINUOUS
10
4.5947783464566925
20
-3.2972371259842519
11
4.5940693307086615
21
-3.2967112598425197
0
LINE
8
BLACK
6
CONTINUOUS
10
4.5940693307086615
20
-3.2967112598425197
11
4.5940109842519687
21
-3.29668405511811
0
LINE
8
BLACK
6
CONTINUOUS
10
4.5940109842519687
20
-3.29668405511811
11
4.5921361811023624
21
-3.29480937007874
0
LINE
8
BLACK
6
CONTINUOUS
10
4.5921361811023624
20
-3.29480937007874
11
4.5916298425196853
21
-3.2940862992125983
0
LINE
8
BLACK
6
CONTINUOUS
10
4.5916298425196853
20
-3.2940862992125983
11
4.5915830314960626
21
-3.294041968503937
0
LINE
8
BLACK
6
CONTINUOUS
10
4.5915830314960626
20
-3.294041968503937
11
4.5897081496062988
21
-3.2902924803149607
0
LINE
8
BLACK
6
CONTINUOUS
10
4.5897081496062988
20
-3.2902924803149607
11
4.5894157480314961
21
-3.2893095669291337
0
LINE
8
BLACK
6
CONTINUOUS
10
4.5894157480314961
20
-3.2893095669291337
11
4.5894567322834643
21
-3.2891378346456692
0
LINE
8
BLACK
6
CONTINUOUS
10
4.5894567322834643
20
-3.2891378346456692
11
4.589396377952756
21
-3.2889719685039371
0
LINE
8
BLACK
6
CONTINUOUS
10
4.589396377952756
20
-3.2889719685039371
11
4.5893961023622047
21
-3.2795981496062989
0
LINE
8
BLACK
6
CONTINUOUS
10
4.5893961023622047
20
-3.2795981496062989
11
4.5895741338582674
21
-3.2785882283464565
0
LINE
8
BLACK
6
CONTINUOUS
10
4.5895741338582674
20
-3.2785882283464565
11
4.589687598425197
21
-3.2784529527559054
0
LINE
8
BLACK
6
CONTINUOUS
10
4.589687598425197
20
-3.2784529527559054
11
4.58970779527559
21
-3.2782776377952754
0
LINE
8
BLACK
6
CONTINUOUS
10
4.58970779527559
20
-3.2782776377952754
11
4.5915824409448822
21
-3.2745280314960628
0
LINE
8
BLACK
6
CONTINUOUS
10
4.5915824409448822
20
-3.2745280314960628
11
4.5921083070866144
21
-3.2738189370078739
0
LINE
8
BLACK
6
CONTINUOUS
10
4.5921083070866144
20
-3.2738189370078739
11
4.5921355511811024
21
-3.2737605905511811
0
LINE
8
BLACK
6
CONTINUOUS
10
4.5921355511811024
20
-3.2737605905511811
11
4.5940102755905512
21
-3.2718857874015748
0
LINE
8
BLACK
6
CONTINUOUS
10
4.5940102755905512
20
-3.2718857874015748
11
4.5948502755905514
21
-3.2712975984251966
0
LINE
8
BLACK
6
CONTINUOUS
10
4.5948502755905514
20
-3.2712975984251966
11
4.5968624015748034
21
-3.271121496062992
0
LINE
8
BLACK
6
CONTINUOUS
10
4.5968624015748034
20
-3.271121496062992
11
4.5985169685039367
21
-3.2722799999999999
0
LINE
8
BLACK
6
CONTINUOUS
10
4.5985169685039367
20
-3.2722799999999999
11
4.5990397244094483
21
-3.2742309448818898
0
LINE
8
BLACK
6
CONTINUOUS
10
4.5990397244094483
20
-3.2742309448818898
11
4.5981861811023617
21
-3.2760615354330707
0
LINE
8
BLACK
6
CONTINUOUS
10
4.5981861811023617
20
-3.2760615354330707
11
4.5966502755905507
21
-3.2775974803149603
0
LINE
8
BLACK
6
CONTINUOUS
10
4.5966502755905507
20
-3.2775974803149603
11
4.5953016141732279
21
-3.2802949999999997
0
LINE
8
BLACK
6
CONTINUOUS
10
4.5953016141732279
20
-3.2802949999999997
11
4.5953018503937004
21
-3.2882747244094488
0
LINE
8
BLACK
6
CONTINUOUS
10
4.5953018503937004
20
-3.2882747244094488
11
4.5966506692913383
21
-3.2909722047244094
0
LINE
8
BLACK
6
CONTINUOUS
10
4.5966506692913383
20
-3.2909722047244094
11
4.5978477952755901
21
-3.2921692519685037
0
LINE
8
BLACK
6
CONTINUOUS
10
4.5978477952755901
20
-3.2921692519685037
11
4.6005453543307082
21
-3.2935179527559053
0
LINE
8
BLACK
6
CONTINUOUS
10
4.6005453543307082
20
-3.2935179527559053
11
4.6085250787401577
21
-3.2935177165354328
0
LINE
8
BLACK
6
CONTINUOUS
10
4.6085250787401577
20
-3.2935177165354328
11
4.6112225196850396
21
-3.2921688976377954
0
LINE
8
BLACK
6
CONTINUOUS
10
4.6112225196850396
20
-3.2921688976377954
11
4.6124196062992127
21
-3.2909717322834644
0
LINE
8
BLACK
6
CONTINUOUS
10
4.6124196062992127
20
-3.2909717322834644
11
4.6137682677165355
21
-3.288274212598425
0
LINE
8
BLACK
6
CONTINUOUS
10
4.6137682677165355
20
-3.288274212598425
11
4.6137680708661417
21
-3.2802944881889764
0
LINE
8
BLACK
6
CONTINUOUS
10
4.6137680708661417
20
-3.2802944881889764
11
4.6124192519685039
21
-3.2775970078740158
0
LINE
8
BLACK
6
CONTINUOUS
10
4.6124192519685039
20
-3.2775970078740158
11
4.6108833070866142
21
-3.2760611811023623
0
LINE
8
BLACK
6
CONTINUOUS
10
4.6108833070866142
20
-3.2760611811023623
11
4.6102950787401573
21
-3.2752211417322834
0
LINE
8
BLACK
6
CONTINUOUS
10
4.6102950787401573
20
-3.2752211417322834
11
4.6102933464566931
21
-3.2752017716535433
0
LINE
8
BLACK
6
CONTINUOUS
10
4.6102933464566931
20
-3.2752017716535433
11
4.6102798031496066
21
-3.2751878740157481
0
LINE
8
BLACK
6
CONTINUOUS
10
4.6102798031496066
20
-3.2751878740157481
11
4.6102054724409447
21
-3.2741974015748032
0
LINE
8
BLACK
6
CONTINUOUS
10
4.6102054724409447
20
-3.2741974015748032
11
4.6101189763779526
21
-3.2732090551181101
0
LINE
8
BLACK
6
CONTINUOUS
10
4.6101189763779526
20
-3.2732090551181101
11
4.6101301181102361
21
-3.2731931102362206
0
LINE
8
BLACK
6
CONTINUOUS
10
4.6101301181102361
20
-3.2731931102362206
11
4.6101286614173231
21
-3.2731737007874013
0
LINE
8
BLACK
6
CONTINUOUS
10
4.6101286614173231
20
-3.2731737007874013
11
4.6107085433070862
21
-3.2723669291338582
0
LINE
8
BLACK
6
CONTINUOUS
10
4.6107085433070862
20
-3.2723669291338582
11
4.6112774409448818
21
-3.2715544488188977
0
LINE
8
BLACK
6
CONTINUOUS
10
4.6112774409448818
20
-3.2715544488188977
11
4.6112962204724406
21
-3.2715494094488187
0
LINE
8
BLACK
6
CONTINUOUS
10
4.6112962204724406
20
-3.2715494094488187
11
4.6113075590551178
21
-3.2715336614173229
0
LINE
8
BLACK
6
CONTINUOUS
10
4.6113075590551178
20
-3.2715336614173229
11
4.6122677559055116
21
-3.27128905511811
0
LINE
8
BLACK
6
CONTINUOUS
10
4.6122677559055116
20
-3.27128905511811
11
4.6132283858267717
21
-3.2710316535433068
0
LINE
8
BLACK
6
CONTINUOUS
10
4.6132283858267717
20
-3.2710316535433068
11
4.6132460236220467
21
-3.2710398425196852
0
LINE
8
BLACK
6
CONTINUOUS
10
4.5946095275590553
20
-3.2345803543307086
11
4.5953003937007875
21
-3.2364783464566926
0
LINE
8
BLACK
6
CONTINUOUS
10
4.5953003937007875
20
-3.2364783464566926
11
4.5953005905511812
21
-3.2447741732283464
0
LINE
8
BLACK
6
CONTINUOUS
10
4.5953005905511812
20
-3.2447741732283464
11
4.6227146062992128
21
-3.2447734251968505
0
LINE
8
BLACK
6
CONTINUOUS
10
4.6227146062992128
20
-3.2447734251968505
11
4.6202561417322832
21
-3.2423150787401576
0
LINE
8
BLACK
6
CONTINUOUS
10
4.6202561417322832
20
-3.2423150787401576
11
4.6197497244094485
21
-3.2415919291338584
0
LINE
8
BLACK
6
CONTINUOUS
10
4.6197497244094485
20
-3.2415919291338584
11
4.619703031496063
21
-3.2415477165354329
0
LINE
8
BLACK
6
CONTINUOUS
10
4.619703031496063
20
-3.2415477165354329
11
4.6178281496062992
21
-3.2377982283464566
0
LINE
8
BLACK
6
CONTINUOUS
10
4.6178281496062992
20
-3.2377982283464566
11
4.6175357480314956
21
-3.23681531496063
0
LINE
8
BLACK
6
CONTINUOUS
10
4.6175357480314956
20
-3.23681531496063
11
4.6180049606299214
21
-3.2348507874015748
0
LINE
8
BLACK
6
CONTINUOUS
10
4.6180049606299214
20
-3.2348507874015748
11
4.6196272047244094
21
-3.2336474409448819
0
LINE
8
BLACK
6
CONTINUOUS
10
4.6196272047244094
20
-3.2336474409448819
11
4.6216433858267711
21
-3.2337684251968501
0
LINE
8
BLACK
6
CONTINUOUS
10
4.6216433858267711
20
-3.2337684251968501
11
4.6231101181102359
21
-3.2351570472440945
0
LINE
8
BLACK
6
CONTINUOUS
10
4.6231101181102359
20
-3.2351570472440945
11
4.6247706692913386
21
-3.2384779527559053
0
LINE
8
BLACK
6
CONTINUOUS
10
4.6247706692913386
20
-3.2384779527559053
11
4.6279747244094489
21
-3.2416818110236219
0
LINE
8
BLACK
6
CONTINUOUS
10
4.6279747244094489
20
-3.2416818110236219
11
4.6333558661417324
21
-3.24526905511811
0
LINE
8
BLACK
6
CONTINUOUS
10
4.6333558661417324
20
-3.24526905511811
11
4.6340974015748033
21
-3.2459774015748031
0
LINE
8
BLACK
6
CONTINUOUS
10
4.6340974015748033
20
-3.2459774015748031
11
4.6341450787401577
21
-3.24614031496063
0
LINE
8
BLACK
6
CONTINUOUS
10
4.6341450787401577
20
-3.24614031496063
11
4.6342751574803147
21
-3.2462494881889765
0
LINE
8
BLACK
6
CONTINUOUS
10
4.6342751574803147
20
-3.2462494881889765
11
4.6344239370078739
21
-3.2470933464566927
0
LINE
8
BLACK
6
CONTINUOUS
10
4.6344239370078739
20
-3.2470933464566927
11
4.63466468503937
21
-3.2479159055118108
0
LINE
8
BLACK
6
CONTINUOUS
10
4.63466468503937
20
-3.2479159055118108
11
4.634596456692913
21
-3.2480713779527557
0
LINE
8
BLACK
6
CONTINUOUS
10
4.634596456692913
20
-3.2480713779527557
11
4.6346259448818898
21
-3.2482386220472441
0
LINE
8
BLACK
6
CONTINUOUS
10
4.6346259448818898
20
-3.2482386220472441
11
4.6341974803149606
21
-3.2489807480314958
0
LINE
8
BLACK
6
CONTINUOUS
10
4.6341974803149606
20
-3.2489807480314958
11
4.6338531889763779
21
-3.2497655511811021
0
LINE
8
BLACK
6
CONTINUOUS
10
4.6338531889763779
20
-3.2497655511811021
11
4.6337009448818893
21
-3.2498407874015749
0
LINE
8
BLACK
6
CONTINUOUS
10
4.6337009448818893
20
-3.2498407874015749
11
4.6336161023622049
21
-3.2499878346456694
0
LINE
8
BLACK
6
CONTINUOUS
10
4.6336161023622049
20
-3.2499878346456694
11
4.6328107874015743
21
-3.2502809448818897
0
LINE
8
BLACK
6
CONTINUOUS
10
4.6328107874015743
20
-3.2502809448818897
11
4.6320426377952755
21
-3.2506607874015749
0
LINE
8
BLACK
6
CONTINUOUS
10
4.6320426377952755
20
-3.2506607874015749
11
4.6318776771653543
21
-3.2506205905511809
0
LINE
8
BLACK
6
CONTINUOUS
10
4.6318776771653543
20
-3.2506205905511809
11
4.6317181102362204
21
-3.2506787007874016
0
LINE
8
BLACK
6
CONTINUOUS
10
4.6317181102362204
20
-3.2506787007874016
11
4.595300787401575
21
-3.25067968503937
0
LINE
8
BLACK
6
CONTINUOUS
10
4.595300787401575
20
-3.25067968503937
11
4.5953010236220475
21
-3.2589755511811025
0
LINE
8
BLACK
6
CONTINUOUS
10
4.5953010236220475
20
-3.2589755511811025
11
4.595122992125984
21
-3.2599854724409449
0
LINE
8
BLACK
6
CONTINUOUS
10
4.595122992125984
20
-3.2599854724409449
11
4.5938247244094486
21
-3.2615327559055118
0
LINE
8
BLACK
6
CONTINUOUS
10
4.5938247244094486
20
-3.2615327559055118
11
4.591835590551181
21
-3.2618835433070865
0
LINE
8
BLACK
6
CONTINUOUS
10
4.591835590551181
20
-3.2618835433070865
11
4.5900863779527556
21
-3.2608737007874016
0
LINE
8
BLACK
6
CONTINUOUS
10
4.5900863779527556
20
-3.2608737007874016
11
4.5893955118110235
21
-3.2589757086614171
0
LINE
8
BLACK
6
CONTINUOUS
10
4.5893955118110235
20
-3.2589757086614171
11
4.5893948818897634
21
-3.2364785039370076
0
LINE
8
BLACK
6
CONTINUOUS
10
4.5893948818897634
20
-3.2364785039370076
11
4.589572913385827
21
-3.2354685826771652
0
LINE
8
BLACK
6
CONTINUOUS
10
4.589572913385827
20
-3.2354685826771652
11
4.5908711811023624
21
-3.2339212992125983
0
LINE
8
BLACK
6
CONTINUOUS
10
4.5908711811023624
20
-3.2339212992125983
11
4.59286031496063
21
-3.2335705118110236
0
LINE
8
BLACK
6
CONTINUOUS
10
4.59286031496063
20
-3.2335705118110236
11
4.5946095275590553
21
-3.2345803543307086
0
LINE
8
BLACK
6
CONTINUOUS
10
4.6154241338582676
20
-3.1961320472440944
11
4.6155598425196853
21
-3.1961178740157479
0
LINE
8
BLACK
6
CONTINUOUS
10
4.6155598425196853
20
-3.1961178740157479
11
4.623058976377953
21
-3.1979924409448817
0
LINE
8
BLACK
6
CONTINUOUS
10
4.623058976377953
20
-3.1979924409448817
11
4.623964212598425
21
-3.1983961023622047
0
LINE
8
BLACK
6
CONTINUOUS
10
4.623964212598425
20
-3.1983961023622047
11
4.6239807480314958
21
-3.1984001574803149
0
LINE
8
BLACK
6
CONTINUOUS
10
4.6239807480314958
20
-3.1984001574803149
11
4.6296051574803148
21
-3.202149527559055
0
LINE
8
BLACK
6
CONTINUOUS
10
4.6296051574803148
20
-3.202149527559055
11
4.6299305118110237
21
-3.2024603149606299
0
LINE
8
BLACK
6
CONTINUOUS
10
4.6299305118110237
20
-3.2024603149606299
11
4.6300551968503934
21
-3.2025184645669289
0
LINE
8
BLACK
6
CONTINUOUS
10
4.6300551968503934
20
-3.2025184645669289
11
4.6319299999999997
21
-3.2043931889763777
0
LINE
8
BLACK
6
CONTINUOUS
10
4.6319299999999997
20
-3.2043931889763777
11
4.6324362598425193
21
-3.2051161811023623
0
LINE
8
BLACK
6
CONTINUOUS
10
4.6324362598425193
20
-3.2051161811023623
11
4.6324831102362207
21
-3.2051605511811023
0
LINE
8
BLACK
6
CONTINUOUS
10
4.6324831102362207
20
-3.2051605511811023
11
4.6343579921259845
21
-3.2089100393700787
0
LINE
8
BLACK
6
CONTINUOUS
10
4.6343579921259845
20
-3.2089100393700787
11
4.6346503937007872
21
-3.209892992125984
0
LINE
8
BLACK
6
CONTINUOUS
10
4.6346503937007872
20
-3.209892992125984
11
4.6346093700787403
21
-3.2100646456692914
0
LINE
8
BLACK
6
CONTINUOUS
10
4.6346093700787403
20
-3.2100646456692914
11
4.6346697637795273
21
-3.2102305511811022
0
LINE
8
BLACK
6
CONTINUOUS
10
4.6346697637795273
20
-3.2102305511811022
11
4.6346699606299211
21
-3.2177296062992125
0
LINE
8
BLACK
6
CONTINUOUS
10
4.6346699606299211
20
-3.2177296062992125
11
4.6344919291338584
21
-3.2187395275590549
0
LINE
8
BLACK
6
CONTINUOUS
10
4.6344919291338584
20
-3.2187395275590549
11
4.633193661417323
21
-3.2202868110236218
0
LINE
8
BLACK
6
CONTINUOUS
10
4.633193661417323
20
-3.2202868110236218
11
4.6312045275590554
21
-3.2206375984251969
0
LINE
8
BLACK
6
CONTINUOUS
10
4.6312045275590554
20
-3.2206375984251969
11
4.6294553149606301
21
-3.2196277559055115
0
LINE
8
BLACK
6
CONTINUOUS
10
4.6294553149606301
20
-3.2196277559055115
11
4.6287644488188979
21
-3.2177297637795275
0
LINE
8
BLACK
6
CONTINUOUS
10
4.6287644488188979
20
-3.2177297637795275
11
4.6287642519685042
21
-3.2109277559055118
0
LINE
8
BLACK
6
CONTINUOUS
10
4.6287642519685042
20
-3.2109277559055118
11
4.6274154330708663
21
-3.2082302755905512
0
LINE
8
BLACK
6
CONTINUOUS
10
4.6274154330708663
20
-3.2082302755905512
11
4.6260862204724411
21
-3.2069011417322835
0
LINE
8
BLACK
6
CONTINUOUS
10
4.6260862204724411
20
-3.2069011417322835
11
4.6211305905511812
21
-3.2035975984251968
0
LINE
8
BLACK
6
CONTINUOUS
10
4.6211305905511812
20
-3.2035975984251968
11
4.6182133858267713
21
-3.2028683858267715
0
LINE
8
BLACK
6
CONTINUOUS
10
4.6182133858267713
20
-3.2028683858267715
11
4.6193597637795278
21
-3.2051609055118111
0
LINE
8
BLACK
6
CONTINUOUS
10
4.6193597637795278
20
-3.2051609055118111
11
4.6196521653543305
21
-3.2061438188976377
0
LINE
8
BLACK
6
CONTINUOUS
10
4.6196521653543305
20
-3.2061438188976377
11
4.6196111417322836
21
-3.2063155118110234
0
LINE
8
BLACK
6
CONTINUOUS
10
4.6196111417322836
20
-3.2063155118110234
11
4.6196715354330706
21
-3.2064814173228346
0
LINE
8
BLACK
6
CONTINUOUS
10
4.6196715354330706
20
-3.2064814173228346
11
4.6196717322834644
21
-3.2139804724409449
0
LINE
8
BLACK
6
CONTINUOUS
10
4.6196717322834644
20
-3.2139804724409449
11
4.6194937007874017
21
-3.2149903937007873
0
LINE
8
BLACK
6
CONTINUOUS
10
4.6194937007874017
20
-3.2149903937007873
11
4.6193801968503934
21
-3.2151256299212596
0
LINE
8
BLACK
6
CONTINUOUS
10
4.6193801968503934
20
-3.2151256299212596
11
4.6193600393700782
21
-3.2153009842519684
0
LINE
8
BLACK
6
CONTINUOUS
10
4.6193600393700782
20
-3.2153009842519684
11
4.6174853937007869
21
-3.219050590551181
0
LINE
8
BLACK
6
CONTINUOUS
10
4.6174853937007869
20
-3.219050590551181
11
4.6169595275590547
21
-3.2197595669291337
0
LINE
8
BLACK
6
CONTINUOUS
10
4.6169595275590547
20
-3.2197595669291337
11
4.6169322834645667
21
-3.2198180314960627
0
LINE
8
BLACK
6
CONTINUOUS
10
4.6169322834645667
20
-3.2198180314960627
11
4.6150575590551179
21
-3.221692834645669
0
LINE
8
BLACK
6
CONTINUOUS
10
4.6150575590551179
20
-3.221692834645669
11
4.6143344881889758
21
-3.2221991338582678
0
LINE
8
BLACK
6
CONTINUOUS
10
4.6143344881889758
20
-3.2221991338582678
11
4.6142901968503933
21
-3.2222459448818896
0
LINE
8
BLACK
6
CONTINUOUS
10
4.6142901968503933
20
-3.2222459448818896
11
4.610540708661417
21
-3.2241208267716535
0
LINE
8
BLACK
6
CONTINUOUS
10
4.610540708661417
20
-3.2241208267716535
11
4.6095577952755908
21
-3.2244132283464566
0
LINE
8
BLACK
6
CONTINUOUS
10
4.6095577952755908
20
-3.2244132283464566
11
4.6093860629921259
21
-3.2243722047244092
0
LINE
8
BLACK
6
CONTINUOUS
10
4.6093860629921259
20
-3.2243722047244092
11
4.6092201968503934
21
-3.2244325984251967
0
LINE
8
BLACK
6
CONTINUOUS
10
4.6092201968503934
20
-3.2244325984251967
11
4.5998463779527556
21
-3.224432874015748
0
LINE
8
BLACK
6
CONTINUOUS
10
4.5998463779527556
20
-3.224432874015748
11
4.5988364566929132
21
-3.2242548425196849
0
LINE
8
BLACK
6
CONTINUOUS
10
4.5988364566929132
20
-3.2242548425196849
11
4.5987011811023617
21
-3.2241413385826769
0
LINE
8
BLACK
6
CONTINUOUS
10
4.5987011811023617
20
-3.2241413385826769
11
4.5985258267716533
21
-3.2241211811023622
0
LINE
8
BLACK
6
CONTINUOUS
10
4.5985258267716533
20
-3.2241211811023622
11
4.5947762598425195
21
-3.2222464960629922
0
LINE
8
BLACK
6
CONTINUOUS
10
4.5947762598425195
20
-3.2222464960629922
11
4.5940672440944885
21
-3.22172062992126
0
LINE
8
BLACK
6
CONTINUOUS
10
4.5940672440944885
20
-3.22172062992126
11
4.5940088582677161
21
-3.2216934251968503
0
LINE
8
BLACK
6
CONTINUOUS
10
4.5940088582677161
20
-3.2216934251968503
11
4.5921340551181098
21
-3.2198187401574803
0
LINE
8
BLACK
6
CONTINUOUS
10
4.5921340551181098
20
-3.2198187401574803
11
4.5916277165354327
21
-3.2190956692913386
0
LINE
8
BLACK
6
CONTINUOUS
10
4.5916277165354327
20
-3.2190956692913386
11
4.5915809055118109
21
-3.2190513385826769
0
LINE
8
BLACK
6
CONTINUOUS
10
4.5915809055118109
20
-3.2190513385826769
11
4.589706023622047
21
-3.2153018503937005
0
LINE
8
BLACK
6
CONTINUOUS
10
4.589706023622047
20
-3.2153018503937005
11
4.5894136220472443
21
-3.214318937007874
0
LINE
8
BLACK
6
CONTINUOUS
10
4.5894136220472443
20
-3.214318937007874
11
4.5894546062992125
21
-3.2141472047244095
0
LINE
8
BLACK
6
CONTINUOUS
10
4.5894546062992125
20
-3.2141472047244095
11
4.5893942519685043
21
-3.213981338582677
0
LINE
8
BLACK
6
CONTINUOUS
10
4.5893942519685043
20
-3.213981338582677
11
4.5893940551181105
21
-3.2064822834645668
0
LINE
8
BLACK
6
CONTINUOUS
10
4.5893940551181105
20
-3.2064822834645668
11
4.5895720866141732
21
-3.2054723622047243
0
LINE
8
BLACK
6
CONTINUOUS
10
4.5895720866141732
20
-3.2054723622047243
11
4.5896855511811019
21
-3.2053370866141733
0
LINE
8
BLACK
6
CONTINUOUS
10
4.5896855511811019
20
-3.2053370866141733
11
4.5897057480314958
21
-3.2051617716535432
0
LINE
8
BLACK
6
CONTINUOUS
10
4.5897057480314958
20
-3.2051617716535432
11
4.5915803937007871
21
-3.2014121653543306
0
LINE
8
BLACK
6
CONTINUOUS
10
4.5915803937007871
20
-3.2014121653543306
11
4.5921062598425193
21
-3.2007030708661417
0
LINE
8
BLACK
6
CONTINUOUS
10
4.5921062598425193
20
-3.2007030708661417
11
4.5921335039370081
21
-3.2006447244094489
0
LINE
8
BLACK
6
CONTINUOUS
10
4.5921335039370081
20
-3.2006447244094489
11
4.5940082283464569
21
-3.1987699212598426
0
LINE
8
BLACK
6
CONTINUOUS
10
4.5940082283464569
20
-3.1987699212598426
11
4.5947312204724406
21
-3.1982636220472442
0
LINE
8
BLACK
6
CONTINUOUS
10
4.5947312204724406
20
-3.1982636220472442
11
4.5947755905511807
21
-3.198216811023622
0
LINE
8
BLACK
6
CONTINUOUS
10
4.5947755905511807
20
-3.198216811023622
11
4.598525078740157
21
-3.1963419291338582
0
LINE
8
BLACK
6
CONTINUOUS
10
4.598525078740157
20
-3.1963419291338582
11
4.5995080314960628
21
-3.196049527559055
0
LINE
8
BLACK
6
CONTINUOUS
10
4.5995080314960628
20
-3.196049527559055
11
4.5996796850393702
21
-3.1960905118110237
0
LINE
8
BLACK
6
CONTINUOUS
10
4.5996796850393702
20
-3.1960905118110237
11
4.5998455905511806
21
-3.1960301574803149
0
LINE
8
BLACK
6
CONTINUOUS
10
4.5998455905511806
20
-3.1960301574803149
11
4.614843700787401
21
-3.1960297244094487
0
LINE
8
BLACK
6
CONTINUOUS
10
4.614843700787401
20
-3.1960297244094487
11
4.6154241338582676
21
-3.1961320472440944
0
LINE
8
BLACK
6
CONTINUOUS
10
4.6005427952755902
20
-3.2019356299212598
11
4.5978453149606295
21
-3.2032844488188976
0
LINE
8
BLACK
6
CONTINUOUS
10
4.5978453149606295
20
-3.2032844488188976
11
4.5966482283464565
21
-3.2044816141732282
0
LINE
8
BLACK
6
CONTINUOUS
10
4.5966482283464565
20
-3.2044816141732282
11
4.5952995669291337
21
-3.2071791338582676
0
LINE
8
BLACK
6
CONTINUOUS
10
4.5952995669291337
20
-3.2071791338582676
11
4.5952997244094487
21
-3.2132840944881891
0
LINE
8
BLACK
6
CONTINUOUS
10
4.5952997244094487
20
-3.2132840944881891
11
4.5966485433070865
21
-3.2159815748031497
0
LINE
8
BLACK
6
CONTINUOUS
10
4.5966485433070865
20
-3.2159815748031497
11
4.5978457086614171
21
-3.217178622047244
0
LINE
8
BLACK
6
CONTINUOUS
10
4.5978457086614171
20
-3.217178622047244
11
4.6005432283464565
21
-3.2185273228346456
0
LINE
8
BLACK
6
CONTINUOUS
10
4.6005432283464565
20
-3.2185273228346456
11
4.6085229527559051
21
-3.2185270866141731
0
LINE
8
BLACK
6
CONTINUOUS
10
4.6085229527559051
20
-3.2185270866141731
11
4.6112204330708657
21
-3.2171782677165353
0
LINE
8
BLACK
6
CONTINUOUS
10
4.6112204330708657
20
-3.2171782677165353
11
4.6124175196850397
21
-3.2159811023622047
0
LINE
8
BLACK
6
CONTINUOUS
10
4.6124175196850397
20
-3.2159811023622047
11
4.6137661811023625
21
-3.2132835826771653
0
LINE
8
BLACK
6
CONTINUOUS
10
4.6137661811023625
20
-3.2132835826771653
11
4.6137660236220475
21
-3.2071786220472442
0
LINE
8
BLACK
6
CONTINUOUS
10
4.6137660236220475
20
-3.2071786220472442
11
4.6124172047244096
21
-3.2044811811023624
0
LINE
8
BLACK
6
CONTINUOUS
10
4.6124172047244096
20
-3.2044811811023624
11
4.6112200393700791
21
-3.2032841338582676
0
LINE
8
BLACK
6
CONTINUOUS
10
4.6112200393700791
20
-3.2032841338582676
11
4.6085224803149609
21
-3.2019353937007873
0
LINE
8
BLACK
6
CONTINUOUS
10
4.6085224803149609
20
-3.2019353937007873
11
4.6005427952755902
21
-3.2019356299212598
0
LINE
8
BLACK
6
CONTINUOUS
10
4.5947195275590547
20
-3.1774064566929132
11
4.5949849212598428
21
-3.1773832677165355
0
LINE
8
BLACK
6
CONTINUOUS
10
4.5949849212598428
20
-3.1773832677165355
11
4.5956133070866141
21
-3.1778232283464565
0
LINE
8
BLACK
6
CONTINUOUS
10
4.5956133070866141
20
-3.1778232283464565
11
4.5963086614173223
21
-3.178147440944882
0
LINE
8
BLACK
6
CONTINUOUS
10
4.5963086614173223
20
-3.178147440944882
11
4.5981835039370074
21
-3.1800221653543308
0
LINE
8
BLACK
6
CONTINUOUS
10
4.5981835039370074
20
-3.1800221653543308
11
4.5984069291338585
21
-3.1803412204724411
0
LINE
8
BLACK
6
CONTINUOUS
10
4.5984069291338585
20
-3.1803412204724411
11
4.5985144094488186
21
-3.1804164960629921
0
LINE
8
BLACK
6
CONTINUOUS
10
4.5985144094488186
20
-3.1804164960629921
11
4.5985483464566927
21
-3.1805431889763778
0
LINE
8
BLACK
6
CONTINUOUS
10
4.5985483464566927
20
-3.1805431889763778
11
4.5985531889763775
21
-3.180550118110236
0
LINE
8
BLACK
6
CONTINUOUS
10
4.5985531889763775
20
-3.180550118110236
11
4.5986527952755907
21
-3.1806337007874017
0
LINE
8
BLACK
6
CONTINUOUS
10
4.5986527952755907
20
-3.1806337007874017
11
4.5986666141732284
21
-3.1807120866141734
0
LINE
8
BLACK
6
CONTINUOUS
10
4.5986666141732284
20
-3.1807120866141734
11
4.5987717322834643
21
-3.1808622047244093
0
LINE
8
BLACK
6
CONTINUOUS
10
4.5987717322834643
20
-3.1808622047244093
11
4.5988386220472437
21
-3.1816264566929133
0
LINE
8
BLACK
6
CONTINUOUS
10
4.5988386220472437
20
-3.1816264566929133
11
4.5990371653543303
21
-3.1823674409448817
0
LINE
8
BLACK
6
CONTINUOUS
10
4.5990371653543303
20
-3.1823674409448817
11
4.5989801181102363
21
-3.1824897637795275
0
LINE
8
BLACK
6
CONTINUOUS
10
4.5989801181102363
20
-3.1824897637795275
11
4.5990035826771649
21
-3.1826228346456693
0
LINE
8
BLACK
6
CONTINUOUS
10
4.5990035826771649
20
-3.1826228346456693
11
4.5989360236220476
21
-3.1827397637795274
0
LINE
8
BLACK
6
CONTINUOUS
10
4.5989360236220476
20
-3.1827397637795274
11
4.5989478346456689
21
-3.1828742913385826
0
LINE
8
BLACK
6
CONTINUOUS
10
4.5989478346456689
20
-3.1828742913385826
11
4.5985077559055121
21
-3.1835027952755905
0
LINE
8
BLACK
6
CONTINUOUS
10
4.5985077559055121
20
-3.1835027952755905
11
4.5981836220472436
21
-3.184198031496063
0
LINE
8
BLACK
6
CONTINUOUS
10
4.5981836220472436
20
-3.184198031496063
11
4.5963088976377948
21
-3.1860728346456693
0
LINE
8
BLACK
6
CONTINUOUS
10
4.5963088976377948
20
-3.1860728346456693
11
4.5959898818897633
21
-3.186296181102362
0
LINE
8
BLACK
6
CONTINUOUS
10
4.5959898818897633
20
-3.186296181102362
11
4.595914645669291
21
-3.1864037007874013
0
LINE
8
BLACK
6
CONTINUOUS
10
4.595914645669291
20
-3.1864037007874013
11
4.5957878740157483
21
-3.1864376377952754
0
LINE
8
BLACK
6
CONTINUOUS
10
4.5957878740157483
20
-3.1864376377952754
11
4.5954688582677168
21
-3.1866610629921257
0
LINE
8
BLACK
6
CONTINUOUS
10
4.5954688582677168
20
-3.1866610629921257
11
4.5947046850393702
21
-3.1867279133858268
0
LINE
8
BLACK
6
CONTINUOUS
10
4.5947046850393702
20
-3.1867279133858268
11
4.5939637007874019
21
-3.1869264960629922
0
LINE
8
BLACK
6
CONTINUOUS
10
4.5939637007874019
20
-3.1869264960629922
11
4.5937222047244095
21
-3.1868138976377951
0
LINE
8
BLACK
6
CONTINUOUS
10
4.5937222047244095
20
-3.1868138976377951
11
4.5934567716535435
21
-3.1868371259842521
0
LINE
8
BLACK
6
CONTINUOUS
10
4.5934567716535435
20
-3.1868371259842521
11
4.5928283070866138
21
-3.1863970866141731
0
LINE
8
BLACK
6
CONTINUOUS
10
4.5928283070866138
20
-3.1863970866141731
11
4.5921331102362206
21
-3.1860729527559055
0
LINE
8
BLACK
6
CONTINUOUS
10
4.5921331102362206
20
-3.1860729527559055
11
4.5902583070866143
21
-3.1841982677165355
0
LINE
8
BLACK
6
CONTINUOUS
10
4.5902583070866143
20
-3.1841982677165355
11
4.5900349212598428
21
-3.183879251968504
0
LINE
8
BLACK
6
CONTINUOUS
10
4.5900349212598428
20
-3.183879251968504
11
4.5899274409448818
21
-3.1838040157480316
0
LINE
8
BLACK
6
CONTINUOUS
10
4.5899274409448818
20
-3.1838040157480316
11
4.5898934645669289
21
-3.183677244094488
0
LINE
8
BLACK
6
CONTINUOUS
10
4.5898934645669289
20
-3.183677244094488
11
4.5898885826771654
21
-3.183670275590551
0
LINE
8
BLACK
6
CONTINUOUS
10
4.5898885826771654
20
-3.183670275590551
11
4.589789015748031
21
-3.1835867322834646
0
LINE
8
BLACK
6
CONTINUOUS
10
4.589789015748031
20
-3.1835867322834646
11
4.5897751574803145
21
-3.1835083070866141
0
LINE
8
BLACK
6
CONTINUOUS
10
4.5897751574803145
20
-3.1835083070866141
11
4.5896700787401574
21
-3.1833582283464565
0
LINE
8
BLACK
6
CONTINUOUS
10
4.5896700787401574
20
-3.1833582283464565
11
4.589603188976378
21
-3.1825940944881888
0
LINE
8
BLACK
6
CONTINUOUS
10
4.589603188976378
20
-3.1825940944881888
11
4.5894046062992127
21
-3.1818530708661417
0
LINE
8
BLACK
6
CONTINUOUS
10
4.5894046062992127
20
-3.1818530708661417
11
4.5894616535433066
21
-3.18173062992126
0
LINE
8
BLACK
6
CONTINUOUS
10
4.5894616535433066
20
-3.18173062992126
11
4.5894382283464568
21
-3.181597598425197
0
LINE
8
BLACK
6
CONTINUOUS
10
4.5894382283464568
20
-3.181597598425197
11
4.5895057480314962
21
-3.1814806299212597
0
LINE
8
BLACK
6
CONTINUOUS
10
4.5895057480314962
20
-3.1814806299212597
11
4.5894939763779528
21
-3.1813461417322833
0
LINE
8
BLACK
6
CONTINUOUS
10
4.5894939763779528
20
-3.1813461417322833
11
4.589933976377953
21
-3.1807176771653545
0
LINE
8
BLACK
6
CONTINUOUS
10
4.589933976377953
20
-3.1807176771653545
11
4.5902581496062993
21
-3.1800224409448816
0
LINE
8
BLACK
6
CONTINUOUS
10
4.5902581496062993
20
-3.1800224409448816
11
4.5921327952755906
21
-3.1781476377952753
0
LINE
8
BLACK
6
CONTINUOUS
10
4.5921327952755906
20
-3.1781476377952753
11
4.5924518110236221
21
-3.1779241732283463
0
LINE
8
BLACK
6
CONTINUOUS
10
4.5924518110236221
20
-3.1779241732283463
11
4.5925271259842519
21
-3.1778166929133858
0
LINE
8
BLACK
6
CONTINUOUS
10
4.5925271259842519
20
-3.1778166929133858
11
4.5926538582677168
21
-3.1777827165354329
0
LINE
8
BLACK
6
CONTINUOUS
10
4.5926538582677168
20
-3.1777827165354329
11
4.5929728346456695
21
-3.1775593700787401
0
LINE
8
BLACK
6
CONTINUOUS
10
4.5929728346456695
20
-3.1775593700787401
11
4.5937369291338586
21
-3.1774924803149607
0
LINE
8
BLACK
6
CONTINUOUS
10
4.5937369291338586
20
-3.1774924803149607
11
4.5944780708661419
21
-3.1772938976377954
0
LINE
8
BLACK
6
CONTINUOUS
10
4.5944780708661419
20
-3.1772938976377954
11
4.5947195275590547
21
-3.1774064566929132
0
LINE
8
BLACK
6
CONTINUOUS
10
4.6132423228346457
20
-3.1398062598425196
11
4.6132611811023621
21
-3.1398014960629919
0
LINE
8
BLACK
6
CONTINUOUS
10
4.6132611811023621
20
-3.1398014960629919
11
4.6320088976377951
21
-3.1416757086614173
0
LINE
8
BLACK
6
CONTINUOUS
10
4.6320088976377951
20
-3.1416757086614173
11
4.6321592519685035
21
-3.1417179921259843
0
LINE
8
BLACK
6
CONTINUOUS
10
4.6321592519685035
20
-3.1417179921259843
11
4.6322278346456693
21
-3.1417059055118108
0
LINE
8
BLACK
6
CONTINUOUS
10
4.6322278346456693
20
-3.1417059055118108
11
4.632333779527559
21
-3.1417670472440946
0
LINE
8
BLACK
6
CONTINUOUS
10
4.632333779527559
20
-3.1417670472440946
11
4.6329961023622044
21
-3.1419533464566927
0
LINE
8
BLACK
6
CONTINUOUS
10
4.6329961023622044
20
-3.1419533464566927
11
4.6334340157480316
21
-3.1424022440944883
0
LINE
8
BLACK
6
CONTINUOUS
10
4.6334340157480316
20
-3.1424022440944883
11
4.6339770472440946
21
-3.1427157480314958
0
LINE
8
BLACK
6
CONTINUOUS
10
4.6339770472440946
20
-3.1427157480314958
11
4.6341181889763776
21
-3.1431035826771652
0
LINE
8
BLACK
6
CONTINUOUS
10
4.6341181889763776
20
-3.1431035826771652
11
4.6344065354330706
21
-3.1433991338582676
0
LINE
8
BLACK
6
CONTINUOUS
10
4.6344065354330706
20
-3.1433991338582676
11
4.6344534251968499
21
-3.144024527559055
0
LINE
8
BLACK
6
CONTINUOUS
10
4.6344534251968499
20
-3.144024527559055
11
4.6346679133858268
21
-3.1446137401574803
0
LINE
8
BLACK
6
CONTINUOUS
10
4.6346679133858268
20
-3.1446137401574803
11
4.6346684251968506
21
-3.1633614173228346
0
LINE
8
BLACK
6
CONTINUOUS
10
4.6346684251968506
20
-3.1633614173228346
11
4.6344903937007871
21
-3.1643713385826771
0
LINE
8
BLACK
6
CONTINUOUS
10
4.6344903937007871
20
-3.1643713385826771
11
4.6331921259842517
21
-3.1659186220472439
0
LINE
8
BLACK
6
CONTINUOUS
10
4.6331921259842517
20
-3.1659186220472439
11
4.6312029921259841
21
-3.1662694094488186
0
LINE
8
BLACK
6
CONTINUOUS
10
4.6312029921259841
20
-3.1662694094488186
11
4.6294537795275588
21
-3.1652595669291337
0
LINE
8
BLACK
6
CONTINUOUS
10
4.6294537795275588
20
-3.1652595669291337
11
4.6287629133858266
21
-3.1633615748031496
0
LINE
8
BLACK
6
CONTINUOUS
10
4.6287629133858266
20
-3.1633615748031496
11
4.6287624409448815
21
-3.1472861023622047
0
LINE
8
BLACK
6
CONTINUOUS
10
4.6287624409448815
20
-3.1472861023622047
11
4.6189911023622043
21
-3.1463092519685039
0
LINE
8
BLACK
6
CONTINUOUS
10
4.6189911023622043
20
-3.1463092519685039
11
4.6193581102362202
21
-3.1470431889763777
0
LINE
8
BLACK
6
CONTINUOUS
10
4.6193581102362202
20
-3.1470431889763777
11
4.6196505118110238
21
-3.1480261417322835
0
LINE
8
BLACK
6
CONTINUOUS
10
4.6196505118110238
20
-3.1480261417322835
11
4.619609488188976
21
-3.1481977952755904
0
LINE
8
BLACK
6
CONTINUOUS
10
4.619609488188976
20
-3.1481977952755904
11
4.6196698818897639
21
-3.1483637007874017
0
LINE
8
BLACK
6
CONTINUOUS
10
4.6196698818897639
20
-3.1483637007874017
11
4.6196701574803152
21
-3.1577375196850395
0
LINE
8
BLACK
6
CONTINUOUS
10
4.6196701574803152
20
-3.1577375196850395
11
4.6194921259842516
21
-3.1587474409448819
0
LINE
8
BLACK
6
CONTINUOUS
10
4.6194921259842516
20
-3.1587474409448819
11
4.6193786220472441
21
-3.1588826771653542
0
LINE
8
BLACK
6
CONTINUOUS
10
4.6193786220472441
20
-3.1588826771653542
11
4.619358464566929
21
-3.1590580708661418
0
LINE
8
BLACK
6
CONTINUOUS
10
4.619358464566929
20
-3.1590580708661418
11
4.617483779527559
21
-3.1628076377952756
0
LINE
8
BLACK
6
CONTINUOUS
10
4.617483779527559
20
-3.1628076377952756
11
4.6169579133858267
21
-3.1635166141732283
0
LINE
8
BLACK
6
CONTINUOUS
10
4.6169579133858267
20
-3.1635166141732283
11
4.6169307086614175
21
-3.1635750393700786
0
LINE
8
BLACK
6
CONTINUOUS
10
4.6169307086614175
20
-3.1635750393700786
11
4.6150560236220475
21
-3.1654498425196849
0
LINE
8
BLACK
6
CONTINUOUS
10
4.6150560236220475
20
-3.1654498425196849
11
4.6143329527559054
21
-3.1659561417322832
0
LINE
8
BLACK
6
CONTINUOUS
10
4.6143329527559054
20
-3.1659561417322832
11
4.6142886220472441
21
-3.1660029921259842
0
LINE
8
BLACK
6
CONTINUOUS
10
4.6142886220472441
20
-3.1660029921259842
11
4.6105391338582677
21
-3.1678778740157481
0
LINE
8
BLACK
6
CONTINUOUS
10
4.6105391338582677
20
-3.1678778740157481
11
4.6095562204724407
21
-3.1681702755905512
0
LINE
8
BLACK
6
CONTINUOUS
10
4.6095562204724407
20
-3.1681702755905512
11
4.6093844881889758
21
-3.1681292519685038
0
LINE
8
BLACK
6
CONTINUOUS
10
4.6093844881889758
20
-3.1681292519685038
11
4.6092186220472442
21
-3.1681896456692913
0
LINE
8
BLACK
6
CONTINUOUS
10
4.6092186220472442
20
-3.1681896456692913
11
4.5998448031496064
21
-3.1681899212598426
0
LINE
8
BLACK
6
CONTINUOUS
10
4.5998448031496064
20
-3.1681899212598426
11
4.598834881889764
21
-3.1680118897637795
0
LINE
8
BLACK
6
CONTINUOUS
10
4.598834881889764
20
-3.1680118897637795
11
4.5986996062992125
21
-3.1678983858267715
0
LINE
8
BLACK
6
CONTINUOUS
10
4.5986996062992125
20
-3.1678983858267715
11
4.5985242519685041
21
-3.1678782283464568
0
LINE
8
BLACK
6
CONTINUOUS
10
4.5985242519685041
20
-3.1678782283464568
11
4.5947746850393703
21
-3.1660035433070863
0
LINE
8
BLACK
6
CONTINUOUS
10
4.5947746850393703
20
-3.1660035433070863
11
4.5940656692913384
21
-3.1654776771653541
0
LINE
8
BLACK
6
CONTINUOUS
10
4.5940656692913384
20
-3.1654776771653541
11
4.5940072834645669
21
-3.1654504724409449
0
LINE
8
BLACK
6
CONTINUOUS
10
4.5940072834645669
20
-3.1654504724409449
11
4.5921324803149606
21
-3.1635757874015749
0
LINE
8
BLACK
6
CONTINUOUS
10
4.5921324803149606
20
-3.1635757874015749
11
4.5916261417322835
21
-3.1628527165354332
0
LINE
8
BLACK
6
CONTINUOUS
10
4.5916261417322835
20
-3.1628527165354332
11
4.5915793307086616
21
-3.1628083858267715
0
LINE
8
BLACK
6
CONTINUOUS
10
4.5915793307086616
20
-3.1628083858267715
11
4.5897044488188978
21
-3.1590588976377951
0
LINE
8
BLACK
6
CONTINUOUS
10
4.5897044488188978
20
-3.1590588976377951
11
4.5894120472440942
21
-3.1580759842519686
0
LINE
8
BLACK
6
CONTINUOUS
10
4.5894120472440942
20
-3.1580759842519686
11
4.5894530314960633
21
-3.1579042519685037
0
LINE
8
BLACK
6
CONTINUOUS
10
4.5894530314960633
20
-3.1579042519685037
11
4.5893926771653542
21
-3.1577383858267716
0
LINE
8
BLACK
6
CONTINUOUS
10
4.5893926771653542
20
-3.1577383858267716
11
4.5893924409448816
21
-3.1483645669291338
0
LINE
8
BLACK
6
CONTINUOUS
10
4.5893924409448816
20
-3.1483645669291338
11
4.5895704724409452
21
-3.1473546456692914
0
LINE
8
BLACK
6
CONTINUOUS
10
4.5895704724409452
20
-3.1473546456692914
11
4.5896839370078739
21
-3.1472193700787399
0
LINE
8
BLACK
6
CONTINUOUS
10
4.5896839370078739
20
-3.1472193700787399
11
4.5897041338582678
21
-3.1470440551181103
0
LINE
8
BLACK
6
CONTINUOUS
10
4.5897041338582678
20
-3.1470440551181103
11
4.5915787795275591
21
-3.1432944488188976
0
LINE
8
BLACK
6
CONTINUOUS
10
4.5915787795275591
20
-3.1432944488188976
11
4.5921046456692913
21
-3.1425853543307087
0
LINE
8
BLACK
6
CONTINUOUS
10
4.5921046456692913
20
-3.1425853543307087
11
4.5921318897637793
21
-3.1425270078740155
0
LINE
8
BLACK
6
CONTINUOUS
10
4.5921318897637793
20
-3.1425270078740155
11
4.5940066141732281
21
-3.1406522047244092
0
LINE
8
BLACK
6
CONTINUOUS
10
4.5940066141732281
20
-3.1406522047244092
11
4.5948466141732283
21
-3.1400640157480315
0
LINE
8
BLACK
6
CONTINUOUS
10
4.5948466141732283
20
-3.1400640157480315
11
4.5968587401574803
21
-3.1398879133858268
0
LINE
8
BLACK
6
CONTINUOUS
10
4.5968587401574803
20
-3.1398879133858268
11
4.5985133070866144
21
-3.1410464173228347
0
LINE
8
BLACK
6
CONTINUOUS
10
4.5985133070866144
20
-3.1410464173228347
11
4.5990360629921261
21
-3.1429973622047243
0
LINE
8
BLACK
6
CONTINUOUS
10
4.5990360629921261
20
-3.1429973622047243
11
4.5981825196850394
21
-3.1448279527559055
0
LINE
8
BLACK
6
CONTINUOUS
10
4.5981825196850394
20
-3.1448279527559055
11
4.5966466141732285
21
-3.1463638976377952
0
LINE
8
BLACK
6
CONTINUOUS
10
4.5966466141732285
20
-3.1463638976377952
11
4.5952979527559057
21
-3.1490614173228346
0
LINE
8
BLACK
6
CONTINUOUS
10
4.5952979527559057
20
-3.1490614173228346
11
4.5952981496062995
21
-3.1570411417322832
0
LINE
8
BLACK
6
CONTINUOUS
10
4.5952981496062995
20
-3.1570411417322832
11
4.5966469685039373
21
-3.1597386220472439
0
LINE
8
BLACK
6
CONTINUOUS
10
4.5966469685039373
20
-3.1597386220472439
11
4.5978441338582678
21
-3.1609356692913386
0
LINE
8
BLACK
6
CONTINUOUS
10
4.5978441338582678
20
-3.1609356692913386
11
4.6005416535433072
21
-3.1622843700787402
0
LINE
8
BLACK
6
CONTINUOUS
10
4.6005416535433072
20
-3.1622843700787402
11
4.6085213779527558
21
-3.1622841338582677
0
LINE
8
BLACK
6
CONTINUOUS
10
4.6085213779527558
20
-3.1622841338582677
11
4.6112188582677165
21
-3.1609353149606298
0
LINE
8
BLACK
6
CONTINUOUS
10
4.6112188582677165
20
-3.1609353149606298
11
4.6124159055118108
21
-3.1597381496062993
0
LINE
8
BLACK
6
CONTINUOUS
10
4.6124159055118108
20
-3.1597381496062993
11
4.6137646062992124
21
-3.1570406299212599
0
LINE
8
BLACK
6
CONTINUOUS
10
4.6137646062992124
20
-3.1570406299212599
11
4.6137643700787399
21
-3.1490609055118108
0
LINE
8
BLACK
6
CONTINUOUS
10
4.6137643700787399
20
-3.1490609055118108
11
4.612415551181102
21
-3.1463634251968502
0
LINE
8
BLACK
6
CONTINUOUS
10
4.612415551181102
20
-3.1463634251968502
11
4.6108796062992123
21
-3.1448275984251968
0
LINE
8
BLACK
6
CONTINUOUS
10
4.6108796062992123
20
-3.1448275984251968
11
4.6102913779527555
21
-3.1439875590551178
0
LINE
8
BLACK
6
CONTINUOUS
10
4.6102913779527555
20
-3.1439875590551178
11
4.6102896456692912
21
-3.1439681889763778
0
LINE
8
BLACK
6
CONTINUOUS
10
4.6102896456692912
20
-3.1439681889763778
11
4.6102761023622048
21
-3.1439542913385825
0
LINE
8
BLACK
6
CONTINUOUS
10
4.6102761023622048
20
-3.1439542913385825
11
4.6102017716535428
21
-3.1429638188976377
0
LINE
8
BLACK
6
CONTINUOUS
10
4.6102017716535428
20
-3.1429638188976377
11
4.6101152755905508
21
-3.141975472440945
0
LINE
8
BLACK
6
CONTINUOUS
10
4.6101152755905508
20
-3.141975472440945
11
4.6101264173228342
21
-3.1419595275590551
0
LINE
8
BLACK
6
CONTINUOUS
10
4.6101264173228342
20
-3.1419595275590551
11
4.6101249606299213
21
-3.1419401181102362
0
LINE
8
BLACK
6
CONTINUOUS
10
4.6101249606299213
20
-3.1419401181102362
11
4.6107048425196853
21
-3.1411333464566926
0
LINE
8
BLACK
6
CONTINUOUS
10
4.6107048425196853
20
-3.1411333464566926
11
4.6112737401574799
21
-3.1403208661417321
0
LINE
8
BLACK
6
CONTINUOUS
10
4.6112737401574799
20
-3.1403208661417321
11
4.6112925196850396
21
-3.1403158267716536
0
LINE
8
BLACK
6
CONTINUOUS
10
4.6112925196850396
20
-3.1403158267716536
11
4.6113038582677168
21
-3.1403000787401574
0
LINE
8
BLACK
6
CONTINUOUS
10
4.6113038582677168
20
-3.1403000787401574
11
4.6122640551181098
21
-3.1400554724409449
0
LINE
8
BLACK
6
CONTINUOUS
10
4.6122640551181098
20
-3.1400554724409449
11
4.6132246850393699
21
-3.1397980708661417
0
LINE
8
BLACK
6
CONTINUOUS
10
4.6132246850393699
20
-3.1397980708661417
11
4.6132423228346457
21
-3.1398062598425196
0
LINE
8
BLACK
6
CONTINUOUS
10
4.6339758661417321
20
-3.1014709055118108
11
4.6346667322834643
21
-3.1033688976377953
0
LINE
8
BLACK
6
CONTINUOUS
10
4.6346667322834643
20
-3.1033688976377953
11
4.6346674409448818
21
-3.1277408661417323
0
LINE
8
BLACK
6
CONTINUOUS
10
4.6346674409448818
20
-3.1277408661417323
11
4.634590354330709
21
-3.1281781102362203
0
LINE
8
BLACK
6
CONTINUOUS
10
4.634590354330709
20
-3.1281781102362203
11
4.6346113779527558
21
-3.1283137007874013
0
LINE
8
BLACK
6
CONTINUOUS
10
4.6346113779527558
20
-3.1283137007874013
11
4.6345479921259845
21
-3.1284183858267718
0
LINE
8
BLACK
6
CONTINUOUS
10
4.6345479921259845
20
-3.1284183858267718
11
4.6344894094488192
21
-3.1287507874015748
0
LINE
8
BLACK
6
CONTINUOUS
10
4.6344894094488192
20
-3.1287507874015748
11
4.6339776771653538
21
-3.1293606299212597
0
LINE
8
BLACK
6
CONTINUOUS
10
4.6339776771653538
20
-3.1293606299212597
11
4.6335655118110237
21
-3.1300416535433069
0
LINE
8
BLACK
6
CONTINUOUS
10
4.6335655118110237
20
-3.1300416535433069
11
4.6333425196850389
21
-3.1301175984251968
0
LINE
8
BLACK
6
CONTINUOUS
10
4.6333425196850389
20
-3.1301175984251968
11
4.6331911417322837
21
-3.1302980708661416
0
LINE
8
BLACK
6
CONTINUOUS
10
4.6331911417322837
20
-3.1302980708661416
11
4.6324071653543308
21
-3.1304362992125983
0
LINE
8
BLACK
6
CONTINUOUS
10
4.6324071653543308
20
-3.1304362992125983
11
4.6316536614173227
21
-3.1306930708661418
0
LINE
8
BLACK
6
CONTINUOUS
10
4.6316536614173227
20
-3.1306930708661418
11
4.6314339763779531
21
-3.1306079133858269
0
LINE
8
BLACK
6
CONTINUOUS
10
4.6314339763779531
20
-3.1306079133858269
11
4.6312020078740153
21
-3.1306488582677163
0
LINE
8
BLACK
6
CONTINUOUS
10
4.6312020078740153
20
-3.1306488582677163
11
4.6305125590551182
21
-3.1302508267716536
0
LINE
8
BLACK
6
CONTINUOUS
10
4.6305125590551182
20
-3.1302508267716536
11
4.6297703543307085
21
-3.1299631889763777
0
LINE
8
BLACK
6
CONTINUOUS
10
4.6297703543307085
20
-3.1299631889763777
11
4.6195342519685036
21
-3.1210070866141733
0
LINE
8
BLACK
6
CONTINUOUS
10
4.6195342519685036
20
-3.1210070866141733
11
4.6194910629921262
21
-3.1212521259842521
0
LINE
8
BLACK
6
CONTINUOUS
10
4.6194910629921262
20
-3.1212521259842521
11
4.6193775590551178
21
-3.1213873622047243
0
LINE
8
BLACK
6
CONTINUOUS
10
4.6193775590551178
20
-3.1213873622047243
11
4.6193574015748027
21
-3.1215627165354332
0
LINE
8
BLACK
6
CONTINUOUS
10
4.6193574015748027
20
-3.1215627165354332
11
4.6174827559055114
21
-3.1253123228346458
0
LINE
8
BLACK
6
CONTINUOUS
10
4.6174827559055114
20
-3.1253123228346458
11
4.6169568897637792
21
-3.1260212992125984
0
LINE
8
BLACK
6
CONTINUOUS
10
4.6169568897637792
20
-3.1260212992125984
11
4.6169296456692912
21
-3.1260797637795275
0
LINE
8
BLACK
6
CONTINUOUS
10
4.6169296456692912
20
-3.1260797637795275
11
4.6150549212598424
21
-3.1279545669291338
0
LINE
8
BLACK
6
CONTINUOUS
10
4.6150549212598424
20
-3.1279545669291338
11
4.6143318503937003
21
-3.1284608661417321
0
LINE
8
BLACK
6
CONTINUOUS
10
4.6143318503937003
20
-3.1284608661417321
11
4.6142875590551178
21
-3.1285076771653544
0
LINE
8
BLACK
6
CONTINUOUS
10
4.6142875590551178
20
-3.1285076771653544
11
4.6105380708661414
21
-3.1303825590551182
0
LINE
8
BLACK
6
CONTINUOUS
10
4.6105380708661414
20
-3.1303825590551182
11
4.6095551574803144
21
-3.1306749606299213
0
LINE
8
BLACK
6
CONTINUOUS
10
4.6095551574803144
20
-3.1306749606299213
11
4.6093834251968504
21
-3.130633937007874
0
LINE
8
BLACK
6
CONTINUOUS
10
4.6093834251968504
20
-3.130633937007874
11
4.6092175590551179
21
-3.1306943307086614
0
LINE
8
BLACK
6
CONTINUOUS
10
4.6092175590551179
20
-3.1306943307086614
11
4.5998437401574801
21
-3.1306946062992127
0
LINE
8
BLACK
6
CONTINUOUS
10
4.5998437401574801
20
-3.1306946062992127
11
4.5988338188976376
21
-3.1305165748031496
0
LINE
8
BLACK
6
CONTINUOUS
10
4.5988338188976376
20
-3.1305165748031496
11
4.5986985433070862
21
-3.1304030708661417
0
LINE
8
BLACK
6
CONTINUOUS
10
4.5986985433070862
20
-3.1304030708661417
11
4.5985231889763778
21
-3.1303829133858265
0
LINE
8
BLACK
6
CONTINUOUS
10
4.5985231889763778
20
-3.1303829133858265
11
4.5947736220472439
21
-3.1285082283464565
0
LINE
8
BLACK
6
CONTINUOUS
10
4.5947736220472439
20
-3.1285082283464565
11
4.5940646062992121
21
-3.1279823622047243
0
LINE
8
BLACK
6
CONTINUOUS
10
4.5940646062992121
20
-3.1279823622047243
11
4.5940062598425193
21
-3.1279551574803151
0
LINE
8
BLACK
6
CONTINUOUS
10
4.5940062598425193
20
-3.1279551574803151
11
4.5921314173228343
21
-3.126080472440945
0
LINE
8
BLACK
6
CONTINUOUS
10
4.5921314173228343
20
-3.126080472440945
11
4.5916249999999996
21
-3.1253573228346454
0
LINE
8
BLACK
6
CONTINUOUS
10
4.5916249999999996
20
-3.1253573228346454
11
4.5915782677165353
21
-3.1253130708661416
0
LINE
8
BLACK
6
CONTINUOUS
10
4.5915782677165353
20
-3.1253130708661416
11
4.5897033858267715
21
-3.1215635826771653
0
LINE
8
BLACK
6
CONTINUOUS
10
4.5897033858267715
20
-3.1215635826771653
11
4.5894109842519688
21
-3.1205806692913387
0
LINE
8
BLACK
6
CONTINUOUS
10
4.5894109842519688
20
-3.1205806692913387
11
4.589451968503937
21
-3.1204089370078738
0
LINE
8
BLACK
6
CONTINUOUS
10
4.589451968503937
20
-3.1204089370078738
11
4.5893916141732278
21
-3.1202430708661417
0
LINE
8
BLACK
6
CONTINUOUS
10
4.5893916141732278
20
-3.1202430708661417
11
4.5893912992125987
21
-3.1089944881889764
0
LINE
8
BLACK
6
CONTINUOUS
10
4.5893912992125987
20
-3.1089944881889764
11
4.5895693307086614
21
-3.1079845669291339
0
LINE
8
BLACK
6
CONTINUOUS
10
4.5895693307086614
20
-3.1079845669291339
11
4.5896827952755901
21
-3.1078492913385825
0
LINE
8
BLACK
6
CONTINUOUS
10
4.5896827952755901
20
-3.1078492913385825
11
4.589702992125984
21
-3.1076739763779528
0
LINE
8
BLACK
6
CONTINUOUS
10
4.589702992125984
20
-3.1076739763779528
11
4.591577677165354
21
-3.1039243700787402
0
LINE
8
BLACK
6
CONTINUOUS
10
4.591577677165354
20
-3.1039243700787402
11
4.5921035433070863
21
-3.1032152755905513
0
LINE
8
BLACK
6
CONTINUOUS
10
4.5921035433070863
20
-3.1032152755905513
11
4.5921307874015751
21
-3.1031569291338581
0
LINE
8
BLACK
6
CONTINUOUS
10
4.5921307874015751
20
-3.1031569291338581
11
4.5940055118110239
21
-3.1012821259842518
0
LINE
8
BLACK
6
CONTINUOUS
10
4.5940055118110239
20
-3.1012821259842518
11
4.5948455118110232
21
-3.1006939370078741
0
LINE
8
BLACK
6
CONTINUOUS
10
4.5948455118110232
20
-3.1006939370078741
11
4.5968576377952752
21
-3.1005178346456694
0
LINE
8
BLACK
6
CONTINUOUS
10
4.5968576377952752
20
-3.1005178346456694
11
4.5985122047244094
21
-3.1016763385826769
0
LINE
8
BLACK
6
CONTINUOUS
10
4.5985122047244094
20
-3.1016763385826769
11
4.599034960629921
21
-3.1036272834645668
0
LINE
8
BLACK
6
CONTINUOUS
10
4.599034960629921
20
-3.1036272834645668
11
4.5981814173228344
21
-3.1054578740157481
0
LINE
8
BLACK
6
CONTINUOUS
10
4.5981814173228344
20
-3.1054578740157481
11
4.5966455118110234
21
-3.1069937795275591
0
LINE
8
BLACK
6
CONTINUOUS
10
4.5966455118110234
20
-3.1069937795275591
11
4.5952968110236219
21
-3.109691377952756
0
LINE
8
BLACK
6
CONTINUOUS
10
4.5952968110236219
20
-3.109691377952756
11
4.5952970866141731
21
-3.1195458267716534
0
LINE
8
BLACK
6
CONTINUOUS
10
4.5952970866141731
20
-3.1195458267716534
11
4.596645905511811
21
-3.1222432677165353
0
LINE
8
BLACK
6
CONTINUOUS
10
4.596645905511811
20
-3.1222432677165353
11
4.5978430708661415
21
-3.12344031496063
0
LINE
8
BLACK
6
CONTINUOUS
10
4.5978430708661415
20
-3.12344031496063
11
4.6005406299212597
21
-3.1247890551181103
0
LINE
8
BLACK
6
CONTINUOUS
10
4.6005406299212597
20
-3.1247890551181103
11
4.6085203149606295
21
-3.1247888188976378
0
LINE
8
BLACK
6
CONTINUOUS
10
4.6085203149606295
20
-3.1247888188976378
11
4.6112177952755902
21
-3.12344
0
LINE
8
BLACK
6
CONTINUOUS
10
4.6112177952755902
20
-3.12344
11
4.6124148818897641
21
-3.1222428346456694
0
LINE
8
BLACK
6
CONTINUOUS
10
4.6124148818897641
20
-3.1222428346456694
11
4.6137635433070869
21
-3.11954531496063
0
LINE
8
BLACK
6
CONTINUOUS
10
4.6137635433070869
20
-3.11954531496063
11
4.6137634251968507
21
-3.1146180708661415
0
LINE
8
BLACK
6
CONTINUOUS
10
4.6137634251968507
20
-3.1146180708661415
11
4.6138404724409448
21
-3.1141807874015748
0
LINE
8
BLACK
6
CONTINUOUS
10
4.6138404724409448
20
-3.1141807874015748
11
4.6138194881889767
21
-3.1140452362204725
0
LINE
8
BLACK
6
CONTINUOUS
10
4.6138194881889767
20
-3.1140452362204725
11
4.6138828346456693
21
-3.1139405118110237
0
LINE
8
BLACK
6
CONTINUOUS
10
4.6138828346456693
20
-3.1139405118110237
11
4.6139414566929133
21
-3.1136081496062991
0
LINE
8
BLACK
6
CONTINUOUS
10
4.6139414566929133
20
-3.1136081496062991
11
4.614453149606299
21
-3.1129982677165353
0
LINE
8
BLACK
6
CONTINUOUS
10
4.614453149606299
20
-3.1129982677165353
11
4.6148653543307088
21
-3.1123172834645669
0
LINE
8
BLACK
6
CONTINUOUS
10
4.6148653543307088
20
-3.1123172834645669
11
4.615088307086614
21
-3.1122412992125983
0
LINE
8
BLACK
6
CONTINUOUS
10
4.615088307086614
20
-3.1122412992125983
11
4.6152397244094487
21
-3.1120608661417322
0
LINE
8
BLACK
6
CONTINUOUS
10
4.6152397244094487
20
-3.1120608661417322
11
4.6160236614173229
21
-3.1119225984251968
0
LINE
8
BLACK
6
CONTINUOUS
10
4.6160236614173229
20
-3.1119225984251968
11
4.6167772047244098
21
-3.111665866141732
0
LINE
8
BLACK
6
CONTINUOUS
10
4.6167772047244098
20
-3.111665866141732
11
4.6169968503937007
21
-3.1117509842519686
0
LINE
8
BLACK
6
CONTINUOUS
10
4.6169968503937007
20
-3.1117509842519686
11
4.6172288582677163
21
-3.1117100787401575
0
LINE
8
BLACK
6
CONTINUOUS
10
4.6172288582677163
20
-3.1117100787401575
11
4.6179182677165356
21
-3.1121080708661415
0
LINE
8
BLACK
6
CONTINUOUS
10
4.6179182677165356
20
-3.1121080708661415
11
4.6186605118110231
21
-3.1123957480314961
0
LINE
8
BLACK
6
CONTINUOUS
10
4.6186605118110231
20
-3.1123957480314961
11
4.6287617322834649
21
-3.1212338188976378
0
LINE
8
BLACK
6
CONTINUOUS
10
4.6287617322834649
20
-3.1212338188976378
11
4.6287612204724411
21
-3.1033690551181103
0
LINE
8
BLACK
6
CONTINUOUS
10
4.6287612204724411
20
-3.1033690551181103
11
4.6289392519685038
21
-3.1023591338582674
0
LINE
8
BLACK
6
CONTINUOUS
10
4.6289392519685038
20
-3.1023591338582674
11
4.6302375196850392
21
-3.1008118503937006
0
LINE
8
BLACK
6
CONTINUOUS
10
4.6302375196850392
20
-3.1008118503937006
11
4.6322266535433068
21
-3.1004610629921259
0
LINE
8
BLACK
6
CONTINUOUS
10
4.6322266535433068
20
-3.1004610629921259
11
4.6339758661417321
21
-3.1014709055118108
0
LINE
8
BLACK
6
CONTINUOUS
10
5.9627085433070866
20
-2.4406231889763781
11
5.9637184251968502
21
-2.440801496062992
0
LINE
8
BLACK
6
CONTINUOUS
10
5.9637184251968502
20
-2.440801496062992
11
5.9638536220472442
21
-2.4409149999999999
0
LINE
8
BLACK
6
CONTINUOUS
10
5.9638536220472442
20
-2.4409149999999999
11
5.9640290157480313
21
-2.4409352362204726
0
LINE
8
BLACK
6
CONTINUOUS
10
5.9640290157480313
20
-2.4409352362204726
11
5.9677780708661414
21
-2.4428109448818898
0
LINE
8
BLACK
6
CONTINUOUS
10
5.9677780708661414
20
-2.4428109448818898
11
5.9684869291338583
21
-2.4433370078740158
0
LINE
8
BLACK
6
CONTINUOUS
10
5.9684869291338583
20
-2.4433370078740158
11
5.9685453149606298
21
-2.4433642519685037
0
LINE
8
BLACK
6
CONTINUOUS
10
5.9685453149606298
20
-2.4433642519685037
11
5.9704196456692911
21
-2.4452394881889763
0
LINE
8
BLACK
6
CONTINUOUS
10
5.9704196456692911
20
-2.4452394881889763
11
5.9709258661417319
21
-2.4459627952755905
0
LINE
8
BLACK
6
CONTINUOUS
10
5.9709258661417319
20
-2.4459627952755905
11
5.9709725590551184
21
-2.4460070472440942
0
LINE
8
BLACK
6
CONTINUOUS
10
5.9709725590551184
20
-2.4460070472440942
11
5.9728463779527559
21
-2.4497570472440944
0
LINE
8
BLACK
6
CONTINUOUS
10
5.9728463779527559
20
-2.4497570472440944
11
5.9729915354330707
21
-2.4502455118110236
0
LINE
8
BLACK
6
CONTINUOUS
10
5.9729915354330707
20
-2.4502455118110236
11
5.9730698031496061
21
-2.4503614566929133
0
LINE
8
BLACK
6
CONTINUOUS
10
5.9730698031496061
20
-2.4503614566929133
11
5.9749427165354332
21
-2.4578609448818898
0
LINE
8
BLACK
6
CONTINUOUS
10
5.9749427165354332
20
-2.4578609448818898
11
5.9749840551181101
21
-2.4584488582677166
0
LINE
8
BLACK
6
CONTINUOUS
10
5.9749840551181101
20
-2.4584488582677166
11
5.9750307086614169
21
-2.4585771653543307
0
LINE
8
BLACK
6
CONTINUOUS
10
5.9750307086614169
20
-2.4585771653543307
11
5.9750283858267714
21
-2.4679509842519685
0
LINE
8
BLACK
6
CONTINUOUS
10
5.9750283858267714
20
-2.4679509842519685
11
5.9749258661417324
21
-2.4685313779527558
0
LINE
8
BLACK
6
CONTINUOUS
10
5.9749258661417324
20
-2.4685313779527558
11
5.9749400393700789
21
-2.4686670866141731
0
LINE
8
BLACK
6
CONTINUOUS
10
5.9749400393700789
20
-2.4686670866141731
11
5.97306342519685
21
-2.4761656692913387
0
LINE
8
BLACK
6
CONTINUOUS
10
5.97306342519685
20
-2.4761656692913387
11
5.9728557086614176
21
-2.4766310236220472
0
LINE
8
BLACK
6
CONTINUOUS
10
5.9728557086614176
20
-2.4766310236220472
11
5.9728397244094484
21
-2.4767700000000001
0
LINE
8
BLACK
6
CONTINUOUS
10
5.9728397244094484
20
-2.4767700000000001
11
5.9709640157480317
21
-2.480519094488189
0
LINE
8
BLACK
6
CONTINUOUS
10
5.9709640157480317
20
-2.480519094488189
11
5.9704378740157482
21
-2.4812280314960629
0
LINE
8
BLACK
6
CONTINUOUS
10
5.9704378740157482
20
-2.4812280314960629
11
5.9704106692913381
21
-2.4812863779527556
0
LINE
8
BLACK
6
CONTINUOUS
10
5.9704106692913381
20
-2.4812863779527556
11
5.9685354724409452
21
-2.4831606299212599
0
LINE
8
BLACK
6
CONTINUOUS
10
5.9685354724409452
20
-2.4831606299212599
11
5.9678122834645668
21
-2.4836666929133857
0
LINE
8
BLACK
6
CONTINUOUS
10
5.9678122834645668
20
-2.4836666929133857
11
5.9677679133858268
21
-2.4837135826771655
0
LINE
8
BLACK
6
CONTINUOUS
10
5.9677679133858268
20
-2.4837135826771655
11
5.9640179133858267
21
-2.4855873622047242
0
LINE
8
BLACK
6
CONTINUOUS
10
5.9640179133858267
20
-2.4855873622047242
11
5.9630349212598421
21
-2.4858795275590553
0
LINE
8
BLACK
6
CONTINUOUS
10
5.9630349212598421
20
-2.4858795275590553
11
5.9628631889763781
21
-2.4858384251968504
0
LINE
8
BLACK
6
CONTINUOUS
10
5.9628631889763781
20
-2.4858384251968504
11
5.9626973622047243
21
-2.4858987795275591
0
LINE
8
BLACK
6
CONTINUOUS
10
5.9626973622047243
20
-2.4858987795275591
11
5.9589478346456692
21
-2.4858978740157478
0
LINE
8
BLACK
6
CONTINUOUS
10
5.9589478346456692
20
-2.4858978740157478
11
5.9579379527559055
21
-2.4857195669291339
0
LINE
8
BLACK
6
CONTINUOUS
10
5.9579379527559055
20
-2.4857195669291339
11
5.9578026771653541
21
-2.4856059842519684
0
LINE
8
BLACK
6
CONTINUOUS
10
5.9578026771653541
20
-2.4856059842519684
11
5.9576273622047244
21
-2.4855857874015745
0
LINE
8
BLACK
6
CONTINUOUS
10
5.9576273622047244
20
-2.4855857874015745
11
5.9538783070866144
21
-2.4837101181102361
0
LINE
8
BLACK
6
CONTINUOUS
10
5.9538783070866144
20
-2.4837101181102361
11
5.9531693307086613
21
-2.4831839763779526
0
LINE
8
BLACK
6
CONTINUOUS
10
5.9531693307086613
20
-2.4831839763779526
11
5.9531110236220472
21
-2.4831567716535434
0
LINE
8
BLACK
6
CONTINUOUS
10
5.9531110236220472
20
-2.4831567716535434
11
5.9512367716535435
21
-2.4812815748031496
0
LINE
8
BLACK
6
CONTINUOUS
10
5.9512367716535435
20
-2.4812815748031496
11
5.9507306692913389
21
-2.4805583858267717
0
LINE
8
BLACK
6
CONTINUOUS
10
5.9507306692913389
20
-2.4805583858267717
11
5.9506838582677162
21
-2.48051405511811
0
LINE
8
BLACK
6
CONTINUOUS
10
5.9506838582677162
20
-2.48051405511811
11
5.9488099999999999
21
-2.4767640551181103
0
LINE
8
BLACK
6
CONTINUOUS
10
5.9488099999999999
20
-2.4767640551181103
11
5.9486647637795276
21
-2.4762754330708661
0
LINE
8
BLACK
6
CONTINUOUS
10
5.9486647637795276
20
-2.4762754330708661
11
5.9485865748031497
21
-2.4761596062992126
0
LINE
8
BLACK
6
CONTINUOUS
10
5.9485865748031497
20
-2.4761596062992126
11
5.9467136614173226
21
-2.4686600787401574
0
LINE
8
BLACK
6
CONTINUOUS
10
5.9467136614173226
20
-2.4686600787401574
11
5.9466723228346456
21
-2.4680721653543305
0
LINE
8
BLACK
6
CONTINUOUS
10
5.9466723228346456
20
-2.4680721653543305
11
5.9466256692913388
21
-2.4679438976377952
0
LINE
8
BLACK
6
CONTINUOUS
10
5.9466256692913388
20
-2.4679438976377952
11
5.9466279921259844
21
-2.4585700787401574
0
LINE
8
BLACK
6
CONTINUOUS
10
5.9466279921259844
20
-2.4585700787401574
11
5.9467304724409447
21
-2.4579896062992126
0
LINE
8
BLACK
6
CONTINUOUS
10
5.9467304724409447
20
-2.4579896062992126
11
5.9467163385826769
21
-2.457853937007874
0
LINE
8
BLACK
6
CONTINUOUS
10
5.9467163385826769
20
-2.457853937007874
11
5.9485929921259837
21
-2.4503553937007871
0
LINE
8
BLACK
6
CONTINUOUS
10
5.9485929921259837
20
-2.4503553937007871
11
5.9488006692913382
21
-2.4498899606299211
0
LINE
8
BLACK
6
CONTINUOUS
10
5.9488006692913382
20
-2.4498899606299211
11
5.9488166929133861
21
-2.4497511023622045
0
LINE
8
BLACK
6
CONTINUOUS
10
5.9488166929133861
20
-2.4497511023622045
11
5.9506923622047241
21
-2.4460020472440944
0
LINE
8
BLACK
6
CONTINUOUS
10
5.9506923622047241
20
-2.4460020472440944
11
5.9512183858267713
21
-2.4452931496062993
0
LINE
8
BLACK
6
CONTINUOUS
10
5.9512183858267713
20
-2.4452931496062993
11
5.951245669291338
21
-2.4452347637795273
0
LINE
8
BLACK
6
CONTINUOUS
10
5.951245669291338
20
-2.4452347637795273
11
5.9531209055118106
21
-2.443360433070866
0
LINE
8
BLACK
6
CONTINUOUS
10
5.9531209055118106
20
-2.443360433070866
11
5.9538442125984252
21
-2.4428541732283464
0
LINE
8
BLACK
6
CONTINUOUS
10
5.9538442125984252
20
-2.4428541732283464
11
5.953888464566929
21
-2.4428075196850392
0
LINE
8
BLACK
6
CONTINUOUS
10
5.953888464566929
20
-2.4428075196850392
11
5.9576384645669291
21
-2.4409337007874017
0
LINE
8
BLACK
6
CONTINUOUS
10
5.9576384645669291
20
-2.4409337007874017
11
5.9586214566929137
21
-2.4406415748031494
0
LINE
8
BLACK
6
CONTINUOUS
10
5.9586214566929137
20
-2.4406415748031494
11
5.9587930708661414
21
-2.4406825984251967
0
LINE
8
BLACK
6
CONTINUOUS
10
5.9587930708661414
20
-2.4406825984251967
11
5.9589590157480314
21
-2.4406222834645668
0
LINE
8
BLACK
6
CONTINUOUS
10
5.9589590157480314
20
-2.4406222834645668
11
5.9627085433070866
21
-2.4406231889763781
0
LINE
8
BLACK
6
CONTINUOUS
10
5.9569568110236215
20
-2.4478759842519686
11
5.9557593700787397
21
-2.4490728346456692
0
LINE
8
BLACK
6
CONTINUOUS
10
5.9557593700787397
20
-2.4490728346456692
11
5.9542431102362201
21
-2.4521035039370078
0
LINE
8
BLACK
6
CONTINUOUS
10
5.9542431102362201
20
-2.4521035039370078
11
5.9525333858267713
21
-2.4589350393700786
0
LINE
8
BLACK
6
CONTINUOUS
10
5.9525333858267713
20
-2.4589350393700786
11
5.9525312598425195
21
-2.4675818897637796
0
LINE
8
BLACK
6
CONTINUOUS
10
5.9525312598425195
20
-2.4675818897637796
11
5.9542375590551178
21
-2.4744142519685037
0
LINE
8
BLACK
6
CONTINUOUS
10
5.9542375590551178
20
-2.4744142519685037
11
5.9557523228346456
21
-2.4774456299212599
0
LINE
8
BLACK
6
CONTINUOUS
10
5.9557523228346456
20
-2.4774456299212599
11
5.9569491338582674
21
-2.4786430708661418
0
LINE
8
BLACK
6
CONTINUOUS
10
5.9569491338582674
20
-2.4786430708661418
11
5.9596463385826768
21
-2.4799925196850392
0
LINE
8
BLACK
6
CONTINUOUS
10
5.9596463385826768
20
-2.4799925196850392
11
5.9620017716535436
21
-2.4799930708661417
0
LINE
8
BLACK
6
CONTINUOUS
10
5.9620017716535436
20
-2.4799930708661417
11
5.9646995275590546
21
-2.4786450393700785
0
LINE
8
BLACK
6
CONTINUOUS
10
5.9646995275590546
20
-2.4786450393700785
11
5.9658969685039365
21
-2.4774482283464567
0
LINE
8
BLACK
6
CONTINUOUS
10
5.9658969685039365
20
-2.4774482283464567
11
5.9674133070866144
21
-2.4744174803149606
0
LINE
8
BLACK
6
CONTINUOUS
10
5.9674133070866144
20
-2.4744174803149606
11
5.9691229527559058
21
-2.4675860236220473
0
LINE
8
BLACK
6
CONTINUOUS
10
5.9691229527559058
20
-2.4675860236220473
11
5.9691250787401575
21
-2.4589391338582676
0
LINE
8
BLACK
6
CONTINUOUS
10
5.9691250787401575
20
-2.4589391338582676
11
5.967418818897638
21
-2.4521068897637797
0
LINE
8
BLACK
6
CONTINUOUS
10
5.967418818897638
20
-2.4521068897637797
11
5.9659040551181102
21
-2.4490753937007872
0
LINE
8
BLACK
6
CONTINUOUS
10
5.9659040551181102
20
-2.4490753937007872
11
5.9647071653543309
21
-2.4478779133858266
0
LINE
8
BLACK
6
CONTINUOUS
10
5.9647071653543309
20
-2.4478779133858266
11
5.9620100000000003
21
-2.4465285039370079
0
LINE
8
BLACK
6
CONTINUOUS
10
5.9620100000000003
20
-2.4465285039370079
11
5.9596546456692909
21
-2.4465279527559054
0
LINE
8
BLACK
6
CONTINUOUS
10
5.9596546456692909
20
-2.4465279527559054
11
5.9569568110236215
21
-2.4478759842519686
0
LINE
8
BLACK
6
CONTINUOUS
10
5.9236838976377948
20
-2.4406878740157478
11
5.9238512204724412
21
-2.4406584251968502
0
LINE
8
BLACK
6
CONTINUOUS
10
5.9238512204724412
20
-2.4406584251968502
11
5.9245933070866137
21
-2.4410871259842519
0
LINE
8
BLACK
6
CONTINUOUS
10
5.9245933070866137
20
-2.4410871259842519
11
5.9253779527559054
21
-2.4414316141732284
0
LINE
8
BLACK
6
CONTINUOUS
10
5.9253779527559054
20
-2.4414316141732284
11
5.925453149606299
21
-2.4415838582677165
0
LINE
8
BLACK
6
CONTINUOUS
10
5.925453149606299
20
-2.4415838582677165
11
5.9256001574803152
21
-2.4416687795275589
0
LINE
8
BLACK
6
CONTINUOUS
10
5.9256001574803152
20
-2.4416687795275589
11
5.9258929921259842
21
-2.4424740157480316
0
LINE
8
BLACK
6
CONTINUOUS
10
5.9258929921259842
20
-2.4424740157480316
11
5.926272677165354
21
-2.4432424015748029
0
LINE
8
BLACK
6
CONTINUOUS
10
5.926272677165354
20
-2.4432424015748029
11
5.9262324409448821
21
-2.4434073228346458
0
LINE
8
BLACK
6
CONTINUOUS
10
5.9262324409448821
20
-2.4434073228346458
11
5.9262905118110236
21
-2.4435669685039367
0
LINE
8
BLACK
6
CONTINUOUS
10
5.9262905118110236
20
-2.4435669685039367
11
5.9262814566929132
21
-2.4799842519685038
0
LINE
8
BLACK
6
CONTINUOUS
10
5.9262814566929132
20
-2.4799842519685038
11
5.9345773228346452
21
-2.4799862992125985
0
LINE
8
BLACK
6
CONTINUOUS
10
5.9345773228346452
20
-2.4799862992125985
11
5.9355872047244089
21
-2.4801646062992124
0
LINE
8
BLACK
6
CONTINUOUS
10
5.9355872047244089
20
-2.4801646062992124
11
5.9371341338582679
21
-2.4814633070866141
0
LINE
8
BLACK
6
CONTINUOUS
10
5.9371341338582679
20
-2.4814633070866141
11
5.9374844094488184
21
-2.4834525196850392
0
LINE
8
BLACK
6
CONTINUOUS
10
5.9374844094488184
20
-2.4834525196850392
11
5.9364740551181097
21
-2.4852014566929133
0
LINE
8
BLACK
6
CONTINUOUS
10
5.9364740551181097
20
-2.4852014566929133
11
5.9345758661417323
21
-2.4858918110236221
0
LINE
8
BLACK
6
CONTINUOUS
10
5.9345758661417323
20
-2.4858918110236221
11
5.9120786614173229
21
-2.4858862598425198
0
LINE
8
BLACK
6
CONTINUOUS
10
5.9120786614173229
20
-2.4858862598425198
11
5.9110688188976379
21
-2.4857079527559054
0
LINE
8
BLACK
6
CONTINUOUS
10
5.9110688188976379
20
-2.4857079527559054
11
5.9095218897637798
21
-2.4844092519685037
0
LINE
8
BLACK
6
CONTINUOUS
10
5.9095218897637798
20
-2.4844092519685037
11
5.9091716141732284
21
-2.4824200393700786
0
LINE
8
BLACK
6
CONTINUOUS
10
5.9091716141732284
20
-2.4824200393700786
11
5.9101819685039372
21
-2.4806711023622046
0
LINE
8
BLACK
6
CONTINUOUS
10
5.9101819685039372
20
-2.4806711023622046
11
5.9120801574803146
21
-2.4799807480314962
0
LINE
8
BLACK
6
CONTINUOUS
10
5.9120801574803146
20
-2.4799807480314962
11
5.92037594488189
21
-2.4799827559055116
0
LINE
8
BLACK
6
CONTINUOUS
10
5.92037594488189
20
-2.4799827559055116
11
5.9203827559055116
21
-2.4525688188976376
0
LINE
8
BLACK
6
CONTINUOUS
10
5.9203827559055116
20
-2.4525688188976376
11
5.917923779527559
21
-2.4550266141732284
0
LINE
8
BLACK
6
CONTINUOUS
10
5.917923779527559
20
-2.4550266141732284
11
5.9172005905511806
21
-2.4555326771653543
0
LINE
8
BLACK
6
CONTINUOUS
10
5.9172005905511806
20
-2.4555326771653543
11
5.9171562204724406
21
-2.4555795669291336
0
LINE
8
BLACK
6
CONTINUOUS
10
5.9171562204724406
20
-2.4555795669291336
11
5.9134062204724405
21
-2.4574533464566928
0
LINE
8
BLACK
6
CONTINUOUS
10
5.9134062204724405
20
-2.4574533464566928
11
5.9124232283464568
21
-2.4577455118110234
0
LINE
8
BLACK
6
CONTINUOUS
10
5.9124232283464568
20
-2.4577455118110234
11
5.9104588188976379
21
-2.4572757086614172
0
LINE
8
BLACK
6
CONTINUOUS
10
5.9104588188976379
20
-2.4572757086614172
11
5.90925594488189
21
-2.4556531496062992
0
LINE
8
BLACK
6
CONTINUOUS
10
5.90925594488189
20
-2.4556531496062992
11
5.9093774803149604
21
-2.4536370078740157
0
LINE
8
BLACK
6
CONTINUOUS
10
5.9093774803149604
20
-2.4536370078740157
11
5.910766535433071
21
-2.4521706692913385
0
LINE
8
BLACK
6
CONTINUOUS
10
5.910766535433071
20
-2.4521706692913385
11
5.9140878346456693
21
-2.4505110236220471
0
LINE
8
BLACK
6
CONTINUOUS
10
5.9140878346456693
20
-2.4505110236220471
11
5.9172926771653538
21
-2.4473077559055119
0
LINE
8
BLACK
6
CONTINUOUS
10
5.9172926771653538
20
-2.4473077559055119
11
5.9208812992125983
21
-2.4419277165354329
0
LINE
8
BLACK
6
CONTINUOUS
10
5.9208812992125983
20
-2.4419277165354329
11
5.9215898818897639
21
-2.4411863779527558
0
LINE
8
BLACK
6
CONTINUOUS
10
5.9215898818897639
20
-2.4411863779527558
11
5.9217528346456696
21
-2.4411387401574802
0
LINE
8
BLACK
6
CONTINUOUS
10
5.9217528346456696
20
-2.4411387401574802
11
5.9218620078740152
21
-2.4410087007874015
0
LINE
8
BLACK
6
CONTINUOUS
10
5.9218620078740152
20
-2.4410087007874015
11
5.922706062992126
21
-2.4408600393700786
0
LINE
8
BLACK
6
CONTINUOUS
10
5.922706062992126
20
-2.4408600393700786
11
5.9235285039370078
21
-2.4406196456692912
0
LINE
8
BLACK
6
CONTINUOUS
10
5.9235285039370078
20
-2.4406196456692912
11
5.9236838976377948
21
-2.4406878740157478
0
LINE
8
BLACK
6
CONTINUOUS
10
6.0826902755905508
20
-2.4537762598425195
11
6.0837001574803145
21
-2.4539545669291338
0
LINE
8
BLACK
6
CONTINUOUS
10
6.0837001574803145
20
-2.4539545669291338
11
6.0838353543307084
21
-2.4540680708661418
0
LINE
8
BLACK
6
CONTINUOUS
10
6.0838353543307084
20
-2.4540680708661418
11
6.0840107480314956
21
-2.454088307086614
0
LINE
8
BLACK
6
CONTINUOUS
10
6.0840107480314956
20
-2.454088307086614
11
6.0877598031496065
21
-2.4559640157480316
0
LINE
8
BLACK
6
CONTINUOUS
10
6.0877598031496065
20
-2.4559640157480316
11
6.0883296456692912
21
-2.4563868897637793
0
LINE
8
BLACK
6
CONTINUOUS
10
6.0883296456692912
20
-2.4563868897637793
11
6.0885642913385825
21
-2.4562852362204723
0
LINE
8
BLACK
6
CONTINUOUS
10
6.0885642913385825
20
-2.4562852362204723
11
6.0888683070866136
21
-2.4559643307086612
0
LINE
8
BLACK
6
CONTINUOUS
10
6.0888683070866136
20
-2.4559643307086612
11
6.0926183464566925
21
-2.4540904724409449
0
LINE
8
BLACK
6
CONTINUOUS
10
6.0926183464566925
20
-2.4540904724409449
11
6.0936013385826771
21
-2.4537983070866143
0
LINE
8
BLACK
6
CONTINUOUS
10
6.0936013385826771
20
-2.4537983070866143
11
6.0937730314960632
21
-2.45383937007874
0
LINE
8
BLACK
6
CONTINUOUS
10
6.0937730314960632
20
-2.45383937007874
11
6.0939388976377948
21
-2.45377905511811
0
LINE
8
BLACK
6
CONTINUOUS
10
6.0939388976377948
20
-2.45377905511811
11
6.0995631889763775
21
-2.4537804330708659
0
LINE
8
BLACK
6
CONTINUOUS
10
6.0995631889763775
20
-2.4537804330708659
11
6.1005730708661412
21
-2.4539587401574803
0
LINE
8
BLACK
6
CONTINUOUS
10
6.1005730708661412
20
-2.4539587401574803
11
6.1007082677165352
21
-2.4540722440944882
0
LINE
8
BLACK
6
CONTINUOUS
10
6.1007082677165352
20
-2.4540722440944882
11
6.1008836614173223
21
-2.4540924803149604
0
LINE
8
BLACK
6
CONTINUOUS
10
6.1008836614173223
20
-2.4540924803149604
11
6.1046327165354333
21
-2.455968188976378
0
LINE
8
BLACK
6
CONTINUOUS
10
6.1046327165354333
20
-2.455968188976378
11
6.1054562204724405
21
-2.4565793307086614
0
LINE
8
BLACK
6
CONTINUOUS
10
6.1054562204724405
20
-2.4565793307086614
11
6.1056319291338585
21
-2.456985
0
LINE
8
BLACK
6
CONTINUOUS
10
6.1056319291338585
20
-2.456985
11
6.105952874015748
21
-2.4572890157480316
0
LINE
8
BLACK
6
CONTINUOUS
10
6.105952874015748
20
-2.4572890157480316
11
6.1078267322834643
21
-2.4610390551181101
0
LINE
8
BLACK
6
CONTINUOUS
10
6.1078267322834643
20
-2.4610390551181101
11
6.1081188976377954
21
-2.4620220472440946
0
LINE
8
BLACK
6
CONTINUOUS
10
6.1081188976377954
20
-2.4620220472440946
11
6.10807779527559
21
-2.462193779527559
0
LINE
8
BLACK
6
CONTINUOUS
10
6.10807779527559
20
-2.462193779527559
11
6.1081381496062992
21
-2.4623596456692911
0
LINE
8
BLACK
6
CONTINUOUS
10
6.1081381496062992
20
-2.4623596456692911
11
6.1081330314960631
21
-2.4829820472440942
0
LINE
8
BLACK
6
CONTINUOUS
10
6.1081330314960631
20
-2.4829820472440942
11
6.1079547244094483
21
-2.4839918897637796
0
LINE
8
BLACK
6
CONTINUOUS
10
6.1079547244094483
20
-2.4839918897637796
11
6.1066560236220475
21
-2.4855388188976377
0
LINE
8
BLACK
6
CONTINUOUS
10
6.1066560236220475
20
-2.4855388188976377
11
6.1046668110236215
21
-2.4858890944881891
0
LINE
8
BLACK
6
CONTINUOUS
10
6.1046668110236215
20
-2.4858890944881891
11
6.1029178740157475
21
-2.4848787401574803
0
LINE
8
BLACK
6
CONTINUOUS
10
6.1029178740157475
20
-2.4848787401574803
11
6.1022275196850391
21
-2.4829805511811025
0
LINE
8
BLACK
6
CONTINUOUS
10
6.1022275196850391
20
-2.4829805511811025
11
6.1022324409448814
21
-2.4630551968503935
0
LINE
8
BLACK
6
CONTINUOUS
10
6.1022324409448814
20
-2.4630551968503935
11
6.1011101181102365
21
-2.4608091732283466
0
LINE
8
BLACK
6
CONTINUOUS
10
6.1011101181102365
20
-2.4608091732283466
11
6.0988646456692912
21
-2.4596857480314962
0
LINE
8
BLACK
6
CONTINUOUS
10
6.0988646456692912
20
-2.4596857480314962
11
6.0946344881889765
21
-2.4596847244094486
0
LINE
8
BLACK
6
CONTINUOUS
10
6.0946344881889765
20
-2.4596847244094486
11
6.0923884645669286
21
-2.4608070472440944
0
LINE
8
BLACK
6
CONTINUOUS
10
6.0923884645669286
20
-2.4608070472440944
11
6.0912650393700787
21
-2.4630525196850392
0
LINE
8
BLACK
6
CONTINUOUS
10
6.0912650393700787
20
-2.4630525196850392
11
6.0912601181102364
21
-2.4829778740157478
0
LINE
8
BLACK
6
CONTINUOUS
10
6.0912601181102364
20
-2.4829778740157478
11
6.0910818110236216
21
-2.4839877165354332
0
LINE
8
BLACK
6
CONTINUOUS
10
6.0910818110236216
20
-2.4839877165354332
11
6.0897831102362208
21
-2.4855346456692913
0
LINE
8
BLACK
6
CONTINUOUS
10
6.0897831102362208
20
-2.4855346456692913
11
6.0877938976377948
21
-2.4858849212598426
0
LINE
8
BLACK
6
CONTINUOUS
10
6.0877938976377948
20
-2.4858849212598426
11
6.0860449606299207
21
-2.4848745669291339
0
LINE
8
BLACK
6
CONTINUOUS
10
6.0860449606299207
20
-2.4848745669291339
11
6.0853546062992123
21
-2.4829763779527561
0
LINE
8
BLACK
6
CONTINUOUS
10
6.0853546062992123
20
-2.4829763779527561
11
6.0853595275590546
21
-2.4630510236220471
0
LINE
8
BLACK
6
CONTINUOUS
10
6.0853595275590546
20
-2.4630510236220471
11
6.0842372834645664
21
-2.4608050393700789
0
LINE
8
BLACK
6
CONTINUOUS
10
6.0842372834645664
20
-2.4608050393700789
11
6.0819917322834645
21
-2.4596815748031498
0
LINE
8
BLACK
6
CONTINUOUS
10
6.0819917322834645
20
-2.4596815748031498
11
6.0777616141732285
21
-2.4596805511811022
0
LINE
8
BLACK
6
CONTINUOUS
10
6.0777616141732285
20
-2.4596805511811022
11
6.075063779527559
21
-2.4610285826771654
0
LINE
8
BLACK
6
CONTINUOUS
10
6.075063779527559
20
-2.4610285826771654
11
6.0743924803149607
21
-2.461699527559055
0
LINE
8
BLACK
6
CONTINUOUS
10
6.0743924803149607
20
-2.461699527559055
11
6.0743872440944884
21
-2.4829737007874013
0
LINE
8
BLACK
6
CONTINUOUS
10
6.0743872440944884
20
-2.4829737007874013
11
6.0742089370078736
21
-2.4839835433070867
0
LINE
8
BLACK
6
CONTINUOUS
10
6.0742089370078736
20
-2.4839835433070867
11
6.0729102362204719
21
-2.4855304724409448
0
LINE
8
BLACK
6
CONTINUOUS
10
6.0729102362204719
20
-2.4855304724409448
11
6.0709210236220468
21
-2.4858807480314962
0
LINE
8
BLACK
6
CONTINUOUS
10
6.0709210236220468
20
-2.4858807480314962
11
6.0691720866141727
21
-2.4848703937007874
0
LINE
8
BLACK
6
CONTINUOUS
10
6.0691720866141727
20
-2.4848703937007874
11
6.0684817322834643
21
-2.4829722047244096
0
LINE
8
BLACK
6
CONTINUOUS
10
6.0684817322834643
20
-2.4829722047244096
11
6.0684882283464567
21
-2.4567255118110234
0
LINE
8
BLACK
6
CONTINUOUS
10
6.0684882283464567
20
-2.4567255118110234
11
6.0686665354330707
21
-2.4557156692913384
0
LINE
8
BLACK
6
CONTINUOUS
10
6.0686665354330707
20
-2.4557156692913384
11
6.0699652362204723
21
-2.4541687401574803
0
LINE
8
BLACK
6
CONTINUOUS
10
6.0699652362204723
20
-2.4541687401574803
11
6.0719544488188975
21
-2.453818464566929
0
LINE
8
BLACK
6
CONTINUOUS
10
6.0719544488188975
20
-2.453818464566929
11
6.0737033858267715
21
-2.4548288188976377
0
LINE
8
BLACK
6
CONTINUOUS
10
6.0737033858267715
20
-2.4548288188976377
11
6.0737888976377947
21
-2.455063937007874
0
LINE
8
BLACK
6
CONTINUOUS
10
6.0737888976377947
20
-2.455063937007874
11
6.0757454330708658
21
-2.4540862992125985
0
LINE
8
BLACK
6
CONTINUOUS
10
6.0757454330708658
20
-2.4540862992125985
11
6.0767284251968503
21
-2.4537941732283466
0
LINE
8
BLACK
6
CONTINUOUS
10
6.0767284251968503
20
-2.4537941732283466
11
6.0769000393700789
21
-2.4538351968503935
0
LINE
8
BLACK
6
CONTINUOUS
10
6.0769000393700789
20
-2.4538351968503935
11
6.0770659842519681
21
-2.4537748818897636
0
LINE
8
BLACK
6
CONTINUOUS
10
6.0770659842519681
20
-2.4537748818897636
11
6.0826902755905508
21
-2.4537762598425195
0
LINE
8
BLACK
6
CONTINUOUS
10
5.8877179527559056
20
-2.4406046456692914
11
5.8887278346456693
21
-2.4407829527559053
0
LINE
8
BLACK
6
CONTINUOUS
10
5.8887278346456693
20
-2.4407829527559053
11
5.8888630314960633
21
-2.4408964566929132
0
LINE
8
BLACK
6
CONTINUOUS
10
5.8888630314960633
20
-2.4408964566929132
11
5.8890383464566929
21
-2.4409166929133859
0
LINE
8
BLACK
6
CONTINUOUS
10
5.8890383464566929
20
-2.4409166929133859
11
5.892787401574803
21
-2.4427923622047243
0
LINE
8
BLACK
6
CONTINUOUS
10
5.892787401574803
20
-2.4427923622047243
11
5.8934962598425198
21
-2.4433183858267715
0
LINE
8
BLACK
6
CONTINUOUS
10
5.8934962598425198
20
-2.4433183858267715
11
5.8935546850393701
21
-2.4433456692913387
0
LINE
8
BLACK
6
CONTINUOUS
10
5.8935546850393701
20
-2.4433456692913387
11
5.8954290157480314
21
-2.4452209055118108
0
LINE
8
BLACK
6
CONTINUOUS
10
5.8954290157480314
20
-2.4452209055118108
11
5.8959352362204722
21
-2.445944212598425
0
LINE
8
BLACK
6
CONTINUOUS
10
5.8959352362204722
20
-2.445944212598425
11
5.8959819291338578
21
-2.4459884645669292
0
LINE
8
BLACK
6
CONTINUOUS
10
5.8959819291338578
20
-2.4459884645669292
11
5.8978557480314961
21
-2.4497384645669289
0
LINE
8
BLACK
6
CONTINUOUS
10
5.8978557480314961
20
-2.4497384645669289
11
5.898000905511811
21
-2.4502269291338581
0
LINE
8
BLACK
6
CONTINUOUS
10
5.898000905511811
20
-2.4502269291338581
11
5.8980791732283464
21
-2.4503428740157478
0
LINE
8
BLACK
6
CONTINUOUS
10
5.8980791732283464
20
-2.4503428740157478
11
5.8999520866141735
21
-2.4578423622047243
0
LINE
8
BLACK
6
CONTINUOUS
10
5.8999520866141735
20
-2.4578423622047243
11
5.8999934251968504
21
-2.4584302755905512
0
LINE
8
BLACK
6
CONTINUOUS
10
5.8999934251968504
20
-2.4584302755905512
11
5.9000400787401572
21
-2.4585585826771652
0
LINE
8
BLACK
6
CONTINUOUS
10
5.9000400787401572
20
-2.4585585826771652
11
5.9000377559055117
21
-2.467932401574803
0
LINE
8
BLACK
6
CONTINUOUS
10
5.9000377559055117
20
-2.467932401574803
11
5.8999352362204727
21
-2.4685127952755903
0
LINE
8
BLACK
6
CONTINUOUS
10
5.8999352362204727
20
-2.4685127952755903
11
5.8999494094488192
21
-2.4686485039370076
0
LINE
8
BLACK
6
CONTINUOUS
10
5.8999494094488192
20
-2.4686485039370076
11
5.8980727952755903
21
-2.476147125984252
0
LINE
8
BLACK
6
CONTINUOUS
10
5.8980727952755903
20
-2.476147125984252
11
5.8978650393700782
21
-2.4766125984251968
0
LINE
8
BLACK
6
CONTINUOUS
10
5.8978650393700782
20
-2.4766125984251968
11
5.89784905511811
21
-2.4767514566929134
0
LINE
8
BLACK
6
CONTINUOUS
10
5.89784905511811
20
-2.4767514566929134
11
5.8959733858267711
21
-2.4805005118110235
0
LINE
8
BLACK
6
CONTINUOUS
10
5.8959733858267711
20
-2.4805005118110235
11
5.8954472440944876
21
-2.4812094488188974
0
LINE
8
BLACK
6
CONTINUOUS
10
5.8954472440944876
20
-2.4812094488188974
11
5.8954200393700784
21
-2.4812677952755906
0
LINE
8
BLACK
6
CONTINUOUS
10
5.8954200393700784
20
-2.4812677952755906
11
5.8935448425196846
21
-2.4831420472440944
0
LINE
8
BLACK
6
CONTINUOUS
10
5.8935448425196846
20
-2.4831420472440944
11
5.8928216535433071
21
-2.4836481102362202
0
LINE
8
BLACK
6
CONTINUOUS
10
5.8928216535433071
20
-2.4836481102362202
11
5.8927773228346458
21
-2.4836949606299212
0
LINE
8
BLACK
6
CONTINUOUS
10
5.8927773228346458
20
-2.4836949606299212
11
5.8890273228346457
21
-2.4855688188976379
0
LINE
8
BLACK
6
CONTINUOUS
10
5.8890273228346457
20
-2.4855688188976379
11
5.8880442913385824
21
-2.4858609842519686
0
LINE
8
BLACK
6
CONTINUOUS
10
5.8880442913385824
20
-2.4858609842519686
11
5.8878725196850397
21
-2.4858198818897637
0
LINE
8
BLACK
6
CONTINUOUS
10
5.8878725196850397
20
-2.4858198818897637
11
5.8877066929133859
21
-2.4858802362204724
0
LINE
8
BLACK
6
CONTINUOUS
10
5.8877066929133859
20
-2.4858802362204724
11
5.8839571653543308
21
-2.4858792913385828
0
LINE
8
BLACK
6
CONTINUOUS
10
5.8839571653543308
20
-2.4858792913385828
11
5.8829472834645671
21
-2.4857009842519684
0
LINE
8
BLACK
6
CONTINUOUS
10
5.8829472834645671
20
-2.4857009842519684
11
5.8828120078740156
21
-2.485587401574803
0
LINE
8
BLACK
6
CONTINUOUS
10
5.8828120078740156
20
-2.485587401574803
11
5.8826367322834647
21
-2.4855672047244095
0
LINE
8
BLACK
6
CONTINUOUS
10
5.8826367322834647
20
-2.4855672047244095
11
5.8788876771653538
21
-2.4836915354330706
0
LINE
8
BLACK
6
CONTINUOUS
10
5.8788876771653538
20
-2.4836915354330706
11
5.8781787795275591
21
-2.4831654330708659
0
LINE
8
BLACK
6
CONTINUOUS
10
5.8781787795275591
20
-2.4831654330708659
11
5.8781204330708663
21
-2.4831382283464567
0
LINE
8
BLACK
6
CONTINUOUS
10
5.8781204330708663
20
-2.4831382283464567
11
5.8762461417322838
21
-2.4812630314960629
0
LINE
8
BLACK
6
CONTINUOUS
10
5.8762461417322838
20
-2.4812630314960629
11
5.8757399606299208
21
-2.4805397637795275
0
LINE
8
BLACK
6
CONTINUOUS
10
5.8757399606299208
20
-2.4805397637795275
11
5.8756932283464565
21
-2.4804955118110237
0
LINE
8
BLACK
6
CONTINUOUS
10
5.8756932283464565
20
-2.4804955118110237
11
5.8738193700787402
21
-2.4767455118110235
0
LINE
8
BLACK
6
CONTINUOUS
10
5.8738193700787402
20
-2.4767455118110235
11
5.8736741338582679
21
-2.4762568897637793
0
LINE
8
BLACK
6
CONTINUOUS
10
5.8736741338582679
20
-2.4762568897637793
11
5.87359594488189
21
-2.4761410629921259
0
LINE
8
BLACK
6
CONTINUOUS
10
5.87359594488189
20
-2.4761410629921259
11
5.8717230314960629
21
-2.4686415354330706
0
LINE
8
BLACK
6
CONTINUOUS
10
5.8717230314960629
20
-2.4686415354330706
11
5.8716816929133859
21
-2.4680536220472442
0
LINE
8
BLACK
6
CONTINUOUS
10
5.8716816929133859
20
-2.4680536220472442
11
5.8716350393700782
21
-2.4679253543307085
0
LINE
8
BLACK
6
CONTINUOUS
10
5.8716350393700782
20
-2.4679253543307085
11
5.8716373622047247
21
-2.4585515354330707
0
LINE
8
BLACK
6
CONTINUOUS
10
5.8716373622047247
20
-2.4585515354330707
11
5.8717398425196849
21
-2.4579711023622046
0
LINE
8
BLACK
6
CONTINUOUS
10
5.8717398425196849
20
-2.4579711023622046
11
5.8717257086614172
21
-2.457835433070866
0
LINE
8
BLACK
6
CONTINUOUS
10
5.8717257086614172
20
-2.457835433070866
11
5.873602362204724
21
-2.4503368110236221
0
LINE
8
BLACK
6
CONTINUOUS
10
5.873602362204724
20
-2.4503368110236221
11
5.8738100393700785
21
-2.4498713779527557
0
LINE
8
BLACK
6
CONTINUOUS
10
5.8738100393700785
20
-2.4498713779527557
11
5.8738260629921255
21
-2.4497325196850395
0
LINE
8
BLACK
6
CONTINUOUS
10
5.8738260629921255
20
-2.4497325196850395
11
5.8757017322834644
21
-2.4459834645669289
0
LINE
8
BLACK
6
CONTINUOUS
10
5.8757017322834644
20
-2.4459834645669289
11
5.8762277559055116
21
-2.4452745669291338
0
LINE
8
BLACK
6
CONTINUOUS
10
5.8762277559055116
20
-2.4452745669291338
11
5.8762550393700783
21
-2.4452161811023623
0
LINE
8
BLACK
6
CONTINUOUS
10
5.8762550393700783
20
-2.4452161811023623
11
5.8781302755905509
21
-2.4433418897637793
0
LINE
8
BLACK
6
CONTINUOUS
10
5.8781302755905509
20
-2.4433418897637793
11
5.8788534251968505
21
-2.4428357874015747
0
LINE
8
BLACK
6
CONTINUOUS
10
5.8788534251968505
20
-2.4428357874015747
11
5.8788977952755905
21
-2.4427889763779529
0
LINE
8
BLACK
6
CONTINUOUS
10
5.8788977952755905
20
-2.4427889763779529
11
5.8826478346456694
21
-2.4409151181102362
0
LINE
8
BLACK
6
CONTINUOUS
10
5.8826478346456694
20
-2.4409151181102362
11
5.8836308267716531
21
-2.4406229527559056
0
LINE
8
BLACK
6
CONTINUOUS
10
5.8836308267716531
20
-2.4406229527559056
11
5.883802559055118
21
-2.4406640157480313
0
LINE
8
BLACK
6
CONTINUOUS
10
5.883802559055118
20
-2.4406640157480313
11
5.8839684251968505
21
-2.4406037007874013
0
LINE
8
BLACK
6
CONTINUOUS
10
5.8839684251968505
20
-2.4406037007874013
11
5.8877179527559056
21
-2.4406046456692914
0
LINE
8
BLACK
6
CONTINUOUS
10
5.881966141732283
20
-2.4478574409448819
11
5.88076874015748
21
-2.4490542913385824
0
LINE
8
BLACK
6
CONTINUOUS
10
5.88076874015748
20
-2.4490542913385824
11
5.8792524803149604
21
-2.4520849212598423
0
LINE
8
BLACK
6
CONTINUOUS
10
5.8792524803149604
20
-2.4520849212598423
11
5.8775427559055116
21
-2.4589164566929131
0
LINE
8
BLACK
6
CONTINUOUS
10
5.8775427559055116
20
-2.4589164566929131
11
5.8775406299212598
21
-2.4675633464566928
0
LINE
8
BLACK
6
CONTINUOUS
10
5.8775406299212598
20
-2.4675633464566928
11
5.879246929133858
21
-2.4743957086614174
0
LINE
8
BLACK
6
CONTINUOUS
10
5.879246929133858
20
-2.4743957086614174
11
5.8807616535433072
21
-2.4774270866141732
0
LINE
8
BLACK
6
CONTINUOUS
10
5.8807616535433072
20
-2.4774270866141732
11
5.8819585039370077
21
-2.4786244881889763
0
LINE
8
BLACK
6
CONTINUOUS
10
5.8819585039370077
20
-2.4786244881889763
11
5.8846557086614171
21
-2.4799739370078742
0
LINE
8
BLACK
6
CONTINUOUS
10
5.8846557086614171
20
-2.4799739370078742
11
5.8870111023622043
21
-2.479974527559055
0
LINE
8
BLACK
6
CONTINUOUS
10
5.8870111023622043
20
-2.479974527559055
11
5.8897088976377949
21
-2.4786264566929135
0
LINE
8
BLACK
6
CONTINUOUS
10
5.8897088976377949
20
-2.4786264566929135
11
5.8909063385826768
21
-2.4774296456692912
0
LINE
8
BLACK
6
CONTINUOUS
10
5.8909063385826768
20
-2.4774296456692912
11
5.8924226771653538
21
-2.4743988582677163
0
LINE
8
BLACK
6
CONTINUOUS
10
5.8924226771653538
20
-2.4743988582677163
11
5.8941323228346452
21
-2.4675674409448818
0
LINE
8
BLACK
6
CONTINUOUS
10
5.8941323228346452
20
-2.4675674409448818
11
5.8941344488188978
21
-2.4589205511811021
0
LINE
8
BLACK
6
CONTINUOUS
10
5.8941344488188978
20
-2.4589205511811021
11
5.8924281889763774
21
-2.4520883070866142
0
LINE
8
BLACK
6
CONTINUOUS
10
5.8924281889763774
20
-2.4520883070866142
11
5.8909134251968505
21
-2.4490568110236222
0
LINE
8
BLACK
6
CONTINUOUS
10
5.8909134251968505
20
-2.4490568110236222
11
5.889716574803149
21
-2.4478593700787399
0
LINE
8
BLACK
6
CONTINUOUS
10
5.889716574803149
20
-2.4478593700787399
11
5.8870194094488184
21
-2.4465099606299212
0
LINE
8
BLACK
6
CONTINUOUS
10
5.8870194094488184
20
-2.4465099606299212
11
5.8846639763779525
21
-2.4465093700787399
0
LINE
8
BLACK
6
CONTINUOUS
10
5.8846639763779525
20
-2.4465093700787399
11
5.881966141732283
21
-2.4478574409448819
0
LINE
8
BLACK
6
CONTINUOUS
10
6.0301968503937005
20
-2.4537632677165355
11
6.0312067322834642
21
-2.4539415748031495
0
LINE
8
BLACK
6
CONTINUOUS
10
6.0312067322834642
20
-2.4539415748031495
11
6.0313419291338581
21
-2.4540550787401574
0
LINE
8
BLACK
6
CONTINUOUS
10
6.0313419291338581
20
-2.4540550787401574
11
6.0315173228346453
21
-2.45407531496063
0
LINE
8
BLACK
6
CONTINUOUS
10
6.0315173228346453
20
-2.45407531496063
11
6.0352663779527553
21
-2.4559510236220472
0
LINE
8
BLACK
6
CONTINUOUS
10
6.0352663779527553
20
-2.4559510236220472
11
6.0358361811023622
21
-2.4563738582677166
0
LINE
8
BLACK
6
CONTINUOUS
10
6.0358361811023622
20
-2.4563738582677166
11
6.0360709055118109
21
-2.4562722047244092
0
LINE
8
BLACK
6
CONTINUOUS
10
6.0360709055118109
20
-2.4562722047244092
11
6.0363749212598421
21
-2.4559512992125985
0
LINE
8
BLACK
6
CONTINUOUS
10
6.0363749212598421
20
-2.4559512992125985
11
6.0401249212598422
21
-2.4540774803149605
0
LINE
8
BLACK
6
CONTINUOUS
10
6.0401249212598422
20
-2.4540774803149605
11
6.0411079133858268
21
-2.4537853543307087
0
LINE
8
BLACK
6
CONTINUOUS
10
6.0411079133858268
20
-2.4537853543307087
11
6.0412795275590554
21
-2.453826377952756
0
LINE
8
BLACK
6
CONTINUOUS
10
6.0412795275590554
20
-2.453826377952756
11
6.0414454724409445
21
-2.4537660629921261
0
LINE
8
BLACK
6
CONTINUOUS
10
6.0414454724409445
20
-2.4537660629921261
11
6.0470697637795272
21
-2.453767440944882
0
LINE
8
BLACK
6
CONTINUOUS
10
6.0470697637795272
20
-2.453767440944882
11
6.0480796456692909
21
-2.4539457480314959
0
LINE
8
BLACK
6
CONTINUOUS
10
6.0480796456692909
20
-2.4539457480314959
11
6.0482148425196849
21
-2.4540592519685038
0
LINE
8
BLACK
6
CONTINUOUS
10
6.0482148425196849
20
-2.4540592519685038
11
6.048390236220472
21
-2.4540794881889765
0
LINE
8
BLACK
6
CONTINUOUS
10
6.048390236220472
20
-2.4540794881889765
11
6.052139291338583
21
-2.4559551968503937
0
LINE
8
BLACK
6
CONTINUOUS
10
6.052139291338583
20
-2.4559551968503937
11
6.0529627952755902
21
-2.456566338582677
0
LINE
8
BLACK
6
CONTINUOUS
10
6.0529627952755902
20
-2.456566338582677
11
6.0531385039370074
21
-2.4569720078740156
0
LINE
8
BLACK
6
CONTINUOUS
10
6.0531385039370074
20
-2.4569720078740156
11
6.0534594488188977
21
-2.4572760236220472
0
LINE
8
BLACK
6
CONTINUOUS
10
6.0534594488188977
20
-2.4572760236220472
11
6.055333307086614
21
-2.4610260629921261
0
LINE
8
BLACK
6
CONTINUOUS
10
6.055333307086614
20
-2.4610260629921261
11
6.0556254724409451
21
-2.4620090551181102
0
LINE
8
BLACK
6
CONTINUOUS
10
6.0556254724409451
20
-2.4620090551181102
11
6.0555843700787397
21
-2.4621807874015746
0
LINE
8
BLACK
6
CONTINUOUS
10
6.0555843700787397
20
-2.4621807874015746
11
6.0556447244094489
21
-2.4623466535433072
0
LINE
8
BLACK
6
CONTINUOUS
10
6.0556447244094489
20
-2.4623466535433072
11
6.0556396062992128
21
-2.4829690551181103
0
LINE
8
BLACK
6
CONTINUOUS
10
6.0556396062992128
20
-2.4829690551181103
11
6.055461299212598
21
-2.4839788976377952
0
LINE
8
BLACK
6
CONTINUOUS
10
6.055461299212598
20
-2.4839788976377952
11
6.0541625984251963
21
-2.4855258267716533
0
LINE
8
BLACK
6
CONTINUOUS
10
6.0541625984251963
20
-2.4855258267716533
11
6.0521733858267712
21
-2.4858761023622047
0
LINE
8
BLACK
6
CONTINUOUS
10
6.0521733858267712
20
-2.4858761023622047
11
6.0504244488188972
21
-2.484865748031496
0
LINE
8
BLACK
6
CONTINUOUS
10
6.0504244488188972
20
-2.484865748031496
11
6.0497340944881888
21
-2.4829675590551181
0
LINE
8
BLACK
6
CONTINUOUS
10
6.0497340944881888
20
-2.4829675590551181
11
6.0497390157480311
21
-2.4630422047244096
0
LINE
8
BLACK
6
CONTINUOUS
10
6.0497390157480311
20
-2.4630422047244096
11
6.0486166929133853
21
-2.4607961811023622
0
LINE
8
BLACK
6
CONTINUOUS
10
6.0486166929133853
20
-2.4607961811023622
11
6.0463712204724409
21
-2.4596727559055118
0
LINE
8
BLACK
6
CONTINUOUS
10
6.0463712204724409
20
-2.4596727559055118
11
6.0421411023622049
21
-2.4596717322834647
0
LINE
8
BLACK
6
CONTINUOUS
10
6.0421411023622049
20
-2.4596717322834647
11
6.0398950787401571
21
-2.4607939763779525
0
LINE
8
BLACK
6
CONTINUOUS
10
6.0398950787401571
20
-2.4607939763779525
11
6.0387716141732284
21
-2.4630395275590549
0
LINE
8
BLACK
6
CONTINUOUS
10
6.0387716141732284
20
-2.4630395275590549
11
6.0387666929133861
21
-2.4829648818897638
0
LINE
8
BLACK
6
CONTINUOUS
10
6.0387666929133861
20
-2.4829648818897638
11
6.0385883858267713
21
-2.4839747244094488
0
LINE
8
BLACK
6
CONTINUOUS
10
6.0385883858267713
20
-2.4839747244094488
11
6.0372896850393696
21
-2.4855216535433069
0
LINE
8
BLACK
6
CONTINUOUS
10
6.0372896850393696
20
-2.4855216535433069
11
6.0353004724409445
21
-2.4858719291338582
0
LINE
8
BLACK
6
CONTINUOUS
10
6.0353004724409445
20
-2.4858719291338582
11
6.0335515354330704
21
-2.4848615748031495
0
LINE
8
BLACK
6
CONTINUOUS
10
6.0335515354330704
20
-2.4848615748031495
11
6.032861181102362
21
-2.4829633858267717
0
LINE
8
BLACK
6
CONTINUOUS
10
6.032861181102362
20
-2.4829633858267717
11
6.0328661023622043
21
-2.4630380314960632
0
LINE
8
BLACK
6
CONTINUOUS
10
6.0328661023622043
20
-2.4630380314960632
11
6.0317438582677161
21
-2.4607920472440945
0
LINE
8
BLACK
6
CONTINUOUS
10
6.0317438582677161
20
-2.4607920472440945
11
6.0294983070866142
21
-2.4596685826771654
0
LINE
8
BLACK
6
CONTINUOUS
10
6.0294983070866142
20
-2.4596685826771654
11
6.0252681889763782
21
-2.4596675590551182
0
LINE
8
BLACK
6
CONTINUOUS
10
6.0252681889763782
20
-2.4596675590551182
11
6.0225703543307088
21
-2.461015590551181
0
LINE
8
BLACK
6
CONTINUOUS
10
6.0225703543307088
20
-2.461015590551181
11
6.0218990551181104
21
-2.4616865748031493
0
LINE
8
BLACK
6
CONTINUOUS
10
6.0218990551181104
20
-2.4616865748031493
11
6.0218938188976381
21
-2.4829607086614174
0
LINE
8
BLACK
6
CONTINUOUS
10
6.0218938188976381
20
-2.4829607086614174
11
6.0217155118110233
21
-2.4839705511811023
0
LINE
8
BLACK
6
CONTINUOUS
10
6.0217155118110233
20
-2.4839705511811023
11
6.0204168110236216
21
-2.4855174803149604
0
LINE
8
BLACK
6
CONTINUOUS
10
6.0204168110236216
20
-2.4855174803149604
11
6.0184275984251965
21
-2.4858677559055118
0
LINE
8
BLACK
6
CONTINUOUS
10
6.0184275984251965
20
-2.4858677559055118
11
6.0166786614173224
21
-2.4848574015748031
0
LINE
8
BLACK
6
CONTINUOUS
10
6.0166786614173224
20
-2.4848574015748031
11
6.015988307086614
21
-2.4829592125984252
0
LINE
8
BLACK
6
CONTINUOUS
10
6.015988307086614
20
-2.4829592125984252
11
6.0159948031496064
21
-2.4567124803149607
0
LINE
8
BLACK
6
CONTINUOUS
10
6.0159948031496064
20
-2.4567124803149607
11
6.0161731102362204
21
-2.4557026377952758
0
LINE
8
BLACK
6
CONTINUOUS
10
6.0161731102362204
20
-2.4557026377952758
11
6.0174718110236221
21
-2.4541557086614172
0
LINE
8
BLACK
6
CONTINUOUS
10
6.0174718110236221
20
-2.4541557086614172
11
6.0194610236220472
21
-2.4538054330708663
0
LINE
8
BLACK
6
CONTINUOUS
10
6.0194610236220472
20
-2.4538054330708663
11
6.0212099606299212
21
-2.4548157874015746
0
LINE
8
BLACK
6
CONTINUOUS
10
6.0212099606299212
20
-2.4548157874015746
11
6.0212954724409444
21
-2.4550509448818896
0
LINE
8
BLACK
6
CONTINUOUS
10
6.0212954724409444
20
-2.4550509448818896
11
6.0232520078740155
21
-2.4540733070866141
0
LINE
8
BLACK
6
CONTINUOUS
10
6.0232520078740155
20
-2.4540733070866141
11
6.024235
21
-2.4537811811023622
0
LINE
8
BLACK
6
CONTINUOUS
10
6.024235
20
-2.4537811811023622
11
6.0244066141732286
21
-2.4538222047244096
0
LINE
8
BLACK
6
CONTINUOUS
10
6.0244066141732286
20
-2.4538222047244096
11
6.0245725590551178
21
-2.4537618897637796
0
LINE
8
BLACK
6
CONTINUOUS
10
6.0245725590551178
20
-2.4537618897637796
11
6.0301968503937005
21
-2.4537632677165355
0
LINE
8
BLACK
6
CONTINUOUS
10
5.8502226377952757
20
-2.4405953543307084
11
5.8512325196850394
21
-2.4407736614173228
0
LINE
8
BLACK
6
CONTINUOUS
10
5.8512325196850394
20
-2.4407736614173228
11
5.8513677165354325
21
-2.4408871653543307
0
LINE
8
BLACK
6
CONTINUOUS
10
5.8513677165354325
20
-2.4408871653543307
11
5.8515430708661418
21
-2.4409074015748029
0
LINE
8
BLACK
6
CONTINUOUS
10
5.8515430708661418
20
-2.4409074015748029
11
5.8552921259842519
21
-2.4427831102362205
0
LINE
8
BLACK
6
CONTINUOUS
10
5.8552921259842519
20
-2.4427831102362205
11
5.8560009055118112
21
-2.443309094488189
0
LINE
8
BLACK
6
CONTINUOUS
10
5.8560009055118112
20
-2.443309094488189
11
5.8560593307086615
21
-2.4433363779527557
0
LINE
8
BLACK
6
CONTINUOUS
10
5.8560593307086615
20
-2.4433363779527557
11
5.8579336614173227
21
-2.4452115748031495
0
LINE
8
BLACK
6
CONTINUOUS
10
5.8579336614173227
20
-2.4452115748031495
11
5.8584398818897636
21
-2.4459349212598425
0
LINE
8
BLACK
6
CONTINUOUS
10
5.8584398818897636
20
-2.4459349212598425
11
5.8584866141732279
21
-2.4459791732283462
0
LINE
8
BLACK
6
CONTINUOUS
10
5.8584866141732279
20
-2.4459791732283462
11
5.8603604330708663
21
-2.4497291732283464
0
LINE
8
BLACK
6
CONTINUOUS
10
5.8603604330708663
20
-2.4497291732283464
11
5.8605055905511811
21
-2.4502176377952756
0
LINE
8
BLACK
6
CONTINUOUS
10
5.8605055905511811
20
-2.4502176377952756
11
5.8605838582677166
21
-2.4503335826771653
0
LINE
8
BLACK
6
CONTINUOUS
10
5.8605838582677166
20
-2.4503335826771653
11
5.8624567716535427
21
-2.4578330708661418
0
LINE
8
BLACK
6
CONTINUOUS
10
5.8624567716535427
20
-2.4578330708661418
11
5.8624981102362206
21
-2.4584209842519686
0
LINE
8
BLACK
6
CONTINUOUS
10
5.8624981102362206
20
-2.4584209842519686
11
5.8625447637795274
21
-2.4585492913385827
0
LINE
8
BLACK
6
CONTINUOUS
10
5.8625447637795274
20
-2.4585492913385827
11
5.8625424409448819
21
-2.4679231102362205
0
LINE
8
BLACK
6
CONTINUOUS
10
5.8625424409448819
20
-2.4679231102362205
11
5.8624399212598428
21
-2.4685035039370078
0
LINE
8
BLACK
6
CONTINUOUS
10
5.8624399212598428
20
-2.4685035039370078
11
5.8624540944881884
21
-2.4686392125984251
0
LINE
8
BLACK
6
CONTINUOUS
10
5.8624540944881884
20
-2.4686392125984251
11
5.8605774803149604
21
-2.4761378346456691
0
LINE
8
BLACK
6
CONTINUOUS
10
5.8605774803149604
20
-2.4761378346456691
11
5.8603697244094484
21
-2.4766033070866142
0
LINE
8
BLACK
6
CONTINUOUS
10
5.8603697244094484
20
-2.4766033070866142
11
5.8603537401574801
21
-2.4767421653543304
0
LINE
8
BLACK
6
CONTINUOUS
10
5.8603537401574801
20
-2.4767421653543304
11
5.8584780708661413
21
-2.480491220472441
0
LINE
8
BLACK
6
CONTINUOUS
10
5.8584780708661413
20
-2.480491220472441
11
5.8579519291338578
21
-2.4812001574803149
0
LINE
8
BLACK
6
CONTINUOUS
10
5.8579519291338578
20
-2.4812001574803149
11
5.8579247244094486
21
-2.4812585039370076
0
LINE
8
BLACK
6
CONTINUOUS
10
5.8579247244094486
20
-2.4812585039370076
11
5.8560495275590547
21
-2.4831327559055119
0
LINE
8
BLACK
6
CONTINUOUS
10
5.8560495275590547
20
-2.4831327559055119
11
5.8553263385826773
21
-2.4836388188976377
0
LINE
8
BLACK
6
CONTINUOUS
10
5.8553263385826773
20
-2.4836388188976377
11
5.855282007874016
21
-2.4836856692913387
0
LINE
8
BLACK
6
CONTINUOUS
10
5.855282007874016
20
-2.4836856692913387
11
5.8515320078740158
21
-2.485559527559055
0
LINE
8
BLACK
6
CONTINUOUS
10
5.8515320078740158
20
-2.485559527559055
11
5.8505489763779526
21
-2.4858516929133856
0
LINE
8
BLACK
6
CONTINUOUS
10
5.8505489763779526
20
-2.4858516929133856
11
5.8503772047244089
21
-2.4858105905511811
0
LINE
8
BLACK
6
CONTINUOUS
10
5.8503772047244089
20
-2.4858105905511811
11
5.850211377952756
21
-2.4858709448818899
0
LINE
8
BLACK
6
CONTINUOUS
10
5.850211377952756
20
-2.4858709448818899
11
5.8464618503937009
21
-2.4858699999999998
0
LINE
8
BLACK
6
CONTINUOUS
10
5.8464618503937009
20
-2.4858699999999998
11
5.8454519685039372
21
-2.4856916929133859
0
LINE
8
BLACK
6
CONTINUOUS
10
5.8454519685039372
20
-2.4856916929133859
11
5.8453167322834645
21
-2.4855781496062992
0
LINE
8
BLACK
6
CONTINUOUS
10
5.8453167322834645
20
-2.4855781496062992
11
5.8451414566929136
21
-2.4855579527559053
0
LINE
8
BLACK
6
CONTINUOUS
10
5.8451414566929136
20
-2.4855579527559053
11
5.8413924015748027
21
-2.4836822834645669
0
LINE
8
BLACK
6
CONTINUOUS
10
5.8413924015748027
20
-2.4836822834645669
11
5.8406834251968505
21
-2.4831561417322834
0
LINE
8
BLACK
6
CONTINUOUS
10
5.8406834251968505
20
-2.4831561417322834
11
5.8406250787401577
21
-2.4831289370078737
0
LINE
8
BLACK
6
CONTINUOUS
10
5.8406250787401577
20
-2.4831289370078737
11
5.838750826771653
21
-2.4812537401574803
0
LINE
8
BLACK
6
CONTINUOUS
10
5.838750826771653
20
-2.4812537401574803
11
5.8382447244094484
21
-2.4805305511811024
0
LINE
8
BLACK
6
CONTINUOUS
10
5.8382447244094484
20
-2.4805305511811024
11
5.8381979133858266
21
-2.4804862204724407
0
LINE
8
BLACK
6
CONTINUOUS
10
5.8381979133858266
20
-2.4804862204724407
11
5.8363240551181104
21
-2.476736220472441
0
LINE
8
BLACK
6
CONTINUOUS
10
5.8363240551181104
20
-2.476736220472441
11
5.836178818897638
21
-2.4762475984251968
0
LINE
8
BLACK
6
CONTINUOUS
10
5.836178818897638
20
-2.4762475984251968
11
5.8361006299212601
21
-2.4761317716535434
0
LINE
8
BLACK
6
CONTINUOUS
10
5.8361006299212601
20
-2.4761317716535434
11
5.834227716535433
21
-2.4686322440944881
0
LINE
8
BLACK
6
CONTINUOUS
10
5.834227716535433
20
-2.4686322440944881
11
5.8341863779527561
21
-2.4680443307086612
0
LINE
8
BLACK
6
CONTINUOUS
10
5.8341863779527561
20
-2.4680443307086612
11
5.8341397244094484
21
-2.467916062992126
0
LINE
8
BLACK
6
CONTINUOUS
10
5.8341397244094484
20
-2.467916062992126
11
5.8341420472440948
21
-2.4585422440944882
0
LINE
8
BLACK
6
CONTINUOUS
10
5.8341420472440948
20
-2.4585422440944882
11
5.8342445275590551
21
-2.4579618110236221
0
LINE
8
BLACK
6
CONTINUOUS
10
5.8342445275590551
20
-2.4579618110236221
11
5.8342303937007873
21
-2.4578261417322835
0
LINE
8
BLACK
6
CONTINUOUS
10
5.8342303937007873
20
-2.4578261417322835
11
5.8361070472440941
21
-2.4503275196850391
0
LINE
8
BLACK
6
CONTINUOUS
10
5.8361070472440941
20
-2.4503275196850391
11
5.8363147244094487
21
-2.4498620866141732
0
LINE
8
BLACK
6
CONTINUOUS
10
5.8363147244094487
20
-2.4498620866141732
11
5.8363307480314957
21
-2.4497232283464565
0
LINE
8
BLACK
6
CONTINUOUS
10
5.8363307480314957
20
-2.4497232283464565
11
5.8382064173228345
21
-2.4459741732283464
0
LINE
8
BLACK
6
CONTINUOUS
10
5.8382064173228345
20
-2.4459741732283464
11
5.8387324409448818
21
-2.4452652755905513
0
LINE
8
BLACK
6
CONTINUOUS
10
5.8387324409448818
20
-2.4452652755905513
11
5.8387597244094485
21
-2.4452068897637793
0
LINE
8
BLACK
6
CONTINUOUS
10
5.8387597244094485
20
-2.4452068897637793
11
5.840634960629921
21
-2.4433325984251968
0
LINE
8
BLACK
6
CONTINUOUS
10
5.840634960629921
20
-2.4433325984251968
11
5.8413581102362206
21
-2.4428264960629922
0
LINE
8
BLACK
6
CONTINUOUS
10
5.8413581102362206
20
-2.4428264960629922
11
5.8414024803149607
21
-2.4427796850393699
0
LINE
8
BLACK
6
CONTINUOUS
10
5.8414024803149607
20
-2.4427796850393699
11
5.8451525196850396
21
-2.4409058267716537
0
LINE
8
BLACK
6
CONTINUOUS
10
5.8451525196850396
20
-2.4409058267716537
11
5.8461355118110232
21
-2.4406136614173226
0
LINE
8
BLACK
6
CONTINUOUS
10
5.8461355118110232
20
-2.4406136614173226
11
5.8463072440944881
21
-2.4406547244094488
0
LINE
8
BLACK
6
CONTINUOUS
10
5.8463072440944881
20
-2.4406547244094488
11
5.8464731102362206
21
-2.4405944094488188
0
LINE
8
BLACK
6
CONTINUOUS
10
5.8464731102362206
20
-2.4405944094488188
11
5.8502226377952757
21
-2.4405953543307084
0
LINE
8
BLACK
6
CONTINUOUS
10
5.8444708267716532
20
-2.4478481496062994
11
5.8432734251968501
21
-2.4490449999999999
0
LINE
8
BLACK
6
CONTINUOUS
10
5.8432734251968501
20
-2.4490449999999999
11
5.8417571653543305
21
-2.4520756299212598
0
LINE
8
BLACK
6
CONTINUOUS
10
5.8417571653543305
20
-2.4520756299212598
11
5.8400474409448817
21
-2.4589071653543306
0
LINE
8
BLACK
6
CONTINUOUS
10
5.8400474409448817
20
-2.4589071653543306
11
5.84004531496063
21
-2.4675540551181103
0
LINE
8
BLACK
6
CONTINUOUS
10
5.84004531496063
20
-2.4675540551181103
11
5.8417516141732282
21
-2.4743864173228345
0
LINE
8
BLACK
6
CONTINUOUS
10
5.8417516141732282
20
-2.4743864173228345
11
5.8432663779527561
21
-2.4774177952755907
0
LINE
8
BLACK
6
CONTINUOUS
10
5.8432663779527561
20
-2.4774177952755907
11
5.8444632283464566
21
-2.4786152362204725
0
LINE
8
BLACK
6
CONTINUOUS
10
5.8444632283464566
20
-2.4786152362204725
11
5.8471603543307085
21
-2.4799646456692912
0
LINE
8
BLACK
6
CONTINUOUS
10
5.8471603543307085
20
-2.4799646456692912
11
5.8495157874015744
21
-2.4799652362204725
0
LINE
8
BLACK
6
CONTINUOUS
10
5.8495157874015744
20
-2.4799652362204725
11
5.8522135826771651
21
-2.4786171653543305
0
LINE
8
BLACK
6
CONTINUOUS
10
5.8522135826771651
20
-2.4786171653543305
11
5.8534110236220469
21
-2.4774203543307087
0
LINE
8
BLACK
6
CONTINUOUS
10
5.8534110236220469
20
-2.4774203543307087
11
5.854927362204724
21
-2.4743895669291338
0
LINE
8
BLACK
6
CONTINUOUS
10
5.854927362204724
20
-2.4743895669291338
11
5.8566370078740153
21
-2.4675581496062993
0
LINE
8
BLACK
6
CONTINUOUS
10
5.8566370078740153
20
-2.4675581496062993
11
5.856639133858268
21
-2.4589112598425196
0
LINE
8
BLACK
6
CONTINUOUS
10
5.856639133858268
20
-2.4589112598425196
11
5.8549328740157476
21
-2.4520790157480312
0
LINE
8
BLACK
6
CONTINUOUS
10
5.8549328740157476
20
-2.4520790157480312
11
5.8534181102362206
21
-2.4490475196850392
0
LINE
8
BLACK
6
CONTINUOUS
10
5.8534181102362206
20
-2.4490475196850392
11
5.8522212204724404
21
-2.4478500787401574
0
LINE
8
BLACK
6
CONTINUOUS
10
5.8522212204724404
20
-2.4478500787401574
11
5.8495240551181098
21
-2.4465006692913387
0
LINE
8
BLACK
6
CONTINUOUS
10
5.8495240551181098
20
-2.4465006692913387
11
5.8471686614173226
21
-2.4465000787401574
0
LINE
8
BLACK
6
CONTINUOUS
10
5.8471686614173226
20
-2.4465000787401574
11
5.8444708267716532
21
-2.4478481496062994
0
LINE
8
BLACK
6
CONTINUOUS
10
5.8033535039370081
20
-2.4405837401574804
11
5.8037907480314956
21
-2.4406609448818899
0
LINE
8
BLACK
6
CONTINUOUS
10
5.8037907480314956
20
-2.4406609448818899
11
5.8039262992125984
21
-2.4406399606299214
0
LINE
8
BLACK
6
CONTINUOUS
10
5.8039262992125984
20
-2.4406399606299214
11
5.804030984251968
21
-2.4407033464566927
0
LINE
8
BLACK
6
CONTINUOUS
10
5.804030984251968
20
-2.4407033464566927
11
5.8043633464566931
21
-2.4407620472440943
0
LINE
8
BLACK
6
CONTINUOUS
10
5.8043633464566931
20
-2.4407620472440943
11
5.8049729921259843
21
-2.4412738582677167
0
LINE
8
BLACK
6
CONTINUOUS
10
5.8049729921259843
20
-2.4412738582677167
11
5.8056539763779522
21
-2.4416862992125985
0
LINE
8
BLACK
6
CONTINUOUS
10
5.8056539763779522
20
-2.4416862992125985
11
5.8057298818897634
21
-2.4419092913385825
0
LINE
8
BLACK
6
CONTINUOUS
10
5.8057298818897634
20
-2.4419092913385825
11
5.8059102755905512
21
-2.442060748031496
0
LINE
8
BLACK
6
CONTINUOUS
10
5.8059102755905512
20
-2.442060748031496
11
5.8060483070866145
21
-2.4428448031496064
0
LINE
8
BLACK
6
CONTINUOUS
10
5.8060483070866145
20
-2.4428448031496064
11
5.806304842519685
21
-2.4435983464566928
0
LINE
8
BLACK
6
CONTINUOUS
10
5.806304842519685
20
-2.4435983464566928
11
5.8062196850393697
21
-2.4438178740157479
0
LINE
8
BLACK
6
CONTINUOUS
10
5.8062196850393697
20
-2.4438178740157479
11
5.8062605511811025
21
-2.4440499606299211
0
LINE
8
BLACK
6
CONTINUOUS
10
5.8062605511811025
20
-2.4440499606299211
11
5.805862244094488
21
-2.4447393700787403
0
LINE
8
BLACK
6
CONTINUOUS
10
5.805862244094488
20
-2.4447393700787403
11
5.8055744488188976
21
-2.4454814566929133
0
LINE
8
BLACK
6
CONTINUOUS
10
5.8055744488188976
20
-2.4454814566929133
11
5.7966155905511814
21
-2.4557150393700788
0
LINE
8
BLACK
6
CONTINUOUS
10
5.7966155905511814
20
-2.4557150393700788
11
5.796860590551181
21
-2.4557583070866142
0
LINE
8
BLACK
6
CONTINUOUS
10
5.796860590551181
20
-2.4557583070866142
11
5.796995787401575
21
-2.4558718110236222
0
LINE
8
BLACK
6
CONTINUOUS
10
5.796995787401575
20
-2.4558718110236222
11
5.7971711811023621
21
-2.4558920472440944
0
LINE
8
BLACK
6
CONTINUOUS
10
5.7971711811023621
20
-2.4558920472440944
11
5.8009202362204721
21
-2.4577677559055116
0
LINE
8
BLACK
6
CONTINUOUS
10
5.8009202362204721
20
-2.4577677559055116
11
5.801629094488189
21
-2.4582938188976375
0
LINE
8
BLACK
6
CONTINUOUS
10
5.801629094488189
20
-2.4582938188976375
11
5.8016874803149605
21
-2.4583210629921259
0
LINE
8
BLACK
6
CONTINUOUS
10
5.8016874803149605
20
-2.4583210629921259
11
5.803561771653543
21
-2.4601962992125985
0
LINE
8
BLACK
6
CONTINUOUS
10
5.803561771653543
20
-2.4601962992125985
11
5.8040678346456689
21
-2.4609194488188977
0
LINE
8
BLACK
6
CONTINUOUS
10
5.8040678346456689
20
-2.4609194488188977
11
5.8041146850393703
21
-2.4609638188976377
0
LINE
8
BLACK
6
CONTINUOUS
10
5.8041146850393703
20
-2.4609638188976377
11
5.8059885433070866
21
-2.4647138582677166
0
LINE
8
BLACK
6
CONTINUOUS
10
5.8059885433070866
20
-2.4647138582677166
11
5.8062807086614168
21
-2.4656968503937007
0
LINE
8
BLACK
6
CONTINUOUS
10
5.8062807086614168
20
-2.4656968503937007
11
5.8062396062992123
21
-2.4658685826771651
0
LINE
8
BLACK
6
CONTINUOUS
10
5.8062396062992123
20
-2.4658685826771651
11
5.8062999606299215
21
-2.4660344488188977
0
LINE
8
BLACK
6
CONTINUOUS
10
5.8062999606299215
20
-2.4660344488188977
11
5.8062976377952751
21
-2.4754082677165354
0
LINE
8
BLACK
6
CONTINUOUS
10
5.8062976377952751
20
-2.4754082677165354
11
5.8061193307086612
21
-2.4764181102362204
0
LINE
8
BLACK
6
CONTINUOUS
10
5.8061193307086612
20
-2.4764181102362204
11
5.8060057480314962
21
-2.4765533464566927
0
LINE
8
BLACK
6
CONTINUOUS
10
5.8060057480314962
20
-2.4765533464566927
11
5.8059855511811023
21
-2.4767287007874015
0
LINE
8
BLACK
6
CONTINUOUS
10
5.8059855511811023
20
-2.4767287007874015
11
5.8041098818897634
21
-2.4804777559055116
0
LINE
8
BLACK
6
CONTINUOUS
10
5.8041098818897634
20
-2.4804777559055116
11
5.8035837401574799
21
-2.4811866929133859
0
LINE
8
BLACK
6
CONTINUOUS
10
5.8035837401574799
20
-2.4811866929133859
11
5.8035565354330707
21
-2.4812450393700787
0
LINE
8
BLACK
6
CONTINUOUS
10
5.8035565354330707
20
-2.4812450393700787
11
5.8016813385826769
21
-2.4831192913385824
0
LINE
8
BLACK
6
CONTINUOUS
10
5.8016813385826769
20
-2.4831192913385824
11
5.8009581496062994
21
-2.4836253543307087
0
LINE
8
BLACK
6
CONTINUOUS
10
5.8009581496062994
20
-2.4836253543307087
11
5.8009138188976372
21
-2.4836722047244093
0
LINE
8
BLACK
6
CONTINUOUS
10
5.8009138188976372
20
-2.4836722047244093
11
5.7971638582677167
21
-2.485546062992126
0
LINE
8
BLACK
6
CONTINUOUS
10
5.7971638582677167
20
-2.485546062992126
11
5.7961808661417322
21
-2.4858382283464566
0
LINE
8
BLACK
6
CONTINUOUS
10
5.7961808661417322
20
-2.4858382283464566
11
5.7960090944881886
21
-2.4857971259842517
0
LINE
8
BLACK
6
CONTINUOUS
10
5.7960090944881886
20
-2.4857971259842517
11
5.7958432283464569
21
-2.4858574803149605
0
LINE
8
BLACK
6
CONTINUOUS
10
5.7958432283464569
20
-2.4858574803149605
11
5.7845946062992128
21
-2.4858546850393699
0
LINE
8
BLACK
6
CONTINUOUS
10
5.7845946062992128
20
-2.4858546850393699
11
5.7835847244094483
21
-2.485676377952756
0
LINE
8
BLACK
6
CONTINUOUS
10
5.7835847244094483
20
-2.485676377952756
11
5.7834494881889764
21
-2.4855628346456693
0
LINE
8
BLACK
6
CONTINUOUS
10
5.7834494881889764
20
-2.4855628346456693
11
5.7832742125984247
21
-2.4855426377952754
0
LINE
8
BLACK
6
CONTINUOUS
10
5.7832742125984247
20
-2.4855426377952754
11
5.7795251574803146
21
-2.483666968503937
0
LINE
8
BLACK
6
CONTINUOUS
10
5.7795251574803146
20
-2.483666968503937
11
5.7788161811023624
21
-2.4831408267716535
0
LINE
8
BLACK
6
CONTINUOUS
10
5.7788161811023624
20
-2.4831408267716535
11
5.7787578346456687
21
-2.4831136220472438
0
LINE
8
BLACK
6
CONTINUOUS
10
5.7787578346456687
20
-2.4831136220472438
11
5.776883582677165
21
-2.4812384251968505
0
LINE
8
BLACK
6
CONTINUOUS
10
5.776883582677165
20
-2.4812384251968505
11
5.7762955905511806
21
-2.4803982283464565
0
LINE
8
BLACK
6
CONTINUOUS
10
5.7762955905511806
20
-2.4803982283464565
11
5.7761200393700785
21
-2.4783860629921257
0
LINE
8
BLACK
6
CONTINUOUS
10
5.7761200393700785
20
-2.4783860629921257
11
5.7772789763779526
21
-2.4767318110236221
0
LINE
8
BLACK
6
CONTINUOUS
10
5.7772789763779526
20
-2.4767318110236221
11
5.7792300787401576
21
-2.4762095669291337
0
LINE
8
BLACK
6
CONTINUOUS
10
5.7792300787401576
20
-2.4762095669291337
11
5.7810604330708664
21
-2.4770636220472442
0
LINE
8
BLACK
6
CONTINUOUS
10
5.7810604330708664
20
-2.4770636220472442
11
5.7825959842519685
21
-2.4785999212598426
0
LINE
8
BLACK
6
CONTINUOUS
10
5.7825959842519685
20
-2.4785999212598426
11
5.7852931102362204
21
-2.4799493307086613
0
LINE
8
BLACK
6
CONTINUOUS
10
5.7852931102362204
20
-2.4799493307086613
11
5.7951476377952753
21
-2.4799517716535431
0
LINE
8
BLACK
6
CONTINUOUS
10
5.7951476377952753
20
-2.4799517716535431
11
5.797845433070866
21
-2.4786037007874016
0
LINE
8
BLACK
6
CONTINUOUS
10
5.797845433070866
20
-2.4786037007874016
11
5.7990428346456691
21
-2.4774068897637793
0
LINE
8
BLACK
6
CONTINUOUS
10
5.7990428346456691
20
-2.4774068897637793
11
5.8003922834645669
21
-2.4747096850393699
0
LINE
8
BLACK
6
CONTINUOUS
10
5.8003922834645669
20
-2.4747096850393699
11
5.8003942519685037
21
-2.4667300000000001
0
LINE
8
BLACK
6
CONTINUOUS
10
5.8003942519685037
20
-2.4667300000000001
11
5.7990461811023621
21
-2.4640321653543307
0
LINE
8
BLACK
6
CONTINUOUS
10
5.7990461811023621
20
-2.4640321653543307
11
5.7978492913385828
21
-2.4628347244094488
0
LINE
8
BLACK
6
CONTINUOUS
10
5.7978492913385828
20
-2.4628347244094488
11
5.795152165354331
21
-2.4614853149606297
0
LINE
8
BLACK
6
CONTINUOUS
10
5.795152165354331
20
-2.4614853149606297
11
5.7902249999999995
21
-2.4614841338582676
0
LINE
8
BLACK
6
CONTINUOUS
10
5.7902249999999995
20
-2.4614841338582676
11
5.7897877165354332
21
-2.4614068897637793
0
LINE
8
BLACK
6
CONTINUOUS
10
5.7897877165354332
20
-2.4614068897637793
11
5.7896521653543305
21
-2.4614279133858266
0
LINE
8
BLACK
6
CONTINUOUS
10
5.7896521653543305
20
-2.4614279133858266
11
5.7895474409448822
21
-2.4613644881889765
0
LINE
8
BLACK
6
CONTINUOUS
10
5.7895474409448822
20
-2.4613644881889765
11
5.7892151181102358
21
-2.4613058267716537
0
LINE
8
BLACK
6
CONTINUOUS
10
5.7892151181102358
20
-2.4613058267716537
11
5.7886054330708658
21
-2.4607939763779525
0
LINE
8
BLACK
6
CONTINUOUS
10
5.7886054330708658
20
-2.4607939763779525
11
5.7879244881889766
21
-2.4603815748031495
0
LINE
8
BLACK
6
CONTINUOUS
10
5.7879244881889766
20
-2.4603815748031495
11
5.7878485433070868
21
-2.4601585433070867
0
LINE
8
BLACK
6
CONTINUOUS
10
5.7878485433070868
20
-2.4601585433070867
11
5.7876681889763777
21
-2.460007125984252
0
LINE
8
BLACK
6
CONTINUOUS
10
5.7876681889763777
20
-2.460007125984252
11
5.7875301181102357
21
-2.4592230314960628
0
LINE
8
BLACK
6
CONTINUOUS
10
5.7875301181102357
20
-2.4592230314960628
11
5.7872736220472438
21
-2.4584695275590551
0
LINE
8
BLACK
6
CONTINUOUS
10
5.7872736220472438
20
-2.4584695275590551
11
5.7873587401574804
21
-2.4582499606299213
0
LINE
8
BLACK
6
CONTINUOUS
10
5.7873587401574804
20
-2.4582499606299213
11
5.7873179133858264
21
-2.4580179133858269
0
LINE
8
BLACK
6
CONTINUOUS
10
5.7873179133858264
20
-2.4580179133858269
11
5.7877161811023621
21
-2.4573284645669289
0
LINE
8
BLACK
6
CONTINUOUS
10
5.7877161811023621
20
-2.4573284645669289
11
5.7880040157480313
21
-2.4565864173228347
0
LINE
8
BLACK
6
CONTINUOUS
10
5.7880040157480313
20
-2.4565864173228347
11
5.7968448031496065
21
-2.4464876377952756
0
LINE
8
BLACK
6
CONTINUOUS
10
5.7968448031496065
20
-2.4464876377952756
11
5.7789800787401573
21
-2.4464832283464566
0
LINE
8
BLACK
6
CONTINUOUS
10
5.7789800787401573
20
-2.4464832283464566
11
5.7779702362204723
21
-2.4463049212598427
0
LINE
8
BLACK
6
CONTINUOUS
10
5.7779702362204723
20
-2.4463049212598427
11
5.7764233070866142
21
-2.445006220472441
0
LINE
8
BLACK
6
CONTINUOUS
10
5.7764233070866142
20
-2.445006220472441
11
5.7760730314960629
21
-2.4430170078740159
0
LINE
8
BLACK
6
CONTINUOUS
10
5.7760730314960629
20
-2.4430170078740159
11
5.7770833858267716
21
-2.4412680708661418
0
LINE
8
BLACK
6
CONTINUOUS
10
5.7770833858267716
20
-2.4412680708661418
11
5.7789815748031499
21
-2.440577716535433
0
LINE
8
BLACK
6
CONTINUOUS
10
5.7789815748031499
20
-2.440577716535433
11
5.8033535039370081
21
-2.4405837401574804
0
LINE
8
BLACK
6
CONTINUOUS
10
5.820597244094488
20
-2.4762768503937007
11
5.820730354330709
21
-2.4762534251968504
0
LINE
8
BLACK
6
CONTINUOUS
10
5.820730354330709
20
-2.4762534251968504
11
5.8208473228346458
21
-2.4763209842519682
0
LINE
8
BLACK
6
CONTINUOUS
10
5.8208473228346458
20
-2.4763209842519682
11
5.8209817716535435
21
-2.4763092913385827
0
LINE
8
BLACK
6
CONTINUOUS
10
5.8209817716535435
20
-2.4763092913385827
11
5.821609960629921
21
-2.47674937007874
0
LINE
8
BLACK
6
CONTINUOUS
10
5.821609960629921
20
-2.47674937007874
11
5.8223052755905513
21
-2.4770738188976376
0
LINE
8
BLACK
6
CONTINUOUS
10
5.8223052755905513
20
-2.4770738188976376
11
5.8241795669291339
21
-2.4789490551181101
0
LINE
8
BLACK
6
CONTINUOUS
10
5.8241795669291339
20
-2.4789490551181101
11
5.8244028740157479
21
-2.4792681889763779
0
LINE
8
BLACK
6
CONTINUOUS
10
5.8244028740157479
20
-2.4792681889763779
11
5.8245103543307089
21
-2.479343464566929
0
LINE
8
BLACK
6
CONTINUOUS
10
5.8245103543307089
20
-2.479343464566929
11
5.8245442519685042
21
-2.4794701574803151
0
LINE
8
BLACK
6
CONTINUOUS
10
5.8245442519685042
20
-2.4794701574803151
11
5.8247675590551182
21
-2.4797892519685041
0
LINE
8
BLACK
6
CONTINUOUS
10
5.8247675590551182
20
-2.4797892519685041
11
5.8248342125984252
21
-2.4805535039370077
0
LINE
8
BLACK
6
CONTINUOUS
10
5.8248342125984252
20
-2.4805535039370077
11
5.825032559055118
21
-2.481294566929134
0
LINE
8
BLACK
6
CONTINUOUS
10
5.825032559055118
20
-2.481294566929134
11
5.8249198818897634
21
-2.4815359448818897
0
LINE
8
BLACK
6
CONTINUOUS
10
5.8249198818897634
20
-2.4815359448818897
11
5.8249430708661416
21
-2.4818013779527557
0
LINE
8
BLACK
6
CONTINUOUS
10
5.8249430708661416
20
-2.4818013779527557
11
5.8245029133858264
21
-2.4824296456692911
0
LINE
8
BLACK
6
CONTINUOUS
10
5.8245029133858264
20
-2.4824296456692911
11
5.8241785039370075
21
-2.4831249212598423
0
LINE
8
BLACK
6
CONTINUOUS
10
5.8241785039370075
20
-2.4831249212598423
11
5.8223033070866137
21
-2.4849991732283465
0
LINE
8
BLACK
6
CONTINUOUS
10
5.8223033070866137
20
-2.4849991732283465
11
5.8219841338582672
21
-2.4852224803149605
0
LINE
8
BLACK
6
CONTINUOUS
10
5.8219841338582672
20
-2.4852224803149605
11
5.8219088976377948
21
-2.4853299606299211
0
LINE
8
BLACK
6
CONTINUOUS
10
5.8219088976377948
20
-2.4853299606299211
11
5.8217821653543309
21
-2.4853638582677164
0
LINE
8
BLACK
6
CONTINUOUS
10
5.8217821653543309
20
-2.4853638582677164
11
5.8217751574803147
21
-2.4853687401574804
0
LINE
8
BLACK
6
CONTINUOUS
10
5.8217751574803147
20
-2.4853687401574804
11
5.821691653543307
21
-2.4854682677165352
0
LINE
8
BLACK
6
CONTINUOUS
10
5.821691653543307
20
-2.4854682677165352
11
5.8216132677165353
21
-2.4854820472440946
0
LINE
8
BLACK
6
CONTINUOUS
10
5.8216132677165353
20
-2.4854820472440946
11
5.8214631102362207
21
-2.4855871653543304
0
LINE
8
BLACK
6
CONTINUOUS
10
5.8214631102362207
20
-2.4855871653543304
11
5.8206987401574803
21
-2.4856538188976378
0
LINE
8
BLACK
6
CONTINUOUS
10
5.8206987401574803
20
-2.4856538188976378
11
5.8199577952755908
21
-2.4858521653543306
0
LINE
8
BLACK
6
CONTINUOUS
10
5.8199577952755908
20
-2.4858521653543306
11
5.8198354724409445
21
-2.4857950787401575
0
LINE
8
BLACK
6
CONTINUOUS
10
5.8198354724409445
20
-2.4857950787401575
11
5.8197024015748031
21
-2.4858185433070865
0
LINE
8
BLACK
6
CONTINUOUS
10
5.8197024015748031
20
-2.4858185433070865
11
5.8195854330708663
21
-2.4857509448818895
0
LINE
8
BLACK
6
CONTINUOUS
10
5.8195854330708663
20
-2.4857509448818895
11
5.8194509448818899
21
-2.485762716535433
0
LINE
8
BLACK
6
CONTINUOUS
10
5.8194509448818899
20
-2.485762716535433
11
5.8188224409448814
21
-2.4853224015748032
0
LINE
8
BLACK
6
CONTINUOUS
10
5.8188224409448814
20
-2.4853224015748032
11
5.818127440944882
21
-2.4849981102362206
0
LINE
8
BLACK
6
CONTINUOUS
10
5.818127440944882
20
-2.4849981102362206
11
5.8162531889763782
21
-2.4831229133858268
0
LINE
8
BLACK
6
CONTINUOUS
10
5.8162531889763782
20
-2.4831229133858268
11
5.8160298818897633
21
-2.4828038582677165
0
LINE
8
BLACK
6
CONTINUOUS
10
5.8160298818897633
20
-2.4828038582677165
11
5.8159224015748032
21
-2.4827285433070867
0
LINE
8
BLACK
6
CONTINUOUS
10
5.8159224015748032
20
-2.4827285433070867
11
5.8158884251968503
21
-2.4826017322834644
0
LINE
8
BLACK
6
CONTINUOUS
10
5.8158884251968503
20
-2.4826017322834644
11
5.8156651968503938
21
-2.4822827165354329
0
LINE
8
BLACK
6
CONTINUOUS
10
5.8156651968503938
20
-2.4822827165354329
11
5.8155985039370082
21
-2.4815184645669293
0
LINE
8
BLACK
6
CONTINUOUS
10
5.8155985039370082
20
-2.4815184645669293
11
5.8154001574803145
21
-2.4807774409448817
0
LINE
8
BLACK
6
CONTINUOUS
10
5.8154001574803145
20
-2.4807774409448817
11
5.8155127952755903
21
-2.4805359842519685
0
LINE
8
BLACK
6
CONTINUOUS
10
5.8155127952755903
20
-2.4805359842519685
11
5.8154896456692908
21
-2.4802705511811025
0
LINE
8
BLACK
6
CONTINUOUS
10
5.8154896456692908
20
-2.4802705511811025
11
5.8159298818897636
21
-2.479642125984252
0
LINE
8
BLACK
6
CONTINUOUS
10
5.8159298818897636
20
-2.479642125984252
11
5.8162542125984249
21
-2.478947086614173
0
LINE
8
BLACK
6
CONTINUOUS
10
5.8162542125984249
20
-2.478947086614173
11
5.8181294488188975
21
-2.4770727952755904
0
LINE
8
BLACK
6
CONTINUOUS
10
5.8181294488188975
20
-2.4770727952755904
11
5.818448464566929
21
-2.4768494881889764
0
LINE
8
BLACK
6
CONTINUOUS
10
5.818448464566929
20
-2.4768494881889764
11
5.8185238188976376
21
-2.4767420078740159
0
LINE
8
BLACK
6
CONTINUOUS
10
5.8185238188976376
20
-2.4767420078740159
11
5.8186505905511812
21
-2.476708031496063
0
LINE
8
BLACK
6
CONTINUOUS
10
5.8186505905511812
20
-2.476708031496063
11
5.8186575590551177
21
-2.4767031889763778
0
LINE
8
BLACK
6
CONTINUOUS
10
5.8186575590551177
20
-2.4767031889763778
11
5.8187411023622042
21
-2.4766037007874013
0
LINE
8
BLACK
6
CONTINUOUS
10
5.8187411023622042
20
-2.4766037007874013
11
5.8188194488188971
21
-2.4765898818897636
0
LINE
8
BLACK
6
CONTINUOUS
10
5.8188194488188971
20
-2.4765898818897636
11
5.8189696456692914
21
-2.4764848031496061
0
LINE
8
BLACK
6
CONTINUOUS
10
5.8189696456692914
20
-2.4764848031496061
11
5.8197337007874017
21
-2.4764181496062991
0
LINE
8
BLACK
6
CONTINUOUS
10
5.8197337007874017
20
-2.4764181496062991
11
5.8204749212598426
21
-2.4762197637795276
0
LINE
8
BLACK
6
CONTINUOUS
10
5.8204749212598426
20
-2.4762197637795276
11
5.820597244094488
21
-2.4762768503937007
0
LINE
8
BLACK
6
CONTINUOUS
10
5.7621086614173231
20
-2.4405735433070865
11
5.7631185039370081
21
-2.4407518503937009
0
LINE
8
BLACK
6
CONTINUOUS
10
5.7631185039370081
20
-2.4407518503937009
11
5.7646654330708662
21
-2.4420505511811021
0
LINE
8
BLACK
6
CONTINUOUS
10
5.7646654330708662
20
-2.4420505511811021
11
5.7650157086614175
21
-2.4440397637795277
0
LINE
8
BLACK
6
CONTINUOUS
10
5.7650157086614175
20
-2.4440397637795277
11
5.7640053543307088
21
-2.4457887007874017
0
LINE
8
BLACK
6
CONTINUOUS
10
5.7640053543307088
20
-2.4457887007874017
11
5.7621071653543305
21
-2.4464790551181101
0
LINE
8
BLACK
6
CONTINUOUS
10
5.7621071653543305
20
-2.4464790551181101
11
5.7553051574803149
21
-2.4464773622047242
0
LINE
8
BLACK
6
CONTINUOUS
10
5.7553051574803149
20
-2.4464773622047242
11
5.7526073622047242
21
-2.4478253937007874
0
LINE
8
BLACK
6
CONTINUOUS
10
5.7526073622047242
20
-2.4478253937007874
11
5.7512778740157477
21
-2.4491542125984251
0
LINE
8
BLACK
6
CONTINUOUS
10
5.7512778740157477
20
-2.4491542125984251
11
5.7479729133858264
21
-2.4541090157480316
0
LINE
8
BLACK
6
CONTINUOUS
10
5.7479729133858264
20
-2.4541090157480316
11
5.7472429133858265
21
-2.4570259842519686
0
LINE
8
BLACK
6
CONTINUOUS
10
5.7472429133858265
20
-2.4570259842519686
11
5.7495357874015749
21
-2.4558802755905513
0
LINE
8
BLACK
6
CONTINUOUS
10
5.7495357874015749
20
-2.4558802755905513
11
5.7505187795275585
21
-2.4555881102362203
0
LINE
8
BLACK
6
CONTINUOUS
10
5.7505187795275585
20
-2.4555881102362203
11
5.7506905118110234
21
-2.4556291732283464
0
LINE
8
BLACK
6
CONTINUOUS
10
5.7506905118110234
20
-2.4556291732283464
11
5.7508563779527559
21
-2.4555688582677164
0
LINE
8
BLACK
6
CONTINUOUS
10
5.7508563779527559
20
-2.4555688582677164
11
5.7583554330708662
21
-2.4555707480314961
0
LINE
8
BLACK
6
CONTINUOUS
10
5.7583554330708662
20
-2.4555707480314961
11
5.7593653149606299
21
-2.45574905511811
0
LINE
8
BLACK
6
CONTINUOUS
10
5.7593653149606299
20
-2.45574905511811
11
5.7595005118110238
21
-2.455862559055118
0
LINE
8
BLACK
6
CONTINUOUS
10
5.7595005118110238
20
-2.455862559055118
11
5.7596758267716535
21
-2.4558827952755906
0
LINE
8
BLACK
6
CONTINUOUS
10
5.7596758267716535
20
-2.4558827952755906
11
5.7634248818897635
21
-2.457758464566929
0
LINE
8
BLACK
6
CONTINUOUS
10
5.7634248818897635
20
-2.457758464566929
11
5.7641337401574804
21
-2.4582844881889763
0
LINE
8
BLACK
6
CONTINUOUS
10
5.7641337401574804
20
-2.4582844881889763
11
5.7641921653543307
21
-2.4583117716535434
0
LINE
8
BLACK
6
CONTINUOUS
10
5.7641921653543307
20
-2.4583117716535434
11
5.7660664566929132
21
-2.4601870078740156
0
LINE
8
BLACK
6
CONTINUOUS
10
5.7660664566929132
20
-2.4601870078740156
11
5.766572519685039
21
-2.4609101574803147
0
LINE
8
BLACK
6
CONTINUOUS
10
5.766572519685039
20
-2.4609101574803147
11
5.7666193700787396
21
-2.4609545275590552
0
LINE
8
BLACK
6
CONTINUOUS
10
5.7666193700787396
20
-2.4609545275590552
11
5.7684932283464567
21
-2.4647045669291336
0
LINE
8
BLACK
6
CONTINUOUS
10
5.7684932283464567
20
-2.4647045669291336
11
5.7687853937007869
21
-2.4656875590551182
0
LINE
8
BLACK
6
CONTINUOUS
10
5.7687853937007869
20
-2.4656875590551182
11
5.7687442913385825
21
-2.4658592913385826
0
LINE
8
BLACK
6
CONTINUOUS
10
5.7687442913385825
20
-2.4658592913385826
11
5.7688046456692916
21
-2.4660251574803147
0
LINE
8
BLACK
6
CONTINUOUS
10
5.7688046456692916
20
-2.4660251574803147
11
5.7688023228346452
21
-2.4753989763779529
0
LINE
8
BLACK
6
CONTINUOUS
10
5.7688023228346452
20
-2.4753989763779529
11
5.7686240157480313
21
-2.4764088188976379
0
LINE
8
BLACK
6
CONTINUOUS
10
5.7686240157480313
20
-2.4764088188976379
11
5.7685104330708663
21
-2.4765440551181102
0
LINE
8
BLACK
6
CONTINUOUS
10
5.7685104330708663
20
-2.4765440551181102
11
5.7684902362204724
21
-2.476719409448819
0
LINE
8
BLACK
6
CONTINUOUS
10
5.7684902362204724
20
-2.476719409448819
11
5.7666145669291335
21
-2.480468464566929
0
LINE
8
BLACK
6
CONTINUOUS
10
5.7666145669291335
20
-2.480468464566929
11
5.7660884645669288
21
-2.4811773228346454
0
LINE
8
BLACK
6
CONTINUOUS
10
5.7660884645669288
20
-2.4811773228346454
11
5.7660612598425196
21
-2.4812357086614174
0
LINE
8
BLACK
6
CONTINUOUS
10
5.7660612598425196
20
-2.4812357086614174
11
5.764186023622047
21
-2.4831100393700787
0
LINE
8
BLACK
6
CONTINUOUS
10
5.764186023622047
20
-2.4831100393700787
11
5.763462755905512
21
-2.483616181102362
0
LINE
8
BLACK
6
CONTINUOUS
10
5.763462755905512
20
-2.483616181102362
11
5.7634184645669286
21
-2.4836629921259843
0
LINE
8
BLACK
6
CONTINUOUS
10
5.7634184645669286
20
-2.4836629921259843
11
5.7596685039370081
21
-2.485536771653543
0
LINE
8
BLACK
6
CONTINUOUS
10
5.7596685039370081
20
-2.485536771653543
11
5.7586855118110236
21
-2.4858289370078741
0
LINE
8
BLACK
6
CONTINUOUS
10
5.7586855118110236
20
-2.4858289370078741
11
5.75851374015748
21
-2.4857878346456692
0
LINE
8
BLACK
6
CONTINUOUS
10
5.75851374015748
20
-2.4857878346456692
11
5.7583479133858271
21
-2.4858481889763779
0
LINE
8
BLACK
6
CONTINUOUS
10
5.7583479133858271
20
-2.4858481889763779
11
5.7508488188976381
21
-2.485846338582677
0
LINE
8
BLACK
6
CONTINUOUS
10
5.7508488188976381
20
-2.485846338582677
11
5.7498389763779523
21
-2.4856680314960631
0
LINE
8
BLACK
6
CONTINUOUS
10
5.7498389763779523
20
-2.4856680314960631
11
5.7497037007874017
21
-2.4855544488188976
0
LINE
8
BLACK
6
CONTINUOUS
10
5.7497037007874017
20
-2.4855544488188976
11
5.7495283858267712
21
-2.4855342519685037
0
LINE
8
BLACK
6
CONTINUOUS
10
5.7495283858267712
20
-2.4855342519685037
11
5.7457793307086611
21
-2.4836585826771653
0
LINE
8
BLACK
6
CONTINUOUS
10
5.7457793307086611
20
-2.4836585826771653
11
5.7450703543307089
21
-2.4831324409448818
0
LINE
8
BLACK
6
CONTINUOUS
10
5.7450703543307089
20
-2.4831324409448818
11
5.745012047244094
21
-2.4831052362204722
0
LINE
8
BLACK
6
CONTINUOUS
10
5.745012047244094
20
-2.4831052362204722
11
5.7431377952755902
21
-2.4812300393700788
0
LINE
8
BLACK
6
CONTINUOUS
10
5.7431377952755902
20
-2.4812300393700788
11
5.7426316929133856
21
-2.4805068503937009
0
LINE
8
BLACK
6
CONTINUOUS
10
5.7426316929133856
20
-2.4805068503937009
11
5.7425848818897638
21
-2.4804625196850392
0
LINE
8
BLACK
6
CONTINUOUS
10
5.7425848818897638
20
-2.4804625196850392
11
5.7407110236220475
21
-2.4767125590551182
0
LINE
8
BLACK
6
CONTINUOUS
10
5.7407110236220475
20
-2.4767125590551182
11
5.7404188582677165
21
-2.4757295669291337
0
LINE
8
BLACK
6
CONTINUOUS
10
5.7404188582677165
20
-2.4757295669291337
11
5.7404599212598422
21
-2.4755577952755905
0
LINE
8
BLACK
6
CONTINUOUS
10
5.7404599212598422
20
-2.4755577952755905
11
5.7403996062992126
21
-2.4753919291338584
0
LINE
8
BLACK
6
CONTINUOUS
10
5.7403996062992126
20
-2.4753919291338584
11
5.7404033464566924
21
-2.4603937795275588
0
LINE
8
BLACK
6
CONTINUOUS
10
5.7404033464566924
20
-2.4603937795275588
11
5.7405058267716536
21
-2.4598133070866139
0
LINE
8
BLACK
6
CONTINUOUS
10
5.7405058267716536
20
-2.4598133070866139
11
5.7404916929133858
21
-2.4596776771653541
0
LINE
8
BLACK
6
CONTINUOUS
10
5.7404916929133858
20
-2.4596776771653541
11
5.7423683070866138
21
-2.4521790944881889
0
LINE
8
BLACK
6
CONTINUOUS
10
5.7423683070866138
20
-2.4521790944881889
11
5.7427722047244094
21
-2.4512738976377952
0
LINE
8
BLACK
6
CONTINUOUS
10
5.7427722047244094
20
-2.4512738976377952
11
5.7427762598425192
21
-2.451257440944882
0
LINE
8
BLACK
6
CONTINUOUS
10
5.7427762598425192
20
-2.451257440944882
11
5.7465271653543306
21
-2.4456340551181102
0
LINE
8
BLACK
6
CONTINUOUS
10
5.7465271653543306
20
-2.4456340551181102
11
5.746838031496063
21
-2.4453087401574805
0
LINE
8
BLACK
6
CONTINUOUS
10
5.746838031496063
20
-2.4453087401574805
11
5.7468962204724408
21
-2.4451841338582678
0
LINE
8
BLACK
6
CONTINUOUS
10
5.7468962204724408
20
-2.4451841338582678
11
5.7487714566929133
21
-2.4433098425196849
0
LINE
8
BLACK
6
CONTINUOUS
10
5.7487714566929133
20
-2.4433098425196849
11
5.7494947244094483
21
-2.4428036614173227
0
LINE
8
BLACK
6
CONTINUOUS
10
5.7494947244094483
20
-2.4428036614173227
11
5.7495390157480317
21
-2.442756929133858
0
LINE
8
BLACK
6
CONTINUOUS
10
5.7495390157480317
20
-2.442756929133858
11
5.753289015748031
21
-2.4408831102362205
0
LINE
8
BLACK
6
CONTINUOUS
10
5.753289015748031
20
-2.4408831102362205
11
5.7542720078740155
21
-2.4405909842519686
0
LINE
8
BLACK
6
CONTINUOUS
10
5.7542720078740155
20
-2.4405909842519686
11
5.7544436614173229
21
-2.4406320078740156
0
LINE
8
BLACK
6
CONTINUOUS
10
5.7544436614173229
20
-2.4406320078740156
11
5.754609606299212
21
-2.4405716929133856
0
LINE
8
BLACK
6
CONTINUOUS
10
5.754609606299212
20
-2.4405716929133856
11
5.7621086614173231
21
-2.4405735433070865
0
LINE
8
BLACK
6
CONTINUOUS
10
5.7488540944881885
20
-2.4628225984251966
11
5.7476566535433067
21
-2.4640194881889763
0
LINE
8
BLACK
6
CONTINUOUS
10
5.7476566535433067
20
-2.4640194881889763
11
5.7463072440944885
21
-2.4667165748031494
0
LINE
8
BLACK
6
CONTINUOUS
10
5.7463072440944885
20
-2.4667165748031494
11
5.7463052755905508
21
-2.4746963385826772
0
LINE
8
BLACK
6
CONTINUOUS
10
5.7463052755905508
20
-2.4746963385826772
11
5.7476533464566923
21
-2.4773941338582675
0
LINE
8
BLACK
6
CONTINUOUS
10
5.7476533464566923
20
-2.4773941338582675
11
5.748850157480315
21
-2.478591535433071
0
LINE
8
BLACK
6
CONTINUOUS
10
5.748850157480315
20
-2.478591535433071
11
5.7515473622047244
21
-2.4799409842519684
0
LINE
8
BLACK
6
CONTINUOUS
10
5.7515473622047244
20
-2.4799409842519684
11
5.7576523622047242
21
-2.4799424803149606
0
LINE
8
BLACK
6
CONTINUOUS
10
5.7576523622047242
20
-2.4799424803149606
11
5.7603500787401574
21
-2.4785944488188978
0
LINE
8
BLACK
6
CONTINUOUS
10
5.7603500787401574
20
-2.4785944488188978
11
5.7615475196850392
21
-2.4773975984251968
0
LINE
8
BLACK
6
CONTINUOUS
10
5.7615475196850392
20
-2.4773975984251968
11
5.7628969685039371
21
-2.4747003937007874
0
LINE
8
BLACK
6
CONTINUOUS
10
5.7628969685039371
20
-2.4747003937007874
11
5.7628989370078738
21
-2.4667207086614171
0
LINE
8
BLACK
6
CONTINUOUS
10
5.7628989370078738
20
-2.4667207086614171
11
5.7615508661417323
21
-2.4640228740157482
0
LINE
8
BLACK
6
CONTINUOUS
10
5.7615508661417323
20
-2.4640228740157482
11
5.7603540157480317
21
-2.4628254724409446
0
LINE
8
BLACK
6
CONTINUOUS
10
5.7603540157480317
20
-2.4628254724409446
11
5.757656889763779
21
-2.461476062992126
0
LINE
8
BLACK
6
CONTINUOUS
10
5.757656889763779
20
-2.461476062992126
11
5.7515519291338579
21
-2.461474527559055
0
LINE
8
BLACK
6
CONTINUOUS
10
5.7515519291338579
20
-2.461474527559055
11
5.7488540944881885
21
-2.4628225984251966
  0
ENDSEC
  0
EOF
