<!DOCTYPE svg PUBLIC "-//W3C//DTD SVG 1.1//EN" "http://www.w3.org/Graphics/SVG/1.1/DTD/svg11.dtd">
<svg xmlns="http://www.w3.org/2000/svg" version="1.1" width="69.909661mm" height="39.611577mm" viewBox="-182.075624 61.763525 69.909661 39.611577999999994">
            <title>Picture generated by PcbDraw </title>
            <desc>Picture generated by PcbDraw</desc>
        <defs><clipPath id="cut-off"><path d=" M 182.0 101.3 L 182.0 65.7 L 119.0 65.7 L 119.0 101.3 L 182.0 101.3 " style="fill-rule: evenodd;"/></clipPath><mask id="pads-mask"><g style="fill:#ffffff; fill-opacity:1.0000; stroke:none;">
<circle cx="177.0000" cy="97.0000" r="1.4000"/> 
</g>
<g style="fill:#ffffff; fill-opacity:1.0000; stroke:none;">
<circle cx="123.0000" cy="97.0000" r="1.4000"/> 
</g>
<g style="fill:#ffffff; fill-opacity:1.0000; stroke:none;">
<circle cx="123.0000" cy="69.5000" r="1.4000"/> 
</g>
<g style="fill:#ffffff; fill-opacity:1.0000; stroke:none;">
<circle cx="177.0000" cy="69.5000" r="1.4000"/> 
</g>
<g style="fill:none;  stroke:#ffffff; stroke-width:1.6000; stroke-opacity:1;  stroke-linecap:round; stroke-linejoin:round;">
<path d="M123.2000 81.4500 L123.2000 80.9500 "/>
</g>
<g style="fill:#ffffff; fill-opacity:1.0000; stroke:none;">
<circle cx="127.6000" cy="81.2000" r="1.0500"/> 
<path style="fill:#ffffff; fill-opacity:1.0000; stroke:none;fill-rule:evenodd;" d="M 137.2000,80.3500 137.1962,80.3691 137.1854,80.3854 137.1691,80.3962 137.1500,80.4000 135.4500,80.4000 135.4309,80.3962 135.4146,80.3854 135.4038,80.3691 135.4000,80.3500 135.4000,78.6500 135.4038,78.6309 135.4146,78.6146 135.4309,78.6038 135.4500,78.6000 137.1500,78.6000 137.1691,78.6038 137.1854,78.6146 137.1962,78.6309 137.2000,78.6500 Z"/> 
</g>
<g style="fill:#ffffff; fill-opacity:1.0000; stroke:none;">
<circle cx="136.3000" cy="76.9600" r="0.9000"/> 
<circle cx="136.3000" cy="74.4200" r="0.9000"/> 
<circle cx="136.3000" cy="71.8800" r="0.9000"/> 
<circle cx="136.3000" cy="69.3400" r="0.9000"/> 
<path style="fill:#ffffff; fill-opacity:1.0000; stroke:none;fill-rule:evenodd;" d="M 150.9920,94.4000 150.9958,94.3809 151.0066,94.3646 151.0229,94.3538 151.0420,94.3500 152.7420,94.3500 152.7611,94.3538 152.7774,94.3646 152.7882,94.3809 152.7920,94.4000 152.7920,96.1000 152.7882,96.1191 152.7774,96.1354 152.7611,96.1462 152.7420,96.1500 151.0420,96.1500 151.0229,96.1462 151.0066,96.1354 150.9958,96.1191 150.9920,96.1000 Z"/> 
<circle cx="154.4320" cy="95.2500" r="0.9000"/> 
<circle cx="151.8920" cy="97.7900" r="0.9000"/> 
<circle cx="154.4320" cy="97.7900" r="0.9000"/> 
<path style="fill:#ffffff; fill-opacity:1.0000; stroke:none;fill-rule:evenodd;" d="M 140.2724,98.6646 140.2533,98.6608 140.2370,98.6500 140.2262,98.6337 140.2224,98.6146 140.2224,96.9146 140.2262,96.8955 140.2370,96.8792 140.2533,96.8684 140.2724,96.8646 141.9724,96.8646 141.9915,96.8684 142.0078,96.8792 142.0186,96.8955 142.0224,96.9146 142.0224,98.6146 142.0186,98.6337 142.0078,98.6500 141.9915,98.6608 141.9724,98.6646 Z"/> 
<circle cx="141.1224" cy="95.2246" r="0.9000"/> 
<circle cx="143.6624" cy="97.7646" r="0.9000"/> 
<circle cx="143.6624" cy="95.2246" r="0.9000"/> 
<circle cx="146.2024" cy="97.7646" r="0.9000"/> 
<circle cx="146.2024" cy="95.2246" r="0.9000"/> 
<path style="fill:#ffffff; fill-opacity:1.0000; stroke:none;fill-rule:evenodd;" d="M 140.0700,76.3660 140.0738,76.3469 140.0846,76.3306 140.1009,76.3198 140.1200,76.3160 141.8200,76.3160 141.8391,76.3198 141.8554,76.3306 141.8662,76.3469 141.8700,76.3660 141.8700,78.0660 141.8662,78.0851 141.8554,78.1014 141.8391,78.1122 141.8200,78.1160 140.1200,78.1160 140.1009,78.1122 140.0846,78.1014 140.0738,78.0851 140.0700,78.0660 Z"/> 
<circle cx="140.9700" cy="79.7560" r="0.9000"/> 
<circle cx="140.9700" cy="82.2960" r="0.9000"/> 
<circle cx="140.9700" cy="84.8360" r="0.9000"/> 
<circle cx="140.9700" cy="87.3760" r="0.9000"/> 
<circle cx="140.9700" cy="89.9160" r="0.9000"/> 
<path style="fill:#ffffff; fill-opacity:1.0000; stroke:none;fill-rule:evenodd;" d="M 172.6820,82.3840 172.6629,82.3802 172.6466,82.3694 172.6358,82.3531 172.6320,82.3340 172.6320,80.7340 172.6358,80.7149 172.6466,80.6986 172.6629,80.6878 172.6820,80.6840 174.2820,80.6840 174.3011,80.6878 174.3174,80.6986 174.3282,80.7149 174.3320,80.7340 174.3320,82.3340 174.3282,82.3531 174.3174,82.3694 174.3011,82.3802 174.2820,82.3840 Z"/> 
<circle cx="173.4820" cy="84.0340" r="0.8500"/> 
</g>
<g style="fill:#ffffff; fill-opacity:1.0000; stroke:none;">
<circle cx="175.4820" cy="84.0340" r="0.8500"/> 
</g>
<g style="fill:#ffffff; fill-opacity:1.0000; stroke:none;">
<circle cx="175.4820" cy="81.5340" r="0.8500"/> 
</g>
<g style="fill:#ffffff; fill-opacity:1.0000; stroke:none;">
<circle cx="178.3420" cy="76.7840" r="2.0500"/> 
</g>
<g style="fill:#ffffff; fill-opacity:1.0000; stroke:none;">
<circle cx="178.3420" cy="88.7840" r="2.0500"/> 
</g>
<g style="fill:#ffffff; fill-opacity:1.0000; stroke:none;">
<circle cx="167.7924" cy="80.1624" r="0.5500"/> 
</g>
<g style="fill:#ffffff; fill-opacity:1.0000; stroke:none;">
<circle cx="173.4820" cy="78.4860" r="0.5500"/> 
</g>
<g style="fill:#ffffff; fill-opacity:1.0000; stroke:none;">
<circle cx="179.0700" cy="80.7720" r="0.5500"/> 
</g>
<g style="fill:#ffffff; fill-opacity:1.0000; stroke:none;">
<circle cx="179.0700" cy="84.0740" r="0.5500"/> 
</g>
<g style="fill:#ffffff; fill-opacity:1.0000; stroke:none;">
<circle cx="164.2872" cy="70.0532" r="0.5500"/> 
</g>
<g style="fill:#ffffff; fill-opacity:1.0000; stroke:none;">
<circle cx="153.4922" cy="70.0278" r="0.5500"/> 
</g>
<g style="fill:#ffffff; fill-opacity:1.0000; stroke:none;">
<circle cx="155.9560" cy="84.5820" r="0.5500"/> 
</g> 
</mask><mask id="pads-mask-silkscreen"><rect x="112.165963" y="61.763525" width="69.909661" height="39.611578" fill="white"/><g style="fill:#000000; fill-opacity:1.0000; stroke:none;">
<circle cx="177.0000" cy="97.0000" r="1.4000"/> 
</g>
<g style="fill:#000000; fill-opacity:1.0000; stroke:none;">
<circle cx="123.0000" cy="97.0000" r="1.4000"/> 
</g>
<g style="fill:#000000; fill-opacity:1.0000; stroke:none;">
<circle cx="123.0000" cy="69.5000" r="1.4000"/> 
</g>
<g style="fill:#000000; fill-opacity:1.0000; stroke:none;">
<circle cx="177.0000" cy="69.5000" r="1.4000"/> 
</g>
<g style="fill:none;  stroke:#000000; stroke-width:1.6000; stroke-opacity:1;  stroke-linecap:round; stroke-linejoin:round;">
<path d="M123.2000 81.4500 L123.2000 80.9500 "/>
</g>
<g style="fill:#000000; fill-opacity:1.0000; stroke:none;">
<circle cx="127.6000" cy="81.2000" r="1.0500"/> 
<path style="fill:#000000; fill-opacity:1.0000; stroke:none;fill-rule:evenodd;" d="M 137.2000,80.3500 137.1962,80.3691 137.1854,80.3854 137.1691,80.3962 137.1500,80.4000 135.4500,80.4000 135.4309,80.3962 135.4146,80.3854 135.4038,80.3691 135.4000,80.3500 135.4000,78.6500 135.4038,78.6309 135.4146,78.6146 135.4309,78.6038 135.4500,78.6000 137.1500,78.6000 137.1691,78.6038 137.1854,78.6146 137.1962,78.6309 137.2000,78.6500 Z"/> 
</g>
<g style="fill:#000000; fill-opacity:1.0000; stroke:none;">
<circle cx="136.3000" cy="76.9600" r="0.9000"/> 
<circle cx="136.3000" cy="74.4200" r="0.9000"/> 
<circle cx="136.3000" cy="71.8800" r="0.9000"/> 
<circle cx="136.3000" cy="69.3400" r="0.9000"/> 
<path style="fill:#000000; fill-opacity:1.0000; stroke:none;fill-rule:evenodd;" d="M 150.9920,94.4000 150.9958,94.3809 151.0066,94.3646 151.0229,94.3538 151.0420,94.3500 152.7420,94.3500 152.7611,94.3538 152.7774,94.3646 152.7882,94.3809 152.7920,94.4000 152.7920,96.1000 152.7882,96.1191 152.7774,96.1354 152.7611,96.1462 152.7420,96.1500 151.0420,96.1500 151.0229,96.1462 151.0066,96.1354 150.9958,96.1191 150.9920,96.1000 Z"/> 
<circle cx="154.4320" cy="95.2500" r="0.9000"/> 
<circle cx="151.8920" cy="97.7900" r="0.9000"/> 
<circle cx="154.4320" cy="97.7900" r="0.9000"/> 
<path style="fill:#000000; fill-opacity:1.0000; stroke:none;fill-rule:evenodd;" d="M 140.2724,98.6646 140.2533,98.6608 140.2370,98.6500 140.2262,98.6337 140.2224,98.6146 140.2224,96.9146 140.2262,96.8955 140.2370,96.8792 140.2533,96.8684 140.2724,96.8646 141.9724,96.8646 141.9915,96.8684 142.0078,96.8792 142.0186,96.8955 142.0224,96.9146 142.0224,98.6146 142.0186,98.6337 142.0078,98.6500 141.9915,98.6608 141.9724,98.6646 Z"/> 
<circle cx="141.1224" cy="95.2246" r="0.9000"/> 
<circle cx="143.6624" cy="97.7646" r="0.9000"/> 
<circle cx="143.6624" cy="95.2246" r="0.9000"/> 
<circle cx="146.2024" cy="97.7646" r="0.9000"/> 
<circle cx="146.2024" cy="95.2246" r="0.9000"/> 
<path style="fill:#000000; fill-opacity:1.0000; stroke:none;fill-rule:evenodd;" d="M 140.0700,76.3660 140.0738,76.3469 140.0846,76.3306 140.1009,76.3198 140.1200,76.3160 141.8200,76.3160 141.8391,76.3198 141.8554,76.3306 141.8662,76.3469 141.8700,76.3660 141.8700,78.0660 141.8662,78.0851 141.8554,78.1014 141.8391,78.1122 141.8200,78.1160 140.1200,78.1160 140.1009,78.1122 140.0846,78.1014 140.0738,78.0851 140.0700,78.0660 Z"/> 
<circle cx="140.9700" cy="79.7560" r="0.9000"/> 
<circle cx="140.9700" cy="82.2960" r="0.9000"/> 
<circle cx="140.9700" cy="84.8360" r="0.9000"/> 
<circle cx="140.9700" cy="87.3760" r="0.9000"/> 
<circle cx="140.9700" cy="89.9160" r="0.9000"/> 
<path style="fill:#000000; fill-opacity:1.0000; stroke:none;fill-rule:evenodd;" d="M 172.6820,82.3840 172.6629,82.3802 172.6466,82.3694 172.6358,82.3531 172.6320,82.3340 172.6320,80.7340 172.6358,80.7149 172.6466,80.6986 172.6629,80.6878 172.6820,80.6840 174.2820,80.6840 174.3011,80.6878 174.3174,80.6986 174.3282,80.7149 174.3320,80.7340 174.3320,82.3340 174.3282,82.3531 174.3174,82.3694 174.3011,82.3802 174.2820,82.3840 Z"/> 
<circle cx="173.4820" cy="84.0340" r="0.8500"/> 
</g>
<g style="fill:#000000; fill-opacity:1.0000; stroke:none;">
<circle cx="175.4820" cy="84.0340" r="0.8500"/> 
</g>
<g style="fill:#000000; fill-opacity:1.0000; stroke:none;">
<circle cx="175.4820" cy="81.5340" r="0.8500"/> 
</g>
<g style="fill:#000000; fill-opacity:1.0000; stroke:none;">
<circle cx="178.3420" cy="76.7840" r="2.0500"/> 
</g>
<g style="fill:#000000; fill-opacity:1.0000; stroke:none;">
<circle cx="178.3420" cy="88.7840" r="2.0500"/> 
</g>
<g style="fill:#000000; fill-opacity:1.0000; stroke:none;">
<circle cx="167.7924" cy="80.1624" r="0.5500"/> 
</g>
<g style="fill:#000000; fill-opacity:1.0000; stroke:none;">
<circle cx="173.4820" cy="78.4860" r="0.5500"/> 
</g>
<g style="fill:#000000; fill-opacity:1.0000; stroke:none;">
<circle cx="179.0700" cy="80.7720" r="0.5500"/> 
</g>
<g style="fill:#000000; fill-opacity:1.0000; stroke:none;">
<circle cx="179.0700" cy="84.0740" r="0.5500"/> 
</g>
<g style="fill:#000000; fill-opacity:1.0000; stroke:none;">
<circle cx="164.2872" cy="70.0532" r="0.5500"/> 
</g>
<g style="fill:#000000; fill-opacity:1.0000; stroke:none;">
<circle cx="153.4922" cy="70.0278" r="0.5500"/> 
</g>
<g style="fill:#000000; fill-opacity:1.0000; stroke:none;">
<circle cx="155.9560" cy="84.5820" r="0.5500"/> 
</g> 
</mask><mask id="hole-mask"><g><rect x="112.165963" y="61.763525" fill="white" width="69.909661" height="39.611578"/><polyline stroke-linecap="round" stroke="black" stroke-width="2.7" points="-0.0 0 0.0 0" transform="translate(177.0 97.0) rotate(-0.0)"/><polyline stroke-linecap="round" stroke="black" stroke-width="2.7" points="-0.0 0 0.0 0" transform="translate(123.0 97.0) rotate(-0.0)"/><polyline stroke-linecap="round" stroke="black" stroke-width="2.7" points="-0.0 0 0.0 0" transform="translate(123.0 69.5) rotate(-0.0)"/><polyline stroke-linecap="round" stroke="black" stroke-width="2.7" points="-0.0 0 0.0 0" transform="translate(177.0 69.5) rotate(-0.0)"/><polyline stroke-linecap="round" stroke="black" stroke-width="1.5" points="-0.25 0 0.25 0" transform="translate(123.2 81.2) rotate(-90.0)"/><polyline stroke-linecap="round" stroke="black" stroke-width="2.0" points="-0.0 0 0.0 0" transform="translate(127.6 81.2) rotate(-90.0)"/><polyline stroke-linecap="round" stroke="black" stroke-width="1.0" points="-0.0 0 0.0 0" transform="translate(136.3 79.5) rotate(-180.0)"/><polyline stroke-linecap="round" stroke="black" stroke-width="1.0" points="-0.0 0 0.0 0" transform="translate(136.3 76.96) rotate(-180.0)"/><polyline stroke-linecap="round" stroke="black" stroke-width="1.0" points="-0.0 0 0.0 0" transform="translate(136.3 74.42) rotate(-180.0)"/><polyline stroke-linecap="round" stroke="black" stroke-width="1.0" points="-0.0 0 0.0 0" transform="translate(136.3 71.88) rotate(-180.0)"/><polyline stroke-linecap="round" stroke="black" stroke-width="1.0" points="-0.0 0 0.0 0" transform="translate(136.3 69.34) rotate(-180.0)"/><polyline stroke-linecap="round" stroke="black" stroke-width="1.0" points="-0.0 0 0.0 0" transform="translate(151.892 95.25) rotate(-0.0)"/><polyline stroke-linecap="round" stroke="black" stroke-width="1.0" points="-0.0 0 0.0 0" transform="translate(154.432 95.25) rotate(-0.0)"/><polyline stroke-linecap="round" stroke="black" stroke-width="1.0" points="-0.0 0 0.0 0" transform="translate(151.892 97.79) rotate(-0.0)"/><polyline stroke-linecap="round" stroke="black" stroke-width="1.0" points="-0.0 0 0.0 0" transform="translate(154.432 97.79) rotate(-0.0)"/><polyline stroke-linecap="round" stroke="black" stroke-width="1.0" points="-0.0 0 0.0 0" transform="translate(141.1224 97.7646) rotate(-90.0)"/><polyline stroke-linecap="round" stroke="black" stroke-width="1.0" points="-0.0 0 0.0 0" transform="translate(141.1224 95.2246) rotate(-90.0)"/><polyline stroke-linecap="round" stroke="black" stroke-width="1.0" points="-0.0 0 0.0 0" transform="translate(143.6624 97.7646) rotate(-90.0)"/><polyline stroke-linecap="round" stroke="black" stroke-width="1.0" points="-0.0 0 0.0 0" transform="translate(143.6624 95.2246) rotate(-90.0)"/><polyline stroke-linecap="round" stroke="black" stroke-width="1.0" points="-0.0 0 0.0 0" transform="translate(146.2024 97.7646) rotate(-90.0)"/><polyline stroke-linecap="round" stroke="black" stroke-width="1.0" points="-0.0 0 0.0 0" transform="translate(146.2024 95.2246) rotate(-90.0)"/><polyline stroke-linecap="round" stroke="black" stroke-width="1.0" points="-0.0 0 0.0 0" transform="translate(140.97 77.216) rotate(-0.0)"/><polyline stroke-linecap="round" stroke="black" stroke-width="1.0" points="-0.0 0 0.0 0" transform="translate(140.97 79.756) rotate(-0.0)"/><polyline stroke-linecap="round" stroke="black" stroke-width="1.0" points="-0.0 0 0.0 0" transform="translate(140.97 82.296) rotate(-0.0)"/><polyline stroke-linecap="round" stroke="black" stroke-width="1.0" points="-0.0 0 0.0 0" transform="translate(140.97 84.836) rotate(-0.0)"/><polyline stroke-linecap="round" stroke="black" stroke-width="1.0" points="-0.0 0 0.0 0" transform="translate(140.97 87.376) rotate(-0.0)"/><polyline stroke-linecap="round" stroke="black" stroke-width="1.0" points="-0.0 0 0.0 0" transform="translate(140.97 89.916) rotate(-0.0)"/><polyline stroke-linecap="round" stroke="black" stroke-width="0.95" points="-0.0 0 0.0 0" transform="translate(173.482 81.534) rotate(-90.0)"/><polyline stroke-linecap="round" stroke="black" stroke-width="0.95" points="-0.0 0 0.0 0" transform="translate(173.482 84.034) rotate(-90.0)"/><polyline stroke-linecap="round" stroke="black" stroke-width="0.95" points="-0.0 0 0.0 0" transform="translate(175.482 84.034) rotate(-90.0)"/><polyline stroke-linecap="round" stroke="black" stroke-width="0.95" points="-0.0 0 0.0 0" transform="translate(175.482 81.534) rotate(-90.0)"/><polyline stroke-linecap="round" stroke="black" stroke-width="2.3" points="-0.0 0 0.0 0" transform="translate(178.342 76.784) rotate(-90.0)"/><polyline stroke-linecap="round" stroke="black" stroke-width="2.3" points="-0.0 0 0.0 0" transform="translate(178.342 88.784) rotate(-90.0)"/><polyline stroke-linecap="round" stroke="black" stroke-width="0.4" points="-0.0 0 0.0 0" transform="translate(154.3558 75.7936) rotate(-0.0)"/><polyline stroke-linecap="round" stroke="black" stroke-width="0.4" points="-0.0 0 0.0 0" transform="translate(123.1138 73.3298) rotate(-0.0)"/><polyline stroke-linecap="round" stroke="black" stroke-width="0.4" points="-0.0 0 0.0 0" transform="translate(129.1082 77.9526) rotate(-0.0)"/><polyline stroke-linecap="round" stroke="black" stroke-width="0.4" points="-0.0 0 0.0 0" transform="translate(167.259 97.9424) rotate(-0.0)"/><polyline stroke-linecap="round" stroke="black" stroke-width="0.4" points="-0.0 0 0.0 0" transform="translate(155.6766 83.058) rotate(-0.0)"/><polyline stroke-linecap="round" stroke="black" stroke-width="0.4" points="-0.0 0 0.0 0" transform="translate(163.83 76.7588) rotate(-0.0)"/><polyline stroke-linecap="round" stroke="black" stroke-width="0.4" points="-0.0 0 0.0 0" transform="translate(125.349 90.9066) rotate(-0.0)"/><polyline stroke-linecap="round" stroke="black" stroke-width="0.4" points="-0.0 0 0.0 0" transform="translate(130.81 95.3516) rotate(-0.0)"/><polyline stroke-linecap="round" stroke="black" stroke-width="0.4" points="-0.0 0 0.0 0" transform="translate(129.0828 73.3806) rotate(-0.0)"/><polyline stroke-linecap="round" stroke="black" stroke-width="0.4" points="-0.0 0 0.0 0" transform="translate(144.8308 85.0646) rotate(-0.0)"/><polyline stroke-linecap="round" stroke="black" stroke-width="0.4" points="-0.0 0 0.0 0" transform="translate(123.0884 78.1304) rotate(-0.0)"/><polyline stroke-linecap="round" stroke="black" stroke-width="0.4" points="-0.0 0 0.0 0" transform="translate(159.8422 98.6028) rotate(-0.0)"/><polyline stroke-linecap="round" stroke="black" stroke-width="0.4" points="-0.0 0 0.0 0" transform="translate(154.5336 83.2866) rotate(-0.0)"/><polyline stroke-linecap="round" stroke="black" stroke-width="0.4" points="-0.0 0 0.0 0" transform="translate(146.0246 69.2404) rotate(-0.0)"/><polyline stroke-linecap="round" stroke="black" stroke-width="0.4" points="-0.0 0 0.0 0" transform="translate(159.1818 81.9658) rotate(-0.0)"/><polyline stroke-linecap="round" stroke="black" stroke-width="0.4" points="-0.0 0 0.0 0" transform="translate(130.8354 88.9) rotate(-0.0)"/><polyline stroke-linecap="round" stroke="black" stroke-width="0.4" points="-0.0 0 0.0 0" transform="translate(129.1082 84.3026) rotate(-0.0)"/><polyline stroke-linecap="round" stroke="black" stroke-width="0.4" points="-0.0 0 0.0 0" transform="translate(121.5644 89.3318) rotate(-0.0)"/><polyline stroke-linecap="round" stroke="black" stroke-width="0.4" points="-0.0 0 0.0 0" transform="translate(123.1392 84.4042) rotate(-0.0)"/><polyline stroke-linecap="round" stroke="black" stroke-width="0.4" points="-0.0 0 0.0 0" transform="translate(162.7632 70.0024) rotate(-0.0)"/><polyline stroke-linecap="round" stroke="black" stroke-width="0.4" points="-0.0 0 0.0 0" transform="translate(155.0416 70.0786) rotate(-0.0)"/><polyline stroke-linecap="round" stroke="black" stroke-width="0.4" points="-0.0 0 0.0 0" transform="translate(160.6804 81.153) rotate(-0.0)"/><polyline stroke-linecap="round" stroke="black" stroke-width="0.4" points="-0.0 0 0.0 0" transform="translate(166.878 88.773) rotate(-0.0)"/><polyline stroke-linecap="round" stroke="black" stroke-width="0.4" points="-0.0 0 0.0 0" transform="translate(160.5534 86.233) rotate(-0.0)"/><polyline stroke-linecap="round" stroke="black" stroke-width="0.4" points="-0.0 0 0.0 0" transform="translate(167.2336 93.5228) rotate(-0.0)"/><polyline stroke-linecap="round" stroke="black" stroke-width="0.4" points="-0.0 0 0.0 0" transform="translate(165.0492 90.4494) rotate(-0.0)"/><polyline stroke-linecap="round" stroke="black" stroke-width="0.4" points="-0.0 0 0.0 0" transform="translate(165.735 80.1624) rotate(-0.0)"/><polyline stroke-linecap="round" stroke="black" stroke-width="0.4" points="-0.0 0 0.0 0" transform="translate(170.4594 80.4164) rotate(-0.0)"/><polyline stroke-linecap="round" stroke="black" stroke-width="0.4" points="-0.0 0 0.0 0" transform="translate(172.3898 88.138) rotate(-0.0)"/><polyline stroke-linecap="round" stroke="black" stroke-width="0.4" points="-0.0 0 0.0 0" transform="translate(170.561 90.678) rotate(-0.0)"/><polyline stroke-linecap="round" stroke="black" stroke-width="0.4" points="-0.0 0 0.0 0" transform="translate(156.8958 87.5538) rotate(-0.0)"/><polyline stroke-linecap="round" stroke="black" stroke-width="0.4" points="-0.0 0 0.0 0" transform="translate(156.1592 88.392) rotate(-0.0)"/><polyline stroke-linecap="round" stroke="black" stroke-width="0.4" points="-0.0 0 0.0 0" transform="translate(156.2862 91.694) rotate(-0.0)"/><polyline stroke-linecap="round" stroke="black" stroke-width="0.4" points="-0.0 0 0.0 0" transform="translate(155.067 88.5952) rotate(-0.0)"/><polyline stroke-linecap="round" stroke="black" stroke-width="0.4" points="-0.0 0 0.0 0" transform="translate(150.1394 81.8896) rotate(-0.0)"/><polyline stroke-linecap="round" stroke="black" stroke-width="0.4" points="-0.0 0 0.0 0" transform="translate(152.0698 87.2236) rotate(-0.0)"/><polyline stroke-linecap="round" stroke="black" stroke-width="0.4" points="-0.0 0 0.0 0" transform="translate(152.6794 88.3158) rotate(-0.0)"/><polyline stroke-linecap="round" stroke="black" stroke-width="0.4" points="-0.0 0 0.0 0" transform="translate(151.6891 85.852) rotate(-0.0)"/><polyline stroke-linecap="round" stroke="black" stroke-width="0.4" points="-0.0 0 0.0 0" transform="translate(148.595111 85.389689) rotate(-0.0)"/><polyline stroke-linecap="round" stroke="black" stroke-width="0.4" points="-0.0 0 0.0 0" transform="translate(155.956 85.775802) rotate(-0.0)"/></g></mask></defs><g transform="scale(-1,1)" id="boardContainer"><g id="substrate" clip-path="url(#cut-off)" mask="url(#hole-mask)"><g id="substrate-board" style="fill:#4ca06c; stroke:#4ca06c;"><path d=" M 182.0 101.3 L 182.0 65.7 L 119.0 65.7 L 119.0 101.3 L 182.0 101.3 " style="fill-rule: evenodd;"/><g style="fill: none;stroke: #4ca06c;stroke-width: 0.0500;stroke-opacity: 1;stroke-linecap: round;stroke-linejoin: round">
<path d="M119.0000 101.3000 L182.0000 101.3000 "/>
<path d="M182.0000 101.3000 L182.0000 65.7000 "/>
<path d="M119.0000 65.7000 L119.0000 101.3000 "/>
<path d="M182.0000 65.7000 L119.0000 65.7000 "/>
</g> 
</g></g></g></svg>