<?xml version="1.0" standalone="no"?>
 <!DOCTYPE svg PUBLIC "-//W3C//DTD SVG 1.1//EN" 
 "http://www.w3.org/Graphics/SVG/1.1/DTD/svg11.dtd"> 
<svg
  xmlns:svg="http://www.w3.org/2000/svg"
  xmlns="http://www.w3.org/2000/svg"
  xmlns:xlink="http://www.w3.org/1999/xlink"
  version="1.1"
  width="29.700220cm" height="21.000720cm" viewBox="0 0 2970022 2100072">
<title>SVG Picture created as t1-frame.svg date 2023/06/13 14:14:43 </title>
  <desc>Picture generated by PCBNEW </desc>
<g style="fill:#000000; fill-opacity:1.000000;stroke:#000000; stroke-opacity:1.000000;
stroke-linecap:round; stroke-linejoin:round;"
 transform="translate(0 0) scale(1 1)">
</g>
<g style="fill:#000000; fill-opacity:0.0; 
stroke:#000000; stroke-width:0.000000; stroke-opacity:1; 
stroke-linecap:round; stroke-linejoin:round;">
</g>
<g style="fill:#000000; fill-opacity:0.0; 
stroke:#000000; stroke-width:1500.000000; stroke-opacity:1; 
stroke-linecap:round; stroke-linejoin:round;">
<path d="M2610000 1915000
L2610000 1980000
" />
<path d="M1970000 1915000
L1970000 1945000
" />
<text x="1780000.000000" y="1687500.000000"
textLength="337664.290000" font-size="20000.000000" lengthAdjust="spacingAndGlyphs"
text-anchor="start" opacity="0">An example of KiBot variants</text>
<g class="stroked-text"><desc>An example of KiBot variants</desc>
<path d="M1783832 1682500
L1790975 1682500
" />
<path d="M1782403 1686785
L1787403 1671785
L1792403 1686785
" />
<path d="M1797403 1676785
L1797403 1686785
" />
<path d="M1797403 1678214
L1798117 1677500
L1799546 1676785
L1801689 1676785
L1803117 1677500
L1803832 1678928
L1803832 1686785
" />
<path d="M1828117 1686071
L1826689 1686785
L1823832 1686785
L1822403 1686071
L1821689 1684642
L1821689 1678928
L1822403 1677500
L1823832 1676785
L1826689 1676785
L1828117 1677500
L1828832 1678928
L1828832 1680357
L1821689 1681785
" />
<path d="M1833832 1686785
L1841689 1676785
" />
<path d="M1833832 1676785
L1841689 1686785
" />
<path d="M1853832 1686785
L1853832 1678928
L1853117 1677500
L1851689 1676785
L1848832 1676785
L1847403 1677500
" />
<path d="M1853832 1686071
L1852403 1686785
L1848832 1686785
L1847403 1686071
L1846689 1684642
L1846689 1683214
L1847403 1681785
L1848832 1681071
L1852403 1681071
L1853832 1680357
" />
<path d="M1860975 1686785
L1860975 1676785
" />
<path d="M1860975 1678214
L1861689 1677500
L1863117 1676785
L1865260 1676785
L1866689 1677500
L1867403 1678928
L1867403 1686785
" />
<path d="M1867403 1678928
L1868117 1677500
L1869546 1676785
L1871689 1676785
L1873117 1677500
L1873832 1678928
L1873832 1686785
" />
<path d="M1880975 1676785
L1880975 1691785
" />
<path d="M1880975 1677500
L1882403 1676785
L1885260 1676785
L1886689 1677500
L1887403 1678214
L1888117 1679642
L1888117 1683928
L1887403 1685357
L1886689 1686071
L1885260 1686785
L1882403 1686785
L1880975 1686071
" />
<path d="M1896689 1686785
L1895260 1686071
L1894546 1684642
L1894546 1671785
" />
<path d="M1908117 1686071
L1906689 1686785
L1903832 1686785
L1902403 1686071
L1901689 1684642
L1901689 1678928
L1902403 1677500
L1903832 1676785
L1906689 1676785
L1908117 1677500
L1908832 1678928
L1908832 1680357
L1901689 1681785
" />
<path d="M1928832 1686785
L1927403 1686071
L1926689 1685357
L1925975 1683928
L1925975 1679642
L1926689 1678214
L1927403 1677500
L1928832 1676785
L1930975 1676785
L1932403 1677500
L1933117 1678214
L1933832 1679642
L1933832 1683928
L1933117 1685357
L1932403 1686071
L1930975 1686785
L1928832 1686785
" />
<path d="M1938117 1676785
L1943832 1676785
" />
<path d="M1940260 1686785
L1940260 1673928
L1940975 1672500
L1942403 1671785
L1943832 1671785
" />
<path d="M1960260 1686785
L1960260 1671785
" />
<path d="M1968832 1686785
L1962403 1678214
" />
<path d="M1968832 1671785
L1960260 1680357
" />
<path d="M1975260 1686785
L1975260 1676785
" />
<path d="M1975260 1671785
L1974546 1672500
L1975260 1673214
L1975975 1672500
L1975260 1671785
L1975260 1673214
" />
<path d="M1987403 1678928
L1989546 1679642
L1990260 1680357
L1990975 1681785
L1990975 1683928
L1990260 1685357
L1989546 1686071
L1988117 1686785
L1982403 1686785
L1982403 1671785
L1987403 1671785
L1988832 1672500
L1989546 1673214
L1990260 1674642
L1990260 1676071
L1989546 1677500
L1988832 1678214
L1987403 1678928
L1982403 1678928
" />
<path d="M1999546 1686785
L1998117 1686071
L1997403 1685357
L1996689 1683928
L1996689 1679642
L1997403 1678214
L1998117 1677500
L1999546 1676785
L2001689 1676785
L2003117 1677500
L2003832 1678214
L2004546 1679642
L2004546 1683928
L2003832 1685357
L2003117 1686071
L2001689 1686785
L1999546 1686785
" />
<path d="M2008832 1676785
L2014546 1676785
" />
<path d="M2010975 1671785
L2010975 1684642
L2011689 1686071
L2013117 1686785
L2014546 1686785
" />
<path d="M2029546 1676785
L2033117 1686785
L2036689 1676785
" />
<path d="M2048832 1686785
L2048832 1678928
L2048117 1677500
L2046689 1676785
L2043832 1676785
L2042403 1677500
" />
<path d="M2048832 1686071
L2047403 1686785
L2043832 1686785
L2042403 1686071
L2041689 1684642
L2041689 1683214
L2042403 1681785
L2043832 1681071
L2047403 1681071
L2048832 1680357
" />
<path d="M2055975 1686785
L2055975 1676785
" />
<path d="M2055975 1679642
L2056689 1678214
L2057403 1677500
L2058832 1676785
L2060260 1676785
" />
<path d="M2065260 1686785
L2065260 1676785
" />
<path d="M2065260 1671785
L2064546 1672500
L2065260 1673214
L2065975 1672500
L2065260 1671785
L2065260 1673214
" />
<path d="M2078832 1686785
L2078832 1678928
L2078117 1677500
L2076689 1676785
L2073832 1676785
L2072403 1677500
" />
<path d="M2078832 1686071
L2077403 1686785
L2073832 1686785
L2072403 1686071
L2071689 1684642
L2071689 1683214
L2072403 1681785
L2073832 1681071
L2077403 1681071
L2078832 1680357
" />
<path d="M2085975 1676785
L2085975 1686785
" />
<path d="M2085975 1678214
L2086689 1677500
L2088117 1676785
L2090260 1676785
L2091689 1677500
L2092403 1678928
L2092403 1686785
" />
<path d="M2097403 1676785
L2103117 1676785
" />
<path d="M2099546 1671785
L2099546 1684642
L2100260 1686071
L2101689 1686785
L2103117 1686785
" />
<path d="M2107403 1686071
L2108832 1686785
L2111689 1686785
L2113117 1686071
L2113832 1684642
L2113832 1683928
L2113117 1682500
L2111689 1681785
L2109546 1681785
L2108117 1681071
L2107403 1679642
L2107403 1678928
L2108117 1677500
L2109546 1676785
L2111689 1676785
L2113117 1677500
" />
</g></g>
<g style="fill:#000000; fill-opacity:0.0; 
stroke:#000000; stroke-width:3000.000000; stroke-opacity:1; 
stroke-linecap:round; stroke-linejoin:round;">
<text x="1780000.000000" y="1807500.000000"
textLength="491235.710000" font-size="20000.000000" lengthAdjust="spacingAndGlyphs"
text-anchor="start" opacity="0">Instituto Nacional de Tecnología Industrial</text>
<g class="stroked-text"><desc>Instituto Nacional de Tecnología Industrial</desc>
<path d="M1785521 1806785
L1785521 1791785
" />
<path d="M1792664 1796785
L1792664 1806785
" />
<path d="M1792664 1798214
L1793378 1797500
L1794807 1796785
L1796950 1796785
L1798378 1797500
L1799092 1798928
L1799092 1806785
" />
<path d="M1805521 1806071
L1806950 1806785
L1809807 1806785
L1811235 1806071
L1811950 1804642
L1811950 1803928
L1811235 1802500
L1809807 1801785
L1807664 1801785
L1806235 1801071
L1805521 1799642
L1805521 1798928
L1806235 1797500
L1807664 1796785
L1809807 1796785
L1811235 1797500
" />
<path d="M1816235 1796785
L1821950 1796785
" />
<path d="M1818378 1791785
L1818378 1804642
L1819092 1806071
L1820521 1806785
L1821950 1806785
" />
<path d="M1826950 1806785
L1826950 1796785
" />
<path d="M1826950 1791785
L1826235 1792500
L1826950 1793214
L1827664 1792500
L1826950 1791785
L1826950 1793214
" />
<path d="M1831950 1796785
L1837664 1796785
" />
<path d="M1834092 1791785
L1834092 1804642
L1834807 1806071
L1836235 1806785
L1837664 1806785
" />
<path d="M1849092 1796785
L1849092 1806785
" />
<path d="M1842664 1796785
L1842664 1804642
L1843378 1806071
L1844807 1806785
L1846950 1806785
L1848378 1806071
L1849092 1805357
" />
<path d="M1854092 1796785
L1859807 1796785
" />
<path d="M1856235 1791785
L1856235 1804642
L1856950 1806071
L1858378 1806785
L1859807 1806785
" />
<path d="M1866950 1806785
L1865521 1806071
L1864807 1805357
L1864092 1803928
L1864092 1799642
L1864807 1798214
L1865521 1797500
L1866950 1796785
L1869092 1796785
L1870521 1797500
L1871235 1798214
L1871950 1799642
L1871950 1803928
L1871235 1805357
L1870521 1806071
L1869092 1806785
L1866950 1806785
" />
<path d="M1889807 1806785
L1889807 1791785
L1898378 1806785
L1898378 1791785
" />
<path d="M1911950 1806785
L1911950 1798928
L1911235 1797500
L1909807 1796785
L1906950 1796785
L1905521 1797500
" />
<path d="M1911950 1806071
L1910521 1806785
L1906950 1806785
L1905521 1806071
L1904807 1804642
L1904807 1803214
L1905521 1801785
L1906950 1801071
L1910521 1801071
L1911950 1800357
" />
<path d="M1925521 1806071
L1924092 1806785
L1921235 1806785
L1919807 1806071
L1919092 1805357
L1918378 1803928
L1918378 1799642
L1919092 1798214
L1919807 1797500
L1921235 1796785
L1924092 1796785
L1925521 1797500
" />
<path d="M1931950 1806785
L1931950 1796785
" />
<path d="M1931950 1791785
L1931235 1792500
L1931950 1793214
L1932664 1792500
L1931950 1791785
L1931950 1793214
" />
<path d="M1941235 1806785
L1939807 1806071
L1939092 1805357
L1938378 1803928
L1938378 1799642
L1939092 1798214
L1939807 1797500
L1941235 1796785
L1943378 1796785
L1944807 1797500
L1945521 1798214
L1946235 1799642
L1946235 1803928
L1945521 1805357
L1944807 1806071
L1943378 1806785
L1941235 1806785
" />
<path d="M1952664 1796785
L1952664 1806785
" />
<path d="M1952664 1798214
L1953378 1797500
L1954807 1796785
L1956950 1796785
L1958378 1797500
L1959092 1798928
L1959092 1806785
" />
<path d="M1972664 1806785
L1972664 1798928
L1971950 1797500
L1970521 1796785
L1967664 1796785
L1966235 1797500
" />
<path d="M1972664 1806071
L1971235 1806785
L1967664 1806785
L1966235 1806071
L1965521 1804642
L1965521 1803214
L1966235 1801785
L1967664 1801071
L1971235 1801071
L1972664 1800357
" />
<path d="M1981950 1806785
L1980521 1806071
L1979807 1804642
L1979807 1791785
" />
<path d="M2005521 1806785
L2005521 1791785
" />
<path d="M2005521 1806071
L2004092 1806785
L2001235 1806785
L1999807 1806071
L1999092 1805357
L1998378 1803928
L1998378 1799642
L1999092 1798214
L1999807 1797500
L2001235 1796785
L2004092 1796785
L2005521 1797500
" />
<path d="M2018378 1806071
L2016950 1806785
L2014092 1806785
L2012664 1806071
L2011950 1804642
L2011950 1798928
L2012664 1797500
L2014092 1796785
L2016950 1796785
L2018378 1797500
L2019092 1798928
L2019092 1800357
L2011950 1801785
" />
<path d="M2034807 1791785
L2043378 1791785
" />
<path d="M2039092 1806785
L2039092 1791785
" />
<path d="M2054092 1806071
L2052664 1806785
L2049807 1806785
L2048378 1806071
L2047664 1804642
L2047664 1798928
L2048378 1797500
L2049807 1796785
L2052664 1796785
L2054092 1797500
L2054807 1798928
L2054807 1800357
L2047664 1801785
" />
<path d="M2067664 1806071
L2066235 1806785
L2063378 1806785
L2061950 1806071
L2061235 1805357
L2060521 1803928
L2060521 1799642
L2061235 1798214
L2061950 1797500
L2063378 1796785
L2066235 1796785
L2067664 1797500
" />
<path d="M2074092 1796785
L2074092 1806785
" />
<path d="M2074092 1798214
L2074807 1797500
L2076235 1796785
L2078378 1796785
L2079807 1797500
L2080521 1798928
L2080521 1806785
" />
<path d="M2089807 1806785
L2088378 1806071
L2087664 1805357
L2086950 1803928
L2086950 1799642
L2087664 1798214
L2088378 1797500
L2089807 1796785
L2091950 1796785
L2093378 1797500
L2094092 1798214
L2094807 1799642
L2094807 1803928
L2094092 1805357
L2093378 1806071
L2091950 1806785
L2089807 1806785
" />
<path d="M2103378 1806785
L2101950 1806071
L2101235 1804642
L2101235 1791785
" />
<path d="M2111235 1806785
L2109807 1806071
L2109092 1805357
L2108378 1803928
L2108378 1799642
L2109092 1798214
L2109807 1797500
L2111235 1796785
L2113378 1796785
L2114807 1797500
L2115521 1798214
L2116235 1799642
L2116235 1803928
L2115521 1805357
L2114807 1806071
L2113378 1806785
L2111235 1806785
" />
<path d="M2129092 1796785
L2129092 1808928
L2128378 1810357
L2127664 1811071
L2126235 1811785
L2124092 1811785
L2122664 1811071
" />
<path d="M2129092 1806071
L2127664 1806785
L2124807 1806785
L2123378 1806071
L2122664 1805357
L2121950 1803928
L2121950 1799642
L2122664 1798214
L2123378 1797500
L2124807 1796785
L2127664 1796785
L2129092 1797500
" />
<path d="M2136235 1806785
L2136235 1796785
" />
<path d="M2137664 1791071
L2135521 1793214
" />
<path d="M2149807 1806785
L2149807 1798928
L2149092 1797500
L2147664 1796785
L2144807 1796785
L2143378 1797500
" />
<path d="M2149807 1806071
L2148378 1806785
L2144807 1806785
L2143378 1806071
L2142664 1804642
L2142664 1803214
L2143378 1801785
L2144807 1801071
L2148378 1801071
L2149807 1800357
" />
<path d="M2168378 1806785
L2168378 1791785
" />
<path d="M2175521 1796785
L2175521 1806785
" />
<path d="M2175521 1798214
L2176235 1797500
L2177664 1796785
L2179807 1796785
L2181235 1797500
L2181950 1798928
L2181950 1806785
" />
<path d="M2195521 1806785
L2195521 1791785
" />
<path d="M2195521 1806071
L2194092 1806785
L2191235 1806785
L2189807 1806071
L2189092 1805357
L2188378 1803928
L2188378 1799642
L2189092 1798214
L2189807 1797500
L2191235 1796785
L2194092 1796785
L2195521 1797500
" />
<path d="M2209092 1796785
L2209092 1806785
" />
<path d="M2202664 1796785
L2202664 1804642
L2203378 1806071
L2204807 1806785
L2206950 1806785
L2208378 1806071
L2209092 1805357
" />
<path d="M2215521 1806071
L2216950 1806785
L2219807 1806785
L2221235 1806071
L2221950 1804642
L2221950 1803928
L2221235 1802500
L2219807 1801785
L2217664 1801785
L2216235 1801071
L2215521 1799642
L2215521 1798928
L2216235 1797500
L2217664 1796785
L2219807 1796785
L2221235 1797500
" />
<path d="M2226235 1796785
L2231950 1796785
" />
<path d="M2228378 1791785
L2228378 1804642
L2229092 1806071
L2230521 1806785
L2231950 1806785
" />
<path d="M2236950 1806785
L2236950 1796785
" />
<path d="M2236950 1799642
L2237664 1798214
L2238378 1797500
L2239807 1796785
L2241235 1796785
" />
<path d="M2246235 1806785
L2246235 1796785
" />
<path d="M2246235 1791785
L2245521 1792500
L2246235 1793214
L2246950 1792500
L2246235 1791785
L2246235 1793214
" />
<path d="M2259807 1806785
L2259807 1798928
L2259092 1797500
L2257664 1796785
L2254807 1796785
L2253378 1797500
" />
<path d="M2259807 1806071
L2258378 1806785
L2254807 1806785
L2253378 1806071
L2252664 1804642
L2252664 1803214
L2253378 1801785
L2254807 1801071
L2258378 1801071
L2259807 1800357
" />
<path d="M2269092 1806785
L2267664 1806071
L2266950 1804642
L2266950 1791785
" />
</g></g>
<g style="fill:#000000; fill-opacity:0.0; 
stroke:#000000; stroke-width:1500.000000; stroke-opacity:1; 
stroke-linecap:round; stroke-linejoin:round;">
<text x="1780000.000000" y="1837500.000000"
textLength="187471.430000" font-size="20000.000000" lengthAdjust="spacingAndGlyphs"
text-anchor="start" opacity="0">Sheet: Assembly</text>
<g class="stroked-text"><desc>Sheet: Assembly</desc>
<path d="M1783832 1836071
L1785975 1836785
L1789546 1836785
L1790975 1836071
L1791689 1835357
L1792403 1833928
L1792403 1832500
L1791689 1831071
L1790975 1830357
L1789546 1829642
L1786689 1828928
L1785260 1828214
L1784546 1827500
L1783832 1826071
L1783832 1824642
L1784546 1823214
L1785260 1822500
L1786689 1821785
L1790260 1821785
L1792403 1822500
" />
<path d="M1798832 1836785
L1798832 1821785
" />
<path d="M1805260 1836785
L1805260 1828928
L1804546 1827500
L1803117 1826785
L1800975 1826785
L1799546 1827500
L1798832 1828214
" />
<path d="M1818117 1836071
L1816689 1836785
L1813832 1836785
L1812403 1836071
L1811689 1834642
L1811689 1828928
L1812403 1827500
L1813832 1826785
L1816689 1826785
L1818117 1827500
L1818832 1828928
L1818832 1830357
L1811689 1831785
" />
<path d="M1830975 1836071
L1829546 1836785
L1826689 1836785
L1825260 1836071
L1824546 1834642
L1824546 1828928
L1825260 1827500
L1826689 1826785
L1829546 1826785
L1830975 1827500
L1831689 1828928
L1831689 1830357
L1824546 1831785
" />
<path d="M1835975 1826785
L1841689 1826785
" />
<path d="M1838117 1821785
L1838117 1834642
L1838832 1836071
L1840260 1836785
L1841689 1836785
" />
<path d="M1846689 1835357
L1847403 1836071
L1846689 1836785
L1845975 1836071
L1846689 1835357
L1846689 1836785
" />
<path d="M1846689 1827500
L1847403 1828214
L1846689 1828928
L1845975 1828214
L1846689 1827500
L1846689 1828928
" />
<path d="M1864546 1832500
L1871689 1832500
" />
<path d="M1863117 1836785
L1868117 1821785
L1873117 1836785
" />
<path d="M1877403 1836071
L1878832 1836785
L1881689 1836785
L1883117 1836071
L1883832 1834642
L1883832 1833928
L1883117 1832500
L1881689 1831785
L1879546 1831785
L1878117 1831071
L1877403 1829642
L1877403 1828928
L1878117 1827500
L1879546 1826785
L1881689 1826785
L1883117 1827500
" />
<path d="M1889546 1836071
L1890975 1836785
L1893832 1836785
L1895260 1836071
L1895975 1834642
L1895975 1833928
L1895260 1832500
L1893832 1831785
L1891689 1831785
L1890260 1831071
L1889546 1829642
L1889546 1828928
L1890260 1827500
L1891689 1826785
L1893832 1826785
L1895260 1827500
" />
<path d="M1908117 1836071
L1906689 1836785
L1903832 1836785
L1902403 1836071
L1901689 1834642
L1901689 1828928
L1902403 1827500
L1903832 1826785
L1906689 1826785
L1908117 1827500
L1908832 1828928
L1908832 1830357
L1901689 1831785
" />
<path d="M1915260 1836785
L1915260 1826785
" />
<path d="M1915260 1828214
L1915975 1827500
L1917403 1826785
L1919546 1826785
L1920975 1827500
L1921689 1828928
L1921689 1836785
" />
<path d="M1921689 1828928
L1922403 1827500
L1923832 1826785
L1925975 1826785
L1927403 1827500
L1928117 1828928
L1928117 1836785
" />
<path d="M1935260 1836785
L1935260 1821785
" />
<path d="M1935260 1827500
L1936689 1826785
L1939546 1826785
L1940975 1827500
L1941689 1828214
L1942403 1829642
L1942403 1833928
L1941689 1835357
L1940975 1836071
L1939546 1836785
L1936689 1836785
L1935260 1836071
" />
<path d="M1950975 1836785
L1949546 1836071
L1948832 1834642
L1948832 1821785
" />
<path d="M1955260 1826785
L1958832 1836785
" />
<path d="M1962403 1826785
L1958832 1836785
L1957403 1840357
L1956689 1841071
L1955260 1841785
" />
</g><path d="M1770000 1815000
L2850000 1815000
" />
<text x="1780000.000000" y="1864500.000000"
textLength="201950.000000" font-size="20000.000000" lengthAdjust="spacingAndGlyphs"
text-anchor="start" opacity="0">File: t1.kicad_pcb</text>
<g class="stroked-text"><desc>File: t1.kicad_pcb</desc>
<path d="M1789546 1855928
L1784546 1855928
" />
<path d="M1784546 1863785
L1784546 1848785
L1791689 1848785
" />
<path d="M1797403 1863785
L1797403 1853785
" />
<path d="M1797403 1848785
L1796689 1849500
L1797403 1850214
L1798117 1849500
L1797403 1848785
L1797403 1850214
" />
<path d="M1806689 1863785
L1805260 1863071
L1804546 1861642
L1804546 1848785
" />
<path d="M1818117 1863071
L1816689 1863785
L1813832 1863785
L1812403 1863071
L1811689 1861642
L1811689 1855928
L1812403 1854500
L1813832 1853785
L1816689 1853785
L1818117 1854500
L1818832 1855928
L1818832 1857357
L1811689 1858785
" />
<path d="M1825260 1862357
L1825975 1863071
L1825260 1863785
L1824546 1863071
L1825260 1862357
L1825260 1863785
" />
<path d="M1825260 1854500
L1825975 1855214
L1825260 1855928
L1824546 1855214
L1825260 1854500
L1825260 1855928
" />
<path d="M1841689 1853785
L1847403 1853785
" />
<path d="M1843832 1848785
L1843832 1861642
L1844546 1863071
L1845975 1863785
L1847403 1863785
" />
<path d="M1860260 1863785
L1851689 1863785
" />
<path d="M1855975 1863785
L1855975 1848785
L1854546 1850928
L1853117 1852357
L1851689 1853071
" />
<path d="M1866689 1862357
L1867403 1863071
L1866689 1863785
L1865975 1863071
L1866689 1862357
L1866689 1863785
" />
<path d="M1873832 1863785
L1873832 1848785
" />
<path d="M1875260 1858071
L1879546 1863785
" />
<path d="M1879546 1853785
L1873832 1859500
" />
<path d="M1885975 1863785
L1885975 1853785
" />
<path d="M1885975 1848785
L1885260 1849500
L1885975 1850214
L1886689 1849500
L1885975 1848785
L1885975 1850214
" />
<path d="M1899546 1863071
L1898117 1863785
L1895260 1863785
L1893832 1863071
L1893117 1862357
L1892403 1860928
L1892403 1856642
L1893117 1855214
L1893832 1854500
L1895260 1853785
L1898117 1853785
L1899546 1854500
" />
<path d="M1912403 1863785
L1912403 1855928
L1911689 1854500
L1910260 1853785
L1907403 1853785
L1905975 1854500
" />
<path d="M1912403 1863071
L1910975 1863785
L1907403 1863785
L1905975 1863071
L1905260 1861642
L1905260 1860214
L1905975 1858785
L1907403 1858071
L1910975 1858071
L1912403 1857357
" />
<path d="M1925975 1863785
L1925975 1848785
" />
<path d="M1925975 1863071
L1924546 1863785
L1921689 1863785
L1920260 1863071
L1919546 1862357
L1918832 1860928
L1918832 1856642
L1919546 1855214
L1920260 1854500
L1921689 1853785
L1924546 1853785
L1925975 1854500
" />
<path d="M1929546 1865214
L1940975 1865214
" />
<path d="M1944546 1853785
L1944546 1868785
" />
<path d="M1944546 1854500
L1945975 1853785
L1948832 1853785
L1950260 1854500
L1950975 1855214
L1951689 1856642
L1951689 1860928
L1950975 1862357
L1950260 1863071
L1948832 1863785
L1945975 1863785
L1944546 1863071
" />
<path d="M1964546 1863071
L1963117 1863785
L1960260 1863785
L1958832 1863071
L1958117 1862357
L1957403 1860928
L1957403 1856642
L1958117 1855214
L1958832 1854500
L1960260 1853785
L1963117 1853785
L1964546 1854500
" />
<path d="M1970975 1863785
L1970975 1848785
" />
<path d="M1970975 1854500
L1972403 1853785
L1975260 1853785
L1976689 1854500
L1977403 1855214
L1978117 1856642
L1978117 1860928
L1977403 1862357
L1976689 1863071
L1975260 1863785
L1972403 1863785
L1970975 1863071
" />
</g></g>
<g style="fill:#000000; fill-opacity:0.0; 
stroke:#000000; stroke-width:3000.000000; stroke-opacity:1; 
stroke-linecap:round; stroke-linejoin:round;">
<text x="1780000.000000" y="1903000.000000"
textLength="94546.430000" font-size="26666.660000" lengthAdjust="spacingAndGlyphs"
text-anchor="start" opacity="0">Title: </text>
<g class="stroked-text"><desc>Title: </desc>
<path d="M1786473 1882047
L1797902 1882047
" />
<path d="M1789688 1902047
L1792188 1882047
" />
<path d="M1802069 1902047
L1803735 1888714
" />
<path d="M1804569 1882047
L1803497 1883000
L1804330 1883952
L1805402 1883000
L1804569 1882047
L1804330 1883952
" />
<path d="M1810402 1888714
L1818021 1888714
" />
<path d="M1814092 1882047
L1811950 1899190
L1812664 1901095
L1814450 1902047
L1816354 1902047
" />
<path d="M1825878 1902047
L1824092 1901095
L1823378 1899190
L1825521 1882047
" />
<path d="M1841235 1901095
L1839211 1902047
L1835402 1902047
L1833616 1901095
L1832902 1899190
L1833854 1891571
L1835045 1889666
L1837069 1888714
L1840878 1888714
L1842664 1889666
L1843378 1891571
L1843140 1893476
L1833378 1895380
" />
<path d="M1850878 1900142
L1851711 1901095
L1850640 1902047
L1849807 1901095
L1850878 1900142
L1850640 1902047
" />
<path d="M1852188 1889666
L1853021 1890619
L1851950 1891571
L1851116 1890619
L1852188 1889666
L1851950 1891571
" />
</g></g>
<g style="fill:#000000; fill-opacity:0.0; 
stroke:#000000; stroke-width:1500.000000; stroke-opacity:1; 
stroke-linecap:round; stroke-linejoin:round;">
<path d="M1770000 1875000
L2850000 1875000
" />
<text x="2630000.000000" y="1966500.010000"
textLength="87471.430000" font-size="20000.000000" lengthAdjust="spacingAndGlyphs"
text-anchor="start" opacity="0">Id: 3/8</text>
<g class="stroked-text"><desc>Id: 3/8</desc>
<path d="M2634546 1965785
L2634546 1950785
" />
<path d="M2648117 1965785
L2648117 1950785
" />
<path d="M2648117 1965071
L2646689 1965785
L2643832 1965785
L2642403 1965071
L2641689 1964357
L2640975 1962928
L2640975 1958642
L2641689 1957214
L2642403 1956500
L2643832 1955785
L2646689 1955785
L2648117 1956500
" />
<path d="M2655260 1964357
L2655975 1965071
L2655260 1965785
L2654546 1965071
L2655260 1964357
L2655260 1965785
" />
<path d="M2655260 1956500
L2655975 1957214
L2655260 1957928
L2654546 1957214
L2655260 1956500
L2655260 1957928
" />
<path d="M2672403 1950785
L2681689 1950785
L2676689 1956500
L2678832 1956500
L2680260 1957214
L2680975 1957928
L2681689 1959357
L2681689 1962928
L2680975 1964357
L2680260 1965071
L2678832 1965785
L2674546 1965785
L2673117 1965071
L2672403 1964357
" />
<path d="M2698832 1950071
L2685975 1969357
" />
<path d="M2705975 1957214
L2704546 1956500
L2703832 1955785
L2703117 1954357
L2703117 1953642
L2703832 1952214
L2704546 1951500
L2705975 1950785
L2708832 1950785
L2710260 1951500
L2710975 1952214
L2711689 1953642
L2711689 1954357
L2710975 1955785
L2710260 1956500
L2708832 1957214
L2705975 1957214
L2704546 1957928
L2703832 1958642
L2703117 1960071
L2703117 1962928
L2703832 1964357
L2704546 1965071
L2705975 1965785
L2708832 1965785
L2710260 1965071
L2710975 1964357
L2711689 1962928
L2711689 1960071
L2710975 1958642
L2710260 1957928
L2708832 1957214
" />
</g><text x="1780000.000000" y="1938500.000000"
textLength="94092.860000" font-size="20000.000000" lengthAdjust="spacingAndGlyphs"
text-anchor="start" opacity="0">Size: A4</text>
<g class="stroked-text"><desc>Size: A4</desc>
<path d="M1783832 1937071
L1785975 1937785
L1789546 1937785
L1790975 1937071
L1791689 1936357
L1792403 1934928
L1792403 1933500
L1791689 1932071
L1790975 1931357
L1789546 1930642
L1786689 1929928
L1785260 1929214
L1784546 1928500
L1783832 1927071
L1783832 1925642
L1784546 1924214
L1785260 1923500
L1786689 1922785
L1790260 1922785
L1792403 1923500
" />
<path d="M1798832 1937785
L1798832 1927785
" />
<path d="M1798832 1922785
L1798117 1923500
L1798832 1924214
L1799546 1923500
L1798832 1922785
L1798832 1924214
" />
<path d="M1804546 1927785
L1812403 1927785
L1804546 1937785
L1812403 1937785
" />
<path d="M1823832 1937071
L1822403 1937785
L1819546 1937785
L1818117 1937071
L1817403 1935642
L1817403 1929928
L1818117 1928500
L1819546 1927785
L1822403 1927785
L1823832 1928500
L1824546 1929928
L1824546 1931357
L1817403 1932785
" />
<path d="M1830975 1936357
L1831689 1937071
L1830975 1937785
L1830260 1937071
L1830975 1936357
L1830975 1937785
" />
<path d="M1830975 1928500
L1831689 1929214
L1830975 1929928
L1830260 1929214
L1830975 1928500
L1830975 1929928
" />
<path d="M1848832 1933500
L1855975 1933500
" />
<path d="M1847403 1937785
L1852403 1922785
L1857403 1937785
" />
<path d="M1868832 1927785
L1868832 1937785
" />
<path d="M1865260 1922071
L1861689 1932785
L1870975 1932785
" />
</g></g>
<g style="fill:#000000; fill-opacity:0.0; 
stroke:#000000; stroke-width:3000.000000; stroke-opacity:1; 
stroke-linecap:round; stroke-linejoin:round;">
<text x="2630000.000000" y="1938500.000000"
textLength="187664.290000" font-size="20000.000000" lengthAdjust="spacingAndGlyphs"
text-anchor="start" opacity="0">Rev: ${git_hash}</text>
<g class="stroked-text"><desc>Rev: ${git_hash}</desc>
<path d="M2644092 1937785
L2639092 1930642
" />
<path d="M2635521 1937785
L2635521 1922785
L2641235 1922785
L2642664 1923500
L2643378 1924214
L2644092 1925642
L2644092 1927785
L2643378 1929214
L2642664 1929928
L2641235 1930642
L2635521 1930642
" />
<path d="M2656235 1937071
L2654807 1937785
L2651950 1937785
L2650521 1937071
L2649807 1935642
L2649807 1929928
L2650521 1928500
L2651950 1927785
L2654807 1927785
L2656235 1928500
L2656950 1929928
L2656950 1931357
L2649807 1932785
" />
<path d="M2661950 1927785
L2665521 1937785
L2669092 1927785
" />
<path d="M2674807 1936357
L2675521 1937071
L2674807 1937785
L2674092 1937071
L2674807 1936357
L2674807 1937785
" />
<path d="M2674807 1928500
L2675521 1929214
L2674807 1929928
L2674092 1929214
L2674807 1928500
L2674807 1929928
" />
<path d="M2692664 1937071
L2694807 1937785
L2698378 1937785
L2699807 1937071
L2700521 1936357
L2701235 1934928
L2701235 1933500
L2700521 1932071
L2699807 1931357
L2698378 1930642
L2695521 1929928
L2694092 1929214
L2693378 1928500
L2692664 1927071
L2692664 1925642
L2693378 1924214
L2694092 1923500
L2695521 1922785
L2699092 1922785
L2701235 1923500
" />
<path d="M2696950 1920642
L2696950 1939928
" />
<path d="M2711950 1943500
L2711235 1943500
L2709807 1942785
L2709092 1941357
L2709092 1934214
L2708378 1932785
L2706950 1932071
L2708378 1931357
L2709092 1929928
L2709092 1922785
L2709807 1921357
L2711235 1920642
L2711950 1920642
" />
<path d="M2724092 1927785
L2724092 1939928
L2723378 1941357
L2722664 1942071
L2721235 1942785
L2719092 1942785
L2717664 1942071
" />
<path d="M2724092 1937071
L2722664 1937785
L2719807 1937785
L2718378 1937071
L2717664 1936357
L2716950 1934928
L2716950 1930642
L2717664 1929214
L2718378 1928500
L2719807 1927785
L2722664 1927785
L2724092 1928500
" />
<path d="M2731235 1937785
L2731235 1927785
" />
<path d="M2731235 1922785
L2730521 1923500
L2731235 1924214
L2731950 1923500
L2731235 1922785
L2731235 1924214
" />
<path d="M2736235 1927785
L2741950 1927785
" />
<path d="M2738378 1922785
L2738378 1935642
L2739092 1937071
L2740521 1937785
L2741950 1937785
" />
<path d="M2743378 1939214
L2754807 1939214
" />
<path d="M2758378 1937785
L2758378 1922785
" />
<path d="M2764807 1937785
L2764807 1929928
L2764092 1928500
L2762664 1927785
L2760521 1927785
L2759092 1928500
L2758378 1929214
" />
<path d="M2778378 1937785
L2778378 1929928
L2777664 1928500
L2776235 1927785
L2773378 1927785
L2771950 1928500
" />
<path d="M2778378 1937071
L2776950 1937785
L2773378 1937785
L2771950 1937071
L2771235 1935642
L2771235 1934214
L2771950 1932785
L2773378 1932071
L2776950 1932071
L2778378 1931357
" />
<path d="M2784807 1937071
L2786235 1937785
L2789092 1937785
L2790521 1937071
L2791235 1935642
L2791235 1934928
L2790521 1933500
L2789092 1932785
L2786950 1932785
L2785521 1932071
L2784807 1930642
L2784807 1929928
L2785521 1928500
L2786950 1927785
L2789092 1927785
L2790521 1928500
" />
<path d="M2797664 1937785
L2797664 1922785
" />
<path d="M2804092 1937785
L2804092 1929928
L2803378 1928500
L2801950 1927785
L2799807 1927785
L2798378 1928500
L2797664 1929214
" />
<path d="M2809807 1943500
L2810521 1943500
L2811950 1942785
L2812664 1941357
L2812664 1934214
L2813378 1932785
L2814807 1932071
L2813378 1931357
L2812664 1929928
L2812664 1922785
L2811950 1921357
L2810521 1920642
L2809807 1920642
" />
</g></g>
<g style="fill:#000000; fill-opacity:0.0; 
stroke:#000000; stroke-width:1500.000000; stroke-opacity:1; 
stroke-linecap:round; stroke-linejoin:round;">
<path d="M1770000 1915000
L2850000 1915000
" />
<text x="1780000.000000" y="1966500.010000"
textLength="618185.710000" font-size="20000.000000" lengthAdjust="spacingAndGlyphs"
text-anchor="start" opacity="0">KiCad E.D.A. 6.0.11+dfsg-1~bpo11+1 + KiBot v1.6.3</text>
<g class="stroked-text"><desc>KiCad E.D.A. 6.0.11+dfsg-1~bpo11+1 + KiBot v1.6.3</desc>
<path d="M1784546 1965785
L1784546 1950785
" />
<path d="M1793117 1965785
L1786689 1957214
" />
<path d="M1793117 1950785
L1784546 1959357
" />
<path d="M1799546 1965785
L1799546 1955785
" />
<path d="M1799546 1950785
L1798832 1951500
L1799546 1952214
L1800260 1951500
L1799546 1950785
L1799546 1952214
" />
<path d="M1815260 1964357
L1814546 1965071
L1812403 1965785
L1810975 1965785
L1808832 1965071
L1807403 1963642
L1806689 1962214
L1805975 1959357
L1805975 1957214
L1806689 1954357
L1807403 1952928
L1808832 1951500
L1810975 1950785
L1812403 1950785
L1814546 1951500
L1815260 1952214
" />
<path d="M1828117 1965785
L1828117 1957928
L1827403 1956500
L1825975 1955785
L1823117 1955785
L1821689 1956500
" />
<path d="M1828117 1965071
L1826689 1965785
L1823117 1965785
L1821689 1965071
L1820975 1963642
L1820975 1962214
L1821689 1960785
L1823117 1960071
L1826689 1960071
L1828117 1959357
" />
<path d="M1841689 1965785
L1841689 1950785
" />
<path d="M1841689 1965071
L1840260 1965785
L1837403 1965785
L1835975 1965071
L1835260 1964357
L1834546 1962928
L1834546 1958642
L1835260 1957214
L1835975 1956500
L1837403 1955785
L1840260 1955785
L1841689 1956500
" />
<path d="M1860260 1957928
L1865260 1957928
" />
<path d="M1867403 1965785
L1860260 1965785
L1860260 1950785
L1867403 1950785
" />
<path d="M1873832 1964357
L1874546 1965071
L1873832 1965785
L1873117 1965071
L1873832 1964357
L1873832 1965785
" />
<path d="M1880975 1965785
L1880975 1950785
L1884546 1950785
L1886689 1951500
L1888117 1952928
L1888832 1954357
L1889546 1957214
L1889546 1959357
L1888832 1962214
L1888117 1963642
L1886689 1965071
L1884546 1965785
L1880975 1965785
" />
<path d="M1895975 1964357
L1896689 1965071
L1895975 1965785
L1895260 1965071
L1895975 1964357
L1895975 1965785
" />
<path d="M1902403 1961500
L1909546 1961500
" />
<path d="M1900975 1965785
L1905975 1950785
L1910975 1965785
" />
<path d="M1915975 1964357
L1916689 1965071
L1915975 1965785
L1915260 1965071
L1915975 1964357
L1915975 1965785
" />
<path d="M1940975 1950785
L1938117 1950785
L1936689 1951500
L1935975 1952214
L1934546 1954357
L1933832 1957214
L1933832 1962928
L1934546 1964357
L1935260 1965071
L1936689 1965785
L1939546 1965785
L1940975 1965071
L1941689 1964357
L1942403 1962928
L1942403 1959357
L1941689 1957928
L1940975 1957214
L1939546 1956500
L1936689 1956500
L1935260 1957214
L1934546 1957928
L1933832 1959357
" />
<path d="M1948832 1964357
L1949546 1965071
L1948832 1965785
L1948117 1965071
L1948832 1964357
L1948832 1965785
" />
<path d="M1958832 1950785
L1960260 1950785
L1961689 1951500
L1962403 1952214
L1963117 1953642
L1963832 1956500
L1963832 1960071
L1963117 1962928
L1962403 1964357
L1961689 1965071
L1960260 1965785
L1958832 1965785
L1957403 1965071
L1956689 1964357
L1955975 1962928
L1955260 1960071
L1955260 1956500
L1955975 1953642
L1956689 1952214
L1957403 1951500
L1958832 1950785
" />
<path d="M1970260 1964357
L1970975 1965071
L1970260 1965785
L1969546 1965071
L1970260 1964357
L1970260 1965785
" />
<path d="M1985260 1965785
L1976689 1965785
" />
<path d="M1980975 1965785
L1980975 1950785
L1979546 1952928
L1978117 1954357
L1976689 1955071
" />
<path d="M1999546 1965785
L1990975 1965785
" />
<path d="M1995260 1965785
L1995260 1950785
L1993832 1952928
L1992403 1954357
L1990975 1955071
" />
<path d="M2005975 1960071
L2017403 1960071
" />
<path d="M2011689 1965785
L2011689 1954357
" />
<path d="M2030975 1965785
L2030975 1950785
" />
<path d="M2030975 1965071
L2029546 1965785
L2026689 1965785
L2025260 1965071
L2024546 1964357
L2023832 1962928
L2023832 1958642
L2024546 1957214
L2025260 1956500
L2026689 1955785
L2029546 1955785
L2030975 1956500
" />
<path d="M2035975 1955785
L2041689 1955785
" />
<path d="M2038117 1965785
L2038117 1952928
L2038832 1951500
L2040260 1950785
L2041689 1950785
" />
<path d="M2045975 1965071
L2047403 1965785
L2050260 1965785
L2051689 1965071
L2052403 1963642
L2052403 1962928
L2051689 1961500
L2050260 1960785
L2048117 1960785
L2046689 1960071
L2045975 1958642
L2045975 1957928
L2046689 1956500
L2048117 1955785
L2050260 1955785
L2051689 1956500
" />
<path d="M2065260 1955785
L2065260 1967928
L2064546 1969357
L2063832 1970071
L2062403 1970785
L2060260 1970785
L2058832 1970071
" />
<path d="M2065260 1965071
L2063832 1965785
L2060975 1965785
L2059546 1965071
L2058832 1964357
L2058117 1962928
L2058117 1958642
L2058832 1957214
L2059546 1956500
L2060975 1955785
L2063832 1955785
L2065260 1956500
" />
<path d="M2072403 1960071
L2083832 1960071
" />
<path d="M2098832 1965785
L2090260 1965785
" />
<path d="M2094546 1965785
L2094546 1950785
L2093117 1952928
L2091689 1954357
L2090260 1955071
" />
<path d="M2103117 1960071
L2103832 1959357
L2105260 1958642
L2108117 1960071
L2109546 1959357
L2110260 1958642
" />
<path d="M2115975 1965785
L2115975 1950785
" />
<path d="M2115975 1956500
L2117403 1955785
L2120260 1955785
L2121689 1956500
L2122403 1957214
L2123117 1958642
L2123117 1962928
L2122403 1964357
L2121689 1965071
L2120260 1965785
L2117403 1965785
L2115975 1965071
" />
<path d="M2129546 1955785
L2129546 1970785
" />
<path d="M2129546 1956500
L2130975 1955785
L2133832 1955785
L2135260 1956500
L2135975 1957214
L2136689 1958642
L2136689 1962928
L2135975 1964357
L2135260 1965071
L2133832 1965785
L2130975 1965785
L2129546 1965071
" />
<path d="M2145260 1965785
L2143832 1965071
L2143117 1964357
L2142403 1962928
L2142403 1958642
L2143117 1957214
L2143832 1956500
L2145260 1955785
L2147403 1955785
L2148832 1956500
L2149546 1957214
L2150260 1958642
L2150260 1962928
L2149546 1964357
L2148832 1965071
L2147403 1965785
L2145260 1965785
" />
<path d="M2164546 1965785
L2155975 1965785
" />
<path d="M2160260 1965785
L2160260 1950785
L2158832 1952928
L2157403 1954357
L2155975 1955071
" />
<path d="M2178832 1965785
L2170260 1965785
" />
<path d="M2174546 1965785
L2174546 1950785
L2173117 1952928
L2171689 1954357
L2170260 1955071
" />
<path d="M2185260 1960071
L2196689 1960071
" />
<path d="M2190975 1965785
L2190975 1954357
" />
<path d="M2211689 1965785
L2203117 1965785
" />
<path d="M2207403 1965785
L2207403 1950785
L2205975 1952928
L2204546 1954357
L2203117 1955071
" />
<path d="M2229546 1960071
L2240975 1960071
" />
<path d="M2235260 1965785
L2235260 1954357
" />
<path d="M2259546 1965785
L2259546 1950785
" />
<path d="M2268117 1965785
L2261689 1957214
" />
<path d="M2268117 1950785
L2259546 1959357
" />
<path d="M2274546 1965785
L2274546 1955785
" />
<path d="M2274546 1950785
L2273832 1951500
L2274546 1952214
L2275260 1951500
L2274546 1950785
L2274546 1952214
" />
<path d="M2286689 1957928
L2288832 1958642
L2289546 1959357
L2290260 1960785
L2290260 1962928
L2289546 1964357
L2288832 1965071
L2287403 1965785
L2281689 1965785
L2281689 1950785
L2286689 1950785
L2288117 1951500
L2288832 1952214
L2289546 1953642
L2289546 1955071
L2288832 1956500
L2288117 1957214
L2286689 1957928
L2281689 1957928
" />
<path d="M2298832 1965785
L2297403 1965071
L2296689 1964357
L2295975 1962928
L2295975 1958642
L2296689 1957214
L2297403 1956500
L2298832 1955785
L2300975 1955785
L2302403 1956500
L2303117 1957214
L2303832 1958642
L2303832 1962928
L2303117 1964357
L2302403 1965071
L2300975 1965785
L2298832 1965785
" />
<path d="M2308117 1955785
L2313832 1955785
" />
<path d="M2310260 1950785
L2310260 1963642
L2310975 1965071
L2312403 1965785
L2313832 1965785
" />
<path d="M2328832 1955785
L2332403 1965785
L2335975 1955785
" />
<path d="M2349546 1965785
L2340975 1965785
" />
<path d="M2345260 1965785
L2345260 1950785
L2343832 1952928
L2342403 1954357
L2340975 1955071
" />
<path d="M2355975 1964357
L2356689 1965071
L2355975 1965785
L2355260 1965071
L2355975 1964357
L2355975 1965785
" />
<path d="M2369546 1950785
L2366689 1950785
L2365260 1951500
L2364546 1952214
L2363117 1954357
L2362403 1957214
L2362403 1962928
L2363117 1964357
L2363832 1965071
L2365260 1965785
L2368117 1965785
L2369546 1965071
L2370260 1964357
L2370975 1962928
L2370975 1959357
L2370260 1957928
L2369546 1957214
L2368117 1956500
L2365260 1956500
L2363832 1957214
L2363117 1957928
L2362403 1959357
" />
<path d="M2377403 1964357
L2378117 1965071
L2377403 1965785
L2376689 1965071
L2377403 1964357
L2377403 1965785
" />
<path d="M2383117 1950785
L2392403 1950785
L2387403 1956500
L2389546 1956500
L2390975 1957214
L2391689 1957928
L2392403 1959357
L2392403 1962928
L2391689 1964357
L2390975 1965071
L2389546 1965785
L2385260 1965785
L2383832 1965071
L2383117 1964357
" />
</g><path d="M1770000 1945000
L2850000 1945000
" />
<text x="2000000.000000" y="1938500.000000"
textLength="356235.710000" font-size="20000.000000" lengthAdjust="spacingAndGlyphs"
text-anchor="start" opacity="0">Date: 2023-06-13_14-01-47</text>
<g class="stroked-text"><desc>Date: 2023-06-13_14-01-47</desc>
<path d="M2004546 1937785
L2004546 1922785
L2008117 1922785
L2010260 1923500
L2011689 1924928
L2012403 1926357
L2013117 1929214
L2013117 1931357
L2012403 1934214
L2011689 1935642
L2010260 1937071
L2008117 1937785
L2004546 1937785
" />
<path d="M2025975 1937785
L2025975 1929928
L2025260 1928500
L2023832 1927785
L2020975 1927785
L2019546 1928500
" />
<path d="M2025975 1937071
L2024546 1937785
L2020975 1937785
L2019546 1937071
L2018832 1935642
L2018832 1934214
L2019546 1932785
L2020975 1932071
L2024546 1932071
L2025975 1931357
" />
<path d="M2030975 1927785
L2036689 1927785
" />
<path d="M2033117 1922785
L2033117 1935642
L2033832 1937071
L2035260 1937785
L2036689 1937785
" />
<path d="M2047403 1937071
L2045975 1937785
L2043117 1937785
L2041689 1937071
L2040975 1935642
L2040975 1929928
L2041689 1928500
L2043117 1927785
L2045975 1927785
L2047403 1928500
L2048117 1929928
L2048117 1931357
L2040975 1932785
" />
<path d="M2054546 1936357
L2055260 1937071
L2054546 1937785
L2053832 1937071
L2054546 1936357
L2054546 1937785
" />
<path d="M2054546 1928500
L2055260 1929214
L2054546 1929928
L2053832 1929214
L2054546 1928500
L2054546 1929928
" />
<path d="M2072403 1924214
L2073117 1923500
L2074546 1922785
L2078117 1922785
L2079546 1923500
L2080260 1924214
L2080975 1925642
L2080975 1927071
L2080260 1929214
L2071689 1937785
L2080975 1937785
" />
<path d="M2090260 1922785
L2091689 1922785
L2093117 1923500
L2093832 1924214
L2094546 1925642
L2095260 1928500
L2095260 1932071
L2094546 1934928
L2093832 1936357
L2093117 1937071
L2091689 1937785
L2090260 1937785
L2088832 1937071
L2088117 1936357
L2087403 1934928
L2086689 1932071
L2086689 1928500
L2087403 1925642
L2088117 1924214
L2088832 1923500
L2090260 1922785
" />
<path d="M2100975 1924214
L2101689 1923500
L2103117 1922785
L2106689 1922785
L2108117 1923500
L2108832 1924214
L2109546 1925642
L2109546 1927071
L2108832 1929214
L2100260 1937785
L2109546 1937785
" />
<path d="M2114546 1922785
L2123832 1922785
L2118832 1928500
L2120975 1928500
L2122403 1929214
L2123117 1929928
L2123832 1931357
L2123832 1934928
L2123117 1936357
L2122403 1937071
L2120975 1937785
L2116689 1937785
L2115260 1937071
L2114546 1936357
" />
<path d="M2130260 1932071
L2141689 1932071
" />
<path d="M2151689 1922785
L2153117 1922785
L2154546 1923500
L2155260 1924214
L2155975 1925642
L2156689 1928500
L2156689 1932071
L2155975 1934928
L2155260 1936357
L2154546 1937071
L2153117 1937785
L2151689 1937785
L2150260 1937071
L2149546 1936357
L2148832 1934928
L2148117 1932071
L2148117 1928500
L2148832 1925642
L2149546 1924214
L2150260 1923500
L2151689 1922785
" />
<path d="M2169546 1922785
L2166689 1922785
L2165260 1923500
L2164546 1924214
L2163117 1926357
L2162403 1929214
L2162403 1934928
L2163117 1936357
L2163832 1937071
L2165260 1937785
L2168117 1937785
L2169546 1937071
L2170260 1936357
L2170975 1934928
L2170975 1931357
L2170260 1929928
L2169546 1929214
L2168117 1928500
L2165260 1928500
L2163832 1929214
L2163117 1929928
L2162403 1931357
" />
<path d="M2177403 1932071
L2188832 1932071
" />
<path d="M2203832 1937785
L2195260 1937785
" />
<path d="M2199546 1937785
L2199546 1922785
L2198117 1924928
L2196689 1926357
L2195260 1927071
" />
<path d="M2208832 1922785
L2218117 1922785
L2213117 1928500
L2215260 1928500
L2216689 1929214
L2217403 1929928
L2218117 1931357
L2218117 1934928
L2217403 1936357
L2216689 1937071
L2215260 1937785
L2210975 1937785
L2209546 1937071
L2208832 1936357
" />
<path d="M2220975 1939214
L2232403 1939214
" />
<path d="M2243832 1937785
L2235260 1937785
" />
<path d="M2239546 1937785
L2239546 1922785
L2238117 1924928
L2236689 1926357
L2235260 1927071
" />
<path d="M2256689 1927785
L2256689 1937785
" />
<path d="M2253117 1922071
L2249546 1932785
L2258832 1932785
" />
<path d="M2264546 1932071
L2275975 1932071
" />
<path d="M2285975 1922785
L2287403 1922785
L2288832 1923500
L2289546 1924214
L2290260 1925642
L2290975 1928500
L2290975 1932071
L2290260 1934928
L2289546 1936357
L2288832 1937071
L2287403 1937785
L2285975 1937785
L2284546 1937071
L2283832 1936357
L2283117 1934928
L2282403 1932071
L2282403 1928500
L2283117 1925642
L2283832 1924214
L2284546 1923500
L2285975 1922785
" />
<path d="M2305260 1937785
L2296689 1937785
" />
<path d="M2300975 1937785
L2300975 1922785
L2299546 1924928
L2298117 1926357
L2296689 1927071
" />
<path d="M2311689 1932071
L2323117 1932071
" />
<path d="M2336689 1927785
L2336689 1937785
" />
<path d="M2333117 1922071
L2329546 1932785
L2338832 1932785
" />
<path d="M2343117 1922785
L2353117 1922785
L2346689 1937785
" />
</g><text x="2860000.000000" y="1856500.000000"
textLength="14950.000000" font-size="17333.330000" lengthAdjust="spacingAndGlyphs"
text-anchor="middle" opacity="0">D</text>
<g class="stroked-text"><desc>D</desc>
<path d="M2856595 1855880
L2856595 1842880
L2859690 1842880
L2861547 1843500
L2862785 1844738
L2863404 1845976
L2864023 1848452
L2864023 1850309
L2863404 1852785
L2862785 1854023
L2861547 1855261
L2859690 1855880
L2856595 1855880
" />
</g><text x="2860000.000000" y="1356500.000000"
textLength="14950.000000" font-size="17333.330000" lengthAdjust="spacingAndGlyphs"
text-anchor="middle" opacity="0">C</text>
<g class="stroked-text"><desc>C</desc>
<path d="M2864023 1354642
L2863404 1355261
L2861547 1355880
L2860309 1355880
L2858452 1355261
L2857214 1354023
L2856595 1352785
L2855976 1350309
L2855976 1348452
L2856595 1345976
L2857214 1344738
L2858452 1343500
L2860309 1342880
L2861547 1342880
L2863404 1343500
L2864023 1344119
" />
</g><text x="2860000.000000" y="856500.000000"
textLength="14950.000000" font-size="17333.330000" lengthAdjust="spacingAndGlyphs"
text-anchor="middle" opacity="0">B</text>
<g class="stroked-text"><desc>B</desc>
<path d="M2860928 849071
L2862785 849690
L2863404 850309
L2864023 851547
L2864023 853404
L2863404 854642
L2862785 855261
L2861547 855880
L2856595 855880
L2856595 842880
L2860928 842880
L2862166 843500
L2862785 844119
L2863404 845357
L2863404 846595
L2862785 847833
L2862166 848452
L2860928 849071
L2856595 849071
" />
</g><text x="2860000.000000" y="356500.000000"
textLength="13092.860000" font-size="17333.330000" lengthAdjust="spacingAndGlyphs"
text-anchor="middle" opacity="0">A</text>
<g class="stroked-text"><desc>A</desc>
<path d="M2856904 352166
L2863095 352166
" />
<path d="M2855666 355880
L2860000 342880
L2864333 355880
" />
</g><path d="M2870000 1600000
L2850000 1600000
" />
<path d="M2870000 1100000
L2850000 1100000
" />
<path d="M2870000 600000
L2850000 600000
" />
<text x="110000.000000" y="1856500.000000"
textLength="14950.000000" font-size="17333.330000" lengthAdjust="spacingAndGlyphs"
text-anchor="middle" opacity="0">D</text>
<g class="stroked-text"><desc>D</desc>
<path d="M106595 1855880
L106595 1842880
L109690 1842880
L111547 1843500
L112785 1844738
L113404 1845976
L114023 1848452
L114023 1850309
L113404 1852785
L112785 1854023
L111547 1855261
L109690 1855880
L106595 1855880
" />
</g><text x="110000.000000" y="1356500.000000"
textLength="14950.000000" font-size="17333.330000" lengthAdjust="spacingAndGlyphs"
text-anchor="middle" opacity="0">C</text>
<g class="stroked-text"><desc>C</desc>
<path d="M114023 1354642
L113404 1355261
L111547 1355880
L110309 1355880
L108452 1355261
L107214 1354023
L106595 1352785
L105976 1350309
L105976 1348452
L106595 1345976
L107214 1344738
L108452 1343500
L110309 1342880
L111547 1342880
L113404 1343500
L114023 1344119
" />
</g><text x="110000.000000" y="856500.000000"
textLength="14950.000000" font-size="17333.330000" lengthAdjust="spacingAndGlyphs"
text-anchor="middle" opacity="0">B</text>
<g class="stroked-text"><desc>B</desc>
<path d="M110928 849071
L112785 849690
L113404 850309
L114023 851547
L114023 853404
L113404 854642
L112785 855261
L111547 855880
L106595 855880
L106595 842880
L110928 842880
L112166 843500
L112785 844119
L113404 845357
L113404 846595
L112785 847833
L112166 848452
L110928 849071
L106595 849071
" />
</g><text x="110000.000000" y="356500.000000"
textLength="13092.860000" font-size="17333.330000" lengthAdjust="spacingAndGlyphs"
text-anchor="middle" opacity="0">A</text>
<g class="stroked-text"><desc>A</desc>
<path d="M106904 352166
L113095 352166
" />
<path d="M105666 355880
L110000 342880
L114333 355880
" />
</g><path d="M100000 1600000
L120000 1600000
" />
<path d="M100000 1100000
L120000 1100000
" />
<path d="M100000 600000
L120000 600000
" />
<text x="2850000.000000" y="1996500.000000"
textLength="14330.950000" font-size="17333.330000" lengthAdjust="spacingAndGlyphs"
text-anchor="start" opacity="0">6</text>
<g class="stroked-text"><desc>6</desc>
<path d="M2859641 1982880
L2857165 1982880
L2855927 1983500
L2855308 1984119
L2854070 1985976
L2853451 1988452
L2853451 1993404
L2854070 1994642
L2854689 1995261
L2855927 1995880
L2858403 1995880
L2859641 1995261
L2860260 1994642
L2860879 1993404
L2860879 1990309
L2860260 1989071
L2859641 1988452
L2858403 1987833
L2855927 1987833
L2854689 1988452
L2854070 1989071
L2853451 1990309
" />
</g><text x="2350000.000000" y="1996500.000000"
textLength="14330.950000" font-size="17333.330000" lengthAdjust="spacingAndGlyphs"
text-anchor="start" opacity="0">5</text>
<g class="stroked-text"><desc>5</desc>
<path d="M2360260 1982880
L2354070 1982880
L2353451 1989071
L2354070 1988452
L2355308 1987833
L2358403 1987833
L2359641 1988452
L2360260 1989071
L2360879 1990309
L2360879 1993404
L2360260 1994642
L2359641 1995261
L2358403 1995880
L2355308 1995880
L2354070 1995261
L2353451 1994642
" />
</g><text x="1850000.000000" y="1996500.000000"
textLength="14330.950000" font-size="17333.330000" lengthAdjust="spacingAndGlyphs"
text-anchor="start" opacity="0">4</text>
<g class="stroked-text"><desc>4</desc>
<path d="M1859641 1987214
L1859641 1995880
" />
<path d="M1856546 1982261
L1853451 1991547
L1861498 1991547
" />
</g><text x="1350000.000000" y="1996500.000000"
textLength="14330.950000" font-size="17333.330000" lengthAdjust="spacingAndGlyphs"
text-anchor="start" opacity="0">3</text>
<g class="stroked-text"><desc>3</desc>
<path d="M1352832 1982880
L1360879 1982880
L1356546 1987833
L1358403 1987833
L1359641 1988452
L1360260 1989071
L1360879 1990309
L1360879 1993404
L1360260 1994642
L1359641 1995261
L1358403 1995880
L1354689 1995880
L1353451 1995261
L1352832 1994642
" />
</g><text x="850000.000000" y="1996500.000000"
textLength="14330.950000" font-size="17333.330000" lengthAdjust="spacingAndGlyphs"
text-anchor="start" opacity="0">2</text>
<g class="stroked-text"><desc>2</desc>
<path d="M853451 1984119
L854070 1983500
L855308 1982880
L858403 1982880
L859641 1983500
L860260 1984119
L860879 1985357
L860879 1986595
L860260 1988452
L852832 1995880
L860879 1995880
" />
</g><text x="350000.000000" y="1996500.000000"
textLength="14330.950000" font-size="17333.330000" lengthAdjust="spacingAndGlyphs"
text-anchor="start" opacity="0">1</text>
<g class="stroked-text"><desc>1</desc>
<path d="M360879 1995880
L353451 1995880
" />
<path d="M357165 1995880
L357165 1982880
L355927 1984738
L354689 1985976
L353451 1986595
" />
</g><path d="M2600000 1980000
L2600000 2000000
" />
<path d="M2100000 1980000
L2100000 2000000
" />
<path d="M1600000 1980000
L1600000 2000000
" />
<path d="M1100000 1980000
L1100000 2000000
" />
<path d="M600000 1980000
L600000 2000000
" />
<text x="2850000.000000" y="116500.000000"
textLength="14330.950000" font-size="17333.330000" lengthAdjust="spacingAndGlyphs"
text-anchor="start" opacity="0">6</text>
<g class="stroked-text"><desc>6</desc>
<path d="M2859641 102880
L2857165 102880
L2855927 103500
L2855308 104119
L2854070 105976
L2853451 108452
L2853451 113404
L2854070 114642
L2854689 115261
L2855927 115880
L2858403 115880
L2859641 115261
L2860260 114642
L2860879 113404
L2860879 110309
L2860260 109071
L2859641 108452
L2858403 107833
L2855927 107833
L2854689 108452
L2854070 109071
L2853451 110309
" />
</g><text x="2350000.000000" y="116500.000000"
textLength="14330.950000" font-size="17333.330000" lengthAdjust="spacingAndGlyphs"
text-anchor="start" opacity="0">5</text>
<g class="stroked-text"><desc>5</desc>
<path d="M2360260 102880
L2354070 102880
L2353451 109071
L2354070 108452
L2355308 107833
L2358403 107833
L2359641 108452
L2360260 109071
L2360879 110309
L2360879 113404
L2360260 114642
L2359641 115261
L2358403 115880
L2355308 115880
L2354070 115261
L2353451 114642
" />
</g><text x="1850000.000000" y="116500.000000"
textLength="14330.950000" font-size="17333.330000" lengthAdjust="spacingAndGlyphs"
text-anchor="start" opacity="0">4</text>
<g class="stroked-text"><desc>4</desc>
<path d="M1859641 107214
L1859641 115880
" />
<path d="M1856546 102261
L1853451 111547
L1861498 111547
" />
</g><text x="1350000.000000" y="116500.000000"
textLength="14330.950000" font-size="17333.330000" lengthAdjust="spacingAndGlyphs"
text-anchor="start" opacity="0">3</text>
<g class="stroked-text"><desc>3</desc>
<path d="M1352832 102880
L1360879 102880
L1356546 107833
L1358403 107833
L1359641 108452
L1360260 109071
L1360879 110309
L1360879 113404
L1360260 114642
L1359641 115261
L1358403 115880
L1354689 115880
L1353451 115261
L1352832 114642
" />
</g><text x="850000.000000" y="116500.000000"
textLength="14330.950000" font-size="17333.330000" lengthAdjust="spacingAndGlyphs"
text-anchor="start" opacity="0">2</text>
<g class="stroked-text"><desc>2</desc>
<path d="M853451 104119
L854070 103500
L855308 102880
L858403 102880
L859641 103500
L860260 104119
L860879 105357
L860879 106595
L860260 108452
L852832 115880
L860879 115880
" />
</g><text x="350000.000000" y="116500.000000"
textLength="14330.950000" font-size="17333.330000" lengthAdjust="spacingAndGlyphs"
text-anchor="start" opacity="0">1</text>
<g class="stroked-text"><desc>1</desc>
<path d="M360879 115880
L353451 115880
" />
<path d="M357165 115880
L357165 102880
L355927 104738
L354689 105976
L353451 106595
" />
</g><path d="M2600000 120000
L2600000 100000
" />
<path d="M2100000 120000
L2100000 100000
" />
<path d="M1600000 120000
L1600000 100000
" />
<path d="M1100000 120000
L1100000 100000
" />
<path d="M600000 120000
L600000 100000
" />
<path d="M120000 120000
L2850000 120000
" />
<path d="M2850000 120000
L2850000 1980000
" />
<path d="M2850000 1980000
L120000 1980000
" />
<path d="M120000 1980000
L120000 120000
" />
<path d="M100000 100000
L2870000 100000
" />
<path d="M2870000 100000
L2870000 2000000
" />
<path d="M2870000 2000000
L100000 2000000
" />
<path d="M100000 2000000
L100000 100000
" />
<path d="M1770000 1660000
L2850000 1660000
" />
<path d="M2850000 1660000
L2850000 1980000
" />
<path d="M2850000 1980000
L1770000 1980000
" />
<path d="M1770000 1980000
L1770000 1660000
" />
<g >
</g>
<g >
</g>
<g >
</g>
<g >
</g>
<g >
</g>
<g >
</g>
<g >
</g>
<g >
</g>
<g >
</g>
<g >
</g>
<g >
</g>
<g >
</g>
<g >
</g>
<g >
</g>
<g >
</g>
<g >
</g>
<g >
</g>
<g >
</g>
<g >
</g>
<g >
</g>
<g >
</g>
<g >
</g>
<g >
</g>
<g >
</g>
<g >
</g>
<g >
</g>
<g >
</g>
<g >
</g>
<g >
</g>
<g >
</g>
<g >
</g>
<g >
</g>
<g >
</g>
<g >
</g>
<g >
</g>
<g >
</g>
<g >
</g>
<g >
</g>
<g >
</g>
<g >
</g>
<g >
</g>
<g >
</g>
<g >
</g>
<g >
</g>
<g >
</g>
<g >
</g>
<g >
</g>
<g >
</g>
<g >
</g>
<g >
</g>
</g> 
</svg>
