<?xml version='1.0' encoding='ASCII' standalone='yes'?>
<svg xmlns:svg="http://www.w3.org/2000/svg" xmlns="http://www.w3.org/2000/svg" xmlns:xlink="http://www.w3.org/1999/xlink" version="1.1" width="29.700220cm" height="21.000720cm" viewBox="0 0 2970022 2100072">
<title>SVG Picture created as t1-B_Fab.svg date 2023/06/13 14:15:06 </title>
  <desc>Picture generated by PCBNEW </desc>
<g style="fill:#000084; fill-opacity:1.000000;stroke:#000084; stroke-opacity:1.000000; stroke-linecap:round; stroke-linejoin:round;" transform="translate(0 0) scale(1 1)">
</g>
<g style="fill:#000084; fill-opacity:0.0;  stroke:#000084; stroke-width:0.000000; stroke-opacity:1;  stroke-linecap:round; stroke-linejoin:round;">
</g>
<g style="fill:#000084; fill-opacity:0.01;  stroke:#000084; stroke-width:1500.000000; stroke-opacity:1;  stroke-linecap:round; stroke-linejoin:round;">
<text x="1311656.000000" y="788336.000000" transform="scale(-1 1) translate(-2623312.000000 0)" textLength="66621.430000" font-size="13333.330000" lengthAdjust="spacingAndGlyphs" text-anchor="middle" opacity="0.01" style="font-family:monospace">TestPoint</text>
<g class="stroked-text"><desc>TestPoint</desc>
<path d="M1278322 777859 L1284036 777859 "/>
<path d="M1281179 787859 L1281179 777859 "/>
<path d="M1291179 787383 L1290227 787859 L1288322 787859 L1287370 787383 L1286894 786431 L1286894 782621 L1287370 781669 L1288322 781193 L1290227 781193 L1291179 781669 L1291656 782621 L1291656 783574 L1286894 784526 "/>
<path d="M1295465 787383 L1296417 787859 L1298322 787859 L1299275 787383 L1299751 786431 L1299751 785955 L1299275 785002 L1298322 784526 L1296894 784526 L1295941 784050 L1295465 783097 L1295465 782621 L1295941 781669 L1296894 781193 L1298322 781193 L1299275 781669 "/>
<path d="M1302608 781193 L1306417 781193 "/>
<path d="M1304036 777859 L1304036 786431 L1304513 787383 L1305465 787859 L1306417 787859 "/>
<path d="M1309751 787859 L1309751 777859 L1313560 777859 L1314513 778336 L1314989 778812 L1315465 779764 L1315465 781193 L1314989 782145 L1314513 782621 L1313560 783097 L1309751 783097 "/>
<path d="M1321179 787859 L1320227 787383 L1319751 786907 L1319275 785955 L1319275 783097 L1319751 782145 L1320227 781669 L1321179 781193 L1322608 781193 L1323560 781669 L1324036 782145 L1324513 783097 L1324513 785955 L1324036 786907 L1323560 787383 L1322608 787859 L1321179 787859 "/>
<path d="M1328798 787859 L1328798 781193 "/>
<path d="M1328798 777859 L1328322 778336 L1328798 778812 L1329275 778336 L1328798 777859 L1328798 778812 "/>
<path d="M1333560 781193 L1333560 787859 "/>
<path d="M1333560 782145 L1334036 781669 L1334989 781193 L1336417 781193 L1337370 781669 L1337846 782621 L1337846 787859 "/>
<path d="M1341179 781193 L1344989 781193 "/>
<path d="M1342608 777859 L1342608 786431 L1343084 787383 L1344036 787859 L1344989 787859 "/>
</g><text x="1292098.000000" y="821124.000000" transform="scale(-1 1) translate(-2584196.000000 0)" textLength="25192.860000" font-size="13333.330000" lengthAdjust="spacingAndGlyphs" text-anchor="middle" opacity="0.01" style="font-family:monospace">TP2</text>
<g class="stroked-text"><desc>TP2</desc>
<path d="M1279478 810647 L1285193 810647 "/>
<path d="M1282336 820647 L1282336 810647 "/>
<path d="M1288526 820647 L1288526 810647 L1292336 810647 L1293288 811124 L1293764 811600 L1294240 812552 L1294240 813981 L1293764 814933 L1293288 815409 L1292336 815885 L1288526 815885 "/>
<path d="M1298050 811600 L1298526 811124 L1299478 810647 L1301859 810647 L1302812 811124 L1303288 811600 L1303764 812552 L1303764 813504 L1303288 814933 L1297574 820647 L1303764 820647 "/>
</g><text x="1249172.000000" y="772080.000000" transform="scale(-1 1) translate(-2498344.000000 0)" textLength="66621.430000" font-size="13333.330000" lengthAdjust="spacingAndGlyphs" text-anchor="middle" opacity="0.01" style="font-family:monospace">TestPoint</text>
<g class="stroked-text"><desc>TestPoint</desc>
<path d="M1215838 761603 L1221552 761603 "/>
<path d="M1218695 771603 L1218695 761603 "/>
<path d="M1228695 771127 L1227743 771603 L1225838 771603 L1224886 771127 L1224410 770175 L1224410 766365 L1224886 765413 L1225838 764937 L1227743 764937 L1228695 765413 L1229172 766365 L1229172 767318 L1224410 768270 "/>
<path d="M1232981 771127 L1233933 771603 L1235838 771603 L1236791 771127 L1237267 770175 L1237267 769699 L1236791 768746 L1235838 768270 L1234410 768270 L1233457 767794 L1232981 766841 L1232981 766365 L1233457 765413 L1234410 764937 L1235838 764937 L1236791 765413 "/>
<path d="M1240124 764937 L1243933 764937 "/>
<path d="M1241552 761603 L1241552 770175 L1242029 771127 L1242981 771603 L1243933 771603 "/>
<path d="M1247267 771603 L1247267 761603 L1251076 761603 L1252029 762080 L1252505 762556 L1252981 763508 L1252981 764937 L1252505 765889 L1252029 766365 L1251076 766841 L1247267 766841 "/>
<path d="M1258695 771603 L1257743 771127 L1257267 770651 L1256791 769699 L1256791 766841 L1257267 765889 L1257743 765413 L1258695 764937 L1260124 764937 L1261076 765413 L1261552 765889 L1262029 766841 L1262029 769699 L1261552 770651 L1261076 771127 L1260124 771603 L1258695 771603 "/>
<path d="M1266314 771603 L1266314 764937 "/>
<path d="M1266314 761603 L1265838 762080 L1266314 762556 L1266791 762080 L1266314 761603 L1266314 762556 "/>
<path d="M1271076 764937 L1271076 771603 "/>
<path d="M1271076 765889 L1271552 765413 L1272505 764937 L1273933 764937 L1274886 765413 L1275362 766365 L1275362 771603 "/>
<path d="M1278695 764937 L1282505 764937 "/>
<path d="M1280124 761603 L1280124 770175 L1280600 771127 L1281552 771603 L1282505 771603 "/>
</g><text x="1254760.000000" y="804846.000000" transform="scale(-1 1) translate(-2509520.000000 0)" textLength="25192.860000" font-size="13333.330000" lengthAdjust="spacingAndGlyphs" text-anchor="middle" opacity="0.01" style="font-family:monospace">TP3</text>
<g class="stroked-text"><desc>TP3</desc>
<path d="M1242140 794369 L1247855 794369 "/>
<path d="M1244998 804369 L1244998 794369 "/>
<path d="M1251188 804369 L1251188 794369 L1254998 794369 L1255950 794846 L1256426 795322 L1256902 796274 L1256902 797703 L1256426 798655 L1255950 799131 L1254998 799607 L1251188 799607 "/>
<path d="M1260236 794369 L1266426 794369 L1263093 798179 L1264521 798179 L1265474 798655 L1265950 799131 L1266426 800084 L1266426 802465 L1265950 803417 L1265474 803893 L1264521 804369 L1261664 804369 L1260712 803893 L1260236 803417 "/>
</g><text x="1130046.000000" y="811450.000000" transform="scale(-1 1) translate(-2260092.000000 0)" textLength="66621.430000" font-size="13333.330000" lengthAdjust="spacingAndGlyphs" text-anchor="middle" opacity="0.01" style="font-family:monospace">TestPoint</text>
<g class="stroked-text"><desc>TestPoint</desc>
<path d="M1096712 800973 L1102426 800973 "/>
<path d="M1099569 810973 L1099569 800973 "/>
<path d="M1109569 810497 L1108617 810973 L1106712 810973 L1105760 810497 L1105284 809545 L1105284 805735 L1105760 804783 L1106712 804307 L1108617 804307 L1109569 804783 L1110046 805735 L1110046 806688 L1105284 807640 "/>
<path d="M1113855 810497 L1114807 810973 L1116712 810973 L1117665 810497 L1118141 809545 L1118141 809069 L1117665 808116 L1116712 807640 L1115284 807640 L1114331 807164 L1113855 806211 L1113855 805735 L1114331 804783 L1115284 804307 L1116712 804307 L1117665 804783 "/>
<path d="M1120998 804307 L1124807 804307 "/>
<path d="M1122426 800973 L1122426 809545 L1122903 810497 L1123855 810973 L1124807 810973 "/>
<path d="M1128141 810973 L1128141 800973 L1131950 800973 L1132903 801450 L1133379 801926 L1133855 802878 L1133855 804307 L1133379 805259 L1132903 805735 L1131950 806211 L1128141 806211 "/>
<path d="M1139569 810973 L1138617 810497 L1138141 810021 L1137665 809069 L1137665 806211 L1138141 805259 L1138617 804783 L1139569 804307 L1140998 804307 L1141950 804783 L1142426 805259 L1142903 806211 L1142903 809069 L1142426 810021 L1141950 810497 L1140998 810973 L1139569 810973 "/>
<path d="M1147188 810973 L1147188 804307 "/>
<path d="M1147188 800973 L1146712 801450 L1147188 801926 L1147665 801450 L1147188 800973 L1147188 801926 "/>
<path d="M1151950 804307 L1151950 810973 "/>
<path d="M1151950 805259 L1152426 804783 L1153379 804307 L1154807 804307 L1155760 804783 L1156236 805735 L1156236 810973 "/>
<path d="M1159569 804307 L1163379 804307 "/>
<path d="M1160998 800973 L1160998 809545 L1161474 810497 L1162426 810973 L1163379 810973 "/>
</g><text x="1180338.000000" y="830754.000000" transform="scale(-1 1) translate(-2360676.000000 0)" textLength="25192.860000" font-size="13333.330000" lengthAdjust="spacingAndGlyphs" text-anchor="middle" opacity="0.01" style="font-family:monospace">TP4</text>
<g class="stroked-text"><desc>TP4</desc>
<path d="M1167718 820277 L1173433 820277 "/>
<path d="M1170576 830277 L1170576 820277 "/>
<path d="M1176766 830277 L1176766 820277 L1180576 820277 L1181528 820754 L1182004 821230 L1182480 822182 L1182480 823611 L1182004 824563 L1181528 825039 L1180576 825515 L1176766 825515 "/>
<path d="M1191052 823611 L1191052 830277 "/>
<path d="M1188671 819801 L1186290 826944 L1192480 826944 "/>
</g><text x="1131824.000000" y="845740.000000" transform="scale(-1 1) translate(-2263648.000000 0)" textLength="66621.430000" font-size="13333.330000" lengthAdjust="spacingAndGlyphs" text-anchor="middle" opacity="0.01" style="font-family:monospace">TestPoint</text>
<g class="stroked-text"><desc>TestPoint</desc>
<path d="M1098490 835263 L1104204 835263 "/>
<path d="M1101347 845263 L1101347 835263 "/>
<path d="M1111347 844787 L1110395 845263 L1108490 845263 L1107538 844787 L1107062 843835 L1107062 840025 L1107538 839073 L1108490 838597 L1110395 838597 L1111347 839073 L1111824 840025 L1111824 840978 L1107062 841930 "/>
<path d="M1115633 844787 L1116585 845263 L1118490 845263 L1119443 844787 L1119919 843835 L1119919 843359 L1119443 842406 L1118490 841930 L1117062 841930 L1116109 841454 L1115633 840501 L1115633 840025 L1116109 839073 L1117062 838597 L1118490 838597 L1119443 839073 "/>
<path d="M1122776 838597 L1126585 838597 "/>
<path d="M1124204 835263 L1124204 843835 L1124681 844787 L1125633 845263 L1126585 845263 "/>
<path d="M1129919 845263 L1129919 835263 L1133728 835263 L1134681 835740 L1135157 836216 L1135633 837168 L1135633 838597 L1135157 839549 L1134681 840025 L1133728 840501 L1129919 840501 "/>
<path d="M1141347 845263 L1140395 844787 L1139919 844311 L1139443 843359 L1139443 840501 L1139919 839549 L1140395 839073 L1141347 838597 L1142776 838597 L1143728 839073 L1144204 839549 L1144681 840501 L1144681 843359 L1144204 844311 L1143728 844787 L1142776 845263 L1141347 845263 "/>
<path d="M1148966 845263 L1148966 838597 "/>
<path d="M1148966 835263 L1148490 835740 L1148966 836216 L1149443 835740 L1148966 835263 L1148966 836216 "/>
<path d="M1153728 838597 L1153728 845263 "/>
<path d="M1153728 839549 L1154204 839073 L1155157 838597 L1156585 838597 L1157538 839073 L1158014 840025 L1158014 845263 "/>
<path d="M1161347 838597 L1165157 838597 "/>
<path d="M1162776 835263 L1162776 843835 L1163252 844787 L1164204 845263 L1165157 845263 "/>
</g><text x="1179576.000000" y="863520.000000" transform="scale(-1 1) translate(-2359152.000000 0)" textLength="25192.860000" font-size="13333.330000" lengthAdjust="spacingAndGlyphs" text-anchor="middle" opacity="0.01" style="font-family:monospace">TP5</text>
<g class="stroked-text"><desc>TP5</desc>
<path d="M1166956 853043 L1172671 853043 "/>
<path d="M1169814 863043 L1169814 853043 "/>
<path d="M1176004 863043 L1176004 853043 L1179814 853043 L1180766 853520 L1181242 853996 L1181718 854948 L1181718 856377 L1181242 857329 L1180766 857805 L1179814 858281 L1176004 858281 "/>
<path d="M1190766 853043 L1186004 853043 L1185528 857805 L1186004 857329 L1186956 856853 L1189337 856853 L1190290 857329 L1190766 857805 L1191242 858758 L1191242 861139 L1190766 862091 L1190290 862567 L1189337 863043 L1186956 863043 L1186004 862567 L1185528 862091 "/>
</g><text x="1322832.000000" y="686482.000000" transform="scale(-1 1) translate(-2645664.000000 0)" textLength="66621.430000" font-size="13333.330000" lengthAdjust="spacingAndGlyphs" text-anchor="middle" opacity="0.01" style="font-family:monospace">TestPoint</text>
<g class="stroked-text"><desc>TestPoint</desc>
<path d="M1289498 676005 L1295212 676005 "/>
<path d="M1292355 686005 L1292355 676005 "/>
<path d="M1302355 685529 L1301403 686005 L1299498 686005 L1298546 685529 L1298070 684577 L1298070 680767 L1298546 679815 L1299498 679339 L1301403 679339 L1302355 679815 L1302832 680767 L1302832 681720 L1298070 682672 "/>
<path d="M1306641 685529 L1307593 686005 L1309498 686005 L1310451 685529 L1310927 684577 L1310927 684101 L1310451 683148 L1309498 682672 L1308070 682672 L1307117 682196 L1306641 681243 L1306641 680767 L1307117 679815 L1308070 679339 L1309498 679339 L1310451 679815 "/>
<path d="M1313784 679339 L1317593 679339 "/>
<path d="M1315212 676005 L1315212 684577 L1315689 685529 L1316641 686005 L1317593 686005 "/>
<path d="M1320927 686005 L1320927 676005 L1324736 676005 L1325689 676482 L1326165 676958 L1326641 677910 L1326641 679339 L1326165 680291 L1325689 680767 L1324736 681243 L1320927 681243 "/>
<path d="M1332355 686005 L1331403 685529 L1330927 685053 L1330451 684101 L1330451 681243 L1330927 680291 L1331403 679815 L1332355 679339 L1333784 679339 L1334736 679815 L1335212 680291 L1335689 681243 L1335689 684101 L1335212 685053 L1334736 685529 L1333784 686005 L1332355 686005 "/>
<path d="M1339974 686005 L1339974 679339 "/>
<path d="M1339974 676005 L1339498 676482 L1339974 676958 L1340451 676482 L1339974 676005 L1339974 676958 "/>
<path d="M1344736 679339 L1344736 686005 "/>
<path d="M1344736 680291 L1345212 679815 L1346165 679339 L1347593 679339 L1348546 679815 L1349022 680767 L1349022 686005 "/>
<path d="M1352355 679339 L1356165 679339 "/>
<path d="M1353784 676005 L1353784 684577 L1354260 685529 L1355212 686005 L1356165 686005 "/>
</g><text x="1328928.000000" y="724074.000000" transform="scale(-1 1) translate(-2657856.000000 0)" textLength="25192.860000" font-size="13333.330000" lengthAdjust="spacingAndGlyphs" text-anchor="middle" opacity="0.01" style="font-family:monospace">TP6</text>
<g class="stroked-text"><desc>TP6</desc>
<path d="M1316308 713597 L1322023 713597 "/>
<path d="M1319166 723597 L1319166 713597 "/>
<path d="M1325356 723597 L1325356 713597 L1329166 713597 L1330118 714074 L1330594 714550 L1331070 715502 L1331070 716931 L1330594 717883 L1330118 718359 L1329166 718835 L1325356 718835 "/>
<path d="M1339642 713597 L1337737 713597 L1336785 714074 L1336308 714550 L1335356 715978 L1334880 717883 L1334880 721693 L1335356 722645 L1335832 723121 L1336785 723597 L1338689 723597 L1339642 723121 L1340118 722645 L1340594 721693 L1340594 719312 L1340118 718359 L1339642 717883 L1338689 717407 L1336785 717407 L1335832 717883 L1335356 718359 L1334880 719312 "/>
</g><text x="1442212.000000" y="687244.000000" transform="scale(-1 1) translate(-2884424.000000 0)" textLength="66621.430000" font-size="13333.330000" lengthAdjust="spacingAndGlyphs" text-anchor="middle" opacity="0.01" style="font-family:monospace">TestPoint</text>
<g class="stroked-text"><desc>TestPoint</desc>
<path d="M1408878 676767 L1414592 676767 "/>
<path d="M1411735 686767 L1411735 676767 "/>
<path d="M1421735 686291 L1420783 686767 L1418878 686767 L1417926 686291 L1417450 685339 L1417450 681529 L1417926 680577 L1418878 680101 L1420783 680101 L1421735 680577 L1422212 681529 L1422212 682482 L1417450 683434 "/>
<path d="M1426021 686291 L1426973 686767 L1428878 686767 L1429831 686291 L1430307 685339 L1430307 684863 L1429831 683910 L1428878 683434 L1427450 683434 L1426497 682958 L1426021 682005 L1426021 681529 L1426497 680577 L1427450 680101 L1428878 680101 L1429831 680577 "/>
<path d="M1433164 680101 L1436973 680101 "/>
<path d="M1434592 676767 L1434592 685339 L1435069 686291 L1436021 686767 L1436973 686767 "/>
<path d="M1440307 686767 L1440307 676767 L1444116 676767 L1445069 677244 L1445545 677720 L1446021 678672 L1446021 680101 L1445545 681053 L1445069 681529 L1444116 682005 L1440307 682005 "/>
<path d="M1451735 686767 L1450783 686291 L1450307 685815 L1449831 684863 L1449831 682005 L1450307 681053 L1450783 680577 L1451735 680101 L1453164 680101 L1454116 680577 L1454592 681053 L1455069 682005 L1455069 684863 L1454592 685815 L1454116 686291 L1453164 686767 L1451735 686767 "/>
<path d="M1459354 686767 L1459354 680101 "/>
<path d="M1459354 676767 L1458878 677244 L1459354 677720 L1459831 677244 L1459354 676767 L1459354 677720 "/>
<path d="M1464116 680101 L1464116 686767 "/>
<path d="M1464116 681053 L1464592 680577 L1465545 680101 L1466973 680101 L1467926 680577 L1468402 681529 L1468402 686767 "/>
<path d="M1471735 680101 L1475545 680101 "/>
<path d="M1473164 676767 L1473164 685339 L1473640 686291 L1474592 686767 L1475545 686767 "/>
</g><text x="1435862.000000" y="724836.000000" transform="scale(-1 1) translate(-2871724.000000 0)" textLength="25192.860000" font-size="13333.330000" lengthAdjust="spacingAndGlyphs" text-anchor="middle" opacity="0.01" style="font-family:monospace">TP8</text>
<g class="stroked-text"><desc>TP8</desc>
<path d="M1423242 714359 L1428957 714359 "/>
<path d="M1426100 724359 L1426100 714359 "/>
<path d="M1432290 724359 L1432290 714359 L1436100 714359 L1437052 714836 L1437528 715312 L1438004 716264 L1438004 717693 L1437528 718645 L1437052 719121 L1436100 719597 L1432290 719597 "/>
<path d="M1443719 718645 L1442766 718169 L1442290 717693 L1441814 716740 L1441814 716264 L1442290 715312 L1442766 714836 L1443719 714359 L1445623 714359 L1446576 714836 L1447052 715312 L1447528 716264 L1447528 716740 L1447052 717693 L1446576 718169 L1445623 718645 L1443719 718645 L1442766 719121 L1442290 719597 L1441814 720550 L1441814 722455 L1442290 723407 L1442766 723883 L1443719 724359 L1445623 724359 L1446576 723883 L1447052 723407 L1447528 722455 L1447528 720550 L1447052 719597 L1446576 719121 L1445623 718645 "/>
</g><text x="1410716.000000" y="833040.000000" transform="scale(-1 1) translate(-2821432.000000 0)" textLength="66621.430000" font-size="13333.330000" lengthAdjust="spacingAndGlyphs" text-anchor="middle" opacity="0.01" style="font-family:monospace">TestPoint</text>
<g class="stroked-text"><desc>TestPoint</desc>
<path d="M1377382 822563 L1383096 822563 "/>
<path d="M1380239 832563 L1380239 822563 "/>
<path d="M1390239 832087 L1389287 832563 L1387382 832563 L1386430 832087 L1385954 831135 L1385954 827325 L1386430 826373 L1387382 825897 L1389287 825897 L1390239 826373 L1390716 827325 L1390716 828278 L1385954 829230 "/>
<path d="M1394525 832087 L1395477 832563 L1397382 832563 L1398335 832087 L1398811 831135 L1398811 830659 L1398335 829706 L1397382 829230 L1395954 829230 L1395001 828754 L1394525 827801 L1394525 827325 L1395001 826373 L1395954 825897 L1397382 825897 L1398335 826373 "/>
<path d="M1401668 825897 L1405477 825897 "/>
<path d="M1403096 822563 L1403096 831135 L1403573 832087 L1404525 832563 L1405477 832563 "/>
<path d="M1408811 832563 L1408811 822563 L1412620 822563 L1413573 823040 L1414049 823516 L1414525 824468 L1414525 825897 L1414049 826849 L1413573 827325 L1412620 827801 L1408811 827801 "/>
<path d="M1420239 832563 L1419287 832087 L1418811 831611 L1418335 830659 L1418335 827801 L1418811 826849 L1419287 826373 L1420239 825897 L1421668 825897 L1422620 826373 L1423096 826849 L1423573 827801 L1423573 830659 L1423096 831611 L1422620 832087 L1421668 832563 L1420239 832563 "/>
<path d="M1427858 832563 L1427858 825897 "/>
<path d="M1427858 822563 L1427382 823040 L1427858 823516 L1428335 823040 L1427858 822563 L1427858 823516 "/>
<path d="M1432620 825897 L1432620 832563 "/>
<path d="M1432620 826849 L1433096 826373 L1434049 825897 L1435477 825897 L1436430 826373 L1436906 827325 L1436906 832563 "/>
<path d="M1440239 825897 L1444049 825897 "/>
<path d="M1441668 822563 L1441668 831135 L1442144 832087 L1443096 832563 L1444049 832563 "/>
</g><text x="1411224.000000" y="869362.000000" transform="scale(-1 1) translate(-2822448.000000 0)" textLength="25192.860000" font-size="13333.330000" lengthAdjust="spacingAndGlyphs" text-anchor="middle" opacity="0.01" style="font-family:monospace">TP9</text>
<g class="stroked-text"><desc>TP9</desc>
<path d="M1398604 858885 L1404319 858885 "/>
<path d="M1401462 868885 L1401462 858885 "/>
<path d="M1407652 868885 L1407652 858885 L1411462 858885 L1412414 859362 L1412890 859838 L1413366 860790 L1413366 862219 L1412890 863171 L1412414 863647 L1411462 864123 L1407652 864123 "/>
<path d="M1418128 868885 L1420033 868885 L1420985 868409 L1421462 867933 L1422414 866504 L1422890 864600 L1422890 860790 L1422414 859838 L1421938 859362 L1420985 858885 L1419081 858885 L1418128 859362 L1417652 859838 L1417176 860790 L1417176 863171 L1417652 864123 L1418128 864600 L1419081 865076 L1420985 865076 L1421938 864600 L1422414 864123 L1422890 863171 "/>
</g><g>
</g>
<g>
</g>
<g>
</g>
<g>
</g>
<g>
</g>
<g>
</g>
<g>
</g>
<g>
</g>
<g>
</g>
<g>
</g>
<g>
</g>
<g>
</g>
<g>
</g>
<g>
</g>
<g>
</g>
<g>
</g>
<g>
</g>
<g>
</g>
<g>
</g>
<g>
</g>
<g>
</g>
<g>
</g>
<g>
</g>
<g>
</g>
<g>
</g>
<g>
</g>
<g>
</g>
<g>
</g>
<g>
</g>
<g>
</g>
<g>
</g>
<g>
</g>
<g>
</g>
<g>
</g>
<g>
</g>
<g>
</g>
<g>
</g>
<g>
</g>
<g>
</g>
<g>
</g>
<g>
</g>
<g>
</g>
<g>
</g>
<g>
</g>
<g>
</g>
<g>
</g>
<g>
</g>
<g>
</g>
<g>
</g>
<g>
</g>
</g> 
<svg:g><svg:g><svg:title>SVG Picture created as t1-Edge_Cuts.svg date 2023/06/13 14:15:06 </svg:title>
  <svg:desc>Picture generated by PCBNEW </svg:desc>
<svg:g style="fill:#C2C200; fill-opacity:1.000000;stroke:#C2C200; stroke-opacity:1.000000; stroke-linecap:round; stroke-linejoin:round;" transform="translate(0 0) scale(1 1)">
</svg:g>
<svg:g style="fill:#C2C200; fill-opacity:0.0;  stroke:#C2C200; stroke-width:0.000000; stroke-opacity:1;  stroke-linecap:round; stroke-linejoin:round;">
</svg:g>
<svg:g style="fill:#C2C200; fill-opacity:0.0;  stroke:#C2C200; stroke-width:500.000000; stroke-opacity:1;  stroke-linecap:round; stroke-linejoin:round;">
<svg:path d="M1780022 1013000 L1150022 1013000 "/>
<svg:path d="M1150022 1013000 L1150022 657000 "/>
<svg:path d="M1780022 657000 L1780022 1013000 "/>
<svg:path d="M1150022 657000 L1780022 657000 "/>
<svg:g>
</svg:g>
<svg:g>
</svg:g>
<svg:g>
</svg:g>
<svg:g>
</svg:g>
<svg:g>
</svg:g>
<svg:g>
</svg:g>
<svg:g>
</svg:g>
<svg:g>
</svg:g>
<svg:g>
</svg:g>
<svg:g>
</svg:g>
<svg:g>
</svg:g>
<svg:g>
</svg:g>
<svg:g>
</svg:g>
<svg:g>
</svg:g>
<svg:g>
</svg:g>
<svg:g>
</svg:g>
<svg:g>
</svg:g>
<svg:g>
</svg:g>
<svg:g>
</svg:g>
<svg:g>
</svg:g>
<svg:g>
</svg:g>
<svg:g>
</svg:g>
<svg:g>
</svg:g>
<svg:g>
</svg:g>
<svg:g>
</svg:g>
<svg:g>
</svg:g>
<svg:g>
</svg:g>
<svg:g>
</svg:g>
<svg:g>
</svg:g>
<svg:g>
</svg:g>
<svg:g>
</svg:g>
<svg:g>
</svg:g>
<svg:g>
</svg:g>
<svg:g>
</svg:g>
<svg:g>
</svg:g>
<svg:g>
</svg:g>
<svg:g>
</svg:g>
<svg:g>
</svg:g>
<svg:g>
</svg:g>
<svg:g>
</svg:g>
<svg:g>
</svg:g>
<svg:g>
</svg:g>
<svg:g>
</svg:g>
<svg:g>
</svg:g>
<svg:g>
</svg:g>
<svg:g>
</svg:g>
<svg:g>
</svg:g>
<svg:g>
</svg:g>
<svg:g>
</svg:g>
<svg:g>
</svg:g>
</svg:g> 
</svg:g></svg:g><svg:g><svg:g><svg:title>SVG Picture created as t1-User_Drawings.svg date 2023/06/13 14:15:06 </svg:title>
  <svg:desc>Picture generated by PCBNEW </svg:desc>
<svg:g style="fill:#C2C2C2; fill-opacity:1.000000;stroke:#C2C2C2; stroke-opacity:1.000000; stroke-linecap:round; stroke-linejoin:round;" transform="translate(0 0) scale(1 1)">
</svg:g>
<svg:g style="fill:#C2C2C2; fill-opacity:0.0;  stroke:#C2C2C2; stroke-width:0.000000; stroke-opacity:1;  stroke-linecap:round; stroke-linejoin:round;">
</svg:g>
<svg:g style="fill:#C2C2C2; fill-opacity:0.0;  stroke:#C2C2C2; stroke-width:1500.000000; stroke-opacity:1;  stroke-linecap:round; stroke-linejoin:round;">
<svg:g transform="rotate(89.998391 1799017.140000 834922.540000)">
<svg:text x="1799017.140000" y="839922.540000" textLength="98140.480000" font-size="13333.330000" lengthAdjust="spacingAndGlyphs" text-anchor="middle" opacity="0.01" style="font-family:monospace">35.6156 mm</svg:text>
</svg:g>
<svg:g class="stroked-text"><svg:desc>35.6156 mm</svg:desc>
<svg:path d="M1793542 788255 L1793542 794446 L1797351 791112 L1797351 792541 L1797827 793493 L1798304 793970 L1799256 794446 L1801637 794446 L1802589 793970 L1803065 793494 L1803542 792541 L1803542 789684 L1803066 788732 L1802589 788255 "/>
<svg:path d="M1793541 803493 L1793541 798731 L1798303 798255 L1797827 798732 L1797351 799684 L1797351 802065 L1797827 803017 L1798303 803493 L1799256 803970 L1801637 803970 L1802589 803494 L1803065 803017 L1803541 802065 L1803541 799684 L1803065 798732 L1802589 798255 "/>
<svg:path d="M1802589 808255 L1803065 808732 L1803541 808256 L1803065 807779 L1802589 808255 L1803541 808256 "/>
<svg:path d="M1793541 817303 L1793541 815398 L1794017 814446 L1794493 813970 L1795922 813017 L1797827 812541 L1801636 812541 L1802589 813017 L1803065 813494 L1803541 814446 L1803541 816351 L1803065 817303 L1802589 817779 L1801636 818255 L1799255 818255 L1798303 817779 L1797827 817303 L1797351 816351 L1797351 814446 L1797827 813493 L1798303 813017 L1799255 812541 "/>
<svg:path d="M1803541 827779 L1803541 822065 "/>
<svg:path d="M1803541 824922 L1793541 824922 L1794969 823970 L1795922 823017 L1796398 822065 "/>
<svg:path d="M1793540 836827 L1793541 832065 L1798302 831589 L1797826 832065 L1797350 833017 L1797350 835398 L1797826 836351 L1798302 836827 L1799255 837303 L1801636 837303 L1802588 836827 L1803064 836351 L1803540 835398 L1803541 833017 L1803064 832065 L1802588 831589 "/>
<svg:path d="M1793540 845874 L1793540 843970 L1794016 843017 L1794493 842541 L1795921 841589 L1797826 841112 L1801636 841113 L1802588 841589 L1803064 842065 L1803540 843017 L1803540 844922 L1803064 845875 L1802588 846351 L1801635 846827 L1799254 846827 L1798302 846351 L1797826 845874 L1797350 844922 L1797350 843017 L1797826 842065 L1798302 841589 L1799255 841113 "/>
<svg:path d="M1803540 858732 L1796873 858732 "/>
<svg:path d="M1797826 858732 L1797349 859208 L1796873 860160 L1796873 861589 L1797349 862541 L1798302 863017 L1803540 863017 "/>
<svg:path d="M1798302 863017 L1797349 863493 L1796873 864446 L1796873 865874 L1797349 866827 L1798301 867303 L1803540 867303 "/>
<svg:path d="M1803539 872065 L1796873 872065 "/>
<svg:path d="M1797825 872065 L1797349 872541 L1796873 873493 L1796873 874922 L1797349 875874 L1798301 876351 L1803539 876351 "/>
<svg:path d="M1798301 876351 L1797349 876827 L1796873 877779 L1796873 879208 L1797349 880160 L1798301 880636 L1803539 880636 "/>
</svg:g><svg:path d="M1780022 1013000 L1816376 1013001 "/>
<svg:path d="M1780032 656844 L1816386 656845 "/>
<svg:path d="M1810512 1013000 L1810522 656844 "/>
<svg:path d="M1810512 1013000 L1810522 656844 "/>
<svg:path d="M1810512 1013000 L1804648 1001735 "/>
<svg:path d="M1810512 1013000 L1816376 1001735 "/>
<svg:path d="M1810522 656844 L1816386 668110 "/>
<svg:path d="M1810522 656844 L1804657 668109 "/>
<svg:g transform="rotate(-359.985813 1465019.370000 626117.750000)">
<svg:text x="1465019.370000" y="631117.750000" textLength="98140.480000" font-size="13333.330000" lengthAdjust="spacingAndGlyphs" text-anchor="middle" opacity="0.01" style="font-family:monospace">63.0010 mm</svg:text>
</svg:g>
<svg:g class="stroked-text"><svg:desc>63.0010 mm</svg:desc>
<svg:path d="M1506446 620631 L1508351 620630 L1509303 621106 L1509780 621582 L1510732 623011 L1511209 624915 L1511210 628725 L1510734 629677 L1510258 630154 L1509306 630630 L1507401 630631 L1506448 630155 L1505972 629679 L1505496 628726 L1505495 626345 L1505971 625393 L1506447 624917 L1507399 624440 L1509304 624440 L1510257 624916 L1510733 625392 L1511209 626344 "/>
<svg:path d="M1502160 620632 L1495970 620633 L1499304 624442 L1497876 624442 L1496923 624919 L1496447 625395 L1495971 626348 L1495972 628729 L1496448 629681 L1496925 630157 L1497877 630633 L1500734 630632 L1501687 630156 L1502163 629679 "/>
<svg:path d="M1491686 629682 L1491210 630158 L1491687 630634 L1492163 630158 L1491686 629682 L1491687 630634 "/>
<svg:path d="M1485018 620636 L1484065 620636 L1483113 621113 L1482637 621589 L1482161 622542 L1481685 624446 L1481686 626827 L1482162 628732 L1482639 629684 L1483115 630160 L1484068 630636 L1485020 630636 L1485972 630160 L1486448 629683 L1486924 628731 L1487400 626826 L1487399 624445 L1486923 622540 L1486446 621588 L1485970 621112 L1485018 620636 "/>
<svg:path d="M1475494 620638 L1474541 620639 L1473589 621115 L1473113 621591 L1472637 622544 L1472161 624449 L1472162 626830 L1472639 628734 L1473115 629687 L1473591 630163 L1474544 630639 L1475496 630638 L1476448 630162 L1476925 629686 L1477400 628733 L1477876 626828 L1477876 624447 L1477399 622543 L1476923 621590 L1476446 621114 L1475494 620638 "/>
<svg:path d="M1462639 630642 L1468353 630640 "/>
<svg:path d="M1465496 630641 L1465494 620641 L1466446 622069 L1467399 623021 L1468352 623497 "/>
<svg:path d="M1456446 620643 L1455494 620643 L1454541 621120 L1454065 621596 L1453589 622549 L1453114 624454 L1453114 626834 L1453591 628739 L1454067 629691 L1454544 630167 L1455496 630643 L1456449 630643 L1457401 630167 L1457877 629690 L1458353 628738 L1458829 626833 L1458828 624452 L1458351 622547 L1457875 621595 L1457399 621119 L1456446 620643 "/>
<svg:path d="M1441210 630647 L1441209 623980 "/>
<svg:path d="M1441209 624933 L1440733 624457 L1439780 623981 L1438352 623981 L1437399 624457 L1436923 625410 L1436925 630648 "/>
<svg:path d="M1436923 625410 L1436447 624458 L1435495 623982 L1434066 623982 L1433114 624458 L1432638 625411 L1432639 630649 "/>
<svg:path d="M1427877 630650 L1427875 623984 "/>
<svg:path d="M1427876 624936 L1427399 624460 L1426447 623984 L1425018 623984 L1424066 624461 L1423590 625413 L1423591 630651 "/>
<svg:path d="M1423590 625413 L1423114 624461 L1422161 623985 L1420733 623985 L1419780 624462 L1419304 625414 L1419306 630652 "/>
</svg:g><svg:path d="M1780032 656844 L1780025 631675 "/>
<svg:path d="M1150022 657000 L1150015 631831 "/>
<svg:path d="M1780027 637539 L1150017 637695 "/>
<svg:path d="M1780027 637539 L1150017 637695 "/>
<svg:path d="M1780027 637539 L1768763 643406 "/>
<svg:path d="M1780027 637539 L1768760 631678 "/>
<svg:path d="M1150017 637695 L1161280 631828 "/>
<svg:path d="M1150017 637695 L1161283 643557 "/>
<svg:g>
</svg:g>
<svg:g>
</svg:g>
<svg:g>
</svg:g>
<svg:g>
</svg:g>
<svg:g>
</svg:g>
<svg:g>
</svg:g>
<svg:g>
</svg:g>
<svg:g>
</svg:g>
<svg:g>
</svg:g>
<svg:g>
</svg:g>
<svg:g>
</svg:g>
<svg:g>
</svg:g>
<svg:g>
</svg:g>
<svg:g>
</svg:g>
<svg:g>
</svg:g>
<svg:g>
</svg:g>
<svg:g>
</svg:g>
<svg:g>
</svg:g>
<svg:g>
</svg:g>
<svg:g>
</svg:g>
<svg:g>
</svg:g>
<svg:g>
</svg:g>
<svg:g>
</svg:g>
<svg:g>
</svg:g>
<svg:g>
</svg:g>
<svg:g>
</svg:g>
<svg:g>
</svg:g>
<svg:g>
</svg:g>
<svg:g>
</svg:g>
<svg:g>
</svg:g>
<svg:g>
</svg:g>
<svg:g>
</svg:g>
<svg:g>
</svg:g>
<svg:g>
</svg:g>
<svg:g>
</svg:g>
<svg:g>
</svg:g>
<svg:g>
</svg:g>
<svg:g>
</svg:g>
<svg:g>
</svg:g>
<svg:g>
</svg:g>
<svg:g>
</svg:g>
<svg:g>
</svg:g>
<svg:g>
</svg:g>
<svg:g>
</svg:g>
<svg:g>
</svg:g>
<svg:g>
</svg:g>
<svg:g>
</svg:g>
<svg:g>
</svg:g>
<svg:g>
</svg:g>
<svg:g>
</svg:g>
</svg:g> 
</svg:g></svg:g><svg:g><svg:g><svg:title>SVG Picture created as t1-User_Comments.svg date 2023/06/13 14:15:06 </svg:title>
  <svg:desc>Picture generated by PCBNEW </svg:desc>
<svg:g style="fill:#000084; fill-opacity:1.000000;stroke:#000084; stroke-opacity:1.000000; stroke-linecap:round; stroke-linejoin:round;" transform="translate(0 0) scale(1 1)">
</svg:g>
<svg:g style="fill:#000084; fill-opacity:0.0;  stroke:#000084; stroke-width:0.000000; stroke-opacity:1;  stroke-linecap:round; stroke-linejoin:round;">
</svg:g>
<svg:g style="fill:#000084; fill-opacity:0.0;  stroke:#000084; stroke-width:1500.000000; stroke-opacity:1;  stroke-linecap:round; stroke-linejoin:round;">
<svg:circle cx="1200022.000000" cy="970000.000000" r="27000.000000"/> 
<svg:circle cx="1740022.000000" cy="970000.000000" r="27000.000000"/> 
<svg:circle cx="1740022.000000" cy="695000.000000" r="27000.000000"/> 
<svg:circle cx="1200022.000000" cy="695000.000000" r="27000.000000"/> 
<svg:g>
</svg:g>
<svg:g>
</svg:g>
<svg:g>
</svg:g>
<svg:g>
</svg:g>
<svg:g>
</svg:g>
<svg:g>
</svg:g>
<svg:g>
</svg:g>
<svg:g>
</svg:g>
<svg:g>
</svg:g>
<svg:g>
</svg:g>
<svg:g>
</svg:g>
<svg:g>
</svg:g>
<svg:g>
</svg:g>
<svg:g>
</svg:g>
<svg:g>
</svg:g>
<svg:g>
</svg:g>
<svg:g>
</svg:g>
<svg:g>
</svg:g>
<svg:g>
</svg:g>
<svg:g>
</svg:g>
<svg:g>
</svg:g>
<svg:g>
</svg:g>
<svg:g>
</svg:g>
<svg:g>
</svg:g>
<svg:g>
</svg:g>
<svg:g>
</svg:g>
<svg:g>
</svg:g>
<svg:g>
</svg:g>
<svg:g>
</svg:g>
<svg:g>
</svg:g>
<svg:g>
</svg:g>
<svg:g>
</svg:g>
<svg:g>
</svg:g>
<svg:g>
</svg:g>
<svg:g>
</svg:g>
<svg:g>
</svg:g>
<svg:g>
</svg:g>
<svg:g>
</svg:g>
<svg:g>
</svg:g>
<svg:g>
</svg:g>
<svg:g>
</svg:g>
<svg:g>
</svg:g>
<svg:g>
</svg:g>
<svg:g>
</svg:g>
<svg:g>
</svg:g>
<svg:g>
</svg:g>
<svg:g>
</svg:g>
<svg:g>
</svg:g>
<svg:g>
</svg:g>
<svg:g>
</svg:g>
</svg:g> 
</svg:g></svg:g><svg:g><svg:g><svg:title>SVG Picture created as t1-frame.svg date 2023/06/13 14:15:06 </svg:title>
  <svg:desc>Picture generated by PCBNEW </svg:desc>
<svg:g style="fill:#480000; fill-opacity:1.000000;stroke:#480000; stroke-opacity:1.000000; stroke-linecap:round; stroke-linejoin:round;" transform="translate(0 0) scale(1 1)">
</svg:g>
<svg:g style="fill:#480000; fill-opacity:0.0;  stroke:#480000; stroke-width:0.000000; stroke-opacity:1;  stroke-linecap:round; stroke-linejoin:round;">
</svg:g>
<svg:g style="fill:#480000; fill-opacity:0.01;  stroke:#480000; stroke-width:1500.000000; stroke-opacity:1;  stroke-linecap:round; stroke-linejoin:round;">
<svg:path d="M2610000 1915000 L2610000 1980000 "/>
<svg:path d="M1970000 1915000 L1970000 1945000 "/>
<svg:text x="1780000.000000" y="1687500.000000" textLength="337664.290000" font-size="20000.000000" lengthAdjust="spacingAndGlyphs" text-anchor="start" opacity="0.01" style="font-family:monospace">An example of KiBot variants</svg:text>
<svg:g class="stroked-text"><svg:desc>An example of KiBot variants</svg:desc>
<svg:path d="M1783832 1682500 L1790975 1682500 "/>
<svg:path d="M1782403 1686785 L1787403 1671785 L1792403 1686785 "/>
<svg:path d="M1797403 1676785 L1797403 1686785 "/>
<svg:path d="M1797403 1678214 L1798117 1677500 L1799546 1676785 L1801689 1676785 L1803117 1677500 L1803832 1678928 L1803832 1686785 "/>
<svg:path d="M1828117 1686071 L1826689 1686785 L1823832 1686785 L1822403 1686071 L1821689 1684642 L1821689 1678928 L1822403 1677500 L1823832 1676785 L1826689 1676785 L1828117 1677500 L1828832 1678928 L1828832 1680357 L1821689 1681785 "/>
<svg:path d="M1833832 1686785 L1841689 1676785 "/>
<svg:path d="M1833832 1676785 L1841689 1686785 "/>
<svg:path d="M1853832 1686785 L1853832 1678928 L1853117 1677500 L1851689 1676785 L1848832 1676785 L1847403 1677500 "/>
<svg:path d="M1853832 1686071 L1852403 1686785 L1848832 1686785 L1847403 1686071 L1846689 1684642 L1846689 1683214 L1847403 1681785 L1848832 1681071 L1852403 1681071 L1853832 1680357 "/>
<svg:path d="M1860975 1686785 L1860975 1676785 "/>
<svg:path d="M1860975 1678214 L1861689 1677500 L1863117 1676785 L1865260 1676785 L1866689 1677500 L1867403 1678928 L1867403 1686785 "/>
<svg:path d="M1867403 1678928 L1868117 1677500 L1869546 1676785 L1871689 1676785 L1873117 1677500 L1873832 1678928 L1873832 1686785 "/>
<svg:path d="M1880975 1676785 L1880975 1691785 "/>
<svg:path d="M1880975 1677500 L1882403 1676785 L1885260 1676785 L1886689 1677500 L1887403 1678214 L1888117 1679642 L1888117 1683928 L1887403 1685357 L1886689 1686071 L1885260 1686785 L1882403 1686785 L1880975 1686071 "/>
<svg:path d="M1896689 1686785 L1895260 1686071 L1894546 1684642 L1894546 1671785 "/>
<svg:path d="M1908117 1686071 L1906689 1686785 L1903832 1686785 L1902403 1686071 L1901689 1684642 L1901689 1678928 L1902403 1677500 L1903832 1676785 L1906689 1676785 L1908117 1677500 L1908832 1678928 L1908832 1680357 L1901689 1681785 "/>
<svg:path d="M1928832 1686785 L1927403 1686071 L1926689 1685357 L1925975 1683928 L1925975 1679642 L1926689 1678214 L1927403 1677500 L1928832 1676785 L1930975 1676785 L1932403 1677500 L1933117 1678214 L1933832 1679642 L1933832 1683928 L1933117 1685357 L1932403 1686071 L1930975 1686785 L1928832 1686785 "/>
<svg:path d="M1938117 1676785 L1943832 1676785 "/>
<svg:path d="M1940260 1686785 L1940260 1673928 L1940975 1672500 L1942403 1671785 L1943832 1671785 "/>
<svg:path d="M1960260 1686785 L1960260 1671785 "/>
<svg:path d="M1968832 1686785 L1962403 1678214 "/>
<svg:path d="M1968832 1671785 L1960260 1680357 "/>
<svg:path d="M1975260 1686785 L1975260 1676785 "/>
<svg:path d="M1975260 1671785 L1974546 1672500 L1975260 1673214 L1975975 1672500 L1975260 1671785 L1975260 1673214 "/>
<svg:path d="M1987403 1678928 L1989546 1679642 L1990260 1680357 L1990975 1681785 L1990975 1683928 L1990260 1685357 L1989546 1686071 L1988117 1686785 L1982403 1686785 L1982403 1671785 L1987403 1671785 L1988832 1672500 L1989546 1673214 L1990260 1674642 L1990260 1676071 L1989546 1677500 L1988832 1678214 L1987403 1678928 L1982403 1678928 "/>
<svg:path d="M1999546 1686785 L1998117 1686071 L1997403 1685357 L1996689 1683928 L1996689 1679642 L1997403 1678214 L1998117 1677500 L1999546 1676785 L2001689 1676785 L2003117 1677500 L2003832 1678214 L2004546 1679642 L2004546 1683928 L2003832 1685357 L2003117 1686071 L2001689 1686785 L1999546 1686785 "/>
<svg:path d="M2008832 1676785 L2014546 1676785 "/>
<svg:path d="M2010975 1671785 L2010975 1684642 L2011689 1686071 L2013117 1686785 L2014546 1686785 "/>
<svg:path d="M2029546 1676785 L2033117 1686785 L2036689 1676785 "/>
<svg:path d="M2048832 1686785 L2048832 1678928 L2048117 1677500 L2046689 1676785 L2043832 1676785 L2042403 1677500 "/>
<svg:path d="M2048832 1686071 L2047403 1686785 L2043832 1686785 L2042403 1686071 L2041689 1684642 L2041689 1683214 L2042403 1681785 L2043832 1681071 L2047403 1681071 L2048832 1680357 "/>
<svg:path d="M2055975 1686785 L2055975 1676785 "/>
<svg:path d="M2055975 1679642 L2056689 1678214 L2057403 1677500 L2058832 1676785 L2060260 1676785 "/>
<svg:path d="M2065260 1686785 L2065260 1676785 "/>
<svg:path d="M2065260 1671785 L2064546 1672500 L2065260 1673214 L2065975 1672500 L2065260 1671785 L2065260 1673214 "/>
<svg:path d="M2078832 1686785 L2078832 1678928 L2078117 1677500 L2076689 1676785 L2073832 1676785 L2072403 1677500 "/>
<svg:path d="M2078832 1686071 L2077403 1686785 L2073832 1686785 L2072403 1686071 L2071689 1684642 L2071689 1683214 L2072403 1681785 L2073832 1681071 L2077403 1681071 L2078832 1680357 "/>
<svg:path d="M2085975 1676785 L2085975 1686785 "/>
<svg:path d="M2085975 1678214 L2086689 1677500 L2088117 1676785 L2090260 1676785 L2091689 1677500 L2092403 1678928 L2092403 1686785 "/>
<svg:path d="M2097403 1676785 L2103117 1676785 "/>
<svg:path d="M2099546 1671785 L2099546 1684642 L2100260 1686071 L2101689 1686785 L2103117 1686785 "/>
<svg:path d="M2107403 1686071 L2108832 1686785 L2111689 1686785 L2113117 1686071 L2113832 1684642 L2113832 1683928 L2113117 1682500 L2111689 1681785 L2109546 1681785 L2108117 1681071 L2107403 1679642 L2107403 1678928 L2108117 1677500 L2109546 1676785 L2111689 1676785 L2113117 1677500 "/>
</svg:g></svg:g>
<svg:g style="fill:#480000; fill-opacity:0.01;  stroke:#480000; stroke-width:3000.000000; stroke-opacity:1;  stroke-linecap:round; stroke-linejoin:round;">
<svg:text x="1780000.000000" y="1807500.000000" textLength="491235.710000" font-size="20000.000000" lengthAdjust="spacingAndGlyphs" text-anchor="start" opacity="0.01" style="font-family:monospace">Instituto Nacional de Tecnolog&#237;a Industrial</svg:text>
<svg:g class="stroked-text"><svg:desc>Instituto Nacional de Tecnolog&#237;a Industrial</svg:desc>
<svg:path d="M1785521 1806785 L1785521 1791785 "/>
<svg:path d="M1792664 1796785 L1792664 1806785 "/>
<svg:path d="M1792664 1798214 L1793378 1797500 L1794807 1796785 L1796950 1796785 L1798378 1797500 L1799092 1798928 L1799092 1806785 "/>
<svg:path d="M1805521 1806071 L1806950 1806785 L1809807 1806785 L1811235 1806071 L1811950 1804642 L1811950 1803928 L1811235 1802500 L1809807 1801785 L1807664 1801785 L1806235 1801071 L1805521 1799642 L1805521 1798928 L1806235 1797500 L1807664 1796785 L1809807 1796785 L1811235 1797500 "/>
<svg:path d="M1816235 1796785 L1821950 1796785 "/>
<svg:path d="M1818378 1791785 L1818378 1804642 L1819092 1806071 L1820521 1806785 L1821950 1806785 "/>
<svg:path d="M1826950 1806785 L1826950 1796785 "/>
<svg:path d="M1826950 1791785 L1826235 1792500 L1826950 1793214 L1827664 1792500 L1826950 1791785 L1826950 1793214 "/>
<svg:path d="M1831950 1796785 L1837664 1796785 "/>
<svg:path d="M1834092 1791785 L1834092 1804642 L1834807 1806071 L1836235 1806785 L1837664 1806785 "/>
<svg:path d="M1849092 1796785 L1849092 1806785 "/>
<svg:path d="M1842664 1796785 L1842664 1804642 L1843378 1806071 L1844807 1806785 L1846950 1806785 L1848378 1806071 L1849092 1805357 "/>
<svg:path d="M1854092 1796785 L1859807 1796785 "/>
<svg:path d="M1856235 1791785 L1856235 1804642 L1856950 1806071 L1858378 1806785 L1859807 1806785 "/>
<svg:path d="M1866950 1806785 L1865521 1806071 L1864807 1805357 L1864092 1803928 L1864092 1799642 L1864807 1798214 L1865521 1797500 L1866950 1796785 L1869092 1796785 L1870521 1797500 L1871235 1798214 L1871950 1799642 L1871950 1803928 L1871235 1805357 L1870521 1806071 L1869092 1806785 L1866950 1806785 "/>
<svg:path d="M1889807 1806785 L1889807 1791785 L1898378 1806785 L1898378 1791785 "/>
<svg:path d="M1911950 1806785 L1911950 1798928 L1911235 1797500 L1909807 1796785 L1906950 1796785 L1905521 1797500 "/>
<svg:path d="M1911950 1806071 L1910521 1806785 L1906950 1806785 L1905521 1806071 L1904807 1804642 L1904807 1803214 L1905521 1801785 L1906950 1801071 L1910521 1801071 L1911950 1800357 "/>
<svg:path d="M1925521 1806071 L1924092 1806785 L1921235 1806785 L1919807 1806071 L1919092 1805357 L1918378 1803928 L1918378 1799642 L1919092 1798214 L1919807 1797500 L1921235 1796785 L1924092 1796785 L1925521 1797500 "/>
<svg:path d="M1931950 1806785 L1931950 1796785 "/>
<svg:path d="M1931950 1791785 L1931235 1792500 L1931950 1793214 L1932664 1792500 L1931950 1791785 L1931950 1793214 "/>
<svg:path d="M1941235 1806785 L1939807 1806071 L1939092 1805357 L1938378 1803928 L1938378 1799642 L1939092 1798214 L1939807 1797500 L1941235 1796785 L1943378 1796785 L1944807 1797500 L1945521 1798214 L1946235 1799642 L1946235 1803928 L1945521 1805357 L1944807 1806071 L1943378 1806785 L1941235 1806785 "/>
<svg:path d="M1952664 1796785 L1952664 1806785 "/>
<svg:path d="M1952664 1798214 L1953378 1797500 L1954807 1796785 L1956950 1796785 L1958378 1797500 L1959092 1798928 L1959092 1806785 "/>
<svg:path d="M1972664 1806785 L1972664 1798928 L1971950 1797500 L1970521 1796785 L1967664 1796785 L1966235 1797500 "/>
<svg:path d="M1972664 1806071 L1971235 1806785 L1967664 1806785 L1966235 1806071 L1965521 1804642 L1965521 1803214 L1966235 1801785 L1967664 1801071 L1971235 1801071 L1972664 1800357 "/>
<svg:path d="M1981950 1806785 L1980521 1806071 L1979807 1804642 L1979807 1791785 "/>
<svg:path d="M2005521 1806785 L2005521 1791785 "/>
<svg:path d="M2005521 1806071 L2004092 1806785 L2001235 1806785 L1999807 1806071 L1999092 1805357 L1998378 1803928 L1998378 1799642 L1999092 1798214 L1999807 1797500 L2001235 1796785 L2004092 1796785 L2005521 1797500 "/>
<svg:path d="M2018378 1806071 L2016950 1806785 L2014092 1806785 L2012664 1806071 L2011950 1804642 L2011950 1798928 L2012664 1797500 L2014092 1796785 L2016950 1796785 L2018378 1797500 L2019092 1798928 L2019092 1800357 L2011950 1801785 "/>
<svg:path d="M2034807 1791785 L2043378 1791785 "/>
<svg:path d="M2039092 1806785 L2039092 1791785 "/>
<svg:path d="M2054092 1806071 L2052664 1806785 L2049807 1806785 L2048378 1806071 L2047664 1804642 L2047664 1798928 L2048378 1797500 L2049807 1796785 L2052664 1796785 L2054092 1797500 L2054807 1798928 L2054807 1800357 L2047664 1801785 "/>
<svg:path d="M2067664 1806071 L2066235 1806785 L2063378 1806785 L2061950 1806071 L2061235 1805357 L2060521 1803928 L2060521 1799642 L2061235 1798214 L2061950 1797500 L2063378 1796785 L2066235 1796785 L2067664 1797500 "/>
<svg:path d="M2074092 1796785 L2074092 1806785 "/>
<svg:path d="M2074092 1798214 L2074807 1797500 L2076235 1796785 L2078378 1796785 L2079807 1797500 L2080521 1798928 L2080521 1806785 "/>
<svg:path d="M2089807 1806785 L2088378 1806071 L2087664 1805357 L2086950 1803928 L2086950 1799642 L2087664 1798214 L2088378 1797500 L2089807 1796785 L2091950 1796785 L2093378 1797500 L2094092 1798214 L2094807 1799642 L2094807 1803928 L2094092 1805357 L2093378 1806071 L2091950 1806785 L2089807 1806785 "/>
<svg:path d="M2103378 1806785 L2101950 1806071 L2101235 1804642 L2101235 1791785 "/>
<svg:path d="M2111235 1806785 L2109807 1806071 L2109092 1805357 L2108378 1803928 L2108378 1799642 L2109092 1798214 L2109807 1797500 L2111235 1796785 L2113378 1796785 L2114807 1797500 L2115521 1798214 L2116235 1799642 L2116235 1803928 L2115521 1805357 L2114807 1806071 L2113378 1806785 L2111235 1806785 "/>
<svg:path d="M2129092 1796785 L2129092 1808928 L2128378 1810357 L2127664 1811071 L2126235 1811785 L2124092 1811785 L2122664 1811071 "/>
<svg:path d="M2129092 1806071 L2127664 1806785 L2124807 1806785 L2123378 1806071 L2122664 1805357 L2121950 1803928 L2121950 1799642 L2122664 1798214 L2123378 1797500 L2124807 1796785 L2127664 1796785 L2129092 1797500 "/>
<svg:path d="M2136235 1806785 L2136235 1796785 "/>
<svg:path d="M2137664 1791071 L2135521 1793214 "/>
<svg:path d="M2149807 1806785 L2149807 1798928 L2149092 1797500 L2147664 1796785 L2144807 1796785 L2143378 1797500 "/>
<svg:path d="M2149807 1806071 L2148378 1806785 L2144807 1806785 L2143378 1806071 L2142664 1804642 L2142664 1803214 L2143378 1801785 L2144807 1801071 L2148378 1801071 L2149807 1800357 "/>
<svg:path d="M2168378 1806785 L2168378 1791785 "/>
<svg:path d="M2175521 1796785 L2175521 1806785 "/>
<svg:path d="M2175521 1798214 L2176235 1797500 L2177664 1796785 L2179807 1796785 L2181235 1797500 L2181950 1798928 L2181950 1806785 "/>
<svg:path d="M2195521 1806785 L2195521 1791785 "/>
<svg:path d="M2195521 1806071 L2194092 1806785 L2191235 1806785 L2189807 1806071 L2189092 1805357 L2188378 1803928 L2188378 1799642 L2189092 1798214 L2189807 1797500 L2191235 1796785 L2194092 1796785 L2195521 1797500 "/>
<svg:path d="M2209092 1796785 L2209092 1806785 "/>
<svg:path d="M2202664 1796785 L2202664 1804642 L2203378 1806071 L2204807 1806785 L2206950 1806785 L2208378 1806071 L2209092 1805357 "/>
<svg:path d="M2215521 1806071 L2216950 1806785 L2219807 1806785 L2221235 1806071 L2221950 1804642 L2221950 1803928 L2221235 1802500 L2219807 1801785 L2217664 1801785 L2216235 1801071 L2215521 1799642 L2215521 1798928 L2216235 1797500 L2217664 1796785 L2219807 1796785 L2221235 1797500 "/>
<svg:path d="M2226235 1796785 L2231950 1796785 "/>
<svg:path d="M2228378 1791785 L2228378 1804642 L2229092 1806071 L2230521 1806785 L2231950 1806785 "/>
<svg:path d="M2236950 1806785 L2236950 1796785 "/>
<svg:path d="M2236950 1799642 L2237664 1798214 L2238378 1797500 L2239807 1796785 L2241235 1796785 "/>
<svg:path d="M2246235 1806785 L2246235 1796785 "/>
<svg:path d="M2246235 1791785 L2245521 1792500 L2246235 1793214 L2246950 1792500 L2246235 1791785 L2246235 1793214 "/>
<svg:path d="M2259807 1806785 L2259807 1798928 L2259092 1797500 L2257664 1796785 L2254807 1796785 L2253378 1797500 "/>
<svg:path d="M2259807 1806071 L2258378 1806785 L2254807 1806785 L2253378 1806071 L2252664 1804642 L2252664 1803214 L2253378 1801785 L2254807 1801071 L2258378 1801071 L2259807 1800357 "/>
<svg:path d="M2269092 1806785 L2267664 1806071 L2266950 1804642 L2266950 1791785 "/>
</svg:g></svg:g>
<svg:g style="fill:#480000; fill-opacity:0.01;  stroke:#480000; stroke-width:1500.000000; stroke-opacity:1;  stroke-linecap:round; stroke-linejoin:round;">
<svg:text x="1780000.000000" y="1837500.000000" textLength="340328.570000" font-size="20000.000000" lengthAdjust="spacingAndGlyphs" text-anchor="start" opacity="0.01" style="font-family:monospace">Sheet: Bottom documentation</svg:text>
<svg:g class="stroked-text"><svg:desc>Sheet: Bottom documentation</svg:desc>
<svg:path d="M1783832 1836071 L1785975 1836785 L1789546 1836785 L1790975 1836071 L1791689 1835357 L1792403 1833928 L1792403 1832500 L1791689 1831071 L1790975 1830357 L1789546 1829642 L1786689 1828928 L1785260 1828214 L1784546 1827500 L1783832 1826071 L1783832 1824642 L1784546 1823214 L1785260 1822500 L1786689 1821785 L1790260 1821785 L1792403 1822500 "/>
<svg:path d="M1798832 1836785 L1798832 1821785 "/>
<svg:path d="M1805260 1836785 L1805260 1828928 L1804546 1827500 L1803117 1826785 L1800975 1826785 L1799546 1827500 L1798832 1828214 "/>
<svg:path d="M1818117 1836071 L1816689 1836785 L1813832 1836785 L1812403 1836071 L1811689 1834642 L1811689 1828928 L1812403 1827500 L1813832 1826785 L1816689 1826785 L1818117 1827500 L1818832 1828928 L1818832 1830357 L1811689 1831785 "/>
<svg:path d="M1830975 1836071 L1829546 1836785 L1826689 1836785 L1825260 1836071 L1824546 1834642 L1824546 1828928 L1825260 1827500 L1826689 1826785 L1829546 1826785 L1830975 1827500 L1831689 1828928 L1831689 1830357 L1824546 1831785 "/>
<svg:path d="M1835975 1826785 L1841689 1826785 "/>
<svg:path d="M1838117 1821785 L1838117 1834642 L1838832 1836071 L1840260 1836785 L1841689 1836785 "/>
<svg:path d="M1846689 1835357 L1847403 1836071 L1846689 1836785 L1845975 1836071 L1846689 1835357 L1846689 1836785 "/>
<svg:path d="M1846689 1827500 L1847403 1828214 L1846689 1828928 L1845975 1828214 L1846689 1827500 L1846689 1828928 "/>
<svg:path d="M1870260 1828928 L1872403 1829642 L1873117 1830357 L1873832 1831785 L1873832 1833928 L1873117 1835357 L1872403 1836071 L1870975 1836785 L1865260 1836785 L1865260 1821785 L1870260 1821785 L1871689 1822500 L1872403 1823214 L1873117 1824642 L1873117 1826071 L1872403 1827500 L1871689 1828214 L1870260 1828928 L1865260 1828928 "/>
<svg:path d="M1882403 1836785 L1880975 1836071 L1880260 1835357 L1879546 1833928 L1879546 1829642 L1880260 1828214 L1880975 1827500 L1882403 1826785 L1884546 1826785 L1885975 1827500 L1886689 1828214 L1887403 1829642 L1887403 1833928 L1886689 1835357 L1885975 1836071 L1884546 1836785 L1882403 1836785 "/>
<svg:path d="M1891689 1826785 L1897403 1826785 "/>
<svg:path d="M1893832 1821785 L1893832 1834642 L1894546 1836071 L1895975 1836785 L1897403 1836785 "/>
<svg:path d="M1900260 1826785 L1905975 1826785 "/>
<svg:path d="M1902403 1821785 L1902403 1834642 L1903117 1836071 L1904546 1836785 L1905975 1836785 "/>
<svg:path d="M1913117 1836785 L1911689 1836071 L1910975 1835357 L1910260 1833928 L1910260 1829642 L1910975 1828214 L1911689 1827500 L1913117 1826785 L1915260 1826785 L1916689 1827500 L1917403 1828214 L1918117 1829642 L1918117 1833928 L1917403 1835357 L1916689 1836071 L1915260 1836785 L1913117 1836785 "/>
<svg:path d="M1924546 1836785 L1924546 1826785 "/>
<svg:path d="M1924546 1828214 L1925260 1827500 L1926689 1826785 L1928832 1826785 L1930260 1827500 L1930975 1828928 L1930975 1836785 "/>
<svg:path d="M1930975 1828928 L1931689 1827500 L1933117 1826785 L1935260 1826785 L1936689 1827500 L1937403 1828928 L1937403 1836785 "/>
<svg:path d="M1962403 1836785 L1962403 1821785 "/>
<svg:path d="M1962403 1836071 L1960975 1836785 L1958117 1836785 L1956689 1836071 L1955975 1835357 L1955260 1833928 L1955260 1829642 L1955975 1828214 L1956689 1827500 L1958117 1826785 L1960975 1826785 L1962403 1827500 "/>
<svg:path d="M1971689 1836785 L1970260 1836071 L1969546 1835357 L1968832 1833928 L1968832 1829642 L1969546 1828214 L1970260 1827500 L1971689 1826785 L1973832 1826785 L1975260 1827500 L1975975 1828214 L1976689 1829642 L1976689 1833928 L1975975 1835357 L1975260 1836071 L1973832 1836785 L1971689 1836785 "/>
<svg:path d="M1989546 1836071 L1988117 1836785 L1985260 1836785 L1983832 1836071 L1983117 1835357 L1982403 1833928 L1982403 1829642 L1983117 1828214 L1983832 1827500 L1985260 1826785 L1988117 1826785 L1989546 1827500 "/>
<svg:path d="M2002403 1826785 L2002403 1836785 "/>
<svg:path d="M1995975 1826785 L1995975 1834642 L1996689 1836071 L1998117 1836785 L2000260 1836785 L2001689 1836071 L2002403 1835357 "/>
<svg:path d="M2009546 1836785 L2009546 1826785 "/>
<svg:path d="M2009546 1828214 L2010260 1827500 L2011689 1826785 L2013832 1826785 L2015260 1827500 L2015975 1828928 L2015975 1836785 "/>
<svg:path d="M2015975 1828928 L2016689 1827500 L2018117 1826785 L2020260 1826785 L2021689 1827500 L2022403 1828928 L2022403 1836785 "/>
<svg:path d="M2035260 1836071 L2033832 1836785 L2030975 1836785 L2029546 1836071 L2028832 1834642 L2028832 1828928 L2029546 1827500 L2030975 1826785 L2033832 1826785 L2035260 1827500 L2035975 1828928 L2035975 1830357 L2028832 1831785 "/>
<svg:path d="M2042403 1826785 L2042403 1836785 "/>
<svg:path d="M2042403 1828214 L2043117 1827500 L2044546 1826785 L2046689 1826785 L2048117 1827500 L2048832 1828928 L2048832 1836785 "/>
<svg:path d="M2053832 1826785 L2059546 1826785 "/>
<svg:path d="M2055975 1821785 L2055975 1834642 L2056689 1836071 L2058117 1836785 L2059546 1836785 "/>
<svg:path d="M2070975 1836785 L2070975 1828928 L2070260 1827500 L2068832 1826785 L2065975 1826785 L2064546 1827500 "/>
<svg:path d="M2070975 1836071 L2069546 1836785 L2065975 1836785 L2064546 1836071 L2063832 1834642 L2063832 1833214 L2064546 1831785 L2065975 1831071 L2069546 1831071 L2070975 1830357 "/>
<svg:path d="M2075975 1826785 L2081689 1826785 "/>
<svg:path d="M2078117 1821785 L2078117 1834642 L2078832 1836071 L2080260 1836785 L2081689 1836785 "/>
<svg:path d="M2086689 1836785 L2086689 1826785 "/>
<svg:path d="M2086689 1821785 L2085975 1822500 L2086689 1823214 L2087403 1822500 L2086689 1821785 L2086689 1823214 "/>
<svg:path d="M2095975 1836785 L2094546 1836071 L2093832 1835357 L2093117 1833928 L2093117 1829642 L2093832 1828214 L2094546 1827500 L2095975 1826785 L2098117 1826785 L2099546 1827500 L2100260 1828214 L2100975 1829642 L2100975 1833928 L2100260 1835357 L2099546 1836071 L2098117 1836785 L2095975 1836785 "/>
<svg:path d="M2107403 1826785 L2107403 1836785 "/>
<svg:path d="M2107403 1828214 L2108117 1827500 L2109546 1826785 L2111689 1826785 L2113117 1827500 L2113832 1828928 L2113832 1836785 "/>
</svg:g><svg:path d="M1770000 1815000 L2850000 1815000 "/>
<svg:text x="1780000.000000" y="1864500.000000" textLength="201950.000000" font-size="20000.000000" lengthAdjust="spacingAndGlyphs" text-anchor="start" opacity="0.01" style="font-family:monospace">File: t1.kicad_pcb</svg:text>
<svg:g class="stroked-text"><svg:desc>File: t1.kicad_pcb</svg:desc>
<svg:path d="M1789546 1855928 L1784546 1855928 "/>
<svg:path d="M1784546 1863785 L1784546 1848785 L1791689 1848785 "/>
<svg:path d="M1797403 1863785 L1797403 1853785 "/>
<svg:path d="M1797403 1848785 L1796689 1849500 L1797403 1850214 L1798117 1849500 L1797403 1848785 L1797403 1850214 "/>
<svg:path d="M1806689 1863785 L1805260 1863071 L1804546 1861642 L1804546 1848785 "/>
<svg:path d="M1818117 1863071 L1816689 1863785 L1813832 1863785 L1812403 1863071 L1811689 1861642 L1811689 1855928 L1812403 1854500 L1813832 1853785 L1816689 1853785 L1818117 1854500 L1818832 1855928 L1818832 1857357 L1811689 1858785 "/>
<svg:path d="M1825260 1862357 L1825975 1863071 L1825260 1863785 L1824546 1863071 L1825260 1862357 L1825260 1863785 "/>
<svg:path d="M1825260 1854500 L1825975 1855214 L1825260 1855928 L1824546 1855214 L1825260 1854500 L1825260 1855928 "/>
<svg:path d="M1841689 1853785 L1847403 1853785 "/>
<svg:path d="M1843832 1848785 L1843832 1861642 L1844546 1863071 L1845975 1863785 L1847403 1863785 "/>
<svg:path d="M1860260 1863785 L1851689 1863785 "/>
<svg:path d="M1855975 1863785 L1855975 1848785 L1854546 1850928 L1853117 1852357 L1851689 1853071 "/>
<svg:path d="M1866689 1862357 L1867403 1863071 L1866689 1863785 L1865975 1863071 L1866689 1862357 L1866689 1863785 "/>
<svg:path d="M1873832 1863785 L1873832 1848785 "/>
<svg:path d="M1875260 1858071 L1879546 1863785 "/>
<svg:path d="M1879546 1853785 L1873832 1859500 "/>
<svg:path d="M1885975 1863785 L1885975 1853785 "/>
<svg:path d="M1885975 1848785 L1885260 1849500 L1885975 1850214 L1886689 1849500 L1885975 1848785 L1885975 1850214 "/>
<svg:path d="M1899546 1863071 L1898117 1863785 L1895260 1863785 L1893832 1863071 L1893117 1862357 L1892403 1860928 L1892403 1856642 L1893117 1855214 L1893832 1854500 L1895260 1853785 L1898117 1853785 L1899546 1854500 "/>
<svg:path d="M1912403 1863785 L1912403 1855928 L1911689 1854500 L1910260 1853785 L1907403 1853785 L1905975 1854500 "/>
<svg:path d="M1912403 1863071 L1910975 1863785 L1907403 1863785 L1905975 1863071 L1905260 1861642 L1905260 1860214 L1905975 1858785 L1907403 1858071 L1910975 1858071 L1912403 1857357 "/>
<svg:path d="M1925975 1863785 L1925975 1848785 "/>
<svg:path d="M1925975 1863071 L1924546 1863785 L1921689 1863785 L1920260 1863071 L1919546 1862357 L1918832 1860928 L1918832 1856642 L1919546 1855214 L1920260 1854500 L1921689 1853785 L1924546 1853785 L1925975 1854500 "/>
<svg:path d="M1929546 1865214 L1940975 1865214 "/>
<svg:path d="M1944546 1853785 L1944546 1868785 "/>
<svg:path d="M1944546 1854500 L1945975 1853785 L1948832 1853785 L1950260 1854500 L1950975 1855214 L1951689 1856642 L1951689 1860928 L1950975 1862357 L1950260 1863071 L1948832 1863785 L1945975 1863785 L1944546 1863071 "/>
<svg:path d="M1964546 1863071 L1963117 1863785 L1960260 1863785 L1958832 1863071 L1958117 1862357 L1957403 1860928 L1957403 1856642 L1958117 1855214 L1958832 1854500 L1960260 1853785 L1963117 1853785 L1964546 1854500 "/>
<svg:path d="M1970975 1863785 L1970975 1848785 "/>
<svg:path d="M1970975 1854500 L1972403 1853785 L1975260 1853785 L1976689 1854500 L1977403 1855214 L1978117 1856642 L1978117 1860928 L1977403 1862357 L1976689 1863071 L1975260 1863785 L1972403 1863785 L1970975 1863071 "/>
</svg:g></svg:g>
<svg:g style="fill:#480000; fill-opacity:0.01;  stroke:#480000; stroke-width:3000.000000; stroke-opacity:1;  stroke-linecap:round; stroke-linejoin:round;">
<svg:text x="1780000.000000" y="1903000.000000" textLength="94546.430000" font-size="26666.660000" lengthAdjust="spacingAndGlyphs" text-anchor="start" opacity="0.01" style="font-family:monospace">Title: </svg:text>
<svg:g class="stroked-text"><svg:desc>Title: </svg:desc>
<svg:path d="M1786473 1882047 L1797902 1882047 "/>
<svg:path d="M1789688 1902047 L1792188 1882047 "/>
<svg:path d="M1802069 1902047 L1803735 1888714 "/>
<svg:path d="M1804569 1882047 L1803497 1883000 L1804330 1883952 L1805402 1883000 L1804569 1882047 L1804330 1883952 "/>
<svg:path d="M1810402 1888714 L1818021 1888714 "/>
<svg:path d="M1814092 1882047 L1811950 1899190 L1812664 1901095 L1814450 1902047 L1816354 1902047 "/>
<svg:path d="M1825878 1902047 L1824092 1901095 L1823378 1899190 L1825521 1882047 "/>
<svg:path d="M1841235 1901095 L1839211 1902047 L1835402 1902047 L1833616 1901095 L1832902 1899190 L1833854 1891571 L1835045 1889666 L1837069 1888714 L1840878 1888714 L1842664 1889666 L1843378 1891571 L1843140 1893476 L1833378 1895380 "/>
<svg:path d="M1850878 1900142 L1851711 1901095 L1850640 1902047 L1849807 1901095 L1850878 1900142 L1850640 1902047 "/>
<svg:path d="M1852188 1889666 L1853021 1890619 L1851950 1891571 L1851116 1890619 L1852188 1889666 L1851950 1891571 "/>
</svg:g></svg:g>
<svg:g style="fill:#480000; fill-opacity:0.01;  stroke:#480000; stroke-width:1500.000000; stroke-opacity:1;  stroke-linecap:round; stroke-linejoin:round;">
<svg:path d="M1770000 1875000 L2850000 1875000 "/>
<svg:text x="2630000.000000" y="1966500.010000" textLength="87471.430000" font-size="20000.000000" lengthAdjust="spacingAndGlyphs" text-anchor="start" opacity="0.01" style="font-family:monospace">Id: 7/8</svg:text>
<svg:g class="stroked-text"><svg:desc>Id: 7/8</svg:desc>
<svg:path d="M2634546 1965785 L2634546 1950785 "/>
<svg:path d="M2648117 1965785 L2648117 1950785 "/>
<svg:path d="M2648117 1965071 L2646689 1965785 L2643832 1965785 L2642403 1965071 L2641689 1964357 L2640975 1962928 L2640975 1958642 L2641689 1957214 L2642403 1956500 L2643832 1955785 L2646689 1955785 L2648117 1956500 "/>
<svg:path d="M2655260 1964357 L2655975 1965071 L2655260 1965785 L2654546 1965071 L2655260 1964357 L2655260 1965785 "/>
<svg:path d="M2655260 1956500 L2655975 1957214 L2655260 1957928 L2654546 1957214 L2655260 1956500 L2655260 1957928 "/>
<svg:path d="M2672403 1950785 L2682403 1950785 L2675975 1965785 "/>
<svg:path d="M2698832 1950071 L2685975 1969357 "/>
<svg:path d="M2705975 1957214 L2704546 1956500 L2703832 1955785 L2703117 1954357 L2703117 1953642 L2703832 1952214 L2704546 1951500 L2705975 1950785 L2708832 1950785 L2710260 1951500 L2710975 1952214 L2711689 1953642 L2711689 1954357 L2710975 1955785 L2710260 1956500 L2708832 1957214 L2705975 1957214 L2704546 1957928 L2703832 1958642 L2703117 1960071 L2703117 1962928 L2703832 1964357 L2704546 1965071 L2705975 1965785 L2708832 1965785 L2710260 1965071 L2710975 1964357 L2711689 1962928 L2711689 1960071 L2710975 1958642 L2710260 1957928 L2708832 1957214 "/>
</svg:g><svg:text x="1780000.000000" y="1938500.000000" textLength="94092.860000" font-size="20000.000000" lengthAdjust="spacingAndGlyphs" text-anchor="start" opacity="0.01" style="font-family:monospace">Size: A4</svg:text>
<svg:g class="stroked-text"><svg:desc>Size: A4</svg:desc>
<svg:path d="M1783832 1937071 L1785975 1937785 L1789546 1937785 L1790975 1937071 L1791689 1936357 L1792403 1934928 L1792403 1933500 L1791689 1932071 L1790975 1931357 L1789546 1930642 L1786689 1929928 L1785260 1929214 L1784546 1928500 L1783832 1927071 L1783832 1925642 L1784546 1924214 L1785260 1923500 L1786689 1922785 L1790260 1922785 L1792403 1923500 "/>
<svg:path d="M1798832 1937785 L1798832 1927785 "/>
<svg:path d="M1798832 1922785 L1798117 1923500 L1798832 1924214 L1799546 1923500 L1798832 1922785 L1798832 1924214 "/>
<svg:path d="M1804546 1927785 L1812403 1927785 L1804546 1937785 L1812403 1937785 "/>
<svg:path d="M1823832 1937071 L1822403 1937785 L1819546 1937785 L1818117 1937071 L1817403 1935642 L1817403 1929928 L1818117 1928500 L1819546 1927785 L1822403 1927785 L1823832 1928500 L1824546 1929928 L1824546 1931357 L1817403 1932785 "/>
<svg:path d="M1830975 1936357 L1831689 1937071 L1830975 1937785 L1830260 1937071 L1830975 1936357 L1830975 1937785 "/>
<svg:path d="M1830975 1928500 L1831689 1929214 L1830975 1929928 L1830260 1929214 L1830975 1928500 L1830975 1929928 "/>
<svg:path d="M1848832 1933500 L1855975 1933500 "/>
<svg:path d="M1847403 1937785 L1852403 1922785 L1857403 1937785 "/>
<svg:path d="M1868832 1927785 L1868832 1937785 "/>
<svg:path d="M1865260 1922071 L1861689 1932785 L1870975 1932785 "/>
</svg:g></svg:g>
<svg:g style="fill:#480000; fill-opacity:0.01;  stroke:#480000; stroke-width:3000.000000; stroke-opacity:1;  stroke-linecap:round; stroke-linejoin:round;">
<svg:text x="2630000.000000" y="1938500.000000" textLength="187664.290000" font-size="20000.000000" lengthAdjust="spacingAndGlyphs" text-anchor="start" opacity="0.01" style="font-family:monospace">Rev: ${git_hash}</svg:text>
<svg:g class="stroked-text"><svg:desc>Rev: ${git_hash}</svg:desc>
<svg:path d="M2644092 1937785 L2639092 1930642 "/>
<svg:path d="M2635521 1937785 L2635521 1922785 L2641235 1922785 L2642664 1923500 L2643378 1924214 L2644092 1925642 L2644092 1927785 L2643378 1929214 L2642664 1929928 L2641235 1930642 L2635521 1930642 "/>
<svg:path d="M2656235 1937071 L2654807 1937785 L2651950 1937785 L2650521 1937071 L2649807 1935642 L2649807 1929928 L2650521 1928500 L2651950 1927785 L2654807 1927785 L2656235 1928500 L2656950 1929928 L2656950 1931357 L2649807 1932785 "/>
<svg:path d="M2661950 1927785 L2665521 1937785 L2669092 1927785 "/>
<svg:path d="M2674807 1936357 L2675521 1937071 L2674807 1937785 L2674092 1937071 L2674807 1936357 L2674807 1937785 "/>
<svg:path d="M2674807 1928500 L2675521 1929214 L2674807 1929928 L2674092 1929214 L2674807 1928500 L2674807 1929928 "/>
<svg:path d="M2692664 1937071 L2694807 1937785 L2698378 1937785 L2699807 1937071 L2700521 1936357 L2701235 1934928 L2701235 1933500 L2700521 1932071 L2699807 1931357 L2698378 1930642 L2695521 1929928 L2694092 1929214 L2693378 1928500 L2692664 1927071 L2692664 1925642 L2693378 1924214 L2694092 1923500 L2695521 1922785 L2699092 1922785 L2701235 1923500 "/>
<svg:path d="M2696950 1920642 L2696950 1939928 "/>
<svg:path d="M2711950 1943500 L2711235 1943500 L2709807 1942785 L2709092 1941357 L2709092 1934214 L2708378 1932785 L2706950 1932071 L2708378 1931357 L2709092 1929928 L2709092 1922785 L2709807 1921357 L2711235 1920642 L2711950 1920642 "/>
<svg:path d="M2724092 1927785 L2724092 1939928 L2723378 1941357 L2722664 1942071 L2721235 1942785 L2719092 1942785 L2717664 1942071 "/>
<svg:path d="M2724092 1937071 L2722664 1937785 L2719807 1937785 L2718378 1937071 L2717664 1936357 L2716950 1934928 L2716950 1930642 L2717664 1929214 L2718378 1928500 L2719807 1927785 L2722664 1927785 L2724092 1928500 "/>
<svg:path d="M2731235 1937785 L2731235 1927785 "/>
<svg:path d="M2731235 1922785 L2730521 1923500 L2731235 1924214 L2731950 1923500 L2731235 1922785 L2731235 1924214 "/>
<svg:path d="M2736235 1927785 L2741950 1927785 "/>
<svg:path d="M2738378 1922785 L2738378 1935642 L2739092 1937071 L2740521 1937785 L2741950 1937785 "/>
<svg:path d="M2743378 1939214 L2754807 1939214 "/>
<svg:path d="M2758378 1937785 L2758378 1922785 "/>
<svg:path d="M2764807 1937785 L2764807 1929928 L2764092 1928500 L2762664 1927785 L2760521 1927785 L2759092 1928500 L2758378 1929214 "/>
<svg:path d="M2778378 1937785 L2778378 1929928 L2777664 1928500 L2776235 1927785 L2773378 1927785 L2771950 1928500 "/>
<svg:path d="M2778378 1937071 L2776950 1937785 L2773378 1937785 L2771950 1937071 L2771235 1935642 L2771235 1934214 L2771950 1932785 L2773378 1932071 L2776950 1932071 L2778378 1931357 "/>
<svg:path d="M2784807 1937071 L2786235 1937785 L2789092 1937785 L2790521 1937071 L2791235 1935642 L2791235 1934928 L2790521 1933500 L2789092 1932785 L2786950 1932785 L2785521 1932071 L2784807 1930642 L2784807 1929928 L2785521 1928500 L2786950 1927785 L2789092 1927785 L2790521 1928500 "/>
<svg:path d="M2797664 1937785 L2797664 1922785 "/>
<svg:path d="M2804092 1937785 L2804092 1929928 L2803378 1928500 L2801950 1927785 L2799807 1927785 L2798378 1928500 L2797664 1929214 "/>
<svg:path d="M2809807 1943500 L2810521 1943500 L2811950 1942785 L2812664 1941357 L2812664 1934214 L2813378 1932785 L2814807 1932071 L2813378 1931357 L2812664 1929928 L2812664 1922785 L2811950 1921357 L2810521 1920642 L2809807 1920642 "/>
</svg:g></svg:g>
<svg:g style="fill:#480000; fill-opacity:0.01;  stroke:#480000; stroke-width:1500.000000; stroke-opacity:1;  stroke-linecap:round; stroke-linejoin:round;">
<svg:path d="M1770000 1915000 L2850000 1915000 "/>
<svg:text x="1780000.000000" y="1966500.010000" textLength="618185.710000" font-size="20000.000000" lengthAdjust="spacingAndGlyphs" text-anchor="start" opacity="0.01" style="font-family:monospace">KiCad E.D.A. 6.0.11+dfsg-1~bpo11+1 + KiBot v1.6.3</svg:text>
<svg:g class="stroked-text"><svg:desc>KiCad E.D.A. 6.0.11+dfsg-1~bpo11+1 + KiBot v1.6.3</svg:desc>
<svg:path d="M1784546 1965785 L1784546 1950785 "/>
<svg:path d="M1793117 1965785 L1786689 1957214 "/>
<svg:path d="M1793117 1950785 L1784546 1959357 "/>
<svg:path d="M1799546 1965785 L1799546 1955785 "/>
<svg:path d="M1799546 1950785 L1798832 1951500 L1799546 1952214 L1800260 1951500 L1799546 1950785 L1799546 1952214 "/>
<svg:path d="M1815260 1964357 L1814546 1965071 L1812403 1965785 L1810975 1965785 L1808832 1965071 L1807403 1963642 L1806689 1962214 L1805975 1959357 L1805975 1957214 L1806689 1954357 L1807403 1952928 L1808832 1951500 L1810975 1950785 L1812403 1950785 L1814546 1951500 L1815260 1952214 "/>
<svg:path d="M1828117 1965785 L1828117 1957928 L1827403 1956500 L1825975 1955785 L1823117 1955785 L1821689 1956500 "/>
<svg:path d="M1828117 1965071 L1826689 1965785 L1823117 1965785 L1821689 1965071 L1820975 1963642 L1820975 1962214 L1821689 1960785 L1823117 1960071 L1826689 1960071 L1828117 1959357 "/>
<svg:path d="M1841689 1965785 L1841689 1950785 "/>
<svg:path d="M1841689 1965071 L1840260 1965785 L1837403 1965785 L1835975 1965071 L1835260 1964357 L1834546 1962928 L1834546 1958642 L1835260 1957214 L1835975 1956500 L1837403 1955785 L1840260 1955785 L1841689 1956500 "/>
<svg:path d="M1860260 1957928 L1865260 1957928 "/>
<svg:path d="M1867403 1965785 L1860260 1965785 L1860260 1950785 L1867403 1950785 "/>
<svg:path d="M1873832 1964357 L1874546 1965071 L1873832 1965785 L1873117 1965071 L1873832 1964357 L1873832 1965785 "/>
<svg:path d="M1880975 1965785 L1880975 1950785 L1884546 1950785 L1886689 1951500 L1888117 1952928 L1888832 1954357 L1889546 1957214 L1889546 1959357 L1888832 1962214 L1888117 1963642 L1886689 1965071 L1884546 1965785 L1880975 1965785 "/>
<svg:path d="M1895975 1964357 L1896689 1965071 L1895975 1965785 L1895260 1965071 L1895975 1964357 L1895975 1965785 "/>
<svg:path d="M1902403 1961500 L1909546 1961500 "/>
<svg:path d="M1900975 1965785 L1905975 1950785 L1910975 1965785 "/>
<svg:path d="M1915975 1964357 L1916689 1965071 L1915975 1965785 L1915260 1965071 L1915975 1964357 L1915975 1965785 "/>
<svg:path d="M1940975 1950785 L1938117 1950785 L1936689 1951500 L1935975 1952214 L1934546 1954357 L1933832 1957214 L1933832 1962928 L1934546 1964357 L1935260 1965071 L1936689 1965785 L1939546 1965785 L1940975 1965071 L1941689 1964357 L1942403 1962928 L1942403 1959357 L1941689 1957928 L1940975 1957214 L1939546 1956500 L1936689 1956500 L1935260 1957214 L1934546 1957928 L1933832 1959357 "/>
<svg:path d="M1948832 1964357 L1949546 1965071 L1948832 1965785 L1948117 1965071 L1948832 1964357 L1948832 1965785 "/>
<svg:path d="M1958832 1950785 L1960260 1950785 L1961689 1951500 L1962403 1952214 L1963117 1953642 L1963832 1956500 L1963832 1960071 L1963117 1962928 L1962403 1964357 L1961689 1965071 L1960260 1965785 L1958832 1965785 L1957403 1965071 L1956689 1964357 L1955975 1962928 L1955260 1960071 L1955260 1956500 L1955975 1953642 L1956689 1952214 L1957403 1951500 L1958832 1950785 "/>
<svg:path d="M1970260 1964357 L1970975 1965071 L1970260 1965785 L1969546 1965071 L1970260 1964357 L1970260 1965785 "/>
<svg:path d="M1985260 1965785 L1976689 1965785 "/>
<svg:path d="M1980975 1965785 L1980975 1950785 L1979546 1952928 L1978117 1954357 L1976689 1955071 "/>
<svg:path d="M1999546 1965785 L1990975 1965785 "/>
<svg:path d="M1995260 1965785 L1995260 1950785 L1993832 1952928 L1992403 1954357 L1990975 1955071 "/>
<svg:path d="M2005975 1960071 L2017403 1960071 "/>
<svg:path d="M2011689 1965785 L2011689 1954357 "/>
<svg:path d="M2030975 1965785 L2030975 1950785 "/>
<svg:path d="M2030975 1965071 L2029546 1965785 L2026689 1965785 L2025260 1965071 L2024546 1964357 L2023832 1962928 L2023832 1958642 L2024546 1957214 L2025260 1956500 L2026689 1955785 L2029546 1955785 L2030975 1956500 "/>
<svg:path d="M2035975 1955785 L2041689 1955785 "/>
<svg:path d="M2038117 1965785 L2038117 1952928 L2038832 1951500 L2040260 1950785 L2041689 1950785 "/>
<svg:path d="M2045975 1965071 L2047403 1965785 L2050260 1965785 L2051689 1965071 L2052403 1963642 L2052403 1962928 L2051689 1961500 L2050260 1960785 L2048117 1960785 L2046689 1960071 L2045975 1958642 L2045975 1957928 L2046689 1956500 L2048117 1955785 L2050260 1955785 L2051689 1956500 "/>
<svg:path d="M2065260 1955785 L2065260 1967928 L2064546 1969357 L2063832 1970071 L2062403 1970785 L2060260 1970785 L2058832 1970071 "/>
<svg:path d="M2065260 1965071 L2063832 1965785 L2060975 1965785 L2059546 1965071 L2058832 1964357 L2058117 1962928 L2058117 1958642 L2058832 1957214 L2059546 1956500 L2060975 1955785 L2063832 1955785 L2065260 1956500 "/>
<svg:path d="M2072403 1960071 L2083832 1960071 "/>
<svg:path d="M2098832 1965785 L2090260 1965785 "/>
<svg:path d="M2094546 1965785 L2094546 1950785 L2093117 1952928 L2091689 1954357 L2090260 1955071 "/>
<svg:path d="M2103117 1960071 L2103832 1959357 L2105260 1958642 L2108117 1960071 L2109546 1959357 L2110260 1958642 "/>
<svg:path d="M2115975 1965785 L2115975 1950785 "/>
<svg:path d="M2115975 1956500 L2117403 1955785 L2120260 1955785 L2121689 1956500 L2122403 1957214 L2123117 1958642 L2123117 1962928 L2122403 1964357 L2121689 1965071 L2120260 1965785 L2117403 1965785 L2115975 1965071 "/>
<svg:path d="M2129546 1955785 L2129546 1970785 "/>
<svg:path d="M2129546 1956500 L2130975 1955785 L2133832 1955785 L2135260 1956500 L2135975 1957214 L2136689 1958642 L2136689 1962928 L2135975 1964357 L2135260 1965071 L2133832 1965785 L2130975 1965785 L2129546 1965071 "/>
<svg:path d="M2145260 1965785 L2143832 1965071 L2143117 1964357 L2142403 1962928 L2142403 1958642 L2143117 1957214 L2143832 1956500 L2145260 1955785 L2147403 1955785 L2148832 1956500 L2149546 1957214 L2150260 1958642 L2150260 1962928 L2149546 1964357 L2148832 1965071 L2147403 1965785 L2145260 1965785 "/>
<svg:path d="M2164546 1965785 L2155975 1965785 "/>
<svg:path d="M2160260 1965785 L2160260 1950785 L2158832 1952928 L2157403 1954357 L2155975 1955071 "/>
<svg:path d="M2178832 1965785 L2170260 1965785 "/>
<svg:path d="M2174546 1965785 L2174546 1950785 L2173117 1952928 L2171689 1954357 L2170260 1955071 "/>
<svg:path d="M2185260 1960071 L2196689 1960071 "/>
<svg:path d="M2190975 1965785 L2190975 1954357 "/>
<svg:path d="M2211689 1965785 L2203117 1965785 "/>
<svg:path d="M2207403 1965785 L2207403 1950785 L2205975 1952928 L2204546 1954357 L2203117 1955071 "/>
<svg:path d="M2229546 1960071 L2240975 1960071 "/>
<svg:path d="M2235260 1965785 L2235260 1954357 "/>
<svg:path d="M2259546 1965785 L2259546 1950785 "/>
<svg:path d="M2268117 1965785 L2261689 1957214 "/>
<svg:path d="M2268117 1950785 L2259546 1959357 "/>
<svg:path d="M2274546 1965785 L2274546 1955785 "/>
<svg:path d="M2274546 1950785 L2273832 1951500 L2274546 1952214 L2275260 1951500 L2274546 1950785 L2274546 1952214 "/>
<svg:path d="M2286689 1957928 L2288832 1958642 L2289546 1959357 L2290260 1960785 L2290260 1962928 L2289546 1964357 L2288832 1965071 L2287403 1965785 L2281689 1965785 L2281689 1950785 L2286689 1950785 L2288117 1951500 L2288832 1952214 L2289546 1953642 L2289546 1955071 L2288832 1956500 L2288117 1957214 L2286689 1957928 L2281689 1957928 "/>
<svg:path d="M2298832 1965785 L2297403 1965071 L2296689 1964357 L2295975 1962928 L2295975 1958642 L2296689 1957214 L2297403 1956500 L2298832 1955785 L2300975 1955785 L2302403 1956500 L2303117 1957214 L2303832 1958642 L2303832 1962928 L2303117 1964357 L2302403 1965071 L2300975 1965785 L2298832 1965785 "/>
<svg:path d="M2308117 1955785 L2313832 1955785 "/>
<svg:path d="M2310260 1950785 L2310260 1963642 L2310975 1965071 L2312403 1965785 L2313832 1965785 "/>
<svg:path d="M2328832 1955785 L2332403 1965785 L2335975 1955785 "/>
<svg:path d="M2349546 1965785 L2340975 1965785 "/>
<svg:path d="M2345260 1965785 L2345260 1950785 L2343832 1952928 L2342403 1954357 L2340975 1955071 "/>
<svg:path d="M2355975 1964357 L2356689 1965071 L2355975 1965785 L2355260 1965071 L2355975 1964357 L2355975 1965785 "/>
<svg:path d="M2369546 1950785 L2366689 1950785 L2365260 1951500 L2364546 1952214 L2363117 1954357 L2362403 1957214 L2362403 1962928 L2363117 1964357 L2363832 1965071 L2365260 1965785 L2368117 1965785 L2369546 1965071 L2370260 1964357 L2370975 1962928 L2370975 1959357 L2370260 1957928 L2369546 1957214 L2368117 1956500 L2365260 1956500 L2363832 1957214 L2363117 1957928 L2362403 1959357 "/>
<svg:path d="M2377403 1964357 L2378117 1965071 L2377403 1965785 L2376689 1965071 L2377403 1964357 L2377403 1965785 "/>
<svg:path d="M2383117 1950785 L2392403 1950785 L2387403 1956500 L2389546 1956500 L2390975 1957214 L2391689 1957928 L2392403 1959357 L2392403 1962928 L2391689 1964357 L2390975 1965071 L2389546 1965785 L2385260 1965785 L2383832 1965071 L2383117 1964357 "/>
</svg:g><svg:path d="M1770000 1945000 L2850000 1945000 "/>
<svg:text x="2000000.000000" y="1938500.000000" textLength="356235.710000" font-size="20000.000000" lengthAdjust="spacingAndGlyphs" text-anchor="start" opacity="0.01" style="font-family:monospace">Date: 2023-06-13_14-01-47</svg:text>
<svg:g class="stroked-text"><svg:desc>Date: 2023-06-13_14-01-47</svg:desc>
<svg:path d="M2004546 1937785 L2004546 1922785 L2008117 1922785 L2010260 1923500 L2011689 1924928 L2012403 1926357 L2013117 1929214 L2013117 1931357 L2012403 1934214 L2011689 1935642 L2010260 1937071 L2008117 1937785 L2004546 1937785 "/>
<svg:path d="M2025975 1937785 L2025975 1929928 L2025260 1928500 L2023832 1927785 L2020975 1927785 L2019546 1928500 "/>
<svg:path d="M2025975 1937071 L2024546 1937785 L2020975 1937785 L2019546 1937071 L2018832 1935642 L2018832 1934214 L2019546 1932785 L2020975 1932071 L2024546 1932071 L2025975 1931357 "/>
<svg:path d="M2030975 1927785 L2036689 1927785 "/>
<svg:path d="M2033117 1922785 L2033117 1935642 L2033832 1937071 L2035260 1937785 L2036689 1937785 "/>
<svg:path d="M2047403 1937071 L2045975 1937785 L2043117 1937785 L2041689 1937071 L2040975 1935642 L2040975 1929928 L2041689 1928500 L2043117 1927785 L2045975 1927785 L2047403 1928500 L2048117 1929928 L2048117 1931357 L2040975 1932785 "/>
<svg:path d="M2054546 1936357 L2055260 1937071 L2054546 1937785 L2053832 1937071 L2054546 1936357 L2054546 1937785 "/>
<svg:path d="M2054546 1928500 L2055260 1929214 L2054546 1929928 L2053832 1929214 L2054546 1928500 L2054546 1929928 "/>
<svg:path d="M2072403 1924214 L2073117 1923500 L2074546 1922785 L2078117 1922785 L2079546 1923500 L2080260 1924214 L2080975 1925642 L2080975 1927071 L2080260 1929214 L2071689 1937785 L2080975 1937785 "/>
<svg:path d="M2090260 1922785 L2091689 1922785 L2093117 1923500 L2093832 1924214 L2094546 1925642 L2095260 1928500 L2095260 1932071 L2094546 1934928 L2093832 1936357 L2093117 1937071 L2091689 1937785 L2090260 1937785 L2088832 1937071 L2088117 1936357 L2087403 1934928 L2086689 1932071 L2086689 1928500 L2087403 1925642 L2088117 1924214 L2088832 1923500 L2090260 1922785 "/>
<svg:path d="M2100975 1924214 L2101689 1923500 L2103117 1922785 L2106689 1922785 L2108117 1923500 L2108832 1924214 L2109546 1925642 L2109546 1927071 L2108832 1929214 L2100260 1937785 L2109546 1937785 "/>
<svg:path d="M2114546 1922785 L2123832 1922785 L2118832 1928500 L2120975 1928500 L2122403 1929214 L2123117 1929928 L2123832 1931357 L2123832 1934928 L2123117 1936357 L2122403 1937071 L2120975 1937785 L2116689 1937785 L2115260 1937071 L2114546 1936357 "/>
<svg:path d="M2130260 1932071 L2141689 1932071 "/>
<svg:path d="M2151689 1922785 L2153117 1922785 L2154546 1923500 L2155260 1924214 L2155975 1925642 L2156689 1928500 L2156689 1932071 L2155975 1934928 L2155260 1936357 L2154546 1937071 L2153117 1937785 L2151689 1937785 L2150260 1937071 L2149546 1936357 L2148832 1934928 L2148117 1932071 L2148117 1928500 L2148832 1925642 L2149546 1924214 L2150260 1923500 L2151689 1922785 "/>
<svg:path d="M2169546 1922785 L2166689 1922785 L2165260 1923500 L2164546 1924214 L2163117 1926357 L2162403 1929214 L2162403 1934928 L2163117 1936357 L2163832 1937071 L2165260 1937785 L2168117 1937785 L2169546 1937071 L2170260 1936357 L2170975 1934928 L2170975 1931357 L2170260 1929928 L2169546 1929214 L2168117 1928500 L2165260 1928500 L2163832 1929214 L2163117 1929928 L2162403 1931357 "/>
<svg:path d="M2177403 1932071 L2188832 1932071 "/>
<svg:path d="M2203832 1937785 L2195260 1937785 "/>
<svg:path d="M2199546 1937785 L2199546 1922785 L2198117 1924928 L2196689 1926357 L2195260 1927071 "/>
<svg:path d="M2208832 1922785 L2218117 1922785 L2213117 1928500 L2215260 1928500 L2216689 1929214 L2217403 1929928 L2218117 1931357 L2218117 1934928 L2217403 1936357 L2216689 1937071 L2215260 1937785 L2210975 1937785 L2209546 1937071 L2208832 1936357 "/>
<svg:path d="M2220975 1939214 L2232403 1939214 "/>
<svg:path d="M2243832 1937785 L2235260 1937785 "/>
<svg:path d="M2239546 1937785 L2239546 1922785 L2238117 1924928 L2236689 1926357 L2235260 1927071 "/>
<svg:path d="M2256689 1927785 L2256689 1937785 "/>
<svg:path d="M2253117 1922071 L2249546 1932785 L2258832 1932785 "/>
<svg:path d="M2264546 1932071 L2275975 1932071 "/>
<svg:path d="M2285975 1922785 L2287403 1922785 L2288832 1923500 L2289546 1924214 L2290260 1925642 L2290975 1928500 L2290975 1932071 L2290260 1934928 L2289546 1936357 L2288832 1937071 L2287403 1937785 L2285975 1937785 L2284546 1937071 L2283832 1936357 L2283117 1934928 L2282403 1932071 L2282403 1928500 L2283117 1925642 L2283832 1924214 L2284546 1923500 L2285975 1922785 "/>
<svg:path d="M2305260 1937785 L2296689 1937785 "/>
<svg:path d="M2300975 1937785 L2300975 1922785 L2299546 1924928 L2298117 1926357 L2296689 1927071 "/>
<svg:path d="M2311689 1932071 L2323117 1932071 "/>
<svg:path d="M2336689 1927785 L2336689 1937785 "/>
<svg:path d="M2333117 1922071 L2329546 1932785 L2338832 1932785 "/>
<svg:path d="M2343117 1922785 L2353117 1922785 L2346689 1937785 "/>
</svg:g><svg:text x="2860000.000000" y="1856500.000000" textLength="14950.000000" font-size="17333.330000" lengthAdjust="spacingAndGlyphs" text-anchor="middle" opacity="0.01" style="font-family:monospace">D</svg:text>
<svg:g class="stroked-text"><svg:desc>D</svg:desc>
<svg:path d="M2856595 1855880 L2856595 1842880 L2859690 1842880 L2861547 1843500 L2862785 1844738 L2863404 1845976 L2864023 1848452 L2864023 1850309 L2863404 1852785 L2862785 1854023 L2861547 1855261 L2859690 1855880 L2856595 1855880 "/>
</svg:g><svg:text x="2860000.000000" y="1356500.000000" textLength="14950.000000" font-size="17333.330000" lengthAdjust="spacingAndGlyphs" text-anchor="middle" opacity="0.01" style="font-family:monospace">C</svg:text>
<svg:g class="stroked-text"><svg:desc>C</svg:desc>
<svg:path d="M2864023 1354642 L2863404 1355261 L2861547 1355880 L2860309 1355880 L2858452 1355261 L2857214 1354023 L2856595 1352785 L2855976 1350309 L2855976 1348452 L2856595 1345976 L2857214 1344738 L2858452 1343500 L2860309 1342880 L2861547 1342880 L2863404 1343500 L2864023 1344119 "/>
</svg:g><svg:text x="2860000.000000" y="856500.000000" textLength="14950.000000" font-size="17333.330000" lengthAdjust="spacingAndGlyphs" text-anchor="middle" opacity="0.01" style="font-family:monospace">B</svg:text>
<svg:g class="stroked-text"><svg:desc>B</svg:desc>
<svg:path d="M2860928 849071 L2862785 849690 L2863404 850309 L2864023 851547 L2864023 853404 L2863404 854642 L2862785 855261 L2861547 855880 L2856595 855880 L2856595 842880 L2860928 842880 L2862166 843500 L2862785 844119 L2863404 845357 L2863404 846595 L2862785 847833 L2862166 848452 L2860928 849071 L2856595 849071 "/>
</svg:g><svg:text x="2860000.000000" y="356500.000000" textLength="13092.860000" font-size="17333.330000" lengthAdjust="spacingAndGlyphs" text-anchor="middle" opacity="0.01" style="font-family:monospace">A</svg:text>
<svg:g class="stroked-text"><svg:desc>A</svg:desc>
<svg:path d="M2856904 352166 L2863095 352166 "/>
<svg:path d="M2855666 355880 L2860000 342880 L2864333 355880 "/>
</svg:g><svg:path d="M2870000 1600000 L2850000 1600000 "/>
<svg:path d="M2870000 1100000 L2850000 1100000 "/>
<svg:path d="M2870000 600000 L2850000 600000 "/>
<svg:text x="110000.000000" y="1856500.000000" textLength="14950.000000" font-size="17333.330000" lengthAdjust="spacingAndGlyphs" text-anchor="middle" opacity="0.01" style="font-family:monospace">D</svg:text>
<svg:g class="stroked-text"><svg:desc>D</svg:desc>
<svg:path d="M106595 1855880 L106595 1842880 L109690 1842880 L111547 1843500 L112785 1844738 L113404 1845976 L114023 1848452 L114023 1850309 L113404 1852785 L112785 1854023 L111547 1855261 L109690 1855880 L106595 1855880 "/>
</svg:g><svg:text x="110000.000000" y="1356500.000000" textLength="14950.000000" font-size="17333.330000" lengthAdjust="spacingAndGlyphs" text-anchor="middle" opacity="0.01" style="font-family:monospace">C</svg:text>
<svg:g class="stroked-text"><svg:desc>C</svg:desc>
<svg:path d="M114023 1354642 L113404 1355261 L111547 1355880 L110309 1355880 L108452 1355261 L107214 1354023 L106595 1352785 L105976 1350309 L105976 1348452 L106595 1345976 L107214 1344738 L108452 1343500 L110309 1342880 L111547 1342880 L113404 1343500 L114023 1344119 "/>
</svg:g><svg:text x="110000.000000" y="856500.000000" textLength="14950.000000" font-size="17333.330000" lengthAdjust="spacingAndGlyphs" text-anchor="middle" opacity="0.01" style="font-family:monospace">B</svg:text>
<svg:g class="stroked-text"><svg:desc>B</svg:desc>
<svg:path d="M110928 849071 L112785 849690 L113404 850309 L114023 851547 L114023 853404 L113404 854642 L112785 855261 L111547 855880 L106595 855880 L106595 842880 L110928 842880 L112166 843500 L112785 844119 L113404 845357 L113404 846595 L112785 847833 L112166 848452 L110928 849071 L106595 849071 "/>
</svg:g><svg:text x="110000.000000" y="356500.000000" textLength="13092.860000" font-size="17333.330000" lengthAdjust="spacingAndGlyphs" text-anchor="middle" opacity="0.01" style="font-family:monospace">A</svg:text>
<svg:g class="stroked-text"><svg:desc>A</svg:desc>
<svg:path d="M106904 352166 L113095 352166 "/>
<svg:path d="M105666 355880 L110000 342880 L114333 355880 "/>
</svg:g><svg:path d="M100000 1600000 L120000 1600000 "/>
<svg:path d="M100000 1100000 L120000 1100000 "/>
<svg:path d="M100000 600000 L120000 600000 "/>
<svg:text x="2850000.000000" y="1996500.000000" textLength="14330.950000" font-size="17333.330000" lengthAdjust="spacingAndGlyphs" text-anchor="start" opacity="0.01" style="font-family:monospace">6</svg:text>
<svg:g class="stroked-text"><svg:desc>6</svg:desc>
<svg:path d="M2859641 1982880 L2857165 1982880 L2855927 1983500 L2855308 1984119 L2854070 1985976 L2853451 1988452 L2853451 1993404 L2854070 1994642 L2854689 1995261 L2855927 1995880 L2858403 1995880 L2859641 1995261 L2860260 1994642 L2860879 1993404 L2860879 1990309 L2860260 1989071 L2859641 1988452 L2858403 1987833 L2855927 1987833 L2854689 1988452 L2854070 1989071 L2853451 1990309 "/>
</svg:g><svg:text x="2350000.000000" y="1996500.000000" textLength="14330.950000" font-size="17333.330000" lengthAdjust="spacingAndGlyphs" text-anchor="start" opacity="0.01" style="font-family:monospace">5</svg:text>
<svg:g class="stroked-text"><svg:desc>5</svg:desc>
<svg:path d="M2360260 1982880 L2354070 1982880 L2353451 1989071 L2354070 1988452 L2355308 1987833 L2358403 1987833 L2359641 1988452 L2360260 1989071 L2360879 1990309 L2360879 1993404 L2360260 1994642 L2359641 1995261 L2358403 1995880 L2355308 1995880 L2354070 1995261 L2353451 1994642 "/>
</svg:g><svg:text x="1850000.000000" y="1996500.000000" textLength="14330.950000" font-size="17333.330000" lengthAdjust="spacingAndGlyphs" text-anchor="start" opacity="0.01" style="font-family:monospace">4</svg:text>
<svg:g class="stroked-text"><svg:desc>4</svg:desc>
<svg:path d="M1859641 1987214 L1859641 1995880 "/>
<svg:path d="M1856546 1982261 L1853451 1991547 L1861498 1991547 "/>
</svg:g><svg:text x="1350000.000000" y="1996500.000000" textLength="14330.950000" font-size="17333.330000" lengthAdjust="spacingAndGlyphs" text-anchor="start" opacity="0.01" style="font-family:monospace">3</svg:text>
<svg:g class="stroked-text"><svg:desc>3</svg:desc>
<svg:path d="M1352832 1982880 L1360879 1982880 L1356546 1987833 L1358403 1987833 L1359641 1988452 L1360260 1989071 L1360879 1990309 L1360879 1993404 L1360260 1994642 L1359641 1995261 L1358403 1995880 L1354689 1995880 L1353451 1995261 L1352832 1994642 "/>
</svg:g><svg:text x="850000.000000" y="1996500.000000" textLength="14330.950000" font-size="17333.330000" lengthAdjust="spacingAndGlyphs" text-anchor="start" opacity="0.01" style="font-family:monospace">2</svg:text>
<svg:g class="stroked-text"><svg:desc>2</svg:desc>
<svg:path d="M853451 1984119 L854070 1983500 L855308 1982880 L858403 1982880 L859641 1983500 L860260 1984119 L860879 1985357 L860879 1986595 L860260 1988452 L852832 1995880 L860879 1995880 "/>
</svg:g><svg:text x="350000.000000" y="1996500.000000" textLength="14330.950000" font-size="17333.330000" lengthAdjust="spacingAndGlyphs" text-anchor="start" opacity="0.01" style="font-family:monospace">1</svg:text>
<svg:g class="stroked-text"><svg:desc>1</svg:desc>
<svg:path d="M360879 1995880 L353451 1995880 "/>
<svg:path d="M357165 1995880 L357165 1982880 L355927 1984738 L354689 1985976 L353451 1986595 "/>
</svg:g><svg:path d="M2600000 1980000 L2600000 2000000 "/>
<svg:path d="M2100000 1980000 L2100000 2000000 "/>
<svg:path d="M1600000 1980000 L1600000 2000000 "/>
<svg:path d="M1100000 1980000 L1100000 2000000 "/>
<svg:path d="M600000 1980000 L600000 2000000 "/>
<svg:text x="2850000.000000" y="116500.000000" textLength="14330.950000" font-size="17333.330000" lengthAdjust="spacingAndGlyphs" text-anchor="start" opacity="0.01" style="font-family:monospace">6</svg:text>
<svg:g class="stroked-text"><svg:desc>6</svg:desc>
<svg:path d="M2859641 102880 L2857165 102880 L2855927 103500 L2855308 104119 L2854070 105976 L2853451 108452 L2853451 113404 L2854070 114642 L2854689 115261 L2855927 115880 L2858403 115880 L2859641 115261 L2860260 114642 L2860879 113404 L2860879 110309 L2860260 109071 L2859641 108452 L2858403 107833 L2855927 107833 L2854689 108452 L2854070 109071 L2853451 110309 "/>
</svg:g><svg:text x="2350000.000000" y="116500.000000" textLength="14330.950000" font-size="17333.330000" lengthAdjust="spacingAndGlyphs" text-anchor="start" opacity="0.01" style="font-family:monospace">5</svg:text>
<svg:g class="stroked-text"><svg:desc>5</svg:desc>
<svg:path d="M2360260 102880 L2354070 102880 L2353451 109071 L2354070 108452 L2355308 107833 L2358403 107833 L2359641 108452 L2360260 109071 L2360879 110309 L2360879 113404 L2360260 114642 L2359641 115261 L2358403 115880 L2355308 115880 L2354070 115261 L2353451 114642 "/>
</svg:g><svg:text x="1850000.000000" y="116500.000000" textLength="14330.950000" font-size="17333.330000" lengthAdjust="spacingAndGlyphs" text-anchor="start" opacity="0.01" style="font-family:monospace">4</svg:text>
<svg:g class="stroked-text"><svg:desc>4</svg:desc>
<svg:path d="M1859641 107214 L1859641 115880 "/>
<svg:path d="M1856546 102261 L1853451 111547 L1861498 111547 "/>
</svg:g><svg:text x="1350000.000000" y="116500.000000" textLength="14330.950000" font-size="17333.330000" lengthAdjust="spacingAndGlyphs" text-anchor="start" opacity="0.01" style="font-family:monospace">3</svg:text>
<svg:g class="stroked-text"><svg:desc>3</svg:desc>
<svg:path d="M1352832 102880 L1360879 102880 L1356546 107833 L1358403 107833 L1359641 108452 L1360260 109071 L1360879 110309 L1360879 113404 L1360260 114642 L1359641 115261 L1358403 115880 L1354689 115880 L1353451 115261 L1352832 114642 "/>
</svg:g><svg:text x="850000.000000" y="116500.000000" textLength="14330.950000" font-size="17333.330000" lengthAdjust="spacingAndGlyphs" text-anchor="start" opacity="0.01" style="font-family:monospace">2</svg:text>
<svg:g class="stroked-text"><svg:desc>2</svg:desc>
<svg:path d="M853451 104119 L854070 103500 L855308 102880 L858403 102880 L859641 103500 L860260 104119 L860879 105357 L860879 106595 L860260 108452 L852832 115880 L860879 115880 "/>
</svg:g><svg:text x="350000.000000" y="116500.000000" textLength="14330.950000" font-size="17333.330000" lengthAdjust="spacingAndGlyphs" text-anchor="start" opacity="0.01" style="font-family:monospace">1</svg:text>
<svg:g class="stroked-text"><svg:desc>1</svg:desc>
<svg:path d="M360879 115880 L353451 115880 "/>
<svg:path d="M357165 115880 L357165 102880 L355927 104738 L354689 105976 L353451 106595 "/>
</svg:g><svg:path d="M2600000 120000 L2600000 100000 "/>
<svg:path d="M2100000 120000 L2100000 100000 "/>
<svg:path d="M1600000 120000 L1600000 100000 "/>
<svg:path d="M1100000 120000 L1100000 100000 "/>
<svg:path d="M600000 120000 L600000 100000 "/>
<svg:path d="M120000 120000 L2850000 120000 "/>
<svg:path d="M2850000 120000 L2850000 1980000 "/>
<svg:path d="M2850000 1980000 L120000 1980000 "/>
<svg:path d="M120000 1980000 L120000 120000 "/>
<svg:path d="M100000 100000 L2870000 100000 "/>
<svg:path d="M2870000 100000 L2870000 2000000 "/>
<svg:path d="M2870000 2000000 L100000 2000000 "/>
<svg:path d="M100000 2000000 L100000 100000 "/>
<svg:path d="M1770000 1660000 L2850000 1660000 "/>
<svg:path d="M2850000 1660000 L2850000 1980000 "/>
<svg:path d="M2850000 1980000 L1770000 1980000 "/>
<svg:path d="M1770000 1980000 L1770000 1660000 "/>
<svg:g>
</svg:g>
<svg:g>
</svg:g>
<svg:g>
</svg:g>
<svg:g>
</svg:g>
<svg:g>
</svg:g>
<svg:g>
</svg:g>
<svg:g>
</svg:g>
<svg:g>
</svg:g>
<svg:g>
</svg:g>
<svg:g>
</svg:g>
<svg:g>
</svg:g>
<svg:g>
</svg:g>
<svg:g>
</svg:g>
<svg:g>
</svg:g>
<svg:g>
</svg:g>
<svg:g>
</svg:g>
<svg:g>
</svg:g>
<svg:g>
</svg:g>
<svg:g>
</svg:g>
<svg:g>
</svg:g>
<svg:g>
</svg:g>
<svg:g>
</svg:g>
<svg:g>
</svg:g>
<svg:g>
</svg:g>
<svg:g>
</svg:g>
<svg:g>
</svg:g>
<svg:g>
</svg:g>
<svg:g>
</svg:g>
<svg:g>
</svg:g>
<svg:g>
</svg:g>
<svg:g>
</svg:g>
<svg:g>
</svg:g>
<svg:g>
</svg:g>
<svg:g>
</svg:g>
<svg:g>
</svg:g>
<svg:g>
</svg:g>
<svg:g>
</svg:g>
<svg:g>
</svg:g>
<svg:g>
</svg:g>
<svg:g>
</svg:g>
<svg:g>
</svg:g>
<svg:g>
</svg:g>
<svg:g>
</svg:g>
<svg:g>
</svg:g>
<svg:g>
</svg:g>
<svg:g>
</svg:g>
<svg:g>
</svg:g>
<svg:g>
</svg:g>
<svg:g>
</svg:g>
<svg:g>
</svg:g>
</svg:g> 
</svg:g></svg:g></svg>
