<?xml version="1.0" standalone="no"?>
 <!DOCTYPE svg PUBLIC "-//W3C//DTD SVG 1.1//EN" 
 "http://www.w3.org/Graphics/SVG/1.1/DTD/svg11.dtd"> 
<svg
  xmlns:svg="http://www.w3.org/2000/svg"
  xmlns="http://www.w3.org/2000/svg"
  xmlns:xlink="http://www.w3.org/1999/xlink"
  version="1.1"
  width="29.700220cm" height="21.000720cm" viewBox="0 0 297002200 210007200">
<title>SVG Picture created as t1-F_Silkscreen.svg date 2022/09/27 14:41:24 </title>
  <desc>Picture generated by PCBNEW </desc>
<g style="fill:#000000; fill-opacity:1.000000;stroke:#000000; stroke-opacity:1.000000;
stroke-linecap:round; stroke-linejoin:round;"
 transform="translate(0 0) scale(1 1)">
</g>
<g style="fill:#000000; fill-opacity:0.0; 
stroke:#000000; stroke-width:0.000000; stroke-opacity:1; 
stroke-linecap:round; stroke-linejoin:round;">
</g>
<g style="fill:#000000; fill-opacity:0.0; 
stroke:#000000; stroke-width:150000.000000; stroke-opacity:1; 
stroke-linecap:round; stroke-linejoin:round;">
<text x="135839200.000000" y="90543000.000000"
textLength="2147381.000000" font-size="1333333.000000" lengthAdjust="spacingAndGlyphs"
text-anchor="middle" opacity="0">C1</text>
<g class="stroked-text"><desc>C1</desc>
<path d="M135672533 90400142
L135624914 90447761
L135482057 90495380
L135386819 90495380
L135243961 90447761
L135148723 90352523
L135101104 90257285
L135053485 90066809
L135053485 89923952
L135101104 89733476
L135148723 89638238
L135243961 89543000
L135386819 89495380
L135482057 89495380
L135624914 89543000
L135672533 89590619
" />
<path d="M136624914 90495380
L136053485 90495380
" />
<path d="M136339200 90495380
L136339200 89495380
L136243961 89638238
L136148723 89733476
L136053485 89781095
" />
</g><text x="122936000.000000" y="93337000.000000"
textLength="2147381.000000" font-size="1333333.000000" lengthAdjust="spacingAndGlyphs"
text-anchor="middle" opacity="0">C2</text>
<g class="stroked-text"><desc>C2</desc>
<path d="M122769333 93194142
L122721714 93241761
L122578857 93289380
L122483619 93289380
L122340761 93241761
L122245523 93146523
L122197904 93051285
L122150285 92860809
L122150285 92717952
L122197904 92527476
L122245523 92432238
L122340761 92337000
L122483619 92289380
L122578857 92289380
L122721714 92337000
L122769333 92384619
" />
<path d="M123150285 92384619
L123197904 92337000
L123293142 92289380
L123531238 92289380
L123626476 92337000
L123674095 92384619
L123721714 92479857
L123721714 92575095
L123674095 92717952
L123102666 93289380
L123721714 93289380
" />
</g><text x="164363400.000000" y="74617200.000000"
textLength="2147381.000000" font-size="1333333.000000" lengthAdjust="spacingAndGlyphs"
text-anchor="middle" opacity="0">C3</text>
<g class="stroked-text"><desc>C3</desc>
<path d="M164196733 74474342
L164149114 74521961
L164006257 74569580
L163911019 74569580
L163768161 74521961
L163672923 74426723
L163625304 74331485
L163577685 74141009
L163577685 73998152
L163625304 73807676
L163672923 73712438
L163768161 73617200
L163911019 73569580
L164006257 73569580
L164149114 73617200
L164196733 73664819
" />
<path d="M164530066 73569580
L165149114 73569580
L164815780 73950533
L164958638 73950533
L165053876 73998152
L165101495 74045771
L165149114 74141009
L165149114 74379104
L165101495 74474342
L165053876 74521961
L164958638 74569580
L164672923 74569580
L164577685 74521961
L164530066 74474342
" />
</g><text x="153797000.000000" y="75557000.000000"
textLength="2147381.000000" font-size="1333333.000000" lengthAdjust="spacingAndGlyphs"
text-anchor="middle" opacity="0">C4</text>
<g class="stroked-text"><desc>C4</desc>
<path d="M153630333 75414142
L153582714 75461761
L153439857 75509380
L153344619 75509380
L153201761 75461761
L153106523 75366523
L153058904 75271285
L153011285 75080809
L153011285 74937952
L153058904 74747476
L153106523 74652238
L153201761 74557000
L153344619 74509380
L153439857 74509380
L153582714 74557000
L153630333 74604619
" />
<path d="M154487476 74842714
L154487476 75509380
" />
<path d="M154249380 74461761
L154011285 75176047
L154630333 75176047
" />
</g><text x="163322000.000000" y="87241000.000000"
textLength="2147381.000000" font-size="1333333.000000" lengthAdjust="spacingAndGlyphs"
text-anchor="middle" opacity="0">C5</text>
<g class="stroked-text"><desc>C5</desc>
<path d="M163155333 87098142
L163107714 87145761
L162964857 87193380
L162869619 87193380
L162726761 87145761
L162631523 87050523
L162583904 86955285
L162536285 86764809
L162536285 86621952
L162583904 86431476
L162631523 86336238
L162726761 86241000
L162869619 86193380
L162964857 86193380
L163107714 86241000
L163155333 86288619
" />
<path d="M164060095 86193380
L163583904 86193380
L163536285 86669571
L163583904 86621952
L163679142 86574333
L163917238 86574333
L164012476 86621952
L164060095 86669571
L164107714 86764809
L164107714 87002904
L164060095 87098142
L164012476 87145761
L163917238 87193380
L163679142 87193380
L163583904 87145761
L163536285 87098142
" />
</g><text x="156845000.000000" y="79417800.000000"
textLength="2147381.000000" font-size="1333333.000000" lengthAdjust="spacingAndGlyphs"
text-anchor="middle" opacity="0">C7</text>
<g class="stroked-text"><desc>C7</desc>
<path d="M156678333 79274942
L156630714 79322561
L156487857 79370180
L156392619 79370180
L156249761 79322561
L156154523 79227323
L156106904 79132085
L156059285 78941609
L156059285 78798752
L156106904 78608276
L156154523 78513038
L156249761 78417800
L156392619 78370180
L156487857 78370180
L156630714 78417800
L156678333 78465419
" />
<path d="M157011666 78370180
L157678333 78370180
L157249761 79370180
" />
</g><text x="146761200.000000" y="79646400.000000"
textLength="2147381.000000" font-size="1333333.000000" lengthAdjust="spacingAndGlyphs"
text-anchor="middle" opacity="0">C8</text>
<g class="stroked-text"><desc>C8</desc>
<path d="M146594533 79503542
L146546914 79551161
L146404057 79598780
L146308819 79598780
L146165961 79551161
L146070723 79455923
L146023104 79360685
L145975485 79170209
L145975485 79027352
L146023104 78836876
L146070723 78741638
L146165961 78646400
L146308819 78598780
L146404057 78598780
L146546914 78646400
L146594533 78694019
" />
<path d="M147165961 79027352
L147070723 78979733
L147023104 78932114
L146975485 78836876
L146975485 78789257
L147023104 78694019
L147070723 78646400
L147165961 78598780
L147356438 78598780
L147451676 78646400
L147499295 78694019
L147546914 78789257
L147546914 78836876
L147499295 78932114
L147451676 78979733
L147356438 79027352
L147165961 79027352
L147070723 79074971
L147023104 79122590
L146975485 79217828
L146975485 79408304
L147023104 79503542
L147070723 79551161
L147165961 79598780
L147356438 79598780
L147451676 79551161
L147499295 79503542
L147546914 79408304
L147546914 79217828
L147499295 79122590
L147451676 79074971
L147356438 79027352
" />
</g><text x="162864800.000000" y="94226000.000000"
textLength="2147381.000000" font-size="1333333.000000" lengthAdjust="spacingAndGlyphs"
text-anchor="middle" opacity="0">D1</text>
<g class="stroked-text"><desc>D1</desc>
<path d="M162126704 94178380
L162126704 93178380
L162364800 93178380
L162507657 93226000
L162602895 93321238
L162650514 93416476
L162698133 93606952
L162698133 93749809
L162650514 93940285
L162602895 94035523
L162507657 94130761
L162364800 94178380
L162126704 94178380
" />
<path d="M163650514 94178380
L163079085 94178380
" />
<path d="M163364800 94178380
L163364800 93178380
L163269561 93321238
L163174323 93416476
L163079085 93464095
" />
</g><text x="149377400.000000" y="75455400.000000"
textLength="2147381.000000" font-size="1333333.000000" lengthAdjust="spacingAndGlyphs"
text-anchor="middle" opacity="0">D2</text>
<g class="stroked-text"><desc>D2</desc>
<path d="M148639304 75407780
L148639304 74407780
L148877400 74407780
L149020257 74455400
L149115495 74550638
L149163114 74645876
L149210733 74836352
L149210733 74979209
L149163114 75169685
L149115495 75264923
L149020257 75360161
L148877400 75407780
L148639304 75407780
" />
<path d="M149591685 74503019
L149639304 74455400
L149734542 74407780
L149972638 74407780
L150067876 74455400
L150115495 74503019
L150163114 74598257
L150163114 74693495
L150115495 74836352
L149544066 75407780
L150163114 75407780
" />
</g><text x="142595600.000000" y="74363200.000000"
textLength="2147381.000000" font-size="1333333.000000" lengthAdjust="spacingAndGlyphs"
text-anchor="middle" opacity="0">D3</text>
<g class="stroked-text"><desc>D3</desc>
<path d="M141857504 74315580
L141857504 73315580
L142095600 73315580
L142238457 73363200
L142333695 73458438
L142381314 73553676
L142428933 73744152
L142428933 73887009
L142381314 74077485
L142333695 74172723
L142238457 74267961
L142095600 74315580
L141857504 74315580
" />
<path d="M142762266 73315580
L143381314 73315580
L143047980 73696533
L143190838 73696533
L143286076 73744152
L143333695 73791771
L143381314 73887009
L143381314 74125104
L143333695 74220342
L143286076 74267961
L143190838 74315580
L142905123 74315580
L142809885 74267961
L142762266 74220342
" />
</g><text x="167894000.000000" y="75066000.000000"
textLength="2004524.000000" font-size="1333333.000000" lengthAdjust="spacingAndGlyphs"
text-anchor="middle" opacity="0">F1</text>
<g class="stroked-text"><desc>F1</desc>
<path d="M167560666 74494571
L167227333 74494571
" />
<path d="M167227333 75018380
L167227333 74018380
L167703523 74018380
" />
<path d="M168608285 75018380
L168036857 75018380
" />
<path d="M168322571 75018380
L168322571 74018380
L168227333 74161238
L168132095 74256476
L168036857 74304095
" />
</g><text x="167894000.000000" y="92828000.000000"
textLength="3004524.000000" font-size="1333333.000000" lengthAdjust="spacingAndGlyphs"
text-anchor="middle" opacity="0">FB1</text>
<g class="stroked-text"><desc>FB1</desc>
<path d="M167060666 92256571
L166727333 92256571
" />
<path d="M166727333 92780380
L166727333 91780380
L167203523 91780380
" />
<path d="M167917809 92256571
L168060666 92304190
L168108285 92351809
L168155904 92447047
L168155904 92589904
L168108285 92685142
L168060666 92732761
L167965428 92780380
L167584476 92780380
L167584476 91780380
L167917809 91780380
L168013047 91828000
L168060666 91875619
L168108285 91970857
L168108285 92066095
L168060666 92161333
L168013047 92208952
L167917809 92256571
L167584476 92256571
" />
<path d="M169108285 92780380
L168536857 92780380
" />
<path d="M168822571 92780380
L168822571 91780380
L168727333 91923238
L168632095 92018476
L168536857 92066095
" />
</g><text x="131978400.000000" y="87952200.000000"
textLength="1909286.000000" font-size="1333333.000000" lengthAdjust="spacingAndGlyphs"
text-anchor="middle" opacity="0">J1</text>
<g class="stroked-text"><desc>J1</desc>
<path d="M131645066 86904580
L131645066 87618866
L131597447 87761723
L131502209 87856961
L131359352 87904580
L131264114 87904580
" />
<path d="M132645066 87904580
L132073638 87904580
" />
<path d="M132359352 87904580
L132359352 86904580
L132264114 87047438
L132168876 87142676
L132073638 87190295
" />
</g><text x="136144000.000000" y="82897600.000000"
textLength="1909286.000000" font-size="1333333.000000" lengthAdjust="spacingAndGlyphs"
text-anchor="middle" opacity="0">J3</text>
<g class="stroked-text"><desc>J3</desc>
<path d="M135810666 81849980
L135810666 82564266
L135763047 82707123
L135667809 82802361
L135524952 82849980
L135429714 82849980
" />
<path d="M136191619 81849980
L136810666 81849980
L136477333 82230933
L136620190 82230933
L136715428 82278552
L136763047 82326171
L136810666 82421409
L136810666 82659504
L136763047 82754742
L136715428 82802361
L136620190 82849980
L136334476 82849980
L136239238 82802361
L136191619 82754742
" />
</g><text x="153136600.000000" y="93108400.000000"
textLength="1909286.000000" font-size="1333333.000000" lengthAdjust="spacingAndGlyphs"
text-anchor="middle" opacity="0">J4</text>
<g class="stroked-text"><desc>J4</desc>
<path d="M152803266 92060780
L152803266 92775066
L152755647 92917923
L152660409 93013161
L152517552 93060780
L152422314 93060780
" />
<path d="M153708028 92394114
L153708028 93060780
" />
<path d="M153469933 92013161
L153231838 92727447
L153850885 92727447
" />
</g><text x="145948400.000000" y="93108400.000000"
textLength="1909286.000000" font-size="1333333.000000" lengthAdjust="spacingAndGlyphs"
text-anchor="middle" opacity="0">J5</text>
<g class="stroked-text"><desc>J5</desc>
<path d="M145615066 92060780
L145615066 92775066
L145567447 92917923
L145472209 93013161
L145329352 93060780
L145234114 93060780
" />
<path d="M146567447 92060780
L146091257 92060780
L146043638 92536971
L146091257 92489352
L146186495 92441733
L146424590 92441733
L146519828 92489352
L146567447 92536971
L146615066 92632209
L146615066 92870304
L146567447 92965542
L146519828 93013161
L146424590 93060780
L146186495 93060780
L146091257 93013161
L146043638 92965542
" />
</g><text x="140614400.000000" y="75125200.000000"
textLength="1909286.000000" font-size="1333333.000000" lengthAdjust="spacingAndGlyphs"
text-anchor="middle" opacity="0">J6</text>
<g class="stroked-text"><desc>J6</desc>
<path d="M140281066 74077580
L140281066 74791866
L140233447 74934723
L140138209 75029961
L139995352 75077580
L139900114 75077580
" />
<path d="M141185828 74077580
L140995352 74077580
L140900114 74125200
L140852495 74172819
L140757257 74315676
L140709638 74506152
L140709638 74887104
L140757257 74982342
L140804876 75029961
L140900114 75077580
L141090590 75077580
L141185828 75029961
L141233447 74982342
L141281066 74887104
L141281066 74649009
L141233447 74553771
L141185828 74506152
L141090590 74458533
L140900114 74458533
L140804876 74506152
L140757257 74553771
L140709638 74649009
" />
</g><text x="167309800.000000" y="98721800.000000"
textLength="2909286.000000" font-size="1333333.000000" lengthAdjust="spacingAndGlyphs"
text-anchor="middle" opacity="0">JP1</text>
<g class="stroked-text"><desc>JP1</desc>
<path d="M166476466 97674180
L166476466 98388466
L166428847 98531323
L166333609 98626561
L166190752 98674180
L166095514 98674180
" />
<path d="M166952657 98674180
L166952657 97674180
L167333609 97674180
L167428847 97721800
L167476466 97769419
L167524085 97864657
L167524085 98007514
L167476466 98102752
L167428847 98150371
L167333609 98197990
L166952657 98197990
" />
<path d="M168476466 98674180
L167905038 98674180
" />
<path d="M168190752 98674180
L168190752 97674180
L168095514 97817038
L168000276 97912276
L167905038 97959895
" />
</g><text x="166446200.000000" y="88409400.000000"
textLength="2147381.000000" font-size="1333333.000000" lengthAdjust="spacingAndGlyphs"
text-anchor="middle" opacity="0">R1</text>
<g class="stroked-text"><desc>R1</desc>
<path d="M166279533 88361780
L165946200 87885590
" />
<path d="M165708104 88361780
L165708104 87361780
L166089057 87361780
L166184295 87409400
L166231914 87457019
L166279533 87552257
L166279533 87695114
L166231914 87790352
L166184295 87837971
L166089057 87885590
L165708104 87885590
" />
<path d="M167231914 88361780
L166660485 88361780
" />
<path d="M166946200 88361780
L166946200 87361780
L166850961 87504638
L166755723 87599876
L166660485 87647495
" />
</g><text x="166370000.000000" y="82670000.000000"
textLength="2147381.000000" font-size="1333333.000000" lengthAdjust="spacingAndGlyphs"
text-anchor="middle" opacity="0">R2</text>
<g class="stroked-text"><desc>R2</desc>
<path d="M166203333 82622380
L165870000 82146190
" />
<path d="M165631904 82622380
L165631904 81622380
L166012857 81622380
L166108095 81670000
L166155714 81717619
L166203333 81812857
L166203333 81955714
L166155714 82050952
L166108095 82098571
L166012857 82146190
L165631904 82146190
" />
<path d="M166584285 81717619
L166631904 81670000
L166727142 81622380
L166965238 81622380
L167060476 81670000
L167108095 81717619
L167155714 81812857
L167155714 81908095
L167108095 82050952
L166536666 82622380
L167155714 82622380
" />
</g><text x="158958000.000000" y="78028000.000000"
textLength="2147381.000000" font-size="1333333.000000" lengthAdjust="spacingAndGlyphs"
text-anchor="middle" opacity="0">R3</text>
<g class="stroked-text"><desc>R3</desc>
<path d="M158791333 77980380
L158458000 77504190
" />
<path d="M158219904 77980380
L158219904 76980380
L158600857 76980380
L158696095 77028000
L158743714 77075619
L158791333 77170857
L158791333 77313714
L158743714 77408952
L158696095 77456571
L158600857 77504190
L158219904 77504190
" />
<path d="M159124666 76980380
L159743714 76980380
L159410380 77361333
L159553238 77361333
L159648476 77408952
L159696095 77456571
L159743714 77551809
L159743714 77789904
L159696095 77885142
L159648476 77932761
L159553238 77980380
L159267523 77980380
L159172285 77932761
L159124666 77885142
" />
</g><text x="159105600.000000" y="93819600.000000"
textLength="2147381.000000" font-size="1333333.000000" lengthAdjust="spacingAndGlyphs"
text-anchor="middle" opacity="0">R4</text>
<g class="stroked-text"><desc>R4</desc>
<path d="M158938933 93771980
L158605600 93295790
" />
<path d="M158367504 93771980
L158367504 92771980
L158748457 92771980
L158843695 92819600
L158891314 92867219
L158938933 92962457
L158938933 93105314
L158891314 93200552
L158843695 93248171
L158748457 93295790
L158367504 93295790
" />
<path d="M159796076 93105314
L159796076 93771980
" />
<path d="M159557980 92724361
L159319885 93438647
L159938933 93438647
" />
</g><text x="144780000.000000" y="85869400.000000"
textLength="2147381.000000" font-size="1333333.000000" lengthAdjust="spacingAndGlyphs"
text-anchor="middle" opacity="0">R5</text>
<g class="stroked-text"><desc>R5</desc>
<path d="M144613333 85821780
L144280000 85345590
" />
<path d="M144041904 85821780
L144041904 84821780
L144422857 84821780
L144518095 84869400
L144565714 84917019
L144613333 85012257
L144613333 85155114
L144565714 85250352
L144518095 85297971
L144422857 85345590
L144041904 85345590
" />
<path d="M145518095 84821780
L145041904 84821780
L144994285 85297971
L145041904 85250352
L145137142 85202733
L145375238 85202733
L145470476 85250352
L145518095 85297971
L145565714 85393209
L145565714 85631304
L145518095 85726542
L145470476 85774161
L145375238 85821780
L145137142 85821780
L145041904 85774161
L144994285 85726542
" />
</g><text x="147320000.000000" y="68216400.000000"
textLength="2147381.000000" font-size="1333333.000000" lengthAdjust="spacingAndGlyphs"
text-anchor="middle" opacity="0">R6</text>
<g class="stroked-text"><desc>R6</desc>
<path d="M147153333 68168780
L146820000 67692590
" />
<path d="M146581904 68168780
L146581904 67168780
L146962857 67168780
L147058095 67216400
L147105714 67264019
L147153333 67359257
L147153333 67502114
L147105714 67597352
L147058095 67644971
L146962857 67692590
L146581904 67692590
" />
<path d="M148010476 67168780
L147820000 67168780
L147724761 67216400
L147677142 67264019
L147581904 67406876
L147534285 67597352
L147534285 67978304
L147581904 68073542
L147629523 68121161
L147724761 68168780
L147915238 68168780
L148010476 68121161
L148058095 68073542
L148105714 67978304
L148105714 67740209
L148058095 67644971
L148010476 67597352
L147915238 67549733
L147724761 67549733
L147629523 67597352
L147581904 67644971
L147534285 67740209
" />
</g><text x="144856200.000000" y="68267200.000000"
textLength="2147381.000000" font-size="1333333.000000" lengthAdjust="spacingAndGlyphs"
text-anchor="middle" opacity="0">R7</text>
<g class="stroked-text"><desc>R7</desc>
<path d="M144689533 68219580
L144356200 67743390
" />
<path d="M144118104 68219580
L144118104 67219580
L144499057 67219580
L144594295 67267200
L144641914 67314819
L144689533 67410057
L144689533 67552914
L144641914 67648152
L144594295 67695771
L144499057 67743390
L144118104 67743390
" />
<path d="M145022866 67219580
L145689533 67219580
L145260961 68219580
" />
</g><text x="170332400.000000" y="85640800.000000"
textLength="3004524.000000" font-size="1333333.000000" lengthAdjust="spacingAndGlyphs"
text-anchor="middle" opacity="0">VR1</text>
<g class="stroked-text"><desc>VR1</desc>
<path d="M169022876 84593180
L169356209 85593180
L169689542 84593180
" />
<path d="M170594304 85593180
L170260971 85116990
" />
<path d="M170022876 85593180
L170022876 84593180
L170403828 84593180
L170499066 84640800
L170546685 84688419
L170594304 84783657
L170594304 84926514
L170546685 85021752
L170499066 85069371
L170403828 85116990
L170022876 85116990
" />
<path d="M171546685 85593180
L170975257 85593180
" />
<path d="M171260971 85593180
L171260971 84593180
L171165733 84736038
L171070495 84831276
L170975257 84878895
" />
</g><text x="158927800.000000" y="73327800.000000"
textLength="2004524.000000" font-size="1333333.000000" lengthAdjust="spacingAndGlyphs"
text-anchor="middle" opacity="0">Y1</text>
<g class="stroked-text"><desc>Y1</desc>
<path d="M158451609 72803990
L158451609 73280180
" />
<path d="M158118276 72280180
L158451609 72803990
L158784942 72280180
" />
<path d="M159642085 73280180
L159070657 73280180
" />
<path d="M159356371 73280180
L159356371 72280180
L159261133 72423038
L159165895 72518276
L159070657 72565895
" />
</g><text x="173431200.000000" y="75633200.000000"
textLength="1909286.000000" font-size="1333333.000000" lengthAdjust="spacingAndGlyphs"
text-anchor="middle" opacity="0">J2</text>
<g class="stroked-text"><desc>J2</desc>
<path d="M173097866 74585580
L173097866 75299866
L173050247 75442723
L172955009 75537961
L172812152 75585580
L172716914 75585580
" />
<path d="M173526438 74680819
L173574057 74633200
L173669295 74585580
L173907390 74585580
L174002628 74633200
L174050247 74680819
L174097866 74776057
L174097866 74871295
L174050247 75014152
L173478819 75585580
L174097866 75585580
" />
</g><text x="149961600.000000" y="80129000.000000"
textLength="2195000.000000" font-size="1333333.000000" lengthAdjust="spacingAndGlyphs"
text-anchor="middle" opacity="0">U1</text>
<g class="stroked-text"><desc>U1</desc>
<path d="M149199695 79081380
L149199695 79890904
L149247314 79986142
L149294933 80033761
L149390171 80081380
L149580647 80081380
L149675885 80033761
L149723504 79986142
L149771123 79890904
L149771123 79081380
" />
<path d="M150771123 80081380
L150199695 80081380
" />
<path d="M150485409 80081380
L150485409 79081380
L150390171 79224238
L150294933 79319476
L150199695 79367095
" />
</g><text x="170281600.000000" y="80611600.000000"
textLength="3004524.000000" font-size="1333333.000000" lengthAdjust="spacingAndGlyphs"
text-anchor="middle" opacity="0">VR2</text>
<g class="stroked-text"><desc>VR2</desc>
<path d="M168972076 79563980
L169305409 80563980
L169638742 79563980
" />
<path d="M170543504 80563980
L170210171 80087790
" />
<path d="M169972076 80563980
L169972076 79563980
L170353028 79563980
L170448266 79611600
L170495885 79659219
L170543504 79754457
L170543504 79897314
L170495885 79992552
L170448266 80040171
L170353028 80087790
L169972076 80087790
" />
<path d="M170924457 79659219
L170972076 79611600
L171067314 79563980
L171305409 79563980
L171400647 79611600
L171448266 79659219
L171495885 79754457
L171495885 79849695
L171448266 79992552
L170876838 80563980
L171495885 80563980
" />
</g><text x="162356800.000000" y="80052800.000000"
textLength="2147381.000000" font-size="1333333.000000" lengthAdjust="spacingAndGlyphs"
text-anchor="middle" opacity="0">C6</text>
<g class="stroked-text"><desc>C6</desc>
<path d="M162190133 79909942
L162142514 79957561
L161999657 80005180
L161904419 80005180
L161761561 79957561
L161666323 79862323
L161618704 79767085
L161571085 79576609
L161571085 79433752
L161618704 79243276
L161666323 79148038
L161761561 79052800
L161904419 79005180
L161999657 79005180
L162142514 79052800
L162190133 79100419
" />
<path d="M163047276 79005180
L162856800 79005180
L162761561 79052800
L162713942 79100419
L162618704 79243276
L162571085 79433752
L162571085 79814704
L162618704 79909942
L162666323 79957561
L162761561 80005180
L162952038 80005180
L163047276 79957561
L163094895 79909942
L163142514 79814704
L163142514 79576609
L163094895 79481371
L163047276 79433752
L162952038 79386133
L162761561 79386133
L162666323 79433752
L162618704 79481371
L162571085 79576609
" />
</g></g>
<g style="fill:#000000; fill-opacity:0.0; 
stroke:#000000; stroke-width:120000.000000; stroke-opacity:1; 
stroke-linecap:round; stroke-linejoin:round;">
<path d="M127639837 90634400
L126575400 91698837
" />
<path d="M133345400 89394400
L133345400 90394400
" />
<path d="M135095400 99154400
L132345400 99154400
" />
<path d="M127639837 90634400
L129325400 90634400
" />
<path d="M126575400 99154400
L129325400 99154400
" />
<path d="M126575400 91698837
L126575400 99154400
" />
<path d="M134030963 90634400
L135095400 91698837
" />
<path d="M135095400 91698837
L135095400 99154400
" />
<path d="M133845400 89894400
L132845400 89894400
" />
<path d="M134030963 90634400
L132345400 90634400
" />
<path d="M122741422 90190000
L123258578 90190000
" />
<path d="M122741422 91610000
L123258578 91610000
" />
<path d="M161550000 74857422
L161550000 75374578
" />
<path d="M162970000 74857422
L162970000 75374578
" />
<path d="M156620000 74857422
L156620000 75374578
" />
<path d="M155200000 74857422
L155200000 75374578
" />
<path d="M164032000 88895422
L164032000 89412578
" />
<path d="M162612000 88895422
L162612000 89412578
" />
<path d="M153716222 78157000
L154233378 78157000
" />
<path d="M153716222 79577000
L154233378 79577000
" />
<path d="M145464600 79227178
L145464600 78710022
" />
<path d="M144044600 79227178
L144044600 78710022
" />
<path d="M163949000 99059000
L163949000 95174000
" />
<path d="M161679000 95174000
L161679000 99059000
" />
<path d="M161679000 99059000
L163949000 99059000
" />
<path d="M146360000 76635000
L148280000 76635000
" />
<path d="M146360000 73950000
L146360000 76635000
" />
<path d="M148280000 76635000
L148280000 73950000
" />
<path d="M143820000 76635000
L145740000 76635000
" />
<path d="M145740000 76635000
L145740000 73950000
" />
<path d="M143820000 73950000
L143820000 76635000
" />
<path d="M166507748 75506000
L169280252 75506000
" />
<path d="M166507748 78926000
L169280252 78926000
" />
<path d="M168152578 91388000
L167635422 91388000
" />
<path d="M168152578 89968000
L167635422 89968000
" />
<path d="M121300000 84200000
L126100000 84200000
" />
<path d="M123180000 73940000
L121840000 73940000
" />
<path d="M130600000 85760000
L132910000 85760000
" />
<path d="M117990000 76640000
L121600000 76640000
" />
<path d="M130600000 76640000
L132910000 76640000
" />
<path d="M117990000 85760000
L121600000 85760000
" />
<path d="M121300000 78200000
L126100000 78200000
" />
<path d="M124600000 85760000
L127600000 85760000
" />
<path d="M121300000 85760000
L121300000 76640000
" />
<path d="M117990000 85760000
L117990000 76640000
" />
<path d="M121840000 73940000
L121840000 75840000
" />
<path d="M124600000 76640000
L127600000 76640000
" />
<path d="M132910000 85760000
L132910000 76640000
" />
<path d="M126100000.000000 84200000.000000 A3000000.000000 3000000.000000 0.0 0 0 126100000.000000 78200000.000000" />
<path d="M134970000 78230000
L134970000 68010000
" />
<path d="M137630000 78230000
L137630000 68010000
" />
<path d="M137630000 79500000
L137630000 80830000
" />
<path d="M137630000 80830000
L136300000 80830000
" />
<path d="M137630000 78230000
L134970000 78230000
" />
<path d="M137630000 68010000
L134970000 68010000
" />
<path d="M150562000 99120000
L155762000 99120000
" />
<path d="M153162000 93920000
L155762000 93920000
" />
<path d="M153162000 96520000
L153162000 93920000
" />
<path d="M150562000 96520000
L153162000 96520000
" />
<path d="M150562000 93920000
L151892000 93920000
" />
<path d="M155762000 93920000
L155762000 99120000
" />
<path d="M150562000 96520000
L150562000 99120000
" />
<path d="M150562000 95250000
L150562000 93920000
" />
<path d="M139792400 99094600
L139792400 97764600
" />
<path d="M141122400 99094600
L139792400 99094600
" />
<path d="M139792400 93894600
L147532400 93894600
" />
<path d="M147532400 99094600
L147532400 93894600
" />
<path d="M139792400 96494600
L139792400 93894600
" />
<path d="M142392400 99094600
L147532400 99094600
" />
<path d="M142392400 99094600
L142392400 96494600
" />
<path d="M142392400 96494600
L139792400 96494600
" />
<path d="M139640000 78486000
L139640000 91246000
" />
<path d="M142300000 78486000
L142300000 91246000
" />
<path d="M139640000 91246000
L142300000 91246000
" />
<path d="M139640000 78486000
L142300000 78486000
" />
<path d="M139640000 75886000
L140970000 75886000
" />
<path d="M139640000 77216000
L139640000 75886000
" />
<path d="M167559000 97183400
L166959000 97183400
" />
<path d="M166259000 96483400
L166259000 95083400
" />
<path d="M168259000 95083400
L168259000 96483400
" />
<path d="M166959000 94383400
L167559000 94383400
" />
<path d="M166959000.000000 94383400.000001 A699999.000000 699999.000000 0.0 0 0 166259000.000001 95083400.000000" />
<path d="M168258999.999999 95083400.000000 A699999.000000 699999.000000 0.0 0 0 167559000.000000 94383400.000001" />
<path d="M166259000.000000 96483400.000000 A700000.000000 700000.000000 0.0 0 0 166959000.000000 97183400.000000" />
<path d="M167559000.000000 97183400.000000 A700000.000000 700000.000000 0.0 0 0 168259000.000000 96483400.000000" />
<path d="M166111422 85396000
L166628578 85396000
" />
<path d="M166111422 86816000
L166628578 86816000
" />
<path d="M166111422 84530000
L166628578 84530000
" />
<path d="M166111422 83110000
L166628578 83110000
" />
<path d="M159216578 76588000
L158699422 76588000
" />
<path d="M159216578 75168000
L158699422 75168000
" />
<path d="M158294000 96016578
L158294000 95499422
" />
<path d="M159714000 96016578
L159714000 95499422
" />
<path d="M145464600 82545422
L145464600 83062578
" />
<path d="M144044600 82545422
L144044600 83062578
" />
<path d="M148030000 69916222
L148030000 70433378
" />
<path d="M146610000 69916222
L146610000 70433378
" />
<path d="M144070000 69916222
L144070000 70433378
" />
<path d="M145490000 69916222
L145490000 70433378
" />
<path d="M170944000 87187721
L170944000 87513279
" />
<path d="M169924000 87187721
L169924000 87513279
" />
<path d="M162127800 71827800
L162127800 68227800
" />
<path d="M162127800 68227800
L156227800 68227800
" />
<path d="M156227800 71827800
L162127800 71827800
" />
<path d="M172132000 76674000
L175882000 76674000
" />
<path d="M188752000 76674000
L180782000 76674000
" />
<path d="M171432000 81034000
L171432000 82034000
" />
<path d="M171932000 81534000
L171432000 81034000
" />
<path d="M172132000 88894000
L172132000 76674000
" />
<path d="M188752000 88894000
L180782000 88894000
" />
<path d="M188752000 88894000
L188752000 76674000
" />
<path d="M171432000 82034000
L171932000 81534000
" />
<path d="M172132000 88894000
L175882000 88894000
" />
</g>
<g style="fill:#000000; fill-opacity:0.0; 
stroke:#000000; stroke-width:150000.000000; stroke-opacity:1; 
stroke-linecap:round; stroke-linejoin:round;">
<path d="M158057000 89477000
L157732000 89477000
" />
<path d="M158057000 89477000
L158057000 89152000
" />
<path d="M150807000 82227000
L151132000 82227000
" />
<path d="M150807000 89477000
L151132000 89477000
" />
<path d="M158057000 82227000
L157832000 82227000
" />
<path d="M158057000 82227000
L158057000 82552000
" />
<path d="M150807000 82227000
L150807000 82552000
" />
<path d="M157832000 82227000
L157832000 80802000
" />
<path d="M150807000 89477000
L150807000 89152000
" />
</g>
<g style="fill:#000000; fill-opacity:0.0; 
stroke:#000000; stroke-width:120000.000000; stroke-opacity:1; 
stroke-linecap:round; stroke-linejoin:round;">
<path d="M170944000 82484179
L170944000 82158621
" />
<path d="M169924000 82484179
L169924000 82158621
" />
<path d="M161672200 82325978
L161672200 81808822
" />
<path d="M163092200 82325978
L163092200 81808822
" />
<g >
</g>
<g >
</g>
<g >
</g>
<g >
</g>
<g >
</g>
<g >
</g>
<g >
</g>
<g >
</g>
<g >
</g>
<g >
</g>
<g >
</g>
<g >
</g>
<g >
</g>
<g >
</g>
<g >
</g>
<g >
</g>
<g >
</g>
<g >
</g>
<g >
</g>
<g >
</g>
<g >
</g>
<g >
</g>
<g >
</g>
<g >
</g>
<g >
</g>
<g >
</g>
<g >
</g>
<g >
</g>
<g >
</g>
<g >
</g>
<g >
</g>
<g >
</g>
<g >
</g>
<g >
</g>
<g >
</g>
<g >
</g>
<g >
</g>
<g >
</g>
<g >
</g>
<g >
</g>
<g >
</g>
<g >
</g>
<g >
</g>
<g >
</g>
<g >
</g>
<g >
</g>
<g >
</g>
<g >
</g>
<g >
</g>
<g >
</g>
</g> 
</svg>
