<?xml version="1.0" standalone="no"?>
 <!DOCTYPE svg PUBLIC "-//W3C//DTD SVG 1.1//EN" 
 "http://www.w3.org/Graphics/SVG/1.1/DTD/svg11.dtd"> 
<svg
  xmlns:svg="http://www.w3.org/2000/svg"
  xmlns="http://www.w3.org/2000/svg"
  xmlns:xlink="http://www.w3.org/1999/xlink"
  version="1.1"
  width="297.0022mm" height="210.0072mm" viewBox="0.0000 0.0000 297.0022 210.0072">
<title>SVG Image created as t1-F_Cu.svg date 2024/09/25 11:42:40 </title>
  <desc>Image generated by PCBNEW </desc>
<g style="fill:#000000; fill-opacity:1.0000;stroke:#000000; stroke-opacity:1.0000;
stroke-linecap:round; stroke-linejoin:round;"
 transform="translate(0 0) scale(1 1)">
<path style="fill:#000000; fill-opacity:1.0000; stroke:none;fill-rule:evenodd;"
d="M 131.8354,89.8944
131.9311,89.9134
132.0122,89.9676
132.0664,90.0487
132.0854,90.1444
132.0854,93.1444
132.0664,93.2401
132.0122,93.3212
131.9311,93.3754
131.8354,93.3944
129.8354,93.3944
129.7397,93.3754
129.6586,93.3212
129.6044,93.2401
129.5854,93.1444
129.5854,90.1444
129.6044,90.0487
129.6586,89.9676
129.7397,89.9134
129.8354,89.8944
Z" /> 
<path style="fill:#000000; fill-opacity:1.0000; stroke:none;fill-rule:evenodd;"
d="M 131.8354,96.3944
131.9311,96.4134
132.0122,96.4676
132.0664,96.5487
132.0854,96.6444
132.0854,99.6444
132.0664,99.7401
132.0122,99.8212
131.9311,99.8754
131.8354,99.8944
129.8354,99.8944
129.7397,99.8754
129.6586,99.8212
129.6044,99.7401
129.5854,99.6444
129.5854,96.6444
129.6044,96.5487
129.6586,96.4676
129.7397,96.4134
129.8354,96.3944
Z" /> 
<path style="fill:#000000; fill-opacity:1.0000; stroke:none;fill-rule:evenodd;"
d="M 121.5750,90.4437
121.5936,90.3505
121.6464,90.2714
121.7255,90.2186
121.8187,90.2000
122.3062,90.2000
122.3995,90.2186
122.4786,90.2714
122.5314,90.3505
122.5500,90.4437
122.5500,91.3563
122.5314,91.4495
122.4786,91.5286
122.3995,91.5814
122.3062,91.6000
121.8187,91.6000
121.7255,91.5814
121.6464,91.5286
121.5936,91.4495
121.5750,91.3563
Z" /> 
<path style="fill:#000000; fill-opacity:1.0000; stroke:none;fill-rule:evenodd;"
d="M 123.4500,90.4437
123.4686,90.3505
123.5214,90.2714
123.6005,90.2186
123.6937,90.2000
124.1812,90.2000
124.2745,90.2186
124.3536,90.2714
124.4064,90.3505
124.4250,90.4437
124.4250,91.3563
124.4064,91.4495
124.3536,91.5286
124.2745,91.5814
124.1812,91.6000
123.6937,91.6000
123.6005,91.5814
123.5214,91.5286
123.4686,91.4495
123.4500,91.3563
Z" /> 
<path style="fill:#000000; fill-opacity:1.0000; stroke:none;fill-rule:evenodd;"
d="M 162.7163,73.6910
162.8095,73.7096
162.8886,73.7624
162.9414,73.8415
162.9600,73.9347
162.9600,74.4222
162.9414,74.5155
162.8886,74.5946
162.8095,74.6474
162.7163,74.6660
161.8037,74.6660
161.7105,74.6474
161.6314,74.5946
161.5786,74.5155
161.5600,74.4222
161.5600,73.9347
161.5786,73.8415
161.6314,73.7624
161.7105,73.7096
161.8037,73.6910
Z" /> 
<path style="fill:#000000; fill-opacity:1.0000; stroke:none;fill-rule:evenodd;"
d="M 162.7163,75.5660
162.8095,75.5846
162.8886,75.6374
162.9414,75.7165
162.9600,75.8097
162.9600,76.2972
162.9414,76.3905
162.8886,76.4696
162.8095,76.5224
162.7163,76.5410
161.8037,76.5410
161.7105,76.5224
161.6314,76.4696
161.5786,76.3905
161.5600,76.2972
161.5600,75.8097
161.5786,75.7165
161.6314,75.6374
161.7105,75.5846
161.8037,75.5660
Z" /> 
<path style="fill:#000000; fill-opacity:1.0000; stroke:none;fill-rule:evenodd;"
d="M 156.3662,73.6910
156.4595,73.7096
156.5386,73.7624
156.5914,73.8415
156.6100,73.9347
156.6100,74.4222
156.5914,74.5155
156.5386,74.5946
156.4595,74.6474
156.3662,74.6660
155.4537,74.6660
155.3605,74.6474
155.2814,74.5946
155.2286,74.5155
155.2100,74.4222
155.2100,73.9347
155.2286,73.8415
155.2814,73.7624
155.3605,73.7096
155.4537,73.6910
Z" /> 
<path style="fill:#000000; fill-opacity:1.0000; stroke:none;fill-rule:evenodd;"
d="M 156.3662,75.5660
156.4595,75.5846
156.5386,75.6374
156.5914,75.7165
156.6100,75.8097
156.6100,76.2972
156.5914,76.3905
156.5386,76.4696
156.4595,76.5224
156.3662,76.5410
155.4537,76.5410
155.3605,76.5224
155.2814,76.4696
155.2286,76.3905
155.2100,76.2972
155.2100,75.8097
155.2286,75.7165
155.2814,75.6374
155.3605,75.5846
155.4537,75.5660
Z" /> 
<path style="fill:#000000; fill-opacity:1.0000; stroke:none;fill-rule:evenodd;"
d="M 163.7782,87.7290
163.8715,87.7476
163.9506,87.8004
164.0034,87.8795
164.0220,87.9727
164.0220,88.4603
164.0034,88.5535
163.9506,88.6326
163.8715,88.6854
163.7782,88.7040
162.8657,88.7040
162.7725,88.6854
162.6934,88.6326
162.6406,88.5535
162.6220,88.4603
162.6220,87.9727
162.6406,87.8795
162.6934,87.8004
162.7725,87.7476
162.8657,87.7290
Z" /> 
<path style="fill:#000000; fill-opacity:1.0000; stroke:none;fill-rule:evenodd;"
d="M 163.7782,89.6040
163.8715,89.6226
163.9506,89.6754
164.0034,89.7545
164.0220,89.8477
164.0220,90.3353
164.0034,90.4285
163.9506,90.5076
163.8715,90.5604
163.7782,90.5790
162.8657,90.5790
162.7725,90.5604
162.6934,90.5076
162.6406,90.4285
162.6220,90.3353
162.6220,89.8477
162.6406,89.7545
162.6934,89.6754
162.7725,89.6226
162.8657,89.6040
Z" /> 
<path style="fill:#000000; fill-opacity:1.0000; stroke:none;fill-rule:evenodd;"
d="M 152.5498,78.4107
152.5684,78.3175
152.6212,78.2384
152.7003,78.1856
152.7935,78.1670
153.2810,78.1670
153.3743,78.1856
153.4534,78.2384
153.5062,78.3175
153.5248,78.4107
153.5248,79.3233
153.5062,79.4165
153.4534,79.4956
153.3743,79.5484
153.2810,79.5670
152.7935,79.5670
152.7003,79.5484
152.6212,79.4956
152.5684,79.4165
152.5498,79.3233
Z" /> 
<path style="fill:#000000; fill-opacity:1.0000; stroke:none;fill-rule:evenodd;"
d="M 154.4248,78.4107
154.4434,78.3175
154.4962,78.2384
154.5753,78.1856
154.6685,78.1670
155.1560,78.1670
155.2493,78.1856
155.3284,78.2384
155.3812,78.3175
155.3998,78.4107
155.3998,79.3233
155.3812,79.4165
155.3284,79.4956
155.2493,79.5484
155.1560,79.5670
154.6685,79.5670
154.5753,79.5484
154.4962,79.4956
154.4434,79.4165
154.4248,79.3233
Z" /> 
<path style="fill:#000000; fill-opacity:1.0000; stroke:none;fill-rule:evenodd;"
d="M 144.2983,80.3936
144.2051,80.3750
144.1260,80.3222
144.0732,80.2431
144.0546,80.1499
144.0546,79.6623
144.0732,79.5691
144.1260,79.4900
144.2051,79.4372
144.2983,79.4186
145.2108,79.4186
145.3041,79.4372
145.3832,79.4900
145.4360,79.5691
145.4546,79.6623
145.4546,80.1499
145.4360,80.2431
145.3832,80.3222
145.3041,80.3750
145.2108,80.3936
Z" /> 
<path style="fill:#000000; fill-opacity:1.0000; stroke:none;fill-rule:evenodd;"
d="M 144.2983,78.5186
144.2051,78.5000
144.1260,78.4472
144.0732,78.3681
144.0546,78.2749
144.0546,77.7874
144.0732,77.6941
144.1260,77.6150
144.2051,77.5622
144.2983,77.5436
145.2108,77.5436
145.3041,77.5622
145.3832,77.6150
145.4360,77.6941
145.4546,77.7874
145.4546,78.2749
145.4360,78.3681
145.3832,78.4472
145.3041,78.5000
145.2108,78.5186
Z" /> 
<path style="fill:#000000; fill-opacity:1.0000; stroke:none;fill-rule:evenodd;"
d="M 162.1890,98.7990
162.0933,98.7800
162.0122,98.7258
161.9580,98.6447
161.9390,98.5490
161.9390,97.7990
161.9580,97.7033
162.0122,97.6222
162.0933,97.5680
162.1890,97.5490
163.4390,97.5490
163.5347,97.5680
163.6158,97.6222
163.6700,97.7033
163.6890,97.7990
163.6890,98.5490
163.6700,98.6447
163.6158,98.7258
163.5347,98.7800
163.4390,98.7990
Z" /> 
<path style="fill:#000000; fill-opacity:1.0000; stroke:none;fill-rule:evenodd;"
d="M 162.1890,95.9990
162.0933,95.9800
162.0122,95.9258
161.9580,95.8447
161.9390,95.7490
161.9390,94.9990
161.9580,94.9033
162.0122,94.8222
162.0933,94.7680
162.1890,94.7490
163.4390,94.7490
163.5347,94.7680
163.6158,94.8222
163.6700,94.9033
163.6890,94.9990
163.6890,95.7490
163.6700,95.8447
163.6158,95.9258
163.5347,95.9800
163.4390,95.9990
Z" /> 
<path style="fill:#000000; fill-opacity:1.0000; stroke:none;fill-rule:evenodd;"
d="M 146.8637,76.3750
146.7705,76.3564
146.6914,76.3036
146.6386,76.2245
146.6200,76.1312
146.6200,75.6437
146.6386,75.5505
146.6914,75.4714
146.7705,75.4186
146.8637,75.4000
147.7763,75.4000
147.8695,75.4186
147.9486,75.4714
148.0014,75.5505
148.0200,75.6437
148.0200,76.1312
148.0014,76.2245
147.9486,76.3036
147.8695,76.3564
147.7763,76.3750
Z" /> 
<path style="fill:#000000; fill-opacity:1.0000; stroke:none;fill-rule:evenodd;"
d="M 146.8637,74.5000
146.7705,74.4814
146.6914,74.4286
146.6386,74.3495
146.6200,74.2562
146.6200,73.7687
146.6386,73.6755
146.6914,73.5964
146.7705,73.5436
146.8637,73.5250
147.7763,73.5250
147.8695,73.5436
147.9486,73.5964
148.0014,73.6755
148.0200,73.7687
148.0200,74.2562
148.0014,74.3495
147.9486,74.4286
147.8695,74.4814
147.7763,74.5000
Z" /> 
<path style="fill:#000000; fill-opacity:1.0000; stroke:none;fill-rule:evenodd;"
d="M 144.3237,76.3750
144.2305,76.3564
144.1514,76.3036
144.0986,76.2245
144.0800,76.1312
144.0800,75.6437
144.0986,75.5505
144.1514,75.4714
144.2305,75.4186
144.3237,75.4000
145.2362,75.4000
145.3295,75.4186
145.4086,75.4714
145.4614,75.5505
145.4800,75.6437
145.4800,76.1312
145.4614,76.2245
145.4086,76.3036
145.3295,76.3564
145.2362,76.3750
Z" /> 
<path style="fill:#000000; fill-opacity:1.0000; stroke:none;fill-rule:evenodd;"
d="M 144.3237,74.5000
144.2305,74.4814
144.1514,74.4286
144.0986,74.3495
144.0800,74.2562
144.0800,73.7687
144.0986,73.6755
144.1514,73.5964
144.2305,73.5436
144.3237,73.5250
145.2362,73.5250
145.3295,73.5436
145.4086,73.5964
145.4614,73.6755
145.4800,73.7687
145.4800,74.2562
145.4614,74.3495
145.4086,74.4286
145.3295,74.4814
145.2362,74.5000
Z" /> 
<path style="fill:#000000; fill-opacity:1.0000; stroke:none;fill-rule:evenodd;"
d="M 165.1940,75.7660
165.2130,75.6703
165.2672,75.5892
165.3483,75.5350
165.4440,75.5160
166.0690,75.5160
166.1647,75.5350
166.2458,75.5892
166.3000,75.6703
166.3190,75.7660
166.3190,78.6660
166.3000,78.7617
166.2458,78.8428
166.1647,78.8970
166.0690,78.9160
165.4440,78.9160
165.3483,78.8970
165.2672,78.8428
165.2130,78.7617
165.1940,78.6660
Z" /> 
<path style="fill:#000000; fill-opacity:1.0000; stroke:none;fill-rule:evenodd;"
d="M 169.4690,75.7660
169.4880,75.6703
169.5422,75.5892
169.6233,75.5350
169.7190,75.5160
170.3440,75.5160
170.4397,75.5350
170.5208,75.5892
170.5750,75.6703
170.5940,75.7660
170.5940,78.6660
170.5750,78.7617
170.5208,78.8428
170.4397,78.8970
170.3440,78.9160
169.7190,78.9160
169.6233,78.8970
169.5422,78.8428
169.4880,78.7617
169.4690,78.6660
Z" /> 
<path style="fill:#000000; fill-opacity:1.0000; stroke:none;fill-rule:evenodd;"
d="M 169.3190,91.1342
169.3004,91.2275
169.2476,91.3066
169.1685,91.3594
169.0752,91.3780
168.5877,91.3780
168.4945,91.3594
168.4154,91.3066
168.3626,91.2275
168.3440,91.1342
168.3440,90.2218
168.3626,90.1285
168.4154,90.0494
168.4945,89.9966
168.5877,89.9780
169.0752,89.9780
169.1685,89.9966
169.2476,90.0494
169.3004,90.1285
169.3190,90.2218
Z" /> 
<path style="fill:#000000; fill-opacity:1.0000; stroke:none;fill-rule:evenodd;"
d="M 167.4440,91.1342
167.4254,91.2275
167.3726,91.3066
167.2935,91.3594
167.2002,91.3780
166.7127,91.3780
166.6195,91.3594
166.5404,91.3066
166.4876,91.2275
166.4690,91.1342
166.4690,90.2218
166.4876,90.1285
166.5404,90.0494
166.6195,89.9966
166.7127,89.9780
167.2002,89.9780
167.2935,89.9966
167.3726,90.0494
167.4254,90.1285
167.4440,90.2218
Z" /> 
</g>
<g style="fill:#000000; fill-opacity:1.0000; stroke:none;">
<circle cx="169.4180" cy="70.6120" r="0.3750" /> 
</g>
<g style="fill:#000000; fill-opacity:1.0000; stroke:none;">
<circle cx="171.7040" cy="97.2820" r="0.3750" /> 
</g>
<g style="fill:#000000; fill-opacity:1.0000; stroke:none;">
<circle cx="129.9972" cy="70.0786" r="0.3750" /> 
</g>
<g style="fill:#000000; fill-opacity:1.0000; stroke:none;">
<circle cx="137.2108" cy="98.1710" r="0.3750" /> 
<path style="fill:#000000; fill-opacity:1.0000; stroke:none;fill-rule:evenodd;"
d="M 124.1000,77.2000
122.1000,77.2000
122.1000,74.2000
124.1000,74.2000
Z" /> 
<path style="fill:#000000; fill-opacity:1.0000; stroke:none;fill-rule:evenodd;"
d="M 130.1000,77.2000
128.1000,77.2000
128.1000,74.2000
130.1000,74.2000
Z" /> 
<path style="fill:#000000; fill-opacity:1.0000; stroke:none;fill-rule:evenodd;"
d="M 130.1000,88.2000
128.1000,88.2000
128.1000,85.2000
130.1000,85.2000
Z" /> 
<path style="fill:#000000; fill-opacity:1.0000; stroke:none;fill-rule:evenodd;"
d="M 124.1000,88.2000
122.1000,88.2000
122.1000,85.2000
124.1000,85.2000
Z" /> 
<path style="fill:#000000; fill-opacity:1.0000; stroke:none;fill-rule:evenodd;"
d="M 137.1500,78.6500
137.1500,80.3500
135.4500,80.3500
135.4500,78.6500
Z" /> 
</g>
<g style="fill:#000000; fill-opacity:1.0000; stroke:none;">
<circle cx="136.3000" cy="76.9600" r="0.8500" /> 
<circle cx="136.3000" cy="74.4200" r="0.8500" /> 
<circle cx="136.3000" cy="71.8800" r="0.8500" /> 
<circle cx="136.3000" cy="69.3400" r="0.8500" /> 
<path style="fill:#000000; fill-opacity:1.0000; stroke:none;fill-rule:evenodd;"
d="M 151.0420,96.1000
151.0420,94.4000
152.7420,94.4000
152.7420,96.1000
Z" /> 
<circle cx="154.4320" cy="95.2500" r="0.8500" /> 
<circle cx="151.8920" cy="97.7900" r="0.8500" /> 
<circle cx="154.4320" cy="97.7900" r="0.8500" /> 
<path style="fill:#000000; fill-opacity:1.0000; stroke:none;fill-rule:evenodd;"
d="M 141.9724,98.6146
140.2724,98.6146
140.2724,96.9146
141.9724,96.9146
Z" /> 
<circle cx="141.1224" cy="95.2246" r="0.8500" /> 
<circle cx="143.6624" cy="97.7646" r="0.8500" /> 
<circle cx="143.6624" cy="95.2246" r="0.8500" /> 
<circle cx="146.2024" cy="97.7646" r="0.8500" /> 
<circle cx="146.2024" cy="95.2246" r="0.8500" /> 
<path style="fill:#000000; fill-opacity:1.0000; stroke:none;fill-rule:evenodd;"
d="M 140.1200,78.0660
140.1200,76.3660
141.8200,76.3660
141.8200,78.0660
Z" /> 
<circle cx="140.9700" cy="79.7560" r="0.8500" /> 
<circle cx="140.9700" cy="82.2960" r="0.8500" /> 
<circle cx="140.9700" cy="84.8360" r="0.8500" /> 
<circle cx="140.9700" cy="87.3760" r="0.8500" /> 
<circle cx="140.9700" cy="89.9160" r="0.8500" /> 
<path style="fill:#000000; fill-opacity:1.0000; stroke:none;fill-rule:evenodd;"
d="M 166.5090,95.6334
166.5090,95.1334
166.5141,95.1334
166.5141,95.0622
166.5542,94.9257
166.6311,94.8060
166.7387,94.7128
166.8681,94.6537
167.0090,94.6334
167.5090,94.6334
167.6499,94.6537
167.7793,94.7128
167.8869,94.8060
167.9638,94.9257
168.0039,95.0622
168.0039,95.1334
168.0090,95.1334
168.0090,95.6334
Z" /> 
<path style="fill:#000000; fill-opacity:1.0000; stroke:none;fill-rule:evenodd;"
d="M 168.0039,96.4334
168.0039,96.5046
167.9638,96.6411
167.8869,96.7608
167.7793,96.8540
167.6499,96.9131
167.5090,96.9334
167.0090,96.9334
166.8681,96.9131
166.7387,96.8540
166.6311,96.7608
166.5542,96.6411
166.5141,96.5046
166.5141,96.4334
166.5090,96.4334
166.5090,95.9334
168.0090,95.9334
168.0090,96.4334
Z" /> 
<path style="fill:#000000; fill-opacity:1.0000; stroke:none;fill-rule:evenodd;"
d="M 164.9450,85.6497
164.9636,85.5565
165.0164,85.4774
165.0955,85.4246
165.1887,85.4060
165.6762,85.4060
165.7695,85.4246
165.8486,85.4774
165.9014,85.5565
165.9200,85.6497
165.9200,86.5622
165.9014,86.6555
165.8486,86.7346
165.7695,86.7874
165.6762,86.8060
165.1887,86.8060
165.0955,86.7874
165.0164,86.7346
164.9636,86.6555
164.9450,86.5622
Z" /> 
<path style="fill:#000000; fill-opacity:1.0000; stroke:none;fill-rule:evenodd;"
d="M 166.8200,85.6497
166.8386,85.5565
166.8914,85.4774
166.9705,85.4246
167.0637,85.4060
167.5512,85.4060
167.6445,85.4246
167.7236,85.4774
167.7764,85.5565
167.7950,85.6497
167.7950,86.5622
167.7764,86.6555
167.7236,86.7346
167.6445,86.7874
167.5512,86.8060
167.0637,86.8060
166.9705,86.7874
166.8914,86.7346
166.8386,86.6555
166.8200,86.5622
Z" /> 
<path style="fill:#000000; fill-opacity:1.0000; stroke:none;fill-rule:evenodd;"
d="M 164.9450,83.3637
164.9636,83.2705
165.0164,83.1914
165.0955,83.1386
165.1887,83.1200
165.6762,83.1200
165.7695,83.1386
165.8486,83.1914
165.9014,83.2705
165.9200,83.3637
165.9200,84.2762
165.9014,84.3695
165.8486,84.4486
165.7695,84.5014
165.6762,84.5200
165.1887,84.5200
165.0955,84.5014
165.0164,84.4486
164.9636,84.3695
164.9450,84.2762
Z" /> 
<path style="fill:#000000; fill-opacity:1.0000; stroke:none;fill-rule:evenodd;"
d="M 166.8200,83.3637
166.8386,83.2705
166.8914,83.1914
166.9705,83.1386
167.0637,83.1200
167.5512,83.1200
167.6445,83.1386
167.7236,83.1914
167.7764,83.2705
167.7950,83.3637
167.7950,84.2762
167.7764,84.3695
167.7236,84.4486
167.6445,84.5014
167.5512,84.5200
167.0637,84.5200
166.9705,84.5014
166.8914,84.4486
166.8386,84.3695
166.8200,84.2762
Z" /> 
<path style="fill:#000000; fill-opacity:1.0000; stroke:none;fill-rule:evenodd;"
d="M 160.3830,76.3342
160.3644,76.4275
160.3116,76.5066
160.2325,76.5594
160.1393,76.5780
159.6517,76.5780
159.5585,76.5594
159.4794,76.5066
159.4266,76.4275
159.4080,76.3342
159.4080,75.4218
159.4266,75.3285
159.4794,75.2494
159.5585,75.1966
159.6517,75.1780
160.1393,75.1780
160.2325,75.1966
160.3116,75.2494
160.3644,75.3285
160.3830,75.4218
Z" /> 
<path style="fill:#000000; fill-opacity:1.0000; stroke:none;fill-rule:evenodd;"
d="M 158.5080,76.3342
158.4894,76.4275
158.4366,76.5066
158.3575,76.5594
158.2643,76.5780
157.7767,76.5780
157.6835,76.5594
157.6044,76.5066
157.5516,76.4275
157.5330,76.3342
157.5330,75.4218
157.5516,75.3285
157.6044,75.2494
157.6835,75.1966
157.7767,75.1780
158.2643,75.1780
158.3575,75.1966
158.4366,75.2494
158.4894,75.3285
158.5080,75.4218
Z" /> 
<path style="fill:#000000; fill-opacity:1.0000; stroke:none;fill-rule:evenodd;"
d="M 158.5477,97.1830
158.4545,97.1644
158.3754,97.1116
158.3226,97.0325
158.3040,96.9393
158.3040,96.4517
158.3226,96.3585
158.3754,96.2794
158.4545,96.2266
158.5477,96.2080
159.4603,96.2080
159.5535,96.2266
159.6326,96.2794
159.6854,96.3585
159.7040,96.4517
159.7040,96.9393
159.6854,97.0325
159.6326,97.1116
159.5535,97.1644
159.4603,97.1830
Z" /> 
<path style="fill:#000000; fill-opacity:1.0000; stroke:none;fill-rule:evenodd;"
d="M 158.5477,95.3080
158.4545,95.2894
158.3754,95.2366
158.3226,95.1575
158.3040,95.0643
158.3040,94.5767
158.3226,94.4835
158.3754,94.4044
158.4545,94.3516
158.5477,94.3330
159.4603,94.3330
159.5535,94.3516
159.6326,94.4044
159.6854,94.4835
159.7040,94.5767
159.7040,95.0643
159.6854,95.1575
159.6326,95.2366
159.5535,95.2894
159.4603,95.3080
Z" /> 
<path style="fill:#000000; fill-opacity:1.0000; stroke:none;fill-rule:evenodd;"
d="M 145.2108,81.3790
145.3041,81.3976
145.3832,81.4504
145.4360,81.5295
145.4546,81.6227
145.4546,82.1102
145.4360,82.2035
145.3832,82.2826
145.3041,82.3354
145.2108,82.3540
144.2983,82.3540
144.2051,82.3354
144.1260,82.2826
144.0732,82.2035
144.0546,82.1102
144.0546,81.6227
144.0732,81.5295
144.1260,81.4504
144.2051,81.3976
144.2983,81.3790
Z" /> 
<path style="fill:#000000; fill-opacity:1.0000; stroke:none;fill-rule:evenodd;"
d="M 145.2108,83.2540
145.3041,83.2726
145.3832,83.3254
145.4360,83.4045
145.4546,83.4977
145.4546,83.9852
145.4360,84.0785
145.3832,84.1576
145.3041,84.2104
145.2108,84.2290
144.2983,84.2290
144.2051,84.2104
144.1260,84.1576
144.0732,84.0785
144.0546,83.9852
144.0546,83.4977
144.0732,83.4045
144.1260,83.3254
144.2051,83.2726
144.2983,83.2540
Z" /> 
<path style="fill:#000000; fill-opacity:1.0000; stroke:none;fill-rule:evenodd;"
d="M 147.7763,68.7498
147.8695,68.7684
147.9486,68.8212
148.0014,68.9003
148.0200,68.9935
148.0200,69.4810
148.0014,69.5743
147.9486,69.6534
147.8695,69.7062
147.7763,69.7248
146.8637,69.7248
146.7705,69.7062
146.6914,69.6534
146.6386,69.5743
146.6200,69.4810
146.6200,68.9935
146.6386,68.9003
146.6914,68.8212
146.7705,68.7684
146.8637,68.7498
Z" /> 
<path style="fill:#000000; fill-opacity:1.0000; stroke:none;fill-rule:evenodd;"
d="M 147.7763,70.6248
147.8695,70.6434
147.9486,70.6962
148.0014,70.7753
148.0200,70.8685
148.0200,71.3560
148.0014,71.4493
147.9486,71.5284
147.8695,71.5812
147.7763,71.5998
146.8637,71.5998
146.7705,71.5812
146.6914,71.5284
146.6386,71.4493
146.6200,71.3560
146.6200,70.8685
146.6386,70.7753
146.6914,70.6962
146.7705,70.6434
146.8637,70.6248
Z" /> 
<path style="fill:#000000; fill-opacity:1.0000; stroke:none;fill-rule:evenodd;"
d="M 145.2362,68.7498
145.3295,68.7684
145.4086,68.8212
145.4614,68.9003
145.4800,68.9935
145.4800,69.4810
145.4614,69.5743
145.4086,69.6534
145.3295,69.7062
145.2362,69.7248
144.3237,69.7248
144.2305,69.7062
144.1514,69.6534
144.0986,69.5743
144.0800,69.4810
144.0800,68.9935
144.0986,68.9003
144.1514,68.8212
144.2305,68.7684
144.3237,68.7498
Z" /> 
<path style="fill:#000000; fill-opacity:1.0000; stroke:none;fill-rule:evenodd;"
d="M 145.2362,70.6248
145.3295,70.6434
145.4086,70.6962
145.4614,70.7753
145.4800,70.8685
145.4800,71.3560
145.4614,71.4493
145.4086,71.5284
145.3295,71.5812
145.2362,71.5998
144.3237,71.5998
144.2305,71.5812
144.1514,71.5284
144.0986,71.4493
144.0800,71.3560
144.0800,70.8685
144.0986,70.7753
144.1514,70.6962
144.2305,70.6434
144.3237,70.6248
Z" /> 
<path style="fill:#000000; fill-opacity:1.0000; stroke:none;fill-rule:evenodd;"
d="M 170.6902,86.1255
170.7740,86.1422
170.8449,86.1896
170.8923,86.2605
170.9090,86.3443
170.9090,86.7818
170.8923,86.8655
170.8449,86.9364
170.7740,86.9838
170.6902,87.0005
170.1778,87.0005
170.0940,86.9838
170.0231,86.9364
169.9757,86.8655
169.9590,86.7818
169.9590,86.3443
169.9757,86.2605
170.0231,86.1896
170.0940,86.1422
170.1778,86.1255
Z" /> 
<path style="fill:#000000; fill-opacity:1.0000; stroke:none;fill-rule:evenodd;"
d="M 170.6902,87.7005
170.7740,87.7172
170.8449,87.7646
170.8923,87.8355
170.9090,87.9192
170.9090,88.3567
170.8923,88.4405
170.8449,88.5114
170.7740,88.5588
170.6902,88.5755
170.1778,88.5755
170.0940,88.5588
170.0231,88.5114
169.9757,88.4405
169.9590,88.3567
169.9590,87.9192
169.9757,87.8355
170.0231,87.7646
170.0940,87.7172
170.1778,87.7005
Z" /> 
<path style="fill:#000000; fill-opacity:1.0000; stroke:none;fill-rule:evenodd;"
d="M 161.9278,68.8278
161.9278,71.2278
160.0278,71.2278
160.0278,68.8278
Z" /> 
<path style="fill:#000000; fill-opacity:1.0000; stroke:none;fill-rule:evenodd;"
d="M 157.8278,68.8278
157.8278,71.2278
155.9278,71.2278
155.9278,68.8278
Z" /> 
<path style="fill:#000000; fill-opacity:1.0000; stroke:none;fill-rule:evenodd;"
d="M 174.2820,82.3340
172.6820,82.3340
172.6820,80.7340
174.2820,80.7340
Z" /> 
<circle cx="173.4820" cy="84.0340" r="0.8000" /> 
</g>
<g style="fill:#000000; fill-opacity:1.0000; stroke:none;">
<circle cx="175.4820" cy="84.0340" r="0.8000" /> 
</g>
<g style="fill:#000000; fill-opacity:1.0000; stroke:none;">
<circle cx="175.4820" cy="81.5340" r="0.8000" /> 
</g>
<g style="fill:#000000; fill-opacity:1.0000; stroke:none;">
<circle cx="178.3420" cy="76.7840" r="2.0000" /> 
</g>
<g style="fill:#000000; fill-opacity:1.0000; stroke:none;">
<circle cx="178.3420" cy="88.7840" r="2.0000" /> 
<path style="fill:#000000; fill-opacity:1.0000; stroke:none;fill-rule:evenodd;"
d="M 156.9570,80.8020
157.5070,80.8020
157.5070,82.4020
156.9570,82.4020
Z" /> 
<path style="fill:#000000; fill-opacity:1.0000; stroke:none;fill-rule:evenodd;"
d="M 156.1570,80.8020
156.7070,80.8020
156.7070,82.4020
156.1570,82.4020
Z" /> 
<path style="fill:#000000; fill-opacity:1.0000; stroke:none;fill-rule:evenodd;"
d="M 155.3570,80.8020
155.9070,80.8020
155.9070,82.4020
155.3570,82.4020
Z" /> 
<path style="fill:#000000; fill-opacity:1.0000; stroke:none;fill-rule:evenodd;"
d="M 154.5570,80.8020
155.1070,80.8020
155.1070,82.4020
154.5570,82.4020
Z" /> 
<path style="fill:#000000; fill-opacity:1.0000; stroke:none;fill-rule:evenodd;"
d="M 153.7570,80.8020
154.3070,80.8020
154.3070,82.4020
153.7570,82.4020
Z" /> 
<path style="fill:#000000; fill-opacity:1.0000; stroke:none;fill-rule:evenodd;"
d="M 152.9570,80.8020
153.5070,80.8020
153.5070,82.4020
152.9570,82.4020
Z" /> 
<path style="fill:#000000; fill-opacity:1.0000; stroke:none;fill-rule:evenodd;"
d="M 152.1570,80.8020
152.7070,80.8020
152.7070,82.4020
152.1570,82.4020
Z" /> 
<path style="fill:#000000; fill-opacity:1.0000; stroke:none;fill-rule:evenodd;"
d="M 151.3570,80.8020
151.9070,80.8020
151.9070,82.4020
151.3570,82.4020
Z" /> 
<path style="fill:#000000; fill-opacity:1.0000; stroke:none;fill-rule:evenodd;"
d="M 149.3820,83.3270
149.3820,82.7770
150.9820,82.7770
150.9820,83.3270
Z" /> 
<path style="fill:#000000; fill-opacity:1.0000; stroke:none;fill-rule:evenodd;"
d="M 149.3820,84.1270
149.3820,83.5770
150.9820,83.5770
150.9820,84.1270
Z" /> 
<path style="fill:#000000; fill-opacity:1.0000; stroke:none;fill-rule:evenodd;"
d="M 149.3820,84.9270
149.3820,84.3770
150.9820,84.3770
150.9820,84.9270
Z" /> 
<path style="fill:#000000; fill-opacity:1.0000; stroke:none;fill-rule:evenodd;"
d="M 149.3820,85.7270
149.3820,85.1770
150.9820,85.1770
150.9820,85.7270
Z" /> 
<path style="fill:#000000; fill-opacity:1.0000; stroke:none;fill-rule:evenodd;"
d="M 149.3820,86.5270
149.3820,85.9770
150.9820,85.9770
150.9820,86.5270
Z" /> 
<path style="fill:#000000; fill-opacity:1.0000; stroke:none;fill-rule:evenodd;"
d="M 149.3820,87.3270
149.3820,86.7770
150.9820,86.7770
150.9820,87.3270
Z" /> 
<path style="fill:#000000; fill-opacity:1.0000; stroke:none;fill-rule:evenodd;"
d="M 149.3820,88.1270
149.3820,87.5770
150.9820,87.5770
150.9820,88.1270
Z" /> 
<path style="fill:#000000; fill-opacity:1.0000; stroke:none;fill-rule:evenodd;"
d="M 149.3820,88.9270
149.3820,88.3770
150.9820,88.3770
150.9820,88.9270
Z" /> 
<path style="fill:#000000; fill-opacity:1.0000; stroke:none;fill-rule:evenodd;"
d="M 151.3570,89.3020
151.9070,89.3020
151.9070,90.9020
151.3570,90.9020
Z" /> 
<path style="fill:#000000; fill-opacity:1.0000; stroke:none;fill-rule:evenodd;"
d="M 152.1570,89.3020
152.7070,89.3020
152.7070,90.9020
152.1570,90.9020
Z" /> 
<path style="fill:#000000; fill-opacity:1.0000; stroke:none;fill-rule:evenodd;"
d="M 152.9570,89.3020
153.5070,89.3020
153.5070,90.9020
152.9570,90.9020
Z" /> 
<path style="fill:#000000; fill-opacity:1.0000; stroke:none;fill-rule:evenodd;"
d="M 153.7570,89.3020
154.3070,89.3020
154.3070,90.9020
153.7570,90.9020
Z" /> 
<path style="fill:#000000; fill-opacity:1.0000; stroke:none;fill-rule:evenodd;"
d="M 154.5570,89.3020
155.1070,89.3020
155.1070,90.9020
154.5570,90.9020
Z" /> 
<path style="fill:#000000; fill-opacity:1.0000; stroke:none;fill-rule:evenodd;"
d="M 155.3570,89.3020
155.9070,89.3020
155.9070,90.9020
155.3570,90.9020
Z" /> 
<path style="fill:#000000; fill-opacity:1.0000; stroke:none;fill-rule:evenodd;"
d="M 156.1570,89.3020
156.7070,89.3020
156.7070,90.9020
156.1570,90.9020
Z" /> 
<path style="fill:#000000; fill-opacity:1.0000; stroke:none;fill-rule:evenodd;"
d="M 156.9570,89.3020
157.5070,89.3020
157.5070,90.9020
156.9570,90.9020
Z" /> 
<path style="fill:#000000; fill-opacity:1.0000; stroke:none;fill-rule:evenodd;"
d="M 157.8820,88.9270
157.8820,88.3770
159.4820,88.3770
159.4820,88.9270
Z" /> 
<path style="fill:#000000; fill-opacity:1.0000; stroke:none;fill-rule:evenodd;"
d="M 157.8820,88.1270
157.8820,87.5770
159.4820,87.5770
159.4820,88.1270
Z" /> 
<path style="fill:#000000; fill-opacity:1.0000; stroke:none;fill-rule:evenodd;"
d="M 157.8820,87.3270
157.8820,86.7770
159.4820,86.7770
159.4820,87.3270
Z" /> 
<path style="fill:#000000; fill-opacity:1.0000; stroke:none;fill-rule:evenodd;"
d="M 157.8820,86.5270
157.8820,85.9770
159.4820,85.9770
159.4820,86.5270
Z" /> 
<path style="fill:#000000; fill-opacity:1.0000; stroke:none;fill-rule:evenodd;"
d="M 157.8820,85.7270
157.8820,85.1770
159.4820,85.1770
159.4820,85.7270
Z" /> 
<path style="fill:#000000; fill-opacity:1.0000; stroke:none;fill-rule:evenodd;"
d="M 157.8820,84.9270
157.8820,84.3770
159.4820,84.3770
159.4820,84.9270
Z" /> 
<path style="fill:#000000; fill-opacity:1.0000; stroke:none;fill-rule:evenodd;"
d="M 157.8820,84.1270
157.8820,83.5770
159.4820,83.5770
159.4820,84.1270
Z" /> 
<path style="fill:#000000; fill-opacity:1.0000; stroke:none;fill-rule:evenodd;"
d="M 157.8820,83.3270
157.8820,82.7770
159.4820,82.7770
159.4820,83.3270
Z" /> 
<path style="fill:#000000; fill-opacity:1.0000; stroke:none;fill-rule:evenodd;"
d="M 170.1778,83.5464
170.0940,83.5297
170.0231,83.4823
169.9757,83.4114
169.9590,83.3276
169.9590,82.8901
169.9757,82.8064
170.0231,82.7355
170.0940,82.6881
170.1778,82.6714
170.6902,82.6714
170.7740,82.6881
170.8449,82.7355
170.8923,82.8064
170.9090,82.8901
170.9090,83.3276
170.8923,83.4114
170.8449,83.4823
170.7740,83.5297
170.6902,83.5464
Z" /> 
<path style="fill:#000000; fill-opacity:1.0000; stroke:none;fill-rule:evenodd;"
d="M 170.1778,81.9714
170.0940,81.9547
170.0231,81.9073
169.9757,81.8364
169.9590,81.7527
169.9590,81.3152
169.9757,81.2314
170.0231,81.1605
170.0940,81.1131
170.1778,81.0964
170.6902,81.0964
170.7740,81.1131
170.8449,81.1605
170.8923,81.2314
170.9090,81.3152
170.9090,81.7527
170.8923,81.8364
170.8449,81.9073
170.7740,81.9547
170.6902,81.9714
Z" /> 
<path style="fill:#000000; fill-opacity:1.0000; stroke:none;fill-rule:evenodd;"
d="M 161.9260,83.4924
161.8327,83.4738
161.7536,83.4210
161.7008,83.3419
161.6822,83.2486
161.6822,82.7612
161.7008,82.6679
161.7536,82.5888
161.8327,82.5360
161.9260,82.5174
162.8384,82.5174
162.9317,82.5360
163.0108,82.5888
163.0636,82.6679
163.0822,82.7612
163.0822,83.2486
163.0636,83.3419
163.0108,83.4210
162.9317,83.4738
162.8384,83.4924
Z" /> 
<path style="fill:#000000; fill-opacity:1.0000; stroke:none;fill-rule:evenodd;"
d="M 161.9260,81.6174
161.8327,81.5988
161.7536,81.5460
161.7008,81.4669
161.6822,81.3736
161.6822,80.8862
161.7008,80.7929
161.7536,80.7138
161.8327,80.6610
161.9260,80.6424
162.8384,80.6424
162.9317,80.6610
163.0108,80.7138
163.0636,80.7929
163.0822,80.8862
163.0822,81.3736
163.0636,81.4669
163.0108,81.5460
162.9317,81.5988
162.8384,81.6174
Z" /> 
</g>
<g style="fill:#000000; fill-opacity:1.0000; stroke:none;">
<circle cx="154.3558" cy="75.7936" r="0.4000" /> 
</g>
<g style="fill:#000000; fill-opacity:1.0000; stroke:none;">
<circle cx="123.1138" cy="73.3298" r="0.4000" /> 
</g>
<g style="fill:#000000; fill-opacity:1.0000; stroke:none;">
<circle cx="129.1082" cy="77.9526" r="0.4000" /> 
</g>
<g style="fill:#000000; fill-opacity:1.0000; stroke:none;">
<circle cx="167.2590" cy="97.9424" r="0.4000" /> 
</g>
<g style="fill:#000000; fill-opacity:1.0000; stroke:none;">
<circle cx="155.6766" cy="83.0580" r="0.4000" /> 
</g>
<g style="fill:#000000; fill-opacity:1.0000; stroke:none;">
<circle cx="163.8300" cy="76.7588" r="0.4000" /> 
</g>
<g style="fill:#000000; fill-opacity:1.0000; stroke:none;">
<circle cx="125.3490" cy="90.9066" r="0.4000" /> 
</g>
<g style="fill:#000000; fill-opacity:1.0000; stroke:none;">
<circle cx="130.8100" cy="95.3516" r="0.4000" /> 
</g>
<g style="fill:#000000; fill-opacity:1.0000; stroke:none;">
<circle cx="129.0828" cy="73.3806" r="0.4000" /> 
</g>
<g style="fill:#000000; fill-opacity:1.0000; stroke:none;">
<circle cx="144.8308" cy="85.0646" r="0.4000" /> 
</g>
<g style="fill:#000000; fill-opacity:1.0000; stroke:none;">
<circle cx="123.0884" cy="78.1304" r="0.4000" /> 
</g>
<g style="fill:#000000; fill-opacity:1.0000; stroke:none;">
<circle cx="159.8422" cy="98.6028" r="0.4000" /> 
</g>
<g style="fill:#000000; fill-opacity:1.0000; stroke:none;">
<circle cx="154.5336" cy="83.2866" r="0.4000" /> 
</g>
<g style="fill:#000000; fill-opacity:1.0000; stroke:none;">
<circle cx="146.0246" cy="69.2404" r="0.4000" /> 
</g>
<g style="fill:#000000; fill-opacity:1.0000; stroke:none;">
<circle cx="159.1818" cy="81.9658" r="0.4000" /> 
</g>
<g style="fill:#000000; fill-opacity:1.0000; stroke:none;">
<circle cx="130.8354" cy="88.9000" r="0.4000" /> 
</g>
<g style="fill:#000000; fill-opacity:1.0000; stroke:none;">
<circle cx="129.1082" cy="84.3026" r="0.4000" /> 
</g>
<g style="fill:#000000; fill-opacity:1.0000; stroke:none;">
<circle cx="121.5644" cy="89.3318" r="0.4000" /> 
</g>
<g style="fill:#000000; fill-opacity:1.0000; stroke:none;">
<circle cx="123.1392" cy="84.4042" r="0.4000" /> 
</g>
<g style="fill:#000000; fill-opacity:1.0000; stroke:none;">
<circle cx="162.7632" cy="70.0024" r="0.4000" /> 
</g>
<g style="fill:#000000; fill-opacity:1.0000; stroke:none;">
<circle cx="155.0416" cy="70.0786" r="0.4000" /> 
</g>
<g style="fill:#000000; fill-opacity:1.0000; stroke:none;">
<circle cx="160.6804" cy="81.1530" r="0.4000" /> 
</g>
<g style="fill:#000000; fill-opacity:1.0000; stroke:none;">
<circle cx="166.8780" cy="88.7730" r="0.4000" /> 
</g>
<g style="fill:#000000; fill-opacity:1.0000; stroke:none;">
<circle cx="160.5534" cy="86.2330" r="0.4000" /> 
</g>
<g style="fill:#000000; fill-opacity:1.0000; stroke:none;">
<circle cx="167.2336" cy="93.5228" r="0.4000" /> 
</g>
<g style="fill:#000000; fill-opacity:1.0000; stroke:none;">
<circle cx="165.0492" cy="90.4494" r="0.4000" /> 
</g>
<g style="fill:#000000; fill-opacity:1.0000; stroke:none;">
<circle cx="165.7350" cy="80.1624" r="0.4000" /> 
</g>
<g style="fill:#000000; fill-opacity:1.0000; stroke:none;">
<circle cx="170.4594" cy="80.4164" r="0.4000" /> 
</g>
<g style="fill:#000000; fill-opacity:1.0000; stroke:none;">
<circle cx="172.3898" cy="88.1380" r="0.4000" /> 
</g>
<g style="fill:#000000; fill-opacity:1.0000; stroke:none;">
<circle cx="170.5610" cy="90.6780" r="0.4000" /> 
</g>
<g style="fill:#000000; fill-opacity:1.0000; stroke:none;">
<circle cx="156.8958" cy="87.5538" r="0.4000" /> 
</g>
<g style="fill:#000000; fill-opacity:1.0000; stroke:none;">
<circle cx="156.1592" cy="88.3920" r="0.4000" /> 
</g>
<g style="fill:#000000; fill-opacity:1.0000; stroke:none;">
<circle cx="156.2862" cy="91.6940" r="0.4000" /> 
</g>
<g style="fill:#000000; fill-opacity:1.0000; stroke:none;">
<circle cx="155.0670" cy="88.5952" r="0.4000" /> 
</g>
<g style="fill:#000000; fill-opacity:1.0000; stroke:none;">
<circle cx="150.1394" cy="81.8896" r="0.4000" /> 
</g>
<g style="fill:#000000; fill-opacity:1.0000; stroke:none;">
<circle cx="152.0698" cy="87.2236" r="0.4000" /> 
</g>
<g style="fill:#000000; fill-opacity:1.0000; stroke:none;">
<circle cx="152.6794" cy="88.3158" r="0.4000" /> 
</g>
<g style="fill:#000000; fill-opacity:1.0000; stroke:none;">
<circle cx="151.6891" cy="85.8520" r="0.4000" /> 
</g>
<g style="fill:#000000; fill-opacity:1.0000; stroke:none;">
<circle cx="148.5951" cy="85.3897" r="0.4000" /> 
</g>
<g style="fill:#000000; fill-opacity:1.0000; stroke:none;">
<circle cx="155.9560" cy="85.7758" r="0.4000" /> 
</g>
<g style="fill:none; 
stroke:#000000; stroke-width:0.5080; stroke-opacity:1; 
stroke-linecap:round; stroke-linejoin:round;">
<path d="M144.7546 84.9884
L144.8308 85.0646
" />
<path d="M125.3424 90.9000
L125.3490 90.9066
" />
<path d="M129.1000 75.7000
L129.1000 77.9444
" />
</g>
<g style="fill:none; 
stroke:#000000; stroke-width:0.3810; stroke-opacity:1; 
stroke-linecap:round; stroke-linejoin:round;">
<path d="M155.6320 83.0134
L155.6766 83.0580
" />
</g>
<g style="fill:none; 
stroke:#000000; stroke-width:0.5080; stroke-opacity:1; 
stroke-linecap:round; stroke-linejoin:round;">
<path d="M144.7546 83.7415
L144.7546 84.9884
" />
<path d="M123.9375 90.9000
L125.3424 90.9000
" />
<path d="M123.1000 75.7000
L123.1000 78.1188
" />
<path d="M163.1247 76.0535
L163.8300 76.7588
" />
</g>
<g style="fill:none; 
stroke:#000000; stroke-width:0.3810; stroke-opacity:1; 
stroke-linecap:round; stroke-linejoin:round;">
<path d="M155.6320 79.5867
L154.9123 78.8670
" />
<path d="M155.6320 81.6020
L155.6320 83.0134
" />
</g>
<g style="fill:none; 
stroke:#000000; stroke-width:0.5080; stroke-opacity:1; 
stroke-linecap:round; stroke-linejoin:round;">
<path d="M123.1000 75.7000
L123.1000 73.3436
" />
<path d="M154.6157 76.0535
L154.3558 75.7936
" />
<path d="M123.1000 73.3436
L123.1138 73.3298
" />
<path d="M162.2600 76.0535
L163.1247 76.0535
" />
<path d="M155.9100 76.0535
L154.6157 76.0535
" />
<path d="M167.2590 96.4334
L167.2590 97.9424
" />
<path d="M130.8354 95.3770
L130.8100 95.3516
" />
<path d="M129.1000 73.3978
L129.0828 73.3806
" />
<path d="M129.1000 77.9444
L129.1082 77.9526
" />
<path d="M123.1000 78.1188
L123.0884 78.1304
" />
</g>
<g style="fill:none; 
stroke:#000000; stroke-width:0.3810; stroke-opacity:1; 
stroke-linecap:round; stroke-linejoin:round;">
<path d="M155.6320 81.6020
L155.6320 79.5867
" />
</g>
<g style="fill:none; 
stroke:#000000; stroke-width:0.5080; stroke-opacity:1; 
stroke-linecap:round; stroke-linejoin:round;">
<path d="M130.8354 98.1444
L130.8354 95.3770
" />
<path d="M129.1000 75.7000
L129.1000 73.3978
" />
<path d="M123.1000 84.4434
L123.1392 84.4042
" />
<path d="M144.7800 69.2373
L146.0215 69.2373
" />
</g>
<g style="fill:none; 
stroke:#000000; stroke-width:0.3810; stroke-opacity:1; 
stroke-linecap:round; stroke-linejoin:round;">
<path d="M154.8320 82.9882
L154.5336 83.2866
" />
</g>
<g style="fill:none; 
stroke:#000000; stroke-width:0.5080; stroke-opacity:1; 
stroke-linecap:round; stroke-linejoin:round;">
<path d="M129.1000 84.3108
L129.1082 84.3026
" />
<path d="M162.8140 98.1740
L160.2710 98.1740
" />
<path d="M158.6820 83.0520
L158.6820 82.4656
" />
</g>
<g style="fill:none; 
stroke:#000000; stroke-width:0.3810; stroke-opacity:1; 
stroke-linecap:round; stroke-linejoin:round;">
<path d="M154.8320 80.6617
L153.0373 78.8670
" />
</g>
<g style="fill:none; 
stroke:#000000; stroke-width:0.5080; stroke-opacity:1; 
stroke-linecap:round; stroke-linejoin:round;">
<path d="M159.0040 97.7646
L159.8422 98.6028
" />
<path d="M123.1000 86.7000
L123.1000 84.4434
" />
<path d="M146.0215 69.2373
L146.0246 69.2404
" />
<path d="M159.0040 96.6955
L159.0040 97.7646
" />
<path d="M123.1000 86.7000
L123.1000 87.7962
" />
<path d="M129.1000 86.7000
L129.1000 84.3108
" />
<path d="M129.8702 88.9000
L130.8354 88.9000
" />
<path d="M122.0625 89.8299
L121.5644 89.3318
" />
<path d="M122.0625 90.9000
L122.0625 89.8299
" />
<path d="M130.8354 91.6444
L130.8354 88.9000
" />
<path d="M160.2710 98.1740
L159.8422 98.6028
" />
<path d="M146.0277 69.2373
L146.0246 69.2404
" />
</g>
<g style="fill:none; 
stroke:#000000; stroke-width:0.3810; stroke-opacity:1; 
stroke-linecap:round; stroke-linejoin:round;">
<path d="M154.8320 81.6020
L154.8320 80.6617
" />
</g>
<g style="fill:none; 
stroke:#000000; stroke-width:0.5080; stroke-opacity:1; 
stroke-linecap:round; stroke-linejoin:round;">
<path d="M158.6820 82.4656
L159.1818 81.9658
" />
<path d="M123.1000 87.7962
L121.5644 89.3318
" />
<path d="M129.1000 88.1298
L129.8702 88.9000
" />
<path d="M129.1000 86.7000
L129.1000 88.1298
" />
<path d="M147.3200 69.2373
L146.0277 69.2373
" />
</g>
<g style="fill:none; 
stroke:#000000; stroke-width:0.3810; stroke-opacity:1; 
stroke-linecap:round; stroke-linejoin:round;">
<path d="M154.8320 81.6020
L154.8320 82.9882
" />
</g>
<g style="fill:none; 
stroke:#000000; stroke-width:0.5080; stroke-opacity:1; 
stroke-linecap:round; stroke-linejoin:round;">
<path d="M162.2600 74.1785
L159.9543 74.1785
" />
<path d="M162.7378 70.0278
L162.7632 70.0024
" />
</g>
<g style="fill:none; 
stroke:#000000; stroke-width:0.3810; stroke-opacity:1; 
stroke-linecap:round; stroke-linejoin:round;">
<path d="M157.2320 80.2834
L158.0388 79.4766
" />
</g>
<g style="fill:none; 
stroke:#000000; stroke-width:0.5080; stroke-opacity:1; 
stroke-linecap:round; stroke-linejoin:round;">
<path d="M159.8955 73.5559
L160.9778 72.4736
" />
<path d="M160.9778 72.4736
L160.9778 70.0278
" />
<path d="M158.0388 79.4766
L159.8955 77.6199
" />
<path d="M159.9543 74.1785
L159.8955 74.1197
" />
<path d="M159.8955 75.8780
L159.8955 74.1197
" />
<path d="M160.9778 70.0278
L162.7378 70.0278
" />
</g>
<g style="fill:none; 
stroke:#000000; stroke-width:0.3810; stroke-opacity:1; 
stroke-linecap:round; stroke-linejoin:round;">
<path d="M157.2320 81.6020
L157.2320 80.2834
" />
</g>
<g style="fill:none; 
stroke:#000000; stroke-width:0.5080; stroke-opacity:1; 
stroke-linecap:round; stroke-linejoin:round;">
<path d="M159.8955 77.6199
L159.8955 75.8780
" />
<path d="M159.8955 74.1197
L159.8955 73.5559
" />
<path d="M155.9100 74.1785
L157.8759 74.1785
" />
<path d="M156.8270 70.0786
L156.8778 70.0278
" />
<path d="M158.0205 75.8780
L158.0205 77.5137
" />
<path d="M155.0416 70.0786
L156.8270 70.0786
" />
<path d="M158.0205 75.8780
L158.0205 74.0339
" />
</g>
<g style="fill:none; 
stroke:#000000; stroke-width:0.3810; stroke-opacity:1; 
stroke-linecap:round; stroke-linejoin:round;">
<path d="M156.4386 79.0956
L156.4320 79.1022
" />
</g>
<g style="fill:none; 
stroke:#000000; stroke-width:0.5080; stroke-opacity:1; 
stroke-linecap:round; stroke-linejoin:round;">
<path d="M158.0205 74.0339
L158.0205 73.7687
" />
</g>
<g style="fill:none; 
stroke:#000000; stroke-width:0.3810; stroke-opacity:1; 
stroke-linecap:round; stroke-linejoin:round;">
<path d="M156.4320 79.1022
L156.4320 81.6020
" />
</g>
<g style="fill:none; 
stroke:#000000; stroke-width:0.5080; stroke-opacity:1; 
stroke-linecap:round; stroke-linejoin:round;">
<path d="M158.0205 77.5137
L156.4386 79.0956
" />
<path d="M156.8778 72.6260
L156.8778 70.0278
" />
<path d="M157.8759 74.1785
L158.0205 74.0339
" />
<path d="M158.0205 73.7687
L156.8778 72.6260
" />
</g>
<g style="fill:none; 
stroke:#000000; stroke-width:0.3810; stroke-opacity:1; 
stroke-linecap:round; stroke-linejoin:round;">
<path d="M158.6820 86.2520
L160.5344 86.2520
" />
</g>
<g style="fill:none; 
stroke:#000000; stroke-width:0.5080; stroke-opacity:1; 
stroke-linecap:round; stroke-linejoin:round;">
<path d="M160.7035 81.1299
L160.6804 81.1530
" />
<path d="M166.8780 88.7730
L166.8780 90.5995
" />
<path d="M163.3220 90.0915
L164.6913 90.0915
" />
<path d="M167.2590 95.1334
L167.2590 93.5482
" />
<path d="M162.3822 81.1299
L160.7035 81.1299
" />
</g>
<g style="fill:none; 
stroke:#000000; stroke-width:0.3810; stroke-opacity:1; 
stroke-linecap:round; stroke-linejoin:round;">
<path d="M160.5344 86.2520
L160.5534 86.2330
" />
</g>
<g style="fill:none; 
stroke:#000000; stroke-width:0.5080; stroke-opacity:1; 
stroke-linecap:round; stroke-linejoin:round;">
<path d="M166.8780 90.5995
L166.9565 90.6780
" />
<path d="M164.6913 90.0915
L165.0492 90.4494
" />
<path d="M167.2590 93.5482
L167.2336 93.5228
" />
</g>
<g style="fill:none; 
stroke:#000000; stroke-width:0.3810; stroke-opacity:1; 
stroke-linecap:round; stroke-linejoin:round;">
<path d="M161.2454 87.0520
L162.4099 88.2165
" />
<path d="M158.6820 87.0520
L161.2454 87.0520
" />
<path d="M162.4099 88.2165
L163.3220 88.2165
" />
<path d="M160.3690 83.8520
L161.2161 83.0049
" />
</g>
<g style="fill:none; 
stroke:#000000; stroke-width:0.5080; stroke-opacity:1; 
stroke-linecap:round; stroke-linejoin:round;">
<path d="M162.3822 83.0049
L162.8925 83.0049
" />
<path d="M162.8925 83.0049
L165.7350 80.1624
" />
</g>
<g style="fill:none; 
stroke:#000000; stroke-width:0.3810; stroke-opacity:1; 
stroke-linecap:round; stroke-linejoin:round;">
<path d="M158.6820 83.8520
L160.3690 83.8520
" />
</g>
<g style="fill:none; 
stroke:#000000; stroke-width:0.5080; stroke-opacity:1; 
stroke-linecap:round; stroke-linejoin:round;">
<path d="M165.7565 77.2160
L165.7565 80.1409
" />
</g>
<g style="fill:none; 
stroke:#000000; stroke-width:0.3810; stroke-opacity:1; 
stroke-linecap:round; stroke-linejoin:round;">
<path d="M161.2161 83.0049
L162.3822 83.0049
" />
</g>
<g style="fill:none; 
stroke:#000000; stroke-width:0.5080; stroke-opacity:1; 
stroke-linecap:round; stroke-linejoin:round;">
<path d="M165.7565 80.1409
L165.7350 80.1624
" />
<path d="M140.9700 77.2160
L143.9395 77.2160
" />
<path d="M143.9395 77.2160
L144.7546 78.0311
" />
<path d="M146.5072 82.0928
L146.2809 81.8665
" />
<path d="M147.7772 85.6742
L146.5072 84.4042
" />
<path d="M147.7772 85.7122
L147.7772 85.6742
" />
<path d="M146.2809 81.8665
L144.7546 81.8665
" />
<path d="M146.5072 84.4042
L146.5072 82.0928
" />
<path d="M148.3170 86.2520
L147.7772 85.7122
" />
</g>
<g style="fill:none; 
stroke:#000000; stroke-width:0.3810; stroke-opacity:1; 
stroke-linecap:round; stroke-linejoin:round;">
<path d="M150.1820 86.2520
L148.3170 86.2520
" />
</g>
<g style="fill:none; 
stroke:#000000; stroke-width:0.5080; stroke-opacity:1; 
stroke-linecap:round; stroke-linejoin:round;">
<path d="M144.7546 79.9061
L144.7546 81.8665
" />
<path d="M158.2674 93.1418
L157.2260 92.1004
" />
<path d="M159.0040 93.2942
L159.0040 94.8205
" />
</g>
<g style="fill:none; 
stroke:#000000; stroke-width:0.3810; stroke-opacity:1; 
stroke-linecap:round; stroke-linejoin:round;">
<path d="M157.5816 95.3516
L158.1127 94.8205
" />
<path d="M158.1127 94.8205
L159.0040 94.8205
" />
<path d="M146.2024 97.7646
L147.9296 99.4918
" />
</g>
<g style="fill:none; 
stroke:#000000; stroke-width:0.5080; stroke-opacity:1; 
stroke-linecap:round; stroke-linejoin:round;">
<path d="M159.1564 93.1418
L158.2674 93.1418
" />
</g>
<g style="fill:none; 
stroke:#000000; stroke-width:0.3810; stroke-opacity:1; 
stroke-linecap:round; stroke-linejoin:round;">
<path d="M157.2320 92.0944
L157.2320 90.1020
" />
</g>
<g style="fill:none; 
stroke:#000000; stroke-width:0.5080; stroke-opacity:1; 
stroke-linecap:round; stroke-linejoin:round;">
<path d="M162.1790 93.1418
L159.1564 93.1418
" />
</g>
<g style="fill:none; 
stroke:#000000; stroke-width:0.3810; stroke-opacity:1; 
stroke-linecap:round; stroke-linejoin:round;">
<path d="M157.5816 97.7138
L157.5816 95.3516
" />
<path d="M157.2260 92.1004
L157.2320 92.0944
" />
</g>
<g style="fill:none; 
stroke:#000000; stroke-width:0.5080; stroke-opacity:1; 
stroke-linecap:round; stroke-linejoin:round;">
<path d="M162.8140 95.3740
L162.8140 93.7768
" />
<path d="M162.8140 93.7768
L162.1790 93.1418
" />
<path d="M159.1564 93.1418
L159.0040 93.2942
" />
</g>
<g style="fill:none; 
stroke:#000000; stroke-width:0.3810; stroke-opacity:1; 
stroke-linecap:round; stroke-linejoin:round;">
<path d="M147.9296 99.4918
L155.8036 99.4918
" />
<path d="M155.8036 99.4918
L157.5816 97.7138
" />
</g>
<g style="fill:none; 
stroke:#000000; stroke-width:0.5080; stroke-opacity:1; 
stroke-linecap:round; stroke-linejoin:round;">
<path d="M147.3200 71.1123
L147.3200 74.0125
" />
</g>
<g style="fill:none; 
stroke:#000000; stroke-width:0.3810; stroke-opacity:1; 
stroke-linecap:round; stroke-linejoin:round;">
<path d="M149.1755 83.8520
L148.5646 83.2411
" />
<path d="M150.1820 83.8520
L149.1755 83.8520
" />
</g>
<g style="fill:none; 
stroke:#000000; stroke-width:0.5080; stroke-opacity:1; 
stroke-linecap:round; stroke-linejoin:round;">
<path d="M148.5646 83.2411
L148.5646 77.1321
" />
<path d="M148.5646 77.1321
L147.3200 75.8875
" />
<path d="M144.7800 71.1123
L144.7800 74.0125
" />
<path d="M144.7800 75.8875
L147.8534 78.9609
" />
<path d="M147.8534 78.9609
L147.8534 84.4042
" />
</g>
<g style="fill:none; 
stroke:#000000; stroke-width:0.3810; stroke-opacity:1; 
stroke-linecap:round; stroke-linejoin:round;">
<path d="M150.1628 84.6328
L150.1820 84.6520
" />
</g>
<g style="fill:none; 
stroke:#000000; stroke-width:0.5080; stroke-opacity:1; 
stroke-linecap:round; stroke-linejoin:round;">
<path d="M147.8534 84.4042
L148.0820 84.6328
" />
</g>
<g style="fill:none; 
stroke:#000000; stroke-width:0.3810; stroke-opacity:1; 
stroke-linecap:round; stroke-linejoin:round;">
<path d="M148.0820 84.6328
L150.1628 84.6328
" />
</g>
<g style="fill:none; 
stroke:#000000; stroke-width:0.5080; stroke-opacity:1; 
stroke-linecap:round; stroke-linejoin:round;">
<path d="M173.4820 81.5340
L173.4820 78.0288
" />
<path d="M173.4820 78.0288
L172.6692 77.2160
" />
<path d="M172.6692 77.2160
L170.0315 77.2160
" />
<path d="M170.4340 81.7625
L170.4340 80.4418
" />
<path d="M170.4340 88.1380
L172.3898 88.1380
" />
<path d="M170.4340 80.4418
L170.4594 80.4164
" />
<path d="M168.8315 90.6780
L170.5610 90.6780
" />
<path d="M175.4820 84.0340
L174.1212 85.3948
" />
<path d="M170.3070 85.3948
L168.0187 85.3948
" />
<path d="M170.4340 86.5630
L170.4340 85.5218
" />
<path d="M168.0187 85.3948
L167.3075 86.1060
" />
<path d="M174.1212 85.3948
L170.3070 85.3948
" />
<path d="M170.4340 85.5218
L170.3070 85.3948
" />
<path d="M170.3686 84.0340
L167.5215 84.0340
" />
<path d="M173.4820 84.0340
L170.3686 84.0340
" />
<path d="M167.5215 84.0340
L167.3075 83.8200
" />
<path d="M170.4340 83.1089
L170.4340 83.9686
" />
<path d="M170.4340 83.9686
L170.3686 84.0340
" />
</g>
<g style="fill:none; 
stroke:#000000; stroke-width:0.3810; stroke-opacity:1; 
stroke-linecap:round; stroke-linejoin:round;">
<path d="M158.6820 87.8520
L157.1940 87.8520
" />
<path d="M157.1940 87.8520
L156.8958 87.5538
" />
<path d="M156.4192 88.6520
L156.1592 88.3920
" />
<path d="M158.6820 88.6520
L156.4192 88.6520
" />
<path d="M156.4320 90.1020
L156.4320 91.5482
" />
<path d="M156.4320 91.5482
L156.2862 91.6940
" />
<path d="M155.6320 90.1020
L155.6320 89.1602
" />
<path d="M155.6320 89.1602
L155.0670 88.5952
" />
<path d="M154.0320 80.7530
L153.1889 79.9099
" />
</g>
<g style="fill:none; 
stroke:#000000; stroke-width:0.5080; stroke-opacity:1; 
stroke-linecap:round; stroke-linejoin:round;">
<path d="M149.8854 67.6402
L137.9998 67.6402
" />
<path d="M151.7411 79.9099
L151.3586 79.5274
" />
<path d="M151.3586 79.5274
L151.3586 69.1134
" />
<path d="M137.9998 67.6402
L136.3000 69.3400
" />
<path d="M151.3586 69.1134
L149.8854 67.6402
" />
</g>
<g style="fill:none; 
stroke:#000000; stroke-width:0.3810; stroke-opacity:1; 
stroke-linecap:round; stroke-linejoin:round;">
<path d="M153.1889 79.9099
L151.7411 79.9099
" />
<path d="M154.0320 81.6020
L154.0320 80.7530
" />
<path d="M154.0320 94.8500
L154.4320 95.2500
" />
<path d="M154.0320 90.1020
L154.0320 94.8500
" />
<path d="M152.4320 94.7100
L151.8920 95.2500
" />
<path d="M152.4320 90.1020
L152.4320 94.7100
" />
<path d="M155.8798 94.1832
L155.8798 96.3422
" />
<path d="M155.8798 96.3422
L154.4320 97.7900
" />
<path d="M154.8320 90.1020
L154.8320 93.1354
" />
<path d="M154.8320 93.1354
L155.8798 94.1832
" />
<path d="M153.2320 96.4500
L151.8920 97.7900
" />
<path d="M153.2320 90.1020
L153.2320 96.4500
" />
</g>
<g style="fill:none; 
stroke:#000000; stroke-width:0.5080; stroke-opacity:1; 
stroke-linecap:round; stroke-linejoin:round;">
<path d="M148.8948 89.9922
L149.6568 89.9922
" />
</g>
<g style="fill:none; 
stroke:#000000; stroke-width:0.3810; stroke-opacity:1; 
stroke-linecap:round; stroke-linejoin:round;">
<path d="M149.6568 89.9922
L150.1820 89.4670
" />
<path d="M150.1820 89.4670
L150.1820 88.6520
" />
</g>
<g style="fill:none; 
stroke:#000000; stroke-width:0.5080; stroke-opacity:1; 
stroke-linecap:round; stroke-linejoin:round;">
<path d="M143.6624 95.2246
L148.8948 89.9922
" />
<path d="M143.6624 97.7646
L142.4060 96.5082
" />
</g>
<g style="fill:none; 
stroke:#000000; stroke-width:0.3810; stroke-opacity:1; 
stroke-linecap:round; stroke-linejoin:round;">
<path d="M148.5900 87.8586
L148.5966 87.8520
" />
</g>
<g style="fill:none; 
stroke:#000000; stroke-width:0.5080; stroke-opacity:1; 
stroke-linecap:round; stroke-linejoin:round;">
<path d="M148.2852 87.8586
L148.3106 87.8586
" />
<path d="M142.4060 96.5082
L142.4060 93.7378
" />
</g>
<g style="fill:none; 
stroke:#000000; stroke-width:0.3810; stroke-opacity:1; 
stroke-linecap:round; stroke-linejoin:round;">
<path d="M148.3106 87.8586
L148.5900 87.8586
" />
</g>
<g style="fill:none; 
stroke:#000000; stroke-width:0.5080; stroke-opacity:1; 
stroke-linecap:round; stroke-linejoin:round;">
<path d="M142.4060 93.7378
L148.2852 87.8586
" />
</g>
<g style="fill:none; 
stroke:#000000; stroke-width:0.3810; stroke-opacity:1; 
stroke-linecap:round; stroke-linejoin:round;">
<path d="M148.5966 87.8520
L150.1820 87.8520
" />
</g>
<g style="fill:none; 
stroke:#000000; stroke-width:0.5080; stroke-opacity:1; 
stroke-linecap:round; stroke-linejoin:round;">
<path d="M148.0448 96.5082
L149.0980 95.4550
" />
<path d="M150.9522 91.8464
L150.9522 91.8210
" />
<path d="M141.1224 97.7646
L141.1224 98.2472
" />
</g>
<g style="fill:none; 
stroke:#000000; stroke-width:0.3810; stroke-opacity:1; 
stroke-linecap:round; stroke-linejoin:round;">
<path d="M150.9522 91.8210
L151.6320 91.1412
" />
</g>
<g style="fill:none; 
stroke:#000000; stroke-width:0.5080; stroke-opacity:1; 
stroke-linecap:round; stroke-linejoin:round;">
<path d="M141.1224 98.2472
L142.3416 99.4664
" />
<path d="M149.0980 93.7006
L150.9522 91.8464
" />
</g>
<g style="fill:none; 
stroke:#000000; stroke-width:0.3810; stroke-opacity:1; 
stroke-linecap:round; stroke-linejoin:round;">
<path d="M151.6320 91.1412
L151.6320 90.1020
" />
</g>
<g style="fill:none; 
stroke:#000000; stroke-width:0.5080; stroke-opacity:1; 
stroke-linecap:round; stroke-linejoin:round;">
<path d="M149.0980 95.4550
L149.0980 93.7006
" />
<path d="M144.2720 99.4664
L144.9460 98.7924
" />
<path d="M144.9460 97.1615
L145.5993 96.5082
" />
<path d="M144.9460 98.7924
L144.9460 97.1615
" />
<path d="M145.5993 96.5082
L148.0448 96.5082
" />
<path d="M142.3416 99.4664
L144.2720 99.4664
" />
<path d="M150.1394 81.8896
L150.1394 83.0094
" />
<path d="M150.1394 83.0094
L150.1820 83.0520
" />
</g>
<g style="fill:none; 
stroke:#000000; stroke-width:0.3810; stroke-opacity:1; 
stroke-linecap:round; stroke-linejoin:round;">
<path d="M152.4320 81.6020
L152.4320 86.8614
" />
<path d="M152.4320 86.8614
L152.0698 87.2236
" />
<path d="M153.2320 87.7632
L152.6794 88.3158
" />
<path d="M153.2320 81.6020
L153.2320 87.7632
" />
<path d="M151.6320 85.7949
L151.6891 85.8520
" />
<path d="M151.6320 81.6020
L151.6320 85.7949
" />
<path d="M148.5951 85.3897
L150.1197 85.3897
" />
<path d="M150.1197 85.3897
L150.1820 85.4520
" />
<path d="M158.6820 85.4520
L162.9982 85.4520
" />
<path d="M162.9982 85.4520
L163.6522 86.1060
" />
<path d="M163.6522 86.1060
L165.4325 86.1060
" />
<path d="M158.6820 84.6520
L162.9980 84.6520
" />
<path d="M162.9980 84.6520
L163.8300 83.8200
" />
<path d="M163.8300 83.8200
L165.4325 83.8200
" />
<path d="M157.0798 84.6520
L155.9560 85.7758
" />
<path d="M158.6820 84.6520
L157.0798 84.6520
" />
</g>
<g style="fill:#FFFFFF; fill-opacity:1.0000; stroke:none;">
<circle cx="154.3558" cy="75.7936" r="0.2000" /> 
</g>
<g style="fill:#FFFFFF; fill-opacity:1.0000; stroke:none;">
<circle cx="123.1138" cy="73.3298" r="0.2000" /> 
</g>
<g style="fill:#FFFFFF; fill-opacity:1.0000; stroke:none;">
<circle cx="129.1082" cy="77.9526" r="0.2000" /> 
</g>
<g style="fill:#FFFFFF; fill-opacity:1.0000; stroke:none;">
<circle cx="167.2590" cy="97.9424" r="0.2000" /> 
</g>
<g style="fill:#FFFFFF; fill-opacity:1.0000; stroke:none;">
<circle cx="155.6766" cy="83.0580" r="0.2000" /> 
</g>
<g style="fill:#FFFFFF; fill-opacity:1.0000; stroke:none;">
<circle cx="163.8300" cy="76.7588" r="0.2000" /> 
</g>
<g style="fill:#FFFFFF; fill-opacity:1.0000; stroke:none;">
<circle cx="125.3490" cy="90.9066" r="0.2000" /> 
</g>
<g style="fill:#FFFFFF; fill-opacity:1.0000; stroke:none;">
<circle cx="130.8100" cy="95.3516" r="0.2000" /> 
</g>
<g style="fill:#FFFFFF; fill-opacity:1.0000; stroke:none;">
<circle cx="129.0828" cy="73.3806" r="0.2000" /> 
</g>
<g style="fill:#FFFFFF; fill-opacity:1.0000; stroke:none;">
<circle cx="144.8308" cy="85.0646" r="0.2000" /> 
</g>
<g style="fill:#FFFFFF; fill-opacity:1.0000; stroke:none;">
<circle cx="123.0884" cy="78.1304" r="0.2000" /> 
</g>
<g style="fill:#FFFFFF; fill-opacity:1.0000; stroke:none;">
<circle cx="159.8422" cy="98.6028" r="0.2000" /> 
</g>
<g style="fill:#FFFFFF; fill-opacity:1.0000; stroke:none;">
<circle cx="154.5336" cy="83.2866" r="0.2000" /> 
</g>
<g style="fill:#FFFFFF; fill-opacity:1.0000; stroke:none;">
<circle cx="146.0246" cy="69.2404" r="0.2000" /> 
</g>
<g style="fill:#FFFFFF; fill-opacity:1.0000; stroke:none;">
<circle cx="159.1818" cy="81.9658" r="0.2000" /> 
</g>
<g style="fill:#FFFFFF; fill-opacity:1.0000; stroke:none;">
<circle cx="130.8354" cy="88.9000" r="0.2000" /> 
</g>
<g style="fill:#FFFFFF; fill-opacity:1.0000; stroke:none;">
<circle cx="129.1082" cy="84.3026" r="0.2000" /> 
</g>
<g style="fill:#FFFFFF; fill-opacity:1.0000; stroke:none;">
<circle cx="121.5644" cy="89.3318" r="0.2000" /> 
</g>
<g style="fill:#FFFFFF; fill-opacity:1.0000; stroke:none;">
<circle cx="123.1392" cy="84.4042" r="0.2000" /> 
</g>
<g style="fill:#FFFFFF; fill-opacity:1.0000; stroke:none;">
<circle cx="162.7632" cy="70.0024" r="0.2000" /> 
</g>
<g style="fill:#FFFFFF; fill-opacity:1.0000; stroke:none;">
<circle cx="155.0416" cy="70.0786" r="0.2000" /> 
</g>
<g style="fill:#FFFFFF; fill-opacity:1.0000; stroke:none;">
<circle cx="160.6804" cy="81.1530" r="0.2000" /> 
</g>
<g style="fill:#FFFFFF; fill-opacity:1.0000; stroke:none;">
<circle cx="166.8780" cy="88.7730" r="0.2000" /> 
</g>
<g style="fill:#FFFFFF; fill-opacity:1.0000; stroke:none;">
<circle cx="160.5534" cy="86.2330" r="0.2000" /> 
</g>
<g style="fill:#FFFFFF; fill-opacity:1.0000; stroke:none;">
<circle cx="167.2336" cy="93.5228" r="0.2000" /> 
</g>
<g style="fill:#FFFFFF; fill-opacity:1.0000; stroke:none;">
<circle cx="165.0492" cy="90.4494" r="0.2000" /> 
</g>
<g style="fill:#FFFFFF; fill-opacity:1.0000; stroke:none;">
<circle cx="165.7350" cy="80.1624" r="0.2000" /> 
</g>
<g style="fill:#FFFFFF; fill-opacity:1.0000; stroke:none;">
<circle cx="170.4594" cy="80.4164" r="0.2000" /> 
</g>
<g style="fill:#FFFFFF; fill-opacity:1.0000; stroke:none;">
<circle cx="172.3898" cy="88.1380" r="0.2000" /> 
</g>
<g style="fill:#FFFFFF; fill-opacity:1.0000; stroke:none;">
<circle cx="170.5610" cy="90.6780" r="0.2000" /> 
</g>
<g style="fill:#FFFFFF; fill-opacity:1.0000; stroke:none;">
<circle cx="156.8958" cy="87.5538" r="0.2000" /> 
</g>
<g style="fill:#FFFFFF; fill-opacity:1.0000; stroke:none;">
<circle cx="156.1592" cy="88.3920" r="0.2000" /> 
</g>
<g style="fill:#FFFFFF; fill-opacity:1.0000; stroke:none;">
<circle cx="156.2862" cy="91.6940" r="0.2000" /> 
</g>
<g style="fill:#FFFFFF; fill-opacity:1.0000; stroke:none;">
<circle cx="155.0670" cy="88.5952" r="0.2000" /> 
</g>
<g style="fill:#FFFFFF; fill-opacity:1.0000; stroke:none;">
<circle cx="150.1394" cy="81.8896" r="0.2000" /> 
</g>
<g style="fill:#FFFFFF; fill-opacity:1.0000; stroke:none;">
<circle cx="152.0698" cy="87.2236" r="0.2000" /> 
</g>
<g style="fill:#FFFFFF; fill-opacity:1.0000; stroke:none;">
<circle cx="152.6794" cy="88.3158" r="0.2000" /> 
</g>
<g style="fill:#FFFFFF; fill-opacity:1.0000; stroke:none;">
<circle cx="151.6891" cy="85.8520" r="0.2000" /> 
</g>
<g style="fill:#FFFFFF; fill-opacity:1.0000; stroke:none;">
<circle cx="148.5951" cy="85.3897" r="0.2000" /> 
</g>
<g style="fill:#FFFFFF; fill-opacity:1.0000; stroke:none;">
<circle cx="155.9560" cy="85.7758" r="0.2000" /> 
</g>
<g style="fill:#FFFFFF; fill-opacity:1.0000; stroke:none;">
<circle cx="177.0000" cy="97.0000" r="1.3500" /> 
</g>
<g style="fill:#FFFFFF; fill-opacity:1.0000; stroke:none;">
<circle cx="123.0000" cy="97.0000" r="1.3500" /> 
</g>
<g style="fill:#FFFFFF; fill-opacity:1.0000; stroke:none;">
<circle cx="123.0000" cy="69.5000" r="1.3500" /> 
</g>
<g style="fill:#FFFFFF; fill-opacity:1.0000; stroke:none;">
<circle cx="177.0000" cy="69.5000" r="1.3500" /> 
</g>
<g style="fill:none; 
stroke:#FFFFFF; stroke-width:1.5000; stroke-opacity:1; 
stroke-linecap:round; stroke-linejoin:round;">
<path d="M123.2000 81.4500
L123.2000 80.9500
" />
</g>
<g style="fill:#FFFFFF; fill-opacity:1.0000; stroke:none;">
<circle cx="127.6000" cy="81.2000" r="1.0000" /> 
</g>
<g style="fill:#FFFFFF; fill-opacity:1.0000; stroke:none;">
<circle cx="136.3000" cy="79.5000" r="0.5000" /> 
</g>
<g style="fill:#FFFFFF; fill-opacity:1.0000; stroke:none;">
<circle cx="136.3000" cy="76.9600" r="0.5000" /> 
</g>
<g style="fill:#FFFFFF; fill-opacity:1.0000; stroke:none;">
<circle cx="136.3000" cy="74.4200" r="0.5000" /> 
</g>
<g style="fill:#FFFFFF; fill-opacity:1.0000; stroke:none;">
<circle cx="136.3000" cy="71.8800" r="0.5000" /> 
</g>
<g style="fill:#FFFFFF; fill-opacity:1.0000; stroke:none;">
<circle cx="136.3000" cy="69.3400" r="0.5000" /> 
</g>
<g style="fill:#FFFFFF; fill-opacity:1.0000; stroke:none;">
<circle cx="151.8920" cy="95.2500" r="0.5000" /> 
</g>
<g style="fill:#FFFFFF; fill-opacity:1.0000; stroke:none;">
<circle cx="154.4320" cy="95.2500" r="0.5000" /> 
</g>
<g style="fill:#FFFFFF; fill-opacity:1.0000; stroke:none;">
<circle cx="151.8920" cy="97.7900" r="0.5000" /> 
</g>
<g style="fill:#FFFFFF; fill-opacity:1.0000; stroke:none;">
<circle cx="154.4320" cy="97.7900" r="0.5000" /> 
</g>
<g style="fill:#FFFFFF; fill-opacity:1.0000; stroke:none;">
<circle cx="141.1224" cy="97.7646" r="0.5000" /> 
</g>
<g style="fill:#FFFFFF; fill-opacity:1.0000; stroke:none;">
<circle cx="141.1224" cy="95.2246" r="0.5000" /> 
</g>
<g style="fill:#FFFFFF; fill-opacity:1.0000; stroke:none;">
<circle cx="143.6624" cy="97.7646" r="0.5000" /> 
</g>
<g style="fill:#FFFFFF; fill-opacity:1.0000; stroke:none;">
<circle cx="143.6624" cy="95.2246" r="0.5000" /> 
</g>
<g style="fill:#FFFFFF; fill-opacity:1.0000; stroke:none;">
<circle cx="146.2024" cy="97.7646" r="0.5000" /> 
</g>
<g style="fill:#FFFFFF; fill-opacity:1.0000; stroke:none;">
<circle cx="146.2024" cy="95.2246" r="0.5000" /> 
</g>
<g style="fill:#FFFFFF; fill-opacity:1.0000; stroke:none;">
<circle cx="140.9700" cy="77.2160" r="0.5000" /> 
</g>
<g style="fill:#FFFFFF; fill-opacity:1.0000; stroke:none;">
<circle cx="140.9700" cy="79.7560" r="0.5000" /> 
</g>
<g style="fill:#FFFFFF; fill-opacity:1.0000; stroke:none;">
<circle cx="140.9700" cy="82.2960" r="0.5000" /> 
</g>
<g style="fill:#FFFFFF; fill-opacity:1.0000; stroke:none;">
<circle cx="140.9700" cy="84.8360" r="0.5000" /> 
</g>
<g style="fill:#FFFFFF; fill-opacity:1.0000; stroke:none;">
<circle cx="140.9700" cy="87.3760" r="0.5000" /> 
</g>
<g style="fill:#FFFFFF; fill-opacity:1.0000; stroke:none;">
<circle cx="140.9700" cy="89.9160" r="0.5000" /> 
</g>
<g style="fill:#FFFFFF; fill-opacity:1.0000; stroke:none;">
<circle cx="173.4820" cy="81.5340" r="0.4750" /> 
</g>
<g style="fill:#FFFFFF; fill-opacity:1.0000; stroke:none;">
<circle cx="173.4820" cy="84.0340" r="0.4750" /> 
</g>
<g style="fill:#FFFFFF; fill-opacity:1.0000; stroke:none;">
<circle cx="175.4820" cy="84.0340" r="0.4750" /> 
</g>
<g style="fill:#FFFFFF; fill-opacity:1.0000; stroke:none;">
<circle cx="175.4820" cy="81.5340" r="0.4750" /> 
</g>
<g style="fill:#FFFFFF; fill-opacity:1.0000; stroke:none;">
<circle cx="178.3420" cy="76.7840" r="1.1500" /> 
</g>
<g style="fill:#FFFFFF; fill-opacity:1.0000; stroke:none;">
<circle cx="178.3420" cy="88.7840" r="1.1500" /> 
</g> 
</svg>
