<?xml version="1.0" standalone="no"?>
 <!DOCTYPE svg PUBLIC "-//W3C//DTD SVG 1.1//EN" 
 "http://www.w3.org/Graphics/SVG/1.1/DTD/svg11.dtd"> 
<svg
  xmlns:svg="http://www.w3.org/2000/svg"
  xmlns="http://www.w3.org/2000/svg"
  xmlns:xlink="http://www.w3.org/1999/xlink"
  version="1.1"
  width="297.0022mm" height="210.0072mm" viewBox="0.0000 0.0000 297.0022 210.0072">
<title>SVG Image created as t1-F_Silkscreen.svg date 2024/02/01 13:51:47 </title>
  <desc>Image generated by PCBNEW </desc>
<g style="fill:#000000; fill-opacity:1.0000;stroke:#000000; stroke-opacity:1.0000;
stroke-linecap:round; stroke-linejoin:round;"
 transform="translate(0 0) scale(1 1)">
</g>
<g style="fill:#000000; fill-opacity:0.0; 
stroke:#000000; stroke-width:0.0000; stroke-opacity:1; 
stroke-linecap:round; stroke-linejoin:round;">
</g>
<g style="fill:#000000; fill-opacity:0.0; 
stroke:#000000; stroke-width:0.1500; stroke-opacity:1; 
stroke-linecap:round; stroke-linejoin:round;">
<text x="135.8392" y="90.5430"
textLength="2.2024" font-size="1.3333" lengthAdjust="spacingAndGlyphs"
text-anchor="middle" opacity="0">C1</text>
<g class="stroked-text"><desc>C1</desc>
<path d="M135.6725 90.4026
L135.6249 90.4502
" />
<path d="M135.6249 90.4502
L135.4821 90.4978
" />
<path d="M135.4821 90.4978
L135.3868 90.4978
" />
<path d="M135.3868 90.4978
L135.2440 90.4502
" />
<path d="M135.2440 90.4502
L135.1487 90.3550
" />
<path d="M135.1487 90.3550
L135.1011 90.2597
" />
<path d="M135.1011 90.2597
L135.0535 90.0692
" />
<path d="M135.0535 90.0692
L135.0535 89.9264
" />
<path d="M135.0535 89.9264
L135.1011 89.7359
" />
<path d="M135.1011 89.7359
L135.1487 89.6407
" />
<path d="M135.1487 89.6407
L135.2440 89.5454
" />
<path d="M135.2440 89.5454
L135.3868 89.4978
" />
<path d="M135.3868 89.4978
L135.4821 89.4978
" />
<path d="M135.4821 89.4978
L135.6249 89.5454
" />
<path d="M135.6249 89.5454
L135.6725 89.5931
" />
<path d="M136.6249 90.4978
L136.0535 90.4978
" />
<path d="M136.3392 90.4978
L136.3392 89.4978
" />
<path d="M136.3392 89.4978
L136.2440 89.6407
" />
<path d="M136.2440 89.6407
L136.1487 89.7359
" />
<path d="M136.1487 89.7359
L136.0535 89.7835
" />
</g><text x="122.9360" y="93.3370"
textLength="2.2024" font-size="1.3333" lengthAdjust="spacingAndGlyphs"
text-anchor="middle" opacity="0">C2</text>
<g class="stroked-text"><desc>C2</desc>
<path d="M122.7693 93.1966
L122.7217 93.2442
" />
<path d="M122.7217 93.2442
L122.5789 93.2918
" />
<path d="M122.5789 93.2918
L122.4836 93.2918
" />
<path d="M122.4836 93.2918
L122.3408 93.2442
" />
<path d="M122.3408 93.2442
L122.2455 93.1490
" />
<path d="M122.2455 93.1490
L122.1979 93.0537
" />
<path d="M122.1979 93.0537
L122.1503 92.8632
" />
<path d="M122.1503 92.8632
L122.1503 92.7204
" />
<path d="M122.1503 92.7204
L122.1979 92.5299
" />
<path d="M122.1979 92.5299
L122.2455 92.4347
" />
<path d="M122.2455 92.4347
L122.3408 92.3394
" />
<path d="M122.3408 92.3394
L122.4836 92.2918
" />
<path d="M122.4836 92.2918
L122.5789 92.2918
" />
<path d="M122.5789 92.2918
L122.7217 92.3394
" />
<path d="M122.7217 92.3394
L122.7693 92.3871
" />
<path d="M123.1503 92.3871
L123.1979 92.3394
" />
<path d="M123.1979 92.3394
L123.2931 92.2918
" />
<path d="M123.2931 92.2918
L123.5312 92.2918
" />
<path d="M123.5312 92.2918
L123.6265 92.3394
" />
<path d="M123.6265 92.3394
L123.6741 92.3871
" />
<path d="M123.6741 92.3871
L123.7217 92.4823
" />
<path d="M123.7217 92.4823
L123.7217 92.5775
" />
<path d="M123.7217 92.5775
L123.6741 92.7204
" />
<path d="M123.6741 92.7204
L123.1027 93.2918
" />
<path d="M123.1027 93.2918
L123.7217 93.2918
" />
</g><text x="164.3634" y="74.6172"
textLength="2.2024" font-size="1.3333" lengthAdjust="spacingAndGlyphs"
text-anchor="middle" opacity="0">C3</text>
<g class="stroked-text"><desc>C3</desc>
<path d="M164.1967 74.4768
L164.1491 74.5244
" />
<path d="M164.1491 74.5244
L164.0063 74.5720
" />
<path d="M164.0063 74.5720
L163.9110 74.5720
" />
<path d="M163.9110 74.5720
L163.7682 74.5244
" />
<path d="M163.7682 74.5244
L163.6729 74.4292
" />
<path d="M163.6729 74.4292
L163.6253 74.3339
" />
<path d="M163.6253 74.3339
L163.5777 74.1434
" />
<path d="M163.5777 74.1434
L163.5777 74.0006
" />
<path d="M163.5777 74.0006
L163.6253 73.8101
" />
<path d="M163.6253 73.8101
L163.6729 73.7149
" />
<path d="M163.6729 73.7149
L163.7682 73.6196
" />
<path d="M163.7682 73.6196
L163.9110 73.5720
" />
<path d="M163.9110 73.5720
L164.0063 73.5720
" />
<path d="M164.0063 73.5720
L164.1491 73.6196
" />
<path d="M164.1491 73.6196
L164.1967 73.6673
" />
<path d="M164.5301 73.5720
L165.1491 73.5720
" />
<path d="M165.1491 73.5720
L164.8158 73.9530
" />
<path d="M164.8158 73.9530
L164.9586 73.9530
" />
<path d="M164.9586 73.9530
L165.0539 74.0006
" />
<path d="M165.0539 74.0006
L165.1015 74.0482
" />
<path d="M165.1015 74.0482
L165.1491 74.1434
" />
<path d="M165.1491 74.1434
L165.1491 74.3815
" />
<path d="M165.1491 74.3815
L165.1015 74.4768
" />
<path d="M165.1015 74.4768
L165.0539 74.5244
" />
<path d="M165.0539 74.5244
L164.9586 74.5720
" />
<path d="M164.9586 74.5720
L164.6729 74.5720
" />
<path d="M164.6729 74.5720
L164.5777 74.5244
" />
<path d="M164.5777 74.5244
L164.5301 74.4768
" />
</g><text x="153.7970" y="75.5570"
textLength="2.2024" font-size="1.3333" lengthAdjust="spacingAndGlyphs"
text-anchor="middle" opacity="0">C4</text>
<g class="stroked-text"><desc>C4</desc>
<path d="M153.6303 75.4166
L153.5827 75.4642
" />
<path d="M153.5827 75.4642
L153.4399 75.5118
" />
<path d="M153.4399 75.5118
L153.3446 75.5118
" />
<path d="M153.3446 75.5118
L153.2018 75.4642
" />
<path d="M153.2018 75.4642
L153.1065 75.3690
" />
<path d="M153.1065 75.3690
L153.0589 75.2737
" />
<path d="M153.0589 75.2737
L153.0113 75.0832
" />
<path d="M153.0113 75.0832
L153.0113 74.9404
" />
<path d="M153.0113 74.9404
L153.0589 74.7499
" />
<path d="M153.0589 74.7499
L153.1065 74.6547
" />
<path d="M153.1065 74.6547
L153.2018 74.5594
" />
<path d="M153.2018 74.5594
L153.3446 74.5118
" />
<path d="M153.3446 74.5118
L153.4399 74.5118
" />
<path d="M153.4399 74.5118
L153.5827 74.5594
" />
<path d="M153.5827 74.5594
L153.6303 74.6071
" />
<path d="M154.4875 74.8452
L154.4875 75.5118
" />
<path d="M154.2494 74.4642
L154.0113 75.1785
" />
<path d="M154.0113 75.1785
L154.6303 75.1785
" />
</g><text x="163.3220" y="87.2410"
textLength="2.2024" font-size="1.3333" lengthAdjust="spacingAndGlyphs"
text-anchor="middle" opacity="0">C5</text>
<g class="stroked-text"><desc>C5</desc>
<path d="M163.1553 87.1006
L163.1077 87.1482
" />
<path d="M163.1077 87.1482
L162.9649 87.1958
" />
<path d="M162.9649 87.1958
L162.8696 87.1958
" />
<path d="M162.8696 87.1958
L162.7268 87.1482
" />
<path d="M162.7268 87.1482
L162.6315 87.0530
" />
<path d="M162.6315 87.0530
L162.5839 86.9577
" />
<path d="M162.5839 86.9577
L162.5363 86.7672
" />
<path d="M162.5363 86.7672
L162.5363 86.6244
" />
<path d="M162.5363 86.6244
L162.5839 86.4339
" />
<path d="M162.5839 86.4339
L162.6315 86.3387
" />
<path d="M162.6315 86.3387
L162.7268 86.2434
" />
<path d="M162.7268 86.2434
L162.8696 86.1958
" />
<path d="M162.8696 86.1958
L162.9649 86.1958
" />
<path d="M162.9649 86.1958
L163.1077 86.2434
" />
<path d="M163.1077 86.2434
L163.1553 86.2911
" />
<path d="M164.0601 86.1958
L163.5839 86.1958
" />
<path d="M163.5839 86.1958
L163.5363 86.6720
" />
<path d="M163.5363 86.6720
L163.5839 86.6244
" />
<path d="M163.5839 86.6244
L163.6791 86.5768
" />
<path d="M163.6791 86.5768
L163.9172 86.5768
" />
<path d="M163.9172 86.5768
L164.0125 86.6244
" />
<path d="M164.0125 86.6244
L164.0601 86.6720
" />
<path d="M164.0601 86.6720
L164.1077 86.7672
" />
<path d="M164.1077 86.7672
L164.1077 87.0053
" />
<path d="M164.1077 87.0053
L164.0601 87.1006
" />
<path d="M164.0601 87.1006
L164.0125 87.1482
" />
<path d="M164.0125 87.1482
L163.9172 87.1958
" />
<path d="M163.9172 87.1958
L163.6791 87.1958
" />
<path d="M163.6791 87.1958
L163.5839 87.1482
" />
<path d="M163.5839 87.1482
L163.5363 87.1006
" />
</g><text x="156.8450" y="79.4178"
textLength="2.2024" font-size="1.3333" lengthAdjust="spacingAndGlyphs"
text-anchor="middle" opacity="0">C7</text>
<g class="stroked-text"><desc>C7</desc>
<path d="M156.6783 79.2774
L156.6307 79.3250
" />
<path d="M156.6307 79.3250
L156.4879 79.3726
" />
<path d="M156.4879 79.3726
L156.3926 79.3726
" />
<path d="M156.3926 79.3726
L156.2498 79.3250
" />
<path d="M156.2498 79.3250
L156.1545 79.2298
" />
<path d="M156.1545 79.2298
L156.1069 79.1345
" />
<path d="M156.1069 79.1345
L156.0593 78.9440
" />
<path d="M156.0593 78.9440
L156.0593 78.8012
" />
<path d="M156.0593 78.8012
L156.1069 78.6107
" />
<path d="M156.1069 78.6107
L156.1545 78.5155
" />
<path d="M156.1545 78.5155
L156.2498 78.4202
" />
<path d="M156.2498 78.4202
L156.3926 78.3726
" />
<path d="M156.3926 78.3726
L156.4879 78.3726
" />
<path d="M156.4879 78.3726
L156.6307 78.4202
" />
<path d="M156.6307 78.4202
L156.6783 78.4679
" />
<path d="M157.0117 78.3726
L157.6783 78.3726
" />
<path d="M157.6783 78.3726
L157.2498 79.3726
" />
</g><text x="146.7612" y="79.6464"
textLength="2.2024" font-size="1.3333" lengthAdjust="spacingAndGlyphs"
text-anchor="middle" opacity="0">C8</text>
<g class="stroked-text"><desc>C8</desc>
<path d="M146.5945 79.5060
L146.5469 79.5536
" />
<path d="M146.5469 79.5536
L146.4041 79.6012
" />
<path d="M146.4041 79.6012
L146.3088 79.6012
" />
<path d="M146.3088 79.6012
L146.1660 79.5536
" />
<path d="M146.1660 79.5536
L146.0707 79.4584
" />
<path d="M146.0707 79.4584
L146.0231 79.3631
" />
<path d="M146.0231 79.3631
L145.9755 79.1726
" />
<path d="M145.9755 79.1726
L145.9755 79.0298
" />
<path d="M145.9755 79.0298
L146.0231 78.8393
" />
<path d="M146.0231 78.8393
L146.0707 78.7441
" />
<path d="M146.0707 78.7441
L146.1660 78.6488
" />
<path d="M146.1660 78.6488
L146.3088 78.6012
" />
<path d="M146.3088 78.6012
L146.4041 78.6012
" />
<path d="M146.4041 78.6012
L146.5469 78.6488
" />
<path d="M146.5469 78.6488
L146.5945 78.6965
" />
<path d="M147.1660 79.0298
L147.0707 78.9822
" />
<path d="M147.0707 78.9822
L147.0231 78.9346
" />
<path d="M147.0231 78.9346
L146.9755 78.8393
" />
<path d="M146.9755 78.8393
L146.9755 78.7917
" />
<path d="M146.9755 78.7917
L147.0231 78.6965
" />
<path d="M147.0231 78.6965
L147.0707 78.6488
" />
<path d="M147.0707 78.6488
L147.1660 78.6012
" />
<path d="M147.1660 78.6012
L147.3564 78.6012
" />
<path d="M147.3564 78.6012
L147.4517 78.6488
" />
<path d="M147.4517 78.6488
L147.4993 78.6965
" />
<path d="M147.4993 78.6965
L147.5469 78.7917
" />
<path d="M147.5469 78.7917
L147.5469 78.8393
" />
<path d="M147.5469 78.8393
L147.4993 78.9346
" />
<path d="M147.4993 78.9346
L147.4517 78.9822
" />
<path d="M147.4517 78.9822
L147.3564 79.0298
" />
<path d="M147.3564 79.0298
L147.1660 79.0298
" />
<path d="M147.1660 79.0298
L147.0707 79.0774
" />
<path d="M147.0707 79.0774
L147.0231 79.1250
" />
<path d="M147.0231 79.1250
L146.9755 79.2203
" />
<path d="M146.9755 79.2203
L146.9755 79.4107
" />
<path d="M146.9755 79.4107
L147.0231 79.5060
" />
<path d="M147.0231 79.5060
L147.0707 79.5536
" />
<path d="M147.0707 79.5536
L147.1660 79.6012
" />
<path d="M147.1660 79.6012
L147.3564 79.6012
" />
<path d="M147.3564 79.6012
L147.4517 79.5536
" />
<path d="M147.4517 79.5536
L147.4993 79.5060
" />
<path d="M147.4993 79.5060
L147.5469 79.4107
" />
<path d="M147.5469 79.4107
L147.5469 79.2203
" />
<path d="M147.5469 79.2203
L147.4993 79.1250
" />
<path d="M147.4993 79.1250
L147.4517 79.0774
" />
<path d="M147.4517 79.0774
L147.3564 79.0298
" />
</g><text x="162.8648" y="94.2260"
textLength="2.2024" font-size="1.3333" lengthAdjust="spacingAndGlyphs"
text-anchor="middle" opacity="0">D1</text>
<g class="stroked-text"><desc>D1</desc>
<path d="M162.1267 94.1808
L162.1267 93.1808
" />
<path d="M162.1267 93.1808
L162.3648 93.1808
" />
<path d="M162.3648 93.1808
L162.5077 93.2284
" />
<path d="M162.5077 93.2284
L162.6029 93.3237
" />
<path d="M162.6029 93.3237
L162.6505 93.4189
" />
<path d="M162.6505 93.4189
L162.6981 93.6094
" />
<path d="M162.6981 93.6094
L162.6981 93.7522
" />
<path d="M162.6981 93.7522
L162.6505 93.9427
" />
<path d="M162.6505 93.9427
L162.6029 94.0380
" />
<path d="M162.6029 94.0380
L162.5077 94.1332
" />
<path d="M162.5077 94.1332
L162.3648 94.1808
" />
<path d="M162.3648 94.1808
L162.1267 94.1808
" />
<path d="M163.6505 94.1808
L163.0791 94.1808
" />
<path d="M163.3648 94.1808
L163.3648 93.1808
" />
<path d="M163.3648 93.1808
L163.2696 93.3237
" />
<path d="M163.2696 93.3237
L163.1743 93.4189
" />
<path d="M163.1743 93.4189
L163.0791 93.4665
" />
</g><text x="149.3774" y="75.4554"
textLength="2.2024" font-size="1.3333" lengthAdjust="spacingAndGlyphs"
text-anchor="middle" opacity="0">D2</text>
<g class="stroked-text"><desc>D2</desc>
<path d="M148.6393 75.4102
L148.6393 74.4102
" />
<path d="M148.6393 74.4102
L148.8774 74.4102
" />
<path d="M148.8774 74.4102
L149.0203 74.4578
" />
<path d="M149.0203 74.4578
L149.1155 74.5531
" />
<path d="M149.1155 74.5531
L149.1631 74.6483
" />
<path d="M149.1631 74.6483
L149.2107 74.8388
" />
<path d="M149.2107 74.8388
L149.2107 74.9816
" />
<path d="M149.2107 74.9816
L149.1631 75.1721
" />
<path d="M149.1631 75.1721
L149.1155 75.2674
" />
<path d="M149.1155 75.2674
L149.0203 75.3626
" />
<path d="M149.0203 75.3626
L148.8774 75.4102
" />
<path d="M148.8774 75.4102
L148.6393 75.4102
" />
<path d="M149.5917 74.5055
L149.6393 74.4578
" />
<path d="M149.6393 74.4578
L149.7345 74.4102
" />
<path d="M149.7345 74.4102
L149.9726 74.4102
" />
<path d="M149.9726 74.4102
L150.0679 74.4578
" />
<path d="M150.0679 74.4578
L150.1155 74.5055
" />
<path d="M150.1155 74.5055
L150.1631 74.6007
" />
<path d="M150.1631 74.6007
L150.1631 74.6959
" />
<path d="M150.1631 74.6959
L150.1155 74.8388
" />
<path d="M150.1155 74.8388
L149.5441 75.4102
" />
<path d="M149.5441 75.4102
L150.1631 75.4102
" />
</g><text x="142.5956" y="74.3632"
textLength="2.2024" font-size="1.3333" lengthAdjust="spacingAndGlyphs"
text-anchor="middle" opacity="0">D3</text>
<g class="stroked-text"><desc>D3</desc>
<path d="M141.8575 74.3180
L141.8575 73.3180
" />
<path d="M141.8575 73.3180
L142.0956 73.3180
" />
<path d="M142.0956 73.3180
L142.2385 73.3656
" />
<path d="M142.2385 73.3656
L142.3337 73.4609
" />
<path d="M142.3337 73.4609
L142.3813 73.5561
" />
<path d="M142.3813 73.5561
L142.4289 73.7466
" />
<path d="M142.4289 73.7466
L142.4289 73.8894
" />
<path d="M142.4289 73.8894
L142.3813 74.0799
" />
<path d="M142.3813 74.0799
L142.3337 74.1752
" />
<path d="M142.3337 74.1752
L142.2385 74.2704
" />
<path d="M142.2385 74.2704
L142.0956 74.3180
" />
<path d="M142.0956 74.3180
L141.8575 74.3180
" />
<path d="M142.7623 73.3180
L143.3813 73.3180
" />
<path d="M143.3813 73.3180
L143.0480 73.6990
" />
<path d="M143.0480 73.6990
L143.1908 73.6990
" />
<path d="M143.1908 73.6990
L143.2861 73.7466
" />
<path d="M143.2861 73.7466
L143.3337 73.7942
" />
<path d="M143.3337 73.7942
L143.3813 73.8894
" />
<path d="M143.3813 73.8894
L143.3813 74.1275
" />
<path d="M143.3813 74.1275
L143.3337 74.2228
" />
<path d="M143.3337 74.2228
L143.2861 74.2704
" />
<path d="M143.2861 74.2704
L143.1908 74.3180
" />
<path d="M143.1908 74.3180
L142.9051 74.3180
" />
<path d="M142.9051 74.3180
L142.8099 74.2704
" />
<path d="M142.8099 74.2704
L142.7623 74.2228
" />
</g><text x="167.8940" y="75.0660"
textLength="2.0595" font-size="1.3333" lengthAdjust="spacingAndGlyphs"
text-anchor="middle" opacity="0">F1</text>
<g class="stroked-text"><desc>F1</desc>
<path d="M167.5607 74.4970
L167.2273 74.4970
" />
<path d="M167.2273 75.0208
L167.2273 74.0208
" />
<path d="M167.2273 74.0208
L167.7035 74.0208
" />
<path d="M168.6083 75.0208
L168.0369 75.0208
" />
<path d="M168.3226 75.0208
L168.3226 74.0208
" />
<path d="M168.3226 74.0208
L168.2273 74.1637
" />
<path d="M168.2273 74.1637
L168.1321 74.2589
" />
<path d="M168.1321 74.2589
L168.0369 74.3065
" />
</g><text x="167.8940" y="92.8280"
textLength="3.0595" font-size="1.3333" lengthAdjust="spacingAndGlyphs"
text-anchor="middle" opacity="0">FB1</text>
<g class="stroked-text"><desc>FB1</desc>
<path d="M167.0607 92.2590
L166.7273 92.2590
" />
<path d="M166.7273 92.7828
L166.7273 91.7828
" />
<path d="M166.7273 91.7828
L167.2035 91.7828
" />
<path d="M167.9178 92.2590
L168.0607 92.3066
" />
<path d="M168.0607 92.3066
L168.1083 92.3542
" />
<path d="M168.1083 92.3542
L168.1559 92.4495
" />
<path d="M168.1559 92.4495
L168.1559 92.5923
" />
<path d="M168.1559 92.5923
L168.1083 92.6876
" />
<path d="M168.1083 92.6876
L168.0607 92.7352
" />
<path d="M168.0607 92.7352
L167.9654 92.7828
" />
<path d="M167.9654 92.7828
L167.5845 92.7828
" />
<path d="M167.5845 92.7828
L167.5845 91.7828
" />
<path d="M167.5845 91.7828
L167.9178 91.7828
" />
<path d="M167.9178 91.7828
L168.0130 91.8304
" />
<path d="M168.0130 91.8304
L168.0607 91.8781
" />
<path d="M168.0607 91.8781
L168.1083 91.9733
" />
<path d="M168.1083 91.9733
L168.1083 92.0685
" />
<path d="M168.1083 92.0685
L168.0607 92.1638
" />
<path d="M168.0607 92.1638
L168.0130 92.2114
" />
<path d="M168.0130 92.2114
L167.9178 92.2590
" />
<path d="M167.9178 92.2590
L167.5845 92.2590
" />
<path d="M169.1083 92.7828
L168.5369 92.7828
" />
<path d="M168.8226 92.7828
L168.8226 91.7828
" />
<path d="M168.8226 91.7828
L168.7273 91.9257
" />
<path d="M168.7273 91.9257
L168.6321 92.0209
" />
<path d="M168.6321 92.0209
L168.5369 92.0685
" />
</g><text x="131.9784" y="87.9522"
textLength="1.9643" font-size="1.3333" lengthAdjust="spacingAndGlyphs"
text-anchor="middle" opacity="0">J1</text>
<g class="stroked-text"><desc>J1</desc>
<path d="M131.6451 86.9070
L131.6451 87.6213
" />
<path d="M131.6451 87.6213
L131.5974 87.7642
" />
<path d="M131.5974 87.7642
L131.5022 87.8594
" />
<path d="M131.5022 87.8594
L131.3594 87.9070
" />
<path d="M131.3594 87.9070
L131.2641 87.9070
" />
<path d="M132.6451 87.9070
L132.0736 87.9070
" />
<path d="M132.3594 87.9070
L132.3594 86.9070
" />
<path d="M132.3594 86.9070
L132.2641 87.0499
" />
<path d="M132.2641 87.0499
L132.1689 87.1451
" />
<path d="M132.1689 87.1451
L132.0736 87.1927
" />
</g><text x="136.1440" y="82.8976"
textLength="1.9643" font-size="1.3333" lengthAdjust="spacingAndGlyphs"
text-anchor="middle" opacity="0">J3</text>
<g class="stroked-text"><desc>J3</desc>
<path d="M135.8107 81.8524
L135.8107 82.5667
" />
<path d="M135.8107 82.5667
L135.7630 82.7096
" />
<path d="M135.7630 82.7096
L135.6678 82.8048
" />
<path d="M135.6678 82.8048
L135.5250 82.8524
" />
<path d="M135.5250 82.8524
L135.4297 82.8524
" />
<path d="M136.1916 81.8524
L136.8107 81.8524
" />
<path d="M136.8107 81.8524
L136.4773 82.2334
" />
<path d="M136.4773 82.2334
L136.6202 82.2334
" />
<path d="M136.6202 82.2334
L136.7154 82.2810
" />
<path d="M136.7154 82.2810
L136.7630 82.3286
" />
<path d="M136.7630 82.3286
L136.8107 82.4238
" />
<path d="M136.8107 82.4238
L136.8107 82.6619
" />
<path d="M136.8107 82.6619
L136.7630 82.7572
" />
<path d="M136.7630 82.7572
L136.7154 82.8048
" />
<path d="M136.7154 82.8048
L136.6202 82.8524
" />
<path d="M136.6202 82.8524
L136.3345 82.8524
" />
<path d="M136.3345 82.8524
L136.2392 82.8048
" />
<path d="M136.2392 82.8048
L136.1916 82.7572
" />
</g><text x="153.1366" y="93.1084"
textLength="1.9643" font-size="1.3333" lengthAdjust="spacingAndGlyphs"
text-anchor="middle" opacity="0">J4</text>
<g class="stroked-text"><desc>J4</desc>
<path d="M152.8033 92.0632
L152.8033 92.7775
" />
<path d="M152.8033 92.7775
L152.7556 92.9204
" />
<path d="M152.7556 92.9204
L152.6604 93.0156
" />
<path d="M152.6604 93.0156
L152.5176 93.0632
" />
<path d="M152.5176 93.0632
L152.4223 93.0632
" />
<path d="M153.7080 92.3966
L153.7080 93.0632
" />
<path d="M153.4699 92.0156
L153.2318 92.7299
" />
<path d="M153.2318 92.7299
L153.8509 92.7299
" />
</g><text x="145.9484" y="93.1084"
textLength="1.9643" font-size="1.3333" lengthAdjust="spacingAndGlyphs"
text-anchor="middle" opacity="0">J5</text>
<g class="stroked-text"><desc>J5</desc>
<path d="M145.6151 92.0632
L145.6151 92.7775
" />
<path d="M145.6151 92.7775
L145.5674 92.9204
" />
<path d="M145.5674 92.9204
L145.4722 93.0156
" />
<path d="M145.4722 93.0156
L145.3294 93.0632
" />
<path d="M145.3294 93.0632
L145.2341 93.0632
" />
<path d="M146.5674 92.0632
L146.0913 92.0632
" />
<path d="M146.0913 92.0632
L146.0436 92.5394
" />
<path d="M146.0436 92.5394
L146.0913 92.4918
" />
<path d="M146.0913 92.4918
L146.1865 92.4442
" />
<path d="M146.1865 92.4442
L146.4246 92.4442
" />
<path d="M146.4246 92.4442
L146.5198 92.4918
" />
<path d="M146.5198 92.4918
L146.5674 92.5394
" />
<path d="M146.5674 92.5394
L146.6151 92.6346
" />
<path d="M146.6151 92.6346
L146.6151 92.8727
" />
<path d="M146.6151 92.8727
L146.5674 92.9680
" />
<path d="M146.5674 92.9680
L146.5198 93.0156
" />
<path d="M146.5198 93.0156
L146.4246 93.0632
" />
<path d="M146.4246 93.0632
L146.1865 93.0632
" />
<path d="M146.1865 93.0632
L146.0913 93.0156
" />
<path d="M146.0913 93.0156
L146.0436 92.9680
" />
</g><text x="140.6144" y="75.1252"
textLength="1.9643" font-size="1.3333" lengthAdjust="spacingAndGlyphs"
text-anchor="middle" opacity="0">J6</text>
<g class="stroked-text"><desc>J6</desc>
<path d="M140.2811 74.0800
L140.2811 74.7943
" />
<path d="M140.2811 74.7943
L140.2334 74.9372
" />
<path d="M140.2334 74.9372
L140.1382 75.0324
" />
<path d="M140.1382 75.0324
L139.9954 75.0800
" />
<path d="M139.9954 75.0800
L139.9001 75.0800
" />
<path d="M141.1858 74.0800
L140.9954 74.0800
" />
<path d="M140.9954 74.0800
L140.9001 74.1276
" />
<path d="M140.9001 74.1276
L140.8525 74.1753
" />
<path d="M140.8525 74.1753
L140.7573 74.3181
" />
<path d="M140.7573 74.3181
L140.7096 74.5086
" />
<path d="M140.7096 74.5086
L140.7096 74.8895
" />
<path d="M140.7096 74.8895
L140.7573 74.9848
" />
<path d="M140.7573 74.9848
L140.8049 75.0324
" />
<path d="M140.8049 75.0324
L140.9001 75.0800
" />
<path d="M140.9001 75.0800
L141.0906 75.0800
" />
<path d="M141.0906 75.0800
L141.1858 75.0324
" />
<path d="M141.1858 75.0324
L141.2334 74.9848
" />
<path d="M141.2334 74.9848
L141.2811 74.8895
" />
<path d="M141.2811 74.8895
L141.2811 74.6514
" />
<path d="M141.2811 74.6514
L141.2334 74.5562
" />
<path d="M141.2334 74.5562
L141.1858 74.5086
" />
<path d="M141.1858 74.5086
L141.0906 74.4610
" />
<path d="M141.0906 74.4610
L140.9001 74.4610
" />
<path d="M140.9001 74.4610
L140.8049 74.5086
" />
<path d="M140.8049 74.5086
L140.7573 74.5562
" />
<path d="M140.7573 74.5562
L140.7096 74.6514
" />
</g><text x="167.3098" y="98.7218"
textLength="2.9643" font-size="1.3333" lengthAdjust="spacingAndGlyphs"
text-anchor="middle" opacity="0">JP1</text>
<g class="stroked-text"><desc>JP1</desc>
<path d="M166.4765 97.6766
L166.4765 98.3909
" />
<path d="M166.4765 98.3909
L166.4288 98.5338
" />
<path d="M166.4288 98.5338
L166.3336 98.6290
" />
<path d="M166.3336 98.6290
L166.1908 98.6766
" />
<path d="M166.1908 98.6766
L166.0955 98.6766
" />
<path d="M166.9527 98.6766
L166.9527 97.6766
" />
<path d="M166.9527 97.6766
L167.3336 97.6766
" />
<path d="M167.3336 97.6766
L167.4288 97.7242
" />
<path d="M167.4288 97.7242
L167.4765 97.7719
" />
<path d="M167.4765 97.7719
L167.5241 97.8671
" />
<path d="M167.5241 97.8671
L167.5241 98.0100
" />
<path d="M167.5241 98.0100
L167.4765 98.1052
" />
<path d="M167.4765 98.1052
L167.4288 98.1528
" />
<path d="M167.4288 98.1528
L167.3336 98.2004
" />
<path d="M167.3336 98.2004
L166.9527 98.2004
" />
<path d="M168.4765 98.6766
L167.9050 98.6766
" />
<path d="M168.1908 98.6766
L168.1908 97.6766
" />
<path d="M168.1908 97.6766
L168.0955 97.8195
" />
<path d="M168.0955 97.8195
L168.0003 97.9147
" />
<path d="M168.0003 97.9147
L167.9050 97.9623
" />
</g><text x="166.4462" y="88.4094"
textLength="2.2024" font-size="1.3333" lengthAdjust="spacingAndGlyphs"
text-anchor="middle" opacity="0">R1</text>
<g class="stroked-text"><desc>R1</desc>
<path d="M166.2795 88.3642
L165.9462 87.8880
" />
<path d="M165.7081 88.3642
L165.7081 87.3642
" />
<path d="M165.7081 87.3642
L166.0891 87.3642
" />
<path d="M166.0891 87.3642
L166.1843 87.4118
" />
<path d="M166.1843 87.4118
L166.2319 87.4595
" />
<path d="M166.2319 87.4595
L166.2795 87.5547
" />
<path d="M166.2795 87.5547
L166.2795 87.6976
" />
<path d="M166.2795 87.6976
L166.2319 87.7928
" />
<path d="M166.2319 87.7928
L166.1843 87.8404
" />
<path d="M166.1843 87.8404
L166.0891 87.8880
" />
<path d="M166.0891 87.8880
L165.7081 87.8880
" />
<path d="M167.2319 88.3642
L166.6605 88.3642
" />
<path d="M166.9462 88.3642
L166.9462 87.3642
" />
<path d="M166.9462 87.3642
L166.8510 87.5071
" />
<path d="M166.8510 87.5071
L166.7557 87.6023
" />
<path d="M166.7557 87.6023
L166.6605 87.6499
" />
</g><text x="166.3700" y="82.6700"
textLength="2.2024" font-size="1.3333" lengthAdjust="spacingAndGlyphs"
text-anchor="middle" opacity="0">R2</text>
<g class="stroked-text"><desc>R2</desc>
<path d="M166.2033 82.6248
L165.8700 82.1486
" />
<path d="M165.6319 82.6248
L165.6319 81.6248
" />
<path d="M165.6319 81.6248
L166.0129 81.6248
" />
<path d="M166.0129 81.6248
L166.1081 81.6724
" />
<path d="M166.1081 81.6724
L166.1557 81.7201
" />
<path d="M166.1557 81.7201
L166.2033 81.8153
" />
<path d="M166.2033 81.8153
L166.2033 81.9582
" />
<path d="M166.2033 81.9582
L166.1557 82.0534
" />
<path d="M166.1557 82.0534
L166.1081 82.1010
" />
<path d="M166.1081 82.1010
L166.0129 82.1486
" />
<path d="M166.0129 82.1486
L165.6319 82.1486
" />
<path d="M166.5843 81.7201
L166.6319 81.6724
" />
<path d="M166.6319 81.6724
L166.7271 81.6248
" />
<path d="M166.7271 81.6248
L166.9652 81.6248
" />
<path d="M166.9652 81.6248
L167.0605 81.6724
" />
<path d="M167.0605 81.6724
L167.1081 81.7201
" />
<path d="M167.1081 81.7201
L167.1557 81.8153
" />
<path d="M167.1557 81.8153
L167.1557 81.9105
" />
<path d="M167.1557 81.9105
L167.1081 82.0534
" />
<path d="M167.1081 82.0534
L166.5367 82.6248
" />
<path d="M166.5367 82.6248
L167.1557 82.6248
" />
</g><text x="158.9580" y="78.0280"
textLength="2.2024" font-size="1.3333" lengthAdjust="spacingAndGlyphs"
text-anchor="middle" opacity="0">R3</text>
<g class="stroked-text"><desc>R3</desc>
<path d="M158.7913 77.9828
L158.4580 77.5066
" />
<path d="M158.2199 77.9828
L158.2199 76.9828
" />
<path d="M158.2199 76.9828
L158.6009 76.9828
" />
<path d="M158.6009 76.9828
L158.6961 77.0304
" />
<path d="M158.6961 77.0304
L158.7437 77.0781
" />
<path d="M158.7437 77.0781
L158.7913 77.1733
" />
<path d="M158.7913 77.1733
L158.7913 77.3162
" />
<path d="M158.7913 77.3162
L158.7437 77.4114
" />
<path d="M158.7437 77.4114
L158.6961 77.4590
" />
<path d="M158.6961 77.4590
L158.6009 77.5066
" />
<path d="M158.6009 77.5066
L158.2199 77.5066
" />
<path d="M159.1247 76.9828
L159.7437 76.9828
" />
<path d="M159.7437 76.9828
L159.4104 77.3638
" />
<path d="M159.4104 77.3638
L159.5532 77.3638
" />
<path d="M159.5532 77.3638
L159.6485 77.4114
" />
<path d="M159.6485 77.4114
L159.6961 77.4590
" />
<path d="M159.6961 77.4590
L159.7437 77.5542
" />
<path d="M159.7437 77.5542
L159.7437 77.7923
" />
<path d="M159.7437 77.7923
L159.6961 77.8876
" />
<path d="M159.6961 77.8876
L159.6485 77.9352
" />
<path d="M159.6485 77.9352
L159.5532 77.9828
" />
<path d="M159.5532 77.9828
L159.2675 77.9828
" />
<path d="M159.2675 77.9828
L159.1723 77.9352
" />
<path d="M159.1723 77.9352
L159.1247 77.8876
" />
</g><text x="159.1056" y="93.8196"
textLength="2.2024" font-size="1.3333" lengthAdjust="spacingAndGlyphs"
text-anchor="middle" opacity="0">R4</text>
<g class="stroked-text"><desc>R4</desc>
<path d="M158.9389 93.7744
L158.6056 93.2982
" />
<path d="M158.3675 93.7744
L158.3675 92.7744
" />
<path d="M158.3675 92.7744
L158.7485 92.7744
" />
<path d="M158.7485 92.7744
L158.8437 92.8220
" />
<path d="M158.8437 92.8220
L158.8913 92.8697
" />
<path d="M158.8913 92.8697
L158.9389 92.9649
" />
<path d="M158.9389 92.9649
L158.9389 93.1078
" />
<path d="M158.9389 93.1078
L158.8913 93.2030
" />
<path d="M158.8913 93.2030
L158.8437 93.2506
" />
<path d="M158.8437 93.2506
L158.7485 93.2982
" />
<path d="M158.7485 93.2982
L158.3675 93.2982
" />
<path d="M159.7961 93.1078
L159.7961 93.7744
" />
<path d="M159.5580 92.7268
L159.3199 93.4411
" />
<path d="M159.3199 93.4411
L159.9389 93.4411
" />
</g><text x="144.7800" y="85.8694"
textLength="2.2024" font-size="1.3333" lengthAdjust="spacingAndGlyphs"
text-anchor="middle" opacity="0">R5</text>
<g class="stroked-text"><desc>R5</desc>
<path d="M144.6133 85.8242
L144.2800 85.3480
" />
<path d="M144.0419 85.8242
L144.0419 84.8242
" />
<path d="M144.0419 84.8242
L144.4229 84.8242
" />
<path d="M144.4229 84.8242
L144.5181 84.8718
" />
<path d="M144.5181 84.8718
L144.5657 84.9195
" />
<path d="M144.5657 84.9195
L144.6133 85.0147
" />
<path d="M144.6133 85.0147
L144.6133 85.1576
" />
<path d="M144.6133 85.1576
L144.5657 85.2528
" />
<path d="M144.5657 85.2528
L144.5181 85.3004
" />
<path d="M144.5181 85.3004
L144.4229 85.3480
" />
<path d="M144.4229 85.3480
L144.0419 85.3480
" />
<path d="M145.5181 84.8242
L145.0419 84.8242
" />
<path d="M145.0419 84.8242
L144.9943 85.3004
" />
<path d="M144.9943 85.3004
L145.0419 85.2528
" />
<path d="M145.0419 85.2528
L145.1371 85.2052
" />
<path d="M145.1371 85.2052
L145.3752 85.2052
" />
<path d="M145.3752 85.2052
L145.4705 85.2528
" />
<path d="M145.4705 85.2528
L145.5181 85.3004
" />
<path d="M145.5181 85.3004
L145.5657 85.3956
" />
<path d="M145.5657 85.3956
L145.5657 85.6337
" />
<path d="M145.5657 85.6337
L145.5181 85.7290
" />
<path d="M145.5181 85.7290
L145.4705 85.7766
" />
<path d="M145.4705 85.7766
L145.3752 85.8242
" />
<path d="M145.3752 85.8242
L145.1371 85.8242
" />
<path d="M145.1371 85.8242
L145.0419 85.7766
" />
<path d="M145.0419 85.7766
L144.9943 85.7290
" />
</g><text x="147.3200" y="68.2164"
textLength="2.2024" font-size="1.3333" lengthAdjust="spacingAndGlyphs"
text-anchor="middle" opacity="0">R6</text>
<g class="stroked-text"><desc>R6</desc>
<path d="M147.1533 68.1712
L146.8200 67.6950
" />
<path d="M146.5819 68.1712
L146.5819 67.1712
" />
<path d="M146.5819 67.1712
L146.9629 67.1712
" />
<path d="M146.9629 67.1712
L147.0581 67.2188
" />
<path d="M147.0581 67.2188
L147.1057 67.2665
" />
<path d="M147.1057 67.2665
L147.1533 67.3617
" />
<path d="M147.1533 67.3617
L147.1533 67.5046
" />
<path d="M147.1533 67.5046
L147.1057 67.5998
" />
<path d="M147.1057 67.5998
L147.0581 67.6474
" />
<path d="M147.0581 67.6474
L146.9629 67.6950
" />
<path d="M146.9629 67.6950
L146.5819 67.6950
" />
<path d="M148.0105 67.1712
L147.8200 67.1712
" />
<path d="M147.8200 67.1712
L147.7248 67.2188
" />
<path d="M147.7248 67.2188
L147.6771 67.2665
" />
<path d="M147.6771 67.2665
L147.5819 67.4093
" />
<path d="M147.5819 67.4093
L147.5343 67.5998
" />
<path d="M147.5343 67.5998
L147.5343 67.9807
" />
<path d="M147.5343 67.9807
L147.5819 68.0760
" />
<path d="M147.5819 68.0760
L147.6295 68.1236
" />
<path d="M147.6295 68.1236
L147.7248 68.1712
" />
<path d="M147.7248 68.1712
L147.9152 68.1712
" />
<path d="M147.9152 68.1712
L148.0105 68.1236
" />
<path d="M148.0105 68.1236
L148.0581 68.0760
" />
<path d="M148.0581 68.0760
L148.1057 67.9807
" />
<path d="M148.1057 67.9807
L148.1057 67.7426
" />
<path d="M148.1057 67.7426
L148.0581 67.6474
" />
<path d="M148.0581 67.6474
L148.0105 67.5998
" />
<path d="M148.0105 67.5998
L147.9152 67.5522
" />
<path d="M147.9152 67.5522
L147.7248 67.5522
" />
<path d="M147.7248 67.5522
L147.6295 67.5998
" />
<path d="M147.6295 67.5998
L147.5819 67.6474
" />
<path d="M147.5819 67.6474
L147.5343 67.7426
" />
</g><text x="144.8562" y="68.2672"
textLength="2.2024" font-size="1.3333" lengthAdjust="spacingAndGlyphs"
text-anchor="middle" opacity="0">R7</text>
<g class="stroked-text"><desc>R7</desc>
<path d="M144.6895 68.2220
L144.3562 67.7458
" />
<path d="M144.1181 68.2220
L144.1181 67.2220
" />
<path d="M144.1181 67.2220
L144.4991 67.2220
" />
<path d="M144.4991 67.2220
L144.5943 67.2696
" />
<path d="M144.5943 67.2696
L144.6419 67.3173
" />
<path d="M144.6419 67.3173
L144.6895 67.4125
" />
<path d="M144.6895 67.4125
L144.6895 67.5554
" />
<path d="M144.6895 67.5554
L144.6419 67.6506
" />
<path d="M144.6419 67.6506
L144.5943 67.6982
" />
<path d="M144.5943 67.6982
L144.4991 67.7458
" />
<path d="M144.4991 67.7458
L144.1181 67.7458
" />
<path d="M145.0229 67.2220
L145.6895 67.2220
" />
<path d="M145.6895 67.2220
L145.2610 68.2220
" />
</g><text x="170.3324" y="85.6408"
textLength="3.0595" font-size="1.3333" lengthAdjust="spacingAndGlyphs"
text-anchor="middle" opacity="0">VR1</text>
<g class="stroked-text"><desc>VR1</desc>
<path d="M169.0229 84.5956
L169.3562 85.5956
" />
<path d="M169.3562 85.5956
L169.6895 84.5956
" />
<path d="M170.5943 85.5956
L170.2610 85.1194
" />
<path d="M170.0229 85.5956
L170.0229 84.5956
" />
<path d="M170.0229 84.5956
L170.4038 84.5956
" />
<path d="M170.4038 84.5956
L170.4991 84.6432
" />
<path d="M170.4991 84.6432
L170.5467 84.6909
" />
<path d="M170.5467 84.6909
L170.5943 84.7861
" />
<path d="M170.5943 84.7861
L170.5943 84.9290
" />
<path d="M170.5943 84.9290
L170.5467 85.0242
" />
<path d="M170.5467 85.0242
L170.4991 85.0718
" />
<path d="M170.4991 85.0718
L170.4038 85.1194
" />
<path d="M170.4038 85.1194
L170.0229 85.1194
" />
<path d="M171.5467 85.5956
L170.9753 85.5956
" />
<path d="M171.2610 85.5956
L171.2610 84.5956
" />
<path d="M171.2610 84.5956
L171.1657 84.7385
" />
<path d="M171.1657 84.7385
L171.0705 84.8337
" />
<path d="M171.0705 84.8337
L170.9753 84.8813
" />
</g><text x="158.9278" y="73.3278"
textLength="2.0595" font-size="1.3333" lengthAdjust="spacingAndGlyphs"
text-anchor="middle" opacity="0">Y1</text>
<g class="stroked-text"><desc>Y1</desc>
<path d="M158.4516 72.8064
L158.4516 73.2826
" />
<path d="M158.1183 72.2826
L158.4516 72.8064
" />
<path d="M158.4516 72.8064
L158.7849 72.2826
" />
<path d="M159.6421 73.2826
L159.0707 73.2826
" />
<path d="M159.3564 73.2826
L159.3564 72.2826
" />
<path d="M159.3564 72.2826
L159.2611 72.4255
" />
<path d="M159.2611 72.4255
L159.1659 72.5207
" />
<path d="M159.1659 72.5207
L159.0707 72.5683
" />
</g><text x="173.4312" y="75.6332"
textLength="1.9643" font-size="1.3333" lengthAdjust="spacingAndGlyphs"
text-anchor="middle" opacity="0">J2</text>
<g class="stroked-text"><desc>J2</desc>
<path d="M173.0979 74.5880
L173.0979 75.3023
" />
<path d="M173.0979 75.3023
L173.0502 75.4452
" />
<path d="M173.0502 75.4452
L172.9550 75.5404
" />
<path d="M172.9550 75.5404
L172.8122 75.5880
" />
<path d="M172.8122 75.5880
L172.7169 75.5880
" />
<path d="M173.5264 74.6833
L173.5741 74.6356
" />
<path d="M173.5741 74.6356
L173.6693 74.5880
" />
<path d="M173.6693 74.5880
L173.9074 74.5880
" />
<path d="M173.9074 74.5880
L174.0026 74.6356
" />
<path d="M174.0026 74.6356
L174.0502 74.6833
" />
<path d="M174.0502 74.6833
L174.0979 74.7785
" />
<path d="M174.0979 74.7785
L174.0979 74.8737
" />
<path d="M174.0979 74.8737
L174.0502 75.0166
" />
<path d="M174.0502 75.0166
L173.4788 75.5880
" />
<path d="M173.4788 75.5880
L174.0979 75.5880
" />
</g><text x="149.9616" y="80.1290"
textLength="2.2500" font-size="1.3333" lengthAdjust="spacingAndGlyphs"
text-anchor="middle" opacity="0">U1</text>
<g class="stroked-text"><desc>U1</desc>
<path d="M149.1997 79.0838
L149.1997 79.8933
" />
<path d="M149.1997 79.8933
L149.2473 79.9886
" />
<path d="M149.2473 79.9886
L149.2949 80.0362
" />
<path d="M149.2949 80.0362
L149.3902 80.0838
" />
<path d="M149.3902 80.0838
L149.5806 80.0838
" />
<path d="M149.5806 80.0838
L149.6759 80.0362
" />
<path d="M149.6759 80.0362
L149.7235 79.9886
" />
<path d="M149.7235 79.9886
L149.7711 79.8933
" />
<path d="M149.7711 79.8933
L149.7711 79.0838
" />
<path d="M150.7711 80.0838
L150.1997 80.0838
" />
<path d="M150.4854 80.0838
L150.4854 79.0838
" />
<path d="M150.4854 79.0838
L150.3902 79.2267
" />
<path d="M150.3902 79.2267
L150.2949 79.3219
" />
<path d="M150.2949 79.3219
L150.1997 79.3695
" />
</g><text x="170.2816" y="80.6116"
textLength="3.0595" font-size="1.3333" lengthAdjust="spacingAndGlyphs"
text-anchor="middle" opacity="0">VR2</text>
<g class="stroked-text"><desc>VR2</desc>
<path d="M168.9721 79.5664
L169.3054 80.5664
" />
<path d="M169.3054 80.5664
L169.6387 79.5664
" />
<path d="M170.5435 80.5664
L170.2102 80.0902
" />
<path d="M169.9721 80.5664
L169.9721 79.5664
" />
<path d="M169.9721 79.5664
L170.3530 79.5664
" />
<path d="M170.3530 79.5664
L170.4483 79.6140
" />
<path d="M170.4483 79.6140
L170.4959 79.6617
" />
<path d="M170.4959 79.6617
L170.5435 79.7569
" />
<path d="M170.5435 79.7569
L170.5435 79.8998
" />
<path d="M170.5435 79.8998
L170.4959 79.9950
" />
<path d="M170.4959 79.9950
L170.4483 80.0426
" />
<path d="M170.4483 80.0426
L170.3530 80.0902
" />
<path d="M170.3530 80.0902
L169.9721 80.0902
" />
<path d="M170.9245 79.6617
L170.9721 79.6140
" />
<path d="M170.9721 79.6140
L171.0673 79.5664
" />
<path d="M171.0673 79.5664
L171.3054 79.5664
" />
<path d="M171.3054 79.5664
L171.4006 79.6140
" />
<path d="M171.4006 79.6140
L171.4483 79.6617
" />
<path d="M171.4483 79.6617
L171.4959 79.7569
" />
<path d="M171.4959 79.7569
L171.4959 79.8521
" />
<path d="M171.4959 79.8521
L171.4483 79.9950
" />
<path d="M171.4483 79.9950
L170.8768 80.5664
" />
<path d="M170.8768 80.5664
L171.4959 80.5664
" />
</g><text x="162.3568" y="80.0528"
textLength="2.2024" font-size="1.3333" lengthAdjust="spacingAndGlyphs"
text-anchor="middle" opacity="0">C6</text>
<g class="stroked-text"><desc>C6</desc>
<path d="M162.1901 79.9124
L162.1425 79.9600
" />
<path d="M162.1425 79.9600
L161.9997 80.0076
" />
<path d="M161.9997 80.0076
L161.9044 80.0076
" />
<path d="M161.9044 80.0076
L161.7616 79.9600
" />
<path d="M161.7616 79.9600
L161.6663 79.8648
" />
<path d="M161.6663 79.8648
L161.6187 79.7695
" />
<path d="M161.6187 79.7695
L161.5711 79.5790
" />
<path d="M161.5711 79.5790
L161.5711 79.4362
" />
<path d="M161.5711 79.4362
L161.6187 79.2457
" />
<path d="M161.6187 79.2457
L161.6663 79.1505
" />
<path d="M161.6663 79.1505
L161.7616 79.0552
" />
<path d="M161.7616 79.0552
L161.9044 79.0076
" />
<path d="M161.9044 79.0076
L161.9997 79.0076
" />
<path d="M161.9997 79.0076
L162.1425 79.0552
" />
<path d="M162.1425 79.0552
L162.1901 79.1029
" />
<path d="M163.0473 79.0076
L162.8568 79.0076
" />
<path d="M162.8568 79.0076
L162.7616 79.0552
" />
<path d="M162.7616 79.0552
L162.7139 79.1029
" />
<path d="M162.7139 79.1029
L162.6187 79.2457
" />
<path d="M162.6187 79.2457
L162.5711 79.4362
" />
<path d="M162.5711 79.4362
L162.5711 79.8171
" />
<path d="M162.5711 79.8171
L162.6187 79.9124
" />
<path d="M162.6187 79.9124
L162.6663 79.9600
" />
<path d="M162.6663 79.9600
L162.7616 80.0076
" />
<path d="M162.7616 80.0076
L162.9520 80.0076
" />
<path d="M162.9520 80.0076
L163.0473 79.9600
" />
<path d="M163.0473 79.9600
L163.0949 79.9124
" />
<path d="M163.0949 79.9124
L163.1425 79.8171
" />
<path d="M163.1425 79.8171
L163.1425 79.5790
" />
<path d="M163.1425 79.5790
L163.0949 79.4838
" />
<path d="M163.0949 79.4838
L163.0473 79.4362
" />
<path d="M163.0473 79.4362
L162.9520 79.3886
" />
<path d="M162.9520 79.3886
L162.7616 79.3886
" />
<path d="M162.7616 79.3886
L162.6663 79.4362
" />
<path d="M162.6663 79.4362
L162.6187 79.4838
" />
<path d="M162.6187 79.4838
L162.5711 79.5790
" />
</g></g>
<g style="fill:#000000; fill-opacity:0.0; 
stroke:#000000; stroke-width:0.1200; stroke-opacity:1; 
stroke-linecap:round; stroke-linejoin:round;">
<path d="M133.3454 89.3944
L133.3454 90.3944
" />
<path d="M133.8454 89.8944
L132.8454 89.8944
" />
<path d="M134.0310 90.6344
L132.3454 90.6344
" />
<path d="M134.0310 90.6344
L135.0954 91.6988
" />
<path d="M127.6398 90.6344
L129.3254 90.6344
" />
<path d="M127.6398 90.6344
L126.5754 91.6988
" />
<path d="M135.0954 91.6988
L135.0954 99.1544
" />
<path d="M126.5754 91.6988
L126.5754 99.1544
" />
<path d="M135.0954 99.1544
L132.3454 99.1544
" />
<path d="M126.5754 99.1544
L129.3254 99.1544
" />
<path d="M122.7414 90.1900
L123.2586 90.1900
" />
<path d="M122.7414 91.6100
L123.2586 91.6100
" />
<path d="M162.9700 74.8574
L162.9700 75.3746
" />
<path d="M161.5500 74.8574
L161.5500 75.3746
" />
<path d="M156.6200 74.8574
L156.6200 75.3746
" />
<path d="M155.2000 74.8574
L155.2000 75.3746
" />
<path d="M164.0320 88.8954
L164.0320 89.4126
" />
<path d="M162.6120 88.8954
L162.6120 89.4126
" />
<path d="M153.7162 78.1570
L154.2334 78.1570
" />
<path d="M153.7162 79.5770
L154.2334 79.5770
" />
<path d="M144.0446 79.2272
L144.0446 78.7100
" />
<path d="M145.4646 79.2272
L145.4646 78.7100
" />
<path d="M161.6790 99.0590
L163.9490 99.0590
" />
<path d="M163.9490 99.0590
L163.9490 95.1740
" />
<path d="M161.6790 95.1740
L161.6790 99.0590
" />
<path d="M146.3600 76.6350
L148.2800 76.6350
" />
<path d="M148.2800 76.6350
L148.2800 73.9500
" />
<path d="M146.3600 73.9500
L146.3600 76.6350
" />
<path d="M143.8200 76.6350
L145.7400 76.6350
" />
<path d="M145.7400 76.6350
L145.7400 73.9500
" />
<path d="M143.8200 73.9500
L143.8200 76.6350
" />
<path d="M166.5077 75.5060
L169.2803 75.5060
" />
<path d="M166.5077 78.9260
L169.2803 78.9260
" />
<path d="M168.1526 91.3880
L167.6354 91.3880
" />
<path d="M168.1526 89.9680
L167.6354 89.9680
" />
<path d="M117.9900 76.6400
L121.6000 76.6400
" />
<path d="M117.9900 85.7600
L117.9900 76.6400
" />
<path d="M117.9900 85.7600
L121.6000 85.7600
" />
<path d="M121.3000 78.2000
L126.1000 78.2000
" />
<path d="M121.3000 84.2000
L126.1000 84.2000
" />
<path d="M121.3000 85.7600
L121.3000 76.6400
" />
<path d="M121.8400 73.9400
L121.8400 75.8400
" />
<path d="M123.1800 73.9400
L121.8400 73.9400
" />
<path d="M124.6000 76.6400
L127.6000 76.6400
" />
<path d="M124.6000 85.7600
L127.6000 85.7600
" />
<path d="M130.6000 76.6400
L132.9100 76.6400
" />
<path d="M130.6000 85.7600
L132.9100 85.7600
" />
<path d="M132.9100 85.7600
L132.9100 76.6400
" />
<path d="M126.1000 84.2000 A3.0000 3.0000 0.0 0 0 126.1000 78.2000" />
<path d="M137.6300 80.8300
L136.3000 80.8300
" />
<path d="M137.6300 79.5000
L137.6300 80.8300
" />
<path d="M137.6300 78.2300
L137.6300 68.0100
" />
<path d="M137.6300 78.2300
L134.9700 78.2300
" />
<path d="M137.6300 68.0100
L134.9700 68.0100
" />
<path d="M134.9700 78.2300
L134.9700 68.0100
" />
<path d="M150.5620 93.9200
L151.8920 93.9200
" />
<path d="M150.5620 95.2500
L150.5620 93.9200
" />
<path d="M150.5620 96.5200
L150.5620 99.1200
" />
<path d="M150.5620 96.5200
L153.1620 96.5200
" />
<path d="M150.5620 99.1200
L155.7620 99.1200
" />
<path d="M153.1620 93.9200
L155.7620 93.9200
" />
<path d="M153.1620 96.5200
L153.1620 93.9200
" />
<path d="M155.7620 93.9200
L155.7620 99.1200
" />
<path d="M139.7924 99.0946
L139.7924 97.7646
" />
<path d="M141.1224 99.0946
L139.7924 99.0946
" />
<path d="M142.3924 99.0946
L147.5324 99.0946
" />
<path d="M142.3924 99.0946
L142.3924 96.4946
" />
<path d="M147.5324 99.0946
L147.5324 93.8946
" />
<path d="M139.7924 96.4946
L139.7924 93.8946
" />
<path d="M142.3924 96.4946
L139.7924 96.4946
" />
<path d="M139.7924 93.8946
L147.5324 93.8946
" />
<path d="M139.6400 75.8860
L140.9700 75.8860
" />
<path d="M139.6400 77.2160
L139.6400 75.8860
" />
<path d="M139.6400 78.4860
L139.6400 91.2460
" />
<path d="M139.6400 78.4860
L142.3000 78.4860
" />
<path d="M139.6400 91.2460
L142.3000 91.2460
" />
<path d="M142.3000 78.4860
L142.3000 91.2460
" />
<path d="M166.9590 94.3834
L167.5590 94.3834
" />
<path d="M168.2590 95.0834
L168.2590 96.4834
" />
<path d="M166.2590 96.4834
L166.2590 95.0834
" />
<path d="M167.5590 97.1834
L166.9590 97.1834
" />
<path d="M168.2590 95.0834 A0.7000 0.7000 0.0 0 0 167.5590 94.3834" />
<path d="M166.9590 94.3834 A0.7000 0.7000 0.0 0 0 166.2590 95.0834" />
<path d="M167.5590 97.1834 A0.7000 0.7000 0.0 0 0 168.2590 96.4834" />
<path d="M166.2590 96.4834 A0.7000 0.7000 0.0 0 0 166.9590 97.1834" />
<path d="M166.1114 85.3960
L166.6286 85.3960
" />
<path d="M166.1114 86.8160
L166.6286 86.8160
" />
<path d="M166.1114 83.1100
L166.6286 83.1100
" />
<path d="M166.1114 84.5300
L166.6286 84.5300
" />
<path d="M159.2166 76.5880
L158.6994 76.5880
" />
<path d="M159.2166 75.1680
L158.6994 75.1680
" />
<path d="M158.2940 96.0166
L158.2940 95.4994
" />
<path d="M159.7140 96.0166
L159.7140 95.4994
" />
<path d="M145.4646 82.5454
L145.4646 83.0626
" />
<path d="M144.0446 82.5454
L144.0446 83.0626
" />
<path d="M148.0300 69.9162
L148.0300 70.4334
" />
<path d="M146.6100 69.9162
L146.6100 70.4334
" />
<path d="M145.4900 69.9162
L145.4900 70.4334
" />
<path d="M144.0700 69.9162
L144.0700 70.4334
" />
<path d="M170.9440 87.1877
L170.9440 87.5133
" />
<path d="M169.9240 87.1877
L169.9240 87.5133
" />
<path d="M162.1278 71.8278
L162.1278 68.2278
" />
<path d="M162.1278 68.2278
L156.2278 68.2278
" />
<path d="M156.2278 71.8278
L162.1278 71.8278
" />
<path d="M171.4320 81.0340
L171.4320 82.0340
" />
<path d="M171.4320 82.0340
L171.9320 81.5340
" />
<path d="M171.9320 81.5340
L171.4320 81.0340
" />
<path d="M172.1320 76.6740
L175.8820 76.6740
" />
<path d="M172.1320 88.8940
L172.1320 76.6740
" />
<path d="M172.1320 88.8940
L175.8820 88.8940
" />
<path d="M188.7520 76.6740
L180.7820 76.6740
" />
<path d="M188.7520 88.8940
L180.7820 88.8940
" />
<path d="M188.7520 88.8940
L188.7520 76.6740
" />
</g>
<g style="fill:#000000; fill-opacity:0.0; 
stroke:#000000; stroke-width:0.1500; stroke-opacity:1; 
stroke-linecap:round; stroke-linejoin:round;">
<path d="M158.0570 82.2270
L157.8320 82.2270
" />
<path d="M158.0570 82.2270
L158.0570 82.5520
" />
<path d="M157.8320 82.2270
L157.8320 80.8020
" />
<path d="M150.8070 82.2270
L151.1320 82.2270
" />
<path d="M150.8070 82.2270
L150.8070 82.5520
" />
<path d="M158.0570 89.4770
L158.0570 89.1520
" />
<path d="M158.0570 89.4770
L157.7320 89.4770
" />
<path d="M150.8070 89.4770
L150.8070 89.1520
" />
<path d="M150.8070 89.4770
L151.1320 89.4770
" />
</g>
<g style="fill:#000000; fill-opacity:0.0; 
stroke:#000000; stroke-width:0.1200; stroke-opacity:1; 
stroke-linecap:round; stroke-linejoin:round;">
<path d="M169.9240 82.4842
L169.9240 82.1586
" />
<path d="M170.9440 82.4842
L170.9440 82.1586
" />
<path d="M161.6722 82.3260
L161.6722 81.8088
" />
<path d="M163.0922 82.3260
L163.0922 81.8088
" />
<g >
</g>
<g >
</g>
<g >
</g>
<g >
</g>
<g >
</g>
<g >
</g>
<g >
</g>
<g >
</g>
<g >
</g>
<g >
</g>
<g >
</g>
<g >
</g>
<g >
</g>
<g >
</g>
<g >
</g>
<g >
</g>
<g >
</g>
<g >
</g>
<g >
</g>
<g >
</g>
<g >
</g>
<g >
</g>
<g >
</g>
<g >
</g>
<g >
</g>
<g >
</g>
<g >
</g>
<g >
</g>
<g >
</g>
<g >
</g>
<g >
</g>
<g >
</g>
<g >
</g>
<g >
</g>
<g >
</g>
<g >
</g>
<g >
</g>
<g >
</g>
<g >
</g>
<g >
</g>
<g >
</g>
<g >
</g>
<g >
</g>
<g >
</g>
<g >
</g>
<g >
</g>
<g >
</g>
<g >
</g>
<g >
</g>
<g >
</g>
</g> 
</svg>
