<?xml version="1.0" standalone="no"?>
 <!DOCTYPE svg PUBLIC "-//W3C//DTD SVG 1.1//EN" 
 "http://www.w3.org/Graphics/SVG/1.1/DTD/svg11.dtd"> 
<svg
  xmlns:svg="http://www.w3.org/2000/svg"
  xmlns="http://www.w3.org/2000/svg"
  xmlns:xlink="http://www.w3.org/1999/xlink"
  version="1.1"
  width="6.505cm" height="3.765cm" viewBox="117.975 64.675 65.05 37.65">
<title>SVG Image created as t1-B_Mask.svg date 2024/03/29 17:06:07 </title>
  <desc>Image generated by PCBNEW </desc>
<g style="fill:#000000; fill-opacity:1.000000;stroke:#000000; stroke-opacity:1.000000;
stroke-linecap:round; stroke-linejoin:round;"
 transform="translate(0 0) scale(1 1)">
</g>
<g style="fill:#000000; fill-opacity:1.000000; stroke:none;">
<circle cx="177.000000" cy="97.000000" r="1.400000" /> 
</g>
<g style="fill:#000000; fill-opacity:1.000000; stroke:none;">
<circle cx="123.000000" cy="97.000000" r="1.400000" /> 
</g>
<g style="fill:#000000; fill-opacity:1.000000; stroke:none;">
<circle cx="123.000000" cy="69.500000" r="1.400000" /> 
</g>
<g style="fill:#000000; fill-opacity:1.000000; stroke:none;">
<circle cx="177.000000" cy="69.500000" r="1.400000" /> 
</g>
<g style="fill:none; 
stroke:#000000; stroke-width:1.600000; stroke-opacity:1; 
stroke-linecap:round; stroke-linejoin:round;">
<path d="M123.200000 81.450000
L123.200000 80.950000
" />
</g>
<g style="fill:#000000; fill-opacity:1.000000; stroke:none;">
<circle cx="127.600000" cy="81.200000" r="1.050000" /> 
<path style="fill:#000000; fill-opacity:1.000000; stroke:none;fill-rule:evenodd;"
d="M 137.200000,80.350000
137.196194,80.369134
137.185355,80.385355
137.169134,80.396194
137.150000,80.400000
135.450000,80.400000
135.430866,80.396194
135.414645,80.385355
135.403806,80.369134
135.400000,80.350000
135.400000,78.650000
135.403806,78.630866
135.414645,78.614645
135.430866,78.603806
135.450000,78.600000
137.150000,78.600000
137.169134,78.603806
137.185355,78.614645
137.196194,78.630866
137.200000,78.650000
Z" /> 
</g>
<g style="fill:#000000; fill-opacity:1.000000; stroke:none;">
<circle cx="136.300000" cy="76.960000" r="0.900000" /> 
<circle cx="136.300000" cy="74.420000" r="0.900000" /> 
<circle cx="136.300000" cy="71.880000" r="0.900000" /> 
<circle cx="136.300000" cy="69.340000" r="0.900000" /> 
<path style="fill:#000000; fill-opacity:1.000000; stroke:none;fill-rule:evenodd;"
d="M 150.992000,94.400000
150.995806,94.380866
151.006645,94.364645
151.022866,94.353806
151.042000,94.350000
152.742000,94.350000
152.761134,94.353806
152.777355,94.364645
152.788194,94.380866
152.792000,94.400000
152.792000,96.100000
152.788194,96.119134
152.777355,96.135355
152.761134,96.146194
152.742000,96.150000
151.042000,96.150000
151.022866,96.146194
151.006645,96.135355
150.995806,96.119134
150.992000,96.100000
Z" /> 
<circle cx="154.432000" cy="95.250000" r="0.900000" /> 
<circle cx="151.892000" cy="97.790000" r="0.900000" /> 
<circle cx="154.432000" cy="97.790000" r="0.900000" /> 
<path style="fill:#000000; fill-opacity:1.000000; stroke:none;fill-rule:evenodd;"
d="M 140.272400,98.664600
140.253266,98.660794
140.237045,98.649955
140.226206,98.633734
140.222400,98.614600
140.222400,96.914600
140.226206,96.895466
140.237045,96.879245
140.253266,96.868406
140.272400,96.864600
141.972400,96.864600
141.991534,96.868406
142.007755,96.879245
142.018594,96.895466
142.022400,96.914600
142.022400,98.614600
142.018594,98.633734
142.007755,98.649955
141.991534,98.660794
141.972400,98.664600
Z" /> 
<circle cx="141.122400" cy="95.224600" r="0.900000" /> 
<circle cx="143.662400" cy="97.764600" r="0.900000" /> 
<circle cx="143.662400" cy="95.224600" r="0.900000" /> 
<circle cx="146.202400" cy="97.764600" r="0.900000" /> 
<circle cx="146.202400" cy="95.224600" r="0.900000" /> 
<path style="fill:#000000; fill-opacity:1.000000; stroke:none;fill-rule:evenodd;"
d="M 140.070000,76.366000
140.073806,76.346866
140.084645,76.330645
140.100866,76.319806
140.120000,76.316000
141.820000,76.316000
141.839134,76.319806
141.855355,76.330645
141.866194,76.346866
141.870000,76.366000
141.870000,78.066000
141.866194,78.085134
141.855355,78.101355
141.839134,78.112194
141.820000,78.116000
140.120000,78.116000
140.100866,78.112194
140.084645,78.101355
140.073806,78.085134
140.070000,78.066000
Z" /> 
<circle cx="140.970000" cy="79.756000" r="0.900000" /> 
<circle cx="140.970000" cy="82.296000" r="0.900000" /> 
<circle cx="140.970000" cy="84.836000" r="0.900000" /> 
<circle cx="140.970000" cy="87.376000" r="0.900000" /> 
<circle cx="140.970000" cy="89.916000" r="0.900000" /> 
<path style="fill:#000000; fill-opacity:1.000000; stroke:none;fill-rule:evenodd;"
d="M 172.682000,82.384000
172.662866,82.380194
172.646645,82.369355
172.635806,82.353134
172.632000,82.334000
172.632000,80.734000
172.635806,80.714866
172.646645,80.698645
172.662866,80.687806
172.682000,80.684000
174.282000,80.684000
174.301134,80.687806
174.317355,80.698645
174.328194,80.714866
174.332000,80.734000
174.332000,82.334000
174.328194,82.353134
174.317355,82.369355
174.301134,82.380194
174.282000,82.384000
Z" /> 
<circle cx="173.482000" cy="84.034000" r="0.850000" /> 
</g>
<g style="fill:#000000; fill-opacity:1.000000; stroke:none;">
<circle cx="175.482000" cy="84.034000" r="0.850000" /> 
</g>
<g style="fill:#000000; fill-opacity:1.000000; stroke:none;">
<circle cx="175.482000" cy="81.534000" r="0.850000" /> 
</g>
<g style="fill:#000000; fill-opacity:1.000000; stroke:none;">
<circle cx="178.342000" cy="76.784000" r="2.050000" /> 
</g>
<g style="fill:#000000; fill-opacity:1.000000; stroke:none;">
<circle cx="178.342000" cy="88.784000" r="2.050000" /> 
</g>
<g style="fill:#000000; fill-opacity:1.000000; stroke:none;">
<circle cx="167.792400" cy="80.162400" r="0.550000" /> 
</g>
<g style="fill:#000000; fill-opacity:1.000000; stroke:none;">
<circle cx="173.482000" cy="78.486000" r="0.550000" /> 
</g>
<g style="fill:#000000; fill-opacity:1.000000; stroke:none;">
<circle cx="179.070000" cy="80.772000" r="0.550000" /> 
</g>
<g style="fill:#000000; fill-opacity:1.000000; stroke:none;">
<circle cx="179.070000" cy="84.074000" r="0.550000" /> 
</g>
<g style="fill:#000000; fill-opacity:1.000000; stroke:none;">
<circle cx="164.287200" cy="70.053200" r="0.550000" /> 
</g>
<g style="fill:#000000; fill-opacity:1.000000; stroke:none;">
<circle cx="153.492200" cy="70.027800" r="0.550000" /> 
</g>
<g style="fill:#000000; fill-opacity:1.000000; stroke:none;">
<circle cx="155.956000" cy="84.582000" r="0.550000" /> 
</g> 
</svg>
