<?xml version="1.0" standalone="no"?>
 <!DOCTYPE svg PUBLIC "-//W3C//DTD SVG 1.1//EN" 
 "http://www.w3.org/Graphics/SVG/1.1/DTD/svg11.dtd"> 
<svg
  xmlns:svg="http://www.w3.org/2000/svg"
  xmlns="http://www.w3.org/2000/svg"
  xmlns:xlink="http://www.w3.org/1999/xlink"
  version="1.1"
  width="6.505cm" height="3.765cm" viewBox="117.975 64.675 65.05 37.65">
<title>SVG Image created as t1-B_SilkS.svg date 2024/04/10 11:50:22 </title>
  <desc>Image generated by PCBNEW </desc>
<g style="fill:#000000; fill-opacity:1.000000;stroke:#000000; stroke-opacity:1.000000;
stroke-linecap:round; stroke-linejoin:round;"
 transform="translate(0 0) scale(1 1)">
</g>
<g style="fill:none; 
stroke:#000000; stroke-width:0.150000; stroke-opacity:1; 
stroke-linecap:round; stroke-linejoin:round;">
<text x="128.727200" y="87.706028"
transform="scale(-1 1) translate(-257.454400 0)"
textLength="17.869050" font-size="1.333333" lengthAdjust="spacingAndGlyphs"
text-anchor="middle" opacity="0">KiBot variants example</text>
<g class="stroked-text"><desc>KiBot variants example</desc>
<path d="M137.298629 87.660847
L137.298629 86.660847
" />
<path d="M136.727201 87.660847
L137.155772 87.089418
" />
<path d="M136.727201 86.660847
L137.298629 87.232275
" />
<path d="M136.298629 87.660847
L136.298629 86.994180
" />
<path d="M136.298629 86.660847
L136.346248 86.708466
" />
<path d="M136.346248 86.708466
L136.298629 86.756085
" />
<path d="M136.298629 86.756085
L136.251010 86.708466
" />
<path d="M136.251010 86.708466
L136.298629 86.660847
" />
<path d="M136.298629 86.660847
L136.298629 86.756085
" />
<path d="M135.489106 87.137037
L135.346249 87.184656
" />
<path d="M135.346249 87.184656
L135.298630 87.232275
" />
<path d="M135.298630 87.232275
L135.251011 87.327513
" />
<path d="M135.251011 87.327513
L135.251011 87.470370
" />
<path d="M135.251011 87.470370
L135.298630 87.565608
" />
<path d="M135.298630 87.565608
L135.346249 87.613228
" />
<path d="M135.346249 87.613228
L135.441487 87.660847
" />
<path d="M135.441487 87.660847
L135.822439 87.660847
" />
<path d="M135.822439 87.660847
L135.822439 86.660847
" />
<path d="M135.822439 86.660847
L135.489106 86.660847
" />
<path d="M135.489106 86.660847
L135.393868 86.708466
" />
<path d="M135.393868 86.708466
L135.346249 86.756085
" />
<path d="M135.346249 86.756085
L135.298630 86.851323
" />
<path d="M135.298630 86.851323
L135.298630 86.946561
" />
<path d="M135.298630 86.946561
L135.346249 87.041799
" />
<path d="M135.346249 87.041799
L135.393868 87.089418
" />
<path d="M135.393868 87.089418
L135.489106 87.137037
" />
<path d="M135.489106 87.137037
L135.822439 87.137037
" />
<path d="M134.679582 87.660847
L134.774820 87.613228
" />
<path d="M134.774820 87.613228
L134.822439 87.565608
" />
<path d="M134.822439 87.565608
L134.870058 87.470370
" />
<path d="M134.870058 87.470370
L134.870058 87.184656
" />
<path d="M134.870058 87.184656
L134.822439 87.089418
" />
<path d="M134.822439 87.089418
L134.774820 87.041799
" />
<path d="M134.774820 87.041799
L134.679582 86.994180
" />
<path d="M134.679582 86.994180
L134.536725 86.994180
" />
<path d="M134.536725 86.994180
L134.441487 87.041799
" />
<path d="M134.441487 87.041799
L134.393868 87.089418
" />
<path d="M134.393868 87.089418
L134.346249 87.184656
" />
<path d="M134.346249 87.184656
L134.346249 87.470370
" />
<path d="M134.346249 87.470370
L134.393868 87.565608
" />
<path d="M134.393868 87.565608
L134.441487 87.613228
" />
<path d="M134.441487 87.613228
L134.536725 87.660847
" />
<path d="M134.536725 87.660847
L134.679582 87.660847
" />
<path d="M134.060534 86.994180
L133.679582 86.994180
" />
<path d="M133.917677 86.660847
L133.917677 87.517989
" />
<path d="M133.917677 87.517989
L133.870058 87.613228
" />
<path d="M133.870058 87.613228
L133.774820 87.660847
" />
<path d="M133.774820 87.660847
L133.679582 87.660847
" />
<path d="M132.679581 86.994180
L132.441486 87.660847
" />
<path d="M132.441486 87.660847
L132.203391 86.994180
" />
<path d="M131.393867 87.660847
L131.393867 87.137037
" />
<path d="M131.393867 87.137037
L131.441486 87.041799
" />
<path d="M131.441486 87.041799
L131.536724 86.994180
" />
<path d="M131.536724 86.994180
L131.727200 86.994180
" />
<path d="M131.727200 86.994180
L131.822438 87.041799
" />
<path d="M131.393867 87.613228
L131.489105 87.660847
" />
<path d="M131.489105 87.660847
L131.727200 87.660847
" />
<path d="M131.727200 87.660847
L131.822438 87.613228
" />
<path d="M131.822438 87.613228
L131.870057 87.517989
" />
<path d="M131.870057 87.517989
L131.870057 87.422751
" />
<path d="M131.870057 87.422751
L131.822438 87.327513
" />
<path d="M131.822438 87.327513
L131.727200 87.279894
" />
<path d="M131.727200 87.279894
L131.489105 87.279894
" />
<path d="M131.489105 87.279894
L131.393867 87.232275
" />
<path d="M130.917676 87.660847
L130.917676 86.994180
" />
<path d="M130.917676 87.184656
L130.870057 87.089418
" />
<path d="M130.870057 87.089418
L130.822438 87.041799
" />
<path d="M130.822438 87.041799
L130.727200 86.994180
" />
<path d="M130.727200 86.994180
L130.631962 86.994180
" />
<path d="M130.298628 87.660847
L130.298628 86.994180
" />
<path d="M130.298628 86.660847
L130.346247 86.708466
" />
<path d="M130.346247 86.708466
L130.298628 86.756085
" />
<path d="M130.298628 86.756085
L130.251009 86.708466
" />
<path d="M130.251009 86.708466
L130.298628 86.660847
" />
<path d="M130.298628 86.660847
L130.298628 86.756085
" />
<path d="M129.393867 87.660847
L129.393867 87.137037
" />
<path d="M129.393867 87.137037
L129.441486 87.041799
" />
<path d="M129.441486 87.041799
L129.536724 86.994180
" />
<path d="M129.536724 86.994180
L129.727200 86.994180
" />
<path d="M129.727200 86.994180
L129.822438 87.041799
" />
<path d="M129.393867 87.613228
L129.489105 87.660847
" />
<path d="M129.489105 87.660847
L129.727200 87.660847
" />
<path d="M129.727200 87.660847
L129.822438 87.613228
" />
<path d="M129.822438 87.613228
L129.870057 87.517989
" />
<path d="M129.870057 87.517989
L129.870057 87.422751
" />
<path d="M129.870057 87.422751
L129.822438 87.327513
" />
<path d="M129.822438 87.327513
L129.727200 87.279894
" />
<path d="M129.727200 87.279894
L129.489105 87.279894
" />
<path d="M129.489105 87.279894
L129.393867 87.232275
" />
<path d="M128.917676 86.994180
L128.917676 87.660847
" />
<path d="M128.917676 87.089418
L128.870057 87.041799
" />
<path d="M128.870057 87.041799
L128.774819 86.994180
" />
<path d="M128.774819 86.994180
L128.631962 86.994180
" />
<path d="M128.631962 86.994180
L128.536724 87.041799
" />
<path d="M128.536724 87.041799
L128.489105 87.137037
" />
<path d="M128.489105 87.137037
L128.489105 87.660847
" />
<path d="M128.155771 86.994180
L127.774819 86.994180
" />
<path d="M128.012914 86.660847
L128.012914 87.517989
" />
<path d="M128.012914 87.517989
L127.965295 87.613228
" />
<path d="M127.965295 87.613228
L127.870057 87.660847
" />
<path d="M127.870057 87.660847
L127.774819 87.660847
" />
<path d="M127.489104 87.613228
L127.393866 87.660847
" />
<path d="M127.393866 87.660847
L127.203390 87.660847
" />
<path d="M127.203390 87.660847
L127.108152 87.613228
" />
<path d="M127.108152 87.613228
L127.060533 87.517989
" />
<path d="M127.060533 87.517989
L127.060533 87.470370
" />
<path d="M127.060533 87.470370
L127.108152 87.375132
" />
<path d="M127.108152 87.375132
L127.203390 87.327513
" />
<path d="M127.203390 87.327513
L127.346247 87.327513
" />
<path d="M127.346247 87.327513
L127.441485 87.279894
" />
<path d="M127.441485 87.279894
L127.489104 87.184656
" />
<path d="M127.489104 87.184656
L127.489104 87.137037
" />
<path d="M127.489104 87.137037
L127.441485 87.041799
" />
<path d="M127.441485 87.041799
L127.346247 86.994180
" />
<path d="M127.346247 86.994180
L127.203390 86.994180
" />
<path d="M127.203390 86.994180
L127.108152 87.041799
" />
<path d="M125.489104 87.613228
L125.584342 87.660847
" />
<path d="M125.584342 87.660847
L125.774818 87.660847
" />
<path d="M125.774818 87.660847
L125.870056 87.613228
" />
<path d="M125.870056 87.613228
L125.917675 87.517989
" />
<path d="M125.917675 87.517989
L125.917675 87.137037
" />
<path d="M125.917675 87.137037
L125.870056 87.041799
" />
<path d="M125.870056 87.041799
L125.774818 86.994180
" />
<path d="M125.774818 86.994180
L125.584342 86.994180
" />
<path d="M125.584342 86.994180
L125.489104 87.041799
" />
<path d="M125.489104 87.041799
L125.441485 87.137037
" />
<path d="M125.441485 87.137037
L125.441485 87.232275
" />
<path d="M125.441485 87.232275
L125.917675 87.327513
" />
<path d="M125.108151 87.660847
L124.584342 86.994180
" />
<path d="M125.108151 86.994180
L124.584342 87.660847
" />
<path d="M123.774818 87.660847
L123.774818 87.137037
" />
<path d="M123.774818 87.137037
L123.822437 87.041799
" />
<path d="M123.822437 87.041799
L123.917675 86.994180
" />
<path d="M123.917675 86.994180
L124.108151 86.994180
" />
<path d="M124.108151 86.994180
L124.203389 87.041799
" />
<path d="M123.774818 87.613228
L123.870056 87.660847
" />
<path d="M123.870056 87.660847
L124.108151 87.660847
" />
<path d="M124.108151 87.660847
L124.203389 87.613228
" />
<path d="M124.203389 87.613228
L124.251008 87.517989
" />
<path d="M124.251008 87.517989
L124.251008 87.422751
" />
<path d="M124.251008 87.422751
L124.203389 87.327513
" />
<path d="M124.203389 87.327513
L124.108151 87.279894
" />
<path d="M124.108151 87.279894
L123.870056 87.279894
" />
<path d="M123.870056 87.279894
L123.774818 87.232275
" />
<path d="M123.298627 87.660847
L123.298627 86.994180
" />
<path d="M123.298627 87.089418
L123.251008 87.041799
" />
<path d="M123.251008 87.041799
L123.155770 86.994180
" />
<path d="M123.155770 86.994180
L123.012913 86.994180
" />
<path d="M123.012913 86.994180
L122.917675 87.041799
" />
<path d="M122.917675 87.041799
L122.870056 87.137037
" />
<path d="M122.870056 87.137037
L122.870056 87.660847
" />
<path d="M122.870056 87.137037
L122.822437 87.041799
" />
<path d="M122.822437 87.041799
L122.727199 86.994180
" />
<path d="M122.727199 86.994180
L122.584342 86.994180
" />
<path d="M122.584342 86.994180
L122.489103 87.041799
" />
<path d="M122.489103 87.041799
L122.441484 87.137037
" />
<path d="M122.441484 87.137037
L122.441484 87.660847
" />
<path d="M121.965294 86.994180
L121.965294 87.994180
" />
<path d="M121.965294 87.041799
L121.870056 86.994180
" />
<path d="M121.870056 86.994180
L121.679580 86.994180
" />
<path d="M121.679580 86.994180
L121.584342 87.041799
" />
<path d="M121.584342 87.041799
L121.536723 87.089418
" />
<path d="M121.536723 87.089418
L121.489104 87.184656
" />
<path d="M121.489104 87.184656
L121.489104 87.470370
" />
<path d="M121.489104 87.470370
L121.536723 87.565608
" />
<path d="M121.536723 87.565608
L121.584342 87.613228
" />
<path d="M121.584342 87.613228
L121.679580 87.660847
" />
<path d="M121.679580 87.660847
L121.870056 87.660847
" />
<path d="M121.870056 87.660847
L121.965294 87.613228
" />
<path d="M120.917675 87.660847
L121.012913 87.613228
" />
<path d="M121.012913 87.613228
L121.060532 87.517989
" />
<path d="M121.060532 87.517989
L121.060532 86.660847
" />
<path d="M120.155770 87.613228
L120.251008 87.660847
" />
<path d="M120.251008 87.660847
L120.441484 87.660847
" />
<path d="M120.441484 87.660847
L120.536722 87.613228
" />
<path d="M120.536722 87.613228
L120.584341 87.517989
" />
<path d="M120.584341 87.517989
L120.584341 87.137037
" />
<path d="M120.584341 87.137037
L120.536722 87.041799
" />
<path d="M120.536722 87.041799
L120.441484 86.994180
" />
<path d="M120.441484 86.994180
L120.251008 86.994180
" />
<path d="M120.251008 86.994180
L120.155770 87.041799
" />
<path d="M120.155770 87.041799
L120.108151 87.137037
" />
<path d="M120.108151 87.137037
L120.108151 87.232275
" />
<path d="M120.108151 87.232275
L120.584341 87.327513
" />
</g><text x="128.727200" y="89.315972"
transform="scale(-1 1) translate(-257.454400 0)"
textLength="16.297623" font-size="1.333333" lengthAdjust="spacingAndGlyphs"
text-anchor="middle" opacity="0">Not a real life board</text>
<g class="stroked-text"><desc>Not a real life board</desc>
<path d="M136.512915 89.270791
L136.512915 88.270791
" />
<path d="M136.512915 88.270791
L135.941487 89.270791
" />
<path d="M135.941487 89.270791
L135.941487 88.270791
" />
<path d="M135.322439 89.270791
L135.417677 89.223172
" />
<path d="M135.417677 89.223172
L135.465296 89.175552
" />
<path d="M135.465296 89.175552
L135.512915 89.080314
" />
<path d="M135.512915 89.080314
L135.512915 88.794600
" />
<path d="M135.512915 88.794600
L135.465296 88.699362
" />
<path d="M135.465296 88.699362
L135.417677 88.651743
" />
<path d="M135.417677 88.651743
L135.322439 88.604124
" />
<path d="M135.322439 88.604124
L135.179582 88.604124
" />
<path d="M135.179582 88.604124
L135.084344 88.651743
" />
<path d="M135.084344 88.651743
L135.036725 88.699362
" />
<path d="M135.036725 88.699362
L134.989106 88.794600
" />
<path d="M134.989106 88.794600
L134.989106 89.080314
" />
<path d="M134.989106 89.080314
L135.036725 89.175552
" />
<path d="M135.036725 89.175552
L135.084344 89.223172
" />
<path d="M135.084344 89.223172
L135.179582 89.270791
" />
<path d="M135.179582 89.270791
L135.322439 89.270791
" />
<path d="M134.703391 88.604124
L134.322439 88.604124
" />
<path d="M134.560534 88.270791
L134.560534 89.127933
" />
<path d="M134.560534 89.127933
L134.512915 89.223172
" />
<path d="M134.512915 89.223172
L134.417677 89.270791
" />
<path d="M134.417677 89.270791
L134.322439 89.270791
" />
<path d="M132.798629 89.270791
L132.798629 88.746981
" />
<path d="M132.798629 88.746981
L132.846248 88.651743
" />
<path d="M132.846248 88.651743
L132.941486 88.604124
" />
<path d="M132.941486 88.604124
L133.131962 88.604124
" />
<path d="M133.131962 88.604124
L133.227200 88.651743
" />
<path d="M132.798629 89.223172
L132.893867 89.270791
" />
<path d="M132.893867 89.270791
L133.131962 89.270791
" />
<path d="M133.131962 89.270791
L133.227200 89.223172
" />
<path d="M133.227200 89.223172
L133.274819 89.127933
" />
<path d="M133.274819 89.127933
L133.274819 89.032695
" />
<path d="M133.274819 89.032695
L133.227200 88.937457
" />
<path d="M133.227200 88.937457
L133.131962 88.889838
" />
<path d="M133.131962 88.889838
L132.893867 88.889838
" />
<path d="M132.893867 88.889838
L132.798629 88.842219
" />
<path d="M131.560533 89.270791
L131.560533 88.604124
" />
<path d="M131.560533 88.794600
L131.512914 88.699362
" />
<path d="M131.512914 88.699362
L131.465295 88.651743
" />
<path d="M131.465295 88.651743
L131.370057 88.604124
" />
<path d="M131.370057 88.604124
L131.274819 88.604124
" />
<path d="M130.560533 89.223172
L130.655771 89.270791
" />
<path d="M130.655771 89.270791
L130.846247 89.270791
" />
<path d="M130.846247 89.270791
L130.941485 89.223172
" />
<path d="M130.941485 89.223172
L130.989104 89.127933
" />
<path d="M130.989104 89.127933
L130.989104 88.746981
" />
<path d="M130.989104 88.746981
L130.941485 88.651743
" />
<path d="M130.941485 88.651743
L130.846247 88.604124
" />
<path d="M130.846247 88.604124
L130.655771 88.604124
" />
<path d="M130.655771 88.604124
L130.560533 88.651743
" />
<path d="M130.560533 88.651743
L130.512914 88.746981
" />
<path d="M130.512914 88.746981
L130.512914 88.842219
" />
<path d="M130.512914 88.842219
L130.989104 88.937457
" />
<path d="M129.655771 89.270791
L129.655771 88.746981
" />
<path d="M129.655771 88.746981
L129.703390 88.651743
" />
<path d="M129.703390 88.651743
L129.798628 88.604124
" />
<path d="M129.798628 88.604124
L129.989104 88.604124
" />
<path d="M129.989104 88.604124
L130.084342 88.651743
" />
<path d="M129.655771 89.223172
L129.751009 89.270791
" />
<path d="M129.751009 89.270791
L129.989104 89.270791
" />
<path d="M129.989104 89.270791
L130.084342 89.223172
" />
<path d="M130.084342 89.223172
L130.131961 89.127933
" />
<path d="M130.131961 89.127933
L130.131961 89.032695
" />
<path d="M130.131961 89.032695
L130.084342 88.937457
" />
<path d="M130.084342 88.937457
L129.989104 88.889838
" />
<path d="M129.989104 88.889838
L129.751009 88.889838
" />
<path d="M129.751009 88.889838
L129.655771 88.842219
" />
<path d="M129.036723 89.270791
L129.131961 89.223172
" />
<path d="M129.131961 89.223172
L129.179580 89.127933
" />
<path d="M129.179580 89.127933
L129.179580 88.270791
" />
<path d="M127.751008 89.270791
L127.846246 89.223172
" />
<path d="M127.846246 89.223172
L127.893865 89.127933
" />
<path d="M127.893865 89.127933
L127.893865 88.270791
" />
<path d="M127.370055 89.270791
L127.370055 88.604124
" />
<path d="M127.370055 88.270791
L127.417674 88.318410
" />
<path d="M127.417674 88.318410
L127.370055 88.366029
" />
<path d="M127.370055 88.366029
L127.322436 88.318410
" />
<path d="M127.322436 88.318410
L127.370055 88.270791
" />
<path d="M127.370055 88.270791
L127.370055 88.366029
" />
<path d="M127.036722 88.604124
L126.655770 88.604124
" />
<path d="M126.893865 89.270791
L126.893865 88.413648
" />
<path d="M126.893865 88.413648
L126.846246 88.318410
" />
<path d="M126.846246 88.318410
L126.751008 88.270791
" />
<path d="M126.751008 88.270791
L126.655770 88.270791
" />
<path d="M125.941484 89.223172
L126.036722 89.270791
" />
<path d="M126.036722 89.270791
L126.227198 89.270791
" />
<path d="M126.227198 89.270791
L126.322436 89.223172
" />
<path d="M126.322436 89.223172
L126.370055 89.127933
" />
<path d="M126.370055 89.127933
L126.370055 88.746981
" />
<path d="M126.370055 88.746981
L126.322436 88.651743
" />
<path d="M126.322436 88.651743
L126.227198 88.604124
" />
<path d="M126.227198 88.604124
L126.036722 88.604124
" />
<path d="M126.036722 88.604124
L125.941484 88.651743
" />
<path d="M125.941484 88.651743
L125.893865 88.746981
" />
<path d="M125.893865 88.746981
L125.893865 88.842219
" />
<path d="M125.893865 88.842219
L126.370055 88.937457
" />
<path d="M124.703388 89.270791
L124.703388 88.270791
" />
<path d="M124.703388 88.651743
L124.608150 88.604124
" />
<path d="M124.608150 88.604124
L124.417674 88.604124
" />
<path d="M124.417674 88.604124
L124.322436 88.651743
" />
<path d="M124.322436 88.651743
L124.274817 88.699362
" />
<path d="M124.274817 88.699362
L124.227198 88.794600
" />
<path d="M124.227198 88.794600
L124.227198 89.080314
" />
<path d="M124.227198 89.080314
L124.274817 89.175552
" />
<path d="M124.274817 89.175552
L124.322436 89.223172
" />
<path d="M124.322436 89.223172
L124.417674 89.270791
" />
<path d="M124.417674 89.270791
L124.608150 89.270791
" />
<path d="M124.608150 89.270791
L124.703388 89.223172
" />
<path d="M123.655769 89.270791
L123.751007 89.223172
" />
<path d="M123.751007 89.223172
L123.798626 89.175552
" />
<path d="M123.798626 89.175552
L123.846245 89.080314
" />
<path d="M123.846245 89.080314
L123.846245 88.794600
" />
<path d="M123.846245 88.794600
L123.798626 88.699362
" />
<path d="M123.798626 88.699362
L123.751007 88.651743
" />
<path d="M123.751007 88.651743
L123.655769 88.604124
" />
<path d="M123.655769 88.604124
L123.512912 88.604124
" />
<path d="M123.512912 88.604124
L123.417674 88.651743
" />
<path d="M123.417674 88.651743
L123.370055 88.699362
" />
<path d="M123.370055 88.699362
L123.322436 88.794600
" />
<path d="M123.322436 88.794600
L123.322436 89.080314
" />
<path d="M123.322436 89.080314
L123.370055 89.175552
" />
<path d="M123.370055 89.175552
L123.417674 89.223172
" />
<path d="M123.417674 89.223172
L123.512912 89.270791
" />
<path d="M123.512912 89.270791
L123.655769 89.270791
" />
<path d="M122.465293 89.270791
L122.465293 88.746981
" />
<path d="M122.465293 88.746981
L122.512912 88.651743
" />
<path d="M122.512912 88.651743
L122.608150 88.604124
" />
<path d="M122.608150 88.604124
L122.798626 88.604124
" />
<path d="M122.798626 88.604124
L122.893864 88.651743
" />
<path d="M122.465293 89.223172
L122.560531 89.270791
" />
<path d="M122.560531 89.270791
L122.798626 89.270791
" />
<path d="M122.798626 89.270791
L122.893864 89.223172
" />
<path d="M122.893864 89.223172
L122.941483 89.127933
" />
<path d="M122.941483 89.127933
L122.941483 89.032695
" />
<path d="M122.941483 89.032695
L122.893864 88.937457
" />
<path d="M122.893864 88.937457
L122.798626 88.889838
" />
<path d="M122.798626 88.889838
L122.560531 88.889838
" />
<path d="M122.560531 88.889838
L122.465293 88.842219
" />
<path d="M121.989102 89.270791
L121.989102 88.604124
" />
<path d="M121.989102 88.794600
L121.941483 88.699362
" />
<path d="M121.941483 88.699362
L121.893864 88.651743
" />
<path d="M121.893864 88.651743
L121.798626 88.604124
" />
<path d="M121.798626 88.604124
L121.703388 88.604124
" />
<path d="M120.941483 89.270791
L120.941483 88.270791
" />
<path d="M120.941483 89.223172
L121.036721 89.270791
" />
<path d="M121.036721 89.270791
L121.227197 89.270791
" />
<path d="M121.227197 89.270791
L121.322435 89.223172
" />
<path d="M121.322435 89.223172
L121.370054 89.175552
" />
<path d="M121.370054 89.175552
L121.417673 89.080314
" />
<path d="M121.417673 89.080314
L121.417673 88.794600
" />
<path d="M121.417673 88.794600
L121.370054 88.699362
" />
<path d="M121.370054 88.699362
L121.322435 88.651743
" />
<path d="M121.322435 88.651743
L121.227197 88.604124
" />
<path d="M121.227197 88.604124
L121.036721 88.604124
" />
<path d="M121.036721 88.604124
L120.941483 88.651743
" />
</g><text x="167.614600" y="82.491200"
transform="scale(-1 1) translate(-335.229200 0)"
textLength="2.964286" font-size="1.333333" lengthAdjust="spacingAndGlyphs"
text-anchor="middle" opacity="0">TP2</text>
<g class="stroked-text"><desc>TP2</desc>
<path d="M168.876504 81.446019
L168.305076 81.446019
" />
<path d="M168.590790 82.446019
L168.590790 81.446019
" />
<path d="M167.971742 82.446019
L167.971742 81.446019
" />
<path d="M167.971742 81.446019
L167.590790 81.446019
" />
<path d="M167.590790 81.446019
L167.495552 81.493638
" />
<path d="M167.495552 81.493638
L167.447933 81.541257
" />
<path d="M167.447933 81.541257
L167.400314 81.636495
" />
<path d="M167.400314 81.636495
L167.400314 81.779352
" />
<path d="M167.400314 81.779352
L167.447933 81.874590
" />
<path d="M167.447933 81.874590
L167.495552 81.922209
" />
<path d="M167.495552 81.922209
L167.590790 81.969828
" />
<path d="M167.590790 81.969828
L167.971742 81.969828
" />
<path d="M167.019361 81.541257
L166.971742 81.493638
" />
<path d="M166.971742 81.493638
L166.876504 81.446019
" />
<path d="M166.876504 81.446019
L166.638409 81.446019
" />
<path d="M166.638409 81.446019
L166.543171 81.493638
" />
<path d="M166.543171 81.493638
L166.495552 81.541257
" />
<path d="M166.495552 81.541257
L166.447933 81.636495
" />
<path d="M166.447933 81.636495
L166.447933 81.731733
" />
<path d="M166.447933 81.731733
L166.495552 81.874590
" />
<path d="M166.495552 81.874590
L167.066980 82.446019
" />
<path d="M167.066980 82.446019
L166.447933 82.446019
" />
</g><text x="175.844200" y="80.129000"
transform="scale(-1 1) translate(-351.688400 0)"
textLength="2.964286" font-size="1.333333" lengthAdjust="spacingAndGlyphs"
text-anchor="middle" opacity="0">TP3</text>
<g class="stroked-text"><desc>TP3</desc>
<path d="M177.106104 79.083819
L176.534676 79.083819
" />
<path d="M176.820390 80.083819
L176.820390 79.083819
" />
<path d="M176.201342 80.083819
L176.201342 79.083819
" />
<path d="M176.201342 79.083819
L175.820390 79.083819
" />
<path d="M175.820390 79.083819
L175.725152 79.131438
" />
<path d="M175.725152 79.131438
L175.677533 79.179057
" />
<path d="M175.677533 79.179057
L175.629914 79.274295
" />
<path d="M175.629914 79.274295
L175.629914 79.417152
" />
<path d="M175.629914 79.417152
L175.677533 79.512390
" />
<path d="M175.677533 79.512390
L175.725152 79.560009
" />
<path d="M175.725152 79.560009
L175.820390 79.607628
" />
<path d="M175.820390 79.607628
L176.201342 79.607628
" />
<path d="M175.296580 79.083819
L174.677533 79.083819
" />
<path d="M174.677533 79.083819
L175.010866 79.464771
" />
<path d="M175.010866 79.464771
L174.868009 79.464771
" />
<path d="M174.868009 79.464771
L174.772771 79.512390
" />
<path d="M174.772771 79.512390
L174.725152 79.560009
" />
<path d="M174.725152 79.560009
L174.677533 79.655247
" />
<path d="M174.677533 79.655247
L174.677533 79.893342
" />
<path d="M174.677533 79.893342
L174.725152 79.988580
" />
<path d="M174.725152 79.988580
L174.772771 80.036200
" />
<path d="M174.772771 80.036200
L174.868009 80.083819
" />
<path d="M174.868009 80.083819
L175.153723 80.083819
" />
<path d="M175.153723 80.083819
L175.248961 80.036200
" />
<path d="M175.248961 80.036200
L175.296580 79.988580
" />
</g><text x="178.968400" y="82.999200"
transform="scale(-1 1) translate(-357.936800 0)"
textLength="2.964286" font-size="1.333333" lengthAdjust="spacingAndGlyphs"
text-anchor="middle" opacity="0">TP4</text>
<g class="stroked-text"><desc>TP4</desc>
<path d="M180.230304 81.954019
L179.658876 81.954019
" />
<path d="M179.944590 82.954019
L179.944590 81.954019
" />
<path d="M179.325542 82.954019
L179.325542 81.954019
" />
<path d="M179.325542 81.954019
L178.944590 81.954019
" />
<path d="M178.944590 81.954019
L178.849352 82.001638
" />
<path d="M178.849352 82.001638
L178.801733 82.049257
" />
<path d="M178.801733 82.049257
L178.754114 82.144495
" />
<path d="M178.754114 82.144495
L178.754114 82.287352
" />
<path d="M178.754114 82.287352
L178.801733 82.382590
" />
<path d="M178.801733 82.382590
L178.849352 82.430209
" />
<path d="M178.849352 82.430209
L178.944590 82.477828
" />
<path d="M178.944590 82.477828
L179.325542 82.477828
" />
<path d="M177.896971 82.287352
L177.896971 82.954019
" />
<path d="M178.135066 81.906400
L178.373161 82.620685
" />
<path d="M178.373161 82.620685
L177.754114 82.620685
" />
</g><text x="179.044600" y="86.377400"
transform="scale(-1 1) translate(-358.089200 0)"
textLength="2.964286" font-size="1.333333" lengthAdjust="spacingAndGlyphs"
text-anchor="middle" opacity="0">TP5</text>
<g class="stroked-text"><desc>TP5</desc>
<path d="M180.306504 85.332219
L179.735076 85.332219
" />
<path d="M180.020790 86.332219
L180.020790 85.332219
" />
<path d="M179.401742 86.332219
L179.401742 85.332219
" />
<path d="M179.401742 85.332219
L179.020790 85.332219
" />
<path d="M179.020790 85.332219
L178.925552 85.379838
" />
<path d="M178.925552 85.379838
L178.877933 85.427457
" />
<path d="M178.877933 85.427457
L178.830314 85.522695
" />
<path d="M178.830314 85.522695
L178.830314 85.665552
" />
<path d="M178.830314 85.665552
L178.877933 85.760790
" />
<path d="M178.877933 85.760790
L178.925552 85.808409
" />
<path d="M178.925552 85.808409
L179.020790 85.856028
" />
<path d="M179.020790 85.856028
L179.401742 85.856028
" />
<path d="M177.925552 85.332219
L178.401742 85.332219
" />
<path d="M178.401742 85.332219
L178.449361 85.808409
" />
<path d="M178.449361 85.808409
L178.401742 85.760790
" />
<path d="M178.401742 85.760790
L178.306504 85.713171
" />
<path d="M178.306504 85.713171
L178.068409 85.713171
" />
<path d="M178.068409 85.713171
L177.973171 85.760790
" />
<path d="M177.973171 85.760790
L177.925552 85.808409
" />
<path d="M177.925552 85.808409
L177.877933 85.903647
" />
<path d="M177.877933 85.903647
L177.877933 86.141742
" />
<path d="M177.877933 86.141742
L177.925552 86.236980
" />
<path d="M177.925552 86.236980
L177.973171 86.284600
" />
<path d="M177.973171 86.284600
L178.068409 86.332219
" />
<path d="M178.068409 86.332219
L178.306504 86.332219
" />
<path d="M178.306504 86.332219
L178.401742 86.284600
" />
<path d="M178.401742 86.284600
L178.449361 86.236980
" />
</g><text x="164.338000" y="72.458200"
transform="scale(-1 1) translate(-328.676000 0)"
textLength="2.964286" font-size="1.333333" lengthAdjust="spacingAndGlyphs"
text-anchor="middle" opacity="0">TP6</text>
<g class="stroked-text"><desc>TP6</desc>
<path d="M165.599904 71.413019
L165.028476 71.413019
" />
<path d="M165.314190 72.413019
L165.314190 71.413019
" />
<path d="M164.695142 72.413019
L164.695142 71.413019
" />
<path d="M164.695142 71.413019
L164.314190 71.413019
" />
<path d="M164.314190 71.413019
L164.218952 71.460638
" />
<path d="M164.218952 71.460638
L164.171333 71.508257
" />
<path d="M164.171333 71.508257
L164.123714 71.603495
" />
<path d="M164.123714 71.603495
L164.123714 71.746352
" />
<path d="M164.123714 71.746352
L164.171333 71.841590
" />
<path d="M164.171333 71.841590
L164.218952 71.889209
" />
<path d="M164.218952 71.889209
L164.314190 71.936828
" />
<path d="M164.314190 71.936828
L164.695142 71.936828
" />
<path d="M163.266571 71.413019
L163.457047 71.413019
" />
<path d="M163.457047 71.413019
L163.552285 71.460638
" />
<path d="M163.552285 71.460638
L163.599904 71.508257
" />
<path d="M163.599904 71.508257
L163.695142 71.651114
" />
<path d="M163.695142 71.651114
L163.742761 71.841590
" />
<path d="M163.742761 71.841590
L163.742761 72.222542
" />
<path d="M163.742761 72.222542
L163.695142 72.317780
" />
<path d="M163.695142 72.317780
L163.647523 72.365400
" />
<path d="M163.647523 72.365400
L163.552285 72.413019
" />
<path d="M163.552285 72.413019
L163.361809 72.413019
" />
<path d="M163.361809 72.413019
L163.266571 72.365400
" />
<path d="M163.266571 72.365400
L163.218952 72.317780
" />
<path d="M163.218952 72.317780
L163.171333 72.222542
" />
<path d="M163.171333 72.222542
L163.171333 71.984447
" />
<path d="M163.171333 71.984447
L163.218952 71.889209
" />
<path d="M163.218952 71.889209
L163.266571 71.841590
" />
<path d="M163.266571 71.841590
L163.361809 71.793971
" />
<path d="M163.361809 71.793971
L163.552285 71.793971
" />
<path d="M163.552285 71.793971
L163.647523 71.841590
" />
<path d="M163.647523 71.841590
L163.695142 71.889209
" />
<path d="M163.695142 71.889209
L163.742761 71.984447
" />
</g><text x="153.441400" y="72.458200"
transform="scale(-1 1) translate(-306.882800 0)"
textLength="2.964286" font-size="1.333333" lengthAdjust="spacingAndGlyphs"
text-anchor="middle" opacity="0">TP8</text>
<g class="stroked-text"><desc>TP8</desc>
<path d="M154.703304 71.413019
L154.131876 71.413019
" />
<path d="M154.417590 72.413019
L154.417590 71.413019
" />
<path d="M153.798542 72.413019
L153.798542 71.413019
" />
<path d="M153.798542 71.413019
L153.417590 71.413019
" />
<path d="M153.417590 71.413019
L153.322352 71.460638
" />
<path d="M153.322352 71.460638
L153.274733 71.508257
" />
<path d="M153.274733 71.508257
L153.227114 71.603495
" />
<path d="M153.227114 71.603495
L153.227114 71.746352
" />
<path d="M153.227114 71.746352
L153.274733 71.841590
" />
<path d="M153.274733 71.841590
L153.322352 71.889209
" />
<path d="M153.322352 71.889209
L153.417590 71.936828
" />
<path d="M153.417590 71.936828
L153.798542 71.936828
" />
<path d="M152.655685 71.841590
L152.750923 71.793971
" />
<path d="M152.750923 71.793971
L152.798542 71.746352
" />
<path d="M152.798542 71.746352
L152.846161 71.651114
" />
<path d="M152.846161 71.651114
L152.846161 71.603495
" />
<path d="M152.846161 71.603495
L152.798542 71.508257
" />
<path d="M152.798542 71.508257
L152.750923 71.460638
" />
<path d="M152.750923 71.460638
L152.655685 71.413019
" />
<path d="M152.655685 71.413019
L152.465209 71.413019
" />
<path d="M152.465209 71.413019
L152.369971 71.460638
" />
<path d="M152.369971 71.460638
L152.322352 71.508257
" />
<path d="M152.322352 71.508257
L152.274733 71.603495
" />
<path d="M152.274733 71.603495
L152.274733 71.651114
" />
<path d="M152.274733 71.651114
L152.322352 71.746352
" />
<path d="M152.322352 71.746352
L152.369971 71.793971
" />
<path d="M152.369971 71.793971
L152.465209 71.841590
" />
<path d="M152.465209 71.841590
L152.655685 71.841590
" />
<path d="M152.655685 71.841590
L152.750923 71.889209
" />
<path d="M152.750923 71.889209
L152.798542 71.936828
" />
<path d="M152.798542 71.936828
L152.846161 72.032066
" />
<path d="M152.846161 72.032066
L152.846161 72.222542
" />
<path d="M152.846161 72.222542
L152.798542 72.317780
" />
<path d="M152.798542 72.317780
L152.750923 72.365400
" />
<path d="M152.750923 72.365400
L152.655685 72.413019
" />
<path d="M152.655685 72.413019
L152.465209 72.413019
" />
<path d="M152.465209 72.413019
L152.369971 72.365400
" />
<path d="M152.369971 72.365400
L152.322352 72.317780
" />
<path d="M152.322352 72.317780
L152.274733 72.222542
" />
<path d="M152.274733 72.222542
L152.274733 72.032066
" />
<path d="M152.274733 72.032066
L152.322352 71.936828
" />
<path d="M152.322352 71.936828
L152.369971 71.889209
" />
<path d="M152.369971 71.889209
L152.465209 71.841590
" />
</g><text x="155.930600" y="86.961600"
transform="scale(-1 1) translate(-311.861200 0)"
textLength="2.964286" font-size="1.333333" lengthAdjust="spacingAndGlyphs"
text-anchor="middle" opacity="0">TP9</text>
<g class="stroked-text"><desc>TP9</desc>
<path d="M157.192504 85.916419
L156.621076 85.916419
" />
<path d="M156.906790 86.916419
L156.906790 85.916419
" />
<path d="M156.287742 86.916419
L156.287742 85.916419
" />
<path d="M156.287742 85.916419
L155.906790 85.916419
" />
<path d="M155.906790 85.916419
L155.811552 85.964038
" />
<path d="M155.811552 85.964038
L155.763933 86.011657
" />
<path d="M155.763933 86.011657
L155.716314 86.106895
" />
<path d="M155.716314 86.106895
L155.716314 86.249752
" />
<path d="M155.716314 86.249752
L155.763933 86.344990
" />
<path d="M155.763933 86.344990
L155.811552 86.392609
" />
<path d="M155.811552 86.392609
L155.906790 86.440228
" />
<path d="M155.906790 86.440228
L156.287742 86.440228
" />
<path d="M155.240123 86.916419
L155.049647 86.916419
" />
<path d="M155.049647 86.916419
L154.954409 86.868800
" />
<path d="M154.954409 86.868800
L154.906790 86.821180
" />
<path d="M154.906790 86.821180
L154.811552 86.678323
" />
<path d="M154.811552 86.678323
L154.763933 86.487847
" />
<path d="M154.763933 86.487847
L154.763933 86.106895
" />
<path d="M154.763933 86.106895
L154.811552 86.011657
" />
<path d="M154.811552 86.011657
L154.859171 85.964038
" />
<path d="M154.859171 85.964038
L154.954409 85.916419
" />
<path d="M154.954409 85.916419
L155.144885 85.916419
" />
<path d="M155.144885 85.916419
L155.240123 85.964038
" />
<path d="M155.240123 85.964038
L155.287742 86.011657
" />
<path d="M155.287742 86.011657
L155.335361 86.106895
" />
<path d="M155.335361 86.106895
L155.335361 86.344990
" />
<path d="M155.335361 86.344990
L155.287742 86.440228
" />
<path d="M155.287742 86.440228
L155.240123 86.487847
" />
<path d="M155.240123 86.487847
L155.144885 86.535466
" />
<path d="M155.144885 86.535466
L154.954409 86.535466
" />
<path d="M154.954409 86.535466
L154.859171 86.487847
" />
<path d="M154.859171 86.487847
L154.811552 86.440228
" />
<path d="M154.811552 86.440228
L154.763933 86.344990
" />
</g></g>
<g style="fill:none; 
stroke:#000000; stroke-width:0.120000; stroke-opacity:1; 
stroke-linecap:round; stroke-linejoin:round;">
<circle cx="167.792400" cy="80.162400" r="0.700000" /> 
<circle cx="173.482000" cy="78.486000" r="0.700000" /> 
<circle cx="179.070000" cy="80.772000" r="0.700000" /> 
<circle cx="179.070000" cy="84.074000" r="0.700000" /> 
<circle cx="164.287200" cy="70.053200" r="0.700000" /> 
<circle cx="153.492200" cy="70.027800" r="0.700000" /> 
<circle cx="155.956000" cy="84.582000" r="0.700000" /> 
<path style="fill:#000000; fill-opacity:1.000000; 
stroke:#000000; stroke-width:0.010000; stroke-opacity:1; 
stroke-linecap:round; stroke-linejoin:round;fill-rule:evenodd;"
d="M 162.850842,94.319381
162.911889,94.338439
162.987069,94.370115
163.023469,94.387138
163.049740,94.390215
163.055549,94.366620
163.055555,94.365952
163.067856,94.343426
163.110281,94.331879
163.192510,94.328628
163.329471,94.328628
163.329471,95.523922
163.055549,95.523922
163.055549,94.699779
162.987454,94.636670
162.966180,94.618735
162.902811,94.588091
162.824776,94.586863
162.718520,94.613903
162.682701,94.615615
162.640683,94.589383
162.584757,94.527035
162.557628,94.492547
162.525543,94.443852
162.520599,94.412855
162.538563,94.386707
162.593710,94.353641
162.679363,94.327472
162.772292,94.314496
Z" /> 
<path style="fill:#000000; fill-opacity:1.000000; 
stroke:#000000; stroke-width:0.010000; stroke-opacity:1; 
stroke-linecap:round; stroke-linejoin:round;fill-rule:evenodd;"
d="M 163.213525,96.212675
163.288760,96.247886
163.354373,96.299497
163.354373,96.247886
163.356008,96.228290
163.371221,96.207513
163.412362,96.198337
163.491334,96.196275
163.628295,96.196275
163.628295,97.416471
163.354373,97.416471
163.354373,97.019211
163.354340,96.996405
163.352003,96.836089
163.346268,96.705500
163.337544,96.611314
163.326241,96.560208
163.315862,96.540915
163.251968,96.480406
163.164937,96.453622
163.069904,96.466117
163.046594,96.474586
162.996937,96.489555
162.962999,96.484907
162.928850,96.454479
162.878559,96.392111
162.796992,96.289123
162.854323,96.242699
162.908823,96.214755
163.004554,96.195883
163.112456,96.195265
Z" /> 
<path style="fill:#000000; fill-opacity:1.000000; 
stroke:#000000; stroke-width:0.010000; stroke-opacity:1; 
stroke-linecap:round; stroke-linejoin:round;fill-rule:evenodd;"
d="M 168.409471,97.416471
168.160451,97.416471
168.160451,97.032111
168.160176,96.942706
168.157344,96.794629
168.150176,96.685003
168.137116,96.606252
168.116608,96.550798
168.087098,96.511061
168.047031,96.479465
168.003290,96.455921
167.951496,96.449246
167.877831,96.464090
167.854159,96.470271
167.795069,96.479572
167.752818,96.466245
167.703848,96.424996
167.694555,96.416026
167.643179,96.360534
167.610047,96.315415
167.605502,96.304545
167.614508,96.264409
167.660174,96.232320
167.732246,96.209799
167.820471,96.198367
167.914594,96.199544
168.004362,96.214850
168.079520,96.245806
168.103343,96.260260
168.143449,96.281417
168.158296,96.276572
168.160451,96.245712
168.160957,96.234633
168.172970,96.210091
168.210236,96.198921
168.284961,96.196275
168.409471,96.196275
Z" /> 
<path style="fill:#000000; fill-opacity:1.000000; 
stroke:#000000; stroke-width:0.010000; stroke-opacity:1; 
stroke-linecap:round; stroke-linejoin:round;fill-rule:evenodd;"
d="M 163.827510,94.716245
163.829611,94.890624
163.837833,95.031460
163.854491,95.133825
163.881891,95.203458
163.922343,95.246093
163.978152,95.267468
164.051628,95.273318
164.121783,95.268097
164.178443,95.247659
164.219626,95.206254
164.247640,95.138147
164.264793,95.037600
164.273392,94.898879
164.275746,94.716245
164.275746,94.328628
164.524765,94.328628
164.524765,94.795928
164.524338,94.920659
164.521018,95.081955
164.512687,95.204965
164.497326,95.296729
164.472919,95.364291
164.437447,95.414691
164.388892,95.454971
164.325235,95.492174
164.191562,95.539270
164.052055,95.542342
163.920524,95.498971
163.863135,95.470857
163.834664,95.466654
163.827510,95.486520
163.815632,95.508826
163.773116,95.520576
163.690549,95.523922
163.553589,95.523922
163.553589,94.328628
163.827510,94.328628
Z" /> 
<path style="fill:#000000; fill-opacity:1.000000; 
stroke:#000000; stroke-width:0.010000; stroke-opacity:1; 
stroke-linecap:round; stroke-linejoin:round;fill-rule:evenodd;"
d="M 167.990906,94.326271
168.104422,94.361937
168.154473,94.386177
168.179646,94.388681
168.185353,94.366620
168.185359,94.365952
168.197660,94.343426
168.240084,94.331879
168.322314,94.328628
168.459275,94.328628
168.459275,95.523922
168.185353,95.523922
168.185353,95.111907
168.185166,94.972779
168.183885,94.858493
168.180458,94.778519
168.173832,94.724708
168.162954,94.688912
168.146771,94.662982
168.124230,94.638770
168.093527,94.613017
168.005239,94.578416
167.912565,94.588571
167.827671,94.643298
167.803406,94.668768
167.785987,94.694545
167.774304,94.728848
167.767212,94.779933
167.763564,94.856056
167.762215,94.965471
167.762020,95.116435
167.762020,95.523922
167.488098,95.523922
167.488645,95.081912
167.488682,95.062223
167.491058,94.874209
167.498353,94.728159
167.512445,94.616971
167.535207,94.533544
167.568514,94.470775
167.614241,94.421561
167.674264,94.378802
167.736240,94.349199
167.861055,94.322305
Z" /> 
<path style="fill:#000000; fill-opacity:1.000000; 
stroke:#000000; stroke-width:0.010000; stroke-opacity:1; 
stroke-linecap:round; stroke-linejoin:round;fill-rule:evenodd;"
d="M 162.150341,94.334329
162.286218,94.387267
162.401135,94.474655
162.486013,94.594680
162.491745,94.606918
162.528135,94.726281
162.546316,94.868864
162.546173,95.017318
162.527590,95.154297
162.490452,95.262451
162.444599,95.337831
162.343669,95.444620
162.217469,95.512500
162.109497,95.539950
161.945088,95.542947
161.787764,95.501549
161.648251,95.417546
161.557954,95.343116
161.639284,95.259205
161.690665,95.209496
161.737141,95.181820
161.780235,95.187914
161.835353,95.225098
161.857331,95.239655
161.950178,95.269449
162.056895,95.269431
162.156808,95.238723
162.194429,95.214064
162.249613,95.141245
162.277278,95.034290
162.279058,94.888517
162.279053,94.888435
162.258470,94.758014
162.213128,94.667587
162.138518,94.611652
162.030128,94.584704
161.961871,94.581079
161.902231,94.595921
161.841065,94.638918
161.761912,94.705520
161.661672,94.624965
161.625050,94.594105
161.579307,94.549889
161.561432,94.523832
161.567762,94.512089
161.604221,94.476036
161.662301,94.430185
161.707744,94.400348
161.852024,94.339056
162.002583,94.317654
Z" /> 
<path style="fill:#000000; fill-opacity:1.000000; 
stroke:#000000; stroke-width:0.010000; stroke-opacity:1; 
stroke-linecap:round; stroke-linejoin:round;fill-rule:evenodd;"
d="M 165.713953,95.012173
165.707005,95.090982
165.676299,95.241438
165.621376,95.356246
165.537780,95.442966
165.421058,95.509155
165.375739,95.524908
165.258373,95.544562
165.134866,95.544027
165.030651,95.522439
165.028603,95.521655
164.944618,95.472251
164.859770,95.395770
164.789366,95.308311
164.748714,95.225969
164.736663,95.165779
164.726346,95.053084
164.724617,94.952632
164.975502,94.952632
164.990500,95.073119
165.025735,95.172123
165.079117,95.236815
165.099350,95.247922
165.176506,95.268111
165.265749,95.272265
165.340828,95.258235
165.370132,95.238116
165.411264,95.167760
165.437146,95.057645
165.446138,94.913145
165.445994,94.871549
165.442870,94.787264
165.432482,94.732281
165.410688,94.691655
165.373347,94.650437
165.302293,94.600481
165.209791,94.580057
165.120418,94.599509
165.046210,94.655771
164.999201,94.745775
164.982828,94.823494
164.975502,94.952632
164.724617,94.952632
164.724137,94.924738
164.729672,94.796993
164.742588,94.686101
164.762522,94.608315
164.808953,94.520245
164.907498,94.411959
165.033453,94.343364
165.183074,94.316213
165.352615,94.332259
165.380825,94.339094
165.512201,94.398040
165.611198,94.494814
165.677820,94.629423
165.712070,94.801874
165.713067,94.913145
Z" /> 
<path style="fill:#000000; fill-opacity:1.000000; 
stroke:#000000; stroke-width:0.010000; stroke-opacity:1; 
stroke-linecap:round; stroke-linejoin:round;fill-rule:evenodd;"
d="M 165.912270,96.587297
165.945936,96.687741
165.985761,96.798935
166.019017,96.883172
166.042954,96.933587
166.054824,96.943318
166.057688,96.934856
166.073191,96.882953
166.097883,96.796265
166.129023,96.684497
166.163870,96.557353
166.258674,96.208726
166.403426,96.201163
166.415645,96.200557
166.493703,96.199755
166.531212,96.207768
166.535989,96.226065
166.529955,96.243934
166.510103,96.305095
166.479023,96.401960
166.438930,96.527602
166.392037,96.675091
166.340561,96.837500
166.157321,97.416471
165.928105,97.416471
165.820101,97.049167
165.800158,96.981720
165.763300,96.859101
165.731805,96.756930
165.708510,96.684336
165.696250,96.650446
165.692757,96.647918
165.675758,96.669778
165.651489,96.727586
165.623982,96.812309
165.622528,96.817285
165.585700,96.942322
165.543562,97.083896
165.504950,97.212316
165.442339,97.419044
165.211411,97.404020
165.104470,97.067843
165.057519,96.920128
165.004926,96.754458
164.954565,96.595638
164.912878,96.463971
164.828227,96.196275
165.111429,96.196275
165.180072,96.451520
165.198321,96.518963
165.232833,96.644697
165.264793,96.759083
165.289089,96.843726
165.329463,96.980686
165.458224,96.594706
165.586986,96.208726
165.685472,96.201332
165.783959,96.193939
Z" /> 
<path style="fill:#000000; fill-opacity:1.000000; 
stroke:#000000; stroke-width:0.010000; stroke-opacity:1; 
stroke-linecap:round; stroke-linejoin:round;fill-rule:evenodd;"
d="M 167.610979,96.899570
167.607822,97.006032
167.601474,97.080192
167.600386,97.086989
167.557660,97.208555
167.479634,97.311619
167.377274,97.381444
167.267354,97.410346
167.132151,97.408103
167.007776,97.369351
166.975379,97.352998
166.933720,97.335475
166.917867,97.340927
166.915353,97.369351
166.914199,97.383525
166.899292,97.404488
166.857889,97.414140
166.778393,97.416471
166.641432,97.416471
166.641432,96.818607
166.915353,96.818607
166.917316,96.922181
166.925283,96.991138
166.942292,97.038379
166.971383,97.077968
167.048196,97.136831
167.138086,97.156564
167.225254,97.132162
167.298669,97.064090
167.318075,97.014278
167.332410,96.926070
167.338711,96.819052
167.336726,96.709284
167.326199,96.612827
167.306876,96.545743
167.300703,96.534742
167.241193,96.479453
167.160546,96.454959
167.073933,96.460656
166.996522,96.495940
166.943486,96.560208
166.941294,96.565613
166.928143,96.625921
166.918866,96.716039
166.915353,96.818607
166.641432,96.818607
166.641432,95.723137
166.915353,95.723137
166.915353,96.303601
166.966090,96.257685
167.014942,96.229146
167.107402,96.205290
167.215485,96.197603
167.321036,96.207040
167.405900,96.234557
167.466641,96.273699
167.529207,96.340379
167.571315,96.430053
167.596627,96.551355
167.608806,96.712918
167.610596,96.778225
167.610725,96.819052
Z" /> 
<path style="fill:#000000; fill-opacity:1.000000; 
stroke:#000000; stroke-width:0.010000; stroke-opacity:1; 
stroke-linecap:round; stroke-linejoin:round;fill-rule:evenodd;"
d="M 171.916818,94.994666
171.913603,95.072653
171.906305,95.167754
171.893873,95.235160
171.873343,95.288570
171.841751,95.341685
171.840406,95.343699
171.762616,95.429755
171.667438,95.495391
171.556760,95.534339
171.411163,95.546985
171.268463,95.522119
171.140909,95.462198
171.040753,95.369681
171.011999,95.325967
170.958301,95.190073
170.931670,95.022408
170.932125,94.979997
171.199763,94.979997
171.200267,95.059314
171.208677,95.112267
171.227838,95.152956
171.260598,95.195479
171.306058,95.237676
171.396980,95.275333
171.494608,95.268338
171.587914,95.216002
171.614234,95.191006
171.642336,95.148214
171.657920,95.088068
171.666753,94.994348
171.669186,94.923944
171.655856,94.780168
171.614947,94.677231
171.546281,94.614567
171.465789,94.584560
171.369794,94.587086
171.280811,94.637746
171.259538,94.657031
171.232693,94.690774
171.216766,94.734920
171.207929,94.802601
171.202355,94.906950
171.199763,94.979997
170.932125,94.979997
170.933724,94.831126
170.936345,94.803996
170.972918,94.630229
171.040581,94.495334
171.139478,94.399163
171.269753,94.341568
171.431550,94.322402
171.492679,94.324201
171.618039,94.346211
171.720546,94.398746
171.816115,94.488686
171.831400,94.506737
171.872624,94.567530
171.899717,94.636367
171.914740,94.723600
171.919754,94.839582
171.918156,94.923944
Z" /> 
<path style="fill:#000000; fill-opacity:1.000000; 
stroke:#000000; stroke-width:0.010000; stroke-opacity:1; 
stroke-linecap:round; stroke-linejoin:round;fill-rule:evenodd;"
d="M 161.528566,94.846032
161.525360,95.036632
161.524943,95.040380
161.489139,95.215271
161.424449,95.351247
161.328859,95.451296
161.200353,95.518405
161.176764,95.526079
161.030551,95.548696
160.879334,95.536084
160.738750,95.491017
160.624437,95.416269
160.538812,95.337157
160.629827,95.265191
160.720842,95.193224
160.830528,95.246514
160.957445,95.289695
161.069488,95.290987
161.161157,95.251314
161.227123,95.171683
161.250771,95.123968
161.263972,95.083189
161.256334,95.055641
161.222063,95.038731
161.155368,95.029864
161.050454,95.026445
160.901530,95.025882
160.540451,95.025882
160.540451,94.853190
160.543149,94.777376
160.797385,94.777376
160.809595,94.791321
160.845748,94.798578
160.914463,94.801332
161.024362,94.801765
161.083294,94.801073
161.176290,94.796500
161.239373,94.788491
161.262608,94.778035
161.256663,94.739456
161.214762,94.665634
161.144938,94.604990
161.061699,94.568362
160.979554,94.566589
160.917721,94.595960
160.847656,94.662800
160.803106,94.745735
160.800496,94.754562
160.797385,94.777376
160.543149,94.777376
160.543702,94.761853
160.553246,94.671484
160.566881,94.610396
160.576820,94.587074
160.649166,94.483202
160.753700,94.396569
160.875949,94.339845
160.939713,94.324355
161.091645,94.317304
161.227022,94.353174
161.342122,94.427974
161.433227,94.537711
161.496615,94.678395
161.515607,94.778035
Z" /> 
<path style="fill:#000000; fill-opacity:1.000000; 
stroke:#000000; stroke-width:0.010000; stroke-opacity:1; 
stroke-linecap:round; stroke-linejoin:round;fill-rule:evenodd;"
d="M 166.438810,94.327820
166.582629,94.363866
166.687691,94.430677
166.754594,94.528702
166.783940,94.658387
166.777999,94.782544
166.735114,94.887266
166.652876,94.964693
166.529635,95.016337
166.363744,95.043710
166.255952,95.058057
166.157566,95.089099
166.106771,95.134053
166.103704,95.192838
166.124146,95.229493
166.187454,95.272935
166.277449,95.293483
166.382913,95.290673
166.492626,95.264042
166.595368,95.213128
166.697804,95.145339
166.787902,95.236508
166.878000,95.327676
166.803295,95.388655
166.774246,95.409842
166.692517,95.457978
166.604079,95.499457
166.534087,95.523262
166.431602,95.540504
166.305255,95.540732
166.150318,95.521748
166.010745,95.473630
165.911950,95.397195
165.853701,95.292254
165.835762,95.158617
165.848747,95.041054
165.890431,94.944803
165.965477,94.875873
166.078635,94.830030
166.234654,94.803042
166.252574,94.801088
166.349714,94.788630
166.428514,94.775592
166.473344,94.764499
166.488304,94.755567
166.513596,94.709509
166.509488,94.650553
166.475688,94.599373
166.457939,94.588210
166.383981,94.570326
166.288451,94.571529
166.188836,94.590561
166.102621,94.626168
166.012031,94.679618
165.941763,94.597505
165.924712,94.576644
165.886298,94.520761
165.870483,94.482887
165.887090,94.459664
165.938469,94.423412
166.012657,94.384402
166.023110,94.379633
166.120941,94.342229
166.215241,94.324345
166.332262,94.320754
Z" /> 
<path style="fill:#000000; fill-opacity:1.000000; 
stroke:#000000; stroke-width:0.010000; stroke-opacity:1; 
stroke-linecap:round; stroke-linejoin:round;fill-rule:evenodd;"
d="M 162.805740,96.806373
162.802502,96.899330
162.773010,97.077105
162.712329,97.216892
162.619922,97.319689
162.495255,97.386496
162.454976,97.398300
162.311153,97.414786
162.159289,97.400873
162.022118,97.357935
161.973794,97.333565
161.904507,97.291819
161.862517,97.257468
161.856317,97.249620
161.844719,97.220917
161.861430,97.189714
161.912321,97.142459
161.936880,97.121887
161.985260,97.084242
162.010627,97.068855
162.017894,97.070440
162.059544,97.087574
162.121726,97.117647
162.142000,97.127540
162.261600,97.164275
162.365506,97.154805
162.456621,97.098971
162.467222,97.088654
162.517909,97.024031
162.546870,96.962010
162.562909,96.893530
161.810451,96.893530
161.810590,96.762794
161.810670,96.749792
161.820829,96.644903
162.084373,96.644903
162.087485,96.666657
162.103462,96.681649
162.141543,96.689970
162.210960,96.693549
162.320942,96.694314
162.382086,96.693521
162.472338,96.688888
162.534416,96.681038
162.557510,96.671033
162.537814,96.588677
162.480151,96.511811
162.396984,96.458484
162.300911,96.440038
162.230178,96.460832
162.159471,96.511664
162.105722,96.577892
162.084373,96.644903
161.820829,96.644903
161.826248,96.588950
161.871592,96.458106
161.950712,96.345313
161.998979,96.297600
162.098663,96.233731
162.217693,96.202784
162.368043,96.200607
162.440668,96.209139
162.574727,96.253440
162.677365,96.334069
162.749480,96.452271
162.791972,96.609291
162.796286,96.671033
Z" /> 
<path style="fill:#000000; fill-opacity:1.000000; 
stroke:#000000; stroke-width:0.010000; stroke-opacity:1; 
stroke-linecap:round; stroke-linejoin:round;fill-rule:evenodd;"
d="M 169.623573,94.776685
169.632286,94.951108
169.630109,95.027224
169.605559,95.193570
169.551460,95.324728
169.464982,95.426101
169.343295,95.503096
169.225249,95.539039
169.077161,95.545915
168.927748,95.519468
168.794472,95.461037
168.745083,95.428532
168.690668,95.386868
168.665840,95.359452
168.667247,95.348140
168.695039,95.309597
168.747272,95.262901
168.837791,95.193858
168.943858,95.246831
168.972540,95.259943
169.056971,95.288441
169.127737,95.299804
169.179919,95.290441
169.261806,95.245351
169.330637,95.175355
169.370007,95.094363
169.386047,95.025882
168.633589,95.025882
168.633728,94.895147
168.634867,94.853713
168.643182,94.764805
168.907510,94.764805
168.907995,94.769899
168.921687,94.785760
168.960378,94.795505
169.032317,94.800413
169.145757,94.801765
169.183042,94.801749
169.279873,94.800854
169.338083,94.796988
169.366306,94.787968
169.373173,94.771611
169.367317,94.745735
169.366423,94.742802
169.315973,94.652759
169.236442,94.590766
169.141603,94.567686
169.106547,94.569532
169.041481,94.591611
168.979061,94.647766
168.962247,94.667621
168.923137,94.724326
168.907510,94.764805
168.643182,94.764805
168.644251,94.753376
168.659988,94.670349
168.677236,94.623868
168.737879,94.522769
168.819094,94.430951
168.904981,94.368037
168.929796,94.356354
169.074290,94.317600
169.221842,94.321686
169.360567,94.366882
169.478579,94.451461
169.542410,94.529461
169.594601,94.639343
169.622503,94.771611
Z" /> 
<path style="fill:#000000; fill-opacity:1.000000; 
stroke:#000000; stroke-width:0.010000; stroke-opacity:1; 
stroke-linecap:round; stroke-linejoin:round;fill-rule:evenodd;"
d="M 164.835760,97.088738
164.805719,97.201789
164.740432,97.298505
164.641398,97.368077
164.631679,97.372305
164.523320,97.402767
164.401223,97.414642
164.285138,97.407382
164.194814,97.380441
164.158734,97.362865
164.132256,97.358674
164.126334,97.380594
164.115116,97.400866
164.071713,97.412938
163.987469,97.416471
163.848604,97.416471
163.855995,96.980686
164.126334,96.980686
164.135713,97.045829
164.176138,97.117647
164.191059,97.130848
164.252218,97.158620
164.344226,97.165766
164.399435,97.162974
164.502741,97.141952
164.566771,97.102782
164.588367,97.048122
164.564369,96.980628
164.550367,96.962964
164.487827,96.923345
164.388847,96.900722
164.247731,96.893530
164.126334,96.893530
164.126334,96.980686
163.855995,96.980686
163.856734,96.937108
163.858943,96.826258
163.864761,96.660305
163.874567,96.533409
163.890299,96.438654
163.913894,96.369120
163.947291,96.317890
163.992427,96.278046
164.051239,96.242669
164.081580,96.229163
164.186541,96.203669
164.313134,96.193129
164.444017,96.197350
164.561845,96.216140
164.649275,96.249305
164.679687,96.268562
164.749705,96.325636
164.773403,96.373427
164.767648,96.382662
164.731782,96.414919
164.673881,96.457950
164.644279,96.478091
164.593868,96.506629
164.561110,96.509354
164.530695,96.489657
164.454892,96.449766
164.352895,96.433361
164.248661,96.445920
164.246689,96.446489
164.173171,96.478431
164.136781,96.528428
164.126715,96.611116
164.126334,96.689780
164.386230,96.698273
164.427636,96.699670
164.532027,96.704528
164.602010,96.712161
164.649313,96.725425
164.685668,96.747181
164.722804,96.780285
164.784120,96.856855
164.829059,96.970157
164.833465,97.048122
Z" /> 
<path style="fill:#000000; fill-opacity:1.000000; 
stroke:#000000; stroke-width:0.010000; stroke-opacity:1; 
stroke-linecap:round; stroke-linejoin:round;fill-rule:evenodd;"
d="M 169.624123,97.084559
169.623841,97.087844
169.593497,97.215772
169.526002,97.311986
169.418000,97.381318
169.362189,97.398186
169.266593,97.411333
169.162055,97.414472
169.067738,97.407237
169.002808,97.389262
168.963370,97.374864
168.924758,97.389262
168.910634,97.397604
168.854261,97.411131
168.778020,97.416471
168.658491,97.416471
168.658491,96.989278
168.932412,96.989278
168.941619,97.062143
168.977951,97.126239
168.998744,97.140110
169.072958,97.161731
169.165610,97.167129
169.256468,97.156162
169.325303,97.128686
169.359595,97.092358
169.380647,97.027808
169.361977,96.976639
169.300259,96.932148
169.201047,96.903605
169.070173,96.893530
168.932412,96.893530
168.932412,96.989278
168.658491,96.989278
168.658491,96.934565
168.658500,96.892890
168.658954,96.735810
168.660658,96.619029
168.664385,96.534788
168.670911,96.475329
168.681008,96.432891
168.695452,96.399716
168.715016,96.368045
168.777949,96.293837
168.867130,96.237180
168.984280,96.205922
169.138653,96.196313
169.143671,96.196323
169.250980,96.201170
169.347028,96.213252
169.412575,96.230191
169.430545,96.238679
169.487740,96.274627
169.539499,96.317352
169.573553,96.355800
169.577635,96.378916
169.569669,96.385164
169.482875,96.451855
169.424839,96.491188
169.386465,96.507057
169.358659,96.503359
169.332327,96.483990
169.283730,96.459809
169.201833,96.443687
169.109273,96.439505
169.025519,96.448015
168.970035,96.469972
168.967116,96.472644
168.942183,96.522836
168.932412,96.597755
168.932412,96.694314
169.162755,96.694407
169.268565,96.696082
169.357632,96.703368
169.421345,96.718357
169.472821,96.743110
169.484800,96.750712
169.571466,96.834282
169.617564,96.944790
169.621460,97.027808
Z" /> 
<path style="fill:#000000; fill-opacity:1.000000; 
stroke:#000000; stroke-width:0.010000; stroke-opacity:1; 
stroke-linecap:round; stroke-linejoin:round;fill-rule:evenodd;"
d="M 170.750255,97.419073
170.619520,97.411547
170.488785,97.404020
170.482569,97.005588
170.480730,96.908704
170.475510,96.763146
170.466550,96.656334
170.452203,96.581087
170.430821,96.530227
170.400759,96.496574
170.360367,96.472947
170.284578,96.448818
170.209207,96.458194
170.129617,96.509763
170.053000,96.574231
170.053000,97.416471
169.779079,97.416471
169.779079,96.959701
169.779342,96.816531
169.780799,96.689309
169.784301,96.596184
169.790697,96.528713
169.800835,96.478454
169.815563,96.436966
169.835729,96.395805
169.840510,96.387066
169.904101,96.301954
169.978527,96.242476
170.068255,96.211245
170.187072,96.197342
170.306059,96.204872
170.402865,96.234267
170.476334,96.272259
170.476334,95.450015
170.375667,95.502486
170.333616,95.521549
170.200886,95.548506
170.068979,95.529874
169.946705,95.467929
169.842872,95.364943
169.826606,95.340738
169.810973,95.305256
169.800776,95.257015
169.794888,95.186757
169.792182,95.085221
169.791696,94.979428
170.054759,94.979428
170.054981,95.067779
170.061735,95.126700
170.076916,95.168752
170.102417,95.206499
170.134811,95.241594
170.186614,95.268154
170.264667,95.274902
170.333618,95.269029
170.401865,95.239641
170.445818,95.180107
170.469350,95.084423
170.476334,94.946582
170.474528,94.873254
170.456501,94.734833
170.419308,94.641233
170.363159,94.593116
170.306449,94.579579
170.207686,94.585925
170.124240,94.625223
170.104268,94.643244
170.083105,94.674422
170.070021,94.720833
170.062251,94.794000
170.057032,94.905448
170.054759,94.979428
169.791696,94.979428
169.791530,94.943149
169.791753,94.878324
169.795570,94.727538
169.806203,94.614896
169.826335,94.531885
169.858653,94.469991
169.905842,94.420700
169.970588,94.375499
170.023091,94.349560
170.147571,94.320953
170.278781,94.324851
170.395402,94.361935
170.445453,94.386176
170.470626,94.388681
170.476334,94.366620
170.476339,94.365952
170.488640,94.343426
170.531065,94.331879
170.613295,94.328628
170.750255,94.328628
170.750255,94.946582
Z" /> 
<path style="fill:#000000; fill-opacity:1.000000; 
stroke:#000000; stroke-width:0.010000; stroke-opacity:1; 
stroke-linecap:round; stroke-linejoin:round;fill-rule:evenodd;"
d="M 166.964634,86.073172
167.077216,86.670363
167.492629,86.841610
167.908043,87.012857
168.406400,86.673978
168.505036,86.607170
168.635797,86.519479
168.749008,86.444580
168.838789,86.386320
168.899261,86.348545
168.924544,86.335098
168.940072,86.344661
168.986487,86.384730
169.056730,86.450487
169.144848,86.535895
169.244889,86.634915
169.350902,86.741509
169.456935,86.849640
169.557035,86.953268
169.645251,87.046358
169.715632,87.122869
169.762225,87.176765
169.779079,87.202007
169.775158,87.212852
169.748012,87.261228
169.698439,87.340842
169.630459,87.445454
169.548091,87.568822
169.455353,87.704706
169.404460,87.778815
169.316912,87.907835
169.241853,88.020434
169.183285,88.110505
169.145209,88.171942
169.131628,88.198640
169.131851,88.200119
169.143831,88.233962
169.171316,88.303071
169.210474,88.398416
169.257474,88.510972
169.308485,88.631710
169.359676,88.751602
169.407215,88.861622
169.447271,88.952740
169.476013,89.015931
169.489610,89.042165
169.497655,89.044492
169.546535,89.054988
169.633652,89.072376
169.752033,89.095295
169.894704,89.122389
170.054692,89.152296
170.139015,89.168153
170.293783,89.198407
170.429104,89.226347
170.537582,89.250369
170.611820,89.268868
170.644422,89.280238
170.650278,89.291511
170.659992,89.346586
170.667624,89.438317
170.673180,89.558073
170.676666,89.697221
170.678087,89.847131
170.677450,89.999172
170.674760,90.144712
170.670024,90.275121
170.663247,90.381766
170.654436,90.456018
170.643595,90.489245
170.637017,90.492993
170.587955,90.509069
170.502847,90.530338
170.391529,90.554472
170.263840,90.579143
170.220757,90.587000
170.021773,90.623542
169.865388,90.652910
169.746183,90.676321
169.658737,90.694994
169.597628,90.710146
169.557435,90.722995
169.532738,90.734758
169.518116,90.746653
169.516416,90.748649
169.492504,90.790271
169.457119,90.866430
169.413692,90.968193
169.365651,91.086624
169.316425,91.212789
169.269445,91.337754
169.228140,91.452584
169.195939,91.548344
169.176271,91.616100
169.172565,91.646917
169.175043,91.650915
169.200689,91.689584
169.248920,91.760907
169.315262,91.858314
169.395245,91.975234
169.484397,92.105098
169.508865,92.140828
169.594903,92.268990
169.669258,92.383608
169.727688,92.477887
169.765947,92.545029
169.779792,92.578235
169.776809,92.586965
169.745711,92.629982
169.684355,92.700230
169.597137,92.792979
169.488449,92.903502
169.362685,93.027071
169.290800,93.096235
169.177139,93.203957
169.077657,93.296225
168.997695,93.368181
168.942595,93.414968
168.917698,93.431727
168.900593,93.425515
168.847929,93.396126
168.771449,93.348063
168.681129,93.287412
168.616911,93.243153
168.488705,93.155261
168.351894,93.061915
168.226932,92.977091
167.982137,92.811515
167.776649,92.922620
167.728263,92.948265
167.640270,92.992130
167.572223,93.022414
167.535856,93.033706
167.523954,93.019205
167.494400,92.963992
167.450748,92.872962
167.395426,92.751892
167.330863,92.606559
167.259489,92.442741
167.183732,92.266213
167.106022,92.082753
167.028786,91.898138
166.954456,91.718146
166.885458,91.548552
166.824223,91.395135
166.773179,91.263670
166.734755,91.159936
166.711380,91.089709
166.705483,91.058766
166.705883,91.057862
166.733349,91.029257
166.790799,90.984457
166.866373,90.932751
166.890227,90.916962
167.071734,90.767174
167.221953,90.588767
167.337327,90.389165
167.414299,90.175797
167.449314,89.956087
167.438813,89.737462
167.396277,89.543011
167.319903,89.346657
167.208565,89.171484
167.055774,89.005082
166.995739,88.951924
166.801658,88.820951
166.591999,88.732744
166.372837,88.686512
166.150247,88.681467
165.930307,88.716820
165.719090,88.791779
165.522673,88.905557
165.347132,89.057363
165.198542,89.246409
165.169974,89.293224
165.072873,89.507204
165.021303,89.730026
165.013914,89.955922
165.049355,90.179119
165.126276,90.393847
165.243326,90.594336
165.399155,90.774814
165.592413,90.929510
165.598689,90.933679
165.673461,90.986370
165.729504,91.031169
165.755100,91.058766
165.751870,91.080402
165.731790,91.143399
165.696184,91.241038
165.647480,91.367542
165.588108,91.517132
165.520494,91.684030
165.447066,91.862457
165.370254,92.046636
165.292484,92.230787
165.216185,92.409133
165.143784,92.575895
165.077710,92.725294
165.020391,92.851554
164.974255,92.948894
164.941730,93.011538
164.925243,93.033706
164.911533,93.030703
164.857670,93.009126
164.778064,92.971293
164.684449,92.922620
164.478962,92.811515
164.234167,92.977091
164.161845,93.026120
164.027326,93.117729
163.893215,93.209485
163.779970,93.287412
163.717470,93.329881
163.636239,93.382644
163.576009,93.418765
163.546591,93.432157
163.533953,93.426471
163.488267,93.391645
163.417838,93.330329
163.328796,93.248554
163.227272,93.152351
163.119394,93.047751
163.011295,92.940786
162.909103,92.837485
162.818950,92.743882
162.746964,92.666006
162.699278,92.609889
162.682020,92.581562
162.683015,92.576172
162.703555,92.532304
162.747434,92.456407
162.810412,92.355336
162.888247,92.235948
162.976701,92.105098
163.001509,92.069005
163.088618,91.942000
163.165347,91.829718
163.227224,91.738730
163.269777,91.675606
163.288534,91.646917
163.288995,91.645687
163.283459,91.610588
163.262320,91.539484
163.229005,91.441310
163.186945,91.325002
163.139570,91.199493
163.090308,91.073718
163.042589,90.956612
162.999842,90.857110
162.965497,90.784145
162.942983,90.746653
162.940728,90.744325
162.924608,90.732549
162.897383,90.720673
162.853633,90.707481
162.787935,90.691754
162.694870,90.672274
162.569016,90.647824
162.404953,90.617186
162.197259,90.579143
162.154181,90.571136
162.030777,90.546384
161.926972,90.522933
161.852601,90.503110
161.817504,90.489245
161.811632,90.477677
161.801842,90.422110
161.794085,90.329990
161.788365,90.209951
161.784689,90.070622
161.783062,89.920635
161.783491,89.768621
161.785982,89.623212
161.790540,89.493037
161.797171,89.386730
161.805881,89.312919
161.816677,89.280238
161.827699,89.275410
161.882531,89.260191
161.975213,89.238666
162.098351,89.212439
162.244548,89.183114
162.406406,89.152296
162.494784,89.135831
162.646259,89.107279
162.776640,89.082277
162.878954,89.062185
162.946228,89.048362
162.971489,89.042165
162.972438,89.040888
162.988526,89.008437
163.019194,88.940452
163.060611,88.845954
163.108941,88.733964
163.160354,88.613500
163.211014,88.493584
163.257089,88.383235
163.294746,88.291473
163.320151,88.227319
163.329471,88.199792
163.325360,88.190106
163.298000,88.144018
163.248370,88.066440
163.180460,87.963461
163.098255,87.841167
163.005746,87.705646
162.954991,87.631429
162.867403,87.501309
162.792306,87.387112
162.733707,87.295066
162.695609,87.231398
162.682020,87.202337
162.691462,87.186573
162.730960,87.139471
162.795758,87.068186
162.879909,86.978760
162.977464,86.877232
163.082474,86.769643
163.188993,86.662034
163.291071,86.560445
163.382760,86.470917
163.458112,86.399489
163.511180,86.352203
163.536014,86.335098
163.549799,86.341749
163.600418,86.372592
163.682105,86.425083
163.788972,86.495375
163.915132,86.579622
164.054698,86.673978
164.553056,87.012857
164.968469,86.841610
165.383883,86.670363
165.496465,86.073172
165.609048,85.475980
166.852051,85.475980
Z" /> 
</g> 
</svg>
