<?xml version="1.0" standalone="no"?>
 <!DOCTYPE svg PUBLIC "-//W3C//DTD SVG 1.1//EN" 
 "http://www.w3.org/Graphics/SVG/1.1/DTD/svg11.dtd"> 
<svg
  xmlns:svg="http://www.w3.org/2000/svg"
  xmlns="http://www.w3.org/2000/svg"
  xmlns:xlink="http://www.w3.org/1999/xlink"
  version="1.1"
  width="6.505cm" height="3.765cm" viewBox="117.975 64.675 65.05 37.65">
<title>SVG Image created as t1-F_Mask.svg date 2024/04/23 15:54:38 </title>
  <desc>Image generated by PCBNEW </desc>
<g style="fill:#000000; fill-opacity:1.000000;stroke:#000000; stroke-opacity:1.000000;
stroke-linecap:round; stroke-linejoin:round;"
 transform="translate(0 0) scale(1 1)">
<path style="fill:#000000; fill-opacity:1.000000; stroke:none;fill-rule:evenodd;"
d="M 131.875400,89.844400
131.974898,89.864191
132.059248,89.920552
132.115609,90.004902
132.135400,90.104400
132.135400,93.184400
132.115609,93.283898
132.059248,93.368248
131.974898,93.424609
131.875400,93.444400
129.795400,93.444400
129.695902,93.424609
129.611552,93.368248
129.555191,93.283898
129.535400,93.184400
129.535400,90.104400
129.555191,90.004902
129.611552,89.920552
129.695902,89.864191
129.795400,89.844400
Z" /> 
<path style="fill:#000000; fill-opacity:1.000000; stroke:none;fill-rule:evenodd;"
d="M 131.875400,96.344400
131.974898,96.364191
132.059248,96.420552
132.115609,96.504902
132.135400,96.604400
132.135400,99.684400
132.115609,99.783898
132.059248,99.868248
131.974898,99.924609
131.875400,99.944400
129.795400,99.944400
129.695902,99.924609
129.611552,99.868248
129.555191,99.783898
129.535400,99.684400
129.535400,96.604400
129.555191,96.504902
129.611552,96.420552
129.695902,96.364191
129.795400,96.344400
Z" /> 
<path style="fill:#000000; fill-opacity:1.000000; stroke:none;fill-rule:evenodd;"
d="M 121.525000,90.418750
121.545457,90.315904
121.603715,90.228715
121.690904,90.170457
121.793750,90.150000
122.331250,90.150000
122.434096,90.170457
122.521285,90.228715
122.579543,90.315904
122.600000,90.418750
122.600000,91.381250
122.579543,91.484096
122.521285,91.571285
122.434096,91.629543
122.331250,91.650000
121.793750,91.650000
121.690904,91.629543
121.603715,91.571285
121.545457,91.484096
121.525000,91.381250
Z" /> 
<path style="fill:#000000; fill-opacity:1.000000; stroke:none;fill-rule:evenodd;"
d="M 123.400000,90.418750
123.420457,90.315904
123.478715,90.228715
123.565904,90.170457
123.668750,90.150000
124.206250,90.150000
124.309096,90.170457
124.396285,90.228715
124.454543,90.315904
124.475000,90.418750
124.475000,91.381250
124.454543,91.484096
124.396285,91.571285
124.309096,91.629543
124.206250,91.650000
123.668750,91.650000
123.565904,91.629543
123.478715,91.571285
123.420457,91.484096
123.400000,91.381250
Z" /> 
<path style="fill:#000000; fill-opacity:1.000000; stroke:none;fill-rule:evenodd;"
d="M 162.741250,73.641000
162.844096,73.661457
162.931285,73.719715
162.989543,73.806904
163.010000,73.909750
163.010000,74.447250
162.989543,74.550096
162.931285,74.637285
162.844096,74.695543
162.741250,74.716000
161.778750,74.716000
161.675904,74.695543
161.588715,74.637285
161.530457,74.550096
161.510000,74.447250
161.510000,73.909750
161.530457,73.806904
161.588715,73.719715
161.675904,73.661457
161.778750,73.641000
Z" /> 
<path style="fill:#000000; fill-opacity:1.000000; stroke:none;fill-rule:evenodd;"
d="M 162.741250,75.516000
162.844096,75.536457
162.931285,75.594715
162.989543,75.681904
163.010000,75.784750
163.010000,76.322250
162.989543,76.425096
162.931285,76.512285
162.844096,76.570543
162.741250,76.591000
161.778750,76.591000
161.675904,76.570543
161.588715,76.512285
161.530457,76.425096
161.510000,76.322250
161.510000,75.784750
161.530457,75.681904
161.588715,75.594715
161.675904,75.536457
161.778750,75.516000
Z" /> 
<path style="fill:#000000; fill-opacity:1.000000; stroke:none;fill-rule:evenodd;"
d="M 156.391250,73.641000
156.494096,73.661457
156.581285,73.719715
156.639543,73.806904
156.660000,73.909750
156.660000,74.447250
156.639543,74.550096
156.581285,74.637285
156.494096,74.695543
156.391250,74.716000
155.428750,74.716000
155.325904,74.695543
155.238715,74.637285
155.180457,74.550096
155.160000,74.447250
155.160000,73.909750
155.180457,73.806904
155.238715,73.719715
155.325904,73.661457
155.428750,73.641000
Z" /> 
<path style="fill:#000000; fill-opacity:1.000000; stroke:none;fill-rule:evenodd;"
d="M 156.391250,75.516000
156.494096,75.536457
156.581285,75.594715
156.639543,75.681904
156.660000,75.784750
156.660000,76.322250
156.639543,76.425096
156.581285,76.512285
156.494096,76.570543
156.391250,76.591000
155.428750,76.591000
155.325904,76.570543
155.238715,76.512285
155.180457,76.425096
155.160000,76.322250
155.160000,75.784750
155.180457,75.681904
155.238715,75.594715
155.325904,75.536457
155.428750,75.516000
Z" /> 
<path style="fill:#000000; fill-opacity:1.000000; stroke:none;fill-rule:evenodd;"
d="M 163.803250,87.679000
163.906096,87.699457
163.993285,87.757715
164.051543,87.844904
164.072000,87.947750
164.072000,88.485250
164.051543,88.588096
163.993285,88.675285
163.906096,88.733543
163.803250,88.754000
162.840750,88.754000
162.737904,88.733543
162.650715,88.675285
162.592457,88.588096
162.572000,88.485250
162.572000,87.947750
162.592457,87.844904
162.650715,87.757715
162.737904,87.699457
162.840750,87.679000
Z" /> 
<path style="fill:#000000; fill-opacity:1.000000; stroke:none;fill-rule:evenodd;"
d="M 163.803250,89.554000
163.906096,89.574457
163.993285,89.632715
164.051543,89.719904
164.072000,89.822750
164.072000,90.360250
164.051543,90.463096
163.993285,90.550285
163.906096,90.608543
163.803250,90.629000
162.840750,90.629000
162.737904,90.608543
162.650715,90.550285
162.592457,90.463096
162.572000,90.360250
162.572000,89.822750
162.592457,89.719904
162.650715,89.632715
162.737904,89.574457
162.840750,89.554000
Z" /> 
<path style="fill:#000000; fill-opacity:1.000000; stroke:none;fill-rule:evenodd;"
d="M 152.499800,78.385750
152.520257,78.282904
152.578515,78.195715
152.665704,78.137457
152.768550,78.117000
153.306050,78.117000
153.408896,78.137457
153.496085,78.195715
153.554343,78.282904
153.574800,78.385750
153.574800,79.348250
153.554343,79.451096
153.496085,79.538285
153.408896,79.596543
153.306050,79.617000
152.768550,79.617000
152.665704,79.596543
152.578515,79.538285
152.520257,79.451096
152.499800,79.348250
Z" /> 
<path style="fill:#000000; fill-opacity:1.000000; stroke:none;fill-rule:evenodd;"
d="M 154.374800,78.385750
154.395257,78.282904
154.453515,78.195715
154.540704,78.137457
154.643550,78.117000
155.181050,78.117000
155.283896,78.137457
155.371085,78.195715
155.429343,78.282904
155.449800,78.385750
155.449800,79.348250
155.429343,79.451096
155.371085,79.538285
155.283896,79.596543
155.181050,79.617000
154.643550,79.617000
154.540704,79.596543
154.453515,79.538285
154.395257,79.451096
154.374800,79.348250
Z" /> 
<path style="fill:#000000; fill-opacity:1.000000; stroke:none;fill-rule:evenodd;"
d="M 144.273350,80.443600
144.170504,80.423143
144.083315,80.364885
144.025057,80.277696
144.004600,80.174850
144.004600,79.637350
144.025057,79.534504
144.083315,79.447315
144.170504,79.389057
144.273350,79.368600
145.235850,79.368600
145.338696,79.389057
145.425885,79.447315
145.484143,79.534504
145.504600,79.637350
145.504600,80.174850
145.484143,80.277696
145.425885,80.364885
145.338696,80.423143
145.235850,80.443600
Z" /> 
<path style="fill:#000000; fill-opacity:1.000000; stroke:none;fill-rule:evenodd;"
d="M 144.273350,78.568600
144.170504,78.548143
144.083315,78.489885
144.025057,78.402696
144.004600,78.299850
144.004600,77.762350
144.025057,77.659504
144.083315,77.572315
144.170504,77.514057
144.273350,77.493600
145.235850,77.493600
145.338696,77.514057
145.425885,77.572315
145.484143,77.659504
145.504600,77.762350
145.504600,78.299850
145.484143,78.402696
145.425885,78.489885
145.338696,78.548143
145.235850,78.568600
Z" /> 
<path style="fill:#000000; fill-opacity:1.000000; stroke:none;fill-rule:evenodd;"
d="M 162.159000,98.849000
162.055675,98.828447
161.968081,98.769919
161.909553,98.682325
161.889000,98.579000
161.889000,97.769000
161.909553,97.665675
161.968081,97.578081
162.055675,97.519553
162.159000,97.499000
163.469000,97.499000
163.572325,97.519553
163.659919,97.578081
163.718447,97.665675
163.739000,97.769000
163.739000,98.579000
163.718447,98.682325
163.659919,98.769919
163.572325,98.828447
163.469000,98.849000
Z" /> 
<path style="fill:#000000; fill-opacity:1.000000; stroke:none;fill-rule:evenodd;"
d="M 162.159000,96.049000
162.055675,96.028447
161.968081,95.969919
161.909553,95.882325
161.889000,95.779000
161.889000,94.969000
161.909553,94.865675
161.968081,94.778081
162.055675,94.719553
162.159000,94.699000
163.469000,94.699000
163.572325,94.719553
163.659919,94.778081
163.718447,94.865675
163.739000,94.969000
163.739000,95.779000
163.718447,95.882325
163.659919,95.969919
163.572325,96.028447
163.469000,96.049000
Z" /> 
<path style="fill:#000000; fill-opacity:1.000000; stroke:none;fill-rule:evenodd;"
d="M 146.838750,76.425000
146.735904,76.404543
146.648715,76.346285
146.590457,76.259096
146.570000,76.156250
146.570000,75.618750
146.590457,75.515904
146.648715,75.428715
146.735904,75.370457
146.838750,75.350000
147.801250,75.350000
147.904096,75.370457
147.991285,75.428715
148.049543,75.515904
148.070000,75.618750
148.070000,76.156250
148.049543,76.259096
147.991285,76.346285
147.904096,76.404543
147.801250,76.425000
Z" /> 
<path style="fill:#000000; fill-opacity:1.000000; stroke:none;fill-rule:evenodd;"
d="M 146.838750,74.550000
146.735904,74.529543
146.648715,74.471285
146.590457,74.384096
146.570000,74.281250
146.570000,73.743750
146.590457,73.640904
146.648715,73.553715
146.735904,73.495457
146.838750,73.475000
147.801250,73.475000
147.904096,73.495457
147.991285,73.553715
148.049543,73.640904
148.070000,73.743750
148.070000,74.281250
148.049543,74.384096
147.991285,74.471285
147.904096,74.529543
147.801250,74.550000
Z" /> 
<path style="fill:#000000; fill-opacity:1.000000; stroke:none;fill-rule:evenodd;"
d="M 144.298750,76.425000
144.195904,76.404543
144.108715,76.346285
144.050457,76.259096
144.030000,76.156250
144.030000,75.618750
144.050457,75.515904
144.108715,75.428715
144.195904,75.370457
144.298750,75.350000
145.261250,75.350000
145.364096,75.370457
145.451285,75.428715
145.509543,75.515904
145.530000,75.618750
145.530000,76.156250
145.509543,76.259096
145.451285,76.346285
145.364096,76.404543
145.261250,76.425000
Z" /> 
<path style="fill:#000000; fill-opacity:1.000000; stroke:none;fill-rule:evenodd;"
d="M 144.298750,74.550000
144.195904,74.529543
144.108715,74.471285
144.050457,74.384096
144.030000,74.281250
144.030000,73.743750
144.050457,73.640904
144.108715,73.553715
144.195904,73.495457
144.298750,73.475000
145.261250,73.475000
145.364096,73.495457
145.451285,73.553715
145.509543,73.640904
145.530000,73.743750
145.530000,74.281250
145.509543,74.384096
145.451285,74.471285
145.364096,74.529543
145.261250,74.550000
Z" /> 
<path style="fill:#000000; fill-opacity:1.000000; stroke:none;fill-rule:evenodd;"
d="M 165.144000,75.738222
165.164722,75.634047
165.223732,75.545732
165.312047,75.486722
165.416222,75.466000
166.096778,75.466000
166.200953,75.486722
166.289268,75.545732
166.348278,75.634047
166.369000,75.738222
166.369000,78.693778
166.348278,78.797953
166.289268,78.886268
166.200953,78.945278
166.096778,78.966000
165.416222,78.966000
165.312047,78.945278
165.223732,78.886268
165.164722,78.797953
165.144000,78.693778
Z" /> 
<path style="fill:#000000; fill-opacity:1.000000; stroke:none;fill-rule:evenodd;"
d="M 169.419000,75.738222
169.439722,75.634047
169.498732,75.545732
169.587047,75.486722
169.691222,75.466000
170.371778,75.466000
170.475953,75.486722
170.564268,75.545732
170.623278,75.634047
170.644000,75.738222
170.644000,78.693778
170.623278,78.797953
170.564268,78.886268
170.475953,78.945278
170.371778,78.966000
169.691222,78.966000
169.587047,78.945278
169.498732,78.886268
169.439722,78.797953
169.419000,78.693778
Z" /> 
<path style="fill:#000000; fill-opacity:1.000000; stroke:none;fill-rule:evenodd;"
d="M 169.369000,91.159250
169.348543,91.262096
169.290285,91.349285
169.203096,91.407543
169.100250,91.428000
168.562750,91.428000
168.459904,91.407543
168.372715,91.349285
168.314457,91.262096
168.294000,91.159250
168.294000,90.196750
168.314457,90.093904
168.372715,90.006715
168.459904,89.948457
168.562750,89.928000
169.100250,89.928000
169.203096,89.948457
169.290285,90.006715
169.348543,90.093904
169.369000,90.196750
Z" /> 
<path style="fill:#000000; fill-opacity:1.000000; stroke:none;fill-rule:evenodd;"
d="M 167.494000,91.159250
167.473543,91.262096
167.415285,91.349285
167.328096,91.407543
167.225250,91.428000
166.687750,91.428000
166.584904,91.407543
166.497715,91.349285
166.439457,91.262096
166.419000,91.159250
166.419000,90.196750
166.439457,90.093904
166.497715,90.006715
166.584904,89.948457
166.687750,89.928000
167.225250,89.928000
167.328096,89.948457
167.415285,90.006715
167.473543,90.093904
167.494000,90.196750
Z" /> 
</g>
<g style="fill:#000000; fill-opacity:1.000000; stroke:none;">
<circle cx="169.418000" cy="70.612000" r="0.750000" /> 
</g>
<g style="fill:#000000; fill-opacity:1.000000; stroke:none;">
<circle cx="171.704000" cy="97.282000" r="0.750000" /> 
</g>
<g style="fill:#000000; fill-opacity:1.000000; stroke:none;">
<circle cx="129.997200" cy="70.078600" r="0.750000" /> 
</g>
<g style="fill:#000000; fill-opacity:1.000000; stroke:none;">
<circle cx="137.210800" cy="98.171000" r="0.750000" /> 
</g>
<g style="fill:#000000; fill-opacity:1.000000; stroke:none;">
<circle cx="177.000000" cy="97.000000" r="1.400000" /> 
</g>
<g style="fill:#000000; fill-opacity:1.000000; stroke:none;">
<circle cx="123.000000" cy="97.000000" r="1.400000" /> 
</g>
<g style="fill:#000000; fill-opacity:1.000000; stroke:none;">
<circle cx="123.000000" cy="69.500000" r="1.400000" /> 
</g>
<g style="fill:#000000; fill-opacity:1.000000; stroke:none;">
<circle cx="177.000000" cy="69.500000" r="1.400000" /> 
</g>
<g style="fill:none; 
stroke:#000000; stroke-width:1.600000; stroke-opacity:1; 
stroke-linecap:round; stroke-linejoin:round;">
<path d="M123.200000 81.450000
L123.200000 80.950000
" />
</g>
<g style="fill:#000000; fill-opacity:1.000000; stroke:none;">
<circle cx="127.600000" cy="81.200000" r="1.050000" /> 
<path style="fill:#000000; fill-opacity:1.000000; stroke:none;fill-rule:evenodd;"
d="M 122.100000,77.250000
122.080866,77.246194
122.064645,77.235355
122.053806,77.219134
122.050000,77.200000
122.050000,74.200000
122.053806,74.180866
122.064645,74.164645
122.080866,74.153806
122.100000,74.150000
124.100000,74.150000
124.119134,74.153806
124.135355,74.164645
124.146194,74.180866
124.150000,74.200000
124.150000,77.200000
124.146194,77.219134
124.135355,77.235355
124.119134,77.246194
124.100000,77.250000
Z" /> 
<path style="fill:#000000; fill-opacity:1.000000; stroke:none;fill-rule:evenodd;"
d="M 128.100000,77.250000
128.080866,77.246194
128.064645,77.235355
128.053806,77.219134
128.050000,77.200000
128.050000,74.200000
128.053806,74.180866
128.064645,74.164645
128.080866,74.153806
128.100000,74.150000
130.100000,74.150000
130.119134,74.153806
130.135355,74.164645
130.146194,74.180866
130.150000,74.200000
130.150000,77.200000
130.146194,77.219134
130.135355,77.235355
130.119134,77.246194
130.100000,77.250000
Z" /> 
<path style="fill:#000000; fill-opacity:1.000000; stroke:none;fill-rule:evenodd;"
d="M 128.100000,88.250000
128.080866,88.246194
128.064645,88.235355
128.053806,88.219134
128.050000,88.200000
128.050000,85.200000
128.053806,85.180866
128.064645,85.164645
128.080866,85.153806
128.100000,85.150000
130.100000,85.150000
130.119134,85.153806
130.135355,85.164645
130.146194,85.180866
130.150000,85.200000
130.150000,88.200000
130.146194,88.219134
130.135355,88.235355
130.119134,88.246194
130.100000,88.250000
Z" /> 
<path style="fill:#000000; fill-opacity:1.000000; stroke:none;fill-rule:evenodd;"
d="M 122.100000,88.250000
122.080866,88.246194
122.064645,88.235355
122.053806,88.219134
122.050000,88.200000
122.050000,85.200000
122.053806,85.180866
122.064645,85.164645
122.080866,85.153806
122.100000,85.150000
124.100000,85.150000
124.119134,85.153806
124.135355,85.164645
124.146194,85.180866
124.150000,85.200000
124.150000,88.200000
124.146194,88.219134
124.135355,88.235355
124.119134,88.246194
124.100000,88.250000
Z" /> 
<path style="fill:#000000; fill-opacity:1.000000; stroke:none;fill-rule:evenodd;"
d="M 137.200000,80.350000
137.196194,80.369134
137.185355,80.385355
137.169134,80.396194
137.150000,80.400000
135.450000,80.400000
135.430866,80.396194
135.414645,80.385355
135.403806,80.369134
135.400000,80.350000
135.400000,78.650000
135.403806,78.630866
135.414645,78.614645
135.430866,78.603806
135.450000,78.600000
137.150000,78.600000
137.169134,78.603806
137.185355,78.614645
137.196194,78.630866
137.200000,78.650000
Z" /> 
</g>
<g style="fill:#000000; fill-opacity:1.000000; stroke:none;">
<circle cx="136.300000" cy="76.960000" r="0.900000" /> 
<circle cx="136.300000" cy="74.420000" r="0.900000" /> 
<circle cx="136.300000" cy="71.880000" r="0.900000" /> 
<circle cx="136.300000" cy="69.340000" r="0.900000" /> 
<path style="fill:#000000; fill-opacity:1.000000; stroke:none;fill-rule:evenodd;"
d="M 150.992000,94.400000
150.995806,94.380866
151.006645,94.364645
151.022866,94.353806
151.042000,94.350000
152.742000,94.350000
152.761134,94.353806
152.777355,94.364645
152.788194,94.380866
152.792000,94.400000
152.792000,96.100000
152.788194,96.119134
152.777355,96.135355
152.761134,96.146194
152.742000,96.150000
151.042000,96.150000
151.022866,96.146194
151.006645,96.135355
150.995806,96.119134
150.992000,96.100000
Z" /> 
<circle cx="154.432000" cy="95.250000" r="0.900000" /> 
<circle cx="151.892000" cy="97.790000" r="0.900000" /> 
<circle cx="154.432000" cy="97.790000" r="0.900000" /> 
<path style="fill:#000000; fill-opacity:1.000000; stroke:none;fill-rule:evenodd;"
d="M 140.272400,98.664600
140.253266,98.660794
140.237045,98.649955
140.226206,98.633734
140.222400,98.614600
140.222400,96.914600
140.226206,96.895466
140.237045,96.879245
140.253266,96.868406
140.272400,96.864600
141.972400,96.864600
141.991534,96.868406
142.007755,96.879245
142.018594,96.895466
142.022400,96.914600
142.022400,98.614600
142.018594,98.633734
142.007755,98.649955
141.991534,98.660794
141.972400,98.664600
Z" /> 
<circle cx="141.122400" cy="95.224600" r="0.900000" /> 
<circle cx="143.662400" cy="97.764600" r="0.900000" /> 
<circle cx="143.662400" cy="95.224600" r="0.900000" /> 
<circle cx="146.202400" cy="97.764600" r="0.900000" /> 
<circle cx="146.202400" cy="95.224600" r="0.900000" /> 
<path style="fill:#000000; fill-opacity:1.000000; stroke:none;fill-rule:evenodd;"
d="M 140.070000,76.366000
140.073806,76.346866
140.084645,76.330645
140.100866,76.319806
140.120000,76.316000
141.820000,76.316000
141.839134,76.319806
141.855355,76.330645
141.866194,76.346866
141.870000,76.366000
141.870000,78.066000
141.866194,78.085134
141.855355,78.101355
141.839134,78.112194
141.820000,78.116000
140.120000,78.116000
140.100866,78.112194
140.084645,78.101355
140.073806,78.085134
140.070000,78.066000
Z" /> 
<circle cx="140.970000" cy="79.756000" r="0.900000" /> 
<circle cx="140.970000" cy="82.296000" r="0.900000" /> 
<circle cx="140.970000" cy="84.836000" r="0.900000" /> 
<circle cx="140.970000" cy="87.376000" r="0.900000" /> 
<circle cx="140.970000" cy="89.916000" r="0.900000" /> 
<path style="fill:#000000; fill-opacity:1.000000; stroke:none;fill-rule:evenodd;"
d="M 168.044355,95.668755
168.009000,95.683400
166.509000,95.683400
166.473645,95.668755
166.459000,95.633400
166.459000,95.133400
166.464089,95.121114
166.464089,95.062243
166.466114,95.048156
166.506209,94.911605
166.512121,94.898660
166.589062,94.778938
166.598382,94.768183
166.705937,94.674986
166.717909,94.667291
166.847363,94.608172
166.861018,94.604163
167.001884,94.583909
167.009000,94.583400
167.509000,94.583400
167.516116,94.583909
167.656982,94.604163
167.670637,94.608172
167.800091,94.667291
167.812063,94.674986
167.919618,94.768183
167.928938,94.778938
168.005879,94.898660
168.011791,94.911605
168.051886,95.048156
168.053911,95.062243
168.053911,95.121114
168.059000,95.133400
168.059000,95.633400
Z" /> 
<path style="fill:#000000; fill-opacity:1.000000; stroke:none;fill-rule:evenodd;"
d="M 168.053911,96.445686
168.053911,96.504557
168.051886,96.518644
168.011791,96.655195
168.005879,96.668140
167.928938,96.787862
167.919618,96.798617
167.812063,96.891814
167.800091,96.899509
167.670637,96.958628
167.656982,96.962637
167.516116,96.982891
167.509000,96.983400
167.009000,96.983400
167.001884,96.982891
166.861018,96.962637
166.847363,96.958628
166.717909,96.899509
166.705937,96.891814
166.598382,96.798617
166.589062,96.787862
166.512121,96.668140
166.506209,96.655195
166.466114,96.518644
166.464089,96.504557
166.464089,96.445686
166.459000,96.433400
166.459000,95.933400
166.473645,95.898045
166.509000,95.883400
168.009000,95.883400
168.044355,95.898045
168.059000,95.933400
168.059000,96.433400
Z" /> 
<path style="fill:#000000; fill-opacity:1.000000; stroke:none;fill-rule:evenodd;"
d="M 164.895000,85.624750
164.915457,85.521904
164.973715,85.434715
165.060904,85.376457
165.163750,85.356000
165.701250,85.356000
165.804096,85.376457
165.891285,85.434715
165.949543,85.521904
165.970000,85.624750
165.970000,86.587250
165.949543,86.690096
165.891285,86.777285
165.804096,86.835543
165.701250,86.856000
165.163750,86.856000
165.060904,86.835543
164.973715,86.777285
164.915457,86.690096
164.895000,86.587250
Z" /> 
<path style="fill:#000000; fill-opacity:1.000000; stroke:none;fill-rule:evenodd;"
d="M 166.770000,85.624750
166.790457,85.521904
166.848715,85.434715
166.935904,85.376457
167.038750,85.356000
167.576250,85.356000
167.679096,85.376457
167.766285,85.434715
167.824543,85.521904
167.845000,85.624750
167.845000,86.587250
167.824543,86.690096
167.766285,86.777285
167.679096,86.835543
167.576250,86.856000
167.038750,86.856000
166.935904,86.835543
166.848715,86.777285
166.790457,86.690096
166.770000,86.587250
Z" /> 
<path style="fill:#000000; fill-opacity:1.000000; stroke:none;fill-rule:evenodd;"
d="M 164.895000,83.338750
164.915457,83.235904
164.973715,83.148715
165.060904,83.090457
165.163750,83.070000
165.701250,83.070000
165.804096,83.090457
165.891285,83.148715
165.949543,83.235904
165.970000,83.338750
165.970000,84.301250
165.949543,84.404096
165.891285,84.491285
165.804096,84.549543
165.701250,84.570000
165.163750,84.570000
165.060904,84.549543
164.973715,84.491285
164.915457,84.404096
164.895000,84.301250
Z" /> 
<path style="fill:#000000; fill-opacity:1.000000; stroke:none;fill-rule:evenodd;"
d="M 166.770000,83.338750
166.790457,83.235904
166.848715,83.148715
166.935904,83.090457
167.038750,83.070000
167.576250,83.070000
167.679096,83.090457
167.766285,83.148715
167.824543,83.235904
167.845000,83.338750
167.845000,84.301250
167.824543,84.404096
167.766285,84.491285
167.679096,84.549543
167.576250,84.570000
167.038750,84.570000
166.935904,84.549543
166.848715,84.491285
166.790457,84.404096
166.770000,84.301250
Z" /> 
<path style="fill:#000000; fill-opacity:1.000000; stroke:none;fill-rule:evenodd;"
d="M 160.433000,76.359250
160.412543,76.462096
160.354285,76.549285
160.267096,76.607543
160.164250,76.628000
159.626750,76.628000
159.523904,76.607543
159.436715,76.549285
159.378457,76.462096
159.358000,76.359250
159.358000,75.396750
159.378457,75.293904
159.436715,75.206715
159.523904,75.148457
159.626750,75.128000
160.164250,75.128000
160.267096,75.148457
160.354285,75.206715
160.412543,75.293904
160.433000,75.396750
Z" /> 
<path style="fill:#000000; fill-opacity:1.000000; stroke:none;fill-rule:evenodd;"
d="M 158.558000,76.359250
158.537543,76.462096
158.479285,76.549285
158.392096,76.607543
158.289250,76.628000
157.751750,76.628000
157.648904,76.607543
157.561715,76.549285
157.503457,76.462096
157.483000,76.359250
157.483000,75.396750
157.503457,75.293904
157.561715,75.206715
157.648904,75.148457
157.751750,75.128000
158.289250,75.128000
158.392096,75.148457
158.479285,75.206715
158.537543,75.293904
158.558000,75.396750
Z" /> 
<path style="fill:#000000; fill-opacity:1.000000; stroke:none;fill-rule:evenodd;"
d="M 158.522750,97.233000
158.419904,97.212543
158.332715,97.154285
158.274457,97.067096
158.254000,96.964250
158.254000,96.426750
158.274457,96.323904
158.332715,96.236715
158.419904,96.178457
158.522750,96.158000
159.485250,96.158000
159.588096,96.178457
159.675285,96.236715
159.733543,96.323904
159.754000,96.426750
159.754000,96.964250
159.733543,97.067096
159.675285,97.154285
159.588096,97.212543
159.485250,97.233000
Z" /> 
<path style="fill:#000000; fill-opacity:1.000000; stroke:none;fill-rule:evenodd;"
d="M 158.522750,95.358000
158.419904,95.337543
158.332715,95.279285
158.274457,95.192096
158.254000,95.089250
158.254000,94.551750
158.274457,94.448904
158.332715,94.361715
158.419904,94.303457
158.522750,94.283000
159.485250,94.283000
159.588096,94.303457
159.675285,94.361715
159.733543,94.448904
159.754000,94.551750
159.754000,95.089250
159.733543,95.192096
159.675285,95.279285
159.588096,95.337543
159.485250,95.358000
Z" /> 
<path style="fill:#000000; fill-opacity:1.000000; stroke:none;fill-rule:evenodd;"
d="M 145.235850,81.329000
145.338696,81.349457
145.425885,81.407715
145.484143,81.494904
145.504600,81.597750
145.504600,82.135250
145.484143,82.238096
145.425885,82.325285
145.338696,82.383543
145.235850,82.404000
144.273350,82.404000
144.170504,82.383543
144.083315,82.325285
144.025057,82.238096
144.004600,82.135250
144.004600,81.597750
144.025057,81.494904
144.083315,81.407715
144.170504,81.349457
144.273350,81.329000
Z" /> 
<path style="fill:#000000; fill-opacity:1.000000; stroke:none;fill-rule:evenodd;"
d="M 145.235850,83.204000
145.338696,83.224457
145.425885,83.282715
145.484143,83.369904
145.504600,83.472750
145.504600,84.010250
145.484143,84.113096
145.425885,84.200285
145.338696,84.258543
145.235850,84.279000
144.273350,84.279000
144.170504,84.258543
144.083315,84.200285
144.025057,84.113096
144.004600,84.010250
144.004600,83.472750
144.025057,83.369904
144.083315,83.282715
144.170504,83.224457
144.273350,83.204000
Z" /> 
<path style="fill:#000000; fill-opacity:1.000000; stroke:none;fill-rule:evenodd;"
d="M 147.801250,68.699800
147.904096,68.720257
147.991285,68.778515
148.049543,68.865704
148.070000,68.968550
148.070000,69.506050
148.049543,69.608896
147.991285,69.696085
147.904096,69.754343
147.801250,69.774800
146.838750,69.774800
146.735904,69.754343
146.648715,69.696085
146.590457,69.608896
146.570000,69.506050
146.570000,68.968550
146.590457,68.865704
146.648715,68.778515
146.735904,68.720257
146.838750,68.699800
Z" /> 
<path style="fill:#000000; fill-opacity:1.000000; stroke:none;fill-rule:evenodd;"
d="M 147.801250,70.574800
147.904096,70.595257
147.991285,70.653515
148.049543,70.740704
148.070000,70.843550
148.070000,71.381050
148.049543,71.483896
147.991285,71.571085
147.904096,71.629343
147.801250,71.649800
146.838750,71.649800
146.735904,71.629343
146.648715,71.571085
146.590457,71.483896
146.570000,71.381050
146.570000,70.843550
146.590457,70.740704
146.648715,70.653515
146.735904,70.595257
146.838750,70.574800
Z" /> 
<path style="fill:#000000; fill-opacity:1.000000; stroke:none;fill-rule:evenodd;"
d="M 145.261250,68.699800
145.364096,68.720257
145.451285,68.778515
145.509543,68.865704
145.530000,68.968550
145.530000,69.506050
145.509543,69.608896
145.451285,69.696085
145.364096,69.754343
145.261250,69.774800
144.298750,69.774800
144.195904,69.754343
144.108715,69.696085
144.050457,69.608896
144.030000,69.506050
144.030000,68.968550
144.050457,68.865704
144.108715,68.778515
144.195904,68.720257
144.298750,68.699800
Z" /> 
<path style="fill:#000000; fill-opacity:1.000000; stroke:none;fill-rule:evenodd;"
d="M 145.261250,70.574800
145.364096,70.595257
145.451285,70.653515
145.509543,70.740704
145.530000,70.843550
145.530000,71.381050
145.509543,71.483896
145.451285,71.571085
145.364096,71.629343
145.261250,71.649800
144.298750,71.649800
144.195904,71.629343
144.108715,71.571085
144.050457,71.483896
144.030000,71.381050
144.030000,70.843550
144.050457,70.740704
144.108715,70.653515
144.195904,70.595257
144.298750,70.574800
Z" /> 
<path style="fill:#000000; fill-opacity:1.000000; stroke:none;fill-rule:evenodd;"
d="M 170.715250,86.075500
170.808529,86.094054
170.887607,86.146893
170.940446,86.225971
170.959000,86.319250
170.959000,86.806750
170.940446,86.900029
170.887607,86.979107
170.808529,87.031946
170.715250,87.050500
170.152750,87.050500
170.059471,87.031946
169.980393,86.979107
169.927554,86.900029
169.909000,86.806750
169.909000,86.319250
169.927554,86.225971
169.980393,86.146893
170.059471,86.094054
170.152750,86.075500
Z" /> 
<path style="fill:#000000; fill-opacity:1.000000; stroke:none;fill-rule:evenodd;"
d="M 170.715250,87.650500
170.808529,87.669054
170.887607,87.721893
170.940446,87.800971
170.959000,87.894250
170.959000,88.381750
170.940446,88.475029
170.887607,88.554107
170.808529,88.606946
170.715250,88.625500
170.152750,88.625500
170.059471,88.606946
169.980393,88.554107
169.927554,88.475029
169.909000,88.381750
169.909000,87.894250
169.927554,87.800971
169.980393,87.721893
170.059471,87.669054
170.152750,87.650500
Z" /> 
<path style="fill:#000000; fill-opacity:1.000000; stroke:none;fill-rule:evenodd;"
d="M 161.977800,71.227800
161.973994,71.246934
161.963155,71.263155
161.946934,71.273994
161.927800,71.277800
160.027800,71.277800
160.008666,71.273994
159.992445,71.263155
159.981606,71.246934
159.977800,71.227800
159.977800,68.827800
159.981606,68.808666
159.992445,68.792445
160.008666,68.781606
160.027800,68.777800
161.927800,68.777800
161.946934,68.781606
161.963155,68.792445
161.973994,68.808666
161.977800,68.827800
Z" /> 
<path style="fill:#000000; fill-opacity:1.000000; stroke:none;fill-rule:evenodd;"
d="M 157.877800,71.227800
157.873994,71.246934
157.863155,71.263155
157.846934,71.273994
157.827800,71.277800
155.927800,71.277800
155.908666,71.273994
155.892445,71.263155
155.881606,71.246934
155.877800,71.227800
155.877800,68.827800
155.881606,68.808666
155.892445,68.792445
155.908666,68.781606
155.927800,68.777800
157.827800,68.777800
157.846934,68.781606
157.863155,68.792445
157.873994,68.808666
157.877800,68.827800
Z" /> 
<path style="fill:#000000; fill-opacity:1.000000; stroke:none;fill-rule:evenodd;"
d="M 172.682000,82.384000
172.662866,82.380194
172.646645,82.369355
172.635806,82.353134
172.632000,82.334000
172.632000,80.734000
172.635806,80.714866
172.646645,80.698645
172.662866,80.687806
172.682000,80.684000
174.282000,80.684000
174.301134,80.687806
174.317355,80.698645
174.328194,80.714866
174.332000,80.734000
174.332000,82.334000
174.328194,82.353134
174.317355,82.369355
174.301134,82.380194
174.282000,82.384000
Z" /> 
<circle cx="173.482000" cy="84.034000" r="0.850000" /> 
</g>
<g style="fill:#000000; fill-opacity:1.000000; stroke:none;">
<circle cx="175.482000" cy="84.034000" r="0.850000" /> 
</g>
<g style="fill:#000000; fill-opacity:1.000000; stroke:none;">
<circle cx="175.482000" cy="81.534000" r="0.850000" /> 
</g>
<g style="fill:#000000; fill-opacity:1.000000; stroke:none;">
<circle cx="178.342000" cy="76.784000" r="2.050000" /> 
</g>
<g style="fill:#000000; fill-opacity:1.000000; stroke:none;">
<circle cx="178.342000" cy="88.784000" r="2.050000" /> 
<path style="fill:#000000; fill-opacity:1.000000; stroke:none;fill-rule:evenodd;"
d="M 157.507000,80.752000
157.526134,80.755806
157.542355,80.766645
157.553194,80.782866
157.557000,80.802000
157.557000,82.402000
157.553194,82.421134
157.542355,82.437355
157.526134,82.448194
157.507000,82.452000
156.957000,82.452000
156.937866,82.448194
156.921645,82.437355
156.910806,82.421134
156.907000,82.402000
156.907000,80.802000
156.910806,80.782866
156.921645,80.766645
156.937866,80.755806
156.957000,80.752000
Z" /> 
<path style="fill:#000000; fill-opacity:1.000000; stroke:none;fill-rule:evenodd;"
d="M 156.707000,80.752000
156.726134,80.755806
156.742355,80.766645
156.753194,80.782866
156.757000,80.802000
156.757000,82.402000
156.753194,82.421134
156.742355,82.437355
156.726134,82.448194
156.707000,82.452000
156.157000,82.452000
156.137866,82.448194
156.121645,82.437355
156.110806,82.421134
156.107000,82.402000
156.107000,80.802000
156.110806,80.782866
156.121645,80.766645
156.137866,80.755806
156.157000,80.752000
Z" /> 
<path style="fill:#000000; fill-opacity:1.000000; stroke:none;fill-rule:evenodd;"
d="M 155.907000,80.752000
155.926134,80.755806
155.942355,80.766645
155.953194,80.782866
155.957000,80.802000
155.957000,82.402000
155.953194,82.421134
155.942355,82.437355
155.926134,82.448194
155.907000,82.452000
155.357000,82.452000
155.337866,82.448194
155.321645,82.437355
155.310806,82.421134
155.307000,82.402000
155.307000,80.802000
155.310806,80.782866
155.321645,80.766645
155.337866,80.755806
155.357000,80.752000
Z" /> 
<path style="fill:#000000; fill-opacity:1.000000; stroke:none;fill-rule:evenodd;"
d="M 155.107000,80.752000
155.126134,80.755806
155.142355,80.766645
155.153194,80.782866
155.157000,80.802000
155.157000,82.402000
155.153194,82.421134
155.142355,82.437355
155.126134,82.448194
155.107000,82.452000
154.557000,82.452000
154.537866,82.448194
154.521645,82.437355
154.510806,82.421134
154.507000,82.402000
154.507000,80.802000
154.510806,80.782866
154.521645,80.766645
154.537866,80.755806
154.557000,80.752000
Z" /> 
<path style="fill:#000000; fill-opacity:1.000000; stroke:none;fill-rule:evenodd;"
d="M 154.307000,80.752000
154.326134,80.755806
154.342355,80.766645
154.353194,80.782866
154.357000,80.802000
154.357000,82.402000
154.353194,82.421134
154.342355,82.437355
154.326134,82.448194
154.307000,82.452000
153.757000,82.452000
153.737866,82.448194
153.721645,82.437355
153.710806,82.421134
153.707000,82.402000
153.707000,80.802000
153.710806,80.782866
153.721645,80.766645
153.737866,80.755806
153.757000,80.752000
Z" /> 
<path style="fill:#000000; fill-opacity:1.000000; stroke:none;fill-rule:evenodd;"
d="M 153.507000,80.752000
153.526134,80.755806
153.542355,80.766645
153.553194,80.782866
153.557000,80.802000
153.557000,82.402000
153.553194,82.421134
153.542355,82.437355
153.526134,82.448194
153.507000,82.452000
152.957000,82.452000
152.937866,82.448194
152.921645,82.437355
152.910806,82.421134
152.907000,82.402000
152.907000,80.802000
152.910806,80.782866
152.921645,80.766645
152.937866,80.755806
152.957000,80.752000
Z" /> 
<path style="fill:#000000; fill-opacity:1.000000; stroke:none;fill-rule:evenodd;"
d="M 152.707000,80.752000
152.726134,80.755806
152.742355,80.766645
152.753194,80.782866
152.757000,80.802000
152.757000,82.402000
152.753194,82.421134
152.742355,82.437355
152.726134,82.448194
152.707000,82.452000
152.157000,82.452000
152.137866,82.448194
152.121645,82.437355
152.110806,82.421134
152.107000,82.402000
152.107000,80.802000
152.110806,80.782866
152.121645,80.766645
152.137866,80.755806
152.157000,80.752000
Z" /> 
<path style="fill:#000000; fill-opacity:1.000000; stroke:none;fill-rule:evenodd;"
d="M 151.907000,80.752000
151.926134,80.755806
151.942355,80.766645
151.953194,80.782866
151.957000,80.802000
151.957000,82.402000
151.953194,82.421134
151.942355,82.437355
151.926134,82.448194
151.907000,82.452000
151.357000,82.452000
151.337866,82.448194
151.321645,82.437355
151.310806,82.421134
151.307000,82.402000
151.307000,80.802000
151.310806,80.782866
151.321645,80.766645
151.337866,80.755806
151.357000,80.752000
Z" /> 
<path style="fill:#000000; fill-opacity:1.000000; stroke:none;fill-rule:evenodd;"
d="M 149.332000,82.777000
149.335806,82.757866
149.346645,82.741645
149.362866,82.730806
149.382000,82.727000
150.982000,82.727000
151.001134,82.730806
151.017355,82.741645
151.028194,82.757866
151.032000,82.777000
151.032000,83.327000
151.028194,83.346134
151.017355,83.362355
151.001134,83.373194
150.982000,83.377000
149.382000,83.377000
149.362866,83.373194
149.346645,83.362355
149.335806,83.346134
149.332000,83.327000
Z" /> 
<path style="fill:#000000; fill-opacity:1.000000; stroke:none;fill-rule:evenodd;"
d="M 149.332000,83.577000
149.335806,83.557866
149.346645,83.541645
149.362866,83.530806
149.382000,83.527000
150.982000,83.527000
151.001134,83.530806
151.017355,83.541645
151.028194,83.557866
151.032000,83.577000
151.032000,84.127000
151.028194,84.146134
151.017355,84.162355
151.001134,84.173194
150.982000,84.177000
149.382000,84.177000
149.362866,84.173194
149.346645,84.162355
149.335806,84.146134
149.332000,84.127000
Z" /> 
<path style="fill:#000000; fill-opacity:1.000000; stroke:none;fill-rule:evenodd;"
d="M 149.332000,84.377000
149.335806,84.357866
149.346645,84.341645
149.362866,84.330806
149.382000,84.327000
150.982000,84.327000
151.001134,84.330806
151.017355,84.341645
151.028194,84.357866
151.032000,84.377000
151.032000,84.927000
151.028194,84.946134
151.017355,84.962355
151.001134,84.973194
150.982000,84.977000
149.382000,84.977000
149.362866,84.973194
149.346645,84.962355
149.335806,84.946134
149.332000,84.927000
Z" /> 
<path style="fill:#000000; fill-opacity:1.000000; stroke:none;fill-rule:evenodd;"
d="M 149.332000,85.177000
149.335806,85.157866
149.346645,85.141645
149.362866,85.130806
149.382000,85.127000
150.982000,85.127000
151.001134,85.130806
151.017355,85.141645
151.028194,85.157866
151.032000,85.177000
151.032000,85.727000
151.028194,85.746134
151.017355,85.762355
151.001134,85.773194
150.982000,85.777000
149.382000,85.777000
149.362866,85.773194
149.346645,85.762355
149.335806,85.746134
149.332000,85.727000
Z" /> 
<path style="fill:#000000; fill-opacity:1.000000; stroke:none;fill-rule:evenodd;"
d="M 149.332000,85.977000
149.335806,85.957866
149.346645,85.941645
149.362866,85.930806
149.382000,85.927000
150.982000,85.927000
151.001134,85.930806
151.017355,85.941645
151.028194,85.957866
151.032000,85.977000
151.032000,86.527000
151.028194,86.546134
151.017355,86.562355
151.001134,86.573194
150.982000,86.577000
149.382000,86.577000
149.362866,86.573194
149.346645,86.562355
149.335806,86.546134
149.332000,86.527000
Z" /> 
<path style="fill:#000000; fill-opacity:1.000000; stroke:none;fill-rule:evenodd;"
d="M 149.332000,86.777000
149.335806,86.757866
149.346645,86.741645
149.362866,86.730806
149.382000,86.727000
150.982000,86.727000
151.001134,86.730806
151.017355,86.741645
151.028194,86.757866
151.032000,86.777000
151.032000,87.327000
151.028194,87.346134
151.017355,87.362355
151.001134,87.373194
150.982000,87.377000
149.382000,87.377000
149.362866,87.373194
149.346645,87.362355
149.335806,87.346134
149.332000,87.327000
Z" /> 
<path style="fill:#000000; fill-opacity:1.000000; stroke:none;fill-rule:evenodd;"
d="M 149.332000,87.577000
149.335806,87.557866
149.346645,87.541645
149.362866,87.530806
149.382000,87.527000
150.982000,87.527000
151.001134,87.530806
151.017355,87.541645
151.028194,87.557866
151.032000,87.577000
151.032000,88.127000
151.028194,88.146134
151.017355,88.162355
151.001134,88.173194
150.982000,88.177000
149.382000,88.177000
149.362866,88.173194
149.346645,88.162355
149.335806,88.146134
149.332000,88.127000
Z" /> 
<path style="fill:#000000; fill-opacity:1.000000; stroke:none;fill-rule:evenodd;"
d="M 149.332000,88.377000
149.335806,88.357866
149.346645,88.341645
149.362866,88.330806
149.382000,88.327000
150.982000,88.327000
151.001134,88.330806
151.017355,88.341645
151.028194,88.357866
151.032000,88.377000
151.032000,88.927000
151.028194,88.946134
151.017355,88.962355
151.001134,88.973194
150.982000,88.977000
149.382000,88.977000
149.362866,88.973194
149.346645,88.962355
149.335806,88.946134
149.332000,88.927000
Z" /> 
<path style="fill:#000000; fill-opacity:1.000000; stroke:none;fill-rule:evenodd;"
d="M 151.907000,89.252000
151.926134,89.255806
151.942355,89.266645
151.953194,89.282866
151.957000,89.302000
151.957000,90.902000
151.953194,90.921134
151.942355,90.937355
151.926134,90.948194
151.907000,90.952000
151.357000,90.952000
151.337866,90.948194
151.321645,90.937355
151.310806,90.921134
151.307000,90.902000
151.307000,89.302000
151.310806,89.282866
151.321645,89.266645
151.337866,89.255806
151.357000,89.252000
Z" /> 
<path style="fill:#000000; fill-opacity:1.000000; stroke:none;fill-rule:evenodd;"
d="M 152.707000,89.252000
152.726134,89.255806
152.742355,89.266645
152.753194,89.282866
152.757000,89.302000
152.757000,90.902000
152.753194,90.921134
152.742355,90.937355
152.726134,90.948194
152.707000,90.952000
152.157000,90.952000
152.137866,90.948194
152.121645,90.937355
152.110806,90.921134
152.107000,90.902000
152.107000,89.302000
152.110806,89.282866
152.121645,89.266645
152.137866,89.255806
152.157000,89.252000
Z" /> 
<path style="fill:#000000; fill-opacity:1.000000; stroke:none;fill-rule:evenodd;"
d="M 153.507000,89.252000
153.526134,89.255806
153.542355,89.266645
153.553194,89.282866
153.557000,89.302000
153.557000,90.902000
153.553194,90.921134
153.542355,90.937355
153.526134,90.948194
153.507000,90.952000
152.957000,90.952000
152.937866,90.948194
152.921645,90.937355
152.910806,90.921134
152.907000,90.902000
152.907000,89.302000
152.910806,89.282866
152.921645,89.266645
152.937866,89.255806
152.957000,89.252000
Z" /> 
<path style="fill:#000000; fill-opacity:1.000000; stroke:none;fill-rule:evenodd;"
d="M 154.307000,89.252000
154.326134,89.255806
154.342355,89.266645
154.353194,89.282866
154.357000,89.302000
154.357000,90.902000
154.353194,90.921134
154.342355,90.937355
154.326134,90.948194
154.307000,90.952000
153.757000,90.952000
153.737866,90.948194
153.721645,90.937355
153.710806,90.921134
153.707000,90.902000
153.707000,89.302000
153.710806,89.282866
153.721645,89.266645
153.737866,89.255806
153.757000,89.252000
Z" /> 
<path style="fill:#000000; fill-opacity:1.000000; stroke:none;fill-rule:evenodd;"
d="M 155.107000,89.252000
155.126134,89.255806
155.142355,89.266645
155.153194,89.282866
155.157000,89.302000
155.157000,90.902000
155.153194,90.921134
155.142355,90.937355
155.126134,90.948194
155.107000,90.952000
154.557000,90.952000
154.537866,90.948194
154.521645,90.937355
154.510806,90.921134
154.507000,90.902000
154.507000,89.302000
154.510806,89.282866
154.521645,89.266645
154.537866,89.255806
154.557000,89.252000
Z" /> 
<path style="fill:#000000; fill-opacity:1.000000; stroke:none;fill-rule:evenodd;"
d="M 155.907000,89.252000
155.926134,89.255806
155.942355,89.266645
155.953194,89.282866
155.957000,89.302000
155.957000,90.902000
155.953194,90.921134
155.942355,90.937355
155.926134,90.948194
155.907000,90.952000
155.357000,90.952000
155.337866,90.948194
155.321645,90.937355
155.310806,90.921134
155.307000,90.902000
155.307000,89.302000
155.310806,89.282866
155.321645,89.266645
155.337866,89.255806
155.357000,89.252000
Z" /> 
<path style="fill:#000000; fill-opacity:1.000000; stroke:none;fill-rule:evenodd;"
d="M 156.707000,89.252000
156.726134,89.255806
156.742355,89.266645
156.753194,89.282866
156.757000,89.302000
156.757000,90.902000
156.753194,90.921134
156.742355,90.937355
156.726134,90.948194
156.707000,90.952000
156.157000,90.952000
156.137866,90.948194
156.121645,90.937355
156.110806,90.921134
156.107000,90.902000
156.107000,89.302000
156.110806,89.282866
156.121645,89.266645
156.137866,89.255806
156.157000,89.252000
Z" /> 
<path style="fill:#000000; fill-opacity:1.000000; stroke:none;fill-rule:evenodd;"
d="M 157.507000,89.252000
157.526134,89.255806
157.542355,89.266645
157.553194,89.282866
157.557000,89.302000
157.557000,90.902000
157.553194,90.921134
157.542355,90.937355
157.526134,90.948194
157.507000,90.952000
156.957000,90.952000
156.937866,90.948194
156.921645,90.937355
156.910806,90.921134
156.907000,90.902000
156.907000,89.302000
156.910806,89.282866
156.921645,89.266645
156.937866,89.255806
156.957000,89.252000
Z" /> 
<path style="fill:#000000; fill-opacity:1.000000; stroke:none;fill-rule:evenodd;"
d="M 157.832000,88.377000
157.835806,88.357866
157.846645,88.341645
157.862866,88.330806
157.882000,88.327000
159.482000,88.327000
159.501134,88.330806
159.517355,88.341645
159.528194,88.357866
159.532000,88.377000
159.532000,88.927000
159.528194,88.946134
159.517355,88.962355
159.501134,88.973194
159.482000,88.977000
157.882000,88.977000
157.862866,88.973194
157.846645,88.962355
157.835806,88.946134
157.832000,88.927000
Z" /> 
<path style="fill:#000000; fill-opacity:1.000000; stroke:none;fill-rule:evenodd;"
d="M 157.832000,87.577000
157.835806,87.557866
157.846645,87.541645
157.862866,87.530806
157.882000,87.527000
159.482000,87.527000
159.501134,87.530806
159.517355,87.541645
159.528194,87.557866
159.532000,87.577000
159.532000,88.127000
159.528194,88.146134
159.517355,88.162355
159.501134,88.173194
159.482000,88.177000
157.882000,88.177000
157.862866,88.173194
157.846645,88.162355
157.835806,88.146134
157.832000,88.127000
Z" /> 
<path style="fill:#000000; fill-opacity:1.000000; stroke:none;fill-rule:evenodd;"
d="M 157.832000,86.777000
157.835806,86.757866
157.846645,86.741645
157.862866,86.730806
157.882000,86.727000
159.482000,86.727000
159.501134,86.730806
159.517355,86.741645
159.528194,86.757866
159.532000,86.777000
159.532000,87.327000
159.528194,87.346134
159.517355,87.362355
159.501134,87.373194
159.482000,87.377000
157.882000,87.377000
157.862866,87.373194
157.846645,87.362355
157.835806,87.346134
157.832000,87.327000
Z" /> 
<path style="fill:#000000; fill-opacity:1.000000; stroke:none;fill-rule:evenodd;"
d="M 157.832000,85.977000
157.835806,85.957866
157.846645,85.941645
157.862866,85.930806
157.882000,85.927000
159.482000,85.927000
159.501134,85.930806
159.517355,85.941645
159.528194,85.957866
159.532000,85.977000
159.532000,86.527000
159.528194,86.546134
159.517355,86.562355
159.501134,86.573194
159.482000,86.577000
157.882000,86.577000
157.862866,86.573194
157.846645,86.562355
157.835806,86.546134
157.832000,86.527000
Z" /> 
<path style="fill:#000000; fill-opacity:1.000000; stroke:none;fill-rule:evenodd;"
d="M 157.832000,85.177000
157.835806,85.157866
157.846645,85.141645
157.862866,85.130806
157.882000,85.127000
159.482000,85.127000
159.501134,85.130806
159.517355,85.141645
159.528194,85.157866
159.532000,85.177000
159.532000,85.727000
159.528194,85.746134
159.517355,85.762355
159.501134,85.773194
159.482000,85.777000
157.882000,85.777000
157.862866,85.773194
157.846645,85.762355
157.835806,85.746134
157.832000,85.727000
Z" /> 
<path style="fill:#000000; fill-opacity:1.000000; stroke:none;fill-rule:evenodd;"
d="M 157.832000,84.377000
157.835806,84.357866
157.846645,84.341645
157.862866,84.330806
157.882000,84.327000
159.482000,84.327000
159.501134,84.330806
159.517355,84.341645
159.528194,84.357866
159.532000,84.377000
159.532000,84.927000
159.528194,84.946134
159.517355,84.962355
159.501134,84.973194
159.482000,84.977000
157.882000,84.977000
157.862866,84.973194
157.846645,84.962355
157.835806,84.946134
157.832000,84.927000
Z" /> 
<path style="fill:#000000; fill-opacity:1.000000; stroke:none;fill-rule:evenodd;"
d="M 157.832000,83.577000
157.835806,83.557866
157.846645,83.541645
157.862866,83.530806
157.882000,83.527000
159.482000,83.527000
159.501134,83.530806
159.517355,83.541645
159.528194,83.557866
159.532000,83.577000
159.532000,84.127000
159.528194,84.146134
159.517355,84.162355
159.501134,84.173194
159.482000,84.177000
157.882000,84.177000
157.862866,84.173194
157.846645,84.162355
157.835806,84.146134
157.832000,84.127000
Z" /> 
<path style="fill:#000000; fill-opacity:1.000000; stroke:none;fill-rule:evenodd;"
d="M 157.832000,82.777000
157.835806,82.757866
157.846645,82.741645
157.862866,82.730806
157.882000,82.727000
159.482000,82.727000
159.501134,82.730806
159.517355,82.741645
159.528194,82.757866
159.532000,82.777000
159.532000,83.327000
159.528194,83.346134
159.517355,83.362355
159.501134,83.373194
159.482000,83.377000
157.882000,83.377000
157.862866,83.373194
157.846645,83.362355
157.835806,83.346134
157.832000,83.327000
Z" /> 
<path style="fill:#000000; fill-opacity:1.000000; stroke:none;fill-rule:evenodd;"
d="M 170.152750,83.596400
170.059471,83.577846
169.980393,83.525007
169.927554,83.445929
169.909000,83.352650
169.909000,82.865150
169.927554,82.771871
169.980393,82.692793
170.059471,82.639954
170.152750,82.621400
170.715250,82.621400
170.808529,82.639954
170.887607,82.692793
170.940446,82.771871
170.959000,82.865150
170.959000,83.352650
170.940446,83.445929
170.887607,83.525007
170.808529,83.577846
170.715250,83.596400
Z" /> 
<path style="fill:#000000; fill-opacity:1.000000; stroke:none;fill-rule:evenodd;"
d="M 170.152750,82.021400
170.059471,82.002846
169.980393,81.950007
169.927554,81.870929
169.909000,81.777650
169.909000,81.290150
169.927554,81.196871
169.980393,81.117793
170.059471,81.064954
170.152750,81.046400
170.715250,81.046400
170.808529,81.064954
170.887607,81.117793
170.940446,81.196871
170.959000,81.290150
170.959000,81.777650
170.940446,81.870929
170.887607,81.950007
170.808529,82.002846
170.715250,82.021400
Z" /> 
<path style="fill:#000000; fill-opacity:1.000000; stroke:none;fill-rule:evenodd;"
d="M 161.900950,83.542400
161.798104,83.521943
161.710915,83.463685
161.652657,83.376496
161.632200,83.273650
161.632200,82.736150
161.652657,82.633304
161.710915,82.546115
161.798104,82.487857
161.900950,82.467400
162.863450,82.467400
162.966296,82.487857
163.053485,82.546115
163.111743,82.633304
163.132200,82.736150
163.132200,83.273650
163.111743,83.376496
163.053485,83.463685
162.966296,83.521943
162.863450,83.542400
Z" /> 
<path style="fill:#000000; fill-opacity:1.000000; stroke:none;fill-rule:evenodd;"
d="M 161.900950,81.667400
161.798104,81.646943
161.710915,81.588685
161.652657,81.501496
161.632200,81.398650
161.632200,80.861150
161.652657,80.758304
161.710915,80.671115
161.798104,80.612857
161.900950,80.592400
162.863450,80.592400
162.966296,80.612857
163.053485,80.671115
163.111743,80.758304
163.132200,80.861150
163.132200,81.398650
163.111743,81.501496
163.053485,81.588685
162.966296,81.646943
162.863450,81.667400
Z" /> 
</g> 
</svg>
