<?xml version="1.0" standalone="no"?>
 <!DOCTYPE svg PUBLIC "-//W3C//DTD SVG 1.1//EN" 
 "http://www.w3.org/Graphics/SVG/1.1/DTD/svg11.dtd"> 
<svg
  xmlns:svg="http://www.w3.org/2000/svg"
  xmlns="http://www.w3.org/2000/svg"
  xmlns:xlink="http://www.w3.org/1999/xlink"
  version="1.1"
  width="6.505cm" height="3.765cm" viewBox="117.975 64.675 65.05 37.65">
<title>SVG Image created as t1-F_Mask.svg date 2024/02/01 16:05:37 </title>
  <desc>Image generated by PCBNEW </desc>
<g style="fill:#000000; fill-opacity:1.000000;stroke:#000000; stroke-opacity:1.000000;
stroke-linecap:round; stroke-linejoin:round;"
 transform="translate(0 0) scale(1 1)">
</g>
<g style="fill:#000000; fill-opacity:0.0; 
stroke:#000000; stroke-width:0.000000; stroke-opacity:1; 
stroke-linecap:round; stroke-linejoin:round;">
<g >
</g>
<g style="fill:#000000; fill-opacity:0.0; 
stroke:#000000; stroke-width:0.000000; stroke-opacity:1; 
stroke-linecap:round; stroke-linejoin:round;">
</g>
<g style="fill:#000000; fill-opacity:1.000000; 
stroke:#000000; stroke-width:0.000000; stroke-opacity:1; 
stroke-linecap:round; stroke-linejoin:round;">
<path style="fill:#000000; fill-opacity:1.000000; 
stroke:#000000; stroke-width:0.000000; stroke-opacity:1; 
stroke-linecap:round; stroke-linejoin:round;fill-rule:evenodd;"
d="M 131.835400,89.844400
131.904085,89.852369
132.004941,89.896901
132.082899,89.974859
132.127431,90.075715
132.135400,90.144400
132.135400,93.144400
132.127431,93.213085
132.082899,93.313941
132.004941,93.391899
131.904085,93.436431
131.835400,93.444400
129.835400,93.444400
129.766715,93.436431
129.665859,93.391899
129.587901,93.313941
129.543369,93.213085
129.535400,93.144400
129.535400,90.144400
129.543369,90.075715
129.587901,89.974859
129.665859,89.896901
129.766715,89.852369
129.835400,89.844400
Z" /> 
<path style="fill:#000000; fill-opacity:1.000000; 
stroke:#000000; stroke-width:0.000000; stroke-opacity:1; 
stroke-linecap:round; stroke-linejoin:round;fill-rule:evenodd;"
d="M 131.835400,96.344400
131.904085,96.352369
132.004941,96.396901
132.082899,96.474859
132.127431,96.575715
132.135400,96.644400
132.135400,99.644400
132.127431,99.713085
132.082899,99.813941
132.004941,99.891899
131.904085,99.936431
131.835400,99.944400
129.835400,99.944400
129.766715,99.936431
129.665859,99.891899
129.587901,99.813941
129.543369,99.713085
129.535400,99.644400
129.535400,96.644400
129.543369,96.575715
129.587901,96.474859
129.665859,96.396901
129.766715,96.352369
129.835400,96.344400
Z" /> 
</g>
<g >
</g>
<g style="fill:#000000; fill-opacity:1.000000; 
stroke:#000000; stroke-width:0.000000; stroke-opacity:1; 
stroke-linecap:round; stroke-linejoin:round;">
<path style="fill:#000000; fill-opacity:1.000000; 
stroke:#000000; stroke-width:0.000000; stroke-opacity:1; 
stroke-linecap:round; stroke-linejoin:round;fill-rule:evenodd;"
d="M 121.525000,90.443750
121.532803,90.376496
121.576407,90.277741
121.652741,90.201407
121.751496,90.157803
121.818750,90.150000
122.306250,90.150000
122.373504,90.157803
122.472259,90.201407
122.548593,90.277741
122.592197,90.376496
122.600000,90.443750
122.600000,91.356250
122.592197,91.423504
122.548593,91.522259
122.472259,91.598593
122.373504,91.642197
122.306250,91.650000
121.818750,91.650000
121.751496,91.642197
121.652741,91.598593
121.576407,91.522259
121.532803,91.423504
121.525000,91.356250
Z" /> 
<path style="fill:#000000; fill-opacity:1.000000; 
stroke:#000000; stroke-width:0.000000; stroke-opacity:1; 
stroke-linecap:round; stroke-linejoin:round;fill-rule:evenodd;"
d="M 123.400000,90.443750
123.407803,90.376496
123.451407,90.277741
123.527741,90.201407
123.626496,90.157803
123.693750,90.150000
124.181250,90.150000
124.248504,90.157803
124.347259,90.201407
124.423593,90.277741
124.467197,90.376496
124.475000,90.443750
124.475000,91.356250
124.467197,91.423504
124.423593,91.522259
124.347259,91.598593
124.248504,91.642197
124.181250,91.650000
123.693750,91.650000
123.626496,91.642197
123.527741,91.598593
123.451407,91.522259
123.407803,91.423504
123.400000,91.356250
Z" /> 
</g>
<g >
</g>
<g style="fill:#000000; fill-opacity:1.000000; 
stroke:#000000; stroke-width:0.000000; stroke-opacity:1; 
stroke-linecap:round; stroke-linejoin:round;">
<path style="fill:#000000; fill-opacity:1.000000; 
stroke:#000000; stroke-width:0.000000; stroke-opacity:1; 
stroke-linecap:round; stroke-linejoin:round;fill-rule:evenodd;"
d="M 162.716250,73.641000
162.783504,73.648803
162.882259,73.692407
162.958593,73.768741
163.002197,73.867496
163.010000,73.934750
163.010000,74.422250
163.002197,74.489504
162.958593,74.588259
162.882259,74.664593
162.783504,74.708197
162.716250,74.716000
161.803750,74.716000
161.736496,74.708197
161.637741,74.664593
161.561407,74.588259
161.517803,74.489504
161.510000,74.422250
161.510000,73.934750
161.517803,73.867496
161.561407,73.768741
161.637741,73.692407
161.736496,73.648803
161.803750,73.641000
Z" /> 
<path style="fill:#000000; fill-opacity:1.000000; 
stroke:#000000; stroke-width:0.000000; stroke-opacity:1; 
stroke-linecap:round; stroke-linejoin:round;fill-rule:evenodd;"
d="M 162.716250,75.516000
162.783504,75.523803
162.882259,75.567407
162.958593,75.643741
163.002197,75.742496
163.010000,75.809750
163.010000,76.297250
163.002197,76.364504
162.958593,76.463259
162.882259,76.539593
162.783504,76.583197
162.716250,76.591000
161.803750,76.591000
161.736496,76.583197
161.637741,76.539593
161.561407,76.463259
161.517803,76.364504
161.510000,76.297250
161.510000,75.809750
161.517803,75.742496
161.561407,75.643741
161.637741,75.567407
161.736496,75.523803
161.803750,75.516000
Z" /> 
</g>
<g >
</g>
<g style="fill:#000000; fill-opacity:1.000000; 
stroke:#000000; stroke-width:0.000000; stroke-opacity:1; 
stroke-linecap:round; stroke-linejoin:round;">
<path style="fill:#000000; fill-opacity:1.000000; 
stroke:#000000; stroke-width:0.000000; stroke-opacity:1; 
stroke-linecap:round; stroke-linejoin:round;fill-rule:evenodd;"
d="M 156.366250,73.641000
156.433504,73.648803
156.532259,73.692407
156.608593,73.768741
156.652197,73.867496
156.660000,73.934750
156.660000,74.422250
156.652197,74.489504
156.608593,74.588259
156.532259,74.664593
156.433504,74.708197
156.366250,74.716000
155.453750,74.716000
155.386496,74.708197
155.287741,74.664593
155.211407,74.588259
155.167803,74.489504
155.160000,74.422250
155.160000,73.934750
155.167803,73.867496
155.211407,73.768741
155.287741,73.692407
155.386496,73.648803
155.453750,73.641000
Z" /> 
<path style="fill:#000000; fill-opacity:1.000000; 
stroke:#000000; stroke-width:0.000000; stroke-opacity:1; 
stroke-linecap:round; stroke-linejoin:round;fill-rule:evenodd;"
d="M 156.366250,75.516000
156.433504,75.523803
156.532259,75.567407
156.608593,75.643741
156.652197,75.742496
156.660000,75.809750
156.660000,76.297250
156.652197,76.364504
156.608593,76.463259
156.532259,76.539593
156.433504,76.583197
156.366250,76.591000
155.453750,76.591000
155.386496,76.583197
155.287741,76.539593
155.211407,76.463259
155.167803,76.364504
155.160000,76.297250
155.160000,75.809750
155.167803,75.742496
155.211407,75.643741
155.287741,75.567407
155.386496,75.523803
155.453750,75.516000
Z" /> 
</g>
<g >
</g>
<g style="fill:#000000; fill-opacity:1.000000; 
stroke:#000000; stroke-width:0.000000; stroke-opacity:1; 
stroke-linecap:round; stroke-linejoin:round;">
<path style="fill:#000000; fill-opacity:1.000000; 
stroke:#000000; stroke-width:0.000000; stroke-opacity:1; 
stroke-linecap:round; stroke-linejoin:round;fill-rule:evenodd;"
d="M 163.778250,87.679000
163.845504,87.686803
163.944259,87.730407
164.020593,87.806741
164.064197,87.905496
164.072000,87.972750
164.072000,88.460250
164.064197,88.527504
164.020593,88.626259
163.944259,88.702593
163.845504,88.746197
163.778250,88.754000
162.865750,88.754000
162.798496,88.746197
162.699741,88.702593
162.623407,88.626259
162.579803,88.527504
162.572000,88.460250
162.572000,87.972750
162.579803,87.905496
162.623407,87.806741
162.699741,87.730407
162.798496,87.686803
162.865750,87.679000
Z" /> 
<path style="fill:#000000; fill-opacity:1.000000; 
stroke:#000000; stroke-width:0.000000; stroke-opacity:1; 
stroke-linecap:round; stroke-linejoin:round;fill-rule:evenodd;"
d="M 163.778250,89.554000
163.845504,89.561803
163.944259,89.605407
164.020593,89.681741
164.064197,89.780496
164.072000,89.847750
164.072000,90.335250
164.064197,90.402504
164.020593,90.501259
163.944259,90.577593
163.845504,90.621197
163.778250,90.629000
162.865750,90.629000
162.798496,90.621197
162.699741,90.577593
162.623407,90.501259
162.579803,90.402504
162.572000,90.335250
162.572000,89.847750
162.579803,89.780496
162.623407,89.681741
162.699741,89.605407
162.798496,89.561803
162.865750,89.554000
Z" /> 
</g>
<g >
</g>
<g style="fill:#000000; fill-opacity:1.000000; 
stroke:#000000; stroke-width:0.000000; stroke-opacity:1; 
stroke-linecap:round; stroke-linejoin:round;">
<path style="fill:#000000; fill-opacity:1.000000; 
stroke:#000000; stroke-width:0.000000; stroke-opacity:1; 
stroke-linecap:round; stroke-linejoin:round;fill-rule:evenodd;"
d="M 152.499800,78.410750
152.507603,78.343496
152.551207,78.244741
152.627541,78.168407
152.726296,78.124803
152.793550,78.117000
153.281050,78.117000
153.348304,78.124803
153.447059,78.168407
153.523393,78.244741
153.566997,78.343496
153.574800,78.410750
153.574800,79.323250
153.566997,79.390504
153.523393,79.489259
153.447059,79.565593
153.348304,79.609197
153.281050,79.617000
152.793550,79.617000
152.726296,79.609197
152.627541,79.565593
152.551207,79.489259
152.507603,79.390504
152.499800,79.323250
Z" /> 
<path style="fill:#000000; fill-opacity:1.000000; 
stroke:#000000; stroke-width:0.000000; stroke-opacity:1; 
stroke-linecap:round; stroke-linejoin:round;fill-rule:evenodd;"
d="M 154.374800,78.410750
154.382603,78.343496
154.426207,78.244741
154.502541,78.168407
154.601296,78.124803
154.668550,78.117000
155.156050,78.117000
155.223304,78.124803
155.322059,78.168407
155.398393,78.244741
155.441997,78.343496
155.449800,78.410750
155.449800,79.323250
155.441997,79.390504
155.398393,79.489259
155.322059,79.565593
155.223304,79.609197
155.156050,79.617000
154.668550,79.617000
154.601296,79.609197
154.502541,79.565593
154.426207,79.489259
154.382603,79.390504
154.374800,79.323250
Z" /> 
</g>
<g >
</g>
<g style="fill:#000000; fill-opacity:1.000000; 
stroke:#000000; stroke-width:0.000000; stroke-opacity:1; 
stroke-linecap:round; stroke-linejoin:round;">
<path style="fill:#000000; fill-opacity:1.000000; 
stroke:#000000; stroke-width:0.000000; stroke-opacity:1; 
stroke-linecap:round; stroke-linejoin:round;fill-rule:evenodd;"
d="M 144.298350,80.443600
144.231096,80.435797
144.132341,80.392193
144.056007,80.315859
144.012403,80.217104
144.004600,80.149850
144.004600,79.662350
144.012403,79.595096
144.056007,79.496341
144.132341,79.420007
144.231096,79.376403
144.298350,79.368600
145.210850,79.368600
145.278104,79.376403
145.376859,79.420007
145.453193,79.496341
145.496797,79.595096
145.504600,79.662350
145.504600,80.149850
145.496797,80.217104
145.453193,80.315859
145.376859,80.392193
145.278104,80.435797
145.210850,80.443600
Z" /> 
<path style="fill:#000000; fill-opacity:1.000000; 
stroke:#000000; stroke-width:0.000000; stroke-opacity:1; 
stroke-linecap:round; stroke-linejoin:round;fill-rule:evenodd;"
d="M 144.298350,78.568600
144.231096,78.560797
144.132341,78.517193
144.056007,78.440859
144.012403,78.342104
144.004600,78.274850
144.004600,77.787350
144.012403,77.720096
144.056007,77.621341
144.132341,77.545007
144.231096,77.501403
144.298350,77.493600
145.210850,77.493600
145.278104,77.501403
145.376859,77.545007
145.453193,77.621341
145.496797,77.720096
145.504600,77.787350
145.504600,78.274850
145.496797,78.342104
145.453193,78.440859
145.376859,78.517193
145.278104,78.560797
145.210850,78.568600
Z" /> 
</g>
<g >
</g>
<g style="fill:#000000; fill-opacity:1.000000; 
stroke:#000000; stroke-width:0.000000; stroke-opacity:1; 
stroke-linecap:round; stroke-linejoin:round;">
<path style="fill:#000000; fill-opacity:1.000000; 
stroke:#000000; stroke-width:0.000000; stroke-opacity:1; 
stroke-linecap:round; stroke-linejoin:round;fill-rule:evenodd;"
d="M 162.189000,98.849000
162.120315,98.841031
162.019459,98.796499
161.941501,98.718541
161.896969,98.617685
161.889000,98.549000
161.889000,97.799000
161.896969,97.730315
161.941501,97.629459
162.019459,97.551501
162.120315,97.506969
162.189000,97.499000
163.439000,97.499000
163.507685,97.506969
163.608541,97.551501
163.686499,97.629459
163.731031,97.730315
163.739000,97.799000
163.739000,98.549000
163.731031,98.617685
163.686499,98.718541
163.608541,98.796499
163.507685,98.841031
163.439000,98.849000
Z" /> 
<path style="fill:#000000; fill-opacity:1.000000; 
stroke:#000000; stroke-width:0.000000; stroke-opacity:1; 
stroke-linecap:round; stroke-linejoin:round;fill-rule:evenodd;"
d="M 162.189000,96.049000
162.120315,96.041031
162.019459,95.996499
161.941501,95.918541
161.896969,95.817685
161.889000,95.749000
161.889000,94.999000
161.896969,94.930315
161.941501,94.829459
162.019459,94.751501
162.120315,94.706969
162.189000,94.699000
163.439000,94.699000
163.507685,94.706969
163.608541,94.751501
163.686499,94.829459
163.731031,94.930315
163.739000,94.999000
163.739000,95.749000
163.731031,95.817685
163.686499,95.918541
163.608541,95.996499
163.507685,96.041031
163.439000,96.049000
Z" /> 
</g>
<g >
</g>
<g style="fill:#000000; fill-opacity:1.000000; 
stroke:#000000; stroke-width:0.000000; stroke-opacity:1; 
stroke-linecap:round; stroke-linejoin:round;">
<path style="fill:#000000; fill-opacity:1.000000; 
stroke:#000000; stroke-width:0.000000; stroke-opacity:1; 
stroke-linecap:round; stroke-linejoin:round;fill-rule:evenodd;"
d="M 146.863750,76.425000
146.796496,76.417197
146.697741,76.373593
146.621407,76.297259
146.577803,76.198504
146.570000,76.131250
146.570000,75.643750
146.577803,75.576496
146.621407,75.477741
146.697741,75.401407
146.796496,75.357803
146.863750,75.350000
147.776250,75.350000
147.843504,75.357803
147.942259,75.401407
148.018593,75.477741
148.062197,75.576496
148.070000,75.643750
148.070000,76.131250
148.062197,76.198504
148.018593,76.297259
147.942259,76.373593
147.843504,76.417197
147.776250,76.425000
Z" /> 
<path style="fill:#000000; fill-opacity:1.000000; 
stroke:#000000; stroke-width:0.000000; stroke-opacity:1; 
stroke-linecap:round; stroke-linejoin:round;fill-rule:evenodd;"
d="M 146.863750,74.550000
146.796496,74.542197
146.697741,74.498593
146.621407,74.422259
146.577803,74.323504
146.570000,74.256250
146.570000,73.768750
146.577803,73.701496
146.621407,73.602741
146.697741,73.526407
146.796496,73.482803
146.863750,73.475000
147.776250,73.475000
147.843504,73.482803
147.942259,73.526407
148.018593,73.602741
148.062197,73.701496
148.070000,73.768750
148.070000,74.256250
148.062197,74.323504
148.018593,74.422259
147.942259,74.498593
147.843504,74.542197
147.776250,74.550000
Z" /> 
</g>
<g >
</g>
<g style="fill:#000000; fill-opacity:1.000000; 
stroke:#000000; stroke-width:0.000000; stroke-opacity:1; 
stroke-linecap:round; stroke-linejoin:round;">
<path style="fill:#000000; fill-opacity:1.000000; 
stroke:#000000; stroke-width:0.000000; stroke-opacity:1; 
stroke-linecap:round; stroke-linejoin:round;fill-rule:evenodd;"
d="M 144.323750,76.425000
144.256496,76.417197
144.157741,76.373593
144.081407,76.297259
144.037803,76.198504
144.030000,76.131250
144.030000,75.643750
144.037803,75.576496
144.081407,75.477741
144.157741,75.401407
144.256496,75.357803
144.323750,75.350000
145.236250,75.350000
145.303504,75.357803
145.402259,75.401407
145.478593,75.477741
145.522197,75.576496
145.530000,75.643750
145.530000,76.131250
145.522197,76.198504
145.478593,76.297259
145.402259,76.373593
145.303504,76.417197
145.236250,76.425000
Z" /> 
<path style="fill:#000000; fill-opacity:1.000000; 
stroke:#000000; stroke-width:0.000000; stroke-opacity:1; 
stroke-linecap:round; stroke-linejoin:round;fill-rule:evenodd;"
d="M 144.323750,74.550000
144.256496,74.542197
144.157741,74.498593
144.081407,74.422259
144.037803,74.323504
144.030000,74.256250
144.030000,73.768750
144.037803,73.701496
144.081407,73.602741
144.157741,73.526407
144.256496,73.482803
144.323750,73.475000
145.236250,73.475000
145.303504,73.482803
145.402259,73.526407
145.478593,73.602741
145.522197,73.701496
145.530000,73.768750
145.530000,74.256250
145.522197,74.323504
145.478593,74.422259
145.402259,74.498593
145.303504,74.542197
145.236250,74.550000
Z" /> 
</g>
<g >
</g>
<g style="fill:#000000; fill-opacity:1.000000; 
stroke:#000000; stroke-width:0.000000; stroke-opacity:1; 
stroke-linecap:round; stroke-linejoin:round;">
<path style="fill:#000000; fill-opacity:1.000000; 
stroke:#000000; stroke-width:0.000000; stroke-opacity:1; 
stroke-linecap:round; stroke-linejoin:round;fill-rule:evenodd;"
d="M 165.144000,75.766000
165.151969,75.697315
165.196501,75.596459
165.274459,75.518501
165.375315,75.473969
165.444000,75.466000
166.069000,75.466000
166.137685,75.473969
166.238541,75.518501
166.316499,75.596459
166.361031,75.697315
166.369000,75.766000
166.369000,78.666000
166.361031,78.734685
166.316499,78.835541
166.238541,78.913499
166.137685,78.958031
166.069000,78.966000
165.444000,78.966000
165.375315,78.958031
165.274459,78.913499
165.196501,78.835541
165.151969,78.734685
165.144000,78.666000
Z" /> 
<path style="fill:#000000; fill-opacity:1.000000; 
stroke:#000000; stroke-width:0.000000; stroke-opacity:1; 
stroke-linecap:round; stroke-linejoin:round;fill-rule:evenodd;"
d="M 169.419000,75.766000
169.426969,75.697315
169.471501,75.596459
169.549459,75.518501
169.650315,75.473969
169.719000,75.466000
170.344000,75.466000
170.412685,75.473969
170.513541,75.518501
170.591499,75.596459
170.636031,75.697315
170.644000,75.766000
170.644000,78.666000
170.636031,78.734685
170.591499,78.835541
170.513541,78.913499
170.412685,78.958031
170.344000,78.966000
169.719000,78.966000
169.650315,78.958031
169.549459,78.913499
169.471501,78.835541
169.426969,78.734685
169.419000,78.666000
Z" /> 
</g>
<g >
</g>
<g style="fill:#000000; fill-opacity:1.000000; 
stroke:#000000; stroke-width:0.000000; stroke-opacity:1; 
stroke-linecap:round; stroke-linejoin:round;">
<path style="fill:#000000; fill-opacity:1.000000; 
stroke:#000000; stroke-width:0.000000; stroke-opacity:1; 
stroke-linecap:round; stroke-linejoin:round;fill-rule:evenodd;"
d="M 169.369000,91.134250
169.361197,91.201504
169.317593,91.300259
169.241259,91.376593
169.142504,91.420197
169.075250,91.428000
168.587750,91.428000
168.520496,91.420197
168.421741,91.376593
168.345407,91.300259
168.301803,91.201504
168.294000,91.134250
168.294000,90.221750
168.301803,90.154496
168.345407,90.055741
168.421741,89.979407
168.520496,89.935803
168.587750,89.928000
169.075250,89.928000
169.142504,89.935803
169.241259,89.979407
169.317593,90.055741
169.361197,90.154496
169.369000,90.221750
Z" /> 
<path style="fill:#000000; fill-opacity:1.000000; 
stroke:#000000; stroke-width:0.000000; stroke-opacity:1; 
stroke-linecap:round; stroke-linejoin:round;fill-rule:evenodd;"
d="M 167.494000,91.134250
167.486197,91.201504
167.442593,91.300259
167.366259,91.376593
167.267504,91.420197
167.200250,91.428000
166.712750,91.428000
166.645496,91.420197
166.546741,91.376593
166.470407,91.300259
166.426803,91.201504
166.419000,91.134250
166.419000,90.221750
166.426803,90.154496
166.470407,90.055741
166.546741,89.979407
166.645496,89.935803
166.712750,89.928000
167.200250,89.928000
167.267504,89.935803
167.366259,89.979407
167.442593,90.055741
167.486197,90.154496
167.494000,90.221750
Z" /> 
</g>
<g >
</g>
<g style="fill:#000000; fill-opacity:1.000000; 
stroke:#000000; stroke-width:0.000000; stroke-opacity:1; 
stroke-linecap:round; stroke-linejoin:round;">
<circle cx="169.418000" cy="70.612000" r="0.750000" /> 
</g>
<g style="fill:#000000; fill-opacity:1.000000; 
stroke:#000000; stroke-width:0.021200; stroke-opacity:1; 
stroke-linecap:round; stroke-linejoin:round;">
</g>
<g >
</g>
<g style="fill:#000000; fill-opacity:1.000000; 
stroke:#000000; stroke-width:0.021200; stroke-opacity:1; 
stroke-linecap:round; stroke-linejoin:round;">
</g>
<g style="fill:#000000; fill-opacity:1.000000; 
stroke:#000000; stroke-width:0.000000; stroke-opacity:1; 
stroke-linecap:round; stroke-linejoin:round;">
<circle cx="171.704000" cy="97.282000" r="0.750000" /> 
</g>
<g style="fill:#000000; fill-opacity:1.000000; 
stroke:#000000; stroke-width:0.021200; stroke-opacity:1; 
stroke-linecap:round; stroke-linejoin:round;">
</g>
<g >
</g>
<g style="fill:#000000; fill-opacity:1.000000; 
stroke:#000000; stroke-width:0.021200; stroke-opacity:1; 
stroke-linecap:round; stroke-linejoin:round;">
</g>
<g style="fill:#000000; fill-opacity:1.000000; 
stroke:#000000; stroke-width:0.000000; stroke-opacity:1; 
stroke-linecap:round; stroke-linejoin:round;">
<circle cx="129.997200" cy="70.078600" r="0.750000" /> 
</g>
<g style="fill:#000000; fill-opacity:1.000000; 
stroke:#000000; stroke-width:0.021200; stroke-opacity:1; 
stroke-linecap:round; stroke-linejoin:round;">
</g>
<g >
</g>
<g style="fill:#000000; fill-opacity:1.000000; 
stroke:#000000; stroke-width:0.021200; stroke-opacity:1; 
stroke-linecap:round; stroke-linejoin:round;">
</g>
<g style="fill:#000000; fill-opacity:1.000000; 
stroke:#000000; stroke-width:0.000000; stroke-opacity:1; 
stroke-linecap:round; stroke-linejoin:round;">
<circle cx="137.210800" cy="98.171000" r="0.750000" /> 
</g>
<g style="fill:#000000; fill-opacity:1.000000; 
stroke:#000000; stroke-width:0.021200; stroke-opacity:1; 
stroke-linecap:round; stroke-linejoin:round;">
</g>
<g >
</g>
<g style="fill:#000000; fill-opacity:1.000000; 
stroke:#000000; stroke-width:0.021200; stroke-opacity:1; 
stroke-linecap:round; stroke-linejoin:round;">
</g>
<g style="fill:#000000; fill-opacity:1.000000; 
stroke:#000000; stroke-width:0.000000; stroke-opacity:1; 
stroke-linecap:round; stroke-linejoin:round;">
<circle cx="177.000000" cy="97.000000" r="1.400000" /> 
</g>
<g style="fill:#000000; fill-opacity:1.000000; 
stroke:#000000; stroke-width:0.021200; stroke-opacity:1; 
stroke-linecap:round; stroke-linejoin:round;">
</g>
<g >
</g>
<g style="fill:#000000; fill-opacity:1.000000; 
stroke:#000000; stroke-width:0.021200; stroke-opacity:1; 
stroke-linecap:round; stroke-linejoin:round;">
</g>
<g style="fill:#000000; fill-opacity:1.000000; 
stroke:#000000; stroke-width:0.000000; stroke-opacity:1; 
stroke-linecap:round; stroke-linejoin:round;">
<circle cx="123.000000" cy="97.000000" r="1.400000" /> 
</g>
<g style="fill:#000000; fill-opacity:1.000000; 
stroke:#000000; stroke-width:0.021200; stroke-opacity:1; 
stroke-linecap:round; stroke-linejoin:round;">
</g>
<g >
</g>
<g style="fill:#000000; fill-opacity:1.000000; 
stroke:#000000; stroke-width:0.021200; stroke-opacity:1; 
stroke-linecap:round; stroke-linejoin:round;">
</g>
<g style="fill:#000000; fill-opacity:1.000000; 
stroke:#000000; stroke-width:0.000000; stroke-opacity:1; 
stroke-linecap:round; stroke-linejoin:round;">
<circle cx="123.000000" cy="69.500000" r="1.400000" /> 
</g>
<g style="fill:#000000; fill-opacity:1.000000; 
stroke:#000000; stroke-width:0.021200; stroke-opacity:1; 
stroke-linecap:round; stroke-linejoin:round;">
</g>
<g >
</g>
<g style="fill:#000000; fill-opacity:1.000000; 
stroke:#000000; stroke-width:0.021200; stroke-opacity:1; 
stroke-linecap:round; stroke-linejoin:round;">
</g>
<g style="fill:#000000; fill-opacity:1.000000; 
stroke:#000000; stroke-width:0.000000; stroke-opacity:1; 
stroke-linecap:round; stroke-linejoin:round;">
<circle cx="177.000000" cy="69.500000" r="1.400000" /> 
</g>
<g style="fill:#000000; fill-opacity:1.000000; 
stroke:#000000; stroke-width:0.021200; stroke-opacity:1; 
stroke-linecap:round; stroke-linejoin:round;">
</g>
<g >
</g>
<g style="fill:#000000; fill-opacity:1.000000; 
stroke:#000000; stroke-width:0.021200; stroke-opacity:1; 
stroke-linecap:round; stroke-linejoin:round;">
</g>
<g style="fill:#000000; fill-opacity:1.000000; 
stroke:#000000; stroke-width:1.600000; stroke-opacity:1; 
stroke-linecap:round; stroke-linejoin:round;">
</g>
<g style="fill:#000000; fill-opacity:0.0; 
stroke:#000000; stroke-width:1.600000; stroke-opacity:1; 
stroke-linecap:round; stroke-linejoin:round;">
<path d="M123.200000 81.450000
L123.200000 80.950000
" />
</g>
<g style="fill:#000000; fill-opacity:1.000000; 
stroke:#000000; stroke-width:0.000000; stroke-opacity:1; 
stroke-linecap:round; stroke-linejoin:round;">
<circle cx="127.600000" cy="81.200000" r="1.050000" /> 
</g>
<g style="fill:#000000; fill-opacity:1.000000; 
stroke:#000000; stroke-width:0.021200; stroke-opacity:1; 
stroke-linecap:round; stroke-linejoin:round;">
</g>
<g style="fill:#000000; fill-opacity:1.000000; 
stroke:#000000; stroke-width:0.000000; stroke-opacity:1; 
stroke-linecap:round; stroke-linejoin:round;">
<path style="fill:#000000; fill-opacity:1.000000; 
stroke:#000000; stroke-width:0.000000; stroke-opacity:1; 
stroke-linecap:round; stroke-linejoin:round;fill-rule:evenodd;"
d="M 122.100000,77.250000
122.080866,77.246194
122.064645,77.235355
122.053806,77.219134
122.050000,77.200000
122.050000,74.200000
122.053806,74.180866
122.064645,74.164645
122.080866,74.153806
122.100000,74.150000
124.100000,74.150000
124.119134,74.153806
124.135355,74.164645
124.146194,74.180866
124.150000,74.200000
124.150000,77.200000
124.146194,77.219134
124.135355,77.235355
124.119134,77.246194
124.100000,77.250000
Z" /> 
<path style="fill:#000000; fill-opacity:1.000000; 
stroke:#000000; stroke-width:0.000000; stroke-opacity:1; 
stroke-linecap:round; stroke-linejoin:round;fill-rule:evenodd;"
d="M 128.100000,77.250000
128.080866,77.246194
128.064645,77.235355
128.053806,77.219134
128.050000,77.200000
128.050000,74.200000
128.053806,74.180866
128.064645,74.164645
128.080866,74.153806
128.100000,74.150000
130.100000,74.150000
130.119134,74.153806
130.135355,74.164645
130.146194,74.180866
130.150000,74.200000
130.150000,77.200000
130.146194,77.219134
130.135355,77.235355
130.119134,77.246194
130.100000,77.250000
Z" /> 
<path style="fill:#000000; fill-opacity:1.000000; 
stroke:#000000; stroke-width:0.000000; stroke-opacity:1; 
stroke-linecap:round; stroke-linejoin:round;fill-rule:evenodd;"
d="M 128.100000,88.250000
128.080866,88.246194
128.064645,88.235355
128.053806,88.219134
128.050000,88.200000
128.050000,85.200000
128.053806,85.180866
128.064645,85.164645
128.080866,85.153806
128.100000,85.150000
130.100000,85.150000
130.119134,85.153806
130.135355,85.164645
130.146194,85.180866
130.150000,85.200000
130.150000,88.200000
130.146194,88.219134
130.135355,88.235355
130.119134,88.246194
130.100000,88.250000
Z" /> 
<path style="fill:#000000; fill-opacity:1.000000; 
stroke:#000000; stroke-width:0.000000; stroke-opacity:1; 
stroke-linecap:round; stroke-linejoin:round;fill-rule:evenodd;"
d="M 122.100000,88.250000
122.080866,88.246194
122.064645,88.235355
122.053806,88.219134
122.050000,88.200000
122.050000,85.200000
122.053806,85.180866
122.064645,85.164645
122.080866,85.153806
122.100000,85.150000
124.100000,85.150000
124.119134,85.153806
124.135355,85.164645
124.146194,85.180866
124.150000,85.200000
124.150000,88.200000
124.146194,88.219134
124.135355,88.235355
124.119134,88.246194
124.100000,88.250000
Z" /> 
</g>
<g >
</g>
<g style="fill:#000000; fill-opacity:1.000000; 
stroke:#000000; stroke-width:0.000000; stroke-opacity:1; 
stroke-linecap:round; stroke-linejoin:round;">
<path style="fill:#000000; fill-opacity:1.000000; 
stroke:#000000; stroke-width:0.000000; stroke-opacity:1; 
stroke-linecap:round; stroke-linejoin:round;fill-rule:evenodd;"
d="M 137.200000,80.350000
137.196194,80.369134
137.185355,80.385355
137.169134,80.396194
137.150000,80.400000
135.450000,80.400000
135.430866,80.396194
135.414645,80.385355
135.403806,80.369134
135.400000,80.350000
135.400000,78.650000
135.403806,78.630866
135.414645,78.614645
135.430866,78.603806
135.450000,78.600000
137.150000,78.600000
137.169134,78.603806
137.185355,78.614645
137.196194,78.630866
137.200000,78.650000
Z" /> 
<circle cx="136.300000" cy="76.960000" r="0.900000" /> 
<circle cx="136.300000" cy="74.420000" r="0.900000" /> 
<circle cx="136.300000" cy="71.880000" r="0.900000" /> 
<circle cx="136.300000" cy="69.340000" r="0.900000" /> 
</g>
<g >
</g>
<g style="fill:#000000; fill-opacity:1.000000; 
stroke:#000000; stroke-width:0.000000; stroke-opacity:1; 
stroke-linecap:round; stroke-linejoin:round;">
<path style="fill:#000000; fill-opacity:1.000000; 
stroke:#000000; stroke-width:0.000000; stroke-opacity:1; 
stroke-linecap:round; stroke-linejoin:round;fill-rule:evenodd;"
d="M 150.992000,94.400000
150.995806,94.380866
151.006645,94.364645
151.022866,94.353806
151.042000,94.350000
152.742000,94.350000
152.761134,94.353806
152.777355,94.364645
152.788194,94.380866
152.792000,94.400000
152.792000,96.100000
152.788194,96.119134
152.777355,96.135355
152.761134,96.146194
152.742000,96.150000
151.042000,96.150000
151.022866,96.146194
151.006645,96.135355
150.995806,96.119134
150.992000,96.100000
Z" /> 
<circle cx="154.432000" cy="95.250000" r="0.900000" /> 
<circle cx="151.892000" cy="97.790000" r="0.900000" /> 
<circle cx="154.432000" cy="97.790000" r="0.900000" /> 
</g>
<g >
</g>
<g style="fill:#000000; fill-opacity:1.000000; 
stroke:#000000; stroke-width:0.000000; stroke-opacity:1; 
stroke-linecap:round; stroke-linejoin:round;">
<path style="fill:#000000; fill-opacity:1.000000; 
stroke:#000000; stroke-width:0.000000; stroke-opacity:1; 
stroke-linecap:round; stroke-linejoin:round;fill-rule:evenodd;"
d="M 140.272400,98.664600
140.253266,98.660794
140.237045,98.649955
140.226206,98.633734
140.222400,98.614600
140.222400,96.914600
140.226206,96.895466
140.237045,96.879245
140.253266,96.868406
140.272400,96.864600
141.972400,96.864600
141.991534,96.868406
142.007755,96.879245
142.018594,96.895466
142.022400,96.914600
142.022400,98.614600
142.018594,98.633734
142.007755,98.649955
141.991534,98.660794
141.972400,98.664600
Z" /> 
<circle cx="141.122400" cy="95.224600" r="0.900000" /> 
<circle cx="143.662400" cy="97.764600" r="0.900000" /> 
<circle cx="143.662400" cy="95.224600" r="0.900000" /> 
<circle cx="146.202400" cy="97.764600" r="0.900000" /> 
<circle cx="146.202400" cy="95.224600" r="0.900000" /> 
</g>
<g >
</g>
<g style="fill:#000000; fill-opacity:1.000000; 
stroke:#000000; stroke-width:0.000000; stroke-opacity:1; 
stroke-linecap:round; stroke-linejoin:round;">
<path style="fill:#000000; fill-opacity:1.000000; 
stroke:#000000; stroke-width:0.000000; stroke-opacity:1; 
stroke-linecap:round; stroke-linejoin:round;fill-rule:evenodd;"
d="M 140.070000,76.366000
140.073806,76.346866
140.084645,76.330645
140.100866,76.319806
140.120000,76.316000
141.820000,76.316000
141.839134,76.319806
141.855355,76.330645
141.866194,76.346866
141.870000,76.366000
141.870000,78.066000
141.866194,78.085134
141.855355,78.101355
141.839134,78.112194
141.820000,78.116000
140.120000,78.116000
140.100866,78.112194
140.084645,78.101355
140.073806,78.085134
140.070000,78.066000
Z" /> 
<circle cx="140.970000" cy="79.756000" r="0.900000" /> 
<circle cx="140.970000" cy="82.296000" r="0.900000" /> 
<circle cx="140.970000" cy="84.836000" r="0.900000" /> 
<circle cx="140.970000" cy="87.376000" r="0.900000" /> 
<circle cx="140.970000" cy="89.916000" r="0.900000" /> 
</g>
<g >
</g>
<g style="fill:#000000; fill-opacity:1.000000; 
stroke:#000000; stroke-width:0.000000; stroke-opacity:1; 
stroke-linecap:round; stroke-linejoin:round;">
<path style="fill:#000000; fill-opacity:1.000000; 
stroke:#000000; stroke-width:0.000000; stroke-opacity:1; 
stroke-linecap:round; stroke-linejoin:round;fill-rule:evenodd;"
d="M 168.044355,95.668755
168.009000,95.683400
166.509000,95.683400
166.473645,95.668755
166.459000,95.633400
166.459000,95.133400
166.464089,95.121114
166.464089,95.062243
166.466114,95.048156
166.506209,94.911605
166.512121,94.898660
166.589062,94.778938
166.598382,94.768183
166.705937,94.674986
166.717909,94.667291
166.847363,94.608172
166.861018,94.604163
167.001884,94.583909
167.009000,94.583400
167.509000,94.583400
167.516116,94.583909
167.656982,94.604163
167.670637,94.608172
167.800091,94.667291
167.812063,94.674986
167.919618,94.768183
167.928938,94.778938
168.005879,94.898660
168.011791,94.911605
168.051886,95.048156
168.053911,95.062243
168.053911,95.121114
168.059000,95.133400
168.059000,95.633400
Z" /> 
<path style="fill:#000000; fill-opacity:1.000000; 
stroke:#000000; stroke-width:0.000000; stroke-opacity:1; 
stroke-linecap:round; stroke-linejoin:round;fill-rule:evenodd;"
d="M 168.053911,96.445686
168.053911,96.504557
168.051886,96.518644
168.011791,96.655195
168.005879,96.668140
167.928938,96.787862
167.919618,96.798617
167.812063,96.891814
167.800091,96.899509
167.670637,96.958628
167.656982,96.962637
167.516116,96.982891
167.509000,96.983400
167.009000,96.983400
167.001884,96.982891
166.861018,96.962637
166.847363,96.958628
166.717909,96.899509
166.705937,96.891814
166.598382,96.798617
166.589062,96.787862
166.512121,96.668140
166.506209,96.655195
166.466114,96.518644
166.464089,96.504557
166.464089,96.445686
166.459000,96.433400
166.459000,95.933400
166.473645,95.898045
166.509000,95.883400
168.009000,95.883400
168.044355,95.898045
168.059000,95.933400
168.059000,96.433400
Z" /> 
</g>
<g >
</g>
<g style="fill:#000000; fill-opacity:1.000000; 
stroke:#000000; stroke-width:0.000000; stroke-opacity:1; 
stroke-linecap:round; stroke-linejoin:round;">
<path style="fill:#000000; fill-opacity:1.000000; 
stroke:#000000; stroke-width:0.000000; stroke-opacity:1; 
stroke-linecap:round; stroke-linejoin:round;fill-rule:evenodd;"
d="M 164.895000,85.649750
164.902803,85.582496
164.946407,85.483741
165.022741,85.407407
165.121496,85.363803
165.188750,85.356000
165.676250,85.356000
165.743504,85.363803
165.842259,85.407407
165.918593,85.483741
165.962197,85.582496
165.970000,85.649750
165.970000,86.562250
165.962197,86.629504
165.918593,86.728259
165.842259,86.804593
165.743504,86.848197
165.676250,86.856000
165.188750,86.856000
165.121496,86.848197
165.022741,86.804593
164.946407,86.728259
164.902803,86.629504
164.895000,86.562250
Z" /> 
<path style="fill:#000000; fill-opacity:1.000000; 
stroke:#000000; stroke-width:0.000000; stroke-opacity:1; 
stroke-linecap:round; stroke-linejoin:round;fill-rule:evenodd;"
d="M 166.770000,85.649750
166.777803,85.582496
166.821407,85.483741
166.897741,85.407407
166.996496,85.363803
167.063750,85.356000
167.551250,85.356000
167.618504,85.363803
167.717259,85.407407
167.793593,85.483741
167.837197,85.582496
167.845000,85.649750
167.845000,86.562250
167.837197,86.629504
167.793593,86.728259
167.717259,86.804593
167.618504,86.848197
167.551250,86.856000
167.063750,86.856000
166.996496,86.848197
166.897741,86.804593
166.821407,86.728259
166.777803,86.629504
166.770000,86.562250
Z" /> 
</g>
<g >
</g>
<g style="fill:#000000; fill-opacity:1.000000; 
stroke:#000000; stroke-width:0.000000; stroke-opacity:1; 
stroke-linecap:round; stroke-linejoin:round;">
<path style="fill:#000000; fill-opacity:1.000000; 
stroke:#000000; stroke-width:0.000000; stroke-opacity:1; 
stroke-linecap:round; stroke-linejoin:round;fill-rule:evenodd;"
d="M 164.895000,83.363750
164.902803,83.296496
164.946407,83.197741
165.022741,83.121407
165.121496,83.077803
165.188750,83.070000
165.676250,83.070000
165.743504,83.077803
165.842259,83.121407
165.918593,83.197741
165.962197,83.296496
165.970000,83.363750
165.970000,84.276250
165.962197,84.343504
165.918593,84.442259
165.842259,84.518593
165.743504,84.562197
165.676250,84.570000
165.188750,84.570000
165.121496,84.562197
165.022741,84.518593
164.946407,84.442259
164.902803,84.343504
164.895000,84.276250
Z" /> 
<path style="fill:#000000; fill-opacity:1.000000; 
stroke:#000000; stroke-width:0.000000; stroke-opacity:1; 
stroke-linecap:round; stroke-linejoin:round;fill-rule:evenodd;"
d="M 166.770000,83.363750
166.777803,83.296496
166.821407,83.197741
166.897741,83.121407
166.996496,83.077803
167.063750,83.070000
167.551250,83.070000
167.618504,83.077803
167.717259,83.121407
167.793593,83.197741
167.837197,83.296496
167.845000,83.363750
167.845000,84.276250
167.837197,84.343504
167.793593,84.442259
167.717259,84.518593
167.618504,84.562197
167.551250,84.570000
167.063750,84.570000
166.996496,84.562197
166.897741,84.518593
166.821407,84.442259
166.777803,84.343504
166.770000,84.276250
Z" /> 
</g>
<g >
</g>
<g style="fill:#000000; fill-opacity:1.000000; 
stroke:#000000; stroke-width:0.000000; stroke-opacity:1; 
stroke-linecap:round; stroke-linejoin:round;">
<path style="fill:#000000; fill-opacity:1.000000; 
stroke:#000000; stroke-width:0.000000; stroke-opacity:1; 
stroke-linecap:round; stroke-linejoin:round;fill-rule:evenodd;"
d="M 160.433000,76.334250
160.425197,76.401504
160.381593,76.500259
160.305259,76.576593
160.206504,76.620197
160.139250,76.628000
159.651750,76.628000
159.584496,76.620197
159.485741,76.576593
159.409407,76.500259
159.365803,76.401504
159.358000,76.334250
159.358000,75.421750
159.365803,75.354496
159.409407,75.255741
159.485741,75.179407
159.584496,75.135803
159.651750,75.128000
160.139250,75.128000
160.206504,75.135803
160.305259,75.179407
160.381593,75.255741
160.425197,75.354496
160.433000,75.421750
Z" /> 
<path style="fill:#000000; fill-opacity:1.000000; 
stroke:#000000; stroke-width:0.000000; stroke-opacity:1; 
stroke-linecap:round; stroke-linejoin:round;fill-rule:evenodd;"
d="M 158.558000,76.334250
158.550197,76.401504
158.506593,76.500259
158.430259,76.576593
158.331504,76.620197
158.264250,76.628000
157.776750,76.628000
157.709496,76.620197
157.610741,76.576593
157.534407,76.500259
157.490803,76.401504
157.483000,76.334250
157.483000,75.421750
157.490803,75.354496
157.534407,75.255741
157.610741,75.179407
157.709496,75.135803
157.776750,75.128000
158.264250,75.128000
158.331504,75.135803
158.430259,75.179407
158.506593,75.255741
158.550197,75.354496
158.558000,75.421750
Z" /> 
</g>
<g >
</g>
<g style="fill:#000000; fill-opacity:1.000000; 
stroke:#000000; stroke-width:0.000000; stroke-opacity:1; 
stroke-linecap:round; stroke-linejoin:round;">
<path style="fill:#000000; fill-opacity:1.000000; 
stroke:#000000; stroke-width:0.000000; stroke-opacity:1; 
stroke-linecap:round; stroke-linejoin:round;fill-rule:evenodd;"
d="M 158.547750,97.233000
158.480496,97.225197
158.381741,97.181593
158.305407,97.105259
158.261803,97.006504
158.254000,96.939250
158.254000,96.451750
158.261803,96.384496
158.305407,96.285741
158.381741,96.209407
158.480496,96.165803
158.547750,96.158000
159.460250,96.158000
159.527504,96.165803
159.626259,96.209407
159.702593,96.285741
159.746197,96.384496
159.754000,96.451750
159.754000,96.939250
159.746197,97.006504
159.702593,97.105259
159.626259,97.181593
159.527504,97.225197
159.460250,97.233000
Z" /> 
<path style="fill:#000000; fill-opacity:1.000000; 
stroke:#000000; stroke-width:0.000000; stroke-opacity:1; 
stroke-linecap:round; stroke-linejoin:round;fill-rule:evenodd;"
d="M 158.547750,95.358000
158.480496,95.350197
158.381741,95.306593
158.305407,95.230259
158.261803,95.131504
158.254000,95.064250
158.254000,94.576750
158.261803,94.509496
158.305407,94.410741
158.381741,94.334407
158.480496,94.290803
158.547750,94.283000
159.460250,94.283000
159.527504,94.290803
159.626259,94.334407
159.702593,94.410741
159.746197,94.509496
159.754000,94.576750
159.754000,95.064250
159.746197,95.131504
159.702593,95.230259
159.626259,95.306593
159.527504,95.350197
159.460250,95.358000
Z" /> 
</g>
<g >
</g>
<g style="fill:#000000; fill-opacity:1.000000; 
stroke:#000000; stroke-width:0.000000; stroke-opacity:1; 
stroke-linecap:round; stroke-linejoin:round;">
<path style="fill:#000000; fill-opacity:1.000000; 
stroke:#000000; stroke-width:0.000000; stroke-opacity:1; 
stroke-linecap:round; stroke-linejoin:round;fill-rule:evenodd;"
d="M 145.210850,81.329000
145.278104,81.336803
145.376859,81.380407
145.453193,81.456741
145.496797,81.555496
145.504600,81.622750
145.504600,82.110250
145.496797,82.177504
145.453193,82.276259
145.376859,82.352593
145.278104,82.396197
145.210850,82.404000
144.298350,82.404000
144.231096,82.396197
144.132341,82.352593
144.056007,82.276259
144.012403,82.177504
144.004600,82.110250
144.004600,81.622750
144.012403,81.555496
144.056007,81.456741
144.132341,81.380407
144.231096,81.336803
144.298350,81.329000
Z" /> 
<path style="fill:#000000; fill-opacity:1.000000; 
stroke:#000000; stroke-width:0.000000; stroke-opacity:1; 
stroke-linecap:round; stroke-linejoin:round;fill-rule:evenodd;"
d="M 145.210850,83.204000
145.278104,83.211803
145.376859,83.255407
145.453193,83.331741
145.496797,83.430496
145.504600,83.497750
145.504600,83.985250
145.496797,84.052504
145.453193,84.151259
145.376859,84.227593
145.278104,84.271197
145.210850,84.279000
144.298350,84.279000
144.231096,84.271197
144.132341,84.227593
144.056007,84.151259
144.012403,84.052504
144.004600,83.985250
144.004600,83.497750
144.012403,83.430496
144.056007,83.331741
144.132341,83.255407
144.231096,83.211803
144.298350,83.204000
Z" /> 
</g>
<g >
</g>
<g style="fill:#000000; fill-opacity:1.000000; 
stroke:#000000; stroke-width:0.000000; stroke-opacity:1; 
stroke-linecap:round; stroke-linejoin:round;">
<path style="fill:#000000; fill-opacity:1.000000; 
stroke:#000000; stroke-width:0.000000; stroke-opacity:1; 
stroke-linecap:round; stroke-linejoin:round;fill-rule:evenodd;"
d="M 147.776250,68.699800
147.843504,68.707603
147.942259,68.751207
148.018593,68.827541
148.062197,68.926296
148.070000,68.993550
148.070000,69.481050
148.062197,69.548304
148.018593,69.647059
147.942259,69.723393
147.843504,69.766997
147.776250,69.774800
146.863750,69.774800
146.796496,69.766997
146.697741,69.723393
146.621407,69.647059
146.577803,69.548304
146.570000,69.481050
146.570000,68.993550
146.577803,68.926296
146.621407,68.827541
146.697741,68.751207
146.796496,68.707603
146.863750,68.699800
Z" /> 
<path style="fill:#000000; fill-opacity:1.000000; 
stroke:#000000; stroke-width:0.000000; stroke-opacity:1; 
stroke-linecap:round; stroke-linejoin:round;fill-rule:evenodd;"
d="M 147.776250,70.574800
147.843504,70.582603
147.942259,70.626207
148.018593,70.702541
148.062197,70.801296
148.070000,70.868550
148.070000,71.356050
148.062197,71.423304
148.018593,71.522059
147.942259,71.598393
147.843504,71.641997
147.776250,71.649800
146.863750,71.649800
146.796496,71.641997
146.697741,71.598393
146.621407,71.522059
146.577803,71.423304
146.570000,71.356050
146.570000,70.868550
146.577803,70.801296
146.621407,70.702541
146.697741,70.626207
146.796496,70.582603
146.863750,70.574800
Z" /> 
</g>
<g >
</g>
<g style="fill:#000000; fill-opacity:1.000000; 
stroke:#000000; stroke-width:0.000000; stroke-opacity:1; 
stroke-linecap:round; stroke-linejoin:round;">
<path style="fill:#000000; fill-opacity:1.000000; 
stroke:#000000; stroke-width:0.000000; stroke-opacity:1; 
stroke-linecap:round; stroke-linejoin:round;fill-rule:evenodd;"
d="M 145.236250,68.699800
145.303504,68.707603
145.402259,68.751207
145.478593,68.827541
145.522197,68.926296
145.530000,68.993550
145.530000,69.481050
145.522197,69.548304
145.478593,69.647059
145.402259,69.723393
145.303504,69.766997
145.236250,69.774800
144.323750,69.774800
144.256496,69.766997
144.157741,69.723393
144.081407,69.647059
144.037803,69.548304
144.030000,69.481050
144.030000,68.993550
144.037803,68.926296
144.081407,68.827541
144.157741,68.751207
144.256496,68.707603
144.323750,68.699800
Z" /> 
<path style="fill:#000000; fill-opacity:1.000000; 
stroke:#000000; stroke-width:0.000000; stroke-opacity:1; 
stroke-linecap:round; stroke-linejoin:round;fill-rule:evenodd;"
d="M 145.236250,70.574800
145.303504,70.582603
145.402259,70.626207
145.478593,70.702541
145.522197,70.801296
145.530000,70.868550
145.530000,71.356050
145.522197,71.423304
145.478593,71.522059
145.402259,71.598393
145.303504,71.641997
145.236250,71.649800
144.323750,71.649800
144.256496,71.641997
144.157741,71.598393
144.081407,71.522059
144.037803,71.423304
144.030000,71.356050
144.030000,70.868550
144.037803,70.801296
144.081407,70.702541
144.157741,70.626207
144.256496,70.582603
144.323750,70.574800
Z" /> 
</g>
<g >
</g>
<g style="fill:#000000; fill-opacity:1.000000; 
stroke:#000000; stroke-width:0.000000; stroke-opacity:1; 
stroke-linecap:round; stroke-linejoin:round;">
<path style="fill:#000000; fill-opacity:1.000000; 
stroke:#000000; stroke-width:0.000000; stroke-opacity:1; 
stroke-linecap:round; stroke-linejoin:round;fill-rule:evenodd;"
d="M 170.690250,86.075500
170.793096,86.095957
170.880285,86.154215
170.938543,86.241404
170.959000,86.344250
170.959000,86.781750
170.938543,86.884596
170.880285,86.971785
170.793096,87.030043
170.690250,87.050500
170.177750,87.050500
170.074904,87.030043
169.987715,86.971785
169.929457,86.884596
169.909000,86.781750
169.909000,86.344250
169.929457,86.241404
169.987715,86.154215
170.074904,86.095957
170.177750,86.075500
Z" /> 
<path style="fill:#000000; fill-opacity:1.000000; 
stroke:#000000; stroke-width:0.000000; stroke-opacity:1; 
stroke-linecap:round; stroke-linejoin:round;fill-rule:evenodd;"
d="M 170.690250,87.650500
170.793096,87.670957
170.880285,87.729215
170.938543,87.816404
170.959000,87.919250
170.959000,88.356750
170.938543,88.459596
170.880285,88.546785
170.793096,88.605043
170.690250,88.625500
170.177750,88.625500
170.074904,88.605043
169.987715,88.546785
169.929457,88.459596
169.909000,88.356750
169.909000,87.919250
169.929457,87.816404
169.987715,87.729215
170.074904,87.670957
170.177750,87.650500
Z" /> 
</g>
<g >
</g>
<g style="fill:#000000; fill-opacity:1.000000; 
stroke:#000000; stroke-width:0.000000; stroke-opacity:1; 
stroke-linecap:round; stroke-linejoin:round;">
<path style="fill:#000000; fill-opacity:1.000000; 
stroke:#000000; stroke-width:0.000000; stroke-opacity:1; 
stroke-linecap:round; stroke-linejoin:round;fill-rule:evenodd;"
d="M 161.977800,71.227800
161.973994,71.246934
161.963155,71.263155
161.946934,71.273994
161.927800,71.277800
160.027800,71.277800
160.008666,71.273994
159.992445,71.263155
159.981606,71.246934
159.977800,71.227800
159.977800,68.827800
159.981606,68.808666
159.992445,68.792445
160.008666,68.781606
160.027800,68.777800
161.927800,68.777800
161.946934,68.781606
161.963155,68.792445
161.973994,68.808666
161.977800,68.827800
Z" /> 
<path style="fill:#000000; fill-opacity:1.000000; 
stroke:#000000; stroke-width:0.000000; stroke-opacity:1; 
stroke-linecap:round; stroke-linejoin:round;fill-rule:evenodd;"
d="M 157.877800,71.227800
157.873994,71.246934
157.863155,71.263155
157.846934,71.273994
157.827800,71.277800
155.927800,71.277800
155.908666,71.273994
155.892445,71.263155
155.881606,71.246934
155.877800,71.227800
155.877800,68.827800
155.881606,68.808666
155.892445,68.792445
155.908666,68.781606
155.927800,68.777800
157.827800,68.777800
157.846934,68.781606
157.863155,68.792445
157.873994,68.808666
157.877800,68.827800
Z" /> 
</g>
<g >
</g>
<g style="fill:#000000; fill-opacity:1.000000; 
stroke:#000000; stroke-width:0.000000; stroke-opacity:1; 
stroke-linecap:round; stroke-linejoin:round;">
<path style="fill:#000000; fill-opacity:1.000000; 
stroke:#000000; stroke-width:0.000000; stroke-opacity:1; 
stroke-linecap:round; stroke-linejoin:round;fill-rule:evenodd;"
d="M 172.682000,82.384000
172.662866,82.380194
172.646645,82.369355
172.635806,82.353134
172.632000,82.334000
172.632000,80.734000
172.635806,80.714866
172.646645,80.698645
172.662866,80.687806
172.682000,80.684000
174.282000,80.684000
174.301134,80.687806
174.317355,80.698645
174.328194,80.714866
174.332000,80.734000
174.332000,82.334000
174.328194,82.353134
174.317355,82.369355
174.301134,82.380194
174.282000,82.384000
Z" /> 
<circle cx="173.482000" cy="84.034000" r="0.850000" /> 
</g>
<g style="fill:#000000; fill-opacity:1.000000; 
stroke:#000000; stroke-width:0.021200; stroke-opacity:1; 
stroke-linecap:round; stroke-linejoin:round;">
</g>
<g style="fill:#000000; fill-opacity:1.000000; 
stroke:#000000; stroke-width:0.000000; stroke-opacity:1; 
stroke-linecap:round; stroke-linejoin:round;">
<circle cx="175.482000" cy="84.034000" r="0.850000" /> 
</g>
<g style="fill:#000000; fill-opacity:1.000000; 
stroke:#000000; stroke-width:0.021200; stroke-opacity:1; 
stroke-linecap:round; stroke-linejoin:round;">
</g>
<g style="fill:#000000; fill-opacity:1.000000; 
stroke:#000000; stroke-width:0.000000; stroke-opacity:1; 
stroke-linecap:round; stroke-linejoin:round;">
<circle cx="175.482000" cy="81.534000" r="0.850000" /> 
</g>
<g style="fill:#000000; fill-opacity:1.000000; 
stroke:#000000; stroke-width:0.021200; stroke-opacity:1; 
stroke-linecap:round; stroke-linejoin:round;">
</g>
<g style="fill:#000000; fill-opacity:1.000000; 
stroke:#000000; stroke-width:0.000000; stroke-opacity:1; 
stroke-linecap:round; stroke-linejoin:round;">
<circle cx="178.342000" cy="76.784000" r="2.050000" /> 
</g>
<g style="fill:#000000; fill-opacity:1.000000; 
stroke:#000000; stroke-width:0.021200; stroke-opacity:1; 
stroke-linecap:round; stroke-linejoin:round;">
</g>
<g style="fill:#000000; fill-opacity:1.000000; 
stroke:#000000; stroke-width:0.000000; stroke-opacity:1; 
stroke-linecap:round; stroke-linejoin:round;">
<circle cx="178.342000" cy="88.784000" r="2.050000" /> 
</g>
<g style="fill:#000000; fill-opacity:1.000000; 
stroke:#000000; stroke-width:0.021200; stroke-opacity:1; 
stroke-linecap:round; stroke-linejoin:round;">
</g>
<g >
</g>
<g style="fill:#000000; fill-opacity:1.000000; 
stroke:#000000; stroke-width:0.021200; stroke-opacity:1; 
stroke-linecap:round; stroke-linejoin:round;">
</g>
<g style="fill:#000000; fill-opacity:1.000000; 
stroke:#000000; stroke-width:0.000000; stroke-opacity:1; 
stroke-linecap:round; stroke-linejoin:round;">
<path style="fill:#000000; fill-opacity:1.000000; 
stroke:#000000; stroke-width:0.000000; stroke-opacity:1; 
stroke-linecap:round; stroke-linejoin:round;fill-rule:evenodd;"
d="M 157.507000,80.752000
157.526134,80.755806
157.542355,80.766645
157.553194,80.782866
157.557000,80.802000
157.557000,82.402000
157.553194,82.421134
157.542355,82.437355
157.526134,82.448194
157.507000,82.452000
156.957000,82.452000
156.937866,82.448194
156.921645,82.437355
156.910806,82.421134
156.907000,82.402000
156.907000,80.802000
156.910806,80.782866
156.921645,80.766645
156.937866,80.755806
156.957000,80.752000
Z" /> 
<path style="fill:#000000; fill-opacity:1.000000; 
stroke:#000000; stroke-width:0.000000; stroke-opacity:1; 
stroke-linecap:round; stroke-linejoin:round;fill-rule:evenodd;"
d="M 156.707000,80.752000
156.726134,80.755806
156.742355,80.766645
156.753194,80.782866
156.757000,80.802000
156.757000,82.402000
156.753194,82.421134
156.742355,82.437355
156.726134,82.448194
156.707000,82.452000
156.157000,82.452000
156.137866,82.448194
156.121645,82.437355
156.110806,82.421134
156.107000,82.402000
156.107000,80.802000
156.110806,80.782866
156.121645,80.766645
156.137866,80.755806
156.157000,80.752000
Z" /> 
<path style="fill:#000000; fill-opacity:1.000000; 
stroke:#000000; stroke-width:0.000000; stroke-opacity:1; 
stroke-linecap:round; stroke-linejoin:round;fill-rule:evenodd;"
d="M 155.907000,80.752000
155.926134,80.755806
155.942355,80.766645
155.953194,80.782866
155.957000,80.802000
155.957000,82.402000
155.953194,82.421134
155.942355,82.437355
155.926134,82.448194
155.907000,82.452000
155.357000,82.452000
155.337866,82.448194
155.321645,82.437355
155.310806,82.421134
155.307000,82.402000
155.307000,80.802000
155.310806,80.782866
155.321645,80.766645
155.337866,80.755806
155.357000,80.752000
Z" /> 
<path style="fill:#000000; fill-opacity:1.000000; 
stroke:#000000; stroke-width:0.000000; stroke-opacity:1; 
stroke-linecap:round; stroke-linejoin:round;fill-rule:evenodd;"
d="M 155.107000,80.752000
155.126134,80.755806
155.142355,80.766645
155.153194,80.782866
155.157000,80.802000
155.157000,82.402000
155.153194,82.421134
155.142355,82.437355
155.126134,82.448194
155.107000,82.452000
154.557000,82.452000
154.537866,82.448194
154.521645,82.437355
154.510806,82.421134
154.507000,82.402000
154.507000,80.802000
154.510806,80.782866
154.521645,80.766645
154.537866,80.755806
154.557000,80.752000
Z" /> 
<path style="fill:#000000; fill-opacity:1.000000; 
stroke:#000000; stroke-width:0.000000; stroke-opacity:1; 
stroke-linecap:round; stroke-linejoin:round;fill-rule:evenodd;"
d="M 154.307000,80.752000
154.326134,80.755806
154.342355,80.766645
154.353194,80.782866
154.357000,80.802000
154.357000,82.402000
154.353194,82.421134
154.342355,82.437355
154.326134,82.448194
154.307000,82.452000
153.757000,82.452000
153.737866,82.448194
153.721645,82.437355
153.710806,82.421134
153.707000,82.402000
153.707000,80.802000
153.710806,80.782866
153.721645,80.766645
153.737866,80.755806
153.757000,80.752000
Z" /> 
<path style="fill:#000000; fill-opacity:1.000000; 
stroke:#000000; stroke-width:0.000000; stroke-opacity:1; 
stroke-linecap:round; stroke-linejoin:round;fill-rule:evenodd;"
d="M 153.507000,80.752000
153.526134,80.755806
153.542355,80.766645
153.553194,80.782866
153.557000,80.802000
153.557000,82.402000
153.553194,82.421134
153.542355,82.437355
153.526134,82.448194
153.507000,82.452000
152.957000,82.452000
152.937866,82.448194
152.921645,82.437355
152.910806,82.421134
152.907000,82.402000
152.907000,80.802000
152.910806,80.782866
152.921645,80.766645
152.937866,80.755806
152.957000,80.752000
Z" /> 
<path style="fill:#000000; fill-opacity:1.000000; 
stroke:#000000; stroke-width:0.000000; stroke-opacity:1; 
stroke-linecap:round; stroke-linejoin:round;fill-rule:evenodd;"
d="M 152.707000,80.752000
152.726134,80.755806
152.742355,80.766645
152.753194,80.782866
152.757000,80.802000
152.757000,82.402000
152.753194,82.421134
152.742355,82.437355
152.726134,82.448194
152.707000,82.452000
152.157000,82.452000
152.137866,82.448194
152.121645,82.437355
152.110806,82.421134
152.107000,82.402000
152.107000,80.802000
152.110806,80.782866
152.121645,80.766645
152.137866,80.755806
152.157000,80.752000
Z" /> 
<path style="fill:#000000; fill-opacity:1.000000; 
stroke:#000000; stroke-width:0.000000; stroke-opacity:1; 
stroke-linecap:round; stroke-linejoin:round;fill-rule:evenodd;"
d="M 151.907000,80.752000
151.926134,80.755806
151.942355,80.766645
151.953194,80.782866
151.957000,80.802000
151.957000,82.402000
151.953194,82.421134
151.942355,82.437355
151.926134,82.448194
151.907000,82.452000
151.357000,82.452000
151.337866,82.448194
151.321645,82.437355
151.310806,82.421134
151.307000,82.402000
151.307000,80.802000
151.310806,80.782866
151.321645,80.766645
151.337866,80.755806
151.357000,80.752000
Z" /> 
<path style="fill:#000000; fill-opacity:1.000000; 
stroke:#000000; stroke-width:0.000000; stroke-opacity:1; 
stroke-linecap:round; stroke-linejoin:round;fill-rule:evenodd;"
d="M 149.332000,82.777000
149.335806,82.757866
149.346645,82.741645
149.362866,82.730806
149.382000,82.727000
150.982000,82.727000
151.001134,82.730806
151.017355,82.741645
151.028194,82.757866
151.032000,82.777000
151.032000,83.327000
151.028194,83.346134
151.017355,83.362355
151.001134,83.373194
150.982000,83.377000
149.382000,83.377000
149.362866,83.373194
149.346645,83.362355
149.335806,83.346134
149.332000,83.327000
Z" /> 
<path style="fill:#000000; fill-opacity:1.000000; 
stroke:#000000; stroke-width:0.000000; stroke-opacity:1; 
stroke-linecap:round; stroke-linejoin:round;fill-rule:evenodd;"
d="M 149.332000,83.577000
149.335806,83.557866
149.346645,83.541645
149.362866,83.530806
149.382000,83.527000
150.982000,83.527000
151.001134,83.530806
151.017355,83.541645
151.028194,83.557866
151.032000,83.577000
151.032000,84.127000
151.028194,84.146134
151.017355,84.162355
151.001134,84.173194
150.982000,84.177000
149.382000,84.177000
149.362866,84.173194
149.346645,84.162355
149.335806,84.146134
149.332000,84.127000
Z" /> 
<path style="fill:#000000; fill-opacity:1.000000; 
stroke:#000000; stroke-width:0.000000; stroke-opacity:1; 
stroke-linecap:round; stroke-linejoin:round;fill-rule:evenodd;"
d="M 149.332000,84.377000
149.335806,84.357866
149.346645,84.341645
149.362866,84.330806
149.382000,84.327000
150.982000,84.327000
151.001134,84.330806
151.017355,84.341645
151.028194,84.357866
151.032000,84.377000
151.032000,84.927000
151.028194,84.946134
151.017355,84.962355
151.001134,84.973194
150.982000,84.977000
149.382000,84.977000
149.362866,84.973194
149.346645,84.962355
149.335806,84.946134
149.332000,84.927000
Z" /> 
<path style="fill:#000000; fill-opacity:1.000000; 
stroke:#000000; stroke-width:0.000000; stroke-opacity:1; 
stroke-linecap:round; stroke-linejoin:round;fill-rule:evenodd;"
d="M 149.332000,85.177000
149.335806,85.157866
149.346645,85.141645
149.362866,85.130806
149.382000,85.127000
150.982000,85.127000
151.001134,85.130806
151.017355,85.141645
151.028194,85.157866
151.032000,85.177000
151.032000,85.727000
151.028194,85.746134
151.017355,85.762355
151.001134,85.773194
150.982000,85.777000
149.382000,85.777000
149.362866,85.773194
149.346645,85.762355
149.335806,85.746134
149.332000,85.727000
Z" /> 
<path style="fill:#000000; fill-opacity:1.000000; 
stroke:#000000; stroke-width:0.000000; stroke-opacity:1; 
stroke-linecap:round; stroke-linejoin:round;fill-rule:evenodd;"
d="M 149.332000,85.977000
149.335806,85.957866
149.346645,85.941645
149.362866,85.930806
149.382000,85.927000
150.982000,85.927000
151.001134,85.930806
151.017355,85.941645
151.028194,85.957866
151.032000,85.977000
151.032000,86.527000
151.028194,86.546134
151.017355,86.562355
151.001134,86.573194
150.982000,86.577000
149.382000,86.577000
149.362866,86.573194
149.346645,86.562355
149.335806,86.546134
149.332000,86.527000
Z" /> 
<path style="fill:#000000; fill-opacity:1.000000; 
stroke:#000000; stroke-width:0.000000; stroke-opacity:1; 
stroke-linecap:round; stroke-linejoin:round;fill-rule:evenodd;"
d="M 149.332000,86.777000
149.335806,86.757866
149.346645,86.741645
149.362866,86.730806
149.382000,86.727000
150.982000,86.727000
151.001134,86.730806
151.017355,86.741645
151.028194,86.757866
151.032000,86.777000
151.032000,87.327000
151.028194,87.346134
151.017355,87.362355
151.001134,87.373194
150.982000,87.377000
149.382000,87.377000
149.362866,87.373194
149.346645,87.362355
149.335806,87.346134
149.332000,87.327000
Z" /> 
<path style="fill:#000000; fill-opacity:1.000000; 
stroke:#000000; stroke-width:0.000000; stroke-opacity:1; 
stroke-linecap:round; stroke-linejoin:round;fill-rule:evenodd;"
d="M 149.332000,87.577000
149.335806,87.557866
149.346645,87.541645
149.362866,87.530806
149.382000,87.527000
150.982000,87.527000
151.001134,87.530806
151.017355,87.541645
151.028194,87.557866
151.032000,87.577000
151.032000,88.127000
151.028194,88.146134
151.017355,88.162355
151.001134,88.173194
150.982000,88.177000
149.382000,88.177000
149.362866,88.173194
149.346645,88.162355
149.335806,88.146134
149.332000,88.127000
Z" /> 
<path style="fill:#000000; fill-opacity:1.000000; 
stroke:#000000; stroke-width:0.000000; stroke-opacity:1; 
stroke-linecap:round; stroke-linejoin:round;fill-rule:evenodd;"
d="M 149.332000,88.377000
149.335806,88.357866
149.346645,88.341645
149.362866,88.330806
149.382000,88.327000
150.982000,88.327000
151.001134,88.330806
151.017355,88.341645
151.028194,88.357866
151.032000,88.377000
151.032000,88.927000
151.028194,88.946134
151.017355,88.962355
151.001134,88.973194
150.982000,88.977000
149.382000,88.977000
149.362866,88.973194
149.346645,88.962355
149.335806,88.946134
149.332000,88.927000
Z" /> 
<path style="fill:#000000; fill-opacity:1.000000; 
stroke:#000000; stroke-width:0.000000; stroke-opacity:1; 
stroke-linecap:round; stroke-linejoin:round;fill-rule:evenodd;"
d="M 151.907000,89.252000
151.926134,89.255806
151.942355,89.266645
151.953194,89.282866
151.957000,89.302000
151.957000,90.902000
151.953194,90.921134
151.942355,90.937355
151.926134,90.948194
151.907000,90.952000
151.357000,90.952000
151.337866,90.948194
151.321645,90.937355
151.310806,90.921134
151.307000,90.902000
151.307000,89.302000
151.310806,89.282866
151.321645,89.266645
151.337866,89.255806
151.357000,89.252000
Z" /> 
<path style="fill:#000000; fill-opacity:1.000000; 
stroke:#000000; stroke-width:0.000000; stroke-opacity:1; 
stroke-linecap:round; stroke-linejoin:round;fill-rule:evenodd;"
d="M 152.707000,89.252000
152.726134,89.255806
152.742355,89.266645
152.753194,89.282866
152.757000,89.302000
152.757000,90.902000
152.753194,90.921134
152.742355,90.937355
152.726134,90.948194
152.707000,90.952000
152.157000,90.952000
152.137866,90.948194
152.121645,90.937355
152.110806,90.921134
152.107000,90.902000
152.107000,89.302000
152.110806,89.282866
152.121645,89.266645
152.137866,89.255806
152.157000,89.252000
Z" /> 
<path style="fill:#000000; fill-opacity:1.000000; 
stroke:#000000; stroke-width:0.000000; stroke-opacity:1; 
stroke-linecap:round; stroke-linejoin:round;fill-rule:evenodd;"
d="M 153.507000,89.252000
153.526134,89.255806
153.542355,89.266645
153.553194,89.282866
153.557000,89.302000
153.557000,90.902000
153.553194,90.921134
153.542355,90.937355
153.526134,90.948194
153.507000,90.952000
152.957000,90.952000
152.937866,90.948194
152.921645,90.937355
152.910806,90.921134
152.907000,90.902000
152.907000,89.302000
152.910806,89.282866
152.921645,89.266645
152.937866,89.255806
152.957000,89.252000
Z" /> 
<path style="fill:#000000; fill-opacity:1.000000; 
stroke:#000000; stroke-width:0.000000; stroke-opacity:1; 
stroke-linecap:round; stroke-linejoin:round;fill-rule:evenodd;"
d="M 154.307000,89.252000
154.326134,89.255806
154.342355,89.266645
154.353194,89.282866
154.357000,89.302000
154.357000,90.902000
154.353194,90.921134
154.342355,90.937355
154.326134,90.948194
154.307000,90.952000
153.757000,90.952000
153.737866,90.948194
153.721645,90.937355
153.710806,90.921134
153.707000,90.902000
153.707000,89.302000
153.710806,89.282866
153.721645,89.266645
153.737866,89.255806
153.757000,89.252000
Z" /> 
<path style="fill:#000000; fill-opacity:1.000000; 
stroke:#000000; stroke-width:0.000000; stroke-opacity:1; 
stroke-linecap:round; stroke-linejoin:round;fill-rule:evenodd;"
d="M 155.107000,89.252000
155.126134,89.255806
155.142355,89.266645
155.153194,89.282866
155.157000,89.302000
155.157000,90.902000
155.153194,90.921134
155.142355,90.937355
155.126134,90.948194
155.107000,90.952000
154.557000,90.952000
154.537866,90.948194
154.521645,90.937355
154.510806,90.921134
154.507000,90.902000
154.507000,89.302000
154.510806,89.282866
154.521645,89.266645
154.537866,89.255806
154.557000,89.252000
Z" /> 
<path style="fill:#000000; fill-opacity:1.000000; 
stroke:#000000; stroke-width:0.000000; stroke-opacity:1; 
stroke-linecap:round; stroke-linejoin:round;fill-rule:evenodd;"
d="M 155.907000,89.252000
155.926134,89.255806
155.942355,89.266645
155.953194,89.282866
155.957000,89.302000
155.957000,90.902000
155.953194,90.921134
155.942355,90.937355
155.926134,90.948194
155.907000,90.952000
155.357000,90.952000
155.337866,90.948194
155.321645,90.937355
155.310806,90.921134
155.307000,90.902000
155.307000,89.302000
155.310806,89.282866
155.321645,89.266645
155.337866,89.255806
155.357000,89.252000
Z" /> 
<path style="fill:#000000; fill-opacity:1.000000; 
stroke:#000000; stroke-width:0.000000; stroke-opacity:1; 
stroke-linecap:round; stroke-linejoin:round;fill-rule:evenodd;"
d="M 156.707000,89.252000
156.726134,89.255806
156.742355,89.266645
156.753194,89.282866
156.757000,89.302000
156.757000,90.902000
156.753194,90.921134
156.742355,90.937355
156.726134,90.948194
156.707000,90.952000
156.157000,90.952000
156.137866,90.948194
156.121645,90.937355
156.110806,90.921134
156.107000,90.902000
156.107000,89.302000
156.110806,89.282866
156.121645,89.266645
156.137866,89.255806
156.157000,89.252000
Z" /> 
<path style="fill:#000000; fill-opacity:1.000000; 
stroke:#000000; stroke-width:0.000000; stroke-opacity:1; 
stroke-linecap:round; stroke-linejoin:round;fill-rule:evenodd;"
d="M 157.507000,89.252000
157.526134,89.255806
157.542355,89.266645
157.553194,89.282866
157.557000,89.302000
157.557000,90.902000
157.553194,90.921134
157.542355,90.937355
157.526134,90.948194
157.507000,90.952000
156.957000,90.952000
156.937866,90.948194
156.921645,90.937355
156.910806,90.921134
156.907000,90.902000
156.907000,89.302000
156.910806,89.282866
156.921645,89.266645
156.937866,89.255806
156.957000,89.252000
Z" /> 
<path style="fill:#000000; fill-opacity:1.000000; 
stroke:#000000; stroke-width:0.000000; stroke-opacity:1; 
stroke-linecap:round; stroke-linejoin:round;fill-rule:evenodd;"
d="M 157.832000,88.377000
157.835806,88.357866
157.846645,88.341645
157.862866,88.330806
157.882000,88.327000
159.482000,88.327000
159.501134,88.330806
159.517355,88.341645
159.528194,88.357866
159.532000,88.377000
159.532000,88.927000
159.528194,88.946134
159.517355,88.962355
159.501134,88.973194
159.482000,88.977000
157.882000,88.977000
157.862866,88.973194
157.846645,88.962355
157.835806,88.946134
157.832000,88.927000
Z" /> 
<path style="fill:#000000; fill-opacity:1.000000; 
stroke:#000000; stroke-width:0.000000; stroke-opacity:1; 
stroke-linecap:round; stroke-linejoin:round;fill-rule:evenodd;"
d="M 157.832000,87.577000
157.835806,87.557866
157.846645,87.541645
157.862866,87.530806
157.882000,87.527000
159.482000,87.527000
159.501134,87.530806
159.517355,87.541645
159.528194,87.557866
159.532000,87.577000
159.532000,88.127000
159.528194,88.146134
159.517355,88.162355
159.501134,88.173194
159.482000,88.177000
157.882000,88.177000
157.862866,88.173194
157.846645,88.162355
157.835806,88.146134
157.832000,88.127000
Z" /> 
<path style="fill:#000000; fill-opacity:1.000000; 
stroke:#000000; stroke-width:0.000000; stroke-opacity:1; 
stroke-linecap:round; stroke-linejoin:round;fill-rule:evenodd;"
d="M 157.832000,86.777000
157.835806,86.757866
157.846645,86.741645
157.862866,86.730806
157.882000,86.727000
159.482000,86.727000
159.501134,86.730806
159.517355,86.741645
159.528194,86.757866
159.532000,86.777000
159.532000,87.327000
159.528194,87.346134
159.517355,87.362355
159.501134,87.373194
159.482000,87.377000
157.882000,87.377000
157.862866,87.373194
157.846645,87.362355
157.835806,87.346134
157.832000,87.327000
Z" /> 
<path style="fill:#000000; fill-opacity:1.000000; 
stroke:#000000; stroke-width:0.000000; stroke-opacity:1; 
stroke-linecap:round; stroke-linejoin:round;fill-rule:evenodd;"
d="M 157.832000,85.977000
157.835806,85.957866
157.846645,85.941645
157.862866,85.930806
157.882000,85.927000
159.482000,85.927000
159.501134,85.930806
159.517355,85.941645
159.528194,85.957866
159.532000,85.977000
159.532000,86.527000
159.528194,86.546134
159.517355,86.562355
159.501134,86.573194
159.482000,86.577000
157.882000,86.577000
157.862866,86.573194
157.846645,86.562355
157.835806,86.546134
157.832000,86.527000
Z" /> 
<path style="fill:#000000; fill-opacity:1.000000; 
stroke:#000000; stroke-width:0.000000; stroke-opacity:1; 
stroke-linecap:round; stroke-linejoin:round;fill-rule:evenodd;"
d="M 157.832000,85.177000
157.835806,85.157866
157.846645,85.141645
157.862866,85.130806
157.882000,85.127000
159.482000,85.127000
159.501134,85.130806
159.517355,85.141645
159.528194,85.157866
159.532000,85.177000
159.532000,85.727000
159.528194,85.746134
159.517355,85.762355
159.501134,85.773194
159.482000,85.777000
157.882000,85.777000
157.862866,85.773194
157.846645,85.762355
157.835806,85.746134
157.832000,85.727000
Z" /> 
<path style="fill:#000000; fill-opacity:1.000000; 
stroke:#000000; stroke-width:0.000000; stroke-opacity:1; 
stroke-linecap:round; stroke-linejoin:round;fill-rule:evenodd;"
d="M 157.832000,84.377000
157.835806,84.357866
157.846645,84.341645
157.862866,84.330806
157.882000,84.327000
159.482000,84.327000
159.501134,84.330806
159.517355,84.341645
159.528194,84.357866
159.532000,84.377000
159.532000,84.927000
159.528194,84.946134
159.517355,84.962355
159.501134,84.973194
159.482000,84.977000
157.882000,84.977000
157.862866,84.973194
157.846645,84.962355
157.835806,84.946134
157.832000,84.927000
Z" /> 
<path style="fill:#000000; fill-opacity:1.000000; 
stroke:#000000; stroke-width:0.000000; stroke-opacity:1; 
stroke-linecap:round; stroke-linejoin:round;fill-rule:evenodd;"
d="M 157.832000,83.577000
157.835806,83.557866
157.846645,83.541645
157.862866,83.530806
157.882000,83.527000
159.482000,83.527000
159.501134,83.530806
159.517355,83.541645
159.528194,83.557866
159.532000,83.577000
159.532000,84.127000
159.528194,84.146134
159.517355,84.162355
159.501134,84.173194
159.482000,84.177000
157.882000,84.177000
157.862866,84.173194
157.846645,84.162355
157.835806,84.146134
157.832000,84.127000
Z" /> 
<path style="fill:#000000; fill-opacity:1.000000; 
stroke:#000000; stroke-width:0.000000; stroke-opacity:1; 
stroke-linecap:round; stroke-linejoin:round;fill-rule:evenodd;"
d="M 157.832000,82.777000
157.835806,82.757866
157.846645,82.741645
157.862866,82.730806
157.882000,82.727000
159.482000,82.727000
159.501134,82.730806
159.517355,82.741645
159.528194,82.757866
159.532000,82.777000
159.532000,83.327000
159.528194,83.346134
159.517355,83.362355
159.501134,83.373194
159.482000,83.377000
157.882000,83.377000
157.862866,83.373194
157.846645,83.362355
157.835806,83.346134
157.832000,83.327000
Z" /> 
</g>
<g >
</g>
<g style="fill:#000000; fill-opacity:1.000000; 
stroke:#000000; stroke-width:0.000000; stroke-opacity:1; 
stroke-linecap:round; stroke-linejoin:round;">
<path style="fill:#000000; fill-opacity:1.000000; 
stroke:#000000; stroke-width:0.000000; stroke-opacity:1; 
stroke-linecap:round; stroke-linejoin:round;fill-rule:evenodd;"
d="M 170.177750,83.596400
170.074904,83.575943
169.987715,83.517685
169.929457,83.430496
169.909000,83.327650
169.909000,82.890150
169.929457,82.787304
169.987715,82.700115
170.074904,82.641857
170.177750,82.621400
170.690250,82.621400
170.793096,82.641857
170.880285,82.700115
170.938543,82.787304
170.959000,82.890150
170.959000,83.327650
170.938543,83.430496
170.880285,83.517685
170.793096,83.575943
170.690250,83.596400
Z" /> 
<path style="fill:#000000; fill-opacity:1.000000; 
stroke:#000000; stroke-width:0.000000; stroke-opacity:1; 
stroke-linecap:round; stroke-linejoin:round;fill-rule:evenodd;"
d="M 170.177750,82.021400
170.074904,82.000943
169.987715,81.942685
169.929457,81.855496
169.909000,81.752650
169.909000,81.315150
169.929457,81.212304
169.987715,81.125115
170.074904,81.066857
170.177750,81.046400
170.690250,81.046400
170.793096,81.066857
170.880285,81.125115
170.938543,81.212304
170.959000,81.315150
170.959000,81.752650
170.938543,81.855496
170.880285,81.942685
170.793096,82.000943
170.690250,82.021400
Z" /> 
</g>
<g >
</g>
<g style="fill:#000000; fill-opacity:1.000000; 
stroke:#000000; stroke-width:0.000000; stroke-opacity:1; 
stroke-linecap:round; stroke-linejoin:round;">
<path style="fill:#000000; fill-opacity:1.000000; 
stroke:#000000; stroke-width:0.000000; stroke-opacity:1; 
stroke-linecap:round; stroke-linejoin:round;fill-rule:evenodd;"
d="M 161.925950,83.542400
161.858696,83.534597
161.759941,83.490993
161.683607,83.414659
161.640003,83.315904
161.632200,83.248650
161.632200,82.761150
161.640003,82.693896
161.683607,82.595141
161.759941,82.518807
161.858696,82.475203
161.925950,82.467400
162.838450,82.467400
162.905704,82.475203
163.004459,82.518807
163.080793,82.595141
163.124397,82.693896
163.132200,82.761150
163.132200,83.248650
163.124397,83.315904
163.080793,83.414659
163.004459,83.490993
162.905704,83.534597
162.838450,83.542400
Z" /> 
<path style="fill:#000000; fill-opacity:1.000000; 
stroke:#000000; stroke-width:0.000000; stroke-opacity:1; 
stroke-linecap:round; stroke-linejoin:round;fill-rule:evenodd;"
d="M 161.925950,81.667400
161.858696,81.659597
161.759941,81.615993
161.683607,81.539659
161.640003,81.440904
161.632200,81.373650
161.632200,80.886150
161.640003,80.818896
161.683607,80.720141
161.759941,80.643807
161.858696,80.600203
161.925950,80.592400
162.838450,80.592400
162.905704,80.600203
163.004459,80.643807
163.080793,80.720141
163.124397,80.818896
163.132200,80.886150
163.132200,81.373650
163.124397,81.440904
163.080793,81.539659
163.004459,81.615993
162.905704,81.659597
162.838450,81.667400
Z" /> 
</g>
<g >
</g>
<g >
</g>
<g >
</g>
<g >
</g>
<g >
</g>
<g >
</g>
<g >
</g>
<g >
</g>
<g >
</g>
<g >
</g>
<g >
</g>
</g> 
</svg>
