<?xml version="1.0" standalone="no"?>
 <!DOCTYPE svg PUBLIC "-//W3C//DTD SVG 1.1//EN" 
 "http://www.w3.org/Graphics/SVG/1.1/DTD/svg11.dtd"> 
<svg
  xmlns:svg="http://www.w3.org/2000/svg"
  xmlns="http://www.w3.org/2000/svg"
  xmlns:xlink="http://www.w3.org/1999/xlink"
  version="1.1"
  width="6.505cm" height="3.765cm" viewBox="117.975 64.675 65.05 37.65">
<title>SVG Image created as t1-F_Paste.svg date 2024/09/17 12:57:36 </title>
  <desc>Image generated by PCBNEW </desc>
<g style="fill:#000000; fill-opacity:1.000000;stroke:#000000; stroke-opacity:1.000000;
stroke-linecap:round; stroke-linejoin:round;"
 transform="translate(0 0) scale(1 1)">
<path style="fill:#000000; fill-opacity:1.000000; stroke:none;fill-rule:evenodd;"
d="M 131.835400,89.894400
131.931071,89.913430
132.012177,89.967623
132.066370,90.048729
132.085400,90.144400
132.085400,93.144400
132.066370,93.240071
132.012177,93.321177
131.931071,93.375370
131.835400,93.394400
129.835400,93.394400
129.739729,93.375370
129.658623,93.321177
129.604430,93.240071
129.585400,93.144400
129.585400,90.144400
129.604430,90.048729
129.658623,89.967623
129.739729,89.913430
129.835400,89.894400
Z" /> 
<path style="fill:#000000; fill-opacity:1.000000; stroke:none;fill-rule:evenodd;"
d="M 131.835400,96.394400
131.931071,96.413430
132.012177,96.467623
132.066370,96.548729
132.085400,96.644400
132.085400,99.644400
132.066370,99.740071
132.012177,99.821177
131.931071,99.875370
131.835400,99.894400
129.835400,99.894400
129.739729,99.875370
129.658623,99.821177
129.604430,99.740071
129.585400,99.644400
129.585400,96.644400
129.604430,96.548729
129.658623,96.467623
129.739729,96.413430
129.835400,96.394400
Z" /> 
<path style="fill:#000000; fill-opacity:1.000000; stroke:none;fill-rule:evenodd;"
d="M 121.575000,90.443750
121.593554,90.350471
121.646393,90.271393
121.725471,90.218554
121.818750,90.200000
122.306250,90.200000
122.399529,90.218554
122.478607,90.271393
122.531446,90.350471
122.550000,90.443750
122.550000,91.356250
122.531446,91.449529
122.478607,91.528607
122.399529,91.581446
122.306250,91.600000
121.818750,91.600000
121.725471,91.581446
121.646393,91.528607
121.593554,91.449529
121.575000,91.356250
Z" /> 
<path style="fill:#000000; fill-opacity:1.000000; stroke:none;fill-rule:evenodd;"
d="M 123.450000,90.443750
123.468554,90.350471
123.521393,90.271393
123.600471,90.218554
123.693750,90.200000
124.181250,90.200000
124.274529,90.218554
124.353607,90.271393
124.406446,90.350471
124.425000,90.443750
124.425000,91.356250
124.406446,91.449529
124.353607,91.528607
124.274529,91.581446
124.181250,91.600000
123.693750,91.600000
123.600471,91.581446
123.521393,91.528607
123.468554,91.449529
123.450000,91.356250
Z" /> 
<path style="fill:#000000; fill-opacity:1.000000; stroke:none;fill-rule:evenodd;"
d="M 162.716250,73.691000
162.809529,73.709554
162.888607,73.762393
162.941446,73.841471
162.960000,73.934750
162.960000,74.422250
162.941446,74.515529
162.888607,74.594607
162.809529,74.647446
162.716250,74.666000
161.803750,74.666000
161.710471,74.647446
161.631393,74.594607
161.578554,74.515529
161.560000,74.422250
161.560000,73.934750
161.578554,73.841471
161.631393,73.762393
161.710471,73.709554
161.803750,73.691000
Z" /> 
<path style="fill:#000000; fill-opacity:1.000000; stroke:none;fill-rule:evenodd;"
d="M 162.716250,75.566000
162.809529,75.584554
162.888607,75.637393
162.941446,75.716471
162.960000,75.809750
162.960000,76.297250
162.941446,76.390529
162.888607,76.469607
162.809529,76.522446
162.716250,76.541000
161.803750,76.541000
161.710471,76.522446
161.631393,76.469607
161.578554,76.390529
161.560000,76.297250
161.560000,75.809750
161.578554,75.716471
161.631393,75.637393
161.710471,75.584554
161.803750,75.566000
Z" /> 
<path style="fill:#000000; fill-opacity:1.000000; stroke:none;fill-rule:evenodd;"
d="M 156.366250,73.691000
156.459529,73.709554
156.538607,73.762393
156.591446,73.841471
156.610000,73.934750
156.610000,74.422250
156.591446,74.515529
156.538607,74.594607
156.459529,74.647446
156.366250,74.666000
155.453750,74.666000
155.360471,74.647446
155.281393,74.594607
155.228554,74.515529
155.210000,74.422250
155.210000,73.934750
155.228554,73.841471
155.281393,73.762393
155.360471,73.709554
155.453750,73.691000
Z" /> 
<path style="fill:#000000; fill-opacity:1.000000; stroke:none;fill-rule:evenodd;"
d="M 156.366250,75.566000
156.459529,75.584554
156.538607,75.637393
156.591446,75.716471
156.610000,75.809750
156.610000,76.297250
156.591446,76.390529
156.538607,76.469607
156.459529,76.522446
156.366250,76.541000
155.453750,76.541000
155.360471,76.522446
155.281393,76.469607
155.228554,76.390529
155.210000,76.297250
155.210000,75.809750
155.228554,75.716471
155.281393,75.637393
155.360471,75.584554
155.453750,75.566000
Z" /> 
<path style="fill:#000000; fill-opacity:1.000000; stroke:none;fill-rule:evenodd;"
d="M 163.778250,87.729000
163.871529,87.747554
163.950607,87.800393
164.003446,87.879471
164.022000,87.972750
164.022000,88.460250
164.003446,88.553529
163.950607,88.632607
163.871529,88.685446
163.778250,88.704000
162.865750,88.704000
162.772471,88.685446
162.693393,88.632607
162.640554,88.553529
162.622000,88.460250
162.622000,87.972750
162.640554,87.879471
162.693393,87.800393
162.772471,87.747554
162.865750,87.729000
Z" /> 
<path style="fill:#000000; fill-opacity:1.000000; stroke:none;fill-rule:evenodd;"
d="M 163.778250,89.604000
163.871529,89.622554
163.950607,89.675393
164.003446,89.754471
164.022000,89.847750
164.022000,90.335250
164.003446,90.428529
163.950607,90.507607
163.871529,90.560446
163.778250,90.579000
162.865750,90.579000
162.772471,90.560446
162.693393,90.507607
162.640554,90.428529
162.622000,90.335250
162.622000,89.847750
162.640554,89.754471
162.693393,89.675393
162.772471,89.622554
162.865750,89.604000
Z" /> 
<path style="fill:#000000; fill-opacity:1.000000; stroke:none;fill-rule:evenodd;"
d="M 152.549800,78.410750
152.568354,78.317471
152.621193,78.238393
152.700271,78.185554
152.793550,78.167000
153.281050,78.167000
153.374329,78.185554
153.453407,78.238393
153.506246,78.317471
153.524800,78.410750
153.524800,79.323250
153.506246,79.416529
153.453407,79.495607
153.374329,79.548446
153.281050,79.567000
152.793550,79.567000
152.700271,79.548446
152.621193,79.495607
152.568354,79.416529
152.549800,79.323250
Z" /> 
<path style="fill:#000000; fill-opacity:1.000000; stroke:none;fill-rule:evenodd;"
d="M 154.424800,78.410750
154.443354,78.317471
154.496193,78.238393
154.575271,78.185554
154.668550,78.167000
155.156050,78.167000
155.249329,78.185554
155.328407,78.238393
155.381246,78.317471
155.399800,78.410750
155.399800,79.323250
155.381246,79.416529
155.328407,79.495607
155.249329,79.548446
155.156050,79.567000
154.668550,79.567000
154.575271,79.548446
154.496193,79.495607
154.443354,79.416529
154.424800,79.323250
Z" /> 
<path style="fill:#000000; fill-opacity:1.000000; stroke:none;fill-rule:evenodd;"
d="M 144.298350,80.393600
144.205071,80.375046
144.125993,80.322207
144.073154,80.243129
144.054600,80.149850
144.054600,79.662350
144.073154,79.569071
144.125993,79.489993
144.205071,79.437154
144.298350,79.418600
145.210850,79.418600
145.304129,79.437154
145.383207,79.489993
145.436046,79.569071
145.454600,79.662350
145.454600,80.149850
145.436046,80.243129
145.383207,80.322207
145.304129,80.375046
145.210850,80.393600
Z" /> 
<path style="fill:#000000; fill-opacity:1.000000; stroke:none;fill-rule:evenodd;"
d="M 144.298350,78.518600
144.205071,78.500046
144.125993,78.447207
144.073154,78.368129
144.054600,78.274850
144.054600,77.787350
144.073154,77.694071
144.125993,77.614993
144.205071,77.562154
144.298350,77.543600
145.210850,77.543600
145.304129,77.562154
145.383207,77.614993
145.436046,77.694071
145.454600,77.787350
145.454600,78.274850
145.436046,78.368129
145.383207,78.447207
145.304129,78.500046
145.210850,78.518600
Z" /> 
<path style="fill:#000000; fill-opacity:1.000000; stroke:none;fill-rule:evenodd;"
d="M 162.189000,98.799000
162.093329,98.779970
162.012223,98.725777
161.958030,98.644671
161.939000,98.549000
161.939000,97.799000
161.958030,97.703329
162.012223,97.622223
162.093329,97.568030
162.189000,97.549000
163.439000,97.549000
163.534671,97.568030
163.615777,97.622223
163.669970,97.703329
163.689000,97.799000
163.689000,98.549000
163.669970,98.644671
163.615777,98.725777
163.534671,98.779970
163.439000,98.799000
Z" /> 
<path style="fill:#000000; fill-opacity:1.000000; stroke:none;fill-rule:evenodd;"
d="M 162.189000,95.999000
162.093329,95.979970
162.012223,95.925777
161.958030,95.844671
161.939000,95.749000
161.939000,94.999000
161.958030,94.903329
162.012223,94.822223
162.093329,94.768030
162.189000,94.749000
163.439000,94.749000
163.534671,94.768030
163.615777,94.822223
163.669970,94.903329
163.689000,94.999000
163.689000,95.749000
163.669970,95.844671
163.615777,95.925777
163.534671,95.979970
163.439000,95.999000
Z" /> 
<path style="fill:#000000; fill-opacity:1.000000; stroke:none;fill-rule:evenodd;"
d="M 146.863750,76.375000
146.770471,76.356446
146.691393,76.303607
146.638554,76.224529
146.620000,76.131250
146.620000,75.643750
146.638554,75.550471
146.691393,75.471393
146.770471,75.418554
146.863750,75.400000
147.776250,75.400000
147.869529,75.418554
147.948607,75.471393
148.001446,75.550471
148.020000,75.643750
148.020000,76.131250
148.001446,76.224529
147.948607,76.303607
147.869529,76.356446
147.776250,76.375000
Z" /> 
<path style="fill:#000000; fill-opacity:1.000000; stroke:none;fill-rule:evenodd;"
d="M 146.863750,74.500000
146.770471,74.481446
146.691393,74.428607
146.638554,74.349529
146.620000,74.256250
146.620000,73.768750
146.638554,73.675471
146.691393,73.596393
146.770471,73.543554
146.863750,73.525000
147.776250,73.525000
147.869529,73.543554
147.948607,73.596393
148.001446,73.675471
148.020000,73.768750
148.020000,74.256250
148.001446,74.349529
147.948607,74.428607
147.869529,74.481446
147.776250,74.500000
Z" /> 
<path style="fill:#000000; fill-opacity:1.000000; stroke:none;fill-rule:evenodd;"
d="M 144.323750,76.375000
144.230471,76.356446
144.151393,76.303607
144.098554,76.224529
144.080000,76.131250
144.080000,75.643750
144.098554,75.550471
144.151393,75.471393
144.230471,75.418554
144.323750,75.400000
145.236250,75.400000
145.329529,75.418554
145.408607,75.471393
145.461446,75.550471
145.480000,75.643750
145.480000,76.131250
145.461446,76.224529
145.408607,76.303607
145.329529,76.356446
145.236250,76.375000
Z" /> 
<path style="fill:#000000; fill-opacity:1.000000; stroke:none;fill-rule:evenodd;"
d="M 144.323750,74.500000
144.230471,74.481446
144.151393,74.428607
144.098554,74.349529
144.080000,74.256250
144.080000,73.768750
144.098554,73.675471
144.151393,73.596393
144.230471,73.543554
144.323750,73.525000
145.236250,73.525000
145.329529,73.543554
145.408607,73.596393
145.461446,73.675471
145.480000,73.768750
145.480000,74.256250
145.461446,74.349529
145.408607,74.428607
145.329529,74.481446
145.236250,74.500000
Z" /> 
<path style="fill:#000000; fill-opacity:1.000000; stroke:none;fill-rule:evenodd;"
d="M 165.194000,75.766000
165.213030,75.670329
165.267223,75.589223
165.348329,75.535030
165.444000,75.516000
166.069000,75.516000
166.164671,75.535030
166.245777,75.589223
166.299970,75.670329
166.319000,75.766000
166.319000,78.666000
166.299970,78.761671
166.245777,78.842777
166.164671,78.896970
166.069000,78.916000
165.444000,78.916000
165.348329,78.896970
165.267223,78.842777
165.213030,78.761671
165.194000,78.666000
Z" /> 
<path style="fill:#000000; fill-opacity:1.000000; stroke:none;fill-rule:evenodd;"
d="M 169.469000,75.766000
169.488030,75.670329
169.542223,75.589223
169.623329,75.535030
169.719000,75.516000
170.344000,75.516000
170.439671,75.535030
170.520777,75.589223
170.574970,75.670329
170.594000,75.766000
170.594000,78.666000
170.574970,78.761671
170.520777,78.842777
170.439671,78.896970
170.344000,78.916000
169.719000,78.916000
169.623329,78.896970
169.542223,78.842777
169.488030,78.761671
169.469000,78.666000
Z" /> 
<path style="fill:#000000; fill-opacity:1.000000; stroke:none;fill-rule:evenodd;"
d="M 169.319000,91.134250
169.300446,91.227529
169.247607,91.306607
169.168529,91.359446
169.075250,91.378000
168.587750,91.378000
168.494471,91.359446
168.415393,91.306607
168.362554,91.227529
168.344000,91.134250
168.344000,90.221750
168.362554,90.128471
168.415393,90.049393
168.494471,89.996554
168.587750,89.978000
169.075250,89.978000
169.168529,89.996554
169.247607,90.049393
169.300446,90.128471
169.319000,90.221750
Z" /> 
<path style="fill:#000000; fill-opacity:1.000000; stroke:none;fill-rule:evenodd;"
d="M 167.444000,91.134250
167.425446,91.227529
167.372607,91.306607
167.293529,91.359446
167.200250,91.378000
166.712750,91.378000
166.619471,91.359446
166.540393,91.306607
166.487554,91.227529
166.469000,91.134250
166.469000,90.221750
166.487554,90.128471
166.540393,90.049393
166.619471,89.996554
166.712750,89.978000
167.200250,89.978000
167.293529,89.996554
167.372607,90.049393
167.425446,90.128471
167.444000,90.221750
Z" /> 
<path style="fill:#000000; fill-opacity:1.000000; stroke:none;fill-rule:evenodd;"
d="M 124.100000,77.200000
122.100000,77.200000
122.100000,74.200000
124.100000,74.200000
Z" /> 
<path style="fill:#000000; fill-opacity:1.000000; stroke:none;fill-rule:evenodd;"
d="M 130.100000,77.200000
128.100000,77.200000
128.100000,74.200000
130.100000,74.200000
Z" /> 
<path style="fill:#000000; fill-opacity:1.000000; stroke:none;fill-rule:evenodd;"
d="M 130.100000,88.200000
128.100000,88.200000
128.100000,85.200000
130.100000,85.200000
Z" /> 
<path style="fill:#000000; fill-opacity:1.000000; stroke:none;fill-rule:evenodd;"
d="M 124.100000,88.200000
122.100000,88.200000
122.100000,85.200000
124.100000,85.200000
Z" /> 
<path style="fill:#000000; fill-opacity:1.000000; stroke:none;fill-rule:evenodd;"
d="M 164.945000,85.649750
164.963554,85.556471
165.016393,85.477393
165.095471,85.424554
165.188750,85.406000
165.676250,85.406000
165.769529,85.424554
165.848607,85.477393
165.901446,85.556471
165.920000,85.649750
165.920000,86.562250
165.901446,86.655529
165.848607,86.734607
165.769529,86.787446
165.676250,86.806000
165.188750,86.806000
165.095471,86.787446
165.016393,86.734607
164.963554,86.655529
164.945000,86.562250
Z" /> 
<path style="fill:#000000; fill-opacity:1.000000; stroke:none;fill-rule:evenodd;"
d="M 166.820000,85.649750
166.838554,85.556471
166.891393,85.477393
166.970471,85.424554
167.063750,85.406000
167.551250,85.406000
167.644529,85.424554
167.723607,85.477393
167.776446,85.556471
167.795000,85.649750
167.795000,86.562250
167.776446,86.655529
167.723607,86.734607
167.644529,86.787446
167.551250,86.806000
167.063750,86.806000
166.970471,86.787446
166.891393,86.734607
166.838554,86.655529
166.820000,86.562250
Z" /> 
<path style="fill:#000000; fill-opacity:1.000000; stroke:none;fill-rule:evenodd;"
d="M 164.945000,83.363750
164.963554,83.270471
165.016393,83.191393
165.095471,83.138554
165.188750,83.120000
165.676250,83.120000
165.769529,83.138554
165.848607,83.191393
165.901446,83.270471
165.920000,83.363750
165.920000,84.276250
165.901446,84.369529
165.848607,84.448607
165.769529,84.501446
165.676250,84.520000
165.188750,84.520000
165.095471,84.501446
165.016393,84.448607
164.963554,84.369529
164.945000,84.276250
Z" /> 
<path style="fill:#000000; fill-opacity:1.000000; stroke:none;fill-rule:evenodd;"
d="M 166.820000,83.363750
166.838554,83.270471
166.891393,83.191393
166.970471,83.138554
167.063750,83.120000
167.551250,83.120000
167.644529,83.138554
167.723607,83.191393
167.776446,83.270471
167.795000,83.363750
167.795000,84.276250
167.776446,84.369529
167.723607,84.448607
167.644529,84.501446
167.551250,84.520000
167.063750,84.520000
166.970471,84.501446
166.891393,84.448607
166.838554,84.369529
166.820000,84.276250
Z" /> 
<path style="fill:#000000; fill-opacity:1.000000; stroke:none;fill-rule:evenodd;"
d="M 160.383000,76.334250
160.364446,76.427529
160.311607,76.506607
160.232529,76.559446
160.139250,76.578000
159.651750,76.578000
159.558471,76.559446
159.479393,76.506607
159.426554,76.427529
159.408000,76.334250
159.408000,75.421750
159.426554,75.328471
159.479393,75.249393
159.558471,75.196554
159.651750,75.178000
160.139250,75.178000
160.232529,75.196554
160.311607,75.249393
160.364446,75.328471
160.383000,75.421750
Z" /> 
<path style="fill:#000000; fill-opacity:1.000000; stroke:none;fill-rule:evenodd;"
d="M 158.508000,76.334250
158.489446,76.427529
158.436607,76.506607
158.357529,76.559446
158.264250,76.578000
157.776750,76.578000
157.683471,76.559446
157.604393,76.506607
157.551554,76.427529
157.533000,76.334250
157.533000,75.421750
157.551554,75.328471
157.604393,75.249393
157.683471,75.196554
157.776750,75.178000
158.264250,75.178000
158.357529,75.196554
158.436607,75.249393
158.489446,75.328471
158.508000,75.421750
Z" /> 
<path style="fill:#000000; fill-opacity:1.000000; stroke:none;fill-rule:evenodd;"
d="M 158.547750,97.183000
158.454471,97.164446
158.375393,97.111607
158.322554,97.032529
158.304000,96.939250
158.304000,96.451750
158.322554,96.358471
158.375393,96.279393
158.454471,96.226554
158.547750,96.208000
159.460250,96.208000
159.553529,96.226554
159.632607,96.279393
159.685446,96.358471
159.704000,96.451750
159.704000,96.939250
159.685446,97.032529
159.632607,97.111607
159.553529,97.164446
159.460250,97.183000
Z" /> 
<path style="fill:#000000; fill-opacity:1.000000; stroke:none;fill-rule:evenodd;"
d="M 158.547750,95.308000
158.454471,95.289446
158.375393,95.236607
158.322554,95.157529
158.304000,95.064250
158.304000,94.576750
158.322554,94.483471
158.375393,94.404393
158.454471,94.351554
158.547750,94.333000
159.460250,94.333000
159.553529,94.351554
159.632607,94.404393
159.685446,94.483471
159.704000,94.576750
159.704000,95.064250
159.685446,95.157529
159.632607,95.236607
159.553529,95.289446
159.460250,95.308000
Z" /> 
<path style="fill:#000000; fill-opacity:1.000000; stroke:none;fill-rule:evenodd;"
d="M 145.210850,81.379000
145.304129,81.397554
145.383207,81.450393
145.436046,81.529471
145.454600,81.622750
145.454600,82.110250
145.436046,82.203529
145.383207,82.282607
145.304129,82.335446
145.210850,82.354000
144.298350,82.354000
144.205071,82.335446
144.125993,82.282607
144.073154,82.203529
144.054600,82.110250
144.054600,81.622750
144.073154,81.529471
144.125993,81.450393
144.205071,81.397554
144.298350,81.379000
Z" /> 
<path style="fill:#000000; fill-opacity:1.000000; stroke:none;fill-rule:evenodd;"
d="M 145.210850,83.254000
145.304129,83.272554
145.383207,83.325393
145.436046,83.404471
145.454600,83.497750
145.454600,83.985250
145.436046,84.078529
145.383207,84.157607
145.304129,84.210446
145.210850,84.229000
144.298350,84.229000
144.205071,84.210446
144.125993,84.157607
144.073154,84.078529
144.054600,83.985250
144.054600,83.497750
144.073154,83.404471
144.125993,83.325393
144.205071,83.272554
144.298350,83.254000
Z" /> 
<path style="fill:#000000; fill-opacity:1.000000; stroke:none;fill-rule:evenodd;"
d="M 147.776250,68.749800
147.869529,68.768354
147.948607,68.821193
148.001446,68.900271
148.020000,68.993550
148.020000,69.481050
148.001446,69.574329
147.948607,69.653407
147.869529,69.706246
147.776250,69.724800
146.863750,69.724800
146.770471,69.706246
146.691393,69.653407
146.638554,69.574329
146.620000,69.481050
146.620000,68.993550
146.638554,68.900271
146.691393,68.821193
146.770471,68.768354
146.863750,68.749800
Z" /> 
<path style="fill:#000000; fill-opacity:1.000000; stroke:none;fill-rule:evenodd;"
d="M 147.776250,70.624800
147.869529,70.643354
147.948607,70.696193
148.001446,70.775271
148.020000,70.868550
148.020000,71.356050
148.001446,71.449329
147.948607,71.528407
147.869529,71.581246
147.776250,71.599800
146.863750,71.599800
146.770471,71.581246
146.691393,71.528407
146.638554,71.449329
146.620000,71.356050
146.620000,70.868550
146.638554,70.775271
146.691393,70.696193
146.770471,70.643354
146.863750,70.624800
Z" /> 
<path style="fill:#000000; fill-opacity:1.000000; stroke:none;fill-rule:evenodd;"
d="M 145.236250,68.749800
145.329529,68.768354
145.408607,68.821193
145.461446,68.900271
145.480000,68.993550
145.480000,69.481050
145.461446,69.574329
145.408607,69.653407
145.329529,69.706246
145.236250,69.724800
144.323750,69.724800
144.230471,69.706246
144.151393,69.653407
144.098554,69.574329
144.080000,69.481050
144.080000,68.993550
144.098554,68.900271
144.151393,68.821193
144.230471,68.768354
144.323750,68.749800
Z" /> 
<path style="fill:#000000; fill-opacity:1.000000; stroke:none;fill-rule:evenodd;"
d="M 145.236250,70.624800
145.329529,70.643354
145.408607,70.696193
145.461446,70.775271
145.480000,70.868550
145.480000,71.356050
145.461446,71.449329
145.408607,71.528407
145.329529,71.581246
145.236250,71.599800
144.323750,71.599800
144.230471,71.581246
144.151393,71.528407
144.098554,71.449329
144.080000,71.356050
144.080000,70.868550
144.098554,70.775271
144.151393,70.696193
144.230471,70.643354
144.323750,70.624800
Z" /> 
<path style="fill:#000000; fill-opacity:1.000000; stroke:none;fill-rule:evenodd;"
d="M 170.690250,86.125500
170.773962,86.142151
170.844930,86.189570
170.892349,86.260538
170.909000,86.344250
170.909000,86.781750
170.892349,86.865462
170.844930,86.936430
170.773962,86.983849
170.690250,87.000500
170.177750,87.000500
170.094038,86.983849
170.023070,86.936430
169.975651,86.865462
169.959000,86.781750
169.959000,86.344250
169.975651,86.260538
170.023070,86.189570
170.094038,86.142151
170.177750,86.125500
Z" /> 
<path style="fill:#000000; fill-opacity:1.000000; stroke:none;fill-rule:evenodd;"
d="M 170.690250,87.700500
170.773962,87.717151
170.844930,87.764570
170.892349,87.835538
170.909000,87.919250
170.909000,88.356750
170.892349,88.440462
170.844930,88.511430
170.773962,88.558849
170.690250,88.575500
170.177750,88.575500
170.094038,88.558849
170.023070,88.511430
169.975651,88.440462
169.959000,88.356750
169.959000,87.919250
169.975651,87.835538
170.023070,87.764570
170.094038,87.717151
170.177750,87.700500
Z" /> 
<path style="fill:#000000; fill-opacity:1.000000; stroke:none;fill-rule:evenodd;"
d="M 161.927800,68.827800
161.927800,71.227800
160.027800,71.227800
160.027800,68.827800
Z" /> 
<path style="fill:#000000; fill-opacity:1.000000; stroke:none;fill-rule:evenodd;"
d="M 157.827800,68.827800
157.827800,71.227800
155.927800,71.227800
155.927800,68.827800
Z" /> 
<path style="fill:#000000; fill-opacity:1.000000; stroke:none;fill-rule:evenodd;"
d="M 156.957000,80.802000
157.507000,80.802000
157.507000,82.402000
156.957000,82.402000
Z" /> 
<path style="fill:#000000; fill-opacity:1.000000; stroke:none;fill-rule:evenodd;"
d="M 156.157000,80.802000
156.707000,80.802000
156.707000,82.402000
156.157000,82.402000
Z" /> 
<path style="fill:#000000; fill-opacity:1.000000; stroke:none;fill-rule:evenodd;"
d="M 155.357000,80.802000
155.907000,80.802000
155.907000,82.402000
155.357000,82.402000
Z" /> 
<path style="fill:#000000; fill-opacity:1.000000; stroke:none;fill-rule:evenodd;"
d="M 154.557000,80.802000
155.107000,80.802000
155.107000,82.402000
154.557000,82.402000
Z" /> 
<path style="fill:#000000; fill-opacity:1.000000; stroke:none;fill-rule:evenodd;"
d="M 153.757000,80.802000
154.307000,80.802000
154.307000,82.402000
153.757000,82.402000
Z" /> 
<path style="fill:#000000; fill-opacity:1.000000; stroke:none;fill-rule:evenodd;"
d="M 152.957000,80.802000
153.507000,80.802000
153.507000,82.402000
152.957000,82.402000
Z" /> 
<path style="fill:#000000; fill-opacity:1.000000; stroke:none;fill-rule:evenodd;"
d="M 152.157000,80.802000
152.707000,80.802000
152.707000,82.402000
152.157000,82.402000
Z" /> 
<path style="fill:#000000; fill-opacity:1.000000; stroke:none;fill-rule:evenodd;"
d="M 151.357000,80.802000
151.907000,80.802000
151.907000,82.402000
151.357000,82.402000
Z" /> 
<path style="fill:#000000; fill-opacity:1.000000; stroke:none;fill-rule:evenodd;"
d="M 149.382000,83.327000
149.382000,82.777000
150.982000,82.777000
150.982000,83.327000
Z" /> 
<path style="fill:#000000; fill-opacity:1.000000; stroke:none;fill-rule:evenodd;"
d="M 149.382000,84.127000
149.382000,83.577000
150.982000,83.577000
150.982000,84.127000
Z" /> 
<path style="fill:#000000; fill-opacity:1.000000; stroke:none;fill-rule:evenodd;"
d="M 149.382000,84.927000
149.382000,84.377000
150.982000,84.377000
150.982000,84.927000
Z" /> 
<path style="fill:#000000; fill-opacity:1.000000; stroke:none;fill-rule:evenodd;"
d="M 149.382000,85.727000
149.382000,85.177000
150.982000,85.177000
150.982000,85.727000
Z" /> 
<path style="fill:#000000; fill-opacity:1.000000; stroke:none;fill-rule:evenodd;"
d="M 149.382000,86.527000
149.382000,85.977000
150.982000,85.977000
150.982000,86.527000
Z" /> 
<path style="fill:#000000; fill-opacity:1.000000; stroke:none;fill-rule:evenodd;"
d="M 149.382000,87.327000
149.382000,86.777000
150.982000,86.777000
150.982000,87.327000
Z" /> 
<path style="fill:#000000; fill-opacity:1.000000; stroke:none;fill-rule:evenodd;"
d="M 149.382000,88.127000
149.382000,87.577000
150.982000,87.577000
150.982000,88.127000
Z" /> 
<path style="fill:#000000; fill-opacity:1.000000; stroke:none;fill-rule:evenodd;"
d="M 149.382000,88.927000
149.382000,88.377000
150.982000,88.377000
150.982000,88.927000
Z" /> 
<path style="fill:#000000; fill-opacity:1.000000; stroke:none;fill-rule:evenodd;"
d="M 151.357000,89.302000
151.907000,89.302000
151.907000,90.902000
151.357000,90.902000
Z" /> 
<path style="fill:#000000; fill-opacity:1.000000; stroke:none;fill-rule:evenodd;"
d="M 152.157000,89.302000
152.707000,89.302000
152.707000,90.902000
152.157000,90.902000
Z" /> 
<path style="fill:#000000; fill-opacity:1.000000; stroke:none;fill-rule:evenodd;"
d="M 152.957000,89.302000
153.507000,89.302000
153.507000,90.902000
152.957000,90.902000
Z" /> 
<path style="fill:#000000; fill-opacity:1.000000; stroke:none;fill-rule:evenodd;"
d="M 153.757000,89.302000
154.307000,89.302000
154.307000,90.902000
153.757000,90.902000
Z" /> 
<path style="fill:#000000; fill-opacity:1.000000; stroke:none;fill-rule:evenodd;"
d="M 154.557000,89.302000
155.107000,89.302000
155.107000,90.902000
154.557000,90.902000
Z" /> 
<path style="fill:#000000; fill-opacity:1.000000; stroke:none;fill-rule:evenodd;"
d="M 155.357000,89.302000
155.907000,89.302000
155.907000,90.902000
155.357000,90.902000
Z" /> 
<path style="fill:#000000; fill-opacity:1.000000; stroke:none;fill-rule:evenodd;"
d="M 156.157000,89.302000
156.707000,89.302000
156.707000,90.902000
156.157000,90.902000
Z" /> 
<path style="fill:#000000; fill-opacity:1.000000; stroke:none;fill-rule:evenodd;"
d="M 156.957000,89.302000
157.507000,89.302000
157.507000,90.902000
156.957000,90.902000
Z" /> 
<path style="fill:#000000; fill-opacity:1.000000; stroke:none;fill-rule:evenodd;"
d="M 157.882000,88.927000
157.882000,88.377000
159.482000,88.377000
159.482000,88.927000
Z" /> 
<path style="fill:#000000; fill-opacity:1.000000; stroke:none;fill-rule:evenodd;"
d="M 157.882000,88.127000
157.882000,87.577000
159.482000,87.577000
159.482000,88.127000
Z" /> 
<path style="fill:#000000; fill-opacity:1.000000; stroke:none;fill-rule:evenodd;"
d="M 157.882000,87.327000
157.882000,86.777000
159.482000,86.777000
159.482000,87.327000
Z" /> 
<path style="fill:#000000; fill-opacity:1.000000; stroke:none;fill-rule:evenodd;"
d="M 157.882000,86.527000
157.882000,85.977000
159.482000,85.977000
159.482000,86.527000
Z" /> 
<path style="fill:#000000; fill-opacity:1.000000; stroke:none;fill-rule:evenodd;"
d="M 157.882000,85.727000
157.882000,85.177000
159.482000,85.177000
159.482000,85.727000
Z" /> 
<path style="fill:#000000; fill-opacity:1.000000; stroke:none;fill-rule:evenodd;"
d="M 157.882000,84.927000
157.882000,84.377000
159.482000,84.377000
159.482000,84.927000
Z" /> 
<path style="fill:#000000; fill-opacity:1.000000; stroke:none;fill-rule:evenodd;"
d="M 157.882000,84.127000
157.882000,83.577000
159.482000,83.577000
159.482000,84.127000
Z" /> 
<path style="fill:#000000; fill-opacity:1.000000; stroke:none;fill-rule:evenodd;"
d="M 157.882000,83.327000
157.882000,82.777000
159.482000,82.777000
159.482000,83.327000
Z" /> 
<path style="fill:#000000; fill-opacity:1.000000; stroke:none;fill-rule:evenodd;"
d="M 170.177750,83.546400
170.094038,83.529749
170.023070,83.482330
169.975651,83.411362
169.959000,83.327650
169.959000,82.890150
169.975651,82.806438
170.023070,82.735470
170.094038,82.688051
170.177750,82.671400
170.690250,82.671400
170.773962,82.688051
170.844930,82.735470
170.892349,82.806438
170.909000,82.890150
170.909000,83.327650
170.892349,83.411362
170.844930,83.482330
170.773962,83.529749
170.690250,83.546400
Z" /> 
<path style="fill:#000000; fill-opacity:1.000000; stroke:none;fill-rule:evenodd;"
d="M 170.177750,81.971400
170.094038,81.954749
170.023070,81.907330
169.975651,81.836362
169.959000,81.752650
169.959000,81.315150
169.975651,81.231438
170.023070,81.160470
170.094038,81.113051
170.177750,81.096400
170.690250,81.096400
170.773962,81.113051
170.844930,81.160470
170.892349,81.231438
170.909000,81.315150
170.909000,81.752650
170.892349,81.836362
170.844930,81.907330
170.773962,81.954749
170.690250,81.971400
Z" /> 
<path style="fill:#000000; fill-opacity:1.000000; stroke:none;fill-rule:evenodd;"
d="M 161.925950,83.492400
161.832671,83.473846
161.753593,83.421007
161.700754,83.341929
161.682200,83.248650
161.682200,82.761150
161.700754,82.667871
161.753593,82.588793
161.832671,82.535954
161.925950,82.517400
162.838450,82.517400
162.931729,82.535954
163.010807,82.588793
163.063646,82.667871
163.082200,82.761150
163.082200,83.248650
163.063646,83.341929
163.010807,83.421007
162.931729,83.473846
162.838450,83.492400
Z" /> 
<path style="fill:#000000; fill-opacity:1.000000; stroke:none;fill-rule:evenodd;"
d="M 161.925950,81.617400
161.832671,81.598846
161.753593,81.546007
161.700754,81.466929
161.682200,81.373650
161.682200,80.886150
161.700754,80.792871
161.753593,80.713793
161.832671,80.660954
161.925950,80.642400
162.838450,80.642400
162.931729,80.660954
163.010807,80.713793
163.063646,80.792871
163.082200,80.886150
163.082200,81.373650
163.063646,81.466929
163.010807,81.546007
162.931729,81.598846
162.838450,81.617400
Z" /> 
</g> 
</svg>
