<?xml version="1.0" standalone="no"?>
 <!DOCTYPE svg PUBLIC "-//W3C//DTD SVG 1.1//EN" 
 "http://www.w3.org/Graphics/SVG/1.1/DTD/svg11.dtd"> 
<svg
  xmlns:svg="http://www.w3.org/2000/svg"
  xmlns="http://www.w3.org/2000/svg"
  xmlns:xlink="http://www.w3.org/1999/xlink"
  version="1.1"
  width="6.505cm" height="3.765cm" viewBox="117.975 64.675 65.05 37.65">
<title>SVG Image created as t1-F_SilkS.svg date 2024/09/25 11:37:17 </title>
  <desc>Image generated by PCBNEW </desc>
<g style="fill:#000000; fill-opacity:1.000000;stroke:#000000; stroke-opacity:1.000000;
stroke-linecap:round; stroke-linejoin:round;"
 transform="translate(0 0) scale(1 1)">
</g>
<g style="fill:none; 
stroke:#000000; stroke-width:0.150000; stroke-opacity:1; 
stroke-linecap:round; stroke-linejoin:round;">
<text x="135.839200" y="90.543000"
textLength="2.202381" font-size="1.333333" lengthAdjust="spacingAndGlyphs"
text-anchor="middle" opacity="0" stroke-opacity="0">C1</text>
<g class="stroked-text"><desc>C1</desc>
<path d="M135.672533 90.402580
L135.624914 90.450200
" />
<path d="M135.624914 90.450200
L135.482057 90.497819
" />
<path d="M135.482057 90.497819
L135.386819 90.497819
" />
<path d="M135.386819 90.497819
L135.243962 90.450200
" />
<path d="M135.243962 90.450200
L135.148724 90.354961
" />
<path d="M135.148724 90.354961
L135.101105 90.259723
" />
<path d="M135.101105 90.259723
L135.053486 90.069247
" />
<path d="M135.053486 90.069247
L135.053486 89.926390
" />
<path d="M135.053486 89.926390
L135.101105 89.735914
" />
<path d="M135.101105 89.735914
L135.148724 89.640676
" />
<path d="M135.148724 89.640676
L135.243962 89.545438
" />
<path d="M135.243962 89.545438
L135.386819 89.497819
" />
<path d="M135.386819 89.497819
L135.482057 89.497819
" />
<path d="M135.482057 89.497819
L135.624914 89.545438
" />
<path d="M135.624914 89.545438
L135.672533 89.593057
" />
<path d="M136.624914 90.497819
L136.053486 90.497819
" />
<path d="M136.339200 90.497819
L136.339200 89.497819
" />
<path d="M136.339200 89.497819
L136.243962 89.640676
" />
<path d="M136.243962 89.640676
L136.148724 89.735914
" />
<path d="M136.148724 89.735914
L136.053486 89.783533
" />
</g><text x="122.936000" y="93.337000"
textLength="2.202381" font-size="1.333333" lengthAdjust="spacingAndGlyphs"
text-anchor="middle" opacity="0" stroke-opacity="0">C2</text>
<g class="stroked-text"><desc>C2</desc>
<path d="M122.769333 93.196580
L122.721714 93.244200
" />
<path d="M122.721714 93.244200
L122.578857 93.291819
" />
<path d="M122.578857 93.291819
L122.483619 93.291819
" />
<path d="M122.483619 93.291819
L122.340762 93.244200
" />
<path d="M122.340762 93.244200
L122.245524 93.148961
" />
<path d="M122.245524 93.148961
L122.197905 93.053723
" />
<path d="M122.197905 93.053723
L122.150286 92.863247
" />
<path d="M122.150286 92.863247
L122.150286 92.720390
" />
<path d="M122.150286 92.720390
L122.197905 92.529914
" />
<path d="M122.197905 92.529914
L122.245524 92.434676
" />
<path d="M122.245524 92.434676
L122.340762 92.339438
" />
<path d="M122.340762 92.339438
L122.483619 92.291819
" />
<path d="M122.483619 92.291819
L122.578857 92.291819
" />
<path d="M122.578857 92.291819
L122.721714 92.339438
" />
<path d="M122.721714 92.339438
L122.769333 92.387057
" />
<path d="M123.150286 92.387057
L123.197905 92.339438
" />
<path d="M123.197905 92.339438
L123.293143 92.291819
" />
<path d="M123.293143 92.291819
L123.531238 92.291819
" />
<path d="M123.531238 92.291819
L123.626476 92.339438
" />
<path d="M123.626476 92.339438
L123.674095 92.387057
" />
<path d="M123.674095 92.387057
L123.721714 92.482295
" />
<path d="M123.721714 92.482295
L123.721714 92.577533
" />
<path d="M123.721714 92.577533
L123.674095 92.720390
" />
<path d="M123.674095 92.720390
L123.102667 93.291819
" />
<path d="M123.102667 93.291819
L123.721714 93.291819
" />
</g><text x="164.363400" y="74.617200"
textLength="2.202381" font-size="1.333333" lengthAdjust="spacingAndGlyphs"
text-anchor="middle" opacity="0" stroke-opacity="0">C3</text>
<g class="stroked-text"><desc>C3</desc>
<path d="M164.196733 74.476780
L164.149114 74.524400
" />
<path d="M164.149114 74.524400
L164.006257 74.572019
" />
<path d="M164.006257 74.572019
L163.911019 74.572019
" />
<path d="M163.911019 74.572019
L163.768162 74.524400
" />
<path d="M163.768162 74.524400
L163.672924 74.429161
" />
<path d="M163.672924 74.429161
L163.625305 74.333923
" />
<path d="M163.625305 74.333923
L163.577686 74.143447
" />
<path d="M163.577686 74.143447
L163.577686 74.000590
" />
<path d="M163.577686 74.000590
L163.625305 73.810114
" />
<path d="M163.625305 73.810114
L163.672924 73.714876
" />
<path d="M163.672924 73.714876
L163.768162 73.619638
" />
<path d="M163.768162 73.619638
L163.911019 73.572019
" />
<path d="M163.911019 73.572019
L164.006257 73.572019
" />
<path d="M164.006257 73.572019
L164.149114 73.619638
" />
<path d="M164.149114 73.619638
L164.196733 73.667257
" />
<path d="M164.530067 73.572019
L165.149114 73.572019
" />
<path d="M165.149114 73.572019
L164.815781 73.952971
" />
<path d="M164.815781 73.952971
L164.958638 73.952971
" />
<path d="M164.958638 73.952971
L165.053876 74.000590
" />
<path d="M165.053876 74.000590
L165.101495 74.048209
" />
<path d="M165.101495 74.048209
L165.149114 74.143447
" />
<path d="M165.149114 74.143447
L165.149114 74.381542
" />
<path d="M165.149114 74.381542
L165.101495 74.476780
" />
<path d="M165.101495 74.476780
L165.053876 74.524400
" />
<path d="M165.053876 74.524400
L164.958638 74.572019
" />
<path d="M164.958638 74.572019
L164.672924 74.572019
" />
<path d="M164.672924 74.572019
L164.577686 74.524400
" />
<path d="M164.577686 74.524400
L164.530067 74.476780
" />
</g><text x="153.797000" y="75.557000"
textLength="2.202381" font-size="1.333333" lengthAdjust="spacingAndGlyphs"
text-anchor="middle" opacity="0" stroke-opacity="0">C4</text>
<g class="stroked-text"><desc>C4</desc>
<path d="M153.630333 75.416580
L153.582714 75.464200
" />
<path d="M153.582714 75.464200
L153.439857 75.511819
" />
<path d="M153.439857 75.511819
L153.344619 75.511819
" />
<path d="M153.344619 75.511819
L153.201762 75.464200
" />
<path d="M153.201762 75.464200
L153.106524 75.368961
" />
<path d="M153.106524 75.368961
L153.058905 75.273723
" />
<path d="M153.058905 75.273723
L153.011286 75.083247
" />
<path d="M153.011286 75.083247
L153.011286 74.940390
" />
<path d="M153.011286 74.940390
L153.058905 74.749914
" />
<path d="M153.058905 74.749914
L153.106524 74.654676
" />
<path d="M153.106524 74.654676
L153.201762 74.559438
" />
<path d="M153.201762 74.559438
L153.344619 74.511819
" />
<path d="M153.344619 74.511819
L153.439857 74.511819
" />
<path d="M153.439857 74.511819
L153.582714 74.559438
" />
<path d="M153.582714 74.559438
L153.630333 74.607057
" />
<path d="M154.487476 74.845152
L154.487476 75.511819
" />
<path d="M154.249381 74.464200
L154.011286 75.178485
" />
<path d="M154.011286 75.178485
L154.630333 75.178485
" />
</g><text x="163.322000" y="87.241000"
textLength="2.202381" font-size="1.333333" lengthAdjust="spacingAndGlyphs"
text-anchor="middle" opacity="0" stroke-opacity="0">C5</text>
<g class="stroked-text"><desc>C5</desc>
<path d="M163.155333 87.100580
L163.107714 87.148200
" />
<path d="M163.107714 87.148200
L162.964857 87.195819
" />
<path d="M162.964857 87.195819
L162.869619 87.195819
" />
<path d="M162.869619 87.195819
L162.726762 87.148200
" />
<path d="M162.726762 87.148200
L162.631524 87.052961
" />
<path d="M162.631524 87.052961
L162.583905 86.957723
" />
<path d="M162.583905 86.957723
L162.536286 86.767247
" />
<path d="M162.536286 86.767247
L162.536286 86.624390
" />
<path d="M162.536286 86.624390
L162.583905 86.433914
" />
<path d="M162.583905 86.433914
L162.631524 86.338676
" />
<path d="M162.631524 86.338676
L162.726762 86.243438
" />
<path d="M162.726762 86.243438
L162.869619 86.195819
" />
<path d="M162.869619 86.195819
L162.964857 86.195819
" />
<path d="M162.964857 86.195819
L163.107714 86.243438
" />
<path d="M163.107714 86.243438
L163.155333 86.291057
" />
<path d="M164.060095 86.195819
L163.583905 86.195819
" />
<path d="M163.583905 86.195819
L163.536286 86.672009
" />
<path d="M163.536286 86.672009
L163.583905 86.624390
" />
<path d="M163.583905 86.624390
L163.679143 86.576771
" />
<path d="M163.679143 86.576771
L163.917238 86.576771
" />
<path d="M163.917238 86.576771
L164.012476 86.624390
" />
<path d="M164.012476 86.624390
L164.060095 86.672009
" />
<path d="M164.060095 86.672009
L164.107714 86.767247
" />
<path d="M164.107714 86.767247
L164.107714 87.005342
" />
<path d="M164.107714 87.005342
L164.060095 87.100580
" />
<path d="M164.060095 87.100580
L164.012476 87.148200
" />
<path d="M164.012476 87.148200
L163.917238 87.195819
" />
<path d="M163.917238 87.195819
L163.679143 87.195819
" />
<path d="M163.679143 87.195819
L163.583905 87.148200
" />
<path d="M163.583905 87.148200
L163.536286 87.100580
" />
</g><text x="156.845000" y="79.417800"
textLength="2.202381" font-size="1.333333" lengthAdjust="spacingAndGlyphs"
text-anchor="middle" opacity="0" stroke-opacity="0">C7</text>
<g class="stroked-text"><desc>C7</desc>
<path d="M156.678333 79.277380
L156.630714 79.325000
" />
<path d="M156.630714 79.325000
L156.487857 79.372619
" />
<path d="M156.487857 79.372619
L156.392619 79.372619
" />
<path d="M156.392619 79.372619
L156.249762 79.325000
" />
<path d="M156.249762 79.325000
L156.154524 79.229761
" />
<path d="M156.154524 79.229761
L156.106905 79.134523
" />
<path d="M156.106905 79.134523
L156.059286 78.944047
" />
<path d="M156.059286 78.944047
L156.059286 78.801190
" />
<path d="M156.059286 78.801190
L156.106905 78.610714
" />
<path d="M156.106905 78.610714
L156.154524 78.515476
" />
<path d="M156.154524 78.515476
L156.249762 78.420238
" />
<path d="M156.249762 78.420238
L156.392619 78.372619
" />
<path d="M156.392619 78.372619
L156.487857 78.372619
" />
<path d="M156.487857 78.372619
L156.630714 78.420238
" />
<path d="M156.630714 78.420238
L156.678333 78.467857
" />
<path d="M157.011667 78.372619
L157.678333 78.372619
" />
<path d="M157.678333 78.372619
L157.249762 79.372619
" />
</g><text x="146.761200" y="79.646400"
textLength="2.202381" font-size="1.333333" lengthAdjust="spacingAndGlyphs"
text-anchor="middle" opacity="0" stroke-opacity="0">C8</text>
<g class="stroked-text"><desc>C8</desc>
<path d="M146.594533 79.505980
L146.546914 79.553600
" />
<path d="M146.546914 79.553600
L146.404057 79.601219
" />
<path d="M146.404057 79.601219
L146.308819 79.601219
" />
<path d="M146.308819 79.601219
L146.165962 79.553600
" />
<path d="M146.165962 79.553600
L146.070724 79.458361
" />
<path d="M146.070724 79.458361
L146.023105 79.363123
" />
<path d="M146.023105 79.363123
L145.975486 79.172647
" />
<path d="M145.975486 79.172647
L145.975486 79.029790
" />
<path d="M145.975486 79.029790
L146.023105 78.839314
" />
<path d="M146.023105 78.839314
L146.070724 78.744076
" />
<path d="M146.070724 78.744076
L146.165962 78.648838
" />
<path d="M146.165962 78.648838
L146.308819 78.601219
" />
<path d="M146.308819 78.601219
L146.404057 78.601219
" />
<path d="M146.404057 78.601219
L146.546914 78.648838
" />
<path d="M146.546914 78.648838
L146.594533 78.696457
" />
<path d="M147.165962 79.029790
L147.070724 78.982171
" />
<path d="M147.070724 78.982171
L147.023105 78.934552
" />
<path d="M147.023105 78.934552
L146.975486 78.839314
" />
<path d="M146.975486 78.839314
L146.975486 78.791695
" />
<path d="M146.975486 78.791695
L147.023105 78.696457
" />
<path d="M147.023105 78.696457
L147.070724 78.648838
" />
<path d="M147.070724 78.648838
L147.165962 78.601219
" />
<path d="M147.165962 78.601219
L147.356438 78.601219
" />
<path d="M147.356438 78.601219
L147.451676 78.648838
" />
<path d="M147.451676 78.648838
L147.499295 78.696457
" />
<path d="M147.499295 78.696457
L147.546914 78.791695
" />
<path d="M147.546914 78.791695
L147.546914 78.839314
" />
<path d="M147.546914 78.839314
L147.499295 78.934552
" />
<path d="M147.499295 78.934552
L147.451676 78.982171
" />
<path d="M147.451676 78.982171
L147.356438 79.029790
" />
<path d="M147.356438 79.029790
L147.165962 79.029790
" />
<path d="M147.165962 79.029790
L147.070724 79.077409
" />
<path d="M147.070724 79.077409
L147.023105 79.125028
" />
<path d="M147.023105 79.125028
L146.975486 79.220266
" />
<path d="M146.975486 79.220266
L146.975486 79.410742
" />
<path d="M146.975486 79.410742
L147.023105 79.505980
" />
<path d="M147.023105 79.505980
L147.070724 79.553600
" />
<path d="M147.070724 79.553600
L147.165962 79.601219
" />
<path d="M147.165962 79.601219
L147.356438 79.601219
" />
<path d="M147.356438 79.601219
L147.451676 79.553600
" />
<path d="M147.451676 79.553600
L147.499295 79.505980
" />
<path d="M147.499295 79.505980
L147.546914 79.410742
" />
<path d="M147.546914 79.410742
L147.546914 79.220266
" />
<path d="M147.546914 79.220266
L147.499295 79.125028
" />
<path d="M147.499295 79.125028
L147.451676 79.077409
" />
<path d="M147.451676 79.077409
L147.356438 79.029790
" />
</g><text x="162.864800" y="94.226000"
textLength="2.202381" font-size="1.333333" lengthAdjust="spacingAndGlyphs"
text-anchor="middle" opacity="0" stroke-opacity="0">D1</text>
<g class="stroked-text"><desc>D1</desc>
<path d="M162.126705 94.180819
L162.126705 93.180819
" />
<path d="M162.126705 93.180819
L162.364800 93.180819
" />
<path d="M162.364800 93.180819
L162.507657 93.228438
" />
<path d="M162.507657 93.228438
L162.602895 93.323676
" />
<path d="M162.602895 93.323676
L162.650514 93.418914
" />
<path d="M162.650514 93.418914
L162.698133 93.609390
" />
<path d="M162.698133 93.609390
L162.698133 93.752247
" />
<path d="M162.698133 93.752247
L162.650514 93.942723
" />
<path d="M162.650514 93.942723
L162.602895 94.037961
" />
<path d="M162.602895 94.037961
L162.507657 94.133200
" />
<path d="M162.507657 94.133200
L162.364800 94.180819
" />
<path d="M162.364800 94.180819
L162.126705 94.180819
" />
<path d="M163.650514 94.180819
L163.079086 94.180819
" />
<path d="M163.364800 94.180819
L163.364800 93.180819
" />
<path d="M163.364800 93.180819
L163.269562 93.323676
" />
<path d="M163.269562 93.323676
L163.174324 93.418914
" />
<path d="M163.174324 93.418914
L163.079086 93.466533
" />
</g><text x="149.377400" y="75.455400"
textLength="2.202381" font-size="1.333333" lengthAdjust="spacingAndGlyphs"
text-anchor="middle" opacity="0" stroke-opacity="0">D2</text>
<g class="stroked-text"><desc>D2</desc>
<path d="M148.639305 75.410219
L148.639305 74.410219
" />
<path d="M148.639305 74.410219
L148.877400 74.410219
" />
<path d="M148.877400 74.410219
L149.020257 74.457838
" />
<path d="M149.020257 74.457838
L149.115495 74.553076
" />
<path d="M149.115495 74.553076
L149.163114 74.648314
" />
<path d="M149.163114 74.648314
L149.210733 74.838790
" />
<path d="M149.210733 74.838790
L149.210733 74.981647
" />
<path d="M149.210733 74.981647
L149.163114 75.172123
" />
<path d="M149.163114 75.172123
L149.115495 75.267361
" />
<path d="M149.115495 75.267361
L149.020257 75.362600
" />
<path d="M149.020257 75.362600
L148.877400 75.410219
" />
<path d="M148.877400 75.410219
L148.639305 75.410219
" />
<path d="M149.591686 74.505457
L149.639305 74.457838
" />
<path d="M149.639305 74.457838
L149.734543 74.410219
" />
<path d="M149.734543 74.410219
L149.972638 74.410219
" />
<path d="M149.972638 74.410219
L150.067876 74.457838
" />
<path d="M150.067876 74.457838
L150.115495 74.505457
" />
<path d="M150.115495 74.505457
L150.163114 74.600695
" />
<path d="M150.163114 74.600695
L150.163114 74.695933
" />
<path d="M150.163114 74.695933
L150.115495 74.838790
" />
<path d="M150.115495 74.838790
L149.544067 75.410219
" />
<path d="M149.544067 75.410219
L150.163114 75.410219
" />
</g><text x="142.595600" y="74.363200"
textLength="2.202381" font-size="1.333333" lengthAdjust="spacingAndGlyphs"
text-anchor="middle" opacity="0" stroke-opacity="0">D3</text>
<g class="stroked-text"><desc>D3</desc>
<path d="M141.857505 74.318019
L141.857505 73.318019
" />
<path d="M141.857505 73.318019
L142.095600 73.318019
" />
<path d="M142.095600 73.318019
L142.238457 73.365638
" />
<path d="M142.238457 73.365638
L142.333695 73.460876
" />
<path d="M142.333695 73.460876
L142.381314 73.556114
" />
<path d="M142.381314 73.556114
L142.428933 73.746590
" />
<path d="M142.428933 73.746590
L142.428933 73.889447
" />
<path d="M142.428933 73.889447
L142.381314 74.079923
" />
<path d="M142.381314 74.079923
L142.333695 74.175161
" />
<path d="M142.333695 74.175161
L142.238457 74.270400
" />
<path d="M142.238457 74.270400
L142.095600 74.318019
" />
<path d="M142.095600 74.318019
L141.857505 74.318019
" />
<path d="M142.762267 73.318019
L143.381314 73.318019
" />
<path d="M143.381314 73.318019
L143.047981 73.698971
" />
<path d="M143.047981 73.698971
L143.190838 73.698971
" />
<path d="M143.190838 73.698971
L143.286076 73.746590
" />
<path d="M143.286076 73.746590
L143.333695 73.794209
" />
<path d="M143.333695 73.794209
L143.381314 73.889447
" />
<path d="M143.381314 73.889447
L143.381314 74.127542
" />
<path d="M143.381314 74.127542
L143.333695 74.222780
" />
<path d="M143.333695 74.222780
L143.286076 74.270400
" />
<path d="M143.286076 74.270400
L143.190838 74.318019
" />
<path d="M143.190838 74.318019
L142.905124 74.318019
" />
<path d="M142.905124 74.318019
L142.809886 74.270400
" />
<path d="M142.809886 74.270400
L142.762267 74.222780
" />
</g><text x="167.894000" y="75.066000"
textLength="2.059524" font-size="1.333333" lengthAdjust="spacingAndGlyphs"
text-anchor="middle" opacity="0" stroke-opacity="0">F1</text>
<g class="stroked-text"><desc>F1</desc>
<path d="M167.560666 74.497009
L167.227333 74.497009
" />
<path d="M167.227333 75.020819
L167.227333 74.020819
" />
<path d="M167.227333 74.020819
L167.703523 74.020819
" />
<path d="M168.608285 75.020819
L168.036857 75.020819
" />
<path d="M168.322571 75.020819
L168.322571 74.020819
" />
<path d="M168.322571 74.020819
L168.227333 74.163676
" />
<path d="M168.227333 74.163676
L168.132095 74.258914
" />
<path d="M168.132095 74.258914
L168.036857 74.306533
" />
</g><text x="167.894000" y="92.828000"
textLength="3.059524" font-size="1.333333" lengthAdjust="spacingAndGlyphs"
text-anchor="middle" opacity="0" stroke-opacity="0">FB1</text>
<g class="stroked-text"><desc>FB1</desc>
<path d="M167.060666 92.259009
L166.727333 92.259009
" />
<path d="M166.727333 92.782819
L166.727333 91.782819
" />
<path d="M166.727333 91.782819
L167.203523 91.782819
" />
<path d="M167.917809 92.259009
L168.060666 92.306628
" />
<path d="M168.060666 92.306628
L168.108285 92.354247
" />
<path d="M168.108285 92.354247
L168.155904 92.449485
" />
<path d="M168.155904 92.449485
L168.155904 92.592342
" />
<path d="M168.155904 92.592342
L168.108285 92.687580
" />
<path d="M168.108285 92.687580
L168.060666 92.735200
" />
<path d="M168.060666 92.735200
L167.965428 92.782819
" />
<path d="M167.965428 92.782819
L167.584476 92.782819
" />
<path d="M167.584476 92.782819
L167.584476 91.782819
" />
<path d="M167.584476 91.782819
L167.917809 91.782819
" />
<path d="M167.917809 91.782819
L168.013047 91.830438
" />
<path d="M168.013047 91.830438
L168.060666 91.878057
" />
<path d="M168.060666 91.878057
L168.108285 91.973295
" />
<path d="M168.108285 91.973295
L168.108285 92.068533
" />
<path d="M168.108285 92.068533
L168.060666 92.163771
" />
<path d="M168.060666 92.163771
L168.013047 92.211390
" />
<path d="M168.013047 92.211390
L167.917809 92.259009
" />
<path d="M167.917809 92.259009
L167.584476 92.259009
" />
<path d="M169.108285 92.782819
L168.536857 92.782819
" />
<path d="M168.822571 92.782819
L168.822571 91.782819
" />
<path d="M168.822571 91.782819
L168.727333 91.925676
" />
<path d="M168.727333 91.925676
L168.632095 92.020914
" />
<path d="M168.632095 92.020914
L168.536857 92.068533
" />
</g><text x="131.978400" y="87.952200"
textLength="1.964286" font-size="1.333333" lengthAdjust="spacingAndGlyphs"
text-anchor="middle" opacity="0" stroke-opacity="0">J1</text>
<g class="stroked-text"><desc>J1</desc>
<path d="M131.645066 86.907019
L131.645066 87.621304
" />
<path d="M131.645066 87.621304
L131.597447 87.764161
" />
<path d="M131.597447 87.764161
L131.502209 87.859400
" />
<path d="M131.502209 87.859400
L131.359352 87.907019
" />
<path d="M131.359352 87.907019
L131.264114 87.907019
" />
<path d="M132.645066 87.907019
L132.073638 87.907019
" />
<path d="M132.359352 87.907019
L132.359352 86.907019
" />
<path d="M132.359352 86.907019
L132.264114 87.049876
" />
<path d="M132.264114 87.049876
L132.168876 87.145114
" />
<path d="M132.168876 87.145114
L132.073638 87.192733
" />
</g><text x="136.144000" y="82.897600"
textLength="1.964286" font-size="1.333333" lengthAdjust="spacingAndGlyphs"
text-anchor="middle" opacity="0" stroke-opacity="0">J3</text>
<g class="stroked-text"><desc>J3</desc>
<path d="M135.810666 81.852419
L135.810666 82.566704
" />
<path d="M135.810666 82.566704
L135.763047 82.709561
" />
<path d="M135.763047 82.709561
L135.667809 82.804800
" />
<path d="M135.667809 82.804800
L135.524952 82.852419
" />
<path d="M135.524952 82.852419
L135.429714 82.852419
" />
<path d="M136.191619 81.852419
L136.810666 81.852419
" />
<path d="M136.810666 81.852419
L136.477333 82.233371
" />
<path d="M136.477333 82.233371
L136.620190 82.233371
" />
<path d="M136.620190 82.233371
L136.715428 82.280990
" />
<path d="M136.715428 82.280990
L136.763047 82.328609
" />
<path d="M136.763047 82.328609
L136.810666 82.423847
" />
<path d="M136.810666 82.423847
L136.810666 82.661942
" />
<path d="M136.810666 82.661942
L136.763047 82.757180
" />
<path d="M136.763047 82.757180
L136.715428 82.804800
" />
<path d="M136.715428 82.804800
L136.620190 82.852419
" />
<path d="M136.620190 82.852419
L136.334476 82.852419
" />
<path d="M136.334476 82.852419
L136.239238 82.804800
" />
<path d="M136.239238 82.804800
L136.191619 82.757180
" />
</g><text x="153.136600" y="93.108400"
textLength="1.964286" font-size="1.333333" lengthAdjust="spacingAndGlyphs"
text-anchor="middle" opacity="0" stroke-opacity="0">J4</text>
<g class="stroked-text"><desc>J4</desc>
<path d="M152.803266 92.063219
L152.803266 92.777504
" />
<path d="M152.803266 92.777504
L152.755647 92.920361
" />
<path d="M152.755647 92.920361
L152.660409 93.015600
" />
<path d="M152.660409 93.015600
L152.517552 93.063219
" />
<path d="M152.517552 93.063219
L152.422314 93.063219
" />
<path d="M153.708028 92.396552
L153.708028 93.063219
" />
<path d="M153.469933 92.015600
L153.231838 92.729885
" />
<path d="M153.231838 92.729885
L153.850885 92.729885
" />
</g><text x="145.948400" y="93.108400"
textLength="1.964286" font-size="1.333333" lengthAdjust="spacingAndGlyphs"
text-anchor="middle" opacity="0" stroke-opacity="0">J5</text>
<g class="stroked-text"><desc>J5</desc>
<path d="M145.615066 92.063219
L145.615066 92.777504
" />
<path d="M145.615066 92.777504
L145.567447 92.920361
" />
<path d="M145.567447 92.920361
L145.472209 93.015600
" />
<path d="M145.472209 93.015600
L145.329352 93.063219
" />
<path d="M145.329352 93.063219
L145.234114 93.063219
" />
<path d="M146.567447 92.063219
L146.091257 92.063219
" />
<path d="M146.091257 92.063219
L146.043638 92.539409
" />
<path d="M146.043638 92.539409
L146.091257 92.491790
" />
<path d="M146.091257 92.491790
L146.186495 92.444171
" />
<path d="M146.186495 92.444171
L146.424590 92.444171
" />
<path d="M146.424590 92.444171
L146.519828 92.491790
" />
<path d="M146.519828 92.491790
L146.567447 92.539409
" />
<path d="M146.567447 92.539409
L146.615066 92.634647
" />
<path d="M146.615066 92.634647
L146.615066 92.872742
" />
<path d="M146.615066 92.872742
L146.567447 92.967980
" />
<path d="M146.567447 92.967980
L146.519828 93.015600
" />
<path d="M146.519828 93.015600
L146.424590 93.063219
" />
<path d="M146.424590 93.063219
L146.186495 93.063219
" />
<path d="M146.186495 93.063219
L146.091257 93.015600
" />
<path d="M146.091257 93.015600
L146.043638 92.967980
" />
</g><text x="140.614400" y="75.125200"
textLength="1.964286" font-size="1.333333" lengthAdjust="spacingAndGlyphs"
text-anchor="middle" opacity="0" stroke-opacity="0">J6</text>
<g class="stroked-text"><desc>J6</desc>
<path d="M140.281066 74.080019
L140.281066 74.794304
" />
<path d="M140.281066 74.794304
L140.233447 74.937161
" />
<path d="M140.233447 74.937161
L140.138209 75.032400
" />
<path d="M140.138209 75.032400
L139.995352 75.080019
" />
<path d="M139.995352 75.080019
L139.900114 75.080019
" />
<path d="M141.185828 74.080019
L140.995352 74.080019
" />
<path d="M140.995352 74.080019
L140.900114 74.127638
" />
<path d="M140.900114 74.127638
L140.852495 74.175257
" />
<path d="M140.852495 74.175257
L140.757257 74.318114
" />
<path d="M140.757257 74.318114
L140.709638 74.508590
" />
<path d="M140.709638 74.508590
L140.709638 74.889542
" />
<path d="M140.709638 74.889542
L140.757257 74.984780
" />
<path d="M140.757257 74.984780
L140.804876 75.032400
" />
<path d="M140.804876 75.032400
L140.900114 75.080019
" />
<path d="M140.900114 75.080019
L141.090590 75.080019
" />
<path d="M141.090590 75.080019
L141.185828 75.032400
" />
<path d="M141.185828 75.032400
L141.233447 74.984780
" />
<path d="M141.233447 74.984780
L141.281066 74.889542
" />
<path d="M141.281066 74.889542
L141.281066 74.651447
" />
<path d="M141.281066 74.651447
L141.233447 74.556209
" />
<path d="M141.233447 74.556209
L141.185828 74.508590
" />
<path d="M141.185828 74.508590
L141.090590 74.460971
" />
<path d="M141.090590 74.460971
L140.900114 74.460971
" />
<path d="M140.900114 74.460971
L140.804876 74.508590
" />
<path d="M140.804876 74.508590
L140.757257 74.556209
" />
<path d="M140.757257 74.556209
L140.709638 74.651447
" />
</g><text x="167.309800" y="98.721800"
textLength="2.964286" font-size="1.333333" lengthAdjust="spacingAndGlyphs"
text-anchor="middle" opacity="0" stroke-opacity="0">JP1</text>
<g class="stroked-text"><desc>JP1</desc>
<path d="M166.476466 97.676619
L166.476466 98.390904
" />
<path d="M166.476466 98.390904
L166.428847 98.533761
" />
<path d="M166.428847 98.533761
L166.333609 98.629000
" />
<path d="M166.333609 98.629000
L166.190752 98.676619
" />
<path d="M166.190752 98.676619
L166.095514 98.676619
" />
<path d="M166.952657 98.676619
L166.952657 97.676619
" />
<path d="M166.952657 97.676619
L167.333609 97.676619
" />
<path d="M167.333609 97.676619
L167.428847 97.724238
" />
<path d="M167.428847 97.724238
L167.476466 97.771857
" />
<path d="M167.476466 97.771857
L167.524085 97.867095
" />
<path d="M167.524085 97.867095
L167.524085 98.009952
" />
<path d="M167.524085 98.009952
L167.476466 98.105190
" />
<path d="M167.476466 98.105190
L167.428847 98.152809
" />
<path d="M167.428847 98.152809
L167.333609 98.200428
" />
<path d="M167.333609 98.200428
L166.952657 98.200428
" />
<path d="M168.476466 98.676619
L167.905038 98.676619
" />
<path d="M168.190752 98.676619
L168.190752 97.676619
" />
<path d="M168.190752 97.676619
L168.095514 97.819476
" />
<path d="M168.095514 97.819476
L168.000276 97.914714
" />
<path d="M168.000276 97.914714
L167.905038 97.962333
" />
</g><text x="166.446200" y="88.409400"
textLength="2.202381" font-size="1.333333" lengthAdjust="spacingAndGlyphs"
text-anchor="middle" opacity="0" stroke-opacity="0">R1</text>
<g class="stroked-text"><desc>R1</desc>
<path d="M166.279533 88.364219
L165.946200 87.888028
" />
<path d="M165.708105 88.364219
L165.708105 87.364219
" />
<path d="M165.708105 87.364219
L166.089057 87.364219
" />
<path d="M166.089057 87.364219
L166.184295 87.411838
" />
<path d="M166.184295 87.411838
L166.231914 87.459457
" />
<path d="M166.231914 87.459457
L166.279533 87.554695
" />
<path d="M166.279533 87.554695
L166.279533 87.697552
" />
<path d="M166.279533 87.697552
L166.231914 87.792790
" />
<path d="M166.231914 87.792790
L166.184295 87.840409
" />
<path d="M166.184295 87.840409
L166.089057 87.888028
" />
<path d="M166.089057 87.888028
L165.708105 87.888028
" />
<path d="M167.231914 88.364219
L166.660486 88.364219
" />
<path d="M166.946200 88.364219
L166.946200 87.364219
" />
<path d="M166.946200 87.364219
L166.850962 87.507076
" />
<path d="M166.850962 87.507076
L166.755724 87.602314
" />
<path d="M166.755724 87.602314
L166.660486 87.649933
" />
</g><text x="166.370000" y="82.670000"
textLength="2.202381" font-size="1.333333" lengthAdjust="spacingAndGlyphs"
text-anchor="middle" opacity="0" stroke-opacity="0">R2</text>
<g class="stroked-text"><desc>R2</desc>
<path d="M166.203333 82.624819
L165.870000 82.148628
" />
<path d="M165.631905 82.624819
L165.631905 81.624819
" />
<path d="M165.631905 81.624819
L166.012857 81.624819
" />
<path d="M166.012857 81.624819
L166.108095 81.672438
" />
<path d="M166.108095 81.672438
L166.155714 81.720057
" />
<path d="M166.155714 81.720057
L166.203333 81.815295
" />
<path d="M166.203333 81.815295
L166.203333 81.958152
" />
<path d="M166.203333 81.958152
L166.155714 82.053390
" />
<path d="M166.155714 82.053390
L166.108095 82.101009
" />
<path d="M166.108095 82.101009
L166.012857 82.148628
" />
<path d="M166.012857 82.148628
L165.631905 82.148628
" />
<path d="M166.584286 81.720057
L166.631905 81.672438
" />
<path d="M166.631905 81.672438
L166.727143 81.624819
" />
<path d="M166.727143 81.624819
L166.965238 81.624819
" />
<path d="M166.965238 81.624819
L167.060476 81.672438
" />
<path d="M167.060476 81.672438
L167.108095 81.720057
" />
<path d="M167.108095 81.720057
L167.155714 81.815295
" />
<path d="M167.155714 81.815295
L167.155714 81.910533
" />
<path d="M167.155714 81.910533
L167.108095 82.053390
" />
<path d="M167.108095 82.053390
L166.536667 82.624819
" />
<path d="M166.536667 82.624819
L167.155714 82.624819
" />
</g><text x="158.958000" y="78.028000"
textLength="2.202381" font-size="1.333333" lengthAdjust="spacingAndGlyphs"
text-anchor="middle" opacity="0" stroke-opacity="0">R3</text>
<g class="stroked-text"><desc>R3</desc>
<path d="M158.791333 77.982819
L158.458000 77.506628
" />
<path d="M158.219905 77.982819
L158.219905 76.982819
" />
<path d="M158.219905 76.982819
L158.600857 76.982819
" />
<path d="M158.600857 76.982819
L158.696095 77.030438
" />
<path d="M158.696095 77.030438
L158.743714 77.078057
" />
<path d="M158.743714 77.078057
L158.791333 77.173295
" />
<path d="M158.791333 77.173295
L158.791333 77.316152
" />
<path d="M158.791333 77.316152
L158.743714 77.411390
" />
<path d="M158.743714 77.411390
L158.696095 77.459009
" />
<path d="M158.696095 77.459009
L158.600857 77.506628
" />
<path d="M158.600857 77.506628
L158.219905 77.506628
" />
<path d="M159.124667 76.982819
L159.743714 76.982819
" />
<path d="M159.743714 76.982819
L159.410381 77.363771
" />
<path d="M159.410381 77.363771
L159.553238 77.363771
" />
<path d="M159.553238 77.363771
L159.648476 77.411390
" />
<path d="M159.648476 77.411390
L159.696095 77.459009
" />
<path d="M159.696095 77.459009
L159.743714 77.554247
" />
<path d="M159.743714 77.554247
L159.743714 77.792342
" />
<path d="M159.743714 77.792342
L159.696095 77.887580
" />
<path d="M159.696095 77.887580
L159.648476 77.935200
" />
<path d="M159.648476 77.935200
L159.553238 77.982819
" />
<path d="M159.553238 77.982819
L159.267524 77.982819
" />
<path d="M159.267524 77.982819
L159.172286 77.935200
" />
<path d="M159.172286 77.935200
L159.124667 77.887580
" />
</g><text x="159.105600" y="93.819600"
textLength="2.202381" font-size="1.333333" lengthAdjust="spacingAndGlyphs"
text-anchor="middle" opacity="0" stroke-opacity="0">R4</text>
<g class="stroked-text"><desc>R4</desc>
<path d="M158.938933 93.774419
L158.605600 93.298228
" />
<path d="M158.367505 93.774419
L158.367505 92.774419
" />
<path d="M158.367505 92.774419
L158.748457 92.774419
" />
<path d="M158.748457 92.774419
L158.843695 92.822038
" />
<path d="M158.843695 92.822038
L158.891314 92.869657
" />
<path d="M158.891314 92.869657
L158.938933 92.964895
" />
<path d="M158.938933 92.964895
L158.938933 93.107752
" />
<path d="M158.938933 93.107752
L158.891314 93.202990
" />
<path d="M158.891314 93.202990
L158.843695 93.250609
" />
<path d="M158.843695 93.250609
L158.748457 93.298228
" />
<path d="M158.748457 93.298228
L158.367505 93.298228
" />
<path d="M159.796076 93.107752
L159.796076 93.774419
" />
<path d="M159.557981 92.726800
L159.319886 93.441085
" />
<path d="M159.319886 93.441085
L159.938933 93.441085
" />
</g><text x="144.780000" y="85.869400"
textLength="2.202381" font-size="1.333333" lengthAdjust="spacingAndGlyphs"
text-anchor="middle" opacity="0" stroke-opacity="0">R5</text>
<g class="stroked-text"><desc>R5</desc>
<path d="M144.613333 85.824219
L144.280000 85.348028
" />
<path d="M144.041905 85.824219
L144.041905 84.824219
" />
<path d="M144.041905 84.824219
L144.422857 84.824219
" />
<path d="M144.422857 84.824219
L144.518095 84.871838
" />
<path d="M144.518095 84.871838
L144.565714 84.919457
" />
<path d="M144.565714 84.919457
L144.613333 85.014695
" />
<path d="M144.613333 85.014695
L144.613333 85.157552
" />
<path d="M144.613333 85.157552
L144.565714 85.252790
" />
<path d="M144.565714 85.252790
L144.518095 85.300409
" />
<path d="M144.518095 85.300409
L144.422857 85.348028
" />
<path d="M144.422857 85.348028
L144.041905 85.348028
" />
<path d="M145.518095 84.824219
L145.041905 84.824219
" />
<path d="M145.041905 84.824219
L144.994286 85.300409
" />
<path d="M144.994286 85.300409
L145.041905 85.252790
" />
<path d="M145.041905 85.252790
L145.137143 85.205171
" />
<path d="M145.137143 85.205171
L145.375238 85.205171
" />
<path d="M145.375238 85.205171
L145.470476 85.252790
" />
<path d="M145.470476 85.252790
L145.518095 85.300409
" />
<path d="M145.518095 85.300409
L145.565714 85.395647
" />
<path d="M145.565714 85.395647
L145.565714 85.633742
" />
<path d="M145.565714 85.633742
L145.518095 85.728980
" />
<path d="M145.518095 85.728980
L145.470476 85.776600
" />
<path d="M145.470476 85.776600
L145.375238 85.824219
" />
<path d="M145.375238 85.824219
L145.137143 85.824219
" />
<path d="M145.137143 85.824219
L145.041905 85.776600
" />
<path d="M145.041905 85.776600
L144.994286 85.728980
" />
</g><text x="147.320000" y="68.216400"
textLength="2.202381" font-size="1.333333" lengthAdjust="spacingAndGlyphs"
text-anchor="middle" opacity="0" stroke-opacity="0">R6</text>
<g class="stroked-text"><desc>R6</desc>
<path d="M147.153333 68.171219
L146.820000 67.695028
" />
<path d="M146.581905 68.171219
L146.581905 67.171219
" />
<path d="M146.581905 67.171219
L146.962857 67.171219
" />
<path d="M146.962857 67.171219
L147.058095 67.218838
" />
<path d="M147.058095 67.218838
L147.105714 67.266457
" />
<path d="M147.105714 67.266457
L147.153333 67.361695
" />
<path d="M147.153333 67.361695
L147.153333 67.504552
" />
<path d="M147.153333 67.504552
L147.105714 67.599790
" />
<path d="M147.105714 67.599790
L147.058095 67.647409
" />
<path d="M147.058095 67.647409
L146.962857 67.695028
" />
<path d="M146.962857 67.695028
L146.581905 67.695028
" />
<path d="M148.010476 67.171219
L147.820000 67.171219
" />
<path d="M147.820000 67.171219
L147.724762 67.218838
" />
<path d="M147.724762 67.218838
L147.677143 67.266457
" />
<path d="M147.677143 67.266457
L147.581905 67.409314
" />
<path d="M147.581905 67.409314
L147.534286 67.599790
" />
<path d="M147.534286 67.599790
L147.534286 67.980742
" />
<path d="M147.534286 67.980742
L147.581905 68.075980
" />
<path d="M147.581905 68.075980
L147.629524 68.123600
" />
<path d="M147.629524 68.123600
L147.724762 68.171219
" />
<path d="M147.724762 68.171219
L147.915238 68.171219
" />
<path d="M147.915238 68.171219
L148.010476 68.123600
" />
<path d="M148.010476 68.123600
L148.058095 68.075980
" />
<path d="M148.058095 68.075980
L148.105714 67.980742
" />
<path d="M148.105714 67.980742
L148.105714 67.742647
" />
<path d="M148.105714 67.742647
L148.058095 67.647409
" />
<path d="M148.058095 67.647409
L148.010476 67.599790
" />
<path d="M148.010476 67.599790
L147.915238 67.552171
" />
<path d="M147.915238 67.552171
L147.724762 67.552171
" />
<path d="M147.724762 67.552171
L147.629524 67.599790
" />
<path d="M147.629524 67.599790
L147.581905 67.647409
" />
<path d="M147.581905 67.647409
L147.534286 67.742647
" />
</g><text x="144.856200" y="68.267200"
textLength="2.202381" font-size="1.333333" lengthAdjust="spacingAndGlyphs"
text-anchor="middle" opacity="0" stroke-opacity="0">R7</text>
<g class="stroked-text"><desc>R7</desc>
<path d="M144.689533 68.222019
L144.356200 67.745828
" />
<path d="M144.118105 68.222019
L144.118105 67.222019
" />
<path d="M144.118105 67.222019
L144.499057 67.222019
" />
<path d="M144.499057 67.222019
L144.594295 67.269638
" />
<path d="M144.594295 67.269638
L144.641914 67.317257
" />
<path d="M144.641914 67.317257
L144.689533 67.412495
" />
<path d="M144.689533 67.412495
L144.689533 67.555352
" />
<path d="M144.689533 67.555352
L144.641914 67.650590
" />
<path d="M144.641914 67.650590
L144.594295 67.698209
" />
<path d="M144.594295 67.698209
L144.499057 67.745828
" />
<path d="M144.499057 67.745828
L144.118105 67.745828
" />
<path d="M145.022867 67.222019
L145.689533 67.222019
" />
<path d="M145.689533 67.222019
L145.260962 68.222019
" />
</g><text x="170.332400" y="85.640800"
textLength="3.059524" font-size="1.333333" lengthAdjust="spacingAndGlyphs"
text-anchor="middle" opacity="0" stroke-opacity="0">VR1</text>
<g class="stroked-text"><desc>VR1</desc>
<path d="M169.022876 84.595619
L169.356209 85.595619
" />
<path d="M169.356209 85.595619
L169.689542 84.595619
" />
<path d="M170.594304 85.595619
L170.260971 85.119428
" />
<path d="M170.022876 85.595619
L170.022876 84.595619
" />
<path d="M170.022876 84.595619
L170.403828 84.595619
" />
<path d="M170.403828 84.595619
L170.499066 84.643238
" />
<path d="M170.499066 84.643238
L170.546685 84.690857
" />
<path d="M170.546685 84.690857
L170.594304 84.786095
" />
<path d="M170.594304 84.786095
L170.594304 84.928952
" />
<path d="M170.594304 84.928952
L170.546685 85.024190
" />
<path d="M170.546685 85.024190
L170.499066 85.071809
" />
<path d="M170.499066 85.071809
L170.403828 85.119428
" />
<path d="M170.403828 85.119428
L170.022876 85.119428
" />
<path d="M171.546685 85.595619
L170.975257 85.595619
" />
<path d="M171.260971 85.595619
L171.260971 84.595619
" />
<path d="M171.260971 84.595619
L171.165733 84.738476
" />
<path d="M171.165733 84.738476
L171.070495 84.833714
" />
<path d="M171.070495 84.833714
L170.975257 84.881333
" />
</g><text x="158.927800" y="73.327800"
textLength="2.059524" font-size="1.333333" lengthAdjust="spacingAndGlyphs"
text-anchor="middle" opacity="0" stroke-opacity="0">Y1</text>
<g class="stroked-text"><desc>Y1</desc>
<path d="M158.451609 72.806428
L158.451609 73.282619
" />
<path d="M158.118276 72.282619
L158.451609 72.806428
" />
<path d="M158.451609 72.806428
L158.784942 72.282619
" />
<path d="M159.642085 73.282619
L159.070657 73.282619
" />
<path d="M159.356371 73.282619
L159.356371 72.282619
" />
<path d="M159.356371 72.282619
L159.261133 72.425476
" />
<path d="M159.261133 72.425476
L159.165895 72.520714
" />
<path d="M159.165895 72.520714
L159.070657 72.568333
" />
</g><text x="173.431200" y="75.633200"
textLength="1.964286" font-size="1.333333" lengthAdjust="spacingAndGlyphs"
text-anchor="middle" opacity="0" stroke-opacity="0">J2</text>
<g class="stroked-text"><desc>J2</desc>
<path d="M173.097866 74.588019
L173.097866 75.302304
" />
<path d="M173.097866 75.302304
L173.050247 75.445161
" />
<path d="M173.050247 75.445161
L172.955009 75.540400
" />
<path d="M172.955009 75.540400
L172.812152 75.588019
" />
<path d="M172.812152 75.588019
L172.716914 75.588019
" />
<path d="M173.526438 74.683257
L173.574057 74.635638
" />
<path d="M173.574057 74.635638
L173.669295 74.588019
" />
<path d="M173.669295 74.588019
L173.907390 74.588019
" />
<path d="M173.907390 74.588019
L174.002628 74.635638
" />
<path d="M174.002628 74.635638
L174.050247 74.683257
" />
<path d="M174.050247 74.683257
L174.097866 74.778495
" />
<path d="M174.097866 74.778495
L174.097866 74.873733
" />
<path d="M174.097866 74.873733
L174.050247 75.016590
" />
<path d="M174.050247 75.016590
L173.478819 75.588019
" />
<path d="M173.478819 75.588019
L174.097866 75.588019
" />
</g><text x="149.961600" y="80.129000"
textLength="2.250000" font-size="1.333333" lengthAdjust="spacingAndGlyphs"
text-anchor="middle" opacity="0" stroke-opacity="0">U1</text>
<g class="stroked-text"><desc>U1</desc>
<path d="M149.199695 79.083819
L149.199695 79.893342
" />
<path d="M149.199695 79.893342
L149.247314 79.988580
" />
<path d="M149.247314 79.988580
L149.294933 80.036200
" />
<path d="M149.294933 80.036200
L149.390171 80.083819
" />
<path d="M149.390171 80.083819
L149.580647 80.083819
" />
<path d="M149.580647 80.083819
L149.675885 80.036200
" />
<path d="M149.675885 80.036200
L149.723504 79.988580
" />
<path d="M149.723504 79.988580
L149.771123 79.893342
" />
<path d="M149.771123 79.893342
L149.771123 79.083819
" />
<path d="M150.771123 80.083819
L150.199695 80.083819
" />
<path d="M150.485409 80.083819
L150.485409 79.083819
" />
<path d="M150.485409 79.083819
L150.390171 79.226676
" />
<path d="M150.390171 79.226676
L150.294933 79.321914
" />
<path d="M150.294933 79.321914
L150.199695 79.369533
" />
</g><text x="170.281600" y="80.611600"
textLength="3.059524" font-size="1.333333" lengthAdjust="spacingAndGlyphs"
text-anchor="middle" opacity="0" stroke-opacity="0">VR2</text>
<g class="stroked-text"><desc>VR2</desc>
<path d="M168.972076 79.566419
L169.305409 80.566419
" />
<path d="M169.305409 80.566419
L169.638742 79.566419
" />
<path d="M170.543504 80.566419
L170.210171 80.090228
" />
<path d="M169.972076 80.566419
L169.972076 79.566419
" />
<path d="M169.972076 79.566419
L170.353028 79.566419
" />
<path d="M170.353028 79.566419
L170.448266 79.614038
" />
<path d="M170.448266 79.614038
L170.495885 79.661657
" />
<path d="M170.495885 79.661657
L170.543504 79.756895
" />
<path d="M170.543504 79.756895
L170.543504 79.899752
" />
<path d="M170.543504 79.899752
L170.495885 79.994990
" />
<path d="M170.495885 79.994990
L170.448266 80.042609
" />
<path d="M170.448266 80.042609
L170.353028 80.090228
" />
<path d="M170.353028 80.090228
L169.972076 80.090228
" />
<path d="M170.924457 79.661657
L170.972076 79.614038
" />
<path d="M170.972076 79.614038
L171.067314 79.566419
" />
<path d="M171.067314 79.566419
L171.305409 79.566419
" />
<path d="M171.305409 79.566419
L171.400647 79.614038
" />
<path d="M171.400647 79.614038
L171.448266 79.661657
" />
<path d="M171.448266 79.661657
L171.495885 79.756895
" />
<path d="M171.495885 79.756895
L171.495885 79.852133
" />
<path d="M171.495885 79.852133
L171.448266 79.994990
" />
<path d="M171.448266 79.994990
L170.876838 80.566419
" />
<path d="M170.876838 80.566419
L171.495885 80.566419
" />
</g><text x="162.356800" y="80.052800"
textLength="2.202381" font-size="1.333333" lengthAdjust="spacingAndGlyphs"
text-anchor="middle" opacity="0" stroke-opacity="0">C6</text>
<g class="stroked-text"><desc>C6</desc>
<path d="M162.190133 79.912380
L162.142514 79.960000
" />
<path d="M162.142514 79.960000
L161.999657 80.007619
" />
<path d="M161.999657 80.007619
L161.904419 80.007619
" />
<path d="M161.904419 80.007619
L161.761562 79.960000
" />
<path d="M161.761562 79.960000
L161.666324 79.864761
" />
<path d="M161.666324 79.864761
L161.618705 79.769523
" />
<path d="M161.618705 79.769523
L161.571086 79.579047
" />
<path d="M161.571086 79.579047
L161.571086 79.436190
" />
<path d="M161.571086 79.436190
L161.618705 79.245714
" />
<path d="M161.618705 79.245714
L161.666324 79.150476
" />
<path d="M161.666324 79.150476
L161.761562 79.055238
" />
<path d="M161.761562 79.055238
L161.904419 79.007619
" />
<path d="M161.904419 79.007619
L161.999657 79.007619
" />
<path d="M161.999657 79.007619
L162.142514 79.055238
" />
<path d="M162.142514 79.055238
L162.190133 79.102857
" />
<path d="M163.047276 79.007619
L162.856800 79.007619
" />
<path d="M162.856800 79.007619
L162.761562 79.055238
" />
<path d="M162.761562 79.055238
L162.713943 79.102857
" />
<path d="M162.713943 79.102857
L162.618705 79.245714
" />
<path d="M162.618705 79.245714
L162.571086 79.436190
" />
<path d="M162.571086 79.436190
L162.571086 79.817142
" />
<path d="M162.571086 79.817142
L162.618705 79.912380
" />
<path d="M162.618705 79.912380
L162.666324 79.960000
" />
<path d="M162.666324 79.960000
L162.761562 80.007619
" />
<path d="M162.761562 80.007619
L162.952038 80.007619
" />
<path d="M162.952038 80.007619
L163.047276 79.960000
" />
<path d="M163.047276 79.960000
L163.094895 79.912380
" />
<path d="M163.094895 79.912380
L163.142514 79.817142
" />
<path d="M163.142514 79.817142
L163.142514 79.579047
" />
<path d="M163.142514 79.579047
L163.094895 79.483809
" />
<path d="M163.094895 79.483809
L163.047276 79.436190
" />
<path d="M163.047276 79.436190
L162.952038 79.388571
" />
<path d="M162.952038 79.388571
L162.761562 79.388571
" />
<path d="M162.761562 79.388571
L162.666324 79.436190
" />
<path d="M162.666324 79.436190
L162.618705 79.483809
" />
<path d="M162.618705 79.483809
L162.571086 79.579047
" />
</g></g>
<g style="fill:none; 
stroke:#000000; stroke-width:0.120000; stroke-opacity:1; 
stroke-linecap:round; stroke-linejoin:round;">
<path d="M126.575400 91.698837
L126.575400 99.154400
" />
<path d="M126.575400 99.154400
L129.325400 99.154400
" />
<path d="M127.639837 90.634400
L126.575400 91.698837
" />
<path d="M127.639837 90.634400
L129.325400 90.634400
" />
<path d="M133.345400 89.394400
L133.345400 90.394400
" />
<path d="M133.845400 89.894400
L132.845400 89.894400
" />
<path d="M134.030963 90.634400
L132.345400 90.634400
" />
<path d="M134.030963 90.634400
L135.095400 91.698837
" />
<path d="M135.095400 91.698837
L135.095400 99.154400
" />
<path d="M135.095400 99.154400
L132.345400 99.154400
" />
<path d="M122.741422 90.190000
L123.258578 90.190000
" />
<path d="M122.741422 91.610000
L123.258578 91.610000
" />
<path d="M161.550000 74.857422
L161.550000 75.374578
" />
<path d="M162.970000 74.857422
L162.970000 75.374578
" />
<path d="M155.200000 74.857422
L155.200000 75.374578
" />
<path d="M156.620000 74.857422
L156.620000 75.374578
" />
<path d="M162.612000 88.895422
L162.612000 89.412578
" />
<path d="M164.032000 88.895422
L164.032000 89.412578
" />
<path d="M153.716222 78.157000
L154.233378 78.157000
" />
<path d="M153.716222 79.577000
L154.233378 79.577000
" />
<path d="M144.044600 79.227178
L144.044600 78.710022
" />
<path d="M145.464600 79.227178
L145.464600 78.710022
" />
<path d="M161.679000 95.174000
L161.679000 99.059000
" />
<path d="M161.679000 99.059000
L163.949000 99.059000
" />
<path d="M163.949000 99.059000
L163.949000 95.174000
" />
<path d="M146.360000 73.950000
L146.360000 76.635000
" />
<path d="M146.360000 76.635000
L148.280000 76.635000
" />
<path d="M148.280000 76.635000
L148.280000 73.950000
" />
<path d="M143.820000 73.950000
L143.820000 76.635000
" />
<path d="M143.820000 76.635000
L145.740000 76.635000
" />
<path d="M145.740000 76.635000
L145.740000 73.950000
" />
<path d="M166.507748 75.506000
L169.280252 75.506000
" />
<path d="M166.507748 78.926000
L169.280252 78.926000
" />
<path d="M168.152578 89.968000
L167.635422 89.968000
" />
<path d="M168.152578 91.388000
L167.635422 91.388000
" />
<path d="M117.990000 76.640000
L121.600000 76.640000
" />
<path d="M117.990000 85.760000
L117.990000 76.640000
" />
<path d="M117.990000 85.760000
L121.600000 85.760000
" />
<path d="M121.300000 78.200000
L126.100000 78.200000
" />
<path d="M121.300000 84.200000
L126.100000 84.200000
" />
<path d="M121.300000 85.760000
L121.300000 76.640000
" />
<path d="M121.840000 73.940000
L121.840000 75.840000
" />
<path d="M123.180000 73.940000
L121.840000 73.940000
" />
<path d="M124.600000 76.640000
L127.600000 76.640000
" />
<path d="M124.600000 85.760000
L127.600000 85.760000
" />
<path d="M130.600000 76.640000
L132.910000 76.640000
" />
<path d="M130.600000 85.760000
L132.910000 85.760000
" />
<path d="M132.910000 85.760000
L132.910000 76.640000
" />
<path d="M126.100000 84.200000 A3.000000 3.000000 0.0 0 0 126.100000 78.200000" />
<path d="M134.970000 78.230000
L134.970000 68.010000
" />
<path d="M137.630000 68.010000
L134.970000 68.010000
" />
<path d="M137.630000 78.230000
L134.970000 78.230000
" />
<path d="M137.630000 78.230000
L137.630000 68.010000
" />
<path d="M137.630000 79.500000
L137.630000 80.830000
" />
<path d="M137.630000 80.830000
L136.300000 80.830000
" />
<path d="M150.562000 93.920000
L151.892000 93.920000
" />
<path d="M150.562000 95.250000
L150.562000 93.920000
" />
<path d="M150.562000 96.520000
L150.562000 99.120000
" />
<path d="M150.562000 96.520000
L153.162000 96.520000
" />
<path d="M150.562000 99.120000
L155.762000 99.120000
" />
<path d="M153.162000 93.920000
L155.762000 93.920000
" />
<path d="M153.162000 96.520000
L153.162000 93.920000
" />
<path d="M155.762000 93.920000
L155.762000 99.120000
" />
<path d="M139.792400 93.894600
L147.532400 93.894600
" />
<path d="M139.792400 96.494600
L139.792400 93.894600
" />
<path d="M139.792400 99.094600
L139.792400 97.764600
" />
<path d="M141.122400 99.094600
L139.792400 99.094600
" />
<path d="M142.392400 96.494600
L139.792400 96.494600
" />
<path d="M142.392400 99.094600
L142.392400 96.494600
" />
<path d="M142.392400 99.094600
L147.532400 99.094600
" />
<path d="M147.532400 99.094600
L147.532400 93.894600
" />
<path d="M139.640000 75.886000
L140.970000 75.886000
" />
<path d="M139.640000 77.216000
L139.640000 75.886000
" />
<path d="M139.640000 78.486000
L139.640000 91.246000
" />
<path d="M139.640000 78.486000
L142.300000 78.486000
" />
<path d="M139.640000 91.246000
L142.300000 91.246000
" />
<path d="M142.300000 78.486000
L142.300000 91.246000
" />
<path d="M166.259000 96.483400
L166.259000 95.083400
" />
<path d="M166.959000 94.383400
L167.559000 94.383400
" />
<path d="M167.559000 97.183400
L166.959000 97.183400
" />
<path d="M168.259000 95.083400
L168.259000 96.483400
" />
<path d="M166.959000 94.383400 A0.699999 0.699999 0.0 0 0 166.259000 95.083400" />
<path d="M166.259000 96.483400 A0.700000 0.700000 0.0 0 0 166.959000 97.183400" />
<path d="M168.259000 95.083400 A0.699999 0.699999 0.0 0 0 167.559000 94.383400" />
<path d="M167.559000 97.183400 A0.700000 0.700000 0.0 0 0 168.259000 96.483400" />
<path d="M166.111422 85.396000
L166.628578 85.396000
" />
<path d="M166.111422 86.816000
L166.628578 86.816000
" />
<path d="M166.111422 83.110000
L166.628578 83.110000
" />
<path d="M166.111422 84.530000
L166.628578 84.530000
" />
<path d="M159.216578 75.168000
L158.699422 75.168000
" />
<path d="M159.216578 76.588000
L158.699422 76.588000
" />
<path d="M158.294000 96.016578
L158.294000 95.499422
" />
<path d="M159.714000 96.016578
L159.714000 95.499422
" />
<path d="M144.044600 82.545422
L144.044600 83.062578
" />
<path d="M145.464600 82.545422
L145.464600 83.062578
" />
<path d="M146.610000 69.916222
L146.610000 70.433378
" />
<path d="M148.030000 69.916222
L148.030000 70.433378
" />
<path d="M144.070000 69.916222
L144.070000 70.433378
" />
<path d="M145.490000 69.916222
L145.490000 70.433378
" />
<path d="M169.924000 87.187721
L169.924000 87.513279
" />
<path d="M170.944000 87.187721
L170.944000 87.513279
" />
<path d="M156.227800 71.827800
L162.127800 71.827800
" />
<path d="M162.127800 68.227800
L156.227800 68.227800
" />
<path d="M162.127800 71.827800
L162.127800 68.227800
" />
<path d="M171.432000 81.034000
L171.432000 82.034000
" />
<path d="M171.432000 82.034000
L171.932000 81.534000
" />
<path d="M171.932000 81.534000
L171.432000 81.034000
" />
<path d="M172.132000 76.674000
L175.882000 76.674000
" />
<path d="M172.132000 88.894000
L172.132000 76.674000
" />
<path d="M172.132000 88.894000
L175.882000 88.894000
" />
<path d="M188.752000 76.674000
L180.782000 76.674000
" />
<path d="M188.752000 88.894000
L180.782000 88.894000
" />
<path d="M188.752000 88.894000
L188.752000 76.674000
" />
</g>
<g style="fill:none; 
stroke:#000000; stroke-width:0.150000; stroke-opacity:1; 
stroke-linecap:round; stroke-linejoin:round;">
<path d="M150.807000 82.227000
L150.807000 82.552000
" />
<path d="M150.807000 82.227000
L151.132000 82.227000
" />
<path d="M150.807000 89.477000
L150.807000 89.152000
" />
<path d="M150.807000 89.477000
L151.132000 89.477000
" />
<path d="M157.832000 82.227000
L157.832000 80.802000
" />
<path d="M158.057000 82.227000
L157.832000 82.227000
" />
<path d="M158.057000 82.227000
L158.057000 82.552000
" />
<path d="M158.057000 89.477000
L157.732000 89.477000
" />
<path d="M158.057000 89.477000
L158.057000 89.152000
" />
</g>
<g style="fill:none; 
stroke:#000000; stroke-width:0.120000; stroke-opacity:1; 
stroke-linecap:round; stroke-linejoin:round;">
<path d="M169.924000 82.484179
L169.924000 82.158621
" />
<path d="M170.944000 82.484179
L170.944000 82.158621
" />
<path d="M161.672200 82.325978
L161.672200 81.808822
" />
<path d="M163.092200 82.325978
L163.092200 81.808822
" />
</g> 
</svg>
