<?xml version="1.0" standalone="no"?>
 <!DOCTYPE svg PUBLIC "-//W3C//DTD SVG 1.1//EN" 
 "http://www.w3.org/Graphics/SVG/1.1/DTD/svg11.dtd"> 
<svg
  xmlns:svg="http://www.w3.org/2000/svg"
  xmlns="http://www.w3.org/2000/svg"
  xmlns:xlink="http://www.w3.org/1999/xlink"
  version="1.1"
  width="297.0022mm" height="210.0072mm" viewBox="0.0000 0.0000 297.0022 210.0072">
<title>SVG Image created as t1-B_Fab.svg date 2024/04/10 14:30:56 </title>
  <desc>Image generated by PCBNEW </desc>
<g style="fill:#000000; fill-opacity:1.0000;stroke:#000000; stroke-opacity:1.0000;
stroke-linecap:round; stroke-linejoin:round;"
 transform="translate(0 0) scale(1 1)">
</g>
<g style="fill:none; 
stroke:#000000; stroke-width:0.1500; stroke-opacity:1; 
stroke-linecap:round; stroke-linejoin:round;">
<text x="165.8366" y="78.8336"
transform="scale(-1 1) translate(-331.673200 0)"
textLength="7.1071" font-size="1.3333" lengthAdjust="spacingAndGlyphs"
text-anchor="middle" opacity="0">TestPoint</text>
<g class="stroked-text"><desc>TestPoint</desc>
<path d="M169.1699 77.7884
L168.5985 77.7884
" />
<path d="M168.8842 78.7884
L168.8842 77.7884
" />
<path d="M167.8842 78.7408
L167.9795 78.7884
" />
<path d="M167.9795 78.7884
L168.1699 78.7884
" />
<path d="M168.1699 78.7884
L168.2652 78.7408
" />
<path d="M168.2652 78.7408
L168.3128 78.6456
" />
<path d="M168.3128 78.6456
L168.3128 78.2646
" />
<path d="M168.3128 78.2646
L168.2652 78.1694
" />
<path d="M168.2652 78.1694
L168.1699 78.1218
" />
<path d="M168.1699 78.1218
L167.9795 78.1218
" />
<path d="M167.9795 78.1218
L167.8842 78.1694
" />
<path d="M167.8842 78.1694
L167.8366 78.2646
" />
<path d="M167.8366 78.2646
L167.8366 78.3598
" />
<path d="M167.8366 78.3598
L168.3128 78.4551
" />
<path d="M167.4556 78.7408
L167.3604 78.7884
" />
<path d="M167.3604 78.7884
L167.1699 78.7884
" />
<path d="M167.1699 78.7884
L167.0747 78.7408
" />
<path d="M167.0747 78.7408
L167.0271 78.6456
" />
<path d="M167.0271 78.6456
L167.0271 78.5979
" />
<path d="M167.0271 78.5979
L167.0747 78.5027
" />
<path d="M167.0747 78.5027
L167.1699 78.4551
" />
<path d="M167.1699 78.4551
L167.3128 78.4551
" />
<path d="M167.3128 78.4551
L167.4080 78.4075
" />
<path d="M167.4080 78.4075
L167.4556 78.3122
" />
<path d="M167.4556 78.3122
L167.4556 78.2646
" />
<path d="M167.4556 78.2646
L167.4080 78.1694
" />
<path d="M167.4080 78.1694
L167.3128 78.1218
" />
<path d="M167.3128 78.1218
L167.1699 78.1218
" />
<path d="M167.1699 78.1218
L167.0747 78.1694
" />
<path d="M166.7414 78.1218
L166.3604 78.1218
" />
<path d="M166.5985 77.7884
L166.5985 78.6456
" />
<path d="M166.5985 78.6456
L166.5509 78.7408
" />
<path d="M166.5509 78.7408
L166.4556 78.7884
" />
<path d="M166.4556 78.7884
L166.3604 78.7884
" />
<path d="M166.0271 78.7884
L166.0271 77.7884
" />
<path d="M166.0271 77.7884
L165.6461 77.7884
" />
<path d="M165.6461 77.7884
L165.5509 77.8360
" />
<path d="M165.5509 77.8360
L165.5033 77.8837
" />
<path d="M165.5033 77.8837
L165.4556 77.9789
" />
<path d="M165.4556 77.9789
L165.4556 78.1218
" />
<path d="M165.4556 78.1218
L165.5033 78.2170
" />
<path d="M165.5033 78.2170
L165.5509 78.2646
" />
<path d="M165.5509 78.2646
L165.6461 78.3122
" />
<path d="M165.6461 78.3122
L166.0271 78.3122
" />
<path d="M164.8842 78.7884
L164.9795 78.7408
" />
<path d="M164.9795 78.7408
L165.0271 78.6932
" />
<path d="M165.0271 78.6932
L165.0747 78.5979
" />
<path d="M165.0747 78.5979
L165.0747 78.3122
" />
<path d="M165.0747 78.3122
L165.0271 78.2170
" />
<path d="M165.0271 78.2170
L164.9795 78.1694
" />
<path d="M164.9795 78.1694
L164.8842 78.1218
" />
<path d="M164.8842 78.1218
L164.7414 78.1218
" />
<path d="M164.7414 78.1218
L164.6461 78.1694
" />
<path d="M164.6461 78.1694
L164.5985 78.2170
" />
<path d="M164.5985 78.2170
L164.5509 78.3122
" />
<path d="M164.5509 78.3122
L164.5509 78.5979
" />
<path d="M164.5509 78.5979
L164.5985 78.6932
" />
<path d="M164.5985 78.6932
L164.6461 78.7408
" />
<path d="M164.6461 78.7408
L164.7414 78.7884
" />
<path d="M164.7414 78.7884
L164.8842 78.7884
" />
<path d="M164.1223 78.7884
L164.1223 78.1218
" />
<path d="M164.1223 77.7884
L164.1699 77.8360
" />
<path d="M164.1699 77.8360
L164.1223 77.8837
" />
<path d="M164.1223 77.8837
L164.0747 77.8360
" />
<path d="M164.0747 77.8360
L164.1223 77.7884
" />
<path d="M164.1223 77.7884
L164.1223 77.8837
" />
<path d="M163.6461 78.1218
L163.6461 78.7884
" />
<path d="M163.6461 78.2170
L163.5985 78.1694
" />
<path d="M163.5985 78.1694
L163.5033 78.1218
" />
<path d="M163.5033 78.1218
L163.3604 78.1218
" />
<path d="M163.3604 78.1218
L163.2652 78.1694
" />
<path d="M163.2652 78.1694
L163.2176 78.2646
" />
<path d="M163.2176 78.2646
L163.2176 78.7884
" />
<path d="M162.8842 78.1218
L162.5033 78.1218
" />
<path d="M162.7414 77.7884
L162.7414 78.6456
" />
<path d="M162.7414 78.6456
L162.6937 78.7408
" />
<path d="M162.6937 78.7408
L162.5985 78.7884
" />
<path d="M162.5985 78.7884
L162.5033 78.7884
" />
</g><text x="167.7924" y="82.1124"
transform="scale(-1 1) translate(-335.584800 0)"
textLength="2.9643" font-size="1.3333" lengthAdjust="spacingAndGlyphs"
text-anchor="middle" opacity="0">TP2</text>
<g class="stroked-text"><desc>TP2</desc>
<path d="M169.0543 81.0672
L168.4829 81.0672
" />
<path d="M168.7686 82.0672
L168.7686 81.0672
" />
<path d="M168.1495 82.0672
L168.1495 81.0672
" />
<path d="M168.1495 81.0672
L167.7686 81.0672
" />
<path d="M167.7686 81.0672
L167.6734 81.1148
" />
<path d="M167.6734 81.1148
L167.6257 81.1625
" />
<path d="M167.6257 81.1625
L167.5781 81.2577
" />
<path d="M167.5781 81.2577
L167.5781 81.4006
" />
<path d="M167.5781 81.4006
L167.6257 81.4958
" />
<path d="M167.6257 81.4958
L167.6734 81.5434
" />
<path d="M167.6734 81.5434
L167.7686 81.5910
" />
<path d="M167.7686 81.5910
L168.1495 81.5910
" />
<path d="M167.1972 81.1625
L167.1495 81.1148
" />
<path d="M167.1495 81.1148
L167.0543 81.0672
" />
<path d="M167.0543 81.0672
L166.8162 81.0672
" />
<path d="M166.8162 81.0672
L166.7210 81.1148
" />
<path d="M166.7210 81.1148
L166.6734 81.1625
" />
<path d="M166.6734 81.1625
L166.6257 81.2577
" />
<path d="M166.6257 81.2577
L166.6257 81.3529
" />
<path d="M166.6257 81.3529
L166.6734 81.4958
" />
<path d="M166.6734 81.4958
L167.2448 82.0672
" />
<path d="M167.2448 82.0672
L166.6257 82.0672
" />
</g><text x="172.0850" y="77.2080"
transform="scale(-1 1) translate(-344.170000 0)"
textLength="7.1071" font-size="1.3333" lengthAdjust="spacingAndGlyphs"
text-anchor="middle" opacity="0">TestPoint</text>
<g class="stroked-text"><desc>TestPoint</desc>
<path d="M175.4183 76.1628
L174.8469 76.1628
" />
<path d="M175.1326 77.1628
L175.1326 76.1628
" />
<path d="M174.1326 77.1152
L174.2279 77.1628
" />
<path d="M174.2279 77.1628
L174.4183 77.1628
" />
<path d="M174.4183 77.1628
L174.5136 77.1152
" />
<path d="M174.5136 77.1152
L174.5612 77.0200
" />
<path d="M174.5612 77.0200
L174.5612 76.6390
" />
<path d="M174.5612 76.6390
L174.5136 76.5438
" />
<path d="M174.5136 76.5438
L174.4183 76.4962
" />
<path d="M174.4183 76.4962
L174.2279 76.4962
" />
<path d="M174.2279 76.4962
L174.1326 76.5438
" />
<path d="M174.1326 76.5438
L174.0850 76.6390
" />
<path d="M174.0850 76.6390
L174.0850 76.7342
" />
<path d="M174.0850 76.7342
L174.5612 76.8295
" />
<path d="M173.7040 77.1152
L173.6088 77.1628
" />
<path d="M173.6088 77.1628
L173.4183 77.1628
" />
<path d="M173.4183 77.1628
L173.3231 77.1152
" />
<path d="M173.3231 77.1152
L173.2755 77.0200
" />
<path d="M173.2755 77.0200
L173.2755 76.9723
" />
<path d="M173.2755 76.9723
L173.3231 76.8771
" />
<path d="M173.3231 76.8771
L173.4183 76.8295
" />
<path d="M173.4183 76.8295
L173.5612 76.8295
" />
<path d="M173.5612 76.8295
L173.6564 76.7819
" />
<path d="M173.6564 76.7819
L173.7040 76.6866
" />
<path d="M173.7040 76.6866
L173.7040 76.6390
" />
<path d="M173.7040 76.6390
L173.6564 76.5438
" />
<path d="M173.6564 76.5438
L173.5612 76.4962
" />
<path d="M173.5612 76.4962
L173.4183 76.4962
" />
<path d="M173.4183 76.4962
L173.3231 76.5438
" />
<path d="M172.9898 76.4962
L172.6088 76.4962
" />
<path d="M172.8469 76.1628
L172.8469 77.0200
" />
<path d="M172.8469 77.0200
L172.7993 77.1152
" />
<path d="M172.7993 77.1152
L172.7040 77.1628
" />
<path d="M172.7040 77.1628
L172.6088 77.1628
" />
<path d="M172.2755 77.1628
L172.2755 76.1628
" />
<path d="M172.2755 76.1628
L171.8945 76.1628
" />
<path d="M171.8945 76.1628
L171.7993 76.2104
" />
<path d="M171.7993 76.2104
L171.7517 76.2581
" />
<path d="M171.7517 76.2581
L171.7040 76.3533
" />
<path d="M171.7040 76.3533
L171.7040 76.4962
" />
<path d="M171.7040 76.4962
L171.7517 76.5914
" />
<path d="M171.7517 76.5914
L171.7993 76.6390
" />
<path d="M171.7993 76.6390
L171.8945 76.6866
" />
<path d="M171.8945 76.6866
L172.2755 76.6866
" />
<path d="M171.1326 77.1628
L171.2279 77.1152
" />
<path d="M171.2279 77.1152
L171.2755 77.0676
" />
<path d="M171.2755 77.0676
L171.3231 76.9723
" />
<path d="M171.3231 76.9723
L171.3231 76.6866
" />
<path d="M171.3231 76.6866
L171.2755 76.5914
" />
<path d="M171.2755 76.5914
L171.2279 76.5438
" />
<path d="M171.2279 76.5438
L171.1326 76.4962
" />
<path d="M171.1326 76.4962
L170.9898 76.4962
" />
<path d="M170.9898 76.4962
L170.8945 76.5438
" />
<path d="M170.8945 76.5438
L170.8469 76.5914
" />
<path d="M170.8469 76.5914
L170.7993 76.6866
" />
<path d="M170.7993 76.6866
L170.7993 76.9723
" />
<path d="M170.7993 76.9723
L170.8469 77.0676
" />
<path d="M170.8469 77.0676
L170.8945 77.1152
" />
<path d="M170.8945 77.1152
L170.9898 77.1628
" />
<path d="M170.9898 77.1628
L171.1326 77.1628
" />
<path d="M170.3707 77.1628
L170.3707 76.4962
" />
<path d="M170.3707 76.1628
L170.4183 76.2104
" />
<path d="M170.4183 76.2104
L170.3707 76.2581
" />
<path d="M170.3707 76.2581
L170.3231 76.2104
" />
<path d="M170.3231 76.2104
L170.3707 76.1628
" />
<path d="M170.3707 76.1628
L170.3707 76.2581
" />
<path d="M169.8945 76.4962
L169.8945 77.1628
" />
<path d="M169.8945 76.5914
L169.8469 76.5438
" />
<path d="M169.8469 76.5438
L169.7517 76.4962
" />
<path d="M169.7517 76.4962
L169.6088 76.4962
" />
<path d="M169.6088 76.4962
L169.5136 76.5438
" />
<path d="M169.5136 76.5438
L169.4660 76.6390
" />
<path d="M169.4660 76.6390
L169.4660 77.1628
" />
<path d="M169.1326 76.4962
L168.7517 76.4962
" />
<path d="M168.9898 76.1628
L168.9898 77.0200
" />
<path d="M168.9898 77.0200
L168.9421 77.1152
" />
<path d="M168.9421 77.1152
L168.8469 77.1628
" />
<path d="M168.8469 77.1628
L168.7517 77.1628
" />
</g><text x="171.5262" y="80.4846"
transform="scale(-1 1) translate(-343.052400 0)"
textLength="2.9643" font-size="1.3333" lengthAdjust="spacingAndGlyphs"
text-anchor="middle" opacity="0">TP3</text>
<g class="stroked-text"><desc>TP3</desc>
<path d="M172.7881 79.4394
L172.2167 79.4394
" />
<path d="M172.5024 80.4394
L172.5024 79.4394
" />
<path d="M171.8833 80.4394
L171.8833 79.4394
" />
<path d="M171.8833 79.4394
L171.5024 79.4394
" />
<path d="M171.5024 79.4394
L171.4072 79.4870
" />
<path d="M171.4072 79.4870
L171.3595 79.5347
" />
<path d="M171.3595 79.5347
L171.3119 79.6299
" />
<path d="M171.3119 79.6299
L171.3119 79.7728
" />
<path d="M171.3119 79.7728
L171.3595 79.8680
" />
<path d="M171.3595 79.8680
L171.4072 79.9156
" />
<path d="M171.4072 79.9156
L171.5024 79.9632
" />
<path d="M171.5024 79.9632
L171.8833 79.9632
" />
<path d="M170.9786 79.4394
L170.3595 79.4394
" />
<path d="M170.3595 79.4394
L170.6929 79.8204
" />
<path d="M170.6929 79.8204
L170.5500 79.8204
" />
<path d="M170.5500 79.8204
L170.4548 79.8680
" />
<path d="M170.4548 79.8680
L170.4072 79.9156
" />
<path d="M170.4072 79.9156
L170.3595 80.0108
" />
<path d="M170.3595 80.0108
L170.3595 80.2489
" />
<path d="M170.3595 80.2489
L170.4072 80.3442
" />
<path d="M170.4072 80.3442
L170.4548 80.3918
" />
<path d="M170.4548 80.3918
L170.5500 80.4394
" />
<path d="M170.5500 80.4394
L170.8357 80.4394
" />
<path d="M170.8357 80.4394
L170.9310 80.3918
" />
<path d="M170.9310 80.3918
L170.9786 80.3442
" />
</g><text x="183.9976" y="81.1450"
transform="scale(-1 1) translate(-367.995200 0)"
textLength="7.1071" font-size="1.3333" lengthAdjust="spacingAndGlyphs"
text-anchor="middle" opacity="0">TestPoint</text>
<g class="stroked-text"><desc>TestPoint</desc>
<path d="M187.3309 80.0998
L186.7595 80.0998
" />
<path d="M187.0452 81.0998
L187.0452 80.0998
" />
<path d="M186.0452 81.0522
L186.1405 81.0998
" />
<path d="M186.1405 81.0998
L186.3309 81.0998
" />
<path d="M186.3309 81.0998
L186.4262 81.0522
" />
<path d="M186.4262 81.0522
L186.4738 80.9570
" />
<path d="M186.4738 80.9570
L186.4738 80.5760
" />
<path d="M186.4738 80.5760
L186.4262 80.4808
" />
<path d="M186.4262 80.4808
L186.3309 80.4332
" />
<path d="M186.3309 80.4332
L186.1405 80.4332
" />
<path d="M186.1405 80.4332
L186.0452 80.4808
" />
<path d="M186.0452 80.4808
L185.9976 80.5760
" />
<path d="M185.9976 80.5760
L185.9976 80.6712
" />
<path d="M185.9976 80.6712
L186.4738 80.7665
" />
<path d="M185.6166 81.0522
L185.5214 81.0998
" />
<path d="M185.5214 81.0998
L185.3309 81.0998
" />
<path d="M185.3309 81.0998
L185.2357 81.0522
" />
<path d="M185.2357 81.0522
L185.1881 80.9570
" />
<path d="M185.1881 80.9570
L185.1881 80.9093
" />
<path d="M185.1881 80.9093
L185.2357 80.8141
" />
<path d="M185.2357 80.8141
L185.3309 80.7665
" />
<path d="M185.3309 80.7665
L185.4738 80.7665
" />
<path d="M185.4738 80.7665
L185.5690 80.7189
" />
<path d="M185.5690 80.7189
L185.6166 80.6236
" />
<path d="M185.6166 80.6236
L185.6166 80.5760
" />
<path d="M185.6166 80.5760
L185.5690 80.4808
" />
<path d="M185.5690 80.4808
L185.4738 80.4332
" />
<path d="M185.4738 80.4332
L185.3309 80.4332
" />
<path d="M185.3309 80.4332
L185.2357 80.4808
" />
<path d="M184.9024 80.4332
L184.5214 80.4332
" />
<path d="M184.7595 80.0998
L184.7595 80.9570
" />
<path d="M184.7595 80.9570
L184.7119 81.0522
" />
<path d="M184.7119 81.0522
L184.6166 81.0998
" />
<path d="M184.6166 81.0998
L184.5214 81.0998
" />
<path d="M184.1881 81.0998
L184.1881 80.0998
" />
<path d="M184.1881 80.0998
L183.8071 80.0998
" />
<path d="M183.8071 80.0998
L183.7119 80.1474
" />
<path d="M183.7119 80.1474
L183.6643 80.1951
" />
<path d="M183.6643 80.1951
L183.6166 80.2903
" />
<path d="M183.6166 80.2903
L183.6166 80.4332
" />
<path d="M183.6166 80.4332
L183.6643 80.5284
" />
<path d="M183.6643 80.5284
L183.7119 80.5760
" />
<path d="M183.7119 80.5760
L183.8071 80.6236
" />
<path d="M183.8071 80.6236
L184.1881 80.6236
" />
<path d="M183.0452 81.0998
L183.1405 81.0522
" />
<path d="M183.1405 81.0522
L183.1881 81.0046
" />
<path d="M183.1881 81.0046
L183.2357 80.9093
" />
<path d="M183.2357 80.9093
L183.2357 80.6236
" />
<path d="M183.2357 80.6236
L183.1881 80.5284
" />
<path d="M183.1881 80.5284
L183.1405 80.4808
" />
<path d="M183.1405 80.4808
L183.0452 80.4332
" />
<path d="M183.0452 80.4332
L182.9024 80.4332
" />
<path d="M182.9024 80.4332
L182.8071 80.4808
" />
<path d="M182.8071 80.4808
L182.7595 80.5284
" />
<path d="M182.7595 80.5284
L182.7119 80.6236
" />
<path d="M182.7119 80.6236
L182.7119 80.9093
" />
<path d="M182.7119 80.9093
L182.7595 81.0046
" />
<path d="M182.7595 81.0046
L182.8071 81.0522
" />
<path d="M182.8071 81.0522
L182.9024 81.0998
" />
<path d="M182.9024 81.0998
L183.0452 81.0998
" />
<path d="M182.2833 81.0998
L182.2833 80.4332
" />
<path d="M182.2833 80.0998
L182.3309 80.1474
" />
<path d="M182.3309 80.1474
L182.2833 80.1951
" />
<path d="M182.2833 80.1951
L182.2357 80.1474
" />
<path d="M182.2357 80.1474
L182.2833 80.0998
" />
<path d="M182.2833 80.0998
L182.2833 80.1951
" />
<path d="M181.8071 80.4332
L181.8071 81.0998
" />
<path d="M181.8071 80.5284
L181.7595 80.4808
" />
<path d="M181.7595 80.4808
L181.6643 80.4332
" />
<path d="M181.6643 80.4332
L181.5214 80.4332
" />
<path d="M181.5214 80.4332
L181.4262 80.4808
" />
<path d="M181.4262 80.4808
L181.3786 80.5760
" />
<path d="M181.3786 80.5760
L181.3786 81.0998
" />
<path d="M181.0452 80.4332
L180.6643 80.4332
" />
<path d="M180.9024 80.0998
L180.9024 80.9570
" />
<path d="M180.9024 80.9570
L180.8547 81.0522
" />
<path d="M180.8547 81.0522
L180.7595 81.0998
" />
<path d="M180.7595 81.0998
L180.6643 81.0998
" />
</g><text x="178.9684" y="83.0754"
transform="scale(-1 1) translate(-357.936800 0)"
textLength="2.9643" font-size="1.3333" lengthAdjust="spacingAndGlyphs"
text-anchor="middle" opacity="0">TP4</text>
<g class="stroked-text"><desc>TP4</desc>
<path d="M180.2303 82.0302
L179.6589 82.0302
" />
<path d="M179.9446 83.0302
L179.9446 82.0302
" />
<path d="M179.3255 83.0302
L179.3255 82.0302
" />
<path d="M179.3255 82.0302
L178.9446 82.0302
" />
<path d="M178.9446 82.0302
L178.8494 82.0778
" />
<path d="M178.8494 82.0778
L178.8017 82.1255
" />
<path d="M178.8017 82.1255
L178.7541 82.2207
" />
<path d="M178.7541 82.2207
L178.7541 82.3636
" />
<path d="M178.7541 82.3636
L178.8017 82.4588
" />
<path d="M178.8017 82.4588
L178.8494 82.5064
" />
<path d="M178.8494 82.5064
L178.9446 82.5540
" />
<path d="M178.9446 82.5540
L179.3255 82.5540
" />
<path d="M177.8970 82.3636
L177.8970 83.0302
" />
<path d="M178.1351 81.9826
L178.3732 82.6969
" />
<path d="M178.3732 82.6969
L177.7541 82.6969
" />
</g><text x="183.8198" y="84.5740"
transform="scale(-1 1) translate(-367.639600 0)"
textLength="7.1071" font-size="1.3333" lengthAdjust="spacingAndGlyphs"
text-anchor="middle" opacity="0">TestPoint</text>
<g class="stroked-text"><desc>TestPoint</desc>
<path d="M187.1531 83.5288
L186.5817 83.5288
" />
<path d="M186.8674 84.5288
L186.8674 83.5288
" />
<path d="M185.8674 84.4812
L185.9627 84.5288
" />
<path d="M185.9627 84.5288
L186.1531 84.5288
" />
<path d="M186.1531 84.5288
L186.2484 84.4812
" />
<path d="M186.2484 84.4812
L186.2960 84.3860
" />
<path d="M186.2960 84.3860
L186.2960 84.0050
" />
<path d="M186.2960 84.0050
L186.2484 83.9098
" />
<path d="M186.2484 83.9098
L186.1531 83.8622
" />
<path d="M186.1531 83.8622
L185.9627 83.8622
" />
<path d="M185.9627 83.8622
L185.8674 83.9098
" />
<path d="M185.8674 83.9098
L185.8198 84.0050
" />
<path d="M185.8198 84.0050
L185.8198 84.1002
" />
<path d="M185.8198 84.1002
L186.2960 84.1955
" />
<path d="M185.4388 84.4812
L185.3436 84.5288
" />
<path d="M185.3436 84.5288
L185.1531 84.5288
" />
<path d="M185.1531 84.5288
L185.0579 84.4812
" />
<path d="M185.0579 84.4812
L185.0103 84.3860
" />
<path d="M185.0103 84.3860
L185.0103 84.3383
" />
<path d="M185.0103 84.3383
L185.0579 84.2431
" />
<path d="M185.0579 84.2431
L185.1531 84.1955
" />
<path d="M185.1531 84.1955
L185.2960 84.1955
" />
<path d="M185.2960 84.1955
L185.3912 84.1479
" />
<path d="M185.3912 84.1479
L185.4388 84.0526
" />
<path d="M185.4388 84.0526
L185.4388 84.0050
" />
<path d="M185.4388 84.0050
L185.3912 83.9098
" />
<path d="M185.3912 83.9098
L185.2960 83.8622
" />
<path d="M185.2960 83.8622
L185.1531 83.8622
" />
<path d="M185.1531 83.8622
L185.0579 83.9098
" />
<path d="M184.7246 83.8622
L184.3436 83.8622
" />
<path d="M184.5817 83.5288
L184.5817 84.3860
" />
<path d="M184.5817 84.3860
L184.5341 84.4812
" />
<path d="M184.5341 84.4812
L184.4388 84.5288
" />
<path d="M184.4388 84.5288
L184.3436 84.5288
" />
<path d="M184.0103 84.5288
L184.0103 83.5288
" />
<path d="M184.0103 83.5288
L183.6293 83.5288
" />
<path d="M183.6293 83.5288
L183.5341 83.5764
" />
<path d="M183.5341 83.5764
L183.4865 83.6241
" />
<path d="M183.4865 83.6241
L183.4388 83.7193
" />
<path d="M183.4388 83.7193
L183.4388 83.8622
" />
<path d="M183.4388 83.8622
L183.4865 83.9574
" />
<path d="M183.4865 83.9574
L183.5341 84.0050
" />
<path d="M183.5341 84.0050
L183.6293 84.0526
" />
<path d="M183.6293 84.0526
L184.0103 84.0526
" />
<path d="M182.8674 84.5288
L182.9627 84.4812
" />
<path d="M182.9627 84.4812
L183.0103 84.4336
" />
<path d="M183.0103 84.4336
L183.0579 84.3383
" />
<path d="M183.0579 84.3383
L183.0579 84.0526
" />
<path d="M183.0579 84.0526
L183.0103 83.9574
" />
<path d="M183.0103 83.9574
L182.9627 83.9098
" />
<path d="M182.9627 83.9098
L182.8674 83.8622
" />
<path d="M182.8674 83.8622
L182.7246 83.8622
" />
<path d="M182.7246 83.8622
L182.6293 83.9098
" />
<path d="M182.6293 83.9098
L182.5817 83.9574
" />
<path d="M182.5817 83.9574
L182.5341 84.0526
" />
<path d="M182.5341 84.0526
L182.5341 84.3383
" />
<path d="M182.5341 84.3383
L182.5817 84.4336
" />
<path d="M182.5817 84.4336
L182.6293 84.4812
" />
<path d="M182.6293 84.4812
L182.7246 84.5288
" />
<path d="M182.7246 84.5288
L182.8674 84.5288
" />
<path d="M182.1055 84.5288
L182.1055 83.8622
" />
<path d="M182.1055 83.5288
L182.1531 83.5764
" />
<path d="M182.1531 83.5764
L182.1055 83.6241
" />
<path d="M182.1055 83.6241
L182.0579 83.5764
" />
<path d="M182.0579 83.5764
L182.1055 83.5288
" />
<path d="M182.1055 83.5288
L182.1055 83.6241
" />
<path d="M181.6293 83.8622
L181.6293 84.5288
" />
<path d="M181.6293 83.9574
L181.5817 83.9098
" />
<path d="M181.5817 83.9098
L181.4865 83.8622
" />
<path d="M181.4865 83.8622
L181.3436 83.8622
" />
<path d="M181.3436 83.8622
L181.2484 83.9098
" />
<path d="M181.2484 83.9098
L181.2008 84.0050
" />
<path d="M181.2008 84.0050
L181.2008 84.5288
" />
<path d="M180.8674 83.8622
L180.4865 83.8622
" />
<path d="M180.7246 83.5288
L180.7246 84.3860
" />
<path d="M180.7246 84.3860
L180.6769 84.4812
" />
<path d="M180.6769 84.4812
L180.5817 84.5288
" />
<path d="M180.5817 84.5288
L180.4865 84.5288
" />
</g><text x="179.0446" y="86.3520"
transform="scale(-1 1) translate(-358.089200 0)"
textLength="2.9643" font-size="1.3333" lengthAdjust="spacingAndGlyphs"
text-anchor="middle" opacity="0">TP5</text>
<g class="stroked-text"><desc>TP5</desc>
<path d="M180.3065 85.3068
L179.7351 85.3068
" />
<path d="M180.0208 86.3068
L180.0208 85.3068
" />
<path d="M179.4017 86.3068
L179.4017 85.3068
" />
<path d="M179.4017 85.3068
L179.0208 85.3068
" />
<path d="M179.0208 85.3068
L178.9256 85.3544
" />
<path d="M178.9256 85.3544
L178.8779 85.4021
" />
<path d="M178.8779 85.4021
L178.8303 85.4973
" />
<path d="M178.8303 85.4973
L178.8303 85.6402
" />
<path d="M178.8303 85.6402
L178.8779 85.7354
" />
<path d="M178.8779 85.7354
L178.9256 85.7830
" />
<path d="M178.9256 85.7830
L179.0208 85.8306
" />
<path d="M179.0208 85.8306
L179.4017 85.8306
" />
<path d="M177.9256 85.3068
L178.4017 85.3068
" />
<path d="M178.4017 85.3068
L178.4494 85.7830
" />
<path d="M178.4494 85.7830
L178.4017 85.7354
" />
<path d="M178.4017 85.7354
L178.3065 85.6878
" />
<path d="M178.3065 85.6878
L178.0684 85.6878
" />
<path d="M178.0684 85.6878
L177.9732 85.7354
" />
<path d="M177.9732 85.7354
L177.9256 85.7830
" />
<path d="M177.9256 85.7830
L177.8779 85.8782
" />
<path d="M177.8779 85.8782
L177.8779 86.1163
" />
<path d="M177.8779 86.1163
L177.9256 86.2116
" />
<path d="M177.9256 86.2116
L177.9732 86.2592
" />
<path d="M177.9732 86.2592
L178.0684 86.3068
" />
<path d="M178.0684 86.3068
L178.3065 86.3068
" />
<path d="M178.3065 86.3068
L178.4017 86.2592
" />
<path d="M178.4017 86.2592
L178.4494 86.2116
" />
</g><text x="164.7190" y="68.6482"
transform="scale(-1 1) translate(-329.438000 0)"
textLength="7.1071" font-size="1.3333" lengthAdjust="spacingAndGlyphs"
text-anchor="middle" opacity="0">TestPoint</text>
<g class="stroked-text"><desc>TestPoint</desc>
<path d="M168.0523 67.6030
L167.4809 67.6030
" />
<path d="M167.7666 68.6030
L167.7666 67.6030
" />
<path d="M166.7666 68.5554
L166.8619 68.6030
" />
<path d="M166.8619 68.6030
L167.0523 68.6030
" />
<path d="M167.0523 68.6030
L167.1476 68.5554
" />
<path d="M167.1476 68.5554
L167.1952 68.4602
" />
<path d="M167.1952 68.4602
L167.1952 68.0792
" />
<path d="M167.1952 68.0792
L167.1476 67.9840
" />
<path d="M167.1476 67.9840
L167.0523 67.9364
" />
<path d="M167.0523 67.9364
L166.8619 67.9364
" />
<path d="M166.8619 67.9364
L166.7666 67.9840
" />
<path d="M166.7666 67.9840
L166.7190 68.0792
" />
<path d="M166.7190 68.0792
L166.7190 68.1744
" />
<path d="M166.7190 68.1744
L167.1952 68.2697
" />
<path d="M166.3380 68.5554
L166.2428 68.6030
" />
<path d="M166.2428 68.6030
L166.0523 68.6030
" />
<path d="M166.0523 68.6030
L165.9571 68.5554
" />
<path d="M165.9571 68.5554
L165.9095 68.4602
" />
<path d="M165.9095 68.4602
L165.9095 68.4125
" />
<path d="M165.9095 68.4125
L165.9571 68.3173
" />
<path d="M165.9571 68.3173
L166.0523 68.2697
" />
<path d="M166.0523 68.2697
L166.1952 68.2697
" />
<path d="M166.1952 68.2697
L166.2904 68.2221
" />
<path d="M166.2904 68.2221
L166.3380 68.1268
" />
<path d="M166.3380 68.1268
L166.3380 68.0792
" />
<path d="M166.3380 68.0792
L166.2904 67.9840
" />
<path d="M166.2904 67.9840
L166.1952 67.9364
" />
<path d="M166.1952 67.9364
L166.0523 67.9364
" />
<path d="M166.0523 67.9364
L165.9571 67.9840
" />
<path d="M165.6238 67.9364
L165.2428 67.9364
" />
<path d="M165.4809 67.6030
L165.4809 68.4602
" />
<path d="M165.4809 68.4602
L165.4333 68.5554
" />
<path d="M165.4333 68.5554
L165.3380 68.6030
" />
<path d="M165.3380 68.6030
L165.2428 68.6030
" />
<path d="M164.9095 68.6030
L164.9095 67.6030
" />
<path d="M164.9095 67.6030
L164.5285 67.6030
" />
<path d="M164.5285 67.6030
L164.4333 67.6506
" />
<path d="M164.4333 67.6506
L164.3857 67.6983
" />
<path d="M164.3857 67.6983
L164.3380 67.7935
" />
<path d="M164.3380 67.7935
L164.3380 67.9364
" />
<path d="M164.3380 67.9364
L164.3857 68.0316
" />
<path d="M164.3857 68.0316
L164.4333 68.0792
" />
<path d="M164.4333 68.0792
L164.5285 68.1268
" />
<path d="M164.5285 68.1268
L164.9095 68.1268
" />
<path d="M163.7666 68.6030
L163.8619 68.5554
" />
<path d="M163.8619 68.5554
L163.9095 68.5078
" />
<path d="M163.9095 68.5078
L163.9571 68.4125
" />
<path d="M163.9571 68.4125
L163.9571 68.1268
" />
<path d="M163.9571 68.1268
L163.9095 68.0316
" />
<path d="M163.9095 68.0316
L163.8619 67.9840
" />
<path d="M163.8619 67.9840
L163.7666 67.9364
" />
<path d="M163.7666 67.9364
L163.6238 67.9364
" />
<path d="M163.6238 67.9364
L163.5285 67.9840
" />
<path d="M163.5285 67.9840
L163.4809 68.0316
" />
<path d="M163.4809 68.0316
L163.4333 68.1268
" />
<path d="M163.4333 68.1268
L163.4333 68.4125
" />
<path d="M163.4333 68.4125
L163.4809 68.5078
" />
<path d="M163.4809 68.5078
L163.5285 68.5554
" />
<path d="M163.5285 68.5554
L163.6238 68.6030
" />
<path d="M163.6238 68.6030
L163.7666 68.6030
" />
<path d="M163.0047 68.6030
L163.0047 67.9364
" />
<path d="M163.0047 67.6030
L163.0523 67.6506
" />
<path d="M163.0523 67.6506
L163.0047 67.6983
" />
<path d="M163.0047 67.6983
L162.9571 67.6506
" />
<path d="M162.9571 67.6506
L163.0047 67.6030
" />
<path d="M163.0047 67.6030
L163.0047 67.6983
" />
<path d="M162.5285 67.9364
L162.5285 68.6030
" />
<path d="M162.5285 68.0316
L162.4809 67.9840
" />
<path d="M162.4809 67.9840
L162.3857 67.9364
" />
<path d="M162.3857 67.9364
L162.2428 67.9364
" />
<path d="M162.2428 67.9364
L162.1476 67.9840
" />
<path d="M162.1476 67.9840
L162.1000 68.0792
" />
<path d="M162.1000 68.0792
L162.1000 68.6030
" />
<path d="M161.7666 67.9364
L161.3857 67.9364
" />
<path d="M161.6238 67.6030
L161.6238 68.4602
" />
<path d="M161.6238 68.4602
L161.5761 68.5554
" />
<path d="M161.5761 68.5554
L161.4809 68.6030
" />
<path d="M161.4809 68.6030
L161.3857 68.6030
" />
</g><text x="164.1094" y="72.4074"
transform="scale(-1 1) translate(-328.218800 0)"
textLength="2.9643" font-size="1.3333" lengthAdjust="spacingAndGlyphs"
text-anchor="middle" opacity="0">TP6</text>
<g class="stroked-text"><desc>TP6</desc>
<path d="M165.3713 71.3622
L164.7999 71.3622
" />
<path d="M165.0856 72.3622
L165.0856 71.3622
" />
<path d="M164.4665 72.3622
L164.4665 71.3622
" />
<path d="M164.4665 71.3622
L164.0856 71.3622
" />
<path d="M164.0856 71.3622
L163.9904 71.4098
" />
<path d="M163.9904 71.4098
L163.9427 71.4575
" />
<path d="M163.9427 71.4575
L163.8951 71.5527
" />
<path d="M163.8951 71.5527
L163.8951 71.6956
" />
<path d="M163.8951 71.6956
L163.9427 71.7908
" />
<path d="M163.9427 71.7908
L163.9904 71.8384
" />
<path d="M163.9904 71.8384
L164.0856 71.8860
" />
<path d="M164.0856 71.8860
L164.4665 71.8860
" />
<path d="M163.0380 71.3622
L163.2284 71.3622
" />
<path d="M163.2284 71.3622
L163.3237 71.4098
" />
<path d="M163.3237 71.4098
L163.3713 71.4575
" />
<path d="M163.3713 71.4575
L163.4665 71.6003
" />
<path d="M163.4665 71.6003
L163.5142 71.7908
" />
<path d="M163.5142 71.7908
L163.5142 72.1717
" />
<path d="M163.5142 72.1717
L163.4665 72.2670
" />
<path d="M163.4665 72.2670
L163.4189 72.3146
" />
<path d="M163.4189 72.3146
L163.3237 72.3622
" />
<path d="M163.3237 72.3622
L163.1332 72.3622
" />
<path d="M163.1332 72.3622
L163.0380 72.3146
" />
<path d="M163.0380 72.3146
L162.9904 72.2670
" />
<path d="M162.9904 72.2670
L162.9427 72.1717
" />
<path d="M162.9427 72.1717
L162.9427 71.9336
" />
<path d="M162.9427 71.9336
L162.9904 71.8384
" />
<path d="M162.9904 71.8384
L163.0380 71.7908
" />
<path d="M163.0380 71.7908
L163.1332 71.7432
" />
<path d="M163.1332 71.7432
L163.3237 71.7432
" />
<path d="M163.3237 71.7432
L163.4189 71.7908
" />
<path d="M163.4189 71.7908
L163.4665 71.8384
" />
<path d="M163.4665 71.8384
L163.5142 71.9336
" />
</g><text x="152.7810" y="68.7244"
transform="scale(-1 1) translate(-305.562000 0)"
textLength="7.1071" font-size="1.3333" lengthAdjust="spacingAndGlyphs"
text-anchor="middle" opacity="0">TestPoint</text>
<g class="stroked-text"><desc>TestPoint</desc>
<path d="M156.1143 67.6792
L155.5429 67.6792
" />
<path d="M155.8286 68.6792
L155.8286 67.6792
" />
<path d="M154.8286 68.6316
L154.9239 68.6792
" />
<path d="M154.9239 68.6792
L155.1143 68.6792
" />
<path d="M155.1143 68.6792
L155.2096 68.6316
" />
<path d="M155.2096 68.6316
L155.2572 68.5364
" />
<path d="M155.2572 68.5364
L155.2572 68.1554
" />
<path d="M155.2572 68.1554
L155.2096 68.0602
" />
<path d="M155.2096 68.0602
L155.1143 68.0126
" />
<path d="M155.1143 68.0126
L154.9239 68.0126
" />
<path d="M154.9239 68.0126
L154.8286 68.0602
" />
<path d="M154.8286 68.0602
L154.7810 68.1554
" />
<path d="M154.7810 68.1554
L154.7810 68.2506
" />
<path d="M154.7810 68.2506
L155.2572 68.3459
" />
<path d="M154.4000 68.6316
L154.3048 68.6792
" />
<path d="M154.3048 68.6792
L154.1143 68.6792
" />
<path d="M154.1143 68.6792
L154.0191 68.6316
" />
<path d="M154.0191 68.6316
L153.9715 68.5364
" />
<path d="M153.9715 68.5364
L153.9715 68.4887
" />
<path d="M153.9715 68.4887
L154.0191 68.3935
" />
<path d="M154.0191 68.3935
L154.1143 68.3459
" />
<path d="M154.1143 68.3459
L154.2572 68.3459
" />
<path d="M154.2572 68.3459
L154.3524 68.2983
" />
<path d="M154.3524 68.2983
L154.4000 68.2030
" />
<path d="M154.4000 68.2030
L154.4000 68.1554
" />
<path d="M154.4000 68.1554
L154.3524 68.0602
" />
<path d="M154.3524 68.0602
L154.2572 68.0126
" />
<path d="M154.2572 68.0126
L154.1143 68.0126
" />
<path d="M154.1143 68.0126
L154.0191 68.0602
" />
<path d="M153.6858 68.0126
L153.3048 68.0126
" />
<path d="M153.5429 67.6792
L153.5429 68.5364
" />
<path d="M153.5429 68.5364
L153.4953 68.6316
" />
<path d="M153.4953 68.6316
L153.4000 68.6792
" />
<path d="M153.4000 68.6792
L153.3048 68.6792
" />
<path d="M152.9715 68.6792
L152.9715 67.6792
" />
<path d="M152.9715 67.6792
L152.5905 67.6792
" />
<path d="M152.5905 67.6792
L152.4953 67.7268
" />
<path d="M152.4953 67.7268
L152.4477 67.7745
" />
<path d="M152.4477 67.7745
L152.4000 67.8697
" />
<path d="M152.4000 67.8697
L152.4000 68.0126
" />
<path d="M152.4000 68.0126
L152.4477 68.1078
" />
<path d="M152.4477 68.1078
L152.4953 68.1554
" />
<path d="M152.4953 68.1554
L152.5905 68.2030
" />
<path d="M152.5905 68.2030
L152.9715 68.2030
" />
<path d="M151.8286 68.6792
L151.9239 68.6316
" />
<path d="M151.9239 68.6316
L151.9715 68.5840
" />
<path d="M151.9715 68.5840
L152.0191 68.4887
" />
<path d="M152.0191 68.4887
L152.0191 68.2030
" />
<path d="M152.0191 68.2030
L151.9715 68.1078
" />
<path d="M151.9715 68.1078
L151.9239 68.0602
" />
<path d="M151.9239 68.0602
L151.8286 68.0126
" />
<path d="M151.8286 68.0126
L151.6858 68.0126
" />
<path d="M151.6858 68.0126
L151.5905 68.0602
" />
<path d="M151.5905 68.0602
L151.5429 68.1078
" />
<path d="M151.5429 68.1078
L151.4953 68.2030
" />
<path d="M151.4953 68.2030
L151.4953 68.4887
" />
<path d="M151.4953 68.4887
L151.5429 68.5840
" />
<path d="M151.5429 68.5840
L151.5905 68.6316
" />
<path d="M151.5905 68.6316
L151.6858 68.6792
" />
<path d="M151.6858 68.6792
L151.8286 68.6792
" />
<path d="M151.0667 68.6792
L151.0667 68.0126
" />
<path d="M151.0667 67.6792
L151.1143 67.7268
" />
<path d="M151.1143 67.7268
L151.0667 67.7745
" />
<path d="M151.0667 67.7745
L151.0191 67.7268
" />
<path d="M151.0191 67.7268
L151.0667 67.6792
" />
<path d="M151.0667 67.6792
L151.0667 67.7745
" />
<path d="M150.5905 68.0126
L150.5905 68.6792
" />
<path d="M150.5905 68.1078
L150.5429 68.0602
" />
<path d="M150.5429 68.0602
L150.4477 68.0126
" />
<path d="M150.4477 68.0126
L150.3048 68.0126
" />
<path d="M150.3048 68.0126
L150.2096 68.0602
" />
<path d="M150.2096 68.0602
L150.1620 68.1554
" />
<path d="M150.1620 68.1554
L150.1620 68.6792
" />
<path d="M149.8286 68.0126
L149.4477 68.0126
" />
<path d="M149.6858 67.6792
L149.6858 68.5364
" />
<path d="M149.6858 68.5364
L149.6381 68.6316
" />
<path d="M149.6381 68.6316
L149.5429 68.6792
" />
<path d="M149.5429 68.6792
L149.4477 68.6792
" />
</g><text x="153.4160" y="72.4836"
transform="scale(-1 1) translate(-306.832000 0)"
textLength="2.9643" font-size="1.3333" lengthAdjust="spacingAndGlyphs"
text-anchor="middle" opacity="0">TP8</text>
<g class="stroked-text"><desc>TP8</desc>
<path d="M154.6779 71.4384
L154.1065 71.4384
" />
<path d="M154.3922 72.4384
L154.3922 71.4384
" />
<path d="M153.7731 72.4384
L153.7731 71.4384
" />
<path d="M153.7731 71.4384
L153.3922 71.4384
" />
<path d="M153.3922 71.4384
L153.2970 71.4860
" />
<path d="M153.2970 71.4860
L153.2493 71.5337
" />
<path d="M153.2493 71.5337
L153.2017 71.6289
" />
<path d="M153.2017 71.6289
L153.2017 71.7718
" />
<path d="M153.2017 71.7718
L153.2493 71.8670
" />
<path d="M153.2493 71.8670
L153.2970 71.9146
" />
<path d="M153.2970 71.9146
L153.3922 71.9622
" />
<path d="M153.3922 71.9622
L153.7731 71.9622
" />
<path d="M152.6303 71.8670
L152.7255 71.8194
" />
<path d="M152.7255 71.8194
L152.7731 71.7718
" />
<path d="M152.7731 71.7718
L152.8208 71.6765
" />
<path d="M152.8208 71.6765
L152.8208 71.6289
" />
<path d="M152.8208 71.6289
L152.7731 71.5337
" />
<path d="M152.7731 71.5337
L152.7255 71.4860
" />
<path d="M152.7255 71.4860
L152.6303 71.4384
" />
<path d="M152.6303 71.4384
L152.4398 71.4384
" />
<path d="M152.4398 71.4384
L152.3446 71.4860
" />
<path d="M152.3446 71.4860
L152.2970 71.5337
" />
<path d="M152.2970 71.5337
L152.2493 71.6289
" />
<path d="M152.2493 71.6289
L152.2493 71.6765
" />
<path d="M152.2493 71.6765
L152.2970 71.7718
" />
<path d="M152.2970 71.7718
L152.3446 71.8194
" />
<path d="M152.3446 71.8194
L152.4398 71.8670
" />
<path d="M152.4398 71.8670
L152.6303 71.8670
" />
<path d="M152.6303 71.8670
L152.7255 71.9146
" />
<path d="M152.7255 71.9146
L152.7731 71.9622
" />
<path d="M152.7731 71.9622
L152.8208 72.0575
" />
<path d="M152.8208 72.0575
L152.8208 72.2479
" />
<path d="M152.8208 72.2479
L152.7731 72.3432
" />
<path d="M152.7731 72.3432
L152.7255 72.3908
" />
<path d="M152.7255 72.3908
L152.6303 72.4384
" />
<path d="M152.6303 72.4384
L152.4398 72.4384
" />
<path d="M152.4398 72.4384
L152.3446 72.3908
" />
<path d="M152.3446 72.3908
L152.2970 72.3432
" />
<path d="M152.2970 72.3432
L152.2493 72.2479
" />
<path d="M152.2493 72.2479
L152.2493 72.0575
" />
<path d="M152.2493 72.0575
L152.2970 71.9622
" />
<path d="M152.2970 71.9622
L152.3446 71.9146
" />
<path d="M152.3446 71.9146
L152.4398 71.8670
" />
</g><text x="155.9306" y="83.3040"
transform="scale(-1 1) translate(-311.861200 0)"
textLength="7.1071" font-size="1.3333" lengthAdjust="spacingAndGlyphs"
text-anchor="middle" opacity="0">TestPoint</text>
<g class="stroked-text"><desc>TestPoint</desc>
<path d="M159.2639 82.2588
L158.6925 82.2588
" />
<path d="M158.9782 83.2588
L158.9782 82.2588
" />
<path d="M157.9782 83.2112
L158.0735 83.2588
" />
<path d="M158.0735 83.2588
L158.2639 83.2588
" />
<path d="M158.2639 83.2588
L158.3592 83.2112
" />
<path d="M158.3592 83.2112
L158.4068 83.1160
" />
<path d="M158.4068 83.1160
L158.4068 82.7350
" />
<path d="M158.4068 82.7350
L158.3592 82.6398
" />
<path d="M158.3592 82.6398
L158.2639 82.5922
" />
<path d="M158.2639 82.5922
L158.0735 82.5922
" />
<path d="M158.0735 82.5922
L157.9782 82.6398
" />
<path d="M157.9782 82.6398
L157.9306 82.7350
" />
<path d="M157.9306 82.7350
L157.9306 82.8302
" />
<path d="M157.9306 82.8302
L158.4068 82.9255
" />
<path d="M157.5496 83.2112
L157.4544 83.2588
" />
<path d="M157.4544 83.2588
L157.2639 83.2588
" />
<path d="M157.2639 83.2588
L157.1687 83.2112
" />
<path d="M157.1687 83.2112
L157.1211 83.1160
" />
<path d="M157.1211 83.1160
L157.1211 83.0683
" />
<path d="M157.1211 83.0683
L157.1687 82.9731
" />
<path d="M157.1687 82.9731
L157.2639 82.9255
" />
<path d="M157.2639 82.9255
L157.4068 82.9255
" />
<path d="M157.4068 82.9255
L157.5020 82.8779
" />
<path d="M157.5020 82.8779
L157.5496 82.7826
" />
<path d="M157.5496 82.7826
L157.5496 82.7350
" />
<path d="M157.5496 82.7350
L157.5020 82.6398
" />
<path d="M157.5020 82.6398
L157.4068 82.5922
" />
<path d="M157.4068 82.5922
L157.2639 82.5922
" />
<path d="M157.2639 82.5922
L157.1687 82.6398
" />
<path d="M156.8354 82.5922
L156.4544 82.5922
" />
<path d="M156.6925 82.2588
L156.6925 83.1160
" />
<path d="M156.6925 83.1160
L156.6449 83.2112
" />
<path d="M156.6449 83.2112
L156.5496 83.2588
" />
<path d="M156.5496 83.2588
L156.4544 83.2588
" />
<path d="M156.1211 83.2588
L156.1211 82.2588
" />
<path d="M156.1211 82.2588
L155.7401 82.2588
" />
<path d="M155.7401 82.2588
L155.6449 82.3064
" />
<path d="M155.6449 82.3064
L155.5973 82.3541
" />
<path d="M155.5973 82.3541
L155.5496 82.4493
" />
<path d="M155.5496 82.4493
L155.5496 82.5922
" />
<path d="M155.5496 82.5922
L155.5973 82.6874
" />
<path d="M155.5973 82.6874
L155.6449 82.7350
" />
<path d="M155.6449 82.7350
L155.7401 82.7826
" />
<path d="M155.7401 82.7826
L156.1211 82.7826
" />
<path d="M154.9782 83.2588
L155.0735 83.2112
" />
<path d="M155.0735 83.2112
L155.1211 83.1636
" />
<path d="M155.1211 83.1636
L155.1687 83.0683
" />
<path d="M155.1687 83.0683
L155.1687 82.7826
" />
<path d="M155.1687 82.7826
L155.1211 82.6874
" />
<path d="M155.1211 82.6874
L155.0735 82.6398
" />
<path d="M155.0735 82.6398
L154.9782 82.5922
" />
<path d="M154.9782 82.5922
L154.8354 82.5922
" />
<path d="M154.8354 82.5922
L154.7401 82.6398
" />
<path d="M154.7401 82.6398
L154.6925 82.6874
" />
<path d="M154.6925 82.6874
L154.6449 82.7826
" />
<path d="M154.6449 82.7826
L154.6449 83.0683
" />
<path d="M154.6449 83.0683
L154.6925 83.1636
" />
<path d="M154.6925 83.1636
L154.7401 83.2112
" />
<path d="M154.7401 83.2112
L154.8354 83.2588
" />
<path d="M154.8354 83.2588
L154.9782 83.2588
" />
<path d="M154.2163 83.2588
L154.2163 82.5922
" />
<path d="M154.2163 82.2588
L154.2639 82.3064
" />
<path d="M154.2639 82.3064
L154.2163 82.3541
" />
<path d="M154.2163 82.3541
L154.1687 82.3064
" />
<path d="M154.1687 82.3064
L154.2163 82.2588
" />
<path d="M154.2163 82.2588
L154.2163 82.3541
" />
<path d="M153.7401 82.5922
L153.7401 83.2588
" />
<path d="M153.7401 82.6874
L153.6925 82.6398
" />
<path d="M153.6925 82.6398
L153.5973 82.5922
" />
<path d="M153.5973 82.5922
L153.4544 82.5922
" />
<path d="M153.4544 82.5922
L153.3592 82.6398
" />
<path d="M153.3592 82.6398
L153.3116 82.7350
" />
<path d="M153.3116 82.7350
L153.3116 83.2588
" />
<path d="M152.9782 82.5922
L152.5973 82.5922
" />
<path d="M152.8354 82.2588
L152.8354 83.1160
" />
<path d="M152.8354 83.1160
L152.7877 83.2112
" />
<path d="M152.7877 83.2112
L152.6925 83.2588
" />
<path d="M152.6925 83.2588
L152.5973 83.2588
" />
</g><text x="155.8798" y="86.9362"
transform="scale(-1 1) translate(-311.759600 0)"
textLength="2.9643" font-size="1.3333" lengthAdjust="spacingAndGlyphs"
text-anchor="middle" opacity="0">TP9</text>
<g class="stroked-text"><desc>TP9</desc>
<path d="M157.1417 85.8910
L156.5703 85.8910
" />
<path d="M156.8560 86.8910
L156.8560 85.8910
" />
<path d="M156.2369 86.8910
L156.2369 85.8910
" />
<path d="M156.2369 85.8910
L155.8560 85.8910
" />
<path d="M155.8560 85.8910
L155.7608 85.9386
" />
<path d="M155.7608 85.9386
L155.7131 85.9863
" />
<path d="M155.7131 85.9863
L155.6655 86.0815
" />
<path d="M155.6655 86.0815
L155.6655 86.2244
" />
<path d="M155.6655 86.2244
L155.7131 86.3196
" />
<path d="M155.7131 86.3196
L155.7608 86.3672
" />
<path d="M155.7608 86.3672
L155.8560 86.4148
" />
<path d="M155.8560 86.4148
L156.2369 86.4148
" />
<path d="M155.1893 86.8910
L154.9988 86.8910
" />
<path d="M154.9988 86.8910
L154.9036 86.8434
" />
<path d="M154.9036 86.8434
L154.8560 86.7958
" />
<path d="M154.8560 86.7958
L154.7608 86.6529
" />
<path d="M154.7608 86.6529
L154.7131 86.4624
" />
<path d="M154.7131 86.4624
L154.7131 86.0815
" />
<path d="M154.7131 86.0815
L154.7608 85.9863
" />
<path d="M154.7608 85.9863
L154.8084 85.9386
" />
<path d="M154.8084 85.9386
L154.9036 85.8910
" />
<path d="M154.9036 85.8910
L155.0941 85.8910
" />
<path d="M155.0941 85.8910
L155.1893 85.9386
" />
<path d="M155.1893 85.9386
L155.2369 85.9863
" />
<path d="M155.2369 85.9863
L155.2846 86.0815
" />
<path d="M155.2846 86.0815
L155.2846 86.3196
" />
<path d="M155.2846 86.3196
L155.2369 86.4148
" />
<path d="M155.2369 86.4148
L155.1893 86.4624
" />
<path d="M155.1893 86.4624
L155.0941 86.5101
" />
<path d="M155.0941 86.5101
L154.9036 86.5101
" />
<path d="M154.9036 86.5101
L154.8084 86.4624
" />
<path d="M154.8084 86.4624
L154.7608 86.4148
" />
<path d="M154.7608 86.4148
L154.7131 86.3196
" />
</g></g> 
</svg>
