<?xml version="1.0" standalone="no"?>
 <!DOCTYPE svg PUBLIC "-//W3C//DTD SVG 1.1//EN" 
 "http://www.w3.org/Graphics/SVG/1.1/DTD/svg11.dtd"> 
<svg
  xmlns:svg="http://www.w3.org/2000/svg"
  xmlns="http://www.w3.org/2000/svg"
  xmlns:xlink="http://www.w3.org/1999/xlink"
  version="1.1"
  width="29.700220cm" height="21.000720cm" viewBox="0 0 2970022 2100072">
<title>SVG Picture created as t1-B_Silkscreen.svg date 2022/12/02 15:36:40 </title>
  <desc>Picture generated by PCBNEW </desc>
<g style="fill:#000000; fill-opacity:1.000000;stroke:#000000; stroke-opacity:1.000000;
stroke-linecap:round; stroke-linejoin:round;"
 transform="translate(0 0) scale(1 1)">
</g>
<g style="fill:#000000; fill-opacity:0.0; 
stroke:#000000; stroke-width:0.000000; stroke-opacity:1; 
stroke-linecap:round; stroke-linejoin:round;">
</g>
<g style="fill:#000000; fill-opacity:0.0; 
stroke:#000000; stroke-width:1500.000000; stroke-opacity:1; 
stroke-linecap:round; stroke-linejoin:round;">
<text x="1287272.000000" y="877060.000000"
transform="scale(-1 1) translate(-2574544.000000 0)"
textLength="175150.480000" font-size="13333.330000" lengthAdjust="spacingAndGlyphs"
text-anchor="middle" opacity="0">KiBot variants example</text>
<g class="stroked-text"><desc>KiBot variants example</desc>
<path d="M1372986 876583
L1372986 866583
" />
<path d="M1367272 876583
L1371557 870869
" />
<path d="M1367272 866583
L1372986 872298
" />
<path d="M1362986 876583
L1362986 869917
" />
<path d="M1362986 866583
L1363462 867060
L1362986 867536
L1362510 867060
L1362986 866583
L1362986 867536
" />
<path d="M1354891 871345
L1353462 871821
L1352986 872298
L1352510 873250
L1352510 874679
L1352986 875631
L1353462 876107
L1354414 876583
L1358224 876583
L1358224 866583
L1354891 866583
L1353938 867060
L1353462 867536
L1352986 868488
L1352986 869440
L1353462 870393
L1353938 870869
L1354891 871345
L1358224 871345
" />
<path d="M1346795 876583
L1347748 876107
L1348224 875631
L1348700 874679
L1348700 871821
L1348224 870869
L1347748 870393
L1346795 869917
L1345367 869917
L1344414 870393
L1343938 870869
L1343462 871821
L1343462 874679
L1343938 875631
L1344414 876107
L1345367 876583
L1346795 876583
" />
<path d="M1340605 869917
L1336795 869917
" />
<path d="M1339176 866583
L1339176 875155
L1338700 876107
L1337748 876583
L1336795 876583
" />
<path d="M1326795 869917
L1324414 876583
L1322033 869917
" />
<path d="M1313938 876583
L1313938 871345
L1314414 870393
L1315367 869917
L1317272 869917
L1318224 870393
" />
<path d="M1313938 876107
L1314891 876583
L1317272 876583
L1318224 876107
L1318700 875155
L1318700 874202
L1318224 873250
L1317272 872774
L1314891 872774
L1313938 872298
" />
<path d="M1309176 876583
L1309176 869917
" />
<path d="M1309176 871821
L1308700 870869
L1308224 870393
L1307272 869917
L1306319 869917
" />
<path d="M1302986 876583
L1302986 869917
" />
<path d="M1302986 866583
L1303462 867060
L1302986 867536
L1302510 867060
L1302986 866583
L1302986 867536
" />
<path d="M1293938 876583
L1293938 871345
L1294414 870393
L1295367 869917
L1297272 869917
L1298224 870393
" />
<path d="M1293938 876107
L1294891 876583
L1297272 876583
L1298224 876107
L1298700 875155
L1298700 874202
L1298224 873250
L1297272 872774
L1294891 872774
L1293938 872298
" />
<path d="M1289176 869917
L1289176 876583
" />
<path d="M1289176 870869
L1288700 870393
L1287748 869917
L1286319 869917
L1285367 870393
L1284891 871345
L1284891 876583
" />
<path d="M1281557 869917
L1277748 869917
" />
<path d="M1280129 866583
L1280129 875155
L1279652 876107
L1278700 876583
L1277748 876583
" />
<path d="M1274891 876107
L1273938 876583
L1272033 876583
L1271081 876107
L1270605 875155
L1270605 874679
L1271081 873726
L1272033 873250
L1273462 873250
L1274414 872774
L1274891 871821
L1274891 871345
L1274414 870393
L1273462 869917
L1272033 869917
L1271081 870393
" />
<path d="M1254891 876107
L1255843 876583
L1257748 876583
L1258700 876107
L1259176 875155
L1259176 871345
L1258700 870393
L1257748 869917
L1255843 869917
L1254891 870393
L1254414 871345
L1254414 872298
L1259176 873250
" />
<path d="M1251081 876583
L1245843 869917
" />
<path d="M1251081 869917
L1245843 876583
" />
<path d="M1237748 876583
L1237748 871345
L1238224 870393
L1239176 869917
L1241081 869917
L1242033 870393
" />
<path d="M1237748 876107
L1238700 876583
L1241081 876583
L1242033 876107
L1242510 875155
L1242510 874202
L1242033 873250
L1241081 872774
L1238700 872774
L1237748 872298
" />
<path d="M1232986 876583
L1232986 869917
" />
<path d="M1232986 870869
L1232510 870393
L1231557 869917
L1230129 869917
L1229176 870393
L1228700 871345
L1228700 876583
" />
<path d="M1228700 871345
L1228224 870393
L1227272 869917
L1225843 869917
L1224891 870393
L1224414 871345
L1224414 876583
" />
<path d="M1219652 869917
L1219652 879917
" />
<path d="M1219652 870393
L1218700 869917
L1216795 869917
L1215843 870393
L1215367 870869
L1214891 871821
L1214891 874679
L1215367 875631
L1215843 876107
L1216795 876583
L1218700 876583
L1219652 876107
" />
<path d="M1209176 876583
L1210129 876107
L1210605 875155
L1210605 866583
" />
<path d="M1201557 876107
L1202510 876583
L1204414 876583
L1205367 876107
L1205843 875155
L1205843 871345
L1205367 870393
L1204414 869917
L1202510 869917
L1201557 870393
L1201081 871345
L1201081 872298
L1205843 873250
" />
</g><text x="1287272.000000" y="893160.000000"
transform="scale(-1 1) translate(-2574544.000000 0)"
textLength="158526.190000" font-size="13333.330000" lengthAdjust="spacingAndGlyphs"
text-anchor="middle" opacity="0">Not a real life board</text>
<g class="stroked-text"><desc>Not a real life board</desc>
<path d="M1365129 892683
L1365129 882683
L1359414 892683
L1359414 882683
" />
<path d="M1353224 892683
L1354176 892207
L1354652 891731
L1355129 890779
L1355129 887921
L1354652 886969
L1354176 886493
L1353224 886017
L1351795 886017
L1350843 886493
L1350367 886969
L1349891 887921
L1349891 890779
L1350367 891731
L1350843 892207
L1351795 892683
L1353224 892683
" />
<path d="M1347033 886017
L1343224 886017
" />
<path d="M1345605 882683
L1345605 891255
L1345129 892207
L1344176 892683
L1343224 892683
" />
<path d="M1327986 892683
L1327986 887445
L1328462 886493
L1329414 886017
L1331319 886017
L1332272 886493
" />
<path d="M1327986 892207
L1328938 892683
L1331319 892683
L1332272 892207
L1332748 891255
L1332748 890302
L1332272 889350
L1331319 888874
L1328938 888874
L1327986 888398
" />
<path d="M1315605 892683
L1315605 886017
" />
<path d="M1315605 887921
L1315129 886969
L1314652 886493
L1313700 886017
L1312748 886017
" />
<path d="M1305605 892207
L1306557 892683
L1308462 892683
L1309414 892207
L1309891 891255
L1309891 887445
L1309414 886493
L1308462 886017
L1306557 886017
L1305605 886493
L1305129 887445
L1305129 888398
L1309891 889350
" />
<path d="M1296557 892683
L1296557 887445
L1297033 886493
L1297986 886017
L1299891 886017
L1300843 886493
" />
<path d="M1296557 892207
L1297510 892683
L1299891 892683
L1300843 892207
L1301319 891255
L1301319 890302
L1300843 889350
L1299891 888874
L1297510 888874
L1296557 888398
" />
<path d="M1290367 892683
L1291319 892207
L1291795 891255
L1291795 882683
" />
<path d="M1277510 892683
L1278462 892207
L1278938 891255
L1278938 882683
" />
<path d="M1273700 892683
L1273700 886017
" />
<path d="M1273700 882683
L1274176 883160
L1273700 883636
L1273224 883160
L1273700 882683
L1273700 883636
" />
<path d="M1270367 886017
L1266557 886017
" />
<path d="M1268938 892683
L1268938 884112
L1268462 883160
L1267510 882683
L1266557 882683
" />
<path d="M1259414 892207
L1260367 892683
L1262272 892683
L1263224 892207
L1263700 891255
L1263700 887445
L1263224 886493
L1262272 886017
L1260367 886017
L1259414 886493
L1258938 887445
L1258938 888398
L1263700 889350
" />
<path d="M1247033 892683
L1247033 882683
" />
<path d="M1247033 886493
L1246081 886017
L1244176 886017
L1243224 886493
L1242748 886969
L1242272 887921
L1242272 890779
L1242748 891731
L1243224 892207
L1244176 892683
L1246081 892683
L1247033 892207
" />
<path d="M1236557 892683
L1237510 892207
L1237986 891731
L1238462 890779
L1238462 887921
L1237986 886969
L1237510 886493
L1236557 886017
L1235129 886017
L1234176 886493
L1233700 886969
L1233224 887921
L1233224 890779
L1233700 891731
L1234176 892207
L1235129 892683
L1236557 892683
" />
<path d="M1224652 892683
L1224652 887445
L1225129 886493
L1226081 886017
L1227986 886017
L1228938 886493
" />
<path d="M1224652 892207
L1225605 892683
L1227986 892683
L1228938 892207
L1229414 891255
L1229414 890302
L1228938 889350
L1227986 888874
L1225605 888874
L1224652 888398
" />
<path d="M1219891 892683
L1219891 886017
" />
<path d="M1219891 887921
L1219414 886969
L1218938 886493
L1217986 886017
L1217033 886017
" />
<path d="M1209414 892683
L1209414 882683
" />
<path d="M1209414 892207
L1210367 892683
L1212272 892683
L1213224 892207
L1213700 891731
L1214176 890779
L1214176 887921
L1213700 886969
L1213224 886493
L1212272 886017
L1210367 886017
L1209414 886493
" />
</g><text x="1676146.000000" y="824912.000000"
transform="scale(-1 1) translate(-3352292.000000 0)"
textLength="25192.860000" font-size="13333.330000" lengthAdjust="spacingAndGlyphs"
text-anchor="middle" opacity="0">TP2</text>
<g class="stroked-text"><desc>TP2</desc>
<path d="M1688765 814435
L1683050 814435
" />
<path d="M1685907 824435
L1685907 814435
" />
<path d="M1679717 824435
L1679717 814435
L1675907 814435
L1674955 814912
L1674479 815388
L1674003 816340
L1674003 817769
L1674479 818721
L1674955 819197
L1675907 819673
L1679717 819673
" />
<path d="M1670193 815388
L1669717 814912
L1668765 814435
L1666384 814435
L1665431 814912
L1664955 815388
L1664479 816340
L1664479 817292
L1664955 818721
L1670669 824435
L1664479 824435
" />
</g><text x="1758442.000000" y="801290.000000"
transform="scale(-1 1) translate(-3516884.000000 0)"
textLength="25192.860000" font-size="13333.330000" lengthAdjust="spacingAndGlyphs"
text-anchor="middle" opacity="0">TP3</text>
<g class="stroked-text"><desc>TP3</desc>
<path d="M1771061 790813
L1765346 790813
" />
<path d="M1768203 800813
L1768203 790813
" />
<path d="M1762013 800813
L1762013 790813
L1758203 790813
L1757251 791290
L1756775 791766
L1756299 792718
L1756299 794147
L1756775 795099
L1757251 795575
L1758203 796051
L1762013 796051
" />
<path d="M1752965 790813
L1746775 790813
L1750108 794623
L1748680 794623
L1747727 795099
L1747251 795575
L1746775 796528
L1746775 798909
L1747251 799861
L1747727 800337
L1748680 800813
L1751537 800813
L1752489 800337
L1752965 799861
" />
</g><text x="1789684.000000" y="829992.000000"
transform="scale(-1 1) translate(-3579368.000000 0)"
textLength="25192.860000" font-size="13333.330000" lengthAdjust="spacingAndGlyphs"
text-anchor="middle" opacity="0">TP4</text>
<g class="stroked-text"><desc>TP4</desc>
<path d="M1802303 819515
L1796588 819515
" />
<path d="M1799445 829515
L1799445 819515
" />
<path d="M1793255 829515
L1793255 819515
L1789445 819515
L1788493 819992
L1788017 820468
L1787541 821420
L1787541 822849
L1788017 823801
L1788493 824277
L1789445 824753
L1793255 824753
" />
<path d="M1778969 822849
L1778969 829515
" />
<path d="M1781350 819039
L1783731 826182
L1777541 826182
" />
</g><text x="1790446.000000" y="863774.000000"
transform="scale(-1 1) translate(-3580892.000000 0)"
textLength="25192.860000" font-size="13333.330000" lengthAdjust="spacingAndGlyphs"
text-anchor="middle" opacity="0">TP5</text>
<g class="stroked-text"><desc>TP5</desc>
<path d="M1803065 853297
L1797350 853297
" />
<path d="M1800207 863297
L1800207 853297
" />
<path d="M1794017 863297
L1794017 853297
L1790207 853297
L1789255 853774
L1788779 854250
L1788303 855202
L1788303 856631
L1788779 857583
L1789255 858059
L1790207 858535
L1794017 858535
" />
<path d="M1779255 853297
L1784017 853297
L1784493 858059
L1784017 857583
L1783065 857107
L1780684 857107
L1779731 857583
L1779255 858059
L1778779 859012
L1778779 861393
L1779255 862345
L1779731 862821
L1780684 863297
L1783065 863297
L1784017 862821
L1784493 862345
" />
</g><text x="1643380.000000" y="724582.000000"
transform="scale(-1 1) translate(-3286760.000000 0)"
textLength="25192.860000" font-size="13333.330000" lengthAdjust="spacingAndGlyphs"
text-anchor="middle" opacity="0">TP6</text>
<g class="stroked-text"><desc>TP6</desc>
<path d="M1655999 714105
L1650284 714105
" />
<path d="M1653141 724105
L1653141 714105
" />
<path d="M1646951 724105
L1646951 714105
L1643141 714105
L1642189 714582
L1641713 715058
L1641237 716010
L1641237 717439
L1641713 718391
L1642189 718867
L1643141 719343
L1646951 719343
" />
<path d="M1632665 714105
L1634570 714105
L1635522 714582
L1635999 715058
L1636951 716486
L1637427 718391
L1637427 722201
L1636951 723153
L1636475 723629
L1635522 724105
L1633618 724105
L1632665 723629
L1632189 723153
L1631713 722201
L1631713 719820
L1632189 718867
L1632665 718391
L1633618 717915
L1635522 717915
L1636475 718391
L1636951 718867
L1637427 719820
" />
</g><text x="1534414.000000" y="724582.000000"
transform="scale(-1 1) translate(-3068828.000000 0)"
textLength="25192.860000" font-size="13333.330000" lengthAdjust="spacingAndGlyphs"
text-anchor="middle" opacity="0">TP8</text>
<g class="stroked-text"><desc>TP8</desc>
<path d="M1547033 714105
L1541318 714105
" />
<path d="M1544175 724105
L1544175 714105
" />
<path d="M1537985 724105
L1537985 714105
L1534175 714105
L1533223 714582
L1532747 715058
L1532271 716010
L1532271 717439
L1532747 718391
L1533223 718867
L1534175 719343
L1537985 719343
" />
<path d="M1526556 718391
L1527509 717915
L1527985 717439
L1528461 716486
L1528461 716010
L1527985 715058
L1527509 714582
L1526556 714105
L1524652 714105
L1523699 714582
L1523223 715058
L1522747 716010
L1522747 716486
L1523223 717439
L1523699 717915
L1524652 718391
L1526556 718391
L1527509 718867
L1527985 719343
L1528461 720296
L1528461 722201
L1527985 723153
L1527509 723629
L1526556 724105
L1524652 724105
L1523699 723629
L1523223 723153
L1522747 722201
L1522747 720296
L1523223 719343
L1523699 718867
L1524652 718391
" />
</g><text x="1559306.000000" y="869616.000000"
transform="scale(-1 1) translate(-3118612.000000 0)"
textLength="25192.860000" font-size="13333.330000" lengthAdjust="spacingAndGlyphs"
text-anchor="middle" opacity="0">TP9</text>
<g class="stroked-text"><desc>TP9</desc>
<path d="M1571925 859139
L1566210 859139
" />
<path d="M1569067 869139
L1569067 859139
" />
<path d="M1562877 869139
L1562877 859139
L1559067 859139
L1558115 859616
L1557639 860092
L1557163 861044
L1557163 862473
L1557639 863425
L1558115 863901
L1559067 864377
L1562877 864377
" />
<path d="M1552401 869139
L1550496 869139
L1549544 868663
L1549067 868187
L1548115 866758
L1547639 864854
L1547639 861044
L1548115 860092
L1548591 859616
L1549544 859139
L1551448 859139
L1552401 859616
L1552877 860092
L1553353 861044
L1553353 863425
L1552877 864377
L1552401 864854
L1551448 865330
L1549544 865330
L1548591 864854
L1548115 864377
L1547639 863425
" />
</g></g>
<g style="fill:#000000; fill-opacity:0.0; 
stroke:#000000; stroke-width:1200.000000; stroke-opacity:1; 
stroke-linecap:round; stroke-linejoin:round;">
<circle cx="1677924.000000" cy="801624.000000" r="7000.000000" /> 
<circle cx="1734820.000000" cy="784860.000000" r="7000.000000" /> 
<circle cx="1790700.000000" cy="807720.000000" r="7000.000000" /> 
<circle cx="1790700.000000" cy="840740.000000" r="7000.000000" /> 
<circle cx="1642872.000000" cy="700532.000000" r="7000.000000" /> 
<circle cx="1534922.000000" cy="700278.000000" r="7000.000000" /> 
<circle cx="1559560.000000" cy="845820.000000" r="7000.000000" /> 
</g>
<g style="fill:#000000; fill-opacity:1.0; 
stroke:#000000; stroke-width:100.000000; stroke-opacity:1; 
stroke-linecap:round; stroke-linejoin:round;">
<path style="fill:#000000; fill-opacity:1.0; 
stroke:#000000; stroke-width:100.000000; stroke-opacity:1; 
stroke-linecap:round; stroke-linejoin:round;fill-rule:evenodd;"
d="M 1719136.030000,950726.530000
1719063.050000,951677.540000
1718938.730000,952351.600000
1718733.430000,952885.700000
1718417.510000,953416.850000
1718404.060000,953436.990000
1717626.160000,954297.550000
1716674.380000,954953.910000
1715567.600000,955343.390000
1714111.630000,955469.850000
1712684.630000,955221.190000
1711409.090000,954621.980000
1710407.530000,953696.810000
1710119.990000,953259.670000
1709583.010000,951900.730000
1709316.700000,950224.080000
1709321.250000,949799.970000
1711997.630000,949799.970000
1712002.670000,950593.140000
1712086.770000,951122.670000
1712278.380000,951529.560000
1712605.980000,951954.790000
1713060.580000,952376.760000
1713969.800000,952753.330000
1714946.080000,952683.380000
1715879.140000,952160.020000
1716142.340000,951910.060000
1716423.360000,951482.140000
1716579.200000,950880.680000
1716667.530000,949943.480000
1716691.860000,949239.440000
1716558.560000,947801.680000
1716149.470000,946772.310000
1715462.810000,946145.670000
1714657.890000,945845.600000
1713697.940000,945870.860000
1712808.110000,946377.460000
1712595.380000,946570.310000
1712326.930000,946907.740000
1712167.660000,947349.200000
1712079.290000,948026.010000
1712023.550000,949069.500000
1711997.630000,949799.970000
1709321.250000,949799.970000
1709337.240000,948311.260000
1709363.450000,948039.960000
1709729.180000,946302.290000
1710405.810000,944953.340000
1711394.780000,943991.630000
1712697.530000,943415.680000
1714315.500000,943224.020000
1714926.790000,943242.010000
1716180.390000,943462.110000
1717205.460000,943987.460000
1718161.150000,944886.860000
1718314.000000,945067.370000
1718726.240000,945675.300000
1718997.170000,946363.670000
1719147.400000,947236.000000
1719197.540000,948395.820000
1719181.560000,949239.440000
1719168.180000,949946.660000
Z" /> 
<path style="fill:#000000; fill-opacity:1.0; 
stroke:#000000; stroke-width:100.000000; stroke-opacity:1; 
stroke-linecap:round; stroke-linejoin:round;fill-rule:evenodd;"
d="M 1638275.100000,947162.450000
1638296.110000,948906.240000
1638378.330000,950314.600000
1638544.910000,951338.250000
1638818.910000,952034.580000
1639223.430000,952460.930000
1639781.520000,952674.680000
1640516.280000,952733.180000
1641217.830000,952680.970000
1641784.430000,952476.590000
1642196.260000,952062.540000
1642476.400000,951381.470000
1642647.930000,950376.000000
1642733.920000,948988.790000
1642757.460000,947162.450000
1642757.460000,943286.280000
1645247.650000,943286.280000
1645247.650000,947959.280000
1645243.380000,949206.590000
1645210.180000,950819.550000
1645126.870000,952049.650000
1644973.260000,952967.290000
1644729.190000,953642.910000
1644374.470000,954146.910000
1643888.920000,954549.710000
1643252.350000,954921.740000
1641915.620000,955392.700000
1640520.550000,955423.420000
1639205.240000,954989.710000
1638631.350000,954708.570000
1638346.640000,954666.540000
1638275.100000,954865.200000
1638156.320000,955088.260000
1637731.160000,955205.760000
1636905.490000,955239.220000
1635535.890000,955239.220000
1635535.890000,943286.280000
1638275.100000,943286.280000
Z" /> 
<path style="fill:#000000; fill-opacity:1.0; 
stroke:#000000; stroke-width:100.000000; stroke-opacity:1; 
stroke-linecap:round; stroke-linejoin:round;fill-rule:evenodd;"
d="M 1615253.600000,950366.320000
1615249.430000,950403.800000
1614891.390000,952152.710000
1614244.490000,953512.470000
1613288.590000,954512.960000
1612003.530000,955184.050000
1611767.640000,955260.790000
1610305.510000,955486.960000
1608793.340000,955360.840000
1607387.500000,954910.170000
1606244.370000,954162.690000
1605388.120000,953371.570000
1606298.270000,952651.910000
1607208.420000,951932.240000
1608305.280000,952465.140000
1609574.450000,952896.950000
1610694.880000,952909.870000
1611611.570000,952513.140000
1612271.230000,951716.830000
1612507.710000,951239.680000
1612639.720000,950831.890000
1612563.340000,950556.410000
1612220.630000,950387.310000
1611553.680000,950298.640000
1610504.540000,950264.450000
1609015.300000,950258.820000
1605404.510000,950258.820000
1605404.510000,948531.900000
1605431.490000,947773.760000
1607973.850000,947773.760000
1608095.950000,947913.210000
1608457.480000,947985.780000
1609144.630000,948013.320000
1610243.620000,948017.650000
1610832.940000,948010.730000
1611762.900000,947965.000000
1612393.730000,947884.910000
1612626.080000,947780.350000
1612566.630000,947394.560000
1612147.620000,946656.340000
1611449.380000,946049.900000
1610616.990000,945683.620000
1609795.540000,945665.890000
1609177.210000,945959.600000
1608476.560000,946628.000000
1608031.060000,947457.350000
1608004.960000,947545.620000
1607973.850000,947773.760000
1605431.490000,947773.760000
1605437.020000,947618.530000
1605532.460000,946714.840000
1605668.810000,946103.960000
1605768.200000,945870.740000
1606491.660000,944832.020000
1607537.000000,943965.690000
1608759.490000,943398.450000
1609397.130000,943243.550000
1610916.450000,943173.040000
1612270.220000,943531.740000
1613421.220000,944279.740000
1614332.270000,945377.110000
1614966.150000,946783.950000
1615156.070000,947780.350000
1615285.660000,948460.320000
Z" /> 
<path style="fill:#000000; fill-opacity:1.0; 
stroke:#000000; stroke-width:100.000000; stroke-opacity:1; 
stroke-linecap:round; stroke-linejoin:round;fill-rule:evenodd;"
d="M 1706195.200000,974115.470000
1704887.850000,974040.200000
1704825.690000,970055.880000
1704807.300000,969087.040000
1704755.100000,967631.460000
1704665.500000,966563.340000
1704522.030000,965810.870000
1704308.210000,965302.270000
1704007.590000,964965.740000
1703603.670000,964729.470000
1702845.780000,964488.180000
1702092.070000,964581.940000
1701296.170000,965097.630000
1700530.000000,965742.310000
1700530.000000,974164.710000
1697790.790000,974164.710000
1697790.790000,969597.010000
1697793.420000,968165.310000
1697807.990000,966893.090000
1697843.010000,965961.840000
1697906.970000,965287.130000
1698008.350000,964784.540000
1698155.630000,964369.660000
1698357.290000,963958.050000
1698405.100000,963870.660000
1699041.010000,963019.540000
1699785.270000,962424.760000
1700682.550000,962112.450000
1701870.720000,961973.420000
1703060.590000,962048.720000
1704028.650000,962342.670000
1704763.340000,962722.590000
1704763.340000,954500.150000
1703756.670000,955024.860000
1703336.160000,955215.490000
1702008.860000,955485.060000
1700689.790000,955298.740000
1699467.050000,954679.290000
1698428.720000,953649.430000
1698266.060000,953407.380000
1698109.730000,953052.560000
1698007.760000,952570.150000
1697948.880000,951867.570000
1697921.820000,950852.210000
1697916.960000,949794.280000
1700547.590000,949794.280000
1700549.810000,950677.790000
1700617.350000,951267.000000
1700769.160000,951687.520000
1701024.170000,952064.990000
1701348.110000,952415.940000
1701866.140000,952681.540000
1702646.670000,952749.020000
1703336.180000,952690.290000
1704018.650000,952396.410000
1704458.180000,951801.070000
1704693.500000,950844.230000
1704763.340000,949465.820000
1704745.280000,948732.540000
1704565.010000,947348.330000
1704193.080000,946412.330000
1703631.590000,945931.160000
1703064.490000,945795.790000
1702076.860000,945859.250000
1701242.400000,946252.230000
1701042.680000,946432.440000
1700831.050000,946744.220000
1700700.210000,947208.330000
1700622.510000,947940.000000
1700570.320000,949054.480000
1700547.590000,949794.280000
1697916.960000,949794.280000
1697915.300000,949431.490000
1697917.530000,948783.240000
1697955.700000,947275.380000
1698062.030000,946148.960000
1698263.350000,945318.850000
1698586.530000,944699.910000
1699058.420000,944207.000000
1699705.880000,943754.990000
1700230.910000,943495.600000
1701475.710000,943209.530000
1702787.810000,943248.510000
1703954.020000,943619.350000
1704454.530000,943861.760000
1704706.260000,943886.810000
1704763.340000,943666.200000
1704763.390000,943659.520000
1704886.400000,943434.260000
1705310.650000,943318.790000
1706132.950000,943286.280000
1707502.550000,943286.280000
1707502.550000,974190.730000
Z" /> 
<path style="fill:#000000; fill-opacity:1.0; 
stroke:#000000; stroke-width:100.000000; stroke-opacity:1; 
stroke-linecap:round; stroke-linejoin:round;fill-rule:evenodd;"
d="M 1696238.410000,970878.440000
1695934.970000,972157.720000
1695260.020000,973119.860000
1694180.000000,973813.180000
1693621.890000,973981.860000
1692665.930000,974113.330000
1691620.550000,974144.720000
1690677.380000,974072.370000
1690028.080000,973892.620000
1689633.700000,973748.640000
1689247.580000,973892.620000
1689106.340000,973976.040000
1688542.610000,974111.310000
1687780.200000,974164.710000
1686584.910000,974164.710000
1686584.910000,969892.780000
1689324.120000,969892.780000
1689416.190000,970621.430000
1689779.510000,971262.390000
1689987.440000,971401.100000
1690729.580000,971617.310000
1691656.100000,971671.290000
1692564.680000,971561.620000
1693253.030000,971286.860000
1693595.950000,970923.580000
1693806.470000,970278.080000
1693619.770000,969766.390000
1693002.590000,969321.480000
1692010.470000,969036.050000
1690701.730000,968935.300000
1689324.120000,968935.300000
1689324.120000,969892.780000
1686584.910000,969892.780000
1686584.910000,969345.650000
1686585.000000,968928.900000
1686589.540000,967358.100000
1686606.580000,966190.290000
1686643.850000,965347.880000
1686709.110000,964753.290000
1686810.080000,964328.910000
1686954.520000,963997.160000
1687150.160000,963680.450000
1687779.490000,962938.370000
1688671.300000,962371.800000
1689842.800000,962059.220000
1691386.530000,961963.130000
1691436.710000,961963.230000
1692509.800000,962011.700000
1693470.280000,962132.520000
1694125.750000,962301.910000
1694305.450000,962386.790000
1694877.400000,962746.270000
1695394.990000,963173.520000
1695735.530000,963558.000000
1695776.350000,963789.160000
1695696.690000,963851.640000
1694828.750000,964518.550000
1694248.390000,964911.880000
1693864.650000,965070.570000
1693586.590000,965033.590000
1693323.270000,964839.900000
1692837.300000,964598.090000
1692018.330000,964436.870000
1691092.730000,964395.050000
1690255.190000,964480.150000
1689700.350000,964699.720000
1689671.160000,964726.440000
1689421.830000,965228.360000
1689324.120000,965977.550000
1689324.120000,966943.140000
1691627.550000,966944.070000
1692685.650000,966960.820000
1693576.320000,967033.680000
1694213.450000,967183.570000
1694728.210000,967431.100000
1694848.000000,967507.120000
1695714.660000,968342.820000
1696175.640000,969447.900000
1696214.600000,970278.080000
1696241.230000,970845.590000
Z" /> 
<path style="fill:#000000; fill-opacity:1.0; 
stroke:#000000; stroke-width:100.000000; stroke-opacity:1; 
stroke-linecap:round; stroke-linejoin:round;fill-rule:evenodd;"
d="M 1632135.250000,962126.750000
1632887.600000,962478.860000
1633543.730000,962994.970000
1633543.730000,962478.860000
1633560.080000,962282.900000
1633712.210000,962075.130000
1634123.620000,961983.370000
1634913.340000,961962.750000
1636282.950000,961962.750000
1636282.950000,974164.710000
1633543.730000,974164.710000
1633543.730000,970192.110000
1633543.400000,969964.050000
1633520.030000,968360.890000
1633462.680000,967055.000000
1633375.440000,966113.140000
1633262.410000,965602.080000
1633158.620000,965409.150000
1632519.680000,964804.060000
1631649.370000,964536.220000
1630699.040000,964661.170000
1630465.940000,964745.860000
1629969.370000,964895.550000
1629629.990000,964849.070000
1629288.500000,964544.790000
1628785.590000,963921.110000
1627969.920000,962891.230000
1628543.230000,962426.990000
1629088.230000,962147.550000
1630045.540000,961958.830000
1631124.560000,961952.650000
Z" /> 
<path style="fill:#000000; fill-opacity:1.0; 
stroke:#000000; stroke-width:100.000000; stroke-opacity:1; 
stroke-linecap:round; stroke-linejoin:round;fill-rule:evenodd;"
d="M 1657070.050000,950909.820000
1656762.990000,952414.380000
1656213.760000,953562.460000
1655377.800000,954429.660000
1654210.580000,955091.550000
1653757.390000,955249.080000
1652583.730000,955445.620000
1651348.660000,955440.270000
1650306.510000,955224.390000
1650286.030000,955216.550000
1649446.180000,954722.510000
1648597.700000,953957.700000
1647893.660000,953083.110000
1647487.140000,952259.690000
1647366.630000,951657.790000
1647263.460000,950530.840000
1647246.170000,949526.320000
1649755.020000,949526.320000
1649905.000000,950731.190000
1650257.350000,951721.230000
1650791.170000,952368.150000
1650993.500000,952479.220000
1651765.060000,952681.110000
1652657.490000,952722.650000
1653408.280000,952582.350000
1653701.320000,952381.160000
1654112.640000,951677.600000
1654371.460000,950576.450000
1654461.380000,949131.450000
1654459.940000,948715.490000
1654428.700000,947872.640000
1654324.820000,947322.810000
1654106.880000,946916.550000
1653733.470000,946504.370000
1653022.930000,946004.810000
1652097.910000,945800.570000
1651204.180000,945995.090000
1650462.100000,946557.710000
1649992.010000,947457.750000
1649828.280000,948234.940000
1649755.020000,949526.320000
1647246.170000,949526.320000
1647241.370000,949247.380000
1647296.720000,947969.930000
1647425.880000,946861.010000
1647625.220000,946083.150000
1648089.530000,945202.450000
1649074.980000,944119.590000
1650334.530000,943433.640000
1651830.740000,943162.130000
1653526.150000,943322.590000
1653808.250000,943390.940000
1655122.010000,943980.400000
1656111.980000,944948.140000
1656778.200000,946294.230000
1657120.700000,948018.740000
1657130.670000,949131.450000
1657139.530000,950121.730000
Z" /> 
<path style="fill:#000000; fill-opacity:1.0; 
stroke:#000000; stroke-width:100.000000; stroke-opacity:1; 
stroke-linecap:round; stroke-linejoin:round;fill-rule:evenodd;"
d="M 1664388.100000,943278.200000
1665826.290000,943638.660000
1666876.910000,944306.770000
1667545.940000,945287.020000
1667839.400000,946583.870000
1667779.990000,947825.440000
1667351.140000,948872.660000
1666528.760000,949646.930000
1665296.350000,950163.370000
1663637.440000,950437.100000
1662559.520000,950580.570000
1661575.660000,950890.990000
1661067.710000,951340.530000
1661037.040000,951928.380000
1661241.460000,952294.930000
1661874.540000,952729.350000
1662774.490000,952934.830000
1663829.130000,952906.730000
1664926.260000,952640.420000
1665953.680000,952131.280000
1666978.040000,951453.390000
1667879.020000,952365.080000
1668780.000000,953276.760000
1668032.950000,953886.550000
1667742.460000,954098.420000
1666925.170000,954579.780000
1666040.790000,954994.570000
1665340.870000,955232.620000
1664316.020000,955405.040000
1663052.550000,955407.320000
1661503.180000,955217.480000
1660107.450000,954736.300000
1659119.500000,953971.950000
1658537.010000,952922.540000
1658357.620000,951586.170000
1658487.470000,950410.540000
1658904.310000,949448.030000
1659654.770000,948758.730000
1660786.350000,948300.300000
1662346.540000,948030.420000
1662525.740000,948010.880000
1663497.140000,947886.300000
1664285.140000,947755.920000
1664733.440000,947644.990000
1664883.040000,947555.670000
1665135.960000,947095.090000
1665094.880000,946505.530000
1664756.880000,945993.730000
1664579.390000,945882.100000
1663839.810000,945703.260000
1662884.510000,945715.290000
1661888.360000,945905.610000
1661026.210000,946261.680000
1660120.310000,946796.180000
1659417.630000,945975.050000
1659247.120000,945766.440000
1658862.980000,945207.610000
1658704.830000,944828.870000
1658870.900000,944596.640000
1659384.690000,944234.120000
1660126.570000,943844.020000
1660231.100000,943796.330000
1661209.410000,943422.290000
1662152.410000,943243.450000
1663322.620000,943207.540000
Z" /> 
<path style="fill:#000000; fill-opacity:1.0; 
stroke:#000000; stroke-width:100.000000; stroke-opacity:1; 
stroke-linecap:round; stroke-linejoin:round;fill-rule:evenodd;"
d="M 1696322.860000,949511.080000
1696301.090000,950272.240000
1696055.590000,951935.700000
1695514.600000,953247.280000
1694649.820000,954261.010000
1693432.950000,955030.960000
1692252.490000,955390.390000
1690771.610000,955459.150000
1689277.480000,955194.680000
1687944.720000,954610.370000
1687450.830000,954285.320000
1686906.680000,953868.680000
1686658.400000,953594.520000
1686672.470000,953481.400000
1686950.390000,953095.970000
1687472.720000,952629.010000
1688377.910000,951938.580000
1689438.580000,952468.310000
1689725.400000,952599.430000
1690569.710000,952884.410000
1691277.370000,952998.040000
1691799.190000,952904.410000
1692618.060000,952453.510000
1693306.370000,951753.550000
1693700.070000,950943.630000
1693860.470000,950258.820000
1686335.890000,950258.820000
1686337.280000,948951.470000
1686348.670000,948537.130000
1686431.820000,947648.050000
1689075.100000,947648.050000
1689079.950000,947698.990000
1689216.870000,947857.600000
1689603.780000,947955.050000
1690323.170000,948004.130000
1691457.570000,948017.650000
1691830.420000,948017.490000
1692798.730000,948008.540000
1693380.830000,947969.880000
1693663.060000,947879.680000
1693731.730000,947716.110000
1693673.170000,947457.350000
1693664.230000,947428.020000
1693159.730000,946527.590000
1692364.420000,945907.660000
1691416.030000,945676.860000
1691065.470000,945695.320000
1690414.810000,945916.110000
1689790.610000,946477.660000
1689622.470000,946676.210000
1689231.370000,947243.260000
1689075.100000,947648.050000
1686431.820000,947648.050000
1686442.510000,947533.760000
1686599.880000,946703.490000
1686772.360000,946238.680000
1687378.790000,945227.690000
1688190.940000,944309.510000
1689049.810000,943680.370000
1689297.960000,943563.540000
1690742.900000,943176.000000
1692218.420000,943216.860000
1693605.670000,943668.820000
1694785.790000,944514.610000
1695424.100000,945294.610000
1695946.010000,946393.430000
1696225.030000,947716.110000
1696235.730000,947766.850000
Z" /> 
<path style="fill:#000000; fill-opacity:1.0; 
stroke:#000000; stroke-width:100.000000; stroke-opacity:1; 
stroke-linecap:round; stroke-linejoin:round;fill-rule:evenodd;"
d="M 1684094.710000,974164.710000
1681604.510000,974164.710000
1681604.510000,970321.110000
1681601.760000,969427.060000
1681573.440000,967946.290000
1681501.760000,966850.030000
1681371.160000,966062.520000
1681166.080000,965507.980000
1680870.980000,965110.610000
1680470.310000,964794.650000
1680032.900000,964559.210000
1679514.960000,964492.460000
1678778.310000,964640.900000
1678541.590000,964702.710000
1677950.690000,964795.720000
1677528.180000,964662.450000
1677038.480000,964249.960000
1676945.550000,964160.260000
1676431.790000,963605.340000
1676100.470000,963154.150000
1676055.020000,963045.450000
1676145.080000,962644.090000
1676601.740000,962323.200000
1677322.460000,962097.990000
1678204.710000,961983.670000
1679145.940000,961995.440000
1680043.620000,962148.500000
1680795.200000,962458.060000
1681033.430000,962602.600000
1681434.490000,962814.170000
1681582.960000,962765.720000
1681604.510000,962457.120000
1681609.570000,962346.330000
1681729.700000,962100.910000
1682102.360000,961989.210000
1682849.610000,961962.750000
1684094.710000,961962.750000
Z" /> 
<path style="fill:#000000; fill-opacity:1.0; 
stroke:#000000; stroke-width:100.000000; stroke-opacity:1; 
stroke-linecap:round; stroke-linejoin:round;fill-rule:evenodd;"
d="M 1679909.060000,943262.710000
1681044.220000,943619.370000
1681544.730000,943861.770000
1681796.460000,943886.810000
1681853.530000,943666.200000
1681853.590000,943659.520000
1681976.600000,943434.260000
1682400.840000,943318.790000
1683223.140000,943286.280000
1684592.750000,943286.280000
1684592.750000,955239.220000
1681853.530000,955239.220000
1681853.530000,951119.070000
1681851.660000,949727.790000
1681838.850000,948584.930000
1681804.580000,947785.190000
1681738.320000,947247.080000
1681629.540000,946889.120000
1681467.710000,946629.820000
1681242.300000,946387.700000
1680935.270000,946130.170000
1680052.390000,945784.160000
1679125.650000,945885.710000
1678276.710000,946432.980000
1678034.060000,946687.680000
1677859.870000,946945.450000
1677743.040000,947288.480000
1677672.120000,947799.330000
1677635.640000,948560.560000
1677622.150000,949654.710000
1677620.200000,951164.350000
1677620.200000,955239.220000
1674880.980000,955239.220000
1674886.450000,950819.120000
1674886.820000,950622.230000
1674910.580000,948742.090000
1674983.530000,947281.590000
1675124.450000,946169.710000
1675352.070000,945335.440000
1675685.140000,944707.750000
1676142.410000,944215.610000
1676742.640000,943788.020000
1677362.400000,943491.990000
1678610.550000,943223.050000
Z" /> 
<path style="fill:#000000; fill-opacity:1.0; 
stroke:#000000; stroke-width:100.000000; stroke-opacity:1; 
stroke-linecap:round; stroke-linejoin:round;fill-rule:evenodd;"
d="M 1669646.340000,860731.720000
1670772.160000,866703.630000
1674926.290000,868416.100000
1679080.430000,870128.570000
1684064.000000,866739.780000
1685050.360000,866071.700000
1686357.970000,865194.790000
1687490.080000,864445.800000
1688387.890000,863863.200000
1688992.610000,863485.450000
1689245.440000,863350.980000
1689400.720000,863446.610000
1689864.870000,863847.300000
1690567.300000,864504.870000
1691448.480000,865358.950000
1692448.890000,866349.150000
1693509.020000,867415.090000
1694569.350000,868496.400000
1695570.350000,869532.680000
1696452.510000,870463.580000
1697156.320000,871228.690000
1697622.250000,871767.650000
1697790.790000,872020.070000
1697751.580000,872128.520000
1697480.120000,872612.280000
1696984.390000,873408.420000
1696304.590000,874454.540000
1695480.910000,875688.220000
1694553.530000,877047.060000
1694044.600000,877788.150000
1693169.120000,879078.350000
1692418.530000,880204.340000
1691832.850000,881105.050000
1691452.090000,881719.420000
1691316.280000,881986.400000
1691318.510000,882001.190000
1691438.310000,882339.620000
1691713.160000,883030.710000
1692104.740000,883984.160000
1692574.740000,885109.720000
1693084.850000,886317.100000
1693596.760000,887516.020000
1694072.150000,888616.220000
1694472.710000,889527.400000
1694760.130000,890159.310000
1694896.100000,890421.650000
1694976.550000,890444.920000
1695465.350000,890549.880000
1696336.520000,890723.760000
1697520.330000,890952.950000
1698947.040000,891223.890000
1700546.920000,891522.960000
1701390.150000,891681.530000
1702937.830000,891984.070000
1704291.040000,892263.470000
1705375.820000,892503.690000
1706118.200000,892688.680000
1706444.220000,892802.380000
1706502.780000,892915.110000
1706599.920000,893465.860000
1706676.240000,894383.170000
1706731.800000,895580.730000
1706766.660000,896972.210000
1706780.870000,898471.310000
1706774.500000,899991.720000
1706747.600000,901447.120000
1706700.240000,902751.210000
1706632.470000,903817.660000
1706544.360000,904560.180000
1706435.950000,904892.450000
1706370.170000,904929.930000
1705879.550000,905090.690000
1705028.470000,905303.380000
1703915.290000,905544.720000
1702638.400000,905791.430000
1702207.570000,905870.000000
1700217.730000,906235.420000
1698653.880000,906529.100000
1697461.830000,906763.210000
1696587.370000,906949.940000
1695976.280000,907101.460000
1695574.350000,907229.950000
1695327.380000,907347.580000
1695181.160000,907466.530000
1695164.160000,907486.490000
1694925.040000,907902.710000
1694571.190000,908664.300000
1694136.920000,909681.930000
1693656.510000,910866.240000
1693164.250000,912127.890000
1692694.450000,913377.540000
1692281.400000,914525.840000
1691959.390000,915483.440000
1691762.710000,916161.000000
1691725.650000,916469.170000
1691750.430000,916509.150000
1692006.890000,916895.840000
1692489.200000,917609.070000
1693152.620000,918583.140000
1693952.450000,919752.340000
1694843.970000,921050.980000
1695088.650000,921408.280000
1695949.030000,922689.900000
1696692.580000,923836.080000
1697276.880000,924778.870000
1697659.470000,925450.290000
1697797.920000,925782.350000
1697768.090000,925869.650000
1697457.110000,926299.820000
1696843.550000,927002.300000
1695971.370000,927929.790000
1694884.490000,929035.020000
1693626.850000,930270.710000
1692908.000000,930962.350000
1691771.390000,932039.570000
1690776.570000,932962.250000
1689976.950000,933681.810000
1689425.950000,934149.680000
1689176.980000,934317.270000
1689005.930000,934255.150000
1688479.290000,933961.260000
1687714.490000,933480.630000
1686811.290000,932874.120000
1686169.110000,932431.530000
1684887.050000,931552.610000
1683518.940000,930619.150000
1682269.320000,929770.910000
1679821.370000,928115.150000
1677766.490000,929226.200000
1677282.630000,929482.650000
1676402.700000,929921.300000
1675722.230000,930224.140000
1675358.560000,930337.060000
1675239.540000,930192.050000
1674944.000000,929639.920000
1674507.480000,928729.620000
1673954.260000,927518.920000
1673308.630000,926065.590000
1672594.890000,924427.410000
1671837.320000,922662.130000
1671060.220000,920827.530000
1670287.860000,918981.380000
1669544.560000,917181.460000
1668854.580000,915485.520000
1668242.230000,913951.350000
1667731.790000,912636.700000
1667347.550000,911599.360000
1667113.800000,910897.090000
1667054.830000,910587.660000
1667058.830000,910578.620000
1667333.490000,910292.570000
1667907.990000,909844.570000
1668663.730000,909327.510000
1668902.270000,909169.620000
1670717.340000,907671.740000
1672219.530000,905887.670000
1673373.270000,903891.650000
1674142.990000,901757.970000
1674493.140000,899560.870000
1674388.130000,897374.620000
1673962.770000,895430.110000
1673199.030000,893466.570000
1672085.650000,891714.840000
1670557.740000,890050.820000
1669957.390000,889519.240000
1668016.580000,888209.510000
1665919.990000,887327.440000
1663728.370000,886865.120000
1661502.470000,886814.670000
1659303.070000,887168.200000
1657190.900000,887917.790000
1655226.730000,889055.570000
1653471.320000,890573.630000
1651985.420000,892464.090000
1651699.740000,892932.240000
1650728.730000,895072.040000
1650213.030000,897300.260000
1650139.140000,899559.220000
1650493.550000,901791.190000
1651262.760000,903938.470000
1652433.260000,905943.360000
1653991.550000,907748.140000
1655924.130000,909295.100000
1655986.890000,909336.790000
1656734.610000,909863.700000
1657295.040000,910311.690000
1657551.000000,910587.660000
1657518.700000,910804.020000
1657317.900000,911433.990000
1656961.840000,912410.380000
1656474.800000,913675.420000
1655881.080000,915171.320000
1655204.940000,916840.300000
1654470.660000,918624.570000
1653702.540000,920466.360000
1652924.840000,922307.870000
1652161.850000,924091.330000
1651437.840000,925758.950000
1650777.100000,927252.940000
1650203.910000,928515.540000
1649742.550000,929488.940000
1649417.300000,930115.380000
1649252.430000,930337.060000
1649115.330000,930307.030000
1648576.700000,930091.260000
1647780.640000,929712.930000
1646844.490000,929226.200000
1644789.620000,928115.150000
1642341.670000,929770.910000
1641618.450000,930261.200000
1640273.260000,931177.290000
1638932.150000,932094.850000
1637799.700000,932874.120000
1637174.700000,933298.810000
1636362.390000,933826.440000
1635760.090000,934187.650000
1635465.910000,934321.570000
1635339.530000,934264.710000
1634882.670000,933916.450000
1634178.380000,933303.290000
1633287.960000,932485.540000
1632272.720000,931523.510000
1631193.940000,930477.510000
1630112.950000,929407.860000
1629091.030000,928374.850000
1628189.500000,927438.820000
1627469.640000,926660.060000
1626992.780000,926098.890000
1626820.200000,925815.620000
1626830.150000,925761.720000
1627035.550000,925323.040000
1627474.340000,924564.070000
1628104.120000,923553.360000
1628882.470000,922359.480000
1629767.010000,921050.980000
1630015.090000,920690.050000
1630886.180000,919420.000000
1631653.470000,918297.180000
1632272.240000,917387.300000
1632697.770000,916756.060000
1632885.340000,916469.170000
1632889.950000,916456.870000
1632834.590000,916105.880000
1632623.200000,915394.840000
1632290.050000,914413.100000
1631869.450000,913250.020000
1631395.700000,911994.930000
1630903.080000,910737.180000
1630425.890000,909566.120000
1629998.420000,908571.100000
1629654.970000,907841.450000
1629429.830000,907466.530000
1629407.280000,907443.250000
1629246.080000,907325.490000
1628973.830000,907206.730000
1628536.330000,907074.810000
1627879.350000,906917.540000
1626948.700000,906722.740000
1625690.160000,906478.240000
1624049.530000,906171.860000
1621972.590000,905791.430000
1621541.810000,905711.360000
1620307.770000,905463.840000
1619269.720000,905229.330000
1618526.010000,905031.100000
1618175.040000,904892.450000
1618116.320000,904776.770000
1618018.420000,904221.100000
1617940.850000,903299.900000
1617883.650000,902099.510000
1617846.890000,900706.220000
1617830.620000,899206.350000
1617834.910000,897686.210000
1617859.820000,896232.120000
1617905.400000,894930.370000
1617971.710000,893867.300000
1618058.810000,893129.190000
1618166.770000,892802.380000
1618276.990000,892754.100000
1618825.310000,892601.910000
1619752.130000,892386.660000
1620983.510000,892124.390000
1622445.480000,891831.140000
1624064.060000,891522.960000
1624947.840000,891358.310000
1626462.590000,891072.790000
1627766.400000,890822.770000
1628789.540000,890621.850000
1629462.280000,890483.620000
1629714.890000,890421.650000
1629724.380000,890408.880000
1629885.260000,890084.370000
1630191.940000,889404.520000
1630606.110000,888459.540000
1631089.410000,887339.640000
1631603.540000,886135.000000
1632110.140000,884935.840000
1632570.890000,883832.350000
1632947.460000,882914.730000
1633201.510000,882273.190000
1633294.710000,881997.920000
1633253.600000,881901.060000
1632980.000000,881440.180000
1632483.700000,880664.400000
1631804.600000,879634.610000
1630982.550000,878411.670000
1630057.460000,877056.460000
1629549.910000,876314.290000
1628674.030000,875013.090000
1627923.060000,873871.120000
1627337.070000,872950.660000
1626956.090000,872313.980000
1626820.200000,872023.370000
1626914.620000,871865.730000
1627309.600000,871394.710000
1627957.580000,870681.860000
1628799.090000,869787.600000
1629774.640000,868772.320000
1630824.740000,867696.430000
1631889.930000,866620.340000
1632910.710000,865604.450000
1633827.600000,864709.170000
1634581.120000,863994.890000
1635111.800000,863522.030000
1635360.140000,863350.980000
1635497.990000,863417.490000
1636004.180000,863725.920000
1636821.050000,864250.830000
1637889.720000,864953.750000
1639151.320000,865796.220000
1640546.980000,866739.780000
1645530.560000,870128.570000
1649684.690000,868416.100000
1653838.830000,866703.630000
1654964.650000,860731.720000
1656090.480000,854759.800000
1668520.510000,854759.800000
Z" /> 
<path style="fill:#000000; fill-opacity:1.0; 
stroke:#000000; stroke-width:100.000000; stroke-opacity:1; 
stroke-linecap:round; stroke-linejoin:round;fill-rule:evenodd;"
d="M 1648057.190000,972017.890000
1647404.320000,972985.050000
1646413.980000,973680.770000
1646316.790000,973723.050000
1645233.200000,974027.670000
1644012.230000,974146.420000
1642851.380000,974073.820000
1641948.140000,973804.410000
1641587.340000,973628.650000
1641322.560000,973586.740000
1641263.340000,973805.940000
1641151.160000,974008.660000
1640717.130000,974129.380000
1639874.690000,974164.710000
1638486.040000,974164.710000
1638559.950000,969806.860000
1641263.340000,969806.860000
1641357.130000,970458.290000
1641761.380000,971176.470000
1641910.590000,971308.480000
1642522.180000,971586.200000
1643442.260000,971657.660000
1643994.350000,971629.740000
1645027.410000,971419.520000
1645667.710000,971027.820000
1645883.670000,970481.220000
1645643.690000,969806.280000
1645503.670000,969629.640000
1644878.270000,969233.450000
1643888.470000,969007.220000
1642477.310000,968935.300000
1641263.340000,968935.300000
1641263.340000,969806.860000
1638559.950000,969806.860000
1638567.340000,969371.080000
1638589.430000,968262.580000
1638647.610000,966603.050000
1638745.670000,965334.090000
1638902.990000,964386.540000
1639138.940000,963691.200000
1639472.910000,963178.900000
1639924.270000,962780.460000
1640512.390000,962426.690000
1640815.800000,962291.630000
1641865.410000,962036.690000
1643131.340000,961931.290000
1644440.170000,961973.500000
1645618.450000,962161.400000
1646492.750000,962493.050000
1646796.870000,962685.620000
1647497.050000,963256.360000
1647734.030000,963734.270000
1647676.480000,963826.620000
1647317.820000,964149.190000
1646738.810000,964579.500000
1646442.790000,964780.910000
1645938.680000,965066.290000
1645611.100000,965093.540000
1645306.950000,964896.570000
1644548.920000,964497.660000
1643528.950000,964333.610000
1642486.610000,964459.200000
1642466.890000,964464.890000
1641731.710000,964784.310000
1641367.810000,965284.280000
1641267.150000,966111.160000
1641263.340000,966897.800000
1643862.300000,966982.730000
1644276.360000,966996.700000
1645320.270000,967045.280000
1646020.100000,967121.610000
1646493.130000,967254.250000
1646856.680000,967471.810000
1647228.040000,967802.850000
1647841.200000,968568.550000
1648290.590000,969701.570000
1648334.650000,970481.220000
1648357.600000,970887.380000
Z" /> 
<path style="fill:#000000; fill-opacity:1.0; 
stroke:#000000; stroke-width:100.000000; stroke-opacity:1; 
stroke-linecap:round; stroke-linejoin:round;fill-rule:evenodd;"
d="M 1628508.420000,943193.810000
1629118.890000,943384.390000
1629870.690000,943701.150000
1630234.690000,943871.380000
1630497.400000,943902.150000
1630555.490000,943666.200000
1630555.550000,943659.520000
1630678.560000,943434.260000
1631102.810000,943318.790000
1631925.100000,943286.280000
1633294.710000,943286.280000
1633294.710000,955239.220000
1630555.490000,955239.220000
1630555.490000,946997.790000
1629874.540000,946366.700000
1629661.800000,946187.350000
1629028.110000,945880.910000
1628247.760000,945868.630000
1627185.200000,946139.030000
1626827.010000,946156.150000
1626406.830000,945893.830000
1625847.570000,945270.350000
1625576.280000,944925.470000
1625255.430000,944438.520000
1625205.990000,944128.550000
1625385.630000,943867.070000
1625937.100000,943536.410000
1626793.630000,943274.720000
1627722.920000,943144.960000
Z" /> 
<path style="fill:#000000; fill-opacity:1.0; 
stroke:#000000; stroke-width:100.000000; stroke-opacity:1; 
stroke-linecap:round; stroke-linejoin:round;fill-rule:evenodd;"
d="M 1628025.020000,968993.300000
1627730.100000,970771.050000
1627123.290000,972168.920000
1626199.220000,973196.890000
1624952.550000,973864.960000
1624549.760000,973983.000000
1623111.530000,974147.860000
1621592.890000,974008.730000
1620221.180000,973579.350000
1619737.940000,973335.650000
1619045.070000,972918.190000
1618625.170000,972574.680000
1618563.170000,972496.200000
1618447.190000,972209.170000
1618614.300000,971897.140000
1619123.210000,971424.590000
1619368.800000,971218.870000
1619852.600000,970842.420000
1620106.270000,970688.550000
1620178.940000,970704.400000
1620595.440000,970875.740000
1621217.260000,971176.470000
1621420.000000,971275.400000
1622616.000000,971642.750000
1623655.060000,971548.050000
1624566.210000,970989.710000
1624672.220000,970886.540000
1625179.090000,970240.310000
1625468.700000,969620.100000
1625629.090000,968935.300000
1618104.510000,968935.300000
1618105.900000,967627.940000
1618106.700000,967497.920000
1618208.290000,966449.030000
1620843.730000,966449.030000
1620874.850000,966666.570000
1621034.620000,966816.490000
1621415.430000,966899.700000
1622109.600000,966935.490000
1623209.420000,966943.140000
1623820.860000,966935.210000
1624723.380000,966888.880000
1625344.160000,966810.380000
1625575.100000,966710.330000
1625378.140000,965886.770000
1624801.510000,965118.110000
1623969.840000,964584.840000
1623009.110000,964400.380000
1622301.780000,964608.320000
1621594.710000,965116.640000
1621057.220000,965778.920000
1620843.730000,966449.030000
1618208.290000,966449.030000
1618262.480000,965889.500000
1618715.920000,964581.060000
1619507.120000,963453.130000
1619989.790000,962976.000000
1620986.630000,962337.310000
1622176.930000,962027.840000
1623680.430000,962006.070000
1624406.680000,962091.390000
1625747.270000,962534.400000
1626773.650000,963340.690000
1627494.800000,964522.710000
1627919.720000,966092.910000
1627962.860000,966710.330000
1628057.400000,968063.730000
Z" /> 
<path style="fill:#000000; fill-opacity:1.0; 
stroke:#000000; stroke-width:100.000000; stroke-opacity:1; 
stroke-linecap:round; stroke-linejoin:round;fill-rule:evenodd;"
d="M 1621503.410000,943343.290000
1622862.180000,943872.670000
1624011.350000,944746.550000
1624860.130000,945946.800000
1624917.450000,946069.180000
1625281.350000,947262.810000
1625463.160000,948688.640000
1625461.730000,950173.180000
1625275.900000,951542.970000
1624904.520000,952624.510000
1624445.990000,953378.310000
1623436.690000,954446.200000
1622174.690000,955125.000000
1621094.970000,955399.500000
1619450.880000,955429.470000
1617877.640000,955015.490000
1616482.510000,954175.460000
1615579.540000,953431.160000
1616392.840000,952592.050000
1616906.650000,952094.960000
1617371.410000,951818.200000
1617802.350000,951879.140000
1618353.530000,952250.980000
1618573.310000,952396.550000
1619501.780000,952694.490000
1620568.950000,952694.310000
1621568.080000,952387.230000
1621944.290000,952140.640000
1622496.130000,951412.450000
1622772.780000,950342.900000
1622790.580000,948885.170000
1622790.530000,948884.350000
1622584.700000,947580.140000
1622131.280000,946675.870000
1621385.180000,946116.520000
1620301.280000,945847.040000
1619618.710000,945810.790000
1619022.310000,945959.210000
1618410.650000,946389.180000
1617619.120000,947055.200000
1616616.720000,946249.650000
1616250.500000,945941.050000
1615793.070000,945498.890000
1615614.320000,945238.320000
1615677.620000,945120.890000
1616042.210000,944760.360000
1616623.010000,944301.850000
1617077.440000,944003.480000
1618520.240000,943390.560000
1620025.830000,943176.540000
Z" /> 
<path style="fill:#000000; fill-opacity:1.0; 
stroke:#000000; stroke-width:100.000000; stroke-opacity:1; 
stroke-linecap:round; stroke-linejoin:round;fill-rule:evenodd;"
d="M 1676078.220000,970060.320000
1676014.740000,970801.920000
1676003.860000,970869.890000
1675576.600000,972085.550000
1674796.340000,973116.190000
1673772.740000,973814.440000
1672673.540000,974103.460000
1671321.510000,974081.030000
1670077.760000,973693.510000
1669753.790000,973529.980000
1669337.200000,973354.750000
1669178.670000,973409.270000
1669153.530000,973693.510000
1669141.990000,973835.250000
1668992.920000,974044.880000
1668578.890000,974141.400000
1667783.930000,974164.710000
1666414.320000,974164.710000
1666414.320000,968186.070000
1669153.530000,968186.070000
1669173.160000,969221.810000
1669252.830000,969911.380000
1669422.920000,970383.790000
1669713.830000,970779.680000
1670481.960000,971368.310000
1671380.860000,971565.640000
1672252.540000,971321.620000
1672986.690000,970640.900000
1673180.750000,970142.780000
1673324.100000,969260.700000
1673387.110000,968190.520000
1673367.260000,967092.840000
1673261.990000,966128.270000
1673068.760000,965457.430000
1673007.030000,965347.420000
1672411.930000,964794.530000
1671605.460000,964549.590000
1670739.330000,964606.560000
1669965.220000,964959.400000
1669434.860000,965602.080000
1669412.940000,965656.130000
1669281.430000,966259.210000
1669188.660000,967160.390000
1669153.530000,968186.070000
1666414.320000,968186.070000
1666414.320000,957231.370000
1669153.530000,957231.370000
1669153.530000,963036.010000
1669660.900000,962576.850000
1670149.420000,962291.460000
1671074.020000,962052.900000
1672154.850000,961976.030000
1673210.360000,962070.400000
1674059.000000,962345.570000
1674666.410000,962736.990000
1675292.070000,963403.790000
1675713.150000,964300.530000
1675966.270000,965513.550000
1676088.060000,967129.180000
1676105.960000,967782.250000
1676107.250000,968190.520000
1676109.790000,968995.700000
Z" /> 
<path style="fill:#000000; fill-opacity:1.0; 
stroke:#000000; stroke-width:100.000000; stroke-opacity:1; 
stroke-linecap:round; stroke-linejoin:round;fill-rule:evenodd;"
d="M 1659122.700000,965872.970000
1659459.360000,966877.410000
1659857.610000,967989.350000
1660190.170000,968831.720000
1660429.540000,969335.870000
1660548.240000,969433.180000
1660576.880000,969348.560000
1660731.910000,968829.530000
1660978.830000,967962.650000
1661290.230000,966844.970000
1661638.700000,965573.530000
1662586.740000,962087.260000
1664034.260000,962011.630000
1664156.450000,962005.570000
1664937.030000,961997.550000
1665312.120000,962077.680000
1665359.890000,962260.650000
1665299.550000,962439.340000
1665101.030000,963050.950000
1664790.230000,964019.600000
1664389.300000,965276.020000
1663920.370000,966750.910000
1663405.610000,968375.000000
1661573.210000,974164.710000
1659281.050000,974164.710000
1658201.010000,970491.670000
1658001.580000,969817.200000
1657633.000000,968591.010000
1657318.050000,967569.300000
1657085.100000,966843.360000
1656962.500000,966504.460000
1656927.570000,966479.180000
1656757.580000,966697.780000
1656514.890000,967275.860000
1656239.820000,968123.090000
1656225.280000,968172.850000
1655857.000000,969423.220000
1655435.620000,970838.960000
1655049.500000,972123.160000
1654423.390000,974190.440000
1652114.110000,974040.200000
1651044.700000,970678.430000
1650575.190000,969201.280000
1650049.260000,967544.580000
1649545.650000,965956.380000
1649128.780000,964639.710000
1648282.270000,961962.750000
1651114.290000,961962.750000
1651800.720000,964515.200000
1651983.210000,965189.630000
1652328.330000,966446.970000
1652647.930000,967590.830000
1652890.890000,968437.260000
1653294.630000,969806.860000
1654582.240000,965947.060000
1655869.860000,962087.260000
1656854.720000,962013.320000
1657839.590000,961939.390000
Z" /> 
<g >
</g>
<g >
</g>
<g >
</g>
<g >
</g>
<g >
</g>
<g >
</g>
<g >
</g>
<g >
</g>
<g >
</g>
<g >
</g>
<g >
</g>
<g >
</g>
<g >
</g>
<g >
</g>
<g >
</g>
<g >
</g>
<g >
</g>
<g >
</g>
<g >
</g>
<g >
</g>
<g >
</g>
<g >
</g>
<g >
</g>
<g >
</g>
<g >
</g>
<g >
</g>
<g >
</g>
<g >
</g>
<g >
</g>
<g >
</g>
<g >
</g>
<g >
</g>
<g >
</g>
<g >
</g>
<g >
</g>
<g >
</g>
<g >
</g>
<g >
</g>
<g >
</g>
<g >
</g>
<g >
</g>
<g >
</g>
<g >
</g>
<g >
</g>
<g >
</g>
<g >
</g>
<g >
</g>
<g >
</g>
<g >
</g>
<g >
</g>
</g>
<g style="fill:#FFFFFF; fill-opacity:1.0; 
stroke:#FFFFFF; stroke-width:100.000000; stroke-opacity:1; 
stroke-linecap:round; stroke-linejoin:round;">
</g>
<g style="fill:#FFFFFF; fill-opacity:1.0; 
stroke:#FFFFFF; stroke-width:0.010000; stroke-opacity:1; 
stroke-linecap:round; stroke-linejoin:round;">
<circle cx="1543558.000000" cy="757936.000000" r="2000.000000" /> 
</g>
<g style="fill:#FFFFFF; fill-opacity:1.0; 
stroke:#FFFFFF; stroke-width:212.000000; stroke-opacity:1; 
stroke-linecap:round; stroke-linejoin:round;">
</g>
<g style="fill:#FFFFFF; fill-opacity:1.0; 
stroke:#FFFFFF; stroke-width:0.010000; stroke-opacity:1; 
stroke-linecap:round; stroke-linejoin:round;">
<circle cx="1231138.000000" cy="733298.000000" r="2000.000000" /> 
</g>
<g style="fill:#FFFFFF; fill-opacity:1.0; 
stroke:#FFFFFF; stroke-width:212.000000; stroke-opacity:1; 
stroke-linecap:round; stroke-linejoin:round;">
</g>
<g style="fill:#FFFFFF; fill-opacity:1.0; 
stroke:#FFFFFF; stroke-width:0.010000; stroke-opacity:1; 
stroke-linecap:round; stroke-linejoin:round;">
<circle cx="1291082.000000" cy="779526.000000" r="2000.000000" /> 
</g>
<g style="fill:#FFFFFF; fill-opacity:1.0; 
stroke:#FFFFFF; stroke-width:212.000000; stroke-opacity:1; 
stroke-linecap:round; stroke-linejoin:round;">
</g>
<g style="fill:#FFFFFF; fill-opacity:1.0; 
stroke:#FFFFFF; stroke-width:0.010000; stroke-opacity:1; 
stroke-linecap:round; stroke-linejoin:round;">
<circle cx="1672590.000000" cy="979424.000000" r="2000.000000" /> 
</g>
<g style="fill:#FFFFFF; fill-opacity:1.0; 
stroke:#FFFFFF; stroke-width:212.000000; stroke-opacity:1; 
stroke-linecap:round; stroke-linejoin:round;">
</g>
<g style="fill:#FFFFFF; fill-opacity:1.0; 
stroke:#FFFFFF; stroke-width:0.010000; stroke-opacity:1; 
stroke-linecap:round; stroke-linejoin:round;">
<circle cx="1556766.000000" cy="830580.000000" r="2000.000000" /> 
</g>
<g style="fill:#FFFFFF; fill-opacity:1.0; 
stroke:#FFFFFF; stroke-width:212.000000; stroke-opacity:1; 
stroke-linecap:round; stroke-linejoin:round;">
</g>
<g style="fill:#FFFFFF; fill-opacity:1.0; 
stroke:#FFFFFF; stroke-width:0.010000; stroke-opacity:1; 
stroke-linecap:round; stroke-linejoin:round;">
<circle cx="1638300.000000" cy="767588.000000" r="2000.000000" /> 
</g>
<g style="fill:#FFFFFF; fill-opacity:1.0; 
stroke:#FFFFFF; stroke-width:212.000000; stroke-opacity:1; 
stroke-linecap:round; stroke-linejoin:round;">
</g>
<g style="fill:#FFFFFF; fill-opacity:1.0; 
stroke:#FFFFFF; stroke-width:0.010000; stroke-opacity:1; 
stroke-linecap:round; stroke-linejoin:round;">
<circle cx="1253490.000000" cy="909066.000000" r="2000.000000" /> 
</g>
<g style="fill:#FFFFFF; fill-opacity:1.0; 
stroke:#FFFFFF; stroke-width:212.000000; stroke-opacity:1; 
stroke-linecap:round; stroke-linejoin:round;">
</g>
<g style="fill:#FFFFFF; fill-opacity:1.0; 
stroke:#FFFFFF; stroke-width:0.010000; stroke-opacity:1; 
stroke-linecap:round; stroke-linejoin:round;">
<circle cx="1308100.000000" cy="953516.000000" r="2000.000000" /> 
</g>
<g style="fill:#FFFFFF; fill-opacity:1.0; 
stroke:#FFFFFF; stroke-width:212.000000; stroke-opacity:1; 
stroke-linecap:round; stroke-linejoin:round;">
</g>
<g style="fill:#FFFFFF; fill-opacity:1.0; 
stroke:#FFFFFF; stroke-width:0.010000; stroke-opacity:1; 
stroke-linecap:round; stroke-linejoin:round;">
<circle cx="1290828.000000" cy="733806.000000" r="2000.000000" /> 
</g>
<g style="fill:#FFFFFF; fill-opacity:1.0; 
stroke:#FFFFFF; stroke-width:212.000000; stroke-opacity:1; 
stroke-linecap:round; stroke-linejoin:round;">
</g>
<g style="fill:#FFFFFF; fill-opacity:1.0; 
stroke:#FFFFFF; stroke-width:0.010000; stroke-opacity:1; 
stroke-linecap:round; stroke-linejoin:round;">
<circle cx="1448308.000000" cy="850646.000000" r="2000.000000" /> 
</g>
<g style="fill:#FFFFFF; fill-opacity:1.0; 
stroke:#FFFFFF; stroke-width:212.000000; stroke-opacity:1; 
stroke-linecap:round; stroke-linejoin:round;">
</g>
<g style="fill:#FFFFFF; fill-opacity:1.0; 
stroke:#FFFFFF; stroke-width:0.010000; stroke-opacity:1; 
stroke-linecap:round; stroke-linejoin:round;">
<circle cx="1230884.000000" cy="781304.000000" r="2000.000000" /> 
</g>
<g style="fill:#FFFFFF; fill-opacity:1.0; 
stroke:#FFFFFF; stroke-width:212.000000; stroke-opacity:1; 
stroke-linecap:round; stroke-linejoin:round;">
</g>
<g style="fill:#FFFFFF; fill-opacity:1.0; 
stroke:#FFFFFF; stroke-width:0.010000; stroke-opacity:1; 
stroke-linecap:round; stroke-linejoin:round;">
<circle cx="1598422.000000" cy="986028.000000" r="2000.000000" /> 
</g>
<g style="fill:#FFFFFF; fill-opacity:1.0; 
stroke:#FFFFFF; stroke-width:212.000000; stroke-opacity:1; 
stroke-linecap:round; stroke-linejoin:round;">
</g>
<g style="fill:#FFFFFF; fill-opacity:1.0; 
stroke:#FFFFFF; stroke-width:0.010000; stroke-opacity:1; 
stroke-linecap:round; stroke-linejoin:round;">
<circle cx="1545336.000000" cy="832866.000000" r="2000.000000" /> 
</g>
<g style="fill:#FFFFFF; fill-opacity:1.0; 
stroke:#FFFFFF; stroke-width:212.000000; stroke-opacity:1; 
stroke-linecap:round; stroke-linejoin:round;">
</g>
<g style="fill:#FFFFFF; fill-opacity:1.0; 
stroke:#FFFFFF; stroke-width:0.010000; stroke-opacity:1; 
stroke-linecap:round; stroke-linejoin:round;">
<circle cx="1460246.000000" cy="692404.000000" r="2000.000000" /> 
</g>
<g style="fill:#FFFFFF; fill-opacity:1.0; 
stroke:#FFFFFF; stroke-width:212.000000; stroke-opacity:1; 
stroke-linecap:round; stroke-linejoin:round;">
</g>
<g style="fill:#FFFFFF; fill-opacity:1.0; 
stroke:#FFFFFF; stroke-width:0.010000; stroke-opacity:1; 
stroke-linecap:round; stroke-linejoin:round;">
<circle cx="1591818.000000" cy="819658.000000" r="2000.000000" /> 
</g>
<g style="fill:#FFFFFF; fill-opacity:1.0; 
stroke:#FFFFFF; stroke-width:212.000000; stroke-opacity:1; 
stroke-linecap:round; stroke-linejoin:round;">
</g>
<g style="fill:#FFFFFF; fill-opacity:1.0; 
stroke:#FFFFFF; stroke-width:0.010000; stroke-opacity:1; 
stroke-linecap:round; stroke-linejoin:round;">
<circle cx="1308354.000000" cy="889000.000000" r="2000.000000" /> 
</g>
<g style="fill:#FFFFFF; fill-opacity:1.0; 
stroke:#FFFFFF; stroke-width:212.000000; stroke-opacity:1; 
stroke-linecap:round; stroke-linejoin:round;">
</g>
<g style="fill:#FFFFFF; fill-opacity:1.0; 
stroke:#FFFFFF; stroke-width:0.010000; stroke-opacity:1; 
stroke-linecap:round; stroke-linejoin:round;">
<circle cx="1291082.000000" cy="843026.000000" r="2000.000000" /> 
</g>
<g style="fill:#FFFFFF; fill-opacity:1.0; 
stroke:#FFFFFF; stroke-width:212.000000; stroke-opacity:1; 
stroke-linecap:round; stroke-linejoin:round;">
</g>
<g style="fill:#FFFFFF; fill-opacity:1.0; 
stroke:#FFFFFF; stroke-width:0.010000; stroke-opacity:1; 
stroke-linecap:round; stroke-linejoin:round;">
<circle cx="1215644.000000" cy="893318.000000" r="2000.000000" /> 
</g>
<g style="fill:#FFFFFF; fill-opacity:1.0; 
stroke:#FFFFFF; stroke-width:212.000000; stroke-opacity:1; 
stroke-linecap:round; stroke-linejoin:round;">
</g>
<g style="fill:#FFFFFF; fill-opacity:1.0; 
stroke:#FFFFFF; stroke-width:0.010000; stroke-opacity:1; 
stroke-linecap:round; stroke-linejoin:round;">
<circle cx="1231392.000000" cy="844042.000000" r="2000.000000" /> 
</g>
<g style="fill:#FFFFFF; fill-opacity:1.0; 
stroke:#FFFFFF; stroke-width:212.000000; stroke-opacity:1; 
stroke-linecap:round; stroke-linejoin:round;">
</g>
<g style="fill:#FFFFFF; fill-opacity:1.0; 
stroke:#FFFFFF; stroke-width:0.010000; stroke-opacity:1; 
stroke-linecap:round; stroke-linejoin:round;">
<circle cx="1627632.000000" cy="700024.000000" r="2000.000000" /> 
</g>
<g style="fill:#FFFFFF; fill-opacity:1.0; 
stroke:#FFFFFF; stroke-width:212.000000; stroke-opacity:1; 
stroke-linecap:round; stroke-linejoin:round;">
</g>
<g style="fill:#FFFFFF; fill-opacity:1.0; 
stroke:#FFFFFF; stroke-width:0.010000; stroke-opacity:1; 
stroke-linecap:round; stroke-linejoin:round;">
<circle cx="1550416.000000" cy="700786.000000" r="2000.000000" /> 
</g>
<g style="fill:#FFFFFF; fill-opacity:1.0; 
stroke:#FFFFFF; stroke-width:212.000000; stroke-opacity:1; 
stroke-linecap:round; stroke-linejoin:round;">
</g>
<g style="fill:#FFFFFF; fill-opacity:1.0; 
stroke:#FFFFFF; stroke-width:0.010000; stroke-opacity:1; 
stroke-linecap:round; stroke-linejoin:round;">
<circle cx="1606804.000000" cy="811530.000000" r="2000.000000" /> 
</g>
<g style="fill:#FFFFFF; fill-opacity:1.0; 
stroke:#FFFFFF; stroke-width:212.000000; stroke-opacity:1; 
stroke-linecap:round; stroke-linejoin:round;">
</g>
<g style="fill:#FFFFFF; fill-opacity:1.0; 
stroke:#FFFFFF; stroke-width:0.010000; stroke-opacity:1; 
stroke-linecap:round; stroke-linejoin:round;">
<circle cx="1668780.000000" cy="887730.000000" r="2000.000000" /> 
</g>
<g style="fill:#FFFFFF; fill-opacity:1.0; 
stroke:#FFFFFF; stroke-width:212.000000; stroke-opacity:1; 
stroke-linecap:round; stroke-linejoin:round;">
</g>
<g style="fill:#FFFFFF; fill-opacity:1.0; 
stroke:#FFFFFF; stroke-width:0.010000; stroke-opacity:1; 
stroke-linecap:round; stroke-linejoin:round;">
<circle cx="1605534.000000" cy="862330.000000" r="2000.000000" /> 
</g>
<g style="fill:#FFFFFF; fill-opacity:1.0; 
stroke:#FFFFFF; stroke-width:212.000000; stroke-opacity:1; 
stroke-linecap:round; stroke-linejoin:round;">
</g>
<g style="fill:#FFFFFF; fill-opacity:1.0; 
stroke:#FFFFFF; stroke-width:0.010000; stroke-opacity:1; 
stroke-linecap:round; stroke-linejoin:round;">
<circle cx="1672336.000000" cy="935228.000000" r="2000.000000" /> 
</g>
<g style="fill:#FFFFFF; fill-opacity:1.0; 
stroke:#FFFFFF; stroke-width:212.000000; stroke-opacity:1; 
stroke-linecap:round; stroke-linejoin:round;">
</g>
<g style="fill:#FFFFFF; fill-opacity:1.0; 
stroke:#FFFFFF; stroke-width:0.010000; stroke-opacity:1; 
stroke-linecap:round; stroke-linejoin:round;">
<circle cx="1650492.000000" cy="904494.000000" r="2000.000000" /> 
</g>
<g style="fill:#FFFFFF; fill-opacity:1.0; 
stroke:#FFFFFF; stroke-width:212.000000; stroke-opacity:1; 
stroke-linecap:round; stroke-linejoin:round;">
</g>
<g style="fill:#FFFFFF; fill-opacity:1.0; 
stroke:#FFFFFF; stroke-width:0.010000; stroke-opacity:1; 
stroke-linecap:round; stroke-linejoin:round;">
<circle cx="1657350.000000" cy="801624.000000" r="2000.000000" /> 
</g>
<g style="fill:#FFFFFF; fill-opacity:1.0; 
stroke:#FFFFFF; stroke-width:212.000000; stroke-opacity:1; 
stroke-linecap:round; stroke-linejoin:round;">
</g>
<g style="fill:#FFFFFF; fill-opacity:1.0; 
stroke:#FFFFFF; stroke-width:0.010000; stroke-opacity:1; 
stroke-linecap:round; stroke-linejoin:round;">
<circle cx="1704594.000000" cy="804164.000000" r="2000.000000" /> 
</g>
<g style="fill:#FFFFFF; fill-opacity:1.0; 
stroke:#FFFFFF; stroke-width:212.000000; stroke-opacity:1; 
stroke-linecap:round; stroke-linejoin:round;">
</g>
<g style="fill:#FFFFFF; fill-opacity:1.0; 
stroke:#FFFFFF; stroke-width:0.010000; stroke-opacity:1; 
stroke-linecap:round; stroke-linejoin:round;">
<circle cx="1723898.000000" cy="881380.000000" r="2000.000000" /> 
</g>
<g style="fill:#FFFFFF; fill-opacity:1.0; 
stroke:#FFFFFF; stroke-width:212.000000; stroke-opacity:1; 
stroke-linecap:round; stroke-linejoin:round;">
</g>
<g style="fill:#FFFFFF; fill-opacity:1.0; 
stroke:#FFFFFF; stroke-width:0.010000; stroke-opacity:1; 
stroke-linecap:round; stroke-linejoin:round;">
<circle cx="1705610.000000" cy="906780.000000" r="2000.000000" /> 
</g>
<g style="fill:#FFFFFF; fill-opacity:1.0; 
stroke:#FFFFFF; stroke-width:212.000000; stroke-opacity:1; 
stroke-linecap:round; stroke-linejoin:round;">
</g>
<g style="fill:#FFFFFF; fill-opacity:1.0; 
stroke:#FFFFFF; stroke-width:0.010000; stroke-opacity:1; 
stroke-linecap:round; stroke-linejoin:round;">
<circle cx="1568958.000000" cy="875538.000000" r="2000.000000" /> 
</g>
<g style="fill:#FFFFFF; fill-opacity:1.0; 
stroke:#FFFFFF; stroke-width:212.000000; stroke-opacity:1; 
stroke-linecap:round; stroke-linejoin:round;">
</g>
<g style="fill:#FFFFFF; fill-opacity:1.0; 
stroke:#FFFFFF; stroke-width:0.010000; stroke-opacity:1; 
stroke-linecap:round; stroke-linejoin:round;">
<circle cx="1561592.000000" cy="883920.000000" r="2000.000000" /> 
</g>
<g style="fill:#FFFFFF; fill-opacity:1.0; 
stroke:#FFFFFF; stroke-width:212.000000; stroke-opacity:1; 
stroke-linecap:round; stroke-linejoin:round;">
</g>
<g style="fill:#FFFFFF; fill-opacity:1.0; 
stroke:#FFFFFF; stroke-width:0.010000; stroke-opacity:1; 
stroke-linecap:round; stroke-linejoin:round;">
<circle cx="1562862.000000" cy="916940.000000" r="2000.000000" /> 
</g>
<g style="fill:#FFFFFF; fill-opacity:1.0; 
stroke:#FFFFFF; stroke-width:212.000000; stroke-opacity:1; 
stroke-linecap:round; stroke-linejoin:round;">
</g>
<g style="fill:#FFFFFF; fill-opacity:1.0; 
stroke:#FFFFFF; stroke-width:0.010000; stroke-opacity:1; 
stroke-linecap:round; stroke-linejoin:round;">
<circle cx="1550670.000000" cy="885952.000000" r="2000.000000" /> 
</g>
<g style="fill:#FFFFFF; fill-opacity:1.0; 
stroke:#FFFFFF; stroke-width:212.000000; stroke-opacity:1; 
stroke-linecap:round; stroke-linejoin:round;">
</g>
<g style="fill:#FFFFFF; fill-opacity:1.0; 
stroke:#FFFFFF; stroke-width:0.010000; stroke-opacity:1; 
stroke-linecap:round; stroke-linejoin:round;">
<circle cx="1526794.000000" cy="883158.000000" r="2000.000000" /> 
</g>
<g style="fill:#FFFFFF; fill-opacity:1.0; 
stroke:#FFFFFF; stroke-width:212.000000; stroke-opacity:1; 
stroke-linecap:round; stroke-linejoin:round;">
</g>
<g style="fill:#FFFFFF; fill-opacity:1.0; 
stroke:#FFFFFF; stroke-width:0.010000; stroke-opacity:1; 
stroke-linecap:round; stroke-linejoin:round;">
<circle cx="1520698.000000" cy="872236.000000" r="2000.000000" /> 
</g>
<g style="fill:#FFFFFF; fill-opacity:1.0; 
stroke:#FFFFFF; stroke-width:212.000000; stroke-opacity:1; 
stroke-linecap:round; stroke-linejoin:round;">
</g>
<g style="fill:#FFFFFF; fill-opacity:1.0; 
stroke:#FFFFFF; stroke-width:0.010000; stroke-opacity:1; 
stroke-linecap:round; stroke-linejoin:round;">
<circle cx="1516891.000000" cy="858520.000000" r="2000.000000" /> 
</g>
<g style="fill:#FFFFFF; fill-opacity:1.0; 
stroke:#FFFFFF; stroke-width:212.000000; stroke-opacity:1; 
stroke-linecap:round; stroke-linejoin:round;">
</g>
<g style="fill:#FFFFFF; fill-opacity:1.0; 
stroke:#FFFFFF; stroke-width:0.010000; stroke-opacity:1; 
stroke-linecap:round; stroke-linejoin:round;">
<circle cx="1501394.000000" cy="818896.000000" r="2000.000000" /> 
</g>
<g style="fill:#FFFFFF; fill-opacity:1.0; 
stroke:#FFFFFF; stroke-width:212.000000; stroke-opacity:1; 
stroke-linecap:round; stroke-linejoin:round;">
</g>
<g style="fill:#FFFFFF; fill-opacity:1.0; 
stroke:#FFFFFF; stroke-width:0.010000; stroke-opacity:1; 
stroke-linecap:round; stroke-linejoin:round;">
<circle cx="1485951.110000" cy="853896.890000" r="2000.000000" /> 
</g>
<g style="fill:#FFFFFF; fill-opacity:1.0; 
stroke:#FFFFFF; stroke-width:212.000000; stroke-opacity:1; 
stroke-linecap:round; stroke-linejoin:round;">
</g>
<g style="fill:#FFFFFF; fill-opacity:1.0; 
stroke:#FFFFFF; stroke-width:0.010000; stroke-opacity:1; 
stroke-linecap:round; stroke-linejoin:round;">
<circle cx="1559560.000000" cy="857758.020000" r="2000.000000" /> 
</g>
<g style="fill:#FFFFFF; fill-opacity:1.0; 
stroke:#FFFFFF; stroke-width:212.000000; stroke-opacity:1; 
stroke-linecap:round; stroke-linejoin:round;">
</g>
<g style="fill:#FFFFFF; fill-opacity:1.0; 
stroke:#FFFFFF; stroke-width:0.010000; stroke-opacity:1; 
stroke-linecap:round; stroke-linejoin:round;">
<circle cx="1770000.000000" cy="970000.000000" r="13499.995000" /> 
</g>
<g style="fill:#FFFFFF; fill-opacity:1.0; 
stroke:#FFFFFF; stroke-width:212.000000; stroke-opacity:1; 
stroke-linecap:round; stroke-linejoin:round;">
</g>
<g style="fill:#FFFFFF; fill-opacity:1.0; 
stroke:#FFFFFF; stroke-width:0.010000; stroke-opacity:1; 
stroke-linecap:round; stroke-linejoin:round;">
<circle cx="1230000.000000" cy="970000.000000" r="13499.995000" /> 
</g>
<g style="fill:#FFFFFF; fill-opacity:1.0; 
stroke:#FFFFFF; stroke-width:212.000000; stroke-opacity:1; 
stroke-linecap:round; stroke-linejoin:round;">
</g>
<g style="fill:#FFFFFF; fill-opacity:1.0; 
stroke:#FFFFFF; stroke-width:0.010000; stroke-opacity:1; 
stroke-linecap:round; stroke-linejoin:round;">
<circle cx="1230000.000000" cy="695000.000000" r="13499.995000" /> 
</g>
<g style="fill:#FFFFFF; fill-opacity:1.0; 
stroke:#FFFFFF; stroke-width:212.000000; stroke-opacity:1; 
stroke-linecap:round; stroke-linejoin:round;">
</g>
<g style="fill:#FFFFFF; fill-opacity:1.0; 
stroke:#FFFFFF; stroke-width:0.010000; stroke-opacity:1; 
stroke-linecap:round; stroke-linejoin:round;">
<circle cx="1770000.000000" cy="695000.000000" r="13499.995000" /> 
</g>
<g style="fill:#FFFFFF; fill-opacity:1.0; 
stroke:#FFFFFF; stroke-width:212.000000; stroke-opacity:1; 
stroke-linecap:round; stroke-linejoin:round;">
</g>
<g style="fill:#FFFFFF; fill-opacity:1.0; 
stroke:#FFFFFF; stroke-width:0.010000; stroke-opacity:1; 
stroke-linecap:round; stroke-linejoin:round;">
<circle cx="1276000.000000" cy="812000.000000" r="9999.995000" /> 
</g>
<g style="fill:#FFFFFF; fill-opacity:1.0; 
stroke:#FFFFFF; stroke-width:212.000000; stroke-opacity:1; 
stroke-linecap:round; stroke-linejoin:round;">
</g>
<g style="fill:#FFFFFF; fill-opacity:1.0; 
stroke:#FFFFFF; stroke-width:14999.990000; stroke-opacity:1; 
stroke-linecap:round; stroke-linejoin:round;">
</g>
<g style="fill:#FFFFFF; fill-opacity:0.0; 
stroke:#FFFFFF; stroke-width:14999.990000; stroke-opacity:1; 
stroke-linecap:round; stroke-linejoin:round;">
<path d="M1232000 814500
L1232000 809500
" />
</g>
<g style="fill:#FFFFFF; fill-opacity:1.0; 
stroke:#FFFFFF; stroke-width:0.010000; stroke-opacity:1; 
stroke-linecap:round; stroke-linejoin:round;">
<circle cx="1363000.000000" cy="795000.000000" r="5000.000000" /> 
</g>
<g style="fill:#FFFFFF; fill-opacity:1.0; 
stroke:#FFFFFF; stroke-width:212.000000; stroke-opacity:1; 
stroke-linecap:round; stroke-linejoin:round;">
</g>
<g style="fill:#FFFFFF; fill-opacity:1.0; 
stroke:#FFFFFF; stroke-width:0.010000; stroke-opacity:1; 
stroke-linecap:round; stroke-linejoin:round;">
<circle cx="1363000.000000" cy="769600.000000" r="5000.000000" /> 
</g>
<g style="fill:#FFFFFF; fill-opacity:1.0; 
stroke:#FFFFFF; stroke-width:212.000000; stroke-opacity:1; 
stroke-linecap:round; stroke-linejoin:round;">
</g>
<g style="fill:#FFFFFF; fill-opacity:1.0; 
stroke:#FFFFFF; stroke-width:0.010000; stroke-opacity:1; 
stroke-linecap:round; stroke-linejoin:round;">
<circle cx="1363000.000000" cy="744200.000000" r="5000.000000" /> 
</g>
<g style="fill:#FFFFFF; fill-opacity:1.0; 
stroke:#FFFFFF; stroke-width:212.000000; stroke-opacity:1; 
stroke-linecap:round; stroke-linejoin:round;">
</g>
<g style="fill:#FFFFFF; fill-opacity:1.0; 
stroke:#FFFFFF; stroke-width:0.010000; stroke-opacity:1; 
stroke-linecap:round; stroke-linejoin:round;">
<circle cx="1363000.000000" cy="718800.000000" r="5000.000000" /> 
</g>
<g style="fill:#FFFFFF; fill-opacity:1.0; 
stroke:#FFFFFF; stroke-width:212.000000; stroke-opacity:1; 
stroke-linecap:round; stroke-linejoin:round;">
</g>
<g style="fill:#FFFFFF; fill-opacity:1.0; 
stroke:#FFFFFF; stroke-width:0.010000; stroke-opacity:1; 
stroke-linecap:round; stroke-linejoin:round;">
<circle cx="1363000.000000" cy="693400.000000" r="5000.000000" /> 
</g>
<g style="fill:#FFFFFF; fill-opacity:1.0; 
stroke:#FFFFFF; stroke-width:212.000000; stroke-opacity:1; 
stroke-linecap:round; stroke-linejoin:round;">
</g>
<g style="fill:#FFFFFF; fill-opacity:1.0; 
stroke:#FFFFFF; stroke-width:0.010000; stroke-opacity:1; 
stroke-linecap:round; stroke-linejoin:round;">
<circle cx="1518920.000000" cy="952500.000000" r="5000.000000" /> 
</g>
<g style="fill:#FFFFFF; fill-opacity:1.0; 
stroke:#FFFFFF; stroke-width:212.000000; stroke-opacity:1; 
stroke-linecap:round; stroke-linejoin:round;">
</g>
<g style="fill:#FFFFFF; fill-opacity:1.0; 
stroke:#FFFFFF; stroke-width:0.010000; stroke-opacity:1; 
stroke-linecap:round; stroke-linejoin:round;">
<circle cx="1544320.000000" cy="952500.000000" r="5000.000000" /> 
</g>
<g style="fill:#FFFFFF; fill-opacity:1.0; 
stroke:#FFFFFF; stroke-width:212.000000; stroke-opacity:1; 
stroke-linecap:round; stroke-linejoin:round;">
</g>
<g style="fill:#FFFFFF; fill-opacity:1.0; 
stroke:#FFFFFF; stroke-width:0.010000; stroke-opacity:1; 
stroke-linecap:round; stroke-linejoin:round;">
<circle cx="1518920.000000" cy="977900.000000" r="5000.000000" /> 
</g>
<g style="fill:#FFFFFF; fill-opacity:1.0; 
stroke:#FFFFFF; stroke-width:212.000000; stroke-opacity:1; 
stroke-linecap:round; stroke-linejoin:round;">
</g>
<g style="fill:#FFFFFF; fill-opacity:1.0; 
stroke:#FFFFFF; stroke-width:0.010000; stroke-opacity:1; 
stroke-linecap:round; stroke-linejoin:round;">
<circle cx="1544320.000000" cy="977900.000000" r="5000.000000" /> 
</g>
<g style="fill:#FFFFFF; fill-opacity:1.0; 
stroke:#FFFFFF; stroke-width:212.000000; stroke-opacity:1; 
stroke-linecap:round; stroke-linejoin:round;">
</g>
<g style="fill:#FFFFFF; fill-opacity:1.0; 
stroke:#FFFFFF; stroke-width:0.010000; stroke-opacity:1; 
stroke-linecap:round; stroke-linejoin:round;">
<circle cx="1411224.000000" cy="977646.000000" r="5000.000000" /> 
</g>
<g style="fill:#FFFFFF; fill-opacity:1.0; 
stroke:#FFFFFF; stroke-width:212.000000; stroke-opacity:1; 
stroke-linecap:round; stroke-linejoin:round;">
</g>
<g style="fill:#FFFFFF; fill-opacity:1.0; 
stroke:#FFFFFF; stroke-width:0.010000; stroke-opacity:1; 
stroke-linecap:round; stroke-linejoin:round;">
<circle cx="1411224.000000" cy="952246.000000" r="5000.000000" /> 
</g>
<g style="fill:#FFFFFF; fill-opacity:1.0; 
stroke:#FFFFFF; stroke-width:212.000000; stroke-opacity:1; 
stroke-linecap:round; stroke-linejoin:round;">
</g>
<g style="fill:#FFFFFF; fill-opacity:1.0; 
stroke:#FFFFFF; stroke-width:0.010000; stroke-opacity:1; 
stroke-linecap:round; stroke-linejoin:round;">
<circle cx="1436624.000000" cy="977646.000000" r="5000.000000" /> 
</g>
<g style="fill:#FFFFFF; fill-opacity:1.0; 
stroke:#FFFFFF; stroke-width:212.000000; stroke-opacity:1; 
stroke-linecap:round; stroke-linejoin:round;">
</g>
<g style="fill:#FFFFFF; fill-opacity:1.0; 
stroke:#FFFFFF; stroke-width:0.010000; stroke-opacity:1; 
stroke-linecap:round; stroke-linejoin:round;">
<circle cx="1436624.000000" cy="952246.000000" r="5000.000000" /> 
</g>
<g style="fill:#FFFFFF; fill-opacity:1.0; 
stroke:#FFFFFF; stroke-width:212.000000; stroke-opacity:1; 
stroke-linecap:round; stroke-linejoin:round;">
</g>
<g style="fill:#FFFFFF; fill-opacity:1.0; 
stroke:#FFFFFF; stroke-width:0.010000; stroke-opacity:1; 
stroke-linecap:round; stroke-linejoin:round;">
<circle cx="1462024.000000" cy="977646.000000" r="5000.000000" /> 
</g>
<g style="fill:#FFFFFF; fill-opacity:1.0; 
stroke:#FFFFFF; stroke-width:212.000000; stroke-opacity:1; 
stroke-linecap:round; stroke-linejoin:round;">
</g>
<g style="fill:#FFFFFF; fill-opacity:1.0; 
stroke:#FFFFFF; stroke-width:0.010000; stroke-opacity:1; 
stroke-linecap:round; stroke-linejoin:round;">
<circle cx="1462024.000000" cy="952246.000000" r="5000.000000" /> 
</g>
<g style="fill:#FFFFFF; fill-opacity:1.0; 
stroke:#FFFFFF; stroke-width:212.000000; stroke-opacity:1; 
stroke-linecap:round; stroke-linejoin:round;">
</g>
<g style="fill:#FFFFFF; fill-opacity:1.0; 
stroke:#FFFFFF; stroke-width:0.010000; stroke-opacity:1; 
stroke-linecap:round; stroke-linejoin:round;">
<circle cx="1409700.000000" cy="772160.000000" r="5000.000000" /> 
</g>
<g style="fill:#FFFFFF; fill-opacity:1.0; 
stroke:#FFFFFF; stroke-width:212.000000; stroke-opacity:1; 
stroke-linecap:round; stroke-linejoin:round;">
</g>
<g style="fill:#FFFFFF; fill-opacity:1.0; 
stroke:#FFFFFF; stroke-width:0.010000; stroke-opacity:1; 
stroke-linecap:round; stroke-linejoin:round;">
<circle cx="1409700.000000" cy="797560.000000" r="5000.000000" /> 
</g>
<g style="fill:#FFFFFF; fill-opacity:1.0; 
stroke:#FFFFFF; stroke-width:212.000000; stroke-opacity:1; 
stroke-linecap:round; stroke-linejoin:round;">
</g>
<g style="fill:#FFFFFF; fill-opacity:1.0; 
stroke:#FFFFFF; stroke-width:0.010000; stroke-opacity:1; 
stroke-linecap:round; stroke-linejoin:round;">
<circle cx="1409700.000000" cy="822960.000000" r="5000.000000" /> 
</g>
<g style="fill:#FFFFFF; fill-opacity:1.0; 
stroke:#FFFFFF; stroke-width:212.000000; stroke-opacity:1; 
stroke-linecap:round; stroke-linejoin:round;">
</g>
<g style="fill:#FFFFFF; fill-opacity:1.0; 
stroke:#FFFFFF; stroke-width:0.010000; stroke-opacity:1; 
stroke-linecap:round; stroke-linejoin:round;">
<circle cx="1409700.000000" cy="848360.000000" r="5000.000000" /> 
</g>
<g style="fill:#FFFFFF; fill-opacity:1.0; 
stroke:#FFFFFF; stroke-width:212.000000; stroke-opacity:1; 
stroke-linecap:round; stroke-linejoin:round;">
</g>
<g style="fill:#FFFFFF; fill-opacity:1.0; 
stroke:#FFFFFF; stroke-width:0.010000; stroke-opacity:1; 
stroke-linecap:round; stroke-linejoin:round;">
<circle cx="1409700.000000" cy="873760.000000" r="5000.000000" /> 
</g>
<g style="fill:#FFFFFF; fill-opacity:1.0; 
stroke:#FFFFFF; stroke-width:212.000000; stroke-opacity:1; 
stroke-linecap:round; stroke-linejoin:round;">
</g>
<g style="fill:#FFFFFF; fill-opacity:1.0; 
stroke:#FFFFFF; stroke-width:0.010000; stroke-opacity:1; 
stroke-linecap:round; stroke-linejoin:round;">
<circle cx="1409700.000000" cy="899160.000000" r="5000.000000" /> 
</g>
<g style="fill:#FFFFFF; fill-opacity:1.0; 
stroke:#FFFFFF; stroke-width:212.000000; stroke-opacity:1; 
stroke-linecap:round; stroke-linejoin:round;">
</g>
<g style="fill:#FFFFFF; fill-opacity:1.0; 
stroke:#FFFFFF; stroke-width:0.010000; stroke-opacity:1; 
stroke-linecap:round; stroke-linejoin:round;">
<circle cx="1734820.000000" cy="815340.000000" r="4750.000000" /> 
</g>
<g style="fill:#FFFFFF; fill-opacity:1.0; 
stroke:#FFFFFF; stroke-width:212.000000; stroke-opacity:1; 
stroke-linecap:round; stroke-linejoin:round;">
</g>
<g style="fill:#FFFFFF; fill-opacity:1.0; 
stroke:#FFFFFF; stroke-width:0.010000; stroke-opacity:1; 
stroke-linecap:round; stroke-linejoin:round;">
<circle cx="1734820.000000" cy="840340.000000" r="4750.000000" /> 
</g>
<g style="fill:#FFFFFF; fill-opacity:1.0; 
stroke:#FFFFFF; stroke-width:212.000000; stroke-opacity:1; 
stroke-linecap:round; stroke-linejoin:round;">
</g>
<g style="fill:#FFFFFF; fill-opacity:1.0; 
stroke:#FFFFFF; stroke-width:0.010000; stroke-opacity:1; 
stroke-linecap:round; stroke-linejoin:round;">
<circle cx="1754820.000000" cy="840340.000000" r="4750.000000" /> 
</g>
<g style="fill:#FFFFFF; fill-opacity:1.0; 
stroke:#FFFFFF; stroke-width:212.000000; stroke-opacity:1; 
stroke-linecap:round; stroke-linejoin:round;">
</g>
<g style="fill:#FFFFFF; fill-opacity:1.0; 
stroke:#FFFFFF; stroke-width:0.010000; stroke-opacity:1; 
stroke-linecap:round; stroke-linejoin:round;">
<circle cx="1754820.000000" cy="815340.000000" r="4750.000000" /> 
</g>
<g style="fill:#FFFFFF; fill-opacity:1.0; 
stroke:#FFFFFF; stroke-width:212.000000; stroke-opacity:1; 
stroke-linecap:round; stroke-linejoin:round;">
</g>
<g style="fill:#FFFFFF; fill-opacity:1.0; 
stroke:#FFFFFF; stroke-width:0.010000; stroke-opacity:1; 
stroke-linecap:round; stroke-linejoin:round;">
<circle cx="1783420.000000" cy="767840.000000" r="11500.000000" /> 
</g>
<g style="fill:#FFFFFF; fill-opacity:1.0; 
stroke:#FFFFFF; stroke-width:212.000000; stroke-opacity:1; 
stroke-linecap:round; stroke-linejoin:round;">
</g>
<g style="fill:#FFFFFF; fill-opacity:1.0; 
stroke:#FFFFFF; stroke-width:0.010000; stroke-opacity:1; 
stroke-linecap:round; stroke-linejoin:round;">
<circle cx="1783420.000000" cy="887840.000000" r="11500.000000" /> 
</g>
<g style="fill:#FFFFFF; fill-opacity:1.0; 
stroke:#FFFFFF; stroke-width:212.000000; stroke-opacity:1; 
stroke-linecap:round; stroke-linejoin:round;">
</g>
<g style="fill:#000000; fill-opacity:1.0; 
stroke:#000000; stroke-width:212.000000; stroke-opacity:1; 
stroke-linecap:round; stroke-linejoin:round;">
</g> 
</svg>
