<?xml version="1.0" standalone="no"?>
 <!DOCTYPE svg PUBLIC "-//W3C//DTD SVG 1.1//EN" 
 "http://www.w3.org/Graphics/SVG/1.1/DTD/svg11.dtd"> 
<svg
  xmlns:svg="http://www.w3.org/2000/svg"
  xmlns="http://www.w3.org/2000/svg"
  xmlns:xlink="http://www.w3.org/1999/xlink"
  version="1.1"
  width="297.0022mm" height="210.0072mm" viewBox="0.0000 0.0000 297.0022 210.0072">
<title>SVG Image created as t1-B_Cu.svg date 2024/04/11 09:22:00 </title>
  <desc>Image generated by PCBNEW </desc>
<g style="fill:#000000; fill-opacity:1.0000;stroke:#000000; stroke-opacity:1.0000;
stroke-linecap:round; stroke-linejoin:round;"
 transform="translate(0 0) scale(1 1)">
<path style="fill:#000000; fill-opacity:1.0000; stroke:none;fill-rule:evenodd;"
d="M 137.1500,78.6500
137.1500,80.3500
135.4500,80.3500
135.4500,78.6500
Z" /> 
</g>
<g style="fill:#000000; fill-opacity:1.0000; stroke:none;">
<circle cx="136.3000" cy="76.9600" r="0.8500" /> 
<circle cx="136.3000" cy="74.4200" r="0.8500" /> 
<circle cx="136.3000" cy="71.8800" r="0.8500" /> 
<circle cx="136.3000" cy="69.3400" r="0.8500" /> 
<path style="fill:#000000; fill-opacity:1.0000; stroke:none;fill-rule:evenodd;"
d="M 151.0420,96.1000
151.0420,94.4000
152.7420,94.4000
152.7420,96.1000
Z" /> 
<circle cx="154.4320" cy="95.2500" r="0.8500" /> 
<circle cx="151.8920" cy="97.7900" r="0.8500" /> 
<circle cx="154.4320" cy="97.7900" r="0.8500" /> 
<path style="fill:#000000; fill-opacity:1.0000; stroke:none;fill-rule:evenodd;"
d="M 141.9724,98.6146
140.2724,98.6146
140.2724,96.9146
141.9724,96.9146
Z" /> 
<circle cx="141.1224" cy="95.2246" r="0.8500" /> 
<circle cx="143.6624" cy="97.7646" r="0.8500" /> 
<circle cx="143.6624" cy="95.2246" r="0.8500" /> 
<circle cx="146.2024" cy="97.7646" r="0.8500" /> 
<circle cx="146.2024" cy="95.2246" r="0.8500" /> 
<path style="fill:#000000; fill-opacity:1.0000; stroke:none;fill-rule:evenodd;"
d="M 140.1200,78.0660
140.1200,76.3660
141.8200,76.3660
141.8200,78.0660
Z" /> 
<circle cx="140.9700" cy="79.7560" r="0.8500" /> 
<circle cx="140.9700" cy="82.2960" r="0.8500" /> 
<circle cx="140.9700" cy="84.8360" r="0.8500" /> 
<circle cx="140.9700" cy="87.3760" r="0.8500" /> 
<circle cx="140.9700" cy="89.9160" r="0.8500" /> 
<path style="fill:#000000; fill-opacity:1.0000; stroke:none;fill-rule:evenodd;"
d="M 174.2820,82.3340
172.6820,82.3340
172.6820,80.7340
174.2820,80.7340
Z" /> 
<circle cx="173.4820" cy="84.0340" r="0.8000" /> 
</g>
<g style="fill:#000000; fill-opacity:1.0000; stroke:none;">
<circle cx="175.4820" cy="84.0340" r="0.8000" /> 
</g>
<g style="fill:#000000; fill-opacity:1.0000; stroke:none;">
<circle cx="175.4820" cy="81.5340" r="0.8000" /> 
</g>
<g style="fill:#000000; fill-opacity:1.0000; stroke:none;">
<circle cx="178.3420" cy="76.7840" r="2.0000" /> 
</g>
<g style="fill:#000000; fill-opacity:1.0000; stroke:none;">
<circle cx="178.3420" cy="88.7840" r="2.0000" /> 
</g>
<g style="fill:#000000; fill-opacity:1.0000; stroke:none;">
<circle cx="167.7924" cy="80.1624" r="0.5000" /> 
</g>
<g style="fill:#000000; fill-opacity:1.0000; stroke:none;">
<circle cx="173.4820" cy="78.4860" r="0.5000" /> 
</g>
<g style="fill:#000000; fill-opacity:1.0000; stroke:none;">
<circle cx="179.0700" cy="80.7720" r="0.5000" /> 
</g>
<g style="fill:#000000; fill-opacity:1.0000; stroke:none;">
<circle cx="179.0700" cy="84.0740" r="0.5000" /> 
</g>
<g style="fill:#000000; fill-opacity:1.0000; stroke:none;">
<circle cx="164.2872" cy="70.0532" r="0.5000" /> 
</g>
<g style="fill:#000000; fill-opacity:1.0000; stroke:none;">
<circle cx="153.4922" cy="70.0278" r="0.5000" /> 
</g>
<g style="fill:#000000; fill-opacity:1.0000; stroke:none;">
<circle cx="155.9560" cy="84.5820" r="0.5000" /> 
</g>
<g style="fill:#000000; fill-opacity:1.0000; stroke:none;">
<circle cx="154.3558" cy="75.7936" r="0.4000" /> 
</g>
<g style="fill:#000000; fill-opacity:1.0000; stroke:none;">
<circle cx="123.1138" cy="73.3298" r="0.4000" /> 
</g>
<g style="fill:#000000; fill-opacity:1.0000; stroke:none;">
<circle cx="129.1082" cy="77.9526" r="0.4000" /> 
</g>
<g style="fill:#000000; fill-opacity:1.0000; stroke:none;">
<circle cx="167.2590" cy="97.9424" r="0.4000" /> 
</g>
<g style="fill:#000000; fill-opacity:1.0000; stroke:none;">
<circle cx="155.6766" cy="83.0580" r="0.4000" /> 
</g>
<g style="fill:#000000; fill-opacity:1.0000; stroke:none;">
<circle cx="163.8300" cy="76.7588" r="0.4000" /> 
</g>
<g style="fill:#000000; fill-opacity:1.0000; stroke:none;">
<circle cx="125.3490" cy="90.9066" r="0.4000" /> 
</g>
<g style="fill:#000000; fill-opacity:1.0000; stroke:none;">
<circle cx="130.8100" cy="95.3516" r="0.4000" /> 
</g>
<g style="fill:#000000; fill-opacity:1.0000; stroke:none;">
<circle cx="129.0828" cy="73.3806" r="0.4000" /> 
</g>
<g style="fill:#000000; fill-opacity:1.0000; stroke:none;">
<circle cx="144.8308" cy="85.0646" r="0.4000" /> 
</g>
<g style="fill:#000000; fill-opacity:1.0000; stroke:none;">
<circle cx="123.0884" cy="78.1304" r="0.4000" /> 
</g>
<g style="fill:#000000; fill-opacity:1.0000; stroke:none;">
<circle cx="159.8422" cy="98.6028" r="0.4000" /> 
</g>
<g style="fill:#000000; fill-opacity:1.0000; stroke:none;">
<circle cx="154.5336" cy="83.2866" r="0.4000" /> 
</g>
<g style="fill:#000000; fill-opacity:1.0000; stroke:none;">
<circle cx="146.0246" cy="69.2404" r="0.4000" /> 
</g>
<g style="fill:#000000; fill-opacity:1.0000; stroke:none;">
<circle cx="159.1818" cy="81.9658" r="0.4000" /> 
</g>
<g style="fill:#000000; fill-opacity:1.0000; stroke:none;">
<circle cx="130.8354" cy="88.9000" r="0.4000" /> 
</g>
<g style="fill:#000000; fill-opacity:1.0000; stroke:none;">
<circle cx="129.1082" cy="84.3026" r="0.4000" /> 
</g>
<g style="fill:#000000; fill-opacity:1.0000; stroke:none;">
<circle cx="121.5644" cy="89.3318" r="0.4000" /> 
</g>
<g style="fill:#000000; fill-opacity:1.0000; stroke:none;">
<circle cx="123.1392" cy="84.4042" r="0.4000" /> 
</g>
<g style="fill:#000000; fill-opacity:1.0000; stroke:none;">
<circle cx="162.7632" cy="70.0024" r="0.4000" /> 
</g>
<g style="fill:#000000; fill-opacity:1.0000; stroke:none;">
<circle cx="155.0416" cy="70.0786" r="0.4000" /> 
</g>
<g style="fill:#000000; fill-opacity:1.0000; stroke:none;">
<circle cx="160.6804" cy="81.1530" r="0.4000" /> 
</g>
<g style="fill:#000000; fill-opacity:1.0000; stroke:none;">
<circle cx="166.8780" cy="88.7730" r="0.4000" /> 
</g>
<g style="fill:#000000; fill-opacity:1.0000; stroke:none;">
<circle cx="160.5534" cy="86.2330" r="0.4000" /> 
</g>
<g style="fill:#000000; fill-opacity:1.0000; stroke:none;">
<circle cx="167.2336" cy="93.5228" r="0.4000" /> 
</g>
<g style="fill:#000000; fill-opacity:1.0000; stroke:none;">
<circle cx="165.0492" cy="90.4494" r="0.4000" /> 
</g>
<g style="fill:#000000; fill-opacity:1.0000; stroke:none;">
<circle cx="165.7350" cy="80.1624" r="0.4000" /> 
</g>
<g style="fill:#000000; fill-opacity:1.0000; stroke:none;">
<circle cx="170.4594" cy="80.4164" r="0.4000" /> 
</g>
<g style="fill:#000000; fill-opacity:1.0000; stroke:none;">
<circle cx="172.3898" cy="88.1380" r="0.4000" /> 
</g>
<g style="fill:#000000; fill-opacity:1.0000; stroke:none;">
<circle cx="170.5610" cy="90.6780" r="0.4000" /> 
</g>
<g style="fill:#000000; fill-opacity:1.0000; stroke:none;">
<circle cx="156.8958" cy="87.5538" r="0.4000" /> 
</g>
<g style="fill:#000000; fill-opacity:1.0000; stroke:none;">
<circle cx="156.1592" cy="88.3920" r="0.4000" /> 
</g>
<g style="fill:#000000; fill-opacity:1.0000; stroke:none;">
<circle cx="156.2862" cy="91.6940" r="0.4000" /> 
</g>
<g style="fill:#000000; fill-opacity:1.0000; stroke:none;">
<circle cx="155.0670" cy="88.5952" r="0.4000" /> 
</g>
<g style="fill:#000000; fill-opacity:1.0000; stroke:none;">
<circle cx="150.1394" cy="81.8896" r="0.4000" /> 
</g>
<g style="fill:#000000; fill-opacity:1.0000; stroke:none;">
<circle cx="152.0698" cy="87.2236" r="0.4000" /> 
</g>
<g style="fill:#000000; fill-opacity:1.0000; stroke:none;">
<circle cx="152.6794" cy="88.3158" r="0.4000" /> 
</g>
<g style="fill:#000000; fill-opacity:1.0000; stroke:none;">
<circle cx="151.6891" cy="85.8520" r="0.4000" /> 
</g>
<g style="fill:#000000; fill-opacity:1.0000; stroke:none;">
<circle cx="148.5951" cy="85.3897" r="0.4000" /> 
</g>
<g style="fill:#000000; fill-opacity:1.0000; stroke:none;">
<circle cx="155.9560" cy="85.7758" r="0.4000" /> 
</g>
<g style="fill:none; 
stroke:#000000; stroke-width:0.5080; stroke-opacity:1; 
stroke-linecap:round; stroke-linejoin:round;">
<path d="M164.2364 70.0024
L164.2872 70.0532
" />
<path d="M162.7632 70.0024
L164.2364 70.0024
" />
<path d="M154.9908 70.0278
L155.0416 70.0786
" />
<path d="M153.4922 70.0278
L154.9908 70.0278
" />
<path d="M178.3080 81.5340
L179.0700 80.7720
" />
<path d="M175.4820 81.5340
L178.3080 81.5340
" />
<path d="M165.7350 80.1624
L167.7924 80.1624
" />
<path d="M173.4820 81.5340
L173.4820 78.4860
" />
<path d="M175.4820 84.0340
L179.0300 84.0340
" />
<path d="M179.0300 84.0340
L179.0700 84.0740
" />
<path d="M148.8928 71.8800
L156.8958 79.8830
" />
<path d="M136.3000 71.8800
L148.8928 71.8800
" />
<path d="M156.8958 79.8830
L156.8958 87.5538
" />
<path d="M136.3000 74.4200
L149.6294 74.4200
" />
<path d="M153.7208 78.5114
L153.7208 85.9536
" />
<path d="M153.7208 85.9536
L156.1592 88.3920
" />
<path d="M149.6294 74.4200
L153.7208 78.5114
" />
<path d="M156.2862 91.6940
L145.3335 91.6940
" />
<path d="M145.3081 91.7194
L138.9380 91.7194
" />
<path d="M145.3335 91.6940
L145.3081 91.7194
" />
<path d="M138.3030 77.7494
L137.5136 76.9600
" />
<path d="M137.5136 76.9600
L136.3000 76.9600
" />
<path d="M138.9380 91.7194
L138.3030 91.0844
" />
<path d="M138.3030 91.0844
L138.3030 77.7494
" />
<path d="M134.2898 78.2066
L134.2898 77.1107
" />
<path d="M135.5832 79.5000
L134.2898 78.2066
" />
<path d="M136.3000 79.5000
L135.5832 79.5000
" />
<path d="M152.8826 86.4108
L155.0670 88.5952
" />
<path d="M152.8826 78.8924
L152.8826 86.4108
" />
<path d="M135.6969 75.7036
L149.6938 75.7036
" />
<path d="M149.6938 75.7036
L152.8826 78.8924
" />
<path d="M134.2898 77.1107
L135.6969 75.7036
" />
<path d="M148.2598 81.8896
L150.1394 81.8896
" />
<path d="M147.8534 82.2960
L148.2598 81.8896
" />
<path d="M140.9700 82.2960
L147.8534 82.2960
" />
<path d="M141.1224 87.2236
L140.9700 87.3760
" />
<path d="M152.0698 87.2236
L141.1224 87.2236
" />
<path d="M147.6756 88.3158
L146.0754 89.9160
" />
<path d="M152.6794 88.3158
L147.6756 88.3158
" />
<path d="M146.0754 89.9160
L140.9700 89.9160
" />
<path d="M151.2891 86.2520
L142.3860 86.2520
" />
<path d="M142.3860 86.2520
L140.9700 84.8360
" />
<path d="M151.6891 85.8520
L151.2891 86.2520
" />
<path d="M146.7578 83.5524
L148.5951 85.3897
" />
<path d="M139.4460 82.6315
L140.3669 83.5524
" />
<path d="M140.3669 83.5524
L146.7578 83.5524
" />
<path d="M139.4460 81.2800
L139.4460 82.6315
" />
<path d="M140.9700 79.7560
L139.4460 81.2800
" />
</g>
<g style="fill:none; 
stroke:#000000; stroke-width:0.3810; stroke-opacity:1; 
stroke-linecap:round; stroke-linejoin:round;">
<path d="M155.9560 84.5820
L155.9560 85.7758
" />
</g>
<g style="fill:#FFFFFF; fill-opacity:1.0000; stroke:none;">
<circle cx="154.3558" cy="75.7936" r="0.2000" /> 
</g>
<g style="fill:#FFFFFF; fill-opacity:1.0000; stroke:none;">
<circle cx="123.1138" cy="73.3298" r="0.2000" /> 
</g>
<g style="fill:#FFFFFF; fill-opacity:1.0000; stroke:none;">
<circle cx="129.1082" cy="77.9526" r="0.2000" /> 
</g>
<g style="fill:#FFFFFF; fill-opacity:1.0000; stroke:none;">
<circle cx="167.2590" cy="97.9424" r="0.2000" /> 
</g>
<g style="fill:#FFFFFF; fill-opacity:1.0000; stroke:none;">
<circle cx="155.6766" cy="83.0580" r="0.2000" /> 
</g>
<g style="fill:#FFFFFF; fill-opacity:1.0000; stroke:none;">
<circle cx="163.8300" cy="76.7588" r="0.2000" /> 
</g>
<g style="fill:#FFFFFF; fill-opacity:1.0000; stroke:none;">
<circle cx="125.3490" cy="90.9066" r="0.2000" /> 
</g>
<g style="fill:#FFFFFF; fill-opacity:1.0000; stroke:none;">
<circle cx="130.8100" cy="95.3516" r="0.2000" /> 
</g>
<g style="fill:#FFFFFF; fill-opacity:1.0000; stroke:none;">
<circle cx="129.0828" cy="73.3806" r="0.2000" /> 
</g>
<g style="fill:#FFFFFF; fill-opacity:1.0000; stroke:none;">
<circle cx="144.8308" cy="85.0646" r="0.2000" /> 
</g>
<g style="fill:#FFFFFF; fill-opacity:1.0000; stroke:none;">
<circle cx="123.0884" cy="78.1304" r="0.2000" /> 
</g>
<g style="fill:#FFFFFF; fill-opacity:1.0000; stroke:none;">
<circle cx="159.8422" cy="98.6028" r="0.2000" /> 
</g>
<g style="fill:#FFFFFF; fill-opacity:1.0000; stroke:none;">
<circle cx="154.5336" cy="83.2866" r="0.2000" /> 
</g>
<g style="fill:#FFFFFF; fill-opacity:1.0000; stroke:none;">
<circle cx="146.0246" cy="69.2404" r="0.2000" /> 
</g>
<g style="fill:#FFFFFF; fill-opacity:1.0000; stroke:none;">
<circle cx="159.1818" cy="81.9658" r="0.2000" /> 
</g>
<g style="fill:#FFFFFF; fill-opacity:1.0000; stroke:none;">
<circle cx="130.8354" cy="88.9000" r="0.2000" /> 
</g>
<g style="fill:#FFFFFF; fill-opacity:1.0000; stroke:none;">
<circle cx="129.1082" cy="84.3026" r="0.2000" /> 
</g>
<g style="fill:#FFFFFF; fill-opacity:1.0000; stroke:none;">
<circle cx="121.5644" cy="89.3318" r="0.2000" /> 
</g>
<g style="fill:#FFFFFF; fill-opacity:1.0000; stroke:none;">
<circle cx="123.1392" cy="84.4042" r="0.2000" /> 
</g>
<g style="fill:#FFFFFF; fill-opacity:1.0000; stroke:none;">
<circle cx="162.7632" cy="70.0024" r="0.2000" /> 
</g>
<g style="fill:#FFFFFF; fill-opacity:1.0000; stroke:none;">
<circle cx="155.0416" cy="70.0786" r="0.2000" /> 
</g>
<g style="fill:#FFFFFF; fill-opacity:1.0000; stroke:none;">
<circle cx="160.6804" cy="81.1530" r="0.2000" /> 
</g>
<g style="fill:#FFFFFF; fill-opacity:1.0000; stroke:none;">
<circle cx="166.8780" cy="88.7730" r="0.2000" /> 
</g>
<g style="fill:#FFFFFF; fill-opacity:1.0000; stroke:none;">
<circle cx="160.5534" cy="86.2330" r="0.2000" /> 
</g>
<g style="fill:#FFFFFF; fill-opacity:1.0000; stroke:none;">
<circle cx="167.2336" cy="93.5228" r="0.2000" /> 
</g>
<g style="fill:#FFFFFF; fill-opacity:1.0000; stroke:none;">
<circle cx="165.0492" cy="90.4494" r="0.2000" /> 
</g>
<g style="fill:#FFFFFF; fill-opacity:1.0000; stroke:none;">
<circle cx="165.7350" cy="80.1624" r="0.2000" /> 
</g>
<g style="fill:#FFFFFF; fill-opacity:1.0000; stroke:none;">
<circle cx="170.4594" cy="80.4164" r="0.2000" /> 
</g>
<g style="fill:#FFFFFF; fill-opacity:1.0000; stroke:none;">
<circle cx="172.3898" cy="88.1380" r="0.2000" /> 
</g>
<g style="fill:#FFFFFF; fill-opacity:1.0000; stroke:none;">
<circle cx="170.5610" cy="90.6780" r="0.2000" /> 
</g>
<g style="fill:#FFFFFF; fill-opacity:1.0000; stroke:none;">
<circle cx="156.8958" cy="87.5538" r="0.2000" /> 
</g>
<g style="fill:#FFFFFF; fill-opacity:1.0000; stroke:none;">
<circle cx="156.1592" cy="88.3920" r="0.2000" /> 
</g>
<g style="fill:#FFFFFF; fill-opacity:1.0000; stroke:none;">
<circle cx="156.2862" cy="91.6940" r="0.2000" /> 
</g>
<g style="fill:#FFFFFF; fill-opacity:1.0000; stroke:none;">
<circle cx="155.0670" cy="88.5952" r="0.2000" /> 
</g>
<g style="fill:#FFFFFF; fill-opacity:1.0000; stroke:none;">
<circle cx="150.1394" cy="81.8896" r="0.2000" /> 
</g>
<g style="fill:#FFFFFF; fill-opacity:1.0000; stroke:none;">
<circle cx="152.0698" cy="87.2236" r="0.2000" /> 
</g>
<g style="fill:#FFFFFF; fill-opacity:1.0000; stroke:none;">
<circle cx="152.6794" cy="88.3158" r="0.2000" /> 
</g>
<g style="fill:#FFFFFF; fill-opacity:1.0000; stroke:none;">
<circle cx="151.6891" cy="85.8520" r="0.2000" /> 
</g>
<g style="fill:#FFFFFF; fill-opacity:1.0000; stroke:none;">
<circle cx="148.5951" cy="85.3897" r="0.2000" /> 
</g>
<g style="fill:#FFFFFF; fill-opacity:1.0000; stroke:none;">
<circle cx="155.9560" cy="85.7758" r="0.2000" /> 
</g>
<g style="fill:#FFFFFF; fill-opacity:1.0000; stroke:none;">
<circle cx="177.0000" cy="97.0000" r="1.3500" /> 
</g>
<g style="fill:#FFFFFF; fill-opacity:1.0000; stroke:none;">
<circle cx="123.0000" cy="97.0000" r="1.3500" /> 
</g>
<g style="fill:#FFFFFF; fill-opacity:1.0000; stroke:none;">
<circle cx="123.0000" cy="69.5000" r="1.3500" /> 
</g>
<g style="fill:#FFFFFF; fill-opacity:1.0000; stroke:none;">
<circle cx="177.0000" cy="69.5000" r="1.3500" /> 
</g>
<g style="fill:none; 
stroke:#FFFFFF; stroke-width:1.5000; stroke-opacity:1; 
stroke-linecap:round; stroke-linejoin:round;">
<path d="M123.2000 81.4500
L123.2000 80.9500
" />
</g>
<g style="fill:#FFFFFF; fill-opacity:1.0000; stroke:none;">
<circle cx="127.6000" cy="81.2000" r="1.0000" /> 
</g>
<g style="fill:#FFFFFF; fill-opacity:1.0000; stroke:none;">
<circle cx="136.3000" cy="79.5000" r="0.5000" /> 
</g>
<g style="fill:#FFFFFF; fill-opacity:1.0000; stroke:none;">
<circle cx="136.3000" cy="76.9600" r="0.5000" /> 
</g>
<g style="fill:#FFFFFF; fill-opacity:1.0000; stroke:none;">
<circle cx="136.3000" cy="74.4200" r="0.5000" /> 
</g>
<g style="fill:#FFFFFF; fill-opacity:1.0000; stroke:none;">
<circle cx="136.3000" cy="71.8800" r="0.5000" /> 
</g>
<g style="fill:#FFFFFF; fill-opacity:1.0000; stroke:none;">
<circle cx="136.3000" cy="69.3400" r="0.5000" /> 
</g>
<g style="fill:#FFFFFF; fill-opacity:1.0000; stroke:none;">
<circle cx="151.8920" cy="95.2500" r="0.5000" /> 
</g>
<g style="fill:#FFFFFF; fill-opacity:1.0000; stroke:none;">
<circle cx="154.4320" cy="95.2500" r="0.5000" /> 
</g>
<g style="fill:#FFFFFF; fill-opacity:1.0000; stroke:none;">
<circle cx="151.8920" cy="97.7900" r="0.5000" /> 
</g>
<g style="fill:#FFFFFF; fill-opacity:1.0000; stroke:none;">
<circle cx="154.4320" cy="97.7900" r="0.5000" /> 
</g>
<g style="fill:#FFFFFF; fill-opacity:1.0000; stroke:none;">
<circle cx="141.1224" cy="97.7646" r="0.5000" /> 
</g>
<g style="fill:#FFFFFF; fill-opacity:1.0000; stroke:none;">
<circle cx="141.1224" cy="95.2246" r="0.5000" /> 
</g>
<g style="fill:#FFFFFF; fill-opacity:1.0000; stroke:none;">
<circle cx="143.6624" cy="97.7646" r="0.5000" /> 
</g>
<g style="fill:#FFFFFF; fill-opacity:1.0000; stroke:none;">
<circle cx="143.6624" cy="95.2246" r="0.5000" /> 
</g>
<g style="fill:#FFFFFF; fill-opacity:1.0000; stroke:none;">
<circle cx="146.2024" cy="97.7646" r="0.5000" /> 
</g>
<g style="fill:#FFFFFF; fill-opacity:1.0000; stroke:none;">
<circle cx="146.2024" cy="95.2246" r="0.5000" /> 
</g>
<g style="fill:#FFFFFF; fill-opacity:1.0000; stroke:none;">
<circle cx="140.9700" cy="77.2160" r="0.5000" /> 
</g>
<g style="fill:#FFFFFF; fill-opacity:1.0000; stroke:none;">
<circle cx="140.9700" cy="79.7560" r="0.5000" /> 
</g>
<g style="fill:#FFFFFF; fill-opacity:1.0000; stroke:none;">
<circle cx="140.9700" cy="82.2960" r="0.5000" /> 
</g>
<g style="fill:#FFFFFF; fill-opacity:1.0000; stroke:none;">
<circle cx="140.9700" cy="84.8360" r="0.5000" /> 
</g>
<g style="fill:#FFFFFF; fill-opacity:1.0000; stroke:none;">
<circle cx="140.9700" cy="87.3760" r="0.5000" /> 
</g>
<g style="fill:#FFFFFF; fill-opacity:1.0000; stroke:none;">
<circle cx="140.9700" cy="89.9160" r="0.5000" /> 
</g>
<g style="fill:#FFFFFF; fill-opacity:1.0000; stroke:none;">
<circle cx="173.4820" cy="81.5340" r="0.4750" /> 
</g>
<g style="fill:#FFFFFF; fill-opacity:1.0000; stroke:none;">
<circle cx="173.4820" cy="84.0340" r="0.4750" /> 
</g>
<g style="fill:#FFFFFF; fill-opacity:1.0000; stroke:none;">
<circle cx="175.4820" cy="84.0340" r="0.4750" /> 
</g>
<g style="fill:#FFFFFF; fill-opacity:1.0000; stroke:none;">
<circle cx="175.4820" cy="81.5340" r="0.4750" /> 
</g>
<g style="fill:#FFFFFF; fill-opacity:1.0000; stroke:none;">
<circle cx="178.3420" cy="76.7840" r="1.1500" /> 
</g>
<g style="fill:#FFFFFF; fill-opacity:1.0000; stroke:none;">
<circle cx="178.3420" cy="88.7840" r="1.1500" /> 
</g> 
</svg>
