<?xml version="1.0" standalone="no"?>
 <!DOCTYPE svg PUBLIC "-//W3C//DTD SVG 1.1//EN" 
 "http://www.w3.org/Graphics/SVG/1.1/DTD/svg11.dtd"> 
<svg
  xmlns:svg="http://www.w3.org/2000/svg"
  xmlns="http://www.w3.org/2000/svg"
  xmlns:xlink="http://www.w3.org/1999/xlink"
  version="1.1"
  width="29.700220cm" height="21.000720cm" viewBox="0 0 297002200 210007200">
<title>SVG Picture created as t1-B_Fab.svg date 2022/09/27 14:34:11 </title>
  <desc>Picture generated by PCBNEW </desc>
<g style="fill:#000000; fill-opacity:1.000000;stroke:#000000; stroke-opacity:1.000000;
stroke-linecap:round; stroke-linejoin:round;"
 transform="translate(0 0) scale(1 1)">
</g>
<g style="fill:#000000; fill-opacity:0.0; 
stroke:#000000; stroke-width:0.000000; stroke-opacity:1; 
stroke-linecap:round; stroke-linejoin:round;">
</g>
<g style="fill:#000000; fill-opacity:0.0; 
stroke:#000000; stroke-width:150000.000000; stroke-opacity:1; 
stroke-linecap:round; stroke-linejoin:round;">
<text x="165836600.000000" y="78833600.000000"
transform="scale(-1 1) translate(-331673200.000000 0)"
textLength="6662143.000000" font-size="1333333.000000" lengthAdjust="spacingAndGlyphs"
text-anchor="middle" opacity="0">TestPoint</text>
<g class="stroked-text"><desc>TestPoint</desc>
<path d="M169169933 77785980
L168598504 77785980
" />
<path d="M168884219 78785980
L168884219 77785980
" />
<path d="M167884219 78738361
L167979457 78785980
L168169933 78785980
L168265171 78738361
L168312790 78643123
L168312790 78262171
L168265171 78166933
L168169933 78119314
L167979457 78119314
L167884219 78166933
L167836600 78262171
L167836600 78357409
L168312790 78452647
" />
<path d="M167455647 78738361
L167360409 78785980
L167169933 78785980
L167074695 78738361
L167027076 78643123
L167027076 78595504
L167074695 78500266
L167169933 78452647
L167312790 78452647
L167408028 78405028
L167455647 78309790
L167455647 78262171
L167408028 78166933
L167312790 78119314
L167169933 78119314
L167074695 78166933
" />
<path d="M166741361 78119314
L166360409 78119314
" />
<path d="M166598504 77785980
L166598504 78643123
L166550885 78738361
L166455647 78785980
L166360409 78785980
" />
<path d="M166027076 78785980
L166027076 77785980
L165646123 77785980
L165550885 77833600
L165503266 77881219
L165455647 77976457
L165455647 78119314
L165503266 78214552
L165550885 78262171
L165646123 78309790
L166027076 78309790
" />
<path d="M164884219 78785980
L164979457 78738361
L165027076 78690742
L165074695 78595504
L165074695 78309790
L165027076 78214552
L164979457 78166933
L164884219 78119314
L164741361 78119314
L164646123 78166933
L164598504 78214552
L164550885 78309790
L164550885 78595504
L164598504 78690742
L164646123 78738361
L164741361 78785980
L164884219 78785980
" />
<path d="M164122314 78785980
L164122314 78119314
" />
<path d="M164122314 77785980
L164169933 77833600
L164122314 77881219
L164074695 77833600
L164122314 77785980
L164122314 77881219
" />
<path d="M163646123 78119314
L163646123 78785980
" />
<path d="M163646123 78214552
L163598504 78166933
L163503266 78119314
L163360409 78119314
L163265171 78166933
L163217552 78262171
L163217552 78785980
" />
<path d="M162884219 78119314
L162503266 78119314
" />
<path d="M162741361 77785980
L162741361 78643123
L162693742 78738361
L162598504 78785980
L162503266 78785980
" />
</g><text x="167792400.000000" y="82112400.000000"
transform="scale(-1 1) translate(-335584800.000000 0)"
textLength="2519286.000000" font-size="1333333.000000" lengthAdjust="spacingAndGlyphs"
text-anchor="middle" opacity="0">TP2</text>
<g class="stroked-text"><desc>TP2</desc>
<path d="M169054304 81064780
L168482876 81064780
" />
<path d="M168768590 82064780
L168768590 81064780
" />
<path d="M168149542 82064780
L168149542 81064780
L167768590 81064780
L167673352 81112400
L167625733 81160019
L167578114 81255257
L167578114 81398114
L167625733 81493352
L167673352 81540971
L167768590 81588590
L168149542 81588590
" />
<path d="M167197161 81160019
L167149542 81112400
L167054304 81064780
L166816209 81064780
L166720971 81112400
L166673352 81160019
L166625733 81255257
L166625733 81350495
L166673352 81493352
L167244780 82064780
L166625733 82064780
" />
</g><text x="172085000.000000" y="77208000.000000"
transform="scale(-1 1) translate(-344170000.000000 0)"
textLength="6662143.000000" font-size="1333333.000000" lengthAdjust="spacingAndGlyphs"
text-anchor="middle" opacity="0">TestPoint</text>
<g class="stroked-text"><desc>TestPoint</desc>
<path d="M175418333 76160380
L174846904 76160380
" />
<path d="M175132619 77160380
L175132619 76160380
" />
<path d="M174132619 77112761
L174227857 77160380
L174418333 77160380
L174513571 77112761
L174561190 77017523
L174561190 76636571
L174513571 76541333
L174418333 76493714
L174227857 76493714
L174132619 76541333
L174085000 76636571
L174085000 76731809
L174561190 76827047
" />
<path d="M173704047 77112761
L173608809 77160380
L173418333 77160380
L173323095 77112761
L173275476 77017523
L173275476 76969904
L173323095 76874666
L173418333 76827047
L173561190 76827047
L173656428 76779428
L173704047 76684190
L173704047 76636571
L173656428 76541333
L173561190 76493714
L173418333 76493714
L173323095 76541333
" />
<path d="M172989761 76493714
L172608809 76493714
" />
<path d="M172846904 76160380
L172846904 77017523
L172799285 77112761
L172704047 77160380
L172608809 77160380
" />
<path d="M172275476 77160380
L172275476 76160380
L171894523 76160380
L171799285 76208000
L171751666 76255619
L171704047 76350857
L171704047 76493714
L171751666 76588952
L171799285 76636571
L171894523 76684190
L172275476 76684190
" />
<path d="M171132619 77160380
L171227857 77112761
L171275476 77065142
L171323095 76969904
L171323095 76684190
L171275476 76588952
L171227857 76541333
L171132619 76493714
L170989761 76493714
L170894523 76541333
L170846904 76588952
L170799285 76684190
L170799285 76969904
L170846904 77065142
L170894523 77112761
L170989761 77160380
L171132619 77160380
" />
<path d="M170370714 77160380
L170370714 76493714
" />
<path d="M170370714 76160380
L170418333 76208000
L170370714 76255619
L170323095 76208000
L170370714 76160380
L170370714 76255619
" />
<path d="M169894523 76493714
L169894523 77160380
" />
<path d="M169894523 76588952
L169846904 76541333
L169751666 76493714
L169608809 76493714
L169513571 76541333
L169465952 76636571
L169465952 77160380
" />
<path d="M169132619 76493714
L168751666 76493714
" />
<path d="M168989761 76160380
L168989761 77017523
L168942142 77112761
L168846904 77160380
L168751666 77160380
" />
</g><text x="171526200.000000" y="80484600.000000"
transform="scale(-1 1) translate(-343052400.000000 0)"
textLength="2519286.000000" font-size="1333333.000000" lengthAdjust="spacingAndGlyphs"
text-anchor="middle" opacity="0">TP3</text>
<g class="stroked-text"><desc>TP3</desc>
<path d="M172788104 79436980
L172216676 79436980
" />
<path d="M172502390 80436980
L172502390 79436980
" />
<path d="M171883342 80436980
L171883342 79436980
L171502390 79436980
L171407152 79484600
L171359533 79532219
L171311914 79627457
L171311914 79770314
L171359533 79865552
L171407152 79913171
L171502390 79960790
L171883342 79960790
" />
<path d="M170978580 79436980
L170359533 79436980
L170692866 79817933
L170550009 79817933
L170454771 79865552
L170407152 79913171
L170359533 80008409
L170359533 80246504
L170407152 80341742
L170454771 80389361
L170550009 80436980
L170835723 80436980
L170930961 80389361
L170978580 80341742
" />
</g><text x="183997600.000000" y="81145000.000000"
transform="scale(-1 1) translate(-367995200.000000 0)"
textLength="6662143.000000" font-size="1333333.000000" lengthAdjust="spacingAndGlyphs"
text-anchor="middle" opacity="0">TestPoint</text>
<g class="stroked-text"><desc>TestPoint</desc>
<path d="M187330933 80097380
L186759504 80097380
" />
<path d="M187045219 81097380
L187045219 80097380
" />
<path d="M186045219 81049761
L186140457 81097380
L186330933 81097380
L186426171 81049761
L186473790 80954523
L186473790 80573571
L186426171 80478333
L186330933 80430714
L186140457 80430714
L186045219 80478333
L185997600 80573571
L185997600 80668809
L186473790 80764047
" />
<path d="M185616647 81049761
L185521409 81097380
L185330933 81097380
L185235695 81049761
L185188076 80954523
L185188076 80906904
L185235695 80811666
L185330933 80764047
L185473790 80764047
L185569028 80716428
L185616647 80621190
L185616647 80573571
L185569028 80478333
L185473790 80430714
L185330933 80430714
L185235695 80478333
" />
<path d="M184902361 80430714
L184521409 80430714
" />
<path d="M184759504 80097380
L184759504 80954523
L184711885 81049761
L184616647 81097380
L184521409 81097380
" />
<path d="M184188076 81097380
L184188076 80097380
L183807123 80097380
L183711885 80145000
L183664266 80192619
L183616647 80287857
L183616647 80430714
L183664266 80525952
L183711885 80573571
L183807123 80621190
L184188076 80621190
" />
<path d="M183045219 81097380
L183140457 81049761
L183188076 81002142
L183235695 80906904
L183235695 80621190
L183188076 80525952
L183140457 80478333
L183045219 80430714
L182902361 80430714
L182807123 80478333
L182759504 80525952
L182711885 80621190
L182711885 80906904
L182759504 81002142
L182807123 81049761
L182902361 81097380
L183045219 81097380
" />
<path d="M182283314 81097380
L182283314 80430714
" />
<path d="M182283314 80097380
L182330933 80145000
L182283314 80192619
L182235695 80145000
L182283314 80097380
L182283314 80192619
" />
<path d="M181807123 80430714
L181807123 81097380
" />
<path d="M181807123 80525952
L181759504 80478333
L181664266 80430714
L181521409 80430714
L181426171 80478333
L181378552 80573571
L181378552 81097380
" />
<path d="M181045219 80430714
L180664266 80430714
" />
<path d="M180902361 80097380
L180902361 80954523
L180854742 81049761
L180759504 81097380
L180664266 81097380
" />
</g><text x="178968400.000000" y="83075400.000000"
transform="scale(-1 1) translate(-357936800.000000 0)"
textLength="2519286.000000" font-size="1333333.000000" lengthAdjust="spacingAndGlyphs"
text-anchor="middle" opacity="0">TP4</text>
<g class="stroked-text"><desc>TP4</desc>
<path d="M180230304 82027780
L179658876 82027780
" />
<path d="M179944590 83027780
L179944590 82027780
" />
<path d="M179325542 83027780
L179325542 82027780
L178944590 82027780
L178849352 82075400
L178801733 82123019
L178754114 82218257
L178754114 82361114
L178801733 82456352
L178849352 82503971
L178944590 82551590
L179325542 82551590
" />
<path d="M177896971 82361114
L177896971 83027780
" />
<path d="M178135066 81980161
L178373161 82694447
L177754114 82694447
" />
</g><text x="183819800.000000" y="84574000.000000"
transform="scale(-1 1) translate(-367639600.000000 0)"
textLength="6662143.000000" font-size="1333333.000000" lengthAdjust="spacingAndGlyphs"
text-anchor="middle" opacity="0">TestPoint</text>
<g class="stroked-text"><desc>TestPoint</desc>
<path d="M187153133 83526380
L186581704 83526380
" />
<path d="M186867419 84526380
L186867419 83526380
" />
<path d="M185867419 84478761
L185962657 84526380
L186153133 84526380
L186248371 84478761
L186295990 84383523
L186295990 84002571
L186248371 83907333
L186153133 83859714
L185962657 83859714
L185867419 83907333
L185819800 84002571
L185819800 84097809
L186295990 84193047
" />
<path d="M185438847 84478761
L185343609 84526380
L185153133 84526380
L185057895 84478761
L185010276 84383523
L185010276 84335904
L185057895 84240666
L185153133 84193047
L185295990 84193047
L185391228 84145428
L185438847 84050190
L185438847 84002571
L185391228 83907333
L185295990 83859714
L185153133 83859714
L185057895 83907333
" />
<path d="M184724561 83859714
L184343609 83859714
" />
<path d="M184581704 83526380
L184581704 84383523
L184534085 84478761
L184438847 84526380
L184343609 84526380
" />
<path d="M184010276 84526380
L184010276 83526380
L183629323 83526380
L183534085 83574000
L183486466 83621619
L183438847 83716857
L183438847 83859714
L183486466 83954952
L183534085 84002571
L183629323 84050190
L184010276 84050190
" />
<path d="M182867419 84526380
L182962657 84478761
L183010276 84431142
L183057895 84335904
L183057895 84050190
L183010276 83954952
L182962657 83907333
L182867419 83859714
L182724561 83859714
L182629323 83907333
L182581704 83954952
L182534085 84050190
L182534085 84335904
L182581704 84431142
L182629323 84478761
L182724561 84526380
L182867419 84526380
" />
<path d="M182105514 84526380
L182105514 83859714
" />
<path d="M182105514 83526380
L182153133 83574000
L182105514 83621619
L182057895 83574000
L182105514 83526380
L182105514 83621619
" />
<path d="M181629323 83859714
L181629323 84526380
" />
<path d="M181629323 83954952
L181581704 83907333
L181486466 83859714
L181343609 83859714
L181248371 83907333
L181200752 84002571
L181200752 84526380
" />
<path d="M180867419 83859714
L180486466 83859714
" />
<path d="M180724561 83526380
L180724561 84383523
L180676942 84478761
L180581704 84526380
L180486466 84526380
" />
</g><text x="179044600.000000" y="86352000.000000"
transform="scale(-1 1) translate(-358089200.000000 0)"
textLength="2519286.000000" font-size="1333333.000000" lengthAdjust="spacingAndGlyphs"
text-anchor="middle" opacity="0">TP5</text>
<g class="stroked-text"><desc>TP5</desc>
<path d="M180306504 85304380
L179735076 85304380
" />
<path d="M180020790 86304380
L180020790 85304380
" />
<path d="M179401742 86304380
L179401742 85304380
L179020790 85304380
L178925552 85352000
L178877933 85399619
L178830314 85494857
L178830314 85637714
L178877933 85732952
L178925552 85780571
L179020790 85828190
L179401742 85828190
" />
<path d="M177925552 85304380
L178401742 85304380
L178449361 85780571
L178401742 85732952
L178306504 85685333
L178068409 85685333
L177973171 85732952
L177925552 85780571
L177877933 85875809
L177877933 86113904
L177925552 86209142
L177973171 86256761
L178068409 86304380
L178306504 86304380
L178401742 86256761
L178449361 86209142
" />
</g><text x="164719000.000000" y="68648200.000000"
transform="scale(-1 1) translate(-329438000.000000 0)"
textLength="6662143.000000" font-size="1333333.000000" lengthAdjust="spacingAndGlyphs"
text-anchor="middle" opacity="0">TestPoint</text>
<g class="stroked-text"><desc>TestPoint</desc>
<path d="M168052333 67600580
L167480904 67600580
" />
<path d="M167766619 68600580
L167766619 67600580
" />
<path d="M166766619 68552961
L166861857 68600580
L167052333 68600580
L167147571 68552961
L167195190 68457723
L167195190 68076771
L167147571 67981533
L167052333 67933914
L166861857 67933914
L166766619 67981533
L166719000 68076771
L166719000 68172009
L167195190 68267247
" />
<path d="M166338047 68552961
L166242809 68600580
L166052333 68600580
L165957095 68552961
L165909476 68457723
L165909476 68410104
L165957095 68314866
L166052333 68267247
L166195190 68267247
L166290428 68219628
L166338047 68124390
L166338047 68076771
L166290428 67981533
L166195190 67933914
L166052333 67933914
L165957095 67981533
" />
<path d="M165623761 67933914
L165242809 67933914
" />
<path d="M165480904 67600580
L165480904 68457723
L165433285 68552961
L165338047 68600580
L165242809 68600580
" />
<path d="M164909476 68600580
L164909476 67600580
L164528523 67600580
L164433285 67648200
L164385666 67695819
L164338047 67791057
L164338047 67933914
L164385666 68029152
L164433285 68076771
L164528523 68124390
L164909476 68124390
" />
<path d="M163766619 68600580
L163861857 68552961
L163909476 68505342
L163957095 68410104
L163957095 68124390
L163909476 68029152
L163861857 67981533
L163766619 67933914
L163623761 67933914
L163528523 67981533
L163480904 68029152
L163433285 68124390
L163433285 68410104
L163480904 68505342
L163528523 68552961
L163623761 68600580
L163766619 68600580
" />
<path d="M163004714 68600580
L163004714 67933914
" />
<path d="M163004714 67600580
L163052333 67648200
L163004714 67695819
L162957095 67648200
L163004714 67600580
L163004714 67695819
" />
<path d="M162528523 67933914
L162528523 68600580
" />
<path d="M162528523 68029152
L162480904 67981533
L162385666 67933914
L162242809 67933914
L162147571 67981533
L162099952 68076771
L162099952 68600580
" />
<path d="M161766619 67933914
L161385666 67933914
" />
<path d="M161623761 67600580
L161623761 68457723
L161576142 68552961
L161480904 68600580
L161385666 68600580
" />
</g><text x="164109400.000000" y="72407400.000000"
transform="scale(-1 1) translate(-328218800.000000 0)"
textLength="2519286.000000" font-size="1333333.000000" lengthAdjust="spacingAndGlyphs"
text-anchor="middle" opacity="0">TP6</text>
<g class="stroked-text"><desc>TP6</desc>
<path d="M165371304 71359780
L164799876 71359780
" />
<path d="M165085590 72359780
L165085590 71359780
" />
<path d="M164466542 72359780
L164466542 71359780
L164085590 71359780
L163990352 71407400
L163942733 71455019
L163895114 71550257
L163895114 71693114
L163942733 71788352
L163990352 71835971
L164085590 71883590
L164466542 71883590
" />
<path d="M163037971 71359780
L163228447 71359780
L163323685 71407400
L163371304 71455019
L163466542 71597876
L163514161 71788352
L163514161 72169304
L163466542 72264542
L163418923 72312161
L163323685 72359780
L163133209 72359780
L163037971 72312161
L162990352 72264542
L162942733 72169304
L162942733 71931209
L162990352 71835971
L163037971 71788352
L163133209 71740733
L163323685 71740733
L163418923 71788352
L163466542 71835971
L163514161 71931209
" />
</g><text x="152781000.000000" y="68724400.000000"
transform="scale(-1 1) translate(-305562000.000000 0)"
textLength="6662143.000000" font-size="1333333.000000" lengthAdjust="spacingAndGlyphs"
text-anchor="middle" opacity="0">TestPoint</text>
<g class="stroked-text"><desc>TestPoint</desc>
<path d="M156114333 67676780
L155542904 67676780
" />
<path d="M155828619 68676780
L155828619 67676780
" />
<path d="M154828619 68629161
L154923857 68676780
L155114333 68676780
L155209571 68629161
L155257190 68533923
L155257190 68152971
L155209571 68057733
L155114333 68010114
L154923857 68010114
L154828619 68057733
L154781000 68152971
L154781000 68248209
L155257190 68343447
" />
<path d="M154400047 68629161
L154304809 68676780
L154114333 68676780
L154019095 68629161
L153971476 68533923
L153971476 68486304
L154019095 68391066
L154114333 68343447
L154257190 68343447
L154352428 68295828
L154400047 68200590
L154400047 68152971
L154352428 68057733
L154257190 68010114
L154114333 68010114
L154019095 68057733
" />
<path d="M153685761 68010114
L153304809 68010114
" />
<path d="M153542904 67676780
L153542904 68533923
L153495285 68629161
L153400047 68676780
L153304809 68676780
" />
<path d="M152971476 68676780
L152971476 67676780
L152590523 67676780
L152495285 67724400
L152447666 67772019
L152400047 67867257
L152400047 68010114
L152447666 68105352
L152495285 68152971
L152590523 68200590
L152971476 68200590
" />
<path d="M151828619 68676780
L151923857 68629161
L151971476 68581542
L152019095 68486304
L152019095 68200590
L151971476 68105352
L151923857 68057733
L151828619 68010114
L151685761 68010114
L151590523 68057733
L151542904 68105352
L151495285 68200590
L151495285 68486304
L151542904 68581542
L151590523 68629161
L151685761 68676780
L151828619 68676780
" />
<path d="M151066714 68676780
L151066714 68010114
" />
<path d="M151066714 67676780
L151114333 67724400
L151066714 67772019
L151019095 67724400
L151066714 67676780
L151066714 67772019
" />
<path d="M150590523 68010114
L150590523 68676780
" />
<path d="M150590523 68105352
L150542904 68057733
L150447666 68010114
L150304809 68010114
L150209571 68057733
L150161952 68152971
L150161952 68676780
" />
<path d="M149828619 68010114
L149447666 68010114
" />
<path d="M149685761 67676780
L149685761 68533923
L149638142 68629161
L149542904 68676780
L149447666 68676780
" />
</g><text x="153416000.000000" y="72483600.000000"
transform="scale(-1 1) translate(-306832000.000000 0)"
textLength="2519286.000000" font-size="1333333.000000" lengthAdjust="spacingAndGlyphs"
text-anchor="middle" opacity="0">TP8</text>
<g class="stroked-text"><desc>TP8</desc>
<path d="M154677904 71435980
L154106476 71435980
" />
<path d="M154392190 72435980
L154392190 71435980
" />
<path d="M153773142 72435980
L153773142 71435980
L153392190 71435980
L153296952 71483600
L153249333 71531219
L153201714 71626457
L153201714 71769314
L153249333 71864552
L153296952 71912171
L153392190 71959790
L153773142 71959790
" />
<path d="M152630285 71864552
L152725523 71816933
L152773142 71769314
L152820761 71674076
L152820761 71626457
L152773142 71531219
L152725523 71483600
L152630285 71435980
L152439809 71435980
L152344571 71483600
L152296952 71531219
L152249333 71626457
L152249333 71674076
L152296952 71769314
L152344571 71816933
L152439809 71864552
L152630285 71864552
L152725523 71912171
L152773142 71959790
L152820761 72055028
L152820761 72245504
L152773142 72340742
L152725523 72388361
L152630285 72435980
L152439809 72435980
L152344571 72388361
L152296952 72340742
L152249333 72245504
L152249333 72055028
L152296952 71959790
L152344571 71912171
L152439809 71864552
" />
</g><text x="155930600.000000" y="83304000.000000"
transform="scale(-1 1) translate(-311861200.000000 0)"
textLength="6662143.000000" font-size="1333333.000000" lengthAdjust="spacingAndGlyphs"
text-anchor="middle" opacity="0">TestPoint</text>
<g class="stroked-text"><desc>TestPoint</desc>
<path d="M159263933 82256380
L158692504 82256380
" />
<path d="M158978219 83256380
L158978219 82256380
" />
<path d="M157978219 83208761
L158073457 83256380
L158263933 83256380
L158359171 83208761
L158406790 83113523
L158406790 82732571
L158359171 82637333
L158263933 82589714
L158073457 82589714
L157978219 82637333
L157930600 82732571
L157930600 82827809
L158406790 82923047
" />
<path d="M157549647 83208761
L157454409 83256380
L157263933 83256380
L157168695 83208761
L157121076 83113523
L157121076 83065904
L157168695 82970666
L157263933 82923047
L157406790 82923047
L157502028 82875428
L157549647 82780190
L157549647 82732571
L157502028 82637333
L157406790 82589714
L157263933 82589714
L157168695 82637333
" />
<path d="M156835361 82589714
L156454409 82589714
" />
<path d="M156692504 82256380
L156692504 83113523
L156644885 83208761
L156549647 83256380
L156454409 83256380
" />
<path d="M156121076 83256380
L156121076 82256380
L155740123 82256380
L155644885 82304000
L155597266 82351619
L155549647 82446857
L155549647 82589714
L155597266 82684952
L155644885 82732571
L155740123 82780190
L156121076 82780190
" />
<path d="M154978219 83256380
L155073457 83208761
L155121076 83161142
L155168695 83065904
L155168695 82780190
L155121076 82684952
L155073457 82637333
L154978219 82589714
L154835361 82589714
L154740123 82637333
L154692504 82684952
L154644885 82780190
L154644885 83065904
L154692504 83161142
L154740123 83208761
L154835361 83256380
L154978219 83256380
" />
<path d="M154216314 83256380
L154216314 82589714
" />
<path d="M154216314 82256380
L154263933 82304000
L154216314 82351619
L154168695 82304000
L154216314 82256380
L154216314 82351619
" />
<path d="M153740123 82589714
L153740123 83256380
" />
<path d="M153740123 82684952
L153692504 82637333
L153597266 82589714
L153454409 82589714
L153359171 82637333
L153311552 82732571
L153311552 83256380
" />
<path d="M152978219 82589714
L152597266 82589714
" />
<path d="M152835361 82256380
L152835361 83113523
L152787742 83208761
L152692504 83256380
L152597266 83256380
" />
</g><text x="155879800.000000" y="86936200.000000"
transform="scale(-1 1) translate(-311759600.000000 0)"
textLength="2519286.000000" font-size="1333333.000000" lengthAdjust="spacingAndGlyphs"
text-anchor="middle" opacity="0">TP9</text>
<g class="stroked-text"><desc>TP9</desc>
<path d="M157141704 85888580
L156570276 85888580
" />
<path d="M156855990 86888580
L156855990 85888580
" />
<path d="M156236942 86888580
L156236942 85888580
L155855990 85888580
L155760752 85936200
L155713133 85983819
L155665514 86079057
L155665514 86221914
L155713133 86317152
L155760752 86364771
L155855990 86412390
L156236942 86412390
" />
<path d="M155189323 86888580
L154998847 86888580
L154903609 86840961
L154855990 86793342
L154760752 86650485
L154713133 86460009
L154713133 86079057
L154760752 85983819
L154808371 85936200
L154903609 85888580
L155094085 85888580
L155189323 85936200
L155236942 85983819
L155284561 86079057
L155284561 86317152
L155236942 86412390
L155189323 86460009
L155094085 86507628
L154903609 86507628
L154808371 86460009
L154760752 86412390
L154713133 86317152
" />
</g><g >
</g>
<g >
</g>
<g >
</g>
<g >
</g>
<g >
</g>
<g >
</g>
<g >
</g>
<g >
</g>
<g >
</g>
<g >
</g>
<g >
</g>
<g >
</g>
<g >
</g>
<g >
</g>
<g >
</g>
<g >
</g>
<g >
</g>
<g >
</g>
<g >
</g>
<g >
</g>
<g >
</g>
<g >
</g>
<g >
</g>
<g >
</g>
<g >
</g>
<g >
</g>
<g >
</g>
<g >
</g>
<g >
</g>
<g >
</g>
<g >
</g>
<g >
</g>
<g >
</g>
<g >
</g>
<g >
</g>
<g >
</g>
<g >
</g>
<g >
</g>
<g >
</g>
<g >
</g>
<g >
</g>
<g >
</g>
<g >
</g>
<g >
</g>
<g >
</g>
<g >
</g>
<g >
</g>
<g >
</g>
<g >
</g>
<g >
</g>
</g> 
</svg>
