<?xml version="1.0" standalone="no"?>
 <!DOCTYPE svg PUBLIC "-//W3C//DTD SVG 1.1//EN" 
 "http://www.w3.org/Graphics/SVG/1.1/DTD/svg11.dtd"> 
<svg
  xmlns:svg="http://www.w3.org/2000/svg"
  xmlns="http://www.w3.org/2000/svg"
  xmlns:xlink="http://www.w3.org/1999/xlink"
  version="1.1"
  width="29.700220cm" height="21.000720cm" viewBox="0 0 2970022 2100072">
<title>SVG Picture created as t1-B_Fab.svg date 2023/06/26 15:46:39 </title>
  <desc>Picture generated by PCBNEW </desc>
<g style="fill:#000000; fill-opacity:1.000000;stroke:#000000; stroke-opacity:1.000000;
stroke-linecap:round; stroke-linejoin:round;"
 transform="translate(0 0) scale(1 1)">
</g>
<g style="fill:#000000; fill-opacity:0.0; 
stroke:#000000; stroke-width:0.000000; stroke-opacity:1; 
stroke-linecap:round; stroke-linejoin:round;">
</g>
<g style="fill:#000000; fill-opacity:0.0; 
stroke:#000000; stroke-width:1500.000000; stroke-opacity:1; 
stroke-linecap:round; stroke-linejoin:round;">
<text x="1658366.000000" y="788336.000000"
transform="scale(-1 1) translate(-3316732.000000 0)"
textLength="66621.430000" font-size="13333.330000" lengthAdjust="spacingAndGlyphs"
text-anchor="middle" opacity="0">TestPoint</text>
<g class="stroked-text"><desc>TestPoint</desc>
<path d="M1691699 777859
L1685985 777859
" />
<path d="M1688842 787859
L1688842 777859
" />
<path d="M1678842 787383
L1679794 787859
L1681699 787859
L1682651 787383
L1683127 786431
L1683127 782621
L1682651 781669
L1681699 781193
L1679794 781193
L1678842 781669
L1678366 782621
L1678366 783574
L1683127 784526
" />
<path d="M1674556 787383
L1673604 787859
L1671699 787859
L1670746 787383
L1670270 786431
L1670270 785955
L1670746 785002
L1671699 784526
L1673127 784526
L1674080 784050
L1674556 783097
L1674556 782621
L1674080 781669
L1673127 781193
L1671699 781193
L1670746 781669
" />
<path d="M1667413 781193
L1663604 781193
" />
<path d="M1665985 777859
L1665985 786431
L1665508 787383
L1664556 787859
L1663604 787859
" />
<path d="M1660270 787859
L1660270 777859
L1656461 777859
L1655508 778336
L1655032 778812
L1654556 779764
L1654556 781193
L1655032 782145
L1655508 782621
L1656461 783097
L1660270 783097
" />
<path d="M1648842 787859
L1649794 787383
L1650270 786907
L1650746 785955
L1650746 783097
L1650270 782145
L1649794 781669
L1648842 781193
L1647413 781193
L1646461 781669
L1645985 782145
L1645508 783097
L1645508 785955
L1645985 786907
L1646461 787383
L1647413 787859
L1648842 787859
" />
<path d="M1641223 787859
L1641223 781193
" />
<path d="M1641223 777859
L1641699 778336
L1641223 778812
L1640746 778336
L1641223 777859
L1641223 778812
" />
<path d="M1636461 781193
L1636461 787859
" />
<path d="M1636461 782145
L1635985 781669
L1635032 781193
L1633604 781193
L1632651 781669
L1632175 782621
L1632175 787859
" />
<path d="M1628842 781193
L1625032 781193
" />
<path d="M1627413 777859
L1627413 786431
L1626937 787383
L1625985 787859
L1625032 787859
" />
</g><text x="1677924.000000" y="821124.000000"
transform="scale(-1 1) translate(-3355848.000000 0)"
textLength="25192.860000" font-size="13333.330000" lengthAdjust="spacingAndGlyphs"
text-anchor="middle" opacity="0">TP2</text>
<g class="stroked-text"><desc>TP2</desc>
<path d="M1690543 810647
L1684828 810647
" />
<path d="M1687685 820647
L1687685 810647
" />
<path d="M1681495 820647
L1681495 810647
L1677685 810647
L1676733 811124
L1676257 811600
L1675781 812552
L1675781 813981
L1676257 814933
L1676733 815409
L1677685 815885
L1681495 815885
" />
<path d="M1671971 811600
L1671495 811124
L1670543 810647
L1668162 810647
L1667209 811124
L1666733 811600
L1666257 812552
L1666257 813504
L1666733 814933
L1672447 820647
L1666257 820647
" />
</g><text x="1720850.000000" y="772080.000000"
transform="scale(-1 1) translate(-3441700.000000 0)"
textLength="66621.430000" font-size="13333.330000" lengthAdjust="spacingAndGlyphs"
text-anchor="middle" opacity="0">TestPoint</text>
<g class="stroked-text"><desc>TestPoint</desc>
<path d="M1754183 761603
L1748469 761603
" />
<path d="M1751326 771603
L1751326 761603
" />
<path d="M1741326 771127
L1742278 771603
L1744183 771603
L1745135 771127
L1745611 770175
L1745611 766365
L1745135 765413
L1744183 764937
L1742278 764937
L1741326 765413
L1740850 766365
L1740850 767318
L1745611 768270
" />
<path d="M1737040 771127
L1736088 771603
L1734183 771603
L1733230 771127
L1732754 770175
L1732754 769699
L1733230 768746
L1734183 768270
L1735611 768270
L1736564 767794
L1737040 766841
L1737040 766365
L1736564 765413
L1735611 764937
L1734183 764937
L1733230 765413
" />
<path d="M1729897 764937
L1726088 764937
" />
<path d="M1728469 761603
L1728469 770175
L1727992 771127
L1727040 771603
L1726088 771603
" />
<path d="M1722754 771603
L1722754 761603
L1718945 761603
L1717992 762080
L1717516 762556
L1717040 763508
L1717040 764937
L1717516 765889
L1717992 766365
L1718945 766841
L1722754 766841
" />
<path d="M1711326 771603
L1712278 771127
L1712754 770651
L1713230 769699
L1713230 766841
L1712754 765889
L1712278 765413
L1711326 764937
L1709897 764937
L1708945 765413
L1708469 765889
L1707992 766841
L1707992 769699
L1708469 770651
L1708945 771127
L1709897 771603
L1711326 771603
" />
<path d="M1703707 771603
L1703707 764937
" />
<path d="M1703707 761603
L1704183 762080
L1703707 762556
L1703230 762080
L1703707 761603
L1703707 762556
" />
<path d="M1698945 764937
L1698945 771603
" />
<path d="M1698945 765889
L1698469 765413
L1697516 764937
L1696088 764937
L1695135 765413
L1694659 766365
L1694659 771603
" />
<path d="M1691326 764937
L1687516 764937
" />
<path d="M1689897 761603
L1689897 770175
L1689421 771127
L1688469 771603
L1687516 771603
" />
</g><text x="1715262.000000" y="804846.000000"
transform="scale(-1 1) translate(-3430524.000000 0)"
textLength="25192.860000" font-size="13333.330000" lengthAdjust="spacingAndGlyphs"
text-anchor="middle" opacity="0">TP3</text>
<g class="stroked-text"><desc>TP3</desc>
<path d="M1727881 794369
L1722166 794369
" />
<path d="M1725023 804369
L1725023 794369
" />
<path d="M1718833 804369
L1718833 794369
L1715023 794369
L1714071 794846
L1713595 795322
L1713119 796274
L1713119 797703
L1713595 798655
L1714071 799131
L1715023 799607
L1718833 799607
" />
<path d="M1709785 794369
L1703595 794369
L1706928 798179
L1705500 798179
L1704547 798655
L1704071 799131
L1703595 800084
L1703595 802465
L1704071 803417
L1704547 803893
L1705500 804369
L1708357 804369
L1709309 803893
L1709785 803417
" />
</g><text x="1839976.000000" y="811450.000000"
transform="scale(-1 1) translate(-3679952.000000 0)"
textLength="66621.430000" font-size="13333.330000" lengthAdjust="spacingAndGlyphs"
text-anchor="middle" opacity="0">TestPoint</text>
<g class="stroked-text"><desc>TestPoint</desc>
<path d="M1873309 800973
L1867595 800973
" />
<path d="M1870452 810973
L1870452 800973
" />
<path d="M1860452 810497
L1861404 810973
L1863309 810973
L1864261 810497
L1864737 809545
L1864737 805735
L1864261 804783
L1863309 804307
L1861404 804307
L1860452 804783
L1859976 805735
L1859976 806688
L1864737 807640
" />
<path d="M1856166 810497
L1855214 810973
L1853309 810973
L1852356 810497
L1851880 809545
L1851880 809069
L1852356 808116
L1853309 807640
L1854737 807640
L1855690 807164
L1856166 806211
L1856166 805735
L1855690 804783
L1854737 804307
L1853309 804307
L1852356 804783
" />
<path d="M1849023 804307
L1845214 804307
" />
<path d="M1847595 800973
L1847595 809545
L1847118 810497
L1846166 810973
L1845214 810973
" />
<path d="M1841880 810973
L1841880 800973
L1838071 800973
L1837118 801450
L1836642 801926
L1836166 802878
L1836166 804307
L1836642 805259
L1837118 805735
L1838071 806211
L1841880 806211
" />
<path d="M1830452 810973
L1831404 810497
L1831880 810021
L1832356 809069
L1832356 806211
L1831880 805259
L1831404 804783
L1830452 804307
L1829023 804307
L1828071 804783
L1827595 805259
L1827118 806211
L1827118 809069
L1827595 810021
L1828071 810497
L1829023 810973
L1830452 810973
" />
<path d="M1822833 810973
L1822833 804307
" />
<path d="M1822833 800973
L1823309 801450
L1822833 801926
L1822356 801450
L1822833 800973
L1822833 801926
" />
<path d="M1818071 804307
L1818071 810973
" />
<path d="M1818071 805259
L1817595 804783
L1816642 804307
L1815214 804307
L1814261 804783
L1813785 805735
L1813785 810973
" />
<path d="M1810452 804307
L1806642 804307
" />
<path d="M1809023 800973
L1809023 809545
L1808547 810497
L1807595 810973
L1806642 810973
" />
</g><text x="1789684.000000" y="830754.000000"
transform="scale(-1 1) translate(-3579368.000000 0)"
textLength="25192.860000" font-size="13333.330000" lengthAdjust="spacingAndGlyphs"
text-anchor="middle" opacity="0">TP4</text>
<g class="stroked-text"><desc>TP4</desc>
<path d="M1802303 820277
L1796588 820277
" />
<path d="M1799445 830277
L1799445 820277
" />
<path d="M1793255 830277
L1793255 820277
L1789445 820277
L1788493 820754
L1788017 821230
L1787541 822182
L1787541 823611
L1788017 824563
L1788493 825039
L1789445 825515
L1793255 825515
" />
<path d="M1778969 823611
L1778969 830277
" />
<path d="M1781350 819801
L1783731 826944
L1777541 826944
" />
</g><text x="1838198.000000" y="845740.000000"
transform="scale(-1 1) translate(-3676396.000000 0)"
textLength="66621.430000" font-size="13333.330000" lengthAdjust="spacingAndGlyphs"
text-anchor="middle" opacity="0">TestPoint</text>
<g class="stroked-text"><desc>TestPoint</desc>
<path d="M1871531 835263
L1865817 835263
" />
<path d="M1868674 845263
L1868674 835263
" />
<path d="M1858674 844787
L1859626 845263
L1861531 845263
L1862483 844787
L1862959 843835
L1862959 840025
L1862483 839073
L1861531 838597
L1859626 838597
L1858674 839073
L1858198 840025
L1858198 840978
L1862959 841930
" />
<path d="M1854388 844787
L1853436 845263
L1851531 845263
L1850578 844787
L1850102 843835
L1850102 843359
L1850578 842406
L1851531 841930
L1852959 841930
L1853912 841454
L1854388 840501
L1854388 840025
L1853912 839073
L1852959 838597
L1851531 838597
L1850578 839073
" />
<path d="M1847245 838597
L1843436 838597
" />
<path d="M1845817 835263
L1845817 843835
L1845340 844787
L1844388 845263
L1843436 845263
" />
<path d="M1840102 845263
L1840102 835263
L1836293 835263
L1835340 835740
L1834864 836216
L1834388 837168
L1834388 838597
L1834864 839549
L1835340 840025
L1836293 840501
L1840102 840501
" />
<path d="M1828674 845263
L1829626 844787
L1830102 844311
L1830578 843359
L1830578 840501
L1830102 839549
L1829626 839073
L1828674 838597
L1827245 838597
L1826293 839073
L1825817 839549
L1825340 840501
L1825340 843359
L1825817 844311
L1826293 844787
L1827245 845263
L1828674 845263
" />
<path d="M1821055 845263
L1821055 838597
" />
<path d="M1821055 835263
L1821531 835740
L1821055 836216
L1820578 835740
L1821055 835263
L1821055 836216
" />
<path d="M1816293 838597
L1816293 845263
" />
<path d="M1816293 839549
L1815817 839073
L1814864 838597
L1813436 838597
L1812483 839073
L1812007 840025
L1812007 845263
" />
<path d="M1808674 838597
L1804864 838597
" />
<path d="M1807245 835263
L1807245 843835
L1806769 844787
L1805817 845263
L1804864 845263
" />
</g><text x="1790446.000000" y="863520.000000"
transform="scale(-1 1) translate(-3580892.000000 0)"
textLength="25192.860000" font-size="13333.330000" lengthAdjust="spacingAndGlyphs"
text-anchor="middle" opacity="0">TP5</text>
<g class="stroked-text"><desc>TP5</desc>
<path d="M1803065 853043
L1797350 853043
" />
<path d="M1800207 863043
L1800207 853043
" />
<path d="M1794017 863043
L1794017 853043
L1790207 853043
L1789255 853520
L1788779 853996
L1788303 854948
L1788303 856377
L1788779 857329
L1789255 857805
L1790207 858281
L1794017 858281
" />
<path d="M1779255 853043
L1784017 853043
L1784493 857805
L1784017 857329
L1783065 856853
L1780684 856853
L1779731 857329
L1779255 857805
L1778779 858758
L1778779 861139
L1779255 862091
L1779731 862567
L1780684 863043
L1783065 863043
L1784017 862567
L1784493 862091
" />
</g><text x="1647190.000000" y="686482.000000"
transform="scale(-1 1) translate(-3294380.000000 0)"
textLength="66621.430000" font-size="13333.330000" lengthAdjust="spacingAndGlyphs"
text-anchor="middle" opacity="0">TestPoint</text>
<g class="stroked-text"><desc>TestPoint</desc>
<path d="M1680523 676005
L1674809 676005
" />
<path d="M1677666 686005
L1677666 676005
" />
<path d="M1667666 685529
L1668618 686005
L1670523 686005
L1671475 685529
L1671951 684577
L1671951 680767
L1671475 679815
L1670523 679339
L1668618 679339
L1667666 679815
L1667190 680767
L1667190 681720
L1671951 682672
" />
<path d="M1663380 685529
L1662428 686005
L1660523 686005
L1659570 685529
L1659094 684577
L1659094 684101
L1659570 683148
L1660523 682672
L1661951 682672
L1662904 682196
L1663380 681243
L1663380 680767
L1662904 679815
L1661951 679339
L1660523 679339
L1659570 679815
" />
<path d="M1656237 679339
L1652428 679339
" />
<path d="M1654809 676005
L1654809 684577
L1654332 685529
L1653380 686005
L1652428 686005
" />
<path d="M1649094 686005
L1649094 676005
L1645285 676005
L1644332 676482
L1643856 676958
L1643380 677910
L1643380 679339
L1643856 680291
L1644332 680767
L1645285 681243
L1649094 681243
" />
<path d="M1637666 686005
L1638618 685529
L1639094 685053
L1639570 684101
L1639570 681243
L1639094 680291
L1638618 679815
L1637666 679339
L1636237 679339
L1635285 679815
L1634809 680291
L1634332 681243
L1634332 684101
L1634809 685053
L1635285 685529
L1636237 686005
L1637666 686005
" />
<path d="M1630047 686005
L1630047 679339
" />
<path d="M1630047 676005
L1630523 676482
L1630047 676958
L1629570 676482
L1630047 676005
L1630047 676958
" />
<path d="M1625285 679339
L1625285 686005
" />
<path d="M1625285 680291
L1624809 679815
L1623856 679339
L1622428 679339
L1621475 679815
L1620999 680767
L1620999 686005
" />
<path d="M1617666 679339
L1613856 679339
" />
<path d="M1616237 676005
L1616237 684577
L1615761 685529
L1614809 686005
L1613856 686005
" />
</g><text x="1641094.000000" y="724074.000000"
transform="scale(-1 1) translate(-3282188.000000 0)"
textLength="25192.860000" font-size="13333.330000" lengthAdjust="spacingAndGlyphs"
text-anchor="middle" opacity="0">TP6</text>
<g class="stroked-text"><desc>TP6</desc>
<path d="M1653713 713597
L1647998 713597
" />
<path d="M1650855 723597
L1650855 713597
" />
<path d="M1644665 723597
L1644665 713597
L1640855 713597
L1639903 714074
L1639427 714550
L1638951 715502
L1638951 716931
L1639427 717883
L1639903 718359
L1640855 718835
L1644665 718835
" />
<path d="M1630379 713597
L1632284 713597
L1633236 714074
L1633713 714550
L1634665 715978
L1635141 717883
L1635141 721693
L1634665 722645
L1634189 723121
L1633236 723597
L1631332 723597
L1630379 723121
L1629903 722645
L1629427 721693
L1629427 719312
L1629903 718359
L1630379 717883
L1631332 717407
L1633236 717407
L1634189 717883
L1634665 718359
L1635141 719312
" />
</g><text x="1527810.000000" y="687244.000000"
transform="scale(-1 1) translate(-3055620.000000 0)"
textLength="66621.430000" font-size="13333.330000" lengthAdjust="spacingAndGlyphs"
text-anchor="middle" opacity="0">TestPoint</text>
<g class="stroked-text"><desc>TestPoint</desc>
<path d="M1561143 676767
L1555429 676767
" />
<path d="M1558286 686767
L1558286 676767
" />
<path d="M1548286 686291
L1549238 686767
L1551143 686767
L1552095 686291
L1552571 685339
L1552571 681529
L1552095 680577
L1551143 680101
L1549238 680101
L1548286 680577
L1547810 681529
L1547810 682482
L1552571 683434
" />
<path d="M1544000 686291
L1543048 686767
L1541143 686767
L1540190 686291
L1539714 685339
L1539714 684863
L1540190 683910
L1541143 683434
L1542571 683434
L1543524 682958
L1544000 682005
L1544000 681529
L1543524 680577
L1542571 680101
L1541143 680101
L1540190 680577
" />
<path d="M1536857 680101
L1533048 680101
" />
<path d="M1535429 676767
L1535429 685339
L1534952 686291
L1534000 686767
L1533048 686767
" />
<path d="M1529714 686767
L1529714 676767
L1525905 676767
L1524952 677244
L1524476 677720
L1524000 678672
L1524000 680101
L1524476 681053
L1524952 681529
L1525905 682005
L1529714 682005
" />
<path d="M1518286 686767
L1519238 686291
L1519714 685815
L1520190 684863
L1520190 682005
L1519714 681053
L1519238 680577
L1518286 680101
L1516857 680101
L1515905 680577
L1515429 681053
L1514952 682005
L1514952 684863
L1515429 685815
L1515905 686291
L1516857 686767
L1518286 686767
" />
<path d="M1510667 686767
L1510667 680101
" />
<path d="M1510667 676767
L1511143 677244
L1510667 677720
L1510190 677244
L1510667 676767
L1510667 677720
" />
<path d="M1505905 680101
L1505905 686767
" />
<path d="M1505905 681053
L1505429 680577
L1504476 680101
L1503048 680101
L1502095 680577
L1501619 681529
L1501619 686767
" />
<path d="M1498286 680101
L1494476 680101
" />
<path d="M1496857 676767
L1496857 685339
L1496381 686291
L1495429 686767
L1494476 686767
" />
</g><text x="1534160.000000" y="724836.000000"
transform="scale(-1 1) translate(-3068320.000000 0)"
textLength="25192.860000" font-size="13333.330000" lengthAdjust="spacingAndGlyphs"
text-anchor="middle" opacity="0">TP8</text>
<g class="stroked-text"><desc>TP8</desc>
<path d="M1546779 714359
L1541064 714359
" />
<path d="M1543921 724359
L1543921 714359
" />
<path d="M1537731 724359
L1537731 714359
L1533921 714359
L1532969 714836
L1532493 715312
L1532017 716264
L1532017 717693
L1532493 718645
L1532969 719121
L1533921 719597
L1537731 719597
" />
<path d="M1526302 718645
L1527255 718169
L1527731 717693
L1528207 716740
L1528207 716264
L1527731 715312
L1527255 714836
L1526302 714359
L1524398 714359
L1523445 714836
L1522969 715312
L1522493 716264
L1522493 716740
L1522969 717693
L1523445 718169
L1524398 718645
L1526302 718645
L1527255 719121
L1527731 719597
L1528207 720550
L1528207 722455
L1527731 723407
L1527255 723883
L1526302 724359
L1524398 724359
L1523445 723883
L1522969 723407
L1522493 722455
L1522493 720550
L1522969 719597
L1523445 719121
L1524398 718645
" />
</g><text x="1559306.000000" y="833040.000000"
transform="scale(-1 1) translate(-3118612.000000 0)"
textLength="66621.430000" font-size="13333.330000" lengthAdjust="spacingAndGlyphs"
text-anchor="middle" opacity="0">TestPoint</text>
<g class="stroked-text"><desc>TestPoint</desc>
<path d="M1592639 822563
L1586925 822563
" />
<path d="M1589782 832563
L1589782 822563
" />
<path d="M1579782 832087
L1580734 832563
L1582639 832563
L1583591 832087
L1584067 831135
L1584067 827325
L1583591 826373
L1582639 825897
L1580734 825897
L1579782 826373
L1579306 827325
L1579306 828278
L1584067 829230
" />
<path d="M1575496 832087
L1574544 832563
L1572639 832563
L1571686 832087
L1571210 831135
L1571210 830659
L1571686 829706
L1572639 829230
L1574067 829230
L1575020 828754
L1575496 827801
L1575496 827325
L1575020 826373
L1574067 825897
L1572639 825897
L1571686 826373
" />
<path d="M1568353 825897
L1564544 825897
" />
<path d="M1566925 822563
L1566925 831135
L1566448 832087
L1565496 832563
L1564544 832563
" />
<path d="M1561210 832563
L1561210 822563
L1557401 822563
L1556448 823040
L1555972 823516
L1555496 824468
L1555496 825897
L1555972 826849
L1556448 827325
L1557401 827801
L1561210 827801
" />
<path d="M1549782 832563
L1550734 832087
L1551210 831611
L1551686 830659
L1551686 827801
L1551210 826849
L1550734 826373
L1549782 825897
L1548353 825897
L1547401 826373
L1546925 826849
L1546448 827801
L1546448 830659
L1546925 831611
L1547401 832087
L1548353 832563
L1549782 832563
" />
<path d="M1542163 832563
L1542163 825897
" />
<path d="M1542163 822563
L1542639 823040
L1542163 823516
L1541686 823040
L1542163 822563
L1542163 823516
" />
<path d="M1537401 825897
L1537401 832563
" />
<path d="M1537401 826849
L1536925 826373
L1535972 825897
L1534544 825897
L1533591 826373
L1533115 827325
L1533115 832563
" />
<path d="M1529782 825897
L1525972 825897
" />
<path d="M1528353 822563
L1528353 831135
L1527877 832087
L1526925 832563
L1525972 832563
" />
</g><text x="1558798.000000" y="869362.000000"
transform="scale(-1 1) translate(-3117596.000000 0)"
textLength="25192.860000" font-size="13333.330000" lengthAdjust="spacingAndGlyphs"
text-anchor="middle" opacity="0">TP9</text>
<g class="stroked-text"><desc>TP9</desc>
<path d="M1571417 858885
L1565702 858885
" />
<path d="M1568559 868885
L1568559 858885
" />
<path d="M1562369 868885
L1562369 858885
L1558559 858885
L1557607 859362
L1557131 859838
L1556655 860790
L1556655 862219
L1557131 863171
L1557607 863647
L1558559 864123
L1562369 864123
" />
<path d="M1551893 868885
L1549988 868885
L1549036 868409
L1548559 867933
L1547607 866504
L1547131 864600
L1547131 860790
L1547607 859838
L1548083 859362
L1549036 858885
L1550940 858885
L1551893 859362
L1552369 859838
L1552845 860790
L1552845 863171
L1552369 864123
L1551893 864600
L1550940 865076
L1549036 865076
L1548083 864600
L1547607 864123
L1547131 863171
" />
</g><g >
</g>
<g >
</g>
<g >
</g>
<g >
</g>
<g >
</g>
<g >
</g>
<g >
</g>
<g >
</g>
<g >
</g>
<g >
</g>
<g >
</g>
<g >
</g>
<g >
</g>
<g >
</g>
<g >
</g>
<g >
</g>
<g >
</g>
<g >
</g>
<g >
</g>
<g >
</g>
<g >
</g>
<g >
</g>
<g >
</g>
<g >
</g>
<g >
</g>
<g >
</g>
<g >
</g>
<g >
</g>
<g >
</g>
<g >
</g>
<g >
</g>
<g >
</g>
<g >
</g>
<g >
</g>
<g >
</g>
<g >
</g>
<g >
</g>
<g >
</g>
<g >
</g>
<g >
</g>
<g >
</g>
<g >
</g>
<g >
</g>
<g >
</g>
<g >
</g>
<g >
</g>
<g >
</g>
<g >
</g>
<g >
</g>
<g >
</g>
</g> 
</svg>
