<?xml version="1.0" standalone="no"?>
 <!DOCTYPE svg PUBLIC "-//W3C//DTD SVG 1.1//EN" 
 "http://www.w3.org/Graphics/SVG/1.1/DTD/svg11.dtd"> 
<svg
  xmlns:svg="http://www.w3.org/2000/svg"
  xmlns="http://www.w3.org/2000/svg"
  xmlns:xlink="http://www.w3.org/1999/xlink"
  version="1.1"
  width="297.0022mm" height="210.0072mm" viewBox="0.0000 0.0000 297.0022 210.0072">
<title>SVG Image created as t1-B_Mask.svg date 2024/04/11 10:42:45 </title>
  <desc>Image generated by PCBNEW </desc>
<g style="fill:#000000; fill-opacity:1.0000;stroke:#000000; stroke-opacity:1.0000;
stroke-linecap:round; stroke-linejoin:round;"
 transform="translate(0 0) scale(1 1)">
</g>
<g style="fill:#000000; fill-opacity:1.0000; stroke:none;">
<circle cx="177.0000" cy="97.0000" r="1.4000" /> 
</g>
<g style="fill:#000000; fill-opacity:1.0000; stroke:none;">
<circle cx="123.0000" cy="97.0000" r="1.4000" /> 
</g>
<g style="fill:#000000; fill-opacity:1.0000; stroke:none;">
<circle cx="123.0000" cy="69.5000" r="1.4000" /> 
</g>
<g style="fill:#000000; fill-opacity:1.0000; stroke:none;">
<circle cx="177.0000" cy="69.5000" r="1.4000" /> 
</g>
<g style="fill:none; 
stroke:#000000; stroke-width:1.6000; stroke-opacity:1; 
stroke-linecap:round; stroke-linejoin:round;">
<path d="M123.2000 81.4500
L123.2000 80.9500
" />
</g>
<g style="fill:#000000; fill-opacity:1.0000; stroke:none;">
<circle cx="127.6000" cy="81.2000" r="1.0500" /> 
<path style="fill:#000000; fill-opacity:1.0000; stroke:none;fill-rule:evenodd;"
d="M 137.2000,80.3500
137.1962,80.3691
137.1854,80.3854
137.1691,80.3962
137.1500,80.4000
135.4500,80.4000
135.4309,80.3962
135.4146,80.3854
135.4038,80.3691
135.4000,80.3500
135.4000,78.6500
135.4038,78.6309
135.4146,78.6146
135.4309,78.6038
135.4500,78.6000
137.1500,78.6000
137.1691,78.6038
137.1854,78.6146
137.1962,78.6309
137.2000,78.6500
Z" /> 
</g>
<g style="fill:#000000; fill-opacity:1.0000; stroke:none;">
<circle cx="136.3000" cy="76.9600" r="0.9000" /> 
<circle cx="136.3000" cy="74.4200" r="0.9000" /> 
<circle cx="136.3000" cy="71.8800" r="0.9000" /> 
<circle cx="136.3000" cy="69.3400" r="0.9000" /> 
<path style="fill:#000000; fill-opacity:1.0000; stroke:none;fill-rule:evenodd;"
d="M 150.9920,94.4000
150.9958,94.3809
151.0066,94.3646
151.0229,94.3538
151.0420,94.3500
152.7420,94.3500
152.7611,94.3538
152.7774,94.3646
152.7882,94.3809
152.7920,94.4000
152.7920,96.1000
152.7882,96.1191
152.7774,96.1354
152.7611,96.1462
152.7420,96.1500
151.0420,96.1500
151.0229,96.1462
151.0066,96.1354
150.9958,96.1191
150.9920,96.1000
Z" /> 
<circle cx="154.4320" cy="95.2500" r="0.9000" /> 
<circle cx="151.8920" cy="97.7900" r="0.9000" /> 
<circle cx="154.4320" cy="97.7900" r="0.9000" /> 
<path style="fill:#000000; fill-opacity:1.0000; stroke:none;fill-rule:evenodd;"
d="M 140.2724,98.6646
140.2533,98.6608
140.2370,98.6500
140.2262,98.6337
140.2224,98.6146
140.2224,96.9146
140.2262,96.8955
140.2370,96.8792
140.2533,96.8684
140.2724,96.8646
141.9724,96.8646
141.9915,96.8684
142.0078,96.8792
142.0186,96.8955
142.0224,96.9146
142.0224,98.6146
142.0186,98.6337
142.0078,98.6500
141.9915,98.6608
141.9724,98.6646
Z" /> 
<circle cx="141.1224" cy="95.2246" r="0.9000" /> 
<circle cx="143.6624" cy="97.7646" r="0.9000" /> 
<circle cx="143.6624" cy="95.2246" r="0.9000" /> 
<circle cx="146.2024" cy="97.7646" r="0.9000" /> 
<circle cx="146.2024" cy="95.2246" r="0.9000" /> 
<path style="fill:#000000; fill-opacity:1.0000; stroke:none;fill-rule:evenodd;"
d="M 140.0700,76.3660
140.0738,76.3469
140.0846,76.3306
140.1009,76.3198
140.1200,76.3160
141.8200,76.3160
141.8391,76.3198
141.8554,76.3306
141.8662,76.3469
141.8700,76.3660
141.8700,78.0660
141.8662,78.0851
141.8554,78.1014
141.8391,78.1122
141.8200,78.1160
140.1200,78.1160
140.1009,78.1122
140.0846,78.1014
140.0738,78.0851
140.0700,78.0660
Z" /> 
<circle cx="140.9700" cy="79.7560" r="0.9000" /> 
<circle cx="140.9700" cy="82.2960" r="0.9000" /> 
<circle cx="140.9700" cy="84.8360" r="0.9000" /> 
<circle cx="140.9700" cy="87.3760" r="0.9000" /> 
<circle cx="140.9700" cy="89.9160" r="0.9000" /> 
<path style="fill:#000000; fill-opacity:1.0000; stroke:none;fill-rule:evenodd;"
d="M 172.6820,82.3840
172.6629,82.3802
172.6466,82.3694
172.6358,82.3531
172.6320,82.3340
172.6320,80.7340
172.6358,80.7149
172.6466,80.6986
172.6629,80.6878
172.6820,80.6840
174.2820,80.6840
174.3011,80.6878
174.3174,80.6986
174.3282,80.7149
174.3320,80.7340
174.3320,82.3340
174.3282,82.3531
174.3174,82.3694
174.3011,82.3802
174.2820,82.3840
Z" /> 
<circle cx="173.4820" cy="84.0340" r="0.8500" /> 
</g>
<g style="fill:#000000; fill-opacity:1.0000; stroke:none;">
<circle cx="175.4820" cy="84.0340" r="0.8500" /> 
</g>
<g style="fill:#000000; fill-opacity:1.0000; stroke:none;">
<circle cx="175.4820" cy="81.5340" r="0.8500" /> 
</g>
<g style="fill:#000000; fill-opacity:1.0000; stroke:none;">
<circle cx="178.3420" cy="76.7840" r="2.0500" /> 
</g>
<g style="fill:#000000; fill-opacity:1.0000; stroke:none;">
<circle cx="178.3420" cy="88.7840" r="2.0500" /> 
</g>
<g style="fill:#000000; fill-opacity:1.0000; stroke:none;">
<circle cx="167.7924" cy="80.1624" r="0.5500" /> 
</g>
<g style="fill:#000000; fill-opacity:1.0000; stroke:none;">
<circle cx="173.4820" cy="78.4860" r="0.5500" /> 
</g>
<g style="fill:#000000; fill-opacity:1.0000; stroke:none;">
<circle cx="179.0700" cy="80.7720" r="0.5500" /> 
</g>
<g style="fill:#000000; fill-opacity:1.0000; stroke:none;">
<circle cx="179.0700" cy="84.0740" r="0.5500" /> 
</g>
<g style="fill:#000000; fill-opacity:1.0000; stroke:none;">
<circle cx="164.2872" cy="70.0532" r="0.5500" /> 
</g>
<g style="fill:#000000; fill-opacity:1.0000; stroke:none;">
<circle cx="153.4922" cy="70.0278" r="0.5500" /> 
</g>
<g style="fill:#000000; fill-opacity:1.0000; stroke:none;">
<circle cx="155.9560" cy="84.5820" r="0.5500" /> 
</g> 
</svg>
