<?xml version="1.0" standalone="no"?>
 <!DOCTYPE svg PUBLIC "-//W3C//DTD SVG 1.1//EN" 
 "http://www.w3.org/Graphics/SVG/1.1/DTD/svg11.dtd"> 
<svg
  xmlns:svg="http://www.w3.org/2000/svg"
  xmlns="http://www.w3.org/2000/svg"
  xmlns:xlink="http://www.w3.org/1999/xlink"
  version="1.1"
  width="297.0022mm" height="210.0072mm" viewBox="0.0000 0.0000 297.0022 210.0072">
<title>SVG Image created as t1-B_Silkscreen.svg date 2025/03/05 13:57:15 </title>
  <desc>Image generated by PCBNEW </desc>
<g style="fill:#000000; fill-opacity:1.0000;stroke:#000000; stroke-opacity:1.0000;
stroke-linecap:round; stroke-linejoin:round;"
 transform="translate(0 0) scale(1 1)">
</g>
<g style="fill:none; 
stroke:#000000; stroke-width:0.1500; stroke-opacity:1; 
stroke-linecap:round; stroke-linejoin:round;">
<text x="128.7272" y="87.7060"
transform="scale(-1 1) translate(-257.454400 0)"
textLength="17.8690" font-size="1.3333" lengthAdjust="spacingAndGlyphs"
text-anchor="middle" opacity="0" stroke-opacity="0">KiBot variants example</text>
<g class="stroked-text"><desc>KiBot variants example</desc>
<path d="M137.2986 87.6608
L137.2986 86.6608
" />
<path d="M136.7272 87.6608
L137.1558 87.0894
" />
<path d="M136.7272 86.6608
L137.2986 87.2323
" />
<path d="M136.2986 87.6608
L136.2986 86.9942
" />
<path d="M136.2986 86.6608
L136.3462 86.7085
" />
<path d="M136.3462 86.7085
L136.2986 86.7561
" />
<path d="M136.2986 86.7561
L136.2510 86.7085
" />
<path d="M136.2510 86.7085
L136.2986 86.6608
" />
<path d="M136.2986 86.6608
L136.2986 86.7561
" />
<path d="M135.4891 87.1370
L135.3462 87.1847
" />
<path d="M135.3462 87.1847
L135.2986 87.2323
" />
<path d="M135.2986 87.2323
L135.2510 87.3275
" />
<path d="M135.2510 87.3275
L135.2510 87.4704
" />
<path d="M135.2510 87.4704
L135.2986 87.5656
" />
<path d="M135.2986 87.5656
L135.3462 87.6132
" />
<path d="M135.3462 87.6132
L135.4415 87.6608
" />
<path d="M135.4415 87.6608
L135.8224 87.6608
" />
<path d="M135.8224 87.6608
L135.8224 86.6608
" />
<path d="M135.8224 86.6608
L135.4891 86.6608
" />
<path d="M135.4891 86.6608
L135.3939 86.7085
" />
<path d="M135.3939 86.7085
L135.3462 86.7561
" />
<path d="M135.3462 86.7561
L135.2986 86.8513
" />
<path d="M135.2986 86.8513
L135.2986 86.9466
" />
<path d="M135.2986 86.9466
L135.3462 87.0418
" />
<path d="M135.3462 87.0418
L135.3939 87.0894
" />
<path d="M135.3939 87.0894
L135.4891 87.1370
" />
<path d="M135.4891 87.1370
L135.8224 87.1370
" />
<path d="M134.6796 87.6608
L134.7748 87.6132
" />
<path d="M134.7748 87.6132
L134.8224 87.5656
" />
<path d="M134.8224 87.5656
L134.8701 87.4704
" />
<path d="M134.8701 87.4704
L134.8701 87.1847
" />
<path d="M134.8701 87.1847
L134.8224 87.0894
" />
<path d="M134.8224 87.0894
L134.7748 87.0418
" />
<path d="M134.7748 87.0418
L134.6796 86.9942
" />
<path d="M134.6796 86.9942
L134.5367 86.9942
" />
<path d="M134.5367 86.9942
L134.4415 87.0418
" />
<path d="M134.4415 87.0418
L134.3939 87.0894
" />
<path d="M134.3939 87.0894
L134.3462 87.1847
" />
<path d="M134.3462 87.1847
L134.3462 87.4704
" />
<path d="M134.3462 87.4704
L134.3939 87.5656
" />
<path d="M134.3939 87.5656
L134.4415 87.6132
" />
<path d="M134.4415 87.6132
L134.5367 87.6608
" />
<path d="M134.5367 87.6608
L134.6796 87.6608
" />
<path d="M134.0605 86.9942
L133.6796 86.9942
" />
<path d="M133.9177 86.6608
L133.9177 87.5180
" />
<path d="M133.9177 87.5180
L133.8701 87.6132
" />
<path d="M133.8701 87.6132
L133.7748 87.6608
" />
<path d="M133.7748 87.6608
L133.6796 87.6608
" />
<path d="M132.6796 86.9942
L132.4415 87.6608
" />
<path d="M132.4415 87.6608
L132.2034 86.9942
" />
<path d="M131.3939 87.6608
L131.3939 87.1370
" />
<path d="M131.3939 87.1370
L131.4415 87.0418
" />
<path d="M131.4415 87.0418
L131.5367 86.9942
" />
<path d="M131.5367 86.9942
L131.7272 86.9942
" />
<path d="M131.7272 86.9942
L131.8224 87.0418
" />
<path d="M131.3939 87.6132
L131.4891 87.6608
" />
<path d="M131.4891 87.6608
L131.7272 87.6608
" />
<path d="M131.7272 87.6608
L131.8224 87.6132
" />
<path d="M131.8224 87.6132
L131.8701 87.5180
" />
<path d="M131.8701 87.5180
L131.8701 87.4228
" />
<path d="M131.8701 87.4228
L131.8224 87.3275
" />
<path d="M131.8224 87.3275
L131.7272 87.2799
" />
<path d="M131.7272 87.2799
L131.4891 87.2799
" />
<path d="M131.4891 87.2799
L131.3939 87.2323
" />
<path d="M130.9177 87.6608
L130.9177 86.9942
" />
<path d="M130.9177 87.1847
L130.8701 87.0894
" />
<path d="M130.8701 87.0894
L130.8224 87.0418
" />
<path d="M130.8224 87.0418
L130.7272 86.9942
" />
<path d="M130.7272 86.9942
L130.6320 86.9942
" />
<path d="M130.2986 87.6608
L130.2986 86.9942
" />
<path d="M130.2986 86.6608
L130.3462 86.7085
" />
<path d="M130.3462 86.7085
L130.2986 86.7561
" />
<path d="M130.2986 86.7561
L130.2510 86.7085
" />
<path d="M130.2510 86.7085
L130.2986 86.6608
" />
<path d="M130.2986 86.6608
L130.2986 86.7561
" />
<path d="M129.3939 87.6608
L129.3939 87.1370
" />
<path d="M129.3939 87.1370
L129.4415 87.0418
" />
<path d="M129.4415 87.0418
L129.5367 86.9942
" />
<path d="M129.5367 86.9942
L129.7272 86.9942
" />
<path d="M129.7272 86.9942
L129.8224 87.0418
" />
<path d="M129.3939 87.6132
L129.4891 87.6608
" />
<path d="M129.4891 87.6608
L129.7272 87.6608
" />
<path d="M129.7272 87.6608
L129.8224 87.6132
" />
<path d="M129.8224 87.6132
L129.8701 87.5180
" />
<path d="M129.8701 87.5180
L129.8701 87.4228
" />
<path d="M129.8701 87.4228
L129.8224 87.3275
" />
<path d="M129.8224 87.3275
L129.7272 87.2799
" />
<path d="M129.7272 87.2799
L129.4891 87.2799
" />
<path d="M129.4891 87.2799
L129.3939 87.2323
" />
<path d="M128.9177 86.9942
L128.9177 87.6608
" />
<path d="M128.9177 87.0894
L128.8701 87.0418
" />
<path d="M128.8701 87.0418
L128.7748 86.9942
" />
<path d="M128.7748 86.9942
L128.6320 86.9942
" />
<path d="M128.6320 86.9942
L128.5367 87.0418
" />
<path d="M128.5367 87.0418
L128.4891 87.1370
" />
<path d="M128.4891 87.1370
L128.4891 87.6608
" />
<path d="M128.1558 86.9942
L127.7748 86.9942
" />
<path d="M128.0129 86.6608
L128.0129 87.5180
" />
<path d="M128.0129 87.5180
L127.9653 87.6132
" />
<path d="M127.9653 87.6132
L127.8701 87.6608
" />
<path d="M127.8701 87.6608
L127.7748 87.6608
" />
<path d="M127.4891 87.6132
L127.3939 87.6608
" />
<path d="M127.3939 87.6608
L127.2034 87.6608
" />
<path d="M127.2034 87.6608
L127.1082 87.6132
" />
<path d="M127.1082 87.6132
L127.0605 87.5180
" />
<path d="M127.0605 87.5180
L127.0605 87.4704
" />
<path d="M127.0605 87.4704
L127.1082 87.3751
" />
<path d="M127.1082 87.3751
L127.2034 87.3275
" />
<path d="M127.2034 87.3275
L127.3462 87.3275
" />
<path d="M127.3462 87.3275
L127.4415 87.2799
" />
<path d="M127.4415 87.2799
L127.4891 87.1847
" />
<path d="M127.4891 87.1847
L127.4891 87.1370
" />
<path d="M127.4891 87.1370
L127.4415 87.0418
" />
<path d="M127.4415 87.0418
L127.3462 86.9942
" />
<path d="M127.3462 86.9942
L127.2034 86.9942
" />
<path d="M127.2034 86.9942
L127.1082 87.0418
" />
<path d="M125.4891 87.6132
L125.5843 87.6608
" />
<path d="M125.5843 87.6608
L125.7748 87.6608
" />
<path d="M125.7748 87.6608
L125.8701 87.6132
" />
<path d="M125.8701 87.6132
L125.9177 87.5180
" />
<path d="M125.9177 87.5180
L125.9177 87.1370
" />
<path d="M125.9177 87.1370
L125.8701 87.0418
" />
<path d="M125.8701 87.0418
L125.7748 86.9942
" />
<path d="M125.7748 86.9942
L125.5843 86.9942
" />
<path d="M125.5843 86.9942
L125.4891 87.0418
" />
<path d="M125.4891 87.0418
L125.4415 87.1370
" />
<path d="M125.4415 87.1370
L125.4415 87.2323
" />
<path d="M125.4415 87.2323
L125.9177 87.3275
" />
<path d="M125.1082 87.6608
L124.5843 86.9942
" />
<path d="M125.1082 86.9942
L124.5843 87.6608
" />
<path d="M123.7748 87.6608
L123.7748 87.1370
" />
<path d="M123.7748 87.1370
L123.8224 87.0418
" />
<path d="M123.8224 87.0418
L123.9177 86.9942
" />
<path d="M123.9177 86.9942
L124.1082 86.9942
" />
<path d="M124.1082 86.9942
L124.2034 87.0418
" />
<path d="M123.7748 87.6132
L123.8701 87.6608
" />
<path d="M123.8701 87.6608
L124.1082 87.6608
" />
<path d="M124.1082 87.6608
L124.2034 87.6132
" />
<path d="M124.2034 87.6132
L124.2510 87.5180
" />
<path d="M124.2510 87.5180
L124.2510 87.4228
" />
<path d="M124.2510 87.4228
L124.2034 87.3275
" />
<path d="M124.2034 87.3275
L124.1082 87.2799
" />
<path d="M124.1082 87.2799
L123.8701 87.2799
" />
<path d="M123.8701 87.2799
L123.7748 87.2323
" />
<path d="M123.2986 87.6608
L123.2986 86.9942
" />
<path d="M123.2986 87.0894
L123.2510 87.0418
" />
<path d="M123.2510 87.0418
L123.1558 86.9942
" />
<path d="M123.1558 86.9942
L123.0129 86.9942
" />
<path d="M123.0129 86.9942
L122.9177 87.0418
" />
<path d="M122.9177 87.0418
L122.8701 87.1370
" />
<path d="M122.8701 87.1370
L122.8701 87.6608
" />
<path d="M122.8701 87.1370
L122.8224 87.0418
" />
<path d="M122.8224 87.0418
L122.7272 86.9942
" />
<path d="M122.7272 86.9942
L122.5843 86.9942
" />
<path d="M122.5843 86.9942
L122.4891 87.0418
" />
<path d="M122.4891 87.0418
L122.4415 87.1370
" />
<path d="M122.4415 87.1370
L122.4415 87.6608
" />
<path d="M121.9653 86.9942
L121.9653 87.9942
" />
<path d="M121.9653 87.0418
L121.8701 86.9942
" />
<path d="M121.8701 86.9942
L121.6796 86.9942
" />
<path d="M121.6796 86.9942
L121.5843 87.0418
" />
<path d="M121.5843 87.0418
L121.5367 87.0894
" />
<path d="M121.5367 87.0894
L121.4891 87.1847
" />
<path d="M121.4891 87.1847
L121.4891 87.4704
" />
<path d="M121.4891 87.4704
L121.5367 87.5656
" />
<path d="M121.5367 87.5656
L121.5843 87.6132
" />
<path d="M121.5843 87.6132
L121.6796 87.6608
" />
<path d="M121.6796 87.6608
L121.8701 87.6608
" />
<path d="M121.8701 87.6608
L121.9653 87.6132
" />
<path d="M120.9177 87.6608
L121.0129 87.6132
" />
<path d="M121.0129 87.6132
L121.0605 87.5180
" />
<path d="M121.0605 87.5180
L121.0605 86.6608
" />
<path d="M120.1558 87.6132
L120.2510 87.6608
" />
<path d="M120.2510 87.6608
L120.4415 87.6608
" />
<path d="M120.4415 87.6608
L120.5367 87.6132
" />
<path d="M120.5367 87.6132
L120.5843 87.5180
" />
<path d="M120.5843 87.5180
L120.5843 87.1370
" />
<path d="M120.5843 87.1370
L120.5367 87.0418
" />
<path d="M120.5367 87.0418
L120.4415 86.9942
" />
<path d="M120.4415 86.9942
L120.2510 86.9942
" />
<path d="M120.2510 86.9942
L120.1558 87.0418
" />
<path d="M120.1558 87.0418
L120.1082 87.1370
" />
<path d="M120.1082 87.1370
L120.1082 87.2323
" />
<path d="M120.1082 87.2323
L120.5843 87.3275
" />
</g><text x="128.7272" y="89.3160"
transform="scale(-1 1) translate(-257.454400 0)"
textLength="16.2976" font-size="1.3333" lengthAdjust="spacingAndGlyphs"
text-anchor="middle" opacity="0" stroke-opacity="0">Not a real life board</text>
<g class="stroked-text"><desc>Not a real life board</desc>
<path d="M136.5129 89.2708
L136.5129 88.2708
" />
<path d="M136.5129 88.2708
L135.9415 89.2708
" />
<path d="M135.9415 89.2708
L135.9415 88.2708
" />
<path d="M135.3224 89.2708
L135.4177 89.2232
" />
<path d="M135.4177 89.2232
L135.4653 89.1756
" />
<path d="M135.4653 89.1756
L135.5129 89.0803
" />
<path d="M135.5129 89.0803
L135.5129 88.7946
" />
<path d="M135.5129 88.7946
L135.4653 88.6994
" />
<path d="M135.4653 88.6994
L135.4177 88.6517
" />
<path d="M135.4177 88.6517
L135.3224 88.6041
" />
<path d="M135.3224 88.6041
L135.1796 88.6041
" />
<path d="M135.1796 88.6041
L135.0843 88.6517
" />
<path d="M135.0843 88.6517
L135.0367 88.6994
" />
<path d="M135.0367 88.6994
L134.9891 88.7946
" />
<path d="M134.9891 88.7946
L134.9891 89.0803
" />
<path d="M134.9891 89.0803
L135.0367 89.1756
" />
<path d="M135.0367 89.1756
L135.0843 89.2232
" />
<path d="M135.0843 89.2232
L135.1796 89.2708
" />
<path d="M135.1796 89.2708
L135.3224 89.2708
" />
<path d="M134.7034 88.6041
L134.3224 88.6041
" />
<path d="M134.5605 88.2708
L134.5605 89.1279
" />
<path d="M134.5605 89.1279
L134.5129 89.2232
" />
<path d="M134.5129 89.2232
L134.4177 89.2708
" />
<path d="M134.4177 89.2708
L134.3224 89.2708
" />
<path d="M132.7986 89.2708
L132.7986 88.7470
" />
<path d="M132.7986 88.7470
L132.8462 88.6517
" />
<path d="M132.8462 88.6517
L132.9415 88.6041
" />
<path d="M132.9415 88.6041
L133.1320 88.6041
" />
<path d="M133.1320 88.6041
L133.2272 88.6517
" />
<path d="M132.7986 89.2232
L132.8939 89.2708
" />
<path d="M132.8939 89.2708
L133.1320 89.2708
" />
<path d="M133.1320 89.2708
L133.2272 89.2232
" />
<path d="M133.2272 89.2232
L133.2748 89.1279
" />
<path d="M133.2748 89.1279
L133.2748 89.0327
" />
<path d="M133.2748 89.0327
L133.2272 88.9375
" />
<path d="M133.2272 88.9375
L133.1320 88.8898
" />
<path d="M133.1320 88.8898
L132.8939 88.8898
" />
<path d="M132.8939 88.8898
L132.7986 88.8422
" />
<path d="M131.5605 89.2708
L131.5605 88.6041
" />
<path d="M131.5605 88.7946
L131.5129 88.6994
" />
<path d="M131.5129 88.6994
L131.4653 88.6517
" />
<path d="M131.4653 88.6517
L131.3701 88.6041
" />
<path d="M131.3701 88.6041
L131.2748 88.6041
" />
<path d="M130.5605 89.2232
L130.6558 89.2708
" />
<path d="M130.6558 89.2708
L130.8462 89.2708
" />
<path d="M130.8462 89.2708
L130.9415 89.2232
" />
<path d="M130.9415 89.2232
L130.9891 89.1279
" />
<path d="M130.9891 89.1279
L130.9891 88.7470
" />
<path d="M130.9891 88.7470
L130.9415 88.6517
" />
<path d="M130.9415 88.6517
L130.8462 88.6041
" />
<path d="M130.8462 88.6041
L130.6558 88.6041
" />
<path d="M130.6558 88.6041
L130.5605 88.6517
" />
<path d="M130.5605 88.6517
L130.5129 88.7470
" />
<path d="M130.5129 88.7470
L130.5129 88.8422
" />
<path d="M130.5129 88.8422
L130.9891 88.9375
" />
<path d="M129.6558 89.2708
L129.6558 88.7470
" />
<path d="M129.6558 88.7470
L129.7034 88.6517
" />
<path d="M129.7034 88.6517
L129.7986 88.6041
" />
<path d="M129.7986 88.6041
L129.9891 88.6041
" />
<path d="M129.9891 88.6041
L130.0843 88.6517
" />
<path d="M129.6558 89.2232
L129.7510 89.2708
" />
<path d="M129.7510 89.2708
L129.9891 89.2708
" />
<path d="M129.9891 89.2708
L130.0843 89.2232
" />
<path d="M130.0843 89.2232
L130.1320 89.1279
" />
<path d="M130.1320 89.1279
L130.1320 89.0327
" />
<path d="M130.1320 89.0327
L130.0843 88.9375
" />
<path d="M130.0843 88.9375
L129.9891 88.8898
" />
<path d="M129.9891 88.8898
L129.7510 88.8898
" />
<path d="M129.7510 88.8898
L129.6558 88.8422
" />
<path d="M129.0367 89.2708
L129.1320 89.2232
" />
<path d="M129.1320 89.2232
L129.1796 89.1279
" />
<path d="M129.1796 89.1279
L129.1796 88.2708
" />
<path d="M127.7510 89.2708
L127.8462 89.2232
" />
<path d="M127.8462 89.2232
L127.8939 89.1279
" />
<path d="M127.8939 89.1279
L127.8939 88.2708
" />
<path d="M127.3701 89.2708
L127.3701 88.6041
" />
<path d="M127.3701 88.2708
L127.4177 88.3184
" />
<path d="M127.4177 88.3184
L127.3701 88.3660
" />
<path d="M127.3701 88.3660
L127.3224 88.3184
" />
<path d="M127.3224 88.3184
L127.3701 88.2708
" />
<path d="M127.3701 88.2708
L127.3701 88.3660
" />
<path d="M127.0367 88.6041
L126.6558 88.6041
" />
<path d="M126.8939 89.2708
L126.8939 88.4136
" />
<path d="M126.8939 88.4136
L126.8462 88.3184
" />
<path d="M126.8462 88.3184
L126.7510 88.2708
" />
<path d="M126.7510 88.2708
L126.6558 88.2708
" />
<path d="M125.9415 89.2232
L126.0367 89.2708
" />
<path d="M126.0367 89.2708
L126.2272 89.2708
" />
<path d="M126.2272 89.2708
L126.3224 89.2232
" />
<path d="M126.3224 89.2232
L126.3701 89.1279
" />
<path d="M126.3701 89.1279
L126.3701 88.7470
" />
<path d="M126.3701 88.7470
L126.3224 88.6517
" />
<path d="M126.3224 88.6517
L126.2272 88.6041
" />
<path d="M126.2272 88.6041
L126.0367 88.6041
" />
<path d="M126.0367 88.6041
L125.9415 88.6517
" />
<path d="M125.9415 88.6517
L125.8939 88.7470
" />
<path d="M125.8939 88.7470
L125.8939 88.8422
" />
<path d="M125.8939 88.8422
L126.3701 88.9375
" />
<path d="M124.7034 89.2708
L124.7034 88.2708
" />
<path d="M124.7034 88.6517
L124.6081 88.6041
" />
<path d="M124.6081 88.6041
L124.4177 88.6041
" />
<path d="M124.4177 88.6041
L124.3224 88.6517
" />
<path d="M124.3224 88.6517
L124.2748 88.6994
" />
<path d="M124.2748 88.6994
L124.2272 88.7946
" />
<path d="M124.2272 88.7946
L124.2272 89.0803
" />
<path d="M124.2272 89.0803
L124.2748 89.1756
" />
<path d="M124.2748 89.1756
L124.3224 89.2232
" />
<path d="M124.3224 89.2232
L124.4177 89.2708
" />
<path d="M124.4177 89.2708
L124.6081 89.2708
" />
<path d="M124.6081 89.2708
L124.7034 89.2232
" />
<path d="M123.6558 89.2708
L123.7510 89.2232
" />
<path d="M123.7510 89.2232
L123.7986 89.1756
" />
<path d="M123.7986 89.1756
L123.8462 89.0803
" />
<path d="M123.8462 89.0803
L123.8462 88.7946
" />
<path d="M123.8462 88.7946
L123.7986 88.6994
" />
<path d="M123.7986 88.6994
L123.7510 88.6517
" />
<path d="M123.7510 88.6517
L123.6558 88.6041
" />
<path d="M123.6558 88.6041
L123.5129 88.6041
" />
<path d="M123.5129 88.6041
L123.4177 88.6517
" />
<path d="M123.4177 88.6517
L123.3701 88.6994
" />
<path d="M123.3701 88.6994
L123.3224 88.7946
" />
<path d="M123.3224 88.7946
L123.3224 89.0803
" />
<path d="M123.3224 89.0803
L123.3701 89.1756
" />
<path d="M123.3701 89.1756
L123.4177 89.2232
" />
<path d="M123.4177 89.2232
L123.5129 89.2708
" />
<path d="M123.5129 89.2708
L123.6558 89.2708
" />
<path d="M122.4653 89.2708
L122.4653 88.7470
" />
<path d="M122.4653 88.7470
L122.5129 88.6517
" />
<path d="M122.5129 88.6517
L122.6081 88.6041
" />
<path d="M122.6081 88.6041
L122.7986 88.6041
" />
<path d="M122.7986 88.6041
L122.8939 88.6517
" />
<path d="M122.4653 89.2232
L122.5605 89.2708
" />
<path d="M122.5605 89.2708
L122.7986 89.2708
" />
<path d="M122.7986 89.2708
L122.8939 89.2232
" />
<path d="M122.8939 89.2232
L122.9415 89.1279
" />
<path d="M122.9415 89.1279
L122.9415 89.0327
" />
<path d="M122.9415 89.0327
L122.8939 88.9375
" />
<path d="M122.8939 88.9375
L122.7986 88.8898
" />
<path d="M122.7986 88.8898
L122.5605 88.8898
" />
<path d="M122.5605 88.8898
L122.4653 88.8422
" />
<path d="M121.9891 89.2708
L121.9891 88.6041
" />
<path d="M121.9891 88.7946
L121.9415 88.6994
" />
<path d="M121.9415 88.6994
L121.8939 88.6517
" />
<path d="M121.8939 88.6517
L121.7986 88.6041
" />
<path d="M121.7986 88.6041
L121.7034 88.6041
" />
<path d="M120.9415 89.2708
L120.9415 88.2708
" />
<path d="M120.9415 89.2232
L121.0367 89.2708
" />
<path d="M121.0367 89.2708
L121.2272 89.2708
" />
<path d="M121.2272 89.2708
L121.3224 89.2232
" />
<path d="M121.3224 89.2232
L121.3701 89.1756
" />
<path d="M121.3701 89.1756
L121.4177 89.0803
" />
<path d="M121.4177 89.0803
L121.4177 88.7946
" />
<path d="M121.4177 88.7946
L121.3701 88.6994
" />
<path d="M121.3701 88.6994
L121.3224 88.6517
" />
<path d="M121.3224 88.6517
L121.2272 88.6041
" />
<path d="M121.2272 88.6041
L121.0367 88.6041
" />
<path d="M121.0367 88.6041
L120.9415 88.6517
" />
</g><text x="167.6146" y="82.4912"
transform="scale(-1 1) translate(-335.229200 0)"
textLength="2.9643" font-size="1.3333" lengthAdjust="spacingAndGlyphs"
text-anchor="middle" opacity="0" stroke-opacity="0">TP2</text>
<g class="stroked-text"><desc>TP2</desc>
<path d="M168.8765 81.4460
L168.3051 81.4460
" />
<path d="M168.5908 82.4460
L168.5908 81.4460
" />
<path d="M167.9717 82.4460
L167.9717 81.4460
" />
<path d="M167.9717 81.4460
L167.5908 81.4460
" />
<path d="M167.5908 81.4460
L167.4956 81.4936
" />
<path d="M167.4956 81.4936
L167.4479 81.5413
" />
<path d="M167.4479 81.5413
L167.4003 81.6365
" />
<path d="M167.4003 81.6365
L167.4003 81.7794
" />
<path d="M167.4003 81.7794
L167.4479 81.8746
" />
<path d="M167.4479 81.8746
L167.4956 81.9222
" />
<path d="M167.4956 81.9222
L167.5908 81.9698
" />
<path d="M167.5908 81.9698
L167.9717 81.9698
" />
<path d="M167.0194 81.5413
L166.9717 81.4936
" />
<path d="M166.9717 81.4936
L166.8765 81.4460
" />
<path d="M166.8765 81.4460
L166.6384 81.4460
" />
<path d="M166.6384 81.4460
L166.5432 81.4936
" />
<path d="M166.5432 81.4936
L166.4956 81.5413
" />
<path d="M166.4956 81.5413
L166.4479 81.6365
" />
<path d="M166.4479 81.6365
L166.4479 81.7317
" />
<path d="M166.4479 81.7317
L166.4956 81.8746
" />
<path d="M166.4956 81.8746
L167.0670 82.4460
" />
<path d="M167.0670 82.4460
L166.4479 82.4460
" />
</g><text x="175.8442" y="80.1290"
transform="scale(-1 1) translate(-351.688400 0)"
textLength="2.9643" font-size="1.3333" lengthAdjust="spacingAndGlyphs"
text-anchor="middle" opacity="0" stroke-opacity="0">TP3</text>
<g class="stroked-text"><desc>TP3</desc>
<path d="M177.1061 79.0838
L176.5347 79.0838
" />
<path d="M176.8204 80.0838
L176.8204 79.0838
" />
<path d="M176.2013 80.0838
L176.2013 79.0838
" />
<path d="M176.2013 79.0838
L175.8204 79.0838
" />
<path d="M175.8204 79.0838
L175.7252 79.1314
" />
<path d="M175.7252 79.1314
L175.6775 79.1791
" />
<path d="M175.6775 79.1791
L175.6299 79.2743
" />
<path d="M175.6299 79.2743
L175.6299 79.4172
" />
<path d="M175.6299 79.4172
L175.6775 79.5124
" />
<path d="M175.6775 79.5124
L175.7252 79.5600
" />
<path d="M175.7252 79.5600
L175.8204 79.6076
" />
<path d="M175.8204 79.6076
L176.2013 79.6076
" />
<path d="M175.2966 79.0838
L174.6775 79.0838
" />
<path d="M174.6775 79.0838
L175.0109 79.4648
" />
<path d="M175.0109 79.4648
L174.8680 79.4648
" />
<path d="M174.8680 79.4648
L174.7728 79.5124
" />
<path d="M174.7728 79.5124
L174.7252 79.5600
" />
<path d="M174.7252 79.5600
L174.6775 79.6552
" />
<path d="M174.6775 79.6552
L174.6775 79.8933
" />
<path d="M174.6775 79.8933
L174.7252 79.9886
" />
<path d="M174.7252 79.9886
L174.7728 80.0362
" />
<path d="M174.7728 80.0362
L174.8680 80.0838
" />
<path d="M174.8680 80.0838
L175.1537 80.0838
" />
<path d="M175.1537 80.0838
L175.2490 80.0362
" />
<path d="M175.2490 80.0362
L175.2966 79.9886
" />
</g><text x="178.9684" y="82.9992"
transform="scale(-1 1) translate(-357.936800 0)"
textLength="2.9643" font-size="1.3333" lengthAdjust="spacingAndGlyphs"
text-anchor="middle" opacity="0" stroke-opacity="0">TP4</text>
<g class="stroked-text"><desc>TP4</desc>
<path d="M180.2303 81.9540
L179.6589 81.9540
" />
<path d="M179.9446 82.9540
L179.9446 81.9540
" />
<path d="M179.3255 82.9540
L179.3255 81.9540
" />
<path d="M179.3255 81.9540
L178.9446 81.9540
" />
<path d="M178.9446 81.9540
L178.8494 82.0016
" />
<path d="M178.8494 82.0016
L178.8017 82.0493
" />
<path d="M178.8017 82.0493
L178.7541 82.1445
" />
<path d="M178.7541 82.1445
L178.7541 82.2874
" />
<path d="M178.7541 82.2874
L178.8017 82.3826
" />
<path d="M178.8017 82.3826
L178.8494 82.4302
" />
<path d="M178.8494 82.4302
L178.9446 82.4778
" />
<path d="M178.9446 82.4778
L179.3255 82.4778
" />
<path d="M177.8970 82.2874
L177.8970 82.9540
" />
<path d="M178.1351 81.9064
L178.3732 82.6207
" />
<path d="M178.3732 82.6207
L177.7541 82.6207
" />
</g><text x="179.0446" y="86.3774"
transform="scale(-1 1) translate(-358.089200 0)"
textLength="2.9643" font-size="1.3333" lengthAdjust="spacingAndGlyphs"
text-anchor="middle" opacity="0" stroke-opacity="0">TP5</text>
<g class="stroked-text"><desc>TP5</desc>
<path d="M180.3065 85.3322
L179.7351 85.3322
" />
<path d="M180.0208 86.3322
L180.0208 85.3322
" />
<path d="M179.4017 86.3322
L179.4017 85.3322
" />
<path d="M179.4017 85.3322
L179.0208 85.3322
" />
<path d="M179.0208 85.3322
L178.9256 85.3798
" />
<path d="M178.9256 85.3798
L178.8779 85.4275
" />
<path d="M178.8779 85.4275
L178.8303 85.5227
" />
<path d="M178.8303 85.5227
L178.8303 85.6656
" />
<path d="M178.8303 85.6656
L178.8779 85.7608
" />
<path d="M178.8779 85.7608
L178.9256 85.8084
" />
<path d="M178.9256 85.8084
L179.0208 85.8560
" />
<path d="M179.0208 85.8560
L179.4017 85.8560
" />
<path d="M177.9256 85.3322
L178.4017 85.3322
" />
<path d="M178.4017 85.3322
L178.4494 85.8084
" />
<path d="M178.4494 85.8084
L178.4017 85.7608
" />
<path d="M178.4017 85.7608
L178.3065 85.7132
" />
<path d="M178.3065 85.7132
L178.0684 85.7132
" />
<path d="M178.0684 85.7132
L177.9732 85.7608
" />
<path d="M177.9732 85.7608
L177.9256 85.8084
" />
<path d="M177.9256 85.8084
L177.8779 85.9036
" />
<path d="M177.8779 85.9036
L177.8779 86.1417
" />
<path d="M177.8779 86.1417
L177.9256 86.2370
" />
<path d="M177.9256 86.2370
L177.9732 86.2846
" />
<path d="M177.9732 86.2846
L178.0684 86.3322
" />
<path d="M178.0684 86.3322
L178.3065 86.3322
" />
<path d="M178.3065 86.3322
L178.4017 86.2846
" />
<path d="M178.4017 86.2846
L178.4494 86.2370
" />
</g><text x="164.3380" y="72.4582"
transform="scale(-1 1) translate(-328.676000 0)"
textLength="2.9643" font-size="1.3333" lengthAdjust="spacingAndGlyphs"
text-anchor="middle" opacity="0" stroke-opacity="0">TP6</text>
<g class="stroked-text"><desc>TP6</desc>
<path d="M165.5999 71.4130
L165.0285 71.4130
" />
<path d="M165.3142 72.4130
L165.3142 71.4130
" />
<path d="M164.6951 72.4130
L164.6951 71.4130
" />
<path d="M164.6951 71.4130
L164.3142 71.4130
" />
<path d="M164.3142 71.4130
L164.2190 71.4606
" />
<path d="M164.2190 71.4606
L164.1713 71.5083
" />
<path d="M164.1713 71.5083
L164.1237 71.6035
" />
<path d="M164.1237 71.6035
L164.1237 71.7464
" />
<path d="M164.1237 71.7464
L164.1713 71.8416
" />
<path d="M164.1713 71.8416
L164.2190 71.8892
" />
<path d="M164.2190 71.8892
L164.3142 71.9368
" />
<path d="M164.3142 71.9368
L164.6951 71.9368
" />
<path d="M163.2666 71.4130
L163.4570 71.4130
" />
<path d="M163.4570 71.4130
L163.5523 71.4606
" />
<path d="M163.5523 71.4606
L163.5999 71.5083
" />
<path d="M163.5999 71.5083
L163.6951 71.6511
" />
<path d="M163.6951 71.6511
L163.7428 71.8416
" />
<path d="M163.7428 71.8416
L163.7428 72.2225
" />
<path d="M163.7428 72.2225
L163.6951 72.3178
" />
<path d="M163.6951 72.3178
L163.6475 72.3654
" />
<path d="M163.6475 72.3654
L163.5523 72.4130
" />
<path d="M163.5523 72.4130
L163.3618 72.4130
" />
<path d="M163.3618 72.4130
L163.2666 72.3654
" />
<path d="M163.2666 72.3654
L163.2190 72.3178
" />
<path d="M163.2190 72.3178
L163.1713 72.2225
" />
<path d="M163.1713 72.2225
L163.1713 71.9844
" />
<path d="M163.1713 71.9844
L163.2190 71.8892
" />
<path d="M163.2190 71.8892
L163.2666 71.8416
" />
<path d="M163.2666 71.8416
L163.3618 71.7940
" />
<path d="M163.3618 71.7940
L163.5523 71.7940
" />
<path d="M163.5523 71.7940
L163.6475 71.8416
" />
<path d="M163.6475 71.8416
L163.6951 71.8892
" />
<path d="M163.6951 71.8892
L163.7428 71.9844
" />
</g><text x="153.4414" y="72.4582"
transform="scale(-1 1) translate(-306.882800 0)"
textLength="2.9643" font-size="1.3333" lengthAdjust="spacingAndGlyphs"
text-anchor="middle" opacity="0" stroke-opacity="0">TP8</text>
<g class="stroked-text"><desc>TP8</desc>
<path d="M154.7033 71.4130
L154.1319 71.4130
" />
<path d="M154.4176 72.4130
L154.4176 71.4130
" />
<path d="M153.7985 72.4130
L153.7985 71.4130
" />
<path d="M153.7985 71.4130
L153.4176 71.4130
" />
<path d="M153.4176 71.4130
L153.3224 71.4606
" />
<path d="M153.3224 71.4606
L153.2747 71.5083
" />
<path d="M153.2747 71.5083
L153.2271 71.6035
" />
<path d="M153.2271 71.6035
L153.2271 71.7464
" />
<path d="M153.2271 71.7464
L153.2747 71.8416
" />
<path d="M153.2747 71.8416
L153.3224 71.8892
" />
<path d="M153.3224 71.8892
L153.4176 71.9368
" />
<path d="M153.4176 71.9368
L153.7985 71.9368
" />
<path d="M152.6557 71.8416
L152.7509 71.7940
" />
<path d="M152.7509 71.7940
L152.7985 71.7464
" />
<path d="M152.7985 71.7464
L152.8462 71.6511
" />
<path d="M152.8462 71.6511
L152.8462 71.6035
" />
<path d="M152.8462 71.6035
L152.7985 71.5083
" />
<path d="M152.7985 71.5083
L152.7509 71.4606
" />
<path d="M152.7509 71.4606
L152.6557 71.4130
" />
<path d="M152.6557 71.4130
L152.4652 71.4130
" />
<path d="M152.4652 71.4130
L152.3700 71.4606
" />
<path d="M152.3700 71.4606
L152.3224 71.5083
" />
<path d="M152.3224 71.5083
L152.2747 71.6035
" />
<path d="M152.2747 71.6035
L152.2747 71.6511
" />
<path d="M152.2747 71.6511
L152.3224 71.7464
" />
<path d="M152.3224 71.7464
L152.3700 71.7940
" />
<path d="M152.3700 71.7940
L152.4652 71.8416
" />
<path d="M152.4652 71.8416
L152.6557 71.8416
" />
<path d="M152.6557 71.8416
L152.7509 71.8892
" />
<path d="M152.7509 71.8892
L152.7985 71.9368
" />
<path d="M152.7985 71.9368
L152.8462 72.0321
" />
<path d="M152.8462 72.0321
L152.8462 72.2225
" />
<path d="M152.8462 72.2225
L152.7985 72.3178
" />
<path d="M152.7985 72.3178
L152.7509 72.3654
" />
<path d="M152.7509 72.3654
L152.6557 72.4130
" />
<path d="M152.6557 72.4130
L152.4652 72.4130
" />
<path d="M152.4652 72.4130
L152.3700 72.3654
" />
<path d="M152.3700 72.3654
L152.3224 72.3178
" />
<path d="M152.3224 72.3178
L152.2747 72.2225
" />
<path d="M152.2747 72.2225
L152.2747 72.0321
" />
<path d="M152.2747 72.0321
L152.3224 71.9368
" />
<path d="M152.3224 71.9368
L152.3700 71.8892
" />
<path d="M152.3700 71.8892
L152.4652 71.8416
" />
</g><text x="155.9306" y="86.9616"
transform="scale(-1 1) translate(-311.861200 0)"
textLength="2.9643" font-size="1.3333" lengthAdjust="spacingAndGlyphs"
text-anchor="middle" opacity="0" stroke-opacity="0">TP9</text>
<g class="stroked-text"><desc>TP9</desc>
<path d="M157.1925 85.9164
L156.6211 85.9164
" />
<path d="M156.9068 86.9164
L156.9068 85.9164
" />
<path d="M156.2877 86.9164
L156.2877 85.9164
" />
<path d="M156.2877 85.9164
L155.9068 85.9164
" />
<path d="M155.9068 85.9164
L155.8116 85.9640
" />
<path d="M155.8116 85.9640
L155.7639 86.0117
" />
<path d="M155.7639 86.0117
L155.7163 86.1069
" />
<path d="M155.7163 86.1069
L155.7163 86.2498
" />
<path d="M155.7163 86.2498
L155.7639 86.3450
" />
<path d="M155.7639 86.3450
L155.8116 86.3926
" />
<path d="M155.8116 86.3926
L155.9068 86.4402
" />
<path d="M155.9068 86.4402
L156.2877 86.4402
" />
<path d="M155.2401 86.9164
L155.0496 86.9164
" />
<path d="M155.0496 86.9164
L154.9544 86.8688
" />
<path d="M154.9544 86.8688
L154.9068 86.8212
" />
<path d="M154.9068 86.8212
L154.8116 86.6783
" />
<path d="M154.8116 86.6783
L154.7639 86.4878
" />
<path d="M154.7639 86.4878
L154.7639 86.1069
" />
<path d="M154.7639 86.1069
L154.8116 86.0117
" />
<path d="M154.8116 86.0117
L154.8592 85.9640
" />
<path d="M154.8592 85.9640
L154.9544 85.9164
" />
<path d="M154.9544 85.9164
L155.1449 85.9164
" />
<path d="M155.1449 85.9164
L155.2401 85.9640
" />
<path d="M155.2401 85.9640
L155.2877 86.0117
" />
<path d="M155.2877 86.0117
L155.3354 86.1069
" />
<path d="M155.3354 86.1069
L155.3354 86.3450
" />
<path d="M155.3354 86.3450
L155.2877 86.4402
" />
<path d="M155.2877 86.4402
L155.2401 86.4878
" />
<path d="M155.2401 86.4878
L155.1449 86.5355
" />
<path d="M155.1449 86.5355
L154.9544 86.5355
" />
<path d="M154.9544 86.5355
L154.8592 86.4878
" />
<path d="M154.8592 86.4878
L154.8116 86.4402
" />
<path d="M154.8116 86.4402
L154.7639 86.3450
" />
</g></g>
<g style="fill:none; 
stroke:#000000; stroke-width:0.1200; stroke-opacity:1; 
stroke-linecap:round; stroke-linejoin:round;">
<circle cx="167.7924" cy="80.1624" r="0.7000" /> 
<circle cx="173.4820" cy="78.4860" r="0.7000" /> 
<circle cx="179.0700" cy="80.7720" r="0.7000" /> 
<circle cx="179.0700" cy="84.0740" r="0.7000" /> 
<circle cx="164.2872" cy="70.0532" r="0.7000" /> 
<circle cx="153.4922" cy="70.0278" r="0.7000" /> 
<circle cx="155.9560" cy="84.5820" r="0.7000" /> 
<path style="fill:#000000; fill-opacity:1.0000; 
stroke:#000000; stroke-width:0.0100; stroke-opacity:1; 
stroke-linecap:round; stroke-linejoin:round;fill-rule:evenodd;"
d="M 162.8508,94.3194
162.9119,94.3384
162.9871,94.3701
163.0235,94.3871
163.0497,94.3902
163.0555,94.3666
163.0556,94.3660
163.0679,94.3434
163.1103,94.3319
163.1925,94.3286
163.3295,94.3286
163.3295,95.5239
163.0555,95.5239
163.0555,94.6998
162.9875,94.6367
162.9662,94.6187
162.9028,94.5881
162.8248,94.5869
162.7185,94.6139
162.6827,94.6156
162.6407,94.5894
162.5848,94.5270
162.5576,94.4925
162.5255,94.4439
162.5206,94.4129
162.5386,94.3867
162.5937,94.3536
162.6794,94.3275
162.7723,94.3145
Z" /> 
<path style="fill:#000000; fill-opacity:1.0000; 
stroke:#000000; stroke-width:0.0100; stroke-opacity:1; 
stroke-linecap:round; stroke-linejoin:round;fill-rule:evenodd;"
d="M 163.2135,96.2127
163.2888,96.2479
163.3544,96.2995
163.3544,96.2479
163.3560,96.2283
163.3712,96.2075
163.4124,96.1983
163.4913,96.1963
163.6283,96.1963
163.6283,97.4165
163.3544,97.4165
163.3544,97.0192
163.3543,96.9964
163.3520,96.8361
163.3463,96.7055
163.3375,96.6113
163.3262,96.5602
163.3159,96.5409
163.2520,96.4804
163.1649,96.4536
163.0699,96.4661
163.0466,96.4746
162.9969,96.4896
162.9630,96.4849
162.9288,96.4545
162.8786,96.3921
162.7970,96.2891
162.8543,96.2427
162.9088,96.2148
163.0046,96.1959
163.1125,96.1953
Z" /> 
<path style="fill:#000000; fill-opacity:1.0000; 
stroke:#000000; stroke-width:0.0100; stroke-opacity:1; 
stroke-linecap:round; stroke-linejoin:round;fill-rule:evenodd;"
d="M 168.4095,97.4165
168.1605,97.4165
168.1605,97.0321
168.1602,96.9427
168.1573,96.7946
168.1502,96.6850
168.1371,96.6063
168.1166,96.5508
168.0871,96.5111
168.0470,96.4795
168.0033,96.4559
167.9515,96.4492
167.8778,96.4641
167.8542,96.4703
167.7951,96.4796
167.7528,96.4662
167.7038,96.4250
167.6946,96.4160
167.6432,96.3605
167.6100,96.3154
167.6055,96.3045
167.6145,96.2644
167.6602,96.2323
167.7322,96.2098
167.8205,96.1984
167.9146,96.1995
168.0044,96.2148
168.0795,96.2458
168.1033,96.2603
168.1434,96.2814
168.1583,96.2766
168.1605,96.2457
168.1610,96.2346
168.1730,96.2101
168.2102,96.1989
168.2850,96.1963
168.4095,96.1963
Z" /> 
<path style="fill:#000000; fill-opacity:1.0000; 
stroke:#000000; stroke-width:0.0100; stroke-opacity:1; 
stroke-linecap:round; stroke-linejoin:round;fill-rule:evenodd;"
d="M 163.8275,94.7162
163.8296,94.8906
163.8378,95.0315
163.8545,95.1338
163.8819,95.2035
163.9223,95.2461
163.9782,95.2675
164.0516,95.2733
164.1218,95.2681
164.1784,95.2477
164.2196,95.2063
164.2476,95.1381
164.2648,95.0376
164.2734,94.8989
164.2757,94.7162
164.2757,94.3286
164.5248,94.3286
164.5248,94.7959
164.5243,94.9207
164.5210,95.0820
164.5127,95.2050
164.4973,95.2967
164.4729,95.3643
164.4374,95.4147
164.3889,95.4550
164.3252,95.4922
164.1916,95.5393
164.0521,95.5423
163.9205,95.4990
163.8631,95.4709
163.8347,95.4667
163.8275,95.4865
163.8156,95.5088
163.7731,95.5206
163.6905,95.5239
163.5536,95.5239
163.5536,94.3286
163.8275,94.3286
Z" /> 
<path style="fill:#000000; fill-opacity:1.0000; 
stroke:#000000; stroke-width:0.0100; stroke-opacity:1; 
stroke-linecap:round; stroke-linejoin:round;fill-rule:evenodd;"
d="M 167.9909,94.3263
168.1044,94.3619
168.1545,94.3862
168.1796,94.3887
168.1854,94.3666
168.1854,94.3660
168.1977,94.3434
168.2401,94.3319
168.3223,94.3286
168.4593,94.3286
168.4593,95.5239
168.1854,95.5239
168.1854,95.1119
168.1852,94.9728
168.1839,94.8585
168.1805,94.7785
168.1738,94.7247
168.1630,94.6889
168.1468,94.6630
168.1242,94.6388
168.0935,94.6130
168.0052,94.5784
167.9126,94.5886
167.8277,94.6433
167.8034,94.6688
167.7860,94.6945
167.7743,94.7288
167.7672,94.7799
167.7636,94.8561
167.7622,94.9655
167.7620,95.1164
167.7620,95.5239
167.4881,95.5239
167.4886,95.0819
167.4887,95.0622
167.4911,94.8742
167.4984,94.7282
167.5124,94.6170
167.5352,94.5335
167.5685,94.4708
167.6142,94.4216
167.6743,94.3788
167.7362,94.3492
167.8611,94.3223
Z" /> 
<path style="fill:#000000; fill-opacity:1.0000; 
stroke:#000000; stroke-width:0.0100; stroke-opacity:1; 
stroke-linecap:round; stroke-linejoin:round;fill-rule:evenodd;"
d="M 162.1503,94.3343
162.2862,94.3873
162.4011,94.4747
162.4860,94.5947
162.4917,94.6069
162.5281,94.7263
162.5463,94.8689
162.5462,95.0173
162.5276,95.1543
162.4905,95.2625
162.4446,95.3378
162.3437,95.4446
162.2175,95.5125
162.1095,95.5399
161.9451,95.5429
161.7878,95.5015
161.6483,95.4175
161.5580,95.3431
161.6393,95.2592
161.6907,95.2095
161.7371,95.1818
161.7802,95.1879
161.8354,95.2251
161.8573,95.2397
161.9502,95.2694
162.0569,95.2694
162.1568,95.2387
162.1944,95.2141
162.2496,95.1412
162.2773,95.0343
162.2791,94.8885
162.2791,94.8884
162.2585,94.7580
162.2131,94.6676
162.1385,94.6117
162.0301,94.5847
161.9619,94.5811
161.9022,94.5959
161.8411,94.6389
161.7619,94.7055
161.6617,94.6250
161.6250,94.5941
161.5793,94.5499
161.5614,94.5238
161.5678,94.5121
161.6042,94.4760
161.6623,94.4302
161.7077,94.4003
161.8520,94.3391
162.0026,94.3177
Z" /> 
<path style="fill:#000000; fill-opacity:1.0000; 
stroke:#000000; stroke-width:0.0100; stroke-opacity:1; 
stroke-linecap:round; stroke-linejoin:round;fill-rule:evenodd;"
d="M 165.7140,95.0122
165.7070,95.0910
165.6763,95.2414
165.6214,95.3562
165.5378,95.4430
165.4211,95.5092
165.3757,95.5249
165.2584,95.5446
165.1349,95.5440
165.0307,95.5224
165.0286,95.5217
164.9446,95.4723
164.8598,95.3958
164.7894,95.3083
164.7487,95.2260
164.7367,95.1658
164.7263,95.0531
164.7246,94.9526
164.9755,94.9526
164.9905,95.0731
165.0257,95.1721
165.0791,95.2368
165.0993,95.2479
165.1765,95.2681
165.2657,95.2723
165.3408,95.2582
165.3701,95.2381
165.4113,95.1678
165.4371,95.0576
165.4461,94.9131
165.4460,94.8715
165.4429,94.7873
165.4325,94.7323
165.4107,94.6917
165.3733,94.6504
165.3023,94.6005
165.2098,94.5801
165.1204,94.5995
165.0462,94.6558
164.9992,94.7458
164.9828,94.8235
164.9755,94.9526
164.7246,94.9526
164.7241,94.9247
164.7297,94.7970
164.7426,94.6861
164.7625,94.6083
164.8090,94.5202
164.9075,94.4120
165.0335,94.3434
165.1831,94.3162
165.3526,94.3323
165.3808,94.3391
165.5122,94.3980
165.6112,94.4948
165.6778,94.6294
165.7121,94.8019
165.7131,94.9131
Z" /> 
<path style="fill:#000000; fill-opacity:1.0000; 
stroke:#000000; stroke-width:0.0100; stroke-opacity:1; 
stroke-linecap:round; stroke-linejoin:round;fill-rule:evenodd;"
d="M 165.9123,96.5873
165.9459,96.6877
165.9858,96.7989
166.0190,96.8832
166.0430,96.9336
166.0548,96.9433
166.0577,96.9349
166.0732,96.8830
166.0979,96.7963
166.1290,96.6845
166.1639,96.5574
166.2587,96.2087
166.4034,96.2012
166.4156,96.2006
166.4937,96.1998
166.5312,96.2078
166.5360,96.2261
166.5300,96.2439
166.5101,96.3051
166.4790,96.4020
166.4389,96.5276
166.3920,96.6751
166.3406,96.8375
166.1573,97.4165
165.9281,97.4165
165.8201,97.0492
165.8002,96.9817
165.7633,96.8591
165.7318,96.7569
165.7085,96.6843
165.6962,96.6504
165.6928,96.6479
165.6758,96.6698
165.6515,96.7276
165.6240,96.8123
165.6225,96.8173
165.5857,96.9423
165.5436,97.0839
165.5049,97.2123
165.4423,97.4190
165.2114,97.4040
165.1045,97.0678
165.0575,96.9201
165.0049,96.7545
164.9546,96.5956
164.9129,96.4640
164.8282,96.1963
165.1114,96.1963
165.1801,96.4515
165.1983,96.5190
165.2328,96.6447
165.2648,96.7591
165.2891,96.8437
165.3295,96.9807
165.4582,96.5947
165.5870,96.2087
165.6855,96.2013
165.7840,96.1939
Z" /> 
<path style="fill:#000000; fill-opacity:1.0000; 
stroke:#000000; stroke-width:0.0100; stroke-opacity:1; 
stroke-linecap:round; stroke-linejoin:round;fill-rule:evenodd;"
d="M 167.6110,96.8996
167.6078,97.0060
167.6015,97.0802
167.6004,97.0870
167.5577,97.2086
167.4796,97.3116
167.3773,97.3814
167.2674,97.4103
167.1322,97.4081
167.0078,97.3694
166.9754,97.3530
166.9337,97.3355
166.9179,97.3409
166.9154,97.3694
166.9142,97.3835
166.8993,97.4045
166.8579,97.4141
166.7784,97.4165
166.6414,97.4165
166.6414,96.8186
166.9154,96.8186
166.9173,96.9222
166.9253,96.9911
166.9423,97.0384
166.9714,97.0780
167.0482,97.1368
167.1381,97.1566
167.2253,97.1322
167.2987,97.0641
167.3181,97.0143
167.3324,96.9261
167.3387,96.8191
167.3367,96.7093
167.3262,96.6128
167.3069,96.5457
167.3007,96.5347
167.2412,96.4795
167.1605,96.4550
167.0739,96.4607
166.9965,96.4959
166.9435,96.5602
166.9413,96.5656
166.9281,96.6259
166.9189,96.7160
166.9154,96.8186
166.6414,96.8186
166.6414,95.7231
166.9154,95.7231
166.9154,96.3036
166.9661,96.2577
167.0149,96.2291
167.1074,96.2053
167.2155,96.1976
167.3210,96.2070
167.4059,96.2346
167.4666,96.2737
167.5292,96.3404
167.5713,96.4301
167.5966,96.5514
167.6088,96.7129
167.6106,96.7782
167.6107,96.8191
Z" /> 
<path style="fill:#000000; fill-opacity:1.0000; 
stroke:#000000; stroke-width:0.0100; stroke-opacity:1; 
stroke-linecap:round; stroke-linejoin:round;fill-rule:evenodd;"
d="M 171.9168,94.9947
171.9136,95.0727
171.9063,95.1678
171.8939,95.2352
171.8733,95.2886
171.8418,95.3417
171.8404,95.3437
171.7626,95.4298
171.6674,95.4954
171.5568,95.5343
171.4112,95.5470
171.2685,95.5221
171.1409,95.4622
171.0408,95.3697
171.0120,95.3260
170.9583,95.1901
170.9317,95.0224
170.9321,94.9800
171.1998,94.9800
171.2003,95.0593
171.2087,95.1123
171.2278,95.1530
171.2606,95.1955
171.3061,95.2377
171.3970,95.2753
171.4946,95.2683
171.5879,95.2160
171.6142,95.1910
171.6423,95.1482
171.6579,95.0881
171.6668,94.9943
171.6692,94.9239
171.6559,94.7802
171.6149,94.6772
171.5463,94.6146
171.4658,94.5846
171.3698,94.5871
171.2808,94.6377
171.2595,94.6570
171.2327,94.6908
171.2168,94.7349
171.2079,94.8026
171.2024,94.9069
171.1998,94.9800
170.9321,94.9800
170.9337,94.8311
170.9363,94.8040
170.9729,94.6302
171.0406,94.4953
171.1395,94.3992
171.2698,94.3416
171.4315,94.3224
171.4927,94.3242
171.6180,94.3462
171.7205,94.3987
171.8161,94.4887
171.8314,94.5067
171.8726,94.5675
171.8997,94.6364
171.9147,94.7236
171.9198,94.8396
171.9182,94.9239
Z" /> 
<path style="fill:#000000; fill-opacity:1.0000; 
stroke:#000000; stroke-width:0.0100; stroke-opacity:1; 
stroke-linecap:round; stroke-linejoin:round;fill-rule:evenodd;"
d="M 161.5286,94.8460
161.5254,95.0366
161.5249,95.0404
161.4891,95.2153
161.4244,95.3512
161.3289,95.4513
161.2004,95.5184
161.1768,95.5261
161.0306,95.5487
160.8793,95.5361
160.7387,95.4910
160.6244,95.4163
160.5388,95.3372
160.6298,95.2652
160.7208,95.1932
160.8305,95.2465
160.9574,95.2897
161.0695,95.2910
161.1612,95.2513
161.2271,95.1717
161.2508,95.1240
161.2640,95.0832
161.2563,95.0556
161.2221,95.0387
161.1554,95.0299
161.0505,95.0264
160.9015,95.0259
160.5405,95.0259
160.5405,94.8532
160.5431,94.7774
160.7974,94.7774
160.8096,94.7913
160.8457,94.7986
160.9145,94.8013
161.0244,94.8018
161.0833,94.8011
161.1763,94.7965
161.2394,94.7885
161.2626,94.7780
161.2567,94.7395
161.2148,94.6656
161.1449,94.6050
161.0617,94.5684
160.9796,94.5666
160.9177,94.5960
160.8477,94.6628
160.8031,94.7457
160.8005,94.7546
160.7974,94.7774
160.5431,94.7774
160.5437,94.7619
160.5532,94.6715
160.5669,94.6104
160.5768,94.5871
160.6492,94.4832
160.7537,94.3966
160.8759,94.3398
160.9397,94.3244
161.0916,94.3173
161.2270,94.3532
161.3421,94.4280
161.4332,94.5377
161.4966,94.6784
161.5156,94.7780
Z" /> 
<path style="fill:#000000; fill-opacity:1.0000; 
stroke:#000000; stroke-width:0.0100; stroke-opacity:1; 
stroke-linecap:round; stroke-linejoin:round;fill-rule:evenodd;"
d="M 166.4388,94.3278
166.5826,94.3639
166.6877,94.4307
166.7546,94.5287
166.7839,94.6584
166.7780,94.7825
166.7351,94.8873
166.6529,94.9647
166.5296,95.0163
166.3637,95.0437
166.2560,95.0581
166.1576,95.0891
166.1068,95.1341
166.1037,95.1928
166.1241,95.2295
166.1875,95.2729
166.2774,95.2935
166.3829,95.2907
166.4926,95.2640
166.5954,95.2131
166.6978,95.1453
166.7879,95.2365
166.8780,95.3277
166.8033,95.3887
166.7742,95.4098
166.6925,95.4580
166.6041,95.4995
166.5341,95.5233
166.4316,95.5405
166.3053,95.5407
166.1503,95.5217
166.0107,95.4736
165.9119,95.3972
165.8537,95.2923
165.8358,95.1586
165.8487,95.0411
165.8904,94.9448
165.9655,94.8759
166.0786,94.8300
166.2347,94.8030
166.2526,94.8011
166.3497,94.7886
166.4285,94.7756
166.4733,94.7645
166.4883,94.7556
166.5136,94.7095
166.5095,94.6506
166.4757,94.5994
166.4579,94.5882
166.3840,94.5703
166.2885,94.5715
166.1888,94.5906
166.1026,94.6262
166.0120,94.6796
165.9418,94.5975
165.9247,94.5766
165.8863,94.5208
165.8705,94.4829
165.8871,94.4597
165.9385,94.4234
166.0127,94.3844
166.0231,94.3796
166.1209,94.3422
166.2152,94.3243
166.3323,94.3208
Z" /> 
<path style="fill:#000000; fill-opacity:1.0000; 
stroke:#000000; stroke-width:0.0100; stroke-opacity:1; 
stroke-linecap:round; stroke-linejoin:round;fill-rule:evenodd;"
d="M 162.8057,96.8064
162.8025,96.8993
162.7730,97.0771
162.7123,97.2169
162.6199,97.3197
162.4953,97.3865
162.4550,97.3983
162.3112,97.4148
162.1593,97.4009
162.0221,97.3579
161.9738,97.3336
161.9045,97.2918
161.8625,97.2575
161.8563,97.2496
161.8447,97.2209
161.8614,97.1897
161.9123,97.1425
161.9369,97.1219
161.9853,97.0842
162.0106,97.0689
162.0179,97.0704
162.0595,97.0876
162.1217,97.1176
162.1420,97.1275
162.2616,97.1643
162.3655,97.1548
162.4566,97.0990
162.4672,97.0887
162.5179,97.0240
162.5469,96.9620
162.5629,96.8935
161.8105,96.8935
161.8106,96.7628
161.8107,96.7498
161.8208,96.6449
162.0844,96.6449
162.0875,96.6667
162.1035,96.6816
162.1415,96.6900
162.2110,96.6935
162.3209,96.6943
162.3821,96.6935
162.4723,96.6889
162.5344,96.6810
162.5575,96.6710
162.5378,96.5887
162.4802,96.5118
162.3970,96.4585
162.3009,96.4400
162.2302,96.4608
162.1595,96.5117
162.1057,96.5779
162.0844,96.6449
161.8208,96.6449
161.8262,96.5889
161.8716,96.4581
161.9507,96.3453
161.9990,96.2976
162.0987,96.2337
162.2177,96.2028
162.3680,96.2006
162.4407,96.2091
162.5747,96.2534
162.6774,96.3341
162.7495,96.4523
162.7920,96.6093
162.7963,96.6710
Z" /> 
<path style="fill:#000000; fill-opacity:1.0000; 
stroke:#000000; stroke-width:0.0100; stroke-opacity:1; 
stroke-linecap:round; stroke-linejoin:round;fill-rule:evenodd;"
d="M 169.6236,94.7767
169.6323,94.9511
169.6301,95.0272
169.6056,95.1936
169.5515,95.3247
169.4650,95.4261
169.3433,95.5031
169.2252,95.5390
169.0772,95.5459
168.9277,95.5195
168.7945,95.4610
168.7451,95.4285
168.6907,95.3869
168.6658,95.3595
168.6672,95.3481
168.6950,95.3096
168.7473,95.2629
168.8378,95.1939
168.9439,95.2468
168.9725,95.2599
169.0570,95.2884
169.1277,95.2998
169.1799,95.2904
169.2618,95.2454
169.3306,95.1754
169.3700,95.0944
169.3860,95.0259
168.6336,95.0259
168.6337,94.8951
168.6349,94.8537
168.6432,94.7648
168.9075,94.7648
168.9080,94.7699
168.9217,94.7858
168.9604,94.7955
169.0323,94.8004
169.1458,94.8018
169.1830,94.8017
169.2799,94.8009
169.3381,94.7970
169.3663,94.7880
169.3732,94.7716
169.3673,94.7457
169.3664,94.7428
169.3160,94.6528
169.2364,94.5908
169.1416,94.5677
169.1065,94.5695
169.0415,94.5916
168.9791,94.6478
168.9622,94.6676
168.9231,94.7243
168.9075,94.7648
168.6432,94.7648
168.6443,94.7534
168.6600,94.6703
168.6772,94.6239
168.7379,94.5228
168.8191,94.4310
168.9050,94.3680
168.9298,94.3564
169.0743,94.3176
169.2218,94.3217
169.3606,94.3669
169.4786,94.4515
169.5424,94.5295
169.5946,94.6393
169.6225,94.7716
Z" /> 
<path style="fill:#000000; fill-opacity:1.0000; 
stroke:#000000; stroke-width:0.0100; stroke-opacity:1; 
stroke-linecap:round; stroke-linejoin:round;fill-rule:evenodd;"
d="M 164.8358,97.0887
164.8057,97.2018
164.7404,97.2985
164.6414,97.3681
164.6317,97.3723
164.5233,97.4028
164.4012,97.4146
164.2851,97.4074
164.1948,97.3804
164.1587,97.3629
164.1323,97.3587
164.1263,97.3806
164.1151,97.4009
164.0717,97.4129
163.9875,97.4165
163.8486,97.4165
163.8567,96.9371
163.8576,96.8935
164.1263,96.8935
164.1263,96.9807
164.1357,97.0458
164.1761,97.1176
164.1911,97.1308
164.2522,97.1586
164.3442,97.1658
164.3994,97.1630
164.5027,97.1420
164.5668,97.1028
164.5884,97.0481
164.5644,96.9806
164.5504,96.9630
164.4878,96.9233
164.3888,96.9007
164.2477,96.8935
164.1263,96.8935
163.8576,96.8935
163.8589,96.8263
163.8648,96.6603
163.8746,96.5334
163.8903,96.4387
163.9139,96.3691
163.9473,96.3179
163.9924,96.2780
164.0512,96.2427
164.0816,96.2292
164.1865,96.2037
164.3131,96.1931
164.4440,96.1974
164.5618,96.2161
164.6493,96.2493
164.6797,96.2686
164.7497,96.3256
164.7734,96.3734
164.7676,96.3827
164.7318,96.4149
164.6739,96.4579
164.6443,96.4781
164.5939,96.5066
164.5611,96.5094
164.5307,96.4897
164.4549,96.4498
164.3529,96.4334
164.2487,96.4459
164.2467,96.4465
164.1732,96.4784
164.1368,96.5284
164.1267,96.6111
164.1263,96.6898
164.3862,96.6983
164.4276,96.6997
164.5320,96.7045
164.6020,96.7122
164.6493,96.7254
164.6857,96.7472
164.7228,96.7803
164.7841,96.8569
164.8291,96.9702
164.8335,97.0481
Z" /> 
<path style="fill:#000000; fill-opacity:1.0000; 
stroke:#000000; stroke-width:0.0100; stroke-opacity:1; 
stroke-linecap:round; stroke-linejoin:round;fill-rule:evenodd;"
d="M 169.6241,97.0846
169.6238,97.0878
169.5935,97.2158
169.5260,97.3120
169.4180,97.3813
169.3622,97.3982
169.2666,97.4113
169.1621,97.4145
169.0677,97.4072
169.0028,97.3893
168.9634,97.3749
168.9248,97.3893
168.9106,97.3976
168.8543,97.4111
168.7780,97.4165
168.6585,97.4165
168.6585,96.9346
168.6585,96.8935
168.9324,96.8935
168.9324,96.9893
168.9416,97.0621
168.9780,97.1262
168.9987,97.1401
169.0730,97.1617
169.1656,97.1671
169.2565,97.1562
169.3253,97.1287
169.3596,97.0924
169.3806,97.0278
169.3620,96.9766
169.3003,96.9321
169.2010,96.9036
169.0702,96.8935
168.9324,96.8935
168.6585,96.8935
168.6585,96.8929
168.6590,96.7358
168.6607,96.6190
168.6644,96.5348
168.6709,96.4753
168.6810,96.4329
168.6955,96.3997
168.7150,96.3680
168.7779,96.2938
168.8671,96.2372
168.9843,96.2059
169.1387,96.1963
169.1437,96.1963
169.2510,96.2012
169.3470,96.2133
169.4126,96.2302
169.4305,96.2387
169.4877,96.2746
169.5395,96.3174
169.5736,96.3558
169.5776,96.3789
169.5697,96.3852
169.4829,96.4519
169.4248,96.4912
169.3865,96.5071
169.3587,96.5034
169.3323,96.4840
169.2837,96.4598
169.2018,96.4437
169.1093,96.4395
169.0255,96.4480
168.9700,96.4700
168.9671,96.4726
168.9422,96.5228
168.9324,96.5978
168.9324,96.6943
169.1628,96.6944
169.2686,96.6961
169.3576,96.7034
169.4213,96.7184
169.4728,96.7431
169.4848,96.7507
169.5715,96.8343
169.6176,96.9448
169.6215,97.0278
Z" /> 
<path style="fill:#000000; fill-opacity:1.0000; 
stroke:#000000; stroke-width:0.0100; stroke-opacity:1; 
stroke-linecap:round; stroke-linejoin:round;fill-rule:evenodd;"
d="M 170.7503,97.4191
170.6195,97.4115
170.4888,97.4040
170.4826,97.0056
170.4807,96.9087
170.4755,96.7631
170.4665,96.6563
170.4522,96.5811
170.4308,96.5302
170.4008,96.4966
170.3604,96.4729
170.2846,96.4488
170.2092,96.4582
170.1296,96.5098
170.0530,96.5742
170.0530,97.4165
169.7791,97.4165
169.7791,96.9597
169.7793,96.8165
169.7808,96.6893
169.7843,96.5962
169.7907,96.5287
169.8008,96.4785
169.8156,96.4370
169.8357,96.3958
169.8405,96.3871
169.9041,96.3020
169.9785,96.2425
170.0683,96.2112
170.1871,96.1973
170.3061,96.2049
170.4029,96.2343
170.4763,96.2723
170.4763,95.4500
170.3757,95.5025
170.3336,95.5215
170.2009,95.5485
170.0690,95.5299
169.9467,95.4679
169.8429,95.3649
169.8266,95.3407
169.8110,95.3053
169.8008,95.2570
169.7949,95.1868
169.7922,95.0852
169.7917,94.9794
170.0548,94.9794
170.0550,95.0678
170.0617,95.1267
170.0769,95.1688
170.1024,95.2065
170.1348,95.2416
170.1866,95.2682
170.2647,95.2749
170.3336,95.2690
170.4019,95.2396
170.4458,95.1801
170.4693,95.0844
170.4763,94.9466
170.4745,94.8733
170.4565,94.7348
170.4193,94.6412
170.3632,94.5931
170.3064,94.5796
170.2077,94.5859
170.1242,94.6252
170.1043,94.6432
170.0831,94.6744
170.0700,94.7208
170.0623,94.7940
170.0570,94.9054
170.0548,94.9794
169.7917,94.9794
169.7915,94.9431
169.7918,94.8783
169.7956,94.7275
169.8062,94.6149
169.8263,94.5319
169.8587,94.4700
169.9058,94.4207
169.9706,94.3755
170.0231,94.3496
170.1476,94.3210
170.2788,94.3249
170.3954,94.3619
170.4455,94.3862
170.4706,94.3887
170.4763,94.3666
170.4763,94.3660
170.4886,94.3434
170.5311,94.3319
170.6133,94.3286
170.7503,94.3286
170.7503,94.9466
Z" /> 
<path style="fill:#000000; fill-opacity:1.0000; 
stroke:#000000; stroke-width:0.0100; stroke-opacity:1; 
stroke-linecap:round; stroke-linejoin:round;fill-rule:evenodd;"
d="M 166.9646,86.0732
167.0772,86.6704
167.4926,86.8416
167.9080,87.0129
168.4064,86.6740
168.5050,86.6072
168.6358,86.5195
168.7490,86.4446
168.8388,86.3863
168.8993,86.3485
168.9245,86.3351
168.9401,86.3447
168.9865,86.3847
169.0567,86.4505
169.1448,86.5359
169.2449,86.6349
169.3509,86.7415
169.4569,86.8496
169.5570,86.9533
169.6453,87.0464
169.7156,87.1229
169.7622,87.1768
169.7791,87.2020
169.7752,87.2129
169.7480,87.2612
169.6984,87.3408
169.6305,87.4455
169.5481,87.5688
169.4554,87.7047
169.4045,87.7788
169.3169,87.9078
169.2419,88.0204
169.1833,88.1105
169.1452,88.1719
169.1316,88.1986
169.1319,88.2001
169.1438,88.2340
169.1713,88.3031
169.2105,88.3984
169.2575,88.5110
169.3085,88.6317
169.3597,88.7516
169.4072,88.8616
169.4473,88.9527
169.4760,89.0159
169.4896,89.0422
169.4977,89.0445
169.5465,89.0550
169.6337,89.0724
169.7520,89.0953
169.8947,89.1224
170.0547,89.1523
170.1390,89.1682
170.2938,89.1984
170.4291,89.2263
170.5376,89.2504
170.6118,89.2689
170.6444,89.2802
170.6503,89.2915
170.6600,89.3466
170.6676,89.4383
170.6732,89.5581
170.6767,89.6972
170.6781,89.8471
170.6774,89.9992
170.6748,90.1447
170.6700,90.2751
170.6632,90.3818
170.6544,90.4560
170.6436,90.4892
170.6370,90.4930
170.5880,90.5091
170.5028,90.5303
170.3915,90.5545
170.2638,90.5791
170.2208,90.5870
170.0218,90.6235
169.8654,90.6529
169.7462,90.6763
169.6587,90.6950
169.5976,90.7101
169.5574,90.7230
169.5327,90.7348
169.5181,90.7467
169.5164,90.7486
169.4925,90.7903
169.4571,90.8664
169.4137,90.9682
169.3657,91.0866
169.3164,91.2128
169.2694,91.3378
169.2281,91.4526
169.1959,91.5483
169.1763,91.6161
169.1726,91.6469
169.1750,91.6509
169.2007,91.6896
169.2489,91.7609
169.3153,91.8583
169.3952,91.9752
169.4844,92.1051
169.5089,92.1408
169.5949,92.2690
169.6693,92.3836
169.7277,92.4779
169.7659,92.5450
169.7798,92.5782
169.7768,92.5870
169.7457,92.6300
169.6844,92.7002
169.5971,92.7930
169.4884,92.9035
169.3627,93.0271
169.2908,93.0962
169.1771,93.2040
169.0777,93.2962
168.9977,93.3682
168.9426,93.4150
168.9177,93.4317
168.9006,93.4255
168.8479,93.3961
168.7714,93.3481
168.6811,93.2874
168.6169,93.2432
168.4887,93.1553
168.3519,93.0619
168.2269,92.9771
167.9821,92.8115
167.7766,92.9226
167.7283,92.9483
167.6403,92.9921
167.5722,93.0224
167.5359,93.0337
167.5240,93.0192
167.4944,92.9640
167.4507,92.8730
167.3954,92.7519
167.3309,92.6066
167.2595,92.4427
167.1837,92.2662
167.1060,92.0828
167.0288,91.8981
166.9545,91.7181
166.8855,91.5486
166.8242,91.3951
166.7732,91.2637
166.7348,91.1599
166.7114,91.0897
166.7055,91.0588
166.7059,91.0579
166.7333,91.0293
166.7908,90.9845
166.8664,90.9328
166.8902,90.9170
167.0717,90.7672
167.2220,90.5888
167.3373,90.3892
167.4143,90.1758
167.4493,89.9561
167.4388,89.7375
167.3963,89.5430
167.3199,89.3467
167.2086,89.1715
167.0558,89.0051
166.9957,88.9519
166.8017,88.8210
166.5920,88.7327
166.3728,88.6865
166.1502,88.6815
165.9303,88.7168
165.7191,88.7918
165.5227,88.9056
165.3471,89.0574
165.1985,89.2464
165.1700,89.2932
165.0729,89.5072
165.0213,89.7300
165.0139,89.9559
165.0494,90.1791
165.1263,90.3938
165.2433,90.5943
165.3992,90.7748
165.5924,90.9295
165.5987,90.9337
165.6735,90.9864
165.7295,91.0312
165.7551,91.0588
165.7519,91.0804
165.7318,91.1434
165.6962,91.2410
165.6475,91.3675
165.5881,91.5171
165.5205,91.6840
165.4471,91.8625
165.3703,92.0466
165.2925,92.2308
165.2162,92.4091
165.1438,92.5759
165.0777,92.7253
165.0204,92.8516
164.9743,92.9489
164.9417,93.0115
164.9252,93.0337
164.9115,93.0307
164.8577,93.0091
164.7781,92.9713
164.6844,92.9226
164.4790,92.8115
164.2342,92.9771
164.1618,93.0261
164.0273,93.1177
163.8932,93.2095
163.7800,93.2874
163.7175,93.3299
163.6362,93.3826
163.5760,93.4188
163.5466,93.4322
163.5340,93.4265
163.4883,93.3916
163.4178,93.3303
163.3288,93.2486
163.2273,93.1524
163.1194,93.0478
163.0113,92.9408
162.9091,92.8375
162.8190,92.7439
162.7470,92.6660
162.6993,92.6099
162.6820,92.5816
162.6830,92.5762
162.7036,92.5323
162.7474,92.4564
162.8104,92.3553
162.8882,92.2359
162.9767,92.1051
163.0015,92.0690
163.0886,91.9420
163.1653,91.8297
163.2272,91.7387
163.2698,91.6756
163.2885,91.6469
163.2890,91.6457
163.2835,91.6106
163.2623,91.5395
163.2290,91.4413
163.1869,91.3250
163.1396,91.1995
163.0903,91.0737
163.0426,90.9566
162.9998,90.8571
162.9655,90.7841
162.9430,90.7467
162.9407,90.7443
162.9246,90.7325
162.8974,90.7207
162.8536,90.7075
162.7879,90.6918
162.6949,90.6723
162.5690,90.6478
162.4050,90.6172
162.1973,90.5791
162.1542,90.5711
162.0308,90.5464
161.9270,90.5229
161.8526,90.5031
161.8175,90.4892
161.8116,90.4777
161.8018,90.4221
161.7941,90.3300
161.7884,90.2100
161.7847,90.0706
161.7831,89.9206
161.7835,89.7686
161.7860,89.6232
161.7905,89.4930
161.7972,89.3867
161.8059,89.3129
161.8167,89.2802
161.8277,89.2754
161.8825,89.2602
161.9752,89.2387
162.0984,89.2124
162.2445,89.1831
162.4064,89.1523
162.4948,89.1358
162.6463,89.1073
162.7766,89.0823
162.8790,89.0622
162.9462,89.0484
162.9715,89.0422
162.9724,89.0409
162.9885,89.0084
163.0192,88.9405
163.0606,88.8460
163.1089,88.7340
163.1604,88.6135
163.2110,88.4936
163.2571,88.3832
163.2947,88.2915
163.3202,88.2273
163.3295,88.1998
163.3254,88.1901
163.2980,88.1440
163.2484,88.0664
163.1805,87.9635
163.0983,87.8412
163.0057,87.7056
162.9550,87.6314
162.8674,87.5013
162.7923,87.3871
162.7337,87.2951
162.6956,87.2314
162.6820,87.2023
162.6915,87.1866
162.7310,87.1395
162.7958,87.0682
162.8799,86.9788
162.9775,86.8772
163.0825,86.7696
163.1890,86.6620
163.2911,86.5604
163.3828,86.4709
163.4581,86.3995
163.5112,86.3522
163.5360,86.3351
163.5498,86.3417
163.6004,86.3726
163.6821,86.4251
163.7890,86.4954
163.9151,86.5796
164.0547,86.6740
164.5531,87.0129
164.9685,86.8416
165.3839,86.6704
165.4965,86.0732
165.6090,85.4760
166.8521,85.4760
Z" /> 
</g>
<g style="fill:#000000; fill-opacity:1.0000; stroke:none;">
<circle cx="177.0000" cy="97.0000" r="1.3500" /> 
</g>
<g style="fill:#000000; fill-opacity:1.0000; stroke:none;">
<circle cx="123.0000" cy="97.0000" r="1.3500" /> 
</g>
<g style="fill:#000000; fill-opacity:1.0000; stroke:none;">
<circle cx="123.0000" cy="69.5000" r="1.3500" /> 
</g>
<g style="fill:#000000; fill-opacity:1.0000; stroke:none;">
<circle cx="177.0000" cy="69.5000" r="1.3500" /> 
</g>
<g style="fill:none; 
stroke:#000000; stroke-width:1.5000; stroke-opacity:1; 
stroke-linecap:round; stroke-linejoin:round;">
<path d="M123.2000 81.4500
L123.2000 80.9500
" />
</g>
<g style="fill:#000000; fill-opacity:1.0000; stroke:none;">
<circle cx="127.6000" cy="81.2000" r="1.0000" /> 
</g>
<g style="fill:#000000; fill-opacity:1.0000; stroke:none;">
<circle cx="136.3000" cy="79.5000" r="0.5000" /> 
</g>
<g style="fill:#000000; fill-opacity:1.0000; stroke:none;">
<circle cx="136.3000" cy="76.9600" r="0.5000" /> 
</g>
<g style="fill:#000000; fill-opacity:1.0000; stroke:none;">
<circle cx="136.3000" cy="74.4200" r="0.5000" /> 
</g>
<g style="fill:#000000; fill-opacity:1.0000; stroke:none;">
<circle cx="136.3000" cy="71.8800" r="0.5000" /> 
</g>
<g style="fill:#000000; fill-opacity:1.0000; stroke:none;">
<circle cx="136.3000" cy="69.3400" r="0.5000" /> 
</g>
<g style="fill:#000000; fill-opacity:1.0000; stroke:none;">
<circle cx="151.8920" cy="95.2500" r="0.5000" /> 
</g>
<g style="fill:#000000; fill-opacity:1.0000; stroke:none;">
<circle cx="154.4320" cy="95.2500" r="0.5000" /> 
</g>
<g style="fill:#000000; fill-opacity:1.0000; stroke:none;">
<circle cx="151.8920" cy="97.7900" r="0.5000" /> 
</g>
<g style="fill:#000000; fill-opacity:1.0000; stroke:none;">
<circle cx="154.4320" cy="97.7900" r="0.5000" /> 
</g>
<g style="fill:#000000; fill-opacity:1.0000; stroke:none;">
<circle cx="141.1224" cy="97.7646" r="0.5000" /> 
</g>
<g style="fill:#000000; fill-opacity:1.0000; stroke:none;">
<circle cx="141.1224" cy="95.2246" r="0.5000" /> 
</g>
<g style="fill:#000000; fill-opacity:1.0000; stroke:none;">
<circle cx="143.6624" cy="97.7646" r="0.5000" /> 
</g>
<g style="fill:#000000; fill-opacity:1.0000; stroke:none;">
<circle cx="143.6624" cy="95.2246" r="0.5000" /> 
</g>
<g style="fill:#000000; fill-opacity:1.0000; stroke:none;">
<circle cx="146.2024" cy="97.7646" r="0.5000" /> 
</g>
<g style="fill:#000000; fill-opacity:1.0000; stroke:none;">
<circle cx="146.2024" cy="95.2246" r="0.5000" /> 
</g>
<g style="fill:#000000; fill-opacity:1.0000; stroke:none;">
<circle cx="140.9700" cy="77.2160" r="0.5000" /> 
</g>
<g style="fill:#000000; fill-opacity:1.0000; stroke:none;">
<circle cx="140.9700" cy="79.7560" r="0.5000" /> 
</g>
<g style="fill:#000000; fill-opacity:1.0000; stroke:none;">
<circle cx="140.9700" cy="82.2960" r="0.5000" /> 
</g>
<g style="fill:#000000; fill-opacity:1.0000; stroke:none;">
<circle cx="140.9700" cy="84.8360" r="0.5000" /> 
</g>
<g style="fill:#000000; fill-opacity:1.0000; stroke:none;">
<circle cx="140.9700" cy="87.3760" r="0.5000" /> 
</g>
<g style="fill:#000000; fill-opacity:1.0000; stroke:none;">
<circle cx="140.9700" cy="89.9160" r="0.5000" /> 
</g>
<g style="fill:#000000; fill-opacity:1.0000; stroke:none;">
<circle cx="173.4820" cy="81.5340" r="0.4750" /> 
</g>
<g style="fill:#000000; fill-opacity:1.0000; stroke:none;">
<circle cx="173.4820" cy="84.0340" r="0.4750" /> 
</g>
<g style="fill:#000000; fill-opacity:1.0000; stroke:none;">
<circle cx="175.4820" cy="84.0340" r="0.4750" /> 
</g>
<g style="fill:#000000; fill-opacity:1.0000; stroke:none;">
<circle cx="175.4820" cy="81.5340" r="0.4750" /> 
</g>
<g style="fill:#000000; fill-opacity:1.0000; stroke:none;">
<circle cx="178.3420" cy="76.7840" r="1.1500" /> 
</g>
<g style="fill:#000000; fill-opacity:1.0000; stroke:none;">
<circle cx="178.3420" cy="88.7840" r="1.1500" /> 
</g> 
</svg>
