<?xml version="1.0" standalone="no"?>
 <!DOCTYPE svg PUBLIC "-//W3C//DTD SVG 1.1//EN" 
 "http://www.w3.org/Graphics/SVG/1.1/DTD/svg11.dtd"> 
<svg
  xmlns:svg="http://www.w3.org/2000/svg"
  xmlns="http://www.w3.org/2000/svg"
  xmlns:xlink="http://www.w3.org/1999/xlink"
  version="1.1"
  width="29.700220cm" height="21.000720cm" viewBox="0 0 2970022 2100072">
<title>SVG Picture created as t1-F_Paste.svg date 2022/12/16 11:29:06 </title>
  <desc>Picture generated by PCBNEW </desc>
<g style="fill:#000000; fill-opacity:1.000000;stroke:#000000; stroke-opacity:1.000000;
stroke-linecap:round; stroke-linejoin:round;"
 transform="translate(0 0) scale(1 1)">
</g>
<g style="fill:#000000; fill-opacity:0.0; 
stroke:#000000; stroke-width:0.000000; stroke-opacity:1; 
stroke-linecap:round; stroke-linejoin:round;">
<g >
</g>
<g style="fill:#000000; fill-opacity:0.0; 
stroke:#000000; stroke-width:0.010000; stroke-opacity:1; 
stroke-linecap:round; stroke-linejoin:round;">
</g>
<g style="fill:#000000; fill-opacity:1.0; 
stroke:#000000; stroke-width:0.010000; stroke-opacity:1; 
stroke-linecap:round; stroke-linejoin:round;">
<path style="fill:#000000; fill-opacity:1.0; 
stroke:#000000; stroke-width:0.010000; stroke-opacity:1; 
stroke-linecap:round; stroke-linejoin:round;fill-rule:evenodd;"
d="M 1318354.000000,898944.000000
1319310.710000,899134.300000
1320121.770000,899676.230000
1320663.700000,900487.290000
1320854.000000,901444.000000
1320854.000000,931444.000000
1320663.700000,932400.710000
1320121.770000,933211.770000
1319310.710000,933753.700000
1318354.000000,933944.000000
1298354.000000,933944.000000
1297397.290000,933753.700000
1296586.230000,933211.770000
1296044.300000,932400.710000
1295854.000000,931444.000000
1295854.000000,901444.000000
1296044.300000,900487.290000
1296586.230000,899676.230000
1297397.290000,899134.300000
1298354.000000,898944.000000
Z" /> 
<path style="fill:#000000; fill-opacity:1.0; 
stroke:#000000; stroke-width:0.010000; stroke-opacity:1; 
stroke-linecap:round; stroke-linejoin:round;fill-rule:evenodd;"
d="M 1318354.000000,963944.000000
1319310.710000,964134.300000
1320121.770000,964676.230000
1320663.700000,965487.290000
1320854.000000,966444.000000
1320854.000000,996444.000000
1320663.700000,997400.710000
1320121.770000,998211.770000
1319310.710000,998753.700000
1318354.000000,998944.000000
1298354.000000,998944.000000
1297397.290000,998753.700000
1296586.230000,998211.770000
1296044.300000,997400.710000
1295854.000000,996444.000000
1295854.000000,966444.000000
1296044.300000,965487.290000
1296586.230000,964676.230000
1297397.290000,964134.300000
1298354.000000,963944.000000
Z" /> 
</g>
<g >
</g>
<g style="fill:#000000; fill-opacity:1.0; 
stroke:#000000; stroke-width:0.010000; stroke-opacity:1; 
stroke-linecap:round; stroke-linejoin:round;">
<path style="fill:#000000; fill-opacity:1.0; 
stroke:#000000; stroke-width:0.010000; stroke-opacity:1; 
stroke-linecap:round; stroke-linejoin:round;fill-rule:evenodd;"
d="M 1215750.000000,904437.500000
1215935.540000,903504.710000
1216463.930000,902713.930000
1217254.710000,902185.540000
1218187.500000,902000.000000
1223062.500000,902000.000000
1223995.290000,902185.540000
1224786.070000,902713.930000
1225314.460000,903504.710000
1225500.000000,904437.500000
1225500.000000,913562.500000
1225314.460000,914495.290000
1224786.070000,915286.070000
1223995.290000,915814.460000
1223062.500000,916000.000000
1218187.500000,916000.000000
1217254.710000,915814.460000
1216463.930000,915286.070000
1215935.540000,914495.290000
1215750.000000,913562.500000
Z" /> 
<path style="fill:#000000; fill-opacity:1.0; 
stroke:#000000; stroke-width:0.010000; stroke-opacity:1; 
stroke-linecap:round; stroke-linejoin:round;fill-rule:evenodd;"
d="M 1234500.000000,904437.500000
1234685.540000,903504.710000
1235213.930000,902713.930000
1236004.710000,902185.540000
1236937.500000,902000.000000
1241812.500000,902000.000000
1242745.290000,902185.540000
1243536.070000,902713.930000
1244064.460000,903504.710000
1244250.000000,904437.500000
1244250.000000,913562.500000
1244064.460000,914495.290000
1243536.070000,915286.070000
1242745.290000,915814.460000
1241812.500000,916000.000000
1236937.500000,916000.000000
1236004.710000,915814.460000
1235213.930000,915286.070000
1234685.540000,914495.290000
1234500.000000,913562.500000
Z" /> 
</g>
<g >
</g>
<g style="fill:#000000; fill-opacity:1.0; 
stroke:#000000; stroke-width:0.010000; stroke-opacity:1; 
stroke-linecap:round; stroke-linejoin:round;">
<path style="fill:#000000; fill-opacity:1.0; 
stroke:#000000; stroke-width:0.010000; stroke-opacity:1; 
stroke-linecap:round; stroke-linejoin:round;fill-rule:evenodd;"
d="M 1627162.500000,736910.000000
1628095.290000,737095.540000
1628886.070000,737623.930000
1629414.460000,738414.710000
1629600.000000,739347.500000
1629600.000000,744222.500000
1629414.460000,745155.290000
1628886.070000,745946.070000
1628095.290000,746474.460000
1627162.500000,746660.000000
1618037.500000,746660.000000
1617104.710000,746474.460000
1616313.930000,745946.070000
1615785.540000,745155.290000
1615600.000000,744222.500000
1615600.000000,739347.500000
1615785.540000,738414.710000
1616313.930000,737623.930000
1617104.710000,737095.540000
1618037.500000,736910.000000
Z" /> 
<path style="fill:#000000; fill-opacity:1.0; 
stroke:#000000; stroke-width:0.010000; stroke-opacity:1; 
stroke-linecap:round; stroke-linejoin:round;fill-rule:evenodd;"
d="M 1627162.500000,755660.000000
1628095.290000,755845.540000
1628886.070000,756373.930000
1629414.460000,757164.710000
1629600.000000,758097.500000
1629600.000000,762972.500000
1629414.460000,763905.290000
1628886.070000,764696.070000
1628095.290000,765224.460000
1627162.500000,765410.000000
1618037.500000,765410.000000
1617104.710000,765224.460000
1616313.930000,764696.070000
1615785.540000,763905.290000
1615600.000000,762972.500000
1615600.000000,758097.500000
1615785.540000,757164.710000
1616313.930000,756373.930000
1617104.710000,755845.540000
1618037.500000,755660.000000
Z" /> 
</g>
<g >
</g>
<g style="fill:#000000; fill-opacity:1.0; 
stroke:#000000; stroke-width:0.010000; stroke-opacity:1; 
stroke-linecap:round; stroke-linejoin:round;">
<path style="fill:#000000; fill-opacity:1.0; 
stroke:#000000; stroke-width:0.010000; stroke-opacity:1; 
stroke-linecap:round; stroke-linejoin:round;fill-rule:evenodd;"
d="M 1563662.500000,736910.000000
1564595.290000,737095.540000
1565386.070000,737623.930000
1565914.460000,738414.710000
1566100.000000,739347.500000
1566100.000000,744222.500000
1565914.460000,745155.290000
1565386.070000,745946.070000
1564595.290000,746474.460000
1563662.500000,746660.000000
1554537.500000,746660.000000
1553604.710000,746474.460000
1552813.930000,745946.070000
1552285.540000,745155.290000
1552100.000000,744222.500000
1552100.000000,739347.500000
1552285.540000,738414.710000
1552813.930000,737623.930000
1553604.710000,737095.540000
1554537.500000,736910.000000
Z" /> 
<path style="fill:#000000; fill-opacity:1.0; 
stroke:#000000; stroke-width:0.010000; stroke-opacity:1; 
stroke-linecap:round; stroke-linejoin:round;fill-rule:evenodd;"
d="M 1563662.500000,755660.000000
1564595.290000,755845.540000
1565386.070000,756373.930000
1565914.460000,757164.710000
1566100.000000,758097.500000
1566100.000000,762972.500000
1565914.460000,763905.290000
1565386.070000,764696.070000
1564595.290000,765224.460000
1563662.500000,765410.000000
1554537.500000,765410.000000
1553604.710000,765224.460000
1552813.930000,764696.070000
1552285.540000,763905.290000
1552100.000000,762972.500000
1552100.000000,758097.500000
1552285.540000,757164.710000
1552813.930000,756373.930000
1553604.710000,755845.540000
1554537.500000,755660.000000
Z" /> 
</g>
<g >
</g>
<g style="fill:#000000; fill-opacity:1.0; 
stroke:#000000; stroke-width:0.010000; stroke-opacity:1; 
stroke-linecap:round; stroke-linejoin:round;">
<path style="fill:#000000; fill-opacity:1.0; 
stroke:#000000; stroke-width:0.010000; stroke-opacity:1; 
stroke-linecap:round; stroke-linejoin:round;fill-rule:evenodd;"
d="M 1637782.500000,877290.000000
1638715.290000,877475.540000
1639506.070000,878003.930000
1640034.460000,878794.710000
1640220.000000,879727.500000
1640220.000000,884602.500000
1640034.460000,885535.290000
1639506.070000,886326.070000
1638715.290000,886854.460000
1637782.500000,887040.000000
1628657.500000,887040.000000
1627724.710000,886854.460000
1626933.930000,886326.070000
1626405.540000,885535.290000
1626220.000000,884602.500000
1626220.000000,879727.500000
1626405.540000,878794.710000
1626933.930000,878003.930000
1627724.710000,877475.540000
1628657.500000,877290.000000
Z" /> 
<path style="fill:#000000; fill-opacity:1.0; 
stroke:#000000; stroke-width:0.010000; stroke-opacity:1; 
stroke-linecap:round; stroke-linejoin:round;fill-rule:evenodd;"
d="M 1637782.500000,896040.000000
1638715.290000,896225.540000
1639506.070000,896753.930000
1640034.460000,897544.710000
1640220.000000,898477.500000
1640220.000000,903352.500000
1640034.460000,904285.290000
1639506.070000,905076.070000
1638715.290000,905604.460000
1637782.500000,905790.000000
1628657.500000,905790.000000
1627724.710000,905604.460000
1626933.930000,905076.070000
1626405.540000,904285.290000
1626220.000000,903352.500000
1626220.000000,898477.500000
1626405.540000,897544.710000
1626933.930000,896753.930000
1627724.710000,896225.540000
1628657.500000,896040.000000
Z" /> 
</g>
<g >
</g>
<g style="fill:#000000; fill-opacity:1.0; 
stroke:#000000; stroke-width:0.010000; stroke-opacity:1; 
stroke-linecap:round; stroke-linejoin:round;">
<path style="fill:#000000; fill-opacity:1.0; 
stroke:#000000; stroke-width:0.010000; stroke-opacity:1; 
stroke-linecap:round; stroke-linejoin:round;fill-rule:evenodd;"
d="M 1525498.000000,784107.500000
1525683.540000,783174.710000
1526211.930000,782383.930000
1527002.710000,781855.540000
1527935.500000,781670.000000
1532810.500000,781670.000000
1533743.290000,781855.540000
1534534.070000,782383.930000
1535062.460000,783174.710000
1535248.000000,784107.500000
1535248.000000,793232.500000
1535062.460000,794165.290000
1534534.070000,794956.070000
1533743.290000,795484.460000
1532810.500000,795670.000000
1527935.500000,795670.000000
1527002.710000,795484.460000
1526211.930000,794956.070000
1525683.540000,794165.290000
1525498.000000,793232.500000
Z" /> 
<path style="fill:#000000; fill-opacity:1.0; 
stroke:#000000; stroke-width:0.010000; stroke-opacity:1; 
stroke-linecap:round; stroke-linejoin:round;fill-rule:evenodd;"
d="M 1544248.000000,784107.500000
1544433.540000,783174.710000
1544961.930000,782383.930000
1545752.710000,781855.540000
1546685.500000,781670.000000
1551560.500000,781670.000000
1552493.290000,781855.540000
1553284.070000,782383.930000
1553812.460000,783174.710000
1553998.000000,784107.500000
1553998.000000,793232.500000
1553812.460000,794165.290000
1553284.070000,794956.070000
1552493.290000,795484.460000
1551560.500000,795670.000000
1546685.500000,795670.000000
1545752.710000,795484.460000
1544961.930000,794956.070000
1544433.540000,794165.290000
1544248.000000,793232.500000
Z" /> 
</g>
<g >
</g>
<g style="fill:#000000; fill-opacity:1.0; 
stroke:#000000; stroke-width:0.010000; stroke-opacity:1; 
stroke-linecap:round; stroke-linejoin:round;">
<path style="fill:#000000; fill-opacity:1.0; 
stroke:#000000; stroke-width:0.010000; stroke-opacity:1; 
stroke-linecap:round; stroke-linejoin:round;fill-rule:evenodd;"
d="M 1442983.500000,803936.000000
1442050.710000,803750.460000
1441259.930000,803222.070000
1440731.540000,802431.290000
1440546.000000,801498.500000
1440546.000000,796623.500000
1440731.540000,795690.710000
1441259.930000,794899.930000
1442050.710000,794371.540000
1442983.500000,794186.000000
1452108.500000,794186.000000
1453041.290000,794371.540000
1453832.070000,794899.930000
1454360.460000,795690.710000
1454546.000000,796623.500000
1454546.000000,801498.500000
1454360.460000,802431.290000
1453832.070000,803222.070000
1453041.290000,803750.460000
1452108.500000,803936.000000
Z" /> 
<path style="fill:#000000; fill-opacity:1.0; 
stroke:#000000; stroke-width:0.010000; stroke-opacity:1; 
stroke-linecap:round; stroke-linejoin:round;fill-rule:evenodd;"
d="M 1442983.500000,785186.000000
1442050.710000,785000.460000
1441259.930000,784472.070000
1440731.540000,783681.290000
1440546.000000,782748.500000
1440546.000000,777873.500000
1440731.540000,776940.710000
1441259.930000,776149.930000
1442050.710000,775621.540000
1442983.500000,775436.000000
1452108.500000,775436.000000
1453041.290000,775621.540000
1453832.070000,776149.930000
1454360.460000,776940.710000
1454546.000000,777873.500000
1454546.000000,782748.500000
1454360.460000,783681.290000
1453832.070000,784472.070000
1453041.290000,785000.460000
1452108.500000,785186.000000
Z" /> 
</g>
<g >
</g>
<g style="fill:#000000; fill-opacity:1.0; 
stroke:#000000; stroke-width:0.010000; stroke-opacity:1; 
stroke-linecap:round; stroke-linejoin:round;">
<path style="fill:#000000; fill-opacity:1.0; 
stroke:#000000; stroke-width:0.010000; stroke-opacity:1; 
stroke-linecap:round; stroke-linejoin:round;fill-rule:evenodd;"
d="M 1621890.000000,987990.000000
1620933.290000,987799.700000
1620122.230000,987257.770000
1619580.300000,986446.710000
1619390.000000,985490.000000
1619390.000000,977990.000000
1619580.300000,977033.290000
1620122.230000,976222.230000
1620933.290000,975680.300000
1621890.000000,975490.000000
1634390.000000,975490.000000
1635346.710000,975680.300000
1636157.770000,976222.230000
1636699.700000,977033.290000
1636890.000000,977990.000000
1636890.000000,985490.000000
1636699.700000,986446.710000
1636157.770000,987257.770000
1635346.710000,987799.700000
1634390.000000,987990.000000
Z" /> 
<path style="fill:#000000; fill-opacity:1.0; 
stroke:#000000; stroke-width:0.010000; stroke-opacity:1; 
stroke-linecap:round; stroke-linejoin:round;fill-rule:evenodd;"
d="M 1621890.000000,959990.000000
1620933.290000,959799.700000
1620122.230000,959257.770000
1619580.300000,958446.710000
1619390.000000,957490.000000
1619390.000000,949990.000000
1619580.300000,949033.290000
1620122.230000,948222.230000
1620933.290000,947680.300000
1621890.000000,947490.000000
1634390.000000,947490.000000
1635346.710000,947680.300000
1636157.770000,948222.230000
1636699.700000,949033.290000
1636890.000000,949990.000000
1636890.000000,957490.000000
1636699.700000,958446.710000
1636157.770000,959257.770000
1635346.710000,959799.700000
1634390.000000,959990.000000
Z" /> 
</g>
<g >
</g>
<g style="fill:#000000; fill-opacity:1.0; 
stroke:#000000; stroke-width:0.010000; stroke-opacity:1; 
stroke-linecap:round; stroke-linejoin:round;">
<path style="fill:#000000; fill-opacity:1.0; 
stroke:#000000; stroke-width:0.010000; stroke-opacity:1; 
stroke-linecap:round; stroke-linejoin:round;fill-rule:evenodd;"
d="M 1468637.500000,763750.000000
1467704.710000,763564.460000
1466913.930000,763036.070000
1466385.540000,762245.290000
1466200.000000,761312.500000
1466200.000000,756437.500000
1466385.540000,755504.710000
1466913.930000,754713.930000
1467704.710000,754185.540000
1468637.500000,754000.000000
1477762.500000,754000.000000
1478695.290000,754185.540000
1479486.070000,754713.930000
1480014.460000,755504.710000
1480200.000000,756437.500000
1480200.000000,761312.500000
1480014.460000,762245.290000
1479486.070000,763036.070000
1478695.290000,763564.460000
1477762.500000,763750.000000
Z" /> 
<path style="fill:#000000; fill-opacity:1.0; 
stroke:#000000; stroke-width:0.010000; stroke-opacity:1; 
stroke-linecap:round; stroke-linejoin:round;fill-rule:evenodd;"
d="M 1468637.500000,745000.000000
1467704.710000,744814.460000
1466913.930000,744286.070000
1466385.540000,743495.290000
1466200.000000,742562.500000
1466200.000000,737687.500000
1466385.540000,736754.710000
1466913.930000,735963.930000
1467704.710000,735435.540000
1468637.500000,735250.000000
1477762.500000,735250.000000
1478695.290000,735435.540000
1479486.070000,735963.930000
1480014.460000,736754.710000
1480200.000000,737687.500000
1480200.000000,742562.500000
1480014.460000,743495.290000
1479486.070000,744286.070000
1478695.290000,744814.460000
1477762.500000,745000.000000
Z" /> 
</g>
<g >
</g>
<g style="fill:#000000; fill-opacity:1.0; 
stroke:#000000; stroke-width:0.010000; stroke-opacity:1; 
stroke-linecap:round; stroke-linejoin:round;">
<path style="fill:#000000; fill-opacity:1.0; 
stroke:#000000; stroke-width:0.010000; stroke-opacity:1; 
stroke-linecap:round; stroke-linejoin:round;fill-rule:evenodd;"
d="M 1443237.500000,763750.000000
1442304.710000,763564.460000
1441513.930000,763036.070000
1440985.540000,762245.290000
1440800.000000,761312.500000
1440800.000000,756437.500000
1440985.540000,755504.710000
1441513.930000,754713.930000
1442304.710000,754185.540000
1443237.500000,754000.000000
1452362.500000,754000.000000
1453295.290000,754185.540000
1454086.070000,754713.930000
1454614.460000,755504.710000
1454800.000000,756437.500000
1454800.000000,761312.500000
1454614.460000,762245.290000
1454086.070000,763036.070000
1453295.290000,763564.460000
1452362.500000,763750.000000
Z" /> 
<path style="fill:#000000; fill-opacity:1.0; 
stroke:#000000; stroke-width:0.010000; stroke-opacity:1; 
stroke-linecap:round; stroke-linejoin:round;fill-rule:evenodd;"
d="M 1443237.500000,745000.000000
1442304.710000,744814.460000
1441513.930000,744286.070000
1440985.540000,743495.290000
1440800.000000,742562.500000
1440800.000000,737687.500000
1440985.540000,736754.710000
1441513.930000,735963.930000
1442304.710000,735435.540000
1443237.500000,735250.000000
1452362.500000,735250.000000
1453295.290000,735435.540000
1454086.070000,735963.930000
1454614.460000,736754.710000
1454800.000000,737687.500000
1454800.000000,742562.500000
1454614.460000,743495.290000
1454086.070000,744286.070000
1453295.290000,744814.460000
1452362.500000,745000.000000
Z" /> 
</g>
<g >
</g>
<g style="fill:#000000; fill-opacity:1.0; 
stroke:#000000; stroke-width:0.010000; stroke-opacity:1; 
stroke-linecap:round; stroke-linejoin:round;">
<path style="fill:#000000; fill-opacity:1.0; 
stroke:#000000; stroke-width:0.010000; stroke-opacity:1; 
stroke-linecap:round; stroke-linejoin:round;fill-rule:evenodd;"
d="M 1651940.000000,757660.000000
1652130.300000,756703.290000
1652672.230000,755892.230000
1653483.290000,755350.300000
1654440.000000,755160.000000
1660690.000000,755160.000000
1661646.710000,755350.300000
1662457.770000,755892.230000
1662999.700000,756703.290000
1663190.000000,757660.000000
1663190.000000,786660.000000
1662999.700000,787616.710000
1662457.770000,788427.770000
1661646.710000,788969.700000
1660690.000000,789160.000000
1654440.000000,789160.000000
1653483.290000,788969.700000
1652672.230000,788427.770000
1652130.300000,787616.710000
1651940.000000,786660.000000
Z" /> 
<path style="fill:#000000; fill-opacity:1.0; 
stroke:#000000; stroke-width:0.010000; stroke-opacity:1; 
stroke-linecap:round; stroke-linejoin:round;fill-rule:evenodd;"
d="M 1694690.000000,757660.000000
1694880.300000,756703.290000
1695422.230000,755892.230000
1696233.290000,755350.300000
1697190.000000,755160.000000
1703440.000000,755160.000000
1704396.710000,755350.300000
1705207.770000,755892.230000
1705749.700000,756703.290000
1705940.000000,757660.000000
1705940.000000,786660.000000
1705749.700000,787616.710000
1705207.770000,788427.770000
1704396.710000,788969.700000
1703440.000000,789160.000000
1697190.000000,789160.000000
1696233.290000,788969.700000
1695422.230000,788427.770000
1694880.300000,787616.710000
1694690.000000,786660.000000
Z" /> 
</g>
<g >
</g>
<g style="fill:#000000; fill-opacity:1.0; 
stroke:#000000; stroke-width:0.010000; stroke-opacity:1; 
stroke-linecap:round; stroke-linejoin:round;">
<path style="fill:#000000; fill-opacity:1.0; 
stroke:#000000; stroke-width:0.010000; stroke-opacity:1; 
stroke-linecap:round; stroke-linejoin:round;fill-rule:evenodd;"
d="M 1693190.000000,911342.500000
1693004.460000,912275.290000
1692476.070000,913066.070000
1691685.290000,913594.460000
1690752.500000,913780.000000
1685877.500000,913780.000000
1684944.710000,913594.460000
1684153.930000,913066.070000
1683625.540000,912275.290000
1683440.000000,911342.500000
1683440.000000,902217.500000
1683625.540000,901284.710000
1684153.930000,900493.930000
1684944.710000,899965.540000
1685877.500000,899780.000000
1690752.500000,899780.000000
1691685.290000,899965.540000
1692476.070000,900493.930000
1693004.460000,901284.710000
1693190.000000,902217.500000
Z" /> 
<path style="fill:#000000; fill-opacity:1.0; 
stroke:#000000; stroke-width:0.010000; stroke-opacity:1; 
stroke-linecap:round; stroke-linejoin:round;fill-rule:evenodd;"
d="M 1674440.000000,911342.500000
1674254.460000,912275.290000
1673726.070000,913066.070000
1672935.290000,913594.460000
1672002.500000,913780.000000
1667127.500000,913780.000000
1666194.710000,913594.460000
1665403.930000,913066.070000
1664875.540000,912275.290000
1664690.000000,911342.500000
1664690.000000,902217.500000
1664875.540000,901284.710000
1665403.930000,900493.930000
1666194.710000,899965.540000
1667127.500000,899780.000000
1672002.500000,899780.000000
1672935.290000,899965.540000
1673726.070000,900493.930000
1674254.460000,901284.710000
1674440.000000,902217.500000
Z" /> 
</g>
<g >
</g>
<g >
</g>
<g >
</g>
<g >
</g>
<g >
</g>
<g >
</g>
<g >
</g>
<g >
</g>
<g >
</g>
<g style="fill:#000000; fill-opacity:1.0; 
stroke:#000000; stroke-width:0.010000; stroke-opacity:1; 
stroke-linecap:round; stroke-linejoin:round;">
<path style="fill:#000000; fill-opacity:1.0; 
stroke:#000000; stroke-width:0.010000; stroke-opacity:1; 
stroke-linecap:round; stroke-linejoin:round;fill-rule:evenodd;"
d="M 1241000.000000,772000.000000
1221000.000000,772000.000000
1221000.000000,742000.000000
1241000.000000,742000.000000
Z" /> 
<path style="fill:#000000; fill-opacity:1.0; 
stroke:#000000; stroke-width:0.010000; stroke-opacity:1; 
stroke-linecap:round; stroke-linejoin:round;fill-rule:evenodd;"
d="M 1301000.000000,772000.000000
1281000.000000,772000.000000
1281000.000000,742000.000000
1301000.000000,742000.000000
Z" /> 
<path style="fill:#000000; fill-opacity:1.0; 
stroke:#000000; stroke-width:0.010000; stroke-opacity:1; 
stroke-linecap:round; stroke-linejoin:round;fill-rule:evenodd;"
d="M 1301000.000000,882000.000000
1281000.000000,882000.000000
1281000.000000,852000.000000
1301000.000000,852000.000000
Z" /> 
<path style="fill:#000000; fill-opacity:1.0; 
stroke:#000000; stroke-width:0.010000; stroke-opacity:1; 
stroke-linecap:round; stroke-linejoin:round;fill-rule:evenodd;"
d="M 1241000.000000,882000.000000
1221000.000000,882000.000000
1221000.000000,852000.000000
1241000.000000,852000.000000
Z" /> 
</g>
<g >
</g>
<g >
</g>
<g >
</g>
<g >
</g>
<g >
</g>
<g >
</g>
<g style="fill:#000000; fill-opacity:1.0; 
stroke:#000000; stroke-width:0.010000; stroke-opacity:1; 
stroke-linecap:round; stroke-linejoin:round;">
<path style="fill:#000000; fill-opacity:1.0; 
stroke:#000000; stroke-width:0.010000; stroke-opacity:1; 
stroke-linecap:round; stroke-linejoin:round;fill-rule:evenodd;"
d="M 1649450.000000,856497.500000
1649635.540000,855564.710000
1650163.930000,854773.930000
1650954.710000,854245.540000
1651887.500000,854060.000000
1656762.500000,854060.000000
1657695.290000,854245.540000
1658486.070000,854773.930000
1659014.460000,855564.710000
1659200.000000,856497.500000
1659200.000000,865622.500000
1659014.460000,866555.290000
1658486.070000,867346.070000
1657695.290000,867874.460000
1656762.500000,868060.000000
1651887.500000,868060.000000
1650954.710000,867874.460000
1650163.930000,867346.070000
1649635.540000,866555.290000
1649450.000000,865622.500000
Z" /> 
<path style="fill:#000000; fill-opacity:1.0; 
stroke:#000000; stroke-width:0.010000; stroke-opacity:1; 
stroke-linecap:round; stroke-linejoin:round;fill-rule:evenodd;"
d="M 1668200.000000,856497.500000
1668385.540000,855564.710000
1668913.930000,854773.930000
1669704.710000,854245.540000
1670637.500000,854060.000000
1675512.500000,854060.000000
1676445.290000,854245.540000
1677236.070000,854773.930000
1677764.460000,855564.710000
1677950.000000,856497.500000
1677950.000000,865622.500000
1677764.460000,866555.290000
1677236.070000,867346.070000
1676445.290000,867874.460000
1675512.500000,868060.000000
1670637.500000,868060.000000
1669704.710000,867874.460000
1668913.930000,867346.070000
1668385.540000,866555.290000
1668200.000000,865622.500000
Z" /> 
</g>
<g >
</g>
<g style="fill:#000000; fill-opacity:1.0; 
stroke:#000000; stroke-width:0.010000; stroke-opacity:1; 
stroke-linecap:round; stroke-linejoin:round;">
<path style="fill:#000000; fill-opacity:1.0; 
stroke:#000000; stroke-width:0.010000; stroke-opacity:1; 
stroke-linecap:round; stroke-linejoin:round;fill-rule:evenodd;"
d="M 1649450.000000,833637.500000
1649635.540000,832704.710000
1650163.930000,831913.930000
1650954.710000,831385.540000
1651887.500000,831200.000000
1656762.500000,831200.000000
1657695.290000,831385.540000
1658486.070000,831913.930000
1659014.460000,832704.710000
1659200.000000,833637.500000
1659200.000000,842762.500000
1659014.460000,843695.290000
1658486.070000,844486.070000
1657695.290000,845014.460000
1656762.500000,845200.000000
1651887.500000,845200.000000
1650954.710000,845014.460000
1650163.930000,844486.070000
1649635.540000,843695.290000
1649450.000000,842762.500000
Z" /> 
<path style="fill:#000000; fill-opacity:1.0; 
stroke:#000000; stroke-width:0.010000; stroke-opacity:1; 
stroke-linecap:round; stroke-linejoin:round;fill-rule:evenodd;"
d="M 1668200.000000,833637.500000
1668385.540000,832704.710000
1668913.930000,831913.930000
1669704.710000,831385.540000
1670637.500000,831200.000000
1675512.500000,831200.000000
1676445.290000,831385.540000
1677236.070000,831913.930000
1677764.460000,832704.710000
1677950.000000,833637.500000
1677950.000000,842762.500000
1677764.460000,843695.290000
1677236.070000,844486.070000
1676445.290000,845014.460000
1675512.500000,845200.000000
1670637.500000,845200.000000
1669704.710000,845014.460000
1668913.930000,844486.070000
1668385.540000,843695.290000
1668200.000000,842762.500000
Z" /> 
</g>
<g >
</g>
<g style="fill:#000000; fill-opacity:1.0; 
stroke:#000000; stroke-width:0.010000; stroke-opacity:1; 
stroke-linecap:round; stroke-linejoin:round;">
<path style="fill:#000000; fill-opacity:1.0; 
stroke:#000000; stroke-width:0.010000; stroke-opacity:1; 
stroke-linecap:round; stroke-linejoin:round;fill-rule:evenodd;"
d="M 1603830.000000,763342.500000
1603644.460000,764275.290000
1603116.070000,765066.070000
1602325.290000,765594.460000
1601392.500000,765780.000000
1596517.500000,765780.000000
1595584.710000,765594.460000
1594793.930000,765066.070000
1594265.540000,764275.290000
1594080.000000,763342.500000
1594080.000000,754217.500000
1594265.540000,753284.710000
1594793.930000,752493.930000
1595584.710000,751965.540000
1596517.500000,751780.000000
1601392.500000,751780.000000
1602325.290000,751965.540000
1603116.070000,752493.930000
1603644.460000,753284.710000
1603830.000000,754217.500000
Z" /> 
<path style="fill:#000000; fill-opacity:1.0; 
stroke:#000000; stroke-width:0.010000; stroke-opacity:1; 
stroke-linecap:round; stroke-linejoin:round;fill-rule:evenodd;"
d="M 1585080.000000,763342.500000
1584894.460000,764275.290000
1584366.070000,765066.070000
1583575.290000,765594.460000
1582642.500000,765780.000000
1577767.500000,765780.000000
1576834.710000,765594.460000
1576043.930000,765066.070000
1575515.540000,764275.290000
1575330.000000,763342.500000
1575330.000000,754217.500000
1575515.540000,753284.710000
1576043.930000,752493.930000
1576834.710000,751965.540000
1577767.500000,751780.000000
1582642.500000,751780.000000
1583575.290000,751965.540000
1584366.070000,752493.930000
1584894.460000,753284.710000
1585080.000000,754217.500000
Z" /> 
</g>
<g >
</g>
<g style="fill:#000000; fill-opacity:1.0; 
stroke:#000000; stroke-width:0.010000; stroke-opacity:1; 
stroke-linecap:round; stroke-linejoin:round;">
<path style="fill:#000000; fill-opacity:1.0; 
stroke:#000000; stroke-width:0.010000; stroke-opacity:1; 
stroke-linecap:round; stroke-linejoin:round;fill-rule:evenodd;"
d="M 1585477.500000,971830.000000
1584544.710000,971644.460000
1583753.930000,971116.070000
1583225.540000,970325.290000
1583040.000000,969392.500000
1583040.000000,964517.500000
1583225.540000,963584.710000
1583753.930000,962793.930000
1584544.710000,962265.540000
1585477.500000,962080.000000
1594602.500000,962080.000000
1595535.290000,962265.540000
1596326.070000,962793.930000
1596854.460000,963584.710000
1597040.000000,964517.500000
1597040.000000,969392.500000
1596854.460000,970325.290000
1596326.070000,971116.070000
1595535.290000,971644.460000
1594602.500000,971830.000000
Z" /> 
<path style="fill:#000000; fill-opacity:1.0; 
stroke:#000000; stroke-width:0.010000; stroke-opacity:1; 
stroke-linecap:round; stroke-linejoin:round;fill-rule:evenodd;"
d="M 1585477.500000,953080.000000
1584544.710000,952894.460000
1583753.930000,952366.070000
1583225.540000,951575.290000
1583040.000000,950642.500000
1583040.000000,945767.500000
1583225.540000,944834.710000
1583753.930000,944043.930000
1584544.710000,943515.540000
1585477.500000,943330.000000
1594602.500000,943330.000000
1595535.290000,943515.540000
1596326.070000,944043.930000
1596854.460000,944834.710000
1597040.000000,945767.500000
1597040.000000,950642.500000
1596854.460000,951575.290000
1596326.070000,952366.070000
1595535.290000,952894.460000
1594602.500000,953080.000000
Z" /> 
</g>
<g >
</g>
<g style="fill:#000000; fill-opacity:1.0; 
stroke:#000000; stroke-width:0.010000; stroke-opacity:1; 
stroke-linecap:round; stroke-linejoin:round;">
<path style="fill:#000000; fill-opacity:1.0; 
stroke:#000000; stroke-width:0.010000; stroke-opacity:1; 
stroke-linecap:round; stroke-linejoin:round;fill-rule:evenodd;"
d="M 1452108.500000,813790.000000
1453041.290000,813975.540000
1453832.070000,814503.930000
1454360.460000,815294.710000
1454546.000000,816227.500000
1454546.000000,821102.500000
1454360.460000,822035.290000
1453832.070000,822826.070000
1453041.290000,823354.460000
1452108.500000,823540.000000
1442983.500000,823540.000000
1442050.710000,823354.460000
1441259.930000,822826.070000
1440731.540000,822035.290000
1440546.000000,821102.500000
1440546.000000,816227.500000
1440731.540000,815294.710000
1441259.930000,814503.930000
1442050.710000,813975.540000
1442983.500000,813790.000000
Z" /> 
<path style="fill:#000000; fill-opacity:1.0; 
stroke:#000000; stroke-width:0.010000; stroke-opacity:1; 
stroke-linecap:round; stroke-linejoin:round;fill-rule:evenodd;"
d="M 1452108.500000,832540.000000
1453041.290000,832725.540000
1453832.070000,833253.930000
1454360.460000,834044.710000
1454546.000000,834977.500000
1454546.000000,839852.500000
1454360.460000,840785.290000
1453832.070000,841576.070000
1453041.290000,842104.460000
1452108.500000,842290.000000
1442983.500000,842290.000000
1442050.710000,842104.460000
1441259.930000,841576.070000
1440731.540000,840785.290000
1440546.000000,839852.500000
1440546.000000,834977.500000
1440731.540000,834044.710000
1441259.930000,833253.930000
1442050.710000,832725.540000
1442983.500000,832540.000000
Z" /> 
</g>
<g >
</g>
<g style="fill:#000000; fill-opacity:1.0; 
stroke:#000000; stroke-width:0.010000; stroke-opacity:1; 
stroke-linecap:round; stroke-linejoin:round;">
<path style="fill:#000000; fill-opacity:1.0; 
stroke:#000000; stroke-width:0.010000; stroke-opacity:1; 
stroke-linecap:round; stroke-linejoin:round;fill-rule:evenodd;"
d="M 1477762.500000,687498.000000
1478695.290000,687683.540000
1479486.070000,688211.930000
1480014.460000,689002.710000
1480200.000000,689935.500000
1480200.000000,694810.500000
1480014.460000,695743.290000
1479486.070000,696534.070000
1478695.290000,697062.460000
1477762.500000,697248.000000
1468637.500000,697248.000000
1467704.710000,697062.460000
1466913.930000,696534.070000
1466385.540000,695743.290000
1466200.000000,694810.500000
1466200.000000,689935.500000
1466385.540000,689002.710000
1466913.930000,688211.930000
1467704.710000,687683.540000
1468637.500000,687498.000000
Z" /> 
<path style="fill:#000000; fill-opacity:1.0; 
stroke:#000000; stroke-width:0.010000; stroke-opacity:1; 
stroke-linecap:round; stroke-linejoin:round;fill-rule:evenodd;"
d="M 1477762.500000,706248.000000
1478695.290000,706433.540000
1479486.070000,706961.930000
1480014.460000,707752.710000
1480200.000000,708685.500000
1480200.000000,713560.500000
1480014.460000,714493.290000
1479486.070000,715284.070000
1478695.290000,715812.460000
1477762.500000,715998.000000
1468637.500000,715998.000000
1467704.710000,715812.460000
1466913.930000,715284.070000
1466385.540000,714493.290000
1466200.000000,713560.500000
1466200.000000,708685.500000
1466385.540000,707752.710000
1466913.930000,706961.930000
1467704.710000,706433.540000
1468637.500000,706248.000000
Z" /> 
</g>
<g >
</g>
<g style="fill:#000000; fill-opacity:1.0; 
stroke:#000000; stroke-width:0.010000; stroke-opacity:1; 
stroke-linecap:round; stroke-linejoin:round;">
<path style="fill:#000000; fill-opacity:1.0; 
stroke:#000000; stroke-width:0.010000; stroke-opacity:1; 
stroke-linecap:round; stroke-linejoin:round;fill-rule:evenodd;"
d="M 1452362.500000,687498.000000
1453295.290000,687683.540000
1454086.070000,688211.930000
1454614.460000,689002.710000
1454800.000000,689935.500000
1454800.000000,694810.500000
1454614.460000,695743.290000
1454086.070000,696534.070000
1453295.290000,697062.460000
1452362.500000,697248.000000
1443237.500000,697248.000000
1442304.710000,697062.460000
1441513.930000,696534.070000
1440985.540000,695743.290000
1440800.000000,694810.500000
1440800.000000,689935.500000
1440985.540000,689002.710000
1441513.930000,688211.930000
1442304.710000,687683.540000
1443237.500000,687498.000000
Z" /> 
<path style="fill:#000000; fill-opacity:1.0; 
stroke:#000000; stroke-width:0.010000; stroke-opacity:1; 
stroke-linecap:round; stroke-linejoin:round;fill-rule:evenodd;"
d="M 1452362.500000,706248.000000
1453295.290000,706433.540000
1454086.070000,706961.930000
1454614.460000,707752.710000
1454800.000000,708685.500000
1454800.000000,713560.500000
1454614.460000,714493.290000
1454086.070000,715284.070000
1453295.290000,715812.460000
1452362.500000,715998.000000
1443237.500000,715998.000000
1442304.710000,715812.460000
1441513.930000,715284.070000
1440985.540000,714493.290000
1440800.000000,713560.500000
1440800.000000,708685.500000
1440985.540000,707752.710000
1441513.930000,706961.930000
1442304.710000,706433.540000
1443237.500000,706248.000000
Z" /> 
</g>
<g >
</g>
<g style="fill:#000000; fill-opacity:1.0; 
stroke:#000000; stroke-width:0.010000; stroke-opacity:1; 
stroke-linecap:round; stroke-linejoin:round;">
<path style="fill:#000000; fill-opacity:1.0; 
stroke:#000000; stroke-width:0.010000; stroke-opacity:1; 
stroke-linecap:round; stroke-linejoin:round;fill-rule:evenodd;"
d="M 1706902.500000,861255.000000
1707739.620000,861421.510000
1708449.300000,861895.700000
1708923.490000,862605.380000
1709090.000000,863442.500000
1709090.000000,867817.500000
1708923.490000,868654.620000
1708449.300000,869364.300000
1707739.620000,869838.490000
1706902.500000,870005.000000
1701777.500000,870005.000000
1700940.380000,869838.490000
1700230.700000,869364.300000
1699756.510000,868654.620000
1699590.000000,867817.500000
1699590.000000,863442.500000
1699756.510000,862605.380000
1700230.700000,861895.700000
1700940.380000,861421.510000
1701777.500000,861255.000000
Z" /> 
<path style="fill:#000000; fill-opacity:1.0; 
stroke:#000000; stroke-width:0.010000; stroke-opacity:1; 
stroke-linecap:round; stroke-linejoin:round;fill-rule:evenodd;"
d="M 1706902.500000,877005.000000
1707739.620000,877171.510000
1708449.300000,877645.700000
1708923.490000,878355.380000
1709090.000000,879192.500000
1709090.000000,883567.500000
1708923.490000,884404.620000
1708449.300000,885114.300000
1707739.620000,885588.490000
1706902.500000,885755.000000
1701777.500000,885755.000000
1700940.380000,885588.490000
1700230.700000,885114.300000
1699756.510000,884404.620000
1699590.000000,883567.500000
1699590.000000,879192.500000
1699756.510000,878355.380000
1700230.700000,877645.700000
1700940.380000,877171.510000
1701777.500000,877005.000000
Z" /> 
</g>
<g >
</g>
<g style="fill:#000000; fill-opacity:1.0; 
stroke:#000000; stroke-width:0.010000; stroke-opacity:1; 
stroke-linecap:round; stroke-linejoin:round;">
<path style="fill:#000000; fill-opacity:1.0; 
stroke:#000000; stroke-width:0.010000; stroke-opacity:1; 
stroke-linecap:round; stroke-linejoin:round;fill-rule:evenodd;"
d="M 1619278.000000,688278.000000
1619278.000000,712278.000000
1600278.000000,712278.000000
1600278.000000,688278.000000
Z" /> 
<path style="fill:#000000; fill-opacity:1.0; 
stroke:#000000; stroke-width:0.010000; stroke-opacity:1; 
stroke-linecap:round; stroke-linejoin:round;fill-rule:evenodd;"
d="M 1578278.000000,688278.000000
1578278.000000,712278.000000
1559278.000000,712278.000000
1559278.000000,688278.000000
Z" /> 
</g>
<g >
</g>
<g >
</g>
<g style="fill:#000000; fill-opacity:1.0; 
stroke:#000000; stroke-width:0.010000; stroke-opacity:1; 
stroke-linecap:round; stroke-linejoin:round;">
<path style="fill:#000000; fill-opacity:1.0; 
stroke:#000000; stroke-width:0.010000; stroke-opacity:1; 
stroke-linecap:round; stroke-linejoin:round;fill-rule:evenodd;"
d="M 1569570.000000,808020.000000
1575070.000000,808020.000000
1575070.000000,824020.000000
1569570.000000,824020.000000
Z" /> 
<path style="fill:#000000; fill-opacity:1.0; 
stroke:#000000; stroke-width:0.010000; stroke-opacity:1; 
stroke-linecap:round; stroke-linejoin:round;fill-rule:evenodd;"
d="M 1561570.000000,808020.000000
1567070.000000,808020.000000
1567070.000000,824020.000000
1561570.000000,824020.000000
Z" /> 
<path style="fill:#000000; fill-opacity:1.0; 
stroke:#000000; stroke-width:0.010000; stroke-opacity:1; 
stroke-linecap:round; stroke-linejoin:round;fill-rule:evenodd;"
d="M 1553570.000000,808020.000000
1559070.000000,808020.000000
1559070.000000,824020.000000
1553570.000000,824020.000000
Z" /> 
<path style="fill:#000000; fill-opacity:1.0; 
stroke:#000000; stroke-width:0.010000; stroke-opacity:1; 
stroke-linecap:round; stroke-linejoin:round;fill-rule:evenodd;"
d="M 1545570.000000,808020.000000
1551070.000000,808020.000000
1551070.000000,824020.000000
1545570.000000,824020.000000
Z" /> 
<path style="fill:#000000; fill-opacity:1.0; 
stroke:#000000; stroke-width:0.010000; stroke-opacity:1; 
stroke-linecap:round; stroke-linejoin:round;fill-rule:evenodd;"
d="M 1537570.000000,808020.000000
1543070.000000,808020.000000
1543070.000000,824020.000000
1537570.000000,824020.000000
Z" /> 
<path style="fill:#000000; fill-opacity:1.0; 
stroke:#000000; stroke-width:0.010000; stroke-opacity:1; 
stroke-linecap:round; stroke-linejoin:round;fill-rule:evenodd;"
d="M 1529570.000000,808020.000000
1535070.000000,808020.000000
1535070.000000,824020.000000
1529570.000000,824020.000000
Z" /> 
<path style="fill:#000000; fill-opacity:1.0; 
stroke:#000000; stroke-width:0.010000; stroke-opacity:1; 
stroke-linecap:round; stroke-linejoin:round;fill-rule:evenodd;"
d="M 1521570.000000,808020.000000
1527070.000000,808020.000000
1527070.000000,824020.000000
1521570.000000,824020.000000
Z" /> 
<path style="fill:#000000; fill-opacity:1.0; 
stroke:#000000; stroke-width:0.010000; stroke-opacity:1; 
stroke-linecap:round; stroke-linejoin:round;fill-rule:evenodd;"
d="M 1513570.000000,808020.000000
1519070.000000,808020.000000
1519070.000000,824020.000000
1513570.000000,824020.000000
Z" /> 
<path style="fill:#000000; fill-opacity:1.0; 
stroke:#000000; stroke-width:0.010000; stroke-opacity:1; 
stroke-linecap:round; stroke-linejoin:round;fill-rule:evenodd;"
d="M 1493820.000000,833270.000000
1493820.000000,827770.000000
1509820.000000,827770.000000
1509820.000000,833270.000000
Z" /> 
<path style="fill:#000000; fill-opacity:1.0; 
stroke:#000000; stroke-width:0.010000; stroke-opacity:1; 
stroke-linecap:round; stroke-linejoin:round;fill-rule:evenodd;"
d="M 1493820.000000,841270.000000
1493820.000000,835770.000000
1509820.000000,835770.000000
1509820.000000,841270.000000
Z" /> 
<path style="fill:#000000; fill-opacity:1.0; 
stroke:#000000; stroke-width:0.010000; stroke-opacity:1; 
stroke-linecap:round; stroke-linejoin:round;fill-rule:evenodd;"
d="M 1493820.000000,849270.000000
1493820.000000,843770.000000
1509820.000000,843770.000000
1509820.000000,849270.000000
Z" /> 
<path style="fill:#000000; fill-opacity:1.0; 
stroke:#000000; stroke-width:0.010000; stroke-opacity:1; 
stroke-linecap:round; stroke-linejoin:round;fill-rule:evenodd;"
d="M 1493820.000000,857270.000000
1493820.000000,851770.000000
1509820.000000,851770.000000
1509820.000000,857270.000000
Z" /> 
<path style="fill:#000000; fill-opacity:1.0; 
stroke:#000000; stroke-width:0.010000; stroke-opacity:1; 
stroke-linecap:round; stroke-linejoin:round;fill-rule:evenodd;"
d="M 1493820.000000,865270.000000
1493820.000000,859770.000000
1509820.000000,859770.000000
1509820.000000,865270.000000
Z" /> 
<path style="fill:#000000; fill-opacity:1.0; 
stroke:#000000; stroke-width:0.010000; stroke-opacity:1; 
stroke-linecap:round; stroke-linejoin:round;fill-rule:evenodd;"
d="M 1493820.000000,873270.000000
1493820.000000,867770.000000
1509820.000000,867770.000000
1509820.000000,873270.000000
Z" /> 
<path style="fill:#000000; fill-opacity:1.0; 
stroke:#000000; stroke-width:0.010000; stroke-opacity:1; 
stroke-linecap:round; stroke-linejoin:round;fill-rule:evenodd;"
d="M 1493820.000000,881270.000000
1493820.000000,875770.000000
1509820.000000,875770.000000
1509820.000000,881270.000000
Z" /> 
<path style="fill:#000000; fill-opacity:1.0; 
stroke:#000000; stroke-width:0.010000; stroke-opacity:1; 
stroke-linecap:round; stroke-linejoin:round;fill-rule:evenodd;"
d="M 1493820.000000,889270.000000
1493820.000000,883770.000000
1509820.000000,883770.000000
1509820.000000,889270.000000
Z" /> 
<path style="fill:#000000; fill-opacity:1.0; 
stroke:#000000; stroke-width:0.010000; stroke-opacity:1; 
stroke-linecap:round; stroke-linejoin:round;fill-rule:evenodd;"
d="M 1513570.000000,893020.000000
1519070.000000,893020.000000
1519070.000000,909020.000000
1513570.000000,909020.000000
Z" /> 
<path style="fill:#000000; fill-opacity:1.0; 
stroke:#000000; stroke-width:0.010000; stroke-opacity:1; 
stroke-linecap:round; stroke-linejoin:round;fill-rule:evenodd;"
d="M 1521570.000000,893020.000000
1527070.000000,893020.000000
1527070.000000,909020.000000
1521570.000000,909020.000000
Z" /> 
<path style="fill:#000000; fill-opacity:1.0; 
stroke:#000000; stroke-width:0.010000; stroke-opacity:1; 
stroke-linecap:round; stroke-linejoin:round;fill-rule:evenodd;"
d="M 1529570.000000,893020.000000
1535070.000000,893020.000000
1535070.000000,909020.000000
1529570.000000,909020.000000
Z" /> 
<path style="fill:#000000; fill-opacity:1.0; 
stroke:#000000; stroke-width:0.010000; stroke-opacity:1; 
stroke-linecap:round; stroke-linejoin:round;fill-rule:evenodd;"
d="M 1537570.000000,893020.000000
1543070.000000,893020.000000
1543070.000000,909020.000000
1537570.000000,909020.000000
Z" /> 
<path style="fill:#000000; fill-opacity:1.0; 
stroke:#000000; stroke-width:0.010000; stroke-opacity:1; 
stroke-linecap:round; stroke-linejoin:round;fill-rule:evenodd;"
d="M 1545570.000000,893020.000000
1551070.000000,893020.000000
1551070.000000,909020.000000
1545570.000000,909020.000000
Z" /> 
<path style="fill:#000000; fill-opacity:1.0; 
stroke:#000000; stroke-width:0.010000; stroke-opacity:1; 
stroke-linecap:round; stroke-linejoin:round;fill-rule:evenodd;"
d="M 1553570.000000,893020.000000
1559070.000000,893020.000000
1559070.000000,909020.000000
1553570.000000,909020.000000
Z" /> 
<path style="fill:#000000; fill-opacity:1.0; 
stroke:#000000; stroke-width:0.010000; stroke-opacity:1; 
stroke-linecap:round; stroke-linejoin:round;fill-rule:evenodd;"
d="M 1561570.000000,893020.000000
1567070.000000,893020.000000
1567070.000000,909020.000000
1561570.000000,909020.000000
Z" /> 
<path style="fill:#000000; fill-opacity:1.0; 
stroke:#000000; stroke-width:0.010000; stroke-opacity:1; 
stroke-linecap:round; stroke-linejoin:round;fill-rule:evenodd;"
d="M 1569570.000000,893020.000000
1575070.000000,893020.000000
1575070.000000,909020.000000
1569570.000000,909020.000000
Z" /> 
<path style="fill:#000000; fill-opacity:1.0; 
stroke:#000000; stroke-width:0.010000; stroke-opacity:1; 
stroke-linecap:round; stroke-linejoin:round;fill-rule:evenodd;"
d="M 1578820.000000,889270.000000
1578820.000000,883770.000000
1594820.000000,883770.000000
1594820.000000,889270.000000
Z" /> 
<path style="fill:#000000; fill-opacity:1.0; 
stroke:#000000; stroke-width:0.010000; stroke-opacity:1; 
stroke-linecap:round; stroke-linejoin:round;fill-rule:evenodd;"
d="M 1578820.000000,881270.000000
1578820.000000,875770.000000
1594820.000000,875770.000000
1594820.000000,881270.000000
Z" /> 
<path style="fill:#000000; fill-opacity:1.0; 
stroke:#000000; stroke-width:0.010000; stroke-opacity:1; 
stroke-linecap:round; stroke-linejoin:round;fill-rule:evenodd;"
d="M 1578820.000000,873270.000000
1578820.000000,867770.000000
1594820.000000,867770.000000
1594820.000000,873270.000000
Z" /> 
<path style="fill:#000000; fill-opacity:1.0; 
stroke:#000000; stroke-width:0.010000; stroke-opacity:1; 
stroke-linecap:round; stroke-linejoin:round;fill-rule:evenodd;"
d="M 1578820.000000,865270.000000
1578820.000000,859770.000000
1594820.000000,859770.000000
1594820.000000,865270.000000
Z" /> 
<path style="fill:#000000; fill-opacity:1.0; 
stroke:#000000; stroke-width:0.010000; stroke-opacity:1; 
stroke-linecap:round; stroke-linejoin:round;fill-rule:evenodd;"
d="M 1578820.000000,857270.000000
1578820.000000,851770.000000
1594820.000000,851770.000000
1594820.000000,857270.000000
Z" /> 
<path style="fill:#000000; fill-opacity:1.0; 
stroke:#000000; stroke-width:0.010000; stroke-opacity:1; 
stroke-linecap:round; stroke-linejoin:round;fill-rule:evenodd;"
d="M 1578820.000000,849270.000000
1578820.000000,843770.000000
1594820.000000,843770.000000
1594820.000000,849270.000000
Z" /> 
<path style="fill:#000000; fill-opacity:1.0; 
stroke:#000000; stroke-width:0.010000; stroke-opacity:1; 
stroke-linecap:round; stroke-linejoin:round;fill-rule:evenodd;"
d="M 1578820.000000,841270.000000
1578820.000000,835770.000000
1594820.000000,835770.000000
1594820.000000,841270.000000
Z" /> 
<path style="fill:#000000; fill-opacity:1.0; 
stroke:#000000; stroke-width:0.010000; stroke-opacity:1; 
stroke-linecap:round; stroke-linejoin:round;fill-rule:evenodd;"
d="M 1578820.000000,833270.000000
1578820.000000,827770.000000
1594820.000000,827770.000000
1594820.000000,833270.000000
Z" /> 
</g>
<g >
</g>
<g style="fill:#000000; fill-opacity:1.0; 
stroke:#000000; stroke-width:0.010000; stroke-opacity:1; 
stroke-linecap:round; stroke-linejoin:round;">
<path style="fill:#000000; fill-opacity:1.0; 
stroke:#000000; stroke-width:0.010000; stroke-opacity:1; 
stroke-linecap:round; stroke-linejoin:round;fill-rule:evenodd;"
d="M 1701777.500000,835464.000000
1700940.380000,835297.490000
1700230.700000,834823.300000
1699756.510000,834113.620000
1699590.000000,833276.500000
1699590.000000,828901.500000
1699756.510000,828064.380000
1700230.700000,827354.700000
1700940.380000,826880.510000
1701777.500000,826714.000000
1706902.500000,826714.000000
1707739.620000,826880.510000
1708449.300000,827354.700000
1708923.490000,828064.380000
1709090.000000,828901.500000
1709090.000000,833276.500000
1708923.490000,834113.620000
1708449.300000,834823.300000
1707739.620000,835297.490000
1706902.500000,835464.000000
Z" /> 
<path style="fill:#000000; fill-opacity:1.0; 
stroke:#000000; stroke-width:0.010000; stroke-opacity:1; 
stroke-linecap:round; stroke-linejoin:round;fill-rule:evenodd;"
d="M 1701777.500000,819714.000000
1700940.380000,819547.490000
1700230.700000,819073.300000
1699756.510000,818363.620000
1699590.000000,817526.500000
1699590.000000,813151.500000
1699756.510000,812314.380000
1700230.700000,811604.700000
1700940.380000,811130.510000
1701777.500000,810964.000000
1706902.500000,810964.000000
1707739.620000,811130.510000
1708449.300000,811604.700000
1708923.490000,812314.380000
1709090.000000,813151.500000
1709090.000000,817526.500000
1708923.490000,818363.620000
1708449.300000,819073.300000
1707739.620000,819547.490000
1706902.500000,819714.000000
Z" /> 
</g>
<g >
</g>
<g style="fill:#000000; fill-opacity:1.0; 
stroke:#000000; stroke-width:0.010000; stroke-opacity:1; 
stroke-linecap:round; stroke-linejoin:round;">
<path style="fill:#000000; fill-opacity:1.0; 
stroke:#000000; stroke-width:0.010000; stroke-opacity:1; 
stroke-linecap:round; stroke-linejoin:round;fill-rule:evenodd;"
d="M 1619259.500000,834924.000000
1618326.710000,834738.460000
1617535.930000,834210.070000
1617007.540000,833419.290000
1616822.000000,832486.500000
1616822.000000,827611.500000
1617007.540000,826678.710000
1617535.930000,825887.930000
1618326.710000,825359.540000
1619259.500000,825174.000000
1628384.500000,825174.000000
1629317.290000,825359.540000
1630108.070000,825887.930000
1630636.460000,826678.710000
1630822.000000,827611.500000
1630822.000000,832486.500000
1630636.460000,833419.290000
1630108.070000,834210.070000
1629317.290000,834738.460000
1628384.500000,834924.000000
Z" /> 
<path style="fill:#000000; fill-opacity:1.0; 
stroke:#000000; stroke-width:0.010000; stroke-opacity:1; 
stroke-linecap:round; stroke-linejoin:round;fill-rule:evenodd;"
d="M 1619259.500000,816174.000000
1618326.710000,815988.460000
1617535.930000,815460.070000
1617007.540000,814669.290000
1616822.000000,813736.500000
1616822.000000,808861.500000
1617007.540000,807928.710000
1617535.930000,807137.930000
1618326.710000,806609.540000
1619259.500000,806424.000000
1628384.500000,806424.000000
1629317.290000,806609.540000
1630108.070000,807137.930000
1630636.460000,807928.710000
1630822.000000,808861.500000
1630822.000000,813736.500000
1630636.460000,814669.290000
1630108.070000,815460.070000
1629317.290000,815988.460000
1628384.500000,816174.000000
Z" /> 
</g>
<g >
</g>
<g >
</g>
<g >
</g>
<g >
</g>
<g >
</g>
<g >
</g>
<g >
</g>
<g >
</g>
<g >
</g>
<g >
</g>
<g >
</g>
</g> 
</svg>
