<?xml version="1.0" standalone="no"?>
 <!DOCTYPE svg PUBLIC "-//W3C//DTD SVG 1.1//EN" 
 "http://www.w3.org/Graphics/SVG/1.1/DTD/svg11.dtd"> 
<svg
  xmlns:svg="http://www.w3.org/2000/svg"
  xmlns="http://www.w3.org/2000/svg"
  xmlns:xlink="http://www.w3.org/1999/xlink"
  version="1.1"
  width="297.0022mm" height="210.0072mm" viewBox="0.0000 0.0000 297.0022 210.0072">
<title>SVG Image created as t1-F_Paste.svg date 2024/02/01 16:11:59 </title>
  <desc>Image generated by PCBNEW </desc>
<g style="fill:#000000; fill-opacity:1.0000;stroke:#000000; stroke-opacity:1.0000;
stroke-linecap:round; stroke-linejoin:round;"
 transform="translate(0 0) scale(1 1)">
</g>
<g style="fill:#000000; fill-opacity:0.0; 
stroke:#000000; stroke-width:0.0000; stroke-opacity:1; 
stroke-linecap:round; stroke-linejoin:round;">
<g >
</g>
<g style="fill:#000000; fill-opacity:0.0; 
stroke:#000000; stroke-width:0.0000; stroke-opacity:1; 
stroke-linecap:round; stroke-linejoin:round;">
</g>
<g style="fill:#000000; fill-opacity:1.0000; 
stroke:#000000; stroke-width:0.0000; stroke-opacity:1; 
stroke-linecap:round; stroke-linejoin:round;">
<path style="fill:#000000; fill-opacity:1.0000; 
stroke:#000000; stroke-width:0.0000; stroke-opacity:1; 
stroke-linecap:round; stroke-linejoin:round;fill-rule:evenodd;"
d="M 131.8354,89.8944
131.9311,89.9134
132.0122,89.9676
132.0664,90.0487
132.0854,90.1444
132.0854,93.1444
132.0664,93.2401
132.0122,93.3212
131.9311,93.3754
131.8354,93.3944
129.8354,93.3944
129.7397,93.3754
129.6586,93.3212
129.6044,93.2401
129.5854,93.1444
129.5854,90.1444
129.6044,90.0487
129.6586,89.9676
129.7397,89.9134
129.8354,89.8944
Z" /> 
<path style="fill:#000000; fill-opacity:1.0000; 
stroke:#000000; stroke-width:0.0000; stroke-opacity:1; 
stroke-linecap:round; stroke-linejoin:round;fill-rule:evenodd;"
d="M 131.8354,96.3944
131.9311,96.4134
132.0122,96.4676
132.0664,96.5487
132.0854,96.6444
132.0854,99.6444
132.0664,99.7401
132.0122,99.8212
131.9311,99.8754
131.8354,99.8944
129.8354,99.8944
129.7397,99.8754
129.6586,99.8212
129.6044,99.7401
129.5854,99.6444
129.5854,96.6444
129.6044,96.5487
129.6586,96.4676
129.7397,96.4134
129.8354,96.3944
Z" /> 
</g>
<g >
</g>
<g style="fill:#000000; fill-opacity:1.0000; 
stroke:#000000; stroke-width:0.0000; stroke-opacity:1; 
stroke-linecap:round; stroke-linejoin:round;">
<path style="fill:#000000; fill-opacity:1.0000; 
stroke:#000000; stroke-width:0.0000; stroke-opacity:1; 
stroke-linecap:round; stroke-linejoin:round;fill-rule:evenodd;"
d="M 121.5750,90.4437
121.5936,90.3505
121.6464,90.2714
121.7255,90.2186
121.8187,90.2000
122.3062,90.2000
122.3995,90.2186
122.4786,90.2714
122.5314,90.3505
122.5500,90.4437
122.5500,91.3563
122.5314,91.4495
122.4786,91.5286
122.3995,91.5814
122.3062,91.6000
121.8187,91.6000
121.7255,91.5814
121.6464,91.5286
121.5936,91.4495
121.5750,91.3563
Z" /> 
<path style="fill:#000000; fill-opacity:1.0000; 
stroke:#000000; stroke-width:0.0000; stroke-opacity:1; 
stroke-linecap:round; stroke-linejoin:round;fill-rule:evenodd;"
d="M 123.4500,90.4437
123.4686,90.3505
123.5214,90.2714
123.6005,90.2186
123.6937,90.2000
124.1812,90.2000
124.2745,90.2186
124.3536,90.2714
124.4064,90.3505
124.4250,90.4437
124.4250,91.3563
124.4064,91.4495
124.3536,91.5286
124.2745,91.5814
124.1812,91.6000
123.6937,91.6000
123.6005,91.5814
123.5214,91.5286
123.4686,91.4495
123.4500,91.3563
Z" /> 
</g>
<g >
</g>
<g style="fill:#000000; fill-opacity:1.0000; 
stroke:#000000; stroke-width:0.0000; stroke-opacity:1; 
stroke-linecap:round; stroke-linejoin:round;">
<path style="fill:#000000; fill-opacity:1.0000; 
stroke:#000000; stroke-width:0.0000; stroke-opacity:1; 
stroke-linecap:round; stroke-linejoin:round;fill-rule:evenodd;"
d="M 162.7163,73.6910
162.8095,73.7096
162.8886,73.7624
162.9414,73.8415
162.9600,73.9347
162.9600,74.4222
162.9414,74.5155
162.8886,74.5946
162.8095,74.6474
162.7163,74.6660
161.8037,74.6660
161.7105,74.6474
161.6314,74.5946
161.5786,74.5155
161.5600,74.4222
161.5600,73.9347
161.5786,73.8415
161.6314,73.7624
161.7105,73.7096
161.8037,73.6910
Z" /> 
<path style="fill:#000000; fill-opacity:1.0000; 
stroke:#000000; stroke-width:0.0000; stroke-opacity:1; 
stroke-linecap:round; stroke-linejoin:round;fill-rule:evenodd;"
d="M 162.7163,75.5660
162.8095,75.5846
162.8886,75.6374
162.9414,75.7165
162.9600,75.8097
162.9600,76.2972
162.9414,76.3905
162.8886,76.4696
162.8095,76.5224
162.7163,76.5410
161.8037,76.5410
161.7105,76.5224
161.6314,76.4696
161.5786,76.3905
161.5600,76.2972
161.5600,75.8097
161.5786,75.7165
161.6314,75.6374
161.7105,75.5846
161.8037,75.5660
Z" /> 
</g>
<g >
</g>
<g style="fill:#000000; fill-opacity:1.0000; 
stroke:#000000; stroke-width:0.0000; stroke-opacity:1; 
stroke-linecap:round; stroke-linejoin:round;">
<path style="fill:#000000; fill-opacity:1.0000; 
stroke:#000000; stroke-width:0.0000; stroke-opacity:1; 
stroke-linecap:round; stroke-linejoin:round;fill-rule:evenodd;"
d="M 156.3662,73.6910
156.4595,73.7096
156.5386,73.7624
156.5914,73.8415
156.6100,73.9347
156.6100,74.4222
156.5914,74.5155
156.5386,74.5946
156.4595,74.6474
156.3662,74.6660
155.4537,74.6660
155.3605,74.6474
155.2814,74.5946
155.2286,74.5155
155.2100,74.4222
155.2100,73.9347
155.2286,73.8415
155.2814,73.7624
155.3605,73.7096
155.4537,73.6910
Z" /> 
<path style="fill:#000000; fill-opacity:1.0000; 
stroke:#000000; stroke-width:0.0000; stroke-opacity:1; 
stroke-linecap:round; stroke-linejoin:round;fill-rule:evenodd;"
d="M 156.3662,75.5660
156.4595,75.5846
156.5386,75.6374
156.5914,75.7165
156.6100,75.8097
156.6100,76.2972
156.5914,76.3905
156.5386,76.4696
156.4595,76.5224
156.3662,76.5410
155.4537,76.5410
155.3605,76.5224
155.2814,76.4696
155.2286,76.3905
155.2100,76.2972
155.2100,75.8097
155.2286,75.7165
155.2814,75.6374
155.3605,75.5846
155.4537,75.5660
Z" /> 
</g>
<g >
</g>
<g style="fill:#000000; fill-opacity:1.0000; 
stroke:#000000; stroke-width:0.0000; stroke-opacity:1; 
stroke-linecap:round; stroke-linejoin:round;">
<path style="fill:#000000; fill-opacity:1.0000; 
stroke:#000000; stroke-width:0.0000; stroke-opacity:1; 
stroke-linecap:round; stroke-linejoin:round;fill-rule:evenodd;"
d="M 163.7782,87.7290
163.8715,87.7476
163.9506,87.8004
164.0034,87.8795
164.0220,87.9727
164.0220,88.4603
164.0034,88.5535
163.9506,88.6326
163.8715,88.6854
163.7782,88.7040
162.8657,88.7040
162.7725,88.6854
162.6934,88.6326
162.6406,88.5535
162.6220,88.4603
162.6220,87.9727
162.6406,87.8795
162.6934,87.8004
162.7725,87.7476
162.8657,87.7290
Z" /> 
<path style="fill:#000000; fill-opacity:1.0000; 
stroke:#000000; stroke-width:0.0000; stroke-opacity:1; 
stroke-linecap:round; stroke-linejoin:round;fill-rule:evenodd;"
d="M 163.7782,89.6040
163.8715,89.6226
163.9506,89.6754
164.0034,89.7545
164.0220,89.8477
164.0220,90.3353
164.0034,90.4285
163.9506,90.5076
163.8715,90.5604
163.7782,90.5790
162.8657,90.5790
162.7725,90.5604
162.6934,90.5076
162.6406,90.4285
162.6220,90.3353
162.6220,89.8477
162.6406,89.7545
162.6934,89.6754
162.7725,89.6226
162.8657,89.6040
Z" /> 
</g>
<g >
</g>
<g style="fill:#000000; fill-opacity:1.0000; 
stroke:#000000; stroke-width:0.0000; stroke-opacity:1; 
stroke-linecap:round; stroke-linejoin:round;">
<path style="fill:#000000; fill-opacity:1.0000; 
stroke:#000000; stroke-width:0.0000; stroke-opacity:1; 
stroke-linecap:round; stroke-linejoin:round;fill-rule:evenodd;"
d="M 152.5498,78.4107
152.5684,78.3175
152.6212,78.2384
152.7003,78.1856
152.7935,78.1670
153.2810,78.1670
153.3743,78.1856
153.4534,78.2384
153.5062,78.3175
153.5248,78.4107
153.5248,79.3233
153.5062,79.4165
153.4534,79.4956
153.3743,79.5484
153.2810,79.5670
152.7935,79.5670
152.7003,79.5484
152.6212,79.4956
152.5684,79.4165
152.5498,79.3233
Z" /> 
<path style="fill:#000000; fill-opacity:1.0000; 
stroke:#000000; stroke-width:0.0000; stroke-opacity:1; 
stroke-linecap:round; stroke-linejoin:round;fill-rule:evenodd;"
d="M 154.4248,78.4107
154.4434,78.3175
154.4962,78.2384
154.5753,78.1856
154.6685,78.1670
155.1560,78.1670
155.2493,78.1856
155.3284,78.2384
155.3812,78.3175
155.3998,78.4107
155.3998,79.3233
155.3812,79.4165
155.3284,79.4956
155.2493,79.5484
155.1560,79.5670
154.6685,79.5670
154.5753,79.5484
154.4962,79.4956
154.4434,79.4165
154.4248,79.3233
Z" /> 
</g>
<g >
</g>
<g style="fill:#000000; fill-opacity:1.0000; 
stroke:#000000; stroke-width:0.0000; stroke-opacity:1; 
stroke-linecap:round; stroke-linejoin:round;">
<path style="fill:#000000; fill-opacity:1.0000; 
stroke:#000000; stroke-width:0.0000; stroke-opacity:1; 
stroke-linecap:round; stroke-linejoin:round;fill-rule:evenodd;"
d="M 144.2983,80.3936
144.2051,80.3750
144.1260,80.3222
144.0732,80.2431
144.0546,80.1499
144.0546,79.6623
144.0732,79.5691
144.1260,79.4900
144.2051,79.4372
144.2983,79.4186
145.2108,79.4186
145.3041,79.4372
145.3832,79.4900
145.4360,79.5691
145.4546,79.6623
145.4546,80.1499
145.4360,80.2431
145.3832,80.3222
145.3041,80.3750
145.2108,80.3936
Z" /> 
<path style="fill:#000000; fill-opacity:1.0000; 
stroke:#000000; stroke-width:0.0000; stroke-opacity:1; 
stroke-linecap:round; stroke-linejoin:round;fill-rule:evenodd;"
d="M 144.2983,78.5186
144.2051,78.5000
144.1260,78.4472
144.0732,78.3681
144.0546,78.2749
144.0546,77.7874
144.0732,77.6941
144.1260,77.6150
144.2051,77.5622
144.2983,77.5436
145.2108,77.5436
145.3041,77.5622
145.3832,77.6150
145.4360,77.6941
145.4546,77.7874
145.4546,78.2749
145.4360,78.3681
145.3832,78.4472
145.3041,78.5000
145.2108,78.5186
Z" /> 
</g>
<g >
</g>
<g style="fill:#000000; fill-opacity:1.0000; 
stroke:#000000; stroke-width:0.0000; stroke-opacity:1; 
stroke-linecap:round; stroke-linejoin:round;">
<path style="fill:#000000; fill-opacity:1.0000; 
stroke:#000000; stroke-width:0.0000; stroke-opacity:1; 
stroke-linecap:round; stroke-linejoin:round;fill-rule:evenodd;"
d="M 162.1890,98.7990
162.0933,98.7800
162.0122,98.7258
161.9580,98.6447
161.9390,98.5490
161.9390,97.7990
161.9580,97.7033
162.0122,97.6222
162.0933,97.5680
162.1890,97.5490
163.4390,97.5490
163.5347,97.5680
163.6158,97.6222
163.6700,97.7033
163.6890,97.7990
163.6890,98.5490
163.6700,98.6447
163.6158,98.7258
163.5347,98.7800
163.4390,98.7990
Z" /> 
<path style="fill:#000000; fill-opacity:1.0000; 
stroke:#000000; stroke-width:0.0000; stroke-opacity:1; 
stroke-linecap:round; stroke-linejoin:round;fill-rule:evenodd;"
d="M 162.1890,95.9990
162.0933,95.9800
162.0122,95.9258
161.9580,95.8447
161.9390,95.7490
161.9390,94.9990
161.9580,94.9033
162.0122,94.8222
162.0933,94.7680
162.1890,94.7490
163.4390,94.7490
163.5347,94.7680
163.6158,94.8222
163.6700,94.9033
163.6890,94.9990
163.6890,95.7490
163.6700,95.8447
163.6158,95.9258
163.5347,95.9800
163.4390,95.9990
Z" /> 
</g>
<g >
</g>
<g style="fill:#000000; fill-opacity:1.0000; 
stroke:#000000; stroke-width:0.0000; stroke-opacity:1; 
stroke-linecap:round; stroke-linejoin:round;">
<path style="fill:#000000; fill-opacity:1.0000; 
stroke:#000000; stroke-width:0.0000; stroke-opacity:1; 
stroke-linecap:round; stroke-linejoin:round;fill-rule:evenodd;"
d="M 146.8637,76.3750
146.7705,76.3564
146.6914,76.3036
146.6386,76.2245
146.6200,76.1312
146.6200,75.6437
146.6386,75.5505
146.6914,75.4714
146.7705,75.4186
146.8637,75.4000
147.7763,75.4000
147.8695,75.4186
147.9486,75.4714
148.0014,75.5505
148.0200,75.6437
148.0200,76.1312
148.0014,76.2245
147.9486,76.3036
147.8695,76.3564
147.7763,76.3750
Z" /> 
<path style="fill:#000000; fill-opacity:1.0000; 
stroke:#000000; stroke-width:0.0000; stroke-opacity:1; 
stroke-linecap:round; stroke-linejoin:round;fill-rule:evenodd;"
d="M 146.8637,74.5000
146.7705,74.4814
146.6914,74.4286
146.6386,74.3495
146.6200,74.2562
146.6200,73.7687
146.6386,73.6755
146.6914,73.5964
146.7705,73.5436
146.8637,73.5250
147.7763,73.5250
147.8695,73.5436
147.9486,73.5964
148.0014,73.6755
148.0200,73.7687
148.0200,74.2562
148.0014,74.3495
147.9486,74.4286
147.8695,74.4814
147.7763,74.5000
Z" /> 
</g>
<g >
</g>
<g style="fill:#000000; fill-opacity:1.0000; 
stroke:#000000; stroke-width:0.0000; stroke-opacity:1; 
stroke-linecap:round; stroke-linejoin:round;">
<path style="fill:#000000; fill-opacity:1.0000; 
stroke:#000000; stroke-width:0.0000; stroke-opacity:1; 
stroke-linecap:round; stroke-linejoin:round;fill-rule:evenodd;"
d="M 144.3237,76.3750
144.2305,76.3564
144.1514,76.3036
144.0986,76.2245
144.0800,76.1312
144.0800,75.6437
144.0986,75.5505
144.1514,75.4714
144.2305,75.4186
144.3237,75.4000
145.2362,75.4000
145.3295,75.4186
145.4086,75.4714
145.4614,75.5505
145.4800,75.6437
145.4800,76.1312
145.4614,76.2245
145.4086,76.3036
145.3295,76.3564
145.2362,76.3750
Z" /> 
<path style="fill:#000000; fill-opacity:1.0000; 
stroke:#000000; stroke-width:0.0000; stroke-opacity:1; 
stroke-linecap:round; stroke-linejoin:round;fill-rule:evenodd;"
d="M 144.3237,74.5000
144.2305,74.4814
144.1514,74.4286
144.0986,74.3495
144.0800,74.2562
144.0800,73.7687
144.0986,73.6755
144.1514,73.5964
144.2305,73.5436
144.3237,73.5250
145.2362,73.5250
145.3295,73.5436
145.4086,73.5964
145.4614,73.6755
145.4800,73.7687
145.4800,74.2562
145.4614,74.3495
145.4086,74.4286
145.3295,74.4814
145.2362,74.5000
Z" /> 
</g>
<g >
</g>
<g style="fill:#000000; fill-opacity:1.0000; 
stroke:#000000; stroke-width:0.0000; stroke-opacity:1; 
stroke-linecap:round; stroke-linejoin:round;">
<path style="fill:#000000; fill-opacity:1.0000; 
stroke:#000000; stroke-width:0.0000; stroke-opacity:1; 
stroke-linecap:round; stroke-linejoin:round;fill-rule:evenodd;"
d="M 165.1940,75.7660
165.2130,75.6703
165.2672,75.5892
165.3483,75.5350
165.4440,75.5160
166.0690,75.5160
166.1647,75.5350
166.2458,75.5892
166.3000,75.6703
166.3190,75.7660
166.3190,78.6660
166.3000,78.7617
166.2458,78.8428
166.1647,78.8970
166.0690,78.9160
165.4440,78.9160
165.3483,78.8970
165.2672,78.8428
165.2130,78.7617
165.1940,78.6660
Z" /> 
<path style="fill:#000000; fill-opacity:1.0000; 
stroke:#000000; stroke-width:0.0000; stroke-opacity:1; 
stroke-linecap:round; stroke-linejoin:round;fill-rule:evenodd;"
d="M 169.4690,75.7660
169.4880,75.6703
169.5422,75.5892
169.6233,75.5350
169.7190,75.5160
170.3440,75.5160
170.4397,75.5350
170.5208,75.5892
170.5750,75.6703
170.5940,75.7660
170.5940,78.6660
170.5750,78.7617
170.5208,78.8428
170.4397,78.8970
170.3440,78.9160
169.7190,78.9160
169.6233,78.8970
169.5422,78.8428
169.4880,78.7617
169.4690,78.6660
Z" /> 
</g>
<g >
</g>
<g style="fill:#000000; fill-opacity:1.0000; 
stroke:#000000; stroke-width:0.0000; stroke-opacity:1; 
stroke-linecap:round; stroke-linejoin:round;">
<path style="fill:#000000; fill-opacity:1.0000; 
stroke:#000000; stroke-width:0.0000; stroke-opacity:1; 
stroke-linecap:round; stroke-linejoin:round;fill-rule:evenodd;"
d="M 169.3190,91.1342
169.3004,91.2275
169.2476,91.3066
169.1685,91.3594
169.0752,91.3780
168.5877,91.3780
168.4945,91.3594
168.4154,91.3066
168.3626,91.2275
168.3440,91.1342
168.3440,90.2218
168.3626,90.1285
168.4154,90.0494
168.4945,89.9966
168.5877,89.9780
169.0752,89.9780
169.1685,89.9966
169.2476,90.0494
169.3004,90.1285
169.3190,90.2218
Z" /> 
<path style="fill:#000000; fill-opacity:1.0000; 
stroke:#000000; stroke-width:0.0000; stroke-opacity:1; 
stroke-linecap:round; stroke-linejoin:round;fill-rule:evenodd;"
d="M 167.4440,91.1342
167.4254,91.2275
167.3726,91.3066
167.2935,91.3594
167.2002,91.3780
166.7127,91.3780
166.6195,91.3594
166.5404,91.3066
166.4876,91.2275
166.4690,91.1342
166.4690,90.2218
166.4876,90.1285
166.5404,90.0494
166.6195,89.9966
166.7127,89.9780
167.2002,89.9780
167.2935,89.9966
167.3726,90.0494
167.4254,90.1285
167.4440,90.2218
Z" /> 
</g>
<g >
</g>
<g >
</g>
<g >
</g>
<g >
</g>
<g >
</g>
<g >
</g>
<g >
</g>
<g >
</g>
<g >
</g>
<g style="fill:#000000; fill-opacity:1.0000; 
stroke:#000000; stroke-width:0.0000; stroke-opacity:1; 
stroke-linecap:round; stroke-linejoin:round;">
<path style="fill:#000000; fill-opacity:1.0000; 
stroke:#000000; stroke-width:0.0000; stroke-opacity:1; 
stroke-linecap:round; stroke-linejoin:round;fill-rule:evenodd;"
d="M 124.1000,77.2000
122.1000,77.2000
122.1000,74.2000
124.1000,74.2000
Z" /> 
<path style="fill:#000000; fill-opacity:1.0000; 
stroke:#000000; stroke-width:0.0000; stroke-opacity:1; 
stroke-linecap:round; stroke-linejoin:round;fill-rule:evenodd;"
d="M 130.1000,77.2000
128.1000,77.2000
128.1000,74.2000
130.1000,74.2000
Z" /> 
<path style="fill:#000000; fill-opacity:1.0000; 
stroke:#000000; stroke-width:0.0000; stroke-opacity:1; 
stroke-linecap:round; stroke-linejoin:round;fill-rule:evenodd;"
d="M 130.1000,88.2000
128.1000,88.2000
128.1000,85.2000
130.1000,85.2000
Z" /> 
<path style="fill:#000000; fill-opacity:1.0000; 
stroke:#000000; stroke-width:0.0000; stroke-opacity:1; 
stroke-linecap:round; stroke-linejoin:round;fill-rule:evenodd;"
d="M 124.1000,88.2000
122.1000,88.2000
122.1000,85.2000
124.1000,85.2000
Z" /> 
</g>
<g >
</g>
<g >
</g>
<g >
</g>
<g >
</g>
<g >
</g>
<g >
</g>
<g style="fill:#000000; fill-opacity:1.0000; 
stroke:#000000; stroke-width:0.0000; stroke-opacity:1; 
stroke-linecap:round; stroke-linejoin:round;">
<path style="fill:#000000; fill-opacity:1.0000; 
stroke:#000000; stroke-width:0.0000; stroke-opacity:1; 
stroke-linecap:round; stroke-linejoin:round;fill-rule:evenodd;"
d="M 164.9450,85.6497
164.9636,85.5565
165.0164,85.4774
165.0955,85.4246
165.1887,85.4060
165.6762,85.4060
165.7695,85.4246
165.8486,85.4774
165.9014,85.5565
165.9200,85.6497
165.9200,86.5622
165.9014,86.6555
165.8486,86.7346
165.7695,86.7874
165.6762,86.8060
165.1887,86.8060
165.0955,86.7874
165.0164,86.7346
164.9636,86.6555
164.9450,86.5622
Z" /> 
<path style="fill:#000000; fill-opacity:1.0000; 
stroke:#000000; stroke-width:0.0000; stroke-opacity:1; 
stroke-linecap:round; stroke-linejoin:round;fill-rule:evenodd;"
d="M 166.8200,85.6497
166.8386,85.5565
166.8914,85.4774
166.9705,85.4246
167.0637,85.4060
167.5512,85.4060
167.6445,85.4246
167.7236,85.4774
167.7764,85.5565
167.7950,85.6497
167.7950,86.5622
167.7764,86.6555
167.7236,86.7346
167.6445,86.7874
167.5512,86.8060
167.0637,86.8060
166.9705,86.7874
166.8914,86.7346
166.8386,86.6555
166.8200,86.5622
Z" /> 
</g>
<g >
</g>
<g style="fill:#000000; fill-opacity:1.0000; 
stroke:#000000; stroke-width:0.0000; stroke-opacity:1; 
stroke-linecap:round; stroke-linejoin:round;">
<path style="fill:#000000; fill-opacity:1.0000; 
stroke:#000000; stroke-width:0.0000; stroke-opacity:1; 
stroke-linecap:round; stroke-linejoin:round;fill-rule:evenodd;"
d="M 164.9450,83.3637
164.9636,83.2705
165.0164,83.1914
165.0955,83.1386
165.1887,83.1200
165.6762,83.1200
165.7695,83.1386
165.8486,83.1914
165.9014,83.2705
165.9200,83.3637
165.9200,84.2762
165.9014,84.3695
165.8486,84.4486
165.7695,84.5014
165.6762,84.5200
165.1887,84.5200
165.0955,84.5014
165.0164,84.4486
164.9636,84.3695
164.9450,84.2762
Z" /> 
<path style="fill:#000000; fill-opacity:1.0000; 
stroke:#000000; stroke-width:0.0000; stroke-opacity:1; 
stroke-linecap:round; stroke-linejoin:round;fill-rule:evenodd;"
d="M 166.8200,83.3637
166.8386,83.2705
166.8914,83.1914
166.9705,83.1386
167.0637,83.1200
167.5512,83.1200
167.6445,83.1386
167.7236,83.1914
167.7764,83.2705
167.7950,83.3637
167.7950,84.2762
167.7764,84.3695
167.7236,84.4486
167.6445,84.5014
167.5512,84.5200
167.0637,84.5200
166.9705,84.5014
166.8914,84.4486
166.8386,84.3695
166.8200,84.2762
Z" /> 
</g>
<g >
</g>
<g style="fill:#000000; fill-opacity:1.0000; 
stroke:#000000; stroke-width:0.0000; stroke-opacity:1; 
stroke-linecap:round; stroke-linejoin:round;">
<path style="fill:#000000; fill-opacity:1.0000; 
stroke:#000000; stroke-width:0.0000; stroke-opacity:1; 
stroke-linecap:round; stroke-linejoin:round;fill-rule:evenodd;"
d="M 160.3830,76.3342
160.3644,76.4275
160.3116,76.5066
160.2325,76.5594
160.1393,76.5780
159.6517,76.5780
159.5585,76.5594
159.4794,76.5066
159.4266,76.4275
159.4080,76.3342
159.4080,75.4218
159.4266,75.3285
159.4794,75.2494
159.5585,75.1966
159.6517,75.1780
160.1393,75.1780
160.2325,75.1966
160.3116,75.2494
160.3644,75.3285
160.3830,75.4218
Z" /> 
<path style="fill:#000000; fill-opacity:1.0000; 
stroke:#000000; stroke-width:0.0000; stroke-opacity:1; 
stroke-linecap:round; stroke-linejoin:round;fill-rule:evenodd;"
d="M 158.5080,76.3342
158.4894,76.4275
158.4366,76.5066
158.3575,76.5594
158.2643,76.5780
157.7767,76.5780
157.6835,76.5594
157.6044,76.5066
157.5516,76.4275
157.5330,76.3342
157.5330,75.4218
157.5516,75.3285
157.6044,75.2494
157.6835,75.1966
157.7767,75.1780
158.2643,75.1780
158.3575,75.1966
158.4366,75.2494
158.4894,75.3285
158.5080,75.4218
Z" /> 
</g>
<g >
</g>
<g style="fill:#000000; fill-opacity:1.0000; 
stroke:#000000; stroke-width:0.0000; stroke-opacity:1; 
stroke-linecap:round; stroke-linejoin:round;">
<path style="fill:#000000; fill-opacity:1.0000; 
stroke:#000000; stroke-width:0.0000; stroke-opacity:1; 
stroke-linecap:round; stroke-linejoin:round;fill-rule:evenodd;"
d="M 158.5477,97.1830
158.4545,97.1644
158.3754,97.1116
158.3226,97.0325
158.3040,96.9393
158.3040,96.4517
158.3226,96.3585
158.3754,96.2794
158.4545,96.2266
158.5477,96.2080
159.4603,96.2080
159.5535,96.2266
159.6326,96.2794
159.6854,96.3585
159.7040,96.4517
159.7040,96.9393
159.6854,97.0325
159.6326,97.1116
159.5535,97.1644
159.4603,97.1830
Z" /> 
<path style="fill:#000000; fill-opacity:1.0000; 
stroke:#000000; stroke-width:0.0000; stroke-opacity:1; 
stroke-linecap:round; stroke-linejoin:round;fill-rule:evenodd;"
d="M 158.5477,95.3080
158.4545,95.2894
158.3754,95.2366
158.3226,95.1575
158.3040,95.0643
158.3040,94.5767
158.3226,94.4835
158.3754,94.4044
158.4545,94.3516
158.5477,94.3330
159.4603,94.3330
159.5535,94.3516
159.6326,94.4044
159.6854,94.4835
159.7040,94.5767
159.7040,95.0643
159.6854,95.1575
159.6326,95.2366
159.5535,95.2894
159.4603,95.3080
Z" /> 
</g>
<g >
</g>
<g style="fill:#000000; fill-opacity:1.0000; 
stroke:#000000; stroke-width:0.0000; stroke-opacity:1; 
stroke-linecap:round; stroke-linejoin:round;">
<path style="fill:#000000; fill-opacity:1.0000; 
stroke:#000000; stroke-width:0.0000; stroke-opacity:1; 
stroke-linecap:round; stroke-linejoin:round;fill-rule:evenodd;"
d="M 145.2108,81.3790
145.3041,81.3976
145.3832,81.4504
145.4360,81.5295
145.4546,81.6227
145.4546,82.1102
145.4360,82.2035
145.3832,82.2826
145.3041,82.3354
145.2108,82.3540
144.2983,82.3540
144.2051,82.3354
144.1260,82.2826
144.0732,82.2035
144.0546,82.1102
144.0546,81.6227
144.0732,81.5295
144.1260,81.4504
144.2051,81.3976
144.2983,81.3790
Z" /> 
<path style="fill:#000000; fill-opacity:1.0000; 
stroke:#000000; stroke-width:0.0000; stroke-opacity:1; 
stroke-linecap:round; stroke-linejoin:round;fill-rule:evenodd;"
d="M 145.2108,83.2540
145.3041,83.2726
145.3832,83.3254
145.4360,83.4045
145.4546,83.4977
145.4546,83.9852
145.4360,84.0785
145.3832,84.1576
145.3041,84.2104
145.2108,84.2290
144.2983,84.2290
144.2051,84.2104
144.1260,84.1576
144.0732,84.0785
144.0546,83.9852
144.0546,83.4977
144.0732,83.4045
144.1260,83.3254
144.2051,83.2726
144.2983,83.2540
Z" /> 
</g>
<g >
</g>
<g style="fill:#000000; fill-opacity:1.0000; 
stroke:#000000; stroke-width:0.0000; stroke-opacity:1; 
stroke-linecap:round; stroke-linejoin:round;">
<path style="fill:#000000; fill-opacity:1.0000; 
stroke:#000000; stroke-width:0.0000; stroke-opacity:1; 
stroke-linecap:round; stroke-linejoin:round;fill-rule:evenodd;"
d="M 147.7763,68.7498
147.8695,68.7684
147.9486,68.8212
148.0014,68.9003
148.0200,68.9935
148.0200,69.4810
148.0014,69.5743
147.9486,69.6534
147.8695,69.7062
147.7763,69.7248
146.8637,69.7248
146.7705,69.7062
146.6914,69.6534
146.6386,69.5743
146.6200,69.4810
146.6200,68.9935
146.6386,68.9003
146.6914,68.8212
146.7705,68.7684
146.8637,68.7498
Z" /> 
<path style="fill:#000000; fill-opacity:1.0000; 
stroke:#000000; stroke-width:0.0000; stroke-opacity:1; 
stroke-linecap:round; stroke-linejoin:round;fill-rule:evenodd;"
d="M 147.7763,70.6248
147.8695,70.6434
147.9486,70.6962
148.0014,70.7753
148.0200,70.8685
148.0200,71.3560
148.0014,71.4493
147.9486,71.5284
147.8695,71.5812
147.7763,71.5998
146.8637,71.5998
146.7705,71.5812
146.6914,71.5284
146.6386,71.4493
146.6200,71.3560
146.6200,70.8685
146.6386,70.7753
146.6914,70.6962
146.7705,70.6434
146.8637,70.6248
Z" /> 
</g>
<g >
</g>
<g style="fill:#000000; fill-opacity:1.0000; 
stroke:#000000; stroke-width:0.0000; stroke-opacity:1; 
stroke-linecap:round; stroke-linejoin:round;">
<path style="fill:#000000; fill-opacity:1.0000; 
stroke:#000000; stroke-width:0.0000; stroke-opacity:1; 
stroke-linecap:round; stroke-linejoin:round;fill-rule:evenodd;"
d="M 145.2362,68.7498
145.3295,68.7684
145.4086,68.8212
145.4614,68.9003
145.4800,68.9935
145.4800,69.4810
145.4614,69.5743
145.4086,69.6534
145.3295,69.7062
145.2362,69.7248
144.3237,69.7248
144.2305,69.7062
144.1514,69.6534
144.0986,69.5743
144.0800,69.4810
144.0800,68.9935
144.0986,68.9003
144.1514,68.8212
144.2305,68.7684
144.3237,68.7498
Z" /> 
<path style="fill:#000000; fill-opacity:1.0000; 
stroke:#000000; stroke-width:0.0000; stroke-opacity:1; 
stroke-linecap:round; stroke-linejoin:round;fill-rule:evenodd;"
d="M 145.2362,70.6248
145.3295,70.6434
145.4086,70.6962
145.4614,70.7753
145.4800,70.8685
145.4800,71.3560
145.4614,71.4493
145.4086,71.5284
145.3295,71.5812
145.2362,71.5998
144.3237,71.5998
144.2305,71.5812
144.1514,71.5284
144.0986,71.4493
144.0800,71.3560
144.0800,70.8685
144.0986,70.7753
144.1514,70.6962
144.2305,70.6434
144.3237,70.6248
Z" /> 
</g>
<g >
</g>
<g style="fill:#000000; fill-opacity:1.0000; 
stroke:#000000; stroke-width:0.0000; stroke-opacity:1; 
stroke-linecap:round; stroke-linejoin:round;">
<path style="fill:#000000; fill-opacity:1.0000; 
stroke:#000000; stroke-width:0.0000; stroke-opacity:1; 
stroke-linecap:round; stroke-linejoin:round;fill-rule:evenodd;"
d="M 170.6902,86.1255
170.7740,86.1422
170.8449,86.1896
170.8923,86.2605
170.9090,86.3443
170.9090,86.7818
170.8923,86.8655
170.8449,86.9364
170.7740,86.9838
170.6902,87.0005
170.1778,87.0005
170.0940,86.9838
170.0231,86.9364
169.9757,86.8655
169.9590,86.7818
169.9590,86.3443
169.9757,86.2605
170.0231,86.1896
170.0940,86.1422
170.1778,86.1255
Z" /> 
<path style="fill:#000000; fill-opacity:1.0000; 
stroke:#000000; stroke-width:0.0000; stroke-opacity:1; 
stroke-linecap:round; stroke-linejoin:round;fill-rule:evenodd;"
d="M 170.6902,87.7005
170.7740,87.7172
170.8449,87.7646
170.8923,87.8355
170.9090,87.9192
170.9090,88.3567
170.8923,88.4405
170.8449,88.5114
170.7740,88.5588
170.6902,88.5755
170.1778,88.5755
170.0940,88.5588
170.0231,88.5114
169.9757,88.4405
169.9590,88.3567
169.9590,87.9192
169.9757,87.8355
170.0231,87.7646
170.0940,87.7172
170.1778,87.7005
Z" /> 
</g>
<g >
</g>
<g style="fill:#000000; fill-opacity:1.0000; 
stroke:#000000; stroke-width:0.0000; stroke-opacity:1; 
stroke-linecap:round; stroke-linejoin:round;">
<path style="fill:#000000; fill-opacity:1.0000; 
stroke:#000000; stroke-width:0.0000; stroke-opacity:1; 
stroke-linecap:round; stroke-linejoin:round;fill-rule:evenodd;"
d="M 161.9278,68.8278
161.9278,71.2278
160.0278,71.2278
160.0278,68.8278
Z" /> 
<path style="fill:#000000; fill-opacity:1.0000; 
stroke:#000000; stroke-width:0.0000; stroke-opacity:1; 
stroke-linecap:round; stroke-linejoin:round;fill-rule:evenodd;"
d="M 157.8278,68.8278
157.8278,71.2278
155.9278,71.2278
155.9278,68.8278
Z" /> 
</g>
<g >
</g>
<g >
</g>
<g style="fill:#000000; fill-opacity:1.0000; 
stroke:#000000; stroke-width:0.0000; stroke-opacity:1; 
stroke-linecap:round; stroke-linejoin:round;">
<path style="fill:#000000; fill-opacity:1.0000; 
stroke:#000000; stroke-width:0.0000; stroke-opacity:1; 
stroke-linecap:round; stroke-linejoin:round;fill-rule:evenodd;"
d="M 156.9570,80.8020
157.5070,80.8020
157.5070,82.4020
156.9570,82.4020
Z" /> 
<path style="fill:#000000; fill-opacity:1.0000; 
stroke:#000000; stroke-width:0.0000; stroke-opacity:1; 
stroke-linecap:round; stroke-linejoin:round;fill-rule:evenodd;"
d="M 156.1570,80.8020
156.7070,80.8020
156.7070,82.4020
156.1570,82.4020
Z" /> 
<path style="fill:#000000; fill-opacity:1.0000; 
stroke:#000000; stroke-width:0.0000; stroke-opacity:1; 
stroke-linecap:round; stroke-linejoin:round;fill-rule:evenodd;"
d="M 155.3570,80.8020
155.9070,80.8020
155.9070,82.4020
155.3570,82.4020
Z" /> 
<path style="fill:#000000; fill-opacity:1.0000; 
stroke:#000000; stroke-width:0.0000; stroke-opacity:1; 
stroke-linecap:round; stroke-linejoin:round;fill-rule:evenodd;"
d="M 154.5570,80.8020
155.1070,80.8020
155.1070,82.4020
154.5570,82.4020
Z" /> 
<path style="fill:#000000; fill-opacity:1.0000; 
stroke:#000000; stroke-width:0.0000; stroke-opacity:1; 
stroke-linecap:round; stroke-linejoin:round;fill-rule:evenodd;"
d="M 153.7570,80.8020
154.3070,80.8020
154.3070,82.4020
153.7570,82.4020
Z" /> 
<path style="fill:#000000; fill-opacity:1.0000; 
stroke:#000000; stroke-width:0.0000; stroke-opacity:1; 
stroke-linecap:round; stroke-linejoin:round;fill-rule:evenodd;"
d="M 152.9570,80.8020
153.5070,80.8020
153.5070,82.4020
152.9570,82.4020
Z" /> 
<path style="fill:#000000; fill-opacity:1.0000; 
stroke:#000000; stroke-width:0.0000; stroke-opacity:1; 
stroke-linecap:round; stroke-linejoin:round;fill-rule:evenodd;"
d="M 152.1570,80.8020
152.7070,80.8020
152.7070,82.4020
152.1570,82.4020
Z" /> 
<path style="fill:#000000; fill-opacity:1.0000; 
stroke:#000000; stroke-width:0.0000; stroke-opacity:1; 
stroke-linecap:round; stroke-linejoin:round;fill-rule:evenodd;"
d="M 151.3570,80.8020
151.9070,80.8020
151.9070,82.4020
151.3570,82.4020
Z" /> 
<path style="fill:#000000; fill-opacity:1.0000; 
stroke:#000000; stroke-width:0.0000; stroke-opacity:1; 
stroke-linecap:round; stroke-linejoin:round;fill-rule:evenodd;"
d="M 149.3820,83.3270
149.3820,82.7770
150.9820,82.7770
150.9820,83.3270
Z" /> 
<path style="fill:#000000; fill-opacity:1.0000; 
stroke:#000000; stroke-width:0.0000; stroke-opacity:1; 
stroke-linecap:round; stroke-linejoin:round;fill-rule:evenodd;"
d="M 149.3820,84.1270
149.3820,83.5770
150.9820,83.5770
150.9820,84.1270
Z" /> 
<path style="fill:#000000; fill-opacity:1.0000; 
stroke:#000000; stroke-width:0.0000; stroke-opacity:1; 
stroke-linecap:round; stroke-linejoin:round;fill-rule:evenodd;"
d="M 149.3820,84.9270
149.3820,84.3770
150.9820,84.3770
150.9820,84.9270
Z" /> 
<path style="fill:#000000; fill-opacity:1.0000; 
stroke:#000000; stroke-width:0.0000; stroke-opacity:1; 
stroke-linecap:round; stroke-linejoin:round;fill-rule:evenodd;"
d="M 149.3820,85.7270
149.3820,85.1770
150.9820,85.1770
150.9820,85.7270
Z" /> 
<path style="fill:#000000; fill-opacity:1.0000; 
stroke:#000000; stroke-width:0.0000; stroke-opacity:1; 
stroke-linecap:round; stroke-linejoin:round;fill-rule:evenodd;"
d="M 149.3820,86.5270
149.3820,85.9770
150.9820,85.9770
150.9820,86.5270
Z" /> 
<path style="fill:#000000; fill-opacity:1.0000; 
stroke:#000000; stroke-width:0.0000; stroke-opacity:1; 
stroke-linecap:round; stroke-linejoin:round;fill-rule:evenodd;"
d="M 149.3820,87.3270
149.3820,86.7770
150.9820,86.7770
150.9820,87.3270
Z" /> 
<path style="fill:#000000; fill-opacity:1.0000; 
stroke:#000000; stroke-width:0.0000; stroke-opacity:1; 
stroke-linecap:round; stroke-linejoin:round;fill-rule:evenodd;"
d="M 149.3820,88.1270
149.3820,87.5770
150.9820,87.5770
150.9820,88.1270
Z" /> 
<path style="fill:#000000; fill-opacity:1.0000; 
stroke:#000000; stroke-width:0.0000; stroke-opacity:1; 
stroke-linecap:round; stroke-linejoin:round;fill-rule:evenodd;"
d="M 149.3820,88.9270
149.3820,88.3770
150.9820,88.3770
150.9820,88.9270
Z" /> 
<path style="fill:#000000; fill-opacity:1.0000; 
stroke:#000000; stroke-width:0.0000; stroke-opacity:1; 
stroke-linecap:round; stroke-linejoin:round;fill-rule:evenodd;"
d="M 151.3570,89.3020
151.9070,89.3020
151.9070,90.9020
151.3570,90.9020
Z" /> 
<path style="fill:#000000; fill-opacity:1.0000; 
stroke:#000000; stroke-width:0.0000; stroke-opacity:1; 
stroke-linecap:round; stroke-linejoin:round;fill-rule:evenodd;"
d="M 152.1570,89.3020
152.7070,89.3020
152.7070,90.9020
152.1570,90.9020
Z" /> 
<path style="fill:#000000; fill-opacity:1.0000; 
stroke:#000000; stroke-width:0.0000; stroke-opacity:1; 
stroke-linecap:round; stroke-linejoin:round;fill-rule:evenodd;"
d="M 152.9570,89.3020
153.5070,89.3020
153.5070,90.9020
152.9570,90.9020
Z" /> 
<path style="fill:#000000; fill-opacity:1.0000; 
stroke:#000000; stroke-width:0.0000; stroke-opacity:1; 
stroke-linecap:round; stroke-linejoin:round;fill-rule:evenodd;"
d="M 153.7570,89.3020
154.3070,89.3020
154.3070,90.9020
153.7570,90.9020
Z" /> 
<path style="fill:#000000; fill-opacity:1.0000; 
stroke:#000000; stroke-width:0.0000; stroke-opacity:1; 
stroke-linecap:round; stroke-linejoin:round;fill-rule:evenodd;"
d="M 154.5570,89.3020
155.1070,89.3020
155.1070,90.9020
154.5570,90.9020
Z" /> 
<path style="fill:#000000; fill-opacity:1.0000; 
stroke:#000000; stroke-width:0.0000; stroke-opacity:1; 
stroke-linecap:round; stroke-linejoin:round;fill-rule:evenodd;"
d="M 155.3570,89.3020
155.9070,89.3020
155.9070,90.9020
155.3570,90.9020
Z" /> 
<path style="fill:#000000; fill-opacity:1.0000; 
stroke:#000000; stroke-width:0.0000; stroke-opacity:1; 
stroke-linecap:round; stroke-linejoin:round;fill-rule:evenodd;"
d="M 156.1570,89.3020
156.7070,89.3020
156.7070,90.9020
156.1570,90.9020
Z" /> 
<path style="fill:#000000; fill-opacity:1.0000; 
stroke:#000000; stroke-width:0.0000; stroke-opacity:1; 
stroke-linecap:round; stroke-linejoin:round;fill-rule:evenodd;"
d="M 156.9570,89.3020
157.5070,89.3020
157.5070,90.9020
156.9570,90.9020
Z" /> 
<path style="fill:#000000; fill-opacity:1.0000; 
stroke:#000000; stroke-width:0.0000; stroke-opacity:1; 
stroke-linecap:round; stroke-linejoin:round;fill-rule:evenodd;"
d="M 157.8820,88.9270
157.8820,88.3770
159.4820,88.3770
159.4820,88.9270
Z" /> 
<path style="fill:#000000; fill-opacity:1.0000; 
stroke:#000000; stroke-width:0.0000; stroke-opacity:1; 
stroke-linecap:round; stroke-linejoin:round;fill-rule:evenodd;"
d="M 157.8820,88.1270
157.8820,87.5770
159.4820,87.5770
159.4820,88.1270
Z" /> 
<path style="fill:#000000; fill-opacity:1.0000; 
stroke:#000000; stroke-width:0.0000; stroke-opacity:1; 
stroke-linecap:round; stroke-linejoin:round;fill-rule:evenodd;"
d="M 157.8820,87.3270
157.8820,86.7770
159.4820,86.7770
159.4820,87.3270
Z" /> 
<path style="fill:#000000; fill-opacity:1.0000; 
stroke:#000000; stroke-width:0.0000; stroke-opacity:1; 
stroke-linecap:round; stroke-linejoin:round;fill-rule:evenodd;"
d="M 157.8820,86.5270
157.8820,85.9770
159.4820,85.9770
159.4820,86.5270
Z" /> 
<path style="fill:#000000; fill-opacity:1.0000; 
stroke:#000000; stroke-width:0.0000; stroke-opacity:1; 
stroke-linecap:round; stroke-linejoin:round;fill-rule:evenodd;"
d="M 157.8820,85.7270
157.8820,85.1770
159.4820,85.1770
159.4820,85.7270
Z" /> 
<path style="fill:#000000; fill-opacity:1.0000; 
stroke:#000000; stroke-width:0.0000; stroke-opacity:1; 
stroke-linecap:round; stroke-linejoin:round;fill-rule:evenodd;"
d="M 157.8820,84.9270
157.8820,84.3770
159.4820,84.3770
159.4820,84.9270
Z" /> 
<path style="fill:#000000; fill-opacity:1.0000; 
stroke:#000000; stroke-width:0.0000; stroke-opacity:1; 
stroke-linecap:round; stroke-linejoin:round;fill-rule:evenodd;"
d="M 157.8820,84.1270
157.8820,83.5770
159.4820,83.5770
159.4820,84.1270
Z" /> 
<path style="fill:#000000; fill-opacity:1.0000; 
stroke:#000000; stroke-width:0.0000; stroke-opacity:1; 
stroke-linecap:round; stroke-linejoin:round;fill-rule:evenodd;"
d="M 157.8820,83.3270
157.8820,82.7770
159.4820,82.7770
159.4820,83.3270
Z" /> 
</g>
<g >
</g>
<g style="fill:#000000; fill-opacity:1.0000; 
stroke:#000000; stroke-width:0.0000; stroke-opacity:1; 
stroke-linecap:round; stroke-linejoin:round;">
<path style="fill:#000000; fill-opacity:1.0000; 
stroke:#000000; stroke-width:0.0000; stroke-opacity:1; 
stroke-linecap:round; stroke-linejoin:round;fill-rule:evenodd;"
d="M 170.1778,83.5464
170.0940,83.5297
170.0231,83.4823
169.9757,83.4114
169.9590,83.3276
169.9590,82.8901
169.9757,82.8064
170.0231,82.7355
170.0940,82.6881
170.1778,82.6714
170.6902,82.6714
170.7740,82.6881
170.8449,82.7355
170.8923,82.8064
170.9090,82.8901
170.9090,83.3276
170.8923,83.4114
170.8449,83.4823
170.7740,83.5297
170.6902,83.5464
Z" /> 
<path style="fill:#000000; fill-opacity:1.0000; 
stroke:#000000; stroke-width:0.0000; stroke-opacity:1; 
stroke-linecap:round; stroke-linejoin:round;fill-rule:evenodd;"
d="M 170.1778,81.9714
170.0940,81.9547
170.0231,81.9073
169.9757,81.8364
169.9590,81.7527
169.9590,81.3152
169.9757,81.2314
170.0231,81.1605
170.0940,81.1131
170.1778,81.0964
170.6902,81.0964
170.7740,81.1131
170.8449,81.1605
170.8923,81.2314
170.9090,81.3152
170.9090,81.7527
170.8923,81.8364
170.8449,81.9073
170.7740,81.9547
170.6902,81.9714
Z" /> 
</g>
<g >
</g>
<g style="fill:#000000; fill-opacity:1.0000; 
stroke:#000000; stroke-width:0.0000; stroke-opacity:1; 
stroke-linecap:round; stroke-linejoin:round;">
<path style="fill:#000000; fill-opacity:1.0000; 
stroke:#000000; stroke-width:0.0000; stroke-opacity:1; 
stroke-linecap:round; stroke-linejoin:round;fill-rule:evenodd;"
d="M 161.9260,83.4924
161.8327,83.4738
161.7536,83.4210
161.7008,83.3419
161.6822,83.2486
161.6822,82.7612
161.7008,82.6679
161.7536,82.5888
161.8327,82.5360
161.9260,82.5174
162.8384,82.5174
162.9317,82.5360
163.0108,82.5888
163.0636,82.6679
163.0822,82.7612
163.0822,83.2486
163.0636,83.3419
163.0108,83.4210
162.9317,83.4738
162.8384,83.4924
Z" /> 
<path style="fill:#000000; fill-opacity:1.0000; 
stroke:#000000; stroke-width:0.0000; stroke-opacity:1; 
stroke-linecap:round; stroke-linejoin:round;fill-rule:evenodd;"
d="M 161.9260,81.6174
161.8327,81.5988
161.7536,81.5460
161.7008,81.4669
161.6822,81.3736
161.6822,80.8862
161.7008,80.7929
161.7536,80.7138
161.8327,80.6610
161.9260,80.6424
162.8384,80.6424
162.9317,80.6610
163.0108,80.7138
163.0636,80.7929
163.0822,80.8862
163.0822,81.3736
163.0636,81.4669
163.0108,81.5460
162.9317,81.5988
162.8384,81.6174
Z" /> 
</g>
<g >
</g>
<g >
</g>
<g >
</g>
<g >
</g>
<g >
</g>
<g >
</g>
<g >
</g>
<g >
</g>
<g >
</g>
<g >
</g>
<g >
</g>
</g> 
</svg>
