<?xml version="1.0" standalone="no"?>
 <!DOCTYPE svg PUBLIC "-//W3C//DTD SVG 1.1//EN" 
 "http://www.w3.org/Graphics/SVG/1.1/DTD/svg11.dtd"> 
<svg
  xmlns:svg="http://www.w3.org/2000/svg"
  xmlns="http://www.w3.org/2000/svg"
  xmlns:xlink="http://www.w3.org/1999/xlink"
  version="1.1"
  width="297.0022mm" height="210.0072mm" viewBox="0.0000 0.0000 297.0022 210.0072">
<title>SVG Image created as t1-F_Mask.svg date 2024/02/01 16:11:59 </title>
  <desc>Image generated by PCBNEW </desc>
<g style="fill:#000000; fill-opacity:1.0000;stroke:#000000; stroke-opacity:1.0000;
stroke-linecap:round; stroke-linejoin:round;"
 transform="translate(0 0) scale(1 1)">
</g>
<g style="fill:#000000; fill-opacity:0.0; 
stroke:#000000; stroke-width:0.0000; stroke-opacity:1; 
stroke-linecap:round; stroke-linejoin:round;">
<g >
</g>
<g style="fill:#000000; fill-opacity:0.0; 
stroke:#000000; stroke-width:0.0000; stroke-opacity:1; 
stroke-linecap:round; stroke-linejoin:round;">
</g>
<g style="fill:#000000; fill-opacity:1.0000; 
stroke:#000000; stroke-width:0.0000; stroke-opacity:1; 
stroke-linecap:round; stroke-linejoin:round;">
<path style="fill:#000000; fill-opacity:1.0000; 
stroke:#000000; stroke-width:0.0000; stroke-opacity:1; 
stroke-linecap:round; stroke-linejoin:round;fill-rule:evenodd;"
d="M 131.8354,89.8444
131.9041,89.8524
132.0049,89.8969
132.0829,89.9749
132.1274,90.0757
132.1354,90.1444
132.1354,93.1444
132.1274,93.2131
132.0829,93.3139
132.0049,93.3919
131.9041,93.4364
131.8354,93.4444
129.8354,93.4444
129.7667,93.4364
129.6659,93.3919
129.5879,93.3139
129.5434,93.2131
129.5354,93.1444
129.5354,90.1444
129.5434,90.0757
129.5879,89.9749
129.6659,89.8969
129.7667,89.8524
129.8354,89.8444
Z" /> 
<path style="fill:#000000; fill-opacity:1.0000; 
stroke:#000000; stroke-width:0.0000; stroke-opacity:1; 
stroke-linecap:round; stroke-linejoin:round;fill-rule:evenodd;"
d="M 131.8354,96.3444
131.9041,96.3524
132.0049,96.3969
132.0829,96.4749
132.1274,96.5757
132.1354,96.6444
132.1354,99.6444
132.1274,99.7131
132.0829,99.8139
132.0049,99.8919
131.9041,99.9364
131.8354,99.9444
129.8354,99.9444
129.7667,99.9364
129.6659,99.8919
129.5879,99.8139
129.5434,99.7131
129.5354,99.6444
129.5354,96.6444
129.5434,96.5757
129.5879,96.4749
129.6659,96.3969
129.7667,96.3524
129.8354,96.3444
Z" /> 
</g>
<g >
</g>
<g style="fill:#000000; fill-opacity:1.0000; 
stroke:#000000; stroke-width:0.0000; stroke-opacity:1; 
stroke-linecap:round; stroke-linejoin:round;">
<path style="fill:#000000; fill-opacity:1.0000; 
stroke:#000000; stroke-width:0.0000; stroke-opacity:1; 
stroke-linecap:round; stroke-linejoin:round;fill-rule:evenodd;"
d="M 121.5250,90.4437
121.5328,90.3765
121.5764,90.2777
121.6527,90.2014
121.7515,90.1578
121.8187,90.1500
122.3062,90.1500
122.3735,90.1578
122.4723,90.2014
122.5486,90.2777
122.5922,90.3765
122.6000,90.4437
122.6000,91.3563
122.5922,91.4235
122.5486,91.5223
122.4723,91.5986
122.3735,91.6422
122.3062,91.6500
121.8187,91.6500
121.7515,91.6422
121.6527,91.5986
121.5764,91.5223
121.5328,91.4235
121.5250,91.3563
Z" /> 
<path style="fill:#000000; fill-opacity:1.0000; 
stroke:#000000; stroke-width:0.0000; stroke-opacity:1; 
stroke-linecap:round; stroke-linejoin:round;fill-rule:evenodd;"
d="M 123.4000,90.4437
123.4078,90.3765
123.4514,90.2777
123.5277,90.2014
123.6265,90.1578
123.6937,90.1500
124.1812,90.1500
124.2485,90.1578
124.3473,90.2014
124.4236,90.2777
124.4672,90.3765
124.4750,90.4437
124.4750,91.3563
124.4672,91.4235
124.4236,91.5223
124.3473,91.5986
124.2485,91.6422
124.1812,91.6500
123.6937,91.6500
123.6265,91.6422
123.5277,91.5986
123.4514,91.5223
123.4078,91.4235
123.4000,91.3563
Z" /> 
</g>
<g >
</g>
<g style="fill:#000000; fill-opacity:1.0000; 
stroke:#000000; stroke-width:0.0000; stroke-opacity:1; 
stroke-linecap:round; stroke-linejoin:round;">
<path style="fill:#000000; fill-opacity:1.0000; 
stroke:#000000; stroke-width:0.0000; stroke-opacity:1; 
stroke-linecap:round; stroke-linejoin:round;fill-rule:evenodd;"
d="M 162.7163,73.6410
162.7835,73.6488
162.8823,73.6924
162.9586,73.7687
163.0022,73.8675
163.0100,73.9347
163.0100,74.4222
163.0022,74.4895
162.9586,74.5883
162.8823,74.6646
162.7835,74.7082
162.7163,74.7160
161.8037,74.7160
161.7365,74.7082
161.6377,74.6646
161.5614,74.5883
161.5178,74.4895
161.5100,74.4222
161.5100,73.9347
161.5178,73.8675
161.5614,73.7687
161.6377,73.6924
161.7365,73.6488
161.8037,73.6410
Z" /> 
<path style="fill:#000000; fill-opacity:1.0000; 
stroke:#000000; stroke-width:0.0000; stroke-opacity:1; 
stroke-linecap:round; stroke-linejoin:round;fill-rule:evenodd;"
d="M 162.7163,75.5160
162.7835,75.5238
162.8823,75.5674
162.9586,75.6437
163.0022,75.7425
163.0100,75.8097
163.0100,76.2972
163.0022,76.3645
162.9586,76.4633
162.8823,76.5396
162.7835,76.5832
162.7163,76.5910
161.8037,76.5910
161.7365,76.5832
161.6377,76.5396
161.5614,76.4633
161.5178,76.3645
161.5100,76.2972
161.5100,75.8097
161.5178,75.7425
161.5614,75.6437
161.6377,75.5674
161.7365,75.5238
161.8037,75.5160
Z" /> 
</g>
<g >
</g>
<g style="fill:#000000; fill-opacity:1.0000; 
stroke:#000000; stroke-width:0.0000; stroke-opacity:1; 
stroke-linecap:round; stroke-linejoin:round;">
<path style="fill:#000000; fill-opacity:1.0000; 
stroke:#000000; stroke-width:0.0000; stroke-opacity:1; 
stroke-linecap:round; stroke-linejoin:round;fill-rule:evenodd;"
d="M 156.3662,73.6410
156.4335,73.6488
156.5323,73.6924
156.6086,73.7687
156.6522,73.8675
156.6600,73.9347
156.6600,74.4222
156.6522,74.4895
156.6086,74.5883
156.5323,74.6646
156.4335,74.7082
156.3662,74.7160
155.4537,74.7160
155.3865,74.7082
155.2877,74.6646
155.2114,74.5883
155.1678,74.4895
155.1600,74.4222
155.1600,73.9347
155.1678,73.8675
155.2114,73.7687
155.2877,73.6924
155.3865,73.6488
155.4537,73.6410
Z" /> 
<path style="fill:#000000; fill-opacity:1.0000; 
stroke:#000000; stroke-width:0.0000; stroke-opacity:1; 
stroke-linecap:round; stroke-linejoin:round;fill-rule:evenodd;"
d="M 156.3662,75.5160
156.4335,75.5238
156.5323,75.5674
156.6086,75.6437
156.6522,75.7425
156.6600,75.8097
156.6600,76.2972
156.6522,76.3645
156.6086,76.4633
156.5323,76.5396
156.4335,76.5832
156.3662,76.5910
155.4537,76.5910
155.3865,76.5832
155.2877,76.5396
155.2114,76.4633
155.1678,76.3645
155.1600,76.2972
155.1600,75.8097
155.1678,75.7425
155.2114,75.6437
155.2877,75.5674
155.3865,75.5238
155.4537,75.5160
Z" /> 
</g>
<g >
</g>
<g style="fill:#000000; fill-opacity:1.0000; 
stroke:#000000; stroke-width:0.0000; stroke-opacity:1; 
stroke-linecap:round; stroke-linejoin:round;">
<path style="fill:#000000; fill-opacity:1.0000; 
stroke:#000000; stroke-width:0.0000; stroke-opacity:1; 
stroke-linecap:round; stroke-linejoin:round;fill-rule:evenodd;"
d="M 163.7782,87.6790
163.8455,87.6868
163.9443,87.7304
164.0206,87.8067
164.0642,87.9055
164.0720,87.9727
164.0720,88.4603
164.0642,88.5275
164.0206,88.6263
163.9443,88.7026
163.8455,88.7462
163.7782,88.7540
162.8657,88.7540
162.7985,88.7462
162.6997,88.7026
162.6234,88.6263
162.5798,88.5275
162.5720,88.4603
162.5720,87.9727
162.5798,87.9055
162.6234,87.8067
162.6997,87.7304
162.7985,87.6868
162.8657,87.6790
Z" /> 
<path style="fill:#000000; fill-opacity:1.0000; 
stroke:#000000; stroke-width:0.0000; stroke-opacity:1; 
stroke-linecap:round; stroke-linejoin:round;fill-rule:evenodd;"
d="M 163.7782,89.5540
163.8455,89.5618
163.9443,89.6054
164.0206,89.6817
164.0642,89.7805
164.0720,89.8477
164.0720,90.3353
164.0642,90.4025
164.0206,90.5013
163.9443,90.5776
163.8455,90.6212
163.7782,90.6290
162.8657,90.6290
162.7985,90.6212
162.6997,90.5776
162.6234,90.5013
162.5798,90.4025
162.5720,90.3353
162.5720,89.8477
162.5798,89.7805
162.6234,89.6817
162.6997,89.6054
162.7985,89.5618
162.8657,89.5540
Z" /> 
</g>
<g >
</g>
<g style="fill:#000000; fill-opacity:1.0000; 
stroke:#000000; stroke-width:0.0000; stroke-opacity:1; 
stroke-linecap:round; stroke-linejoin:round;">
<path style="fill:#000000; fill-opacity:1.0000; 
stroke:#000000; stroke-width:0.0000; stroke-opacity:1; 
stroke-linecap:round; stroke-linejoin:round;fill-rule:evenodd;"
d="M 152.4998,78.4107
152.5076,78.3435
152.5512,78.2447
152.6275,78.1684
152.7263,78.1248
152.7935,78.1170
153.2810,78.1170
153.3483,78.1248
153.4471,78.1684
153.5234,78.2447
153.5670,78.3435
153.5748,78.4107
153.5748,79.3233
153.5670,79.3905
153.5234,79.4893
153.4471,79.5656
153.3483,79.6092
153.2810,79.6170
152.7935,79.6170
152.7263,79.6092
152.6275,79.5656
152.5512,79.4893
152.5076,79.3905
152.4998,79.3233
Z" /> 
<path style="fill:#000000; fill-opacity:1.0000; 
stroke:#000000; stroke-width:0.0000; stroke-opacity:1; 
stroke-linecap:round; stroke-linejoin:round;fill-rule:evenodd;"
d="M 154.3748,78.4107
154.3826,78.3435
154.4262,78.2447
154.5025,78.1684
154.6013,78.1248
154.6685,78.1170
155.1560,78.1170
155.2233,78.1248
155.3221,78.1684
155.3984,78.2447
155.4420,78.3435
155.4498,78.4107
155.4498,79.3233
155.4420,79.3905
155.3984,79.4893
155.3221,79.5656
155.2233,79.6092
155.1560,79.6170
154.6685,79.6170
154.6013,79.6092
154.5025,79.5656
154.4262,79.4893
154.3826,79.3905
154.3748,79.3233
Z" /> 
</g>
<g >
</g>
<g style="fill:#000000; fill-opacity:1.0000; 
stroke:#000000; stroke-width:0.0000; stroke-opacity:1; 
stroke-linecap:round; stroke-linejoin:round;">
<path style="fill:#000000; fill-opacity:1.0000; 
stroke:#000000; stroke-width:0.0000; stroke-opacity:1; 
stroke-linecap:round; stroke-linejoin:round;fill-rule:evenodd;"
d="M 144.2983,80.4436
144.2311,80.4358
144.1323,80.3922
144.0560,80.3159
144.0124,80.2171
144.0046,80.1499
144.0046,79.6623
144.0124,79.5951
144.0560,79.4963
144.1323,79.4200
144.2311,79.3764
144.2983,79.3686
145.2108,79.3686
145.2781,79.3764
145.3769,79.4200
145.4532,79.4963
145.4968,79.5951
145.5046,79.6623
145.5046,80.1499
145.4968,80.2171
145.4532,80.3159
145.3769,80.3922
145.2781,80.4358
145.2108,80.4436
Z" /> 
<path style="fill:#000000; fill-opacity:1.0000; 
stroke:#000000; stroke-width:0.0000; stroke-opacity:1; 
stroke-linecap:round; stroke-linejoin:round;fill-rule:evenodd;"
d="M 144.2983,78.5686
144.2311,78.5608
144.1323,78.5172
144.0560,78.4409
144.0124,78.3421
144.0046,78.2749
144.0046,77.7874
144.0124,77.7201
144.0560,77.6213
144.1323,77.5450
144.2311,77.5014
144.2983,77.4936
145.2108,77.4936
145.2781,77.5014
145.3769,77.5450
145.4532,77.6213
145.4968,77.7201
145.5046,77.7874
145.5046,78.2749
145.4968,78.3421
145.4532,78.4409
145.3769,78.5172
145.2781,78.5608
145.2108,78.5686
Z" /> 
</g>
<g >
</g>
<g style="fill:#000000; fill-opacity:1.0000; 
stroke:#000000; stroke-width:0.0000; stroke-opacity:1; 
stroke-linecap:round; stroke-linejoin:round;">
<path style="fill:#000000; fill-opacity:1.0000; 
stroke:#000000; stroke-width:0.0000; stroke-opacity:1; 
stroke-linecap:round; stroke-linejoin:round;fill-rule:evenodd;"
d="M 162.1890,98.8490
162.1203,98.8410
162.0195,98.7965
161.9415,98.7185
161.8970,98.6177
161.8890,98.5490
161.8890,97.7990
161.8970,97.7303
161.9415,97.6295
162.0195,97.5515
162.1203,97.5070
162.1890,97.4990
163.4390,97.4990
163.5077,97.5070
163.6085,97.5515
163.6865,97.6295
163.7310,97.7303
163.7390,97.7990
163.7390,98.5490
163.7310,98.6177
163.6865,98.7185
163.6085,98.7965
163.5077,98.8410
163.4390,98.8490
Z" /> 
<path style="fill:#000000; fill-opacity:1.0000; 
stroke:#000000; stroke-width:0.0000; stroke-opacity:1; 
stroke-linecap:round; stroke-linejoin:round;fill-rule:evenodd;"
d="M 162.1890,96.0490
162.1203,96.0410
162.0195,95.9965
161.9415,95.9185
161.8970,95.8177
161.8890,95.7490
161.8890,94.9990
161.8970,94.9303
161.9415,94.8295
162.0195,94.7515
162.1203,94.7070
162.1890,94.6990
163.4390,94.6990
163.5077,94.7070
163.6085,94.7515
163.6865,94.8295
163.7310,94.9303
163.7390,94.9990
163.7390,95.7490
163.7310,95.8177
163.6865,95.9185
163.6085,95.9965
163.5077,96.0410
163.4390,96.0490
Z" /> 
</g>
<g >
</g>
<g style="fill:#000000; fill-opacity:1.0000; 
stroke:#000000; stroke-width:0.0000; stroke-opacity:1; 
stroke-linecap:round; stroke-linejoin:round;">
<path style="fill:#000000; fill-opacity:1.0000; 
stroke:#000000; stroke-width:0.0000; stroke-opacity:1; 
stroke-linecap:round; stroke-linejoin:round;fill-rule:evenodd;"
d="M 146.8637,76.4250
146.7965,76.4172
146.6977,76.3736
146.6214,76.2973
146.5778,76.1985
146.5700,76.1312
146.5700,75.6437
146.5778,75.5765
146.6214,75.4777
146.6977,75.4014
146.7965,75.3578
146.8637,75.3500
147.7763,75.3500
147.8435,75.3578
147.9423,75.4014
148.0186,75.4777
148.0622,75.5765
148.0700,75.6437
148.0700,76.1312
148.0622,76.1985
148.0186,76.2973
147.9423,76.3736
147.8435,76.4172
147.7763,76.4250
Z" /> 
<path style="fill:#000000; fill-opacity:1.0000; 
stroke:#000000; stroke-width:0.0000; stroke-opacity:1; 
stroke-linecap:round; stroke-linejoin:round;fill-rule:evenodd;"
d="M 146.8637,74.5500
146.7965,74.5422
146.6977,74.4986
146.6214,74.4223
146.5778,74.3235
146.5700,74.2562
146.5700,73.7687
146.5778,73.7015
146.6214,73.6027
146.6977,73.5264
146.7965,73.4828
146.8637,73.4750
147.7763,73.4750
147.8435,73.4828
147.9423,73.5264
148.0186,73.6027
148.0622,73.7015
148.0700,73.7687
148.0700,74.2562
148.0622,74.3235
148.0186,74.4223
147.9423,74.4986
147.8435,74.5422
147.7763,74.5500
Z" /> 
</g>
<g >
</g>
<g style="fill:#000000; fill-opacity:1.0000; 
stroke:#000000; stroke-width:0.0000; stroke-opacity:1; 
stroke-linecap:round; stroke-linejoin:round;">
<path style="fill:#000000; fill-opacity:1.0000; 
stroke:#000000; stroke-width:0.0000; stroke-opacity:1; 
stroke-linecap:round; stroke-linejoin:round;fill-rule:evenodd;"
d="M 144.3237,76.4250
144.2565,76.4172
144.1577,76.3736
144.0814,76.2973
144.0378,76.1985
144.0300,76.1312
144.0300,75.6437
144.0378,75.5765
144.0814,75.4777
144.1577,75.4014
144.2565,75.3578
144.3237,75.3500
145.2362,75.3500
145.3035,75.3578
145.4023,75.4014
145.4786,75.4777
145.5222,75.5765
145.5300,75.6437
145.5300,76.1312
145.5222,76.1985
145.4786,76.2973
145.4023,76.3736
145.3035,76.4172
145.2362,76.4250
Z" /> 
<path style="fill:#000000; fill-opacity:1.0000; 
stroke:#000000; stroke-width:0.0000; stroke-opacity:1; 
stroke-linecap:round; stroke-linejoin:round;fill-rule:evenodd;"
d="M 144.3237,74.5500
144.2565,74.5422
144.1577,74.4986
144.0814,74.4223
144.0378,74.3235
144.0300,74.2562
144.0300,73.7687
144.0378,73.7015
144.0814,73.6027
144.1577,73.5264
144.2565,73.4828
144.3237,73.4750
145.2362,73.4750
145.3035,73.4828
145.4023,73.5264
145.4786,73.6027
145.5222,73.7015
145.5300,73.7687
145.5300,74.2562
145.5222,74.3235
145.4786,74.4223
145.4023,74.4986
145.3035,74.5422
145.2362,74.5500
Z" /> 
</g>
<g >
</g>
<g style="fill:#000000; fill-opacity:1.0000; 
stroke:#000000; stroke-width:0.0000; stroke-opacity:1; 
stroke-linecap:round; stroke-linejoin:round;">
<path style="fill:#000000; fill-opacity:1.0000; 
stroke:#000000; stroke-width:0.0000; stroke-opacity:1; 
stroke-linecap:round; stroke-linejoin:round;fill-rule:evenodd;"
d="M 165.1440,75.7660
165.1520,75.6973
165.1965,75.5965
165.2745,75.5185
165.3753,75.4740
165.4440,75.4660
166.0690,75.4660
166.1377,75.4740
166.2385,75.5185
166.3165,75.5965
166.3610,75.6973
166.3690,75.7660
166.3690,78.6660
166.3610,78.7347
166.3165,78.8355
166.2385,78.9135
166.1377,78.9580
166.0690,78.9660
165.4440,78.9660
165.3753,78.9580
165.2745,78.9135
165.1965,78.8355
165.1520,78.7347
165.1440,78.6660
Z" /> 
<path style="fill:#000000; fill-opacity:1.0000; 
stroke:#000000; stroke-width:0.0000; stroke-opacity:1; 
stroke-linecap:round; stroke-linejoin:round;fill-rule:evenodd;"
d="M 169.4190,75.7660
169.4270,75.6973
169.4715,75.5965
169.5495,75.5185
169.6503,75.4740
169.7190,75.4660
170.3440,75.4660
170.4127,75.4740
170.5135,75.5185
170.5915,75.5965
170.6360,75.6973
170.6440,75.7660
170.6440,78.6660
170.6360,78.7347
170.5915,78.8355
170.5135,78.9135
170.4127,78.9580
170.3440,78.9660
169.7190,78.9660
169.6503,78.9580
169.5495,78.9135
169.4715,78.8355
169.4270,78.7347
169.4190,78.6660
Z" /> 
</g>
<g >
</g>
<g style="fill:#000000; fill-opacity:1.0000; 
stroke:#000000; stroke-width:0.0000; stroke-opacity:1; 
stroke-linecap:round; stroke-linejoin:round;">
<path style="fill:#000000; fill-opacity:1.0000; 
stroke:#000000; stroke-width:0.0000; stroke-opacity:1; 
stroke-linecap:round; stroke-linejoin:round;fill-rule:evenodd;"
d="M 169.3690,91.1342
169.3612,91.2015
169.3176,91.3003
169.2413,91.3766
169.1425,91.4202
169.0752,91.4280
168.5877,91.4280
168.5205,91.4202
168.4217,91.3766
168.3454,91.3003
168.3018,91.2015
168.2940,91.1342
168.2940,90.2218
168.3018,90.1545
168.3454,90.0557
168.4217,89.9794
168.5205,89.9358
168.5877,89.9280
169.0752,89.9280
169.1425,89.9358
169.2413,89.9794
169.3176,90.0557
169.3612,90.1545
169.3690,90.2218
Z" /> 
<path style="fill:#000000; fill-opacity:1.0000; 
stroke:#000000; stroke-width:0.0000; stroke-opacity:1; 
stroke-linecap:round; stroke-linejoin:round;fill-rule:evenodd;"
d="M 167.4940,91.1342
167.4862,91.2015
167.4426,91.3003
167.3663,91.3766
167.2675,91.4202
167.2002,91.4280
166.7127,91.4280
166.6455,91.4202
166.5467,91.3766
166.4704,91.3003
166.4268,91.2015
166.4190,91.1342
166.4190,90.2218
166.4268,90.1545
166.4704,90.0557
166.5467,89.9794
166.6455,89.9358
166.7127,89.9280
167.2002,89.9280
167.2675,89.9358
167.3663,89.9794
167.4426,90.0557
167.4862,90.1545
167.4940,90.2218
Z" /> 
</g>
<g >
</g>
<g style="fill:#000000; fill-opacity:1.0000; 
stroke:#000000; stroke-width:0.0000; stroke-opacity:1; 
stroke-linecap:round; stroke-linejoin:round;">
<circle cx="169.4180" cy="70.6120" r="0.7500" /> 
</g>
<g style="fill:#000000; fill-opacity:1.0000; 
stroke:#000000; stroke-width:0.0212; stroke-opacity:1; 
stroke-linecap:round; stroke-linejoin:round;">
</g>
<g >
</g>
<g style="fill:#000000; fill-opacity:1.0000; 
stroke:#000000; stroke-width:0.0212; stroke-opacity:1; 
stroke-linecap:round; stroke-linejoin:round;">
</g>
<g style="fill:#000000; fill-opacity:1.0000; 
stroke:#000000; stroke-width:0.0000; stroke-opacity:1; 
stroke-linecap:round; stroke-linejoin:round;">
<circle cx="171.7040" cy="97.2820" r="0.7500" /> 
</g>
<g style="fill:#000000; fill-opacity:1.0000; 
stroke:#000000; stroke-width:0.0212; stroke-opacity:1; 
stroke-linecap:round; stroke-linejoin:round;">
</g>
<g >
</g>
<g style="fill:#000000; fill-opacity:1.0000; 
stroke:#000000; stroke-width:0.0212; stroke-opacity:1; 
stroke-linecap:round; stroke-linejoin:round;">
</g>
<g style="fill:#000000; fill-opacity:1.0000; 
stroke:#000000; stroke-width:0.0000; stroke-opacity:1; 
stroke-linecap:round; stroke-linejoin:round;">
<circle cx="129.9972" cy="70.0786" r="0.7500" /> 
</g>
<g style="fill:#000000; fill-opacity:1.0000; 
stroke:#000000; stroke-width:0.0212; stroke-opacity:1; 
stroke-linecap:round; stroke-linejoin:round;">
</g>
<g >
</g>
<g style="fill:#000000; fill-opacity:1.0000; 
stroke:#000000; stroke-width:0.0212; stroke-opacity:1; 
stroke-linecap:round; stroke-linejoin:round;">
</g>
<g style="fill:#000000; fill-opacity:1.0000; 
stroke:#000000; stroke-width:0.0000; stroke-opacity:1; 
stroke-linecap:round; stroke-linejoin:round;">
<circle cx="137.2108" cy="98.1710" r="0.7500" /> 
</g>
<g style="fill:#000000; fill-opacity:1.0000; 
stroke:#000000; stroke-width:0.0212; stroke-opacity:1; 
stroke-linecap:round; stroke-linejoin:round;">
</g>
<g >
</g>
<g style="fill:#000000; fill-opacity:1.0000; 
stroke:#000000; stroke-width:0.0212; stroke-opacity:1; 
stroke-linecap:round; stroke-linejoin:round;">
</g>
<g style="fill:#000000; fill-opacity:1.0000; 
stroke:#000000; stroke-width:0.0000; stroke-opacity:1; 
stroke-linecap:round; stroke-linejoin:round;">
<circle cx="177.0000" cy="97.0000" r="1.4000" /> 
</g>
<g style="fill:#000000; fill-opacity:1.0000; 
stroke:#000000; stroke-width:0.0212; stroke-opacity:1; 
stroke-linecap:round; stroke-linejoin:round;">
</g>
<g >
</g>
<g style="fill:#000000; fill-opacity:1.0000; 
stroke:#000000; stroke-width:0.0212; stroke-opacity:1; 
stroke-linecap:round; stroke-linejoin:round;">
</g>
<g style="fill:#000000; fill-opacity:1.0000; 
stroke:#000000; stroke-width:0.0000; stroke-opacity:1; 
stroke-linecap:round; stroke-linejoin:round;">
<circle cx="123.0000" cy="97.0000" r="1.4000" /> 
</g>
<g style="fill:#000000; fill-opacity:1.0000; 
stroke:#000000; stroke-width:0.0212; stroke-opacity:1; 
stroke-linecap:round; stroke-linejoin:round;">
</g>
<g >
</g>
<g style="fill:#000000; fill-opacity:1.0000; 
stroke:#000000; stroke-width:0.0212; stroke-opacity:1; 
stroke-linecap:round; stroke-linejoin:round;">
</g>
<g style="fill:#000000; fill-opacity:1.0000; 
stroke:#000000; stroke-width:0.0000; stroke-opacity:1; 
stroke-linecap:round; stroke-linejoin:round;">
<circle cx="123.0000" cy="69.5000" r="1.4000" /> 
</g>
<g style="fill:#000000; fill-opacity:1.0000; 
stroke:#000000; stroke-width:0.0212; stroke-opacity:1; 
stroke-linecap:round; stroke-linejoin:round;">
</g>
<g >
</g>
<g style="fill:#000000; fill-opacity:1.0000; 
stroke:#000000; stroke-width:0.0212; stroke-opacity:1; 
stroke-linecap:round; stroke-linejoin:round;">
</g>
<g style="fill:#000000; fill-opacity:1.0000; 
stroke:#000000; stroke-width:0.0000; stroke-opacity:1; 
stroke-linecap:round; stroke-linejoin:round;">
<circle cx="177.0000" cy="69.5000" r="1.4000" /> 
</g>
<g style="fill:#000000; fill-opacity:1.0000; 
stroke:#000000; stroke-width:0.0212; stroke-opacity:1; 
stroke-linecap:round; stroke-linejoin:round;">
</g>
<g >
</g>
<g style="fill:#000000; fill-opacity:1.0000; 
stroke:#000000; stroke-width:0.0212; stroke-opacity:1; 
stroke-linecap:round; stroke-linejoin:round;">
</g>
<g style="fill:#000000; fill-opacity:1.0000; 
stroke:#000000; stroke-width:1.6000; stroke-opacity:1; 
stroke-linecap:round; stroke-linejoin:round;">
</g>
<g style="fill:#000000; fill-opacity:0.0; 
stroke:#000000; stroke-width:1.6000; stroke-opacity:1; 
stroke-linecap:round; stroke-linejoin:round;">
<path d="M123.2000 81.4500
L123.2000 80.9500
" />
</g>
<g style="fill:#000000; fill-opacity:1.0000; 
stroke:#000000; stroke-width:0.0000; stroke-opacity:1; 
stroke-linecap:round; stroke-linejoin:round;">
<circle cx="127.6000" cy="81.2000" r="1.0500" /> 
</g>
<g style="fill:#000000; fill-opacity:1.0000; 
stroke:#000000; stroke-width:0.0212; stroke-opacity:1; 
stroke-linecap:round; stroke-linejoin:round;">
</g>
<g style="fill:#000000; fill-opacity:1.0000; 
stroke:#000000; stroke-width:0.0000; stroke-opacity:1; 
stroke-linecap:round; stroke-linejoin:round;">
<path style="fill:#000000; fill-opacity:1.0000; 
stroke:#000000; stroke-width:0.0000; stroke-opacity:1; 
stroke-linecap:round; stroke-linejoin:round;fill-rule:evenodd;"
d="M 122.1000,77.2500
122.0809,77.2462
122.0646,77.2354
122.0538,77.2191
122.0500,77.2000
122.0500,74.2000
122.0538,74.1809
122.0646,74.1646
122.0809,74.1538
122.1000,74.1500
124.1000,74.1500
124.1191,74.1538
124.1354,74.1646
124.1462,74.1809
124.1500,74.2000
124.1500,77.2000
124.1462,77.2191
124.1354,77.2354
124.1191,77.2462
124.1000,77.2500
Z" /> 
<path style="fill:#000000; fill-opacity:1.0000; 
stroke:#000000; stroke-width:0.0000; stroke-opacity:1; 
stroke-linecap:round; stroke-linejoin:round;fill-rule:evenodd;"
d="M 128.1000,77.2500
128.0809,77.2462
128.0646,77.2354
128.0538,77.2191
128.0500,77.2000
128.0500,74.2000
128.0538,74.1809
128.0646,74.1646
128.0809,74.1538
128.1000,74.1500
130.1000,74.1500
130.1191,74.1538
130.1354,74.1646
130.1462,74.1809
130.1500,74.2000
130.1500,77.2000
130.1462,77.2191
130.1354,77.2354
130.1191,77.2462
130.1000,77.2500
Z" /> 
<path style="fill:#000000; fill-opacity:1.0000; 
stroke:#000000; stroke-width:0.0000; stroke-opacity:1; 
stroke-linecap:round; stroke-linejoin:round;fill-rule:evenodd;"
d="M 128.1000,88.2500
128.0809,88.2462
128.0646,88.2354
128.0538,88.2191
128.0500,88.2000
128.0500,85.2000
128.0538,85.1809
128.0646,85.1646
128.0809,85.1538
128.1000,85.1500
130.1000,85.1500
130.1191,85.1538
130.1354,85.1646
130.1462,85.1809
130.1500,85.2000
130.1500,88.2000
130.1462,88.2191
130.1354,88.2354
130.1191,88.2462
130.1000,88.2500
Z" /> 
<path style="fill:#000000; fill-opacity:1.0000; 
stroke:#000000; stroke-width:0.0000; stroke-opacity:1; 
stroke-linecap:round; stroke-linejoin:round;fill-rule:evenodd;"
d="M 122.1000,88.2500
122.0809,88.2462
122.0646,88.2354
122.0538,88.2191
122.0500,88.2000
122.0500,85.2000
122.0538,85.1809
122.0646,85.1646
122.0809,85.1538
122.1000,85.1500
124.1000,85.1500
124.1191,85.1538
124.1354,85.1646
124.1462,85.1809
124.1500,85.2000
124.1500,88.2000
124.1462,88.2191
124.1354,88.2354
124.1191,88.2462
124.1000,88.2500
Z" /> 
</g>
<g >
</g>
<g style="fill:#000000; fill-opacity:1.0000; 
stroke:#000000; stroke-width:0.0000; stroke-opacity:1; 
stroke-linecap:round; stroke-linejoin:round;">
<path style="fill:#000000; fill-opacity:1.0000; 
stroke:#000000; stroke-width:0.0000; stroke-opacity:1; 
stroke-linecap:round; stroke-linejoin:round;fill-rule:evenodd;"
d="M 137.2000,80.3500
137.1962,80.3691
137.1854,80.3854
137.1691,80.3962
137.1500,80.4000
135.4500,80.4000
135.4309,80.3962
135.4146,80.3854
135.4038,80.3691
135.4000,80.3500
135.4000,78.6500
135.4038,78.6309
135.4146,78.6146
135.4309,78.6038
135.4500,78.6000
137.1500,78.6000
137.1691,78.6038
137.1854,78.6146
137.1962,78.6309
137.2000,78.6500
Z" /> 
<circle cx="136.3000" cy="76.9600" r="0.9000" /> 
<circle cx="136.3000" cy="74.4200" r="0.9000" /> 
<circle cx="136.3000" cy="71.8800" r="0.9000" /> 
<circle cx="136.3000" cy="69.3400" r="0.9000" /> 
</g>
<g >
</g>
<g style="fill:#000000; fill-opacity:1.0000; 
stroke:#000000; stroke-width:0.0000; stroke-opacity:1; 
stroke-linecap:round; stroke-linejoin:round;">
<path style="fill:#000000; fill-opacity:1.0000; 
stroke:#000000; stroke-width:0.0000; stroke-opacity:1; 
stroke-linecap:round; stroke-linejoin:round;fill-rule:evenodd;"
d="M 150.9920,94.4000
150.9958,94.3809
151.0066,94.3646
151.0229,94.3538
151.0420,94.3500
152.7420,94.3500
152.7611,94.3538
152.7774,94.3646
152.7882,94.3809
152.7920,94.4000
152.7920,96.1000
152.7882,96.1191
152.7774,96.1354
152.7611,96.1462
152.7420,96.1500
151.0420,96.1500
151.0229,96.1462
151.0066,96.1354
150.9958,96.1191
150.9920,96.1000
Z" /> 
<circle cx="154.4320" cy="95.2500" r="0.9000" /> 
<circle cx="151.8920" cy="97.7900" r="0.9000" /> 
<circle cx="154.4320" cy="97.7900" r="0.9000" /> 
</g>
<g >
</g>
<g style="fill:#000000; fill-opacity:1.0000; 
stroke:#000000; stroke-width:0.0000; stroke-opacity:1; 
stroke-linecap:round; stroke-linejoin:round;">
<path style="fill:#000000; fill-opacity:1.0000; 
stroke:#000000; stroke-width:0.0000; stroke-opacity:1; 
stroke-linecap:round; stroke-linejoin:round;fill-rule:evenodd;"
d="M 140.2724,98.6646
140.2533,98.6608
140.2370,98.6500
140.2262,98.6337
140.2224,98.6146
140.2224,96.9146
140.2262,96.8955
140.2370,96.8792
140.2533,96.8684
140.2724,96.8646
141.9724,96.8646
141.9915,96.8684
142.0078,96.8792
142.0186,96.8955
142.0224,96.9146
142.0224,98.6146
142.0186,98.6337
142.0078,98.6500
141.9915,98.6608
141.9724,98.6646
Z" /> 
<circle cx="141.1224" cy="95.2246" r="0.9000" /> 
<circle cx="143.6624" cy="97.7646" r="0.9000" /> 
<circle cx="143.6624" cy="95.2246" r="0.9000" /> 
<circle cx="146.2024" cy="97.7646" r="0.9000" /> 
<circle cx="146.2024" cy="95.2246" r="0.9000" /> 
</g>
<g >
</g>
<g style="fill:#000000; fill-opacity:1.0000; 
stroke:#000000; stroke-width:0.0000; stroke-opacity:1; 
stroke-linecap:round; stroke-linejoin:round;">
<path style="fill:#000000; fill-opacity:1.0000; 
stroke:#000000; stroke-width:0.0000; stroke-opacity:1; 
stroke-linecap:round; stroke-linejoin:round;fill-rule:evenodd;"
d="M 140.0700,76.3660
140.0738,76.3469
140.0846,76.3306
140.1009,76.3198
140.1200,76.3160
141.8200,76.3160
141.8391,76.3198
141.8554,76.3306
141.8662,76.3469
141.8700,76.3660
141.8700,78.0660
141.8662,78.0851
141.8554,78.1014
141.8391,78.1122
141.8200,78.1160
140.1200,78.1160
140.1009,78.1122
140.0846,78.1014
140.0738,78.0851
140.0700,78.0660
Z" /> 
<circle cx="140.9700" cy="79.7560" r="0.9000" /> 
<circle cx="140.9700" cy="82.2960" r="0.9000" /> 
<circle cx="140.9700" cy="84.8360" r="0.9000" /> 
<circle cx="140.9700" cy="87.3760" r="0.9000" /> 
<circle cx="140.9700" cy="89.9160" r="0.9000" /> 
</g>
<g >
</g>
<g style="fill:#000000; fill-opacity:1.0000; 
stroke:#000000; stroke-width:0.0000; stroke-opacity:1; 
stroke-linecap:round; stroke-linejoin:round;">
<path style="fill:#000000; fill-opacity:1.0000; 
stroke:#000000; stroke-width:0.0000; stroke-opacity:1; 
stroke-linecap:round; stroke-linejoin:round;fill-rule:evenodd;"
d="M 168.0444,95.6688
168.0090,95.6834
166.5090,95.6834
166.4736,95.6688
166.4590,95.6334
166.4590,95.1334
166.4641,95.1211
166.4641,95.0622
166.4661,95.0482
166.5062,94.9116
166.5121,94.8987
166.5891,94.7789
166.5984,94.7682
166.7059,94.6750
166.7179,94.6673
166.8474,94.6082
166.8610,94.6042
167.0019,94.5839
167.0090,94.5834
167.5090,94.5834
167.5161,94.5839
167.6570,94.6042
167.6706,94.6082
167.8001,94.6673
167.8121,94.6750
167.9196,94.7682
167.9289,94.7789
168.0059,94.8987
168.0118,94.9116
168.0519,95.0482
168.0539,95.0622
168.0539,95.1211
168.0590,95.1334
168.0590,95.6334
Z" /> 
<path style="fill:#000000; fill-opacity:1.0000; 
stroke:#000000; stroke-width:0.0000; stroke-opacity:1; 
stroke-linecap:round; stroke-linejoin:round;fill-rule:evenodd;"
d="M 168.0539,96.4457
168.0539,96.5046
168.0519,96.5186
168.0118,96.6552
168.0059,96.6681
167.9289,96.7879
167.9196,96.7986
167.8121,96.8918
167.8001,96.8995
167.6706,96.9586
167.6570,96.9626
167.5161,96.9829
167.5090,96.9834
167.0090,96.9834
167.0019,96.9829
166.8610,96.9626
166.8474,96.9586
166.7179,96.8995
166.7059,96.8918
166.5984,96.7986
166.5891,96.7879
166.5121,96.6681
166.5062,96.6552
166.4661,96.5186
166.4641,96.5046
166.4641,96.4457
166.4590,96.4334
166.4590,95.9334
166.4736,95.8980
166.5090,95.8834
168.0090,95.8834
168.0444,95.8980
168.0590,95.9334
168.0590,96.4334
Z" /> 
</g>
<g >
</g>
<g style="fill:#000000; fill-opacity:1.0000; 
stroke:#000000; stroke-width:0.0000; stroke-opacity:1; 
stroke-linecap:round; stroke-linejoin:round;">
<path style="fill:#000000; fill-opacity:1.0000; 
stroke:#000000; stroke-width:0.0000; stroke-opacity:1; 
stroke-linecap:round; stroke-linejoin:round;fill-rule:evenodd;"
d="M 164.8950,85.6497
164.9028,85.5825
164.9464,85.4837
165.0227,85.4074
165.1215,85.3638
165.1887,85.3560
165.6762,85.3560
165.7435,85.3638
165.8423,85.4074
165.9186,85.4837
165.9622,85.5825
165.9700,85.6497
165.9700,86.5622
165.9622,86.6295
165.9186,86.7283
165.8423,86.8046
165.7435,86.8482
165.6762,86.8560
165.1887,86.8560
165.1215,86.8482
165.0227,86.8046
164.9464,86.7283
164.9028,86.6295
164.8950,86.5622
Z" /> 
<path style="fill:#000000; fill-opacity:1.0000; 
stroke:#000000; stroke-width:0.0000; stroke-opacity:1; 
stroke-linecap:round; stroke-linejoin:round;fill-rule:evenodd;"
d="M 166.7700,85.6497
166.7778,85.5825
166.8214,85.4837
166.8977,85.4074
166.9965,85.3638
167.0637,85.3560
167.5512,85.3560
167.6185,85.3638
167.7173,85.4074
167.7936,85.4837
167.8372,85.5825
167.8450,85.6497
167.8450,86.5622
167.8372,86.6295
167.7936,86.7283
167.7173,86.8046
167.6185,86.8482
167.5512,86.8560
167.0637,86.8560
166.9965,86.8482
166.8977,86.8046
166.8214,86.7283
166.7778,86.6295
166.7700,86.5622
Z" /> 
</g>
<g >
</g>
<g style="fill:#000000; fill-opacity:1.0000; 
stroke:#000000; stroke-width:0.0000; stroke-opacity:1; 
stroke-linecap:round; stroke-linejoin:round;">
<path style="fill:#000000; fill-opacity:1.0000; 
stroke:#000000; stroke-width:0.0000; stroke-opacity:1; 
stroke-linecap:round; stroke-linejoin:round;fill-rule:evenodd;"
d="M 164.8950,83.3637
164.9028,83.2965
164.9464,83.1977
165.0227,83.1214
165.1215,83.0778
165.1887,83.0700
165.6762,83.0700
165.7435,83.0778
165.8423,83.1214
165.9186,83.1977
165.9622,83.2965
165.9700,83.3637
165.9700,84.2762
165.9622,84.3435
165.9186,84.4423
165.8423,84.5186
165.7435,84.5622
165.6762,84.5700
165.1887,84.5700
165.1215,84.5622
165.0227,84.5186
164.9464,84.4423
164.9028,84.3435
164.8950,84.2762
Z" /> 
<path style="fill:#000000; fill-opacity:1.0000; 
stroke:#000000; stroke-width:0.0000; stroke-opacity:1; 
stroke-linecap:round; stroke-linejoin:round;fill-rule:evenodd;"
d="M 166.7700,83.3637
166.7778,83.2965
166.8214,83.1977
166.8977,83.1214
166.9965,83.0778
167.0637,83.0700
167.5512,83.0700
167.6185,83.0778
167.7173,83.1214
167.7936,83.1977
167.8372,83.2965
167.8450,83.3637
167.8450,84.2762
167.8372,84.3435
167.7936,84.4423
167.7173,84.5186
167.6185,84.5622
167.5512,84.5700
167.0637,84.5700
166.9965,84.5622
166.8977,84.5186
166.8214,84.4423
166.7778,84.3435
166.7700,84.2762
Z" /> 
</g>
<g >
</g>
<g style="fill:#000000; fill-opacity:1.0000; 
stroke:#000000; stroke-width:0.0000; stroke-opacity:1; 
stroke-linecap:round; stroke-linejoin:round;">
<path style="fill:#000000; fill-opacity:1.0000; 
stroke:#000000; stroke-width:0.0000; stroke-opacity:1; 
stroke-linecap:round; stroke-linejoin:round;fill-rule:evenodd;"
d="M 160.4330,76.3342
160.4252,76.4015
160.3816,76.5003
160.3053,76.5766
160.2065,76.6202
160.1393,76.6280
159.6517,76.6280
159.5845,76.6202
159.4857,76.5766
159.4094,76.5003
159.3658,76.4015
159.3580,76.3342
159.3580,75.4218
159.3658,75.3545
159.4094,75.2557
159.4857,75.1794
159.5845,75.1358
159.6517,75.1280
160.1393,75.1280
160.2065,75.1358
160.3053,75.1794
160.3816,75.2557
160.4252,75.3545
160.4330,75.4218
Z" /> 
<path style="fill:#000000; fill-opacity:1.0000; 
stroke:#000000; stroke-width:0.0000; stroke-opacity:1; 
stroke-linecap:round; stroke-linejoin:round;fill-rule:evenodd;"
d="M 158.5580,76.3342
158.5502,76.4015
158.5066,76.5003
158.4303,76.5766
158.3315,76.6202
158.2643,76.6280
157.7767,76.6280
157.7095,76.6202
157.6107,76.5766
157.5344,76.5003
157.4908,76.4015
157.4830,76.3342
157.4830,75.4218
157.4908,75.3545
157.5344,75.2557
157.6107,75.1794
157.7095,75.1358
157.7767,75.1280
158.2643,75.1280
158.3315,75.1358
158.4303,75.1794
158.5066,75.2557
158.5502,75.3545
158.5580,75.4218
Z" /> 
</g>
<g >
</g>
<g style="fill:#000000; fill-opacity:1.0000; 
stroke:#000000; stroke-width:0.0000; stroke-opacity:1; 
stroke-linecap:round; stroke-linejoin:round;">
<path style="fill:#000000; fill-opacity:1.0000; 
stroke:#000000; stroke-width:0.0000; stroke-opacity:1; 
stroke-linecap:round; stroke-linejoin:round;fill-rule:evenodd;"
d="M 158.5477,97.2330
158.4805,97.2252
158.3817,97.1816
158.3054,97.1053
158.2618,97.0065
158.2540,96.9393
158.2540,96.4517
158.2618,96.3845
158.3054,96.2857
158.3817,96.2094
158.4805,96.1658
158.5477,96.1580
159.4603,96.1580
159.5275,96.1658
159.6263,96.2094
159.7026,96.2857
159.7462,96.3845
159.7540,96.4517
159.7540,96.9393
159.7462,97.0065
159.7026,97.1053
159.6263,97.1816
159.5275,97.2252
159.4603,97.2330
Z" /> 
<path style="fill:#000000; fill-opacity:1.0000; 
stroke:#000000; stroke-width:0.0000; stroke-opacity:1; 
stroke-linecap:round; stroke-linejoin:round;fill-rule:evenodd;"
d="M 158.5477,95.3580
158.4805,95.3502
158.3817,95.3066
158.3054,95.2303
158.2618,95.1315
158.2540,95.0643
158.2540,94.5767
158.2618,94.5095
158.3054,94.4107
158.3817,94.3344
158.4805,94.2908
158.5477,94.2830
159.4603,94.2830
159.5275,94.2908
159.6263,94.3344
159.7026,94.4107
159.7462,94.5095
159.7540,94.5767
159.7540,95.0643
159.7462,95.1315
159.7026,95.2303
159.6263,95.3066
159.5275,95.3502
159.4603,95.3580
Z" /> 
</g>
<g >
</g>
<g style="fill:#000000; fill-opacity:1.0000; 
stroke:#000000; stroke-width:0.0000; stroke-opacity:1; 
stroke-linecap:round; stroke-linejoin:round;">
<path style="fill:#000000; fill-opacity:1.0000; 
stroke:#000000; stroke-width:0.0000; stroke-opacity:1; 
stroke-linecap:round; stroke-linejoin:round;fill-rule:evenodd;"
d="M 145.2108,81.3290
145.2781,81.3368
145.3769,81.3804
145.4532,81.4567
145.4968,81.5555
145.5046,81.6227
145.5046,82.1102
145.4968,82.1775
145.4532,82.2763
145.3769,82.3526
145.2781,82.3962
145.2108,82.4040
144.2983,82.4040
144.2311,82.3962
144.1323,82.3526
144.0560,82.2763
144.0124,82.1775
144.0046,82.1102
144.0046,81.6227
144.0124,81.5555
144.0560,81.4567
144.1323,81.3804
144.2311,81.3368
144.2983,81.3290
Z" /> 
<path style="fill:#000000; fill-opacity:1.0000; 
stroke:#000000; stroke-width:0.0000; stroke-opacity:1; 
stroke-linecap:round; stroke-linejoin:round;fill-rule:evenodd;"
d="M 145.2108,83.2040
145.2781,83.2118
145.3769,83.2554
145.4532,83.3317
145.4968,83.4305
145.5046,83.4977
145.5046,83.9852
145.4968,84.0525
145.4532,84.1513
145.3769,84.2276
145.2781,84.2712
145.2108,84.2790
144.2983,84.2790
144.2311,84.2712
144.1323,84.2276
144.0560,84.1513
144.0124,84.0525
144.0046,83.9852
144.0046,83.4977
144.0124,83.4305
144.0560,83.3317
144.1323,83.2554
144.2311,83.2118
144.2983,83.2040
Z" /> 
</g>
<g >
</g>
<g style="fill:#000000; fill-opacity:1.0000; 
stroke:#000000; stroke-width:0.0000; stroke-opacity:1; 
stroke-linecap:round; stroke-linejoin:round;">
<path style="fill:#000000; fill-opacity:1.0000; 
stroke:#000000; stroke-width:0.0000; stroke-opacity:1; 
stroke-linecap:round; stroke-linejoin:round;fill-rule:evenodd;"
d="M 147.7763,68.6998
147.8435,68.7076
147.9423,68.7512
148.0186,68.8275
148.0622,68.9263
148.0700,68.9935
148.0700,69.4810
148.0622,69.5483
148.0186,69.6471
147.9423,69.7234
147.8435,69.7670
147.7763,69.7748
146.8637,69.7748
146.7965,69.7670
146.6977,69.7234
146.6214,69.6471
146.5778,69.5483
146.5700,69.4810
146.5700,68.9935
146.5778,68.9263
146.6214,68.8275
146.6977,68.7512
146.7965,68.7076
146.8637,68.6998
Z" /> 
<path style="fill:#000000; fill-opacity:1.0000; 
stroke:#000000; stroke-width:0.0000; stroke-opacity:1; 
stroke-linecap:round; stroke-linejoin:round;fill-rule:evenodd;"
d="M 147.7763,70.5748
147.8435,70.5826
147.9423,70.6262
148.0186,70.7025
148.0622,70.8013
148.0700,70.8685
148.0700,71.3560
148.0622,71.4233
148.0186,71.5221
147.9423,71.5984
147.8435,71.6420
147.7763,71.6498
146.8637,71.6498
146.7965,71.6420
146.6977,71.5984
146.6214,71.5221
146.5778,71.4233
146.5700,71.3560
146.5700,70.8685
146.5778,70.8013
146.6214,70.7025
146.6977,70.6262
146.7965,70.5826
146.8637,70.5748
Z" /> 
</g>
<g >
</g>
<g style="fill:#000000; fill-opacity:1.0000; 
stroke:#000000; stroke-width:0.0000; stroke-opacity:1; 
stroke-linecap:round; stroke-linejoin:round;">
<path style="fill:#000000; fill-opacity:1.0000; 
stroke:#000000; stroke-width:0.0000; stroke-opacity:1; 
stroke-linecap:round; stroke-linejoin:round;fill-rule:evenodd;"
d="M 145.2362,68.6998
145.3035,68.7076
145.4023,68.7512
145.4786,68.8275
145.5222,68.9263
145.5300,68.9935
145.5300,69.4810
145.5222,69.5483
145.4786,69.6471
145.4023,69.7234
145.3035,69.7670
145.2362,69.7748
144.3237,69.7748
144.2565,69.7670
144.1577,69.7234
144.0814,69.6471
144.0378,69.5483
144.0300,69.4810
144.0300,68.9935
144.0378,68.9263
144.0814,68.8275
144.1577,68.7512
144.2565,68.7076
144.3237,68.6998
Z" /> 
<path style="fill:#000000; fill-opacity:1.0000; 
stroke:#000000; stroke-width:0.0000; stroke-opacity:1; 
stroke-linecap:round; stroke-linejoin:round;fill-rule:evenodd;"
d="M 145.2362,70.5748
145.3035,70.5826
145.4023,70.6262
145.4786,70.7025
145.5222,70.8013
145.5300,70.8685
145.5300,71.3560
145.5222,71.4233
145.4786,71.5221
145.4023,71.5984
145.3035,71.6420
145.2362,71.6498
144.3237,71.6498
144.2565,71.6420
144.1577,71.5984
144.0814,71.5221
144.0378,71.4233
144.0300,71.3560
144.0300,70.8685
144.0378,70.8013
144.0814,70.7025
144.1577,70.6262
144.2565,70.5826
144.3237,70.5748
Z" /> 
</g>
<g >
</g>
<g style="fill:#000000; fill-opacity:1.0000; 
stroke:#000000; stroke-width:0.0000; stroke-opacity:1; 
stroke-linecap:round; stroke-linejoin:round;">
<path style="fill:#000000; fill-opacity:1.0000; 
stroke:#000000; stroke-width:0.0000; stroke-opacity:1; 
stroke-linecap:round; stroke-linejoin:round;fill-rule:evenodd;"
d="M 170.6902,86.0755
170.7931,86.0960
170.8803,86.1542
170.9385,86.2414
170.9590,86.3443
170.9590,86.7818
170.9385,86.8846
170.8803,86.9718
170.7931,87.0300
170.6902,87.0505
170.1778,87.0505
170.0749,87.0300
169.9877,86.9718
169.9295,86.8846
169.9090,86.7818
169.9090,86.3443
169.9295,86.2414
169.9877,86.1542
170.0749,86.0960
170.1778,86.0755
Z" /> 
<path style="fill:#000000; fill-opacity:1.0000; 
stroke:#000000; stroke-width:0.0000; stroke-opacity:1; 
stroke-linecap:round; stroke-linejoin:round;fill-rule:evenodd;"
d="M 170.6902,87.6505
170.7931,87.6710
170.8803,87.7292
170.9385,87.8164
170.9590,87.9192
170.9590,88.3567
170.9385,88.4596
170.8803,88.5468
170.7931,88.6050
170.6902,88.6255
170.1778,88.6255
170.0749,88.6050
169.9877,88.5468
169.9295,88.4596
169.9090,88.3567
169.9090,87.9192
169.9295,87.8164
169.9877,87.7292
170.0749,87.6710
170.1778,87.6505
Z" /> 
</g>
<g >
</g>
<g style="fill:#000000; fill-opacity:1.0000; 
stroke:#000000; stroke-width:0.0000; stroke-opacity:1; 
stroke-linecap:round; stroke-linejoin:round;">
<path style="fill:#000000; fill-opacity:1.0000; 
stroke:#000000; stroke-width:0.0000; stroke-opacity:1; 
stroke-linecap:round; stroke-linejoin:round;fill-rule:evenodd;"
d="M 161.9778,71.2278
161.9740,71.2469
161.9632,71.2632
161.9469,71.2740
161.9278,71.2778
160.0278,71.2778
160.0087,71.2740
159.9924,71.2632
159.9816,71.2469
159.9778,71.2278
159.9778,68.8278
159.9816,68.8087
159.9924,68.7924
160.0087,68.7816
160.0278,68.7778
161.9278,68.7778
161.9469,68.7816
161.9632,68.7924
161.9740,68.8087
161.9778,68.8278
Z" /> 
<path style="fill:#000000; fill-opacity:1.0000; 
stroke:#000000; stroke-width:0.0000; stroke-opacity:1; 
stroke-linecap:round; stroke-linejoin:round;fill-rule:evenodd;"
d="M 157.8778,71.2278
157.8740,71.2469
157.8632,71.2632
157.8469,71.2740
157.8278,71.2778
155.9278,71.2778
155.9087,71.2740
155.8924,71.2632
155.8816,71.2469
155.8778,71.2278
155.8778,68.8278
155.8816,68.8087
155.8924,68.7924
155.9087,68.7816
155.9278,68.7778
157.8278,68.7778
157.8469,68.7816
157.8632,68.7924
157.8740,68.8087
157.8778,68.8278
Z" /> 
</g>
<g >
</g>
<g style="fill:#000000; fill-opacity:1.0000; 
stroke:#000000; stroke-width:0.0000; stroke-opacity:1; 
stroke-linecap:round; stroke-linejoin:round;">
<path style="fill:#000000; fill-opacity:1.0000; 
stroke:#000000; stroke-width:0.0000; stroke-opacity:1; 
stroke-linecap:round; stroke-linejoin:round;fill-rule:evenodd;"
d="M 172.6820,82.3840
172.6629,82.3802
172.6466,82.3694
172.6358,82.3531
172.6320,82.3340
172.6320,80.7340
172.6358,80.7149
172.6466,80.6986
172.6629,80.6878
172.6820,80.6840
174.2820,80.6840
174.3011,80.6878
174.3174,80.6986
174.3282,80.7149
174.3320,80.7340
174.3320,82.3340
174.3282,82.3531
174.3174,82.3694
174.3011,82.3802
174.2820,82.3840
Z" /> 
<circle cx="173.4820" cy="84.0340" r="0.8500" /> 
</g>
<g style="fill:#000000; fill-opacity:1.0000; 
stroke:#000000; stroke-width:0.0212; stroke-opacity:1; 
stroke-linecap:round; stroke-linejoin:round;">
</g>
<g style="fill:#000000; fill-opacity:1.0000; 
stroke:#000000; stroke-width:0.0000; stroke-opacity:1; 
stroke-linecap:round; stroke-linejoin:round;">
<circle cx="175.4820" cy="84.0340" r="0.8500" /> 
</g>
<g style="fill:#000000; fill-opacity:1.0000; 
stroke:#000000; stroke-width:0.0212; stroke-opacity:1; 
stroke-linecap:round; stroke-linejoin:round;">
</g>
<g style="fill:#000000; fill-opacity:1.0000; 
stroke:#000000; stroke-width:0.0000; stroke-opacity:1; 
stroke-linecap:round; stroke-linejoin:round;">
<circle cx="175.4820" cy="81.5340" r="0.8500" /> 
</g>
<g style="fill:#000000; fill-opacity:1.0000; 
stroke:#000000; stroke-width:0.0212; stroke-opacity:1; 
stroke-linecap:round; stroke-linejoin:round;">
</g>
<g style="fill:#000000; fill-opacity:1.0000; 
stroke:#000000; stroke-width:0.0000; stroke-opacity:1; 
stroke-linecap:round; stroke-linejoin:round;">
<circle cx="178.3420" cy="76.7840" r="2.0500" /> 
</g>
<g style="fill:#000000; fill-opacity:1.0000; 
stroke:#000000; stroke-width:0.0212; stroke-opacity:1; 
stroke-linecap:round; stroke-linejoin:round;">
</g>
<g style="fill:#000000; fill-opacity:1.0000; 
stroke:#000000; stroke-width:0.0000; stroke-opacity:1; 
stroke-linecap:round; stroke-linejoin:round;">
<circle cx="178.3420" cy="88.7840" r="2.0500" /> 
</g>
<g style="fill:#000000; fill-opacity:1.0000; 
stroke:#000000; stroke-width:0.0212; stroke-opacity:1; 
stroke-linecap:round; stroke-linejoin:round;">
</g>
<g >
</g>
<g style="fill:#000000; fill-opacity:1.0000; 
stroke:#000000; stroke-width:0.0212; stroke-opacity:1; 
stroke-linecap:round; stroke-linejoin:round;">
</g>
<g style="fill:#000000; fill-opacity:1.0000; 
stroke:#000000; stroke-width:0.0000; stroke-opacity:1; 
stroke-linecap:round; stroke-linejoin:round;">
<path style="fill:#000000; fill-opacity:1.0000; 
stroke:#000000; stroke-width:0.0000; stroke-opacity:1; 
stroke-linecap:round; stroke-linejoin:round;fill-rule:evenodd;"
d="M 157.5070,80.7520
157.5261,80.7558
157.5424,80.7666
157.5532,80.7829
157.5570,80.8020
157.5570,82.4020
157.5532,82.4211
157.5424,82.4374
157.5261,82.4482
157.5070,82.4520
156.9570,82.4520
156.9379,82.4482
156.9216,82.4374
156.9108,82.4211
156.9070,82.4020
156.9070,80.8020
156.9108,80.7829
156.9216,80.7666
156.9379,80.7558
156.9570,80.7520
Z" /> 
<path style="fill:#000000; fill-opacity:1.0000; 
stroke:#000000; stroke-width:0.0000; stroke-opacity:1; 
stroke-linecap:round; stroke-linejoin:round;fill-rule:evenodd;"
d="M 156.7070,80.7520
156.7261,80.7558
156.7424,80.7666
156.7532,80.7829
156.7570,80.8020
156.7570,82.4020
156.7532,82.4211
156.7424,82.4374
156.7261,82.4482
156.7070,82.4520
156.1570,82.4520
156.1379,82.4482
156.1216,82.4374
156.1108,82.4211
156.1070,82.4020
156.1070,80.8020
156.1108,80.7829
156.1216,80.7666
156.1379,80.7558
156.1570,80.7520
Z" /> 
<path style="fill:#000000; fill-opacity:1.0000; 
stroke:#000000; stroke-width:0.0000; stroke-opacity:1; 
stroke-linecap:round; stroke-linejoin:round;fill-rule:evenodd;"
d="M 155.9070,80.7520
155.9261,80.7558
155.9424,80.7666
155.9532,80.7829
155.9570,80.8020
155.9570,82.4020
155.9532,82.4211
155.9424,82.4374
155.9261,82.4482
155.9070,82.4520
155.3570,82.4520
155.3379,82.4482
155.3216,82.4374
155.3108,82.4211
155.3070,82.4020
155.3070,80.8020
155.3108,80.7829
155.3216,80.7666
155.3379,80.7558
155.3570,80.7520
Z" /> 
<path style="fill:#000000; fill-opacity:1.0000; 
stroke:#000000; stroke-width:0.0000; stroke-opacity:1; 
stroke-linecap:round; stroke-linejoin:round;fill-rule:evenodd;"
d="M 155.1070,80.7520
155.1261,80.7558
155.1424,80.7666
155.1532,80.7829
155.1570,80.8020
155.1570,82.4020
155.1532,82.4211
155.1424,82.4374
155.1261,82.4482
155.1070,82.4520
154.5570,82.4520
154.5379,82.4482
154.5216,82.4374
154.5108,82.4211
154.5070,82.4020
154.5070,80.8020
154.5108,80.7829
154.5216,80.7666
154.5379,80.7558
154.5570,80.7520
Z" /> 
<path style="fill:#000000; fill-opacity:1.0000; 
stroke:#000000; stroke-width:0.0000; stroke-opacity:1; 
stroke-linecap:round; stroke-linejoin:round;fill-rule:evenodd;"
d="M 154.3070,80.7520
154.3261,80.7558
154.3424,80.7666
154.3532,80.7829
154.3570,80.8020
154.3570,82.4020
154.3532,82.4211
154.3424,82.4374
154.3261,82.4482
154.3070,82.4520
153.7570,82.4520
153.7379,82.4482
153.7216,82.4374
153.7108,82.4211
153.7070,82.4020
153.7070,80.8020
153.7108,80.7829
153.7216,80.7666
153.7379,80.7558
153.7570,80.7520
Z" /> 
<path style="fill:#000000; fill-opacity:1.0000; 
stroke:#000000; stroke-width:0.0000; stroke-opacity:1; 
stroke-linecap:round; stroke-linejoin:round;fill-rule:evenodd;"
d="M 153.5070,80.7520
153.5261,80.7558
153.5424,80.7666
153.5532,80.7829
153.5570,80.8020
153.5570,82.4020
153.5532,82.4211
153.5424,82.4374
153.5261,82.4482
153.5070,82.4520
152.9570,82.4520
152.9379,82.4482
152.9216,82.4374
152.9108,82.4211
152.9070,82.4020
152.9070,80.8020
152.9108,80.7829
152.9216,80.7666
152.9379,80.7558
152.9570,80.7520
Z" /> 
<path style="fill:#000000; fill-opacity:1.0000; 
stroke:#000000; stroke-width:0.0000; stroke-opacity:1; 
stroke-linecap:round; stroke-linejoin:round;fill-rule:evenodd;"
d="M 152.7070,80.7520
152.7261,80.7558
152.7424,80.7666
152.7532,80.7829
152.7570,80.8020
152.7570,82.4020
152.7532,82.4211
152.7424,82.4374
152.7261,82.4482
152.7070,82.4520
152.1570,82.4520
152.1379,82.4482
152.1216,82.4374
152.1108,82.4211
152.1070,82.4020
152.1070,80.8020
152.1108,80.7829
152.1216,80.7666
152.1379,80.7558
152.1570,80.7520
Z" /> 
<path style="fill:#000000; fill-opacity:1.0000; 
stroke:#000000; stroke-width:0.0000; stroke-opacity:1; 
stroke-linecap:round; stroke-linejoin:round;fill-rule:evenodd;"
d="M 151.9070,80.7520
151.9261,80.7558
151.9424,80.7666
151.9532,80.7829
151.9570,80.8020
151.9570,82.4020
151.9532,82.4211
151.9424,82.4374
151.9261,82.4482
151.9070,82.4520
151.3570,82.4520
151.3379,82.4482
151.3216,82.4374
151.3108,82.4211
151.3070,82.4020
151.3070,80.8020
151.3108,80.7829
151.3216,80.7666
151.3379,80.7558
151.3570,80.7520
Z" /> 
<path style="fill:#000000; fill-opacity:1.0000; 
stroke:#000000; stroke-width:0.0000; stroke-opacity:1; 
stroke-linecap:round; stroke-linejoin:round;fill-rule:evenodd;"
d="M 149.3320,82.7770
149.3358,82.7579
149.3466,82.7416
149.3629,82.7308
149.3820,82.7270
150.9820,82.7270
151.0011,82.7308
151.0174,82.7416
151.0282,82.7579
151.0320,82.7770
151.0320,83.3270
151.0282,83.3461
151.0174,83.3624
151.0011,83.3732
150.9820,83.3770
149.3820,83.3770
149.3629,83.3732
149.3466,83.3624
149.3358,83.3461
149.3320,83.3270
Z" /> 
<path style="fill:#000000; fill-opacity:1.0000; 
stroke:#000000; stroke-width:0.0000; stroke-opacity:1; 
stroke-linecap:round; stroke-linejoin:round;fill-rule:evenodd;"
d="M 149.3320,83.5770
149.3358,83.5579
149.3466,83.5416
149.3629,83.5308
149.3820,83.5270
150.9820,83.5270
151.0011,83.5308
151.0174,83.5416
151.0282,83.5579
151.0320,83.5770
151.0320,84.1270
151.0282,84.1461
151.0174,84.1624
151.0011,84.1732
150.9820,84.1770
149.3820,84.1770
149.3629,84.1732
149.3466,84.1624
149.3358,84.1461
149.3320,84.1270
Z" /> 
<path style="fill:#000000; fill-opacity:1.0000; 
stroke:#000000; stroke-width:0.0000; stroke-opacity:1; 
stroke-linecap:round; stroke-linejoin:round;fill-rule:evenodd;"
d="M 149.3320,84.3770
149.3358,84.3579
149.3466,84.3416
149.3629,84.3308
149.3820,84.3270
150.9820,84.3270
151.0011,84.3308
151.0174,84.3416
151.0282,84.3579
151.0320,84.3770
151.0320,84.9270
151.0282,84.9461
151.0174,84.9624
151.0011,84.9732
150.9820,84.9770
149.3820,84.9770
149.3629,84.9732
149.3466,84.9624
149.3358,84.9461
149.3320,84.9270
Z" /> 
<path style="fill:#000000; fill-opacity:1.0000; 
stroke:#000000; stroke-width:0.0000; stroke-opacity:1; 
stroke-linecap:round; stroke-linejoin:round;fill-rule:evenodd;"
d="M 149.3320,85.1770
149.3358,85.1579
149.3466,85.1416
149.3629,85.1308
149.3820,85.1270
150.9820,85.1270
151.0011,85.1308
151.0174,85.1416
151.0282,85.1579
151.0320,85.1770
151.0320,85.7270
151.0282,85.7461
151.0174,85.7624
151.0011,85.7732
150.9820,85.7770
149.3820,85.7770
149.3629,85.7732
149.3466,85.7624
149.3358,85.7461
149.3320,85.7270
Z" /> 
<path style="fill:#000000; fill-opacity:1.0000; 
stroke:#000000; stroke-width:0.0000; stroke-opacity:1; 
stroke-linecap:round; stroke-linejoin:round;fill-rule:evenodd;"
d="M 149.3320,85.9770
149.3358,85.9579
149.3466,85.9416
149.3629,85.9308
149.3820,85.9270
150.9820,85.9270
151.0011,85.9308
151.0174,85.9416
151.0282,85.9579
151.0320,85.9770
151.0320,86.5270
151.0282,86.5461
151.0174,86.5624
151.0011,86.5732
150.9820,86.5770
149.3820,86.5770
149.3629,86.5732
149.3466,86.5624
149.3358,86.5461
149.3320,86.5270
Z" /> 
<path style="fill:#000000; fill-opacity:1.0000; 
stroke:#000000; stroke-width:0.0000; stroke-opacity:1; 
stroke-linecap:round; stroke-linejoin:round;fill-rule:evenodd;"
d="M 149.3320,86.7770
149.3358,86.7579
149.3466,86.7416
149.3629,86.7308
149.3820,86.7270
150.9820,86.7270
151.0011,86.7308
151.0174,86.7416
151.0282,86.7579
151.0320,86.7770
151.0320,87.3270
151.0282,87.3461
151.0174,87.3624
151.0011,87.3732
150.9820,87.3770
149.3820,87.3770
149.3629,87.3732
149.3466,87.3624
149.3358,87.3461
149.3320,87.3270
Z" /> 
<path style="fill:#000000; fill-opacity:1.0000; 
stroke:#000000; stroke-width:0.0000; stroke-opacity:1; 
stroke-linecap:round; stroke-linejoin:round;fill-rule:evenodd;"
d="M 149.3320,87.5770
149.3358,87.5579
149.3466,87.5416
149.3629,87.5308
149.3820,87.5270
150.9820,87.5270
151.0011,87.5308
151.0174,87.5416
151.0282,87.5579
151.0320,87.5770
151.0320,88.1270
151.0282,88.1461
151.0174,88.1624
151.0011,88.1732
150.9820,88.1770
149.3820,88.1770
149.3629,88.1732
149.3466,88.1624
149.3358,88.1461
149.3320,88.1270
Z" /> 
<path style="fill:#000000; fill-opacity:1.0000; 
stroke:#000000; stroke-width:0.0000; stroke-opacity:1; 
stroke-linecap:round; stroke-linejoin:round;fill-rule:evenodd;"
d="M 149.3320,88.3770
149.3358,88.3579
149.3466,88.3416
149.3629,88.3308
149.3820,88.3270
150.9820,88.3270
151.0011,88.3308
151.0174,88.3416
151.0282,88.3579
151.0320,88.3770
151.0320,88.9270
151.0282,88.9461
151.0174,88.9624
151.0011,88.9732
150.9820,88.9770
149.3820,88.9770
149.3629,88.9732
149.3466,88.9624
149.3358,88.9461
149.3320,88.9270
Z" /> 
<path style="fill:#000000; fill-opacity:1.0000; 
stroke:#000000; stroke-width:0.0000; stroke-opacity:1; 
stroke-linecap:round; stroke-linejoin:round;fill-rule:evenodd;"
d="M 151.9070,89.2520
151.9261,89.2558
151.9424,89.2666
151.9532,89.2829
151.9570,89.3020
151.9570,90.9020
151.9532,90.9211
151.9424,90.9374
151.9261,90.9482
151.9070,90.9520
151.3570,90.9520
151.3379,90.9482
151.3216,90.9374
151.3108,90.9211
151.3070,90.9020
151.3070,89.3020
151.3108,89.2829
151.3216,89.2666
151.3379,89.2558
151.3570,89.2520
Z" /> 
<path style="fill:#000000; fill-opacity:1.0000; 
stroke:#000000; stroke-width:0.0000; stroke-opacity:1; 
stroke-linecap:round; stroke-linejoin:round;fill-rule:evenodd;"
d="M 152.7070,89.2520
152.7261,89.2558
152.7424,89.2666
152.7532,89.2829
152.7570,89.3020
152.7570,90.9020
152.7532,90.9211
152.7424,90.9374
152.7261,90.9482
152.7070,90.9520
152.1570,90.9520
152.1379,90.9482
152.1216,90.9374
152.1108,90.9211
152.1070,90.9020
152.1070,89.3020
152.1108,89.2829
152.1216,89.2666
152.1379,89.2558
152.1570,89.2520
Z" /> 
<path style="fill:#000000; fill-opacity:1.0000; 
stroke:#000000; stroke-width:0.0000; stroke-opacity:1; 
stroke-linecap:round; stroke-linejoin:round;fill-rule:evenodd;"
d="M 153.5070,89.2520
153.5261,89.2558
153.5424,89.2666
153.5532,89.2829
153.5570,89.3020
153.5570,90.9020
153.5532,90.9211
153.5424,90.9374
153.5261,90.9482
153.5070,90.9520
152.9570,90.9520
152.9379,90.9482
152.9216,90.9374
152.9108,90.9211
152.9070,90.9020
152.9070,89.3020
152.9108,89.2829
152.9216,89.2666
152.9379,89.2558
152.9570,89.2520
Z" /> 
<path style="fill:#000000; fill-opacity:1.0000; 
stroke:#000000; stroke-width:0.0000; stroke-opacity:1; 
stroke-linecap:round; stroke-linejoin:round;fill-rule:evenodd;"
d="M 154.3070,89.2520
154.3261,89.2558
154.3424,89.2666
154.3532,89.2829
154.3570,89.3020
154.3570,90.9020
154.3532,90.9211
154.3424,90.9374
154.3261,90.9482
154.3070,90.9520
153.7570,90.9520
153.7379,90.9482
153.7216,90.9374
153.7108,90.9211
153.7070,90.9020
153.7070,89.3020
153.7108,89.2829
153.7216,89.2666
153.7379,89.2558
153.7570,89.2520
Z" /> 
<path style="fill:#000000; fill-opacity:1.0000; 
stroke:#000000; stroke-width:0.0000; stroke-opacity:1; 
stroke-linecap:round; stroke-linejoin:round;fill-rule:evenodd;"
d="M 155.1070,89.2520
155.1261,89.2558
155.1424,89.2666
155.1532,89.2829
155.1570,89.3020
155.1570,90.9020
155.1532,90.9211
155.1424,90.9374
155.1261,90.9482
155.1070,90.9520
154.5570,90.9520
154.5379,90.9482
154.5216,90.9374
154.5108,90.9211
154.5070,90.9020
154.5070,89.3020
154.5108,89.2829
154.5216,89.2666
154.5379,89.2558
154.5570,89.2520
Z" /> 
<path style="fill:#000000; fill-opacity:1.0000; 
stroke:#000000; stroke-width:0.0000; stroke-opacity:1; 
stroke-linecap:round; stroke-linejoin:round;fill-rule:evenodd;"
d="M 155.9070,89.2520
155.9261,89.2558
155.9424,89.2666
155.9532,89.2829
155.9570,89.3020
155.9570,90.9020
155.9532,90.9211
155.9424,90.9374
155.9261,90.9482
155.9070,90.9520
155.3570,90.9520
155.3379,90.9482
155.3216,90.9374
155.3108,90.9211
155.3070,90.9020
155.3070,89.3020
155.3108,89.2829
155.3216,89.2666
155.3379,89.2558
155.3570,89.2520
Z" /> 
<path style="fill:#000000; fill-opacity:1.0000; 
stroke:#000000; stroke-width:0.0000; stroke-opacity:1; 
stroke-linecap:round; stroke-linejoin:round;fill-rule:evenodd;"
d="M 156.7070,89.2520
156.7261,89.2558
156.7424,89.2666
156.7532,89.2829
156.7570,89.3020
156.7570,90.9020
156.7532,90.9211
156.7424,90.9374
156.7261,90.9482
156.7070,90.9520
156.1570,90.9520
156.1379,90.9482
156.1216,90.9374
156.1108,90.9211
156.1070,90.9020
156.1070,89.3020
156.1108,89.2829
156.1216,89.2666
156.1379,89.2558
156.1570,89.2520
Z" /> 
<path style="fill:#000000; fill-opacity:1.0000; 
stroke:#000000; stroke-width:0.0000; stroke-opacity:1; 
stroke-linecap:round; stroke-linejoin:round;fill-rule:evenodd;"
d="M 157.5070,89.2520
157.5261,89.2558
157.5424,89.2666
157.5532,89.2829
157.5570,89.3020
157.5570,90.9020
157.5532,90.9211
157.5424,90.9374
157.5261,90.9482
157.5070,90.9520
156.9570,90.9520
156.9379,90.9482
156.9216,90.9374
156.9108,90.9211
156.9070,90.9020
156.9070,89.3020
156.9108,89.2829
156.9216,89.2666
156.9379,89.2558
156.9570,89.2520
Z" /> 
<path style="fill:#000000; fill-opacity:1.0000; 
stroke:#000000; stroke-width:0.0000; stroke-opacity:1; 
stroke-linecap:round; stroke-linejoin:round;fill-rule:evenodd;"
d="M 157.8320,88.3770
157.8358,88.3579
157.8466,88.3416
157.8629,88.3308
157.8820,88.3270
159.4820,88.3270
159.5011,88.3308
159.5174,88.3416
159.5282,88.3579
159.5320,88.3770
159.5320,88.9270
159.5282,88.9461
159.5174,88.9624
159.5011,88.9732
159.4820,88.9770
157.8820,88.9770
157.8629,88.9732
157.8466,88.9624
157.8358,88.9461
157.8320,88.9270
Z" /> 
<path style="fill:#000000; fill-opacity:1.0000; 
stroke:#000000; stroke-width:0.0000; stroke-opacity:1; 
stroke-linecap:round; stroke-linejoin:round;fill-rule:evenodd;"
d="M 157.8320,87.5770
157.8358,87.5579
157.8466,87.5416
157.8629,87.5308
157.8820,87.5270
159.4820,87.5270
159.5011,87.5308
159.5174,87.5416
159.5282,87.5579
159.5320,87.5770
159.5320,88.1270
159.5282,88.1461
159.5174,88.1624
159.5011,88.1732
159.4820,88.1770
157.8820,88.1770
157.8629,88.1732
157.8466,88.1624
157.8358,88.1461
157.8320,88.1270
Z" /> 
<path style="fill:#000000; fill-opacity:1.0000; 
stroke:#000000; stroke-width:0.0000; stroke-opacity:1; 
stroke-linecap:round; stroke-linejoin:round;fill-rule:evenodd;"
d="M 157.8320,86.7770
157.8358,86.7579
157.8466,86.7416
157.8629,86.7308
157.8820,86.7270
159.4820,86.7270
159.5011,86.7308
159.5174,86.7416
159.5282,86.7579
159.5320,86.7770
159.5320,87.3270
159.5282,87.3461
159.5174,87.3624
159.5011,87.3732
159.4820,87.3770
157.8820,87.3770
157.8629,87.3732
157.8466,87.3624
157.8358,87.3461
157.8320,87.3270
Z" /> 
<path style="fill:#000000; fill-opacity:1.0000; 
stroke:#000000; stroke-width:0.0000; stroke-opacity:1; 
stroke-linecap:round; stroke-linejoin:round;fill-rule:evenodd;"
d="M 157.8320,85.9770
157.8358,85.9579
157.8466,85.9416
157.8629,85.9308
157.8820,85.9270
159.4820,85.9270
159.5011,85.9308
159.5174,85.9416
159.5282,85.9579
159.5320,85.9770
159.5320,86.5270
159.5282,86.5461
159.5174,86.5624
159.5011,86.5732
159.4820,86.5770
157.8820,86.5770
157.8629,86.5732
157.8466,86.5624
157.8358,86.5461
157.8320,86.5270
Z" /> 
<path style="fill:#000000; fill-opacity:1.0000; 
stroke:#000000; stroke-width:0.0000; stroke-opacity:1; 
stroke-linecap:round; stroke-linejoin:round;fill-rule:evenodd;"
d="M 157.8320,85.1770
157.8358,85.1579
157.8466,85.1416
157.8629,85.1308
157.8820,85.1270
159.4820,85.1270
159.5011,85.1308
159.5174,85.1416
159.5282,85.1579
159.5320,85.1770
159.5320,85.7270
159.5282,85.7461
159.5174,85.7624
159.5011,85.7732
159.4820,85.7770
157.8820,85.7770
157.8629,85.7732
157.8466,85.7624
157.8358,85.7461
157.8320,85.7270
Z" /> 
<path style="fill:#000000; fill-opacity:1.0000; 
stroke:#000000; stroke-width:0.0000; stroke-opacity:1; 
stroke-linecap:round; stroke-linejoin:round;fill-rule:evenodd;"
d="M 157.8320,84.3770
157.8358,84.3579
157.8466,84.3416
157.8629,84.3308
157.8820,84.3270
159.4820,84.3270
159.5011,84.3308
159.5174,84.3416
159.5282,84.3579
159.5320,84.3770
159.5320,84.9270
159.5282,84.9461
159.5174,84.9624
159.5011,84.9732
159.4820,84.9770
157.8820,84.9770
157.8629,84.9732
157.8466,84.9624
157.8358,84.9461
157.8320,84.9270
Z" /> 
<path style="fill:#000000; fill-opacity:1.0000; 
stroke:#000000; stroke-width:0.0000; stroke-opacity:1; 
stroke-linecap:round; stroke-linejoin:round;fill-rule:evenodd;"
d="M 157.8320,83.5770
157.8358,83.5579
157.8466,83.5416
157.8629,83.5308
157.8820,83.5270
159.4820,83.5270
159.5011,83.5308
159.5174,83.5416
159.5282,83.5579
159.5320,83.5770
159.5320,84.1270
159.5282,84.1461
159.5174,84.1624
159.5011,84.1732
159.4820,84.1770
157.8820,84.1770
157.8629,84.1732
157.8466,84.1624
157.8358,84.1461
157.8320,84.1270
Z" /> 
<path style="fill:#000000; fill-opacity:1.0000; 
stroke:#000000; stroke-width:0.0000; stroke-opacity:1; 
stroke-linecap:round; stroke-linejoin:round;fill-rule:evenodd;"
d="M 157.8320,82.7770
157.8358,82.7579
157.8466,82.7416
157.8629,82.7308
157.8820,82.7270
159.4820,82.7270
159.5011,82.7308
159.5174,82.7416
159.5282,82.7579
159.5320,82.7770
159.5320,83.3270
159.5282,83.3461
159.5174,83.3624
159.5011,83.3732
159.4820,83.3770
157.8820,83.3770
157.8629,83.3732
157.8466,83.3624
157.8358,83.3461
157.8320,83.3270
Z" /> 
</g>
<g >
</g>
<g style="fill:#000000; fill-opacity:1.0000; 
stroke:#000000; stroke-width:0.0000; stroke-opacity:1; 
stroke-linecap:round; stroke-linejoin:round;">
<path style="fill:#000000; fill-opacity:1.0000; 
stroke:#000000; stroke-width:0.0000; stroke-opacity:1; 
stroke-linecap:round; stroke-linejoin:round;fill-rule:evenodd;"
d="M 170.1778,83.5964
170.0749,83.5759
169.9877,83.5177
169.9295,83.4305
169.9090,83.3276
169.9090,82.8901
169.9295,82.7873
169.9877,82.7001
170.0749,82.6419
170.1778,82.6214
170.6902,82.6214
170.7931,82.6419
170.8803,82.7001
170.9385,82.7873
170.9590,82.8901
170.9590,83.3276
170.9385,83.4305
170.8803,83.5177
170.7931,83.5759
170.6902,83.5964
Z" /> 
<path style="fill:#000000; fill-opacity:1.0000; 
stroke:#000000; stroke-width:0.0000; stroke-opacity:1; 
stroke-linecap:round; stroke-linejoin:round;fill-rule:evenodd;"
d="M 170.1778,82.0214
170.0749,82.0009
169.9877,81.9427
169.9295,81.8555
169.9090,81.7527
169.9090,81.3152
169.9295,81.2123
169.9877,81.1251
170.0749,81.0669
170.1778,81.0464
170.6902,81.0464
170.7931,81.0669
170.8803,81.1251
170.9385,81.2123
170.9590,81.3152
170.9590,81.7527
170.9385,81.8555
170.8803,81.9427
170.7931,82.0009
170.6902,82.0214
Z" /> 
</g>
<g >
</g>
<g style="fill:#000000; fill-opacity:1.0000; 
stroke:#000000; stroke-width:0.0000; stroke-opacity:1; 
stroke-linecap:round; stroke-linejoin:round;">
<path style="fill:#000000; fill-opacity:1.0000; 
stroke:#000000; stroke-width:0.0000; stroke-opacity:1; 
stroke-linecap:round; stroke-linejoin:round;fill-rule:evenodd;"
d="M 161.9260,83.5424
161.8587,83.5346
161.7599,83.4910
161.6836,83.4147
161.6400,83.3159
161.6322,83.2486
161.6322,82.7612
161.6400,82.6939
161.6836,82.5951
161.7599,82.5188
161.8587,82.4752
161.9260,82.4674
162.8384,82.4674
162.9057,82.4752
163.0045,82.5188
163.0808,82.5951
163.1244,82.6939
163.1322,82.7612
163.1322,83.2486
163.1244,83.3159
163.0808,83.4147
163.0045,83.4910
162.9057,83.5346
162.8384,83.5424
Z" /> 
<path style="fill:#000000; fill-opacity:1.0000; 
stroke:#000000; stroke-width:0.0000; stroke-opacity:1; 
stroke-linecap:round; stroke-linejoin:round;fill-rule:evenodd;"
d="M 161.9260,81.6674
161.8587,81.6596
161.7599,81.6160
161.6836,81.5397
161.6400,81.4409
161.6322,81.3736
161.6322,80.8862
161.6400,80.8189
161.6836,80.7201
161.7599,80.6438
161.8587,80.6002
161.9260,80.5924
162.8384,80.5924
162.9057,80.6002
163.0045,80.6438
163.0808,80.7201
163.1244,80.8189
163.1322,80.8862
163.1322,81.3736
163.1244,81.4409
163.0808,81.5397
163.0045,81.6160
162.9057,81.6596
162.8384,81.6674
Z" /> 
</g>
<g >
</g>
<g >
</g>
<g >
</g>
<g >
</g>
<g >
</g>
<g >
</g>
<g >
</g>
<g >
</g>
<g >
</g>
<g >
</g>
<g >
</g>
</g> 
</svg>
