<?xml version="1.0" standalone="no"?>
 <!DOCTYPE svg PUBLIC "-//W3C//DTD SVG 1.1//EN" 
 "http://www.w3.org/Graphics/SVG/1.1/DTD/svg11.dtd"> 
<svg
  xmlns:svg="http://www.w3.org/2000/svg"
  xmlns="http://www.w3.org/2000/svg"
  xmlns:xlink="http://www.w3.org/1999/xlink"
  version="1.1"
  width="297.0022mm" height="210.0072mm" viewBox="0.0000 0.0000 297.0022 210.0072">
<title>SVG Image created as t1-Power_Cu.svg date 2025/03/05 13:57:15 </title>
  <desc>Image generated by PCBNEW </desc>
<g style="fill:#000000; fill-opacity:1.0000;stroke:#000000; stroke-opacity:1.0000;
stroke-linecap:round; stroke-linejoin:round;"
 transform="translate(0 0) scale(1 1)">
<path style="fill:#000000; fill-opacity:1.0000; stroke:none;fill-rule:evenodd;"
d="M 137.1500,78.6500
137.1500,80.3500
135.4500,80.3500
135.4500,78.6500
Z" /> 
</g>
<g style="fill:#000000; fill-opacity:1.0000; stroke:none;">
<circle cx="136.3000" cy="76.9600" r="0.8500" /> 
<circle cx="136.3000" cy="74.4200" r="0.8500" /> 
<circle cx="136.3000" cy="71.8800" r="0.8500" /> 
<circle cx="136.3000" cy="69.3400" r="0.8500" /> 
<path style="fill:#000000; fill-opacity:1.0000; stroke:none;fill-rule:evenodd;"
d="M 151.0420,96.1000
151.0420,94.4000
152.7420,94.4000
152.7420,96.1000
Z" /> 
<circle cx="154.4320" cy="95.2500" r="0.8500" /> 
<circle cx="151.8920" cy="97.7900" r="0.8500" /> 
<circle cx="154.4320" cy="97.7900" r="0.8500" /> 
<path style="fill:#000000; fill-opacity:1.0000; stroke:none;fill-rule:evenodd;"
d="M 141.9724,98.6146
140.2724,98.6146
140.2724,96.9146
141.9724,96.9146
Z" /> 
<circle cx="141.1224" cy="95.2246" r="0.8500" /> 
<circle cx="143.6624" cy="97.7646" r="0.8500" /> 
<circle cx="143.6624" cy="95.2246" r="0.8500" /> 
<circle cx="146.2024" cy="97.7646" r="0.8500" /> 
<circle cx="146.2024" cy="95.2246" r="0.8500" /> 
<path style="fill:#000000; fill-opacity:1.0000; stroke:none;fill-rule:evenodd;"
d="M 140.1200,78.0660
140.1200,76.3660
141.8200,76.3660
141.8200,78.0660
Z" /> 
<circle cx="140.9700" cy="79.7560" r="0.8500" /> 
<circle cx="140.9700" cy="82.2960" r="0.8500" /> 
<circle cx="140.9700" cy="84.8360" r="0.8500" /> 
<circle cx="140.9700" cy="87.3760" r="0.8500" /> 
<circle cx="140.9700" cy="89.9160" r="0.8500" /> 
<path style="fill:#000000; fill-opacity:1.0000; stroke:none;fill-rule:evenodd;"
d="M 174.2820,82.3340
172.6820,82.3340
172.6820,80.7340
174.2820,80.7340
Z" /> 
<circle cx="173.4820" cy="84.0340" r="0.8000" /> 
</g>
<g style="fill:#000000; fill-opacity:1.0000; stroke:none;">
<circle cx="175.4820" cy="84.0340" r="0.8000" /> 
</g>
<g style="fill:#000000; fill-opacity:1.0000; stroke:none;">
<circle cx="175.4820" cy="81.5340" r="0.8000" /> 
</g>
<g style="fill:#000000; fill-opacity:1.0000; stroke:none;">
<circle cx="178.3420" cy="76.7840" r="2.0000" /> 
</g>
<g style="fill:#000000; fill-opacity:1.0000; stroke:none;">
<circle cx="178.3420" cy="88.7840" r="2.0000" /> 
</g>
<g style="fill:#000000; fill-opacity:1.0000; stroke:none;">
<circle cx="154.3558" cy="75.7936" r="0.4000" /> 
</g>
<g style="fill:#000000; fill-opacity:1.0000; stroke:none;">
<circle cx="123.1138" cy="73.3298" r="0.4000" /> 
</g>
<g style="fill:#000000; fill-opacity:1.0000; stroke:none;">
<circle cx="129.1082" cy="77.9526" r="0.4000" /> 
</g>
<g style="fill:#000000; fill-opacity:1.0000; stroke:none;">
<circle cx="167.2590" cy="97.9424" r="0.4000" /> 
</g>
<g style="fill:#000000; fill-opacity:1.0000; stroke:none;">
<circle cx="155.6766" cy="83.0580" r="0.4000" /> 
</g>
<g style="fill:#000000; fill-opacity:1.0000; stroke:none;">
<circle cx="163.8300" cy="76.7588" r="0.4000" /> 
</g>
<g style="fill:#000000; fill-opacity:1.0000; stroke:none;">
<circle cx="125.3490" cy="90.9066" r="0.4000" /> 
</g>
<g style="fill:#000000; fill-opacity:1.0000; stroke:none;">
<circle cx="130.8100" cy="95.3516" r="0.4000" /> 
</g>
<g style="fill:#000000; fill-opacity:1.0000; stroke:none;">
<circle cx="129.0828" cy="73.3806" r="0.4000" /> 
</g>
<g style="fill:#000000; fill-opacity:1.0000; stroke:none;">
<circle cx="144.8308" cy="85.0646" r="0.4000" /> 
</g>
<g style="fill:#000000; fill-opacity:1.0000; stroke:none;">
<circle cx="123.0884" cy="78.1304" r="0.4000" /> 
</g>
<g style="fill:#000000; fill-opacity:1.0000; stroke:none;">
<circle cx="159.8422" cy="98.6028" r="0.4000" /> 
</g>
<g style="fill:#000000; fill-opacity:1.0000; stroke:none;">
<circle cx="154.5336" cy="83.2866" r="0.4000" /> 
</g>
<g style="fill:#000000; fill-opacity:1.0000; stroke:none;">
<circle cx="146.0246" cy="69.2404" r="0.4000" /> 
</g>
<g style="fill:#000000; fill-opacity:1.0000; stroke:none;">
<circle cx="159.1818" cy="81.9658" r="0.4000" /> 
</g>
<g style="fill:#000000; fill-opacity:1.0000; stroke:none;">
<circle cx="130.8354" cy="88.9000" r="0.4000" /> 
</g>
<g style="fill:#000000; fill-opacity:1.0000; stroke:none;">
<circle cx="129.1082" cy="84.3026" r="0.4000" /> 
</g>
<g style="fill:#000000; fill-opacity:1.0000; stroke:none;">
<circle cx="121.5644" cy="89.3318" r="0.4000" /> 
</g>
<g style="fill:#000000; fill-opacity:1.0000; stroke:none;">
<circle cx="123.1392" cy="84.4042" r="0.4000" /> 
</g>
<g style="fill:#000000; fill-opacity:1.0000; stroke:none;">
<circle cx="162.7632" cy="70.0024" r="0.4000" /> 
</g>
<g style="fill:#000000; fill-opacity:1.0000; stroke:none;">
<circle cx="155.0416" cy="70.0786" r="0.4000" /> 
</g>
<g style="fill:#000000; fill-opacity:1.0000; stroke:none;">
<circle cx="160.6804" cy="81.1530" r="0.4000" /> 
</g>
<g style="fill:#000000; fill-opacity:1.0000; stroke:none;">
<circle cx="166.8780" cy="88.7730" r="0.4000" /> 
</g>
<g style="fill:#000000; fill-opacity:1.0000; stroke:none;">
<circle cx="160.5534" cy="86.2330" r="0.4000" /> 
</g>
<g style="fill:#000000; fill-opacity:1.0000; stroke:none;">
<circle cx="167.2336" cy="93.5228" r="0.4000" /> 
</g>
<g style="fill:#000000; fill-opacity:1.0000; stroke:none;">
<circle cx="165.0492" cy="90.4494" r="0.4000" /> 
</g>
<g style="fill:#000000; fill-opacity:1.0000; stroke:none;">
<circle cx="165.7350" cy="80.1624" r="0.4000" /> 
</g>
<g style="fill:#000000; fill-opacity:1.0000; stroke:none;">
<circle cx="170.4594" cy="80.4164" r="0.4000" /> 
</g>
<g style="fill:#000000; fill-opacity:1.0000; stroke:none;">
<circle cx="172.3898" cy="88.1380" r="0.4000" /> 
</g>
<g style="fill:#000000; fill-opacity:1.0000; stroke:none;">
<circle cx="170.5610" cy="90.6780" r="0.4000" /> 
</g>
<g style="fill:#000000; fill-opacity:1.0000; stroke:none;">
<circle cx="156.8958" cy="87.5538" r="0.4000" /> 
</g>
<g style="fill:#000000; fill-opacity:1.0000; stroke:none;">
<circle cx="156.1592" cy="88.3920" r="0.4000" /> 
</g>
<g style="fill:#000000; fill-opacity:1.0000; stroke:none;">
<circle cx="156.2862" cy="91.6940" r="0.4000" /> 
</g>
<g style="fill:#000000; fill-opacity:1.0000; stroke:none;">
<circle cx="155.0670" cy="88.5952" r="0.4000" /> 
</g>
<g style="fill:#000000; fill-opacity:1.0000; stroke:none;">
<circle cx="150.1394" cy="81.8896" r="0.4000" /> 
</g>
<g style="fill:#000000; fill-opacity:1.0000; stroke:none;">
<circle cx="152.0698" cy="87.2236" r="0.4000" /> 
</g>
<g style="fill:#000000; fill-opacity:1.0000; stroke:none;">
<circle cx="152.6794" cy="88.3158" r="0.4000" /> 
</g>
<g style="fill:#000000; fill-opacity:1.0000; stroke:none;">
<circle cx="151.6891" cy="85.8520" r="0.4000" /> 
</g>
<g style="fill:#000000; fill-opacity:1.0000; stroke:none;">
<circle cx="148.5951" cy="85.3897" r="0.4000" /> 
</g>
<g style="fill:#000000; fill-opacity:1.0000; stroke:none;">
<circle cx="155.9560" cy="85.7758" r="0.4000" /> 
<path style="fill:#000000; fill-opacity:1.0000; stroke:none;fill-rule:evenodd;"
d="M 181.9166,65.7455
181.9631,65.7992
181.9745,65.8515
181.9745,101.1485
181.9545,101.2166
181.9008,101.2631
181.8485,101.2745
119.1515,101.2745
119.0834,101.2545
119.0369,101.2008
119.0255,101.1485
119.0255,96.8740
121.3995,96.8740
121.3995,97.1260
121.4371,97.3633
121.4389,97.3748
121.5168,97.6144
121.5168,97.6144
121.6311,97.8388
121.6311,97.8388
121.6549,97.8715
121.7792,98.0427
121.7792,98.0427
121.7792,98.0427
121.9573,98.2208
121.9573,98.2208
121.9573,98.2208
122.1612,98.3689
122.3856,98.4832
122.6252,98.5611
122.8740,98.6005
122.8740,98.6005
123.1260,98.6005
123.1260,98.6005
123.3748,98.5611
123.6144,98.4832
123.8388,98.3689
124.0427,98.2208
124.2208,98.0427
124.3689,97.8388
124.4832,97.6144
124.5611,97.3748
124.6005,97.1260
124.6005,96.8740
124.5992,96.8659
139.7639,96.8659
139.7639,98.6632
139.7704,98.7238
139.7704,98.7238
139.8215,98.8608
139.8215,98.8608
139.9091,98.9779
140.0262,99.0655
140.0262,99.0655
140.0262,99.0655
140.0853,99.0875
140.1632,99.1166
140.1632,99.1166
140.2237,99.1231
140.2238,99.1231
140.2238,99.1231
140.2238,99.1231
142.0210,99.1231
142.0210,99.1231
142.0210,99.1231
142.0210,99.1231
142.0816,99.1166
142.0816,99.1166
142.0816,99.1166
142.2186,99.0655
142.2746,99.0236
142.3357,98.9779
142.4233,98.8608
142.4233,98.8608
142.4233,98.8608
142.4673,98.7429
142.5098,98.6861
142.5763,98.6612
142.6457,98.6763
142.6744,98.6978
142.7774,98.8008
142.7774,98.8008
142.7774,98.8008
142.9504,98.9265
143.1409,99.0236
143.3443,99.0896
143.3443,99.0896
143.3443,99.0896
143.5555,99.1231
143.5555,99.1231
143.7693,99.1231
143.7693,99.1231
143.9805,99.0896
144.1839,99.0236
144.3744,98.9265
144.5474,98.8008
144.6986,98.6496
144.8243,98.4766
144.8243,98.4766
144.8250,98.4755
144.8253,98.4752
144.8272,98.4726
144.8277,98.4730
144.8776,98.4279
144.9476,98.4163
145.0128,98.4444
145.0374,98.4727
145.0376,98.4726
145.0391,98.4746
145.0398,98.4755
145.0405,98.4766
145.0405,98.4766
145.1662,98.6496
145.1662,98.6496
145.1662,98.6496
145.3174,98.8008
145.3174,98.8008
145.3174,98.8008
145.4904,98.9265
145.6809,99.0236
145.8843,99.0896
145.8843,99.0896
145.8843,99.0896
146.0955,99.1231
146.0955,99.1231
146.3093,99.1231
146.3093,99.1231
146.5205,99.0896
146.7239,99.0236
146.9144,98.9265
147.0874,98.8008
147.2386,98.6496
147.3643,98.4766
147.4614,98.2861
147.5274,98.0827
147.5609,97.8715
147.5609,97.6577
147.5274,97.4465
147.4614,97.2431
147.3643,97.0526
147.2386,96.8796
147.2386,96.8796
147.2386,96.8796
147.0874,96.7284
147.0874,96.7284
147.0874,96.7284
146.9144,96.6027
146.9144,96.6027
146.9133,96.6020
146.9130,96.6017
146.9104,96.5998
146.9108,96.5993
146.8657,96.5494
146.8541,96.4794
146.8822,96.4142
146.9105,96.3896
146.9104,96.3894
146.9124,96.3879
146.9133,96.3872
146.9144,96.3865
146.9144,96.3865
147.0874,96.2608
147.2386,96.1096
147.3643,95.9366
147.4614,95.7461
147.5274,95.5427
147.5609,95.3315
147.5609,95.1177
147.5274,94.9065
147.4614,94.7031
147.3643,94.5126
147.2471,94.3513
150.5335,94.3513
150.5335,96.1486
150.5400,96.2092
150.5400,96.2092
150.5911,96.3462
150.5911,96.3462
150.6787,96.4633
150.7958,96.5509
150.7958,96.5509
150.7958,96.5509
150.9137,96.5949
150.9705,96.6374
150.9954,96.7039
150.9803,96.7733
150.9588,96.8020
150.8558,96.9050
150.7301,97.0780
150.6330,97.2685
150.6330,97.2685
150.5670,97.4719
150.5670,97.4719
150.5670,97.4719
150.5335,97.6831
150.5335,97.8969
150.5566,98.0427
150.5670,98.1081
150.6248,98.2861
150.6330,98.3115
150.7301,98.5020
150.8558,98.6750
150.8558,98.6750
150.8558,98.6750
151.0070,98.8262
151.0070,98.8262
151.0070,98.8262
151.1800,98.9519
151.3705,99.0490
151.5739,99.1150
151.5739,99.1150
151.5739,99.1150
151.7851,99.1485
151.7851,99.1485
151.9989,99.1485
151.9989,99.1485
152.2101,99.1150
152.4135,99.0490
152.6040,98.9519
152.7770,98.8262
152.9282,98.6750
153.0539,98.5020
153.0539,98.5020
153.0546,98.5009
153.0549,98.5006
153.0568,98.4980
153.0573,98.4984
153.1072,98.4533
153.1772,98.4417
153.2424,98.4698
153.2670,98.4981
153.2672,98.4980
153.2687,98.5000
153.2694,98.5009
153.2701,98.5020
153.2701,98.5020
153.3958,98.6750
153.3958,98.6750
153.3958,98.6750
153.5470,98.8262
153.5470,98.8262
153.5470,98.8262
153.7200,98.9519
153.9105,99.0490
154.1139,99.1150
154.1139,99.1150
154.1139,99.1150
154.3251,99.1485
154.3251,99.1485
154.5389,99.1485
154.5389,99.1485
154.7501,99.1150
154.9535,99.0490
155.1440,98.9519
155.3170,98.8262
155.4682,98.6750
155.5939,98.5020
155.6910,98.3115
155.7570,98.1081
155.7905,97.8969
155.7905,97.8529
166.3505,97.8529
166.3505,98.0319
166.3854,98.2074
166.4039,98.2521
166.4539,98.3727
166.5533,98.5215
166.6799,98.6481
166.8287,98.7475
166.9940,98.8160
167.1695,98.8509
167.1695,98.8509
167.3485,98.8509
167.3485,98.8509
167.5240,98.8160
167.6893,98.7475
167.8381,98.6481
167.9647,98.5215
168.0641,98.3727
168.1326,98.2074
168.1675,98.0319
168.1675,97.8529
168.1326,97.6774
168.0641,97.5121
167.9647,97.3633
167.8381,97.2367
167.6893,97.1373
167.5724,97.0889
167.5240,97.0688
167.5240,97.0688
167.5240,97.0688
167.4356,97.0512
167.3485,97.0339
167.3485,97.0339
167.1695,97.0339
167.1695,97.0339
167.0388,97.0599
166.9940,97.0688
166.9940,97.0688
166.9940,97.0688
166.8287,97.1373
166.6799,97.2367
166.6799,97.2367
166.5533,97.3633
166.5533,97.3633
166.4539,97.5121
166.3854,97.6774
166.3854,97.6774
166.3854,97.6774
166.3843,97.6831
166.3505,97.8529
155.7905,97.8529
155.7905,97.6831
155.7570,97.4719
155.6910,97.2685
155.5939,97.0780
155.4682,96.9050
155.4682,96.9050
155.4682,96.9050
155.4372,96.8740
175.3995,96.8740
175.3995,97.1260
175.4371,97.3633
175.4389,97.3748
175.5168,97.6144
175.5168,97.6144
175.6311,97.8388
175.6311,97.8388
175.6549,97.8715
175.7792,98.0427
175.7792,98.0427
175.7792,98.0427
175.9573,98.2208
175.9573,98.2208
175.9573,98.2208
176.1612,98.3689
176.3856,98.4832
176.6252,98.5611
176.8740,98.6005
176.8740,98.6005
177.1260,98.6005
177.1260,98.6005
177.3748,98.5611
177.6144,98.4832
177.8388,98.3689
178.0427,98.2208
178.2208,98.0427
178.3689,97.8388
178.4832,97.6144
178.5611,97.3748
178.6005,97.1260
178.6005,96.8740
178.5611,96.6252
178.4832,96.3856
178.3689,96.1612
178.2208,95.9573
178.2208,95.9573
178.2208,95.9573
178.0427,95.7792
178.0427,95.7792
178.0427,95.7792
177.8388,95.6311
177.6144,95.5168
177.6144,95.5168
177.6144,95.5168
177.3748,95.4389
177.3748,95.4389
177.3748,95.4389
177.1260,95.3995
176.8740,95.3995
176.6252,95.4389
176.6252,95.4389
176.3856,95.5168
176.3856,95.5168
176.1612,95.6311
175.9573,95.7792
175.9573,95.7792
175.7792,95.9573
175.7792,95.9573
175.6311,96.1612
175.5168,96.3856
175.5168,96.3856
175.4389,96.6252
175.4389,96.6252
175.4389,96.6252
175.3995,96.8740
155.4372,96.8740
155.3170,96.7538
155.3170,96.7538
155.3170,96.7538
155.1868,96.6592
155.1440,96.6281
155.1429,96.6274
155.1426,96.6271
155.1400,96.6252
155.1404,96.6247
155.0953,96.5748
155.0837,96.5048
155.1118,96.4396
155.1401,96.4150
155.1400,96.4148
155.1420,96.4133
155.1429,96.4126
155.1440,96.4119
155.1440,96.4119
155.3170,96.2862
155.4682,96.1350
155.5939,95.9620
155.6910,95.7715
155.7570,95.5681
155.7905,95.3569
155.7905,95.1431
155.7570,94.9319
155.6910,94.7285
155.5939,94.5380
155.4682,94.3650
155.4682,94.3650
155.4682,94.3650
155.3170,94.2138
155.3170,94.2138
155.3170,94.2138
155.1440,94.0881
154.9535,93.9910
154.9535,93.9910
154.9535,93.9910
154.7501,93.9250
154.7501,93.9250
154.7108,93.9187
154.5389,93.8915
154.3251,93.8915
154.1139,93.9250
154.1139,93.9250
153.9105,93.9910
153.9105,93.9910
153.7200,94.0881
153.5470,94.2138
153.4440,94.3168
153.3817,94.3508
153.3109,94.3457
153.2541,94.3032
153.2369,94.2717
153.1929,94.1538
153.1929,94.1538
153.1929,94.1538
153.1053,94.0367
152.9882,93.9491
152.9882,93.9491
152.8512,93.8980
152.8512,93.8980
152.7906,93.8915
152.7906,93.8915
150.9934,93.8915
150.9933,93.8915
150.9328,93.8980
150.9328,93.8980
150.7958,93.9491
150.7958,93.9491
150.6787,94.0367
150.5911,94.1538
150.5911,94.1538
150.5400,94.2908
150.5400,94.2908
150.5335,94.3513
147.2471,94.3513
147.2386,94.3396
147.2386,94.3396
147.2386,94.3396
147.0874,94.1884
147.0874,94.1884
147.0874,94.1884
146.9144,94.0627
146.7239,93.9656
146.7239,93.9656
146.7239,93.9656
146.5205,93.8996
146.5205,93.8996
146.4596,93.8899
146.3093,93.8661
146.0955,93.8661
145.8843,93.8996
145.8843,93.8996
145.6809,93.9656
145.6809,93.9656
145.4904,94.0627
145.3174,94.1884
145.3174,94.1884
145.1662,94.3396
145.1662,94.3396
145.0405,94.5126
145.0398,94.5137
145.0395,94.5140
145.0376,94.5166
145.0371,94.5162
144.9872,94.5613
144.9171,94.5729
144.8519,94.5448
144.8274,94.5165
144.8272,94.5166
144.8257,94.5146
144.8250,94.5137
144.8243,94.5126
144.8243,94.5126
144.6986,94.3396
144.6986,94.3396
144.6986,94.3396
144.5474,94.1884
144.5474,94.1884
144.5474,94.1884
144.3744,94.0627
144.1839,93.9656
144.1839,93.9656
144.1839,93.9656
143.9805,93.8996
143.9805,93.8996
143.9196,93.8899
143.7693,93.8661
143.5555,93.8661
143.3443,93.8996
143.3443,93.8996
143.1409,93.9656
143.1409,93.9656
142.9504,94.0627
142.7774,94.1884
142.7774,94.1884
142.6262,94.3396
142.6262,94.3396
142.5005,94.5126
142.4995,94.5142
142.4990,94.5147
142.4976,94.5166
142.4972,94.5163
142.4469,94.5618
142.3768,94.5734
142.3116,94.5453
142.2869,94.5168
142.2868,94.5169
142.2856,94.5152
142.2847,94.5142
142.2839,94.5128
142.1582,94.3399
142.0071,94.1888
141.8341,94.0631
141.6437,93.9661
141.6437,93.9661
141.4404,93.9000
141.3764,93.8899
141.3764,94.7939
141.3154,94.7587
141.1882,94.7246
141.0566,94.7246
140.9294,94.7587
140.8684,94.7939
140.8684,93.8899
140.8044,93.9000
140.6011,93.9661
140.6011,93.9661
140.4106,94.0631
140.2377,94.1888
140.0866,94.3399
139.9609,94.5128
139.8639,94.7033
139.8639,94.7033
139.7978,94.9066
139.7877,94.9706
140.6917,94.9706
140.6565,95.0316
140.6224,95.1588
140.6224,95.2904
140.6565,95.4176
140.6917,95.4786
139.7877,95.4786
139.7978,95.5426
139.8639,95.7459
139.8639,95.7459
139.9609,95.9363
140.0866,96.1093
140.1897,96.2124
140.2237,96.2747
140.2186,96.3455
140.1761,96.4024
140.1446,96.4195
140.0262,96.4637
140.0262,96.4637
139.9091,96.5513
139.8215,96.6684
139.8215,96.6684
139.7704,96.8054
139.7704,96.8054
139.7639,96.8659
124.5992,96.8659
124.5611,96.6252
124.4832,96.3856
124.3689,96.1612
124.2208,95.9573
124.2208,95.9573
124.2208,95.9573
124.0427,95.7792
124.0427,95.7792
124.0427,95.7792
123.8388,95.6311
123.6144,95.5168
123.6144,95.5168
123.6144,95.5168
123.3748,95.4389
123.3748,95.4389
123.3748,95.4389
123.1260,95.3995
122.8740,95.3995
122.6252,95.4389
122.6252,95.4389
122.3856,95.5168
122.3856,95.5168
122.1612,95.6311
121.9573,95.7792
121.9573,95.7792
121.7792,95.9573
121.7792,95.9573
121.6311,96.1612
121.5168,96.3856
121.5168,96.3856
121.4389,96.6252
121.4389,96.6252
121.4389,96.6252
121.3995,96.8740
119.0255,96.8740
119.0255,95.2621
129.9015,95.2621
129.9015,95.4411
129.9364,95.6166
129.9424,95.6311
130.0049,95.7819
130.1043,95.9307
130.2309,96.0573
130.3797,96.1567
130.5450,96.2252
130.7205,96.2601
130.7205,96.2601
130.8995,96.2601
130.8995,96.2601
131.0750,96.2252
131.2403,96.1567
131.3891,96.0573
131.5157,95.9307
131.6151,95.7819
131.6836,95.6166
131.7185,95.4411
131.7185,95.2621
131.6836,95.0866
131.6151,94.9213
131.5157,94.7725
131.3891,94.6459
131.2403,94.5465
131.1234,94.4981
131.0750,94.4780
131.0750,94.4780
131.0750,94.4780
130.9866,94.4604
130.8995,94.4431
130.8995,94.4431
130.7205,94.4431
130.7205,94.4431
130.5898,94.4691
130.5450,94.4780
130.5450,94.4780
130.5450,94.4780
130.4139,94.5323
130.3826,94.5453
130.3797,94.5465
130.2309,94.6459
130.2309,94.6459
130.1043,94.7725
130.1043,94.7725
130.0148,94.9065
130.0049,94.9213
130.0005,94.9319
129.9364,95.0866
129.9364,95.0866
129.9364,95.0866
129.9275,95.1314
129.9015,95.2621
119.0255,95.2621
119.0255,93.4333
166.3251,93.4333
166.3251,93.4333
166.3251,93.6123
166.3600,93.7878
166.4285,93.9531
166.5279,94.1019
166.6545,94.2285
166.8033,94.3279
166.9686,94.3964
167.1441,94.4313
167.1441,94.4313
167.3231,94.4313
167.3231,94.4313
167.4986,94.3964
167.6639,94.3279
167.8127,94.2285
167.9393,94.1019
168.0387,93.9531
168.1072,93.7878
168.1421,93.6123
168.1421,93.4333
168.1072,93.2578
168.0387,93.0925
167.9393,92.9437
167.8127,92.8171
167.6639,92.7177
167.5470,92.6693
167.4986,92.6492
167.4986,92.6492
167.4986,92.6492
167.4102,92.6316
167.3231,92.6143
167.3231,92.6143
167.1441,92.6143
167.1441,92.6143
167.0134,92.6403
166.9686,92.6492
166.9686,92.6492
166.9686,92.6492
166.8033,92.7177
166.6545,92.8171
166.6545,92.8171
166.5279,92.9437
166.5279,92.9437
166.4285,93.0925
166.3600,93.2578
166.3251,93.4333
119.0255,93.4333
119.0255,90.8171
124.4405,90.8171
124.4405,90.8171
124.4405,90.9961
124.4754,91.1716
124.5439,91.3369
124.6433,91.4857
124.7699,91.6123
124.9187,91.7117
125.0840,91.7802
125.2595,91.8151
125.2595,91.8151
125.4385,91.8151
125.4385,91.8151
125.6140,91.7802
125.7793,91.7117
125.9281,91.6123
125.9359,91.6045
155.3777,91.6045
155.3777,91.7835
155.3840,91.8151
155.4126,91.9590
155.4811,92.1243
155.5805,92.2731
155.7071,92.3997
155.8559,92.4991
156.0212,92.5676
156.1967,92.6025
156.1967,92.6025
156.3757,92.6025
156.3757,92.6025
156.5512,92.5676
156.7165,92.4991
156.8653,92.3997
156.9919,92.2731
157.0913,92.1243
157.1598,91.9590
157.1947,91.7835
157.1947,91.6045
157.1598,91.4290
157.0913,91.2637
156.9919,91.1149
156.8653,90.9883
156.7165,90.8889
156.5996,90.8405
156.5512,90.8204
156.5512,90.8204
156.5512,90.8204
156.4536,90.8010
156.3757,90.7855
156.3757,90.7855
156.1967,90.7855
156.1967,90.7855
156.0660,90.8115
156.0212,90.8204
156.0212,90.8204
156.0212,90.8204
155.8901,90.8747
155.8780,90.8797
155.8559,90.8889
155.7071,90.9883
155.7071,90.9883
155.5805,91.1149
155.5805,91.1149
155.4811,91.2637
155.4126,91.4290
155.3777,91.6045
125.9359,91.6045
126.0547,91.4857
126.1541,91.3369
126.2226,91.1716
126.2575,90.9961
126.2575,90.8171
126.2226,90.6416
126.1541,90.4763
126.0547,90.3275
125.9281,90.2009
125.7793,90.1015
125.6624,90.0531
125.6140,90.0330
125.6140,90.0330
125.6140,90.0330
125.5256,90.0154
125.4385,89.9981
125.4385,89.9981
125.2595,89.9981
125.2595,89.9981
125.1348,90.0229
125.0840,90.0330
125.0840,90.0330
125.0840,90.0330
124.9187,90.1015
124.7699,90.2009
124.7699,90.2009
124.6433,90.3275
124.6433,90.3275
124.5439,90.4763
124.4754,90.6416
124.4405,90.8171
119.0255,90.8171
119.0255,80.8515
122.1995,80.8515
122.1995,81.5485
122.2379,81.7418
122.2379,81.7418
122.2863,81.8587
122.3134,81.9239
122.4229,82.0878
122.5622,82.2271
122.7261,82.3366
122.9082,82.4121
123.1015,82.4505
123.2985,82.4505
123.4918,82.4121
123.6739,82.3366
123.8378,82.2271
123.9771,82.0878
124.0866,81.9239
124.1621,81.7418
124.2005,81.5485
124.2005,81.1016
126.3495,81.1016
126.3495,81.2984
126.3803,81.4928
126.4411,81.6800
126.5228,81.8404
126.5305,81.8554
126.6462,82.0146
126.7854,82.1538
126.8762,82.2198
126.9446,82.2695
127.1200,82.3589
127.3072,82.4197
127.5016,82.4505
127.5016,82.4505
127.6984,82.4505
127.6984,82.4505
127.8928,82.4197
128.0800,82.3589
128.2554,82.2695
128.4146,82.1538
128.5538,82.0146
128.6695,81.8554
128.7589,81.6800
128.8197,81.4928
128.8505,81.2984
128.8505,81.1016
128.8197,80.9072
128.7589,80.7200
128.6695,80.5446
128.6139,80.4680
128.5538,80.3854
128.4146,80.2462
128.2554,80.1305
128.2554,80.1305
128.2554,80.1305
128.0800,80.0411
127.8928,79.9803
127.6984,79.9495
127.5016,79.9495
127.3072,79.9803
127.3072,79.9803
127.3072,79.9803
127.2174,80.0095
127.1200,80.0411
127.1200,80.0411
127.1200,80.0411
126.9446,80.1305
126.7854,80.2462
126.6462,80.3854
126.5305,80.5446
126.5305,80.5446
126.4411,80.7200
126.4341,80.7415
126.3961,80.8585
126.3803,80.9072
126.3495,81.1016
124.2005,81.1016
124.2005,80.8515
124.1621,80.6582
124.0866,80.4761
123.9771,80.3122
123.8378,80.1729
123.6739,80.0634
123.6202,80.0411
123.4918,79.9879
123.4918,79.9879
123.2985,79.9495
123.2985,79.9495
123.1015,79.9495
123.1015,79.9495
122.9082,79.9879
122.9082,79.9879
122.7261,80.0634
122.5622,80.1729
122.5622,80.1729
122.4229,80.3122
122.4229,80.3122
122.3134,80.4761
122.2379,80.6582
122.2379,80.6582
122.1995,80.8515
119.0255,80.8515
119.0255,78.0409
122.1799,78.0409
122.1799,78.2199
122.1932,78.2867
122.2148,78.3954
122.2833,78.5607
122.3827,78.7095
122.5093,78.8361
122.6581,78.9355
122.8234,79.0040
122.9989,79.0389
122.9989,79.0389
123.1779,79.0389
123.1779,79.0389
123.3534,79.0040
123.5187,78.9355
123.6675,78.8361
123.7941,78.7095
123.8935,78.5607
123.9620,78.3954
123.9969,78.2199
123.9969,78.0409
123.9652,77.8815
123.9652,77.8815
123.9620,77.8654
123.9610,77.8631
128.1997,77.8631
128.1997,78.0421
128.2141,78.1146
128.2346,78.2176
128.3031,78.3829
128.4025,78.5317
128.5291,78.6583
128.6779,78.7577
128.8432,78.8262
129.0187,78.8611
129.0187,78.8611
129.1977,78.8611
129.1977,78.8611
129.3732,78.8262
129.5385,78.7577
129.6873,78.6583
129.8139,78.5317
129.9133,78.3829
129.9818,78.2176
130.0167,78.0421
130.0167,77.8631
129.9818,77.6876
129.9133,77.5223
129.8139,77.3735
129.6873,77.2469
129.5385,77.1475
129.4216,77.0991
129.3732,77.0790
129.3732,77.0790
129.3732,77.0790
129.2848,77.0614
129.1977,77.0441
129.1977,77.0441
129.0187,77.0441
129.0187,77.0441
128.9040,77.0669
128.8432,77.0790
128.8432,77.0790
128.8432,77.0790
128.6779,77.1475
128.5291,77.2469
128.5291,77.2469
128.4025,77.3735
128.4025,77.3735
128.3031,77.5223
128.2346,77.6876
128.1997,77.8631
123.9610,77.8631
123.9535,77.8450
123.8935,77.7001
123.7941,77.5513
123.6675,77.4247
123.5187,77.3253
123.4018,77.2769
123.3534,77.2568
123.3534,77.2568
123.3534,77.2568
123.2650,77.2392
123.1779,77.2219
123.1779,77.2219
122.9989,77.2219
122.9989,77.2219
122.8731,77.2469
122.8234,77.2568
122.8234,77.2568
122.8234,77.2568
122.6581,77.3253
122.5093,77.4247
122.5093,77.4247
122.3827,77.5513
122.3827,77.5513
122.2833,77.7001
122.2148,77.8654
122.1799,78.0409
119.0255,78.0409
119.0255,73.2403
122.2053,73.2403
122.2053,73.4193
122.2154,73.4701
122.2402,73.5948
122.3087,73.7601
122.4081,73.9089
122.5347,74.0355
122.6835,74.1349
122.8488,74.2034
123.0243,74.2383
123.0243,74.2383
123.2033,74.2383
123.2033,74.2383
123.3788,74.2034
123.5441,74.1349
123.6929,74.0355
123.8195,73.9089
123.9189,73.7601
123.9874,73.5948
124.0223,73.4193
124.0223,73.2911
128.1743,73.2911
128.1743,73.2911
128.1743,73.4701
128.2092,73.6456
128.2777,73.8109
128.3771,73.9597
128.5037,74.0863
128.6525,74.1857
128.8178,74.2542
128.9933,74.2891
128.9933,74.2891
129.1723,74.2891
129.1723,74.2891
129.3478,74.2542
129.5131,74.1857
129.6619,74.0863
129.7885,73.9597
129.8879,73.8109
129.9564,73.6456
129.9913,73.4701
129.9913,73.2911
129.9564,73.1156
129.8879,72.9503
129.7885,72.8015
129.6619,72.6749
129.5131,72.5755
129.3905,72.5247
129.3478,72.5070
129.3478,72.5070
129.3478,72.5070
129.2594,72.4894
129.1723,72.4721
129.1723,72.4721
128.9933,72.4721
128.9933,72.4721
128.8626,72.4981
128.8178,72.5070
128.8178,72.5070
128.8178,72.5070
128.6525,72.5755
128.5037,72.6749
128.5037,72.6749
128.3771,72.8015
128.3771,72.8015
128.2777,72.9503
128.2092,73.1156
128.2092,73.1156
128.2092,73.1156
128.2003,73.1604
128.1743,73.2911
124.0223,73.2911
124.0223,73.2403
123.9874,73.0648
123.9189,72.8995
123.8195,72.7507
123.6929,72.6241
123.5441,72.5247
123.4172,72.4721
123.3788,72.4562
123.3788,72.4562
123.3788,72.4562
123.2904,72.4386
123.2033,72.4213
123.2033,72.4213
123.0243,72.4213
123.0243,72.4213
122.8936,72.4473
122.8488,72.4562
122.8488,72.4562
122.8488,72.4562
122.6835,72.5247
122.5347,72.6241
122.5347,72.6241
122.4081,72.7507
122.4081,72.7507
122.3742,72.8015
122.3087,72.8995
122.3018,72.9162
122.2402,73.0648
122.2053,73.2403
119.0255,73.2403
119.0255,69.3740
121.3995,69.3740
121.3995,69.6260
121.4389,69.8748
121.4389,69.8748
121.5094,70.0919
121.5168,70.1144
121.6311,70.3388
121.7792,70.5427
121.7792,70.5427
121.7792,70.5427
121.9573,70.7208
121.9573,70.7208
121.9573,70.7208
122.1612,70.8689
122.3856,70.9832
122.6252,71.0611
122.8740,71.1005
122.8740,71.1005
123.1260,71.1005
123.1260,71.1005
123.3748,71.0611
123.6144,70.9832
123.8388,70.8689
124.0427,70.7208
124.2208,70.5427
124.3689,70.3388
124.4832,70.1144
124.5611,69.8748
124.6005,69.6260
124.6005,69.3740
124.5782,69.2331
134.9415,69.2331
134.9415,69.4469
134.9734,69.6483
134.9750,69.6581
135.0255,69.8136
135.0410,69.8615
135.1381,70.0520
135.2638,70.2250
135.2638,70.2250
135.2638,70.2250
135.4150,70.3762
135.4150,70.3762
135.4150,70.3762
135.5880,70.5019
135.5880,70.5019
135.5891,70.5026
135.5894,70.5029
135.5920,70.5048
135.5916,70.5053
135.6367,70.5552
135.6483,70.6253
135.6202,70.6905
135.5919,70.7150
135.5920,70.7152
135.5900,70.7167
135.5891,70.7174
135.5880,70.7181
135.4150,70.8438
135.4150,70.8438
135.2638,70.9950
135.2638,70.9950
135.1381,71.1680
135.0410,71.3585
135.0410,71.3585
134.9750,71.5619
134.9750,71.5619
134.9750,71.5619
134.9415,71.7731
134.9415,71.9869
134.9750,72.1981
134.9750,72.1981
135.0410,72.4015
135.0410,72.4015
135.1381,72.5920
135.2638,72.7650
135.2638,72.7650
135.2638,72.7650
135.4150,72.9162
135.4150,72.9162
135.4150,72.9162
135.5880,73.0419
135.5880,73.0419
135.5891,73.0426
135.5894,73.0429
135.5920,73.0448
135.5916,73.0453
135.6367,73.0952
135.6483,73.1653
135.6202,73.2305
135.5919,73.2550
135.5920,73.2552
135.5900,73.2567
135.5891,73.2574
135.5880,73.2581
135.4150,73.3838
135.4150,73.3838
135.2638,73.5350
135.2638,73.5350
135.1381,73.7080
135.0410,73.8985
135.0410,73.8985
134.9750,74.1019
134.9750,74.1019
134.9750,74.1019
134.9415,74.3131
134.9415,74.5269
134.9744,74.7349
134.9750,74.7381
135.0341,74.9200
135.0410,74.9415
135.1381,75.1320
135.2638,75.3050
135.2638,75.3050
135.2638,75.3050
135.4150,75.4562
135.4150,75.4562
135.4150,75.4562
135.5880,75.5819
135.5880,75.5819
135.5891,75.5826
135.5894,75.5829
135.5920,75.5848
135.5916,75.5853
135.6367,75.6352
135.6483,75.7053
135.6202,75.7705
135.5919,75.7950
135.5920,75.7952
135.5900,75.7967
135.5891,75.7974
135.5880,75.7981
135.4150,75.9238
135.4150,75.9238
135.2638,76.0750
135.2638,76.0750
135.1381,76.2480
135.0410,76.4385
135.0410,76.4385
134.9750,76.6419
134.9750,76.6419
134.9750,76.6419
134.9415,76.8531
134.9415,77.0669
134.9700,77.2469
134.9750,77.2781
135.0355,77.4645
135.0410,77.4815
135.1357,77.6673
135.1381,77.6720
135.1585,77.7001
135.2638,77.8450
135.2638,77.8450
135.2638,77.8450
135.3668,77.9480
135.4008,78.0103
135.3957,78.0811
135.3532,78.1379
135.3217,78.1551
135.2038,78.1991
135.2038,78.1991
135.0867,78.2867
134.9991,78.4038
134.9991,78.4038
134.9480,78.5408
134.9480,78.5408
134.9415,78.6013
134.9415,80.3986
134.9480,80.4592
134.9480,80.4592
134.9991,80.5962
134.9991,80.5962
135.0867,80.7133
135.2038,80.8009
135.2038,80.8009
135.2038,80.8009
135.2629,80.8229
135.3408,80.8520
135.3408,80.8520
135.4014,80.8585
135.4014,80.8585
135.4014,80.8585
135.4014,80.8585
137.1986,80.8585
137.1986,80.8585
137.1986,80.8585
137.1986,80.8585
137.2592,80.8520
137.2592,80.8520
137.2592,80.8520
137.2694,80.8482
137.2780,80.8450
137.3962,80.8009
137.4755,80.7415
137.5133,80.7133
137.6009,80.5962
137.6009,80.5962
137.6009,80.5962
137.6457,80.4761
137.6520,80.4592
137.6520,80.4592
137.6585,80.3986
137.6585,80.3986
137.6585,78.6014
137.6585,78.6013
137.6520,78.5408
137.6520,78.5408
137.6009,78.4038
137.6009,78.4038
137.5133,78.2867
137.3962,78.1991
137.3962,78.1991
137.2783,78.1551
137.2215,78.1126
137.1966,78.0461
137.2117,77.9767
137.2332,77.9480
137.3362,77.8450
137.4619,77.6720
137.5590,77.4815
137.6250,77.2781
137.6585,77.0669
137.6585,76.8531
137.6250,76.6419
137.5590,76.4385
137.4972,76.3173
139.6115,76.3173
139.6115,78.1146
139.6180,78.1752
139.6180,78.1752
139.6691,78.3122
139.6691,78.3122
139.7567,78.4293
139.8738,78.5169
139.8738,78.5169
139.8738,78.5169
139.9917,78.5609
140.0485,78.6034
140.0734,78.6699
140.0583,78.7393
140.0368,78.7680
139.9338,78.8710
139.8081,79.0440
139.7110,79.2345
139.7110,79.2345
139.6450,79.4379
139.6450,79.4379
139.6450,79.4379
139.6115,79.6491
139.6115,79.8629
139.6432,80.0634
139.6450,80.0741
139.7046,80.2577
139.7110,80.2775
139.8036,80.4592
139.8081,80.4680
139.8140,80.4761
139.9338,80.6410
139.9338,80.6410
139.9338,80.6410
140.0850,80.7922
140.0850,80.7922
140.0850,80.7922
140.2580,80.9179
140.2580,80.9179
140.2591,80.9186
140.2594,80.9189
140.2620,80.9208
140.2616,80.9213
140.3067,80.9712
140.3183,81.0413
140.2902,81.1065
140.2619,81.1310
140.2620,81.1312
140.2600,81.1327
140.2591,81.1334
140.2580,81.1341
140.0850,81.2598
140.0850,81.2598
139.9338,81.4110
139.9338,81.4110
139.8081,81.5840
139.7110,81.7745
139.7110,81.7745
139.6450,81.9779
139.6450,81.9779
139.6450,81.9779
139.6115,82.1891
139.6115,82.4029
139.6450,82.6141
139.6450,82.6141
139.7047,82.7981
139.7110,82.8175
139.8081,83.0080
139.9338,83.1810
139.9338,83.1810
139.9338,83.1810
140.0850,83.3322
140.0850,83.3322
140.0850,83.3322
140.2580,83.4579
140.2580,83.4579
140.2591,83.4586
140.2594,83.4589
140.2620,83.4608
140.2616,83.4613
140.3067,83.5112
140.3183,83.5813
140.2902,83.6465
140.2619,83.6710
140.2620,83.6712
140.2600,83.6727
140.2591,83.6734
140.2580,83.6741
140.0850,83.7998
140.0850,83.7998
139.9338,83.9510
139.9338,83.9510
139.8081,84.1240
139.7110,84.3145
139.7110,84.3145
139.6450,84.5179
139.6450,84.5179
139.6450,84.5179
139.6115,84.7291
139.6115,84.9429
139.6449,85.1541
139.6450,85.1541
139.7071,85.3455
139.7110,85.3575
139.8081,85.5480
139.9338,85.7210
139.9338,85.7210
139.9338,85.7210
140.0850,85.8722
140.0850,85.8722
140.0850,85.8722
140.2580,85.9979
140.2580,85.9979
140.2591,85.9986
140.2594,85.9989
140.2620,86.0008
140.2616,86.0013
140.3067,86.0512
140.3183,86.1213
140.2902,86.1865
140.2619,86.2110
140.2620,86.2112
140.2600,86.2127
140.2591,86.2134
140.2580,86.2141
140.0850,86.3398
140.0850,86.3398
139.9338,86.4910
139.9338,86.4910
139.8081,86.6640
139.7110,86.8545
139.7110,86.8545
139.6450,87.0579
139.6450,87.0579
139.6450,87.0579
139.6115,87.2691
139.6115,87.4829
139.6450,87.6941
139.6450,87.6941
139.7084,87.8895
139.7110,87.8975
139.8081,88.0880
139.8081,88.0880
139.8125,88.0940
139.9338,88.2610
139.9338,88.2610
139.9338,88.2610
140.0850,88.4122
140.0850,88.4122
140.0850,88.4122
140.2580,88.5379
140.2580,88.5379
140.2591,88.5386
140.2594,88.5389
140.2620,88.5408
140.2616,88.5413
140.3067,88.5912
140.3183,88.6613
140.2902,88.7265
140.2619,88.7510
140.2620,88.7512
140.2600,88.7527
140.2591,88.7534
140.2580,88.7541
140.0850,88.8798
140.0850,88.8798
139.9338,89.0310
139.9338,89.0310
139.8081,89.2040
139.7110,89.3945
139.7110,89.3945
139.6450,89.5979
139.6450,89.5979
139.6450,89.5979
139.6115,89.8091
139.6115,90.0229
139.6371,90.1844
139.6450,90.2341
139.7031,90.4130
139.7110,90.4375
139.8081,90.6280
139.8081,90.6280
139.8180,90.6416
139.9338,90.8010
139.9338,90.8010
139.9338,90.8010
140.0850,90.9522
140.0850,90.9522
140.0850,90.9522
140.2580,91.0779
140.4485,91.1750
140.6519,91.2410
140.6519,91.2410
140.6519,91.2410
140.8631,91.2745
140.8631,91.2745
141.0769,91.2745
141.0769,91.2745
141.2881,91.2410
141.4915,91.1750
141.6820,91.0779
141.8550,90.9522
142.0062,90.8010
142.1319,90.6280
142.2290,90.4375
142.2542,90.3599
164.1407,90.3599
164.1407,90.5389
164.1580,90.6260
164.1756,90.7144
164.2441,90.8797
164.3435,91.0285
164.4701,91.1551
164.6189,91.2545
164.7842,91.3230
164.9597,91.3579
164.9597,91.3579
165.1387,91.3579
165.1387,91.3579
165.3142,91.3230
165.4795,91.2545
165.6283,91.1551
165.7549,91.0285
165.8543,90.8797
165.9228,90.7144
165.9472,90.5918
165.9478,90.5885
169.6525,90.5885
169.6525,90.7675
169.6630,90.8204
169.6874,90.9430
169.7559,91.1083
169.8553,91.2571
169.9819,91.3837
170.1307,91.4831
170.2960,91.5516
170.4715,91.5865
170.4715,91.5865
170.6505,91.5865
170.6505,91.5865
170.8260,91.5516
170.9913,91.4831
171.1401,91.3837
171.2667,91.2571
171.3661,91.1083
171.4346,90.9430
171.4695,90.7675
171.4695,90.5885
171.4346,90.4130
171.3661,90.2477
171.2667,90.0989
171.1401,89.9723
170.9913,89.8729
170.8373,89.8091
170.8260,89.8044
170.8260,89.8044
170.8260,89.8044
170.7376,89.7868
170.6505,89.7695
170.6505,89.7695
170.4715,89.7695
170.4715,89.7695
170.3408,89.7955
170.2960,89.8044
170.2960,89.8044
170.2960,89.8044
170.1307,89.8729
169.9819,89.9723
169.9819,89.9723
169.8553,90.0989
169.8553,90.0989
169.7559,90.2477
169.6874,90.4130
169.6525,90.5885
165.9478,90.5885
165.9539,90.5577
165.9539,90.5577
165.9577,90.5389
165.9577,90.5389
165.9577,90.3599
165.9577,90.3599
165.9228,90.1844
165.8543,90.0191
165.7549,89.8703
165.6283,89.7437
165.4795,89.6443
165.3626,89.5959
165.3142,89.5758
165.3142,89.5758
165.3142,89.5758
165.2258,89.5582
165.1387,89.5409
165.1387,89.5409
164.9597,89.5409
164.9597,89.5409
164.8290,89.5669
164.7842,89.5758
164.7842,89.5758
164.7842,89.5758
164.6189,89.6443
164.4701,89.7437
164.4701,89.7437
164.3435,89.8703
164.3435,89.8703
164.2573,89.9993
164.2441,90.0191
164.2383,90.0330
164.1756,90.1844
164.1407,90.3599
142.2542,90.3599
142.2950,90.2341
142.3285,90.0229
142.3285,89.8091
142.2950,89.5979
142.2290,89.3945
142.1319,89.2040
142.0062,89.0310
142.0062,89.0310
142.0062,89.0310
141.8550,88.8798
141.8550,88.8798
141.8550,88.8798
141.6820,88.7541
141.6820,88.7541
141.6809,88.7534
141.6806,88.7531
141.6780,88.7512
141.6784,88.7507
141.6333,88.7008
141.6217,88.6308
141.6498,88.5656
141.6781,88.5410
141.6780,88.5408
141.6800,88.5393
141.6809,88.5386
141.6820,88.5379
141.6820,88.5379
141.8550,88.4122
142.0062,88.2610
142.1319,88.0880
142.2290,87.8975
142.2950,87.6941
142.3285,87.4829
142.3285,87.2691
142.2950,87.0579
142.2290,86.8545
142.1319,86.6640
142.0062,86.4910
142.0062,86.4910
142.0062,86.4910
141.8550,86.3398
141.8550,86.3398
141.8550,86.3398
141.6820,86.2141
141.6820,86.2141
141.6809,86.2134
141.6806,86.2131
141.6780,86.2112
141.6784,86.2107
141.6333,86.1608
141.6217,86.0908
141.6498,86.0256
141.6781,86.0010
141.6780,86.0008
141.6800,85.9993
141.6809,85.9986
141.6820,85.9979
141.6820,85.9979
141.8550,85.8722
142.0062,85.7210
142.1319,85.5480
142.2290,85.3575
142.2950,85.1541
142.3234,84.9751
143.9223,84.9751
143.9223,85.1541
143.9308,85.1967
143.9514,85.3002
143.9572,85.3296
143.9688,85.3575
144.0257,85.4949
144.1251,85.6437
144.2517,85.7703
144.4005,85.8697
144.5658,85.9382
144.7413,85.9731
144.7413,85.9731
144.9203,85.9731
144.9203,85.9731
145.0958,85.9382
145.2611,85.8697
145.4099,85.7703
145.5365,85.6437
145.6359,85.4949
145.7044,85.3296
145.7102,85.3002
147.6866,85.3002
147.6866,85.4792
147.6929,85.5108
147.7215,85.6547
147.7900,85.8200
147.8894,85.9688
148.0160,86.0954
148.1648,86.1948
148.3301,86.2633
148.5056,86.2982
148.5056,86.2982
148.6846,86.2982
148.6846,86.2982
148.8601,86.2633
149.0254,86.1948
149.1742,86.0954
149.3008,85.9688
149.4002,85.8200
149.4240,85.7625
150.7806,85.7625
150.7806,85.9415
150.7920,85.9986
150.8112,86.0954
150.8155,86.1170
150.8173,86.1213
150.8840,86.2823
150.9834,86.4311
151.1100,86.5577
151.1100,86.5577
151.2218,86.6324
151.2673,86.6869
151.2762,86.7573
151.2661,86.7872
151.2671,86.7875
151.2647,86.7933
151.2647,86.7933
151.2440,86.8432
151.1962,86.9586
151.1613,87.1341
151.1613,87.1341
151.1613,87.3131
151.1955,87.4849
151.1962,87.4886
151.2083,87.5178
151.2647,87.6539
151.3641,87.8027
151.4907,87.9293
151.6395,88.0287
151.7017,88.0545
151.7570,88.0990
151.7794,88.1664
151.7770,88.1955
151.7709,88.2263
151.7709,88.4053
151.7790,88.4459
151.8058,88.5808
151.8743,88.7461
151.9737,88.8949
152.1003,89.0215
152.2491,89.1209
152.4144,89.1894
152.5899,89.2243
152.5899,89.2243
152.7689,89.2243
152.7689,89.2243
152.9444,89.1894
153.1097,89.1209
153.2585,89.0215
153.3851,88.8949
153.4845,88.7461
153.5530,88.5808
153.5679,88.5057
154.1585,88.5057
154.1585,88.6847
154.1717,88.7512
154.1934,88.8602
154.2619,89.0255
154.3613,89.1743
154.4879,89.3009
154.6367,89.4003
154.8020,89.4688
154.9775,89.5037
154.9775,89.5037
155.1565,89.5037
155.1565,89.5037
155.3320,89.4688
155.4973,89.4003
155.6461,89.3009
155.6842,89.2628
155.7465,89.2288
155.8173,89.2338
155.8215,89.2355
155.8942,89.2656
156.0697,89.3005
156.0697,89.3005
156.2487,89.3005
156.2487,89.3005
156.4242,89.2656
156.5895,89.1971
156.7383,89.0977
156.8649,88.9711
156.9643,88.8223
157.0218,88.6835
165.9695,88.6835
165.9695,88.8625
165.9729,88.8798
166.0044,89.0380
166.0729,89.2033
166.1723,89.3521
166.2989,89.4787
166.4477,89.5781
166.6130,89.6466
166.7885,89.6815
166.7885,89.6815
166.9675,89.6815
166.9675,89.6815
167.1430,89.6466
167.3083,89.5781
167.4571,89.4787
167.5837,89.3521
167.6831,89.2033
167.7516,89.0380
167.7865,88.8625
167.7865,88.6835
167.7516,88.5080
167.6831,88.3427
167.5837,88.1939
167.4571,88.0673
167.4290,88.0485
171.4813,88.0485
171.4813,88.0485
171.4813,88.2275
171.5074,88.3589
171.5162,88.4030
171.5266,88.4280
171.5847,88.5683
171.6841,88.7171
171.8107,88.8437
171.9595,88.9431
172.1248,89.0116
172.3003,89.0465
172.3003,89.0465
172.4793,89.0465
172.4793,89.0465
172.6548,89.0116
172.8201,88.9431
172.9689,88.8437
173.0955,88.7171
173.1449,88.6431
175.8335,88.6431
175.8335,88.9249
175.8650,89.2049
175.9277,89.4795
176.0208,89.7455
176.0208,89.7455
176.1430,89.9993
176.2929,90.2379
176.4686,90.4582
176.6678,90.6574
176.8881,90.8331
177.1267,90.9830
177.1267,90.9830
177.1267,90.9830
177.3805,91.1052
177.3805,91.1052
177.3805,91.1052
177.6465,91.1983
177.6465,91.1983
177.6465,91.1983
177.9211,91.2610
177.9211,91.2610
177.9211,91.2610
178.0863,91.2796
178.2011,91.2925
178.2011,91.2925
178.4829,91.2925
178.5540,91.2845
178.7629,91.2610
179.0375,91.1983
179.3035,91.1052
179.5573,90.9830
179.7959,90.8331
179.8781,90.7675
180.0162,90.6574
180.2154,90.4582
180.3911,90.2379
180.3934,90.2341
180.5410,89.9993
180.6632,89.7455
180.7563,89.4795
180.8190,89.2049
180.8484,88.9431
180.8505,88.9249
180.8505,88.6431
180.8387,88.5386
180.8190,88.3631
180.7563,88.0885
180.7444,88.0545
180.6632,87.8225
180.6632,87.8225
180.6632,87.8225
180.5410,87.5687
180.5410,87.5687
180.5410,87.5687
180.3911,87.3301
180.2154,87.1098
180.0162,86.9106
179.7959,86.7349
179.5573,86.5850
179.3035,86.4628
179.3035,86.4628
179.3035,86.4628
179.3035,86.4628
179.3035,86.4628
179.0375,86.3697
178.7629,86.3070
178.7629,86.3070
178.4829,86.2755
178.4829,86.2755
178.2011,86.2755
178.2011,86.2755
177.9211,86.3070
177.6465,86.3697
177.3805,86.4628
177.3805,86.4628
177.1267,86.5850
176.8881,86.7349
176.6678,86.9106
176.4686,87.1098
176.2929,87.3301
176.1430,87.5687
176.0208,87.8225
176.0208,87.8225
175.9277,88.0885
175.8650,88.3631
175.8335,88.6431
173.1449,88.6431
173.1949,88.5683
173.2634,88.4030
173.2983,88.2275
173.2983,88.0485
173.2634,87.8730
173.1949,87.7077
173.0955,87.5589
172.9689,87.4323
172.8201,87.3329
172.6661,87.2691
172.6548,87.2644
172.6548,87.2644
172.6548,87.2644
172.5664,87.2468
172.4793,87.2295
172.4793,87.2295
172.3003,87.2295
172.3003,87.2295
172.1696,87.2555
172.1248,87.2644
172.1248,87.2644
172.1248,87.2644
172.0073,87.3131
171.9662,87.3301
171.9595,87.3329
171.8107,87.4323
171.8107,87.4323
171.6841,87.5589
171.6841,87.5589
171.5987,87.6867
171.5847,87.7077
171.5727,87.7367
171.5162,87.8730
171.4813,88.0485
167.4290,88.0485
167.3083,87.9679
167.1914,87.9195
167.1430,87.8994
167.1430,87.8994
167.1430,87.8994
167.0546,87.8818
166.9675,87.8645
166.9675,87.8645
166.7885,87.8645
166.7885,87.8645
166.6627,87.8895
166.6130,87.8994
166.6130,87.8994
166.6130,87.8994
166.4477,87.9679
166.2989,88.0673
166.2989,88.0673
166.1723,88.1939
166.1723,88.1939
166.0729,88.3427
166.0044,88.5080
166.0044,88.5080
166.0044,88.5080
165.9982,88.5393
165.9695,88.6835
157.0218,88.6835
157.0328,88.6570
157.0586,88.5270
157.0915,88.4641
157.1532,88.4290
157.1576,88.4280
157.1608,88.4274
157.3261,88.3589
157.4749,88.2595
157.6015,88.1329
157.7009,87.9841
157.7694,87.8188
157.8043,87.6433
157.8043,87.4643
157.7694,87.2888
157.7009,87.1235
157.6015,86.9747
157.4749,86.8481
157.3261,86.7487
157.2092,86.7003
157.1608,86.6802
157.1608,86.6802
157.1608,86.6802
157.0724,86.6626
156.9853,86.6453
156.9853,86.6453
156.8063,86.6453
156.8063,86.6453
156.6707,86.6723
156.6000,86.6660
156.5439,86.6224
156.5203,86.5554
156.5366,86.4864
156.5570,86.4596
156.6617,86.3549
156.7611,86.2061
156.7870,86.1435
159.6449,86.1435
159.6449,86.3225
159.6543,86.3697
159.6798,86.4980
159.7483,86.6633
159.8477,86.8121
159.9743,86.9387
160.1231,87.0381
160.2884,87.1066
160.4639,87.1415
160.4639,87.1415
160.6429,87.1415
160.6429,87.1415
160.8184,87.1066
160.9837,87.0381
161.1325,86.9387
161.2591,86.8121
161.3585,86.6633
161.4270,86.4980
161.4619,86.3225
161.4619,86.1435
161.4270,85.9680
161.3585,85.8027
161.2591,85.6539
161.1325,85.5273
160.9837,85.4279
160.8668,85.3795
160.8184,85.3594
160.8184,85.3594
160.8184,85.3594
160.7300,85.3418
160.6429,85.3245
160.6429,85.3245
160.4639,85.3245
160.4639,85.3245
160.3332,85.3505
160.2884,85.3594
160.2884,85.3594
160.2884,85.3594
160.1231,85.4279
159.9743,85.5273
159.9743,85.5273
159.8477,85.6539
159.8477,85.6539
159.7483,85.8027
159.6798,85.9680
159.6798,85.9680
159.6798,85.9680
159.6736,85.9993
159.6449,86.1435
156.7870,86.1435
156.8096,86.0891
156.8096,86.0891
156.8296,86.0408
156.8296,86.0408
156.8296,86.0408
156.8645,85.8653
156.8645,85.6863
156.8296,85.5108
156.7611,85.3455
156.6617,85.1967
156.5351,85.0701
156.3863,84.9707
156.2694,84.9223
156.2210,84.9022
156.2210,84.9022
156.2210,84.9022
156.1283,84.8838
156.0455,84.8673
156.0455,84.8673
155.8665,84.8673
155.8665,84.8673
155.7358,84.8933
155.6910,84.9022
155.6910,84.9022
155.6910,84.9022
155.5257,84.9707
155.3769,85.0701
155.3769,85.0701
155.2503,85.1967
155.2503,85.1967
155.1529,85.3425
155.1509,85.3455
155.1367,85.3797
155.0824,85.5108
155.0475,85.6863
155.0475,85.8653
155.0489,85.8722
155.0824,86.0408
155.1509,86.2061
155.2503,86.3549
155.3769,86.4815
155.5257,86.5809
155.6910,86.6494
155.8665,86.6843
155.8665,86.6843
156.0455,86.6843
156.0455,86.6843
156.1811,86.6573
156.2518,86.6636
156.3079,86.7072
156.3315,86.7742
156.3152,86.8432
156.2948,86.8700
156.1901,86.9747
156.1901,86.9747
156.0907,87.1235
156.0222,87.2888
156.0222,87.2888
156.0222,87.2888
156.0134,87.3329
155.9964,87.4188
155.9634,87.4817
155.9018,87.5168
155.8974,87.5178
155.8942,87.5184
155.8942,87.5184
155.7289,87.5869
155.5801,87.6863
155.5801,87.6863
155.5420,87.7244
155.4797,87.7584
155.4089,87.7534
155.4047,87.7517
155.3320,87.7216
155.3320,87.7216
155.1565,87.6867
155.1565,87.6867
154.9775,87.6867
154.9775,87.6867
154.8468,87.7127
154.8020,87.7216
154.8020,87.7216
154.8020,87.7216
154.7131,87.7584
154.6515,87.7839
154.6367,87.7901
154.4879,87.8895
154.4879,87.8895
154.3613,88.0161
154.3613,88.0161
154.2619,88.1649
154.1934,88.3302
154.1585,88.5057
153.5679,88.5057
153.5879,88.4053
153.5879,88.2263
153.5530,88.0508
153.4845,87.8855
153.3851,87.7367
153.2585,87.6101
153.1213,87.5184
153.1097,87.5107
153.1097,87.5107
153.0475,87.4849
152.9922,87.4404
152.9698,87.3730
152.9722,87.3439
152.9744,87.3329
152.9783,87.3131
152.9783,87.1341
152.9434,86.9586
152.8749,86.7933
152.7755,86.6445
152.6489,86.5179
152.5371,86.4432
152.4916,86.3887
152.4827,86.3183
152.4928,86.2885
152.4918,86.2881
152.4942,86.2823
152.4942,86.2823
152.5627,86.1170
152.5976,85.9415
152.5976,85.7625
152.5627,85.5870
152.4942,85.4217
152.3948,85.2729
152.2682,85.1463
152.1194,85.0469
152.0025,84.9985
151.9541,84.9784
151.9541,84.9784
151.9541,84.9784
151.8583,84.9594
151.7786,84.9435
151.7786,84.9435
151.5996,84.9435
151.5996,84.9435
151.4689,84.9695
151.4241,84.9784
151.4241,84.9784
151.4241,84.9784
151.2588,85.0469
151.1100,85.1463
151.1100,85.1463
150.9834,85.2729
150.9834,85.2729
150.8840,85.4217
150.8155,85.5870
150.7806,85.7625
149.4240,85.7625
149.4687,85.6547
149.5036,85.4792
149.5036,85.3002
149.4687,85.1247
149.4002,84.9594
149.3008,84.8106
149.1742,84.6840
149.0254,84.5846
148.9085,84.5362
148.8601,84.5161
148.8601,84.5161
148.8601,84.5161
148.7718,84.4985
148.6846,84.4812
148.6846,84.4812
148.5056,84.4812
148.5056,84.4812
148.3749,84.5072
148.3301,84.5161
148.3301,84.5161
148.3301,84.5161
148.1648,84.5846
148.0160,84.6840
148.0160,84.6840
147.8894,84.8106
147.8894,84.8106
147.7968,84.9492
147.7900,84.9594
147.7841,84.9736
147.7215,85.1247
147.6866,85.3002
145.7102,85.3002
145.7393,85.1541
145.7393,84.9751
145.7044,84.7996
145.6359,84.6343
145.5365,84.4855
145.4099,84.3589
145.2611,84.2595
145.1442,84.2111
145.0958,84.1910
145.0958,84.1910
145.0958,84.1910
145.0074,84.1734
144.9203,84.1561
144.9203,84.1561
144.7413,84.1561
144.7413,84.1561
144.6106,84.1821
144.5658,84.1910
144.5658,84.1910
144.5658,84.1910
144.4005,84.2595
144.2517,84.3589
144.2517,84.3589
144.1251,84.4855
144.1251,84.4855
144.0257,84.6343
143.9572,84.7996
143.9223,84.9751
142.3234,84.9751
142.3285,84.9429
142.3285,84.7291
142.2950,84.5179
142.2290,84.3145
142.1319,84.1240
142.0062,83.9510
142.0062,83.9510
142.0062,83.9510
141.8550,83.7998
141.8550,83.7998
141.8550,83.7998
141.6820,83.6741
141.6820,83.6741
141.6809,83.6734
141.6806,83.6731
141.6780,83.6712
141.6784,83.6707
141.6333,83.6208
141.6217,83.5508
141.6498,83.4856
141.6781,83.4610
141.6780,83.4608
141.6800,83.4593
141.6809,83.4586
141.6820,83.4579
141.6820,83.4579
141.8550,83.3322
142.0062,83.1810
142.1319,83.0080
142.1520,82.9685
154.7681,82.9685
154.7681,82.9685
154.7681,83.1475
154.8030,83.3230
154.8715,83.4883
154.9709,83.6371
155.0975,83.7637
155.2463,83.8631
155.4116,83.9316
155.5871,83.9665
155.5871,83.9665
155.7661,83.9665
155.7661,83.9665
155.9416,83.9316
156.1069,83.8631
156.2557,83.7637
156.3823,83.6371
156.4817,83.4883
156.5502,83.3230
156.5851,83.1475
156.5851,82.9685
156.5502,82.7930
156.4817,82.6277
156.3823,82.4789
156.2557,82.3523
156.1069,82.2529
155.9529,82.1891
155.9416,82.1844
155.9416,82.1844
155.9416,82.1844
155.8532,82.1668
155.7661,82.1495
155.7661,82.1495
155.5871,82.1495
155.5871,82.1495
155.4564,82.1755
155.4116,82.1844
155.4116,82.1844
155.4116,82.1844
155.2463,82.2529
155.0975,82.3523
155.0975,82.3523
154.9709,82.4789
154.9709,82.4789
154.8931,82.5953
154.8715,82.6277
154.8610,82.6531
154.8030,82.7930
154.7681,82.9685
142.1520,82.9685
142.2290,82.8175
142.2950,82.6141
142.3285,82.4029
142.3285,82.1891
142.2950,81.9779
142.2373,81.8001
149.2309,81.8001
149.2309,81.9791
149.2380,82.0146
149.2658,82.1546
149.3343,82.3199
149.4337,82.4687
149.5603,82.5953
149.7091,82.6947
149.8744,82.7632
150.0499,82.7981
150.0499,82.7981
150.2289,82.7981
150.2289,82.7981
150.4044,82.7632
150.5697,82.6947
150.7185,82.5953
150.8451,82.4687
150.9445,82.3199
151.0130,82.1546
151.0479,81.9791
151.0479,81.8001
151.0130,81.6246
150.9445,81.4593
150.8451,81.3105
150.7185,81.1839
150.5697,81.0845
150.5191,81.0635
159.7719,81.0635
159.7719,81.2425
159.7854,81.3105
159.8068,81.4180
159.8753,81.5833
159.9747,81.7321
160.1013,81.8587
160.2501,81.9581
160.4154,82.0266
160.5909,82.0615
160.5909,82.0615
160.7699,82.0615
160.7699,82.0615
160.9454,82.0266
161.1107,81.9581
161.2595,81.8587
161.3861,81.7321
161.4855,81.5833
161.5540,81.4180
161.5889,81.2425
161.5889,81.0635
161.5540,80.8880
161.4855,80.7227
161.3861,80.5739
161.2595,80.4473
161.1107,80.3479
160.9858,80.2961
160.9454,80.2794
160.9454,80.2794
160.9454,80.2794
160.8363,80.2577
160.7699,80.2445
160.7699,80.2445
160.5909,80.2445
160.5909,80.2445
160.4602,80.2705
160.4154,80.2794
160.4154,80.2794
160.4154,80.2794
160.2501,80.3479
160.1013,80.4473
160.1013,80.4473
159.9747,80.5739
159.9747,80.5739
159.8771,80.7200
159.8753,80.7227
159.8611,80.7569
159.8068,80.8880
159.8068,80.8880
159.8068,80.8880
159.8006,80.9193
159.7719,81.0635
150.5191,81.0635
150.4285,81.0260
150.4044,81.0160
150.4044,81.0160
150.4044,81.0160
150.3160,80.9984
150.2289,80.9811
150.2289,80.9811
150.0499,80.9811
150.0499,80.9811
149.9192,81.0071
149.8744,81.0160
149.8744,81.0160
149.8744,81.0160
149.7597,81.0635
149.7180,81.0808
149.7091,81.0845
149.5603,81.1839
149.5603,81.1839
149.4337,81.3105
149.4337,81.3105
149.3343,81.4593
149.2658,81.6246
149.2309,81.8001
142.2373,81.8001
142.2290,81.7745
142.1319,81.5840
142.0062,81.4110
142.0062,81.4110
142.0062,81.4110
141.8550,81.2598
141.8550,81.2598
141.8550,81.2598
141.6820,81.1341
141.6820,81.1341
141.6809,81.1334
141.6806,81.1331
141.6780,81.1312
141.6784,81.1307
141.6333,81.0808
141.6217,81.0108
141.6498,80.9456
141.6781,80.9210
141.6780,80.9208
141.6800,80.9193
141.6809,80.9186
141.6820,80.9179
141.6820,80.9179
141.8550,80.7922
142.0062,80.6410
142.1319,80.4680
142.2290,80.2775
142.2950,80.0741
142.2952,80.0729
164.8265,80.0729
164.8265,80.2519
164.8353,80.2961
164.8589,80.4149
164.8614,80.4274
164.8746,80.4592
164.9299,80.5927
165.0293,80.7415
165.1559,80.8681
165.3047,80.9675
165.4700,81.0360
165.6455,81.0709
165.6455,81.0709
165.8245,81.0709
165.8245,81.0709
166.0000,81.0360
166.1653,80.9675
166.3141,80.8681
166.4407,80.7415
166.5401,80.5927
166.6086,80.4274
166.6286,80.3269
169.5509,80.3269
169.5509,80.5059
169.5644,80.5739
169.5858,80.6814
169.6543,80.8467
169.7537,80.9955
169.8803,81.1221
170.0291,81.2215
170.1944,81.2900
170.3699,81.3249
170.3699,81.3249
170.5489,81.3249
170.5489,81.3249
170.7244,81.2900
170.8897,81.2215
171.0385,81.1221
171.1651,80.9955
171.2645,80.8467
171.3314,80.6853
172.1735,80.6853
172.1735,82.3826
172.1800,82.4432
172.1800,82.4432
172.2311,82.5802
172.2311,82.5802
172.3187,82.6973
172.4358,82.7849
172.4358,82.7849
172.4358,82.7849
172.4712,82.7981
172.5761,82.8372
172.6329,82.8798
172.6577,82.9463
172.6426,83.0157
172.6211,83.0444
172.4839,83.1816
172.3629,83.3482
172.2694,83.5317
172.2694,83.5317
172.2057,83.7276
172.2057,83.7276
172.2057,83.7276
172.1735,83.9310
172.1735,84.1370
172.2016,84.3145
172.2057,84.3404
172.2634,84.5179
172.2694,84.5363
172.3629,84.7198
172.4839,84.8864
172.4839,84.8864
172.4839,84.8864
172.6296,85.0321
172.6296,85.0321
172.6296,85.0321
172.7962,85.1531
172.9797,85.2466
173.1756,85.3103
173.3790,85.3425
173.3790,85.3425
173.5850,85.3425
173.5850,85.3425
173.7884,85.3103
173.9843,85.2466
174.1678,85.1531
174.3344,85.0321
174.3344,85.0321
174.3929,84.9736
174.4552,84.9396
174.5260,84.9446
174.5711,84.9736
174.6296,85.0321
174.6296,85.0321
174.6296,85.0321
174.7962,85.1531
174.9797,85.2466
175.1756,85.3103
175.3790,85.3425
175.3790,85.3425
175.5850,85.3425
175.5850,85.3425
175.7884,85.3103
175.9843,85.2466
176.1678,85.1531
176.3344,85.0321
176.4801,84.8864
176.6011,84.7198
176.6946,84.5363
176.7583,84.3404
176.7905,84.1370
176.7905,83.9310
176.7583,83.7276
176.6946,83.5317
176.6011,83.3482
176.4801,83.1816
176.4801,83.1816
176.4801,83.1816
176.3344,83.0359
176.3344,83.0359
176.3344,83.0359
176.1678,82.9149
176.1313,82.8963
176.0797,82.8475
176.0626,82.7786
176.0855,82.7114
176.1313,82.6717
176.1678,82.6531
176.3344,82.5321
176.4801,82.3864
176.6011,82.2198
176.6946,82.0363
176.7583,81.8404
176.7905,81.6370
176.7905,81.4310
176.7583,81.2276
176.6946,81.0317
176.6011,80.8482
176.4801,80.6816
176.4801,80.6816
176.4801,80.6816
176.3344,80.5359
176.3344,80.5359
176.3344,80.5359
176.1678,80.4149
175.9843,80.3214
175.9843,80.3214
175.9843,80.3214
175.7884,80.2577
175.7884,80.2577
175.7884,80.2577
175.5850,80.2255
175.3790,80.2255
175.1756,80.2577
175.1756,80.2577
175.1756,80.2577
174.9797,80.3214
174.9797,80.3214
174.8054,80.4102
174.7356,80.4233
174.6698,80.3966
174.6473,80.3734
174.6453,80.3707
174.5282,80.2831
174.5282,80.2831
174.3912,80.2320
174.3912,80.2320
174.3306,80.2255
174.3306,80.2255
172.6334,80.2255
172.6333,80.2255
172.5728,80.2320
172.5728,80.2320
172.4358,80.2831
172.4358,80.2831
172.3187,80.3707
172.2311,80.4878
172.2311,80.4878
172.1800,80.6248
172.1800,80.6248
172.1735,80.6853
171.3314,80.6853
171.3330,80.6814
171.3679,80.5059
171.3679,80.3269
171.3330,80.1514
171.2645,79.9861
171.1651,79.8373
171.0385,79.7107
170.8897,79.6113
170.7728,79.5629
170.7244,79.5428
170.7244,79.5428
170.7244,79.5428
170.6360,79.5252
170.5489,79.5079
170.5489,79.5079
170.3699,79.5079
170.3699,79.5079
170.2392,79.5339
170.1944,79.5428
170.1944,79.5428
170.1944,79.5428
170.0291,79.6113
169.8803,79.7107
169.8803,79.7107
169.7537,79.8373
169.7537,79.8373
169.6543,79.9861
169.5858,80.1514
169.5509,80.3269
166.6286,80.3269
166.6435,80.2519
166.6435,80.0729
166.6086,79.8974
166.5401,79.7321
166.4407,79.5833
166.3141,79.4567
166.1653,79.3573
166.0484,79.3089
166.0000,79.2888
166.0000,79.2888
166.0000,79.2888
165.9116,79.2712
165.8245,79.2539
165.8245,79.2539
165.6455,79.2539
165.6455,79.2539
165.5148,79.2799
165.4700,79.2888
165.4700,79.2888
165.4700,79.2888
165.3047,79.3573
165.1559,79.4567
165.1559,79.4567
165.0293,79.5833
165.0293,79.5833
164.9299,79.7321
164.8614,79.8974
164.8265,80.0729
142.2952,80.0729
142.3285,79.8629
142.3285,79.6491
142.2950,79.4379
142.2290,79.2345
142.1319,79.0440
142.0062,78.8710
142.0062,78.8710
142.0062,78.8710
141.9032,78.7680
141.8692,78.7057
141.8743,78.6349
141.9168,78.5781
141.9483,78.5609
142.0662,78.5169
142.1833,78.4293
142.2709,78.3122
142.3220,78.1752
142.3260,78.1379
142.3285,78.1146
142.3285,78.1146
142.3285,76.3174
142.3285,76.3173
142.3220,76.2568
142.3220,76.2568
142.2709,76.1198
142.2709,76.1198
142.1833,76.0027
142.0662,75.9151
142.0662,75.9151
141.9292,75.8640
141.9292,75.8640
141.8686,75.8575
141.8686,75.8575
140.0714,75.8575
140.0713,75.8575
140.0108,75.8640
140.0108,75.8640
139.8738,75.9151
139.8738,75.9151
139.7567,76.0027
139.6691,76.1198
139.6691,76.1198
139.6180,76.2568
139.6180,76.2568
139.6115,76.3173
137.4972,76.3173
137.4619,76.2480
137.3362,76.0750
137.3362,76.0750
137.3362,76.0750
137.1850,75.9238
137.1850,75.9238
137.1850,75.9238
137.0120,75.7981
137.0107,75.7974
137.0063,75.7944
136.9853,75.7691
136.9633,75.7448
136.9628,75.7420
136.9610,75.7397
136.9570,75.7071
136.9565,75.7041
153.4473,75.7041
153.4473,75.8831
153.4554,75.9238
153.4811,76.0531
153.4822,76.0586
153.4946,76.0885
153.5507,76.2239
153.6501,76.3727
153.7767,76.4993
153.9255,76.5987
154.0908,76.6672
154.2663,76.7021
154.2663,76.7021
154.4453,76.7021
154.4453,76.7021
154.6101,76.6693
162.9215,76.6693
162.9215,76.8483
162.9564,77.0238
162.9743,77.0669
163.0249,77.1891
163.1243,77.3379
163.2509,77.4645
163.3997,77.5639
163.5650,77.6324
163.7405,77.6673
163.7405,77.6673
163.9195,77.6673
163.9195,77.6673
164.0950,77.6324
164.2603,77.5639
164.4091,77.4645
164.5357,77.3379
164.6351,77.1891
164.7036,77.0238
164.7385,76.8483
164.7385,76.6693
164.7333,76.6431
175.8335,76.6431
175.8335,76.9249
175.8650,77.2049
175.9277,77.4795
176.0208,77.7455
176.0208,77.7455
176.1430,77.9993
176.2929,78.2379
176.4686,78.4582
176.6678,78.6574
176.8881,78.8331
177.1267,78.9830
177.1267,78.9830
177.1267,78.9830
177.3805,79.1052
177.3805,79.1052
177.3805,79.1052
177.6465,79.1983
177.6465,79.1983
177.6465,79.1983
177.9211,79.2610
177.9211,79.2610
177.9211,79.2610
178.0863,79.2796
178.2011,79.2925
178.2011,79.2925
178.4829,79.2925
178.5540,79.2845
178.7629,79.2610
179.0375,79.1983
179.3035,79.1052
179.5573,78.9830
179.7959,78.8331
179.9508,78.7095
180.0162,78.6574
180.2154,78.4582
180.3911,78.2379
180.4024,78.2199
180.5410,77.9993
180.6632,77.7455
180.7413,77.5223
180.7563,77.4795
180.7563,77.4795
180.7563,77.4795
180.8190,77.2049
180.8505,76.9249
180.8505,76.6431
180.8504,76.6419
180.8343,76.4993
180.8190,76.3631
180.7563,76.0885
180.7515,76.0750
180.6632,75.8225
180.6632,75.8225
180.6632,75.8225
180.5410,75.5687
180.5410,75.5687
180.5410,75.5687
180.3911,75.3301
180.2154,75.1098
180.0162,74.9106
179.7959,74.7349
179.5573,74.5850
179.3035,74.4628
179.3035,74.4628
179.3035,74.4628
179.3035,74.4628
179.3035,74.4628
179.0375,74.3697
178.7629,74.3070
178.7629,74.3070
178.4829,74.2755
178.4829,74.2755
178.2011,74.2755
178.2011,74.2755
177.9211,74.3070
177.6465,74.3697
177.3805,74.4628
177.3805,74.4628
177.1267,74.5850
176.8881,74.7349
176.6678,74.9106
176.4686,75.1098
176.2929,75.3301
176.1430,75.5687
176.0208,75.8225
176.0208,75.8225
175.9277,76.0885
175.8650,76.3631
175.8335,76.6431
164.7333,76.6431
164.7036,76.4938
164.6351,76.3285
164.5357,76.1797
164.4091,76.0531
164.2603,75.9537
164.1434,75.9053
164.0950,75.8852
164.0950,75.8852
164.0950,75.8852
164.0066,75.8676
163.9195,75.8503
163.9195,75.8503
163.7405,75.8503
163.7405,75.8503
163.6098,75.8763
163.5650,75.8852
163.5650,75.8852
163.5650,75.8852
163.3997,75.9537
163.2509,76.0531
163.2509,76.0531
163.1243,76.1797
163.1243,76.1797
163.0249,76.3285
162.9564,76.4938
162.9564,76.4938
162.9564,76.4938
162.9553,76.4993
162.9215,76.6693
154.6101,76.6693
154.6208,76.6672
154.7861,76.5987
154.9349,76.4993
155.0615,76.3727
155.1609,76.2239
155.2294,76.0586
155.2643,75.8831
155.2643,75.7041
155.2294,75.5286
155.1609,75.3633
155.0615,75.2145
154.9349,75.0879
154.7861,74.9885
154.6692,74.9401
154.6208,74.9200
154.6208,74.9200
154.6208,74.9200
154.5324,74.9024
154.4453,74.8851
154.4453,74.8851
154.2663,74.8851
154.2663,74.8851
154.1356,74.9111
154.0908,74.9200
154.0908,74.9200
154.0908,74.9200
153.9255,74.9885
153.7767,75.0879
153.7767,75.0879
153.6501,75.2145
153.6501,75.2145
153.5507,75.3633
153.4822,75.5286
153.4473,75.7041
136.9565,75.7041
136.9517,75.6748
136.9528,75.6721
136.9525,75.6693
136.9668,75.6397
136.9798,75.6096
136.9825,75.6072
136.9834,75.6054
136.9875,75.6029
137.0081,75.5850
137.0080,75.5848
137.0100,75.5833
137.0109,75.5826
137.0120,75.5819
137.0120,75.5819
137.1850,75.4562
137.3362,75.3050
137.4619,75.1320
137.5590,74.9415
137.6250,74.7381
137.6585,74.5269
137.6585,74.3131
137.6250,74.1019
137.5590,73.8985
137.4619,73.7080
137.3362,73.5350
137.3362,73.5350
137.3362,73.5350
137.1850,73.3838
137.1850,73.3838
137.1850,73.3838
137.0120,73.2581
137.0120,73.2581
137.0109,73.2574
137.0106,73.2571
137.0080,73.2552
137.0084,73.2547
136.9633,73.2048
136.9517,73.1348
136.9798,73.0696
137.0081,73.0450
137.0080,73.0448
137.0100,73.0433
137.0109,73.0426
137.0120,73.0419
137.0120,73.0419
137.1850,72.9162
137.3362,72.7650
137.4619,72.5920
137.5590,72.4015
137.6250,72.1981
137.6585,71.9869
137.6585,71.7731
137.6250,71.5619
137.5590,71.3585
137.4619,71.1680
137.3362,70.9950
137.3362,70.9950
137.3362,70.9950
137.1850,70.8438
137.1850,70.8438
137.1850,70.8438
137.0548,70.7492
137.0120,70.7181
137.0109,70.7174
137.0106,70.7171
137.0080,70.7152
137.0084,70.7147
136.9633,70.6648
136.9517,70.5948
136.9798,70.5296
137.0081,70.5050
137.0080,70.5048
137.0100,70.5033
137.0109,70.5026
137.0120,70.5019
137.0120,70.5019
137.1850,70.3762
137.3362,70.2250
137.4619,70.0520
137.4939,69.9891
154.1331,69.9891
154.1331,69.9891
154.1331,70.1681
154.1680,70.3436
154.2365,70.5089
154.3359,70.6577
154.4625,70.7843
154.6113,70.8837
154.7766,70.9522
154.9521,70.9871
154.9521,70.9871
155.1311,70.9871
155.1311,70.9871
155.3066,70.9522
155.4719,70.8837
155.6207,70.7843
155.7473,70.6577
155.8467,70.5089
155.9152,70.3436
155.9501,70.1681
155.9501,69.9891
155.9349,69.9129
161.8547,69.9129
161.8547,70.0919
161.8699,70.1681
161.8896,70.2674
161.9581,70.4327
162.0575,70.5815
162.1841,70.7081
162.3329,70.8075
162.4982,70.8760
162.6737,70.9109
162.6737,70.9109
162.8527,70.9109
162.8527,70.9109
163.0282,70.8760
163.1935,70.8075
163.3423,70.7081
163.4689,70.5815
163.5683,70.4327
163.6368,70.2674
163.6717,70.0919
163.6717,69.9129
163.6368,69.7374
163.5683,69.5721
163.4689,69.4233
163.4197,69.3740
175.3995,69.3740
175.3995,69.6260
175.4389,69.8748
175.4389,69.8748
175.5094,70.0919
175.5168,70.1144
175.6311,70.3388
175.7792,70.5427
175.7792,70.5427
175.7792,70.5427
175.9573,70.7208
175.9573,70.7208
175.9573,70.7208
176.1612,70.8689
176.3856,70.9832
176.6252,71.0611
176.8740,71.1005
176.8740,71.1005
177.1260,71.1005
177.1260,71.1005
177.3748,71.0611
177.6144,70.9832
177.8388,70.8689
178.0427,70.7208
178.2208,70.5427
178.3689,70.3388
178.4832,70.1144
178.5611,69.8748
178.6005,69.6260
178.6005,69.3740
178.5611,69.1252
178.4832,68.8856
178.3689,68.6612
178.2208,68.4573
178.2208,68.4573
178.2208,68.4573
178.0427,68.2792
178.0427,68.2792
178.0427,68.2792
177.8388,68.1311
177.6144,68.0168
177.6144,68.0168
177.6144,68.0168
177.3748,67.9389
177.3748,67.9389
177.3748,67.9389
177.1260,67.8995
176.8740,67.8995
176.6252,67.9389
176.6252,67.9389
176.3856,68.0168
176.3856,68.0168
176.1612,68.1311
175.9573,68.2792
175.9573,68.2792
175.7792,68.4573
175.7792,68.4573
175.6311,68.6612
175.5168,68.8856
175.5168,68.8856
175.4389,69.1252
175.4389,69.1252
175.4389,69.1252
175.3995,69.3740
163.4197,69.3740
163.3423,69.2967
163.1935,69.1973
163.0766,69.1489
163.0282,69.1288
163.0282,69.1288
163.0282,69.1288
162.9398,69.1112
162.8527,69.0939
162.8527,69.0939
162.6737,69.0939
162.6737,69.0939
162.5430,69.1199
162.4982,69.1288
162.4982,69.1288
162.4982,69.1288
162.3329,69.1973
162.1841,69.2967
162.1841,69.2967
162.0575,69.4233
162.0575,69.4233
161.9581,69.5721
161.8896,69.7374
161.8547,69.9129
155.9349,69.9129
155.9152,69.8136
155.9152,69.8136
155.9034,69.7852
155.8467,69.6483
155.7473,69.4995
155.6207,69.3729
155.4719,69.2735
155.3550,69.2251
155.3066,69.2050
155.3066,69.2050
155.3066,69.2050
155.2182,69.1874
155.1311,69.1701
155.1311,69.1701
154.9521,69.1701
154.9521,69.1701
154.8214,69.1961
154.7766,69.2050
154.7766,69.2050
154.7766,69.2050
154.6113,69.2735
154.4625,69.3729
154.4625,69.3729
154.3359,69.4995
154.3359,69.4995
154.2365,69.6483
154.1680,69.8136
154.1331,69.9891
137.4939,69.9891
137.5590,69.8615
137.6250,69.6581
137.6585,69.4469
137.6585,69.2331
137.6250,69.0219
137.5590,68.8185
137.4619,68.6280
137.3362,68.4550
137.3362,68.4550
137.3362,68.4550
137.1850,68.3038
137.1850,68.3038
137.1850,68.3038
137.0120,68.1781
136.8215,68.0810
136.8215,68.0810
136.8215,68.0810
136.6181,68.0150
136.6181,68.0150
136.5788,68.0087
136.4069,67.9815
136.1931,67.9815
135.9819,68.0150
135.9819,68.0150
135.7785,68.0810
135.7785,68.0810
135.5880,68.1781
135.4150,68.3038
135.4150,68.3038
135.2638,68.4550
135.2638,68.4550
135.1381,68.6280
135.0410,68.8185
135.0410,68.8185
134.9750,69.0219
134.9750,69.0219
134.9750,69.0219
134.9415,69.2331
124.5782,69.2331
124.5611,69.1252
124.4832,68.8856
124.3689,68.6612
124.2208,68.4573
124.2208,68.4573
124.2208,68.4573
124.0427,68.2792
124.0427,68.2792
124.0427,68.2792
123.8388,68.1311
123.6144,68.0168
123.6144,68.0168
123.6144,68.0168
123.3748,67.9389
123.3748,67.9389
123.3748,67.9389
123.1260,67.8995
122.8740,67.8995
122.6252,67.9389
122.6252,67.9389
122.3856,68.0168
122.3856,68.0168
122.1612,68.1311
121.9573,68.2792
121.9573,68.2792
121.7792,68.4573
121.7792,68.4573
121.6311,68.6612
121.5168,68.8856
121.5168,68.8856
121.4389,69.1252
121.4389,69.1252
121.4389,69.1252
121.3995,69.3740
119.0255,69.3740
119.0255,65.8515
119.0455,65.7834
119.0992,65.7369
119.1515,65.7255
181.8485,65.7255
Z" /> 
</g>
<g style="fill:#FFFFFF; fill-opacity:1.0000; stroke:none;">
<circle cx="154.3558" cy="75.7936" r="0.2000" /> 
</g>
<g style="fill:#FFFFFF; fill-opacity:1.0000; stroke:none;">
<circle cx="123.1138" cy="73.3298" r="0.2000" /> 
</g>
<g style="fill:#FFFFFF; fill-opacity:1.0000; stroke:none;">
<circle cx="129.1082" cy="77.9526" r="0.2000" /> 
</g>
<g style="fill:#FFFFFF; fill-opacity:1.0000; stroke:none;">
<circle cx="167.2590" cy="97.9424" r="0.2000" /> 
</g>
<g style="fill:#FFFFFF; fill-opacity:1.0000; stroke:none;">
<circle cx="155.6766" cy="83.0580" r="0.2000" /> 
</g>
<g style="fill:#FFFFFF; fill-opacity:1.0000; stroke:none;">
<circle cx="163.8300" cy="76.7588" r="0.2000" /> 
</g>
<g style="fill:#FFFFFF; fill-opacity:1.0000; stroke:none;">
<circle cx="125.3490" cy="90.9066" r="0.2000" /> 
</g>
<g style="fill:#FFFFFF; fill-opacity:1.0000; stroke:none;">
<circle cx="130.8100" cy="95.3516" r="0.2000" /> 
</g>
<g style="fill:#FFFFFF; fill-opacity:1.0000; stroke:none;">
<circle cx="129.0828" cy="73.3806" r="0.2000" /> 
</g>
<g style="fill:#FFFFFF; fill-opacity:1.0000; stroke:none;">
<circle cx="144.8308" cy="85.0646" r="0.2000" /> 
</g>
<g style="fill:#FFFFFF; fill-opacity:1.0000; stroke:none;">
<circle cx="123.0884" cy="78.1304" r="0.2000" /> 
</g>
<g style="fill:#FFFFFF; fill-opacity:1.0000; stroke:none;">
<circle cx="159.8422" cy="98.6028" r="0.2000" /> 
</g>
<g style="fill:#FFFFFF; fill-opacity:1.0000; stroke:none;">
<circle cx="154.5336" cy="83.2866" r="0.2000" /> 
</g>
<g style="fill:#FFFFFF; fill-opacity:1.0000; stroke:none;">
<circle cx="146.0246" cy="69.2404" r="0.2000" /> 
</g>
<g style="fill:#FFFFFF; fill-opacity:1.0000; stroke:none;">
<circle cx="159.1818" cy="81.9658" r="0.2000" /> 
</g>
<g style="fill:#FFFFFF; fill-opacity:1.0000; stroke:none;">
<circle cx="130.8354" cy="88.9000" r="0.2000" /> 
</g>
<g style="fill:#FFFFFF; fill-opacity:1.0000; stroke:none;">
<circle cx="129.1082" cy="84.3026" r="0.2000" /> 
</g>
<g style="fill:#FFFFFF; fill-opacity:1.0000; stroke:none;">
<circle cx="121.5644" cy="89.3318" r="0.2000" /> 
</g>
<g style="fill:#FFFFFF; fill-opacity:1.0000; stroke:none;">
<circle cx="123.1392" cy="84.4042" r="0.2000" /> 
</g>
<g style="fill:#FFFFFF; fill-opacity:1.0000; stroke:none;">
<circle cx="162.7632" cy="70.0024" r="0.2000" /> 
</g>
<g style="fill:#FFFFFF; fill-opacity:1.0000; stroke:none;">
<circle cx="155.0416" cy="70.0786" r="0.2000" /> 
</g>
<g style="fill:#FFFFFF; fill-opacity:1.0000; stroke:none;">
<circle cx="160.6804" cy="81.1530" r="0.2000" /> 
</g>
<g style="fill:#FFFFFF; fill-opacity:1.0000; stroke:none;">
<circle cx="166.8780" cy="88.7730" r="0.2000" /> 
</g>
<g style="fill:#FFFFFF; fill-opacity:1.0000; stroke:none;">
<circle cx="160.5534" cy="86.2330" r="0.2000" /> 
</g>
<g style="fill:#FFFFFF; fill-opacity:1.0000; stroke:none;">
<circle cx="167.2336" cy="93.5228" r="0.2000" /> 
</g>
<g style="fill:#FFFFFF; fill-opacity:1.0000; stroke:none;">
<circle cx="165.0492" cy="90.4494" r="0.2000" /> 
</g>
<g style="fill:#FFFFFF; fill-opacity:1.0000; stroke:none;">
<circle cx="165.7350" cy="80.1624" r="0.2000" /> 
</g>
<g style="fill:#FFFFFF; fill-opacity:1.0000; stroke:none;">
<circle cx="170.4594" cy="80.4164" r="0.2000" /> 
</g>
<g style="fill:#FFFFFF; fill-opacity:1.0000; stroke:none;">
<circle cx="172.3898" cy="88.1380" r="0.2000" /> 
</g>
<g style="fill:#FFFFFF; fill-opacity:1.0000; stroke:none;">
<circle cx="170.5610" cy="90.6780" r="0.2000" /> 
</g>
<g style="fill:#FFFFFF; fill-opacity:1.0000; stroke:none;">
<circle cx="156.8958" cy="87.5538" r="0.2000" /> 
</g>
<g style="fill:#FFFFFF; fill-opacity:1.0000; stroke:none;">
<circle cx="156.1592" cy="88.3920" r="0.2000" /> 
</g>
<g style="fill:#FFFFFF; fill-opacity:1.0000; stroke:none;">
<circle cx="156.2862" cy="91.6940" r="0.2000" /> 
</g>
<g style="fill:#FFFFFF; fill-opacity:1.0000; stroke:none;">
<circle cx="155.0670" cy="88.5952" r="0.2000" /> 
</g>
<g style="fill:#FFFFFF; fill-opacity:1.0000; stroke:none;">
<circle cx="150.1394" cy="81.8896" r="0.2000" /> 
</g>
<g style="fill:#FFFFFF; fill-opacity:1.0000; stroke:none;">
<circle cx="152.0698" cy="87.2236" r="0.2000" /> 
</g>
<g style="fill:#FFFFFF; fill-opacity:1.0000; stroke:none;">
<circle cx="152.6794" cy="88.3158" r="0.2000" /> 
</g>
<g style="fill:#FFFFFF; fill-opacity:1.0000; stroke:none;">
<circle cx="151.6891" cy="85.8520" r="0.2000" /> 
</g>
<g style="fill:#FFFFFF; fill-opacity:1.0000; stroke:none;">
<circle cx="148.5951" cy="85.3897" r="0.2000" /> 
</g>
<g style="fill:#FFFFFF; fill-opacity:1.0000; stroke:none;">
<circle cx="155.9560" cy="85.7758" r="0.2000" /> 
</g>
<g style="fill:#FFFFFF; fill-opacity:1.0000; stroke:none;">
<circle cx="177.0000" cy="97.0000" r="1.3500" /> 
</g>
<g style="fill:#FFFFFF; fill-opacity:1.0000; stroke:none;">
<circle cx="123.0000" cy="97.0000" r="1.3500" /> 
</g>
<g style="fill:#FFFFFF; fill-opacity:1.0000; stroke:none;">
<circle cx="123.0000" cy="69.5000" r="1.3500" /> 
</g>
<g style="fill:#FFFFFF; fill-opacity:1.0000; stroke:none;">
<circle cx="177.0000" cy="69.5000" r="1.3500" /> 
</g>
<g style="fill:none; 
stroke:#FFFFFF; stroke-width:1.5000; stroke-opacity:1; 
stroke-linecap:round; stroke-linejoin:round;">
<path d="M123.2000 81.4500
L123.2000 80.9500
" />
</g>
<g style="fill:#FFFFFF; fill-opacity:1.0000; stroke:none;">
<circle cx="127.6000" cy="81.2000" r="1.0000" /> 
</g>
<g style="fill:#FFFFFF; fill-opacity:1.0000; stroke:none;">
<circle cx="136.3000" cy="79.5000" r="0.5000" /> 
</g>
<g style="fill:#FFFFFF; fill-opacity:1.0000; stroke:none;">
<circle cx="136.3000" cy="76.9600" r="0.5000" /> 
</g>
<g style="fill:#FFFFFF; fill-opacity:1.0000; stroke:none;">
<circle cx="136.3000" cy="74.4200" r="0.5000" /> 
</g>
<g style="fill:#FFFFFF; fill-opacity:1.0000; stroke:none;">
<circle cx="136.3000" cy="71.8800" r="0.5000" /> 
</g>
<g style="fill:#FFFFFF; fill-opacity:1.0000; stroke:none;">
<circle cx="136.3000" cy="69.3400" r="0.5000" /> 
</g>
<g style="fill:#FFFFFF; fill-opacity:1.0000; stroke:none;">
<circle cx="151.8920" cy="95.2500" r="0.5000" /> 
</g>
<g style="fill:#FFFFFF; fill-opacity:1.0000; stroke:none;">
<circle cx="154.4320" cy="95.2500" r="0.5000" /> 
</g>
<g style="fill:#FFFFFF; fill-opacity:1.0000; stroke:none;">
<circle cx="151.8920" cy="97.7900" r="0.5000" /> 
</g>
<g style="fill:#FFFFFF; fill-opacity:1.0000; stroke:none;">
<circle cx="154.4320" cy="97.7900" r="0.5000" /> 
</g>
<g style="fill:#FFFFFF; fill-opacity:1.0000; stroke:none;">
<circle cx="141.1224" cy="97.7646" r="0.5000" /> 
</g>
<g style="fill:#FFFFFF; fill-opacity:1.0000; stroke:none;">
<circle cx="141.1224" cy="95.2246" r="0.5000" /> 
</g>
<g style="fill:#FFFFFF; fill-opacity:1.0000; stroke:none;">
<circle cx="143.6624" cy="97.7646" r="0.5000" /> 
</g>
<g style="fill:#FFFFFF; fill-opacity:1.0000; stroke:none;">
<circle cx="143.6624" cy="95.2246" r="0.5000" /> 
</g>
<g style="fill:#FFFFFF; fill-opacity:1.0000; stroke:none;">
<circle cx="146.2024" cy="97.7646" r="0.5000" /> 
</g>
<g style="fill:#FFFFFF; fill-opacity:1.0000; stroke:none;">
<circle cx="146.2024" cy="95.2246" r="0.5000" /> 
</g>
<g style="fill:#FFFFFF; fill-opacity:1.0000; stroke:none;">
<circle cx="140.9700" cy="77.2160" r="0.5000" /> 
</g>
<g style="fill:#FFFFFF; fill-opacity:1.0000; stroke:none;">
<circle cx="140.9700" cy="79.7560" r="0.5000" /> 
</g>
<g style="fill:#FFFFFF; fill-opacity:1.0000; stroke:none;">
<circle cx="140.9700" cy="82.2960" r="0.5000" /> 
</g>
<g style="fill:#FFFFFF; fill-opacity:1.0000; stroke:none;">
<circle cx="140.9700" cy="84.8360" r="0.5000" /> 
</g>
<g style="fill:#FFFFFF; fill-opacity:1.0000; stroke:none;">
<circle cx="140.9700" cy="87.3760" r="0.5000" /> 
</g>
<g style="fill:#FFFFFF; fill-opacity:1.0000; stroke:none;">
<circle cx="140.9700" cy="89.9160" r="0.5000" /> 
</g>
<g style="fill:#FFFFFF; fill-opacity:1.0000; stroke:none;">
<circle cx="173.4820" cy="81.5340" r="0.4750" /> 
</g>
<g style="fill:#FFFFFF; fill-opacity:1.0000; stroke:none;">
<circle cx="173.4820" cy="84.0340" r="0.4750" /> 
</g>
<g style="fill:#FFFFFF; fill-opacity:1.0000; stroke:none;">
<circle cx="175.4820" cy="84.0340" r="0.4750" /> 
</g>
<g style="fill:#FFFFFF; fill-opacity:1.0000; stroke:none;">
<circle cx="175.4820" cy="81.5340" r="0.4750" /> 
</g>
<g style="fill:#FFFFFF; fill-opacity:1.0000; stroke:none;">
<circle cx="178.3420" cy="76.7840" r="1.1500" /> 
</g>
<g style="fill:#FFFFFF; fill-opacity:1.0000; stroke:none;">
<circle cx="178.3420" cy="88.7840" r="1.1500" /> 
</g> 
</svg>
