<?xml version="1.0" standalone="no"?>
 <!DOCTYPE svg PUBLIC "-//W3C//DTD SVG 1.1//EN" 
 "http://www.w3.org/Graphics/SVG/1.1/DTD/svg11.dtd"> 
<svg
  xmlns:svg="http://www.w3.org/2000/svg"
  xmlns="http://www.w3.org/2000/svg"
  xmlns:xlink="http://www.w3.org/1999/xlink"
  version="1.1"
  width="297.0022mm" height="210.0072mm" viewBox="0.0000 0.0000 297.0022 210.0072">
<title>SVG Image created as t1-B_Fab0.svg date 2025/04/03 15:51:34 </title>
  <desc>Image generated by PCBNEW </desc>
<g style="fill:#000000; fill-opacity:1.0000;stroke:#000000; stroke-opacity:1.0000;
stroke-linecap:round; stroke-linejoin:round;"
 transform="translate(0 0) scale(1 1)">
</g>
<g style="fill:none; 
stroke:#000000; stroke-width:0.1500; stroke-opacity:1; 
stroke-linecap:round; stroke-linejoin:round;">
<text x="131.1656" y="78.8336"
textLength="7.1071" font-size="1.3333" lengthAdjust="spacingAndGlyphs"
text-anchor="middle" opacity="0" stroke-opacity="0">TestPoint</text>
<g class="stroked-text"><desc>TestPoint</desc>
<path d="M127.8323 77.7884
L128.4037 77.7884
" />
<path d="M128.1180 78.7884
L128.1180 77.7884
" />
<path d="M129.1180 78.7408
L129.0227 78.7884
" />
<path d="M129.0227 78.7884
L128.8323 78.7884
" />
<path d="M128.8323 78.7884
L128.7370 78.7408
" />
<path d="M128.7370 78.7408
L128.6894 78.6456
" />
<path d="M128.6894 78.6456
L128.6894 78.2646
" />
<path d="M128.6894 78.2646
L128.7370 78.1694
" />
<path d="M128.7370 78.1694
L128.8323 78.1218
" />
<path d="M128.8323 78.1218
L129.0227 78.1218
" />
<path d="M129.0227 78.1218
L129.1180 78.1694
" />
<path d="M129.1180 78.1694
L129.1656 78.2646
" />
<path d="M129.1656 78.2646
L129.1656 78.3598
" />
<path d="M129.1656 78.3598
L128.6894 78.4551
" />
<path d="M129.5466 78.7408
L129.6418 78.7884
" />
<path d="M129.6418 78.7884
L129.8323 78.7884
" />
<path d="M129.8323 78.7884
L129.9275 78.7408
" />
<path d="M129.9275 78.7408
L129.9751 78.6456
" />
<path d="M129.9751 78.6456
L129.9751 78.5979
" />
<path d="M129.9751 78.5979
L129.9275 78.5027
" />
<path d="M129.9275 78.5027
L129.8323 78.4551
" />
<path d="M129.8323 78.4551
L129.6894 78.4551
" />
<path d="M129.6894 78.4551
L129.5942 78.4075
" />
<path d="M129.5942 78.4075
L129.5466 78.3122
" />
<path d="M129.5466 78.3122
L129.5466 78.2646
" />
<path d="M129.5466 78.2646
L129.5942 78.1694
" />
<path d="M129.5942 78.1694
L129.6894 78.1218
" />
<path d="M129.6894 78.1218
L129.8323 78.1218
" />
<path d="M129.8323 78.1218
L129.9275 78.1694
" />
<path d="M130.2608 78.1218
L130.6418 78.1218
" />
<path d="M130.4037 77.7884
L130.4037 78.6456
" />
<path d="M130.4037 78.6456
L130.4513 78.7408
" />
<path d="M130.4513 78.7408
L130.5466 78.7884
" />
<path d="M130.5466 78.7884
L130.6418 78.7884
" />
<path d="M130.9751 78.7884
L130.9751 77.7884
" />
<path d="M130.9751 77.7884
L131.3561 77.7884
" />
<path d="M131.3561 77.7884
L131.4513 77.8360
" />
<path d="M131.4513 77.8360
L131.4989 77.8837
" />
<path d="M131.4989 77.8837
L131.5466 77.9789
" />
<path d="M131.5466 77.9789
L131.5466 78.1218
" />
<path d="M131.5466 78.1218
L131.4989 78.2170
" />
<path d="M131.4989 78.2170
L131.4513 78.2646
" />
<path d="M131.4513 78.2646
L131.3561 78.3122
" />
<path d="M131.3561 78.3122
L130.9751 78.3122
" />
<path d="M132.1180 78.7884
L132.0227 78.7408
" />
<path d="M132.0227 78.7408
L131.9751 78.6932
" />
<path d="M131.9751 78.6932
L131.9275 78.5979
" />
<path d="M131.9275 78.5979
L131.9275 78.3122
" />
<path d="M131.9275 78.3122
L131.9751 78.2170
" />
<path d="M131.9751 78.2170
L132.0227 78.1694
" />
<path d="M132.0227 78.1694
L132.1180 78.1218
" />
<path d="M132.1180 78.1218
L132.2608 78.1218
" />
<path d="M132.2608 78.1218
L132.3561 78.1694
" />
<path d="M132.3561 78.1694
L132.4037 78.2170
" />
<path d="M132.4037 78.2170
L132.4513 78.3122
" />
<path d="M132.4513 78.3122
L132.4513 78.5979
" />
<path d="M132.4513 78.5979
L132.4037 78.6932
" />
<path d="M132.4037 78.6932
L132.3561 78.7408
" />
<path d="M132.3561 78.7408
L132.2608 78.7884
" />
<path d="M132.2608 78.7884
L132.1180 78.7884
" />
<path d="M132.8799 78.7884
L132.8799 78.1218
" />
<path d="M132.8799 77.7884
L132.8323 77.8360
" />
<path d="M132.8323 77.8360
L132.8799 77.8837
" />
<path d="M132.8799 77.8837
L132.9275 77.8360
" />
<path d="M132.9275 77.8360
L132.8799 77.7884
" />
<path d="M132.8799 77.7884
L132.8799 77.8837
" />
<path d="M133.3561 78.1218
L133.3561 78.7884
" />
<path d="M133.3561 78.2170
L133.4037 78.1694
" />
<path d="M133.4037 78.1694
L133.4989 78.1218
" />
<path d="M133.4989 78.1218
L133.6418 78.1218
" />
<path d="M133.6418 78.1218
L133.7370 78.1694
" />
<path d="M133.7370 78.1694
L133.7846 78.2646
" />
<path d="M133.7846 78.2646
L133.7846 78.7884
" />
<path d="M134.1180 78.1218
L134.4989 78.1218
" />
<path d="M134.2608 77.7884
L134.2608 78.6456
" />
<path d="M134.2608 78.6456
L134.3085 78.7408
" />
<path d="M134.3085 78.7408
L134.4037 78.7884
" />
<path d="M134.4037 78.7884
L134.4989 78.7884
" />
</g><text x="129.2098" y="82.1124"
textLength="2.9643" font-size="1.3333" lengthAdjust="spacingAndGlyphs"
text-anchor="middle" opacity="0" stroke-opacity="0">TP2</text>
<g class="stroked-text"><desc>TP2</desc>
<path d="M127.9479 81.0672
L128.5193 81.0672
" />
<path d="M128.2336 82.0672
L128.2336 81.0672
" />
<path d="M128.8527 82.0672
L128.8527 81.0672
" />
<path d="M128.8527 81.0672
L129.2336 81.0672
" />
<path d="M129.2336 81.0672
L129.3288 81.1148
" />
<path d="M129.3288 81.1148
L129.3765 81.1625
" />
<path d="M129.3765 81.1625
L129.4241 81.2577
" />
<path d="M129.4241 81.2577
L129.4241 81.4006
" />
<path d="M129.4241 81.4006
L129.3765 81.4958
" />
<path d="M129.3765 81.4958
L129.3288 81.5434
" />
<path d="M129.3288 81.5434
L129.2336 81.5910
" />
<path d="M129.2336 81.5910
L128.8527 81.5910
" />
<path d="M129.8050 81.1625
L129.8527 81.1148
" />
<path d="M129.8527 81.1148
L129.9479 81.0672
" />
<path d="M129.9479 81.0672
L130.1860 81.0672
" />
<path d="M130.1860 81.0672
L130.2812 81.1148
" />
<path d="M130.2812 81.1148
L130.3288 81.1625
" />
<path d="M130.3288 81.1625
L130.3765 81.2577
" />
<path d="M130.3765 81.2577
L130.3765 81.3529
" />
<path d="M130.3765 81.3529
L130.3288 81.4958
" />
<path d="M130.3288 81.4958
L129.7574 82.0672
" />
<path d="M129.7574 82.0672
L130.3765 82.0672
" />
</g><text x="124.9172" y="77.2080"
textLength="7.1071" font-size="1.3333" lengthAdjust="spacingAndGlyphs"
text-anchor="middle" opacity="0" stroke-opacity="0">TestPoint</text>
<g class="stroked-text"><desc>TestPoint</desc>
<path d="M121.5839 76.1628
L122.1553 76.1628
" />
<path d="M121.8696 77.1628
L121.8696 76.1628
" />
<path d="M122.8696 77.1152
L122.7743 77.1628
" />
<path d="M122.7743 77.1628
L122.5839 77.1628
" />
<path d="M122.5839 77.1628
L122.4886 77.1152
" />
<path d="M122.4886 77.1152
L122.4410 77.0200
" />
<path d="M122.4410 77.0200
L122.4410 76.6390
" />
<path d="M122.4410 76.6390
L122.4886 76.5438
" />
<path d="M122.4886 76.5438
L122.5839 76.4962
" />
<path d="M122.5839 76.4962
L122.7743 76.4962
" />
<path d="M122.7743 76.4962
L122.8696 76.5438
" />
<path d="M122.8696 76.5438
L122.9172 76.6390
" />
<path d="M122.9172 76.6390
L122.9172 76.7342
" />
<path d="M122.9172 76.7342
L122.4410 76.8295
" />
<path d="M123.2982 77.1152
L123.3934 77.1628
" />
<path d="M123.3934 77.1628
L123.5839 77.1628
" />
<path d="M123.5839 77.1628
L123.6791 77.1152
" />
<path d="M123.6791 77.1152
L123.7267 77.0200
" />
<path d="M123.7267 77.0200
L123.7267 76.9723
" />
<path d="M123.7267 76.9723
L123.6791 76.8771
" />
<path d="M123.6791 76.8771
L123.5839 76.8295
" />
<path d="M123.5839 76.8295
L123.4410 76.8295
" />
<path d="M123.4410 76.8295
L123.3458 76.7819
" />
<path d="M123.3458 76.7819
L123.2982 76.6866
" />
<path d="M123.2982 76.6866
L123.2982 76.6390
" />
<path d="M123.2982 76.6390
L123.3458 76.5438
" />
<path d="M123.3458 76.5438
L123.4410 76.4962
" />
<path d="M123.4410 76.4962
L123.5839 76.4962
" />
<path d="M123.5839 76.4962
L123.6791 76.5438
" />
<path d="M124.0124 76.4962
L124.3934 76.4962
" />
<path d="M124.1553 76.1628
L124.1553 77.0200
" />
<path d="M124.1553 77.0200
L124.2029 77.1152
" />
<path d="M124.2029 77.1152
L124.2982 77.1628
" />
<path d="M124.2982 77.1628
L124.3934 77.1628
" />
<path d="M124.7267 77.1628
L124.7267 76.1628
" />
<path d="M124.7267 76.1628
L125.1077 76.1628
" />
<path d="M125.1077 76.1628
L125.2029 76.2104
" />
<path d="M125.2029 76.2104
L125.2505 76.2581
" />
<path d="M125.2505 76.2581
L125.2982 76.3533
" />
<path d="M125.2982 76.3533
L125.2982 76.4962
" />
<path d="M125.2982 76.4962
L125.2505 76.5914
" />
<path d="M125.2505 76.5914
L125.2029 76.6390
" />
<path d="M125.2029 76.6390
L125.1077 76.6866
" />
<path d="M125.1077 76.6866
L124.7267 76.6866
" />
<path d="M125.8696 77.1628
L125.7743 77.1152
" />
<path d="M125.7743 77.1152
L125.7267 77.0676
" />
<path d="M125.7267 77.0676
L125.6791 76.9723
" />
<path d="M125.6791 76.9723
L125.6791 76.6866
" />
<path d="M125.6791 76.6866
L125.7267 76.5914
" />
<path d="M125.7267 76.5914
L125.7743 76.5438
" />
<path d="M125.7743 76.5438
L125.8696 76.4962
" />
<path d="M125.8696 76.4962
L126.0124 76.4962
" />
<path d="M126.0124 76.4962
L126.1077 76.5438
" />
<path d="M126.1077 76.5438
L126.1553 76.5914
" />
<path d="M126.1553 76.5914
L126.2029 76.6866
" />
<path d="M126.2029 76.6866
L126.2029 76.9723
" />
<path d="M126.2029 76.9723
L126.1553 77.0676
" />
<path d="M126.1553 77.0676
L126.1077 77.1152
" />
<path d="M126.1077 77.1152
L126.0124 77.1628
" />
<path d="M126.0124 77.1628
L125.8696 77.1628
" />
<path d="M126.6315 77.1628
L126.6315 76.4962
" />
<path d="M126.6315 76.1628
L126.5839 76.2104
" />
<path d="M126.5839 76.2104
L126.6315 76.2581
" />
<path d="M126.6315 76.2581
L126.6791 76.2104
" />
<path d="M126.6791 76.2104
L126.6315 76.1628
" />
<path d="M126.6315 76.1628
L126.6315 76.2581
" />
<path d="M127.1077 76.4962
L127.1077 77.1628
" />
<path d="M127.1077 76.5914
L127.1553 76.5438
" />
<path d="M127.1553 76.5438
L127.2505 76.4962
" />
<path d="M127.2505 76.4962
L127.3934 76.4962
" />
<path d="M127.3934 76.4962
L127.4886 76.5438
" />
<path d="M127.4886 76.5438
L127.5362 76.6390
" />
<path d="M127.5362 76.6390
L127.5362 77.1628
" />
<path d="M127.8696 76.4962
L128.2505 76.4962
" />
<path d="M128.0124 76.1628
L128.0124 77.0200
" />
<path d="M128.0124 77.0200
L128.0601 77.1152
" />
<path d="M128.0601 77.1152
L128.1553 77.1628
" />
<path d="M128.1553 77.1628
L128.2505 77.1628
" />
</g><text x="125.4760" y="80.4846"
textLength="2.9643" font-size="1.3333" lengthAdjust="spacingAndGlyphs"
text-anchor="middle" opacity="0" stroke-opacity="0">TP3</text>
<g class="stroked-text"><desc>TP3</desc>
<path d="M124.2141 79.4394
L124.7855 79.4394
" />
<path d="M124.4998 80.4394
L124.4998 79.4394
" />
<path d="M125.1189 80.4394
L125.1189 79.4394
" />
<path d="M125.1189 79.4394
L125.4998 79.4394
" />
<path d="M125.4998 79.4394
L125.5950 79.4870
" />
<path d="M125.5950 79.4870
L125.6427 79.5347
" />
<path d="M125.6427 79.5347
L125.6903 79.6299
" />
<path d="M125.6903 79.6299
L125.6903 79.7728
" />
<path d="M125.6903 79.7728
L125.6427 79.8680
" />
<path d="M125.6427 79.8680
L125.5950 79.9156
" />
<path d="M125.5950 79.9156
L125.4998 79.9632
" />
<path d="M125.4998 79.9632
L125.1189 79.9632
" />
<path d="M126.0236 79.4394
L126.6427 79.4394
" />
<path d="M126.6427 79.4394
L126.3093 79.8204
" />
<path d="M126.3093 79.8204
L126.4522 79.8204
" />
<path d="M126.4522 79.8204
L126.5474 79.8680
" />
<path d="M126.5474 79.8680
L126.5950 79.9156
" />
<path d="M126.5950 79.9156
L126.6427 80.0108
" />
<path d="M126.6427 80.0108
L126.6427 80.2489
" />
<path d="M126.6427 80.2489
L126.5950 80.3442
" />
<path d="M126.5950 80.3442
L126.5474 80.3918
" />
<path d="M126.5474 80.3918
L126.4522 80.4394
" />
<path d="M126.4522 80.4394
L126.1665 80.4394
" />
<path d="M126.1665 80.4394
L126.0712 80.3918
" />
<path d="M126.0712 80.3918
L126.0236 80.3442
" />
</g><text x="113.0046" y="81.1450"
textLength="7.1071" font-size="1.3333" lengthAdjust="spacingAndGlyphs"
text-anchor="middle" opacity="0" stroke-opacity="0">TestPoint</text>
<g class="stroked-text"><desc>TestPoint</desc>
<path d="M109.6713 80.0998
L110.2427 80.0998
" />
<path d="M109.9570 81.0998
L109.9570 80.0998
" />
<path d="M110.9570 81.0522
L110.8617 81.0998
" />
<path d="M110.8617 81.0998
L110.6713 81.0998
" />
<path d="M110.6713 81.0998
L110.5760 81.0522
" />
<path d="M110.5760 81.0522
L110.5284 80.9570
" />
<path d="M110.5284 80.9570
L110.5284 80.5760
" />
<path d="M110.5284 80.5760
L110.5760 80.4808
" />
<path d="M110.5760 80.4808
L110.6713 80.4332
" />
<path d="M110.6713 80.4332
L110.8617 80.4332
" />
<path d="M110.8617 80.4332
L110.9570 80.4808
" />
<path d="M110.9570 80.4808
L111.0046 80.5760
" />
<path d="M111.0046 80.5760
L111.0046 80.6712
" />
<path d="M111.0046 80.6712
L110.5284 80.7665
" />
<path d="M111.3856 81.0522
L111.4808 81.0998
" />
<path d="M111.4808 81.0998
L111.6713 81.0998
" />
<path d="M111.6713 81.0998
L111.7665 81.0522
" />
<path d="M111.7665 81.0522
L111.8141 80.9570
" />
<path d="M111.8141 80.9570
L111.8141 80.9093
" />
<path d="M111.8141 80.9093
L111.7665 80.8141
" />
<path d="M111.7665 80.8141
L111.6713 80.7665
" />
<path d="M111.6713 80.7665
L111.5284 80.7665
" />
<path d="M111.5284 80.7665
L111.4332 80.7189
" />
<path d="M111.4332 80.7189
L111.3856 80.6236
" />
<path d="M111.3856 80.6236
L111.3856 80.5760
" />
<path d="M111.3856 80.5760
L111.4332 80.4808
" />
<path d="M111.4332 80.4808
L111.5284 80.4332
" />
<path d="M111.5284 80.4332
L111.6713 80.4332
" />
<path d="M111.6713 80.4332
L111.7665 80.4808
" />
<path d="M112.0998 80.4332
L112.4808 80.4332
" />
<path d="M112.2427 80.0998
L112.2427 80.9570
" />
<path d="M112.2427 80.9570
L112.2903 81.0522
" />
<path d="M112.2903 81.0522
L112.3856 81.0998
" />
<path d="M112.3856 81.0998
L112.4808 81.0998
" />
<path d="M112.8141 81.0998
L112.8141 80.0998
" />
<path d="M112.8141 80.0998
L113.1951 80.0998
" />
<path d="M113.1951 80.0998
L113.2903 80.1474
" />
<path d="M113.2903 80.1474
L113.3379 80.1951
" />
<path d="M113.3379 80.1951
L113.3856 80.2903
" />
<path d="M113.3856 80.2903
L113.3856 80.4332
" />
<path d="M113.3856 80.4332
L113.3379 80.5284
" />
<path d="M113.3379 80.5284
L113.2903 80.5760
" />
<path d="M113.2903 80.5760
L113.1951 80.6236
" />
<path d="M113.1951 80.6236
L112.8141 80.6236
" />
<path d="M113.9570 81.0998
L113.8617 81.0522
" />
<path d="M113.8617 81.0522
L113.8141 81.0046
" />
<path d="M113.8141 81.0046
L113.7665 80.9093
" />
<path d="M113.7665 80.9093
L113.7665 80.6236
" />
<path d="M113.7665 80.6236
L113.8141 80.5284
" />
<path d="M113.8141 80.5284
L113.8617 80.4808
" />
<path d="M113.8617 80.4808
L113.9570 80.4332
" />
<path d="M113.9570 80.4332
L114.0998 80.4332
" />
<path d="M114.0998 80.4332
L114.1951 80.4808
" />
<path d="M114.1951 80.4808
L114.2427 80.5284
" />
<path d="M114.2427 80.5284
L114.2903 80.6236
" />
<path d="M114.2903 80.6236
L114.2903 80.9093
" />
<path d="M114.2903 80.9093
L114.2427 81.0046
" />
<path d="M114.2427 81.0046
L114.1951 81.0522
" />
<path d="M114.1951 81.0522
L114.0998 81.0998
" />
<path d="M114.0998 81.0998
L113.9570 81.0998
" />
<path d="M114.7189 81.0998
L114.7189 80.4332
" />
<path d="M114.7189 80.0998
L114.6713 80.1474
" />
<path d="M114.6713 80.1474
L114.7189 80.1951
" />
<path d="M114.7189 80.1951
L114.7665 80.1474
" />
<path d="M114.7665 80.1474
L114.7189 80.0998
" />
<path d="M114.7189 80.0998
L114.7189 80.1951
" />
<path d="M115.1951 80.4332
L115.1951 81.0998
" />
<path d="M115.1951 80.5284
L115.2427 80.4808
" />
<path d="M115.2427 80.4808
L115.3379 80.4332
" />
<path d="M115.3379 80.4332
L115.4808 80.4332
" />
<path d="M115.4808 80.4332
L115.5760 80.4808
" />
<path d="M115.5760 80.4808
L115.6236 80.5760
" />
<path d="M115.6236 80.5760
L115.6236 81.0998
" />
<path d="M115.9570 80.4332
L116.3379 80.4332
" />
<path d="M116.0998 80.0998
L116.0998 80.9570
" />
<path d="M116.0998 80.9570
L116.1475 81.0522
" />
<path d="M116.1475 81.0522
L116.2427 81.0998
" />
<path d="M116.2427 81.0998
L116.3379 81.0998
" />
</g><text x="118.0338" y="83.0754"
textLength="2.9643" font-size="1.3333" lengthAdjust="spacingAndGlyphs"
text-anchor="middle" opacity="0" stroke-opacity="0">TP4</text>
<g class="stroked-text"><desc>TP4</desc>
<path d="M116.7719 82.0302
L117.3433 82.0302
" />
<path d="M117.0576 83.0302
L117.0576 82.0302
" />
<path d="M117.6767 83.0302
L117.6767 82.0302
" />
<path d="M117.6767 82.0302
L118.0576 82.0302
" />
<path d="M118.0576 82.0302
L118.1528 82.0778
" />
<path d="M118.1528 82.0778
L118.2005 82.1255
" />
<path d="M118.2005 82.1255
L118.2481 82.2207
" />
<path d="M118.2481 82.2207
L118.2481 82.3636
" />
<path d="M118.2481 82.3636
L118.2005 82.4588
" />
<path d="M118.2005 82.4588
L118.1528 82.5064
" />
<path d="M118.1528 82.5064
L118.0576 82.5540
" />
<path d="M118.0576 82.5540
L117.6767 82.5540
" />
<path d="M119.1052 82.3636
L119.1052 83.0302
" />
<path d="M118.8671 81.9826
L118.6290 82.6969
" />
<path d="M118.6290 82.6969
L119.2481 82.6969
" />
</g><text x="113.1824" y="84.5740"
textLength="7.1071" font-size="1.3333" lengthAdjust="spacingAndGlyphs"
text-anchor="middle" opacity="0" stroke-opacity="0">TestPoint</text>
<g class="stroked-text"><desc>TestPoint</desc>
<path d="M109.8491 83.5288
L110.4205 83.5288
" />
<path d="M110.1348 84.5288
L110.1348 83.5288
" />
<path d="M111.1348 84.4812
L111.0395 84.5288
" />
<path d="M111.0395 84.5288
L110.8491 84.5288
" />
<path d="M110.8491 84.5288
L110.7538 84.4812
" />
<path d="M110.7538 84.4812
L110.7062 84.3860
" />
<path d="M110.7062 84.3860
L110.7062 84.0050
" />
<path d="M110.7062 84.0050
L110.7538 83.9098
" />
<path d="M110.7538 83.9098
L110.8491 83.8622
" />
<path d="M110.8491 83.8622
L111.0395 83.8622
" />
<path d="M111.0395 83.8622
L111.1348 83.9098
" />
<path d="M111.1348 83.9098
L111.1824 84.0050
" />
<path d="M111.1824 84.0050
L111.1824 84.1002
" />
<path d="M111.1824 84.1002
L110.7062 84.1955
" />
<path d="M111.5634 84.4812
L111.6586 84.5288
" />
<path d="M111.6586 84.5288
L111.8491 84.5288
" />
<path d="M111.8491 84.5288
L111.9443 84.4812
" />
<path d="M111.9443 84.4812
L111.9919 84.3860
" />
<path d="M111.9919 84.3860
L111.9919 84.3383
" />
<path d="M111.9919 84.3383
L111.9443 84.2431
" />
<path d="M111.9443 84.2431
L111.8491 84.1955
" />
<path d="M111.8491 84.1955
L111.7062 84.1955
" />
<path d="M111.7062 84.1955
L111.6110 84.1479
" />
<path d="M111.6110 84.1479
L111.5634 84.0526
" />
<path d="M111.5634 84.0526
L111.5634 84.0050
" />
<path d="M111.5634 84.0050
L111.6110 83.9098
" />
<path d="M111.6110 83.9098
L111.7062 83.8622
" />
<path d="M111.7062 83.8622
L111.8491 83.8622
" />
<path d="M111.8491 83.8622
L111.9443 83.9098
" />
<path d="M112.2776 83.8622
L112.6586 83.8622
" />
<path d="M112.4205 83.5288
L112.4205 84.3860
" />
<path d="M112.4205 84.3860
L112.4681 84.4812
" />
<path d="M112.4681 84.4812
L112.5634 84.5288
" />
<path d="M112.5634 84.5288
L112.6586 84.5288
" />
<path d="M112.9919 84.5288
L112.9919 83.5288
" />
<path d="M112.9919 83.5288
L113.3729 83.5288
" />
<path d="M113.3729 83.5288
L113.4681 83.5764
" />
<path d="M113.4681 83.5764
L113.5157 83.6241
" />
<path d="M113.5157 83.6241
L113.5634 83.7193
" />
<path d="M113.5634 83.7193
L113.5634 83.8622
" />
<path d="M113.5634 83.8622
L113.5157 83.9574
" />
<path d="M113.5157 83.9574
L113.4681 84.0050
" />
<path d="M113.4681 84.0050
L113.3729 84.0526
" />
<path d="M113.3729 84.0526
L112.9919 84.0526
" />
<path d="M114.1348 84.5288
L114.0395 84.4812
" />
<path d="M114.0395 84.4812
L113.9919 84.4336
" />
<path d="M113.9919 84.4336
L113.9443 84.3383
" />
<path d="M113.9443 84.3383
L113.9443 84.0526
" />
<path d="M113.9443 84.0526
L113.9919 83.9574
" />
<path d="M113.9919 83.9574
L114.0395 83.9098
" />
<path d="M114.0395 83.9098
L114.1348 83.8622
" />
<path d="M114.1348 83.8622
L114.2776 83.8622
" />
<path d="M114.2776 83.8622
L114.3729 83.9098
" />
<path d="M114.3729 83.9098
L114.4205 83.9574
" />
<path d="M114.4205 83.9574
L114.4681 84.0526
" />
<path d="M114.4681 84.0526
L114.4681 84.3383
" />
<path d="M114.4681 84.3383
L114.4205 84.4336
" />
<path d="M114.4205 84.4336
L114.3729 84.4812
" />
<path d="M114.3729 84.4812
L114.2776 84.5288
" />
<path d="M114.2776 84.5288
L114.1348 84.5288
" />
<path d="M114.8967 84.5288
L114.8967 83.8622
" />
<path d="M114.8967 83.5288
L114.8491 83.5764
" />
<path d="M114.8491 83.5764
L114.8967 83.6241
" />
<path d="M114.8967 83.6241
L114.9443 83.5764
" />
<path d="M114.9443 83.5764
L114.8967 83.5288
" />
<path d="M114.8967 83.5288
L114.8967 83.6241
" />
<path d="M115.3729 83.8622
L115.3729 84.5288
" />
<path d="M115.3729 83.9574
L115.4205 83.9098
" />
<path d="M115.4205 83.9098
L115.5157 83.8622
" />
<path d="M115.5157 83.8622
L115.6586 83.8622
" />
<path d="M115.6586 83.8622
L115.7538 83.9098
" />
<path d="M115.7538 83.9098
L115.8014 84.0050
" />
<path d="M115.8014 84.0050
L115.8014 84.5288
" />
<path d="M116.1348 83.8622
L116.5157 83.8622
" />
<path d="M116.2776 83.5288
L116.2776 84.3860
" />
<path d="M116.2776 84.3860
L116.3253 84.4812
" />
<path d="M116.3253 84.4812
L116.4205 84.5288
" />
<path d="M116.4205 84.5288
L116.5157 84.5288
" />
</g><text x="117.9576" y="86.3520"
textLength="2.9643" font-size="1.3333" lengthAdjust="spacingAndGlyphs"
text-anchor="middle" opacity="0" stroke-opacity="0">TP5</text>
<g class="stroked-text"><desc>TP5</desc>
<path d="M116.6957 85.3068
L117.2671 85.3068
" />
<path d="M116.9814 86.3068
L116.9814 85.3068
" />
<path d="M117.6005 86.3068
L117.6005 85.3068
" />
<path d="M117.6005 85.3068
L117.9814 85.3068
" />
<path d="M117.9814 85.3068
L118.0766 85.3544
" />
<path d="M118.0766 85.3544
L118.1243 85.4021
" />
<path d="M118.1243 85.4021
L118.1719 85.4973
" />
<path d="M118.1719 85.4973
L118.1719 85.6402
" />
<path d="M118.1719 85.6402
L118.1243 85.7354
" />
<path d="M118.1243 85.7354
L118.0766 85.7830
" />
<path d="M118.0766 85.7830
L117.9814 85.8306
" />
<path d="M117.9814 85.8306
L117.6005 85.8306
" />
<path d="M119.0766 85.3068
L118.6005 85.3068
" />
<path d="M118.6005 85.3068
L118.5528 85.7830
" />
<path d="M118.5528 85.7830
L118.6005 85.7354
" />
<path d="M118.6005 85.7354
L118.6957 85.6878
" />
<path d="M118.6957 85.6878
L118.9338 85.6878
" />
<path d="M118.9338 85.6878
L119.0290 85.7354
" />
<path d="M119.0290 85.7354
L119.0766 85.7830
" />
<path d="M119.0766 85.7830
L119.1243 85.8782
" />
<path d="M119.1243 85.8782
L119.1243 86.1163
" />
<path d="M119.1243 86.1163
L119.0766 86.2116
" />
<path d="M119.0766 86.2116
L119.0290 86.2592
" />
<path d="M119.0290 86.2592
L118.9338 86.3068
" />
<path d="M118.9338 86.3068
L118.6957 86.3068
" />
<path d="M118.6957 86.3068
L118.6005 86.2592
" />
<path d="M118.6005 86.2592
L118.5528 86.2116
" />
</g><text x="132.2832" y="68.6482"
textLength="7.1071" font-size="1.3333" lengthAdjust="spacingAndGlyphs"
text-anchor="middle" opacity="0" stroke-opacity="0">TestPoint</text>
<g class="stroked-text"><desc>TestPoint</desc>
<path d="M128.9499 67.6030
L129.5213 67.6030
" />
<path d="M129.2356 68.6030
L129.2356 67.6030
" />
<path d="M130.2356 68.5554
L130.1403 68.6030
" />
<path d="M130.1403 68.6030
L129.9499 68.6030
" />
<path d="M129.9499 68.6030
L129.8546 68.5554
" />
<path d="M129.8546 68.5554
L129.8070 68.4602
" />
<path d="M129.8070 68.4602
L129.8070 68.0792
" />
<path d="M129.8070 68.0792
L129.8546 67.9840
" />
<path d="M129.8546 67.9840
L129.9499 67.9364
" />
<path d="M129.9499 67.9364
L130.1403 67.9364
" />
<path d="M130.1403 67.9364
L130.2356 67.9840
" />
<path d="M130.2356 67.9840
L130.2832 68.0792
" />
<path d="M130.2832 68.0792
L130.2832 68.1744
" />
<path d="M130.2832 68.1744
L129.8070 68.2697
" />
<path d="M130.6642 68.5554
L130.7594 68.6030
" />
<path d="M130.7594 68.6030
L130.9499 68.6030
" />
<path d="M130.9499 68.6030
L131.0451 68.5554
" />
<path d="M131.0451 68.5554
L131.0927 68.4602
" />
<path d="M131.0927 68.4602
L131.0927 68.4125
" />
<path d="M131.0927 68.4125
L131.0451 68.3173
" />
<path d="M131.0451 68.3173
L130.9499 68.2697
" />
<path d="M130.9499 68.2697
L130.8070 68.2697
" />
<path d="M130.8070 68.2697
L130.7118 68.2221
" />
<path d="M130.7118 68.2221
L130.6642 68.1268
" />
<path d="M130.6642 68.1268
L130.6642 68.0792
" />
<path d="M130.6642 68.0792
L130.7118 67.9840
" />
<path d="M130.7118 67.9840
L130.8070 67.9364
" />
<path d="M130.8070 67.9364
L130.9499 67.9364
" />
<path d="M130.9499 67.9364
L131.0451 67.9840
" />
<path d="M131.3784 67.9364
L131.7594 67.9364
" />
<path d="M131.5213 67.6030
L131.5213 68.4602
" />
<path d="M131.5213 68.4602
L131.5689 68.5554
" />
<path d="M131.5689 68.5554
L131.6642 68.6030
" />
<path d="M131.6642 68.6030
L131.7594 68.6030
" />
<path d="M132.0927 68.6030
L132.0927 67.6030
" />
<path d="M132.0927 67.6030
L132.4737 67.6030
" />
<path d="M132.4737 67.6030
L132.5689 67.6506
" />
<path d="M132.5689 67.6506
L132.6165 67.6983
" />
<path d="M132.6165 67.6983
L132.6642 67.7935
" />
<path d="M132.6642 67.7935
L132.6642 67.9364
" />
<path d="M132.6642 67.9364
L132.6165 68.0316
" />
<path d="M132.6165 68.0316
L132.5689 68.0792
" />
<path d="M132.5689 68.0792
L132.4737 68.1268
" />
<path d="M132.4737 68.1268
L132.0927 68.1268
" />
<path d="M133.2356 68.6030
L133.1403 68.5554
" />
<path d="M133.1403 68.5554
L133.0927 68.5078
" />
<path d="M133.0927 68.5078
L133.0451 68.4125
" />
<path d="M133.0451 68.4125
L133.0451 68.1268
" />
<path d="M133.0451 68.1268
L133.0927 68.0316
" />
<path d="M133.0927 68.0316
L133.1403 67.9840
" />
<path d="M133.1403 67.9840
L133.2356 67.9364
" />
<path d="M133.2356 67.9364
L133.3784 67.9364
" />
<path d="M133.3784 67.9364
L133.4737 67.9840
" />
<path d="M133.4737 67.9840
L133.5213 68.0316
" />
<path d="M133.5213 68.0316
L133.5689 68.1268
" />
<path d="M133.5689 68.1268
L133.5689 68.4125
" />
<path d="M133.5689 68.4125
L133.5213 68.5078
" />
<path d="M133.5213 68.5078
L133.4737 68.5554
" />
<path d="M133.4737 68.5554
L133.3784 68.6030
" />
<path d="M133.3784 68.6030
L133.2356 68.6030
" />
<path d="M133.9975 68.6030
L133.9975 67.9364
" />
<path d="M133.9975 67.6030
L133.9499 67.6506
" />
<path d="M133.9499 67.6506
L133.9975 67.6983
" />
<path d="M133.9975 67.6983
L134.0451 67.6506
" />
<path d="M134.0451 67.6506
L133.9975 67.6030
" />
<path d="M133.9975 67.6030
L133.9975 67.6983
" />
<path d="M134.4737 67.9364
L134.4737 68.6030
" />
<path d="M134.4737 68.0316
L134.5213 67.9840
" />
<path d="M134.5213 67.9840
L134.6165 67.9364
" />
<path d="M134.6165 67.9364
L134.7594 67.9364
" />
<path d="M134.7594 67.9364
L134.8546 67.9840
" />
<path d="M134.8546 67.9840
L134.9022 68.0792
" />
<path d="M134.9022 68.0792
L134.9022 68.6030
" />
<path d="M135.2356 67.9364
L135.6165 67.9364
" />
<path d="M135.3784 67.6030
L135.3784 68.4602
" />
<path d="M135.3784 68.4602
L135.4261 68.5554
" />
<path d="M135.4261 68.5554
L135.5213 68.6030
" />
<path d="M135.5213 68.6030
L135.6165 68.6030
" />
</g><text x="132.8928" y="72.4074"
textLength="2.9643" font-size="1.3333" lengthAdjust="spacingAndGlyphs"
text-anchor="middle" opacity="0" stroke-opacity="0">TP6</text>
<g class="stroked-text"><desc>TP6</desc>
<path d="M131.6309 71.3622
L132.2023 71.3622
" />
<path d="M131.9166 72.3622
L131.9166 71.3622
" />
<path d="M132.5357 72.3622
L132.5357 71.3622
" />
<path d="M132.5357 71.3622
L132.9166 71.3622
" />
<path d="M132.9166 71.3622
L133.0118 71.4098
" />
<path d="M133.0118 71.4098
L133.0595 71.4575
" />
<path d="M133.0595 71.4575
L133.1071 71.5527
" />
<path d="M133.1071 71.5527
L133.1071 71.6956
" />
<path d="M133.1071 71.6956
L133.0595 71.7908
" />
<path d="M133.0595 71.7908
L133.0118 71.8384
" />
<path d="M133.0118 71.8384
L132.9166 71.8860
" />
<path d="M132.9166 71.8860
L132.5357 71.8860
" />
<path d="M133.9642 71.3622
L133.7738 71.3622
" />
<path d="M133.7738 71.3622
L133.6785 71.4098
" />
<path d="M133.6785 71.4098
L133.6309 71.4575
" />
<path d="M133.6309 71.4575
L133.5357 71.6003
" />
<path d="M133.5357 71.6003
L133.4880 71.7908
" />
<path d="M133.4880 71.7908
L133.4880 72.1717
" />
<path d="M133.4880 72.1717
L133.5357 72.2670
" />
<path d="M133.5357 72.2670
L133.5833 72.3146
" />
<path d="M133.5833 72.3146
L133.6785 72.3622
" />
<path d="M133.6785 72.3622
L133.8690 72.3622
" />
<path d="M133.8690 72.3622
L133.9642 72.3146
" />
<path d="M133.9642 72.3146
L134.0118 72.2670
" />
<path d="M134.0118 72.2670
L134.0595 72.1717
" />
<path d="M134.0595 72.1717
L134.0595 71.9336
" />
<path d="M134.0595 71.9336
L134.0118 71.8384
" />
<path d="M134.0118 71.8384
L133.9642 71.7908
" />
<path d="M133.9642 71.7908
L133.8690 71.7432
" />
<path d="M133.8690 71.7432
L133.6785 71.7432
" />
<path d="M133.6785 71.7432
L133.5833 71.7908
" />
<path d="M133.5833 71.7908
L133.5357 71.8384
" />
<path d="M133.5357 71.8384
L133.4880 71.9336
" />
</g><text x="144.2212" y="68.7244"
textLength="7.1071" font-size="1.3333" lengthAdjust="spacingAndGlyphs"
text-anchor="middle" opacity="0" stroke-opacity="0">TestPoint</text>
<g class="stroked-text"><desc>TestPoint</desc>
<path d="M140.8879 67.6792
L141.4593 67.6792
" />
<path d="M141.1736 68.6792
L141.1736 67.6792
" />
<path d="M142.1736 68.6316
L142.0783 68.6792
" />
<path d="M142.0783 68.6792
L141.8879 68.6792
" />
<path d="M141.8879 68.6792
L141.7926 68.6316
" />
<path d="M141.7926 68.6316
L141.7450 68.5364
" />
<path d="M141.7450 68.5364
L141.7450 68.1554
" />
<path d="M141.7450 68.1554
L141.7926 68.0602
" />
<path d="M141.7926 68.0602
L141.8879 68.0126
" />
<path d="M141.8879 68.0126
L142.0783 68.0126
" />
<path d="M142.0783 68.0126
L142.1736 68.0602
" />
<path d="M142.1736 68.0602
L142.2212 68.1554
" />
<path d="M142.2212 68.1554
L142.2212 68.2506
" />
<path d="M142.2212 68.2506
L141.7450 68.3459
" />
<path d="M142.6022 68.6316
L142.6974 68.6792
" />
<path d="M142.6974 68.6792
L142.8879 68.6792
" />
<path d="M142.8879 68.6792
L142.9831 68.6316
" />
<path d="M142.9831 68.6316
L143.0307 68.5364
" />
<path d="M143.0307 68.5364
L143.0307 68.4887
" />
<path d="M143.0307 68.4887
L142.9831 68.3935
" />
<path d="M142.9831 68.3935
L142.8879 68.3459
" />
<path d="M142.8879 68.3459
L142.7450 68.3459
" />
<path d="M142.7450 68.3459
L142.6498 68.2983
" />
<path d="M142.6498 68.2983
L142.6022 68.2030
" />
<path d="M142.6022 68.2030
L142.6022 68.1554
" />
<path d="M142.6022 68.1554
L142.6498 68.0602
" />
<path d="M142.6498 68.0602
L142.7450 68.0126
" />
<path d="M142.7450 68.0126
L142.8879 68.0126
" />
<path d="M142.8879 68.0126
L142.9831 68.0602
" />
<path d="M143.3164 68.0126
L143.6974 68.0126
" />
<path d="M143.4593 67.6792
L143.4593 68.5364
" />
<path d="M143.4593 68.5364
L143.5069 68.6316
" />
<path d="M143.5069 68.6316
L143.6022 68.6792
" />
<path d="M143.6022 68.6792
L143.6974 68.6792
" />
<path d="M144.0307 68.6792
L144.0307 67.6792
" />
<path d="M144.0307 67.6792
L144.4117 67.6792
" />
<path d="M144.4117 67.6792
L144.5069 67.7268
" />
<path d="M144.5069 67.7268
L144.5545 67.7745
" />
<path d="M144.5545 67.7745
L144.6022 67.8697
" />
<path d="M144.6022 67.8697
L144.6022 68.0126
" />
<path d="M144.6022 68.0126
L144.5545 68.1078
" />
<path d="M144.5545 68.1078
L144.5069 68.1554
" />
<path d="M144.5069 68.1554
L144.4117 68.2030
" />
<path d="M144.4117 68.2030
L144.0307 68.2030
" />
<path d="M145.1736 68.6792
L145.0783 68.6316
" />
<path d="M145.0783 68.6316
L145.0307 68.5840
" />
<path d="M145.0307 68.5840
L144.9831 68.4887
" />
<path d="M144.9831 68.4887
L144.9831 68.2030
" />
<path d="M144.9831 68.2030
L145.0307 68.1078
" />
<path d="M145.0307 68.1078
L145.0783 68.0602
" />
<path d="M145.0783 68.0602
L145.1736 68.0126
" />
<path d="M145.1736 68.0126
L145.3164 68.0126
" />
<path d="M145.3164 68.0126
L145.4117 68.0602
" />
<path d="M145.4117 68.0602
L145.4593 68.1078
" />
<path d="M145.4593 68.1078
L145.5069 68.2030
" />
<path d="M145.5069 68.2030
L145.5069 68.4887
" />
<path d="M145.5069 68.4887
L145.4593 68.5840
" />
<path d="M145.4593 68.5840
L145.4117 68.6316
" />
<path d="M145.4117 68.6316
L145.3164 68.6792
" />
<path d="M145.3164 68.6792
L145.1736 68.6792
" />
<path d="M145.9355 68.6792
L145.9355 68.0126
" />
<path d="M145.9355 67.6792
L145.8879 67.7268
" />
<path d="M145.8879 67.7268
L145.9355 67.7745
" />
<path d="M145.9355 67.7745
L145.9831 67.7268
" />
<path d="M145.9831 67.7268
L145.9355 67.6792
" />
<path d="M145.9355 67.6792
L145.9355 67.7745
" />
<path d="M146.4117 68.0126
L146.4117 68.6792
" />
<path d="M146.4117 68.1078
L146.4593 68.0602
" />
<path d="M146.4593 68.0602
L146.5545 68.0126
" />
<path d="M146.5545 68.0126
L146.6974 68.0126
" />
<path d="M146.6974 68.0126
L146.7926 68.0602
" />
<path d="M146.7926 68.0602
L146.8402 68.1554
" />
<path d="M146.8402 68.1554
L146.8402 68.6792
" />
<path d="M147.1736 68.0126
L147.5545 68.0126
" />
<path d="M147.3164 67.6792
L147.3164 68.5364
" />
<path d="M147.3164 68.5364
L147.3641 68.6316
" />
<path d="M147.3641 68.6316
L147.4593 68.6792
" />
<path d="M147.4593 68.6792
L147.5545 68.6792
" />
</g><text x="143.5862" y="72.4836"
textLength="2.9643" font-size="1.3333" lengthAdjust="spacingAndGlyphs"
text-anchor="middle" opacity="0" stroke-opacity="0">TP8</text>
<g class="stroked-text"><desc>TP8</desc>
<path d="M142.3243 71.4384
L142.8957 71.4384
" />
<path d="M142.6100 72.4384
L142.6100 71.4384
" />
<path d="M143.2291 72.4384
L143.2291 71.4384
" />
<path d="M143.2291 71.4384
L143.6100 71.4384
" />
<path d="M143.6100 71.4384
L143.7052 71.4860
" />
<path d="M143.7052 71.4860
L143.7529 71.5337
" />
<path d="M143.7529 71.5337
L143.8005 71.6289
" />
<path d="M143.8005 71.6289
L143.8005 71.7718
" />
<path d="M143.8005 71.7718
L143.7529 71.8670
" />
<path d="M143.7529 71.8670
L143.7052 71.9146
" />
<path d="M143.7052 71.9146
L143.6100 71.9622
" />
<path d="M143.6100 71.9622
L143.2291 71.9622
" />
<path d="M144.3719 71.8670
L144.2767 71.8194
" />
<path d="M144.2767 71.8194
L144.2291 71.7718
" />
<path d="M144.2291 71.7718
L144.1814 71.6765
" />
<path d="M144.1814 71.6765
L144.1814 71.6289
" />
<path d="M144.1814 71.6289
L144.2291 71.5337
" />
<path d="M144.2291 71.5337
L144.2767 71.4860
" />
<path d="M144.2767 71.4860
L144.3719 71.4384
" />
<path d="M144.3719 71.4384
L144.5624 71.4384
" />
<path d="M144.5624 71.4384
L144.6576 71.4860
" />
<path d="M144.6576 71.4860
L144.7052 71.5337
" />
<path d="M144.7052 71.5337
L144.7529 71.6289
" />
<path d="M144.7529 71.6289
L144.7529 71.6765
" />
<path d="M144.7529 71.6765
L144.7052 71.7718
" />
<path d="M144.7052 71.7718
L144.6576 71.8194
" />
<path d="M144.6576 71.8194
L144.5624 71.8670
" />
<path d="M144.5624 71.8670
L144.3719 71.8670
" />
<path d="M144.3719 71.8670
L144.2767 71.9146
" />
<path d="M144.2767 71.9146
L144.2291 71.9622
" />
<path d="M144.2291 71.9622
L144.1814 72.0575
" />
<path d="M144.1814 72.0575
L144.1814 72.2479
" />
<path d="M144.1814 72.2479
L144.2291 72.3432
" />
<path d="M144.2291 72.3432
L144.2767 72.3908
" />
<path d="M144.2767 72.3908
L144.3719 72.4384
" />
<path d="M144.3719 72.4384
L144.5624 72.4384
" />
<path d="M144.5624 72.4384
L144.6576 72.3908
" />
<path d="M144.6576 72.3908
L144.7052 72.3432
" />
<path d="M144.7052 72.3432
L144.7529 72.2479
" />
<path d="M144.7529 72.2479
L144.7529 72.0575
" />
<path d="M144.7529 72.0575
L144.7052 71.9622
" />
<path d="M144.7052 71.9622
L144.6576 71.9146
" />
<path d="M144.6576 71.9146
L144.5624 71.8670
" />
</g><text x="141.0716" y="83.3040"
textLength="7.1071" font-size="1.3333" lengthAdjust="spacingAndGlyphs"
text-anchor="middle" opacity="0" stroke-opacity="0">TestPoint</text>
<g class="stroked-text"><desc>TestPoint</desc>
<path d="M137.7383 82.2588
L138.3097 82.2588
" />
<path d="M138.0240 83.2588
L138.0240 82.2588
" />
<path d="M139.0240 83.2112
L138.9287 83.2588
" />
<path d="M138.9287 83.2588
L138.7383 83.2588
" />
<path d="M138.7383 83.2588
L138.6430 83.2112
" />
<path d="M138.6430 83.2112
L138.5954 83.1160
" />
<path d="M138.5954 83.1160
L138.5954 82.7350
" />
<path d="M138.5954 82.7350
L138.6430 82.6398
" />
<path d="M138.6430 82.6398
L138.7383 82.5922
" />
<path d="M138.7383 82.5922
L138.9287 82.5922
" />
<path d="M138.9287 82.5922
L139.0240 82.6398
" />
<path d="M139.0240 82.6398
L139.0716 82.7350
" />
<path d="M139.0716 82.7350
L139.0716 82.8302
" />
<path d="M139.0716 82.8302
L138.5954 82.9255
" />
<path d="M139.4526 83.2112
L139.5478 83.2588
" />
<path d="M139.5478 83.2588
L139.7383 83.2588
" />
<path d="M139.7383 83.2588
L139.8335 83.2112
" />
<path d="M139.8335 83.2112
L139.8811 83.1160
" />
<path d="M139.8811 83.1160
L139.8811 83.0683
" />
<path d="M139.8811 83.0683
L139.8335 82.9731
" />
<path d="M139.8335 82.9731
L139.7383 82.9255
" />
<path d="M139.7383 82.9255
L139.5954 82.9255
" />
<path d="M139.5954 82.9255
L139.5002 82.8779
" />
<path d="M139.5002 82.8779
L139.4526 82.7826
" />
<path d="M139.4526 82.7826
L139.4526 82.7350
" />
<path d="M139.4526 82.7350
L139.5002 82.6398
" />
<path d="M139.5002 82.6398
L139.5954 82.5922
" />
<path d="M139.5954 82.5922
L139.7383 82.5922
" />
<path d="M139.7383 82.5922
L139.8335 82.6398
" />
<path d="M140.1668 82.5922
L140.5478 82.5922
" />
<path d="M140.3097 82.2588
L140.3097 83.1160
" />
<path d="M140.3097 83.1160
L140.3573 83.2112
" />
<path d="M140.3573 83.2112
L140.4526 83.2588
" />
<path d="M140.4526 83.2588
L140.5478 83.2588
" />
<path d="M140.8811 83.2588
L140.8811 82.2588
" />
<path d="M140.8811 82.2588
L141.2621 82.2588
" />
<path d="M141.2621 82.2588
L141.3573 82.3064
" />
<path d="M141.3573 82.3064
L141.4049 82.3541
" />
<path d="M141.4049 82.3541
L141.4526 82.4493
" />
<path d="M141.4526 82.4493
L141.4526 82.5922
" />
<path d="M141.4526 82.5922
L141.4049 82.6874
" />
<path d="M141.4049 82.6874
L141.3573 82.7350
" />
<path d="M141.3573 82.7350
L141.2621 82.7826
" />
<path d="M141.2621 82.7826
L140.8811 82.7826
" />
<path d="M142.0240 83.2588
L141.9287 83.2112
" />
<path d="M141.9287 83.2112
L141.8811 83.1636
" />
<path d="M141.8811 83.1636
L141.8335 83.0683
" />
<path d="M141.8335 83.0683
L141.8335 82.7826
" />
<path d="M141.8335 82.7826
L141.8811 82.6874
" />
<path d="M141.8811 82.6874
L141.9287 82.6398
" />
<path d="M141.9287 82.6398
L142.0240 82.5922
" />
<path d="M142.0240 82.5922
L142.1668 82.5922
" />
<path d="M142.1668 82.5922
L142.2621 82.6398
" />
<path d="M142.2621 82.6398
L142.3097 82.6874
" />
<path d="M142.3097 82.6874
L142.3573 82.7826
" />
<path d="M142.3573 82.7826
L142.3573 83.0683
" />
<path d="M142.3573 83.0683
L142.3097 83.1636
" />
<path d="M142.3097 83.1636
L142.2621 83.2112
" />
<path d="M142.2621 83.2112
L142.1668 83.2588
" />
<path d="M142.1668 83.2588
L142.0240 83.2588
" />
<path d="M142.7859 83.2588
L142.7859 82.5922
" />
<path d="M142.7859 82.2588
L142.7383 82.3064
" />
<path d="M142.7383 82.3064
L142.7859 82.3541
" />
<path d="M142.7859 82.3541
L142.8335 82.3064
" />
<path d="M142.8335 82.3064
L142.7859 82.2588
" />
<path d="M142.7859 82.2588
L142.7859 82.3541
" />
<path d="M143.2621 82.5922
L143.2621 83.2588
" />
<path d="M143.2621 82.6874
L143.3097 82.6398
" />
<path d="M143.3097 82.6398
L143.4049 82.5922
" />
<path d="M143.4049 82.5922
L143.5478 82.5922
" />
<path d="M143.5478 82.5922
L143.6430 82.6398
" />
<path d="M143.6430 82.6398
L143.6906 82.7350
" />
<path d="M143.6906 82.7350
L143.6906 83.2588
" />
<path d="M144.0240 82.5922
L144.4049 82.5922
" />
<path d="M144.1668 82.2588
L144.1668 83.1160
" />
<path d="M144.1668 83.1160
L144.2145 83.2112
" />
<path d="M144.2145 83.2112
L144.3097 83.2588
" />
<path d="M144.3097 83.2588
L144.4049 83.2588
" />
</g><text x="141.1224" y="86.9362"
textLength="2.9643" font-size="1.3333" lengthAdjust="spacingAndGlyphs"
text-anchor="middle" opacity="0" stroke-opacity="0">TP9</text>
<g class="stroked-text"><desc>TP9</desc>
<path d="M139.8605 85.8910
L140.4319 85.8910
" />
<path d="M140.1462 86.8910
L140.1462 85.8910
" />
<path d="M140.7653 86.8910
L140.7653 85.8910
" />
<path d="M140.7653 85.8910
L141.1462 85.8910
" />
<path d="M141.1462 85.8910
L141.2414 85.9386
" />
<path d="M141.2414 85.9386
L141.2891 85.9863
" />
<path d="M141.2891 85.9863
L141.3367 86.0815
" />
<path d="M141.3367 86.0815
L141.3367 86.2244
" />
<path d="M141.3367 86.2244
L141.2891 86.3196
" />
<path d="M141.2891 86.3196
L141.2414 86.3672
" />
<path d="M141.2414 86.3672
L141.1462 86.4148
" />
<path d="M141.1462 86.4148
L140.7653 86.4148
" />
<path d="M141.8129 86.8910
L142.0034 86.8910
" />
<path d="M142.0034 86.8910
L142.0986 86.8434
" />
<path d="M142.0986 86.8434
L142.1462 86.7958
" />
<path d="M142.1462 86.7958
L142.2414 86.6529
" />
<path d="M142.2414 86.6529
L142.2891 86.4624
" />
<path d="M142.2891 86.4624
L142.2891 86.0815
" />
<path d="M142.2891 86.0815
L142.2414 85.9863
" />
<path d="M142.2414 85.9863
L142.1938 85.9386
" />
<path d="M142.1938 85.9386
L142.0986 85.8910
" />
<path d="M142.0986 85.8910
L141.9081 85.8910
" />
<path d="M141.9081 85.8910
L141.8129 85.9386
" />
<path d="M141.8129 85.9386
L141.7653 85.9863
" />
<path d="M141.7653 85.9863
L141.7176 86.0815
" />
<path d="M141.7176 86.0815
L141.7176 86.3196
" />
<path d="M141.7176 86.3196
L141.7653 86.4148
" />
<path d="M141.7653 86.4148
L141.8129 86.4624
" />
<path d="M141.8129 86.4624
L141.9081 86.5101
" />
<path d="M141.9081 86.5101
L142.0986 86.5101
" />
<path d="M142.0986 86.5101
L142.1938 86.4624
" />
<path d="M142.1938 86.4624
L142.2414 86.4148
" />
<path d="M142.2414 86.4148
L142.2891 86.3196
" />
</g></g> 
</svg>
