<?xml version="1.0" standalone="no"?>
 <!DOCTYPE svg PUBLIC "-//W3C//DTD SVG 1.1//EN" 
 "http://www.w3.org/Graphics/SVG/1.1/DTD/svg11.dtd"> 
<svg
  xmlns:svg="http://www.w3.org/2000/svg"
  xmlns="http://www.w3.org/2000/svg"
  xmlns:xlink="http://www.w3.org/1999/xlink"
  version="1.1"
  width="29.700220cm" height="21.000720cm" viewBox="0 0 297002200 210007200">
<title>SVG Picture created as t1-User_Drawings.svg date 2024/02/01 12:19:51 </title>
  <desc>Picture generated by PCBNEW </desc>
<g style="fill:#000000; fill-opacity:1.000000;stroke:#000000; stroke-opacity:1.000000;
stroke-linecap:round; stroke-linejoin:round;"
 transform="translate(0 0) scale(1 1)">
</g>
<g style="fill:#000000; fill-opacity:0.0; 
stroke:#000000; stroke-width:0.000000; stroke-opacity:1; 
stroke-linecap:round; stroke-linejoin:round;">
</g>
<g style="fill:#000000; fill-opacity:0.0; 
stroke:#000000; stroke-width:21200.000000; stroke-opacity:1; 
stroke-linecap:round; stroke-linejoin:round;">
</g>
<g style="fill:#000000; fill-opacity:0.0; 
stroke:#000000; stroke-width:150000.000000; stroke-opacity:1; 
stroke-linecap:round; stroke-linejoin:round;">
<rect x="177002200.000000" y="166007200.000000" width="108000000.000000" height="32000000.000000" rx="0.000000" />
</g>
<g style="fill:#000000; fill-opacity:0.0; 
stroke:#000000; stroke-width:21200.000000; stroke-opacity:1; 
stroke-linecap:round; stroke-linejoin:round;">
</g>
<g style="fill:#000000; fill-opacity:0.0; 
stroke:#000000; stroke-width:150000.000000; stroke-opacity:1; 
stroke-linecap:round; stroke-linejoin:round;">
<rect x="10000000.000000" y="10000000.000000" width="277002200.000000" height="190007200.000000" rx="0.000000" />
</g>
<g style="fill:#000000; fill-opacity:0.0; 
stroke:#000000; stroke-width:21200.000000; stroke-opacity:1; 
stroke-linecap:round; stroke-linejoin:round;">
</g>
<g style="fill:#000000; fill-opacity:0.0; 
stroke:#000000; stroke-width:150000.000000; stroke-opacity:1; 
stroke-linecap:round; stroke-linejoin:round;">
<rect x="12000000.000000" y="12000000.000000" width="273002200.000000" height="186007200.000000" rx="0.000000" />
</g>
<g style="fill:#000000; fill-opacity:0.0; 
stroke:#000000; stroke-width:21200.000000; stroke-opacity:1; 
stroke-linecap:round; stroke-linejoin:round;">
</g>
<g style="fill:#000000; fill-opacity:0.0; 
stroke:#000000; stroke-width:150000.000000; stroke-opacity:1; 
stroke-linecap:round; stroke-linejoin:round;">
<path d="M60000000 12000000
L60000000 10000000
" />
</g>
<g style="fill:#000000; fill-opacity:0.0; 
stroke:#000000; stroke-width:21200.000000; stroke-opacity:1; 
stroke-linecap:round; stroke-linejoin:round;">
</g>
<g style="fill:#000000; fill-opacity:0.0; 
stroke:#000000; stroke-width:150000.000000; stroke-opacity:1; 
stroke-linecap:round; stroke-linejoin:round;">
<path d="M110000000 12000000
L110000000 10000000
" />
</g>
<g style="fill:#000000; fill-opacity:0.0; 
stroke:#000000; stroke-width:21200.000000; stroke-opacity:1; 
stroke-linecap:round; stroke-linejoin:round;">
</g>
<g style="fill:#000000; fill-opacity:0.0; 
stroke:#000000; stroke-width:150000.000000; stroke-opacity:1; 
stroke-linecap:round; stroke-linejoin:round;">
<path d="M160000000 12000000
L160000000 10000000
" />
</g>
<g style="fill:#000000; fill-opacity:0.0; 
stroke:#000000; stroke-width:21200.000000; stroke-opacity:1; 
stroke-linecap:round; stroke-linejoin:round;">
</g>
<g style="fill:#000000; fill-opacity:0.0; 
stroke:#000000; stroke-width:150000.000000; stroke-opacity:1; 
stroke-linecap:round; stroke-linejoin:round;">
<path d="M210000000 12000000
L210000000 10000000
" />
</g>
<g style="fill:#000000; fill-opacity:0.0; 
stroke:#000000; stroke-width:21200.000000; stroke-opacity:1; 
stroke-linecap:round; stroke-linejoin:round;">
</g>
<g style="fill:#000000; fill-opacity:0.0; 
stroke:#000000; stroke-width:150000.000000; stroke-opacity:1; 
stroke-linecap:round; stroke-linejoin:round;">
<path d="M260000000 12000000
L260000000 10000000
" />
</g>
<g style="fill:#000000; fill-opacity:0.0; 
stroke:#000000; stroke-width:21200.000000; stroke-opacity:1; 
stroke-linecap:round; stroke-linejoin:round;">
</g>
<g style="fill:#000000; fill-opacity:0.0; 
stroke:#000000; stroke-width:150000.000000; stroke-opacity:1; 
stroke-linecap:round; stroke-linejoin:round;">
<text x="35000000.000000" y="11650000.000000"
textLength="1388095.000000" font-size="1733333.000000" lengthAdjust="spacingAndGlyphs"
text-anchor="start" opacity="0">1</text>
<g class="stroked-text"><desc>1</desc>
<path d="M36065476 11588095
L35322619 11588095
" />
<path d="M35694047 11588095
L35694047 10288095
L35570238 10473809
L35446428 10597619
L35322619 10659523
" />
</g></g>
<g style="fill:#000000; fill-opacity:0.0; 
stroke:#000000; stroke-width:21200.000000; stroke-opacity:1; 
stroke-linecap:round; stroke-linejoin:round;">
</g>
<g style="fill:#000000; fill-opacity:0.0; 
stroke:#000000; stroke-width:150000.000000; stroke-opacity:1; 
stroke-linecap:round; stroke-linejoin:round;">
<text x="85000000.000000" y="11650000.000000"
textLength="1388095.000000" font-size="1733333.000000" lengthAdjust="spacingAndGlyphs"
text-anchor="start" opacity="0">2</text>
<g class="stroked-text"><desc>2</desc>
<path d="M85322619 10411904
L85384523 10350000
L85508333 10288095
L85817857 10288095
L85941666 10350000
L86003571 10411904
L86065476 10535714
L86065476 10659523
L86003571 10845238
L85260714 11588095
L86065476 11588095
" />
</g></g>
<g style="fill:#000000; fill-opacity:0.0; 
stroke:#000000; stroke-width:21200.000000; stroke-opacity:1; 
stroke-linecap:round; stroke-linejoin:round;">
</g>
<g style="fill:#000000; fill-opacity:0.0; 
stroke:#000000; stroke-width:150000.000000; stroke-opacity:1; 
stroke-linecap:round; stroke-linejoin:round;">
<text x="135000000.000000" y="11650000.000000"
textLength="1388095.000000" font-size="1733333.000000" lengthAdjust="spacingAndGlyphs"
text-anchor="start" opacity="0">3</text>
<g class="stroked-text"><desc>3</desc>
<path d="M135260714 10288095
L136065476 10288095
L135632142 10783333
L135817857 10783333
L135941666 10845238
L136003571 10907142
L136065476 11030952
L136065476 11340476
L136003571 11464285
L135941666 11526190
L135817857 11588095
L135446428 11588095
L135322619 11526190
L135260714 11464285
" />
</g></g>
<g style="fill:#000000; fill-opacity:0.0; 
stroke:#000000; stroke-width:21200.000000; stroke-opacity:1; 
stroke-linecap:round; stroke-linejoin:round;">
</g>
<g style="fill:#000000; fill-opacity:0.0; 
stroke:#000000; stroke-width:150000.000000; stroke-opacity:1; 
stroke-linecap:round; stroke-linejoin:round;">
<text x="185000000.000000" y="11650000.000000"
textLength="1388095.000000" font-size="1733333.000000" lengthAdjust="spacingAndGlyphs"
text-anchor="start" opacity="0">4</text>
<g class="stroked-text"><desc>4</desc>
<path d="M185941666 10721428
L185941666 11588095
" />
<path d="M185632142 10226190
L185322619 11154761
L186127380 11154761
" />
</g></g>
<g style="fill:#000000; fill-opacity:0.0; 
stroke:#000000; stroke-width:21200.000000; stroke-opacity:1; 
stroke-linecap:round; stroke-linejoin:round;">
</g>
<g style="fill:#000000; fill-opacity:0.0; 
stroke:#000000; stroke-width:150000.000000; stroke-opacity:1; 
stroke-linecap:round; stroke-linejoin:round;">
<text x="235000000.000000" y="11650000.000000"
textLength="1388095.000000" font-size="1733333.000000" lengthAdjust="spacingAndGlyphs"
text-anchor="start" opacity="0">5</text>
<g class="stroked-text"><desc>5</desc>
<path d="M236003571 10288095
L235384523 10288095
L235322619 10907142
L235384523 10845238
L235508333 10783333
L235817857 10783333
L235941666 10845238
L236003571 10907142
L236065476 11030952
L236065476 11340476
L236003571 11464285
L235941666 11526190
L235817857 11588095
L235508333 11588095
L235384523 11526190
L235322619 11464285
" />
</g></g>
<g style="fill:#000000; fill-opacity:0.0; 
stroke:#000000; stroke-width:21200.000000; stroke-opacity:1; 
stroke-linecap:round; stroke-linejoin:round;">
</g>
<g style="fill:#000000; fill-opacity:0.0; 
stroke:#000000; stroke-width:150000.000000; stroke-opacity:1; 
stroke-linecap:round; stroke-linejoin:round;">
<text x="285000000.000000" y="11650000.000000"
textLength="1388095.000000" font-size="1733333.000000" lengthAdjust="spacingAndGlyphs"
text-anchor="start" opacity="0">6</text>
<g class="stroked-text"><desc>6</desc>
<path d="M285941666 10288095
L285694047 10288095
L285570238 10350000
L285508333 10411904
L285384523 10597619
L285322619 10845238
L285322619 11340476
L285384523 11464285
L285446428 11526190
L285570238 11588095
L285817857 11588095
L285941666 11526190
L286003571 11464285
L286065476 11340476
L286065476 11030952
L286003571 10907142
L285941666 10845238
L285817857 10783333
L285570238 10783333
L285446428 10845238
L285384523 10907142
L285322619 11030952
" />
</g></g>
<g style="fill:#000000; fill-opacity:0.0; 
stroke:#000000; stroke-width:21200.000000; stroke-opacity:1; 
stroke-linecap:round; stroke-linejoin:round;">
</g>
<g style="fill:#000000; fill-opacity:0.0; 
stroke:#000000; stroke-width:150000.000000; stroke-opacity:1; 
stroke-linecap:round; stroke-linejoin:round;">
<path d="M60000000 198007200
L60000000 200007200
" />
</g>
<g style="fill:#000000; fill-opacity:0.0; 
stroke:#000000; stroke-width:21200.000000; stroke-opacity:1; 
stroke-linecap:round; stroke-linejoin:round;">
</g>
<g style="fill:#000000; fill-opacity:0.0; 
stroke:#000000; stroke-width:150000.000000; stroke-opacity:1; 
stroke-linecap:round; stroke-linejoin:round;">
<path d="M110000000 198007200
L110000000 200007200
" />
</g>
<g style="fill:#000000; fill-opacity:0.0; 
stroke:#000000; stroke-width:21200.000000; stroke-opacity:1; 
stroke-linecap:round; stroke-linejoin:round;">
</g>
<g style="fill:#000000; fill-opacity:0.0; 
stroke:#000000; stroke-width:150000.000000; stroke-opacity:1; 
stroke-linecap:round; stroke-linejoin:round;">
<path d="M160000000 198007200
L160000000 200007200
" />
</g>
<g style="fill:#000000; fill-opacity:0.0; 
stroke:#000000; stroke-width:21200.000000; stroke-opacity:1; 
stroke-linecap:round; stroke-linejoin:round;">
</g>
<g style="fill:#000000; fill-opacity:0.0; 
stroke:#000000; stroke-width:150000.000000; stroke-opacity:1; 
stroke-linecap:round; stroke-linejoin:round;">
<path d="M210000000 198007200
L210000000 200007200
" />
</g>
<g style="fill:#000000; fill-opacity:0.0; 
stroke:#000000; stroke-width:21200.000000; stroke-opacity:1; 
stroke-linecap:round; stroke-linejoin:round;">
</g>
<g style="fill:#000000; fill-opacity:0.0; 
stroke:#000000; stroke-width:150000.000000; stroke-opacity:1; 
stroke-linecap:round; stroke-linejoin:round;">
<path d="M260000000 198007200
L260000000 200007200
" />
</g>
<g style="fill:#000000; fill-opacity:0.0; 
stroke:#000000; stroke-width:21200.000000; stroke-opacity:1; 
stroke-linecap:round; stroke-linejoin:round;">
</g>
<g style="fill:#000000; fill-opacity:0.0; 
stroke:#000000; stroke-width:150000.000000; stroke-opacity:1; 
stroke-linecap:round; stroke-linejoin:round;">
<text x="35000000.000000" y="199657200.000000"
textLength="1388095.000000" font-size="1733333.000000" lengthAdjust="spacingAndGlyphs"
text-anchor="start" opacity="0">1</text>
<g class="stroked-text"><desc>1</desc>
<path d="M36065476 199595295
L35322619 199595295
" />
<path d="M35694047 199595295
L35694047 198295295
L35570238 198481009
L35446428 198604819
L35322619 198666723
" />
</g></g>
<g style="fill:#000000; fill-opacity:0.0; 
stroke:#000000; stroke-width:21200.000000; stroke-opacity:1; 
stroke-linecap:round; stroke-linejoin:round;">
</g>
<g style="fill:#000000; fill-opacity:0.0; 
stroke:#000000; stroke-width:150000.000000; stroke-opacity:1; 
stroke-linecap:round; stroke-linejoin:round;">
<text x="85000000.000000" y="199657200.000000"
textLength="1388095.000000" font-size="1733333.000000" lengthAdjust="spacingAndGlyphs"
text-anchor="start" opacity="0">2</text>
<g class="stroked-text"><desc>2</desc>
<path d="M85322619 198419104
L85384523 198357200
L85508333 198295295
L85817857 198295295
L85941666 198357200
L86003571 198419104
L86065476 198542914
L86065476 198666723
L86003571 198852438
L85260714 199595295
L86065476 199595295
" />
</g></g>
<g style="fill:#000000; fill-opacity:0.0; 
stroke:#000000; stroke-width:21200.000000; stroke-opacity:1; 
stroke-linecap:round; stroke-linejoin:round;">
</g>
<g style="fill:#000000; fill-opacity:0.0; 
stroke:#000000; stroke-width:150000.000000; stroke-opacity:1; 
stroke-linecap:round; stroke-linejoin:round;">
<text x="135000000.000000" y="199657200.000000"
textLength="1388095.000000" font-size="1733333.000000" lengthAdjust="spacingAndGlyphs"
text-anchor="start" opacity="0">3</text>
<g class="stroked-text"><desc>3</desc>
<path d="M135260714 198295295
L136065476 198295295
L135632142 198790533
L135817857 198790533
L135941666 198852438
L136003571 198914342
L136065476 199038152
L136065476 199347676
L136003571 199471485
L135941666 199533390
L135817857 199595295
L135446428 199595295
L135322619 199533390
L135260714 199471485
" />
</g></g>
<g style="fill:#000000; fill-opacity:0.0; 
stroke:#000000; stroke-width:21200.000000; stroke-opacity:1; 
stroke-linecap:round; stroke-linejoin:round;">
</g>
<g style="fill:#000000; fill-opacity:0.0; 
stroke:#000000; stroke-width:150000.000000; stroke-opacity:1; 
stroke-linecap:round; stroke-linejoin:round;">
<text x="185000000.000000" y="199657200.000000"
textLength="1388095.000000" font-size="1733333.000000" lengthAdjust="spacingAndGlyphs"
text-anchor="start" opacity="0">4</text>
<g class="stroked-text"><desc>4</desc>
<path d="M185941666 198728628
L185941666 199595295
" />
<path d="M185632142 198233390
L185322619 199161961
L186127380 199161961
" />
</g></g>
<g style="fill:#000000; fill-opacity:0.0; 
stroke:#000000; stroke-width:21200.000000; stroke-opacity:1; 
stroke-linecap:round; stroke-linejoin:round;">
</g>
<g style="fill:#000000; fill-opacity:0.0; 
stroke:#000000; stroke-width:150000.000000; stroke-opacity:1; 
stroke-linecap:round; stroke-linejoin:round;">
<text x="235000000.000000" y="199657200.000000"
textLength="1388095.000000" font-size="1733333.000000" lengthAdjust="spacingAndGlyphs"
text-anchor="start" opacity="0">5</text>
<g class="stroked-text"><desc>5</desc>
<path d="M236003571 198295295
L235384523 198295295
L235322619 198914342
L235384523 198852438
L235508333 198790533
L235817857 198790533
L235941666 198852438
L236003571 198914342
L236065476 199038152
L236065476 199347676
L236003571 199471485
L235941666 199533390
L235817857 199595295
L235508333 199595295
L235384523 199533390
L235322619 199471485
" />
</g></g>
<g style="fill:#000000; fill-opacity:0.0; 
stroke:#000000; stroke-width:21200.000000; stroke-opacity:1; 
stroke-linecap:round; stroke-linejoin:round;">
</g>
<g style="fill:#000000; fill-opacity:0.0; 
stroke:#000000; stroke-width:150000.000000; stroke-opacity:1; 
stroke-linecap:round; stroke-linejoin:round;">
<text x="285000000.000000" y="199657200.000000"
textLength="1388095.000000" font-size="1733333.000000" lengthAdjust="spacingAndGlyphs"
text-anchor="start" opacity="0">6</text>
<g class="stroked-text"><desc>6</desc>
<path d="M285941666 198295295
L285694047 198295295
L285570238 198357200
L285508333 198419104
L285384523 198604819
L285322619 198852438
L285322619 199347676
L285384523 199471485
L285446428 199533390
L285570238 199595295
L285817857 199595295
L285941666 199533390
L286003571 199471485
L286065476 199347676
L286065476 199038152
L286003571 198914342
L285941666 198852438
L285817857 198790533
L285570238 198790533
L285446428 198852438
L285384523 198914342
L285322619 199038152
" />
</g></g>
<g style="fill:#000000; fill-opacity:0.0; 
stroke:#000000; stroke-width:21200.000000; stroke-opacity:1; 
stroke-linecap:round; stroke-linejoin:round;">
</g>
<g style="fill:#000000; fill-opacity:0.0; 
stroke:#000000; stroke-width:150000.000000; stroke-opacity:1; 
stroke-linecap:round; stroke-linejoin:round;">
<path d="M10000000 60000000
L12000000 60000000
" />
</g>
<g style="fill:#000000; fill-opacity:0.0; 
stroke:#000000; stroke-width:21200.000000; stroke-opacity:1; 
stroke-linecap:round; stroke-linejoin:round;">
</g>
<g style="fill:#000000; fill-opacity:0.0; 
stroke:#000000; stroke-width:150000.000000; stroke-opacity:1; 
stroke-linecap:round; stroke-linejoin:round;">
<path d="M10000000 110000000
L12000000 110000000
" />
</g>
<g style="fill:#000000; fill-opacity:0.0; 
stroke:#000000; stroke-width:21200.000000; stroke-opacity:1; 
stroke-linecap:round; stroke-linejoin:round;">
</g>
<g style="fill:#000000; fill-opacity:0.0; 
stroke:#000000; stroke-width:150000.000000; stroke-opacity:1; 
stroke-linecap:round; stroke-linejoin:round;">
<path d="M10000000 160000000
L12000000 160000000
" />
</g>
<g style="fill:#000000; fill-opacity:0.0; 
stroke:#000000; stroke-width:21200.000000; stroke-opacity:1; 
stroke-linecap:round; stroke-linejoin:round;">
</g>
<g style="fill:#000000; fill-opacity:0.0; 
stroke:#000000; stroke-width:150000.000000; stroke-opacity:1; 
stroke-linecap:round; stroke-linejoin:round;">
<text x="11000000.000000" y="35650000.000000"
textLength="1264286.000000" font-size="1733333.000000" lengthAdjust="spacingAndGlyphs"
text-anchor="middle" opacity="0">A</text>
<g class="stroked-text"><desc>A</desc>
<path d="M10690476 35216666
L11309523 35216666
" />
<path d="M10566666 35588095
L11000000 34288095
L11433333 35588095
" />
</g></g>
<g style="fill:#000000; fill-opacity:0.0; 
stroke:#000000; stroke-width:21200.000000; stroke-opacity:1; 
stroke-linecap:round; stroke-linejoin:round;">
</g>
<g style="fill:#000000; fill-opacity:0.0; 
stroke:#000000; stroke-width:150000.000000; stroke-opacity:1; 
stroke-linecap:round; stroke-linejoin:round;">
<text x="11000000.000000" y="85650000.000000"
textLength="1450000.000000" font-size="1733333.000000" lengthAdjust="spacingAndGlyphs"
text-anchor="middle" opacity="0">B</text>
<g class="stroked-text"><desc>B</desc>
<path d="M11092857 84907142
L11278571 84969047
L11340476 85030952
L11402380 85154761
L11402380 85340476
L11340476 85464285
L11278571 85526190
L11154761 85588095
L10659523 85588095
L10659523 84288095
L11092857 84288095
L11216666 84350000
L11278571 84411904
L11340476 84535714
L11340476 84659523
L11278571 84783333
L11216666 84845238
L11092857 84907142
L10659523 84907142
" />
</g></g>
<g style="fill:#000000; fill-opacity:0.0; 
stroke:#000000; stroke-width:21200.000000; stroke-opacity:1; 
stroke-linecap:round; stroke-linejoin:round;">
</g>
<g style="fill:#000000; fill-opacity:0.0; 
stroke:#000000; stroke-width:150000.000000; stroke-opacity:1; 
stroke-linecap:round; stroke-linejoin:round;">
<text x="11000000.000000" y="135650000.000000"
textLength="1450000.000000" font-size="1733333.000000" lengthAdjust="spacingAndGlyphs"
text-anchor="middle" opacity="0">C</text>
<g class="stroked-text"><desc>C</desc>
<path d="M11402380 135464285
L11340476 135526190
L11154761 135588095
L11030952 135588095
L10845238 135526190
L10721428 135402380
L10659523 135278571
L10597619 135030952
L10597619 134845238
L10659523 134597619
L10721428 134473809
L10845238 134350000
L11030952 134288095
L11154761 134288095
L11340476 134350000
L11402380 134411904
" />
</g></g>
<g style="fill:#000000; fill-opacity:0.0; 
stroke:#000000; stroke-width:21200.000000; stroke-opacity:1; 
stroke-linecap:round; stroke-linejoin:round;">
</g>
<g style="fill:#000000; fill-opacity:0.0; 
stroke:#000000; stroke-width:150000.000000; stroke-opacity:1; 
stroke-linecap:round; stroke-linejoin:round;">
<text x="11000000.000000" y="185650000.000000"
textLength="1450000.000000" font-size="1733333.000000" lengthAdjust="spacingAndGlyphs"
text-anchor="middle" opacity="0">D</text>
<g class="stroked-text"><desc>D</desc>
<path d="M10659523 185588095
L10659523 184288095
L10969047 184288095
L11154761 184350000
L11278571 184473809
L11340476 184597619
L11402380 184845238
L11402380 185030952
L11340476 185278571
L11278571 185402380
L11154761 185526190
L10969047 185588095
L10659523 185588095
" />
</g></g>
<g style="fill:#000000; fill-opacity:0.0; 
stroke:#000000; stroke-width:21200.000000; stroke-opacity:1; 
stroke-linecap:round; stroke-linejoin:round;">
</g>
<g style="fill:#000000; fill-opacity:0.0; 
stroke:#000000; stroke-width:150000.000000; stroke-opacity:1; 
stroke-linecap:round; stroke-linejoin:round;">
<path d="M287002200 60000000
L285002200 60000000
" />
</g>
<g style="fill:#000000; fill-opacity:0.0; 
stroke:#000000; stroke-width:21200.000000; stroke-opacity:1; 
stroke-linecap:round; stroke-linejoin:round;">
</g>
<g style="fill:#000000; fill-opacity:0.0; 
stroke:#000000; stroke-width:150000.000000; stroke-opacity:1; 
stroke-linecap:round; stroke-linejoin:round;">
<path d="M287002200 110000000
L285002200 110000000
" />
</g>
<g style="fill:#000000; fill-opacity:0.0; 
stroke:#000000; stroke-width:21200.000000; stroke-opacity:1; 
stroke-linecap:round; stroke-linejoin:round;">
</g>
<g style="fill:#000000; fill-opacity:0.0; 
stroke:#000000; stroke-width:150000.000000; stroke-opacity:1; 
stroke-linecap:round; stroke-linejoin:round;">
<path d="M287002200 160000000
L285002200 160000000
" />
</g>
<g style="fill:#000000; fill-opacity:0.0; 
stroke:#000000; stroke-width:21200.000000; stroke-opacity:1; 
stroke-linecap:round; stroke-linejoin:round;">
</g>
<g style="fill:#000000; fill-opacity:0.0; 
stroke:#000000; stroke-width:150000.000000; stroke-opacity:1; 
stroke-linecap:round; stroke-linejoin:round;">
<text x="286002200.000000" y="35650000.000000"
textLength="1264286.000000" font-size="1733333.000000" lengthAdjust="spacingAndGlyphs"
text-anchor="middle" opacity="0">A</text>
<g class="stroked-text"><desc>A</desc>
<path d="M285692676 35216666
L286311723 35216666
" />
<path d="M285568866 35588095
L286002200 34288095
L286435533 35588095
" />
</g></g>
<g style="fill:#000000; fill-opacity:0.0; 
stroke:#000000; stroke-width:21200.000000; stroke-opacity:1; 
stroke-linecap:round; stroke-linejoin:round;">
</g>
<g style="fill:#000000; fill-opacity:0.0; 
stroke:#000000; stroke-width:150000.000000; stroke-opacity:1; 
stroke-linecap:round; stroke-linejoin:round;">
<text x="286002200.000000" y="85650000.000000"
textLength="1450000.000000" font-size="1733333.000000" lengthAdjust="spacingAndGlyphs"
text-anchor="middle" opacity="0">B</text>
<g class="stroked-text"><desc>B</desc>
<path d="M286095057 84907142
L286280771 84969047
L286342676 85030952
L286404580 85154761
L286404580 85340476
L286342676 85464285
L286280771 85526190
L286156961 85588095
L285661723 85588095
L285661723 84288095
L286095057 84288095
L286218866 84350000
L286280771 84411904
L286342676 84535714
L286342676 84659523
L286280771 84783333
L286218866 84845238
L286095057 84907142
L285661723 84907142
" />
</g></g>
<g style="fill:#000000; fill-opacity:0.0; 
stroke:#000000; stroke-width:21200.000000; stroke-opacity:1; 
stroke-linecap:round; stroke-linejoin:round;">
</g>
<g style="fill:#000000; fill-opacity:0.0; 
stroke:#000000; stroke-width:150000.000000; stroke-opacity:1; 
stroke-linecap:round; stroke-linejoin:round;">
<text x="286002200.000000" y="135650000.000000"
textLength="1450000.000000" font-size="1733333.000000" lengthAdjust="spacingAndGlyphs"
text-anchor="middle" opacity="0">C</text>
<g class="stroked-text"><desc>C</desc>
<path d="M286404580 135464285
L286342676 135526190
L286156961 135588095
L286033152 135588095
L285847438 135526190
L285723628 135402380
L285661723 135278571
L285599819 135030952
L285599819 134845238
L285661723 134597619
L285723628 134473809
L285847438 134350000
L286033152 134288095
L286156961 134288095
L286342676 134350000
L286404580 134411904
" />
</g></g>
<g style="fill:#000000; fill-opacity:0.0; 
stroke:#000000; stroke-width:21200.000000; stroke-opacity:1; 
stroke-linecap:round; stroke-linejoin:round;">
</g>
<g style="fill:#000000; fill-opacity:0.0; 
stroke:#000000; stroke-width:150000.000000; stroke-opacity:1; 
stroke-linecap:round; stroke-linejoin:round;">
<text x="286002200.000000" y="185650000.000000"
textLength="1450000.000000" font-size="1733333.000000" lengthAdjust="spacingAndGlyphs"
text-anchor="middle" opacity="0">D</text>
<g class="stroked-text"><desc>D</desc>
<path d="M285661723 185588095
L285661723 184288095
L285971247 184288095
L286156961 184350000
L286280771 184473809
L286342676 184597619
L286404580 184845238
L286404580 185030952
L286342676 185278571
L286280771 185402380
L286156961 185526190
L285971247 185588095
L285661723 185588095
" />
</g></g>
<g style="fill:#000000; fill-opacity:0.0; 
stroke:#000000; stroke-width:21200.000000; stroke-opacity:1; 
stroke-linecap:round; stroke-linejoin:round;">
</g>
<g style="fill:#000000; fill-opacity:0.0; 
stroke:#000000; stroke-width:150000.000000; stroke-opacity:1; 
stroke-linecap:round; stroke-linejoin:round;">
<text x="200002200.000000" y="193857200.000000"
textLength="7007143.000000" font-size="2000000.000000" lengthAdjust="spacingAndGlyphs"
text-anchor="start" opacity="0">Date: </text>
<g class="stroked-text"><desc>Date: </desc>
<path d="M200434342 193785771
L200434342 192285771
L200791485 192285771
L201005771 192357200
L201148628 192500057
L201220057 192642914
L201291485 192928628
L201291485 193142914
L201220057 193428628
L201148628 193571485
L201005771 193714342
L200791485 193785771
L200434342 193785771
" />
<path d="M202577200 193785771
L202577200 193000057
L202505771 192857200
L202362914 192785771
L202077200 192785771
L201934342 192857200
" />
<path d="M202577200 193714342
L202434342 193785771
L202077200 193785771
L201934342 193714342
L201862914 193571485
L201862914 193428628
L201934342 193285771
L202077200 193214342
L202434342 193214342
L202577200 193142914
" />
<path d="M203077200 192785771
L203648628 192785771
" />
<path d="M203291485 192285771
L203291485 193571485
L203362914 193714342
L203505771 193785771
L203648628 193785771
" />
<path d="M204720057 193714342
L204577200 193785771
L204291485 193785771
L204148628 193714342
L204077200 193571485
L204077200 193000057
L204148628 192857200
L204291485 192785771
L204577200 192785771
L204720057 192857200
L204791485 193000057
L204791485 193142914
L204077200 193285771
" />
<path d="M205434342 193642914
L205505771 193714342
L205434342 193785771
L205362914 193714342
L205434342 193642914
L205434342 193785771
" />
<path d="M205434342 192857200
L205505771 192928628
L205434342 193000057
L205362914 192928628
L205434342 192857200
L205434342 193000057
" />
</g></g>
<g style="fill:#000000; fill-opacity:0.0; 
stroke:#000000; stroke-width:21200.000000; stroke-opacity:1; 
stroke-linecap:round; stroke-linejoin:round;">
</g>
<g style="fill:#000000; fill-opacity:0.0; 
stroke:#000000; stroke-width:150000.000000; stroke-opacity:1; 
stroke-linecap:round; stroke-linejoin:round;">
<path d="M177002200 194507200
L285002200 194507200
" />
</g>
<g style="fill:#000000; fill-opacity:0.0; 
stroke:#000000; stroke-width:21200.000000; stroke-opacity:1; 
stroke-linecap:round; stroke-linejoin:round;">
</g>
<g style="fill:#000000; fill-opacity:0.0; 
stroke:#000000; stroke-width:150000.000000; stroke-opacity:1; 
stroke-linecap:round; stroke-linejoin:round;">
<text x="178002200.000000" y="196657200.000000"
textLength="20650000.000000" font-size="2000000.000000" lengthAdjust="spacingAndGlyphs"
text-anchor="start" opacity="0">${KICAD_VERSION}</text>
<g class="stroked-text"><desc>${KICAD_VERSION}</desc>
<path d="M178362914 196514342
L178577200 196585771
L178934342 196585771
L179077200 196514342
L179148628 196442914
L179220057 196300057
L179220057 196157200
L179148628 196014342
L179077200 195942914
L178934342 195871485
L178648628 195800057
L178505771 195728628
L178434342 195657200
L178362914 195514342
L178362914 195371485
L178434342 195228628
L178505771 195157200
L178648628 195085771
L179005771 195085771
L179220057 195157200
" />
<path d="M178791485 194871485
L178791485 196800057
" />
<path d="M180291485 197157200
L180220057 197157200
L180077200 197085771
L180005771 196942914
L180005771 196228628
L179934342 196085771
L179791485 196014342
L179934342 195942914
L180005771 195800057
L180005771 195085771
L180077200 194942914
L180220057 194871485
L180291485 194871485
" />
<path d="M180862914 196585771
L180862914 195085771
" />
<path d="M181720057 196585771
L181077200 195728628
" />
<path d="M181720057 195085771
L180862914 195942914
" />
<path d="M182362914 196585771
L182362914 195085771
" />
<path d="M183934342 196442914
L183862914 196514342
L183648628 196585771
L183505771 196585771
L183291485 196514342
L183148628 196371485
L183077200 196228628
L183005771 195942914
L183005771 195728628
L183077200 195442914
L183148628 195300057
L183291485 195157200
L183505771 195085771
L183648628 195085771
L183862914 195157200
L183934342 195228628
" />
<path d="M184505771 196157200
L185220057 196157200
" />
<path d="M184362914 196585771
L184862914 195085771
L185362914 196585771
" />
<path d="M185862914 196585771
L185862914 195085771
L186220057 195085771
L186434342 195157200
L186577200 195300057
L186648628 195442914
L186720057 195728628
L186720057 195942914
L186648628 196228628
L186577200 196371485
L186434342 196514342
L186220057 196585771
L185862914 196585771
" />
<path d="M187005771 196728628
L188148628 196728628
" />
<path d="M188291485 195085771
L188791485 196585771
L189291485 195085771
" />
<path d="M189791485 195800057
L190291485 195800057
" />
<path d="M190505771 196585771
L189791485 196585771
L189791485 195085771
L190505771 195085771
" />
<path d="M192005771 196585771
L191505771 195871485
" />
<path d="M191148628 196585771
L191148628 195085771
L191720057 195085771
L191862914 195157200
L191934342 195228628
L192005771 195371485
L192005771 195585771
L191934342 195728628
L191862914 195800057
L191720057 195871485
L191148628 195871485
" />
<path d="M192577200 196514342
L192791485 196585771
L193148628 196585771
L193291485 196514342
L193362914 196442914
L193434342 196300057
L193434342 196157200
L193362914 196014342
L193291485 195942914
L193148628 195871485
L192862914 195800057
L192720057 195728628
L192648628 195657200
L192577200 195514342
L192577200 195371485
L192648628 195228628
L192720057 195157200
L192862914 195085771
L193220057 195085771
L193434342 195157200
" />
<path d="M194077200 196585771
L194077200 195085771
" />
<path d="M195077200 195085771
L195362914 195085771
L195505771 195157200
L195648628 195300057
L195720057 195585771
L195720057 196085771
L195648628 196371485
L195505771 196514342
L195362914 196585771
L195077200 196585771
L194934342 196514342
L194791485 196371485
L194720057 196085771
L194720057 195585771
L194791485 195300057
L194934342 195157200
L195077200 195085771
" />
<path d="M196362914 196585771
L196362914 195085771
L197220057 196585771
L197220057 195085771
" />
<path d="M197791485 197157200
L197862914 197157200
L198005771 197085771
L198077200 196942914
L198077200 196228628
L198148628 196085771
L198291485 196014342
L198148628 195942914
L198077200 195800057
L198077200 195085771
L198005771 194942914
L197862914 194871485
L197791485 194871485
" />
</g></g>
<g style="fill:#000000; fill-opacity:0.0; 
stroke:#000000; stroke-width:21200.000000; stroke-opacity:1; 
stroke-linecap:round; stroke-linejoin:round;">
</g>
<g style="fill:#000000; fill-opacity:0.0; 
stroke:#000000; stroke-width:150000.000000; stroke-opacity:1; 
stroke-linecap:round; stroke-linejoin:round;">
<path d="M177002200 191507200
L285002200 191507200
" />
</g>
<g style="fill:#000000; fill-opacity:0.0; 
stroke:#000000; stroke-width:21200.000000; stroke-opacity:1; 
stroke-linecap:round; stroke-linejoin:round;">
</g>
<g style="fill:#000000; fill-opacity:0.0; 
stroke:#000000; stroke-width:300000.000000; stroke-opacity:1; 
stroke-linecap:round; stroke-linejoin:round;">
<text x="263002200.000000" y="193857200.000000"
textLength="18721429.000000" font-size="2000000.000000" lengthAdjust="spacingAndGlyphs"
text-anchor="start" opacity="0">Rev: ${git_hash}</text>
<g class="stroked-text"><desc>Rev: ${git_hash}</desc>
<path d="M264411485 193785771
L263911485 193071485
" />
<path d="M263554342 193785771
L263554342 192285771
L264125771 192285771
L264268628 192357200
L264340057 192428628
L264411485 192571485
L264411485 192785771
L264340057 192928628
L264268628 193000057
L264125771 193071485
L263554342 193071485
" />
<path d="M265625771 193714342
L265482914 193785771
L265197200 193785771
L265054342 193714342
L264982914 193571485
L264982914 193000057
L265054342 192857200
L265197200 192785771
L265482914 192785771
L265625771 192857200
L265697200 193000057
L265697200 193142914
L264982914 193285771
" />
<path d="M266197200 192785771
L266554342 193785771
L266911485 192785771
" />
<path d="M267482914 193642914
L267554342 193714342
L267482914 193785771
L267411485 193714342
L267482914 193642914
L267482914 193785771
" />
<path d="M267482914 192857200
L267554342 192928628
L267482914 193000057
L267411485 192928628
L267482914 192857200
L267482914 193000057
" />
<path d="M269268628 193714342
L269482914 193785771
L269840057 193785771
L269982914 193714342
L270054342 193642914
L270125771 193500057
L270125771 193357200
L270054342 193214342
L269982914 193142914
L269840057 193071485
L269554342 193000057
L269411485 192928628
L269340057 192857200
L269268628 192714342
L269268628 192571485
L269340057 192428628
L269411485 192357200
L269554342 192285771
L269911485 192285771
L270125771 192357200
" />
<path d="M269697200 192071485
L269697200 194000057
" />
<path d="M271197200 194357200
L271125771 194357200
L270982914 194285771
L270911485 194142914
L270911485 193428628
L270840057 193285771
L270697200 193214342
L270840057 193142914
L270911485 193000057
L270911485 192285771
L270982914 192142914
L271125771 192071485
L271197200 192071485
" />
<path d="M272411485 192785771
L272411485 194000057
L272340057 194142914
L272268628 194214342
L272125771 194285771
L271911485 194285771
L271768628 194214342
" />
<path d="M272411485 193714342
L272268628 193785771
L271982914 193785771
L271840057 193714342
L271768628 193642914
L271697200 193500057
L271697200 193071485
L271768628 192928628
L271840057 192857200
L271982914 192785771
L272268628 192785771
L272411485 192857200
" />
<path d="M273125771 193785771
L273125771 192785771
" />
<path d="M273125771 192285771
L273054342 192357200
L273125771 192428628
L273197200 192357200
L273125771 192285771
L273125771 192428628
" />
<path d="M273625771 192785771
L274197200 192785771
" />
<path d="M273840057 192285771
L273840057 193571485
L273911485 193714342
L274054342 193785771
L274197200 193785771
" />
<path d="M274340057 193928628
L275482914 193928628
" />
<path d="M275840057 193785771
L275840057 192285771
" />
<path d="M276482914 193785771
L276482914 193000057
L276411485 192857200
L276268628 192785771
L276054342 192785771
L275911485 192857200
L275840057 192928628
" />
<path d="M277840057 193785771
L277840057 193000057
L277768628 192857200
L277625771 192785771
L277340057 192785771
L277197200 192857200
" />
<path d="M277840057 193714342
L277697200 193785771
L277340057 193785771
L277197200 193714342
L277125771 193571485
L277125771 193428628
L277197200 193285771
L277340057 193214342
L277697200 193214342
L277840057 193142914
" />
<path d="M278482914 193714342
L278625771 193785771
L278911485 193785771
L279054342 193714342
L279125771 193571485
L279125771 193500057
L279054342 193357200
L278911485 193285771
L278697200 193285771
L278554342 193214342
L278482914 193071485
L278482914 193000057
L278554342 192857200
L278697200 192785771
L278911485 192785771
L279054342 192857200
" />
<path d="M279768628 193785771
L279768628 192285771
" />
<path d="M280411485 193785771
L280411485 193000057
L280340057 192857200
L280197200 192785771
L279982914 192785771
L279840057 192857200
L279768628 192928628
" />
<path d="M280982914 194357200
L281054342 194357200
L281197200 194285771
L281268628 194142914
L281268628 193428628
L281340057 193285771
L281482914 193214342
L281340057 193142914
L281268628 193000057
L281268628 192285771
L281197200 192142914
L281054342 192071485
L280982914 192071485
" />
</g></g>
<g style="fill:#000000; fill-opacity:0.0; 
stroke:#000000; stroke-width:21200.000000; stroke-opacity:1; 
stroke-linecap:round; stroke-linejoin:round;">
</g>
<g style="fill:#000000; fill-opacity:0.0; 
stroke:#000000; stroke-width:150000.000000; stroke-opacity:1; 
stroke-linecap:round; stroke-linejoin:round;">
<text x="178002200.000000" y="193857200.000000"
textLength="9604286.000000" font-size="2000000.000000" lengthAdjust="spacingAndGlyphs"
text-anchor="start" opacity="0">Size: A4</text>
<g class="stroked-text"><desc>Size: A4</desc>
<path d="M178362914 193714342
L178577200 193785771
L178934342 193785771
L179077200 193714342
L179148628 193642914
L179220057 193500057
L179220057 193357200
L179148628 193214342
L179077200 193142914
L178934342 193071485
L178648628 193000057
L178505771 192928628
L178434342 192857200
L178362914 192714342
L178362914 192571485
L178434342 192428628
L178505771 192357200
L178648628 192285771
L179005771 192285771
L179220057 192357200
" />
<path d="M179862914 193785771
L179862914 192785771
" />
<path d="M179862914 192285771
L179791485 192357200
L179862914 192428628
L179934342 192357200
L179862914 192285771
L179862914 192428628
" />
<path d="M180434342 192785771
L181220057 192785771
L180434342 193785771
L181220057 193785771
" />
<path d="M182362914 193714342
L182220057 193785771
L181934342 193785771
L181791485 193714342
L181720057 193571485
L181720057 193000057
L181791485 192857200
L181934342 192785771
L182220057 192785771
L182362914 192857200
L182434342 193000057
L182434342 193142914
L181720057 193285771
" />
<path d="M183077200 193642914
L183148628 193714342
L183077200 193785771
L183005771 193714342
L183077200 193642914
L183077200 193785771
" />
<path d="M183077200 192857200
L183148628 192928628
L183077200 193000057
L183005771 192928628
L183077200 192857200
L183077200 193000057
" />
<path d="M184862914 193357200
L185577200 193357200
" />
<path d="M184720057 193785771
L185220057 192285771
L185720057 193785771
" />
<path d="M186862914 192785771
L186862914 193785771
" />
<path d="M186505771 192214342
L186148628 193285771
L187077200 193285771
" />
</g></g>
<g style="fill:#000000; fill-opacity:0.0; 
stroke:#000000; stroke-width:21200.000000; stroke-opacity:1; 
stroke-linecap:round; stroke-linejoin:round;">
</g>
<g style="fill:#000000; fill-opacity:0.0; 
stroke:#000000; stroke-width:150000.000000; stroke-opacity:1; 
stroke-linecap:round; stroke-linejoin:round;">
<text x="263002200.000000" y="196657200.000000"
textLength="8507143.000000" font-size="2000000.000000" lengthAdjust="spacingAndGlyphs"
text-anchor="start" opacity="0">Id: 1/1</text>
<g class="stroked-text"><desc>Id: 1/1</desc>
<path d="M263434342 196585771
L263434342 195085771
" />
<path d="M264791485 196585771
L264791485 195085771
" />
<path d="M264791485 196514342
L264648628 196585771
L264362914 196585771
L264220057 196514342
L264148628 196442914
L264077200 196300057
L264077200 195871485
L264148628 195728628
L264220057 195657200
L264362914 195585771
L264648628 195585771
L264791485 195657200
" />
<path d="M265505771 196442914
L265577200 196514342
L265505771 196585771
L265434342 196514342
L265505771 196442914
L265505771 196585771
" />
<path d="M265505771 195657200
L265577200 195728628
L265505771 195800057
L265434342 195728628
L265505771 195657200
L265505771 195800057
" />
<path d="M268148628 196585771
L267291485 196585771
" />
<path d="M267720057 196585771
L267720057 195085771
L267577200 195300057
L267434342 195442914
L267291485 195514342
" />
<path d="M269862914 195014342
L268577200 196942914
" />
<path d="M271148628 196585771
L270291485 196585771
" />
<path d="M270720057 196585771
L270720057 195085771
L270577200 195300057
L270434342 195442914
L270291485 195514342
" />
</g></g>
<g style="fill:#000000; fill-opacity:0.0; 
stroke:#000000; stroke-width:21200.000000; stroke-opacity:1; 
stroke-linecap:round; stroke-linejoin:round;">
</g>
<g style="fill:#000000; fill-opacity:0.0; 
stroke:#000000; stroke-width:150000.000000; stroke-opacity:1; 
stroke-linecap:round; stroke-linejoin:round;">
<path d="M177002200 187507200
L285002200 187507200
" />
</g>
<g style="fill:#000000; fill-opacity:0.0; 
stroke:#000000; stroke-width:21200.000000; stroke-opacity:1; 
stroke-linecap:round; stroke-linejoin:round;">
</g>
<g style="fill:#000000; fill-opacity:0.0; 
stroke:#000000; stroke-width:400000.000000; stroke-opacity:1; 
stroke-linecap:round; stroke-linejoin:round;">
<text x="178002200.000000" y="190307200.000000"
textLength="9409643.000000" font-size="2666666.000000" lengthAdjust="spacingAndGlyphs"
text-anchor="start" opacity="0">Title: </text>
<g class="stroked-text"><desc>Title: </desc>
<path d="M178714580 188211961
L179857438 188211961
" />
<path d="M179036009 190211961
L179286009 188211961
" />
<path d="M180274104 190211961
L180440771 188878628
" />
<path d="M180524104 188211961
L180416961 188307200
L180500295 188402438
L180607438 188307200
L180524104 188211961
L180500295 188402438
" />
<path d="M181107438 188878628
L181869342 188878628
" />
<path d="M181476485 188211961
L181262200 189926247
L181333628 190116723
L181512200 190211961
L181702676 190211961
" />
<path d="M182655057 190211961
L182476485 190116723
L182405057 189926247
L182619342 188211961
" />
<path d="M184190771 190116723
L183988390 190211961
L183607438 190211961
L183428866 190116723
L183357438 189926247
L183452676 189164342
L183571723 188973866
L183774104 188878628
L184155057 188878628
L184333628 188973866
L184405057 189164342
L184381247 189354819
L183405057 189545295
" />
<path d="M185155057 190021485
L185238390 190116723
L185131247 190211961
L185047914 190116723
L185155057 190021485
L185131247 190211961
" />
<path d="M185286009 188973866
L185369342 189069104
L185262200 189164342
L185178866 189069104
L185286009 188973866
L185262200 189164342
" />
</g></g>
<g style="fill:#000000; fill-opacity:0.0; 
stroke:#000000; stroke-width:21200.000000; stroke-opacity:1; 
stroke-linecap:round; stroke-linejoin:round;">
</g>
<g style="fill:#000000; fill-opacity:0.0; 
stroke:#000000; stroke-width:150000.000000; stroke-opacity:1; 
stroke-linecap:round; stroke-linejoin:round;">
<text x="178002200.000000" y="186457200.000000"
textLength="20520000.000000" font-size="2000000.000000" lengthAdjust="spacingAndGlyphs"
text-anchor="start" opacity="0">File: t1.kicad_pcb</text>
<g class="stroked-text"><desc>File: t1.kicad_pcb</desc>
<path d="M178934342 185600057
L178434342 185600057
" />
<path d="M178434342 186385771
L178434342 184885771
L179148628 184885771
" />
<path d="M179720057 186385771
L179720057 185385771
" />
<path d="M179720057 184885771
L179648628 184957200
L179720057 185028628
L179791485 184957200
L179720057 184885771
L179720057 185028628
" />
<path d="M180648628 186385771
L180505771 186314342
L180434342 186171485
L180434342 184885771
" />
<path d="M181791485 186314342
L181648628 186385771
L181362914 186385771
L181220057 186314342
L181148628 186171485
L181148628 185600057
L181220057 185457200
L181362914 185385771
L181648628 185385771
L181791485 185457200
L181862914 185600057
L181862914 185742914
L181148628 185885771
" />
<path d="M182505771 186242914
L182577200 186314342
L182505771 186385771
L182434342 186314342
L182505771 186242914
L182505771 186385771
" />
<path d="M182505771 185457200
L182577200 185528628
L182505771 185600057
L182434342 185528628
L182505771 185457200
L182505771 185600057
" />
<path d="M184148628 185385771
L184720057 185385771
" />
<path d="M184362914 184885771
L184362914 186171485
L184434342 186314342
L184577200 186385771
L184720057 186385771
" />
<path d="M186005771 186385771
L185148628 186385771
" />
<path d="M185577200 186385771
L185577200 184885771
L185434342 185100057
L185291485 185242914
L185148628 185314342
" />
<path d="M186648628 186242914
L186720057 186314342
L186648628 186385771
L186577200 186314342
L186648628 186242914
L186648628 186385771
" />
<path d="M187362914 186385771
L187362914 184885771
" />
<path d="M187505771 185814342
L187934342 186385771
" />
<path d="M187934342 185385771
L187362914 185957200
" />
<path d="M188577200 186385771
L188577200 185385771
" />
<path d="M188577200 184885771
L188505771 184957200
L188577200 185028628
L188648628 184957200
L188577200 184885771
L188577200 185028628
" />
<path d="M189934342 186314342
L189791485 186385771
L189505771 186385771
L189362914 186314342
L189291485 186242914
L189220057 186100057
L189220057 185671485
L189291485 185528628
L189362914 185457200
L189505771 185385771
L189791485 185385771
L189934342 185457200
" />
<path d="M191220057 186385771
L191220057 185600057
L191148628 185457200
L191005771 185385771
L190720057 185385771
L190577200 185457200
" />
<path d="M191220057 186314342
L191077200 186385771
L190720057 186385771
L190577200 186314342
L190505771 186171485
L190505771 186028628
L190577200 185885771
L190720057 185814342
L191077200 185814342
L191220057 185742914
" />
<path d="M192577200 186385771
L192577200 184885771
" />
<path d="M192577200 186314342
L192434342 186385771
L192148628 186385771
L192005771 186314342
L191934342 186242914
L191862914 186100057
L191862914 185671485
L191934342 185528628
L192005771 185457200
L192148628 185385771
L192434342 185385771
L192577200 185457200
" />
<path d="M192934342 186528628
L194077200 186528628
" />
<path d="M194434342 185385771
L194434342 186885771
" />
<path d="M194434342 185457200
L194577200 185385771
L194862914 185385771
L195005771 185457200
L195077200 185528628
L195148628 185671485
L195148628 186100057
L195077200 186242914
L195005771 186314342
L194862914 186385771
L194577200 186385771
L194434342 186314342
" />
<path d="M196434342 186314342
L196291485 186385771
L196005771 186385771
L195862914 186314342
L195791485 186242914
L195720057 186100057
L195720057 185671485
L195791485 185528628
L195862914 185457200
L196005771 185385771
L196291485 185385771
L196434342 185457200
" />
<path d="M197077200 186385771
L197077200 184885771
" />
<path d="M197077200 185457200
L197220057 185385771
L197505771 185385771
L197648628 185457200
L197720057 185528628
L197791485 185671485
L197791485 186100057
L197720057 186242914
L197648628 186314342
L197505771 186385771
L197220057 186385771
L197077200 186314342
" />
</g></g>
<g style="fill:#000000; fill-opacity:0.0; 
stroke:#000000; stroke-width:21200.000000; stroke-opacity:1; 
stroke-linecap:round; stroke-linejoin:round;">
</g>
<g style="fill:#000000; fill-opacity:0.0; 
stroke:#000000; stroke-width:150000.000000; stroke-opacity:1; 
stroke-linecap:round; stroke-linejoin:round;">
<path d="M177002200 181507200
L285002200 181507200
" />
</g>
<g style="fill:#000000; fill-opacity:0.0; 
stroke:#000000; stroke-width:21200.000000; stroke-opacity:1; 
stroke-linecap:round; stroke-linejoin:round;">
</g>
<g style="fill:#000000; fill-opacity:0.0; 
stroke:#000000; stroke-width:150000.000000; stroke-opacity:1; 
stroke-linecap:round; stroke-linejoin:round;">
<text x="178002200.000000" y="183757200.000000"
textLength="23935714.000000" font-size="2000000.000000" lengthAdjust="spacingAndGlyphs"
text-anchor="start" opacity="0">Sheet: User.Drawings</text>
<g class="stroked-text"><desc>Sheet: User.Drawings</desc>
<path d="M178362914 183614342
L178577200 183685771
L178934342 183685771
L179077200 183614342
L179148628 183542914
L179220057 183400057
L179220057 183257200
L179148628 183114342
L179077200 183042914
L178934342 182971485
L178648628 182900057
L178505771 182828628
L178434342 182757200
L178362914 182614342
L178362914 182471485
L178434342 182328628
L178505771 182257200
L178648628 182185771
L179005771 182185771
L179220057 182257200
" />
<path d="M179862914 183685771
L179862914 182185771
" />
<path d="M180505771 183685771
L180505771 182900057
L180434342 182757200
L180291485 182685771
L180077200 182685771
L179934342 182757200
L179862914 182828628
" />
<path d="M181791485 183614342
L181648628 183685771
L181362914 183685771
L181220057 183614342
L181148628 183471485
L181148628 182900057
L181220057 182757200
L181362914 182685771
L181648628 182685771
L181791485 182757200
L181862914 182900057
L181862914 183042914
L181148628 183185771
" />
<path d="M183077200 183614342
L182934342 183685771
L182648628 183685771
L182505771 183614342
L182434342 183471485
L182434342 182900057
L182505771 182757200
L182648628 182685771
L182934342 182685771
L183077200 182757200
L183148628 182900057
L183148628 183042914
L182434342 183185771
" />
<path d="M183577200 182685771
L184148628 182685771
" />
<path d="M183791485 182185771
L183791485 183471485
L183862914 183614342
L184005771 183685771
L184148628 183685771
" />
<path d="M184648628 183542914
L184720057 183614342
L184648628 183685771
L184577200 183614342
L184648628 183542914
L184648628 183685771
" />
<path d="M184648628 182757200
L184720057 182828628
L184648628 182900057
L184577200 182828628
L184648628 182757200
L184648628 182900057
" />
<path d="M186505771 182185771
L186505771 183400057
L186577200 183542914
L186648628 183614342
L186791485 183685771
L187077200 183685771
L187220057 183614342
L187291485 183542914
L187362914 183400057
L187362914 182185771
" />
<path d="M188005771 183614342
L188148628 183685771
L188434342 183685771
L188577200 183614342
L188648628 183471485
L188648628 183400057
L188577200 183257200
L188434342 183185771
L188220057 183185771
L188077200 183114342
L188005771 182971485
L188005771 182900057
L188077200 182757200
L188220057 182685771
L188434342 182685771
L188577200 182757200
" />
<path d="M189862914 183614342
L189720057 183685771
L189434342 183685771
L189291485 183614342
L189220057 183471485
L189220057 182900057
L189291485 182757200
L189434342 182685771
L189720057 182685771
L189862914 182757200
L189934342 182900057
L189934342 183042914
L189220057 183185771
" />
<path d="M190577200 183685771
L190577200 182685771
" />
<path d="M190577200 182971485
L190648628 182828628
L190720057 182757200
L190862914 182685771
L191005771 182685771
" />
<path d="M191505771 183542914
L191577200 183614342
L191505771 183685771
L191434342 183614342
L191505771 183542914
L191505771 183685771
" />
<path d="M192220057 183685771
L192220057 182185771
L192577200 182185771
L192791485 182257200
L192934342 182400057
L193005771 182542914
L193077200 182828628
L193077200 183042914
L193005771 183328628
L192934342 183471485
L192791485 183614342
L192577200 183685771
L192220057 183685771
" />
<path d="M193720057 183685771
L193720057 182685771
" />
<path d="M193720057 182971485
L193791485 182828628
L193862914 182757200
L194005771 182685771
L194148628 182685771
" />
<path d="M195291485 183685771
L195291485 182900057
L195220057 182757200
L195077200 182685771
L194791485 182685771
L194648628 182757200
" />
<path d="M195291485 183614342
L195148628 183685771
L194791485 183685771
L194648628 183614342
L194577200 183471485
L194577200 183328628
L194648628 183185771
L194791485 183114342
L195148628 183114342
L195291485 183042914
" />
<path d="M195862914 182685771
L196148628 183685771
L196434342 182971485
L196720057 183685771
L197005771 182685771
" />
<path d="M197577200 183685771
L197577200 182685771
" />
<path d="M197577200 182185771
L197505771 182257200
L197577200 182328628
L197648628 182257200
L197577200 182185771
L197577200 182328628
" />
<path d="M198291485 182685771
L198291485 183685771
" />
<path d="M198291485 182828628
L198362914 182757200
L198505771 182685771
L198720057 182685771
L198862914 182757200
L198934342 182900057
L198934342 183685771
" />
<path d="M200291485 182685771
L200291485 183900057
L200220057 184042914
L200148628 184114342
L200005771 184185771
L199791485 184185771
L199648628 184114342
" />
<path d="M200291485 183614342
L200148628 183685771
L199862914 183685771
L199720057 183614342
L199648628 183542914
L199577200 183400057
L199577200 182971485
L199648628 182828628
L199720057 182757200
L199862914 182685771
L200148628 182685771
L200291485 182757200
" />
<path d="M200934342 183614342
L201077200 183685771
L201362914 183685771
L201505771 183614342
L201577200 183471485
L201577200 183400057
L201505771 183257200
L201362914 183185771
L201148628 183185771
L201005771 183114342
L200934342 182971485
L200934342 182900057
L201005771 182757200
L201148628 182685771
L201362914 182685771
L201505771 182757200
" />
</g></g>
<g style="fill:#000000; fill-opacity:0.0; 
stroke:#000000; stroke-width:21200.000000; stroke-opacity:1; 
stroke-linecap:round; stroke-linejoin:round;">
</g>
<g style="fill:#000000; fill-opacity:0.0; 
stroke:#000000; stroke-width:300000.000000; stroke-opacity:1; 
stroke-linecap:round; stroke-linejoin:round;">
<text x="178002200.000000" y="180757200.000000"
textLength="49078571.000000" font-size="2000000.000000" lengthAdjust="spacingAndGlyphs"
text-anchor="start" opacity="0">Instituto Nacional de Tecnologa Industrial</text>
<g class="stroked-text"><desc>Instituto Nacional de Tecnologa Industrial</desc>
<path d="M178554342 180685771
L178554342 179185771
" />
<path d="M179268628 179685771
L179268628 180685771
" />
<path d="M179268628 179828628
L179340057 179757200
L179482914 179685771
L179697200 179685771
L179840057 179757200
L179911485 179900057
L179911485 180685771
" />
<path d="M180554342 180614342
L180697200 180685771
L180982914 180685771
L181125771 180614342
L181197200 180471485
L181197200 180400057
L181125771 180257200
L180982914 180185771
L180768628 180185771
L180625771 180114342
L180554342 179971485
L180554342 179900057
L180625771 179757200
L180768628 179685771
L180982914 179685771
L181125771 179757200
" />
<path d="M181625771 179685771
L182197200 179685771
" />
<path d="M181840057 179185771
L181840057 180471485
L181911485 180614342
L182054342 180685771
L182197200 180685771
" />
<path d="M182697200 180685771
L182697200 179685771
" />
<path d="M182697200 179185771
L182625771 179257200
L182697200 179328628
L182768628 179257200
L182697200 179185771
L182697200 179328628
" />
<path d="M183197200 179685771
L183768628 179685771
" />
<path d="M183411485 179185771
L183411485 180471485
L183482914 180614342
L183625771 180685771
L183768628 180685771
" />
<path d="M184911485 179685771
L184911485 180685771
" />
<path d="M184268628 179685771
L184268628 180471485
L184340057 180614342
L184482914 180685771
L184697200 180685771
L184840057 180614342
L184911485 180542914
" />
<path d="M185411485 179685771
L185982914 179685771
" />
<path d="M185625771 179185771
L185625771 180471485
L185697200 180614342
L185840057 180685771
L185982914 180685771
" />
<path d="M186697200 180685771
L186554342 180614342
L186482914 180542914
L186411485 180400057
L186411485 179971485
L186482914 179828628
L186554342 179757200
L186697200 179685771
L186911485 179685771
L187054342 179757200
L187125771 179828628
L187197200 179971485
L187197200 180400057
L187125771 180542914
L187054342 180614342
L186911485 180685771
L186697200 180685771
" />
<path d="M188982914 180685771
L188982914 179185771
L189840057 180685771
L189840057 179185771
" />
<path d="M191197200 180685771
L191197200 179900057
L191125771 179757200
L190982914 179685771
L190697200 179685771
L190554342 179757200
" />
<path d="M191197200 180614342
L191054342 180685771
L190697200 180685771
L190554342 180614342
L190482914 180471485
L190482914 180328628
L190554342 180185771
L190697200 180114342
L191054342 180114342
L191197200 180042914
" />
<path d="M192554342 180614342
L192411485 180685771
L192125771 180685771
L191982914 180614342
L191911485 180542914
L191840057 180400057
L191840057 179971485
L191911485 179828628
L191982914 179757200
L192125771 179685771
L192411485 179685771
L192554342 179757200
" />
<path d="M193197200 180685771
L193197200 179685771
" />
<path d="M193197200 179185771
L193125771 179257200
L193197200 179328628
L193268628 179257200
L193197200 179185771
L193197200 179328628
" />
<path d="M194125771 180685771
L193982914 180614342
L193911485 180542914
L193840057 180400057
L193840057 179971485
L193911485 179828628
L193982914 179757200
L194125771 179685771
L194340057 179685771
L194482914 179757200
L194554342 179828628
L194625771 179971485
L194625771 180400057
L194554342 180542914
L194482914 180614342
L194340057 180685771
L194125771 180685771
" />
<path d="M195268628 179685771
L195268628 180685771
" />
<path d="M195268628 179828628
L195340057 179757200
L195482914 179685771
L195697200 179685771
L195840057 179757200
L195911485 179900057
L195911485 180685771
" />
<path d="M197268628 180685771
L197268628 179900057
L197197200 179757200
L197054342 179685771
L196768628 179685771
L196625771 179757200
" />
<path d="M197268628 180614342
L197125771 180685771
L196768628 180685771
L196625771 180614342
L196554342 180471485
L196554342 180328628
L196625771 180185771
L196768628 180114342
L197125771 180114342
L197268628 180042914
" />
<path d="M198197200 180685771
L198054342 180614342
L197982914 180471485
L197982914 179185771
" />
<path d="M200554342 180685771
L200554342 179185771
" />
<path d="M200554342 180614342
L200411485 180685771
L200125771 180685771
L199982914 180614342
L199911485 180542914
L199840057 180400057
L199840057 179971485
L199911485 179828628
L199982914 179757200
L200125771 179685771
L200411485 179685771
L200554342 179757200
" />
<path d="M201840057 180614342
L201697200 180685771
L201411485 180685771
L201268628 180614342
L201197200 180471485
L201197200 179900057
L201268628 179757200
L201411485 179685771
L201697200 179685771
L201840057 179757200
L201911485 179900057
L201911485 180042914
L201197200 180185771
" />
<path d="M203482914 179185771
L204340057 179185771
" />
<path d="M203911485 180685771
L203911485 179185771
" />
<path d="M205411485 180614342
L205268628 180685771
L204982914 180685771
L204840057 180614342
L204768628 180471485
L204768628 179900057
L204840057 179757200
L204982914 179685771
L205268628 179685771
L205411485 179757200
L205482914 179900057
L205482914 180042914
L204768628 180185771
" />
<path d="M206768628 180614342
L206625771 180685771
L206340057 180685771
L206197200 180614342
L206125771 180542914
L206054342 180400057
L206054342 179971485
L206125771 179828628
L206197200 179757200
L206340057 179685771
L206625771 179685771
L206768628 179757200
" />
<path d="M207411485 179685771
L207411485 180685771
" />
<path d="M207411485 179828628
L207482914 179757200
L207625771 179685771
L207840057 179685771
L207982914 179757200
L208054342 179900057
L208054342 180685771
" />
<path d="M208982914 180685771
L208840057 180614342
L208768628 180542914
L208697200 180400057
L208697200 179971485
L208768628 179828628
L208840057 179757200
L208982914 179685771
L209197200 179685771
L209340057 179757200
L209411485 179828628
L209482914 179971485
L209482914 180400057
L209411485 180542914
L209340057 180614342
L209197200 180685771
L208982914 180685771
" />
<path d="M210340057 180685771
L210197200 180614342
L210125771 180471485
L210125771 179185771
" />
<path d="M211125771 180685771
L210982914 180614342
L210911485 180542914
L210840057 180400057
L210840057 179971485
L210911485 179828628
L210982914 179757200
L211125771 179685771
L211340057 179685771
L211482914 179757200
L211554342 179828628
L211625771 179971485
L211625771 180400057
L211554342 180542914
L211482914 180614342
L211340057 180685771
L211125771 180685771
" />
<path d="M212911485 179685771
L212911485 180900057
L212840057 181042914
L212768628 181114342
L212625771 181185771
L212411485 181185771
L212268628 181114342
" />
<path d="M212911485 180614342
L212768628 180685771
L212482914 180685771
L212340057 180614342
L212268628 180542914
L212197200 180400057
L212197200 179971485
L212268628 179828628
L212340057 179757200
L212482914 179685771
L212768628 179685771
L212911485 179757200
" />
<path d="M213625771 180685771
L213625771 179685771
" />
<path d="M213768628 179114342
L213554342 179328628
" />
<path d="M214982914 180685771
L214982914 179900057
L214911485 179757200
L214768628 179685771
L214482914 179685771
L214340057 179757200
" />
<path d="M214982914 180614342
L214840057 180685771
L214482914 180685771
L214340057 180614342
L214268628 180471485
L214268628 180328628
L214340057 180185771
L214482914 180114342
L214840057 180114342
L214982914 180042914
" />
<path d="M216840057 180685771
L216840057 179185771
" />
<path d="M217554342 179685771
L217554342 180685771
" />
<path d="M217554342 179828628
L217625771 179757200
L217768628 179685771
L217982914 179685771
L218125771 179757200
L218197200 179900057
L218197200 180685771
" />
<path d="M219554342 180685771
L219554342 179185771
" />
<path d="M219554342 180614342
L219411485 180685771
L219125771 180685771
L218982914 180614342
L218911485 180542914
L218840057 180400057
L218840057 179971485
L218911485 179828628
L218982914 179757200
L219125771 179685771
L219411485 179685771
L219554342 179757200
" />
<path d="M220911485 179685771
L220911485 180685771
" />
<path d="M220268628 179685771
L220268628 180471485
L220340057 180614342
L220482914 180685771
L220697200 180685771
L220840057 180614342
L220911485 180542914
" />
<path d="M221554342 180614342
L221697200 180685771
L221982914 180685771
L222125771 180614342
L222197200 180471485
L222197200 180400057
L222125771 180257200
L221982914 180185771
L221768628 180185771
L221625771 180114342
L221554342 179971485
L221554342 179900057
L221625771 179757200
L221768628 179685771
L221982914 179685771
L222125771 179757200
" />
<path d="M222625771 179685771
L223197200 179685771
" />
<path d="M222840057 179185771
L222840057 180471485
L222911485 180614342
L223054342 180685771
L223197200 180685771
" />
<path d="M223697200 180685771
L223697200 179685771
" />
<path d="M223697200 179971485
L223768628 179828628
L223840057 179757200
L223982914 179685771
L224125771 179685771
" />
<path d="M224625771 180685771
L224625771 179685771
" />
<path d="M224625771 179185771
L224554342 179257200
L224625771 179328628
L224697200 179257200
L224625771 179185771
L224625771 179328628
" />
<path d="M225982914 180685771
L225982914 179900057
L225911485 179757200
L225768628 179685771
L225482914 179685771
L225340057 179757200
" />
<path d="M225982914 180614342
L225840057 180685771
L225482914 180685771
L225340057 180614342
L225268628 180471485
L225268628 180328628
L225340057 180185771
L225482914 180114342
L225840057 180114342
L225982914 180042914
" />
<path d="M226911485 180685771
L226768628 180614342
L226697200 180471485
L226697200 179185771
" />
</g></g>
<g style="fill:#000000; fill-opacity:0.0; 
stroke:#000000; stroke-width:21200.000000; stroke-opacity:1; 
stroke-linecap:round; stroke-linejoin:round;">
</g>
<g style="fill:#000000; fill-opacity:0.0; 
stroke:#000000; stroke-width:150000.000000; stroke-opacity:1; 
stroke-linecap:round; stroke-linejoin:round;">
<text x="178002200.000000" y="177757200.000000"
textLength="390000.000000" font-size="2000000.000000" lengthAdjust="spacingAndGlyphs"
text-anchor="start" opacity="0"></text>
<g class="stroked-text"><desc></desc>
</g></g>
<g style="fill:#000000; fill-opacity:0.0; 
stroke:#000000; stroke-width:21200.000000; stroke-opacity:1; 
stroke-linecap:round; stroke-linejoin:round;">
</g>
<g style="fill:#000000; fill-opacity:0.0; 
stroke:#000000; stroke-width:150000.000000; stroke-opacity:1; 
stroke-linecap:round; stroke-linejoin:round;">
<text x="178002200.000000" y="174757200.000000"
textLength="150000.000000" font-size="2000000.000000" lengthAdjust="spacingAndGlyphs"
text-anchor="start" opacity="0"></text>
<g class="stroked-text"><desc></desc>
</g></g>
<g style="fill:#000000; fill-opacity:0.0; 
stroke:#000000; stroke-width:21200.000000; stroke-opacity:1; 
stroke-linecap:round; stroke-linejoin:round;">
</g>
<g style="fill:#000000; fill-opacity:0.0; 
stroke:#000000; stroke-width:150000.000000; stroke-opacity:1; 
stroke-linecap:round; stroke-linejoin:round;">
<text x="178002200.000000" y="171757200.000000"
textLength="150000.000000" font-size="2000000.000000" lengthAdjust="spacingAndGlyphs"
text-anchor="start" opacity="0"></text>
<g class="stroked-text"><desc></desc>
</g></g>
<g style="fill:#000000; fill-opacity:0.0; 
stroke:#000000; stroke-width:21200.000000; stroke-opacity:1; 
stroke-linecap:round; stroke-linejoin:round;">
</g>
<g style="fill:#000000; fill-opacity:0.0; 
stroke:#000000; stroke-width:150000.000000; stroke-opacity:1; 
stroke-linecap:round; stroke-linejoin:round;">
<text x="178002200.000000" y="168757200.000000"
textLength="33721429.000000" font-size="2000000.000000" lengthAdjust="spacingAndGlyphs"
text-anchor="start" opacity="0">An example of KiBot variants</text>
<g class="stroked-text"><desc>An example of KiBot variants</desc>
<path d="M178362914 168257200
L179077200 168257200
" />
<path d="M178220057 168685771
L178720057 167185771
L179220057 168685771
" />
<path d="M179720057 167685771
L179720057 168685771
" />
<path d="M179720057 167828628
L179791485 167757200
L179934342 167685771
L180148628 167685771
L180291485 167757200
L180362914 167900057
L180362914 168685771
" />
<path d="M182791485 168614342
L182648628 168685771
L182362914 168685771
L182220057 168614342
L182148628 168471485
L182148628 167900057
L182220057 167757200
L182362914 167685771
L182648628 167685771
L182791485 167757200
L182862914 167900057
L182862914 168042914
L182148628 168185771
" />
<path d="M183362914 168685771
L184148628 167685771
" />
<path d="M183362914 167685771
L184148628 168685771
" />
<path d="M185362914 168685771
L185362914 167900057
L185291485 167757200
L185148628 167685771
L184862914 167685771
L184720057 167757200
" />
<path d="M185362914 168614342
L185220057 168685771
L184862914 168685771
L184720057 168614342
L184648628 168471485
L184648628 168328628
L184720057 168185771
L184862914 168114342
L185220057 168114342
L185362914 168042914
" />
<path d="M186077200 168685771
L186077200 167685771
" />
<path d="M186077200 167828628
L186148628 167757200
L186291485 167685771
L186505771 167685771
L186648628 167757200
L186720057 167900057
L186720057 168685771
" />
<path d="M186720057 167900057
L186791485 167757200
L186934342 167685771
L187148628 167685771
L187291485 167757200
L187362914 167900057
L187362914 168685771
" />
<path d="M188077200 167685771
L188077200 169185771
" />
<path d="M188077200 167757200
L188220057 167685771
L188505771 167685771
L188648628 167757200
L188720057 167828628
L188791485 167971485
L188791485 168400057
L188720057 168542914
L188648628 168614342
L188505771 168685771
L188220057 168685771
L188077200 168614342
" />
<path d="M189648628 168685771
L189505771 168614342
L189434342 168471485
L189434342 167185771
" />
<path d="M190791485 168614342
L190648628 168685771
L190362914 168685771
L190220057 168614342
L190148628 168471485
L190148628 167900057
L190220057 167757200
L190362914 167685771
L190648628 167685771
L190791485 167757200
L190862914 167900057
L190862914 168042914
L190148628 168185771
" />
<path d="M192862914 168685771
L192720057 168614342
L192648628 168542914
L192577200 168400057
L192577200 167971485
L192648628 167828628
L192720057 167757200
L192862914 167685771
L193077200 167685771
L193220057 167757200
L193291485 167828628
L193362914 167971485
L193362914 168400057
L193291485 168542914
L193220057 168614342
L193077200 168685771
L192862914 168685771
" />
<path d="M193791485 167685771
L194362914 167685771
" />
<path d="M194005771 168685771
L194005771 167400057
L194077200 167257200
L194220057 167185771
L194362914 167185771
" />
<path d="M196005771 168685771
L196005771 167185771
" />
<path d="M196862914 168685771
L196220057 167828628
" />
<path d="M196862914 167185771
L196005771 168042914
" />
<path d="M197505771 168685771
L197505771 167685771
" />
<path d="M197505771 167185771
L197434342 167257200
L197505771 167328628
L197577200 167257200
L197505771 167185771
L197505771 167328628
" />
<path d="M198720057 167900057
L198934342 167971485
L199005771 168042914
L199077200 168185771
L199077200 168400057
L199005771 168542914
L198934342 168614342
L198791485 168685771
L198220057 168685771
L198220057 167185771
L198720057 167185771
L198862914 167257200
L198934342 167328628
L199005771 167471485
L199005771 167614342
L198934342 167757200
L198862914 167828628
L198720057 167900057
L198220057 167900057
" />
<path d="M199934342 168685771
L199791485 168614342
L199720057 168542914
L199648628 168400057
L199648628 167971485
L199720057 167828628
L199791485 167757200
L199934342 167685771
L200148628 167685771
L200291485 167757200
L200362914 167828628
L200434342 167971485
L200434342 168400057
L200362914 168542914
L200291485 168614342
L200148628 168685771
L199934342 168685771
" />
<path d="M200862914 167685771
L201434342 167685771
" />
<path d="M201077200 167185771
L201077200 168471485
L201148628 168614342
L201291485 168685771
L201434342 168685771
" />
<path d="M202934342 167685771
L203291485 168685771
L203648628 167685771
" />
<path d="M204862914 168685771
L204862914 167900057
L204791485 167757200
L204648628 167685771
L204362914 167685771
L204220057 167757200
" />
<path d="M204862914 168614342
L204720057 168685771
L204362914 168685771
L204220057 168614342
L204148628 168471485
L204148628 168328628
L204220057 168185771
L204362914 168114342
L204720057 168114342
L204862914 168042914
" />
<path d="M205577200 168685771
L205577200 167685771
" />
<path d="M205577200 167971485
L205648628 167828628
L205720057 167757200
L205862914 167685771
L206005771 167685771
" />
<path d="M206505771 168685771
L206505771 167685771
" />
<path d="M206505771 167185771
L206434342 167257200
L206505771 167328628
L206577200 167257200
L206505771 167185771
L206505771 167328628
" />
<path d="M207862914 168685771
L207862914 167900057
L207791485 167757200
L207648628 167685771
L207362914 167685771
L207220057 167757200
" />
<path d="M207862914 168614342
L207720057 168685771
L207362914 168685771
L207220057 168614342
L207148628 168471485
L207148628 168328628
L207220057 168185771
L207362914 168114342
L207720057 168114342
L207862914 168042914
" />
<path d="M208577200 167685771
L208577200 168685771
" />
<path d="M208577200 167828628
L208648628 167757200
L208791485 167685771
L209005771 167685771
L209148628 167757200
L209220057 167900057
L209220057 168685771
" />
<path d="M209720057 167685771
L210291485 167685771
" />
<path d="M209934342 167185771
L209934342 168471485
L210005771 168614342
L210148628 168685771
L210291485 168685771
" />
<path d="M210720057 168614342
L210862914 168685771
L211148628 168685771
L211291485 168614342
L211362914 168471485
L211362914 168400057
L211291485 168257200
L211148628 168185771
L210934342 168185771
L210791485 168114342
L210720057 167971485
L210720057 167900057
L210791485 167757200
L210934342 167685771
L211148628 167685771
L211291485 167757200
" />
</g></g>
<g style="fill:#000000; fill-opacity:0.0; 
stroke:#000000; stroke-width:21200.000000; stroke-opacity:1; 
stroke-linecap:round; stroke-linejoin:round;">
</g>
<g style="fill:#000000; fill-opacity:0.0; 
stroke:#000000; stroke-width:150000.000000; stroke-opacity:1; 
stroke-linecap:round; stroke-linejoin:round;">
<path d="M197002200 191507200
L197002200 194507200
" />
</g>
<g style="fill:#000000; fill-opacity:0.0; 
stroke:#000000; stroke-width:21200.000000; stroke-opacity:1; 
stroke-linecap:round; stroke-linejoin:round;">
</g>
<g style="fill:#000000; fill-opacity:0.0; 
stroke:#000000; stroke-width:150000.000000; stroke-opacity:1; 
stroke-linecap:round; stroke-linejoin:round;">
<path d="M261002200 191507200
L261002200 198007200
" />
</g>
<g style="fill:#000000; fill-opacity:0.0; 
stroke:#000000; stroke-width:50000.000000; stroke-opacity:1; 
stroke-linecap:round; stroke-linejoin:round;">
<path d="M119000000 101300000
L182000000 101300000
" />
<path d="M182000000 101300000
L182000000 65700000
" />
<path d="M119000000 65700000
L119000000 101300000
" />
<path d="M182000000 65700000
L119000000 65700000
" />
</g>
<g style="fill:#000000; fill-opacity:0.0; 
stroke:#000000; stroke-width:150000.000000; stroke-opacity:1; 
stroke-linecap:round; stroke-linejoin:round;">
<g transform="rotate(89.998391 117100486.000000 83492254.000000)">
<text x="117100486.000000" y="83992254.000000"
textLength="9769048.000000" font-size="1333333.000000" lengthAdjust="spacingAndGlyphs"
text-anchor="middle" opacity="0">35.6156 mm</text>
</g>
<g class="stroked-text"><desc>35.6156 mm</desc>
<path d="M117647974 78825571
L117647991 79444619
L117267029 79111296
L117267033 79254154
L117219417 79349393
L117171799 79397013
L117076562 79444635
L116838467 79444642
L116743228 79397025
L116695607 79349408
L116647986 79254171
L116647978 78968457
L116695594 78873217
L116743212 78825597
" />
<path d="M117648016 80349381
L117648003 79873191
L117171811 79825585
L117219432 79873203
L117267053 79968439
L117267060 80206535
L117219444 80301774
L117171826 80349394
L117076589 80397016
L116838494 80397023
L116743254 80349406
L116695634 80301789
L116648012 80206552
L116648006 79968457
L116695622 79873217
L116743240 79825597
" />
<path d="M116743268 80825597
L116695650 80873217
L116648030 80825600
L116695647 80777979
L116743268 80825597
L116648030 80825600
" />
<path d="M117648055 81730333
L117648050 81539857
L117600428 81444620
L117552808 81397003
L117409948 81301769
L117219470 81254155
L116838518 81254166
L116743281 81301787
L116695663 81349408
L116648047 81444647
L116648052 81635123
L116695674 81730360
L116743295 81777978
L116838534 81825594
L117076629 81825588
L117171866 81777966
L117219484 81730345
L117267100 81635106
L117267095 81444630
L117219473 81349393
L117171853 81301775
L117076613 81254159
" />
<path d="M116648084 82777980
L116648068 82206552
" />
<path d="M116648076 82492266
L117648076 82492238
L117505217 82397004
L117409976 82301769
L117362354 82206532
" />
<path d="M117648110 83682714
L117648097 83206524
L117171905 83158918
L117219525 83206536
L117267147 83301773
L117267154 83539868
L117219537 83635107
L117171919 83682728
L117076683 83730349
L116838587 83730356
L116743348 83682740
L116695728 83635122
L116648106 83539885
L116648099 83301790
L116695716 83206551
L116743333 83158930
" />
<path d="M117648135 84587476
L117648130 84397000
L117600508 84301763
L117552888 84254146
L117410028 84158911
L117219551 84111298
L116838598 84111308
L116743361 84158930
L116695744 84206551
L116648127 84301790
L116648133 84492266
L116695754 84587503
L116743375 84635121
L116838614 84682737
L117076709 84682730
L117171946 84635109
L117219564 84587488
L117267180 84492249
L117267175 84301773
L117219553 84206536
L117171933 84158918
L117076693 84111302
" />
<path d="M116648171 85873219
L117314838 85873200
" />
<path d="M117219600 85873203
L117267220 85920820
L117314842 86016057
L117314846 86158914
L117267230 86254154
L117171993 86301775
L116648183 86301790
" />
<path d="M117171993 86301775
L117267232 86349392
L117314854 86444628
L117314858 86587486
L117267242 86682725
L117172005 86730347
L116648195 86730361
" />
<path d="M116648209 87206552
L117314876 87206533
" />
<path d="M117219637 87206536
L117267258 87254154
L117314880 87349390
L117314884 87492247
L117267267 87587487
L117172030 87635109
L116648221 87635123
" />
<path d="M117172030 87635109
L117267270 87682725
L117314892 87777962
L117314896 87920819
L117267279 88016058
L117172042 88063680
L116648233 88063695
" />
</g><path d="M119000000 101300000
L115364566 101300102
" />
<path d="M118999000 65684400
L115363566 65684502
" />
<path d="M115950986 101300086
L115949986 65684486
" />
<path d="M115950986 101300086
L115949986 65684486
" />
<path d="M115950986 101300086
L116537375 100173566
" />
<path d="M115950986 101300086
L115364534 100173599
" />
<path d="M115949986 65684486
L115363597 66811006
" />
<path d="M115949986 65684486
L116536438 66810973
" />
<g transform="rotate(-359.985813 150500263.000000 62611775.000000)">
<text x="150500263.000000" y="63111775.000000"
textLength="9814048.000000" font-size="1333333.000000" lengthAdjust="spacingAndGlyphs"
text-anchor="middle" opacity="0">63.0010 mm</text>
</g>
<g class="stroked-text"><desc>63.0010 mm</desc>
<path d="M146357541 62063130
L146167065 62063082
L146071815 62110678
L146024184 62158285
L145928911 62301119
L145881245 62491583
L145881150 62872536
L145928746 62967785
L145976353 63015416
L146071579 63063059
L146262055 63063106
L146357305 63015511
L146404936 62967903
L146452579 62872677
L146452638 62634582
L146405042 62539332
L146357435 62491701
L146262209 62444058
L146071732 62444011
L145976483 62491607
L145928852 62539214
L145881209 62634440
" />
<path d="M146786112 62063236
L147405160 62063389
L147071732 62444259
L147214590 62444294
L147309816 62491937
L147357423 62539568
L147405019 62634818
L147404960 62872913
L147357317 62968139
L147309686 63015746
L147214436 63063342
L146928722 63063271
L146833496 63015628
L146785888 62967998
" />
<path d="M147833507 62968257
L147881115 63015888
L147833484 63063495
L147785877 63015864
L147833507 62968257
L147833484 63063495
" />
<path d="M148500398 62063660
L148595636 62063684
L148690863 62111326
L148738470 62158957
L148786065 62254207
L148833637 62444695
L148833578 62682790
L148785912 62873255
L148738269 62968481
L148690639 63016088
L148595389 63063684
L148500151 63063660
L148404924 63016018
L148357317 62968387
L148309722 62873137
L148262150 62682649
L148262209 62444554
L148309875 62254089
L148357517 62158863
L148405148 62111256
L148500398 62063660
" />
<path d="M149452779 62063896
L149548017 62063920
L149643243 62111562
L149690851 62159193
L149738446 62254443
L149786018 62444931
L149785959 62683026
L149738293 62873491
L149690650 62968717
L149643019 63016324
L149547770 63063920
L149452531 63063896
L149357305 63016253
L149309698 62968623
L149262102 62873373
L149214531 62682885
L149214590 62444789
L149262256 62254325
L149309898 62159099
L149357529 62111492
L149452779 62063896
" />
<path d="M150738246 63064214
L150166817 63064073
" />
<path d="M150452531 63064144
L150452779 62064144
L150357506 62206977
L150262244 62302192
L150166994 62349787
" />
<path d="M151357541 62064368
L151452779 62064391
L151548005 62112034
L151595613 62159665
L151643208 62254915
L151690780 62445403
L151690721 62683498
L151643055 62873962
L151595412 62969189
L151547781 63016796
L151452531 63064391
L151357293 63064368
L151262067 63016725
L151214460 62969094
L151166864 62873844
L151119292 62683356
L151119351 62445261
L151167018 62254797
L151214660 62159570
L151262291 62111963
L151357541 62064368
" />
<path d="M152881103 63064745
L152881268 62398078
" />
<path d="M152881244 62493316
L152928875 62445709
L153024125 62398114
L153166982 62398149
L153262208 62445792
L153309804 62541042
L153309674 63064851
" />
<path d="M153309804 62541042
L153357447 62445815
L153452696 62398220
L153595554 62398255
L153690780 62445898
L153738375 62541148
L153738246 63064957
" />
<path d="M154214436 63065075
L154214601 62398409
" />
<path d="M154214578 62493647
L154262208 62446039
L154357458 62398444
L154500315 62398479
L154595542 62446122
L154643137 62541372
L154643007 63065181
" />
<path d="M154643137 62541372
L154690780 62446145
L154786030 62398550
L154928887 62398585
L155024113 62446228
L155071709 62541478
L155071579 63065287
" />
</g><path d="M118999000 65684400
L118999623 63167555
" />
<path d="M182000000 65700000
L182000623 63183155
" />
<path d="M118999478 63753975
L182000478 63769575
" />
<path d="M118999478 63753975
L182000478 63769575
" />
<path d="M118999478 63753975
L120125837 64340675
" />
<path d="M118999478 63753975
L120126127 63167833
" />
<path d="M182000478 63769575
L180874119 63182875
" />
<path d="M182000478 63769575
L180873829 64355717
" />
<g >
</g>
<g >
</g>
<g >
</g>
<g >
</g>
<g >
</g>
<g >
</g>
<g >
</g>
<g >
</g>
<g >
</g>
<g >
</g>
<g >
</g>
<g >
</g>
<g >
</g>
<g >
</g>
<g >
</g>
<g >
</g>
<g >
</g>
<g >
</g>
<g >
</g>
<g >
</g>
<g >
</g>
<g >
</g>
<g >
</g>
<g >
</g>
<g >
</g>
<g >
</g>
<g >
</g>
<g >
</g>
<g >
</g>
<g >
</g>
<g >
</g>
<g >
</g>
<g >
</g>
<g >
</g>
<g >
</g>
<g >
</g>
<g >
</g>
<g >
</g>
<g >
</g>
<g >
</g>
<g >
</g>
<g >
</g>
<g >
</g>
<g >
</g>
<g >
</g>
<g >
</g>
<g >
</g>
<g >
</g>
<g >
</g>
<g >
</g>
</g>
<g style="fill:#000000; fill-opacity:0.0; 
stroke:#000000; stroke-width:150000.000000; stroke-opacity:1; 
stroke-linecap:round; stroke-linejoin:round;">
</g>
<g style="fill:#000000; fill-opacity:0.0; 
stroke:#000000; stroke-width:50000.000000; stroke-opacity:1; 
stroke-linecap:round; stroke-linejoin:round;">
<path d="M119000000 101300000
L182000000 101300000
" />
<path d="M182000000 101300000
L182000000 65700000
" />
<path d="M119000000 65700000
L119000000 101300000
" />
<path d="M182000000 65700000
L119000000 65700000
" />
<g >
</g>
<g >
</g>
<g >
</g>
<g >
</g>
<g >
</g>
<g >
</g>
<g >
</g>
<g >
</g>
<g >
</g>
<g >
</g>
<g >
</g>
<g >
</g>
<g >
</g>
<g >
</g>
<g >
</g>
<g >
</g>
<g >
</g>
<g >
</g>
<g >
</g>
<g >
</g>
<g >
</g>
<g >
</g>
<g >
</g>
<g >
</g>
<g >
</g>
<g >
</g>
<g >
</g>
<g >
</g>
<g >
</g>
<g >
</g>
<g >
</g>
<g >
</g>
<g >
</g>
<g >
</g>
<g >
</g>
<g >
</g>
<g >
</g>
<g >
</g>
<g >
</g>
<g >
</g>
<g >
</g>
<g >
</g>
<g >
</g>
<g >
</g>
<g >
</g>
<g >
</g>
<g >
</g>
<g >
</g>
<g >
</g>
<g >
</g>
</g> 
</svg>
