<!DOCTYPE svg PUBLIC "-//W3C//DTD SVG 1.1//EN" "http://www.w3.org/Graphics/SVG/1.1/DTD/svg11.dtd">
<svg xmlns="http://www.w3.org/2000/svg" version="1.1" width="76.951037mm" height="39.680828mm" viewBox="-1891670.0 616942.75 769510.3799999999 396808.28">
            <title>Picture generated by PcbDraw </title>
            <desc>Picture generated by PcbDraw</desc>
        <defs><clipPath id="cut-off"><path d=" M 1820000.0 1013000.0 L 1820000.0 657000.0 L 1190000.0 657000.0 L 1190000.0 1013000.0 L 1820000.0 1013000.0 " style="fill-rule: evenodd;"/></clipPath><mask id="pads-mask"><g style="fill:#ffffff; fill-opacity:0.0;  stroke:#ffffff; stroke-width:0.000000; stroke-opacity:1;  stroke-linecap:round; stroke-linejoin:round;">
<g style="fill:#ffffff; fill-opacity:1.0;  stroke:#ffffff; stroke-width:0.010000; stroke-opacity:1;  stroke-linecap:round; stroke-linejoin:round;">
<circle cx="1770000.000000" cy="970000.000000" r="14000.000000"/> 
</g>
<g style="fill:#ffffff; fill-opacity:1.0;  stroke:#ffffff; stroke-width:0.010000; stroke-opacity:1;  stroke-linecap:round; stroke-linejoin:round;">
<circle cx="1230000.000000" cy="970000.000000" r="14000.000000"/> 
</g>
<g style="fill:#ffffff; fill-opacity:1.0;  stroke:#ffffff; stroke-width:0.010000; stroke-opacity:1;  stroke-linecap:round; stroke-linejoin:round;">
<circle cx="1230000.000000" cy="695000.000000" r="14000.000000"/> 
</g>
<g style="fill:#ffffff; fill-opacity:1.0;  stroke:#ffffff; stroke-width:0.010000; stroke-opacity:1;  stroke-linecap:round; stroke-linejoin:round;">
<circle cx="1770000.000000" cy="695000.000000" r="14000.000000"/> 
</g>
<g style="fill:#ffffff; fill-opacity:1.0;  stroke:#ffffff; stroke-width:0.010000; stroke-opacity:1;  stroke-linecap:round; stroke-linejoin:round;">
<circle cx="1276000.000000" cy="812000.000000" r="10500.000000"/> 
</g>
<g style="fill:#ffffff; fill-opacity:0.0;  stroke:#ffffff; stroke-width:16000.000000; stroke-opacity:1;  stroke-linecap:round; stroke-linejoin:round;">
<path d="M1232000 814500 L1232000 809500 "/>
</g>
<g style="fill:#ffffff; fill-opacity:1.0;  stroke:#ffffff; stroke-width:0.010000; stroke-opacity:1;  stroke-linecap:round; stroke-linejoin:round;">
<path style="fill:#ffffff; fill-opacity:1.0;  stroke:#ffffff; stroke-width:0.010000; stroke-opacity:1;  stroke-linecap:round; stroke-linejoin:round;fill-rule:evenodd;" d="M 1372000.000000,803500.000000 1371961.940000,803691.340000 1371853.550000,803853.550000 1371691.340000,803961.940000 1371500.000000,804000.000000 1354500.000000,804000.000000 1354308.660000,803961.940000 1354146.450000,803853.550000 1354038.060000,803691.340000 1354000.000000,803500.000000 1354000.000000,786500.000000 1354038.060000,786308.660000 1354146.450000,786146.450000 1354308.660000,786038.060000 1354500.000000,786000.000000 1371500.000000,786000.000000 1371691.340000,786038.060000 1371853.550000,786146.450000 1371961.940000,786308.660000 1372000.000000,786500.000000 Z"/> 
<circle cx="1363000.000000" cy="769600.000000" r="9000.000000"/> 
<circle cx="1363000.000000" cy="744200.000000" r="9000.000000"/> 
<circle cx="1363000.000000" cy="718800.000000" r="9000.000000"/> 
<circle cx="1363000.000000" cy="693400.000000" r="9000.000000"/> 
</g>
<g style="fill:#ffffff; fill-opacity:1.0;  stroke:#ffffff; stroke-width:0.010000; stroke-opacity:1;  stroke-linecap:round; stroke-linejoin:round;">
<path style="fill:#ffffff; fill-opacity:1.0;  stroke:#ffffff; stroke-width:0.010000; stroke-opacity:1;  stroke-linecap:round; stroke-linejoin:round;fill-rule:evenodd;" d="M 1509920.000000,944000.000000 1509958.060000,943808.660000 1510066.450000,943646.450000 1510228.660000,943538.060000 1510420.000000,943500.000000 1527420.000000,943500.000000 1527611.340000,943538.060000 1527773.550000,943646.450000 1527881.940000,943808.660000 1527920.000000,944000.000000 1527920.000000,961000.000000 1527881.940000,961191.340000 1527773.550000,961353.550000 1527611.340000,961461.940000 1527420.000000,961500.000000 1510420.000000,961500.000000 1510228.660000,961461.940000 1510066.450000,961353.550000 1509958.060000,961191.340000 1509920.000000,961000.000000 Z"/> 
<circle cx="1544320.000000" cy="952500.000000" r="9000.000000"/> 
<circle cx="1518920.000000" cy="977900.000000" r="9000.000000"/> 
<circle cx="1544320.000000" cy="977900.000000" r="9000.000000"/> 
</g>
<g style="fill:#ffffff; fill-opacity:1.0;  stroke:#ffffff; stroke-width:0.010000; stroke-opacity:1;  stroke-linecap:round; stroke-linejoin:round;">
<path style="fill:#ffffff; fill-opacity:1.0;  stroke:#ffffff; stroke-width:0.010000; stroke-opacity:1;  stroke-linecap:round; stroke-linejoin:round;fill-rule:evenodd;" d="M 1402724.000000,986646.000000 1402532.660000,986607.940000 1402370.450000,986499.550000 1402262.060000,986337.340000 1402224.000000,986146.000000 1402224.000000,969146.000000 1402262.060000,968954.660000 1402370.450000,968792.450000 1402532.660000,968684.060000 1402724.000000,968646.000000 1419724.000000,968646.000000 1419915.340000,968684.060000 1420077.550000,968792.450000 1420185.940000,968954.660000 1420224.000000,969146.000000 1420224.000000,986146.000000 1420185.940000,986337.340000 1420077.550000,986499.550000 1419915.340000,986607.940000 1419724.000000,986646.000000 Z"/> 
<circle cx="1411224.000000" cy="952246.000000" r="9000.000000"/> 
<circle cx="1436624.000000" cy="977646.000000" r="9000.000000"/> 
<circle cx="1436624.000000" cy="952246.000000" r="9000.000000"/> 
<circle cx="1462024.000000" cy="977646.000000" r="9000.000000"/> 
<circle cx="1462024.000000" cy="952246.000000" r="9000.000000"/> 
</g>
<g style="fill:#ffffff; fill-opacity:1.0;  stroke:#ffffff; stroke-width:0.010000; stroke-opacity:1;  stroke-linecap:round; stroke-linejoin:round;">
<path style="fill:#ffffff; fill-opacity:1.0;  stroke:#ffffff; stroke-width:0.010000; stroke-opacity:1;  stroke-linecap:round; stroke-linejoin:round;fill-rule:evenodd;" d="M 1400700.000000,763660.000000 1400738.060000,763468.660000 1400846.450000,763306.450000 1401008.660000,763198.060000 1401200.000000,763160.000000 1418200.000000,763160.000000 1418391.340000,763198.060000 1418553.550000,763306.450000 1418661.940000,763468.660000 1418700.000000,763660.000000 1418700.000000,780660.000000 1418661.940000,780851.340000 1418553.550000,781013.550000 1418391.340000,781121.940000 1418200.000000,781160.000000 1401200.000000,781160.000000 1401008.660000,781121.940000 1400846.450000,781013.550000 1400738.060000,780851.340000 1400700.000000,780660.000000 Z"/> 
<circle cx="1409700.000000" cy="797560.000000" r="9000.000000"/> 
<circle cx="1409700.000000" cy="822960.000000" r="9000.000000"/> 
<circle cx="1409700.000000" cy="848360.000000" r="9000.000000"/> 
<circle cx="1409700.000000" cy="873760.000000" r="9000.000000"/> 
<circle cx="1409700.000000" cy="899160.000000" r="9000.000000"/> 
</g>
<g style="fill:#ffffff; fill-opacity:1.0;  stroke:#ffffff; stroke-width:0.010000; stroke-opacity:1;  stroke-linecap:round; stroke-linejoin:round;">
<path style="fill:#ffffff; fill-opacity:1.0;  stroke:#ffffff; stroke-width:0.010000; stroke-opacity:1;  stroke-linecap:round; stroke-linejoin:round;fill-rule:evenodd;" d="M 1726820.000000,823840.000000 1726628.660000,823801.940000 1726466.450000,823693.550000 1726358.060000,823531.340000 1726320.000000,823340.000000 1726320.000000,807340.000000 1726358.060000,807148.660000 1726466.450000,806986.450000 1726628.660000,806878.060000 1726820.000000,806840.000000 1742820.000000,806840.000000 1743011.340000,806878.060000 1743173.550000,806986.450000 1743281.940000,807148.660000 1743320.000000,807340.000000 1743320.000000,823340.000000 1743281.940000,823531.340000 1743173.550000,823693.550000 1743011.340000,823801.940000 1742820.000000,823840.000000 Z"/> 
<circle cx="1734820.000000" cy="840340.000000" r="8500.000000"/> 
</g>
<g style="fill:#ffffff; fill-opacity:1.0;  stroke:#ffffff; stroke-width:0.010000; stroke-opacity:1;  stroke-linecap:round; stroke-linejoin:round;">
<circle cx="1754820.000000" cy="840340.000000" r="8500.000000"/> 
</g>
<g style="fill:#ffffff; fill-opacity:1.0;  stroke:#ffffff; stroke-width:0.010000; stroke-opacity:1;  stroke-linecap:round; stroke-linejoin:round;">
<circle cx="1754820.000000" cy="815340.000000" r="8500.000000"/> 
</g>
<g style="fill:#ffffff; fill-opacity:1.0;  stroke:#ffffff; stroke-width:0.010000; stroke-opacity:1;  stroke-linecap:round; stroke-linejoin:round;">
<circle cx="1783420.000000" cy="767840.000000" r="20500.000000"/> 
</g>
<g style="fill:#ffffff; fill-opacity:1.0;  stroke:#ffffff; stroke-width:0.010000; stroke-opacity:1;  stroke-linecap:round; stroke-linejoin:round;">
<circle cx="1783420.000000" cy="887840.000000" r="20500.000000"/> 
</g>
<g style="fill:#ffffff; fill-opacity:1.0;  stroke:#ffffff; stroke-width:0.010000; stroke-opacity:1;  stroke-linecap:round; stroke-linejoin:round;">
<circle cx="1677924.000000" cy="801624.000000" r="5500.000000"/> 
</g>
<g style="fill:#ffffff; fill-opacity:1.0;  stroke:#ffffff; stroke-width:0.010000; stroke-opacity:1;  stroke-linecap:round; stroke-linejoin:round;">
<circle cx="1734820.000000" cy="784860.000000" r="5500.000000"/> 
</g>
<g style="fill:#ffffff; fill-opacity:1.0;  stroke:#ffffff; stroke-width:0.010000; stroke-opacity:1;  stroke-linecap:round; stroke-linejoin:round;">
<circle cx="1790700.000000" cy="807720.000000" r="5500.000000"/> 
</g>
<g style="fill:#ffffff; fill-opacity:1.0;  stroke:#ffffff; stroke-width:0.010000; stroke-opacity:1;  stroke-linecap:round; stroke-linejoin:round;">
<circle cx="1790700.000000" cy="840740.000000" r="5500.000000"/> 
</g>
<g style="fill:#ffffff; fill-opacity:1.0;  stroke:#ffffff; stroke-width:0.010000; stroke-opacity:1;  stroke-linecap:round; stroke-linejoin:round;">
<circle cx="1642872.000000" cy="700532.000000" r="5500.000000"/> 
</g>
<g style="fill:#ffffff; fill-opacity:1.0;  stroke:#ffffff; stroke-width:0.010000; stroke-opacity:1;  stroke-linecap:round; stroke-linejoin:round;">
<circle cx="1534922.000000" cy="700278.000000" r="5500.000000"/> 
</g>
<g style="fill:#ffffff; fill-opacity:1.0;  stroke:#ffffff; stroke-width:0.010000; stroke-opacity:1;  stroke-linecap:round; stroke-linejoin:round;">
<circle cx="1559560.000000" cy="845820.000000" r="5500.000000"/> 
</g>
</g> 
</mask><mask id="pads-mask-silkscreen"><rect x="1122159.62" y="616942.75" width="769510.38" height="396808.28" fill="white"/><g style="fill:#000000; fill-opacity:0.0;  stroke:#000000; stroke-width:0.000000; stroke-opacity:1;  stroke-linecap:round; stroke-linejoin:round;">
<g style="fill:#000000; fill-opacity:1.0;  stroke:#000000; stroke-width:0.010000; stroke-opacity:1;  stroke-linecap:round; stroke-linejoin:round;">
<circle cx="1770000.000000" cy="970000.000000" r="14000.000000"/> 
</g>
<g style="fill:#000000; fill-opacity:1.0;  stroke:#000000; stroke-width:0.010000; stroke-opacity:1;  stroke-linecap:round; stroke-linejoin:round;">
<circle cx="1230000.000000" cy="970000.000000" r="14000.000000"/> 
</g>
<g style="fill:#000000; fill-opacity:1.0;  stroke:#000000; stroke-width:0.010000; stroke-opacity:1;  stroke-linecap:round; stroke-linejoin:round;">
<circle cx="1230000.000000" cy="695000.000000" r="14000.000000"/> 
</g>
<g style="fill:#000000; fill-opacity:1.0;  stroke:#000000; stroke-width:0.010000; stroke-opacity:1;  stroke-linecap:round; stroke-linejoin:round;">
<circle cx="1770000.000000" cy="695000.000000" r="14000.000000"/> 
</g>
<g style="fill:#000000; fill-opacity:1.0;  stroke:#000000; stroke-width:0.010000; stroke-opacity:1;  stroke-linecap:round; stroke-linejoin:round;">
<circle cx="1276000.000000" cy="812000.000000" r="10500.000000"/> 
</g>
<g style="fill:#000000; fill-opacity:0.0;  stroke:#000000; stroke-width:16000.000000; stroke-opacity:1;  stroke-linecap:round; stroke-linejoin:round;">
<path d="M1232000 814500 L1232000 809500 "/>
</g>
<g style="fill:#000000; fill-opacity:1.0;  stroke:#000000; stroke-width:0.010000; stroke-opacity:1;  stroke-linecap:round; stroke-linejoin:round;">
<path style="fill:#000000; fill-opacity:1.0;  stroke:#000000; stroke-width:0.010000; stroke-opacity:1;  stroke-linecap:round; stroke-linejoin:round;fill-rule:evenodd;" d="M 1372000.000000,803500.000000 1371961.940000,803691.340000 1371853.550000,803853.550000 1371691.340000,803961.940000 1371500.000000,804000.000000 1354500.000000,804000.000000 1354308.660000,803961.940000 1354146.450000,803853.550000 1354038.060000,803691.340000 1354000.000000,803500.000000 1354000.000000,786500.000000 1354038.060000,786308.660000 1354146.450000,786146.450000 1354308.660000,786038.060000 1354500.000000,786000.000000 1371500.000000,786000.000000 1371691.340000,786038.060000 1371853.550000,786146.450000 1371961.940000,786308.660000 1372000.000000,786500.000000 Z"/> 
<circle cx="1363000.000000" cy="769600.000000" r="9000.000000"/> 
<circle cx="1363000.000000" cy="744200.000000" r="9000.000000"/> 
<circle cx="1363000.000000" cy="718800.000000" r="9000.000000"/> 
<circle cx="1363000.000000" cy="693400.000000" r="9000.000000"/> 
</g>
<g style="fill:#000000; fill-opacity:1.0;  stroke:#000000; stroke-width:0.010000; stroke-opacity:1;  stroke-linecap:round; stroke-linejoin:round;">
<path style="fill:#000000; fill-opacity:1.0;  stroke:#000000; stroke-width:0.010000; stroke-opacity:1;  stroke-linecap:round; stroke-linejoin:round;fill-rule:evenodd;" d="M 1509920.000000,944000.000000 1509958.060000,943808.660000 1510066.450000,943646.450000 1510228.660000,943538.060000 1510420.000000,943500.000000 1527420.000000,943500.000000 1527611.340000,943538.060000 1527773.550000,943646.450000 1527881.940000,943808.660000 1527920.000000,944000.000000 1527920.000000,961000.000000 1527881.940000,961191.340000 1527773.550000,961353.550000 1527611.340000,961461.940000 1527420.000000,961500.000000 1510420.000000,961500.000000 1510228.660000,961461.940000 1510066.450000,961353.550000 1509958.060000,961191.340000 1509920.000000,961000.000000 Z"/> 
<circle cx="1544320.000000" cy="952500.000000" r="9000.000000"/> 
<circle cx="1518920.000000" cy="977900.000000" r="9000.000000"/> 
<circle cx="1544320.000000" cy="977900.000000" r="9000.000000"/> 
</g>
<g style="fill:#000000; fill-opacity:1.0;  stroke:#000000; stroke-width:0.010000; stroke-opacity:1;  stroke-linecap:round; stroke-linejoin:round;">
<path style="fill:#000000; fill-opacity:1.0;  stroke:#000000; stroke-width:0.010000; stroke-opacity:1;  stroke-linecap:round; stroke-linejoin:round;fill-rule:evenodd;" d="M 1402724.000000,986646.000000 1402532.660000,986607.940000 1402370.450000,986499.550000 1402262.060000,986337.340000 1402224.000000,986146.000000 1402224.000000,969146.000000 1402262.060000,968954.660000 1402370.450000,968792.450000 1402532.660000,968684.060000 1402724.000000,968646.000000 1419724.000000,968646.000000 1419915.340000,968684.060000 1420077.550000,968792.450000 1420185.940000,968954.660000 1420224.000000,969146.000000 1420224.000000,986146.000000 1420185.940000,986337.340000 1420077.550000,986499.550000 1419915.340000,986607.940000 1419724.000000,986646.000000 Z"/> 
<circle cx="1411224.000000" cy="952246.000000" r="9000.000000"/> 
<circle cx="1436624.000000" cy="977646.000000" r="9000.000000"/> 
<circle cx="1436624.000000" cy="952246.000000" r="9000.000000"/> 
<circle cx="1462024.000000" cy="977646.000000" r="9000.000000"/> 
<circle cx="1462024.000000" cy="952246.000000" r="9000.000000"/> 
</g>
<g style="fill:#000000; fill-opacity:1.0;  stroke:#000000; stroke-width:0.010000; stroke-opacity:1;  stroke-linecap:round; stroke-linejoin:round;">
<path style="fill:#000000; fill-opacity:1.0;  stroke:#000000; stroke-width:0.010000; stroke-opacity:1;  stroke-linecap:round; stroke-linejoin:round;fill-rule:evenodd;" d="M 1400700.000000,763660.000000 1400738.060000,763468.660000 1400846.450000,763306.450000 1401008.660000,763198.060000 1401200.000000,763160.000000 1418200.000000,763160.000000 1418391.340000,763198.060000 1418553.550000,763306.450000 1418661.940000,763468.660000 1418700.000000,763660.000000 1418700.000000,780660.000000 1418661.940000,780851.340000 1418553.550000,781013.550000 1418391.340000,781121.940000 1418200.000000,781160.000000 1401200.000000,781160.000000 1401008.660000,781121.940000 1400846.450000,781013.550000 1400738.060000,780851.340000 1400700.000000,780660.000000 Z"/> 
<circle cx="1409700.000000" cy="797560.000000" r="9000.000000"/> 
<circle cx="1409700.000000" cy="822960.000000" r="9000.000000"/> 
<circle cx="1409700.000000" cy="848360.000000" r="9000.000000"/> 
<circle cx="1409700.000000" cy="873760.000000" r="9000.000000"/> 
<circle cx="1409700.000000" cy="899160.000000" r="9000.000000"/> 
</g>
<g style="fill:#000000; fill-opacity:1.0;  stroke:#000000; stroke-width:0.010000; stroke-opacity:1;  stroke-linecap:round; stroke-linejoin:round;">
<path style="fill:#000000; fill-opacity:1.0;  stroke:#000000; stroke-width:0.010000; stroke-opacity:1;  stroke-linecap:round; stroke-linejoin:round;fill-rule:evenodd;" d="M 1726820.000000,823840.000000 1726628.660000,823801.940000 1726466.450000,823693.550000 1726358.060000,823531.340000 1726320.000000,823340.000000 1726320.000000,807340.000000 1726358.060000,807148.660000 1726466.450000,806986.450000 1726628.660000,806878.060000 1726820.000000,806840.000000 1742820.000000,806840.000000 1743011.340000,806878.060000 1743173.550000,806986.450000 1743281.940000,807148.660000 1743320.000000,807340.000000 1743320.000000,823340.000000 1743281.940000,823531.340000 1743173.550000,823693.550000 1743011.340000,823801.940000 1742820.000000,823840.000000 Z"/> 
<circle cx="1734820.000000" cy="840340.000000" r="8500.000000"/> 
</g>
<g style="fill:#000000; fill-opacity:1.0;  stroke:#000000; stroke-width:0.010000; stroke-opacity:1;  stroke-linecap:round; stroke-linejoin:round;">
<circle cx="1754820.000000" cy="840340.000000" r="8500.000000"/> 
</g>
<g style="fill:#000000; fill-opacity:1.0;  stroke:#000000; stroke-width:0.010000; stroke-opacity:1;  stroke-linecap:round; stroke-linejoin:round;">
<circle cx="1754820.000000" cy="815340.000000" r="8500.000000"/> 
</g>
<g style="fill:#000000; fill-opacity:1.0;  stroke:#000000; stroke-width:0.010000; stroke-opacity:1;  stroke-linecap:round; stroke-linejoin:round;">
<circle cx="1783420.000000" cy="767840.000000" r="20500.000000"/> 
</g>
<g style="fill:#000000; fill-opacity:1.0;  stroke:#000000; stroke-width:0.010000; stroke-opacity:1;  stroke-linecap:round; stroke-linejoin:round;">
<circle cx="1783420.000000" cy="887840.000000" r="20500.000000"/> 
</g>
<g style="fill:#000000; fill-opacity:1.0;  stroke:#000000; stroke-width:0.010000; stroke-opacity:1;  stroke-linecap:round; stroke-linejoin:round;">
<circle cx="1677924.000000" cy="801624.000000" r="5500.000000"/> 
</g>
<g style="fill:#000000; fill-opacity:1.0;  stroke:#000000; stroke-width:0.010000; stroke-opacity:1;  stroke-linecap:round; stroke-linejoin:round;">
<circle cx="1734820.000000" cy="784860.000000" r="5500.000000"/> 
</g>
<g style="fill:#000000; fill-opacity:1.0;  stroke:#000000; stroke-width:0.010000; stroke-opacity:1;  stroke-linecap:round; stroke-linejoin:round;">
<circle cx="1790700.000000" cy="807720.000000" r="5500.000000"/> 
</g>
<g style="fill:#000000; fill-opacity:1.0;  stroke:#000000; stroke-width:0.010000; stroke-opacity:1;  stroke-linecap:round; stroke-linejoin:round;">
<circle cx="1790700.000000" cy="840740.000000" r="5500.000000"/> 
</g>
<g style="fill:#000000; fill-opacity:1.0;  stroke:#000000; stroke-width:0.010000; stroke-opacity:1;  stroke-linecap:round; stroke-linejoin:round;">
<circle cx="1642872.000000" cy="700532.000000" r="5500.000000"/> 
</g>
<g style="fill:#000000; fill-opacity:1.0;  stroke:#000000; stroke-width:0.010000; stroke-opacity:1;  stroke-linecap:round; stroke-linejoin:round;">
<circle cx="1534922.000000" cy="700278.000000" r="5500.000000"/> 
</g>
<g style="fill:#000000; fill-opacity:1.0;  stroke:#000000; stroke-width:0.010000; stroke-opacity:1;  stroke-linecap:round; stroke-linejoin:round;">
<circle cx="1559560.000000" cy="845820.000000" r="5500.000000"/> 
</g>
</g> 
</mask><mask id="hole-mask"><g><rect x="1122159.62" y="616942.75" fill="white" width="769510.38" height="396808.28"/><polyline stroke-linecap="round" stroke="black" stroke-width="27000.0" points="-0.0 0 0.0 0" transform="translate(1770000.0 970000.0) rotate(-0.0)"/><polyline stroke-linecap="round" stroke="black" stroke-width="27000.0" points="-0.0 0 0.0 0" transform="translate(1230000.0 970000.0) rotate(-0.0)"/><polyline stroke-linecap="round" stroke="black" stroke-width="27000.0" points="-0.0 0 0.0 0" transform="translate(1230000.0 695000.0) rotate(-0.0)"/><polyline stroke-linecap="round" stroke="black" stroke-width="27000.0" points="-0.0 0 0.0 0" transform="translate(1770000.0 695000.0) rotate(-0.0)"/><polyline stroke-linecap="round" stroke="black" stroke-width="20000.0" points="-0.0 0 0.0 0" transform="translate(1276000.0 812000.0) rotate(-90.0)"/><polyline stroke-linecap="round" stroke="black" stroke-width="15000.0" points="-2500.0 0 2500.0 0" transform="translate(1232000.0 812000.0) rotate(-90.0)"/><polyline stroke-linecap="round" stroke="black" stroke-width="10000.0" points="-0.0 0 0.0 0" transform="translate(1363000.0 795000.0) rotate(-180.0)"/><polyline stroke-linecap="round" stroke="black" stroke-width="10000.0" points="-0.0 0 0.0 0" transform="translate(1363000.0 769600.0) rotate(-180.0)"/><polyline stroke-linecap="round" stroke="black" stroke-width="10000.0" points="-0.0 0 0.0 0" transform="translate(1363000.0 744200.0) rotate(-180.0)"/><polyline stroke-linecap="round" stroke="black" stroke-width="10000.0" points="-0.0 0 0.0 0" transform="translate(1363000.0 718800.0) rotate(-180.0)"/><polyline stroke-linecap="round" stroke="black" stroke-width="10000.0" points="-0.0 0 0.0 0" transform="translate(1363000.0 693400.0) rotate(-180.0)"/><polyline stroke-linecap="round" stroke="black" stroke-width="10000.0" points="-0.0 0 0.0 0" transform="translate(1518920.0 952500.0) rotate(-0.0)"/><polyline stroke-linecap="round" stroke="black" stroke-width="10000.0" points="-0.0 0 0.0 0" transform="translate(1544320.0 952500.0) rotate(-0.0)"/><polyline stroke-linecap="round" stroke="black" stroke-width="10000.0" points="-0.0 0 0.0 0" transform="translate(1518920.0 977900.0) rotate(-0.0)"/><polyline stroke-linecap="round" stroke="black" stroke-width="10000.0" points="-0.0 0 0.0 0" transform="translate(1544320.0 977900.0) rotate(-0.0)"/><polyline stroke-linecap="round" stroke="black" stroke-width="10000.0" points="-0.0 0 0.0 0" transform="translate(1411224.0 977646.0) rotate(-90.0)"/><polyline stroke-linecap="round" stroke="black" stroke-width="10000.0" points="-0.0 0 0.0 0" transform="translate(1411224.0 952246.0) rotate(-90.0)"/><polyline stroke-linecap="round" stroke="black" stroke-width="10000.0" points="-0.0 0 0.0 0" transform="translate(1436624.0 977646.0) rotate(-90.0)"/><polyline stroke-linecap="round" stroke="black" stroke-width="10000.0" points="-0.0 0 0.0 0" transform="translate(1436624.0 952246.0) rotate(-90.0)"/><polyline stroke-linecap="round" stroke="black" stroke-width="10000.0" points="-0.0 0 0.0 0" transform="translate(1462024.0 977646.0) rotate(-90.0)"/><polyline stroke-linecap="round" stroke="black" stroke-width="10000.0" points="-0.0 0 0.0 0" transform="translate(1462024.0 952246.0) rotate(-90.0)"/><polyline stroke-linecap="round" stroke="black" stroke-width="10000.0" points="-0.0 0 0.0 0" transform="translate(1409700.0 772160.0) rotate(-0.0)"/><polyline stroke-linecap="round" stroke="black" stroke-width="10000.0" points="-0.0 0 0.0 0" transform="translate(1409700.0 797560.0) rotate(-0.0)"/><polyline stroke-linecap="round" stroke="black" stroke-width="10000.0" points="-0.0 0 0.0 0" transform="translate(1409700.0 822960.0) rotate(-0.0)"/><polyline stroke-linecap="round" stroke="black" stroke-width="10000.0" points="-0.0 0 0.0 0" transform="translate(1409700.0 848360.0) rotate(-0.0)"/><polyline stroke-linecap="round" stroke="black" stroke-width="10000.0" points="-0.0 0 0.0 0" transform="translate(1409700.0 873760.0) rotate(-0.0)"/><polyline stroke-linecap="round" stroke="black" stroke-width="10000.0" points="-0.0 0 0.0 0" transform="translate(1409700.0 899160.0) rotate(-0.0)"/><polyline stroke-linecap="round" stroke="black" stroke-width="9500.0" points="-0.0 0 0.0 0" transform="translate(1734820.0 815340.0) rotate(-90.0)"/><polyline stroke-linecap="round" stroke="black" stroke-width="9500.0" points="-0.0 0 0.0 0" transform="translate(1734820.0 840340.0) rotate(-90.0)"/><polyline stroke-linecap="round" stroke="black" stroke-width="9500.0" points="-0.0 0 0.0 0" transform="translate(1754820.0 840340.0) rotate(-90.0)"/><polyline stroke-linecap="round" stroke="black" stroke-width="9500.0" points="-0.0 0 0.0 0" transform="translate(1754820.0 815340.0) rotate(-90.0)"/><polyline stroke-linecap="round" stroke="black" stroke-width="23000.0" points="-0.0 0 0.0 0" transform="translate(1783420.0 767840.0) rotate(-90.0)"/><polyline stroke-linecap="round" stroke="black" stroke-width="23000.0" points="-0.0 0 0.0 0" transform="translate(1783420.0 887840.0) rotate(-90.0)"/><polyline stroke-linecap="round" stroke="black" stroke-width="4000.0" points="-0.0 0 0.0 0" transform="translate(1543558.0 757936.0) rotate(0)"/><polyline stroke-linecap="round" stroke="black" stroke-width="4000.0" points="-0.0 0 0.0 0" transform="translate(1231138.0 733298.0) rotate(0)"/><polyline stroke-linecap="round" stroke="black" stroke-width="4000.0" points="-0.0 0 0.0 0" transform="translate(1291082.0 779526.0) rotate(0)"/><polyline stroke-linecap="round" stroke="black" stroke-width="4000.0" points="-0.0 0 0.0 0" transform="translate(1672590.0 979424.0) rotate(0)"/><polyline stroke-linecap="round" stroke="black" stroke-width="4000.0" points="-0.0 0 0.0 0" transform="translate(1556766.0 830580.0) rotate(0)"/><polyline stroke-linecap="round" stroke="black" stroke-width="4000.0" points="-0.0 0 0.0 0" transform="translate(1638300.0 767588.0) rotate(0)"/><polyline stroke-linecap="round" stroke="black" stroke-width="4000.0" points="-0.0 0 0.0 0" transform="translate(1253490.0 909066.0) rotate(0)"/><polyline stroke-linecap="round" stroke="black" stroke-width="4000.0" points="-0.0 0 0.0 0" transform="translate(1308100.0 953516.0) rotate(0)"/><polyline stroke-linecap="round" stroke="black" stroke-width="4000.0" points="-0.0 0 0.0 0" transform="translate(1290828.0 733806.0) rotate(0)"/><polyline stroke-linecap="round" stroke="black" stroke-width="4000.0" points="-0.0 0 0.0 0" transform="translate(1448308.0 850646.0) rotate(0)"/><polyline stroke-linecap="round" stroke="black" stroke-width="4000.0" points="-0.0 0 0.0 0" transform="translate(1230884.0 781304.0) rotate(0)"/><polyline stroke-linecap="round" stroke="black" stroke-width="4000.0" points="-0.0 0 0.0 0" transform="translate(1598422.0 986028.0) rotate(0)"/><polyline stroke-linecap="round" stroke="black" stroke-width="4000.0" points="-0.0 0 0.0 0" transform="translate(1545336.0 832866.0) rotate(0)"/><polyline stroke-linecap="round" stroke="black" stroke-width="4000.0" points="-0.0 0 0.0 0" transform="translate(1460246.0 692404.0) rotate(0)"/><polyline stroke-linecap="round" stroke="black" stroke-width="4000.0" points="-0.0 0 0.0 0" transform="translate(1591818.0 819658.0) rotate(0)"/><polyline stroke-linecap="round" stroke="black" stroke-width="4000.0" points="-0.0 0 0.0 0" transform="translate(1308354.0 889000.0) rotate(0)"/><polyline stroke-linecap="round" stroke="black" stroke-width="4000.0" points="-0.0 0 0.0 0" transform="translate(1291082.0 843026.0) rotate(0)"/><polyline stroke-linecap="round" stroke="black" stroke-width="4000.0" points="-0.0 0 0.0 0" transform="translate(1215644.0 893318.0) rotate(0)"/><polyline stroke-linecap="round" stroke="black" stroke-width="4000.0" points="-0.0 0 0.0 0" transform="translate(1231392.0 844042.0) rotate(0)"/><polyline stroke-linecap="round" stroke="black" stroke-width="4000.0" points="-0.0 0 0.0 0" transform="translate(1627632.0 700024.0) rotate(0)"/><polyline stroke-linecap="round" stroke="black" stroke-width="4000.0" points="-0.0 0 0.0 0" transform="translate(1550416.0 700786.0) rotate(0)"/><polyline stroke-linecap="round" stroke="black" stroke-width="4000.0" points="-0.0 0 0.0 0" transform="translate(1606804.0 811530.0) rotate(0)"/><polyline stroke-linecap="round" stroke="black" stroke-width="4000.0" points="-0.0 0 0.0 0" transform="translate(1668780.0 887730.0) rotate(0)"/><polyline stroke-linecap="round" stroke="black" stroke-width="4000.0" points="-0.0 0 0.0 0" transform="translate(1605534.0 862330.0) rotate(0)"/><polyline stroke-linecap="round" stroke="black" stroke-width="4000.0" points="-0.0 0 0.0 0" transform="translate(1672336.0 935228.0) rotate(0)"/><polyline stroke-linecap="round" stroke="black" stroke-width="4000.0" points="-0.0 0 0.0 0" transform="translate(1650492.0 904494.0) rotate(0)"/><polyline stroke-linecap="round" stroke="black" stroke-width="4000.0" points="-0.0 0 0.0 0" transform="translate(1657350.0 801624.0) rotate(0)"/><polyline stroke-linecap="round" stroke="black" stroke-width="4000.0" points="-0.0 0 0.0 0" transform="translate(1704594.0 804164.0) rotate(0)"/><polyline stroke-linecap="round" stroke="black" stroke-width="4000.0" points="-0.0 0 0.0 0" transform="translate(1723898.0 881380.0) rotate(0)"/><polyline stroke-linecap="round" stroke="black" stroke-width="4000.0" points="-0.0 0 0.0 0" transform="translate(1705610.0 906780.0) rotate(0)"/><polyline stroke-linecap="round" stroke="black" stroke-width="4000.0" points="-0.0 0 0.0 0" transform="translate(1568958.0 875538.0) rotate(0)"/><polyline stroke-linecap="round" stroke="black" stroke-width="4000.0" points="-0.0 0 0.0 0" transform="translate(1561592.0 883920.0) rotate(0)"/><polyline stroke-linecap="round" stroke="black" stroke-width="4000.0" points="-0.0 0 0.0 0" transform="translate(1562862.0 916940.0) rotate(0)"/><polyline stroke-linecap="round" stroke="black" stroke-width="4000.0" points="-0.0 0 0.0 0" transform="translate(1550670.0 885952.0) rotate(0)"/><polyline stroke-linecap="round" stroke="black" stroke-width="4000.0" points="-0.0 0 0.0 0" transform="translate(1526794.0 883158.0) rotate(0)"/><polyline stroke-linecap="round" stroke="black" stroke-width="4000.0" points="-0.0 0 0.0 0" transform="translate(1520698.0 872236.0) rotate(0)"/><polyline stroke-linecap="round" stroke="black" stroke-width="4000.0" points="-0.0 0 0.0 0" transform="translate(1516891.0 858520.0) rotate(0)"/><polyline stroke-linecap="round" stroke="black" stroke-width="4000.0" points="-0.0 0 0.0 0" transform="translate(1501394.0 818896.0) rotate(0)"/><polyline stroke-linecap="round" stroke="black" stroke-width="4000.0" points="-0.0 0 0.0 0" transform="translate(1485951.11 853896.89) rotate(0)"/><polyline stroke-linecap="round" stroke="black" stroke-width="4000.0" points="-0.0 0 0.0 0" transform="translate(1559560.0 857758.02) rotate(0)"/></g></mask></defs><g transform="scale(-1,1)" id="boardContainer"><g id="substrate" clip-path="url(#cut-off)" mask="url(#hole-mask)"><g id="substrate-board" style="fill:#4ca06c; stroke:#4ca06c;"><path d=" M 1820000.0 1013000.0 L 1820000.0 657000.0 L 1190000.0 657000.0 L 1190000.0 1013000.0 L 1820000.0 1013000.0 " style="fill-rule: evenodd;"/><g style="fill-opacity: 0.0;stroke-width: 500.000000;stroke-opacity: 1;stroke-linecap: round;stroke-linejoin: round">
<path d="M1190000 1013000 L1820000 1013000 "/>
<path d="M1820000 1013000 L1820000 657000 "/>
<path d="M1190000 657000 L1190000 1013000 "/>
<path d="M1820000 657000 L1190000 657000 "/>
</g> 
</g></g></g></svg>