<?xml version="1.0" standalone="no"?>
 <!DOCTYPE svg PUBLIC "-//W3C//DTD SVG 1.1//EN" 
 "http://www.w3.org/Graphics/SVG/1.1/DTD/svg11.dtd"> 
<svg
  xmlns:svg="http://www.w3.org/2000/svg"
  xmlns="http://www.w3.org/2000/svg"
  xmlns:xlink="http://www.w3.org/1999/xlink"
  version="1.1"
  width="29.700220cm" height="21.000720cm" viewBox="0 0 297002200 210007200">
<title>SVG Picture created as t1-User_Drawings.svg date 2022/06/14 18:12:53 </title>
  <desc>Picture generated by PCBNEW </desc>
<g style="fill:#000000; fill-opacity:1.000000;stroke:#000000; stroke-opacity:1.000000;
stroke-linecap:round; stroke-linejoin:round;"
 transform="translate(0 0) scale(1 1)">
</g>
<g style="fill:#000000; fill-opacity:0.0; 
stroke:#000000; stroke-width:0.000000; stroke-opacity:1; 
stroke-linecap:round; stroke-linejoin:round;">
</g>
<g style="fill:#000000; fill-opacity:0.0; 
stroke:#000000; stroke-width:150000.000000; stroke-opacity:1; 
stroke-linecap:round; stroke-linejoin:round;">
<g transform="rotate(89.998391 179901714.000000 83492254.000000)">
<text x="179901714.000000" y="83992254.000000"
textLength="9814048.000000" font-size="1333333.000000" lengthAdjust="spacingAndGlyphs"
text-anchor="middle" opacity="0">35.6156 mm</text>
</g>
<g class="stroked-text"><desc>35.6156 mm</desc>
<path d="M179354226 78825571
L179354209 79444619
L179735171 79111296
L179735167 79254154
L179782783 79349393
L179830401 79397013
L179925638 79444635
L180163733 79444642
L180258972 79397025
L180306593 79349408
L180354214 79254171
L180354222 78968457
L180306606 78873217
L180258988 78825597
" />
<path d="M179354184 80349381
L179354197 79873191
L179830389 79825585
L179782768 79873203
L179735147 79968439
L179735140 80206535
L179782756 80301774
L179830374 80349394
L179925611 80397016
L180163706 80397023
L180258946 80349406
L180306566 80301789
L180354188 80206552
L180354194 79968457
L180306578 79873217
L180258960 79825597
" />
<path d="M180258932 80825597
L180306550 80873217
L180354170 80825600
L180306553 80777979
L180258932 80825597
L180354170 80825600
" />
<path d="M179354145 81730333
L179354150 81539857
L179401772 81444620
L179449392 81397003
L179592252 81301769
L179782730 81254155
L180163682 81254166
L180258919 81301787
L180306537 81349408
L180354153 81444647
L180354148 81635123
L180306526 81730360
L180258905 81777978
L180163666 81825594
L179925571 81825588
L179830334 81777966
L179782716 81730345
L179735100 81635106
L179735105 81444630
L179782727 81349393
L179830347 81301775
L179925587 81254159
" />
<path d="M180354116 82777980
L180354132 82206552
" />
<path d="M180354124 82492266
L179354124 82492238
L179496983 82397004
L179592224 82301769
L179639846 82206532
" />
<path d="M179354090 83682714
L179354103 83206524
L179830295 83158918
L179782675 83206536
L179735053 83301773
L179735046 83539868
L179782663 83635107
L179830281 83682728
L179925517 83730349
L180163613 83730356
L180258852 83682740
L180306472 83635122
L180354094 83539885
L180354101 83301790
L180306484 83206551
L180258867 83158930
" />
<path d="M179354065 84587476
L179354070 84397000
L179401692 84301763
L179449312 84254146
L179592172 84158911
L179782649 84111298
L180163602 84111308
L180258839 84158930
L180306456 84206551
L180354073 84301790
L180354067 84492266
L180306446 84587503
L180258825 84635121
L180163586 84682737
L179925491 84682730
L179830254 84635109
L179782636 84587488
L179735020 84492249
L179735025 84301773
L179782647 84206536
L179830267 84158918
L179925507 84111302
" />
<path d="M180354029 85873219
L179687362 85873200
" />
<path d="M179782600 85873203
L179734980 85920820
L179687358 86016057
L179687354 86158914
L179734970 86254154
L179830207 86301775
L180354017 86301790
" />
<path d="M179830207 86301775
L179734968 86349392
L179687346 86444628
L179687342 86587486
L179734958 86682725
L179830195 86730347
L180354005 86730361
" />
<path d="M180353991 87206552
L179687324 87206533
" />
<path d="M179782563 87206536
L179734942 87254154
L179687320 87349390
L179687316 87492247
L179734933 87587487
L179830170 87635109
L180353979 87635123
" />
<path d="M179830170 87635109
L179734930 87682725
L179687308 87777962
L179687304 87920819
L179734921 88016058
L179830158 88063680
L180353967 88063695
" />
</g><path d="M178002200 101300000
L181637634 101300102
" />
<path d="M178003200 65684400
L181638634 65684502
" />
<path d="M181051214 101300086
L181052214 65684486
" />
<path d="M181051214 101300086
L181052214 65684486
" />
<path d="M181051214 101300086
L180464825 100173566
" />
<path d="M181051214 101300086
L181637666 100173599
" />
<path d="M181052214 65684486
L181638603 66811006
" />
<path d="M181052214 65684486
L180465762 66810973
" />
<g transform="rotate(-359.985813 146501937.000000 62611775.000000)">
<text x="146501937.000000" y="63111775.000000"
textLength="9814048.000000" font-size="1333333.000000" lengthAdjust="spacingAndGlyphs"
text-anchor="middle" opacity="0">63.0010 mm</text>
</g>
<g class="stroked-text"><desc>63.0010 mm</desc>
<path d="M150644659 62063130
L150835135 62063082
L150930385 62110678
L150978016 62158285
L151073289 62301119
L151120955 62491583
L151121050 62872536
L151073454 62967785
L151025847 63015416
L150930621 63063059
L150740145 63063106
L150644895 63015511
L150597264 62967903
L150549621 62872677
L150549562 62634582
L150597158 62539332
L150644765 62491701
L150739991 62444058
L150930468 62444011
L151025717 62491607
L151073348 62539214
L151120991 62634440
" />
<path d="M150216088 62063236
L149597040 62063389
L149930468 62444259
L149787610 62444294
L149692384 62491937
L149644777 62539568
L149597181 62634818
L149597240 62872913
L149644883 62968139
L149692514 63015746
L149787764 63063342
L150073478 63063271
L150168704 63015628
L150216312 62967998
" />
<path d="M149168693 62968257
L149121085 63015888
L149168716 63063495
L149216323 63015864
L149168693 62968257
L149168716 63063495
" />
<path d="M148501802 62063660
L148406564 62063684
L148311337 62111326
L148263730 62158957
L148216135 62254207
L148168563 62444695
L148168622 62682790
L148216288 62873255
L148263931 62968481
L148311561 63016088
L148406811 63063684
L148502049 63063660
L148597276 63016018
L148644883 62968387
L148692478 62873137
L148740050 62682649
L148739991 62444554
L148692325 62254089
L148644683 62158863
L148597052 62111256
L148501802 62063660
" />
<path d="M147549421 62063896
L147454183 62063920
L147358957 62111562
L147311349 62159193
L147263754 62254443
L147216182 62444931
L147216241 62683026
L147263907 62873491
L147311550 62968717
L147359181 63016324
L147454430 63063920
L147549669 63063896
L147644895 63016253
L147692502 62968623
L147740098 62873373
L147787669 62682885
L147787610 62444789
L147739944 62254325
L147692302 62159099
L147644671 62111492
L147549421 62063896
" />
<path d="M146263954 63064214
L146835383 63064073
" />
<path d="M146549669 63064144
L146549421 62064144
L146644694 62206977
L146739956 62302192
L146835206 62349787
" />
<path d="M145644659 62064368
L145549421 62064391
L145454195 62112034
L145406587 62159665
L145358992 62254915
L145311420 62445403
L145311479 62683498
L145359145 62873962
L145406788 62969189
L145454419 63016796
L145549669 63064391
L145644907 63064368
L145740133 63016725
L145787740 62969094
L145835336 62873844
L145882908 62683356
L145882849 62445261
L145835182 62254797
L145787540 62159570
L145739909 62111963
L145644659 62064368
" />
<path d="M144121097 63064745
L144120932 62398078
" />
<path d="M144120956 62493316
L144073325 62445709
L143978075 62398114
L143835218 62398149
L143739992 62445792
L143692396 62541042
L143692526 63064851
" />
<path d="M143692396 62541042
L143644753 62445815
L143549504 62398220
L143406646 62398255
L143311420 62445898
L143263825 62541148
L143263954 63064957
" />
<path d="M142787764 63065075
L142787599 62398409
" />
<path d="M142787622 62493647
L142739992 62446039
L142644742 62398444
L142501885 62398479
L142406658 62446122
L142359063 62541372
L142359193 63065181
" />
<path d="M142359063 62541372
L142311420 62446145
L142216170 62398550
L142073313 62398585
L141978087 62446228
L141930491 62541478
L141930621 63065287
" />
</g><path d="M178003200 65684400
L178002577 63167555
" />
<path d="M115002200 65700000
L115001577 63183155
" />
<path d="M178002722 63753975
L115001722 63769575
" />
<path d="M178002722 63753975
L115001722 63769575
" />
<path d="M178002722 63753975
L176876363 64340675
" />
<path d="M178002722 63753975
L176876073 63167833
" />
<path d="M115001722 63769575
L116128081 63182875
" />
<path d="M115001722 63769575
L116128371 64355717
" />
<g >
</g>
<g >
</g>
<g >
</g>
<g >
</g>
<g >
</g>
<g >
</g>
<g >
</g>
<g >
</g>
<g >
</g>
<g >
</g>
<g >
</g>
<g >
</g>
<g >
</g>
<g >
</g>
<g >
</g>
<g >
</g>
<g >
</g>
<g >
</g>
<g >
</g>
<g >
</g>
<g >
</g>
<g >
</g>
<g >
</g>
<g >
</g>
<g >
</g>
<g >
</g>
<g >
</g>
<g >
</g>
<g >
</g>
<g >
</g>
<g >
</g>
<g >
</g>
<g >
</g>
<g >
</g>
<g >
</g>
<g >
</g>
<g >
</g>
<g >
</g>
<g >
</g>
<g >
</g>
<g >
</g>
<g >
</g>
<g >
</g>
<g >
</g>
<g >
</g>
<g >
</g>
<g >
</g>
<g >
</g>
<g >
</g>
<g >
</g>
</g> 
</svg>
