<?xml version='1.0' encoding='ASCII' standalone='yes'?>
<svg xmlns="http://www.w3.org/2000/svg" version="1.1" width="29.700220cm" height="21.000720cm" viewBox="0 0 297002200 210007200">
            <title>Picture generated by PcbDraw </title>
            <desc>Picture generated by PcbDraw</desc>
        <defs><clipPath id="cut-off"><path d=" M 182000000.0 65700000.0 L 119000000.0 65700000.0 L 119000000.0 101300000.0 L 182000000.0 101300000.0 L 182000000.0 65700000.0 " style="fill-rule: evenodd;"/></clipPath><mask id="pads-mask-silkscreen"><rect x="112215962" y="61694275" width="76951038" height="39680828" fill="white"/><g style="fill:#000000; fill-opacity:0.0;  stroke:#000000; stroke-width:0.000000; stroke-opacity:1;  stroke-linecap:round; stroke-linejoin:round;">
<g style="fill:#000000; fill-opacity:1.0;  stroke:#000000; stroke-width:1.000000; stroke-opacity:1;  stroke-linecap:round; stroke-linejoin:round;">
<path style="fill:#000000; fill-opacity:1.0;  stroke:#000000; stroke-width:1.000000; stroke-opacity:1;  stroke-linecap:round; stroke-linejoin:round;fill-rule:evenodd;" d="M 131835400.000000,89844400.000000 131904415.000000,89852446.000000 132004890.000000,89896866.000000 132082638.000000,89974478.000000 132127233.000000,90074876.000000 132135400.000000,90144400.000000 132135400.000000,93144400.000000 132127354.000000,93213415.000000 132082934.000000,93313890.000000 132005322.000000,93391638.000000 131904924.000000,93436233.000000 131835400.000000,93444400.000000 129835400.000000,93444400.000000 129766385.000000,93436354.000000 129665910.000000,93391934.000000 129588162.000000,93314322.000000 129543567.000000,93213924.000000 129535400.000000,93144400.000000 129535400.000000,90144400.000000 129543446.000000,90075385.000000 129587866.000000,89974910.000000 129665478.000000,89897162.000000 129765876.000000,89852567.000000 129835400.000000,89844400.000000 Z"/> 
<path style="fill:#000000; fill-opacity:1.0;  stroke:#000000; stroke-width:1.000000; stroke-opacity:1;  stroke-linecap:round; stroke-linejoin:round;fill-rule:evenodd;" d="M 131835400.000000,96344400.000000 131904415.000000,96352446.000000 132004890.000000,96396866.000000 132082638.000000,96474478.000000 132127233.000000,96574876.000000 132135400.000000,96644400.000000 132135400.000000,99644400.000000 132127354.000000,99713415.000000 132082934.000000,99813890.000000 132005322.000000,99891638.000000 131904924.000000,99936233.000000 131835400.000000,99944400.000000 129835400.000000,99944400.000000 129766385.000000,99936354.000000 129665910.000000,99891934.000000 129588162.000000,99814322.000000 129543567.000000,99713924.000000 129535400.000000,99644400.000000 129535400.000000,96644400.000000 129543446.000000,96575385.000000 129587866.000000,96474910.000000 129665478.000000,96397162.000000 129765876.000000,96352567.000000 129835400.000000,96344400.000000 Z"/> 
</g>
<g style="fill:#000000; fill-opacity:1.0;  stroke:#000000; stroke-width:1.000000; stroke-opacity:1;  stroke-linecap:round; stroke-linejoin:round;">
<path style="fill:#000000; fill-opacity:1.0;  stroke:#000000; stroke-width:1.000000; stroke-opacity:1;  stroke-linecap:round; stroke-linejoin:round;fill-rule:evenodd;" d="M 121525000.000000,90443750.000000 121532879.000000,90376173.000000 121576373.000000,90277791.000000 121652368.000000,90201663.000000 121750674.000000,90157997.000000 121818750.000000,90150000.000000 122306250.000000,90150000.000000 122373827.000000,90157879.000000 122472209.000000,90201373.000000 122548337.000000,90277368.000000 122592003.000000,90375674.000000 122600000.000000,90443750.000000 122600000.000000,91356250.000000 122592121.000000,91423827.000000 122548627.000000,91522209.000000 122472632.000000,91598337.000000 122374326.000000,91642003.000000 122306250.000000,91650000.000000 121818750.000000,91650000.000000 121751173.000000,91642121.000000 121652791.000000,91598627.000000 121576663.000000,91522632.000000 121532997.000000,91424326.000000 121525000.000000,91356250.000000 Z"/> 
<path style="fill:#000000; fill-opacity:1.0;  stroke:#000000; stroke-width:1.000000; stroke-opacity:1;  stroke-linecap:round; stroke-linejoin:round;fill-rule:evenodd;" d="M 123400000.000000,90443750.000000 123407879.000000,90376173.000000 123451373.000000,90277791.000000 123527368.000000,90201663.000000 123625674.000000,90157997.000000 123693750.000000,90150000.000000 124181250.000000,90150000.000000 124248827.000000,90157879.000000 124347209.000000,90201373.000000 124423337.000000,90277368.000000 124467003.000000,90375674.000000 124475000.000000,90443750.000000 124475000.000000,91356250.000000 124467121.000000,91423827.000000 124423627.000000,91522209.000000 124347632.000000,91598337.000000 124249326.000000,91642003.000000 124181250.000000,91650000.000000 123693750.000000,91650000.000000 123626173.000000,91642121.000000 123527791.000000,91598627.000000 123451663.000000,91522632.000000 123407997.000000,91424326.000000 123400000.000000,91356250.000000 Z"/> 
</g>
<g style="fill:#000000; fill-opacity:1.0;  stroke:#000000; stroke-width:1.000000; stroke-opacity:1;  stroke-linecap:round; stroke-linejoin:round;">
<path style="fill:#000000; fill-opacity:1.0;  stroke:#000000; stroke-width:1.000000; stroke-opacity:1;  stroke-linecap:round; stroke-linejoin:round;fill-rule:evenodd;" d="M 162716250.000000,73641000.000000 162783827.000000,73648879.000000 162882209.000000,73692373.000000 162958337.000000,73768368.000000 163002003.000000,73866674.000000 163010000.000000,73934750.000000 163010000.000000,74422250.000000 163002121.000000,74489827.000000 162958627.000000,74588209.000000 162882632.000000,74664337.000000 162784326.000000,74708003.000000 162716250.000000,74716000.000000 161803750.000000,74716000.000000 161736173.000000,74708121.000000 161637791.000000,74664627.000000 161561663.000000,74588632.000000 161517997.000000,74490326.000000 161510000.000000,74422250.000000 161510000.000000,73934750.000000 161517879.000000,73867173.000000 161561373.000000,73768791.000000 161637368.000000,73692663.000000 161735674.000000,73648997.000000 161803750.000000,73641000.000000 Z"/> 
<path style="fill:#000000; fill-opacity:1.0;  stroke:#000000; stroke-width:1.000000; stroke-opacity:1;  stroke-linecap:round; stroke-linejoin:round;fill-rule:evenodd;" d="M 162716250.000000,75516000.000000 162783827.000000,75523879.000000 162882209.000000,75567373.000000 162958337.000000,75643368.000000 163002003.000000,75741674.000000 163010000.000000,75809750.000000 163010000.000000,76297250.000000 163002121.000000,76364827.000000 162958627.000000,76463209.000000 162882632.000000,76539337.000000 162784326.000000,76583003.000000 162716250.000000,76591000.000000 161803750.000000,76591000.000000 161736173.000000,76583121.000000 161637791.000000,76539627.000000 161561663.000000,76463632.000000 161517997.000000,76365326.000000 161510000.000000,76297250.000000 161510000.000000,75809750.000000 161517879.000000,75742173.000000 161561373.000000,75643791.000000 161637368.000000,75567663.000000 161735674.000000,75523997.000000 161803750.000000,75516000.000000 Z"/> 
</g>
<g style="fill:#000000; fill-opacity:1.0;  stroke:#000000; stroke-width:1.000000; stroke-opacity:1;  stroke-linecap:round; stroke-linejoin:round;">
<path style="fill:#000000; fill-opacity:1.0;  stroke:#000000; stroke-width:1.000000; stroke-opacity:1;  stroke-linecap:round; stroke-linejoin:round;fill-rule:evenodd;" d="M 156366250.000000,73641000.000000 156433827.000000,73648879.000000 156532209.000000,73692373.000000 156608337.000000,73768368.000000 156652003.000000,73866674.000000 156660000.000000,73934750.000000 156660000.000000,74422250.000000 156652121.000000,74489827.000000 156608627.000000,74588209.000000 156532632.000000,74664337.000000 156434326.000000,74708003.000000 156366250.000000,74716000.000000 155453750.000000,74716000.000000 155386173.000000,74708121.000000 155287791.000000,74664627.000000 155211663.000000,74588632.000000 155167997.000000,74490326.000000 155160000.000000,74422250.000000 155160000.000000,73934750.000000 155167879.000000,73867173.000000 155211373.000000,73768791.000000 155287368.000000,73692663.000000 155385674.000000,73648997.000000 155453750.000000,73641000.000000 Z"/> 
<path style="fill:#000000; fill-opacity:1.0;  stroke:#000000; stroke-width:1.000000; stroke-opacity:1;  stroke-linecap:round; stroke-linejoin:round;fill-rule:evenodd;" d="M 156366250.000000,75516000.000000 156433827.000000,75523879.000000 156532209.000000,75567373.000000 156608337.000000,75643368.000000 156652003.000000,75741674.000000 156660000.000000,75809750.000000 156660000.000000,76297250.000000 156652121.000000,76364827.000000 156608627.000000,76463209.000000 156532632.000000,76539337.000000 156434326.000000,76583003.000000 156366250.000000,76591000.000000 155453750.000000,76591000.000000 155386173.000000,76583121.000000 155287791.000000,76539627.000000 155211663.000000,76463632.000000 155167997.000000,76365326.000000 155160000.000000,76297250.000000 155160000.000000,75809750.000000 155167879.000000,75742173.000000 155211373.000000,75643791.000000 155287368.000000,75567663.000000 155385674.000000,75523997.000000 155453750.000000,75516000.000000 Z"/> 
</g>
<g style="fill:#000000; fill-opacity:1.0;  stroke:#000000; stroke-width:1.000000; stroke-opacity:1;  stroke-linecap:round; stroke-linejoin:round;">
<path style="fill:#000000; fill-opacity:1.0;  stroke:#000000; stroke-width:1.000000; stroke-opacity:1;  stroke-linecap:round; stroke-linejoin:round;fill-rule:evenodd;" d="M 163778250.000000,87679000.000000 163845827.000000,87686879.000000 163944209.000000,87730373.000000 164020337.000000,87806368.000000 164064003.000000,87904674.000000 164072000.000000,87972750.000000 164072000.000000,88460250.000000 164064121.000000,88527827.000000 164020627.000000,88626209.000000 163944632.000000,88702337.000000 163846326.000000,88746003.000000 163778250.000000,88754000.000000 162865750.000000,88754000.000000 162798173.000000,88746121.000000 162699791.000000,88702627.000000 162623663.000000,88626632.000000 162579997.000000,88528326.000000 162572000.000000,88460250.000000 162572000.000000,87972750.000000 162579879.000000,87905173.000000 162623373.000000,87806791.000000 162699368.000000,87730663.000000 162797674.000000,87686997.000000 162865750.000000,87679000.000000 Z"/> 
<path style="fill:#000000; fill-opacity:1.0;  stroke:#000000; stroke-width:1.000000; stroke-opacity:1;  stroke-linecap:round; stroke-linejoin:round;fill-rule:evenodd;" d="M 163778250.000000,89554000.000000 163845827.000000,89561879.000000 163944209.000000,89605373.000000 164020337.000000,89681368.000000 164064003.000000,89779674.000000 164072000.000000,89847750.000000 164072000.000000,90335250.000000 164064121.000000,90402827.000000 164020627.000000,90501209.000000 163944632.000000,90577337.000000 163846326.000000,90621003.000000 163778250.000000,90629000.000000 162865750.000000,90629000.000000 162798173.000000,90621121.000000 162699791.000000,90577627.000000 162623663.000000,90501632.000000 162579997.000000,90403326.000000 162572000.000000,90335250.000000 162572000.000000,89847750.000000 162579879.000000,89780173.000000 162623373.000000,89681791.000000 162699368.000000,89605663.000000 162797674.000000,89561997.000000 162865750.000000,89554000.000000 Z"/> 
</g>
<g style="fill:#000000; fill-opacity:1.0;  stroke:#000000; stroke-width:1.000000; stroke-opacity:1;  stroke-linecap:round; stroke-linejoin:round;">
<path style="fill:#000000; fill-opacity:1.0;  stroke:#000000; stroke-width:1.000000; stroke-opacity:1;  stroke-linecap:round; stroke-linejoin:round;fill-rule:evenodd;" d="M 152499800.000000,78410750.000000 152507679.000000,78343173.000000 152551173.000000,78244791.000000 152627168.000000,78168663.000000 152725474.000000,78124997.000000 152793550.000000,78117000.000000 153281050.000000,78117000.000000 153348627.000000,78124879.000000 153447009.000000,78168373.000000 153523137.000000,78244368.000000 153566803.000000,78342674.000000 153574800.000000,78410750.000000 153574800.000000,79323250.000000 153566921.000000,79390827.000000 153523427.000000,79489209.000000 153447432.000000,79565337.000000 153349126.000000,79609003.000000 153281050.000000,79617000.000000 152793550.000000,79617000.000000 152725973.000000,79609121.000000 152627591.000000,79565627.000000 152551463.000000,79489632.000000 152507797.000000,79391326.000000 152499800.000000,79323250.000000 Z"/> 
<path style="fill:#000000; fill-opacity:1.0;  stroke:#000000; stroke-width:1.000000; stroke-opacity:1;  stroke-linecap:round; stroke-linejoin:round;fill-rule:evenodd;" d="M 154374800.000000,78410750.000000 154382679.000000,78343173.000000 154426173.000000,78244791.000000 154502168.000000,78168663.000000 154600474.000000,78124997.000000 154668550.000000,78117000.000000 155156050.000000,78117000.000000 155223627.000000,78124879.000000 155322009.000000,78168373.000000 155398137.000000,78244368.000000 155441803.000000,78342674.000000 155449800.000000,78410750.000000 155449800.000000,79323250.000000 155441921.000000,79390827.000000 155398427.000000,79489209.000000 155322432.000000,79565337.000000 155224126.000000,79609003.000000 155156050.000000,79617000.000000 154668550.000000,79617000.000000 154600973.000000,79609121.000000 154502591.000000,79565627.000000 154426463.000000,79489632.000000 154382797.000000,79391326.000000 154374800.000000,79323250.000000 Z"/> 
</g>
<g style="fill:#000000; fill-opacity:1.0;  stroke:#000000; stroke-width:1.000000; stroke-opacity:1;  stroke-linecap:round; stroke-linejoin:round;">
<path style="fill:#000000; fill-opacity:1.0;  stroke:#000000; stroke-width:1.000000; stroke-opacity:1;  stroke-linecap:round; stroke-linejoin:round;fill-rule:evenodd;" d="M 144298350.000000,80443600.000000 144230773.000000,80435721.000000 144132391.000000,80392227.000000 144056263.000000,80316232.000000 144012597.000000,80217926.000000 144004600.000000,80149850.000000 144004600.000000,79662350.000000 144012479.000000,79594773.000000 144055973.000000,79496391.000000 144131968.000000,79420263.000000 144230274.000000,79376597.000000 144298350.000000,79368600.000000 145210850.000000,79368600.000000 145278427.000000,79376479.000000 145376809.000000,79419973.000000 145452937.000000,79495968.000000 145496603.000000,79594274.000000 145504600.000000,79662350.000000 145504600.000000,80149850.000000 145496721.000000,80217427.000000 145453227.000000,80315809.000000 145377232.000000,80391937.000000 145278926.000000,80435603.000000 145210850.000000,80443600.000000 Z"/> 
<path style="fill:#000000; fill-opacity:1.0;  stroke:#000000; stroke-width:1.000000; stroke-opacity:1;  stroke-linecap:round; stroke-linejoin:round;fill-rule:evenodd;" d="M 144298350.000000,78568600.000000 144230773.000000,78560721.000000 144132391.000000,78517227.000000 144056263.000000,78441232.000000 144012597.000000,78342926.000000 144004600.000000,78274850.000000 144004600.000000,77787350.000000 144012479.000000,77719773.000000 144055973.000000,77621391.000000 144131968.000000,77545263.000000 144230274.000000,77501597.000000 144298350.000000,77493600.000000 145210850.000000,77493600.000000 145278427.000000,77501479.000000 145376809.000000,77544973.000000 145452937.000000,77620968.000000 145496603.000000,77719274.000000 145504600.000000,77787350.000000 145504600.000000,78274850.000000 145496721.000000,78342427.000000 145453227.000000,78440809.000000 145377232.000000,78516937.000000 145278926.000000,78560603.000000 145210850.000000,78568600.000000 Z"/> 
</g>
<g style="fill:#000000; fill-opacity:1.0;  stroke:#000000; stroke-width:1.000000; stroke-opacity:1;  stroke-linecap:round; stroke-linejoin:round;">
<path style="fill:#000000; fill-opacity:1.0;  stroke:#000000; stroke-width:1.000000; stroke-opacity:1;  stroke-linecap:round; stroke-linejoin:round;fill-rule:evenodd;" d="M 162189000.000000,98849000.000000 162119985.000000,98840954.000000 162019510.000000,98796534.000000 161941762.000000,98718922.000000 161897167.000000,98618524.000000 161889000.000000,98549000.000000 161889000.000000,97799000.000000 161897046.000000,97729985.000000 161941466.000000,97629510.000000 162019078.000000,97551762.000000 162119476.000000,97507167.000000 162189000.000000,97499000.000000 163439000.000000,97499000.000000 163508015.000000,97507046.000000 163608490.000000,97551466.000000 163686238.000000,97629078.000000 163730833.000000,97729476.000000 163739000.000000,97799000.000000 163739000.000000,98549000.000000 163730954.000000,98618015.000000 163686534.000000,98718490.000000 163608922.000000,98796238.000000 163508524.000000,98840833.000000 163439000.000000,98849000.000000 Z"/> 
<path style="fill:#000000; fill-opacity:1.0;  stroke:#000000; stroke-width:1.000000; stroke-opacity:1;  stroke-linecap:round; stroke-linejoin:round;fill-rule:evenodd;" d="M 162189000.000000,96049000.000000 162119985.000000,96040954.000000 162019510.000000,95996534.000000 161941762.000000,95918922.000000 161897167.000000,95818524.000000 161889000.000000,95749000.000000 161889000.000000,94999000.000000 161897046.000000,94929985.000000 161941466.000000,94829510.000000 162019078.000000,94751762.000000 162119476.000000,94707167.000000 162189000.000000,94699000.000000 163439000.000000,94699000.000000 163508015.000000,94707046.000000 163608490.000000,94751466.000000 163686238.000000,94829078.000000 163730833.000000,94929476.000000 163739000.000000,94999000.000000 163739000.000000,95749000.000000 163730954.000000,95818015.000000 163686534.000000,95918490.000000 163608922.000000,95996238.000000 163508524.000000,96040833.000000 163439000.000000,96049000.000000 Z"/> 
</g>
<g style="fill:#000000; fill-opacity:1.0;  stroke:#000000; stroke-width:1.000000; stroke-opacity:1;  stroke-linecap:round; stroke-linejoin:round;">
<path style="fill:#000000; fill-opacity:1.0;  stroke:#000000; stroke-width:1.000000; stroke-opacity:1;  stroke-linecap:round; stroke-linejoin:round;fill-rule:evenodd;" d="M 146863750.000000,76425000.000000 146796173.000000,76417121.000000 146697791.000000,76373627.000000 146621663.000000,76297632.000000 146577997.000000,76199326.000000 146570000.000000,76131250.000000 146570000.000000,75643750.000000 146577879.000000,75576173.000000 146621373.000000,75477791.000000 146697368.000000,75401663.000000 146795674.000000,75357997.000000 146863750.000000,75350000.000000 147776250.000000,75350000.000000 147843827.000000,75357879.000000 147942209.000000,75401373.000000 148018337.000000,75477368.000000 148062003.000000,75575674.000000 148070000.000000,75643750.000000 148070000.000000,76131250.000000 148062121.000000,76198827.000000 148018627.000000,76297209.000000 147942632.000000,76373337.000000 147844326.000000,76417003.000000 147776250.000000,76425000.000000 Z"/> 
<path style="fill:#000000; fill-opacity:1.0;  stroke:#000000; stroke-width:1.000000; stroke-opacity:1;  stroke-linecap:round; stroke-linejoin:round;fill-rule:evenodd;" d="M 146863750.000000,74550000.000000 146796173.000000,74542121.000000 146697791.000000,74498627.000000 146621663.000000,74422632.000000 146577997.000000,74324326.000000 146570000.000000,74256250.000000 146570000.000000,73768750.000000 146577879.000000,73701173.000000 146621373.000000,73602791.000000 146697368.000000,73526663.000000 146795674.000000,73482997.000000 146863750.000000,73475000.000000 147776250.000000,73475000.000000 147843827.000000,73482879.000000 147942209.000000,73526373.000000 148018337.000000,73602368.000000 148062003.000000,73700674.000000 148070000.000000,73768750.000000 148070000.000000,74256250.000000 148062121.000000,74323827.000000 148018627.000000,74422209.000000 147942632.000000,74498337.000000 147844326.000000,74542003.000000 147776250.000000,74550000.000000 Z"/> 
</g>
<g style="fill:#000000; fill-opacity:1.0;  stroke:#000000; stroke-width:1.000000; stroke-opacity:1;  stroke-linecap:round; stroke-linejoin:round;">
<path style="fill:#000000; fill-opacity:1.0;  stroke:#000000; stroke-width:1.000000; stroke-opacity:1;  stroke-linecap:round; stroke-linejoin:round;fill-rule:evenodd;" d="M 144323750.000000,76425000.000000 144256173.000000,76417121.000000 144157791.000000,76373627.000000 144081663.000000,76297632.000000 144037997.000000,76199326.000000 144030000.000000,76131250.000000 144030000.000000,75643750.000000 144037879.000000,75576173.000000 144081373.000000,75477791.000000 144157368.000000,75401663.000000 144255674.000000,75357997.000000 144323750.000000,75350000.000000 145236250.000000,75350000.000000 145303827.000000,75357879.000000 145402209.000000,75401373.000000 145478337.000000,75477368.000000 145522003.000000,75575674.000000 145530000.000000,75643750.000000 145530000.000000,76131250.000000 145522121.000000,76198827.000000 145478627.000000,76297209.000000 145402632.000000,76373337.000000 145304326.000000,76417003.000000 145236250.000000,76425000.000000 Z"/> 
<path style="fill:#000000; fill-opacity:1.0;  stroke:#000000; stroke-width:1.000000; stroke-opacity:1;  stroke-linecap:round; stroke-linejoin:round;fill-rule:evenodd;" d="M 144323750.000000,74550000.000000 144256173.000000,74542121.000000 144157791.000000,74498627.000000 144081663.000000,74422632.000000 144037997.000000,74324326.000000 144030000.000000,74256250.000000 144030000.000000,73768750.000000 144037879.000000,73701173.000000 144081373.000000,73602791.000000 144157368.000000,73526663.000000 144255674.000000,73482997.000000 144323750.000000,73475000.000000 145236250.000000,73475000.000000 145303827.000000,73482879.000000 145402209.000000,73526373.000000 145478337.000000,73602368.000000 145522003.000000,73700674.000000 145530000.000000,73768750.000000 145530000.000000,74256250.000000 145522121.000000,74323827.000000 145478627.000000,74422209.000000 145402632.000000,74498337.000000 145304326.000000,74542003.000000 145236250.000000,74550000.000000 Z"/> 
</g>
<g style="fill:#000000; fill-opacity:1.0;  stroke:#000000; stroke-width:1.000000; stroke-opacity:1;  stroke-linecap:round; stroke-linejoin:round;">
<path style="fill:#000000; fill-opacity:1.0;  stroke:#000000; stroke-width:1.000000; stroke-opacity:1;  stroke-linecap:round; stroke-linejoin:round;fill-rule:evenodd;" d="M 165144000.000000,75766000.000000 165152046.000000,75696985.000000 165196466.000000,75596510.000000 165274078.000000,75518762.000000 165374476.000000,75474167.000000 165444000.000000,75466000.000000 166069000.000000,75466000.000000 166138015.000000,75474046.000000 166238490.000000,75518466.000000 166316238.000000,75596078.000000 166360833.000000,75696476.000000 166369000.000000,75766000.000000 166369000.000000,78666000.000000 166360954.000000,78735015.000000 166316534.000000,78835490.000000 166238922.000000,78913238.000000 166138524.000000,78957833.000000 166069000.000000,78966000.000000 165444000.000000,78966000.000000 165374985.000000,78957954.000000 165274510.000000,78913534.000000 165196762.000000,78835922.000000 165152167.000000,78735524.000000 165144000.000000,78666000.000000 Z"/> 
<path style="fill:#000000; fill-opacity:1.0;  stroke:#000000; stroke-width:1.000000; stroke-opacity:1;  stroke-linecap:round; stroke-linejoin:round;fill-rule:evenodd;" d="M 169419000.000000,75766000.000000 169427046.000000,75696985.000000 169471466.000000,75596510.000000 169549078.000000,75518762.000000 169649476.000000,75474167.000000 169719000.000000,75466000.000000 170344000.000000,75466000.000000 170413015.000000,75474046.000000 170513490.000000,75518466.000000 170591238.000000,75596078.000000 170635833.000000,75696476.000000 170644000.000000,75766000.000000 170644000.000000,78666000.000000 170635954.000000,78735015.000000 170591534.000000,78835490.000000 170513922.000000,78913238.000000 170413524.000000,78957833.000000 170344000.000000,78966000.000000 169719000.000000,78966000.000000 169649985.000000,78957954.000000 169549510.000000,78913534.000000 169471762.000000,78835922.000000 169427167.000000,78735524.000000 169419000.000000,78666000.000000 Z"/> 
</g>
<g style="fill:#000000; fill-opacity:1.0;  stroke:#000000; stroke-width:1.000000; stroke-opacity:1;  stroke-linecap:round; stroke-linejoin:round;">
<path style="fill:#000000; fill-opacity:1.0;  stroke:#000000; stroke-width:1.000000; stroke-opacity:1;  stroke-linecap:round; stroke-linejoin:round;fill-rule:evenodd;" d="M 169369000.000000,91134250.000000 169361121.000000,91201827.000000 169317627.000000,91300209.000000 169241632.000000,91376337.000000 169143326.000000,91420003.000000 169075250.000000,91428000.000000 168587750.000000,91428000.000000 168520173.000000,91420121.000000 168421791.000000,91376627.000000 168345663.000000,91300632.000000 168301997.000000,91202326.000000 168294000.000000,91134250.000000 168294000.000000,90221750.000000 168301879.000000,90154173.000000 168345373.000000,90055791.000000 168421368.000000,89979663.000000 168519674.000000,89935997.000000 168587750.000000,89928000.000000 169075250.000000,89928000.000000 169142827.000000,89935879.000000 169241209.000000,89979373.000000 169317337.000000,90055368.000000 169361003.000000,90153674.000000 169369000.000000,90221750.000000 Z"/> 
<path style="fill:#000000; fill-opacity:1.0;  stroke:#000000; stroke-width:1.000000; stroke-opacity:1;  stroke-linecap:round; stroke-linejoin:round;fill-rule:evenodd;" d="M 167494000.000000,91134250.000000 167486121.000000,91201827.000000 167442627.000000,91300209.000000 167366632.000000,91376337.000000 167268326.000000,91420003.000000 167200250.000000,91428000.000000 166712750.000000,91428000.000000 166645173.000000,91420121.000000 166546791.000000,91376627.000000 166470663.000000,91300632.000000 166426997.000000,91202326.000000 166419000.000000,91134250.000000 166419000.000000,90221750.000000 166426879.000000,90154173.000000 166470373.000000,90055791.000000 166546368.000000,89979663.000000 166644674.000000,89935997.000000 166712750.000000,89928000.000000 167200250.000000,89928000.000000 167267827.000000,89935879.000000 167366209.000000,89979373.000000 167442337.000000,90055368.000000 167486003.000000,90153674.000000 167494000.000000,90221750.000000 Z"/> 
</g>
<g style="fill:#000000; fill-opacity:1.0;  stroke:#000000; stroke-width:1.000000; stroke-opacity:1;  stroke-linecap:round; stroke-linejoin:round;">
<circle cx="169418000.000000" cy="70612000.000000" r="750000.000000"/> 
</g>
<g style="fill:#000000; fill-opacity:1.0;  stroke:#000000; stroke-width:1.000000; stroke-opacity:1;  stroke-linecap:round; stroke-linejoin:round;">
<circle cx="171704000.000000" cy="97282000.000000" r="750000.000000"/> 
</g>
<g style="fill:#000000; fill-opacity:1.0;  stroke:#000000; stroke-width:1.000000; stroke-opacity:1;  stroke-linecap:round; stroke-linejoin:round;">
<circle cx="129997200.000000" cy="70078600.000000" r="750000.000000"/> 
</g>
<g style="fill:#000000; fill-opacity:1.0;  stroke:#000000; stroke-width:1.000000; stroke-opacity:1;  stroke-linecap:round; stroke-linejoin:round;">
<circle cx="137210800.000000" cy="98171000.000000" r="750000.000000"/> 
</g>
<g style="fill:#000000; fill-opacity:1.0;  stroke:#000000; stroke-width:1.000000; stroke-opacity:1;  stroke-linecap:round; stroke-linejoin:round;">
<circle cx="177000000.000000" cy="97000000.000000" r="1400000.000000"/> 
</g>
<g style="fill:#000000; fill-opacity:1.0;  stroke:#000000; stroke-width:1.000000; stroke-opacity:1;  stroke-linecap:round; stroke-linejoin:round;">
<circle cx="123000000.000000" cy="97000000.000000" r="1400000.000000"/> 
</g>
<g style="fill:#000000; fill-opacity:1.0;  stroke:#000000; stroke-width:1.000000; stroke-opacity:1;  stroke-linecap:round; stroke-linejoin:round;">
<circle cx="123000000.000000" cy="69500000.000000" r="1400000.000000"/> 
</g>
<g style="fill:#000000; fill-opacity:1.0;  stroke:#000000; stroke-width:1.000000; stroke-opacity:1;  stroke-linecap:round; stroke-linejoin:round;">
<circle cx="177000000.000000" cy="69500000.000000" r="1400000.000000"/> 
</g>
<g style="fill:#000000; fill-opacity:1.0;  stroke:#000000; stroke-width:1.000000; stroke-opacity:1;  stroke-linecap:round; stroke-linejoin:round;">
<circle cx="127600000.000000" cy="81200000.000000" r="1050000.000000"/> 
</g>
<g style="fill:#000000; fill-opacity:0.0;  stroke:#000000; stroke-width:1600000.000000; stroke-opacity:1;  stroke-linecap:round; stroke-linejoin:round;">
<path d="M123200000 81450000 L123200000 80950000 "/>
</g>
<g style="fill:#000000; fill-opacity:1.0;  stroke:#000000; stroke-width:1.000000; stroke-opacity:1;  stroke-linecap:round; stroke-linejoin:round;">
<path style="fill:#000000; fill-opacity:1.0;  stroke:#000000; stroke-width:1.000000; stroke-opacity:1;  stroke-linecap:round; stroke-linejoin:round;fill-rule:evenodd;" d="M 122100000.000000,77250000.000000 122080866.000000,77246194.000000 122064645.000000,77235355.000000 122053806.000000,77219134.000000 122050000.000000,77200000.000000 122050000.000000,74200000.000000 122053806.000000,74180866.000000 122064645.000000,74164645.000000 122080866.000000,74153806.000000 122100000.000000,74150000.000000 124100000.000000,74150000.000000 124119134.000000,74153806.000000 124135355.000000,74164645.000000 124146194.000000,74180866.000000 124150000.000000,74200000.000000 124150000.000000,77200000.000000 124146194.000000,77219134.000000 124135355.000000,77235355.000000 124119134.000000,77246194.000000 124100000.000000,77250000.000000 Z"/> 
<path style="fill:#000000; fill-opacity:1.0;  stroke:#000000; stroke-width:1.000000; stroke-opacity:1;  stroke-linecap:round; stroke-linejoin:round;fill-rule:evenodd;" d="M 128100000.000000,77250000.000000 128080866.000000,77246194.000000 128064645.000000,77235355.000000 128053806.000000,77219134.000000 128050000.000000,77200000.000000 128050000.000000,74200000.000000 128053806.000000,74180866.000000 128064645.000000,74164645.000000 128080866.000000,74153806.000000 128100000.000000,74150000.000000 130100000.000000,74150000.000000 130119134.000000,74153806.000000 130135355.000000,74164645.000000 130146194.000000,74180866.000000 130150000.000000,74200000.000000 130150000.000000,77200000.000000 130146194.000000,77219134.000000 130135355.000000,77235355.000000 130119134.000000,77246194.000000 130100000.000000,77250000.000000 Z"/> 
<path style="fill:#000000; fill-opacity:1.0;  stroke:#000000; stroke-width:1.000000; stroke-opacity:1;  stroke-linecap:round; stroke-linejoin:round;fill-rule:evenodd;" d="M 128100000.000000,88250000.000000 128080866.000000,88246194.000000 128064645.000000,88235355.000000 128053806.000000,88219134.000000 128050000.000000,88200000.000000 128050000.000000,85200000.000000 128053806.000000,85180866.000000 128064645.000000,85164645.000000 128080866.000000,85153806.000000 128100000.000000,85150000.000000 130100000.000000,85150000.000000 130119134.000000,85153806.000000 130135355.000000,85164645.000000 130146194.000000,85180866.000000 130150000.000000,85200000.000000 130150000.000000,88200000.000000 130146194.000000,88219134.000000 130135355.000000,88235355.000000 130119134.000000,88246194.000000 130100000.000000,88250000.000000 Z"/> 
<path style="fill:#000000; fill-opacity:1.0;  stroke:#000000; stroke-width:1.000000; stroke-opacity:1;  stroke-linecap:round; stroke-linejoin:round;fill-rule:evenodd;" d="M 122100000.000000,88250000.000000 122080866.000000,88246194.000000 122064645.000000,88235355.000000 122053806.000000,88219134.000000 122050000.000000,88200000.000000 122050000.000000,85200000.000000 122053806.000000,85180866.000000 122064645.000000,85164645.000000 122080866.000000,85153806.000000 122100000.000000,85150000.000000 124100000.000000,85150000.000000 124119134.000000,85153806.000000 124135355.000000,85164645.000000 124146194.000000,85180866.000000 124150000.000000,85200000.000000 124150000.000000,88200000.000000 124146194.000000,88219134.000000 124135355.000000,88235355.000000 124119134.000000,88246194.000000 124100000.000000,88250000.000000 Z"/> 
</g>
<g style="fill:#000000; fill-opacity:1.0;  stroke:#000000; stroke-width:1.000000; stroke-opacity:1;  stroke-linecap:round; stroke-linejoin:round;">
<path style="fill:#000000; fill-opacity:1.0;  stroke:#000000; stroke-width:1.000000; stroke-opacity:1;  stroke-linecap:round; stroke-linejoin:round;fill-rule:evenodd;" d="M 137200000.000000,80350000.000000 137196194.000000,80369134.000000 137185355.000000,80385355.000000 137169134.000000,80396194.000000 137150000.000000,80400000.000000 135450000.000000,80400000.000000 135430866.000000,80396194.000000 135414645.000000,80385355.000000 135403806.000000,80369134.000000 135400000.000000,80350000.000000 135400000.000000,78650000.000000 135403806.000000,78630866.000000 135414645.000000,78614645.000000 135430866.000000,78603806.000000 135450000.000000,78600000.000000 137150000.000000,78600000.000000 137169134.000000,78603806.000000 137185355.000000,78614645.000000 137196194.000000,78630866.000000 137200000.000000,78650000.000000 Z"/> 
<circle cx="136300000.000000" cy="76960000.000000" r="900000.000000"/> 
<circle cx="136300000.000000" cy="74420000.000000" r="900000.000000"/> 
<circle cx="136300000.000000" cy="71880000.000000" r="900000.000000"/> 
<circle cx="136300000.000000" cy="69340000.000000" r="900000.000000"/> 
</g>
<g style="fill:#000000; fill-opacity:1.0;  stroke:#000000; stroke-width:1.000000; stroke-opacity:1;  stroke-linecap:round; stroke-linejoin:round;">
<path style="fill:#000000; fill-opacity:1.0;  stroke:#000000; stroke-width:1.000000; stroke-opacity:1;  stroke-linecap:round; stroke-linejoin:round;fill-rule:evenodd;" d="M 150992000.000000,94400000.000000 150995806.000000,94380866.000000 151006645.000000,94364645.000000 151022866.000000,94353806.000000 151042000.000000,94350000.000000 152742000.000000,94350000.000000 152761134.000000,94353806.000000 152777355.000000,94364645.000000 152788194.000000,94380866.000000 152792000.000000,94400000.000000 152792000.000000,96100000.000000 152788194.000000,96119134.000000 152777355.000000,96135355.000000 152761134.000000,96146194.000000 152742000.000000,96150000.000000 151042000.000000,96150000.000000 151022866.000000,96146194.000000 151006645.000000,96135355.000000 150995806.000000,96119134.000000 150992000.000000,96100000.000000 Z"/> 
<circle cx="154432000.000000" cy="95250000.000000" r="900000.000000"/> 
<circle cx="151892000.000000" cy="97790000.000000" r="900000.000000"/> 
<circle cx="154432000.000000" cy="97790000.000000" r="900000.000000"/> 
</g>
<g style="fill:#000000; fill-opacity:1.0;  stroke:#000000; stroke-width:1.000000; stroke-opacity:1;  stroke-linecap:round; stroke-linejoin:round;">
<path style="fill:#000000; fill-opacity:1.0;  stroke:#000000; stroke-width:1.000000; stroke-opacity:1;  stroke-linecap:round; stroke-linejoin:round;fill-rule:evenodd;" d="M 140272400.000000,98664600.000000 140253266.000000,98660794.000000 140237045.000000,98649955.000000 140226206.000000,98633734.000000 140222400.000000,98614600.000000 140222400.000000,96914600.000000 140226206.000000,96895466.000000 140237045.000000,96879245.000000 140253266.000000,96868406.000000 140272400.000000,96864600.000000 141972400.000000,96864600.000000 141991534.000000,96868406.000000 142007755.000000,96879245.000000 142018594.000000,96895466.000000 142022400.000000,96914600.000000 142022400.000000,98614600.000000 142018594.000000,98633734.000000 142007755.000000,98649955.000000 141991534.000000,98660794.000000 141972400.000000,98664600.000000 Z"/> 
<circle cx="141122400.000000" cy="95224600.000000" r="900000.000000"/> 
<circle cx="143662400.000000" cy="97764600.000000" r="900000.000000"/> 
<circle cx="143662400.000000" cy="95224600.000000" r="900000.000000"/> 
<circle cx="146202400.000000" cy="97764600.000000" r="900000.000000"/> 
<circle cx="146202400.000000" cy="95224600.000000" r="900000.000000"/> 
</g>
<g style="fill:#000000; fill-opacity:1.0;  stroke:#000000; stroke-width:1.000000; stroke-opacity:1;  stroke-linecap:round; stroke-linejoin:round;">
<path style="fill:#000000; fill-opacity:1.0;  stroke:#000000; stroke-width:1.000000; stroke-opacity:1;  stroke-linecap:round; stroke-linejoin:round;fill-rule:evenodd;" d="M 140070000.000000,76366000.000000 140073806.000000,76346866.000000 140084645.000000,76330645.000000 140100866.000000,76319806.000000 140120000.000000,76316000.000000 141820000.000000,76316000.000000 141839134.000000,76319806.000000 141855355.000000,76330645.000000 141866194.000000,76346866.000000 141870000.000000,76366000.000000 141870000.000000,78066000.000000 141866194.000000,78085134.000000 141855355.000000,78101355.000000 141839134.000000,78112194.000000 141820000.000000,78116000.000000 140120000.000000,78116000.000000 140100866.000000,78112194.000000 140084645.000000,78101355.000000 140073806.000000,78085134.000000 140070000.000000,78066000.000000 Z"/> 
<circle cx="140970000.000000" cy="79756000.000000" r="900000.000000"/> 
<circle cx="140970000.000000" cy="82296000.000000" r="900000.000000"/> 
<circle cx="140970000.000000" cy="84836000.000000" r="900000.000000"/> 
<circle cx="140970000.000000" cy="87376000.000000" r="900000.000000"/> 
<circle cx="140970000.000000" cy="89916000.000000" r="900000.000000"/> 
</g>
<g style="fill:#000000; fill-opacity:1.0;  stroke:#000000; stroke-width:1.000000; stroke-opacity:1;  stroke-linecap:round; stroke-linejoin:round;">
<path style="fill:#000000; fill-opacity:1.0;  stroke:#000000; stroke-width:1.000000; stroke-opacity:1;  stroke-linecap:round; stroke-linejoin:round;fill-rule:evenodd;" d="M 168044355.000000,95668755.000000 168009000.000000,95683400.000000 166509000.000000,95683400.000000 166473645.000000,95668755.000000 166459000.000000,95633400.000000 166459000.000000,95133400.000000 166464188.000000,95120876.000000 166465440.000000,95052543.000000 166467707.000000,95038549.000000 166509982.000000,94903234.000000 166516085.000000,94890438.000000 166594640.000000,94772428.000000 166604089.000000,94761860.000000 166712608.000000,94670640.000000 166724644.000000,94663148.000000 166854403.000000,94606053.000000 166868057.000000,94602241.000000 167002517.000000,94584658.000000 167002694.000000,94586012.000000 167009000.000000,94583400.000000 167509000.000000,94583400.000000 167510153.000000,94583878.000000 167522802.000000,94584032.000000 167662879.000000,94605843.000000 167676435.000000,94609988.000000 167804760.000000,94670236.000000 167816609.000000,94678019.000000 167922867.000000,94771863.000000 167932055.000000,94782659.000000 168007703.000000,94902554.000000 168013492.000000,94915495.000000 168052449.000000,95051802.000000 168054373.000000,95065848.000000 168054033.000000,95121409.000000 168059000.000000,95133400.000000 168059000.000000,95633400.000000 Z"/> 
<path style="fill:#000000; fill-opacity:1.0;  stroke:#000000; stroke-width:1.000000; stroke-opacity:1;  stroke-linecap:round; stroke-linejoin:round;fill-rule:evenodd;" d="M 168053884.000000,96445750.000000 168053507.000000,96507610.000000 168051412.000000,96521631.000000 168010793.000000,96657452.000000 168004846.000000,96670321.000000 167927739.000000,96789283.000000 167918420.000000,96799966.000000 167811023.000000,96892504.000000 167799080.000000,96900142.000000 167670028.000000,96958819.000000 167656421.000000,96962798.000000 167516088.000000,96982895.000000 167509000.000000,96983400.000000 167009000.000000,96983400.000000 167008390.000000,96983396.000000 166996174.000000,96983247.000000 166988489.000000,96982558.000000 166848688.000000,96959038.000000 166835182.000000,96954728.000000 166707603.000000,96892916.000000 166695850.000000,96884989.000000 166590746.000000,96789854.000000 166581691.000000,96778946.000000 166507514.000000,96658136.000000 166501884.000000,96645126.000000 166464595.000000,96508353.000000 166462842.000000,96494285.000000 166463748.000000,96444862.000000 166459000.000000,96433400.000000 166459000.000000,95933400.000000 166473645.000000,95898045.000000 166509000.000000,95883400.000000 168009000.000000,95883400.000000 168044355.000000,95898045.000000 168059000.000000,95933400.000000 168059000.000000,96433400.000000 Z"/> 
</g>
<g style="fill:#000000; fill-opacity:1.0;  stroke:#000000; stroke-width:1.000000; stroke-opacity:1;  stroke-linecap:round; stroke-linejoin:round;">
<path style="fill:#000000; fill-opacity:1.0;  stroke:#000000; stroke-width:1.000000; stroke-opacity:1;  stroke-linecap:round; stroke-linejoin:round;fill-rule:evenodd;" d="M 164895000.000000,85649750.000000 164902879.000000,85582173.000000 164946373.000000,85483791.000000 165022368.000000,85407663.000000 165120674.000000,85363997.000000 165188750.000000,85356000.000000 165676250.000000,85356000.000000 165743827.000000,85363879.000000 165842209.000000,85407373.000000 165918337.000000,85483368.000000 165962003.000000,85581674.000000 165970000.000000,85649750.000000 165970000.000000,86562250.000000 165962121.000000,86629827.000000 165918627.000000,86728209.000000 165842632.000000,86804337.000000 165744326.000000,86848003.000000 165676250.000000,86856000.000000 165188750.000000,86856000.000000 165121173.000000,86848121.000000 165022791.000000,86804627.000000 164946663.000000,86728632.000000 164902997.000000,86630326.000000 164895000.000000,86562250.000000 Z"/> 
<path style="fill:#000000; fill-opacity:1.0;  stroke:#000000; stroke-width:1.000000; stroke-opacity:1;  stroke-linecap:round; stroke-linejoin:round;fill-rule:evenodd;" d="M 166770000.000000,85649750.000000 166777879.000000,85582173.000000 166821373.000000,85483791.000000 166897368.000000,85407663.000000 166995674.000000,85363997.000000 167063750.000000,85356000.000000 167551250.000000,85356000.000000 167618827.000000,85363879.000000 167717209.000000,85407373.000000 167793337.000000,85483368.000000 167837003.000000,85581674.000000 167845000.000000,85649750.000000 167845000.000000,86562250.000000 167837121.000000,86629827.000000 167793627.000000,86728209.000000 167717632.000000,86804337.000000 167619326.000000,86848003.000000 167551250.000000,86856000.000000 167063750.000000,86856000.000000 166996173.000000,86848121.000000 166897791.000000,86804627.000000 166821663.000000,86728632.000000 166777997.000000,86630326.000000 166770000.000000,86562250.000000 Z"/> 
</g>
<g style="fill:#000000; fill-opacity:1.0;  stroke:#000000; stroke-width:1.000000; stroke-opacity:1;  stroke-linecap:round; stroke-linejoin:round;">
<path style="fill:#000000; fill-opacity:1.0;  stroke:#000000; stroke-width:1.000000; stroke-opacity:1;  stroke-linecap:round; stroke-linejoin:round;fill-rule:evenodd;" d="M 164895000.000000,83363750.000000 164902879.000000,83296173.000000 164946373.000000,83197791.000000 165022368.000000,83121663.000000 165120674.000000,83077997.000000 165188750.000000,83070000.000000 165676250.000000,83070000.000000 165743827.000000,83077879.000000 165842209.000000,83121373.000000 165918337.000000,83197368.000000 165962003.000000,83295674.000000 165970000.000000,83363750.000000 165970000.000000,84276250.000000 165962121.000000,84343827.000000 165918627.000000,84442209.000000 165842632.000000,84518337.000000 165744326.000000,84562003.000000 165676250.000000,84570000.000000 165188750.000000,84570000.000000 165121173.000000,84562121.000000 165022791.000000,84518627.000000 164946663.000000,84442632.000000 164902997.000000,84344326.000000 164895000.000000,84276250.000000 Z"/> 
<path style="fill:#000000; fill-opacity:1.0;  stroke:#000000; stroke-width:1.000000; stroke-opacity:1;  stroke-linecap:round; stroke-linejoin:round;fill-rule:evenodd;" d="M 166770000.000000,83363750.000000 166777879.000000,83296173.000000 166821373.000000,83197791.000000 166897368.000000,83121663.000000 166995674.000000,83077997.000000 167063750.000000,83070000.000000 167551250.000000,83070000.000000 167618827.000000,83077879.000000 167717209.000000,83121373.000000 167793337.000000,83197368.000000 167837003.000000,83295674.000000 167845000.000000,83363750.000000 167845000.000000,84276250.000000 167837121.000000,84343827.000000 167793627.000000,84442209.000000 167717632.000000,84518337.000000 167619326.000000,84562003.000000 167551250.000000,84570000.000000 167063750.000000,84570000.000000 166996173.000000,84562121.000000 166897791.000000,84518627.000000 166821663.000000,84442632.000000 166777997.000000,84344326.000000 166770000.000000,84276250.000000 Z"/> 
</g>
<g style="fill:#000000; fill-opacity:1.0;  stroke:#000000; stroke-width:1.000000; stroke-opacity:1;  stroke-linecap:round; stroke-linejoin:round;">
<path style="fill:#000000; fill-opacity:1.0;  stroke:#000000; stroke-width:1.000000; stroke-opacity:1;  stroke-linecap:round; stroke-linejoin:round;fill-rule:evenodd;" d="M 160433000.000000,76334250.000000 160425121.000000,76401827.000000 160381627.000000,76500209.000000 160305632.000000,76576337.000000 160207326.000000,76620003.000000 160139250.000000,76628000.000000 159651750.000000,76628000.000000 159584173.000000,76620121.000000 159485791.000000,76576627.000000 159409663.000000,76500632.000000 159365997.000000,76402326.000000 159358000.000000,76334250.000000 159358000.000000,75421750.000000 159365879.000000,75354173.000000 159409373.000000,75255791.000000 159485368.000000,75179663.000000 159583674.000000,75135997.000000 159651750.000000,75128000.000000 160139250.000000,75128000.000000 160206827.000000,75135879.000000 160305209.000000,75179373.000000 160381337.000000,75255368.000000 160425003.000000,75353674.000000 160433000.000000,75421750.000000 Z"/> 
<path style="fill:#000000; fill-opacity:1.0;  stroke:#000000; stroke-width:1.000000; stroke-opacity:1;  stroke-linecap:round; stroke-linejoin:round;fill-rule:evenodd;" d="M 158558000.000000,76334250.000000 158550121.000000,76401827.000000 158506627.000000,76500209.000000 158430632.000000,76576337.000000 158332326.000000,76620003.000000 158264250.000000,76628000.000000 157776750.000000,76628000.000000 157709173.000000,76620121.000000 157610791.000000,76576627.000000 157534663.000000,76500632.000000 157490997.000000,76402326.000000 157483000.000000,76334250.000000 157483000.000000,75421750.000000 157490879.000000,75354173.000000 157534373.000000,75255791.000000 157610368.000000,75179663.000000 157708674.000000,75135997.000000 157776750.000000,75128000.000000 158264250.000000,75128000.000000 158331827.000000,75135879.000000 158430209.000000,75179373.000000 158506337.000000,75255368.000000 158550003.000000,75353674.000000 158558000.000000,75421750.000000 Z"/> 
</g>
<g style="fill:#000000; fill-opacity:1.0;  stroke:#000000; stroke-width:1.000000; stroke-opacity:1;  stroke-linecap:round; stroke-linejoin:round;">
<path style="fill:#000000; fill-opacity:1.0;  stroke:#000000; stroke-width:1.000000; stroke-opacity:1;  stroke-linecap:round; stroke-linejoin:round;fill-rule:evenodd;" d="M 158547750.000000,97233000.000000 158480173.000000,97225121.000000 158381791.000000,97181627.000000 158305663.000000,97105632.000000 158261997.000000,97007326.000000 158254000.000000,96939250.000000 158254000.000000,96451750.000000 158261879.000000,96384173.000000 158305373.000000,96285791.000000 158381368.000000,96209663.000000 158479674.000000,96165997.000000 158547750.000000,96158000.000000 159460250.000000,96158000.000000 159527827.000000,96165879.000000 159626209.000000,96209373.000000 159702337.000000,96285368.000000 159746003.000000,96383674.000000 159754000.000000,96451750.000000 159754000.000000,96939250.000000 159746121.000000,97006827.000000 159702627.000000,97105209.000000 159626632.000000,97181337.000000 159528326.000000,97225003.000000 159460250.000000,97233000.000000 Z"/> 
<path style="fill:#000000; fill-opacity:1.0;  stroke:#000000; stroke-width:1.000000; stroke-opacity:1;  stroke-linecap:round; stroke-linejoin:round;fill-rule:evenodd;" d="M 158547750.000000,95358000.000000 158480173.000000,95350121.000000 158381791.000000,95306627.000000 158305663.000000,95230632.000000 158261997.000000,95132326.000000 158254000.000000,95064250.000000 158254000.000000,94576750.000000 158261879.000000,94509173.000000 158305373.000000,94410791.000000 158381368.000000,94334663.000000 158479674.000000,94290997.000000 158547750.000000,94283000.000000 159460250.000000,94283000.000000 159527827.000000,94290879.000000 159626209.000000,94334373.000000 159702337.000000,94410368.000000 159746003.000000,94508674.000000 159754000.000000,94576750.000000 159754000.000000,95064250.000000 159746121.000000,95131827.000000 159702627.000000,95230209.000000 159626632.000000,95306337.000000 159528326.000000,95350003.000000 159460250.000000,95358000.000000 Z"/> 
</g>
<g style="fill:#000000; fill-opacity:1.0;  stroke:#000000; stroke-width:1.000000; stroke-opacity:1;  stroke-linecap:round; stroke-linejoin:round;">
<path style="fill:#000000; fill-opacity:1.0;  stroke:#000000; stroke-width:1.000000; stroke-opacity:1;  stroke-linecap:round; stroke-linejoin:round;fill-rule:evenodd;" d="M 145210850.000000,81329000.000000 145278427.000000,81336879.000000 145376809.000000,81380373.000000 145452937.000000,81456368.000000 145496603.000000,81554674.000000 145504600.000000,81622750.000000 145504600.000000,82110250.000000 145496721.000000,82177827.000000 145453227.000000,82276209.000000 145377232.000000,82352337.000000 145278926.000000,82396003.000000 145210850.000000,82404000.000000 144298350.000000,82404000.000000 144230773.000000,82396121.000000 144132391.000000,82352627.000000 144056263.000000,82276632.000000 144012597.000000,82178326.000000 144004600.000000,82110250.000000 144004600.000000,81622750.000000 144012479.000000,81555173.000000 144055973.000000,81456791.000000 144131968.000000,81380663.000000 144230274.000000,81336997.000000 144298350.000000,81329000.000000 Z"/> 
<path style="fill:#000000; fill-opacity:1.0;  stroke:#000000; stroke-width:1.000000; stroke-opacity:1;  stroke-linecap:round; stroke-linejoin:round;fill-rule:evenodd;" d="M 145210850.000000,83204000.000000 145278427.000000,83211879.000000 145376809.000000,83255373.000000 145452937.000000,83331368.000000 145496603.000000,83429674.000000 145504600.000000,83497750.000000 145504600.000000,83985250.000000 145496721.000000,84052827.000000 145453227.000000,84151209.000000 145377232.000000,84227337.000000 145278926.000000,84271003.000000 145210850.000000,84279000.000000 144298350.000000,84279000.000000 144230773.000000,84271121.000000 144132391.000000,84227627.000000 144056263.000000,84151632.000000 144012597.000000,84053326.000000 144004600.000000,83985250.000000 144004600.000000,83497750.000000 144012479.000000,83430173.000000 144055973.000000,83331791.000000 144131968.000000,83255663.000000 144230274.000000,83211997.000000 144298350.000000,83204000.000000 Z"/> 
</g>
<g style="fill:#000000; fill-opacity:1.0;  stroke:#000000; stroke-width:1.000000; stroke-opacity:1;  stroke-linecap:round; stroke-linejoin:round;">
<path style="fill:#000000; fill-opacity:1.0;  stroke:#000000; stroke-width:1.000000; stroke-opacity:1;  stroke-linecap:round; stroke-linejoin:round;fill-rule:evenodd;" d="M 147776250.000000,68699800.000000 147843827.000000,68707679.000000 147942209.000000,68751173.000000 148018337.000000,68827168.000000 148062003.000000,68925474.000000 148070000.000000,68993550.000000 148070000.000000,69481050.000000 148062121.000000,69548627.000000 148018627.000000,69647009.000000 147942632.000000,69723137.000000 147844326.000000,69766803.000000 147776250.000000,69774800.000000 146863750.000000,69774800.000000 146796173.000000,69766921.000000 146697791.000000,69723427.000000 146621663.000000,69647432.000000 146577997.000000,69549126.000000 146570000.000000,69481050.000000 146570000.000000,68993550.000000 146577879.000000,68925973.000000 146621373.000000,68827591.000000 146697368.000000,68751463.000000 146795674.000000,68707797.000000 146863750.000000,68699800.000000 Z"/> 
<path style="fill:#000000; fill-opacity:1.0;  stroke:#000000; stroke-width:1.000000; stroke-opacity:1;  stroke-linecap:round; stroke-linejoin:round;fill-rule:evenodd;" d="M 147776250.000000,70574800.000000 147843827.000000,70582679.000000 147942209.000000,70626173.000000 148018337.000000,70702168.000000 148062003.000000,70800474.000000 148070000.000000,70868550.000000 148070000.000000,71356050.000000 148062121.000000,71423627.000000 148018627.000000,71522009.000000 147942632.000000,71598137.000000 147844326.000000,71641803.000000 147776250.000000,71649800.000000 146863750.000000,71649800.000000 146796173.000000,71641921.000000 146697791.000000,71598427.000000 146621663.000000,71522432.000000 146577997.000000,71424126.000000 146570000.000000,71356050.000000 146570000.000000,70868550.000000 146577879.000000,70800973.000000 146621373.000000,70702591.000000 146697368.000000,70626463.000000 146795674.000000,70582797.000000 146863750.000000,70574800.000000 Z"/> 
</g>
<g style="fill:#000000; fill-opacity:1.0;  stroke:#000000; stroke-width:1.000000; stroke-opacity:1;  stroke-linecap:round; stroke-linejoin:round;">
<path style="fill:#000000; fill-opacity:1.0;  stroke:#000000; stroke-width:1.000000; stroke-opacity:1;  stroke-linecap:round; stroke-linejoin:round;fill-rule:evenodd;" d="M 145236250.000000,68699800.000000 145303827.000000,68707679.000000 145402209.000000,68751173.000000 145478337.000000,68827168.000000 145522003.000000,68925474.000000 145530000.000000,68993550.000000 145530000.000000,69481050.000000 145522121.000000,69548627.000000 145478627.000000,69647009.000000 145402632.000000,69723137.000000 145304326.000000,69766803.000000 145236250.000000,69774800.000000 144323750.000000,69774800.000000 144256173.000000,69766921.000000 144157791.000000,69723427.000000 144081663.000000,69647432.000000 144037997.000000,69549126.000000 144030000.000000,69481050.000000 144030000.000000,68993550.000000 144037879.000000,68925973.000000 144081373.000000,68827591.000000 144157368.000000,68751463.000000 144255674.000000,68707797.000000 144323750.000000,68699800.000000 Z"/> 
<path style="fill:#000000; fill-opacity:1.0;  stroke:#000000; stroke-width:1.000000; stroke-opacity:1;  stroke-linecap:round; stroke-linejoin:round;fill-rule:evenodd;" d="M 145236250.000000,70574800.000000 145303827.000000,70582679.000000 145402209.000000,70626173.000000 145478337.000000,70702168.000000 145522003.000000,70800474.000000 145530000.000000,70868550.000000 145530000.000000,71356050.000000 145522121.000000,71423627.000000 145478627.000000,71522009.000000 145402632.000000,71598137.000000 145304326.000000,71641803.000000 145236250.000000,71649800.000000 144323750.000000,71649800.000000 144256173.000000,71641921.000000 144157791.000000,71598427.000000 144081663.000000,71522432.000000 144037997.000000,71424126.000000 144030000.000000,71356050.000000 144030000.000000,70868550.000000 144037879.000000,70800973.000000 144081373.000000,70702591.000000 144157368.000000,70626463.000000 144255674.000000,70582797.000000 144323750.000000,70574800.000000 Z"/> 
</g>
<g style="fill:#000000; fill-opacity:1.0;  stroke:#000000; stroke-width:1.000000; stroke-opacity:1;  stroke-linecap:round; stroke-linejoin:round;">
<path style="fill:#000000; fill-opacity:1.0;  stroke:#000000; stroke-width:1.000000; stroke-opacity:1;  stroke-linecap:round; stroke-linejoin:round;fill-rule:evenodd;" d="M 170690250.000000,86075500.000000 170793096.000000,86095957.000000 170880285.000000,86154215.000000 170938543.000000,86241404.000000 170959000.000000,86344250.000000 170959000.000000,86781750.000000 170938543.000000,86884596.000000 170880285.000000,86971785.000000 170793096.000000,87030043.000000 170690250.000000,87050500.000000 170177750.000000,87050500.000000 170074904.000000,87030043.000000 169987715.000000,86971785.000000 169929457.000000,86884596.000000 169909000.000000,86781750.000000 169909000.000000,86344250.000000 169929457.000000,86241404.000000 169987715.000000,86154215.000000 170074904.000000,86095957.000000 170177750.000000,86075500.000000 Z"/> 
<path style="fill:#000000; fill-opacity:1.0;  stroke:#000000; stroke-width:1.000000; stroke-opacity:1;  stroke-linecap:round; stroke-linejoin:round;fill-rule:evenodd;" d="M 170690250.000000,87650500.000000 170793096.000000,87670957.000000 170880285.000000,87729215.000000 170938543.000000,87816404.000000 170959000.000000,87919250.000000 170959000.000000,88356750.000000 170938543.000000,88459596.000000 170880285.000000,88546785.000000 170793096.000000,88605043.000000 170690250.000000,88625500.000000 170177750.000000,88625500.000000 170074904.000000,88605043.000000 169987715.000000,88546785.000000 169929457.000000,88459596.000000 169909000.000000,88356750.000000 169909000.000000,87919250.000000 169929457.000000,87816404.000000 169987715.000000,87729215.000000 170074904.000000,87670957.000000 170177750.000000,87650500.000000 Z"/> 
</g>
<g style="fill:#000000; fill-opacity:1.0;  stroke:#000000; stroke-width:1.000000; stroke-opacity:1;  stroke-linecap:round; stroke-linejoin:round;">
<path style="fill:#000000; fill-opacity:1.0;  stroke:#000000; stroke-width:1.000000; stroke-opacity:1;  stroke-linecap:round; stroke-linejoin:round;fill-rule:evenodd;" d="M 161977800.000000,71227800.000000 161973994.000000,71246934.000000 161963155.000000,71263155.000000 161946934.000000,71273994.000000 161927800.000000,71277800.000000 160027800.000000,71277800.000000 160008666.000000,71273994.000000 159992445.000000,71263155.000000 159981606.000000,71246934.000000 159977800.000000,71227800.000000 159977800.000000,68827800.000000 159981606.000000,68808666.000000 159992445.000000,68792445.000000 160008666.000000,68781606.000000 160027800.000000,68777800.000000 161927800.000000,68777800.000000 161946934.000000,68781606.000000 161963155.000000,68792445.000000 161973994.000000,68808666.000000 161977800.000000,68827800.000000 Z"/> 
<path style="fill:#000000; fill-opacity:1.0;  stroke:#000000; stroke-width:1.000000; stroke-opacity:1;  stroke-linecap:round; stroke-linejoin:round;fill-rule:evenodd;" d="M 157877800.000000,71227800.000000 157873994.000000,71246934.000000 157863155.000000,71263155.000000 157846934.000000,71273994.000000 157827800.000000,71277800.000000 155927800.000000,71277800.000000 155908666.000000,71273994.000000 155892445.000000,71263155.000000 155881606.000000,71246934.000000 155877800.000000,71227800.000000 155877800.000000,68827800.000000 155881606.000000,68808666.000000 155892445.000000,68792445.000000 155908666.000000,68781606.000000 155927800.000000,68777800.000000 157827800.000000,68777800.000000 157846934.000000,68781606.000000 157863155.000000,68792445.000000 157873994.000000,68808666.000000 157877800.000000,68827800.000000 Z"/> 
</g>
<g style="fill:#000000; fill-opacity:1.0;  stroke:#000000; stroke-width:1.000000; stroke-opacity:1;  stroke-linecap:round; stroke-linejoin:round;">
<path style="fill:#000000; fill-opacity:1.0;  stroke:#000000; stroke-width:1.000000; stroke-opacity:1;  stroke-linecap:round; stroke-linejoin:round;fill-rule:evenodd;" d="M 172682000.000000,82384000.000000 172662866.000000,82380194.000000 172646645.000000,82369355.000000 172635806.000000,82353134.000000 172632000.000000,82334000.000000 172632000.000000,80734000.000000 172635806.000000,80714866.000000 172646645.000000,80698645.000000 172662866.000000,80687806.000000 172682000.000000,80684000.000000 174282000.000000,80684000.000000 174301134.000000,80687806.000000 174317355.000000,80698645.000000 174328194.000000,80714866.000000 174332000.000000,80734000.000000 174332000.000000,82334000.000000 174328194.000000,82353134.000000 174317355.000000,82369355.000000 174301134.000000,82380194.000000 174282000.000000,82384000.000000 Z"/> 
<circle cx="173482000.000000" cy="84034000.000000" r="850000.000000"/> 
</g>
<g style="fill:#000000; fill-opacity:1.0;  stroke:#000000; stroke-width:1.000000; stroke-opacity:1;  stroke-linecap:round; stroke-linejoin:round;">
<circle cx="175482000.000000" cy="84034000.000000" r="850000.000000"/> 
</g>
<g style="fill:#000000; fill-opacity:1.0;  stroke:#000000; stroke-width:1.000000; stroke-opacity:1;  stroke-linecap:round; stroke-linejoin:round;">
<circle cx="175482000.000000" cy="81534000.000000" r="850000.000000"/> 
</g>
<g style="fill:#000000; fill-opacity:1.0;  stroke:#000000; stroke-width:1.000000; stroke-opacity:1;  stroke-linecap:round; stroke-linejoin:round;">
<circle cx="178342000.000000" cy="76784000.000000" r="2050000.000000"/> 
</g>
<g style="fill:#000000; fill-opacity:1.0;  stroke:#000000; stroke-width:1.000000; stroke-opacity:1;  stroke-linecap:round; stroke-linejoin:round;">
<circle cx="178342000.000000" cy="88784000.000000" r="2050000.000000"/> 
</g>
<g style="fill:#000000; fill-opacity:1.0;  stroke:#000000; stroke-width:1.000000; stroke-opacity:1;  stroke-linecap:round; stroke-linejoin:round;">
<path style="fill:#000000; fill-opacity:1.0;  stroke:#000000; stroke-width:1.000000; stroke-opacity:1;  stroke-linecap:round; stroke-linejoin:round;fill-rule:evenodd;" d="M 157507000.000000,80752000.000000 157526134.000000,80755806.000000 157542355.000000,80766645.000000 157553194.000000,80782866.000000 157557000.000000,80802000.000000 157557000.000000,82402000.000000 157553194.000000,82421134.000000 157542355.000000,82437355.000000 157526134.000000,82448194.000000 157507000.000000,82452000.000000 156957000.000000,82452000.000000 156937866.000000,82448194.000000 156921645.000000,82437355.000000 156910806.000000,82421134.000000 156907000.000000,82402000.000000 156907000.000000,80802000.000000 156910806.000000,80782866.000000 156921645.000000,80766645.000000 156937866.000000,80755806.000000 156957000.000000,80752000.000000 Z"/> 
<path style="fill:#000000; fill-opacity:1.0;  stroke:#000000; stroke-width:1.000000; stroke-opacity:1;  stroke-linecap:round; stroke-linejoin:round;fill-rule:evenodd;" d="M 156707000.000000,80752000.000000 156726134.000000,80755806.000000 156742355.000000,80766645.000000 156753194.000000,80782866.000000 156757000.000000,80802000.000000 156757000.000000,82402000.000000 156753194.000000,82421134.000000 156742355.000000,82437355.000000 156726134.000000,82448194.000000 156707000.000000,82452000.000000 156157000.000000,82452000.000000 156137866.000000,82448194.000000 156121645.000000,82437355.000000 156110806.000000,82421134.000000 156107000.000000,82402000.000000 156107000.000000,80802000.000000 156110806.000000,80782866.000000 156121645.000000,80766645.000000 156137866.000000,80755806.000000 156157000.000000,80752000.000000 Z"/> 
<path style="fill:#000000; fill-opacity:1.0;  stroke:#000000; stroke-width:1.000000; stroke-opacity:1;  stroke-linecap:round; stroke-linejoin:round;fill-rule:evenodd;" d="M 155907000.000000,80752000.000000 155926134.000000,80755806.000000 155942355.000000,80766645.000000 155953194.000000,80782866.000000 155957000.000000,80802000.000000 155957000.000000,82402000.000000 155953194.000000,82421134.000000 155942355.000000,82437355.000000 155926134.000000,82448194.000000 155907000.000000,82452000.000000 155357000.000000,82452000.000000 155337866.000000,82448194.000000 155321645.000000,82437355.000000 155310806.000000,82421134.000000 155307000.000000,82402000.000000 155307000.000000,80802000.000000 155310806.000000,80782866.000000 155321645.000000,80766645.000000 155337866.000000,80755806.000000 155357000.000000,80752000.000000 Z"/> 
<path style="fill:#000000; fill-opacity:1.0;  stroke:#000000; stroke-width:1.000000; stroke-opacity:1;  stroke-linecap:round; stroke-linejoin:round;fill-rule:evenodd;" d="M 155107000.000000,80752000.000000 155126134.000000,80755806.000000 155142355.000000,80766645.000000 155153194.000000,80782866.000000 155157000.000000,80802000.000000 155157000.000000,82402000.000000 155153194.000000,82421134.000000 155142355.000000,82437355.000000 155126134.000000,82448194.000000 155107000.000000,82452000.000000 154557000.000000,82452000.000000 154537866.000000,82448194.000000 154521645.000000,82437355.000000 154510806.000000,82421134.000000 154507000.000000,82402000.000000 154507000.000000,80802000.000000 154510806.000000,80782866.000000 154521645.000000,80766645.000000 154537866.000000,80755806.000000 154557000.000000,80752000.000000 Z"/> 
<path style="fill:#000000; fill-opacity:1.0;  stroke:#000000; stroke-width:1.000000; stroke-opacity:1;  stroke-linecap:round; stroke-linejoin:round;fill-rule:evenodd;" d="M 154307000.000000,80752000.000000 154326134.000000,80755806.000000 154342355.000000,80766645.000000 154353194.000000,80782866.000000 154357000.000000,80802000.000000 154357000.000000,82402000.000000 154353194.000000,82421134.000000 154342355.000000,82437355.000000 154326134.000000,82448194.000000 154307000.000000,82452000.000000 153757000.000000,82452000.000000 153737866.000000,82448194.000000 153721645.000000,82437355.000000 153710806.000000,82421134.000000 153707000.000000,82402000.000000 153707000.000000,80802000.000000 153710806.000000,80782866.000000 153721645.000000,80766645.000000 153737866.000000,80755806.000000 153757000.000000,80752000.000000 Z"/> 
<path style="fill:#000000; fill-opacity:1.0;  stroke:#000000; stroke-width:1.000000; stroke-opacity:1;  stroke-linecap:round; stroke-linejoin:round;fill-rule:evenodd;" d="M 153507000.000000,80752000.000000 153526134.000000,80755806.000000 153542355.000000,80766645.000000 153553194.000000,80782866.000000 153557000.000000,80802000.000000 153557000.000000,82402000.000000 153553194.000000,82421134.000000 153542355.000000,82437355.000000 153526134.000000,82448194.000000 153507000.000000,82452000.000000 152957000.000000,82452000.000000 152937866.000000,82448194.000000 152921645.000000,82437355.000000 152910806.000000,82421134.000000 152907000.000000,82402000.000000 152907000.000000,80802000.000000 152910806.000000,80782866.000000 152921645.000000,80766645.000000 152937866.000000,80755806.000000 152957000.000000,80752000.000000 Z"/> 
<path style="fill:#000000; fill-opacity:1.0;  stroke:#000000; stroke-width:1.000000; stroke-opacity:1;  stroke-linecap:round; stroke-linejoin:round;fill-rule:evenodd;" d="M 152707000.000000,80752000.000000 152726134.000000,80755806.000000 152742355.000000,80766645.000000 152753194.000000,80782866.000000 152757000.000000,80802000.000000 152757000.000000,82402000.000000 152753194.000000,82421134.000000 152742355.000000,82437355.000000 152726134.000000,82448194.000000 152707000.000000,82452000.000000 152157000.000000,82452000.000000 152137866.000000,82448194.000000 152121645.000000,82437355.000000 152110806.000000,82421134.000000 152107000.000000,82402000.000000 152107000.000000,80802000.000000 152110806.000000,80782866.000000 152121645.000000,80766645.000000 152137866.000000,80755806.000000 152157000.000000,80752000.000000 Z"/> 
<path style="fill:#000000; fill-opacity:1.0;  stroke:#000000; stroke-width:1.000000; stroke-opacity:1;  stroke-linecap:round; stroke-linejoin:round;fill-rule:evenodd;" d="M 151907000.000000,80752000.000000 151926134.000000,80755806.000000 151942355.000000,80766645.000000 151953194.000000,80782866.000000 151957000.000000,80802000.000000 151957000.000000,82402000.000000 151953194.000000,82421134.000000 151942355.000000,82437355.000000 151926134.000000,82448194.000000 151907000.000000,82452000.000000 151357000.000000,82452000.000000 151337866.000000,82448194.000000 151321645.000000,82437355.000000 151310806.000000,82421134.000000 151307000.000000,82402000.000000 151307000.000000,80802000.000000 151310806.000000,80782866.000000 151321645.000000,80766645.000000 151337866.000000,80755806.000000 151357000.000000,80752000.000000 Z"/> 
<path style="fill:#000000; fill-opacity:1.0;  stroke:#000000; stroke-width:1.000000; stroke-opacity:1;  stroke-linecap:round; stroke-linejoin:round;fill-rule:evenodd;" d="M 149332000.000000,82777000.000000 149335806.000000,82757866.000000 149346645.000000,82741645.000000 149362866.000000,82730806.000000 149382000.000000,82727000.000000 150982000.000000,82727000.000000 151001134.000000,82730806.000000 151017355.000000,82741645.000000 151028194.000000,82757866.000000 151032000.000000,82777000.000000 151032000.000000,83327000.000000 151028194.000000,83346134.000000 151017355.000000,83362355.000000 151001134.000000,83373194.000000 150982000.000000,83377000.000000 149382000.000000,83377000.000000 149362866.000000,83373194.000000 149346645.000000,83362355.000000 149335806.000000,83346134.000000 149332000.000000,83327000.000000 Z"/> 
<path style="fill:#000000; fill-opacity:1.0;  stroke:#000000; stroke-width:1.000000; stroke-opacity:1;  stroke-linecap:round; stroke-linejoin:round;fill-rule:evenodd;" d="M 149332000.000000,83577000.000000 149335806.000000,83557866.000000 149346645.000000,83541645.000000 149362866.000000,83530806.000000 149382000.000000,83527000.000000 150982000.000000,83527000.000000 151001134.000000,83530806.000000 151017355.000000,83541645.000000 151028194.000000,83557866.000000 151032000.000000,83577000.000000 151032000.000000,84127000.000000 151028194.000000,84146134.000000 151017355.000000,84162355.000000 151001134.000000,84173194.000000 150982000.000000,84177000.000000 149382000.000000,84177000.000000 149362866.000000,84173194.000000 149346645.000000,84162355.000000 149335806.000000,84146134.000000 149332000.000000,84127000.000000 Z"/> 
<path style="fill:#000000; fill-opacity:1.0;  stroke:#000000; stroke-width:1.000000; stroke-opacity:1;  stroke-linecap:round; stroke-linejoin:round;fill-rule:evenodd;" d="M 149332000.000000,84377000.000000 149335806.000000,84357866.000000 149346645.000000,84341645.000000 149362866.000000,84330806.000000 149382000.000000,84327000.000000 150982000.000000,84327000.000000 151001134.000000,84330806.000000 151017355.000000,84341645.000000 151028194.000000,84357866.000000 151032000.000000,84377000.000000 151032000.000000,84927000.000000 151028194.000000,84946134.000000 151017355.000000,84962355.000000 151001134.000000,84973194.000000 150982000.000000,84977000.000000 149382000.000000,84977000.000000 149362866.000000,84973194.000000 149346645.000000,84962355.000000 149335806.000000,84946134.000000 149332000.000000,84927000.000000 Z"/> 
<path style="fill:#000000; fill-opacity:1.0;  stroke:#000000; stroke-width:1.000000; stroke-opacity:1;  stroke-linecap:round; stroke-linejoin:round;fill-rule:evenodd;" d="M 149332000.000000,85177000.000000 149335806.000000,85157866.000000 149346645.000000,85141645.000000 149362866.000000,85130806.000000 149382000.000000,85127000.000000 150982000.000000,85127000.000000 151001134.000000,85130806.000000 151017355.000000,85141645.000000 151028194.000000,85157866.000000 151032000.000000,85177000.000000 151032000.000000,85727000.000000 151028194.000000,85746134.000000 151017355.000000,85762355.000000 151001134.000000,85773194.000000 150982000.000000,85777000.000000 149382000.000000,85777000.000000 149362866.000000,85773194.000000 149346645.000000,85762355.000000 149335806.000000,85746134.000000 149332000.000000,85727000.000000 Z"/> 
<path style="fill:#000000; fill-opacity:1.0;  stroke:#000000; stroke-width:1.000000; stroke-opacity:1;  stroke-linecap:round; stroke-linejoin:round;fill-rule:evenodd;" d="M 149332000.000000,85977000.000000 149335806.000000,85957866.000000 149346645.000000,85941645.000000 149362866.000000,85930806.000000 149382000.000000,85927000.000000 150982000.000000,85927000.000000 151001134.000000,85930806.000000 151017355.000000,85941645.000000 151028194.000000,85957866.000000 151032000.000000,85977000.000000 151032000.000000,86527000.000000 151028194.000000,86546134.000000 151017355.000000,86562355.000000 151001134.000000,86573194.000000 150982000.000000,86577000.000000 149382000.000000,86577000.000000 149362866.000000,86573194.000000 149346645.000000,86562355.000000 149335806.000000,86546134.000000 149332000.000000,86527000.000000 Z"/> 
<path style="fill:#000000; fill-opacity:1.0;  stroke:#000000; stroke-width:1.000000; stroke-opacity:1;  stroke-linecap:round; stroke-linejoin:round;fill-rule:evenodd;" d="M 149332000.000000,86777000.000000 149335806.000000,86757866.000000 149346645.000000,86741645.000000 149362866.000000,86730806.000000 149382000.000000,86727000.000000 150982000.000000,86727000.000000 151001134.000000,86730806.000000 151017355.000000,86741645.000000 151028194.000000,86757866.000000 151032000.000000,86777000.000000 151032000.000000,87327000.000000 151028194.000000,87346134.000000 151017355.000000,87362355.000000 151001134.000000,87373194.000000 150982000.000000,87377000.000000 149382000.000000,87377000.000000 149362866.000000,87373194.000000 149346645.000000,87362355.000000 149335806.000000,87346134.000000 149332000.000000,87327000.000000 Z"/> 
<path style="fill:#000000; fill-opacity:1.0;  stroke:#000000; stroke-width:1.000000; stroke-opacity:1;  stroke-linecap:round; stroke-linejoin:round;fill-rule:evenodd;" d="M 149332000.000000,87577000.000000 149335806.000000,87557866.000000 149346645.000000,87541645.000000 149362866.000000,87530806.000000 149382000.000000,87527000.000000 150982000.000000,87527000.000000 151001134.000000,87530806.000000 151017355.000000,87541645.000000 151028194.000000,87557866.000000 151032000.000000,87577000.000000 151032000.000000,88127000.000000 151028194.000000,88146134.000000 151017355.000000,88162355.000000 151001134.000000,88173194.000000 150982000.000000,88177000.000000 149382000.000000,88177000.000000 149362866.000000,88173194.000000 149346645.000000,88162355.000000 149335806.000000,88146134.000000 149332000.000000,88127000.000000 Z"/> 
<path style="fill:#000000; fill-opacity:1.0;  stroke:#000000; stroke-width:1.000000; stroke-opacity:1;  stroke-linecap:round; stroke-linejoin:round;fill-rule:evenodd;" d="M 149332000.000000,88377000.000000 149335806.000000,88357866.000000 149346645.000000,88341645.000000 149362866.000000,88330806.000000 149382000.000000,88327000.000000 150982000.000000,88327000.000000 151001134.000000,88330806.000000 151017355.000000,88341645.000000 151028194.000000,88357866.000000 151032000.000000,88377000.000000 151032000.000000,88927000.000000 151028194.000000,88946134.000000 151017355.000000,88962355.000000 151001134.000000,88973194.000000 150982000.000000,88977000.000000 149382000.000000,88977000.000000 149362866.000000,88973194.000000 149346645.000000,88962355.000000 149335806.000000,88946134.000000 149332000.000000,88927000.000000 Z"/> 
<path style="fill:#000000; fill-opacity:1.0;  stroke:#000000; stroke-width:1.000000; stroke-opacity:1;  stroke-linecap:round; stroke-linejoin:round;fill-rule:evenodd;" d="M 151907000.000000,89252000.000000 151926134.000000,89255806.000000 151942355.000000,89266645.000000 151953194.000000,89282866.000000 151957000.000000,89302000.000000 151957000.000000,90902000.000000 151953194.000000,90921134.000000 151942355.000000,90937355.000000 151926134.000000,90948194.000000 151907000.000000,90952000.000000 151357000.000000,90952000.000000 151337866.000000,90948194.000000 151321645.000000,90937355.000000 151310806.000000,90921134.000000 151307000.000000,90902000.000000 151307000.000000,89302000.000000 151310806.000000,89282866.000000 151321645.000000,89266645.000000 151337866.000000,89255806.000000 151357000.000000,89252000.000000 Z"/> 
<path style="fill:#000000; fill-opacity:1.0;  stroke:#000000; stroke-width:1.000000; stroke-opacity:1;  stroke-linecap:round; stroke-linejoin:round;fill-rule:evenodd;" d="M 152707000.000000,89252000.000000 152726134.000000,89255806.000000 152742355.000000,89266645.000000 152753194.000000,89282866.000000 152757000.000000,89302000.000000 152757000.000000,90902000.000000 152753194.000000,90921134.000000 152742355.000000,90937355.000000 152726134.000000,90948194.000000 152707000.000000,90952000.000000 152157000.000000,90952000.000000 152137866.000000,90948194.000000 152121645.000000,90937355.000000 152110806.000000,90921134.000000 152107000.000000,90902000.000000 152107000.000000,89302000.000000 152110806.000000,89282866.000000 152121645.000000,89266645.000000 152137866.000000,89255806.000000 152157000.000000,89252000.000000 Z"/> 
<path style="fill:#000000; fill-opacity:1.0;  stroke:#000000; stroke-width:1.000000; stroke-opacity:1;  stroke-linecap:round; stroke-linejoin:round;fill-rule:evenodd;" d="M 153507000.000000,89252000.000000 153526134.000000,89255806.000000 153542355.000000,89266645.000000 153553194.000000,89282866.000000 153557000.000000,89302000.000000 153557000.000000,90902000.000000 153553194.000000,90921134.000000 153542355.000000,90937355.000000 153526134.000000,90948194.000000 153507000.000000,90952000.000000 152957000.000000,90952000.000000 152937866.000000,90948194.000000 152921645.000000,90937355.000000 152910806.000000,90921134.000000 152907000.000000,90902000.000000 152907000.000000,89302000.000000 152910806.000000,89282866.000000 152921645.000000,89266645.000000 152937866.000000,89255806.000000 152957000.000000,89252000.000000 Z"/> 
<path style="fill:#000000; fill-opacity:1.0;  stroke:#000000; stroke-width:1.000000; stroke-opacity:1;  stroke-linecap:round; stroke-linejoin:round;fill-rule:evenodd;" d="M 154307000.000000,89252000.000000 154326134.000000,89255806.000000 154342355.000000,89266645.000000 154353194.000000,89282866.000000 154357000.000000,89302000.000000 154357000.000000,90902000.000000 154353194.000000,90921134.000000 154342355.000000,90937355.000000 154326134.000000,90948194.000000 154307000.000000,90952000.000000 153757000.000000,90952000.000000 153737866.000000,90948194.000000 153721645.000000,90937355.000000 153710806.000000,90921134.000000 153707000.000000,90902000.000000 153707000.000000,89302000.000000 153710806.000000,89282866.000000 153721645.000000,89266645.000000 153737866.000000,89255806.000000 153757000.000000,89252000.000000 Z"/> 
<path style="fill:#000000; fill-opacity:1.0;  stroke:#000000; stroke-width:1.000000; stroke-opacity:1;  stroke-linecap:round; stroke-linejoin:round;fill-rule:evenodd;" d="M 155107000.000000,89252000.000000 155126134.000000,89255806.000000 155142355.000000,89266645.000000 155153194.000000,89282866.000000 155157000.000000,89302000.000000 155157000.000000,90902000.000000 155153194.000000,90921134.000000 155142355.000000,90937355.000000 155126134.000000,90948194.000000 155107000.000000,90952000.000000 154557000.000000,90952000.000000 154537866.000000,90948194.000000 154521645.000000,90937355.000000 154510806.000000,90921134.000000 154507000.000000,90902000.000000 154507000.000000,89302000.000000 154510806.000000,89282866.000000 154521645.000000,89266645.000000 154537866.000000,89255806.000000 154557000.000000,89252000.000000 Z"/> 
<path style="fill:#000000; fill-opacity:1.0;  stroke:#000000; stroke-width:1.000000; stroke-opacity:1;  stroke-linecap:round; stroke-linejoin:round;fill-rule:evenodd;" d="M 155907000.000000,89252000.000000 155926134.000000,89255806.000000 155942355.000000,89266645.000000 155953194.000000,89282866.000000 155957000.000000,89302000.000000 155957000.000000,90902000.000000 155953194.000000,90921134.000000 155942355.000000,90937355.000000 155926134.000000,90948194.000000 155907000.000000,90952000.000000 155357000.000000,90952000.000000 155337866.000000,90948194.000000 155321645.000000,90937355.000000 155310806.000000,90921134.000000 155307000.000000,90902000.000000 155307000.000000,89302000.000000 155310806.000000,89282866.000000 155321645.000000,89266645.000000 155337866.000000,89255806.000000 155357000.000000,89252000.000000 Z"/> 
<path style="fill:#000000; fill-opacity:1.0;  stroke:#000000; stroke-width:1.000000; stroke-opacity:1;  stroke-linecap:round; stroke-linejoin:round;fill-rule:evenodd;" d="M 156707000.000000,89252000.000000 156726134.000000,89255806.000000 156742355.000000,89266645.000000 156753194.000000,89282866.000000 156757000.000000,89302000.000000 156757000.000000,90902000.000000 156753194.000000,90921134.000000 156742355.000000,90937355.000000 156726134.000000,90948194.000000 156707000.000000,90952000.000000 156157000.000000,90952000.000000 156137866.000000,90948194.000000 156121645.000000,90937355.000000 156110806.000000,90921134.000000 156107000.000000,90902000.000000 156107000.000000,89302000.000000 156110806.000000,89282866.000000 156121645.000000,89266645.000000 156137866.000000,89255806.000000 156157000.000000,89252000.000000 Z"/> 
<path style="fill:#000000; fill-opacity:1.0;  stroke:#000000; stroke-width:1.000000; stroke-opacity:1;  stroke-linecap:round; stroke-linejoin:round;fill-rule:evenodd;" d="M 157507000.000000,89252000.000000 157526134.000000,89255806.000000 157542355.000000,89266645.000000 157553194.000000,89282866.000000 157557000.000000,89302000.000000 157557000.000000,90902000.000000 157553194.000000,90921134.000000 157542355.000000,90937355.000000 157526134.000000,90948194.000000 157507000.000000,90952000.000000 156957000.000000,90952000.000000 156937866.000000,90948194.000000 156921645.000000,90937355.000000 156910806.000000,90921134.000000 156907000.000000,90902000.000000 156907000.000000,89302000.000000 156910806.000000,89282866.000000 156921645.000000,89266645.000000 156937866.000000,89255806.000000 156957000.000000,89252000.000000 Z"/> 
<path style="fill:#000000; fill-opacity:1.0;  stroke:#000000; stroke-width:1.000000; stroke-opacity:1;  stroke-linecap:round; stroke-linejoin:round;fill-rule:evenodd;" d="M 157832000.000000,88377000.000000 157835806.000000,88357866.000000 157846645.000000,88341645.000000 157862866.000000,88330806.000000 157882000.000000,88327000.000000 159482000.000000,88327000.000000 159501134.000000,88330806.000000 159517355.000000,88341645.000000 159528194.000000,88357866.000000 159532000.000000,88377000.000000 159532000.000000,88927000.000000 159528194.000000,88946134.000000 159517355.000000,88962355.000000 159501134.000000,88973194.000000 159482000.000000,88977000.000000 157882000.000000,88977000.000000 157862866.000000,88973194.000000 157846645.000000,88962355.000000 157835806.000000,88946134.000000 157832000.000000,88927000.000000 Z"/> 
<path style="fill:#000000; fill-opacity:1.0;  stroke:#000000; stroke-width:1.000000; stroke-opacity:1;  stroke-linecap:round; stroke-linejoin:round;fill-rule:evenodd;" d="M 157832000.000000,87577000.000000 157835806.000000,87557866.000000 157846645.000000,87541645.000000 157862866.000000,87530806.000000 157882000.000000,87527000.000000 159482000.000000,87527000.000000 159501134.000000,87530806.000000 159517355.000000,87541645.000000 159528194.000000,87557866.000000 159532000.000000,87577000.000000 159532000.000000,88127000.000000 159528194.000000,88146134.000000 159517355.000000,88162355.000000 159501134.000000,88173194.000000 159482000.000000,88177000.000000 157882000.000000,88177000.000000 157862866.000000,88173194.000000 157846645.000000,88162355.000000 157835806.000000,88146134.000000 157832000.000000,88127000.000000 Z"/> 
<path style="fill:#000000; fill-opacity:1.0;  stroke:#000000; stroke-width:1.000000; stroke-opacity:1;  stroke-linecap:round; stroke-linejoin:round;fill-rule:evenodd;" d="M 157832000.000000,86777000.000000 157835806.000000,86757866.000000 157846645.000000,86741645.000000 157862866.000000,86730806.000000 157882000.000000,86727000.000000 159482000.000000,86727000.000000 159501134.000000,86730806.000000 159517355.000000,86741645.000000 159528194.000000,86757866.000000 159532000.000000,86777000.000000 159532000.000000,87327000.000000 159528194.000000,87346134.000000 159517355.000000,87362355.000000 159501134.000000,87373194.000000 159482000.000000,87377000.000000 157882000.000000,87377000.000000 157862866.000000,87373194.000000 157846645.000000,87362355.000000 157835806.000000,87346134.000000 157832000.000000,87327000.000000 Z"/> 
<path style="fill:#000000; fill-opacity:1.0;  stroke:#000000; stroke-width:1.000000; stroke-opacity:1;  stroke-linecap:round; stroke-linejoin:round;fill-rule:evenodd;" d="M 157832000.000000,85977000.000000 157835806.000000,85957866.000000 157846645.000000,85941645.000000 157862866.000000,85930806.000000 157882000.000000,85927000.000000 159482000.000000,85927000.000000 159501134.000000,85930806.000000 159517355.000000,85941645.000000 159528194.000000,85957866.000000 159532000.000000,85977000.000000 159532000.000000,86527000.000000 159528194.000000,86546134.000000 159517355.000000,86562355.000000 159501134.000000,86573194.000000 159482000.000000,86577000.000000 157882000.000000,86577000.000000 157862866.000000,86573194.000000 157846645.000000,86562355.000000 157835806.000000,86546134.000000 157832000.000000,86527000.000000 Z"/> 
<path style="fill:#000000; fill-opacity:1.0;  stroke:#000000; stroke-width:1.000000; stroke-opacity:1;  stroke-linecap:round; stroke-linejoin:round;fill-rule:evenodd;" d="M 157832000.000000,85177000.000000 157835806.000000,85157866.000000 157846645.000000,85141645.000000 157862866.000000,85130806.000000 157882000.000000,85127000.000000 159482000.000000,85127000.000000 159501134.000000,85130806.000000 159517355.000000,85141645.000000 159528194.000000,85157866.000000 159532000.000000,85177000.000000 159532000.000000,85727000.000000 159528194.000000,85746134.000000 159517355.000000,85762355.000000 159501134.000000,85773194.000000 159482000.000000,85777000.000000 157882000.000000,85777000.000000 157862866.000000,85773194.000000 157846645.000000,85762355.000000 157835806.000000,85746134.000000 157832000.000000,85727000.000000 Z"/> 
<path style="fill:#000000; fill-opacity:1.0;  stroke:#000000; stroke-width:1.000000; stroke-opacity:1;  stroke-linecap:round; stroke-linejoin:round;fill-rule:evenodd;" d="M 157832000.000000,84377000.000000 157835806.000000,84357866.000000 157846645.000000,84341645.000000 157862866.000000,84330806.000000 157882000.000000,84327000.000000 159482000.000000,84327000.000000 159501134.000000,84330806.000000 159517355.000000,84341645.000000 159528194.000000,84357866.000000 159532000.000000,84377000.000000 159532000.000000,84927000.000000 159528194.000000,84946134.000000 159517355.000000,84962355.000000 159501134.000000,84973194.000000 159482000.000000,84977000.000000 157882000.000000,84977000.000000 157862866.000000,84973194.000000 157846645.000000,84962355.000000 157835806.000000,84946134.000000 157832000.000000,84927000.000000 Z"/> 
<path style="fill:#000000; fill-opacity:1.0;  stroke:#000000; stroke-width:1.000000; stroke-opacity:1;  stroke-linecap:round; stroke-linejoin:round;fill-rule:evenodd;" d="M 157832000.000000,83577000.000000 157835806.000000,83557866.000000 157846645.000000,83541645.000000 157862866.000000,83530806.000000 157882000.000000,83527000.000000 159482000.000000,83527000.000000 159501134.000000,83530806.000000 159517355.000000,83541645.000000 159528194.000000,83557866.000000 159532000.000000,83577000.000000 159532000.000000,84127000.000000 159528194.000000,84146134.000000 159517355.000000,84162355.000000 159501134.000000,84173194.000000 159482000.000000,84177000.000000 157882000.000000,84177000.000000 157862866.000000,84173194.000000 157846645.000000,84162355.000000 157835806.000000,84146134.000000 157832000.000000,84127000.000000 Z"/> 
<path style="fill:#000000; fill-opacity:1.0;  stroke:#000000; stroke-width:1.000000; stroke-opacity:1;  stroke-linecap:round; stroke-linejoin:round;fill-rule:evenodd;" d="M 157832000.000000,82777000.000000 157835806.000000,82757866.000000 157846645.000000,82741645.000000 157862866.000000,82730806.000000 157882000.000000,82727000.000000 159482000.000000,82727000.000000 159501134.000000,82730806.000000 159517355.000000,82741645.000000 159528194.000000,82757866.000000 159532000.000000,82777000.000000 159532000.000000,83327000.000000 159528194.000000,83346134.000000 159517355.000000,83362355.000000 159501134.000000,83373194.000000 159482000.000000,83377000.000000 157882000.000000,83377000.000000 157862866.000000,83373194.000000 157846645.000000,83362355.000000 157835806.000000,83346134.000000 157832000.000000,83327000.000000 Z"/> 
</g>
<g style="fill:#000000; fill-opacity:1.0;  stroke:#000000; stroke-width:1.000000; stroke-opacity:1;  stroke-linecap:round; stroke-linejoin:round;">
<path style="fill:#000000; fill-opacity:1.0;  stroke:#000000; stroke-width:1.000000; stroke-opacity:1;  stroke-linecap:round; stroke-linejoin:round;fill-rule:evenodd;" d="M 170177750.000000,83596400.000000 170074904.000000,83575943.000000 169987715.000000,83517685.000000 169929457.000000,83430496.000000 169909000.000000,83327650.000000 169909000.000000,82890150.000000 169929457.000000,82787304.000000 169987715.000000,82700115.000000 170074904.000000,82641857.000000 170177750.000000,82621400.000000 170690250.000000,82621400.000000 170793096.000000,82641857.000000 170880285.000000,82700115.000000 170938543.000000,82787304.000000 170959000.000000,82890150.000000 170959000.000000,83327650.000000 170938543.000000,83430496.000000 170880285.000000,83517685.000000 170793096.000000,83575943.000000 170690250.000000,83596400.000000 Z"/> 
<path style="fill:#000000; fill-opacity:1.0;  stroke:#000000; stroke-width:1.000000; stroke-opacity:1;  stroke-linecap:round; stroke-linejoin:round;fill-rule:evenodd;" d="M 170177750.000000,82021400.000000 170074904.000000,82000943.000000 169987715.000000,81942685.000000 169929457.000000,81855496.000000 169909000.000000,81752650.000000 169909000.000000,81315150.000000 169929457.000000,81212304.000000 169987715.000000,81125115.000000 170074904.000000,81066857.000000 170177750.000000,81046400.000000 170690250.000000,81046400.000000 170793096.000000,81066857.000000 170880285.000000,81125115.000000 170938543.000000,81212304.000000 170959000.000000,81315150.000000 170959000.000000,81752650.000000 170938543.000000,81855496.000000 170880285.000000,81942685.000000 170793096.000000,82000943.000000 170690250.000000,82021400.000000 Z"/> 
</g>
<g style="fill:#000000; fill-opacity:1.0;  stroke:#000000; stroke-width:1.000000; stroke-opacity:1;  stroke-linecap:round; stroke-linejoin:round;">
<path style="fill:#000000; fill-opacity:1.0;  stroke:#000000; stroke-width:1.000000; stroke-opacity:1;  stroke-linecap:round; stroke-linejoin:round;fill-rule:evenodd;" d="M 161925950.000000,83542400.000000 161858373.000000,83534521.000000 161759991.000000,83491027.000000 161683863.000000,83415032.000000 161640197.000000,83316726.000000 161632200.000000,83248650.000000 161632200.000000,82761150.000000 161640079.000000,82693573.000000 161683573.000000,82595191.000000 161759568.000000,82519063.000000 161857874.000000,82475397.000000 161925950.000000,82467400.000000 162838450.000000,82467400.000000 162906027.000000,82475279.000000 163004409.000000,82518773.000000 163080537.000000,82594768.000000 163124203.000000,82693074.000000 163132200.000000,82761150.000000 163132200.000000,83248650.000000 163124321.000000,83316227.000000 163080827.000000,83414609.000000 163004832.000000,83490737.000000 162906526.000000,83534403.000000 162838450.000000,83542400.000000 Z"/> 
<path style="fill:#000000; fill-opacity:1.0;  stroke:#000000; stroke-width:1.000000; stroke-opacity:1;  stroke-linecap:round; stroke-linejoin:round;fill-rule:evenodd;" d="M 161925950.000000,81667400.000000 161858373.000000,81659521.000000 161759991.000000,81616027.000000 161683863.000000,81540032.000000 161640197.000000,81441726.000000 161632200.000000,81373650.000000 161632200.000000,80886150.000000 161640079.000000,80818573.000000 161683573.000000,80720191.000000 161759568.000000,80644063.000000 161857874.000000,80600397.000000 161925950.000000,80592400.000000 162838450.000000,80592400.000000 162906027.000000,80600279.000000 163004409.000000,80643773.000000 163080537.000000,80719768.000000 163124203.000000,80818074.000000 163132200.000000,80886150.000000 163132200.000000,81373650.000000 163124321.000000,81441227.000000 163080827.000000,81539609.000000 163004832.000000,81615737.000000 162906526.000000,81659403.000000 162838450.000000,81667400.000000 Z"/> 
</g>
</g> 
</mask></defs><g transform="" id="boardContainer"><g clip-path="url(#cut-off)" mask="url(#pads-mask-silkscreen)"><g id="substrate-board" style="fill:#143324; fill-opacity:0.25098039215686274; stroke:#143324;"><path d=" M 182000000.0 65700000.0 L 119000000.0 65700000.0 L 119000000.0 101300000.0 L 182000000.0 101300000.0 L 182000000.0 65700000.0 " style="fill-rule: evenodd;"/><g style="fill:#000000; stroke: #000000;"><g style="fill-opacity:0.0; stroke-width:50000.000000; stroke-opacity:1; stroke-linecap:round; stroke-linejoin:round;">
<path d="M119000000 101300000 L182000000 101300000 "/>
<path d="M182000000 101300000 L182000000 65700000 "/>
<path d="M119000000 65700000 L119000000 101300000 "/>
<path d="M182000000 65700000 L119000000 65700000 "/>
</g> 
</g></g></g></g></svg>
