<?xml version='1.0' encoding='ASCII' standalone='yes'?>
<svg xmlns:svg="http://www.w3.org/2000/svg" xmlns="http://www.w3.org/2000/svg" xmlns:xlink="http://www.w3.org/1999/xlink" version="1.1" width="297.0022mm" height="210.0072mm" viewBox="0.0000 0.0000 297.0022 210.0072">
<svg:text x="178.0022" y="183.7572" font-size="2.0000" font-family="monospace" font-weight="normal" letter-spacing="0" text-anchor="start" fill="#FFFFFF" lengthAdjust="spacingAndGlyphs" textLength="8.2214">Sheet: </svg:text><svg:text x="178.0022" y="186.4572" font-size="2.0000" font-family="monospace" font-weight="normal" letter-spacing="0" text-anchor="start" fill="#FFFFFF" lengthAdjust="spacingAndGlyphs" textLength="20.1500">File: t1.kicad_pcb</svg:text><svg:text x="178.0022" y="190.3072" font-size="2.6667" font-family="monospace" font-weight="normal" letter-spacing="0" text-anchor="start" fill="#FFFFFF" lengthAdjust="spacingAndGlyphs" textLength="9.6571">Title: </svg:text><svg:text x="263.0022" y="196.6572" font-size="2.0000" font-family="monospace" font-weight="normal" letter-spacing="0" text-anchor="start" fill="#FFFFFF" lengthAdjust="spacingAndGlyphs" textLength="8.5071">Id: 1/1</svg:text><svg:text x="178.0022" y="193.8572" font-size="2.0000" font-family="monospace" font-weight="normal" letter-spacing="0" text-anchor="start" fill="#FFFFFF" lengthAdjust="spacingAndGlyphs" textLength="9.3643">Size: A4</svg:text><svg:text x="263.0022" y="193.8572" font-size="2.0000" font-family="monospace" font-weight="normal" letter-spacing="0" text-anchor="start" fill="#FFFFFF" lengthAdjust="spacingAndGlyphs" textLength="6.3857">Rev: </svg:text><svg:text x="178.0022" y="196.6572" font-size="2.0000" font-family="monospace" font-weight="normal" letter-spacing="0" text-anchor="start" fill="#FFFFFF" lengthAdjust="spacingAndGlyphs" textLength="20.6500">${KICAD_VERSION}</svg:text><svg:text x="200.0022" y="193.8572" font-size="2.0000" font-family="monospace" font-weight="normal" letter-spacing="0" text-anchor="start" fill="#FFFFFF" lengthAdjust="spacingAndGlyphs" textLength="7.0071">Date: </svg:text><svg:text x="286.0022" y="185.6500" font-size="1.7333" font-family="monospace" font-weight="normal" letter-spacing="0" text-anchor="middle" fill="#FFFFFF" lengthAdjust="spacingAndGlyphs" textLength="1.4900">D</svg:text><svg:text x="286.0022" y="135.6500" font-size="1.7333" font-family="monospace" font-weight="normal" letter-spacing="0" text-anchor="middle" fill="#FFFFFF" lengthAdjust="spacingAndGlyphs" textLength="1.4900">C</svg:text><svg:text x="286.0022" y="85.6500" font-size="1.7333" font-family="monospace" font-weight="normal" letter-spacing="0" text-anchor="middle" fill="#FFFFFF" lengthAdjust="spacingAndGlyphs" textLength="1.4900">B</svg:text><svg:text x="286.0022" y="35.6500" font-size="1.7333" font-family="monospace" font-weight="normal" letter-spacing="0" text-anchor="middle" fill="#FFFFFF" lengthAdjust="spacingAndGlyphs" textLength="1.3043">A</svg:text><svg:text x="11.0000" y="185.6500" font-size="1.7333" font-family="monospace" font-weight="normal" letter-spacing="0" text-anchor="middle" fill="#FFFFFF" lengthAdjust="spacingAndGlyphs" textLength="1.4900">D</svg:text><svg:text x="11.0000" y="135.6500" font-size="1.7333" font-family="monospace" font-weight="normal" letter-spacing="0" text-anchor="middle" fill="#FFFFFF" lengthAdjust="spacingAndGlyphs" textLength="1.4900">C</svg:text><svg:text x="11.0000" y="85.6500" font-size="1.7333" font-family="monospace" font-weight="normal" letter-spacing="0" text-anchor="middle" fill="#FFFFFF" lengthAdjust="spacingAndGlyphs" textLength="1.4900">B</svg:text><svg:text x="11.0000" y="35.6500" font-size="1.7333" font-family="monospace" font-weight="normal" letter-spacing="0" text-anchor="middle" fill="#FFFFFF" lengthAdjust="spacingAndGlyphs" textLength="1.3043">A</svg:text><svg:text x="285.0000" y="199.6572" font-size="1.7333" font-family="monospace" font-weight="normal" letter-spacing="0" text-anchor="start" fill="#FFFFFF" lengthAdjust="spacingAndGlyphs" textLength="1.4281">6</svg:text><svg:text x="235.0000" y="199.6572" font-size="1.7333" font-family="monospace" font-weight="normal" letter-spacing="0" text-anchor="start" fill="#FFFFFF" lengthAdjust="spacingAndGlyphs" textLength="1.4281">5</svg:text><svg:text x="185.0000" y="199.6572" font-size="1.7333" font-family="monospace" font-weight="normal" letter-spacing="0" text-anchor="start" fill="#FFFFFF" lengthAdjust="spacingAndGlyphs" textLength="1.4281">4</svg:text><svg:text x="135.0000" y="199.6572" font-size="1.7333" font-family="monospace" font-weight="normal" letter-spacing="0" text-anchor="start" fill="#FFFFFF" lengthAdjust="spacingAndGlyphs" textLength="1.4281">3</svg:text><svg:text x="85.0000" y="199.6572" font-size="1.7333" font-family="monospace" font-weight="normal" letter-spacing="0" text-anchor="start" fill="#FFFFFF" lengthAdjust="spacingAndGlyphs" textLength="1.4281">2</svg:text><svg:text x="35.0000" y="199.6572" font-size="1.7333" font-family="monospace" font-weight="normal" letter-spacing="0" text-anchor="start" fill="#FFFFFF" lengthAdjust="spacingAndGlyphs" textLength="1.4281">1</svg:text><svg:text x="285.0000" y="11.6500" font-size="1.7333" font-family="monospace" font-weight="normal" letter-spacing="0" text-anchor="start" fill="#FFFFFF" lengthAdjust="spacingAndGlyphs" textLength="1.4281">6</svg:text><svg:text x="235.0000" y="11.6500" font-size="1.7333" font-family="monospace" font-weight="normal" letter-spacing="0" text-anchor="start" fill="#FFFFFF" lengthAdjust="spacingAndGlyphs" textLength="1.4281">5</svg:text><svg:text x="185.0000" y="11.6500" font-size="1.7333" font-family="monospace" font-weight="normal" letter-spacing="0" text-anchor="start" fill="#FFFFFF" lengthAdjust="spacingAndGlyphs" textLength="1.4281">4</svg:text><svg:text x="135.0000" y="11.6500" font-size="1.7333" font-family="monospace" font-weight="normal" letter-spacing="0" text-anchor="start" fill="#FFFFFF" lengthAdjust="spacingAndGlyphs" textLength="1.4281">3</svg:text><svg:text x="85.0000" y="11.6500" font-size="1.7333" font-family="monospace" font-weight="normal" letter-spacing="0" text-anchor="start" fill="#FFFFFF" lengthAdjust="spacingAndGlyphs" textLength="1.4281">2</svg:text><svg:text x="35.0000" y="11.6500" font-size="1.7333" font-family="monospace" font-weight="normal" letter-spacing="0" text-anchor="start" fill="#FFFFFF" lengthAdjust="spacingAndGlyphs" textLength="1.4281">1</svg:text><svg:g transform="rotate(359.985813 146.5019 62.6118)"><svg:text x="146.5019" y="63.1118" font-size="1.3333" font-family="monospace" font-weight="normal" letter-spacing="0" text-anchor="middle" fill="#FFFFFF" lengthAdjust="spacingAndGlyphs" textLength="9.8690">63.0010 mm</svg:text></svg:g><svg:g transform="rotate(270.001609 179.9017 83.4923)"><svg:text x="179.9017" y="83.9923" font-size="1.3333" font-family="monospace" font-weight="normal" letter-spacing="0" text-anchor="middle" fill="#FFFFFF" lengthAdjust="spacingAndGlyphs" textLength="9.8690">35.6156 mm</svg:text></svg:g><title>SVG Image created as t1-B_Courtyard.svg date 2024/10/28 12:47:29 </title>
  <desc>Image generated by PCBNEW </desc>
<g style="fill:#848484; fill-opacity:1.0000;stroke:#848484; stroke-opacity:1.0000; stroke-linecap:round; stroke-linejoin:round;" transform="translate(0 0) scale(1 1)">
</g>
<g style="fill:none;  stroke:#848484; stroke-width:0.0500; stroke-opacity:1;  stroke-linecap:round; stroke-linejoin:round;">
<circle cx="129.2098" cy="80.1624" r="1.0000"/> 
<circle cx="123.5202" cy="78.4860" r="1.0000"/> 
<circle cx="117.9322" cy="80.7720" r="1.0000"/> 
<circle cx="117.9322" cy="84.0740" r="1.0000"/> 
<circle cx="132.7150" cy="70.0532" r="1.0000"/> 
<circle cx="143.5100" cy="70.0278" r="1.0000"/> 
<circle cx="141.0462" cy="84.5820" r="1.0000"/> 
</g> 
<svg:g><svg:g><svg:title>SVG Image created as t1-Edge_Cuts.svg date 2024/10/28 12:47:29 </svg:title>
  <svg:desc>Image generated by PCBNEW </svg:desc>
<svg:g style="fill:#C2C200; fill-opacity:1.0000;stroke:#C2C200; stroke-opacity:1.0000; stroke-linecap:round; stroke-linejoin:round;" transform="translate(0 0) scale(1 1)">
</svg:g>
<svg:g style="fill:none;  stroke:#C2C200; stroke-width:0.0500; stroke-opacity:1;  stroke-linecap:round; stroke-linejoin:round;">
<svg:path d="M178.0022 101.3000 L115.0022 101.3000 "/>
<svg:path d="M115.0022 101.3000 L115.0022 65.7000 "/>
<svg:path d="M178.0022 65.7000 L178.0022 101.3000 "/>
<svg:path d="M115.0022 65.7000 L178.0022 65.7000 "/>
</svg:g> 
</svg:g></svg:g><svg:g><svg:g><svg:title>SVG Image created as t1-User_Drawings.svg date 2024/10/28 12:47:29 </svg:title>
  <svg:desc>Image generated by PCBNEW </svg:desc>
<svg:g style="fill:#C2C2C2; fill-opacity:1.0000;stroke:#C2C2C2; stroke-opacity:1.0000; stroke-linecap:round; stroke-linejoin:round;" transform="translate(0 0) scale(1 1)">
</svg:g>
<svg:g style="fill:none;  stroke:#C2C2C2; stroke-width:0.1500; stroke-opacity:1;  stroke-linecap:round; stroke-linejoin:round;">
<svg:g transform="rotate(270.001609 179.9017 83.4923)">
<svg:text x="179.9017" y="83.9923" textLength="9.8690" font-size="1.3333" lengthAdjust="spacingAndGlyphs" text-anchor="middle" opacity="0" stroke-opacity="0">35.6156 mm</svg:text>
</svg:g>
<svg:g class="stroked-text"><svg:desc>35.6156 mm</svg:desc>
<svg:path d="M179.3564 88.1589 L179.3564 87.5399 "/>
<svg:path d="M179.3564 87.5399 L179.7374 87.8732 "/>
<svg:path d="M179.7374 87.8732 L179.7374 87.7303 "/>
<svg:path d="M179.7374 87.7303 L179.7850 87.6351 "/>
<svg:path d="M179.7850 87.6351 L179.8326 87.5875 "/>
<svg:path d="M179.8326 87.5875 L179.9278 87.5399 "/>
<svg:path d="M179.9278 87.5399 L180.1659 87.5399 "/>
<svg:path d="M180.1659 87.5399 L180.2612 87.5875 "/>
<svg:path d="M180.2612 87.5875 L180.3088 87.6351 "/>
<svg:path d="M180.3088 87.6351 L180.3564 87.7304 "/>
<svg:path d="M180.3564 87.7304 L180.3564 88.0161 "/>
<svg:path d="M180.3564 88.0161 L180.3088 88.1113 "/>
<svg:path d="M180.3088 88.1113 L180.2612 88.1589 "/>
<svg:path d="M179.3564 86.6351 L179.3564 87.1113 "/>
<svg:path d="M179.3564 87.1113 L179.8326 87.1589 "/>
<svg:path d="M179.8326 87.1589 L179.7850 87.1113 "/>
<svg:path d="M179.7850 87.1113 L179.7374 87.0161 "/>
<svg:path d="M179.7374 87.0161 L179.7374 86.7780 "/>
<svg:path d="M179.7374 86.7780 L179.7850 86.6827 "/>
<svg:path d="M179.7850 86.6827 L179.8326 86.6351 "/>
<svg:path d="M179.8326 86.6351 L179.9279 86.5875 "/>
<svg:path d="M179.9279 86.5875 L180.1660 86.5875 "/>
<svg:path d="M180.1660 86.5875 L180.2612 86.6351 "/>
<svg:path d="M180.2612 86.6351 L180.3088 86.6827 "/>
<svg:path d="M180.3088 86.6827 L180.3564 86.7780 "/>
<svg:path d="M180.3564 86.7780 L180.3564 87.0161 "/>
<svg:path d="M180.3564 87.0161 L180.3088 87.1113 "/>
<svg:path d="M180.3088 87.1113 L180.2612 87.1589 "/>
<svg:path d="M180.2612 86.1589 L180.3088 86.1113 "/>
<svg:path d="M180.3088 86.1113 L180.3565 86.1589 "/>
<svg:path d="M180.3565 86.1589 L180.3088 86.2065 "/>
<svg:path d="M180.3088 86.2065 L180.2612 86.1589 "/>
<svg:path d="M180.2612 86.1589 L180.3565 86.1589 "/>
<svg:path d="M179.3565 85.2541 L179.3565 85.4446 "/>
<svg:path d="M179.3565 85.4446 L179.4041 85.5399 "/>
<svg:path d="M179.4041 85.5399 L179.4517 85.5875 "/>
<svg:path d="M179.4517 85.5875 L179.5946 85.6827 "/>
<svg:path d="M179.5946 85.6827 L179.7850 85.7303 "/>
<svg:path d="M179.7850 85.7303 L180.1660 85.7304 "/>
<svg:path d="M180.1660 85.7304 L180.2612 85.6827 "/>
<svg:path d="M180.2612 85.6827 L180.3089 85.6351 "/>
<svg:path d="M180.3089 85.6351 L180.3565 85.5399 "/>
<svg:path d="M180.3565 85.5399 L180.3565 85.3494 "/>
<svg:path d="M180.3565 85.3494 L180.3089 85.2542 "/>
<svg:path d="M180.3089 85.2542 L180.2612 85.2065 "/>
<svg:path d="M180.2612 85.2065 L180.1660 85.1589 "/>
<svg:path d="M180.1660 85.1589 L179.9279 85.1589 "/>
<svg:path d="M179.9279 85.1589 L179.8327 85.2065 "/>
<svg:path d="M179.8327 85.2065 L179.7851 85.2542 "/>
<svg:path d="M179.7851 85.2542 L179.7374 85.3494 "/>
<svg:path d="M179.7374 85.3494 L179.7374 85.5399 "/>
<svg:path d="M179.7374 85.5399 L179.7850 85.6351 "/>
<svg:path d="M179.7850 85.6351 L179.8327 85.6827 "/>
<svg:path d="M179.8327 85.6827 L179.9279 85.7303 "/>
<svg:path d="M180.3565 84.2066 L180.3565 84.7780 "/>
<svg:path d="M180.3565 84.4923 L179.3565 84.4922 "/>
<svg:path d="M179.3565 84.4922 L179.4994 84.5875 "/>
<svg:path d="M179.4994 84.5875 L179.5946 84.6827 "/>
<svg:path d="M179.5946 84.6827 L179.6422 84.7780 "/>
<svg:path d="M179.3565 83.3018 L179.3565 83.7780 "/>
<svg:path d="M179.3565 83.7780 L179.8327 83.8256 "/>
<svg:path d="M179.8327 83.8256 L179.7851 83.7780 "/>
<svg:path d="M179.7851 83.7780 L179.7375 83.6827 "/>
<svg:path d="M179.7375 83.6827 L179.7375 83.4446 "/>
<svg:path d="M179.7375 83.4446 L179.7851 83.3494 "/>
<svg:path d="M179.7851 83.3494 L179.8327 83.3018 "/>
<svg:path d="M179.8327 83.3018 L179.9280 83.2542 "/>
<svg:path d="M179.9280 83.2542 L180.1661 83.2542 "/>
<svg:path d="M180.1661 83.2542 L180.2613 83.3018 "/>
<svg:path d="M180.2613 83.3018 L180.3089 83.3494 "/>
<svg:path d="M180.3089 83.3494 L180.3565 83.4446 "/>
<svg:path d="M180.3565 83.4446 L180.3565 83.6827 "/>
<svg:path d="M180.3565 83.6827 L180.3089 83.7780 "/>
<svg:path d="M180.3089 83.7780 L180.2613 83.8256 "/>
<svg:path d="M179.3566 82.3970 L179.3566 82.5875 "/>
<svg:path d="M179.3566 82.5875 L179.4042 82.6827 "/>
<svg:path d="M179.4042 82.6827 L179.4518 82.7303 "/>
<svg:path d="M179.4518 82.7303 L179.5946 82.8256 "/>
<svg:path d="M179.5946 82.8256 L179.7851 82.8732 "/>
<svg:path d="M179.7851 82.8732 L180.1661 82.8732 "/>
<svg:path d="M180.1661 82.8732 L180.2613 82.8256 "/>
<svg:path d="M180.2613 82.8256 L180.3089 82.7780 "/>
<svg:path d="M180.3089 82.7780 L180.3566 82.6827 "/>
<svg:path d="M180.3566 82.6827 L180.3566 82.4923 "/>
<svg:path d="M180.3566 82.4923 L180.3089 82.3970 "/>
<svg:path d="M180.3089 82.3970 L180.2613 82.3494 "/>
<svg:path d="M180.2613 82.3494 L180.1661 82.3018 "/>
<svg:path d="M180.1661 82.3018 L179.9280 82.3018 "/>
<svg:path d="M179.9280 82.3018 L179.8328 82.3494 "/>
<svg:path d="M179.8328 82.3494 L179.7851 82.3970 "/>
<svg:path d="M179.7851 82.3970 L179.7375 82.4922 "/>
<svg:path d="M179.7375 82.4922 L179.7375 82.6827 "/>
<svg:path d="M179.7375 82.6827 L179.7851 82.7780 "/>
<svg:path d="M179.7851 82.7780 L179.8327 82.8256 "/>
<svg:path d="M179.8327 82.8256 L179.9280 82.8732 "/>
<svg:path d="M180.3566 81.1113 L179.6899 81.1113 "/>
<svg:path d="M179.7852 81.1113 L179.7376 81.0637 "/>
<svg:path d="M179.7376 81.0637 L179.6899 80.9684 "/>
<svg:path d="M179.6899 80.9684 L179.6899 80.8256 "/>
<svg:path d="M179.6899 80.8256 L179.7376 80.7303 "/>
<svg:path d="M179.7376 80.7303 L179.8328 80.6827 "/>
<svg:path d="M179.8328 80.6827 L180.3566 80.6827 "/>
<svg:path d="M179.8328 80.6827 L179.7376 80.6351 "/>
<svg:path d="M179.7376 80.6351 L179.6899 80.5399 "/>
<svg:path d="M179.6899 80.5399 L179.6900 80.3970 "/>
<svg:path d="M179.6900 80.3970 L179.7376 80.3018 "/>
<svg:path d="M179.7376 80.3018 L179.8328 80.2542 "/>
<svg:path d="M179.8328 80.2542 L180.3566 80.2542 "/>
<svg:path d="M180.3566 79.7780 L179.6900 79.7780 "/>
<svg:path d="M179.7852 79.7780 L179.7376 79.7303 "/>
<svg:path d="M179.7376 79.7303 L179.6900 79.6351 "/>
<svg:path d="M179.6900 79.6351 L179.6900 79.4922 "/>
<svg:path d="M179.6900 79.4922 L179.7376 79.3970 "/>
<svg:path d="M179.7376 79.3970 L179.8328 79.3494 "/>
<svg:path d="M179.8328 79.3494 L180.3567 79.3494 "/>
<svg:path d="M179.8328 79.3494 L179.7376 79.3018 "/>
<svg:path d="M179.7376 79.3018 L179.6900 79.2065 "/>
<svg:path d="M179.6900 79.2065 L179.6900 79.0637 "/>
<svg:path d="M179.6900 79.0637 L179.7376 78.9684 "/>
<svg:path d="M179.7376 78.9684 L179.8329 78.9208 "/>
<svg:path d="M179.8329 78.9208 L180.3567 78.9208 "/>
</svg:g><svg:path d="M178.0022 101.3000 L181.6376 101.3001 "/>
<svg:path d="M178.0032 65.6844 L181.6386 65.6845 "/>
<svg:path d="M181.0512 101.3001 L181.0522 65.6845 "/>
<svg:path d="M181.0512 101.3001 L181.0522 65.6845 "/>
<svg:path d="M181.0512 101.3001 L181.6377 100.1736 "/>
<svg:path d="M181.0512 101.3001 L180.4648 100.1736 "/>
<svg:path d="M181.0522 65.6845 L180.4658 66.8110 "/>
<svg:path d="M181.0522 65.6845 L181.6386 66.8110 "/>
<svg:g transform="rotate(359.985813 146.5019 62.6118)">
<svg:text x="146.5019" y="63.1118" textLength="9.8690" font-size="1.3333" lengthAdjust="spacingAndGlyphs" text-anchor="middle" opacity="0" stroke-opacity="0">63.0010 mm</svg:text>
</svg:g>
<svg:g class="stroked-text"><svg:desc>63.0010 mm</svg:desc>
<svg:path d="M142.3589 62.0676 L142.1685 62.0677 "/>
<svg:path d="M142.1685 62.0677 L142.0732 62.1153 "/>
<svg:path d="M142.0732 62.1153 L142.0256 62.1629 "/>
<svg:path d="M142.0256 62.1629 L141.9304 62.3058 "/>
<svg:path d="M141.9304 62.3058 L141.8829 62.4963 "/>
<svg:path d="M141.8829 62.4963 L141.8830 62.8773 "/>
<svg:path d="M141.8830 62.8773 L141.9306 62.9725 "/>
<svg:path d="M141.9306 62.9725 L141.9782 63.0201 "/>
<svg:path d="M141.9782 63.0201 L142.0735 63.0677 "/>
<svg:path d="M142.0735 63.0677 L142.2640 63.0676 "/>
<svg:path d="M142.2640 63.0676 L142.3592 63.0200 "/>
<svg:path d="M142.3592 63.0200 L142.4068 62.9724 "/>
<svg:path d="M142.4068 62.9724 L142.4544 62.8771 "/>
<svg:path d="M142.4544 62.8771 L142.4543 62.6390 "/>
<svg:path d="M142.4543 62.6390 L142.4067 62.5438 "/>
<svg:path d="M142.4067 62.5438 L142.3591 62.4962 "/>
<svg:path d="M142.3591 62.4962 L142.2638 62.4486 "/>
<svg:path d="M142.2638 62.4486 L142.0733 62.4486 "/>
<svg:path d="M142.0733 62.4486 L141.9781 62.4963 "/>
<svg:path d="M141.9781 62.4963 L141.9305 62.5439 "/>
<svg:path d="M141.9305 62.5439 L141.8829 62.6392 "/>
<svg:path d="M142.7875 62.0675 L143.4066 62.0674 "/>
<svg:path d="M143.4066 62.0674 L143.0733 62.4484 "/>
<svg:path d="M143.0733 62.4484 L143.2162 62.4484 "/>
<svg:path d="M143.2162 62.4484 L143.3114 62.4960 "/>
<svg:path d="M143.3114 62.4960 L143.3591 62.5436 "/>
<svg:path d="M143.3591 62.5436 L143.4067 62.6388 "/>
<svg:path d="M143.4067 62.6388 L143.4068 62.8769 "/>
<svg:path d="M143.4068 62.8769 L143.3592 62.9721 "/>
<svg:path d="M143.3592 62.9721 L143.3116 63.0198 "/>
<svg:path d="M143.3116 63.0198 L143.2163 63.0674 "/>
<svg:path d="M143.2163 63.0674 L142.9306 63.0675 "/>
<svg:path d="M142.9306 63.0675 L142.8354 63.0199 "/>
<svg:path d="M142.8354 63.0199 L142.7877 62.9723 "/>
<svg:path d="M143.8354 62.9720 L143.8830 63.0196 "/>
<svg:path d="M143.8830 63.0196 L143.8354 63.0673 "/>
<svg:path d="M143.8354 63.0673 L143.7878 63.0196 "/>
<svg:path d="M143.7878 63.0196 L143.8354 62.9720 "/>
<svg:path d="M143.8354 62.9720 L143.8354 63.0673 "/>
<svg:path d="M144.5018 62.0671 L144.5970 62.0671 "/>
<svg:path d="M144.5970 62.0671 L144.6923 62.1147 "/>
<svg:path d="M144.6923 62.1147 L144.7399 62.1623 "/>
<svg:path d="M144.7399 62.1623 L144.7876 62.2575 "/>
<svg:path d="M144.7876 62.2575 L144.8352 62.4480 "/>
<svg:path d="M144.8352 62.4480 L144.8353 62.6861 "/>
<svg:path d="M144.8353 62.6861 L144.7877 62.8765 "/>
<svg:path d="M144.7877 62.8765 L144.7401 62.9718 "/>
<svg:path d="M144.7401 62.9718 L144.6925 63.0194 "/>
<svg:path d="M144.6925 63.0194 L144.5973 63.0671 "/>
<svg:path d="M144.5973 63.0671 L144.5021 63.0671 "/>
<svg:path d="M144.5021 63.0671 L144.4068 63.0195 "/>
<svg:path d="M144.4068 63.0195 L144.3592 62.9719 "/>
<svg:path d="M144.3592 62.9719 L144.3115 62.8767 "/>
<svg:path d="M144.3115 62.8767 L144.2639 62.6862 "/>
<svg:path d="M144.2639 62.6862 L144.2638 62.4481 "/>
<svg:path d="M144.2638 62.4481 L144.3114 62.2576 "/>
<svg:path d="M144.3114 62.2576 L144.3590 62.1624 "/>
<svg:path d="M144.3590 62.1624 L144.4066 62.1147 "/>
<svg:path d="M144.4066 62.1147 L144.5018 62.0671 "/>
<svg:path d="M145.4542 62.0669 L145.5494 62.0668 "/>
<svg:path d="M145.5494 62.0668 L145.6447 62.1144 "/>
<svg:path d="M145.6447 62.1144 L145.6923 62.1620 "/>
<svg:path d="M145.6923 62.1620 L145.7399 62.2573 "/>
<svg:path d="M145.7399 62.2573 L145.7876 62.4477 "/>
<svg:path d="M145.7876 62.4477 L145.7877 62.6858 "/>
<svg:path d="M145.7877 62.6858 L145.7401 62.8763 "/>
<svg:path d="M145.7401 62.8763 L145.6925 62.9716 "/>
<svg:path d="M145.6925 62.9716 L145.6449 63.0192 "/>
<svg:path d="M145.6449 63.0192 L145.5497 63.0668 "/>
<svg:path d="M145.5497 63.0668 L145.4544 63.0669 "/>
<svg:path d="M145.4544 63.0669 L145.3592 63.0193 "/>
<svg:path d="M145.3592 63.0193 L145.3116 62.9716 "/>
<svg:path d="M145.3116 62.9716 L145.2639 62.8764 "/>
<svg:path d="M145.2639 62.8764 L145.2162 62.6860 "/>
<svg:path d="M145.2162 62.6860 L145.2162 62.4479 "/>
<svg:path d="M145.2162 62.4479 L145.2638 62.2574 "/>
<svg:path d="M145.2638 62.2574 L145.3114 62.1621 "/>
<svg:path d="M145.3114 62.1621 L145.3590 62.1145 "/>
<svg:path d="M145.3590 62.1145 L145.4542 62.0669 "/>
<svg:path d="M146.7401 63.0665 L146.1687 63.0667 "/>
<svg:path d="M146.4544 63.0666 L146.4542 62.0666 "/>
<svg:path d="M146.4542 62.0666 L146.3590 62.2095 "/>
<svg:path d="M146.3590 62.2095 L146.2638 62.3047 "/>
<svg:path d="M146.2638 62.3047 L146.1685 62.3524 "/>
<svg:path d="M147.3589 62.0664 L147.4542 62.0664 "/>
<svg:path d="M147.4542 62.0664 L147.5494 62.1140 "/>
<svg:path d="M147.5494 62.1140 L147.5971 62.1616 "/>
<svg:path d="M147.5971 62.1616 L147.6447 62.2568 "/>
<svg:path d="M147.6447 62.2568 L147.6924 62.4473 "/>
<svg:path d="M147.6924 62.4473 L147.6924 62.6853 "/>
<svg:path d="M147.6924 62.6853 L147.6449 62.8758 "/>
<svg:path d="M147.6449 62.8758 L147.5973 62.9711 "/>
<svg:path d="M147.5973 62.9711 L147.5497 63.0187 "/>
<svg:path d="M147.5497 63.0187 L147.4544 63.0664 "/>
<svg:path d="M147.4544 63.0664 L147.3592 63.0664 "/>
<svg:path d="M147.3592 63.0664 L147.2639 63.0188 "/>
<svg:path d="M147.2639 63.0188 L147.2163 62.9712 "/>
<svg:path d="M147.2163 62.9712 L147.1687 62.8760 "/>
<svg:path d="M147.1687 62.8760 L147.1210 62.6855 "/>
<svg:path d="M147.1210 62.6855 L147.1209 62.4474 "/>
<svg:path d="M147.1209 62.4474 L147.1685 62.2569 "/>
<svg:path d="M147.1685 62.2569 L147.2161 62.1617 "/>
<svg:path d="M147.2161 62.1617 L147.2637 62.1140 "/>
<svg:path d="M147.2637 62.1140 L147.3589 62.0664 "/>
<svg:path d="M148.8830 63.0660 L148.8828 62.3993 "/>
<svg:path d="M148.8829 62.4946 L148.9305 62.4469 "/>
<svg:path d="M148.9305 62.4469 L149.0257 62.3993 "/>
<svg:path d="M149.0257 62.3993 L149.1686 62.3993 "/>
<svg:path d="M149.1686 62.3993 L149.2638 62.4469 "/>
<svg:path d="M149.2638 62.4469 L149.3114 62.5421 "/>
<svg:path d="M149.3114 62.5421 L149.3116 63.0659 "/>
<svg:path d="M149.3114 62.5421 L149.3590 62.4468 "/>
<svg:path d="M149.3590 62.4468 L149.4543 62.3992 "/>
<svg:path d="M149.4543 62.3992 L149.5971 62.3992 "/>
<svg:path d="M149.5971 62.3992 L149.6924 62.4468 "/>
<svg:path d="M149.6924 62.4468 L149.7400 62.5420 "/>
<svg:path d="M149.7400 62.5420 L149.7401 63.0658 "/>
<svg:path d="M150.2163 63.0657 L150.2162 62.3990 "/>
<svg:path d="M150.2162 62.4942 L150.2638 62.4466 "/>
<svg:path d="M150.2638 62.4466 L150.3590 62.3990 "/>
<svg:path d="M150.3590 62.3990 L150.5019 62.3989 "/>
<svg:path d="M150.5019 62.3989 L150.5971 62.4465 "/>
<svg:path d="M150.5971 62.4465 L150.6448 62.5418 "/>
<svg:path d="M150.6448 62.5418 L150.6449 63.0656 "/>
<svg:path d="M150.6448 62.5418 L150.6924 62.4465 "/>
<svg:path d="M150.6924 62.4465 L150.7876 62.3989 "/>
<svg:path d="M150.7876 62.3989 L150.9305 62.3988 "/>
<svg:path d="M150.9305 62.3988 L151.0257 62.4464 "/>
<svg:path d="M151.0257 62.4464 L151.0733 62.5417 "/>
<svg:path d="M151.0733 62.5417 L151.0735 63.0655 "/>
</svg:g><svg:path d="M178.0032 65.6844 L178.0026 63.1676 "/>
<svg:path d="M115.0022 65.7000 L115.0016 63.1832 "/>
<svg:path d="M178.0027 63.7540 L115.0017 63.7696 "/>
<svg:path d="M178.0027 63.7540 L115.0017 63.7696 "/>
<svg:path d="M178.0027 63.7540 L176.8761 63.1678 "/>
<svg:path d="M178.0027 63.7540 L176.8764 64.3407 "/>
<svg:path d="M115.0017 63.7696 L116.1284 64.3557 "/>
<svg:path d="M115.0017 63.7696 L116.1281 63.1829 "/>
</svg:g> 
</svg:g></svg:g><svg:g><svg:g><svg:title>SVG Image created as t1-User_Comments.svg date 2024/10/28 12:47:29 </svg:title>
  <svg:desc>Image generated by PCBNEW </svg:desc>
<svg:g style="fill:#000084; fill-opacity:1.0000;stroke:#000084; stroke-opacity:1.0000; stroke-linecap:round; stroke-linejoin:round;" transform="translate(0 0) scale(1 1)">
</svg:g>
<svg:g style="fill:none;  stroke:#000084; stroke-width:0.1500; stroke-opacity:1;  stroke-linecap:round; stroke-linejoin:round;">
<svg:circle cx="120.0022" cy="97.0000" r="2.7000"/> 
<svg:circle cx="174.0022" cy="97.0000" r="2.7000"/> 
<svg:circle cx="174.0022" cy="69.5000" r="2.7000"/> 
<svg:circle cx="120.0022" cy="69.5000" r="2.7000"/> 
</svg:g> 
</svg:g></svg:g><svg:g><svg:g><svg:title>SVG Image created as t1-frame.svg date 2024/10/28 12:47:29 </svg:title>
  <svg:desc>Image generated by PCBNEW </svg:desc>
<svg:g style="fill:#000000; fill-opacity:1.0000;stroke:#000000; stroke-opacity:1.0000; stroke-linecap:round; stroke-linejoin:round;" transform="translate(0 0) scale(1 1)">
</svg:g>
<svg:g style="fill:none;  stroke:#480000; stroke-width:0.1500; stroke-opacity:1;  stroke-linecap:round; stroke-linejoin:round;">
<svg:path d="M177.0022 166.0072 L285.0022 166.0072 L285.0022 198.0072 L177.0022 198.0072 L177.0022 166.0072 "/>
</svg:g>
<svg:g style="fill:none;  stroke:#480000; stroke-width:0.1500; stroke-opacity:1;  stroke-linecap:round; stroke-linejoin:round;">
<svg:path d="M10.0000 10.0000 L287.0022 10.0000 L287.0022 200.0072 L10.0000 200.0072 L10.0000 10.0000 "/>
</svg:g>
<svg:g style="fill:none;  stroke:#480000; stroke-width:0.1500; stroke-opacity:1;  stroke-linecap:round; stroke-linejoin:round;">
<svg:path d="M12.0000 12.0000 L285.0022 12.0000 L285.0022 198.0072 L12.0000 198.0072 L12.0000 12.0000 "/>
</svg:g>
<svg:g style="fill:none;  stroke:#480000; stroke-width:0.1500; stroke-opacity:1;  stroke-linecap:round; stroke-linejoin:round;">
<svg:path d="M60.0000 12.0000 L60.0000 10.0000 "/>
</svg:g>
<svg:g style="fill:none;  stroke:#480000; stroke-width:0.1500; stroke-opacity:1;  stroke-linecap:round; stroke-linejoin:round;">
<svg:path d="M110.0000 12.0000 L110.0000 10.0000 "/>
</svg:g>
<svg:g style="fill:none;  stroke:#480000; stroke-width:0.1500; stroke-opacity:1;  stroke-linecap:round; stroke-linejoin:round;">
<svg:path d="M160.0000 12.0000 L160.0000 10.0000 "/>
</svg:g>
<svg:g style="fill:none;  stroke:#480000; stroke-width:0.1500; stroke-opacity:1;  stroke-linecap:round; stroke-linejoin:round;">
<svg:path d="M210.0000 12.0000 L210.0000 10.0000 "/>
</svg:g>
<svg:g style="fill:none;  stroke:#480000; stroke-width:0.1500; stroke-opacity:1;  stroke-linecap:round; stroke-linejoin:round;">
<svg:path d="M260.0000 12.0000 L260.0000 10.0000 "/>
</svg:g>
<svg:g style="fill:none;  stroke:#480000; stroke-width:0.1500; stroke-opacity:1;  stroke-linecap:round; stroke-linejoin:round;">
<svg:text x="35.0000" y="11.6500" textLength="1.4281" font-size="1.7333" lengthAdjust="spacingAndGlyphs" text-anchor="start" opacity="0" stroke-opacity="0">1</svg:text>
<svg:g class="stroked-text"><svg:desc>1</svg:desc>
<svg:path d="M36.0892 11.5936 L35.3463 11.5936 "/>
<svg:path d="M35.7177 11.5936 L35.7177 10.2936 "/>
<svg:path d="M35.7177 10.2936 L35.5939 10.4793 "/>
<svg:path d="M35.5939 10.4793 L35.4701 10.6031 "/>
<svg:path d="M35.4701 10.6031 L35.3463 10.6650 "/>
</svg:g></svg:g>
<svg:g style="fill:none;  stroke:#480000; stroke-width:0.1500; stroke-opacity:1;  stroke-linecap:round; stroke-linejoin:round;">
<svg:text x="85.0000" y="11.6500" textLength="1.4281" font-size="1.7333" lengthAdjust="spacingAndGlyphs" text-anchor="start" opacity="0" stroke-opacity="0">2</svg:text>
<svg:g class="stroked-text"><svg:desc>2</svg:desc>
<svg:path d="M85.3463 10.4174 L85.4082 10.3555 "/>
<svg:path d="M85.4082 10.3555 L85.5320 10.2936 "/>
<svg:path d="M85.5320 10.2936 L85.8415 10.2936 "/>
<svg:path d="M85.8415 10.2936 L85.9654 10.3555 "/>
<svg:path d="M85.9654 10.3555 L86.0273 10.4174 "/>
<svg:path d="M86.0273 10.4174 L86.0892 10.5412 "/>
<svg:path d="M86.0892 10.5412 L86.0892 10.6650 "/>
<svg:path d="M86.0892 10.6650 L86.0273 10.8507 "/>
<svg:path d="M86.0273 10.8507 L85.2844 11.5936 "/>
<svg:path d="M85.2844 11.5936 L86.0892 11.5936 "/>
</svg:g></svg:g>
<svg:g style="fill:none;  stroke:#480000; stroke-width:0.1500; stroke-opacity:1;  stroke-linecap:round; stroke-linejoin:round;">
<svg:text x="135.0000" y="11.6500" textLength="1.4281" font-size="1.7333" lengthAdjust="spacingAndGlyphs" text-anchor="start" opacity="0" stroke-opacity="0">3</svg:text>
<svg:g class="stroked-text"><svg:desc>3</svg:desc>
<svg:path d="M135.2844 10.2936 L136.0892 10.2936 "/>
<svg:path d="M136.0892 10.2936 L135.6558 10.7888 "/>
<svg:path d="M135.6558 10.7888 L135.8415 10.7888 "/>
<svg:path d="M135.8415 10.7888 L135.9654 10.8507 "/>
<svg:path d="M135.9654 10.8507 L136.0273 10.9127 "/>
<svg:path d="M136.0273 10.9127 L136.0892 11.0365 "/>
<svg:path d="M136.0892 11.0365 L136.0892 11.3460 "/>
<svg:path d="M136.0892 11.3460 L136.0273 11.4698 "/>
<svg:path d="M136.0273 11.4698 L135.9654 11.5317 "/>
<svg:path d="M135.9654 11.5317 L135.8415 11.5936 "/>
<svg:path d="M135.8415 11.5936 L135.4701 11.5936 "/>
<svg:path d="M135.4701 11.5936 L135.3463 11.5317 "/>
<svg:path d="M135.3463 11.5317 L135.2844 11.4698 "/>
</svg:g></svg:g>
<svg:g style="fill:none;  stroke:#480000; stroke-width:0.1500; stroke-opacity:1;  stroke-linecap:round; stroke-linejoin:round;">
<svg:text x="185.0000" y="11.6500" textLength="1.4281" font-size="1.7333" lengthAdjust="spacingAndGlyphs" text-anchor="start" opacity="0" stroke-opacity="0">4</svg:text>
<svg:g class="stroked-text"><svg:desc>4</svg:desc>
<svg:path d="M185.9654 10.7269 L185.9654 11.5936 "/>
<svg:path d="M185.6558 10.2317 L185.3463 11.1603 "/>
<svg:path d="M185.3463 11.1603 L186.1511 11.1603 "/>
</svg:g></svg:g>
<svg:g style="fill:none;  stroke:#480000; stroke-width:0.1500; stroke-opacity:1;  stroke-linecap:round; stroke-linejoin:round;">
<svg:text x="235.0000" y="11.6500" textLength="1.4281" font-size="1.7333" lengthAdjust="spacingAndGlyphs" text-anchor="start" opacity="0" stroke-opacity="0">5</svg:text>
<svg:g class="stroked-text"><svg:desc>5</svg:desc>
<svg:path d="M236.0273 10.2936 L235.4082 10.2936 "/>
<svg:path d="M235.4082 10.2936 L235.3463 10.9127 "/>
<svg:path d="M235.3463 10.9127 L235.4082 10.8507 "/>
<svg:path d="M235.4082 10.8507 L235.5320 10.7888 "/>
<svg:path d="M235.5320 10.7888 L235.8415 10.7888 "/>
<svg:path d="M235.8415 10.7888 L235.9654 10.8507 "/>
<svg:path d="M235.9654 10.8507 L236.0273 10.9127 "/>
<svg:path d="M236.0273 10.9127 L236.0892 11.0365 "/>
<svg:path d="M236.0892 11.0365 L236.0892 11.3460 "/>
<svg:path d="M236.0892 11.3460 L236.0273 11.4698 "/>
<svg:path d="M236.0273 11.4698 L235.9654 11.5317 "/>
<svg:path d="M235.9654 11.5317 L235.8415 11.5936 "/>
<svg:path d="M235.8415 11.5936 L235.5320 11.5936 "/>
<svg:path d="M235.5320 11.5936 L235.4082 11.5317 "/>
<svg:path d="M235.4082 11.5317 L235.3463 11.4698 "/>
</svg:g></svg:g>
<svg:g style="fill:none;  stroke:#480000; stroke-width:0.1500; stroke-opacity:1;  stroke-linecap:round; stroke-linejoin:round;">
<svg:text x="285.0000" y="11.6500" textLength="1.4281" font-size="1.7333" lengthAdjust="spacingAndGlyphs" text-anchor="start" opacity="0" stroke-opacity="0">6</svg:text>
<svg:g class="stroked-text"><svg:desc>6</svg:desc>
<svg:path d="M285.9654 10.2936 L285.7177 10.2936 "/>
<svg:path d="M285.7177 10.2936 L285.5939 10.3555 "/>
<svg:path d="M285.5939 10.3555 L285.5320 10.4174 "/>
<svg:path d="M285.5320 10.4174 L285.4082 10.6031 "/>
<svg:path d="M285.4082 10.6031 L285.3463 10.8507 "/>
<svg:path d="M285.3463 10.8507 L285.3463 11.3460 "/>
<svg:path d="M285.3463 11.3460 L285.4082 11.4698 "/>
<svg:path d="M285.4082 11.4698 L285.4701 11.5317 "/>
<svg:path d="M285.4701 11.5317 L285.5939 11.5936 "/>
<svg:path d="M285.5939 11.5936 L285.8415 11.5936 "/>
<svg:path d="M285.8415 11.5936 L285.9654 11.5317 "/>
<svg:path d="M285.9654 11.5317 L286.0273 11.4698 "/>
<svg:path d="M286.0273 11.4698 L286.0892 11.3460 "/>
<svg:path d="M286.0892 11.3460 L286.0892 11.0365 "/>
<svg:path d="M286.0892 11.0365 L286.0273 10.9127 "/>
<svg:path d="M286.0273 10.9127 L285.9654 10.8507 "/>
<svg:path d="M285.9654 10.8507 L285.8415 10.7888 "/>
<svg:path d="M285.8415 10.7888 L285.5939 10.7888 "/>
<svg:path d="M285.5939 10.7888 L285.4701 10.8507 "/>
<svg:path d="M285.4701 10.8507 L285.4082 10.9127 "/>
<svg:path d="M285.4082 10.9127 L285.3463 11.0365 "/>
</svg:g></svg:g>
<svg:g style="fill:none;  stroke:#480000; stroke-width:0.1500; stroke-opacity:1;  stroke-linecap:round; stroke-linejoin:round;">
<svg:path d="M60.0000 198.0072 L60.0000 200.0072 "/>
</svg:g>
<svg:g style="fill:none;  stroke:#480000; stroke-width:0.1500; stroke-opacity:1;  stroke-linecap:round; stroke-linejoin:round;">
<svg:path d="M110.0000 198.0072 L110.0000 200.0072 "/>
</svg:g>
<svg:g style="fill:none;  stroke:#480000; stroke-width:0.1500; stroke-opacity:1;  stroke-linecap:round; stroke-linejoin:round;">
<svg:path d="M160.0000 198.0072 L160.0000 200.0072 "/>
</svg:g>
<svg:g style="fill:none;  stroke:#480000; stroke-width:0.1500; stroke-opacity:1;  stroke-linecap:round; stroke-linejoin:round;">
<svg:path d="M210.0000 198.0072 L210.0000 200.0072 "/>
</svg:g>
<svg:g style="fill:none;  stroke:#480000; stroke-width:0.1500; stroke-opacity:1;  stroke-linecap:round; stroke-linejoin:round;">
<svg:path d="M260.0000 198.0072 L260.0000 200.0072 "/>
</svg:g>
<svg:g style="fill:none;  stroke:#480000; stroke-width:0.1500; stroke-opacity:1;  stroke-linecap:round; stroke-linejoin:round;">
<svg:text x="35.0000" y="199.6572" textLength="1.4281" font-size="1.7333" lengthAdjust="spacingAndGlyphs" text-anchor="start" opacity="0" stroke-opacity="0">1</svg:text>
<svg:g class="stroked-text"><svg:desc>1</svg:desc>
<svg:path d="M36.0892 199.6008 L35.3463 199.6008 "/>
<svg:path d="M35.7177 199.6008 L35.7177 198.3008 "/>
<svg:path d="M35.7177 198.3008 L35.5939 198.4865 "/>
<svg:path d="M35.5939 198.4865 L35.4701 198.6103 "/>
<svg:path d="M35.4701 198.6103 L35.3463 198.6722 "/>
</svg:g></svg:g>
<svg:g style="fill:none;  stroke:#480000; stroke-width:0.1500; stroke-opacity:1;  stroke-linecap:round; stroke-linejoin:round;">
<svg:text x="85.0000" y="199.6572" textLength="1.4281" font-size="1.7333" lengthAdjust="spacingAndGlyphs" text-anchor="start" opacity="0" stroke-opacity="0">2</svg:text>
<svg:g class="stroked-text"><svg:desc>2</svg:desc>
<svg:path d="M85.3463 198.4246 L85.4082 198.3627 "/>
<svg:path d="M85.4082 198.3627 L85.5320 198.3008 "/>
<svg:path d="M85.5320 198.3008 L85.8415 198.3008 "/>
<svg:path d="M85.8415 198.3008 L85.9654 198.3627 "/>
<svg:path d="M85.9654 198.3627 L86.0273 198.4246 "/>
<svg:path d="M86.0273 198.4246 L86.0892 198.5484 "/>
<svg:path d="M86.0892 198.5484 L86.0892 198.6722 "/>
<svg:path d="M86.0892 198.6722 L86.0273 198.8579 "/>
<svg:path d="M86.0273 198.8579 L85.2844 199.6008 "/>
<svg:path d="M85.2844 199.6008 L86.0892 199.6008 "/>
</svg:g></svg:g>
<svg:g style="fill:none;  stroke:#480000; stroke-width:0.1500; stroke-opacity:1;  stroke-linecap:round; stroke-linejoin:round;">
<svg:text x="135.0000" y="199.6572" textLength="1.4281" font-size="1.7333" lengthAdjust="spacingAndGlyphs" text-anchor="start" opacity="0" stroke-opacity="0">3</svg:text>
<svg:g class="stroked-text"><svg:desc>3</svg:desc>
<svg:path d="M135.2844 198.3008 L136.0892 198.3008 "/>
<svg:path d="M136.0892 198.3008 L135.6558 198.7960 "/>
<svg:path d="M135.6558 198.7960 L135.8415 198.7960 "/>
<svg:path d="M135.8415 198.7960 L135.9654 198.8579 "/>
<svg:path d="M135.9654 198.8579 L136.0273 198.9199 "/>
<svg:path d="M136.0273 198.9199 L136.0892 199.0437 "/>
<svg:path d="M136.0892 199.0437 L136.0892 199.3532 "/>
<svg:path d="M136.0892 199.3532 L136.0273 199.4770 "/>
<svg:path d="M136.0273 199.4770 L135.9654 199.5389 "/>
<svg:path d="M135.9654 199.5389 L135.8415 199.6008 "/>
<svg:path d="M135.8415 199.6008 L135.4701 199.6008 "/>
<svg:path d="M135.4701 199.6008 L135.3463 199.5389 "/>
<svg:path d="M135.3463 199.5389 L135.2844 199.4770 "/>
</svg:g></svg:g>
<svg:g style="fill:none;  stroke:#480000; stroke-width:0.1500; stroke-opacity:1;  stroke-linecap:round; stroke-linejoin:round;">
<svg:text x="185.0000" y="199.6572" textLength="1.4281" font-size="1.7333" lengthAdjust="spacingAndGlyphs" text-anchor="start" opacity="0" stroke-opacity="0">4</svg:text>
<svg:g class="stroked-text"><svg:desc>4</svg:desc>
<svg:path d="M185.9654 198.7341 L185.9654 199.6008 "/>
<svg:path d="M185.6558 198.2389 L185.3463 199.1675 "/>
<svg:path d="M185.3463 199.1675 L186.1511 199.1675 "/>
</svg:g></svg:g>
<svg:g style="fill:none;  stroke:#480000; stroke-width:0.1500; stroke-opacity:1;  stroke-linecap:round; stroke-linejoin:round;">
<svg:text x="235.0000" y="199.6572" textLength="1.4281" font-size="1.7333" lengthAdjust="spacingAndGlyphs" text-anchor="start" opacity="0" stroke-opacity="0">5</svg:text>
<svg:g class="stroked-text"><svg:desc>5</svg:desc>
<svg:path d="M236.0273 198.3008 L235.4082 198.3008 "/>
<svg:path d="M235.4082 198.3008 L235.3463 198.9199 "/>
<svg:path d="M235.3463 198.9199 L235.4082 198.8579 "/>
<svg:path d="M235.4082 198.8579 L235.5320 198.7960 "/>
<svg:path d="M235.5320 198.7960 L235.8415 198.7960 "/>
<svg:path d="M235.8415 198.7960 L235.9654 198.8579 "/>
<svg:path d="M235.9654 198.8579 L236.0273 198.9199 "/>
<svg:path d="M236.0273 198.9199 L236.0892 199.0437 "/>
<svg:path d="M236.0892 199.0437 L236.0892 199.3532 "/>
<svg:path d="M236.0892 199.3532 L236.0273 199.4770 "/>
<svg:path d="M236.0273 199.4770 L235.9654 199.5389 "/>
<svg:path d="M235.9654 199.5389 L235.8415 199.6008 "/>
<svg:path d="M235.8415 199.6008 L235.5320 199.6008 "/>
<svg:path d="M235.5320 199.6008 L235.4082 199.5389 "/>
<svg:path d="M235.4082 199.5389 L235.3463 199.4770 "/>
</svg:g></svg:g>
<svg:g style="fill:none;  stroke:#480000; stroke-width:0.1500; stroke-opacity:1;  stroke-linecap:round; stroke-linejoin:round;">
<svg:text x="285.0000" y="199.6572" textLength="1.4281" font-size="1.7333" lengthAdjust="spacingAndGlyphs" text-anchor="start" opacity="0" stroke-opacity="0">6</svg:text>
<svg:g class="stroked-text"><svg:desc>6</svg:desc>
<svg:path d="M285.9654 198.3008 L285.7177 198.3008 "/>
<svg:path d="M285.7177 198.3008 L285.5939 198.3627 "/>
<svg:path d="M285.5939 198.3627 L285.5320 198.4246 "/>
<svg:path d="M285.5320 198.4246 L285.4082 198.6103 "/>
<svg:path d="M285.4082 198.6103 L285.3463 198.8579 "/>
<svg:path d="M285.3463 198.8579 L285.3463 199.3532 "/>
<svg:path d="M285.3463 199.3532 L285.4082 199.4770 "/>
<svg:path d="M285.4082 199.4770 L285.4701 199.5389 "/>
<svg:path d="M285.4701 199.5389 L285.5939 199.6008 "/>
<svg:path d="M285.5939 199.6008 L285.8415 199.6008 "/>
<svg:path d="M285.8415 199.6008 L285.9654 199.5389 "/>
<svg:path d="M285.9654 199.5389 L286.0273 199.4770 "/>
<svg:path d="M286.0273 199.4770 L286.0892 199.3532 "/>
<svg:path d="M286.0892 199.3532 L286.0892 199.0437 "/>
<svg:path d="M286.0892 199.0437 L286.0273 198.9199 "/>
<svg:path d="M286.0273 198.9199 L285.9654 198.8579 "/>
<svg:path d="M285.9654 198.8579 L285.8415 198.7960 "/>
<svg:path d="M285.8415 198.7960 L285.5939 198.7960 "/>
<svg:path d="M285.5939 198.7960 L285.4701 198.8579 "/>
<svg:path d="M285.4701 198.8579 L285.4082 198.9199 "/>
<svg:path d="M285.4082 198.9199 L285.3463 199.0437 "/>
</svg:g></svg:g>
<svg:g style="fill:none;  stroke:#480000; stroke-width:0.1500; stroke-opacity:1;  stroke-linecap:round; stroke-linejoin:round;">
<svg:path d="M10.0000 60.0000 L12.0000 60.0000 "/>
</svg:g>
<svg:g style="fill:none;  stroke:#480000; stroke-width:0.1500; stroke-opacity:1;  stroke-linecap:round; stroke-linejoin:round;">
<svg:path d="M10.0000 110.0000 L12.0000 110.0000 "/>
</svg:g>
<svg:g style="fill:none;  stroke:#480000; stroke-width:0.1500; stroke-opacity:1;  stroke-linecap:round; stroke-linejoin:round;">
<svg:path d="M10.0000 160.0000 L12.0000 160.0000 "/>
</svg:g>
<svg:g style="fill:none;  stroke:#480000; stroke-width:0.1500; stroke-opacity:1;  stroke-linecap:round; stroke-linejoin:round;">
<svg:text x="11.0000" y="35.6500" textLength="1.3043" font-size="1.7333" lengthAdjust="spacingAndGlyphs" text-anchor="middle" opacity="0" stroke-opacity="0">A</svg:text>
<svg:g class="stroked-text"><svg:desc>A</svg:desc>
<svg:path d="M10.6905 35.2222 L11.3095 35.2222 "/>
<svg:path d="M10.5667 35.5936 L11.0000 34.2936 "/>
<svg:path d="M11.0000 34.2936 L11.4333 35.5936 "/>
</svg:g></svg:g>
<svg:g style="fill:none;  stroke:#480000; stroke-width:0.1500; stroke-opacity:1;  stroke-linecap:round; stroke-linejoin:round;">
<svg:text x="11.0000" y="85.6500" textLength="1.4900" font-size="1.7333" lengthAdjust="spacingAndGlyphs" text-anchor="middle" opacity="0" stroke-opacity="0">B</svg:text>
<svg:g class="stroked-text"><svg:desc>B</svg:desc>
<svg:path d="M11.0929 84.9127 L11.2786 84.9746 "/>
<svg:path d="M11.2786 84.9746 L11.3405 85.0365 "/>
<svg:path d="M11.3405 85.0365 L11.4024 85.1603 "/>
<svg:path d="M11.4024 85.1603 L11.4024 85.3460 "/>
<svg:path d="M11.4024 85.3460 L11.3405 85.4698 "/>
<svg:path d="M11.3405 85.4698 L11.2786 85.5317 "/>
<svg:path d="M11.2786 85.5317 L11.1548 85.5936 "/>
<svg:path d="M11.1548 85.5936 L10.6595 85.5936 "/>
<svg:path d="M10.6595 85.5936 L10.6595 84.2936 "/>
<svg:path d="M10.6595 84.2936 L11.0929 84.2936 "/>
<svg:path d="M11.0929 84.2936 L11.2167 84.3555 "/>
<svg:path d="M11.2167 84.3555 L11.2786 84.4174 "/>
<svg:path d="M11.2786 84.4174 L11.3405 84.5412 "/>
<svg:path d="M11.3405 84.5412 L11.3405 84.6650 "/>
<svg:path d="M11.3405 84.6650 L11.2786 84.7888 "/>
<svg:path d="M11.2786 84.7888 L11.2167 84.8507 "/>
<svg:path d="M11.2167 84.8507 L11.0929 84.9127 "/>
<svg:path d="M11.0929 84.9127 L10.6595 84.9127 "/>
</svg:g></svg:g>
<svg:g style="fill:none;  stroke:#480000; stroke-width:0.1500; stroke-opacity:1;  stroke-linecap:round; stroke-linejoin:round;">
<svg:text x="11.0000" y="135.6500" textLength="1.4900" font-size="1.7333" lengthAdjust="spacingAndGlyphs" text-anchor="middle" opacity="0" stroke-opacity="0">C</svg:text>
<svg:g class="stroked-text"><svg:desc>C</svg:desc>
<svg:path d="M11.4024 135.4698 L11.3405 135.5317 "/>
<svg:path d="M11.3405 135.5317 L11.1548 135.5936 "/>
<svg:path d="M11.1548 135.5936 L11.0310 135.5936 "/>
<svg:path d="M11.0310 135.5936 L10.8452 135.5317 "/>
<svg:path d="M10.8452 135.5317 L10.7214 135.4079 "/>
<svg:path d="M10.7214 135.4079 L10.6595 135.2841 "/>
<svg:path d="M10.6595 135.2841 L10.5976 135.0365 "/>
<svg:path d="M10.5976 135.0365 L10.5976 134.8507 "/>
<svg:path d="M10.5976 134.8507 L10.6595 134.6031 "/>
<svg:path d="M10.6595 134.6031 L10.7214 134.4793 "/>
<svg:path d="M10.7214 134.4793 L10.8452 134.3555 "/>
<svg:path d="M10.8452 134.3555 L11.0310 134.2936 "/>
<svg:path d="M11.0310 134.2936 L11.1548 134.2936 "/>
<svg:path d="M11.1548 134.2936 L11.3405 134.3555 "/>
<svg:path d="M11.3405 134.3555 L11.4024 134.4174 "/>
</svg:g></svg:g>
<svg:g style="fill:none;  stroke:#480000; stroke-width:0.1500; stroke-opacity:1;  stroke-linecap:round; stroke-linejoin:round;">
<svg:text x="11.0000" y="185.6500" textLength="1.4900" font-size="1.7333" lengthAdjust="spacingAndGlyphs" text-anchor="middle" opacity="0" stroke-opacity="0">D</svg:text>
<svg:g class="stroked-text"><svg:desc>D</svg:desc>
<svg:path d="M10.6595 185.5936 L10.6595 184.2936 "/>
<svg:path d="M10.6595 184.2936 L10.9690 184.2936 "/>
<svg:path d="M10.9690 184.2936 L11.1548 184.3555 "/>
<svg:path d="M11.1548 184.3555 L11.2786 184.4793 "/>
<svg:path d="M11.2786 184.4793 L11.3405 184.6031 "/>
<svg:path d="M11.3405 184.6031 L11.4024 184.8507 "/>
<svg:path d="M11.4024 184.8507 L11.4024 185.0365 "/>
<svg:path d="M11.4024 185.0365 L11.3405 185.2841 "/>
<svg:path d="M11.3405 185.2841 L11.2786 185.4079 "/>
<svg:path d="M11.2786 185.4079 L11.1548 185.5317 "/>
<svg:path d="M11.1548 185.5317 L10.9690 185.5936 "/>
<svg:path d="M10.9690 185.5936 L10.6595 185.5936 "/>
</svg:g></svg:g>
<svg:g style="fill:none;  stroke:#480000; stroke-width:0.1500; stroke-opacity:1;  stroke-linecap:round; stroke-linejoin:round;">
<svg:path d="M287.0022 60.0000 L285.0022 60.0000 "/>
</svg:g>
<svg:g style="fill:none;  stroke:#480000; stroke-width:0.1500; stroke-opacity:1;  stroke-linecap:round; stroke-linejoin:round;">
<svg:path d="M287.0022 110.0000 L285.0022 110.0000 "/>
</svg:g>
<svg:g style="fill:none;  stroke:#480000; stroke-width:0.1500; stroke-opacity:1;  stroke-linecap:round; stroke-linejoin:round;">
<svg:path d="M287.0022 160.0000 L285.0022 160.0000 "/>
</svg:g>
<svg:g style="fill:none;  stroke:#480000; stroke-width:0.1500; stroke-opacity:1;  stroke-linecap:round; stroke-linejoin:round;">
<svg:text x="286.0022" y="35.6500" textLength="1.3043" font-size="1.7333" lengthAdjust="spacingAndGlyphs" text-anchor="middle" opacity="0" stroke-opacity="0">A</svg:text>
<svg:g class="stroked-text"><svg:desc>A</svg:desc>
<svg:path d="M285.6927 35.2222 L286.3117 35.2222 "/>
<svg:path d="M285.5689 35.5936 L286.0022 34.2936 "/>
<svg:path d="M286.0022 34.2936 L286.4355 35.5936 "/>
</svg:g></svg:g>
<svg:g style="fill:none;  stroke:#480000; stroke-width:0.1500; stroke-opacity:1;  stroke-linecap:round; stroke-linejoin:round;">
<svg:text x="286.0022" y="85.6500" textLength="1.4900" font-size="1.7333" lengthAdjust="spacingAndGlyphs" text-anchor="middle" opacity="0" stroke-opacity="0">B</svg:text>
<svg:g class="stroked-text"><svg:desc>B</svg:desc>
<svg:path d="M286.0951 84.9127 L286.2808 84.9746 "/>
<svg:path d="M286.2808 84.9746 L286.3427 85.0365 "/>
<svg:path d="M286.3427 85.0365 L286.4046 85.1603 "/>
<svg:path d="M286.4046 85.1603 L286.4046 85.3460 "/>
<svg:path d="M286.4046 85.3460 L286.3427 85.4698 "/>
<svg:path d="M286.3427 85.4698 L286.2808 85.5317 "/>
<svg:path d="M286.2808 85.5317 L286.1570 85.5936 "/>
<svg:path d="M286.1570 85.5936 L285.6617 85.5936 "/>
<svg:path d="M285.6617 85.5936 L285.6617 84.2936 "/>
<svg:path d="M285.6617 84.2936 L286.0951 84.2936 "/>
<svg:path d="M286.0951 84.2936 L286.2189 84.3555 "/>
<svg:path d="M286.2189 84.3555 L286.2808 84.4174 "/>
<svg:path d="M286.2808 84.4174 L286.3427 84.5412 "/>
<svg:path d="M286.3427 84.5412 L286.3427 84.6650 "/>
<svg:path d="M286.3427 84.6650 L286.2808 84.7888 "/>
<svg:path d="M286.2808 84.7888 L286.2189 84.8507 "/>
<svg:path d="M286.2189 84.8507 L286.0951 84.9127 "/>
<svg:path d="M286.0951 84.9127 L285.6617 84.9127 "/>
</svg:g></svg:g>
<svg:g style="fill:none;  stroke:#480000; stroke-width:0.1500; stroke-opacity:1;  stroke-linecap:round; stroke-linejoin:round;">
<svg:text x="286.0022" y="135.6500" textLength="1.4900" font-size="1.7333" lengthAdjust="spacingAndGlyphs" text-anchor="middle" opacity="0" stroke-opacity="0">C</svg:text>
<svg:g class="stroked-text"><svg:desc>C</svg:desc>
<svg:path d="M286.4046 135.4698 L286.3427 135.5317 "/>
<svg:path d="M286.3427 135.5317 L286.1570 135.5936 "/>
<svg:path d="M286.1570 135.5936 L286.0332 135.5936 "/>
<svg:path d="M286.0332 135.5936 L285.8474 135.5317 "/>
<svg:path d="M285.8474 135.5317 L285.7236 135.4079 "/>
<svg:path d="M285.7236 135.4079 L285.6617 135.2841 "/>
<svg:path d="M285.6617 135.2841 L285.5998 135.0365 "/>
<svg:path d="M285.5998 135.0365 L285.5998 134.8507 "/>
<svg:path d="M285.5998 134.8507 L285.6617 134.6031 "/>
<svg:path d="M285.6617 134.6031 L285.7236 134.4793 "/>
<svg:path d="M285.7236 134.4793 L285.8474 134.3555 "/>
<svg:path d="M285.8474 134.3555 L286.0332 134.2936 "/>
<svg:path d="M286.0332 134.2936 L286.1570 134.2936 "/>
<svg:path d="M286.1570 134.2936 L286.3427 134.3555 "/>
<svg:path d="M286.3427 134.3555 L286.4046 134.4174 "/>
</svg:g></svg:g>
<svg:g style="fill:none;  stroke:#480000; stroke-width:0.1500; stroke-opacity:1;  stroke-linecap:round; stroke-linejoin:round;">
<svg:text x="286.0022" y="185.6500" textLength="1.4900" font-size="1.7333" lengthAdjust="spacingAndGlyphs" text-anchor="middle" opacity="0" stroke-opacity="0">D</svg:text>
<svg:g class="stroked-text"><svg:desc>D</svg:desc>
<svg:path d="M285.6617 185.5936 L285.6617 184.2936 "/>
<svg:path d="M285.6617 184.2936 L285.9712 184.2936 "/>
<svg:path d="M285.9712 184.2936 L286.1570 184.3555 "/>
<svg:path d="M286.1570 184.3555 L286.2808 184.4793 "/>
<svg:path d="M286.2808 184.4793 L286.3427 184.6031 "/>
<svg:path d="M286.3427 184.6031 L286.4046 184.8507 "/>
<svg:path d="M286.4046 184.8507 L286.4046 185.0365 "/>
<svg:path d="M286.4046 185.0365 L286.3427 185.2841 "/>
<svg:path d="M286.3427 185.2841 L286.2808 185.4079 "/>
<svg:path d="M286.2808 185.4079 L286.1570 185.5317 "/>
<svg:path d="M286.1570 185.5317 L285.9712 185.5936 "/>
<svg:path d="M285.9712 185.5936 L285.6617 185.5936 "/>
</svg:g></svg:g>
<svg:g style="fill:none;  stroke:#480000; stroke-width:0.1500; stroke-opacity:1;  stroke-linecap:round; stroke-linejoin:round;">
<svg:text x="200.0022" y="193.8572" textLength="7.0071" font-size="2.0000" lengthAdjust="spacingAndGlyphs" text-anchor="start" opacity="0" stroke-opacity="0">Date: </svg:text>
<svg:g class="stroked-text"><svg:desc>Date: </svg:desc>
<svg:path d="M200.4580 193.7933 L200.4580 192.2933 "/>
<svg:path d="M200.4580 192.2933 L200.8152 192.2933 "/>
<svg:path d="M200.8152 192.2933 L201.0295 192.3648 "/>
<svg:path d="M201.0295 192.3648 L201.1723 192.5076 "/>
<svg:path d="M201.1723 192.5076 L201.2437 192.6505 "/>
<svg:path d="M201.2437 192.6505 L201.3152 192.9362 "/>
<svg:path d="M201.3152 192.9362 L201.3152 193.1505 "/>
<svg:path d="M201.3152 193.1505 L201.2437 193.4362 "/>
<svg:path d="M201.2437 193.4362 L201.1723 193.5790 "/>
<svg:path d="M201.1723 193.5790 L201.0295 193.7219 "/>
<svg:path d="M201.0295 193.7219 L200.8152 193.7933 "/>
<svg:path d="M200.8152 193.7933 L200.4580 193.7933 "/>
<svg:path d="M202.6009 193.7933 L202.6009 193.0076 "/>
<svg:path d="M202.6009 193.0076 L202.5295 192.8648 "/>
<svg:path d="M202.5295 192.8648 L202.3866 192.7933 "/>
<svg:path d="M202.3866 192.7933 L202.1009 192.7933 "/>
<svg:path d="M202.1009 192.7933 L201.9580 192.8648 "/>
<svg:path d="M202.6009 193.7219 L202.4580 193.7933 "/>
<svg:path d="M202.4580 193.7933 L202.1009 193.7933 "/>
<svg:path d="M202.1009 193.7933 L201.9580 193.7219 "/>
<svg:path d="M201.9580 193.7219 L201.8866 193.5790 "/>
<svg:path d="M201.8866 193.5790 L201.8866 193.4362 "/>
<svg:path d="M201.8866 193.4362 L201.9580 193.2933 "/>
<svg:path d="M201.9580 193.2933 L202.1009 193.2219 "/>
<svg:path d="M202.1009 193.2219 L202.4580 193.2219 "/>
<svg:path d="M202.4580 193.2219 L202.6009 193.1505 "/>
<svg:path d="M203.1009 192.7933 L203.6723 192.7933 "/>
<svg:path d="M203.3152 192.2933 L203.3152 193.5790 "/>
<svg:path d="M203.3152 193.5790 L203.3866 193.7219 "/>
<svg:path d="M203.3866 193.7219 L203.5295 193.7933 "/>
<svg:path d="M203.5295 193.7933 L203.6723 193.7933 "/>
<svg:path d="M204.7437 193.7219 L204.6009 193.7933 "/>
<svg:path d="M204.6009 193.7933 L204.3152 193.7933 "/>
<svg:path d="M204.3152 193.7933 L204.1723 193.7219 "/>
<svg:path d="M204.1723 193.7219 L204.1009 193.5790 "/>
<svg:path d="M204.1009 193.5790 L204.1009 193.0076 "/>
<svg:path d="M204.1009 193.0076 L204.1723 192.8648 "/>
<svg:path d="M204.1723 192.8648 L204.3152 192.7933 "/>
<svg:path d="M204.3152 192.7933 L204.6009 192.7933 "/>
<svg:path d="M204.6009 192.7933 L204.7437 192.8648 "/>
<svg:path d="M204.7437 192.8648 L204.8152 193.0076 "/>
<svg:path d="M204.8152 193.0076 L204.8152 193.1505 "/>
<svg:path d="M204.8152 193.1505 L204.1009 193.2933 "/>
<svg:path d="M205.4580 193.6505 L205.5295 193.7219 "/>
<svg:path d="M205.5295 193.7219 L205.4580 193.7933 "/>
<svg:path d="M205.4580 193.7933 L205.3866 193.7219 "/>
<svg:path d="M205.3866 193.7219 L205.4580 193.6505 "/>
<svg:path d="M205.4580 193.6505 L205.4580 193.7933 "/>
<svg:path d="M205.4580 192.8648 L205.5295 192.9362 "/>
<svg:path d="M205.5295 192.9362 L205.4580 193.0076 "/>
<svg:path d="M205.4580 193.0076 L205.3866 192.9362 "/>
<svg:path d="M205.3866 192.9362 L205.4580 192.8648 "/>
<svg:path d="M205.4580 192.8648 L205.4580 193.0076 "/>
</svg:g></svg:g>
<svg:g style="fill:none;  stroke:#480000; stroke-width:0.1500; stroke-opacity:1;  stroke-linecap:round; stroke-linejoin:round;">
<svg:path d="M177.0022 194.5072 L285.0022 194.5072 "/>
</svg:g>
<svg:g style="fill:none;  stroke:#480000; stroke-width:0.1500; stroke-opacity:1;  stroke-linecap:round; stroke-linejoin:round;">
<svg:text x="178.0022" y="196.6572" textLength="20.6500" font-size="2.0000" lengthAdjust="spacingAndGlyphs" text-anchor="start" opacity="0" stroke-opacity="0">${KICAD_VERSION}</svg:text>
<svg:g class="stroked-text"><svg:desc>${KICAD_VERSION}</svg:desc>
<svg:path d="M178.3866 196.5219 L178.6009 196.5933 "/>
<svg:path d="M178.6009 196.5933 L178.9580 196.5933 "/>
<svg:path d="M178.9580 196.5933 L179.1009 196.5219 "/>
<svg:path d="M179.1009 196.5219 L179.1723 196.4505 "/>
<svg:path d="M179.1723 196.4505 L179.2437 196.3076 "/>
<svg:path d="M179.2437 196.3076 L179.2437 196.1648 "/>
<svg:path d="M179.2437 196.1648 L179.1723 196.0219 "/>
<svg:path d="M179.1723 196.0219 L179.1009 195.9505 "/>
<svg:path d="M179.1009 195.9505 L178.9580 195.8790 "/>
<svg:path d="M178.9580 195.8790 L178.6723 195.8076 "/>
<svg:path d="M178.6723 195.8076 L178.5295 195.7362 "/>
<svg:path d="M178.5295 195.7362 L178.4580 195.6648 "/>
<svg:path d="M178.4580 195.6648 L178.3866 195.5219 "/>
<svg:path d="M178.3866 195.5219 L178.3866 195.3790 "/>
<svg:path d="M178.3866 195.3790 L178.4580 195.2362 "/>
<svg:path d="M178.4580 195.2362 L178.5295 195.1648 "/>
<svg:path d="M178.5295 195.1648 L178.6723 195.0933 "/>
<svg:path d="M178.6723 195.0933 L179.0295 195.0933 "/>
<svg:path d="M179.0295 195.0933 L179.2437 195.1648 "/>
<svg:path d="M178.8152 194.8790 L178.8152 196.8076 "/>
<svg:path d="M180.3152 197.1648 L180.2437 197.1648 "/>
<svg:path d="M180.2437 197.1648 L180.1009 197.0933 "/>
<svg:path d="M180.1009 197.0933 L180.0295 196.9505 "/>
<svg:path d="M180.0295 196.9505 L180.0295 196.2362 "/>
<svg:path d="M180.0295 196.2362 L179.9580 196.0933 "/>
<svg:path d="M179.9580 196.0933 L179.8152 196.0219 "/>
<svg:path d="M179.8152 196.0219 L179.9580 195.9505 "/>
<svg:path d="M179.9580 195.9505 L180.0295 195.8076 "/>
<svg:path d="M180.0295 195.8076 L180.0295 195.0933 "/>
<svg:path d="M180.0295 195.0933 L180.1009 194.9505 "/>
<svg:path d="M180.1009 194.9505 L180.2437 194.8790 "/>
<svg:path d="M180.2437 194.8790 L180.3152 194.8790 "/>
<svg:path d="M180.8866 196.5933 L180.8866 195.0933 "/>
<svg:path d="M181.7437 196.5933 L181.1009 195.7362 "/>
<svg:path d="M181.7437 195.0933 L180.8866 195.9505 "/>
<svg:path d="M182.3866 196.5933 L182.3866 195.0933 "/>
<svg:path d="M183.9580 196.4505 L183.8866 196.5219 "/>
<svg:path d="M183.8866 196.5219 L183.6723 196.5933 "/>
<svg:path d="M183.6723 196.5933 L183.5295 196.5933 "/>
<svg:path d="M183.5295 196.5933 L183.3152 196.5219 "/>
<svg:path d="M183.3152 196.5219 L183.1723 196.3790 "/>
<svg:path d="M183.1723 196.3790 L183.1009 196.2362 "/>
<svg:path d="M183.1009 196.2362 L183.0295 195.9505 "/>
<svg:path d="M183.0295 195.9505 L183.0295 195.7362 "/>
<svg:path d="M183.0295 195.7362 L183.1009 195.4505 "/>
<svg:path d="M183.1009 195.4505 L183.1723 195.3076 "/>
<svg:path d="M183.1723 195.3076 L183.3152 195.1648 "/>
<svg:path d="M183.3152 195.1648 L183.5295 195.0933 "/>
<svg:path d="M183.5295 195.0933 L183.6723 195.0933 "/>
<svg:path d="M183.6723 195.0933 L183.8866 195.1648 "/>
<svg:path d="M183.8866 195.1648 L183.9580 195.2362 "/>
<svg:path d="M184.5295 196.1648 L185.2437 196.1648 "/>
<svg:path d="M184.3866 196.5933 L184.8866 195.0933 "/>
<svg:path d="M184.8866 195.0933 L185.3866 196.5933 "/>
<svg:path d="M185.8866 196.5933 L185.8866 195.0933 "/>
<svg:path d="M185.8866 195.0933 L186.2437 195.0933 "/>
<svg:path d="M186.2437 195.0933 L186.4580 195.1648 "/>
<svg:path d="M186.4580 195.1648 L186.6009 195.3076 "/>
<svg:path d="M186.6009 195.3076 L186.6723 195.4505 "/>
<svg:path d="M186.6723 195.4505 L186.7437 195.7362 "/>
<svg:path d="M186.7437 195.7362 L186.7437 195.9505 "/>
<svg:path d="M186.7437 195.9505 L186.6723 196.2362 "/>
<svg:path d="M186.6723 196.2362 L186.6009 196.3790 "/>
<svg:path d="M186.6009 196.3790 L186.4580 196.5219 "/>
<svg:path d="M186.4580 196.5219 L186.2437 196.5933 "/>
<svg:path d="M186.2437 196.5933 L185.8866 196.5933 "/>
<svg:path d="M187.0295 196.7362 L188.1723 196.7362 "/>
<svg:path d="M188.3152 195.0933 L188.8152 196.5933 "/>
<svg:path d="M188.8152 196.5933 L189.3152 195.0933 "/>
<svg:path d="M189.8152 195.8076 L190.3152 195.8076 "/>
<svg:path d="M190.5295 196.5933 L189.8152 196.5933 "/>
<svg:path d="M189.8152 196.5933 L189.8152 195.0933 "/>
<svg:path d="M189.8152 195.0933 L190.5295 195.0933 "/>
<svg:path d="M192.0295 196.5933 L191.5295 195.8790 "/>
<svg:path d="M191.1723 196.5933 L191.1723 195.0933 "/>
<svg:path d="M191.1723 195.0933 L191.7437 195.0933 "/>
<svg:path d="M191.7437 195.0933 L191.8866 195.1648 "/>
<svg:path d="M191.8866 195.1648 L191.9580 195.2362 "/>
<svg:path d="M191.9580 195.2362 L192.0295 195.3790 "/>
<svg:path d="M192.0295 195.3790 L192.0295 195.5933 "/>
<svg:path d="M192.0295 195.5933 L191.9580 195.7362 "/>
<svg:path d="M191.9580 195.7362 L191.8866 195.8076 "/>
<svg:path d="M191.8866 195.8076 L191.7437 195.8790 "/>
<svg:path d="M191.7437 195.8790 L191.1723 195.8790 "/>
<svg:path d="M192.6009 196.5219 L192.8152 196.5933 "/>
<svg:path d="M192.8152 196.5933 L193.1723 196.5933 "/>
<svg:path d="M193.1723 196.5933 L193.3152 196.5219 "/>
<svg:path d="M193.3152 196.5219 L193.3866 196.4505 "/>
<svg:path d="M193.3866 196.4505 L193.4580 196.3076 "/>
<svg:path d="M193.4580 196.3076 L193.4580 196.1648 "/>
<svg:path d="M193.4580 196.1648 L193.3866 196.0219 "/>
<svg:path d="M193.3866 196.0219 L193.3152 195.9505 "/>
<svg:path d="M193.3152 195.9505 L193.1723 195.8790 "/>
<svg:path d="M193.1723 195.8790 L192.8866 195.8076 "/>
<svg:path d="M192.8866 195.8076 L192.7437 195.7362 "/>
<svg:path d="M192.7437 195.7362 L192.6723 195.6648 "/>
<svg:path d="M192.6723 195.6648 L192.6009 195.5219 "/>
<svg:path d="M192.6009 195.5219 L192.6009 195.3790 "/>
<svg:path d="M192.6009 195.3790 L192.6723 195.2362 "/>
<svg:path d="M192.6723 195.2362 L192.7437 195.1648 "/>
<svg:path d="M192.7437 195.1648 L192.8866 195.0933 "/>
<svg:path d="M192.8866 195.0933 L193.2437 195.0933 "/>
<svg:path d="M193.2437 195.0933 L193.4580 195.1648 "/>
<svg:path d="M194.1009 196.5933 L194.1009 195.0933 "/>
<svg:path d="M195.1009 195.0933 L195.3866 195.0933 "/>
<svg:path d="M195.3866 195.0933 L195.5295 195.1648 "/>
<svg:path d="M195.5295 195.1648 L195.6723 195.3076 "/>
<svg:path d="M195.6723 195.3076 L195.7437 195.5933 "/>
<svg:path d="M195.7437 195.5933 L195.7437 196.0933 "/>
<svg:path d="M195.7437 196.0933 L195.6723 196.3790 "/>
<svg:path d="M195.6723 196.3790 L195.5295 196.5219 "/>
<svg:path d="M195.5295 196.5219 L195.3866 196.5933 "/>
<svg:path d="M195.3866 196.5933 L195.1009 196.5933 "/>
<svg:path d="M195.1009 196.5933 L194.9580 196.5219 "/>
<svg:path d="M194.9580 196.5219 L194.8152 196.3790 "/>
<svg:path d="M194.8152 196.3790 L194.7437 196.0933 "/>
<svg:path d="M194.7437 196.0933 L194.7437 195.5933 "/>
<svg:path d="M194.7437 195.5933 L194.8152 195.3076 "/>
<svg:path d="M194.8152 195.3076 L194.9580 195.1648 "/>
<svg:path d="M194.9580 195.1648 L195.1009 195.0933 "/>
<svg:path d="M196.3866 196.5933 L196.3866 195.0933 "/>
<svg:path d="M196.3866 195.0933 L197.2437 196.5933 "/>
<svg:path d="M197.2437 196.5933 L197.2437 195.0933 "/>
<svg:path d="M197.8152 197.1648 L197.8866 197.1648 "/>
<svg:path d="M197.8866 197.1648 L198.0295 197.0933 "/>
<svg:path d="M198.0295 197.0933 L198.1009 196.9505 "/>
<svg:path d="M198.1009 196.9505 L198.1009 196.2362 "/>
<svg:path d="M198.1009 196.2362 L198.1723 196.0933 "/>
<svg:path d="M198.1723 196.0933 L198.3152 196.0219 "/>
<svg:path d="M198.3152 196.0219 L198.1723 195.9505 "/>
<svg:path d="M198.1723 195.9505 L198.1009 195.8076 "/>
<svg:path d="M198.1009 195.8076 L198.1009 195.0933 "/>
<svg:path d="M198.1009 195.0933 L198.0295 194.9505 "/>
<svg:path d="M198.0295 194.9505 L197.8866 194.8790 "/>
<svg:path d="M197.8866 194.8790 L197.8152 194.8790 "/>
</svg:g></svg:g>
<svg:g style="fill:none;  stroke:#480000; stroke-width:0.1500; stroke-opacity:1;  stroke-linecap:round; stroke-linejoin:round;">
<svg:path d="M177.0022 191.5072 L285.0022 191.5072 "/>
</svg:g>
<svg:g style="fill:none;  stroke:#480000; stroke-width:0.3000; stroke-opacity:1;  stroke-linecap:round; stroke-linejoin:round;">
<svg:text x="263.0022" y="193.8572" textLength="6.3857" font-size="2.0000" lengthAdjust="spacingAndGlyphs" text-anchor="start" opacity="0" stroke-opacity="0">Rev: </svg:text>
<svg:g class="stroked-text"><svg:desc>Rev: </svg:desc>
<svg:path d="M264.4139 193.7855 L263.9139 193.0712 "/>
<svg:path d="M263.5567 193.7855 L263.5567 192.2855 "/>
<svg:path d="M263.5567 192.2855 L264.1281 192.2855 "/>
<svg:path d="M264.1281 192.2855 L264.2710 192.3570 "/>
<svg:path d="M264.2710 192.3570 L264.3424 192.4284 "/>
<svg:path d="M264.3424 192.4284 L264.4139 192.5712 "/>
<svg:path d="M264.4139 192.5712 L264.4139 192.7855 "/>
<svg:path d="M264.4139 192.7855 L264.3424 192.9284 "/>
<svg:path d="M264.3424 192.9284 L264.2710 192.9998 "/>
<svg:path d="M264.2710 192.9998 L264.1281 193.0712 "/>
<svg:path d="M264.1281 193.0712 L263.5567 193.0712 "/>
<svg:path d="M265.6281 193.7141 L265.4853 193.7855 "/>
<svg:path d="M265.4853 193.7855 L265.1996 193.7855 "/>
<svg:path d="M265.1996 193.7855 L265.0567 193.7141 "/>
<svg:path d="M265.0567 193.7141 L264.9853 193.5712 "/>
<svg:path d="M264.9853 193.5712 L264.9853 192.9998 "/>
<svg:path d="M264.9853 192.9998 L265.0567 192.8570 "/>
<svg:path d="M265.0567 192.8570 L265.1996 192.7855 "/>
<svg:path d="M265.1996 192.7855 L265.4853 192.7855 "/>
<svg:path d="M265.4853 192.7855 L265.6281 192.8570 "/>
<svg:path d="M265.6281 192.8570 L265.6996 192.9998 "/>
<svg:path d="M265.6996 192.9998 L265.6996 193.1427 "/>
<svg:path d="M265.6996 193.1427 L264.9853 193.2855 "/>
<svg:path d="M266.1996 192.7855 L266.5567 193.7855 "/>
<svg:path d="M266.5567 193.7855 L266.9139 192.7855 "/>
<svg:path d="M267.4853 193.6427 L267.5567 193.7141 "/>
<svg:path d="M267.5567 193.7141 L267.4853 193.7855 "/>
<svg:path d="M267.4853 193.7855 L267.4139 193.7141 "/>
<svg:path d="M267.4139 193.7141 L267.4853 193.6427 "/>
<svg:path d="M267.4853 193.6427 L267.4853 193.7855 "/>
<svg:path d="M267.4853 192.8570 L267.5567 192.9284 "/>
<svg:path d="M267.5567 192.9284 L267.4853 192.9998 "/>
<svg:path d="M267.4853 192.9998 L267.4139 192.9284 "/>
<svg:path d="M267.4139 192.9284 L267.4853 192.8570 "/>
<svg:path d="M267.4853 192.8570 L267.4853 192.9998 "/>
</svg:g></svg:g>
<svg:g style="fill:none;  stroke:#480000; stroke-width:0.1500; stroke-opacity:1;  stroke-linecap:round; stroke-linejoin:round;">
<svg:text x="178.0022" y="193.8572" textLength="9.3643" font-size="2.0000" lengthAdjust="spacingAndGlyphs" text-anchor="start" opacity="0" stroke-opacity="0">Size: A4</svg:text>
<svg:g class="stroked-text"><svg:desc>Size: A4</svg:desc>
<svg:path d="M178.3866 193.7219 L178.6009 193.7933 "/>
<svg:path d="M178.6009 193.7933 L178.9580 193.7933 "/>
<svg:path d="M178.9580 193.7933 L179.1009 193.7219 "/>
<svg:path d="M179.1009 193.7219 L179.1723 193.6505 "/>
<svg:path d="M179.1723 193.6505 L179.2437 193.5076 "/>
<svg:path d="M179.2437 193.5076 L179.2437 193.3648 "/>
<svg:path d="M179.2437 193.3648 L179.1723 193.2219 "/>
<svg:path d="M179.1723 193.2219 L179.1009 193.1505 "/>
<svg:path d="M179.1009 193.1505 L178.9580 193.0790 "/>
<svg:path d="M178.9580 193.0790 L178.6723 193.0076 "/>
<svg:path d="M178.6723 193.0076 L178.5295 192.9362 "/>
<svg:path d="M178.5295 192.9362 L178.4580 192.8648 "/>
<svg:path d="M178.4580 192.8648 L178.3866 192.7219 "/>
<svg:path d="M178.3866 192.7219 L178.3866 192.5790 "/>
<svg:path d="M178.3866 192.5790 L178.4580 192.4362 "/>
<svg:path d="M178.4580 192.4362 L178.5295 192.3648 "/>
<svg:path d="M178.5295 192.3648 L178.6723 192.2933 "/>
<svg:path d="M178.6723 192.2933 L179.0295 192.2933 "/>
<svg:path d="M179.0295 192.2933 L179.2437 192.3648 "/>
<svg:path d="M179.8866 193.7933 L179.8866 192.7933 "/>
<svg:path d="M179.8866 192.2933 L179.8152 192.3648 "/>
<svg:path d="M179.8152 192.3648 L179.8866 192.4362 "/>
<svg:path d="M179.8866 192.4362 L179.9580 192.3648 "/>
<svg:path d="M179.9580 192.3648 L179.8866 192.2933 "/>
<svg:path d="M179.8866 192.2933 L179.8866 192.4362 "/>
<svg:path d="M180.4580 192.7933 L181.2437 192.7933 "/>
<svg:path d="M181.2437 192.7933 L180.4580 193.7933 "/>
<svg:path d="M180.4580 193.7933 L181.2437 193.7933 "/>
<svg:path d="M182.3866 193.7219 L182.2437 193.7933 "/>
<svg:path d="M182.2437 193.7933 L181.9580 193.7933 "/>
<svg:path d="M181.9580 193.7933 L181.8152 193.7219 "/>
<svg:path d="M181.8152 193.7219 L181.7437 193.5790 "/>
<svg:path d="M181.7437 193.5790 L181.7437 193.0076 "/>
<svg:path d="M181.7437 193.0076 L181.8152 192.8648 "/>
<svg:path d="M181.8152 192.8648 L181.9580 192.7933 "/>
<svg:path d="M181.9580 192.7933 L182.2437 192.7933 "/>
<svg:path d="M182.2437 192.7933 L182.3866 192.8648 "/>
<svg:path d="M182.3866 192.8648 L182.4580 193.0076 "/>
<svg:path d="M182.4580 193.0076 L182.4580 193.1505 "/>
<svg:path d="M182.4580 193.1505 L181.7437 193.2933 "/>
<svg:path d="M183.1009 193.6505 L183.1723 193.7219 "/>
<svg:path d="M183.1723 193.7219 L183.1009 193.7933 "/>
<svg:path d="M183.1009 193.7933 L183.0295 193.7219 "/>
<svg:path d="M183.0295 193.7219 L183.1009 193.6505 "/>
<svg:path d="M183.1009 193.6505 L183.1009 193.7933 "/>
<svg:path d="M183.1009 192.8648 L183.1723 192.9362 "/>
<svg:path d="M183.1723 192.9362 L183.1009 193.0076 "/>
<svg:path d="M183.1009 193.0076 L183.0295 192.9362 "/>
<svg:path d="M183.0295 192.9362 L183.1009 192.8648 "/>
<svg:path d="M183.1009 192.8648 L183.1009 193.0076 "/>
<svg:path d="M184.8866 193.3648 L185.6009 193.3648 "/>
<svg:path d="M184.7437 193.7933 L185.2437 192.2933 "/>
<svg:path d="M185.2437 192.2933 L185.7437 193.7933 "/>
<svg:path d="M186.8866 192.7933 L186.8866 193.7933 "/>
<svg:path d="M186.5295 192.2219 L186.1723 193.2933 "/>
<svg:path d="M186.1723 193.2933 L187.1009 193.2933 "/>
</svg:g></svg:g>
<svg:g style="fill:none;  stroke:#480000; stroke-width:0.1500; stroke-opacity:1;  stroke-linecap:round; stroke-linejoin:round;">
<svg:text x="263.0022" y="196.6572" textLength="8.5071" font-size="2.0000" lengthAdjust="spacingAndGlyphs" text-anchor="start" opacity="0" stroke-opacity="0">Id: 1/1</svg:text>
<svg:g class="stroked-text"><svg:desc>Id: 1/1</svg:desc>
<svg:path d="M263.4580 196.5933 L263.4580 195.0933 "/>
<svg:path d="M264.8152 196.5933 L264.8152 195.0933 "/>
<svg:path d="M264.8152 196.5219 L264.6723 196.5933 "/>
<svg:path d="M264.6723 196.5933 L264.3866 196.5933 "/>
<svg:path d="M264.3866 196.5933 L264.2437 196.5219 "/>
<svg:path d="M264.2437 196.5219 L264.1723 196.4505 "/>
<svg:path d="M264.1723 196.4505 L264.1009 196.3076 "/>
<svg:path d="M264.1009 196.3076 L264.1009 195.8790 "/>
<svg:path d="M264.1009 195.8790 L264.1723 195.7362 "/>
<svg:path d="M264.1723 195.7362 L264.2437 195.6648 "/>
<svg:path d="M264.2437 195.6648 L264.3866 195.5933 "/>
<svg:path d="M264.3866 195.5933 L264.6723 195.5933 "/>
<svg:path d="M264.6723 195.5933 L264.8152 195.6648 "/>
<svg:path d="M265.5295 196.4505 L265.6009 196.5219 "/>
<svg:path d="M265.6009 196.5219 L265.5295 196.5933 "/>
<svg:path d="M265.5295 196.5933 L265.4580 196.5219 "/>
<svg:path d="M265.4580 196.5219 L265.5295 196.4505 "/>
<svg:path d="M265.5295 196.4505 L265.5295 196.5933 "/>
<svg:path d="M265.5295 195.6648 L265.6009 195.7362 "/>
<svg:path d="M265.6009 195.7362 L265.5295 195.8076 "/>
<svg:path d="M265.5295 195.8076 L265.4580 195.7362 "/>
<svg:path d="M265.4580 195.7362 L265.5295 195.6648 "/>
<svg:path d="M265.5295 195.6648 L265.5295 195.8076 "/>
<svg:path d="M268.1723 196.5933 L267.3152 196.5933 "/>
<svg:path d="M267.7437 196.5933 L267.7437 195.0933 "/>
<svg:path d="M267.7437 195.0933 L267.6009 195.3076 "/>
<svg:path d="M267.6009 195.3076 L267.4580 195.4505 "/>
<svg:path d="M267.4580 195.4505 L267.3152 195.5219 "/>
<svg:path d="M269.8866 195.0219 L268.6009 196.9505 "/>
<svg:path d="M271.1723 196.5933 L270.3152 196.5933 "/>
<svg:path d="M270.7437 196.5933 L270.7437 195.0933 "/>
<svg:path d="M270.7437 195.0933 L270.6009 195.3076 "/>
<svg:path d="M270.6009 195.3076 L270.4580 195.4505 "/>
<svg:path d="M270.4580 195.4505 L270.3152 195.5219 "/>
</svg:g></svg:g>
<svg:g style="fill:none;  stroke:#480000; stroke-width:0.1500; stroke-opacity:1;  stroke-linecap:round; stroke-linejoin:round;">
<svg:path d="M177.0022 187.5072 L285.0022 187.5072 "/>
</svg:g>
<svg:g style="fill:none;  stroke:#480000; stroke-width:0.4000; stroke-opacity:1;  stroke-linecap:round; stroke-linejoin:round;">
<svg:text x="178.0022" y="190.3072" textLength="9.6571" font-size="2.6667" lengthAdjust="spacingAndGlyphs" text-anchor="start" opacity="0" stroke-opacity="0">Title: </svg:text>
<svg:g class="stroked-text"><svg:desc>Title: </svg:desc>
<svg:path d="M178.6939 188.2116 L179.8368 188.2116 "/>
<svg:path d="M179.0154 190.2116 L179.2654 188.2116 "/>
<svg:path d="M180.2535 190.2116 L180.4201 188.8783 "/>
<svg:path d="M180.5035 188.2116 L180.3963 188.3069 "/>
<svg:path d="M180.3963 188.3069 L180.4796 188.4021 "/>
<svg:path d="M180.4796 188.4021 L180.5868 188.3069 "/>
<svg:path d="M180.5868 188.3069 L180.5035 188.2116 "/>
<svg:path d="M180.5035 188.2116 L180.4796 188.4021 "/>
<svg:path d="M181.0868 188.8783 L181.8487 188.8783 "/>
<svg:path d="M181.4558 188.2116 L181.2415 189.9259 "/>
<svg:path d="M181.2415 189.9259 L181.3130 190.1164 "/>
<svg:path d="M181.3130 190.1164 L181.4915 190.2116 "/>
<svg:path d="M181.4915 190.2116 L181.6820 190.2116 "/>
<svg:path d="M182.6344 190.2116 L182.4558 190.1164 "/>
<svg:path d="M182.4558 190.1164 L182.3844 189.9259 "/>
<svg:path d="M182.3844 189.9259 L182.5987 188.2116 "/>
<svg:path d="M184.1701 190.1164 L183.9677 190.2116 "/>
<svg:path d="M183.9677 190.2116 L183.5868 190.2116 "/>
<svg:path d="M183.5868 190.2116 L183.4082 190.1164 "/>
<svg:path d="M183.4082 190.1164 L183.3368 189.9259 "/>
<svg:path d="M183.3368 189.9259 L183.4320 189.1640 "/>
<svg:path d="M183.4320 189.1640 L183.5511 188.9735 "/>
<svg:path d="M183.5511 188.9735 L183.7535 188.8783 "/>
<svg:path d="M183.7535 188.8783 L184.1344 188.8783 "/>
<svg:path d="M184.1344 188.8783 L184.3130 188.9735 "/>
<svg:path d="M184.3130 188.9735 L184.3844 189.1640 "/>
<svg:path d="M184.3844 189.1640 L184.3606 189.3545 "/>
<svg:path d="M184.3606 189.3545 L183.3844 189.5450 "/>
<svg:path d="M185.1344 190.0212 L185.2177 190.1164 "/>
<svg:path d="M185.2177 190.1164 L185.1106 190.2116 "/>
<svg:path d="M185.1106 190.2116 L185.0273 190.1164 "/>
<svg:path d="M185.0273 190.1164 L185.1344 190.0212 "/>
<svg:path d="M185.1344 190.0212 L185.1106 190.2116 "/>
<svg:path d="M185.2654 188.9735 L185.3487 189.0688 "/>
<svg:path d="M185.3487 189.0688 L185.2415 189.1640 "/>
<svg:path d="M185.2415 189.1640 L185.1582 189.0688 "/>
<svg:path d="M185.1582 189.0688 L185.2654 188.9735 "/>
<svg:path d="M185.2654 188.9735 L185.2415 189.1640 "/>
</svg:g></svg:g>
<svg:g style="fill:none;  stroke:#480000; stroke-width:0.1500; stroke-opacity:1;  stroke-linecap:round; stroke-linejoin:round;">
<svg:text x="178.0022" y="186.4572" textLength="20.1500" font-size="2.0000" lengthAdjust="spacingAndGlyphs" text-anchor="start" opacity="0" stroke-opacity="0">File: t1.kicad_pcb</svg:text>
<svg:g class="stroked-text"><svg:desc>File: t1.kicad_pcb</svg:desc>
<svg:path d="M178.9580 185.6076 L178.4580 185.6076 "/>
<svg:path d="M178.4580 186.3933 L178.4580 184.8933 "/>
<svg:path d="M178.4580 184.8933 L179.1723 184.8933 "/>
<svg:path d="M179.7437 186.3933 L179.7437 185.3933 "/>
<svg:path d="M179.7437 184.8933 L179.6723 184.9648 "/>
<svg:path d="M179.6723 184.9648 L179.7437 185.0362 "/>
<svg:path d="M179.7437 185.0362 L179.8152 184.9648 "/>
<svg:path d="M179.8152 184.9648 L179.7437 184.8933 "/>
<svg:path d="M179.7437 184.8933 L179.7437 185.0362 "/>
<svg:path d="M180.6723 186.3933 L180.5295 186.3219 "/>
<svg:path d="M180.5295 186.3219 L180.4580 186.1790 "/>
<svg:path d="M180.4580 186.1790 L180.4580 184.8933 "/>
<svg:path d="M181.8152 186.3219 L181.6723 186.3933 "/>
<svg:path d="M181.6723 186.3933 L181.3866 186.3933 "/>
<svg:path d="M181.3866 186.3933 L181.2437 186.3219 "/>
<svg:path d="M181.2437 186.3219 L181.1723 186.1790 "/>
<svg:path d="M181.1723 186.1790 L181.1723 185.6076 "/>
<svg:path d="M181.1723 185.6076 L181.2437 185.4648 "/>
<svg:path d="M181.2437 185.4648 L181.3866 185.3933 "/>
<svg:path d="M181.3866 185.3933 L181.6723 185.3933 "/>
<svg:path d="M181.6723 185.3933 L181.8152 185.4648 "/>
<svg:path d="M181.8152 185.4648 L181.8866 185.6076 "/>
<svg:path d="M181.8866 185.6076 L181.8866 185.7505 "/>
<svg:path d="M181.8866 185.7505 L181.1723 185.8933 "/>
<svg:path d="M182.5295 186.2505 L182.6009 186.3219 "/>
<svg:path d="M182.6009 186.3219 L182.5295 186.3933 "/>
<svg:path d="M182.5295 186.3933 L182.4580 186.3219 "/>
<svg:path d="M182.4580 186.3219 L182.5295 186.2505 "/>
<svg:path d="M182.5295 186.2505 L182.5295 186.3933 "/>
<svg:path d="M182.5295 185.4648 L182.6009 185.5362 "/>
<svg:path d="M182.6009 185.5362 L182.5295 185.6076 "/>
<svg:path d="M182.5295 185.6076 L182.4580 185.5362 "/>
<svg:path d="M182.4580 185.5362 L182.5295 185.4648 "/>
<svg:path d="M182.5295 185.4648 L182.5295 185.6076 "/>
<svg:path d="M184.1723 185.3933 L184.7437 185.3933 "/>
<svg:path d="M184.3866 184.8933 L184.3866 186.1790 "/>
<svg:path d="M184.3866 186.1790 L184.4580 186.3219 "/>
<svg:path d="M184.4580 186.3219 L184.6009 186.3933 "/>
<svg:path d="M184.6009 186.3933 L184.7437 186.3933 "/>
<svg:path d="M186.0295 186.3933 L185.1723 186.3933 "/>
<svg:path d="M185.6009 186.3933 L185.6009 184.8933 "/>
<svg:path d="M185.6009 184.8933 L185.4580 185.1076 "/>
<svg:path d="M185.4580 185.1076 L185.3152 185.2505 "/>
<svg:path d="M185.3152 185.2505 L185.1723 185.3219 "/>
<svg:path d="M186.6723 186.2505 L186.7437 186.3219 "/>
<svg:path d="M186.7437 186.3219 L186.6723 186.3933 "/>
<svg:path d="M186.6723 186.3933 L186.6009 186.3219 "/>
<svg:path d="M186.6009 186.3219 L186.6723 186.2505 "/>
<svg:path d="M186.6723 186.2505 L186.6723 186.3933 "/>
<svg:path d="M187.3866 186.3933 L187.3866 184.8933 "/>
<svg:path d="M187.5295 185.8219 L187.9580 186.3933 "/>
<svg:path d="M187.9580 185.3933 L187.3866 185.9648 "/>
<svg:path d="M188.6009 186.3933 L188.6009 185.3933 "/>
<svg:path d="M188.6009 184.8933 L188.5295 184.9648 "/>
<svg:path d="M188.5295 184.9648 L188.6009 185.0362 "/>
<svg:path d="M188.6009 185.0362 L188.6723 184.9648 "/>
<svg:path d="M188.6723 184.9648 L188.6009 184.8933 "/>
<svg:path d="M188.6009 184.8933 L188.6009 185.0362 "/>
<svg:path d="M189.9580 186.3219 L189.8152 186.3933 "/>
<svg:path d="M189.8152 186.3933 L189.5295 186.3933 "/>
<svg:path d="M189.5295 186.3933 L189.3866 186.3219 "/>
<svg:path d="M189.3866 186.3219 L189.3152 186.2505 "/>
<svg:path d="M189.3152 186.2505 L189.2437 186.1076 "/>
<svg:path d="M189.2437 186.1076 L189.2437 185.6790 "/>
<svg:path d="M189.2437 185.6790 L189.3152 185.5362 "/>
<svg:path d="M189.3152 185.5362 L189.3866 185.4648 "/>
<svg:path d="M189.3866 185.4648 L189.5295 185.3933 "/>
<svg:path d="M189.5295 185.3933 L189.8152 185.3933 "/>
<svg:path d="M189.8152 185.3933 L189.9580 185.4648 "/>
<svg:path d="M191.2437 186.3933 L191.2437 185.6076 "/>
<svg:path d="M191.2437 185.6076 L191.1723 185.4648 "/>
<svg:path d="M191.1723 185.4648 L191.0295 185.3933 "/>
<svg:path d="M191.0295 185.3933 L190.7437 185.3933 "/>
<svg:path d="M190.7437 185.3933 L190.6009 185.4648 "/>
<svg:path d="M191.2437 186.3219 L191.1009 186.3933 "/>
<svg:path d="M191.1009 186.3933 L190.7437 186.3933 "/>
<svg:path d="M190.7437 186.3933 L190.6009 186.3219 "/>
<svg:path d="M190.6009 186.3219 L190.5295 186.1790 "/>
<svg:path d="M190.5295 186.1790 L190.5295 186.0362 "/>
<svg:path d="M190.5295 186.0362 L190.6009 185.8933 "/>
<svg:path d="M190.6009 185.8933 L190.7437 185.8219 "/>
<svg:path d="M190.7437 185.8219 L191.1009 185.8219 "/>
<svg:path d="M191.1009 185.8219 L191.2437 185.7505 "/>
<svg:path d="M192.6009 186.3933 L192.6009 184.8933 "/>
<svg:path d="M192.6009 186.3219 L192.4580 186.3933 "/>
<svg:path d="M192.4580 186.3933 L192.1723 186.3933 "/>
<svg:path d="M192.1723 186.3933 L192.0295 186.3219 "/>
<svg:path d="M192.0295 186.3219 L191.9580 186.2505 "/>
<svg:path d="M191.9580 186.2505 L191.8866 186.1076 "/>
<svg:path d="M191.8866 186.1076 L191.8866 185.6790 "/>
<svg:path d="M191.8866 185.6790 L191.9580 185.5362 "/>
<svg:path d="M191.9580 185.5362 L192.0295 185.4648 "/>
<svg:path d="M192.0295 185.4648 L192.1723 185.3933 "/>
<svg:path d="M192.1723 185.3933 L192.4580 185.3933 "/>
<svg:path d="M192.4580 185.3933 L192.6009 185.4648 "/>
<svg:path d="M192.9580 186.5362 L194.1009 186.5362 "/>
<svg:path d="M194.4580 185.3933 L194.4580 186.8933 "/>
<svg:path d="M194.4580 185.4648 L194.6009 185.3933 "/>
<svg:path d="M194.6009 185.3933 L194.8866 185.3933 "/>
<svg:path d="M194.8866 185.3933 L195.0295 185.4648 "/>
<svg:path d="M195.0295 185.4648 L195.1009 185.5362 "/>
<svg:path d="M195.1009 185.5362 L195.1723 185.6790 "/>
<svg:path d="M195.1723 185.6790 L195.1723 186.1076 "/>
<svg:path d="M195.1723 186.1076 L195.1009 186.2505 "/>
<svg:path d="M195.1009 186.2505 L195.0295 186.3219 "/>
<svg:path d="M195.0295 186.3219 L194.8866 186.3933 "/>
<svg:path d="M194.8866 186.3933 L194.6009 186.3933 "/>
<svg:path d="M194.6009 186.3933 L194.4580 186.3219 "/>
<svg:path d="M196.4580 186.3219 L196.3152 186.3933 "/>
<svg:path d="M196.3152 186.3933 L196.0295 186.3933 "/>
<svg:path d="M196.0295 186.3933 L195.8866 186.3219 "/>
<svg:path d="M195.8866 186.3219 L195.8152 186.2505 "/>
<svg:path d="M195.8152 186.2505 L195.7437 186.1076 "/>
<svg:path d="M195.7437 186.1076 L195.7437 185.6790 "/>
<svg:path d="M195.7437 185.6790 L195.8152 185.5362 "/>
<svg:path d="M195.8152 185.5362 L195.8866 185.4648 "/>
<svg:path d="M195.8866 185.4648 L196.0295 185.3933 "/>
<svg:path d="M196.0295 185.3933 L196.3152 185.3933 "/>
<svg:path d="M196.3152 185.3933 L196.4580 185.4648 "/>
<svg:path d="M197.1009 186.3933 L197.1009 184.8933 "/>
<svg:path d="M197.1009 185.4648 L197.2437 185.3933 "/>
<svg:path d="M197.2437 185.3933 L197.5295 185.3933 "/>
<svg:path d="M197.5295 185.3933 L197.6723 185.4648 "/>
<svg:path d="M197.6723 185.4648 L197.7437 185.5362 "/>
<svg:path d="M197.7437 185.5362 L197.8152 185.6790 "/>
<svg:path d="M197.8152 185.6790 L197.8152 186.1076 "/>
<svg:path d="M197.8152 186.1076 L197.7437 186.2505 "/>
<svg:path d="M197.7437 186.2505 L197.6723 186.3219 "/>
<svg:path d="M197.6723 186.3219 L197.5295 186.3933 "/>
<svg:path d="M197.5295 186.3933 L197.2437 186.3933 "/>
<svg:path d="M197.2437 186.3933 L197.1009 186.3219 "/>
</svg:g></svg:g>
<svg:g style="fill:none;  stroke:#480000; stroke-width:0.1500; stroke-opacity:1;  stroke-linecap:round; stroke-linejoin:round;">
<svg:path d="M177.0022 181.5072 L285.0022 181.5072 "/>
</svg:g>
<svg:g style="fill:none;  stroke:#480000; stroke-width:0.1500; stroke-opacity:1;  stroke-linecap:round; stroke-linejoin:round;">
<svg:text x="178.0022" y="183.7572" textLength="8.2214" font-size="2.0000" lengthAdjust="spacingAndGlyphs" text-anchor="start" opacity="0" stroke-opacity="0">Sheet: </svg:text>
<svg:g class="stroked-text"><svg:desc>Sheet: </svg:desc>
<svg:path d="M178.3866 183.6219 L178.6009 183.6933 "/>
<svg:path d="M178.6009 183.6933 L178.9580 183.6933 "/>
<svg:path d="M178.9580 183.6933 L179.1009 183.6219 "/>
<svg:path d="M179.1009 183.6219 L179.1723 183.5505 "/>
<svg:path d="M179.1723 183.5505 L179.2437 183.4076 "/>
<svg:path d="M179.2437 183.4076 L179.2437 183.2648 "/>
<svg:path d="M179.2437 183.2648 L179.1723 183.1219 "/>
<svg:path d="M179.1723 183.1219 L179.1009 183.0505 "/>
<svg:path d="M179.1009 183.0505 L178.9580 182.9790 "/>
<svg:path d="M178.9580 182.9790 L178.6723 182.9076 "/>
<svg:path d="M178.6723 182.9076 L178.5295 182.8362 "/>
<svg:path d="M178.5295 182.8362 L178.4580 182.7648 "/>
<svg:path d="M178.4580 182.7648 L178.3866 182.6219 "/>
<svg:path d="M178.3866 182.6219 L178.3866 182.4790 "/>
<svg:path d="M178.3866 182.4790 L178.4580 182.3362 "/>
<svg:path d="M178.4580 182.3362 L178.5295 182.2648 "/>
<svg:path d="M178.5295 182.2648 L178.6723 182.1933 "/>
<svg:path d="M178.6723 182.1933 L179.0295 182.1933 "/>
<svg:path d="M179.0295 182.1933 L179.2437 182.2648 "/>
<svg:path d="M179.8866 183.6933 L179.8866 182.1933 "/>
<svg:path d="M180.5295 183.6933 L180.5295 182.9076 "/>
<svg:path d="M180.5295 182.9076 L180.4580 182.7648 "/>
<svg:path d="M180.4580 182.7648 L180.3152 182.6933 "/>
<svg:path d="M180.3152 182.6933 L180.1009 182.6933 "/>
<svg:path d="M180.1009 182.6933 L179.9580 182.7648 "/>
<svg:path d="M179.9580 182.7648 L179.8866 182.8362 "/>
<svg:path d="M181.8152 183.6219 L181.6723 183.6933 "/>
<svg:path d="M181.6723 183.6933 L181.3866 183.6933 "/>
<svg:path d="M181.3866 183.6933 L181.2437 183.6219 "/>
<svg:path d="M181.2437 183.6219 L181.1723 183.4790 "/>
<svg:path d="M181.1723 183.4790 L181.1723 182.9076 "/>
<svg:path d="M181.1723 182.9076 L181.2437 182.7648 "/>
<svg:path d="M181.2437 182.7648 L181.3866 182.6933 "/>
<svg:path d="M181.3866 182.6933 L181.6723 182.6933 "/>
<svg:path d="M181.6723 182.6933 L181.8152 182.7648 "/>
<svg:path d="M181.8152 182.7648 L181.8866 182.9076 "/>
<svg:path d="M181.8866 182.9076 L181.8866 183.0505 "/>
<svg:path d="M181.8866 183.0505 L181.1723 183.1933 "/>
<svg:path d="M183.1009 183.6219 L182.9580 183.6933 "/>
<svg:path d="M182.9580 183.6933 L182.6723 183.6933 "/>
<svg:path d="M182.6723 183.6933 L182.5295 183.6219 "/>
<svg:path d="M182.5295 183.6219 L182.4580 183.4790 "/>
<svg:path d="M182.4580 183.4790 L182.4580 182.9076 "/>
<svg:path d="M182.4580 182.9076 L182.5295 182.7648 "/>
<svg:path d="M182.5295 182.7648 L182.6723 182.6933 "/>
<svg:path d="M182.6723 182.6933 L182.9580 182.6933 "/>
<svg:path d="M182.9580 182.6933 L183.1009 182.7648 "/>
<svg:path d="M183.1009 182.7648 L183.1723 182.9076 "/>
<svg:path d="M183.1723 182.9076 L183.1723 183.0505 "/>
<svg:path d="M183.1723 183.0505 L182.4580 183.1933 "/>
<svg:path d="M183.6009 182.6933 L184.1723 182.6933 "/>
<svg:path d="M183.8152 182.1933 L183.8152 183.4790 "/>
<svg:path d="M183.8152 183.4790 L183.8866 183.6219 "/>
<svg:path d="M183.8866 183.6219 L184.0295 183.6933 "/>
<svg:path d="M184.0295 183.6933 L184.1723 183.6933 "/>
<svg:path d="M184.6723 183.5505 L184.7437 183.6219 "/>
<svg:path d="M184.7437 183.6219 L184.6723 183.6933 "/>
<svg:path d="M184.6723 183.6933 L184.6009 183.6219 "/>
<svg:path d="M184.6009 183.6219 L184.6723 183.5505 "/>
<svg:path d="M184.6723 183.5505 L184.6723 183.6933 "/>
<svg:path d="M184.6723 182.7648 L184.7437 182.8362 "/>
<svg:path d="M184.7437 182.8362 L184.6723 182.9076 "/>
<svg:path d="M184.6723 182.9076 L184.6009 182.8362 "/>
<svg:path d="M184.6009 182.8362 L184.6723 182.7648 "/>
<svg:path d="M184.6723 182.7648 L184.6723 182.9076 "/>
</svg:g></svg:g>
<svg:g style="fill:none;  stroke:#480000; stroke-width:0.3000; stroke-opacity:1;  stroke-linecap:round; stroke-linejoin:round;">
<svg:text x="178.0022" y="180.7572" textLength="0.9000" font-size="2.0000" lengthAdjust="spacingAndGlyphs" text-anchor="start" opacity="0" stroke-opacity="0"/>
<svg:g class="stroked-text"><svg:desc/>
</svg:g></svg:g>
<svg:g style="fill:none;  stroke:#480000; stroke-width:0.1500; stroke-opacity:1;  stroke-linecap:round; stroke-linejoin:round;">
<svg:text x="178.0022" y="177.7572" textLength="0.4500" font-size="2.0000" lengthAdjust="spacingAndGlyphs" text-anchor="start" opacity="0" stroke-opacity="0"/>
<svg:g class="stroked-text"><svg:desc/>
</svg:g></svg:g>
<svg:g style="fill:none;  stroke:#480000; stroke-width:0.1500; stroke-opacity:1;  stroke-linecap:round; stroke-linejoin:round;">
<svg:text x="178.0022" y="174.7572" textLength="0.4500" font-size="2.0000" lengthAdjust="spacingAndGlyphs" text-anchor="start" opacity="0" stroke-opacity="0"/>
<svg:g class="stroked-text"><svg:desc/>
</svg:g></svg:g>
<svg:g style="fill:none;  stroke:#480000; stroke-width:0.1500; stroke-opacity:1;  stroke-linecap:round; stroke-linejoin:round;">
<svg:text x="178.0022" y="171.7572" textLength="0.4500" font-size="2.0000" lengthAdjust="spacingAndGlyphs" text-anchor="start" opacity="0" stroke-opacity="0"/>
<svg:g class="stroked-text"><svg:desc/>
</svg:g></svg:g>
<svg:g style="fill:none;  stroke:#480000; stroke-width:0.1500; stroke-opacity:1;  stroke-linecap:round; stroke-linejoin:round;">
<svg:text x="178.0022" y="168.7572" textLength="0.4500" font-size="2.0000" lengthAdjust="spacingAndGlyphs" text-anchor="start" opacity="0" stroke-opacity="0"/>
<svg:g class="stroked-text"><svg:desc/>
</svg:g></svg:g>
<svg:g style="fill:none;  stroke:#480000; stroke-width:0.1500; stroke-opacity:1;  stroke-linecap:round; stroke-linejoin:round;">
<svg:path d="M197.0022 191.5072 L197.0022 194.5072 "/>
</svg:g>
<svg:g style="fill:none;  stroke:#480000; stroke-width:0.1500; stroke-opacity:1;  stroke-linecap:round; stroke-linejoin:round;">
<svg:path d="M261.0022 191.5072 L261.0022 198.0072 "/>
</svg:g> 
</svg:g></svg:g></svg>
