M48
INCH,TZ
T1C0.0157
T2C0.0374
T3C0.0394
T4C0.0906
%
G90
G05
T1
X47860Y-35170
X48460Y-30760
X48470Y-28870
X48480Y-33230
X49350Y-35790
X50820Y-28890
X50830Y-30690
X50830Y-33190
X51500Y-37540
X51510Y-35000
X57020Y-33490
X57490Y-27260
X58502Y-33618
X59110Y-32240
X59720Y-33800
X59870Y-34340
X60110Y-34770
X60770Y-29840
X60840Y-32790
X61040Y-27590
X61050Y-34880
X61290Y-32700
X61400Y-33770
X61480Y-34800
X61530Y-36100
X61770Y-34470
X62670Y-32270
X62930Y-38820
X63210Y-33950
X63260Y-31950
X64080Y-27560
X64500Y-30220
X64980Y-35610
X65250Y-31560
X65700Y-34950
X65840Y-36820
X65850Y-38560
X67110Y-31660
X67150Y-35700
X67870Y-34700
T2
X68300Y-32100
X68300Y-33084
X69087Y-32100
X69087Y-33084
T3
X53661Y-27299
X53661Y-28299
X53661Y-29299
X53661Y-30299
X53661Y-31299
X55500Y-30400
X55500Y-31400
X55500Y-32400
X55500Y-33400
X55500Y-34400
X55500Y-35400
X55560Y-37490
X55560Y-38490
X56560Y-37490
X56560Y-38490
X57560Y-37490
X57560Y-38490
X59800Y-37500
X59800Y-38500
X60800Y-37500
X60800Y-38500
T4
X70213Y-30230
X70213Y-34954
T0
M30
