%TF.GenerationSoftware,KiCad,Pcbnew,9.0.6+1*%
%TF.CreationDate,2025-11-26T13:17:52+00:00*%
%TF.ProjectId,t1,74312e6b-6963-4616-945f-706362585858,${git_hash}*%
%TF.SameCoordinates,Original*%
%TF.FileFunction,Copper,L4,Bot*%
%TF.FilePolarity,Positive*%
%FSLAX46Y46*%
G04 Gerber Fmt 4.6, Leading zero omitted, Abs format (unit mm)*
G04 Created by KiCad (PCBNEW 9.0.6+1) date 2025-11-26 13:17:52*
%MOMM*%
%LPD*%
G01*
G04 APERTURE LIST*
%TA.AperFunction,ComponentPad*%
%ADD10R,1.700000X1.700000*%
%TD*%
%TA.AperFunction,ComponentPad*%
%ADD11O,1.700000X1.700000*%
%TD*%
%TA.AperFunction,ComponentPad*%
%ADD12R,1.600000X1.600000*%
%TD*%
%TA.AperFunction,ComponentPad*%
%ADD13C,1.600000*%
%TD*%
%TA.AperFunction,ComponentPad*%
%ADD14C,4.000000*%
%TD*%
%TA.AperFunction,SMDPad,CuDef*%
%ADD15C,1.000000*%
%TD*%
%TA.AperFunction,ViaPad*%
%ADD16C,0.800000*%
%TD*%
%TA.AperFunction,Conductor*%
%ADD17C,0.508000*%
%TD*%
%TA.AperFunction,Conductor*%
%ADD18C,0.381000*%
%TD*%
G04 APERTURE END LIST*
D10*
%TO.P,J3,1,Pin_1*%
%TO.N,Net-(J3-Pin_1)*%
X136300000Y-79500000D03*
D11*
%TO.P,J3,2,Pin_2*%
%TO.N,Net-(J3-Pin_2)*%
X136300000Y-76960000D03*
%TO.P,J3,3,Pin_3*%
%TO.N,Net-(J3-Pin_3)*%
X136300000Y-74420000D03*
%TO.P,J3,4,Pin_4*%
%TO.N,Net-(J3-Pin_4)*%
X136300000Y-71880000D03*
%TO.P,J3,5,Pin_5*%
%TO.N,Net-(J3-Pin_5)*%
X136300000Y-69340000D03*
%TD*%
D10*
%TO.P,J4,1,Pin_1*%
%TO.N,Net-(J4-Pin_1)*%
X151892000Y-95250000D03*
D11*
%TO.P,J4,2,Pin_2*%
%TO.N,Net-(J4-Pin_2)*%
X154432000Y-95250000D03*
%TO.P,J4,3,Pin_3*%
%TO.N,Net-(J4-Pin_3)*%
X151892000Y-97790000D03*
%TO.P,J4,4,Pin_4*%
%TO.N,Net-(J4-Pin_4)*%
X154432000Y-97790000D03*
%TD*%
D10*
%TO.P,J5,1,Pin_1*%
%TO.N,/MISO2*%
X141122400Y-97764600D03*
D11*
%TO.P,J5,2,Pin_2*%
%TO.N,+5V*%
X141122400Y-95224600D03*
%TO.P,J5,3,Pin_3*%
%TO.N,/SCK2*%
X143662400Y-97764600D03*
%TO.P,J5,4,Pin_4*%
%TO.N,/MOSI2*%
X143662400Y-95224600D03*
%TO.P,J5,5,Pin_5*%
%TO.N,/RESET2*%
X146202400Y-97764600D03*
%TO.P,J5,6,Pin_6*%
%TO.N,GND*%
X146202400Y-95224600D03*
%TD*%
D10*
%TO.P,J6,1,Pin_1*%
%TO.N,Net-(J6-Pin_1)*%
X140970000Y-77216000D03*
D11*
%TO.P,J6,2,Pin_2*%
%TO.N,Net-(J6-Pin_2)*%
X140970000Y-79756000D03*
%TO.P,J6,3,Pin_3*%
%TO.N,Net-(J6-Pin_3)*%
X140970000Y-82296000D03*
%TO.P,J6,4,Pin_4*%
%TO.N,Net-(J6-Pin_4)*%
X140970000Y-84836000D03*
%TO.P,J6,5,Pin_5*%
%TO.N,Net-(J6-Pin_5)*%
X140970000Y-87376000D03*
%TO.P,J6,6,Pin_6*%
%TO.N,Net-(J6-Pin_6)*%
X140970000Y-89916000D03*
%TD*%
D12*
%TO.P,J2,1,VBUS*%
%TO.N,Net-(J2-VBUS)*%
X173482000Y-81534000D03*
D13*
%TO.P,J2,2,D-*%
%TO.N,Net-(J2-D-)*%
X173482000Y-84034000D03*
%TO.P,J2,3,D+*%
%TO.N,Net-(J2-D+)*%
X175482000Y-84034000D03*
%TO.P,J2,4,GND*%
%TO.N,Earth*%
X175482000Y-81534000D03*
D14*
%TO.P,J2,5,Shield*%
%TO.N,Net-(J2-Shield)*%
X178342000Y-76784000D03*
X178342000Y-88784000D03*
%TD*%
D15*
%TO.P,TP2,1,1*%
%TO.N,VBUS*%
X167792400Y-80162400D03*
%TD*%
%TO.P,TP3,1,1*%
%TO.N,Net-(J2-VBUS)*%
X173482000Y-78486000D03*
%TD*%
%TO.P,TP4,1,1*%
%TO.N,Earth*%
X179070000Y-80772000D03*
%TD*%
%TO.P,TP5,1,1*%
%TO.N,Net-(J2-D+)*%
X179070000Y-84074000D03*
%TD*%
%TO.P,TP6,1,1*%
%TO.N,Net-(U1-XTAL1)*%
X164287200Y-70053200D03*
%TD*%
%TO.P,TP8,1,1*%
%TO.N,Net-(U1-PC0{slash}XTAL2)*%
X153492200Y-70027800D03*
%TD*%
%TO.P,TP9,1,1*%
%TO.N,Net-(U1-D-)*%
X155956000Y-84582000D03*
%TD*%
D16*
%TO.N,GND*%
X154355800Y-75793600D03*
X123113800Y-73329800D03*
X129108200Y-77952600D03*
X167259000Y-97942400D03*
X155676600Y-83058000D03*
X163830000Y-76758800D03*
X125349000Y-90906600D03*
X130810000Y-95351600D03*
X129082800Y-73380600D03*
X144830800Y-85064600D03*
X123088400Y-78130400D03*
%TO.N,+5V*%
X159842200Y-98602800D03*
X154533600Y-83286600D03*
X146024600Y-69240400D03*
X159181800Y-81965800D03*
X130835400Y-88900000D03*
X129108200Y-84302600D03*
X121564400Y-89331800D03*
X123139200Y-84404200D03*
%TO.N,Net-(U1-XTAL1)*%
X162763200Y-70002400D03*
%TO.N,Net-(U1-PC0{slash}XTAL2)*%
X155041600Y-70078600D03*
%TO.N,Earth*%
X160680400Y-81153000D03*
X166878000Y-88773000D03*
X160553400Y-86233000D03*
X167233600Y-93522800D03*
X165049200Y-90449400D03*
%TO.N,VBUS*%
X165735000Y-80162400D03*
%TO.N,Net-(J2-Shield)*%
X170459400Y-80416400D03*
X172389800Y-88138000D03*
X170561000Y-90678000D03*
%TO.N,Net-(J3-Pin_4)*%
X156895800Y-87553800D03*
%TO.N,Net-(J3-Pin_3)*%
X156159200Y-88392000D03*
%TO.N,Net-(J3-Pin_2)*%
X156286200Y-91694000D03*
%TO.N,Net-(J3-Pin_1)*%
X155067000Y-88595200D03*
%TO.N,Net-(J6-Pin_3)*%
X150139400Y-81889600D03*
%TO.N,Net-(J6-Pin_5)*%
X152069800Y-87223600D03*
%TO.N,Net-(J6-Pin_6)*%
X152679400Y-88315800D03*
%TO.N,Net-(J6-Pin_4)*%
X151689100Y-85852000D03*
%TO.N,Net-(J6-Pin_2)*%
X148595111Y-85389689D03*
%TO.N,Net-(U1-D-)*%
X155956000Y-85775802D03*
%TD*%
D17*
%TO.N,Net-(U1-XTAL1)*%
X164236400Y-70002400D02*
X164287200Y-70053200D01*
X162763200Y-70002400D02*
X164236400Y-70002400D01*
%TO.N,Net-(U1-PC0{slash}XTAL2)*%
X154990800Y-70027800D02*
X155041600Y-70078600D01*
X153492200Y-70027800D02*
X154990800Y-70027800D01*
%TO.N,Earth*%
X178308000Y-81534000D02*
X179070000Y-80772000D01*
X175482000Y-81534000D02*
X178308000Y-81534000D01*
%TO.N,VBUS*%
X165735000Y-80162400D02*
X167792400Y-80162400D01*
%TO.N,Net-(J2-VBUS)*%
X173482000Y-81534000D02*
X173482000Y-78486000D01*
%TO.N,Net-(J2-D+)*%
X175482000Y-84034000D02*
X179030000Y-84034000D01*
X179030000Y-84034000D02*
X179070000Y-84074000D01*
%TO.N,Net-(J3-Pin_4)*%
X148892800Y-71880000D02*
X156895800Y-79883000D01*
X136300000Y-71880000D02*
X148892800Y-71880000D01*
X156895800Y-79883000D02*
X156895800Y-87553800D01*
%TO.N,Net-(J3-Pin_3)*%
X136300000Y-74420000D02*
X149629400Y-74420000D01*
X153720800Y-78511400D02*
X153720800Y-85953600D01*
X153720800Y-85953600D02*
X156159200Y-88392000D01*
X149629400Y-74420000D02*
X153720800Y-78511400D01*
%TO.N,Net-(J3-Pin_2)*%
X156286200Y-91694000D02*
X145333526Y-91694000D01*
X145308126Y-91719400D02*
X138938000Y-91719400D01*
X145333526Y-91694000D02*
X145308126Y-91719400D01*
X138303000Y-77749400D02*
X137513600Y-76960000D01*
X137513600Y-76960000D02*
X136300000Y-76960000D01*
X138938000Y-91719400D02*
X138303000Y-91084400D01*
X138303000Y-91084400D02*
X138303000Y-77749400D01*
%TO.N,Net-(J3-Pin_1)*%
X134289800Y-78206600D02*
X134289800Y-77110726D01*
X135583200Y-79500000D02*
X134289800Y-78206600D01*
X136300000Y-79500000D02*
X135583200Y-79500000D01*
X152882600Y-86410800D02*
X155067000Y-88595200D01*
X152882600Y-78892400D02*
X152882600Y-86410800D01*
X135696927Y-75703599D02*
X149693799Y-75703599D01*
X149693799Y-75703599D02*
X152882600Y-78892400D01*
X134289800Y-77110726D02*
X135696927Y-75703599D01*
%TO.N,Net-(J6-Pin_3)*%
X148259800Y-81889600D02*
X150139400Y-81889600D01*
X147853400Y-82296000D02*
X148259800Y-81889600D01*
X140970000Y-82296000D02*
X147853400Y-82296000D01*
%TO.N,Net-(J6-Pin_5)*%
X141122400Y-87223600D02*
X140970000Y-87376000D01*
X152069800Y-87223600D02*
X141122400Y-87223600D01*
%TO.N,Net-(J6-Pin_6)*%
X147675600Y-88315800D02*
X146075400Y-89916000D01*
X152679400Y-88315800D02*
X147675600Y-88315800D01*
X146075400Y-89916000D02*
X140970000Y-89916000D01*
%TO.N,Net-(J6-Pin_4)*%
X151289101Y-86251999D02*
X142385999Y-86251999D01*
X142385999Y-86251999D02*
X140970000Y-84836000D01*
X151689100Y-85852000D02*
X151289101Y-86251999D01*
%TO.N,Net-(J6-Pin_2)*%
X146757823Y-83552401D02*
X148595111Y-85389689D01*
X139446000Y-82631474D02*
X140366927Y-83552401D01*
X140366927Y-83552401D02*
X146757823Y-83552401D01*
X139446000Y-81280000D02*
X139446000Y-82631474D01*
X140970000Y-79756000D02*
X139446000Y-81280000D01*
D18*
%TO.N,Net-(U1-D-)*%
X155956000Y-84582000D02*
X155956000Y-85775802D01*
%TD*%
M02*
