%TF.GenerationSoftware,KiCad,Pcbnew,6.0.9+dfsg-1~bpo11+1*%
%TF.CreationDate,2022-12-16T16:01:09+00:00*%
%TF.ProjectId,t1,74312e6b-6963-4616-945f-706362585858,${git_hash}*%
%TF.SameCoordinates,Original*%
%TF.FileFunction,AssemblyDrawing,Top*%
%FSLAX46Y46*%
G04 Gerber Fmt 4.6, Leading zero omitted, Abs format (unit mm)*
G04 Created by KiCad (PCBNEW 6.0.9+dfsg-1~bpo11+1) date 2022-12-16 16:01:09*
%MOMM*%
%LPD*%
G01*
G04 APERTURE LIST*
%ADD10C,0.150000*%
%ADD11C,0.080000*%
%ADD12C,0.095250*%
%ADD13C,0.120000*%
%ADD14C,0.127000*%
%ADD15C,0.063500*%
%ADD16C,0.050000*%
%ADD17C,0.050800*%
%ADD18C,0.060000*%
%ADD19C,0.100000*%
G04 APERTURE END LIST*
D10*
%TO.C,C1*%
X129592533Y-96407314D02*
X129592533Y-97073980D01*
X129354438Y-96026361D02*
X129116342Y-96740647D01*
X129735390Y-96740647D01*
X130021104Y-96073980D02*
X130687771Y-96073980D01*
X130259200Y-97073980D01*
X131497295Y-96407314D02*
X131497295Y-97073980D01*
X131068723Y-96407314D02*
X131068723Y-96931123D01*
X131116342Y-97026361D01*
X131211580Y-97073980D01*
X131354438Y-97073980D01*
X131449676Y-97026361D01*
X131497295Y-96978742D01*
X132306819Y-96550171D02*
X131973485Y-96550171D01*
X131973485Y-97073980D02*
X131973485Y-96073980D01*
X132449676Y-96073980D01*
X130668733Y-95251542D02*
X130621114Y-95299161D01*
X130478257Y-95346780D01*
X130383019Y-95346780D01*
X130240161Y-95299161D01*
X130144923Y-95203923D01*
X130097304Y-95108685D01*
X130049685Y-94918209D01*
X130049685Y-94775352D01*
X130097304Y-94584876D01*
X130144923Y-94489638D01*
X130240161Y-94394400D01*
X130383019Y-94346780D01*
X130478257Y-94346780D01*
X130621114Y-94394400D01*
X130668733Y-94442019D01*
X131621114Y-95346780D02*
X131049685Y-95346780D01*
X131335400Y-95346780D02*
X131335400Y-94346780D01*
X131240161Y-94489638D01*
X131144923Y-94584876D01*
X131049685Y-94632495D01*
%TO.C,C2*%
X121452380Y-93002380D02*
X120880952Y-93002380D01*
X121166666Y-93002380D02*
X121166666Y-92002380D01*
X121071428Y-92145238D01*
X120976190Y-92240476D01*
X120880952Y-92288095D01*
X122071428Y-92002380D02*
X122166666Y-92002380D01*
X122261904Y-92050000D01*
X122309523Y-92097619D01*
X122357142Y-92192857D01*
X122404761Y-92383333D01*
X122404761Y-92621428D01*
X122357142Y-92811904D01*
X122309523Y-92907142D01*
X122261904Y-92954761D01*
X122166666Y-93002380D01*
X122071428Y-93002380D01*
X121976190Y-92954761D01*
X121928571Y-92907142D01*
X121880952Y-92811904D01*
X121833333Y-92621428D01*
X121833333Y-92383333D01*
X121880952Y-92192857D01*
X121928571Y-92097619D01*
X121976190Y-92050000D01*
X122071428Y-92002380D01*
X123023809Y-92002380D02*
X123119047Y-92002380D01*
X123214285Y-92050000D01*
X123261904Y-92097619D01*
X123309523Y-92192857D01*
X123357142Y-92383333D01*
X123357142Y-92621428D01*
X123309523Y-92811904D01*
X123261904Y-92907142D01*
X123214285Y-92954761D01*
X123119047Y-93002380D01*
X123023809Y-93002380D01*
X122928571Y-92954761D01*
X122880952Y-92907142D01*
X122833333Y-92811904D01*
X122785714Y-92621428D01*
X122785714Y-92383333D01*
X122833333Y-92192857D01*
X122880952Y-92097619D01*
X122928571Y-92050000D01*
X123023809Y-92002380D01*
X123785714Y-92335714D02*
X123785714Y-93002380D01*
X123785714Y-92430952D02*
X123833333Y-92383333D01*
X123928571Y-92335714D01*
X124071428Y-92335714D01*
X124166666Y-92383333D01*
X124214285Y-92478571D01*
X124214285Y-93002380D01*
X125023809Y-92478571D02*
X124690476Y-92478571D01*
X124690476Y-93002380D02*
X124690476Y-92002380D01*
X125166666Y-92002380D01*
D11*
X122916666Y-91078571D02*
X122892857Y-91102380D01*
X122821428Y-91126190D01*
X122773809Y-91126190D01*
X122702380Y-91102380D01*
X122654761Y-91054761D01*
X122630952Y-91007142D01*
X122607142Y-90911904D01*
X122607142Y-90840476D01*
X122630952Y-90745238D01*
X122654761Y-90697619D01*
X122702380Y-90650000D01*
X122773809Y-90626190D01*
X122821428Y-90626190D01*
X122892857Y-90650000D01*
X122916666Y-90673809D01*
X123107142Y-90673809D02*
X123130952Y-90650000D01*
X123178571Y-90626190D01*
X123297619Y-90626190D01*
X123345238Y-90650000D01*
X123369047Y-90673809D01*
X123392857Y-90721428D01*
X123392857Y-90769047D01*
X123369047Y-90840476D01*
X123083333Y-91126190D01*
X123392857Y-91126190D01*
D10*
%TO.C,C3*%
X160866342Y-72318619D02*
X160913961Y-72271000D01*
X161009200Y-72223380D01*
X161247295Y-72223380D01*
X161342533Y-72271000D01*
X161390152Y-72318619D01*
X161437771Y-72413857D01*
X161437771Y-72509095D01*
X161390152Y-72651952D01*
X160818723Y-73223380D01*
X161437771Y-73223380D01*
X161818723Y-72318619D02*
X161866342Y-72271000D01*
X161961580Y-72223380D01*
X162199676Y-72223380D01*
X162294914Y-72271000D01*
X162342533Y-72318619D01*
X162390152Y-72413857D01*
X162390152Y-72509095D01*
X162342533Y-72651952D01*
X161771104Y-73223380D01*
X162390152Y-73223380D01*
X162818723Y-72556714D02*
X162818723Y-73556714D01*
X162818723Y-72604333D02*
X162913961Y-72556714D01*
X163104438Y-72556714D01*
X163199676Y-72604333D01*
X163247295Y-72651952D01*
X163294914Y-72747190D01*
X163294914Y-73032904D01*
X163247295Y-73128142D01*
X163199676Y-73175761D01*
X163104438Y-73223380D01*
X162913961Y-73223380D01*
X162818723Y-73175761D01*
X164056819Y-72699571D02*
X163723485Y-72699571D01*
X163723485Y-73223380D02*
X163723485Y-72223380D01*
X164199676Y-72223380D01*
D11*
X162176666Y-75294571D02*
X162152857Y-75318380D01*
X162081428Y-75342190D01*
X162033809Y-75342190D01*
X161962380Y-75318380D01*
X161914761Y-75270761D01*
X161890952Y-75223142D01*
X161867142Y-75127904D01*
X161867142Y-75056476D01*
X161890952Y-74961238D01*
X161914761Y-74913619D01*
X161962380Y-74866000D01*
X162033809Y-74842190D01*
X162081428Y-74842190D01*
X162152857Y-74866000D01*
X162176666Y-74889809D01*
X162343333Y-74842190D02*
X162652857Y-74842190D01*
X162486190Y-75032666D01*
X162557619Y-75032666D01*
X162605238Y-75056476D01*
X162629047Y-75080285D01*
X162652857Y-75127904D01*
X162652857Y-75246952D01*
X162629047Y-75294571D01*
X162605238Y-75318380D01*
X162557619Y-75342190D01*
X162414761Y-75342190D01*
X162367142Y-75318380D01*
X162343333Y-75294571D01*
D10*
%TO.C,C4*%
X151341342Y-75773019D02*
X151388961Y-75725400D01*
X151484200Y-75677780D01*
X151722295Y-75677780D01*
X151817533Y-75725400D01*
X151865152Y-75773019D01*
X151912771Y-75868257D01*
X151912771Y-75963495D01*
X151865152Y-76106352D01*
X151293723Y-76677780D01*
X151912771Y-76677780D01*
X152293723Y-75773019D02*
X152341342Y-75725400D01*
X152436580Y-75677780D01*
X152674676Y-75677780D01*
X152769914Y-75725400D01*
X152817533Y-75773019D01*
X152865152Y-75868257D01*
X152865152Y-75963495D01*
X152817533Y-76106352D01*
X152246104Y-76677780D01*
X152865152Y-76677780D01*
X153293723Y-76011114D02*
X153293723Y-77011114D01*
X153293723Y-76058733D02*
X153388961Y-76011114D01*
X153579438Y-76011114D01*
X153674676Y-76058733D01*
X153722295Y-76106352D01*
X153769914Y-76201590D01*
X153769914Y-76487304D01*
X153722295Y-76582542D01*
X153674676Y-76630161D01*
X153579438Y-76677780D01*
X153388961Y-76677780D01*
X153293723Y-76630161D01*
X154531819Y-76153971D02*
X154198485Y-76153971D01*
X154198485Y-76677780D02*
X154198485Y-75677780D01*
X154674676Y-75677780D01*
D11*
X155826666Y-75294571D02*
X155802857Y-75318380D01*
X155731428Y-75342190D01*
X155683809Y-75342190D01*
X155612380Y-75318380D01*
X155564761Y-75270761D01*
X155540952Y-75223142D01*
X155517142Y-75127904D01*
X155517142Y-75056476D01*
X155540952Y-74961238D01*
X155564761Y-74913619D01*
X155612380Y-74866000D01*
X155683809Y-74842190D01*
X155731428Y-74842190D01*
X155802857Y-74866000D01*
X155826666Y-74889809D01*
X156255238Y-75008857D02*
X156255238Y-75342190D01*
X156136190Y-74818380D02*
X156017142Y-75175523D01*
X156326666Y-75175523D01*
D10*
%TO.C,C5*%
X162574361Y-92146380D02*
X162002933Y-92146380D01*
X162288647Y-92146380D02*
X162288647Y-91146380D01*
X162193409Y-91289238D01*
X162098171Y-91384476D01*
X162002933Y-91432095D01*
X163431504Y-91479714D02*
X163431504Y-92146380D01*
X163002933Y-91479714D02*
X163002933Y-92003523D01*
X163050552Y-92098761D01*
X163145790Y-92146380D01*
X163288647Y-92146380D01*
X163383885Y-92098761D01*
X163431504Y-92051142D01*
X164241028Y-91622571D02*
X163907695Y-91622571D01*
X163907695Y-92146380D02*
X163907695Y-91146380D01*
X164383885Y-91146380D01*
D11*
X163238666Y-89332571D02*
X163214857Y-89356380D01*
X163143428Y-89380190D01*
X163095809Y-89380190D01*
X163024380Y-89356380D01*
X162976761Y-89308761D01*
X162952952Y-89261142D01*
X162929142Y-89165904D01*
X162929142Y-89094476D01*
X162952952Y-88999238D01*
X162976761Y-88951619D01*
X163024380Y-88904000D01*
X163095809Y-88880190D01*
X163143428Y-88880190D01*
X163214857Y-88904000D01*
X163238666Y-88927809D01*
X163691047Y-88880190D02*
X163452952Y-88880190D01*
X163429142Y-89118285D01*
X163452952Y-89094476D01*
X163500571Y-89070666D01*
X163619619Y-89070666D01*
X163667238Y-89094476D01*
X163691047Y-89118285D01*
X163714857Y-89165904D01*
X163714857Y-89284952D01*
X163691047Y-89332571D01*
X163667238Y-89356380D01*
X163619619Y-89380190D01*
X163500571Y-89380190D01*
X163452952Y-89356380D01*
X163429142Y-89332571D01*
D10*
%TO.C,C7*%
X156618180Y-79776580D02*
X156046752Y-79776580D01*
X156332466Y-79776580D02*
X156332466Y-78776580D01*
X156237228Y-78919438D01*
X156141990Y-79014676D01*
X156046752Y-79062295D01*
X157237228Y-78776580D02*
X157332466Y-78776580D01*
X157427704Y-78824200D01*
X157475323Y-78871819D01*
X157522942Y-78967057D01*
X157570561Y-79157533D01*
X157570561Y-79395628D01*
X157522942Y-79586104D01*
X157475323Y-79681342D01*
X157427704Y-79728961D01*
X157332466Y-79776580D01*
X157237228Y-79776580D01*
X157141990Y-79728961D01*
X157094371Y-79681342D01*
X157046752Y-79586104D01*
X156999133Y-79395628D01*
X156999133Y-79157533D01*
X157046752Y-78967057D01*
X157094371Y-78871819D01*
X157141990Y-78824200D01*
X157237228Y-78776580D01*
X158189609Y-78776580D02*
X158284847Y-78776580D01*
X158380085Y-78824200D01*
X158427704Y-78871819D01*
X158475323Y-78967057D01*
X158522942Y-79157533D01*
X158522942Y-79395628D01*
X158475323Y-79586104D01*
X158427704Y-79681342D01*
X158380085Y-79728961D01*
X158284847Y-79776580D01*
X158189609Y-79776580D01*
X158094371Y-79728961D01*
X158046752Y-79681342D01*
X157999133Y-79586104D01*
X157951514Y-79395628D01*
X157951514Y-79157533D01*
X157999133Y-78967057D01*
X158046752Y-78871819D01*
X158094371Y-78824200D01*
X158189609Y-78776580D01*
X158951514Y-79109914D02*
X158951514Y-79776580D01*
X158951514Y-79205152D02*
X158999133Y-79157533D01*
X159094371Y-79109914D01*
X159237228Y-79109914D01*
X159332466Y-79157533D01*
X159380085Y-79252771D01*
X159380085Y-79776580D01*
X160189609Y-79252771D02*
X159856276Y-79252771D01*
X159856276Y-79776580D02*
X159856276Y-78776580D01*
X160332466Y-78776580D01*
D11*
X153891466Y-79045571D02*
X153867657Y-79069380D01*
X153796228Y-79093190D01*
X153748609Y-79093190D01*
X153677180Y-79069380D01*
X153629561Y-79021761D01*
X153605752Y-78974142D01*
X153581942Y-78878904D01*
X153581942Y-78807476D01*
X153605752Y-78712238D01*
X153629561Y-78664619D01*
X153677180Y-78617000D01*
X153748609Y-78593190D01*
X153796228Y-78593190D01*
X153867657Y-78617000D01*
X153891466Y-78640809D01*
X154058133Y-78593190D02*
X154391466Y-78593190D01*
X154177180Y-79093190D01*
D10*
%TO.C,C8*%
X146508980Y-79446380D02*
X145937552Y-79446380D01*
X146223266Y-79446380D02*
X146223266Y-78446380D01*
X146128028Y-78589238D01*
X146032790Y-78684476D01*
X145937552Y-78732095D01*
X147128028Y-78446380D02*
X147223266Y-78446380D01*
X147318504Y-78494000D01*
X147366123Y-78541619D01*
X147413742Y-78636857D01*
X147461361Y-78827333D01*
X147461361Y-79065428D01*
X147413742Y-79255904D01*
X147366123Y-79351142D01*
X147318504Y-79398761D01*
X147223266Y-79446380D01*
X147128028Y-79446380D01*
X147032790Y-79398761D01*
X146985171Y-79351142D01*
X146937552Y-79255904D01*
X146889933Y-79065428D01*
X146889933Y-78827333D01*
X146937552Y-78636857D01*
X146985171Y-78541619D01*
X147032790Y-78494000D01*
X147128028Y-78446380D01*
X148080409Y-78446380D02*
X148175647Y-78446380D01*
X148270885Y-78494000D01*
X148318504Y-78541619D01*
X148366123Y-78636857D01*
X148413742Y-78827333D01*
X148413742Y-79065428D01*
X148366123Y-79255904D01*
X148318504Y-79351142D01*
X148270885Y-79398761D01*
X148175647Y-79446380D01*
X148080409Y-79446380D01*
X147985171Y-79398761D01*
X147937552Y-79351142D01*
X147889933Y-79255904D01*
X147842314Y-79065428D01*
X147842314Y-78827333D01*
X147889933Y-78636857D01*
X147937552Y-78541619D01*
X147985171Y-78494000D01*
X148080409Y-78446380D01*
X148842314Y-78779714D02*
X148842314Y-79446380D01*
X148842314Y-78874952D02*
X148889933Y-78827333D01*
X148985171Y-78779714D01*
X149128028Y-78779714D01*
X149223266Y-78827333D01*
X149270885Y-78922571D01*
X149270885Y-79446380D01*
X150080409Y-78922571D02*
X149747076Y-78922571D01*
X149747076Y-79446380D02*
X149747076Y-78446380D01*
X150223266Y-78446380D01*
D11*
X144671266Y-79147171D02*
X144647457Y-79170980D01*
X144576028Y-79194790D01*
X144528409Y-79194790D01*
X144456980Y-79170980D01*
X144409361Y-79123361D01*
X144385552Y-79075742D01*
X144361742Y-78980504D01*
X144361742Y-78909076D01*
X144385552Y-78813838D01*
X144409361Y-78766219D01*
X144456980Y-78718600D01*
X144528409Y-78694790D01*
X144576028Y-78694790D01*
X144647457Y-78718600D01*
X144671266Y-78742409D01*
X144956980Y-78909076D02*
X144909361Y-78885266D01*
X144885552Y-78861457D01*
X144861742Y-78813838D01*
X144861742Y-78790028D01*
X144885552Y-78742409D01*
X144909361Y-78718600D01*
X144956980Y-78694790D01*
X145052219Y-78694790D01*
X145099838Y-78718600D01*
X145123647Y-78742409D01*
X145147457Y-78790028D01*
X145147457Y-78813838D01*
X145123647Y-78861457D01*
X145099838Y-78885266D01*
X145052219Y-78909076D01*
X144956980Y-78909076D01*
X144909361Y-78932885D01*
X144885552Y-78956695D01*
X144861742Y-79004314D01*
X144861742Y-79099552D01*
X144885552Y-79147171D01*
X144909361Y-79170980D01*
X144956980Y-79194790D01*
X145052219Y-79194790D01*
X145099838Y-79170980D01*
X145123647Y-79147171D01*
X145147457Y-79099552D01*
X145147457Y-79004314D01*
X145123647Y-78956695D01*
X145099838Y-78932885D01*
X145052219Y-78909076D01*
D12*
%TO.C,D1*%
X160945285Y-99780271D02*
X160927142Y-99798414D01*
X160872714Y-99816557D01*
X160836428Y-99816557D01*
X160782000Y-99798414D01*
X160745714Y-99762128D01*
X160727571Y-99725842D01*
X160709428Y-99653271D01*
X160709428Y-99598842D01*
X160727571Y-99526271D01*
X160745714Y-99489985D01*
X160782000Y-99453700D01*
X160836428Y-99435557D01*
X160872714Y-99435557D01*
X160927142Y-99453700D01*
X160945285Y-99471842D01*
X161108571Y-99816557D02*
X161108571Y-99435557D01*
X161199285Y-99435557D01*
X161253714Y-99453700D01*
X161290000Y-99489985D01*
X161308142Y-99526271D01*
X161326285Y-99598842D01*
X161326285Y-99653271D01*
X161308142Y-99725842D01*
X161290000Y-99762128D01*
X161253714Y-99798414D01*
X161199285Y-99816557D01*
X161108571Y-99816557D01*
X161689142Y-99816557D02*
X161471428Y-99816557D01*
X161580285Y-99816557D02*
X161580285Y-99435557D01*
X161544000Y-99489985D01*
X161507714Y-99526271D01*
X161471428Y-99544414D01*
X161834285Y-99471842D02*
X161852428Y-99453700D01*
X161888714Y-99435557D01*
X161979428Y-99435557D01*
X162015714Y-99453700D01*
X162033857Y-99471842D01*
X162052000Y-99508128D01*
X162052000Y-99544414D01*
X162033857Y-99598842D01*
X161816142Y-99816557D01*
X162052000Y-99816557D01*
X162287857Y-99435557D02*
X162324142Y-99435557D01*
X162360428Y-99453700D01*
X162378571Y-99471842D01*
X162396714Y-99508128D01*
X162414857Y-99580700D01*
X162414857Y-99671414D01*
X162396714Y-99743985D01*
X162378571Y-99780271D01*
X162360428Y-99798414D01*
X162324142Y-99816557D01*
X162287857Y-99816557D01*
X162251571Y-99798414D01*
X162233428Y-99780271D01*
X162215285Y-99743985D01*
X162197142Y-99671414D01*
X162197142Y-99580700D01*
X162215285Y-99508128D01*
X162233428Y-99471842D01*
X162251571Y-99453700D01*
X162287857Y-99435557D01*
X162741428Y-99435557D02*
X162668857Y-99435557D01*
X162632571Y-99453700D01*
X162614428Y-99471842D01*
X162578142Y-99526271D01*
X162560000Y-99598842D01*
X162560000Y-99743985D01*
X162578142Y-99780271D01*
X162596285Y-99798414D01*
X162632571Y-99816557D01*
X162705142Y-99816557D01*
X162741428Y-99798414D01*
X162759571Y-99780271D01*
X162777714Y-99743985D01*
X162777714Y-99653271D01*
X162759571Y-99616985D01*
X162741428Y-99598842D01*
X162705142Y-99580700D01*
X162632571Y-99580700D01*
X162596285Y-99598842D01*
X162578142Y-99616985D01*
X162560000Y-99653271D01*
X162941000Y-99671414D02*
X163231285Y-99671414D01*
X163394571Y-99798414D02*
X163449000Y-99816557D01*
X163539714Y-99816557D01*
X163576000Y-99798414D01*
X163594142Y-99780271D01*
X163612285Y-99743985D01*
X163612285Y-99707700D01*
X163594142Y-99671414D01*
X163576000Y-99653271D01*
X163539714Y-99635128D01*
X163467142Y-99616985D01*
X163430857Y-99598842D01*
X163412714Y-99580700D01*
X163394571Y-99544414D01*
X163394571Y-99508128D01*
X163412714Y-99471842D01*
X163430857Y-99453700D01*
X163467142Y-99435557D01*
X163557857Y-99435557D01*
X163612285Y-99453700D01*
X163848142Y-99435557D02*
X163884428Y-99435557D01*
X163920714Y-99453700D01*
X163938857Y-99471842D01*
X163957000Y-99508128D01*
X163975142Y-99580700D01*
X163975142Y-99671414D01*
X163957000Y-99743985D01*
X163938857Y-99780271D01*
X163920714Y-99798414D01*
X163884428Y-99816557D01*
X163848142Y-99816557D01*
X163811857Y-99798414D01*
X163793714Y-99780271D01*
X163775571Y-99743985D01*
X163757428Y-99671414D01*
X163757428Y-99580700D01*
X163775571Y-99508128D01*
X163793714Y-99471842D01*
X163811857Y-99453700D01*
X163848142Y-99435557D01*
X164338000Y-99816557D02*
X164120285Y-99816557D01*
X164229142Y-99816557D02*
X164229142Y-99435557D01*
X164192857Y-99489985D01*
X164156571Y-99526271D01*
X164120285Y-99544414D01*
X164682714Y-99435557D02*
X164501285Y-99435557D01*
X164483142Y-99616985D01*
X164501285Y-99598842D01*
X164537571Y-99580700D01*
X164628285Y-99580700D01*
X164664571Y-99598842D01*
X164682714Y-99616985D01*
X164700857Y-99653271D01*
X164700857Y-99743985D01*
X164682714Y-99780271D01*
X164664571Y-99798414D01*
X164628285Y-99816557D01*
X164537571Y-99816557D01*
X164501285Y-99798414D01*
X164483142Y-99780271D01*
X164827857Y-99435557D02*
X165081857Y-99435557D01*
X164918571Y-99816557D01*
X165408428Y-99435557D02*
X165227000Y-99435557D01*
X165208857Y-99616985D01*
X165227000Y-99598842D01*
X165263285Y-99580700D01*
X165354000Y-99580700D01*
X165390285Y-99598842D01*
X165408428Y-99616985D01*
X165426571Y-99653271D01*
X165426571Y-99743985D01*
X165408428Y-99780271D01*
X165390285Y-99798414D01*
X165354000Y-99816557D01*
X165263285Y-99816557D01*
X165227000Y-99798414D01*
X165208857Y-99780271D01*
D13*
X162223523Y-97135904D02*
X162223523Y-96335904D01*
X162414000Y-96335904D01*
X162528285Y-96374000D01*
X162604476Y-96450190D01*
X162642571Y-96526380D01*
X162680666Y-96678761D01*
X162680666Y-96793047D01*
X162642571Y-96945428D01*
X162604476Y-97021619D01*
X162528285Y-97097809D01*
X162414000Y-97135904D01*
X162223523Y-97135904D01*
X163442571Y-97135904D02*
X162985428Y-97135904D01*
X163214000Y-97135904D02*
X163214000Y-96335904D01*
X163137809Y-96450190D01*
X163061619Y-96526380D01*
X162985428Y-96564476D01*
D10*
%TO.C,D2*%
X149242542Y-74137780D02*
X148766352Y-74137780D01*
X148766352Y-73137780D01*
X149575876Y-73613971D02*
X149909209Y-73613971D01*
X150052066Y-74137780D02*
X149575876Y-74137780D01*
X149575876Y-73137780D01*
X150052066Y-73137780D01*
X150480638Y-74137780D02*
X150480638Y-73137780D01*
X150718733Y-73137780D01*
X150861590Y-73185400D01*
X150956828Y-73280638D01*
X151004447Y-73375876D01*
X151052066Y-73566352D01*
X151052066Y-73709209D01*
X151004447Y-73899685D01*
X150956828Y-73994923D01*
X150861590Y-74090161D01*
X150718733Y-74137780D01*
X150480638Y-74137780D01*
D11*
X146950952Y-75176190D02*
X146950952Y-74676190D01*
X147070000Y-74676190D01*
X147141428Y-74700000D01*
X147189047Y-74747619D01*
X147212857Y-74795238D01*
X147236666Y-74890476D01*
X147236666Y-74961904D01*
X147212857Y-75057142D01*
X147189047Y-75104761D01*
X147141428Y-75152380D01*
X147070000Y-75176190D01*
X146950952Y-75176190D01*
X147427142Y-74723809D02*
X147450952Y-74700000D01*
X147498571Y-74676190D01*
X147617619Y-74676190D01*
X147665238Y-74700000D01*
X147689047Y-74723809D01*
X147712857Y-74771428D01*
X147712857Y-74819047D01*
X147689047Y-74890476D01*
X147403333Y-75176190D01*
X147712857Y-75176190D01*
D10*
%TO.C,D3*%
X141622542Y-74036180D02*
X141146352Y-74036180D01*
X141146352Y-73036180D01*
X141955876Y-73512371D02*
X142289209Y-73512371D01*
X142432066Y-74036180D02*
X141955876Y-74036180D01*
X141955876Y-73036180D01*
X142432066Y-73036180D01*
X142860638Y-74036180D02*
X142860638Y-73036180D01*
X143098733Y-73036180D01*
X143241590Y-73083800D01*
X143336828Y-73179038D01*
X143384447Y-73274276D01*
X143432066Y-73464752D01*
X143432066Y-73607609D01*
X143384447Y-73798085D01*
X143336828Y-73893323D01*
X143241590Y-73988561D01*
X143098733Y-74036180D01*
X142860638Y-74036180D01*
D11*
X144410952Y-75176190D02*
X144410952Y-74676190D01*
X144530000Y-74676190D01*
X144601428Y-74700000D01*
X144649047Y-74747619D01*
X144672857Y-74795238D01*
X144696666Y-74890476D01*
X144696666Y-74961904D01*
X144672857Y-75057142D01*
X144649047Y-75104761D01*
X144601428Y-75152380D01*
X144530000Y-75176190D01*
X144410952Y-75176190D01*
X144863333Y-74676190D02*
X145172857Y-74676190D01*
X145006190Y-74866666D01*
X145077619Y-74866666D01*
X145125238Y-74890476D01*
X145149047Y-74914285D01*
X145172857Y-74961904D01*
X145172857Y-75080952D01*
X145149047Y-75128571D01*
X145125238Y-75152380D01*
X145077619Y-75176190D01*
X144934761Y-75176190D01*
X144887142Y-75152380D01*
X144863333Y-75128571D01*
D14*
%TO.C,F1*%
X164743190Y-75058209D02*
X164743190Y-74550209D01*
X164912523Y-74913066D01*
X165081857Y-74550209D01*
X165081857Y-75058209D01*
X165493095Y-74792114D02*
X165323761Y-74792114D01*
X165323761Y-75058209D02*
X165323761Y-74550209D01*
X165565666Y-74550209D01*
X165759190Y-74864685D02*
X166146238Y-74864685D01*
X166388142Y-75058209D02*
X166388142Y-74550209D01*
X166557476Y-74913066D01*
X166726809Y-74550209D01*
X166726809Y-75058209D01*
X166944523Y-75034019D02*
X167017095Y-75058209D01*
X167138047Y-75058209D01*
X167186428Y-75034019D01*
X167210619Y-75009828D01*
X167234809Y-74961447D01*
X167234809Y-74913066D01*
X167210619Y-74864685D01*
X167186428Y-74840495D01*
X167138047Y-74816304D01*
X167041285Y-74792114D01*
X166992904Y-74767923D01*
X166968714Y-74743733D01*
X166944523Y-74695352D01*
X166944523Y-74646971D01*
X166968714Y-74598590D01*
X166992904Y-74574400D01*
X167041285Y-74550209D01*
X167162238Y-74550209D01*
X167234809Y-74574400D01*
X167452523Y-75058209D02*
X167452523Y-74550209D01*
X167621857Y-74913066D01*
X167791190Y-74550209D01*
X167791190Y-75058209D01*
X168202428Y-74792114D02*
X168033095Y-74792114D01*
X168033095Y-75058209D02*
X168033095Y-74550209D01*
X168275000Y-74550209D01*
X168565285Y-74550209D02*
X168613666Y-74550209D01*
X168662047Y-74574400D01*
X168686238Y-74598590D01*
X168710428Y-74646971D01*
X168734619Y-74743733D01*
X168734619Y-74864685D01*
X168710428Y-74961447D01*
X168686238Y-75009828D01*
X168662047Y-75034019D01*
X168613666Y-75058209D01*
X168565285Y-75058209D01*
X168516904Y-75034019D01*
X168492714Y-75009828D01*
X168468523Y-74961447D01*
X168444333Y-74864685D01*
X168444333Y-74743733D01*
X168468523Y-74646971D01*
X168492714Y-74598590D01*
X168516904Y-74574400D01*
X168565285Y-74550209D01*
X169194238Y-74550209D02*
X168952333Y-74550209D01*
X168928142Y-74792114D01*
X168952333Y-74767923D01*
X169000714Y-74743733D01*
X169121666Y-74743733D01*
X169170047Y-74767923D01*
X169194238Y-74792114D01*
X169218428Y-74840495D01*
X169218428Y-74961447D01*
X169194238Y-75009828D01*
X169170047Y-75034019D01*
X169121666Y-75058209D01*
X169000714Y-75058209D01*
X168952333Y-75034019D01*
X168928142Y-75009828D01*
X169532904Y-74550209D02*
X169581285Y-74550209D01*
X169629666Y-74574400D01*
X169653857Y-74598590D01*
X169678047Y-74646971D01*
X169702238Y-74743733D01*
X169702238Y-74864685D01*
X169678047Y-74961447D01*
X169653857Y-75009828D01*
X169629666Y-75034019D01*
X169581285Y-75058209D01*
X169532904Y-75058209D01*
X169484523Y-75034019D01*
X169460333Y-75009828D01*
X169436142Y-74961447D01*
X169411952Y-74864685D01*
X169411952Y-74743733D01*
X169436142Y-74646971D01*
X169460333Y-74598590D01*
X169484523Y-74574400D01*
X169532904Y-74550209D01*
X169919952Y-74864685D02*
X170307000Y-74864685D01*
X170524714Y-74598590D02*
X170548904Y-74574400D01*
X170597285Y-74550209D01*
X170718238Y-74550209D01*
X170766619Y-74574400D01*
X170790809Y-74598590D01*
X170815000Y-74646971D01*
X170815000Y-74695352D01*
X170790809Y-74767923D01*
X170500523Y-75058209D01*
X170815000Y-75058209D01*
D10*
X167560666Y-77144571D02*
X167227333Y-77144571D01*
X167227333Y-77668380D02*
X167227333Y-76668380D01*
X167703523Y-76668380D01*
X168608285Y-77668380D02*
X168036857Y-77668380D01*
X168322571Y-77668380D02*
X168322571Y-76668380D01*
X168227333Y-76811238D01*
X168132095Y-76906476D01*
X168036857Y-76954095D01*
D15*
%TO.C,FB1*%
X166448014Y-92047785D02*
X166502442Y-92065928D01*
X166520585Y-92084071D01*
X166538728Y-92120357D01*
X166538728Y-92174785D01*
X166520585Y-92211071D01*
X166502442Y-92229214D01*
X166466157Y-92247357D01*
X166321014Y-92247357D01*
X166321014Y-91866357D01*
X166448014Y-91866357D01*
X166484300Y-91884500D01*
X166502442Y-91902642D01*
X166520585Y-91938928D01*
X166520585Y-91975214D01*
X166502442Y-92011500D01*
X166484300Y-92029642D01*
X166448014Y-92047785D01*
X166321014Y-92047785D01*
X166883442Y-92247357D02*
X166702014Y-92247357D01*
X166702014Y-91866357D01*
X167010442Y-92247357D02*
X167010442Y-91866357D01*
X167137442Y-92138500D01*
X167264442Y-91866357D01*
X167264442Y-92247357D01*
X167427728Y-91902642D02*
X167445871Y-91884500D01*
X167482157Y-91866357D01*
X167572871Y-91866357D01*
X167609157Y-91884500D01*
X167627300Y-91902642D01*
X167645442Y-91938928D01*
X167645442Y-91975214D01*
X167627300Y-92029642D01*
X167409585Y-92247357D01*
X167645442Y-92247357D01*
X168008300Y-92247357D02*
X167790585Y-92247357D01*
X167899442Y-92247357D02*
X167899442Y-91866357D01*
X167863157Y-91920785D01*
X167826871Y-91957071D01*
X167790585Y-91975214D01*
X168171585Y-92247357D02*
X168171585Y-91866357D01*
X168316728Y-91866357D01*
X168353014Y-91884500D01*
X168371157Y-91902642D01*
X168389300Y-91938928D01*
X168389300Y-91993357D01*
X168371157Y-92029642D01*
X168353014Y-92047785D01*
X168316728Y-92065928D01*
X168171585Y-92065928D01*
X168752157Y-91884500D02*
X168715871Y-91866357D01*
X168661442Y-91866357D01*
X168607014Y-91884500D01*
X168570728Y-91920785D01*
X168552585Y-91957071D01*
X168534442Y-92029642D01*
X168534442Y-92084071D01*
X168552585Y-92156642D01*
X168570728Y-92192928D01*
X168607014Y-92229214D01*
X168661442Y-92247357D01*
X168697728Y-92247357D01*
X168752157Y-92229214D01*
X168770300Y-92211071D01*
X168770300Y-92084071D01*
X168697728Y-92084071D01*
X168915442Y-91902642D02*
X168933585Y-91884500D01*
X168969871Y-91866357D01*
X169060585Y-91866357D01*
X169096871Y-91884500D01*
X169115014Y-91902642D01*
X169133157Y-91938928D01*
X169133157Y-91975214D01*
X169115014Y-92029642D01*
X168897300Y-92247357D01*
X169133157Y-92247357D01*
X169278300Y-91902642D02*
X169296442Y-91884500D01*
X169332728Y-91866357D01*
X169423442Y-91866357D01*
X169459728Y-91884500D01*
X169477871Y-91902642D01*
X169496014Y-91938928D01*
X169496014Y-91975214D01*
X169477871Y-92029642D01*
X169260157Y-92247357D01*
X169496014Y-92247357D01*
X169858871Y-92247357D02*
X169641157Y-92247357D01*
X169750014Y-92247357D02*
X169750014Y-91866357D01*
X169713728Y-91920785D01*
X169677442Y-91957071D01*
X169641157Y-91975214D01*
X170004014Y-92229214D02*
X170058442Y-92247357D01*
X170149157Y-92247357D01*
X170185442Y-92229214D01*
X170203585Y-92211071D01*
X170221728Y-92174785D01*
X170221728Y-92138500D01*
X170203585Y-92102214D01*
X170185442Y-92084071D01*
X170149157Y-92065928D01*
X170076585Y-92047785D01*
X170040300Y-92029642D01*
X170022157Y-92011500D01*
X170004014Y-91975214D01*
X170004014Y-91938928D01*
X170022157Y-91902642D01*
X170040300Y-91884500D01*
X170076585Y-91866357D01*
X170167300Y-91866357D01*
X170221728Y-91884500D01*
X170385014Y-92247357D02*
X170385014Y-91866357D01*
X170602728Y-92247357D01*
X170602728Y-91866357D01*
X170983728Y-92247357D02*
X170766014Y-92247357D01*
X170874871Y-92247357D02*
X170874871Y-91866357D01*
X170838585Y-91920785D01*
X170802300Y-91957071D01*
X170766014Y-91975214D01*
X171147014Y-92247357D02*
X171147014Y-91866357D01*
X171237728Y-91866357D01*
X171292157Y-91884500D01*
X171328442Y-91920785D01*
X171346585Y-91957071D01*
X171364728Y-92029642D01*
X171364728Y-92084071D01*
X171346585Y-92156642D01*
X171328442Y-92192928D01*
X171292157Y-92229214D01*
X171237728Y-92247357D01*
X171147014Y-92247357D01*
D11*
X167477333Y-90642285D02*
X167310666Y-90642285D01*
X167310666Y-90904190D02*
X167310666Y-90404190D01*
X167548761Y-90404190D01*
X167905904Y-90642285D02*
X167977333Y-90666095D01*
X168001142Y-90689904D01*
X168024952Y-90737523D01*
X168024952Y-90808952D01*
X168001142Y-90856571D01*
X167977333Y-90880380D01*
X167929714Y-90904190D01*
X167739238Y-90904190D01*
X167739238Y-90404190D01*
X167905904Y-90404190D01*
X167953523Y-90428000D01*
X167977333Y-90451809D01*
X168001142Y-90499428D01*
X168001142Y-90547047D01*
X167977333Y-90594666D01*
X167953523Y-90618476D01*
X167905904Y-90642285D01*
X167739238Y-90642285D01*
X168501142Y-90904190D02*
X168215428Y-90904190D01*
X168358285Y-90904190D02*
X168358285Y-90404190D01*
X168310666Y-90475619D01*
X168263047Y-90523238D01*
X168215428Y-90547047D01*
D10*
%TO.C,FID1*%
X166910047Y-68686371D02*
X166576714Y-68686371D01*
X166576714Y-69210180D02*
X166576714Y-68210180D01*
X167052904Y-68210180D01*
X167433857Y-69210180D02*
X167433857Y-68543514D01*
X167433857Y-68210180D02*
X167386238Y-68257800D01*
X167433857Y-68305419D01*
X167481476Y-68257800D01*
X167433857Y-68210180D01*
X167433857Y-68305419D01*
X168338619Y-69210180D02*
X168338619Y-68210180D01*
X168338619Y-69162561D02*
X168243380Y-69210180D01*
X168052904Y-69210180D01*
X167957666Y-69162561D01*
X167910047Y-69114942D01*
X167862428Y-69019704D01*
X167862428Y-68733990D01*
X167910047Y-68638752D01*
X167957666Y-68591133D01*
X168052904Y-68543514D01*
X168243380Y-68543514D01*
X168338619Y-68591133D01*
X169243380Y-68543514D02*
X169243380Y-69210180D01*
X168814809Y-68543514D02*
X168814809Y-69067323D01*
X168862428Y-69162561D01*
X168957666Y-69210180D01*
X169100523Y-69210180D01*
X169195761Y-69162561D01*
X169243380Y-69114942D01*
X170148142Y-69162561D02*
X170052904Y-69210180D01*
X169862428Y-69210180D01*
X169767190Y-69162561D01*
X169719571Y-69114942D01*
X169671952Y-69019704D01*
X169671952Y-68733990D01*
X169719571Y-68638752D01*
X169767190Y-68591133D01*
X169862428Y-68543514D01*
X170052904Y-68543514D01*
X170148142Y-68591133D01*
X170576714Y-69210180D02*
X170576714Y-68543514D01*
X170576714Y-68210180D02*
X170529095Y-68257800D01*
X170576714Y-68305419D01*
X170624333Y-68257800D01*
X170576714Y-68210180D01*
X170576714Y-68305419D01*
X171481476Y-69210180D02*
X171481476Y-68686371D01*
X171433857Y-68591133D01*
X171338619Y-68543514D01*
X171148142Y-68543514D01*
X171052904Y-68591133D01*
X171481476Y-69162561D02*
X171386238Y-69210180D01*
X171148142Y-69210180D01*
X171052904Y-69162561D01*
X171005285Y-69067323D01*
X171005285Y-68972085D01*
X171052904Y-68876847D01*
X171148142Y-68829228D01*
X171386238Y-68829228D01*
X171481476Y-68781609D01*
X172100523Y-69210180D02*
X172005285Y-69162561D01*
X171957666Y-69067323D01*
X171957666Y-68210180D01*
D16*
X169096571Y-70590571D02*
X168996571Y-70590571D01*
X168996571Y-70747714D02*
X168996571Y-70447714D01*
X169139428Y-70447714D01*
X169253714Y-70747714D02*
X169253714Y-70447714D01*
X169396571Y-70747714D02*
X169396571Y-70447714D01*
X169468000Y-70447714D01*
X169510857Y-70462000D01*
X169539428Y-70490571D01*
X169553714Y-70519142D01*
X169568000Y-70576285D01*
X169568000Y-70619142D01*
X169553714Y-70676285D01*
X169539428Y-70704857D01*
X169510857Y-70733428D01*
X169468000Y-70747714D01*
X169396571Y-70747714D01*
X169853714Y-70747714D02*
X169682285Y-70747714D01*
X169768000Y-70747714D02*
X169768000Y-70447714D01*
X169739428Y-70490571D01*
X169710857Y-70519142D01*
X169682285Y-70533428D01*
D10*
%TO.C,FID2*%
X169323047Y-99210571D02*
X168989714Y-99210571D01*
X168989714Y-99734380D02*
X168989714Y-98734380D01*
X169465904Y-98734380D01*
X169846857Y-99734380D02*
X169846857Y-99067714D01*
X169846857Y-98734380D02*
X169799238Y-98782000D01*
X169846857Y-98829619D01*
X169894476Y-98782000D01*
X169846857Y-98734380D01*
X169846857Y-98829619D01*
X170751619Y-99734380D02*
X170751619Y-98734380D01*
X170751619Y-99686761D02*
X170656380Y-99734380D01*
X170465904Y-99734380D01*
X170370666Y-99686761D01*
X170323047Y-99639142D01*
X170275428Y-99543904D01*
X170275428Y-99258190D01*
X170323047Y-99162952D01*
X170370666Y-99115333D01*
X170465904Y-99067714D01*
X170656380Y-99067714D01*
X170751619Y-99115333D01*
X171656380Y-99067714D02*
X171656380Y-99734380D01*
X171227809Y-99067714D02*
X171227809Y-99591523D01*
X171275428Y-99686761D01*
X171370666Y-99734380D01*
X171513523Y-99734380D01*
X171608761Y-99686761D01*
X171656380Y-99639142D01*
X172561142Y-99686761D02*
X172465904Y-99734380D01*
X172275428Y-99734380D01*
X172180190Y-99686761D01*
X172132571Y-99639142D01*
X172084952Y-99543904D01*
X172084952Y-99258190D01*
X172132571Y-99162952D01*
X172180190Y-99115333D01*
X172275428Y-99067714D01*
X172465904Y-99067714D01*
X172561142Y-99115333D01*
X172989714Y-99734380D02*
X172989714Y-99067714D01*
X172989714Y-98734380D02*
X172942095Y-98782000D01*
X172989714Y-98829619D01*
X173037333Y-98782000D01*
X172989714Y-98734380D01*
X172989714Y-98829619D01*
X173894476Y-99734380D02*
X173894476Y-99210571D01*
X173846857Y-99115333D01*
X173751619Y-99067714D01*
X173561142Y-99067714D01*
X173465904Y-99115333D01*
X173894476Y-99686761D02*
X173799238Y-99734380D01*
X173561142Y-99734380D01*
X173465904Y-99686761D01*
X173418285Y-99591523D01*
X173418285Y-99496285D01*
X173465904Y-99401047D01*
X173561142Y-99353428D01*
X173799238Y-99353428D01*
X173894476Y-99305809D01*
X174513523Y-99734380D02*
X174418285Y-99686761D01*
X174370666Y-99591523D01*
X174370666Y-98734380D01*
D16*
X171382571Y-97260571D02*
X171282571Y-97260571D01*
X171282571Y-97417714D02*
X171282571Y-97117714D01*
X171425428Y-97117714D01*
X171539714Y-97417714D02*
X171539714Y-97117714D01*
X171682571Y-97417714D02*
X171682571Y-97117714D01*
X171754000Y-97117714D01*
X171796857Y-97132000D01*
X171825428Y-97160571D01*
X171839714Y-97189142D01*
X171854000Y-97246285D01*
X171854000Y-97289142D01*
X171839714Y-97346285D01*
X171825428Y-97374857D01*
X171796857Y-97403428D01*
X171754000Y-97417714D01*
X171682571Y-97417714D01*
X171968285Y-97146285D02*
X171982571Y-97132000D01*
X172011142Y-97117714D01*
X172082571Y-97117714D01*
X172111142Y-97132000D01*
X172125428Y-97146285D01*
X172139714Y-97174857D01*
X172139714Y-97203428D01*
X172125428Y-97246285D01*
X171954000Y-97417714D01*
X172139714Y-97417714D01*
D10*
%TO.C,FID3*%
X127616247Y-72007171D02*
X127282914Y-72007171D01*
X127282914Y-72530980D02*
X127282914Y-71530980D01*
X127759104Y-71530980D01*
X128140057Y-72530980D02*
X128140057Y-71864314D01*
X128140057Y-71530980D02*
X128092438Y-71578600D01*
X128140057Y-71626219D01*
X128187676Y-71578600D01*
X128140057Y-71530980D01*
X128140057Y-71626219D01*
X129044819Y-72530980D02*
X129044819Y-71530980D01*
X129044819Y-72483361D02*
X128949580Y-72530980D01*
X128759104Y-72530980D01*
X128663866Y-72483361D01*
X128616247Y-72435742D01*
X128568628Y-72340504D01*
X128568628Y-72054790D01*
X128616247Y-71959552D01*
X128663866Y-71911933D01*
X128759104Y-71864314D01*
X128949580Y-71864314D01*
X129044819Y-71911933D01*
X129949580Y-71864314D02*
X129949580Y-72530980D01*
X129521009Y-71864314D02*
X129521009Y-72388123D01*
X129568628Y-72483361D01*
X129663866Y-72530980D01*
X129806723Y-72530980D01*
X129901961Y-72483361D01*
X129949580Y-72435742D01*
X130854342Y-72483361D02*
X130759104Y-72530980D01*
X130568628Y-72530980D01*
X130473390Y-72483361D01*
X130425771Y-72435742D01*
X130378152Y-72340504D01*
X130378152Y-72054790D01*
X130425771Y-71959552D01*
X130473390Y-71911933D01*
X130568628Y-71864314D01*
X130759104Y-71864314D01*
X130854342Y-71911933D01*
X131282914Y-72530980D02*
X131282914Y-71864314D01*
X131282914Y-71530980D02*
X131235295Y-71578600D01*
X131282914Y-71626219D01*
X131330533Y-71578600D01*
X131282914Y-71530980D01*
X131282914Y-71626219D01*
X132187676Y-72530980D02*
X132187676Y-72007171D01*
X132140057Y-71911933D01*
X132044819Y-71864314D01*
X131854342Y-71864314D01*
X131759104Y-71911933D01*
X132187676Y-72483361D02*
X132092438Y-72530980D01*
X131854342Y-72530980D01*
X131759104Y-72483361D01*
X131711485Y-72388123D01*
X131711485Y-72292885D01*
X131759104Y-72197647D01*
X131854342Y-72150028D01*
X132092438Y-72150028D01*
X132187676Y-72102409D01*
X132806723Y-72530980D02*
X132711485Y-72483361D01*
X132663866Y-72388123D01*
X132663866Y-71530980D01*
D16*
X129675771Y-70057171D02*
X129575771Y-70057171D01*
X129575771Y-70214314D02*
X129575771Y-69914314D01*
X129718628Y-69914314D01*
X129832914Y-70214314D02*
X129832914Y-69914314D01*
X129975771Y-70214314D02*
X129975771Y-69914314D01*
X130047200Y-69914314D01*
X130090057Y-69928600D01*
X130118628Y-69957171D01*
X130132914Y-69985742D01*
X130147200Y-70042885D01*
X130147200Y-70085742D01*
X130132914Y-70142885D01*
X130118628Y-70171457D01*
X130090057Y-70200028D01*
X130047200Y-70214314D01*
X129975771Y-70214314D01*
X130247200Y-69914314D02*
X130432914Y-69914314D01*
X130332914Y-70028600D01*
X130375771Y-70028600D01*
X130404342Y-70042885D01*
X130418628Y-70057171D01*
X130432914Y-70085742D01*
X130432914Y-70157171D01*
X130418628Y-70185742D01*
X130404342Y-70200028D01*
X130375771Y-70214314D01*
X130290057Y-70214314D01*
X130261485Y-70200028D01*
X130247200Y-70185742D01*
D10*
%TO.C,FID4*%
X134829847Y-100099571D02*
X134496514Y-100099571D01*
X134496514Y-100623380D02*
X134496514Y-99623380D01*
X134972704Y-99623380D01*
X135353657Y-100623380D02*
X135353657Y-99956714D01*
X135353657Y-99623380D02*
X135306038Y-99671000D01*
X135353657Y-99718619D01*
X135401276Y-99671000D01*
X135353657Y-99623380D01*
X135353657Y-99718619D01*
X136258419Y-100623380D02*
X136258419Y-99623380D01*
X136258419Y-100575761D02*
X136163180Y-100623380D01*
X135972704Y-100623380D01*
X135877466Y-100575761D01*
X135829847Y-100528142D01*
X135782228Y-100432904D01*
X135782228Y-100147190D01*
X135829847Y-100051952D01*
X135877466Y-100004333D01*
X135972704Y-99956714D01*
X136163180Y-99956714D01*
X136258419Y-100004333D01*
X137163180Y-99956714D02*
X137163180Y-100623380D01*
X136734609Y-99956714D02*
X136734609Y-100480523D01*
X136782228Y-100575761D01*
X136877466Y-100623380D01*
X137020323Y-100623380D01*
X137115561Y-100575761D01*
X137163180Y-100528142D01*
X138067942Y-100575761D02*
X137972704Y-100623380D01*
X137782228Y-100623380D01*
X137686990Y-100575761D01*
X137639371Y-100528142D01*
X137591752Y-100432904D01*
X137591752Y-100147190D01*
X137639371Y-100051952D01*
X137686990Y-100004333D01*
X137782228Y-99956714D01*
X137972704Y-99956714D01*
X138067942Y-100004333D01*
X138496514Y-100623380D02*
X138496514Y-99956714D01*
X138496514Y-99623380D02*
X138448895Y-99671000D01*
X138496514Y-99718619D01*
X138544133Y-99671000D01*
X138496514Y-99623380D01*
X138496514Y-99718619D01*
X139401276Y-100623380D02*
X139401276Y-100099571D01*
X139353657Y-100004333D01*
X139258419Y-99956714D01*
X139067942Y-99956714D01*
X138972704Y-100004333D01*
X139401276Y-100575761D02*
X139306038Y-100623380D01*
X139067942Y-100623380D01*
X138972704Y-100575761D01*
X138925085Y-100480523D01*
X138925085Y-100385285D01*
X138972704Y-100290047D01*
X139067942Y-100242428D01*
X139306038Y-100242428D01*
X139401276Y-100194809D01*
X140020323Y-100623380D02*
X139925085Y-100575761D01*
X139877466Y-100480523D01*
X139877466Y-99623380D01*
D16*
X136889371Y-98149571D02*
X136789371Y-98149571D01*
X136789371Y-98306714D02*
X136789371Y-98006714D01*
X136932228Y-98006714D01*
X137046514Y-98306714D02*
X137046514Y-98006714D01*
X137189371Y-98306714D02*
X137189371Y-98006714D01*
X137260800Y-98006714D01*
X137303657Y-98021000D01*
X137332228Y-98049571D01*
X137346514Y-98078142D01*
X137360800Y-98135285D01*
X137360800Y-98178142D01*
X137346514Y-98235285D01*
X137332228Y-98263857D01*
X137303657Y-98292428D01*
X137260800Y-98306714D01*
X137189371Y-98306714D01*
X137617942Y-98106714D02*
X137617942Y-98306714D01*
X137546514Y-97992428D02*
X137475085Y-98206714D01*
X137660800Y-98206714D01*
D10*
%TO.C,H1*%
X173961071Y-100987261D02*
X173961071Y-100352261D01*
X174172738Y-100805833D01*
X174384404Y-100352261D01*
X174384404Y-100987261D01*
X174777500Y-100987261D02*
X174717023Y-100957023D01*
X174686785Y-100926785D01*
X174656547Y-100866309D01*
X174656547Y-100684880D01*
X174686785Y-100624404D01*
X174717023Y-100594166D01*
X174777500Y-100563928D01*
X174868214Y-100563928D01*
X174928690Y-100594166D01*
X174958928Y-100624404D01*
X174989166Y-100684880D01*
X174989166Y-100866309D01*
X174958928Y-100926785D01*
X174928690Y-100957023D01*
X174868214Y-100987261D01*
X174777500Y-100987261D01*
X175533452Y-100563928D02*
X175533452Y-100987261D01*
X175261309Y-100563928D02*
X175261309Y-100896547D01*
X175291547Y-100957023D01*
X175352023Y-100987261D01*
X175442738Y-100987261D01*
X175503214Y-100957023D01*
X175533452Y-100926785D01*
X175835833Y-100563928D02*
X175835833Y-100987261D01*
X175835833Y-100624404D02*
X175866071Y-100594166D01*
X175926547Y-100563928D01*
X176017261Y-100563928D01*
X176077738Y-100594166D01*
X176107976Y-100654642D01*
X176107976Y-100987261D01*
X176319642Y-100563928D02*
X176561547Y-100563928D01*
X176410357Y-100352261D02*
X176410357Y-100896547D01*
X176440595Y-100957023D01*
X176501071Y-100987261D01*
X176561547Y-100987261D01*
X176773214Y-100987261D02*
X176773214Y-100563928D01*
X176773214Y-100352261D02*
X176742976Y-100382500D01*
X176773214Y-100412738D01*
X176803452Y-100382500D01*
X176773214Y-100352261D01*
X176773214Y-100412738D01*
X177075595Y-100563928D02*
X177075595Y-100987261D01*
X177075595Y-100624404D02*
X177105833Y-100594166D01*
X177166309Y-100563928D01*
X177257023Y-100563928D01*
X177317500Y-100594166D01*
X177347738Y-100654642D01*
X177347738Y-100987261D01*
X177922261Y-100563928D02*
X177922261Y-101077976D01*
X177892023Y-101138452D01*
X177861785Y-101168690D01*
X177801309Y-101198928D01*
X177710595Y-101198928D01*
X177650119Y-101168690D01*
X177922261Y-100957023D02*
X177861785Y-100987261D01*
X177740833Y-100987261D01*
X177680357Y-100957023D01*
X177650119Y-100926785D01*
X177619880Y-100866309D01*
X177619880Y-100684880D01*
X177650119Y-100624404D01*
X177680357Y-100594166D01*
X177740833Y-100563928D01*
X177861785Y-100563928D01*
X177922261Y-100594166D01*
X178224642Y-100987261D02*
X178224642Y-100352261D01*
X178224642Y-100654642D02*
X178587500Y-100654642D01*
X178587500Y-100987261D02*
X178587500Y-100352261D01*
X178980595Y-100987261D02*
X178920119Y-100957023D01*
X178889880Y-100926785D01*
X178859642Y-100866309D01*
X178859642Y-100684880D01*
X178889880Y-100624404D01*
X178920119Y-100594166D01*
X178980595Y-100563928D01*
X179071309Y-100563928D01*
X179131785Y-100594166D01*
X179162023Y-100624404D01*
X179192261Y-100684880D01*
X179192261Y-100866309D01*
X179162023Y-100926785D01*
X179131785Y-100957023D01*
X179071309Y-100987261D01*
X178980595Y-100987261D01*
X179555119Y-100987261D02*
X179494642Y-100957023D01*
X179464404Y-100896547D01*
X179464404Y-100352261D01*
X180038928Y-100957023D02*
X179978452Y-100987261D01*
X179857500Y-100987261D01*
X179797023Y-100957023D01*
X179766785Y-100896547D01*
X179766785Y-100654642D01*
X179797023Y-100594166D01*
X179857500Y-100563928D01*
X179978452Y-100563928D01*
X180038928Y-100594166D01*
X180069166Y-100654642D01*
X180069166Y-100715119D01*
X179766785Y-100775595D01*
X176538095Y-97452380D02*
X176538095Y-96452380D01*
X176538095Y-96928571D02*
X177109523Y-96928571D01*
X177109523Y-97452380D02*
X177109523Y-96452380D01*
X178109523Y-97452380D02*
X177538095Y-97452380D01*
X177823809Y-97452380D02*
X177823809Y-96452380D01*
X177728571Y-96595238D01*
X177633333Y-96690476D01*
X177538095Y-96738095D01*
%TO.C,H2*%
X119961071Y-100987261D02*
X119961071Y-100352261D01*
X120172738Y-100805833D01*
X120384404Y-100352261D01*
X120384404Y-100987261D01*
X120777500Y-100987261D02*
X120717023Y-100957023D01*
X120686785Y-100926785D01*
X120656547Y-100866309D01*
X120656547Y-100684880D01*
X120686785Y-100624404D01*
X120717023Y-100594166D01*
X120777500Y-100563928D01*
X120868214Y-100563928D01*
X120928690Y-100594166D01*
X120958928Y-100624404D01*
X120989166Y-100684880D01*
X120989166Y-100866309D01*
X120958928Y-100926785D01*
X120928690Y-100957023D01*
X120868214Y-100987261D01*
X120777500Y-100987261D01*
X121533452Y-100563928D02*
X121533452Y-100987261D01*
X121261309Y-100563928D02*
X121261309Y-100896547D01*
X121291547Y-100957023D01*
X121352023Y-100987261D01*
X121442738Y-100987261D01*
X121503214Y-100957023D01*
X121533452Y-100926785D01*
X121835833Y-100563928D02*
X121835833Y-100987261D01*
X121835833Y-100624404D02*
X121866071Y-100594166D01*
X121926547Y-100563928D01*
X122017261Y-100563928D01*
X122077738Y-100594166D01*
X122107976Y-100654642D01*
X122107976Y-100987261D01*
X122319642Y-100563928D02*
X122561547Y-100563928D01*
X122410357Y-100352261D02*
X122410357Y-100896547D01*
X122440595Y-100957023D01*
X122501071Y-100987261D01*
X122561547Y-100987261D01*
X122773214Y-100987261D02*
X122773214Y-100563928D01*
X122773214Y-100352261D02*
X122742976Y-100382500D01*
X122773214Y-100412738D01*
X122803452Y-100382500D01*
X122773214Y-100352261D01*
X122773214Y-100412738D01*
X123075595Y-100563928D02*
X123075595Y-100987261D01*
X123075595Y-100624404D02*
X123105833Y-100594166D01*
X123166309Y-100563928D01*
X123257023Y-100563928D01*
X123317500Y-100594166D01*
X123347738Y-100654642D01*
X123347738Y-100987261D01*
X123922261Y-100563928D02*
X123922261Y-101077976D01*
X123892023Y-101138452D01*
X123861785Y-101168690D01*
X123801309Y-101198928D01*
X123710595Y-101198928D01*
X123650119Y-101168690D01*
X123922261Y-100957023D02*
X123861785Y-100987261D01*
X123740833Y-100987261D01*
X123680357Y-100957023D01*
X123650119Y-100926785D01*
X123619880Y-100866309D01*
X123619880Y-100684880D01*
X123650119Y-100624404D01*
X123680357Y-100594166D01*
X123740833Y-100563928D01*
X123861785Y-100563928D01*
X123922261Y-100594166D01*
X124224642Y-100987261D02*
X124224642Y-100352261D01*
X124224642Y-100654642D02*
X124587500Y-100654642D01*
X124587500Y-100987261D02*
X124587500Y-100352261D01*
X124980595Y-100987261D02*
X124920119Y-100957023D01*
X124889880Y-100926785D01*
X124859642Y-100866309D01*
X124859642Y-100684880D01*
X124889880Y-100624404D01*
X124920119Y-100594166D01*
X124980595Y-100563928D01*
X125071309Y-100563928D01*
X125131785Y-100594166D01*
X125162023Y-100624404D01*
X125192261Y-100684880D01*
X125192261Y-100866309D01*
X125162023Y-100926785D01*
X125131785Y-100957023D01*
X125071309Y-100987261D01*
X124980595Y-100987261D01*
X125555119Y-100987261D02*
X125494642Y-100957023D01*
X125464404Y-100896547D01*
X125464404Y-100352261D01*
X126038928Y-100957023D02*
X125978452Y-100987261D01*
X125857500Y-100987261D01*
X125797023Y-100957023D01*
X125766785Y-100896547D01*
X125766785Y-100654642D01*
X125797023Y-100594166D01*
X125857500Y-100563928D01*
X125978452Y-100563928D01*
X126038928Y-100594166D01*
X126069166Y-100654642D01*
X126069166Y-100715119D01*
X125766785Y-100775595D01*
X122538095Y-97452380D02*
X122538095Y-96452380D01*
X122538095Y-96928571D02*
X123109523Y-96928571D01*
X123109523Y-97452380D02*
X123109523Y-96452380D01*
X123538095Y-96547619D02*
X123585714Y-96500000D01*
X123680952Y-96452380D01*
X123919047Y-96452380D01*
X124014285Y-96500000D01*
X124061904Y-96547619D01*
X124109523Y-96642857D01*
X124109523Y-96738095D01*
X124061904Y-96880952D01*
X123490476Y-97452380D01*
X124109523Y-97452380D01*
%TO.C,H3*%
X119961071Y-73487261D02*
X119961071Y-72852261D01*
X120172738Y-73305833D01*
X120384404Y-72852261D01*
X120384404Y-73487261D01*
X120777500Y-73487261D02*
X120717023Y-73457023D01*
X120686785Y-73426785D01*
X120656547Y-73366309D01*
X120656547Y-73184880D01*
X120686785Y-73124404D01*
X120717023Y-73094166D01*
X120777500Y-73063928D01*
X120868214Y-73063928D01*
X120928690Y-73094166D01*
X120958928Y-73124404D01*
X120989166Y-73184880D01*
X120989166Y-73366309D01*
X120958928Y-73426785D01*
X120928690Y-73457023D01*
X120868214Y-73487261D01*
X120777500Y-73487261D01*
X121533452Y-73063928D02*
X121533452Y-73487261D01*
X121261309Y-73063928D02*
X121261309Y-73396547D01*
X121291547Y-73457023D01*
X121352023Y-73487261D01*
X121442738Y-73487261D01*
X121503214Y-73457023D01*
X121533452Y-73426785D01*
X121835833Y-73063928D02*
X121835833Y-73487261D01*
X121835833Y-73124404D02*
X121866071Y-73094166D01*
X121926547Y-73063928D01*
X122017261Y-73063928D01*
X122077738Y-73094166D01*
X122107976Y-73154642D01*
X122107976Y-73487261D01*
X122319642Y-73063928D02*
X122561547Y-73063928D01*
X122410357Y-72852261D02*
X122410357Y-73396547D01*
X122440595Y-73457023D01*
X122501071Y-73487261D01*
X122561547Y-73487261D01*
X122773214Y-73487261D02*
X122773214Y-73063928D01*
X122773214Y-72852261D02*
X122742976Y-72882500D01*
X122773214Y-72912738D01*
X122803452Y-72882500D01*
X122773214Y-72852261D01*
X122773214Y-72912738D01*
X123075595Y-73063928D02*
X123075595Y-73487261D01*
X123075595Y-73124404D02*
X123105833Y-73094166D01*
X123166309Y-73063928D01*
X123257023Y-73063928D01*
X123317500Y-73094166D01*
X123347738Y-73154642D01*
X123347738Y-73487261D01*
X123922261Y-73063928D02*
X123922261Y-73577976D01*
X123892023Y-73638452D01*
X123861785Y-73668690D01*
X123801309Y-73698928D01*
X123710595Y-73698928D01*
X123650119Y-73668690D01*
X123922261Y-73457023D02*
X123861785Y-73487261D01*
X123740833Y-73487261D01*
X123680357Y-73457023D01*
X123650119Y-73426785D01*
X123619880Y-73366309D01*
X123619880Y-73184880D01*
X123650119Y-73124404D01*
X123680357Y-73094166D01*
X123740833Y-73063928D01*
X123861785Y-73063928D01*
X123922261Y-73094166D01*
X124224642Y-73487261D02*
X124224642Y-72852261D01*
X124224642Y-73154642D02*
X124587500Y-73154642D01*
X124587500Y-73487261D02*
X124587500Y-72852261D01*
X124980595Y-73487261D02*
X124920119Y-73457023D01*
X124889880Y-73426785D01*
X124859642Y-73366309D01*
X124859642Y-73184880D01*
X124889880Y-73124404D01*
X124920119Y-73094166D01*
X124980595Y-73063928D01*
X125071309Y-73063928D01*
X125131785Y-73094166D01*
X125162023Y-73124404D01*
X125192261Y-73184880D01*
X125192261Y-73366309D01*
X125162023Y-73426785D01*
X125131785Y-73457023D01*
X125071309Y-73487261D01*
X124980595Y-73487261D01*
X125555119Y-73487261D02*
X125494642Y-73457023D01*
X125464404Y-73396547D01*
X125464404Y-72852261D01*
X126038928Y-73457023D02*
X125978452Y-73487261D01*
X125857500Y-73487261D01*
X125797023Y-73457023D01*
X125766785Y-73396547D01*
X125766785Y-73154642D01*
X125797023Y-73094166D01*
X125857500Y-73063928D01*
X125978452Y-73063928D01*
X126038928Y-73094166D01*
X126069166Y-73154642D01*
X126069166Y-73215119D01*
X125766785Y-73275595D01*
X122538095Y-69952380D02*
X122538095Y-68952380D01*
X122538095Y-69428571D02*
X123109523Y-69428571D01*
X123109523Y-69952380D02*
X123109523Y-68952380D01*
X123490476Y-68952380D02*
X124109523Y-68952380D01*
X123776190Y-69333333D01*
X123919047Y-69333333D01*
X124014285Y-69380952D01*
X124061904Y-69428571D01*
X124109523Y-69523809D01*
X124109523Y-69761904D01*
X124061904Y-69857142D01*
X124014285Y-69904761D01*
X123919047Y-69952380D01*
X123633333Y-69952380D01*
X123538095Y-69904761D01*
X123490476Y-69857142D01*
%TO.C,H4*%
X173961071Y-73487261D02*
X173961071Y-72852261D01*
X174172738Y-73305833D01*
X174384404Y-72852261D01*
X174384404Y-73487261D01*
X174777500Y-73487261D02*
X174717023Y-73457023D01*
X174686785Y-73426785D01*
X174656547Y-73366309D01*
X174656547Y-73184880D01*
X174686785Y-73124404D01*
X174717023Y-73094166D01*
X174777500Y-73063928D01*
X174868214Y-73063928D01*
X174928690Y-73094166D01*
X174958928Y-73124404D01*
X174989166Y-73184880D01*
X174989166Y-73366309D01*
X174958928Y-73426785D01*
X174928690Y-73457023D01*
X174868214Y-73487261D01*
X174777500Y-73487261D01*
X175533452Y-73063928D02*
X175533452Y-73487261D01*
X175261309Y-73063928D02*
X175261309Y-73396547D01*
X175291547Y-73457023D01*
X175352023Y-73487261D01*
X175442738Y-73487261D01*
X175503214Y-73457023D01*
X175533452Y-73426785D01*
X175835833Y-73063928D02*
X175835833Y-73487261D01*
X175835833Y-73124404D02*
X175866071Y-73094166D01*
X175926547Y-73063928D01*
X176017261Y-73063928D01*
X176077738Y-73094166D01*
X176107976Y-73154642D01*
X176107976Y-73487261D01*
X176319642Y-73063928D02*
X176561547Y-73063928D01*
X176410357Y-72852261D02*
X176410357Y-73396547D01*
X176440595Y-73457023D01*
X176501071Y-73487261D01*
X176561547Y-73487261D01*
X176773214Y-73487261D02*
X176773214Y-73063928D01*
X176773214Y-72852261D02*
X176742976Y-72882500D01*
X176773214Y-72912738D01*
X176803452Y-72882500D01*
X176773214Y-72852261D01*
X176773214Y-72912738D01*
X177075595Y-73063928D02*
X177075595Y-73487261D01*
X177075595Y-73124404D02*
X177105833Y-73094166D01*
X177166309Y-73063928D01*
X177257023Y-73063928D01*
X177317500Y-73094166D01*
X177347738Y-73154642D01*
X177347738Y-73487261D01*
X177922261Y-73063928D02*
X177922261Y-73577976D01*
X177892023Y-73638452D01*
X177861785Y-73668690D01*
X177801309Y-73698928D01*
X177710595Y-73698928D01*
X177650119Y-73668690D01*
X177922261Y-73457023D02*
X177861785Y-73487261D01*
X177740833Y-73487261D01*
X177680357Y-73457023D01*
X177650119Y-73426785D01*
X177619880Y-73366309D01*
X177619880Y-73184880D01*
X177650119Y-73124404D01*
X177680357Y-73094166D01*
X177740833Y-73063928D01*
X177861785Y-73063928D01*
X177922261Y-73094166D01*
X178224642Y-73487261D02*
X178224642Y-72852261D01*
X178224642Y-73154642D02*
X178587500Y-73154642D01*
X178587500Y-73487261D02*
X178587500Y-72852261D01*
X178980595Y-73487261D02*
X178920119Y-73457023D01*
X178889880Y-73426785D01*
X178859642Y-73366309D01*
X178859642Y-73184880D01*
X178889880Y-73124404D01*
X178920119Y-73094166D01*
X178980595Y-73063928D01*
X179071309Y-73063928D01*
X179131785Y-73094166D01*
X179162023Y-73124404D01*
X179192261Y-73184880D01*
X179192261Y-73366309D01*
X179162023Y-73426785D01*
X179131785Y-73457023D01*
X179071309Y-73487261D01*
X178980595Y-73487261D01*
X179555119Y-73487261D02*
X179494642Y-73457023D01*
X179464404Y-73396547D01*
X179464404Y-72852261D01*
X180038928Y-73457023D02*
X179978452Y-73487261D01*
X179857500Y-73487261D01*
X179797023Y-73457023D01*
X179766785Y-73396547D01*
X179766785Y-73154642D01*
X179797023Y-73094166D01*
X179857500Y-73063928D01*
X179978452Y-73063928D01*
X180038928Y-73094166D01*
X180069166Y-73154642D01*
X180069166Y-73215119D01*
X179766785Y-73275595D01*
X176538095Y-69952380D02*
X176538095Y-68952380D01*
X176538095Y-69428571D02*
X177109523Y-69428571D01*
X177109523Y-69952380D02*
X177109523Y-68952380D01*
X178014285Y-69285714D02*
X178014285Y-69952380D01*
X177776190Y-68904761D02*
X177538095Y-69619047D01*
X178157142Y-69619047D01*
%TO.C,J1*%
X119714190Y-86974371D02*
X119857047Y-87021990D01*
X119904666Y-87069609D01*
X119952285Y-87164847D01*
X119952285Y-87307704D01*
X119904666Y-87402942D01*
X119857047Y-87450561D01*
X119761809Y-87498180D01*
X119380857Y-87498180D01*
X119380857Y-86498180D01*
X119714190Y-86498180D01*
X119809428Y-86545800D01*
X119857047Y-86593419D01*
X119904666Y-86688657D01*
X119904666Y-86783895D01*
X119857047Y-86879133D01*
X119809428Y-86926752D01*
X119714190Y-86974371D01*
X119380857Y-86974371D01*
X120809428Y-87498180D02*
X120809428Y-86974371D01*
X120761809Y-86879133D01*
X120666571Y-86831514D01*
X120476095Y-86831514D01*
X120380857Y-86879133D01*
X120809428Y-87450561D02*
X120714190Y-87498180D01*
X120476095Y-87498180D01*
X120380857Y-87450561D01*
X120333238Y-87355323D01*
X120333238Y-87260085D01*
X120380857Y-87164847D01*
X120476095Y-87117228D01*
X120714190Y-87117228D01*
X120809428Y-87069609D01*
X121285619Y-87498180D02*
X121285619Y-86831514D01*
X121285619Y-87021990D02*
X121333238Y-86926752D01*
X121380857Y-86879133D01*
X121476095Y-86831514D01*
X121571333Y-86831514D01*
X121904666Y-87498180D02*
X121904666Y-86831514D01*
X121904666Y-87021990D02*
X121952285Y-86926752D01*
X121999904Y-86879133D01*
X122095142Y-86831514D01*
X122190380Y-86831514D01*
X122904666Y-87450561D02*
X122809428Y-87498180D01*
X122618952Y-87498180D01*
X122523714Y-87450561D01*
X122476095Y-87355323D01*
X122476095Y-86974371D01*
X122523714Y-86879133D01*
X122618952Y-86831514D01*
X122809428Y-86831514D01*
X122904666Y-86879133D01*
X122952285Y-86974371D01*
X122952285Y-87069609D01*
X122476095Y-87164847D01*
X123523714Y-87498180D02*
X123428476Y-87450561D01*
X123380857Y-87355323D01*
X123380857Y-86498180D01*
X123666571Y-87593419D02*
X124428476Y-87593419D01*
X124952285Y-86498180D02*
X124952285Y-87212466D01*
X124904666Y-87355323D01*
X124809428Y-87450561D01*
X124666571Y-87498180D01*
X124571333Y-87498180D01*
X125857047Y-87498180D02*
X125857047Y-86974371D01*
X125809428Y-86879133D01*
X125714190Y-86831514D01*
X125523714Y-86831514D01*
X125428476Y-86879133D01*
X125857047Y-87450561D02*
X125761809Y-87498180D01*
X125523714Y-87498180D01*
X125428476Y-87450561D01*
X125380857Y-87355323D01*
X125380857Y-87260085D01*
X125428476Y-87164847D01*
X125523714Y-87117228D01*
X125761809Y-87117228D01*
X125857047Y-87069609D01*
X126761809Y-87450561D02*
X126666571Y-87498180D01*
X126476095Y-87498180D01*
X126380857Y-87450561D01*
X126333238Y-87402942D01*
X126285619Y-87307704D01*
X126285619Y-87021990D01*
X126333238Y-86926752D01*
X126380857Y-86879133D01*
X126476095Y-86831514D01*
X126666571Y-86831514D01*
X126761809Y-86879133D01*
X127190380Y-87498180D02*
X127190380Y-86498180D01*
X127285619Y-87117228D02*
X127571333Y-87498180D01*
X127571333Y-86831514D02*
X127190380Y-87212466D01*
X127761809Y-87593419D02*
X128523714Y-87593419D01*
X128714190Y-87450561D02*
X128857047Y-87498180D01*
X129095142Y-87498180D01*
X129190380Y-87450561D01*
X129238000Y-87402942D01*
X129285619Y-87307704D01*
X129285619Y-87212466D01*
X129238000Y-87117228D01*
X129190380Y-87069609D01*
X129095142Y-87021990D01*
X128904666Y-86974371D01*
X128809428Y-86926752D01*
X128761809Y-86879133D01*
X128714190Y-86783895D01*
X128714190Y-86688657D01*
X128761809Y-86593419D01*
X128809428Y-86545800D01*
X128904666Y-86498180D01*
X129142761Y-86498180D01*
X129285619Y-86545800D01*
X129618952Y-86831514D02*
X129809428Y-87498180D01*
X129999904Y-87021990D01*
X130190380Y-87498180D01*
X130380857Y-86831514D01*
X130761809Y-87498180D02*
X130761809Y-86831514D01*
X130761809Y-86498180D02*
X130714190Y-86545800D01*
X130761809Y-86593419D01*
X130809428Y-86545800D01*
X130761809Y-86498180D01*
X130761809Y-86593419D01*
X131095142Y-86831514D02*
X131476095Y-86831514D01*
X131238000Y-86498180D02*
X131238000Y-87355323D01*
X131285619Y-87450561D01*
X131380857Y-87498180D01*
X131476095Y-87498180D01*
X132238000Y-87450561D02*
X132142761Y-87498180D01*
X131952285Y-87498180D01*
X131857047Y-87450561D01*
X131809428Y-87402942D01*
X131761809Y-87307704D01*
X131761809Y-87021990D01*
X131809428Y-86926752D01*
X131857047Y-86879133D01*
X131952285Y-86831514D01*
X132142761Y-86831514D01*
X132238000Y-86879133D01*
X132666571Y-87498180D02*
X132666571Y-86498180D01*
X133095142Y-87498180D02*
X133095142Y-86974371D01*
X133047523Y-86879133D01*
X132952285Y-86831514D01*
X132809428Y-86831514D01*
X132714190Y-86879133D01*
X132666571Y-86926752D01*
X125266666Y-81152380D02*
X125266666Y-81866666D01*
X125219047Y-82009523D01*
X125123809Y-82104761D01*
X124980952Y-82152380D01*
X124885714Y-82152380D01*
X126266666Y-82152380D02*
X125695238Y-82152380D01*
X125980952Y-82152380D02*
X125980952Y-81152380D01*
X125885714Y-81295238D01*
X125790476Y-81390476D01*
X125695238Y-81438095D01*
%TO.C,J3*%
X135561904Y-67462380D02*
X135561904Y-66462380D01*
X135942857Y-66462380D01*
X136038095Y-66510000D01*
X136085714Y-66557619D01*
X136133333Y-66652857D01*
X136133333Y-66795714D01*
X136085714Y-66890952D01*
X136038095Y-66938571D01*
X135942857Y-66986190D01*
X135561904Y-66986190D01*
X137085714Y-67462380D02*
X136514285Y-67462380D01*
X136800000Y-67462380D02*
X136800000Y-66462380D01*
X136704761Y-66605238D01*
X136609523Y-66700476D01*
X136514285Y-66748095D01*
X135752380Y-74753333D02*
X136466666Y-74753333D01*
X136609523Y-74800952D01*
X136704761Y-74896190D01*
X136752380Y-75039047D01*
X136752380Y-75134285D01*
X135752380Y-74372380D02*
X135752380Y-73753333D01*
X136133333Y-74086666D01*
X136133333Y-73943809D01*
X136180952Y-73848571D01*
X136228571Y-73800952D01*
X136323809Y-73753333D01*
X136561904Y-73753333D01*
X136657142Y-73800952D01*
X136704761Y-73848571D01*
X136752380Y-73943809D01*
X136752380Y-74229523D01*
X136704761Y-74324761D01*
X136657142Y-74372380D01*
%TO.C,J4*%
X152744704Y-99953819D02*
X152792323Y-99906200D01*
X152887561Y-99858580D01*
X153125657Y-99858580D01*
X153220895Y-99906200D01*
X153268514Y-99953819D01*
X153316133Y-100049057D01*
X153316133Y-100144295D01*
X153268514Y-100287152D01*
X152697085Y-100858580D01*
X153316133Y-100858580D01*
X153649466Y-100858580D02*
X154173276Y-100191914D01*
X153649466Y-100191914D02*
X154173276Y-100858580D01*
X154506609Y-99953819D02*
X154554228Y-99906200D01*
X154649466Y-99858580D01*
X154887561Y-99858580D01*
X154982800Y-99906200D01*
X155030419Y-99953819D01*
X155078038Y-100049057D01*
X155078038Y-100144295D01*
X155030419Y-100287152D01*
X154458990Y-100858580D01*
X155078038Y-100858580D01*
X155506609Y-100858580D02*
X155506609Y-99858580D01*
X155839942Y-100572866D01*
X156173276Y-99858580D01*
X156173276Y-100858580D01*
X150542666Y-99858580D02*
X150542666Y-100572866D01*
X150495047Y-100715723D01*
X150399809Y-100810961D01*
X150256952Y-100858580D01*
X150161714Y-100858580D01*
X151447428Y-100191914D02*
X151447428Y-100858580D01*
X151209333Y-99810961D02*
X150971238Y-100525247D01*
X151590285Y-100525247D01*
%TO.C,J5*%
X143894419Y-93162380D02*
X143894419Y-92162380D01*
X144942038Y-93067142D02*
X144894419Y-93114761D01*
X144751561Y-93162380D01*
X144656323Y-93162380D01*
X144513466Y-93114761D01*
X144418228Y-93019523D01*
X144370609Y-92924285D01*
X144322990Y-92733809D01*
X144322990Y-92590952D01*
X144370609Y-92400476D01*
X144418228Y-92305238D01*
X144513466Y-92210000D01*
X144656323Y-92162380D01*
X144751561Y-92162380D01*
X144894419Y-92210000D01*
X144942038Y-92257619D01*
X145322990Y-93114761D02*
X145465847Y-93162380D01*
X145703942Y-93162380D01*
X145799180Y-93114761D01*
X145846800Y-93067142D01*
X145894419Y-92971904D01*
X145894419Y-92876666D01*
X145846800Y-92781428D01*
X145799180Y-92733809D01*
X145703942Y-92686190D01*
X145513466Y-92638571D01*
X145418228Y-92590952D01*
X145370609Y-92543333D01*
X145322990Y-92448095D01*
X145322990Y-92352857D01*
X145370609Y-92257619D01*
X145418228Y-92210000D01*
X145513466Y-92162380D01*
X145751561Y-92162380D01*
X145894419Y-92210000D01*
X146322990Y-93162380D02*
X146322990Y-92162380D01*
X146703942Y-92162380D01*
X146799180Y-92210000D01*
X146846800Y-92257619D01*
X146894419Y-92352857D01*
X146894419Y-92495714D01*
X146846800Y-92590952D01*
X146799180Y-92638571D01*
X146703942Y-92686190D01*
X146322990Y-92686190D01*
X147846800Y-93162380D02*
X147275371Y-93162380D01*
X147561085Y-93162380D02*
X147561085Y-92162380D01*
X147465847Y-92305238D01*
X147370609Y-92400476D01*
X147275371Y-92448095D01*
X146859666Y-99883980D02*
X146859666Y-100598266D01*
X146812047Y-100741123D01*
X146716809Y-100836361D01*
X146573952Y-100883980D01*
X146478714Y-100883980D01*
X147812047Y-99883980D02*
X147335857Y-99883980D01*
X147288238Y-100360171D01*
X147335857Y-100312552D01*
X147431095Y-100264933D01*
X147669190Y-100264933D01*
X147764428Y-100312552D01*
X147812047Y-100360171D01*
X147859666Y-100455409D01*
X147859666Y-100693504D01*
X147812047Y-100788742D01*
X147764428Y-100836361D01*
X147669190Y-100883980D01*
X147431095Y-100883980D01*
X147335857Y-100836361D01*
X147288238Y-100788742D01*
%TO.C,J6*%
X140206504Y-93060780D02*
X140206504Y-92060780D01*
X140587457Y-92060780D01*
X140682695Y-92108400D01*
X140730314Y-92156019D01*
X140777933Y-92251257D01*
X140777933Y-92394114D01*
X140730314Y-92489352D01*
X140682695Y-92536971D01*
X140587457Y-92584590D01*
X140206504Y-92584590D01*
X141158885Y-92156019D02*
X141206504Y-92108400D01*
X141301742Y-92060780D01*
X141539838Y-92060780D01*
X141635076Y-92108400D01*
X141682695Y-92156019D01*
X141730314Y-92251257D01*
X141730314Y-92346495D01*
X141682695Y-92489352D01*
X141111266Y-93060780D01*
X141730314Y-93060780D01*
X140422380Y-83899333D02*
X141136666Y-83899333D01*
X141279523Y-83946952D01*
X141374761Y-84042190D01*
X141422380Y-84185047D01*
X141422380Y-84280285D01*
X140422380Y-82994571D02*
X140422380Y-83185047D01*
X140470000Y-83280285D01*
X140517619Y-83327904D01*
X140660476Y-83423142D01*
X140850952Y-83470761D01*
X141231904Y-83470761D01*
X141327142Y-83423142D01*
X141374761Y-83375523D01*
X141422380Y-83280285D01*
X141422380Y-83089809D01*
X141374761Y-82994571D01*
X141327142Y-82946952D01*
X141231904Y-82899333D01*
X140993809Y-82899333D01*
X140898571Y-82946952D01*
X140850952Y-82994571D01*
X140803333Y-83089809D01*
X140803333Y-83280285D01*
X140850952Y-83375523D01*
X140898571Y-83423142D01*
X140993809Y-83470761D01*
D14*
%TO.C,JP1*%
X163969095Y-93830019D02*
X164041666Y-93854209D01*
X164162619Y-93854209D01*
X164211000Y-93830019D01*
X164235190Y-93805828D01*
X164259380Y-93757447D01*
X164259380Y-93709066D01*
X164235190Y-93660685D01*
X164211000Y-93636495D01*
X164162619Y-93612304D01*
X164065857Y-93588114D01*
X164017476Y-93563923D01*
X163993285Y-93539733D01*
X163969095Y-93491352D01*
X163969095Y-93442971D01*
X163993285Y-93394590D01*
X164017476Y-93370400D01*
X164065857Y-93346209D01*
X164186809Y-93346209D01*
X164259380Y-93370400D01*
X164549666Y-93854209D02*
X164501285Y-93830019D01*
X164477095Y-93805828D01*
X164452904Y-93757447D01*
X164452904Y-93612304D01*
X164477095Y-93563923D01*
X164501285Y-93539733D01*
X164549666Y-93515542D01*
X164622238Y-93515542D01*
X164670619Y-93539733D01*
X164694809Y-93563923D01*
X164719000Y-93612304D01*
X164719000Y-93757447D01*
X164694809Y-93805828D01*
X164670619Y-93830019D01*
X164622238Y-93854209D01*
X164549666Y-93854209D01*
X165009285Y-93854209D02*
X164960904Y-93830019D01*
X164936714Y-93781638D01*
X164936714Y-93346209D01*
X165420523Y-93854209D02*
X165420523Y-93346209D01*
X165420523Y-93830019D02*
X165372142Y-93854209D01*
X165275380Y-93854209D01*
X165227000Y-93830019D01*
X165202809Y-93805828D01*
X165178619Y-93757447D01*
X165178619Y-93612304D01*
X165202809Y-93563923D01*
X165227000Y-93539733D01*
X165275380Y-93515542D01*
X165372142Y-93515542D01*
X165420523Y-93539733D01*
X165855952Y-93830019D02*
X165807571Y-93854209D01*
X165710809Y-93854209D01*
X165662428Y-93830019D01*
X165638238Y-93781638D01*
X165638238Y-93588114D01*
X165662428Y-93539733D01*
X165710809Y-93515542D01*
X165807571Y-93515542D01*
X165855952Y-93539733D01*
X165880142Y-93588114D01*
X165880142Y-93636495D01*
X165638238Y-93684876D01*
X166097857Y-93854209D02*
X166097857Y-93515542D01*
X166097857Y-93612304D02*
X166122047Y-93563923D01*
X166146238Y-93539733D01*
X166194619Y-93515542D01*
X166243000Y-93515542D01*
X166557476Y-93346209D02*
X166557476Y-93709066D01*
X166533285Y-93781638D01*
X166484904Y-93830019D01*
X166412333Y-93854209D01*
X166363952Y-93854209D01*
X167017095Y-93515542D02*
X167017095Y-93854209D01*
X166799380Y-93515542D02*
X166799380Y-93781638D01*
X166823571Y-93830019D01*
X166871952Y-93854209D01*
X166944523Y-93854209D01*
X166992904Y-93830019D01*
X167017095Y-93805828D01*
X167259000Y-93854209D02*
X167259000Y-93515542D01*
X167259000Y-93563923D02*
X167283190Y-93539733D01*
X167331571Y-93515542D01*
X167404142Y-93515542D01*
X167452523Y-93539733D01*
X167476714Y-93588114D01*
X167476714Y-93854209D01*
X167476714Y-93588114D02*
X167500904Y-93539733D01*
X167549285Y-93515542D01*
X167621857Y-93515542D01*
X167670238Y-93539733D01*
X167694428Y-93588114D01*
X167694428Y-93854209D01*
X167936333Y-93515542D02*
X167936333Y-94023542D01*
X167936333Y-93539733D02*
X167984714Y-93515542D01*
X168081476Y-93515542D01*
X168129857Y-93539733D01*
X168154047Y-93563923D01*
X168178238Y-93612304D01*
X168178238Y-93757447D01*
X168154047Y-93805828D01*
X168129857Y-93830019D01*
X168081476Y-93854209D01*
X167984714Y-93854209D01*
X167936333Y-93830019D01*
X168589476Y-93830019D02*
X168541095Y-93854209D01*
X168444333Y-93854209D01*
X168395952Y-93830019D01*
X168371761Y-93781638D01*
X168371761Y-93588114D01*
X168395952Y-93539733D01*
X168444333Y-93515542D01*
X168541095Y-93515542D01*
X168589476Y-93539733D01*
X168613666Y-93588114D01*
X168613666Y-93636495D01*
X168371761Y-93684876D01*
X168831380Y-93854209D02*
X168831380Y-93515542D01*
X168831380Y-93612304D02*
X168855571Y-93563923D01*
X168879761Y-93539733D01*
X168928142Y-93515542D01*
X168976523Y-93515542D01*
X169024904Y-93902590D02*
X169411952Y-93902590D01*
X169508714Y-93394590D02*
X169532904Y-93370400D01*
X169581285Y-93346209D01*
X169702238Y-93346209D01*
X169750619Y-93370400D01*
X169774809Y-93394590D01*
X169799000Y-93442971D01*
X169799000Y-93491352D01*
X169774809Y-93563923D01*
X169484523Y-93854209D01*
X169799000Y-93854209D01*
X169895761Y-93902590D02*
X170282809Y-93902590D01*
X170500523Y-93346209D02*
X170597285Y-93346209D01*
X170645666Y-93370400D01*
X170694047Y-93418780D01*
X170718238Y-93515542D01*
X170718238Y-93684876D01*
X170694047Y-93781638D01*
X170645666Y-93830019D01*
X170597285Y-93854209D01*
X170500523Y-93854209D01*
X170452142Y-93830019D01*
X170403761Y-93781638D01*
X170379571Y-93684876D01*
X170379571Y-93515542D01*
X170403761Y-93418780D01*
X170452142Y-93370400D01*
X170500523Y-93346209D01*
X170935952Y-93515542D02*
X170935952Y-94023542D01*
X170935952Y-93539733D02*
X170984333Y-93515542D01*
X171081095Y-93515542D01*
X171129476Y-93539733D01*
X171153666Y-93563923D01*
X171177857Y-93612304D01*
X171177857Y-93757447D01*
X171153666Y-93805828D01*
X171129476Y-93830019D01*
X171081095Y-93854209D01*
X170984333Y-93854209D01*
X170935952Y-93830019D01*
X171589095Y-93830019D02*
X171540714Y-93854209D01*
X171443952Y-93854209D01*
X171395571Y-93830019D01*
X171371380Y-93781638D01*
X171371380Y-93588114D01*
X171395571Y-93539733D01*
X171443952Y-93515542D01*
X171540714Y-93515542D01*
X171589095Y-93539733D01*
X171613285Y-93588114D01*
X171613285Y-93636495D01*
X171371380Y-93684876D01*
X171831000Y-93515542D02*
X171831000Y-93854209D01*
X171831000Y-93563923D02*
X171855190Y-93539733D01*
X171903571Y-93515542D01*
X171976142Y-93515542D01*
X172024523Y-93539733D01*
X172048714Y-93588114D01*
X172048714Y-93854209D01*
D10*
%TO.C,R1*%
X165108095Y-87380819D02*
X165155714Y-87333200D01*
X165250952Y-87285580D01*
X165489047Y-87285580D01*
X165584285Y-87333200D01*
X165631904Y-87380819D01*
X165679523Y-87476057D01*
X165679523Y-87571295D01*
X165631904Y-87714152D01*
X165060476Y-88285580D01*
X165679523Y-88285580D01*
X166060476Y-87380819D02*
X166108095Y-87333200D01*
X166203333Y-87285580D01*
X166441428Y-87285580D01*
X166536666Y-87333200D01*
X166584285Y-87380819D01*
X166631904Y-87476057D01*
X166631904Y-87571295D01*
X166584285Y-87714152D01*
X166012857Y-88285580D01*
X166631904Y-88285580D01*
X167631904Y-88285580D02*
X167298571Y-87809390D01*
X167060476Y-88285580D02*
X167060476Y-87285580D01*
X167441428Y-87285580D01*
X167536666Y-87333200D01*
X167584285Y-87380819D01*
X167631904Y-87476057D01*
X167631904Y-87618914D01*
X167584285Y-87714152D01*
X167536666Y-87761771D01*
X167441428Y-87809390D01*
X167060476Y-87809390D01*
D11*
X166286666Y-86332190D02*
X166120000Y-86094095D01*
X166000952Y-86332190D02*
X166000952Y-85832190D01*
X166191428Y-85832190D01*
X166239047Y-85856000D01*
X166262857Y-85879809D01*
X166286666Y-85927428D01*
X166286666Y-85998857D01*
X166262857Y-86046476D01*
X166239047Y-86070285D01*
X166191428Y-86094095D01*
X166000952Y-86094095D01*
X166762857Y-86332190D02*
X166477142Y-86332190D01*
X166620000Y-86332190D02*
X166620000Y-85832190D01*
X166572380Y-85903619D01*
X166524761Y-85951238D01*
X166477142Y-85975047D01*
D10*
%TO.C,R2*%
X164955695Y-81691219D02*
X165003314Y-81643600D01*
X165098552Y-81595980D01*
X165336647Y-81595980D01*
X165431885Y-81643600D01*
X165479504Y-81691219D01*
X165527123Y-81786457D01*
X165527123Y-81881695D01*
X165479504Y-82024552D01*
X164908076Y-82595980D01*
X165527123Y-82595980D01*
X165908076Y-81691219D02*
X165955695Y-81643600D01*
X166050933Y-81595980D01*
X166289028Y-81595980D01*
X166384266Y-81643600D01*
X166431885Y-81691219D01*
X166479504Y-81786457D01*
X166479504Y-81881695D01*
X166431885Y-82024552D01*
X165860457Y-82595980D01*
X166479504Y-82595980D01*
X167479504Y-82595980D02*
X167146171Y-82119790D01*
X166908076Y-82595980D02*
X166908076Y-81595980D01*
X167289028Y-81595980D01*
X167384266Y-81643600D01*
X167431885Y-81691219D01*
X167479504Y-81786457D01*
X167479504Y-81929314D01*
X167431885Y-82024552D01*
X167384266Y-82072171D01*
X167289028Y-82119790D01*
X166908076Y-82119790D01*
D11*
X166286666Y-84046190D02*
X166120000Y-83808095D01*
X166000952Y-84046190D02*
X166000952Y-83546190D01*
X166191428Y-83546190D01*
X166239047Y-83570000D01*
X166262857Y-83593809D01*
X166286666Y-83641428D01*
X166286666Y-83712857D01*
X166262857Y-83760476D01*
X166239047Y-83784285D01*
X166191428Y-83808095D01*
X166000952Y-83808095D01*
X166477142Y-83593809D02*
X166500952Y-83570000D01*
X166548571Y-83546190D01*
X166667619Y-83546190D01*
X166715238Y-83570000D01*
X166739047Y-83593809D01*
X166762857Y-83641428D01*
X166762857Y-83689047D01*
X166739047Y-83760476D01*
X166453333Y-84046190D01*
X166762857Y-84046190D01*
D10*
%TO.C,R3*%
X158672285Y-74680380D02*
X158100857Y-74680380D01*
X158386571Y-74680380D02*
X158386571Y-73680380D01*
X158291333Y-73823238D01*
X158196095Y-73918476D01*
X158100857Y-73966095D01*
X159100857Y-74680380D02*
X159100857Y-73680380D01*
X159434190Y-74394666D01*
X159767523Y-73680380D01*
X159767523Y-74680380D01*
D11*
X158874666Y-76104190D02*
X158708000Y-75866095D01*
X158588952Y-76104190D02*
X158588952Y-75604190D01*
X158779428Y-75604190D01*
X158827047Y-75628000D01*
X158850857Y-75651809D01*
X158874666Y-75699428D01*
X158874666Y-75770857D01*
X158850857Y-75818476D01*
X158827047Y-75842285D01*
X158779428Y-75866095D01*
X158588952Y-75866095D01*
X159041333Y-75604190D02*
X159350857Y-75604190D01*
X159184190Y-75794666D01*
X159255619Y-75794666D01*
X159303238Y-75818476D01*
X159327047Y-75842285D01*
X159350857Y-75889904D01*
X159350857Y-76008952D01*
X159327047Y-76056571D01*
X159303238Y-76080380D01*
X159255619Y-76104190D01*
X159112761Y-76104190D01*
X159065142Y-76080380D01*
X159041333Y-76056571D01*
D10*
%TO.C,R4*%
X158364323Y-98750380D02*
X157792895Y-98750380D01*
X158078609Y-98750380D02*
X158078609Y-97750380D01*
X157983371Y-97893238D01*
X157888133Y-97988476D01*
X157792895Y-98036095D01*
X158983371Y-97750380D02*
X159078609Y-97750380D01*
X159173847Y-97798000D01*
X159221466Y-97845619D01*
X159269085Y-97940857D01*
X159316704Y-98131333D01*
X159316704Y-98369428D01*
X159269085Y-98559904D01*
X159221466Y-98655142D01*
X159173847Y-98702761D01*
X159078609Y-98750380D01*
X158983371Y-98750380D01*
X158888133Y-98702761D01*
X158840514Y-98655142D01*
X158792895Y-98559904D01*
X158745276Y-98369428D01*
X158745276Y-98131333D01*
X158792895Y-97940857D01*
X158840514Y-97845619D01*
X158888133Y-97798000D01*
X158983371Y-97750380D01*
X159745276Y-98750380D02*
X159745276Y-97750380D01*
X160316704Y-98750380D02*
X159888133Y-98178952D01*
X160316704Y-97750380D02*
X159745276Y-98321809D01*
D11*
X158920666Y-95984190D02*
X158754000Y-95746095D01*
X158634952Y-95984190D02*
X158634952Y-95484190D01*
X158825428Y-95484190D01*
X158873047Y-95508000D01*
X158896857Y-95531809D01*
X158920666Y-95579428D01*
X158920666Y-95650857D01*
X158896857Y-95698476D01*
X158873047Y-95722285D01*
X158825428Y-95746095D01*
X158634952Y-95746095D01*
X159349238Y-95650857D02*
X159349238Y-95984190D01*
X159230190Y-95460380D02*
X159111142Y-95817523D01*
X159420666Y-95817523D01*
D10*
%TO.C,R5*%
X144540314Y-85770980D02*
X143968885Y-85770980D01*
X144254600Y-85770980D02*
X144254600Y-84770980D01*
X144159361Y-84913838D01*
X144064123Y-85009076D01*
X143968885Y-85056695D01*
X144968885Y-85770980D02*
X144968885Y-84770980D01*
X145540314Y-85770980D02*
X145111742Y-85199552D01*
X145540314Y-84770980D02*
X144968885Y-85342409D01*
D11*
X144671266Y-83030190D02*
X144504600Y-82792095D01*
X144385552Y-83030190D02*
X144385552Y-82530190D01*
X144576028Y-82530190D01*
X144623647Y-82554000D01*
X144647457Y-82577809D01*
X144671266Y-82625428D01*
X144671266Y-82696857D01*
X144647457Y-82744476D01*
X144623647Y-82768285D01*
X144576028Y-82792095D01*
X144385552Y-82792095D01*
X145123647Y-82530190D02*
X144885552Y-82530190D01*
X144861742Y-82768285D01*
X144885552Y-82744476D01*
X144933171Y-82720666D01*
X145052219Y-82720666D01*
X145099838Y-82744476D01*
X145123647Y-82768285D01*
X145147457Y-82815904D01*
X145147457Y-82934952D01*
X145123647Y-82982571D01*
X145099838Y-83006380D01*
X145052219Y-83030190D01*
X144933171Y-83030190D01*
X144885552Y-83006380D01*
X144861742Y-82982571D01*
D10*
%TO.C,R6*%
X147131114Y-68194180D02*
X146559685Y-68194180D01*
X146845400Y-68194180D02*
X146845400Y-67194180D01*
X146750161Y-67337038D01*
X146654923Y-67432276D01*
X146559685Y-67479895D01*
X147559685Y-68194180D02*
X147559685Y-67194180D01*
X148131114Y-68194180D02*
X147702542Y-67622752D01*
X148131114Y-67194180D02*
X147559685Y-67765609D01*
D11*
X147236666Y-70400990D02*
X147070000Y-70162895D01*
X146950952Y-70400990D02*
X146950952Y-69900990D01*
X147141428Y-69900990D01*
X147189047Y-69924800D01*
X147212857Y-69948609D01*
X147236666Y-69996228D01*
X147236666Y-70067657D01*
X147212857Y-70115276D01*
X147189047Y-70139085D01*
X147141428Y-70162895D01*
X146950952Y-70162895D01*
X147665238Y-69900990D02*
X147570000Y-69900990D01*
X147522380Y-69924800D01*
X147498571Y-69948609D01*
X147450952Y-70020038D01*
X147427142Y-70115276D01*
X147427142Y-70305752D01*
X147450952Y-70353371D01*
X147474761Y-70377180D01*
X147522380Y-70400990D01*
X147617619Y-70400990D01*
X147665238Y-70377180D01*
X147689047Y-70353371D01*
X147712857Y-70305752D01*
X147712857Y-70186704D01*
X147689047Y-70139085D01*
X147665238Y-70115276D01*
X147617619Y-70091466D01*
X147522380Y-70091466D01*
X147474761Y-70115276D01*
X147450952Y-70139085D01*
X147427142Y-70186704D01*
D10*
%TO.C,R7*%
X144565714Y-68194180D02*
X143994285Y-68194180D01*
X144280000Y-68194180D02*
X144280000Y-67194180D01*
X144184761Y-67337038D01*
X144089523Y-67432276D01*
X143994285Y-67479895D01*
X144994285Y-68194180D02*
X144994285Y-67194180D01*
X145565714Y-68194180D02*
X145137142Y-67622752D01*
X145565714Y-67194180D02*
X144994285Y-67765609D01*
D11*
X144696666Y-70400990D02*
X144530000Y-70162895D01*
X144410952Y-70400990D02*
X144410952Y-69900990D01*
X144601428Y-69900990D01*
X144649047Y-69924800D01*
X144672857Y-69948609D01*
X144696666Y-69996228D01*
X144696666Y-70067657D01*
X144672857Y-70115276D01*
X144649047Y-70139085D01*
X144601428Y-70162895D01*
X144410952Y-70162895D01*
X144863333Y-69900990D02*
X145196666Y-69900990D01*
X144982380Y-70400990D01*
D17*
%TO.C,VR1*%
X167941171Y-89237457D02*
X167926657Y-89251971D01*
X167883114Y-89266485D01*
X167854085Y-89266485D01*
X167810542Y-89251971D01*
X167781514Y-89222942D01*
X167767000Y-89193914D01*
X167752485Y-89135857D01*
X167752485Y-89092314D01*
X167767000Y-89034257D01*
X167781514Y-89005228D01*
X167810542Y-88976200D01*
X167854085Y-88961685D01*
X167883114Y-88961685D01*
X167926657Y-88976200D01*
X167941171Y-88990714D01*
X168231457Y-88976200D02*
X168202428Y-88961685D01*
X168158885Y-88961685D01*
X168115342Y-88976200D01*
X168086314Y-89005228D01*
X168071800Y-89034257D01*
X168057285Y-89092314D01*
X168057285Y-89135857D01*
X168071800Y-89193914D01*
X168086314Y-89222942D01*
X168115342Y-89251971D01*
X168158885Y-89266485D01*
X168187914Y-89266485D01*
X168231457Y-89251971D01*
X168245971Y-89237457D01*
X168245971Y-89135857D01*
X168187914Y-89135857D01*
X168434657Y-88961685D02*
X168463685Y-88961685D01*
X168492714Y-88976200D01*
X168507228Y-88990714D01*
X168521742Y-89019742D01*
X168536257Y-89077800D01*
X168536257Y-89150371D01*
X168521742Y-89208428D01*
X168507228Y-89237457D01*
X168492714Y-89251971D01*
X168463685Y-89266485D01*
X168434657Y-89266485D01*
X168405628Y-89251971D01*
X168391114Y-89237457D01*
X168376600Y-89208428D01*
X168362085Y-89150371D01*
X168362085Y-89077800D01*
X168376600Y-89019742D01*
X168391114Y-88990714D01*
X168405628Y-88976200D01*
X168434657Y-88961685D01*
X168797514Y-88961685D02*
X168739457Y-88961685D01*
X168710428Y-88976200D01*
X168695914Y-88990714D01*
X168666885Y-89034257D01*
X168652371Y-89092314D01*
X168652371Y-89208428D01*
X168666885Y-89237457D01*
X168681400Y-89251971D01*
X168710428Y-89266485D01*
X168768485Y-89266485D01*
X168797514Y-89251971D01*
X168812028Y-89237457D01*
X168826542Y-89208428D01*
X168826542Y-89135857D01*
X168812028Y-89106828D01*
X168797514Y-89092314D01*
X168768485Y-89077800D01*
X168710428Y-89077800D01*
X168681400Y-89092314D01*
X168666885Y-89106828D01*
X168652371Y-89135857D01*
X169015228Y-88961685D02*
X169044257Y-88961685D01*
X169073285Y-88976200D01*
X169087800Y-88990714D01*
X169102314Y-89019742D01*
X169116828Y-89077800D01*
X169116828Y-89150371D01*
X169102314Y-89208428D01*
X169087800Y-89237457D01*
X169073285Y-89251971D01*
X169044257Y-89266485D01*
X169015228Y-89266485D01*
X168986200Y-89251971D01*
X168971685Y-89237457D01*
X168957171Y-89208428D01*
X168942657Y-89150371D01*
X168942657Y-89077800D01*
X168957171Y-89019742D01*
X168971685Y-88990714D01*
X168986200Y-88976200D01*
X169015228Y-88961685D01*
X169218428Y-88961685D02*
X169407114Y-88961685D01*
X169305514Y-89077800D01*
X169349057Y-89077800D01*
X169378085Y-89092314D01*
X169392600Y-89106828D01*
X169407114Y-89135857D01*
X169407114Y-89208428D01*
X169392600Y-89237457D01*
X169378085Y-89251971D01*
X169349057Y-89266485D01*
X169261971Y-89266485D01*
X169232942Y-89251971D01*
X169218428Y-89237457D01*
X169537742Y-89266485D02*
X169537742Y-88961685D01*
X169639342Y-89179400D01*
X169740942Y-88961685D01*
X169740942Y-89266485D01*
X170031228Y-89266485D02*
X169886085Y-89266485D01*
X169886085Y-88961685D01*
X170307000Y-89237457D02*
X170292485Y-89251971D01*
X170248942Y-89266485D01*
X170219914Y-89266485D01*
X170176371Y-89251971D01*
X170147342Y-89222942D01*
X170132828Y-89193914D01*
X170118314Y-89135857D01*
X170118314Y-89092314D01*
X170132828Y-89034257D01*
X170147342Y-89005228D01*
X170176371Y-88976200D01*
X170219914Y-88961685D01*
X170248942Y-88961685D01*
X170292485Y-88976200D01*
X170307000Y-88990714D01*
X170437628Y-89150371D02*
X170669857Y-89150371D01*
X170873057Y-88961685D02*
X170902085Y-88961685D01*
X170931114Y-88976200D01*
X170945628Y-88990714D01*
X170960142Y-89019742D01*
X170974657Y-89077800D01*
X170974657Y-89150371D01*
X170960142Y-89208428D01*
X170945628Y-89237457D01*
X170931114Y-89251971D01*
X170902085Y-89266485D01*
X170873057Y-89266485D01*
X170844028Y-89251971D01*
X170829514Y-89237457D01*
X170815000Y-89208428D01*
X170800485Y-89150371D01*
X170800485Y-89077800D01*
X170815000Y-89019742D01*
X170829514Y-88990714D01*
X170844028Y-88976200D01*
X170873057Y-88961685D01*
X171250428Y-88961685D02*
X171105285Y-88961685D01*
X171090771Y-89106828D01*
X171105285Y-89092314D01*
X171134314Y-89077800D01*
X171206885Y-89077800D01*
X171235914Y-89092314D01*
X171250428Y-89106828D01*
X171264942Y-89135857D01*
X171264942Y-89208428D01*
X171250428Y-89237457D01*
X171235914Y-89251971D01*
X171206885Y-89266485D01*
X171134314Y-89266485D01*
X171105285Y-89251971D01*
X171090771Y-89237457D01*
X171395571Y-89106828D02*
X171497171Y-89106828D01*
X171540714Y-89266485D02*
X171395571Y-89266485D01*
X171395571Y-88961685D01*
X171540714Y-88961685D01*
D18*
X169794161Y-85243609D02*
X169963495Y-85751609D01*
X170132828Y-85243609D01*
X170592447Y-85751609D02*
X170423114Y-85509704D01*
X170302161Y-85751609D02*
X170302161Y-85243609D01*
X170495685Y-85243609D01*
X170544066Y-85267800D01*
X170568257Y-85291990D01*
X170592447Y-85340371D01*
X170592447Y-85412942D01*
X170568257Y-85461323D01*
X170544066Y-85485514D01*
X170495685Y-85509704D01*
X170302161Y-85509704D01*
X171076257Y-85751609D02*
X170785971Y-85751609D01*
X170931114Y-85751609D02*
X170931114Y-85243609D01*
X170882733Y-85316180D01*
X170834352Y-85364561D01*
X170785971Y-85388752D01*
D10*
%TO.C,Y1*%
X157237323Y-67680180D02*
X156665895Y-67680180D01*
X156951609Y-67680180D02*
X156951609Y-66680180D01*
X156856371Y-66823038D01*
X156761133Y-66918276D01*
X156665895Y-66965895D01*
X158094466Y-66680180D02*
X157903990Y-66680180D01*
X157808752Y-66727800D01*
X157761133Y-66775419D01*
X157665895Y-66918276D01*
X157618276Y-67108752D01*
X157618276Y-67489704D01*
X157665895Y-67584942D01*
X157713514Y-67632561D01*
X157808752Y-67680180D01*
X157999228Y-67680180D01*
X158094466Y-67632561D01*
X158142085Y-67584942D01*
X158189704Y-67489704D01*
X158189704Y-67251609D01*
X158142085Y-67156371D01*
X158094466Y-67108752D01*
X157999228Y-67061133D01*
X157808752Y-67061133D01*
X157713514Y-67108752D01*
X157665895Y-67156371D01*
X157618276Y-67251609D01*
X158618276Y-67680180D02*
X158618276Y-66680180D01*
X158951609Y-67394466D01*
X159284942Y-66680180D01*
X159284942Y-67680180D01*
X159761133Y-67680180D02*
X159761133Y-66680180D01*
X159761133Y-67156371D02*
X160332561Y-67156371D01*
X160332561Y-67680180D02*
X160332561Y-66680180D01*
X160713514Y-67013514D02*
X161237323Y-67013514D01*
X160713514Y-67680180D01*
X161237323Y-67680180D01*
X158451609Y-70003990D02*
X158451609Y-70480180D01*
X158118276Y-69480180D02*
X158451609Y-70003990D01*
X158784942Y-69480180D01*
X159642085Y-70480180D02*
X159070657Y-70480180D01*
X159356371Y-70480180D02*
X159356371Y-69480180D01*
X159261133Y-69623038D01*
X159165895Y-69718276D01*
X159070657Y-69765895D01*
%TO.C,J2*%
X171948742Y-90054180D02*
X171948742Y-90863704D01*
X171996361Y-90958942D01*
X172043980Y-91006561D01*
X172139219Y-91054180D01*
X172329695Y-91054180D01*
X172424933Y-91006561D01*
X172472552Y-90958942D01*
X172520171Y-90863704D01*
X172520171Y-90054180D01*
X172948742Y-91006561D02*
X173091600Y-91054180D01*
X173329695Y-91054180D01*
X173424933Y-91006561D01*
X173472552Y-90958942D01*
X173520171Y-90863704D01*
X173520171Y-90768466D01*
X173472552Y-90673228D01*
X173424933Y-90625609D01*
X173329695Y-90577990D01*
X173139219Y-90530371D01*
X173043980Y-90482752D01*
X172996361Y-90435133D01*
X172948742Y-90339895D01*
X172948742Y-90244657D01*
X172996361Y-90149419D01*
X173043980Y-90101800D01*
X173139219Y-90054180D01*
X173377314Y-90054180D01*
X173520171Y-90101800D01*
X174282076Y-90530371D02*
X174424933Y-90577990D01*
X174472552Y-90625609D01*
X174520171Y-90720847D01*
X174520171Y-90863704D01*
X174472552Y-90958942D01*
X174424933Y-91006561D01*
X174329695Y-91054180D01*
X173948742Y-91054180D01*
X173948742Y-90054180D01*
X174282076Y-90054180D01*
X174377314Y-90101800D01*
X174424933Y-90149419D01*
X174472552Y-90244657D01*
X174472552Y-90339895D01*
X174424933Y-90435133D01*
X174377314Y-90482752D01*
X174282076Y-90530371D01*
X173948742Y-90530371D01*
X174710647Y-91149419D02*
X175472552Y-91149419D01*
X176043980Y-90530371D02*
X176186838Y-90577990D01*
X176234457Y-90625609D01*
X176282076Y-90720847D01*
X176282076Y-90863704D01*
X176234457Y-90958942D01*
X176186838Y-91006561D01*
X176091600Y-91054180D01*
X175710647Y-91054180D01*
X175710647Y-90054180D01*
X176043980Y-90054180D01*
X176139219Y-90101800D01*
X176186838Y-90149419D01*
X176234457Y-90244657D01*
X176234457Y-90339895D01*
X176186838Y-90435133D01*
X176139219Y-90482752D01*
X176043980Y-90530371D01*
X175710647Y-90530371D01*
X180648666Y-82236380D02*
X180648666Y-82950666D01*
X180601047Y-83093523D01*
X180505809Y-83188761D01*
X180362952Y-83236380D01*
X180267714Y-83236380D01*
X181077238Y-82331619D02*
X181124857Y-82284000D01*
X181220095Y-82236380D01*
X181458190Y-82236380D01*
X181553428Y-82284000D01*
X181601047Y-82331619D01*
X181648666Y-82426857D01*
X181648666Y-82522095D01*
X181601047Y-82664952D01*
X181029619Y-83236380D01*
X181648666Y-83236380D01*
%TO.C,U1*%
X148993933Y-92140066D02*
X149470123Y-92140066D01*
X148898695Y-92425780D02*
X149232028Y-91425780D01*
X149565361Y-92425780D01*
X149755838Y-91425780D02*
X150327266Y-91425780D01*
X150041552Y-92425780D02*
X150041552Y-91425780D01*
X150660600Y-92425780D02*
X150660600Y-91759114D01*
X150660600Y-91854352D02*
X150708219Y-91806733D01*
X150803457Y-91759114D01*
X150946314Y-91759114D01*
X151041552Y-91806733D01*
X151089171Y-91901971D01*
X151089171Y-92425780D01*
X151089171Y-91901971D02*
X151136790Y-91806733D01*
X151232028Y-91759114D01*
X151374885Y-91759114D01*
X151470123Y-91806733D01*
X151517742Y-91901971D01*
X151517742Y-92425780D01*
X152374885Y-92378161D02*
X152279647Y-92425780D01*
X152089171Y-92425780D01*
X151993933Y-92378161D01*
X151946314Y-92282923D01*
X151946314Y-91901971D01*
X151993933Y-91806733D01*
X152089171Y-91759114D01*
X152279647Y-91759114D01*
X152374885Y-91806733D01*
X152422504Y-91901971D01*
X152422504Y-91997209D01*
X151946314Y-92092447D01*
X153279647Y-91759114D02*
X153279647Y-92568638D01*
X153232028Y-92663876D01*
X153184409Y-92711495D01*
X153089171Y-92759114D01*
X152946314Y-92759114D01*
X152851076Y-92711495D01*
X153279647Y-92378161D02*
X153184409Y-92425780D01*
X152993933Y-92425780D01*
X152898695Y-92378161D01*
X152851076Y-92330542D01*
X152803457Y-92235304D01*
X152803457Y-91949590D01*
X152851076Y-91854352D01*
X152898695Y-91806733D01*
X152993933Y-91759114D01*
X153184409Y-91759114D01*
X153279647Y-91806733D01*
X154184409Y-92425780D02*
X154184409Y-91901971D01*
X154136790Y-91806733D01*
X154041552Y-91759114D01*
X153851076Y-91759114D01*
X153755838Y-91806733D01*
X154184409Y-92378161D02*
X154089171Y-92425780D01*
X153851076Y-92425780D01*
X153755838Y-92378161D01*
X153708219Y-92282923D01*
X153708219Y-92187685D01*
X153755838Y-92092447D01*
X153851076Y-92044828D01*
X154089171Y-92044828D01*
X154184409Y-91997209D01*
X154803457Y-91854352D02*
X154708219Y-91806733D01*
X154660600Y-91759114D01*
X154612980Y-91663876D01*
X154612980Y-91616257D01*
X154660600Y-91521019D01*
X154708219Y-91473400D01*
X154803457Y-91425780D01*
X154993933Y-91425780D01*
X155089171Y-91473400D01*
X155136790Y-91521019D01*
X155184409Y-91616257D01*
X155184409Y-91663876D01*
X155136790Y-91759114D01*
X155089171Y-91806733D01*
X154993933Y-91854352D01*
X154803457Y-91854352D01*
X154708219Y-91901971D01*
X154660600Y-91949590D01*
X154612980Y-92044828D01*
X154612980Y-92235304D01*
X154660600Y-92330542D01*
X154708219Y-92378161D01*
X154803457Y-92425780D01*
X154993933Y-92425780D01*
X155089171Y-92378161D01*
X155136790Y-92330542D01*
X155184409Y-92235304D01*
X155184409Y-92044828D01*
X155136790Y-91949590D01*
X155089171Y-91901971D01*
X154993933Y-91854352D01*
X155612980Y-91425780D02*
X155612980Y-92235304D01*
X155660600Y-92330542D01*
X155708219Y-92378161D01*
X155803457Y-92425780D01*
X155993933Y-92425780D01*
X156089171Y-92378161D01*
X156136790Y-92330542D01*
X156184409Y-92235304D01*
X156184409Y-91425780D01*
X156612980Y-91521019D02*
X156660600Y-91473400D01*
X156755838Y-91425780D01*
X156993933Y-91425780D01*
X157089171Y-91473400D01*
X157136790Y-91521019D01*
X157184409Y-91616257D01*
X157184409Y-91711495D01*
X157136790Y-91854352D01*
X156565361Y-92425780D01*
X157184409Y-92425780D01*
X157612980Y-92044828D02*
X158374885Y-92044828D01*
X158803457Y-92140066D02*
X159279647Y-92140066D01*
X158708219Y-92425780D02*
X159041552Y-91425780D01*
X159374885Y-92425780D01*
X159708219Y-91425780D02*
X159708219Y-92235304D01*
X159755838Y-92330542D01*
X159803457Y-92378161D01*
X159898695Y-92425780D01*
X160089171Y-92425780D01*
X160184409Y-92378161D01*
X160232028Y-92330542D01*
X160279647Y-92235304D01*
X160279647Y-91425780D01*
X153670095Y-85304380D02*
X153670095Y-86113904D01*
X153717714Y-86209142D01*
X153765333Y-86256761D01*
X153860571Y-86304380D01*
X154051047Y-86304380D01*
X154146285Y-86256761D01*
X154193904Y-86209142D01*
X154241523Y-86113904D01*
X154241523Y-85304380D01*
X155241523Y-86304380D02*
X154670095Y-86304380D01*
X154955809Y-86304380D02*
X154955809Y-85304380D01*
X154860571Y-85447238D01*
X154765333Y-85542476D01*
X154670095Y-85590095D01*
D17*
%TO.C,VR2*%
X169642971Y-80347457D02*
X169628457Y-80361971D01*
X169584914Y-80376485D01*
X169555885Y-80376485D01*
X169512342Y-80361971D01*
X169483314Y-80332942D01*
X169468800Y-80303914D01*
X169454285Y-80245857D01*
X169454285Y-80202314D01*
X169468800Y-80144257D01*
X169483314Y-80115228D01*
X169512342Y-80086200D01*
X169555885Y-80071685D01*
X169584914Y-80071685D01*
X169628457Y-80086200D01*
X169642971Y-80100714D01*
X169933257Y-80086200D02*
X169904228Y-80071685D01*
X169860685Y-80071685D01*
X169817142Y-80086200D01*
X169788114Y-80115228D01*
X169773600Y-80144257D01*
X169759085Y-80202314D01*
X169759085Y-80245857D01*
X169773600Y-80303914D01*
X169788114Y-80332942D01*
X169817142Y-80361971D01*
X169860685Y-80376485D01*
X169889714Y-80376485D01*
X169933257Y-80361971D01*
X169947771Y-80347457D01*
X169947771Y-80245857D01*
X169889714Y-80245857D01*
X170136457Y-80071685D02*
X170165485Y-80071685D01*
X170194514Y-80086200D01*
X170209028Y-80100714D01*
X170223542Y-80129742D01*
X170238057Y-80187800D01*
X170238057Y-80260371D01*
X170223542Y-80318428D01*
X170209028Y-80347457D01*
X170194514Y-80361971D01*
X170165485Y-80376485D01*
X170136457Y-80376485D01*
X170107428Y-80361971D01*
X170092914Y-80347457D01*
X170078400Y-80318428D01*
X170063885Y-80260371D01*
X170063885Y-80187800D01*
X170078400Y-80129742D01*
X170092914Y-80100714D01*
X170107428Y-80086200D01*
X170136457Y-80071685D01*
X170499314Y-80071685D02*
X170441257Y-80071685D01*
X170412228Y-80086200D01*
X170397714Y-80100714D01*
X170368685Y-80144257D01*
X170354171Y-80202314D01*
X170354171Y-80318428D01*
X170368685Y-80347457D01*
X170383200Y-80361971D01*
X170412228Y-80376485D01*
X170470285Y-80376485D01*
X170499314Y-80361971D01*
X170513828Y-80347457D01*
X170528342Y-80318428D01*
X170528342Y-80245857D01*
X170513828Y-80216828D01*
X170499314Y-80202314D01*
X170470285Y-80187800D01*
X170412228Y-80187800D01*
X170383200Y-80202314D01*
X170368685Y-80216828D01*
X170354171Y-80245857D01*
X170717028Y-80071685D02*
X170746057Y-80071685D01*
X170775085Y-80086200D01*
X170789600Y-80100714D01*
X170804114Y-80129742D01*
X170818628Y-80187800D01*
X170818628Y-80260371D01*
X170804114Y-80318428D01*
X170789600Y-80347457D01*
X170775085Y-80361971D01*
X170746057Y-80376485D01*
X170717028Y-80376485D01*
X170688000Y-80361971D01*
X170673485Y-80347457D01*
X170658971Y-80318428D01*
X170644457Y-80260371D01*
X170644457Y-80187800D01*
X170658971Y-80129742D01*
X170673485Y-80100714D01*
X170688000Y-80086200D01*
X170717028Y-80071685D01*
X170920228Y-80071685D02*
X171108914Y-80071685D01*
X171007314Y-80187800D01*
X171050857Y-80187800D01*
X171079885Y-80202314D01*
X171094400Y-80216828D01*
X171108914Y-80245857D01*
X171108914Y-80318428D01*
X171094400Y-80347457D01*
X171079885Y-80361971D01*
X171050857Y-80376485D01*
X170963771Y-80376485D01*
X170934742Y-80361971D01*
X170920228Y-80347457D01*
X171239542Y-80376485D02*
X171239542Y-80071685D01*
X171341142Y-80289400D01*
X171442742Y-80071685D01*
X171442742Y-80376485D01*
X171733028Y-80376485D02*
X171587885Y-80376485D01*
X171587885Y-80071685D01*
X172008800Y-80347457D02*
X171994285Y-80361971D01*
X171950742Y-80376485D01*
X171921714Y-80376485D01*
X171878171Y-80361971D01*
X171849142Y-80332942D01*
X171834628Y-80303914D01*
X171820114Y-80245857D01*
X171820114Y-80202314D01*
X171834628Y-80144257D01*
X171849142Y-80115228D01*
X171878171Y-80086200D01*
X171921714Y-80071685D01*
X171950742Y-80071685D01*
X171994285Y-80086200D01*
X172008800Y-80100714D01*
X172139428Y-80260371D02*
X172371657Y-80260371D01*
X172574857Y-80071685D02*
X172603885Y-80071685D01*
X172632914Y-80086200D01*
X172647428Y-80100714D01*
X172661942Y-80129742D01*
X172676457Y-80187800D01*
X172676457Y-80260371D01*
X172661942Y-80318428D01*
X172647428Y-80347457D01*
X172632914Y-80361971D01*
X172603885Y-80376485D01*
X172574857Y-80376485D01*
X172545828Y-80361971D01*
X172531314Y-80347457D01*
X172516800Y-80318428D01*
X172502285Y-80260371D01*
X172502285Y-80187800D01*
X172516800Y-80129742D01*
X172531314Y-80100714D01*
X172545828Y-80086200D01*
X172574857Y-80071685D01*
X172952228Y-80071685D02*
X172807085Y-80071685D01*
X172792571Y-80216828D01*
X172807085Y-80202314D01*
X172836114Y-80187800D01*
X172908685Y-80187800D01*
X172937714Y-80202314D01*
X172952228Y-80216828D01*
X172966742Y-80245857D01*
X172966742Y-80318428D01*
X172952228Y-80347457D01*
X172937714Y-80361971D01*
X172908685Y-80376485D01*
X172836114Y-80376485D01*
X172807085Y-80361971D01*
X172792571Y-80347457D01*
X173097371Y-80216828D02*
X173198971Y-80216828D01*
X173242514Y-80376485D02*
X173097371Y-80376485D01*
X173097371Y-80071685D01*
X173242514Y-80071685D01*
D18*
X169717961Y-83973609D02*
X169887295Y-84481609D01*
X170056628Y-83973609D01*
X170516247Y-84481609D02*
X170346914Y-84239704D01*
X170225961Y-84481609D02*
X170225961Y-83973609D01*
X170419485Y-83973609D01*
X170467866Y-83997800D01*
X170492057Y-84021990D01*
X170516247Y-84070371D01*
X170516247Y-84142942D01*
X170492057Y-84191323D01*
X170467866Y-84215514D01*
X170419485Y-84239704D01*
X170225961Y-84239704D01*
X170709771Y-84021990D02*
X170733961Y-83997800D01*
X170782342Y-83973609D01*
X170903295Y-83973609D01*
X170951676Y-83997800D01*
X170975866Y-84021990D01*
X171000057Y-84070371D01*
X171000057Y-84118752D01*
X170975866Y-84191323D01*
X170685580Y-84481609D01*
X171000057Y-84481609D01*
D10*
%TO.C,C6*%
X161710914Y-80100714D02*
X161275485Y-80100714D01*
X161493200Y-80100714D02*
X161493200Y-79338714D01*
X161420628Y-79447571D01*
X161348057Y-79520142D01*
X161275485Y-79556428D01*
X162182628Y-79338714D02*
X162255200Y-79338714D01*
X162327771Y-79375000D01*
X162364057Y-79411285D01*
X162400342Y-79483857D01*
X162436628Y-79629000D01*
X162436628Y-79810428D01*
X162400342Y-79955571D01*
X162364057Y-80028142D01*
X162327771Y-80064428D01*
X162255200Y-80100714D01*
X162182628Y-80100714D01*
X162110057Y-80064428D01*
X162073771Y-80028142D01*
X162037485Y-79955571D01*
X162001200Y-79810428D01*
X162001200Y-79629000D01*
X162037485Y-79483857D01*
X162073771Y-79411285D01*
X162110057Y-79375000D01*
X162182628Y-79338714D01*
X162908342Y-79338714D02*
X162980914Y-79338714D01*
X163053485Y-79375000D01*
X163089771Y-79411285D01*
X163126057Y-79483857D01*
X163162342Y-79629000D01*
X163162342Y-79810428D01*
X163126057Y-79955571D01*
X163089771Y-80028142D01*
X163053485Y-80064428D01*
X162980914Y-80100714D01*
X162908342Y-80100714D01*
X162835771Y-80064428D01*
X162799485Y-80028142D01*
X162763200Y-79955571D01*
X162726914Y-79810428D01*
X162726914Y-79629000D01*
X162763200Y-79483857D01*
X162799485Y-79411285D01*
X162835771Y-79375000D01*
X162908342Y-79338714D01*
X163488914Y-79592714D02*
X163488914Y-80100714D01*
X163488914Y-79665285D02*
X163525200Y-79629000D01*
X163597771Y-79592714D01*
X163706628Y-79592714D01*
X163779200Y-79629000D01*
X163815485Y-79701571D01*
X163815485Y-80100714D01*
X164432342Y-79701571D02*
X164178342Y-79701571D01*
X164178342Y-80100714D02*
X164178342Y-79338714D01*
X164541200Y-79338714D01*
D11*
X162298866Y-82245971D02*
X162275057Y-82269780D01*
X162203628Y-82293590D01*
X162156009Y-82293590D01*
X162084580Y-82269780D01*
X162036961Y-82222161D01*
X162013152Y-82174542D01*
X161989342Y-82079304D01*
X161989342Y-82007876D01*
X162013152Y-81912638D01*
X162036961Y-81865019D01*
X162084580Y-81817400D01*
X162156009Y-81793590D01*
X162203628Y-81793590D01*
X162275057Y-81817400D01*
X162298866Y-81841209D01*
X162727438Y-81793590D02*
X162632200Y-81793590D01*
X162584580Y-81817400D01*
X162560771Y-81841209D01*
X162513152Y-81912638D01*
X162489342Y-82007876D01*
X162489342Y-82198352D01*
X162513152Y-82245971D01*
X162536961Y-82269780D01*
X162584580Y-82293590D01*
X162679819Y-82293590D01*
X162727438Y-82269780D01*
X162751247Y-82245971D01*
X162775057Y-82198352D01*
X162775057Y-82079304D01*
X162751247Y-82031685D01*
X162727438Y-82007876D01*
X162679819Y-81984066D01*
X162584580Y-81984066D01*
X162536961Y-82007876D01*
X162513152Y-82031685D01*
X162489342Y-82079304D01*
D19*
%TO.C,C1*%
X133985400Y-90744400D02*
X134985400Y-91744400D01*
X127685400Y-90744400D02*
X126685400Y-91744400D01*
X133985400Y-90744400D02*
X127685400Y-90744400D01*
X132335400Y-91332122D02*
X132335400Y-92132122D01*
X134985400Y-99044400D02*
X126685400Y-99044400D01*
X134985400Y-91744400D02*
X134985400Y-99044400D01*
X132735400Y-91732122D02*
X131935400Y-91732122D01*
X126685400Y-91744400D02*
X126685400Y-99044400D01*
X134835400Y-94894400D02*
G75*
G03*
X134835400Y-94894400I-4000000J0D01*
G01*
%TO.C,C2*%
X122000000Y-91500000D02*
X122000000Y-90300000D01*
X122000000Y-90300000D02*
X124000000Y-90300000D01*
X124000000Y-91500000D02*
X122000000Y-91500000D01*
X124000000Y-90300000D02*
X124000000Y-91500000D01*
%TO.C,C3*%
X161660000Y-76116000D02*
X161660000Y-74116000D01*
X162860000Y-74116000D02*
X162860000Y-76116000D01*
X161660000Y-74116000D02*
X162860000Y-74116000D01*
X162860000Y-76116000D02*
X161660000Y-76116000D01*
%TO.C,C4*%
X156510000Y-74116000D02*
X156510000Y-76116000D01*
X155310000Y-76116000D02*
X155310000Y-74116000D01*
X155310000Y-74116000D02*
X156510000Y-74116000D01*
X156510000Y-76116000D02*
X155310000Y-76116000D01*
%TO.C,C5*%
X162722000Y-88154000D02*
X163922000Y-88154000D01*
X163922000Y-90154000D02*
X162722000Y-90154000D01*
X162722000Y-90154000D02*
X162722000Y-88154000D01*
X163922000Y-88154000D02*
X163922000Y-90154000D01*
%TO.C,C7*%
X152974800Y-79467000D02*
X152974800Y-78267000D01*
X154974800Y-79467000D02*
X152974800Y-79467000D01*
X154974800Y-78267000D02*
X154974800Y-79467000D01*
X152974800Y-78267000D02*
X154974800Y-78267000D01*
%TO.C,C8*%
X144154600Y-77968600D02*
X145354600Y-77968600D01*
X145354600Y-79968600D02*
X144154600Y-79968600D01*
X144154600Y-79968600D02*
X144154600Y-77968600D01*
X145354600Y-77968600D02*
X145354600Y-79968600D01*
%TO.C,D1*%
X162014000Y-97974000D02*
X162414000Y-98374000D01*
X163614000Y-98374000D02*
X163614000Y-95174000D01*
X162014000Y-95174000D02*
X162014000Y-97974000D01*
X163614000Y-95174000D02*
X162014000Y-95174000D01*
X162414000Y-98374000D02*
X163614000Y-98374000D01*
%TO.C,D2*%
X146720000Y-75650000D02*
X147020000Y-75950000D01*
X146720000Y-73950000D02*
X146720000Y-75650000D01*
X147920000Y-73950000D02*
X146720000Y-73950000D01*
X147920000Y-75950000D02*
X147920000Y-73950000D01*
X147020000Y-75950000D02*
X147920000Y-75950000D01*
%TO.C,D3*%
X145380000Y-75950000D02*
X145380000Y-73950000D01*
X144180000Y-75650000D02*
X144480000Y-75950000D01*
X144180000Y-73950000D02*
X144180000Y-75650000D01*
X144480000Y-75950000D02*
X145380000Y-75950000D01*
X145380000Y-73950000D02*
X144180000Y-73950000D01*
%TO.C,F1*%
X170144000Y-75616000D02*
X170144000Y-78816000D01*
X165644000Y-78816000D02*
X165644000Y-75616000D01*
X170144000Y-78816000D02*
X165644000Y-78816000D01*
X165644000Y-75616000D02*
X170144000Y-75616000D01*
%TO.C,FB1*%
X168894000Y-91278000D02*
X166894000Y-91278000D01*
X166894000Y-91278000D02*
X166894000Y-90078000D01*
X166894000Y-90078000D02*
X168894000Y-90078000D01*
X168894000Y-90078000D02*
X168894000Y-91278000D01*
%TO.C,FID1*%
X170168000Y-70612000D02*
G75*
G03*
X170168000Y-70612000I-750000J0D01*
G01*
%TO.C,FID2*%
X172454000Y-97282000D02*
G75*
G03*
X172454000Y-97282000I-750000J0D01*
G01*
%TO.C,FID3*%
X130747200Y-70078600D02*
G75*
G03*
X130747200Y-70078600I-750000J0D01*
G01*
%TO.C,FID4*%
X137960800Y-98171000D02*
G75*
G03*
X137960800Y-98171000I-750000J0D01*
G01*
%TO.C,J1*%
X118100000Y-76750000D02*
X122100000Y-76750000D01*
X124100000Y-76750000D02*
X132800000Y-76750000D01*
X122100000Y-76750000D02*
X123100000Y-77700000D01*
X132800000Y-85650000D02*
X132800000Y-76750000D01*
X123100000Y-77700000D02*
X124100000Y-76750000D01*
X118100000Y-85650000D02*
X118100000Y-76750000D01*
X118100000Y-85650000D02*
X132800000Y-85650000D01*
%TO.C,J3*%
X135030000Y-80770000D02*
X135030000Y-68070000D01*
X137570000Y-68070000D02*
X137570000Y-80135000D01*
X137570000Y-80135000D02*
X136935000Y-80770000D01*
X135030000Y-68070000D02*
X137570000Y-68070000D01*
X136935000Y-80770000D02*
X135030000Y-80770000D01*
%TO.C,J4*%
X155702000Y-93980000D02*
X155702000Y-99060000D01*
X151892000Y-93980000D02*
X155702000Y-93980000D01*
X150622000Y-95250000D02*
X151892000Y-93980000D01*
X155702000Y-99060000D02*
X150622000Y-99060000D01*
X150622000Y-99060000D02*
X150622000Y-95250000D01*
%TO.C,J5*%
X147472400Y-99034600D02*
X141122400Y-99034600D01*
X139852400Y-97764600D02*
X139852400Y-93954600D01*
X139852400Y-93954600D02*
X147472400Y-93954600D01*
X147472400Y-93954600D02*
X147472400Y-99034600D01*
X141122400Y-99034600D02*
X139852400Y-97764600D01*
%TO.C,J6*%
X140335000Y-75946000D02*
X142240000Y-75946000D01*
X142240000Y-91186000D02*
X139700000Y-91186000D01*
X139700000Y-76581000D02*
X140335000Y-75946000D01*
X142240000Y-75946000D02*
X142240000Y-91186000D01*
X139700000Y-91186000D02*
X139700000Y-76581000D01*
%TO.C,R1*%
X165370000Y-86706000D02*
X165370000Y-85506000D01*
X167370000Y-86706000D02*
X165370000Y-86706000D01*
X167370000Y-85506000D02*
X167370000Y-86706000D01*
X165370000Y-85506000D02*
X167370000Y-85506000D01*
%TO.C,R2*%
X167370000Y-84420000D02*
X165370000Y-84420000D01*
X167370000Y-83220000D02*
X167370000Y-84420000D01*
X165370000Y-84420000D02*
X165370000Y-83220000D01*
X165370000Y-83220000D02*
X167370000Y-83220000D01*
%TO.C,R3*%
X157958000Y-76478000D02*
X157958000Y-75278000D01*
X157958000Y-75278000D02*
X159958000Y-75278000D01*
X159958000Y-76478000D02*
X157958000Y-76478000D01*
X159958000Y-75278000D02*
X159958000Y-76478000D01*
%TO.C,R4*%
X159604000Y-94758000D02*
X159604000Y-96758000D01*
X159604000Y-96758000D02*
X158404000Y-96758000D01*
X158404000Y-96758000D02*
X158404000Y-94758000D01*
X158404000Y-94758000D02*
X159604000Y-94758000D01*
%TO.C,R5*%
X145354600Y-81804000D02*
X145354600Y-83804000D01*
X144154600Y-83804000D02*
X144154600Y-81804000D01*
X145354600Y-83804000D02*
X144154600Y-83804000D01*
X144154600Y-81804000D02*
X145354600Y-81804000D01*
%TO.C,R6*%
X146720000Y-69174800D02*
X147920000Y-69174800D01*
X147920000Y-71174800D02*
X146720000Y-71174800D01*
X146720000Y-71174800D02*
X146720000Y-69174800D01*
X147920000Y-69174800D02*
X147920000Y-71174800D01*
%TO.C,R7*%
X145380000Y-69174800D02*
X145380000Y-71174800D01*
X144180000Y-71174800D02*
X144180000Y-69174800D01*
X145380000Y-71174800D02*
X144180000Y-71174800D01*
X144180000Y-69174800D02*
X145380000Y-69174800D01*
%TO.C,VR1*%
X170034000Y-86550500D02*
X170834000Y-86550500D01*
X170034000Y-88150500D02*
X170034000Y-86550500D01*
X170834000Y-88150500D02*
X170034000Y-88150500D01*
X170834000Y-86550500D02*
X170834000Y-88150500D01*
%TO.C,Y1*%
X161227800Y-68427800D02*
X161427800Y-68627800D01*
X156427800Y-71427800D02*
X156427800Y-68627800D01*
X156427800Y-68627800D02*
X156627800Y-68427800D01*
X161427800Y-71427800D02*
X161227800Y-71627800D01*
X156627800Y-68427800D02*
X161227800Y-68427800D01*
X161427800Y-68627800D02*
X161427800Y-71427800D01*
X156627800Y-71627800D02*
X156427800Y-71427800D01*
X161427800Y-69427800D02*
X160427800Y-68427800D01*
X161227800Y-71627800D02*
X156627800Y-71627800D01*
%TO.C,J2*%
X188642000Y-88784000D02*
X172242000Y-88784000D01*
X172242000Y-88784000D02*
X172242000Y-76784000D01*
X172732000Y-81534000D02*
X172242000Y-81044000D01*
X172242000Y-76784000D02*
X188642000Y-76784000D01*
X172242000Y-82024000D02*
X172732000Y-81534000D01*
X188642000Y-76784000D02*
X188642000Y-88784000D01*
D10*
%TO.C,U1*%
X156932000Y-82352000D02*
X157932000Y-83352000D01*
X150932000Y-89352000D02*
X150932000Y-82352000D01*
X157932000Y-83352000D02*
X157932000Y-89352000D01*
X157932000Y-89352000D02*
X150932000Y-89352000D01*
X150932000Y-82352000D02*
X156932000Y-82352000D01*
D19*
%TO.C,VR2*%
X170834000Y-81521400D02*
X170834000Y-83121400D01*
X170034000Y-83121400D02*
X170034000Y-81521400D01*
X170834000Y-83121400D02*
X170034000Y-83121400D01*
X170034000Y-81521400D02*
X170834000Y-81521400D01*
%TO.C,C6*%
X162982200Y-81067400D02*
X162982200Y-83067400D01*
X162982200Y-83067400D02*
X161782200Y-83067400D01*
X161782200Y-83067400D02*
X161782200Y-81067400D01*
X161782200Y-81067400D02*
X162982200Y-81067400D01*
%TD*%
M02*
