%TF.GenerationSoftware,KiCad,Pcbnew,8.0.1+dfsg-1*%
%TF.CreationDate,2024-04-11T10:40:53+00:00*%
%TF.ProjectId,t1,74312e6b-6963-4616-945f-706362585858,${git_hash}*%
%TF.SameCoordinates,Original*%
%TF.FileFunction,AssemblyDrawing,Top*%
%FSLAX46Y46*%
G04 Gerber Fmt 4.6, Leading zero omitted, Abs format (unit mm)*
G04 Created by KiCad (PCBNEW 8.0.1+dfsg-1) date 2024-04-11 10:40:53*
%MOMM*%
%LPD*%
G01*
G04 APERTURE LIST*
%ADD10C,0.150000*%
%ADD11C,0.080000*%
%ADD12C,0.095250*%
%ADD13C,0.120000*%
%ADD14C,0.127000*%
%ADD15C,0.063500*%
%ADD16C,0.050000*%
%ADD17C,0.050800*%
%ADD18C,0.060000*%
%ADD19C,0.100000*%
G04 APERTURE END LIST*
D10*
X129592533Y-96409752D02*
X129592533Y-97076419D01*
X129354438Y-96028800D02*
X129116343Y-96743085D01*
X129116343Y-96743085D02*
X129735390Y-96743085D01*
X130021105Y-96076419D02*
X130687771Y-96076419D01*
X130687771Y-96076419D02*
X130259200Y-97076419D01*
X131497295Y-96409752D02*
X131497295Y-97076419D01*
X131068724Y-96409752D02*
X131068724Y-96933561D01*
X131068724Y-96933561D02*
X131116343Y-97028800D01*
X131116343Y-97028800D02*
X131211581Y-97076419D01*
X131211581Y-97076419D02*
X131354438Y-97076419D01*
X131354438Y-97076419D02*
X131449676Y-97028800D01*
X131449676Y-97028800D02*
X131497295Y-96981180D01*
X132306819Y-96552609D02*
X131973486Y-96552609D01*
X131973486Y-97076419D02*
X131973486Y-96076419D01*
X131973486Y-96076419D02*
X132449676Y-96076419D01*
X130668733Y-95253980D02*
X130621114Y-95301600D01*
X130621114Y-95301600D02*
X130478257Y-95349219D01*
X130478257Y-95349219D02*
X130383019Y-95349219D01*
X130383019Y-95349219D02*
X130240162Y-95301600D01*
X130240162Y-95301600D02*
X130144924Y-95206361D01*
X130144924Y-95206361D02*
X130097305Y-95111123D01*
X130097305Y-95111123D02*
X130049686Y-94920647D01*
X130049686Y-94920647D02*
X130049686Y-94777790D01*
X130049686Y-94777790D02*
X130097305Y-94587314D01*
X130097305Y-94587314D02*
X130144924Y-94492076D01*
X130144924Y-94492076D02*
X130240162Y-94396838D01*
X130240162Y-94396838D02*
X130383019Y-94349219D01*
X130383019Y-94349219D02*
X130478257Y-94349219D01*
X130478257Y-94349219D02*
X130621114Y-94396838D01*
X130621114Y-94396838D02*
X130668733Y-94444457D01*
X131621114Y-95349219D02*
X131049686Y-95349219D01*
X131335400Y-95349219D02*
X131335400Y-94349219D01*
X131335400Y-94349219D02*
X131240162Y-94492076D01*
X131240162Y-94492076D02*
X131144924Y-94587314D01*
X131144924Y-94587314D02*
X131049686Y-94634933D01*
X121452380Y-93004819D02*
X120880952Y-93004819D01*
X121166666Y-93004819D02*
X121166666Y-92004819D01*
X121166666Y-92004819D02*
X121071428Y-92147676D01*
X121071428Y-92147676D02*
X120976190Y-92242914D01*
X120976190Y-92242914D02*
X120880952Y-92290533D01*
X122071428Y-92004819D02*
X122166666Y-92004819D01*
X122166666Y-92004819D02*
X122261904Y-92052438D01*
X122261904Y-92052438D02*
X122309523Y-92100057D01*
X122309523Y-92100057D02*
X122357142Y-92195295D01*
X122357142Y-92195295D02*
X122404761Y-92385771D01*
X122404761Y-92385771D02*
X122404761Y-92623866D01*
X122404761Y-92623866D02*
X122357142Y-92814342D01*
X122357142Y-92814342D02*
X122309523Y-92909580D01*
X122309523Y-92909580D02*
X122261904Y-92957200D01*
X122261904Y-92957200D02*
X122166666Y-93004819D01*
X122166666Y-93004819D02*
X122071428Y-93004819D01*
X122071428Y-93004819D02*
X121976190Y-92957200D01*
X121976190Y-92957200D02*
X121928571Y-92909580D01*
X121928571Y-92909580D02*
X121880952Y-92814342D01*
X121880952Y-92814342D02*
X121833333Y-92623866D01*
X121833333Y-92623866D02*
X121833333Y-92385771D01*
X121833333Y-92385771D02*
X121880952Y-92195295D01*
X121880952Y-92195295D02*
X121928571Y-92100057D01*
X121928571Y-92100057D02*
X121976190Y-92052438D01*
X121976190Y-92052438D02*
X122071428Y-92004819D01*
X123023809Y-92004819D02*
X123119047Y-92004819D01*
X123119047Y-92004819D02*
X123214285Y-92052438D01*
X123214285Y-92052438D02*
X123261904Y-92100057D01*
X123261904Y-92100057D02*
X123309523Y-92195295D01*
X123309523Y-92195295D02*
X123357142Y-92385771D01*
X123357142Y-92385771D02*
X123357142Y-92623866D01*
X123357142Y-92623866D02*
X123309523Y-92814342D01*
X123309523Y-92814342D02*
X123261904Y-92909580D01*
X123261904Y-92909580D02*
X123214285Y-92957200D01*
X123214285Y-92957200D02*
X123119047Y-93004819D01*
X123119047Y-93004819D02*
X123023809Y-93004819D01*
X123023809Y-93004819D02*
X122928571Y-92957200D01*
X122928571Y-92957200D02*
X122880952Y-92909580D01*
X122880952Y-92909580D02*
X122833333Y-92814342D01*
X122833333Y-92814342D02*
X122785714Y-92623866D01*
X122785714Y-92623866D02*
X122785714Y-92385771D01*
X122785714Y-92385771D02*
X122833333Y-92195295D01*
X122833333Y-92195295D02*
X122880952Y-92100057D01*
X122880952Y-92100057D02*
X122928571Y-92052438D01*
X122928571Y-92052438D02*
X123023809Y-92004819D01*
X123785714Y-92338152D02*
X123785714Y-93004819D01*
X123785714Y-92433390D02*
X123833333Y-92385771D01*
X123833333Y-92385771D02*
X123928571Y-92338152D01*
X123928571Y-92338152D02*
X124071428Y-92338152D01*
X124071428Y-92338152D02*
X124166666Y-92385771D01*
X124166666Y-92385771D02*
X124214285Y-92481009D01*
X124214285Y-92481009D02*
X124214285Y-93004819D01*
X125023809Y-92481009D02*
X124690476Y-92481009D01*
X124690476Y-93004819D02*
X124690476Y-92004819D01*
X124690476Y-92004819D02*
X125166666Y-92004819D01*
D11*
X122916666Y-91079530D02*
X122892857Y-91103340D01*
X122892857Y-91103340D02*
X122821428Y-91127149D01*
X122821428Y-91127149D02*
X122773809Y-91127149D01*
X122773809Y-91127149D02*
X122702381Y-91103340D01*
X122702381Y-91103340D02*
X122654762Y-91055720D01*
X122654762Y-91055720D02*
X122630952Y-91008101D01*
X122630952Y-91008101D02*
X122607143Y-90912863D01*
X122607143Y-90912863D02*
X122607143Y-90841435D01*
X122607143Y-90841435D02*
X122630952Y-90746197D01*
X122630952Y-90746197D02*
X122654762Y-90698578D01*
X122654762Y-90698578D02*
X122702381Y-90650959D01*
X122702381Y-90650959D02*
X122773809Y-90627149D01*
X122773809Y-90627149D02*
X122821428Y-90627149D01*
X122821428Y-90627149D02*
X122892857Y-90650959D01*
X122892857Y-90650959D02*
X122916666Y-90674768D01*
X123107143Y-90674768D02*
X123130952Y-90650959D01*
X123130952Y-90650959D02*
X123178571Y-90627149D01*
X123178571Y-90627149D02*
X123297619Y-90627149D01*
X123297619Y-90627149D02*
X123345238Y-90650959D01*
X123345238Y-90650959D02*
X123369047Y-90674768D01*
X123369047Y-90674768D02*
X123392857Y-90722387D01*
X123392857Y-90722387D02*
X123392857Y-90770006D01*
X123392857Y-90770006D02*
X123369047Y-90841435D01*
X123369047Y-90841435D02*
X123083333Y-91127149D01*
X123083333Y-91127149D02*
X123392857Y-91127149D01*
D10*
X160866343Y-72321057D02*
X160913962Y-72273438D01*
X160913962Y-72273438D02*
X161009200Y-72225819D01*
X161009200Y-72225819D02*
X161247295Y-72225819D01*
X161247295Y-72225819D02*
X161342533Y-72273438D01*
X161342533Y-72273438D02*
X161390152Y-72321057D01*
X161390152Y-72321057D02*
X161437771Y-72416295D01*
X161437771Y-72416295D02*
X161437771Y-72511533D01*
X161437771Y-72511533D02*
X161390152Y-72654390D01*
X161390152Y-72654390D02*
X160818724Y-73225819D01*
X160818724Y-73225819D02*
X161437771Y-73225819D01*
X161818724Y-72321057D02*
X161866343Y-72273438D01*
X161866343Y-72273438D02*
X161961581Y-72225819D01*
X161961581Y-72225819D02*
X162199676Y-72225819D01*
X162199676Y-72225819D02*
X162294914Y-72273438D01*
X162294914Y-72273438D02*
X162342533Y-72321057D01*
X162342533Y-72321057D02*
X162390152Y-72416295D01*
X162390152Y-72416295D02*
X162390152Y-72511533D01*
X162390152Y-72511533D02*
X162342533Y-72654390D01*
X162342533Y-72654390D02*
X161771105Y-73225819D01*
X161771105Y-73225819D02*
X162390152Y-73225819D01*
X162818724Y-72559152D02*
X162818724Y-73559152D01*
X162818724Y-72606771D02*
X162913962Y-72559152D01*
X162913962Y-72559152D02*
X163104438Y-72559152D01*
X163104438Y-72559152D02*
X163199676Y-72606771D01*
X163199676Y-72606771D02*
X163247295Y-72654390D01*
X163247295Y-72654390D02*
X163294914Y-72749628D01*
X163294914Y-72749628D02*
X163294914Y-73035342D01*
X163294914Y-73035342D02*
X163247295Y-73130580D01*
X163247295Y-73130580D02*
X163199676Y-73178200D01*
X163199676Y-73178200D02*
X163104438Y-73225819D01*
X163104438Y-73225819D02*
X162913962Y-73225819D01*
X162913962Y-73225819D02*
X162818724Y-73178200D01*
X164056819Y-72702009D02*
X163723486Y-72702009D01*
X163723486Y-73225819D02*
X163723486Y-72225819D01*
X163723486Y-72225819D02*
X164199676Y-72225819D01*
D11*
X162176666Y-75295530D02*
X162152857Y-75319340D01*
X162152857Y-75319340D02*
X162081428Y-75343149D01*
X162081428Y-75343149D02*
X162033809Y-75343149D01*
X162033809Y-75343149D02*
X161962381Y-75319340D01*
X161962381Y-75319340D02*
X161914762Y-75271720D01*
X161914762Y-75271720D02*
X161890952Y-75224101D01*
X161890952Y-75224101D02*
X161867143Y-75128863D01*
X161867143Y-75128863D02*
X161867143Y-75057435D01*
X161867143Y-75057435D02*
X161890952Y-74962197D01*
X161890952Y-74962197D02*
X161914762Y-74914578D01*
X161914762Y-74914578D02*
X161962381Y-74866959D01*
X161962381Y-74866959D02*
X162033809Y-74843149D01*
X162033809Y-74843149D02*
X162081428Y-74843149D01*
X162081428Y-74843149D02*
X162152857Y-74866959D01*
X162152857Y-74866959D02*
X162176666Y-74890768D01*
X162343333Y-74843149D02*
X162652857Y-74843149D01*
X162652857Y-74843149D02*
X162486190Y-75033625D01*
X162486190Y-75033625D02*
X162557619Y-75033625D01*
X162557619Y-75033625D02*
X162605238Y-75057435D01*
X162605238Y-75057435D02*
X162629047Y-75081244D01*
X162629047Y-75081244D02*
X162652857Y-75128863D01*
X162652857Y-75128863D02*
X162652857Y-75247911D01*
X162652857Y-75247911D02*
X162629047Y-75295530D01*
X162629047Y-75295530D02*
X162605238Y-75319340D01*
X162605238Y-75319340D02*
X162557619Y-75343149D01*
X162557619Y-75343149D02*
X162414762Y-75343149D01*
X162414762Y-75343149D02*
X162367143Y-75319340D01*
X162367143Y-75319340D02*
X162343333Y-75295530D01*
D10*
X151341343Y-75775457D02*
X151388962Y-75727838D01*
X151388962Y-75727838D02*
X151484200Y-75680219D01*
X151484200Y-75680219D02*
X151722295Y-75680219D01*
X151722295Y-75680219D02*
X151817533Y-75727838D01*
X151817533Y-75727838D02*
X151865152Y-75775457D01*
X151865152Y-75775457D02*
X151912771Y-75870695D01*
X151912771Y-75870695D02*
X151912771Y-75965933D01*
X151912771Y-75965933D02*
X151865152Y-76108790D01*
X151865152Y-76108790D02*
X151293724Y-76680219D01*
X151293724Y-76680219D02*
X151912771Y-76680219D01*
X152293724Y-75775457D02*
X152341343Y-75727838D01*
X152341343Y-75727838D02*
X152436581Y-75680219D01*
X152436581Y-75680219D02*
X152674676Y-75680219D01*
X152674676Y-75680219D02*
X152769914Y-75727838D01*
X152769914Y-75727838D02*
X152817533Y-75775457D01*
X152817533Y-75775457D02*
X152865152Y-75870695D01*
X152865152Y-75870695D02*
X152865152Y-75965933D01*
X152865152Y-75965933D02*
X152817533Y-76108790D01*
X152817533Y-76108790D02*
X152246105Y-76680219D01*
X152246105Y-76680219D02*
X152865152Y-76680219D01*
X153293724Y-76013552D02*
X153293724Y-77013552D01*
X153293724Y-76061171D02*
X153388962Y-76013552D01*
X153388962Y-76013552D02*
X153579438Y-76013552D01*
X153579438Y-76013552D02*
X153674676Y-76061171D01*
X153674676Y-76061171D02*
X153722295Y-76108790D01*
X153722295Y-76108790D02*
X153769914Y-76204028D01*
X153769914Y-76204028D02*
X153769914Y-76489742D01*
X153769914Y-76489742D02*
X153722295Y-76584980D01*
X153722295Y-76584980D02*
X153674676Y-76632600D01*
X153674676Y-76632600D02*
X153579438Y-76680219D01*
X153579438Y-76680219D02*
X153388962Y-76680219D01*
X153388962Y-76680219D02*
X153293724Y-76632600D01*
X154531819Y-76156409D02*
X154198486Y-76156409D01*
X154198486Y-76680219D02*
X154198486Y-75680219D01*
X154198486Y-75680219D02*
X154674676Y-75680219D01*
D11*
X155826666Y-75295530D02*
X155802857Y-75319340D01*
X155802857Y-75319340D02*
X155731428Y-75343149D01*
X155731428Y-75343149D02*
X155683809Y-75343149D01*
X155683809Y-75343149D02*
X155612381Y-75319340D01*
X155612381Y-75319340D02*
X155564762Y-75271720D01*
X155564762Y-75271720D02*
X155540952Y-75224101D01*
X155540952Y-75224101D02*
X155517143Y-75128863D01*
X155517143Y-75128863D02*
X155517143Y-75057435D01*
X155517143Y-75057435D02*
X155540952Y-74962197D01*
X155540952Y-74962197D02*
X155564762Y-74914578D01*
X155564762Y-74914578D02*
X155612381Y-74866959D01*
X155612381Y-74866959D02*
X155683809Y-74843149D01*
X155683809Y-74843149D02*
X155731428Y-74843149D01*
X155731428Y-74843149D02*
X155802857Y-74866959D01*
X155802857Y-74866959D02*
X155826666Y-74890768D01*
X156255238Y-75009816D02*
X156255238Y-75343149D01*
X156136190Y-74819340D02*
X156017143Y-75176482D01*
X156017143Y-75176482D02*
X156326666Y-75176482D01*
D10*
X162574361Y-92148819D02*
X162002933Y-92148819D01*
X162288647Y-92148819D02*
X162288647Y-91148819D01*
X162288647Y-91148819D02*
X162193409Y-91291676D01*
X162193409Y-91291676D02*
X162098171Y-91386914D01*
X162098171Y-91386914D02*
X162002933Y-91434533D01*
X163431504Y-91482152D02*
X163431504Y-92148819D01*
X163002933Y-91482152D02*
X163002933Y-92005961D01*
X163002933Y-92005961D02*
X163050552Y-92101200D01*
X163050552Y-92101200D02*
X163145790Y-92148819D01*
X163145790Y-92148819D02*
X163288647Y-92148819D01*
X163288647Y-92148819D02*
X163383885Y-92101200D01*
X163383885Y-92101200D02*
X163431504Y-92053580D01*
X164241028Y-91625009D02*
X163907695Y-91625009D01*
X163907695Y-92148819D02*
X163907695Y-91148819D01*
X163907695Y-91148819D02*
X164383885Y-91148819D01*
D11*
X163238666Y-89333530D02*
X163214857Y-89357340D01*
X163214857Y-89357340D02*
X163143428Y-89381149D01*
X163143428Y-89381149D02*
X163095809Y-89381149D01*
X163095809Y-89381149D02*
X163024381Y-89357340D01*
X163024381Y-89357340D02*
X162976762Y-89309720D01*
X162976762Y-89309720D02*
X162952952Y-89262101D01*
X162952952Y-89262101D02*
X162929143Y-89166863D01*
X162929143Y-89166863D02*
X162929143Y-89095435D01*
X162929143Y-89095435D02*
X162952952Y-89000197D01*
X162952952Y-89000197D02*
X162976762Y-88952578D01*
X162976762Y-88952578D02*
X163024381Y-88904959D01*
X163024381Y-88904959D02*
X163095809Y-88881149D01*
X163095809Y-88881149D02*
X163143428Y-88881149D01*
X163143428Y-88881149D02*
X163214857Y-88904959D01*
X163214857Y-88904959D02*
X163238666Y-88928768D01*
X163691047Y-88881149D02*
X163452952Y-88881149D01*
X163452952Y-88881149D02*
X163429143Y-89119244D01*
X163429143Y-89119244D02*
X163452952Y-89095435D01*
X163452952Y-89095435D02*
X163500571Y-89071625D01*
X163500571Y-89071625D02*
X163619619Y-89071625D01*
X163619619Y-89071625D02*
X163667238Y-89095435D01*
X163667238Y-89095435D02*
X163691047Y-89119244D01*
X163691047Y-89119244D02*
X163714857Y-89166863D01*
X163714857Y-89166863D02*
X163714857Y-89285911D01*
X163714857Y-89285911D02*
X163691047Y-89333530D01*
X163691047Y-89333530D02*
X163667238Y-89357340D01*
X163667238Y-89357340D02*
X163619619Y-89381149D01*
X163619619Y-89381149D02*
X163500571Y-89381149D01*
X163500571Y-89381149D02*
X163452952Y-89357340D01*
X163452952Y-89357340D02*
X163429143Y-89333530D01*
D10*
X156618180Y-79779019D02*
X156046752Y-79779019D01*
X156332466Y-79779019D02*
X156332466Y-78779019D01*
X156332466Y-78779019D02*
X156237228Y-78921876D01*
X156237228Y-78921876D02*
X156141990Y-79017114D01*
X156141990Y-79017114D02*
X156046752Y-79064733D01*
X157237228Y-78779019D02*
X157332466Y-78779019D01*
X157332466Y-78779019D02*
X157427704Y-78826638D01*
X157427704Y-78826638D02*
X157475323Y-78874257D01*
X157475323Y-78874257D02*
X157522942Y-78969495D01*
X157522942Y-78969495D02*
X157570561Y-79159971D01*
X157570561Y-79159971D02*
X157570561Y-79398066D01*
X157570561Y-79398066D02*
X157522942Y-79588542D01*
X157522942Y-79588542D02*
X157475323Y-79683780D01*
X157475323Y-79683780D02*
X157427704Y-79731400D01*
X157427704Y-79731400D02*
X157332466Y-79779019D01*
X157332466Y-79779019D02*
X157237228Y-79779019D01*
X157237228Y-79779019D02*
X157141990Y-79731400D01*
X157141990Y-79731400D02*
X157094371Y-79683780D01*
X157094371Y-79683780D02*
X157046752Y-79588542D01*
X157046752Y-79588542D02*
X156999133Y-79398066D01*
X156999133Y-79398066D02*
X156999133Y-79159971D01*
X156999133Y-79159971D02*
X157046752Y-78969495D01*
X157046752Y-78969495D02*
X157094371Y-78874257D01*
X157094371Y-78874257D02*
X157141990Y-78826638D01*
X157141990Y-78826638D02*
X157237228Y-78779019D01*
X158189609Y-78779019D02*
X158284847Y-78779019D01*
X158284847Y-78779019D02*
X158380085Y-78826638D01*
X158380085Y-78826638D02*
X158427704Y-78874257D01*
X158427704Y-78874257D02*
X158475323Y-78969495D01*
X158475323Y-78969495D02*
X158522942Y-79159971D01*
X158522942Y-79159971D02*
X158522942Y-79398066D01*
X158522942Y-79398066D02*
X158475323Y-79588542D01*
X158475323Y-79588542D02*
X158427704Y-79683780D01*
X158427704Y-79683780D02*
X158380085Y-79731400D01*
X158380085Y-79731400D02*
X158284847Y-79779019D01*
X158284847Y-79779019D02*
X158189609Y-79779019D01*
X158189609Y-79779019D02*
X158094371Y-79731400D01*
X158094371Y-79731400D02*
X158046752Y-79683780D01*
X158046752Y-79683780D02*
X157999133Y-79588542D01*
X157999133Y-79588542D02*
X157951514Y-79398066D01*
X157951514Y-79398066D02*
X157951514Y-79159971D01*
X157951514Y-79159971D02*
X157999133Y-78969495D01*
X157999133Y-78969495D02*
X158046752Y-78874257D01*
X158046752Y-78874257D02*
X158094371Y-78826638D01*
X158094371Y-78826638D02*
X158189609Y-78779019D01*
X158951514Y-79112352D02*
X158951514Y-79779019D01*
X158951514Y-79207590D02*
X158999133Y-79159971D01*
X158999133Y-79159971D02*
X159094371Y-79112352D01*
X159094371Y-79112352D02*
X159237228Y-79112352D01*
X159237228Y-79112352D02*
X159332466Y-79159971D01*
X159332466Y-79159971D02*
X159380085Y-79255209D01*
X159380085Y-79255209D02*
X159380085Y-79779019D01*
X160189609Y-79255209D02*
X159856276Y-79255209D01*
X159856276Y-79779019D02*
X159856276Y-78779019D01*
X159856276Y-78779019D02*
X160332466Y-78779019D01*
D11*
X153891466Y-79046530D02*
X153867657Y-79070340D01*
X153867657Y-79070340D02*
X153796228Y-79094149D01*
X153796228Y-79094149D02*
X153748609Y-79094149D01*
X153748609Y-79094149D02*
X153677181Y-79070340D01*
X153677181Y-79070340D02*
X153629562Y-79022720D01*
X153629562Y-79022720D02*
X153605752Y-78975101D01*
X153605752Y-78975101D02*
X153581943Y-78879863D01*
X153581943Y-78879863D02*
X153581943Y-78808435D01*
X153581943Y-78808435D02*
X153605752Y-78713197D01*
X153605752Y-78713197D02*
X153629562Y-78665578D01*
X153629562Y-78665578D02*
X153677181Y-78617959D01*
X153677181Y-78617959D02*
X153748609Y-78594149D01*
X153748609Y-78594149D02*
X153796228Y-78594149D01*
X153796228Y-78594149D02*
X153867657Y-78617959D01*
X153867657Y-78617959D02*
X153891466Y-78641768D01*
X154058133Y-78594149D02*
X154391466Y-78594149D01*
X154391466Y-78594149D02*
X154177181Y-79094149D01*
D10*
X146508980Y-79448819D02*
X145937552Y-79448819D01*
X146223266Y-79448819D02*
X146223266Y-78448819D01*
X146223266Y-78448819D02*
X146128028Y-78591676D01*
X146128028Y-78591676D02*
X146032790Y-78686914D01*
X146032790Y-78686914D02*
X145937552Y-78734533D01*
X147128028Y-78448819D02*
X147223266Y-78448819D01*
X147223266Y-78448819D02*
X147318504Y-78496438D01*
X147318504Y-78496438D02*
X147366123Y-78544057D01*
X147366123Y-78544057D02*
X147413742Y-78639295D01*
X147413742Y-78639295D02*
X147461361Y-78829771D01*
X147461361Y-78829771D02*
X147461361Y-79067866D01*
X147461361Y-79067866D02*
X147413742Y-79258342D01*
X147413742Y-79258342D02*
X147366123Y-79353580D01*
X147366123Y-79353580D02*
X147318504Y-79401200D01*
X147318504Y-79401200D02*
X147223266Y-79448819D01*
X147223266Y-79448819D02*
X147128028Y-79448819D01*
X147128028Y-79448819D02*
X147032790Y-79401200D01*
X147032790Y-79401200D02*
X146985171Y-79353580D01*
X146985171Y-79353580D02*
X146937552Y-79258342D01*
X146937552Y-79258342D02*
X146889933Y-79067866D01*
X146889933Y-79067866D02*
X146889933Y-78829771D01*
X146889933Y-78829771D02*
X146937552Y-78639295D01*
X146937552Y-78639295D02*
X146985171Y-78544057D01*
X146985171Y-78544057D02*
X147032790Y-78496438D01*
X147032790Y-78496438D02*
X147128028Y-78448819D01*
X148080409Y-78448819D02*
X148175647Y-78448819D01*
X148175647Y-78448819D02*
X148270885Y-78496438D01*
X148270885Y-78496438D02*
X148318504Y-78544057D01*
X148318504Y-78544057D02*
X148366123Y-78639295D01*
X148366123Y-78639295D02*
X148413742Y-78829771D01*
X148413742Y-78829771D02*
X148413742Y-79067866D01*
X148413742Y-79067866D02*
X148366123Y-79258342D01*
X148366123Y-79258342D02*
X148318504Y-79353580D01*
X148318504Y-79353580D02*
X148270885Y-79401200D01*
X148270885Y-79401200D02*
X148175647Y-79448819D01*
X148175647Y-79448819D02*
X148080409Y-79448819D01*
X148080409Y-79448819D02*
X147985171Y-79401200D01*
X147985171Y-79401200D02*
X147937552Y-79353580D01*
X147937552Y-79353580D02*
X147889933Y-79258342D01*
X147889933Y-79258342D02*
X147842314Y-79067866D01*
X147842314Y-79067866D02*
X147842314Y-78829771D01*
X147842314Y-78829771D02*
X147889933Y-78639295D01*
X147889933Y-78639295D02*
X147937552Y-78544057D01*
X147937552Y-78544057D02*
X147985171Y-78496438D01*
X147985171Y-78496438D02*
X148080409Y-78448819D01*
X148842314Y-78782152D02*
X148842314Y-79448819D01*
X148842314Y-78877390D02*
X148889933Y-78829771D01*
X148889933Y-78829771D02*
X148985171Y-78782152D01*
X148985171Y-78782152D02*
X149128028Y-78782152D01*
X149128028Y-78782152D02*
X149223266Y-78829771D01*
X149223266Y-78829771D02*
X149270885Y-78925009D01*
X149270885Y-78925009D02*
X149270885Y-79448819D01*
X150080409Y-78925009D02*
X149747076Y-78925009D01*
X149747076Y-79448819D02*
X149747076Y-78448819D01*
X149747076Y-78448819D02*
X150223266Y-78448819D01*
D11*
X144671266Y-79148130D02*
X144647457Y-79171940D01*
X144647457Y-79171940D02*
X144576028Y-79195749D01*
X144576028Y-79195749D02*
X144528409Y-79195749D01*
X144528409Y-79195749D02*
X144456981Y-79171940D01*
X144456981Y-79171940D02*
X144409362Y-79124320D01*
X144409362Y-79124320D02*
X144385552Y-79076701D01*
X144385552Y-79076701D02*
X144361743Y-78981463D01*
X144361743Y-78981463D02*
X144361743Y-78910035D01*
X144361743Y-78910035D02*
X144385552Y-78814797D01*
X144385552Y-78814797D02*
X144409362Y-78767178D01*
X144409362Y-78767178D02*
X144456981Y-78719559D01*
X144456981Y-78719559D02*
X144528409Y-78695749D01*
X144528409Y-78695749D02*
X144576028Y-78695749D01*
X144576028Y-78695749D02*
X144647457Y-78719559D01*
X144647457Y-78719559D02*
X144671266Y-78743368D01*
X144956981Y-78910035D02*
X144909362Y-78886225D01*
X144909362Y-78886225D02*
X144885552Y-78862416D01*
X144885552Y-78862416D02*
X144861743Y-78814797D01*
X144861743Y-78814797D02*
X144861743Y-78790987D01*
X144861743Y-78790987D02*
X144885552Y-78743368D01*
X144885552Y-78743368D02*
X144909362Y-78719559D01*
X144909362Y-78719559D02*
X144956981Y-78695749D01*
X144956981Y-78695749D02*
X145052219Y-78695749D01*
X145052219Y-78695749D02*
X145099838Y-78719559D01*
X145099838Y-78719559D02*
X145123647Y-78743368D01*
X145123647Y-78743368D02*
X145147457Y-78790987D01*
X145147457Y-78790987D02*
X145147457Y-78814797D01*
X145147457Y-78814797D02*
X145123647Y-78862416D01*
X145123647Y-78862416D02*
X145099838Y-78886225D01*
X145099838Y-78886225D02*
X145052219Y-78910035D01*
X145052219Y-78910035D02*
X144956981Y-78910035D01*
X144956981Y-78910035D02*
X144909362Y-78933844D01*
X144909362Y-78933844D02*
X144885552Y-78957654D01*
X144885552Y-78957654D02*
X144861743Y-79005273D01*
X144861743Y-79005273D02*
X144861743Y-79100511D01*
X144861743Y-79100511D02*
X144885552Y-79148130D01*
X144885552Y-79148130D02*
X144909362Y-79171940D01*
X144909362Y-79171940D02*
X144956981Y-79195749D01*
X144956981Y-79195749D02*
X145052219Y-79195749D01*
X145052219Y-79195749D02*
X145099838Y-79171940D01*
X145099838Y-79171940D02*
X145123647Y-79148130D01*
X145123647Y-79148130D02*
X145147457Y-79100511D01*
X145147457Y-79100511D02*
X145147457Y-79005273D01*
X145147457Y-79005273D02*
X145123647Y-78957654D01*
X145123647Y-78957654D02*
X145099838Y-78933844D01*
X145099838Y-78933844D02*
X145052219Y-78910035D01*
D12*
X160945286Y-99779219D02*
X160927143Y-99797362D01*
X160927143Y-99797362D02*
X160872715Y-99815504D01*
X160872715Y-99815504D02*
X160836429Y-99815504D01*
X160836429Y-99815504D02*
X160782000Y-99797362D01*
X160782000Y-99797362D02*
X160745715Y-99761076D01*
X160745715Y-99761076D02*
X160727572Y-99724790D01*
X160727572Y-99724790D02*
X160709429Y-99652219D01*
X160709429Y-99652219D02*
X160709429Y-99597790D01*
X160709429Y-99597790D02*
X160727572Y-99525219D01*
X160727572Y-99525219D02*
X160745715Y-99488933D01*
X160745715Y-99488933D02*
X160782000Y-99452647D01*
X160782000Y-99452647D02*
X160836429Y-99434504D01*
X160836429Y-99434504D02*
X160872715Y-99434504D01*
X160872715Y-99434504D02*
X160927143Y-99452647D01*
X160927143Y-99452647D02*
X160945286Y-99470790D01*
X161108572Y-99815504D02*
X161108572Y-99434504D01*
X161108572Y-99434504D02*
X161199286Y-99434504D01*
X161199286Y-99434504D02*
X161253715Y-99452647D01*
X161253715Y-99452647D02*
X161290000Y-99488933D01*
X161290000Y-99488933D02*
X161308143Y-99525219D01*
X161308143Y-99525219D02*
X161326286Y-99597790D01*
X161326286Y-99597790D02*
X161326286Y-99652219D01*
X161326286Y-99652219D02*
X161308143Y-99724790D01*
X161308143Y-99724790D02*
X161290000Y-99761076D01*
X161290000Y-99761076D02*
X161253715Y-99797362D01*
X161253715Y-99797362D02*
X161199286Y-99815504D01*
X161199286Y-99815504D02*
X161108572Y-99815504D01*
X161689143Y-99815504D02*
X161471429Y-99815504D01*
X161580286Y-99815504D02*
X161580286Y-99434504D01*
X161580286Y-99434504D02*
X161544000Y-99488933D01*
X161544000Y-99488933D02*
X161507715Y-99525219D01*
X161507715Y-99525219D02*
X161471429Y-99543362D01*
X161834286Y-99470790D02*
X161852429Y-99452647D01*
X161852429Y-99452647D02*
X161888715Y-99434504D01*
X161888715Y-99434504D02*
X161979429Y-99434504D01*
X161979429Y-99434504D02*
X162015715Y-99452647D01*
X162015715Y-99452647D02*
X162033857Y-99470790D01*
X162033857Y-99470790D02*
X162052000Y-99507076D01*
X162052000Y-99507076D02*
X162052000Y-99543362D01*
X162052000Y-99543362D02*
X162033857Y-99597790D01*
X162033857Y-99597790D02*
X161816143Y-99815504D01*
X161816143Y-99815504D02*
X162052000Y-99815504D01*
X162287857Y-99434504D02*
X162324143Y-99434504D01*
X162324143Y-99434504D02*
X162360429Y-99452647D01*
X162360429Y-99452647D02*
X162378572Y-99470790D01*
X162378572Y-99470790D02*
X162396714Y-99507076D01*
X162396714Y-99507076D02*
X162414857Y-99579647D01*
X162414857Y-99579647D02*
X162414857Y-99670362D01*
X162414857Y-99670362D02*
X162396714Y-99742933D01*
X162396714Y-99742933D02*
X162378572Y-99779219D01*
X162378572Y-99779219D02*
X162360429Y-99797362D01*
X162360429Y-99797362D02*
X162324143Y-99815504D01*
X162324143Y-99815504D02*
X162287857Y-99815504D01*
X162287857Y-99815504D02*
X162251572Y-99797362D01*
X162251572Y-99797362D02*
X162233429Y-99779219D01*
X162233429Y-99779219D02*
X162215286Y-99742933D01*
X162215286Y-99742933D02*
X162197143Y-99670362D01*
X162197143Y-99670362D02*
X162197143Y-99579647D01*
X162197143Y-99579647D02*
X162215286Y-99507076D01*
X162215286Y-99507076D02*
X162233429Y-99470790D01*
X162233429Y-99470790D02*
X162251572Y-99452647D01*
X162251572Y-99452647D02*
X162287857Y-99434504D01*
X162741429Y-99434504D02*
X162668857Y-99434504D01*
X162668857Y-99434504D02*
X162632571Y-99452647D01*
X162632571Y-99452647D02*
X162614429Y-99470790D01*
X162614429Y-99470790D02*
X162578143Y-99525219D01*
X162578143Y-99525219D02*
X162560000Y-99597790D01*
X162560000Y-99597790D02*
X162560000Y-99742933D01*
X162560000Y-99742933D02*
X162578143Y-99779219D01*
X162578143Y-99779219D02*
X162596286Y-99797362D01*
X162596286Y-99797362D02*
X162632571Y-99815504D01*
X162632571Y-99815504D02*
X162705143Y-99815504D01*
X162705143Y-99815504D02*
X162741429Y-99797362D01*
X162741429Y-99797362D02*
X162759571Y-99779219D01*
X162759571Y-99779219D02*
X162777714Y-99742933D01*
X162777714Y-99742933D02*
X162777714Y-99652219D01*
X162777714Y-99652219D02*
X162759571Y-99615933D01*
X162759571Y-99615933D02*
X162741429Y-99597790D01*
X162741429Y-99597790D02*
X162705143Y-99579647D01*
X162705143Y-99579647D02*
X162632571Y-99579647D01*
X162632571Y-99579647D02*
X162596286Y-99597790D01*
X162596286Y-99597790D02*
X162578143Y-99615933D01*
X162578143Y-99615933D02*
X162560000Y-99652219D01*
X162941000Y-99670362D02*
X163231286Y-99670362D01*
X163394571Y-99797362D02*
X163449000Y-99815504D01*
X163449000Y-99815504D02*
X163539714Y-99815504D01*
X163539714Y-99815504D02*
X163576000Y-99797362D01*
X163576000Y-99797362D02*
X163594142Y-99779219D01*
X163594142Y-99779219D02*
X163612285Y-99742933D01*
X163612285Y-99742933D02*
X163612285Y-99706647D01*
X163612285Y-99706647D02*
X163594142Y-99670362D01*
X163594142Y-99670362D02*
X163576000Y-99652219D01*
X163576000Y-99652219D02*
X163539714Y-99634076D01*
X163539714Y-99634076D02*
X163467142Y-99615933D01*
X163467142Y-99615933D02*
X163430857Y-99597790D01*
X163430857Y-99597790D02*
X163412714Y-99579647D01*
X163412714Y-99579647D02*
X163394571Y-99543362D01*
X163394571Y-99543362D02*
X163394571Y-99507076D01*
X163394571Y-99507076D02*
X163412714Y-99470790D01*
X163412714Y-99470790D02*
X163430857Y-99452647D01*
X163430857Y-99452647D02*
X163467142Y-99434504D01*
X163467142Y-99434504D02*
X163557857Y-99434504D01*
X163557857Y-99434504D02*
X163612285Y-99452647D01*
X163848142Y-99434504D02*
X163884428Y-99434504D01*
X163884428Y-99434504D02*
X163920714Y-99452647D01*
X163920714Y-99452647D02*
X163938857Y-99470790D01*
X163938857Y-99470790D02*
X163956999Y-99507076D01*
X163956999Y-99507076D02*
X163975142Y-99579647D01*
X163975142Y-99579647D02*
X163975142Y-99670362D01*
X163975142Y-99670362D02*
X163956999Y-99742933D01*
X163956999Y-99742933D02*
X163938857Y-99779219D01*
X163938857Y-99779219D02*
X163920714Y-99797362D01*
X163920714Y-99797362D02*
X163884428Y-99815504D01*
X163884428Y-99815504D02*
X163848142Y-99815504D01*
X163848142Y-99815504D02*
X163811857Y-99797362D01*
X163811857Y-99797362D02*
X163793714Y-99779219D01*
X163793714Y-99779219D02*
X163775571Y-99742933D01*
X163775571Y-99742933D02*
X163757428Y-99670362D01*
X163757428Y-99670362D02*
X163757428Y-99579647D01*
X163757428Y-99579647D02*
X163775571Y-99507076D01*
X163775571Y-99507076D02*
X163793714Y-99470790D01*
X163793714Y-99470790D02*
X163811857Y-99452647D01*
X163811857Y-99452647D02*
X163848142Y-99434504D01*
X164337999Y-99815504D02*
X164120285Y-99815504D01*
X164229142Y-99815504D02*
X164229142Y-99434504D01*
X164229142Y-99434504D02*
X164192856Y-99488933D01*
X164192856Y-99488933D02*
X164156571Y-99525219D01*
X164156571Y-99525219D02*
X164120285Y-99543362D01*
X164682713Y-99434504D02*
X164501285Y-99434504D01*
X164501285Y-99434504D02*
X164483142Y-99615933D01*
X164483142Y-99615933D02*
X164501285Y-99597790D01*
X164501285Y-99597790D02*
X164537571Y-99579647D01*
X164537571Y-99579647D02*
X164628285Y-99579647D01*
X164628285Y-99579647D02*
X164664571Y-99597790D01*
X164664571Y-99597790D02*
X164682713Y-99615933D01*
X164682713Y-99615933D02*
X164700856Y-99652219D01*
X164700856Y-99652219D02*
X164700856Y-99742933D01*
X164700856Y-99742933D02*
X164682713Y-99779219D01*
X164682713Y-99779219D02*
X164664571Y-99797362D01*
X164664571Y-99797362D02*
X164628285Y-99815504D01*
X164628285Y-99815504D02*
X164537571Y-99815504D01*
X164537571Y-99815504D02*
X164501285Y-99797362D01*
X164501285Y-99797362D02*
X164483142Y-99779219D01*
X164827856Y-99434504D02*
X165081856Y-99434504D01*
X165081856Y-99434504D02*
X164918570Y-99815504D01*
X165408427Y-99434504D02*
X165226999Y-99434504D01*
X165226999Y-99434504D02*
X165208856Y-99615933D01*
X165208856Y-99615933D02*
X165226999Y-99597790D01*
X165226999Y-99597790D02*
X165263285Y-99579647D01*
X165263285Y-99579647D02*
X165353999Y-99579647D01*
X165353999Y-99579647D02*
X165390285Y-99597790D01*
X165390285Y-99597790D02*
X165408427Y-99615933D01*
X165408427Y-99615933D02*
X165426570Y-99652219D01*
X165426570Y-99652219D02*
X165426570Y-99742933D01*
X165426570Y-99742933D02*
X165408427Y-99779219D01*
X165408427Y-99779219D02*
X165390285Y-99797362D01*
X165390285Y-99797362D02*
X165353999Y-99815504D01*
X165353999Y-99815504D02*
X165263285Y-99815504D01*
X165263285Y-99815504D02*
X165226999Y-99797362D01*
X165226999Y-99797362D02*
X165208856Y-99779219D01*
D13*
X162223524Y-97137855D02*
X162223524Y-96337855D01*
X162223524Y-96337855D02*
X162414000Y-96337855D01*
X162414000Y-96337855D02*
X162528286Y-96375950D01*
X162528286Y-96375950D02*
X162604476Y-96452140D01*
X162604476Y-96452140D02*
X162642571Y-96528331D01*
X162642571Y-96528331D02*
X162680667Y-96680712D01*
X162680667Y-96680712D02*
X162680667Y-96794998D01*
X162680667Y-96794998D02*
X162642571Y-96947379D01*
X162642571Y-96947379D02*
X162604476Y-97023569D01*
X162604476Y-97023569D02*
X162528286Y-97099760D01*
X162528286Y-97099760D02*
X162414000Y-97137855D01*
X162414000Y-97137855D02*
X162223524Y-97137855D01*
X163442571Y-97137855D02*
X162985428Y-97137855D01*
X163214000Y-97137855D02*
X163214000Y-96337855D01*
X163214000Y-96337855D02*
X163137809Y-96452140D01*
X163137809Y-96452140D02*
X163061619Y-96528331D01*
X163061619Y-96528331D02*
X162985428Y-96566426D01*
D10*
X149242542Y-74140219D02*
X148766352Y-74140219D01*
X148766352Y-74140219D02*
X148766352Y-73140219D01*
X149575876Y-73616409D02*
X149909209Y-73616409D01*
X150052066Y-74140219D02*
X149575876Y-74140219D01*
X149575876Y-74140219D02*
X149575876Y-73140219D01*
X149575876Y-73140219D02*
X150052066Y-73140219D01*
X150480638Y-74140219D02*
X150480638Y-73140219D01*
X150480638Y-73140219D02*
X150718733Y-73140219D01*
X150718733Y-73140219D02*
X150861590Y-73187838D01*
X150861590Y-73187838D02*
X150956828Y-73283076D01*
X150956828Y-73283076D02*
X151004447Y-73378314D01*
X151004447Y-73378314D02*
X151052066Y-73568790D01*
X151052066Y-73568790D02*
X151052066Y-73711647D01*
X151052066Y-73711647D02*
X151004447Y-73902123D01*
X151004447Y-73902123D02*
X150956828Y-73997361D01*
X150956828Y-73997361D02*
X150861590Y-74092600D01*
X150861590Y-74092600D02*
X150718733Y-74140219D01*
X150718733Y-74140219D02*
X150480638Y-74140219D01*
D11*
X146950952Y-75177149D02*
X146950952Y-74677149D01*
X146950952Y-74677149D02*
X147070000Y-74677149D01*
X147070000Y-74677149D02*
X147141428Y-74700959D01*
X147141428Y-74700959D02*
X147189047Y-74748578D01*
X147189047Y-74748578D02*
X147212857Y-74796197D01*
X147212857Y-74796197D02*
X147236666Y-74891435D01*
X147236666Y-74891435D02*
X147236666Y-74962863D01*
X147236666Y-74962863D02*
X147212857Y-75058101D01*
X147212857Y-75058101D02*
X147189047Y-75105720D01*
X147189047Y-75105720D02*
X147141428Y-75153340D01*
X147141428Y-75153340D02*
X147070000Y-75177149D01*
X147070000Y-75177149D02*
X146950952Y-75177149D01*
X147427143Y-74724768D02*
X147450952Y-74700959D01*
X147450952Y-74700959D02*
X147498571Y-74677149D01*
X147498571Y-74677149D02*
X147617619Y-74677149D01*
X147617619Y-74677149D02*
X147665238Y-74700959D01*
X147665238Y-74700959D02*
X147689047Y-74724768D01*
X147689047Y-74724768D02*
X147712857Y-74772387D01*
X147712857Y-74772387D02*
X147712857Y-74820006D01*
X147712857Y-74820006D02*
X147689047Y-74891435D01*
X147689047Y-74891435D02*
X147403333Y-75177149D01*
X147403333Y-75177149D02*
X147712857Y-75177149D01*
D10*
X141622542Y-74038619D02*
X141146352Y-74038619D01*
X141146352Y-74038619D02*
X141146352Y-73038619D01*
X141955876Y-73514809D02*
X142289209Y-73514809D01*
X142432066Y-74038619D02*
X141955876Y-74038619D01*
X141955876Y-74038619D02*
X141955876Y-73038619D01*
X141955876Y-73038619D02*
X142432066Y-73038619D01*
X142860638Y-74038619D02*
X142860638Y-73038619D01*
X142860638Y-73038619D02*
X143098733Y-73038619D01*
X143098733Y-73038619D02*
X143241590Y-73086238D01*
X143241590Y-73086238D02*
X143336828Y-73181476D01*
X143336828Y-73181476D02*
X143384447Y-73276714D01*
X143384447Y-73276714D02*
X143432066Y-73467190D01*
X143432066Y-73467190D02*
X143432066Y-73610047D01*
X143432066Y-73610047D02*
X143384447Y-73800523D01*
X143384447Y-73800523D02*
X143336828Y-73895761D01*
X143336828Y-73895761D02*
X143241590Y-73991000D01*
X143241590Y-73991000D02*
X143098733Y-74038619D01*
X143098733Y-74038619D02*
X142860638Y-74038619D01*
D11*
X144410952Y-75177149D02*
X144410952Y-74677149D01*
X144410952Y-74677149D02*
X144530000Y-74677149D01*
X144530000Y-74677149D02*
X144601428Y-74700959D01*
X144601428Y-74700959D02*
X144649047Y-74748578D01*
X144649047Y-74748578D02*
X144672857Y-74796197D01*
X144672857Y-74796197D02*
X144696666Y-74891435D01*
X144696666Y-74891435D02*
X144696666Y-74962863D01*
X144696666Y-74962863D02*
X144672857Y-75058101D01*
X144672857Y-75058101D02*
X144649047Y-75105720D01*
X144649047Y-75105720D02*
X144601428Y-75153340D01*
X144601428Y-75153340D02*
X144530000Y-75177149D01*
X144530000Y-75177149D02*
X144410952Y-75177149D01*
X144863333Y-74677149D02*
X145172857Y-74677149D01*
X145172857Y-74677149D02*
X145006190Y-74867625D01*
X145006190Y-74867625D02*
X145077619Y-74867625D01*
X145077619Y-74867625D02*
X145125238Y-74891435D01*
X145125238Y-74891435D02*
X145149047Y-74915244D01*
X145149047Y-74915244D02*
X145172857Y-74962863D01*
X145172857Y-74962863D02*
X145172857Y-75081911D01*
X145172857Y-75081911D02*
X145149047Y-75129530D01*
X145149047Y-75129530D02*
X145125238Y-75153340D01*
X145125238Y-75153340D02*
X145077619Y-75177149D01*
X145077619Y-75177149D02*
X144934762Y-75177149D01*
X144934762Y-75177149D02*
X144887143Y-75153340D01*
X144887143Y-75153340D02*
X144863333Y-75129530D01*
D14*
X164743190Y-75056806D02*
X164743190Y-74548806D01*
X164743190Y-74548806D02*
X164912523Y-74911663D01*
X164912523Y-74911663D02*
X165081857Y-74548806D01*
X165081857Y-74548806D02*
X165081857Y-75056806D01*
X165493094Y-74790711D02*
X165323761Y-74790711D01*
X165323761Y-75056806D02*
X165323761Y-74548806D01*
X165323761Y-74548806D02*
X165565666Y-74548806D01*
X165759190Y-74863282D02*
X166146238Y-74863282D01*
X166388142Y-75056806D02*
X166388142Y-74548806D01*
X166388142Y-74548806D02*
X166557475Y-74911663D01*
X166557475Y-74911663D02*
X166726809Y-74548806D01*
X166726809Y-74548806D02*
X166726809Y-75056806D01*
X166944522Y-75032616D02*
X167017094Y-75056806D01*
X167017094Y-75056806D02*
X167138046Y-75056806D01*
X167138046Y-75056806D02*
X167186427Y-75032616D01*
X167186427Y-75032616D02*
X167210618Y-75008425D01*
X167210618Y-75008425D02*
X167234808Y-74960044D01*
X167234808Y-74960044D02*
X167234808Y-74911663D01*
X167234808Y-74911663D02*
X167210618Y-74863282D01*
X167210618Y-74863282D02*
X167186427Y-74839092D01*
X167186427Y-74839092D02*
X167138046Y-74814901D01*
X167138046Y-74814901D02*
X167041284Y-74790711D01*
X167041284Y-74790711D02*
X166992903Y-74766520D01*
X166992903Y-74766520D02*
X166968713Y-74742330D01*
X166968713Y-74742330D02*
X166944522Y-74693949D01*
X166944522Y-74693949D02*
X166944522Y-74645568D01*
X166944522Y-74645568D02*
X166968713Y-74597187D01*
X166968713Y-74597187D02*
X166992903Y-74572996D01*
X166992903Y-74572996D02*
X167041284Y-74548806D01*
X167041284Y-74548806D02*
X167162237Y-74548806D01*
X167162237Y-74548806D02*
X167234808Y-74572996D01*
X167452523Y-75056806D02*
X167452523Y-74548806D01*
X167452523Y-74548806D02*
X167621856Y-74911663D01*
X167621856Y-74911663D02*
X167791190Y-74548806D01*
X167791190Y-74548806D02*
X167791190Y-75056806D01*
X168202427Y-74790711D02*
X168033094Y-74790711D01*
X168033094Y-75056806D02*
X168033094Y-74548806D01*
X168033094Y-74548806D02*
X168274999Y-74548806D01*
X168565285Y-74548806D02*
X168613666Y-74548806D01*
X168613666Y-74548806D02*
X168662047Y-74572996D01*
X168662047Y-74572996D02*
X168686237Y-74597187D01*
X168686237Y-74597187D02*
X168710428Y-74645568D01*
X168710428Y-74645568D02*
X168734618Y-74742330D01*
X168734618Y-74742330D02*
X168734618Y-74863282D01*
X168734618Y-74863282D02*
X168710428Y-74960044D01*
X168710428Y-74960044D02*
X168686237Y-75008425D01*
X168686237Y-75008425D02*
X168662047Y-75032616D01*
X168662047Y-75032616D02*
X168613666Y-75056806D01*
X168613666Y-75056806D02*
X168565285Y-75056806D01*
X168565285Y-75056806D02*
X168516904Y-75032616D01*
X168516904Y-75032616D02*
X168492713Y-75008425D01*
X168492713Y-75008425D02*
X168468523Y-74960044D01*
X168468523Y-74960044D02*
X168444332Y-74863282D01*
X168444332Y-74863282D02*
X168444332Y-74742330D01*
X168444332Y-74742330D02*
X168468523Y-74645568D01*
X168468523Y-74645568D02*
X168492713Y-74597187D01*
X168492713Y-74597187D02*
X168516904Y-74572996D01*
X168516904Y-74572996D02*
X168565285Y-74548806D01*
X169194238Y-74548806D02*
X168952333Y-74548806D01*
X168952333Y-74548806D02*
X168928142Y-74790711D01*
X168928142Y-74790711D02*
X168952333Y-74766520D01*
X168952333Y-74766520D02*
X169000714Y-74742330D01*
X169000714Y-74742330D02*
X169121666Y-74742330D01*
X169121666Y-74742330D02*
X169170047Y-74766520D01*
X169170047Y-74766520D02*
X169194238Y-74790711D01*
X169194238Y-74790711D02*
X169218428Y-74839092D01*
X169218428Y-74839092D02*
X169218428Y-74960044D01*
X169218428Y-74960044D02*
X169194238Y-75008425D01*
X169194238Y-75008425D02*
X169170047Y-75032616D01*
X169170047Y-75032616D02*
X169121666Y-75056806D01*
X169121666Y-75056806D02*
X169000714Y-75056806D01*
X169000714Y-75056806D02*
X168952333Y-75032616D01*
X168952333Y-75032616D02*
X168928142Y-75008425D01*
X169532905Y-74548806D02*
X169581286Y-74548806D01*
X169581286Y-74548806D02*
X169629667Y-74572996D01*
X169629667Y-74572996D02*
X169653857Y-74597187D01*
X169653857Y-74597187D02*
X169678048Y-74645568D01*
X169678048Y-74645568D02*
X169702238Y-74742330D01*
X169702238Y-74742330D02*
X169702238Y-74863282D01*
X169702238Y-74863282D02*
X169678048Y-74960044D01*
X169678048Y-74960044D02*
X169653857Y-75008425D01*
X169653857Y-75008425D02*
X169629667Y-75032616D01*
X169629667Y-75032616D02*
X169581286Y-75056806D01*
X169581286Y-75056806D02*
X169532905Y-75056806D01*
X169532905Y-75056806D02*
X169484524Y-75032616D01*
X169484524Y-75032616D02*
X169460333Y-75008425D01*
X169460333Y-75008425D02*
X169436143Y-74960044D01*
X169436143Y-74960044D02*
X169411952Y-74863282D01*
X169411952Y-74863282D02*
X169411952Y-74742330D01*
X169411952Y-74742330D02*
X169436143Y-74645568D01*
X169436143Y-74645568D02*
X169460333Y-74597187D01*
X169460333Y-74597187D02*
X169484524Y-74572996D01*
X169484524Y-74572996D02*
X169532905Y-74548806D01*
X169919953Y-74863282D02*
X170307001Y-74863282D01*
X170524714Y-74597187D02*
X170548905Y-74572996D01*
X170548905Y-74572996D02*
X170597286Y-74548806D01*
X170597286Y-74548806D02*
X170718238Y-74548806D01*
X170718238Y-74548806D02*
X170766619Y-74572996D01*
X170766619Y-74572996D02*
X170790810Y-74597187D01*
X170790810Y-74597187D02*
X170815000Y-74645568D01*
X170815000Y-74645568D02*
X170815000Y-74693949D01*
X170815000Y-74693949D02*
X170790810Y-74766520D01*
X170790810Y-74766520D02*
X170500524Y-75056806D01*
X170500524Y-75056806D02*
X170815000Y-75056806D01*
D10*
X167560666Y-77147009D02*
X167227333Y-77147009D01*
X167227333Y-77670819D02*
X167227333Y-76670819D01*
X167227333Y-76670819D02*
X167703523Y-76670819D01*
X168608285Y-77670819D02*
X168036857Y-77670819D01*
X168322571Y-77670819D02*
X168322571Y-76670819D01*
X168322571Y-76670819D02*
X168227333Y-76813676D01*
X168227333Y-76813676D02*
X168132095Y-76908914D01*
X168132095Y-76908914D02*
X168036857Y-76956533D01*
D15*
X166448014Y-92048384D02*
X166502442Y-92066527D01*
X166502442Y-92066527D02*
X166520585Y-92084670D01*
X166520585Y-92084670D02*
X166538728Y-92120955D01*
X166538728Y-92120955D02*
X166538728Y-92175384D01*
X166538728Y-92175384D02*
X166520585Y-92211670D01*
X166520585Y-92211670D02*
X166502442Y-92229813D01*
X166502442Y-92229813D02*
X166466157Y-92247955D01*
X166466157Y-92247955D02*
X166321014Y-92247955D01*
X166321014Y-92247955D02*
X166321014Y-91866955D01*
X166321014Y-91866955D02*
X166448014Y-91866955D01*
X166448014Y-91866955D02*
X166484300Y-91885098D01*
X166484300Y-91885098D02*
X166502442Y-91903241D01*
X166502442Y-91903241D02*
X166520585Y-91939527D01*
X166520585Y-91939527D02*
X166520585Y-91975813D01*
X166520585Y-91975813D02*
X166502442Y-92012098D01*
X166502442Y-92012098D02*
X166484300Y-92030241D01*
X166484300Y-92030241D02*
X166448014Y-92048384D01*
X166448014Y-92048384D02*
X166321014Y-92048384D01*
X166883442Y-92247955D02*
X166702014Y-92247955D01*
X166702014Y-92247955D02*
X166702014Y-91866955D01*
X167010443Y-92247955D02*
X167010443Y-91866955D01*
X167010443Y-91866955D02*
X167137443Y-92139098D01*
X167137443Y-92139098D02*
X167264443Y-91866955D01*
X167264443Y-91866955D02*
X167264443Y-92247955D01*
X167427729Y-91903241D02*
X167445872Y-91885098D01*
X167445872Y-91885098D02*
X167482158Y-91866955D01*
X167482158Y-91866955D02*
X167572872Y-91866955D01*
X167572872Y-91866955D02*
X167609158Y-91885098D01*
X167609158Y-91885098D02*
X167627300Y-91903241D01*
X167627300Y-91903241D02*
X167645443Y-91939527D01*
X167645443Y-91939527D02*
X167645443Y-91975813D01*
X167645443Y-91975813D02*
X167627300Y-92030241D01*
X167627300Y-92030241D02*
X167409586Y-92247955D01*
X167409586Y-92247955D02*
X167645443Y-92247955D01*
X168008300Y-92247955D02*
X167790586Y-92247955D01*
X167899443Y-92247955D02*
X167899443Y-91866955D01*
X167899443Y-91866955D02*
X167863157Y-91921384D01*
X167863157Y-91921384D02*
X167826872Y-91957670D01*
X167826872Y-91957670D02*
X167790586Y-91975813D01*
X168171586Y-92247955D02*
X168171586Y-91866955D01*
X168171586Y-91866955D02*
X168316729Y-91866955D01*
X168316729Y-91866955D02*
X168353014Y-91885098D01*
X168353014Y-91885098D02*
X168371157Y-91903241D01*
X168371157Y-91903241D02*
X168389300Y-91939527D01*
X168389300Y-91939527D02*
X168389300Y-91993955D01*
X168389300Y-91993955D02*
X168371157Y-92030241D01*
X168371157Y-92030241D02*
X168353014Y-92048384D01*
X168353014Y-92048384D02*
X168316729Y-92066527D01*
X168316729Y-92066527D02*
X168171586Y-92066527D01*
X168752157Y-91885098D02*
X168715872Y-91866955D01*
X168715872Y-91866955D02*
X168661443Y-91866955D01*
X168661443Y-91866955D02*
X168607014Y-91885098D01*
X168607014Y-91885098D02*
X168570729Y-91921384D01*
X168570729Y-91921384D02*
X168552586Y-91957670D01*
X168552586Y-91957670D02*
X168534443Y-92030241D01*
X168534443Y-92030241D02*
X168534443Y-92084670D01*
X168534443Y-92084670D02*
X168552586Y-92157241D01*
X168552586Y-92157241D02*
X168570729Y-92193527D01*
X168570729Y-92193527D02*
X168607014Y-92229813D01*
X168607014Y-92229813D02*
X168661443Y-92247955D01*
X168661443Y-92247955D02*
X168697729Y-92247955D01*
X168697729Y-92247955D02*
X168752157Y-92229813D01*
X168752157Y-92229813D02*
X168770300Y-92211670D01*
X168770300Y-92211670D02*
X168770300Y-92084670D01*
X168770300Y-92084670D02*
X168697729Y-92084670D01*
X168915443Y-91903241D02*
X168933586Y-91885098D01*
X168933586Y-91885098D02*
X168969872Y-91866955D01*
X168969872Y-91866955D02*
X169060586Y-91866955D01*
X169060586Y-91866955D02*
X169096872Y-91885098D01*
X169096872Y-91885098D02*
X169115014Y-91903241D01*
X169115014Y-91903241D02*
X169133157Y-91939527D01*
X169133157Y-91939527D02*
X169133157Y-91975813D01*
X169133157Y-91975813D02*
X169115014Y-92030241D01*
X169115014Y-92030241D02*
X168897300Y-92247955D01*
X168897300Y-92247955D02*
X169133157Y-92247955D01*
X169278300Y-91903241D02*
X169296443Y-91885098D01*
X169296443Y-91885098D02*
X169332729Y-91866955D01*
X169332729Y-91866955D02*
X169423443Y-91866955D01*
X169423443Y-91866955D02*
X169459729Y-91885098D01*
X169459729Y-91885098D02*
X169477871Y-91903241D01*
X169477871Y-91903241D02*
X169496014Y-91939527D01*
X169496014Y-91939527D02*
X169496014Y-91975813D01*
X169496014Y-91975813D02*
X169477871Y-92030241D01*
X169477871Y-92030241D02*
X169260157Y-92247955D01*
X169260157Y-92247955D02*
X169496014Y-92247955D01*
X169858871Y-92247955D02*
X169641157Y-92247955D01*
X169750014Y-92247955D02*
X169750014Y-91866955D01*
X169750014Y-91866955D02*
X169713728Y-91921384D01*
X169713728Y-91921384D02*
X169677443Y-91957670D01*
X169677443Y-91957670D02*
X169641157Y-91975813D01*
X170004014Y-92229813D02*
X170058443Y-92247955D01*
X170058443Y-92247955D02*
X170149157Y-92247955D01*
X170149157Y-92247955D02*
X170185443Y-92229813D01*
X170185443Y-92229813D02*
X170203585Y-92211670D01*
X170203585Y-92211670D02*
X170221728Y-92175384D01*
X170221728Y-92175384D02*
X170221728Y-92139098D01*
X170221728Y-92139098D02*
X170203585Y-92102813D01*
X170203585Y-92102813D02*
X170185443Y-92084670D01*
X170185443Y-92084670D02*
X170149157Y-92066527D01*
X170149157Y-92066527D02*
X170076585Y-92048384D01*
X170076585Y-92048384D02*
X170040300Y-92030241D01*
X170040300Y-92030241D02*
X170022157Y-92012098D01*
X170022157Y-92012098D02*
X170004014Y-91975813D01*
X170004014Y-91975813D02*
X170004014Y-91939527D01*
X170004014Y-91939527D02*
X170022157Y-91903241D01*
X170022157Y-91903241D02*
X170040300Y-91885098D01*
X170040300Y-91885098D02*
X170076585Y-91866955D01*
X170076585Y-91866955D02*
X170167300Y-91866955D01*
X170167300Y-91866955D02*
X170221728Y-91885098D01*
X170385014Y-92247955D02*
X170385014Y-91866955D01*
X170385014Y-91866955D02*
X170602728Y-92247955D01*
X170602728Y-92247955D02*
X170602728Y-91866955D01*
X170983728Y-92247955D02*
X170766014Y-92247955D01*
X170874871Y-92247955D02*
X170874871Y-91866955D01*
X170874871Y-91866955D02*
X170838585Y-91921384D01*
X170838585Y-91921384D02*
X170802300Y-91957670D01*
X170802300Y-91957670D02*
X170766014Y-91975813D01*
X171147014Y-92247955D02*
X171147014Y-91866955D01*
X171147014Y-91866955D02*
X171237728Y-91866955D01*
X171237728Y-91866955D02*
X171292157Y-91885098D01*
X171292157Y-91885098D02*
X171328442Y-91921384D01*
X171328442Y-91921384D02*
X171346585Y-91957670D01*
X171346585Y-91957670D02*
X171364728Y-92030241D01*
X171364728Y-92030241D02*
X171364728Y-92084670D01*
X171364728Y-92084670D02*
X171346585Y-92157241D01*
X171346585Y-92157241D02*
X171328442Y-92193527D01*
X171328442Y-92193527D02*
X171292157Y-92229813D01*
X171292157Y-92229813D02*
X171237728Y-92247955D01*
X171237728Y-92247955D02*
X171147014Y-92247955D01*
D11*
X167477334Y-90643244D02*
X167310667Y-90643244D01*
X167310667Y-90905149D02*
X167310667Y-90405149D01*
X167310667Y-90405149D02*
X167548762Y-90405149D01*
X167905905Y-90643244D02*
X167977333Y-90667054D01*
X167977333Y-90667054D02*
X168001143Y-90690863D01*
X168001143Y-90690863D02*
X168024952Y-90738482D01*
X168024952Y-90738482D02*
X168024952Y-90809911D01*
X168024952Y-90809911D02*
X168001143Y-90857530D01*
X168001143Y-90857530D02*
X167977333Y-90881340D01*
X167977333Y-90881340D02*
X167929714Y-90905149D01*
X167929714Y-90905149D02*
X167739238Y-90905149D01*
X167739238Y-90905149D02*
X167739238Y-90405149D01*
X167739238Y-90405149D02*
X167905905Y-90405149D01*
X167905905Y-90405149D02*
X167953524Y-90428959D01*
X167953524Y-90428959D02*
X167977333Y-90452768D01*
X167977333Y-90452768D02*
X168001143Y-90500387D01*
X168001143Y-90500387D02*
X168001143Y-90548006D01*
X168001143Y-90548006D02*
X167977333Y-90595625D01*
X167977333Y-90595625D02*
X167953524Y-90619435D01*
X167953524Y-90619435D02*
X167905905Y-90643244D01*
X167905905Y-90643244D02*
X167739238Y-90643244D01*
X168501143Y-90905149D02*
X168215429Y-90905149D01*
X168358286Y-90905149D02*
X168358286Y-90405149D01*
X168358286Y-90405149D02*
X168310667Y-90476578D01*
X168310667Y-90476578D02*
X168263048Y-90524197D01*
X168263048Y-90524197D02*
X168215429Y-90548006D01*
D10*
X166910047Y-68688809D02*
X166576714Y-68688809D01*
X166576714Y-69212619D02*
X166576714Y-68212619D01*
X166576714Y-68212619D02*
X167052904Y-68212619D01*
X167433857Y-69212619D02*
X167433857Y-68545952D01*
X167433857Y-68212619D02*
X167386238Y-68260238D01*
X167386238Y-68260238D02*
X167433857Y-68307857D01*
X167433857Y-68307857D02*
X167481476Y-68260238D01*
X167481476Y-68260238D02*
X167433857Y-68212619D01*
X167433857Y-68212619D02*
X167433857Y-68307857D01*
X168338618Y-69212619D02*
X168338618Y-68212619D01*
X168338618Y-69165000D02*
X168243380Y-69212619D01*
X168243380Y-69212619D02*
X168052904Y-69212619D01*
X168052904Y-69212619D02*
X167957666Y-69165000D01*
X167957666Y-69165000D02*
X167910047Y-69117380D01*
X167910047Y-69117380D02*
X167862428Y-69022142D01*
X167862428Y-69022142D02*
X167862428Y-68736428D01*
X167862428Y-68736428D02*
X167910047Y-68641190D01*
X167910047Y-68641190D02*
X167957666Y-68593571D01*
X167957666Y-68593571D02*
X168052904Y-68545952D01*
X168052904Y-68545952D02*
X168243380Y-68545952D01*
X168243380Y-68545952D02*
X168338618Y-68593571D01*
X169243380Y-68545952D02*
X169243380Y-69212619D01*
X168814809Y-68545952D02*
X168814809Y-69069761D01*
X168814809Y-69069761D02*
X168862428Y-69165000D01*
X168862428Y-69165000D02*
X168957666Y-69212619D01*
X168957666Y-69212619D02*
X169100523Y-69212619D01*
X169100523Y-69212619D02*
X169195761Y-69165000D01*
X169195761Y-69165000D02*
X169243380Y-69117380D01*
X170148142Y-69165000D02*
X170052904Y-69212619D01*
X170052904Y-69212619D02*
X169862428Y-69212619D01*
X169862428Y-69212619D02*
X169767190Y-69165000D01*
X169767190Y-69165000D02*
X169719571Y-69117380D01*
X169719571Y-69117380D02*
X169671952Y-69022142D01*
X169671952Y-69022142D02*
X169671952Y-68736428D01*
X169671952Y-68736428D02*
X169719571Y-68641190D01*
X169719571Y-68641190D02*
X169767190Y-68593571D01*
X169767190Y-68593571D02*
X169862428Y-68545952D01*
X169862428Y-68545952D02*
X170052904Y-68545952D01*
X170052904Y-68545952D02*
X170148142Y-68593571D01*
X170576714Y-69212619D02*
X170576714Y-68545952D01*
X170576714Y-68212619D02*
X170529095Y-68260238D01*
X170529095Y-68260238D02*
X170576714Y-68307857D01*
X170576714Y-68307857D02*
X170624333Y-68260238D01*
X170624333Y-68260238D02*
X170576714Y-68212619D01*
X170576714Y-68212619D02*
X170576714Y-68307857D01*
X171481475Y-69212619D02*
X171481475Y-68688809D01*
X171481475Y-68688809D02*
X171433856Y-68593571D01*
X171433856Y-68593571D02*
X171338618Y-68545952D01*
X171338618Y-68545952D02*
X171148142Y-68545952D01*
X171148142Y-68545952D02*
X171052904Y-68593571D01*
X171481475Y-69165000D02*
X171386237Y-69212619D01*
X171386237Y-69212619D02*
X171148142Y-69212619D01*
X171148142Y-69212619D02*
X171052904Y-69165000D01*
X171052904Y-69165000D02*
X171005285Y-69069761D01*
X171005285Y-69069761D02*
X171005285Y-68974523D01*
X171005285Y-68974523D02*
X171052904Y-68879285D01*
X171052904Y-68879285D02*
X171148142Y-68831666D01*
X171148142Y-68831666D02*
X171386237Y-68831666D01*
X171386237Y-68831666D02*
X171481475Y-68784047D01*
X172100523Y-69212619D02*
X172005285Y-69165000D01*
X172005285Y-69165000D02*
X171957666Y-69069761D01*
X171957666Y-69069761D02*
X171957666Y-68212619D01*
D16*
X169096571Y-70591042D02*
X168996571Y-70591042D01*
X168996571Y-70748185D02*
X168996571Y-70448185D01*
X168996571Y-70448185D02*
X169139428Y-70448185D01*
X169253714Y-70748185D02*
X169253714Y-70448185D01*
X169396571Y-70748185D02*
X169396571Y-70448185D01*
X169396571Y-70448185D02*
X169468000Y-70448185D01*
X169468000Y-70448185D02*
X169510857Y-70462471D01*
X169510857Y-70462471D02*
X169539428Y-70491042D01*
X169539428Y-70491042D02*
X169553714Y-70519614D01*
X169553714Y-70519614D02*
X169568000Y-70576757D01*
X169568000Y-70576757D02*
X169568000Y-70619614D01*
X169568000Y-70619614D02*
X169553714Y-70676757D01*
X169553714Y-70676757D02*
X169539428Y-70705328D01*
X169539428Y-70705328D02*
X169510857Y-70733900D01*
X169510857Y-70733900D02*
X169468000Y-70748185D01*
X169468000Y-70748185D02*
X169396571Y-70748185D01*
X169853714Y-70748185D02*
X169682285Y-70748185D01*
X169768000Y-70748185D02*
X169768000Y-70448185D01*
X169768000Y-70448185D02*
X169739428Y-70491042D01*
X169739428Y-70491042D02*
X169710857Y-70519614D01*
X169710857Y-70519614D02*
X169682285Y-70533900D01*
D10*
X169323047Y-99213009D02*
X168989714Y-99213009D01*
X168989714Y-99736819D02*
X168989714Y-98736819D01*
X168989714Y-98736819D02*
X169465904Y-98736819D01*
X169846857Y-99736819D02*
X169846857Y-99070152D01*
X169846857Y-98736819D02*
X169799238Y-98784438D01*
X169799238Y-98784438D02*
X169846857Y-98832057D01*
X169846857Y-98832057D02*
X169894476Y-98784438D01*
X169894476Y-98784438D02*
X169846857Y-98736819D01*
X169846857Y-98736819D02*
X169846857Y-98832057D01*
X170751618Y-99736819D02*
X170751618Y-98736819D01*
X170751618Y-99689200D02*
X170656380Y-99736819D01*
X170656380Y-99736819D02*
X170465904Y-99736819D01*
X170465904Y-99736819D02*
X170370666Y-99689200D01*
X170370666Y-99689200D02*
X170323047Y-99641580D01*
X170323047Y-99641580D02*
X170275428Y-99546342D01*
X170275428Y-99546342D02*
X170275428Y-99260628D01*
X170275428Y-99260628D02*
X170323047Y-99165390D01*
X170323047Y-99165390D02*
X170370666Y-99117771D01*
X170370666Y-99117771D02*
X170465904Y-99070152D01*
X170465904Y-99070152D02*
X170656380Y-99070152D01*
X170656380Y-99070152D02*
X170751618Y-99117771D01*
X171656380Y-99070152D02*
X171656380Y-99736819D01*
X171227809Y-99070152D02*
X171227809Y-99593961D01*
X171227809Y-99593961D02*
X171275428Y-99689200D01*
X171275428Y-99689200D02*
X171370666Y-99736819D01*
X171370666Y-99736819D02*
X171513523Y-99736819D01*
X171513523Y-99736819D02*
X171608761Y-99689200D01*
X171608761Y-99689200D02*
X171656380Y-99641580D01*
X172561142Y-99689200D02*
X172465904Y-99736819D01*
X172465904Y-99736819D02*
X172275428Y-99736819D01*
X172275428Y-99736819D02*
X172180190Y-99689200D01*
X172180190Y-99689200D02*
X172132571Y-99641580D01*
X172132571Y-99641580D02*
X172084952Y-99546342D01*
X172084952Y-99546342D02*
X172084952Y-99260628D01*
X172084952Y-99260628D02*
X172132571Y-99165390D01*
X172132571Y-99165390D02*
X172180190Y-99117771D01*
X172180190Y-99117771D02*
X172275428Y-99070152D01*
X172275428Y-99070152D02*
X172465904Y-99070152D01*
X172465904Y-99070152D02*
X172561142Y-99117771D01*
X172989714Y-99736819D02*
X172989714Y-99070152D01*
X172989714Y-98736819D02*
X172942095Y-98784438D01*
X172942095Y-98784438D02*
X172989714Y-98832057D01*
X172989714Y-98832057D02*
X173037333Y-98784438D01*
X173037333Y-98784438D02*
X172989714Y-98736819D01*
X172989714Y-98736819D02*
X172989714Y-98832057D01*
X173894475Y-99736819D02*
X173894475Y-99213009D01*
X173894475Y-99213009D02*
X173846856Y-99117771D01*
X173846856Y-99117771D02*
X173751618Y-99070152D01*
X173751618Y-99070152D02*
X173561142Y-99070152D01*
X173561142Y-99070152D02*
X173465904Y-99117771D01*
X173894475Y-99689200D02*
X173799237Y-99736819D01*
X173799237Y-99736819D02*
X173561142Y-99736819D01*
X173561142Y-99736819D02*
X173465904Y-99689200D01*
X173465904Y-99689200D02*
X173418285Y-99593961D01*
X173418285Y-99593961D02*
X173418285Y-99498723D01*
X173418285Y-99498723D02*
X173465904Y-99403485D01*
X173465904Y-99403485D02*
X173561142Y-99355866D01*
X173561142Y-99355866D02*
X173799237Y-99355866D01*
X173799237Y-99355866D02*
X173894475Y-99308247D01*
X174513523Y-99736819D02*
X174418285Y-99689200D01*
X174418285Y-99689200D02*
X174370666Y-99593961D01*
X174370666Y-99593961D02*
X174370666Y-98736819D01*
D16*
X171382571Y-97261042D02*
X171282571Y-97261042D01*
X171282571Y-97418185D02*
X171282571Y-97118185D01*
X171282571Y-97118185D02*
X171425428Y-97118185D01*
X171539714Y-97418185D02*
X171539714Y-97118185D01*
X171682571Y-97418185D02*
X171682571Y-97118185D01*
X171682571Y-97118185D02*
X171754000Y-97118185D01*
X171754000Y-97118185D02*
X171796857Y-97132471D01*
X171796857Y-97132471D02*
X171825428Y-97161042D01*
X171825428Y-97161042D02*
X171839714Y-97189614D01*
X171839714Y-97189614D02*
X171854000Y-97246757D01*
X171854000Y-97246757D02*
X171854000Y-97289614D01*
X171854000Y-97289614D02*
X171839714Y-97346757D01*
X171839714Y-97346757D02*
X171825428Y-97375328D01*
X171825428Y-97375328D02*
X171796857Y-97403900D01*
X171796857Y-97403900D02*
X171754000Y-97418185D01*
X171754000Y-97418185D02*
X171682571Y-97418185D01*
X171968285Y-97146757D02*
X171982571Y-97132471D01*
X171982571Y-97132471D02*
X172011143Y-97118185D01*
X172011143Y-97118185D02*
X172082571Y-97118185D01*
X172082571Y-97118185D02*
X172111143Y-97132471D01*
X172111143Y-97132471D02*
X172125428Y-97146757D01*
X172125428Y-97146757D02*
X172139714Y-97175328D01*
X172139714Y-97175328D02*
X172139714Y-97203900D01*
X172139714Y-97203900D02*
X172125428Y-97246757D01*
X172125428Y-97246757D02*
X171954000Y-97418185D01*
X171954000Y-97418185D02*
X172139714Y-97418185D01*
D10*
X127616247Y-72009609D02*
X127282914Y-72009609D01*
X127282914Y-72533419D02*
X127282914Y-71533419D01*
X127282914Y-71533419D02*
X127759104Y-71533419D01*
X128140057Y-72533419D02*
X128140057Y-71866752D01*
X128140057Y-71533419D02*
X128092438Y-71581038D01*
X128092438Y-71581038D02*
X128140057Y-71628657D01*
X128140057Y-71628657D02*
X128187676Y-71581038D01*
X128187676Y-71581038D02*
X128140057Y-71533419D01*
X128140057Y-71533419D02*
X128140057Y-71628657D01*
X129044818Y-72533419D02*
X129044818Y-71533419D01*
X129044818Y-72485800D02*
X128949580Y-72533419D01*
X128949580Y-72533419D02*
X128759104Y-72533419D01*
X128759104Y-72533419D02*
X128663866Y-72485800D01*
X128663866Y-72485800D02*
X128616247Y-72438180D01*
X128616247Y-72438180D02*
X128568628Y-72342942D01*
X128568628Y-72342942D02*
X128568628Y-72057228D01*
X128568628Y-72057228D02*
X128616247Y-71961990D01*
X128616247Y-71961990D02*
X128663866Y-71914371D01*
X128663866Y-71914371D02*
X128759104Y-71866752D01*
X128759104Y-71866752D02*
X128949580Y-71866752D01*
X128949580Y-71866752D02*
X129044818Y-71914371D01*
X129949580Y-71866752D02*
X129949580Y-72533419D01*
X129521009Y-71866752D02*
X129521009Y-72390561D01*
X129521009Y-72390561D02*
X129568628Y-72485800D01*
X129568628Y-72485800D02*
X129663866Y-72533419D01*
X129663866Y-72533419D02*
X129806723Y-72533419D01*
X129806723Y-72533419D02*
X129901961Y-72485800D01*
X129901961Y-72485800D02*
X129949580Y-72438180D01*
X130854342Y-72485800D02*
X130759104Y-72533419D01*
X130759104Y-72533419D02*
X130568628Y-72533419D01*
X130568628Y-72533419D02*
X130473390Y-72485800D01*
X130473390Y-72485800D02*
X130425771Y-72438180D01*
X130425771Y-72438180D02*
X130378152Y-72342942D01*
X130378152Y-72342942D02*
X130378152Y-72057228D01*
X130378152Y-72057228D02*
X130425771Y-71961990D01*
X130425771Y-71961990D02*
X130473390Y-71914371D01*
X130473390Y-71914371D02*
X130568628Y-71866752D01*
X130568628Y-71866752D02*
X130759104Y-71866752D01*
X130759104Y-71866752D02*
X130854342Y-71914371D01*
X131282914Y-72533419D02*
X131282914Y-71866752D01*
X131282914Y-71533419D02*
X131235295Y-71581038D01*
X131235295Y-71581038D02*
X131282914Y-71628657D01*
X131282914Y-71628657D02*
X131330533Y-71581038D01*
X131330533Y-71581038D02*
X131282914Y-71533419D01*
X131282914Y-71533419D02*
X131282914Y-71628657D01*
X132187675Y-72533419D02*
X132187675Y-72009609D01*
X132187675Y-72009609D02*
X132140056Y-71914371D01*
X132140056Y-71914371D02*
X132044818Y-71866752D01*
X132044818Y-71866752D02*
X131854342Y-71866752D01*
X131854342Y-71866752D02*
X131759104Y-71914371D01*
X132187675Y-72485800D02*
X132092437Y-72533419D01*
X132092437Y-72533419D02*
X131854342Y-72533419D01*
X131854342Y-72533419D02*
X131759104Y-72485800D01*
X131759104Y-72485800D02*
X131711485Y-72390561D01*
X131711485Y-72390561D02*
X131711485Y-72295323D01*
X131711485Y-72295323D02*
X131759104Y-72200085D01*
X131759104Y-72200085D02*
X131854342Y-72152466D01*
X131854342Y-72152466D02*
X132092437Y-72152466D01*
X132092437Y-72152466D02*
X132187675Y-72104847D01*
X132806723Y-72533419D02*
X132711485Y-72485800D01*
X132711485Y-72485800D02*
X132663866Y-72390561D01*
X132663866Y-72390561D02*
X132663866Y-71533419D01*
D16*
X129675771Y-70057642D02*
X129575771Y-70057642D01*
X129575771Y-70214785D02*
X129575771Y-69914785D01*
X129575771Y-69914785D02*
X129718628Y-69914785D01*
X129832914Y-70214785D02*
X129832914Y-69914785D01*
X129975771Y-70214785D02*
X129975771Y-69914785D01*
X129975771Y-69914785D02*
X130047200Y-69914785D01*
X130047200Y-69914785D02*
X130090057Y-69929071D01*
X130090057Y-69929071D02*
X130118628Y-69957642D01*
X130118628Y-69957642D02*
X130132914Y-69986214D01*
X130132914Y-69986214D02*
X130147200Y-70043357D01*
X130147200Y-70043357D02*
X130147200Y-70086214D01*
X130147200Y-70086214D02*
X130132914Y-70143357D01*
X130132914Y-70143357D02*
X130118628Y-70171928D01*
X130118628Y-70171928D02*
X130090057Y-70200500D01*
X130090057Y-70200500D02*
X130047200Y-70214785D01*
X130047200Y-70214785D02*
X129975771Y-70214785D01*
X130247200Y-69914785D02*
X130432914Y-69914785D01*
X130432914Y-69914785D02*
X130332914Y-70029071D01*
X130332914Y-70029071D02*
X130375771Y-70029071D01*
X130375771Y-70029071D02*
X130404343Y-70043357D01*
X130404343Y-70043357D02*
X130418628Y-70057642D01*
X130418628Y-70057642D02*
X130432914Y-70086214D01*
X130432914Y-70086214D02*
X130432914Y-70157642D01*
X130432914Y-70157642D02*
X130418628Y-70186214D01*
X130418628Y-70186214D02*
X130404343Y-70200500D01*
X130404343Y-70200500D02*
X130375771Y-70214785D01*
X130375771Y-70214785D02*
X130290057Y-70214785D01*
X130290057Y-70214785D02*
X130261485Y-70200500D01*
X130261485Y-70200500D02*
X130247200Y-70186214D01*
D10*
X134829847Y-100102009D02*
X134496514Y-100102009D01*
X134496514Y-100625819D02*
X134496514Y-99625819D01*
X134496514Y-99625819D02*
X134972704Y-99625819D01*
X135353657Y-100625819D02*
X135353657Y-99959152D01*
X135353657Y-99625819D02*
X135306038Y-99673438D01*
X135306038Y-99673438D02*
X135353657Y-99721057D01*
X135353657Y-99721057D02*
X135401276Y-99673438D01*
X135401276Y-99673438D02*
X135353657Y-99625819D01*
X135353657Y-99625819D02*
X135353657Y-99721057D01*
X136258418Y-100625819D02*
X136258418Y-99625819D01*
X136258418Y-100578200D02*
X136163180Y-100625819D01*
X136163180Y-100625819D02*
X135972704Y-100625819D01*
X135972704Y-100625819D02*
X135877466Y-100578200D01*
X135877466Y-100578200D02*
X135829847Y-100530580D01*
X135829847Y-100530580D02*
X135782228Y-100435342D01*
X135782228Y-100435342D02*
X135782228Y-100149628D01*
X135782228Y-100149628D02*
X135829847Y-100054390D01*
X135829847Y-100054390D02*
X135877466Y-100006771D01*
X135877466Y-100006771D02*
X135972704Y-99959152D01*
X135972704Y-99959152D02*
X136163180Y-99959152D01*
X136163180Y-99959152D02*
X136258418Y-100006771D01*
X137163180Y-99959152D02*
X137163180Y-100625819D01*
X136734609Y-99959152D02*
X136734609Y-100482961D01*
X136734609Y-100482961D02*
X136782228Y-100578200D01*
X136782228Y-100578200D02*
X136877466Y-100625819D01*
X136877466Y-100625819D02*
X137020323Y-100625819D01*
X137020323Y-100625819D02*
X137115561Y-100578200D01*
X137115561Y-100578200D02*
X137163180Y-100530580D01*
X138067942Y-100578200D02*
X137972704Y-100625819D01*
X137972704Y-100625819D02*
X137782228Y-100625819D01*
X137782228Y-100625819D02*
X137686990Y-100578200D01*
X137686990Y-100578200D02*
X137639371Y-100530580D01*
X137639371Y-100530580D02*
X137591752Y-100435342D01*
X137591752Y-100435342D02*
X137591752Y-100149628D01*
X137591752Y-100149628D02*
X137639371Y-100054390D01*
X137639371Y-100054390D02*
X137686990Y-100006771D01*
X137686990Y-100006771D02*
X137782228Y-99959152D01*
X137782228Y-99959152D02*
X137972704Y-99959152D01*
X137972704Y-99959152D02*
X138067942Y-100006771D01*
X138496514Y-100625819D02*
X138496514Y-99959152D01*
X138496514Y-99625819D02*
X138448895Y-99673438D01*
X138448895Y-99673438D02*
X138496514Y-99721057D01*
X138496514Y-99721057D02*
X138544133Y-99673438D01*
X138544133Y-99673438D02*
X138496514Y-99625819D01*
X138496514Y-99625819D02*
X138496514Y-99721057D01*
X139401275Y-100625819D02*
X139401275Y-100102009D01*
X139401275Y-100102009D02*
X139353656Y-100006771D01*
X139353656Y-100006771D02*
X139258418Y-99959152D01*
X139258418Y-99959152D02*
X139067942Y-99959152D01*
X139067942Y-99959152D02*
X138972704Y-100006771D01*
X139401275Y-100578200D02*
X139306037Y-100625819D01*
X139306037Y-100625819D02*
X139067942Y-100625819D01*
X139067942Y-100625819D02*
X138972704Y-100578200D01*
X138972704Y-100578200D02*
X138925085Y-100482961D01*
X138925085Y-100482961D02*
X138925085Y-100387723D01*
X138925085Y-100387723D02*
X138972704Y-100292485D01*
X138972704Y-100292485D02*
X139067942Y-100244866D01*
X139067942Y-100244866D02*
X139306037Y-100244866D01*
X139306037Y-100244866D02*
X139401275Y-100197247D01*
X140020323Y-100625819D02*
X139925085Y-100578200D01*
X139925085Y-100578200D02*
X139877466Y-100482961D01*
X139877466Y-100482961D02*
X139877466Y-99625819D01*
D16*
X136889371Y-98150042D02*
X136789371Y-98150042D01*
X136789371Y-98307185D02*
X136789371Y-98007185D01*
X136789371Y-98007185D02*
X136932228Y-98007185D01*
X137046514Y-98307185D02*
X137046514Y-98007185D01*
X137189371Y-98307185D02*
X137189371Y-98007185D01*
X137189371Y-98007185D02*
X137260800Y-98007185D01*
X137260800Y-98007185D02*
X137303657Y-98021471D01*
X137303657Y-98021471D02*
X137332228Y-98050042D01*
X137332228Y-98050042D02*
X137346514Y-98078614D01*
X137346514Y-98078614D02*
X137360800Y-98135757D01*
X137360800Y-98135757D02*
X137360800Y-98178614D01*
X137360800Y-98178614D02*
X137346514Y-98235757D01*
X137346514Y-98235757D02*
X137332228Y-98264328D01*
X137332228Y-98264328D02*
X137303657Y-98292900D01*
X137303657Y-98292900D02*
X137260800Y-98307185D01*
X137260800Y-98307185D02*
X137189371Y-98307185D01*
X137617943Y-98107185D02*
X137617943Y-98307185D01*
X137546514Y-97992900D02*
X137475085Y-98207185D01*
X137475085Y-98207185D02*
X137660800Y-98207185D01*
D10*
X173961071Y-100985963D02*
X173961071Y-100350963D01*
X173961071Y-100350963D02*
X174172738Y-100804534D01*
X174172738Y-100804534D02*
X174384404Y-100350963D01*
X174384404Y-100350963D02*
X174384404Y-100985963D01*
X174777499Y-100985963D02*
X174717023Y-100955725D01*
X174717023Y-100955725D02*
X174686785Y-100925486D01*
X174686785Y-100925486D02*
X174656547Y-100865010D01*
X174656547Y-100865010D02*
X174656547Y-100683582D01*
X174656547Y-100683582D02*
X174686785Y-100623105D01*
X174686785Y-100623105D02*
X174717023Y-100592867D01*
X174717023Y-100592867D02*
X174777499Y-100562629D01*
X174777499Y-100562629D02*
X174868214Y-100562629D01*
X174868214Y-100562629D02*
X174928690Y-100592867D01*
X174928690Y-100592867D02*
X174958928Y-100623105D01*
X174958928Y-100623105D02*
X174989166Y-100683582D01*
X174989166Y-100683582D02*
X174989166Y-100865010D01*
X174989166Y-100865010D02*
X174958928Y-100925486D01*
X174958928Y-100925486D02*
X174928690Y-100955725D01*
X174928690Y-100955725D02*
X174868214Y-100985963D01*
X174868214Y-100985963D02*
X174777499Y-100985963D01*
X175533452Y-100562629D02*
X175533452Y-100985963D01*
X175261309Y-100562629D02*
X175261309Y-100895248D01*
X175261309Y-100895248D02*
X175291547Y-100955725D01*
X175291547Y-100955725D02*
X175352023Y-100985963D01*
X175352023Y-100985963D02*
X175442738Y-100985963D01*
X175442738Y-100985963D02*
X175503214Y-100955725D01*
X175503214Y-100955725D02*
X175533452Y-100925486D01*
X175835833Y-100562629D02*
X175835833Y-100985963D01*
X175835833Y-100623105D02*
X175866071Y-100592867D01*
X175866071Y-100592867D02*
X175926547Y-100562629D01*
X175926547Y-100562629D02*
X176017262Y-100562629D01*
X176017262Y-100562629D02*
X176077738Y-100592867D01*
X176077738Y-100592867D02*
X176107976Y-100653344D01*
X176107976Y-100653344D02*
X176107976Y-100985963D01*
X176319643Y-100562629D02*
X176561547Y-100562629D01*
X176410357Y-100350963D02*
X176410357Y-100895248D01*
X176410357Y-100895248D02*
X176440595Y-100955725D01*
X176440595Y-100955725D02*
X176501071Y-100985963D01*
X176501071Y-100985963D02*
X176561547Y-100985963D01*
X176773214Y-100985963D02*
X176773214Y-100562629D01*
X176773214Y-100350963D02*
X176742976Y-100381201D01*
X176742976Y-100381201D02*
X176773214Y-100411439D01*
X176773214Y-100411439D02*
X176803452Y-100381201D01*
X176803452Y-100381201D02*
X176773214Y-100350963D01*
X176773214Y-100350963D02*
X176773214Y-100411439D01*
X177075595Y-100562629D02*
X177075595Y-100985963D01*
X177075595Y-100623105D02*
X177105833Y-100592867D01*
X177105833Y-100592867D02*
X177166309Y-100562629D01*
X177166309Y-100562629D02*
X177257024Y-100562629D01*
X177257024Y-100562629D02*
X177317500Y-100592867D01*
X177317500Y-100592867D02*
X177347738Y-100653344D01*
X177347738Y-100653344D02*
X177347738Y-100985963D01*
X177922262Y-100562629D02*
X177922262Y-101076677D01*
X177922262Y-101076677D02*
X177892024Y-101137153D01*
X177892024Y-101137153D02*
X177861786Y-101167391D01*
X177861786Y-101167391D02*
X177801309Y-101197629D01*
X177801309Y-101197629D02*
X177710595Y-101197629D01*
X177710595Y-101197629D02*
X177650119Y-101167391D01*
X177922262Y-100955725D02*
X177861786Y-100985963D01*
X177861786Y-100985963D02*
X177740833Y-100985963D01*
X177740833Y-100985963D02*
X177680357Y-100955725D01*
X177680357Y-100955725D02*
X177650119Y-100925486D01*
X177650119Y-100925486D02*
X177619881Y-100865010D01*
X177619881Y-100865010D02*
X177619881Y-100683582D01*
X177619881Y-100683582D02*
X177650119Y-100623105D01*
X177650119Y-100623105D02*
X177680357Y-100592867D01*
X177680357Y-100592867D02*
X177740833Y-100562629D01*
X177740833Y-100562629D02*
X177861786Y-100562629D01*
X177861786Y-100562629D02*
X177922262Y-100592867D01*
X178224643Y-100985963D02*
X178224643Y-100350963D01*
X178224643Y-100653344D02*
X178587500Y-100653344D01*
X178587500Y-100985963D02*
X178587500Y-100350963D01*
X178980595Y-100985963D02*
X178920119Y-100955725D01*
X178920119Y-100955725D02*
X178889881Y-100925486D01*
X178889881Y-100925486D02*
X178859643Y-100865010D01*
X178859643Y-100865010D02*
X178859643Y-100683582D01*
X178859643Y-100683582D02*
X178889881Y-100623105D01*
X178889881Y-100623105D02*
X178920119Y-100592867D01*
X178920119Y-100592867D02*
X178980595Y-100562629D01*
X178980595Y-100562629D02*
X179071310Y-100562629D01*
X179071310Y-100562629D02*
X179131786Y-100592867D01*
X179131786Y-100592867D02*
X179162024Y-100623105D01*
X179162024Y-100623105D02*
X179192262Y-100683582D01*
X179192262Y-100683582D02*
X179192262Y-100865010D01*
X179192262Y-100865010D02*
X179162024Y-100925486D01*
X179162024Y-100925486D02*
X179131786Y-100955725D01*
X179131786Y-100955725D02*
X179071310Y-100985963D01*
X179071310Y-100985963D02*
X178980595Y-100985963D01*
X179555119Y-100985963D02*
X179494643Y-100955725D01*
X179494643Y-100955725D02*
X179464405Y-100895248D01*
X179464405Y-100895248D02*
X179464405Y-100350963D01*
X180038929Y-100955725D02*
X179978453Y-100985963D01*
X179978453Y-100985963D02*
X179857500Y-100985963D01*
X179857500Y-100985963D02*
X179797024Y-100955725D01*
X179797024Y-100955725D02*
X179766786Y-100895248D01*
X179766786Y-100895248D02*
X179766786Y-100653344D01*
X179766786Y-100653344D02*
X179797024Y-100592867D01*
X179797024Y-100592867D02*
X179857500Y-100562629D01*
X179857500Y-100562629D02*
X179978453Y-100562629D01*
X179978453Y-100562629D02*
X180038929Y-100592867D01*
X180038929Y-100592867D02*
X180069167Y-100653344D01*
X180069167Y-100653344D02*
X180069167Y-100713820D01*
X180069167Y-100713820D02*
X179766786Y-100774296D01*
X176538095Y-97454819D02*
X176538095Y-96454819D01*
X176538095Y-96931009D02*
X177109523Y-96931009D01*
X177109523Y-97454819D02*
X177109523Y-96454819D01*
X178109523Y-97454819D02*
X177538095Y-97454819D01*
X177823809Y-97454819D02*
X177823809Y-96454819D01*
X177823809Y-96454819D02*
X177728571Y-96597676D01*
X177728571Y-96597676D02*
X177633333Y-96692914D01*
X177633333Y-96692914D02*
X177538095Y-96740533D01*
X119961071Y-100985963D02*
X119961071Y-100350963D01*
X119961071Y-100350963D02*
X120172738Y-100804534D01*
X120172738Y-100804534D02*
X120384404Y-100350963D01*
X120384404Y-100350963D02*
X120384404Y-100985963D01*
X120777499Y-100985963D02*
X120717023Y-100955725D01*
X120717023Y-100955725D02*
X120686785Y-100925486D01*
X120686785Y-100925486D02*
X120656547Y-100865010D01*
X120656547Y-100865010D02*
X120656547Y-100683582D01*
X120656547Y-100683582D02*
X120686785Y-100623105D01*
X120686785Y-100623105D02*
X120717023Y-100592867D01*
X120717023Y-100592867D02*
X120777499Y-100562629D01*
X120777499Y-100562629D02*
X120868214Y-100562629D01*
X120868214Y-100562629D02*
X120928690Y-100592867D01*
X120928690Y-100592867D02*
X120958928Y-100623105D01*
X120958928Y-100623105D02*
X120989166Y-100683582D01*
X120989166Y-100683582D02*
X120989166Y-100865010D01*
X120989166Y-100865010D02*
X120958928Y-100925486D01*
X120958928Y-100925486D02*
X120928690Y-100955725D01*
X120928690Y-100955725D02*
X120868214Y-100985963D01*
X120868214Y-100985963D02*
X120777499Y-100985963D01*
X121533452Y-100562629D02*
X121533452Y-100985963D01*
X121261309Y-100562629D02*
X121261309Y-100895248D01*
X121261309Y-100895248D02*
X121291547Y-100955725D01*
X121291547Y-100955725D02*
X121352023Y-100985963D01*
X121352023Y-100985963D02*
X121442738Y-100985963D01*
X121442738Y-100985963D02*
X121503214Y-100955725D01*
X121503214Y-100955725D02*
X121533452Y-100925486D01*
X121835833Y-100562629D02*
X121835833Y-100985963D01*
X121835833Y-100623105D02*
X121866071Y-100592867D01*
X121866071Y-100592867D02*
X121926547Y-100562629D01*
X121926547Y-100562629D02*
X122017262Y-100562629D01*
X122017262Y-100562629D02*
X122077738Y-100592867D01*
X122077738Y-100592867D02*
X122107976Y-100653344D01*
X122107976Y-100653344D02*
X122107976Y-100985963D01*
X122319643Y-100562629D02*
X122561547Y-100562629D01*
X122410357Y-100350963D02*
X122410357Y-100895248D01*
X122410357Y-100895248D02*
X122440595Y-100955725D01*
X122440595Y-100955725D02*
X122501071Y-100985963D01*
X122501071Y-100985963D02*
X122561547Y-100985963D01*
X122773214Y-100985963D02*
X122773214Y-100562629D01*
X122773214Y-100350963D02*
X122742976Y-100381201D01*
X122742976Y-100381201D02*
X122773214Y-100411439D01*
X122773214Y-100411439D02*
X122803452Y-100381201D01*
X122803452Y-100381201D02*
X122773214Y-100350963D01*
X122773214Y-100350963D02*
X122773214Y-100411439D01*
X123075595Y-100562629D02*
X123075595Y-100985963D01*
X123075595Y-100623105D02*
X123105833Y-100592867D01*
X123105833Y-100592867D02*
X123166309Y-100562629D01*
X123166309Y-100562629D02*
X123257024Y-100562629D01*
X123257024Y-100562629D02*
X123317500Y-100592867D01*
X123317500Y-100592867D02*
X123347738Y-100653344D01*
X123347738Y-100653344D02*
X123347738Y-100985963D01*
X123922262Y-100562629D02*
X123922262Y-101076677D01*
X123922262Y-101076677D02*
X123892024Y-101137153D01*
X123892024Y-101137153D02*
X123861786Y-101167391D01*
X123861786Y-101167391D02*
X123801309Y-101197629D01*
X123801309Y-101197629D02*
X123710595Y-101197629D01*
X123710595Y-101197629D02*
X123650119Y-101167391D01*
X123922262Y-100955725D02*
X123861786Y-100985963D01*
X123861786Y-100985963D02*
X123740833Y-100985963D01*
X123740833Y-100985963D02*
X123680357Y-100955725D01*
X123680357Y-100955725D02*
X123650119Y-100925486D01*
X123650119Y-100925486D02*
X123619881Y-100865010D01*
X123619881Y-100865010D02*
X123619881Y-100683582D01*
X123619881Y-100683582D02*
X123650119Y-100623105D01*
X123650119Y-100623105D02*
X123680357Y-100592867D01*
X123680357Y-100592867D02*
X123740833Y-100562629D01*
X123740833Y-100562629D02*
X123861786Y-100562629D01*
X123861786Y-100562629D02*
X123922262Y-100592867D01*
X124224643Y-100985963D02*
X124224643Y-100350963D01*
X124224643Y-100653344D02*
X124587500Y-100653344D01*
X124587500Y-100985963D02*
X124587500Y-100350963D01*
X124980595Y-100985963D02*
X124920119Y-100955725D01*
X124920119Y-100955725D02*
X124889881Y-100925486D01*
X124889881Y-100925486D02*
X124859643Y-100865010D01*
X124859643Y-100865010D02*
X124859643Y-100683582D01*
X124859643Y-100683582D02*
X124889881Y-100623105D01*
X124889881Y-100623105D02*
X124920119Y-100592867D01*
X124920119Y-100592867D02*
X124980595Y-100562629D01*
X124980595Y-100562629D02*
X125071310Y-100562629D01*
X125071310Y-100562629D02*
X125131786Y-100592867D01*
X125131786Y-100592867D02*
X125162024Y-100623105D01*
X125162024Y-100623105D02*
X125192262Y-100683582D01*
X125192262Y-100683582D02*
X125192262Y-100865010D01*
X125192262Y-100865010D02*
X125162024Y-100925486D01*
X125162024Y-100925486D02*
X125131786Y-100955725D01*
X125131786Y-100955725D02*
X125071310Y-100985963D01*
X125071310Y-100985963D02*
X124980595Y-100985963D01*
X125555119Y-100985963D02*
X125494643Y-100955725D01*
X125494643Y-100955725D02*
X125464405Y-100895248D01*
X125464405Y-100895248D02*
X125464405Y-100350963D01*
X126038929Y-100955725D02*
X125978453Y-100985963D01*
X125978453Y-100985963D02*
X125857500Y-100985963D01*
X125857500Y-100985963D02*
X125797024Y-100955725D01*
X125797024Y-100955725D02*
X125766786Y-100895248D01*
X125766786Y-100895248D02*
X125766786Y-100653344D01*
X125766786Y-100653344D02*
X125797024Y-100592867D01*
X125797024Y-100592867D02*
X125857500Y-100562629D01*
X125857500Y-100562629D02*
X125978453Y-100562629D01*
X125978453Y-100562629D02*
X126038929Y-100592867D01*
X126038929Y-100592867D02*
X126069167Y-100653344D01*
X126069167Y-100653344D02*
X126069167Y-100713820D01*
X126069167Y-100713820D02*
X125766786Y-100774296D01*
X122538095Y-97454819D02*
X122538095Y-96454819D01*
X122538095Y-96931009D02*
X123109523Y-96931009D01*
X123109523Y-97454819D02*
X123109523Y-96454819D01*
X123538095Y-96550057D02*
X123585714Y-96502438D01*
X123585714Y-96502438D02*
X123680952Y-96454819D01*
X123680952Y-96454819D02*
X123919047Y-96454819D01*
X123919047Y-96454819D02*
X124014285Y-96502438D01*
X124014285Y-96502438D02*
X124061904Y-96550057D01*
X124061904Y-96550057D02*
X124109523Y-96645295D01*
X124109523Y-96645295D02*
X124109523Y-96740533D01*
X124109523Y-96740533D02*
X124061904Y-96883390D01*
X124061904Y-96883390D02*
X123490476Y-97454819D01*
X123490476Y-97454819D02*
X124109523Y-97454819D01*
X119961071Y-73485963D02*
X119961071Y-72850963D01*
X119961071Y-72850963D02*
X120172738Y-73304534D01*
X120172738Y-73304534D02*
X120384404Y-72850963D01*
X120384404Y-72850963D02*
X120384404Y-73485963D01*
X120777499Y-73485963D02*
X120717023Y-73455725D01*
X120717023Y-73455725D02*
X120686785Y-73425486D01*
X120686785Y-73425486D02*
X120656547Y-73365010D01*
X120656547Y-73365010D02*
X120656547Y-73183582D01*
X120656547Y-73183582D02*
X120686785Y-73123105D01*
X120686785Y-73123105D02*
X120717023Y-73092867D01*
X120717023Y-73092867D02*
X120777499Y-73062629D01*
X120777499Y-73062629D02*
X120868214Y-73062629D01*
X120868214Y-73062629D02*
X120928690Y-73092867D01*
X120928690Y-73092867D02*
X120958928Y-73123105D01*
X120958928Y-73123105D02*
X120989166Y-73183582D01*
X120989166Y-73183582D02*
X120989166Y-73365010D01*
X120989166Y-73365010D02*
X120958928Y-73425486D01*
X120958928Y-73425486D02*
X120928690Y-73455725D01*
X120928690Y-73455725D02*
X120868214Y-73485963D01*
X120868214Y-73485963D02*
X120777499Y-73485963D01*
X121533452Y-73062629D02*
X121533452Y-73485963D01*
X121261309Y-73062629D02*
X121261309Y-73395248D01*
X121261309Y-73395248D02*
X121291547Y-73455725D01*
X121291547Y-73455725D02*
X121352023Y-73485963D01*
X121352023Y-73485963D02*
X121442738Y-73485963D01*
X121442738Y-73485963D02*
X121503214Y-73455725D01*
X121503214Y-73455725D02*
X121533452Y-73425486D01*
X121835833Y-73062629D02*
X121835833Y-73485963D01*
X121835833Y-73123105D02*
X121866071Y-73092867D01*
X121866071Y-73092867D02*
X121926547Y-73062629D01*
X121926547Y-73062629D02*
X122017262Y-73062629D01*
X122017262Y-73062629D02*
X122077738Y-73092867D01*
X122077738Y-73092867D02*
X122107976Y-73153344D01*
X122107976Y-73153344D02*
X122107976Y-73485963D01*
X122319643Y-73062629D02*
X122561547Y-73062629D01*
X122410357Y-72850963D02*
X122410357Y-73395248D01*
X122410357Y-73395248D02*
X122440595Y-73455725D01*
X122440595Y-73455725D02*
X122501071Y-73485963D01*
X122501071Y-73485963D02*
X122561547Y-73485963D01*
X122773214Y-73485963D02*
X122773214Y-73062629D01*
X122773214Y-72850963D02*
X122742976Y-72881201D01*
X122742976Y-72881201D02*
X122773214Y-72911439D01*
X122773214Y-72911439D02*
X122803452Y-72881201D01*
X122803452Y-72881201D02*
X122773214Y-72850963D01*
X122773214Y-72850963D02*
X122773214Y-72911439D01*
X123075595Y-73062629D02*
X123075595Y-73485963D01*
X123075595Y-73123105D02*
X123105833Y-73092867D01*
X123105833Y-73092867D02*
X123166309Y-73062629D01*
X123166309Y-73062629D02*
X123257024Y-73062629D01*
X123257024Y-73062629D02*
X123317500Y-73092867D01*
X123317500Y-73092867D02*
X123347738Y-73153344D01*
X123347738Y-73153344D02*
X123347738Y-73485963D01*
X123922262Y-73062629D02*
X123922262Y-73576677D01*
X123922262Y-73576677D02*
X123892024Y-73637153D01*
X123892024Y-73637153D02*
X123861786Y-73667391D01*
X123861786Y-73667391D02*
X123801309Y-73697629D01*
X123801309Y-73697629D02*
X123710595Y-73697629D01*
X123710595Y-73697629D02*
X123650119Y-73667391D01*
X123922262Y-73455725D02*
X123861786Y-73485963D01*
X123861786Y-73485963D02*
X123740833Y-73485963D01*
X123740833Y-73485963D02*
X123680357Y-73455725D01*
X123680357Y-73455725D02*
X123650119Y-73425486D01*
X123650119Y-73425486D02*
X123619881Y-73365010D01*
X123619881Y-73365010D02*
X123619881Y-73183582D01*
X123619881Y-73183582D02*
X123650119Y-73123105D01*
X123650119Y-73123105D02*
X123680357Y-73092867D01*
X123680357Y-73092867D02*
X123740833Y-73062629D01*
X123740833Y-73062629D02*
X123861786Y-73062629D01*
X123861786Y-73062629D02*
X123922262Y-73092867D01*
X124224643Y-73485963D02*
X124224643Y-72850963D01*
X124224643Y-73153344D02*
X124587500Y-73153344D01*
X124587500Y-73485963D02*
X124587500Y-72850963D01*
X124980595Y-73485963D02*
X124920119Y-73455725D01*
X124920119Y-73455725D02*
X124889881Y-73425486D01*
X124889881Y-73425486D02*
X124859643Y-73365010D01*
X124859643Y-73365010D02*
X124859643Y-73183582D01*
X124859643Y-73183582D02*
X124889881Y-73123105D01*
X124889881Y-73123105D02*
X124920119Y-73092867D01*
X124920119Y-73092867D02*
X124980595Y-73062629D01*
X124980595Y-73062629D02*
X125071310Y-73062629D01*
X125071310Y-73062629D02*
X125131786Y-73092867D01*
X125131786Y-73092867D02*
X125162024Y-73123105D01*
X125162024Y-73123105D02*
X125192262Y-73183582D01*
X125192262Y-73183582D02*
X125192262Y-73365010D01*
X125192262Y-73365010D02*
X125162024Y-73425486D01*
X125162024Y-73425486D02*
X125131786Y-73455725D01*
X125131786Y-73455725D02*
X125071310Y-73485963D01*
X125071310Y-73485963D02*
X124980595Y-73485963D01*
X125555119Y-73485963D02*
X125494643Y-73455725D01*
X125494643Y-73455725D02*
X125464405Y-73395248D01*
X125464405Y-73395248D02*
X125464405Y-72850963D01*
X126038929Y-73455725D02*
X125978453Y-73485963D01*
X125978453Y-73485963D02*
X125857500Y-73485963D01*
X125857500Y-73485963D02*
X125797024Y-73455725D01*
X125797024Y-73455725D02*
X125766786Y-73395248D01*
X125766786Y-73395248D02*
X125766786Y-73153344D01*
X125766786Y-73153344D02*
X125797024Y-73092867D01*
X125797024Y-73092867D02*
X125857500Y-73062629D01*
X125857500Y-73062629D02*
X125978453Y-73062629D01*
X125978453Y-73062629D02*
X126038929Y-73092867D01*
X126038929Y-73092867D02*
X126069167Y-73153344D01*
X126069167Y-73153344D02*
X126069167Y-73213820D01*
X126069167Y-73213820D02*
X125766786Y-73274296D01*
X122538095Y-69954819D02*
X122538095Y-68954819D01*
X122538095Y-69431009D02*
X123109523Y-69431009D01*
X123109523Y-69954819D02*
X123109523Y-68954819D01*
X123490476Y-68954819D02*
X124109523Y-68954819D01*
X124109523Y-68954819D02*
X123776190Y-69335771D01*
X123776190Y-69335771D02*
X123919047Y-69335771D01*
X123919047Y-69335771D02*
X124014285Y-69383390D01*
X124014285Y-69383390D02*
X124061904Y-69431009D01*
X124061904Y-69431009D02*
X124109523Y-69526247D01*
X124109523Y-69526247D02*
X124109523Y-69764342D01*
X124109523Y-69764342D02*
X124061904Y-69859580D01*
X124061904Y-69859580D02*
X124014285Y-69907200D01*
X124014285Y-69907200D02*
X123919047Y-69954819D01*
X123919047Y-69954819D02*
X123633333Y-69954819D01*
X123633333Y-69954819D02*
X123538095Y-69907200D01*
X123538095Y-69907200D02*
X123490476Y-69859580D01*
X173961071Y-73485963D02*
X173961071Y-72850963D01*
X173961071Y-72850963D02*
X174172738Y-73304534D01*
X174172738Y-73304534D02*
X174384404Y-72850963D01*
X174384404Y-72850963D02*
X174384404Y-73485963D01*
X174777499Y-73485963D02*
X174717023Y-73455725D01*
X174717023Y-73455725D02*
X174686785Y-73425486D01*
X174686785Y-73425486D02*
X174656547Y-73365010D01*
X174656547Y-73365010D02*
X174656547Y-73183582D01*
X174656547Y-73183582D02*
X174686785Y-73123105D01*
X174686785Y-73123105D02*
X174717023Y-73092867D01*
X174717023Y-73092867D02*
X174777499Y-73062629D01*
X174777499Y-73062629D02*
X174868214Y-73062629D01*
X174868214Y-73062629D02*
X174928690Y-73092867D01*
X174928690Y-73092867D02*
X174958928Y-73123105D01*
X174958928Y-73123105D02*
X174989166Y-73183582D01*
X174989166Y-73183582D02*
X174989166Y-73365010D01*
X174989166Y-73365010D02*
X174958928Y-73425486D01*
X174958928Y-73425486D02*
X174928690Y-73455725D01*
X174928690Y-73455725D02*
X174868214Y-73485963D01*
X174868214Y-73485963D02*
X174777499Y-73485963D01*
X175533452Y-73062629D02*
X175533452Y-73485963D01*
X175261309Y-73062629D02*
X175261309Y-73395248D01*
X175261309Y-73395248D02*
X175291547Y-73455725D01*
X175291547Y-73455725D02*
X175352023Y-73485963D01*
X175352023Y-73485963D02*
X175442738Y-73485963D01*
X175442738Y-73485963D02*
X175503214Y-73455725D01*
X175503214Y-73455725D02*
X175533452Y-73425486D01*
X175835833Y-73062629D02*
X175835833Y-73485963D01*
X175835833Y-73123105D02*
X175866071Y-73092867D01*
X175866071Y-73092867D02*
X175926547Y-73062629D01*
X175926547Y-73062629D02*
X176017262Y-73062629D01*
X176017262Y-73062629D02*
X176077738Y-73092867D01*
X176077738Y-73092867D02*
X176107976Y-73153344D01*
X176107976Y-73153344D02*
X176107976Y-73485963D01*
X176319643Y-73062629D02*
X176561547Y-73062629D01*
X176410357Y-72850963D02*
X176410357Y-73395248D01*
X176410357Y-73395248D02*
X176440595Y-73455725D01*
X176440595Y-73455725D02*
X176501071Y-73485963D01*
X176501071Y-73485963D02*
X176561547Y-73485963D01*
X176773214Y-73485963D02*
X176773214Y-73062629D01*
X176773214Y-72850963D02*
X176742976Y-72881201D01*
X176742976Y-72881201D02*
X176773214Y-72911439D01*
X176773214Y-72911439D02*
X176803452Y-72881201D01*
X176803452Y-72881201D02*
X176773214Y-72850963D01*
X176773214Y-72850963D02*
X176773214Y-72911439D01*
X177075595Y-73062629D02*
X177075595Y-73485963D01*
X177075595Y-73123105D02*
X177105833Y-73092867D01*
X177105833Y-73092867D02*
X177166309Y-73062629D01*
X177166309Y-73062629D02*
X177257024Y-73062629D01*
X177257024Y-73062629D02*
X177317500Y-73092867D01*
X177317500Y-73092867D02*
X177347738Y-73153344D01*
X177347738Y-73153344D02*
X177347738Y-73485963D01*
X177922262Y-73062629D02*
X177922262Y-73576677D01*
X177922262Y-73576677D02*
X177892024Y-73637153D01*
X177892024Y-73637153D02*
X177861786Y-73667391D01*
X177861786Y-73667391D02*
X177801309Y-73697629D01*
X177801309Y-73697629D02*
X177710595Y-73697629D01*
X177710595Y-73697629D02*
X177650119Y-73667391D01*
X177922262Y-73455725D02*
X177861786Y-73485963D01*
X177861786Y-73485963D02*
X177740833Y-73485963D01*
X177740833Y-73485963D02*
X177680357Y-73455725D01*
X177680357Y-73455725D02*
X177650119Y-73425486D01*
X177650119Y-73425486D02*
X177619881Y-73365010D01*
X177619881Y-73365010D02*
X177619881Y-73183582D01*
X177619881Y-73183582D02*
X177650119Y-73123105D01*
X177650119Y-73123105D02*
X177680357Y-73092867D01*
X177680357Y-73092867D02*
X177740833Y-73062629D01*
X177740833Y-73062629D02*
X177861786Y-73062629D01*
X177861786Y-73062629D02*
X177922262Y-73092867D01*
X178224643Y-73485963D02*
X178224643Y-72850963D01*
X178224643Y-73153344D02*
X178587500Y-73153344D01*
X178587500Y-73485963D02*
X178587500Y-72850963D01*
X178980595Y-73485963D02*
X178920119Y-73455725D01*
X178920119Y-73455725D02*
X178889881Y-73425486D01*
X178889881Y-73425486D02*
X178859643Y-73365010D01*
X178859643Y-73365010D02*
X178859643Y-73183582D01*
X178859643Y-73183582D02*
X178889881Y-73123105D01*
X178889881Y-73123105D02*
X178920119Y-73092867D01*
X178920119Y-73092867D02*
X178980595Y-73062629D01*
X178980595Y-73062629D02*
X179071310Y-73062629D01*
X179071310Y-73062629D02*
X179131786Y-73092867D01*
X179131786Y-73092867D02*
X179162024Y-73123105D01*
X179162024Y-73123105D02*
X179192262Y-73183582D01*
X179192262Y-73183582D02*
X179192262Y-73365010D01*
X179192262Y-73365010D02*
X179162024Y-73425486D01*
X179162024Y-73425486D02*
X179131786Y-73455725D01*
X179131786Y-73455725D02*
X179071310Y-73485963D01*
X179071310Y-73485963D02*
X178980595Y-73485963D01*
X179555119Y-73485963D02*
X179494643Y-73455725D01*
X179494643Y-73455725D02*
X179464405Y-73395248D01*
X179464405Y-73395248D02*
X179464405Y-72850963D01*
X180038929Y-73455725D02*
X179978453Y-73485963D01*
X179978453Y-73485963D02*
X179857500Y-73485963D01*
X179857500Y-73485963D02*
X179797024Y-73455725D01*
X179797024Y-73455725D02*
X179766786Y-73395248D01*
X179766786Y-73395248D02*
X179766786Y-73153344D01*
X179766786Y-73153344D02*
X179797024Y-73092867D01*
X179797024Y-73092867D02*
X179857500Y-73062629D01*
X179857500Y-73062629D02*
X179978453Y-73062629D01*
X179978453Y-73062629D02*
X180038929Y-73092867D01*
X180038929Y-73092867D02*
X180069167Y-73153344D01*
X180069167Y-73153344D02*
X180069167Y-73213820D01*
X180069167Y-73213820D02*
X179766786Y-73274296D01*
X176538095Y-69954819D02*
X176538095Y-68954819D01*
X176538095Y-69431009D02*
X177109523Y-69431009D01*
X177109523Y-69954819D02*
X177109523Y-68954819D01*
X178014285Y-69288152D02*
X178014285Y-69954819D01*
X177776190Y-68907200D02*
X177538095Y-69621485D01*
X177538095Y-69621485D02*
X178157142Y-69621485D01*
X119714189Y-86976809D02*
X119857046Y-87024428D01*
X119857046Y-87024428D02*
X119904665Y-87072047D01*
X119904665Y-87072047D02*
X119952284Y-87167285D01*
X119952284Y-87167285D02*
X119952284Y-87310142D01*
X119952284Y-87310142D02*
X119904665Y-87405380D01*
X119904665Y-87405380D02*
X119857046Y-87453000D01*
X119857046Y-87453000D02*
X119761808Y-87500619D01*
X119761808Y-87500619D02*
X119380856Y-87500619D01*
X119380856Y-87500619D02*
X119380856Y-86500619D01*
X119380856Y-86500619D02*
X119714189Y-86500619D01*
X119714189Y-86500619D02*
X119809427Y-86548238D01*
X119809427Y-86548238D02*
X119857046Y-86595857D01*
X119857046Y-86595857D02*
X119904665Y-86691095D01*
X119904665Y-86691095D02*
X119904665Y-86786333D01*
X119904665Y-86786333D02*
X119857046Y-86881571D01*
X119857046Y-86881571D02*
X119809427Y-86929190D01*
X119809427Y-86929190D02*
X119714189Y-86976809D01*
X119714189Y-86976809D02*
X119380856Y-86976809D01*
X120809427Y-87500619D02*
X120809427Y-86976809D01*
X120809427Y-86976809D02*
X120761808Y-86881571D01*
X120761808Y-86881571D02*
X120666570Y-86833952D01*
X120666570Y-86833952D02*
X120476094Y-86833952D01*
X120476094Y-86833952D02*
X120380856Y-86881571D01*
X120809427Y-87453000D02*
X120714189Y-87500619D01*
X120714189Y-87500619D02*
X120476094Y-87500619D01*
X120476094Y-87500619D02*
X120380856Y-87453000D01*
X120380856Y-87453000D02*
X120333237Y-87357761D01*
X120333237Y-87357761D02*
X120333237Y-87262523D01*
X120333237Y-87262523D02*
X120380856Y-87167285D01*
X120380856Y-87167285D02*
X120476094Y-87119666D01*
X120476094Y-87119666D02*
X120714189Y-87119666D01*
X120714189Y-87119666D02*
X120809427Y-87072047D01*
X121285618Y-87500619D02*
X121285618Y-86833952D01*
X121285618Y-87024428D02*
X121333237Y-86929190D01*
X121333237Y-86929190D02*
X121380856Y-86881571D01*
X121380856Y-86881571D02*
X121476094Y-86833952D01*
X121476094Y-86833952D02*
X121571332Y-86833952D01*
X121904666Y-87500619D02*
X121904666Y-86833952D01*
X121904666Y-87024428D02*
X121952285Y-86929190D01*
X121952285Y-86929190D02*
X121999904Y-86881571D01*
X121999904Y-86881571D02*
X122095142Y-86833952D01*
X122095142Y-86833952D02*
X122190380Y-86833952D01*
X122904666Y-87453000D02*
X122809428Y-87500619D01*
X122809428Y-87500619D02*
X122618952Y-87500619D01*
X122618952Y-87500619D02*
X122523714Y-87453000D01*
X122523714Y-87453000D02*
X122476095Y-87357761D01*
X122476095Y-87357761D02*
X122476095Y-86976809D01*
X122476095Y-86976809D02*
X122523714Y-86881571D01*
X122523714Y-86881571D02*
X122618952Y-86833952D01*
X122618952Y-86833952D02*
X122809428Y-86833952D01*
X122809428Y-86833952D02*
X122904666Y-86881571D01*
X122904666Y-86881571D02*
X122952285Y-86976809D01*
X122952285Y-86976809D02*
X122952285Y-87072047D01*
X122952285Y-87072047D02*
X122476095Y-87167285D01*
X123523714Y-87500619D02*
X123428476Y-87453000D01*
X123428476Y-87453000D02*
X123380857Y-87357761D01*
X123380857Y-87357761D02*
X123380857Y-86500619D01*
X123666572Y-87595857D02*
X124428476Y-87595857D01*
X124952286Y-86500619D02*
X124952286Y-87214904D01*
X124952286Y-87214904D02*
X124904667Y-87357761D01*
X124904667Y-87357761D02*
X124809429Y-87453000D01*
X124809429Y-87453000D02*
X124666572Y-87500619D01*
X124666572Y-87500619D02*
X124571334Y-87500619D01*
X125857048Y-87500619D02*
X125857048Y-86976809D01*
X125857048Y-86976809D02*
X125809429Y-86881571D01*
X125809429Y-86881571D02*
X125714191Y-86833952D01*
X125714191Y-86833952D02*
X125523715Y-86833952D01*
X125523715Y-86833952D02*
X125428477Y-86881571D01*
X125857048Y-87453000D02*
X125761810Y-87500619D01*
X125761810Y-87500619D02*
X125523715Y-87500619D01*
X125523715Y-87500619D02*
X125428477Y-87453000D01*
X125428477Y-87453000D02*
X125380858Y-87357761D01*
X125380858Y-87357761D02*
X125380858Y-87262523D01*
X125380858Y-87262523D02*
X125428477Y-87167285D01*
X125428477Y-87167285D02*
X125523715Y-87119666D01*
X125523715Y-87119666D02*
X125761810Y-87119666D01*
X125761810Y-87119666D02*
X125857048Y-87072047D01*
X126761810Y-87453000D02*
X126666572Y-87500619D01*
X126666572Y-87500619D02*
X126476096Y-87500619D01*
X126476096Y-87500619D02*
X126380858Y-87453000D01*
X126380858Y-87453000D02*
X126333239Y-87405380D01*
X126333239Y-87405380D02*
X126285620Y-87310142D01*
X126285620Y-87310142D02*
X126285620Y-87024428D01*
X126285620Y-87024428D02*
X126333239Y-86929190D01*
X126333239Y-86929190D02*
X126380858Y-86881571D01*
X126380858Y-86881571D02*
X126476096Y-86833952D01*
X126476096Y-86833952D02*
X126666572Y-86833952D01*
X126666572Y-86833952D02*
X126761810Y-86881571D01*
X127190382Y-87500619D02*
X127190382Y-86500619D01*
X127285620Y-87119666D02*
X127571334Y-87500619D01*
X127571334Y-86833952D02*
X127190382Y-87214904D01*
X127761811Y-87595857D02*
X128523715Y-87595857D01*
X128714192Y-87453000D02*
X128857049Y-87500619D01*
X128857049Y-87500619D02*
X129095144Y-87500619D01*
X129095144Y-87500619D02*
X129190382Y-87453000D01*
X129190382Y-87453000D02*
X129238001Y-87405380D01*
X129238001Y-87405380D02*
X129285620Y-87310142D01*
X129285620Y-87310142D02*
X129285620Y-87214904D01*
X129285620Y-87214904D02*
X129238001Y-87119666D01*
X129238001Y-87119666D02*
X129190382Y-87072047D01*
X129190382Y-87072047D02*
X129095144Y-87024428D01*
X129095144Y-87024428D02*
X128904668Y-86976809D01*
X128904668Y-86976809D02*
X128809430Y-86929190D01*
X128809430Y-86929190D02*
X128761811Y-86881571D01*
X128761811Y-86881571D02*
X128714192Y-86786333D01*
X128714192Y-86786333D02*
X128714192Y-86691095D01*
X128714192Y-86691095D02*
X128761811Y-86595857D01*
X128761811Y-86595857D02*
X128809430Y-86548238D01*
X128809430Y-86548238D02*
X128904668Y-86500619D01*
X128904668Y-86500619D02*
X129142763Y-86500619D01*
X129142763Y-86500619D02*
X129285620Y-86548238D01*
X129618954Y-86833952D02*
X129809430Y-87500619D01*
X129809430Y-87500619D02*
X129999906Y-87024428D01*
X129999906Y-87024428D02*
X130190382Y-87500619D01*
X130190382Y-87500619D02*
X130380858Y-86833952D01*
X130761811Y-87500619D02*
X130761811Y-86833952D01*
X130761811Y-86500619D02*
X130714192Y-86548238D01*
X130714192Y-86548238D02*
X130761811Y-86595857D01*
X130761811Y-86595857D02*
X130809430Y-86548238D01*
X130809430Y-86548238D02*
X130761811Y-86500619D01*
X130761811Y-86500619D02*
X130761811Y-86595857D01*
X131095144Y-86833952D02*
X131476096Y-86833952D01*
X131238001Y-86500619D02*
X131238001Y-87357761D01*
X131238001Y-87357761D02*
X131285620Y-87453000D01*
X131285620Y-87453000D02*
X131380858Y-87500619D01*
X131380858Y-87500619D02*
X131476096Y-87500619D01*
X132238001Y-87453000D02*
X132142763Y-87500619D01*
X132142763Y-87500619D02*
X131952287Y-87500619D01*
X131952287Y-87500619D02*
X131857049Y-87453000D01*
X131857049Y-87453000D02*
X131809430Y-87405380D01*
X131809430Y-87405380D02*
X131761811Y-87310142D01*
X131761811Y-87310142D02*
X131761811Y-87024428D01*
X131761811Y-87024428D02*
X131809430Y-86929190D01*
X131809430Y-86929190D02*
X131857049Y-86881571D01*
X131857049Y-86881571D02*
X131952287Y-86833952D01*
X131952287Y-86833952D02*
X132142763Y-86833952D01*
X132142763Y-86833952D02*
X132238001Y-86881571D01*
X132666573Y-87500619D02*
X132666573Y-86500619D01*
X133095144Y-87500619D02*
X133095144Y-86976809D01*
X133095144Y-86976809D02*
X133047525Y-86881571D01*
X133047525Y-86881571D02*
X132952287Y-86833952D01*
X132952287Y-86833952D02*
X132809430Y-86833952D01*
X132809430Y-86833952D02*
X132714192Y-86881571D01*
X132714192Y-86881571D02*
X132666573Y-86929190D01*
X125266666Y-81154819D02*
X125266666Y-81869104D01*
X125266666Y-81869104D02*
X125219047Y-82011961D01*
X125219047Y-82011961D02*
X125123809Y-82107200D01*
X125123809Y-82107200D02*
X124980952Y-82154819D01*
X124980952Y-82154819D02*
X124885714Y-82154819D01*
X126266666Y-82154819D02*
X125695238Y-82154819D01*
X125980952Y-82154819D02*
X125980952Y-81154819D01*
X125980952Y-81154819D02*
X125885714Y-81297676D01*
X125885714Y-81297676D02*
X125790476Y-81392914D01*
X125790476Y-81392914D02*
X125695238Y-81440533D01*
X135561905Y-67464819D02*
X135561905Y-66464819D01*
X135561905Y-66464819D02*
X135942857Y-66464819D01*
X135942857Y-66464819D02*
X136038095Y-66512438D01*
X136038095Y-66512438D02*
X136085714Y-66560057D01*
X136085714Y-66560057D02*
X136133333Y-66655295D01*
X136133333Y-66655295D02*
X136133333Y-66798152D01*
X136133333Y-66798152D02*
X136085714Y-66893390D01*
X136085714Y-66893390D02*
X136038095Y-66941009D01*
X136038095Y-66941009D02*
X135942857Y-66988628D01*
X135942857Y-66988628D02*
X135561905Y-66988628D01*
X137085714Y-67464819D02*
X136514286Y-67464819D01*
X136800000Y-67464819D02*
X136800000Y-66464819D01*
X136800000Y-66464819D02*
X136704762Y-66607676D01*
X136704762Y-66607676D02*
X136609524Y-66702914D01*
X136609524Y-66702914D02*
X136514286Y-66750533D01*
X135754819Y-74753333D02*
X136469104Y-74753333D01*
X136469104Y-74753333D02*
X136611961Y-74800952D01*
X136611961Y-74800952D02*
X136707200Y-74896190D01*
X136707200Y-74896190D02*
X136754819Y-75039047D01*
X136754819Y-75039047D02*
X136754819Y-75134285D01*
X135754819Y-74372380D02*
X135754819Y-73753333D01*
X135754819Y-73753333D02*
X136135771Y-74086666D01*
X136135771Y-74086666D02*
X136135771Y-73943809D01*
X136135771Y-73943809D02*
X136183390Y-73848571D01*
X136183390Y-73848571D02*
X136231009Y-73800952D01*
X136231009Y-73800952D02*
X136326247Y-73753333D01*
X136326247Y-73753333D02*
X136564342Y-73753333D01*
X136564342Y-73753333D02*
X136659580Y-73800952D01*
X136659580Y-73800952D02*
X136707200Y-73848571D01*
X136707200Y-73848571D02*
X136754819Y-73943809D01*
X136754819Y-73943809D02*
X136754819Y-74229523D01*
X136754819Y-74229523D02*
X136707200Y-74324761D01*
X136707200Y-74324761D02*
X136659580Y-74372380D01*
X152744705Y-99956257D02*
X152792324Y-99908638D01*
X152792324Y-99908638D02*
X152887562Y-99861019D01*
X152887562Y-99861019D02*
X153125657Y-99861019D01*
X153125657Y-99861019D02*
X153220895Y-99908638D01*
X153220895Y-99908638D02*
X153268514Y-99956257D01*
X153268514Y-99956257D02*
X153316133Y-100051495D01*
X153316133Y-100051495D02*
X153316133Y-100146733D01*
X153316133Y-100146733D02*
X153268514Y-100289590D01*
X153268514Y-100289590D02*
X152697086Y-100861019D01*
X152697086Y-100861019D02*
X153316133Y-100861019D01*
X153649467Y-100861019D02*
X154173276Y-100194352D01*
X153649467Y-100194352D02*
X154173276Y-100861019D01*
X154506610Y-99956257D02*
X154554229Y-99908638D01*
X154554229Y-99908638D02*
X154649467Y-99861019D01*
X154649467Y-99861019D02*
X154887562Y-99861019D01*
X154887562Y-99861019D02*
X154982800Y-99908638D01*
X154982800Y-99908638D02*
X155030419Y-99956257D01*
X155030419Y-99956257D02*
X155078038Y-100051495D01*
X155078038Y-100051495D02*
X155078038Y-100146733D01*
X155078038Y-100146733D02*
X155030419Y-100289590D01*
X155030419Y-100289590D02*
X154458991Y-100861019D01*
X154458991Y-100861019D02*
X155078038Y-100861019D01*
X155506610Y-100861019D02*
X155506610Y-99861019D01*
X155506610Y-99861019D02*
X155839943Y-100575304D01*
X155839943Y-100575304D02*
X156173276Y-99861019D01*
X156173276Y-99861019D02*
X156173276Y-100861019D01*
X150542666Y-99861019D02*
X150542666Y-100575304D01*
X150542666Y-100575304D02*
X150495047Y-100718161D01*
X150495047Y-100718161D02*
X150399809Y-100813400D01*
X150399809Y-100813400D02*
X150256952Y-100861019D01*
X150256952Y-100861019D02*
X150161714Y-100861019D01*
X151447428Y-100194352D02*
X151447428Y-100861019D01*
X151209333Y-99813400D02*
X150971238Y-100527685D01*
X150971238Y-100527685D02*
X151590285Y-100527685D01*
X143894419Y-93164819D02*
X143894419Y-92164819D01*
X144942037Y-93069580D02*
X144894418Y-93117200D01*
X144894418Y-93117200D02*
X144751561Y-93164819D01*
X144751561Y-93164819D02*
X144656323Y-93164819D01*
X144656323Y-93164819D02*
X144513466Y-93117200D01*
X144513466Y-93117200D02*
X144418228Y-93021961D01*
X144418228Y-93021961D02*
X144370609Y-92926723D01*
X144370609Y-92926723D02*
X144322990Y-92736247D01*
X144322990Y-92736247D02*
X144322990Y-92593390D01*
X144322990Y-92593390D02*
X144370609Y-92402914D01*
X144370609Y-92402914D02*
X144418228Y-92307676D01*
X144418228Y-92307676D02*
X144513466Y-92212438D01*
X144513466Y-92212438D02*
X144656323Y-92164819D01*
X144656323Y-92164819D02*
X144751561Y-92164819D01*
X144751561Y-92164819D02*
X144894418Y-92212438D01*
X144894418Y-92212438D02*
X144942037Y-92260057D01*
X145322990Y-93117200D02*
X145465847Y-93164819D01*
X145465847Y-93164819D02*
X145703942Y-93164819D01*
X145703942Y-93164819D02*
X145799180Y-93117200D01*
X145799180Y-93117200D02*
X145846799Y-93069580D01*
X145846799Y-93069580D02*
X145894418Y-92974342D01*
X145894418Y-92974342D02*
X145894418Y-92879104D01*
X145894418Y-92879104D02*
X145846799Y-92783866D01*
X145846799Y-92783866D02*
X145799180Y-92736247D01*
X145799180Y-92736247D02*
X145703942Y-92688628D01*
X145703942Y-92688628D02*
X145513466Y-92641009D01*
X145513466Y-92641009D02*
X145418228Y-92593390D01*
X145418228Y-92593390D02*
X145370609Y-92545771D01*
X145370609Y-92545771D02*
X145322990Y-92450533D01*
X145322990Y-92450533D02*
X145322990Y-92355295D01*
X145322990Y-92355295D02*
X145370609Y-92260057D01*
X145370609Y-92260057D02*
X145418228Y-92212438D01*
X145418228Y-92212438D02*
X145513466Y-92164819D01*
X145513466Y-92164819D02*
X145751561Y-92164819D01*
X145751561Y-92164819D02*
X145894418Y-92212438D01*
X146322990Y-93164819D02*
X146322990Y-92164819D01*
X146322990Y-92164819D02*
X146703942Y-92164819D01*
X146703942Y-92164819D02*
X146799180Y-92212438D01*
X146799180Y-92212438D02*
X146846799Y-92260057D01*
X146846799Y-92260057D02*
X146894418Y-92355295D01*
X146894418Y-92355295D02*
X146894418Y-92498152D01*
X146894418Y-92498152D02*
X146846799Y-92593390D01*
X146846799Y-92593390D02*
X146799180Y-92641009D01*
X146799180Y-92641009D02*
X146703942Y-92688628D01*
X146703942Y-92688628D02*
X146322990Y-92688628D01*
X147846799Y-93164819D02*
X147275371Y-93164819D01*
X147561085Y-93164819D02*
X147561085Y-92164819D01*
X147561085Y-92164819D02*
X147465847Y-92307676D01*
X147465847Y-92307676D02*
X147370609Y-92402914D01*
X147370609Y-92402914D02*
X147275371Y-92450533D01*
X146859666Y-99886419D02*
X146859666Y-100600704D01*
X146859666Y-100600704D02*
X146812047Y-100743561D01*
X146812047Y-100743561D02*
X146716809Y-100838800D01*
X146716809Y-100838800D02*
X146573952Y-100886419D01*
X146573952Y-100886419D02*
X146478714Y-100886419D01*
X147812047Y-99886419D02*
X147335857Y-99886419D01*
X147335857Y-99886419D02*
X147288238Y-100362609D01*
X147288238Y-100362609D02*
X147335857Y-100314990D01*
X147335857Y-100314990D02*
X147431095Y-100267371D01*
X147431095Y-100267371D02*
X147669190Y-100267371D01*
X147669190Y-100267371D02*
X147764428Y-100314990D01*
X147764428Y-100314990D02*
X147812047Y-100362609D01*
X147812047Y-100362609D02*
X147859666Y-100457847D01*
X147859666Y-100457847D02*
X147859666Y-100695942D01*
X147859666Y-100695942D02*
X147812047Y-100791180D01*
X147812047Y-100791180D02*
X147764428Y-100838800D01*
X147764428Y-100838800D02*
X147669190Y-100886419D01*
X147669190Y-100886419D02*
X147431095Y-100886419D01*
X147431095Y-100886419D02*
X147335857Y-100838800D01*
X147335857Y-100838800D02*
X147288238Y-100791180D01*
X140206505Y-93063219D02*
X140206505Y-92063219D01*
X140206505Y-92063219D02*
X140587457Y-92063219D01*
X140587457Y-92063219D02*
X140682695Y-92110838D01*
X140682695Y-92110838D02*
X140730314Y-92158457D01*
X140730314Y-92158457D02*
X140777933Y-92253695D01*
X140777933Y-92253695D02*
X140777933Y-92396552D01*
X140777933Y-92396552D02*
X140730314Y-92491790D01*
X140730314Y-92491790D02*
X140682695Y-92539409D01*
X140682695Y-92539409D02*
X140587457Y-92587028D01*
X140587457Y-92587028D02*
X140206505Y-92587028D01*
X141158886Y-92158457D02*
X141206505Y-92110838D01*
X141206505Y-92110838D02*
X141301743Y-92063219D01*
X141301743Y-92063219D02*
X141539838Y-92063219D01*
X141539838Y-92063219D02*
X141635076Y-92110838D01*
X141635076Y-92110838D02*
X141682695Y-92158457D01*
X141682695Y-92158457D02*
X141730314Y-92253695D01*
X141730314Y-92253695D02*
X141730314Y-92348933D01*
X141730314Y-92348933D02*
X141682695Y-92491790D01*
X141682695Y-92491790D02*
X141111267Y-93063219D01*
X141111267Y-93063219D02*
X141730314Y-93063219D01*
X140424819Y-83899333D02*
X141139104Y-83899333D01*
X141139104Y-83899333D02*
X141281961Y-83946952D01*
X141281961Y-83946952D02*
X141377200Y-84042190D01*
X141377200Y-84042190D02*
X141424819Y-84185047D01*
X141424819Y-84185047D02*
X141424819Y-84280285D01*
X140424819Y-82994571D02*
X140424819Y-83185047D01*
X140424819Y-83185047D02*
X140472438Y-83280285D01*
X140472438Y-83280285D02*
X140520057Y-83327904D01*
X140520057Y-83327904D02*
X140662914Y-83423142D01*
X140662914Y-83423142D02*
X140853390Y-83470761D01*
X140853390Y-83470761D02*
X141234342Y-83470761D01*
X141234342Y-83470761D02*
X141329580Y-83423142D01*
X141329580Y-83423142D02*
X141377200Y-83375523D01*
X141377200Y-83375523D02*
X141424819Y-83280285D01*
X141424819Y-83280285D02*
X141424819Y-83089809D01*
X141424819Y-83089809D02*
X141377200Y-82994571D01*
X141377200Y-82994571D02*
X141329580Y-82946952D01*
X141329580Y-82946952D02*
X141234342Y-82899333D01*
X141234342Y-82899333D02*
X140996247Y-82899333D01*
X140996247Y-82899333D02*
X140901009Y-82946952D01*
X140901009Y-82946952D02*
X140853390Y-82994571D01*
X140853390Y-82994571D02*
X140805771Y-83089809D01*
X140805771Y-83089809D02*
X140805771Y-83280285D01*
X140805771Y-83280285D02*
X140853390Y-83375523D01*
X140853390Y-83375523D02*
X140901009Y-83423142D01*
X140901009Y-83423142D02*
X140996247Y-83470761D01*
D14*
X163969094Y-93828616D02*
X164041666Y-93852806D01*
X164041666Y-93852806D02*
X164162618Y-93852806D01*
X164162618Y-93852806D02*
X164210999Y-93828616D01*
X164210999Y-93828616D02*
X164235190Y-93804425D01*
X164235190Y-93804425D02*
X164259380Y-93756044D01*
X164259380Y-93756044D02*
X164259380Y-93707663D01*
X164259380Y-93707663D02*
X164235190Y-93659282D01*
X164235190Y-93659282D02*
X164210999Y-93635092D01*
X164210999Y-93635092D02*
X164162618Y-93610901D01*
X164162618Y-93610901D02*
X164065856Y-93586711D01*
X164065856Y-93586711D02*
X164017475Y-93562520D01*
X164017475Y-93562520D02*
X163993285Y-93538330D01*
X163993285Y-93538330D02*
X163969094Y-93489949D01*
X163969094Y-93489949D02*
X163969094Y-93441568D01*
X163969094Y-93441568D02*
X163993285Y-93393187D01*
X163993285Y-93393187D02*
X164017475Y-93368996D01*
X164017475Y-93368996D02*
X164065856Y-93344806D01*
X164065856Y-93344806D02*
X164186809Y-93344806D01*
X164186809Y-93344806D02*
X164259380Y-93368996D01*
X164549666Y-93852806D02*
X164501285Y-93828616D01*
X164501285Y-93828616D02*
X164477095Y-93804425D01*
X164477095Y-93804425D02*
X164452904Y-93756044D01*
X164452904Y-93756044D02*
X164452904Y-93610901D01*
X164452904Y-93610901D02*
X164477095Y-93562520D01*
X164477095Y-93562520D02*
X164501285Y-93538330D01*
X164501285Y-93538330D02*
X164549666Y-93514139D01*
X164549666Y-93514139D02*
X164622238Y-93514139D01*
X164622238Y-93514139D02*
X164670619Y-93538330D01*
X164670619Y-93538330D02*
X164694809Y-93562520D01*
X164694809Y-93562520D02*
X164719000Y-93610901D01*
X164719000Y-93610901D02*
X164719000Y-93756044D01*
X164719000Y-93756044D02*
X164694809Y-93804425D01*
X164694809Y-93804425D02*
X164670619Y-93828616D01*
X164670619Y-93828616D02*
X164622238Y-93852806D01*
X164622238Y-93852806D02*
X164549666Y-93852806D01*
X165009285Y-93852806D02*
X164960904Y-93828616D01*
X164960904Y-93828616D02*
X164936714Y-93780235D01*
X164936714Y-93780235D02*
X164936714Y-93344806D01*
X165420523Y-93852806D02*
X165420523Y-93344806D01*
X165420523Y-93828616D02*
X165372142Y-93852806D01*
X165372142Y-93852806D02*
X165275380Y-93852806D01*
X165275380Y-93852806D02*
X165226999Y-93828616D01*
X165226999Y-93828616D02*
X165202809Y-93804425D01*
X165202809Y-93804425D02*
X165178618Y-93756044D01*
X165178618Y-93756044D02*
X165178618Y-93610901D01*
X165178618Y-93610901D02*
X165202809Y-93562520D01*
X165202809Y-93562520D02*
X165226999Y-93538330D01*
X165226999Y-93538330D02*
X165275380Y-93514139D01*
X165275380Y-93514139D02*
X165372142Y-93514139D01*
X165372142Y-93514139D02*
X165420523Y-93538330D01*
X165855952Y-93828616D02*
X165807571Y-93852806D01*
X165807571Y-93852806D02*
X165710809Y-93852806D01*
X165710809Y-93852806D02*
X165662428Y-93828616D01*
X165662428Y-93828616D02*
X165638237Y-93780235D01*
X165638237Y-93780235D02*
X165638237Y-93586711D01*
X165638237Y-93586711D02*
X165662428Y-93538330D01*
X165662428Y-93538330D02*
X165710809Y-93514139D01*
X165710809Y-93514139D02*
X165807571Y-93514139D01*
X165807571Y-93514139D02*
X165855952Y-93538330D01*
X165855952Y-93538330D02*
X165880142Y-93586711D01*
X165880142Y-93586711D02*
X165880142Y-93635092D01*
X165880142Y-93635092D02*
X165638237Y-93683473D01*
X166097857Y-93852806D02*
X166097857Y-93514139D01*
X166097857Y-93610901D02*
X166122047Y-93562520D01*
X166122047Y-93562520D02*
X166146238Y-93538330D01*
X166146238Y-93538330D02*
X166194619Y-93514139D01*
X166194619Y-93514139D02*
X166243000Y-93514139D01*
X166557476Y-93344806D02*
X166557476Y-93707663D01*
X166557476Y-93707663D02*
X166533285Y-93780235D01*
X166533285Y-93780235D02*
X166484904Y-93828616D01*
X166484904Y-93828616D02*
X166412333Y-93852806D01*
X166412333Y-93852806D02*
X166363952Y-93852806D01*
X167017095Y-93514139D02*
X167017095Y-93852806D01*
X166799381Y-93514139D02*
X166799381Y-93780235D01*
X166799381Y-93780235D02*
X166823571Y-93828616D01*
X166823571Y-93828616D02*
X166871952Y-93852806D01*
X166871952Y-93852806D02*
X166944524Y-93852806D01*
X166944524Y-93852806D02*
X166992905Y-93828616D01*
X166992905Y-93828616D02*
X167017095Y-93804425D01*
X167259000Y-93852806D02*
X167259000Y-93514139D01*
X167259000Y-93562520D02*
X167283190Y-93538330D01*
X167283190Y-93538330D02*
X167331571Y-93514139D01*
X167331571Y-93514139D02*
X167404143Y-93514139D01*
X167404143Y-93514139D02*
X167452524Y-93538330D01*
X167452524Y-93538330D02*
X167476714Y-93586711D01*
X167476714Y-93586711D02*
X167476714Y-93852806D01*
X167476714Y-93586711D02*
X167500905Y-93538330D01*
X167500905Y-93538330D02*
X167549286Y-93514139D01*
X167549286Y-93514139D02*
X167621857Y-93514139D01*
X167621857Y-93514139D02*
X167670238Y-93538330D01*
X167670238Y-93538330D02*
X167694428Y-93586711D01*
X167694428Y-93586711D02*
X167694428Y-93852806D01*
X167936333Y-93514139D02*
X167936333Y-94022139D01*
X167936333Y-93538330D02*
X167984714Y-93514139D01*
X167984714Y-93514139D02*
X168081476Y-93514139D01*
X168081476Y-93514139D02*
X168129857Y-93538330D01*
X168129857Y-93538330D02*
X168154047Y-93562520D01*
X168154047Y-93562520D02*
X168178238Y-93610901D01*
X168178238Y-93610901D02*
X168178238Y-93756044D01*
X168178238Y-93756044D02*
X168154047Y-93804425D01*
X168154047Y-93804425D02*
X168129857Y-93828616D01*
X168129857Y-93828616D02*
X168081476Y-93852806D01*
X168081476Y-93852806D02*
X167984714Y-93852806D01*
X167984714Y-93852806D02*
X167936333Y-93828616D01*
X168589476Y-93828616D02*
X168541095Y-93852806D01*
X168541095Y-93852806D02*
X168444333Y-93852806D01*
X168444333Y-93852806D02*
X168395952Y-93828616D01*
X168395952Y-93828616D02*
X168371761Y-93780235D01*
X168371761Y-93780235D02*
X168371761Y-93586711D01*
X168371761Y-93586711D02*
X168395952Y-93538330D01*
X168395952Y-93538330D02*
X168444333Y-93514139D01*
X168444333Y-93514139D02*
X168541095Y-93514139D01*
X168541095Y-93514139D02*
X168589476Y-93538330D01*
X168589476Y-93538330D02*
X168613666Y-93586711D01*
X168613666Y-93586711D02*
X168613666Y-93635092D01*
X168613666Y-93635092D02*
X168371761Y-93683473D01*
X168831381Y-93852806D02*
X168831381Y-93514139D01*
X168831381Y-93610901D02*
X168855571Y-93562520D01*
X168855571Y-93562520D02*
X168879762Y-93538330D01*
X168879762Y-93538330D02*
X168928143Y-93514139D01*
X168928143Y-93514139D02*
X168976524Y-93514139D01*
X169024905Y-93901187D02*
X169411952Y-93901187D01*
X169508714Y-93393187D02*
X169532905Y-93368996D01*
X169532905Y-93368996D02*
X169581286Y-93344806D01*
X169581286Y-93344806D02*
X169702238Y-93344806D01*
X169702238Y-93344806D02*
X169750619Y-93368996D01*
X169750619Y-93368996D02*
X169774810Y-93393187D01*
X169774810Y-93393187D02*
X169799000Y-93441568D01*
X169799000Y-93441568D02*
X169799000Y-93489949D01*
X169799000Y-93489949D02*
X169774810Y-93562520D01*
X169774810Y-93562520D02*
X169484524Y-93852806D01*
X169484524Y-93852806D02*
X169799000Y-93852806D01*
X169895763Y-93901187D02*
X170282810Y-93901187D01*
X170500525Y-93344806D02*
X170597287Y-93344806D01*
X170597287Y-93344806D02*
X170645668Y-93368996D01*
X170645668Y-93368996D02*
X170694049Y-93417377D01*
X170694049Y-93417377D02*
X170718239Y-93514139D01*
X170718239Y-93514139D02*
X170718239Y-93683473D01*
X170718239Y-93683473D02*
X170694049Y-93780235D01*
X170694049Y-93780235D02*
X170645668Y-93828616D01*
X170645668Y-93828616D02*
X170597287Y-93852806D01*
X170597287Y-93852806D02*
X170500525Y-93852806D01*
X170500525Y-93852806D02*
X170452144Y-93828616D01*
X170452144Y-93828616D02*
X170403763Y-93780235D01*
X170403763Y-93780235D02*
X170379572Y-93683473D01*
X170379572Y-93683473D02*
X170379572Y-93514139D01*
X170379572Y-93514139D02*
X170403763Y-93417377D01*
X170403763Y-93417377D02*
X170452144Y-93368996D01*
X170452144Y-93368996D02*
X170500525Y-93344806D01*
X170935953Y-93514139D02*
X170935953Y-94022139D01*
X170935953Y-93538330D02*
X170984334Y-93514139D01*
X170984334Y-93514139D02*
X171081096Y-93514139D01*
X171081096Y-93514139D02*
X171129477Y-93538330D01*
X171129477Y-93538330D02*
X171153667Y-93562520D01*
X171153667Y-93562520D02*
X171177858Y-93610901D01*
X171177858Y-93610901D02*
X171177858Y-93756044D01*
X171177858Y-93756044D02*
X171153667Y-93804425D01*
X171153667Y-93804425D02*
X171129477Y-93828616D01*
X171129477Y-93828616D02*
X171081096Y-93852806D01*
X171081096Y-93852806D02*
X170984334Y-93852806D01*
X170984334Y-93852806D02*
X170935953Y-93828616D01*
X171589096Y-93828616D02*
X171540715Y-93852806D01*
X171540715Y-93852806D02*
X171443953Y-93852806D01*
X171443953Y-93852806D02*
X171395572Y-93828616D01*
X171395572Y-93828616D02*
X171371381Y-93780235D01*
X171371381Y-93780235D02*
X171371381Y-93586711D01*
X171371381Y-93586711D02*
X171395572Y-93538330D01*
X171395572Y-93538330D02*
X171443953Y-93514139D01*
X171443953Y-93514139D02*
X171540715Y-93514139D01*
X171540715Y-93514139D02*
X171589096Y-93538330D01*
X171589096Y-93538330D02*
X171613286Y-93586711D01*
X171613286Y-93586711D02*
X171613286Y-93635092D01*
X171613286Y-93635092D02*
X171371381Y-93683473D01*
X171831001Y-93514139D02*
X171831001Y-93852806D01*
X171831001Y-93562520D02*
X171855191Y-93538330D01*
X171855191Y-93538330D02*
X171903572Y-93514139D01*
X171903572Y-93514139D02*
X171976144Y-93514139D01*
X171976144Y-93514139D02*
X172024525Y-93538330D01*
X172024525Y-93538330D02*
X172048715Y-93586711D01*
X172048715Y-93586711D02*
X172048715Y-93852806D01*
D10*
X165108095Y-87383257D02*
X165155714Y-87335638D01*
X165155714Y-87335638D02*
X165250952Y-87288019D01*
X165250952Y-87288019D02*
X165489047Y-87288019D01*
X165489047Y-87288019D02*
X165584285Y-87335638D01*
X165584285Y-87335638D02*
X165631904Y-87383257D01*
X165631904Y-87383257D02*
X165679523Y-87478495D01*
X165679523Y-87478495D02*
X165679523Y-87573733D01*
X165679523Y-87573733D02*
X165631904Y-87716590D01*
X165631904Y-87716590D02*
X165060476Y-88288019D01*
X165060476Y-88288019D02*
X165679523Y-88288019D01*
X166060476Y-87383257D02*
X166108095Y-87335638D01*
X166108095Y-87335638D02*
X166203333Y-87288019D01*
X166203333Y-87288019D02*
X166441428Y-87288019D01*
X166441428Y-87288019D02*
X166536666Y-87335638D01*
X166536666Y-87335638D02*
X166584285Y-87383257D01*
X166584285Y-87383257D02*
X166631904Y-87478495D01*
X166631904Y-87478495D02*
X166631904Y-87573733D01*
X166631904Y-87573733D02*
X166584285Y-87716590D01*
X166584285Y-87716590D02*
X166012857Y-88288019D01*
X166012857Y-88288019D02*
X166631904Y-88288019D01*
X167631904Y-88288019D02*
X167298571Y-87811828D01*
X167060476Y-88288019D02*
X167060476Y-87288019D01*
X167060476Y-87288019D02*
X167441428Y-87288019D01*
X167441428Y-87288019D02*
X167536666Y-87335638D01*
X167536666Y-87335638D02*
X167584285Y-87383257D01*
X167584285Y-87383257D02*
X167631904Y-87478495D01*
X167631904Y-87478495D02*
X167631904Y-87621352D01*
X167631904Y-87621352D02*
X167584285Y-87716590D01*
X167584285Y-87716590D02*
X167536666Y-87764209D01*
X167536666Y-87764209D02*
X167441428Y-87811828D01*
X167441428Y-87811828D02*
X167060476Y-87811828D01*
D11*
X166286666Y-86333149D02*
X166120000Y-86095054D01*
X166000952Y-86333149D02*
X166000952Y-85833149D01*
X166000952Y-85833149D02*
X166191428Y-85833149D01*
X166191428Y-85833149D02*
X166239047Y-85856959D01*
X166239047Y-85856959D02*
X166262857Y-85880768D01*
X166262857Y-85880768D02*
X166286666Y-85928387D01*
X166286666Y-85928387D02*
X166286666Y-85999816D01*
X166286666Y-85999816D02*
X166262857Y-86047435D01*
X166262857Y-86047435D02*
X166239047Y-86071244D01*
X166239047Y-86071244D02*
X166191428Y-86095054D01*
X166191428Y-86095054D02*
X166000952Y-86095054D01*
X166762857Y-86333149D02*
X166477143Y-86333149D01*
X166620000Y-86333149D02*
X166620000Y-85833149D01*
X166620000Y-85833149D02*
X166572381Y-85904578D01*
X166572381Y-85904578D02*
X166524762Y-85952197D01*
X166524762Y-85952197D02*
X166477143Y-85976006D01*
D10*
X164955695Y-81693657D02*
X165003314Y-81646038D01*
X165003314Y-81646038D02*
X165098552Y-81598419D01*
X165098552Y-81598419D02*
X165336647Y-81598419D01*
X165336647Y-81598419D02*
X165431885Y-81646038D01*
X165431885Y-81646038D02*
X165479504Y-81693657D01*
X165479504Y-81693657D02*
X165527123Y-81788895D01*
X165527123Y-81788895D02*
X165527123Y-81884133D01*
X165527123Y-81884133D02*
X165479504Y-82026990D01*
X165479504Y-82026990D02*
X164908076Y-82598419D01*
X164908076Y-82598419D02*
X165527123Y-82598419D01*
X165908076Y-81693657D02*
X165955695Y-81646038D01*
X165955695Y-81646038D02*
X166050933Y-81598419D01*
X166050933Y-81598419D02*
X166289028Y-81598419D01*
X166289028Y-81598419D02*
X166384266Y-81646038D01*
X166384266Y-81646038D02*
X166431885Y-81693657D01*
X166431885Y-81693657D02*
X166479504Y-81788895D01*
X166479504Y-81788895D02*
X166479504Y-81884133D01*
X166479504Y-81884133D02*
X166431885Y-82026990D01*
X166431885Y-82026990D02*
X165860457Y-82598419D01*
X165860457Y-82598419D02*
X166479504Y-82598419D01*
X167479504Y-82598419D02*
X167146171Y-82122228D01*
X166908076Y-82598419D02*
X166908076Y-81598419D01*
X166908076Y-81598419D02*
X167289028Y-81598419D01*
X167289028Y-81598419D02*
X167384266Y-81646038D01*
X167384266Y-81646038D02*
X167431885Y-81693657D01*
X167431885Y-81693657D02*
X167479504Y-81788895D01*
X167479504Y-81788895D02*
X167479504Y-81931752D01*
X167479504Y-81931752D02*
X167431885Y-82026990D01*
X167431885Y-82026990D02*
X167384266Y-82074609D01*
X167384266Y-82074609D02*
X167289028Y-82122228D01*
X167289028Y-82122228D02*
X166908076Y-82122228D01*
D11*
X166286666Y-84047149D02*
X166120000Y-83809054D01*
X166000952Y-84047149D02*
X166000952Y-83547149D01*
X166000952Y-83547149D02*
X166191428Y-83547149D01*
X166191428Y-83547149D02*
X166239047Y-83570959D01*
X166239047Y-83570959D02*
X166262857Y-83594768D01*
X166262857Y-83594768D02*
X166286666Y-83642387D01*
X166286666Y-83642387D02*
X166286666Y-83713816D01*
X166286666Y-83713816D02*
X166262857Y-83761435D01*
X166262857Y-83761435D02*
X166239047Y-83785244D01*
X166239047Y-83785244D02*
X166191428Y-83809054D01*
X166191428Y-83809054D02*
X166000952Y-83809054D01*
X166477143Y-83594768D02*
X166500952Y-83570959D01*
X166500952Y-83570959D02*
X166548571Y-83547149D01*
X166548571Y-83547149D02*
X166667619Y-83547149D01*
X166667619Y-83547149D02*
X166715238Y-83570959D01*
X166715238Y-83570959D02*
X166739047Y-83594768D01*
X166739047Y-83594768D02*
X166762857Y-83642387D01*
X166762857Y-83642387D02*
X166762857Y-83690006D01*
X166762857Y-83690006D02*
X166739047Y-83761435D01*
X166739047Y-83761435D02*
X166453333Y-84047149D01*
X166453333Y-84047149D02*
X166762857Y-84047149D01*
D10*
X158672285Y-74682819D02*
X158100857Y-74682819D01*
X158386571Y-74682819D02*
X158386571Y-73682819D01*
X158386571Y-73682819D02*
X158291333Y-73825676D01*
X158291333Y-73825676D02*
X158196095Y-73920914D01*
X158196095Y-73920914D02*
X158100857Y-73968533D01*
X159100857Y-74682819D02*
X159100857Y-73682819D01*
X159100857Y-73682819D02*
X159434190Y-74397104D01*
X159434190Y-74397104D02*
X159767523Y-73682819D01*
X159767523Y-73682819D02*
X159767523Y-74682819D01*
D11*
X158874666Y-76105149D02*
X158708000Y-75867054D01*
X158588952Y-76105149D02*
X158588952Y-75605149D01*
X158588952Y-75605149D02*
X158779428Y-75605149D01*
X158779428Y-75605149D02*
X158827047Y-75628959D01*
X158827047Y-75628959D02*
X158850857Y-75652768D01*
X158850857Y-75652768D02*
X158874666Y-75700387D01*
X158874666Y-75700387D02*
X158874666Y-75771816D01*
X158874666Y-75771816D02*
X158850857Y-75819435D01*
X158850857Y-75819435D02*
X158827047Y-75843244D01*
X158827047Y-75843244D02*
X158779428Y-75867054D01*
X158779428Y-75867054D02*
X158588952Y-75867054D01*
X159041333Y-75605149D02*
X159350857Y-75605149D01*
X159350857Y-75605149D02*
X159184190Y-75795625D01*
X159184190Y-75795625D02*
X159255619Y-75795625D01*
X159255619Y-75795625D02*
X159303238Y-75819435D01*
X159303238Y-75819435D02*
X159327047Y-75843244D01*
X159327047Y-75843244D02*
X159350857Y-75890863D01*
X159350857Y-75890863D02*
X159350857Y-76009911D01*
X159350857Y-76009911D02*
X159327047Y-76057530D01*
X159327047Y-76057530D02*
X159303238Y-76081340D01*
X159303238Y-76081340D02*
X159255619Y-76105149D01*
X159255619Y-76105149D02*
X159112762Y-76105149D01*
X159112762Y-76105149D02*
X159065143Y-76081340D01*
X159065143Y-76081340D02*
X159041333Y-76057530D01*
D10*
X158364323Y-98752819D02*
X157792895Y-98752819D01*
X158078609Y-98752819D02*
X158078609Y-97752819D01*
X158078609Y-97752819D02*
X157983371Y-97895676D01*
X157983371Y-97895676D02*
X157888133Y-97990914D01*
X157888133Y-97990914D02*
X157792895Y-98038533D01*
X158983371Y-97752819D02*
X159078609Y-97752819D01*
X159078609Y-97752819D02*
X159173847Y-97800438D01*
X159173847Y-97800438D02*
X159221466Y-97848057D01*
X159221466Y-97848057D02*
X159269085Y-97943295D01*
X159269085Y-97943295D02*
X159316704Y-98133771D01*
X159316704Y-98133771D02*
X159316704Y-98371866D01*
X159316704Y-98371866D02*
X159269085Y-98562342D01*
X159269085Y-98562342D02*
X159221466Y-98657580D01*
X159221466Y-98657580D02*
X159173847Y-98705200D01*
X159173847Y-98705200D02*
X159078609Y-98752819D01*
X159078609Y-98752819D02*
X158983371Y-98752819D01*
X158983371Y-98752819D02*
X158888133Y-98705200D01*
X158888133Y-98705200D02*
X158840514Y-98657580D01*
X158840514Y-98657580D02*
X158792895Y-98562342D01*
X158792895Y-98562342D02*
X158745276Y-98371866D01*
X158745276Y-98371866D02*
X158745276Y-98133771D01*
X158745276Y-98133771D02*
X158792895Y-97943295D01*
X158792895Y-97943295D02*
X158840514Y-97848057D01*
X158840514Y-97848057D02*
X158888133Y-97800438D01*
X158888133Y-97800438D02*
X158983371Y-97752819D01*
X159745276Y-98752819D02*
X159745276Y-97752819D01*
X160316704Y-98752819D02*
X159888133Y-98181390D01*
X160316704Y-97752819D02*
X159745276Y-98324247D01*
D11*
X158920666Y-95985149D02*
X158754000Y-95747054D01*
X158634952Y-95985149D02*
X158634952Y-95485149D01*
X158634952Y-95485149D02*
X158825428Y-95485149D01*
X158825428Y-95485149D02*
X158873047Y-95508959D01*
X158873047Y-95508959D02*
X158896857Y-95532768D01*
X158896857Y-95532768D02*
X158920666Y-95580387D01*
X158920666Y-95580387D02*
X158920666Y-95651816D01*
X158920666Y-95651816D02*
X158896857Y-95699435D01*
X158896857Y-95699435D02*
X158873047Y-95723244D01*
X158873047Y-95723244D02*
X158825428Y-95747054D01*
X158825428Y-95747054D02*
X158634952Y-95747054D01*
X159349238Y-95651816D02*
X159349238Y-95985149D01*
X159230190Y-95461340D02*
X159111143Y-95818482D01*
X159111143Y-95818482D02*
X159420666Y-95818482D01*
D10*
X144540314Y-85773419D02*
X143968886Y-85773419D01*
X144254600Y-85773419D02*
X144254600Y-84773419D01*
X144254600Y-84773419D02*
X144159362Y-84916276D01*
X144159362Y-84916276D02*
X144064124Y-85011514D01*
X144064124Y-85011514D02*
X143968886Y-85059133D01*
X144968886Y-85773419D02*
X144968886Y-84773419D01*
X145540314Y-85773419D02*
X145111743Y-85201990D01*
X145540314Y-84773419D02*
X144968886Y-85344847D01*
D11*
X144671266Y-83031149D02*
X144504600Y-82793054D01*
X144385552Y-83031149D02*
X144385552Y-82531149D01*
X144385552Y-82531149D02*
X144576028Y-82531149D01*
X144576028Y-82531149D02*
X144623647Y-82554959D01*
X144623647Y-82554959D02*
X144647457Y-82578768D01*
X144647457Y-82578768D02*
X144671266Y-82626387D01*
X144671266Y-82626387D02*
X144671266Y-82697816D01*
X144671266Y-82697816D02*
X144647457Y-82745435D01*
X144647457Y-82745435D02*
X144623647Y-82769244D01*
X144623647Y-82769244D02*
X144576028Y-82793054D01*
X144576028Y-82793054D02*
X144385552Y-82793054D01*
X145123647Y-82531149D02*
X144885552Y-82531149D01*
X144885552Y-82531149D02*
X144861743Y-82769244D01*
X144861743Y-82769244D02*
X144885552Y-82745435D01*
X144885552Y-82745435D02*
X144933171Y-82721625D01*
X144933171Y-82721625D02*
X145052219Y-82721625D01*
X145052219Y-82721625D02*
X145099838Y-82745435D01*
X145099838Y-82745435D02*
X145123647Y-82769244D01*
X145123647Y-82769244D02*
X145147457Y-82816863D01*
X145147457Y-82816863D02*
X145147457Y-82935911D01*
X145147457Y-82935911D02*
X145123647Y-82983530D01*
X145123647Y-82983530D02*
X145099838Y-83007340D01*
X145099838Y-83007340D02*
X145052219Y-83031149D01*
X145052219Y-83031149D02*
X144933171Y-83031149D01*
X144933171Y-83031149D02*
X144885552Y-83007340D01*
X144885552Y-83007340D02*
X144861743Y-82983530D01*
D10*
X147131114Y-68196619D02*
X146559686Y-68196619D01*
X146845400Y-68196619D02*
X146845400Y-67196619D01*
X146845400Y-67196619D02*
X146750162Y-67339476D01*
X146750162Y-67339476D02*
X146654924Y-67434714D01*
X146654924Y-67434714D02*
X146559686Y-67482333D01*
X147559686Y-68196619D02*
X147559686Y-67196619D01*
X148131114Y-68196619D02*
X147702543Y-67625190D01*
X148131114Y-67196619D02*
X147559686Y-67768047D01*
D11*
X147236666Y-70401949D02*
X147070000Y-70163854D01*
X146950952Y-70401949D02*
X146950952Y-69901949D01*
X146950952Y-69901949D02*
X147141428Y-69901949D01*
X147141428Y-69901949D02*
X147189047Y-69925759D01*
X147189047Y-69925759D02*
X147212857Y-69949568D01*
X147212857Y-69949568D02*
X147236666Y-69997187D01*
X147236666Y-69997187D02*
X147236666Y-70068616D01*
X147236666Y-70068616D02*
X147212857Y-70116235D01*
X147212857Y-70116235D02*
X147189047Y-70140044D01*
X147189047Y-70140044D02*
X147141428Y-70163854D01*
X147141428Y-70163854D02*
X146950952Y-70163854D01*
X147665238Y-69901949D02*
X147570000Y-69901949D01*
X147570000Y-69901949D02*
X147522381Y-69925759D01*
X147522381Y-69925759D02*
X147498571Y-69949568D01*
X147498571Y-69949568D02*
X147450952Y-70020997D01*
X147450952Y-70020997D02*
X147427143Y-70116235D01*
X147427143Y-70116235D02*
X147427143Y-70306711D01*
X147427143Y-70306711D02*
X147450952Y-70354330D01*
X147450952Y-70354330D02*
X147474762Y-70378140D01*
X147474762Y-70378140D02*
X147522381Y-70401949D01*
X147522381Y-70401949D02*
X147617619Y-70401949D01*
X147617619Y-70401949D02*
X147665238Y-70378140D01*
X147665238Y-70378140D02*
X147689047Y-70354330D01*
X147689047Y-70354330D02*
X147712857Y-70306711D01*
X147712857Y-70306711D02*
X147712857Y-70187663D01*
X147712857Y-70187663D02*
X147689047Y-70140044D01*
X147689047Y-70140044D02*
X147665238Y-70116235D01*
X147665238Y-70116235D02*
X147617619Y-70092425D01*
X147617619Y-70092425D02*
X147522381Y-70092425D01*
X147522381Y-70092425D02*
X147474762Y-70116235D01*
X147474762Y-70116235D02*
X147450952Y-70140044D01*
X147450952Y-70140044D02*
X147427143Y-70187663D01*
D10*
X144565714Y-68196619D02*
X143994286Y-68196619D01*
X144280000Y-68196619D02*
X144280000Y-67196619D01*
X144280000Y-67196619D02*
X144184762Y-67339476D01*
X144184762Y-67339476D02*
X144089524Y-67434714D01*
X144089524Y-67434714D02*
X143994286Y-67482333D01*
X144994286Y-68196619D02*
X144994286Y-67196619D01*
X145565714Y-68196619D02*
X145137143Y-67625190D01*
X145565714Y-67196619D02*
X144994286Y-67768047D01*
D11*
X144696666Y-70401949D02*
X144530000Y-70163854D01*
X144410952Y-70401949D02*
X144410952Y-69901949D01*
X144410952Y-69901949D02*
X144601428Y-69901949D01*
X144601428Y-69901949D02*
X144649047Y-69925759D01*
X144649047Y-69925759D02*
X144672857Y-69949568D01*
X144672857Y-69949568D02*
X144696666Y-69997187D01*
X144696666Y-69997187D02*
X144696666Y-70068616D01*
X144696666Y-70068616D02*
X144672857Y-70116235D01*
X144672857Y-70116235D02*
X144649047Y-70140044D01*
X144649047Y-70140044D02*
X144601428Y-70163854D01*
X144601428Y-70163854D02*
X144410952Y-70163854D01*
X144863333Y-69901949D02*
X145196666Y-69901949D01*
X145196666Y-69901949D02*
X144982381Y-70401949D01*
D17*
X167941170Y-89237935D02*
X167926656Y-89252450D01*
X167926656Y-89252450D02*
X167883113Y-89266964D01*
X167883113Y-89266964D02*
X167854085Y-89266964D01*
X167854085Y-89266964D02*
X167810542Y-89252450D01*
X167810542Y-89252450D02*
X167781513Y-89223421D01*
X167781513Y-89223421D02*
X167766999Y-89194392D01*
X167766999Y-89194392D02*
X167752485Y-89136335D01*
X167752485Y-89136335D02*
X167752485Y-89092792D01*
X167752485Y-89092792D02*
X167766999Y-89034735D01*
X167766999Y-89034735D02*
X167781513Y-89005707D01*
X167781513Y-89005707D02*
X167810542Y-88976678D01*
X167810542Y-88976678D02*
X167854085Y-88962164D01*
X167854085Y-88962164D02*
X167883113Y-88962164D01*
X167883113Y-88962164D02*
X167926656Y-88976678D01*
X167926656Y-88976678D02*
X167941170Y-88991192D01*
X168231456Y-88976678D02*
X168202428Y-88962164D01*
X168202428Y-88962164D02*
X168158885Y-88962164D01*
X168158885Y-88962164D02*
X168115342Y-88976678D01*
X168115342Y-88976678D02*
X168086313Y-89005707D01*
X168086313Y-89005707D02*
X168071799Y-89034735D01*
X168071799Y-89034735D02*
X168057285Y-89092792D01*
X168057285Y-89092792D02*
X168057285Y-89136335D01*
X168057285Y-89136335D02*
X168071799Y-89194392D01*
X168071799Y-89194392D02*
X168086313Y-89223421D01*
X168086313Y-89223421D02*
X168115342Y-89252450D01*
X168115342Y-89252450D02*
X168158885Y-89266964D01*
X168158885Y-89266964D02*
X168187913Y-89266964D01*
X168187913Y-89266964D02*
X168231456Y-89252450D01*
X168231456Y-89252450D02*
X168245970Y-89237935D01*
X168245970Y-89237935D02*
X168245970Y-89136335D01*
X168245970Y-89136335D02*
X168187913Y-89136335D01*
X168434656Y-88962164D02*
X168463685Y-88962164D01*
X168463685Y-88962164D02*
X168492713Y-88976678D01*
X168492713Y-88976678D02*
X168507228Y-88991192D01*
X168507228Y-88991192D02*
X168521742Y-89020221D01*
X168521742Y-89020221D02*
X168536256Y-89078278D01*
X168536256Y-89078278D02*
X168536256Y-89150850D01*
X168536256Y-89150850D02*
X168521742Y-89208907D01*
X168521742Y-89208907D02*
X168507228Y-89237935D01*
X168507228Y-89237935D02*
X168492713Y-89252450D01*
X168492713Y-89252450D02*
X168463685Y-89266964D01*
X168463685Y-89266964D02*
X168434656Y-89266964D01*
X168434656Y-89266964D02*
X168405628Y-89252450D01*
X168405628Y-89252450D02*
X168391113Y-89237935D01*
X168391113Y-89237935D02*
X168376599Y-89208907D01*
X168376599Y-89208907D02*
X168362085Y-89150850D01*
X168362085Y-89150850D02*
X168362085Y-89078278D01*
X168362085Y-89078278D02*
X168376599Y-89020221D01*
X168376599Y-89020221D02*
X168391113Y-88991192D01*
X168391113Y-88991192D02*
X168405628Y-88976678D01*
X168405628Y-88976678D02*
X168434656Y-88962164D01*
X168797514Y-88962164D02*
X168739456Y-88962164D01*
X168739456Y-88962164D02*
X168710428Y-88976678D01*
X168710428Y-88976678D02*
X168695914Y-88991192D01*
X168695914Y-88991192D02*
X168666885Y-89034735D01*
X168666885Y-89034735D02*
X168652371Y-89092792D01*
X168652371Y-89092792D02*
X168652371Y-89208907D01*
X168652371Y-89208907D02*
X168666885Y-89237935D01*
X168666885Y-89237935D02*
X168681399Y-89252450D01*
X168681399Y-89252450D02*
X168710428Y-89266964D01*
X168710428Y-89266964D02*
X168768485Y-89266964D01*
X168768485Y-89266964D02*
X168797514Y-89252450D01*
X168797514Y-89252450D02*
X168812028Y-89237935D01*
X168812028Y-89237935D02*
X168826542Y-89208907D01*
X168826542Y-89208907D02*
X168826542Y-89136335D01*
X168826542Y-89136335D02*
X168812028Y-89107307D01*
X168812028Y-89107307D02*
X168797514Y-89092792D01*
X168797514Y-89092792D02*
X168768485Y-89078278D01*
X168768485Y-89078278D02*
X168710428Y-89078278D01*
X168710428Y-89078278D02*
X168681399Y-89092792D01*
X168681399Y-89092792D02*
X168666885Y-89107307D01*
X168666885Y-89107307D02*
X168652371Y-89136335D01*
X169015228Y-88962164D02*
X169044257Y-88962164D01*
X169044257Y-88962164D02*
X169073285Y-88976678D01*
X169073285Y-88976678D02*
X169087800Y-88991192D01*
X169087800Y-88991192D02*
X169102314Y-89020221D01*
X169102314Y-89020221D02*
X169116828Y-89078278D01*
X169116828Y-89078278D02*
X169116828Y-89150850D01*
X169116828Y-89150850D02*
X169102314Y-89208907D01*
X169102314Y-89208907D02*
X169087800Y-89237935D01*
X169087800Y-89237935D02*
X169073285Y-89252450D01*
X169073285Y-89252450D02*
X169044257Y-89266964D01*
X169044257Y-89266964D02*
X169015228Y-89266964D01*
X169015228Y-89266964D02*
X168986200Y-89252450D01*
X168986200Y-89252450D02*
X168971685Y-89237935D01*
X168971685Y-89237935D02*
X168957171Y-89208907D01*
X168957171Y-89208907D02*
X168942657Y-89150850D01*
X168942657Y-89150850D02*
X168942657Y-89078278D01*
X168942657Y-89078278D02*
X168957171Y-89020221D01*
X168957171Y-89020221D02*
X168971685Y-88991192D01*
X168971685Y-88991192D02*
X168986200Y-88976678D01*
X168986200Y-88976678D02*
X169015228Y-88962164D01*
X169218428Y-88962164D02*
X169407114Y-88962164D01*
X169407114Y-88962164D02*
X169305514Y-89078278D01*
X169305514Y-89078278D02*
X169349057Y-89078278D01*
X169349057Y-89078278D02*
X169378086Y-89092792D01*
X169378086Y-89092792D02*
X169392600Y-89107307D01*
X169392600Y-89107307D02*
X169407114Y-89136335D01*
X169407114Y-89136335D02*
X169407114Y-89208907D01*
X169407114Y-89208907D02*
X169392600Y-89237935D01*
X169392600Y-89237935D02*
X169378086Y-89252450D01*
X169378086Y-89252450D02*
X169349057Y-89266964D01*
X169349057Y-89266964D02*
X169261971Y-89266964D01*
X169261971Y-89266964D02*
X169232943Y-89252450D01*
X169232943Y-89252450D02*
X169218428Y-89237935D01*
X169537743Y-89266964D02*
X169537743Y-88962164D01*
X169537743Y-88962164D02*
X169639343Y-89179878D01*
X169639343Y-89179878D02*
X169740943Y-88962164D01*
X169740943Y-88962164D02*
X169740943Y-89266964D01*
X170031229Y-89266964D02*
X169886086Y-89266964D01*
X169886086Y-89266964D02*
X169886086Y-88962164D01*
X170307000Y-89237935D02*
X170292486Y-89252450D01*
X170292486Y-89252450D02*
X170248943Y-89266964D01*
X170248943Y-89266964D02*
X170219915Y-89266964D01*
X170219915Y-89266964D02*
X170176372Y-89252450D01*
X170176372Y-89252450D02*
X170147343Y-89223421D01*
X170147343Y-89223421D02*
X170132829Y-89194392D01*
X170132829Y-89194392D02*
X170118315Y-89136335D01*
X170118315Y-89136335D02*
X170118315Y-89092792D01*
X170118315Y-89092792D02*
X170132829Y-89034735D01*
X170132829Y-89034735D02*
X170147343Y-89005707D01*
X170147343Y-89005707D02*
X170176372Y-88976678D01*
X170176372Y-88976678D02*
X170219915Y-88962164D01*
X170219915Y-88962164D02*
X170248943Y-88962164D01*
X170248943Y-88962164D02*
X170292486Y-88976678D01*
X170292486Y-88976678D02*
X170307000Y-88991192D01*
X170437629Y-89150850D02*
X170669858Y-89150850D01*
X170873057Y-88962164D02*
X170902086Y-88962164D01*
X170902086Y-88962164D02*
X170931114Y-88976678D01*
X170931114Y-88976678D02*
X170945629Y-88991192D01*
X170945629Y-88991192D02*
X170960143Y-89020221D01*
X170960143Y-89020221D02*
X170974657Y-89078278D01*
X170974657Y-89078278D02*
X170974657Y-89150850D01*
X170974657Y-89150850D02*
X170960143Y-89208907D01*
X170960143Y-89208907D02*
X170945629Y-89237935D01*
X170945629Y-89237935D02*
X170931114Y-89252450D01*
X170931114Y-89252450D02*
X170902086Y-89266964D01*
X170902086Y-89266964D02*
X170873057Y-89266964D01*
X170873057Y-89266964D02*
X170844029Y-89252450D01*
X170844029Y-89252450D02*
X170829514Y-89237935D01*
X170829514Y-89237935D02*
X170815000Y-89208907D01*
X170815000Y-89208907D02*
X170800486Y-89150850D01*
X170800486Y-89150850D02*
X170800486Y-89078278D01*
X170800486Y-89078278D02*
X170815000Y-89020221D01*
X170815000Y-89020221D02*
X170829514Y-88991192D01*
X170829514Y-88991192D02*
X170844029Y-88976678D01*
X170844029Y-88976678D02*
X170873057Y-88962164D01*
X171250429Y-88962164D02*
X171105286Y-88962164D01*
X171105286Y-88962164D02*
X171090772Y-89107307D01*
X171090772Y-89107307D02*
X171105286Y-89092792D01*
X171105286Y-89092792D02*
X171134315Y-89078278D01*
X171134315Y-89078278D02*
X171206886Y-89078278D01*
X171206886Y-89078278D02*
X171235915Y-89092792D01*
X171235915Y-89092792D02*
X171250429Y-89107307D01*
X171250429Y-89107307D02*
X171264943Y-89136335D01*
X171264943Y-89136335D02*
X171264943Y-89208907D01*
X171264943Y-89208907D02*
X171250429Y-89237935D01*
X171250429Y-89237935D02*
X171235915Y-89252450D01*
X171235915Y-89252450D02*
X171206886Y-89266964D01*
X171206886Y-89266964D02*
X171134315Y-89266964D01*
X171134315Y-89266964D02*
X171105286Y-89252450D01*
X171105286Y-89252450D02*
X171090772Y-89237935D01*
X171395572Y-89107307D02*
X171497172Y-89107307D01*
X171540715Y-89266964D02*
X171395572Y-89266964D01*
X171395572Y-89266964D02*
X171395572Y-88962164D01*
X171395572Y-88962164D02*
X171540715Y-88962164D01*
D18*
X169794161Y-85245690D02*
X169963495Y-85753690D01*
X169963495Y-85753690D02*
X170132828Y-85245690D01*
X170592448Y-85753690D02*
X170423114Y-85511785D01*
X170302162Y-85753690D02*
X170302162Y-85245690D01*
X170302162Y-85245690D02*
X170495686Y-85245690D01*
X170495686Y-85245690D02*
X170544067Y-85269880D01*
X170544067Y-85269880D02*
X170568257Y-85294071D01*
X170568257Y-85294071D02*
X170592448Y-85342452D01*
X170592448Y-85342452D02*
X170592448Y-85415023D01*
X170592448Y-85415023D02*
X170568257Y-85463404D01*
X170568257Y-85463404D02*
X170544067Y-85487595D01*
X170544067Y-85487595D02*
X170495686Y-85511785D01*
X170495686Y-85511785D02*
X170302162Y-85511785D01*
X171076257Y-85753690D02*
X170785971Y-85753690D01*
X170931114Y-85753690D02*
X170931114Y-85245690D01*
X170931114Y-85245690D02*
X170882733Y-85318261D01*
X170882733Y-85318261D02*
X170834352Y-85366642D01*
X170834352Y-85366642D02*
X170785971Y-85390833D01*
D10*
X157237323Y-67682619D02*
X156665895Y-67682619D01*
X156951609Y-67682619D02*
X156951609Y-66682619D01*
X156951609Y-66682619D02*
X156856371Y-66825476D01*
X156856371Y-66825476D02*
X156761133Y-66920714D01*
X156761133Y-66920714D02*
X156665895Y-66968333D01*
X158094466Y-66682619D02*
X157903990Y-66682619D01*
X157903990Y-66682619D02*
X157808752Y-66730238D01*
X157808752Y-66730238D02*
X157761133Y-66777857D01*
X157761133Y-66777857D02*
X157665895Y-66920714D01*
X157665895Y-66920714D02*
X157618276Y-67111190D01*
X157618276Y-67111190D02*
X157618276Y-67492142D01*
X157618276Y-67492142D02*
X157665895Y-67587380D01*
X157665895Y-67587380D02*
X157713514Y-67635000D01*
X157713514Y-67635000D02*
X157808752Y-67682619D01*
X157808752Y-67682619D02*
X157999228Y-67682619D01*
X157999228Y-67682619D02*
X158094466Y-67635000D01*
X158094466Y-67635000D02*
X158142085Y-67587380D01*
X158142085Y-67587380D02*
X158189704Y-67492142D01*
X158189704Y-67492142D02*
X158189704Y-67254047D01*
X158189704Y-67254047D02*
X158142085Y-67158809D01*
X158142085Y-67158809D02*
X158094466Y-67111190D01*
X158094466Y-67111190D02*
X157999228Y-67063571D01*
X157999228Y-67063571D02*
X157808752Y-67063571D01*
X157808752Y-67063571D02*
X157713514Y-67111190D01*
X157713514Y-67111190D02*
X157665895Y-67158809D01*
X157665895Y-67158809D02*
X157618276Y-67254047D01*
X158618276Y-67682619D02*
X158618276Y-66682619D01*
X158618276Y-66682619D02*
X158951609Y-67396904D01*
X158951609Y-67396904D02*
X159284942Y-66682619D01*
X159284942Y-66682619D02*
X159284942Y-67682619D01*
X159761133Y-67682619D02*
X159761133Y-66682619D01*
X159761133Y-67158809D02*
X160332561Y-67158809D01*
X160332561Y-67682619D02*
X160332561Y-66682619D01*
X160713514Y-67015952D02*
X161237323Y-67015952D01*
X161237323Y-67015952D02*
X160713514Y-67682619D01*
X160713514Y-67682619D02*
X161237323Y-67682619D01*
X158451609Y-70006428D02*
X158451609Y-70482619D01*
X158118276Y-69482619D02*
X158451609Y-70006428D01*
X158451609Y-70006428D02*
X158784942Y-69482619D01*
X159642085Y-70482619D02*
X159070657Y-70482619D01*
X159356371Y-70482619D02*
X159356371Y-69482619D01*
X159356371Y-69482619D02*
X159261133Y-69625476D01*
X159261133Y-69625476D02*
X159165895Y-69720714D01*
X159165895Y-69720714D02*
X159070657Y-69768333D01*
X171948743Y-90056619D02*
X171948743Y-90866142D01*
X171948743Y-90866142D02*
X171996362Y-90961380D01*
X171996362Y-90961380D02*
X172043981Y-91009000D01*
X172043981Y-91009000D02*
X172139219Y-91056619D01*
X172139219Y-91056619D02*
X172329695Y-91056619D01*
X172329695Y-91056619D02*
X172424933Y-91009000D01*
X172424933Y-91009000D02*
X172472552Y-90961380D01*
X172472552Y-90961380D02*
X172520171Y-90866142D01*
X172520171Y-90866142D02*
X172520171Y-90056619D01*
X172948743Y-91009000D02*
X173091600Y-91056619D01*
X173091600Y-91056619D02*
X173329695Y-91056619D01*
X173329695Y-91056619D02*
X173424933Y-91009000D01*
X173424933Y-91009000D02*
X173472552Y-90961380D01*
X173472552Y-90961380D02*
X173520171Y-90866142D01*
X173520171Y-90866142D02*
X173520171Y-90770904D01*
X173520171Y-90770904D02*
X173472552Y-90675666D01*
X173472552Y-90675666D02*
X173424933Y-90628047D01*
X173424933Y-90628047D02*
X173329695Y-90580428D01*
X173329695Y-90580428D02*
X173139219Y-90532809D01*
X173139219Y-90532809D02*
X173043981Y-90485190D01*
X173043981Y-90485190D02*
X172996362Y-90437571D01*
X172996362Y-90437571D02*
X172948743Y-90342333D01*
X172948743Y-90342333D02*
X172948743Y-90247095D01*
X172948743Y-90247095D02*
X172996362Y-90151857D01*
X172996362Y-90151857D02*
X173043981Y-90104238D01*
X173043981Y-90104238D02*
X173139219Y-90056619D01*
X173139219Y-90056619D02*
X173377314Y-90056619D01*
X173377314Y-90056619D02*
X173520171Y-90104238D01*
X174282076Y-90532809D02*
X174424933Y-90580428D01*
X174424933Y-90580428D02*
X174472552Y-90628047D01*
X174472552Y-90628047D02*
X174520171Y-90723285D01*
X174520171Y-90723285D02*
X174520171Y-90866142D01*
X174520171Y-90866142D02*
X174472552Y-90961380D01*
X174472552Y-90961380D02*
X174424933Y-91009000D01*
X174424933Y-91009000D02*
X174329695Y-91056619D01*
X174329695Y-91056619D02*
X173948743Y-91056619D01*
X173948743Y-91056619D02*
X173948743Y-90056619D01*
X173948743Y-90056619D02*
X174282076Y-90056619D01*
X174282076Y-90056619D02*
X174377314Y-90104238D01*
X174377314Y-90104238D02*
X174424933Y-90151857D01*
X174424933Y-90151857D02*
X174472552Y-90247095D01*
X174472552Y-90247095D02*
X174472552Y-90342333D01*
X174472552Y-90342333D02*
X174424933Y-90437571D01*
X174424933Y-90437571D02*
X174377314Y-90485190D01*
X174377314Y-90485190D02*
X174282076Y-90532809D01*
X174282076Y-90532809D02*
X173948743Y-90532809D01*
X174710648Y-91151857D02*
X175472552Y-91151857D01*
X176043981Y-90532809D02*
X176186838Y-90580428D01*
X176186838Y-90580428D02*
X176234457Y-90628047D01*
X176234457Y-90628047D02*
X176282076Y-90723285D01*
X176282076Y-90723285D02*
X176282076Y-90866142D01*
X176282076Y-90866142D02*
X176234457Y-90961380D01*
X176234457Y-90961380D02*
X176186838Y-91009000D01*
X176186838Y-91009000D02*
X176091600Y-91056619D01*
X176091600Y-91056619D02*
X175710648Y-91056619D01*
X175710648Y-91056619D02*
X175710648Y-90056619D01*
X175710648Y-90056619D02*
X176043981Y-90056619D01*
X176043981Y-90056619D02*
X176139219Y-90104238D01*
X176139219Y-90104238D02*
X176186838Y-90151857D01*
X176186838Y-90151857D02*
X176234457Y-90247095D01*
X176234457Y-90247095D02*
X176234457Y-90342333D01*
X176234457Y-90342333D02*
X176186838Y-90437571D01*
X176186838Y-90437571D02*
X176139219Y-90485190D01*
X176139219Y-90485190D02*
X176043981Y-90532809D01*
X176043981Y-90532809D02*
X175710648Y-90532809D01*
X180648666Y-82238819D02*
X180648666Y-82953104D01*
X180648666Y-82953104D02*
X180601047Y-83095961D01*
X180601047Y-83095961D02*
X180505809Y-83191200D01*
X180505809Y-83191200D02*
X180362952Y-83238819D01*
X180362952Y-83238819D02*
X180267714Y-83238819D01*
X181077238Y-82334057D02*
X181124857Y-82286438D01*
X181124857Y-82286438D02*
X181220095Y-82238819D01*
X181220095Y-82238819D02*
X181458190Y-82238819D01*
X181458190Y-82238819D02*
X181553428Y-82286438D01*
X181553428Y-82286438D02*
X181601047Y-82334057D01*
X181601047Y-82334057D02*
X181648666Y-82429295D01*
X181648666Y-82429295D02*
X181648666Y-82524533D01*
X181648666Y-82524533D02*
X181601047Y-82667390D01*
X181601047Y-82667390D02*
X181029619Y-83238819D01*
X181029619Y-83238819D02*
X181648666Y-83238819D01*
X148993933Y-92142504D02*
X149470123Y-92142504D01*
X148898695Y-92428219D02*
X149232028Y-91428219D01*
X149232028Y-91428219D02*
X149565361Y-92428219D01*
X149755838Y-91428219D02*
X150327266Y-91428219D01*
X150041552Y-92428219D02*
X150041552Y-91428219D01*
X150660600Y-92428219D02*
X150660600Y-91761552D01*
X150660600Y-91856790D02*
X150708219Y-91809171D01*
X150708219Y-91809171D02*
X150803457Y-91761552D01*
X150803457Y-91761552D02*
X150946314Y-91761552D01*
X150946314Y-91761552D02*
X151041552Y-91809171D01*
X151041552Y-91809171D02*
X151089171Y-91904409D01*
X151089171Y-91904409D02*
X151089171Y-92428219D01*
X151089171Y-91904409D02*
X151136790Y-91809171D01*
X151136790Y-91809171D02*
X151232028Y-91761552D01*
X151232028Y-91761552D02*
X151374885Y-91761552D01*
X151374885Y-91761552D02*
X151470124Y-91809171D01*
X151470124Y-91809171D02*
X151517743Y-91904409D01*
X151517743Y-91904409D02*
X151517743Y-92428219D01*
X152374885Y-92380600D02*
X152279647Y-92428219D01*
X152279647Y-92428219D02*
X152089171Y-92428219D01*
X152089171Y-92428219D02*
X151993933Y-92380600D01*
X151993933Y-92380600D02*
X151946314Y-92285361D01*
X151946314Y-92285361D02*
X151946314Y-91904409D01*
X151946314Y-91904409D02*
X151993933Y-91809171D01*
X151993933Y-91809171D02*
X152089171Y-91761552D01*
X152089171Y-91761552D02*
X152279647Y-91761552D01*
X152279647Y-91761552D02*
X152374885Y-91809171D01*
X152374885Y-91809171D02*
X152422504Y-91904409D01*
X152422504Y-91904409D02*
X152422504Y-91999647D01*
X152422504Y-91999647D02*
X151946314Y-92094885D01*
X153279647Y-91761552D02*
X153279647Y-92571076D01*
X153279647Y-92571076D02*
X153232028Y-92666314D01*
X153232028Y-92666314D02*
X153184409Y-92713933D01*
X153184409Y-92713933D02*
X153089171Y-92761552D01*
X153089171Y-92761552D02*
X152946314Y-92761552D01*
X152946314Y-92761552D02*
X152851076Y-92713933D01*
X153279647Y-92380600D02*
X153184409Y-92428219D01*
X153184409Y-92428219D02*
X152993933Y-92428219D01*
X152993933Y-92428219D02*
X152898695Y-92380600D01*
X152898695Y-92380600D02*
X152851076Y-92332980D01*
X152851076Y-92332980D02*
X152803457Y-92237742D01*
X152803457Y-92237742D02*
X152803457Y-91952028D01*
X152803457Y-91952028D02*
X152851076Y-91856790D01*
X152851076Y-91856790D02*
X152898695Y-91809171D01*
X152898695Y-91809171D02*
X152993933Y-91761552D01*
X152993933Y-91761552D02*
X153184409Y-91761552D01*
X153184409Y-91761552D02*
X153279647Y-91809171D01*
X154184409Y-92428219D02*
X154184409Y-91904409D01*
X154184409Y-91904409D02*
X154136790Y-91809171D01*
X154136790Y-91809171D02*
X154041552Y-91761552D01*
X154041552Y-91761552D02*
X153851076Y-91761552D01*
X153851076Y-91761552D02*
X153755838Y-91809171D01*
X154184409Y-92380600D02*
X154089171Y-92428219D01*
X154089171Y-92428219D02*
X153851076Y-92428219D01*
X153851076Y-92428219D02*
X153755838Y-92380600D01*
X153755838Y-92380600D02*
X153708219Y-92285361D01*
X153708219Y-92285361D02*
X153708219Y-92190123D01*
X153708219Y-92190123D02*
X153755838Y-92094885D01*
X153755838Y-92094885D02*
X153851076Y-92047266D01*
X153851076Y-92047266D02*
X154089171Y-92047266D01*
X154089171Y-92047266D02*
X154184409Y-91999647D01*
X154803457Y-91856790D02*
X154708219Y-91809171D01*
X154708219Y-91809171D02*
X154660600Y-91761552D01*
X154660600Y-91761552D02*
X154612981Y-91666314D01*
X154612981Y-91666314D02*
X154612981Y-91618695D01*
X154612981Y-91618695D02*
X154660600Y-91523457D01*
X154660600Y-91523457D02*
X154708219Y-91475838D01*
X154708219Y-91475838D02*
X154803457Y-91428219D01*
X154803457Y-91428219D02*
X154993933Y-91428219D01*
X154993933Y-91428219D02*
X155089171Y-91475838D01*
X155089171Y-91475838D02*
X155136790Y-91523457D01*
X155136790Y-91523457D02*
X155184409Y-91618695D01*
X155184409Y-91618695D02*
X155184409Y-91666314D01*
X155184409Y-91666314D02*
X155136790Y-91761552D01*
X155136790Y-91761552D02*
X155089171Y-91809171D01*
X155089171Y-91809171D02*
X154993933Y-91856790D01*
X154993933Y-91856790D02*
X154803457Y-91856790D01*
X154803457Y-91856790D02*
X154708219Y-91904409D01*
X154708219Y-91904409D02*
X154660600Y-91952028D01*
X154660600Y-91952028D02*
X154612981Y-92047266D01*
X154612981Y-92047266D02*
X154612981Y-92237742D01*
X154612981Y-92237742D02*
X154660600Y-92332980D01*
X154660600Y-92332980D02*
X154708219Y-92380600D01*
X154708219Y-92380600D02*
X154803457Y-92428219D01*
X154803457Y-92428219D02*
X154993933Y-92428219D01*
X154993933Y-92428219D02*
X155089171Y-92380600D01*
X155089171Y-92380600D02*
X155136790Y-92332980D01*
X155136790Y-92332980D02*
X155184409Y-92237742D01*
X155184409Y-92237742D02*
X155184409Y-92047266D01*
X155184409Y-92047266D02*
X155136790Y-91952028D01*
X155136790Y-91952028D02*
X155089171Y-91904409D01*
X155089171Y-91904409D02*
X154993933Y-91856790D01*
X155612981Y-91428219D02*
X155612981Y-92237742D01*
X155612981Y-92237742D02*
X155660600Y-92332980D01*
X155660600Y-92332980D02*
X155708219Y-92380600D01*
X155708219Y-92380600D02*
X155803457Y-92428219D01*
X155803457Y-92428219D02*
X155993933Y-92428219D01*
X155993933Y-92428219D02*
X156089171Y-92380600D01*
X156089171Y-92380600D02*
X156136790Y-92332980D01*
X156136790Y-92332980D02*
X156184409Y-92237742D01*
X156184409Y-92237742D02*
X156184409Y-91428219D01*
X156612981Y-91523457D02*
X156660600Y-91475838D01*
X156660600Y-91475838D02*
X156755838Y-91428219D01*
X156755838Y-91428219D02*
X156993933Y-91428219D01*
X156993933Y-91428219D02*
X157089171Y-91475838D01*
X157089171Y-91475838D02*
X157136790Y-91523457D01*
X157136790Y-91523457D02*
X157184409Y-91618695D01*
X157184409Y-91618695D02*
X157184409Y-91713933D01*
X157184409Y-91713933D02*
X157136790Y-91856790D01*
X157136790Y-91856790D02*
X156565362Y-92428219D01*
X156565362Y-92428219D02*
X157184409Y-92428219D01*
X157612981Y-92047266D02*
X158374886Y-92047266D01*
X158803457Y-92142504D02*
X159279647Y-92142504D01*
X158708219Y-92428219D02*
X159041552Y-91428219D01*
X159041552Y-91428219D02*
X159374885Y-92428219D01*
X159708219Y-91428219D02*
X159708219Y-92237742D01*
X159708219Y-92237742D02*
X159755838Y-92332980D01*
X159755838Y-92332980D02*
X159803457Y-92380600D01*
X159803457Y-92380600D02*
X159898695Y-92428219D01*
X159898695Y-92428219D02*
X160089171Y-92428219D01*
X160089171Y-92428219D02*
X160184409Y-92380600D01*
X160184409Y-92380600D02*
X160232028Y-92332980D01*
X160232028Y-92332980D02*
X160279647Y-92237742D01*
X160279647Y-92237742D02*
X160279647Y-91428219D01*
X153670095Y-85306819D02*
X153670095Y-86116342D01*
X153670095Y-86116342D02*
X153717714Y-86211580D01*
X153717714Y-86211580D02*
X153765333Y-86259200D01*
X153765333Y-86259200D02*
X153860571Y-86306819D01*
X153860571Y-86306819D02*
X154051047Y-86306819D01*
X154051047Y-86306819D02*
X154146285Y-86259200D01*
X154146285Y-86259200D02*
X154193904Y-86211580D01*
X154193904Y-86211580D02*
X154241523Y-86116342D01*
X154241523Y-86116342D02*
X154241523Y-85306819D01*
X155241523Y-86306819D02*
X154670095Y-86306819D01*
X154955809Y-86306819D02*
X154955809Y-85306819D01*
X154955809Y-85306819D02*
X154860571Y-85449676D01*
X154860571Y-85449676D02*
X154765333Y-85544914D01*
X154765333Y-85544914D02*
X154670095Y-85592533D01*
D17*
X169642970Y-80347935D02*
X169628456Y-80362450D01*
X169628456Y-80362450D02*
X169584913Y-80376964D01*
X169584913Y-80376964D02*
X169555885Y-80376964D01*
X169555885Y-80376964D02*
X169512342Y-80362450D01*
X169512342Y-80362450D02*
X169483313Y-80333421D01*
X169483313Y-80333421D02*
X169468799Y-80304392D01*
X169468799Y-80304392D02*
X169454285Y-80246335D01*
X169454285Y-80246335D02*
X169454285Y-80202792D01*
X169454285Y-80202792D02*
X169468799Y-80144735D01*
X169468799Y-80144735D02*
X169483313Y-80115707D01*
X169483313Y-80115707D02*
X169512342Y-80086678D01*
X169512342Y-80086678D02*
X169555885Y-80072164D01*
X169555885Y-80072164D02*
X169584913Y-80072164D01*
X169584913Y-80072164D02*
X169628456Y-80086678D01*
X169628456Y-80086678D02*
X169642970Y-80101192D01*
X169933256Y-80086678D02*
X169904228Y-80072164D01*
X169904228Y-80072164D02*
X169860685Y-80072164D01*
X169860685Y-80072164D02*
X169817142Y-80086678D01*
X169817142Y-80086678D02*
X169788113Y-80115707D01*
X169788113Y-80115707D02*
X169773599Y-80144735D01*
X169773599Y-80144735D02*
X169759085Y-80202792D01*
X169759085Y-80202792D02*
X169759085Y-80246335D01*
X169759085Y-80246335D02*
X169773599Y-80304392D01*
X169773599Y-80304392D02*
X169788113Y-80333421D01*
X169788113Y-80333421D02*
X169817142Y-80362450D01*
X169817142Y-80362450D02*
X169860685Y-80376964D01*
X169860685Y-80376964D02*
X169889713Y-80376964D01*
X169889713Y-80376964D02*
X169933256Y-80362450D01*
X169933256Y-80362450D02*
X169947770Y-80347935D01*
X169947770Y-80347935D02*
X169947770Y-80246335D01*
X169947770Y-80246335D02*
X169889713Y-80246335D01*
X170136456Y-80072164D02*
X170165485Y-80072164D01*
X170165485Y-80072164D02*
X170194513Y-80086678D01*
X170194513Y-80086678D02*
X170209028Y-80101192D01*
X170209028Y-80101192D02*
X170223542Y-80130221D01*
X170223542Y-80130221D02*
X170238056Y-80188278D01*
X170238056Y-80188278D02*
X170238056Y-80260850D01*
X170238056Y-80260850D02*
X170223542Y-80318907D01*
X170223542Y-80318907D02*
X170209028Y-80347935D01*
X170209028Y-80347935D02*
X170194513Y-80362450D01*
X170194513Y-80362450D02*
X170165485Y-80376964D01*
X170165485Y-80376964D02*
X170136456Y-80376964D01*
X170136456Y-80376964D02*
X170107428Y-80362450D01*
X170107428Y-80362450D02*
X170092913Y-80347935D01*
X170092913Y-80347935D02*
X170078399Y-80318907D01*
X170078399Y-80318907D02*
X170063885Y-80260850D01*
X170063885Y-80260850D02*
X170063885Y-80188278D01*
X170063885Y-80188278D02*
X170078399Y-80130221D01*
X170078399Y-80130221D02*
X170092913Y-80101192D01*
X170092913Y-80101192D02*
X170107428Y-80086678D01*
X170107428Y-80086678D02*
X170136456Y-80072164D01*
X170499314Y-80072164D02*
X170441256Y-80072164D01*
X170441256Y-80072164D02*
X170412228Y-80086678D01*
X170412228Y-80086678D02*
X170397714Y-80101192D01*
X170397714Y-80101192D02*
X170368685Y-80144735D01*
X170368685Y-80144735D02*
X170354171Y-80202792D01*
X170354171Y-80202792D02*
X170354171Y-80318907D01*
X170354171Y-80318907D02*
X170368685Y-80347935D01*
X170368685Y-80347935D02*
X170383199Y-80362450D01*
X170383199Y-80362450D02*
X170412228Y-80376964D01*
X170412228Y-80376964D02*
X170470285Y-80376964D01*
X170470285Y-80376964D02*
X170499314Y-80362450D01*
X170499314Y-80362450D02*
X170513828Y-80347935D01*
X170513828Y-80347935D02*
X170528342Y-80318907D01*
X170528342Y-80318907D02*
X170528342Y-80246335D01*
X170528342Y-80246335D02*
X170513828Y-80217307D01*
X170513828Y-80217307D02*
X170499314Y-80202792D01*
X170499314Y-80202792D02*
X170470285Y-80188278D01*
X170470285Y-80188278D02*
X170412228Y-80188278D01*
X170412228Y-80188278D02*
X170383199Y-80202792D01*
X170383199Y-80202792D02*
X170368685Y-80217307D01*
X170368685Y-80217307D02*
X170354171Y-80246335D01*
X170717028Y-80072164D02*
X170746057Y-80072164D01*
X170746057Y-80072164D02*
X170775085Y-80086678D01*
X170775085Y-80086678D02*
X170789600Y-80101192D01*
X170789600Y-80101192D02*
X170804114Y-80130221D01*
X170804114Y-80130221D02*
X170818628Y-80188278D01*
X170818628Y-80188278D02*
X170818628Y-80260850D01*
X170818628Y-80260850D02*
X170804114Y-80318907D01*
X170804114Y-80318907D02*
X170789600Y-80347935D01*
X170789600Y-80347935D02*
X170775085Y-80362450D01*
X170775085Y-80362450D02*
X170746057Y-80376964D01*
X170746057Y-80376964D02*
X170717028Y-80376964D01*
X170717028Y-80376964D02*
X170688000Y-80362450D01*
X170688000Y-80362450D02*
X170673485Y-80347935D01*
X170673485Y-80347935D02*
X170658971Y-80318907D01*
X170658971Y-80318907D02*
X170644457Y-80260850D01*
X170644457Y-80260850D02*
X170644457Y-80188278D01*
X170644457Y-80188278D02*
X170658971Y-80130221D01*
X170658971Y-80130221D02*
X170673485Y-80101192D01*
X170673485Y-80101192D02*
X170688000Y-80086678D01*
X170688000Y-80086678D02*
X170717028Y-80072164D01*
X170920228Y-80072164D02*
X171108914Y-80072164D01*
X171108914Y-80072164D02*
X171007314Y-80188278D01*
X171007314Y-80188278D02*
X171050857Y-80188278D01*
X171050857Y-80188278D02*
X171079886Y-80202792D01*
X171079886Y-80202792D02*
X171094400Y-80217307D01*
X171094400Y-80217307D02*
X171108914Y-80246335D01*
X171108914Y-80246335D02*
X171108914Y-80318907D01*
X171108914Y-80318907D02*
X171094400Y-80347935D01*
X171094400Y-80347935D02*
X171079886Y-80362450D01*
X171079886Y-80362450D02*
X171050857Y-80376964D01*
X171050857Y-80376964D02*
X170963771Y-80376964D01*
X170963771Y-80376964D02*
X170934743Y-80362450D01*
X170934743Y-80362450D02*
X170920228Y-80347935D01*
X171239543Y-80376964D02*
X171239543Y-80072164D01*
X171239543Y-80072164D02*
X171341143Y-80289878D01*
X171341143Y-80289878D02*
X171442743Y-80072164D01*
X171442743Y-80072164D02*
X171442743Y-80376964D01*
X171733029Y-80376964D02*
X171587886Y-80376964D01*
X171587886Y-80376964D02*
X171587886Y-80072164D01*
X172008800Y-80347935D02*
X171994286Y-80362450D01*
X171994286Y-80362450D02*
X171950743Y-80376964D01*
X171950743Y-80376964D02*
X171921715Y-80376964D01*
X171921715Y-80376964D02*
X171878172Y-80362450D01*
X171878172Y-80362450D02*
X171849143Y-80333421D01*
X171849143Y-80333421D02*
X171834629Y-80304392D01*
X171834629Y-80304392D02*
X171820115Y-80246335D01*
X171820115Y-80246335D02*
X171820115Y-80202792D01*
X171820115Y-80202792D02*
X171834629Y-80144735D01*
X171834629Y-80144735D02*
X171849143Y-80115707D01*
X171849143Y-80115707D02*
X171878172Y-80086678D01*
X171878172Y-80086678D02*
X171921715Y-80072164D01*
X171921715Y-80072164D02*
X171950743Y-80072164D01*
X171950743Y-80072164D02*
X171994286Y-80086678D01*
X171994286Y-80086678D02*
X172008800Y-80101192D01*
X172139429Y-80260850D02*
X172371658Y-80260850D01*
X172574857Y-80072164D02*
X172603886Y-80072164D01*
X172603886Y-80072164D02*
X172632914Y-80086678D01*
X172632914Y-80086678D02*
X172647429Y-80101192D01*
X172647429Y-80101192D02*
X172661943Y-80130221D01*
X172661943Y-80130221D02*
X172676457Y-80188278D01*
X172676457Y-80188278D02*
X172676457Y-80260850D01*
X172676457Y-80260850D02*
X172661943Y-80318907D01*
X172661943Y-80318907D02*
X172647429Y-80347935D01*
X172647429Y-80347935D02*
X172632914Y-80362450D01*
X172632914Y-80362450D02*
X172603886Y-80376964D01*
X172603886Y-80376964D02*
X172574857Y-80376964D01*
X172574857Y-80376964D02*
X172545829Y-80362450D01*
X172545829Y-80362450D02*
X172531314Y-80347935D01*
X172531314Y-80347935D02*
X172516800Y-80318907D01*
X172516800Y-80318907D02*
X172502286Y-80260850D01*
X172502286Y-80260850D02*
X172502286Y-80188278D01*
X172502286Y-80188278D02*
X172516800Y-80130221D01*
X172516800Y-80130221D02*
X172531314Y-80101192D01*
X172531314Y-80101192D02*
X172545829Y-80086678D01*
X172545829Y-80086678D02*
X172574857Y-80072164D01*
X172952229Y-80072164D02*
X172807086Y-80072164D01*
X172807086Y-80072164D02*
X172792572Y-80217307D01*
X172792572Y-80217307D02*
X172807086Y-80202792D01*
X172807086Y-80202792D02*
X172836115Y-80188278D01*
X172836115Y-80188278D02*
X172908686Y-80188278D01*
X172908686Y-80188278D02*
X172937715Y-80202792D01*
X172937715Y-80202792D02*
X172952229Y-80217307D01*
X172952229Y-80217307D02*
X172966743Y-80246335D01*
X172966743Y-80246335D02*
X172966743Y-80318907D01*
X172966743Y-80318907D02*
X172952229Y-80347935D01*
X172952229Y-80347935D02*
X172937715Y-80362450D01*
X172937715Y-80362450D02*
X172908686Y-80376964D01*
X172908686Y-80376964D02*
X172836115Y-80376964D01*
X172836115Y-80376964D02*
X172807086Y-80362450D01*
X172807086Y-80362450D02*
X172792572Y-80347935D01*
X173097372Y-80217307D02*
X173198972Y-80217307D01*
X173242515Y-80376964D02*
X173097372Y-80376964D01*
X173097372Y-80376964D02*
X173097372Y-80072164D01*
X173097372Y-80072164D02*
X173242515Y-80072164D01*
D18*
X169717961Y-83975690D02*
X169887295Y-84483690D01*
X169887295Y-84483690D02*
X170056628Y-83975690D01*
X170516248Y-84483690D02*
X170346914Y-84241785D01*
X170225962Y-84483690D02*
X170225962Y-83975690D01*
X170225962Y-83975690D02*
X170419486Y-83975690D01*
X170419486Y-83975690D02*
X170467867Y-83999880D01*
X170467867Y-83999880D02*
X170492057Y-84024071D01*
X170492057Y-84024071D02*
X170516248Y-84072452D01*
X170516248Y-84072452D02*
X170516248Y-84145023D01*
X170516248Y-84145023D02*
X170492057Y-84193404D01*
X170492057Y-84193404D02*
X170467867Y-84217595D01*
X170467867Y-84217595D02*
X170419486Y-84241785D01*
X170419486Y-84241785D02*
X170225962Y-84241785D01*
X170709771Y-84024071D02*
X170733962Y-83999880D01*
X170733962Y-83999880D02*
X170782343Y-83975690D01*
X170782343Y-83975690D02*
X170903295Y-83975690D01*
X170903295Y-83975690D02*
X170951676Y-83999880D01*
X170951676Y-83999880D02*
X170975867Y-84024071D01*
X170975867Y-84024071D02*
X171000057Y-84072452D01*
X171000057Y-84072452D02*
X171000057Y-84120833D01*
X171000057Y-84120833D02*
X170975867Y-84193404D01*
X170975867Y-84193404D02*
X170685581Y-84483690D01*
X170685581Y-84483690D02*
X171000057Y-84483690D01*
D10*
X161710914Y-80100715D02*
X161275485Y-80100715D01*
X161493200Y-80100715D02*
X161493200Y-79338715D01*
X161493200Y-79338715D02*
X161420628Y-79447572D01*
X161420628Y-79447572D02*
X161348057Y-79520144D01*
X161348057Y-79520144D02*
X161275485Y-79556430D01*
X162182628Y-79338715D02*
X162255199Y-79338715D01*
X162255199Y-79338715D02*
X162327771Y-79375001D01*
X162327771Y-79375001D02*
X162364057Y-79411287D01*
X162364057Y-79411287D02*
X162400342Y-79483858D01*
X162400342Y-79483858D02*
X162436628Y-79629001D01*
X162436628Y-79629001D02*
X162436628Y-79810430D01*
X162436628Y-79810430D02*
X162400342Y-79955572D01*
X162400342Y-79955572D02*
X162364057Y-80028144D01*
X162364057Y-80028144D02*
X162327771Y-80064430D01*
X162327771Y-80064430D02*
X162255199Y-80100715D01*
X162255199Y-80100715D02*
X162182628Y-80100715D01*
X162182628Y-80100715D02*
X162110057Y-80064430D01*
X162110057Y-80064430D02*
X162073771Y-80028144D01*
X162073771Y-80028144D02*
X162037485Y-79955572D01*
X162037485Y-79955572D02*
X162001199Y-79810430D01*
X162001199Y-79810430D02*
X162001199Y-79629001D01*
X162001199Y-79629001D02*
X162037485Y-79483858D01*
X162037485Y-79483858D02*
X162073771Y-79411287D01*
X162073771Y-79411287D02*
X162110057Y-79375001D01*
X162110057Y-79375001D02*
X162182628Y-79338715D01*
X162908342Y-79338715D02*
X162980913Y-79338715D01*
X162980913Y-79338715D02*
X163053485Y-79375001D01*
X163053485Y-79375001D02*
X163089771Y-79411287D01*
X163089771Y-79411287D02*
X163126056Y-79483858D01*
X163126056Y-79483858D02*
X163162342Y-79629001D01*
X163162342Y-79629001D02*
X163162342Y-79810430D01*
X163162342Y-79810430D02*
X163126056Y-79955572D01*
X163126056Y-79955572D02*
X163089771Y-80028144D01*
X163089771Y-80028144D02*
X163053485Y-80064430D01*
X163053485Y-80064430D02*
X162980913Y-80100715D01*
X162980913Y-80100715D02*
X162908342Y-80100715D01*
X162908342Y-80100715D02*
X162835771Y-80064430D01*
X162835771Y-80064430D02*
X162799485Y-80028144D01*
X162799485Y-80028144D02*
X162763199Y-79955572D01*
X162763199Y-79955572D02*
X162726913Y-79810430D01*
X162726913Y-79810430D02*
X162726913Y-79629001D01*
X162726913Y-79629001D02*
X162763199Y-79483858D01*
X162763199Y-79483858D02*
X162799485Y-79411287D01*
X162799485Y-79411287D02*
X162835771Y-79375001D01*
X162835771Y-79375001D02*
X162908342Y-79338715D01*
X163488913Y-79592715D02*
X163488913Y-80100715D01*
X163488913Y-79665287D02*
X163525199Y-79629001D01*
X163525199Y-79629001D02*
X163597770Y-79592715D01*
X163597770Y-79592715D02*
X163706627Y-79592715D01*
X163706627Y-79592715D02*
X163779199Y-79629001D01*
X163779199Y-79629001D02*
X163815485Y-79701572D01*
X163815485Y-79701572D02*
X163815485Y-80100715D01*
X164432342Y-79701572D02*
X164178342Y-79701572D01*
X164178342Y-80100715D02*
X164178342Y-79338715D01*
X164178342Y-79338715D02*
X164541199Y-79338715D01*
D11*
X162298866Y-82246930D02*
X162275057Y-82270740D01*
X162275057Y-82270740D02*
X162203628Y-82294549D01*
X162203628Y-82294549D02*
X162156009Y-82294549D01*
X162156009Y-82294549D02*
X162084581Y-82270740D01*
X162084581Y-82270740D02*
X162036962Y-82223120D01*
X162036962Y-82223120D02*
X162013152Y-82175501D01*
X162013152Y-82175501D02*
X161989343Y-82080263D01*
X161989343Y-82080263D02*
X161989343Y-82008835D01*
X161989343Y-82008835D02*
X162013152Y-81913597D01*
X162013152Y-81913597D02*
X162036962Y-81865978D01*
X162036962Y-81865978D02*
X162084581Y-81818359D01*
X162084581Y-81818359D02*
X162156009Y-81794549D01*
X162156009Y-81794549D02*
X162203628Y-81794549D01*
X162203628Y-81794549D02*
X162275057Y-81818359D01*
X162275057Y-81818359D02*
X162298866Y-81842168D01*
X162727438Y-81794549D02*
X162632200Y-81794549D01*
X162632200Y-81794549D02*
X162584581Y-81818359D01*
X162584581Y-81818359D02*
X162560771Y-81842168D01*
X162560771Y-81842168D02*
X162513152Y-81913597D01*
X162513152Y-81913597D02*
X162489343Y-82008835D01*
X162489343Y-82008835D02*
X162489343Y-82199311D01*
X162489343Y-82199311D02*
X162513152Y-82246930D01*
X162513152Y-82246930D02*
X162536962Y-82270740D01*
X162536962Y-82270740D02*
X162584581Y-82294549D01*
X162584581Y-82294549D02*
X162679819Y-82294549D01*
X162679819Y-82294549D02*
X162727438Y-82270740D01*
X162727438Y-82270740D02*
X162751247Y-82246930D01*
X162751247Y-82246930D02*
X162775057Y-82199311D01*
X162775057Y-82199311D02*
X162775057Y-82080263D01*
X162775057Y-82080263D02*
X162751247Y-82032644D01*
X162751247Y-82032644D02*
X162727438Y-82008835D01*
X162727438Y-82008835D02*
X162679819Y-81985025D01*
X162679819Y-81985025D02*
X162584581Y-81985025D01*
X162584581Y-81985025D02*
X162536962Y-82008835D01*
X162536962Y-82008835D02*
X162513152Y-82032644D01*
X162513152Y-82032644D02*
X162489343Y-82080263D01*
D19*
%TO.C,C1*%
X126685400Y-91744400D02*
X126685400Y-99044400D01*
X127685400Y-90744400D02*
X126685400Y-91744400D01*
X132335400Y-91332122D02*
X132335400Y-92132122D01*
X132735400Y-91732122D02*
X131935400Y-91732122D01*
X133985400Y-90744400D02*
X127685400Y-90744400D01*
X133985400Y-90744400D02*
X134985400Y-91744400D01*
X134985400Y-91744400D02*
X134985400Y-99044400D01*
X134985400Y-99044400D02*
X126685400Y-99044400D01*
X134835400Y-94894400D02*
G75*
G02*
X126835400Y-94894400I-4000000J0D01*
G01*
X126835400Y-94894400D02*
G75*
G02*
X134835400Y-94894400I4000000J0D01*
G01*
%TO.C,C2*%
X122000000Y-90300000D02*
X124000000Y-90300000D01*
X122000000Y-91500000D02*
X122000000Y-90300000D01*
X124000000Y-90300000D02*
X124000000Y-91500000D01*
X124000000Y-91500000D02*
X122000000Y-91500000D01*
%TO.C,C3*%
X161660000Y-74116000D02*
X162860000Y-74116000D01*
X161660000Y-76116000D02*
X161660000Y-74116000D01*
X162860000Y-74116000D02*
X162860000Y-76116000D01*
X162860000Y-76116000D02*
X161660000Y-76116000D01*
%TO.C,C4*%
X155310000Y-74116000D02*
X156510000Y-74116000D01*
X155310000Y-76116000D02*
X155310000Y-74116000D01*
X156510000Y-74116000D02*
X156510000Y-76116000D01*
X156510000Y-76116000D02*
X155310000Y-76116000D01*
%TO.C,C5*%
X162722000Y-88154000D02*
X163922000Y-88154000D01*
X162722000Y-90154000D02*
X162722000Y-88154000D01*
X163922000Y-88154000D02*
X163922000Y-90154000D01*
X163922000Y-90154000D02*
X162722000Y-90154000D01*
%TO.C,C7*%
X152974800Y-78267000D02*
X154974800Y-78267000D01*
X152974800Y-79467000D02*
X152974800Y-78267000D01*
X154974800Y-78267000D02*
X154974800Y-79467000D01*
X154974800Y-79467000D02*
X152974800Y-79467000D01*
%TO.C,C8*%
X144154600Y-77968600D02*
X145354600Y-77968600D01*
X144154600Y-79968600D02*
X144154600Y-77968600D01*
X145354600Y-77968600D02*
X145354600Y-79968600D01*
X145354600Y-79968600D02*
X144154600Y-79968600D01*
%TO.C,D1*%
X162014000Y-95174000D02*
X162014000Y-97974000D01*
X162014000Y-97974000D02*
X162414000Y-98374000D01*
X162414000Y-98374000D02*
X163614000Y-98374000D01*
X163614000Y-95174000D02*
X162014000Y-95174000D01*
X163614000Y-98374000D02*
X163614000Y-95174000D01*
%TO.C,D2*%
X146720000Y-73950000D02*
X146720000Y-75650000D01*
X146720000Y-75650000D02*
X147020000Y-75950000D01*
X147020000Y-75950000D02*
X147920000Y-75950000D01*
X147920000Y-73950000D02*
X146720000Y-73950000D01*
X147920000Y-75950000D02*
X147920000Y-73950000D01*
%TO.C,D3*%
X144180000Y-73950000D02*
X144180000Y-75650000D01*
X144180000Y-75650000D02*
X144480000Y-75950000D01*
X144480000Y-75950000D02*
X145380000Y-75950000D01*
X145380000Y-73950000D02*
X144180000Y-73950000D01*
X145380000Y-75950000D02*
X145380000Y-73950000D01*
%TO.C,F1*%
X165644000Y-75616000D02*
X170144000Y-75616000D01*
X165644000Y-78816000D02*
X165644000Y-75616000D01*
X170144000Y-75616000D02*
X170144000Y-78816000D01*
X170144000Y-78816000D02*
X165644000Y-78816000D01*
%TO.C,FB1*%
X166894000Y-90078000D02*
X168894000Y-90078000D01*
X166894000Y-91278000D02*
X166894000Y-90078000D01*
X168894000Y-90078000D02*
X168894000Y-91278000D01*
X168894000Y-91278000D02*
X166894000Y-91278000D01*
%TO.C,FID1*%
X170168000Y-70612000D02*
G75*
G02*
X168668000Y-70612000I-750000J0D01*
G01*
X168668000Y-70612000D02*
G75*
G02*
X170168000Y-70612000I750000J0D01*
G01*
%TO.C,FID2*%
X172454000Y-97282000D02*
G75*
G02*
X170954000Y-97282000I-750000J0D01*
G01*
X170954000Y-97282000D02*
G75*
G02*
X172454000Y-97282000I750000J0D01*
G01*
%TO.C,FID3*%
X130747200Y-70078600D02*
G75*
G02*
X129247200Y-70078600I-750000J0D01*
G01*
X129247200Y-70078600D02*
G75*
G02*
X130747200Y-70078600I750000J0D01*
G01*
%TO.C,FID4*%
X137960800Y-98171000D02*
G75*
G02*
X136460800Y-98171000I-750000J0D01*
G01*
X136460800Y-98171000D02*
G75*
G02*
X137960800Y-98171000I750000J0D01*
G01*
%TO.C,J1*%
X118100000Y-76750000D02*
X122100000Y-76750000D01*
X118100000Y-85650000D02*
X118100000Y-76750000D01*
X118100000Y-85650000D02*
X132800000Y-85650000D01*
X122100000Y-76750000D02*
X123100000Y-77700000D01*
X123100000Y-77700000D02*
X124100000Y-76750000D01*
X124100000Y-76750000D02*
X132800000Y-76750000D01*
X132800000Y-85650000D02*
X132800000Y-76750000D01*
%TO.C,J3*%
X135030000Y-68070000D02*
X137570000Y-68070000D01*
X135030000Y-80770000D02*
X135030000Y-68070000D01*
X136935000Y-80770000D02*
X135030000Y-80770000D01*
X137570000Y-68070000D02*
X137570000Y-80135000D01*
X137570000Y-80135000D02*
X136935000Y-80770000D01*
%TO.C,J4*%
X150622000Y-95250000D02*
X151892000Y-93980000D01*
X150622000Y-99060000D02*
X150622000Y-95250000D01*
X151892000Y-93980000D02*
X155702000Y-93980000D01*
X155702000Y-93980000D02*
X155702000Y-99060000D01*
X155702000Y-99060000D02*
X150622000Y-99060000D01*
%TO.C,J5*%
X139852400Y-93954600D02*
X147472400Y-93954600D01*
X139852400Y-97764600D02*
X139852400Y-93954600D01*
X141122400Y-99034600D02*
X139852400Y-97764600D01*
X147472400Y-93954600D02*
X147472400Y-99034600D01*
X147472400Y-99034600D02*
X141122400Y-99034600D01*
%TO.C,J6*%
X139700000Y-76581000D02*
X140335000Y-75946000D01*
X139700000Y-91186000D02*
X139700000Y-76581000D01*
X140335000Y-75946000D02*
X142240000Y-75946000D01*
X142240000Y-75946000D02*
X142240000Y-91186000D01*
X142240000Y-91186000D02*
X139700000Y-91186000D01*
%TO.C,R1*%
X165370000Y-85506000D02*
X167370000Y-85506000D01*
X165370000Y-86706000D02*
X165370000Y-85506000D01*
X167370000Y-85506000D02*
X167370000Y-86706000D01*
X167370000Y-86706000D02*
X165370000Y-86706000D01*
%TO.C,R2*%
X165370000Y-83220000D02*
X167370000Y-83220000D01*
X165370000Y-84420000D02*
X165370000Y-83220000D01*
X167370000Y-83220000D02*
X167370000Y-84420000D01*
X167370000Y-84420000D02*
X165370000Y-84420000D01*
%TO.C,R3*%
X157958000Y-75278000D02*
X159958000Y-75278000D01*
X157958000Y-76478000D02*
X157958000Y-75278000D01*
X159958000Y-75278000D02*
X159958000Y-76478000D01*
X159958000Y-76478000D02*
X157958000Y-76478000D01*
%TO.C,R4*%
X158404000Y-94758000D02*
X159604000Y-94758000D01*
X158404000Y-96758000D02*
X158404000Y-94758000D01*
X159604000Y-94758000D02*
X159604000Y-96758000D01*
X159604000Y-96758000D02*
X158404000Y-96758000D01*
%TO.C,R5*%
X144154600Y-81804000D02*
X145354600Y-81804000D01*
X144154600Y-83804000D02*
X144154600Y-81804000D01*
X145354600Y-81804000D02*
X145354600Y-83804000D01*
X145354600Y-83804000D02*
X144154600Y-83804000D01*
%TO.C,R6*%
X146720000Y-69174800D02*
X147920000Y-69174800D01*
X146720000Y-71174800D02*
X146720000Y-69174800D01*
X147920000Y-69174800D02*
X147920000Y-71174800D01*
X147920000Y-71174800D02*
X146720000Y-71174800D01*
%TO.C,R7*%
X144180000Y-69174800D02*
X145380000Y-69174800D01*
X144180000Y-71174800D02*
X144180000Y-69174800D01*
X145380000Y-69174800D02*
X145380000Y-71174800D01*
X145380000Y-71174800D02*
X144180000Y-71174800D01*
%TO.C,VR1*%
X170034000Y-86550500D02*
X170834000Y-86550500D01*
X170034000Y-88150500D02*
X170034000Y-86550500D01*
X170834000Y-86550500D02*
X170834000Y-88150500D01*
X170834000Y-88150500D02*
X170034000Y-88150500D01*
%TO.C,Y1*%
X156427800Y-68627800D02*
X156627800Y-68427800D01*
X156427800Y-71427800D02*
X156427800Y-68627800D01*
X156627800Y-68427800D02*
X161227800Y-68427800D01*
X156627800Y-71627800D02*
X156427800Y-71427800D01*
X161227800Y-68427800D02*
X161427800Y-68627800D01*
X161227800Y-71627800D02*
X156627800Y-71627800D01*
X161427800Y-68627800D02*
X161427800Y-71427800D01*
X161427800Y-69427800D02*
X160427800Y-68427800D01*
X161427800Y-71427800D02*
X161227800Y-71627800D01*
%TO.C,J2*%
X172242000Y-76784000D02*
X188642000Y-76784000D01*
X172242000Y-82024000D02*
X172732000Y-81534000D01*
X172242000Y-88784000D02*
X172242000Y-76784000D01*
X172732000Y-81534000D02*
X172242000Y-81044000D01*
X188642000Y-76784000D02*
X188642000Y-88784000D01*
X188642000Y-88784000D02*
X172242000Y-88784000D01*
D10*
%TO.C,U1*%
X150932000Y-82352000D02*
X156932000Y-82352000D01*
X150932000Y-89352000D02*
X150932000Y-82352000D01*
X156932000Y-82352000D02*
X157932000Y-83352000D01*
X157932000Y-83352000D02*
X157932000Y-89352000D01*
X157932000Y-89352000D02*
X150932000Y-89352000D01*
D19*
%TO.C,VR2*%
X170034000Y-81521400D02*
X170834000Y-81521400D01*
X170034000Y-83121400D02*
X170034000Y-81521400D01*
X170834000Y-81521400D02*
X170834000Y-83121400D01*
X170834000Y-83121400D02*
X170034000Y-83121400D01*
%TO.C,C6*%
X161782200Y-81067400D02*
X162982200Y-81067400D01*
X161782200Y-83067400D02*
X161782200Y-81067400D01*
X162982200Y-81067400D02*
X162982200Y-83067400D01*
X162982200Y-83067400D02*
X161782200Y-83067400D01*
%TD*%
M02*
