%TF.GenerationSoftware,KiCad,Pcbnew,6.0.9+dfsg-1~bpo11+1*%
%TF.CreationDate,2022-12-04T00:02:59+00:00*%
%TF.ProjectId,t1,74312e6b-6963-4616-945f-706362585858,${git_hash}*%
%TF.SameCoordinates,Original*%
%TF.FileFunction,Copper,L1,Top*%
%TF.FilePolarity,Positive*%
%FSLAX46Y46*%
G04 Gerber Fmt 4.6, Leading zero omitted, Abs format (unit mm)*
G04 Created by KiCad (PCBNEW 6.0.9+dfsg-1~bpo11+1) date 2022-12-04 00:02:59*
%MOMM*%
%LPD*%
G01*
G04 APERTURE LIST*
G04 Aperture macros list*
%AMRoundRect*
0 Rectangle with rounded corners*
0 $1 Rounding radius*
0 $2 $3 $4 $5 $6 $7 $8 $9 X,Y pos of 4 corners*
0 Add a 4 corners polygon primitive as box body*
4,1,4,$2,$3,$4,$5,$6,$7,$8,$9,$2,$3,0*
0 Add four circle primitives for the rounded corners*
1,1,$1+$1,$2,$3*
1,1,$1+$1,$4,$5*
1,1,$1+$1,$6,$7*
1,1,$1+$1,$8,$9*
0 Add four rect primitives between the rounded corners*
20,1,$1+$1,$2,$3,$4,$5,0*
20,1,$1+$1,$4,$5,$6,$7,0*
20,1,$1+$1,$6,$7,$8,$9,0*
20,1,$1+$1,$8,$9,$2,$3,0*%
%AMFreePoly0*
4,1,22,0.500000,-0.750000,0.000000,-0.750000,0.000000,-0.745033,-0.079941,-0.743568,-0.215256,-0.701293,-0.333266,-0.622738,-0.424486,-0.514219,-0.481581,-0.384460,-0.499164,-0.250000,-0.500000,-0.250000,-0.500000,0.250000,-0.499164,0.250000,-0.499963,0.256109,-0.478152,0.396186,-0.417904,0.524511,-0.324060,0.630769,-0.204165,0.706417,-0.067858,0.745374,0.000000,0.744959,0.000000,0.750000,
0.500000,0.750000,0.500000,-0.750000,0.500000,-0.750000,$1*%
%AMFreePoly1*
4,1,20,0.000000,0.744959,0.073905,0.744508,0.209726,0.703889,0.328688,0.626782,0.421226,0.519385,0.479903,0.390333,0.500000,0.250000,0.500000,-0.250000,0.499851,-0.262216,0.476331,-0.402017,0.414519,-0.529596,0.319384,-0.634700,0.198574,-0.708877,0.061801,-0.746166,0.000000,-0.745033,0.000000,-0.750000,-0.500000,-0.750000,-0.500000,0.750000,0.000000,0.750000,0.000000,0.744959,
0.000000,0.744959,$1*%
G04 Aperture macros list end*
%TA.AperFunction,SMDPad,CuDef*%
%ADD10RoundRect,0.250000X-1.000000X1.500000X-1.000000X-1.500000X1.000000X-1.500000X1.000000X1.500000X0*%
%TD*%
%TA.AperFunction,SMDPad,CuDef*%
%ADD11RoundRect,0.243750X-0.243750X-0.456250X0.243750X-0.456250X0.243750X0.456250X-0.243750X0.456250X0*%
%TD*%
%TA.AperFunction,SMDPad,CuDef*%
%ADD12RoundRect,0.243750X-0.456250X0.243750X-0.456250X-0.243750X0.456250X-0.243750X0.456250X0.243750X0*%
%TD*%
%TA.AperFunction,SMDPad,CuDef*%
%ADD13RoundRect,0.243750X0.456250X-0.243750X0.456250X0.243750X-0.456250X0.243750X-0.456250X-0.243750X0*%
%TD*%
%TA.AperFunction,SMDPad,CuDef*%
%ADD14RoundRect,0.250000X0.625000X-0.375000X0.625000X0.375000X-0.625000X0.375000X-0.625000X-0.375000X0*%
%TD*%
%TA.AperFunction,SMDPad,CuDef*%
%ADD15RoundRect,0.250000X-0.312500X-1.450000X0.312500X-1.450000X0.312500X1.450000X-0.312500X1.450000X0*%
%TD*%
%TA.AperFunction,SMDPad,CuDef*%
%ADD16RoundRect,0.243750X0.243750X0.456250X-0.243750X0.456250X-0.243750X-0.456250X0.243750X-0.456250X0*%
%TD*%
%TA.AperFunction,SMDPad,CuDef*%
%ADD17C,0.750000*%
%TD*%
%TA.AperFunction,SMDPad,CuDef*%
%ADD18R,2.000000X3.000000*%
%TD*%
%TA.AperFunction,ComponentPad*%
%ADD19R,1.700000X1.700000*%
%TD*%
%TA.AperFunction,ComponentPad*%
%ADD20O,1.700000X1.700000*%
%TD*%
%TA.AperFunction,SMDPad,CuDef*%
%ADD21FreePoly0,270.000000*%
%TD*%
%TA.AperFunction,SMDPad,CuDef*%
%ADD22FreePoly1,270.000000*%
%TD*%
%TA.AperFunction,SMDPad,CuDef*%
%ADD23RoundRect,0.218750X-0.256250X0.218750X-0.256250X-0.218750X0.256250X-0.218750X0.256250X0.218750X0*%
%TD*%
%TA.AperFunction,SMDPad,CuDef*%
%ADD24R,1.900000X2.400000*%
%TD*%
%TA.AperFunction,ComponentPad*%
%ADD25R,1.600000X1.600000*%
%TD*%
%TA.AperFunction,ComponentPad*%
%ADD26C,1.600000*%
%TD*%
%TA.AperFunction,ComponentPad*%
%ADD27C,4.000000*%
%TD*%
%TA.AperFunction,SMDPad,CuDef*%
%ADD28R,0.550000X1.600000*%
%TD*%
%TA.AperFunction,SMDPad,CuDef*%
%ADD29R,1.600000X0.550000*%
%TD*%
%TA.AperFunction,SMDPad,CuDef*%
%ADD30RoundRect,0.218750X0.256250X-0.218750X0.256250X0.218750X-0.256250X0.218750X-0.256250X-0.218750X0*%
%TD*%
%TA.AperFunction,ViaPad*%
%ADD31C,0.800000*%
%TD*%
%TA.AperFunction,Conductor*%
%ADD32C,0.508000*%
%TD*%
%TA.AperFunction,Conductor*%
%ADD33C,0.381000*%
%TD*%
G04 APERTURE END LIST*
D10*
%TO.P,C1,1*%
%TO.N,+5V*%
X130835400Y-91644400D03*
%TO.P,C1,2*%
%TO.N,GND*%
X130835400Y-98144400D03*
%TD*%
D11*
%TO.P,C2,1*%
%TO.N,+5V*%
X122062500Y-90900000D03*
%TO.P,C2,2*%
%TO.N,GND*%
X123937500Y-90900000D03*
%TD*%
D12*
%TO.P,C3,1*%
%TO.N,Net-(C3-Pad1)*%
X162260000Y-74178500D03*
%TO.P,C3,2*%
%TO.N,GND*%
X162260000Y-76053500D03*
%TD*%
%TO.P,C4,1*%
%TO.N,Net-(C4-Pad1)*%
X155910000Y-74178500D03*
%TO.P,C4,2*%
%TO.N,GND*%
X155910000Y-76053500D03*
%TD*%
%TO.P,C5,1*%
%TO.N,Net-(C5-Pad1)*%
X163322000Y-88216500D03*
%TO.P,C5,2*%
%TO.N,Earth*%
X163322000Y-90091500D03*
%TD*%
D11*
%TO.P,C7,1*%
%TO.N,+5V*%
X153037300Y-78867000D03*
%TO.P,C7,2*%
%TO.N,GND*%
X154912300Y-78867000D03*
%TD*%
D13*
%TO.P,C8,1*%
%TO.N,/DTR*%
X144754600Y-79906100D03*
%TO.P,C8,2*%
%TO.N,Net-(C8-Pad2)*%
X144754600Y-78031100D03*
%TD*%
D14*
%TO.P,D1,1*%
%TO.N,+5V*%
X162814000Y-98174000D03*
%TO.P,D1,2*%
%TO.N,/RESET2*%
X162814000Y-95374000D03*
%TD*%
D13*
%TO.P,D2,1*%
%TO.N,/RXLED*%
X147320000Y-75887500D03*
%TO.P,D2,2*%
%TO.N,Net-(D2-Pad2)*%
X147320000Y-74012500D03*
%TD*%
%TO.P,D3,1*%
%TO.N,/TXLED*%
X144780000Y-75887500D03*
%TO.P,D3,2*%
%TO.N,Net-(D3-Pad2)*%
X144780000Y-74012500D03*
%TD*%
D15*
%TO.P,F1,1*%
%TO.N,VBUS*%
X165756500Y-77216000D03*
%TO.P,F1,2*%
%TO.N,Net-(F1-Pad2)*%
X170031500Y-77216000D03*
%TD*%
D16*
%TO.P,FB1,1*%
%TO.N,Net-(FB1-Pad1)*%
X168831500Y-90678000D03*
%TO.P,FB1,2*%
%TO.N,Earth*%
X166956500Y-90678000D03*
%TD*%
D17*
%TO.P,FID1,*%
%TO.N,*%
X169418000Y-70612000D03*
%TD*%
%TO.P,FID2,*%
%TO.N,*%
X171704000Y-97282000D03*
%TD*%
%TO.P,FID3,*%
%TO.N,*%
X129997200Y-70078600D03*
%TD*%
%TO.P,FID4,*%
%TO.N,*%
X137210800Y-98171000D03*
%TD*%
D18*
%TO.P,J1,1*%
%TO.N,GND*%
X123100000Y-75700000D03*
X129100000Y-75700000D03*
%TO.P,J1,2*%
%TO.N,+5V*%
X129100000Y-86700000D03*
%TO.P,J1,3*%
X123100000Y-86700000D03*
%TD*%
D19*
%TO.P,J3,1*%
%TO.N,Net-(J3-Pad1)*%
X136300000Y-79500000D03*
D20*
%TO.P,J3,2*%
%TO.N,Net-(J3-Pad2)*%
X136300000Y-76960000D03*
%TO.P,J3,3*%
%TO.N,Net-(J3-Pad3)*%
X136300000Y-74420000D03*
%TO.P,J3,4*%
%TO.N,Net-(J3-Pad4)*%
X136300000Y-71880000D03*
%TO.P,J3,5*%
%TO.N,Net-(J3-Pad5)*%
X136300000Y-69340000D03*
%TD*%
D19*
%TO.P,J4,1*%
%TO.N,Net-(J4-Pad1)*%
X151892000Y-95250000D03*
D20*
%TO.P,J4,2*%
%TO.N,Net-(J4-Pad2)*%
X154432000Y-95250000D03*
%TO.P,J4,3*%
%TO.N,Net-(J4-Pad3)*%
X151892000Y-97790000D03*
%TO.P,J4,4*%
%TO.N,Net-(J4-Pad4)*%
X154432000Y-97790000D03*
%TD*%
D19*
%TO.P,J5,1*%
%TO.N,/MISO2*%
X141122400Y-97764600D03*
D20*
%TO.P,J5,2*%
%TO.N,+5V*%
X141122400Y-95224600D03*
%TO.P,J5,3*%
%TO.N,/SCK2*%
X143662400Y-97764600D03*
%TO.P,J5,4*%
%TO.N,/MOSI2*%
X143662400Y-95224600D03*
%TO.P,J5,5*%
%TO.N,/RESET2*%
X146202400Y-97764600D03*
%TO.P,J5,6*%
%TO.N,GND*%
X146202400Y-95224600D03*
%TD*%
D19*
%TO.P,J6,1*%
%TO.N,Net-(C8-Pad2)*%
X140970000Y-77216000D03*
D20*
%TO.P,J6,2*%
%TO.N,Net-(J6-Pad2)*%
X140970000Y-79756000D03*
%TO.P,J6,3*%
%TO.N,Net-(J6-Pad3)*%
X140970000Y-82296000D03*
%TO.P,J6,4*%
%TO.N,Net-(J6-Pad4)*%
X140970000Y-84836000D03*
%TO.P,J6,5*%
%TO.N,Net-(J6-Pad5)*%
X140970000Y-87376000D03*
%TO.P,J6,6*%
%TO.N,Net-(J6-Pad6)*%
X140970000Y-89916000D03*
%TD*%
D21*
%TO.P,JP1,1*%
%TO.N,Earth*%
X167259000Y-95133400D03*
D22*
%TO.P,JP1,2*%
%TO.N,GND*%
X167259000Y-96433400D03*
%TD*%
D11*
%TO.P,R1,1*%
%TO.N,Net-(R1-Pad1)*%
X165432500Y-86106000D03*
%TO.P,R1,2*%
%TO.N,Net-(J2-Pad3)*%
X167307500Y-86106000D03*
%TD*%
%TO.P,R2,1*%
%TO.N,Net-(R2-Pad1)*%
X165432500Y-83820000D03*
%TO.P,R2,2*%
%TO.N,Net-(J2-Pad2)*%
X167307500Y-83820000D03*
%TD*%
D16*
%TO.P,R3,1*%
%TO.N,Net-(C3-Pad1)*%
X159895500Y-75878000D03*
%TO.P,R3,2*%
%TO.N,Net-(C4-Pad1)*%
X158020500Y-75878000D03*
%TD*%
D13*
%TO.P,R4,1*%
%TO.N,+5V*%
X159004000Y-96695500D03*
%TO.P,R4,2*%
%TO.N,/RESET2*%
X159004000Y-94820500D03*
%TD*%
D12*
%TO.P,R5,1*%
%TO.N,/DTR*%
X144754600Y-81866500D03*
%TO.P,R5,2*%
%TO.N,GND*%
X144754600Y-83741500D03*
%TD*%
%TO.P,R6,1*%
%TO.N,+5V*%
X147320000Y-69237300D03*
%TO.P,R6,2*%
%TO.N,Net-(D2-Pad2)*%
X147320000Y-71112300D03*
%TD*%
%TO.P,R7,1*%
%TO.N,+5V*%
X144780000Y-69237300D03*
%TO.P,R7,2*%
%TO.N,Net-(D3-Pad2)*%
X144780000Y-71112300D03*
%TD*%
D23*
%TO.P,VR1,1*%
%TO.N,Net-(J2-Pad3)*%
X170434000Y-86563000D03*
%TO.P,VR1,2*%
%TO.N,Net-(FB1-Pad1)*%
X170434000Y-88138000D03*
%TD*%
D24*
%TO.P,Y1,1*%
%TO.N,Net-(C3-Pad1)*%
X160977800Y-70027800D03*
%TO.P,Y1,2*%
%TO.N,Net-(C4-Pad1)*%
X156877800Y-70027800D03*
%TD*%
D25*
%TO.P,J2,1*%
%TO.N,Net-(F1-Pad2)*%
X173482000Y-81534000D03*
D26*
%TO.P,J2,2*%
%TO.N,Net-(J2-Pad2)*%
X173482000Y-84034000D03*
%TO.P,J2,3*%
%TO.N,Net-(J2-Pad3)*%
X175482000Y-84034000D03*
%TO.P,J2,4*%
%TO.N,Earth*%
X175482000Y-81534000D03*
D27*
%TO.P,J2,5*%
%TO.N,Net-(FB1-Pad1)*%
X178342000Y-76784000D03*
X178342000Y-88784000D03*
%TD*%
D28*
%TO.P,U1,1*%
%TO.N,Net-(C3-Pad1)*%
X157232000Y-81602000D03*
%TO.P,U1,2*%
%TO.N,Net-(C4-Pad1)*%
X156432000Y-81602000D03*
%TO.P,U1,3*%
%TO.N,GND*%
X155632000Y-81602000D03*
%TO.P,U1,4*%
%TO.N,+5V*%
X154832000Y-81602000D03*
%TO.P,U1,5*%
%TO.N,Net-(J3-Pad5)*%
X154032000Y-81602000D03*
%TO.P,U1,6*%
%TO.N,Net-(J6-Pad6)*%
X153232000Y-81602000D03*
%TO.P,U1,7*%
%TO.N,Net-(J6-Pad5)*%
X152432000Y-81602000D03*
%TO.P,U1,8*%
%TO.N,Net-(J6-Pad4)*%
X151632000Y-81602000D03*
D29*
%TO.P,U1,9*%
%TO.N,Net-(J6-Pad3)*%
X150182000Y-83052000D03*
%TO.P,U1,10*%
%TO.N,/RXLED*%
X150182000Y-83852000D03*
%TO.P,U1,11*%
%TO.N,/TXLED*%
X150182000Y-84652000D03*
%TO.P,U1,12*%
%TO.N,Net-(J6-Pad2)*%
X150182000Y-85452000D03*
%TO.P,U1,13*%
%TO.N,/DTR*%
X150182000Y-86252000D03*
%TO.P,U1,14*%
%TO.N,Net-(U1-Pad14)*%
X150182000Y-87052000D03*
%TO.P,U1,15*%
%TO.N,/SCK2*%
X150182000Y-87852000D03*
%TO.P,U1,16*%
%TO.N,/MOSI2*%
X150182000Y-88652000D03*
D28*
%TO.P,U1,17*%
%TO.N,/MISO2*%
X151632000Y-90102000D03*
%TO.P,U1,18*%
%TO.N,Net-(J4-Pad1)*%
X152432000Y-90102000D03*
%TO.P,U1,19*%
%TO.N,Net-(J4-Pad3)*%
X153232000Y-90102000D03*
%TO.P,U1,20*%
%TO.N,Net-(J4-Pad2)*%
X154032000Y-90102000D03*
%TO.P,U1,21*%
%TO.N,Net-(J4-Pad4)*%
X154832000Y-90102000D03*
%TO.P,U1,22*%
%TO.N,Net-(J3-Pad1)*%
X155632000Y-90102000D03*
%TO.P,U1,23*%
%TO.N,Net-(J3-Pad2)*%
X156432000Y-90102000D03*
%TO.P,U1,24*%
%TO.N,/RESET2*%
X157232000Y-90102000D03*
D29*
%TO.P,U1,25*%
%TO.N,Net-(J3-Pad3)*%
X158682000Y-88652000D03*
%TO.P,U1,26*%
%TO.N,Net-(J3-Pad4)*%
X158682000Y-87852000D03*
%TO.P,U1,27*%
%TO.N,Net-(C5-Pad1)*%
X158682000Y-87052000D03*
%TO.P,U1,28*%
%TO.N,Earth*%
X158682000Y-86252000D03*
%TO.P,U1,29*%
%TO.N,Net-(R1-Pad1)*%
X158682000Y-85452000D03*
%TO.P,U1,30*%
%TO.N,Net-(R2-Pad1)*%
X158682000Y-84652000D03*
%TO.P,U1,31*%
%TO.N,VBUS*%
X158682000Y-83852000D03*
%TO.P,U1,32*%
%TO.N,+5V*%
X158682000Y-83052000D03*
%TD*%
D30*
%TO.P,VR2,1*%
%TO.N,Net-(J2-Pad2)*%
X170434000Y-83108900D03*
%TO.P,VR2,2*%
%TO.N,Net-(FB1-Pad1)*%
X170434000Y-81533900D03*
%TD*%
D13*
%TO.P,C6,1*%
%TO.N,VBUS*%
X162382200Y-83004900D03*
%TO.P,C6,2*%
%TO.N,Earth*%
X162382200Y-81129900D03*
%TD*%
D31*
%TO.N,GND*%
X154355800Y-75793600D03*
X123113800Y-73329800D03*
X129108200Y-77952600D03*
X167259000Y-97942400D03*
X155676600Y-83058000D03*
X163830000Y-76758800D03*
X125349000Y-90906600D03*
X130810000Y-95351600D03*
X129082800Y-73380600D03*
X144830800Y-85064600D03*
X123088400Y-78130400D03*
%TO.N,+5V*%
X159842200Y-98602800D03*
X154533600Y-83286600D03*
X146024600Y-69240400D03*
X159181800Y-81965800D03*
X130835400Y-88900000D03*
X129108200Y-84302600D03*
X121564400Y-89331800D03*
X123139200Y-84404200D03*
%TO.N,Net-(C3-Pad1)*%
X162763200Y-70002400D03*
%TO.N,Net-(C4-Pad1)*%
X155041600Y-70078600D03*
%TO.N,Earth*%
X160680400Y-81153000D03*
X166878000Y-88773000D03*
X160553400Y-86233000D03*
X167233600Y-93522800D03*
X165049200Y-90449400D03*
%TO.N,VBUS*%
X165735000Y-80162400D03*
%TO.N,Net-(FB1-Pad1)*%
X170459400Y-80416400D03*
X172389800Y-88138000D03*
X170561000Y-90678000D03*
%TO.N,Net-(J3-Pad4)*%
X156895800Y-87553800D03*
%TO.N,Net-(J3-Pad3)*%
X156159200Y-88392000D03*
%TO.N,Net-(J3-Pad2)*%
X156286200Y-91694000D03*
%TO.N,Net-(J3-Pad1)*%
X155067000Y-88595200D03*
%TO.N,Net-(J6-Pad6)*%
X152679400Y-88315800D03*
%TO.N,Net-(J6-Pad5)*%
X152069800Y-87223600D03*
%TO.N,Net-(J6-Pad4)*%
X151689100Y-85852000D03*
%TO.N,Net-(J6-Pad3)*%
X150139400Y-81889600D03*
%TO.N,Net-(J6-Pad2)*%
X148595111Y-85389689D03*
%TO.N,Net-(R2-Pad1)*%
X155956000Y-85775802D03*
%TD*%
D32*
%TO.N,GND*%
X144754600Y-84988400D02*
X144830800Y-85064600D01*
X125342400Y-90900000D02*
X125349000Y-90906600D01*
X129100000Y-75700000D02*
X129100000Y-77944400D01*
D33*
X155632000Y-83013400D02*
X155676600Y-83058000D01*
D32*
X144754600Y-83741500D02*
X144754600Y-84988400D01*
X123937500Y-90900000D02*
X125342400Y-90900000D01*
X123100000Y-75700000D02*
X123100000Y-78118800D01*
X163124700Y-76053500D02*
X163830000Y-76758800D01*
D33*
X155632000Y-79586700D02*
X154912300Y-78867000D01*
X155632000Y-81602000D02*
X155632000Y-83013400D01*
D32*
X123100000Y-75700000D02*
X123100000Y-73343600D01*
X154615700Y-76053500D02*
X154355800Y-75793600D01*
X123100000Y-73343600D02*
X123113800Y-73329800D01*
X162260000Y-76053500D02*
X163124700Y-76053500D01*
X155910000Y-76053500D02*
X154615700Y-76053500D01*
X167259000Y-96433400D02*
X167259000Y-97942400D01*
X130835400Y-95377000D02*
X130810000Y-95351600D01*
X129100000Y-73397800D02*
X129082800Y-73380600D01*
X129100000Y-77944400D02*
X129108200Y-77952600D01*
X123100000Y-78118800D02*
X123088400Y-78130400D01*
D33*
X155632000Y-81602000D02*
X155632000Y-79586700D01*
D32*
X130835400Y-98144400D02*
X130835400Y-95377000D01*
X129100000Y-75700000D02*
X129100000Y-73397800D01*
%TO.N,+5V*%
X123100000Y-84443400D02*
X123139200Y-84404200D01*
X144780000Y-69237300D02*
X146021500Y-69237300D01*
D33*
X154832000Y-82988200D02*
X154533600Y-83286600D01*
D32*
X129100000Y-84310800D02*
X129108200Y-84302600D01*
X162814000Y-98174000D02*
X160271000Y-98174000D01*
X158682000Y-83052000D02*
X158682000Y-82465600D01*
D33*
X154832000Y-80661700D02*
X153037300Y-78867000D01*
D32*
X159004000Y-97764600D02*
X159842200Y-98602800D01*
X123100000Y-86700000D02*
X123100000Y-84443400D01*
X146021500Y-69237300D02*
X146024600Y-69240400D01*
X159004000Y-96695500D02*
X159004000Y-97764600D01*
X123100000Y-86700000D02*
X123100000Y-87796200D01*
X129100000Y-86700000D02*
X129100000Y-84310800D01*
X129870200Y-88900000D02*
X130835400Y-88900000D01*
X122062500Y-89829900D02*
X121564400Y-89331800D01*
X122062500Y-90900000D02*
X122062500Y-89829900D01*
X130835400Y-91644400D02*
X130835400Y-88900000D01*
X160271000Y-98174000D02*
X159842200Y-98602800D01*
X146027700Y-69237300D02*
X146024600Y-69240400D01*
D33*
X154832000Y-81602000D02*
X154832000Y-80661700D01*
D32*
X158682000Y-82465600D02*
X159181800Y-81965800D01*
X123100000Y-87796200D02*
X121564400Y-89331800D01*
X129100000Y-88129800D02*
X129870200Y-88900000D01*
X129100000Y-86700000D02*
X129100000Y-88129800D01*
X147320000Y-69237300D02*
X146027700Y-69237300D01*
D33*
X154832000Y-81602000D02*
X154832000Y-82988200D01*
D32*
%TO.N,Net-(C3-Pad1)*%
X162260000Y-74178500D02*
X159954300Y-74178500D01*
X162737800Y-70027800D02*
X162763200Y-70002400D01*
D33*
X157232000Y-80283400D02*
X158038800Y-79476600D01*
D32*
X159895500Y-73555900D02*
X160977800Y-72473600D01*
X160977800Y-72473600D02*
X160977800Y-70027800D01*
X158038800Y-79476600D02*
X159895500Y-77619900D01*
X159954300Y-74178500D02*
X159895500Y-74119700D01*
X159895500Y-75878000D02*
X159895500Y-74119700D01*
X160977800Y-70027800D02*
X162737800Y-70027800D01*
D33*
X157232000Y-81602000D02*
X157232000Y-80283400D01*
D32*
X159895500Y-77619900D02*
X159895500Y-75878000D01*
X159895500Y-74119700D02*
X159895500Y-73555900D01*
%TO.N,Net-(C4-Pad1)*%
X155910000Y-74178500D02*
X157875900Y-74178500D01*
X156827000Y-70078600D02*
X156877800Y-70027800D01*
X158020500Y-75878000D02*
X158020500Y-77513700D01*
X155041600Y-70078600D02*
X156827000Y-70078600D01*
X158020500Y-75878000D02*
X158020500Y-74033900D01*
D33*
X156438600Y-79095600D02*
X156432000Y-79102200D01*
D32*
X158020500Y-74033900D02*
X158020500Y-73768700D01*
D33*
X156432000Y-79102200D02*
X156432000Y-81602000D01*
D32*
X158020500Y-77513700D02*
X156438600Y-79095600D01*
X156877800Y-72626000D02*
X156877800Y-70027800D01*
X157875900Y-74178500D02*
X158020500Y-74033900D01*
X158020500Y-73768700D02*
X156877800Y-72626000D01*
D33*
%TO.N,Earth*%
X158682000Y-86252000D02*
X160534400Y-86252000D01*
D32*
X160703500Y-81129900D02*
X160680400Y-81153000D01*
X166878000Y-88773000D02*
X166878000Y-90599500D01*
X163322000Y-90091500D02*
X164691300Y-90091500D01*
X167259000Y-95133400D02*
X167259000Y-93548200D01*
X162382200Y-81129900D02*
X160703500Y-81129900D01*
D33*
X160534400Y-86252000D02*
X160553400Y-86233000D01*
D32*
X166878000Y-90599500D02*
X166956500Y-90678000D01*
X164691300Y-90091500D02*
X165049200Y-90449400D01*
X167259000Y-93548200D02*
X167233600Y-93522800D01*
D33*
%TO.N,Net-(C5-Pad1)*%
X161245400Y-87052000D02*
X162409900Y-88216500D01*
X158682000Y-87052000D02*
X161245400Y-87052000D01*
X162409900Y-88216500D02*
X163322000Y-88216500D01*
%TO.N,VBUS*%
X160369000Y-83852000D02*
X161216100Y-83004900D01*
D32*
X162382200Y-83004900D02*
X162892500Y-83004900D01*
X162892500Y-83004900D02*
X165735000Y-80162400D01*
D33*
X158682000Y-83852000D02*
X160369000Y-83852000D01*
D32*
X165756500Y-77216000D02*
X165756500Y-80140900D01*
D33*
X161216100Y-83004900D02*
X162382200Y-83004900D01*
D32*
X165756500Y-80140900D02*
X165735000Y-80162400D01*
%TO.N,Net-(C8-Pad2)*%
X140970000Y-77216000D02*
X143939500Y-77216000D01*
X143939500Y-77216000D02*
X144754600Y-78031100D01*
%TO.N,/DTR*%
X146507200Y-82092800D02*
X146280900Y-81866500D01*
X147777200Y-85674200D02*
X146507200Y-84404200D01*
X147777200Y-85712200D02*
X147777200Y-85674200D01*
X146280900Y-81866500D02*
X144754600Y-81866500D01*
X146507200Y-84404200D02*
X146507200Y-82092800D01*
X148317000Y-86252000D02*
X147777200Y-85712200D01*
D33*
X150182000Y-86252000D02*
X148317000Y-86252000D01*
D32*
X144754600Y-79906100D02*
X144754600Y-81866500D01*
%TO.N,/RESET2*%
X158267400Y-93141800D02*
X157226000Y-92100400D01*
X159004000Y-93294200D02*
X159004000Y-94820500D01*
D33*
X157581600Y-95351600D02*
X158112700Y-94820500D01*
X158112700Y-94820500D02*
X159004000Y-94820500D01*
X146202400Y-97764600D02*
X147929600Y-99491800D01*
D32*
X159156400Y-93141800D02*
X158267400Y-93141800D01*
D33*
X157232000Y-92094400D02*
X157232000Y-90102000D01*
D32*
X162179000Y-93141800D02*
X159156400Y-93141800D01*
D33*
X157581600Y-97713800D02*
X157581600Y-95351600D01*
X157226000Y-92100400D02*
X157232000Y-92094400D01*
D32*
X162814000Y-95374000D02*
X162814000Y-93776800D01*
X162814000Y-93776800D02*
X162179000Y-93141800D01*
X159156400Y-93141800D02*
X159004000Y-93294200D01*
D33*
X147929600Y-99491800D02*
X155803600Y-99491800D01*
X155803600Y-99491800D02*
X157581600Y-97713800D01*
D32*
%TO.N,Net-(D2-Pad2)*%
X147320000Y-71112300D02*
X147320000Y-74012500D01*
D33*
%TO.N,/RXLED*%
X149175478Y-83852000D02*
X148564600Y-83241122D01*
X150182000Y-83852000D02*
X149175478Y-83852000D01*
D32*
X148564600Y-83241122D02*
X148564600Y-77132100D01*
X148564600Y-77132100D02*
X147320000Y-75887500D01*
%TO.N,Net-(D3-Pad2)*%
X144780000Y-71112300D02*
X144780000Y-74012500D01*
%TO.N,/TXLED*%
X144780000Y-75887500D02*
X147853400Y-78960900D01*
X147853400Y-78960900D02*
X147853400Y-84404200D01*
D33*
X150162800Y-84632800D02*
X150182000Y-84652000D01*
D32*
X147853400Y-84404200D02*
X148082000Y-84632800D01*
D33*
X148082000Y-84632800D02*
X150162800Y-84632800D01*
D32*
%TO.N,Net-(F1-Pad2)*%
X173482000Y-81534000D02*
X173482000Y-78028800D01*
X173482000Y-78028800D02*
X172669200Y-77216000D01*
X172669200Y-77216000D02*
X170031500Y-77216000D01*
%TO.N,Net-(FB1-Pad1)*%
X170434000Y-81762500D02*
X170434000Y-80441800D01*
X170434000Y-88138000D02*
X172389800Y-88138000D01*
X170434000Y-80441800D02*
X170459400Y-80416400D01*
X168831500Y-90678000D02*
X170561000Y-90678000D01*
%TO.N,Net-(J2-Pad3)*%
X175482000Y-84034000D02*
X174121200Y-85394800D01*
X170307000Y-85394800D02*
X168018700Y-85394800D01*
X170434000Y-86563000D02*
X170434000Y-85521800D01*
X168018700Y-85394800D02*
X167307500Y-86106000D01*
X174121200Y-85394800D02*
X170307000Y-85394800D01*
X170434000Y-85521800D02*
X170307000Y-85394800D01*
%TO.N,Net-(J2-Pad2)*%
X170368600Y-84034000D02*
X167521500Y-84034000D01*
X173482000Y-84034000D02*
X170368600Y-84034000D01*
X167521500Y-84034000D02*
X167307500Y-83820000D01*
X170434000Y-83108900D02*
X170434000Y-83968600D01*
X170434000Y-83968600D02*
X170368600Y-84034000D01*
D33*
%TO.N,Net-(J3-Pad5)*%
X154032000Y-80753000D02*
X153188910Y-79909910D01*
D32*
X149885400Y-67640200D02*
X137999800Y-67640200D01*
X151741110Y-79909910D02*
X151358600Y-79527400D01*
X151358600Y-79527400D02*
X151358600Y-69113400D01*
X137999800Y-67640200D02*
X136300000Y-69340000D01*
X151358600Y-69113400D02*
X149885400Y-67640200D01*
D33*
X153188910Y-79909910D02*
X151741110Y-79909910D01*
X154032000Y-81602000D02*
X154032000Y-80753000D01*
%TO.N,Net-(J3-Pad4)*%
X158682000Y-87852000D02*
X157194000Y-87852000D01*
X157194000Y-87852000D02*
X156895800Y-87553800D01*
%TO.N,Net-(J3-Pad3)*%
X156419200Y-88652000D02*
X156159200Y-88392000D01*
X158682000Y-88652000D02*
X156419200Y-88652000D01*
%TO.N,Net-(J3-Pad2)*%
X156432000Y-90102000D02*
X156432000Y-91548200D01*
X156432000Y-91548200D02*
X156286200Y-91694000D01*
%TO.N,Net-(J3-Pad1)*%
X155632000Y-90102000D02*
X155632000Y-89160200D01*
X155632000Y-89160200D02*
X155067000Y-88595200D01*
%TO.N,Net-(J4-Pad4)*%
X155879800Y-94183200D02*
X155879800Y-96342200D01*
X155879800Y-96342200D02*
X154432000Y-97790000D01*
X154832000Y-90102000D02*
X154832000Y-93135400D01*
X154832000Y-93135400D02*
X155879800Y-94183200D01*
%TO.N,Net-(J4-Pad3)*%
X153232000Y-96450000D02*
X151892000Y-97790000D01*
X153232000Y-90102000D02*
X153232000Y-96450000D01*
%TO.N,Net-(J4-Pad2)*%
X154032000Y-94850000D02*
X154432000Y-95250000D01*
X154032000Y-90102000D02*
X154032000Y-94850000D01*
%TO.N,Net-(J4-Pad1)*%
X152432000Y-94710000D02*
X151892000Y-95250000D01*
X152432000Y-90102000D02*
X152432000Y-94710000D01*
D32*
%TO.N,/MOSI2*%
X148894800Y-89992200D02*
X149656800Y-89992200D01*
D33*
X149656800Y-89992200D02*
X150182000Y-89467000D01*
X150182000Y-89467000D02*
X150182000Y-88652000D01*
D32*
X143662400Y-95224600D02*
X148894800Y-89992200D01*
%TO.N,/SCK2*%
X143662400Y-97764600D02*
X142405999Y-96508199D01*
D33*
X148590000Y-87858600D02*
X148596600Y-87852000D01*
D32*
X148285200Y-87858600D02*
X148310600Y-87858600D01*
X142405999Y-96508199D02*
X142405999Y-93737801D01*
D33*
X148310600Y-87858600D02*
X148590000Y-87858600D01*
D32*
X142405999Y-93737801D02*
X148285200Y-87858600D01*
D33*
X148596600Y-87852000D02*
X150182000Y-87852000D01*
D32*
%TO.N,/MISO2*%
X148044799Y-96508199D02*
X149098000Y-95454998D01*
X150952200Y-91846400D02*
X150952200Y-91821000D01*
X141122400Y-97764600D02*
X141122400Y-98247200D01*
D33*
X150952200Y-91821000D02*
X151632000Y-91141200D01*
D32*
X141122400Y-98247200D02*
X142341600Y-99466400D01*
X149098000Y-93700600D02*
X150952200Y-91846400D01*
D33*
X151632000Y-91141200D02*
X151632000Y-90102000D01*
D32*
X149098000Y-95454998D02*
X149098000Y-93700600D01*
X144272000Y-99466400D02*
X144945999Y-98792401D01*
X144945999Y-97161527D02*
X145599327Y-96508199D01*
X144945999Y-98792401D02*
X144945999Y-97161527D01*
X145599327Y-96508199D02*
X148044799Y-96508199D01*
X142341600Y-99466400D02*
X144272000Y-99466400D01*
D33*
%TO.N,Net-(J6-Pad6)*%
X153232000Y-87763200D02*
X152679400Y-88315800D01*
X153232000Y-81602000D02*
X153232000Y-87763200D01*
%TO.N,Net-(J6-Pad5)*%
X152432000Y-81602000D02*
X152432000Y-86861400D01*
X152432000Y-86861400D02*
X152069800Y-87223600D01*
%TO.N,Net-(J6-Pad4)*%
X151632000Y-85794900D02*
X151689100Y-85852000D01*
X151632000Y-81602000D02*
X151632000Y-85794900D01*
D32*
%TO.N,Net-(J6-Pad3)*%
X150139400Y-81889600D02*
X150139400Y-83009400D01*
X150139400Y-83009400D02*
X150182000Y-83052000D01*
D33*
%TO.N,Net-(J6-Pad2)*%
X148595111Y-85389689D02*
X150119689Y-85389689D01*
X150119689Y-85389689D02*
X150182000Y-85452000D01*
%TO.N,Net-(R1-Pad1)*%
X158682000Y-85452000D02*
X162998200Y-85452000D01*
X162998200Y-85452000D02*
X163652200Y-86106000D01*
X163652200Y-86106000D02*
X165432500Y-86106000D01*
%TO.N,Net-(R2-Pad1)*%
X158682000Y-84652000D02*
X162998000Y-84652000D01*
X162998000Y-84652000D02*
X163830000Y-83820000D01*
X163830000Y-83820000D02*
X165432500Y-83820000D01*
X157079802Y-84652000D02*
X155956000Y-85775802D01*
X158682000Y-84652000D02*
X157079802Y-84652000D01*
%TD*%
M02*
