%TF.GenerationSoftware,KiCad,Pcbnew,6.0.8+dfsg-1~bpo11+1*%
%TF.CreationDate,2022-10-21T15:27:00+00:00*%
%TF.ProjectId,t1,74312e6b-6963-4616-945f-706362585858,${git_hash}*%
%TF.SameCoordinates,Original*%
%TF.FileFunction,Soldermask,Top*%
%TF.FilePolarity,Negative*%
%FSLAX46Y46*%
G04 Gerber Fmt 4.6, Leading zero omitted, Abs format (unit mm)*
G04 Created by KiCad (PCBNEW 6.0.8+dfsg-1~bpo11+1) date 2022-10-21 15:27:00*
%MOMM*%
%LPD*%
G01*
G04 APERTURE LIST*
G04 Aperture macros list*
%AMRoundRect*
0 Rectangle with rounded corners*
0 $1 Rounding radius*
0 $2 $3 $4 $5 $6 $7 $8 $9 X,Y pos of 4 corners*
0 Add a 4 corners polygon primitive as box body*
4,1,4,$2,$3,$4,$5,$6,$7,$8,$9,$2,$3,0*
0 Add four circle primitives for the rounded corners*
1,1,$1+$1,$2,$3*
1,1,$1+$1,$4,$5*
1,1,$1+$1,$6,$7*
1,1,$1+$1,$8,$9*
0 Add four rect primitives between the rounded corners*
20,1,$1+$1,$2,$3,$4,$5,0*
20,1,$1+$1,$4,$5,$6,$7,0*
20,1,$1+$1,$6,$7,$8,$9,0*
20,1,$1+$1,$8,$9,$2,$3,0*%
%AMFreePoly0*
4,1,37,0.535355,0.785355,0.550000,0.750000,0.550000,-0.750000,0.535355,-0.785355,0.500000,-0.800000,0.000000,-0.800000,-0.012524,-0.794812,-0.080857,-0.793560,-0.094851,-0.791293,-0.230166,-0.749018,-0.242962,-0.742915,-0.360972,-0.664360,-0.371540,-0.654911,-0.462760,-0.546392,-0.470252,-0.534356,-0.527347,-0.404597,-0.531159,-0.390943,-0.548742,-0.256483,-0.547388,-0.256306,-0.550000,-0.250000,
-0.550000,0.250000,-0.549522,0.251153,-0.549368,0.263802,-0.527557,0.403879,-0.523412,0.417435,-0.463164,0.545760,-0.455381,0.557609,-0.361537,0.663867,-0.350741,0.673055,-0.230846,0.748703,-0.217905,0.754492,-0.081598,0.793449,-0.067552,0.795373,-0.011991,0.795033,0.000000,0.800000,0.500000,0.800000,0.535355,0.785355,0.535355,0.785355,$1*%
%AMFreePoly1*
4,1,37,0.012350,0.794884,0.074210,0.794507,0.088231,0.792412,0.224052,0.751793,0.236921,0.745846,0.355883,0.668739,0.366566,0.659420,0.459104,0.552023,0.466742,0.540080,0.525419,0.411028,0.529398,0.397421,0.549495,0.257088,0.550000,0.250000,0.550000,-0.250000,0.549996,-0.250610,0.549847,-0.262826,0.549158,-0.270511,0.525638,-0.410312,0.521328,-0.423818,0.459516,-0.551397,
0.451589,-0.563150,0.356454,-0.668254,0.345546,-0.677309,0.224736,-0.751486,0.211726,-0.757116,0.074953,-0.794405,0.060885,-0.796158,0.011462,-0.795252,0.000000,-0.800000,-0.500000,-0.800000,-0.535355,-0.785355,-0.550000,-0.750000,-0.550000,0.750000,-0.535355,0.785355,-0.500000,0.800000,0.000000,0.800000,0.012350,0.794884,0.012350,0.794884,$1*%
G04 Aperture macros list end*
%ADD10RoundRect,0.300000X-1.000000X1.500000X-1.000000X-1.500000X1.000000X-1.500000X1.000000X1.500000X0*%
%ADD11RoundRect,0.293750X-0.243750X-0.456250X0.243750X-0.456250X0.243750X0.456250X-0.243750X0.456250X0*%
%ADD12RoundRect,0.293750X-0.456250X0.243750X-0.456250X-0.243750X0.456250X-0.243750X0.456250X0.243750X0*%
%ADD13RoundRect,0.293750X0.456250X-0.243750X0.456250X0.243750X-0.456250X0.243750X-0.456250X-0.243750X0*%
%ADD14RoundRect,0.300000X0.625000X-0.375000X0.625000X0.375000X-0.625000X0.375000X-0.625000X-0.375000X0*%
%ADD15RoundRect,0.300000X-0.312500X-1.450000X0.312500X-1.450000X0.312500X1.450000X-0.312500X1.450000X0*%
%ADD16RoundRect,0.293750X0.243750X0.456250X-0.243750X0.456250X-0.243750X-0.456250X0.243750X-0.456250X0*%
%ADD17C,1.500000*%
%ADD18C,2.800000*%
%ADD19C,2.100000*%
%ADD20O,1.600000X2.100000*%
%ADD21RoundRect,0.050000X1.000000X-1.500000X1.000000X1.500000X-1.000000X1.500000X-1.000000X-1.500000X0*%
%ADD22RoundRect,0.050000X0.850000X0.850000X-0.850000X0.850000X-0.850000X-0.850000X0.850000X-0.850000X0*%
%ADD23O,1.800000X1.800000*%
%ADD24RoundRect,0.050000X-0.850000X-0.850000X0.850000X-0.850000X0.850000X0.850000X-0.850000X0.850000X0*%
%ADD25RoundRect,0.050000X0.850000X-0.850000X0.850000X0.850000X-0.850000X0.850000X-0.850000X-0.850000X0*%
%ADD26FreePoly0,270.000000*%
%ADD27FreePoly1,270.000000*%
%ADD28RoundRect,0.268750X-0.256250X0.218750X-0.256250X-0.218750X0.256250X-0.218750X0.256250X0.218750X0*%
%ADD29RoundRect,0.050000X0.950000X1.200000X-0.950000X1.200000X-0.950000X-1.200000X0.950000X-1.200000X0*%
%ADD30RoundRect,0.050000X0.800000X-0.800000X0.800000X0.800000X-0.800000X0.800000X-0.800000X-0.800000X0*%
%ADD31C,1.700000*%
%ADD32C,4.100000*%
%ADD33RoundRect,0.050000X-0.275000X0.800000X-0.275000X-0.800000X0.275000X-0.800000X0.275000X0.800000X0*%
%ADD34RoundRect,0.050000X-0.800000X-0.275000X0.800000X-0.275000X0.800000X0.275000X-0.800000X0.275000X0*%
%ADD35RoundRect,0.268750X0.256250X-0.218750X0.256250X0.218750X-0.256250X0.218750X-0.256250X-0.218750X0*%
G04 APERTURE END LIST*
D10*
%TO.C,C1*%
X130835400Y-91644400D03*
X130835400Y-98144400D03*
%TD*%
D11*
%TO.C,C2*%
X122062500Y-90900000D03*
X123937500Y-90900000D03*
%TD*%
D12*
%TO.C,C3*%
X162260000Y-74178500D03*
X162260000Y-76053500D03*
%TD*%
%TO.C,C4*%
X155910000Y-74178500D03*
X155910000Y-76053500D03*
%TD*%
%TO.C,C5*%
X163322000Y-88216500D03*
X163322000Y-90091500D03*
%TD*%
D11*
%TO.C,C7*%
X153037300Y-78867000D03*
X154912300Y-78867000D03*
%TD*%
D13*
%TO.C,C8*%
X144754600Y-79906100D03*
X144754600Y-78031100D03*
%TD*%
D14*
%TO.C,D1*%
X162814000Y-98174000D03*
X162814000Y-95374000D03*
%TD*%
D13*
%TO.C,D2*%
X147320000Y-75887500D03*
X147320000Y-74012500D03*
%TD*%
%TO.C,D3*%
X144780000Y-75887500D03*
X144780000Y-74012500D03*
%TD*%
D15*
%TO.C,F1*%
X165756500Y-77216000D03*
X170031500Y-77216000D03*
%TD*%
D16*
%TO.C,FB1*%
X168831500Y-90678000D03*
X166956500Y-90678000D03*
%TD*%
D17*
%TO.C,FID1*%
X169418000Y-70612000D03*
%TD*%
%TO.C,FID2*%
X171704000Y-97282000D03*
%TD*%
%TO.C,FID3*%
X129997200Y-70078600D03*
%TD*%
%TO.C,FID4*%
X137210800Y-98171000D03*
%TD*%
D18*
%TO.C,H1*%
X177000000Y-97000000D03*
%TD*%
%TO.C,H2*%
X123000000Y-97000000D03*
%TD*%
%TO.C,H3*%
X123000000Y-69500000D03*
%TD*%
%TO.C,H4*%
X177000000Y-69500000D03*
%TD*%
D19*
%TO.C,J1*%
X127600000Y-81200000D03*
D20*
X123200000Y-81200000D03*
D21*
X123100000Y-75700000D03*
X129100000Y-75700000D03*
X129100000Y-86700000D03*
X123100000Y-86700000D03*
%TD*%
D22*
%TO.C,J3*%
X136300000Y-79500000D03*
D23*
X136300000Y-76960000D03*
X136300000Y-74420000D03*
X136300000Y-71880000D03*
X136300000Y-69340000D03*
%TD*%
D24*
%TO.C,J4*%
X151892000Y-95250000D03*
D23*
X154432000Y-95250000D03*
X151892000Y-97790000D03*
X154432000Y-97790000D03*
%TD*%
D25*
%TO.C,J5*%
X141122400Y-97764600D03*
D23*
X141122400Y-95224600D03*
X143662400Y-97764600D03*
X143662400Y-95224600D03*
X146202400Y-97764600D03*
X146202400Y-95224600D03*
%TD*%
D24*
%TO.C,J6*%
X140970000Y-77216000D03*
D23*
X140970000Y-79756000D03*
X140970000Y-82296000D03*
X140970000Y-84836000D03*
X140970000Y-87376000D03*
X140970000Y-89916000D03*
%TD*%
D26*
%TO.C,JP1*%
X167259000Y-95133400D03*
D27*
X167259000Y-96433400D03*
%TD*%
D11*
%TO.C,R1*%
X165432500Y-86106000D03*
X167307500Y-86106000D03*
%TD*%
%TO.C,R2*%
X165432500Y-83820000D03*
X167307500Y-83820000D03*
%TD*%
D16*
%TO.C,R3*%
X159895500Y-75878000D03*
X158020500Y-75878000D03*
%TD*%
D13*
%TO.C,R4*%
X159004000Y-96695500D03*
X159004000Y-94820500D03*
%TD*%
D12*
%TO.C,R5*%
X144754600Y-81866500D03*
X144754600Y-83741500D03*
%TD*%
%TO.C,R6*%
X147320000Y-69237300D03*
X147320000Y-71112300D03*
%TD*%
%TO.C,R7*%
X144780000Y-69237300D03*
X144780000Y-71112300D03*
%TD*%
D28*
%TO.C,VR1*%
X170434000Y-86563000D03*
X170434000Y-88138000D03*
%TD*%
D29*
%TO.C,Y1*%
X160977800Y-70027800D03*
X156877800Y-70027800D03*
%TD*%
D30*
%TO.C,J2*%
X173482000Y-81534000D03*
D31*
X173482000Y-84034000D03*
X175482000Y-84034000D03*
X175482000Y-81534000D03*
D32*
X178342000Y-76784000D03*
X178342000Y-88784000D03*
%TD*%
D33*
%TO.C,U1*%
X157232000Y-81602000D03*
X156432000Y-81602000D03*
X155632000Y-81602000D03*
X154832000Y-81602000D03*
X154032000Y-81602000D03*
X153232000Y-81602000D03*
X152432000Y-81602000D03*
X151632000Y-81602000D03*
D34*
X150182000Y-83052000D03*
X150182000Y-83852000D03*
X150182000Y-84652000D03*
X150182000Y-85452000D03*
X150182000Y-86252000D03*
X150182000Y-87052000D03*
X150182000Y-87852000D03*
X150182000Y-88652000D03*
D33*
X151632000Y-90102000D03*
X152432000Y-90102000D03*
X153232000Y-90102000D03*
X154032000Y-90102000D03*
X154832000Y-90102000D03*
X155632000Y-90102000D03*
X156432000Y-90102000D03*
X157232000Y-90102000D03*
D34*
X158682000Y-88652000D03*
X158682000Y-87852000D03*
X158682000Y-87052000D03*
X158682000Y-86252000D03*
X158682000Y-85452000D03*
X158682000Y-84652000D03*
X158682000Y-83852000D03*
X158682000Y-83052000D03*
%TD*%
D35*
%TO.C,VR2*%
X170434000Y-83108900D03*
X170434000Y-81533900D03*
%TD*%
D13*
%TO.C,C6*%
X162382200Y-83004900D03*
X162382200Y-81129900D03*
%TD*%
M02*
