%TF.GenerationSoftware,KiCad,Pcbnew,8.0.5+1*%
%TF.CreationDate,2024-10-28T12:47:09+00:00*%
%TF.ProjectId,t1,74312e6b-6963-4616-945f-706362585858,${git_hash}*%
%TF.SameCoordinates,Original*%
%TF.FileFunction,Other,User*%
%FSLAX46Y46*%
G04 Gerber Fmt 4.6, Leading zero omitted, Abs format (unit mm)*
G04 Created by KiCad (PCBNEW 8.0.5+1) date 2024-10-28 12:47:09*
%MOMM*%
%LPD*%
G01*
G04 APERTURE LIST*
%ADD10C,0.050000*%
G04 APERTURE END LIST*
D10*
%TO.C,C1*%
X126435400Y-91644400D02*
X126435400Y-99294400D01*
X127585400Y-90494400D02*
X126435400Y-91644400D01*
X129335400Y-89644400D02*
X129335400Y-90494400D01*
X129335400Y-90494400D02*
X127585400Y-90494400D01*
X129335400Y-99294400D02*
X126435400Y-99294400D01*
X129335400Y-100144400D02*
X129335400Y-99294400D01*
X132335400Y-89644400D02*
X129335400Y-89644400D01*
X132335400Y-90494400D02*
X132335400Y-89644400D01*
X132335400Y-99294400D02*
X132335400Y-100144400D01*
X132335400Y-100144400D02*
X129335400Y-100144400D01*
X134085400Y-90494400D02*
X132335400Y-90494400D01*
X134085400Y-90494400D02*
X135235400Y-91644400D01*
X135235400Y-91644400D02*
X135235400Y-99294400D01*
X135235400Y-99294400D02*
X132335400Y-99294400D01*
%TO.C,C2*%
X121320000Y-89950000D02*
X124680000Y-89950000D01*
X121320000Y-91850000D02*
X121320000Y-89950000D01*
X124680000Y-89950000D02*
X124680000Y-91850000D01*
X124680000Y-91850000D02*
X121320000Y-91850000D01*
%TO.C,C3*%
X161310000Y-73436000D02*
X163210000Y-73436000D01*
X161310000Y-76796000D02*
X161310000Y-73436000D01*
X163210000Y-73436000D02*
X163210000Y-76796000D01*
X163210000Y-76796000D02*
X161310000Y-76796000D01*
%TO.C,C4*%
X154960000Y-73436000D02*
X156860000Y-73436000D01*
X154960000Y-76796000D02*
X154960000Y-73436000D01*
X156860000Y-73436000D02*
X156860000Y-76796000D01*
X156860000Y-76796000D02*
X154960000Y-76796000D01*
%TO.C,C5*%
X162372000Y-87474000D02*
X164272000Y-87474000D01*
X162372000Y-90834000D02*
X162372000Y-87474000D01*
X164272000Y-87474000D02*
X164272000Y-90834000D01*
X164272000Y-90834000D02*
X162372000Y-90834000D01*
%TO.C,C7*%
X152294800Y-77917000D02*
X155654800Y-77917000D01*
X152294800Y-79817000D02*
X152294800Y-77917000D01*
X155654800Y-77917000D02*
X155654800Y-79817000D01*
X155654800Y-79817000D02*
X152294800Y-79817000D01*
%TO.C,C8*%
X143804600Y-77288600D02*
X145704600Y-77288600D01*
X143804600Y-80648600D02*
X143804600Y-77288600D01*
X145704600Y-77288600D02*
X145704600Y-80648600D01*
X145704600Y-80648600D02*
X143804600Y-80648600D01*
%TO.C,D1*%
X161694000Y-94494000D02*
X163934000Y-94494000D01*
X161694000Y-99054000D02*
X161694000Y-94494000D01*
X163934000Y-94494000D02*
X163934000Y-99054000D01*
X163934000Y-99054000D02*
X161694000Y-99054000D01*
%TO.C,D2*%
X146370000Y-73270000D02*
X148270000Y-73270000D01*
X146370000Y-76630000D02*
X146370000Y-73270000D01*
X148270000Y-73270000D02*
X148270000Y-76630000D01*
X148270000Y-76630000D02*
X146370000Y-76630000D01*
%TO.C,D3*%
X143830000Y-73270000D02*
X145730000Y-73270000D01*
X143830000Y-76630000D02*
X143830000Y-73270000D01*
X145730000Y-73270000D02*
X145730000Y-76630000D01*
X145730000Y-76630000D02*
X143830000Y-76630000D01*
%TO.C,F1*%
X164944000Y-75266000D02*
X170844000Y-75266000D01*
X164944000Y-79166000D02*
X164944000Y-75266000D01*
X170844000Y-75266000D02*
X170844000Y-79166000D01*
X170844000Y-79166000D02*
X164944000Y-79166000D01*
%TO.C,FB1*%
X166214000Y-89728000D02*
X169574000Y-89728000D01*
X166214000Y-91628000D02*
X166214000Y-89728000D01*
X169574000Y-89728000D02*
X169574000Y-91628000D01*
X169574000Y-91628000D02*
X166214000Y-91628000D01*
%TO.C,FID1*%
X170418000Y-70612000D02*
G75*
G02*
X168418000Y-70612000I-1000000J0D01*
G01*
X168418000Y-70612000D02*
G75*
G02*
X170418000Y-70612000I1000000J0D01*
G01*
%TO.C,FID2*%
X172704000Y-97282000D02*
G75*
G02*
X170704000Y-97282000I-1000000J0D01*
G01*
X170704000Y-97282000D02*
G75*
G02*
X172704000Y-97282000I1000000J0D01*
G01*
%TO.C,FID3*%
X130997200Y-70078600D02*
G75*
G02*
X128997200Y-70078600I-1000000J0D01*
G01*
X128997200Y-70078600D02*
G75*
G02*
X130997200Y-70078600I1000000J0D01*
G01*
%TO.C,FID4*%
X138210800Y-98171000D02*
G75*
G02*
X136210800Y-98171000I-1000000J0D01*
G01*
X136210800Y-98171000D02*
G75*
G02*
X138210800Y-98171000I1000000J0D01*
G01*
%TO.C,H1*%
X179950000Y-97000000D02*
G75*
G02*
X174050000Y-97000000I-2950000J0D01*
G01*
X174050000Y-97000000D02*
G75*
G02*
X179950000Y-97000000I2950000J0D01*
G01*
%TO.C,H2*%
X125950000Y-97000000D02*
G75*
G02*
X120050000Y-97000000I-2950000J0D01*
G01*
X120050000Y-97000000D02*
G75*
G02*
X125950000Y-97000000I2950000J0D01*
G01*
%TO.C,H3*%
X125950000Y-69500000D02*
G75*
G02*
X120050000Y-69500000I-2950000J0D01*
G01*
X120050000Y-69500000D02*
G75*
G02*
X125950000Y-69500000I2950000J0D01*
G01*
%TO.C,H4*%
X179950000Y-69500000D02*
G75*
G02*
X174050000Y-69500000I-2950000J0D01*
G01*
X174050000Y-69500000D02*
G75*
G02*
X179950000Y-69500000I2950000J0D01*
G01*
%TO.C,J1*%
X117600000Y-73700000D02*
X133300000Y-73700000D01*
X117600000Y-88700000D02*
X117600000Y-73700000D01*
X117600000Y-88700000D02*
X133300000Y-88700000D01*
X133300000Y-88700000D02*
X133300000Y-73700000D01*
%TO.C,J3*%
X134500000Y-67550000D02*
X134500000Y-81300000D01*
X134500000Y-81300000D02*
X138100000Y-81300000D01*
X138100000Y-67550000D02*
X134500000Y-67550000D01*
X138100000Y-81300000D02*
X138100000Y-67550000D01*
%TO.C,J4*%
X150092000Y-93450000D02*
X150092000Y-99600000D01*
X150092000Y-99600000D02*
X156242000Y-99600000D01*
X156242000Y-93450000D02*
X150092000Y-93450000D01*
X156242000Y-99600000D02*
X156242000Y-93450000D01*
%TO.C,J5*%
X139322400Y-93414600D02*
X139322400Y-99564600D01*
X139322400Y-99564600D02*
X147972400Y-99564600D01*
X147972400Y-93414600D02*
X139322400Y-93414600D01*
X147972400Y-99564600D02*
X147972400Y-93414600D01*
%TO.C,J6*%
X139170000Y-75416000D02*
X139170000Y-91716000D01*
X139170000Y-91716000D02*
X142770000Y-91716000D01*
X142770000Y-75416000D02*
X139170000Y-75416000D01*
X142770000Y-91716000D02*
X142770000Y-75416000D01*
%TO.C,JP1*%
X166009000Y-97433400D02*
X166009000Y-94133400D01*
X166009000Y-97433400D02*
X168509000Y-97433400D01*
X168509000Y-94133400D02*
X166009000Y-94133400D01*
X168509000Y-94133400D02*
X168509000Y-97433400D01*
%TO.C,R1*%
X164690000Y-85156000D02*
X168050000Y-85156000D01*
X164690000Y-87056000D02*
X164690000Y-85156000D01*
X168050000Y-85156000D02*
X168050000Y-87056000D01*
X168050000Y-87056000D02*
X164690000Y-87056000D01*
%TO.C,R2*%
X164690000Y-82870000D02*
X168050000Y-82870000D01*
X164690000Y-84770000D02*
X164690000Y-82870000D01*
X168050000Y-82870000D02*
X168050000Y-84770000D01*
X168050000Y-84770000D02*
X164690000Y-84770000D01*
%TO.C,R3*%
X157278000Y-74928000D02*
X160638000Y-74928000D01*
X157278000Y-76828000D02*
X157278000Y-74928000D01*
X160638000Y-74928000D02*
X160638000Y-76828000D01*
X160638000Y-76828000D02*
X157278000Y-76828000D01*
%TO.C,R4*%
X158054000Y-94078000D02*
X159954000Y-94078000D01*
X158054000Y-97438000D02*
X158054000Y-94078000D01*
X159954000Y-94078000D02*
X159954000Y-97438000D01*
X159954000Y-97438000D02*
X158054000Y-97438000D01*
%TO.C,R5*%
X143804600Y-81124000D02*
X145704600Y-81124000D01*
X143804600Y-84484000D02*
X143804600Y-81124000D01*
X145704600Y-81124000D02*
X145704600Y-84484000D01*
X145704600Y-84484000D02*
X143804600Y-84484000D01*
%TO.C,R6*%
X146370000Y-68494800D02*
X148270000Y-68494800D01*
X146370000Y-71854800D02*
X146370000Y-68494800D01*
X148270000Y-68494800D02*
X148270000Y-71854800D01*
X148270000Y-71854800D02*
X146370000Y-71854800D01*
%TO.C,R7*%
X143830000Y-68494800D02*
X145730000Y-68494800D01*
X143830000Y-71854800D02*
X143830000Y-68494800D01*
X145730000Y-68494800D02*
X145730000Y-71854800D01*
X145730000Y-71854800D02*
X143830000Y-71854800D01*
%TO.C,VR1*%
X169704000Y-85870500D02*
X171164000Y-85870500D01*
X169704000Y-88830500D02*
X169704000Y-85870500D01*
X171164000Y-85870500D02*
X171164000Y-88830500D01*
X171164000Y-88830500D02*
X169704000Y-88830500D01*
%TO.C,Y1*%
X155627800Y-68127800D02*
X155627800Y-71927800D01*
X155627800Y-71927800D02*
X162227800Y-71927800D01*
X162227800Y-68127800D02*
X155627800Y-68127800D01*
X162227800Y-71927800D02*
X162227800Y-68127800D01*
%TO.C,J2*%
X171742000Y-74284000D02*
X171742000Y-91284000D01*
X171742000Y-91284000D02*
X189142000Y-91284000D01*
X189142000Y-74284000D02*
X171742000Y-74284000D01*
X189142000Y-91284000D02*
X189142000Y-74284000D01*
%TO.C,U1*%
X149132000Y-80552000D02*
X149132000Y-91152000D01*
X159732000Y-80552000D02*
X149132000Y-80552000D01*
X159732000Y-80552000D02*
X159732000Y-91152000D01*
X159732000Y-91152000D02*
X149132000Y-91152000D01*
%TO.C,VR2*%
X169704000Y-80841400D02*
X171164000Y-80841400D01*
X169704000Y-83801400D02*
X169704000Y-80841400D01*
X171164000Y-80841400D02*
X171164000Y-83801400D01*
X171164000Y-83801400D02*
X169704000Y-83801400D01*
%TO.C,C6*%
X161432200Y-80387400D02*
X163332200Y-80387400D01*
X161432200Y-83747400D02*
X161432200Y-80387400D01*
X163332200Y-80387400D02*
X163332200Y-83747400D01*
X163332200Y-83747400D02*
X161432200Y-83747400D01*
%TD*%
M02*
