%TF.GenerationSoftware,KiCad,Pcbnew,6.0.8+dfsg-1~bpo11+1*%
%TF.CreationDate,2022-10-21T17:47:49+00:00*%
%TF.ProjectId,t1,74312e6b-6963-4616-945f-706362585858,${git_hash}*%
%TF.SameCoordinates,Original*%
%TF.FileFunction,Legend,Top*%
%TF.FilePolarity,Positive*%
%FSLAX46Y46*%
G04 Gerber Fmt 4.6, Leading zero omitted, Abs format (unit mm)*
G04 Created by KiCad (PCBNEW 6.0.8+dfsg-1~bpo11+1) date 2022-10-21 17:47:49*
%MOMM*%
%LPD*%
G01*
G04 APERTURE LIST*
%ADD10C,0.150000*%
%ADD11C,0.120000*%
G04 APERTURE END LIST*
D10*
%TO.C,C1*%
X135672533Y-90400142D02*
X135624914Y-90447761D01*
X135482057Y-90495380D01*
X135386819Y-90495380D01*
X135243961Y-90447761D01*
X135148723Y-90352523D01*
X135101104Y-90257285D01*
X135053485Y-90066809D01*
X135053485Y-89923952D01*
X135101104Y-89733476D01*
X135148723Y-89638238D01*
X135243961Y-89543000D01*
X135386819Y-89495380D01*
X135482057Y-89495380D01*
X135624914Y-89543000D01*
X135672533Y-89590619D01*
X136624914Y-90495380D02*
X136053485Y-90495380D01*
X136339200Y-90495380D02*
X136339200Y-89495380D01*
X136243961Y-89638238D01*
X136148723Y-89733476D01*
X136053485Y-89781095D01*
%TO.C,C2*%
X122769333Y-93194142D02*
X122721714Y-93241761D01*
X122578857Y-93289380D01*
X122483619Y-93289380D01*
X122340761Y-93241761D01*
X122245523Y-93146523D01*
X122197904Y-93051285D01*
X122150285Y-92860809D01*
X122150285Y-92717952D01*
X122197904Y-92527476D01*
X122245523Y-92432238D01*
X122340761Y-92337000D01*
X122483619Y-92289380D01*
X122578857Y-92289380D01*
X122721714Y-92337000D01*
X122769333Y-92384619D01*
X123150285Y-92384619D02*
X123197904Y-92337000D01*
X123293142Y-92289380D01*
X123531238Y-92289380D01*
X123626476Y-92337000D01*
X123674095Y-92384619D01*
X123721714Y-92479857D01*
X123721714Y-92575095D01*
X123674095Y-92717952D01*
X123102666Y-93289380D01*
X123721714Y-93289380D01*
%TO.C,C3*%
X164196733Y-74474342D02*
X164149114Y-74521961D01*
X164006257Y-74569580D01*
X163911019Y-74569580D01*
X163768161Y-74521961D01*
X163672923Y-74426723D01*
X163625304Y-74331485D01*
X163577685Y-74141009D01*
X163577685Y-73998152D01*
X163625304Y-73807676D01*
X163672923Y-73712438D01*
X163768161Y-73617200D01*
X163911019Y-73569580D01*
X164006257Y-73569580D01*
X164149114Y-73617200D01*
X164196733Y-73664819D01*
X164530066Y-73569580D02*
X165149114Y-73569580D01*
X164815780Y-73950533D01*
X164958638Y-73950533D01*
X165053876Y-73998152D01*
X165101495Y-74045771D01*
X165149114Y-74141009D01*
X165149114Y-74379104D01*
X165101495Y-74474342D01*
X165053876Y-74521961D01*
X164958638Y-74569580D01*
X164672923Y-74569580D01*
X164577685Y-74521961D01*
X164530066Y-74474342D01*
%TO.C,C4*%
X153630333Y-75414142D02*
X153582714Y-75461761D01*
X153439857Y-75509380D01*
X153344619Y-75509380D01*
X153201761Y-75461761D01*
X153106523Y-75366523D01*
X153058904Y-75271285D01*
X153011285Y-75080809D01*
X153011285Y-74937952D01*
X153058904Y-74747476D01*
X153106523Y-74652238D01*
X153201761Y-74557000D01*
X153344619Y-74509380D01*
X153439857Y-74509380D01*
X153582714Y-74557000D01*
X153630333Y-74604619D01*
X154487476Y-74842714D02*
X154487476Y-75509380D01*
X154249380Y-74461761D02*
X154011285Y-75176047D01*
X154630333Y-75176047D01*
%TO.C,C5*%
X163155333Y-87098142D02*
X163107714Y-87145761D01*
X162964857Y-87193380D01*
X162869619Y-87193380D01*
X162726761Y-87145761D01*
X162631523Y-87050523D01*
X162583904Y-86955285D01*
X162536285Y-86764809D01*
X162536285Y-86621952D01*
X162583904Y-86431476D01*
X162631523Y-86336238D01*
X162726761Y-86241000D01*
X162869619Y-86193380D01*
X162964857Y-86193380D01*
X163107714Y-86241000D01*
X163155333Y-86288619D01*
X164060095Y-86193380D02*
X163583904Y-86193380D01*
X163536285Y-86669571D01*
X163583904Y-86621952D01*
X163679142Y-86574333D01*
X163917238Y-86574333D01*
X164012476Y-86621952D01*
X164060095Y-86669571D01*
X164107714Y-86764809D01*
X164107714Y-87002904D01*
X164060095Y-87098142D01*
X164012476Y-87145761D01*
X163917238Y-87193380D01*
X163679142Y-87193380D01*
X163583904Y-87145761D01*
X163536285Y-87098142D01*
%TO.C,C7*%
X156678333Y-79274942D02*
X156630714Y-79322561D01*
X156487857Y-79370180D01*
X156392619Y-79370180D01*
X156249761Y-79322561D01*
X156154523Y-79227323D01*
X156106904Y-79132085D01*
X156059285Y-78941609D01*
X156059285Y-78798752D01*
X156106904Y-78608276D01*
X156154523Y-78513038D01*
X156249761Y-78417800D01*
X156392619Y-78370180D01*
X156487857Y-78370180D01*
X156630714Y-78417800D01*
X156678333Y-78465419D01*
X157011666Y-78370180D02*
X157678333Y-78370180D01*
X157249761Y-79370180D01*
%TO.C,C8*%
X146594533Y-79503542D02*
X146546914Y-79551161D01*
X146404057Y-79598780D01*
X146308819Y-79598780D01*
X146165961Y-79551161D01*
X146070723Y-79455923D01*
X146023104Y-79360685D01*
X145975485Y-79170209D01*
X145975485Y-79027352D01*
X146023104Y-78836876D01*
X146070723Y-78741638D01*
X146165961Y-78646400D01*
X146308819Y-78598780D01*
X146404057Y-78598780D01*
X146546914Y-78646400D01*
X146594533Y-78694019D01*
X147165961Y-79027352D02*
X147070723Y-78979733D01*
X147023104Y-78932114D01*
X146975485Y-78836876D01*
X146975485Y-78789257D01*
X147023104Y-78694019D01*
X147070723Y-78646400D01*
X147165961Y-78598780D01*
X147356438Y-78598780D01*
X147451676Y-78646400D01*
X147499295Y-78694019D01*
X147546914Y-78789257D01*
X147546914Y-78836876D01*
X147499295Y-78932114D01*
X147451676Y-78979733D01*
X147356438Y-79027352D01*
X147165961Y-79027352D01*
X147070723Y-79074971D01*
X147023104Y-79122590D01*
X146975485Y-79217828D01*
X146975485Y-79408304D01*
X147023104Y-79503542D01*
X147070723Y-79551161D01*
X147165961Y-79598780D01*
X147356438Y-79598780D01*
X147451676Y-79551161D01*
X147499295Y-79503542D01*
X147546914Y-79408304D01*
X147546914Y-79217828D01*
X147499295Y-79122590D01*
X147451676Y-79074971D01*
X147356438Y-79027352D01*
%TO.C,D1*%
X162126704Y-94178380D02*
X162126704Y-93178380D01*
X162364800Y-93178380D01*
X162507657Y-93226000D01*
X162602895Y-93321238D01*
X162650514Y-93416476D01*
X162698133Y-93606952D01*
X162698133Y-93749809D01*
X162650514Y-93940285D01*
X162602895Y-94035523D01*
X162507657Y-94130761D01*
X162364800Y-94178380D01*
X162126704Y-94178380D01*
X163650514Y-94178380D02*
X163079085Y-94178380D01*
X163364800Y-94178380D02*
X163364800Y-93178380D01*
X163269561Y-93321238D01*
X163174323Y-93416476D01*
X163079085Y-93464095D01*
%TO.C,D2*%
X148639304Y-75407780D02*
X148639304Y-74407780D01*
X148877400Y-74407780D01*
X149020257Y-74455400D01*
X149115495Y-74550638D01*
X149163114Y-74645876D01*
X149210733Y-74836352D01*
X149210733Y-74979209D01*
X149163114Y-75169685D01*
X149115495Y-75264923D01*
X149020257Y-75360161D01*
X148877400Y-75407780D01*
X148639304Y-75407780D01*
X149591685Y-74503019D02*
X149639304Y-74455400D01*
X149734542Y-74407780D01*
X149972638Y-74407780D01*
X150067876Y-74455400D01*
X150115495Y-74503019D01*
X150163114Y-74598257D01*
X150163114Y-74693495D01*
X150115495Y-74836352D01*
X149544066Y-75407780D01*
X150163114Y-75407780D01*
%TO.C,D3*%
X141857504Y-74315580D02*
X141857504Y-73315580D01*
X142095600Y-73315580D01*
X142238457Y-73363200D01*
X142333695Y-73458438D01*
X142381314Y-73553676D01*
X142428933Y-73744152D01*
X142428933Y-73887009D01*
X142381314Y-74077485D01*
X142333695Y-74172723D01*
X142238457Y-74267961D01*
X142095600Y-74315580D01*
X141857504Y-74315580D01*
X142762266Y-73315580D02*
X143381314Y-73315580D01*
X143047980Y-73696533D01*
X143190838Y-73696533D01*
X143286076Y-73744152D01*
X143333695Y-73791771D01*
X143381314Y-73887009D01*
X143381314Y-74125104D01*
X143333695Y-74220342D01*
X143286076Y-74267961D01*
X143190838Y-74315580D01*
X142905123Y-74315580D01*
X142809885Y-74267961D01*
X142762266Y-74220342D01*
%TO.C,F1*%
X167560666Y-74494571D02*
X167227333Y-74494571D01*
X167227333Y-75018380D02*
X167227333Y-74018380D01*
X167703523Y-74018380D01*
X168608285Y-75018380D02*
X168036857Y-75018380D01*
X168322571Y-75018380D02*
X168322571Y-74018380D01*
X168227333Y-74161238D01*
X168132095Y-74256476D01*
X168036857Y-74304095D01*
%TO.C,FB1*%
X167060666Y-92256571D02*
X166727333Y-92256571D01*
X166727333Y-92780380D02*
X166727333Y-91780380D01*
X167203523Y-91780380D01*
X167917809Y-92256571D02*
X168060666Y-92304190D01*
X168108285Y-92351809D01*
X168155904Y-92447047D01*
X168155904Y-92589904D01*
X168108285Y-92685142D01*
X168060666Y-92732761D01*
X167965428Y-92780380D01*
X167584476Y-92780380D01*
X167584476Y-91780380D01*
X167917809Y-91780380D01*
X168013047Y-91828000D01*
X168060666Y-91875619D01*
X168108285Y-91970857D01*
X168108285Y-92066095D01*
X168060666Y-92161333D01*
X168013047Y-92208952D01*
X167917809Y-92256571D01*
X167584476Y-92256571D01*
X169108285Y-92780380D02*
X168536857Y-92780380D01*
X168822571Y-92780380D02*
X168822571Y-91780380D01*
X168727333Y-91923238D01*
X168632095Y-92018476D01*
X168536857Y-92066095D01*
%TO.C,J1*%
X131645066Y-86904580D02*
X131645066Y-87618866D01*
X131597447Y-87761723D01*
X131502209Y-87856961D01*
X131359352Y-87904580D01*
X131264114Y-87904580D01*
X132645066Y-87904580D02*
X132073638Y-87904580D01*
X132359352Y-87904580D02*
X132359352Y-86904580D01*
X132264114Y-87047438D01*
X132168876Y-87142676D01*
X132073638Y-87190295D01*
%TO.C,J3*%
X135810666Y-81849980D02*
X135810666Y-82564266D01*
X135763047Y-82707123D01*
X135667809Y-82802361D01*
X135524952Y-82849980D01*
X135429714Y-82849980D01*
X136191619Y-81849980D02*
X136810666Y-81849980D01*
X136477333Y-82230933D01*
X136620190Y-82230933D01*
X136715428Y-82278552D01*
X136763047Y-82326171D01*
X136810666Y-82421409D01*
X136810666Y-82659504D01*
X136763047Y-82754742D01*
X136715428Y-82802361D01*
X136620190Y-82849980D01*
X136334476Y-82849980D01*
X136239238Y-82802361D01*
X136191619Y-82754742D01*
%TO.C,J4*%
X152803266Y-92060780D02*
X152803266Y-92775066D01*
X152755647Y-92917923D01*
X152660409Y-93013161D01*
X152517552Y-93060780D01*
X152422314Y-93060780D01*
X153708028Y-92394114D02*
X153708028Y-93060780D01*
X153469933Y-92013161D02*
X153231838Y-92727447D01*
X153850885Y-92727447D01*
%TO.C,J5*%
X145615066Y-92060780D02*
X145615066Y-92775066D01*
X145567447Y-92917923D01*
X145472209Y-93013161D01*
X145329352Y-93060780D01*
X145234114Y-93060780D01*
X146567447Y-92060780D02*
X146091257Y-92060780D01*
X146043638Y-92536971D01*
X146091257Y-92489352D01*
X146186495Y-92441733D01*
X146424590Y-92441733D01*
X146519828Y-92489352D01*
X146567447Y-92536971D01*
X146615066Y-92632209D01*
X146615066Y-92870304D01*
X146567447Y-92965542D01*
X146519828Y-93013161D01*
X146424590Y-93060780D01*
X146186495Y-93060780D01*
X146091257Y-93013161D01*
X146043638Y-92965542D01*
%TO.C,J6*%
X140281066Y-74077580D02*
X140281066Y-74791866D01*
X140233447Y-74934723D01*
X140138209Y-75029961D01*
X139995352Y-75077580D01*
X139900114Y-75077580D01*
X141185828Y-74077580D02*
X140995352Y-74077580D01*
X140900114Y-74125200D01*
X140852495Y-74172819D01*
X140757257Y-74315676D01*
X140709638Y-74506152D01*
X140709638Y-74887104D01*
X140757257Y-74982342D01*
X140804876Y-75029961D01*
X140900114Y-75077580D01*
X141090590Y-75077580D01*
X141185828Y-75029961D01*
X141233447Y-74982342D01*
X141281066Y-74887104D01*
X141281066Y-74649009D01*
X141233447Y-74553771D01*
X141185828Y-74506152D01*
X141090590Y-74458533D01*
X140900114Y-74458533D01*
X140804876Y-74506152D01*
X140757257Y-74553771D01*
X140709638Y-74649009D01*
%TO.C,JP1*%
X166476466Y-97674180D02*
X166476466Y-98388466D01*
X166428847Y-98531323D01*
X166333609Y-98626561D01*
X166190752Y-98674180D01*
X166095514Y-98674180D01*
X166952657Y-98674180D02*
X166952657Y-97674180D01*
X167333609Y-97674180D01*
X167428847Y-97721800D01*
X167476466Y-97769419D01*
X167524085Y-97864657D01*
X167524085Y-98007514D01*
X167476466Y-98102752D01*
X167428847Y-98150371D01*
X167333609Y-98197990D01*
X166952657Y-98197990D01*
X168476466Y-98674180D02*
X167905038Y-98674180D01*
X168190752Y-98674180D02*
X168190752Y-97674180D01*
X168095514Y-97817038D01*
X168000276Y-97912276D01*
X167905038Y-97959895D01*
%TO.C,R1*%
X166279533Y-88361780D02*
X165946200Y-87885590D01*
X165708104Y-88361780D02*
X165708104Y-87361780D01*
X166089057Y-87361780D01*
X166184295Y-87409400D01*
X166231914Y-87457019D01*
X166279533Y-87552257D01*
X166279533Y-87695114D01*
X166231914Y-87790352D01*
X166184295Y-87837971D01*
X166089057Y-87885590D01*
X165708104Y-87885590D01*
X167231914Y-88361780D02*
X166660485Y-88361780D01*
X166946200Y-88361780D02*
X166946200Y-87361780D01*
X166850961Y-87504638D01*
X166755723Y-87599876D01*
X166660485Y-87647495D01*
%TO.C,R2*%
X166203333Y-82622380D02*
X165870000Y-82146190D01*
X165631904Y-82622380D02*
X165631904Y-81622380D01*
X166012857Y-81622380D01*
X166108095Y-81670000D01*
X166155714Y-81717619D01*
X166203333Y-81812857D01*
X166203333Y-81955714D01*
X166155714Y-82050952D01*
X166108095Y-82098571D01*
X166012857Y-82146190D01*
X165631904Y-82146190D01*
X166584285Y-81717619D02*
X166631904Y-81670000D01*
X166727142Y-81622380D01*
X166965238Y-81622380D01*
X167060476Y-81670000D01*
X167108095Y-81717619D01*
X167155714Y-81812857D01*
X167155714Y-81908095D01*
X167108095Y-82050952D01*
X166536666Y-82622380D01*
X167155714Y-82622380D01*
%TO.C,R3*%
X158791333Y-77980380D02*
X158458000Y-77504190D01*
X158219904Y-77980380D02*
X158219904Y-76980380D01*
X158600857Y-76980380D01*
X158696095Y-77028000D01*
X158743714Y-77075619D01*
X158791333Y-77170857D01*
X158791333Y-77313714D01*
X158743714Y-77408952D01*
X158696095Y-77456571D01*
X158600857Y-77504190D01*
X158219904Y-77504190D01*
X159124666Y-76980380D02*
X159743714Y-76980380D01*
X159410380Y-77361333D01*
X159553238Y-77361333D01*
X159648476Y-77408952D01*
X159696095Y-77456571D01*
X159743714Y-77551809D01*
X159743714Y-77789904D01*
X159696095Y-77885142D01*
X159648476Y-77932761D01*
X159553238Y-77980380D01*
X159267523Y-77980380D01*
X159172285Y-77932761D01*
X159124666Y-77885142D01*
%TO.C,R4*%
X158938933Y-93771980D02*
X158605600Y-93295790D01*
X158367504Y-93771980D02*
X158367504Y-92771980D01*
X158748457Y-92771980D01*
X158843695Y-92819600D01*
X158891314Y-92867219D01*
X158938933Y-92962457D01*
X158938933Y-93105314D01*
X158891314Y-93200552D01*
X158843695Y-93248171D01*
X158748457Y-93295790D01*
X158367504Y-93295790D01*
X159796076Y-93105314D02*
X159796076Y-93771980D01*
X159557980Y-92724361D02*
X159319885Y-93438647D01*
X159938933Y-93438647D01*
%TO.C,R5*%
X144613333Y-85821780D02*
X144280000Y-85345590D01*
X144041904Y-85821780D02*
X144041904Y-84821780D01*
X144422857Y-84821780D01*
X144518095Y-84869400D01*
X144565714Y-84917019D01*
X144613333Y-85012257D01*
X144613333Y-85155114D01*
X144565714Y-85250352D01*
X144518095Y-85297971D01*
X144422857Y-85345590D01*
X144041904Y-85345590D01*
X145518095Y-84821780D02*
X145041904Y-84821780D01*
X144994285Y-85297971D01*
X145041904Y-85250352D01*
X145137142Y-85202733D01*
X145375238Y-85202733D01*
X145470476Y-85250352D01*
X145518095Y-85297971D01*
X145565714Y-85393209D01*
X145565714Y-85631304D01*
X145518095Y-85726542D01*
X145470476Y-85774161D01*
X145375238Y-85821780D01*
X145137142Y-85821780D01*
X145041904Y-85774161D01*
X144994285Y-85726542D01*
%TO.C,R6*%
X147153333Y-68168780D02*
X146820000Y-67692590D01*
X146581904Y-68168780D02*
X146581904Y-67168780D01*
X146962857Y-67168780D01*
X147058095Y-67216400D01*
X147105714Y-67264019D01*
X147153333Y-67359257D01*
X147153333Y-67502114D01*
X147105714Y-67597352D01*
X147058095Y-67644971D01*
X146962857Y-67692590D01*
X146581904Y-67692590D01*
X148010476Y-67168780D02*
X147820000Y-67168780D01*
X147724761Y-67216400D01*
X147677142Y-67264019D01*
X147581904Y-67406876D01*
X147534285Y-67597352D01*
X147534285Y-67978304D01*
X147581904Y-68073542D01*
X147629523Y-68121161D01*
X147724761Y-68168780D01*
X147915238Y-68168780D01*
X148010476Y-68121161D01*
X148058095Y-68073542D01*
X148105714Y-67978304D01*
X148105714Y-67740209D01*
X148058095Y-67644971D01*
X148010476Y-67597352D01*
X147915238Y-67549733D01*
X147724761Y-67549733D01*
X147629523Y-67597352D01*
X147581904Y-67644971D01*
X147534285Y-67740209D01*
%TO.C,R7*%
X144689533Y-68219580D02*
X144356200Y-67743390D01*
X144118104Y-68219580D02*
X144118104Y-67219580D01*
X144499057Y-67219580D01*
X144594295Y-67267200D01*
X144641914Y-67314819D01*
X144689533Y-67410057D01*
X144689533Y-67552914D01*
X144641914Y-67648152D01*
X144594295Y-67695771D01*
X144499057Y-67743390D01*
X144118104Y-67743390D01*
X145022866Y-67219580D02*
X145689533Y-67219580D01*
X145260961Y-68219580D01*
%TO.C,VR1*%
X169022876Y-84593180D02*
X169356209Y-85593180D01*
X169689542Y-84593180D01*
X170594304Y-85593180D02*
X170260971Y-85116990D01*
X170022876Y-85593180D02*
X170022876Y-84593180D01*
X170403828Y-84593180D01*
X170499066Y-84640800D01*
X170546685Y-84688419D01*
X170594304Y-84783657D01*
X170594304Y-84926514D01*
X170546685Y-85021752D01*
X170499066Y-85069371D01*
X170403828Y-85116990D01*
X170022876Y-85116990D01*
X171546685Y-85593180D02*
X170975257Y-85593180D01*
X171260971Y-85593180D02*
X171260971Y-84593180D01*
X171165733Y-84736038D01*
X171070495Y-84831276D01*
X170975257Y-84878895D01*
%TO.C,Y1*%
X158451609Y-72803990D02*
X158451609Y-73280180D01*
X158118276Y-72280180D02*
X158451609Y-72803990D01*
X158784942Y-72280180D01*
X159642085Y-73280180D02*
X159070657Y-73280180D01*
X159356371Y-73280180D02*
X159356371Y-72280180D01*
X159261133Y-72423038D01*
X159165895Y-72518276D01*
X159070657Y-72565895D01*
%TO.C,J2*%
X173097866Y-74585580D02*
X173097866Y-75299866D01*
X173050247Y-75442723D01*
X172955009Y-75537961D01*
X172812152Y-75585580D01*
X172716914Y-75585580D01*
X173526438Y-74680819D02*
X173574057Y-74633200D01*
X173669295Y-74585580D01*
X173907390Y-74585580D01*
X174002628Y-74633200D01*
X174050247Y-74680819D01*
X174097866Y-74776057D01*
X174097866Y-74871295D01*
X174050247Y-75014152D01*
X173478819Y-75585580D01*
X174097866Y-75585580D01*
%TO.C,U1*%
X149199695Y-79081380D02*
X149199695Y-79890904D01*
X149247314Y-79986142D01*
X149294933Y-80033761D01*
X149390171Y-80081380D01*
X149580647Y-80081380D01*
X149675885Y-80033761D01*
X149723504Y-79986142D01*
X149771123Y-79890904D01*
X149771123Y-79081380D01*
X150771123Y-80081380D02*
X150199695Y-80081380D01*
X150485409Y-80081380D02*
X150485409Y-79081380D01*
X150390171Y-79224238D01*
X150294933Y-79319476D01*
X150199695Y-79367095D01*
%TO.C,VR2*%
X168972076Y-79563980D02*
X169305409Y-80563980D01*
X169638742Y-79563980D01*
X170543504Y-80563980D02*
X170210171Y-80087790D01*
X169972076Y-80563980D02*
X169972076Y-79563980D01*
X170353028Y-79563980D01*
X170448266Y-79611600D01*
X170495885Y-79659219D01*
X170543504Y-79754457D01*
X170543504Y-79897314D01*
X170495885Y-79992552D01*
X170448266Y-80040171D01*
X170353028Y-80087790D01*
X169972076Y-80087790D01*
X170924457Y-79659219D02*
X170972076Y-79611600D01*
X171067314Y-79563980D01*
X171305409Y-79563980D01*
X171400647Y-79611600D01*
X171448266Y-79659219D01*
X171495885Y-79754457D01*
X171495885Y-79849695D01*
X171448266Y-79992552D01*
X170876838Y-80563980D01*
X171495885Y-80563980D01*
%TO.C,C6*%
X162190133Y-79909942D02*
X162142514Y-79957561D01*
X161999657Y-80005180D01*
X161904419Y-80005180D01*
X161761561Y-79957561D01*
X161666323Y-79862323D01*
X161618704Y-79767085D01*
X161571085Y-79576609D01*
X161571085Y-79433752D01*
X161618704Y-79243276D01*
X161666323Y-79148038D01*
X161761561Y-79052800D01*
X161904419Y-79005180D01*
X161999657Y-79005180D01*
X162142514Y-79052800D01*
X162190133Y-79100419D01*
X163047276Y-79005180D02*
X162856800Y-79005180D01*
X162761561Y-79052800D01*
X162713942Y-79100419D01*
X162618704Y-79243276D01*
X162571085Y-79433752D01*
X162571085Y-79814704D01*
X162618704Y-79909942D01*
X162666323Y-79957561D01*
X162761561Y-80005180D01*
X162952038Y-80005180D01*
X163047276Y-79957561D01*
X163094895Y-79909942D01*
X163142514Y-79814704D01*
X163142514Y-79576609D01*
X163094895Y-79481371D01*
X163047276Y-79433752D01*
X162952038Y-79386133D01*
X162761561Y-79386133D01*
X162666323Y-79433752D01*
X162618704Y-79481371D01*
X162571085Y-79576609D01*
D11*
%TO.C,C1*%
X127639837Y-90634400D02*
X126575400Y-91698837D01*
X133345400Y-89394400D02*
X133345400Y-90394400D01*
X135095400Y-99154400D02*
X132345400Y-99154400D01*
X127639837Y-90634400D02*
X129325400Y-90634400D01*
X126575400Y-99154400D02*
X129325400Y-99154400D01*
X126575400Y-91698837D02*
X126575400Y-99154400D01*
X134030963Y-90634400D02*
X135095400Y-91698837D01*
X135095400Y-91698837D02*
X135095400Y-99154400D01*
X133845400Y-89894400D02*
X132845400Y-89894400D01*
X134030963Y-90634400D02*
X132345400Y-90634400D01*
%TO.C,C2*%
X122741422Y-90190000D02*
X123258578Y-90190000D01*
X122741422Y-91610000D02*
X123258578Y-91610000D01*
%TO.C,C3*%
X161550000Y-74857422D02*
X161550000Y-75374578D01*
X162970000Y-74857422D02*
X162970000Y-75374578D01*
%TO.C,C4*%
X156620000Y-74857422D02*
X156620000Y-75374578D01*
X155200000Y-74857422D02*
X155200000Y-75374578D01*
%TO.C,C5*%
X164032000Y-88895422D02*
X164032000Y-89412578D01*
X162612000Y-88895422D02*
X162612000Y-89412578D01*
%TO.C,C7*%
X153716222Y-78157000D02*
X154233378Y-78157000D01*
X153716222Y-79577000D02*
X154233378Y-79577000D01*
%TO.C,C8*%
X145464600Y-79227178D02*
X145464600Y-78710022D01*
X144044600Y-79227178D02*
X144044600Y-78710022D01*
%TO.C,D1*%
X163949000Y-99059000D02*
X163949000Y-95174000D01*
X161679000Y-95174000D02*
X161679000Y-99059000D01*
X161679000Y-99059000D02*
X163949000Y-99059000D01*
%TO.C,D2*%
X146360000Y-76635000D02*
X148280000Y-76635000D01*
X146360000Y-73950000D02*
X146360000Y-76635000D01*
X148280000Y-76635000D02*
X148280000Y-73950000D01*
%TO.C,D3*%
X143820000Y-76635000D02*
X145740000Y-76635000D01*
X145740000Y-76635000D02*
X145740000Y-73950000D01*
X143820000Y-73950000D02*
X143820000Y-76635000D01*
%TO.C,F1*%
X166507748Y-75506000D02*
X169280252Y-75506000D01*
X166507748Y-78926000D02*
X169280252Y-78926000D01*
%TO.C,FB1*%
X168152578Y-91388000D02*
X167635422Y-91388000D01*
X168152578Y-89968000D02*
X167635422Y-89968000D01*
%TO.C,J1*%
X121300000Y-84200000D02*
X126100000Y-84200000D01*
X123180000Y-73940000D02*
X121840000Y-73940000D01*
X130600000Y-85760000D02*
X132910000Y-85760000D01*
X117990000Y-76640000D02*
X121600000Y-76640000D01*
X130600000Y-76640000D02*
X132910000Y-76640000D01*
X117990000Y-85760000D02*
X121600000Y-85760000D01*
X121300000Y-78200000D02*
X126100000Y-78200000D01*
X124600000Y-85760000D02*
X127600000Y-85760000D01*
X121300000Y-85760000D02*
X121300000Y-76640000D01*
X117990000Y-85760000D02*
X117990000Y-76640000D01*
X121840000Y-73940000D02*
X121840000Y-75840000D01*
X124600000Y-76640000D02*
X127600000Y-76640000D01*
X132910000Y-85760000D02*
X132910000Y-76640000D01*
X126100000Y-84200000D02*
G75*
G03*
X126100000Y-78200000I0J3000000D01*
G01*
%TO.C,J3*%
X134970000Y-78230000D02*
X134970000Y-68010000D01*
X137630000Y-78230000D02*
X137630000Y-68010000D01*
X137630000Y-79500000D02*
X137630000Y-80830000D01*
X137630000Y-80830000D02*
X136300000Y-80830000D01*
X137630000Y-78230000D02*
X134970000Y-78230000D01*
X137630000Y-68010000D02*
X134970000Y-68010000D01*
%TO.C,J4*%
X150562000Y-99120000D02*
X155762000Y-99120000D01*
X153162000Y-93920000D02*
X155762000Y-93920000D01*
X153162000Y-96520000D02*
X153162000Y-93920000D01*
X150562000Y-96520000D02*
X153162000Y-96520000D01*
X150562000Y-93920000D02*
X151892000Y-93920000D01*
X155762000Y-93920000D02*
X155762000Y-99120000D01*
X150562000Y-96520000D02*
X150562000Y-99120000D01*
X150562000Y-95250000D02*
X150562000Y-93920000D01*
%TO.C,J5*%
X139792400Y-99094600D02*
X139792400Y-97764600D01*
X141122400Y-99094600D02*
X139792400Y-99094600D01*
X139792400Y-93894600D02*
X147532400Y-93894600D01*
X147532400Y-99094600D02*
X147532400Y-93894600D01*
X139792400Y-96494600D02*
X139792400Y-93894600D01*
X142392400Y-99094600D02*
X147532400Y-99094600D01*
X142392400Y-99094600D02*
X142392400Y-96494600D01*
X142392400Y-96494600D02*
X139792400Y-96494600D01*
%TO.C,J6*%
X139640000Y-78486000D02*
X139640000Y-91246000D01*
X142300000Y-78486000D02*
X142300000Y-91246000D01*
X139640000Y-91246000D02*
X142300000Y-91246000D01*
X139640000Y-78486000D02*
X142300000Y-78486000D01*
X139640000Y-75886000D02*
X140970000Y-75886000D01*
X139640000Y-77216000D02*
X139640000Y-75886000D01*
%TO.C,JP1*%
X167559000Y-97183400D02*
X166959000Y-97183400D01*
X166259000Y-96483400D02*
X166259000Y-95083400D01*
X168259000Y-95083400D02*
X168259000Y-96483400D01*
X166959000Y-94383400D02*
X167559000Y-94383400D01*
X166959000Y-94383400D02*
G75*
G03*
X166259000Y-95083400I-1J-699999D01*
G01*
X168259000Y-95083400D02*
G75*
G03*
X167559000Y-94383400I-699999J1D01*
G01*
X166259000Y-96483400D02*
G75*
G03*
X166959000Y-97183400I700000J0D01*
G01*
X167559000Y-97183400D02*
G75*
G03*
X168259000Y-96483400I0J700000D01*
G01*
%TO.C,R1*%
X166111422Y-85396000D02*
X166628578Y-85396000D01*
X166111422Y-86816000D02*
X166628578Y-86816000D01*
%TO.C,R2*%
X166111422Y-84530000D02*
X166628578Y-84530000D01*
X166111422Y-83110000D02*
X166628578Y-83110000D01*
%TO.C,R3*%
X159216578Y-76588000D02*
X158699422Y-76588000D01*
X159216578Y-75168000D02*
X158699422Y-75168000D01*
%TO.C,R4*%
X158294000Y-96016578D02*
X158294000Y-95499422D01*
X159714000Y-96016578D02*
X159714000Y-95499422D01*
%TO.C,R5*%
X145464600Y-82545422D02*
X145464600Y-83062578D01*
X144044600Y-82545422D02*
X144044600Y-83062578D01*
%TO.C,R6*%
X148030000Y-69916222D02*
X148030000Y-70433378D01*
X146610000Y-69916222D02*
X146610000Y-70433378D01*
%TO.C,R7*%
X144070000Y-69916222D02*
X144070000Y-70433378D01*
X145490000Y-69916222D02*
X145490000Y-70433378D01*
%TO.C,VR1*%
X170944000Y-87187721D02*
X170944000Y-87513279D01*
X169924000Y-87187721D02*
X169924000Y-87513279D01*
%TO.C,Y1*%
X162127800Y-71827800D02*
X162127800Y-68227800D01*
X162127800Y-68227800D02*
X156227800Y-68227800D01*
X156227800Y-71827800D02*
X162127800Y-71827800D01*
%TO.C,J2*%
X172132000Y-76674000D02*
X175882000Y-76674000D01*
X188752000Y-76674000D02*
X180782000Y-76674000D01*
X171432000Y-81034000D02*
X171432000Y-82034000D01*
X171932000Y-81534000D02*
X171432000Y-81034000D01*
X172132000Y-88894000D02*
X172132000Y-76674000D01*
X188752000Y-88894000D02*
X180782000Y-88894000D01*
X188752000Y-88894000D02*
X188752000Y-76674000D01*
X171432000Y-82034000D02*
X171932000Y-81534000D01*
X172132000Y-88894000D02*
X175882000Y-88894000D01*
D10*
%TO.C,U1*%
X158057000Y-89477000D02*
X157732000Y-89477000D01*
X158057000Y-89477000D02*
X158057000Y-89152000D01*
X150807000Y-82227000D02*
X151132000Y-82227000D01*
X150807000Y-89477000D02*
X151132000Y-89477000D01*
X158057000Y-82227000D02*
X157832000Y-82227000D01*
X158057000Y-82227000D02*
X158057000Y-82552000D01*
X150807000Y-82227000D02*
X150807000Y-82552000D01*
X157832000Y-82227000D02*
X157832000Y-80802000D01*
X150807000Y-89477000D02*
X150807000Y-89152000D01*
D11*
%TO.C,VR2*%
X170944000Y-82484179D02*
X170944000Y-82158621D01*
X169924000Y-82484179D02*
X169924000Y-82158621D01*
%TO.C,C6*%
X161672200Y-82325978D02*
X161672200Y-81808822D01*
X163092200Y-82325978D02*
X163092200Y-81808822D01*
%TD*%
M02*
