%TF.GenerationSoftware,KiCad,Pcbnew,7.0.9-7.0.9~ubuntu23.04.1*%
%TF.CreationDate,2024-02-01T13:59:36+00:00*%
%TF.ProjectId,t1,74312e6b-6963-4616-945f-706362585858,${git_hash}*%
%TF.SameCoordinates,Original*%
%TF.FileFunction,Copper,L2,Inr*%
%TF.FilePolarity,Positive*%
%FSLAX46Y46*%
G04 Gerber Fmt 4.6, Leading zero omitted, Abs format (unit mm)*
G04 Created by KiCad (PCBNEW 7.0.9-7.0.9~ubuntu23.04.1) date 2024-02-01 13:59:36*
%MOMM*%
%LPD*%
G01*
G04 APERTURE LIST*
%TA.AperFunction,ComponentPad*%
%ADD10R,1.700000X1.700000*%
%TD*%
%TA.AperFunction,ComponentPad*%
%ADD11O,1.700000X1.700000*%
%TD*%
%TA.AperFunction,ComponentPad*%
%ADD12R,1.600000X1.600000*%
%TD*%
%TA.AperFunction,ComponentPad*%
%ADD13C,1.600000*%
%TD*%
%TA.AperFunction,ComponentPad*%
%ADD14C,4.000000*%
%TD*%
%TA.AperFunction,ViaPad*%
%ADD15C,0.800000*%
%TD*%
%TA.AperFunction,Conductor*%
%ADD16C,0.508000*%
%TD*%
G04 APERTURE END LIST*
D10*
%TO.N,Net-(J3-Pad1)*%
%TO.C,J3*%
X136300000Y-79500000D03*
D11*
%TO.N,Net-(J3-Pad2)*%
X136300000Y-76960000D03*
%TO.N,Net-(J3-Pad3)*%
X136300000Y-74420000D03*
%TO.N,Net-(J3-Pad4)*%
X136300000Y-71880000D03*
%TO.N,Net-(J3-Pad5)*%
X136300000Y-69340000D03*
%TD*%
D10*
%TO.N,Net-(J4-Pad1)*%
%TO.C,J4*%
X151892000Y-95250000D03*
D11*
%TO.N,Net-(J4-Pad2)*%
X154432000Y-95250000D03*
%TO.N,Net-(J4-Pad3)*%
X151892000Y-97790000D03*
%TO.N,Net-(J4-Pad4)*%
X154432000Y-97790000D03*
%TD*%
D10*
%TO.N,/MISO2*%
%TO.C,J5*%
X141122400Y-97764600D03*
D11*
%TO.N,+5V*%
X141122400Y-95224600D03*
%TO.N,/SCK2*%
X143662400Y-97764600D03*
%TO.N,/MOSI2*%
X143662400Y-95224600D03*
%TO.N,/RESET2*%
X146202400Y-97764600D03*
%TO.N,GND*%
X146202400Y-95224600D03*
%TD*%
D10*
%TO.N,Net-(C8-Pad2)*%
%TO.C,J6*%
X140970000Y-77216000D03*
D11*
%TO.N,Net-(J6-Pad2)*%
X140970000Y-79756000D03*
%TO.N,Net-(J6-Pad3)*%
X140970000Y-82296000D03*
%TO.N,Net-(J6-Pad4)*%
X140970000Y-84836000D03*
%TO.N,Net-(J6-Pad5)*%
X140970000Y-87376000D03*
%TO.N,Net-(J6-Pad6)*%
X140970000Y-89916000D03*
%TD*%
D12*
%TO.N,Net-(F1-Pad2)*%
%TO.C,J2*%
X173482000Y-81534000D03*
D13*
%TO.N,Net-(J2-Pad2)*%
X173482000Y-84034000D03*
%TO.N,Net-(J2-Pad3)*%
X175482000Y-84034000D03*
%TO.N,Earth*%
X175482000Y-81534000D03*
D14*
%TO.N,Net-(FB1-Pad1)*%
X178342000Y-76784000D03*
X178342000Y-88784000D03*
%TD*%
D15*
%TO.N,GND*%
X154355800Y-75793600D03*
X123113800Y-73329800D03*
X129108200Y-77952600D03*
X167259000Y-97942400D03*
X155676600Y-83058000D03*
X163830000Y-76758800D03*
X125349000Y-90906600D03*
X130810000Y-95351600D03*
X129082800Y-73380600D03*
X144830800Y-85064600D03*
X123088400Y-78130400D03*
%TO.N,+5V*%
X159842200Y-98602800D03*
X154533600Y-83286600D03*
X146024600Y-69240400D03*
X159181800Y-81965800D03*
X130835400Y-88900000D03*
X129108200Y-84302600D03*
X121564400Y-89331800D03*
X123139200Y-84404200D03*
%TO.N,Net-(C3-Pad1)*%
X162763200Y-70002400D03*
%TO.N,Net-(C4-Pad1)*%
X155041600Y-70078600D03*
%TO.N,Earth*%
X160680400Y-81153000D03*
X166878000Y-88773000D03*
X160553400Y-86233000D03*
X167233600Y-93522800D03*
X165049200Y-90449400D03*
%TO.N,VBUS*%
X165735000Y-80162400D03*
%TO.N,Net-(FB1-Pad1)*%
X170459400Y-80416400D03*
X172389800Y-88138000D03*
X170561000Y-90678000D03*
%TO.N,Net-(J3-Pad4)*%
X156895800Y-87553800D03*
%TO.N,Net-(J3-Pad3)*%
X156159200Y-88392000D03*
%TO.N,Net-(J3-Pad2)*%
X156286200Y-91694000D03*
%TO.N,Net-(J3-Pad1)*%
X155067000Y-88595200D03*
%TO.N,Net-(J6-Pad6)*%
X152679400Y-88315800D03*
%TO.N,Net-(J6-Pad5)*%
X152069800Y-87223600D03*
%TO.N,Net-(J6-Pad4)*%
X151689100Y-85852000D03*
%TO.N,Net-(J6-Pad3)*%
X150139400Y-81889600D03*
%TO.N,Net-(J6-Pad2)*%
X148595111Y-85389689D03*
%TO.N,Net-(R2-Pad1)*%
X155956000Y-85775802D03*
%TD*%
D16*
%TO.N,Earth*%
X160553400Y-86233000D02*
X161467800Y-86233000D01*
X160680400Y-85445600D02*
X161467800Y-86233000D01*
X176123600Y-85953600D02*
X169722800Y-85953600D01*
X160680400Y-81153000D02*
X160680400Y-85445600D01*
X167233600Y-89128600D02*
X166878000Y-88773000D01*
X166903400Y-88773000D02*
X166878000Y-88773000D01*
X177088800Y-83140800D02*
X177088800Y-84988400D01*
X166878000Y-88773000D02*
X166725600Y-88773000D01*
X177088800Y-84988400D02*
X176123600Y-85953600D01*
X169722800Y-85953600D02*
X166903400Y-88773000D01*
X167233600Y-93522800D02*
X167233600Y-89128600D01*
X166725600Y-88773000D02*
X165049200Y-90449400D01*
X164338000Y-86233000D02*
X166878000Y-88773000D01*
X175482000Y-81534000D02*
X177088800Y-83140800D01*
X161467800Y-86233000D02*
X164338000Y-86233000D01*
%TO.N,Net-(FB1-Pad1)*%
X181178200Y-77927200D02*
X181178200Y-85947800D01*
X171653200Y-79222600D02*
X175903400Y-79222600D01*
X172389800Y-88138000D02*
X172389800Y-88849200D01*
X177696000Y-88138000D02*
X178342000Y-88784000D01*
X175903400Y-79222600D02*
X178342000Y-76784000D01*
X181178200Y-85947800D02*
X178342000Y-88784000D01*
X170459400Y-80416400D02*
X171653200Y-79222600D01*
X180035000Y-76784000D02*
X181178200Y-77927200D01*
X178342000Y-76784000D02*
X180035000Y-76784000D01*
X172389800Y-88849200D02*
X170561000Y-90678000D01*
X172389800Y-88138000D02*
X177696000Y-88138000D01*
%TD*%
%TA.AperFunction,Conductor*%
%TO.N,Earth*%
G36*
X165383820Y-79395002D02*
G01*
X165430313Y-79448658D01*
X165440417Y-79518932D01*
X165410923Y-79583512D01*
X165374257Y-79612565D01*
X165361204Y-79619415D01*
X165360469Y-79619802D01*
X165241501Y-79725200D01*
X165151215Y-79856001D01*
X165151212Y-79856007D01*
X165094849Y-80004620D01*
X165075693Y-80162396D01*
X165075693Y-80162403D01*
X165094849Y-80320179D01*
X165123234Y-80395022D01*
X165151213Y-80468795D01*
X165241502Y-80599601D01*
X165360471Y-80704999D01*
X165360472Y-80704999D01*
X165360474Y-80705001D01*
X165381054Y-80715802D01*
X165501207Y-80778863D01*
X165655529Y-80816900D01*
X165655530Y-80816900D01*
X165814470Y-80816900D01*
X165814471Y-80816900D01*
X165968793Y-80778863D01*
X166109529Y-80704999D01*
X166228498Y-80599601D01*
X166318787Y-80468795D01*
X166375149Y-80320182D01*
X166375149Y-80320181D01*
X166375150Y-80320179D01*
X166394307Y-80162403D01*
X166394307Y-80162396D01*
X166375150Y-80004620D01*
X166339996Y-79911929D01*
X166318787Y-79856005D01*
X166228498Y-79725199D01*
X166109529Y-79619801D01*
X166095744Y-79612566D01*
X166044723Y-79563199D01*
X166028491Y-79494083D01*
X166052202Y-79427163D01*
X166108329Y-79383686D01*
X166154301Y-79375000D01*
X169317400Y-79375000D01*
X169385521Y-79395002D01*
X169432014Y-79448658D01*
X169443400Y-79501000D01*
X169443400Y-80695800D01*
X169790850Y-80695800D01*
X169858971Y-80715802D01*
X169894546Y-80750224D01*
X169965900Y-80853599D01*
X169965901Y-80853600D01*
X169965902Y-80853601D01*
X170084871Y-80958999D01*
X170084872Y-80958999D01*
X170084874Y-80959001D01*
X170122202Y-80978592D01*
X170225607Y-81032863D01*
X170379929Y-81070900D01*
X170379930Y-81070900D01*
X170538870Y-81070900D01*
X170538871Y-81070900D01*
X170693193Y-81032863D01*
X170833929Y-80958999D01*
X170952898Y-80853601D01*
X171024254Y-80750223D01*
X171079412Y-80705524D01*
X171127950Y-80695800D01*
X172301500Y-80695800D01*
X172369621Y-80715802D01*
X172416114Y-80769458D01*
X172427500Y-80821800D01*
X172427500Y-82359063D01*
X172427501Y-82359073D01*
X172442265Y-82433300D01*
X172498516Y-82517484D01*
X172582697Y-82573733D01*
X172582699Y-82573734D01*
X172656933Y-82588500D01*
X174307066Y-82588499D01*
X174307069Y-82588498D01*
X174307073Y-82588498D01*
X174327986Y-82584338D01*
X174381301Y-82573734D01*
X174465484Y-82517484D01*
X174465484Y-82517483D01*
X174469548Y-82514768D01*
X174537301Y-82493552D01*
X174605768Y-82512334D01*
X174628646Y-82530437D01*
X174638019Y-82539810D01*
X174638025Y-82539815D01*
X174825501Y-82671087D01*
X175032926Y-82767811D01*
X175032930Y-82767813D01*
X175132662Y-82794536D01*
X175193285Y-82831488D01*
X175224306Y-82895348D01*
X175215878Y-82965843D01*
X175170675Y-83020590D01*
X175136628Y-83036817D01*
X175076510Y-83055053D01*
X175076508Y-83055054D01*
X174893313Y-83152974D01*
X174893313Y-83152975D01*
X174732747Y-83284747D01*
X174600976Y-83445311D01*
X174593122Y-83460006D01*
X174543369Y-83510654D01*
X174474132Y-83526363D01*
X174407393Y-83502146D01*
X174370878Y-83460006D01*
X174363027Y-83445317D01*
X174363024Y-83445313D01*
X174363023Y-83445311D01*
X174231252Y-83284747D01*
X174070686Y-83152975D01*
X174070686Y-83152974D01*
X173887492Y-83055055D01*
X173827369Y-83036817D01*
X173688718Y-82994758D01*
X173688717Y-82994757D01*
X173688711Y-82994756D01*
X173482003Y-82974398D01*
X173481997Y-82974398D01*
X173275288Y-82994756D01*
X173076507Y-83055055D01*
X172893313Y-83152974D01*
X172893313Y-83152975D01*
X172732747Y-83284747D01*
X172600975Y-83445313D01*
X172600974Y-83445313D01*
X172503055Y-83628507D01*
X172442756Y-83827288D01*
X172422398Y-84033996D01*
X172422398Y-84034003D01*
X172442756Y-84240711D01*
X172442757Y-84240717D01*
X172442758Y-84240718D01*
X172452622Y-84273235D01*
X172503055Y-84439492D01*
X172600974Y-84622686D01*
X172732747Y-84783252D01*
X172893313Y-84915024D01*
X172893313Y-84915025D01*
X172893317Y-84915027D01*
X173076508Y-85012945D01*
X173275282Y-85073242D01*
X173275286Y-85073242D01*
X173275288Y-85073243D01*
X173481997Y-85093602D01*
X173482000Y-85093602D01*
X173482003Y-85093602D01*
X173688711Y-85073243D01*
X173688712Y-85073242D01*
X173688718Y-85073242D01*
X173887492Y-85012945D01*
X174070683Y-84915027D01*
X174070684Y-84915025D01*
X174070686Y-84915025D01*
X174070686Y-84915024D01*
X174231252Y-84783252D01*
X174273588Y-84731665D01*
X174363023Y-84622688D01*
X174363023Y-84622687D01*
X174363027Y-84622683D01*
X174370879Y-84607992D01*
X174420629Y-84557347D01*
X174489865Y-84541636D01*
X174556604Y-84565851D01*
X174593120Y-84607992D01*
X174600973Y-84622683D01*
X174600976Y-84622688D01*
X174732747Y-84783252D01*
X174893313Y-84915024D01*
X174893313Y-84915025D01*
X174893317Y-84915027D01*
X175076508Y-85012945D01*
X175275282Y-85073242D01*
X175275286Y-85073242D01*
X175275288Y-85073243D01*
X175481997Y-85093602D01*
X175482000Y-85093602D01*
X175482003Y-85093602D01*
X175688711Y-85073243D01*
X175688712Y-85073242D01*
X175688718Y-85073242D01*
X175887492Y-85012945D01*
X176070683Y-84915027D01*
X176070684Y-84915025D01*
X176070686Y-84915025D01*
X176070686Y-84915024D01*
X176231252Y-84783252D01*
X176363027Y-84622683D01*
X176460945Y-84439492D01*
X176521242Y-84240718D01*
X176529312Y-84158788D01*
X176541602Y-84034003D01*
X176541602Y-84033996D01*
X176521243Y-83827288D01*
X176521242Y-83827286D01*
X176521242Y-83827282D01*
X176460945Y-83628508D01*
X176377029Y-83471513D01*
X176363025Y-83445313D01*
X176231252Y-83284747D01*
X176070686Y-83152975D01*
X176070686Y-83152974D01*
X175887491Y-83055054D01*
X175887486Y-83055052D01*
X175827372Y-83036817D01*
X175767991Y-82997902D01*
X175739075Y-82933061D01*
X175749806Y-82862880D01*
X175796776Y-82809641D01*
X175831337Y-82794536D01*
X175931069Y-82767813D01*
X175931073Y-82767811D01*
X176138497Y-82671088D01*
X176209888Y-82621099D01*
X176209888Y-82621097D01*
X175587506Y-81998715D01*
X175617199Y-81994446D01*
X175741445Y-81937705D01*
X175844673Y-81848258D01*
X175918519Y-81733351D01*
X175946219Y-81639010D01*
X176569097Y-82261888D01*
X176569099Y-82261888D01*
X176619088Y-82190497D01*
X176715811Y-81983073D01*
X176715813Y-81983068D01*
X176775048Y-81762002D01*
X176794995Y-81534000D01*
X176775048Y-81305997D01*
X176715813Y-81084931D01*
X176715811Y-81084925D01*
X176617945Y-80875050D01*
X176607284Y-80804858D01*
X176636264Y-80740046D01*
X176695684Y-80701189D01*
X176732140Y-80695800D01*
X179477400Y-80695800D01*
X179545521Y-80715802D01*
X179592014Y-80769458D01*
X179603400Y-80821800D01*
X179603400Y-86157800D01*
X179583398Y-86225921D01*
X179529742Y-86272414D01*
X179477400Y-86283800D01*
X169621200Y-86283800D01*
X169621200Y-95378000D01*
X169601198Y-95446121D01*
X169547542Y-95492614D01*
X169495200Y-95504000D01*
X158850600Y-95504000D01*
X158782479Y-95483998D01*
X158735986Y-95430342D01*
X158724600Y-95378000D01*
X158724600Y-82673439D01*
X158744602Y-82605318D01*
X158798258Y-82558825D01*
X158868532Y-82548721D01*
X158909153Y-82561871D01*
X158948007Y-82582263D01*
X159102329Y-82620300D01*
X159102330Y-82620300D01*
X159261270Y-82620300D01*
X159261271Y-82620300D01*
X159415593Y-82582263D01*
X159556329Y-82508399D01*
X159675298Y-82403001D01*
X159765587Y-82272195D01*
X159821949Y-82123582D01*
X159821949Y-82123581D01*
X159821950Y-82123579D01*
X159841107Y-81965803D01*
X159841107Y-81965796D01*
X159821950Y-81808020D01*
X159770173Y-81671498D01*
X159765587Y-81659405D01*
X159675298Y-81528599D01*
X159556329Y-81423201D01*
X159556328Y-81423200D01*
X159556325Y-81423198D01*
X159415597Y-81349339D01*
X159415595Y-81349338D01*
X159415593Y-81349337D01*
X159415591Y-81349336D01*
X159415590Y-81349336D01*
X159261272Y-81311300D01*
X159261271Y-81311300D01*
X159102329Y-81311300D01*
X159102327Y-81311300D01*
X158948009Y-81349336D01*
X158948004Y-81349338D01*
X158909154Y-81369728D01*
X158839540Y-81383674D01*
X158773438Y-81357769D01*
X158731834Y-81300240D01*
X158724600Y-81258160D01*
X158724600Y-79501000D01*
X158744602Y-79432879D01*
X158798258Y-79386386D01*
X158850600Y-79375000D01*
X165315699Y-79375000D01*
X165383820Y-79395002D01*
G37*
%TD.AperFunction*%
%TD*%
%TA.AperFunction,Conductor*%
%TO.N,GND*%
G36*
X181916621Y-65745502D02*
G01*
X181963114Y-65799158D01*
X181974500Y-65851500D01*
X181974500Y-73915000D01*
X181954498Y-73983121D01*
X181900842Y-74029614D01*
X181848500Y-74041000D01*
X169545000Y-74041000D01*
X169545000Y-78918800D01*
X169524998Y-78986921D01*
X169471342Y-79033414D01*
X169419000Y-79044800D01*
X158343600Y-79044800D01*
X158407790Y-96088199D01*
X158407791Y-96088200D01*
X170014208Y-96088200D01*
X170014209Y-96088200D01*
X170003699Y-92131199D01*
X170002536Y-91693335D01*
X170022358Y-91625161D01*
X170075889Y-91578526D01*
X170128536Y-91567000D01*
X181848500Y-91567000D01*
X181916621Y-91587002D01*
X181963114Y-91640658D01*
X181974500Y-91693000D01*
X181974500Y-101148500D01*
X181954498Y-101216621D01*
X181900842Y-101263114D01*
X181848500Y-101274500D01*
X119175590Y-101274500D01*
X119107469Y-101254498D01*
X119060976Y-101200842D01*
X119049590Y-101148683D01*
X119046009Y-98639663D01*
X140017900Y-98639663D01*
X140017901Y-98639673D01*
X140032665Y-98713900D01*
X140088916Y-98798084D01*
X140173097Y-98854333D01*
X140173099Y-98854334D01*
X140247333Y-98869100D01*
X141997466Y-98869099D01*
X141997469Y-98869098D01*
X141997473Y-98869098D01*
X142058870Y-98856886D01*
X142071701Y-98854334D01*
X142155884Y-98798084D01*
X142212134Y-98713901D01*
X142226900Y-98639667D01*
X142226900Y-97764604D01*
X142553168Y-97764604D01*
X142572054Y-97968419D01*
X142598169Y-98060202D01*
X142628072Y-98165301D01*
X142719312Y-98348535D01*
X142719313Y-98348536D01*
X142842666Y-98511884D01*
X142993936Y-98649785D01*
X143167966Y-98757540D01*
X143167968Y-98757540D01*
X143167973Y-98757544D01*
X143358844Y-98831488D01*
X143560053Y-98869100D01*
X143560055Y-98869100D01*
X143764745Y-98869100D01*
X143764747Y-98869100D01*
X143965956Y-98831488D01*
X144156827Y-98757544D01*
X144330862Y-98649786D01*
X144482132Y-98511885D01*
X144605488Y-98348535D01*
X144696728Y-98165301D01*
X144752745Y-97968421D01*
X144769278Y-97790004D01*
X144771632Y-97764604D01*
X144771632Y-97764595D01*
X144752745Y-97560780D01*
X144734345Y-97496111D01*
X144696728Y-97363899D01*
X144605488Y-97180665D01*
X144564938Y-97126968D01*
X144482133Y-97017315D01*
X144330863Y-96879414D01*
X144156833Y-96771659D01*
X144156828Y-96771657D01*
X144156827Y-96771656D01*
X144071970Y-96738782D01*
X143965959Y-96697713D01*
X143965960Y-96697713D01*
X143965957Y-96697712D01*
X143965956Y-96697712D01*
X143764747Y-96660100D01*
X143560053Y-96660100D01*
X143358844Y-96697712D01*
X143358839Y-96697713D01*
X143167977Y-96771654D01*
X143167966Y-96771659D01*
X142993936Y-96879414D01*
X142842666Y-97017315D01*
X142719313Y-97180663D01*
X142628071Y-97363901D01*
X142572054Y-97560780D01*
X142553168Y-97764595D01*
X142553168Y-97764604D01*
X142226900Y-97764604D01*
X142226899Y-96889534D01*
X142226898Y-96889530D01*
X142226898Y-96889526D01*
X142212134Y-96815299D01*
X142182972Y-96771656D01*
X142155884Y-96731116D01*
X142143907Y-96723113D01*
X142071702Y-96674866D01*
X141997467Y-96660100D01*
X140247336Y-96660100D01*
X140247326Y-96660101D01*
X140173099Y-96674865D01*
X140088915Y-96731116D01*
X140032666Y-96815297D01*
X140017900Y-96889530D01*
X140017900Y-98639663D01*
X119046009Y-98639663D01*
X119043668Y-97000000D01*
X121394551Y-97000000D01*
X121414317Y-97251147D01*
X121473126Y-97496109D01*
X121510435Y-97586180D01*
X121569534Y-97728859D01*
X121607001Y-97790000D01*
X121701165Y-97943660D01*
X121701166Y-97943662D01*
X121864775Y-98135224D01*
X122053497Y-98296407D01*
X122056341Y-98298836D01*
X122271141Y-98430466D01*
X122503889Y-98526873D01*
X122748852Y-98585683D01*
X122901155Y-98597669D01*
X122937115Y-98600500D01*
X122937118Y-98600500D01*
X123062885Y-98600500D01*
X123096692Y-98597839D01*
X123251148Y-98585683D01*
X123496111Y-98526873D01*
X123728859Y-98430466D01*
X123943659Y-98298836D01*
X124135224Y-98135224D01*
X124298836Y-97943659D01*
X124430466Y-97728859D01*
X124526873Y-97496111D01*
X124585683Y-97251148D01*
X124605449Y-97000000D01*
X124585683Y-96748852D01*
X124526873Y-96503889D01*
X124430466Y-96271141D01*
X124298836Y-96056341D01*
X124298833Y-96056337D01*
X124135224Y-95864775D01*
X123943662Y-95701166D01*
X123943660Y-95701165D01*
X123943659Y-95701164D01*
X123728859Y-95569534D01*
X123496111Y-95473127D01*
X123496109Y-95473126D01*
X123309887Y-95428419D01*
X123251148Y-95414317D01*
X123204081Y-95410612D01*
X123062885Y-95399500D01*
X123062882Y-95399500D01*
X122937118Y-95399500D01*
X122937115Y-95399500D01*
X122748852Y-95414317D01*
X122503890Y-95473126D01*
X122271142Y-95569533D01*
X122056339Y-95701165D01*
X122056337Y-95701166D01*
X121864775Y-95864775D01*
X121701166Y-96056337D01*
X121701165Y-96056339D01*
X121569533Y-96271142D01*
X121473126Y-96503890D01*
X121414317Y-96748852D01*
X121394551Y-97000000D01*
X119043668Y-97000000D01*
X119041133Y-95224604D01*
X140013168Y-95224604D01*
X140032054Y-95428419D01*
X140081447Y-95602018D01*
X140088072Y-95625301D01*
X140179312Y-95808535D01*
X140179313Y-95808536D01*
X140302666Y-95971884D01*
X140453936Y-96109785D01*
X140627966Y-96217540D01*
X140627968Y-96217540D01*
X140627973Y-96217544D01*
X140818844Y-96291488D01*
X141020053Y-96329100D01*
X141020055Y-96329100D01*
X141224745Y-96329100D01*
X141224747Y-96329100D01*
X141425956Y-96291488D01*
X141616827Y-96217544D01*
X141790862Y-96109786D01*
X141942132Y-95971885D01*
X142065488Y-95808535D01*
X142156728Y-95625301D01*
X142212745Y-95428421D01*
X142219771Y-95352600D01*
X142231632Y-95224604D01*
X142553168Y-95224604D01*
X142572054Y-95428419D01*
X142621447Y-95602018D01*
X142628072Y-95625301D01*
X142719312Y-95808535D01*
X142719313Y-95808536D01*
X142842666Y-95971884D01*
X142993936Y-96109785D01*
X143167966Y-96217540D01*
X143167968Y-96217540D01*
X143167973Y-96217544D01*
X143358844Y-96291488D01*
X143560053Y-96329100D01*
X143560055Y-96329100D01*
X143764745Y-96329100D01*
X143764747Y-96329100D01*
X143965956Y-96291488D01*
X144156827Y-96217544D01*
X144330862Y-96109786D01*
X144482132Y-95971885D01*
X144605488Y-95808535D01*
X144682398Y-95654078D01*
X144730665Y-95602018D01*
X144799419Y-95584315D01*
X144866830Y-95606594D01*
X144911494Y-95661781D01*
X144912963Y-95665652D01*
X145003980Y-95873148D01*
X145127074Y-96061558D01*
X145279497Y-96227134D01*
X145457098Y-96365367D01*
X145457099Y-96365368D01*
X145655028Y-96472482D01*
X145655034Y-96472484D01*
X145766203Y-96510648D01*
X145824139Y-96551684D01*
X145850691Y-96617529D01*
X145837430Y-96687276D01*
X145788566Y-96738782D01*
X145770810Y-96747312D01*
X145707974Y-96771655D01*
X145707966Y-96771659D01*
X145533936Y-96879414D01*
X145382666Y-97017315D01*
X145259313Y-97180663D01*
X145168071Y-97363901D01*
X145112054Y-97560780D01*
X145093168Y-97764595D01*
X145093168Y-97764604D01*
X145112054Y-97968419D01*
X145138169Y-98060202D01*
X145168072Y-98165301D01*
X145259312Y-98348535D01*
X145259313Y-98348536D01*
X145382666Y-98511884D01*
X145533936Y-98649785D01*
X145707966Y-98757540D01*
X145707968Y-98757540D01*
X145707973Y-98757544D01*
X145898844Y-98831488D01*
X146100053Y-98869100D01*
X146100055Y-98869100D01*
X146304745Y-98869100D01*
X146304747Y-98869100D01*
X146505956Y-98831488D01*
X146696827Y-98757544D01*
X146870862Y-98649786D01*
X147022132Y-98511885D01*
X147145488Y-98348535D01*
X147236728Y-98165301D01*
X147292745Y-97968421D01*
X147309278Y-97790004D01*
X150782768Y-97790004D01*
X150801654Y-97993819D01*
X150820542Y-98060202D01*
X150857672Y-98190701D01*
X150948912Y-98373935D01*
X150948913Y-98373936D01*
X151072266Y-98537284D01*
X151223536Y-98675185D01*
X151397566Y-98782940D01*
X151397568Y-98782940D01*
X151397573Y-98782944D01*
X151588444Y-98856888D01*
X151789653Y-98894500D01*
X151789655Y-98894500D01*
X151994345Y-98894500D01*
X151994347Y-98894500D01*
X152195556Y-98856888D01*
X152386427Y-98782944D01*
X152560462Y-98675186D01*
X152711732Y-98537285D01*
X152835088Y-98373935D01*
X152926328Y-98190701D01*
X152982345Y-97993821D01*
X153001232Y-97790004D01*
X153322768Y-97790004D01*
X153341654Y-97993819D01*
X153360542Y-98060202D01*
X153397672Y-98190701D01*
X153488912Y-98373935D01*
X153488913Y-98373936D01*
X153612266Y-98537284D01*
X153763536Y-98675185D01*
X153937566Y-98782940D01*
X153937568Y-98782940D01*
X153937573Y-98782944D01*
X154128444Y-98856888D01*
X154329653Y-98894500D01*
X154329655Y-98894500D01*
X154534345Y-98894500D01*
X154534347Y-98894500D01*
X154735556Y-98856888D01*
X154926427Y-98782944D01*
X155100462Y-98675186D01*
X155179862Y-98602803D01*
X159182893Y-98602803D01*
X159202049Y-98760579D01*
X159238575Y-98856888D01*
X159258413Y-98909195D01*
X159348702Y-99040001D01*
X159467671Y-99145399D01*
X159467672Y-99145399D01*
X159467674Y-99145401D01*
X159542400Y-99184620D01*
X159608407Y-99219263D01*
X159762729Y-99257300D01*
X159762730Y-99257300D01*
X159921670Y-99257300D01*
X159921671Y-99257300D01*
X160075993Y-99219263D01*
X160216729Y-99145399D01*
X160335698Y-99040001D01*
X160425987Y-98909195D01*
X160482349Y-98760582D01*
X160482349Y-98760581D01*
X160482350Y-98760579D01*
X160501507Y-98602803D01*
X160501507Y-98602796D01*
X160482350Y-98445020D01*
X160455391Y-98373936D01*
X160425987Y-98296405D01*
X160335698Y-98165599D01*
X160216729Y-98060201D01*
X160216728Y-98060200D01*
X160216725Y-98060198D01*
X160075997Y-97986339D01*
X160075995Y-97986338D01*
X160075993Y-97986337D01*
X160075991Y-97986336D01*
X160075990Y-97986336D01*
X159921672Y-97948300D01*
X159921671Y-97948300D01*
X159762729Y-97948300D01*
X159762727Y-97948300D01*
X159608409Y-97986336D01*
X159608402Y-97986339D01*
X159467674Y-98060198D01*
X159467669Y-98060202D01*
X159348701Y-98165600D01*
X159258415Y-98296401D01*
X159258412Y-98296407D01*
X159202049Y-98445020D01*
X159182893Y-98602796D01*
X159182893Y-98602803D01*
X155179862Y-98602803D01*
X155251732Y-98537285D01*
X155375088Y-98373935D01*
X155466328Y-98190701D01*
X155522345Y-97993821D01*
X155541232Y-97790000D01*
X155538878Y-97764600D01*
X155522345Y-97586180D01*
X155515118Y-97560779D01*
X155466328Y-97389299D01*
X155375088Y-97206065D01*
X155334538Y-97152368D01*
X155251733Y-97042715D01*
X155204877Y-97000000D01*
X175394551Y-97000000D01*
X175414317Y-97251147D01*
X175473126Y-97496109D01*
X175510435Y-97586180D01*
X175569534Y-97728859D01*
X175607001Y-97790000D01*
X175701165Y-97943660D01*
X175701166Y-97943662D01*
X175864775Y-98135224D01*
X176053497Y-98296407D01*
X176056341Y-98298836D01*
X176271141Y-98430466D01*
X176503889Y-98526873D01*
X176748852Y-98585683D01*
X176901155Y-98597669D01*
X176937115Y-98600500D01*
X176937118Y-98600500D01*
X177062885Y-98600500D01*
X177096692Y-98597839D01*
X177251148Y-98585683D01*
X177496111Y-98526873D01*
X177728859Y-98430466D01*
X177943659Y-98298836D01*
X178135224Y-98135224D01*
X178298836Y-97943659D01*
X178430466Y-97728859D01*
X178526873Y-97496111D01*
X178585683Y-97251148D01*
X178605449Y-97000000D01*
X178585683Y-96748852D01*
X178526873Y-96503889D01*
X178430466Y-96271141D01*
X178298836Y-96056341D01*
X178298833Y-96056337D01*
X178135224Y-95864775D01*
X177943662Y-95701166D01*
X177943660Y-95701165D01*
X177943659Y-95701164D01*
X177728859Y-95569534D01*
X177496111Y-95473127D01*
X177496109Y-95473126D01*
X177309887Y-95428419D01*
X177251148Y-95414317D01*
X177204081Y-95410612D01*
X177062885Y-95399500D01*
X177062882Y-95399500D01*
X176937118Y-95399500D01*
X176937115Y-95399500D01*
X176748852Y-95414317D01*
X176503890Y-95473126D01*
X176271142Y-95569533D01*
X176056339Y-95701165D01*
X176056337Y-95701166D01*
X175864775Y-95864775D01*
X175701166Y-96056337D01*
X175701165Y-96056339D01*
X175569533Y-96271142D01*
X175473126Y-96503890D01*
X175414317Y-96748852D01*
X175394551Y-97000000D01*
X155204877Y-97000000D01*
X155100463Y-96904814D01*
X154926433Y-96797059D01*
X154926428Y-96797057D01*
X154926427Y-96797056D01*
X154860857Y-96771654D01*
X154735559Y-96723113D01*
X154735560Y-96723113D01*
X154735557Y-96723112D01*
X154735556Y-96723112D01*
X154534347Y-96685500D01*
X154329653Y-96685500D01*
X154128444Y-96723112D01*
X154128439Y-96723113D01*
X153937577Y-96797054D01*
X153937566Y-96797059D01*
X153763536Y-96904814D01*
X153612266Y-97042715D01*
X153488913Y-97206063D01*
X153397671Y-97389301D01*
X153341654Y-97586180D01*
X153322768Y-97789995D01*
X153322768Y-97790004D01*
X153001232Y-97790004D01*
X153001232Y-97790000D01*
X152998878Y-97764600D01*
X152982345Y-97586180D01*
X152975118Y-97560779D01*
X152926328Y-97389299D01*
X152835088Y-97206065D01*
X152794538Y-97152368D01*
X152711733Y-97042715D01*
X152560463Y-96904814D01*
X152386433Y-96797059D01*
X152386428Y-96797057D01*
X152386427Y-96797056D01*
X152320857Y-96771654D01*
X152195559Y-96723113D01*
X152195560Y-96723113D01*
X152195557Y-96723112D01*
X152195556Y-96723112D01*
X151994347Y-96685500D01*
X151789653Y-96685500D01*
X151588444Y-96723112D01*
X151588439Y-96723113D01*
X151397577Y-96797054D01*
X151397566Y-96797059D01*
X151223536Y-96904814D01*
X151072266Y-97042715D01*
X150948913Y-97206063D01*
X150857671Y-97389301D01*
X150801654Y-97586180D01*
X150782768Y-97789995D01*
X150782768Y-97790004D01*
X147309278Y-97790004D01*
X147311632Y-97764604D01*
X147311632Y-97764595D01*
X147292745Y-97560780D01*
X147274345Y-97496111D01*
X147236728Y-97363899D01*
X147145488Y-97180665D01*
X147104938Y-97126968D01*
X147022133Y-97017315D01*
X146870863Y-96879414D01*
X146696833Y-96771659D01*
X146696825Y-96771655D01*
X146633989Y-96747312D01*
X146577695Y-96704052D01*
X146553725Y-96637224D01*
X146569690Y-96568046D01*
X146620521Y-96518481D01*
X146638596Y-96510648D01*
X146749765Y-96472484D01*
X146749771Y-96472482D01*
X146947700Y-96365368D01*
X146947701Y-96365367D01*
X147125302Y-96227134D01*
X147219265Y-96125063D01*
X150787500Y-96125063D01*
X150787501Y-96125073D01*
X150802265Y-96199300D01*
X150858516Y-96283484D01*
X150942697Y-96339733D01*
X150942699Y-96339734D01*
X151016933Y-96354500D01*
X152767066Y-96354499D01*
X152767069Y-96354498D01*
X152767073Y-96354498D01*
X152816326Y-96344701D01*
X152841301Y-96339734D01*
X152925484Y-96283484D01*
X152981734Y-96199301D01*
X152996500Y-96125067D01*
X152996500Y-95250004D01*
X153322768Y-95250004D01*
X153341654Y-95453819D01*
X153390444Y-95625298D01*
X153397672Y-95650701D01*
X153488912Y-95833935D01*
X153488913Y-95833936D01*
X153612266Y-95997284D01*
X153763536Y-96135185D01*
X153937566Y-96242940D01*
X153937568Y-96242940D01*
X153937573Y-96242944D01*
X154128444Y-96316888D01*
X154329653Y-96354500D01*
X154329655Y-96354500D01*
X154534345Y-96354500D01*
X154534347Y-96354500D01*
X154735556Y-96316888D01*
X154926427Y-96242944D01*
X155100462Y-96135186D01*
X155251732Y-95997285D01*
X155375088Y-95833935D01*
X155466328Y-95650701D01*
X155522345Y-95453821D01*
X155541232Y-95250000D01*
X155538878Y-95224600D01*
X155522345Y-95046180D01*
X155500841Y-94970600D01*
X155466328Y-94849299D01*
X155375088Y-94666065D01*
X155307113Y-94576051D01*
X155251733Y-94502715D01*
X155100463Y-94364814D01*
X154926433Y-94257059D01*
X154926428Y-94257057D01*
X154926427Y-94257056D01*
X154836105Y-94222065D01*
X154735559Y-94183113D01*
X154735560Y-94183113D01*
X154735557Y-94183112D01*
X154735556Y-94183112D01*
X154534347Y-94145500D01*
X154329653Y-94145500D01*
X154159536Y-94177300D01*
X154128439Y-94183113D01*
X153937577Y-94257054D01*
X153937566Y-94257059D01*
X153763536Y-94364814D01*
X153612266Y-94502715D01*
X153488913Y-94666063D01*
X153397671Y-94849301D01*
X153341654Y-95046180D01*
X153322768Y-95249995D01*
X153322768Y-95250004D01*
X152996500Y-95250004D01*
X152996499Y-94374934D01*
X152996498Y-94374930D01*
X152996498Y-94374926D01*
X152981734Y-94300699D01*
X152935599Y-94231654D01*
X152925484Y-94216516D01*
X152875494Y-94183113D01*
X152841302Y-94160266D01*
X152767067Y-94145500D01*
X151016936Y-94145500D01*
X151016926Y-94145501D01*
X150942699Y-94160265D01*
X150858515Y-94216516D01*
X150802266Y-94300697D01*
X150787500Y-94374930D01*
X150787500Y-96125063D01*
X147219265Y-96125063D01*
X147277725Y-96061558D01*
X147400819Y-95873148D01*
X147491220Y-95667056D01*
X147491223Y-95667049D01*
X147538944Y-95478600D01*
X146633516Y-95478600D01*
X146661893Y-95434444D01*
X146702400Y-95296489D01*
X146702400Y-95152711D01*
X146661893Y-95014756D01*
X146633516Y-94970600D01*
X147538944Y-94970600D01*
X147538944Y-94970599D01*
X147491223Y-94782150D01*
X147491220Y-94782143D01*
X147400819Y-94576051D01*
X147277725Y-94387641D01*
X147125302Y-94222065D01*
X146947701Y-94083832D01*
X146947700Y-94083831D01*
X146749771Y-93976717D01*
X146749769Y-93976716D01*
X146536912Y-93903643D01*
X146536901Y-93903640D01*
X146456400Y-93890206D01*
X146456400Y-94790925D01*
X146344715Y-94739920D01*
X146238163Y-94724600D01*
X146166637Y-94724600D01*
X146060085Y-94739920D01*
X145948400Y-94790925D01*
X145948400Y-93890207D01*
X145948399Y-93890206D01*
X145867898Y-93903640D01*
X145867887Y-93903643D01*
X145655030Y-93976716D01*
X145655028Y-93976717D01*
X145457099Y-94083831D01*
X145457098Y-94083832D01*
X145279497Y-94222065D01*
X145127074Y-94387641D01*
X145003980Y-94576051D01*
X144911484Y-94786920D01*
X144909872Y-94786212D01*
X144873303Y-94837818D01*
X144807453Y-94864357D01*
X144737709Y-94851081D01*
X144686213Y-94802206D01*
X144682405Y-94795135D01*
X144605488Y-94640665D01*
X144556694Y-94576051D01*
X144482133Y-94477315D01*
X144330863Y-94339414D01*
X144156833Y-94231659D01*
X144156828Y-94231657D01*
X144156827Y-94231656D01*
X144117744Y-94216515D01*
X143965959Y-94157713D01*
X143965960Y-94157713D01*
X143965957Y-94157712D01*
X143965956Y-94157712D01*
X143764747Y-94120100D01*
X143560053Y-94120100D01*
X143358844Y-94157712D01*
X143358839Y-94157713D01*
X143167977Y-94231654D01*
X143167966Y-94231659D01*
X142993936Y-94339414D01*
X142842666Y-94477315D01*
X142719313Y-94640663D01*
X142628071Y-94823901D01*
X142572054Y-95020780D01*
X142553168Y-95224595D01*
X142553168Y-95224604D01*
X142231632Y-95224604D01*
X142231632Y-95224595D01*
X142212745Y-95020780D01*
X142198468Y-94970600D01*
X142156728Y-94823899D01*
X142065488Y-94640665D01*
X142016694Y-94576051D01*
X141942133Y-94477315D01*
X141790863Y-94339414D01*
X141616833Y-94231659D01*
X141616828Y-94231657D01*
X141616827Y-94231656D01*
X141577744Y-94216515D01*
X141425959Y-94157713D01*
X141425960Y-94157713D01*
X141425957Y-94157712D01*
X141425956Y-94157712D01*
X141224747Y-94120100D01*
X141020053Y-94120100D01*
X140818844Y-94157712D01*
X140818839Y-94157713D01*
X140627977Y-94231654D01*
X140627966Y-94231659D01*
X140453936Y-94339414D01*
X140302666Y-94477315D01*
X140179313Y-94640663D01*
X140088071Y-94823901D01*
X140032054Y-95020780D01*
X140013168Y-95224595D01*
X140013168Y-95224604D01*
X119041133Y-95224604D01*
X119036093Y-91694003D01*
X155626893Y-91694003D01*
X155646049Y-91851779D01*
X155694647Y-91979919D01*
X155702413Y-92000395D01*
X155792702Y-92131201D01*
X155911671Y-92236599D01*
X155911672Y-92236599D01*
X155911674Y-92236601D01*
X155986400Y-92275820D01*
X156052407Y-92310463D01*
X156206729Y-92348500D01*
X156206730Y-92348500D01*
X156365670Y-92348500D01*
X156365671Y-92348500D01*
X156519993Y-92310463D01*
X156660729Y-92236599D01*
X156779698Y-92131201D01*
X156869987Y-92000395D01*
X156926349Y-91851782D01*
X156926349Y-91851781D01*
X156926350Y-91851779D01*
X156945507Y-91694003D01*
X156945507Y-91693996D01*
X156926350Y-91536220D01*
X156909271Y-91491187D01*
X156869987Y-91387605D01*
X156779698Y-91256799D01*
X156660729Y-91151401D01*
X156660728Y-91151400D01*
X156660725Y-91151398D01*
X156519997Y-91077539D01*
X156519995Y-91077538D01*
X156519993Y-91077537D01*
X156519991Y-91077536D01*
X156519990Y-91077536D01*
X156365672Y-91039500D01*
X156365671Y-91039500D01*
X156206729Y-91039500D01*
X156206727Y-91039500D01*
X156052409Y-91077536D01*
X156052402Y-91077539D01*
X155911674Y-91151398D01*
X155911669Y-91151402D01*
X155792701Y-91256800D01*
X155702415Y-91387601D01*
X155702412Y-91387607D01*
X155646049Y-91536220D01*
X155626893Y-91693996D01*
X155626893Y-91694003D01*
X119036093Y-91694003D01*
X119032721Y-89331803D01*
X120905093Y-89331803D01*
X120924249Y-89489579D01*
X120948871Y-89554499D01*
X120980613Y-89638195D01*
X121070902Y-89769001D01*
X121189871Y-89874399D01*
X121189872Y-89874399D01*
X121189874Y-89874401D01*
X121251608Y-89906801D01*
X121330607Y-89948263D01*
X121484929Y-89986300D01*
X121484930Y-89986300D01*
X121643870Y-89986300D01*
X121643871Y-89986300D01*
X121798193Y-89948263D01*
X121859657Y-89916004D01*
X139860768Y-89916004D01*
X139879654Y-90119819D01*
X139879655Y-90119821D01*
X139935672Y-90316701D01*
X140026912Y-90499935D01*
X140026913Y-90499936D01*
X140150266Y-90663284D01*
X140301536Y-90801185D01*
X140475566Y-90908940D01*
X140475568Y-90908940D01*
X140475573Y-90908944D01*
X140666444Y-90982888D01*
X140867653Y-91020500D01*
X140867655Y-91020500D01*
X141072345Y-91020500D01*
X141072347Y-91020500D01*
X141273556Y-90982888D01*
X141464427Y-90908944D01*
X141638462Y-90801186D01*
X141789732Y-90663285D01*
X141913088Y-90499935D01*
X142004328Y-90316701D01*
X142060345Y-90119821D01*
X142072718Y-89986299D01*
X142079232Y-89916004D01*
X142079232Y-89915995D01*
X142060345Y-89712180D01*
X142060345Y-89712179D01*
X142004328Y-89515299D01*
X141913088Y-89332065D01*
X141818187Y-89206395D01*
X141789733Y-89168715D01*
X141638463Y-89030814D01*
X141464433Y-88923059D01*
X141464428Y-88923057D01*
X141464427Y-88923056D01*
X141409022Y-88901592D01*
X141273559Y-88849113D01*
X141273560Y-88849113D01*
X141273557Y-88849112D01*
X141273556Y-88849112D01*
X141072347Y-88811500D01*
X140867653Y-88811500D01*
X140728473Y-88837517D01*
X140666439Y-88849113D01*
X140475577Y-88923054D01*
X140475566Y-88923059D01*
X140301536Y-89030814D01*
X140150266Y-89168715D01*
X140026913Y-89332063D01*
X139935671Y-89515301D01*
X139879654Y-89712180D01*
X139860768Y-89915995D01*
X139860768Y-89916004D01*
X121859657Y-89916004D01*
X121938929Y-89874399D01*
X122057898Y-89769001D01*
X122148187Y-89638195D01*
X122204549Y-89489582D01*
X122204549Y-89489581D01*
X122204550Y-89489579D01*
X122223707Y-89331803D01*
X122223707Y-89331796D01*
X122204550Y-89174020D01*
X122190812Y-89137797D01*
X122148187Y-89025405D01*
X122061628Y-88900003D01*
X130176093Y-88900003D01*
X130195249Y-89057779D01*
X130225598Y-89137801D01*
X130251613Y-89206395D01*
X130341902Y-89337201D01*
X130460871Y-89442599D01*
X130460872Y-89442599D01*
X130460874Y-89442601D01*
X130535600Y-89481820D01*
X130601607Y-89516463D01*
X130755929Y-89554500D01*
X130755930Y-89554500D01*
X130914870Y-89554500D01*
X130914871Y-89554500D01*
X131069193Y-89516463D01*
X131209929Y-89442599D01*
X131328898Y-89337201D01*
X131419187Y-89206395D01*
X131475549Y-89057782D01*
X131475549Y-89057781D01*
X131475550Y-89057779D01*
X131494707Y-88900003D01*
X131494707Y-88899996D01*
X131475550Y-88742220D01*
X131458324Y-88696800D01*
X131419187Y-88593605D01*
X131328898Y-88462799D01*
X131209929Y-88357401D01*
X131209928Y-88357400D01*
X131209925Y-88357398D01*
X131069197Y-88283539D01*
X131069195Y-88283538D01*
X131069193Y-88283537D01*
X131069191Y-88283536D01*
X131069190Y-88283536D01*
X130914872Y-88245500D01*
X130914871Y-88245500D01*
X130755929Y-88245500D01*
X130755927Y-88245500D01*
X130601609Y-88283536D01*
X130601602Y-88283539D01*
X130460874Y-88357398D01*
X130460869Y-88357402D01*
X130341901Y-88462800D01*
X130251615Y-88593601D01*
X130251612Y-88593607D01*
X130195249Y-88742220D01*
X130176093Y-88899996D01*
X130176093Y-88900003D01*
X122061628Y-88900003D01*
X122057898Y-88894599D01*
X121938929Y-88789201D01*
X121938928Y-88789200D01*
X121938925Y-88789198D01*
X121798197Y-88715339D01*
X121798195Y-88715338D01*
X121798193Y-88715337D01*
X121798191Y-88715336D01*
X121798190Y-88715336D01*
X121643872Y-88677300D01*
X121643871Y-88677300D01*
X121484929Y-88677300D01*
X121484927Y-88677300D01*
X121330609Y-88715336D01*
X121330602Y-88715339D01*
X121189874Y-88789198D01*
X121189869Y-88789202D01*
X121070901Y-88894600D01*
X120980615Y-89025401D01*
X120980612Y-89025407D01*
X120924249Y-89174020D01*
X120905093Y-89331796D01*
X120905093Y-89331803D01*
X119032721Y-89331803D01*
X119029929Y-87376004D01*
X139860768Y-87376004D01*
X139879654Y-87579819D01*
X139935341Y-87775537D01*
X139935672Y-87776701D01*
X140026912Y-87959935D01*
X140026913Y-87959936D01*
X140150266Y-88123284D01*
X140301536Y-88261185D01*
X140475566Y-88368940D01*
X140475568Y-88368940D01*
X140475573Y-88368944D01*
X140666444Y-88442888D01*
X140867653Y-88480500D01*
X140867655Y-88480500D01*
X141072345Y-88480500D01*
X141072347Y-88480500D01*
X141273556Y-88442888D01*
X141464427Y-88368944D01*
X141638462Y-88261186D01*
X141789732Y-88123285D01*
X141913088Y-87959935D01*
X142004328Y-87776701D01*
X142060345Y-87579821D01*
X142077377Y-87396018D01*
X142079232Y-87376004D01*
X142079232Y-87375995D01*
X142060345Y-87172180D01*
X142030083Y-87065820D01*
X142004328Y-86975299D01*
X141913088Y-86792065D01*
X141844035Y-86700624D01*
X141789733Y-86628715D01*
X141638463Y-86490814D01*
X141464433Y-86383059D01*
X141464428Y-86383057D01*
X141464427Y-86383056D01*
X141297534Y-86318401D01*
X141273559Y-86309113D01*
X141273560Y-86309113D01*
X141273557Y-86309112D01*
X141273556Y-86309112D01*
X141072347Y-86271500D01*
X140867653Y-86271500D01*
X140666444Y-86309112D01*
X140666439Y-86309113D01*
X140475577Y-86383054D01*
X140475566Y-86383059D01*
X140301536Y-86490814D01*
X140150266Y-86628715D01*
X140026913Y-86792063D01*
X139935671Y-86975301D01*
X139879654Y-87172180D01*
X139860768Y-87375995D01*
X139860768Y-87376004D01*
X119029929Y-87376004D01*
X119025687Y-84404203D01*
X122479893Y-84404203D01*
X122499049Y-84561979D01*
X122547647Y-84690119D01*
X122555413Y-84710595D01*
X122645702Y-84841401D01*
X122764671Y-84946799D01*
X122764672Y-84946799D01*
X122764674Y-84946801D01*
X122839400Y-84986020D01*
X122905407Y-85020663D01*
X123059729Y-85058700D01*
X123059730Y-85058700D01*
X123218670Y-85058700D01*
X123218671Y-85058700D01*
X123372993Y-85020663D01*
X123513729Y-84946799D01*
X123632698Y-84841401D01*
X123722987Y-84710595D01*
X123779349Y-84561982D01*
X123779349Y-84561981D01*
X123779350Y-84561979D01*
X123798507Y-84404203D01*
X123798507Y-84404196D01*
X123786172Y-84302603D01*
X128448893Y-84302603D01*
X128468049Y-84460379D01*
X128506582Y-84561979D01*
X128524413Y-84608995D01*
X128614702Y-84739801D01*
X128733671Y-84845199D01*
X128733672Y-84845199D01*
X128733674Y-84845201D01*
X128808400Y-84884420D01*
X128874407Y-84919063D01*
X129028729Y-84957100D01*
X129028730Y-84957100D01*
X129187670Y-84957100D01*
X129187671Y-84957100D01*
X129341993Y-84919063D01*
X129482729Y-84845199D01*
X129493108Y-84836004D01*
X139860768Y-84836004D01*
X139879654Y-85039819D01*
X139935341Y-85235537D01*
X139935672Y-85236701D01*
X140026912Y-85419935D01*
X140045916Y-85445100D01*
X140150266Y-85583284D01*
X140301536Y-85721185D01*
X140475566Y-85828940D01*
X140475568Y-85828940D01*
X140475573Y-85828944D01*
X140666444Y-85902888D01*
X140867653Y-85940500D01*
X140867655Y-85940500D01*
X141072345Y-85940500D01*
X141072347Y-85940500D01*
X141273556Y-85902888D01*
X141464427Y-85828944D01*
X141638462Y-85721186D01*
X141789732Y-85583285D01*
X141913088Y-85419935D01*
X141928147Y-85389692D01*
X147935804Y-85389692D01*
X147954960Y-85547468D01*
X148000826Y-85668403D01*
X148011324Y-85696084D01*
X148101613Y-85826890D01*
X148220582Y-85932288D01*
X148220583Y-85932288D01*
X148220585Y-85932290D01*
X148295311Y-85971509D01*
X148361318Y-86006152D01*
X148515640Y-86044189D01*
X148515641Y-86044189D01*
X148674581Y-86044189D01*
X148674582Y-86044189D01*
X148828904Y-86006152D01*
X148969640Y-85932288D01*
X149060262Y-85852003D01*
X151029793Y-85852003D01*
X151048949Y-86009779D01*
X151097547Y-86137919D01*
X151105313Y-86158395D01*
X151195602Y-86289201D01*
X151314571Y-86394599D01*
X151314572Y-86394599D01*
X151314574Y-86394601D01*
X151370007Y-86423694D01*
X151455307Y-86468463D01*
X151550411Y-86491904D01*
X151597631Y-86503543D01*
X151658985Y-86539267D01*
X151691287Y-86602490D01*
X151684279Y-86673140D01*
X151651031Y-86720193D01*
X151576304Y-86786396D01*
X151576301Y-86786399D01*
X151486015Y-86917201D01*
X151486012Y-86917207D01*
X151429649Y-87065820D01*
X151410493Y-87223596D01*
X151410493Y-87223603D01*
X151429649Y-87381379D01*
X151472118Y-87493358D01*
X151486013Y-87529995D01*
X151576302Y-87660801D01*
X151695271Y-87766199D01*
X151695272Y-87766199D01*
X151695274Y-87766201D01*
X151770000Y-87805420D01*
X151836007Y-87840063D01*
X151917686Y-87860195D01*
X151994061Y-87879020D01*
X152055415Y-87914744D01*
X152087717Y-87977967D01*
X152081719Y-88046040D01*
X152039249Y-88158020D01*
X152020093Y-88315796D01*
X152020093Y-88315803D01*
X152039249Y-88473579D01*
X152085375Y-88595200D01*
X152095613Y-88622195D01*
X152185902Y-88753001D01*
X152304871Y-88858399D01*
X152304872Y-88858399D01*
X152304874Y-88858401D01*
X152350593Y-88882396D01*
X152445607Y-88932263D01*
X152599929Y-88970300D01*
X152599930Y-88970300D01*
X152758870Y-88970300D01*
X152758871Y-88970300D01*
X152913193Y-88932263D01*
X153053929Y-88858399D01*
X153172898Y-88753001D01*
X153263187Y-88622195D01*
X153273424Y-88595203D01*
X154407693Y-88595203D01*
X154426849Y-88752979D01*
X154483212Y-88901592D01*
X154483215Y-88901598D01*
X154496161Y-88920353D01*
X154573502Y-89032401D01*
X154692471Y-89137799D01*
X154692472Y-89137799D01*
X154692474Y-89137801D01*
X154751376Y-89168715D01*
X154833207Y-89211663D01*
X154987529Y-89249700D01*
X154987530Y-89249700D01*
X155146470Y-89249700D01*
X155146471Y-89249700D01*
X155300793Y-89211663D01*
X155441529Y-89137799D01*
X155560498Y-89032401D01*
X155606985Y-88965052D01*
X155662143Y-88920353D01*
X155732712Y-88912570D01*
X155777880Y-88931135D01*
X155777922Y-88931057D01*
X155778761Y-88931497D01*
X155782261Y-88932936D01*
X155784667Y-88934597D01*
X155784671Y-88934599D01*
X155925407Y-89008463D01*
X156079729Y-89046500D01*
X156079730Y-89046500D01*
X156238670Y-89046500D01*
X156238671Y-89046500D01*
X156392993Y-89008463D01*
X156533729Y-88934599D01*
X156652698Y-88829201D01*
X156742987Y-88698395D01*
X156799349Y-88549782D01*
X156799349Y-88549781D01*
X156799350Y-88549779D01*
X156818507Y-88392003D01*
X156818507Y-88391994D01*
X156813346Y-88349486D01*
X156824991Y-88279451D01*
X156872652Y-88226830D01*
X156938427Y-88208300D01*
X156975270Y-88208300D01*
X156975271Y-88208300D01*
X157129593Y-88170263D01*
X157270329Y-88096399D01*
X157389298Y-87991001D01*
X157479587Y-87860195D01*
X157535949Y-87711582D01*
X157535949Y-87711581D01*
X157535950Y-87711579D01*
X157555107Y-87553803D01*
X157555107Y-87553796D01*
X157535950Y-87396020D01*
X157522338Y-87360131D01*
X157479587Y-87247405D01*
X157389298Y-87116599D01*
X157270329Y-87011201D01*
X157270328Y-87011200D01*
X157270325Y-87011198D01*
X157129597Y-86937339D01*
X157129595Y-86937338D01*
X157129593Y-86937337D01*
X157129591Y-86937336D01*
X157129590Y-86937336D01*
X156975272Y-86899300D01*
X156975271Y-86899300D01*
X156816329Y-86899300D01*
X156816327Y-86899300D01*
X156662009Y-86937336D01*
X156662002Y-86937339D01*
X156521274Y-87011198D01*
X156521269Y-87011202D01*
X156402301Y-87116600D01*
X156312015Y-87247401D01*
X156312012Y-87247407D01*
X156255649Y-87396020D01*
X156236493Y-87553796D01*
X156236493Y-87553805D01*
X156241654Y-87596314D01*
X156230009Y-87666349D01*
X156182348Y-87718970D01*
X156116573Y-87737500D01*
X156079727Y-87737500D01*
X155925409Y-87775536D01*
X155925402Y-87775539D01*
X155784674Y-87849398D01*
X155784669Y-87849402D01*
X155665700Y-87954800D01*
X155619215Y-88022147D01*
X155564057Y-88066847D01*
X155493488Y-88074630D01*
X155448319Y-88056064D01*
X155448278Y-88056143D01*
X155447438Y-88055702D01*
X155443939Y-88054264D01*
X155441532Y-88052602D01*
X155300791Y-87978736D01*
X155146472Y-87940700D01*
X155146471Y-87940700D01*
X154987529Y-87940700D01*
X154987527Y-87940700D01*
X154833209Y-87978736D01*
X154833202Y-87978739D01*
X154692474Y-88052598D01*
X154692469Y-88052602D01*
X154573501Y-88158000D01*
X154483215Y-88288801D01*
X154483212Y-88288807D01*
X154426849Y-88437420D01*
X154407693Y-88595196D01*
X154407693Y-88595203D01*
X153273424Y-88595203D01*
X153319549Y-88473582D01*
X153319549Y-88473581D01*
X153319550Y-88473579D01*
X153338707Y-88315803D01*
X153338707Y-88315796D01*
X153319550Y-88158020D01*
X153305938Y-88122131D01*
X153263187Y-88009405D01*
X153172898Y-87878599D01*
X153053929Y-87773201D01*
X153053928Y-87773200D01*
X153053925Y-87773198D01*
X152913197Y-87699339D01*
X152913195Y-87699338D01*
X152913193Y-87699337D01*
X152913191Y-87699336D01*
X152913183Y-87699333D01*
X152755138Y-87660378D01*
X152693783Y-87624655D01*
X152661482Y-87561432D01*
X152667480Y-87493360D01*
X152709949Y-87381382D01*
X152714738Y-87341936D01*
X152729107Y-87223603D01*
X152729107Y-87223596D01*
X152709950Y-87065820D01*
X152675619Y-86975299D01*
X152653587Y-86917205D01*
X152563298Y-86786399D01*
X152444329Y-86681001D01*
X152444328Y-86681000D01*
X152444325Y-86680998D01*
X152303597Y-86607139D01*
X152303596Y-86607138D01*
X152303593Y-86607137D01*
X152303589Y-86607136D01*
X152303584Y-86607134D01*
X152161267Y-86572055D01*
X152099913Y-86536332D01*
X152067612Y-86473109D01*
X152074620Y-86402459D01*
X152107866Y-86355408D01*
X152182598Y-86289201D01*
X152272887Y-86158395D01*
X152329249Y-86009782D01*
X152329249Y-86009781D01*
X152329250Y-86009779D01*
X152348407Y-85852003D01*
X152348407Y-85851996D01*
X152339156Y-85775805D01*
X155296693Y-85775805D01*
X155315849Y-85933581D01*
X155344748Y-86009779D01*
X155372213Y-86082197D01*
X155462502Y-86213003D01*
X155581471Y-86318401D01*
X155581472Y-86318401D01*
X155581474Y-86318403D01*
X155620490Y-86338880D01*
X155722207Y-86392265D01*
X155876529Y-86430302D01*
X155876530Y-86430302D01*
X156035470Y-86430302D01*
X156035471Y-86430302D01*
X156189793Y-86392265D01*
X156330529Y-86318401D01*
X156449498Y-86213003D01*
X156539787Y-86082197D01*
X156596149Y-85933584D01*
X156596149Y-85933583D01*
X156596150Y-85933581D01*
X156615307Y-85775805D01*
X156615307Y-85775798D01*
X156596150Y-85618022D01*
X156577300Y-85568320D01*
X156539787Y-85469407D01*
X156449498Y-85338601D01*
X156330529Y-85233203D01*
X156330528Y-85233202D01*
X156330525Y-85233200D01*
X156189797Y-85159341D01*
X156189795Y-85159340D01*
X156189793Y-85159339D01*
X156189791Y-85159338D01*
X156189790Y-85159338D01*
X156035472Y-85121302D01*
X156035471Y-85121302D01*
X155876529Y-85121302D01*
X155876527Y-85121302D01*
X155722209Y-85159338D01*
X155722202Y-85159341D01*
X155581474Y-85233200D01*
X155581469Y-85233204D01*
X155462501Y-85338602D01*
X155372215Y-85469403D01*
X155372212Y-85469409D01*
X155315849Y-85618022D01*
X155296693Y-85775798D01*
X155296693Y-85775805D01*
X152339156Y-85775805D01*
X152329250Y-85694220D01*
X152300351Y-85618022D01*
X152272887Y-85545605D01*
X152182598Y-85414799D01*
X152063629Y-85309401D01*
X152063628Y-85309400D01*
X152063625Y-85309398D01*
X151922897Y-85235539D01*
X151922895Y-85235538D01*
X151922893Y-85235537D01*
X151922891Y-85235536D01*
X151922890Y-85235536D01*
X151768572Y-85197500D01*
X151768571Y-85197500D01*
X151609629Y-85197500D01*
X151609627Y-85197500D01*
X151455309Y-85235536D01*
X151455302Y-85235539D01*
X151314574Y-85309398D01*
X151314569Y-85309402D01*
X151195601Y-85414800D01*
X151105315Y-85545601D01*
X151105312Y-85545607D01*
X151048949Y-85694220D01*
X151029793Y-85851996D01*
X151029793Y-85852003D01*
X149060262Y-85852003D01*
X149088609Y-85826890D01*
X149178898Y-85696084D01*
X149235260Y-85547471D01*
X149235260Y-85547470D01*
X149235261Y-85547468D01*
X149254418Y-85389692D01*
X149254418Y-85389685D01*
X149235261Y-85231909D01*
X149197800Y-85133134D01*
X149178898Y-85083294D01*
X149088609Y-84952488D01*
X148969640Y-84847090D01*
X148969639Y-84847089D01*
X148969636Y-84847087D01*
X148828908Y-84773228D01*
X148828906Y-84773227D01*
X148828904Y-84773226D01*
X148828902Y-84773225D01*
X148828901Y-84773225D01*
X148674583Y-84735189D01*
X148674582Y-84735189D01*
X148515640Y-84735189D01*
X148515638Y-84735189D01*
X148361320Y-84773225D01*
X148361313Y-84773228D01*
X148220585Y-84847087D01*
X148220580Y-84847091D01*
X148101612Y-84952489D01*
X148011326Y-85083290D01*
X148011323Y-85083296D01*
X147954960Y-85231909D01*
X147935804Y-85389685D01*
X147935804Y-85389692D01*
X141928147Y-85389692D01*
X142004328Y-85236701D01*
X142060345Y-85039821D01*
X142071909Y-84915027D01*
X142079232Y-84836004D01*
X142079232Y-84835995D01*
X142060345Y-84632180D01*
X142053749Y-84608998D01*
X142004328Y-84435299D01*
X141913088Y-84252065D01*
X141872538Y-84198368D01*
X141789733Y-84088715D01*
X141638463Y-83950814D01*
X141464433Y-83843059D01*
X141464428Y-83843057D01*
X141464427Y-83843056D01*
X141273559Y-83769113D01*
X141273560Y-83769113D01*
X141273557Y-83769112D01*
X141273556Y-83769112D01*
X141072347Y-83731500D01*
X140867653Y-83731500D01*
X140666444Y-83769112D01*
X140666439Y-83769113D01*
X140475577Y-83843054D01*
X140475566Y-83843059D01*
X140301536Y-83950814D01*
X140150266Y-84088715D01*
X140026913Y-84252063D01*
X139935671Y-84435301D01*
X139879654Y-84632180D01*
X139860768Y-84835995D01*
X139860768Y-84836004D01*
X129493108Y-84836004D01*
X129601698Y-84739801D01*
X129691987Y-84608995D01*
X129748349Y-84460382D01*
X129748349Y-84460381D01*
X129748350Y-84460379D01*
X129767507Y-84302603D01*
X129767507Y-84302596D01*
X129748350Y-84144820D01*
X129727072Y-84088715D01*
X129691987Y-83996205D01*
X129601698Y-83865399D01*
X129482729Y-83760001D01*
X129482728Y-83760000D01*
X129482725Y-83759998D01*
X129341997Y-83686139D01*
X129341995Y-83686138D01*
X129341993Y-83686137D01*
X129341991Y-83686136D01*
X129341990Y-83686136D01*
X129187672Y-83648100D01*
X129187671Y-83648100D01*
X129028729Y-83648100D01*
X129028727Y-83648100D01*
X128874409Y-83686136D01*
X128874402Y-83686139D01*
X128733674Y-83759998D01*
X128733669Y-83760002D01*
X128702361Y-83787739D01*
X128618993Y-83861598D01*
X128614701Y-83865400D01*
X128524415Y-83996201D01*
X128524412Y-83996207D01*
X128468049Y-84144820D01*
X128448893Y-84302596D01*
X128448893Y-84302603D01*
X123786172Y-84302603D01*
X123779350Y-84246420D01*
X123765738Y-84210531D01*
X123722987Y-84097805D01*
X123632698Y-83966999D01*
X123513729Y-83861601D01*
X123513728Y-83861600D01*
X123513725Y-83861598D01*
X123372997Y-83787739D01*
X123372995Y-83787738D01*
X123372993Y-83787737D01*
X123372991Y-83787736D01*
X123372990Y-83787736D01*
X123218672Y-83749700D01*
X123218671Y-83749700D01*
X123059729Y-83749700D01*
X123059727Y-83749700D01*
X122905409Y-83787736D01*
X122905402Y-83787739D01*
X122764674Y-83861598D01*
X122764669Y-83861602D01*
X122645701Y-83967000D01*
X122555415Y-84097801D01*
X122555412Y-84097807D01*
X122499049Y-84246420D01*
X122479893Y-84404196D01*
X122479893Y-84404203D01*
X119025687Y-84404203D01*
X119025500Y-84273050D01*
X119025500Y-81500760D01*
X122199500Y-81500760D01*
X122214925Y-81652433D01*
X122214926Y-81652438D01*
X122233634Y-81712065D01*
X122275840Y-81846586D01*
X122374592Y-82024505D01*
X122507129Y-82178890D01*
X122507136Y-82178897D01*
X122668036Y-82303444D01*
X122668044Y-82303449D01*
X122850723Y-82393058D01*
X122850727Y-82393059D01*
X122850729Y-82393060D01*
X123047715Y-82444063D01*
X123217065Y-82452651D01*
X123250935Y-82454369D01*
X123250935Y-82454368D01*
X123250936Y-82454369D01*
X123452071Y-82423556D01*
X123642887Y-82352886D01*
X123815571Y-82245252D01*
X123815575Y-82245247D01*
X123815579Y-82245245D01*
X123920488Y-82145520D01*
X123963053Y-82105059D01*
X124079295Y-81938049D01*
X124079296Y-81938047D01*
X124079297Y-81938046D01*
X124159539Y-81751061D01*
X124159539Y-81751060D01*
X124159538Y-81751060D01*
X124159540Y-81751058D01*
X124200500Y-81551741D01*
X124200500Y-81256330D01*
X126345710Y-81256330D01*
X126352040Y-81303059D01*
X126375925Y-81479390D01*
X126445484Y-81693467D01*
X126552144Y-81891675D01*
X126552148Y-81891682D01*
X126589125Y-81938049D01*
X126692492Y-82067666D01*
X126862004Y-82215765D01*
X127055236Y-82331215D01*
X127265976Y-82410307D01*
X127265978Y-82410307D01*
X127265980Y-82410308D01*
X127338982Y-82423556D01*
X127487453Y-82450500D01*
X127487454Y-82450500D01*
X127656149Y-82450500D01*
X127656155Y-82450500D01*
X127813759Y-82436315D01*
X127824189Y-82435377D01*
X127824189Y-82435376D01*
X127999507Y-82386991D01*
X128041167Y-82375494D01*
X128041167Y-82375493D01*
X128041170Y-82375493D01*
X128206232Y-82296004D01*
X139860768Y-82296004D01*
X139879654Y-82499819D01*
X139928114Y-82670137D01*
X139935672Y-82696701D01*
X140026912Y-82879935D01*
X140047186Y-82906783D01*
X140150266Y-83043284D01*
X140301536Y-83181185D01*
X140475566Y-83288940D01*
X140475568Y-83288940D01*
X140475573Y-83288944D01*
X140666444Y-83362888D01*
X140867653Y-83400500D01*
X140867655Y-83400500D01*
X141072345Y-83400500D01*
X141072347Y-83400500D01*
X141273556Y-83362888D01*
X141464427Y-83288944D01*
X141468208Y-83286603D01*
X153874293Y-83286603D01*
X153893449Y-83444379D01*
X153942047Y-83572519D01*
X153949813Y-83592995D01*
X154040102Y-83723801D01*
X154159071Y-83829199D01*
X154159072Y-83829199D01*
X154159074Y-83829201D01*
X154220802Y-83861598D01*
X154299807Y-83903063D01*
X154454129Y-83941100D01*
X154454130Y-83941100D01*
X154613070Y-83941100D01*
X154613071Y-83941100D01*
X154767393Y-83903063D01*
X154908129Y-83829199D01*
X155027098Y-83723801D01*
X155117387Y-83592995D01*
X155173749Y-83444382D01*
X155173749Y-83444381D01*
X155173750Y-83444379D01*
X155192907Y-83286603D01*
X155192907Y-83286596D01*
X155173750Y-83128820D01*
X155136878Y-83031599D01*
X155117387Y-82980205D01*
X155027098Y-82849399D01*
X154908129Y-82744001D01*
X154908128Y-82744000D01*
X154908125Y-82743998D01*
X154767397Y-82670139D01*
X154767395Y-82670138D01*
X154767393Y-82670137D01*
X154767391Y-82670136D01*
X154767390Y-82670136D01*
X154613072Y-82632100D01*
X154613071Y-82632100D01*
X154454129Y-82632100D01*
X154454127Y-82632100D01*
X154299809Y-82670136D01*
X154299802Y-82670139D01*
X154159074Y-82743998D01*
X154159069Y-82744002D01*
X154040101Y-82849400D01*
X153949815Y-82980201D01*
X153949812Y-82980207D01*
X153893449Y-83128820D01*
X153874293Y-83286596D01*
X153874293Y-83286603D01*
X141468208Y-83286603D01*
X141638462Y-83181186D01*
X141789732Y-83043285D01*
X141913088Y-82879935D01*
X142004328Y-82696701D01*
X142060345Y-82499821D01*
X142073388Y-82359066D01*
X142079232Y-82296004D01*
X142079232Y-82295995D01*
X142061539Y-82105063D01*
X142060345Y-82092179D01*
X142004328Y-81895299D01*
X142001492Y-81889603D01*
X149480093Y-81889603D01*
X149499249Y-82047379D01*
X149536471Y-82145522D01*
X149555613Y-82195995D01*
X149645902Y-82326801D01*
X149764871Y-82432199D01*
X149764872Y-82432199D01*
X149764874Y-82432201D01*
X149807112Y-82454369D01*
X149905607Y-82506063D01*
X150059929Y-82544100D01*
X150059930Y-82544100D01*
X150218870Y-82544100D01*
X150218871Y-82544100D01*
X150373193Y-82506063D01*
X150513929Y-82432199D01*
X150632898Y-82326801D01*
X150723187Y-82195995D01*
X150779549Y-82047382D01*
X150779549Y-82047381D01*
X150779550Y-82047379D01*
X150798707Y-81889603D01*
X150798707Y-81889596D01*
X150779550Y-81731820D01*
X150749442Y-81652433D01*
X150723187Y-81583205D01*
X150632898Y-81452399D01*
X150513929Y-81347001D01*
X150513928Y-81347000D01*
X150513925Y-81346998D01*
X150373197Y-81273139D01*
X150373195Y-81273138D01*
X150373193Y-81273137D01*
X150373191Y-81273136D01*
X150373190Y-81273136D01*
X150218872Y-81235100D01*
X150218871Y-81235100D01*
X150059929Y-81235100D01*
X150059927Y-81235100D01*
X149905609Y-81273136D01*
X149905602Y-81273139D01*
X149764874Y-81346998D01*
X149764869Y-81347002D01*
X149645901Y-81452400D01*
X149555615Y-81583201D01*
X149555612Y-81583207D01*
X149499249Y-81731820D01*
X149480093Y-81889596D01*
X149480093Y-81889603D01*
X142001492Y-81889603D01*
X141913088Y-81712065D01*
X141819390Y-81587988D01*
X141789733Y-81548715D01*
X141638463Y-81410814D01*
X141464433Y-81303059D01*
X141464428Y-81303057D01*
X141464427Y-81303056D01*
X141387203Y-81273139D01*
X141273559Y-81229113D01*
X141273560Y-81229113D01*
X141273557Y-81229112D01*
X141273556Y-81229112D01*
X141072347Y-81191500D01*
X140867653Y-81191500D01*
X140666444Y-81229112D01*
X140666439Y-81229113D01*
X140475577Y-81303054D01*
X140475566Y-81303059D01*
X140301536Y-81410814D01*
X140150266Y-81548715D01*
X140026913Y-81712063D01*
X139935671Y-81895301D01*
X139879654Y-82092180D01*
X139860768Y-82295995D01*
X139860768Y-82296004D01*
X128206232Y-82296004D01*
X128243973Y-82277829D01*
X128426078Y-82145522D01*
X128581632Y-81982825D01*
X128705635Y-81794968D01*
X128794103Y-81587988D01*
X128844191Y-81368537D01*
X128854290Y-81143670D01*
X128824075Y-80920613D01*
X128817136Y-80899258D01*
X128792321Y-80822886D01*
X128754517Y-80706536D01*
X128725694Y-80652973D01*
X128647855Y-80508324D01*
X128647851Y-80508317D01*
X128541588Y-80375069D01*
X128541583Y-80375063D01*
X135195500Y-80375063D01*
X135195501Y-80375073D01*
X135210265Y-80449300D01*
X135266516Y-80533484D01*
X135350697Y-80589733D01*
X135350699Y-80589734D01*
X135424933Y-80604500D01*
X137175066Y-80604499D01*
X137175069Y-80604498D01*
X137175073Y-80604498D01*
X137224326Y-80594701D01*
X137249301Y-80589734D01*
X137333484Y-80533484D01*
X137389734Y-80449301D01*
X137404500Y-80375067D01*
X137404500Y-79756004D01*
X139860768Y-79756004D01*
X139879654Y-79959819D01*
X139925847Y-80122171D01*
X139935672Y-80156701D01*
X140026912Y-80339935D01*
X140026913Y-80339936D01*
X140150266Y-80503284D01*
X140301536Y-80641185D01*
X140475566Y-80748940D01*
X140475568Y-80748940D01*
X140475573Y-80748944D01*
X140666444Y-80822888D01*
X140867653Y-80860500D01*
X140867655Y-80860500D01*
X141072345Y-80860500D01*
X141072347Y-80860500D01*
X141273556Y-80822888D01*
X141464427Y-80748944D01*
X141638462Y-80641186D01*
X141789732Y-80503285D01*
X141793346Y-80498500D01*
X141830499Y-80449301D01*
X141913088Y-80339935D01*
X142004328Y-80156701D01*
X142060345Y-79959821D01*
X142079232Y-79756000D01*
X142060345Y-79552179D01*
X142004328Y-79355299D01*
X141913088Y-79172065D01*
X141872538Y-79118368D01*
X141789733Y-79008715D01*
X141638463Y-78870814D01*
X141464433Y-78763059D01*
X141464428Y-78763057D01*
X141464427Y-78763056D01*
X141273559Y-78689113D01*
X141273560Y-78689113D01*
X141273557Y-78689112D01*
X141273556Y-78689112D01*
X141072347Y-78651500D01*
X140867653Y-78651500D01*
X140666444Y-78689112D01*
X140666439Y-78689113D01*
X140475577Y-78763054D01*
X140475566Y-78763059D01*
X140301536Y-78870814D01*
X140150266Y-79008715D01*
X140026913Y-79172063D01*
X139935671Y-79355301D01*
X139879654Y-79552180D01*
X139860768Y-79755995D01*
X139860768Y-79756004D01*
X137404500Y-79756004D01*
X137404499Y-78624934D01*
X137404498Y-78624930D01*
X137404498Y-78624926D01*
X137389734Y-78550699D01*
X137333483Y-78466515D01*
X137249302Y-78410266D01*
X137175067Y-78395500D01*
X135424936Y-78395500D01*
X135424926Y-78395501D01*
X135350699Y-78410265D01*
X135266515Y-78466516D01*
X135210266Y-78550697D01*
X135195500Y-78624930D01*
X135195500Y-80375063D01*
X128541583Y-80375063D01*
X128507508Y-80332334D01*
X128337996Y-80184235D01*
X128144764Y-80068785D01*
X127934019Y-79989691D01*
X127744091Y-79955224D01*
X127712547Y-79949500D01*
X127543845Y-79949500D01*
X127512558Y-79952315D01*
X127375810Y-79964622D01*
X127375810Y-79964623D01*
X127158832Y-80024505D01*
X126956031Y-80122168D01*
X126956023Y-80122173D01*
X126773921Y-80254478D01*
X126773920Y-80254479D01*
X126618369Y-80417172D01*
X126494367Y-80605027D01*
X126494363Y-80605035D01*
X126405897Y-80812011D01*
X126405896Y-80812013D01*
X126355809Y-81031461D01*
X126355809Y-81031463D01*
X126348622Y-81191500D01*
X126345710Y-81256330D01*
X124200500Y-81256330D01*
X124200500Y-80899258D01*
X124200499Y-80899239D01*
X124188257Y-80778863D01*
X124185074Y-80747562D01*
X124124159Y-80553412D01*
X124025409Y-80375498D01*
X124025407Y-80375494D01*
X123892870Y-80221109D01*
X123892863Y-80221102D01*
X123731963Y-80096555D01*
X123731955Y-80096550D01*
X123549276Y-80006941D01*
X123480848Y-79989224D01*
X123352285Y-79955937D01*
X123352282Y-79955936D01*
X123352279Y-79955936D01*
X123149064Y-79945630D01*
X122974649Y-79972350D01*
X122947929Y-79976444D01*
X122947924Y-79976446D01*
X122757118Y-80047111D01*
X122757110Y-80047115D01*
X122584433Y-80154744D01*
X122584420Y-80154754D01*
X122436951Y-80294936D01*
X122436944Y-80294944D01*
X122320703Y-80461952D01*
X122320702Y-80461953D01*
X122240460Y-80648938D01*
X122240460Y-80648939D01*
X122199500Y-80848260D01*
X122199500Y-81500760D01*
X119025500Y-81500760D01*
X119025500Y-78091063D01*
X139865500Y-78091063D01*
X139865501Y-78091073D01*
X139880265Y-78165300D01*
X139936516Y-78249484D01*
X140020697Y-78305733D01*
X140020699Y-78305734D01*
X140094933Y-78320500D01*
X141845066Y-78320499D01*
X141845069Y-78320498D01*
X141845073Y-78320498D01*
X141894326Y-78310701D01*
X141919301Y-78305734D01*
X142003484Y-78249484D01*
X142059734Y-78165301D01*
X142074500Y-78091067D01*
X142074499Y-76340934D01*
X142074498Y-76340930D01*
X142074498Y-76340926D01*
X142059734Y-76266699D01*
X142059733Y-76266697D01*
X142003484Y-76182516D01*
X142003483Y-76182515D01*
X141919302Y-76126266D01*
X141845067Y-76111500D01*
X140094936Y-76111500D01*
X140094926Y-76111501D01*
X140020699Y-76126265D01*
X139936515Y-76182516D01*
X139880266Y-76266697D01*
X139865500Y-76340930D01*
X139865500Y-78091063D01*
X119025500Y-78091063D01*
X119025500Y-76960004D01*
X135190768Y-76960004D01*
X135209654Y-77163819D01*
X135209655Y-77163821D01*
X135265672Y-77360701D01*
X135356912Y-77543935D01*
X135356913Y-77543936D01*
X135480266Y-77707284D01*
X135631536Y-77845185D01*
X135805566Y-77952940D01*
X135805568Y-77952940D01*
X135805573Y-77952944D01*
X135996444Y-78026888D01*
X136197653Y-78064500D01*
X136197655Y-78064500D01*
X136402345Y-78064500D01*
X136402347Y-78064500D01*
X136603556Y-78026888D01*
X136794427Y-77952944D01*
X136968462Y-77845186D01*
X137119732Y-77707285D01*
X137243088Y-77543935D01*
X137334328Y-77360701D01*
X137390345Y-77163821D01*
X137409232Y-76960000D01*
X137390345Y-76756179D01*
X137334328Y-76559299D01*
X137243088Y-76376065D01*
X137160499Y-76266699D01*
X137119733Y-76212715D01*
X136968463Y-76074814D01*
X136794433Y-75967059D01*
X136794428Y-75967057D01*
X136794427Y-75967056D01*
X136603559Y-75893113D01*
X136603560Y-75893113D01*
X136603557Y-75893112D01*
X136603556Y-75893112D01*
X136402347Y-75855500D01*
X136197653Y-75855500D01*
X135996444Y-75893112D01*
X135996439Y-75893113D01*
X135805577Y-75967054D01*
X135805566Y-75967059D01*
X135631536Y-76074814D01*
X135480266Y-76212715D01*
X135356913Y-76376063D01*
X135265671Y-76559301D01*
X135209654Y-76756180D01*
X135190768Y-76959995D01*
X135190768Y-76960004D01*
X119025500Y-76960004D01*
X119025500Y-74420004D01*
X135190768Y-74420004D01*
X135209654Y-74623819D01*
X135265671Y-74820698D01*
X135265672Y-74820701D01*
X135356912Y-75003935D01*
X135356913Y-75003936D01*
X135480266Y-75167284D01*
X135631536Y-75305185D01*
X135805566Y-75412940D01*
X135805568Y-75412940D01*
X135805573Y-75412944D01*
X135996444Y-75486888D01*
X136197653Y-75524500D01*
X136197655Y-75524500D01*
X136402345Y-75524500D01*
X136402347Y-75524500D01*
X136603556Y-75486888D01*
X136794427Y-75412944D01*
X136968462Y-75305186D01*
X137119732Y-75167285D01*
X137243088Y-75003935D01*
X137334328Y-74820701D01*
X137390345Y-74623821D01*
X137398861Y-74531922D01*
X137409232Y-74420004D01*
X137409232Y-74419995D01*
X137390345Y-74216180D01*
X137384442Y-74195433D01*
X137334328Y-74019299D01*
X137243088Y-73836065D01*
X137202538Y-73782368D01*
X137119733Y-73672715D01*
X136968463Y-73534814D01*
X136794433Y-73427059D01*
X136794428Y-73427057D01*
X136794427Y-73427056D01*
X136603559Y-73353113D01*
X136603560Y-73353113D01*
X136603557Y-73353112D01*
X136603556Y-73353112D01*
X136402347Y-73315500D01*
X136197653Y-73315500D01*
X135996444Y-73353112D01*
X135996439Y-73353113D01*
X135805577Y-73427054D01*
X135805566Y-73427059D01*
X135631536Y-73534814D01*
X135480266Y-73672715D01*
X135356913Y-73836063D01*
X135265671Y-74019301D01*
X135209654Y-74216180D01*
X135190768Y-74419995D01*
X135190768Y-74420004D01*
X119025500Y-74420004D01*
X119025500Y-71880004D01*
X135190768Y-71880004D01*
X135209654Y-72083819D01*
X135209655Y-72083821D01*
X135265672Y-72280701D01*
X135356912Y-72463935D01*
X135356913Y-72463936D01*
X135480266Y-72627284D01*
X135631536Y-72765185D01*
X135805566Y-72872940D01*
X135805568Y-72872940D01*
X135805573Y-72872944D01*
X135996444Y-72946888D01*
X136197653Y-72984500D01*
X136197655Y-72984500D01*
X136402345Y-72984500D01*
X136402347Y-72984500D01*
X136603556Y-72946888D01*
X136794427Y-72872944D01*
X136968462Y-72765186D01*
X137119732Y-72627285D01*
X137243088Y-72463935D01*
X137334328Y-72280701D01*
X137390345Y-72083821D01*
X137409232Y-71880000D01*
X137390345Y-71676179D01*
X137334328Y-71479299D01*
X137243088Y-71296065D01*
X137202538Y-71242368D01*
X137119733Y-71132715D01*
X136968463Y-70994814D01*
X136794433Y-70887059D01*
X136794428Y-70887057D01*
X136794427Y-70887056D01*
X136603559Y-70813113D01*
X136603560Y-70813113D01*
X136603557Y-70813112D01*
X136603556Y-70813112D01*
X136402347Y-70775500D01*
X136197653Y-70775500D01*
X135996444Y-70813112D01*
X135996439Y-70813113D01*
X135805577Y-70887054D01*
X135805566Y-70887059D01*
X135631536Y-70994814D01*
X135480266Y-71132715D01*
X135356913Y-71296063D01*
X135265671Y-71479301D01*
X135209654Y-71676180D01*
X135190768Y-71879995D01*
X135190768Y-71880004D01*
X119025500Y-71880004D01*
X119025500Y-69500000D01*
X121394551Y-69500000D01*
X121414317Y-69751148D01*
X121419372Y-69772205D01*
X121473126Y-69996109D01*
X121568013Y-70225186D01*
X121569534Y-70228859D01*
X121698677Y-70439601D01*
X121701165Y-70443660D01*
X121701166Y-70443662D01*
X121864775Y-70635224D01*
X122056337Y-70798833D01*
X122056341Y-70798836D01*
X122271141Y-70930466D01*
X122503889Y-71026873D01*
X122748852Y-71085683D01*
X122901155Y-71097669D01*
X122937115Y-71100500D01*
X122937118Y-71100500D01*
X123062885Y-71100500D01*
X123096692Y-71097839D01*
X123251148Y-71085683D01*
X123496111Y-71026873D01*
X123728859Y-70930466D01*
X123943659Y-70798836D01*
X124135224Y-70635224D01*
X124298836Y-70443659D01*
X124430466Y-70228859D01*
X124526873Y-69996111D01*
X124585683Y-69751148D01*
X124605449Y-69500000D01*
X124592857Y-69340004D01*
X135190768Y-69340004D01*
X135209654Y-69543819D01*
X135265671Y-69740698D01*
X135265672Y-69740701D01*
X135356912Y-69923935D01*
X135356913Y-69923936D01*
X135480266Y-70087284D01*
X135631536Y-70225185D01*
X135805566Y-70332940D01*
X135805568Y-70332940D01*
X135805573Y-70332944D01*
X135996444Y-70406888D01*
X136197653Y-70444500D01*
X136197655Y-70444500D01*
X136402345Y-70444500D01*
X136402347Y-70444500D01*
X136603556Y-70406888D01*
X136794427Y-70332944D01*
X136968462Y-70225186D01*
X137119732Y-70087285D01*
X137126288Y-70078603D01*
X154382293Y-70078603D01*
X154401449Y-70236379D01*
X154428914Y-70308795D01*
X154457813Y-70384995D01*
X154548102Y-70515801D01*
X154667071Y-70621199D01*
X154667072Y-70621199D01*
X154667074Y-70621201D01*
X154741800Y-70660420D01*
X154807807Y-70695063D01*
X154962129Y-70733100D01*
X154962130Y-70733100D01*
X155121070Y-70733100D01*
X155121071Y-70733100D01*
X155275393Y-70695063D01*
X155416129Y-70621199D01*
X155535098Y-70515801D01*
X155625387Y-70384995D01*
X155681749Y-70236382D01*
X155681749Y-70236381D01*
X155681750Y-70236379D01*
X155700907Y-70078603D01*
X155700907Y-70078596D01*
X155691656Y-70002403D01*
X162103893Y-70002403D01*
X162123049Y-70160179D01*
X162147704Y-70225186D01*
X162179413Y-70308795D01*
X162269702Y-70439601D01*
X162388671Y-70544999D01*
X162388672Y-70544999D01*
X162388674Y-70545001D01*
X162463400Y-70584220D01*
X162529407Y-70618863D01*
X162683729Y-70656900D01*
X162683730Y-70656900D01*
X162842670Y-70656900D01*
X162842671Y-70656900D01*
X162996993Y-70618863D01*
X163137729Y-70544999D01*
X163256698Y-70439601D01*
X163346987Y-70308795D01*
X163403349Y-70160182D01*
X163403349Y-70160181D01*
X163403350Y-70160179D01*
X163422507Y-70002403D01*
X163422507Y-70002396D01*
X163403350Y-69844620D01*
X163389738Y-69808731D01*
X163346987Y-69696005D01*
X163256698Y-69565199D01*
X163183104Y-69500000D01*
X175394551Y-69500000D01*
X175414317Y-69751148D01*
X175419372Y-69772205D01*
X175473126Y-69996109D01*
X175568013Y-70225186D01*
X175569534Y-70228859D01*
X175698677Y-70439601D01*
X175701165Y-70443660D01*
X175701166Y-70443662D01*
X175864775Y-70635224D01*
X176056337Y-70798833D01*
X176056341Y-70798836D01*
X176271141Y-70930466D01*
X176503889Y-71026873D01*
X176748852Y-71085683D01*
X176901155Y-71097669D01*
X176937115Y-71100500D01*
X176937118Y-71100500D01*
X177062885Y-71100500D01*
X177096692Y-71097839D01*
X177251148Y-71085683D01*
X177496111Y-71026873D01*
X177728859Y-70930466D01*
X177943659Y-70798836D01*
X178135224Y-70635224D01*
X178298836Y-70443659D01*
X178430466Y-70228859D01*
X178526873Y-69996111D01*
X178585683Y-69751148D01*
X178605449Y-69500000D01*
X178585683Y-69248852D01*
X178526873Y-69003889D01*
X178430466Y-68771141D01*
X178298836Y-68556341D01*
X178212124Y-68454814D01*
X178135224Y-68364775D01*
X177943662Y-68201166D01*
X177943660Y-68201165D01*
X177943659Y-68201164D01*
X177728859Y-68069534D01*
X177496111Y-67973127D01*
X177496109Y-67973126D01*
X177328536Y-67932896D01*
X177251148Y-67914317D01*
X177204081Y-67910612D01*
X177062885Y-67899500D01*
X177062882Y-67899500D01*
X176937118Y-67899500D01*
X176937115Y-67899500D01*
X176748852Y-67914317D01*
X176503890Y-67973126D01*
X176271142Y-68069533D01*
X176056339Y-68201165D01*
X176056337Y-68201166D01*
X175864775Y-68364775D01*
X175701166Y-68556337D01*
X175701165Y-68556339D01*
X175569533Y-68771142D01*
X175473126Y-69003890D01*
X175454225Y-69082620D01*
X175414317Y-69248852D01*
X175394551Y-69500000D01*
X163183104Y-69500000D01*
X163137729Y-69459801D01*
X163137728Y-69459800D01*
X163137725Y-69459798D01*
X162996997Y-69385939D01*
X162996995Y-69385938D01*
X162996993Y-69385937D01*
X162996991Y-69385936D01*
X162996990Y-69385936D01*
X162842672Y-69347900D01*
X162842671Y-69347900D01*
X162683729Y-69347900D01*
X162683727Y-69347900D01*
X162529409Y-69385936D01*
X162529402Y-69385939D01*
X162388674Y-69459798D01*
X162388669Y-69459802D01*
X162269701Y-69565200D01*
X162179415Y-69696001D01*
X162179412Y-69696007D01*
X162123049Y-69844620D01*
X162103893Y-70002396D01*
X162103893Y-70002403D01*
X155691656Y-70002403D01*
X155681750Y-69920820D01*
X155657493Y-69856860D01*
X155625387Y-69772205D01*
X155535098Y-69641399D01*
X155416129Y-69536001D01*
X155416128Y-69536000D01*
X155416125Y-69535998D01*
X155275397Y-69462139D01*
X155275395Y-69462138D01*
X155275393Y-69462137D01*
X155275391Y-69462136D01*
X155275390Y-69462136D01*
X155121072Y-69424100D01*
X155121071Y-69424100D01*
X154962129Y-69424100D01*
X154962127Y-69424100D01*
X154807809Y-69462136D01*
X154807802Y-69462139D01*
X154667074Y-69535998D01*
X154667069Y-69536002D01*
X154548101Y-69641400D01*
X154457815Y-69772201D01*
X154457812Y-69772207D01*
X154401449Y-69920820D01*
X154382293Y-70078596D01*
X154382293Y-70078603D01*
X137126288Y-70078603D01*
X137243088Y-69923935D01*
X137334328Y-69740701D01*
X137390345Y-69543821D01*
X137404975Y-69385939D01*
X137409232Y-69340004D01*
X137409232Y-69339995D01*
X137400003Y-69240403D01*
X145365293Y-69240403D01*
X145384449Y-69398179D01*
X145423066Y-69500000D01*
X145440813Y-69546795D01*
X145531102Y-69677601D01*
X145650071Y-69782999D01*
X145650072Y-69782999D01*
X145650074Y-69783001D01*
X145724800Y-69822220D01*
X145790807Y-69856863D01*
X145945129Y-69894900D01*
X145945130Y-69894900D01*
X146104070Y-69894900D01*
X146104071Y-69894900D01*
X146258393Y-69856863D01*
X146399129Y-69782999D01*
X146518098Y-69677601D01*
X146608387Y-69546795D01*
X146664749Y-69398182D01*
X146664749Y-69398181D01*
X146664750Y-69398179D01*
X146683907Y-69240403D01*
X146683907Y-69240396D01*
X146664750Y-69082620D01*
X146634891Y-69003890D01*
X146608387Y-68934005D01*
X146518098Y-68803199D01*
X146399129Y-68697801D01*
X146399128Y-68697800D01*
X146399125Y-68697798D01*
X146258397Y-68623939D01*
X146258395Y-68623938D01*
X146258393Y-68623937D01*
X146258391Y-68623936D01*
X146258390Y-68623936D01*
X146104072Y-68585900D01*
X146104071Y-68585900D01*
X145945129Y-68585900D01*
X145945127Y-68585900D01*
X145790809Y-68623936D01*
X145790802Y-68623939D01*
X145650074Y-68697798D01*
X145650069Y-68697802D01*
X145531101Y-68803200D01*
X145440815Y-68934001D01*
X145440812Y-68934007D01*
X145384449Y-69082620D01*
X145365293Y-69240396D01*
X145365293Y-69240403D01*
X137400003Y-69240403D01*
X137390345Y-69136180D01*
X137375106Y-69082620D01*
X137334328Y-68939299D01*
X137243088Y-68756065D01*
X137199087Y-68697798D01*
X137119733Y-68592715D01*
X136968463Y-68454814D01*
X136794433Y-68347059D01*
X136794428Y-68347057D01*
X136794427Y-68347056D01*
X136603559Y-68273113D01*
X136603560Y-68273113D01*
X136603557Y-68273112D01*
X136603556Y-68273112D01*
X136402347Y-68235500D01*
X136197653Y-68235500D01*
X135996444Y-68273112D01*
X135996439Y-68273113D01*
X135805577Y-68347054D01*
X135805566Y-68347059D01*
X135631536Y-68454814D01*
X135480266Y-68592715D01*
X135356913Y-68756063D01*
X135265671Y-68939301D01*
X135209654Y-69136180D01*
X135190768Y-69339995D01*
X135190768Y-69340004D01*
X124592857Y-69340004D01*
X124585683Y-69248852D01*
X124526873Y-69003889D01*
X124430466Y-68771141D01*
X124298836Y-68556341D01*
X124212124Y-68454814D01*
X124135224Y-68364775D01*
X123943662Y-68201166D01*
X123943660Y-68201165D01*
X123943659Y-68201164D01*
X123728859Y-68069534D01*
X123496111Y-67973127D01*
X123496109Y-67973126D01*
X123328536Y-67932896D01*
X123251148Y-67914317D01*
X123204081Y-67910612D01*
X123062885Y-67899500D01*
X123062882Y-67899500D01*
X122937118Y-67899500D01*
X122937115Y-67899500D01*
X122748852Y-67914317D01*
X122503890Y-67973126D01*
X122271142Y-68069533D01*
X122056339Y-68201165D01*
X122056337Y-68201166D01*
X121864775Y-68364775D01*
X121701166Y-68556337D01*
X121701165Y-68556339D01*
X121569533Y-68771142D01*
X121473126Y-69003890D01*
X121454225Y-69082620D01*
X121414317Y-69248852D01*
X121394551Y-69500000D01*
X119025500Y-69500000D01*
X119025500Y-65851500D01*
X119045502Y-65783379D01*
X119099158Y-65736886D01*
X119151500Y-65725500D01*
X181848500Y-65725500D01*
X181916621Y-65745502D01*
G37*
%TD.AperFunction*%
%TD*%
%TA.AperFunction,Conductor*%
%TO.N,Net-(FB1-Pad1)*%
G36*
X176695915Y-86735602D02*
G01*
X176742408Y-86789258D01*
X176750123Y-86832914D01*
X177725611Y-87808402D01*
X177563931Y-87930499D01*
X177420348Y-88088001D01*
X177369276Y-88170485D01*
X176398043Y-87199252D01*
X176398042Y-87199252D01*
X176308971Y-87306921D01*
X176308969Y-87306924D01*
X176139882Y-87573363D01*
X176139875Y-87573377D01*
X176005513Y-87858911D01*
X176005509Y-87858920D01*
X175907992Y-88159044D01*
X175907989Y-88159057D01*
X175848856Y-88469038D01*
X175848854Y-88469055D01*
X175829041Y-88783993D01*
X175829041Y-88784006D01*
X175848854Y-89098944D01*
X175848856Y-89098961D01*
X175907989Y-89408942D01*
X175907992Y-89408955D01*
X176005509Y-89709079D01*
X176005513Y-89709088D01*
X176139875Y-89994622D01*
X176139882Y-89994636D01*
X176308966Y-90261071D01*
X176308969Y-90261075D01*
X176398043Y-90368746D01*
X177369275Y-89397513D01*
X177420348Y-89479999D01*
X177563931Y-89637501D01*
X177725611Y-89759597D01*
X176754521Y-90730686D01*
X176754521Y-90730688D01*
X176995486Y-90905759D01*
X177213813Y-91025785D01*
X177263872Y-91076131D01*
X177278765Y-91145548D01*
X177253764Y-91211997D01*
X177196807Y-91254381D01*
X177153112Y-91262200D01*
X170128200Y-91262200D01*
X170060079Y-91242198D01*
X170013586Y-91188542D01*
X170002200Y-91136200D01*
X170002200Y-86841600D01*
X170022202Y-86773479D01*
X170075858Y-86726986D01*
X170128200Y-86715600D01*
X176627794Y-86715600D01*
X176695915Y-86735602D01*
G37*
%TD.AperFunction*%
%TA.AperFunction,Conductor*%
G36*
X176938144Y-74424124D02*
G01*
X177006222Y-74444268D01*
X177052603Y-74498021D01*
X177062560Y-74568316D01*
X177032932Y-74632835D01*
X176998588Y-74660535D01*
X176995488Y-74662239D01*
X176754521Y-74837310D01*
X176754521Y-74837312D01*
X177725611Y-75808402D01*
X177563931Y-75930499D01*
X177420348Y-76088001D01*
X177369276Y-76170485D01*
X176398043Y-75199252D01*
X176398042Y-75199252D01*
X176308971Y-75306921D01*
X176308969Y-75306924D01*
X176139882Y-75573363D01*
X176139875Y-75573377D01*
X176005513Y-75858911D01*
X176005509Y-75858920D01*
X175907992Y-76159044D01*
X175907989Y-76159057D01*
X175848856Y-76469038D01*
X175848854Y-76469055D01*
X175829041Y-76783993D01*
X175829041Y-76784006D01*
X175848854Y-77098944D01*
X175848856Y-77098961D01*
X175907989Y-77408942D01*
X175907992Y-77408955D01*
X176005509Y-77709079D01*
X176005513Y-77709088D01*
X176139875Y-77994622D01*
X176139882Y-77994636D01*
X176308966Y-78261071D01*
X176308969Y-78261075D01*
X176398043Y-78368746D01*
X177369275Y-77397513D01*
X177420348Y-77479999D01*
X177563931Y-77637501D01*
X177725611Y-77759597D01*
X176754521Y-78730686D01*
X176754521Y-78730688D01*
X176995486Y-78905759D01*
X177272034Y-79057792D01*
X177565460Y-79173968D01*
X177565466Y-79173970D01*
X177871103Y-79252444D01*
X177871130Y-79252449D01*
X178184195Y-79291998D01*
X178184214Y-79292000D01*
X178499786Y-79292000D01*
X178499804Y-79291998D01*
X178812869Y-79252449D01*
X178812896Y-79252444D01*
X179118533Y-79173970D01*
X179118539Y-79173968D01*
X179411965Y-79057792D01*
X179688517Y-78905756D01*
X179929477Y-78730688D01*
X179929477Y-78730686D01*
X178958388Y-77759597D01*
X179120069Y-77637501D01*
X179263652Y-77479999D01*
X179314723Y-77397514D01*
X180285955Y-78368746D01*
X180285956Y-78368745D01*
X180375026Y-78261080D01*
X180375029Y-78261076D01*
X180544117Y-77994636D01*
X180544124Y-77994622D01*
X180678486Y-77709088D01*
X180678490Y-77709079D01*
X180776007Y-77408955D01*
X180776010Y-77408942D01*
X180835143Y-77098961D01*
X180835145Y-77098944D01*
X180854959Y-76784006D01*
X180854959Y-76783993D01*
X180835145Y-76469055D01*
X180835143Y-76469038D01*
X180776010Y-76159057D01*
X180776007Y-76159044D01*
X180678490Y-75858920D01*
X180678486Y-75858911D01*
X180544124Y-75573377D01*
X180544117Y-75573363D01*
X180375033Y-75306928D01*
X180375030Y-75306924D01*
X180285955Y-75199252D01*
X179314723Y-76170484D01*
X179263652Y-76088001D01*
X179120069Y-75930499D01*
X178958388Y-75808402D01*
X179929477Y-74837312D01*
X179929477Y-74837310D01*
X179685307Y-74659911D01*
X179685884Y-74659115D01*
X179641959Y-74609013D01*
X179631449Y-74538798D01*
X179660568Y-74474048D01*
X179720071Y-74435319D01*
X179756528Y-74430008D01*
X181848767Y-74434376D01*
X181916842Y-74454519D01*
X181963223Y-74508272D01*
X181974500Y-74560375D01*
X181974500Y-91136200D01*
X181954498Y-91204321D01*
X181900842Y-91250814D01*
X181848500Y-91262200D01*
X179530888Y-91262200D01*
X179462767Y-91242198D01*
X179416274Y-91188542D01*
X179406170Y-91118268D01*
X179435664Y-91053688D01*
X179470187Y-91025785D01*
X179688517Y-90905756D01*
X179929477Y-90730688D01*
X179929477Y-90730686D01*
X178958388Y-89759597D01*
X179120069Y-89637501D01*
X179263652Y-89479999D01*
X179314723Y-89397514D01*
X180285955Y-90368746D01*
X180285956Y-90368745D01*
X180375026Y-90261080D01*
X180375029Y-90261076D01*
X180544117Y-89994636D01*
X180544124Y-89994622D01*
X180678486Y-89709088D01*
X180678490Y-89709079D01*
X180776007Y-89408955D01*
X180776010Y-89408942D01*
X180835143Y-89098961D01*
X180835145Y-89098944D01*
X180854959Y-88784006D01*
X180854959Y-88783993D01*
X180835145Y-88469055D01*
X180835143Y-88469038D01*
X180776010Y-88159057D01*
X180776007Y-88159044D01*
X180678490Y-87858920D01*
X180678486Y-87858911D01*
X180544124Y-87573377D01*
X180544117Y-87573363D01*
X180375033Y-87306928D01*
X180375030Y-87306924D01*
X180285955Y-87199252D01*
X179314723Y-88170484D01*
X179263652Y-88088001D01*
X179120069Y-87930499D01*
X178958388Y-87808402D01*
X179929477Y-86837312D01*
X179929154Y-86833201D01*
X179943748Y-86763720D01*
X179965939Y-86733949D01*
X179984398Y-86715600D01*
X179984400Y-86715600D01*
X180022703Y-80352901D01*
X169962587Y-80327812D01*
X169894516Y-80307640D01*
X169848157Y-80253868D01*
X169836901Y-80201808D01*
X169837095Y-74535556D01*
X169857099Y-74467439D01*
X169910757Y-74420948D01*
X169963355Y-74409563D01*
X176938144Y-74424124D01*
G37*
%TD.AperFunction*%
%TD*%
M02*
