%TF.GenerationSoftware,KiCad,Pcbnew,9.0.6+1*%
%TF.CreationDate,2025-11-26T13:17:52+00:00*%
%TF.ProjectId,t1,74312e6b-6963-4616-945f-706362585858,${git_hash}*%
%TF.SameCoordinates,Original*%
%TF.FileFunction,Copper,L2,Inr*%
%TF.FilePolarity,Positive*%
%FSLAX46Y46*%
G04 Gerber Fmt 4.6, Leading zero omitted, Abs format (unit mm)*
G04 Created by KiCad (PCBNEW 9.0.6+1) date 2025-11-26 13:17:52*
%MOMM*%
%LPD*%
G01*
G04 APERTURE LIST*
%TA.AperFunction,ComponentPad*%
%ADD10R,1.700000X1.700000*%
%TD*%
%TA.AperFunction,ComponentPad*%
%ADD11O,1.700000X1.700000*%
%TD*%
%TA.AperFunction,ComponentPad*%
%ADD12R,1.600000X1.600000*%
%TD*%
%TA.AperFunction,ComponentPad*%
%ADD13C,1.600000*%
%TD*%
%TA.AperFunction,ComponentPad*%
%ADD14C,4.000000*%
%TD*%
%TA.AperFunction,ViaPad*%
%ADD15C,0.800000*%
%TD*%
%TA.AperFunction,Conductor*%
%ADD16C,0.508000*%
%TD*%
G04 APERTURE END LIST*
D10*
%TO.N,Net-(J3-Pin_1)*%
%TO.C,J3*%
X136300000Y-79500000D03*
D11*
%TO.N,Net-(J3-Pin_2)*%
X136300000Y-76960000D03*
%TO.N,Net-(J3-Pin_3)*%
X136300000Y-74420000D03*
%TO.N,Net-(J3-Pin_4)*%
X136300000Y-71880000D03*
%TO.N,Net-(J3-Pin_5)*%
X136300000Y-69340000D03*
%TD*%
D10*
%TO.N,Net-(J4-Pin_1)*%
%TO.C,J4*%
X151892000Y-95250000D03*
D11*
%TO.N,Net-(J4-Pin_2)*%
X154432000Y-95250000D03*
%TO.N,Net-(J4-Pin_3)*%
X151892000Y-97790000D03*
%TO.N,Net-(J4-Pin_4)*%
X154432000Y-97790000D03*
%TD*%
D10*
%TO.N,/MISO2*%
%TO.C,J5*%
X141122400Y-97764600D03*
D11*
%TO.N,+5V*%
X141122400Y-95224600D03*
%TO.N,/SCK2*%
X143662400Y-97764600D03*
%TO.N,/MOSI2*%
X143662400Y-95224600D03*
%TO.N,/RESET2*%
X146202400Y-97764600D03*
%TO.N,GND*%
X146202400Y-95224600D03*
%TD*%
D10*
%TO.N,Net-(J6-Pin_1)*%
%TO.C,J6*%
X140970000Y-77216000D03*
D11*
%TO.N,Net-(J6-Pin_2)*%
X140970000Y-79756000D03*
%TO.N,Net-(J6-Pin_3)*%
X140970000Y-82296000D03*
%TO.N,Net-(J6-Pin_4)*%
X140970000Y-84836000D03*
%TO.N,Net-(J6-Pin_5)*%
X140970000Y-87376000D03*
%TO.N,Net-(J6-Pin_6)*%
X140970000Y-89916000D03*
%TD*%
D12*
%TO.N,Net-(J2-VBUS)*%
%TO.C,J2*%
X173482000Y-81534000D03*
D13*
%TO.N,Net-(J2-D-)*%
X173482000Y-84034000D03*
%TO.N,Net-(J2-D+)*%
X175482000Y-84034000D03*
%TO.N,Earth*%
X175482000Y-81534000D03*
D14*
%TO.N,Net-(J2-Shield)*%
X178342000Y-76784000D03*
X178342000Y-88784000D03*
%TD*%
D15*
%TO.N,GND*%
X154355800Y-75793600D03*
X123113800Y-73329800D03*
X129108200Y-77952600D03*
X167259000Y-97942400D03*
X155676600Y-83058000D03*
X163830000Y-76758800D03*
X125349000Y-90906600D03*
X130810000Y-95351600D03*
X129082800Y-73380600D03*
X144830800Y-85064600D03*
X123088400Y-78130400D03*
%TO.N,+5V*%
X159842200Y-98602800D03*
X154533600Y-83286600D03*
X146024600Y-69240400D03*
X159181800Y-81965800D03*
X130835400Y-88900000D03*
X129108200Y-84302600D03*
X121564400Y-89331800D03*
X123139200Y-84404200D03*
%TO.N,Net-(U1-XTAL1)*%
X162763200Y-70002400D03*
%TO.N,Net-(U1-PC0{slash}XTAL2)*%
X155041600Y-70078600D03*
%TO.N,Earth*%
X160680400Y-81153000D03*
X166878000Y-88773000D03*
X160553400Y-86233000D03*
X167233600Y-93522800D03*
X165049200Y-90449400D03*
%TO.N,VBUS*%
X165735000Y-80162400D03*
%TO.N,Net-(J2-Shield)*%
X170459400Y-80416400D03*
X172389800Y-88138000D03*
X170561000Y-90678000D03*
%TO.N,Net-(J3-Pin_4)*%
X156895800Y-87553800D03*
%TO.N,Net-(J3-Pin_3)*%
X156159200Y-88392000D03*
%TO.N,Net-(J3-Pin_2)*%
X156286200Y-91694000D03*
%TO.N,Net-(J3-Pin_1)*%
X155067000Y-88595200D03*
%TO.N,Net-(J6-Pin_3)*%
X150139400Y-81889600D03*
%TO.N,Net-(J6-Pin_5)*%
X152069800Y-87223600D03*
%TO.N,Net-(J6-Pin_6)*%
X152679400Y-88315800D03*
%TO.N,Net-(J6-Pin_4)*%
X151689100Y-85852000D03*
%TO.N,Net-(J6-Pin_2)*%
X148595111Y-85389689D03*
%TO.N,Net-(U1-D-)*%
X155956000Y-85775802D03*
%TD*%
D16*
%TO.N,Earth*%
X160553400Y-86233000D02*
X161467800Y-86233000D01*
X160680400Y-85445600D02*
X161467800Y-86233000D01*
X176123600Y-85953600D02*
X169722800Y-85953600D01*
X160680400Y-81153000D02*
X160680400Y-85445600D01*
X167233600Y-89128600D02*
X166878000Y-88773000D01*
X166903400Y-88773000D02*
X166878000Y-88773000D01*
X177088800Y-83140800D02*
X177088800Y-84988400D01*
X166878000Y-88773000D02*
X166725600Y-88773000D01*
X177088800Y-84988400D02*
X176123600Y-85953600D01*
X169722800Y-85953600D02*
X166903400Y-88773000D01*
X167233600Y-93522800D02*
X167233600Y-89128600D01*
X166725600Y-88773000D02*
X165049200Y-90449400D01*
X164338000Y-86233000D02*
X166878000Y-88773000D01*
X175482000Y-81534000D02*
X177088800Y-83140800D01*
X161467800Y-86233000D02*
X164338000Y-86233000D01*
%TO.N,Net-(J2-Shield)*%
X181178200Y-77927200D02*
X181178200Y-85947800D01*
X171653200Y-79222600D02*
X175903400Y-79222600D01*
X172389800Y-88138000D02*
X172389800Y-88849200D01*
X177696000Y-88138000D02*
X178342000Y-88784000D01*
X175903400Y-79222600D02*
X178342000Y-76784000D01*
X181178200Y-85947800D02*
X178342000Y-88784000D01*
X170459400Y-80416400D02*
X171653200Y-79222600D01*
X180035000Y-76784000D02*
X181178200Y-77927200D01*
X178342000Y-76784000D02*
X180035000Y-76784000D01*
X172389800Y-88849200D02*
X170561000Y-90678000D01*
X172389800Y-88138000D02*
X177696000Y-88138000D01*
%TD*%
%TA.AperFunction,Conductor*%
%TO.N,Earth*%
G36*
X165388113Y-79395002D02*
G01*
X165434606Y-79448658D01*
X165444710Y-79518932D01*
X165415216Y-79583512D01*
X165389994Y-79605765D01*
X165317780Y-79654016D01*
X165317774Y-79654021D01*
X165226621Y-79745174D01*
X165226616Y-79745180D01*
X165154989Y-79852378D01*
X165105654Y-79971483D01*
X165105652Y-79971488D01*
X165080500Y-80097934D01*
X165080500Y-80226865D01*
X165093722Y-80293334D01*
X165105652Y-80353311D01*
X165154989Y-80472422D01*
X165199537Y-80539092D01*
X165226616Y-80579619D01*
X165226621Y-80579625D01*
X165317774Y-80670778D01*
X165317780Y-80670783D01*
X165424978Y-80742411D01*
X165544089Y-80791748D01*
X165670537Y-80816900D01*
X165670538Y-80816900D01*
X165799462Y-80816900D01*
X165799463Y-80816900D01*
X165925911Y-80791748D01*
X166045022Y-80742411D01*
X166152220Y-80670783D01*
X166243383Y-80579620D01*
X166315011Y-80472422D01*
X166364348Y-80353311D01*
X166389500Y-80226863D01*
X166389500Y-80097937D01*
X166364348Y-79971489D01*
X166315011Y-79852378D01*
X166243383Y-79745180D01*
X166243378Y-79745174D01*
X166152225Y-79654021D01*
X166152219Y-79654016D01*
X166080006Y-79605765D01*
X166034478Y-79551288D01*
X166025630Y-79480845D01*
X166056272Y-79416801D01*
X166116673Y-79379490D01*
X166150008Y-79375000D01*
X169317400Y-79375000D01*
X169385521Y-79395002D01*
X169432014Y-79448658D01*
X169443400Y-79501000D01*
X169443400Y-80695800D01*
X169791580Y-80695800D01*
X169859701Y-80715802D01*
X169896345Y-80751798D01*
X169951016Y-80833619D01*
X169951021Y-80833625D01*
X170042174Y-80924778D01*
X170042180Y-80924783D01*
X170149378Y-80996411D01*
X170268489Y-81045748D01*
X170394937Y-81070900D01*
X170394938Y-81070900D01*
X170523862Y-81070900D01*
X170523863Y-81070900D01*
X170650311Y-81045748D01*
X170769422Y-80996411D01*
X170876620Y-80924783D01*
X170967783Y-80833620D01*
X171022455Y-80751797D01*
X171076932Y-80706270D01*
X171127220Y-80695800D01*
X172301500Y-80695800D01*
X172369621Y-80715802D01*
X172416114Y-80769458D01*
X172427500Y-80821800D01*
X172427500Y-82359063D01*
X172427501Y-82359073D01*
X172442265Y-82433300D01*
X172498516Y-82517484D01*
X172582697Y-82573733D01*
X172582699Y-82573734D01*
X172656933Y-82588500D01*
X174307066Y-82588499D01*
X174307069Y-82588498D01*
X174307073Y-82588498D01*
X174356326Y-82578701D01*
X174381301Y-82573734D01*
X174465484Y-82517484D01*
X174521734Y-82433301D01*
X174536500Y-82359067D01*
X174536499Y-82172477D01*
X174556501Y-82104360D01*
X174573404Y-82083384D01*
X175018253Y-81638534D01*
X175039370Y-81717343D01*
X175101905Y-81825657D01*
X175190343Y-81914095D01*
X175298657Y-81976630D01*
X175377463Y-81997745D01*
X174753626Y-82621582D01*
X174753626Y-82621583D01*
X174796454Y-82652699D01*
X174979900Y-82746170D01*
X174979906Y-82746173D01*
X175134589Y-82796432D01*
X175193195Y-82836505D01*
X175220832Y-82901902D01*
X175208725Y-82971858D01*
X175160719Y-83024165D01*
X175143872Y-83032674D01*
X175031810Y-83079092D01*
X174982551Y-83099496D01*
X174982505Y-83099515D01*
X174809796Y-83214916D01*
X174809790Y-83214921D01*
X174662921Y-83361790D01*
X174662916Y-83361797D01*
X174586765Y-83475764D01*
X174532288Y-83521292D01*
X174461844Y-83530139D01*
X174397801Y-83499498D01*
X174377235Y-83475764D01*
X174358011Y-83446995D01*
X174301083Y-83361796D01*
X174301080Y-83361793D01*
X174301078Y-83361790D01*
X174154209Y-83214921D01*
X174154203Y-83214916D01*
X174089047Y-83171380D01*
X173981493Y-83099514D01*
X173789586Y-83020024D01*
X173782965Y-83018707D01*
X173585861Y-82979500D01*
X173585859Y-82979500D01*
X173378141Y-82979500D01*
X173378138Y-82979500D01*
X173174413Y-83020024D01*
X173174408Y-83020026D01*
X172982507Y-83099514D01*
X172809796Y-83214916D01*
X172809790Y-83214921D01*
X172662921Y-83361790D01*
X172662916Y-83361796D01*
X172547514Y-83534507D01*
X172468026Y-83726408D01*
X172468024Y-83726413D01*
X172427500Y-83930138D01*
X172427500Y-84137861D01*
X172454466Y-84273425D01*
X172468024Y-84341586D01*
X172547514Y-84533493D01*
X172598244Y-84609415D01*
X172662916Y-84706203D01*
X172662921Y-84706209D01*
X172809790Y-84853078D01*
X172809796Y-84853083D01*
X172982507Y-84968486D01*
X173174414Y-85047976D01*
X173378141Y-85088500D01*
X173378142Y-85088500D01*
X173585858Y-85088500D01*
X173585859Y-85088500D01*
X173789586Y-85047976D01*
X173981493Y-84968486D01*
X174154204Y-84853083D01*
X174301083Y-84706204D01*
X174377236Y-84592234D01*
X174431712Y-84546707D01*
X174502155Y-84537859D01*
X174566199Y-84568501D01*
X174586763Y-84592232D01*
X174598244Y-84609415D01*
X174662916Y-84706203D01*
X174662921Y-84706209D01*
X174809790Y-84853078D01*
X174809796Y-84853083D01*
X174982507Y-84968486D01*
X175174414Y-85047976D01*
X175378141Y-85088500D01*
X175378142Y-85088500D01*
X175585858Y-85088500D01*
X175585859Y-85088500D01*
X175789586Y-85047976D01*
X175981493Y-84968486D01*
X176154204Y-84853083D01*
X176301083Y-84706204D01*
X176416486Y-84533493D01*
X176495976Y-84341586D01*
X176536500Y-84137859D01*
X176536500Y-83930141D01*
X176495976Y-83726414D01*
X176416486Y-83534507D01*
X176301083Y-83361796D01*
X176301078Y-83361790D01*
X176154209Y-83214921D01*
X176154203Y-83214916D01*
X176089047Y-83171380D01*
X175981493Y-83099514D01*
X175927939Y-83077331D01*
X175820128Y-83032674D01*
X175764847Y-82988125D01*
X175742426Y-82920762D01*
X175759984Y-82851971D01*
X175811947Y-82803592D01*
X175829410Y-82796432D01*
X175984093Y-82746173D01*
X175984099Y-82746170D01*
X176167541Y-82652701D01*
X176210372Y-82621582D01*
X176210372Y-82621581D01*
X175586536Y-81997745D01*
X175665343Y-81976630D01*
X175773657Y-81914095D01*
X175862095Y-81825657D01*
X175924630Y-81717343D01*
X175945746Y-81638535D01*
X176569582Y-82262372D01*
X176600701Y-82219541D01*
X176694170Y-82036099D01*
X176694173Y-82036093D01*
X176757791Y-81840296D01*
X176790000Y-81636938D01*
X176790000Y-81431061D01*
X176757791Y-81227703D01*
X176694173Y-81031906D01*
X176694170Y-81031900D01*
X176616265Y-80879003D01*
X176603161Y-80809226D01*
X176629861Y-80743442D01*
X176687888Y-80702535D01*
X176728532Y-80695800D01*
X179477400Y-80695800D01*
X179545521Y-80715802D01*
X179592014Y-80769458D01*
X179603400Y-80821800D01*
X179603400Y-86157800D01*
X179583398Y-86225921D01*
X179529742Y-86272414D01*
X179477400Y-86283800D01*
X169621200Y-86283800D01*
X169621200Y-95378000D01*
X169601198Y-95446121D01*
X169547542Y-95492614D01*
X169495200Y-95504000D01*
X158850600Y-95504000D01*
X158782479Y-95483998D01*
X158735986Y-95430342D01*
X158724600Y-95378000D01*
X158724600Y-82673420D01*
X158744602Y-82605299D01*
X158798258Y-82558806D01*
X158868532Y-82548702D01*
X158898816Y-82557010D01*
X158990889Y-82595148D01*
X159117337Y-82620300D01*
X159117338Y-82620300D01*
X159246262Y-82620300D01*
X159246263Y-82620300D01*
X159372711Y-82595148D01*
X159491822Y-82545811D01*
X159599020Y-82474183D01*
X159690183Y-82383020D01*
X159761811Y-82275822D01*
X159811148Y-82156711D01*
X159836300Y-82030263D01*
X159836300Y-81901337D01*
X159811148Y-81774889D01*
X159761811Y-81655778D01*
X159690183Y-81548580D01*
X159690178Y-81548574D01*
X159599025Y-81457421D01*
X159599019Y-81457416D01*
X159527255Y-81409465D01*
X159491822Y-81385789D01*
X159372711Y-81336452D01*
X159246265Y-81311300D01*
X159246263Y-81311300D01*
X159117337Y-81311300D01*
X159117334Y-81311300D01*
X158990888Y-81336452D01*
X158990878Y-81336455D01*
X158898817Y-81374588D01*
X158828227Y-81382177D01*
X158764741Y-81350397D01*
X158728514Y-81289339D01*
X158724600Y-81258179D01*
X158724600Y-79501000D01*
X158744602Y-79432879D01*
X158798258Y-79386386D01*
X158850600Y-79375000D01*
X165319992Y-79375000D01*
X165388113Y-79395002D01*
G37*
%TD.AperFunction*%
%TD*%
%TA.AperFunction,Conductor*%
%TO.N,GND*%
G36*
X181916621Y-65745502D02*
G01*
X181963114Y-65799158D01*
X181974500Y-65851500D01*
X181974500Y-73915000D01*
X181954498Y-73983121D01*
X181900842Y-74029614D01*
X181848500Y-74041000D01*
X169545000Y-74041000D01*
X169545000Y-78918800D01*
X169524998Y-78986921D01*
X169471342Y-79033414D01*
X169419000Y-79044800D01*
X158343600Y-79044800D01*
X158407790Y-96088199D01*
X158407791Y-96088200D01*
X170014208Y-96088200D01*
X170014209Y-96088200D01*
X170003361Y-92004021D01*
X170002536Y-91693335D01*
X170022358Y-91625161D01*
X170075889Y-91578526D01*
X170128536Y-91567000D01*
X181848500Y-91567000D01*
X181916621Y-91587002D01*
X181963114Y-91640658D01*
X181974500Y-91693000D01*
X181974500Y-101148500D01*
X181954498Y-101216621D01*
X181900842Y-101263114D01*
X181848500Y-101274500D01*
X119175590Y-101274500D01*
X119107469Y-101254498D01*
X119060976Y-101200842D01*
X119049590Y-101148683D01*
X119043488Y-96874038D01*
X121399500Y-96874038D01*
X121399500Y-97125962D01*
X121433499Y-97340619D01*
X121438911Y-97374790D01*
X121481530Y-97505957D01*
X121516759Y-97614379D01*
X121631130Y-97838845D01*
X121779207Y-98042656D01*
X121779209Y-98042658D01*
X121779211Y-98042661D01*
X121957338Y-98220788D01*
X121957341Y-98220790D01*
X121957344Y-98220793D01*
X122161155Y-98368870D01*
X122385621Y-98483241D01*
X122625215Y-98561090D01*
X122874038Y-98600500D01*
X122874041Y-98600500D01*
X123125959Y-98600500D01*
X123125962Y-98600500D01*
X123374785Y-98561090D01*
X123614379Y-98483241D01*
X123838845Y-98368870D01*
X124042656Y-98220793D01*
X124220793Y-98042656D01*
X124368870Y-97838845D01*
X124483241Y-97614379D01*
X124561090Y-97374785D01*
X124600500Y-97125962D01*
X124600500Y-96889530D01*
X140017900Y-96889530D01*
X140017900Y-98639663D01*
X140017901Y-98639673D01*
X140032665Y-98713900D01*
X140088916Y-98798084D01*
X140173097Y-98854333D01*
X140173099Y-98854334D01*
X140247333Y-98869100D01*
X141997466Y-98869099D01*
X141997469Y-98869098D01*
X141997473Y-98869098D01*
X142046726Y-98859301D01*
X142071701Y-98854334D01*
X142155884Y-98798084D01*
X142212134Y-98713901D01*
X142226900Y-98639667D01*
X142226899Y-97677674D01*
X142557900Y-97677674D01*
X142557900Y-97851526D01*
X142573228Y-97948300D01*
X142585098Y-98023242D01*
X142608225Y-98094421D01*
X142638820Y-98188581D01*
X142655233Y-98220793D01*
X142717749Y-98343487D01*
X142819936Y-98484135D01*
X142942864Y-98607063D01*
X142987742Y-98639669D01*
X143083516Y-98709253D01*
X143238419Y-98788180D01*
X143403762Y-98841903D01*
X143575474Y-98869100D01*
X143575477Y-98869100D01*
X143749323Y-98869100D01*
X143749326Y-98869100D01*
X143921038Y-98841903D01*
X144086381Y-98788180D01*
X144241284Y-98709253D01*
X144381933Y-98607065D01*
X144504865Y-98484133D01*
X144607053Y-98343484D01*
X144685980Y-98188581D01*
X144739703Y-98023238D01*
X144766900Y-97851526D01*
X144766900Y-97677674D01*
X144739703Y-97505962D01*
X144685980Y-97340619D01*
X144607053Y-97185716D01*
X144504865Y-97045067D01*
X144504863Y-97045064D01*
X144381935Y-96922136D01*
X144241287Y-96819949D01*
X144241286Y-96819948D01*
X144241284Y-96819947D01*
X144086381Y-96741020D01*
X144086378Y-96741019D01*
X144086376Y-96741018D01*
X143921042Y-96687298D01*
X143921040Y-96687297D01*
X143921038Y-96687297D01*
X143749326Y-96660100D01*
X143575474Y-96660100D01*
X143403762Y-96687297D01*
X143403760Y-96687297D01*
X143403757Y-96687298D01*
X143238423Y-96741018D01*
X143238417Y-96741021D01*
X143083512Y-96819949D01*
X142942864Y-96922136D01*
X142819936Y-97045064D01*
X142717749Y-97185712D01*
X142638821Y-97340617D01*
X142638818Y-97340623D01*
X142585098Y-97505957D01*
X142585097Y-97505960D01*
X142585097Y-97505962D01*
X142557900Y-97677674D01*
X142226899Y-97677674D01*
X142226899Y-96889534D01*
X142226898Y-96889530D01*
X142226898Y-96889526D01*
X142212134Y-96815299D01*
X142179474Y-96766421D01*
X142155884Y-96731116D01*
X142155883Y-96731115D01*
X142071702Y-96674866D01*
X141997467Y-96660100D01*
X140247336Y-96660100D01*
X140247326Y-96660101D01*
X140173099Y-96674865D01*
X140088915Y-96731116D01*
X140032666Y-96815297D01*
X140017900Y-96889530D01*
X124600500Y-96889530D01*
X124600500Y-96874038D01*
X124561090Y-96625215D01*
X124483241Y-96385621D01*
X124368870Y-96161155D01*
X124220793Y-95957344D01*
X124220790Y-95957341D01*
X124220788Y-95957338D01*
X124042661Y-95779211D01*
X124042658Y-95779209D01*
X124042656Y-95779207D01*
X123862864Y-95648581D01*
X123838848Y-95631132D01*
X123838847Y-95631131D01*
X123838845Y-95631130D01*
X123614379Y-95516759D01*
X123614376Y-95516758D01*
X123614374Y-95516757D01*
X123374790Y-95438911D01*
X123374786Y-95438910D01*
X123374785Y-95438910D01*
X123125962Y-95399500D01*
X122874038Y-95399500D01*
X122625215Y-95438910D01*
X122625209Y-95438911D01*
X122385625Y-95516757D01*
X122385619Y-95516760D01*
X122161151Y-95631132D01*
X121957341Y-95779209D01*
X121957338Y-95779211D01*
X121779211Y-95957338D01*
X121779209Y-95957341D01*
X121631132Y-96161151D01*
X121516760Y-96385619D01*
X121516757Y-96385625D01*
X121438911Y-96625209D01*
X121438910Y-96625214D01*
X121438910Y-96625215D01*
X121399500Y-96874038D01*
X119043488Y-96874038D01*
X119041009Y-95137674D01*
X140017900Y-95137674D01*
X140017900Y-95311526D01*
X140045097Y-95483238D01*
X140045098Y-95483242D01*
X140098769Y-95648426D01*
X140098820Y-95648581D01*
X140177747Y-95803484D01*
X140177749Y-95803487D01*
X140279936Y-95944135D01*
X140402864Y-96067063D01*
X140402867Y-96067065D01*
X140543516Y-96169253D01*
X140698419Y-96248180D01*
X140863762Y-96301903D01*
X141035474Y-96329100D01*
X141035477Y-96329100D01*
X141209323Y-96329100D01*
X141209326Y-96329100D01*
X141381038Y-96301903D01*
X141546381Y-96248180D01*
X141701284Y-96169253D01*
X141841933Y-96067065D01*
X141964865Y-95944133D01*
X142067053Y-95803484D01*
X142145980Y-95648581D01*
X142199703Y-95483238D01*
X142226900Y-95311526D01*
X142226900Y-95137674D01*
X142557900Y-95137674D01*
X142557900Y-95311526D01*
X142585097Y-95483238D01*
X142585098Y-95483242D01*
X142638769Y-95648426D01*
X142638820Y-95648581D01*
X142717747Y-95803484D01*
X142717749Y-95803487D01*
X142819936Y-95944135D01*
X142942864Y-96067063D01*
X142942867Y-96067065D01*
X143083516Y-96169253D01*
X143238419Y-96248180D01*
X143403762Y-96301903D01*
X143575474Y-96329100D01*
X143575477Y-96329100D01*
X143749323Y-96329100D01*
X143749326Y-96329100D01*
X143921038Y-96301903D01*
X144086381Y-96248180D01*
X144241284Y-96169253D01*
X144381933Y-96067065D01*
X144504865Y-95944133D01*
X144607053Y-95803484D01*
X144685980Y-95648581D01*
X144685981Y-95648575D01*
X144686058Y-95648426D01*
X144734806Y-95596810D01*
X144803721Y-95579744D01*
X144870922Y-95602644D01*
X144915075Y-95658242D01*
X144918158Y-95666691D01*
X144943892Y-95745889D01*
X144943893Y-95745892D01*
X145040936Y-95936350D01*
X145166577Y-96109279D01*
X145317720Y-96260422D01*
X145490649Y-96386063D01*
X145681107Y-96483106D01*
X145681109Y-96483107D01*
X145760308Y-96508841D01*
X145818913Y-96548915D01*
X145846550Y-96614311D01*
X145834443Y-96684268D01*
X145786437Y-96736574D01*
X145778574Y-96740941D01*
X145623513Y-96819948D01*
X145482864Y-96922136D01*
X145359936Y-97045064D01*
X145257749Y-97185712D01*
X145178821Y-97340617D01*
X145178818Y-97340623D01*
X145125098Y-97505957D01*
X145125097Y-97505960D01*
X145125097Y-97505962D01*
X145097900Y-97677674D01*
X145097900Y-97851526D01*
X145113228Y-97948300D01*
X145125098Y-98023242D01*
X145148225Y-98094421D01*
X145178820Y-98188581D01*
X145195233Y-98220793D01*
X145257749Y-98343487D01*
X145359936Y-98484135D01*
X145482864Y-98607063D01*
X145527742Y-98639669D01*
X145623516Y-98709253D01*
X145778419Y-98788180D01*
X145943762Y-98841903D01*
X146115474Y-98869100D01*
X146115477Y-98869100D01*
X146289323Y-98869100D01*
X146289326Y-98869100D01*
X146461038Y-98841903D01*
X146626381Y-98788180D01*
X146781284Y-98709253D01*
X146921933Y-98607065D01*
X147044865Y-98484133D01*
X147147053Y-98343484D01*
X147225980Y-98188581D01*
X147279703Y-98023238D01*
X147306900Y-97851526D01*
X147306900Y-97703074D01*
X150787500Y-97703074D01*
X150787500Y-97876926D01*
X150814697Y-98048638D01*
X150814698Y-98048642D01*
X150829572Y-98094421D01*
X150868420Y-98213981D01*
X150947340Y-98368870D01*
X150947349Y-98368887D01*
X151049536Y-98509535D01*
X151172464Y-98632463D01*
X151182382Y-98639669D01*
X151313116Y-98734653D01*
X151468019Y-98813580D01*
X151633362Y-98867303D01*
X151805074Y-98894500D01*
X151805077Y-98894500D01*
X151978923Y-98894500D01*
X151978926Y-98894500D01*
X152150638Y-98867303D01*
X152315981Y-98813580D01*
X152470884Y-98734653D01*
X152611533Y-98632465D01*
X152734465Y-98509533D01*
X152836653Y-98368884D01*
X152915580Y-98213981D01*
X152969303Y-98048638D01*
X152996500Y-97876926D01*
X152996500Y-97703074D01*
X153327500Y-97703074D01*
X153327500Y-97876926D01*
X153354697Y-98048638D01*
X153354698Y-98048642D01*
X153369572Y-98094421D01*
X153408420Y-98213981D01*
X153487340Y-98368870D01*
X153487349Y-98368887D01*
X153589536Y-98509535D01*
X153712464Y-98632463D01*
X153722382Y-98639669D01*
X153853116Y-98734653D01*
X154008019Y-98813580D01*
X154173362Y-98867303D01*
X154345074Y-98894500D01*
X154345077Y-98894500D01*
X154518923Y-98894500D01*
X154518926Y-98894500D01*
X154690638Y-98867303D01*
X154855981Y-98813580D01*
X155010884Y-98734653D01*
X155151533Y-98632465D01*
X155245664Y-98538334D01*
X159187700Y-98538334D01*
X159187700Y-98667265D01*
X159211751Y-98788178D01*
X159212852Y-98793711D01*
X159262189Y-98912822D01*
X159310049Y-98984449D01*
X159333816Y-99020019D01*
X159333821Y-99020025D01*
X159424974Y-99111178D01*
X159424980Y-99111183D01*
X159532178Y-99182811D01*
X159651289Y-99232148D01*
X159777737Y-99257300D01*
X159777738Y-99257300D01*
X159906662Y-99257300D01*
X159906663Y-99257300D01*
X160033111Y-99232148D01*
X160152222Y-99182811D01*
X160259420Y-99111183D01*
X160350583Y-99020020D01*
X160422211Y-98912822D01*
X160471548Y-98793711D01*
X160496700Y-98667263D01*
X160496700Y-98538337D01*
X160471548Y-98411889D01*
X160422211Y-98292778D01*
X160350583Y-98185580D01*
X160350578Y-98185574D01*
X160259425Y-98094421D01*
X160259419Y-98094416D01*
X160181962Y-98042661D01*
X160152222Y-98022789D01*
X160033111Y-97973452D01*
X159906665Y-97948300D01*
X159906663Y-97948300D01*
X159777737Y-97948300D01*
X159777734Y-97948300D01*
X159651288Y-97973452D01*
X159651283Y-97973454D01*
X159532178Y-98022789D01*
X159424980Y-98094416D01*
X159424974Y-98094421D01*
X159333821Y-98185574D01*
X159333816Y-98185580D01*
X159262189Y-98292778D01*
X159212854Y-98411883D01*
X159212852Y-98411888D01*
X159187700Y-98538334D01*
X155245664Y-98538334D01*
X155274465Y-98509533D01*
X155292918Y-98484135D01*
X155311845Y-98458085D01*
X155345408Y-98411889D01*
X155376653Y-98368884D01*
X155455580Y-98213981D01*
X155509303Y-98048638D01*
X155536500Y-97876926D01*
X155536500Y-97703074D01*
X155509303Y-97531362D01*
X155455580Y-97366019D01*
X155376653Y-97211116D01*
X155274465Y-97070467D01*
X155274463Y-97070464D01*
X155151535Y-96947536D01*
X155050374Y-96874038D01*
X175399500Y-96874038D01*
X175399500Y-97125962D01*
X175433499Y-97340619D01*
X175438911Y-97374790D01*
X175481530Y-97505957D01*
X175516759Y-97614379D01*
X175631130Y-97838845D01*
X175779207Y-98042656D01*
X175779209Y-98042658D01*
X175779211Y-98042661D01*
X175957338Y-98220788D01*
X175957341Y-98220790D01*
X175957344Y-98220793D01*
X176161155Y-98368870D01*
X176385621Y-98483241D01*
X176625215Y-98561090D01*
X176874038Y-98600500D01*
X176874041Y-98600500D01*
X177125959Y-98600500D01*
X177125962Y-98600500D01*
X177374785Y-98561090D01*
X177614379Y-98483241D01*
X177838845Y-98368870D01*
X178042656Y-98220793D01*
X178220793Y-98042656D01*
X178368870Y-97838845D01*
X178483241Y-97614379D01*
X178561090Y-97374785D01*
X178600500Y-97125962D01*
X178600500Y-96874038D01*
X178561090Y-96625215D01*
X178483241Y-96385621D01*
X178368870Y-96161155D01*
X178220793Y-95957344D01*
X178220790Y-95957341D01*
X178220788Y-95957338D01*
X178042661Y-95779211D01*
X178042658Y-95779209D01*
X178042656Y-95779207D01*
X177862864Y-95648581D01*
X177838848Y-95631132D01*
X177838847Y-95631131D01*
X177838845Y-95631130D01*
X177614379Y-95516759D01*
X177614376Y-95516758D01*
X177614374Y-95516757D01*
X177374790Y-95438911D01*
X177374786Y-95438910D01*
X177374785Y-95438910D01*
X177125962Y-95399500D01*
X176874038Y-95399500D01*
X176625215Y-95438910D01*
X176625209Y-95438911D01*
X176385625Y-95516757D01*
X176385619Y-95516760D01*
X176161151Y-95631132D01*
X175957341Y-95779209D01*
X175957338Y-95779211D01*
X175779211Y-95957338D01*
X175779209Y-95957341D01*
X175631132Y-96161151D01*
X175516760Y-96385619D01*
X175516757Y-96385625D01*
X175438911Y-96625209D01*
X175438910Y-96625214D01*
X175438910Y-96625215D01*
X175399500Y-96874038D01*
X155050374Y-96874038D01*
X155010887Y-96845349D01*
X155010886Y-96845348D01*
X155010884Y-96845347D01*
X154855981Y-96766420D01*
X154855978Y-96766419D01*
X154855976Y-96766418D01*
X154690642Y-96712698D01*
X154690640Y-96712697D01*
X154690638Y-96712697D01*
X154518926Y-96685500D01*
X154345074Y-96685500D01*
X154173362Y-96712697D01*
X154173360Y-96712697D01*
X154173357Y-96712698D01*
X154008023Y-96766418D01*
X154008017Y-96766421D01*
X153853112Y-96845349D01*
X153712464Y-96947536D01*
X153589536Y-97070464D01*
X153487349Y-97211112D01*
X153408421Y-97366017D01*
X153408418Y-97366023D01*
X153354698Y-97531357D01*
X153354697Y-97531360D01*
X153354697Y-97531362D01*
X153327500Y-97703074D01*
X152996500Y-97703074D01*
X152969303Y-97531362D01*
X152915580Y-97366019D01*
X152836653Y-97211116D01*
X152734465Y-97070467D01*
X152734463Y-97070464D01*
X152611535Y-96947536D01*
X152470887Y-96845349D01*
X152470886Y-96845348D01*
X152470884Y-96845347D01*
X152315981Y-96766420D01*
X152315978Y-96766419D01*
X152315976Y-96766418D01*
X152150642Y-96712698D01*
X152150640Y-96712697D01*
X152150638Y-96712697D01*
X151978926Y-96685500D01*
X151805074Y-96685500D01*
X151633362Y-96712697D01*
X151633360Y-96712697D01*
X151633357Y-96712698D01*
X151468023Y-96766418D01*
X151468017Y-96766421D01*
X151313112Y-96845349D01*
X151172464Y-96947536D01*
X151049536Y-97070464D01*
X150947349Y-97211112D01*
X150868421Y-97366017D01*
X150868418Y-97366023D01*
X150814698Y-97531357D01*
X150814697Y-97531360D01*
X150814697Y-97531362D01*
X150787500Y-97703074D01*
X147306900Y-97703074D01*
X147306900Y-97677674D01*
X147279703Y-97505962D01*
X147225980Y-97340619D01*
X147147053Y-97185716D01*
X147044865Y-97045067D01*
X147044863Y-97045064D01*
X146921935Y-96922136D01*
X146781287Y-96819949D01*
X146781286Y-96819948D01*
X146781284Y-96819947D01*
X146626381Y-96741020D01*
X146626378Y-96741019D01*
X146626225Y-96740941D01*
X146574610Y-96692193D01*
X146557544Y-96623278D01*
X146580445Y-96556076D01*
X146636042Y-96511924D01*
X146644492Y-96508841D01*
X146723686Y-96483109D01*
X146723692Y-96483106D01*
X146914150Y-96386063D01*
X147087079Y-96260422D01*
X147238222Y-96109279D01*
X147363863Y-95936350D01*
X147460906Y-95745892D01*
X147460909Y-95745886D01*
X147526959Y-95542604D01*
X147537098Y-95478600D01*
X146633103Y-95478600D01*
X146668325Y-95417593D01*
X146702400Y-95290426D01*
X146702400Y-95158774D01*
X146668325Y-95031607D01*
X146633103Y-94970600D01*
X147537097Y-94970600D01*
X147526959Y-94906595D01*
X147460909Y-94703313D01*
X147460906Y-94703307D01*
X147363865Y-94512853D01*
X147312972Y-94442805D01*
X147312971Y-94442803D01*
X147263658Y-94374930D01*
X150787500Y-94374930D01*
X150787500Y-96125063D01*
X150787501Y-96125073D01*
X150802265Y-96199300D01*
X150858516Y-96283484D01*
X150942697Y-96339733D01*
X150942699Y-96339734D01*
X151016933Y-96354500D01*
X152767066Y-96354499D01*
X152767069Y-96354498D01*
X152767073Y-96354498D01*
X152816326Y-96344701D01*
X152841301Y-96339734D01*
X152925484Y-96283484D01*
X152981734Y-96199301D01*
X152996500Y-96125067D01*
X152996499Y-95163074D01*
X153327500Y-95163074D01*
X153327500Y-95336926D01*
X153350674Y-95483238D01*
X153354698Y-95508642D01*
X153400116Y-95648426D01*
X153408420Y-95673981D01*
X153474407Y-95803487D01*
X153487349Y-95828887D01*
X153589536Y-95969535D01*
X153712464Y-96092463D01*
X153757342Y-96125069D01*
X153853116Y-96194653D01*
X154008019Y-96273580D01*
X154173362Y-96327303D01*
X154345074Y-96354500D01*
X154345077Y-96354500D01*
X154518923Y-96354500D01*
X154518926Y-96354500D01*
X154690638Y-96327303D01*
X154855981Y-96273580D01*
X155010884Y-96194653D01*
X155151533Y-96092465D01*
X155274465Y-95969533D01*
X155376653Y-95828884D01*
X155455580Y-95673981D01*
X155509303Y-95508638D01*
X155536500Y-95336926D01*
X155536500Y-95163074D01*
X155509303Y-94991362D01*
X155455580Y-94826019D01*
X155376653Y-94671116D01*
X155274465Y-94530467D01*
X155274463Y-94530464D01*
X155151535Y-94407536D01*
X155010887Y-94305349D01*
X155010886Y-94305348D01*
X155010884Y-94305347D01*
X154855981Y-94226420D01*
X154855978Y-94226419D01*
X154855976Y-94226418D01*
X154690642Y-94172698D01*
X154690640Y-94172697D01*
X154690638Y-94172697D01*
X154518926Y-94145500D01*
X154345074Y-94145500D01*
X154173362Y-94172697D01*
X154173360Y-94172697D01*
X154173357Y-94172698D01*
X154008023Y-94226418D01*
X154008017Y-94226421D01*
X153853112Y-94305349D01*
X153712464Y-94407536D01*
X153589536Y-94530464D01*
X153487349Y-94671112D01*
X153408421Y-94826017D01*
X153408418Y-94826023D01*
X153354698Y-94991357D01*
X153354697Y-94991360D01*
X153354697Y-94991362D01*
X153327500Y-95163074D01*
X152996499Y-95163074D01*
X152996499Y-94374934D01*
X152996498Y-94374930D01*
X152996498Y-94374926D01*
X152981734Y-94300699D01*
X152932102Y-94226421D01*
X152925484Y-94216516D01*
X152925483Y-94216515D01*
X152841302Y-94160266D01*
X152767067Y-94145500D01*
X151016936Y-94145500D01*
X151016926Y-94145501D01*
X150942699Y-94160265D01*
X150858515Y-94216516D01*
X150802266Y-94300697D01*
X150787500Y-94374930D01*
X147263658Y-94374930D01*
X147238222Y-94339920D01*
X147087079Y-94188777D01*
X146914150Y-94063136D01*
X146723692Y-93966093D01*
X146723686Y-93966090D01*
X146520404Y-93900040D01*
X146456400Y-93889902D01*
X146456400Y-94793897D01*
X146395393Y-94758675D01*
X146268226Y-94724600D01*
X146136574Y-94724600D01*
X146009407Y-94758675D01*
X145948400Y-94793897D01*
X145948400Y-93889902D01*
X145884395Y-93900040D01*
X145681113Y-93966090D01*
X145681107Y-93966093D01*
X145490649Y-94063136D01*
X145317720Y-94188777D01*
X145166577Y-94339920D01*
X145040936Y-94512849D01*
X144943893Y-94703307D01*
X144918158Y-94782509D01*
X144878083Y-94841114D01*
X144812686Y-94868750D01*
X144742730Y-94856642D01*
X144690424Y-94808636D01*
X144686058Y-94800774D01*
X144685981Y-94800623D01*
X144685980Y-94800619D01*
X144607053Y-94645716D01*
X144504865Y-94505067D01*
X144504863Y-94505064D01*
X144381935Y-94382136D01*
X144241287Y-94279949D01*
X144241286Y-94279948D01*
X144241284Y-94279947D01*
X144086381Y-94201020D01*
X144086378Y-94201019D01*
X144086376Y-94201018D01*
X143921042Y-94147298D01*
X143921040Y-94147297D01*
X143921038Y-94147297D01*
X143749326Y-94120100D01*
X143575474Y-94120100D01*
X143403762Y-94147297D01*
X143403760Y-94147297D01*
X143403757Y-94147298D01*
X143238423Y-94201018D01*
X143238417Y-94201021D01*
X143083512Y-94279949D01*
X142942864Y-94382136D01*
X142819936Y-94505064D01*
X142717749Y-94645712D01*
X142638821Y-94800617D01*
X142638818Y-94800623D01*
X142585098Y-94965957D01*
X142585097Y-94965960D01*
X142585097Y-94965962D01*
X142557900Y-95137674D01*
X142226900Y-95137674D01*
X142199703Y-94965962D01*
X142145980Y-94800619D01*
X142067053Y-94645716D01*
X141964865Y-94505067D01*
X141964863Y-94505064D01*
X141841935Y-94382136D01*
X141701287Y-94279949D01*
X141701286Y-94279948D01*
X141701284Y-94279947D01*
X141546381Y-94201020D01*
X141546378Y-94201019D01*
X141546376Y-94201018D01*
X141381042Y-94147298D01*
X141381040Y-94147297D01*
X141381038Y-94147297D01*
X141209326Y-94120100D01*
X141035474Y-94120100D01*
X140863762Y-94147297D01*
X140863760Y-94147297D01*
X140863757Y-94147298D01*
X140698423Y-94201018D01*
X140698417Y-94201021D01*
X140543512Y-94279949D01*
X140402864Y-94382136D01*
X140279936Y-94505064D01*
X140177749Y-94645712D01*
X140098821Y-94800617D01*
X140098818Y-94800623D01*
X140045098Y-94965957D01*
X140045097Y-94965960D01*
X140045097Y-94965962D01*
X140017900Y-95137674D01*
X119041009Y-95137674D01*
X119036002Y-91629534D01*
X155631700Y-91629534D01*
X155631700Y-91629537D01*
X155631700Y-91758463D01*
X155656852Y-91884911D01*
X155706189Y-92004022D01*
X155754049Y-92075649D01*
X155777816Y-92111219D01*
X155777821Y-92111225D01*
X155868974Y-92202378D01*
X155868980Y-92202383D01*
X155976178Y-92274011D01*
X156095289Y-92323348D01*
X156221737Y-92348500D01*
X156221738Y-92348500D01*
X156350662Y-92348500D01*
X156350663Y-92348500D01*
X156477111Y-92323348D01*
X156596222Y-92274011D01*
X156703420Y-92202383D01*
X156794583Y-92111220D01*
X156866211Y-92004022D01*
X156915548Y-91884911D01*
X156940700Y-91758463D01*
X156940700Y-91629537D01*
X156915548Y-91503089D01*
X156866211Y-91383978D01*
X156794583Y-91276780D01*
X156794578Y-91276774D01*
X156703425Y-91185621D01*
X156703419Y-91185616D01*
X156667849Y-91161849D01*
X156596222Y-91113989D01*
X156477111Y-91064652D01*
X156350665Y-91039500D01*
X156350663Y-91039500D01*
X156221737Y-91039500D01*
X156221734Y-91039500D01*
X156095288Y-91064652D01*
X156095283Y-91064654D01*
X155976178Y-91113989D01*
X155868980Y-91185616D01*
X155868974Y-91185621D01*
X155777821Y-91276774D01*
X155777816Y-91276780D01*
X155706189Y-91383978D01*
X155656854Y-91503083D01*
X155656852Y-91503088D01*
X155631700Y-91629534D01*
X119036002Y-91629534D01*
X119032630Y-89267334D01*
X120909900Y-89267334D01*
X120909900Y-89396265D01*
X120926558Y-89480010D01*
X120935052Y-89522711D01*
X120984389Y-89641822D01*
X120994773Y-89657362D01*
X121056016Y-89749019D01*
X121056021Y-89749025D01*
X121147174Y-89840178D01*
X121147180Y-89840183D01*
X121254378Y-89911811D01*
X121373489Y-89961148D01*
X121499937Y-89986300D01*
X121499938Y-89986300D01*
X121628862Y-89986300D01*
X121628863Y-89986300D01*
X121755311Y-89961148D01*
X121874422Y-89911811D01*
X121981620Y-89840183D01*
X121992729Y-89829074D01*
X139865500Y-89829074D01*
X139865500Y-90002926D01*
X139892697Y-90174638D01*
X139892698Y-90174642D01*
X139919941Y-90258489D01*
X139946420Y-90339981D01*
X140025347Y-90494884D01*
X140025349Y-90494887D01*
X140127536Y-90635535D01*
X140250464Y-90758463D01*
X140250467Y-90758465D01*
X140391116Y-90860653D01*
X140546019Y-90939580D01*
X140711362Y-90993303D01*
X140883074Y-91020500D01*
X140883077Y-91020500D01*
X141056923Y-91020500D01*
X141056926Y-91020500D01*
X141228638Y-90993303D01*
X141393981Y-90939580D01*
X141548884Y-90860653D01*
X141689533Y-90758465D01*
X141812465Y-90635533D01*
X141914653Y-90494884D01*
X141993580Y-90339981D01*
X142047303Y-90174638D01*
X142074500Y-90002926D01*
X142074500Y-89829074D01*
X142047303Y-89657362D01*
X141993580Y-89492019D01*
X141914653Y-89337116D01*
X141832867Y-89224548D01*
X141812463Y-89196464D01*
X141689535Y-89073536D01*
X141548887Y-88971349D01*
X141548886Y-88971348D01*
X141548884Y-88971347D01*
X141393981Y-88892420D01*
X141393978Y-88892419D01*
X141393976Y-88892418D01*
X141228642Y-88838698D01*
X141228640Y-88838697D01*
X141228638Y-88838697D01*
X141056926Y-88811500D01*
X140883074Y-88811500D01*
X140711362Y-88838697D01*
X140711360Y-88838697D01*
X140711357Y-88838698D01*
X140546023Y-88892418D01*
X140546017Y-88892421D01*
X140391112Y-88971349D01*
X140250464Y-89073536D01*
X140127536Y-89196464D01*
X140025349Y-89337112D01*
X139946421Y-89492017D01*
X139946418Y-89492023D01*
X139892698Y-89657357D01*
X139892697Y-89657360D01*
X139892697Y-89657362D01*
X139865500Y-89829074D01*
X121992729Y-89829074D01*
X122072783Y-89749020D01*
X122144411Y-89641822D01*
X122193748Y-89522711D01*
X122218900Y-89396263D01*
X122218900Y-89267337D01*
X122193748Y-89140889D01*
X122144411Y-89021778D01*
X122072783Y-88914580D01*
X122072778Y-88914574D01*
X121993738Y-88835534D01*
X130180900Y-88835534D01*
X130180900Y-88964465D01*
X130197218Y-89046499D01*
X130206052Y-89090911D01*
X130255389Y-89210022D01*
X130293684Y-89267334D01*
X130327016Y-89317219D01*
X130327021Y-89317225D01*
X130418174Y-89408378D01*
X130418180Y-89408383D01*
X130525378Y-89480011D01*
X130644489Y-89529348D01*
X130770937Y-89554500D01*
X130770938Y-89554500D01*
X130899862Y-89554500D01*
X130899863Y-89554500D01*
X131026311Y-89529348D01*
X131145422Y-89480011D01*
X131252620Y-89408383D01*
X131343783Y-89317220D01*
X131415411Y-89210022D01*
X131464748Y-89090911D01*
X131489900Y-88964463D01*
X131489900Y-88835537D01*
X131464748Y-88709089D01*
X131415411Y-88589978D01*
X131343783Y-88482780D01*
X131343778Y-88482774D01*
X131252625Y-88391621D01*
X131252619Y-88391616D01*
X131217049Y-88367849D01*
X131145422Y-88319989D01*
X131026311Y-88270652D01*
X131003824Y-88266179D01*
X130899865Y-88245500D01*
X130899863Y-88245500D01*
X130770937Y-88245500D01*
X130770934Y-88245500D01*
X130644488Y-88270652D01*
X130644483Y-88270654D01*
X130525378Y-88319989D01*
X130418180Y-88391616D01*
X130418174Y-88391621D01*
X130327021Y-88482774D01*
X130327016Y-88482780D01*
X130255389Y-88589978D01*
X130206054Y-88709083D01*
X130206052Y-88709088D01*
X130180900Y-88835534D01*
X121993738Y-88835534D01*
X121981625Y-88823421D01*
X121981619Y-88823416D01*
X121946049Y-88799649D01*
X121874422Y-88751789D01*
X121755311Y-88702452D01*
X121753144Y-88702021D01*
X121628865Y-88677300D01*
X121628863Y-88677300D01*
X121499937Y-88677300D01*
X121499934Y-88677300D01*
X121373488Y-88702452D01*
X121373483Y-88702454D01*
X121254378Y-88751789D01*
X121147180Y-88823416D01*
X121147174Y-88823421D01*
X121056021Y-88914574D01*
X121056016Y-88914580D01*
X120984389Y-89021778D01*
X120935054Y-89140883D01*
X120935052Y-89140888D01*
X120909900Y-89267334D01*
X119032630Y-89267334D01*
X119031391Y-88399578D01*
X119029806Y-87289074D01*
X139865500Y-87289074D01*
X139865500Y-87462926D01*
X139890104Y-87618265D01*
X139892698Y-87634642D01*
X139934291Y-87762654D01*
X139946420Y-87799981D01*
X140018120Y-87940700D01*
X140025349Y-87954887D01*
X140127536Y-88095535D01*
X140250464Y-88218463D01*
X140316139Y-88266179D01*
X140391116Y-88320653D01*
X140546019Y-88399580D01*
X140711362Y-88453303D01*
X140883074Y-88480500D01*
X140883077Y-88480500D01*
X141056923Y-88480500D01*
X141056926Y-88480500D01*
X141228638Y-88453303D01*
X141393981Y-88399580D01*
X141548884Y-88320653D01*
X141689533Y-88218465D01*
X141812465Y-88095533D01*
X141914653Y-87954884D01*
X141993580Y-87799981D01*
X142047303Y-87634638D01*
X142074500Y-87462926D01*
X142074500Y-87289074D01*
X142047303Y-87117362D01*
X141993580Y-86952019D01*
X141914653Y-86797116D01*
X141874160Y-86741383D01*
X141812463Y-86656464D01*
X141689535Y-86533536D01*
X141548887Y-86431349D01*
X141548886Y-86431348D01*
X141548884Y-86431347D01*
X141393981Y-86352420D01*
X141393978Y-86352419D01*
X141393976Y-86352418D01*
X141228642Y-86298698D01*
X141228640Y-86298697D01*
X141228638Y-86298697D01*
X141056926Y-86271500D01*
X140883074Y-86271500D01*
X140711362Y-86298697D01*
X140711360Y-86298697D01*
X140711357Y-86298698D01*
X140546023Y-86352418D01*
X140546017Y-86352421D01*
X140391112Y-86431349D01*
X140250464Y-86533536D01*
X140127536Y-86656464D01*
X140025349Y-86797112D01*
X139946421Y-86952017D01*
X139946418Y-86952023D01*
X139892698Y-87117357D01*
X139892697Y-87117360D01*
X139892697Y-87117362D01*
X139865500Y-87289074D01*
X119029806Y-87289074D01*
X119029799Y-87284303D01*
X119025596Y-84339734D01*
X122484700Y-84339734D01*
X122484700Y-84468665D01*
X122509852Y-84595111D01*
X122559189Y-84714222D01*
X122601652Y-84777772D01*
X122630816Y-84821419D01*
X122630821Y-84821425D01*
X122721974Y-84912578D01*
X122721980Y-84912583D01*
X122829178Y-84984211D01*
X122948289Y-85033548D01*
X123074737Y-85058700D01*
X123074738Y-85058700D01*
X123203662Y-85058700D01*
X123203663Y-85058700D01*
X123330111Y-85033548D01*
X123449222Y-84984211D01*
X123556420Y-84912583D01*
X123647583Y-84821420D01*
X123719211Y-84714222D01*
X123768548Y-84595111D01*
X123793700Y-84468663D01*
X123793700Y-84339737D01*
X123773490Y-84238134D01*
X128453700Y-84238134D01*
X128453700Y-84367065D01*
X128462642Y-84412017D01*
X128478852Y-84493511D01*
X128528189Y-84612622D01*
X128569282Y-84674121D01*
X128599816Y-84719819D01*
X128599821Y-84719825D01*
X128690974Y-84810978D01*
X128690980Y-84810983D01*
X128798178Y-84882611D01*
X128917289Y-84931948D01*
X129043737Y-84957100D01*
X129043738Y-84957100D01*
X129172662Y-84957100D01*
X129172663Y-84957100D01*
X129299111Y-84931948D01*
X129418222Y-84882611D01*
X129525420Y-84810983D01*
X129587329Y-84749074D01*
X139865500Y-84749074D01*
X139865500Y-84922926D01*
X139887005Y-85058699D01*
X139892698Y-85094642D01*
X139934291Y-85222654D01*
X139946420Y-85259981D01*
X140025347Y-85414884D01*
X140025349Y-85414887D01*
X140127536Y-85555535D01*
X140250464Y-85678463D01*
X140250467Y-85678465D01*
X140391116Y-85780653D01*
X140546019Y-85859580D01*
X140711362Y-85913303D01*
X140883074Y-85940500D01*
X140883077Y-85940500D01*
X141056923Y-85940500D01*
X141056926Y-85940500D01*
X141228638Y-85913303D01*
X141393981Y-85859580D01*
X141548884Y-85780653D01*
X141689533Y-85678465D01*
X141812465Y-85555533D01*
X141914653Y-85414884D01*
X141960338Y-85325223D01*
X147940611Y-85325223D01*
X147940611Y-85325226D01*
X147940611Y-85454152D01*
X147965763Y-85580600D01*
X148015100Y-85699711D01*
X148054818Y-85759153D01*
X148086727Y-85806908D01*
X148086732Y-85806914D01*
X148177885Y-85898067D01*
X148177891Y-85898072D01*
X148285089Y-85969700D01*
X148404200Y-86019037D01*
X148530648Y-86044189D01*
X148530649Y-86044189D01*
X148659573Y-86044189D01*
X148659574Y-86044189D01*
X148786022Y-86019037D01*
X148905133Y-85969700D01*
X149012331Y-85898072D01*
X149103494Y-85806909D01*
X149116440Y-85787534D01*
X151034600Y-85787534D01*
X151034600Y-85787537D01*
X151034600Y-85916463D01*
X151059752Y-86042911D01*
X151109089Y-86162022D01*
X151129802Y-86193021D01*
X151180716Y-86269219D01*
X151180721Y-86269225D01*
X151271874Y-86360378D01*
X151271880Y-86360383D01*
X151379078Y-86432011D01*
X151498189Y-86481348D01*
X151590834Y-86499776D01*
X151653742Y-86532682D01*
X151688874Y-86594377D01*
X151685074Y-86665272D01*
X151655347Y-86712449D01*
X151561416Y-86806380D01*
X151489789Y-86913578D01*
X151440454Y-87032683D01*
X151440452Y-87032688D01*
X151415300Y-87159134D01*
X151415300Y-87288065D01*
X151430184Y-87362889D01*
X151440452Y-87414511D01*
X151489789Y-87533622D01*
X151513860Y-87569646D01*
X151561416Y-87640819D01*
X151561421Y-87640825D01*
X151652574Y-87731978D01*
X151652580Y-87731983D01*
X151759778Y-87803611D01*
X151878889Y-87852948D01*
X151990509Y-87875150D01*
X152053418Y-87908057D01*
X152088550Y-87969752D01*
X152084750Y-88040647D01*
X152082336Y-88046946D01*
X152050055Y-88124879D01*
X152050052Y-88124888D01*
X152024900Y-88251334D01*
X152024900Y-88380265D01*
X152040057Y-88456461D01*
X152050052Y-88506711D01*
X152099389Y-88625822D01*
X152133786Y-88677300D01*
X152171016Y-88733019D01*
X152171021Y-88733025D01*
X152262174Y-88824178D01*
X152262180Y-88824183D01*
X152369378Y-88895811D01*
X152488489Y-88945148D01*
X152614937Y-88970300D01*
X152614938Y-88970300D01*
X152743862Y-88970300D01*
X152743863Y-88970300D01*
X152870311Y-88945148D01*
X152989422Y-88895811D01*
X153096620Y-88824183D01*
X153187783Y-88733020D01*
X153259411Y-88625822D01*
X153298797Y-88530734D01*
X154412500Y-88530734D01*
X154412500Y-88659665D01*
X154430825Y-88751789D01*
X154437652Y-88786111D01*
X154486989Y-88905222D01*
X154513667Y-88945148D01*
X154558616Y-89012419D01*
X154558621Y-89012425D01*
X154649774Y-89103578D01*
X154649780Y-89103583D01*
X154756978Y-89175211D01*
X154876089Y-89224548D01*
X155002537Y-89249700D01*
X155002538Y-89249700D01*
X155131462Y-89249700D01*
X155131463Y-89249700D01*
X155257911Y-89224548D01*
X155377022Y-89175211D01*
X155484220Y-89103583D01*
X155575383Y-89012420D01*
X155608558Y-88962770D01*
X155663033Y-88917244D01*
X155733476Y-88908395D01*
X155783321Y-88928006D01*
X155849178Y-88972011D01*
X155968289Y-89021348D01*
X156094737Y-89046500D01*
X156094738Y-89046500D01*
X156223662Y-89046500D01*
X156223663Y-89046500D01*
X156350111Y-89021348D01*
X156469222Y-88972011D01*
X156576420Y-88900383D01*
X156667583Y-88809220D01*
X156739211Y-88702022D01*
X156788548Y-88582911D01*
X156813700Y-88456463D01*
X156813700Y-88334300D01*
X156833702Y-88266179D01*
X156887358Y-88219686D01*
X156939700Y-88208300D01*
X156960262Y-88208300D01*
X156960263Y-88208300D01*
X157086711Y-88183148D01*
X157205822Y-88133811D01*
X157313020Y-88062183D01*
X157404183Y-87971020D01*
X157475811Y-87863822D01*
X157525148Y-87744711D01*
X157550300Y-87618263D01*
X157550300Y-87489337D01*
X157525148Y-87362889D01*
X157475811Y-87243778D01*
X157404183Y-87136580D01*
X157404178Y-87136574D01*
X157313025Y-87045421D01*
X157313019Y-87045416D01*
X157277449Y-87021649D01*
X157205822Y-86973789D01*
X157086711Y-86924452D01*
X157032044Y-86913578D01*
X156960265Y-86899300D01*
X156960263Y-86899300D01*
X156831337Y-86899300D01*
X156831334Y-86899300D01*
X156704888Y-86924452D01*
X156704883Y-86924454D01*
X156585778Y-86973789D01*
X156478580Y-87045416D01*
X156478574Y-87045421D01*
X156387421Y-87136574D01*
X156387416Y-87136580D01*
X156315789Y-87243778D01*
X156266454Y-87362883D01*
X156266452Y-87362888D01*
X156241300Y-87489334D01*
X156241300Y-87611500D01*
X156221298Y-87679621D01*
X156167642Y-87726114D01*
X156115300Y-87737500D01*
X156094734Y-87737500D01*
X155968288Y-87762652D01*
X155968283Y-87762654D01*
X155849178Y-87811989D01*
X155741980Y-87883616D01*
X155741974Y-87883621D01*
X155650821Y-87974774D01*
X155650814Y-87974783D01*
X155617641Y-88024429D01*
X155563164Y-88069956D01*
X155492720Y-88078803D01*
X155442875Y-88059191D01*
X155415122Y-88040647D01*
X155377022Y-88015189D01*
X155257911Y-87965852D01*
X155131465Y-87940700D01*
X155131463Y-87940700D01*
X155002537Y-87940700D01*
X155002534Y-87940700D01*
X154876088Y-87965852D01*
X154876083Y-87965854D01*
X154756978Y-88015189D01*
X154649780Y-88086816D01*
X154649774Y-88086821D01*
X154558621Y-88177974D01*
X154558616Y-88177980D01*
X154486989Y-88285178D01*
X154437654Y-88404283D01*
X154437652Y-88404288D01*
X154412500Y-88530734D01*
X153298797Y-88530734D01*
X153308748Y-88506711D01*
X153333900Y-88380263D01*
X153333900Y-88251337D01*
X153308748Y-88124889D01*
X153259411Y-88005778D01*
X153187783Y-87898580D01*
X153187778Y-87898574D01*
X153096625Y-87807421D01*
X153096619Y-87807416D01*
X153029625Y-87762652D01*
X152989422Y-87735789D01*
X152870311Y-87686452D01*
X152758690Y-87664249D01*
X152695780Y-87631341D01*
X152660649Y-87569646D01*
X152664449Y-87498751D01*
X152666864Y-87492451D01*
X152668154Y-87489338D01*
X152699148Y-87414511D01*
X152724300Y-87288063D01*
X152724300Y-87159137D01*
X152699148Y-87032689D01*
X152649811Y-86913578D01*
X152578183Y-86806380D01*
X152578178Y-86806374D01*
X152487025Y-86715221D01*
X152487019Y-86715216D01*
X152451449Y-86691449D01*
X152379822Y-86643589D01*
X152260711Y-86594252D01*
X152168065Y-86575823D01*
X152105157Y-86542916D01*
X152070025Y-86481221D01*
X152073825Y-86410326D01*
X152103553Y-86363149D01*
X152106316Y-86360385D01*
X152106320Y-86360383D01*
X152197483Y-86269220D01*
X152269111Y-86162022D01*
X152318448Y-86042911D01*
X152343600Y-85916463D01*
X152343600Y-85787537D01*
X152331084Y-85724617D01*
X152328880Y-85713534D01*
X152328443Y-85711336D01*
X155301500Y-85711336D01*
X155301500Y-85840267D01*
X155321438Y-85940500D01*
X155326652Y-85966713D01*
X155375989Y-86085824D01*
X155423849Y-86157451D01*
X155447616Y-86193021D01*
X155447621Y-86193027D01*
X155538774Y-86284180D01*
X155538780Y-86284185D01*
X155645978Y-86355813D01*
X155765089Y-86405150D01*
X155891537Y-86430302D01*
X155891538Y-86430302D01*
X156020462Y-86430302D01*
X156020463Y-86430302D01*
X156146911Y-86405150D01*
X156266022Y-86355813D01*
X156373220Y-86284185D01*
X156464383Y-86193022D01*
X156536011Y-86085824D01*
X156585348Y-85966713D01*
X156610500Y-85840265D01*
X156610500Y-85711339D01*
X156585348Y-85584891D01*
X156536011Y-85465780D01*
X156464383Y-85358582D01*
X156464378Y-85358576D01*
X156373225Y-85267423D01*
X156373219Y-85267418D01*
X156306222Y-85222652D01*
X156266022Y-85195791D01*
X156146911Y-85146454D01*
X156020465Y-85121302D01*
X156020463Y-85121302D01*
X155891537Y-85121302D01*
X155891534Y-85121302D01*
X155765088Y-85146454D01*
X155765083Y-85146456D01*
X155645978Y-85195791D01*
X155538780Y-85267418D01*
X155538774Y-85267423D01*
X155447621Y-85358576D01*
X155447616Y-85358582D01*
X155375989Y-85465780D01*
X155326654Y-85584885D01*
X155326652Y-85584890D01*
X155301500Y-85711336D01*
X152328443Y-85711336D01*
X152318448Y-85661089D01*
X152269111Y-85541978D01*
X152197483Y-85434780D01*
X152197478Y-85434774D01*
X152106325Y-85343621D01*
X152106319Y-85343616D01*
X152041980Y-85300626D01*
X151999122Y-85271989D01*
X151880011Y-85222652D01*
X151753565Y-85197500D01*
X151753563Y-85197500D01*
X151624637Y-85197500D01*
X151624634Y-85197500D01*
X151498188Y-85222652D01*
X151498183Y-85222654D01*
X151379078Y-85271989D01*
X151271880Y-85343616D01*
X151271874Y-85343621D01*
X151180721Y-85434774D01*
X151180716Y-85434780D01*
X151109089Y-85541978D01*
X151059754Y-85661083D01*
X151059752Y-85661088D01*
X151034600Y-85787534D01*
X149116440Y-85787534D01*
X149175122Y-85699711D01*
X149224459Y-85580600D01*
X149249611Y-85454152D01*
X149249611Y-85325226D01*
X149224459Y-85198778D01*
X149175122Y-85079667D01*
X149103494Y-84972469D01*
X149103489Y-84972463D01*
X149012336Y-84881310D01*
X149012330Y-84881305D01*
X148922713Y-84821425D01*
X148905133Y-84809678D01*
X148786022Y-84760341D01*
X148659576Y-84735189D01*
X148659574Y-84735189D01*
X148530648Y-84735189D01*
X148530645Y-84735189D01*
X148404199Y-84760341D01*
X148404194Y-84760343D01*
X148285089Y-84809678D01*
X148177891Y-84881305D01*
X148177885Y-84881310D01*
X148086732Y-84972463D01*
X148086727Y-84972469D01*
X148015100Y-85079667D01*
X147965765Y-85198772D01*
X147965763Y-85198777D01*
X147940611Y-85325223D01*
X141960338Y-85325223D01*
X141993580Y-85259981D01*
X142047303Y-85094638D01*
X142074500Y-84922926D01*
X142074500Y-84749074D01*
X142047303Y-84577362D01*
X141993580Y-84412019D01*
X141914653Y-84257116D01*
X141812465Y-84116467D01*
X141812463Y-84116464D01*
X141689535Y-83993536D01*
X141548887Y-83891349D01*
X141548886Y-83891348D01*
X141548884Y-83891347D01*
X141393981Y-83812420D01*
X141393978Y-83812419D01*
X141393976Y-83812418D01*
X141228642Y-83758698D01*
X141228640Y-83758697D01*
X141228638Y-83758697D01*
X141056926Y-83731500D01*
X140883074Y-83731500D01*
X140711362Y-83758697D01*
X140711360Y-83758697D01*
X140711357Y-83758698D01*
X140546023Y-83812418D01*
X140546017Y-83812421D01*
X140391112Y-83891349D01*
X140250464Y-83993536D01*
X140127536Y-84116464D01*
X140025349Y-84257112D01*
X139946421Y-84412017D01*
X139946418Y-84412023D01*
X139892698Y-84577357D01*
X139892697Y-84577360D01*
X139892697Y-84577362D01*
X139865500Y-84749074D01*
X129587329Y-84749074D01*
X129616583Y-84719820D01*
X129688211Y-84612622D01*
X129737548Y-84493511D01*
X129762700Y-84367063D01*
X129762700Y-84238137D01*
X129737548Y-84111689D01*
X129688211Y-83992578D01*
X129616583Y-83885380D01*
X129616578Y-83885374D01*
X129525425Y-83794221D01*
X129525419Y-83794216D01*
X129458796Y-83749700D01*
X129418222Y-83722589D01*
X129299111Y-83673252D01*
X129172665Y-83648100D01*
X129172663Y-83648100D01*
X129043737Y-83648100D01*
X129043734Y-83648100D01*
X128917288Y-83673252D01*
X128917283Y-83673254D01*
X128798178Y-83722589D01*
X128690980Y-83794216D01*
X128690974Y-83794221D01*
X128599821Y-83885374D01*
X128599816Y-83885380D01*
X128528189Y-83992578D01*
X128478854Y-84111683D01*
X128478852Y-84111688D01*
X128453700Y-84238134D01*
X123773490Y-84238134D01*
X123768548Y-84213289D01*
X123719211Y-84094178D01*
X123647583Y-83986980D01*
X123647578Y-83986974D01*
X123556425Y-83895821D01*
X123556419Y-83895816D01*
X123512709Y-83866610D01*
X123449222Y-83824189D01*
X123330111Y-83774852D01*
X123203665Y-83749700D01*
X123203663Y-83749700D01*
X123074737Y-83749700D01*
X123074734Y-83749700D01*
X122948288Y-83774852D01*
X122948283Y-83774854D01*
X122829178Y-83824189D01*
X122721980Y-83895816D01*
X122721974Y-83895821D01*
X122630821Y-83986974D01*
X122630816Y-83986980D01*
X122559189Y-84094178D01*
X122509854Y-84213283D01*
X122509852Y-84213288D01*
X122484700Y-84339734D01*
X119025596Y-84339734D01*
X119025587Y-84333728D01*
X119025500Y-84273051D01*
X119025500Y-80851455D01*
X122199500Y-80851455D01*
X122199500Y-81548544D01*
X122237949Y-81741835D01*
X122237950Y-81741838D01*
X122291873Y-81872020D01*
X122313368Y-81923914D01*
X122422861Y-82087782D01*
X122562218Y-82227139D01*
X122726086Y-82336632D01*
X122908165Y-82412051D01*
X123101459Y-82450500D01*
X123298541Y-82450500D01*
X123491835Y-82412051D01*
X123673914Y-82336632D01*
X123837782Y-82227139D01*
X123977139Y-82087782D01*
X124086632Y-81923914D01*
X124162051Y-81741835D01*
X124200500Y-81548541D01*
X124200500Y-81101583D01*
X126349500Y-81101583D01*
X126349500Y-81298417D01*
X126380291Y-81492826D01*
X126441116Y-81680025D01*
X126530476Y-81855405D01*
X126530478Y-81855408D01*
X126646173Y-82014648D01*
X126785351Y-82153826D01*
X126785354Y-82153828D01*
X126944595Y-82269524D01*
X127119975Y-82358884D01*
X127307174Y-82419709D01*
X127501583Y-82450500D01*
X127501586Y-82450500D01*
X127698414Y-82450500D01*
X127698417Y-82450500D01*
X127892826Y-82419709D01*
X128080025Y-82358884D01*
X128255405Y-82269524D01*
X128338607Y-82209074D01*
X139865500Y-82209074D01*
X139865500Y-82382926D01*
X139892697Y-82554638D01*
X139892698Y-82554642D01*
X139942068Y-82706589D01*
X139946420Y-82719981D01*
X140022540Y-82869374D01*
X140025349Y-82874887D01*
X140127536Y-83015535D01*
X140250464Y-83138463D01*
X140250467Y-83138465D01*
X140391116Y-83240653D01*
X140546019Y-83319580D01*
X140711362Y-83373303D01*
X140883074Y-83400500D01*
X140883077Y-83400500D01*
X141056923Y-83400500D01*
X141056926Y-83400500D01*
X141228638Y-83373303D01*
X141393981Y-83319580D01*
X141548884Y-83240653D01*
X141574373Y-83222134D01*
X153879100Y-83222134D01*
X153879100Y-83351065D01*
X153904252Y-83477511D01*
X153953589Y-83596622D01*
X153987986Y-83648100D01*
X154025216Y-83703819D01*
X154025221Y-83703825D01*
X154116374Y-83794978D01*
X154116380Y-83794983D01*
X154223578Y-83866611D01*
X154342689Y-83915948D01*
X154469137Y-83941100D01*
X154469138Y-83941100D01*
X154598062Y-83941100D01*
X154598063Y-83941100D01*
X154724511Y-83915948D01*
X154843622Y-83866611D01*
X154950820Y-83794983D01*
X155041983Y-83703820D01*
X155113611Y-83596622D01*
X155162948Y-83477511D01*
X155188100Y-83351063D01*
X155188100Y-83222137D01*
X155162948Y-83095689D01*
X155113611Y-82976578D01*
X155041983Y-82869380D01*
X155041978Y-82869374D01*
X154950825Y-82778221D01*
X154950819Y-82778216D01*
X154915249Y-82754449D01*
X154843622Y-82706589D01*
X154724511Y-82657252D01*
X154598065Y-82632100D01*
X154598063Y-82632100D01*
X154469137Y-82632100D01*
X154469134Y-82632100D01*
X154342688Y-82657252D01*
X154342683Y-82657254D01*
X154223578Y-82706589D01*
X154116380Y-82778216D01*
X154116374Y-82778221D01*
X154025221Y-82869374D01*
X154025216Y-82869380D01*
X153953589Y-82976578D01*
X153904254Y-83095683D01*
X153904252Y-83095688D01*
X153879100Y-83222134D01*
X141574373Y-83222134D01*
X141689533Y-83138465D01*
X141689538Y-83138460D01*
X141701147Y-83126852D01*
X141812460Y-83015538D01*
X141812463Y-83015535D01*
X141812465Y-83015533D01*
X141914653Y-82874884D01*
X141993580Y-82719981D01*
X142047303Y-82554638D01*
X142074500Y-82382926D01*
X142074500Y-82209074D01*
X142047303Y-82037362D01*
X141993580Y-81872019D01*
X141969691Y-81825134D01*
X149484900Y-81825134D01*
X149484900Y-81954065D01*
X149501468Y-82037357D01*
X149510052Y-82080511D01*
X149559389Y-82199622D01*
X149577777Y-82227141D01*
X149631016Y-82306819D01*
X149631021Y-82306825D01*
X149722174Y-82397978D01*
X149722180Y-82397983D01*
X149829378Y-82469611D01*
X149948489Y-82518948D01*
X150074937Y-82544100D01*
X150074938Y-82544100D01*
X150203862Y-82544100D01*
X150203863Y-82544100D01*
X150330311Y-82518948D01*
X150449422Y-82469611D01*
X150556620Y-82397983D01*
X150647783Y-82306820D01*
X150719411Y-82199622D01*
X150768748Y-82080511D01*
X150793900Y-81954063D01*
X150793900Y-81825137D01*
X150768748Y-81698689D01*
X150719411Y-81579578D01*
X150647783Y-81472380D01*
X150647778Y-81472374D01*
X150556625Y-81381221D01*
X150556619Y-81381216D01*
X150489625Y-81336452D01*
X150449422Y-81309589D01*
X150330311Y-81260252D01*
X150203865Y-81235100D01*
X150203863Y-81235100D01*
X150074937Y-81235100D01*
X150074934Y-81235100D01*
X149948488Y-81260252D01*
X149948483Y-81260254D01*
X149829378Y-81309589D01*
X149722180Y-81381216D01*
X149722174Y-81381221D01*
X149631021Y-81472374D01*
X149631016Y-81472380D01*
X149559389Y-81579578D01*
X149510054Y-81698683D01*
X149510052Y-81698688D01*
X149484900Y-81825134D01*
X141969691Y-81825134D01*
X141914653Y-81717116D01*
X141812465Y-81576467D01*
X141812463Y-81576464D01*
X141689535Y-81453536D01*
X141548887Y-81351349D01*
X141548886Y-81351348D01*
X141548884Y-81351347D01*
X141393981Y-81272420D01*
X141393978Y-81272419D01*
X141393976Y-81272418D01*
X141228642Y-81218698D01*
X141228640Y-81218697D01*
X141228638Y-81218697D01*
X141056926Y-81191500D01*
X140883074Y-81191500D01*
X140711362Y-81218697D01*
X140711360Y-81218697D01*
X140711357Y-81218698D01*
X140546023Y-81272418D01*
X140546017Y-81272421D01*
X140391112Y-81351349D01*
X140250464Y-81453536D01*
X140127536Y-81576464D01*
X140025349Y-81717112D01*
X139946421Y-81872017D01*
X139946418Y-81872023D01*
X139892698Y-82037357D01*
X139892697Y-82037360D01*
X139892697Y-82037362D01*
X139865500Y-82209074D01*
X128338607Y-82209074D01*
X128414646Y-82153828D01*
X128414651Y-82153823D01*
X128453447Y-82115028D01*
X128553823Y-82014651D01*
X128553826Y-82014648D01*
X128553828Y-82014646D01*
X128669524Y-81855405D01*
X128758884Y-81680025D01*
X128819709Y-81492826D01*
X128850500Y-81298417D01*
X128850500Y-81101583D01*
X128819709Y-80907174D01*
X128758884Y-80719975D01*
X128669524Y-80544595D01*
X128600289Y-80449302D01*
X128553826Y-80385351D01*
X128414648Y-80246173D01*
X128255408Y-80130478D01*
X128255407Y-80130477D01*
X128255405Y-80130476D01*
X128080025Y-80041116D01*
X127892826Y-79980291D01*
X127698417Y-79949500D01*
X127501583Y-79949500D01*
X127307174Y-79980291D01*
X127307171Y-79980291D01*
X127307170Y-79980292D01*
X127217354Y-80009475D01*
X127119975Y-80041116D01*
X127119973Y-80041116D01*
X127119973Y-80041117D01*
X126944591Y-80130478D01*
X126785351Y-80246173D01*
X126646173Y-80385351D01*
X126530478Y-80544591D01*
X126450961Y-80700653D01*
X126441116Y-80719975D01*
X126380291Y-80907174D01*
X126349500Y-81101583D01*
X124200500Y-81101583D01*
X124200500Y-80851459D01*
X124162051Y-80658165D01*
X124086632Y-80476086D01*
X123977139Y-80312218D01*
X123837782Y-80172861D01*
X123673914Y-80063368D01*
X123620195Y-80041117D01*
X123491838Y-79987950D01*
X123491835Y-79987949D01*
X123298544Y-79949500D01*
X123298541Y-79949500D01*
X123101459Y-79949500D01*
X123101455Y-79949500D01*
X122908164Y-79987949D01*
X122908161Y-79987950D01*
X122726085Y-80063368D01*
X122562222Y-80172858D01*
X122562215Y-80172863D01*
X122422863Y-80312215D01*
X122422858Y-80312222D01*
X122313368Y-80476085D01*
X122237950Y-80658161D01*
X122237949Y-80658164D01*
X122199500Y-80851455D01*
X119025500Y-80851455D01*
X119025500Y-78624930D01*
X135195500Y-78624930D01*
X135195500Y-80375063D01*
X135195501Y-80375073D01*
X135210265Y-80449300D01*
X135266516Y-80533484D01*
X135350697Y-80589733D01*
X135350699Y-80589734D01*
X135424933Y-80604500D01*
X137175066Y-80604499D01*
X137175069Y-80604498D01*
X137175073Y-80604498D01*
X137224326Y-80594701D01*
X137249301Y-80589734D01*
X137333484Y-80533484D01*
X137389734Y-80449301D01*
X137404500Y-80375067D01*
X137404499Y-79669074D01*
X139865500Y-79669074D01*
X139865500Y-79842926D01*
X139882380Y-79949500D01*
X139892698Y-80014642D01*
X139944106Y-80172861D01*
X139946420Y-80179981D01*
X140025347Y-80334884D01*
X140025349Y-80334887D01*
X140127536Y-80475535D01*
X140250464Y-80598463D01*
X140313989Y-80644617D01*
X140391116Y-80700653D01*
X140546019Y-80779580D01*
X140711362Y-80833303D01*
X140883074Y-80860500D01*
X140883077Y-80860500D01*
X141056923Y-80860500D01*
X141056926Y-80860500D01*
X141228638Y-80833303D01*
X141393981Y-80779580D01*
X141548884Y-80700653D01*
X141689533Y-80598465D01*
X141812465Y-80475533D01*
X141914653Y-80334884D01*
X141993580Y-80179981D01*
X142047303Y-80014638D01*
X142074500Y-79842926D01*
X142074500Y-79669074D01*
X142047303Y-79497362D01*
X141993580Y-79332019D01*
X141914653Y-79177116D01*
X141812465Y-79036467D01*
X141812463Y-79036464D01*
X141689535Y-78913536D01*
X141548887Y-78811349D01*
X141548886Y-78811348D01*
X141548884Y-78811347D01*
X141393981Y-78732420D01*
X141393978Y-78732419D01*
X141393976Y-78732418D01*
X141228642Y-78678698D01*
X141228640Y-78678697D01*
X141228638Y-78678697D01*
X141056926Y-78651500D01*
X140883074Y-78651500D01*
X140711362Y-78678697D01*
X140711360Y-78678697D01*
X140711357Y-78678698D01*
X140546023Y-78732418D01*
X140546017Y-78732421D01*
X140391112Y-78811349D01*
X140250464Y-78913536D01*
X140127536Y-79036464D01*
X140025349Y-79177112D01*
X139946421Y-79332017D01*
X139946418Y-79332023D01*
X139892698Y-79497357D01*
X139892697Y-79497360D01*
X139892697Y-79497362D01*
X139865500Y-79669074D01*
X137404499Y-79669074D01*
X137404499Y-79497362D01*
X137404499Y-78624936D01*
X137404498Y-78624926D01*
X137389734Y-78550699D01*
X137333483Y-78466515D01*
X137249302Y-78410266D01*
X137175067Y-78395500D01*
X135424936Y-78395500D01*
X135424926Y-78395501D01*
X135350699Y-78410265D01*
X135266515Y-78466516D01*
X135210266Y-78550697D01*
X135195500Y-78624930D01*
X119025500Y-78624930D01*
X119025500Y-76873074D01*
X135195500Y-76873074D01*
X135195500Y-77046926D01*
X135222697Y-77218638D01*
X135276420Y-77383981D01*
X135276421Y-77383982D01*
X135355349Y-77538887D01*
X135457536Y-77679535D01*
X135580464Y-77802463D01*
X135580467Y-77802465D01*
X135721116Y-77904653D01*
X135876019Y-77983580D01*
X136041362Y-78037303D01*
X136213074Y-78064500D01*
X136213077Y-78064500D01*
X136386923Y-78064500D01*
X136386926Y-78064500D01*
X136558638Y-78037303D01*
X136723981Y-77983580D01*
X136878884Y-77904653D01*
X137019533Y-77802465D01*
X137142465Y-77679533D01*
X137244653Y-77538884D01*
X137323580Y-77383981D01*
X137377303Y-77218638D01*
X137404500Y-77046926D01*
X137404500Y-76873074D01*
X137377303Y-76701362D01*
X137323580Y-76536019D01*
X137244653Y-76381116D01*
X137215461Y-76340936D01*
X137215457Y-76340930D01*
X139865500Y-76340930D01*
X139865500Y-78091063D01*
X139865501Y-78091073D01*
X139880265Y-78165300D01*
X139936516Y-78249484D01*
X140020697Y-78305733D01*
X140020699Y-78305734D01*
X140094933Y-78320500D01*
X141845066Y-78320499D01*
X141845069Y-78320498D01*
X141845073Y-78320498D01*
X141894326Y-78310701D01*
X141919301Y-78305734D01*
X142003484Y-78249484D01*
X142059734Y-78165301D01*
X142074500Y-78091067D01*
X142074499Y-76340934D01*
X142074498Y-76340930D01*
X142074498Y-76340926D01*
X142059734Y-76266699D01*
X142003483Y-76182515D01*
X141919302Y-76126266D01*
X141845067Y-76111500D01*
X140094936Y-76111500D01*
X140094926Y-76111501D01*
X140020699Y-76126265D01*
X139936515Y-76182516D01*
X139880266Y-76266697D01*
X139865500Y-76340930D01*
X137215457Y-76340930D01*
X137142463Y-76240464D01*
X137019535Y-76117536D01*
X136878887Y-76015349D01*
X136878886Y-76015348D01*
X136878884Y-76015347D01*
X136723981Y-75936420D01*
X136723978Y-75936419D01*
X136723976Y-75936418D01*
X136558642Y-75882698D01*
X136558640Y-75882697D01*
X136558638Y-75882697D01*
X136386926Y-75855500D01*
X136213074Y-75855500D01*
X136041362Y-75882697D01*
X136041360Y-75882697D01*
X136041357Y-75882698D01*
X135876023Y-75936418D01*
X135876017Y-75936421D01*
X135721112Y-76015349D01*
X135580464Y-76117536D01*
X135457536Y-76240464D01*
X135355349Y-76381112D01*
X135276421Y-76536017D01*
X135276418Y-76536023D01*
X135222698Y-76701357D01*
X135222697Y-76701360D01*
X135222697Y-76701362D01*
X135195500Y-76873074D01*
X119025500Y-76873074D01*
X119025500Y-74333074D01*
X135195500Y-74333074D01*
X135195500Y-74506926D01*
X135222697Y-74678638D01*
X135222698Y-74678642D01*
X135273373Y-74834605D01*
X135276420Y-74843981D01*
X135276421Y-74843982D01*
X135355349Y-74998887D01*
X135457536Y-75139535D01*
X135580464Y-75262463D01*
X135580467Y-75262465D01*
X135721116Y-75364653D01*
X135876019Y-75443580D01*
X136041362Y-75497303D01*
X136213074Y-75524500D01*
X136213077Y-75524500D01*
X136386923Y-75524500D01*
X136386926Y-75524500D01*
X136558638Y-75497303D01*
X136723981Y-75443580D01*
X136878884Y-75364653D01*
X137019533Y-75262465D01*
X137142465Y-75139533D01*
X137244653Y-74998884D01*
X137323580Y-74843981D01*
X137377303Y-74678638D01*
X137404500Y-74506926D01*
X137404500Y-74333074D01*
X137377303Y-74161362D01*
X137323580Y-73996019D01*
X137244653Y-73841116D01*
X137142465Y-73700467D01*
X137142463Y-73700464D01*
X137019535Y-73577536D01*
X136878887Y-73475349D01*
X136878886Y-73475348D01*
X136878884Y-73475347D01*
X136723981Y-73396420D01*
X136723978Y-73396419D01*
X136723976Y-73396418D01*
X136558642Y-73342698D01*
X136558640Y-73342697D01*
X136558638Y-73342697D01*
X136386926Y-73315500D01*
X136213074Y-73315500D01*
X136041362Y-73342697D01*
X136041360Y-73342697D01*
X136041357Y-73342698D01*
X135876023Y-73396418D01*
X135876017Y-73396421D01*
X135721112Y-73475349D01*
X135580464Y-73577536D01*
X135457536Y-73700464D01*
X135355349Y-73841112D01*
X135276421Y-73996017D01*
X135276418Y-73996023D01*
X135222698Y-74161357D01*
X135222697Y-74161360D01*
X135222697Y-74161362D01*
X135195500Y-74333074D01*
X119025500Y-74333074D01*
X119025500Y-71793074D01*
X135195500Y-71793074D01*
X135195500Y-71966926D01*
X135222697Y-72138638D01*
X135276420Y-72303981D01*
X135276421Y-72303982D01*
X135355349Y-72458887D01*
X135457536Y-72599535D01*
X135580464Y-72722463D01*
X135580467Y-72722465D01*
X135721116Y-72824653D01*
X135876019Y-72903580D01*
X136041362Y-72957303D01*
X136213074Y-72984500D01*
X136213077Y-72984500D01*
X136386923Y-72984500D01*
X136386926Y-72984500D01*
X136558638Y-72957303D01*
X136723981Y-72903580D01*
X136878884Y-72824653D01*
X137019533Y-72722465D01*
X137142465Y-72599533D01*
X137244653Y-72458884D01*
X137323580Y-72303981D01*
X137377303Y-72138638D01*
X137404500Y-71966926D01*
X137404500Y-71793074D01*
X137377303Y-71621362D01*
X137323580Y-71456019D01*
X137244653Y-71301116D01*
X137142465Y-71160467D01*
X137142463Y-71160464D01*
X137019535Y-71037536D01*
X136878887Y-70935349D01*
X136878886Y-70935348D01*
X136878884Y-70935347D01*
X136723981Y-70856420D01*
X136723978Y-70856419D01*
X136723976Y-70856418D01*
X136558642Y-70802698D01*
X136558640Y-70802697D01*
X136558638Y-70802697D01*
X136386926Y-70775500D01*
X136213074Y-70775500D01*
X136041362Y-70802697D01*
X136041360Y-70802697D01*
X136041357Y-70802698D01*
X135876023Y-70856418D01*
X135876017Y-70856421D01*
X135721112Y-70935349D01*
X135580464Y-71037536D01*
X135457536Y-71160464D01*
X135355349Y-71301112D01*
X135276421Y-71456017D01*
X135276418Y-71456023D01*
X135222698Y-71621357D01*
X135222697Y-71621360D01*
X135222697Y-71621362D01*
X135195500Y-71793074D01*
X119025500Y-71793074D01*
X119025500Y-69374038D01*
X121399500Y-69374038D01*
X121399500Y-69625962D01*
X121428884Y-69811483D01*
X121438911Y-69874790D01*
X121516757Y-70114374D01*
X121516759Y-70114379D01*
X121617667Y-70312422D01*
X121631132Y-70338848D01*
X121649101Y-70363580D01*
X121779207Y-70542656D01*
X121779209Y-70542658D01*
X121779211Y-70542661D01*
X121957338Y-70720788D01*
X121957341Y-70720790D01*
X121957344Y-70720793D01*
X122161155Y-70868870D01*
X122385621Y-70983241D01*
X122625215Y-71061090D01*
X122874038Y-71100500D01*
X122874041Y-71100500D01*
X123125959Y-71100500D01*
X123125962Y-71100500D01*
X123374785Y-71061090D01*
X123614379Y-70983241D01*
X123838845Y-70868870D01*
X124042656Y-70720793D01*
X124220793Y-70542656D01*
X124368870Y-70338845D01*
X124483241Y-70114379D01*
X124561090Y-69874785D01*
X124600500Y-69625962D01*
X124600500Y-69374038D01*
X124581341Y-69253074D01*
X135195500Y-69253074D01*
X135195500Y-69426926D01*
X135222697Y-69598638D01*
X135222698Y-69598642D01*
X135231573Y-69625958D01*
X135276420Y-69763981D01*
X135343127Y-69894900D01*
X135355349Y-69918887D01*
X135457536Y-70059535D01*
X135580464Y-70182463D01*
X135580467Y-70182465D01*
X135721116Y-70284653D01*
X135876019Y-70363580D01*
X136041362Y-70417303D01*
X136213074Y-70444500D01*
X136213077Y-70444500D01*
X136386923Y-70444500D01*
X136386926Y-70444500D01*
X136558638Y-70417303D01*
X136723981Y-70363580D01*
X136878884Y-70284653D01*
X137019533Y-70182465D01*
X137142465Y-70059533D01*
X137175449Y-70014134D01*
X154387100Y-70014134D01*
X154387100Y-70143065D01*
X154397095Y-70193311D01*
X154412252Y-70269511D01*
X154461589Y-70388622D01*
X154482305Y-70419625D01*
X154533216Y-70495819D01*
X154533221Y-70495825D01*
X154624374Y-70586978D01*
X154624380Y-70586983D01*
X154731578Y-70658611D01*
X154850689Y-70707948D01*
X154977137Y-70733100D01*
X154977138Y-70733100D01*
X155106062Y-70733100D01*
X155106063Y-70733100D01*
X155232511Y-70707948D01*
X155351622Y-70658611D01*
X155458820Y-70586983D01*
X155549983Y-70495820D01*
X155621611Y-70388622D01*
X155670948Y-70269511D01*
X155696100Y-70143063D01*
X155696100Y-70014137D01*
X155680942Y-69937934D01*
X162108700Y-69937934D01*
X162108700Y-70066865D01*
X162123857Y-70143061D01*
X162133852Y-70193311D01*
X162183189Y-70312422D01*
X162217371Y-70363578D01*
X162254816Y-70419619D01*
X162254821Y-70419625D01*
X162345974Y-70510778D01*
X162345980Y-70510783D01*
X162453178Y-70582411D01*
X162572289Y-70631748D01*
X162698737Y-70656900D01*
X162698738Y-70656900D01*
X162827662Y-70656900D01*
X162827663Y-70656900D01*
X162954111Y-70631748D01*
X163073222Y-70582411D01*
X163180420Y-70510783D01*
X163271583Y-70419620D01*
X163343211Y-70312422D01*
X163392548Y-70193311D01*
X163417700Y-70066863D01*
X163417700Y-69937937D01*
X163392548Y-69811489D01*
X163343211Y-69692378D01*
X163271583Y-69585180D01*
X163271578Y-69585174D01*
X163180425Y-69494021D01*
X163180419Y-69494016D01*
X163150241Y-69473852D01*
X163073222Y-69422389D01*
X162956499Y-69374041D01*
X162956492Y-69374038D01*
X175399500Y-69374038D01*
X175399500Y-69625962D01*
X175428884Y-69811483D01*
X175438911Y-69874790D01*
X175516757Y-70114374D01*
X175516759Y-70114379D01*
X175617667Y-70312422D01*
X175631132Y-70338848D01*
X175649101Y-70363580D01*
X175779207Y-70542656D01*
X175779209Y-70542658D01*
X175779211Y-70542661D01*
X175957338Y-70720788D01*
X175957341Y-70720790D01*
X175957344Y-70720793D01*
X176161155Y-70868870D01*
X176385621Y-70983241D01*
X176625215Y-71061090D01*
X176874038Y-71100500D01*
X176874041Y-71100500D01*
X177125959Y-71100500D01*
X177125962Y-71100500D01*
X177374785Y-71061090D01*
X177614379Y-70983241D01*
X177838845Y-70868870D01*
X178042656Y-70720793D01*
X178220793Y-70542656D01*
X178368870Y-70338845D01*
X178483241Y-70114379D01*
X178561090Y-69874785D01*
X178600500Y-69625962D01*
X178600500Y-69374038D01*
X178561090Y-69125215D01*
X178483241Y-68885621D01*
X178368870Y-68661155D01*
X178220793Y-68457344D01*
X178220790Y-68457341D01*
X178220788Y-68457338D01*
X178042661Y-68279211D01*
X178042658Y-68279209D01*
X178042656Y-68279207D01*
X177838845Y-68131130D01*
X177614379Y-68016759D01*
X177614376Y-68016758D01*
X177614374Y-68016757D01*
X177374790Y-67938911D01*
X177374786Y-67938910D01*
X177374785Y-67938910D01*
X177125962Y-67899500D01*
X176874038Y-67899500D01*
X176625215Y-67938910D01*
X176625209Y-67938911D01*
X176385625Y-68016757D01*
X176385619Y-68016760D01*
X176161151Y-68131132D01*
X175957341Y-68279209D01*
X175957338Y-68279211D01*
X175779211Y-68457338D01*
X175779209Y-68457341D01*
X175631132Y-68661151D01*
X175516760Y-68885619D01*
X175516757Y-68885625D01*
X175438911Y-69125209D01*
X175438910Y-69125214D01*
X175438910Y-69125215D01*
X175399500Y-69374038D01*
X162956492Y-69374038D01*
X162954116Y-69373054D01*
X162954111Y-69373052D01*
X162827665Y-69347900D01*
X162827663Y-69347900D01*
X162698737Y-69347900D01*
X162698734Y-69347900D01*
X162572288Y-69373052D01*
X162572283Y-69373054D01*
X162453178Y-69422389D01*
X162345980Y-69494016D01*
X162345974Y-69494021D01*
X162254821Y-69585174D01*
X162254816Y-69585180D01*
X162183189Y-69692378D01*
X162133854Y-69811483D01*
X162133852Y-69811488D01*
X162108700Y-69937934D01*
X155680942Y-69937934D01*
X155670948Y-69887689D01*
X155621611Y-69768578D01*
X155549983Y-69661380D01*
X155549978Y-69661374D01*
X155458825Y-69570221D01*
X155458819Y-69570216D01*
X155423249Y-69546449D01*
X155351622Y-69498589D01*
X155232511Y-69449252D01*
X155106065Y-69424100D01*
X155106063Y-69424100D01*
X154977137Y-69424100D01*
X154977134Y-69424100D01*
X154850688Y-69449252D01*
X154850683Y-69449254D01*
X154731578Y-69498589D01*
X154624380Y-69570216D01*
X154624374Y-69570221D01*
X154533221Y-69661374D01*
X154533216Y-69661380D01*
X154461589Y-69768578D01*
X154412254Y-69887683D01*
X154412252Y-69887688D01*
X154387100Y-70014134D01*
X137175449Y-70014134D01*
X137244653Y-69918884D01*
X137323580Y-69763981D01*
X137377303Y-69598638D01*
X137404500Y-69426926D01*
X137404500Y-69253074D01*
X137392282Y-69175934D01*
X145370100Y-69175934D01*
X145370100Y-69304865D01*
X145383664Y-69373054D01*
X145395252Y-69431311D01*
X145444589Y-69550422D01*
X145467810Y-69585174D01*
X145516216Y-69657619D01*
X145516221Y-69657625D01*
X145607374Y-69748778D01*
X145607380Y-69748783D01*
X145714578Y-69820411D01*
X145833689Y-69869748D01*
X145960137Y-69894900D01*
X145960138Y-69894900D01*
X146089062Y-69894900D01*
X146089063Y-69894900D01*
X146215511Y-69869748D01*
X146334622Y-69820411D01*
X146441820Y-69748783D01*
X146532983Y-69657620D01*
X146604611Y-69550422D01*
X146653948Y-69431311D01*
X146679100Y-69304863D01*
X146679100Y-69175937D01*
X146653948Y-69049489D01*
X146604611Y-68930378D01*
X146532983Y-68823180D01*
X146532978Y-68823174D01*
X146441825Y-68732021D01*
X146441819Y-68732016D01*
X146406249Y-68708249D01*
X146334622Y-68660389D01*
X146215511Y-68611052D01*
X146089065Y-68585900D01*
X146089063Y-68585900D01*
X145960137Y-68585900D01*
X145960134Y-68585900D01*
X145833688Y-68611052D01*
X145833683Y-68611054D01*
X145714578Y-68660389D01*
X145607380Y-68732016D01*
X145607374Y-68732021D01*
X145516221Y-68823174D01*
X145516216Y-68823180D01*
X145444589Y-68930378D01*
X145395254Y-69049483D01*
X145395252Y-69049488D01*
X145370100Y-69175934D01*
X137392282Y-69175934D01*
X137377303Y-69081362D01*
X137323580Y-68916019D01*
X137244653Y-68761116D01*
X137142465Y-68620467D01*
X137142463Y-68620464D01*
X137019535Y-68497536D01*
X136878887Y-68395349D01*
X136878886Y-68395348D01*
X136878884Y-68395347D01*
X136723981Y-68316420D01*
X136723978Y-68316419D01*
X136723976Y-68316418D01*
X136558642Y-68262698D01*
X136558640Y-68262697D01*
X136558638Y-68262697D01*
X136386926Y-68235500D01*
X136213074Y-68235500D01*
X136041362Y-68262697D01*
X136041360Y-68262697D01*
X136041357Y-68262698D01*
X135876023Y-68316418D01*
X135876017Y-68316421D01*
X135721112Y-68395349D01*
X135580464Y-68497536D01*
X135457536Y-68620464D01*
X135355349Y-68761112D01*
X135276421Y-68916017D01*
X135276418Y-68916023D01*
X135222698Y-69081357D01*
X135222697Y-69081360D01*
X135222697Y-69081362D01*
X135195500Y-69253074D01*
X124581341Y-69253074D01*
X124561090Y-69125215D01*
X124483241Y-68885621D01*
X124368870Y-68661155D01*
X124220793Y-68457344D01*
X124220790Y-68457341D01*
X124220788Y-68457338D01*
X124042661Y-68279211D01*
X124042658Y-68279209D01*
X124042656Y-68279207D01*
X123838845Y-68131130D01*
X123614379Y-68016759D01*
X123614376Y-68016758D01*
X123614374Y-68016757D01*
X123374790Y-67938911D01*
X123374786Y-67938910D01*
X123374785Y-67938910D01*
X123125962Y-67899500D01*
X122874038Y-67899500D01*
X122625215Y-67938910D01*
X122625209Y-67938911D01*
X122385625Y-68016757D01*
X122385619Y-68016760D01*
X122161151Y-68131132D01*
X121957341Y-68279209D01*
X121957338Y-68279211D01*
X121779211Y-68457338D01*
X121779209Y-68457341D01*
X121631132Y-68661151D01*
X121516760Y-68885619D01*
X121516757Y-68885625D01*
X121438911Y-69125209D01*
X121438910Y-69125214D01*
X121438910Y-69125215D01*
X121399500Y-69374038D01*
X119025500Y-69374038D01*
X119025500Y-65851500D01*
X119045502Y-65783379D01*
X119099158Y-65736886D01*
X119151500Y-65725500D01*
X181848500Y-65725500D01*
X181916621Y-65745502D01*
G37*
%TD.AperFunction*%
%TD*%
%TA.AperFunction,Conductor*%
%TO.N,Net-(J2-Shield)*%
G36*
X176699028Y-86735602D02*
G01*
X176745521Y-86789258D01*
X176754582Y-86837373D01*
X177726742Y-87809533D01*
X177592825Y-87906829D01*
X177464829Y-88034825D01*
X177367533Y-88168742D01*
X176397987Y-87199196D01*
X176397985Y-87199196D01*
X176293356Y-87330395D01*
X176293352Y-87330401D01*
X176143482Y-87568917D01*
X176021263Y-87822708D01*
X176021252Y-87822735D01*
X175928223Y-88088595D01*
X175865539Y-88363228D01*
X175834000Y-88643152D01*
X175834000Y-88924847D01*
X175865539Y-89204771D01*
X175928223Y-89479404D01*
X176021252Y-89745264D01*
X176021263Y-89745291D01*
X176143482Y-89999082D01*
X176293352Y-90237598D01*
X176293356Y-90237604D01*
X176397985Y-90368802D01*
X176397986Y-90368803D01*
X177367532Y-89399257D01*
X177464829Y-89533175D01*
X177592825Y-89661171D01*
X177726741Y-89758466D01*
X176757195Y-90728012D01*
X176757196Y-90728013D01*
X176888395Y-90832643D01*
X176888401Y-90832647D01*
X177126913Y-90982514D01*
X177210313Y-91022678D01*
X177263009Y-91070256D01*
X177281617Y-91138770D01*
X177260229Y-91206469D01*
X177205636Y-91251858D01*
X177155643Y-91262200D01*
X170128200Y-91262200D01*
X170060079Y-91242198D01*
X170013586Y-91188542D01*
X170002200Y-91136200D01*
X170002200Y-86841600D01*
X170022202Y-86773479D01*
X170075858Y-86726986D01*
X170128200Y-86715600D01*
X176630907Y-86715600D01*
X176699028Y-86735602D01*
G37*
%TD.AperFunction*%
%TA.AperFunction,Conductor*%
G36*
X176946597Y-74424142D02*
G01*
X177014676Y-74444287D01*
X177061057Y-74498039D01*
X177071014Y-74568334D01*
X177041386Y-74632853D01*
X177013370Y-74656829D01*
X176888401Y-74735352D01*
X176888395Y-74735356D01*
X176757196Y-74839985D01*
X176757196Y-74839987D01*
X177726742Y-75809533D01*
X177592825Y-75906829D01*
X177464829Y-76034825D01*
X177367533Y-76168742D01*
X176397987Y-75199196D01*
X176397985Y-75199196D01*
X176293356Y-75330395D01*
X176293352Y-75330401D01*
X176143482Y-75568917D01*
X176021263Y-75822708D01*
X176021252Y-75822735D01*
X175928223Y-76088595D01*
X175865539Y-76363228D01*
X175834000Y-76643152D01*
X175834000Y-76924847D01*
X175865539Y-77204771D01*
X175928223Y-77479404D01*
X176021252Y-77745264D01*
X176021263Y-77745291D01*
X176143482Y-77999082D01*
X176293352Y-78237598D01*
X176293356Y-78237604D01*
X176397985Y-78368802D01*
X176397986Y-78368803D01*
X177367532Y-77399257D01*
X177464829Y-77533175D01*
X177592825Y-77661171D01*
X177726741Y-77758466D01*
X176757195Y-78728012D01*
X176757196Y-78728013D01*
X176888395Y-78832643D01*
X176888401Y-78832647D01*
X177126917Y-78982517D01*
X177380708Y-79104736D01*
X177380735Y-79104747D01*
X177646595Y-79197776D01*
X177921229Y-79260460D01*
X177921226Y-79260460D01*
X178201152Y-79292000D01*
X178482848Y-79292000D01*
X178762771Y-79260460D01*
X179037404Y-79197776D01*
X179303264Y-79104747D01*
X179303291Y-79104736D01*
X179557082Y-78982516D01*
X179795587Y-78832655D01*
X179795596Y-78832648D01*
X179926802Y-78728013D01*
X179926803Y-78728012D01*
X178957257Y-77758466D01*
X179091175Y-77661171D01*
X179219171Y-77533175D01*
X179316466Y-77399257D01*
X180286012Y-78368803D01*
X180286013Y-78368802D01*
X180390648Y-78237596D01*
X180390655Y-78237587D01*
X180540516Y-77999082D01*
X180662736Y-77745291D01*
X180662747Y-77745264D01*
X180755776Y-77479404D01*
X180818460Y-77204771D01*
X180850000Y-76924847D01*
X180850000Y-76643152D01*
X180818460Y-76363228D01*
X180755776Y-76088595D01*
X180662747Y-75822735D01*
X180662736Y-75822708D01*
X180540517Y-75568917D01*
X180390647Y-75330401D01*
X180390643Y-75330395D01*
X180286013Y-75199196D01*
X180286012Y-75199195D01*
X179316466Y-76168741D01*
X179219171Y-76034825D01*
X179091175Y-75906829D01*
X178957257Y-75809532D01*
X179926803Y-74839986D01*
X179926802Y-74839985D01*
X179795604Y-74735356D01*
X179795598Y-74735352D01*
X179679933Y-74662675D01*
X179632895Y-74609497D01*
X179622075Y-74539329D01*
X179650908Y-74474451D01*
X179710240Y-74435460D01*
X179747225Y-74429988D01*
X181848767Y-74434376D01*
X181916842Y-74454519D01*
X181963223Y-74508272D01*
X181974500Y-74560375D01*
X181974500Y-91136200D01*
X181954498Y-91204321D01*
X181900842Y-91250814D01*
X181848500Y-91262200D01*
X179528357Y-91262200D01*
X179460236Y-91242198D01*
X179413743Y-91188542D01*
X179403639Y-91118268D01*
X179433133Y-91053688D01*
X179473687Y-91022678D01*
X179557086Y-90982514D01*
X179795587Y-90832655D01*
X179795596Y-90832648D01*
X179926802Y-90728013D01*
X179926803Y-90728012D01*
X178957257Y-89758466D01*
X179091175Y-89661171D01*
X179219171Y-89533175D01*
X179316466Y-89399257D01*
X180286012Y-90368803D01*
X180286013Y-90368802D01*
X180390648Y-90237596D01*
X180390655Y-90237587D01*
X180540516Y-89999082D01*
X180662736Y-89745291D01*
X180662747Y-89745264D01*
X180755776Y-89479404D01*
X180818460Y-89204771D01*
X180850000Y-88924847D01*
X180850000Y-88643152D01*
X180818460Y-88363228D01*
X180755776Y-88088595D01*
X180662747Y-87822735D01*
X180662736Y-87822708D01*
X180540517Y-87568917D01*
X180390647Y-87330401D01*
X180390643Y-87330395D01*
X180286013Y-87199196D01*
X180286012Y-87199195D01*
X179316466Y-88168741D01*
X179219171Y-88034825D01*
X179091175Y-87906829D01*
X178957257Y-87809532D01*
X179926802Y-86839987D01*
X179926406Y-86832920D01*
X179942557Y-86763784D01*
X179963382Y-86736491D01*
X179984398Y-86715600D01*
X179984400Y-86715600D01*
X180022703Y-80352901D01*
X169962587Y-80327812D01*
X169894516Y-80307640D01*
X169848157Y-80253868D01*
X169836901Y-80201808D01*
X169837095Y-74535556D01*
X169857099Y-74467439D01*
X169910757Y-74420948D01*
X169963355Y-74409563D01*
X176946597Y-74424142D01*
G37*
%TD.AperFunction*%
%TD*%
M02*
