%TF.GenerationSoftware,KiCad,Pcbnew,9.0.6+1*%
%TF.CreationDate,2025-11-26T13:17:52+00:00*%
%TF.ProjectId,t1,74312e6b-6963-4616-945f-706362585858,${git_hash}*%
%TF.SameCoordinates,Original*%
%TF.FileFunction,Drillmap*%
%TF.FilePolarity,Positive*%
%FSLAX45Y45*%
G04 Gerber Fmt 4.5, Leading zero omitted, Abs format (unit mm)*
G04 Created by KiCad (PCBNEW 9.0.6+1) date 2025-11-26 13:17:52*
%MOMM*%
%LPD*%
G01*
G04 APERTURE LIST*
%ADD10C,0.050000*%
%ADD11C,0.200000*%
%ADD12C,0.100000*%
%ADD13C,0.230000*%
G04 APERTURE END LIST*
D10*
X11900000Y-10130000D02*
X18200000Y-10130000D01*
X18200000Y-10130000D02*
X18200000Y-6570000D01*
X11900000Y-6570000D02*
X11900000Y-10130000D01*
X18200000Y-6570000D02*
X11900000Y-6570000D01*
D11*
D12*
X12136440Y-8913180D02*
X12176440Y-8953180D01*
X12176440Y-8913180D02*
X12136440Y-8953180D01*
X12288840Y-7793040D02*
X12328840Y-7833040D01*
X12328840Y-7793040D02*
X12288840Y-7833040D01*
X12291380Y-7312980D02*
X12331380Y-7352980D01*
X12331380Y-7312980D02*
X12291380Y-7352980D01*
X12293920Y-8420420D02*
X12333920Y-8460420D01*
X12333920Y-8420420D02*
X12293920Y-8460420D01*
X12514900Y-9070660D02*
X12554900Y-9110660D01*
X12554900Y-9070660D02*
X12514900Y-9110660D01*
X12888280Y-7318060D02*
X12928280Y-7358060D01*
X12928280Y-7318060D02*
X12888280Y-7358060D01*
X12890820Y-7775260D02*
X12930820Y-7815260D01*
X12930820Y-7775260D02*
X12890820Y-7815260D01*
X12890820Y-8410260D02*
X12930820Y-8450260D01*
X12930820Y-8410260D02*
X12890820Y-8450260D01*
X13061000Y-9515160D02*
X13101000Y-9555160D01*
X13101000Y-9515160D02*
X13061000Y-9555160D01*
X13063540Y-8870000D02*
X13103540Y-8910000D01*
X13103540Y-8870000D02*
X13063540Y-8910000D01*
X14463080Y-8486460D02*
X14503080Y-8526460D01*
X14503080Y-8486460D02*
X14463080Y-8526460D01*
X14582460Y-6904040D02*
X14622460Y-6944040D01*
X14622460Y-6904040D02*
X14582460Y-6944040D01*
X14839511Y-8518969D02*
X14879511Y-8558969D01*
X14879511Y-8518969D02*
X14839511Y-8558969D01*
X14993940Y-8168960D02*
X15033940Y-8208960D01*
X15033940Y-8168960D02*
X14993940Y-8208960D01*
X15148910Y-8565200D02*
X15188910Y-8605200D01*
X15188910Y-8565200D02*
X15148910Y-8605200D01*
X15186980Y-8702360D02*
X15226980Y-8742360D01*
X15226980Y-8702360D02*
X15186980Y-8742360D01*
X15247940Y-8811580D02*
X15287940Y-8851580D01*
X15287940Y-8811580D02*
X15247940Y-8851580D01*
X15415580Y-7559360D02*
X15455580Y-7599360D01*
X15455580Y-7559360D02*
X15415580Y-7599360D01*
X15433360Y-8308660D02*
X15473360Y-8348660D01*
X15473360Y-8308660D02*
X15433360Y-8348660D01*
X15484160Y-6987860D02*
X15524160Y-7027860D01*
X15524160Y-6987860D02*
X15484160Y-7027860D01*
X15486700Y-8839520D02*
X15526700Y-8879520D01*
X15526700Y-8839520D02*
X15486700Y-8879520D01*
X15547660Y-8285800D02*
X15587660Y-8325800D01*
X15587660Y-8285800D02*
X15547660Y-8325800D01*
X15575600Y-8557580D02*
X15615600Y-8597580D01*
X15615600Y-8557580D02*
X15575600Y-8597580D01*
X15595920Y-8819200D02*
X15635920Y-8859200D01*
X15635920Y-8819200D02*
X15595920Y-8859200D01*
X15608620Y-9149400D02*
X15648620Y-9189400D01*
X15648620Y-9149400D02*
X15608620Y-9189400D01*
X15669580Y-8735380D02*
X15709580Y-8775380D01*
X15709580Y-8735380D02*
X15669580Y-8775380D01*
X15898180Y-8176580D02*
X15938180Y-8216580D01*
X15938180Y-8176580D02*
X15898180Y-8216580D01*
X15964220Y-9840280D02*
X16004220Y-9880280D01*
X16004220Y-9840280D02*
X15964220Y-9880280D01*
X16035340Y-8603300D02*
X16075340Y-8643300D01*
X16075340Y-8603300D02*
X16035340Y-8643300D01*
X16048040Y-8095300D02*
X16088040Y-8135300D01*
X16088040Y-8095300D02*
X16048040Y-8135300D01*
X16256320Y-6980240D02*
X16296320Y-7020240D01*
X16296320Y-6980240D02*
X16256320Y-7020240D01*
X16363000Y-7655880D02*
X16403000Y-7695880D01*
X16403000Y-7655880D02*
X16363000Y-7695880D01*
X16484920Y-9024940D02*
X16524920Y-9064940D01*
X16524920Y-9024940D02*
X16484920Y-9064940D01*
X16553500Y-7996240D02*
X16593500Y-8036240D01*
X16593500Y-7996240D02*
X16553500Y-8036240D01*
X16667800Y-8857300D02*
X16707800Y-8897300D01*
X16707800Y-8857300D02*
X16667800Y-8897300D01*
X16703360Y-9332280D02*
X16743360Y-9372280D01*
X16743360Y-9332280D02*
X16703360Y-9372280D01*
X16705900Y-9774240D02*
X16745900Y-9814240D01*
X16745900Y-9774240D02*
X16705900Y-9814240D01*
X17025940Y-8021640D02*
X17065940Y-8061640D01*
X17065940Y-8021640D02*
X17025940Y-8061640D01*
X17036100Y-9047800D02*
X17076100Y-9087800D01*
X17076100Y-9047800D02*
X17036100Y-9087800D01*
X17218980Y-8793800D02*
X17258980Y-8833800D01*
X17258980Y-8793800D02*
X17218980Y-8833800D01*
X17395700Y-8153400D02*
G75*
G02*
X17300700Y-8153400I-47500J0D01*
G01*
X17300700Y-8153400D02*
G75*
G02*
X17395700Y-8153400I47500J0D01*
G01*
X17395700Y-8403400D02*
G75*
G02*
X17300700Y-8403400I-47500J0D01*
G01*
X17300700Y-8403400D02*
G75*
G02*
X17395700Y-8403400I47500J0D01*
G01*
X17595700Y-8153400D02*
G75*
G02*
X17500700Y-8153400I-47500J0D01*
G01*
X17500700Y-8153400D02*
G75*
G02*
X17595700Y-8153400I47500J0D01*
G01*
X17595700Y-8403400D02*
G75*
G02*
X17500700Y-8403400I-47500J0D01*
G01*
X17500700Y-8403400D02*
G75*
G02*
X17595700Y-8403400I47500J0D01*
G01*
X13630000Y-6884000D02*
X13630000Y-6984000D01*
X13580000Y-6934000D02*
X13680000Y-6934000D01*
X13630000Y-7138000D02*
X13630000Y-7238000D01*
X13580000Y-7188000D02*
X13680000Y-7188000D01*
X13630000Y-7392000D02*
X13630000Y-7492000D01*
X13580000Y-7442000D02*
X13680000Y-7442000D01*
X13630000Y-7646000D02*
X13630000Y-7746000D01*
X13580000Y-7696000D02*
X13680000Y-7696000D01*
X13630000Y-7900000D02*
X13630000Y-8000000D01*
X13580000Y-7950000D02*
X13680000Y-7950000D01*
X14097000Y-7671600D02*
X14097000Y-7771600D01*
X14047000Y-7721600D02*
X14147000Y-7721600D01*
X14097000Y-7925600D02*
X14097000Y-8025600D01*
X14047000Y-7975600D02*
X14147000Y-7975600D01*
X14097000Y-8179600D02*
X14097000Y-8279600D01*
X14047000Y-8229600D02*
X14147000Y-8229600D01*
X14097000Y-8433600D02*
X14097000Y-8533600D01*
X14047000Y-8483600D02*
X14147000Y-8483600D01*
X14097000Y-8687600D02*
X14097000Y-8787600D01*
X14047000Y-8737600D02*
X14147000Y-8737600D01*
X14097000Y-8941600D02*
X14097000Y-9041600D01*
X14047000Y-8991600D02*
X14147000Y-8991600D01*
X14112240Y-9472460D02*
X14112240Y-9572460D01*
X14062240Y-9522460D02*
X14162240Y-9522460D01*
X14112240Y-9726460D02*
X14112240Y-9826460D01*
X14062240Y-9776460D02*
X14162240Y-9776460D01*
X14366240Y-9472460D02*
X14366240Y-9572460D01*
X14316240Y-9522460D02*
X14416240Y-9522460D01*
X14366240Y-9726460D02*
X14366240Y-9826460D01*
X14316240Y-9776460D02*
X14416240Y-9776460D01*
X14620240Y-9472460D02*
X14620240Y-9572460D01*
X14570240Y-9522460D02*
X14670240Y-9522460D01*
X14620240Y-9726460D02*
X14620240Y-9826460D01*
X14570240Y-9776460D02*
X14670240Y-9776460D01*
X15189200Y-9475000D02*
X15189200Y-9575000D01*
X15139200Y-9525000D02*
X15239200Y-9525000D01*
X15189200Y-9729000D02*
X15189200Y-9829000D01*
X15139200Y-9779000D02*
X15239200Y-9779000D01*
X15443200Y-9475000D02*
X15443200Y-9575000D01*
X15393200Y-9525000D02*
X15493200Y-9525000D01*
X15443200Y-9729000D02*
X15443200Y-9829000D01*
X15393200Y-9779000D02*
X15493200Y-9779000D01*
D13*
X17915518Y-7759718D02*
X17915518Y-7597082D01*
X17752882Y-7597082D01*
X17752882Y-7759718D01*
X17915518Y-7759718D01*
X17915518Y-8959718D02*
X17915518Y-8797082D01*
X17752882Y-8797082D01*
X17752882Y-8959718D01*
X17915518Y-8959718D01*
D11*
X12158277Y-10443984D02*
X12158277Y-10243984D01*
X12158277Y-10243984D02*
X12205896Y-10243984D01*
X12205896Y-10243984D02*
X12234467Y-10253508D01*
X12234467Y-10253508D02*
X12253515Y-10272555D01*
X12253515Y-10272555D02*
X12263039Y-10291603D01*
X12263039Y-10291603D02*
X12272562Y-10329698D01*
X12272562Y-10329698D02*
X12272562Y-10358270D01*
X12272562Y-10358270D02*
X12263039Y-10396365D01*
X12263039Y-10396365D02*
X12253515Y-10415412D01*
X12253515Y-10415412D02*
X12234467Y-10434460D01*
X12234467Y-10434460D02*
X12205896Y-10443984D01*
X12205896Y-10443984D02*
X12158277Y-10443984D01*
X12358277Y-10443984D02*
X12358277Y-10310650D01*
X12358277Y-10348746D02*
X12367801Y-10329698D01*
X12367801Y-10329698D02*
X12377324Y-10320174D01*
X12377324Y-10320174D02*
X12396372Y-10310650D01*
X12396372Y-10310650D02*
X12415420Y-10310650D01*
X12482086Y-10443984D02*
X12482086Y-10310650D01*
X12482086Y-10243984D02*
X12472562Y-10253508D01*
X12472562Y-10253508D02*
X12482086Y-10263031D01*
X12482086Y-10263031D02*
X12491610Y-10253508D01*
X12491610Y-10253508D02*
X12482086Y-10243984D01*
X12482086Y-10243984D02*
X12482086Y-10263031D01*
X12605896Y-10443984D02*
X12586848Y-10434460D01*
X12586848Y-10434460D02*
X12577324Y-10415412D01*
X12577324Y-10415412D02*
X12577324Y-10243984D01*
X12710658Y-10443984D02*
X12691610Y-10434460D01*
X12691610Y-10434460D02*
X12682086Y-10415412D01*
X12682086Y-10415412D02*
X12682086Y-10243984D01*
X12939229Y-10443984D02*
X12939229Y-10243984D01*
X12939229Y-10243984D02*
X13005896Y-10386841D01*
X13005896Y-10386841D02*
X13072562Y-10243984D01*
X13072562Y-10243984D02*
X13072562Y-10443984D01*
X13253515Y-10443984D02*
X13253515Y-10339222D01*
X13253515Y-10339222D02*
X13243991Y-10320174D01*
X13243991Y-10320174D02*
X13224943Y-10310650D01*
X13224943Y-10310650D02*
X13186848Y-10310650D01*
X13186848Y-10310650D02*
X13167801Y-10320174D01*
X13253515Y-10434460D02*
X13234467Y-10443984D01*
X13234467Y-10443984D02*
X13186848Y-10443984D01*
X13186848Y-10443984D02*
X13167801Y-10434460D01*
X13167801Y-10434460D02*
X13158277Y-10415412D01*
X13158277Y-10415412D02*
X13158277Y-10396365D01*
X13158277Y-10396365D02*
X13167801Y-10377317D01*
X13167801Y-10377317D02*
X13186848Y-10367793D01*
X13186848Y-10367793D02*
X13234467Y-10367793D01*
X13234467Y-10367793D02*
X13253515Y-10358270D01*
X13348753Y-10310650D02*
X13348753Y-10510650D01*
X13348753Y-10320174D02*
X13367801Y-10310650D01*
X13367801Y-10310650D02*
X13405896Y-10310650D01*
X13405896Y-10310650D02*
X13424943Y-10320174D01*
X13424943Y-10320174D02*
X13434467Y-10329698D01*
X13434467Y-10329698D02*
X13443991Y-10348746D01*
X13443991Y-10348746D02*
X13443991Y-10405889D01*
X13443991Y-10405889D02*
X13434467Y-10424936D01*
X13434467Y-10424936D02*
X13424943Y-10434460D01*
X13424943Y-10434460D02*
X13405896Y-10443984D01*
X13405896Y-10443984D02*
X13367801Y-10443984D01*
X13367801Y-10443984D02*
X13348753Y-10434460D01*
X13529705Y-10424936D02*
X13539229Y-10434460D01*
X13539229Y-10434460D02*
X13529705Y-10443984D01*
X13529705Y-10443984D02*
X13520182Y-10434460D01*
X13520182Y-10434460D02*
X13529705Y-10424936D01*
X13529705Y-10424936D02*
X13529705Y-10443984D01*
X13529705Y-10320174D02*
X13539229Y-10329698D01*
X13539229Y-10329698D02*
X13529705Y-10339222D01*
X13529705Y-10339222D02*
X13520182Y-10329698D01*
X13520182Y-10329698D02*
X13529705Y-10320174D01*
X13529705Y-10320174D02*
X13529705Y-10339222D01*
D12*
X11857500Y-10752500D02*
X11897500Y-10792500D01*
X11897500Y-10752500D02*
X11857500Y-10792500D01*
D11*
X12196372Y-10663984D02*
X12215420Y-10663984D01*
X12215420Y-10663984D02*
X12234467Y-10673508D01*
X12234467Y-10673508D02*
X12243991Y-10683031D01*
X12243991Y-10683031D02*
X12253515Y-10702079D01*
X12253515Y-10702079D02*
X12263039Y-10740174D01*
X12263039Y-10740174D02*
X12263039Y-10787793D01*
X12263039Y-10787793D02*
X12253515Y-10825889D01*
X12253515Y-10825889D02*
X12243991Y-10844936D01*
X12243991Y-10844936D02*
X12234467Y-10854460D01*
X12234467Y-10854460D02*
X12215420Y-10863984D01*
X12215420Y-10863984D02*
X12196372Y-10863984D01*
X12196372Y-10863984D02*
X12177324Y-10854460D01*
X12177324Y-10854460D02*
X12167801Y-10844936D01*
X12167801Y-10844936D02*
X12158277Y-10825889D01*
X12158277Y-10825889D02*
X12148753Y-10787793D01*
X12148753Y-10787793D02*
X12148753Y-10740174D01*
X12148753Y-10740174D02*
X12158277Y-10702079D01*
X12158277Y-10702079D02*
X12167801Y-10683031D01*
X12167801Y-10683031D02*
X12177324Y-10673508D01*
X12177324Y-10673508D02*
X12196372Y-10663984D01*
X12348753Y-10844936D02*
X12358277Y-10854460D01*
X12358277Y-10854460D02*
X12348753Y-10863984D01*
X12348753Y-10863984D02*
X12339229Y-10854460D01*
X12339229Y-10854460D02*
X12348753Y-10844936D01*
X12348753Y-10844936D02*
X12348753Y-10863984D01*
X12529705Y-10730650D02*
X12529705Y-10863984D01*
X12482086Y-10654460D02*
X12434467Y-10797317D01*
X12434467Y-10797317D02*
X12558277Y-10797317D01*
X12672562Y-10663984D02*
X12691610Y-10663984D01*
X12691610Y-10663984D02*
X12710658Y-10673508D01*
X12710658Y-10673508D02*
X12720182Y-10683031D01*
X12720182Y-10683031D02*
X12729705Y-10702079D01*
X12729705Y-10702079D02*
X12739229Y-10740174D01*
X12739229Y-10740174D02*
X12739229Y-10787793D01*
X12739229Y-10787793D02*
X12729705Y-10825889D01*
X12729705Y-10825889D02*
X12720182Y-10844936D01*
X12720182Y-10844936D02*
X12710658Y-10854460D01*
X12710658Y-10854460D02*
X12691610Y-10863984D01*
X12691610Y-10863984D02*
X12672562Y-10863984D01*
X12672562Y-10863984D02*
X12653515Y-10854460D01*
X12653515Y-10854460D02*
X12643991Y-10844936D01*
X12643991Y-10844936D02*
X12634467Y-10825889D01*
X12634467Y-10825889D02*
X12624943Y-10787793D01*
X12624943Y-10787793D02*
X12624943Y-10740174D01*
X12624943Y-10740174D02*
X12634467Y-10702079D01*
X12634467Y-10702079D02*
X12643991Y-10683031D01*
X12643991Y-10683031D02*
X12653515Y-10673508D01*
X12653515Y-10673508D02*
X12672562Y-10663984D01*
X12863039Y-10663984D02*
X12882086Y-10663984D01*
X12882086Y-10663984D02*
X12901134Y-10673508D01*
X12901134Y-10673508D02*
X12910658Y-10683031D01*
X12910658Y-10683031D02*
X12920182Y-10702079D01*
X12920182Y-10702079D02*
X12929705Y-10740174D01*
X12929705Y-10740174D02*
X12929705Y-10787793D01*
X12929705Y-10787793D02*
X12920182Y-10825889D01*
X12920182Y-10825889D02*
X12910658Y-10844936D01*
X12910658Y-10844936D02*
X12901134Y-10854460D01*
X12901134Y-10854460D02*
X12882086Y-10863984D01*
X12882086Y-10863984D02*
X12863039Y-10863984D01*
X12863039Y-10863984D02*
X12843991Y-10854460D01*
X12843991Y-10854460D02*
X12834467Y-10844936D01*
X12834467Y-10844936D02*
X12824943Y-10825889D01*
X12824943Y-10825889D02*
X12815420Y-10787793D01*
X12815420Y-10787793D02*
X12815420Y-10740174D01*
X12815420Y-10740174D02*
X12824943Y-10702079D01*
X12824943Y-10702079D02*
X12834467Y-10683031D01*
X12834467Y-10683031D02*
X12843991Y-10673508D01*
X12843991Y-10673508D02*
X12863039Y-10663984D01*
X13015420Y-10863984D02*
X13015420Y-10730650D01*
X13015420Y-10749698D02*
X13024943Y-10740174D01*
X13024943Y-10740174D02*
X13043991Y-10730650D01*
X13043991Y-10730650D02*
X13072563Y-10730650D01*
X13072563Y-10730650D02*
X13091610Y-10740174D01*
X13091610Y-10740174D02*
X13101134Y-10759222D01*
X13101134Y-10759222D02*
X13101134Y-10863984D01*
X13101134Y-10759222D02*
X13110658Y-10740174D01*
X13110658Y-10740174D02*
X13129705Y-10730650D01*
X13129705Y-10730650D02*
X13158277Y-10730650D01*
X13158277Y-10730650D02*
X13177324Y-10740174D01*
X13177324Y-10740174D02*
X13186848Y-10759222D01*
X13186848Y-10759222D02*
X13186848Y-10863984D01*
X13282086Y-10863984D02*
X13282086Y-10730650D01*
X13282086Y-10749698D02*
X13291610Y-10740174D01*
X13291610Y-10740174D02*
X13310658Y-10730650D01*
X13310658Y-10730650D02*
X13339229Y-10730650D01*
X13339229Y-10730650D02*
X13358277Y-10740174D01*
X13358277Y-10740174D02*
X13367801Y-10759222D01*
X13367801Y-10759222D02*
X13367801Y-10863984D01*
X13367801Y-10759222D02*
X13377324Y-10740174D01*
X13377324Y-10740174D02*
X13396372Y-10730650D01*
X13396372Y-10730650D02*
X13424943Y-10730650D01*
X13424943Y-10730650D02*
X13443991Y-10740174D01*
X13443991Y-10740174D02*
X13453515Y-10759222D01*
X13453515Y-10759222D02*
X13453515Y-10863984D01*
X13843991Y-10654460D02*
X13672563Y-10911603D01*
X14101134Y-10663984D02*
X14120182Y-10663984D01*
X14120182Y-10663984D02*
X14139229Y-10673508D01*
X14139229Y-10673508D02*
X14148753Y-10683031D01*
X14148753Y-10683031D02*
X14158277Y-10702079D01*
X14158277Y-10702079D02*
X14167801Y-10740174D01*
X14167801Y-10740174D02*
X14167801Y-10787793D01*
X14167801Y-10787793D02*
X14158277Y-10825889D01*
X14158277Y-10825889D02*
X14148753Y-10844936D01*
X14148753Y-10844936D02*
X14139229Y-10854460D01*
X14139229Y-10854460D02*
X14120182Y-10863984D01*
X14120182Y-10863984D02*
X14101134Y-10863984D01*
X14101134Y-10863984D02*
X14082086Y-10854460D01*
X14082086Y-10854460D02*
X14072563Y-10844936D01*
X14072563Y-10844936D02*
X14063039Y-10825889D01*
X14063039Y-10825889D02*
X14053515Y-10787793D01*
X14053515Y-10787793D02*
X14053515Y-10740174D01*
X14053515Y-10740174D02*
X14063039Y-10702079D01*
X14063039Y-10702079D02*
X14072563Y-10683031D01*
X14072563Y-10683031D02*
X14082086Y-10673508D01*
X14082086Y-10673508D02*
X14101134Y-10663984D01*
X14253515Y-10844936D02*
X14263039Y-10854460D01*
X14263039Y-10854460D02*
X14253515Y-10863984D01*
X14253515Y-10863984D02*
X14243991Y-10854460D01*
X14243991Y-10854460D02*
X14253515Y-10844936D01*
X14253515Y-10844936D02*
X14253515Y-10863984D01*
X14386848Y-10663984D02*
X14405896Y-10663984D01*
X14405896Y-10663984D02*
X14424944Y-10673508D01*
X14424944Y-10673508D02*
X14434467Y-10683031D01*
X14434467Y-10683031D02*
X14443991Y-10702079D01*
X14443991Y-10702079D02*
X14453515Y-10740174D01*
X14453515Y-10740174D02*
X14453515Y-10787793D01*
X14453515Y-10787793D02*
X14443991Y-10825889D01*
X14443991Y-10825889D02*
X14434467Y-10844936D01*
X14434467Y-10844936D02*
X14424944Y-10854460D01*
X14424944Y-10854460D02*
X14405896Y-10863984D01*
X14405896Y-10863984D02*
X14386848Y-10863984D01*
X14386848Y-10863984D02*
X14367801Y-10854460D01*
X14367801Y-10854460D02*
X14358277Y-10844936D01*
X14358277Y-10844936D02*
X14348753Y-10825889D01*
X14348753Y-10825889D02*
X14339229Y-10787793D01*
X14339229Y-10787793D02*
X14339229Y-10740174D01*
X14339229Y-10740174D02*
X14348753Y-10702079D01*
X14348753Y-10702079D02*
X14358277Y-10683031D01*
X14358277Y-10683031D02*
X14367801Y-10673508D01*
X14367801Y-10673508D02*
X14386848Y-10663984D01*
X14643991Y-10863984D02*
X14529706Y-10863984D01*
X14586848Y-10863984D02*
X14586848Y-10663984D01*
X14586848Y-10663984D02*
X14567801Y-10692555D01*
X14567801Y-10692555D02*
X14548753Y-10711603D01*
X14548753Y-10711603D02*
X14529706Y-10721127D01*
X14824944Y-10663984D02*
X14729706Y-10663984D01*
X14729706Y-10663984D02*
X14720182Y-10759222D01*
X14720182Y-10759222D02*
X14729706Y-10749698D01*
X14729706Y-10749698D02*
X14748753Y-10740174D01*
X14748753Y-10740174D02*
X14796372Y-10740174D01*
X14796372Y-10740174D02*
X14815420Y-10749698D01*
X14815420Y-10749698D02*
X14824944Y-10759222D01*
X14824944Y-10759222D02*
X14834467Y-10778270D01*
X14834467Y-10778270D02*
X14834467Y-10825889D01*
X14834467Y-10825889D02*
X14824944Y-10844936D01*
X14824944Y-10844936D02*
X14815420Y-10854460D01*
X14815420Y-10854460D02*
X14796372Y-10863984D01*
X14796372Y-10863984D02*
X14748753Y-10863984D01*
X14748753Y-10863984D02*
X14729706Y-10854460D01*
X14729706Y-10854460D02*
X14720182Y-10844936D01*
X14901134Y-10663984D02*
X15034467Y-10663984D01*
X15034467Y-10663984D02*
X14948753Y-10863984D01*
X15101134Y-10663984D02*
X15101134Y-10702079D01*
X15177325Y-10663984D02*
X15177325Y-10702079D01*
X15472563Y-10940174D02*
X15463039Y-10930650D01*
X15463039Y-10930650D02*
X15443991Y-10902079D01*
X15443991Y-10902079D02*
X15434468Y-10883031D01*
X15434468Y-10883031D02*
X15424944Y-10854460D01*
X15424944Y-10854460D02*
X15415420Y-10806841D01*
X15415420Y-10806841D02*
X15415420Y-10768746D01*
X15415420Y-10768746D02*
X15424944Y-10721127D01*
X15424944Y-10721127D02*
X15434468Y-10692555D01*
X15434468Y-10692555D02*
X15443991Y-10673508D01*
X15443991Y-10673508D02*
X15463039Y-10644936D01*
X15463039Y-10644936D02*
X15472563Y-10635412D01*
X15634468Y-10730650D02*
X15634468Y-10863984D01*
X15586848Y-10654460D02*
X15539229Y-10797317D01*
X15539229Y-10797317D02*
X15663039Y-10797317D01*
X15777325Y-10663984D02*
X15796372Y-10663984D01*
X15796372Y-10663984D02*
X15815420Y-10673508D01*
X15815420Y-10673508D02*
X15824944Y-10683031D01*
X15824944Y-10683031D02*
X15834468Y-10702079D01*
X15834468Y-10702079D02*
X15843991Y-10740174D01*
X15843991Y-10740174D02*
X15843991Y-10787793D01*
X15843991Y-10787793D02*
X15834468Y-10825889D01*
X15834468Y-10825889D02*
X15824944Y-10844936D01*
X15824944Y-10844936D02*
X15815420Y-10854460D01*
X15815420Y-10854460D02*
X15796372Y-10863984D01*
X15796372Y-10863984D02*
X15777325Y-10863984D01*
X15777325Y-10863984D02*
X15758277Y-10854460D01*
X15758277Y-10854460D02*
X15748753Y-10844936D01*
X15748753Y-10844936D02*
X15739229Y-10825889D01*
X15739229Y-10825889D02*
X15729706Y-10787793D01*
X15729706Y-10787793D02*
X15729706Y-10740174D01*
X15729706Y-10740174D02*
X15739229Y-10702079D01*
X15739229Y-10702079D02*
X15748753Y-10683031D01*
X15748753Y-10683031D02*
X15758277Y-10673508D01*
X15758277Y-10673508D02*
X15777325Y-10663984D01*
X16082087Y-10863984D02*
X16082087Y-10663984D01*
X16167801Y-10863984D02*
X16167801Y-10759222D01*
X16167801Y-10759222D02*
X16158277Y-10740174D01*
X16158277Y-10740174D02*
X16139230Y-10730650D01*
X16139230Y-10730650D02*
X16110658Y-10730650D01*
X16110658Y-10730650D02*
X16091610Y-10740174D01*
X16091610Y-10740174D02*
X16082087Y-10749698D01*
X16291610Y-10863984D02*
X16272563Y-10854460D01*
X16272563Y-10854460D02*
X16263039Y-10844936D01*
X16263039Y-10844936D02*
X16253515Y-10825889D01*
X16253515Y-10825889D02*
X16253515Y-10768746D01*
X16253515Y-10768746D02*
X16263039Y-10749698D01*
X16263039Y-10749698D02*
X16272563Y-10740174D01*
X16272563Y-10740174D02*
X16291610Y-10730650D01*
X16291610Y-10730650D02*
X16320182Y-10730650D01*
X16320182Y-10730650D02*
X16339230Y-10740174D01*
X16339230Y-10740174D02*
X16348753Y-10749698D01*
X16348753Y-10749698D02*
X16358277Y-10768746D01*
X16358277Y-10768746D02*
X16358277Y-10825889D01*
X16358277Y-10825889D02*
X16348753Y-10844936D01*
X16348753Y-10844936D02*
X16339230Y-10854460D01*
X16339230Y-10854460D02*
X16320182Y-10863984D01*
X16320182Y-10863984D02*
X16291610Y-10863984D01*
X16472563Y-10863984D02*
X16453515Y-10854460D01*
X16453515Y-10854460D02*
X16443991Y-10835412D01*
X16443991Y-10835412D02*
X16443991Y-10663984D01*
X16624944Y-10854460D02*
X16605896Y-10863984D01*
X16605896Y-10863984D02*
X16567801Y-10863984D01*
X16567801Y-10863984D02*
X16548753Y-10854460D01*
X16548753Y-10854460D02*
X16539230Y-10835412D01*
X16539230Y-10835412D02*
X16539230Y-10759222D01*
X16539230Y-10759222D02*
X16548753Y-10740174D01*
X16548753Y-10740174D02*
X16567801Y-10730650D01*
X16567801Y-10730650D02*
X16605896Y-10730650D01*
X16605896Y-10730650D02*
X16624944Y-10740174D01*
X16624944Y-10740174D02*
X16634468Y-10759222D01*
X16634468Y-10759222D02*
X16634468Y-10778270D01*
X16634468Y-10778270D02*
X16539230Y-10797317D01*
X16710658Y-10854460D02*
X16729706Y-10863984D01*
X16729706Y-10863984D02*
X16767801Y-10863984D01*
X16767801Y-10863984D02*
X16786849Y-10854460D01*
X16786849Y-10854460D02*
X16796373Y-10835412D01*
X16796373Y-10835412D02*
X16796373Y-10825889D01*
X16796373Y-10825889D02*
X16786849Y-10806841D01*
X16786849Y-10806841D02*
X16767801Y-10797317D01*
X16767801Y-10797317D02*
X16739230Y-10797317D01*
X16739230Y-10797317D02*
X16720182Y-10787793D01*
X16720182Y-10787793D02*
X16710658Y-10768746D01*
X16710658Y-10768746D02*
X16710658Y-10759222D01*
X16710658Y-10759222D02*
X16720182Y-10740174D01*
X16720182Y-10740174D02*
X16739230Y-10730650D01*
X16739230Y-10730650D02*
X16767801Y-10730650D01*
X16767801Y-10730650D02*
X16786849Y-10740174D01*
X16863039Y-10940174D02*
X16872563Y-10930650D01*
X16872563Y-10930650D02*
X16891611Y-10902079D01*
X16891611Y-10902079D02*
X16901134Y-10883031D01*
X16901134Y-10883031D02*
X16910658Y-10854460D01*
X16910658Y-10854460D02*
X16920182Y-10806841D01*
X16920182Y-10806841D02*
X16920182Y-10768746D01*
X16920182Y-10768746D02*
X16910658Y-10721127D01*
X16910658Y-10721127D02*
X16901134Y-10692555D01*
X16901134Y-10692555D02*
X16891611Y-10673508D01*
X16891611Y-10673508D02*
X16872563Y-10644936D01*
X16872563Y-10644936D02*
X16863039Y-10635412D01*
D12*
X11897500Y-11036500D02*
G75*
G02*
X11802500Y-11036500I-47500J0D01*
G01*
X11802500Y-11036500D02*
G75*
G02*
X11897500Y-11036500I47500J0D01*
G01*
D11*
X12196372Y-10927984D02*
X12215420Y-10927984D01*
X12215420Y-10927984D02*
X12234467Y-10937508D01*
X12234467Y-10937508D02*
X12243991Y-10947031D01*
X12243991Y-10947031D02*
X12253515Y-10966079D01*
X12253515Y-10966079D02*
X12263039Y-11004174D01*
X12263039Y-11004174D02*
X12263039Y-11051793D01*
X12263039Y-11051793D02*
X12253515Y-11089889D01*
X12253515Y-11089889D02*
X12243991Y-11108936D01*
X12243991Y-11108936D02*
X12234467Y-11118460D01*
X12234467Y-11118460D02*
X12215420Y-11127984D01*
X12215420Y-11127984D02*
X12196372Y-11127984D01*
X12196372Y-11127984D02*
X12177324Y-11118460D01*
X12177324Y-11118460D02*
X12167801Y-11108936D01*
X12167801Y-11108936D02*
X12158277Y-11089889D01*
X12158277Y-11089889D02*
X12148753Y-11051793D01*
X12148753Y-11051793D02*
X12148753Y-11004174D01*
X12148753Y-11004174D02*
X12158277Y-10966079D01*
X12158277Y-10966079D02*
X12167801Y-10947031D01*
X12167801Y-10947031D02*
X12177324Y-10937508D01*
X12177324Y-10937508D02*
X12196372Y-10927984D01*
X12348753Y-11108936D02*
X12358277Y-11118460D01*
X12358277Y-11118460D02*
X12348753Y-11127984D01*
X12348753Y-11127984D02*
X12339229Y-11118460D01*
X12339229Y-11118460D02*
X12348753Y-11108936D01*
X12348753Y-11108936D02*
X12348753Y-11127984D01*
X12453515Y-11127984D02*
X12491610Y-11127984D01*
X12491610Y-11127984D02*
X12510658Y-11118460D01*
X12510658Y-11118460D02*
X12520182Y-11108936D01*
X12520182Y-11108936D02*
X12539229Y-11080365D01*
X12539229Y-11080365D02*
X12548753Y-11042270D01*
X12548753Y-11042270D02*
X12548753Y-10966079D01*
X12548753Y-10966079D02*
X12539229Y-10947031D01*
X12539229Y-10947031D02*
X12529705Y-10937508D01*
X12529705Y-10937508D02*
X12510658Y-10927984D01*
X12510658Y-10927984D02*
X12472562Y-10927984D01*
X12472562Y-10927984D02*
X12453515Y-10937508D01*
X12453515Y-10937508D02*
X12443991Y-10947031D01*
X12443991Y-10947031D02*
X12434467Y-10966079D01*
X12434467Y-10966079D02*
X12434467Y-11013698D01*
X12434467Y-11013698D02*
X12443991Y-11032746D01*
X12443991Y-11032746D02*
X12453515Y-11042270D01*
X12453515Y-11042270D02*
X12472562Y-11051793D01*
X12472562Y-11051793D02*
X12510658Y-11051793D01*
X12510658Y-11051793D02*
X12529705Y-11042270D01*
X12529705Y-11042270D02*
X12539229Y-11032746D01*
X12539229Y-11032746D02*
X12548753Y-11013698D01*
X12729705Y-10927984D02*
X12634467Y-10927984D01*
X12634467Y-10927984D02*
X12624943Y-11023222D01*
X12624943Y-11023222D02*
X12634467Y-11013698D01*
X12634467Y-11013698D02*
X12653515Y-11004174D01*
X12653515Y-11004174D02*
X12701134Y-11004174D01*
X12701134Y-11004174D02*
X12720182Y-11013698D01*
X12720182Y-11013698D02*
X12729705Y-11023222D01*
X12729705Y-11023222D02*
X12739229Y-11042270D01*
X12739229Y-11042270D02*
X12739229Y-11089889D01*
X12739229Y-11089889D02*
X12729705Y-11108936D01*
X12729705Y-11108936D02*
X12720182Y-11118460D01*
X12720182Y-11118460D02*
X12701134Y-11127984D01*
X12701134Y-11127984D02*
X12653515Y-11127984D01*
X12653515Y-11127984D02*
X12634467Y-11118460D01*
X12634467Y-11118460D02*
X12624943Y-11108936D01*
X12863039Y-10927984D02*
X12882086Y-10927984D01*
X12882086Y-10927984D02*
X12901134Y-10937508D01*
X12901134Y-10937508D02*
X12910658Y-10947031D01*
X12910658Y-10947031D02*
X12920182Y-10966079D01*
X12920182Y-10966079D02*
X12929705Y-11004174D01*
X12929705Y-11004174D02*
X12929705Y-11051793D01*
X12929705Y-11051793D02*
X12920182Y-11089889D01*
X12920182Y-11089889D02*
X12910658Y-11108936D01*
X12910658Y-11108936D02*
X12901134Y-11118460D01*
X12901134Y-11118460D02*
X12882086Y-11127984D01*
X12882086Y-11127984D02*
X12863039Y-11127984D01*
X12863039Y-11127984D02*
X12843991Y-11118460D01*
X12843991Y-11118460D02*
X12834467Y-11108936D01*
X12834467Y-11108936D02*
X12824943Y-11089889D01*
X12824943Y-11089889D02*
X12815420Y-11051793D01*
X12815420Y-11051793D02*
X12815420Y-11004174D01*
X12815420Y-11004174D02*
X12824943Y-10966079D01*
X12824943Y-10966079D02*
X12834467Y-10947031D01*
X12834467Y-10947031D02*
X12843991Y-10937508D01*
X12843991Y-10937508D02*
X12863039Y-10927984D01*
X13015420Y-11127984D02*
X13015420Y-10994650D01*
X13015420Y-11013698D02*
X13024943Y-11004174D01*
X13024943Y-11004174D02*
X13043991Y-10994650D01*
X13043991Y-10994650D02*
X13072563Y-10994650D01*
X13072563Y-10994650D02*
X13091610Y-11004174D01*
X13091610Y-11004174D02*
X13101134Y-11023222D01*
X13101134Y-11023222D02*
X13101134Y-11127984D01*
X13101134Y-11023222D02*
X13110658Y-11004174D01*
X13110658Y-11004174D02*
X13129705Y-10994650D01*
X13129705Y-10994650D02*
X13158277Y-10994650D01*
X13158277Y-10994650D02*
X13177324Y-11004174D01*
X13177324Y-11004174D02*
X13186848Y-11023222D01*
X13186848Y-11023222D02*
X13186848Y-11127984D01*
X13282086Y-11127984D02*
X13282086Y-10994650D01*
X13282086Y-11013698D02*
X13291610Y-11004174D01*
X13291610Y-11004174D02*
X13310658Y-10994650D01*
X13310658Y-10994650D02*
X13339229Y-10994650D01*
X13339229Y-10994650D02*
X13358277Y-11004174D01*
X13358277Y-11004174D02*
X13367801Y-11023222D01*
X13367801Y-11023222D02*
X13367801Y-11127984D01*
X13367801Y-11023222D02*
X13377324Y-11004174D01*
X13377324Y-11004174D02*
X13396372Y-10994650D01*
X13396372Y-10994650D02*
X13424943Y-10994650D01*
X13424943Y-10994650D02*
X13443991Y-11004174D01*
X13443991Y-11004174D02*
X13453515Y-11023222D01*
X13453515Y-11023222D02*
X13453515Y-11127984D01*
X13843991Y-10918460D02*
X13672563Y-11175603D01*
X14101134Y-10927984D02*
X14120182Y-10927984D01*
X14120182Y-10927984D02*
X14139229Y-10937508D01*
X14139229Y-10937508D02*
X14148753Y-10947031D01*
X14148753Y-10947031D02*
X14158277Y-10966079D01*
X14158277Y-10966079D02*
X14167801Y-11004174D01*
X14167801Y-11004174D02*
X14167801Y-11051793D01*
X14167801Y-11051793D02*
X14158277Y-11089889D01*
X14158277Y-11089889D02*
X14148753Y-11108936D01*
X14148753Y-11108936D02*
X14139229Y-11118460D01*
X14139229Y-11118460D02*
X14120182Y-11127984D01*
X14120182Y-11127984D02*
X14101134Y-11127984D01*
X14101134Y-11127984D02*
X14082086Y-11118460D01*
X14082086Y-11118460D02*
X14072563Y-11108936D01*
X14072563Y-11108936D02*
X14063039Y-11089889D01*
X14063039Y-11089889D02*
X14053515Y-11051793D01*
X14053515Y-11051793D02*
X14053515Y-11004174D01*
X14053515Y-11004174D02*
X14063039Y-10966079D01*
X14063039Y-10966079D02*
X14072563Y-10947031D01*
X14072563Y-10947031D02*
X14082086Y-10937508D01*
X14082086Y-10937508D02*
X14101134Y-10927984D01*
X14253515Y-11108936D02*
X14263039Y-11118460D01*
X14263039Y-11118460D02*
X14253515Y-11127984D01*
X14253515Y-11127984D02*
X14243991Y-11118460D01*
X14243991Y-11118460D02*
X14253515Y-11108936D01*
X14253515Y-11108936D02*
X14253515Y-11127984D01*
X14386848Y-10927984D02*
X14405896Y-10927984D01*
X14405896Y-10927984D02*
X14424944Y-10937508D01*
X14424944Y-10937508D02*
X14434467Y-10947031D01*
X14434467Y-10947031D02*
X14443991Y-10966079D01*
X14443991Y-10966079D02*
X14453515Y-11004174D01*
X14453515Y-11004174D02*
X14453515Y-11051793D01*
X14453515Y-11051793D02*
X14443991Y-11089889D01*
X14443991Y-11089889D02*
X14434467Y-11108936D01*
X14434467Y-11108936D02*
X14424944Y-11118460D01*
X14424944Y-11118460D02*
X14405896Y-11127984D01*
X14405896Y-11127984D02*
X14386848Y-11127984D01*
X14386848Y-11127984D02*
X14367801Y-11118460D01*
X14367801Y-11118460D02*
X14358277Y-11108936D01*
X14358277Y-11108936D02*
X14348753Y-11089889D01*
X14348753Y-11089889D02*
X14339229Y-11051793D01*
X14339229Y-11051793D02*
X14339229Y-11004174D01*
X14339229Y-11004174D02*
X14348753Y-10966079D01*
X14348753Y-10966079D02*
X14358277Y-10947031D01*
X14358277Y-10947031D02*
X14367801Y-10937508D01*
X14367801Y-10937508D02*
X14386848Y-10927984D01*
X14520182Y-10927984D02*
X14643991Y-10927984D01*
X14643991Y-10927984D02*
X14577325Y-11004174D01*
X14577325Y-11004174D02*
X14605896Y-11004174D01*
X14605896Y-11004174D02*
X14624944Y-11013698D01*
X14624944Y-11013698D02*
X14634467Y-11023222D01*
X14634467Y-11023222D02*
X14643991Y-11042270D01*
X14643991Y-11042270D02*
X14643991Y-11089889D01*
X14643991Y-11089889D02*
X14634467Y-11108936D01*
X14634467Y-11108936D02*
X14624944Y-11118460D01*
X14624944Y-11118460D02*
X14605896Y-11127984D01*
X14605896Y-11127984D02*
X14548753Y-11127984D01*
X14548753Y-11127984D02*
X14529706Y-11118460D01*
X14529706Y-11118460D02*
X14520182Y-11108936D01*
X14710658Y-10927984D02*
X14843991Y-10927984D01*
X14843991Y-10927984D02*
X14758277Y-11127984D01*
X15005896Y-10994650D02*
X15005896Y-11127984D01*
X14958277Y-10918460D02*
X14910658Y-11061317D01*
X14910658Y-11061317D02*
X15034467Y-11061317D01*
X15101134Y-10927984D02*
X15101134Y-10966079D01*
X15177325Y-10927984D02*
X15177325Y-10966079D01*
X15472563Y-11204174D02*
X15463039Y-11194650D01*
X15463039Y-11194650D02*
X15443991Y-11166079D01*
X15443991Y-11166079D02*
X15434468Y-11147031D01*
X15434468Y-11147031D02*
X15424944Y-11118460D01*
X15424944Y-11118460D02*
X15415420Y-11070841D01*
X15415420Y-11070841D02*
X15415420Y-11032746D01*
X15415420Y-11032746D02*
X15424944Y-10985127D01*
X15424944Y-10985127D02*
X15434468Y-10956555D01*
X15434468Y-10956555D02*
X15443991Y-10937508D01*
X15443991Y-10937508D02*
X15463039Y-10908936D01*
X15463039Y-10908936D02*
X15472563Y-10899412D01*
X15634468Y-10994650D02*
X15634468Y-11127984D01*
X15586848Y-10918460D02*
X15539229Y-11061317D01*
X15539229Y-11061317D02*
X15663039Y-11061317D01*
X15891610Y-11127984D02*
X15891610Y-10927984D01*
X15977325Y-11127984D02*
X15977325Y-11023222D01*
X15977325Y-11023222D02*
X15967801Y-11004174D01*
X15967801Y-11004174D02*
X15948753Y-10994650D01*
X15948753Y-10994650D02*
X15920182Y-10994650D01*
X15920182Y-10994650D02*
X15901134Y-11004174D01*
X15901134Y-11004174D02*
X15891610Y-11013698D01*
X16101134Y-11127984D02*
X16082087Y-11118460D01*
X16082087Y-11118460D02*
X16072563Y-11108936D01*
X16072563Y-11108936D02*
X16063039Y-11089889D01*
X16063039Y-11089889D02*
X16063039Y-11032746D01*
X16063039Y-11032746D02*
X16072563Y-11013698D01*
X16072563Y-11013698D02*
X16082087Y-11004174D01*
X16082087Y-11004174D02*
X16101134Y-10994650D01*
X16101134Y-10994650D02*
X16129706Y-10994650D01*
X16129706Y-10994650D02*
X16148753Y-11004174D01*
X16148753Y-11004174D02*
X16158277Y-11013698D01*
X16158277Y-11013698D02*
X16167801Y-11032746D01*
X16167801Y-11032746D02*
X16167801Y-11089889D01*
X16167801Y-11089889D02*
X16158277Y-11108936D01*
X16158277Y-11108936D02*
X16148753Y-11118460D01*
X16148753Y-11118460D02*
X16129706Y-11127984D01*
X16129706Y-11127984D02*
X16101134Y-11127984D01*
X16282087Y-11127984D02*
X16263039Y-11118460D01*
X16263039Y-11118460D02*
X16253515Y-11099412D01*
X16253515Y-11099412D02*
X16253515Y-10927984D01*
X16434468Y-11118460D02*
X16415420Y-11127984D01*
X16415420Y-11127984D02*
X16377325Y-11127984D01*
X16377325Y-11127984D02*
X16358277Y-11118460D01*
X16358277Y-11118460D02*
X16348753Y-11099412D01*
X16348753Y-11099412D02*
X16348753Y-11023222D01*
X16348753Y-11023222D02*
X16358277Y-11004174D01*
X16358277Y-11004174D02*
X16377325Y-10994650D01*
X16377325Y-10994650D02*
X16415420Y-10994650D01*
X16415420Y-10994650D02*
X16434468Y-11004174D01*
X16434468Y-11004174D02*
X16443991Y-11023222D01*
X16443991Y-11023222D02*
X16443991Y-11042270D01*
X16443991Y-11042270D02*
X16348753Y-11061317D01*
X16520182Y-11118460D02*
X16539230Y-11127984D01*
X16539230Y-11127984D02*
X16577325Y-11127984D01*
X16577325Y-11127984D02*
X16596372Y-11118460D01*
X16596372Y-11118460D02*
X16605896Y-11099412D01*
X16605896Y-11099412D02*
X16605896Y-11089889D01*
X16605896Y-11089889D02*
X16596372Y-11070841D01*
X16596372Y-11070841D02*
X16577325Y-11061317D01*
X16577325Y-11061317D02*
X16548753Y-11061317D01*
X16548753Y-11061317D02*
X16529706Y-11051793D01*
X16529706Y-11051793D02*
X16520182Y-11032746D01*
X16520182Y-11032746D02*
X16520182Y-11023222D01*
X16520182Y-11023222D02*
X16529706Y-11004174D01*
X16529706Y-11004174D02*
X16548753Y-10994650D01*
X16548753Y-10994650D02*
X16577325Y-10994650D01*
X16577325Y-10994650D02*
X16596372Y-11004174D01*
X16672563Y-11204174D02*
X16682087Y-11194650D01*
X16682087Y-11194650D02*
X16701134Y-11166079D01*
X16701134Y-11166079D02*
X16710658Y-11147031D01*
X16710658Y-11147031D02*
X16720182Y-11118460D01*
X16720182Y-11118460D02*
X16729706Y-11070841D01*
X16729706Y-11070841D02*
X16729706Y-11032746D01*
X16729706Y-11032746D02*
X16720182Y-10985127D01*
X16720182Y-10985127D02*
X16710658Y-10956555D01*
X16710658Y-10956555D02*
X16701134Y-10937508D01*
X16701134Y-10937508D02*
X16682087Y-10908936D01*
X16682087Y-10908936D02*
X16672563Y-10899412D01*
D12*
X11847500Y-11250500D02*
X11847500Y-11350500D01*
X11797500Y-11300500D02*
X11897500Y-11300500D01*
D11*
X12263039Y-11391984D02*
X12148753Y-11391984D01*
X12205896Y-11391984D02*
X12205896Y-11191984D01*
X12205896Y-11191984D02*
X12186848Y-11220555D01*
X12186848Y-11220555D02*
X12167801Y-11239603D01*
X12167801Y-11239603D02*
X12148753Y-11249127D01*
X12348753Y-11372936D02*
X12358277Y-11382460D01*
X12358277Y-11382460D02*
X12348753Y-11391984D01*
X12348753Y-11391984D02*
X12339229Y-11382460D01*
X12339229Y-11382460D02*
X12348753Y-11372936D01*
X12348753Y-11372936D02*
X12348753Y-11391984D01*
X12482086Y-11191984D02*
X12501134Y-11191984D01*
X12501134Y-11191984D02*
X12520182Y-11201508D01*
X12520182Y-11201508D02*
X12529705Y-11211031D01*
X12529705Y-11211031D02*
X12539229Y-11230079D01*
X12539229Y-11230079D02*
X12548753Y-11268174D01*
X12548753Y-11268174D02*
X12548753Y-11315793D01*
X12548753Y-11315793D02*
X12539229Y-11353888D01*
X12539229Y-11353888D02*
X12529705Y-11372936D01*
X12529705Y-11372936D02*
X12520182Y-11382460D01*
X12520182Y-11382460D02*
X12501134Y-11391984D01*
X12501134Y-11391984D02*
X12482086Y-11391984D01*
X12482086Y-11391984D02*
X12463039Y-11382460D01*
X12463039Y-11382460D02*
X12453515Y-11372936D01*
X12453515Y-11372936D02*
X12443991Y-11353888D01*
X12443991Y-11353888D02*
X12434467Y-11315793D01*
X12434467Y-11315793D02*
X12434467Y-11268174D01*
X12434467Y-11268174D02*
X12443991Y-11230079D01*
X12443991Y-11230079D02*
X12453515Y-11211031D01*
X12453515Y-11211031D02*
X12463039Y-11201508D01*
X12463039Y-11201508D02*
X12482086Y-11191984D01*
X12672562Y-11191984D02*
X12691610Y-11191984D01*
X12691610Y-11191984D02*
X12710658Y-11201508D01*
X12710658Y-11201508D02*
X12720182Y-11211031D01*
X12720182Y-11211031D02*
X12729705Y-11230079D01*
X12729705Y-11230079D02*
X12739229Y-11268174D01*
X12739229Y-11268174D02*
X12739229Y-11315793D01*
X12739229Y-11315793D02*
X12729705Y-11353888D01*
X12729705Y-11353888D02*
X12720182Y-11372936D01*
X12720182Y-11372936D02*
X12710658Y-11382460D01*
X12710658Y-11382460D02*
X12691610Y-11391984D01*
X12691610Y-11391984D02*
X12672562Y-11391984D01*
X12672562Y-11391984D02*
X12653515Y-11382460D01*
X12653515Y-11382460D02*
X12643991Y-11372936D01*
X12643991Y-11372936D02*
X12634467Y-11353888D01*
X12634467Y-11353888D02*
X12624943Y-11315793D01*
X12624943Y-11315793D02*
X12624943Y-11268174D01*
X12624943Y-11268174D02*
X12634467Y-11230079D01*
X12634467Y-11230079D02*
X12643991Y-11211031D01*
X12643991Y-11211031D02*
X12653515Y-11201508D01*
X12653515Y-11201508D02*
X12672562Y-11191984D01*
X12863039Y-11191984D02*
X12882086Y-11191984D01*
X12882086Y-11191984D02*
X12901134Y-11201508D01*
X12901134Y-11201508D02*
X12910658Y-11211031D01*
X12910658Y-11211031D02*
X12920182Y-11230079D01*
X12920182Y-11230079D02*
X12929705Y-11268174D01*
X12929705Y-11268174D02*
X12929705Y-11315793D01*
X12929705Y-11315793D02*
X12920182Y-11353888D01*
X12920182Y-11353888D02*
X12910658Y-11372936D01*
X12910658Y-11372936D02*
X12901134Y-11382460D01*
X12901134Y-11382460D02*
X12882086Y-11391984D01*
X12882086Y-11391984D02*
X12863039Y-11391984D01*
X12863039Y-11391984D02*
X12843991Y-11382460D01*
X12843991Y-11382460D02*
X12834467Y-11372936D01*
X12834467Y-11372936D02*
X12824943Y-11353888D01*
X12824943Y-11353888D02*
X12815420Y-11315793D01*
X12815420Y-11315793D02*
X12815420Y-11268174D01*
X12815420Y-11268174D02*
X12824943Y-11230079D01*
X12824943Y-11230079D02*
X12834467Y-11211031D01*
X12834467Y-11211031D02*
X12843991Y-11201508D01*
X12843991Y-11201508D02*
X12863039Y-11191984D01*
X13015420Y-11391984D02*
X13015420Y-11258650D01*
X13015420Y-11277698D02*
X13024943Y-11268174D01*
X13024943Y-11268174D02*
X13043991Y-11258650D01*
X13043991Y-11258650D02*
X13072563Y-11258650D01*
X13072563Y-11258650D02*
X13091610Y-11268174D01*
X13091610Y-11268174D02*
X13101134Y-11287222D01*
X13101134Y-11287222D02*
X13101134Y-11391984D01*
X13101134Y-11287222D02*
X13110658Y-11268174D01*
X13110658Y-11268174D02*
X13129705Y-11258650D01*
X13129705Y-11258650D02*
X13158277Y-11258650D01*
X13158277Y-11258650D02*
X13177324Y-11268174D01*
X13177324Y-11268174D02*
X13186848Y-11287222D01*
X13186848Y-11287222D02*
X13186848Y-11391984D01*
X13282086Y-11391984D02*
X13282086Y-11258650D01*
X13282086Y-11277698D02*
X13291610Y-11268174D01*
X13291610Y-11268174D02*
X13310658Y-11258650D01*
X13310658Y-11258650D02*
X13339229Y-11258650D01*
X13339229Y-11258650D02*
X13358277Y-11268174D01*
X13358277Y-11268174D02*
X13367801Y-11287222D01*
X13367801Y-11287222D02*
X13367801Y-11391984D01*
X13367801Y-11287222D02*
X13377324Y-11268174D01*
X13377324Y-11268174D02*
X13396372Y-11258650D01*
X13396372Y-11258650D02*
X13424943Y-11258650D01*
X13424943Y-11258650D02*
X13443991Y-11268174D01*
X13443991Y-11268174D02*
X13453515Y-11287222D01*
X13453515Y-11287222D02*
X13453515Y-11391984D01*
X13843991Y-11182460D02*
X13672563Y-11439603D01*
X14101134Y-11191984D02*
X14120182Y-11191984D01*
X14120182Y-11191984D02*
X14139229Y-11201508D01*
X14139229Y-11201508D02*
X14148753Y-11211031D01*
X14148753Y-11211031D02*
X14158277Y-11230079D01*
X14158277Y-11230079D02*
X14167801Y-11268174D01*
X14167801Y-11268174D02*
X14167801Y-11315793D01*
X14167801Y-11315793D02*
X14158277Y-11353888D01*
X14158277Y-11353888D02*
X14148753Y-11372936D01*
X14148753Y-11372936D02*
X14139229Y-11382460D01*
X14139229Y-11382460D02*
X14120182Y-11391984D01*
X14120182Y-11391984D02*
X14101134Y-11391984D01*
X14101134Y-11391984D02*
X14082086Y-11382460D01*
X14082086Y-11382460D02*
X14072563Y-11372936D01*
X14072563Y-11372936D02*
X14063039Y-11353888D01*
X14063039Y-11353888D02*
X14053515Y-11315793D01*
X14053515Y-11315793D02*
X14053515Y-11268174D01*
X14053515Y-11268174D02*
X14063039Y-11230079D01*
X14063039Y-11230079D02*
X14072563Y-11211031D01*
X14072563Y-11211031D02*
X14082086Y-11201508D01*
X14082086Y-11201508D02*
X14101134Y-11191984D01*
X14253515Y-11372936D02*
X14263039Y-11382460D01*
X14263039Y-11382460D02*
X14253515Y-11391984D01*
X14253515Y-11391984D02*
X14243991Y-11382460D01*
X14243991Y-11382460D02*
X14253515Y-11372936D01*
X14253515Y-11372936D02*
X14253515Y-11391984D01*
X14386848Y-11191984D02*
X14405896Y-11191984D01*
X14405896Y-11191984D02*
X14424944Y-11201508D01*
X14424944Y-11201508D02*
X14434467Y-11211031D01*
X14434467Y-11211031D02*
X14443991Y-11230079D01*
X14443991Y-11230079D02*
X14453515Y-11268174D01*
X14453515Y-11268174D02*
X14453515Y-11315793D01*
X14453515Y-11315793D02*
X14443991Y-11353888D01*
X14443991Y-11353888D02*
X14434467Y-11372936D01*
X14434467Y-11372936D02*
X14424944Y-11382460D01*
X14424944Y-11382460D02*
X14405896Y-11391984D01*
X14405896Y-11391984D02*
X14386848Y-11391984D01*
X14386848Y-11391984D02*
X14367801Y-11382460D01*
X14367801Y-11382460D02*
X14358277Y-11372936D01*
X14358277Y-11372936D02*
X14348753Y-11353888D01*
X14348753Y-11353888D02*
X14339229Y-11315793D01*
X14339229Y-11315793D02*
X14339229Y-11268174D01*
X14339229Y-11268174D02*
X14348753Y-11230079D01*
X14348753Y-11230079D02*
X14358277Y-11211031D01*
X14358277Y-11211031D02*
X14367801Y-11201508D01*
X14367801Y-11201508D02*
X14386848Y-11191984D01*
X14520182Y-11191984D02*
X14643991Y-11191984D01*
X14643991Y-11191984D02*
X14577325Y-11268174D01*
X14577325Y-11268174D02*
X14605896Y-11268174D01*
X14605896Y-11268174D02*
X14624944Y-11277698D01*
X14624944Y-11277698D02*
X14634467Y-11287222D01*
X14634467Y-11287222D02*
X14643991Y-11306269D01*
X14643991Y-11306269D02*
X14643991Y-11353888D01*
X14643991Y-11353888D02*
X14634467Y-11372936D01*
X14634467Y-11372936D02*
X14624944Y-11382460D01*
X14624944Y-11382460D02*
X14605896Y-11391984D01*
X14605896Y-11391984D02*
X14548753Y-11391984D01*
X14548753Y-11391984D02*
X14529706Y-11382460D01*
X14529706Y-11382460D02*
X14520182Y-11372936D01*
X14739229Y-11391984D02*
X14777325Y-11391984D01*
X14777325Y-11391984D02*
X14796372Y-11382460D01*
X14796372Y-11382460D02*
X14805896Y-11372936D01*
X14805896Y-11372936D02*
X14824944Y-11344365D01*
X14824944Y-11344365D02*
X14834467Y-11306269D01*
X14834467Y-11306269D02*
X14834467Y-11230079D01*
X14834467Y-11230079D02*
X14824944Y-11211031D01*
X14824944Y-11211031D02*
X14815420Y-11201508D01*
X14815420Y-11201508D02*
X14796372Y-11191984D01*
X14796372Y-11191984D02*
X14758277Y-11191984D01*
X14758277Y-11191984D02*
X14739229Y-11201508D01*
X14739229Y-11201508D02*
X14729706Y-11211031D01*
X14729706Y-11211031D02*
X14720182Y-11230079D01*
X14720182Y-11230079D02*
X14720182Y-11277698D01*
X14720182Y-11277698D02*
X14729706Y-11296746D01*
X14729706Y-11296746D02*
X14739229Y-11306269D01*
X14739229Y-11306269D02*
X14758277Y-11315793D01*
X14758277Y-11315793D02*
X14796372Y-11315793D01*
X14796372Y-11315793D02*
X14815420Y-11306269D01*
X14815420Y-11306269D02*
X14824944Y-11296746D01*
X14824944Y-11296746D02*
X14834467Y-11277698D01*
X15005896Y-11258650D02*
X15005896Y-11391984D01*
X14958277Y-11182460D02*
X14910658Y-11325317D01*
X14910658Y-11325317D02*
X15034467Y-11325317D01*
X15101134Y-11191984D02*
X15101134Y-11230079D01*
X15177325Y-11191984D02*
X15177325Y-11230079D01*
X15472563Y-11468174D02*
X15463039Y-11458650D01*
X15463039Y-11458650D02*
X15443991Y-11430079D01*
X15443991Y-11430079D02*
X15434468Y-11411031D01*
X15434468Y-11411031D02*
X15424944Y-11382460D01*
X15424944Y-11382460D02*
X15415420Y-11334841D01*
X15415420Y-11334841D02*
X15415420Y-11296746D01*
X15415420Y-11296746D02*
X15424944Y-11249127D01*
X15424944Y-11249127D02*
X15434468Y-11220555D01*
X15434468Y-11220555D02*
X15443991Y-11201508D01*
X15443991Y-11201508D02*
X15463039Y-11172936D01*
X15463039Y-11172936D02*
X15472563Y-11163412D01*
X15539229Y-11211031D02*
X15548753Y-11201508D01*
X15548753Y-11201508D02*
X15567801Y-11191984D01*
X15567801Y-11191984D02*
X15615420Y-11191984D01*
X15615420Y-11191984D02*
X15634468Y-11201508D01*
X15634468Y-11201508D02*
X15643991Y-11211031D01*
X15643991Y-11211031D02*
X15653515Y-11230079D01*
X15653515Y-11230079D02*
X15653515Y-11249127D01*
X15653515Y-11249127D02*
X15643991Y-11277698D01*
X15643991Y-11277698D02*
X15529706Y-11391984D01*
X15529706Y-11391984D02*
X15653515Y-11391984D01*
X15843991Y-11391984D02*
X15729706Y-11391984D01*
X15786848Y-11391984D02*
X15786848Y-11191984D01*
X15786848Y-11191984D02*
X15767801Y-11220555D01*
X15767801Y-11220555D02*
X15748753Y-11239603D01*
X15748753Y-11239603D02*
X15729706Y-11249127D01*
X16082087Y-11391984D02*
X16082087Y-11191984D01*
X16167801Y-11391984D02*
X16167801Y-11287222D01*
X16167801Y-11287222D02*
X16158277Y-11268174D01*
X16158277Y-11268174D02*
X16139230Y-11258650D01*
X16139230Y-11258650D02*
X16110658Y-11258650D01*
X16110658Y-11258650D02*
X16091610Y-11268174D01*
X16091610Y-11268174D02*
X16082087Y-11277698D01*
X16291610Y-11391984D02*
X16272563Y-11382460D01*
X16272563Y-11382460D02*
X16263039Y-11372936D01*
X16263039Y-11372936D02*
X16253515Y-11353888D01*
X16253515Y-11353888D02*
X16253515Y-11296746D01*
X16253515Y-11296746D02*
X16263039Y-11277698D01*
X16263039Y-11277698D02*
X16272563Y-11268174D01*
X16272563Y-11268174D02*
X16291610Y-11258650D01*
X16291610Y-11258650D02*
X16320182Y-11258650D01*
X16320182Y-11258650D02*
X16339230Y-11268174D01*
X16339230Y-11268174D02*
X16348753Y-11277698D01*
X16348753Y-11277698D02*
X16358277Y-11296746D01*
X16358277Y-11296746D02*
X16358277Y-11353888D01*
X16358277Y-11353888D02*
X16348753Y-11372936D01*
X16348753Y-11372936D02*
X16339230Y-11382460D01*
X16339230Y-11382460D02*
X16320182Y-11391984D01*
X16320182Y-11391984D02*
X16291610Y-11391984D01*
X16472563Y-11391984D02*
X16453515Y-11382460D01*
X16453515Y-11382460D02*
X16443991Y-11363412D01*
X16443991Y-11363412D02*
X16443991Y-11191984D01*
X16624944Y-11382460D02*
X16605896Y-11391984D01*
X16605896Y-11391984D02*
X16567801Y-11391984D01*
X16567801Y-11391984D02*
X16548753Y-11382460D01*
X16548753Y-11382460D02*
X16539230Y-11363412D01*
X16539230Y-11363412D02*
X16539230Y-11287222D01*
X16539230Y-11287222D02*
X16548753Y-11268174D01*
X16548753Y-11268174D02*
X16567801Y-11258650D01*
X16567801Y-11258650D02*
X16605896Y-11258650D01*
X16605896Y-11258650D02*
X16624944Y-11268174D01*
X16624944Y-11268174D02*
X16634468Y-11287222D01*
X16634468Y-11287222D02*
X16634468Y-11306269D01*
X16634468Y-11306269D02*
X16539230Y-11325317D01*
X16710658Y-11382460D02*
X16729706Y-11391984D01*
X16729706Y-11391984D02*
X16767801Y-11391984D01*
X16767801Y-11391984D02*
X16786849Y-11382460D01*
X16786849Y-11382460D02*
X16796373Y-11363412D01*
X16796373Y-11363412D02*
X16796373Y-11353888D01*
X16796373Y-11353888D02*
X16786849Y-11334841D01*
X16786849Y-11334841D02*
X16767801Y-11325317D01*
X16767801Y-11325317D02*
X16739230Y-11325317D01*
X16739230Y-11325317D02*
X16720182Y-11315793D01*
X16720182Y-11315793D02*
X16710658Y-11296746D01*
X16710658Y-11296746D02*
X16710658Y-11287222D01*
X16710658Y-11287222D02*
X16720182Y-11268174D01*
X16720182Y-11268174D02*
X16739230Y-11258650D01*
X16739230Y-11258650D02*
X16767801Y-11258650D01*
X16767801Y-11258650D02*
X16786849Y-11268174D01*
X16863039Y-11468174D02*
X16872563Y-11458650D01*
X16872563Y-11458650D02*
X16891611Y-11430079D01*
X16891611Y-11430079D02*
X16901134Y-11411031D01*
X16901134Y-11411031D02*
X16910658Y-11382460D01*
X16910658Y-11382460D02*
X16920182Y-11334841D01*
X16920182Y-11334841D02*
X16920182Y-11296746D01*
X16920182Y-11296746D02*
X16910658Y-11249127D01*
X16910658Y-11249127D02*
X16901134Y-11220555D01*
X16901134Y-11220555D02*
X16891611Y-11201508D01*
X16891611Y-11201508D02*
X16872563Y-11172936D01*
X16872563Y-11172936D02*
X16863039Y-11163412D01*
X11868211Y-11635211D02*
X11868211Y-11493789D01*
X11726789Y-11493789D01*
X11726789Y-11635211D01*
X11868211Y-11635211D01*
X12148753Y-11475031D02*
X12158277Y-11465508D01*
X12158277Y-11465508D02*
X12177324Y-11455984D01*
X12177324Y-11455984D02*
X12224943Y-11455984D01*
X12224943Y-11455984D02*
X12243991Y-11465508D01*
X12243991Y-11465508D02*
X12253515Y-11475031D01*
X12253515Y-11475031D02*
X12263039Y-11494079D01*
X12263039Y-11494079D02*
X12263039Y-11513127D01*
X12263039Y-11513127D02*
X12253515Y-11541698D01*
X12253515Y-11541698D02*
X12139229Y-11655984D01*
X12139229Y-11655984D02*
X12263039Y-11655984D01*
X12348753Y-11636936D02*
X12358277Y-11646460D01*
X12358277Y-11646460D02*
X12348753Y-11655984D01*
X12348753Y-11655984D02*
X12339229Y-11646460D01*
X12339229Y-11646460D02*
X12348753Y-11636936D01*
X12348753Y-11636936D02*
X12348753Y-11655984D01*
X12424943Y-11455984D02*
X12548753Y-11455984D01*
X12548753Y-11455984D02*
X12482086Y-11532174D01*
X12482086Y-11532174D02*
X12510658Y-11532174D01*
X12510658Y-11532174D02*
X12529705Y-11541698D01*
X12529705Y-11541698D02*
X12539229Y-11551222D01*
X12539229Y-11551222D02*
X12548753Y-11570269D01*
X12548753Y-11570269D02*
X12548753Y-11617888D01*
X12548753Y-11617888D02*
X12539229Y-11636936D01*
X12539229Y-11636936D02*
X12529705Y-11646460D01*
X12529705Y-11646460D02*
X12510658Y-11655984D01*
X12510658Y-11655984D02*
X12453515Y-11655984D01*
X12453515Y-11655984D02*
X12434467Y-11646460D01*
X12434467Y-11646460D02*
X12424943Y-11636936D01*
X12672562Y-11455984D02*
X12691610Y-11455984D01*
X12691610Y-11455984D02*
X12710658Y-11465508D01*
X12710658Y-11465508D02*
X12720182Y-11475031D01*
X12720182Y-11475031D02*
X12729705Y-11494079D01*
X12729705Y-11494079D02*
X12739229Y-11532174D01*
X12739229Y-11532174D02*
X12739229Y-11579793D01*
X12739229Y-11579793D02*
X12729705Y-11617888D01*
X12729705Y-11617888D02*
X12720182Y-11636936D01*
X12720182Y-11636936D02*
X12710658Y-11646460D01*
X12710658Y-11646460D02*
X12691610Y-11655984D01*
X12691610Y-11655984D02*
X12672562Y-11655984D01*
X12672562Y-11655984D02*
X12653515Y-11646460D01*
X12653515Y-11646460D02*
X12643991Y-11636936D01*
X12643991Y-11636936D02*
X12634467Y-11617888D01*
X12634467Y-11617888D02*
X12624943Y-11579793D01*
X12624943Y-11579793D02*
X12624943Y-11532174D01*
X12624943Y-11532174D02*
X12634467Y-11494079D01*
X12634467Y-11494079D02*
X12643991Y-11475031D01*
X12643991Y-11475031D02*
X12653515Y-11465508D01*
X12653515Y-11465508D02*
X12672562Y-11455984D01*
X12863039Y-11455984D02*
X12882086Y-11455984D01*
X12882086Y-11455984D02*
X12901134Y-11465508D01*
X12901134Y-11465508D02*
X12910658Y-11475031D01*
X12910658Y-11475031D02*
X12920182Y-11494079D01*
X12920182Y-11494079D02*
X12929705Y-11532174D01*
X12929705Y-11532174D02*
X12929705Y-11579793D01*
X12929705Y-11579793D02*
X12920182Y-11617888D01*
X12920182Y-11617888D02*
X12910658Y-11636936D01*
X12910658Y-11636936D02*
X12901134Y-11646460D01*
X12901134Y-11646460D02*
X12882086Y-11655984D01*
X12882086Y-11655984D02*
X12863039Y-11655984D01*
X12863039Y-11655984D02*
X12843991Y-11646460D01*
X12843991Y-11646460D02*
X12834467Y-11636936D01*
X12834467Y-11636936D02*
X12824943Y-11617888D01*
X12824943Y-11617888D02*
X12815420Y-11579793D01*
X12815420Y-11579793D02*
X12815420Y-11532174D01*
X12815420Y-11532174D02*
X12824943Y-11494079D01*
X12824943Y-11494079D02*
X12834467Y-11475031D01*
X12834467Y-11475031D02*
X12843991Y-11465508D01*
X12843991Y-11465508D02*
X12863039Y-11455984D01*
X13015420Y-11655984D02*
X13015420Y-11522650D01*
X13015420Y-11541698D02*
X13024943Y-11532174D01*
X13024943Y-11532174D02*
X13043991Y-11522650D01*
X13043991Y-11522650D02*
X13072563Y-11522650D01*
X13072563Y-11522650D02*
X13091610Y-11532174D01*
X13091610Y-11532174D02*
X13101134Y-11551222D01*
X13101134Y-11551222D02*
X13101134Y-11655984D01*
X13101134Y-11551222D02*
X13110658Y-11532174D01*
X13110658Y-11532174D02*
X13129705Y-11522650D01*
X13129705Y-11522650D02*
X13158277Y-11522650D01*
X13158277Y-11522650D02*
X13177324Y-11532174D01*
X13177324Y-11532174D02*
X13186848Y-11551222D01*
X13186848Y-11551222D02*
X13186848Y-11655984D01*
X13282086Y-11655984D02*
X13282086Y-11522650D01*
X13282086Y-11541698D02*
X13291610Y-11532174D01*
X13291610Y-11532174D02*
X13310658Y-11522650D01*
X13310658Y-11522650D02*
X13339229Y-11522650D01*
X13339229Y-11522650D02*
X13358277Y-11532174D01*
X13358277Y-11532174D02*
X13367801Y-11551222D01*
X13367801Y-11551222D02*
X13367801Y-11655984D01*
X13367801Y-11551222D02*
X13377324Y-11532174D01*
X13377324Y-11532174D02*
X13396372Y-11522650D01*
X13396372Y-11522650D02*
X13424943Y-11522650D01*
X13424943Y-11522650D02*
X13443991Y-11532174D01*
X13443991Y-11532174D02*
X13453515Y-11551222D01*
X13453515Y-11551222D02*
X13453515Y-11655984D01*
X13843991Y-11446460D02*
X13672563Y-11703603D01*
X14101134Y-11455984D02*
X14120182Y-11455984D01*
X14120182Y-11455984D02*
X14139229Y-11465508D01*
X14139229Y-11465508D02*
X14148753Y-11475031D01*
X14148753Y-11475031D02*
X14158277Y-11494079D01*
X14158277Y-11494079D02*
X14167801Y-11532174D01*
X14167801Y-11532174D02*
X14167801Y-11579793D01*
X14167801Y-11579793D02*
X14158277Y-11617888D01*
X14158277Y-11617888D02*
X14148753Y-11636936D01*
X14148753Y-11636936D02*
X14139229Y-11646460D01*
X14139229Y-11646460D02*
X14120182Y-11655984D01*
X14120182Y-11655984D02*
X14101134Y-11655984D01*
X14101134Y-11655984D02*
X14082086Y-11646460D01*
X14082086Y-11646460D02*
X14072563Y-11636936D01*
X14072563Y-11636936D02*
X14063039Y-11617888D01*
X14063039Y-11617888D02*
X14053515Y-11579793D01*
X14053515Y-11579793D02*
X14053515Y-11532174D01*
X14053515Y-11532174D02*
X14063039Y-11494079D01*
X14063039Y-11494079D02*
X14072563Y-11475031D01*
X14072563Y-11475031D02*
X14082086Y-11465508D01*
X14082086Y-11465508D02*
X14101134Y-11455984D01*
X14253515Y-11636936D02*
X14263039Y-11646460D01*
X14263039Y-11646460D02*
X14253515Y-11655984D01*
X14253515Y-11655984D02*
X14243991Y-11646460D01*
X14243991Y-11646460D02*
X14253515Y-11636936D01*
X14253515Y-11636936D02*
X14253515Y-11655984D01*
X14386848Y-11455984D02*
X14405896Y-11455984D01*
X14405896Y-11455984D02*
X14424944Y-11465508D01*
X14424944Y-11465508D02*
X14434467Y-11475031D01*
X14434467Y-11475031D02*
X14443991Y-11494079D01*
X14443991Y-11494079D02*
X14453515Y-11532174D01*
X14453515Y-11532174D02*
X14453515Y-11579793D01*
X14453515Y-11579793D02*
X14443991Y-11617888D01*
X14443991Y-11617888D02*
X14434467Y-11636936D01*
X14434467Y-11636936D02*
X14424944Y-11646460D01*
X14424944Y-11646460D02*
X14405896Y-11655984D01*
X14405896Y-11655984D02*
X14386848Y-11655984D01*
X14386848Y-11655984D02*
X14367801Y-11646460D01*
X14367801Y-11646460D02*
X14358277Y-11636936D01*
X14358277Y-11636936D02*
X14348753Y-11617888D01*
X14348753Y-11617888D02*
X14339229Y-11579793D01*
X14339229Y-11579793D02*
X14339229Y-11532174D01*
X14339229Y-11532174D02*
X14348753Y-11494079D01*
X14348753Y-11494079D02*
X14358277Y-11475031D01*
X14358277Y-11475031D02*
X14367801Y-11465508D01*
X14367801Y-11465508D02*
X14386848Y-11455984D01*
X14548753Y-11655984D02*
X14586848Y-11655984D01*
X14586848Y-11655984D02*
X14605896Y-11646460D01*
X14605896Y-11646460D02*
X14615420Y-11636936D01*
X14615420Y-11636936D02*
X14634467Y-11608365D01*
X14634467Y-11608365D02*
X14643991Y-11570269D01*
X14643991Y-11570269D02*
X14643991Y-11494079D01*
X14643991Y-11494079D02*
X14634467Y-11475031D01*
X14634467Y-11475031D02*
X14624944Y-11465508D01*
X14624944Y-11465508D02*
X14605896Y-11455984D01*
X14605896Y-11455984D02*
X14567801Y-11455984D01*
X14567801Y-11455984D02*
X14548753Y-11465508D01*
X14548753Y-11465508D02*
X14539229Y-11475031D01*
X14539229Y-11475031D02*
X14529706Y-11494079D01*
X14529706Y-11494079D02*
X14529706Y-11541698D01*
X14529706Y-11541698D02*
X14539229Y-11560746D01*
X14539229Y-11560746D02*
X14548753Y-11570269D01*
X14548753Y-11570269D02*
X14567801Y-11579793D01*
X14567801Y-11579793D02*
X14605896Y-11579793D01*
X14605896Y-11579793D02*
X14624944Y-11570269D01*
X14624944Y-11570269D02*
X14634467Y-11560746D01*
X14634467Y-11560746D02*
X14643991Y-11541698D01*
X14767801Y-11455984D02*
X14786848Y-11455984D01*
X14786848Y-11455984D02*
X14805896Y-11465508D01*
X14805896Y-11465508D02*
X14815420Y-11475031D01*
X14815420Y-11475031D02*
X14824944Y-11494079D01*
X14824944Y-11494079D02*
X14834467Y-11532174D01*
X14834467Y-11532174D02*
X14834467Y-11579793D01*
X14834467Y-11579793D02*
X14824944Y-11617888D01*
X14824944Y-11617888D02*
X14815420Y-11636936D01*
X14815420Y-11636936D02*
X14805896Y-11646460D01*
X14805896Y-11646460D02*
X14786848Y-11655984D01*
X14786848Y-11655984D02*
X14767801Y-11655984D01*
X14767801Y-11655984D02*
X14748753Y-11646460D01*
X14748753Y-11646460D02*
X14739229Y-11636936D01*
X14739229Y-11636936D02*
X14729706Y-11617888D01*
X14729706Y-11617888D02*
X14720182Y-11579793D01*
X14720182Y-11579793D02*
X14720182Y-11532174D01*
X14720182Y-11532174D02*
X14729706Y-11494079D01*
X14729706Y-11494079D02*
X14739229Y-11475031D01*
X14739229Y-11475031D02*
X14748753Y-11465508D01*
X14748753Y-11465508D02*
X14767801Y-11455984D01*
X15005896Y-11455984D02*
X14967801Y-11455984D01*
X14967801Y-11455984D02*
X14948753Y-11465508D01*
X14948753Y-11465508D02*
X14939229Y-11475031D01*
X14939229Y-11475031D02*
X14920182Y-11503603D01*
X14920182Y-11503603D02*
X14910658Y-11541698D01*
X14910658Y-11541698D02*
X14910658Y-11617888D01*
X14910658Y-11617888D02*
X14920182Y-11636936D01*
X14920182Y-11636936D02*
X14929706Y-11646460D01*
X14929706Y-11646460D02*
X14948753Y-11655984D01*
X14948753Y-11655984D02*
X14986848Y-11655984D01*
X14986848Y-11655984D02*
X15005896Y-11646460D01*
X15005896Y-11646460D02*
X15015420Y-11636936D01*
X15015420Y-11636936D02*
X15024944Y-11617888D01*
X15024944Y-11617888D02*
X15024944Y-11570269D01*
X15024944Y-11570269D02*
X15015420Y-11551222D01*
X15015420Y-11551222D02*
X15005896Y-11541698D01*
X15005896Y-11541698D02*
X14986848Y-11532174D01*
X14986848Y-11532174D02*
X14948753Y-11532174D01*
X14948753Y-11532174D02*
X14929706Y-11541698D01*
X14929706Y-11541698D02*
X14920182Y-11551222D01*
X14920182Y-11551222D02*
X14910658Y-11570269D01*
X15101134Y-11455984D02*
X15101134Y-11494079D01*
X15177325Y-11455984D02*
X15177325Y-11494079D01*
X15472563Y-11732174D02*
X15463039Y-11722650D01*
X15463039Y-11722650D02*
X15443991Y-11694079D01*
X15443991Y-11694079D02*
X15434468Y-11675031D01*
X15434468Y-11675031D02*
X15424944Y-11646460D01*
X15424944Y-11646460D02*
X15415420Y-11598841D01*
X15415420Y-11598841D02*
X15415420Y-11560746D01*
X15415420Y-11560746D02*
X15424944Y-11513127D01*
X15424944Y-11513127D02*
X15434468Y-11484555D01*
X15434468Y-11484555D02*
X15443991Y-11465508D01*
X15443991Y-11465508D02*
X15463039Y-11436936D01*
X15463039Y-11436936D02*
X15472563Y-11427412D01*
X15539229Y-11475031D02*
X15548753Y-11465508D01*
X15548753Y-11465508D02*
X15567801Y-11455984D01*
X15567801Y-11455984D02*
X15615420Y-11455984D01*
X15615420Y-11455984D02*
X15634468Y-11465508D01*
X15634468Y-11465508D02*
X15643991Y-11475031D01*
X15643991Y-11475031D02*
X15653515Y-11494079D01*
X15653515Y-11494079D02*
X15653515Y-11513127D01*
X15653515Y-11513127D02*
X15643991Y-11541698D01*
X15643991Y-11541698D02*
X15529706Y-11655984D01*
X15529706Y-11655984D02*
X15653515Y-11655984D01*
X15891610Y-11655984D02*
X15891610Y-11455984D01*
X15977325Y-11655984D02*
X15977325Y-11551222D01*
X15977325Y-11551222D02*
X15967801Y-11532174D01*
X15967801Y-11532174D02*
X15948753Y-11522650D01*
X15948753Y-11522650D02*
X15920182Y-11522650D01*
X15920182Y-11522650D02*
X15901134Y-11532174D01*
X15901134Y-11532174D02*
X15891610Y-11541698D01*
X16101134Y-11655984D02*
X16082087Y-11646460D01*
X16082087Y-11646460D02*
X16072563Y-11636936D01*
X16072563Y-11636936D02*
X16063039Y-11617888D01*
X16063039Y-11617888D02*
X16063039Y-11560746D01*
X16063039Y-11560746D02*
X16072563Y-11541698D01*
X16072563Y-11541698D02*
X16082087Y-11532174D01*
X16082087Y-11532174D02*
X16101134Y-11522650D01*
X16101134Y-11522650D02*
X16129706Y-11522650D01*
X16129706Y-11522650D02*
X16148753Y-11532174D01*
X16148753Y-11532174D02*
X16158277Y-11541698D01*
X16158277Y-11541698D02*
X16167801Y-11560746D01*
X16167801Y-11560746D02*
X16167801Y-11617888D01*
X16167801Y-11617888D02*
X16158277Y-11636936D01*
X16158277Y-11636936D02*
X16148753Y-11646460D01*
X16148753Y-11646460D02*
X16129706Y-11655984D01*
X16129706Y-11655984D02*
X16101134Y-11655984D01*
X16282087Y-11655984D02*
X16263039Y-11646460D01*
X16263039Y-11646460D02*
X16253515Y-11627412D01*
X16253515Y-11627412D02*
X16253515Y-11455984D01*
X16434468Y-11646460D02*
X16415420Y-11655984D01*
X16415420Y-11655984D02*
X16377325Y-11655984D01*
X16377325Y-11655984D02*
X16358277Y-11646460D01*
X16358277Y-11646460D02*
X16348753Y-11627412D01*
X16348753Y-11627412D02*
X16348753Y-11551222D01*
X16348753Y-11551222D02*
X16358277Y-11532174D01*
X16358277Y-11532174D02*
X16377325Y-11522650D01*
X16377325Y-11522650D02*
X16415420Y-11522650D01*
X16415420Y-11522650D02*
X16434468Y-11532174D01*
X16434468Y-11532174D02*
X16443991Y-11551222D01*
X16443991Y-11551222D02*
X16443991Y-11570269D01*
X16443991Y-11570269D02*
X16348753Y-11589317D01*
X16520182Y-11646460D02*
X16539230Y-11655984D01*
X16539230Y-11655984D02*
X16577325Y-11655984D01*
X16577325Y-11655984D02*
X16596372Y-11646460D01*
X16596372Y-11646460D02*
X16605896Y-11627412D01*
X16605896Y-11627412D02*
X16605896Y-11617888D01*
X16605896Y-11617888D02*
X16596372Y-11598841D01*
X16596372Y-11598841D02*
X16577325Y-11589317D01*
X16577325Y-11589317D02*
X16548753Y-11589317D01*
X16548753Y-11589317D02*
X16529706Y-11579793D01*
X16529706Y-11579793D02*
X16520182Y-11560746D01*
X16520182Y-11560746D02*
X16520182Y-11551222D01*
X16520182Y-11551222D02*
X16529706Y-11532174D01*
X16529706Y-11532174D02*
X16548753Y-11522650D01*
X16548753Y-11522650D02*
X16577325Y-11522650D01*
X16577325Y-11522650D02*
X16596372Y-11532174D01*
X16672563Y-11732174D02*
X16682087Y-11722650D01*
X16682087Y-11722650D02*
X16701134Y-11694079D01*
X16701134Y-11694079D02*
X16710658Y-11675031D01*
X16710658Y-11675031D02*
X16720182Y-11646460D01*
X16720182Y-11646460D02*
X16729706Y-11598841D01*
X16729706Y-11598841D02*
X16729706Y-11560746D01*
X16729706Y-11560746D02*
X16720182Y-11513127D01*
X16720182Y-11513127D02*
X16710658Y-11484555D01*
X16710658Y-11484555D02*
X16701134Y-11465508D01*
X16701134Y-11465508D02*
X16682087Y-11436936D01*
X16682087Y-11436936D02*
X16672563Y-11427412D01*
M02*
