%TF.GenerationSoftware,KiCad,Pcbnew,9.0.1*%
%TF.CreationDate,2025-04-03T15:50:51+00:00*%
%TF.ProjectId,t1,74312e6b-6963-4616-945f-706362585858,${git_hash}*%
%TF.SameCoordinates,Original*%
%TF.FileFunction,Copper,L3,Inr*%
%TF.FilePolarity,Positive*%
%FSLAX46Y46*%
G04 Gerber Fmt 4.6, Leading zero omitted, Abs format (unit mm)*
G04 Created by KiCad (PCBNEW 9.0.1) date 2025-04-03 15:50:51*
%MOMM*%
%LPD*%
G01*
G04 APERTURE LIST*
%TA.AperFunction,ComponentPad*%
%ADD10R,1.700000X1.700000*%
%TD*%
%TA.AperFunction,ComponentPad*%
%ADD11O,1.700000X1.700000*%
%TD*%
%TA.AperFunction,ComponentPad*%
%ADD12R,1.600000X1.600000*%
%TD*%
%TA.AperFunction,ComponentPad*%
%ADD13C,1.600000*%
%TD*%
%TA.AperFunction,ComponentPad*%
%ADD14C,4.000000*%
%TD*%
%TA.AperFunction,ViaPad*%
%ADD15C,0.800000*%
%TD*%
G04 APERTURE END LIST*
D10*
%TO.N,Net-(J3-Pin_1)*%
%TO.C,J3*%
X136300000Y-79500000D03*
D11*
%TO.N,Net-(J3-Pin_2)*%
X136300000Y-76960000D03*
%TO.N,Net-(J3-Pin_3)*%
X136300000Y-74420000D03*
%TO.N,Net-(J3-Pin_4)*%
X136300000Y-71880000D03*
%TO.N,Net-(J3-Pin_5)*%
X136300000Y-69340000D03*
%TD*%
D10*
%TO.N,Net-(J4-Pin_1)*%
%TO.C,J4*%
X151892000Y-95250000D03*
D11*
%TO.N,Net-(J4-Pin_2)*%
X154432000Y-95250000D03*
%TO.N,Net-(J4-Pin_3)*%
X151892000Y-97790000D03*
%TO.N,Net-(J4-Pin_4)*%
X154432000Y-97790000D03*
%TD*%
D10*
%TO.N,/MISO2*%
%TO.C,J5*%
X141122400Y-97764600D03*
D11*
%TO.N,+5V*%
X141122400Y-95224600D03*
%TO.N,/SCK2*%
X143662400Y-97764600D03*
%TO.N,/MOSI2*%
X143662400Y-95224600D03*
%TO.N,/RESET2*%
X146202400Y-97764600D03*
%TO.N,GND*%
X146202400Y-95224600D03*
%TD*%
D10*
%TO.N,Net-(J6-Pin_1)*%
%TO.C,J6*%
X140970000Y-77216000D03*
D11*
%TO.N,Net-(J6-Pin_2)*%
X140970000Y-79756000D03*
%TO.N,Net-(J6-Pin_3)*%
X140970000Y-82296000D03*
%TO.N,Net-(J6-Pin_4)*%
X140970000Y-84836000D03*
%TO.N,Net-(J6-Pin_5)*%
X140970000Y-87376000D03*
%TO.N,Net-(J6-Pin_6)*%
X140970000Y-89916000D03*
%TD*%
D12*
%TO.N,Net-(J2-VBUS)*%
%TO.C,J2*%
X173482000Y-81534000D03*
D13*
%TO.N,Net-(J2-D-)*%
X173482000Y-84034000D03*
%TO.N,Net-(J2-D+)*%
X175482000Y-84034000D03*
%TO.N,Earth*%
X175482000Y-81534000D03*
D14*
%TO.N,Net-(J2-Shield)*%
X178342000Y-76784000D03*
X178342000Y-88784000D03*
%TD*%
D15*
%TO.N,GND*%
X154355800Y-75793600D03*
X123113800Y-73329800D03*
X129108200Y-77952600D03*
X167259000Y-97942400D03*
X155676600Y-83058000D03*
X163830000Y-76758800D03*
X125349000Y-90906600D03*
X130810000Y-95351600D03*
X129082800Y-73380600D03*
X144830800Y-85064600D03*
X123088400Y-78130400D03*
%TO.N,+5V*%
X159842200Y-98602800D03*
X154533600Y-83286600D03*
X146024600Y-69240400D03*
X159181800Y-81965800D03*
X130835400Y-88900000D03*
X129108200Y-84302600D03*
X121564400Y-89331800D03*
X123139200Y-84404200D03*
%TO.N,Net-(U1-XTAL1)*%
X162763200Y-70002400D03*
%TO.N,Net-(U1-PC0{slash}XTAL2)*%
X155041600Y-70078600D03*
%TO.N,Earth*%
X160680400Y-81153000D03*
X166878000Y-88773000D03*
X160553400Y-86233000D03*
X167233600Y-93522800D03*
X165049200Y-90449400D03*
%TO.N,VBUS*%
X165735000Y-80162400D03*
%TO.N,Net-(J2-Shield)*%
X170459400Y-80416400D03*
X172389800Y-88138000D03*
X170561000Y-90678000D03*
%TO.N,Net-(J3-Pin_4)*%
X156895800Y-87553800D03*
%TO.N,Net-(J3-Pin_3)*%
X156159200Y-88392000D03*
%TO.N,Net-(J3-Pin_2)*%
X156286200Y-91694000D03*
%TO.N,Net-(J3-Pin_1)*%
X155067000Y-88595200D03*
%TO.N,Net-(J6-Pin_3)*%
X150139400Y-81889600D03*
%TO.N,Net-(J6-Pin_5)*%
X152069800Y-87223600D03*
%TO.N,Net-(J6-Pin_6)*%
X152679400Y-88315800D03*
%TO.N,Net-(J6-Pin_4)*%
X151689100Y-85852000D03*
%TO.N,Net-(J6-Pin_2)*%
X148595111Y-85389689D03*
%TO.N,Net-(U1-D-)*%
X155956000Y-85775802D03*
%TD*%
%TA.AperFunction,Conductor*%
%TO.N,+5V*%
G36*
X181916621Y-65745502D02*
G01*
X181963114Y-65799158D01*
X181974500Y-65851500D01*
X181974500Y-101148500D01*
X181954498Y-101216621D01*
X181900842Y-101263114D01*
X181848500Y-101274500D01*
X119151500Y-101274500D01*
X119083379Y-101254498D01*
X119036886Y-101200842D01*
X119025500Y-101148500D01*
X119025500Y-96874038D01*
X121399500Y-96874038D01*
X121399500Y-97125962D01*
X121437086Y-97363269D01*
X121438911Y-97374790D01*
X121516757Y-97614374D01*
X121516759Y-97614379D01*
X121631130Y-97838845D01*
X121631132Y-97838848D01*
X121654864Y-97871512D01*
X121779207Y-98042656D01*
X121779209Y-98042658D01*
X121779211Y-98042661D01*
X121957338Y-98220788D01*
X121957341Y-98220790D01*
X121957344Y-98220793D01*
X122161155Y-98368870D01*
X122385621Y-98483241D01*
X122625215Y-98561090D01*
X122874038Y-98600500D01*
X122874041Y-98600500D01*
X123125959Y-98600500D01*
X123125962Y-98600500D01*
X123374785Y-98561090D01*
X123614379Y-98483241D01*
X123838845Y-98368870D01*
X124042656Y-98220793D01*
X124220793Y-98042656D01*
X124368870Y-97838845D01*
X124483241Y-97614379D01*
X124561090Y-97374785D01*
X124600500Y-97125962D01*
X124600500Y-96874038D01*
X124599219Y-96865950D01*
X139763900Y-96865950D01*
X139763900Y-98663249D01*
X139770409Y-98723796D01*
X139770411Y-98723804D01*
X139821510Y-98860802D01*
X139821512Y-98860807D01*
X139909138Y-98977861D01*
X140026192Y-99065487D01*
X140026194Y-99065488D01*
X140026196Y-99065489D01*
X140085275Y-99087524D01*
X140163195Y-99116588D01*
X140163203Y-99116590D01*
X140223750Y-99123099D01*
X140223755Y-99123099D01*
X140223762Y-99123100D01*
X140223768Y-99123100D01*
X142021032Y-99123100D01*
X142021038Y-99123100D01*
X142021045Y-99123099D01*
X142021049Y-99123099D01*
X142081596Y-99116590D01*
X142081599Y-99116589D01*
X142081601Y-99116589D01*
X142218604Y-99065489D01*
X142274599Y-99023572D01*
X142335661Y-98977861D01*
X142423287Y-98860807D01*
X142423287Y-98860806D01*
X142423289Y-98860804D01*
X142467269Y-98742888D01*
X142509814Y-98686056D01*
X142576334Y-98661245D01*
X142645708Y-98676336D01*
X142674418Y-98697829D01*
X142777390Y-98800801D01*
X142777393Y-98800803D01*
X142777396Y-98800806D01*
X142950391Y-98926494D01*
X143140917Y-99023572D01*
X143344278Y-99089647D01*
X143344279Y-99089647D01*
X143344284Y-99089649D01*
X143555484Y-99123100D01*
X143555487Y-99123100D01*
X143769313Y-99123100D01*
X143769316Y-99123100D01*
X143980516Y-99089649D01*
X144183883Y-99023572D01*
X144374409Y-98926494D01*
X144547404Y-98800806D01*
X144698606Y-98649604D01*
X144824294Y-98476609D01*
X144824299Y-98476597D01*
X144824961Y-98475520D01*
X144825324Y-98475191D01*
X144827204Y-98472604D01*
X144827747Y-98472998D01*
X144877604Y-98427883D01*
X144947644Y-98416270D01*
X145012845Y-98444366D01*
X145037421Y-98472730D01*
X145037596Y-98472604D01*
X145039068Y-98474630D01*
X145039839Y-98475520D01*
X145040505Y-98476607D01*
X145040506Y-98476609D01*
X145166194Y-98649604D01*
X145166196Y-98649606D01*
X145166198Y-98649609D01*
X145317390Y-98800801D01*
X145317393Y-98800803D01*
X145317396Y-98800806D01*
X145490391Y-98926494D01*
X145680917Y-99023572D01*
X145884278Y-99089647D01*
X145884279Y-99089647D01*
X145884284Y-99089649D01*
X146095484Y-99123100D01*
X146095487Y-99123100D01*
X146309313Y-99123100D01*
X146309316Y-99123100D01*
X146520516Y-99089649D01*
X146723883Y-99023572D01*
X146914409Y-98926494D01*
X147087404Y-98800806D01*
X147238606Y-98649604D01*
X147364294Y-98476609D01*
X147461372Y-98286083D01*
X147527449Y-98082716D01*
X147560900Y-97871516D01*
X147560900Y-97657684D01*
X147527449Y-97446484D01*
X147461372Y-97243117D01*
X147364294Y-97052591D01*
X147238606Y-96879596D01*
X147238603Y-96879593D01*
X147238601Y-96879590D01*
X147087409Y-96728398D01*
X147087406Y-96728396D01*
X147087404Y-96728394D01*
X146914409Y-96602706D01*
X146914407Y-96602705D01*
X146913320Y-96602039D01*
X146912991Y-96601675D01*
X146910404Y-96599796D01*
X146910798Y-96599252D01*
X146865683Y-96549396D01*
X146854070Y-96479356D01*
X146882166Y-96414155D01*
X146910530Y-96389578D01*
X146910404Y-96389404D01*
X146912430Y-96387931D01*
X146913320Y-96387161D01*
X146914397Y-96386499D01*
X146914409Y-96386494D01*
X147087404Y-96260806D01*
X147238606Y-96109604D01*
X147364294Y-95936609D01*
X147461372Y-95746083D01*
X147527449Y-95542716D01*
X147560900Y-95331516D01*
X147560900Y-95117684D01*
X147527449Y-94906484D01*
X147461372Y-94703117D01*
X147364294Y-94512591D01*
X147247146Y-94351350D01*
X150533500Y-94351350D01*
X150533500Y-96148649D01*
X150540009Y-96209196D01*
X150540011Y-96209204D01*
X150591110Y-96346202D01*
X150591112Y-96346207D01*
X150678738Y-96463261D01*
X150795791Y-96550886D01*
X150795792Y-96550886D01*
X150795796Y-96550889D01*
X150913711Y-96594869D01*
X150970543Y-96637414D01*
X150995354Y-96703934D01*
X150980263Y-96773308D01*
X150958771Y-96802018D01*
X150855794Y-96904995D01*
X150730108Y-97077987D01*
X150633029Y-97268515D01*
X150633026Y-97268521D01*
X150566952Y-97471878D01*
X150566951Y-97471883D01*
X150566951Y-97471884D01*
X150533500Y-97683084D01*
X150533500Y-97896916D01*
X150556584Y-98042661D01*
X150566952Y-98108121D01*
X150624775Y-98286083D01*
X150633028Y-98311483D01*
X150730106Y-98502009D01*
X150855794Y-98675004D01*
X150855796Y-98675006D01*
X150855798Y-98675009D01*
X151006990Y-98826201D01*
X151006993Y-98826203D01*
X151006996Y-98826206D01*
X151179991Y-98951894D01*
X151370517Y-99048972D01*
X151573878Y-99115047D01*
X151573879Y-99115047D01*
X151573884Y-99115049D01*
X151785084Y-99148500D01*
X151785087Y-99148500D01*
X151998913Y-99148500D01*
X151998916Y-99148500D01*
X152210116Y-99115049D01*
X152413483Y-99048972D01*
X152604009Y-98951894D01*
X152777004Y-98826206D01*
X152928206Y-98675004D01*
X153053894Y-98502009D01*
X153053899Y-98501997D01*
X153054561Y-98500920D01*
X153054924Y-98500591D01*
X153056804Y-98498004D01*
X153057347Y-98498398D01*
X153107204Y-98453283D01*
X153177244Y-98441670D01*
X153242445Y-98469766D01*
X153267021Y-98498130D01*
X153267196Y-98498004D01*
X153268668Y-98500030D01*
X153269439Y-98500920D01*
X153270105Y-98502007D01*
X153270106Y-98502009D01*
X153395794Y-98675004D01*
X153395796Y-98675006D01*
X153395798Y-98675009D01*
X153546990Y-98826201D01*
X153546993Y-98826203D01*
X153546996Y-98826206D01*
X153719991Y-98951894D01*
X153910517Y-99048972D01*
X154113878Y-99115047D01*
X154113879Y-99115047D01*
X154113884Y-99115049D01*
X154325084Y-99148500D01*
X154325087Y-99148500D01*
X154538913Y-99148500D01*
X154538916Y-99148500D01*
X154750116Y-99115049D01*
X154953483Y-99048972D01*
X155144009Y-98951894D01*
X155317004Y-98826206D01*
X155468206Y-98675004D01*
X155593894Y-98502009D01*
X155690972Y-98311483D01*
X155757049Y-98108116D01*
X155790500Y-97896916D01*
X155790500Y-97852918D01*
X166350500Y-97852918D01*
X166350500Y-98031881D01*
X166385414Y-98207403D01*
X166403945Y-98252141D01*
X166453898Y-98372736D01*
X166553322Y-98521535D01*
X166679865Y-98648078D01*
X166828664Y-98747502D01*
X166994000Y-98815987D01*
X167169521Y-98850900D01*
X167169522Y-98850900D01*
X167348478Y-98850900D01*
X167348479Y-98850900D01*
X167524000Y-98815987D01*
X167689336Y-98747502D01*
X167838135Y-98648078D01*
X167964678Y-98521535D01*
X168064102Y-98372736D01*
X168132587Y-98207400D01*
X168167500Y-98031879D01*
X168167500Y-97852921D01*
X168132587Y-97677400D01*
X168064102Y-97512064D01*
X167964678Y-97363265D01*
X167838135Y-97236722D01*
X167689336Y-97137298D01*
X167572429Y-97088873D01*
X167524003Y-97068814D01*
X167524001Y-97068813D01*
X167524000Y-97068813D01*
X167435645Y-97051238D01*
X167348481Y-97033900D01*
X167348479Y-97033900D01*
X167169521Y-97033900D01*
X167169518Y-97033900D01*
X167038771Y-97059907D01*
X166994000Y-97068813D01*
X166993999Y-97068813D01*
X166993996Y-97068814D01*
X166828662Y-97137299D01*
X166679869Y-97236719D01*
X166679862Y-97236724D01*
X166553324Y-97363262D01*
X166553319Y-97363269D01*
X166453899Y-97512062D01*
X166385414Y-97677396D01*
X166385413Y-97677399D01*
X166385413Y-97677400D01*
X166384282Y-97683087D01*
X166350500Y-97852918D01*
X155790500Y-97852918D01*
X155790500Y-97683084D01*
X155757049Y-97471884D01*
X155690972Y-97268517D01*
X155593894Y-97077991D01*
X155468206Y-96904996D01*
X155468205Y-96904995D01*
X155468204Y-96904993D01*
X155437249Y-96874038D01*
X175399500Y-96874038D01*
X175399500Y-97125962D01*
X175437086Y-97363269D01*
X175438911Y-97374790D01*
X175516757Y-97614374D01*
X175516759Y-97614379D01*
X175631130Y-97838845D01*
X175631132Y-97838848D01*
X175654864Y-97871512D01*
X175779207Y-98042656D01*
X175779209Y-98042658D01*
X175779211Y-98042661D01*
X175957338Y-98220788D01*
X175957341Y-98220790D01*
X175957344Y-98220793D01*
X176161155Y-98368870D01*
X176385621Y-98483241D01*
X176625215Y-98561090D01*
X176874038Y-98600500D01*
X176874041Y-98600500D01*
X177125959Y-98600500D01*
X177125962Y-98600500D01*
X177374785Y-98561090D01*
X177614379Y-98483241D01*
X177838845Y-98368870D01*
X178042656Y-98220793D01*
X178220793Y-98042656D01*
X178368870Y-97838845D01*
X178483241Y-97614379D01*
X178561090Y-97374785D01*
X178600500Y-97125962D01*
X178600500Y-96874038D01*
X178561090Y-96625215D01*
X178483241Y-96385621D01*
X178368870Y-96161155D01*
X178220793Y-95957344D01*
X178220790Y-95957341D01*
X178220788Y-95957338D01*
X178042661Y-95779211D01*
X178042658Y-95779209D01*
X178042656Y-95779207D01*
X177838845Y-95631130D01*
X177614379Y-95516759D01*
X177614376Y-95516758D01*
X177614374Y-95516757D01*
X177374790Y-95438911D01*
X177374786Y-95438910D01*
X177374785Y-95438910D01*
X177125962Y-95399500D01*
X176874038Y-95399500D01*
X176625215Y-95438910D01*
X176625209Y-95438911D01*
X176385625Y-95516757D01*
X176385619Y-95516760D01*
X176161151Y-95631132D01*
X175957341Y-95779209D01*
X175957338Y-95779211D01*
X175779211Y-95957338D01*
X175779209Y-95957341D01*
X175631132Y-96161151D01*
X175516760Y-96385619D01*
X175516757Y-96385625D01*
X175438911Y-96625209D01*
X175438910Y-96625214D01*
X175438910Y-96625215D01*
X175399500Y-96874038D01*
X155437249Y-96874038D01*
X155317009Y-96753798D01*
X155317006Y-96753796D01*
X155317004Y-96753794D01*
X155186781Y-96659182D01*
X155144012Y-96628108D01*
X155142920Y-96627439D01*
X155142591Y-96627075D01*
X155140004Y-96625196D01*
X155140398Y-96624652D01*
X155095283Y-96574796D01*
X155083670Y-96504756D01*
X155111766Y-96439555D01*
X155140130Y-96414978D01*
X155140004Y-96414804D01*
X155142030Y-96413331D01*
X155142920Y-96412561D01*
X155143997Y-96411899D01*
X155144009Y-96411894D01*
X155317004Y-96286206D01*
X155468206Y-96135004D01*
X155593894Y-95962009D01*
X155690972Y-95771483D01*
X155757049Y-95568116D01*
X155790500Y-95356916D01*
X155790500Y-95143084D01*
X155757049Y-94931884D01*
X155690972Y-94728517D01*
X155593894Y-94537991D01*
X155468206Y-94364996D01*
X155468203Y-94364993D01*
X155468201Y-94364990D01*
X155317009Y-94213798D01*
X155317006Y-94213796D01*
X155317004Y-94213794D01*
X155144009Y-94088106D01*
X154953483Y-93991028D01*
X154953480Y-93991027D01*
X154953478Y-93991026D01*
X154750120Y-93924952D01*
X154750123Y-93924952D01*
X154710801Y-93918724D01*
X154538916Y-93891500D01*
X154325084Y-93891500D01*
X154113884Y-93924951D01*
X154113878Y-93924952D01*
X153910521Y-93991026D01*
X153910515Y-93991029D01*
X153719987Y-94088108D01*
X153546995Y-94213794D01*
X153444018Y-94316771D01*
X153381706Y-94350796D01*
X153310890Y-94345730D01*
X153254054Y-94303184D01*
X153236871Y-94271715D01*
X153192889Y-94153796D01*
X153192886Y-94153792D01*
X153192886Y-94153791D01*
X153105261Y-94036738D01*
X152988207Y-93949112D01*
X152988202Y-93949110D01*
X152851204Y-93898011D01*
X152851196Y-93898009D01*
X152790649Y-93891500D01*
X152790638Y-93891500D01*
X150993362Y-93891500D01*
X150993350Y-93891500D01*
X150932803Y-93898009D01*
X150932795Y-93898011D01*
X150795797Y-93949110D01*
X150795792Y-93949112D01*
X150678738Y-94036738D01*
X150591112Y-94153792D01*
X150591110Y-94153797D01*
X150540011Y-94290795D01*
X150540009Y-94290803D01*
X150533500Y-94351350D01*
X147247146Y-94351350D01*
X147238606Y-94339596D01*
X147238603Y-94339593D01*
X147238601Y-94339590D01*
X147087409Y-94188398D01*
X147087406Y-94188396D01*
X147087404Y-94188394D01*
X146914409Y-94062706D01*
X146723883Y-93965628D01*
X146723880Y-93965627D01*
X146723878Y-93965626D01*
X146520520Y-93899552D01*
X146520523Y-93899552D01*
X146459595Y-93889902D01*
X146309316Y-93866100D01*
X146095484Y-93866100D01*
X145884284Y-93899551D01*
X145884278Y-93899552D01*
X145680921Y-93965626D01*
X145680915Y-93965629D01*
X145490387Y-94062708D01*
X145317393Y-94188396D01*
X145317390Y-94188398D01*
X145166198Y-94339590D01*
X145166196Y-94339593D01*
X145040508Y-94512587D01*
X145039834Y-94513688D01*
X145039468Y-94514018D01*
X145037596Y-94516596D01*
X145037054Y-94516202D01*
X144987187Y-94561321D01*
X144917145Y-94572928D01*
X144851947Y-94544826D01*
X144827376Y-94516470D01*
X144827204Y-94516596D01*
X144825741Y-94514582D01*
X144824966Y-94513688D01*
X144824296Y-94512596D01*
X144824294Y-94512591D01*
X144698606Y-94339596D01*
X144698603Y-94339593D01*
X144698601Y-94339590D01*
X144547409Y-94188398D01*
X144547406Y-94188396D01*
X144547404Y-94188394D01*
X144374409Y-94062706D01*
X144183883Y-93965628D01*
X144183880Y-93965627D01*
X144183878Y-93965626D01*
X143980520Y-93899552D01*
X143980523Y-93899552D01*
X143919595Y-93889902D01*
X143769316Y-93866100D01*
X143555484Y-93866100D01*
X143344284Y-93899551D01*
X143344278Y-93899552D01*
X143140921Y-93965626D01*
X143140915Y-93965629D01*
X142950387Y-94062708D01*
X142777393Y-94188396D01*
X142777390Y-94188398D01*
X142626198Y-94339590D01*
X142626196Y-94339593D01*
X142500500Y-94512598D01*
X142499531Y-94514180D01*
X142499006Y-94514654D01*
X142497596Y-94516596D01*
X142497187Y-94516299D01*
X142446879Y-94561806D01*
X142376837Y-94573407D01*
X142311642Y-94545297D01*
X142286915Y-94516756D01*
X142286776Y-94516858D01*
X142285594Y-94515231D01*
X142284666Y-94514160D01*
X142283860Y-94512844D01*
X142158222Y-94339920D01*
X142007079Y-94188777D01*
X141834150Y-94063136D01*
X141643692Y-93966093D01*
X141643686Y-93966090D01*
X141440404Y-93900040D01*
X141376400Y-93889902D01*
X141376400Y-94793897D01*
X141315393Y-94758675D01*
X141188226Y-94724600D01*
X141056574Y-94724600D01*
X140929407Y-94758675D01*
X140868400Y-94793897D01*
X140868400Y-93889902D01*
X140804395Y-93900040D01*
X140601113Y-93966090D01*
X140601107Y-93966093D01*
X140410649Y-94063136D01*
X140237720Y-94188777D01*
X140086577Y-94339920D01*
X139960936Y-94512849D01*
X139863893Y-94703307D01*
X139863890Y-94703313D01*
X139797840Y-94906595D01*
X139787702Y-94970600D01*
X140691697Y-94970600D01*
X140656475Y-95031607D01*
X140622400Y-95158774D01*
X140622400Y-95290426D01*
X140656475Y-95417593D01*
X140691697Y-95478600D01*
X139787702Y-95478600D01*
X139797840Y-95542604D01*
X139863890Y-95745886D01*
X139863893Y-95745892D01*
X139960936Y-95936350D01*
X140086577Y-96109279D01*
X140189686Y-96212388D01*
X140223712Y-96274700D01*
X140218647Y-96345515D01*
X140176100Y-96402351D01*
X140144625Y-96419538D01*
X140026195Y-96463711D01*
X140026192Y-96463712D01*
X139909138Y-96551338D01*
X139821512Y-96668392D01*
X139821510Y-96668397D01*
X139770411Y-96805395D01*
X139770409Y-96805403D01*
X139763900Y-96865950D01*
X124599219Y-96865950D01*
X124561090Y-96625215D01*
X124483241Y-96385621D01*
X124368870Y-96161155D01*
X124220793Y-95957344D01*
X124220790Y-95957341D01*
X124220788Y-95957338D01*
X124042661Y-95779211D01*
X124042658Y-95779209D01*
X124042656Y-95779207D01*
X123838845Y-95631130D01*
X123614379Y-95516759D01*
X123614376Y-95516758D01*
X123614374Y-95516757D01*
X123374790Y-95438911D01*
X123374786Y-95438910D01*
X123374785Y-95438910D01*
X123125962Y-95399500D01*
X122874038Y-95399500D01*
X122625215Y-95438910D01*
X122625209Y-95438911D01*
X122385625Y-95516757D01*
X122385619Y-95516760D01*
X122161151Y-95631132D01*
X121957341Y-95779209D01*
X121957338Y-95779211D01*
X121779211Y-95957338D01*
X121779209Y-95957341D01*
X121631132Y-96161151D01*
X121516760Y-96385619D01*
X121516757Y-96385625D01*
X121438911Y-96625209D01*
X121438910Y-96625214D01*
X121438910Y-96625215D01*
X121399500Y-96874038D01*
X119025500Y-96874038D01*
X119025500Y-95262118D01*
X129901500Y-95262118D01*
X129901500Y-95441081D01*
X129936414Y-95616603D01*
X129942432Y-95631132D01*
X130004898Y-95781936D01*
X130104322Y-95930735D01*
X130230865Y-96057278D01*
X130379664Y-96156702D01*
X130545000Y-96225187D01*
X130720521Y-96260100D01*
X130720522Y-96260100D01*
X130899478Y-96260100D01*
X130899479Y-96260100D01*
X131075000Y-96225187D01*
X131240336Y-96156702D01*
X131389135Y-96057278D01*
X131515678Y-95930735D01*
X131615102Y-95781936D01*
X131683587Y-95616600D01*
X131718500Y-95441079D01*
X131718500Y-95262121D01*
X131683587Y-95086600D01*
X131615102Y-94921264D01*
X131515678Y-94772465D01*
X131389135Y-94645922D01*
X131240336Y-94546498D01*
X131123429Y-94498073D01*
X131075003Y-94478014D01*
X131075001Y-94478013D01*
X131075000Y-94478013D01*
X130986645Y-94460438D01*
X130899481Y-94443100D01*
X130899479Y-94443100D01*
X130720521Y-94443100D01*
X130720518Y-94443100D01*
X130589771Y-94469107D01*
X130545000Y-94478013D01*
X130544999Y-94478013D01*
X130544996Y-94478014D01*
X130413902Y-94532316D01*
X130382564Y-94545297D01*
X130379662Y-94546499D01*
X130230869Y-94645919D01*
X130230862Y-94645924D01*
X130104324Y-94772462D01*
X130104319Y-94772469D01*
X130014774Y-94906484D01*
X130004898Y-94921264D01*
X130000499Y-94931884D01*
X129936414Y-95086596D01*
X129936413Y-95086599D01*
X129936413Y-95086600D01*
X129927507Y-95131371D01*
X129901500Y-95262118D01*
X119025500Y-95262118D01*
X119025500Y-93433318D01*
X166325100Y-93433318D01*
X166325100Y-93433321D01*
X166325100Y-93612279D01*
X166360013Y-93787800D01*
X166428498Y-93953136D01*
X166527922Y-94101935D01*
X166654465Y-94228478D01*
X166803264Y-94327902D01*
X166968600Y-94396387D01*
X167144121Y-94431300D01*
X167144122Y-94431300D01*
X167323078Y-94431300D01*
X167323079Y-94431300D01*
X167498600Y-94396387D01*
X167663936Y-94327902D01*
X167812735Y-94228478D01*
X167939278Y-94101935D01*
X168038702Y-93953136D01*
X168107187Y-93787800D01*
X168142100Y-93612279D01*
X168142100Y-93433321D01*
X168107187Y-93257800D01*
X168038702Y-93092464D01*
X167939278Y-92943665D01*
X167812735Y-92817122D01*
X167663936Y-92717698D01*
X167547029Y-92669273D01*
X167498603Y-92649214D01*
X167498601Y-92649213D01*
X167498600Y-92649213D01*
X167410245Y-92631638D01*
X167323081Y-92614300D01*
X167323079Y-92614300D01*
X167144121Y-92614300D01*
X167144118Y-92614300D01*
X167013371Y-92640307D01*
X166968600Y-92649213D01*
X166968599Y-92649213D01*
X166968596Y-92649214D01*
X166803262Y-92717699D01*
X166654469Y-92817119D01*
X166654462Y-92817124D01*
X166527924Y-92943662D01*
X166527919Y-92943669D01*
X166428499Y-93092462D01*
X166360014Y-93257796D01*
X166325100Y-93433318D01*
X119025500Y-93433318D01*
X119025500Y-90817118D01*
X124440500Y-90817118D01*
X124440500Y-90817121D01*
X124440500Y-90996079D01*
X124475413Y-91171600D01*
X124543898Y-91336936D01*
X124643322Y-91485735D01*
X124769865Y-91612278D01*
X124918664Y-91711702D01*
X125084000Y-91780187D01*
X125259521Y-91815100D01*
X125259522Y-91815100D01*
X125438478Y-91815100D01*
X125438479Y-91815100D01*
X125614000Y-91780187D01*
X125779336Y-91711702D01*
X125928135Y-91612278D01*
X125935895Y-91604518D01*
X155377700Y-91604518D01*
X155377700Y-91783481D01*
X155383990Y-91815100D01*
X155412613Y-91959000D01*
X155481098Y-92124336D01*
X155580522Y-92273135D01*
X155707065Y-92399678D01*
X155855864Y-92499102D01*
X156021200Y-92567587D01*
X156196721Y-92602500D01*
X156196722Y-92602500D01*
X156375678Y-92602500D01*
X156375679Y-92602500D01*
X156551200Y-92567587D01*
X156716536Y-92499102D01*
X156865335Y-92399678D01*
X156991878Y-92273135D01*
X157091302Y-92124336D01*
X157159787Y-91959000D01*
X157194700Y-91783479D01*
X157194700Y-91604521D01*
X157159787Y-91429000D01*
X157091302Y-91263664D01*
X156991878Y-91114865D01*
X156865335Y-90988322D01*
X156716536Y-90888898D01*
X156599629Y-90840473D01*
X156551203Y-90820414D01*
X156551201Y-90820413D01*
X156551200Y-90820413D01*
X156453624Y-90801004D01*
X156375681Y-90785500D01*
X156375679Y-90785500D01*
X156196721Y-90785500D01*
X156196718Y-90785500D01*
X156065971Y-90811507D01*
X156021200Y-90820413D01*
X156021199Y-90820413D01*
X156021196Y-90820414D01*
X155890102Y-90874716D01*
X155877981Y-90879737D01*
X155855862Y-90888899D01*
X155707069Y-90988319D01*
X155707062Y-90988324D01*
X155580524Y-91114862D01*
X155580519Y-91114869D01*
X155481099Y-91263662D01*
X155412614Y-91428996D01*
X155377700Y-91604518D01*
X125935895Y-91604518D01*
X126054678Y-91485735D01*
X126154102Y-91336936D01*
X126222587Y-91171600D01*
X126257500Y-90996079D01*
X126257500Y-90817121D01*
X126222587Y-90641600D01*
X126154102Y-90476264D01*
X126054678Y-90327465D01*
X125928135Y-90200922D01*
X125779336Y-90101498D01*
X125662429Y-90053073D01*
X125614003Y-90033014D01*
X125614001Y-90033013D01*
X125614000Y-90033013D01*
X125525645Y-90015438D01*
X125438481Y-89998100D01*
X125438479Y-89998100D01*
X125259521Y-89998100D01*
X125259518Y-89998100D01*
X125134761Y-90022916D01*
X125084000Y-90033013D01*
X125083999Y-90033013D01*
X125083996Y-90033014D01*
X124918662Y-90101499D01*
X124769869Y-90200919D01*
X124769862Y-90200924D01*
X124643324Y-90327462D01*
X124643319Y-90327469D01*
X124543899Y-90476262D01*
X124475414Y-90641596D01*
X124440500Y-90817118D01*
X119025500Y-90817118D01*
X119025500Y-80851455D01*
X122199500Y-80851455D01*
X122199500Y-81548544D01*
X122237949Y-81741835D01*
X122237950Y-81741838D01*
X122286347Y-81858680D01*
X122313368Y-81923914D01*
X122422861Y-82087782D01*
X122562218Y-82227139D01*
X122726086Y-82336632D01*
X122908165Y-82412051D01*
X123101459Y-82450500D01*
X123298541Y-82450500D01*
X123491835Y-82412051D01*
X123673914Y-82336632D01*
X123837782Y-82227139D01*
X123977139Y-82087782D01*
X124086632Y-81923914D01*
X124162051Y-81741835D01*
X124200500Y-81548541D01*
X124200500Y-81101583D01*
X126349500Y-81101583D01*
X126349500Y-81298417D01*
X126380291Y-81492826D01*
X126441116Y-81680025D01*
X126522835Y-81840408D01*
X126530478Y-81855408D01*
X126646173Y-82014648D01*
X126785351Y-82153826D01*
X126876160Y-82219803D01*
X126944595Y-82269524D01*
X127119975Y-82358884D01*
X127307174Y-82419709D01*
X127501583Y-82450500D01*
X127501586Y-82450500D01*
X127698414Y-82450500D01*
X127698417Y-82450500D01*
X127892826Y-82419709D01*
X128080025Y-82358884D01*
X128255405Y-82269524D01*
X128414646Y-82153828D01*
X128553828Y-82014646D01*
X128669524Y-81855405D01*
X128758884Y-81680025D01*
X128819709Y-81492826D01*
X128850500Y-81298417D01*
X128850500Y-81101583D01*
X128819709Y-80907174D01*
X128758884Y-80719975D01*
X128669524Y-80544595D01*
X128613881Y-80468009D01*
X128553826Y-80385351D01*
X128414648Y-80246173D01*
X128255408Y-80130478D01*
X128255407Y-80130477D01*
X128255405Y-80130476D01*
X128080025Y-80041116D01*
X127892826Y-79980291D01*
X127698417Y-79949500D01*
X127501583Y-79949500D01*
X127307174Y-79980291D01*
X127307171Y-79980291D01*
X127307170Y-79980292D01*
X127217354Y-80009475D01*
X127119975Y-80041116D01*
X127119973Y-80041116D01*
X127119973Y-80041117D01*
X126944591Y-80130478D01*
X126785351Y-80246173D01*
X126646173Y-80385351D01*
X126530478Y-80544591D01*
X126530476Y-80544595D01*
X126441116Y-80719975D01*
X126434111Y-80741535D01*
X126396107Y-80858499D01*
X126380291Y-80907174D01*
X126349500Y-81101583D01*
X124200500Y-81101583D01*
X124200500Y-80851459D01*
X124162051Y-80658165D01*
X124086632Y-80476086D01*
X123977139Y-80312218D01*
X123837782Y-80172861D01*
X123673914Y-80063368D01*
X123620195Y-80041117D01*
X123491838Y-79987950D01*
X123491835Y-79987949D01*
X123298544Y-79949500D01*
X123298541Y-79949500D01*
X123101459Y-79949500D01*
X123101455Y-79949500D01*
X122908164Y-79987949D01*
X122908161Y-79987950D01*
X122726085Y-80063368D01*
X122562222Y-80172858D01*
X122562215Y-80172863D01*
X122422863Y-80312215D01*
X122422858Y-80312222D01*
X122313368Y-80476085D01*
X122237950Y-80658161D01*
X122237949Y-80658164D01*
X122199500Y-80851455D01*
X119025500Y-80851455D01*
X119025500Y-78040918D01*
X122179900Y-78040918D01*
X122179900Y-78219881D01*
X122193199Y-78286738D01*
X122214813Y-78395400D01*
X122283298Y-78560736D01*
X122382722Y-78709535D01*
X122509265Y-78836078D01*
X122658064Y-78935502D01*
X122823400Y-79003987D01*
X122998921Y-79038900D01*
X122998922Y-79038900D01*
X123177878Y-79038900D01*
X123177879Y-79038900D01*
X123353400Y-79003987D01*
X123518736Y-78935502D01*
X123667535Y-78836078D01*
X123794078Y-78709535D01*
X123893502Y-78560736D01*
X123961987Y-78395400D01*
X123996900Y-78219879D01*
X123996900Y-78040921D01*
X123965192Y-77881512D01*
X123965192Y-77881510D01*
X123961987Y-77865400D01*
X123961042Y-77863118D01*
X128199700Y-77863118D01*
X128199700Y-78042081D01*
X128214133Y-78114638D01*
X128234613Y-78217600D01*
X128303098Y-78382936D01*
X128402522Y-78531735D01*
X128529065Y-78658278D01*
X128677864Y-78757702D01*
X128843200Y-78826187D01*
X129018721Y-78861100D01*
X129018722Y-78861100D01*
X129197678Y-78861100D01*
X129197679Y-78861100D01*
X129373200Y-78826187D01*
X129538536Y-78757702D01*
X129687335Y-78658278D01*
X129813878Y-78531735D01*
X129913302Y-78382936D01*
X129981787Y-78217600D01*
X130016700Y-78042079D01*
X130016700Y-77863121D01*
X129981787Y-77687600D01*
X129913302Y-77522264D01*
X129813878Y-77373465D01*
X129687335Y-77246922D01*
X129538536Y-77147498D01*
X129421629Y-77099073D01*
X129373203Y-77079014D01*
X129373201Y-77079013D01*
X129373200Y-77079013D01*
X129284845Y-77061438D01*
X129197681Y-77044100D01*
X129197679Y-77044100D01*
X129018721Y-77044100D01*
X129018718Y-77044100D01*
X128904036Y-77066912D01*
X128843200Y-77079013D01*
X128843199Y-77079013D01*
X128843196Y-77079014D01*
X128677862Y-77147499D01*
X128529069Y-77246919D01*
X128529062Y-77246924D01*
X128402524Y-77373462D01*
X128402519Y-77373469D01*
X128303099Y-77522262D01*
X128234614Y-77687596D01*
X128199700Y-77863118D01*
X123961042Y-77863118D01*
X123953539Y-77845006D01*
X123893502Y-77700064D01*
X123794078Y-77551265D01*
X123667535Y-77424722D01*
X123518736Y-77325298D01*
X123401829Y-77276873D01*
X123353403Y-77256814D01*
X123353401Y-77256813D01*
X123353400Y-77256813D01*
X123265045Y-77239238D01*
X123177881Y-77221900D01*
X123177879Y-77221900D01*
X122998921Y-77221900D01*
X122998918Y-77221900D01*
X122873141Y-77246919D01*
X122823400Y-77256813D01*
X122823399Y-77256813D01*
X122823396Y-77256814D01*
X122658062Y-77325299D01*
X122509269Y-77424719D01*
X122509262Y-77424724D01*
X122382724Y-77551262D01*
X122382719Y-77551269D01*
X122283299Y-77700062D01*
X122214814Y-77865396D01*
X122179900Y-78040918D01*
X119025500Y-78040918D01*
X119025500Y-73240318D01*
X122205300Y-73240318D01*
X122205300Y-73419281D01*
X122215405Y-73470081D01*
X122240213Y-73594800D01*
X122308698Y-73760136D01*
X122408122Y-73908935D01*
X122534665Y-74035478D01*
X122683464Y-74134902D01*
X122848800Y-74203387D01*
X123024321Y-74238300D01*
X123024322Y-74238300D01*
X123203278Y-74238300D01*
X123203279Y-74238300D01*
X123378800Y-74203387D01*
X123544136Y-74134902D01*
X123692935Y-74035478D01*
X123819478Y-73908935D01*
X123918902Y-73760136D01*
X123987387Y-73594800D01*
X124022300Y-73419279D01*
X124022300Y-73291118D01*
X128174300Y-73291118D01*
X128174300Y-73291121D01*
X128174300Y-73470079D01*
X128209213Y-73645600D01*
X128277698Y-73810936D01*
X128377122Y-73959735D01*
X128503665Y-74086278D01*
X128652464Y-74185702D01*
X128817800Y-74254187D01*
X128993321Y-74289100D01*
X128993322Y-74289100D01*
X129172278Y-74289100D01*
X129172279Y-74289100D01*
X129347800Y-74254187D01*
X129513136Y-74185702D01*
X129661935Y-74086278D01*
X129788478Y-73959735D01*
X129887902Y-73810936D01*
X129956387Y-73645600D01*
X129991300Y-73470079D01*
X129991300Y-73291121D01*
X129956387Y-73115600D01*
X129887902Y-72950264D01*
X129788478Y-72801465D01*
X129661935Y-72674922D01*
X129513136Y-72575498D01*
X129390495Y-72524698D01*
X129347803Y-72507014D01*
X129347801Y-72507013D01*
X129347800Y-72507013D01*
X129259445Y-72489438D01*
X129172281Y-72472100D01*
X129172279Y-72472100D01*
X128993321Y-72472100D01*
X128993318Y-72472100D01*
X128862571Y-72498107D01*
X128817800Y-72507013D01*
X128817799Y-72507013D01*
X128817796Y-72507014D01*
X128652462Y-72575499D01*
X128503669Y-72674919D01*
X128503662Y-72674924D01*
X128377124Y-72801462D01*
X128377119Y-72801469D01*
X128277699Y-72950262D01*
X128209214Y-73115596D01*
X128209213Y-73115599D01*
X128209213Y-73115600D01*
X128200307Y-73160371D01*
X128174300Y-73291118D01*
X124022300Y-73291118D01*
X124022300Y-73240321D01*
X123987387Y-73064800D01*
X123918902Y-72899464D01*
X123819478Y-72750665D01*
X123692935Y-72624122D01*
X123544136Y-72524698D01*
X123417154Y-72472100D01*
X123378803Y-72456214D01*
X123378801Y-72456213D01*
X123378800Y-72456213D01*
X123290445Y-72438638D01*
X123203281Y-72421300D01*
X123203279Y-72421300D01*
X123024321Y-72421300D01*
X123024318Y-72421300D01*
X122893571Y-72447307D01*
X122848800Y-72456213D01*
X122848799Y-72456213D01*
X122848796Y-72456214D01*
X122683462Y-72524699D01*
X122534669Y-72624119D01*
X122534662Y-72624124D01*
X122408124Y-72750662D01*
X122408119Y-72750669D01*
X122374179Y-72801465D01*
X122308698Y-72899464D01*
X122301763Y-72916206D01*
X122240214Y-73064796D01*
X122205300Y-73240318D01*
X119025500Y-73240318D01*
X119025500Y-69374038D01*
X121399500Y-69374038D01*
X121399500Y-69625962D01*
X121438910Y-69874785D01*
X121438911Y-69874790D01*
X121509448Y-70091879D01*
X121516759Y-70114379D01*
X121631130Y-70338845D01*
X121779207Y-70542656D01*
X121779209Y-70542658D01*
X121779211Y-70542661D01*
X121957338Y-70720788D01*
X121957341Y-70720790D01*
X121957344Y-70720793D01*
X122161155Y-70868870D01*
X122385621Y-70983241D01*
X122625215Y-71061090D01*
X122874038Y-71100500D01*
X122874041Y-71100500D01*
X123125959Y-71100500D01*
X123125962Y-71100500D01*
X123374785Y-71061090D01*
X123614379Y-70983241D01*
X123838845Y-70868870D01*
X124042656Y-70720793D01*
X124220793Y-70542656D01*
X124368870Y-70338845D01*
X124483241Y-70114379D01*
X124561090Y-69874785D01*
X124600500Y-69625962D01*
X124600500Y-69374038D01*
X124578175Y-69233084D01*
X134941500Y-69233084D01*
X134941500Y-69446916D01*
X134973390Y-69648262D01*
X134974952Y-69658121D01*
X135025469Y-69813597D01*
X135041028Y-69861483D01*
X135138106Y-70052009D01*
X135263794Y-70225004D01*
X135263796Y-70225006D01*
X135263798Y-70225009D01*
X135414990Y-70376201D01*
X135414993Y-70376203D01*
X135414996Y-70376206D01*
X135587991Y-70501894D01*
X135587996Y-70501896D01*
X135589088Y-70502566D01*
X135589418Y-70502931D01*
X135591996Y-70504804D01*
X135591602Y-70505345D01*
X135636721Y-70555213D01*
X135648328Y-70625255D01*
X135620226Y-70690453D01*
X135591870Y-70715023D01*
X135591996Y-70715196D01*
X135589982Y-70716658D01*
X135589088Y-70717434D01*
X135587987Y-70718108D01*
X135414993Y-70843796D01*
X135414990Y-70843798D01*
X135263798Y-70994990D01*
X135263796Y-70994993D01*
X135138108Y-71167987D01*
X135041029Y-71358515D01*
X135041026Y-71358521D01*
X134974952Y-71561878D01*
X134974951Y-71561883D01*
X134974951Y-71561884D01*
X134941500Y-71773084D01*
X134941500Y-71986916D01*
X134974951Y-72198116D01*
X134974952Y-72198121D01*
X135041026Y-72401478D01*
X135041028Y-72401483D01*
X135138106Y-72592009D01*
X135263794Y-72765004D01*
X135263796Y-72765006D01*
X135263798Y-72765009D01*
X135414990Y-72916201D01*
X135414993Y-72916203D01*
X135414996Y-72916206D01*
X135587991Y-73041894D01*
X135587996Y-73041896D01*
X135589088Y-73042566D01*
X135589418Y-73042931D01*
X135591996Y-73044804D01*
X135591602Y-73045345D01*
X135636721Y-73095213D01*
X135648328Y-73165255D01*
X135620226Y-73230453D01*
X135591870Y-73255023D01*
X135591996Y-73255196D01*
X135589982Y-73256658D01*
X135589088Y-73257434D01*
X135587987Y-73258108D01*
X135414993Y-73383796D01*
X135414990Y-73383798D01*
X135263798Y-73534990D01*
X135263796Y-73534993D01*
X135138108Y-73707987D01*
X135041029Y-73898515D01*
X135041026Y-73898521D01*
X134974952Y-74101878D01*
X134974951Y-74101883D01*
X134974951Y-74101884D01*
X134941500Y-74313084D01*
X134941500Y-74526916D01*
X134974448Y-74734942D01*
X134974952Y-74738121D01*
X135034052Y-74920013D01*
X135041028Y-74941483D01*
X135138106Y-75132009D01*
X135263794Y-75305004D01*
X135263796Y-75305006D01*
X135263798Y-75305009D01*
X135414990Y-75456201D01*
X135414993Y-75456203D01*
X135414996Y-75456206D01*
X135587991Y-75581894D01*
X135587996Y-75581896D01*
X135589088Y-75582566D01*
X135589418Y-75582931D01*
X135591996Y-75584804D01*
X135591602Y-75585345D01*
X135636721Y-75635213D01*
X135648328Y-75705255D01*
X135620226Y-75770453D01*
X135591870Y-75795023D01*
X135591996Y-75795196D01*
X135589982Y-75796658D01*
X135589088Y-75797434D01*
X135587987Y-75798108D01*
X135414993Y-75923796D01*
X135414990Y-75923798D01*
X135263798Y-76074990D01*
X135263796Y-76074993D01*
X135138108Y-76247987D01*
X135041029Y-76438515D01*
X135041026Y-76438521D01*
X134974952Y-76641878D01*
X134974951Y-76641883D01*
X134974951Y-76641884D01*
X134941500Y-76853084D01*
X134941500Y-77066916D01*
X134970011Y-77246924D01*
X134974952Y-77278121D01*
X135035503Y-77464480D01*
X135041028Y-77481483D01*
X135135707Y-77667300D01*
X135138108Y-77672012D01*
X135158488Y-77700062D01*
X135263794Y-77845004D01*
X135263796Y-77845006D01*
X135263798Y-77845009D01*
X135366770Y-77947981D01*
X135400796Y-78010293D01*
X135395731Y-78081108D01*
X135353184Y-78137944D01*
X135321708Y-78155131D01*
X135203797Y-78199110D01*
X135203792Y-78199112D01*
X135086738Y-78286738D01*
X134999112Y-78403792D01*
X134999110Y-78403797D01*
X134948011Y-78540795D01*
X134948009Y-78540803D01*
X134941500Y-78601350D01*
X134941500Y-80398649D01*
X134948009Y-80459196D01*
X134948011Y-80459204D01*
X134999110Y-80596202D01*
X134999112Y-80596207D01*
X135086738Y-80713261D01*
X135203792Y-80800887D01*
X135203794Y-80800888D01*
X135203796Y-80800889D01*
X135262875Y-80822924D01*
X135340795Y-80851988D01*
X135340803Y-80851990D01*
X135401350Y-80858499D01*
X135401355Y-80858499D01*
X135401362Y-80858500D01*
X135401368Y-80858500D01*
X137198632Y-80858500D01*
X137198638Y-80858500D01*
X137198645Y-80858499D01*
X137198649Y-80858499D01*
X137259196Y-80851990D01*
X137259199Y-80851989D01*
X137259201Y-80851989D01*
X137269379Y-80848193D01*
X137278045Y-80844960D01*
X137396204Y-80800889D01*
X137475492Y-80741535D01*
X137513261Y-80713261D01*
X137600887Y-80596207D01*
X137600887Y-80596206D01*
X137600889Y-80596204D01*
X137645692Y-80476085D01*
X137651988Y-80459204D01*
X137651990Y-80459196D01*
X137658499Y-80398649D01*
X137658500Y-80398632D01*
X137658500Y-78601367D01*
X137658499Y-78601350D01*
X137651990Y-78540803D01*
X137651988Y-78540795D01*
X137600889Y-78403797D01*
X137600887Y-78403792D01*
X137513261Y-78286738D01*
X137396207Y-78199112D01*
X137396203Y-78199110D01*
X137278291Y-78155131D01*
X137221455Y-78112585D01*
X137196645Y-78046064D01*
X137211737Y-77976690D01*
X137233226Y-77947983D01*
X137336206Y-77845004D01*
X137461894Y-77672009D01*
X137558972Y-77481483D01*
X137625049Y-77278116D01*
X137658500Y-77066916D01*
X137658500Y-76853084D01*
X137625049Y-76641884D01*
X137558972Y-76438517D01*
X137497234Y-76317350D01*
X139611500Y-76317350D01*
X139611500Y-78114649D01*
X139618009Y-78175196D01*
X139618011Y-78175204D01*
X139669110Y-78312202D01*
X139669112Y-78312207D01*
X139756738Y-78429261D01*
X139873791Y-78516886D01*
X139873792Y-78516886D01*
X139873796Y-78516889D01*
X139991711Y-78560869D01*
X140048543Y-78603414D01*
X140073354Y-78669934D01*
X140058263Y-78739308D01*
X140036771Y-78768018D01*
X139933794Y-78870995D01*
X139808108Y-79043987D01*
X139711029Y-79234515D01*
X139711026Y-79234521D01*
X139644952Y-79437878D01*
X139644951Y-79437883D01*
X139644951Y-79437884D01*
X139611500Y-79649084D01*
X139611500Y-79862916D01*
X139643249Y-80063368D01*
X139644952Y-80074121D01*
X139704607Y-80257721D01*
X139711028Y-80277483D01*
X139803620Y-80459204D01*
X139808108Y-80468012D01*
X139813974Y-80476086D01*
X139933794Y-80641004D01*
X139933796Y-80641006D01*
X139933798Y-80641009D01*
X140084990Y-80792201D01*
X140084993Y-80792203D01*
X140084996Y-80792206D01*
X140257991Y-80917894D01*
X140257996Y-80917896D01*
X140259088Y-80918566D01*
X140259418Y-80918931D01*
X140261996Y-80920804D01*
X140261602Y-80921345D01*
X140306721Y-80971213D01*
X140318328Y-81041255D01*
X140290226Y-81106453D01*
X140261870Y-81131023D01*
X140261996Y-81131196D01*
X140259982Y-81132658D01*
X140259088Y-81133434D01*
X140257987Y-81134108D01*
X140084993Y-81259796D01*
X140084990Y-81259798D01*
X139933798Y-81410990D01*
X139933796Y-81410993D01*
X139808108Y-81583987D01*
X139711029Y-81774515D01*
X139711026Y-81774521D01*
X139644952Y-81977878D01*
X139644951Y-81977883D01*
X139644951Y-81977884D01*
X139611500Y-82189084D01*
X139611500Y-82402916D01*
X139644951Y-82614116D01*
X139644952Y-82614121D01*
X139704730Y-82798100D01*
X139711028Y-82817483D01*
X139808106Y-83008009D01*
X139933794Y-83181004D01*
X139933796Y-83181006D01*
X139933798Y-83181009D01*
X140084990Y-83332201D01*
X140084993Y-83332203D01*
X140084996Y-83332206D01*
X140257991Y-83457894D01*
X140257996Y-83457896D01*
X140259088Y-83458566D01*
X140259418Y-83458931D01*
X140261996Y-83460804D01*
X140261602Y-83461345D01*
X140306721Y-83511213D01*
X140318328Y-83581255D01*
X140290226Y-83646453D01*
X140261870Y-83671023D01*
X140261996Y-83671196D01*
X140259982Y-83672658D01*
X140259088Y-83673434D01*
X140257987Y-83674108D01*
X140084993Y-83799796D01*
X140084990Y-83799798D01*
X139933798Y-83950990D01*
X139933796Y-83950993D01*
X139808108Y-84123987D01*
X139711029Y-84314515D01*
X139711026Y-84314521D01*
X139644952Y-84517878D01*
X139644951Y-84517883D01*
X139644951Y-84517884D01*
X139611500Y-84729084D01*
X139611500Y-84942916D01*
X139644946Y-85154084D01*
X139644952Y-85154121D01*
X139707123Y-85345466D01*
X139711028Y-85357483D01*
X139808106Y-85548009D01*
X139933794Y-85721004D01*
X139933796Y-85721006D01*
X139933798Y-85721009D01*
X140084990Y-85872201D01*
X140084993Y-85872203D01*
X140084996Y-85872206D01*
X140257991Y-85997894D01*
X140257996Y-85997896D01*
X140259088Y-85998566D01*
X140259418Y-85998931D01*
X140261996Y-86000804D01*
X140261602Y-86001345D01*
X140306721Y-86051213D01*
X140318328Y-86121255D01*
X140290226Y-86186453D01*
X140261870Y-86211023D01*
X140261996Y-86211196D01*
X140259982Y-86212658D01*
X140259088Y-86213434D01*
X140257987Y-86214108D01*
X140084993Y-86339796D01*
X140084990Y-86339798D01*
X139933798Y-86490990D01*
X139933796Y-86490993D01*
X139808108Y-86663987D01*
X139711029Y-86854515D01*
X139711026Y-86854521D01*
X139644952Y-87057878D01*
X139644951Y-87057883D01*
X139644951Y-87057884D01*
X139611500Y-87269084D01*
X139611500Y-87482916D01*
X139644951Y-87694116D01*
X139644952Y-87694121D01*
X139708440Y-87889519D01*
X139711028Y-87897483D01*
X139808106Y-88088009D01*
X139808108Y-88088012D01*
X139812490Y-88094043D01*
X139933794Y-88261004D01*
X139933796Y-88261006D01*
X139933798Y-88261009D01*
X140084990Y-88412201D01*
X140084993Y-88412203D01*
X140084996Y-88412206D01*
X140257991Y-88537894D01*
X140257996Y-88537896D01*
X140259088Y-88538566D01*
X140259418Y-88538931D01*
X140261996Y-88540804D01*
X140261602Y-88541345D01*
X140306721Y-88591213D01*
X140318328Y-88661255D01*
X140290226Y-88726453D01*
X140261870Y-88751023D01*
X140261996Y-88751196D01*
X140259982Y-88752658D01*
X140259088Y-88753434D01*
X140257987Y-88754108D01*
X140084993Y-88879796D01*
X140084990Y-88879798D01*
X139933798Y-89030990D01*
X139933796Y-89030993D01*
X139808108Y-89203987D01*
X139711029Y-89394515D01*
X139711026Y-89394521D01*
X139644952Y-89597878D01*
X139644951Y-89597883D01*
X139644951Y-89597884D01*
X139611500Y-89809084D01*
X139611500Y-90022916D01*
X139637076Y-90184396D01*
X139644952Y-90234121D01*
X139703073Y-90413000D01*
X139711028Y-90437483D01*
X139808106Y-90628009D01*
X139808108Y-90628012D01*
X139817980Y-90641600D01*
X139933794Y-90801004D01*
X139933796Y-90801006D01*
X139933798Y-90801009D01*
X140084990Y-90952201D01*
X140084993Y-90952203D01*
X140084996Y-90952206D01*
X140257991Y-91077894D01*
X140448517Y-91174972D01*
X140651878Y-91241047D01*
X140651879Y-91241047D01*
X140651884Y-91241049D01*
X140863084Y-91274500D01*
X140863087Y-91274500D01*
X141076913Y-91274500D01*
X141076916Y-91274500D01*
X141288116Y-91241049D01*
X141491483Y-91174972D01*
X141682009Y-91077894D01*
X141855004Y-90952206D01*
X142006206Y-90801004D01*
X142131894Y-90628009D01*
X142228972Y-90437483D01*
X142254174Y-90359918D01*
X164140700Y-90359918D01*
X164140700Y-90538881D01*
X164158038Y-90626045D01*
X164175613Y-90714400D01*
X164244098Y-90879736D01*
X164343522Y-91028535D01*
X164470065Y-91155078D01*
X164618864Y-91254502D01*
X164784200Y-91322987D01*
X164959721Y-91357900D01*
X164959722Y-91357900D01*
X165138678Y-91357900D01*
X165138679Y-91357900D01*
X165314200Y-91322987D01*
X165479536Y-91254502D01*
X165628335Y-91155078D01*
X165754878Y-91028535D01*
X165854302Y-90879736D01*
X165922787Y-90714400D01*
X165947180Y-90591763D01*
X165947826Y-90588518D01*
X169652500Y-90588518D01*
X169652500Y-90767481D01*
X169663029Y-90820413D01*
X169687413Y-90943000D01*
X169755898Y-91108336D01*
X169855322Y-91257135D01*
X169981865Y-91383678D01*
X170130664Y-91483102D01*
X170296000Y-91551587D01*
X170471521Y-91586500D01*
X170471522Y-91586500D01*
X170650478Y-91586500D01*
X170650479Y-91586500D01*
X170826000Y-91551587D01*
X170991336Y-91483102D01*
X171140135Y-91383678D01*
X171266678Y-91257135D01*
X171366102Y-91108336D01*
X171434587Y-90943000D01*
X171469500Y-90767479D01*
X171469500Y-90588521D01*
X171434587Y-90413000D01*
X171366102Y-90247664D01*
X171266678Y-90098865D01*
X171140135Y-89972322D01*
X170991336Y-89872898D01*
X170837277Y-89809084D01*
X170826003Y-89804414D01*
X170826001Y-89804413D01*
X170826000Y-89804413D01*
X170737645Y-89786838D01*
X170650481Y-89769500D01*
X170650479Y-89769500D01*
X170471521Y-89769500D01*
X170471518Y-89769500D01*
X170340771Y-89795507D01*
X170296000Y-89804413D01*
X170295999Y-89804413D01*
X170295996Y-89804414D01*
X170130662Y-89872899D01*
X169981869Y-89972319D01*
X169981862Y-89972324D01*
X169855324Y-90098862D01*
X169855319Y-90098869D01*
X169755899Y-90247662D01*
X169687414Y-90412996D01*
X169652500Y-90588518D01*
X165947826Y-90588518D01*
X165953947Y-90557749D01*
X165953947Y-90557747D01*
X165957699Y-90538886D01*
X165957700Y-90538877D01*
X165957700Y-90359922D01*
X165957699Y-90359918D01*
X165922787Y-90184400D01*
X165854302Y-90019064D01*
X165754878Y-89870265D01*
X165628335Y-89743722D01*
X165479536Y-89644298D01*
X165362629Y-89595873D01*
X165314203Y-89575814D01*
X165314201Y-89575813D01*
X165314200Y-89575813D01*
X165225845Y-89558238D01*
X165138681Y-89540900D01*
X165138679Y-89540900D01*
X164959721Y-89540900D01*
X164959718Y-89540900D01*
X164828971Y-89566907D01*
X164784200Y-89575813D01*
X164784199Y-89575813D01*
X164784196Y-89575814D01*
X164618862Y-89644299D01*
X164470069Y-89743719D01*
X164470062Y-89743724D01*
X164343524Y-89870262D01*
X164343519Y-89870269D01*
X164257288Y-89999324D01*
X164244098Y-90019064D01*
X164238320Y-90033013D01*
X164175614Y-90184396D01*
X164140700Y-90359918D01*
X142254174Y-90359918D01*
X142295049Y-90234116D01*
X142328500Y-90022916D01*
X142328500Y-89809084D01*
X142295049Y-89597884D01*
X142228972Y-89394517D01*
X142131894Y-89203991D01*
X142006206Y-89030996D01*
X142006203Y-89030993D01*
X142006201Y-89030990D01*
X141855009Y-88879798D01*
X141855006Y-88879796D01*
X141855004Y-88879794D01*
X141682009Y-88754106D01*
X141682007Y-88754105D01*
X141680920Y-88753439D01*
X141680591Y-88753075D01*
X141678004Y-88751196D01*
X141678398Y-88750652D01*
X141633283Y-88700796D01*
X141621670Y-88630756D01*
X141649766Y-88565555D01*
X141678130Y-88540978D01*
X141678004Y-88540804D01*
X141680030Y-88539331D01*
X141680920Y-88538561D01*
X141681997Y-88537899D01*
X141682009Y-88537894D01*
X141855004Y-88412206D01*
X142006206Y-88261004D01*
X142131894Y-88088009D01*
X142228972Y-87897483D01*
X142295049Y-87694116D01*
X142328500Y-87482916D01*
X142328500Y-87269084D01*
X142295049Y-87057884D01*
X142228972Y-86854517D01*
X142131894Y-86663991D01*
X142006206Y-86490996D01*
X142006203Y-86490993D01*
X142006201Y-86490990D01*
X141855009Y-86339798D01*
X141855006Y-86339796D01*
X141855004Y-86339794D01*
X141682009Y-86214106D01*
X141682007Y-86214105D01*
X141680920Y-86213439D01*
X141680591Y-86213075D01*
X141678004Y-86211196D01*
X141678398Y-86210652D01*
X141633283Y-86160796D01*
X141621670Y-86090756D01*
X141649766Y-86025555D01*
X141678130Y-86000978D01*
X141678004Y-86000804D01*
X141680030Y-85999331D01*
X141680920Y-85998561D01*
X141681997Y-85997899D01*
X141682009Y-85997894D01*
X141855004Y-85872206D01*
X142006206Y-85721004D01*
X142131894Y-85548009D01*
X142228972Y-85357483D01*
X142295049Y-85154116D01*
X142323400Y-84975118D01*
X143922300Y-84975118D01*
X143922300Y-85154081D01*
X143930771Y-85196667D01*
X143951366Y-85300207D01*
X143957214Y-85329603D01*
X143968763Y-85357483D01*
X144025698Y-85494936D01*
X144125122Y-85643735D01*
X144251665Y-85770278D01*
X144400464Y-85869702D01*
X144565800Y-85938187D01*
X144741321Y-85973100D01*
X144741322Y-85973100D01*
X144920278Y-85973100D01*
X144920279Y-85973100D01*
X145095800Y-85938187D01*
X145261136Y-85869702D01*
X145409935Y-85770278D01*
X145536478Y-85643735D01*
X145635902Y-85494936D01*
X145704387Y-85329600D01*
X145710234Y-85300207D01*
X147686611Y-85300207D01*
X147686611Y-85479170D01*
X147692903Y-85510802D01*
X147721524Y-85654689D01*
X147790009Y-85820025D01*
X147889433Y-85968824D01*
X148015976Y-86095367D01*
X148164775Y-86194791D01*
X148330111Y-86263276D01*
X148505632Y-86298189D01*
X148505633Y-86298189D01*
X148684589Y-86298189D01*
X148684590Y-86298189D01*
X148860111Y-86263276D01*
X149025447Y-86194791D01*
X149174246Y-86095367D01*
X149300789Y-85968824D01*
X149400213Y-85820025D01*
X149424033Y-85762518D01*
X150780600Y-85762518D01*
X150780600Y-85941481D01*
X150791954Y-85998561D01*
X150811210Y-86095369D01*
X150815514Y-86117003D01*
X150817275Y-86121255D01*
X150883998Y-86282336D01*
X150983422Y-86431135D01*
X151109965Y-86557678D01*
X151109968Y-86557680D01*
X151221810Y-86632410D01*
X151267337Y-86686886D01*
X151276186Y-86757329D01*
X151266113Y-86787151D01*
X151267067Y-86787546D01*
X151264699Y-86793262D01*
X151264698Y-86793264D01*
X151243993Y-86843250D01*
X151196214Y-86958596D01*
X151161300Y-87134118D01*
X151161300Y-87134121D01*
X151161300Y-87313079D01*
X151195482Y-87484927D01*
X151196214Y-87488603D01*
X151208301Y-87517782D01*
X151264698Y-87653936D01*
X151364122Y-87802735D01*
X151490665Y-87929278D01*
X151639464Y-88028702D01*
X151701676Y-88054471D01*
X151756957Y-88099019D01*
X151779378Y-88166383D01*
X151777038Y-88195458D01*
X151770900Y-88226318D01*
X151770900Y-88405281D01*
X151778981Y-88445905D01*
X151805813Y-88580800D01*
X151874298Y-88746136D01*
X151973722Y-88894935D01*
X152100265Y-89021478D01*
X152249064Y-89120902D01*
X152414400Y-89189387D01*
X152589921Y-89224300D01*
X152589922Y-89224300D01*
X152768878Y-89224300D01*
X152768879Y-89224300D01*
X152944400Y-89189387D01*
X153109736Y-89120902D01*
X153258535Y-89021478D01*
X153385078Y-88894935D01*
X153484502Y-88746136D01*
X153552987Y-88580800D01*
X153567922Y-88505718D01*
X154158500Y-88505718D01*
X154158500Y-88684681D01*
X154171731Y-88751196D01*
X154193413Y-88860200D01*
X154261898Y-89025536D01*
X154361322Y-89174335D01*
X154487865Y-89300878D01*
X154636664Y-89400302D01*
X154802000Y-89468787D01*
X154977521Y-89503700D01*
X154977522Y-89503700D01*
X155156478Y-89503700D01*
X155156479Y-89503700D01*
X155332000Y-89468787D01*
X155497336Y-89400302D01*
X155646135Y-89300878D01*
X155684214Y-89262798D01*
X155746523Y-89228773D01*
X155817339Y-89233836D01*
X155821488Y-89235468D01*
X155894200Y-89265587D01*
X156069721Y-89300500D01*
X156069722Y-89300500D01*
X156248678Y-89300500D01*
X156248679Y-89300500D01*
X156424200Y-89265587D01*
X156589536Y-89197102D01*
X156738335Y-89097678D01*
X156864878Y-88971135D01*
X156964302Y-88822336D01*
X157021803Y-88683518D01*
X165969500Y-88683518D01*
X165969500Y-88862481D01*
X165972945Y-88879798D01*
X166004413Y-89038000D01*
X166072898Y-89203336D01*
X166172322Y-89352135D01*
X166298865Y-89478678D01*
X166447664Y-89578102D01*
X166613000Y-89646587D01*
X166788521Y-89681500D01*
X166788522Y-89681500D01*
X166967478Y-89681500D01*
X166967479Y-89681500D01*
X167143000Y-89646587D01*
X167308336Y-89578102D01*
X167457135Y-89478678D01*
X167583678Y-89352135D01*
X167683102Y-89203336D01*
X167751587Y-89038000D01*
X167786500Y-88862479D01*
X167786500Y-88683521D01*
X167751587Y-88508000D01*
X167683102Y-88342664D01*
X167583678Y-88193865D01*
X167457135Y-88067322D01*
X167428993Y-88048518D01*
X171481300Y-88048518D01*
X171481300Y-88048521D01*
X171481300Y-88227479D01*
X171507441Y-88358902D01*
X171516214Y-88403003D01*
X171526573Y-88428012D01*
X171584698Y-88568336D01*
X171684122Y-88717135D01*
X171810665Y-88843678D01*
X171959464Y-88943102D01*
X172124800Y-89011587D01*
X172300321Y-89046500D01*
X172300322Y-89046500D01*
X172479278Y-89046500D01*
X172479279Y-89046500D01*
X172654800Y-89011587D01*
X172820136Y-88943102D01*
X172968935Y-88843678D01*
X173095478Y-88717135D01*
X173144930Y-88643124D01*
X175833500Y-88643124D01*
X175833500Y-88924875D01*
X175865045Y-89204855D01*
X175927741Y-89479542D01*
X176020789Y-89745456D01*
X176020800Y-89745483D01*
X176143043Y-89999324D01*
X176292942Y-90237885D01*
X176468604Y-90458160D01*
X176667839Y-90657395D01*
X176888114Y-90833057D01*
X177126675Y-90982956D01*
X177126678Y-90982957D01*
X177126679Y-90982958D01*
X177380526Y-91105204D01*
X177380542Y-91105209D01*
X177380543Y-91105210D01*
X177646457Y-91198258D01*
X177646460Y-91198258D01*
X177646464Y-91198260D01*
X177921144Y-91260954D01*
X177921145Y-91260954D01*
X177921148Y-91260955D01*
X178086271Y-91279559D01*
X178201124Y-91292500D01*
X178201126Y-91292500D01*
X178482876Y-91292500D01*
X178553977Y-91284488D01*
X178762852Y-91260955D01*
X179037536Y-91198260D01*
X179303474Y-91105204D01*
X179557321Y-90982958D01*
X179795884Y-90833058D01*
X179878120Y-90767477D01*
X180016160Y-90657395D01*
X180215395Y-90458160D01*
X180391057Y-90237885D01*
X180393426Y-90234116D01*
X180540958Y-89999321D01*
X180663204Y-89745474D01*
X180756260Y-89479536D01*
X180818955Y-89204852D01*
X180848446Y-88943102D01*
X180850500Y-88924875D01*
X180850500Y-88643124D01*
X180838719Y-88538561D01*
X180818955Y-88363148D01*
X180756260Y-88088464D01*
X180744365Y-88054471D01*
X180663210Y-87822543D01*
X180663209Y-87822542D01*
X180663204Y-87822526D01*
X180540958Y-87568679D01*
X180540957Y-87568678D01*
X180540956Y-87568675D01*
X180391057Y-87330114D01*
X180215395Y-87109839D01*
X180016160Y-86910604D01*
X179795885Y-86734942D01*
X179557324Y-86585043D01*
X179303483Y-86462800D01*
X179303478Y-86462798D01*
X179303474Y-86462796D01*
X179303468Y-86462793D01*
X179303456Y-86462789D01*
X179037542Y-86369741D01*
X178762854Y-86307045D01*
X178762857Y-86307045D01*
X178482876Y-86275500D01*
X178482874Y-86275500D01*
X178201126Y-86275500D01*
X178201124Y-86275500D01*
X177921144Y-86307045D01*
X177646457Y-86369741D01*
X177380543Y-86462789D01*
X177380516Y-86462800D01*
X177126675Y-86585043D01*
X176888114Y-86734942D01*
X176667839Y-86910604D01*
X176468604Y-87109839D01*
X176292942Y-87330114D01*
X176143043Y-87568675D01*
X176020800Y-87822516D01*
X176020789Y-87822543D01*
X175927741Y-88088457D01*
X175865045Y-88363144D01*
X175833500Y-88643124D01*
X173144930Y-88643124D01*
X173194902Y-88568336D01*
X173263387Y-88403000D01*
X173298300Y-88227479D01*
X173298300Y-88048521D01*
X173263387Y-87873000D01*
X173194902Y-87707664D01*
X173095478Y-87558865D01*
X172968935Y-87432322D01*
X172820136Y-87332898D01*
X172666077Y-87269084D01*
X172654803Y-87264414D01*
X172654801Y-87264413D01*
X172654800Y-87264413D01*
X172566445Y-87246838D01*
X172479281Y-87229500D01*
X172479279Y-87229500D01*
X172300321Y-87229500D01*
X172300318Y-87229500D01*
X172169571Y-87255507D01*
X172124800Y-87264413D01*
X172124799Y-87264413D01*
X172124796Y-87264414D01*
X172007311Y-87313079D01*
X171966181Y-87330116D01*
X171959462Y-87332899D01*
X171810669Y-87432319D01*
X171810662Y-87432324D01*
X171684124Y-87558862D01*
X171684119Y-87558869D01*
X171598706Y-87686700D01*
X171584698Y-87707664D01*
X171572687Y-87736662D01*
X171516214Y-87872996D01*
X171481300Y-88048518D01*
X167428993Y-88048518D01*
X167308336Y-87967898D01*
X167191429Y-87919473D01*
X167143003Y-87899414D01*
X167143001Y-87899413D01*
X167143000Y-87899413D01*
X167054645Y-87881838D01*
X166967481Y-87864500D01*
X166967479Y-87864500D01*
X166788521Y-87864500D01*
X166788518Y-87864500D01*
X166662741Y-87889519D01*
X166613000Y-87899413D01*
X166612999Y-87899413D01*
X166612996Y-87899414D01*
X166447662Y-87967899D01*
X166298869Y-88067319D01*
X166298862Y-88067324D01*
X166172324Y-88193862D01*
X166172319Y-88193869D01*
X166072899Y-88342662D01*
X166004414Y-88507996D01*
X166004413Y-88507999D01*
X166004413Y-88508000D01*
X165998181Y-88539331D01*
X165969500Y-88683518D01*
X157021803Y-88683518D01*
X157032787Y-88657000D01*
X157058643Y-88527010D01*
X157091549Y-88464103D01*
X157153244Y-88428971D01*
X157157625Y-88428018D01*
X157160800Y-88427387D01*
X157326136Y-88358902D01*
X157474935Y-88259478D01*
X157601478Y-88132935D01*
X157700902Y-87984136D01*
X157769387Y-87818800D01*
X157804300Y-87643279D01*
X157804300Y-87464321D01*
X157769387Y-87288800D01*
X157700902Y-87123464D01*
X157601478Y-86974665D01*
X157474935Y-86848122D01*
X157326136Y-86748698D01*
X157209229Y-86700273D01*
X157160803Y-86680214D01*
X157160801Y-86680213D01*
X157160800Y-86680213D01*
X157072445Y-86662638D01*
X156985281Y-86645300D01*
X156985279Y-86645300D01*
X156806321Y-86645300D01*
X156806315Y-86645300D01*
X156670685Y-86672279D01*
X156599971Y-86665951D01*
X156543904Y-86622396D01*
X156520285Y-86555444D01*
X156536612Y-86486350D01*
X156557002Y-86459612D01*
X156661678Y-86354937D01*
X156761102Y-86206138D01*
X156787040Y-86143518D01*
X159644900Y-86143518D01*
X159644900Y-86322481D01*
X159654301Y-86369740D01*
X159679813Y-86498000D01*
X159748298Y-86663336D01*
X159847722Y-86812135D01*
X159974265Y-86938678D01*
X160123064Y-87038102D01*
X160288400Y-87106587D01*
X160463921Y-87141500D01*
X160463922Y-87141500D01*
X160642878Y-87141500D01*
X160642879Y-87141500D01*
X160818400Y-87106587D01*
X160983736Y-87038102D01*
X161132535Y-86938678D01*
X161259078Y-86812135D01*
X161358502Y-86663336D01*
X161426987Y-86498000D01*
X161461900Y-86322479D01*
X161461900Y-86143521D01*
X161426987Y-85968000D01*
X161358502Y-85802664D01*
X161259078Y-85653865D01*
X161132535Y-85527322D01*
X160983736Y-85427898D01*
X160866829Y-85379473D01*
X160818403Y-85359414D01*
X160818401Y-85359413D01*
X160818400Y-85359413D01*
X160730045Y-85341838D01*
X160642881Y-85324500D01*
X160642879Y-85324500D01*
X160463921Y-85324500D01*
X160463918Y-85324500D01*
X160333171Y-85350507D01*
X160288400Y-85359413D01*
X160288399Y-85359413D01*
X160288396Y-85359414D01*
X160123062Y-85427899D01*
X159974269Y-85527319D01*
X159974262Y-85527324D01*
X159847724Y-85653862D01*
X159847719Y-85653869D01*
X159748299Y-85802662D01*
X159679814Y-85967996D01*
X159679813Y-85967999D01*
X159679813Y-85968000D01*
X159673581Y-85999331D01*
X159644900Y-86143518D01*
X156787040Y-86143518D01*
X156809576Y-86089111D01*
X156809578Y-86089109D01*
X156829584Y-86040809D01*
X156829583Y-86040809D01*
X156829587Y-86040802D01*
X156864500Y-85865281D01*
X156864500Y-85686323D01*
X156829587Y-85510802D01*
X156761102Y-85345466D01*
X156661678Y-85196667D01*
X156535135Y-85070124D01*
X156386336Y-84970700D01*
X156269429Y-84922275D01*
X156221003Y-84902216D01*
X156221001Y-84902215D01*
X156221000Y-84902215D01*
X156128270Y-84883770D01*
X156045481Y-84867302D01*
X156045479Y-84867302D01*
X155866521Y-84867302D01*
X155866518Y-84867302D01*
X155735771Y-84893309D01*
X155691000Y-84902215D01*
X155690999Y-84902215D01*
X155690996Y-84902216D01*
X155525662Y-84970701D01*
X155376869Y-85070121D01*
X155376862Y-85070126D01*
X155250324Y-85196664D01*
X155250319Y-85196671D01*
X155152880Y-85342500D01*
X155150898Y-85345466D01*
X155136716Y-85379704D01*
X155082414Y-85510798D01*
X155047500Y-85686320D01*
X155047500Y-85865283D01*
X155048877Y-85872206D01*
X155082413Y-86040802D01*
X155150898Y-86206138D01*
X155250322Y-86354937D01*
X155376865Y-86481480D01*
X155525664Y-86580904D01*
X155691000Y-86649389D01*
X155866521Y-86684302D01*
X155866522Y-86684302D01*
X156045478Y-86684302D01*
X156045479Y-86684302D01*
X156181116Y-86657322D01*
X156251827Y-86663650D01*
X156307894Y-86707204D01*
X156331514Y-86774156D01*
X156315188Y-86843250D01*
X156294791Y-86869996D01*
X156190120Y-86974667D01*
X156190119Y-86974669D01*
X156090699Y-87123462D01*
X156022214Y-87288796D01*
X156022213Y-87288799D01*
X156022213Y-87288800D01*
X156013441Y-87332899D01*
X155996357Y-87418787D01*
X155963449Y-87481696D01*
X155901754Y-87516828D01*
X155897370Y-87517782D01*
X155894203Y-87518412D01*
X155894197Y-87518414D01*
X155728862Y-87586899D01*
X155580064Y-87686323D01*
X155580061Y-87686325D01*
X155541982Y-87724403D01*
X155479669Y-87758426D01*
X155408854Y-87753360D01*
X155404671Y-87751714D01*
X155332005Y-87721615D01*
X155332000Y-87721613D01*
X155156481Y-87686700D01*
X155156479Y-87686700D01*
X154977521Y-87686700D01*
X154977518Y-87686700D01*
X154846771Y-87712707D01*
X154802000Y-87721613D01*
X154801999Y-87721613D01*
X154801996Y-87721614D01*
X154713126Y-87758426D01*
X154651548Y-87783933D01*
X154636662Y-87790099D01*
X154487869Y-87889519D01*
X154487862Y-87889524D01*
X154361324Y-88016062D01*
X154361319Y-88016069D01*
X154261899Y-88164862D01*
X154193414Y-88330196D01*
X154158500Y-88505718D01*
X153567922Y-88505718D01*
X153587900Y-88405279D01*
X153587900Y-88226321D01*
X153552987Y-88050800D01*
X153484502Y-87885464D01*
X153385078Y-87736665D01*
X153258535Y-87610122D01*
X153121284Y-87518414D01*
X153109735Y-87510697D01*
X153109731Y-87510695D01*
X153047522Y-87484927D01*
X152992241Y-87440379D01*
X152969821Y-87373015D01*
X152972162Y-87343936D01*
X152974357Y-87332899D01*
X152978300Y-87313079D01*
X152978300Y-87134121D01*
X152943387Y-86958600D01*
X152874902Y-86793264D01*
X152775478Y-86644465D01*
X152648935Y-86517922D01*
X152537089Y-86443189D01*
X152491561Y-86388712D01*
X152482713Y-86318269D01*
X152492793Y-86288451D01*
X152491833Y-86288054D01*
X152494201Y-86282337D01*
X152494202Y-86282336D01*
X152562687Y-86117000D01*
X152597600Y-85941479D01*
X152597600Y-85762521D01*
X152562687Y-85587000D01*
X152494202Y-85421664D01*
X152394778Y-85272865D01*
X152268235Y-85146322D01*
X152119436Y-85046898D01*
X152002529Y-84998473D01*
X151954103Y-84978414D01*
X151954101Y-84978413D01*
X151954100Y-84978413D01*
X151858268Y-84959351D01*
X151778581Y-84943500D01*
X151778579Y-84943500D01*
X151599621Y-84943500D01*
X151599618Y-84943500D01*
X151468871Y-84969507D01*
X151424100Y-84978413D01*
X151424099Y-84978413D01*
X151424096Y-84978414D01*
X151258762Y-85046899D01*
X151109969Y-85146319D01*
X151109962Y-85146324D01*
X150983424Y-85272862D01*
X150983419Y-85272869D01*
X150883999Y-85421662D01*
X150815514Y-85586996D01*
X150780600Y-85762518D01*
X149424033Y-85762518D01*
X149468698Y-85654689D01*
X149503611Y-85479168D01*
X149503611Y-85300210D01*
X149468698Y-85124689D01*
X149400213Y-84959353D01*
X149300789Y-84810554D01*
X149174246Y-84684011D01*
X149025447Y-84584587D01*
X148908540Y-84536162D01*
X148860114Y-84516103D01*
X148860112Y-84516102D01*
X148860111Y-84516102D01*
X148771756Y-84498527D01*
X148684592Y-84481189D01*
X148684590Y-84481189D01*
X148505632Y-84481189D01*
X148505629Y-84481189D01*
X148374882Y-84507196D01*
X148330111Y-84516102D01*
X148330110Y-84516102D01*
X148330107Y-84516103D01*
X148164773Y-84584588D01*
X148015980Y-84684008D01*
X148015973Y-84684013D01*
X147889435Y-84810551D01*
X147889430Y-84810558D01*
X147796780Y-84949220D01*
X147790009Y-84959353D01*
X147784110Y-84973594D01*
X147721525Y-85124685D01*
X147686611Y-85300207D01*
X145710234Y-85300207D01*
X145739300Y-85154079D01*
X145739300Y-84975121D01*
X145704387Y-84799600D01*
X145635902Y-84634264D01*
X145536478Y-84485465D01*
X145409935Y-84358922D01*
X145261136Y-84259498D01*
X145144229Y-84211073D01*
X145095803Y-84191014D01*
X145095801Y-84191013D01*
X145095800Y-84191013D01*
X145007445Y-84173438D01*
X144920281Y-84156100D01*
X144920279Y-84156100D01*
X144741321Y-84156100D01*
X144741318Y-84156100D01*
X144610571Y-84182107D01*
X144565800Y-84191013D01*
X144565799Y-84191013D01*
X144565796Y-84191014D01*
X144400462Y-84259499D01*
X144251669Y-84358919D01*
X144251662Y-84358924D01*
X144125124Y-84485462D01*
X144125119Y-84485469D01*
X144025699Y-84634262D01*
X143957214Y-84799596D01*
X143922300Y-84975118D01*
X142323400Y-84975118D01*
X142328500Y-84942916D01*
X142328500Y-84729084D01*
X142295049Y-84517884D01*
X142228972Y-84314517D01*
X142131894Y-84123991D01*
X142006206Y-83950996D01*
X142006203Y-83950993D01*
X142006201Y-83950990D01*
X141855009Y-83799798D01*
X141855006Y-83799796D01*
X141855004Y-83799794D01*
X141682009Y-83674106D01*
X141682007Y-83674105D01*
X141680920Y-83673439D01*
X141680591Y-83673075D01*
X141678004Y-83671196D01*
X141678398Y-83670652D01*
X141633283Y-83620796D01*
X141621670Y-83550756D01*
X141649766Y-83485555D01*
X141678130Y-83460978D01*
X141678004Y-83460804D01*
X141680030Y-83459331D01*
X141680920Y-83458561D01*
X141681997Y-83457899D01*
X141682009Y-83457894D01*
X141855004Y-83332206D01*
X142006206Y-83181004D01*
X142131894Y-83008009D01*
X142152016Y-82968518D01*
X154768100Y-82968518D01*
X154768100Y-82968521D01*
X154768100Y-83147479D01*
X154803013Y-83323000D01*
X154871498Y-83488336D01*
X154970922Y-83637135D01*
X155097465Y-83763678D01*
X155246264Y-83863102D01*
X155411600Y-83931587D01*
X155587121Y-83966500D01*
X155587122Y-83966500D01*
X155766078Y-83966500D01*
X155766079Y-83966500D01*
X155941600Y-83931587D01*
X156106936Y-83863102D01*
X156255735Y-83763678D01*
X156382278Y-83637135D01*
X156481702Y-83488336D01*
X156550187Y-83323000D01*
X156585100Y-83147479D01*
X156585100Y-82968521D01*
X156550187Y-82793000D01*
X156481702Y-82627664D01*
X156382278Y-82478865D01*
X156255735Y-82352322D01*
X156106936Y-82252898D01*
X155952877Y-82189084D01*
X155941603Y-82184414D01*
X155941601Y-82184413D01*
X155941600Y-82184413D01*
X155853245Y-82166838D01*
X155766081Y-82149500D01*
X155766079Y-82149500D01*
X155587121Y-82149500D01*
X155587118Y-82149500D01*
X155456371Y-82175507D01*
X155411600Y-82184413D01*
X155411599Y-82184413D01*
X155411596Y-82184414D01*
X155246262Y-82252899D01*
X155097469Y-82352319D01*
X155097462Y-82352324D01*
X154970924Y-82478862D01*
X154970919Y-82478869D01*
X154893138Y-82595278D01*
X154871498Y-82627664D01*
X154860952Y-82653125D01*
X154803014Y-82792996D01*
X154768100Y-82968518D01*
X142152016Y-82968518D01*
X142228972Y-82817483D01*
X142295049Y-82614116D01*
X142328500Y-82402916D01*
X142328500Y-82189084D01*
X142295049Y-81977884D01*
X142237290Y-81800118D01*
X149230900Y-81800118D01*
X149230900Y-81979081D01*
X149237975Y-82014648D01*
X149265813Y-82154600D01*
X149334298Y-82319936D01*
X149433722Y-82468735D01*
X149560265Y-82595278D01*
X149709064Y-82694702D01*
X149874400Y-82763187D01*
X150049921Y-82798100D01*
X150049922Y-82798100D01*
X150228878Y-82798100D01*
X150228879Y-82798100D01*
X150404400Y-82763187D01*
X150569736Y-82694702D01*
X150718535Y-82595278D01*
X150845078Y-82468735D01*
X150944502Y-82319936D01*
X151012987Y-82154600D01*
X151047900Y-81979079D01*
X151047900Y-81800121D01*
X151012987Y-81624600D01*
X150944502Y-81459264D01*
X150845078Y-81310465D01*
X150718535Y-81183922D01*
X150569736Y-81084498D01*
X150519086Y-81063518D01*
X159771900Y-81063518D01*
X159771900Y-81242481D01*
X159785423Y-81310465D01*
X159806813Y-81418000D01*
X159875298Y-81583336D01*
X159974722Y-81732135D01*
X160101265Y-81858678D01*
X160250064Y-81958102D01*
X160415400Y-82026587D01*
X160590921Y-82061500D01*
X160590922Y-82061500D01*
X160769878Y-82061500D01*
X160769879Y-82061500D01*
X160945400Y-82026587D01*
X161110736Y-81958102D01*
X161259535Y-81858678D01*
X161386078Y-81732135D01*
X161485502Y-81583336D01*
X161553987Y-81418000D01*
X161588900Y-81242479D01*
X161588900Y-81063521D01*
X161553987Y-80888000D01*
X161485502Y-80722664D01*
X161386078Y-80573865D01*
X161259535Y-80447322D01*
X161110736Y-80347898D01*
X160985804Y-80296149D01*
X160945403Y-80279414D01*
X160945401Y-80279413D01*
X160945400Y-80279413D01*
X160836341Y-80257720D01*
X160769881Y-80244500D01*
X160769879Y-80244500D01*
X160590921Y-80244500D01*
X160590918Y-80244500D01*
X160460171Y-80270507D01*
X160415400Y-80279413D01*
X160415399Y-80279413D01*
X160415396Y-80279414D01*
X160250062Y-80347899D01*
X160101269Y-80447319D01*
X160101262Y-80447324D01*
X159974724Y-80573862D01*
X159974719Y-80573869D01*
X159877095Y-80719975D01*
X159875298Y-80722664D01*
X159861116Y-80756902D01*
X159806814Y-80887996D01*
X159806813Y-80887999D01*
X159806813Y-80888000D01*
X159800581Y-80919331D01*
X159771900Y-81063518D01*
X150519086Y-81063518D01*
X150428511Y-81026000D01*
X150404403Y-81016014D01*
X150404401Y-81016013D01*
X150404400Y-81016013D01*
X150316045Y-80998438D01*
X150228881Y-80981100D01*
X150228879Y-80981100D01*
X150049921Y-80981100D01*
X150049918Y-80981100D01*
X149919171Y-81007107D01*
X149874400Y-81016013D01*
X149874399Y-81016013D01*
X149874396Y-81016014D01*
X149759704Y-81063522D01*
X149718002Y-81080796D01*
X149709062Y-81084499D01*
X149560269Y-81183919D01*
X149560262Y-81183924D01*
X149433724Y-81310462D01*
X149433719Y-81310469D01*
X149334299Y-81459262D01*
X149265814Y-81624596D01*
X149230900Y-81800118D01*
X142237290Y-81800118D01*
X142228972Y-81774517D01*
X142131894Y-81583991D01*
X142006206Y-81410996D01*
X142006203Y-81410993D01*
X142006201Y-81410990D01*
X141855009Y-81259798D01*
X141855006Y-81259796D01*
X141855004Y-81259794D01*
X141682009Y-81134106D01*
X141682007Y-81134105D01*
X141680920Y-81133439D01*
X141680591Y-81133075D01*
X141678004Y-81131196D01*
X141678398Y-81130652D01*
X141633283Y-81080796D01*
X141621670Y-81010756D01*
X141649766Y-80945555D01*
X141678130Y-80920978D01*
X141678004Y-80920804D01*
X141680030Y-80919331D01*
X141680920Y-80918561D01*
X141681997Y-80917899D01*
X141682009Y-80917894D01*
X141855004Y-80792206D01*
X142006206Y-80641004D01*
X142131894Y-80468009D01*
X142228972Y-80277483D01*
X142295049Y-80074116D01*
X142295239Y-80072918D01*
X164826500Y-80072918D01*
X164826500Y-80251881D01*
X164835306Y-80296149D01*
X164858921Y-80414873D01*
X164861414Y-80427403D01*
X164874587Y-80459204D01*
X164929898Y-80592736D01*
X165029322Y-80741535D01*
X165155865Y-80868078D01*
X165304664Y-80967502D01*
X165470000Y-81035987D01*
X165645521Y-81070900D01*
X165645522Y-81070900D01*
X165824478Y-81070900D01*
X165824479Y-81070900D01*
X166000000Y-81035987D01*
X166165336Y-80967502D01*
X166314135Y-80868078D01*
X166440678Y-80741535D01*
X166540102Y-80592736D01*
X166608587Y-80427400D01*
X166628574Y-80326918D01*
X169550900Y-80326918D01*
X169550900Y-80505881D01*
X169564423Y-80573865D01*
X169585813Y-80681400D01*
X169654298Y-80846736D01*
X169753722Y-80995535D01*
X169880265Y-81122078D01*
X170029064Y-81221502D01*
X170194400Y-81289987D01*
X170369921Y-81324900D01*
X170369922Y-81324900D01*
X170548878Y-81324900D01*
X170548879Y-81324900D01*
X170724400Y-81289987D01*
X170889736Y-81221502D01*
X171038535Y-81122078D01*
X171165078Y-80995535D01*
X171264502Y-80846736D01*
X171331351Y-80685350D01*
X172173500Y-80685350D01*
X172173500Y-82382649D01*
X172180009Y-82443196D01*
X172180011Y-82443204D01*
X172231110Y-82580202D01*
X172231112Y-82580207D01*
X172318738Y-82697261D01*
X172435792Y-82784887D01*
X172435794Y-82784888D01*
X172435796Y-82784889D01*
X172471213Y-82798099D01*
X172576076Y-82837212D01*
X172632912Y-82879759D01*
X172657722Y-82946279D01*
X172642630Y-83015653D01*
X172621139Y-83044362D01*
X172483932Y-83181569D01*
X172362873Y-83348193D01*
X172269367Y-83531708D01*
X172269364Y-83531714D01*
X172205721Y-83727587D01*
X172205720Y-83727590D01*
X172205720Y-83727592D01*
X172173500Y-83931019D01*
X172173500Y-84136981D01*
X172201620Y-84314521D01*
X172205721Y-84340412D01*
X172263385Y-84517884D01*
X172269366Y-84536290D01*
X172362871Y-84719803D01*
X172483932Y-84886430D01*
X172483934Y-84886432D01*
X172483936Y-84886435D01*
X172629564Y-85032063D01*
X172629567Y-85032065D01*
X172629570Y-85032068D01*
X172796197Y-85153129D01*
X172979710Y-85246634D01*
X173175592Y-85310280D01*
X173379019Y-85342500D01*
X173379022Y-85342500D01*
X173584978Y-85342500D01*
X173584981Y-85342500D01*
X173788408Y-85310280D01*
X173984290Y-85246634D01*
X174167803Y-85153129D01*
X174334430Y-85032068D01*
X174334435Y-85032063D01*
X174392905Y-84973594D01*
X174455217Y-84939568D01*
X174526032Y-84944633D01*
X174571095Y-84973594D01*
X174629564Y-85032063D01*
X174629567Y-85032065D01*
X174629570Y-85032068D01*
X174796197Y-85153129D01*
X174979710Y-85246634D01*
X175175592Y-85310280D01*
X175379019Y-85342500D01*
X175379022Y-85342500D01*
X175584978Y-85342500D01*
X175584981Y-85342500D01*
X175788408Y-85310280D01*
X175984290Y-85246634D01*
X176167803Y-85153129D01*
X176334430Y-85032068D01*
X176480068Y-84886430D01*
X176601129Y-84719803D01*
X176694634Y-84536290D01*
X176758280Y-84340408D01*
X176790500Y-84136981D01*
X176790500Y-83931019D01*
X176758280Y-83727592D01*
X176694634Y-83531710D01*
X176601129Y-83348197D01*
X176480068Y-83181570D01*
X176480065Y-83181567D01*
X176480063Y-83181564D01*
X176334435Y-83035936D01*
X176334432Y-83035934D01*
X176334430Y-83035932D01*
X176167803Y-82914871D01*
X176131289Y-82896266D01*
X176079674Y-82847519D01*
X176062608Y-82778605D01*
X176085508Y-82711403D01*
X176131288Y-82671733D01*
X176167803Y-82653129D01*
X176334430Y-82532068D01*
X176480068Y-82386430D01*
X176601129Y-82219803D01*
X176694634Y-82036290D01*
X176758280Y-81840408D01*
X176790500Y-81636981D01*
X176790500Y-81431019D01*
X176758280Y-81227592D01*
X176694634Y-81031710D01*
X176601129Y-80848197D01*
X176480068Y-80681570D01*
X176480065Y-80681567D01*
X176480063Y-80681564D01*
X176334435Y-80535936D01*
X176334432Y-80535934D01*
X176334430Y-80535932D01*
X176167803Y-80414871D01*
X175984290Y-80321366D01*
X175984287Y-80321365D01*
X175984285Y-80321364D01*
X175788412Y-80257721D01*
X175788410Y-80257720D01*
X175788408Y-80257720D01*
X175584981Y-80225500D01*
X175379019Y-80225500D01*
X175175592Y-80257720D01*
X175175590Y-80257720D01*
X175175587Y-80257721D01*
X174979714Y-80321364D01*
X174979708Y-80321367D01*
X174805358Y-80410203D01*
X174735581Y-80423307D01*
X174669796Y-80396607D01*
X174647287Y-80373445D01*
X174645261Y-80370738D01*
X174528207Y-80283112D01*
X174528202Y-80283110D01*
X174391204Y-80232011D01*
X174391196Y-80232009D01*
X174330649Y-80225500D01*
X174330638Y-80225500D01*
X172633362Y-80225500D01*
X172633350Y-80225500D01*
X172572803Y-80232009D01*
X172572795Y-80232011D01*
X172435797Y-80283110D01*
X172435792Y-80283112D01*
X172318738Y-80370738D01*
X172231112Y-80487792D01*
X172231110Y-80487797D01*
X172180011Y-80624795D01*
X172180009Y-80624803D01*
X172173500Y-80685350D01*
X171331351Y-80685350D01*
X171332987Y-80681400D01*
X171367900Y-80505879D01*
X171367900Y-80326921D01*
X171332987Y-80151400D01*
X171264502Y-79986064D01*
X171165078Y-79837265D01*
X171038535Y-79710722D01*
X170889736Y-79611298D01*
X170772829Y-79562873D01*
X170724403Y-79542814D01*
X170724401Y-79542813D01*
X170724400Y-79542813D01*
X170636045Y-79525238D01*
X170548881Y-79507900D01*
X170548879Y-79507900D01*
X170369921Y-79507900D01*
X170369918Y-79507900D01*
X170239171Y-79533907D01*
X170194400Y-79542813D01*
X170194399Y-79542813D01*
X170194396Y-79542814D01*
X170029062Y-79611299D01*
X169880269Y-79710719D01*
X169880262Y-79710724D01*
X169753724Y-79837262D01*
X169753719Y-79837269D01*
X169654299Y-79986062D01*
X169585814Y-80151396D01*
X169550900Y-80326918D01*
X166628574Y-80326918D01*
X166643500Y-80251879D01*
X166643500Y-80072921D01*
X166608587Y-79897400D01*
X166540102Y-79732064D01*
X166440678Y-79583265D01*
X166314135Y-79456722D01*
X166165336Y-79357298D01*
X166048429Y-79308873D01*
X166000003Y-79288814D01*
X166000001Y-79288813D01*
X166000000Y-79288813D01*
X165911645Y-79271238D01*
X165824481Y-79253900D01*
X165824479Y-79253900D01*
X165645521Y-79253900D01*
X165645518Y-79253900D01*
X165514771Y-79279907D01*
X165470000Y-79288813D01*
X165469999Y-79288813D01*
X165469996Y-79288814D01*
X165304662Y-79357299D01*
X165155869Y-79456719D01*
X165155862Y-79456724D01*
X165029324Y-79583262D01*
X165029319Y-79583269D01*
X164929899Y-79732062D01*
X164861414Y-79897396D01*
X164826500Y-80072918D01*
X142295239Y-80072918D01*
X142328500Y-79862916D01*
X142328500Y-79649084D01*
X142295049Y-79437884D01*
X142228972Y-79234517D01*
X142131894Y-79043991D01*
X142006206Y-78870996D01*
X142006203Y-78870993D01*
X142006201Y-78870990D01*
X141903229Y-78768018D01*
X141869203Y-78705706D01*
X141874268Y-78634891D01*
X141916815Y-78578055D01*
X141948284Y-78560871D01*
X142066204Y-78516889D01*
X142183261Y-78429261D01*
X142270889Y-78312204D01*
X142321989Y-78175201D01*
X142325995Y-78137944D01*
X142328499Y-78114649D01*
X142328500Y-78114632D01*
X142328500Y-76317367D01*
X142328499Y-76317350D01*
X142321990Y-76256803D01*
X142321988Y-76256795D01*
X142270889Y-76119797D01*
X142270887Y-76119792D01*
X142183261Y-76002738D01*
X142066207Y-75915112D01*
X142066202Y-75915110D01*
X141929204Y-75864011D01*
X141929196Y-75864009D01*
X141868649Y-75857500D01*
X141868638Y-75857500D01*
X140071362Y-75857500D01*
X140071350Y-75857500D01*
X140010803Y-75864009D01*
X140010795Y-75864011D01*
X139873797Y-75915110D01*
X139873792Y-75915112D01*
X139756738Y-76002738D01*
X139669112Y-76119792D01*
X139669110Y-76119797D01*
X139618011Y-76256795D01*
X139618009Y-76256803D01*
X139611500Y-76317350D01*
X137497234Y-76317350D01*
X137461894Y-76247991D01*
X137336206Y-76074996D01*
X137336203Y-76074993D01*
X137336201Y-76074990D01*
X137185009Y-75923798D01*
X137185006Y-75923796D01*
X137185004Y-75923794D01*
X137012009Y-75798106D01*
X137010703Y-75797440D01*
X137006252Y-75794436D01*
X136985313Y-75769141D01*
X136963283Y-75744796D01*
X136962812Y-75741960D01*
X136960980Y-75739746D01*
X136957039Y-75707142D01*
X136956538Y-75704118D01*
X153447300Y-75704118D01*
X153447300Y-75883081D01*
X153455399Y-75923796D01*
X153481123Y-76053122D01*
X153482214Y-76058603D01*
X153494580Y-76088457D01*
X153550698Y-76223936D01*
X153650122Y-76372735D01*
X153776665Y-76499278D01*
X153925464Y-76598702D01*
X154090800Y-76667187D01*
X154266321Y-76702100D01*
X154266322Y-76702100D01*
X154445278Y-76702100D01*
X154445279Y-76702100D01*
X154610087Y-76669318D01*
X162921500Y-76669318D01*
X162921500Y-76848281D01*
X162956414Y-77023803D01*
X162974271Y-77066912D01*
X163024898Y-77189136D01*
X163124322Y-77337935D01*
X163250865Y-77464478D01*
X163399664Y-77563902D01*
X163565000Y-77632387D01*
X163740521Y-77667300D01*
X163740522Y-77667300D01*
X163919478Y-77667300D01*
X163919479Y-77667300D01*
X164095000Y-77632387D01*
X164260336Y-77563902D01*
X164409135Y-77464478D01*
X164535678Y-77337935D01*
X164635102Y-77189136D01*
X164703587Y-77023800D01*
X164738500Y-76848279D01*
X164738500Y-76669321D01*
X164733289Y-76643124D01*
X175833500Y-76643124D01*
X175833500Y-76924875D01*
X175865045Y-77204855D01*
X175927741Y-77479542D01*
X176020789Y-77745456D01*
X176020800Y-77745483D01*
X176143043Y-77999324D01*
X176292942Y-78237885D01*
X176468604Y-78458160D01*
X176667839Y-78657395D01*
X176888114Y-78833057D01*
X177126675Y-78982956D01*
X177126678Y-78982957D01*
X177126679Y-78982958D01*
X177380526Y-79105204D01*
X177380542Y-79105209D01*
X177380543Y-79105210D01*
X177646457Y-79198258D01*
X177646460Y-79198258D01*
X177646464Y-79198260D01*
X177921144Y-79260954D01*
X177921145Y-79260954D01*
X177921148Y-79260955D01*
X178086271Y-79279559D01*
X178201124Y-79292500D01*
X178201126Y-79292500D01*
X178482876Y-79292500D01*
X178553977Y-79284488D01*
X178762852Y-79260955D01*
X179037536Y-79198260D01*
X179303474Y-79105204D01*
X179557321Y-78982958D01*
X179795884Y-78833058D01*
X179950775Y-78709537D01*
X180016160Y-78657395D01*
X180215395Y-78458160D01*
X180391057Y-78237885D01*
X180402373Y-78219877D01*
X180540958Y-77999321D01*
X180663204Y-77745474D01*
X180741309Y-77522264D01*
X180756258Y-77479542D01*
X180756258Y-77479541D01*
X180756260Y-77479536D01*
X180818955Y-77204852D01*
X180850500Y-76924874D01*
X180850500Y-76643126D01*
X180850359Y-76641878D01*
X180834292Y-76499275D01*
X180818955Y-76363148D01*
X180756260Y-76088464D01*
X180751547Y-76074996D01*
X180663210Y-75822543D01*
X180663209Y-75822542D01*
X180663204Y-75822526D01*
X180540958Y-75568679D01*
X180540957Y-75568678D01*
X180540956Y-75568675D01*
X180391057Y-75330114D01*
X180215395Y-75109839D01*
X180016160Y-74910604D01*
X179795885Y-74734942D01*
X179557324Y-74585043D01*
X179303483Y-74462800D01*
X179303478Y-74462798D01*
X179303474Y-74462796D01*
X179303468Y-74462793D01*
X179303456Y-74462789D01*
X179037542Y-74369741D01*
X178762854Y-74307045D01*
X178762857Y-74307045D01*
X178482876Y-74275500D01*
X178482874Y-74275500D01*
X178201126Y-74275500D01*
X178201124Y-74275500D01*
X177921144Y-74307045D01*
X177646457Y-74369741D01*
X177380543Y-74462789D01*
X177380516Y-74462800D01*
X177126675Y-74585043D01*
X176888114Y-74734942D01*
X176667839Y-74910604D01*
X176468604Y-75109839D01*
X176292942Y-75330114D01*
X176143043Y-75568675D01*
X176020800Y-75822516D01*
X176020789Y-75822543D01*
X175927741Y-76088457D01*
X175865045Y-76363144D01*
X175833500Y-76643124D01*
X164733289Y-76643124D01*
X164703587Y-76493800D01*
X164635102Y-76328464D01*
X164535678Y-76179665D01*
X164409135Y-76053122D01*
X164260336Y-75953698D01*
X164143429Y-75905273D01*
X164095003Y-75885214D01*
X164095001Y-75885213D01*
X164095000Y-75885213D01*
X164006645Y-75867638D01*
X163919481Y-75850300D01*
X163919479Y-75850300D01*
X163740521Y-75850300D01*
X163740518Y-75850300D01*
X163609771Y-75876307D01*
X163565000Y-75885213D01*
X163564999Y-75885213D01*
X163564996Y-75885214D01*
X163399662Y-75953699D01*
X163250869Y-76053119D01*
X163250862Y-76053124D01*
X163124324Y-76179662D01*
X163124319Y-76179669D01*
X163024899Y-76328462D01*
X162956414Y-76493796D01*
X162956413Y-76493799D01*
X162956413Y-76493800D01*
X162955323Y-76499280D01*
X162921500Y-76669318D01*
X154610087Y-76669318D01*
X154620800Y-76667187D01*
X154786136Y-76598702D01*
X154934935Y-76499278D01*
X155061478Y-76372735D01*
X155160902Y-76223936D01*
X155229387Y-76058600D01*
X155264300Y-75883079D01*
X155264300Y-75704121D01*
X155229387Y-75528600D01*
X155160902Y-75363264D01*
X155061478Y-75214465D01*
X154934935Y-75087922D01*
X154786136Y-74988498D01*
X154669229Y-74940073D01*
X154620803Y-74920014D01*
X154620801Y-74920013D01*
X154620800Y-74920013D01*
X154532445Y-74902438D01*
X154445281Y-74885100D01*
X154445279Y-74885100D01*
X154266321Y-74885100D01*
X154266318Y-74885100D01*
X154135571Y-74911107D01*
X154090800Y-74920013D01*
X154090799Y-74920013D01*
X154090796Y-74920014D01*
X153925462Y-74988499D01*
X153776669Y-75087919D01*
X153776662Y-75087924D01*
X153650124Y-75214462D01*
X153650119Y-75214469D01*
X153550699Y-75363262D01*
X153482214Y-75528596D01*
X153447300Y-75704118D01*
X136956538Y-75704118D01*
X136951670Y-75674756D01*
X136952807Y-75672117D01*
X136952462Y-75669262D01*
X136966773Y-75639706D01*
X136979766Y-75609555D01*
X136982534Y-75607155D01*
X136983403Y-75605363D01*
X136987480Y-75602870D01*
X137008130Y-75584978D01*
X137008004Y-75584804D01*
X137010030Y-75583331D01*
X137010920Y-75582561D01*
X137011997Y-75581899D01*
X137012009Y-75581894D01*
X137185004Y-75456206D01*
X137336206Y-75305004D01*
X137461894Y-75132009D01*
X137558972Y-74941483D01*
X137625049Y-74738116D01*
X137658500Y-74526916D01*
X137658500Y-74313084D01*
X137625049Y-74101884D01*
X137558972Y-73898517D01*
X137461894Y-73707991D01*
X137336206Y-73534996D01*
X137336203Y-73534993D01*
X137336201Y-73534990D01*
X137185009Y-73383798D01*
X137185006Y-73383796D01*
X137185004Y-73383794D01*
X137012009Y-73258106D01*
X137012007Y-73258105D01*
X137010920Y-73257439D01*
X137010591Y-73257075D01*
X137008004Y-73255196D01*
X137008398Y-73254652D01*
X136963283Y-73204796D01*
X136951670Y-73134756D01*
X136979766Y-73069555D01*
X137008130Y-73044978D01*
X137008004Y-73044804D01*
X137010030Y-73043331D01*
X137010920Y-73042561D01*
X137011997Y-73041899D01*
X137012009Y-73041894D01*
X137185004Y-72916206D01*
X137336206Y-72765004D01*
X137461894Y-72592009D01*
X137558972Y-72401483D01*
X137625049Y-72198116D01*
X137658500Y-71986916D01*
X137658500Y-71773084D01*
X137625049Y-71561884D01*
X137558972Y-71358517D01*
X137461894Y-71167991D01*
X137336206Y-70994996D01*
X137336203Y-70994993D01*
X137336201Y-70994990D01*
X137185009Y-70843798D01*
X137185006Y-70843796D01*
X137185004Y-70843794D01*
X137054781Y-70749182D01*
X137012012Y-70718108D01*
X137010920Y-70717439D01*
X137010591Y-70717075D01*
X137008004Y-70715196D01*
X137008398Y-70714652D01*
X136963283Y-70664796D01*
X136951670Y-70594756D01*
X136979766Y-70529555D01*
X137008130Y-70504978D01*
X137008004Y-70504804D01*
X137010030Y-70503331D01*
X137010920Y-70502561D01*
X137011997Y-70501899D01*
X137012009Y-70501894D01*
X137185004Y-70376206D01*
X137336206Y-70225004D01*
X137461894Y-70052009D01*
X137493939Y-69989118D01*
X154133100Y-69989118D01*
X154133100Y-69989121D01*
X154133100Y-70168079D01*
X154168013Y-70343600D01*
X154236498Y-70508936D01*
X154335922Y-70657735D01*
X154462465Y-70784278D01*
X154611264Y-70883702D01*
X154776600Y-70952187D01*
X154952121Y-70987100D01*
X154952122Y-70987100D01*
X155131078Y-70987100D01*
X155131079Y-70987100D01*
X155306600Y-70952187D01*
X155471936Y-70883702D01*
X155620735Y-70784278D01*
X155747278Y-70657735D01*
X155846702Y-70508936D01*
X155915187Y-70343600D01*
X155950100Y-70168079D01*
X155950100Y-69989121D01*
X155934942Y-69912918D01*
X161854700Y-69912918D01*
X161854700Y-70091881D01*
X161869857Y-70168077D01*
X161889613Y-70267400D01*
X161958098Y-70432736D01*
X162057522Y-70581535D01*
X162184065Y-70708078D01*
X162332864Y-70807502D01*
X162498200Y-70875987D01*
X162673721Y-70910900D01*
X162673722Y-70910900D01*
X162852678Y-70910900D01*
X162852679Y-70910900D01*
X163028200Y-70875987D01*
X163193536Y-70807502D01*
X163342335Y-70708078D01*
X163468878Y-70581535D01*
X163568302Y-70432736D01*
X163636787Y-70267400D01*
X163671700Y-70091879D01*
X163671700Y-69912921D01*
X163636787Y-69737400D01*
X163568302Y-69572064D01*
X163468878Y-69423265D01*
X163419651Y-69374038D01*
X175399500Y-69374038D01*
X175399500Y-69625962D01*
X175438910Y-69874785D01*
X175438911Y-69874790D01*
X175509448Y-70091879D01*
X175516759Y-70114379D01*
X175631130Y-70338845D01*
X175779207Y-70542656D01*
X175779209Y-70542658D01*
X175779211Y-70542661D01*
X175957338Y-70720788D01*
X175957341Y-70720790D01*
X175957344Y-70720793D01*
X176161155Y-70868870D01*
X176385621Y-70983241D01*
X176625215Y-71061090D01*
X176874038Y-71100500D01*
X176874041Y-71100500D01*
X177125959Y-71100500D01*
X177125962Y-71100500D01*
X177374785Y-71061090D01*
X177614379Y-70983241D01*
X177838845Y-70868870D01*
X178042656Y-70720793D01*
X178220793Y-70542656D01*
X178368870Y-70338845D01*
X178483241Y-70114379D01*
X178561090Y-69874785D01*
X178600500Y-69625962D01*
X178600500Y-69374038D01*
X178561090Y-69125215D01*
X178483241Y-68885621D01*
X178368870Y-68661155D01*
X178220793Y-68457344D01*
X178220790Y-68457341D01*
X178220788Y-68457338D01*
X178042661Y-68279211D01*
X178042658Y-68279209D01*
X178042656Y-68279207D01*
X177838845Y-68131130D01*
X177614379Y-68016759D01*
X177614376Y-68016758D01*
X177614374Y-68016757D01*
X177374790Y-67938911D01*
X177374786Y-67938910D01*
X177374785Y-67938910D01*
X177125962Y-67899500D01*
X176874038Y-67899500D01*
X176625215Y-67938910D01*
X176625209Y-67938911D01*
X176385625Y-68016757D01*
X176385619Y-68016760D01*
X176161151Y-68131132D01*
X175957341Y-68279209D01*
X175957338Y-68279211D01*
X175779211Y-68457338D01*
X175779209Y-68457341D01*
X175631132Y-68661151D01*
X175516760Y-68885619D01*
X175516757Y-68885625D01*
X175438911Y-69125209D01*
X175438910Y-69125214D01*
X175438910Y-69125215D01*
X175399500Y-69374038D01*
X163419651Y-69374038D01*
X163342335Y-69296722D01*
X163193536Y-69197298D01*
X163076629Y-69148873D01*
X163028203Y-69128814D01*
X163028201Y-69128813D01*
X163028200Y-69128813D01*
X162939845Y-69111238D01*
X162852681Y-69093900D01*
X162852679Y-69093900D01*
X162673721Y-69093900D01*
X162673718Y-69093900D01*
X162542971Y-69119907D01*
X162498200Y-69128813D01*
X162498199Y-69128813D01*
X162498196Y-69128814D01*
X162332862Y-69197299D01*
X162184069Y-69296719D01*
X162184062Y-69296724D01*
X162057524Y-69423262D01*
X162057519Y-69423269D01*
X161958099Y-69572062D01*
X161889614Y-69737396D01*
X161854700Y-69912918D01*
X155934942Y-69912918D01*
X155915187Y-69813600D01*
X155915185Y-69813596D01*
X155903435Y-69785228D01*
X155846702Y-69648264D01*
X155747278Y-69499465D01*
X155620735Y-69372922D01*
X155471936Y-69273498D01*
X155355029Y-69225073D01*
X155306603Y-69205014D01*
X155306601Y-69205013D01*
X155306600Y-69205013D01*
X155218245Y-69187438D01*
X155131081Y-69170100D01*
X155131079Y-69170100D01*
X154952121Y-69170100D01*
X154952118Y-69170100D01*
X154821371Y-69196107D01*
X154776600Y-69205013D01*
X154776599Y-69205013D01*
X154776596Y-69205014D01*
X154611262Y-69273499D01*
X154462469Y-69372919D01*
X154462462Y-69372924D01*
X154335924Y-69499462D01*
X154335919Y-69499469D01*
X154236499Y-69648262D01*
X154168014Y-69813596D01*
X154133100Y-69989118D01*
X137493939Y-69989118D01*
X137558972Y-69861483D01*
X137625049Y-69658116D01*
X137658500Y-69446916D01*
X137658500Y-69233084D01*
X137625049Y-69021884D01*
X137558972Y-68818517D01*
X137461894Y-68627991D01*
X137336206Y-68454996D01*
X137336203Y-68454993D01*
X137336201Y-68454990D01*
X137185009Y-68303798D01*
X137185006Y-68303796D01*
X137185004Y-68303794D01*
X137012009Y-68178106D01*
X136821483Y-68081028D01*
X136821480Y-68081027D01*
X136821478Y-68081026D01*
X136618120Y-68014952D01*
X136618123Y-68014952D01*
X136578801Y-68008724D01*
X136406916Y-67981500D01*
X136193084Y-67981500D01*
X135981884Y-68014951D01*
X135981878Y-68014952D01*
X135778521Y-68081026D01*
X135778515Y-68081029D01*
X135587987Y-68178108D01*
X135414993Y-68303796D01*
X135414990Y-68303798D01*
X135263798Y-68454990D01*
X135263796Y-68454993D01*
X135138108Y-68627987D01*
X135041029Y-68818515D01*
X135041026Y-68818521D01*
X134974952Y-69021878D01*
X134974951Y-69021883D01*
X134974951Y-69021884D01*
X134941500Y-69233084D01*
X124578175Y-69233084D01*
X124561090Y-69125215D01*
X124483241Y-68885621D01*
X124368870Y-68661155D01*
X124220793Y-68457344D01*
X124220790Y-68457341D01*
X124220788Y-68457338D01*
X124042661Y-68279211D01*
X124042658Y-68279209D01*
X124042656Y-68279207D01*
X123838845Y-68131130D01*
X123614379Y-68016759D01*
X123614376Y-68016758D01*
X123614374Y-68016757D01*
X123374790Y-67938911D01*
X123374786Y-67938910D01*
X123374785Y-67938910D01*
X123125962Y-67899500D01*
X122874038Y-67899500D01*
X122625215Y-67938910D01*
X122625209Y-67938911D01*
X122385625Y-68016757D01*
X122385619Y-68016760D01*
X122161151Y-68131132D01*
X121957341Y-68279209D01*
X121957338Y-68279211D01*
X121779211Y-68457338D01*
X121779209Y-68457341D01*
X121631132Y-68661151D01*
X121516760Y-68885619D01*
X121516757Y-68885625D01*
X121438911Y-69125209D01*
X121438910Y-69125214D01*
X121438910Y-69125215D01*
X121399500Y-69374038D01*
X119025500Y-69374038D01*
X119025500Y-65851500D01*
X119045502Y-65783379D01*
X119099158Y-65736886D01*
X119151500Y-65725500D01*
X181848500Y-65725500D01*
X181916621Y-65745502D01*
G37*
%TD.AperFunction*%
%TD*%
M02*
