%TF.GenerationSoftware,KiCad,Pcbnew,8.0.5+1*%
%TF.CreationDate,2024-10-28T12:47:09+00:00*%
%TF.ProjectId,t1,74312e6b-6963-4616-945f-706362585858,${git_hash}*%
%TF.SameCoordinates,Original*%
%TF.FileFunction,OtherDrawing,Comment*%
%FSLAX46Y46*%
G04 Gerber Fmt 4.6, Leading zero omitted, Abs format (unit mm)*
G04 Created by KiCad (PCBNEW 8.0.5+1) date 2024-10-28 12:47:09*
%MOMM*%
%LPD*%
G01*
G04 APERTURE LIST*
%ADD10C,0.150000*%
G04 APERTURE END LIST*
D10*
X117645535Y-78825572D02*
X117645553Y-79444620D01*
X117645553Y-79444620D02*
X117264591Y-79111297D01*
X117264591Y-79111297D02*
X117264595Y-79254154D01*
X117264595Y-79254154D02*
X117216979Y-79349394D01*
X117216979Y-79349394D02*
X117169361Y-79397014D01*
X117169361Y-79397014D02*
X117074124Y-79444636D01*
X117074124Y-79444636D02*
X116836029Y-79444643D01*
X116836029Y-79444643D02*
X116740790Y-79397026D01*
X116740790Y-79397026D02*
X116693169Y-79349409D01*
X116693169Y-79349409D02*
X116645547Y-79254172D01*
X116645547Y-79254172D02*
X116645539Y-78968458D01*
X116645539Y-78968458D02*
X116693156Y-78873218D01*
X116693156Y-78873218D02*
X116740774Y-78825598D01*
X117645578Y-80349382D02*
X117645565Y-79873191D01*
X117645565Y-79873191D02*
X117169373Y-79825586D01*
X117169373Y-79825586D02*
X117216993Y-79873203D01*
X117216993Y-79873203D02*
X117264615Y-79968440D01*
X117264615Y-79968440D02*
X117264622Y-80206535D01*
X117264622Y-80206535D02*
X117217005Y-80301775D01*
X117217005Y-80301775D02*
X117169388Y-80349395D01*
X117169388Y-80349395D02*
X117074151Y-80397017D01*
X117074151Y-80397017D02*
X116836056Y-80397024D01*
X116836056Y-80397024D02*
X116740816Y-80349407D01*
X116740816Y-80349407D02*
X116693196Y-80301790D01*
X116693196Y-80301790D02*
X116645574Y-80206553D01*
X116645574Y-80206553D02*
X116645568Y-79968458D01*
X116645568Y-79968458D02*
X116693184Y-79873218D01*
X116693184Y-79873218D02*
X116740802Y-79825598D01*
X116740830Y-80825598D02*
X116693212Y-80873218D01*
X116693212Y-80873218D02*
X116645592Y-80825601D01*
X116645592Y-80825601D02*
X116693209Y-80777980D01*
X116693209Y-80777980D02*
X116740830Y-80825598D01*
X116740830Y-80825598D02*
X116645592Y-80825601D01*
X117645617Y-81730334D02*
X117645612Y-81539858D01*
X117645612Y-81539858D02*
X117597990Y-81444621D01*
X117597990Y-81444621D02*
X117550370Y-81397003D01*
X117550370Y-81397003D02*
X117407510Y-81301769D01*
X117407510Y-81301769D02*
X117217032Y-81254155D01*
X117217032Y-81254155D02*
X116836080Y-81254166D01*
X116836080Y-81254166D02*
X116740843Y-81301788D01*
X116740843Y-81301788D02*
X116693225Y-81349408D01*
X116693225Y-81349408D02*
X116645609Y-81444648D01*
X116645609Y-81444648D02*
X116645614Y-81635124D01*
X116645614Y-81635124D02*
X116693236Y-81730361D01*
X116693236Y-81730361D02*
X116740856Y-81777978D01*
X116740856Y-81777978D02*
X116836096Y-81825595D01*
X116836096Y-81825595D02*
X117074191Y-81825588D01*
X117074191Y-81825588D02*
X117169428Y-81777966D01*
X117169428Y-81777966D02*
X117217046Y-81730346D01*
X117217046Y-81730346D02*
X117264662Y-81635106D01*
X117264662Y-81635106D02*
X117264657Y-81444630D01*
X117264657Y-81444630D02*
X117217035Y-81349394D01*
X117217035Y-81349394D02*
X117169414Y-81301776D01*
X117169414Y-81301776D02*
X117074175Y-81254159D01*
X116645646Y-82777981D02*
X116645630Y-82206552D01*
X116645638Y-82492267D02*
X117645638Y-82492239D01*
X117645638Y-82492239D02*
X117502779Y-82397005D01*
X117502779Y-82397005D02*
X117407538Y-82301769D01*
X117407538Y-82301769D02*
X117359916Y-82206532D01*
X117645672Y-83682715D02*
X117645658Y-83206524D01*
X117645658Y-83206524D02*
X117169467Y-83158919D01*
X117169467Y-83158919D02*
X117217087Y-83206536D01*
X117217087Y-83206536D02*
X117264709Y-83301773D01*
X117264709Y-83301773D02*
X117264715Y-83539868D01*
X117264715Y-83539868D02*
X117217099Y-83635108D01*
X117217099Y-83635108D02*
X117169481Y-83682728D01*
X117169481Y-83682728D02*
X117074245Y-83730350D01*
X117074245Y-83730350D02*
X116836149Y-83730357D01*
X116836149Y-83730357D02*
X116740910Y-83682740D01*
X116740910Y-83682740D02*
X116693290Y-83635123D01*
X116693290Y-83635123D02*
X116645668Y-83539886D01*
X116645668Y-83539886D02*
X116645661Y-83301791D01*
X116645661Y-83301791D02*
X116693277Y-83206551D01*
X116693277Y-83206551D02*
X116740895Y-83158931D01*
X117645697Y-84587477D02*
X117645692Y-84397001D01*
X117645692Y-84397001D02*
X117598070Y-84301764D01*
X117598070Y-84301764D02*
X117550450Y-84254146D01*
X117550450Y-84254146D02*
X117407590Y-84158912D01*
X117407590Y-84158912D02*
X117217112Y-84111298D01*
X117217112Y-84111298D02*
X116836160Y-84111309D01*
X116836160Y-84111309D02*
X116740923Y-84158931D01*
X116740923Y-84158931D02*
X116693306Y-84206551D01*
X116693306Y-84206551D02*
X116645689Y-84301791D01*
X116645689Y-84301791D02*
X116645695Y-84492267D01*
X116645695Y-84492267D02*
X116693316Y-84587504D01*
X116693316Y-84587504D02*
X116740937Y-84635121D01*
X116740937Y-84635121D02*
X116836176Y-84682738D01*
X116836176Y-84682738D02*
X117074271Y-84682731D01*
X117074271Y-84682731D02*
X117169508Y-84635109D01*
X117169508Y-84635109D02*
X117217126Y-84587489D01*
X117217126Y-84587489D02*
X117264742Y-84492249D01*
X117264742Y-84492249D02*
X117264737Y-84301773D01*
X117264737Y-84301773D02*
X117217115Y-84206537D01*
X117217115Y-84206537D02*
X117169495Y-84158919D01*
X117169495Y-84158919D02*
X117074255Y-84111302D01*
X116645733Y-85873220D02*
X117312400Y-85873201D01*
X117217162Y-85873203D02*
X117264782Y-85920821D01*
X117264782Y-85920821D02*
X117312404Y-86016058D01*
X117312404Y-86016058D02*
X117312408Y-86158915D01*
X117312408Y-86158915D02*
X117264792Y-86254155D01*
X117264792Y-86254155D02*
X117169555Y-86301776D01*
X117169555Y-86301776D02*
X116645745Y-86301791D01*
X117169555Y-86301776D02*
X117264794Y-86349393D01*
X117264794Y-86349393D02*
X117312416Y-86444629D01*
X117312416Y-86444629D02*
X117312420Y-86587487D01*
X117312420Y-86587487D02*
X117264804Y-86682726D01*
X117264804Y-86682726D02*
X117169567Y-86730348D01*
X117169567Y-86730348D02*
X116645757Y-86730362D01*
X116645771Y-87206553D02*
X117312437Y-87206534D01*
X117217199Y-87206536D02*
X117264820Y-87254154D01*
X117264820Y-87254154D02*
X117312441Y-87349391D01*
X117312441Y-87349391D02*
X117312445Y-87492248D01*
X117312445Y-87492248D02*
X117264829Y-87587488D01*
X117264829Y-87587488D02*
X117169592Y-87635109D01*
X117169592Y-87635109D02*
X116645783Y-87635124D01*
X117169592Y-87635109D02*
X117264832Y-87682726D01*
X117264832Y-87682726D02*
X117312453Y-87777962D01*
X117312453Y-87777962D02*
X117312457Y-87920820D01*
X117312457Y-87920820D02*
X117264841Y-88016059D01*
X117264841Y-88016059D02*
X117169604Y-88063681D01*
X117169604Y-88063681D02*
X116645795Y-88063695D01*
X119000000Y-101300000D02*
X115364566Y-101300102D01*
X118999000Y-65684400D02*
X115363566Y-65684502D01*
X115950986Y-101300086D02*
X115949986Y-65684486D01*
X115950986Y-101300086D02*
X115949986Y-65684486D01*
X115950986Y-101300086D02*
X115364534Y-100173599D01*
X115950986Y-101300086D02*
X116537375Y-100173566D01*
X115949986Y-65684486D02*
X116536438Y-66810973D01*
X115949986Y-65684486D02*
X115363597Y-66811006D01*
X146357541Y-62065568D02*
X146167065Y-62065521D01*
X146167065Y-62065521D02*
X146071815Y-62113116D01*
X146071815Y-62113116D02*
X146024184Y-62160723D01*
X146024184Y-62160723D02*
X145928911Y-62303557D01*
X145928911Y-62303557D02*
X145881245Y-62494021D01*
X145881245Y-62494021D02*
X145881150Y-62874974D01*
X145881150Y-62874974D02*
X145928746Y-62970223D01*
X145928746Y-62970223D02*
X145976353Y-63017854D01*
X145976353Y-63017854D02*
X146071579Y-63065497D01*
X146071579Y-63065497D02*
X146262056Y-63065544D01*
X146262056Y-63065544D02*
X146357305Y-63017949D01*
X146357305Y-63017949D02*
X146404936Y-62970341D01*
X146404936Y-62970341D02*
X146452579Y-62875115D01*
X146452579Y-62875115D02*
X146452638Y-62637020D01*
X146452638Y-62637020D02*
X146405042Y-62541770D01*
X146405042Y-62541770D02*
X146357435Y-62494139D01*
X146357435Y-62494139D02*
X146262209Y-62446497D01*
X146262209Y-62446497D02*
X146071733Y-62446449D01*
X146071733Y-62446449D02*
X145976483Y-62494045D01*
X145976483Y-62494045D02*
X145928852Y-62541652D01*
X145928852Y-62541652D02*
X145881209Y-62636878D01*
X146786113Y-62065674D02*
X147405160Y-62065827D01*
X147405160Y-62065827D02*
X147071733Y-62446697D01*
X147071733Y-62446697D02*
X147214590Y-62446732D01*
X147214590Y-62446732D02*
X147309816Y-62494375D01*
X147309816Y-62494375D02*
X147357423Y-62542006D01*
X147357423Y-62542006D02*
X147405019Y-62637256D01*
X147405019Y-62637256D02*
X147404960Y-62875351D01*
X147404960Y-62875351D02*
X147357317Y-62970577D01*
X147357317Y-62970577D02*
X147309686Y-63018184D01*
X147309686Y-63018184D02*
X147214437Y-63065780D01*
X147214437Y-63065780D02*
X146928722Y-63065709D01*
X146928722Y-63065709D02*
X146833496Y-63018067D01*
X146833496Y-63018067D02*
X146785889Y-62970436D01*
X147833508Y-62970695D02*
X147881115Y-63018326D01*
X147881115Y-63018326D02*
X147833484Y-63065933D01*
X147833484Y-63065933D02*
X147785877Y-63018302D01*
X147785877Y-63018302D02*
X147833508Y-62970695D01*
X147833508Y-62970695D02*
X147833484Y-63065933D01*
X148500398Y-62066098D02*
X148595636Y-62066122D01*
X148595636Y-62066122D02*
X148690862Y-62113765D01*
X148690862Y-62113765D02*
X148738470Y-62161395D01*
X148738470Y-62161395D02*
X148786065Y-62256645D01*
X148786065Y-62256645D02*
X148833637Y-62447133D01*
X148833637Y-62447133D02*
X148833578Y-62685228D01*
X148833578Y-62685228D02*
X148785912Y-62875693D01*
X148785912Y-62875693D02*
X148738269Y-62970919D01*
X148738269Y-62970919D02*
X148690638Y-63018526D01*
X148690638Y-63018526D02*
X148595388Y-63066122D01*
X148595388Y-63066122D02*
X148500150Y-63066098D01*
X148500150Y-63066098D02*
X148404924Y-63018456D01*
X148404924Y-63018456D02*
X148357317Y-62970825D01*
X148357317Y-62970825D02*
X148309721Y-62875575D01*
X148309721Y-62875575D02*
X148262149Y-62685087D01*
X148262149Y-62685087D02*
X148262208Y-62446992D01*
X148262208Y-62446992D02*
X148309875Y-62256527D01*
X148309875Y-62256527D02*
X148357517Y-62161301D01*
X148357517Y-62161301D02*
X148405148Y-62113694D01*
X148405148Y-62113694D02*
X148500398Y-62066098D01*
X149452779Y-62066334D02*
X149548017Y-62066358D01*
X149548017Y-62066358D02*
X149643243Y-62114000D01*
X149643243Y-62114000D02*
X149690851Y-62161631D01*
X149690851Y-62161631D02*
X149738446Y-62256881D01*
X149738446Y-62256881D02*
X149786018Y-62447369D01*
X149786018Y-62447369D02*
X149785959Y-62685464D01*
X149785959Y-62685464D02*
X149738293Y-62875929D01*
X149738293Y-62875929D02*
X149690650Y-62971155D01*
X149690650Y-62971155D02*
X149643019Y-63018762D01*
X149643019Y-63018762D02*
X149547769Y-63066358D01*
X149547769Y-63066358D02*
X149452531Y-63066334D01*
X149452531Y-63066334D02*
X149357305Y-63018691D01*
X149357305Y-63018691D02*
X149309698Y-62971061D01*
X149309698Y-62971061D02*
X149262102Y-62875811D01*
X149262102Y-62875811D02*
X149214530Y-62685323D01*
X149214530Y-62685323D02*
X149214589Y-62447228D01*
X149214589Y-62447228D02*
X149262256Y-62256763D01*
X149262256Y-62256763D02*
X149309898Y-62161537D01*
X149309898Y-62161537D02*
X149357529Y-62113930D01*
X149357529Y-62113930D02*
X149452779Y-62066334D01*
X150738246Y-63066652D02*
X150166817Y-63066511D01*
X150452531Y-63066582D02*
X150452779Y-62066582D01*
X150452779Y-62066582D02*
X150357506Y-62209415D01*
X150357506Y-62209415D02*
X150262244Y-62304630D01*
X150262244Y-62304630D02*
X150166994Y-62352225D01*
X151357541Y-62066806D02*
X151452779Y-62066829D01*
X151452779Y-62066829D02*
X151548005Y-62114472D01*
X151548005Y-62114472D02*
X151595613Y-62162103D01*
X151595613Y-62162103D02*
X151643208Y-62257353D01*
X151643208Y-62257353D02*
X151690780Y-62447841D01*
X151690780Y-62447841D02*
X151690721Y-62685936D01*
X151690721Y-62685936D02*
X151643055Y-62876400D01*
X151643055Y-62876400D02*
X151595412Y-62971627D01*
X151595412Y-62971627D02*
X151547781Y-63019234D01*
X151547781Y-63019234D02*
X151452531Y-63066829D01*
X151452531Y-63066829D02*
X151357293Y-63066806D01*
X151357293Y-63066806D02*
X151262067Y-63019163D01*
X151262067Y-63019163D02*
X151214460Y-62971532D01*
X151214460Y-62971532D02*
X151166864Y-62876282D01*
X151166864Y-62876282D02*
X151119292Y-62685794D01*
X151119292Y-62685794D02*
X151119351Y-62447699D01*
X151119351Y-62447699D02*
X151167018Y-62257235D01*
X151167018Y-62257235D02*
X151214660Y-62162009D01*
X151214660Y-62162009D02*
X151262291Y-62114401D01*
X151262291Y-62114401D02*
X151357541Y-62066806D01*
X152881103Y-63067183D02*
X152881268Y-62400516D01*
X152881245Y-62495755D02*
X152928875Y-62448147D01*
X152928875Y-62448147D02*
X153024125Y-62400552D01*
X153024125Y-62400552D02*
X153166982Y-62400587D01*
X153166982Y-62400587D02*
X153262209Y-62448230D01*
X153262209Y-62448230D02*
X153309804Y-62543480D01*
X153309804Y-62543480D02*
X153309674Y-63067289D01*
X153309804Y-62543480D02*
X153357447Y-62448253D01*
X153357447Y-62448253D02*
X153452697Y-62400658D01*
X153452697Y-62400658D02*
X153595554Y-62400693D01*
X153595554Y-62400693D02*
X153690780Y-62448336D01*
X153690780Y-62448336D02*
X153738376Y-62543586D01*
X153738376Y-62543586D02*
X153738246Y-63067395D01*
X154214436Y-63067513D02*
X154214601Y-62400847D01*
X154214577Y-62496085D02*
X154262208Y-62448477D01*
X154262208Y-62448477D02*
X154357458Y-62400882D01*
X154357458Y-62400882D02*
X154500315Y-62400917D01*
X154500315Y-62400917D02*
X154595542Y-62448560D01*
X154595542Y-62448560D02*
X154643137Y-62543810D01*
X154643137Y-62543810D02*
X154643007Y-63067619D01*
X154643137Y-62543810D02*
X154690780Y-62448584D01*
X154690780Y-62448584D02*
X154786030Y-62400988D01*
X154786030Y-62400988D02*
X154928887Y-62401023D01*
X154928887Y-62401023D02*
X155024113Y-62448666D01*
X155024113Y-62448666D02*
X155071709Y-62543916D01*
X155071709Y-62543916D02*
X155071579Y-63067725D01*
X118999000Y-65684400D02*
X118999623Y-63167555D01*
X182000000Y-65700000D02*
X182000623Y-63183155D01*
X118999478Y-63753975D02*
X182000478Y-63769575D01*
X118999478Y-63753975D02*
X182000478Y-63769575D01*
X118999478Y-63753975D02*
X120126127Y-63167833D01*
X118999478Y-63753975D02*
X120125837Y-64340675D01*
X182000478Y-63769575D02*
X180873829Y-64355717D01*
X182000478Y-63769575D02*
X180874119Y-63182875D01*
M02*
