<?xml version="1.0" standalone="no"?>
 <!DOCTYPE svg PUBLIC "-//W3C//DTD SVG 1.1//EN" 
 "http://www.w3.org/Graphics/SVG/1.1/DTD/svg11.dtd"> 
<svg
  xmlns:svg="http://www.w3.org/2000/svg"
  xmlns="http://www.w3.org/2000/svg"
  xmlns:xlink="http://www.w3.org/1999/xlink"
  version="1.1"
  width="29.700220cm" height="21.000720cm" viewBox="0 0 2970022 2100072">
<title>SVG Picture created as t1-User_Drawings.svg date 2023/06/26 15:44:02 </title>
  <desc>Picture generated by PCBNEW </desc>
<g style="fill:#000000; fill-opacity:1.000000;stroke:#000000; stroke-opacity:1.000000;
stroke-linecap:round; stroke-linejoin:round;"
 transform="translate(0 0) scale(1 1)">
</g>
<g style="fill:#000000; fill-opacity:0.0; 
stroke:#000000; stroke-width:0.000000; stroke-opacity:1; 
stroke-linecap:round; stroke-linejoin:round;">
</g>
<g style="fill:#000000; fill-opacity:0.0; 
stroke:#000000; stroke-width:1500.000000; stroke-opacity:1; 
stroke-linecap:round; stroke-linejoin:round;">
<g transform="rotate(89.998391 1799017.140000 834922.540000)">
<text x="1799017.140000" y="839922.540000"
textLength="98140.480000" font-size="13333.330000" lengthAdjust="spacingAndGlyphs"
text-anchor="middle" opacity="0">35.6156 mm</text>
</g>
<g class="stroked-text"><desc>35.6156 mm</desc>
<path d="M1793542 788255
L1793542 794446
L1797351 791112
L1797351 792541
L1797827 793493
L1798304 793970
L1799256 794446
L1801637 794446
L1802589 793970
L1803065 793494
L1803542 792541
L1803542 789684
L1803066 788732
L1802589 788255
" />
<path d="M1793541 803493
L1793541 798731
L1798303 798255
L1797827 798732
L1797351 799684
L1797351 802065
L1797827 803017
L1798303 803493
L1799256 803970
L1801637 803970
L1802589 803494
L1803065 803017
L1803541 802065
L1803541 799684
L1803065 798732
L1802589 798255
" />
<path d="M1802589 808255
L1803065 808732
L1803541 808256
L1803065 807779
L1802589 808255
L1803541 808256
" />
<path d="M1793541 817303
L1793541 815398
L1794017 814446
L1794493 813970
L1795922 813017
L1797827 812541
L1801636 812541
L1802589 813017
L1803065 813494
L1803541 814446
L1803541 816351
L1803065 817303
L1802589 817779
L1801636 818255
L1799255 818255
L1798303 817779
L1797827 817303
L1797351 816351
L1797351 814446
L1797827 813493
L1798303 813017
L1799255 812541
" />
<path d="M1803541 827779
L1803541 822065
" />
<path d="M1803541 824922
L1793541 824922
L1794969 823970
L1795922 823017
L1796398 822065
" />
<path d="M1793540 836827
L1793541 832065
L1798302 831589
L1797826 832065
L1797350 833017
L1797350 835398
L1797826 836351
L1798302 836827
L1799255 837303
L1801636 837303
L1802588 836827
L1803064 836351
L1803540 835398
L1803541 833017
L1803064 832065
L1802588 831589
" />
<path d="M1793540 845874
L1793540 843970
L1794016 843017
L1794493 842541
L1795921 841589
L1797826 841112
L1801636 841113
L1802588 841589
L1803064 842065
L1803540 843017
L1803540 844922
L1803064 845875
L1802588 846351
L1801635 846827
L1799254 846827
L1798302 846351
L1797826 845874
L1797350 844922
L1797350 843017
L1797826 842065
L1798302 841589
L1799255 841113
" />
<path d="M1803540 858732
L1796873 858732
" />
<path d="M1797826 858732
L1797349 859208
L1796873 860160
L1796873 861589
L1797349 862541
L1798302 863017
L1803540 863017
" />
<path d="M1798302 863017
L1797349 863493
L1796873 864446
L1796873 865874
L1797349 866827
L1798301 867303
L1803540 867303
" />
<path d="M1803539 872065
L1796873 872065
" />
<path d="M1797825 872065
L1797349 872541
L1796873 873493
L1796873 874922
L1797349 875874
L1798301 876351
L1803539 876351
" />
<path d="M1798301 876351
L1797349 876827
L1796873 877779
L1796873 879208
L1797349 880160
L1798301 880636
L1803539 880636
" />
</g><path d="M1780022 1013000
L1816376 1013001
" />
<path d="M1780032 656844
L1816386 656845
" />
<path d="M1810512 1013000
L1810522 656844
" />
<path d="M1810512 1013000
L1810522 656844
" />
<path d="M1810512 1013000
L1804648 1001735
" />
<path d="M1810512 1013000
L1816376 1001735
" />
<path d="M1810522 656844
L1816386 668110
" />
<path d="M1810522 656844
L1804657 668109
" />
<g transform="rotate(-359.985813 1465019.370000 626117.750000)">
<text x="1465019.370000" y="631117.750000"
textLength="98140.480000" font-size="13333.330000" lengthAdjust="spacingAndGlyphs"
text-anchor="middle" opacity="0">63.0010 mm</text>
</g>
<g class="stroked-text"><desc>63.0010 mm</desc>
<path d="M1506446 620631
L1508351 620630
L1509303 621106
L1509780 621582
L1510732 623011
L1511209 624915
L1511210 628725
L1510734 629677
L1510258 630154
L1509306 630630
L1507401 630631
L1506448 630155
L1505972 629679
L1505496 628726
L1505495 626345
L1505971 625393
L1506447 624917
L1507399 624440
L1509304 624440
L1510257 624916
L1510733 625392
L1511209 626344
" />
<path d="M1502160 620632
L1495970 620633
L1499304 624442
L1497876 624442
L1496923 624919
L1496447 625395
L1495971 626348
L1495972 628729
L1496448 629681
L1496925 630157
L1497877 630633
L1500734 630632
L1501687 630156
L1502163 629679
" />
<path d="M1491686 629682
L1491210 630158
L1491687 630634
L1492163 630158
L1491686 629682
L1491687 630634
" />
<path d="M1485018 620636
L1484065 620636
L1483113 621113
L1482637 621589
L1482161 622542
L1481685 624446
L1481686 626827
L1482162 628732
L1482639 629684
L1483115 630160
L1484068 630636
L1485020 630636
L1485972 630160
L1486448 629683
L1486924 628731
L1487400 626826
L1487399 624445
L1486923 622540
L1486446 621588
L1485970 621112
L1485018 620636
" />
<path d="M1475494 620638
L1474541 620639
L1473589 621115
L1473113 621591
L1472637 622544
L1472161 624449
L1472162 626830
L1472639 628734
L1473115 629687
L1473591 630163
L1474544 630639
L1475496 630638
L1476448 630162
L1476925 629686
L1477400 628733
L1477876 626828
L1477876 624447
L1477399 622543
L1476923 621590
L1476446 621114
L1475494 620638
" />
<path d="M1462639 630642
L1468353 630640
" />
<path d="M1465496 630641
L1465494 620641
L1466446 622069
L1467399 623021
L1468352 623497
" />
<path d="M1456446 620643
L1455494 620643
L1454541 621120
L1454065 621596
L1453589 622549
L1453114 624454
L1453114 626834
L1453591 628739
L1454067 629691
L1454544 630167
L1455496 630643
L1456449 630643
L1457401 630167
L1457877 629690
L1458353 628738
L1458829 626833
L1458828 624452
L1458351 622547
L1457875 621595
L1457399 621119
L1456446 620643
" />
<path d="M1441210 630647
L1441209 623980
" />
<path d="M1441209 624933
L1440733 624457
L1439780 623981
L1438352 623981
L1437399 624457
L1436923 625410
L1436925 630648
" />
<path d="M1436923 625410
L1436447 624458
L1435495 623982
L1434066 623982
L1433114 624458
L1432638 625411
L1432639 630649
" />
<path d="M1427877 630650
L1427875 623984
" />
<path d="M1427876 624936
L1427399 624460
L1426447 623984
L1425018 623984
L1424066 624461
L1423590 625413
L1423591 630651
" />
<path d="M1423590 625413
L1423114 624461
L1422161 623985
L1420733 623985
L1419780 624462
L1419304 625414
L1419306 630652
" />
</g><path d="M1780032 656844
L1780025 631675
" />
<path d="M1150022 657000
L1150015 631831
" />
<path d="M1780027 637539
L1150017 637695
" />
<path d="M1780027 637539
L1150017 637695
" />
<path d="M1780027 637539
L1768763 643406
" />
<path d="M1780027 637539
L1768760 631678
" />
<path d="M1150017 637695
L1161280 631828
" />
<path d="M1150017 637695
L1161283 643557
" />
<g >
</g>
<g >
</g>
<g >
</g>
<g >
</g>
<g >
</g>
<g >
</g>
<g >
</g>
<g >
</g>
<g >
</g>
<g >
</g>
<g >
</g>
<g >
</g>
<g >
</g>
<g >
</g>
<g >
</g>
<g >
</g>
<g >
</g>
<g >
</g>
<g >
</g>
<g >
</g>
<g >
</g>
<g >
</g>
<g >
</g>
<g >
</g>
<g >
</g>
<g >
</g>
<g >
</g>
<g >
</g>
<g >
</g>
<g >
</g>
<g >
</g>
<g >
</g>
<g >
</g>
<g >
</g>
<g >
</g>
<g >
</g>
<g >
</g>
<g >
</g>
<g >
</g>
<g >
</g>
<g >
</g>
<g >
</g>
<g >
</g>
<g >
</g>
<g >
</g>
<g >
</g>
<g >
</g>
<g >
</g>
<g >
</g>
<g >
</g>
</g> 
</svg>
