<?xml version="1.0" standalone="no"?>
 <!DOCTYPE svg PUBLIC "-//W3C//DTD SVG 1.1//EN" 
 "http://www.w3.org/Graphics/SVG/1.1/DTD/svg11.dtd"> 
<svg
  xmlns:svg="http://www.w3.org/2000/svg"
  xmlns="http://www.w3.org/2000/svg"
  xmlns:xlink="http://www.w3.org/1999/xlink"
  version="1.1"
  width="297.0022mm" height="210.0072mm" viewBox="0.0000 0.0000 297.0022 210.0072">
<title>SVG Image created as t1-User_Drawings0.svg date 2025/04/03 15:51:13 </title>
  <desc>Image generated by PCBNEW </desc>
<g style="fill:#000000; fill-opacity:1.0000;stroke:#000000; stroke-opacity:1.0000;
stroke-linecap:round; stroke-linejoin:round;"
 transform="translate(0 0) scale(1 1)">
</g>
<g style="fill:none; 
stroke:#000000; stroke-width:0.2700; stroke-opacity:1; 
stroke-linecap:round; stroke-linejoin:round;">
<path d="M175.6500 97.0000
L178.3500 97.0000
" />
<path d="M177.0000 95.6500
L177.0000 98.3500
" />
<path d="M178.3500 95.6500
L175.6500 98.3500
" />
<path d="M175.6500 95.6500
L178.3500 98.3500
" />
<path d="M175.6500 69.5000
L178.3500 69.5000
" />
<path d="M177.0000 68.1500
L177.0000 70.8500
" />
<path d="M178.3500 68.1500
L175.6500 70.8500
" />
<path d="M175.6500 68.1500
L178.3500 70.8500
" />
<path d="M121.6500 97.0000
L124.3500 97.0000
" />
<path d="M123.0000 95.6500
L123.0000 98.3500
" />
<path d="M124.3500 95.6500
L121.6500 98.3500
" />
<path d="M121.6500 95.6500
L124.3500 98.3500
" />
<path d="M121.6500 69.5000
L124.3500 69.5000
" />
<path d="M123.0000 68.1500
L123.0000 70.8500
" />
<path d="M124.3500 68.1500
L121.6500 70.8500
" />
<path d="M121.6500 68.1500
L124.3500 70.8500
" />
</g>
<g style="fill:none; 
stroke:#000000; stroke-width:0.2000; stroke-opacity:1; 
stroke-linecap:round; stroke-linejoin:round;">
<circle cx="127.6000" cy="81.2000" r="1.0000" /> 
<path d="M128.6000 80.2000
L126.6000 82.2000
" />
<path d="M126.6000 80.2000
L128.6000 82.2000
" />
</g>
<g style="fill:none; 
stroke:#000000; stroke-width:0.1000; stroke-opacity:1; 
stroke-linecap:round; stroke-linejoin:round;">
<path d="M122.4500 81.4500 A0.7500 0.7500 0.0 0 0 123.9500 81.4500" />
<path d="M122.4500 80.9500
L122.4500 81.4500
" />
<path d="M123.9500 80.9500 A0.7500 0.7500 0.0 0 0 122.4500 80.9500" />
<path d="M123.9500 81.4500
L123.9500 80.9500
" />
<path style="fill:none; 
stroke:#000000; stroke-width:0.1500; stroke-opacity:1; 
stroke-linecap:round; stroke-linejoin:round;fill:none"
d="M 123.9500,81.2000
123.2000,81.9500
122.4500,81.2000
123.2000,80.4500
Z" /> 
<path style="fill:none; 
stroke:#000000; stroke-width:0.2300; stroke-opacity:1; 
stroke-linecap:round; stroke-linejoin:round;fill:none"
d="M 177.5288,87.9708
179.1552,87.9708
179.1552,89.5972
177.5288,89.5972
Z" /> 
<path style="fill:none; 
stroke:#000000; stroke-width:0.2300; stroke-opacity:1; 
stroke-linecap:round; stroke-linejoin:round;fill:none"
d="M 177.5288,75.9708
179.1552,75.9708
179.1552,77.5972
177.5288,77.5972
Z" /> 
</g>
<g style="fill:none; 
stroke:#000000; stroke-width:0.1000; stroke-opacity:1; 
stroke-linecap:round; stroke-linejoin:round;">
<path d="M153.9320 97.7900
L154.9320 97.7900
" />
<path d="M154.4320 97.2900
L154.4320 98.2900
" />
<path d="M153.9320 95.2500
L154.9320 95.2500
" />
<path d="M154.4320 94.7500
L154.4320 95.7500
" />
<path d="M151.3920 97.7900
L152.3920 97.7900
" />
<path d="M151.8920 97.2900
L151.8920 98.2900
" />
<path d="M151.3920 95.2500
L152.3920 95.2500
" />
<path d="M151.8920 94.7500
L151.8920 95.7500
" />
<path d="M145.7024 97.7646
L146.7024 97.7646
" />
<path d="M146.2024 97.2646
L146.2024 98.2646
" />
<path d="M145.7024 95.2246
L146.7024 95.2246
" />
<path d="M146.2024 94.7246
L146.2024 95.7246
" />
<path d="M143.1624 97.7646
L144.1624 97.7646
" />
<path d="M143.6624 97.2646
L143.6624 98.2646
" />
<path d="M143.1624 95.2246
L144.1624 95.2246
" />
<path d="M143.6624 94.7246
L143.6624 95.7246
" />
<path d="M140.6224 97.7646
L141.6224 97.7646
" />
<path d="M141.1224 97.2646
L141.1224 98.2646
" />
<path d="M140.6224 95.2246
L141.6224 95.2246
" />
<path d="M141.1224 94.7246
L141.1224 95.7246
" />
<path d="M140.4700 89.9160
L141.4700 89.9160
" />
<path d="M140.9700 89.4160
L140.9700 90.4160
" />
<path d="M140.4700 87.3760
L141.4700 87.3760
" />
<path d="M140.9700 86.8760
L140.9700 87.8760
" />
<path d="M140.4700 84.8360
L141.4700 84.8360
" />
<path d="M140.9700 84.3360
L140.9700 85.3360
" />
<path d="M140.4700 82.2960
L141.4700 82.2960
" />
<path d="M140.9700 81.7960
L140.9700 82.7960
" />
<path d="M140.4700 79.7560
L141.4700 79.7560
" />
<path d="M140.9700 79.2560
L140.9700 80.2560
" />
<path d="M140.4700 77.2160
L141.4700 77.2160
" />
<path d="M140.9700 76.7160
L140.9700 77.7160
" />
<path d="M135.8000 79.5000
L136.8000 79.5000
" />
<path d="M136.3000 79.0000
L136.3000 80.0000
" />
<path d="M135.8000 76.9600
L136.8000 76.9600
" />
<path d="M136.3000 76.4600
L136.3000 77.4600
" />
<path d="M135.8000 74.4200
L136.8000 74.4200
" />
<path d="M136.3000 73.9200
L136.3000 74.9200
" />
<path d="M135.8000 71.8800
L136.8000 71.8800
" />
<path d="M136.3000 71.3800
L136.3000 72.3800
" />
<path d="M135.8000 69.3400
L136.8000 69.3400
" />
<path d="M136.3000 68.8400
L136.3000 69.8400
" />
<circle cx="175.4820" cy="84.0340" r="0.4750" /> 
<circle cx="175.4820" cy="81.5340" r="0.4750" /> 
<circle cx="173.4820" cy="84.0340" r="0.4750" /> 
<circle cx="173.4820" cy="81.5340" r="0.4750" /> 
<path d="M172.5898 87.9380
L172.1898 88.3380
" />
<path d="M172.1898 87.9380
L172.5898 88.3380
" />
<path d="M170.7610 90.4780
L170.3610 90.8780
" />
<path d="M170.3610 90.4780
L170.7610 90.8780
" />
<path d="M170.6594 80.2164
L170.2594 80.6164
" />
<path d="M170.2594 80.2164
L170.6594 80.6164
" />
<path d="M167.4590 97.7424
L167.0590 98.1424
" />
<path d="M167.0590 97.7424
L167.4590 98.1424
" />
<path d="M167.4336 93.3228
L167.0336 93.7228
" />
<path d="M167.0336 93.3228
L167.4336 93.7228
" />
<path d="M167.0780 88.5730
L166.6780 88.9730
" />
<path d="M166.6780 88.5730
L167.0780 88.9730
" />
<path d="M165.9350 79.9624
L165.5350 80.3624
" />
<path d="M165.5350 79.9624
L165.9350 80.3624
" />
<path d="M165.2492 90.2494
L164.8492 90.6494
" />
<path d="M164.8492 90.2494
L165.2492 90.6494
" />
<path d="M164.0300 76.5588
L163.6300 76.9588
" />
<path d="M163.6300 76.5588
L164.0300 76.9588
" />
<path d="M162.9632 69.8024
L162.5632 70.2024
" />
<path d="M162.5632 69.8024
L162.9632 70.2024
" />
<path d="M160.8804 80.9530
L160.4804 81.3530
" />
<path d="M160.4804 80.9530
L160.8804 81.3530
" />
<path d="M160.7534 86.0330
L160.3534 86.4330
" />
<path d="M160.3534 86.0330
L160.7534 86.4330
" />
<path d="M160.0422 98.4028
L159.6422 98.8028
" />
<path d="M159.6422 98.4028
L160.0422 98.8028
" />
<path d="M159.3818 81.7658
L158.9818 82.1658
" />
<path d="M158.9818 81.7658
L159.3818 82.1658
" />
<path d="M157.0958 87.3538
L156.6958 87.7538
" />
<path d="M156.6958 87.3538
L157.0958 87.7538
" />
<path d="M156.4862 91.4940
L156.0862 91.8940
" />
<path d="M156.0862 91.4940
L156.4862 91.8940
" />
<path d="M156.3592 88.1920
L155.9592 88.5920
" />
<path d="M155.9592 88.1920
L156.3592 88.5920
" />
<path d="M156.1560 85.5758
L155.7560 85.9758
" />
<path d="M155.7560 85.5758
L156.1560 85.9758
" />
<path d="M155.8766 82.8580
L155.4766 83.2580
" />
<path d="M155.4766 82.8580
L155.8766 83.2580
" />
<path d="M155.2670 88.3952
L154.8670 88.7952
" />
<path d="M154.8670 88.3952
L155.2670 88.7952
" />
<path d="M155.2416 69.8786
L154.8416 70.2786
" />
<path d="M154.8416 69.8786
L155.2416 70.2786
" />
<path d="M154.7336 83.0866
L154.3336 83.4866
" />
<path d="M154.3336 83.0866
L154.7336 83.4866
" />
<path d="M154.5558 75.5936
L154.1558 75.9936
" />
<path d="M154.1558 75.5936
L154.5558 75.9936
" />
<path d="M152.8794 88.1158
L152.4794 88.5158
" />
<path d="M152.4794 88.1158
L152.8794 88.5158
" />
<path d="M152.2698 87.0236
L151.8698 87.4236
" />
<path d="M151.8698 87.0236
L152.2698 87.4236
" />
<path d="M151.8891 85.6520
L151.4891 86.0520
" />
<path d="M151.4891 85.6520
L151.8891 86.0520
" />
<path d="M150.3394 81.6896
L149.9394 82.0896
" />
<path d="M149.9394 81.6896
L150.3394 82.0896
" />
<path d="M148.7951 85.1897
L148.3951 85.5897
" />
<path d="M148.3951 85.1897
L148.7951 85.5897
" />
<path d="M146.2246 69.0404
L145.8246 69.4404
" />
<path d="M145.8246 69.0404
L146.2246 69.4404
" />
<path d="M145.0308 84.8646
L144.6308 85.2646
" />
<path d="M144.6308 84.8646
L145.0308 85.2646
" />
<path d="M131.0354 88.7000
L130.6354 89.1000
" />
<path d="M130.6354 88.7000
L131.0354 89.1000
" />
<path d="M131.0100 95.1516
L130.6100 95.5516
" />
<path d="M130.6100 95.1516
L131.0100 95.5516
" />
<path d="M129.3082 84.1026
L128.9082 84.5026
" />
<path d="M128.9082 84.1026
L129.3082 84.5026
" />
<path d="M129.3082 77.7526
L128.9082 78.1526
" />
<path d="M128.9082 77.7526
L129.3082 78.1526
" />
<path d="M129.2828 73.1806
L128.8828 73.5806
" />
<path d="M128.8828 73.1806
L129.2828 73.5806
" />
<path d="M125.5490 90.7066
L125.1490 91.1066
" />
<path d="M125.1490 90.7066
L125.5490 91.1066
" />
<path d="M123.3392 84.2042
L122.9392 84.6042
" />
<path d="M122.9392 84.2042
L123.3392 84.6042
" />
<path d="M123.3138 73.1298
L122.9138 73.5298
" />
<path d="M122.9138 73.1298
L123.3138 73.5298
" />
<path d="M123.2884 77.9304
L122.8884 78.3304
" />
<path d="M122.8884 77.9304
L123.2884 78.3304
" />
<path d="M121.7644 89.1318
L121.3644 89.5318
" />
<path d="M121.3644 89.1318
L121.7644 89.5318
" />
</g>
<g style="fill:none; 
stroke:#000000; stroke-width:0.1500; stroke-opacity:1; 
stroke-linecap:round; stroke-linejoin:round;">
<g transform="rotate(-270.001609 117.1005 83.4923)">
<text x="117.1005" y="83.9923"
textLength="9.8690" font-size="1.3333" lengthAdjust="spacingAndGlyphs"
text-anchor="middle" opacity="0" stroke-opacity="0">35.6156 mm</text>
</g>
<g class="stroked-text"><desc>35.6156 mm</desc>
<path d="M117.6455 78.8256
L117.6456 79.4446
" />
<path d="M117.6456 79.4446
L117.2646 79.1113
" />
<path d="M117.2646 79.1113
L117.2646 79.2542
" />
<path d="M117.2646 79.2542
L117.2170 79.3494
" />
<path d="M117.2170 79.3494
L117.1694 79.3970
" />
<path d="M117.1694 79.3970
L117.0741 79.4446
" />
<path d="M117.0741 79.4446
L116.8360 79.4446
" />
<path d="M116.8360 79.4446
L116.7408 79.3970
" />
<path d="M116.7408 79.3970
L116.6932 79.3494
" />
<path d="M116.6932 79.3494
L116.6455 79.2542
" />
<path d="M116.6455 79.2542
L116.6455 78.9685
" />
<path d="M116.6455 78.9685
L116.6932 78.8732
" />
<path d="M116.6932 78.8732
L116.7408 78.8256
" />
<path d="M117.6456 80.3494
L117.6456 79.8732
" />
<path d="M117.6456 79.8732
L117.1694 79.8256
" />
<path d="M117.1694 79.8256
L117.2170 79.8732
" />
<path d="M117.2170 79.8732
L117.2646 79.9684
" />
<path d="M117.2646 79.9684
L117.2646 80.2065
" />
<path d="M117.2646 80.2065
L117.2170 80.3018
" />
<path d="M117.2170 80.3018
L117.1694 80.3494
" />
<path d="M117.1694 80.3494
L117.0742 80.3970
" />
<path d="M117.0742 80.3970
L116.8361 80.3970
" />
<path d="M116.8361 80.3970
L116.7408 80.3494
" />
<path d="M116.7408 80.3494
L116.6932 80.3018
" />
<path d="M116.6932 80.3018
L116.6456 80.2066
" />
<path d="M116.6456 80.2066
L116.6456 79.9685
" />
<path d="M116.6456 79.9685
L116.6932 79.8732
" />
<path d="M116.6932 79.8732
L116.7408 79.8256
" />
<path d="M116.7408 80.8256
L116.6932 80.8732
" />
<path d="M116.6932 80.8732
L116.6456 80.8256
" />
<path d="M116.6456 80.8256
L116.6932 80.7780
" />
<path d="M116.6932 80.7780
L116.7408 80.8256
" />
<path d="M116.7408 80.8256
L116.6456 80.8256
" />
<path d="M117.6456 81.7303
L117.6456 81.5399
" />
<path d="M117.6456 81.5399
L117.5980 81.4446
" />
<path d="M117.5980 81.4446
L117.5504 81.3970
" />
<path d="M117.5504 81.3970
L117.4075 81.3018
" />
<path d="M117.4075 81.3018
L117.2170 81.2542
" />
<path d="M117.2170 81.2542
L116.8361 81.2542
" />
<path d="M116.8361 81.2542
L116.7408 81.3018
" />
<path d="M116.7408 81.3018
L116.6932 81.3494
" />
<path d="M116.6932 81.3494
L116.6456 81.4446
" />
<path d="M116.6456 81.4446
L116.6456 81.6351
" />
<path d="M116.6456 81.6351
L116.6932 81.7304
" />
<path d="M116.6932 81.7304
L116.7409 81.7780
" />
<path d="M116.7409 81.7780
L116.8361 81.8256
" />
<path d="M116.8361 81.8256
L117.0742 81.8256
" />
<path d="M117.0742 81.8256
L117.1694 81.7780
" />
<path d="M117.1694 81.7780
L117.2170 81.7303
" />
<path d="M117.2170 81.7303
L117.2647 81.6351
" />
<path d="M117.2647 81.6351
L117.2647 81.4446
" />
<path d="M117.2647 81.4446
L117.2170 81.3494
" />
<path d="M117.2170 81.3494
L117.1694 81.3018
" />
<path d="M117.1694 81.3018
L117.0742 81.2542
" />
<path d="M116.6456 82.7780
L116.6456 82.2066
" />
<path d="M116.6456 82.4923
L117.6456 82.4922
" />
<path d="M117.6456 82.4922
L117.5028 82.3970
" />
<path d="M117.5028 82.3970
L117.4075 82.3018
" />
<path d="M117.4075 82.3018
L117.3599 82.2065
" />
<path d="M117.6457 83.6827
L117.6457 83.2065
" />
<path d="M117.6457 83.2065
L117.1695 83.1589
" />
<path d="M117.1695 83.1589
L117.2171 83.2065
" />
<path d="M117.2171 83.2065
L117.2647 83.3018
" />
<path d="M117.2647 83.3018
L117.2647 83.5399
" />
<path d="M117.2647 83.5399
L117.2171 83.6351
" />
<path d="M117.2171 83.6351
L117.1695 83.6827
" />
<path d="M117.1695 83.6827
L117.0742 83.7304
" />
<path d="M117.0742 83.7304
L116.8361 83.7304
" />
<path d="M116.8361 83.7304
L116.7409 83.6827
" />
<path d="M116.7409 83.6827
L116.6933 83.6351
" />
<path d="M116.6933 83.6351
L116.6457 83.5399
" />
<path d="M116.6457 83.5399
L116.6457 83.3018
" />
<path d="M116.6457 83.3018
L116.6933 83.2066
" />
<path d="M116.6933 83.2066
L116.7409 83.1589
" />
<path d="M117.6457 84.5875
L117.6457 84.3970
" />
<path d="M117.6457 84.3970
L117.5981 84.3018
" />
<path d="M117.5981 84.3018
L117.5504 84.2541
" />
<path d="M117.5504 84.2541
L117.4076 84.1589
" />
<path d="M117.4076 84.1589
L117.2171 84.1113
" />
<path d="M117.2171 84.1113
L116.8362 84.1113
" />
<path d="M116.8362 84.1113
L116.7409 84.1589
" />
<path d="M116.7409 84.1589
L116.6933 84.2066
" />
<path d="M116.6933 84.2066
L116.6457 84.3018
" />
<path d="M116.6457 84.3018
L116.6457 84.4923
" />
<path d="M116.6457 84.4923
L116.6933 84.5875
" />
<path d="M116.6933 84.5875
L116.7409 84.6351
" />
<path d="M116.7409 84.6351
L116.8362 84.6827
" />
<path d="M116.8362 84.6827
L117.0743 84.6827
" />
<path d="M117.0743 84.6827
L117.1695 84.6351
" />
<path d="M117.1695 84.6351
L117.2171 84.5875
" />
<path d="M117.2171 84.5875
L117.2647 84.4922
" />
<path d="M117.2647 84.4922
L117.2647 84.3018
" />
<path d="M117.2647 84.3018
L117.2171 84.2065
" />
<path d="M117.2171 84.2065
L117.1695 84.1589
" />
<path d="M117.1695 84.1589
L117.0743 84.1113
" />
<path d="M116.6457 85.8732
L117.3124 85.8732
" />
<path d="M117.2172 85.8732
L117.2648 85.9208
" />
<path d="M117.2648 85.9208
L117.3124 86.0161
" />
<path d="M117.3124 86.0161
L117.3124 86.1589
" />
<path d="M117.3124 86.1589
L117.2648 86.2542
" />
<path d="M117.2648 86.2542
L117.1696 86.3018
" />
<path d="M117.1696 86.3018
L116.6457 86.3018
" />
<path d="M117.1696 86.3018
L117.2648 86.3494
" />
<path d="M117.2648 86.3494
L117.3124 86.4446
" />
<path d="M117.3124 86.4446
L117.3124 86.5875
" />
<path d="M117.3124 86.5875
L117.2648 86.6827
" />
<path d="M117.2648 86.6827
L117.1696 86.7303
" />
<path d="M117.1696 86.7303
L116.6458 86.7304
" />
<path d="M116.6458 87.2066
L117.3124 87.2065
" />
<path d="M117.2172 87.2065
L117.2648 87.2542
" />
<path d="M117.2648 87.2542
L117.3124 87.3494
" />
<path d="M117.3124 87.3494
L117.3124 87.4922
" />
<path d="M117.3124 87.4922
L117.2648 87.5875
" />
<path d="M117.2648 87.5875
L117.1696 87.6351
" />
<path d="M117.1696 87.6351
L116.6458 87.6351
" />
<path d="M117.1696 87.6351
L117.2648 87.6827
" />
<path d="M117.2648 87.6827
L117.3125 87.7780
" />
<path d="M117.3125 87.7780
L117.3125 87.9208
" />
<path d="M117.3125 87.9208
L117.2648 88.0161
" />
<path d="M117.2648 88.0161
L117.1696 88.0637
" />
<path d="M117.1696 88.0637
L116.6458 88.0637
" />
</g><path d="M119.0000 101.3000
L115.3646 101.3001
" />
<path d="M118.9990 65.6844
L115.3636 65.6845
" />
<path d="M115.9510 101.3001
L115.9500 65.6845
" />
<path d="M115.9510 101.3001
L115.3645 100.1736
" />
<path d="M115.9510 101.3001
L116.5374 100.1736
" />
<path d="M115.9500 65.6845
L116.5364 66.8110
" />
<path d="M115.9500 65.6845
L115.3636 66.8110
" />
<g transform="rotate(-359.985813 150.5003 62.6118)">
<text x="150.5003" y="63.1118"
textLength="9.8690" font-size="1.3333" lengthAdjust="spacingAndGlyphs"
text-anchor="middle" opacity="0" stroke-opacity="0">63.0010 mm</text>
</g>
<g class="stroked-text"><desc>63.0010 mm</desc>
<path d="M146.3575 62.0656
L146.1671 62.0655
" />
<path d="M146.1671 62.0655
L146.0718 62.1131
" />
<path d="M146.0718 62.1131
L146.0242 62.1607
" />
<path d="M146.0242 62.1607
L145.9289 62.3036
" />
<path d="M145.9289 62.3036
L145.8812 62.4940
" />
<path d="M145.8812 62.4940
L145.8811 62.8750
" />
<path d="M145.8811 62.8750
L145.9287 62.9702
" />
<path d="M145.9287 62.9702
L145.9764 63.0179
" />
<path d="M145.9764 63.0179
L146.0716 63.0655
" />
<path d="M146.0716 63.0655
L146.2621 63.0655
" />
<path d="M146.2621 63.0655
L146.3573 63.0179
" />
<path d="M146.3573 63.0179
L146.4049 62.9703
" />
<path d="M146.4049 62.9703
L146.4526 62.8751
" />
<path d="M146.4526 62.8751
L146.4526 62.6370
" />
<path d="M146.4526 62.6370
L146.4050 62.5418
" />
<path d="M146.4050 62.5418
L146.3574 62.4941
" />
<path d="M146.3574 62.4941
L146.2622 62.4465
" />
<path d="M146.2622 62.4465
L146.0717 62.4464
" />
<path d="M146.0717 62.4464
L145.9765 62.4940
" />
<path d="M145.9765 62.4940
L145.9289 62.5417
" />
<path d="M145.9289 62.5417
L145.8812 62.6369
" />
<path d="M146.7861 62.0657
L147.4052 62.0658
" />
<path d="M147.4052 62.0658
L147.0717 62.4467
" />
<path d="M147.0717 62.4467
L147.2146 62.4467
" />
<path d="M147.2146 62.4467
L147.3098 62.4944
" />
<path d="M147.3098 62.4944
L147.3574 62.5420
" />
<path d="M147.3574 62.5420
L147.4050 62.6373
" />
<path d="M147.4050 62.6373
L147.4050 62.8754
" />
<path d="M147.4050 62.8754
L147.3573 62.9706
" />
<path d="M147.3573 62.9706
L147.3097 63.0182
" />
<path d="M147.3097 63.0182
L147.2144 63.0658
" />
<path d="M147.2144 63.0658
L146.9287 63.0657
" />
<path d="M146.9287 63.0657
L146.8335 63.0181
" />
<path d="M146.8335 63.0181
L146.7859 62.9704
" />
<path d="M147.8335 62.9707
L147.8811 63.0183
" />
<path d="M147.8811 63.0183
L147.8335 63.0659
" />
<path d="M147.8335 63.0659
L147.7859 63.0183
" />
<path d="M147.7859 63.0183
L147.8335 62.9707
" />
<path d="M147.8335 62.9707
L147.8335 63.0659
" />
<path d="M148.5004 62.0661
L148.5956 62.0661
" />
<path d="M148.5956 62.0661
L148.6909 62.1138
" />
<path d="M148.6909 62.1138
L148.7385 62.1614
" />
<path d="M148.7385 62.1614
L148.7861 62.2566
" />
<path d="M148.7861 62.2566
L148.8336 62.4471
" />
<path d="M148.8336 62.4471
L148.8336 62.6852
" />
<path d="M148.8336 62.6852
L148.7859 62.8757
" />
<path d="M148.7859 62.8757
L148.7383 62.9709
" />
<path d="M148.7383 62.9709
L148.6906 63.0185
" />
<path d="M148.6906 63.0185
L148.5954 63.0661
" />
<path d="M148.5954 63.0661
L148.5001 63.0661
" />
<path d="M148.5001 63.0661
L148.4049 63.0185
" />
<path d="M148.4049 63.0185
L148.3573 62.9708
" />
<path d="M148.3573 62.9708
L148.3097 62.8756
" />
<path d="M148.3097 62.8756
L148.2621 62.6851
" />
<path d="M148.2621 62.6851
L148.2622 62.4470
" />
<path d="M148.2622 62.4470
L148.3099 62.2565
" />
<path d="M148.3099 62.2565
L148.3575 62.1613
" />
<path d="M148.3575 62.1613
L148.4051 62.1137
" />
<path d="M148.4051 62.1137
L148.5004 62.0661
" />
<path d="M149.4528 62.0663
L149.5480 62.0664
" />
<path d="M149.5480 62.0664
L149.6432 62.1140
" />
<path d="M149.6432 62.1140
L149.6909 62.1616
" />
<path d="M149.6909 62.1616
L149.7384 62.2569
" />
<path d="M149.7384 62.2569
L149.7860 62.4474
" />
<path d="M149.7860 62.4474
L149.7860 62.6855
" />
<path d="M149.7860 62.6855
L149.7383 62.8759
" />
<path d="M149.7383 62.8759
L149.6907 62.9712
" />
<path d="M149.6907 62.9712
L149.6430 63.0188
" />
<path d="M149.6430 63.0188
L149.5478 63.0664
" />
<path d="M149.5478 63.0664
L149.4525 63.0663
" />
<path d="M149.4525 63.0663
L149.3573 63.0187
" />
<path d="M149.3573 63.0187
L149.3097 62.9711
" />
<path d="M149.3097 62.9711
L149.2621 62.8758
" />
<path d="M149.2621 62.8758
L149.2145 62.6853
" />
<path d="M149.2145 62.6853
L149.2146 62.4472
" />
<path d="M149.2146 62.4472
L149.2623 62.2568
" />
<path d="M149.2623 62.2568
L149.3099 62.1615
" />
<path d="M149.3099 62.1615
L149.3575 62.1139
" />
<path d="M149.3575 62.1139
L149.4528 62.0663
" />
<path d="M150.7382 63.0667
L150.1668 63.0665
" />
<path d="M150.4525 63.0666
L150.4528 62.0666
" />
<path d="M150.4528 62.0666
L150.3575 62.2094
" />
<path d="M150.3575 62.2094
L150.2622 62.3046
" />
<path d="M150.2622 62.3046
L150.1670 62.3522
" />
<path d="M151.3575 62.0668
L151.4528 62.0668
" />
<path d="M151.4528 62.0668
L151.5480 62.1145
" />
<path d="M151.5480 62.1145
L151.5956 62.1621
" />
<path d="M151.5956 62.1621
L151.6432 62.2574
" />
<path d="M151.6432 62.2574
L151.6908 62.4478
" />
<path d="M151.6908 62.4478
L151.6907 62.6859
" />
<path d="M151.6907 62.6859
L151.6431 62.8764
" />
<path d="M151.6431 62.8764
L151.5954 62.9716
" />
<path d="M151.5954 62.9716
L151.5478 63.0192
" />
<path d="M151.5478 63.0192
L151.4525 63.0668
" />
<path d="M151.4525 63.0668
L151.3573 63.0668
" />
<path d="M151.3573 63.0668
L151.2621 63.0192
" />
<path d="M151.2621 63.0192
L151.2145 62.9715
" />
<path d="M151.2145 62.9715
L151.1669 62.8763
" />
<path d="M151.1669 62.8763
L151.1193 62.6858
" />
<path d="M151.1193 62.6858
L151.1194 62.4477
" />
<path d="M151.1194 62.4477
L151.1670 62.2572
" />
<path d="M151.1670 62.2572
L151.2147 62.1620
" />
<path d="M151.2147 62.1620
L151.2623 62.1144
" />
<path d="M151.2623 62.1144
L151.3575 62.0668
" />
<path d="M152.8811 63.0672
L152.8813 62.4005
" />
<path d="M152.8812 62.4958
L152.9289 62.4481
" />
<path d="M152.9289 62.4481
L153.0241 62.4006
" />
<path d="M153.0241 62.4006
L153.1670 62.4006
" />
<path d="M153.1670 62.4006
L153.2622 62.4482
" />
<path d="M153.2622 62.4482
L153.3098 62.5435
" />
<path d="M153.3098 62.5435
L153.3097 63.0673
" />
<path d="M153.3098 62.5435
L153.3574 62.4483
" />
<path d="M153.3574 62.4483
L153.4527 62.4007
" />
<path d="M153.4527 62.4007
L153.5956 62.4007
" />
<path d="M153.5956 62.4007
L153.6908 62.4483
" />
<path d="M153.6908 62.4483
L153.7384 62.5436
" />
<path d="M153.7384 62.5436
L153.7382 63.0674
" />
<path d="M154.2144 63.0675
L154.2146 62.4008
" />
<path d="M154.2146 62.4961
L154.2622 62.4485
" />
<path d="M154.2622 62.4485
L154.3575 62.4009
" />
<path d="M154.3575 62.4009
L154.5003 62.4009
" />
<path d="M154.5003 62.4009
L154.5955 62.4486
" />
<path d="M154.5955 62.4486
L154.6431 62.5438
" />
<path d="M154.6431 62.5438
L154.6430 63.0676
" />
<path d="M154.6431 62.5438
L154.6908 62.4486
" />
<path d="M154.6908 62.4486
L154.7860 62.4010
" />
<path d="M154.7860 62.4010
L154.9289 62.4010
" />
<path d="M154.9289 62.4010
L155.0241 62.4487
" />
<path d="M155.0241 62.4487
L155.0717 62.5439
" />
<path d="M155.0717 62.5439
L155.0716 63.0677
" />
</g><path d="M118.9990 65.6844
L118.9996 63.1676
" />
<path d="M182.0000 65.7000
L182.0006 63.1832
" />
<path d="M118.9995 63.7540
L182.0005 63.7696
" />
<path d="M118.9995 63.7540
L120.1261 63.1678
" />
<path d="M118.9995 63.7540
L120.1258 64.3407
" />
<path d="M182.0005 63.7696
L180.8738 64.3557
" />
<path d="M182.0005 63.7696
L180.8741 63.1829
" />
</g> 
</svg>
