  0
SECTION
  2
HEADER
  9
$ANGBASE
  50
0.0
  9
$ANGDIR
  70
1
  9
$MEASUREMENT
  70
1
  0
ENDSEC
  0
SECTION
  2
TABLES
  0
TABLE
  2
LTYPE
  70
4
  0
LTYPE
  5
40F
  2
CONTINUOUS
  70
0
  3
Solid line
  72
65
  73
0
  40
0.0
  0
LTYPE
  5
410
  2
DASHDOT
 70
0
  3
Dash Dot ____ _ ____ _
 72
65
 73
4
 40
2.0
 49
1.25
 49
-0.25
 49
0.25
 49
-0.25
  0
LTYPE
  5
411
  2
DASHED
 70
0
  3
Dashed __ __ __ __ __
 72
65
 73
2
 40
0.75
 49
0.5
 49
-0.25
  0
LTYPE
  5
43B
  2
DOTTED
 70
0
  3
Dotted .  .  .  .
 72
65
 73
2
 40
0.2
 49
0.0
 49
-0.2
  0
ENDTAB
  0
TABLE
  2
STYLE
  70
4
  0
STYLE
  2
KICAD
  70
0
  40
0
  41
1
  42
1
  50
0
  71
0
  3
isocp.shx
  0
STYLE
  2
KICADB
  70
0
  40
0
  41
1
  42
1
  50
0
  71
0
  3
isocp.shx
  0
STYLE
  2
KICADI
  70
0
  40
0
  41
1
  42
1
  50
15
  71
0
  3
isocp.shx
  0
STYLE
  2
KICADBI
  70
0
  40
0
  41
1
  42
1
  50
15
  71
0
  3
isocp.shx
  0
ENDTAB
  0
TABLE
  2
LAYER
  70
1
  0
LAYER
  2
BLACK
  70
0
  62
7
  6
CONTINUOUS
  0
ENDTAB
  0
ENDSEC
  0
SECTION
  2
ENTITIES
0
LINE
8
BLACK
6
CONTINUOUS
10
131.9310710000000029
20
-96.4134299999999911
11
132.0121769999999799
21
-96.467622999999989
0
LINE
8
BLACK
6
CONTINUOUS
10
132.0121769999999799
20
-96.467622999999989
11
132.0663700000000063
21
-96.5487289999999945
0
LINE
8
BLACK
6
CONTINUOUS
10
132.0663700000000063
20
-96.5487289999999945
11
132.0853999999999928
21
-96.6443999999999903
0
LINE
8
BLACK
6
CONTINUOUS
10
132.0853999999999928
20
-96.6443999999999903
11
132.0853999999999928
21
-99.6443999999999903
0
LINE
8
BLACK
6
CONTINUOUS
10
132.0853999999999928
20
-99.6443999999999903
11
132.0663700000000063
21
-99.7400710000000004
0
LINE
8
BLACK
6
CONTINUOUS
10
132.0663700000000063
20
-99.7400710000000004
11
132.0121769999999799
21
-99.8211769999999916
0
LINE
8
BLACK
6
CONTINUOUS
10
132.0121769999999799
20
-99.8211769999999916
11
131.9310710000000029
21
-99.8753699999999895
0
LINE
8
BLACK
6
CONTINUOUS
10
131.9310710000000029
20
-99.8753699999999895
11
131.8353999999999928
21
-99.8943999999999903
0
LINE
8
BLACK
6
CONTINUOUS
10
131.8353999999999928
20
-99.8943999999999903
11
129.8353999999999928
21
-99.8943999999999903
0
LINE
8
BLACK
6
CONTINUOUS
10
129.8353999999999928
20
-99.8943999999999903
11
129.7397289999999828
21
-99.8753699999999895
0
LINE
8
BLACK
6
CONTINUOUS
10
129.7397289999999828
20
-99.8753699999999895
11
129.6586230000000057
21
-99.8211769999999916
0
LINE
8
BLACK
6
CONTINUOUS
10
129.6586230000000057
20
-99.8211769999999916
11
129.6044300000000078
21
-99.7400710000000004
0
LINE
8
BLACK
6
CONTINUOUS
10
129.6044300000000078
20
-99.7400710000000004
11
129.5853999999999928
21
-99.6443999999999903
0
LINE
8
BLACK
6
CONTINUOUS
10
129.5853999999999928
20
-99.6443999999999903
11
129.5853999999999928
21
-96.6443999999999903
0
LINE
8
BLACK
6
CONTINUOUS
10
129.5853999999999928
20
-96.6443999999999903
11
129.6044300000000078
21
-96.5487289999999945
0
LINE
8
BLACK
6
CONTINUOUS
10
129.6044300000000078
20
-96.5487289999999945
11
129.6586230000000057
21
-96.467622999999989
0
LINE
8
BLACK
6
CONTINUOUS
10
129.6586230000000057
20
-96.467622999999989
11
129.7397289999999828
21
-96.4134299999999911
0
LINE
8
BLACK
6
CONTINUOUS
10
129.7397289999999828
20
-96.4134299999999911
11
129.8353999999999928
21
-96.3943999999999903
0
LINE
8
BLACK
6
CONTINUOUS
10
129.8353999999999928
20
-96.3943999999999903
11
131.8353999999999928
21
-96.3943999999999903
0
LINE
8
BLACK
6
CONTINUOUS
10
131.8353999999999928
20
-96.3943999999999903
11
131.9310710000000029
21
-96.4134299999999911
0
LINE
8
BLACK
6
CONTINUOUS
10
163.534671000000003
20
-97.5680299999999932
11
163.61577699999998
21
-97.6222229999999911
0
LINE
8
BLACK
6
CONTINUOUS
10
163.61577699999998
20
-97.6222229999999911
11
163.6699700000000064
21
-97.7033289999999965
0
LINE
8
BLACK
6
CONTINUOUS
10
163.6699700000000064
20
-97.7033289999999965
11
163.688999999999993
21
-97.7989999999999924
0
LINE
8
BLACK
6
CONTINUOUS
10
163.688999999999993
20
-97.7989999999999924
11
163.688999999999993
21
-98.5489999999999924
0
LINE
8
BLACK
6
CONTINUOUS
10
163.688999999999993
20
-98.5489999999999924
11
163.6699700000000064
21
-98.6446710000000024
0
LINE
8
BLACK
6
CONTINUOUS
10
163.6699700000000064
20
-98.6446710000000024
11
163.61577699999998
21
-98.7257769999999937
0
LINE
8
BLACK
6
CONTINUOUS
10
163.61577699999998
20
-98.7257769999999937
11
163.534671000000003
21
-98.7799699999999916
0
LINE
8
BLACK
6
CONTINUOUS
10
163.534671000000003
20
-98.7799699999999916
11
163.438999999999993
21
-98.7989999999999924
0
LINE
8
BLACK
6
CONTINUOUS
10
163.438999999999993
20
-98.7989999999999924
11
162.188999999999993
21
-98.7989999999999924
0
LINE
8
BLACK
6
CONTINUOUS
10
162.188999999999993
20
-98.7989999999999924
11
162.0933289999999829
21
-98.7799699999999916
0
LINE
8
BLACK
6
CONTINUOUS
10
162.0933289999999829
20
-98.7799699999999916
11
162.0122230000000059
21
-98.7257769999999937
0
LINE
8
BLACK
6
CONTINUOUS
10
162.0122230000000059
20
-98.7257769999999937
11
161.9580299999999795
21
-98.6446710000000024
0
LINE
8
BLACK
6
CONTINUOUS
10
161.9580299999999795
20
-98.6446710000000024
11
161.938999999999993
21
-98.5489999999999924
0
LINE
8
BLACK
6
CONTINUOUS
10
161.938999999999993
20
-98.5489999999999924
11
161.938999999999993
21
-97.7989999999999924
0
LINE
8
BLACK
6
CONTINUOUS
10
161.938999999999993
20
-97.7989999999999924
11
161.9580299999999795
21
-97.7033289999999965
0
LINE
8
BLACK
6
CONTINUOUS
10
161.9580299999999795
20
-97.7033289999999965
11
162.0122230000000059
21
-97.6222229999999911
0
LINE
8
BLACK
6
CONTINUOUS
10
162.0122230000000059
20
-97.6222229999999911
11
162.0933289999999829
21
-97.5680299999999932
0
LINE
8
BLACK
6
CONTINUOUS
10
162.0933289999999829
20
-97.5680299999999932
11
162.188999999999993
21
-97.5489999999999924
0
LINE
8
BLACK
6
CONTINUOUS
10
162.188999999999993
20
-97.5489999999999924
11
163.438999999999993
21
-97.5489999999999924
0
LINE
8
BLACK
6
CONTINUOUS
10
163.438999999999993
20
-97.5489999999999924
11
163.534671000000003
21
-97.5680299999999932
0
LINE
8
BLACK
6
CONTINUOUS
10
159.5535289999999975
20
-96.226553999999993
11
159.6326069999999788
21
-96.2793929999999989
0
LINE
8
BLACK
6
CONTINUOUS
10
159.6326069999999788
20
-96.2793929999999989
11
159.6854459999999847
21
-96.3584709999999944
0
LINE
8
BLACK
6
CONTINUOUS
10
159.6854459999999847
20
-96.3584709999999944
11
159.7039999999999793
21
-96.4517499999999899
0
LINE
8
BLACK
6
CONTINUOUS
10
159.7039999999999793
20
-96.4517499999999899
11
159.7039999999999793
21
-96.9392500000000013
0
LINE
8
BLACK
6
CONTINUOUS
10
159.7039999999999793
20
-96.9392500000000013
11
159.6854459999999847
21
-97.0325289999999967
0
LINE
8
BLACK
6
CONTINUOUS
10
159.6854459999999847
20
-97.0325289999999967
11
159.6326069999999788
21
-97.1116069999999922
0
LINE
8
BLACK
6
CONTINUOUS
10
159.6326069999999788
20
-97.1116069999999922
11
159.5535289999999975
21
-97.1644459999999981
0
LINE
8
BLACK
6
CONTINUOUS
10
159.5535289999999975
20
-97.1644459999999981
11
159.460250000000002
21
-97.1829999999999927
0
LINE
8
BLACK
6
CONTINUOUS
10
159.460250000000002
20
-97.1829999999999927
11
158.5477499999999793
21
-97.1829999999999927
0
LINE
8
BLACK
6
CONTINUOUS
10
158.5477499999999793
20
-97.1829999999999927
11
158.4544709999999839
21
-97.1644459999999981
0
LINE
8
BLACK
6
CONTINUOUS
10
158.4544709999999839
20
-97.1644459999999981
11
158.3753930000000025
21
-97.1116069999999922
0
LINE
8
BLACK
6
CONTINUOUS
10
158.3753930000000025
20
-97.1116069999999922
11
158.3225539999999967
21
-97.0325289999999967
0
LINE
8
BLACK
6
CONTINUOUS
10
158.3225539999999967
20
-97.0325289999999967
11
158.304000000000002
21
-96.9392500000000013
0
LINE
8
BLACK
6
CONTINUOUS
10
158.304000000000002
20
-96.9392500000000013
11
158.304000000000002
21
-96.4517499999999899
0
LINE
8
BLACK
6
CONTINUOUS
10
158.304000000000002
20
-96.4517499999999899
11
158.3225539999999967
21
-96.3584709999999944
0
LINE
8
BLACK
6
CONTINUOUS
10
158.3225539999999967
20
-96.3584709999999944
11
158.3753930000000025
21
-96.2793929999999989
0
LINE
8
BLACK
6
CONTINUOUS
10
158.3753930000000025
20
-96.2793929999999989
11
158.4544709999999839
21
-96.226553999999993
0
LINE
8
BLACK
6
CONTINUOUS
10
158.4544709999999839
20
-96.226553999999993
11
158.5477499999999793
21
-96.2079999999999984
0
LINE
8
BLACK
6
CONTINUOUS
10
158.5477499999999793
20
-96.2079999999999984
11
159.460250000000002
21
-96.2079999999999984
0
LINE
8
BLACK
6
CONTINUOUS
10
159.460250000000002
20
-96.2079999999999984
11
159.5535289999999975
21
-96.226553999999993
0
LINE
8
BLACK
6
CONTINUOUS
10
163.534671000000003
20
-94.768029999999996
11
163.61577699999998
21
-94.8222229999999939
0
LINE
8
BLACK
6
CONTINUOUS
10
163.61577699999998
20
-94.8222229999999939
11
163.6699700000000064
21
-94.9033289999999994
0
LINE
8
BLACK
6
CONTINUOUS
10
163.6699700000000064
20
-94.9033289999999994
11
163.688999999999993
21
-94.9989999999999952
0
LINE
8
BLACK
6
CONTINUOUS
10
163.688999999999993
20
-94.9989999999999952
11
163.688999999999993
21
-95.7489999999999952
0
LINE
8
BLACK
6
CONTINUOUS
10
163.688999999999993
20
-95.7489999999999952
11
163.6699700000000064
21
-95.8446709999999911
0
LINE
8
BLACK
6
CONTINUOUS
10
163.6699700000000064
20
-95.8446709999999911
11
163.61577699999998
21
-95.9257769999999965
0
LINE
8
BLACK
6
CONTINUOUS
10
163.61577699999998
20
-95.9257769999999965
11
163.534671000000003
21
-95.9799699999999945
0
LINE
8
BLACK
6
CONTINUOUS
10
163.534671000000003
20
-95.9799699999999945
11
163.438999999999993
21
-95.9989999999999952
0
LINE
8
BLACK
6
CONTINUOUS
10
163.438999999999993
20
-95.9989999999999952
11
162.188999999999993
21
-95.9989999999999952
0
LINE
8
BLACK
6
CONTINUOUS
10
162.188999999999993
20
-95.9989999999999952
11
162.0933289999999829
21
-95.9799699999999945
0
LINE
8
BLACK
6
CONTINUOUS
10
162.0933289999999829
20
-95.9799699999999945
11
162.0122230000000059
21
-95.9257769999999965
0
LINE
8
BLACK
6
CONTINUOUS
10
162.0122230000000059
20
-95.9257769999999965
11
161.9580299999999795
21
-95.8446709999999911
0
LINE
8
BLACK
6
CONTINUOUS
10
161.9580299999999795
20
-95.8446709999999911
11
161.938999999999993
21
-95.7489999999999952
0
LINE
8
BLACK
6
CONTINUOUS
10
161.938999999999993
20
-95.7489999999999952
11
161.938999999999993
21
-94.9989999999999952
0
LINE
8
BLACK
6
CONTINUOUS
10
161.938999999999993
20
-94.9989999999999952
11
161.9580299999999795
21
-94.9033289999999994
0
LINE
8
BLACK
6
CONTINUOUS
10
161.9580299999999795
20
-94.9033289999999994
11
162.0122230000000059
21
-94.8222229999999939
0
LINE
8
BLACK
6
CONTINUOUS
10
162.0122230000000059
20
-94.8222229999999939
11
162.0933289999999829
21
-94.768029999999996
0
LINE
8
BLACK
6
CONTINUOUS
10
162.0933289999999829
20
-94.768029999999996
11
162.188999999999993
21
-94.7489999999999952
0
LINE
8
BLACK
6
CONTINUOUS
10
162.188999999999993
20
-94.7489999999999952
11
163.438999999999993
21
-94.7489999999999952
0
LINE
8
BLACK
6
CONTINUOUS
10
163.438999999999993
20
-94.7489999999999952
11
163.534671000000003
21
-94.768029999999996
0
LINE
8
BLACK
6
CONTINUOUS
10
159.5535289999999975
20
-94.351553999999993
11
159.6326069999999788
21
-94.4043929999999989
0
LINE
8
BLACK
6
CONTINUOUS
10
159.6326069999999788
20
-94.4043929999999989
11
159.6854459999999847
21
-94.4834709999999944
0
LINE
8
BLACK
6
CONTINUOUS
10
159.6854459999999847
20
-94.4834709999999944
11
159.7039999999999793
21
-94.5767499999999899
0
LINE
8
BLACK
6
CONTINUOUS
10
159.7039999999999793
20
-94.5767499999999899
11
159.7039999999999793
21
-95.0642500000000013
0
LINE
8
BLACK
6
CONTINUOUS
10
159.7039999999999793
20
-95.0642500000000013
11
159.6854459999999847
21
-95.1575289999999967
0
LINE
8
BLACK
6
CONTINUOUS
10
159.6854459999999847
20
-95.1575289999999967
11
159.6326069999999788
21
-95.2366069999999922
0
LINE
8
BLACK
6
CONTINUOUS
10
159.6326069999999788
20
-95.2366069999999922
11
159.5535289999999975
21
-95.2894459999999981
0
LINE
8
BLACK
6
CONTINUOUS
10
159.5535289999999975
20
-95.2894459999999981
11
159.460250000000002
21
-95.3079999999999927
0
LINE
8
BLACK
6
CONTINUOUS
10
159.460250000000002
20
-95.3079999999999927
11
158.5477499999999793
21
-95.3079999999999927
0
LINE
8
BLACK
6
CONTINUOUS
10
158.5477499999999793
20
-95.3079999999999927
11
158.4544709999999839
21
-95.2894459999999981
0
LINE
8
BLACK
6
CONTINUOUS
10
158.4544709999999839
20
-95.2894459999999981
11
158.3753930000000025
21
-95.2366069999999922
0
LINE
8
BLACK
6
CONTINUOUS
10
158.3753930000000025
20
-95.2366069999999922
11
158.3225539999999967
21
-95.1575289999999967
0
LINE
8
BLACK
6
CONTINUOUS
10
158.3225539999999967
20
-95.1575289999999967
11
158.304000000000002
21
-95.0642500000000013
0
LINE
8
BLACK
6
CONTINUOUS
10
158.304000000000002
20
-95.0642500000000013
11
158.304000000000002
21
-94.5767499999999899
0
LINE
8
BLACK
6
CONTINUOUS
10
158.304000000000002
20
-94.5767499999999899
11
158.3225539999999967
21
-94.4834709999999944
0
LINE
8
BLACK
6
CONTINUOUS
10
158.3225539999999967
20
-94.4834709999999944
11
158.3753930000000025
21
-94.4043929999999989
0
LINE
8
BLACK
6
CONTINUOUS
10
158.3753930000000025
20
-94.4043929999999989
11
158.4544709999999839
21
-94.351553999999993
0
LINE
8
BLACK
6
CONTINUOUS
10
158.4544709999999839
20
-94.351553999999993
11
158.5477499999999793
21
-94.3329999999999984
0
LINE
8
BLACK
6
CONTINUOUS
10
158.5477499999999793
20
-94.3329999999999984
11
159.460250000000002
21
-94.3329999999999984
0
LINE
8
BLACK
6
CONTINUOUS
10
159.460250000000002
20
-94.3329999999999984
11
159.5535289999999975
21
-94.351553999999993
0
LINE
8
BLACK
6
CONTINUOUS
10
131.9310710000000029
20
-89.9134299999999911
11
132.0121769999999799
21
-89.967622999999989
0
LINE
8
BLACK
6
CONTINUOUS
10
132.0121769999999799
20
-89.967622999999989
11
132.0663700000000063
21
-90.0487289999999945
0
LINE
8
BLACK
6
CONTINUOUS
10
132.0663700000000063
20
-90.0487289999999945
11
132.0853999999999928
21
-90.1443999999999903
0
LINE
8
BLACK
6
CONTINUOUS
10
132.0853999999999928
20
-90.1443999999999903
11
132.0853999999999928
21
-93.1443999999999903
0
LINE
8
BLACK
6
CONTINUOUS
10
132.0853999999999928
20
-93.1443999999999903
11
132.0663700000000063
21
-93.2400710000000004
0
LINE
8
BLACK
6
CONTINUOUS
10
132.0663700000000063
20
-93.2400710000000004
11
132.0121769999999799
21
-93.3211769999999916
0
LINE
8
BLACK
6
CONTINUOUS
10
132.0121769999999799
20
-93.3211769999999916
11
131.9310710000000029
21
-93.3753699999999895
0
LINE
8
BLACK
6
CONTINUOUS
10
131.9310710000000029
20
-93.3753699999999895
11
131.8353999999999928
21
-93.3943999999999903
0
LINE
8
BLACK
6
CONTINUOUS
10
131.8353999999999928
20
-93.3943999999999903
11
129.8353999999999928
21
-93.3943999999999903
0
LINE
8
BLACK
6
CONTINUOUS
10
129.8353999999999928
20
-93.3943999999999903
11
129.7397289999999828
21
-93.3753699999999895
0
LINE
8
BLACK
6
CONTINUOUS
10
129.7397289999999828
20
-93.3753699999999895
11
129.6586230000000057
21
-93.3211769999999916
0
LINE
8
BLACK
6
CONTINUOUS
10
129.6586230000000057
20
-93.3211769999999916
11
129.6044300000000078
21
-93.2400710000000004
0
LINE
8
BLACK
6
CONTINUOUS
10
129.6044300000000078
20
-93.2400710000000004
11
129.5853999999999928
21
-93.1443999999999903
0
LINE
8
BLACK
6
CONTINUOUS
10
129.5853999999999928
20
-93.1443999999999903
11
129.5853999999999928
21
-90.1443999999999903
0
LINE
8
BLACK
6
CONTINUOUS
10
129.5853999999999928
20
-90.1443999999999903
11
129.6044300000000078
21
-90.0487289999999945
0
LINE
8
BLACK
6
CONTINUOUS
10
129.6044300000000078
20
-90.0487289999999945
11
129.6586230000000057
21
-89.967622999999989
0
LINE
8
BLACK
6
CONTINUOUS
10
129.6586230000000057
20
-89.967622999999989
11
129.7397289999999828
21
-89.9134299999999911
0
LINE
8
BLACK
6
CONTINUOUS
10
129.7397289999999828
20
-89.9134299999999911
11
129.8353999999999928
21
-89.8943999999999903
0
LINE
8
BLACK
6
CONTINUOUS
10
129.8353999999999928
20
-89.8943999999999903
11
131.8353999999999928
21
-89.8943999999999903
0
LINE
8
BLACK
6
CONTINUOUS
10
131.8353999999999928
20
-89.8943999999999903
11
131.9310710000000029
21
-89.9134299999999911
0
LINE
8
BLACK
6
CONTINUOUS
10
122.3995290000000011
20
-90.2185539999999975
11
122.4786069999999967
21
-90.2713929999999891
0
LINE
8
BLACK
6
CONTINUOUS
10
122.4786069999999967
20
-90.2713929999999891
11
122.5314459999999883
21
-90.3504709999999989
0
LINE
8
BLACK
6
CONTINUOUS
10
122.5314459999999883
20
-90.3504709999999989
11
122.5499999999999972
21
-90.4437499999999943
0
LINE
8
BLACK
6
CONTINUOUS
10
122.5499999999999972
20
-90.4437499999999943
11
122.5499999999999972
21
-91.3562500000000028
0
LINE
8
BLACK
6
CONTINUOUS
10
122.5499999999999972
20
-91.3562500000000028
11
122.5314459999999883
21
-91.4495289999999983
0
LINE
8
BLACK
6
CONTINUOUS
10
122.5314459999999883
20
-91.4495289999999983
11
122.4786069999999967
21
-91.5286069999999938
0
LINE
8
BLACK
6
CONTINUOUS
10
122.4786069999999967
20
-91.5286069999999938
11
122.3995290000000011
21
-91.5814459999999997
0
LINE
8
BLACK
6
CONTINUOUS
10
122.3995290000000011
20
-91.5814459999999997
11
122.3062499999999915
21
-91.5999999999999943
0
LINE
8
BLACK
6
CONTINUOUS
10
122.3062499999999915
20
-91.5999999999999943
11
121.8187499999999943
21
-91.5999999999999943
0
LINE
8
BLACK
6
CONTINUOUS
10
121.8187499999999943
20
-91.5999999999999943
11
121.7254709999999989
21
-91.5814459999999997
0
LINE
8
BLACK
6
CONTINUOUS
10
121.7254709999999989
20
-91.5814459999999997
11
121.6463929999999891
21
-91.5286069999999938
0
LINE
8
BLACK
6
CONTINUOUS
10
121.6463929999999891
20
-91.5286069999999938
11
121.5935539999999975
21
-91.4495289999999983
0
LINE
8
BLACK
6
CONTINUOUS
10
121.5935539999999975
20
-91.4495289999999983
11
121.5749999999999886
21
-91.3562500000000028
0
LINE
8
BLACK
6
CONTINUOUS
10
121.5749999999999886
20
-91.3562500000000028
11
121.5749999999999886
21
-90.4437499999999943
0
LINE
8
BLACK
6
CONTINUOUS
10
121.5749999999999886
20
-90.4437499999999943
11
121.5935539999999975
21
-90.3504709999999989
0
LINE
8
BLACK
6
CONTINUOUS
10
121.5935539999999975
20
-90.3504709999999989
11
121.6463929999999891
21
-90.2713929999999891
0
LINE
8
BLACK
6
CONTINUOUS
10
121.6463929999999891
20
-90.2713929999999891
11
121.7254709999999989
21
-90.2185539999999975
0
LINE
8
BLACK
6
CONTINUOUS
10
121.7254709999999989
20
-90.2185539999999975
11
121.8187499999999943
21
-90.2000000000000028
0
LINE
8
BLACK
6
CONTINUOUS
10
121.8187499999999943
20
-90.2000000000000028
11
122.3062499999999915
21
-90.2000000000000028
0
LINE
8
BLACK
6
CONTINUOUS
10
122.3062499999999915
20
-90.2000000000000028
11
122.3995290000000011
21
-90.2185539999999975
0
LINE
8
BLACK
6
CONTINUOUS
10
124.2745290000000011
20
-90.2185539999999975
11
124.3536069999999967
21
-90.2713929999999891
0
LINE
8
BLACK
6
CONTINUOUS
10
124.3536069999999967
20
-90.2713929999999891
11
124.4064459999999883
21
-90.3504709999999989
0
LINE
8
BLACK
6
CONTINUOUS
10
124.4064459999999883
20
-90.3504709999999989
11
124.4249999999999972
21
-90.4437499999999943
0
LINE
8
BLACK
6
CONTINUOUS
10
124.4249999999999972
20
-90.4437499999999943
11
124.4249999999999972
21
-91.3562500000000028
0
LINE
8
BLACK
6
CONTINUOUS
10
124.4249999999999972
20
-91.3562500000000028
11
124.4064459999999883
21
-91.4495289999999983
0
LINE
8
BLACK
6
CONTINUOUS
10
124.4064459999999883
20
-91.4495289999999983
11
124.3536069999999967
21
-91.5286069999999938
0
LINE
8
BLACK
6
CONTINUOUS
10
124.3536069999999967
20
-91.5286069999999938
11
124.2745290000000011
21
-91.5814459999999997
0
LINE
8
BLACK
6
CONTINUOUS
10
124.2745290000000011
20
-91.5814459999999997
11
124.1812499999999915
21
-91.5999999999999943
0
LINE
8
BLACK
6
CONTINUOUS
10
124.1812499999999915
20
-91.5999999999999943
11
123.6937499999999943
21
-91.5999999999999943
0
LINE
8
BLACK
6
CONTINUOUS
10
123.6937499999999943
20
-91.5999999999999943
11
123.6004709999999989
21
-91.5814459999999997
0
LINE
8
BLACK
6
CONTINUOUS
10
123.6004709999999989
20
-91.5814459999999997
11
123.5213929999999891
21
-91.5286069999999938
0
LINE
8
BLACK
6
CONTINUOUS
10
123.5213929999999891
20
-91.5286069999999938
11
123.4685539999999975
21
-91.4495289999999983
0
LINE
8
BLACK
6
CONTINUOUS
10
123.4685539999999975
20
-91.4495289999999983
11
123.4499999999999886
21
-91.3562500000000028
0
LINE
8
BLACK
6
CONTINUOUS
10
123.4499999999999886
20
-91.3562500000000028
11
123.4499999999999886
21
-90.4437499999999943
0
LINE
8
BLACK
6
CONTINUOUS
10
123.4499999999999886
20
-90.4437499999999943
11
123.4685539999999975
21
-90.3504709999999989
0
LINE
8
BLACK
6
CONTINUOUS
10
123.4685539999999975
20
-90.3504709999999989
11
123.5213929999999891
21
-90.2713929999999891
0
LINE
8
BLACK
6
CONTINUOUS
10
123.5213929999999891
20
-90.2713929999999891
11
123.6004709999999989
21
-90.2185539999999975
0
LINE
8
BLACK
6
CONTINUOUS
10
123.6004709999999989
20
-90.2185539999999975
11
123.6937499999999943
21
-90.2000000000000028
0
LINE
8
BLACK
6
CONTINUOUS
10
123.6937499999999943
20
-90.2000000000000028
11
124.1812499999999915
21
-90.2000000000000028
0
LINE
8
BLACK
6
CONTINUOUS
10
124.1812499999999915
20
-90.2000000000000028
11
124.2745290000000011
21
-90.2185539999999975
0
LINE
8
BLACK
6
CONTINUOUS
10
167.2935290000000066
20
-89.9965539999999891
11
167.3726069999999879
21
-90.0493929999999949
0
LINE
8
BLACK
6
CONTINUOUS
10
167.3726069999999879
20
-90.0493929999999949
11
167.4254459999999938
21
-90.1284709999999905
0
LINE
8
BLACK
6
CONTINUOUS
10
167.4254459999999938
20
-90.1284709999999905
11
167.4439999999999884
21
-90.2217500000000001
0
LINE
8
BLACK
6
CONTINUOUS
10
167.4439999999999884
20
-90.2217500000000001
11
167.4439999999999884
21
-91.1342499999999944
0
LINE
8
BLACK
6
CONTINUOUS
10
167.4439999999999884
20
-91.1342499999999944
11
167.4254459999999938
21
-91.2275289999999899
0
LINE
8
BLACK
6
CONTINUOUS
10
167.4254459999999938
20
-91.2275289999999899
11
167.3726069999999879
21
-91.3066069999999996
0
LINE
8
BLACK
6
CONTINUOUS
10
167.3726069999999879
20
-91.3066069999999996
11
167.2935290000000066
21
-91.3594459999999913
0
LINE
8
BLACK
6
CONTINUOUS
10
167.2935290000000066
20
-91.3594459999999913
11
167.2002499999999827
21
-91.3780000000000001
0
LINE
8
BLACK
6
CONTINUOUS
10
167.2002499999999827
20
-91.3780000000000001
11
166.7127499999999998
21
-91.3780000000000001
0
LINE
8
BLACK
6
CONTINUOUS
10
166.7127499999999998
20
-91.3780000000000001
11
166.6194710000000043
21
-91.3594459999999913
0
LINE
8
BLACK
6
CONTINUOUS
10
166.6194710000000043
20
-91.3594459999999913
11
166.5403929999999946
21
-91.3066069999999996
0
LINE
8
BLACK
6
CONTINUOUS
10
166.5403929999999946
20
-91.3066069999999996
11
166.4875539999999887
21
-91.2275289999999899
0
LINE
8
BLACK
6
CONTINUOUS
10
166.4875539999999887
20
-91.2275289999999899
11
166.4689999999999941
21
-91.1342499999999944
0
LINE
8
BLACK
6
CONTINUOUS
10
166.4689999999999941
20
-91.1342499999999944
11
166.4689999999999941
21
-90.2217500000000001
0
LINE
8
BLACK
6
CONTINUOUS
10
166.4689999999999941
20
-90.2217500000000001
11
166.4875539999999887
21
-90.1284709999999905
0
LINE
8
BLACK
6
CONTINUOUS
10
166.4875539999999887
20
-90.1284709999999905
11
166.5403929999999946
21
-90.0493929999999949
0
LINE
8
BLACK
6
CONTINUOUS
10
166.5403929999999946
20
-90.0493929999999949
11
166.6194710000000043
21
-89.9965539999999891
0
LINE
8
BLACK
6
CONTINUOUS
10
166.6194710000000043
20
-89.9965539999999891
11
166.7127499999999998
21
-89.9779999999999944
0
LINE
8
BLACK
6
CONTINUOUS
10
166.7127499999999998
20
-89.9779999999999944
11
167.2002499999999827
21
-89.9779999999999944
0
LINE
8
BLACK
6
CONTINUOUS
10
167.2002499999999827
20
-89.9779999999999944
11
167.2935290000000066
21
-89.9965539999999891
0
LINE
8
BLACK
6
CONTINUOUS
10
169.1685289999999782
20
-89.9965539999999891
11
169.2476069999999879
21
-90.0493929999999949
0
LINE
8
BLACK
6
CONTINUOUS
10
169.2476069999999879
20
-90.0493929999999949
11
169.3004459999999938
21
-90.1284709999999905
0
LINE
8
BLACK
6
CONTINUOUS
10
169.3004459999999938
20
-90.1284709999999905
11
169.3189999999999884
21
-90.2217500000000001
0
LINE
8
BLACK
6
CONTINUOUS
10
169.3189999999999884
20
-90.2217500000000001
11
169.3189999999999884
21
-91.1342499999999944
0
LINE
8
BLACK
6
CONTINUOUS
10
169.3189999999999884
20
-91.1342499999999944
11
169.3004459999999938
21
-91.2275289999999899
0
LINE
8
BLACK
6
CONTINUOUS
10
169.3004459999999938
20
-91.2275289999999899
11
169.2476069999999879
21
-91.3066069999999996
0
LINE
8
BLACK
6
CONTINUOUS
10
169.2476069999999879
20
-91.3066069999999996
11
169.1685289999999782
21
-91.3594459999999913
0
LINE
8
BLACK
6
CONTINUOUS
10
169.1685289999999782
20
-91.3594459999999913
11
169.0752499999999827
21
-91.3780000000000001
0
LINE
8
BLACK
6
CONTINUOUS
10
169.0752499999999827
20
-91.3780000000000001
11
168.5877499999999998
21
-91.3780000000000001
0
LINE
8
BLACK
6
CONTINUOUS
10
168.5877499999999998
20
-91.3780000000000001
11
168.4944710000000043
21
-91.3594459999999913
0
LINE
8
BLACK
6
CONTINUOUS
10
168.4944710000000043
20
-91.3594459999999913
11
168.4153929999999946
21
-91.3066069999999996
0
LINE
8
BLACK
6
CONTINUOUS
10
168.4153929999999946
20
-91.3066069999999996
11
168.3625539999999887
21
-91.2275289999999899
0
LINE
8
BLACK
6
CONTINUOUS
10
168.3625539999999887
20
-91.2275289999999899
11
168.3439999999999941
21
-91.1342499999999944
0
LINE
8
BLACK
6
CONTINUOUS
10
168.3439999999999941
20
-91.1342499999999944
11
168.3439999999999941
21
-90.2217500000000001
0
LINE
8
BLACK
6
CONTINUOUS
10
168.3439999999999941
20
-90.2217500000000001
11
168.3625539999999887
21
-90.1284709999999905
0
LINE
8
BLACK
6
CONTINUOUS
10
168.3625539999999887
20
-90.1284709999999905
11
168.4153929999999946
21
-90.0493929999999949
0
LINE
8
BLACK
6
CONTINUOUS
10
168.4153929999999946
20
-90.0493929999999949
11
168.4944710000000043
21
-89.9965539999999891
0
LINE
8
BLACK
6
CONTINUOUS
10
168.4944710000000043
20
-89.9965539999999891
11
168.5877499999999998
21
-89.9779999999999944
0
LINE
8
BLACK
6
CONTINUOUS
10
168.5877499999999998
20
-89.9779999999999944
11
169.0752499999999827
21
-89.9779999999999944
0
LINE
8
BLACK
6
CONTINUOUS
10
169.0752499999999827
20
-89.9779999999999944
11
169.1685289999999782
21
-89.9965539999999891
0
LINE
8
BLACK
6
CONTINUOUS
10
151.9069999999999823
20
-90.902000000000001
11
151.3569999999999993
21
-90.902000000000001
0
LINE
8
BLACK
6
CONTINUOUS
10
151.3569999999999993
20
-90.902000000000001
11
151.3569999999999993
21
-89.3019999999999925
0
LINE
8
BLACK
6
CONTINUOUS
10
151.3569999999999993
20
-89.3019999999999925
11
151.9069999999999823
21
-89.3019999999999925
0
LINE
8
BLACK
6
CONTINUOUS
10
151.9069999999999823
20
-89.3019999999999925
11
151.9069999999999823
21
-90.902000000000001
0
LINE
8
BLACK
6
CONTINUOUS
10
152.7069999999999936
20
-90.902000000000001
11
152.1569999999999823
21
-90.902000000000001
0
LINE
8
BLACK
6
CONTINUOUS
10
152.1569999999999823
20
-90.902000000000001
11
152.1569999999999823
21
-89.3019999999999925
0
LINE
8
BLACK
6
CONTINUOUS
10
152.1569999999999823
20
-89.3019999999999925
11
152.7069999999999936
21
-89.3019999999999925
0
LINE
8
BLACK
6
CONTINUOUS
10
152.7069999999999936
20
-89.3019999999999925
11
152.7069999999999936
21
-90.902000000000001
0
LINE
8
BLACK
6
CONTINUOUS
10
153.507000000000005
20
-90.902000000000001
11
152.9569999999999936
21
-90.902000000000001
0
LINE
8
BLACK
6
CONTINUOUS
10
152.9569999999999936
20
-90.902000000000001
11
152.9569999999999936
21
-89.3019999999999925
0
LINE
8
BLACK
6
CONTINUOUS
10
152.9569999999999936
20
-89.3019999999999925
11
153.507000000000005
21
-89.3019999999999925
0
LINE
8
BLACK
6
CONTINUOUS
10
153.507000000000005
20
-89.3019999999999925
11
153.507000000000005
21
-90.902000000000001
0
LINE
8
BLACK
6
CONTINUOUS
10
154.3069999999999879
20
-90.902000000000001
11
153.757000000000005
21
-90.902000000000001
0
LINE
8
BLACK
6
CONTINUOUS
10
153.757000000000005
20
-90.902000000000001
11
153.757000000000005
21
-89.3019999999999925
0
LINE
8
BLACK
6
CONTINUOUS
10
153.757000000000005
20
-89.3019999999999925
11
154.3069999999999879
21
-89.3019999999999925
0
LINE
8
BLACK
6
CONTINUOUS
10
154.3069999999999879
20
-89.3019999999999925
11
154.3069999999999879
21
-90.902000000000001
0
LINE
8
BLACK
6
CONTINUOUS
10
155.1069999999999993
20
-90.902000000000001
11
154.5569999999999879
21
-90.902000000000001
0
LINE
8
BLACK
6
CONTINUOUS
10
154.5569999999999879
20
-90.902000000000001
11
154.5569999999999879
21
-89.3019999999999925
0
LINE
8
BLACK
6
CONTINUOUS
10
154.5569999999999879
20
-89.3019999999999925
11
155.1069999999999993
21
-89.3019999999999925
0
LINE
8
BLACK
6
CONTINUOUS
10
155.1069999999999993
20
-89.3019999999999925
11
155.1069999999999993
21
-90.902000000000001
0
LINE
8
BLACK
6
CONTINUOUS
10
155.9069999999999823
20
-90.902000000000001
11
155.3569999999999993
21
-90.902000000000001
0
LINE
8
BLACK
6
CONTINUOUS
10
155.3569999999999993
20
-90.902000000000001
11
155.3569999999999993
21
-89.3019999999999925
0
LINE
8
BLACK
6
CONTINUOUS
10
155.3569999999999993
20
-89.3019999999999925
11
155.9069999999999823
21
-89.3019999999999925
0
LINE
8
BLACK
6
CONTINUOUS
10
155.9069999999999823
20
-89.3019999999999925
11
155.9069999999999823
21
-90.902000000000001
0
LINE
8
BLACK
6
CONTINUOUS
10
156.7069999999999936
20
-90.902000000000001
11
156.1569999999999823
21
-90.902000000000001
0
LINE
8
BLACK
6
CONTINUOUS
10
156.1569999999999823
20
-90.902000000000001
11
156.1569999999999823
21
-89.3019999999999925
0
LINE
8
BLACK
6
CONTINUOUS
10
156.1569999999999823
20
-89.3019999999999925
11
156.7069999999999936
21
-89.3019999999999925
0
LINE
8
BLACK
6
CONTINUOUS
10
156.7069999999999936
20
-89.3019999999999925
11
156.7069999999999936
21
-90.902000000000001
0
LINE
8
BLACK
6
CONTINUOUS
10
157.507000000000005
20
-90.902000000000001
11
156.9569999999999936
21
-90.902000000000001
0
LINE
8
BLACK
6
CONTINUOUS
10
156.9569999999999936
20
-90.902000000000001
11
156.9569999999999936
21
-89.3019999999999925
0
LINE
8
BLACK
6
CONTINUOUS
10
156.9569999999999936
20
-89.3019999999999925
11
157.507000000000005
21
-89.3019999999999925
0
LINE
8
BLACK
6
CONTINUOUS
10
157.507000000000005
20
-89.3019999999999925
11
157.507000000000005
21
-90.902000000000001
0
LINE
8
BLACK
6
CONTINUOUS
10
163.8715289999999811
20
-89.6225539999999938
11
163.9506069999999909
21
-89.6753929999999997
0
LINE
8
BLACK
6
CONTINUOUS
10
163.9506069999999909
20
-89.6753929999999997
11
164.0034459999999967
21
-89.7544709999999952
0
LINE
8
BLACK
6
CONTINUOUS
10
164.0034459999999967
20
-89.7544709999999952
11
164.0219999999999914
21
-89.8477499999999907
0
LINE
8
BLACK
6
CONTINUOUS
10
164.0219999999999914
20
-89.8477499999999907
11
164.0219999999999914
21
-90.335250000000002
0
LINE
8
BLACK
6
CONTINUOUS
10
164.0219999999999914
20
-90.335250000000002
11
164.0034459999999967
21
-90.4285289999999975
0
LINE
8
BLACK
6
CONTINUOUS
10
164.0034459999999967
20
-90.4285289999999975
11
163.9506069999999909
21
-90.507606999999993
0
LINE
8
BLACK
6
CONTINUOUS
10
163.9506069999999909
20
-90.507606999999993
11
163.8715289999999811
21
-90.5604459999999989
0
LINE
8
BLACK
6
CONTINUOUS
10
163.8715289999999811
20
-90.5604459999999989
11
163.7782499999999857
21
-90.5789999999999935
0
LINE
8
BLACK
6
CONTINUOUS
10
163.7782499999999857
20
-90.5789999999999935
11
162.8657499999999914
21
-90.5789999999999935
0
LINE
8
BLACK
6
CONTINUOUS
10
162.8657499999999914
20
-90.5789999999999935
11
162.7724709999999959
21
-90.5604459999999989
0
LINE
8
BLACK
6
CONTINUOUS
10
162.7724709999999959
20
-90.5604459999999989
11
162.6933929999999862
21
-90.507606999999993
0
LINE
8
BLACK
6
CONTINUOUS
10
162.6933929999999862
20
-90.507606999999993
11
162.6405539999999803
21
-90.4285289999999975
0
LINE
8
BLACK
6
CONTINUOUS
10
162.6405539999999803
20
-90.4285289999999975
11
162.6219999999999857
21
-90.335250000000002
0
LINE
8
BLACK
6
CONTINUOUS
10
162.6219999999999857
20
-90.335250000000002
11
162.6219999999999857
21
-89.8477499999999907
0
LINE
8
BLACK
6
CONTINUOUS
10
162.6219999999999857
20
-89.8477499999999907
11
162.6405539999999803
21
-89.7544709999999952
0
LINE
8
BLACK
6
CONTINUOUS
10
162.6405539999999803
20
-89.7544709999999952
11
162.6933929999999862
21
-89.6753929999999997
0
LINE
8
BLACK
6
CONTINUOUS
10
162.6933929999999862
20
-89.6753929999999997
11
162.7724709999999959
21
-89.6225539999999938
0
LINE
8
BLACK
6
CONTINUOUS
10
162.7724709999999959
20
-89.6225539999999938
11
162.8657499999999914
21
-89.6039999999999992
0
LINE
8
BLACK
6
CONTINUOUS
10
162.8657499999999914
20
-89.6039999999999992
11
163.7782499999999857
21
-89.6039999999999992
0
LINE
8
BLACK
6
CONTINUOUS
10
163.7782499999999857
20
-89.6039999999999992
11
163.8715289999999811
21
-89.6225539999999938
0
LINE
8
BLACK
6
CONTINUOUS
10
150.9819999999999993
20
-88.9269999999999925
11
149.382000000000005
21
-88.9269999999999925
0
LINE
8
BLACK
6
CONTINUOUS
10
149.382000000000005
20
-88.9269999999999925
11
149.382000000000005
21
-88.3769999999999953
0
LINE
8
BLACK
6
CONTINUOUS
10
149.382000000000005
20
-88.3769999999999953
11
150.9819999999999993
21
-88.3769999999999953
0
LINE
8
BLACK
6
CONTINUOUS
10
150.9819999999999993
20
-88.3769999999999953
11
150.9819999999999993
21
-88.9269999999999925
0
LINE
8
BLACK
6
CONTINUOUS
10
159.4819999999999993
20
-88.9269999999999925
11
157.882000000000005
21
-88.9269999999999925
0
LINE
8
BLACK
6
CONTINUOUS
10
157.882000000000005
20
-88.9269999999999925
11
157.882000000000005
21
-88.3769999999999953
0
LINE
8
BLACK
6
CONTINUOUS
10
157.882000000000005
20
-88.3769999999999953
11
159.4819999999999993
21
-88.3769999999999953
0
LINE
8
BLACK
6
CONTINUOUS
10
159.4819999999999993
20
-88.3769999999999953
11
159.4819999999999993
21
-88.9269999999999925
0
LINE
8
BLACK
6
CONTINUOUS
10
163.8715289999999811
20
-87.7475539999999938
11
163.9506069999999909
21
-87.8003929999999997
0
LINE
8
BLACK
6
CONTINUOUS
10
163.9506069999999909
20
-87.8003929999999997
11
164.0034459999999967
21
-87.8794709999999952
0
LINE
8
BLACK
6
CONTINUOUS
10
164.0034459999999967
20
-87.8794709999999952
11
164.0219999999999914
21
-87.9727499999999907
0
LINE
8
BLACK
6
CONTINUOUS
10
164.0219999999999914
20
-87.9727499999999907
11
164.0219999999999914
21
-88.460250000000002
0
LINE
8
BLACK
6
CONTINUOUS
10
164.0219999999999914
20
-88.460250000000002
11
164.0034459999999967
21
-88.5535289999999975
0
LINE
8
BLACK
6
CONTINUOUS
10
164.0034459999999967
20
-88.5535289999999975
11
163.9506069999999909
21
-88.632606999999993
0
LINE
8
BLACK
6
CONTINUOUS
10
163.9506069999999909
20
-88.632606999999993
11
163.8715289999999811
21
-88.6854459999999989
0
LINE
8
BLACK
6
CONTINUOUS
10
163.8715289999999811
20
-88.6854459999999989
11
163.7782499999999857
21
-88.7039999999999935
0
LINE
8
BLACK
6
CONTINUOUS
10
163.7782499999999857
20
-88.7039999999999935
11
162.8657499999999914
21
-88.7039999999999935
0
LINE
8
BLACK
6
CONTINUOUS
10
162.8657499999999914
20
-88.7039999999999935
11
162.7724709999999959
21
-88.6854459999999989
0
LINE
8
BLACK
6
CONTINUOUS
10
162.7724709999999959
20
-88.6854459999999989
11
162.6933929999999862
21
-88.632606999999993
0
LINE
8
BLACK
6
CONTINUOUS
10
162.6933929999999862
20
-88.632606999999993
11
162.6405539999999803
21
-88.5535289999999975
0
LINE
8
BLACK
6
CONTINUOUS
10
162.6405539999999803
20
-88.5535289999999975
11
162.6219999999999857
21
-88.460250000000002
0
LINE
8
BLACK
6
CONTINUOUS
10
162.6219999999999857
20
-88.460250000000002
11
162.6219999999999857
21
-87.9727499999999907
0
LINE
8
BLACK
6
CONTINUOUS
10
162.6219999999999857
20
-87.9727499999999907
11
162.6405539999999803
21
-87.8794709999999952
0
LINE
8
BLACK
6
CONTINUOUS
10
162.6405539999999803
20
-87.8794709999999952
11
162.6933929999999862
21
-87.8003929999999997
0
LINE
8
BLACK
6
CONTINUOUS
10
162.6933929999999862
20
-87.8003929999999997
11
162.7724709999999959
21
-87.7475539999999938
0
LINE
8
BLACK
6
CONTINUOUS
10
162.7724709999999959
20
-87.7475539999999938
11
162.8657499999999914
21
-87.7289999999999992
0
LINE
8
BLACK
6
CONTINUOUS
10
162.8657499999999914
20
-87.7289999999999992
11
163.7782499999999857
21
-87.7289999999999992
0
LINE
8
BLACK
6
CONTINUOUS
10
163.7782499999999857
20
-87.7289999999999992
11
163.8715289999999811
21
-87.7475539999999938
0
LINE
8
BLACK
6
CONTINUOUS
10
170.7739619999999832
20
-87.7171510000000012
11
170.8449300000000051
21
-87.764569999999992
0
LINE
8
BLACK
6
CONTINUOUS
10
170.8449300000000051
20
-87.764569999999992
11
170.8923489999999958
21
-87.8355379999999997
0
LINE
8
BLACK
6
CONTINUOUS
10
170.8923489999999958
20
-87.8355379999999997
11
170.9089999999999918
21
-87.919249999999991
0
LINE
8
BLACK
6
CONTINUOUS
10
170.9089999999999918
20
-87.919249999999991
11
170.9089999999999918
21
-88.356749999999991
0
LINE
8
BLACK
6
CONTINUOUS
10
170.9089999999999918
20
-88.356749999999991
11
170.8923489999999958
21
-88.4404619999999966
0
LINE
8
BLACK
6
CONTINUOUS
10
170.8923489999999958
20
-88.4404619999999966
11
170.8449300000000051
21
-88.5114299999999901
0
LINE
8
BLACK
6
CONTINUOUS
10
170.8449300000000051
20
-88.5114299999999901
11
170.7739619999999832
21
-88.558848999999995
0
LINE
8
BLACK
6
CONTINUOUS
10
170.7739619999999832
20
-88.558848999999995
11
170.6902499999999918
21
-88.575499999999991
0
LINE
8
BLACK
6
CONTINUOUS
10
170.6902499999999918
20
-88.575499999999991
11
170.1777500000000032
21
-88.575499999999991
0
LINE
8
BLACK
6
CONTINUOUS
10
170.1777500000000032
20
-88.575499999999991
11
170.0940379999999834
21
-88.558848999999995
0
LINE
8
BLACK
6
CONTINUOUS
10
170.0940379999999834
20
-88.558848999999995
11
170.0230699999999899
21
-88.5114299999999901
0
LINE
8
BLACK
6
CONTINUOUS
10
170.0230699999999899
20
-88.5114299999999901
11
169.9756509999999992
21
-88.4404619999999966
0
LINE
8
BLACK
6
CONTINUOUS
10
169.9756509999999992
20
-88.4404619999999966
11
169.9590000000000032
21
-88.356749999999991
0
LINE
8
BLACK
6
CONTINUOUS
10
169.9590000000000032
20
-88.356749999999991
11
169.9590000000000032
21
-87.919249999999991
0
LINE
8
BLACK
6
CONTINUOUS
10
169.9590000000000032
20
-87.919249999999991
11
169.9756509999999992
21
-87.8355379999999997
0
LINE
8
BLACK
6
CONTINUOUS
10
169.9756509999999992
20
-87.8355379999999997
11
170.0230699999999899
21
-87.764569999999992
0
LINE
8
BLACK
6
CONTINUOUS
10
170.0230699999999899
20
-87.764569999999992
11
170.0940379999999834
21
-87.7171510000000012
0
LINE
8
BLACK
6
CONTINUOUS
10
170.0940379999999834
20
-87.7171510000000012
11
170.1777500000000032
21
-87.700499999999991
0
LINE
8
BLACK
6
CONTINUOUS
10
170.1777500000000032
20
-87.700499999999991
11
170.6902499999999918
21
-87.700499999999991
0
LINE
8
BLACK
6
CONTINUOUS
10
170.6902499999999918
20
-87.700499999999991
11
170.7739619999999832
21
-87.7171510000000012
0
LINE
8
BLACK
6
CONTINUOUS
10
124.0999999999999943
20
-88.2000000000000028
11
122.0999999999999943
21
-88.2000000000000028
0
LINE
8
BLACK
6
CONTINUOUS
10
122.0999999999999943
20
-88.2000000000000028
11
122.0999999999999943
21
-85.2000000000000028
0
LINE
8
BLACK
6
CONTINUOUS
10
122.0999999999999943
20
-85.2000000000000028
11
124.0999999999999943
21
-85.2000000000000028
0
LINE
8
BLACK
6
CONTINUOUS
10
124.0999999999999943
20
-85.2000000000000028
11
124.0999999999999943
21
-88.2000000000000028
0
LINE
8
BLACK
6
CONTINUOUS
10
130.0999999999999943
20
-88.2000000000000028
11
128.0999999999999943
21
-88.2000000000000028
0
LINE
8
BLACK
6
CONTINUOUS
10
128.0999999999999943
20
-88.2000000000000028
11
128.0999999999999943
21
-85.2000000000000028
0
LINE
8
BLACK
6
CONTINUOUS
10
128.0999999999999943
20
-85.2000000000000028
11
130.0999999999999943
21
-85.2000000000000028
0
LINE
8
BLACK
6
CONTINUOUS
10
130.0999999999999943
20
-85.2000000000000028
11
130.0999999999999943
21
-88.2000000000000028
0
LINE
8
BLACK
6
CONTINUOUS
10
150.9819999999999993
20
-88.1269999999999953
11
149.382000000000005
21
-88.1269999999999953
0
LINE
8
BLACK
6
CONTINUOUS
10
149.382000000000005
20
-88.1269999999999953
11
149.382000000000005
21
-87.5769999999999982
0
LINE
8
BLACK
6
CONTINUOUS
10
149.382000000000005
20
-87.5769999999999982
11
150.9819999999999993
21
-87.5769999999999982
0
LINE
8
BLACK
6
CONTINUOUS
10
150.9819999999999993
20
-87.5769999999999982
11
150.9819999999999993
21
-88.1269999999999953
0
LINE
8
BLACK
6
CONTINUOUS
10
159.4819999999999993
20
-88.1269999999999953
11
157.882000000000005
21
-88.1269999999999953
0
LINE
8
BLACK
6
CONTINUOUS
10
157.882000000000005
20
-88.1269999999999953
11
157.882000000000005
21
-87.5769999999999982
0
LINE
8
BLACK
6
CONTINUOUS
10
157.882000000000005
20
-87.5769999999999982
11
159.4819999999999993
21
-87.5769999999999982
0
LINE
8
BLACK
6
CONTINUOUS
10
159.4819999999999993
20
-87.5769999999999982
11
159.4819999999999993
21
-88.1269999999999953
0
LINE
8
BLACK
6
CONTINUOUS
10
150.9819999999999993
20
-87.3269999999999982
11
149.382000000000005
21
-87.3269999999999982
0
LINE
8
BLACK
6
CONTINUOUS
10
149.382000000000005
20
-87.3269999999999982
11
149.382000000000005
21
-86.777000000000001
0
LINE
8
BLACK
6
CONTINUOUS
10
149.382000000000005
20
-86.777000000000001
11
150.9819999999999993
21
-86.777000000000001
0
LINE
8
BLACK
6
CONTINUOUS
10
150.9819999999999993
20
-86.777000000000001
11
150.9819999999999993
21
-87.3269999999999982
0
LINE
8
BLACK
6
CONTINUOUS
10
159.4819999999999993
20
-87.3269999999999982
11
157.882000000000005
21
-87.3269999999999982
0
LINE
8
BLACK
6
CONTINUOUS
10
157.882000000000005
20
-87.3269999999999982
11
157.882000000000005
21
-86.777000000000001
0
LINE
8
BLACK
6
CONTINUOUS
10
157.882000000000005
20
-86.777000000000001
11
159.4819999999999993
21
-86.777000000000001
0
LINE
8
BLACK
6
CONTINUOUS
10
159.4819999999999993
20
-86.777000000000001
11
159.4819999999999993
21
-87.3269999999999982
0
LINE
8
BLACK
6
CONTINUOUS
10
170.7739619999999832
20
-86.1421509999999984
11
170.8449300000000051
21
-86.1895699999999891
0
LINE
8
BLACK
6
CONTINUOUS
10
170.8449300000000051
20
-86.1895699999999891
11
170.8923489999999958
21
-86.2605379999999968
0
LINE
8
BLACK
6
CONTINUOUS
10
170.8923489999999958
20
-86.2605379999999968
11
170.9089999999999918
21
-86.3442500000000024
0
LINE
8
BLACK
6
CONTINUOUS
10
170.9089999999999918
20
-86.3442500000000024
11
170.9089999999999918
21
-86.7817500000000024
0
LINE
8
BLACK
6
CONTINUOUS
10
170.9089999999999918
20
-86.7817500000000024
11
170.8923489999999958
21
-86.8654619999999937
0
LINE
8
BLACK
6
CONTINUOUS
10
170.8923489999999958
20
-86.8654619999999937
11
170.8449300000000051
21
-86.9364300000000014
0
LINE
8
BLACK
6
CONTINUOUS
10
170.8449300000000051
20
-86.9364300000000014
11
170.7739619999999832
21
-86.9838489999999922
0
LINE
8
BLACK
6
CONTINUOUS
10
170.7739619999999832
20
-86.9838489999999922
11
170.6902499999999918
21
-87.0005000000000024
0
LINE
8
BLACK
6
CONTINUOUS
10
170.6902499999999918
20
-87.0005000000000024
11
170.1777500000000032
21
-87.0005000000000024
0
LINE
8
BLACK
6
CONTINUOUS
10
170.1777500000000032
20
-87.0005000000000024
11
170.0940379999999834
21
-86.9838489999999922
0
LINE
8
BLACK
6
CONTINUOUS
10
170.0940379999999834
20
-86.9838489999999922
11
170.0230699999999899
21
-86.9364300000000014
0
LINE
8
BLACK
6
CONTINUOUS
10
170.0230699999999899
20
-86.9364300000000014
11
169.9756509999999992
21
-86.8654619999999937
0
LINE
8
BLACK
6
CONTINUOUS
10
169.9756509999999992
20
-86.8654619999999937
11
169.9590000000000032
21
-86.7817500000000024
0
LINE
8
BLACK
6
CONTINUOUS
10
169.9590000000000032
20
-86.7817500000000024
11
169.9590000000000032
21
-86.3442500000000024
0
LINE
8
BLACK
6
CONTINUOUS
10
169.9590000000000032
20
-86.3442500000000024
11
169.9756509999999992
21
-86.2605379999999968
0
LINE
8
BLACK
6
CONTINUOUS
10
169.9756509999999992
20
-86.2605379999999968
11
170.0230699999999899
21
-86.1895699999999891
0
LINE
8
BLACK
6
CONTINUOUS
10
170.0230699999999899
20
-86.1895699999999891
11
170.0940379999999834
21
-86.1421509999999984
0
LINE
8
BLACK
6
CONTINUOUS
10
170.0940379999999834
20
-86.1421509999999984
11
170.1777500000000032
21
-86.1255000000000024
0
LINE
8
BLACK
6
CONTINUOUS
10
170.1777500000000032
20
-86.1255000000000024
11
170.6902499999999918
21
-86.1255000000000024
0
LINE
8
BLACK
6
CONTINUOUS
10
170.6902499999999918
20
-86.1255000000000024
11
170.7739619999999832
21
-86.1421509999999984
0
LINE
8
BLACK
6
CONTINUOUS
10
165.7695290000000057
20
-85.4245540000000005
11
165.848606999999987
21
-85.4773929999999922
0
LINE
8
BLACK
6
CONTINUOUS
10
165.848606999999987
20
-85.4773929999999922
11
165.9014459999999929
21
-85.5564710000000019
0
LINE
8
BLACK
6
CONTINUOUS
10
165.9014459999999929
20
-85.5564710000000019
11
165.9199999999999875
21
-85.6497499999999974
0
LINE
8
BLACK
6
CONTINUOUS
10
165.9199999999999875
20
-85.6497499999999974
11
165.9199999999999875
21
-86.5622499999999917
0
LINE
8
BLACK
6
CONTINUOUS
10
165.9199999999999875
20
-86.5622499999999917
11
165.9014459999999929
21
-86.6555290000000014
0
LINE
8
BLACK
6
CONTINUOUS
10
165.9014459999999929
20
-86.6555290000000014
11
165.848606999999987
21
-86.7346069999999969
0
LINE
8
BLACK
6
CONTINUOUS
10
165.848606999999987
20
-86.7346069999999969
11
165.7695290000000057
21
-86.7874460000000028
0
LINE
8
BLACK
6
CONTINUOUS
10
165.7695290000000057
20
-86.7874460000000028
11
165.6762499999999818
21
-86.8059999999999974
0
LINE
8
BLACK
6
CONTINUOUS
10
165.6762499999999818
20
-86.8059999999999974
11
165.1887499999999989
21
-86.8059999999999974
0
LINE
8
BLACK
6
CONTINUOUS
10
165.1887499999999989
20
-86.8059999999999974
11
165.0954710000000034
21
-86.7874460000000028
0
LINE
8
BLACK
6
CONTINUOUS
10
165.0954710000000034
20
-86.7874460000000028
11
165.0163929999999937
21
-86.7346069999999969
0
LINE
8
BLACK
6
CONTINUOUS
10
165.0163929999999937
20
-86.7346069999999969
11
164.9635539999999878
21
-86.6555290000000014
0
LINE
8
BLACK
6
CONTINUOUS
10
164.9635539999999878
20
-86.6555290000000014
11
164.9449999999999932
21
-86.5622499999999917
0
LINE
8
BLACK
6
CONTINUOUS
10
164.9449999999999932
20
-86.5622499999999917
11
164.9449999999999932
21
-85.6497499999999974
0
LINE
8
BLACK
6
CONTINUOUS
10
164.9449999999999932
20
-85.6497499999999974
11
164.9635539999999878
21
-85.5564710000000019
0
LINE
8
BLACK
6
CONTINUOUS
10
164.9635539999999878
20
-85.5564710000000019
11
165.0163929999999937
21
-85.4773929999999922
0
LINE
8
BLACK
6
CONTINUOUS
10
165.0163929999999937
20
-85.4773929999999922
11
165.0954710000000034
21
-85.4245540000000005
0
LINE
8
BLACK
6
CONTINUOUS
10
165.0954710000000034
20
-85.4245540000000005
11
165.1887499999999989
21
-85.4059999999999917
0
LINE
8
BLACK
6
CONTINUOUS
10
165.1887499999999989
20
-85.4059999999999917
11
165.6762499999999818
21
-85.4059999999999917
0
LINE
8
BLACK
6
CONTINUOUS
10
165.6762499999999818
20
-85.4059999999999917
11
165.7695290000000057
21
-85.4245540000000005
0
LINE
8
BLACK
6
CONTINUOUS
10
167.6445290000000057
20
-85.4245540000000005
11
167.723606999999987
21
-85.4773929999999922
0
LINE
8
BLACK
6
CONTINUOUS
10
167.723606999999987
20
-85.4773929999999922
11
167.7764459999999929
21
-85.5564710000000019
0
LINE
8
BLACK
6
CONTINUOUS
10
167.7764459999999929
20
-85.5564710000000019
11
167.7949999999999875
21
-85.6497499999999974
0
LINE
8
BLACK
6
CONTINUOUS
10
167.7949999999999875
20
-85.6497499999999974
11
167.7949999999999875
21
-86.5622499999999917
0
LINE
8
BLACK
6
CONTINUOUS
10
167.7949999999999875
20
-86.5622499999999917
11
167.7764459999999929
21
-86.6555290000000014
0
LINE
8
BLACK
6
CONTINUOUS
10
167.7764459999999929
20
-86.6555290000000014
11
167.723606999999987
21
-86.7346069999999969
0
LINE
8
BLACK
6
CONTINUOUS
10
167.723606999999987
20
-86.7346069999999969
11
167.6445290000000057
21
-86.7874460000000028
0
LINE
8
BLACK
6
CONTINUOUS
10
167.6445290000000057
20
-86.7874460000000028
11
167.5512499999999818
21
-86.8059999999999974
0
LINE
8
BLACK
6
CONTINUOUS
10
167.5512499999999818
20
-86.8059999999999974
11
167.0637499999999989
21
-86.8059999999999974
0
LINE
8
BLACK
6
CONTINUOUS
10
167.0637499999999989
20
-86.8059999999999974
11
166.9704710000000034
21
-86.7874460000000028
0
LINE
8
BLACK
6
CONTINUOUS
10
166.9704710000000034
20
-86.7874460000000028
11
166.8913929999999937
21
-86.7346069999999969
0
LINE
8
BLACK
6
CONTINUOUS
10
166.8913929999999937
20
-86.7346069999999969
11
166.8385539999999878
21
-86.6555290000000014
0
LINE
8
BLACK
6
CONTINUOUS
10
166.8385539999999878
20
-86.6555290000000014
11
166.8199999999999932
21
-86.5622499999999917
0
LINE
8
BLACK
6
CONTINUOUS
10
166.8199999999999932
20
-86.5622499999999917
11
166.8199999999999932
21
-85.6497499999999974
0
LINE
8
BLACK
6
CONTINUOUS
10
166.8199999999999932
20
-85.6497499999999974
11
166.8385539999999878
21
-85.5564710000000019
0
LINE
8
BLACK
6
CONTINUOUS
10
166.8385539999999878
20
-85.5564710000000019
11
166.8913929999999937
21
-85.4773929999999922
0
LINE
8
BLACK
6
CONTINUOUS
10
166.8913929999999937
20
-85.4773929999999922
11
166.9704710000000034
21
-85.4245540000000005
0
LINE
8
BLACK
6
CONTINUOUS
10
166.9704710000000034
20
-85.4245540000000005
11
167.0637499999999989
21
-85.4059999999999917
0
LINE
8
BLACK
6
CONTINUOUS
10
167.0637499999999989
20
-85.4059999999999917
11
167.5512499999999818
21
-85.4059999999999917
0
LINE
8
BLACK
6
CONTINUOUS
10
167.5512499999999818
20
-85.4059999999999917
11
167.6445290000000057
21
-85.4245540000000005
0
LINE
8
BLACK
6
CONTINUOUS
10
150.9819999999999993
20
-86.527000000000001
11
149.382000000000005
21
-86.527000000000001
0
LINE
8
BLACK
6
CONTINUOUS
10
149.382000000000005
20
-86.527000000000001
11
149.382000000000005
21
-85.9769999999999897
0
LINE
8
BLACK
6
CONTINUOUS
10
149.382000000000005
20
-85.9769999999999897
11
150.9819999999999993
21
-85.9769999999999897
0
LINE
8
BLACK
6
CONTINUOUS
10
150.9819999999999993
20
-85.9769999999999897
11
150.9819999999999993
21
-86.527000000000001
0
LINE
8
BLACK
6
CONTINUOUS
10
159.4819999999999993
20
-86.527000000000001
11
157.882000000000005
21
-86.527000000000001
0
LINE
8
BLACK
6
CONTINUOUS
10
157.882000000000005
20
-86.527000000000001
11
157.882000000000005
21
-85.9769999999999897
0
LINE
8
BLACK
6
CONTINUOUS
10
157.882000000000005
20
-85.9769999999999897
11
159.4819999999999993
21
-85.9769999999999897
0
LINE
8
BLACK
6
CONTINUOUS
10
159.4819999999999993
20
-85.9769999999999897
11
159.4819999999999993
21
-86.527000000000001
0
LINE
8
BLACK
6
CONTINUOUS
10
150.9819999999999993
20
-85.7269999999999897
11
149.382000000000005
21
-85.7269999999999897
0
LINE
8
BLACK
6
CONTINUOUS
10
149.382000000000005
20
-85.7269999999999897
11
149.382000000000005
21
-85.1769999999999925
0
LINE
8
BLACK
6
CONTINUOUS
10
149.382000000000005
20
-85.1769999999999925
11
150.9819999999999993
21
-85.1769999999999925
0
LINE
8
BLACK
6
CONTINUOUS
10
150.9819999999999993
20
-85.1769999999999925
11
150.9819999999999993
21
-85.7269999999999897
0
LINE
8
BLACK
6
CONTINUOUS
10
159.4819999999999993
20
-85.7269999999999897
11
157.882000000000005
21
-85.7269999999999897
0
LINE
8
BLACK
6
CONTINUOUS
10
157.882000000000005
20
-85.7269999999999897
11
157.882000000000005
21
-85.1769999999999925
0
LINE
8
BLACK
6
CONTINUOUS
10
157.882000000000005
20
-85.1769999999999925
11
159.4819999999999993
21
-85.1769999999999925
0
LINE
8
BLACK
6
CONTINUOUS
10
159.4819999999999993
20
-85.1769999999999925
11
159.4819999999999993
21
-85.7269999999999897
0
LINE
8
BLACK
6
CONTINUOUS
10
150.9819999999999993
20
-84.9269999999999925
11
149.382000000000005
21
-84.9269999999999925
0
LINE
8
BLACK
6
CONTINUOUS
10
149.382000000000005
20
-84.9269999999999925
11
149.382000000000005
21
-84.3769999999999953
0
LINE
8
BLACK
6
CONTINUOUS
10
149.382000000000005
20
-84.3769999999999953
11
150.9819999999999993
21
-84.3769999999999953
0
LINE
8
BLACK
6
CONTINUOUS
10
150.9819999999999993
20
-84.3769999999999953
11
150.9819999999999993
21
-84.9269999999999925
0
LINE
8
BLACK
6
CONTINUOUS
10
159.4819999999999993
20
-84.9269999999999925
11
157.882000000000005
21
-84.9269999999999925
0
LINE
8
BLACK
6
CONTINUOUS
10
157.882000000000005
20
-84.9269999999999925
11
157.882000000000005
21
-84.3769999999999953
0
LINE
8
BLACK
6
CONTINUOUS
10
157.882000000000005
20
-84.3769999999999953
11
159.4819999999999993
21
-84.3769999999999953
0
LINE
8
BLACK
6
CONTINUOUS
10
159.4819999999999993
20
-84.3769999999999953
11
159.4819999999999993
21
-84.9269999999999925
0
LINE
8
BLACK
6
CONTINUOUS
10
165.7695290000000057
20
-83.1385539999999992
11
165.848606999999987
21
-83.1913929999999908
0
LINE
8
BLACK
6
CONTINUOUS
10
165.848606999999987
20
-83.1913929999999908
11
165.9014459999999929
21
-83.2704710000000006
0
LINE
8
BLACK
6
CONTINUOUS
10
165.9014459999999929
20
-83.2704710000000006
11
165.9199999999999875
21
-83.363749999999996
0
LINE
8
BLACK
6
CONTINUOUS
10
165.9199999999999875
20
-83.363749999999996
11
165.9199999999999875
21
-84.2762499999999903
0
LINE
8
BLACK
6
CONTINUOUS
10
165.9199999999999875
20
-84.2762499999999903
11
165.9014459999999929
21
-84.369529
0
LINE
8
BLACK
6
CONTINUOUS
10
165.9014459999999929
20
-84.369529
11
165.848606999999987
21
-84.4486069999999955
0
LINE
8
BLACK
6
CONTINUOUS
10
165.848606999999987
20
-84.4486069999999955
11
165.7695290000000057
21
-84.5014460000000014
0
LINE
8
BLACK
6
CONTINUOUS
10
165.7695290000000057
20
-84.5014460000000014
11
165.6762499999999818
21
-84.519999999999996
0
LINE
8
BLACK
6
CONTINUOUS
10
165.6762499999999818
20
-84.519999999999996
11
165.1887499999999989
21
-84.519999999999996
0
LINE
8
BLACK
6
CONTINUOUS
10
165.1887499999999989
20
-84.519999999999996
11
165.0954710000000034
21
-84.5014460000000014
0
LINE
8
BLACK
6
CONTINUOUS
10
165.0954710000000034
20
-84.5014460000000014
11
165.0163929999999937
21
-84.4486069999999955
0
LINE
8
BLACK
6
CONTINUOUS
10
165.0163929999999937
20
-84.4486069999999955
11
164.9635539999999878
21
-84.369529
0
LINE
8
BLACK
6
CONTINUOUS
10
164.9635539999999878
20
-84.369529
11
164.9449999999999932
21
-84.2762499999999903
0
LINE
8
BLACK
6
CONTINUOUS
10
164.9449999999999932
20
-84.2762499999999903
11
164.9449999999999932
21
-83.363749999999996
0
LINE
8
BLACK
6
CONTINUOUS
10
164.9449999999999932
20
-83.363749999999996
11
164.9635539999999878
21
-83.2704710000000006
0
LINE
8
BLACK
6
CONTINUOUS
10
164.9635539999999878
20
-83.2704710000000006
11
165.0163929999999937
21
-83.1913929999999908
0
LINE
8
BLACK
6
CONTINUOUS
10
165.0163929999999937
20
-83.1913929999999908
11
165.0954710000000034
21
-83.1385539999999992
0
LINE
8
BLACK
6
CONTINUOUS
10
165.0954710000000034
20
-83.1385539999999992
11
165.1887499999999989
21
-83.1199999999999903
0
LINE
8
BLACK
6
CONTINUOUS
10
165.1887499999999989
20
-83.1199999999999903
11
165.6762499999999818
21
-83.1199999999999903
0
LINE
8
BLACK
6
CONTINUOUS
10
165.6762499999999818
20
-83.1199999999999903
11
165.7695290000000057
21
-83.1385539999999992
0
LINE
8
BLACK
6
CONTINUOUS
10
167.6445290000000057
20
-83.1385539999999992
11
167.723606999999987
21
-83.1913929999999908
0
LINE
8
BLACK
6
CONTINUOUS
10
167.723606999999987
20
-83.1913929999999908
11
167.7764459999999929
21
-83.2704710000000006
0
LINE
8
BLACK
6
CONTINUOUS
10
167.7764459999999929
20
-83.2704710000000006
11
167.7949999999999875
21
-83.363749999999996
0
LINE
8
BLACK
6
CONTINUOUS
10
167.7949999999999875
20
-83.363749999999996
11
167.7949999999999875
21
-84.2762499999999903
0
LINE
8
BLACK
6
CONTINUOUS
10
167.7949999999999875
20
-84.2762499999999903
11
167.7764459999999929
21
-84.369529
0
LINE
8
BLACK
6
CONTINUOUS
10
167.7764459999999929
20
-84.369529
11
167.723606999999987
21
-84.4486069999999955
0
LINE
8
BLACK
6
CONTINUOUS
10
167.723606999999987
20
-84.4486069999999955
11
167.6445290000000057
21
-84.5014460000000014
0
LINE
8
BLACK
6
CONTINUOUS
10
167.6445290000000057
20
-84.5014460000000014
11
167.5512499999999818
21
-84.519999999999996
0
LINE
8
BLACK
6
CONTINUOUS
10
167.5512499999999818
20
-84.519999999999996
11
167.0637499999999989
21
-84.519999999999996
0
LINE
8
BLACK
6
CONTINUOUS
10
167.0637499999999989
20
-84.519999999999996
11
166.9704710000000034
21
-84.5014460000000014
0
LINE
8
BLACK
6
CONTINUOUS
10
166.9704710000000034
20
-84.5014460000000014
11
166.8913929999999937
21
-84.4486069999999955
0
LINE
8
BLACK
6
CONTINUOUS
10
166.8913929999999937
20
-84.4486069999999955
11
166.8385539999999878
21
-84.369529
0
LINE
8
BLACK
6
CONTINUOUS
10
166.8385539999999878
20
-84.369529
11
166.8199999999999932
21
-84.2762499999999903
0
LINE
8
BLACK
6
CONTINUOUS
10
166.8199999999999932
20
-84.2762499999999903
11
166.8199999999999932
21
-83.363749999999996
0
LINE
8
BLACK
6
CONTINUOUS
10
166.8199999999999932
20
-83.363749999999996
11
166.8385539999999878
21
-83.2704710000000006
0
LINE
8
BLACK
6
CONTINUOUS
10
166.8385539999999878
20
-83.2704710000000006
11
166.8913929999999937
21
-83.1913929999999908
0
LINE
8
BLACK
6
CONTINUOUS
10
166.8913929999999937
20
-83.1913929999999908
11
166.9704710000000034
21
-83.1385539999999992
0
LINE
8
BLACK
6
CONTINUOUS
10
166.9704710000000034
20
-83.1385539999999992
11
167.0637499999999989
21
-83.1199999999999903
0
LINE
8
BLACK
6
CONTINUOUS
10
167.0637499999999989
20
-83.1199999999999903
11
167.5512499999999818
21
-83.1199999999999903
0
LINE
8
BLACK
6
CONTINUOUS
10
167.5512499999999818
20
-83.1199999999999903
11
167.6445290000000057
21
-83.1385539999999992
0
LINE
8
BLACK
6
CONTINUOUS
10
145.304128999999989
20
-83.2725539999999995
11
145.3832069999999987
21
-83.3253929999999912
0
LINE
8
BLACK
6
CONTINUOUS
10
145.3832069999999987
20
-83.3253929999999912
11
145.4360460000000046
21
-83.4044710000000009
0
LINE
8
BLACK
6
CONTINUOUS
10
145.4360460000000046
20
-83.4044710000000009
11
145.4545999999999992
21
-83.4977499999999964
0
LINE
8
BLACK
6
CONTINUOUS
10
145.4545999999999992
20
-83.4977499999999964
11
145.4545999999999992
21
-83.9852499999999935
0
LINE
8
BLACK
6
CONTINUOUS
10
145.4545999999999992
20
-83.9852499999999935
11
145.4360460000000046
21
-84.0785290000000032
0
LINE
8
BLACK
6
CONTINUOUS
10
145.4360460000000046
20
-84.0785290000000032
11
145.3832069999999987
21
-84.1576069999999987
0
LINE
8
BLACK
6
CONTINUOUS
10
145.3832069999999987
20
-84.1576069999999987
11
145.304128999999989
21
-84.2104459999999904
0
LINE
8
BLACK
6
CONTINUOUS
10
145.304128999999989
20
-84.2104459999999904
11
145.2108499999999935
21
-84.2289999999999992
0
LINE
8
BLACK
6
CONTINUOUS
10
145.2108499999999935
20
-84.2289999999999992
11
144.2983499999999992
21
-84.2289999999999992
0
LINE
8
BLACK
6
CONTINUOUS
10
144.2983499999999992
20
-84.2289999999999992
11
144.2050710000000038
21
-84.2104459999999904
0
LINE
8
BLACK
6
CONTINUOUS
10
144.2050710000000038
20
-84.2104459999999904
11
144.125992999999994
21
-84.1576069999999987
0
LINE
8
BLACK
6
CONTINUOUS
10
144.125992999999994
20
-84.1576069999999987
11
144.0731539999999882
21
-84.0785290000000032
0
LINE
8
BLACK
6
CONTINUOUS
10
144.0731539999999882
20
-84.0785290000000032
11
144.0545999999999935
21
-83.9852499999999935
0
LINE
8
BLACK
6
CONTINUOUS
10
144.0545999999999935
20
-83.9852499999999935
11
144.0545999999999935
21
-83.4977499999999964
0
LINE
8
BLACK
6
CONTINUOUS
10
144.0545999999999935
20
-83.4977499999999964
11
144.0731539999999882
21
-83.4044710000000009
0
LINE
8
BLACK
6
CONTINUOUS
10
144.0731539999999882
20
-83.4044710000000009
11
144.125992999999994
21
-83.3253929999999912
0
LINE
8
BLACK
6
CONTINUOUS
10
144.125992999999994
20
-83.3253929999999912
11
144.2050710000000038
21
-83.2725539999999995
0
LINE
8
BLACK
6
CONTINUOUS
10
144.2050710000000038
20
-83.2725539999999995
11
144.2983499999999992
21
-83.2539999999999907
0
LINE
8
BLACK
6
CONTINUOUS
10
144.2983499999999992
20
-83.2539999999999907
11
145.2108499999999935
21
-83.2539999999999907
0
LINE
8
BLACK
6
CONTINUOUS
10
145.2108499999999935
20
-83.2539999999999907
11
145.304128999999989
21
-83.2725539999999995
0
LINE
8
BLACK
6
CONTINUOUS
10
150.9819999999999993
20
-84.1269999999999953
11
149.382000000000005
21
-84.1269999999999953
0
LINE
8
BLACK
6
CONTINUOUS
10
149.382000000000005
20
-84.1269999999999953
11
149.382000000000005
21
-83.5769999999999982
0
LINE
8
BLACK
6
CONTINUOUS
10
149.382000000000005
20
-83.5769999999999982
11
150.9819999999999993
21
-83.5769999999999982
0
LINE
8
BLACK
6
CONTINUOUS
10
150.9819999999999993
20
-83.5769999999999982
11
150.9819999999999993
21
-84.1269999999999953
0
LINE
8
BLACK
6
CONTINUOUS
10
159.4819999999999993
20
-84.1269999999999953
11
157.882000000000005
21
-84.1269999999999953
0
LINE
8
BLACK
6
CONTINUOUS
10
157.882000000000005
20
-84.1269999999999953
11
157.882000000000005
21
-83.5769999999999982
0
LINE
8
BLACK
6
CONTINUOUS
10
157.882000000000005
20
-83.5769999999999982
11
159.4819999999999993
21
-83.5769999999999982
0
LINE
8
BLACK
6
CONTINUOUS
10
159.4819999999999993
20
-83.5769999999999982
11
159.4819999999999993
21
-84.1269999999999953
0
LINE
8
BLACK
6
CONTINUOUS
10
170.7739619999999832
20
-82.6880510000000015
11
170.8449300000000051
21
-82.7354699999999923
0
LINE
8
BLACK
6
CONTINUOUS
10
170.8449300000000051
20
-82.7354699999999923
11
170.8923489999999958
21
-82.806438
0
LINE
8
BLACK
6
CONTINUOUS
10
170.8923489999999958
20
-82.806438
11
170.9089999999999918
21
-82.8901499999999913
0
LINE
8
BLACK
6
CONTINUOUS
10
170.9089999999999918
20
-82.8901499999999913
11
170.9089999999999918
21
-83.3276499999999913
0
LINE
8
BLACK
6
CONTINUOUS
10
170.9089999999999918
20
-83.3276499999999913
11
170.8923489999999958
21
-83.4113619999999969
0
LINE
8
BLACK
6
CONTINUOUS
10
170.8923489999999958
20
-83.4113619999999969
11
170.8449300000000051
21
-83.4823299999999904
0
LINE
8
BLACK
6
CONTINUOUS
10
170.8449300000000051
20
-83.4823299999999904
11
170.7739619999999832
21
-83.5297489999999954
0
LINE
8
BLACK
6
CONTINUOUS
10
170.7739619999999832
20
-83.5297489999999954
11
170.6902499999999918
21
-83.5463999999999913
0
LINE
8
BLACK
6
CONTINUOUS
10
170.6902499999999918
20
-83.5463999999999913
11
170.1777500000000032
21
-83.5463999999999913
0
LINE
8
BLACK
6
CONTINUOUS
10
170.1777500000000032
20
-83.5463999999999913
11
170.0940379999999834
21
-83.5297489999999954
0
LINE
8
BLACK
6
CONTINUOUS
10
170.0940379999999834
20
-83.5297489999999954
11
170.0230699999999899
21
-83.4823299999999904
0
LINE
8
BLACK
6
CONTINUOUS
10
170.0230699999999899
20
-83.4823299999999904
11
169.9756509999999992
21
-83.4113619999999969
0
LINE
8
BLACK
6
CONTINUOUS
10
169.9756509999999992
20
-83.4113619999999969
11
169.9590000000000032
21
-83.3276499999999913
0
LINE
8
BLACK
6
CONTINUOUS
10
169.9590000000000032
20
-83.3276499999999913
11
169.9590000000000032
21
-82.8901499999999913
0
LINE
8
BLACK
6
CONTINUOUS
10
169.9590000000000032
20
-82.8901499999999913
11
169.9756509999999992
21
-82.806438
0
LINE
8
BLACK
6
CONTINUOUS
10
169.9756509999999992
20
-82.806438
11
170.0230699999999899
21
-82.7354699999999923
0
LINE
8
BLACK
6
CONTINUOUS
10
170.0230699999999899
20
-82.7354699999999923
11
170.0940379999999834
21
-82.6880510000000015
0
LINE
8
BLACK
6
CONTINUOUS
10
170.0940379999999834
20
-82.6880510000000015
11
170.1777500000000032
21
-82.6713999999999913
0
LINE
8
BLACK
6
CONTINUOUS
10
170.1777500000000032
20
-82.6713999999999913
11
170.6902499999999918
21
-82.6713999999999913
0
LINE
8
BLACK
6
CONTINUOUS
10
170.6902499999999918
20
-82.6713999999999913
11
170.7739619999999832
21
-82.6880510000000015
0
LINE
8
BLACK
6
CONTINUOUS
10
162.93172899999999
20
-82.5359539999999896
11
163.0108069999999998
21
-82.5887929999999955
0
LINE
8
BLACK
6
CONTINUOUS
10
163.0108069999999998
20
-82.5887929999999955
11
163.0636460000000056
21
-82.667870999999991
0
LINE
8
BLACK
6
CONTINUOUS
10
163.0636460000000056
20
-82.667870999999991
11
163.0822000000000003
21
-82.7611500000000007
0
LINE
8
BLACK
6
CONTINUOUS
10
163.0822000000000003
20
-82.7611500000000007
11
163.0822000000000003
21
-83.2486499999999978
0
LINE
8
BLACK
6
CONTINUOUS
10
163.0822000000000003
20
-83.2486499999999978
11
163.0636460000000056
21
-83.3419289999999933
0
LINE
8
BLACK
6
CONTINUOUS
10
163.0636460000000056
20
-83.3419289999999933
11
163.0108069999999998
21
-83.421007000000003
0
LINE
8
BLACK
6
CONTINUOUS
10
163.0108069999999998
20
-83.421007000000003
11
162.93172899999999
21
-83.4738459999999947
0
LINE
8
BLACK
6
CONTINUOUS
10
162.93172899999999
20
-83.4738459999999947
11
162.8384499999999946
21
-83.4923999999999893
0
LINE
8
BLACK
6
CONTINUOUS
10
162.8384499999999946
20
-83.4923999999999893
11
161.9259500000000003
21
-83.4923999999999893
0
LINE
8
BLACK
6
CONTINUOUS
10
161.9259500000000003
20
-83.4923999999999893
11
161.8326710000000048
21
-83.4738459999999947
0
LINE
8
BLACK
6
CONTINUOUS
10
161.8326710000000048
20
-83.4738459999999947
11
161.7535929999999951
21
-83.421007000000003
0
LINE
8
BLACK
6
CONTINUOUS
10
161.7535929999999951
20
-83.421007000000003
11
161.7007539999999892
21
-83.3419289999999933
0
LINE
8
BLACK
6
CONTINUOUS
10
161.7007539999999892
20
-83.3419289999999933
11
161.6821999999999946
21
-83.2486499999999978
0
LINE
8
BLACK
6
CONTINUOUS
10
161.6821999999999946
20
-83.2486499999999978
11
161.6821999999999946
21
-82.7611500000000007
0
LINE
8
BLACK
6
CONTINUOUS
10
161.6821999999999946
20
-82.7611500000000007
11
161.7007539999999892
21
-82.667870999999991
0
LINE
8
BLACK
6
CONTINUOUS
10
161.7007539999999892
20
-82.667870999999991
11
161.7535929999999951
21
-82.5887929999999955
0
LINE
8
BLACK
6
CONTINUOUS
10
161.7535929999999951
20
-82.5887929999999955
11
161.8326710000000048
21
-82.5359539999999896
0
LINE
8
BLACK
6
CONTINUOUS
10
161.8326710000000048
20
-82.5359539999999896
11
161.9259500000000003
21
-82.517399999999995
0
LINE
8
BLACK
6
CONTINUOUS
10
161.9259500000000003
20
-82.517399999999995
11
162.8384499999999946
21
-82.517399999999995
0
LINE
8
BLACK
6
CONTINUOUS
10
162.8384499999999946
20
-82.517399999999995
11
162.93172899999999
21
-82.5359539999999896
0
LINE
8
BLACK
6
CONTINUOUS
10
150.9819999999999993
20
-83.3269999999999982
11
149.382000000000005
21
-83.3269999999999982
0
LINE
8
BLACK
6
CONTINUOUS
10
149.382000000000005
20
-83.3269999999999982
11
149.382000000000005
21
-82.777000000000001
0
LINE
8
BLACK
6
CONTINUOUS
10
149.382000000000005
20
-82.777000000000001
11
150.9819999999999993
21
-82.777000000000001
0
LINE
8
BLACK
6
CONTINUOUS
10
150.9819999999999993
20
-82.777000000000001
11
150.9819999999999993
21
-83.3269999999999982
0
LINE
8
BLACK
6
CONTINUOUS
10
159.4819999999999993
20
-83.3269999999999982
11
157.882000000000005
21
-83.3269999999999982
0
LINE
8
BLACK
6
CONTINUOUS
10
157.882000000000005
20
-83.3269999999999982
11
157.882000000000005
21
-82.777000000000001
0
LINE
8
BLACK
6
CONTINUOUS
10
157.882000000000005
20
-82.777000000000001
11
159.4819999999999993
21
-82.777000000000001
0
LINE
8
BLACK
6
CONTINUOUS
10
159.4819999999999993
20
-82.777000000000001
11
159.4819999999999993
21
-83.3269999999999982
0
LINE
8
BLACK
6
CONTINUOUS
10
151.9069999999999823
20
-82.402000000000001
11
151.3569999999999993
21
-82.402000000000001
0
LINE
8
BLACK
6
CONTINUOUS
10
151.3569999999999993
20
-82.402000000000001
11
151.3569999999999993
21
-80.8019999999999925
0
LINE
8
BLACK
6
CONTINUOUS
10
151.3569999999999993
20
-80.8019999999999925
11
151.9069999999999823
21
-80.8019999999999925
0
LINE
8
BLACK
6
CONTINUOUS
10
151.9069999999999823
20
-80.8019999999999925
11
151.9069999999999823
21
-82.402000000000001
0
LINE
8
BLACK
6
CONTINUOUS
10
152.7069999999999936
20
-82.402000000000001
11
152.1569999999999823
21
-82.402000000000001
0
LINE
8
BLACK
6
CONTINUOUS
10
152.1569999999999823
20
-82.402000000000001
11
152.1569999999999823
21
-80.8019999999999925
0
LINE
8
BLACK
6
CONTINUOUS
10
152.1569999999999823
20
-80.8019999999999925
11
152.7069999999999936
21
-80.8019999999999925
0
LINE
8
BLACK
6
CONTINUOUS
10
152.7069999999999936
20
-80.8019999999999925
11
152.7069999999999936
21
-82.402000000000001
0
LINE
8
BLACK
6
CONTINUOUS
10
153.507000000000005
20
-82.402000000000001
11
152.9569999999999936
21
-82.402000000000001
0
LINE
8
BLACK
6
CONTINUOUS
10
152.9569999999999936
20
-82.402000000000001
11
152.9569999999999936
21
-80.8019999999999925
0
LINE
8
BLACK
6
CONTINUOUS
10
152.9569999999999936
20
-80.8019999999999925
11
153.507000000000005
21
-80.8019999999999925
0
LINE
8
BLACK
6
CONTINUOUS
10
153.507000000000005
20
-80.8019999999999925
11
153.507000000000005
21
-82.402000000000001
0
LINE
8
BLACK
6
CONTINUOUS
10
154.3069999999999879
20
-82.402000000000001
11
153.757000000000005
21
-82.402000000000001
0
LINE
8
BLACK
6
CONTINUOUS
10
153.757000000000005
20
-82.402000000000001
11
153.757000000000005
21
-80.8019999999999925
0
LINE
8
BLACK
6
CONTINUOUS
10
153.757000000000005
20
-80.8019999999999925
11
154.3069999999999879
21
-80.8019999999999925
0
LINE
8
BLACK
6
CONTINUOUS
10
154.3069999999999879
20
-80.8019999999999925
11
154.3069999999999879
21
-82.402000000000001
0
LINE
8
BLACK
6
CONTINUOUS
10
155.1069999999999993
20
-82.402000000000001
11
154.5569999999999879
21
-82.402000000000001
0
LINE
8
BLACK
6
CONTINUOUS
10
154.5569999999999879
20
-82.402000000000001
11
154.5569999999999879
21
-80.8019999999999925
0
LINE
8
BLACK
6
CONTINUOUS
10
154.5569999999999879
20
-80.8019999999999925
11
155.1069999999999993
21
-80.8019999999999925
0
LINE
8
BLACK
6
CONTINUOUS
10
155.1069999999999993
20
-80.8019999999999925
11
155.1069999999999993
21
-82.402000000000001
0
LINE
8
BLACK
6
CONTINUOUS
10
155.9069999999999823
20
-82.402000000000001
11
155.3569999999999993
21
-82.402000000000001
0
LINE
8
BLACK
6
CONTINUOUS
10
155.3569999999999993
20
-82.402000000000001
11
155.3569999999999993
21
-80.8019999999999925
0
LINE
8
BLACK
6
CONTINUOUS
10
155.3569999999999993
20
-80.8019999999999925
11
155.9069999999999823
21
-80.8019999999999925
0
LINE
8
BLACK
6
CONTINUOUS
10
155.9069999999999823
20
-80.8019999999999925
11
155.9069999999999823
21
-82.402000000000001
0
LINE
8
BLACK
6
CONTINUOUS
10
156.7069999999999936
20
-82.402000000000001
11
156.1569999999999823
21
-82.402000000000001
0
LINE
8
BLACK
6
CONTINUOUS
10
156.1569999999999823
20
-82.402000000000001
11
156.1569999999999823
21
-80.8019999999999925
0
LINE
8
BLACK
6
CONTINUOUS
10
156.1569999999999823
20
-80.8019999999999925
11
156.7069999999999936
21
-80.8019999999999925
0
LINE
8
BLACK
6
CONTINUOUS
10
156.7069999999999936
20
-80.8019999999999925
11
156.7069999999999936
21
-82.402000000000001
0
LINE
8
BLACK
6
CONTINUOUS
10
157.507000000000005
20
-82.402000000000001
11
156.9569999999999936
21
-82.402000000000001
0
LINE
8
BLACK
6
CONTINUOUS
10
156.9569999999999936
20
-82.402000000000001
11
156.9569999999999936
21
-80.8019999999999925
0
LINE
8
BLACK
6
CONTINUOUS
10
156.9569999999999936
20
-80.8019999999999925
11
157.507000000000005
21
-80.8019999999999925
0
LINE
8
BLACK
6
CONTINUOUS
10
157.507000000000005
20
-80.8019999999999925
11
157.507000000000005
21
-82.402000000000001
0
LINE
8
BLACK
6
CONTINUOUS
10
145.304128999999989
20
-81.3975539999999995
11
145.3832069999999987
21
-81.4503929999999912
0
LINE
8
BLACK
6
CONTINUOUS
10
145.3832069999999987
20
-81.4503929999999912
11
145.4360460000000046
21
-81.5294710000000009
0
LINE
8
BLACK
6
CONTINUOUS
10
145.4360460000000046
20
-81.5294710000000009
11
145.4545999999999992
21
-81.6227499999999964
0
LINE
8
BLACK
6
CONTINUOUS
10
145.4545999999999992
20
-81.6227499999999964
11
145.4545999999999992
21
-82.1102499999999935
0
LINE
8
BLACK
6
CONTINUOUS
10
145.4545999999999992
20
-82.1102499999999935
11
145.4360460000000046
21
-82.2035290000000032
0
LINE
8
BLACK
6
CONTINUOUS
10
145.4360460000000046
20
-82.2035290000000032
11
145.3832069999999987
21
-82.2826069999999987
0
LINE
8
BLACK
6
CONTINUOUS
10
145.3832069999999987
20
-82.2826069999999987
11
145.304128999999989
21
-82.3354459999999904
0
LINE
8
BLACK
6
CONTINUOUS
10
145.304128999999989
20
-82.3354459999999904
11
145.2108499999999935
21
-82.3539999999999992
0
LINE
8
BLACK
6
CONTINUOUS
10
145.2108499999999935
20
-82.3539999999999992
11
144.2983499999999992
21
-82.3539999999999992
0
LINE
8
BLACK
6
CONTINUOUS
10
144.2983499999999992
20
-82.3539999999999992
11
144.2050710000000038
21
-82.3354459999999904
0
LINE
8
BLACK
6
CONTINUOUS
10
144.2050710000000038
20
-82.3354459999999904
11
144.125992999999994
21
-82.2826069999999987
0
LINE
8
BLACK
6
CONTINUOUS
10
144.125992999999994
20
-82.2826069999999987
11
144.0731539999999882
21
-82.2035290000000032
0
LINE
8
BLACK
6
CONTINUOUS
10
144.0731539999999882
20
-82.2035290000000032
11
144.0545999999999935
21
-82.1102499999999935
0
LINE
8
BLACK
6
CONTINUOUS
10
144.0545999999999935
20
-82.1102499999999935
11
144.0545999999999935
21
-81.6227499999999964
0
LINE
8
BLACK
6
CONTINUOUS
10
144.0545999999999935
20
-81.6227499999999964
11
144.0731539999999882
21
-81.5294710000000009
0
LINE
8
BLACK
6
CONTINUOUS
10
144.0731539999999882
20
-81.5294710000000009
11
144.125992999999994
21
-81.4503929999999912
0
LINE
8
BLACK
6
CONTINUOUS
10
144.125992999999994
20
-81.4503929999999912
11
144.2050710000000038
21
-81.3975539999999995
0
LINE
8
BLACK
6
CONTINUOUS
10
144.2050710000000038
20
-81.3975539999999995
11
144.2983499999999992
21
-81.3789999999999907
0
LINE
8
BLACK
6
CONTINUOUS
10
144.2983499999999992
20
-81.3789999999999907
11
145.2108499999999935
21
-81.3789999999999907
0
LINE
8
BLACK
6
CONTINUOUS
10
145.2108499999999935
20
-81.3789999999999907
11
145.304128999999989
21
-81.3975539999999995
0
LINE
8
BLACK
6
CONTINUOUS
10
170.7739619999999832
20
-81.1130509999999987
11
170.8449300000000051
21
-81.1604699999999895
0
LINE
8
BLACK
6
CONTINUOUS
10
170.8449300000000051
20
-81.1604699999999895
11
170.8923489999999958
21
-81.2314379999999971
0
LINE
8
BLACK
6
CONTINUOUS
10
170.8923489999999958
20
-81.2314379999999971
11
170.9089999999999918
21
-81.3151500000000027
0
LINE
8
BLACK
6
CONTINUOUS
10
170.9089999999999918
20
-81.3151500000000027
11
170.9089999999999918
21
-81.7526500000000027
0
LINE
8
BLACK
6
CONTINUOUS
10
170.9089999999999918
20
-81.7526500000000027
11
170.8923489999999958
21
-81.8363619999999941
0
LINE
8
BLACK
6
CONTINUOUS
10
170.8923489999999958
20
-81.8363619999999941
11
170.8449300000000051
21
-81.9073300000000017
0
LINE
8
BLACK
6
CONTINUOUS
10
170.8449300000000051
20
-81.9073300000000017
11
170.7739619999999832
21
-81.9547489999999925
0
LINE
8
BLACK
6
CONTINUOUS
10
170.7739619999999832
20
-81.9547489999999925
11
170.6902499999999918
21
-81.9714000000000027
0
LINE
8
BLACK
6
CONTINUOUS
10
170.6902499999999918
20
-81.9714000000000027
11
170.1777500000000032
21
-81.9714000000000027
0
LINE
8
BLACK
6
CONTINUOUS
10
170.1777500000000032
20
-81.9714000000000027
11
170.0940379999999834
21
-81.9547489999999925
0
LINE
8
BLACK
6
CONTINUOUS
10
170.0940379999999834
20
-81.9547489999999925
11
170.0230699999999899
21
-81.9073300000000017
0
LINE
8
BLACK
6
CONTINUOUS
10
170.0230699999999899
20
-81.9073300000000017
11
169.9756509999999992
21
-81.8363619999999941
0
LINE
8
BLACK
6
CONTINUOUS
10
169.9756509999999992
20
-81.8363619999999941
11
169.9590000000000032
21
-81.7526500000000027
0
LINE
8
BLACK
6
CONTINUOUS
10
169.9590000000000032
20
-81.7526500000000027
11
169.9590000000000032
21
-81.3151500000000027
0
LINE
8
BLACK
6
CONTINUOUS
10
169.9590000000000032
20
-81.3151500000000027
11
169.9756509999999992
21
-81.2314379999999971
0
LINE
8
BLACK
6
CONTINUOUS
10
169.9756509999999992
20
-81.2314379999999971
11
170.0230699999999899
21
-81.1604699999999895
0
LINE
8
BLACK
6
CONTINUOUS
10
170.0230699999999899
20
-81.1604699999999895
11
170.0940379999999834
21
-81.1130509999999987
0
LINE
8
BLACK
6
CONTINUOUS
10
170.0940379999999834
20
-81.1130509999999987
11
170.1777500000000032
21
-81.0964000000000027
0
LINE
8
BLACK
6
CONTINUOUS
10
170.1777500000000032
20
-81.0964000000000027
11
170.6902499999999918
21
-81.0964000000000027
0
LINE
8
BLACK
6
CONTINUOUS
10
170.6902499999999918
20
-81.0964000000000027
11
170.7739619999999832
21
-81.1130509999999987
0
LINE
8
BLACK
6
CONTINUOUS
10
162.93172899999999
20
-80.6609539999999896
11
163.0108069999999998
21
-80.7137929999999955
0
LINE
8
BLACK
6
CONTINUOUS
10
163.0108069999999998
20
-80.7137929999999955
11
163.0636460000000056
21
-80.792870999999991
0
LINE
8
BLACK
6
CONTINUOUS
10
163.0636460000000056
20
-80.792870999999991
11
163.0822000000000003
21
-80.8861500000000007
0
LINE
8
BLACK
6
CONTINUOUS
10
163.0822000000000003
20
-80.8861500000000007
11
163.0822000000000003
21
-81.3736499999999978
0
LINE
8
BLACK
6
CONTINUOUS
10
163.0822000000000003
20
-81.3736499999999978
11
163.0636460000000056
21
-81.4669289999999933
0
LINE
8
BLACK
6
CONTINUOUS
10
163.0636460000000056
20
-81.4669289999999933
11
163.0108069999999998
21
-81.546007000000003
0
LINE
8
BLACK
6
CONTINUOUS
10
163.0108069999999998
20
-81.546007000000003
11
162.93172899999999
21
-81.5988459999999947
0
LINE
8
BLACK
6
CONTINUOUS
10
162.93172899999999
20
-81.5988459999999947
11
162.8384499999999946
21
-81.6173999999999893
0
LINE
8
BLACK
6
CONTINUOUS
10
162.8384499999999946
20
-81.6173999999999893
11
161.9259500000000003
21
-81.6173999999999893
0
LINE
8
BLACK
6
CONTINUOUS
10
161.9259500000000003
20
-81.6173999999999893
11
161.8326710000000048
21
-81.5988459999999947
0
LINE
8
BLACK
6
CONTINUOUS
10
161.8326710000000048
20
-81.5988459999999947
11
161.7535929999999951
21
-81.546007000000003
0
LINE
8
BLACK
6
CONTINUOUS
10
161.7535929999999951
20
-81.546007000000003
11
161.7007539999999892
21
-81.4669289999999933
0
LINE
8
BLACK
6
CONTINUOUS
10
161.7007539999999892
20
-81.4669289999999933
11
161.6821999999999946
21
-81.3736499999999978
0
LINE
8
BLACK
6
CONTINUOUS
10
161.6821999999999946
20
-81.3736499999999978
11
161.6821999999999946
21
-80.8861500000000007
0
LINE
8
BLACK
6
CONTINUOUS
10
161.6821999999999946
20
-80.8861500000000007
11
161.7007539999999892
21
-80.792870999999991
0
LINE
8
BLACK
6
CONTINUOUS
10
161.7007539999999892
20
-80.792870999999991
11
161.7535929999999951
21
-80.7137929999999955
0
LINE
8
BLACK
6
CONTINUOUS
10
161.7535929999999951
20
-80.7137929999999955
11
161.8326710000000048
21
-80.6609539999999896
0
LINE
8
BLACK
6
CONTINUOUS
10
161.8326710000000048
20
-80.6609539999999896
11
161.9259500000000003
21
-80.642399999999995
0
LINE
8
BLACK
6
CONTINUOUS
10
161.9259500000000003
20
-80.642399999999995
11
162.8384499999999946
21
-80.642399999999995
0
LINE
8
BLACK
6
CONTINUOUS
10
162.8384499999999946
20
-80.642399999999995
11
162.93172899999999
21
-80.6609539999999896
0
LINE
8
BLACK
6
CONTINUOUS
10
145.304128999999989
20
-79.4371539999999925
11
145.3832069999999987
21
-79.4899929999999983
0
LINE
8
BLACK
6
CONTINUOUS
10
145.3832069999999987
20
-79.4899929999999983
11
145.4360460000000046
21
-79.5690709999999939
0
LINE
8
BLACK
6
CONTINUOUS
10
145.4360460000000046
20
-79.5690709999999939
11
145.4545999999999992
21
-79.6623499999999893
0
LINE
8
BLACK
6
CONTINUOUS
10
145.4545999999999992
20
-79.6623499999999893
11
145.4545999999999992
21
-80.1498500000000007
0
LINE
8
BLACK
6
CONTINUOUS
10
145.4545999999999992
20
-80.1498500000000007
11
145.4360460000000046
21
-80.2431289999999962
0
LINE
8
BLACK
6
CONTINUOUS
10
145.4360460000000046
20
-80.2431289999999962
11
145.3832069999999987
21
-80.3222069999999917
0
LINE
8
BLACK
6
CONTINUOUS
10
145.3832069999999987
20
-80.3222069999999917
11
145.304128999999989
21
-80.3750459999999975
0
LINE
8
BLACK
6
CONTINUOUS
10
145.304128999999989
20
-80.3750459999999975
11
145.2108499999999935
21
-80.3935999999999922
0
LINE
8
BLACK
6
CONTINUOUS
10
145.2108499999999935
20
-80.3935999999999922
11
144.2983499999999992
21
-80.3935999999999922
0
LINE
8
BLACK
6
CONTINUOUS
10
144.2983499999999992
20
-80.3935999999999922
11
144.2050710000000038
21
-80.3750459999999975
0
LINE
8
BLACK
6
CONTINUOUS
10
144.2050710000000038
20
-80.3750459999999975
11
144.125992999999994
21
-80.3222069999999917
0
LINE
8
BLACK
6
CONTINUOUS
10
144.125992999999994
20
-80.3222069999999917
11
144.0731539999999882
21
-80.2431289999999962
0
LINE
8
BLACK
6
CONTINUOUS
10
144.0731539999999882
20
-80.2431289999999962
11
144.0545999999999935
21
-80.1498500000000007
0
LINE
8
BLACK
6
CONTINUOUS
10
144.0545999999999935
20
-80.1498500000000007
11
144.0545999999999935
21
-79.6623499999999893
0
LINE
8
BLACK
6
CONTINUOUS
10
144.0545999999999935
20
-79.6623499999999893
11
144.0731539999999882
21
-79.5690709999999939
0
LINE
8
BLACK
6
CONTINUOUS
10
144.0731539999999882
20
-79.5690709999999939
11
144.125992999999994
21
-79.4899929999999983
0
LINE
8
BLACK
6
CONTINUOUS
10
144.125992999999994
20
-79.4899929999999983
11
144.2050710000000038
21
-79.4371539999999925
0
LINE
8
BLACK
6
CONTINUOUS
10
144.2050710000000038
20
-79.4371539999999925
11
144.2983499999999992
21
-79.4185999999999979
0
LINE
8
BLACK
6
CONTINUOUS
10
144.2983499999999992
20
-79.4185999999999979
11
145.2108499999999935
21
-79.4185999999999979
0
LINE
8
BLACK
6
CONTINUOUS
10
145.2108499999999935
20
-79.4185999999999979
11
145.304128999999989
21
-79.4371539999999925
0
LINE
8
BLACK
6
CONTINUOUS
10
153.3743289999999888
20
-78.1855539999999962
11
153.4534069999999986
21
-78.2383930000000021
0
LINE
8
BLACK
6
CONTINUOUS
10
153.4534069999999986
20
-78.2383930000000021
11
153.5062460000000044
21
-78.3174709999999976
0
LINE
8
BLACK
6
CONTINUOUS
10
153.5062460000000044
20
-78.3174709999999976
11
153.524799999999999
21
-78.4107499999999931
0
LINE
8
BLACK
6
CONTINUOUS
10
153.524799999999999
20
-78.4107499999999931
11
153.524799999999999
21
-79.3232500000000016
0
LINE
8
BLACK
6
CONTINUOUS
10
153.524799999999999
20
-79.3232500000000016
11
153.5062460000000044
21
-79.416528999999997
0
LINE
8
BLACK
6
CONTINUOUS
10
153.5062460000000044
20
-79.416528999999997
11
153.4534069999999986
21
-79.4956069999999926
0
LINE
8
BLACK
6
CONTINUOUS
10
153.4534069999999986
20
-79.4956069999999926
11
153.3743289999999888
21
-79.5484459999999984
0
LINE
8
BLACK
6
CONTINUOUS
10
153.3743289999999888
20
-79.5484459999999984
11
153.2810499999999934
21
-79.5669999999999931
0
LINE
8
BLACK
6
CONTINUOUS
10
153.2810499999999934
20
-79.5669999999999931
11
152.793549999999982
21
-79.5669999999999931
0
LINE
8
BLACK
6
CONTINUOUS
10
152.793549999999982
20
-79.5669999999999931
11
152.7002709999999865
21
-79.5484459999999984
0
LINE
8
BLACK
6
CONTINUOUS
10
152.7002709999999865
20
-79.5484459999999984
11
152.6211930000000052
21
-79.4956069999999926
0
LINE
8
BLACK
6
CONTINUOUS
10
152.6211930000000052
20
-79.4956069999999926
11
152.5683539999999994
21
-79.416528999999997
0
LINE
8
BLACK
6
CONTINUOUS
10
152.5683539999999994
20
-79.416528999999997
11
152.5498000000000047
21
-79.3232500000000016
0
LINE
8
BLACK
6
CONTINUOUS
10
152.5498000000000047
20
-79.3232500000000016
11
152.5498000000000047
21
-78.4107499999999931
0
LINE
8
BLACK
6
CONTINUOUS
10
152.5498000000000047
20
-78.4107499999999931
11
152.5683539999999994
21
-78.3174709999999976
0
LINE
8
BLACK
6
CONTINUOUS
10
152.5683539999999994
20
-78.3174709999999976
11
152.6211930000000052
21
-78.2383930000000021
0
LINE
8
BLACK
6
CONTINUOUS
10
152.6211930000000052
20
-78.2383930000000021
11
152.7002709999999865
21
-78.1855539999999962
0
LINE
8
BLACK
6
CONTINUOUS
10
152.7002709999999865
20
-78.1855539999999962
11
152.793549999999982
21
-78.1670000000000016
0
LINE
8
BLACK
6
CONTINUOUS
10
152.793549999999982
20
-78.1670000000000016
11
153.2810499999999934
21
-78.1670000000000016
0
LINE
8
BLACK
6
CONTINUOUS
10
153.2810499999999934
20
-78.1670000000000016
11
153.3743289999999888
21
-78.1855539999999962
0
LINE
8
BLACK
6
CONTINUOUS
10
155.2493289999999888
20
-78.1855539999999962
11
155.3284069999999986
21
-78.2383930000000021
0
LINE
8
BLACK
6
CONTINUOUS
10
155.3284069999999986
20
-78.2383930000000021
11
155.3812460000000044
21
-78.3174709999999976
0
LINE
8
BLACK
6
CONTINUOUS
10
155.3812460000000044
20
-78.3174709999999976
11
155.399799999999999
21
-78.4107499999999931
0
LINE
8
BLACK
6
CONTINUOUS
10
155.399799999999999
20
-78.4107499999999931
11
155.399799999999999
21
-79.3232500000000016
0
LINE
8
BLACK
6
CONTINUOUS
10
155.399799999999999
20
-79.3232500000000016
11
155.3812460000000044
21
-79.416528999999997
0
LINE
8
BLACK
6
CONTINUOUS
10
155.3812460000000044
20
-79.416528999999997
11
155.3284069999999986
21
-79.4956069999999926
0
LINE
8
BLACK
6
CONTINUOUS
10
155.3284069999999986
20
-79.4956069999999926
11
155.2493289999999888
21
-79.5484459999999984
0
LINE
8
BLACK
6
CONTINUOUS
10
155.2493289999999888
20
-79.5484459999999984
11
155.1560499999999934
21
-79.5669999999999931
0
LINE
8
BLACK
6
CONTINUOUS
10
155.1560499999999934
20
-79.5669999999999931
11
154.668549999999982
21
-79.5669999999999931
0
LINE
8
BLACK
6
CONTINUOUS
10
154.668549999999982
20
-79.5669999999999931
11
154.5752709999999865
21
-79.5484459999999984
0
LINE
8
BLACK
6
CONTINUOUS
10
154.5752709999999865
20
-79.5484459999999984
11
154.4961930000000052
21
-79.4956069999999926
0
LINE
8
BLACK
6
CONTINUOUS
10
154.4961930000000052
20
-79.4956069999999926
11
154.4433539999999994
21
-79.416528999999997
0
LINE
8
BLACK
6
CONTINUOUS
10
154.4433539999999994
20
-79.416528999999997
11
154.4248000000000047
21
-79.3232500000000016
0
LINE
8
BLACK
6
CONTINUOUS
10
154.4248000000000047
20
-79.3232500000000016
11
154.4248000000000047
21
-78.4107499999999931
0
LINE
8
BLACK
6
CONTINUOUS
10
154.4248000000000047
20
-78.4107499999999931
11
154.4433539999999994
21
-78.3174709999999976
0
LINE
8
BLACK
6
CONTINUOUS
10
154.4433539999999994
20
-78.3174709999999976
11
154.4961930000000052
21
-78.2383930000000021
0
LINE
8
BLACK
6
CONTINUOUS
10
154.4961930000000052
20
-78.2383930000000021
11
154.5752709999999865
21
-78.1855539999999962
0
LINE
8
BLACK
6
CONTINUOUS
10
154.5752709999999865
20
-78.1855539999999962
11
154.668549999999982
21
-78.1670000000000016
0
LINE
8
BLACK
6
CONTINUOUS
10
154.668549999999982
20
-78.1670000000000016
11
155.1560499999999934
21
-78.1670000000000016
0
LINE
8
BLACK
6
CONTINUOUS
10
155.1560499999999934
20
-78.1670000000000016
11
155.2493289999999888
21
-78.1855539999999962
0
LINE
8
BLACK
6
CONTINUOUS
10
166.1646709999999985
20
-75.5350299999999919
11
166.2457770000000039
21
-75.5892229999999898
0
LINE
8
BLACK
6
CONTINUOUS
10
166.2457770000000039
20
-75.5892229999999898
11
166.2999700000000018
21
-75.6703289999999953
0
LINE
8
BLACK
6
CONTINUOUS
10
166.2999700000000018
20
-75.6703289999999953
11
166.3189999999999884
21
-75.7659999999999911
0
LINE
8
BLACK
6
CONTINUOUS
10
166.3189999999999884
20
-75.7659999999999911
11
166.3189999999999884
21
-78.6659999999999968
0
LINE
8
BLACK
6
CONTINUOUS
10
166.3189999999999884
20
-78.6659999999999968
11
166.2999700000000018
21
-78.7616709999999927
0
LINE
8
BLACK
6
CONTINUOUS
10
166.2999700000000018
20
-78.7616709999999927
11
166.2457770000000039
21
-78.8427769999999981
0
LINE
8
BLACK
6
CONTINUOUS
10
166.2457770000000039
20
-78.8427769999999981
11
166.1646709999999985
21
-78.896969999999996
0
LINE
8
BLACK
6
CONTINUOUS
10
166.1646709999999985
20
-78.896969999999996
11
166.0689999999999884
21
-78.9159999999999968
0
LINE
8
BLACK
6
CONTINUOUS
10
166.0689999999999884
20
-78.9159999999999968
11
165.4439999999999884
21
-78.9159999999999968
0
LINE
8
BLACK
6
CONTINUOUS
10
165.4439999999999884
20
-78.9159999999999968
11
165.3483289999999784
21
-78.896969999999996
0
LINE
8
BLACK
6
CONTINUOUS
10
165.3483289999999784
20
-78.896969999999996
11
165.2672230000000013
21
-78.8427769999999981
0
LINE
8
BLACK
6
CONTINUOUS
10
165.2672230000000013
20
-78.8427769999999981
11
165.2130300000000034
21
-78.7616709999999927
0
LINE
8
BLACK
6
CONTINUOUS
10
165.2130300000000034
20
-78.7616709999999927
11
165.1939999999999884
21
-78.6659999999999968
0
LINE
8
BLACK
6
CONTINUOUS
10
165.1939999999999884
20
-78.6659999999999968
11
165.1939999999999884
21
-75.7659999999999911
0
LINE
8
BLACK
6
CONTINUOUS
10
165.1939999999999884
20
-75.7659999999999911
11
165.2130300000000034
21
-75.6703289999999953
0
LINE
8
BLACK
6
CONTINUOUS
10
165.2130300000000034
20
-75.6703289999999953
11
165.2672230000000013
21
-75.5892229999999898
0
LINE
8
BLACK
6
CONTINUOUS
10
165.2672230000000013
20
-75.5892229999999898
11
165.3483289999999784
21
-75.5350299999999919
0
LINE
8
BLACK
6
CONTINUOUS
10
165.3483289999999784
20
-75.5350299999999919
11
165.4439999999999884
21
-75.5159999999999911
0
LINE
8
BLACK
6
CONTINUOUS
10
165.4439999999999884
20
-75.5159999999999911
11
166.0689999999999884
21
-75.5159999999999911
0
LINE
8
BLACK
6
CONTINUOUS
10
166.0689999999999884
20
-75.5159999999999911
11
166.1646709999999985
21
-75.5350299999999919
0
LINE
8
BLACK
6
CONTINUOUS
10
170.4396710000000041
20
-75.5350299999999919
11
170.5207769999999812
21
-75.5892229999999898
0
LINE
8
BLACK
6
CONTINUOUS
10
170.5207769999999812
20
-75.5892229999999898
11
170.5749699999999791
21
-75.6703289999999953
0
LINE
8
BLACK
6
CONTINUOUS
10
170.5749699999999791
20
-75.6703289999999953
11
170.5939999999999941
21
-75.7659999999999911
0
LINE
8
BLACK
6
CONTINUOUS
10
170.5939999999999941
20
-75.7659999999999911
11
170.5939999999999941
21
-78.6659999999999968
0
LINE
8
BLACK
6
CONTINUOUS
10
170.5939999999999941
20
-78.6659999999999968
11
170.5749699999999791
21
-78.7616709999999927
0
LINE
8
BLACK
6
CONTINUOUS
10
170.5749699999999791
20
-78.7616709999999927
11
170.5207769999999812
21
-78.8427769999999981
0
LINE
8
BLACK
6
CONTINUOUS
10
170.5207769999999812
20
-78.8427769999999981
11
170.4396710000000041
21
-78.896969999999996
0
LINE
8
BLACK
6
CONTINUOUS
10
170.4396710000000041
20
-78.896969999999996
11
170.3439999999999941
21
-78.9159999999999968
0
LINE
8
BLACK
6
CONTINUOUS
10
170.3439999999999941
20
-78.9159999999999968
11
169.7189999999999941
21
-78.9159999999999968
0
LINE
8
BLACK
6
CONTINUOUS
10
169.7189999999999941
20
-78.9159999999999968
11
169.623328999999984
21
-78.896969999999996
0
LINE
8
BLACK
6
CONTINUOUS
10
169.623328999999984
20
-78.896969999999996
11
169.5422229999999786
21
-78.8427769999999981
0
LINE
8
BLACK
6
CONTINUOUS
10
169.5422229999999786
20
-78.8427769999999981
11
169.4880299999999806
21
-78.7616709999999927
0
LINE
8
BLACK
6
CONTINUOUS
10
169.4880299999999806
20
-78.7616709999999927
11
169.4689999999999941
21
-78.6659999999999968
0
LINE
8
BLACK
6
CONTINUOUS
10
169.4689999999999941
20
-78.6659999999999968
11
169.4689999999999941
21
-75.7659999999999911
0
LINE
8
BLACK
6
CONTINUOUS
10
169.4689999999999941
20
-75.7659999999999911
11
169.4880299999999806
21
-75.6703289999999953
0
LINE
8
BLACK
6
CONTINUOUS
10
169.4880299999999806
20
-75.6703289999999953
11
169.5422229999999786
21
-75.5892229999999898
0
LINE
8
BLACK
6
CONTINUOUS
10
169.5422229999999786
20
-75.5892229999999898
11
169.623328999999984
21
-75.5350299999999919
0
LINE
8
BLACK
6
CONTINUOUS
10
169.623328999999984
20
-75.5350299999999919
11
169.7189999999999941
21
-75.5159999999999911
0
LINE
8
BLACK
6
CONTINUOUS
10
169.7189999999999941
20
-75.5159999999999911
11
170.3439999999999941
21
-75.5159999999999911
0
LINE
8
BLACK
6
CONTINUOUS
10
170.3439999999999941
20
-75.5159999999999911
11
170.4396710000000041
21
-75.5350299999999919
0
LINE
8
BLACK
6
CONTINUOUS
10
145.304128999999989
20
-77.5621539999999925
11
145.3832069999999987
21
-77.6149929999999983
0
LINE
8
BLACK
6
CONTINUOUS
10
145.3832069999999987
20
-77.6149929999999983
11
145.4360460000000046
21
-77.6940709999999939
0
LINE
8
BLACK
6
CONTINUOUS
10
145.4360460000000046
20
-77.6940709999999939
11
145.4545999999999992
21
-77.7873500000000035
0
LINE
8
BLACK
6
CONTINUOUS
10
145.4545999999999992
20
-77.7873500000000035
11
145.4545999999999992
21
-78.2748500000000007
0
LINE
8
BLACK
6
CONTINUOUS
10
145.4545999999999992
20
-78.2748500000000007
11
145.4360460000000046
21
-78.3681289999999962
0
LINE
8
BLACK
6
CONTINUOUS
10
145.4360460000000046
20
-78.3681289999999962
11
145.3832069999999987
21
-78.4472069999999917
0
LINE
8
BLACK
6
CONTINUOUS
10
145.3832069999999987
20
-78.4472069999999917
11
145.304128999999989
21
-78.5000459999999975
0
LINE
8
BLACK
6
CONTINUOUS
10
145.304128999999989
20
-78.5000459999999975
11
145.2108499999999935
21
-78.5185999999999922
0
LINE
8
BLACK
6
CONTINUOUS
10
145.2108499999999935
20
-78.5185999999999922
11
144.2983499999999992
21
-78.5185999999999922
0
LINE
8
BLACK
6
CONTINUOUS
10
144.2983499999999992
20
-78.5185999999999922
11
144.2050710000000038
21
-78.5000459999999975
0
LINE
8
BLACK
6
CONTINUOUS
10
144.2050710000000038
20
-78.5000459999999975
11
144.125992999999994
21
-78.4472069999999917
0
LINE
8
BLACK
6
CONTINUOUS
10
144.125992999999994
20
-78.4472069999999917
11
144.0731539999999882
21
-78.3681289999999962
0
LINE
8
BLACK
6
CONTINUOUS
10
144.0731539999999882
20
-78.3681289999999962
11
144.0545999999999935
21
-78.2748500000000007
0
LINE
8
BLACK
6
CONTINUOUS
10
144.0545999999999935
20
-78.2748500000000007
11
144.0545999999999935
21
-77.7873500000000035
0
LINE
8
BLACK
6
CONTINUOUS
10
144.0545999999999935
20
-77.7873500000000035
11
144.0731539999999882
21
-77.6940709999999939
0
LINE
8
BLACK
6
CONTINUOUS
10
144.0731539999999882
20
-77.6940709999999939
11
144.125992999999994
21
-77.6149929999999983
0
LINE
8
BLACK
6
CONTINUOUS
10
144.125992999999994
20
-77.6149929999999983
11
144.2050710000000038
21
-77.5621539999999925
0
LINE
8
BLACK
6
CONTINUOUS
10
144.2050710000000038
20
-77.5621539999999925
11
144.2983499999999992
21
-77.5435999999999979
0
LINE
8
BLACK
6
CONTINUOUS
10
144.2983499999999992
20
-77.5435999999999979
11
145.2108499999999935
21
-77.5435999999999979
0
LINE
8
BLACK
6
CONTINUOUS
10
145.2108499999999935
20
-77.5435999999999979
11
145.304128999999989
21
-77.5621539999999925
0
LINE
8
BLACK
6
CONTINUOUS
10
124.0999999999999943
20
-77.2000000000000028
11
122.0999999999999943
21
-77.2000000000000028
0
LINE
8
BLACK
6
CONTINUOUS
10
122.0999999999999943
20
-77.2000000000000028
11
122.0999999999999943
21
-74.2000000000000028
0
LINE
8
BLACK
6
CONTINUOUS
10
122.0999999999999943
20
-74.2000000000000028
11
124.0999999999999943
21
-74.2000000000000028
0
LINE
8
BLACK
6
CONTINUOUS
10
124.0999999999999943
20
-74.2000000000000028
11
124.0999999999999943
21
-77.2000000000000028
0
LINE
8
BLACK
6
CONTINUOUS
10
130.0999999999999943
20
-77.2000000000000028
11
128.0999999999999943
21
-77.2000000000000028
0
LINE
8
BLACK
6
CONTINUOUS
10
128.0999999999999943
20
-77.2000000000000028
11
128.0999999999999943
21
-74.2000000000000028
0
LINE
8
BLACK
6
CONTINUOUS
10
128.0999999999999943
20
-74.2000000000000028
11
130.0999999999999943
21
-74.2000000000000028
0
LINE
8
BLACK
6
CONTINUOUS
10
130.0999999999999943
20
-74.2000000000000028
11
130.0999999999999943
21
-77.2000000000000028
0
LINE
8
BLACK
6
CONTINUOUS
10
158.3575289999999995
20
-75.1965539999999919
11
158.4366069999999809
21
-75.2493929999999978
0
LINE
8
BLACK
6
CONTINUOUS
10
158.4366069999999809
20
-75.2493929999999978
11
158.4894459999999867
21
-75.3284709999999933
0
LINE
8
BLACK
6
CONTINUOUS
10
158.4894459999999867
20
-75.3284709999999933
11
158.5079999999999814
21
-75.421750000000003
0
LINE
8
BLACK
6
CONTINUOUS
10
158.5079999999999814
20
-75.421750000000003
11
158.5079999999999814
21
-76.3342499999999973
0
LINE
8
BLACK
6
CONTINUOUS
10
158.5079999999999814
20
-76.3342499999999973
11
158.4894459999999867
21
-76.4275289999999927
0
LINE
8
BLACK
6
CONTINUOUS
10
158.4894459999999867
20
-76.4275289999999927
11
158.4366069999999809
21
-76.5066070000000025
0
LINE
8
BLACK
6
CONTINUOUS
10
158.4366069999999809
20
-76.5066070000000025
11
158.3575289999999995
21
-76.5594459999999941
0
LINE
8
BLACK
6
CONTINUOUS
10
158.3575289999999995
20
-76.5594459999999941
11
158.2642500000000041
21
-76.578000000000003
0
LINE
8
BLACK
6
CONTINUOUS
10
158.2642500000000041
20
-76.578000000000003
11
157.7767499999999927
21
-76.578000000000003
0
LINE
8
BLACK
6
CONTINUOUS
10
157.7767499999999927
20
-76.578000000000003
11
157.6834709999999973
21
-76.5594459999999941
0
LINE
8
BLACK
6
CONTINUOUS
10
157.6834709999999973
20
-76.5594459999999941
11
157.6043929999999875
21
-76.5066070000000025
0
LINE
8
BLACK
6
CONTINUOUS
10
157.6043929999999875
20
-76.5066070000000025
11
157.5515539999999817
21
-76.4275289999999927
0
LINE
8
BLACK
6
CONTINUOUS
10
157.5515539999999817
20
-76.4275289999999927
11
157.532999999999987
21
-76.3342499999999973
0
LINE
8
BLACK
6
CONTINUOUS
10
157.532999999999987
20
-76.3342499999999973
11
157.532999999999987
21
-75.421750000000003
0
LINE
8
BLACK
6
CONTINUOUS
10
157.532999999999987
20
-75.421750000000003
11
157.5515539999999817
21
-75.3284709999999933
0
LINE
8
BLACK
6
CONTINUOUS
10
157.5515539999999817
20
-75.3284709999999933
11
157.6043929999999875
21
-75.2493929999999978
0
LINE
8
BLACK
6
CONTINUOUS
10
157.6043929999999875
20
-75.2493929999999978
11
157.6834709999999973
21
-75.1965539999999919
0
LINE
8
BLACK
6
CONTINUOUS
10
157.6834709999999973
20
-75.1965539999999919
11
157.7767499999999927
21
-75.1779999999999973
0
LINE
8
BLACK
6
CONTINUOUS
10
157.7767499999999927
20
-75.1779999999999973
11
158.2642500000000041
21
-75.1779999999999973
0
LINE
8
BLACK
6
CONTINUOUS
10
158.2642500000000041
20
-75.1779999999999973
11
158.3575289999999995
21
-75.1965539999999919
0
LINE
8
BLACK
6
CONTINUOUS
10
160.2325289999999995
20
-75.1965539999999919
11
160.3116069999999809
21
-75.2493929999999978
0
LINE
8
BLACK
6
CONTINUOUS
10
160.3116069999999809
20
-75.2493929999999978
11
160.3644459999999867
21
-75.3284709999999933
0
LINE
8
BLACK
6
CONTINUOUS
10
160.3644459999999867
20
-75.3284709999999933
11
160.3829999999999814
21
-75.421750000000003
0
LINE
8
BLACK
6
CONTINUOUS
10
160.3829999999999814
20
-75.421750000000003
11
160.3829999999999814
21
-76.3342499999999973
0
LINE
8
BLACK
6
CONTINUOUS
10
160.3829999999999814
20
-76.3342499999999973
11
160.3644459999999867
21
-76.4275289999999927
0
LINE
8
BLACK
6
CONTINUOUS
10
160.3644459999999867
20
-76.4275289999999927
11
160.3116069999999809
21
-76.5066070000000025
0
LINE
8
BLACK
6
CONTINUOUS
10
160.3116069999999809
20
-76.5066070000000025
11
160.2325289999999995
21
-76.5594459999999941
0
LINE
8
BLACK
6
CONTINUOUS
10
160.2325289999999995
20
-76.5594459999999941
11
160.1392500000000041
21
-76.578000000000003
0
LINE
8
BLACK
6
CONTINUOUS
10
160.1392500000000041
20
-76.578000000000003
11
159.6517499999999927
21
-76.578000000000003
0
LINE
8
BLACK
6
CONTINUOUS
10
159.6517499999999927
20
-76.578000000000003
11
159.5584709999999973
21
-76.5594459999999941
0
LINE
8
BLACK
6
CONTINUOUS
10
159.5584709999999973
20
-76.5594459999999941
11
159.4793929999999875
21
-76.5066070000000025
0
LINE
8
BLACK
6
CONTINUOUS
10
159.4793929999999875
20
-76.5066070000000025
11
159.4265539999999817
21
-76.4275289999999927
0
LINE
8
BLACK
6
CONTINUOUS
10
159.4265539999999817
20
-76.4275289999999927
11
159.407999999999987
21
-76.3342499999999973
0
LINE
8
BLACK
6
CONTINUOUS
10
159.407999999999987
20
-76.3342499999999973
11
159.407999999999987
21
-75.421750000000003
0
LINE
8
BLACK
6
CONTINUOUS
10
159.407999999999987
20
-75.421750000000003
11
159.4265539999999817
21
-75.3284709999999933
0
LINE
8
BLACK
6
CONTINUOUS
10
159.4265539999999817
20
-75.3284709999999933
11
159.4793929999999875
21
-75.2493929999999978
0
LINE
8
BLACK
6
CONTINUOUS
10
159.4793929999999875
20
-75.2493929999999978
11
159.5584709999999973
21
-75.1965539999999919
0
LINE
8
BLACK
6
CONTINUOUS
10
159.5584709999999973
20
-75.1965539999999919
11
159.6517499999999927
21
-75.1779999999999973
0
LINE
8
BLACK
6
CONTINUOUS
10
159.6517499999999927
20
-75.1779999999999973
11
160.1392500000000041
21
-75.1779999999999973
0
LINE
8
BLACK
6
CONTINUOUS
10
160.1392500000000041
20
-75.1779999999999973
11
160.2325289999999995
21
-75.1965539999999919
0
LINE
8
BLACK
6
CONTINUOUS
10
156.4595290000000034
20
-75.5845539999999971
11
156.5386069999999847
21
-75.637393000000003
0
LINE
8
BLACK
6
CONTINUOUS
10
156.5386069999999847
20
-75.637393000000003
11
156.5914459999999906
21
-75.7164709999999985
0
LINE
8
BLACK
6
CONTINUOUS
10
156.5914459999999906
20
-75.7164709999999985
11
156.6099999999999852
21
-75.809749999999994
0
LINE
8
BLACK
6
CONTINUOUS
10
156.6099999999999852
20
-75.809749999999994
11
156.6099999999999852
21
-76.2972499999999911
0
LINE
8
BLACK
6
CONTINUOUS
10
156.6099999999999852
20
-76.2972499999999911
11
156.5914459999999906
21
-76.3905290000000008
0
LINE
8
BLACK
6
CONTINUOUS
10
156.5914459999999906
20
-76.3905290000000008
11
156.5386069999999847
21
-76.4696069999999963
0
LINE
8
BLACK
6
CONTINUOUS
10
156.5386069999999847
20
-76.4696069999999963
11
156.4595290000000034
21
-76.5224460000000022
0
LINE
8
BLACK
6
CONTINUOUS
10
156.4595290000000034
20
-76.5224460000000022
11
156.3662499999999795
21
-76.5409999999999968
0
LINE
8
BLACK
6
CONTINUOUS
10
156.3662499999999795
20
-76.5409999999999968
11
155.4537499999999852
21
-76.5409999999999968
0
LINE
8
BLACK
6
CONTINUOUS
10
155.4537499999999852
20
-76.5409999999999968
11
155.3604709999999898
21
-76.5224460000000022
0
LINE
8
BLACK
6
CONTINUOUS
10
155.3604709999999898
20
-76.5224460000000022
11
155.28139299999998
21
-76.4696069999999963
0
LINE
8
BLACK
6
CONTINUOUS
10
155.28139299999998
20
-76.4696069999999963
11
155.2285540000000026
21
-76.3905290000000008
0
LINE
8
BLACK
6
CONTINUOUS
10
155.2285540000000026
20
-76.3905290000000008
11
155.2099999999999795
21
-76.2972499999999911
0
LINE
8
BLACK
6
CONTINUOUS
10
155.2099999999999795
20
-76.2972499999999911
11
155.2099999999999795
21
-75.809749999999994
0
LINE
8
BLACK
6
CONTINUOUS
10
155.2099999999999795
20
-75.809749999999994
11
155.2285540000000026
21
-75.7164709999999985
0
LINE
8
BLACK
6
CONTINUOUS
10
155.2285540000000026
20
-75.7164709999999985
11
155.28139299999998
21
-75.637393000000003
0
LINE
8
BLACK
6
CONTINUOUS
10
155.28139299999998
20
-75.637393000000003
11
155.3604709999999898
21
-75.5845539999999971
0
LINE
8
BLACK
6
CONTINUOUS
10
155.3604709999999898
20
-75.5845539999999971
11
155.4537499999999852
21
-75.5660000000000025
0
LINE
8
BLACK
6
CONTINUOUS
10
155.4537499999999852
20
-75.5660000000000025
11
156.3662499999999795
21
-75.5660000000000025
0
LINE
8
BLACK
6
CONTINUOUS
10
156.3662499999999795
20
-75.5660000000000025
11
156.4595290000000034
21
-75.5845539999999971
0
LINE
8
BLACK
6
CONTINUOUS
10
162.8095289999999977
20
-75.5845539999999971
11
162.8886069999999791
21
-75.637393000000003
0
LINE
8
BLACK
6
CONTINUOUS
10
162.8886069999999791
20
-75.637393000000003
11
162.9414459999999849
21
-75.7164709999999985
0
LINE
8
BLACK
6
CONTINUOUS
10
162.9414459999999849
20
-75.7164709999999985
11
162.9599999999999795
21
-75.809749999999994
0
LINE
8
BLACK
6
CONTINUOUS
10
162.9599999999999795
20
-75.809749999999994
11
162.9599999999999795
21
-76.2972499999999911
0
LINE
8
BLACK
6
CONTINUOUS
10
162.9599999999999795
20
-76.2972499999999911
11
162.9414459999999849
21
-76.3905290000000008
0
LINE
8
BLACK
6
CONTINUOUS
10
162.9414459999999849
20
-76.3905290000000008
11
162.8886069999999791
21
-76.4696069999999963
0
LINE
8
BLACK
6
CONTINUOUS
10
162.8886069999999791
20
-76.4696069999999963
11
162.8095289999999977
21
-76.5224460000000022
0
LINE
8
BLACK
6
CONTINUOUS
10
162.8095289999999977
20
-76.5224460000000022
11
162.7162500000000023
21
-76.5409999999999968
0
LINE
8
BLACK
6
CONTINUOUS
10
162.7162500000000023
20
-76.5409999999999968
11
161.8037499999999795
21
-76.5409999999999968
0
LINE
8
BLACK
6
CONTINUOUS
10
161.8037499999999795
20
-76.5409999999999968
11
161.7104709999999841
21
-76.5224460000000022
0
LINE
8
BLACK
6
CONTINUOUS
10
161.7104709999999841
20
-76.5224460000000022
11
161.6313930000000028
21
-76.4696069999999963
0
LINE
8
BLACK
6
CONTINUOUS
10
161.6313930000000028
20
-76.4696069999999963
11
161.5785539999999969
21
-76.3905290000000008
0
LINE
8
BLACK
6
CONTINUOUS
10
161.5785539999999969
20
-76.3905290000000008
11
161.5600000000000023
21
-76.2972499999999911
0
LINE
8
BLACK
6
CONTINUOUS
10
161.5600000000000023
20
-76.2972499999999911
11
161.5600000000000023
21
-75.809749999999994
0
LINE
8
BLACK
6
CONTINUOUS
10
161.5600000000000023
20
-75.809749999999994
11
161.5785539999999969
21
-75.7164709999999985
0
LINE
8
BLACK
6
CONTINUOUS
10
161.5785539999999969
20
-75.7164709999999985
11
161.6313930000000028
21
-75.637393000000003
0
LINE
8
BLACK
6
CONTINUOUS
10
161.6313930000000028
20
-75.637393000000003
11
161.7104709999999841
21
-75.5845539999999971
0
LINE
8
BLACK
6
CONTINUOUS
10
161.7104709999999841
20
-75.5845539999999971
11
161.8037499999999795
21
-75.5660000000000025
0
LINE
8
BLACK
6
CONTINUOUS
10
161.8037499999999795
20
-75.5660000000000025
11
162.7162500000000023
21
-75.5660000000000025
0
LINE
8
BLACK
6
CONTINUOUS
10
162.7162500000000023
20
-75.5660000000000025
11
162.8095289999999977
21
-75.5845539999999971
0
LINE
8
BLACK
6
CONTINUOUS
10
145.3295289999999795
20
-75.4185540000000003
11
145.4086069999999893
21
-75.471392999999992
0
LINE
8
BLACK
6
CONTINUOUS
10
145.4086069999999893
20
-75.471392999999992
11
145.4614459999999951
21
-75.5504710000000017
0
LINE
8
BLACK
6
CONTINUOUS
10
145.4614459999999951
20
-75.5504710000000017
11
145.4799999999999898
21
-75.6437499999999972
0
LINE
8
BLACK
6
CONTINUOUS
10
145.4799999999999898
20
-75.6437499999999972
11
145.4799999999999898
21
-76.1312499999999943
0
LINE
8
BLACK
6
CONTINUOUS
10
145.4799999999999898
20
-76.1312499999999943
11
145.4614459999999951
21
-76.2245289999999898
0
LINE
8
BLACK
6
CONTINUOUS
10
145.4614459999999951
20
-76.2245289999999898
11
145.4086069999999893
21
-76.3036069999999995
0
LINE
8
BLACK
6
CONTINUOUS
10
145.4086069999999893
20
-76.3036069999999995
11
145.3295289999999795
21
-76.3564459999999912
0
LINE
8
BLACK
6
CONTINUOUS
10
145.3295289999999795
20
-76.3564459999999912
11
145.2362499999999841
21
-76.375
0
LINE
8
BLACK
6
CONTINUOUS
10
145.2362499999999841
20
-76.375
11
144.3237499999999898
21
-76.375
0
LINE
8
BLACK
6
CONTINUOUS
10
144.3237499999999898
20
-76.375
11
144.2304709999999943
21
-76.3564459999999912
0
LINE
8
BLACK
6
CONTINUOUS
10
144.2304709999999943
20
-76.3564459999999912
11
144.1513929999999846
21
-76.3036069999999995
0
LINE
8
BLACK
6
CONTINUOUS
10
144.1513929999999846
20
-76.3036069999999995
11
144.0985540000000071
21
-76.2245289999999898
0
LINE
8
BLACK
6
CONTINUOUS
10
144.0985540000000071
20
-76.2245289999999898
11
144.0799999999999841
21
-76.1312499999999943
0
LINE
8
BLACK
6
CONTINUOUS
10
144.0799999999999841
20
-76.1312499999999943
11
144.0799999999999841
21
-75.6437499999999972
0
LINE
8
BLACK
6
CONTINUOUS
10
144.0799999999999841
20
-75.6437499999999972
11
144.0985540000000071
21
-75.5504710000000017
0
LINE
8
BLACK
6
CONTINUOUS
10
144.0985540000000071
20
-75.5504710000000017
11
144.1513929999999846
21
-75.471392999999992
0
LINE
8
BLACK
6
CONTINUOUS
10
144.1513929999999846
20
-75.471392999999992
11
144.2304709999999943
21
-75.4185540000000003
0
LINE
8
BLACK
6
CONTINUOUS
10
144.2304709999999943
20
-75.4185540000000003
11
144.3237499999999898
21
-75.3999999999999915
0
LINE
8
BLACK
6
CONTINUOUS
10
144.3237499999999898
20
-75.3999999999999915
11
145.2362499999999841
21
-75.3999999999999915
0
LINE
8
BLACK
6
CONTINUOUS
10
145.2362499999999841
20
-75.3999999999999915
11
145.3295289999999795
21
-75.4185540000000003
0
LINE
8
BLACK
6
CONTINUOUS
10
147.869529
20
-75.4185540000000003
11
147.9486069999999813
21
-75.471392999999992
0
LINE
8
BLACK
6
CONTINUOUS
10
147.9486069999999813
20
-75.471392999999992
11
148.0014459999999872
21
-75.5504710000000017
0
LINE
8
BLACK
6
CONTINUOUS
10
148.0014459999999872
20
-75.5504710000000017
11
148.0199999999999818
21
-75.6437499999999972
0
LINE
8
BLACK
6
CONTINUOUS
10
148.0199999999999818
20
-75.6437499999999972
11
148.0199999999999818
21
-76.1312499999999943
0
LINE
8
BLACK
6
CONTINUOUS
10
148.0199999999999818
20
-76.1312499999999943
11
148.0014459999999872
21
-76.2245289999999898
0
LINE
8
BLACK
6
CONTINUOUS
10
148.0014459999999872
20
-76.2245289999999898
11
147.9486069999999813
21
-76.3036069999999995
0
LINE
8
BLACK
6
CONTINUOUS
10
147.9486069999999813
20
-76.3036069999999995
11
147.869529
21
-76.3564459999999912
0
LINE
8
BLACK
6
CONTINUOUS
10
147.869529
20
-76.3564459999999912
11
147.7762500000000045
21
-76.375
0
LINE
8
BLACK
6
CONTINUOUS
10
147.7762500000000045
20
-76.375
11
146.8637499999999818
21
-76.375
0
LINE
8
BLACK
6
CONTINUOUS
10
146.8637499999999818
20
-76.375
11
146.7704709999999864
21
-76.3564459999999912
0
LINE
8
BLACK
6
CONTINUOUS
10
146.7704709999999864
20
-76.3564459999999912
11
146.691393000000005
21
-76.3036069999999995
0
LINE
8
BLACK
6
CONTINUOUS
10
146.691393000000005
20
-76.3036069999999995
11
146.6385539999999992
21
-76.2245289999999898
0
LINE
8
BLACK
6
CONTINUOUS
10
146.6385539999999992
20
-76.2245289999999898
11
146.6200000000000045
21
-76.1312499999999943
0
LINE
8
BLACK
6
CONTINUOUS
10
146.6200000000000045
20
-76.1312499999999943
11
146.6200000000000045
21
-75.6437499999999972
0
LINE
8
BLACK
6
CONTINUOUS
10
146.6200000000000045
20
-75.6437499999999972
11
146.6385539999999992
21
-75.5504710000000017
0
LINE
8
BLACK
6
CONTINUOUS
10
146.6385539999999992
20
-75.5504710000000017
11
146.691393000000005
21
-75.471392999999992
0
LINE
8
BLACK
6
CONTINUOUS
10
146.691393000000005
20
-75.471392999999992
11
146.7704709999999864
21
-75.4185540000000003
0
LINE
8
BLACK
6
CONTINUOUS
10
146.7704709999999864
20
-75.4185540000000003
11
146.8637499999999818
21
-75.3999999999999915
0
LINE
8
BLACK
6
CONTINUOUS
10
146.8637499999999818
20
-75.3999999999999915
11
147.7762500000000045
21
-75.3999999999999915
0
LINE
8
BLACK
6
CONTINUOUS
10
147.7762500000000045
20
-75.3999999999999915
11
147.869529
21
-75.4185540000000003
0
LINE
8
BLACK
6
CONTINUOUS
10
156.4595290000000034
20
-73.7095539999999971
11
156.5386069999999847
21
-73.762393000000003
0
LINE
8
BLACK
6
CONTINUOUS
10
156.5386069999999847
20
-73.762393000000003
11
156.5914459999999906
21
-73.8414709999999985
0
LINE
8
BLACK
6
CONTINUOUS
10
156.5914459999999906
20
-73.8414709999999985
11
156.6099999999999852
21
-73.934749999999994
0
LINE
8
BLACK
6
CONTINUOUS
10
156.6099999999999852
20
-73.934749999999994
11
156.6099999999999852
21
-74.4222499999999911
0
LINE
8
BLACK
6
CONTINUOUS
10
156.6099999999999852
20
-74.4222499999999911
11
156.5914459999999906
21
-74.5155290000000008
0
LINE
8
BLACK
6
CONTINUOUS
10
156.5914459999999906
20
-74.5155290000000008
11
156.5386069999999847
21
-74.5946069999999963
0
LINE
8
BLACK
6
CONTINUOUS
10
156.5386069999999847
20
-74.5946069999999963
11
156.4595290000000034
21
-74.6474460000000022
0
LINE
8
BLACK
6
CONTINUOUS
10
156.4595290000000034
20
-74.6474460000000022
11
156.3662499999999795
21
-74.6659999999999968
0
LINE
8
BLACK
6
CONTINUOUS
10
156.3662499999999795
20
-74.6659999999999968
11
155.4537499999999852
21
-74.6659999999999968
0
LINE
8
BLACK
6
CONTINUOUS
10
155.4537499999999852
20
-74.6659999999999968
11
155.3604709999999898
21
-74.6474460000000022
0
LINE
8
BLACK
6
CONTINUOUS
10
155.3604709999999898
20
-74.6474460000000022
11
155.28139299999998
21
-74.5946069999999963
0
LINE
8
BLACK
6
CONTINUOUS
10
155.28139299999998
20
-74.5946069999999963
11
155.2285540000000026
21
-74.5155290000000008
0
LINE
8
BLACK
6
CONTINUOUS
10
155.2285540000000026
20
-74.5155290000000008
11
155.2099999999999795
21
-74.4222499999999911
0
LINE
8
BLACK
6
CONTINUOUS
10
155.2099999999999795
20
-74.4222499999999911
11
155.2099999999999795
21
-73.934749999999994
0
LINE
8
BLACK
6
CONTINUOUS
10
155.2099999999999795
20
-73.934749999999994
11
155.2285540000000026
21
-73.8414709999999985
0
LINE
8
BLACK
6
CONTINUOUS
10
155.2285540000000026
20
-73.8414709999999985
11
155.28139299999998
21
-73.762393000000003
0
LINE
8
BLACK
6
CONTINUOUS
10
155.28139299999998
20
-73.762393000000003
11
155.3604709999999898
21
-73.7095539999999971
0
LINE
8
BLACK
6
CONTINUOUS
10
155.3604709999999898
20
-73.7095539999999971
11
155.4537499999999852
21
-73.6910000000000025
0
LINE
8
BLACK
6
CONTINUOUS
10
155.4537499999999852
20
-73.6910000000000025
11
156.3662499999999795
21
-73.6910000000000025
0
LINE
8
BLACK
6
CONTINUOUS
10
156.3662499999999795
20
-73.6910000000000025
11
156.4595290000000034
21
-73.7095539999999971
0
LINE
8
BLACK
6
CONTINUOUS
10
162.8095289999999977
20
-73.7095539999999971
11
162.8886069999999791
21
-73.762393000000003
0
LINE
8
BLACK
6
CONTINUOUS
10
162.8886069999999791
20
-73.762393000000003
11
162.9414459999999849
21
-73.8414709999999985
0
LINE
8
BLACK
6
CONTINUOUS
10
162.9414459999999849
20
-73.8414709999999985
11
162.9599999999999795
21
-73.934749999999994
0
LINE
8
BLACK
6
CONTINUOUS
10
162.9599999999999795
20
-73.934749999999994
11
162.9599999999999795
21
-74.4222499999999911
0
LINE
8
BLACK
6
CONTINUOUS
10
162.9599999999999795
20
-74.4222499999999911
11
162.9414459999999849
21
-74.5155290000000008
0
LINE
8
BLACK
6
CONTINUOUS
10
162.9414459999999849
20
-74.5155290000000008
11
162.8886069999999791
21
-74.5946069999999963
0
LINE
8
BLACK
6
CONTINUOUS
10
162.8886069999999791
20
-74.5946069999999963
11
162.8095289999999977
21
-74.6474460000000022
0
LINE
8
BLACK
6
CONTINUOUS
10
162.8095289999999977
20
-74.6474460000000022
11
162.7162500000000023
21
-74.6659999999999968
0
LINE
8
BLACK
6
CONTINUOUS
10
162.7162500000000023
20
-74.6659999999999968
11
161.8037499999999795
21
-74.6659999999999968
0
LINE
8
BLACK
6
CONTINUOUS
10
161.8037499999999795
20
-74.6659999999999968
11
161.7104709999999841
21
-74.6474460000000022
0
LINE
8
BLACK
6
CONTINUOUS
10
161.7104709999999841
20
-74.6474460000000022
11
161.6313930000000028
21
-74.5946069999999963
0
LINE
8
BLACK
6
CONTINUOUS
10
161.6313930000000028
20
-74.5946069999999963
11
161.5785539999999969
21
-74.5155290000000008
0
LINE
8
BLACK
6
CONTINUOUS
10
161.5785539999999969
20
-74.5155290000000008
11
161.5600000000000023
21
-74.4222499999999911
0
LINE
8
BLACK
6
CONTINUOUS
10
161.5600000000000023
20
-74.4222499999999911
11
161.5600000000000023
21
-73.934749999999994
0
LINE
8
BLACK
6
CONTINUOUS
10
161.5600000000000023
20
-73.934749999999994
11
161.5785539999999969
21
-73.8414709999999985
0
LINE
8
BLACK
6
CONTINUOUS
10
161.5785539999999969
20
-73.8414709999999985
11
161.6313930000000028
21
-73.762393000000003
0
LINE
8
BLACK
6
CONTINUOUS
10
161.6313930000000028
20
-73.762393000000003
11
161.7104709999999841
21
-73.7095539999999971
0
LINE
8
BLACK
6
CONTINUOUS
10
161.7104709999999841
20
-73.7095539999999971
11
161.8037499999999795
21
-73.6910000000000025
0
LINE
8
BLACK
6
CONTINUOUS
10
161.8037499999999795
20
-73.6910000000000025
11
162.7162500000000023
21
-73.6910000000000025
0
LINE
8
BLACK
6
CONTINUOUS
10
162.7162500000000023
20
-73.6910000000000025
11
162.8095289999999977
21
-73.7095539999999971
0
LINE
8
BLACK
6
CONTINUOUS
10
145.3295289999999795
20
-73.5435540000000003
11
145.4086069999999893
21
-73.596392999999992
0
LINE
8
BLACK
6
CONTINUOUS
10
145.4086069999999893
20
-73.596392999999992
11
145.4614459999999951
21
-73.6754710000000017
0
LINE
8
BLACK
6
CONTINUOUS
10
145.4614459999999951
20
-73.6754710000000017
11
145.4799999999999898
21
-73.7687499999999972
0
LINE
8
BLACK
6
CONTINUOUS
10
145.4799999999999898
20
-73.7687499999999972
11
145.4799999999999898
21
-74.2562499999999943
0
LINE
8
BLACK
6
CONTINUOUS
10
145.4799999999999898
20
-74.2562499999999943
11
145.4614459999999951
21
-74.3495289999999898
0
LINE
8
BLACK
6
CONTINUOUS
10
145.4614459999999951
20
-74.3495289999999898
11
145.4086069999999893
21
-74.4286069999999995
0
LINE
8
BLACK
6
CONTINUOUS
10
145.4086069999999893
20
-74.4286069999999995
11
145.3295289999999795
21
-74.4814459999999912
0
LINE
8
BLACK
6
CONTINUOUS
10
145.3295289999999795
20
-74.4814459999999912
11
145.2362499999999841
21
-74.5
0
LINE
8
BLACK
6
CONTINUOUS
10
145.2362499999999841
20
-74.5
11
144.3237499999999898
21
-74.5
0
LINE
8
BLACK
6
CONTINUOUS
10
144.3237499999999898
20
-74.5
11
144.2304709999999943
21
-74.4814459999999912
0
LINE
8
BLACK
6
CONTINUOUS
10
144.2304709999999943
20
-74.4814459999999912
11
144.1513929999999846
21
-74.4286069999999995
0
LINE
8
BLACK
6
CONTINUOUS
10
144.1513929999999846
20
-74.4286069999999995
11
144.0985540000000071
21
-74.3495289999999898
0
LINE
8
BLACK
6
CONTINUOUS
10
144.0985540000000071
20
-74.3495289999999898
11
144.0799999999999841
21
-74.2562499999999943
0
LINE
8
BLACK
6
CONTINUOUS
10
144.0799999999999841
20
-74.2562499999999943
11
144.0799999999999841
21
-73.7687499999999972
0
LINE
8
BLACK
6
CONTINUOUS
10
144.0799999999999841
20
-73.7687499999999972
11
144.0985540000000071
21
-73.6754710000000017
0
LINE
8
BLACK
6
CONTINUOUS
10
144.0985540000000071
20
-73.6754710000000017
11
144.1513929999999846
21
-73.596392999999992
0
LINE
8
BLACK
6
CONTINUOUS
10
144.1513929999999846
20
-73.596392999999992
11
144.2304709999999943
21
-73.5435540000000003
0
LINE
8
BLACK
6
CONTINUOUS
10
144.2304709999999943
20
-73.5435540000000003
11
144.3237499999999898
21
-73.5249999999999915
0
LINE
8
BLACK
6
CONTINUOUS
10
144.3237499999999898
20
-73.5249999999999915
11
145.2362499999999841
21
-73.5249999999999915
0
LINE
8
BLACK
6
CONTINUOUS
10
145.2362499999999841
20
-73.5249999999999915
11
145.3295289999999795
21
-73.5435540000000003
0
LINE
8
BLACK
6
CONTINUOUS
10
147.869529
20
-73.5435540000000003
11
147.9486069999999813
21
-73.596392999999992
0
LINE
8
BLACK
6
CONTINUOUS
10
147.9486069999999813
20
-73.596392999999992
11
148.0014459999999872
21
-73.6754710000000017
0
LINE
8
BLACK
6
CONTINUOUS
10
148.0014459999999872
20
-73.6754710000000017
11
148.0199999999999818
21
-73.7687499999999972
0
LINE
8
BLACK
6
CONTINUOUS
10
148.0199999999999818
20
-73.7687499999999972
11
148.0199999999999818
21
-74.2562499999999943
0
LINE
8
BLACK
6
CONTINUOUS
10
148.0199999999999818
20
-74.2562499999999943
11
148.0014459999999872
21
-74.3495289999999898
0
LINE
8
BLACK
6
CONTINUOUS
10
148.0014459999999872
20
-74.3495289999999898
11
147.9486069999999813
21
-74.4286069999999995
0
LINE
8
BLACK
6
CONTINUOUS
10
147.9486069999999813
20
-74.4286069999999995
11
147.869529
21
-74.4814459999999912
0
LINE
8
BLACK
6
CONTINUOUS
10
147.869529
20
-74.4814459999999912
11
147.7762500000000045
21
-74.5
0
LINE
8
BLACK
6
CONTINUOUS
10
147.7762500000000045
20
-74.5
11
146.8637499999999818
21
-74.5
0
LINE
8
BLACK
6
CONTINUOUS
10
146.8637499999999818
20
-74.5
11
146.7704709999999864
21
-74.4814459999999912
0
LINE
8
BLACK
6
CONTINUOUS
10
146.7704709999999864
20
-74.4814459999999912
11
146.691393000000005
21
-74.4286069999999995
0
LINE
8
BLACK
6
CONTINUOUS
10
146.691393000000005
20
-74.4286069999999995
11
146.6385539999999992
21
-74.3495289999999898
0
LINE
8
BLACK
6
CONTINUOUS
10
146.6385539999999992
20
-74.3495289999999898
11
146.6200000000000045
21
-74.2562499999999943
0
LINE
8
BLACK
6
CONTINUOUS
10
146.6200000000000045
20
-74.2562499999999943
11
146.6200000000000045
21
-73.7687499999999972
0
LINE
8
BLACK
6
CONTINUOUS
10
146.6200000000000045
20
-73.7687499999999972
11
146.6385539999999992
21
-73.6754710000000017
0
LINE
8
BLACK
6
CONTINUOUS
10
146.6385539999999992
20
-73.6754710000000017
11
146.691393000000005
21
-73.596392999999992
0
LINE
8
BLACK
6
CONTINUOUS
10
146.691393000000005
20
-73.596392999999992
11
146.7704709999999864
21
-73.5435540000000003
0
LINE
8
BLACK
6
CONTINUOUS
10
146.7704709999999864
20
-73.5435540000000003
11
146.8637499999999818
21
-73.5249999999999915
0
LINE
8
BLACK
6
CONTINUOUS
10
146.8637499999999818
20
-73.5249999999999915
11
147.7762500000000045
21
-73.5249999999999915
0
LINE
8
BLACK
6
CONTINUOUS
10
147.7762500000000045
20
-73.5249999999999915
11
147.869529
21
-73.5435540000000003
0
LINE
8
BLACK
6
CONTINUOUS
10
145.3295289999999795
20
-70.6433540000000022
11
145.4086069999999893
21
-70.6961929999999938
0
LINE
8
BLACK
6
CONTINUOUS
10
145.4086069999999893
20
-70.6961929999999938
11
145.4614459999999951
21
-70.7752710000000036
0
LINE
8
BLACK
6
CONTINUOUS
10
145.4614459999999951
20
-70.7752710000000036
11
145.4799999999999898
21
-70.868549999999999
0
LINE
8
BLACK
6
CONTINUOUS
10
145.4799999999999898
20
-70.868549999999999
11
145.4799999999999898
21
-71.3560499999999962
0
LINE
8
BLACK
6
CONTINUOUS
10
145.4799999999999898
20
-71.3560499999999962
11
145.4614459999999951
21
-71.4493289999999917
0
LINE
8
BLACK
6
CONTINUOUS
10
145.4614459999999951
20
-71.4493289999999917
11
145.4086069999999893
21
-71.5284070000000014
0
LINE
8
BLACK
6
CONTINUOUS
10
145.4086069999999893
20
-71.5284070000000014
11
145.3295289999999795
21
-71.581245999999993
0
LINE
8
BLACK
6
CONTINUOUS
10
145.3295289999999795
20
-71.581245999999993
11
145.2362499999999841
21
-71.5998000000000019
0
LINE
8
BLACK
6
CONTINUOUS
10
145.2362499999999841
20
-71.5998000000000019
11
144.3237499999999898
21
-71.5998000000000019
0
LINE
8
BLACK
6
CONTINUOUS
10
144.3237499999999898
20
-71.5998000000000019
11
144.2304709999999943
21
-71.581245999999993
0
LINE
8
BLACK
6
CONTINUOUS
10
144.2304709999999943
20
-71.581245999999993
11
144.1513929999999846
21
-71.5284070000000014
0
LINE
8
BLACK
6
CONTINUOUS
10
144.1513929999999846
20
-71.5284070000000014
11
144.0985540000000071
21
-71.4493289999999917
0
LINE
8
BLACK
6
CONTINUOUS
10
144.0985540000000071
20
-71.4493289999999917
11
144.0799999999999841
21
-71.3560499999999962
0
LINE
8
BLACK
6
CONTINUOUS
10
144.0799999999999841
20
-71.3560499999999962
11
144.0799999999999841
21
-70.868549999999999
0
LINE
8
BLACK
6
CONTINUOUS
10
144.0799999999999841
20
-70.868549999999999
11
144.0985540000000071
21
-70.7752710000000036
0
LINE
8
BLACK
6
CONTINUOUS
10
144.0985540000000071
20
-70.7752710000000036
11
144.1513929999999846
21
-70.6961929999999938
0
LINE
8
BLACK
6
CONTINUOUS
10
144.1513929999999846
20
-70.6961929999999938
11
144.2304709999999943
21
-70.6433540000000022
0
LINE
8
BLACK
6
CONTINUOUS
10
144.2304709999999943
20
-70.6433540000000022
11
144.3237499999999898
21
-70.6247999999999934
0
LINE
8
BLACK
6
CONTINUOUS
10
144.3237499999999898
20
-70.6247999999999934
11
145.2362499999999841
21
-70.6247999999999934
0
LINE
8
BLACK
6
CONTINUOUS
10
145.2362499999999841
20
-70.6247999999999934
11
145.3295289999999795
21
-70.6433540000000022
0
LINE
8
BLACK
6
CONTINUOUS
10
147.869529
20
-70.6433540000000022
11
147.9486069999999813
21
-70.6961929999999938
0
LINE
8
BLACK
6
CONTINUOUS
10
147.9486069999999813
20
-70.6961929999999938
11
148.0014459999999872
21
-70.7752710000000036
0
LINE
8
BLACK
6
CONTINUOUS
10
148.0014459999999872
20
-70.7752710000000036
11
148.0199999999999818
21
-70.868549999999999
0
LINE
8
BLACK
6
CONTINUOUS
10
148.0199999999999818
20
-70.868549999999999
11
148.0199999999999818
21
-71.3560499999999962
0
LINE
8
BLACK
6
CONTINUOUS
10
148.0199999999999818
20
-71.3560499999999962
11
148.0014459999999872
21
-71.4493289999999917
0
LINE
8
BLACK
6
CONTINUOUS
10
148.0014459999999872
20
-71.4493289999999917
11
147.9486069999999813
21
-71.5284070000000014
0
LINE
8
BLACK
6
CONTINUOUS
10
147.9486069999999813
20
-71.5284070000000014
11
147.869529
21
-71.581245999999993
0
LINE
8
BLACK
6
CONTINUOUS
10
147.869529
20
-71.581245999999993
11
147.7762500000000045
21
-71.5998000000000019
0
LINE
8
BLACK
6
CONTINUOUS
10
147.7762500000000045
20
-71.5998000000000019
11
146.8637499999999818
21
-71.5998000000000019
0
LINE
8
BLACK
6
CONTINUOUS
10
146.8637499999999818
20
-71.5998000000000019
11
146.7704709999999864
21
-71.581245999999993
0
LINE
8
BLACK
6
CONTINUOUS
10
146.7704709999999864
20
-71.581245999999993
11
146.691393000000005
21
-71.5284070000000014
0
LINE
8
BLACK
6
CONTINUOUS
10
146.691393000000005
20
-71.5284070000000014
11
146.6385539999999992
21
-71.4493289999999917
0
LINE
8
BLACK
6
CONTINUOUS
10
146.6385539999999992
20
-71.4493289999999917
11
146.6200000000000045
21
-71.3560499999999962
0
LINE
8
BLACK
6
CONTINUOUS
10
146.6200000000000045
20
-71.3560499999999962
11
146.6200000000000045
21
-70.868549999999999
0
LINE
8
BLACK
6
CONTINUOUS
10
146.6200000000000045
20
-70.868549999999999
11
146.6385539999999992
21
-70.7752710000000036
0
LINE
8
BLACK
6
CONTINUOUS
10
146.6385539999999992
20
-70.7752710000000036
11
146.691393000000005
21
-70.6961929999999938
0
LINE
8
BLACK
6
CONTINUOUS
10
146.691393000000005
20
-70.6961929999999938
11
146.7704709999999864
21
-70.6433540000000022
0
LINE
8
BLACK
6
CONTINUOUS
10
146.7704709999999864
20
-70.6433540000000022
11
146.8637499999999818
21
-70.6247999999999934
0
LINE
8
BLACK
6
CONTINUOUS
10
146.8637499999999818
20
-70.6247999999999934
11
147.7762500000000045
21
-70.6247999999999934
0
LINE
8
BLACK
6
CONTINUOUS
10
147.7762500000000045
20
-70.6247999999999934
11
147.869529
21
-70.6433540000000022
0
LINE
8
BLACK
6
CONTINUOUS
10
157.8277999999999963
20
-71.227800000000002
11
155.9277999999999906
21
-71.227800000000002
0
LINE
8
BLACK
6
CONTINUOUS
10
155.9277999999999906
20
-71.227800000000002
11
155.9277999999999906
21
-68.8277999999999963
0
LINE
8
BLACK
6
CONTINUOUS
10
155.9277999999999906
20
-68.8277999999999963
11
157.8277999999999963
21
-68.8277999999999963
0
LINE
8
BLACK
6
CONTINUOUS
10
157.8277999999999963
20
-68.8277999999999963
11
157.8277999999999963
21
-71.227800000000002
0
LINE
8
BLACK
6
CONTINUOUS
10
161.9277999999999906
20
-71.227800000000002
11
160.0277999999999849
21
-71.227800000000002
0
LINE
8
BLACK
6
CONTINUOUS
10
160.0277999999999849
20
-71.227800000000002
11
160.0277999999999849
21
-68.8277999999999963
0
LINE
8
BLACK
6
CONTINUOUS
10
160.0277999999999849
20
-68.8277999999999963
11
161.9277999999999906
21
-68.8277999999999963
0
LINE
8
BLACK
6
CONTINUOUS
10
161.9277999999999906
20
-68.8277999999999963
11
161.9277999999999906
21
-71.227800000000002
0
LINE
8
BLACK
6
CONTINUOUS
10
145.3295289999999795
20
-68.7683540000000022
11
145.4086069999999893
21
-68.8211929999999938
0
LINE
8
BLACK
6
CONTINUOUS
10
145.4086069999999893
20
-68.8211929999999938
11
145.4614459999999951
21
-68.9002710000000036
0
LINE
8
BLACK
6
CONTINUOUS
10
145.4614459999999951
20
-68.9002710000000036
11
145.4799999999999898
21
-68.993549999999999
0
LINE
8
BLACK
6
CONTINUOUS
10
145.4799999999999898
20
-68.993549999999999
11
145.4799999999999898
21
-69.4810499999999962
0
LINE
8
BLACK
6
CONTINUOUS
10
145.4799999999999898
20
-69.4810499999999962
11
145.4614459999999951
21
-69.5743289999999917
0
LINE
8
BLACK
6
CONTINUOUS
10
145.4614459999999951
20
-69.5743289999999917
11
145.4086069999999893
21
-69.6534070000000014
0
LINE
8
BLACK
6
CONTINUOUS
10
145.4086069999999893
20
-69.6534070000000014
11
145.3295289999999795
21
-69.706245999999993
0
LINE
8
BLACK
6
CONTINUOUS
10
145.3295289999999795
20
-69.706245999999993
11
145.2362499999999841
21
-69.7248000000000019
0
LINE
8
BLACK
6
CONTINUOUS
10
145.2362499999999841
20
-69.7248000000000019
11
144.3237499999999898
21
-69.7248000000000019
0
LINE
8
BLACK
6
CONTINUOUS
10
144.3237499999999898
20
-69.7248000000000019
11
144.2304709999999943
21
-69.706245999999993
0
LINE
8
BLACK
6
CONTINUOUS
10
144.2304709999999943
20
-69.706245999999993
11
144.1513929999999846
21
-69.6534070000000014
0
LINE
8
BLACK
6
CONTINUOUS
10
144.1513929999999846
20
-69.6534070000000014
11
144.0985540000000071
21
-69.5743289999999917
0
LINE
8
BLACK
6
CONTINUOUS
10
144.0985540000000071
20
-69.5743289999999917
11
144.0799999999999841
21
-69.4810499999999962
0
LINE
8
BLACK
6
CONTINUOUS
10
144.0799999999999841
20
-69.4810499999999962
11
144.0799999999999841
21
-68.993549999999999
0
LINE
8
BLACK
6
CONTINUOUS
10
144.0799999999999841
20
-68.993549999999999
11
144.0985540000000071
21
-68.9002710000000036
0
LINE
8
BLACK
6
CONTINUOUS
10
144.0985540000000071
20
-68.9002710000000036
11
144.1513929999999846
21
-68.8211929999999938
0
LINE
8
BLACK
6
CONTINUOUS
10
144.1513929999999846
20
-68.8211929999999938
11
144.2304709999999943
21
-68.7683540000000022
0
LINE
8
BLACK
6
CONTINUOUS
10
144.2304709999999943
20
-68.7683540000000022
11
144.3237499999999898
21
-68.7497999999999934
0
LINE
8
BLACK
6
CONTINUOUS
10
144.3237499999999898
20
-68.7497999999999934
11
145.2362499999999841
21
-68.7497999999999934
0
LINE
8
BLACK
6
CONTINUOUS
10
145.2362499999999841
20
-68.7497999999999934
11
145.3295289999999795
21
-68.7683540000000022
0
LINE
8
BLACK
6
CONTINUOUS
10
147.869529
20
-68.7683540000000022
11
147.9486069999999813
21
-68.8211929999999938
0
LINE
8
BLACK
6
CONTINUOUS
10
147.9486069999999813
20
-68.8211929999999938
11
148.0014459999999872
21
-68.9002710000000036
0
LINE
8
BLACK
6
CONTINUOUS
10
148.0014459999999872
20
-68.9002710000000036
11
148.0199999999999818
21
-68.993549999999999
0
LINE
8
BLACK
6
CONTINUOUS
10
148.0199999999999818
20
-68.993549999999999
11
148.0199999999999818
21
-69.4810499999999962
0
LINE
8
BLACK
6
CONTINUOUS
10
148.0199999999999818
20
-69.4810499999999962
11
148.0014459999999872
21
-69.5743289999999917
0
LINE
8
BLACK
6
CONTINUOUS
10
148.0014459999999872
20
-69.5743289999999917
11
147.9486069999999813
21
-69.6534070000000014
0
LINE
8
BLACK
6
CONTINUOUS
10
147.9486069999999813
20
-69.6534070000000014
11
147.869529
21
-69.706245999999993
0
LINE
8
BLACK
6
CONTINUOUS
10
147.869529
20
-69.706245999999993
11
147.7762500000000045
21
-69.7248000000000019
0
LINE
8
BLACK
6
CONTINUOUS
10
147.7762500000000045
20
-69.7248000000000019
11
146.8637499999999818
21
-69.7248000000000019
0
LINE
8
BLACK
6
CONTINUOUS
10
146.8637499999999818
20
-69.7248000000000019
11
146.7704709999999864
21
-69.706245999999993
0
LINE
8
BLACK
6
CONTINUOUS
10
146.7704709999999864
20
-69.706245999999993
11
146.691393000000005
21
-69.6534070000000014
0
LINE
8
BLACK
6
CONTINUOUS
10
146.691393000000005
20
-69.6534070000000014
11
146.6385539999999992
21
-69.5743289999999917
0
LINE
8
BLACK
6
CONTINUOUS
10
146.6385539999999992
20
-69.5743289999999917
11
146.6200000000000045
21
-69.4810499999999962
0
LINE
8
BLACK
6
CONTINUOUS
10
146.6200000000000045
20
-69.4810499999999962
11
146.6200000000000045
21
-68.993549999999999
0
LINE
8
BLACK
6
CONTINUOUS
10
146.6200000000000045
20
-68.993549999999999
11
146.6385539999999992
21
-68.9002710000000036
0
LINE
8
BLACK
6
CONTINUOUS
10
146.6385539999999992
20
-68.9002710000000036
11
146.691393000000005
21
-68.8211929999999938
0
LINE
8
BLACK
6
CONTINUOUS
10
146.691393000000005
20
-68.8211929999999938
11
146.7704709999999864
21
-68.7683540000000022
0
LINE
8
BLACK
6
CONTINUOUS
10
146.7704709999999864
20
-68.7683540000000022
11
146.8637499999999818
21
-68.7497999999999934
0
LINE
8
BLACK
6
CONTINUOUS
10
146.8637499999999818
20
-68.7497999999999934
11
147.7762500000000045
21
-68.7497999999999934
0
LINE
8
BLACK
6
CONTINUOUS
10
147.7762500000000045
20
-68.7497999999999934
11
147.869529
21
-68.7683540000000022
  0
ENDSEC
  0
EOF
