  0
SECTION
  2
HEADER
  9
$ANGBASE
  50
0.0
  9
$ANGDIR
  70
1
  9
$MEASUREMENT
  70
1
  0
ENDSEC
  0
SECTION
  2
TABLES
  0
TABLE
  2
LTYPE
  70
4
  0
LTYPE
  5
40F
  2
CONTINUOUS
  70
0
  3
Solid line
  72
65
  73
0
  40
0.0
  0
LTYPE
  5
410
  2
DASHDOT
 70
0
  3
Dash Dot ____ _ ____ _
 72
65
 73
4
 40
2.0
 49
1.25
 49
-0.25
 49
0.25
 49
-0.25
  0
LTYPE
  5
411
  2
DASHED
 70
0
  3
Dashed __ __ __ __ __
 72
65
 73
2
 40
0.75
 49
0.5
 49
-0.25
  0
LTYPE
  5
43B
  2
DOTTED
 70
0
  3
Dotted .  .  .  .
 72
65
 73
2
 40
0.2
 49
0.0
 49
-0.2
  0
ENDTAB
  0
TABLE
  2
STYLE
  70
4
  0
STYLE
  2
KICAD
  70
0
  40
0
  41
1
  42
1
  50
0
  71
0
  3
isocp.shx
  0
STYLE
  2
KICADB
  70
0
  40
0
  41
1
  42
1
  50
0
  71
0
  3
isocp.shx
  0
STYLE
  2
KICADI
  70
0
  40
0
  41
1
  42
1
  50
15
  71
0
  3
isocp.shx
  0
STYLE
  2
KICADBI
  70
0
  40
0
  41
1
  42
1
  50
15
  71
0
  3
isocp.shx
  0
ENDTAB
  0
TABLE
  2
LAYER
  70
1
  0
LAYER
  2
BLACK
  70
0
  62
7
  6
CONTINUOUS
  0
ENDTAB
  0
ENDSEC
  0
SECTION
  2
ENTITIES
0
LINE
8
BLACK
6
CONTINUOUS
10
131.931
20
-96.4134
11
132.012
21
-96.4676
0
LINE
8
BLACK
6
CONTINUOUS
10
132.012
20
-96.4676
11
132.066
21
-96.5487
0
LINE
8
BLACK
6
CONTINUOUS
10
132.066
20
-96.5487
11
132.085
21
-96.6444
0
LINE
8
BLACK
6
CONTINUOUS
10
132.085
20
-96.6444
11
132.085
21
-99.6444
0
LINE
8
BLACK
6
CONTINUOUS
10
132.085
20
-99.6444
11
132.066
21
-99.7401
0
LINE
8
BLACK
6
CONTINUOUS
10
132.066
20
-99.7401
11
132.012
21
-99.8212
0
LINE
8
BLACK
6
CONTINUOUS
10
132.012
20
-99.8212
11
131.931
21
-99.8754
0
LINE
8
BLACK
6
CONTINUOUS
10
131.931
20
-99.8754
11
131.835
21
-99.8944
0
LINE
8
BLACK
6
CONTINUOUS
10
131.835
20
-99.8944
11
129.835
21
-99.8944
0
LINE
8
BLACK
6
CONTINUOUS
10
129.835
20
-99.8944
11
129.74
21
-99.8754
0
LINE
8
BLACK
6
CONTINUOUS
10
129.74
20
-99.8754
11
129.659
21
-99.8212
0
LINE
8
BLACK
6
CONTINUOUS
10
129.659
20
-99.8212
11
129.604
21
-99.7401
0
LINE
8
BLACK
6
CONTINUOUS
10
129.604
20
-99.7401
11
129.585
21
-99.6444
0
LINE
8
BLACK
6
CONTINUOUS
10
129.585
20
-99.6444
11
129.585
21
-96.6444
0
LINE
8
BLACK
6
CONTINUOUS
10
129.585
20
-96.6444
11
129.604
21
-96.5487
0
LINE
8
BLACK
6
CONTINUOUS
10
129.604
20
-96.5487
11
129.659
21
-96.4676
0
LINE
8
BLACK
6
CONTINUOUS
10
129.659
20
-96.4676
11
129.74
21
-96.4134
0
LINE
8
BLACK
6
CONTINUOUS
10
129.74
20
-96.4134
11
129.835
21
-96.3944
0
LINE
8
BLACK
6
CONTINUOUS
10
129.835
20
-96.3944
11
131.835
21
-96.3944
0
LINE
8
BLACK
6
CONTINUOUS
10
131.835
20
-96.3944
11
131.931
21
-96.4134
0
LINE
8
BLACK
6
CONTINUOUS
10
163.535
20
-97.568
11
163.616
21
-97.6222
0
LINE
8
BLACK
6
CONTINUOUS
10
163.616
20
-97.6222
11
163.67
21
-97.7033
0
LINE
8
BLACK
6
CONTINUOUS
10
163.67
20
-97.7033
11
163.689
21
-97.799
0
LINE
8
BLACK
6
CONTINUOUS
10
163.689
20
-97.799
11
163.689
21
-98.549
0
LINE
8
BLACK
6
CONTINUOUS
10
163.689
20
-98.549
11
163.67
21
-98.6447
0
LINE
8
BLACK
6
CONTINUOUS
10
163.67
20
-98.6447
11
163.616
21
-98.7258
0
LINE
8
BLACK
6
CONTINUOUS
10
163.616
20
-98.7258
11
163.535
21
-98.78
0
LINE
8
BLACK
6
CONTINUOUS
10
163.535
20
-98.78
11
163.439
21
-98.799
0
LINE
8
BLACK
6
CONTINUOUS
10
163.439
20
-98.799
11
162.189
21
-98.799
0
LINE
8
BLACK
6
CONTINUOUS
10
162.189
20
-98.799
11
162.093
21
-98.78
0
LINE
8
BLACK
6
CONTINUOUS
10
162.093
20
-98.78
11
162.012
21
-98.7258
0
LINE
8
BLACK
6
CONTINUOUS
10
162.012
20
-98.7258
11
161.958
21
-98.6447
0
LINE
8
BLACK
6
CONTINUOUS
10
161.958
20
-98.6447
11
161.939
21
-98.549
0
LINE
8
BLACK
6
CONTINUOUS
10
161.939
20
-98.549
11
161.939
21
-97.799
0
LINE
8
BLACK
6
CONTINUOUS
10
161.939
20
-97.799
11
161.958
21
-97.7033
0
LINE
8
BLACK
6
CONTINUOUS
10
161.958
20
-97.7033
11
162.012
21
-97.6222
0
LINE
8
BLACK
6
CONTINUOUS
10
162.012
20
-97.6222
11
162.093
21
-97.568
0
LINE
8
BLACK
6
CONTINUOUS
10
162.093
20
-97.568
11
162.189
21
-97.549
0
LINE
8
BLACK
6
CONTINUOUS
10
162.189
20
-97.549
11
163.439
21
-97.549
0
LINE
8
BLACK
6
CONTINUOUS
10
163.439
20
-97.549
11
163.535
21
-97.568
0
LINE
8
BLACK
6
CONTINUOUS
10
159.554
20
-96.2266
11
159.633
21
-96.2794
0
LINE
8
BLACK
6
CONTINUOUS
10
159.633
20
-96.2794
11
159.685
21
-96.3585
0
LINE
8
BLACK
6
CONTINUOUS
10
159.685
20
-96.3585
11
159.704
21
-96.4517
0
LINE
8
BLACK
6
CONTINUOUS
10
159.704
20
-96.4517
11
159.704
21
-96.9393
0
LINE
8
BLACK
6
CONTINUOUS
10
159.704
20
-96.9393
11
159.685
21
-97.0325
0
LINE
8
BLACK
6
CONTINUOUS
10
159.685
20
-97.0325
11
159.633
21
-97.1116
0
LINE
8
BLACK
6
CONTINUOUS
10
159.633
20
-97.1116
11
159.554
21
-97.1644
0
LINE
8
BLACK
6
CONTINUOUS
10
159.554
20
-97.1644
11
159.46
21
-97.183
0
LINE
8
BLACK
6
CONTINUOUS
10
159.46
20
-97.183
11
158.548
21
-97.183
0
LINE
8
BLACK
6
CONTINUOUS
10
158.548
20
-97.183
11
158.454
21
-97.1644
0
LINE
8
BLACK
6
CONTINUOUS
10
158.454
20
-97.1644
11
158.375
21
-97.1116
0
LINE
8
BLACK
6
CONTINUOUS
10
158.375
20
-97.1116
11
158.323
21
-97.0325
0
LINE
8
BLACK
6
CONTINUOUS
10
158.323
20
-97.0325
11
158.304
21
-96.9393
0
LINE
8
BLACK
6
CONTINUOUS
10
158.304
20
-96.9393
11
158.304
21
-96.4517
0
LINE
8
BLACK
6
CONTINUOUS
10
158.304
20
-96.4517
11
158.323
21
-96.3585
0
LINE
8
BLACK
6
CONTINUOUS
10
158.323
20
-96.3585
11
158.375
21
-96.2794
0
LINE
8
BLACK
6
CONTINUOUS
10
158.375
20
-96.2794
11
158.454
21
-96.2266
0
LINE
8
BLACK
6
CONTINUOUS
10
158.454
20
-96.2266
11
158.548
21
-96.208
0
LINE
8
BLACK
6
CONTINUOUS
10
158.548
20
-96.208
11
159.46
21
-96.208
0
LINE
8
BLACK
6
CONTINUOUS
10
159.46
20
-96.208
11
159.554
21
-96.2266
0
LINE
8
BLACK
6
CONTINUOUS
10
163.535
20
-94.768
11
163.616
21
-94.8222
0
LINE
8
BLACK
6
CONTINUOUS
10
163.616
20
-94.8222
11
163.67
21
-94.9033
0
LINE
8
BLACK
6
CONTINUOUS
10
163.67
20
-94.9033
11
163.689
21
-94.999
0
LINE
8
BLACK
6
CONTINUOUS
10
163.689
20
-94.999
11
163.689
21
-95.749
0
LINE
8
BLACK
6
CONTINUOUS
10
163.689
20
-95.749
11
163.67
21
-95.8447
0
LINE
8
BLACK
6
CONTINUOUS
10
163.67
20
-95.8447
11
163.616
21
-95.9258
0
LINE
8
BLACK
6
CONTINUOUS
10
163.616
20
-95.9258
11
163.535
21
-95.98
0
LINE
8
BLACK
6
CONTINUOUS
10
163.535
20
-95.98
11
163.439
21
-95.999
0
LINE
8
BLACK
6
CONTINUOUS
10
163.439
20
-95.999
11
162.189
21
-95.999
0
LINE
8
BLACK
6
CONTINUOUS
10
162.189
20
-95.999
11
162.093
21
-95.98
0
LINE
8
BLACK
6
CONTINUOUS
10
162.093
20
-95.98
11
162.012
21
-95.9258
0
LINE
8
BLACK
6
CONTINUOUS
10
162.012
20
-95.9258
11
161.958
21
-95.8447
0
LINE
8
BLACK
6
CONTINUOUS
10
161.958
20
-95.8447
11
161.939
21
-95.749
0
LINE
8
BLACK
6
CONTINUOUS
10
161.939
20
-95.749
11
161.939
21
-94.999
0
LINE
8
BLACK
6
CONTINUOUS
10
161.939
20
-94.999
11
161.958
21
-94.9033
0
LINE
8
BLACK
6
CONTINUOUS
10
161.958
20
-94.9033
11
162.012
21
-94.8222
0
LINE
8
BLACK
6
CONTINUOUS
10
162.012
20
-94.8222
11
162.093
21
-94.768
0
LINE
8
BLACK
6
CONTINUOUS
10
162.093
20
-94.768
11
162.189
21
-94.749
0
LINE
8
BLACK
6
CONTINUOUS
10
162.189
20
-94.749
11
163.439
21
-94.749
0
LINE
8
BLACK
6
CONTINUOUS
10
163.439
20
-94.749
11
163.535
21
-94.768
0
LINE
8
BLACK
6
CONTINUOUS
10
159.554
20
-94.3516
11
159.633
21
-94.4044
0
LINE
8
BLACK
6
CONTINUOUS
10
159.633
20
-94.4044
11
159.685
21
-94.4835
0
LINE
8
BLACK
6
CONTINUOUS
10
159.685
20
-94.4835
11
159.704
21
-94.5767
0
LINE
8
BLACK
6
CONTINUOUS
10
159.704
20
-94.5767
11
159.704
21
-95.0643
0
LINE
8
BLACK
6
CONTINUOUS
10
159.704
20
-95.0643
11
159.685
21
-95.1575
0
LINE
8
BLACK
6
CONTINUOUS
10
159.685
20
-95.1575
11
159.633
21
-95.2366
0
LINE
8
BLACK
6
CONTINUOUS
10
159.633
20
-95.2366
11
159.554
21
-95.2894
0
LINE
8
BLACK
6
CONTINUOUS
10
159.554
20
-95.2894
11
159.46
21
-95.308
0
LINE
8
BLACK
6
CONTINUOUS
10
159.46
20
-95.308
11
158.548
21
-95.308
0
LINE
8
BLACK
6
CONTINUOUS
10
158.548
20
-95.308
11
158.454
21
-95.2894
0
LINE
8
BLACK
6
CONTINUOUS
10
158.454
20
-95.2894
11
158.375
21
-95.2366
0
LINE
8
BLACK
6
CONTINUOUS
10
158.375
20
-95.2366
11
158.323
21
-95.1575
0
LINE
8
BLACK
6
CONTINUOUS
10
158.323
20
-95.1575
11
158.304
21
-95.0643
0
LINE
8
BLACK
6
CONTINUOUS
10
158.304
20
-95.0643
11
158.304
21
-94.5767
0
LINE
8
BLACK
6
CONTINUOUS
10
158.304
20
-94.5767
11
158.323
21
-94.4835
0
LINE
8
BLACK
6
CONTINUOUS
10
158.323
20
-94.4835
11
158.375
21
-94.4044
0
LINE
8
BLACK
6
CONTINUOUS
10
158.375
20
-94.4044
11
158.454
21
-94.3516
0
LINE
8
BLACK
6
CONTINUOUS
10
158.454
20
-94.3516
11
158.548
21
-94.333
0
LINE
8
BLACK
6
CONTINUOUS
10
158.548
20
-94.333
11
159.46
21
-94.333
0
LINE
8
BLACK
6
CONTINUOUS
10
159.46
20
-94.333
11
159.554
21
-94.3516
0
LINE
8
BLACK
6
CONTINUOUS
10
131.931
20
-89.9134
11
132.012
21
-89.9676
0
LINE
8
BLACK
6
CONTINUOUS
10
132.012
20
-89.9676
11
132.066
21
-90.0487
0
LINE
8
BLACK
6
CONTINUOUS
10
132.066
20
-90.0487
11
132.085
21
-90.1444
0
LINE
8
BLACK
6
CONTINUOUS
10
132.085
20
-90.1444
11
132.085
21
-93.1444
0
LINE
8
BLACK
6
CONTINUOUS
10
132.085
20
-93.1444
11
132.066
21
-93.2401
0
LINE
8
BLACK
6
CONTINUOUS
10
132.066
20
-93.2401
11
132.012
21
-93.3212
0
LINE
8
BLACK
6
CONTINUOUS
10
132.012
20
-93.3212
11
131.931
21
-93.3754
0
LINE
8
BLACK
6
CONTINUOUS
10
131.931
20
-93.3754
11
131.835
21
-93.3944
0
LINE
8
BLACK
6
CONTINUOUS
10
131.835
20
-93.3944
11
129.835
21
-93.3944
0
LINE
8
BLACK
6
CONTINUOUS
10
129.835
20
-93.3944
11
129.74
21
-93.3754
0
LINE
8
BLACK
6
CONTINUOUS
10
129.74
20
-93.3754
11
129.659
21
-93.3212
0
LINE
8
BLACK
6
CONTINUOUS
10
129.659
20
-93.3212
11
129.604
21
-93.2401
0
LINE
8
BLACK
6
CONTINUOUS
10
129.604
20
-93.2401
11
129.585
21
-93.1444
0
LINE
8
BLACK
6
CONTINUOUS
10
129.585
20
-93.1444
11
129.585
21
-90.1444
0
LINE
8
BLACK
6
CONTINUOUS
10
129.585
20
-90.1444
11
129.604
21
-90.0487
0
LINE
8
BLACK
6
CONTINUOUS
10
129.604
20
-90.0487
11
129.659
21
-89.9676
0
LINE
8
BLACK
6
CONTINUOUS
10
129.659
20
-89.9676
11
129.74
21
-89.9134
0
LINE
8
BLACK
6
CONTINUOUS
10
129.74
20
-89.9134
11
129.835
21
-89.8944
0
LINE
8
BLACK
6
CONTINUOUS
10
129.835
20
-89.8944
11
131.835
21
-89.8944
0
LINE
8
BLACK
6
CONTINUOUS
10
131.835
20
-89.8944
11
131.931
21
-89.9134
0
LINE
8
BLACK
6
CONTINUOUS
10
122.4
20
-90.2186
11
122.479
21
-90.2714
0
LINE
8
BLACK
6
CONTINUOUS
10
122.479
20
-90.2714
11
122.531
21
-90.3505
0
LINE
8
BLACK
6
CONTINUOUS
10
122.531
20
-90.3505
11
122.55
21
-90.4437
0
LINE
8
BLACK
6
CONTINUOUS
10
122.55
20
-90.4437
11
122.55
21
-91.3563
0
LINE
8
BLACK
6
CONTINUOUS
10
122.55
20
-91.3563
11
122.531
21
-91.4495
0
LINE
8
BLACK
6
CONTINUOUS
10
122.531
20
-91.4495
11
122.479
21
-91.5286
0
LINE
8
BLACK
6
CONTINUOUS
10
122.479
20
-91.5286
11
122.4
21
-91.5814
0
LINE
8
BLACK
6
CONTINUOUS
10
122.4
20
-91.5814
11
122.306
21
-91.6
0
LINE
8
BLACK
6
CONTINUOUS
10
122.306
20
-91.6
11
121.819
21
-91.6
0
LINE
8
BLACK
6
CONTINUOUS
10
121.819
20
-91.6
11
121.725
21
-91.5814
0
LINE
8
BLACK
6
CONTINUOUS
10
121.725
20
-91.5814
11
121.646
21
-91.5286
0
LINE
8
BLACK
6
CONTINUOUS
10
121.646
20
-91.5286
11
121.594
21
-91.4495
0
LINE
8
BLACK
6
CONTINUOUS
10
121.594
20
-91.4495
11
121.575
21
-91.3563
0
LINE
8
BLACK
6
CONTINUOUS
10
121.575
20
-91.3563
11
121.575
21
-90.4437
0
LINE
8
BLACK
6
CONTINUOUS
10
121.575
20
-90.4437
11
121.594
21
-90.3505
0
LINE
8
BLACK
6
CONTINUOUS
10
121.594
20
-90.3505
11
121.646
21
-90.2714
0
LINE
8
BLACK
6
CONTINUOUS
10
121.646
20
-90.2714
11
121.725
21
-90.2186
0
LINE
8
BLACK
6
CONTINUOUS
10
121.725
20
-90.2186
11
121.819
21
-90.2
0
LINE
8
BLACK
6
CONTINUOUS
10
121.819
20
-90.2
11
122.306
21
-90.2
0
LINE
8
BLACK
6
CONTINUOUS
10
122.306
20
-90.2
11
122.4
21
-90.2186
0
LINE
8
BLACK
6
CONTINUOUS
10
124.275
20
-90.2186
11
124.354
21
-90.2714
0
LINE
8
BLACK
6
CONTINUOUS
10
124.354
20
-90.2714
11
124.406
21
-90.3505
0
LINE
8
BLACK
6
CONTINUOUS
10
124.406
20
-90.3505
11
124.425
21
-90.4437
0
LINE
8
BLACK
6
CONTINUOUS
10
124.425
20
-90.4437
11
124.425
21
-91.3563
0
LINE
8
BLACK
6
CONTINUOUS
10
124.425
20
-91.3563
11
124.406
21
-91.4495
0
LINE
8
BLACK
6
CONTINUOUS
10
124.406
20
-91.4495
11
124.354
21
-91.5286
0
LINE
8
BLACK
6
CONTINUOUS
10
124.354
20
-91.5286
11
124.275
21
-91.5814
0
LINE
8
BLACK
6
CONTINUOUS
10
124.275
20
-91.5814
11
124.181
21
-91.6
0
LINE
8
BLACK
6
CONTINUOUS
10
124.181
20
-91.6
11
123.694
21
-91.6
0
LINE
8
BLACK
6
CONTINUOUS
10
123.694
20
-91.6
11
123.6
21
-91.5814
0
LINE
8
BLACK
6
CONTINUOUS
10
123.6
20
-91.5814
11
123.521
21
-91.5286
0
LINE
8
BLACK
6
CONTINUOUS
10
123.521
20
-91.5286
11
123.469
21
-91.4495
0
LINE
8
BLACK
6
CONTINUOUS
10
123.469
20
-91.4495
11
123.45
21
-91.3563
0
LINE
8
BLACK
6
CONTINUOUS
10
123.45
20
-91.3563
11
123.45
21
-90.4437
0
LINE
8
BLACK
6
CONTINUOUS
10
123.45
20
-90.4437
11
123.469
21
-90.3505
0
LINE
8
BLACK
6
CONTINUOUS
10
123.469
20
-90.3505
11
123.521
21
-90.2714
0
LINE
8
BLACK
6
CONTINUOUS
10
123.521
20
-90.2714
11
123.6
21
-90.2186
0
LINE
8
BLACK
6
CONTINUOUS
10
123.6
20
-90.2186
11
123.694
21
-90.2
0
LINE
8
BLACK
6
CONTINUOUS
10
123.694
20
-90.2
11
124.181
21
-90.2
0
LINE
8
BLACK
6
CONTINUOUS
10
124.181
20
-90.2
11
124.275
21
-90.2186
0
LINE
8
BLACK
6
CONTINUOUS
10
167.294
20
-89.9966
11
167.373
21
-90.0494
0
LINE
8
BLACK
6
CONTINUOUS
10
167.373
20
-90.0494
11
167.425
21
-90.1285
0
LINE
8
BLACK
6
CONTINUOUS
10
167.425
20
-90.1285
11
167.444
21
-90.2218
0
LINE
8
BLACK
6
CONTINUOUS
10
167.444
20
-90.2218
11
167.444
21
-91.1342
0
LINE
8
BLACK
6
CONTINUOUS
10
167.444
20
-91.1342
11
167.425
21
-91.2275
0
LINE
8
BLACK
6
CONTINUOUS
10
167.425
20
-91.2275
11
167.373
21
-91.3066
0
LINE
8
BLACK
6
CONTINUOUS
10
167.373
20
-91.3066
11
167.294
21
-91.3594
0
LINE
8
BLACK
6
CONTINUOUS
10
167.294
20
-91.3594
11
167.2
21
-91.378
0
LINE
8
BLACK
6
CONTINUOUS
10
167.2
20
-91.378
11
166.713
21
-91.378
0
LINE
8
BLACK
6
CONTINUOUS
10
166.713
20
-91.378
11
166.619
21
-91.3594
0
LINE
8
BLACK
6
CONTINUOUS
10
166.619
20
-91.3594
11
166.54
21
-91.3066
0
LINE
8
BLACK
6
CONTINUOUS
10
166.54
20
-91.3066
11
166.488
21
-91.2275
0
LINE
8
BLACK
6
CONTINUOUS
10
166.488
20
-91.2275
11
166.469
21
-91.1342
0
LINE
8
BLACK
6
CONTINUOUS
10
166.469
20
-91.1342
11
166.469
21
-90.2218
0
LINE
8
BLACK
6
CONTINUOUS
10
166.469
20
-90.2218
11
166.488
21
-90.1285
0
LINE
8
BLACK
6
CONTINUOUS
10
166.488
20
-90.1285
11
166.54
21
-90.0494
0
LINE
8
BLACK
6
CONTINUOUS
10
166.54
20
-90.0494
11
166.619
21
-89.9966
0
LINE
8
BLACK
6
CONTINUOUS
10
166.619
20
-89.9966
11
166.713
21
-89.978
0
LINE
8
BLACK
6
CONTINUOUS
10
166.713
20
-89.978
11
167.2
21
-89.978
0
LINE
8
BLACK
6
CONTINUOUS
10
167.2
20
-89.978
11
167.294
21
-89.9966
0
LINE
8
BLACK
6
CONTINUOUS
10
169.169
20
-89.9966
11
169.248
21
-90.0494
0
LINE
8
BLACK
6
CONTINUOUS
10
169.248
20
-90.0494
11
169.3
21
-90.1285
0
LINE
8
BLACK
6
CONTINUOUS
10
169.3
20
-90.1285
11
169.319
21
-90.2218
0
LINE
8
BLACK
6
CONTINUOUS
10
169.319
20
-90.2218
11
169.319
21
-91.1342
0
LINE
8
BLACK
6
CONTINUOUS
10
169.319
20
-91.1342
11
169.3
21
-91.2275
0
LINE
8
BLACK
6
CONTINUOUS
10
169.3
20
-91.2275
11
169.248
21
-91.3066
0
LINE
8
BLACK
6
CONTINUOUS
10
169.248
20
-91.3066
11
169.169
21
-91.3594
0
LINE
8
BLACK
6
CONTINUOUS
10
169.169
20
-91.3594
11
169.075
21
-91.378
0
LINE
8
BLACK
6
CONTINUOUS
10
169.075
20
-91.378
11
168.588
21
-91.378
0
LINE
8
BLACK
6
CONTINUOUS
10
168.588
20
-91.378
11
168.494
21
-91.3594
0
LINE
8
BLACK
6
CONTINUOUS
10
168.494
20
-91.3594
11
168.415
21
-91.3066
0
LINE
8
BLACK
6
CONTINUOUS
10
168.415
20
-91.3066
11
168.363
21
-91.2275
0
LINE
8
BLACK
6
CONTINUOUS
10
168.363
20
-91.2275
11
168.344
21
-91.1342
0
LINE
8
BLACK
6
CONTINUOUS
10
168.344
20
-91.1342
11
168.344
21
-90.2218
0
LINE
8
BLACK
6
CONTINUOUS
10
168.344
20
-90.2218
11
168.363
21
-90.1285
0
LINE
8
BLACK
6
CONTINUOUS
10
168.363
20
-90.1285
11
168.415
21
-90.0494
0
LINE
8
BLACK
6
CONTINUOUS
10
168.415
20
-90.0494
11
168.494
21
-89.9966
0
LINE
8
BLACK
6
CONTINUOUS
10
168.494
20
-89.9966
11
168.588
21
-89.978
0
LINE
8
BLACK
6
CONTINUOUS
10
168.588
20
-89.978
11
169.075
21
-89.978
0
LINE
8
BLACK
6
CONTINUOUS
10
169.075
20
-89.978
11
169.169
21
-89.9966
0
LINE
8
BLACK
6
CONTINUOUS
10
154.307
20
-90.902
11
153.757
21
-90.902
0
LINE
8
BLACK
6
CONTINUOUS
10
153.757
20
-90.902
11
153.757
21
-89.302
0
LINE
8
BLACK
6
CONTINUOUS
10
153.757
20
-89.302
11
154.307
21
-89.302
0
LINE
8
BLACK
6
CONTINUOUS
10
154.307
20
-89.302
11
154.307
21
-90.902
0
LINE
8
BLACK
6
CONTINUOUS
10
155.107
20
-90.902
11
154.557
21
-90.902
0
LINE
8
BLACK
6
CONTINUOUS
10
154.557
20
-90.902
11
154.557
21
-89.302
0
LINE
8
BLACK
6
CONTINUOUS
10
154.557
20
-89.302
11
155.107
21
-89.302
0
LINE
8
BLACK
6
CONTINUOUS
10
155.107
20
-89.302
11
155.107
21
-90.902
0
LINE
8
BLACK
6
CONTINUOUS
10
155.907
20
-90.902
11
155.357
21
-90.902
0
LINE
8
BLACK
6
CONTINUOUS
10
155.357
20
-90.902
11
155.357
21
-89.302
0
LINE
8
BLACK
6
CONTINUOUS
10
155.357
20
-89.302
11
155.907
21
-89.302
0
LINE
8
BLACK
6
CONTINUOUS
10
155.907
20
-89.302
11
155.907
21
-90.902
0
LINE
8
BLACK
6
CONTINUOUS
10
156.707
20
-90.902
11
156.157
21
-90.902
0
LINE
8
BLACK
6
CONTINUOUS
10
156.157
20
-90.902
11
156.157
21
-89.302
0
LINE
8
BLACK
6
CONTINUOUS
10
156.157
20
-89.302
11
156.707
21
-89.302
0
LINE
8
BLACK
6
CONTINUOUS
10
156.707
20
-89.302
11
156.707
21
-90.902
0
LINE
8
BLACK
6
CONTINUOUS
10
157.507
20
-90.902
11
156.957
21
-90.902
0
LINE
8
BLACK
6
CONTINUOUS
10
156.957
20
-90.902
11
156.957
21
-89.302
0
LINE
8
BLACK
6
CONTINUOUS
10
156.957
20
-89.302
11
157.507
21
-89.302
0
LINE
8
BLACK
6
CONTINUOUS
10
157.507
20
-89.302
11
157.507
21
-90.902
0
LINE
8
BLACK
6
CONTINUOUS
10
152.707
20
-90.902
11
152.157
21
-90.902
0
LINE
8
BLACK
6
CONTINUOUS
10
152.157
20
-90.902
11
152.157
21
-89.302
0
LINE
8
BLACK
6
CONTINUOUS
10
152.157
20
-89.302
11
152.707
21
-89.302
0
LINE
8
BLACK
6
CONTINUOUS
10
152.707
20
-89.302
11
152.707
21
-90.902
0
LINE
8
BLACK
6
CONTINUOUS
10
151.907
20
-90.902
11
151.357
21
-90.902
0
LINE
8
BLACK
6
CONTINUOUS
10
151.357
20
-90.902
11
151.357
21
-89.302
0
LINE
8
BLACK
6
CONTINUOUS
10
151.357
20
-89.302
11
151.907
21
-89.302
0
LINE
8
BLACK
6
CONTINUOUS
10
151.907
20
-89.302
11
151.907
21
-90.902
0
LINE
8
BLACK
6
CONTINUOUS
10
153.507
20
-90.902
11
152.957
21
-90.902
0
LINE
8
BLACK
6
CONTINUOUS
10
152.957
20
-90.902
11
152.957
21
-89.302
0
LINE
8
BLACK
6
CONTINUOUS
10
152.957
20
-89.302
11
153.507
21
-89.302
0
LINE
8
BLACK
6
CONTINUOUS
10
153.507
20
-89.302
11
153.507
21
-90.902
0
LINE
8
BLACK
6
CONTINUOUS
10
163.872
20
-89.6226
11
163.951
21
-89.6754
0
LINE
8
BLACK
6
CONTINUOUS
10
163.951
20
-89.6754
11
164.003
21
-89.7545
0
LINE
8
BLACK
6
CONTINUOUS
10
164.003
20
-89.7545
11
164.022
21
-89.8477
0
LINE
8
BLACK
6
CONTINUOUS
10
164.022
20
-89.8477
11
164.022
21
-90.3353
0
LINE
8
BLACK
6
CONTINUOUS
10
164.022
20
-90.3353
11
164.003
21
-90.4285
0
LINE
8
BLACK
6
CONTINUOUS
10
164.003
20
-90.4285
11
163.951
21
-90.5076
0
LINE
8
BLACK
6
CONTINUOUS
10
163.951
20
-90.5076
11
163.872
21
-90.5604
0
LINE
8
BLACK
6
CONTINUOUS
10
163.872
20
-90.5604
11
163.778
21
-90.579
0
LINE
8
BLACK
6
CONTINUOUS
10
163.778
20
-90.579
11
162.866
21
-90.579
0
LINE
8
BLACK
6
CONTINUOUS
10
162.866
20
-90.579
11
162.772
21
-90.5604
0
LINE
8
BLACK
6
CONTINUOUS
10
162.772
20
-90.5604
11
162.693
21
-90.5076
0
LINE
8
BLACK
6
CONTINUOUS
10
162.693
20
-90.5076
11
162.641
21
-90.4285
0
LINE
8
BLACK
6
CONTINUOUS
10
162.641
20
-90.4285
11
162.622
21
-90.3353
0
LINE
8
BLACK
6
CONTINUOUS
10
162.622
20
-90.3353
11
162.622
21
-89.8477
0
LINE
8
BLACK
6
CONTINUOUS
10
162.622
20
-89.8477
11
162.641
21
-89.7545
0
LINE
8
BLACK
6
CONTINUOUS
10
162.641
20
-89.7545
11
162.693
21
-89.6754
0
LINE
8
BLACK
6
CONTINUOUS
10
162.693
20
-89.6754
11
162.772
21
-89.6226
0
LINE
8
BLACK
6
CONTINUOUS
10
162.772
20
-89.6226
11
162.866
21
-89.604
0
LINE
8
BLACK
6
CONTINUOUS
10
162.866
20
-89.604
11
163.778
21
-89.604
0
LINE
8
BLACK
6
CONTINUOUS
10
163.778
20
-89.604
11
163.872
21
-89.6226
0
LINE
8
BLACK
6
CONTINUOUS
10
150.982
20
-88.927
11
149.382
21
-88.927
0
LINE
8
BLACK
6
CONTINUOUS
10
149.382
20
-88.927
11
149.382
21
-88.377
0
LINE
8
BLACK
6
CONTINUOUS
10
149.382
20
-88.377
11
150.982
21
-88.377
0
LINE
8
BLACK
6
CONTINUOUS
10
150.982
20
-88.377
11
150.982
21
-88.927
0
LINE
8
BLACK
6
CONTINUOUS
10
159.482
20
-88.927
11
157.882
21
-88.927
0
LINE
8
BLACK
6
CONTINUOUS
10
157.882
20
-88.927
11
157.882
21
-88.377
0
LINE
8
BLACK
6
CONTINUOUS
10
157.882
20
-88.377
11
159.482
21
-88.377
0
LINE
8
BLACK
6
CONTINUOUS
10
159.482
20
-88.377
11
159.482
21
-88.927
0
LINE
8
BLACK
6
CONTINUOUS
10
163.872
20
-87.7476
11
163.951
21
-87.8004
0
LINE
8
BLACK
6
CONTINUOUS
10
163.951
20
-87.8004
11
164.003
21
-87.8795
0
LINE
8
BLACK
6
CONTINUOUS
10
164.003
20
-87.8795
11
164.022
21
-87.9727
0
LINE
8
BLACK
6
CONTINUOUS
10
164.022
20
-87.9727
11
164.022
21
-88.4603
0
LINE
8
BLACK
6
CONTINUOUS
10
164.022
20
-88.4603
11
164.003
21
-88.5535
0
LINE
8
BLACK
6
CONTINUOUS
10
164.003
20
-88.5535
11
163.951
21
-88.6326
0
LINE
8
BLACK
6
CONTINUOUS
10
163.951
20
-88.6326
11
163.872
21
-88.6854
0
LINE
8
BLACK
6
CONTINUOUS
10
163.872
20
-88.6854
11
163.778
21
-88.704
0
LINE
8
BLACK
6
CONTINUOUS
10
163.778
20
-88.704
11
162.866
21
-88.704
0
LINE
8
BLACK
6
CONTINUOUS
10
162.866
20
-88.704
11
162.772
21
-88.6854
0
LINE
8
BLACK
6
CONTINUOUS
10
162.772
20
-88.6854
11
162.693
21
-88.6326
0
LINE
8
BLACK
6
CONTINUOUS
10
162.693
20
-88.6326
11
162.641
21
-88.5535
0
LINE
8
BLACK
6
CONTINUOUS
10
162.641
20
-88.5535
11
162.622
21
-88.4603
0
LINE
8
BLACK
6
CONTINUOUS
10
162.622
20
-88.4603
11
162.622
21
-87.9727
0
LINE
8
BLACK
6
CONTINUOUS
10
162.622
20
-87.9727
11
162.641
21
-87.8795
0
LINE
8
BLACK
6
CONTINUOUS
10
162.641
20
-87.8795
11
162.693
21
-87.8004
0
LINE
8
BLACK
6
CONTINUOUS
10
162.693
20
-87.8004
11
162.772
21
-87.7476
0
LINE
8
BLACK
6
CONTINUOUS
10
162.772
20
-87.7476
11
162.866
21
-87.729
0
LINE
8
BLACK
6
CONTINUOUS
10
162.866
20
-87.729
11
163.778
21
-87.729
0
LINE
8
BLACK
6
CONTINUOUS
10
163.778
20
-87.729
11
163.872
21
-87.7476
0
LINE
8
BLACK
6
CONTINUOUS
10
170.774
20
-87.7172
11
170.845
21
-87.7646
0
LINE
8
BLACK
6
CONTINUOUS
10
170.845
20
-87.7646
11
170.892
21
-87.8355
0
LINE
8
BLACK
6
CONTINUOUS
10
170.892
20
-87.8355
11
170.909
21
-87.9192
0
LINE
8
BLACK
6
CONTINUOUS
10
170.909
20
-87.9192
11
170.909
21
-88.3567
0
LINE
8
BLACK
6
CONTINUOUS
10
170.909
20
-88.3567
11
170.892
21
-88.4405
0
LINE
8
BLACK
6
CONTINUOUS
10
170.892
20
-88.4405
11
170.845
21
-88.5114
0
LINE
8
BLACK
6
CONTINUOUS
10
170.845
20
-88.5114
11
170.774
21
-88.5588
0
LINE
8
BLACK
6
CONTINUOUS
10
170.774
20
-88.5588
11
170.69
21
-88.5755
0
LINE
8
BLACK
6
CONTINUOUS
10
170.69
20
-88.5755
11
170.178
21
-88.5755
0
LINE
8
BLACK
6
CONTINUOUS
10
170.178
20
-88.5755
11
170.094
21
-88.5588
0
LINE
8
BLACK
6
CONTINUOUS
10
170.094
20
-88.5588
11
170.023
21
-88.5114
0
LINE
8
BLACK
6
CONTINUOUS
10
170.023
20
-88.5114
11
169.976
21
-88.4405
0
LINE
8
BLACK
6
CONTINUOUS
10
169.976
20
-88.4405
11
169.959
21
-88.3567
0
LINE
8
BLACK
6
CONTINUOUS
10
169.959
20
-88.3567
11
169.959
21
-87.9192
0
LINE
8
BLACK
6
CONTINUOUS
10
169.959
20
-87.9192
11
169.976
21
-87.8355
0
LINE
8
BLACK
6
CONTINUOUS
10
169.976
20
-87.8355
11
170.023
21
-87.7646
0
LINE
8
BLACK
6
CONTINUOUS
10
170.023
20
-87.7646
11
170.094
21
-87.7172
0
LINE
8
BLACK
6
CONTINUOUS
10
170.094
20
-87.7172
11
170.178
21
-87.7005
0
LINE
8
BLACK
6
CONTINUOUS
10
170.178
20
-87.7005
11
170.69
21
-87.7005
0
LINE
8
BLACK
6
CONTINUOUS
10
170.69
20
-87.7005
11
170.774
21
-87.7172
0
LINE
8
BLACK
6
CONTINUOUS
10
130.1
20
-88.2
11
128.1
21
-88.2
0
LINE
8
BLACK
6
CONTINUOUS
10
128.1
20
-88.2
11
128.1
21
-85.2
0
LINE
8
BLACK
6
CONTINUOUS
10
128.1
20
-85.2
11
130.1
21
-85.2
0
LINE
8
BLACK
6
CONTINUOUS
10
130.1
20
-85.2
11
130.1
21
-88.2
0
LINE
8
BLACK
6
CONTINUOUS
10
124.1
20
-88.2
11
122.1
21
-88.2
0
LINE
8
BLACK
6
CONTINUOUS
10
122.1
20
-88.2
11
122.1
21
-85.2
0
LINE
8
BLACK
6
CONTINUOUS
10
122.1
20
-85.2
11
124.1
21
-85.2
0
LINE
8
BLACK
6
CONTINUOUS
10
124.1
20
-85.2
11
124.1
21
-88.2
0
LINE
8
BLACK
6
CONTINUOUS
10
159.482
20
-88.127
11
157.882
21
-88.127
0
LINE
8
BLACK
6
CONTINUOUS
10
157.882
20
-88.127
11
157.882
21
-87.577
0
LINE
8
BLACK
6
CONTINUOUS
10
157.882
20
-87.577
11
159.482
21
-87.577
0
LINE
8
BLACK
6
CONTINUOUS
10
159.482
20
-87.577
11
159.482
21
-88.127
0
LINE
8
BLACK
6
CONTINUOUS
10
150.982
20
-88.127
11
149.382
21
-88.127
0
LINE
8
BLACK
6
CONTINUOUS
10
149.382
20
-88.127
11
149.382
21
-87.577
0
LINE
8
BLACK
6
CONTINUOUS
10
149.382
20
-87.577
11
150.982
21
-87.577
0
LINE
8
BLACK
6
CONTINUOUS
10
150.982
20
-87.577
11
150.982
21
-88.127
0
LINE
8
BLACK
6
CONTINUOUS
10
159.482
20
-87.327
11
157.882
21
-87.327
0
LINE
8
BLACK
6
CONTINUOUS
10
157.882
20
-87.327
11
157.882
21
-86.777
0
LINE
8
BLACK
6
CONTINUOUS
10
157.882
20
-86.777
11
159.482
21
-86.777
0
LINE
8
BLACK
6
CONTINUOUS
10
159.482
20
-86.777
11
159.482
21
-87.327
0
LINE
8
BLACK
6
CONTINUOUS
10
150.982
20
-87.327
11
149.382
21
-87.327
0
LINE
8
BLACK
6
CONTINUOUS
10
149.382
20
-87.327
11
149.382
21
-86.777
0
LINE
8
BLACK
6
CONTINUOUS
10
149.382
20
-86.777
11
150.982
21
-86.777
0
LINE
8
BLACK
6
CONTINUOUS
10
150.982
20
-86.777
11
150.982
21
-87.327
0
LINE
8
BLACK
6
CONTINUOUS
10
170.774
20
-86.1422
11
170.845
21
-86.1896
0
LINE
8
BLACK
6
CONTINUOUS
10
170.845
20
-86.1896
11
170.892
21
-86.2605
0
LINE
8
BLACK
6
CONTINUOUS
10
170.892
20
-86.2605
11
170.909
21
-86.3443
0
LINE
8
BLACK
6
CONTINUOUS
10
170.909
20
-86.3443
11
170.909
21
-86.7818
0
LINE
8
BLACK
6
CONTINUOUS
10
170.909
20
-86.7818
11
170.892
21
-86.8655
0
LINE
8
BLACK
6
CONTINUOUS
10
170.892
20
-86.8655
11
170.845
21
-86.9364
0
LINE
8
BLACK
6
CONTINUOUS
10
170.845
20
-86.9364
11
170.774
21
-86.9838
0
LINE
8
BLACK
6
CONTINUOUS
10
170.774
20
-86.9838
11
170.69
21
-87.0005
0
LINE
8
BLACK
6
CONTINUOUS
10
170.69
20
-87.0005
11
170.178
21
-87.0005
0
LINE
8
BLACK
6
CONTINUOUS
10
170.178
20
-87.0005
11
170.094
21
-86.9838
0
LINE
8
BLACK
6
CONTINUOUS
10
170.094
20
-86.9838
11
170.023
21
-86.9364
0
LINE
8
BLACK
6
CONTINUOUS
10
170.023
20
-86.9364
11
169.976
21
-86.8655
0
LINE
8
BLACK
6
CONTINUOUS
10
169.976
20
-86.8655
11
169.959
21
-86.7818
0
LINE
8
BLACK
6
CONTINUOUS
10
169.959
20
-86.7818
11
169.959
21
-86.3443
0
LINE
8
BLACK
6
CONTINUOUS
10
169.959
20
-86.3443
11
169.976
21
-86.2605
0
LINE
8
BLACK
6
CONTINUOUS
10
169.976
20
-86.2605
11
170.023
21
-86.1896
0
LINE
8
BLACK
6
CONTINUOUS
10
170.023
20
-86.1896
11
170.094
21
-86.1422
0
LINE
8
BLACK
6
CONTINUOUS
10
170.094
20
-86.1422
11
170.178
21
-86.1255
0
LINE
8
BLACK
6
CONTINUOUS
10
170.178
20
-86.1255
11
170.69
21
-86.1255
0
LINE
8
BLACK
6
CONTINUOUS
10
170.69
20
-86.1255
11
170.774
21
-86.1422
0
LINE
8
BLACK
6
CONTINUOUS
10
167.645
20
-85.4246
11
167.724
21
-85.4774
0
LINE
8
BLACK
6
CONTINUOUS
10
167.724
20
-85.4774
11
167.776
21
-85.5565
0
LINE
8
BLACK
6
CONTINUOUS
10
167.776
20
-85.5565
11
167.795
21
-85.6497
0
LINE
8
BLACK
6
CONTINUOUS
10
167.795
20
-85.6497
11
167.795
21
-86.5622
0
LINE
8
BLACK
6
CONTINUOUS
10
167.795
20
-86.5622
11
167.776
21
-86.6555
0
LINE
8
BLACK
6
CONTINUOUS
10
167.776
20
-86.6555
11
167.724
21
-86.7346
0
LINE
8
BLACK
6
CONTINUOUS
10
167.724
20
-86.7346
11
167.645
21
-86.7874
0
LINE
8
BLACK
6
CONTINUOUS
10
167.645
20
-86.7874
11
167.551
21
-86.806
0
LINE
8
BLACK
6
CONTINUOUS
10
167.551
20
-86.806
11
167.064
21
-86.806
0
LINE
8
BLACK
6
CONTINUOUS
10
167.064
20
-86.806
11
166.97
21
-86.7874
0
LINE
8
BLACK
6
CONTINUOUS
10
166.97
20
-86.7874
11
166.891
21
-86.7346
0
LINE
8
BLACK
6
CONTINUOUS
10
166.891
20
-86.7346
11
166.839
21
-86.6555
0
LINE
8
BLACK
6
CONTINUOUS
10
166.839
20
-86.6555
11
166.82
21
-86.5622
0
LINE
8
BLACK
6
CONTINUOUS
10
166.82
20
-86.5622
11
166.82
21
-85.6497
0
LINE
8
BLACK
6
CONTINUOUS
10
166.82
20
-85.6497
11
166.839
21
-85.5565
0
LINE
8
BLACK
6
CONTINUOUS
10
166.839
20
-85.5565
11
166.891
21
-85.4774
0
LINE
8
BLACK
6
CONTINUOUS
10
166.891
20
-85.4774
11
166.97
21
-85.4246
0
LINE
8
BLACK
6
CONTINUOUS
10
166.97
20
-85.4246
11
167.064
21
-85.406
0
LINE
8
BLACK
6
CONTINUOUS
10
167.064
20
-85.406
11
167.551
21
-85.406
0
LINE
8
BLACK
6
CONTINUOUS
10
167.551
20
-85.406
11
167.645
21
-85.4246
0
LINE
8
BLACK
6
CONTINUOUS
10
165.77
20
-85.4246
11
165.849
21
-85.4774
0
LINE
8
BLACK
6
CONTINUOUS
10
165.849
20
-85.4774
11
165.901
21
-85.5565
0
LINE
8
BLACK
6
CONTINUOUS
10
165.901
20
-85.5565
11
165.92
21
-85.6497
0
LINE
8
BLACK
6
CONTINUOUS
10
165.92
20
-85.6497
11
165.92
21
-86.5622
0
LINE
8
BLACK
6
CONTINUOUS
10
165.92
20
-86.5622
11
165.901
21
-86.6555
0
LINE
8
BLACK
6
CONTINUOUS
10
165.901
20
-86.6555
11
165.849
21
-86.7346
0
LINE
8
BLACK
6
CONTINUOUS
10
165.849
20
-86.7346
11
165.77
21
-86.7874
0
LINE
8
BLACK
6
CONTINUOUS
10
165.77
20
-86.7874
11
165.676
21
-86.806
0
LINE
8
BLACK
6
CONTINUOUS
10
165.676
20
-86.806
11
165.189
21
-86.806
0
LINE
8
BLACK
6
CONTINUOUS
10
165.189
20
-86.806
11
165.095
21
-86.7874
0
LINE
8
BLACK
6
CONTINUOUS
10
165.095
20
-86.7874
11
165.016
21
-86.7346
0
LINE
8
BLACK
6
CONTINUOUS
10
165.016
20
-86.7346
11
164.964
21
-86.6555
0
LINE
8
BLACK
6
CONTINUOUS
10
164.964
20
-86.6555
11
164.945
21
-86.5622
0
LINE
8
BLACK
6
CONTINUOUS
10
164.945
20
-86.5622
11
164.945
21
-85.6497
0
LINE
8
BLACK
6
CONTINUOUS
10
164.945
20
-85.6497
11
164.964
21
-85.5565
0
LINE
8
BLACK
6
CONTINUOUS
10
164.964
20
-85.5565
11
165.016
21
-85.4774
0
LINE
8
BLACK
6
CONTINUOUS
10
165.016
20
-85.4774
11
165.095
21
-85.4246
0
LINE
8
BLACK
6
CONTINUOUS
10
165.095
20
-85.4246
11
165.189
21
-85.406
0
LINE
8
BLACK
6
CONTINUOUS
10
165.189
20
-85.406
11
165.676
21
-85.406
0
LINE
8
BLACK
6
CONTINUOUS
10
165.676
20
-85.406
11
165.77
21
-85.4246
0
LINE
8
BLACK
6
CONTINUOUS
10
159.482
20
-86.527
11
157.882
21
-86.527
0
LINE
8
BLACK
6
CONTINUOUS
10
157.882
20
-86.527
11
157.882
21
-85.977
0
LINE
8
BLACK
6
CONTINUOUS
10
157.882
20
-85.977
11
159.482
21
-85.977
0
LINE
8
BLACK
6
CONTINUOUS
10
159.482
20
-85.977
11
159.482
21
-86.527
0
LINE
8
BLACK
6
CONTINUOUS
10
150.982
20
-86.527
11
149.382
21
-86.527
0
LINE
8
BLACK
6
CONTINUOUS
10
149.382
20
-86.527
11
149.382
21
-85.977
0
LINE
8
BLACK
6
CONTINUOUS
10
149.382
20
-85.977
11
150.982
21
-85.977
0
LINE
8
BLACK
6
CONTINUOUS
10
150.982
20
-85.977
11
150.982
21
-86.527
0
LINE
8
BLACK
6
CONTINUOUS
10
150.982
20
-85.727
11
149.382
21
-85.727
0
LINE
8
BLACK
6
CONTINUOUS
10
149.382
20
-85.727
11
149.382
21
-85.177
0
LINE
8
BLACK
6
CONTINUOUS
10
149.382
20
-85.177
11
150.982
21
-85.177
0
LINE
8
BLACK
6
CONTINUOUS
10
150.982
20
-85.177
11
150.982
21
-85.727
0
LINE
8
BLACK
6
CONTINUOUS
10
159.482
20
-85.727
11
157.882
21
-85.727
0
LINE
8
BLACK
6
CONTINUOUS
10
157.882
20
-85.727
11
157.882
21
-85.177
0
LINE
8
BLACK
6
CONTINUOUS
10
157.882
20
-85.177
11
159.482
21
-85.177
0
LINE
8
BLACK
6
CONTINUOUS
10
159.482
20
-85.177
11
159.482
21
-85.727
0
LINE
8
BLACK
6
CONTINUOUS
10
150.982
20
-84.927
11
149.382
21
-84.927
0
LINE
8
BLACK
6
CONTINUOUS
10
149.382
20
-84.927
11
149.382
21
-84.377
0
LINE
8
BLACK
6
CONTINUOUS
10
149.382
20
-84.377
11
150.982
21
-84.377
0
LINE
8
BLACK
6
CONTINUOUS
10
150.982
20
-84.377
11
150.982
21
-84.927
0
LINE
8
BLACK
6
CONTINUOUS
10
159.482
20
-84.927
11
157.882
21
-84.927
0
LINE
8
BLACK
6
CONTINUOUS
10
157.882
20
-84.927
11
157.882
21
-84.377
0
LINE
8
BLACK
6
CONTINUOUS
10
157.882
20
-84.377
11
159.482
21
-84.377
0
LINE
8
BLACK
6
CONTINUOUS
10
159.482
20
-84.377
11
159.482
21
-84.927
0
LINE
8
BLACK
6
CONTINUOUS
10
165.77
20
-83.1386
11
165.849
21
-83.1914
0
LINE
8
BLACK
6
CONTINUOUS
10
165.849
20
-83.1914
11
165.901
21
-83.2705
0
LINE
8
BLACK
6
CONTINUOUS
10
165.901
20
-83.2705
11
165.92
21
-83.3637
0
LINE
8
BLACK
6
CONTINUOUS
10
165.92
20
-83.3637
11
165.92
21
-84.2762
0
LINE
8
BLACK
6
CONTINUOUS
10
165.92
20
-84.2762
11
165.901
21
-84.3695
0
LINE
8
BLACK
6
CONTINUOUS
10
165.901
20
-84.3695
11
165.849
21
-84.4486
0
LINE
8
BLACK
6
CONTINUOUS
10
165.849
20
-84.4486
11
165.77
21
-84.5014
0
LINE
8
BLACK
6
CONTINUOUS
10
165.77
20
-84.5014
11
165.676
21
-84.52
0
LINE
8
BLACK
6
CONTINUOUS
10
165.676
20
-84.52
11
165.189
21
-84.52
0
LINE
8
BLACK
6
CONTINUOUS
10
165.189
20
-84.52
11
165.095
21
-84.5014
0
LINE
8
BLACK
6
CONTINUOUS
10
165.095
20
-84.5014
11
165.016
21
-84.4486
0
LINE
8
BLACK
6
CONTINUOUS
10
165.016
20
-84.4486
11
164.964
21
-84.3695
0
LINE
8
BLACK
6
CONTINUOUS
10
164.964
20
-84.3695
11
164.945
21
-84.2762
0
LINE
8
BLACK
6
CONTINUOUS
10
164.945
20
-84.2762
11
164.945
21
-83.3637
0
LINE
8
BLACK
6
CONTINUOUS
10
164.945
20
-83.3637
11
164.964
21
-83.2705
0
LINE
8
BLACK
6
CONTINUOUS
10
164.964
20
-83.2705
11
165.016
21
-83.1914
0
LINE
8
BLACK
6
CONTINUOUS
10
165.016
20
-83.1914
11
165.095
21
-83.1386
0
LINE
8
BLACK
6
CONTINUOUS
10
165.095
20
-83.1386
11
165.189
21
-83.12
0
LINE
8
BLACK
6
CONTINUOUS
10
165.189
20
-83.12
11
165.676
21
-83.12
0
LINE
8
BLACK
6
CONTINUOUS
10
165.676
20
-83.12
11
165.77
21
-83.1386
0
LINE
8
BLACK
6
CONTINUOUS
10
167.645
20
-83.1386
11
167.724
21
-83.1914
0
LINE
8
BLACK
6
CONTINUOUS
10
167.724
20
-83.1914
11
167.776
21
-83.2705
0
LINE
8
BLACK
6
CONTINUOUS
10
167.776
20
-83.2705
11
167.795
21
-83.3637
0
LINE
8
BLACK
6
CONTINUOUS
10
167.795
20
-83.3637
11
167.795
21
-84.2762
0
LINE
8
BLACK
6
CONTINUOUS
10
167.795
20
-84.2762
11
167.776
21
-84.3695
0
LINE
8
BLACK
6
CONTINUOUS
10
167.776
20
-84.3695
11
167.724
21
-84.4486
0
LINE
8
BLACK
6
CONTINUOUS
10
167.724
20
-84.4486
11
167.645
21
-84.5014
0
LINE
8
BLACK
6
CONTINUOUS
10
167.645
20
-84.5014
11
167.551
21
-84.52
0
LINE
8
BLACK
6
CONTINUOUS
10
167.551
20
-84.52
11
167.064
21
-84.52
0
LINE
8
BLACK
6
CONTINUOUS
10
167.064
20
-84.52
11
166.97
21
-84.5014
0
LINE
8
BLACK
6
CONTINUOUS
10
166.97
20
-84.5014
11
166.891
21
-84.4486
0
LINE
8
BLACK
6
CONTINUOUS
10
166.891
20
-84.4486
11
166.839
21
-84.3695
0
LINE
8
BLACK
6
CONTINUOUS
10
166.839
20
-84.3695
11
166.82
21
-84.2762
0
LINE
8
BLACK
6
CONTINUOUS
10
166.82
20
-84.2762
11
166.82
21
-83.3637
0
LINE
8
BLACK
6
CONTINUOUS
10
166.82
20
-83.3637
11
166.839
21
-83.2705
0
LINE
8
BLACK
6
CONTINUOUS
10
166.839
20
-83.2705
11
166.891
21
-83.1914
0
LINE
8
BLACK
6
CONTINUOUS
10
166.891
20
-83.1914
11
166.97
21
-83.1386
0
LINE
8
BLACK
6
CONTINUOUS
10
166.97
20
-83.1386
11
167.064
21
-83.12
0
LINE
8
BLACK
6
CONTINUOUS
10
167.064
20
-83.12
11
167.551
21
-83.12
0
LINE
8
BLACK
6
CONTINUOUS
10
167.551
20
-83.12
11
167.645
21
-83.1386
0
LINE
8
BLACK
6
CONTINUOUS
10
145.304
20
-83.2726
11
145.383
21
-83.3254
0
LINE
8
BLACK
6
CONTINUOUS
10
145.383
20
-83.3254
11
145.436
21
-83.4045
0
LINE
8
BLACK
6
CONTINUOUS
10
145.436
20
-83.4045
11
145.455
21
-83.4977
0
LINE
8
BLACK
6
CONTINUOUS
10
145.455
20
-83.4977
11
145.455
21
-83.9852
0
LINE
8
BLACK
6
CONTINUOUS
10
145.455
20
-83.9852
11
145.436
21
-84.0785
0
LINE
8
BLACK
6
CONTINUOUS
10
145.436
20
-84.0785
11
145.383
21
-84.1576
0
LINE
8
BLACK
6
CONTINUOUS
10
145.383
20
-84.1576
11
145.304
21
-84.2104
0
LINE
8
BLACK
6
CONTINUOUS
10
145.304
20
-84.2104
11
145.211
21
-84.229
0
LINE
8
BLACK
6
CONTINUOUS
10
145.211
20
-84.229
11
144.298
21
-84.229
0
LINE
8
BLACK
6
CONTINUOUS
10
144.298
20
-84.229
11
144.205
21
-84.2104
0
LINE
8
BLACK
6
CONTINUOUS
10
144.205
20
-84.2104
11
144.126
21
-84.1576
0
LINE
8
BLACK
6
CONTINUOUS
10
144.126
20
-84.1576
11
144.073
21
-84.0785
0
LINE
8
BLACK
6
CONTINUOUS
10
144.073
20
-84.0785
11
144.055
21
-83.9852
0
LINE
8
BLACK
6
CONTINUOUS
10
144.055
20
-83.9852
11
144.055
21
-83.4977
0
LINE
8
BLACK
6
CONTINUOUS
10
144.055
20
-83.4977
11
144.073
21
-83.4045
0
LINE
8
BLACK
6
CONTINUOUS
10
144.073
20
-83.4045
11
144.126
21
-83.3254
0
LINE
8
BLACK
6
CONTINUOUS
10
144.126
20
-83.3254
11
144.205
21
-83.2726
0
LINE
8
BLACK
6
CONTINUOUS
10
144.205
20
-83.2726
11
144.298
21
-83.254
0
LINE
8
BLACK
6
CONTINUOUS
10
144.298
20
-83.254
11
145.211
21
-83.254
0
LINE
8
BLACK
6
CONTINUOUS
10
145.211
20
-83.254
11
145.304
21
-83.2726
0
LINE
8
BLACK
6
CONTINUOUS
10
159.482
20
-84.127
11
157.882
21
-84.127
0
LINE
8
BLACK
6
CONTINUOUS
10
157.882
20
-84.127
11
157.882
21
-83.577
0
LINE
8
BLACK
6
CONTINUOUS
10
157.882
20
-83.577
11
159.482
21
-83.577
0
LINE
8
BLACK
6
CONTINUOUS
10
159.482
20
-83.577
11
159.482
21
-84.127
0
LINE
8
BLACK
6
CONTINUOUS
10
150.982
20
-84.127
11
149.382
21
-84.127
0
LINE
8
BLACK
6
CONTINUOUS
10
149.382
20
-84.127
11
149.382
21
-83.577
0
LINE
8
BLACK
6
CONTINUOUS
10
149.382
20
-83.577
11
150.982
21
-83.577
0
LINE
8
BLACK
6
CONTINUOUS
10
150.982
20
-83.577
11
150.982
21
-84.127
0
LINE
8
BLACK
6
CONTINUOUS
10
170.774
20
-82.6881
11
170.845
21
-82.7355
0
LINE
8
BLACK
6
CONTINUOUS
10
170.845
20
-82.7355
11
170.892
21
-82.8064
0
LINE
8
BLACK
6
CONTINUOUS
10
170.892
20
-82.8064
11
170.909
21
-82.8901
0
LINE
8
BLACK
6
CONTINUOUS
10
170.909
20
-82.8901
11
170.909
21
-83.3276
0
LINE
8
BLACK
6
CONTINUOUS
10
170.909
20
-83.3276
11
170.892
21
-83.4114
0
LINE
8
BLACK
6
CONTINUOUS
10
170.892
20
-83.4114
11
170.845
21
-83.4823
0
LINE
8
BLACK
6
CONTINUOUS
10
170.845
20
-83.4823
11
170.774
21
-83.5297
0
LINE
8
BLACK
6
CONTINUOUS
10
170.774
20
-83.5297
11
170.69
21
-83.5464
0
LINE
8
BLACK
6
CONTINUOUS
10
170.69
20
-83.5464
11
170.178
21
-83.5464
0
LINE
8
BLACK
6
CONTINUOUS
10
170.178
20
-83.5464
11
170.094
21
-83.5297
0
LINE
8
BLACK
6
CONTINUOUS
10
170.094
20
-83.5297
11
170.023
21
-83.4823
0
LINE
8
BLACK
6
CONTINUOUS
10
170.023
20
-83.4823
11
169.976
21
-83.4114
0
LINE
8
BLACK
6
CONTINUOUS
10
169.976
20
-83.4114
11
169.959
21
-83.3276
0
LINE
8
BLACK
6
CONTINUOUS
10
169.959
20
-83.3276
11
169.959
21
-82.8901
0
LINE
8
BLACK
6
CONTINUOUS
10
169.959
20
-82.8901
11
169.976
21
-82.8064
0
LINE
8
BLACK
6
CONTINUOUS
10
169.976
20
-82.8064
11
170.023
21
-82.7355
0
LINE
8
BLACK
6
CONTINUOUS
10
170.023
20
-82.7355
11
170.094
21
-82.6881
0
LINE
8
BLACK
6
CONTINUOUS
10
170.094
20
-82.6881
11
170.178
21
-82.6714
0
LINE
8
BLACK
6
CONTINUOUS
10
170.178
20
-82.6714
11
170.69
21
-82.6714
0
LINE
8
BLACK
6
CONTINUOUS
10
170.69
20
-82.6714
11
170.774
21
-82.6881
0
LINE
8
BLACK
6
CONTINUOUS
10
162.932
20
-82.536
11
163.011
21
-82.5888
0
LINE
8
BLACK
6
CONTINUOUS
10
163.011
20
-82.5888
11
163.064
21
-82.6679
0
LINE
8
BLACK
6
CONTINUOUS
10
163.064
20
-82.6679
11
163.082
21
-82.7612
0
LINE
8
BLACK
6
CONTINUOUS
10
163.082
20
-82.7612
11
163.082
21
-83.2486
0
LINE
8
BLACK
6
CONTINUOUS
10
163.082
20
-83.2486
11
163.064
21
-83.3419
0
LINE
8
BLACK
6
CONTINUOUS
10
163.064
20
-83.3419
11
163.011
21
-83.421
0
LINE
8
BLACK
6
CONTINUOUS
10
163.011
20
-83.421
11
162.932
21
-83.4738
0
LINE
8
BLACK
6
CONTINUOUS
10
162.932
20
-83.4738
11
162.838
21
-83.4924
0
LINE
8
BLACK
6
CONTINUOUS
10
162.838
20
-83.4924
11
161.926
21
-83.4924
0
LINE
8
BLACK
6
CONTINUOUS
10
161.926
20
-83.4924
11
161.833
21
-83.4738
0
LINE
8
BLACK
6
CONTINUOUS
10
161.833
20
-83.4738
11
161.754
21
-83.421
0
LINE
8
BLACK
6
CONTINUOUS
10
161.754
20
-83.421
11
161.701
21
-83.3419
0
LINE
8
BLACK
6
CONTINUOUS
10
161.701
20
-83.3419
11
161.682
21
-83.2486
0
LINE
8
BLACK
6
CONTINUOUS
10
161.682
20
-83.2486
11
161.682
21
-82.7612
0
LINE
8
BLACK
6
CONTINUOUS
10
161.682
20
-82.7612
11
161.701
21
-82.6679
0
LINE
8
BLACK
6
CONTINUOUS
10
161.701
20
-82.6679
11
161.754
21
-82.5888
0
LINE
8
BLACK
6
CONTINUOUS
10
161.754
20
-82.5888
11
161.833
21
-82.536
0
LINE
8
BLACK
6
CONTINUOUS
10
161.833
20
-82.536
11
161.926
21
-82.5174
0
LINE
8
BLACK
6
CONTINUOUS
10
161.926
20
-82.5174
11
162.838
21
-82.5174
0
LINE
8
BLACK
6
CONTINUOUS
10
162.838
20
-82.5174
11
162.932
21
-82.536
0
LINE
8
BLACK
6
CONTINUOUS
10
150.982
20
-83.327
11
149.382
21
-83.327
0
LINE
8
BLACK
6
CONTINUOUS
10
149.382
20
-83.327
11
149.382
21
-82.777
0
LINE
8
BLACK
6
CONTINUOUS
10
149.382
20
-82.777
11
150.982
21
-82.777
0
LINE
8
BLACK
6
CONTINUOUS
10
150.982
20
-82.777
11
150.982
21
-83.327
0
LINE
8
BLACK
6
CONTINUOUS
10
159.482
20
-83.327
11
157.882
21
-83.327
0
LINE
8
BLACK
6
CONTINUOUS
10
157.882
20
-83.327
11
157.882
21
-82.777
0
LINE
8
BLACK
6
CONTINUOUS
10
157.882
20
-82.777
11
159.482
21
-82.777
0
LINE
8
BLACK
6
CONTINUOUS
10
159.482
20
-82.777
11
159.482
21
-83.327
0
LINE
8
BLACK
6
CONTINUOUS
10
157.507
20
-82.402
11
156.957
21
-82.402
0
LINE
8
BLACK
6
CONTINUOUS
10
156.957
20
-82.402
11
156.957
21
-80.802
0
LINE
8
BLACK
6
CONTINUOUS
10
156.957
20
-80.802
11
157.507
21
-80.802
0
LINE
8
BLACK
6
CONTINUOUS
10
157.507
20
-80.802
11
157.507
21
-82.402
0
LINE
8
BLACK
6
CONTINUOUS
10
156.707
20
-82.402
11
156.157
21
-82.402
0
LINE
8
BLACK
6
CONTINUOUS
10
156.157
20
-82.402
11
156.157
21
-80.802
0
LINE
8
BLACK
6
CONTINUOUS
10
156.157
20
-80.802
11
156.707
21
-80.802
0
LINE
8
BLACK
6
CONTINUOUS
10
156.707
20
-80.802
11
156.707
21
-82.402
0
LINE
8
BLACK
6
CONTINUOUS
10
155.907
20
-82.402
11
155.357
21
-82.402
0
LINE
8
BLACK
6
CONTINUOUS
10
155.357
20
-82.402
11
155.357
21
-80.802
0
LINE
8
BLACK
6
CONTINUOUS
10
155.357
20
-80.802
11
155.907
21
-80.802
0
LINE
8
BLACK
6
CONTINUOUS
10
155.907
20
-80.802
11
155.907
21
-82.402
0
LINE
8
BLACK
6
CONTINUOUS
10
155.107
20
-82.402
11
154.557
21
-82.402
0
LINE
8
BLACK
6
CONTINUOUS
10
154.557
20
-82.402
11
154.557
21
-80.802
0
LINE
8
BLACK
6
CONTINUOUS
10
154.557
20
-80.802
11
155.107
21
-80.802
0
LINE
8
BLACK
6
CONTINUOUS
10
155.107
20
-80.802
11
155.107
21
-82.402
0
LINE
8
BLACK
6
CONTINUOUS
10
154.307
20
-82.402
11
153.757
21
-82.402
0
LINE
8
BLACK
6
CONTINUOUS
10
153.757
20
-82.402
11
153.757
21
-80.802
0
LINE
8
BLACK
6
CONTINUOUS
10
153.757
20
-80.802
11
154.307
21
-80.802
0
LINE
8
BLACK
6
CONTINUOUS
10
154.307
20
-80.802
11
154.307
21
-82.402
0
LINE
8
BLACK
6
CONTINUOUS
10
153.507
20
-82.402
11
152.957
21
-82.402
0
LINE
8
BLACK
6
CONTINUOUS
10
152.957
20
-82.402
11
152.957
21
-80.802
0
LINE
8
BLACK
6
CONTINUOUS
10
152.957
20
-80.802
11
153.507
21
-80.802
0
LINE
8
BLACK
6
CONTINUOUS
10
153.507
20
-80.802
11
153.507
21
-82.402
0
LINE
8
BLACK
6
CONTINUOUS
10
152.707
20
-82.402
11
152.157
21
-82.402
0
LINE
8
BLACK
6
CONTINUOUS
10
152.157
20
-82.402
11
152.157
21
-80.802
0
LINE
8
BLACK
6
CONTINUOUS
10
152.157
20
-80.802
11
152.707
21
-80.802
0
LINE
8
BLACK
6
CONTINUOUS
10
152.707
20
-80.802
11
152.707
21
-82.402
0
LINE
8
BLACK
6
CONTINUOUS
10
151.907
20
-82.402
11
151.357
21
-82.402
0
LINE
8
BLACK
6
CONTINUOUS
10
151.357
20
-82.402
11
151.357
21
-80.802
0
LINE
8
BLACK
6
CONTINUOUS
10
151.357
20
-80.802
11
151.907
21
-80.802
0
LINE
8
BLACK
6
CONTINUOUS
10
151.907
20
-80.802
11
151.907
21
-82.402
0
LINE
8
BLACK
6
CONTINUOUS
10
145.304
20
-81.3976
11
145.383
21
-81.4504
0
LINE
8
BLACK
6
CONTINUOUS
10
145.383
20
-81.4504
11
145.436
21
-81.5295
0
LINE
8
BLACK
6
CONTINUOUS
10
145.436
20
-81.5295
11
145.455
21
-81.6227
0
LINE
8
BLACK
6
CONTINUOUS
10
145.455
20
-81.6227
11
145.455
21
-82.1102
0
LINE
8
BLACK
6
CONTINUOUS
10
145.455
20
-82.1102
11
145.436
21
-82.2035
0
LINE
8
BLACK
6
CONTINUOUS
10
145.436
20
-82.2035
11
145.383
21
-82.2826
0
LINE
8
BLACK
6
CONTINUOUS
10
145.383
20
-82.2826
11
145.304
21
-82.3354
0
LINE
8
BLACK
6
CONTINUOUS
10
145.304
20
-82.3354
11
145.211
21
-82.354
0
LINE
8
BLACK
6
CONTINUOUS
10
145.211
20
-82.354
11
144.298
21
-82.354
0
LINE
8
BLACK
6
CONTINUOUS
10
144.298
20
-82.354
11
144.205
21
-82.3354
0
LINE
8
BLACK
6
CONTINUOUS
10
144.205
20
-82.3354
11
144.126
21
-82.2826
0
LINE
8
BLACK
6
CONTINUOUS
10
144.126
20
-82.2826
11
144.073
21
-82.2035
0
LINE
8
BLACK
6
CONTINUOUS
10
144.073
20
-82.2035
11
144.055
21
-82.1102
0
LINE
8
BLACK
6
CONTINUOUS
10
144.055
20
-82.1102
11
144.055
21
-81.6227
0
LINE
8
BLACK
6
CONTINUOUS
10
144.055
20
-81.6227
11
144.073
21
-81.5295
0
LINE
8
BLACK
6
CONTINUOUS
10
144.073
20
-81.5295
11
144.126
21
-81.4504
0
LINE
8
BLACK
6
CONTINUOUS
10
144.126
20
-81.4504
11
144.205
21
-81.3976
0
LINE
8
BLACK
6
CONTINUOUS
10
144.205
20
-81.3976
11
144.298
21
-81.379
0
LINE
8
BLACK
6
CONTINUOUS
10
144.298
20
-81.379
11
145.211
21
-81.379
0
LINE
8
BLACK
6
CONTINUOUS
10
145.211
20
-81.379
11
145.304
21
-81.3976
0
LINE
8
BLACK
6
CONTINUOUS
10
170.774
20
-81.1131
11
170.845
21
-81.1605
0
LINE
8
BLACK
6
CONTINUOUS
10
170.845
20
-81.1605
11
170.892
21
-81.2314
0
LINE
8
BLACK
6
CONTINUOUS
10
170.892
20
-81.2314
11
170.909
21
-81.3152
0
LINE
8
BLACK
6
CONTINUOUS
10
170.909
20
-81.3152
11
170.909
21
-81.7527
0
LINE
8
BLACK
6
CONTINUOUS
10
170.909
20
-81.7527
11
170.892
21
-81.8364
0
LINE
8
BLACK
6
CONTINUOUS
10
170.892
20
-81.8364
11
170.845
21
-81.9073
0
LINE
8
BLACK
6
CONTINUOUS
10
170.845
20
-81.9073
11
170.774
21
-81.9547
0
LINE
8
BLACK
6
CONTINUOUS
10
170.774
20
-81.9547
11
170.69
21
-81.9714
0
LINE
8
BLACK
6
CONTINUOUS
10
170.69
20
-81.9714
11
170.178
21
-81.9714
0
LINE
8
BLACK
6
CONTINUOUS
10
170.178
20
-81.9714
11
170.094
21
-81.9547
0
LINE
8
BLACK
6
CONTINUOUS
10
170.094
20
-81.9547
11
170.023
21
-81.9073
0
LINE
8
BLACK
6
CONTINUOUS
10
170.023
20
-81.9073
11
169.976
21
-81.8364
0
LINE
8
BLACK
6
CONTINUOUS
10
169.976
20
-81.8364
11
169.959
21
-81.7527
0
LINE
8
BLACK
6
CONTINUOUS
10
169.959
20
-81.7527
11
169.959
21
-81.3152
0
LINE
8
BLACK
6
CONTINUOUS
10
169.959
20
-81.3152
11
169.976
21
-81.2314
0
LINE
8
BLACK
6
CONTINUOUS
10
169.976
20
-81.2314
11
170.023
21
-81.1605
0
LINE
8
BLACK
6
CONTINUOUS
10
170.023
20
-81.1605
11
170.094
21
-81.1131
0
LINE
8
BLACK
6
CONTINUOUS
10
170.094
20
-81.1131
11
170.178
21
-81.0964
0
LINE
8
BLACK
6
CONTINUOUS
10
170.178
20
-81.0964
11
170.69
21
-81.0964
0
LINE
8
BLACK
6
CONTINUOUS
10
170.69
20
-81.0964
11
170.774
21
-81.1131
0
LINE
8
BLACK
6
CONTINUOUS
10
162.932
20
-80.661
11
163.011
21
-80.7138
0
LINE
8
BLACK
6
CONTINUOUS
10
163.011
20
-80.7138
11
163.064
21
-80.7929
0
LINE
8
BLACK
6
CONTINUOUS
10
163.064
20
-80.7929
11
163.082
21
-80.8862
0
LINE
8
BLACK
6
CONTINUOUS
10
163.082
20
-80.8862
11
163.082
21
-81.3736
0
LINE
8
BLACK
6
CONTINUOUS
10
163.082
20
-81.3736
11
163.064
21
-81.4669
0
LINE
8
BLACK
6
CONTINUOUS
10
163.064
20
-81.4669
11
163.011
21
-81.546
0
LINE
8
BLACK
6
CONTINUOUS
10
163.011
20
-81.546
11
162.932
21
-81.5988
0
LINE
8
BLACK
6
CONTINUOUS
10
162.932
20
-81.5988
11
162.838
21
-81.6174
0
LINE
8
BLACK
6
CONTINUOUS
10
162.838
20
-81.6174
11
161.926
21
-81.6174
0
LINE
8
BLACK
6
CONTINUOUS
10
161.926
20
-81.6174
11
161.833
21
-81.5988
0
LINE
8
BLACK
6
CONTINUOUS
10
161.833
20
-81.5988
11
161.754
21
-81.546
0
LINE
8
BLACK
6
CONTINUOUS
10
161.754
20
-81.546
11
161.701
21
-81.4669
0
LINE
8
BLACK
6
CONTINUOUS
10
161.701
20
-81.4669
11
161.682
21
-81.3736
0
LINE
8
BLACK
6
CONTINUOUS
10
161.682
20
-81.3736
11
161.682
21
-80.8862
0
LINE
8
BLACK
6
CONTINUOUS
10
161.682
20
-80.8862
11
161.701
21
-80.7929
0
LINE
8
BLACK
6
CONTINUOUS
10
161.701
20
-80.7929
11
161.754
21
-80.7138
0
LINE
8
BLACK
6
CONTINUOUS
10
161.754
20
-80.7138
11
161.833
21
-80.661
0
LINE
8
BLACK
6
CONTINUOUS
10
161.833
20
-80.661
11
161.926
21
-80.6424
0
LINE
8
BLACK
6
CONTINUOUS
10
161.926
20
-80.6424
11
162.838
21
-80.6424
0
LINE
8
BLACK
6
CONTINUOUS
10
162.838
20
-80.6424
11
162.932
21
-80.661
0
LINE
8
BLACK
6
CONTINUOUS
10
145.304
20
-79.4372
11
145.383
21
-79.49
0
LINE
8
BLACK
6
CONTINUOUS
10
145.383
20
-79.49
11
145.436
21
-79.5691
0
LINE
8
BLACK
6
CONTINUOUS
10
145.436
20
-79.5691
11
145.455
21
-79.6623
0
LINE
8
BLACK
6
CONTINUOUS
10
145.455
20
-79.6623
11
145.455
21
-80.1499
0
LINE
8
BLACK
6
CONTINUOUS
10
145.455
20
-80.1499
11
145.436
21
-80.2431
0
LINE
8
BLACK
6
CONTINUOUS
10
145.436
20
-80.2431
11
145.383
21
-80.3222
0
LINE
8
BLACK
6
CONTINUOUS
10
145.383
20
-80.3222
11
145.304
21
-80.375
0
LINE
8
BLACK
6
CONTINUOUS
10
145.304
20
-80.375
11
145.211
21
-80.3936
0
LINE
8
BLACK
6
CONTINUOUS
10
145.211
20
-80.3936
11
144.298
21
-80.3936
0
LINE
8
BLACK
6
CONTINUOUS
10
144.298
20
-80.3936
11
144.205
21
-80.375
0
LINE
8
BLACK
6
CONTINUOUS
10
144.205
20
-80.375
11
144.126
21
-80.3222
0
LINE
8
BLACK
6
CONTINUOUS
10
144.126
20
-80.3222
11
144.073
21
-80.2431
0
LINE
8
BLACK
6
CONTINUOUS
10
144.073
20
-80.2431
11
144.055
21
-80.1499
0
LINE
8
BLACK
6
CONTINUOUS
10
144.055
20
-80.1499
11
144.055
21
-79.6623
0
LINE
8
BLACK
6
CONTINUOUS
10
144.055
20
-79.6623
11
144.073
21
-79.5691
0
LINE
8
BLACK
6
CONTINUOUS
10
144.073
20
-79.5691
11
144.126
21
-79.49
0
LINE
8
BLACK
6
CONTINUOUS
10
144.126
20
-79.49
11
144.205
21
-79.4372
0
LINE
8
BLACK
6
CONTINUOUS
10
144.205
20
-79.4372
11
144.298
21
-79.4186
0
LINE
8
BLACK
6
CONTINUOUS
10
144.298
20
-79.4186
11
145.211
21
-79.4186
0
LINE
8
BLACK
6
CONTINUOUS
10
145.211
20
-79.4186
11
145.304
21
-79.4372
0
LINE
8
BLACK
6
CONTINUOUS
10
155.249
20
-78.1856
11
155.328
21
-78.2384
0
LINE
8
BLACK
6
CONTINUOUS
10
155.328
20
-78.2384
11
155.381
21
-78.3175
0
LINE
8
BLACK
6
CONTINUOUS
10
155.381
20
-78.3175
11
155.4
21
-78.4107
0
LINE
8
BLACK
6
CONTINUOUS
10
155.4
20
-78.4107
11
155.4
21
-79.3233
0
LINE
8
BLACK
6
CONTINUOUS
10
155.4
20
-79.3233
11
155.381
21
-79.4165
0
LINE
8
BLACK
6
CONTINUOUS
10
155.381
20
-79.4165
11
155.328
21
-79.4956
0
LINE
8
BLACK
6
CONTINUOUS
10
155.328
20
-79.4956
11
155.249
21
-79.5484
0
LINE
8
BLACK
6
CONTINUOUS
10
155.249
20
-79.5484
11
155.156
21
-79.567
0
LINE
8
BLACK
6
CONTINUOUS
10
155.156
20
-79.567
11
154.669
21
-79.567
0
LINE
8
BLACK
6
CONTINUOUS
10
154.669
20
-79.567
11
154.575
21
-79.5484
0
LINE
8
BLACK
6
CONTINUOUS
10
154.575
20
-79.5484
11
154.496
21
-79.4956
0
LINE
8
BLACK
6
CONTINUOUS
10
154.496
20
-79.4956
11
154.443
21
-79.4165
0
LINE
8
BLACK
6
CONTINUOUS
10
154.443
20
-79.4165
11
154.425
21
-79.3233
0
LINE
8
BLACK
6
CONTINUOUS
10
154.425
20
-79.3233
11
154.425
21
-78.4107
0
LINE
8
BLACK
6
CONTINUOUS
10
154.425
20
-78.4107
11
154.443
21
-78.3175
0
LINE
8
BLACK
6
CONTINUOUS
10
154.443
20
-78.3175
11
154.496
21
-78.2384
0
LINE
8
BLACK
6
CONTINUOUS
10
154.496
20
-78.2384
11
154.575
21
-78.1856
0
LINE
8
BLACK
6
CONTINUOUS
10
154.575
20
-78.1856
11
154.669
21
-78.167
0
LINE
8
BLACK
6
CONTINUOUS
10
154.669
20
-78.167
11
155.156
21
-78.167
0
LINE
8
BLACK
6
CONTINUOUS
10
155.156
20
-78.167
11
155.249
21
-78.1856
0
LINE
8
BLACK
6
CONTINUOUS
10
153.374
20
-78.1856
11
153.453
21
-78.2384
0
LINE
8
BLACK
6
CONTINUOUS
10
153.453
20
-78.2384
11
153.506
21
-78.3175
0
LINE
8
BLACK
6
CONTINUOUS
10
153.506
20
-78.3175
11
153.525
21
-78.4107
0
LINE
8
BLACK
6
CONTINUOUS
10
153.525
20
-78.4107
11
153.525
21
-79.3233
0
LINE
8
BLACK
6
CONTINUOUS
10
153.525
20
-79.3233
11
153.506
21
-79.4165
0
LINE
8
BLACK
6
CONTINUOUS
10
153.506
20
-79.4165
11
153.453
21
-79.4956
0
LINE
8
BLACK
6
CONTINUOUS
10
153.453
20
-79.4956
11
153.374
21
-79.5484
0
LINE
8
BLACK
6
CONTINUOUS
10
153.374
20
-79.5484
11
153.281
21
-79.567
0
LINE
8
BLACK
6
CONTINUOUS
10
153.281
20
-79.567
11
152.794
21
-79.567
0
LINE
8
BLACK
6
CONTINUOUS
10
152.794
20
-79.567
11
152.7
21
-79.5484
0
LINE
8
BLACK
6
CONTINUOUS
10
152.7
20
-79.5484
11
152.621
21
-79.4956
0
LINE
8
BLACK
6
CONTINUOUS
10
152.621
20
-79.4956
11
152.568
21
-79.4165
0
LINE
8
BLACK
6
CONTINUOUS
10
152.568
20
-79.4165
11
152.55
21
-79.3233
0
LINE
8
BLACK
6
CONTINUOUS
10
152.55
20
-79.3233
11
152.55
21
-78.4107
0
LINE
8
BLACK
6
CONTINUOUS
10
152.55
20
-78.4107
11
152.568
21
-78.3175
0
LINE
8
BLACK
6
CONTINUOUS
10
152.568
20
-78.3175
11
152.621
21
-78.2384
0
LINE
8
BLACK
6
CONTINUOUS
10
152.621
20
-78.2384
11
152.7
21
-78.1856
0
LINE
8
BLACK
6
CONTINUOUS
10
152.7
20
-78.1856
11
152.794
21
-78.167
0
LINE
8
BLACK
6
CONTINUOUS
10
152.794
20
-78.167
11
153.281
21
-78.167
0
LINE
8
BLACK
6
CONTINUOUS
10
153.281
20
-78.167
11
153.374
21
-78.1856
0
LINE
8
BLACK
6
CONTINUOUS
10
166.165
20
-75.535
11
166.246
21
-75.5892
0
LINE
8
BLACK
6
CONTINUOUS
10
166.246
20
-75.5892
11
166.3
21
-75.6703
0
LINE
8
BLACK
6
CONTINUOUS
10
166.3
20
-75.6703
11
166.319
21
-75.766
0
LINE
8
BLACK
6
CONTINUOUS
10
166.319
20
-75.766
11
166.319
21
-78.666
0
LINE
8
BLACK
6
CONTINUOUS
10
166.319
20
-78.666
11
166.3
21
-78.7617
0
LINE
8
BLACK
6
CONTINUOUS
10
166.3
20
-78.7617
11
166.246
21
-78.8428
0
LINE
8
BLACK
6
CONTINUOUS
10
166.246
20
-78.8428
11
166.165
21
-78.897
0
LINE
8
BLACK
6
CONTINUOUS
10
166.165
20
-78.897
11
166.069
21
-78.916
0
LINE
8
BLACK
6
CONTINUOUS
10
166.069
20
-78.916
11
165.444
21
-78.916
0
LINE
8
BLACK
6
CONTINUOUS
10
165.444
20
-78.916
11
165.348
21
-78.897
0
LINE
8
BLACK
6
CONTINUOUS
10
165.348
20
-78.897
11
165.267
21
-78.8428
0
LINE
8
BLACK
6
CONTINUOUS
10
165.267
20
-78.8428
11
165.213
21
-78.7617
0
LINE
8
BLACK
6
CONTINUOUS
10
165.213
20
-78.7617
11
165.194
21
-78.666
0
LINE
8
BLACK
6
CONTINUOUS
10
165.194
20
-78.666
11
165.194
21
-75.766
0
LINE
8
BLACK
6
CONTINUOUS
10
165.194
20
-75.766
11
165.213
21
-75.6703
0
LINE
8
BLACK
6
CONTINUOUS
10
165.213
20
-75.6703
11
165.267
21
-75.5892
0
LINE
8
BLACK
6
CONTINUOUS
10
165.267
20
-75.5892
11
165.348
21
-75.535
0
LINE
8
BLACK
6
CONTINUOUS
10
165.348
20
-75.535
11
165.444
21
-75.516
0
LINE
8
BLACK
6
CONTINUOUS
10
165.444
20
-75.516
11
166.069
21
-75.516
0
LINE
8
BLACK
6
CONTINUOUS
10
166.069
20
-75.516
11
166.165
21
-75.535
0
LINE
8
BLACK
6
CONTINUOUS
10
170.44
20
-75.535
11
170.521
21
-75.5892
0
LINE
8
BLACK
6
CONTINUOUS
10
170.521
20
-75.5892
11
170.575
21
-75.6703
0
LINE
8
BLACK
6
CONTINUOUS
10
170.575
20
-75.6703
11
170.594
21
-75.766
0
LINE
8
BLACK
6
CONTINUOUS
10
170.594
20
-75.766
11
170.594
21
-78.666
0
LINE
8
BLACK
6
CONTINUOUS
10
170.594
20
-78.666
11
170.575
21
-78.7617
0
LINE
8
BLACK
6
CONTINUOUS
10
170.575
20
-78.7617
11
170.521
21
-78.8428
0
LINE
8
BLACK
6
CONTINUOUS
10
170.521
20
-78.8428
11
170.44
21
-78.897
0
LINE
8
BLACK
6
CONTINUOUS
10
170.44
20
-78.897
11
170.344
21
-78.916
0
LINE
8
BLACK
6
CONTINUOUS
10
170.344
20
-78.916
11
169.719
21
-78.916
0
LINE
8
BLACK
6
CONTINUOUS
10
169.719
20
-78.916
11
169.623
21
-78.897
0
LINE
8
BLACK
6
CONTINUOUS
10
169.623
20
-78.897
11
169.542
21
-78.8428
0
LINE
8
BLACK
6
CONTINUOUS
10
169.542
20
-78.8428
11
169.488
21
-78.7617
0
LINE
8
BLACK
6
CONTINUOUS
10
169.488
20
-78.7617
11
169.469
21
-78.666
0
LINE
8
BLACK
6
CONTINUOUS
10
169.469
20
-78.666
11
169.469
21
-75.766
0
LINE
8
BLACK
6
CONTINUOUS
10
169.469
20
-75.766
11
169.488
21
-75.6703
0
LINE
8
BLACK
6
CONTINUOUS
10
169.488
20
-75.6703
11
169.542
21
-75.5892
0
LINE
8
BLACK
6
CONTINUOUS
10
169.542
20
-75.5892
11
169.623
21
-75.535
0
LINE
8
BLACK
6
CONTINUOUS
10
169.623
20
-75.535
11
169.719
21
-75.516
0
LINE
8
BLACK
6
CONTINUOUS
10
169.719
20
-75.516
11
170.344
21
-75.516
0
LINE
8
BLACK
6
CONTINUOUS
10
170.344
20
-75.516
11
170.44
21
-75.535
0
LINE
8
BLACK
6
CONTINUOUS
10
145.304
20
-77.5622
11
145.383
21
-77.615
0
LINE
8
BLACK
6
CONTINUOUS
10
145.383
20
-77.615
11
145.436
21
-77.6941
0
LINE
8
BLACK
6
CONTINUOUS
10
145.436
20
-77.6941
11
145.455
21
-77.7874
0
LINE
8
BLACK
6
CONTINUOUS
10
145.455
20
-77.7874
11
145.455
21
-78.2749
0
LINE
8
BLACK
6
CONTINUOUS
10
145.455
20
-78.2749
11
145.436
21
-78.3681
0
LINE
8
BLACK
6
CONTINUOUS
10
145.436
20
-78.3681
11
145.383
21
-78.4472
0
LINE
8
BLACK
6
CONTINUOUS
10
145.383
20
-78.4472
11
145.304
21
-78.5
0
LINE
8
BLACK
6
CONTINUOUS
10
145.304
20
-78.5
11
145.211
21
-78.5186
0
LINE
8
BLACK
6
CONTINUOUS
10
145.211
20
-78.5186
11
144.298
21
-78.5186
0
LINE
8
BLACK
6
CONTINUOUS
10
144.298
20
-78.5186
11
144.205
21
-78.5
0
LINE
8
BLACK
6
CONTINUOUS
10
144.205
20
-78.5
11
144.126
21
-78.4472
0
LINE
8
BLACK
6
CONTINUOUS
10
144.126
20
-78.4472
11
144.073
21
-78.3681
0
LINE
8
BLACK
6
CONTINUOUS
10
144.073
20
-78.3681
11
144.055
21
-78.2749
0
LINE
8
BLACK
6
CONTINUOUS
10
144.055
20
-78.2749
11
144.055
21
-77.7874
0
LINE
8
BLACK
6
CONTINUOUS
10
144.055
20
-77.7874
11
144.073
21
-77.6941
0
LINE
8
BLACK
6
CONTINUOUS
10
144.073
20
-77.6941
11
144.126
21
-77.615
0
LINE
8
BLACK
6
CONTINUOUS
10
144.126
20
-77.615
11
144.205
21
-77.5622
0
LINE
8
BLACK
6
CONTINUOUS
10
144.205
20
-77.5622
11
144.298
21
-77.5436
0
LINE
8
BLACK
6
CONTINUOUS
10
144.298
20
-77.5436
11
145.211
21
-77.5436
0
LINE
8
BLACK
6
CONTINUOUS
10
145.211
20
-77.5436
11
145.304
21
-77.5622
0
LINE
8
BLACK
6
CONTINUOUS
10
130.1
20
-77.2
11
128.1
21
-77.2
0
LINE
8
BLACK
6
CONTINUOUS
10
128.1
20
-77.2
11
128.1
21
-74.2
0
LINE
8
BLACK
6
CONTINUOUS
10
128.1
20
-74.2
11
130.1
21
-74.2
0
LINE
8
BLACK
6
CONTINUOUS
10
130.1
20
-74.2
11
130.1
21
-77.2
0
LINE
8
BLACK
6
CONTINUOUS
10
124.1
20
-77.2
11
122.1
21
-77.2
0
LINE
8
BLACK
6
CONTINUOUS
10
122.1
20
-77.2
11
122.1
21
-74.2
0
LINE
8
BLACK
6
CONTINUOUS
10
122.1
20
-74.2
11
124.1
21
-74.2
0
LINE
8
BLACK
6
CONTINUOUS
10
124.1
20
-74.2
11
124.1
21
-77.2
0
LINE
8
BLACK
6
CONTINUOUS
10
160.233
20
-75.1966
11
160.312
21
-75.2494
0
LINE
8
BLACK
6
CONTINUOUS
10
160.312
20
-75.2494
11
160.364
21
-75.3285
0
LINE
8
BLACK
6
CONTINUOUS
10
160.364
20
-75.3285
11
160.383
21
-75.4218
0
LINE
8
BLACK
6
CONTINUOUS
10
160.383
20
-75.4218
11
160.383
21
-76.3342
0
LINE
8
BLACK
6
CONTINUOUS
10
160.383
20
-76.3342
11
160.364
21
-76.4275
0
LINE
8
BLACK
6
CONTINUOUS
10
160.364
20
-76.4275
11
160.312
21
-76.5066
0
LINE
8
BLACK
6
CONTINUOUS
10
160.312
20
-76.5066
11
160.233
21
-76.5594
0
LINE
8
BLACK
6
CONTINUOUS
10
160.233
20
-76.5594
11
160.139
21
-76.578
0
LINE
8
BLACK
6
CONTINUOUS
10
160.139
20
-76.578
11
159.652
21
-76.578
0
LINE
8
BLACK
6
CONTINUOUS
10
159.652
20
-76.578
11
159.558
21
-76.5594
0
LINE
8
BLACK
6
CONTINUOUS
10
159.558
20
-76.5594
11
159.479
21
-76.5066
0
LINE
8
BLACK
6
CONTINUOUS
10
159.479
20
-76.5066
11
159.427
21
-76.4275
0
LINE
8
BLACK
6
CONTINUOUS
10
159.427
20
-76.4275
11
159.408
21
-76.3342
0
LINE
8
BLACK
6
CONTINUOUS
10
159.408
20
-76.3342
11
159.408
21
-75.4218
0
LINE
8
BLACK
6
CONTINUOUS
10
159.408
20
-75.4218
11
159.427
21
-75.3285
0
LINE
8
BLACK
6
CONTINUOUS
10
159.427
20
-75.3285
11
159.479
21
-75.2494
0
LINE
8
BLACK
6
CONTINUOUS
10
159.479
20
-75.2494
11
159.558
21
-75.1966
0
LINE
8
BLACK
6
CONTINUOUS
10
159.558
20
-75.1966
11
159.652
21
-75.178
0
LINE
8
BLACK
6
CONTINUOUS
10
159.652
20
-75.178
11
160.139
21
-75.178
0
LINE
8
BLACK
6
CONTINUOUS
10
160.139
20
-75.178
11
160.233
21
-75.1966
0
LINE
8
BLACK
6
CONTINUOUS
10
158.358
20
-75.1966
11
158.437
21
-75.2494
0
LINE
8
BLACK
6
CONTINUOUS
10
158.437
20
-75.2494
11
158.489
21
-75.3285
0
LINE
8
BLACK
6
CONTINUOUS
10
158.489
20
-75.3285
11
158.508
21
-75.4218
0
LINE
8
BLACK
6
CONTINUOUS
10
158.508
20
-75.4218
11
158.508
21
-76.3342
0
LINE
8
BLACK
6
CONTINUOUS
10
158.508
20
-76.3342
11
158.489
21
-76.4275
0
LINE
8
BLACK
6
CONTINUOUS
10
158.489
20
-76.4275
11
158.437
21
-76.5066
0
LINE
8
BLACK
6
CONTINUOUS
10
158.437
20
-76.5066
11
158.358
21
-76.5594
0
LINE
8
BLACK
6
CONTINUOUS
10
158.358
20
-76.5594
11
158.264
21
-76.578
0
LINE
8
BLACK
6
CONTINUOUS
10
158.264
20
-76.578
11
157.777
21
-76.578
0
LINE
8
BLACK
6
CONTINUOUS
10
157.777
20
-76.578
11
157.683
21
-76.5594
0
LINE
8
BLACK
6
CONTINUOUS
10
157.683
20
-76.5594
11
157.604
21
-76.5066
0
LINE
8
BLACK
6
CONTINUOUS
10
157.604
20
-76.5066
11
157.552
21
-76.4275
0
LINE
8
BLACK
6
CONTINUOUS
10
157.552
20
-76.4275
11
157.533
21
-76.3342
0
LINE
8
BLACK
6
CONTINUOUS
10
157.533
20
-76.3342
11
157.533
21
-75.4218
0
LINE
8
BLACK
6
CONTINUOUS
10
157.533
20
-75.4218
11
157.552
21
-75.3285
0
LINE
8
BLACK
6
CONTINUOUS
10
157.552
20
-75.3285
11
157.604
21
-75.2494
0
LINE
8
BLACK
6
CONTINUOUS
10
157.604
20
-75.2494
11
157.683
21
-75.1966
0
LINE
8
BLACK
6
CONTINUOUS
10
157.683
20
-75.1966
11
157.777
21
-75.178
0
LINE
8
BLACK
6
CONTINUOUS
10
157.777
20
-75.178
11
158.264
21
-75.178
0
LINE
8
BLACK
6
CONTINUOUS
10
158.264
20
-75.178
11
158.358
21
-75.1966
0
LINE
8
BLACK
6
CONTINUOUS
10
156.46
20
-75.5846
11
156.539
21
-75.6374
0
LINE
8
BLACK
6
CONTINUOUS
10
156.539
20
-75.6374
11
156.591
21
-75.7165
0
LINE
8
BLACK
6
CONTINUOUS
10
156.591
20
-75.7165
11
156.61
21
-75.8097
0
LINE
8
BLACK
6
CONTINUOUS
10
156.61
20
-75.8097
11
156.61
21
-76.2972
0
LINE
8
BLACK
6
CONTINUOUS
10
156.61
20
-76.2972
11
156.591
21
-76.3905
0
LINE
8
BLACK
6
CONTINUOUS
10
156.591
20
-76.3905
11
156.539
21
-76.4696
0
LINE
8
BLACK
6
CONTINUOUS
10
156.539
20
-76.4696
11
156.46
21
-76.5224
0
LINE
8
BLACK
6
CONTINUOUS
10
156.46
20
-76.5224
11
156.366
21
-76.541
0
LINE
8
BLACK
6
CONTINUOUS
10
156.366
20
-76.541
11
155.454
21
-76.541
0
LINE
8
BLACK
6
CONTINUOUS
10
155.454
20
-76.541
11
155.36
21
-76.5224
0
LINE
8
BLACK
6
CONTINUOUS
10
155.36
20
-76.5224
11
155.281
21
-76.4696
0
LINE
8
BLACK
6
CONTINUOUS
10
155.281
20
-76.4696
11
155.229
21
-76.3905
0
LINE
8
BLACK
6
CONTINUOUS
10
155.229
20
-76.3905
11
155.21
21
-76.2972
0
LINE
8
BLACK
6
CONTINUOUS
10
155.21
20
-76.2972
11
155.21
21
-75.8097
0
LINE
8
BLACK
6
CONTINUOUS
10
155.21
20
-75.8097
11
155.229
21
-75.7165
0
LINE
8
BLACK
6
CONTINUOUS
10
155.229
20
-75.7165
11
155.281
21
-75.6374
0
LINE
8
BLACK
6
CONTINUOUS
10
155.281
20
-75.6374
11
155.36
21
-75.5846
0
LINE
8
BLACK
6
CONTINUOUS
10
155.36
20
-75.5846
11
155.454
21
-75.566
0
LINE
8
BLACK
6
CONTINUOUS
10
155.454
20
-75.566
11
156.366
21
-75.566
0
LINE
8
BLACK
6
CONTINUOUS
10
156.366
20
-75.566
11
156.46
21
-75.5846
0
LINE
8
BLACK
6
CONTINUOUS
10
162.81
20
-75.5846
11
162.889
21
-75.6374
0
LINE
8
BLACK
6
CONTINUOUS
10
162.889
20
-75.6374
11
162.941
21
-75.7165
0
LINE
8
BLACK
6
CONTINUOUS
10
162.941
20
-75.7165
11
162.96
21
-75.8097
0
LINE
8
BLACK
6
CONTINUOUS
10
162.96
20
-75.8097
11
162.96
21
-76.2972
0
LINE
8
BLACK
6
CONTINUOUS
10
162.96
20
-76.2972
11
162.941
21
-76.3905
0
LINE
8
BLACK
6
CONTINUOUS
10
162.941
20
-76.3905
11
162.889
21
-76.4696
0
LINE
8
BLACK
6
CONTINUOUS
10
162.889
20
-76.4696
11
162.81
21
-76.5224
0
LINE
8
BLACK
6
CONTINUOUS
10
162.81
20
-76.5224
11
162.716
21
-76.541
0
LINE
8
BLACK
6
CONTINUOUS
10
162.716
20
-76.541
11
161.804
21
-76.541
0
LINE
8
BLACK
6
CONTINUOUS
10
161.804
20
-76.541
11
161.71
21
-76.5224
0
LINE
8
BLACK
6
CONTINUOUS
10
161.71
20
-76.5224
11
161.631
21
-76.4696
0
LINE
8
BLACK
6
CONTINUOUS
10
161.631
20
-76.4696
11
161.579
21
-76.3905
0
LINE
8
BLACK
6
CONTINUOUS
10
161.579
20
-76.3905
11
161.56
21
-76.2972
0
LINE
8
BLACK
6
CONTINUOUS
10
161.56
20
-76.2972
11
161.56
21
-75.8097
0
LINE
8
BLACK
6
CONTINUOUS
10
161.56
20
-75.8097
11
161.579
21
-75.7165
0
LINE
8
BLACK
6
CONTINUOUS
10
161.579
20
-75.7165
11
161.631
21
-75.6374
0
LINE
8
BLACK
6
CONTINUOUS
10
161.631
20
-75.6374
11
161.71
21
-75.5846
0
LINE
8
BLACK
6
CONTINUOUS
10
161.71
20
-75.5846
11
161.804
21
-75.566
0
LINE
8
BLACK
6
CONTINUOUS
10
161.804
20
-75.566
11
162.716
21
-75.566
0
LINE
8
BLACK
6
CONTINUOUS
10
162.716
20
-75.566
11
162.81
21
-75.5846
0
LINE
8
BLACK
6
CONTINUOUS
10
145.33
20
-75.4186
11
145.409
21
-75.4714
0
LINE
8
BLACK
6
CONTINUOUS
10
145.409
20
-75.4714
11
145.461
21
-75.5505
0
LINE
8
BLACK
6
CONTINUOUS
10
145.461
20
-75.5505
11
145.48
21
-75.6437
0
LINE
8
BLACK
6
CONTINUOUS
10
145.48
20
-75.6437
11
145.48
21
-76.1312
0
LINE
8
BLACK
6
CONTINUOUS
10
145.48
20
-76.1312
11
145.461
21
-76.2245
0
LINE
8
BLACK
6
CONTINUOUS
10
145.461
20
-76.2245
11
145.409
21
-76.3036
0
LINE
8
BLACK
6
CONTINUOUS
10
145.409
20
-76.3036
11
145.33
21
-76.3564
0
LINE
8
BLACK
6
CONTINUOUS
10
145.33
20
-76.3564
11
145.236
21
-76.375
0
LINE
8
BLACK
6
CONTINUOUS
10
145.236
20
-76.375
11
144.324
21
-76.375
0
LINE
8
BLACK
6
CONTINUOUS
10
144.324
20
-76.375
11
144.23
21
-76.3564
0
LINE
8
BLACK
6
CONTINUOUS
10
144.23
20
-76.3564
11
144.151
21
-76.3036
0
LINE
8
BLACK
6
CONTINUOUS
10
144.151
20
-76.3036
11
144.099
21
-76.2245
0
LINE
8
BLACK
6
CONTINUOUS
10
144.099
20
-76.2245
11
144.08
21
-76.1312
0
LINE
8
BLACK
6
CONTINUOUS
10
144.08
20
-76.1312
11
144.08
21
-75.6437
0
LINE
8
BLACK
6
CONTINUOUS
10
144.08
20
-75.6437
11
144.099
21
-75.5505
0
LINE
8
BLACK
6
CONTINUOUS
10
144.099
20
-75.5505
11
144.151
21
-75.4714
0
LINE
8
BLACK
6
CONTINUOUS
10
144.151
20
-75.4714
11
144.23
21
-75.4186
0
LINE
8
BLACK
6
CONTINUOUS
10
144.23
20
-75.4186
11
144.324
21
-75.4
0
LINE
8
BLACK
6
CONTINUOUS
10
144.324
20
-75.4
11
145.236
21
-75.4
0
LINE
8
BLACK
6
CONTINUOUS
10
145.236
20
-75.4
11
145.33
21
-75.4186
0
LINE
8
BLACK
6
CONTINUOUS
10
147.87
20
-75.4186
11
147.949
21
-75.4714
0
LINE
8
BLACK
6
CONTINUOUS
10
147.949
20
-75.4714
11
148.001
21
-75.5505
0
LINE
8
BLACK
6
CONTINUOUS
10
148.001
20
-75.5505
11
148.02
21
-75.6437
0
LINE
8
BLACK
6
CONTINUOUS
10
148.02
20
-75.6437
11
148.02
21
-76.1312
0
LINE
8
BLACK
6
CONTINUOUS
10
148.02
20
-76.1312
11
148.001
21
-76.2245
0
LINE
8
BLACK
6
CONTINUOUS
10
148.001
20
-76.2245
11
147.949
21
-76.3036
0
LINE
8
BLACK
6
CONTINUOUS
10
147.949
20
-76.3036
11
147.87
21
-76.3564
0
LINE
8
BLACK
6
CONTINUOUS
10
147.87
20
-76.3564
11
147.776
21
-76.375
0
LINE
8
BLACK
6
CONTINUOUS
10
147.776
20
-76.375
11
146.864
21
-76.375
0
LINE
8
BLACK
6
CONTINUOUS
10
146.864
20
-76.375
11
146.77
21
-76.3564
0
LINE
8
BLACK
6
CONTINUOUS
10
146.77
20
-76.3564
11
146.691
21
-76.3036
0
LINE
8
BLACK
6
CONTINUOUS
10
146.691
20
-76.3036
11
146.639
21
-76.2245
0
LINE
8
BLACK
6
CONTINUOUS
10
146.639
20
-76.2245
11
146.62
21
-76.1312
0
LINE
8
BLACK
6
CONTINUOUS
10
146.62
20
-76.1312
11
146.62
21
-75.6437
0
LINE
8
BLACK
6
CONTINUOUS
10
146.62
20
-75.6437
11
146.639
21
-75.5505
0
LINE
8
BLACK
6
CONTINUOUS
10
146.639
20
-75.5505
11
146.691
21
-75.4714
0
LINE
8
BLACK
6
CONTINUOUS
10
146.691
20
-75.4714
11
146.77
21
-75.4186
0
LINE
8
BLACK
6
CONTINUOUS
10
146.77
20
-75.4186
11
146.864
21
-75.4
0
LINE
8
BLACK
6
CONTINUOUS
10
146.864
20
-75.4
11
147.776
21
-75.4
0
LINE
8
BLACK
6
CONTINUOUS
10
147.776
20
-75.4
11
147.87
21
-75.4186
0
LINE
8
BLACK
6
CONTINUOUS
10
156.46
20
-73.7096
11
156.539
21
-73.7624
0
LINE
8
BLACK
6
CONTINUOUS
10
156.539
20
-73.7624
11
156.591
21
-73.8415
0
LINE
8
BLACK
6
CONTINUOUS
10
156.591
20
-73.8415
11
156.61
21
-73.9347
0
LINE
8
BLACK
6
CONTINUOUS
10
156.61
20
-73.9347
11
156.61
21
-74.4222
0
LINE
8
BLACK
6
CONTINUOUS
10
156.61
20
-74.4222
11
156.591
21
-74.5155
0
LINE
8
BLACK
6
CONTINUOUS
10
156.591
20
-74.5155
11
156.539
21
-74.5946
0
LINE
8
BLACK
6
CONTINUOUS
10
156.539
20
-74.5946
11
156.46
21
-74.6474
0
LINE
8
BLACK
6
CONTINUOUS
10
156.46
20
-74.6474
11
156.366
21
-74.666
0
LINE
8
BLACK
6
CONTINUOUS
10
156.366
20
-74.666
11
155.454
21
-74.666
0
LINE
8
BLACK
6
CONTINUOUS
10
155.454
20
-74.666
11
155.36
21
-74.6474
0
LINE
8
BLACK
6
CONTINUOUS
10
155.36
20
-74.6474
11
155.281
21
-74.5946
0
LINE
8
BLACK
6
CONTINUOUS
10
155.281
20
-74.5946
11
155.229
21
-74.5155
0
LINE
8
BLACK
6
CONTINUOUS
10
155.229
20
-74.5155
11
155.21
21
-74.4222
0
LINE
8
BLACK
6
CONTINUOUS
10
155.21
20
-74.4222
11
155.21
21
-73.9347
0
LINE
8
BLACK
6
CONTINUOUS
10
155.21
20
-73.9347
11
155.229
21
-73.8415
0
LINE
8
BLACK
6
CONTINUOUS
10
155.229
20
-73.8415
11
155.281
21
-73.7624
0
LINE
8
BLACK
6
CONTINUOUS
10
155.281
20
-73.7624
11
155.36
21
-73.7096
0
LINE
8
BLACK
6
CONTINUOUS
10
155.36
20
-73.7096
11
155.454
21
-73.691
0
LINE
8
BLACK
6
CONTINUOUS
10
155.454
20
-73.691
11
156.366
21
-73.691
0
LINE
8
BLACK
6
CONTINUOUS
10
156.366
20
-73.691
11
156.46
21
-73.7096
0
LINE
8
BLACK
6
CONTINUOUS
10
162.81
20
-73.7096
11
162.889
21
-73.7624
0
LINE
8
BLACK
6
CONTINUOUS
10
162.889
20
-73.7624
11
162.941
21
-73.8415
0
LINE
8
BLACK
6
CONTINUOUS
10
162.941
20
-73.8415
11
162.96
21
-73.9347
0
LINE
8
BLACK
6
CONTINUOUS
10
162.96
20
-73.9347
11
162.96
21
-74.4222
0
LINE
8
BLACK
6
CONTINUOUS
10
162.96
20
-74.4222
11
162.941
21
-74.5155
0
LINE
8
BLACK
6
CONTINUOUS
10
162.941
20
-74.5155
11
162.889
21
-74.5946
0
LINE
8
BLACK
6
CONTINUOUS
10
162.889
20
-74.5946
11
162.81
21
-74.6474
0
LINE
8
BLACK
6
CONTINUOUS
10
162.81
20
-74.6474
11
162.716
21
-74.666
0
LINE
8
BLACK
6
CONTINUOUS
10
162.716
20
-74.666
11
161.804
21
-74.666
0
LINE
8
BLACK
6
CONTINUOUS
10
161.804
20
-74.666
11
161.71
21
-74.6474
0
LINE
8
BLACK
6
CONTINUOUS
10
161.71
20
-74.6474
11
161.631
21
-74.5946
0
LINE
8
BLACK
6
CONTINUOUS
10
161.631
20
-74.5946
11
161.579
21
-74.5155
0
LINE
8
BLACK
6
CONTINUOUS
10
161.579
20
-74.5155
11
161.56
21
-74.4222
0
LINE
8
BLACK
6
CONTINUOUS
10
161.56
20
-74.4222
11
161.56
21
-73.9347
0
LINE
8
BLACK
6
CONTINUOUS
10
161.56
20
-73.9347
11
161.579
21
-73.8415
0
LINE
8
BLACK
6
CONTINUOUS
10
161.579
20
-73.8415
11
161.631
21
-73.7624
0
LINE
8
BLACK
6
CONTINUOUS
10
161.631
20
-73.7624
11
161.71
21
-73.7096
0
LINE
8
BLACK
6
CONTINUOUS
10
161.71
20
-73.7096
11
161.804
21
-73.691
0
LINE
8
BLACK
6
CONTINUOUS
10
161.804
20
-73.691
11
162.716
21
-73.691
0
LINE
8
BLACK
6
CONTINUOUS
10
162.716
20
-73.691
11
162.81
21
-73.7096
0
LINE
8
BLACK
6
CONTINUOUS
10
145.33
20
-73.5436
11
145.409
21
-73.5964
0
LINE
8
BLACK
6
CONTINUOUS
10
145.409
20
-73.5964
11
145.461
21
-73.6755
0
LINE
8
BLACK
6
CONTINUOUS
10
145.461
20
-73.6755
11
145.48
21
-73.7687
0
LINE
8
BLACK
6
CONTINUOUS
10
145.48
20
-73.7687
11
145.48
21
-74.2562
0
LINE
8
BLACK
6
CONTINUOUS
10
145.48
20
-74.2562
11
145.461
21
-74.3495
0
LINE
8
BLACK
6
CONTINUOUS
10
145.461
20
-74.3495
11
145.409
21
-74.4286
0
LINE
8
BLACK
6
CONTINUOUS
10
145.409
20
-74.4286
11
145.33
21
-74.4814
0
LINE
8
BLACK
6
CONTINUOUS
10
145.33
20
-74.4814
11
145.236
21
-74.5
0
LINE
8
BLACK
6
CONTINUOUS
10
145.236
20
-74.5
11
144.324
21
-74.5
0
LINE
8
BLACK
6
CONTINUOUS
10
144.324
20
-74.5
11
144.23
21
-74.4814
0
LINE
8
BLACK
6
CONTINUOUS
10
144.23
20
-74.4814
11
144.151
21
-74.4286
0
LINE
8
BLACK
6
CONTINUOUS
10
144.151
20
-74.4286
11
144.099
21
-74.3495
0
LINE
8
BLACK
6
CONTINUOUS
10
144.099
20
-74.3495
11
144.08
21
-74.2562
0
LINE
8
BLACK
6
CONTINUOUS
10
144.08
20
-74.2562
11
144.08
21
-73.7687
0
LINE
8
BLACK
6
CONTINUOUS
10
144.08
20
-73.7687
11
144.099
21
-73.6755
0
LINE
8
BLACK
6
CONTINUOUS
10
144.099
20
-73.6755
11
144.151
21
-73.5964
0
LINE
8
BLACK
6
CONTINUOUS
10
144.151
20
-73.5964
11
144.23
21
-73.5436
0
LINE
8
BLACK
6
CONTINUOUS
10
144.23
20
-73.5436
11
144.324
21
-73.525
0
LINE
8
BLACK
6
CONTINUOUS
10
144.324
20
-73.525
11
145.236
21
-73.525
0
LINE
8
BLACK
6
CONTINUOUS
10
145.236
20
-73.525
11
145.33
21
-73.5436
0
LINE
8
BLACK
6
CONTINUOUS
10
147.87
20
-73.5436
11
147.949
21
-73.5964
0
LINE
8
BLACK
6
CONTINUOUS
10
147.949
20
-73.5964
11
148.001
21
-73.6755
0
LINE
8
BLACK
6
CONTINUOUS
10
148.001
20
-73.6755
11
148.02
21
-73.7687
0
LINE
8
BLACK
6
CONTINUOUS
10
148.02
20
-73.7687
11
148.02
21
-74.2562
0
LINE
8
BLACK
6
CONTINUOUS
10
148.02
20
-74.2562
11
148.001
21
-74.3495
0
LINE
8
BLACK
6
CONTINUOUS
10
148.001
20
-74.3495
11
147.949
21
-74.4286
0
LINE
8
BLACK
6
CONTINUOUS
10
147.949
20
-74.4286
11
147.87
21
-74.4814
0
LINE
8
BLACK
6
CONTINUOUS
10
147.87
20
-74.4814
11
147.776
21
-74.5
0
LINE
8
BLACK
6
CONTINUOUS
10
147.776
20
-74.5
11
146.864
21
-74.5
0
LINE
8
BLACK
6
CONTINUOUS
10
146.864
20
-74.5
11
146.77
21
-74.4814
0
LINE
8
BLACK
6
CONTINUOUS
10
146.77
20
-74.4814
11
146.691
21
-74.4286
0
LINE
8
BLACK
6
CONTINUOUS
10
146.691
20
-74.4286
11
146.639
21
-74.3495
0
LINE
8
BLACK
6
CONTINUOUS
10
146.639
20
-74.3495
11
146.62
21
-74.2562
0
LINE
8
BLACK
6
CONTINUOUS
10
146.62
20
-74.2562
11
146.62
21
-73.7687
0
LINE
8
BLACK
6
CONTINUOUS
10
146.62
20
-73.7687
11
146.639
21
-73.6755
0
LINE
8
BLACK
6
CONTINUOUS
10
146.639
20
-73.6755
11
146.691
21
-73.5964
0
LINE
8
BLACK
6
CONTINUOUS
10
146.691
20
-73.5964
11
146.77
21
-73.5436
0
LINE
8
BLACK
6
CONTINUOUS
10
146.77
20
-73.5436
11
146.864
21
-73.525
0
LINE
8
BLACK
6
CONTINUOUS
10
146.864
20
-73.525
11
147.776
21
-73.525
0
LINE
8
BLACK
6
CONTINUOUS
10
147.776
20
-73.525
11
147.87
21
-73.5436
0
LINE
8
BLACK
6
CONTINUOUS
10
147.87
20
-70.6434
11
147.949
21
-70.6962
0
LINE
8
BLACK
6
CONTINUOUS
10
147.949
20
-70.6962
11
148.001
21
-70.7753
0
LINE
8
BLACK
6
CONTINUOUS
10
148.001
20
-70.7753
11
148.02
21
-70.8685
0
LINE
8
BLACK
6
CONTINUOUS
10
148.02
20
-70.8685
11
148.02
21
-71.356
0
LINE
8
BLACK
6
CONTINUOUS
10
148.02
20
-71.356
11
148.001
21
-71.4493
0
LINE
8
BLACK
6
CONTINUOUS
10
148.001
20
-71.4493
11
147.949
21
-71.5284
0
LINE
8
BLACK
6
CONTINUOUS
10
147.949
20
-71.5284
11
147.87
21
-71.5812
0
LINE
8
BLACK
6
CONTINUOUS
10
147.87
20
-71.5812
11
147.776
21
-71.5998
0
LINE
8
BLACK
6
CONTINUOUS
10
147.776
20
-71.5998
11
146.864
21
-71.5998
0
LINE
8
BLACK
6
CONTINUOUS
10
146.864
20
-71.5998
11
146.77
21
-71.5812
0
LINE
8
BLACK
6
CONTINUOUS
10
146.77
20
-71.5812
11
146.691
21
-71.5284
0
LINE
8
BLACK
6
CONTINUOUS
10
146.691
20
-71.5284
11
146.639
21
-71.4493
0
LINE
8
BLACK
6
CONTINUOUS
10
146.639
20
-71.4493
11
146.62
21
-71.356
0
LINE
8
BLACK
6
CONTINUOUS
10
146.62
20
-71.356
11
146.62
21
-70.8685
0
LINE
8
BLACK
6
CONTINUOUS
10
146.62
20
-70.8685
11
146.639
21
-70.7753
0
LINE
8
BLACK
6
CONTINUOUS
10
146.639
20
-70.7753
11
146.691
21
-70.6962
0
LINE
8
BLACK
6
CONTINUOUS
10
146.691
20
-70.6962
11
146.77
21
-70.6434
0
LINE
8
BLACK
6
CONTINUOUS
10
146.77
20
-70.6434
11
146.864
21
-70.6248
0
LINE
8
BLACK
6
CONTINUOUS
10
146.864
20
-70.6248
11
147.776
21
-70.6248
0
LINE
8
BLACK
6
CONTINUOUS
10
147.776
20
-70.6248
11
147.87
21
-70.6434
0
LINE
8
BLACK
6
CONTINUOUS
10
145.33
20
-70.6434
11
145.409
21
-70.6962
0
LINE
8
BLACK
6
CONTINUOUS
10
145.409
20
-70.6962
11
145.461
21
-70.7753
0
LINE
8
BLACK
6
CONTINUOUS
10
145.461
20
-70.7753
11
145.48
21
-70.8685
0
LINE
8
BLACK
6
CONTINUOUS
10
145.48
20
-70.8685
11
145.48
21
-71.356
0
LINE
8
BLACK
6
CONTINUOUS
10
145.48
20
-71.356
11
145.461
21
-71.4493
0
LINE
8
BLACK
6
CONTINUOUS
10
145.461
20
-71.4493
11
145.409
21
-71.5284
0
LINE
8
BLACK
6
CONTINUOUS
10
145.409
20
-71.5284
11
145.33
21
-71.5812
0
LINE
8
BLACK
6
CONTINUOUS
10
145.33
20
-71.5812
11
145.236
21
-71.5998
0
LINE
8
BLACK
6
CONTINUOUS
10
145.236
20
-71.5998
11
144.324
21
-71.5998
0
LINE
8
BLACK
6
CONTINUOUS
10
144.324
20
-71.5998
11
144.23
21
-71.5812
0
LINE
8
BLACK
6
CONTINUOUS
10
144.23
20
-71.5812
11
144.151
21
-71.5284
0
LINE
8
BLACK
6
CONTINUOUS
10
144.151
20
-71.5284
11
144.099
21
-71.4493
0
LINE
8
BLACK
6
CONTINUOUS
10
144.099
20
-71.4493
11
144.08
21
-71.356
0
LINE
8
BLACK
6
CONTINUOUS
10
144.08
20
-71.356
11
144.08
21
-70.8685
0
LINE
8
BLACK
6
CONTINUOUS
10
144.08
20
-70.8685
11
144.099
21
-70.7753
0
LINE
8
BLACK
6
CONTINUOUS
10
144.099
20
-70.7753
11
144.151
21
-70.6962
0
LINE
8
BLACK
6
CONTINUOUS
10
144.151
20
-70.6962
11
144.23
21
-70.6434
0
LINE
8
BLACK
6
CONTINUOUS
10
144.23
20
-70.6434
11
144.324
21
-70.6248
0
LINE
8
BLACK
6
CONTINUOUS
10
144.324
20
-70.6248
11
145.236
21
-70.6248
0
LINE
8
BLACK
6
CONTINUOUS
10
145.236
20
-70.6248
11
145.33
21
-70.6434
0
LINE
8
BLACK
6
CONTINUOUS
10
157.828
20
-71.2278
11
155.928
21
-71.2278
0
LINE
8
BLACK
6
CONTINUOUS
10
155.928
20
-71.2278
11
155.928
21
-68.8278
0
LINE
8
BLACK
6
CONTINUOUS
10
155.928
20
-68.8278
11
157.828
21
-68.8278
0
LINE
8
BLACK
6
CONTINUOUS
10
157.828
20
-68.8278
11
157.828
21
-71.2278
0
LINE
8
BLACK
6
CONTINUOUS
10
161.928
20
-71.2278
11
160.028
21
-71.2278
0
LINE
8
BLACK
6
CONTINUOUS
10
160.028
20
-71.2278
11
160.028
21
-68.8278
0
LINE
8
BLACK
6
CONTINUOUS
10
160.028
20
-68.8278
11
161.928
21
-68.8278
0
LINE
8
BLACK
6
CONTINUOUS
10
161.928
20
-68.8278
11
161.928
21
-71.2278
0
LINE
8
BLACK
6
CONTINUOUS
10
147.87
20
-68.7684
11
147.949
21
-68.8212
0
LINE
8
BLACK
6
CONTINUOUS
10
147.949
20
-68.8212
11
148.001
21
-68.9003
0
LINE
8
BLACK
6
CONTINUOUS
10
148.001
20
-68.9003
11
148.02
21
-68.9935
0
LINE
8
BLACK
6
CONTINUOUS
10
148.02
20
-68.9935
11
148.02
21
-69.481
0
LINE
8
BLACK
6
CONTINUOUS
10
148.02
20
-69.481
11
148.001
21
-69.5743
0
LINE
8
BLACK
6
CONTINUOUS
10
148.001
20
-69.5743
11
147.949
21
-69.6534
0
LINE
8
BLACK
6
CONTINUOUS
10
147.949
20
-69.6534
11
147.87
21
-69.7062
0
LINE
8
BLACK
6
CONTINUOUS
10
147.87
20
-69.7062
11
147.776
21
-69.7248
0
LINE
8
BLACK
6
CONTINUOUS
10
147.776
20
-69.7248
11
146.864
21
-69.7248
0
LINE
8
BLACK
6
CONTINUOUS
10
146.864
20
-69.7248
11
146.77
21
-69.7062
0
LINE
8
BLACK
6
CONTINUOUS
10
146.77
20
-69.7062
11
146.691
21
-69.6534
0
LINE
8
BLACK
6
CONTINUOUS
10
146.691
20
-69.6534
11
146.639
21
-69.5743
0
LINE
8
BLACK
6
CONTINUOUS
10
146.639
20
-69.5743
11
146.62
21
-69.481
0
LINE
8
BLACK
6
CONTINUOUS
10
146.62
20
-69.481
11
146.62
21
-68.9935
0
LINE
8
BLACK
6
CONTINUOUS
10
146.62
20
-68.9935
11
146.639
21
-68.9003
0
LINE
8
BLACK
6
CONTINUOUS
10
146.639
20
-68.9003
11
146.691
21
-68.8212
0
LINE
8
BLACK
6
CONTINUOUS
10
146.691
20
-68.8212
11
146.77
21
-68.7684
0
LINE
8
BLACK
6
CONTINUOUS
10
146.77
20
-68.7684
11
146.864
21
-68.7498
0
LINE
8
BLACK
6
CONTINUOUS
10
146.864
20
-68.7498
11
147.776
21
-68.7498
0
LINE
8
BLACK
6
CONTINUOUS
10
147.776
20
-68.7498
11
147.87
21
-68.7684
0
LINE
8
BLACK
6
CONTINUOUS
10
145.33
20
-68.7684
11
145.409
21
-68.8212
0
LINE
8
BLACK
6
CONTINUOUS
10
145.409
20
-68.8212
11
145.461
21
-68.9003
0
LINE
8
BLACK
6
CONTINUOUS
10
145.461
20
-68.9003
11
145.48
21
-68.9935
0
LINE
8
BLACK
6
CONTINUOUS
10
145.48
20
-68.9935
11
145.48
21
-69.481
0
LINE
8
BLACK
6
CONTINUOUS
10
145.48
20
-69.481
11
145.461
21
-69.5743
0
LINE
8
BLACK
6
CONTINUOUS
10
145.461
20
-69.5743
11
145.409
21
-69.6534
0
LINE
8
BLACK
6
CONTINUOUS
10
145.409
20
-69.6534
11
145.33
21
-69.7062
0
LINE
8
BLACK
6
CONTINUOUS
10
145.33
20
-69.7062
11
145.236
21
-69.7248
0
LINE
8
BLACK
6
CONTINUOUS
10
145.236
20
-69.7248
11
144.324
21
-69.7248
0
LINE
8
BLACK
6
CONTINUOUS
10
144.324
20
-69.7248
11
144.23
21
-69.7062
0
LINE
8
BLACK
6
CONTINUOUS
10
144.23
20
-69.7062
11
144.151
21
-69.6534
0
LINE
8
BLACK
6
CONTINUOUS
10
144.151
20
-69.6534
11
144.099
21
-69.5743
0
LINE
8
BLACK
6
CONTINUOUS
10
144.099
20
-69.5743
11
144.08
21
-69.481
0
LINE
8
BLACK
6
CONTINUOUS
10
144.08
20
-69.481
11
144.08
21
-68.9935
0
LINE
8
BLACK
6
CONTINUOUS
10
144.08
20
-68.9935
11
144.099
21
-68.9003
0
LINE
8
BLACK
6
CONTINUOUS
10
144.099
20
-68.9003
11
144.151
21
-68.8212
0
LINE
8
BLACK
6
CONTINUOUS
10
144.151
20
-68.8212
11
144.23
21
-68.7684
0
LINE
8
BLACK
6
CONTINUOUS
10
144.23
20
-68.7684
11
144.324
21
-68.7498
0
LINE
8
BLACK
6
CONTINUOUS
10
144.324
20
-68.7498
11
145.236
21
-68.7498
0
LINE
8
BLACK
6
CONTINUOUS
10
145.236
20
-68.7498
11
145.33
21
-68.7684
  0
ENDSEC
  0
EOF
