G04 #@! TF.GenerationSoftware,KiCad,Pcbnew,6.0.9+dfsg-1~bpo11+1*
G04 #@! TF.CreationDate,2022-12-04T00:05:59+00:00*
G04 #@! TF.ProjectId,stencil,7374656e-6369-46c2-9e6b-696361645f70,${git_hash}*
G04 #@! TF.SameCoordinates,Original*
G04 #@! TF.FileFunction,Paste,Top*
G04 #@! TF.FilePolarity,Positive*
%FSLAX46Y46*%
G04 Gerber Fmt 4.6, Leading zero omitted, Abs format (unit mm)*
G04 Created by KiCad (PCBNEW 6.0.9+dfsg-1~bpo11+1) date 2022-12-04 00:05:59*
%MOMM*%
%LPD*%
G01*
G04 APERTURE LIST*
G04 Aperture macros list*
%AMRoundRect*
0 Rectangle with rounded corners*
0 $1 Rounding radius*
0 $2 $3 $4 $5 $6 $7 $8 $9 X,Y pos of 4 corners*
0 Add a 4 corners polygon primitive as box body*
4,1,4,$2,$3,$4,$5,$6,$7,$8,$9,$2,$3,0*
0 Add four circle primitives for the rounded corners*
1,1,$1+$1,$2,$3*
1,1,$1+$1,$4,$5*
1,1,$1+$1,$6,$7*
1,1,$1+$1,$8,$9*
0 Add four rect primitives between the rounded corners*
20,1,$1+$1,$2,$3,$4,$5,0*
20,1,$1+$1,$4,$5,$6,$7,0*
20,1,$1+$1,$6,$7,$8,$9,0*
20,1,$1+$1,$8,$9,$2,$3,0*%
G04 Aperture macros list end*
%ADD10C,0.500000*%
%ADD11C,1.000000*%
%ADD12C,1.050000*%
%ADD13RoundRect,0.250000X-1.000000X1.500000X-1.000000X-1.500000X1.000000X-1.500000X1.000000X1.500000X0*%
%ADD14RoundRect,0.243750X-0.243750X-0.456250X0.243750X-0.456250X0.243750X0.456250X-0.243750X0.456250X0*%
%ADD15RoundRect,0.243750X-0.456250X0.243750X-0.456250X-0.243750X0.456250X-0.243750X0.456250X0.243750X0*%
%ADD16RoundRect,0.243750X0.456250X-0.243750X0.456250X0.243750X-0.456250X0.243750X-0.456250X-0.243750X0*%
%ADD17RoundRect,0.250000X0.625000X-0.375000X0.625000X0.375000X-0.625000X0.375000X-0.625000X-0.375000X0*%
%ADD18RoundRect,0.250000X-0.312500X-1.450000X0.312500X-1.450000X0.312500X1.450000X-0.312500X1.450000X0*%
%ADD19RoundRect,0.243750X0.243750X0.456250X-0.243750X0.456250X-0.243750X-0.456250X0.243750X-0.456250X0*%
%ADD20R,2.000000X3.000000*%
%ADD21RoundRect,0.218750X-0.256250X0.218750X-0.256250X-0.218750X0.256250X-0.218750X0.256250X0.218750X0*%
%ADD22R,1.900000X2.400000*%
%ADD23R,0.550000X1.600000*%
%ADD24R,1.600000X0.550000*%
%ADD25RoundRect,0.218750X0.256250X-0.218750X0.256250X0.218750X-0.256250X0.218750X-0.256250X-0.218750X0*%
G04 APERTURE END LIST*
D10*
X212000000Y-120200000D02*
G75*
G03*
X212500000Y-119700000I0J500000D01*
G01*
X174800000Y-22000000D02*
G75*
G03*
X174300000Y-21500000I-500000J0D01*
G01*
X88500000Y-32900000D02*
G75*
G03*
X89000000Y-33400000I500000J0D01*
G01*
X212000000Y-58200000D02*
G75*
G03*
X212500000Y-57700000I0J500000D01*
G01*
X88500000Y-57700000D02*
G75*
G03*
X89000000Y-58200000I500000J0D01*
G01*
X139100000Y-21500000D02*
G75*
G03*
X138600000Y-22000000I0J-500000D01*
G01*
X212500000Y-22500000D02*
G75*
G03*
X211500000Y-21500000I-1000000J0D01*
G01*
X89000000Y-34400000D02*
G75*
G03*
X88500000Y-34900000I0J-500000D01*
G01*
X89000000Y-84000000D02*
G75*
G03*
X88500000Y-84500000I0J-500000D01*
G01*
X89000000Y-71600000D02*
G75*
G03*
X88500000Y-72100000I0J-500000D01*
G01*
X212500000Y-59700000D02*
G75*
G03*
X212000000Y-59200000I-500000J0D01*
G01*
X139100000Y-145500000D02*
X149500000Y-145500000D01*
X137100000Y-145500000D02*
G75*
G03*
X137600000Y-145000000I0J500000D01*
G01*
X188200000Y-145000000D02*
G75*
G03*
X188700000Y-145500000I500000J0D01*
G01*
X212500000Y-84500000D02*
G75*
G03*
X212000000Y-84000000I-500000J0D01*
G01*
D11*
X92250000Y-54125000D02*
G75*
G03*
X92250000Y-54125000I-500000J0D01*
G01*
D10*
X114300000Y-21500000D02*
G75*
G03*
X113800000Y-22000000I0J-500000D01*
G01*
X89000000Y-46800000D02*
G75*
G03*
X88500000Y-47300000I0J-500000D01*
G01*
D11*
X92250000Y-112875000D02*
G75*
G03*
X92250000Y-112875000I-500000J0D01*
G01*
D10*
X126700000Y-21500000D02*
G75*
G03*
X126200000Y-22000000I0J-500000D01*
G01*
X88500000Y-34900000D02*
X88500000Y-45300000D01*
X163900000Y-21500000D02*
G75*
G03*
X163400000Y-22000000I0J-500000D01*
G01*
X151500000Y-21500000D02*
X161900000Y-21500000D01*
D11*
X121625000Y-142250000D02*
G75*
G03*
X121625000Y-142250000I-500000J0D01*
G01*
D10*
X212500000Y-121700000D02*
G75*
G03*
X212000000Y-121200000I-500000J0D01*
G01*
X100400000Y-22000000D02*
G75*
G03*
X99900000Y-21500000I-500000J0D01*
G01*
X99900000Y-145500000D02*
G75*
G03*
X100400000Y-145000000I0J500000D01*
G01*
X211500000Y-145500000D02*
G75*
G03*
X212500000Y-144500000I0J1000000D01*
G01*
X212500000Y-59700000D02*
X212500000Y-70100000D01*
X126700000Y-21500000D02*
X137100000Y-21500000D01*
X112300000Y-145500000D02*
G75*
G03*
X112800000Y-145000000I0J500000D01*
G01*
X137600000Y-22000000D02*
G75*
G03*
X137100000Y-21500000I-500000J0D01*
G01*
X88500000Y-72100000D02*
X88500000Y-82500000D01*
X88500000Y-45300000D02*
G75*
G03*
X89000000Y-45800000I500000J0D01*
G01*
X88500000Y-59700000D02*
X88500000Y-70100000D01*
X212500000Y-109300000D02*
X212500000Y-119700000D01*
X114300000Y-21500000D02*
X124700000Y-21500000D01*
X88500000Y-107300000D02*
G75*
G03*
X89000000Y-107800000I500000J0D01*
G01*
X124700000Y-145500000D02*
G75*
G03*
X125200000Y-145000000I0J500000D01*
G01*
X88500000Y-119700000D02*
G75*
G03*
X89000000Y-120200000I500000J0D01*
G01*
X212500000Y-72100000D02*
X212500000Y-82500000D01*
X200600000Y-145000000D02*
G75*
G03*
X201100000Y-145500000I500000J0D01*
G01*
X138600000Y-145000000D02*
G75*
G03*
X139100000Y-145500000I500000J0D01*
G01*
X188700000Y-21500000D02*
X199100000Y-21500000D01*
X89000000Y-133600000D02*
G75*
G03*
X88500000Y-134100000I0J-500000D01*
G01*
X101900000Y-21500000D02*
G75*
G03*
X101400000Y-22000000I0J-500000D01*
G01*
X89000000Y-96400000D02*
G75*
G03*
X88500000Y-96900000I0J-500000D01*
G01*
X212000000Y-95400000D02*
G75*
G03*
X212500000Y-94900000I0J500000D01*
G01*
X88500000Y-144500000D02*
G75*
G03*
X89500000Y-145500000I1000000J0D01*
G01*
X201100000Y-21500000D02*
X211500000Y-21500000D01*
X212500000Y-22500000D02*
X212500000Y-32900000D01*
X88500000Y-134100000D02*
X88500000Y-144500000D01*
X88500000Y-109300000D02*
X88500000Y-119700000D01*
X89500000Y-21500000D02*
X99900000Y-21500000D01*
D11*
X180375000Y-24750000D02*
G75*
G03*
X180375000Y-24750000I-500000J0D01*
G01*
D10*
X114300000Y-145500000D02*
X124700000Y-145500000D01*
X113800000Y-145000000D02*
G75*
G03*
X114300000Y-145500000I500000J0D01*
G01*
D11*
X151000000Y-142250000D02*
G75*
G03*
X151000000Y-142250000I-500000J0D01*
G01*
D10*
X174300000Y-145500000D02*
G75*
G03*
X174800000Y-145000000I0J500000D01*
G01*
X212500000Y-134100000D02*
G75*
G03*
X212000000Y-133600000I-500000J0D01*
G01*
X201100000Y-21500000D02*
G75*
G03*
X200600000Y-22000000I0J-500000D01*
G01*
X101400000Y-145000000D02*
G75*
G03*
X101900000Y-145500000I500000J0D01*
G01*
X88500000Y-96900000D02*
X88500000Y-107300000D01*
D11*
X209750000Y-112875000D02*
G75*
G03*
X209750000Y-112875000I-500000J0D01*
G01*
D10*
X163900000Y-145500000D02*
X174300000Y-145500000D01*
D11*
X209750000Y-83500000D02*
G75*
G03*
X209750000Y-83500000I-500000J0D01*
G01*
D10*
X88500000Y-121700000D02*
X88500000Y-132100000D01*
X161900000Y-145500000D02*
G75*
G03*
X162400000Y-145000000I0J500000D01*
G01*
X88500000Y-82500000D02*
G75*
G03*
X89000000Y-83000000I500000J0D01*
G01*
X176300000Y-21500000D02*
G75*
G03*
X175800000Y-22000000I0J-500000D01*
G01*
D12*
X92275000Y-142250000D02*
G75*
G03*
X92275000Y-142250000I-525000J0D01*
G01*
D10*
X149500000Y-145500000D02*
G75*
G03*
X150000000Y-145000000I0J500000D01*
G01*
X212000000Y-107800000D02*
G75*
G03*
X212500000Y-107300000I0J500000D01*
G01*
X101900000Y-145500000D02*
X112300000Y-145500000D01*
X89500000Y-145500000D02*
X99900000Y-145500000D01*
X126200000Y-145000000D02*
G75*
G03*
X126700000Y-145500000I500000J0D01*
G01*
X89500000Y-21500000D02*
G75*
G03*
X88500000Y-22500000I0J-1000000D01*
G01*
X112800000Y-22000000D02*
G75*
G03*
X112300000Y-21500000I-500000J0D01*
G01*
X175800000Y-145000000D02*
G75*
G03*
X176300000Y-145500000I500000J0D01*
G01*
X88500000Y-132100000D02*
G75*
G03*
X89000000Y-132600000I500000J0D01*
G01*
D12*
X209775000Y-24750000D02*
G75*
G03*
X209775000Y-24750000I-525000J0D01*
G01*
D10*
X88500000Y-70100000D02*
G75*
G03*
X89000000Y-70600000I500000J0D01*
G01*
X176300000Y-145500000D02*
X186700000Y-145500000D01*
X151500000Y-21500000D02*
G75*
G03*
X151000000Y-22000000I0J-500000D01*
G01*
X89000000Y-108800000D02*
G75*
G03*
X88500000Y-109300000I0J-500000D01*
G01*
D11*
X180375000Y-142250000D02*
G75*
G03*
X180375000Y-142250000I-500000J0D01*
G01*
D10*
X199100000Y-145500000D02*
G75*
G03*
X199600000Y-145000000I0J500000D01*
G01*
X163400000Y-145000000D02*
G75*
G03*
X163900000Y-145500000I500000J0D01*
G01*
X212500000Y-72100000D02*
G75*
G03*
X212000000Y-71600000I-500000J0D01*
G01*
X212000000Y-132600000D02*
G75*
G03*
X212500000Y-132100000I0J500000D01*
G01*
X139100000Y-21500000D02*
X149500000Y-21500000D01*
X201100000Y-145500000D02*
X211500000Y-145500000D01*
D11*
X209750000Y-54125000D02*
G75*
G03*
X209750000Y-54125000I-500000J0D01*
G01*
D12*
X92275000Y-24750000D02*
G75*
G03*
X92275000Y-24750000I-525000J0D01*
G01*
D10*
X212500000Y-121700000D02*
X212500000Y-132100000D01*
D11*
X121625000Y-24750000D02*
G75*
G03*
X121625000Y-24750000I-500000J0D01*
G01*
D10*
X162400000Y-22000000D02*
G75*
G03*
X161900000Y-21500000I-500000J0D01*
G01*
X188700000Y-21500000D02*
G75*
G03*
X188200000Y-22000000I0J-500000D01*
G01*
X187200000Y-22000000D02*
G75*
G03*
X186700000Y-21500000I-500000J0D01*
G01*
X212000000Y-33400000D02*
G75*
G03*
X212500000Y-32900000I0J500000D01*
G01*
X212500000Y-47300000D02*
G75*
G03*
X212000000Y-46800000I-500000J0D01*
G01*
X186700000Y-145500000D02*
G75*
G03*
X187200000Y-145000000I0J500000D01*
G01*
X212500000Y-34900000D02*
X212500000Y-45300000D01*
D11*
X151000000Y-24750000D02*
G75*
G03*
X151000000Y-24750000I-500000J0D01*
G01*
D10*
X212500000Y-134100000D02*
X212500000Y-144500000D01*
X212500000Y-84500000D02*
X212500000Y-94900000D01*
D12*
X209775000Y-142250000D02*
G75*
G03*
X209775000Y-142250000I-525000J0D01*
G01*
D10*
X212000000Y-45800000D02*
G75*
G03*
X212500000Y-45300000I0J500000D01*
G01*
X188700000Y-145500000D02*
X199100000Y-145500000D01*
X89000000Y-121200000D02*
G75*
G03*
X88500000Y-121700000I0J-500000D01*
G01*
X89000000Y-59200000D02*
G75*
G03*
X88500000Y-59700000I0J-500000D01*
G01*
X88500000Y-22500000D02*
X88500000Y-32900000D01*
X212000000Y-70600000D02*
G75*
G03*
X212500000Y-70100000I0J500000D01*
G01*
X212500000Y-96900000D02*
X212500000Y-107300000D01*
X88500000Y-94900000D02*
G75*
G03*
X89000000Y-95400000I500000J0D01*
G01*
D11*
X92250000Y-83500000D02*
G75*
G03*
X92250000Y-83500000I-500000J0D01*
G01*
D10*
X212000000Y-83000000D02*
G75*
G03*
X212500000Y-82500000I0J500000D01*
G01*
X150000000Y-22000000D02*
G75*
G03*
X149500000Y-21500000I-500000J0D01*
G01*
X212500000Y-109300000D02*
G75*
G03*
X212000000Y-108800000I-500000J0D01*
G01*
X88500000Y-47300000D02*
X88500000Y-57700000D01*
X151000000Y-145000000D02*
G75*
G03*
X151500000Y-145500000I500000J0D01*
G01*
X212500000Y-96900000D02*
G75*
G03*
X212000000Y-96400000I-500000J0D01*
G01*
X101900000Y-21500000D02*
X112300000Y-21500000D01*
X176300000Y-21500000D02*
X186700000Y-21500000D01*
X199600000Y-22000000D02*
G75*
G03*
X199100000Y-21500000I-500000J0D01*
G01*
X163900000Y-21500000D02*
X174300000Y-21500000D01*
X212500000Y-34900000D02*
G75*
G03*
X212000000Y-34400000I-500000J0D01*
G01*
X88500000Y-84500000D02*
X88500000Y-94900000D01*
X126700000Y-145500000D02*
X137100000Y-145500000D01*
X125200000Y-22000000D02*
G75*
G03*
X124700000Y-21500000I-500000J0D01*
G01*
X151500000Y-145500000D02*
X161900000Y-145500000D01*
X212500000Y-47300000D02*
X212500000Y-57700000D01*
D13*
G04 #@! TO.C,C1*
X130835400Y-91644400D03*
X130835400Y-98144400D03*
G04 #@! TD*
D14*
G04 #@! TO.C,C2*
X122062500Y-90900000D03*
X123937500Y-90900000D03*
G04 #@! TD*
D15*
G04 #@! TO.C,C3*
X162260000Y-74178500D03*
X162260000Y-76053500D03*
G04 #@! TD*
G04 #@! TO.C,C4*
X155910000Y-74178500D03*
X155910000Y-76053500D03*
G04 #@! TD*
G04 #@! TO.C,C5*
X163322000Y-88216500D03*
X163322000Y-90091500D03*
G04 #@! TD*
D14*
G04 #@! TO.C,C7*
X153037300Y-78867000D03*
X154912300Y-78867000D03*
G04 #@! TD*
D16*
G04 #@! TO.C,C8*
X144754600Y-79906100D03*
X144754600Y-78031100D03*
G04 #@! TD*
D17*
G04 #@! TO.C,D1*
X162814000Y-98174000D03*
X162814000Y-95374000D03*
G04 #@! TD*
D16*
G04 #@! TO.C,D2*
X147320000Y-75887500D03*
X147320000Y-74012500D03*
G04 #@! TD*
G04 #@! TO.C,D3*
X144780000Y-75887500D03*
X144780000Y-74012500D03*
G04 #@! TD*
D18*
G04 #@! TO.C,F1*
X165756500Y-77216000D03*
X170031500Y-77216000D03*
G04 #@! TD*
D19*
G04 #@! TO.C,FB1*
X168831500Y-90678000D03*
X166956500Y-90678000D03*
G04 #@! TD*
D20*
G04 #@! TO.C,J1*
X123100000Y-75700000D03*
X129100000Y-75700000D03*
X129100000Y-86700000D03*
X123100000Y-86700000D03*
G04 #@! TD*
D14*
G04 #@! TO.C,R1*
X165432500Y-86106000D03*
X167307500Y-86106000D03*
G04 #@! TD*
G04 #@! TO.C,R2*
X165432500Y-83820000D03*
X167307500Y-83820000D03*
G04 #@! TD*
D19*
G04 #@! TO.C,R3*
X159895500Y-75878000D03*
X158020500Y-75878000D03*
G04 #@! TD*
D16*
G04 #@! TO.C,R4*
X159004000Y-96695500D03*
X159004000Y-94820500D03*
G04 #@! TD*
D15*
G04 #@! TO.C,R5*
X144754600Y-81866500D03*
X144754600Y-83741500D03*
G04 #@! TD*
G04 #@! TO.C,R6*
X147320000Y-69237300D03*
X147320000Y-71112300D03*
G04 #@! TD*
G04 #@! TO.C,R7*
X144780000Y-69237300D03*
X144780000Y-71112300D03*
G04 #@! TD*
D21*
G04 #@! TO.C,VR1*
X170434000Y-86563000D03*
X170434000Y-88138000D03*
G04 #@! TD*
D22*
G04 #@! TO.C,Y1*
X160977800Y-70027800D03*
X156877800Y-70027800D03*
G04 #@! TD*
D23*
G04 #@! TO.C,U1*
X157232000Y-81602000D03*
X156432000Y-81602000D03*
X155632000Y-81602000D03*
X154832000Y-81602000D03*
X154032000Y-81602000D03*
X153232000Y-81602000D03*
X152432000Y-81602000D03*
X151632000Y-81602000D03*
D24*
X150182000Y-83052000D03*
X150182000Y-83852000D03*
X150182000Y-84652000D03*
X150182000Y-85452000D03*
X150182000Y-86252000D03*
X150182000Y-87052000D03*
X150182000Y-87852000D03*
X150182000Y-88652000D03*
D23*
X151632000Y-90102000D03*
X152432000Y-90102000D03*
X153232000Y-90102000D03*
X154032000Y-90102000D03*
X154832000Y-90102000D03*
X155632000Y-90102000D03*
X156432000Y-90102000D03*
X157232000Y-90102000D03*
D24*
X158682000Y-88652000D03*
X158682000Y-87852000D03*
X158682000Y-87052000D03*
X158682000Y-86252000D03*
X158682000Y-85452000D03*
X158682000Y-84652000D03*
X158682000Y-83852000D03*
X158682000Y-83052000D03*
G04 #@! TD*
D25*
G04 #@! TO.C,VR2*
X170434000Y-83108900D03*
X170434000Y-81533900D03*
G04 #@! TD*
D16*
G04 #@! TO.C,C6*
X162382200Y-83004900D03*
X162382200Y-81129900D03*
G04 #@! TD*
M02*
