<?xml version="1.0" standalone="no"?>
 <!DOCTYPE svg PUBLIC "-//W3C//DTD SVG 1.1//EN" 
 "http://www.w3.org/Graphics/SVG/1.1/DTD/svg11.dtd"> 
<svg
  xmlns:svg="http://www.w3.org/2000/svg"
  xmlns="http://www.w3.org/2000/svg"
  xmlns:xlink="http://www.w3.org/1999/xlink"
  version="1.1"
  width="29.700220cm" height="21.000720cm" viewBox="0 0 297002200 210007200">
<title>SVG Picture created as t1-B_Silkscreen.svg date 2022/12/16 10:54:59 </title>
  <desc>Picture generated by PCBNEW </desc>
<g style="fill:#000000; fill-opacity:1.000000;stroke:#000000; stroke-opacity:1.000000;
stroke-linecap:round; stroke-linejoin:round;"
 transform="translate(0 0) scale(1 1)">
</g>
<g style="fill:#000000; fill-opacity:0.0; 
stroke:#000000; stroke-width:0.000000; stroke-opacity:1; 
stroke-linecap:round; stroke-linejoin:round;">
</g>
<g style="fill:#000000; fill-opacity:0.0; 
stroke:#000000; stroke-width:150000.000000; stroke-opacity:1; 
stroke-linecap:round; stroke-linejoin:round;">
<text x="168275000.000000" y="87706000.000000"
transform="scale(-1 1) translate(-336550000.000000 0)"
textLength="17424048.000000" font-size="1333333.000000" lengthAdjust="spacingAndGlyphs"
text-anchor="middle" opacity="0">KiBot variants example</text>
<g class="stroked-text"><desc>KiBot variants example</desc>
<path d="M159703572 87658380
L159703572 86658380
" />
<path d="M160275000 87658380
L159846429 87086952
" />
<path d="M160275000 86658380
L159703572 87229809
" />
<path d="M160703572 87658380
L160703572 86991714
" />
<path d="M160703572 86658380
L160655953 86706000
L160703572 86753619
L160751191 86706000
L160703572 86658380
L160703572 86753619
" />
<path d="M161513096 87134571
L161655953 87182190
L161703572 87229809
L161751191 87325047
L161751191 87467904
L161703572 87563142
L161655953 87610761
L161560715 87658380
L161179762 87658380
L161179762 86658380
L161513096 86658380
L161608334 86706000
L161655953 86753619
L161703572 86848857
L161703572 86944095
L161655953 87039333
L161608334 87086952
L161513096 87134571
L161179762 87134571
" />
<path d="M162322620 87658380
L162227381 87610761
L162179762 87563142
L162132143 87467904
L162132143 87182190
L162179762 87086952
L162227381 87039333
L162322620 86991714
L162465477 86991714
L162560715 87039333
L162608334 87086952
L162655953 87182190
L162655953 87467904
L162608334 87563142
L162560715 87610761
L162465477 87658380
L162322620 87658380
" />
<path d="M162941667 86991714
L163322620 86991714
" />
<path d="M163084524 86658380
L163084524 87515523
L163132143 87610761
L163227381 87658380
L163322620 87658380
" />
<path d="M164322620 86991714
L164560715 87658380
L164798810 86991714
" />
<path d="M165608334 87658380
L165608334 87134571
L165560715 87039333
L165465477 86991714
L165275000 86991714
L165179762 87039333
" />
<path d="M165608334 87610761
L165513096 87658380
L165275000 87658380
L165179762 87610761
L165132143 87515523
L165132143 87420285
L165179762 87325047
L165275000 87277428
L165513096 87277428
L165608334 87229809
" />
<path d="M166084524 87658380
L166084524 86991714
" />
<path d="M166084524 87182190
L166132143 87086952
L166179762 87039333
L166275000 86991714
L166370239 86991714
" />
<path d="M166703572 87658380
L166703572 86991714
" />
<path d="M166703572 86658380
L166655953 86706000
L166703572 86753619
L166751191 86706000
L166703572 86658380
L166703572 86753619
" />
<path d="M167608334 87658380
L167608334 87134571
L167560715 87039333
L167465477 86991714
L167275000 86991714
L167179762 87039333
" />
<path d="M167608334 87610761
L167513096 87658380
L167275000 87658380
L167179762 87610761
L167132143 87515523
L167132143 87420285
L167179762 87325047
L167275000 87277428
L167513096 87277428
L167608334 87229809
" />
<path d="M168084524 86991714
L168084524 87658380
" />
<path d="M168084524 87086952
L168132143 87039333
L168227381 86991714
L168370239 86991714
L168465477 87039333
L168513096 87134571
L168513096 87658380
" />
<path d="M168846429 86991714
L169227381 86991714
" />
<path d="M168989286 86658380
L168989286 87515523
L169036905 87610761
L169132143 87658380
L169227381 87658380
" />
<path d="M169513096 87610761
L169608334 87658380
L169798810 87658380
L169894048 87610761
L169941667 87515523
L169941667 87467904
L169894048 87372666
L169798810 87325047
L169655953 87325047
L169560715 87277428
L169513096 87182190
L169513096 87134571
L169560715 87039333
L169655953 86991714
L169798810 86991714
L169894048 87039333
" />
<path d="M171513096 87610761
L171417858 87658380
L171227381 87658380
L171132143 87610761
L171084524 87515523
L171084524 87134571
L171132143 87039333
L171227381 86991714
L171417858 86991714
L171513096 87039333
L171560715 87134571
L171560715 87229809
L171084524 87325047
" />
<path d="M171894048 87658380
L172417858 86991714
" />
<path d="M171894048 86991714
L172417858 87658380
" />
<path d="M173227381 87658380
L173227381 87134571
L173179762 87039333
L173084524 86991714
L172894048 86991714
L172798810 87039333
" />
<path d="M173227381 87610761
L173132143 87658380
L172894048 87658380
L172798810 87610761
L172751191 87515523
L172751191 87420285
L172798810 87325047
L172894048 87277428
L173132143 87277428
L173227381 87229809
" />
<path d="M173703572 87658380
L173703572 86991714
" />
<path d="M173703572 87086952
L173751191 87039333
L173846429 86991714
L173989286 86991714
L174084524 87039333
L174132143 87134571
L174132143 87658380
" />
<path d="M174132143 87134571
L174179762 87039333
L174275000 86991714
L174417858 86991714
L174513096 87039333
L174560715 87134571
L174560715 87658380
" />
<path d="M175036905 86991714
L175036905 87991714
" />
<path d="M175036905 87039333
L175132143 86991714
L175322620 86991714
L175417858 87039333
L175465477 87086952
L175513096 87182190
L175513096 87467904
L175465477 87563142
L175417858 87610761
L175322620 87658380
L175132143 87658380
L175036905 87610761
" />
<path d="M176084524 87658380
L175989286 87610761
L175941667 87515523
L175941667 86658380
" />
<path d="M176846429 87610761
L176751191 87658380
L176560715 87658380
L176465477 87610761
L176417858 87515523
L176417858 87134571
L176465477 87039333
L176560715 86991714
L176751191 86991714
L176846429 87039333
L176894048 87134571
L176894048 87229809
L176417858 87325047
" />
</g><text x="168275000.000000" y="89316000.000000"
transform="scale(-1 1) translate(-336550000.000000 0)"
textLength="15852619.000000" font-size="1333333.000000" lengthAdjust="spacingAndGlyphs"
text-anchor="middle" opacity="0">Not a real life board</text>
<g class="stroked-text"><desc>Not a real life board</desc>
<path d="M160489286 89268380
L160489286 88268380
L161060715 89268380
L161060715 88268380
" />
<path d="M161679762 89268380
L161584524 89220761
L161536905 89173142
L161489286 89077904
L161489286 88792190
L161536905 88696952
L161584524 88649333
L161679762 88601714
L161822620 88601714
L161917858 88649333
L161965477 88696952
L162013096 88792190
L162013096 89077904
L161965477 89173142
L161917858 89220761
L161822620 89268380
L161679762 89268380
" />
<path d="M162298810 88601714
L162679762 88601714
" />
<path d="M162441667 88268380
L162441667 89125523
L162489286 89220761
L162584524 89268380
L162679762 89268380
" />
<path d="M164203572 89268380
L164203572 88744571
L164155953 88649333
L164060715 88601714
L163870239 88601714
L163775000 88649333
" />
<path d="M164203572 89220761
L164108334 89268380
L163870239 89268380
L163775000 89220761
L163727381 89125523
L163727381 89030285
L163775000 88935047
L163870239 88887428
L164108334 88887428
L164203572 88839809
" />
<path d="M165441667 89268380
L165441667 88601714
" />
<path d="M165441667 88792190
L165489286 88696952
L165536905 88649333
L165632143 88601714
L165727381 88601714
" />
<path d="M166441667 89220761
L166346429 89268380
L166155953 89268380
L166060715 89220761
L166013096 89125523
L166013096 88744571
L166060715 88649333
L166155953 88601714
L166346429 88601714
L166441667 88649333
L166489286 88744571
L166489286 88839809
L166013096 88935047
" />
<path d="M167346429 89268380
L167346429 88744571
L167298810 88649333
L167203572 88601714
L167013096 88601714
L166917858 88649333
" />
<path d="M167346429 89220761
L167251191 89268380
L167013096 89268380
L166917858 89220761
L166870239 89125523
L166870239 89030285
L166917858 88935047
L167013096 88887428
L167251191 88887428
L167346429 88839809
" />
<path d="M167965477 89268380
L167870239 89220761
L167822620 89125523
L167822620 88268380
" />
<path d="M169251191 89268380
L169155953 89220761
L169108334 89125523
L169108334 88268380
" />
<path d="M169632143 89268380
L169632143 88601714
" />
<path d="M169632143 88268380
L169584524 88316000
L169632143 88363619
L169679762 88316000
L169632143 88268380
L169632143 88363619
" />
<path d="M169965477 88601714
L170346429 88601714
" />
<path d="M170108334 89268380
L170108334 88411238
L170155953 88316000
L170251191 88268380
L170346429 88268380
" />
<path d="M171060715 89220761
L170965477 89268380
L170775000 89268380
L170679762 89220761
L170632143 89125523
L170632143 88744571
L170679762 88649333
L170775000 88601714
L170965477 88601714
L171060715 88649333
L171108334 88744571
L171108334 88839809
L170632143 88935047
" />
<path d="M172298810 89268380
L172298810 88268380
" />
<path d="M172298810 88649333
L172394048 88601714
L172584524 88601714
L172679762 88649333
L172727381 88696952
L172775000 88792190
L172775000 89077904
L172727381 89173142
L172679762 89220761
L172584524 89268380
L172394048 89268380
L172298810 89220761
" />
<path d="M173346429 89268380
L173251191 89220761
L173203572 89173142
L173155953 89077904
L173155953 88792190
L173203572 88696952
L173251191 88649333
L173346429 88601714
L173489286 88601714
L173584524 88649333
L173632143 88696952
L173679762 88792190
L173679762 89077904
L173632143 89173142
L173584524 89220761
L173489286 89268380
L173346429 89268380
" />
<path d="M174536905 89268380
L174536905 88744571
L174489286 88649333
L174394048 88601714
L174203572 88601714
L174108334 88649333
" />
<path d="M174536905 89220761
L174441667 89268380
L174203572 89268380
L174108334 89220761
L174060715 89125523
L174060715 89030285
L174108334 88935047
L174203572 88887428
L174441667 88887428
L174536905 88839809
" />
<path d="M175013096 89268380
L175013096 88601714
" />
<path d="M175013096 88792190
L175060715 88696952
L175108334 88649333
L175203572 88601714
L175298810 88601714
" />
<path d="M176060715 89268380
L176060715 88268380
" />
<path d="M176060715 89220761
L175965477 89268380
L175775000 89268380
L175679762 89220761
L175632143 89173142
L175584524 89077904
L175584524 88792190
L175632143 88696952
L175679762 88649333
L175775000 88601714
L175965477 88601714
L176060715 88649333
" />
</g><text x="129387600.000000" y="82491200.000000"
transform="scale(-1 1) translate(-258775200.000000 0)"
textLength="2519286.000000" font-size="1333333.000000" lengthAdjust="spacingAndGlyphs"
text-anchor="middle" opacity="0">TP2</text>
<g class="stroked-text"><desc>TP2</desc>
<path d="M128125696 81443580
L128697124 81443580
" />
<path d="M128411410 82443580
L128411410 81443580
" />
<path d="M129030458 82443580
L129030458 81443580
L129411410 81443580
L129506648 81491200
L129554267 81538819
L129601886 81634057
L129601886 81776914
L129554267 81872152
L129506648 81919771
L129411410 81967390
L129030458 81967390
" />
<path d="M129982839 81538819
L130030458 81491200
L130125696 81443580
L130363791 81443580
L130459029 81491200
L130506648 81538819
L130554267 81634057
L130554267 81729295
L130506648 81872152
L129935220 82443580
L130554267 82443580
" />
</g><text x="121158000.000000" y="80129000.000000"
transform="scale(-1 1) translate(-242316000.000000 0)"
textLength="2519286.000000" font-size="1333333.000000" lengthAdjust="spacingAndGlyphs"
text-anchor="middle" opacity="0">TP3</text>
<g class="stroked-text"><desc>TP3</desc>
<path d="M119896096 79081380
L120467524 79081380
" />
<path d="M120181810 80081380
L120181810 79081380
" />
<path d="M120800858 80081380
L120800858 79081380
L121181810 79081380
L121277048 79129000
L121324667 79176619
L121372286 79271857
L121372286 79414714
L121324667 79509952
L121277048 79557571
L121181810 79605190
L120800858 79605190
" />
<path d="M121705620 79081380
L122324667 79081380
L121991334 79462333
L122134191 79462333
L122229429 79509952
L122277048 79557571
L122324667 79652809
L122324667 79890904
L122277048 79986142
L122229429 80033761
L122134191 80081380
L121848477 80081380
L121753239 80033761
L121705620 79986142
" />
</g><text x="118033800.000000" y="82999200.000000"
transform="scale(-1 1) translate(-236067600.000000 0)"
textLength="2519286.000000" font-size="1333333.000000" lengthAdjust="spacingAndGlyphs"
text-anchor="middle" opacity="0">TP4</text>
<g class="stroked-text"><desc>TP4</desc>
<path d="M116771896 81951580
L117343324 81951580
" />
<path d="M117057610 82951580
L117057610 81951580
" />
<path d="M117676658 82951580
L117676658 81951580
L118057610 81951580
L118152848 81999200
L118200467 82046819
L118248086 82142057
L118248086 82284914
L118200467 82380152
L118152848 82427771
L118057610 82475390
L117676658 82475390
" />
<path d="M119105229 82284914
L119105229 82951580
" />
<path d="M118867134 81903961
L118629039 82618247
L119248086 82618247
" />
</g><text x="117957600.000000" y="86377400.000000"
transform="scale(-1 1) translate(-235915200.000000 0)"
textLength="2519286.000000" font-size="1333333.000000" lengthAdjust="spacingAndGlyphs"
text-anchor="middle" opacity="0">TP5</text>
<g class="stroked-text"><desc>TP5</desc>
<path d="M116695696 85329780
L117267124 85329780
" />
<path d="M116981410 86329780
L116981410 85329780
" />
<path d="M117600458 86329780
L117600458 85329780
L117981410 85329780
L118076648 85377400
L118124267 85425019
L118171886 85520257
L118171886 85663114
L118124267 85758352
L118076648 85805971
L117981410 85853590
L117600458 85853590
" />
<path d="M119076648 85329780
L118600458 85329780
L118552839 85805971
L118600458 85758352
L118695696 85710733
L118933791 85710733
L119029029 85758352
L119076648 85805971
L119124267 85901209
L119124267 86139304
L119076648 86234542
L119029029 86282161
L118933791 86329780
L118695696 86329780
L118600458 86282161
L118552839 86234542
" />
</g><text x="132664200.000000" y="72458200.000000"
transform="scale(-1 1) translate(-265328400.000000 0)"
textLength="2519286.000000" font-size="1333333.000000" lengthAdjust="spacingAndGlyphs"
text-anchor="middle" opacity="0">TP6</text>
<g class="stroked-text"><desc>TP6</desc>
<path d="M131402296 71410580
L131973724 71410580
" />
<path d="M131688010 72410580
L131688010 71410580
" />
<path d="M132307058 72410580
L132307058 71410580
L132688010 71410580
L132783248 71458200
L132830867 71505819
L132878486 71601057
L132878486 71743914
L132830867 71839152
L132783248 71886771
L132688010 71934390
L132307058 71934390
" />
<path d="M133735629 71410580
L133545153 71410580
L133449915 71458200
L133402296 71505819
L133307058 71648676
L133259439 71839152
L133259439 72220104
L133307058 72315342
L133354677 72362961
L133449915 72410580
L133640391 72410580
L133735629 72362961
L133783248 72315342
L133830867 72220104
L133830867 71982009
L133783248 71886771
L133735629 71839152
L133640391 71791533
L133449915 71791533
L133354677 71839152
L133307058 71886771
L133259439 71982009
" />
</g><text x="143560800.000000" y="72458200.000000"
transform="scale(-1 1) translate(-287121600.000000 0)"
textLength="2519286.000000" font-size="1333333.000000" lengthAdjust="spacingAndGlyphs"
text-anchor="middle" opacity="0">TP8</text>
<g class="stroked-text"><desc>TP8</desc>
<path d="M142298896 71410580
L142870324 71410580
" />
<path d="M142584610 72410580
L142584610 71410580
" />
<path d="M143203658 72410580
L143203658 71410580
L143584610 71410580
L143679848 71458200
L143727467 71505819
L143775086 71601057
L143775086 71743914
L143727467 71839152
L143679848 71886771
L143584610 71934390
L143203658 71934390
" />
<path d="M144346515 71839152
L144251277 71791533
L144203658 71743914
L144156039 71648676
L144156039 71601057
L144203658 71505819
L144251277 71458200
L144346515 71410580
L144536991 71410580
L144632229 71458200
L144679848 71505819
L144727467 71601057
L144727467 71648676
L144679848 71743914
L144632229 71791533
L144536991 71839152
L144346515 71839152
L144251277 71886771
L144203658 71934390
L144156039 72029628
L144156039 72220104
L144203658 72315342
L144251277 72362961
L144346515 72410580
L144536991 72410580
L144632229 72362961
L144679848 72315342
L144727467 72220104
L144727467 72029628
L144679848 71934390
L144632229 71886771
L144536991 71839152
" />
</g><text x="141071600.000000" y="86961600.000000"
transform="scale(-1 1) translate(-282143200.000000 0)"
textLength="2519286.000000" font-size="1333333.000000" lengthAdjust="spacingAndGlyphs"
text-anchor="middle" opacity="0">TP9</text>
<g class="stroked-text"><desc>TP9</desc>
<path d="M139809696 85913980
L140381124 85913980
" />
<path d="M140095410 86913980
L140095410 85913980
" />
<path d="M140714458 86913980
L140714458 85913980
L141095410 85913980
L141190648 85961600
L141238267 86009219
L141285886 86104457
L141285886 86247314
L141238267 86342552
L141190648 86390171
L141095410 86437790
L140714458 86437790
" />
<path d="M141762077 86913980
L141952553 86913980
L142047791 86866361
L142095410 86818742
L142190648 86675885
L142238267 86485409
L142238267 86104457
L142190648 86009219
L142143029 85961600
L142047791 85913980
L141857315 85913980
L141762077 85961600
L141714458 86009219
L141666839 86104457
L141666839 86342552
L141714458 86437790
L141762077 86485409
L141857315 86533028
L142047791 86533028
L142143029 86485409
L142190648 86437790
L142238267 86342552
" />
</g></g>
<g style="fill:#000000; fill-opacity:0.0; 
stroke:#000000; stroke-width:120000.000000; stroke-opacity:1; 
stroke-linecap:round; stroke-linejoin:round;">
<circle cx="129209800.000000" cy="80162400.000000" r="700000.000000" /> 
<circle cx="123520200.000000" cy="78486000.000000" r="700000.000000" /> 
<circle cx="117932200.000000" cy="80772000.000000" r="700000.000000" /> 
<circle cx="117932200.000000" cy="84074000.000000" r="700000.000000" /> 
<circle cx="132715000.000000" cy="70053200.000000" r="700000.000000" /> 
<circle cx="143510000.000000" cy="70027800.000000" r="700000.000000" /> 
<circle cx="141046200.000000" cy="84582000.000000" r="700000.000000" /> 
</g>
<g style="fill:#000000; fill-opacity:1.0; 
stroke:#000000; stroke-width:10000.000000; stroke-opacity:1; 
stroke-linecap:round; stroke-linejoin:round;">
<path style="fill:#000000; fill-opacity:1.0; 
stroke:#000000; stroke-width:10000.000000; stroke-opacity:1; 
stroke-linecap:round; stroke-linejoin:round;fill-rule:evenodd;"
d="M 125088597.000000,95072653.000000
125095895.000000,95167754.000000
125108327.000000,95235160.000000
125128857.000000,95288570.000000
125160449.000000,95341685.000000
125161794.000000,95343699.000000
125239584.000000,95429755.000000
125334762.000000,95495391.000000
125445440.000000,95534339.000000
125591037.000000,95546985.000000
125733737.000000,95522119.000000
125861291.000000,95462198.000000
125961447.000000,95369681.000000
125990201.000000,95325967.000000
126043899.000000,95190073.000000
126070530.000000,95022408.000000
126070075.000000,94979997.000000
125802437.000000,94979997.000000
125801933.000000,95059314.000000
125793523.000000,95112267.000000
125774362.000000,95152956.000000
125741602.000000,95195479.000000
125696142.000000,95237676.000000
125605220.000000,95275333.000000
125507592.000000,95268338.000000
125414286.000000,95216002.000000
125387966.000000,95191006.000000
125359864.000000,95148214.000000
125344280.000000,95088068.000000
125335447.000000,94994348.000000
125333014.000000,94923944.000000
125346344.000000,94780168.000000
125387253.000000,94677231.000000
125455919.000000,94614567.000000
125536411.000000,94584560.000000
125632406.000000,94587086.000000
125721389.000000,94637746.000000
125742662.000000,94657031.000000
125769507.000000,94690774.000000
125785434.000000,94734920.000000
125794271.000000,94802601.000000
125799845.000000,94906950.000000
125802437.000000,94979997.000000
126070075.000000,94979997.000000
126068476.000000,94831126.000000
126065855.000000,94803996.000000
126029282.000000,94630229.000000
125961619.000000,94495334.000000
125862722.000000,94399163.000000
125732447.000000,94341568.000000
125570650.000000,94322402.000000
125509521.000000,94324201.000000
125384161.000000,94346211.000000
125281654.000000,94398746.000000
125186085.000000,94488686.000000
125170800.000000,94506737.000000
125129576.000000,94567530.000000
125102483.000000,94636367.000000
125087460.000000,94723600.000000
125082446.000000,94839582.000000
125084044.000000,94923944.000000
125085382.000000,94994666.000000
Z" /> 
<path style="fill:#000000; fill-opacity:1.0; 
stroke:#000000; stroke-width:10000.000000; stroke-opacity:1; 
stroke-linecap:round; stroke-linejoin:round;fill-rule:evenodd;"
d="M 133174690.000000,94716245.000000
133172589.000000,94890624.000000
133164367.000000,95031460.000000
133147709.000000,95133825.000000
133120309.000000,95203458.000000
133079857.000000,95246093.000000
133024048.000000,95267468.000000
132950572.000000,95273318.000000
132880417.000000,95268097.000000
132823757.000000,95247659.000000
132782574.000000,95206254.000000
132754560.000000,95138147.000000
132737407.000000,95037600.000000
132728808.000000,94898879.000000
132726454.000000,94716245.000000
132726454.000000,94328628.000000
132477435.000000,94328628.000000
132477435.000000,94795928.000000
132477862.000000,94920659.000000
132481182.000000,95081955.000000
132489513.000000,95204965.000000
132504874.000000,95296729.000000
132529281.000000,95364291.000000
132564753.000000,95414691.000000
132613308.000000,95454971.000000
132676965.000000,95492174.000000
132810638.000000,95539270.000000
132950145.000000,95542342.000000
133081676.000000,95498971.000000
133139065.000000,95470857.000000
133167536.000000,95466654.000000
133174690.000000,95486520.000000
133186568.000000,95508826.000000
133229084.000000,95520576.000000
133311651.000000,95523922.000000
133448611.000000,95523922.000000
133448611.000000,94328628.000000
133174690.000000,94328628.000000
Z" /> 
<path style="fill:#000000; fill-opacity:1.0; 
stroke:#000000; stroke-width:10000.000000; stroke-opacity:1; 
stroke-linecap:round; stroke-linejoin:round;fill-rule:evenodd;"
d="M 135476840.000000,95036632.000000
135477257.000000,95040380.000000
135513061.000000,95215271.000000
135577751.000000,95351247.000000
135673341.000000,95451296.000000
135801847.000000,95518405.000000
135825436.000000,95526079.000000
135971649.000000,95548696.000000
136122866.000000,95536084.000000
136263450.000000,95491017.000000
136377763.000000,95416269.000000
136463388.000000,95337157.000000
136372373.000000,95265191.000000
136281358.000000,95193224.000000
136171672.000000,95246514.000000
136044755.000000,95289695.000000
135932712.000000,95290987.000000
135841043.000000,95251314.000000
135775077.000000,95171683.000000
135751429.000000,95123968.000000
135738228.000000,95083189.000000
135745866.000000,95055641.000000
135780137.000000,95038731.000000
135846832.000000,95029864.000000
135951746.000000,95026445.000000
136100670.000000,95025882.000000
136461749.000000,95025882.000000
136461749.000000,94853190.000000
136459051.000000,94777376.000000
136204815.000000,94777376.000000
136192605.000000,94791321.000000
136156452.000000,94798578.000000
136087737.000000,94801332.000000
135977838.000000,94801765.000000
135918906.000000,94801073.000000
135825910.000000,94796500.000000
135762827.000000,94788491.000000
135739592.000000,94778035.000000
135745537.000000,94739456.000000
135787438.000000,94665634.000000
135857262.000000,94604990.000000
135940501.000000,94568362.000000
136022646.000000,94566589.000000
136084479.000000,94595960.000000
136154544.000000,94662800.000000
136199094.000000,94745735.000000
136201704.000000,94754562.000000
136204815.000000,94777376.000000
136459051.000000,94777376.000000
136458498.000000,94761853.000000
136448954.000000,94671484.000000
136435319.000000,94610396.000000
136425380.000000,94587074.000000
136353034.000000,94483202.000000
136248500.000000,94396569.000000
136126251.000000,94339845.000000
136062487.000000,94324355.000000
135910555.000000,94317304.000000
135775178.000000,94353174.000000
135660078.000000,94427974.000000
135568973.000000,94537711.000000
135505585.000000,94678395.000000
135486593.000000,94778035.000000
135473634.000000,94846032.000000
Z" /> 
<path style="fill:#000000; fill-opacity:1.0; 
stroke:#000000; stroke-width:10000.000000; stroke-opacity:1; 
stroke-linecap:round; stroke-linejoin:round;fill-rule:evenodd;"
d="M 126382680.000000,97411547.000000
126513415.000000,97404020.000000
126519631.000000,97005588.000000
126521470.000000,96908704.000000
126526690.000000,96763146.000000
126535650.000000,96656334.000000
126549997.000000,96581087.000000
126571379.000000,96530227.000000
126601441.000000,96496574.000000
126641833.000000,96472947.000000
126717622.000000,96448818.000000
126792993.000000,96458194.000000
126872583.000000,96509763.000000
126949200.000000,96574231.000000
126949200.000000,97416471.000000
127223121.000000,97416471.000000
127223121.000000,96959701.000000
127222858.000000,96816531.000000
127221401.000000,96689309.000000
127217899.000000,96596184.000000
127211503.000000,96528713.000000
127201365.000000,96478454.000000
127186637.000000,96436966.000000
127166471.000000,96395805.000000
127161690.000000,96387066.000000
127098099.000000,96301954.000000
127023673.000000,96242476.000000
126933945.000000,96211245.000000
126815128.000000,96197342.000000
126696141.000000,96204872.000000
126599335.000000,96234267.000000
126525866.000000,96272259.000000
126525866.000000,95450015.000000
126626533.000000,95502486.000000
126668584.000000,95521549.000000
126801314.000000,95548506.000000
126933221.000000,95529874.000000
127055495.000000,95467929.000000
127159328.000000,95364943.000000
127175594.000000,95340738.000000
127191227.000000,95305256.000000
127201424.000000,95257015.000000
127207312.000000,95186757.000000
127210018.000000,95085221.000000
127210504.000000,94979428.000000
126947441.000000,94979428.000000
126947219.000000,95067779.000000
126940465.000000,95126700.000000
126925284.000000,95168752.000000
126899783.000000,95206499.000000
126867389.000000,95241594.000000
126815586.000000,95268154.000000
126737533.000000,95274902.000000
126668582.000000,95269029.000000
126600335.000000,95239641.000000
126556382.000000,95180107.000000
126532850.000000,95084423.000000
126525866.000000,94946582.000000
126527672.000000,94873254.000000
126545699.000000,94734833.000000
126582892.000000,94641233.000000
126639041.000000,94593116.000000
126695751.000000,94579579.000000
126794514.000000,94585925.000000
126877960.000000,94625223.000000
126897932.000000,94643244.000000
126919095.000000,94674422.000000
126932179.000000,94720833.000000
126939949.000000,94794000.000000
126945168.000000,94905448.000000
126947441.000000,94979428.000000
127210504.000000,94979428.000000
127210670.000000,94943149.000000
127210447.000000,94878324.000000
127206630.000000,94727538.000000
127195997.000000,94614896.000000
127175865.000000,94531885.000000
127143547.000000,94469991.000000
127096358.000000,94420700.000000
127031612.000000,94375499.000000
126979109.000000,94349560.000000
126854629.000000,94320953.000000
126723419.000000,94324851.000000
126606798.000000,94361935.000000
126556747.000000,94386176.000000
126531574.000000,94388681.000000
126525866.000000,94366620.000000
126525861.000000,94365952.000000
126513560.000000,94343426.000000
126471135.000000,94331879.000000
126388905.000000,94328628.000000
126251945.000000,94328628.000000
126251945.000000,97419073.000000
Z" /> 
<path style="fill:#000000; fill-opacity:1.0; 
stroke:#000000; stroke-width:10000.000000; stroke-opacity:1; 
stroke-linecap:round; stroke-linejoin:round;fill-rule:evenodd;"
d="M 127378359.000000,97087844.000000
127408703.000000,97215772.000000
127476198.000000,97311986.000000
127584200.000000,97381318.000000
127640011.000000,97398186.000000
127735607.000000,97411333.000000
127840145.000000,97414472.000000
127934462.000000,97407237.000000
127999392.000000,97389262.000000
128038830.000000,97374864.000000
128077442.000000,97389262.000000
128091566.000000,97397604.000000
128147939.000000,97411131.000000
128224180.000000,97416471.000000
128343709.000000,97416471.000000
128343709.000000,96989278.000000
128069788.000000,96989278.000000
128060581.000000,97062143.000000
128024249.000000,97126239.000000
128003456.000000,97140110.000000
127929242.000000,97161731.000000
127836590.000000,97167129.000000
127745732.000000,97156162.000000
127676897.000000,97128686.000000
127642605.000000,97092358.000000
127621553.000000,97027808.000000
127640223.000000,96976639.000000
127701941.000000,96932148.000000
127801153.000000,96903605.000000
127932027.000000,96893530.000000
128069788.000000,96893530.000000
128069788.000000,96989278.000000
128343709.000000,96989278.000000
128343709.000000,96934565.000000
128343700.000000,96892890.000000
128343246.000000,96735810.000000
128341542.000000,96619029.000000
128337815.000000,96534788.000000
128331289.000000,96475329.000000
128321192.000000,96432891.000000
128306748.000000,96399716.000000
128287184.000000,96368045.000000
128224251.000000,96293837.000000
128135070.000000,96237180.000000
128017920.000000,96205922.000000
127863547.000000,96196313.000000
127858529.000000,96196323.000000
127751220.000000,96201170.000000
127655172.000000,96213252.000000
127589625.000000,96230191.000000
127571655.000000,96238679.000000
127514460.000000,96274627.000000
127462701.000000,96317352.000000
127428647.000000,96355800.000000
127424565.000000,96378916.000000
127432531.000000,96385164.000000
127519325.000000,96451855.000000
127577361.000000,96491188.000000
127615735.000000,96507057.000000
127643541.000000,96503359.000000
127669873.000000,96483990.000000
127718470.000000,96459809.000000
127800367.000000,96443687.000000
127892927.000000,96439505.000000
127976681.000000,96448015.000000
128032165.000000,96469972.000000
128035084.000000,96472644.000000
128060017.000000,96522836.000000
128069788.000000,96597755.000000
128069788.000000,96694314.000000
127839445.000000,96694407.000000
127733635.000000,96696082.000000
127644568.000000,96703368.000000
127580855.000000,96718357.000000
127529379.000000,96743110.000000
127517400.000000,96750712.000000
127430734.000000,96834282.000000
127384636.000000,96944790.000000
127380740.000000,97027808.000000
127378077.000000,97084559.000000
Z" /> 
<path style="fill:#000000; fill-opacity:1.0; 
stroke:#000000; stroke-width:10000.000000; stroke-opacity:1; 
stroke-linecap:round; stroke-linejoin:round;fill-rule:evenodd;"
d="M 133788675.000000,96212675.000000
133713440.000000,96247886.000000
133647827.000000,96299497.000000
133647827.000000,96247886.000000
133646192.000000,96228290.000000
133630979.000000,96207513.000000
133589838.000000,96198337.000000
133510866.000000,96196275.000000
133373905.000000,96196275.000000
133373905.000000,97416471.000000
133647827.000000,97416471.000000
133647827.000000,97019211.000000
133647860.000000,96996405.000000
133650197.000000,96836089.000000
133655932.000000,96705500.000000
133664656.000000,96611314.000000
133675959.000000,96560208.000000
133686338.000000,96540915.000000
133750232.000000,96480406.000000
133837263.000000,96453622.000000
133932296.000000,96466117.000000
133955606.000000,96474586.000000
134005263.000000,96489555.000000
134039201.000000,96484907.000000
134073350.000000,96454479.000000
134123641.000000,96392111.000000
134205208.000000,96289123.000000
134147877.000000,96242699.000000
134093377.000000,96214755.000000
133997646.000000,96195883.000000
133889744.000000,96195265.000000
Z" /> 
<path style="fill:#000000; fill-opacity:1.0; 
stroke:#000000; stroke-width:10000.000000; stroke-opacity:1; 
stroke-linecap:round; stroke-linejoin:round;fill-rule:evenodd;"
d="M 131295195.000000,95090982.000000
131325901.000000,95241438.000000
131380824.000000,95356246.000000
131464420.000000,95442966.000000
131581142.000000,95509155.000000
131626461.000000,95524908.000000
131743827.000000,95544562.000000
131867334.000000,95544027.000000
131971549.000000,95522439.000000
131973597.000000,95521655.000000
132057582.000000,95472251.000000
132142430.000000,95395770.000000
132212834.000000,95308311.000000
132253486.000000,95225969.000000
132265537.000000,95165779.000000
132275854.000000,95053084.000000
132277583.000000,94952632.000000
132026698.000000,94952632.000000
132011700.000000,95073119.000000
131976465.000000,95172123.000000
131923083.000000,95236815.000000
131902850.000000,95247922.000000
131825694.000000,95268111.000000
131736451.000000,95272265.000000
131661372.000000,95258235.000000
131632068.000000,95238116.000000
131590936.000000,95167760.000000
131565054.000000,95057645.000000
131556062.000000,94913145.000000
131556206.000000,94871549.000000
131559330.000000,94787264.000000
131569718.000000,94732281.000000
131591512.000000,94691655.000000
131628853.000000,94650437.000000
131699907.000000,94600481.000000
131792409.000000,94580057.000000
131881782.000000,94599509.000000
131955990.000000,94655771.000000
132002999.000000,94745775.000000
132019372.000000,94823494.000000
132026698.000000,94952632.000000
132277583.000000,94952632.000000
132278063.000000,94924738.000000
132272528.000000,94796993.000000
132259612.000000,94686101.000000
132239678.000000,94608315.000000
132193247.000000,94520245.000000
132094702.000000,94411959.000000
131968747.000000,94343364.000000
131819126.000000,94316213.000000
131649585.000000,94332259.000000
131621375.000000,94339094.000000
131489999.000000,94398040.000000
131391002.000000,94494814.000000
131324380.000000,94629423.000000
131290130.000000,94801874.000000
131289133.000000,94913145.000000
131288247.000000,95012173.000000
Z" /> 
<path style="fill:#000000; fill-opacity:1.0; 
stroke:#000000; stroke-width:10000.000000; stroke-opacity:1; 
stroke-linecap:round; stroke-linejoin:round;fill-rule:evenodd;"
d="M 130563390.000000,94327820.000000
130419571.000000,94363866.000000
130314509.000000,94430677.000000
130247606.000000,94528702.000000
130218260.000000,94658387.000000
130224201.000000,94782544.000000
130267086.000000,94887266.000000
130349324.000000,94964693.000000
130472565.000000,95016337.000000
130638456.000000,95043710.000000
130746248.000000,95058057.000000
130844634.000000,95089099.000000
130895429.000000,95134053.000000
130898496.000000,95192838.000000
130878054.000000,95229493.000000
130814746.000000,95272935.000000
130724751.000000,95293483.000000
130619287.000000,95290673.000000
130509574.000000,95264042.000000
130406832.000000,95213128.000000
130304396.000000,95145339.000000
130214298.000000,95236508.000000
130124200.000000,95327676.000000
130198905.000000,95388655.000000
130227954.000000,95409842.000000
130309683.000000,95457978.000000
130398121.000000,95499457.000000
130468113.000000,95523262.000000
130570598.000000,95540504.000000
130696945.000000,95540732.000000
130851882.000000,95521748.000000
130991455.000000,95473630.000000
131090250.000000,95397195.000000
131148499.000000,95292254.000000
131166438.000000,95158617.000000
131153453.000000,95041054.000000
131111769.000000,94944803.000000
131036723.000000,94875873.000000
130923565.000000,94830030.000000
130767546.000000,94803042.000000
130749626.000000,94801088.000000
130652486.000000,94788630.000000
130573686.000000,94775592.000000
130528856.000000,94764499.000000
130513896.000000,94755567.000000
130488604.000000,94709509.000000
130492712.000000,94650553.000000
130526512.000000,94599373.000000
130544261.000000,94588210.000000
130618219.000000,94570326.000000
130713749.000000,94571529.000000
130813364.000000,94590561.000000
130899579.000000,94626168.000000
130990169.000000,94679618.000000
131060437.000000,94597505.000000
131077488.000000,94576644.000000
131115902.000000,94520761.000000
131131717.000000,94482887.000000
131115110.000000,94459664.000000
131063731.000000,94423412.000000
130989543.000000,94384402.000000
130979090.000000,94379633.000000
130881259.000000,94342229.000000
130786959.000000,94324345.000000
130669938.000000,94320754.000000
Z" /> 
<path style="fill:#000000; fill-opacity:1.0; 
stroke:#000000; stroke-width:10000.000000; stroke-opacity:1; 
stroke-linecap:round; stroke-linejoin:round;fill-rule:evenodd;"
d="M 127369914.000000,94951108.000000
127372091.000000,95027224.000000
127396641.000000,95193570.000000
127450740.000000,95324728.000000
127537218.000000,95426101.000000
127658905.000000,95503096.000000
127776951.000000,95539039.000000
127925039.000000,95545915.000000
128074452.000000,95519468.000000
128207728.000000,95461037.000000
128257117.000000,95428532.000000
128311532.000000,95386868.000000
128336360.000000,95359452.000000
128334953.000000,95348140.000000
128307161.000000,95309597.000000
128254928.000000,95262901.000000
128164409.000000,95193858.000000
128058342.000000,95246831.000000
128029660.000000,95259943.000000
127945229.000000,95288441.000000
127874463.000000,95299804.000000
127822281.000000,95290441.000000
127740394.000000,95245351.000000
127671563.000000,95175355.000000
127632193.000000,95094363.000000
127616153.000000,95025882.000000
128368611.000000,95025882.000000
128368472.000000,94895147.000000
128367333.000000,94853713.000000
128359018.000000,94764805.000000
128094690.000000,94764805.000000
128094205.000000,94769899.000000
128080513.000000,94785760.000000
128041822.000000,94795505.000000
127969883.000000,94800413.000000
127856443.000000,94801765.000000
127819158.000000,94801749.000000
127722327.000000,94800854.000000
127664117.000000,94796988.000000
127635894.000000,94787968.000000
127629027.000000,94771611.000000
127634883.000000,94745735.000000
127635777.000000,94742802.000000
127686227.000000,94652759.000000
127765758.000000,94590766.000000
127860597.000000,94567686.000000
127895653.000000,94569532.000000
127960719.000000,94591611.000000
128023139.000000,94647766.000000
128039953.000000,94667621.000000
128079063.000000,94724326.000000
128094690.000000,94764805.000000
128359018.000000,94764805.000000
128357949.000000,94753376.000000
128342212.000000,94670349.000000
128324964.000000,94623868.000000
128264321.000000,94522769.000000
128183106.000000,94430951.000000
128097219.000000,94368037.000000
128072404.000000,94356354.000000
127927910.000000,94317600.000000
127780358.000000,94321686.000000
127641633.000000,94366882.000000
127523621.000000,94451461.000000
127459790.000000,94529461.000000
127407599.000000,94639343.000000
127379697.000000,94771611.000000
127378627.000000,94776685.000000
Z" /> 
<path style="fill:#000000; fill-opacity:1.0; 
stroke:#000000; stroke-width:10000.000000; stroke-opacity:1; 
stroke-linecap:round; stroke-linejoin:round;fill-rule:evenodd;"
d="M 128592729.000000,97416471.000000
128841749.000000,97416471.000000
128841749.000000,97032111.000000
128842024.000000,96942706.000000
128844856.000000,96794629.000000
128852024.000000,96685003.000000
128865084.000000,96606252.000000
128885592.000000,96550798.000000
128915102.000000,96511061.000000
128955169.000000,96479465.000000
128998910.000000,96455921.000000
129050704.000000,96449246.000000
129124369.000000,96464090.000000
129148041.000000,96470271.000000
129207131.000000,96479572.000000
129249382.000000,96466245.000000
129298352.000000,96424996.000000
129307645.000000,96416026.000000
129359021.000000,96360534.000000
129392153.000000,96315415.000000
129396698.000000,96304545.000000
129387692.000000,96264409.000000
129342026.000000,96232320.000000
129269954.000000,96209799.000000
129181729.000000,96198367.000000
129087606.000000,96199544.000000
128997838.000000,96214850.000000
128922680.000000,96245806.000000
128898857.000000,96260260.000000
128858751.000000,96281417.000000
128843904.000000,96276572.000000
128841749.000000,96245712.000000
128841243.000000,96234633.000000
128829230.000000,96210091.000000
128791964.000000,96198921.000000
128717239.000000,96196275.000000
128592729.000000,96196275.000000
Z" /> 
<path style="fill:#000000; fill-opacity:1.0; 
stroke:#000000; stroke-width:10000.000000; stroke-opacity:1; 
stroke-linecap:round; stroke-linejoin:round;fill-rule:evenodd;"
d="M 129011294.000000,94326271.000000
128897778.000000,94361937.000000
128847727.000000,94386177.000000
128822554.000000,94388681.000000
128816847.000000,94366620.000000
128816841.000000,94365952.000000
128804540.000000,94343426.000000
128762116.000000,94331879.000000
128679886.000000,94328628.000000
128542925.000000,94328628.000000
128542925.000000,95523922.000000
128816847.000000,95523922.000000
128816847.000000,95111907.000000
128817034.000000,94972779.000000
128818315.000000,94858493.000000
128821742.000000,94778519.000000
128828368.000000,94724708.000000
128839246.000000,94688912.000000
128855429.000000,94662982.000000
128877970.000000,94638770.000000
128908673.000000,94613017.000000
128996961.000000,94578416.000000
129089635.000000,94588571.000000
129174529.000000,94643298.000000
129198794.000000,94668768.000000
129216213.000000,94694545.000000
129227896.000000,94728848.000000
129234988.000000,94779933.000000
129238636.000000,94856056.000000
129239985.000000,94965471.000000
129240180.000000,95116435.000000
129240180.000000,95523922.000000
129514102.000000,95523922.000000
129513555.000000,95081912.000000
129513518.000000,95062223.000000
129511142.000000,94874209.000000
129503847.000000,94728159.000000
129489755.000000,94616971.000000
129466993.000000,94533544.000000
129433686.000000,94470775.000000
129387959.000000,94421561.000000
129327936.000000,94378802.000000
129265960.000000,94349199.000000
129141145.000000,94322305.000000
Z" /> 
<path style="fill:#000000; fill-opacity:1.0; 
stroke:#000000; stroke-width:10000.000000; stroke-opacity:1; 
stroke-linecap:round; stroke-linejoin:round;fill-rule:evenodd;"
d="M 130037566.000000,86073172.000000
129924984.000000,86670363.000000
129509571.000000,86841610.000000
129094157.000000,87012857.000000
128595800.000000,86673978.000000
128497164.000000,86607170.000000
128366403.000000,86519479.000000
128253192.000000,86444580.000000
128163411.000000,86386320.000000
128102939.000000,86348545.000000
128077656.000000,86335098.000000
128062128.000000,86344661.000000
128015713.000000,86384730.000000
127945470.000000,86450487.000000
127857352.000000,86535895.000000
127757311.000000,86634915.000000
127651298.000000,86741509.000000
127545265.000000,86849640.000000
127445165.000000,86953268.000000
127356949.000000,87046358.000000
127286568.000000,87122869.000000
127239975.000000,87176765.000000
127223121.000000,87202007.000000
127227042.000000,87212852.000000
127254188.000000,87261228.000000
127303761.000000,87340842.000000
127371741.000000,87445454.000000
127454109.000000,87568822.000000
127546847.000000,87704706.000000
127597740.000000,87778815.000000
127685288.000000,87907835.000000
127760347.000000,88020434.000000
127818915.000000,88110505.000000
127856991.000000,88171942.000000
127870572.000000,88198640.000000
127870349.000000,88200119.000000
127858369.000000,88233962.000000
127830884.000000,88303071.000000
127791726.000000,88398416.000000
127744726.000000,88510972.000000
127693715.000000,88631710.000000
127642524.000000,88751602.000000
127594985.000000,88861622.000000
127554929.000000,88952740.000000
127526187.000000,89015931.000000
127512590.000000,89042165.000000
127504545.000000,89044492.000000
127455665.000000,89054988.000000
127368548.000000,89072376.000000
127250167.000000,89095295.000000
127107496.000000,89122389.000000
126947508.000000,89152296.000000
126863185.000000,89168153.000000
126708417.000000,89198407.000000
126573096.000000,89226347.000000
126464618.000000,89250369.000000
126390380.000000,89268868.000000
126357778.000000,89280238.000000
126351922.000000,89291511.000000
126342208.000000,89346586.000000
126334576.000000,89438317.000000
126329020.000000,89558073.000000
126325534.000000,89697221.000000
126324113.000000,89847131.000000
126324750.000000,89999172.000000
126327440.000000,90144712.000000
126332176.000000,90275121.000000
126338953.000000,90381766.000000
126347764.000000,90456018.000000
126358605.000000,90489245.000000
126365183.000000,90492993.000000
126414245.000000,90509069.000000
126499353.000000,90530338.000000
126610671.000000,90554472.000000
126738360.000000,90579143.000000
126781443.000000,90587000.000000
126980427.000000,90623542.000000
127136812.000000,90652910.000000
127256017.000000,90676321.000000
127343463.000000,90694994.000000
127404572.000000,90710146.000000
127444765.000000,90722995.000000
127469462.000000,90734758.000000
127484084.000000,90746653.000000
127485784.000000,90748649.000000
127509696.000000,90790271.000000
127545081.000000,90866430.000000
127588508.000000,90968193.000000
127636549.000000,91086624.000000
127685775.000000,91212789.000000
127732755.000000,91337754.000000
127774060.000000,91452584.000000
127806261.000000,91548344.000000
127825929.000000,91616100.000000
127829635.000000,91646917.000000
127827157.000000,91650915.000000
127801511.000000,91689584.000000
127753280.000000,91760907.000000
127686938.000000,91858314.000000
127606955.000000,91975234.000000
127517803.000000,92105098.000000
127493335.000000,92140828.000000
127407297.000000,92268990.000000
127332942.000000,92383608.000000
127274512.000000,92477887.000000
127236253.000000,92545029.000000
127222408.000000,92578235.000000
127225391.000000,92586965.000000
127256489.000000,92629982.000000
127317845.000000,92700230.000000
127405063.000000,92792979.000000
127513751.000000,92903502.000000
127639515.000000,93027071.000000
127711400.000000,93096235.000000
127825061.000000,93203957.000000
127924543.000000,93296225.000000
128004505.000000,93368181.000000
128059605.000000,93414968.000000
128084502.000000,93431727.000000
128101607.000000,93425515.000000
128154271.000000,93396126.000000
128230751.000000,93348063.000000
128321071.000000,93287412.000000
128385289.000000,93243153.000000
128513495.000000,93155261.000000
128650306.000000,93061915.000000
128775268.000000,92977091.000000
129020063.000000,92811515.000000
129225551.000000,92922620.000000
129273937.000000,92948265.000000
129361930.000000,92992130.000000
129429977.000000,93022414.000000
129466344.000000,93033706.000000
129478246.000000,93019205.000000
129507800.000000,92963992.000000
129551452.000000,92872962.000000
129606774.000000,92751892.000000
129671337.000000,92606559.000000
129742711.000000,92442741.000000
129818468.000000,92266213.000000
129896178.000000,92082753.000000
129973414.000000,91898138.000000
130047744.000000,91718146.000000
130116742.000000,91548552.000000
130177977.000000,91395135.000000
130229021.000000,91263670.000000
130267445.000000,91159936.000000
130290820.000000,91089709.000000
130296717.000000,91058766.000000
130296317.000000,91057862.000000
130268851.000000,91029257.000000
130211401.000000,90984457.000000
130135827.000000,90932751.000000
130111973.000000,90916962.000000
129930466.000000,90767174.000000
129780247.000000,90588767.000000
129664873.000000,90389165.000000
129587901.000000,90175797.000000
129552886.000000,89956087.000000
129563387.000000,89737462.000000
129605923.000000,89543011.000000
129682297.000000,89346657.000000
129793635.000000,89171484.000000
129946426.000000,89005082.000000
130006461.000000,88951924.000000
130200542.000000,88820951.000000
130410201.000000,88732744.000000
130629363.000000,88686512.000000
130851953.000000,88681467.000000
131071893.000000,88716820.000000
131283110.000000,88791779.000000
131479527.000000,88905557.000000
131655068.000000,89057363.000000
131803658.000000,89246409.000000
131832226.000000,89293224.000000
131929327.000000,89507204.000000
131980897.000000,89730026.000000
131988286.000000,89955922.000000
131952845.000000,90179119.000000
131875924.000000,90393847.000000
131758874.000000,90594336.000000
131603045.000000,90774814.000000
131409787.000000,90929510.000000
131403511.000000,90933679.000000
131328739.000000,90986370.000000
131272696.000000,91031169.000000
131247100.000000,91058766.000000
131250330.000000,91080402.000000
131270410.000000,91143399.000000
131306016.000000,91241038.000000
131354720.000000,91367542.000000
131414092.000000,91517132.000000
131481706.000000,91684030.000000
131555134.000000,91862457.000000
131631946.000000,92046636.000000
131709716.000000,92230787.000000
131786015.000000,92409133.000000
131858416.000000,92575895.000000
131924490.000000,92725294.000000
131981809.000000,92851554.000000
132027945.000000,92948894.000000
132060470.000000,93011538.000000
132076957.000000,93033706.000000
132090667.000000,93030703.000000
132144530.000000,93009126.000000
132224136.000000,92971293.000000
132317751.000000,92922620.000000
132523238.000000,92811515.000000
132768033.000000,92977091.000000
132840355.000000,93026120.000000
132974874.000000,93117729.000000
133108985.000000,93209485.000000
133222230.000000,93287412.000000
133284730.000000,93329881.000000
133365961.000000,93382644.000000
133426191.000000,93418765.000000
133455609.000000,93432157.000000
133468247.000000,93426471.000000
133513933.000000,93391645.000000
133584362.000000,93330329.000000
133673404.000000,93248554.000000
133774928.000000,93152351.000000
133882806.000000,93047751.000000
133990905.000000,92940786.000000
134093097.000000,92837485.000000
134183250.000000,92743882.000000
134255236.000000,92666006.000000
134302922.000000,92609889.000000
134320180.000000,92581562.000000
134319185.000000,92576172.000000
134298645.000000,92532304.000000
134254766.000000,92456407.000000
134191788.000000,92355336.000000
134113953.000000,92235948.000000
134025499.000000,92105098.000000
134000691.000000,92069005.000000
133913582.000000,91942000.000000
133836853.000000,91829718.000000
133774976.000000,91738730.000000
133732423.000000,91675606.000000
133713666.000000,91646917.000000
133713205.000000,91645687.000000
133718741.000000,91610588.000000
133739880.000000,91539484.000000
133773195.000000,91441310.000000
133815255.000000,91325002.000000
133862630.000000,91199493.000000
133911892.000000,91073718.000000
133959611.000000,90956612.000000
134002358.000000,90857110.000000
134036703.000000,90784145.000000
134059217.000000,90746653.000000
134061472.000000,90744325.000000
134077592.000000,90732549.000000
134104817.000000,90720673.000000
134148567.000000,90707481.000000
134214265.000000,90691754.000000
134307330.000000,90672274.000000
134433184.000000,90647824.000000
134597247.000000,90617186.000000
134804941.000000,90579143.000000
134848019.000000,90571136.000000
134971423.000000,90546384.000000
135075228.000000,90522933.000000
135149599.000000,90503110.000000
135184696.000000,90489245.000000
135190568.000000,90477677.000000
135200358.000000,90422110.000000
135208115.000000,90329990.000000
135213835.000000,90209951.000000
135217511.000000,90070622.000000
135219138.000000,89920635.000000
135218709.000000,89768621.000000
135216218.000000,89623212.000000
135211660.000000,89493037.000000
135205029.000000,89386730.000000
135196319.000000,89312919.000000
135185523.000000,89280238.000000
135174501.000000,89275410.000000
135119669.000000,89260191.000000
135026987.000000,89238666.000000
134903849.000000,89212439.000000
134757652.000000,89183114.000000
134595794.000000,89152296.000000
134507416.000000,89135831.000000
134355941.000000,89107279.000000
134225560.000000,89082277.000000
134123246.000000,89062185.000000
134055972.000000,89048362.000000
134030711.000000,89042165.000000
134029762.000000,89040888.000000
134013674.000000,89008437.000000
133983006.000000,88940452.000000
133941589.000000,88845954.000000
133893259.000000,88733964.000000
133841846.000000,88613500.000000
133791186.000000,88493584.000000
133745111.000000,88383235.000000
133707454.000000,88291473.000000
133682049.000000,88227319.000000
133672729.000000,88199792.000000
133676840.000000,88190106.000000
133704200.000000,88144018.000000
133753830.000000,88066440.000000
133821740.000000,87963461.000000
133903945.000000,87841167.000000
133996454.000000,87705646.000000
134047209.000000,87631429.000000
134134797.000000,87501309.000000
134209894.000000,87387112.000000
134268493.000000,87295066.000000
134306591.000000,87231398.000000
134320180.000000,87202337.000000
134310738.000000,87186573.000000
134271240.000000,87139471.000000
134206442.000000,87068186.000000
134122291.000000,86978760.000000
134024736.000000,86877232.000000
133919726.000000,86769643.000000
133813207.000000,86662034.000000
133711129.000000,86560445.000000
133619440.000000,86470917.000000
133544088.000000,86399489.000000
133491020.000000,86352203.000000
133466186.000000,86335098.000000
133452401.000000,86341749.000000
133401782.000000,86372592.000000
133320095.000000,86425083.000000
133213228.000000,86495375.000000
133087068.000000,86579622.000000
132947502.000000,86673978.000000
132449144.000000,87012857.000000
132033731.000000,86841610.000000
131618317.000000,86670363.000000
131505735.000000,86073172.000000
131393152.000000,85475980.000000
130150149.000000,85475980.000000
Z" /> 
<path style="fill:#000000; fill-opacity:1.0; 
stroke:#000000; stroke-width:10000.000000; stroke-opacity:1; 
stroke-linecap:round; stroke-linejoin:round;fill-rule:evenodd;"
d="M 132196481.000000,97201789.000000
132261768.000000,97298505.000000
132360802.000000,97368077.000000
132370521.000000,97372305.000000
132478880.000000,97402767.000000
132600977.000000,97414642.000000
132717062.000000,97407382.000000
132807386.000000,97380441.000000
132843466.000000,97362865.000000
132869944.000000,97358674.000000
132875866.000000,97380594.000000
132887084.000000,97400866.000000
132930487.000000,97412938.000000
133014731.000000,97416471.000000
133153596.000000,97416471.000000
133146205.000000,96980686.000000
132875866.000000,96980686.000000
132866487.000000,97045829.000000
132826062.000000,97117647.000000
132811141.000000,97130848.000000
132749982.000000,97158620.000000
132657974.000000,97165766.000000
132602765.000000,97162974.000000
132499459.000000,97141952.000000
132435429.000000,97102782.000000
132413833.000000,97048122.000000
132437831.000000,96980628.000000
132451833.000000,96962964.000000
132514373.000000,96923345.000000
132613353.000000,96900722.000000
132754469.000000,96893530.000000
132875866.000000,96893530.000000
132875866.000000,96980686.000000
133146205.000000,96980686.000000
133145466.000000,96937108.000000
133143257.000000,96826258.000000
133137439.000000,96660305.000000
133127633.000000,96533409.000000
133111901.000000,96438654.000000
133088306.000000,96369120.000000
133054909.000000,96317890.000000
133009773.000000,96278046.000000
132950961.000000,96242669.000000
132920620.000000,96229163.000000
132815659.000000,96203669.000000
132689066.000000,96193129.000000
132558183.000000,96197350.000000
132440355.000000,96216140.000000
132352925.000000,96249305.000000
132322513.000000,96268562.000000
132252495.000000,96325636.000000
132228797.000000,96373427.000000
132234552.000000,96382662.000000
132270418.000000,96414919.000000
132328319.000000,96457950.000000
132357921.000000,96478091.000000
132408332.000000,96506629.000000
132441090.000000,96509354.000000
132471505.000000,96489657.000000
132547308.000000,96449766.000000
132649305.000000,96433361.000000
132753539.000000,96445920.000000
132755511.000000,96446489.000000
132829029.000000,96478431.000000
132865419.000000,96528428.000000
132875485.000000,96611116.000000
132875866.000000,96689780.000000
132615970.000000,96698273.000000
132574564.000000,96699670.000000
132470173.000000,96704528.000000
132400190.000000,96712161.000000
132352887.000000,96725425.000000
132316532.000000,96747181.000000
132279396.000000,96780285.000000
132218080.000000,96856855.000000
132173141.000000,96970157.000000
132168735.000000,97048122.000000
132166440.000000,97088738.000000
Z" /> 
<path style="fill:#000000; fill-opacity:1.0; 
stroke:#000000; stroke-width:10000.000000; stroke-opacity:1; 
stroke-linecap:round; stroke-linejoin:round;fill-rule:evenodd;"
d="M 134151358.000000,94319381.000000
134090311.000000,94338439.000000
134015131.000000,94370115.000000
133978731.000000,94387138.000000
133952460.000000,94390215.000000
133946651.000000,94366620.000000
133946645.000000,94365952.000000
133934344.000000,94343426.000000
133891919.000000,94331879.000000
133809690.000000,94328628.000000
133672729.000000,94328628.000000
133672729.000000,95523922.000000
133946651.000000,95523922.000000
133946651.000000,94699779.000000
134014746.000000,94636670.000000
134036020.000000,94618735.000000
134099389.000000,94588091.000000
134177424.000000,94586863.000000
134283680.000000,94613903.000000
134319499.000000,94615615.000000
134361517.000000,94589383.000000
134417443.000000,94527035.000000
134444572.000000,94492547.000000
134476657.000000,94443852.000000
134481601.000000,94412855.000000
134463637.000000,94386707.000000
134408490.000000,94353641.000000
134322837.000000,94327472.000000
134229908.000000,94314496.000000
Z" /> 
<path style="fill:#000000; fill-opacity:1.0; 
stroke:#000000; stroke-width:10000.000000; stroke-opacity:1; 
stroke-linecap:round; stroke-linejoin:round;fill-rule:evenodd;"
d="M 134199698.000000,96899330.000000
134229190.000000,97077105.000000
134289871.000000,97216892.000000
134382278.000000,97319689.000000
134506945.000000,97386496.000000
134547224.000000,97398300.000000
134691047.000000,97414786.000000
134842911.000000,97400873.000000
134980082.000000,97357935.000000
135028406.000000,97333565.000000
135097693.000000,97291819.000000
135139683.000000,97257468.000000
135145883.000000,97249620.000000
135157481.000000,97220917.000000
135140770.000000,97189714.000000
135089879.000000,97142459.000000
135065320.000000,97121887.000000
135016940.000000,97084242.000000
134991573.000000,97068855.000000
134984306.000000,97070440.000000
134942656.000000,97087574.000000
134880474.000000,97117647.000000
134860200.000000,97127540.000000
134740600.000000,97164275.000000
134636694.000000,97154805.000000
134545579.000000,97098971.000000
134534978.000000,97088654.000000
134484291.000000,97024031.000000
134455330.000000,96962010.000000
134439291.000000,96893530.000000
135191749.000000,96893530.000000
135191610.000000,96762794.000000
135191530.000000,96749792.000000
135181371.000000,96644903.000000
134917827.000000,96644903.000000
134914715.000000,96666657.000000
134898738.000000,96681649.000000
134860657.000000,96689970.000000
134791240.000000,96693549.000000
134681258.000000,96694314.000000
134620114.000000,96693521.000000
134529862.000000,96688888.000000
134467784.000000,96681038.000000
134444690.000000,96671033.000000
134464386.000000,96588677.000000
134522049.000000,96511811.000000
134605216.000000,96458484.000000
134701289.000000,96440038.000000
134772022.000000,96460832.000000
134842729.000000,96511664.000000
134896478.000000,96577892.000000
134917827.000000,96644903.000000
135181371.000000,96644903.000000
135175952.000000,96588950.000000
135130608.000000,96458106.000000
135051488.000000,96345313.000000
135003221.000000,96297600.000000
134903537.000000,96233731.000000
134784507.000000,96202784.000000
134634157.000000,96200607.000000
134561532.000000,96209139.000000
134427473.000000,96253440.000000
134324835.000000,96334069.000000
134252720.000000,96452271.000000
134210228.000000,96609291.000000
134205914.000000,96671033.000000
134196460.000000,96806373.000000
Z" /> 
<path style="fill:#000000; fill-opacity:1.0; 
stroke:#000000; stroke-width:10000.000000; stroke-opacity:1; 
stroke-linecap:round; stroke-linejoin:round;fill-rule:evenodd;"
d="M 134851859.000000,94334329.000000
134715982.000000,94387267.000000
134601065.000000,94474655.000000
134516187.000000,94594680.000000
134510455.000000,94606918.000000
134474065.000000,94726281.000000
134455884.000000,94868864.000000
134456027.000000,95017318.000000
134474610.000000,95154297.000000
134511748.000000,95262451.000000
134557601.000000,95337831.000000
134658531.000000,95444620.000000
134784731.000000,95512500.000000
134892703.000000,95539950.000000
135057112.000000,95542947.000000
135214436.000000,95501549.000000
135353949.000000,95417546.000000
135444246.000000,95343116.000000
135362916.000000,95259205.000000
135311535.000000,95209496.000000
135265059.000000,95181820.000000
135221965.000000,95187914.000000
135166847.000000,95225098.000000
135144869.000000,95239655.000000
135052022.000000,95269449.000000
134945305.000000,95269431.000000
134845392.000000,95238723.000000
134807771.000000,95214064.000000
134752587.000000,95141245.000000
134724922.000000,95034290.000000
134723142.000000,94888517.000000
134723147.000000,94888435.000000
134743730.000000,94758014.000000
134789072.000000,94667587.000000
134863682.000000,94611652.000000
134972072.000000,94584704.000000
135040329.000000,94581079.000000
135099969.000000,94595921.000000
135161135.000000,94638918.000000
135240288.000000,94705520.000000
135340528.000000,94624965.000000
135377150.000000,94594105.000000
135422893.000000,94549889.000000
135440768.000000,94523832.000000
135434438.000000,94512089.000000
135397979.000000,94476036.000000
135339899.000000,94430185.000000
135294456.000000,94400348.000000
135150176.000000,94339056.000000
134999617.000000,94317654.000000
Z" /> 
<path style="fill:#000000; fill-opacity:1.0; 
stroke:#000000; stroke-width:10000.000000; stroke-opacity:1; 
stroke-linecap:round; stroke-linejoin:round;fill-rule:evenodd;"
d="M 129394378.000000,97006032.000000
129400726.000000,97080192.000000
129401814.000000,97086989.000000
129444540.000000,97208555.000000
129522566.000000,97311619.000000
129624926.000000,97381444.000000
129734846.000000,97410346.000000
129870049.000000,97408103.000000
129994424.000000,97369351.000000
130026821.000000,97352998.000000
130068480.000000,97335475.000000
130084333.000000,97340927.000000
130086847.000000,97369351.000000
130088001.000000,97383525.000000
130102908.000000,97404488.000000
130144311.000000,97414140.000000
130223807.000000,97416471.000000
130360768.000000,97416471.000000
130360768.000000,96818607.000000
130086847.000000,96818607.000000
130084884.000000,96922181.000000
130076917.000000,96991138.000000
130059908.000000,97038379.000000
130030817.000000,97077968.000000
129954004.000000,97136831.000000
129864114.000000,97156564.000000
129776946.000000,97132162.000000
129703531.000000,97064090.000000
129684125.000000,97014278.000000
129669790.000000,96926070.000000
129663489.000000,96819052.000000
129665474.000000,96709284.000000
129676001.000000,96612827.000000
129695324.000000,96545743.000000
129701497.000000,96534742.000000
129761007.000000,96479453.000000
129841654.000000,96454959.000000
129928267.000000,96460656.000000
130005678.000000,96495940.000000
130058714.000000,96560208.000000
130060906.000000,96565613.000000
130074057.000000,96625921.000000
130083334.000000,96716039.000000
130086847.000000,96818607.000000
130360768.000000,96818607.000000
130360768.000000,95723137.000000
130086847.000000,95723137.000000
130086847.000000,96303601.000000
130036110.000000,96257685.000000
129987258.000000,96229146.000000
129894798.000000,96205290.000000
129786715.000000,96197603.000000
129681164.000000,96207040.000000
129596300.000000,96234557.000000
129535559.000000,96273699.000000
129472993.000000,96340379.000000
129430885.000000,96430053.000000
129405573.000000,96551355.000000
129393394.000000,96712918.000000
129391604.000000,96778225.000000
129391475.000000,96819052.000000
129391221.000000,96899570.000000
Z" /> 
<path style="fill:#000000; fill-opacity:1.0; 
stroke:#000000; stroke-width:10000.000000; stroke-opacity:1; 
stroke-linecap:round; stroke-linejoin:round;fill-rule:evenodd;"
d="M 131089930.000000,96587297.000000
131056264.000000,96687741.000000
131016439.000000,96798935.000000
130983183.000000,96883172.000000
130959246.000000,96933587.000000
130947376.000000,96943318.000000
130944512.000000,96934856.000000
130929009.000000,96882953.000000
130904317.000000,96796265.000000
130873177.000000,96684497.000000
130838330.000000,96557353.000000
130743526.000000,96208726.000000
130598774.000000,96201163.000000
130586555.000000,96200557.000000
130508497.000000,96199755.000000
130470988.000000,96207768.000000
130466211.000000,96226065.000000
130472245.000000,96243934.000000
130492097.000000,96305095.000000
130523177.000000,96401960.000000
130563270.000000,96527602.000000
130610163.000000,96675091.000000
130661639.000000,96837500.000000
130844879.000000,97416471.000000
131074095.000000,97416471.000000
131182099.000000,97049167.000000
131202042.000000,96981720.000000
131238900.000000,96859101.000000
131270395.000000,96756930.000000
131293690.000000,96684336.000000
131305950.000000,96650446.000000
131309443.000000,96647918.000000
131326442.000000,96669778.000000
131350711.000000,96727586.000000
131378218.000000,96812309.000000
131379672.000000,96817285.000000
131416500.000000,96942322.000000
131458638.000000,97083896.000000
131497250.000000,97212316.000000
131559861.000000,97419044.000000
131790789.000000,97404020.000000
131897730.000000,97067843.000000
131944681.000000,96920128.000000
131997274.000000,96754458.000000
132047635.000000,96595638.000000
132089322.000000,96463971.000000
132173973.000000,96196275.000000
131890771.000000,96196275.000000
131822128.000000,96451520.000000
131803879.000000,96518963.000000
131769367.000000,96644697.000000
131737407.000000,96759083.000000
131713111.000000,96843726.000000
131672737.000000,96980686.000000
131543976.000000,96594706.000000
131415214.000000,96208726.000000
131316728.000000,96201332.000000
131218241.000000,96193939.000000
Z" /> 
<g >
</g>
<g >
</g>
<g >
</g>
<g >
</g>
<g >
</g>
<g >
</g>
<g >
</g>
<g >
</g>
<g >
</g>
<g >
</g>
<g >
</g>
<g >
</g>
<g >
</g>
<g >
</g>
<g >
</g>
<g >
</g>
<g >
</g>
<g >
</g>
<g >
</g>
<g >
</g>
<g >
</g>
<g >
</g>
<g >
</g>
<g >
</g>
<g >
</g>
<g >
</g>
<g >
</g>
<g >
</g>
<g >
</g>
<g >
</g>
<g >
</g>
<g >
</g>
<g >
</g>
<g >
</g>
<g >
</g>
<g >
</g>
<g >
</g>
<g >
</g>
<g >
</g>
<g >
</g>
<g >
</g>
<g >
</g>
<g >
</g>
<g >
</g>
<g >
</g>
<g >
</g>
<g >
</g>
<g >
</g>
<g >
</g>
<g >
</g>
</g> 
</svg>
