<?xml version="1.0" standalone="no"?>
 <!DOCTYPE svg PUBLIC "-//W3C//DTD SVG 1.1//EN" 
 "http://www.w3.org/Graphics/SVG/1.1/DTD/svg11.dtd"> 
<svg
  xmlns:svg="http://www.w3.org/2000/svg"
  xmlns="http://www.w3.org/2000/svg"
  xmlns:xlink="http://www.w3.org/1999/xlink"
  version="1.1"
  width="29.700220cm" height="21.000720cm" viewBox="0 0 297002200 210007200">
<title>SVG Picture created as t1-frame.svg date 2022/10/21 17:48:22 </title>
  <desc>Picture generated by PCBNEW </desc>
<g style="fill:#000000; fill-opacity:1.000000;stroke:#000000; stroke-opacity:1.000000;
stroke-linecap:round; stroke-linejoin:round;"
 transform="translate(0 0) scale(1 1)">
</g>
<g style="fill:#000000; fill-opacity:0.0; 
stroke:#000000; stroke-width:0.000000; stroke-opacity:1; 
stroke-linecap:round; stroke-linejoin:round;">
</g>
<g style="fill:#000000; fill-opacity:0.0; 
stroke:#000000; stroke-width:150000.000000; stroke-opacity:1; 
stroke-linecap:round; stroke-linejoin:round;">
<path d="M261000000 191500000
L261000000 198000000
" />
<path d="M197000000 191500000
L197000000 194500000
" />
<text x="178000000.000000" y="168750000.000000"
textLength="33766429.000000" font-size="2000000.000000" lengthAdjust="spacingAndGlyphs"
text-anchor="start" opacity="0">An example of KiBot variants</text>
<g class="stroked-text"><desc>An example of KiBot variants</desc>
<path d="M178383214 168250000
L179097500 168250000
" />
<path d="M178240357 168678571
L178740357 167178571
L179240357 168678571
" />
<path d="M179740357 167678571
L179740357 168678571
" />
<path d="M179740357 167821428
L179811785 167750000
L179954642 167678571
L180168928 167678571
L180311785 167750000
L180383214 167892857
L180383214 168678571
" />
<path d="M182811785 168607142
L182668928 168678571
L182383214 168678571
L182240357 168607142
L182168928 168464285
L182168928 167892857
L182240357 167750000
L182383214 167678571
L182668928 167678571
L182811785 167750000
L182883214 167892857
L182883214 168035714
L182168928 168178571
" />
<path d="M183383214 168678571
L184168928 167678571
" />
<path d="M183383214 167678571
L184168928 168678571
" />
<path d="M185383214 168678571
L185383214 167892857
L185311785 167750000
L185168928 167678571
L184883214 167678571
L184740357 167750000
" />
<path d="M185383214 168607142
L185240357 168678571
L184883214 168678571
L184740357 168607142
L184668928 168464285
L184668928 168321428
L184740357 168178571
L184883214 168107142
L185240357 168107142
L185383214 168035714
" />
<path d="M186097500 168678571
L186097500 167678571
" />
<path d="M186097500 167821428
L186168928 167750000
L186311785 167678571
L186526071 167678571
L186668928 167750000
L186740357 167892857
L186740357 168678571
" />
<path d="M186740357 167892857
L186811785 167750000
L186954642 167678571
L187168928 167678571
L187311785 167750000
L187383214 167892857
L187383214 168678571
" />
<path d="M188097500 167678571
L188097500 169178571
" />
<path d="M188097500 167750000
L188240357 167678571
L188526071 167678571
L188668928 167750000
L188740357 167821428
L188811785 167964285
L188811785 168392857
L188740357 168535714
L188668928 168607142
L188526071 168678571
L188240357 168678571
L188097500 168607142
" />
<path d="M189668928 168678571
L189526071 168607142
L189454642 168464285
L189454642 167178571
" />
<path d="M190811785 168607142
L190668928 168678571
L190383214 168678571
L190240357 168607142
L190168928 168464285
L190168928 167892857
L190240357 167750000
L190383214 167678571
L190668928 167678571
L190811785 167750000
L190883214 167892857
L190883214 168035714
L190168928 168178571
" />
<path d="M192883214 168678571
L192740357 168607142
L192668928 168535714
L192597500 168392857
L192597500 167964285
L192668928 167821428
L192740357 167750000
L192883214 167678571
L193097500 167678571
L193240357 167750000
L193311785 167821428
L193383214 167964285
L193383214 168392857
L193311785 168535714
L193240357 168607142
L193097500 168678571
L192883214 168678571
" />
<path d="M193811785 167678571
L194383214 167678571
" />
<path d="M194026071 168678571
L194026071 167392857
L194097500 167250000
L194240357 167178571
L194383214 167178571
" />
<path d="M196026071 168678571
L196026071 167178571
" />
<path d="M196883214 168678571
L196240357 167821428
" />
<path d="M196883214 167178571
L196026071 168035714
" />
<path d="M197526071 168678571
L197526071 167678571
" />
<path d="M197526071 167178571
L197454642 167250000
L197526071 167321428
L197597500 167250000
L197526071 167178571
L197526071 167321428
" />
<path d="M198740357 167892857
L198954642 167964285
L199026071 168035714
L199097500 168178571
L199097500 168392857
L199026071 168535714
L198954642 168607142
L198811785 168678571
L198240357 168678571
L198240357 167178571
L198740357 167178571
L198883214 167250000
L198954642 167321428
L199026071 167464285
L199026071 167607142
L198954642 167750000
L198883214 167821428
L198740357 167892857
L198240357 167892857
" />
<path d="M199954642 168678571
L199811785 168607142
L199740357 168535714
L199668928 168392857
L199668928 167964285
L199740357 167821428
L199811785 167750000
L199954642 167678571
L200168928 167678571
L200311785 167750000
L200383214 167821428
L200454642 167964285
L200454642 168392857
L200383214 168535714
L200311785 168607142
L200168928 168678571
L199954642 168678571
" />
<path d="M200883214 167678571
L201454642 167678571
" />
<path d="M201097500 167178571
L201097500 168464285
L201168928 168607142
L201311785 168678571
L201454642 168678571
" />
<path d="M202954642 167678571
L203311785 168678571
L203668928 167678571
" />
<path d="M204883214 168678571
L204883214 167892857
L204811785 167750000
L204668928 167678571
L204383214 167678571
L204240357 167750000
" />
<path d="M204883214 168607142
L204740357 168678571
L204383214 168678571
L204240357 168607142
L204168928 168464285
L204168928 168321428
L204240357 168178571
L204383214 168107142
L204740357 168107142
L204883214 168035714
" />
<path d="M205597500 168678571
L205597500 167678571
" />
<path d="M205597500 167964285
L205668928 167821428
L205740357 167750000
L205883214 167678571
L206026071 167678571
" />
<path d="M206526071 168678571
L206526071 167678571
" />
<path d="M206526071 167178571
L206454642 167250000
L206526071 167321428
L206597500 167250000
L206526071 167178571
L206526071 167321428
" />
<path d="M207883214 168678571
L207883214 167892857
L207811785 167750000
L207668928 167678571
L207383214 167678571
L207240357 167750000
" />
<path d="M207883214 168607142
L207740357 168678571
L207383214 168678571
L207240357 168607142
L207168928 168464285
L207168928 168321428
L207240357 168178571
L207383214 168107142
L207740357 168107142
L207883214 168035714
" />
<path d="M208597500 167678571
L208597500 168678571
" />
<path d="M208597500 167821428
L208668928 167750000
L208811785 167678571
L209026071 167678571
L209168928 167750000
L209240357 167892857
L209240357 168678571
" />
<path d="M209740357 167678571
L210311785 167678571
" />
<path d="M209954642 167178571
L209954642 168464285
L210026071 168607142
L210168928 168678571
L210311785 168678571
" />
<path d="M210740357 168607142
L210883214 168678571
L211168928 168678571
L211311785 168607142
L211383214 168464285
L211383214 168392857
L211311785 168250000
L211168928 168178571
L210954642 168178571
L210811785 168107142
L210740357 167964285
L210740357 167892857
L210811785 167750000
L210954642 167678571
L211168928 167678571
L211311785 167750000
" />
</g></g>
<g style="fill:#000000; fill-opacity:0.0; 
stroke:#000000; stroke-width:300000.000000; stroke-opacity:1; 
stroke-linecap:round; stroke-linejoin:round;">
<text x="178000000.000000" y="180750000.000000"
textLength="49123571.000000" font-size="2000000.000000" lengthAdjust="spacingAndGlyphs"
text-anchor="start" opacity="0">Instituto Nacional de Tecnología Industrial</text>
<g class="stroked-text"><desc>Instituto Nacional de Tecnología Industrial</desc>
<path d="M178552142 180678571
L178552142 179178571
" />
<path d="M179266428 179678571
L179266428 180678571
" />
<path d="M179266428 179821428
L179337857 179750000
L179480714 179678571
L179695000 179678571
L179837857 179750000
L179909285 179892857
L179909285 180678571
" />
<path d="M180552142 180607142
L180695000 180678571
L180980714 180678571
L181123571 180607142
L181195000 180464285
L181195000 180392857
L181123571 180250000
L180980714 180178571
L180766428 180178571
L180623571 180107142
L180552142 179964285
L180552142 179892857
L180623571 179750000
L180766428 179678571
L180980714 179678571
L181123571 179750000
" />
<path d="M181623571 179678571
L182195000 179678571
" />
<path d="M181837857 179178571
L181837857 180464285
L181909285 180607142
L182052142 180678571
L182195000 180678571
" />
<path d="M182695000 180678571
L182695000 179678571
" />
<path d="M182695000 179178571
L182623571 179250000
L182695000 179321428
L182766428 179250000
L182695000 179178571
L182695000 179321428
" />
<path d="M183195000 179678571
L183766428 179678571
" />
<path d="M183409285 179178571
L183409285 180464285
L183480714 180607142
L183623571 180678571
L183766428 180678571
" />
<path d="M184909285 179678571
L184909285 180678571
" />
<path d="M184266428 179678571
L184266428 180464285
L184337857 180607142
L184480714 180678571
L184695000 180678571
L184837857 180607142
L184909285 180535714
" />
<path d="M185409285 179678571
L185980714 179678571
" />
<path d="M185623571 179178571
L185623571 180464285
L185695000 180607142
L185837857 180678571
L185980714 180678571
" />
<path d="M186695000 180678571
L186552142 180607142
L186480714 180535714
L186409285 180392857
L186409285 179964285
L186480714 179821428
L186552142 179750000
L186695000 179678571
L186909285 179678571
L187052142 179750000
L187123571 179821428
L187195000 179964285
L187195000 180392857
L187123571 180535714
L187052142 180607142
L186909285 180678571
L186695000 180678571
" />
<path d="M188980714 180678571
L188980714 179178571
L189837857 180678571
L189837857 179178571
" />
<path d="M191195000 180678571
L191195000 179892857
L191123571 179750000
L190980714 179678571
L190695000 179678571
L190552142 179750000
" />
<path d="M191195000 180607142
L191052142 180678571
L190695000 180678571
L190552142 180607142
L190480714 180464285
L190480714 180321428
L190552142 180178571
L190695000 180107142
L191052142 180107142
L191195000 180035714
" />
<path d="M192552142 180607142
L192409285 180678571
L192123571 180678571
L191980714 180607142
L191909285 180535714
L191837857 180392857
L191837857 179964285
L191909285 179821428
L191980714 179750000
L192123571 179678571
L192409285 179678571
L192552142 179750000
" />
<path d="M193195000 180678571
L193195000 179678571
" />
<path d="M193195000 179178571
L193123571 179250000
L193195000 179321428
L193266428 179250000
L193195000 179178571
L193195000 179321428
" />
<path d="M194123571 180678571
L193980714 180607142
L193909285 180535714
L193837857 180392857
L193837857 179964285
L193909285 179821428
L193980714 179750000
L194123571 179678571
L194337857 179678571
L194480714 179750000
L194552142 179821428
L194623571 179964285
L194623571 180392857
L194552142 180535714
L194480714 180607142
L194337857 180678571
L194123571 180678571
" />
<path d="M195266428 179678571
L195266428 180678571
" />
<path d="M195266428 179821428
L195337857 179750000
L195480714 179678571
L195695000 179678571
L195837857 179750000
L195909285 179892857
L195909285 180678571
" />
<path d="M197266428 180678571
L197266428 179892857
L197195000 179750000
L197052142 179678571
L196766428 179678571
L196623571 179750000
" />
<path d="M197266428 180607142
L197123571 180678571
L196766428 180678571
L196623571 180607142
L196552142 180464285
L196552142 180321428
L196623571 180178571
L196766428 180107142
L197123571 180107142
L197266428 180035714
" />
<path d="M198195000 180678571
L198052142 180607142
L197980714 180464285
L197980714 179178571
" />
<path d="M200552142 180678571
L200552142 179178571
" />
<path d="M200552142 180607142
L200409285 180678571
L200123571 180678571
L199980714 180607142
L199909285 180535714
L199837857 180392857
L199837857 179964285
L199909285 179821428
L199980714 179750000
L200123571 179678571
L200409285 179678571
L200552142 179750000
" />
<path d="M201837857 180607142
L201695000 180678571
L201409285 180678571
L201266428 180607142
L201195000 180464285
L201195000 179892857
L201266428 179750000
L201409285 179678571
L201695000 179678571
L201837857 179750000
L201909285 179892857
L201909285 180035714
L201195000 180178571
" />
<path d="M203480714 179178571
L204337857 179178571
" />
<path d="M203909285 180678571
L203909285 179178571
" />
<path d="M205409285 180607142
L205266428 180678571
L204980714 180678571
L204837857 180607142
L204766428 180464285
L204766428 179892857
L204837857 179750000
L204980714 179678571
L205266428 179678571
L205409285 179750000
L205480714 179892857
L205480714 180035714
L204766428 180178571
" />
<path d="M206766428 180607142
L206623571 180678571
L206337857 180678571
L206195000 180607142
L206123571 180535714
L206052142 180392857
L206052142 179964285
L206123571 179821428
L206195000 179750000
L206337857 179678571
L206623571 179678571
L206766428 179750000
" />
<path d="M207409285 179678571
L207409285 180678571
" />
<path d="M207409285 179821428
L207480714 179750000
L207623571 179678571
L207837857 179678571
L207980714 179750000
L208052142 179892857
L208052142 180678571
" />
<path d="M208980714 180678571
L208837857 180607142
L208766428 180535714
L208695000 180392857
L208695000 179964285
L208766428 179821428
L208837857 179750000
L208980714 179678571
L209195000 179678571
L209337857 179750000
L209409285 179821428
L209480714 179964285
L209480714 180392857
L209409285 180535714
L209337857 180607142
L209195000 180678571
L208980714 180678571
" />
<path d="M210337857 180678571
L210195000 180607142
L210123571 180464285
L210123571 179178571
" />
<path d="M211123571 180678571
L210980714 180607142
L210909285 180535714
L210837857 180392857
L210837857 179964285
L210909285 179821428
L210980714 179750000
L211123571 179678571
L211337857 179678571
L211480714 179750000
L211552142 179821428
L211623571 179964285
L211623571 180392857
L211552142 180535714
L211480714 180607142
L211337857 180678571
L211123571 180678571
" />
<path d="M212909285 179678571
L212909285 180892857
L212837857 181035714
L212766428 181107142
L212623571 181178571
L212409285 181178571
L212266428 181107142
" />
<path d="M212909285 180607142
L212766428 180678571
L212480714 180678571
L212337857 180607142
L212266428 180535714
L212195000 180392857
L212195000 179964285
L212266428 179821428
L212337857 179750000
L212480714 179678571
L212766428 179678571
L212909285 179750000
" />
<path d="M213623571 180678571
L213623571 179678571
" />
<path d="M213766428 179107142
L213552142 179321428
" />
<path d="M214980714 180678571
L214980714 179892857
L214909285 179750000
L214766428 179678571
L214480714 179678571
L214337857 179750000
" />
<path d="M214980714 180607142
L214837857 180678571
L214480714 180678571
L214337857 180607142
L214266428 180464285
L214266428 180321428
L214337857 180178571
L214480714 180107142
L214837857 180107142
L214980714 180035714
" />
<path d="M216837857 180678571
L216837857 179178571
" />
<path d="M217552142 179678571
L217552142 180678571
" />
<path d="M217552142 179821428
L217623571 179750000
L217766428 179678571
L217980714 179678571
L218123571 179750000
L218195000 179892857
L218195000 180678571
" />
<path d="M219552142 180678571
L219552142 179178571
" />
<path d="M219552142 180607142
L219409285 180678571
L219123571 180678571
L218980714 180607142
L218909285 180535714
L218837857 180392857
L218837857 179964285
L218909285 179821428
L218980714 179750000
L219123571 179678571
L219409285 179678571
L219552142 179750000
" />
<path d="M220909285 179678571
L220909285 180678571
" />
<path d="M220266428 179678571
L220266428 180464285
L220337857 180607142
L220480714 180678571
L220695000 180678571
L220837857 180607142
L220909285 180535714
" />
<path d="M221552142 180607142
L221695000 180678571
L221980714 180678571
L222123571 180607142
L222195000 180464285
L222195000 180392857
L222123571 180250000
L221980714 180178571
L221766428 180178571
L221623571 180107142
L221552142 179964285
L221552142 179892857
L221623571 179750000
L221766428 179678571
L221980714 179678571
L222123571 179750000
" />
<path d="M222623571 179678571
L223195000 179678571
" />
<path d="M222837857 179178571
L222837857 180464285
L222909285 180607142
L223052142 180678571
L223195000 180678571
" />
<path d="M223695000 180678571
L223695000 179678571
" />
<path d="M223695000 179964285
L223766428 179821428
L223837857 179750000
L223980714 179678571
L224123571 179678571
" />
<path d="M224623571 180678571
L224623571 179678571
" />
<path d="M224623571 179178571
L224552142 179250000
L224623571 179321428
L224695000 179250000
L224623571 179178571
L224623571 179321428
" />
<path d="M225980714 180678571
L225980714 179892857
L225909285 179750000
L225766428 179678571
L225480714 179678571
L225337857 179750000
" />
<path d="M225980714 180607142
L225837857 180678571
L225480714 180678571
L225337857 180607142
L225266428 180464285
L225266428 180321428
L225337857 180178571
L225480714 180107142
L225837857 180107142
L225980714 180035714
" />
<path d="M226909285 180678571
L226766428 180607142
L226695000 180464285
L226695000 179178571
" />
</g></g>
<g style="fill:#000000; fill-opacity:0.0; 
stroke:#000000; stroke-width:150000.000000; stroke-opacity:1; 
stroke-linecap:round; stroke-linejoin:round;">
<text x="178000000.000000" y="183750000.000000"
textLength="31890000.000000" font-size="2000000.000000" lengthAdjust="spacingAndGlyphs"
text-anchor="start" opacity="0">Sheet: Front documentation</text>
<g class="stroked-text"><desc>Sheet: Front documentation</desc>
<path d="M178383214 183607142
L178597500 183678571
L178954642 183678571
L179097500 183607142
L179168928 183535714
L179240357 183392857
L179240357 183250000
L179168928 183107142
L179097500 183035714
L178954642 182964285
L178668928 182892857
L178526071 182821428
L178454642 182750000
L178383214 182607142
L178383214 182464285
L178454642 182321428
L178526071 182250000
L178668928 182178571
L179026071 182178571
L179240357 182250000
" />
<path d="M179883214 183678571
L179883214 182178571
" />
<path d="M180526071 183678571
L180526071 182892857
L180454642 182750000
L180311785 182678571
L180097500 182678571
L179954642 182750000
L179883214 182821428
" />
<path d="M181811785 183607142
L181668928 183678571
L181383214 183678571
L181240357 183607142
L181168928 183464285
L181168928 182892857
L181240357 182750000
L181383214 182678571
L181668928 182678571
L181811785 182750000
L181883214 182892857
L181883214 183035714
L181168928 183178571
" />
<path d="M183097500 183607142
L182954642 183678571
L182668928 183678571
L182526071 183607142
L182454642 183464285
L182454642 182892857
L182526071 182750000
L182668928 182678571
L182954642 182678571
L183097500 182750000
L183168928 182892857
L183168928 183035714
L182454642 183178571
" />
<path d="M183597500 182678571
L184168928 182678571
" />
<path d="M183811785 182178571
L183811785 183464285
L183883214 183607142
L184026071 183678571
L184168928 183678571
" />
<path d="M184668928 183535714
L184740357 183607142
L184668928 183678571
L184597500 183607142
L184668928 183535714
L184668928 183678571
" />
<path d="M184668928 182750000
L184740357 182821428
L184668928 182892857
L184597500 182821428
L184668928 182750000
L184668928 182892857
" />
<path d="M187026071 182892857
L186526071 182892857
" />
<path d="M186526071 183678571
L186526071 182178571
L187240357 182178571
" />
<path d="M187811785 183678571
L187811785 182678571
" />
<path d="M187811785 182964285
L187883214 182821428
L187954642 182750000
L188097500 182678571
L188240357 182678571
" />
<path d="M188954642 183678571
L188811785 183607142
L188740357 183535714
L188668928 183392857
L188668928 182964285
L188740357 182821428
L188811785 182750000
L188954642 182678571
L189168928 182678571
L189311785 182750000
L189383214 182821428
L189454642 182964285
L189454642 183392857
L189383214 183535714
L189311785 183607142
L189168928 183678571
L188954642 183678571
" />
<path d="M190097500 182678571
L190097500 183678571
" />
<path d="M190097500 182821428
L190168928 182750000
L190311785 182678571
L190526071 182678571
L190668928 182750000
L190740357 182892857
L190740357 183678571
" />
<path d="M191240357 182678571
L191811785 182678571
" />
<path d="M191454642 182178571
L191454642 183464285
L191526071 183607142
L191668928 183678571
L191811785 183678571
" />
<path d="M194097500 183678571
L194097500 182178571
" />
<path d="M194097500 183607142
L193954642 183678571
L193668928 183678571
L193526071 183607142
L193454642 183535714
L193383214 183392857
L193383214 182964285
L193454642 182821428
L193526071 182750000
L193668928 182678571
L193954642 182678571
L194097500 182750000
" />
<path d="M195026071 183678571
L194883214 183607142
L194811785 183535714
L194740357 183392857
L194740357 182964285
L194811785 182821428
L194883214 182750000
L195026071 182678571
L195240357 182678571
L195383214 182750000
L195454642 182821428
L195526071 182964285
L195526071 183392857
L195454642 183535714
L195383214 183607142
L195240357 183678571
L195026071 183678571
" />
<path d="M196811785 183607142
L196668928 183678571
L196383214 183678571
L196240357 183607142
L196168928 183535714
L196097500 183392857
L196097500 182964285
L196168928 182821428
L196240357 182750000
L196383214 182678571
L196668928 182678571
L196811785 182750000
" />
<path d="M198097500 182678571
L198097500 183678571
" />
<path d="M197454642 182678571
L197454642 183464285
L197526071 183607142
L197668928 183678571
L197883214 183678571
L198026071 183607142
L198097500 183535714
" />
<path d="M198811785 183678571
L198811785 182678571
" />
<path d="M198811785 182821428
L198883214 182750000
L199026071 182678571
L199240357 182678571
L199383214 182750000
L199454642 182892857
L199454642 183678571
" />
<path d="M199454642 182892857
L199526071 182750000
L199668928 182678571
L199883214 182678571
L200026071 182750000
L200097500 182892857
L200097500 183678571
" />
<path d="M201383214 183607142
L201240357 183678571
L200954642 183678571
L200811785 183607142
L200740357 183464285
L200740357 182892857
L200811785 182750000
L200954642 182678571
L201240357 182678571
L201383214 182750000
L201454642 182892857
L201454642 183035714
L200740357 183178571
" />
<path d="M202097500 182678571
L202097500 183678571
" />
<path d="M202097500 182821428
L202168928 182750000
L202311785 182678571
L202526071 182678571
L202668928 182750000
L202740357 182892857
L202740357 183678571
" />
<path d="M203240357 182678571
L203811785 182678571
" />
<path d="M203454642 182178571
L203454642 183464285
L203526071 183607142
L203668928 183678571
L203811785 183678571
" />
<path d="M204954642 183678571
L204954642 182892857
L204883214 182750000
L204740357 182678571
L204454642 182678571
L204311785 182750000
" />
<path d="M204954642 183607142
L204811785 183678571
L204454642 183678571
L204311785 183607142
L204240357 183464285
L204240357 183321428
L204311785 183178571
L204454642 183107142
L204811785 183107142
L204954642 183035714
" />
<path d="M205454642 182678571
L206026071 182678571
" />
<path d="M205668928 182178571
L205668928 183464285
L205740357 183607142
L205883214 183678571
L206026071 183678571
" />
<path d="M206526071 183678571
L206526071 182678571
" />
<path d="M206526071 182178571
L206454642 182250000
L206526071 182321428
L206597500 182250000
L206526071 182178571
L206526071 182321428
" />
<path d="M207454642 183678571
L207311785 183607142
L207240357 183535714
L207168928 183392857
L207168928 182964285
L207240357 182821428
L207311785 182750000
L207454642 182678571
L207668928 182678571
L207811785 182750000
L207883214 182821428
L207954642 182964285
L207954642 183392857
L207883214 183535714
L207811785 183607142
L207668928 183678571
L207454642 183678571
" />
<path d="M208597500 182678571
L208597500 183678571
" />
<path d="M208597500 182821428
L208668928 182750000
L208811785 182678571
L209026071 182678571
L209168928 182750000
L209240357 182892857
L209240357 183678571
" />
</g><path d="M177000000 181500000
L285000000 181500000
" />
<text x="178000000.000000" y="186450000.000000"
textLength="20195000.000000" font-size="2000000.000000" lengthAdjust="spacingAndGlyphs"
text-anchor="start" opacity="0">File: t1.kicad_pcb</text>
<g class="stroked-text"><desc>File: t1.kicad_pcb</desc>
<path d="M178954642 185592857
L178454642 185592857
" />
<path d="M178454642 186378571
L178454642 184878571
L179168928 184878571
" />
<path d="M179740357 186378571
L179740357 185378571
" />
<path d="M179740357 184878571
L179668928 184950000
L179740357 185021428
L179811785 184950000
L179740357 184878571
L179740357 185021428
" />
<path d="M180668928 186378571
L180526071 186307142
L180454642 186164285
L180454642 184878571
" />
<path d="M181811785 186307142
L181668928 186378571
L181383214 186378571
L181240357 186307142
L181168928 186164285
L181168928 185592857
L181240357 185450000
L181383214 185378571
L181668928 185378571
L181811785 185450000
L181883214 185592857
L181883214 185735714
L181168928 185878571
" />
<path d="M182526071 186235714
L182597500 186307142
L182526071 186378571
L182454642 186307142
L182526071 186235714
L182526071 186378571
" />
<path d="M182526071 185450000
L182597500 185521428
L182526071 185592857
L182454642 185521428
L182526071 185450000
L182526071 185592857
" />
<path d="M184168928 185378571
L184740357 185378571
" />
<path d="M184383214 184878571
L184383214 186164285
L184454642 186307142
L184597500 186378571
L184740357 186378571
" />
<path d="M186026071 186378571
L185168928 186378571
" />
<path d="M185597500 186378571
L185597500 184878571
L185454642 185092857
L185311785 185235714
L185168928 185307142
" />
<path d="M186668928 186235714
L186740357 186307142
L186668928 186378571
L186597500 186307142
L186668928 186235714
L186668928 186378571
" />
<path d="M187383214 186378571
L187383214 184878571
" />
<path d="M187526071 185807142
L187954642 186378571
" />
<path d="M187954642 185378571
L187383214 185950000
" />
<path d="M188597500 186378571
L188597500 185378571
" />
<path d="M188597500 184878571
L188526071 184950000
L188597500 185021428
L188668928 184950000
L188597500 184878571
L188597500 185021428
" />
<path d="M189954642 186307142
L189811785 186378571
L189526071 186378571
L189383214 186307142
L189311785 186235714
L189240357 186092857
L189240357 185664285
L189311785 185521428
L189383214 185450000
L189526071 185378571
L189811785 185378571
L189954642 185450000
" />
<path d="M191240357 186378571
L191240357 185592857
L191168928 185450000
L191026071 185378571
L190740357 185378571
L190597500 185450000
" />
<path d="M191240357 186307142
L191097500 186378571
L190740357 186378571
L190597500 186307142
L190526071 186164285
L190526071 186021428
L190597500 185878571
L190740357 185807142
L191097500 185807142
L191240357 185735714
" />
<path d="M192597500 186378571
L192597500 184878571
" />
<path d="M192597500 186307142
L192454642 186378571
L192168928 186378571
L192026071 186307142
L191954642 186235714
L191883214 186092857
L191883214 185664285
L191954642 185521428
L192026071 185450000
L192168928 185378571
L192454642 185378571
L192597500 185450000
" />
<path d="M192954642 186521428
L194097500 186521428
" />
<path d="M194454642 185378571
L194454642 186878571
" />
<path d="M194454642 185450000
L194597500 185378571
L194883214 185378571
L195026071 185450000
L195097500 185521428
L195168928 185664285
L195168928 186092857
L195097500 186235714
L195026071 186307142
L194883214 186378571
L194597500 186378571
L194454642 186307142
" />
<path d="M196454642 186307142
L196311785 186378571
L196026071 186378571
L195883214 186307142
L195811785 186235714
L195740357 186092857
L195740357 185664285
L195811785 185521428
L195883214 185450000
L196026071 185378571
L196311785 185378571
L196454642 185450000
" />
<path d="M197097500 186378571
L197097500 184878571
" />
<path d="M197097500 185450000
L197240357 185378571
L197526071 185378571
L197668928 185450000
L197740357 185521428
L197811785 185664285
L197811785 186092857
L197740357 186235714
L197668928 186307142
L197526071 186378571
L197240357 186378571
L197097500 186307142
" />
</g></g>
<g style="fill:#000000; fill-opacity:0.0; 
stroke:#000000; stroke-width:300000.000000; stroke-opacity:1; 
stroke-linecap:round; stroke-linejoin:round;">
<text x="178000000.000000" y="190300000.000000"
textLength="9454643.000000" font-size="2666666.000000" lengthAdjust="spacingAndGlyphs"
text-anchor="start" opacity="0">Title: </text>
<g class="stroked-text"><desc>Title: </desc>
<path d="M178647380 188204761
L179790238 188204761
" />
<path d="M178968809 190204761
L179218809 188204761
" />
<path d="M180206904 190204761
L180373571 188871428
" />
<path d="M180456904 188204761
L180349761 188300000
L180433095 188395238
L180540238 188300000
L180456904 188204761
L180433095 188395238
" />
<path d="M181040238 188871428
L181802142 188871428
" />
<path d="M181409285 188204761
L181195000 189919047
L181266428 190109523
L181445000 190204761
L181635476 190204761
" />
<path d="M182587857 190204761
L182409285 190109523
L182337857 189919047
L182552142 188204761
" />
<path d="M184123571 190109523
L183921190 190204761
L183540238 190204761
L183361666 190109523
L183290238 189919047
L183385476 189157142
L183504523 188966666
L183706904 188871428
L184087857 188871428
L184266428 188966666
L184337857 189157142
L184314047 189347619
L183337857 189538095
" />
<path d="M185087857 190014285
L185171190 190109523
L185064047 190204761
L184980714 190109523
L185087857 190014285
L185064047 190204761
" />
<path d="M185218809 188966666
L185302142 189061904
L185195000 189157142
L185111666 189061904
L185218809 188966666
L185195000 189157142
" />
</g></g>
<g style="fill:#000000; fill-opacity:0.0; 
stroke:#000000; stroke-width:150000.000000; stroke-opacity:1; 
stroke-linecap:round; stroke-linejoin:round;">
<path d="M177000000 187500000
L285000000 187500000
" />
<text x="263000000.000000" y="196650001.000000"
textLength="8747143.000000" font-size="2000000.000000" lengthAdjust="spacingAndGlyphs"
text-anchor="start" opacity="0">Id: 8/8</text>
<g class="stroked-text"><desc>Id: 8/8</desc>
<path d="M263454642 196578572
L263454642 195078572
" />
<path d="M264811785 196578572
L264811785 195078572
" />
<path d="M264811785 196507143
L264668928 196578572
L264383214 196578572
L264240357 196507143
L264168928 196435715
L264097500 196292858
L264097500 195864286
L264168928 195721429
L264240357 195650001
L264383214 195578572
L264668928 195578572
L264811785 195650001
" />
<path d="M265526071 196435715
L265597500 196507143
L265526071 196578572
L265454642 196507143
L265526071 196435715
L265526071 196578572
" />
<path d="M265526071 195650001
L265597500 195721429
L265526071 195792858
L265454642 195721429
L265526071 195650001
L265526071 195792858
" />
<path d="M267597500 195721429
L267454642 195650001
L267383214 195578572
L267311785 195435715
L267311785 195364286
L267383214 195221429
L267454642 195150001
L267597500 195078572
L267883214 195078572
L268026071 195150001
L268097500 195221429
L268168928 195364286
L268168928 195435715
L268097500 195578572
L268026071 195650001
L267883214 195721429
L267597500 195721429
L267454642 195792858
L267383214 195864286
L267311785 196007143
L267311785 196292858
L267383214 196435715
L267454642 196507143
L267597500 196578572
L267883214 196578572
L268026071 196507143
L268097500 196435715
L268168928 196292858
L268168928 196007143
L268097500 195864286
L268026071 195792858
L267883214 195721429
" />
<path d="M269883214 195007143
L268597500 196935715
" />
<path d="M270597500 195721429
L270454642 195650001
L270383214 195578572
L270311785 195435715
L270311785 195364286
L270383214 195221429
L270454642 195150001
L270597500 195078572
L270883214 195078572
L271026071 195150001
L271097500 195221429
L271168928 195364286
L271168928 195435715
L271097500 195578572
L271026071 195650001
L270883214 195721429
L270597500 195721429
L270454642 195792858
L270383214 195864286
L270311785 196007143
L270311785 196292858
L270383214 196435715
L270454642 196507143
L270597500 196578572
L270883214 196578572
L271026071 196507143
L271097500 196435715
L271168928 196292858
L271168928 196007143
L271097500 195864286
L271026071 195792858
L270883214 195721429
" />
</g><text x="178000000.000000" y="193850000.000000"
textLength="9409286.000000" font-size="2000000.000000" lengthAdjust="spacingAndGlyphs"
text-anchor="start" opacity="0">Size: A4</text>
<g class="stroked-text"><desc>Size: A4</desc>
<path d="M178383214 193707142
L178597500 193778571
L178954642 193778571
L179097500 193707142
L179168928 193635714
L179240357 193492857
L179240357 193350000
L179168928 193207142
L179097500 193135714
L178954642 193064285
L178668928 192992857
L178526071 192921428
L178454642 192850000
L178383214 192707142
L178383214 192564285
L178454642 192421428
L178526071 192350000
L178668928 192278571
L179026071 192278571
L179240357 192350000
" />
<path d="M179883214 193778571
L179883214 192778571
" />
<path d="M179883214 192278571
L179811785 192350000
L179883214 192421428
L179954642 192350000
L179883214 192278571
L179883214 192421428
" />
<path d="M180454642 192778571
L181240357 192778571
L180454642 193778571
L181240357 193778571
" />
<path d="M182383214 193707142
L182240357 193778571
L181954642 193778571
L181811785 193707142
L181740357 193564285
L181740357 192992857
L181811785 192850000
L181954642 192778571
L182240357 192778571
L182383214 192850000
L182454642 192992857
L182454642 193135714
L181740357 193278571
" />
<path d="M183097500 193635714
L183168928 193707142
L183097500 193778571
L183026071 193707142
L183097500 193635714
L183097500 193778571
" />
<path d="M183097500 192850000
L183168928 192921428
L183097500 192992857
L183026071 192921428
L183097500 192850000
L183097500 192992857
" />
<path d="M184883214 193350000
L185597500 193350000
" />
<path d="M184740357 193778571
L185240357 192278571
L185740357 193778571
" />
<path d="M186883214 192778571
L186883214 193778571
" />
<path d="M186526071 192207142
L186168928 193278571
L187097500 193278571
" />
</g></g>
<g style="fill:#000000; fill-opacity:0.0; 
stroke:#000000; stroke-width:300000.000000; stroke-opacity:1; 
stroke-linecap:round; stroke-linejoin:round;">
<text x="263000000.000000" y="193850000.000000"
textLength="18766429.000000" font-size="2000000.000000" lengthAdjust="spacingAndGlyphs"
text-anchor="start" opacity="0">Rev: ${git_hash}</text>
<g class="stroked-text"><desc>Rev: ${git_hash}</desc>
<path d="M264409285 193778571
L263909285 193064285
" />
<path d="M263552142 193778571
L263552142 192278571
L264123571 192278571
L264266428 192350000
L264337857 192421428
L264409285 192564285
L264409285 192778571
L264337857 192921428
L264266428 192992857
L264123571 193064285
L263552142 193064285
" />
<path d="M265623571 193707142
L265480714 193778571
L265195000 193778571
L265052142 193707142
L264980714 193564285
L264980714 192992857
L265052142 192850000
L265195000 192778571
L265480714 192778571
L265623571 192850000
L265695000 192992857
L265695000 193135714
L264980714 193278571
" />
<path d="M266195000 192778571
L266552142 193778571
L266909285 192778571
" />
<path d="M267480714 193635714
L267552142 193707142
L267480714 193778571
L267409285 193707142
L267480714 193635714
L267480714 193778571
" />
<path d="M267480714 192850000
L267552142 192921428
L267480714 192992857
L267409285 192921428
L267480714 192850000
L267480714 192992857
" />
<path d="M269266428 193707142
L269480714 193778571
L269837857 193778571
L269980714 193707142
L270052142 193635714
L270123571 193492857
L270123571 193350000
L270052142 193207142
L269980714 193135714
L269837857 193064285
L269552142 192992857
L269409285 192921428
L269337857 192850000
L269266428 192707142
L269266428 192564285
L269337857 192421428
L269409285 192350000
L269552142 192278571
L269909285 192278571
L270123571 192350000
" />
<path d="M269695000 192064285
L269695000 193992857
" />
<path d="M271195000 194350000
L271123571 194350000
L270980714 194278571
L270909285 194135714
L270909285 193421428
L270837857 193278571
L270695000 193207142
L270837857 193135714
L270909285 192992857
L270909285 192278571
L270980714 192135714
L271123571 192064285
L271195000 192064285
" />
<path d="M272409285 192778571
L272409285 193992857
L272337857 194135714
L272266428 194207142
L272123571 194278571
L271909285 194278571
L271766428 194207142
" />
<path d="M272409285 193707142
L272266428 193778571
L271980714 193778571
L271837857 193707142
L271766428 193635714
L271695000 193492857
L271695000 193064285
L271766428 192921428
L271837857 192850000
L271980714 192778571
L272266428 192778571
L272409285 192850000
" />
<path d="M273123571 193778571
L273123571 192778571
" />
<path d="M273123571 192278571
L273052142 192350000
L273123571 192421428
L273195000 192350000
L273123571 192278571
L273123571 192421428
" />
<path d="M273623571 192778571
L274195000 192778571
" />
<path d="M273837857 192278571
L273837857 193564285
L273909285 193707142
L274052142 193778571
L274195000 193778571
" />
<path d="M274337857 193921428
L275480714 193921428
" />
<path d="M275837857 193778571
L275837857 192278571
" />
<path d="M276480714 193778571
L276480714 192992857
L276409285 192850000
L276266428 192778571
L276052142 192778571
L275909285 192850000
L275837857 192921428
" />
<path d="M277837857 193778571
L277837857 192992857
L277766428 192850000
L277623571 192778571
L277337857 192778571
L277195000 192850000
" />
<path d="M277837857 193707142
L277695000 193778571
L277337857 193778571
L277195000 193707142
L277123571 193564285
L277123571 193421428
L277195000 193278571
L277337857 193207142
L277695000 193207142
L277837857 193135714
" />
<path d="M278480714 193707142
L278623571 193778571
L278909285 193778571
L279052142 193707142
L279123571 193564285
L279123571 193492857
L279052142 193350000
L278909285 193278571
L278695000 193278571
L278552142 193207142
L278480714 193064285
L278480714 192992857
L278552142 192850000
L278695000 192778571
L278909285 192778571
L279052142 192850000
" />
<path d="M279766428 193778571
L279766428 192278571
" />
<path d="M280409285 193778571
L280409285 192992857
L280337857 192850000
L280195000 192778571
L279980714 192778571
L279837857 192850000
L279766428 192921428
" />
<path d="M280980714 194350000
L281052142 194350000
L281195000 194278571
L281266428 194135714
L281266428 193421428
L281337857 193278571
L281480714 193207142
L281337857 193135714
L281266428 192992857
L281266428 192278571
L281195000 192135714
L281052142 192064285
L280980714 192064285
" />
</g></g>
<g style="fill:#000000; fill-opacity:0.0; 
stroke:#000000; stroke-width:150000.000000; stroke-opacity:1; 
stroke-linecap:round; stroke-linejoin:round;">
<path d="M177000000 191500000
L285000000 191500000
" />
<text x="178000000.000000" y="196650001.000000"
textLength="60390000.000000" font-size="2000000.000000" lengthAdjust="spacingAndGlyphs"
text-anchor="start" opacity="0">KiCad E.D.A. 6.0.8+dfsg-1~bpo11+1 + KiBot v1.4.0</text>
<g class="stroked-text"><desc>KiCad E.D.A. 6.0.8+dfsg-1~bpo11+1 + KiBot v1.4.0</desc>
<path d="M178454642 196578572
L178454642 195078572
" />
<path d="M179311785 196578572
L178668928 195721429
" />
<path d="M179311785 195078572
L178454642 195935715
" />
<path d="M179954642 196578572
L179954642 195578572
" />
<path d="M179954642 195078572
L179883214 195150001
L179954642 195221429
L180026071 195150001
L179954642 195078572
L179954642 195221429
" />
<path d="M181526071 196435715
L181454642 196507143
L181240357 196578572
L181097500 196578572
L180883214 196507143
L180740357 196364286
L180668928 196221429
L180597500 195935715
L180597500 195721429
L180668928 195435715
L180740357 195292858
L180883214 195150001
L181097500 195078572
L181240357 195078572
L181454642 195150001
L181526071 195221429
" />
<path d="M182811785 196578572
L182811785 195792858
L182740357 195650001
L182597500 195578572
L182311785 195578572
L182168928 195650001
" />
<path d="M182811785 196507143
L182668928 196578572
L182311785 196578572
L182168928 196507143
L182097500 196364286
L182097500 196221429
L182168928 196078572
L182311785 196007143
L182668928 196007143
L182811785 195935715
" />
<path d="M184168928 196578572
L184168928 195078572
" />
<path d="M184168928 196507143
L184026071 196578572
L183740357 196578572
L183597500 196507143
L183526071 196435715
L183454642 196292858
L183454642 195864286
L183526071 195721429
L183597500 195650001
L183740357 195578572
L184026071 195578572
L184168928 195650001
" />
<path d="M186026071 195792858
L186526071 195792858
" />
<path d="M186740357 196578572
L186026071 196578572
L186026071 195078572
L186740357 195078572
" />
<path d="M187383214 196435715
L187454642 196507143
L187383214 196578572
L187311785 196507143
L187383214 196435715
L187383214 196578572
" />
<path d="M188097500 196578572
L188097500 195078572
L188454642 195078572
L188668928 195150001
L188811785 195292858
L188883214 195435715
L188954642 195721429
L188954642 195935715
L188883214 196221429
L188811785 196364286
L188668928 196507143
L188454642 196578572
L188097500 196578572
" />
<path d="M189597500 196435715
L189668928 196507143
L189597500 196578572
L189526071 196507143
L189597500 196435715
L189597500 196578572
" />
<path d="M190240357 196150001
L190954642 196150001
" />
<path d="M190097500 196578572
L190597500 195078572
L191097500 196578572
" />
<path d="M191597500 196435715
L191668928 196507143
L191597500 196578572
L191526071 196507143
L191597500 196435715
L191597500 196578572
" />
<path d="M194097500 195078572
L193811785 195078572
L193668928 195150001
L193597500 195221429
L193454642 195435715
L193383214 195721429
L193383214 196292858
L193454642 196435715
L193526071 196507143
L193668928 196578572
L193954642 196578572
L194097500 196507143
L194168928 196435715
L194240357 196292858
L194240357 195935715
L194168928 195792858
L194097500 195721429
L193954642 195650001
L193668928 195650001
L193526071 195721429
L193454642 195792858
L193383214 195935715
" />
<path d="M194883214 196435715
L194954642 196507143
L194883214 196578572
L194811785 196507143
L194883214 196435715
L194883214 196578572
" />
<path d="M195883214 195078572
L196026071 195078572
L196168928 195150001
L196240357 195221429
L196311785 195364286
L196383214 195650001
L196383214 196007143
L196311785 196292858
L196240357 196435715
L196168928 196507143
L196026071 196578572
L195883214 196578572
L195740357 196507143
L195668928 196435715
L195597500 196292858
L195526071 196007143
L195526071 195650001
L195597500 195364286
L195668928 195221429
L195740357 195150001
L195883214 195078572
" />
<path d="M197026071 196435715
L197097500 196507143
L197026071 196578572
L196954642 196507143
L197026071 196435715
L197026071 196578572
" />
<path d="M197954642 195721429
L197811785 195650001
L197740357 195578572
L197668928 195435715
L197668928 195364286
L197740357 195221429
L197811785 195150001
L197954642 195078572
L198240357 195078572
L198383214 195150001
L198454642 195221429
L198526071 195364286
L198526071 195435715
L198454642 195578572
L198383214 195650001
L198240357 195721429
L197954642 195721429
L197811785 195792858
L197740357 195864286
L197668928 196007143
L197668928 196292858
L197740357 196435715
L197811785 196507143
L197954642 196578572
L198240357 196578572
L198383214 196507143
L198454642 196435715
L198526071 196292858
L198526071 196007143
L198454642 195864286
L198383214 195792858
L198240357 195721429
" />
<path d="M199168928 196007143
L200311785 196007143
" />
<path d="M199740357 196578572
L199740357 195435715
" />
<path d="M201668928 196578572
L201668928 195078572
" />
<path d="M201668928 196507143
L201526071 196578572
L201240357 196578572
L201097500 196507143
L201026071 196435715
L200954642 196292858
L200954642 195864286
L201026071 195721429
L201097500 195650001
L201240357 195578572
L201526071 195578572
L201668928 195650001
" />
<path d="M202168928 195578572
L202740357 195578572
" />
<path d="M202383214 196578572
L202383214 195292858
L202454642 195150001
L202597500 195078572
L202740357 195078572
" />
<path d="M203168928 196507143
L203311785 196578572
L203597500 196578572
L203740357 196507143
L203811785 196364286
L203811785 196292858
L203740357 196150001
L203597500 196078572
L203383214 196078572
L203240357 196007143
L203168928 195864286
L203168928 195792858
L203240357 195650001
L203383214 195578572
L203597500 195578572
L203740357 195650001
" />
<path d="M205097500 195578572
L205097500 196792858
L205026071 196935715
L204954642 197007143
L204811785 197078572
L204597500 197078572
L204454642 197007143
" />
<path d="M205097500 196507143
L204954642 196578572
L204668928 196578572
L204526071 196507143
L204454642 196435715
L204383214 196292858
L204383214 195864286
L204454642 195721429
L204526071 195650001
L204668928 195578572
L204954642 195578572
L205097500 195650001
" />
<path d="M205811785 196007143
L206954642 196007143
" />
<path d="M208454642 196578572
L207597500 196578572
" />
<path d="M208026071 196578572
L208026071 195078572
L207883214 195292858
L207740357 195435715
L207597500 195507143
" />
<path d="M208883214 196007143
L208954642 195935715
L209097500 195864286
L209383214 196007143
L209526071 195935715
L209597500 195864286
" />
<path d="M210168928 196578572
L210168928 195078572
" />
<path d="M210168928 195650001
L210311785 195578572
L210597500 195578572
L210740357 195650001
L210811785 195721429
L210883214 195864286
L210883214 196292858
L210811785 196435715
L210740357 196507143
L210597500 196578572
L210311785 196578572
L210168928 196507143
" />
<path d="M211526071 195578572
L211526071 197078572
" />
<path d="M211526071 195650001
L211668928 195578572
L211954642 195578572
L212097500 195650001
L212168928 195721429
L212240357 195864286
L212240357 196292858
L212168928 196435715
L212097500 196507143
L211954642 196578572
L211668928 196578572
L211526071 196507143
" />
<path d="M213097500 196578572
L212954642 196507143
L212883214 196435715
L212811785 196292858
L212811785 195864286
L212883214 195721429
L212954642 195650001
L213097500 195578572
L213311785 195578572
L213454642 195650001
L213526071 195721429
L213597500 195864286
L213597500 196292858
L213526071 196435715
L213454642 196507143
L213311785 196578572
L213097500 196578572
" />
<path d="M215026071 196578572
L214168928 196578572
" />
<path d="M214597500 196578572
L214597500 195078572
L214454642 195292858
L214311785 195435715
L214168928 195507143
" />
<path d="M216454642 196578572
L215597500 196578572
" />
<path d="M216026071 196578572
L216026071 195078572
L215883214 195292858
L215740357 195435715
L215597500 195507143
" />
<path d="M217097500 196007143
L218240357 196007143
" />
<path d="M217668928 196578572
L217668928 195435715
" />
<path d="M219740357 196578572
L218883214 196578572
" />
<path d="M219311785 196578572
L219311785 195078572
L219168928 195292858
L219026071 195435715
L218883214 195507143
" />
<path d="M221526071 196007143
L222668928 196007143
" />
<path d="M222097500 196578572
L222097500 195435715
" />
<path d="M224526071 196578572
L224526071 195078572
" />
<path d="M225383214 196578572
L224740357 195721429
" />
<path d="M225383214 195078572
L224526071 195935715
" />
<path d="M226026071 196578572
L226026071 195578572
" />
<path d="M226026071 195078572
L225954642 195150001
L226026071 195221429
L226097500 195150001
L226026071 195078572
L226026071 195221429
" />
<path d="M227240357 195792858
L227454642 195864286
L227526071 195935715
L227597500 196078572
L227597500 196292858
L227526071 196435715
L227454642 196507143
L227311785 196578572
L226740357 196578572
L226740357 195078572
L227240357 195078572
L227383214 195150001
L227454642 195221429
L227526071 195364286
L227526071 195507143
L227454642 195650001
L227383214 195721429
L227240357 195792858
L226740357 195792858
" />
<path d="M228454642 196578572
L228311785 196507143
L228240357 196435715
L228168928 196292858
L228168928 195864286
L228240357 195721429
L228311785 195650001
L228454642 195578572
L228668928 195578572
L228811785 195650001
L228883214 195721429
L228954642 195864286
L228954642 196292858
L228883214 196435715
L228811785 196507143
L228668928 196578572
L228454642 196578572
" />
<path d="M229383214 195578572
L229954642 195578572
" />
<path d="M229597500 195078572
L229597500 196364286
L229668928 196507143
L229811785 196578572
L229954642 196578572
" />
<path d="M231454642 195578572
L231811785 196578572
L232168928 195578572
" />
<path d="M233526071 196578572
L232668928 196578572
" />
<path d="M233097500 196578572
L233097500 195078572
L232954642 195292858
L232811785 195435715
L232668928 195507143
" />
<path d="M234168928 196435715
L234240357 196507143
L234168928 196578572
L234097500 196507143
L234168928 196435715
L234168928 196578572
" />
<path d="M235526071 195578572
L235526071 196578572
" />
<path d="M235168928 195007143
L234811785 196078572
L235740357 196078572
" />
<path d="M236311785 196435715
L236383214 196507143
L236311785 196578572
L236240357 196507143
L236311785 196435715
L236311785 196578572
" />
<path d="M237311785 195078572
L237454642 195078572
L237597500 195150001
L237668928 195221429
L237740357 195364286
L237811785 195650001
L237811785 196007143
L237740357 196292858
L237668928 196435715
L237597500 196507143
L237454642 196578572
L237311785 196578572
L237168928 196507143
L237097500 196435715
L237026071 196292858
L236954642 196007143
L236954642 195650001
L237026071 195364286
L237097500 195221429
L237168928 195150001
L237311785 195078572
" />
</g><path d="M177000000 194500000
L285000000 194500000
" />
<text x="200000000.000000" y="193850000.000000"
textLength="35623571.000000" font-size="2000000.000000" lengthAdjust="spacingAndGlyphs"
text-anchor="start" opacity="0">Date: 2022-10-21_17-47-15</text>
<g class="stroked-text"><desc>Date: 2022-10-21_17-47-15</desc>
<path d="M200454642 193778571
L200454642 192278571
L200811785 192278571
L201026071 192350000
L201168928 192492857
L201240357 192635714
L201311785 192921428
L201311785 193135714
L201240357 193421428
L201168928 193564285
L201026071 193707142
L200811785 193778571
L200454642 193778571
" />
<path d="M202597500 193778571
L202597500 192992857
L202526071 192850000
L202383214 192778571
L202097500 192778571
L201954642 192850000
" />
<path d="M202597500 193707142
L202454642 193778571
L202097500 193778571
L201954642 193707142
L201883214 193564285
L201883214 193421428
L201954642 193278571
L202097500 193207142
L202454642 193207142
L202597500 193135714
" />
<path d="M203097500 192778571
L203668928 192778571
" />
<path d="M203311785 192278571
L203311785 193564285
L203383214 193707142
L203526071 193778571
L203668928 193778571
" />
<path d="M204740357 193707142
L204597500 193778571
L204311785 193778571
L204168928 193707142
L204097500 193564285
L204097500 192992857
L204168928 192850000
L204311785 192778571
L204597500 192778571
L204740357 192850000
L204811785 192992857
L204811785 193135714
L204097500 193278571
" />
<path d="M205454642 193635714
L205526071 193707142
L205454642 193778571
L205383214 193707142
L205454642 193635714
L205454642 193778571
" />
<path d="M205454642 192850000
L205526071 192921428
L205454642 192992857
L205383214 192921428
L205454642 192850000
L205454642 192992857
" />
<path d="M207240357 192421428
L207311785 192350000
L207454642 192278571
L207811785 192278571
L207954642 192350000
L208026071 192421428
L208097500 192564285
L208097500 192707142
L208026071 192921428
L207168928 193778571
L208097500 193778571
" />
<path d="M209026071 192278571
L209168928 192278571
L209311785 192350000
L209383214 192421428
L209454642 192564285
L209526071 192850000
L209526071 193207142
L209454642 193492857
L209383214 193635714
L209311785 193707142
L209168928 193778571
L209026071 193778571
L208883214 193707142
L208811785 193635714
L208740357 193492857
L208668928 193207142
L208668928 192850000
L208740357 192564285
L208811785 192421428
L208883214 192350000
L209026071 192278571
" />
<path d="M210097500 192421428
L210168928 192350000
L210311785 192278571
L210668928 192278571
L210811785 192350000
L210883214 192421428
L210954642 192564285
L210954642 192707142
L210883214 192921428
L210026071 193778571
L210954642 193778571
" />
<path d="M211526071 192421428
L211597500 192350000
L211740357 192278571
L212097500 192278571
L212240357 192350000
L212311785 192421428
L212383214 192564285
L212383214 192707142
L212311785 192921428
L211454642 193778571
L212383214 193778571
" />
<path d="M213026071 193207142
L214168928 193207142
" />
<path d="M215668928 193778571
L214811785 193778571
" />
<path d="M215240357 193778571
L215240357 192278571
L215097500 192492857
L214954642 192635714
L214811785 192707142
" />
<path d="M216597500 192278571
L216740357 192278571
L216883214 192350000
L216954642 192421428
L217026071 192564285
L217097500 192850000
L217097500 193207142
L217026071 193492857
L216954642 193635714
L216883214 193707142
L216740357 193778571
L216597500 193778571
L216454642 193707142
L216383214 193635714
L216311785 193492857
L216240357 193207142
L216240357 192850000
L216311785 192564285
L216383214 192421428
L216454642 192350000
L216597500 192278571
" />
<path d="M217740357 193207142
L218883214 193207142
" />
<path d="M219526071 192421428
L219597500 192350000
L219740357 192278571
L220097500 192278571
L220240357 192350000
L220311785 192421428
L220383214 192564285
L220383214 192707142
L220311785 192921428
L219454642 193778571
L220383214 193778571
" />
<path d="M221811785 193778571
L220954642 193778571
" />
<path d="M221383214 193778571
L221383214 192278571
L221240357 192492857
L221097500 192635714
L220954642 192707142
" />
<path d="M222097500 193921428
L223240357 193921428
" />
<path d="M224383214 193778571
L223526071 193778571
" />
<path d="M223954642 193778571
L223954642 192278571
L223811785 192492857
L223668928 192635714
L223526071 192707142
" />
<path d="M224883214 192278571
L225883214 192278571
L225240357 193778571
" />
<path d="M226454642 193207142
L227597500 193207142
" />
<path d="M228954642 192778571
L228954642 193778571
" />
<path d="M228597500 192207142
L228240357 193278571
L229168928 193278571
" />
<path d="M229597500 192278571
L230597500 192278571
L229954642 193778571
" />
<path d="M231168928 193207142
L232311785 193207142
" />
<path d="M233811785 193778571
L232954642 193778571
" />
<path d="M233383214 193778571
L233383214 192278571
L233240357 192492857
L233097500 192635714
L232954642 192707142
" />
<path d="M235168928 192278571
L234454642 192278571
L234383214 192992857
L234454642 192921428
L234597500 192850000
L234954642 192850000
L235097500 192921428
L235168928 192992857
L235240357 193135714
L235240357 193492857
L235168928 193635714
L235097500 193707142
L234954642 193778571
L234597500 193778571
L234454642 193707142
L234383214 193635714
" />
</g><text x="286000000.000000" y="185650000.000000"
textLength="1495000.000000" font-size="1733333.000000" lengthAdjust="spacingAndGlyphs"
text-anchor="middle" opacity="0">D</text>
<g class="stroked-text"><desc>D</desc>
<path d="M285659523 185588095
L285659523 184288095
L285969047 184288095
L286154761 184350000
L286278571 184473809
L286340476 184597619
L286402380 184845238
L286402380 185030952
L286340476 185278571
L286278571 185402380
L286154761 185526190
L285969047 185588095
L285659523 185588095
" />
</g><text x="286000000.000000" y="135650000.000000"
textLength="1495000.000000" font-size="1733333.000000" lengthAdjust="spacingAndGlyphs"
text-anchor="middle" opacity="0">C</text>
<g class="stroked-text"><desc>C</desc>
<path d="M286402380 135464285
L286340476 135526190
L286154761 135588095
L286030952 135588095
L285845238 135526190
L285721428 135402380
L285659523 135278571
L285597619 135030952
L285597619 134845238
L285659523 134597619
L285721428 134473809
L285845238 134350000
L286030952 134288095
L286154761 134288095
L286340476 134350000
L286402380 134411904
" />
</g><text x="286000000.000000" y="85650000.000000"
textLength="1495000.000000" font-size="1733333.000000" lengthAdjust="spacingAndGlyphs"
text-anchor="middle" opacity="0">B</text>
<g class="stroked-text"><desc>B</desc>
<path d="M286092857 84907142
L286278571 84969047
L286340476 85030952
L286402380 85154761
L286402380 85340476
L286340476 85464285
L286278571 85526190
L286154761 85588095
L285659523 85588095
L285659523 84288095
L286092857 84288095
L286216666 84350000
L286278571 84411904
L286340476 84535714
L286340476 84659523
L286278571 84783333
L286216666 84845238
L286092857 84907142
L285659523 84907142
" />
</g><text x="286000000.000000" y="35650000.000000"
textLength="1309286.000000" font-size="1733333.000000" lengthAdjust="spacingAndGlyphs"
text-anchor="middle" opacity="0">A</text>
<g class="stroked-text"><desc>A</desc>
<path d="M285690476 35216666
L286309523 35216666
" />
<path d="M285566666 35588095
L286000000 34288095
L286433333 35588095
" />
</g><path d="M287000000 160000000
L285000000 160000000
" />
<path d="M287000000 110000000
L285000000 110000000
" />
<path d="M287000000 60000000
L285000000 60000000
" />
<text x="11000000.000000" y="185650000.000000"
textLength="1495000.000000" font-size="1733333.000000" lengthAdjust="spacingAndGlyphs"
text-anchor="middle" opacity="0">D</text>
<g class="stroked-text"><desc>D</desc>
<path d="M10659523 185588095
L10659523 184288095
L10969047 184288095
L11154761 184350000
L11278571 184473809
L11340476 184597619
L11402380 184845238
L11402380 185030952
L11340476 185278571
L11278571 185402380
L11154761 185526190
L10969047 185588095
L10659523 185588095
" />
</g><text x="11000000.000000" y="135650000.000000"
textLength="1495000.000000" font-size="1733333.000000" lengthAdjust="spacingAndGlyphs"
text-anchor="middle" opacity="0">C</text>
<g class="stroked-text"><desc>C</desc>
<path d="M11402380 135464285
L11340476 135526190
L11154761 135588095
L11030952 135588095
L10845238 135526190
L10721428 135402380
L10659523 135278571
L10597619 135030952
L10597619 134845238
L10659523 134597619
L10721428 134473809
L10845238 134350000
L11030952 134288095
L11154761 134288095
L11340476 134350000
L11402380 134411904
" />
</g><text x="11000000.000000" y="85650000.000000"
textLength="1495000.000000" font-size="1733333.000000" lengthAdjust="spacingAndGlyphs"
text-anchor="middle" opacity="0">B</text>
<g class="stroked-text"><desc>B</desc>
<path d="M11092857 84907142
L11278571 84969047
L11340476 85030952
L11402380 85154761
L11402380 85340476
L11340476 85464285
L11278571 85526190
L11154761 85588095
L10659523 85588095
L10659523 84288095
L11092857 84288095
L11216666 84350000
L11278571 84411904
L11340476 84535714
L11340476 84659523
L11278571 84783333
L11216666 84845238
L11092857 84907142
L10659523 84907142
" />
</g><text x="11000000.000000" y="35650000.000000"
textLength="1309286.000000" font-size="1733333.000000" lengthAdjust="spacingAndGlyphs"
text-anchor="middle" opacity="0">A</text>
<g class="stroked-text"><desc>A</desc>
<path d="M10690476 35216666
L11309523 35216666
" />
<path d="M10566666 35588095
L11000000 34288095
L11433333 35588095
" />
</g><path d="M10000000 160000000
L12000000 160000000
" />
<path d="M10000000 110000000
L12000000 110000000
" />
<path d="M10000000 60000000
L12000000 60000000
" />
<text x="285000000.000000" y="199650000.000000"
textLength="1433095.000000" font-size="1733333.000000" lengthAdjust="spacingAndGlyphs"
text-anchor="start" opacity="0">6</text>
<g class="stroked-text"><desc>6</desc>
<path d="M285964166 198288095
L285716547 198288095
L285592738 198350000
L285530833 198411904
L285407023 198597619
L285345119 198845238
L285345119 199340476
L285407023 199464285
L285468928 199526190
L285592738 199588095
L285840357 199588095
L285964166 199526190
L286026071 199464285
L286087976 199340476
L286087976 199030952
L286026071 198907142
L285964166 198845238
L285840357 198783333
L285592738 198783333
L285468928 198845238
L285407023 198907142
L285345119 199030952
" />
</g><text x="235000000.000000" y="199650000.000000"
textLength="1433095.000000" font-size="1733333.000000" lengthAdjust="spacingAndGlyphs"
text-anchor="start" opacity="0">5</text>
<g class="stroked-text"><desc>5</desc>
<path d="M236026071 198288095
L235407023 198288095
L235345119 198907142
L235407023 198845238
L235530833 198783333
L235840357 198783333
L235964166 198845238
L236026071 198907142
L236087976 199030952
L236087976 199340476
L236026071 199464285
L235964166 199526190
L235840357 199588095
L235530833 199588095
L235407023 199526190
L235345119 199464285
" />
</g><text x="185000000.000000" y="199650000.000000"
textLength="1433095.000000" font-size="1733333.000000" lengthAdjust="spacingAndGlyphs"
text-anchor="start" opacity="0">4</text>
<g class="stroked-text"><desc>4</desc>
<path d="M185964166 198721428
L185964166 199588095
" />
<path d="M185654642 198226190
L185345119 199154761
L186149880 199154761
" />
</g><text x="135000000.000000" y="199650000.000000"
textLength="1433095.000000" font-size="1733333.000000" lengthAdjust="spacingAndGlyphs"
text-anchor="start" opacity="0">3</text>
<g class="stroked-text"><desc>3</desc>
<path d="M135283214 198288095
L136087976 198288095
L135654642 198783333
L135840357 198783333
L135964166 198845238
L136026071 198907142
L136087976 199030952
L136087976 199340476
L136026071 199464285
L135964166 199526190
L135840357 199588095
L135468928 199588095
L135345119 199526190
L135283214 199464285
" />
</g><text x="85000000.000000" y="199650000.000000"
textLength="1433095.000000" font-size="1733333.000000" lengthAdjust="spacingAndGlyphs"
text-anchor="start" opacity="0">2</text>
<g class="stroked-text"><desc>2</desc>
<path d="M85345119 198411904
L85407023 198350000
L85530833 198288095
L85840357 198288095
L85964166 198350000
L86026071 198411904
L86087976 198535714
L86087976 198659523
L86026071 198845238
L85283214 199588095
L86087976 199588095
" />
</g><text x="35000000.000000" y="199650000.000000"
textLength="1433095.000000" font-size="1733333.000000" lengthAdjust="spacingAndGlyphs"
text-anchor="start" opacity="0">1</text>
<g class="stroked-text"><desc>1</desc>
<path d="M36087976 199588095
L35345119 199588095
" />
<path d="M35716547 199588095
L35716547 198288095
L35592738 198473809
L35468928 198597619
L35345119 198659523
" />
</g><path d="M260000000 198000000
L260000000 200000000
" />
<path d="M210000000 198000000
L210000000 200000000
" />
<path d="M160000000 198000000
L160000000 200000000
" />
<path d="M110000000 198000000
L110000000 200000000
" />
<path d="M60000000 198000000
L60000000 200000000
" />
<text x="285000000.000000" y="11650000.000000"
textLength="1433095.000000" font-size="1733333.000000" lengthAdjust="spacingAndGlyphs"
text-anchor="start" opacity="0">6</text>
<g class="stroked-text"><desc>6</desc>
<path d="M285964166 10288095
L285716547 10288095
L285592738 10350000
L285530833 10411904
L285407023 10597619
L285345119 10845238
L285345119 11340476
L285407023 11464285
L285468928 11526190
L285592738 11588095
L285840357 11588095
L285964166 11526190
L286026071 11464285
L286087976 11340476
L286087976 11030952
L286026071 10907142
L285964166 10845238
L285840357 10783333
L285592738 10783333
L285468928 10845238
L285407023 10907142
L285345119 11030952
" />
</g><text x="235000000.000000" y="11650000.000000"
textLength="1433095.000000" font-size="1733333.000000" lengthAdjust="spacingAndGlyphs"
text-anchor="start" opacity="0">5</text>
<g class="stroked-text"><desc>5</desc>
<path d="M236026071 10288095
L235407023 10288095
L235345119 10907142
L235407023 10845238
L235530833 10783333
L235840357 10783333
L235964166 10845238
L236026071 10907142
L236087976 11030952
L236087976 11340476
L236026071 11464285
L235964166 11526190
L235840357 11588095
L235530833 11588095
L235407023 11526190
L235345119 11464285
" />
</g><text x="185000000.000000" y="11650000.000000"
textLength="1433095.000000" font-size="1733333.000000" lengthAdjust="spacingAndGlyphs"
text-anchor="start" opacity="0">4</text>
<g class="stroked-text"><desc>4</desc>
<path d="M185964166 10721428
L185964166 11588095
" />
<path d="M185654642 10226190
L185345119 11154761
L186149880 11154761
" />
</g><text x="135000000.000000" y="11650000.000000"
textLength="1433095.000000" font-size="1733333.000000" lengthAdjust="spacingAndGlyphs"
text-anchor="start" opacity="0">3</text>
<g class="stroked-text"><desc>3</desc>
<path d="M135283214 10288095
L136087976 10288095
L135654642 10783333
L135840357 10783333
L135964166 10845238
L136026071 10907142
L136087976 11030952
L136087976 11340476
L136026071 11464285
L135964166 11526190
L135840357 11588095
L135468928 11588095
L135345119 11526190
L135283214 11464285
" />
</g><text x="85000000.000000" y="11650000.000000"
textLength="1433095.000000" font-size="1733333.000000" lengthAdjust="spacingAndGlyphs"
text-anchor="start" opacity="0">2</text>
<g class="stroked-text"><desc>2</desc>
<path d="M85345119 10411904
L85407023 10350000
L85530833 10288095
L85840357 10288095
L85964166 10350000
L86026071 10411904
L86087976 10535714
L86087976 10659523
L86026071 10845238
L85283214 11588095
L86087976 11588095
" />
</g><text x="35000000.000000" y="11650000.000000"
textLength="1433095.000000" font-size="1733333.000000" lengthAdjust="spacingAndGlyphs"
text-anchor="start" opacity="0">1</text>
<g class="stroked-text"><desc>1</desc>
<path d="M36087976 11588095
L35345119 11588095
" />
<path d="M35716547 11588095
L35716547 10288095
L35592738 10473809
L35468928 10597619
L35345119 10659523
" />
</g><path d="M260000000 12000000
L260000000 10000000
" />
<path d="M210000000 12000000
L210000000 10000000
" />
<path d="M160000000 12000000
L160000000 10000000
" />
<path d="M110000000 12000000
L110000000 10000000
" />
<path d="M60000000 12000000
L60000000 10000000
" />
<path d="M12000000 12000000
L285000000 12000000
" />
<path d="M285000000 12000000
L285000000 198000000
" />
<path d="M285000000 198000000
L12000000 198000000
" />
<path d="M12000000 198000000
L12000000 12000000
" />
<path d="M10000000 10000000
L287000000 10000000
" />
<path d="M287000000 10000000
L287000000 200000000
" />
<path d="M287000000 200000000
L10000000 200000000
" />
<path d="M10000000 200000000
L10000000 10000000
" />
<path d="M177000000 166000000
L285000000 166000000
" />
<path d="M285000000 166000000
L285000000 198000000
" />
<path d="M285000000 198000000
L177000000 198000000
" />
<path d="M177000000 198000000
L177000000 166000000
" />
<g >
</g>
<g >
</g>
<g >
</g>
<g >
</g>
<g >
</g>
<g >
</g>
<g >
</g>
<g >
</g>
<g >
</g>
<g >
</g>
<g >
</g>
<g >
</g>
<g >
</g>
<g >
</g>
<g >
</g>
<g >
</g>
<g >
</g>
<g >
</g>
<g >
</g>
<g >
</g>
<g >
</g>
<g >
</g>
<g >
</g>
<g >
</g>
<g >
</g>
<g >
</g>
<g >
</g>
<g >
</g>
<g >
</g>
<g >
</g>
<g >
</g>
<g >
</g>
<g >
</g>
<g >
</g>
<g >
</g>
<g >
</g>
<g >
</g>
<g >
</g>
<g >
</g>
<g >
</g>
<g >
</g>
<g >
</g>
<g >
</g>
<g >
</g>
<g >
</g>
<g >
</g>
<g >
</g>
<g >
</g>
<g >
</g>
<g >
</g>
</g> 
</svg>
