<?xml version="1.0" standalone="no"?>
 <!DOCTYPE svg PUBLIC "-//W3C//DTD SVG 1.1//EN" 
 "http://www.w3.org/Graphics/SVG/1.1/DTD/svg11.dtd"> 
<svg
  xmlns:svg="http://www.w3.org/2000/svg"
  xmlns="http://www.w3.org/2000/svg"
  xmlns:xlink="http://www.w3.org/1999/xlink"
  version="1.1"
  width="29.700220cm" height="21.000720cm" viewBox="0 0 297002200 210007200">
<title>SVG Picture created as t1-User_Drawings.svg date 2022/09/27 14:32:46 </title>
  <desc>Picture generated by PCBNEW </desc>
<g style="fill:#000000; fill-opacity:1.000000;stroke:#000000; stroke-opacity:1.000000;
stroke-linecap:round; stroke-linejoin:round;"
 transform="translate(0 0) scale(1 1)">
</g>
<g style="fill:#000000; fill-opacity:0.0; 
stroke:#000000; stroke-width:0.000000; stroke-opacity:1; 
stroke-linecap:round; stroke-linejoin:round;">
</g>
<g style="fill:#000000; fill-opacity:0.0; 
stroke:#000000; stroke-width:150000.000000; stroke-opacity:1; 
stroke-linecap:round; stroke-linejoin:round;">
<g transform="rotate(89.998391 117100486.000000 83492254.000000)">
<text x="117100486.000000" y="83992254.000000"
textLength="9723048.000000" font-size="1333333.000000" lengthAdjust="spacingAndGlyphs"
text-anchor="middle" opacity="0">35.6156 mm</text>
</g>
<g class="stroked-text"><desc>35.6156 mm</desc>
<path d="M117647974 78825571
L117647991 79444619
L117267029 79111296
L117267033 79254154
L117219417 79349393
L117171799 79397013
L117076562 79444635
L116838467 79444642
L116743228 79397025
L116695607 79349408
L116647986 79254171
L116647978 78968457
L116695594 78873217
L116743212 78825597
" />
<path d="M117648016 80349381
L117648003 79873191
L117171811 79825585
L117219432 79873203
L117267053 79968439
L117267060 80206535
L117219444 80301774
L117171826 80349394
L117076589 80397016
L116838494 80397023
L116743254 80349406
L116695634 80301789
L116648012 80206552
L116648006 79968457
L116695622 79873217
L116743240 79825597
" />
<path d="M116743268 80825597
L116695650 80873217
L116648030 80825600
L116695647 80777979
L116743268 80825597
L116648030 80825600
" />
<path d="M117648055 81730333
L117648050 81539857
L117600428 81444620
L117552808 81397003
L117409948 81301769
L117219470 81254155
L116838518 81254166
L116743281 81301787
L116695663 81349408
L116648047 81444647
L116648052 81635123
L116695674 81730360
L116743295 81777978
L116838534 81825594
L117076629 81825588
L117171866 81777966
L117219484 81730345
L117267100 81635106
L117267095 81444630
L117219473 81349393
L117171853 81301775
L117076613 81254159
" />
<path d="M116648084 82777980
L116648068 82206552
" />
<path d="M116648076 82492266
L117648076 82492238
L117505217 82397004
L117409976 82301769
L117362354 82206532
" />
<path d="M117648110 83682714
L117648097 83206524
L117171905 83158918
L117219525 83206536
L117267147 83301773
L117267154 83539868
L117219537 83635107
L117171919 83682728
L117076683 83730349
L116838587 83730356
L116743348 83682740
L116695728 83635122
L116648106 83539885
L116648099 83301790
L116695716 83206551
L116743333 83158930
" />
<path d="M117648135 84587476
L117648130 84397000
L117600508 84301763
L117552888 84254146
L117410028 84158911
L117219551 84111298
L116838598 84111308
L116743361 84158930
L116695744 84206551
L116648127 84301790
L116648133 84492266
L116695754 84587503
L116743375 84635121
L116838614 84682737
L117076709 84682730
L117171946 84635109
L117219564 84587488
L117267180 84492249
L117267175 84301773
L117219553 84206536
L117171933 84158918
L117076693 84111302
" />
<path d="M116648171 85873219
L117314838 85873200
" />
<path d="M117219600 85873203
L117267220 85920820
L117314842 86016057
L117314846 86158914
L117267230 86254154
L117171993 86301775
L116648183 86301790
" />
<path d="M117171993 86301775
L117267232 86349392
L117314854 86444628
L117314858 86587486
L117267242 86682725
L117172005 86730347
L116648195 86730361
" />
<path d="M116648209 87206552
L117314876 87206533
" />
<path d="M117219637 87206536
L117267258 87254154
L117314880 87349390
L117314884 87492247
L117267267 87587487
L117172030 87635109
L116648221 87635123
" />
<path d="M117172030 87635109
L117267270 87682725
L117314892 87777962
L117314896 87920819
L117267279 88016058
L117172042 88063680
L116648233 88063695
" />
</g><path d="M119000000 101300000
L115364566 101300102
" />
<path d="M118999000 65684400
L115363566 65684502
" />
<path d="M115950986 101300086
L115949986 65684486
" />
<path d="M115950986 101300086
L115949986 65684486
" />
<path d="M115950986 101300086
L116537375 100173566
" />
<path d="M115950986 101300086
L115364534 100173599
" />
<path d="M115949986 65684486
L115363597 66811006
" />
<path d="M115949986 65684486
L116536438 66810973
" />
<g transform="rotate(-359.985813 150500263.000000 62611775.000000)">
<text x="150500263.000000" y="63111775.000000"
textLength="9814048.000000" font-size="1333333.000000" lengthAdjust="spacingAndGlyphs"
text-anchor="middle" opacity="0">63.0010 mm</text>
</g>
<g class="stroked-text"><desc>63.0010 mm</desc>
<path d="M146357541 62063130
L146167065 62063082
L146071815 62110678
L146024184 62158285
L145928911 62301119
L145881245 62491583
L145881150 62872536
L145928746 62967785
L145976353 63015416
L146071579 63063059
L146262055 63063106
L146357305 63015511
L146404936 62967903
L146452579 62872677
L146452638 62634582
L146405042 62539332
L146357435 62491701
L146262209 62444058
L146071732 62444011
L145976483 62491607
L145928852 62539214
L145881209 62634440
" />
<path d="M146786112 62063236
L147405160 62063389
L147071732 62444259
L147214590 62444294
L147309816 62491937
L147357423 62539568
L147405019 62634818
L147404960 62872913
L147357317 62968139
L147309686 63015746
L147214436 63063342
L146928722 63063271
L146833496 63015628
L146785888 62967998
" />
<path d="M147833507 62968257
L147881115 63015888
L147833484 63063495
L147785877 63015864
L147833507 62968257
L147833484 63063495
" />
<path d="M148500398 62063660
L148595636 62063684
L148690863 62111326
L148738470 62158957
L148786065 62254207
L148833637 62444695
L148833578 62682790
L148785912 62873255
L148738269 62968481
L148690639 63016088
L148595389 63063684
L148500151 63063660
L148404924 63016018
L148357317 62968387
L148309722 62873137
L148262150 62682649
L148262209 62444554
L148309875 62254089
L148357517 62158863
L148405148 62111256
L148500398 62063660
" />
<path d="M149452779 62063896
L149548017 62063920
L149643243 62111562
L149690851 62159193
L149738446 62254443
L149786018 62444931
L149785959 62683026
L149738293 62873491
L149690650 62968717
L149643019 63016324
L149547770 63063920
L149452531 63063896
L149357305 63016253
L149309698 62968623
L149262102 62873373
L149214531 62682885
L149214590 62444789
L149262256 62254325
L149309898 62159099
L149357529 62111492
L149452779 62063896
" />
<path d="M150738246 63064214
L150166817 63064073
" />
<path d="M150452531 63064144
L150452779 62064144
L150357506 62206977
L150262244 62302192
L150166994 62349787
" />
<path d="M151357541 62064368
L151452779 62064391
L151548005 62112034
L151595613 62159665
L151643208 62254915
L151690780 62445403
L151690721 62683498
L151643055 62873962
L151595412 62969189
L151547781 63016796
L151452531 63064391
L151357293 63064368
L151262067 63016725
L151214460 62969094
L151166864 62873844
L151119292 62683356
L151119351 62445261
L151167018 62254797
L151214660 62159570
L151262291 62111963
L151357541 62064368
" />
<path d="M152881103 63064745
L152881268 62398078
" />
<path d="M152881244 62493316
L152928875 62445709
L153024125 62398114
L153166982 62398149
L153262208 62445792
L153309804 62541042
L153309674 63064851
" />
<path d="M153309804 62541042
L153357447 62445815
L153452696 62398220
L153595554 62398255
L153690780 62445898
L153738375 62541148
L153738246 63064957
" />
<path d="M154214436 63065075
L154214601 62398409
" />
<path d="M154214578 62493647
L154262208 62446039
L154357458 62398444
L154500315 62398479
L154595542 62446122
L154643137 62541372
L154643007 63065181
" />
<path d="M154643137 62541372
L154690780 62446145
L154786030 62398550
L154928887 62398585
L155024113 62446228
L155071709 62541478
L155071579 63065287
" />
</g><path d="M118999000 65684400
L118999623 63167555
" />
<path d="M182000000 65700000
L182000623 63183155
" />
<path d="M118999478 63753975
L182000478 63769575
" />
<path d="M118999478 63753975
L182000478 63769575
" />
<path d="M118999478 63753975
L120125837 64340675
" />
<path d="M118999478 63753975
L120126127 63167833
" />
<path d="M182000478 63769575
L180874119 63182875
" />
<path d="M182000478 63769575
L180873829 64355717
" />
<g >
</g>
<g >
</g>
<g >
</g>
<g >
</g>
<g >
</g>
<g >
</g>
<g >
</g>
<g >
</g>
<g >
</g>
<g >
</g>
<g >
</g>
<g >
</g>
<g >
</g>
<g >
</g>
<g >
</g>
<g >
</g>
<g >
</g>
<g >
</g>
<g >
</g>
<g >
</g>
<g >
</g>
<g >
</g>
<g >
</g>
<g >
</g>
<g >
</g>
<g >
</g>
<g >
</g>
<g >
</g>
<g >
</g>
<g >
</g>
<g >
</g>
<g >
</g>
<g >
</g>
<g >
</g>
<g >
</g>
<g >
</g>
<g >
</g>
<g >
</g>
<g >
</g>
<g >
</g>
<g >
</g>
<g >
</g>
<g >
</g>
<g >
</g>
<g >
</g>
<g >
</g>
<g >
</g>
<g >
</g>
<g >
</g>
<g >
</g>
</g> 
</svg>
