<?xml version="1.0" standalone="no"?>
 <!DOCTYPE svg PUBLIC "-//W3C//DTD SVG 1.1//EN" 
 "http://www.w3.org/Graphics/SVG/1.1/DTD/svg11.dtd"> 
<svg
  xmlns:svg="http://www.w3.org/2000/svg"
  xmlns="http://www.w3.org/2000/svg"
  xmlns:xlink="http://www.w3.org/1999/xlink"
  version="1.1"
  width="29.700220cm" height="21.000720cm" viewBox="0 0 2970022 2100072">
<title>SVG Picture created as t1-User_Drawings.svg date 2022/12/16 11:27:02 </title>
  <desc>Picture generated by PCBNEW </desc>
<g style="fill:#000000; fill-opacity:1.000000;stroke:#000000; stroke-opacity:1.000000;
stroke-linecap:round; stroke-linejoin:round;"
 transform="translate(0 0) scale(1 1)">
</g>
<g style="fill:#000000; fill-opacity:0.0; 
stroke:#000000; stroke-width:0.000000; stroke-opacity:1; 
stroke-linecap:round; stroke-linejoin:round;">
</g>
<g style="fill:#000000; fill-opacity:0.0; 
stroke:#000000; stroke-width:1500.000000; stroke-opacity:1; 
stroke-linecap:round; stroke-linejoin:round;">
<g transform="rotate(89.998391 1171004.860000 834922.540000)">
<text x="1171004.860000" y="839922.540000"
textLength="97230.480000" font-size="13333.330000" lengthAdjust="spacingAndGlyphs"
text-anchor="middle" opacity="0">35.6156 mm</text>
</g>
<g class="stroked-text"><desc>35.6156 mm</desc>
<path d="M1176479 788255
L1176479 794446
L1172670 791112
L1172670 792541
L1172194 793493
L1171717 793970
L1170765 794446
L1168384 794446
L1167432 793970
L1166956 793494
L1166479 792541
L1166479 789684
L1166955 788732
L1167432 788255
" />
<path d="M1176480 803493
L1176480 798731
L1171718 798255
L1172194 798732
L1172670 799684
L1172670 802065
L1172194 803017
L1171718 803493
L1170765 803970
L1168384 803970
L1167432 803494
L1166956 803017
L1166480 802065
L1166480 799684
L1166956 798732
L1167432 798255
" />
<path d="M1167432 808255
L1166956 808732
L1166480 808256
L1166956 807779
L1167432 808255
L1166480 808256
" />
<path d="M1176480 817303
L1176480 815398
L1176004 814446
L1175528 813970
L1174099 813017
L1172194 812541
L1168385 812541
L1167432 813017
L1166956 813494
L1166480 814446
L1166480 816351
L1166956 817303
L1167432 817779
L1168385 818255
L1170766 818255
L1171718 817779
L1172194 817303
L1172671 816351
L1172670 814446
L1172194 813493
L1171718 813017
L1170766 812541
" />
<path d="M1166480 827779
L1166480 822065
" />
<path d="M1166480 824922
L1176480 824922
L1175052 823970
L1174099 823017
L1173623 822065
" />
<path d="M1176481 836827
L1176480 832065
L1171719 831589
L1172195 832065
L1172671 833017
L1172671 835398
L1172195 836351
L1171719 836827
L1170766 837303
L1168385 837303
L1167433 836827
L1166957 836351
L1166481 835398
L1166480 833017
L1166957 832065
L1167433 831589
" />
<path d="M1176481 845874
L1176481 843970
L1176005 843017
L1175528 842541
L1174100 841589
L1172195 841112
L1168385 841113
L1167433 841589
L1166957 842065
L1166481 843017
L1166481 844922
L1166957 845875
L1167433 846351
L1168386 846827
L1170767 846827
L1171719 846351
L1172195 845874
L1172671 844922
L1172671 843017
L1172195 842065
L1171719 841589
L1170766 841113
" />
<path d="M1166481 858732
L1173148 858732
" />
<path d="M1172196 858732
L1172672 859208
L1173148 860160
L1173148 861589
L1172672 862541
L1171719 863017
L1166481 863017
" />
<path d="M1171719 863017
L1172672 863493
L1173148 864446
L1173148 865874
L1172672 866827
L1171720 867303
L1166481 867303
" />
<path d="M1166482 872065
L1173148 872065
" />
<path d="M1172196 872065
L1172672 872541
L1173148 873493
L1173148 874922
L1172672 875874
L1171720 876351
L1166482 876351
" />
<path d="M1171720 876351
L1172672 876827
L1173148 877779
L1173148 879208
L1172672 880160
L1171720 880636
L1166482 880636
" />
</g><path d="M1190000 1013000
L1153645 1013001
" />
<path d="M1189990 656844
L1153635 656845
" />
<path d="M1159509 1013000
L1159499 656844
" />
<path d="M1159509 1013000
L1159499 656844
" />
<path d="M1159509 1013000
L1165373 1001735
" />
<path d="M1159509 1013000
L1153645 1001735
" />
<path d="M1159499 656844
L1153635 668110
" />
<path d="M1159499 656844
L1165364 668109
" />
<g transform="rotate(-359.985813 1505002.630000 626117.750000)">
<text x="1505002.630000" y="631117.750000"
textLength="98140.480000" font-size="13333.330000" lengthAdjust="spacingAndGlyphs"
text-anchor="middle" opacity="0">63.0010 mm</text>
</g>
<g class="stroked-text"><desc>63.0010 mm</desc>
<path d="M1463575 620631
L1461670 620630
L1460718 621106
L1460241 621582
L1459289 623011
L1458812 624915
L1458811 628725
L1459287 629677
L1459763 630154
L1460715 630630
L1462620 630631
L1463573 630155
L1464049 629679
L1464525 628726
L1464526 626345
L1464050 625393
L1463574 624917
L1462622 624440
L1460717 624440
L1459764 624916
L1459288 625392
L1458812 626344
" />
<path d="M1467861 620632
L1474051 620633
L1470717 624442
L1472145 624442
L1473098 624919
L1473574 625395
L1474050 626348
L1474049 628729
L1473573 629681
L1473096 630157
L1472144 630633
L1469287 630632
L1468334 630156
L1467858 629679
" />
<path d="M1478335 629682
L1478811 630158
L1478334 630634
L1477858 630158
L1478335 629682
L1478334 630634
" />
<path d="M1485003 620636
L1485956 620636
L1486908 621113
L1487384 621589
L1487860 622542
L1488336 624446
L1488335 626827
L1487859 628732
L1487382 629684
L1486906 630160
L1485953 630636
L1485001 630636
L1484049 630160
L1483573 629683
L1483097 628731
L1482621 626826
L1482622 624445
L1483098 622540
L1483575 621588
L1484051 621112
L1485003 620636
" />
<path d="M1494527 620638
L1495480 620639
L1496432 621115
L1496908 621591
L1497384 622544
L1497860 624449
L1497859 626830
L1497382 628734
L1496906 629687
L1496430 630163
L1495477 630639
L1494525 630638
L1493573 630162
L1493096 629686
L1492621 628733
L1492145 626828
L1492145 624447
L1492622 622543
L1493098 621590
L1493575 621114
L1494527 620638
" />
<path d="M1507382 630642
L1501668 630640
" />
<path d="M1504525 630641
L1504527 620641
L1503575 622069
L1502622 623021
L1501669 623497
" />
<path d="M1513575 620643
L1514527 620643
L1515480 621120
L1515956 621596
L1516432 622549
L1516907 624454
L1516907 626834
L1516430 628739
L1515954 629691
L1515477 630167
L1514525 630643
L1513572 630643
L1512620 630167
L1512144 629690
L1511668 628738
L1511192 626833
L1511193 624452
L1511670 622547
L1512146 621595
L1512622 621119
L1513575 620643
" />
<path d="M1528811 630647
L1528812 623980
" />
<path d="M1528812 624933
L1529288 624457
L1530241 623981
L1531669 623981
L1532622 624457
L1533098 625410
L1533096 630648
" />
<path d="M1533098 625410
L1533574 624458
L1534526 623982
L1535955 623982
L1536907 624458
L1537383 625411
L1537382 630649
" />
<path d="M1542144 630650
L1542146 623984
" />
<path d="M1542145 624936
L1542622 624460
L1543574 623984
L1545003 623984
L1545955 624461
L1546431 625413
L1546430 630651
" />
<path d="M1546431 625413
L1546907 624461
L1547860 623985
L1549288 623985
L1550241 624462
L1550717 625414
L1550715 630652
" />
</g><path d="M1189990 656844
L1189996 631675
" />
<path d="M1820000 657000
L1820006 631831
" />
<path d="M1189994 637539
L1820004 637695
" />
<path d="M1189994 637539
L1820004 637695
" />
<path d="M1189994 637539
L1201258 643406
" />
<path d="M1189994 637539
L1201261 631678
" />
<path d="M1820004 637695
L1808741 631828
" />
<path d="M1820004 637695
L1808738 643557
" />
<g >
</g>
<g >
</g>
<g >
</g>
<g >
</g>
<g >
</g>
<g >
</g>
<g >
</g>
<g >
</g>
<g >
</g>
<g >
</g>
<g >
</g>
<g >
</g>
<g >
</g>
<g >
</g>
<g >
</g>
<g >
</g>
<g >
</g>
<g >
</g>
<g >
</g>
<g >
</g>
<g >
</g>
<g >
</g>
<g >
</g>
<g >
</g>
<g >
</g>
<g >
</g>
<g >
</g>
<g >
</g>
<g >
</g>
<g >
</g>
<g >
</g>
<g >
</g>
<g >
</g>
<g >
</g>
<g >
</g>
<g >
</g>
<g >
</g>
<g >
</g>
<g >
</g>
<g >
</g>
<g >
</g>
<g >
</g>
<g >
</g>
<g >
</g>
<g >
</g>
<g >
</g>
<g >
</g>
<g >
</g>
<g >
</g>
<g >
</g>
</g> 
</svg>
