<!DOCTYPE svg PUBLIC "-//W3C//DTD SVG 1.1//EN" "http://www.w3.org/Graphics/SVG/1.1/DTD/svg11.dtd">
<svg xmlns="http://www.w3.org/2000/svg" version="1.1" width="77.001037mm" height="39.611577mm" viewBox="112.165963 61.763525 77.001037 39.611577999999994">
            <title>Picture generated by PcbDraw </title>
            <desc>Picture generated by PcbDraw</desc>
        <defs><clipPath id="cut-off"><path d=" M 182.0 101.3 L 182.0 65.7 L 119.0 65.7 L 119.0 101.3 L 182.0 101.3 " style="fill-rule: evenodd;"/></clipPath><mask id="pads-mask"><g style="fill:#ffffff; fill-opacity:1.0000;stroke:#ffffff; stroke-opacity:1.0000; stroke-linecap:round; stroke-linejoin:round;" transform="translate(0 0) scale(1 1)">
<path style="fill:#ffffff; fill-opacity:1.0000; stroke:none;fill-rule:evenodd;" d="M 131.8754,89.8444 131.9749,89.8642 132.0592,89.9206 132.1156,90.0049 132.1354,90.1044 132.1354,93.1844 132.1156,93.2839 132.0592,93.3682 131.9749,93.4246 131.8754,93.4444 129.7954,93.4444 129.6959,93.4246 129.6116,93.3682 129.5552,93.2839 129.5354,93.1844 129.5354,90.1044 129.5552,90.0049 129.6116,89.9206 129.6959,89.8642 129.7954,89.8444 Z"/> 
<path style="fill:#ffffff; fill-opacity:1.0000; stroke:none;fill-rule:evenodd;" d="M 131.8754,96.3444 131.9749,96.3642 132.0592,96.4206 132.1156,96.5049 132.1354,96.6044 132.1354,99.6844 132.1156,99.7839 132.0592,99.8682 131.9749,99.9246 131.8754,99.9444 129.7954,99.9444 129.6959,99.9246 129.6116,99.8682 129.5552,99.7839 129.5354,99.6844 129.5354,96.6044 129.5552,96.5049 129.6116,96.4206 129.6959,96.3642 129.7954,96.3444 Z"/> 
<path style="fill:#ffffff; fill-opacity:1.0000; stroke:none;fill-rule:evenodd;" d="M 121.5250,90.4188 121.5455,90.3159 121.6037,90.2287 121.6909,90.1705 121.7937,90.1500 122.3312,90.1500 122.4341,90.1705 122.5213,90.2287 122.5795,90.3159 122.6000,90.4188 122.6000,91.3812 122.5795,91.4841 122.5213,91.5713 122.4341,91.6295 122.3312,91.6500 121.7937,91.6500 121.6909,91.6295 121.6037,91.5713 121.5455,91.4841 121.5250,91.3812 Z"/> 
<path style="fill:#ffffff; fill-opacity:1.0000; stroke:none;fill-rule:evenodd;" d="M 123.4000,90.4188 123.4205,90.3159 123.4787,90.2287 123.5659,90.1705 123.6687,90.1500 124.2062,90.1500 124.3091,90.1705 124.3963,90.2287 124.4545,90.3159 124.4750,90.4188 124.4750,91.3812 124.4545,91.4841 124.3963,91.5713 124.3091,91.6295 124.2062,91.6500 123.6687,91.6500 123.5659,91.6295 123.4787,91.5713 123.4205,91.4841 123.4000,91.3812 Z"/> 
<path style="fill:#ffffff; fill-opacity:1.0000; stroke:none;fill-rule:evenodd;" d="M 162.7412,73.6410 162.8441,73.6615 162.9313,73.7197 162.9895,73.8069 163.0100,73.9098 163.0100,74.4472 162.9895,74.5501 162.9313,74.6373 162.8441,74.6955 162.7412,74.7160 161.7788,74.7160 161.6759,74.6955 161.5887,74.6373 161.5305,74.5501 161.5100,74.4472 161.5100,73.9098 161.5305,73.8069 161.5887,73.7197 161.6759,73.6615 161.7788,73.6410 Z"/> 
<path style="fill:#ffffff; fill-opacity:1.0000; stroke:none;fill-rule:evenodd;" d="M 162.7412,75.5160 162.8441,75.5365 162.9313,75.5947 162.9895,75.6819 163.0100,75.7848 163.0100,76.3222 162.9895,76.4251 162.9313,76.5123 162.8441,76.5705 162.7412,76.5910 161.7788,76.5910 161.6759,76.5705 161.5887,76.5123 161.5305,76.4251 161.5100,76.3222 161.5100,75.7848 161.5305,75.6819 161.5887,75.5947 161.6759,75.5365 161.7788,75.5160 Z"/> 
<path style="fill:#ffffff; fill-opacity:1.0000; stroke:none;fill-rule:evenodd;" d="M 156.3912,73.6410 156.4941,73.6615 156.5813,73.7197 156.6395,73.8069 156.6600,73.9098 156.6600,74.4472 156.6395,74.5501 156.5813,74.6373 156.4941,74.6955 156.3912,74.7160 155.4287,74.7160 155.3259,74.6955 155.2387,74.6373 155.1805,74.5501 155.1600,74.4472 155.1600,73.9098 155.1805,73.8069 155.2387,73.7197 155.3259,73.6615 155.4287,73.6410 Z"/> 
<path style="fill:#ffffff; fill-opacity:1.0000; stroke:none;fill-rule:evenodd;" d="M 156.3912,75.5160 156.4941,75.5365 156.5813,75.5947 156.6395,75.6819 156.6600,75.7848 156.6600,76.3222 156.6395,76.4251 156.5813,76.5123 156.4941,76.5705 156.3912,76.5910 155.4287,76.5910 155.3259,76.5705 155.2387,76.5123 155.1805,76.4251 155.1600,76.3222 155.1600,75.7848 155.1805,75.6819 155.2387,75.5947 155.3259,75.5365 155.4287,75.5160 Z"/> 
<path style="fill:#ffffff; fill-opacity:1.0000; stroke:none;fill-rule:evenodd;" d="M 163.8032,87.6790 163.9061,87.6995 163.9933,87.7577 164.0515,87.8449 164.0720,87.9477 164.0720,88.4852 164.0515,88.5881 163.9933,88.6753 163.9061,88.7335 163.8032,88.7540 162.8407,88.7540 162.7379,88.7335 162.6507,88.6753 162.5925,88.5881 162.5720,88.4852 162.5720,87.9477 162.5925,87.8449 162.6507,87.7577 162.7379,87.6995 162.8407,87.6790 Z"/> 
<path style="fill:#ffffff; fill-opacity:1.0000; stroke:none;fill-rule:evenodd;" d="M 163.8032,89.5540 163.9061,89.5745 163.9933,89.6327 164.0515,89.7199 164.0720,89.8227 164.0720,90.3602 164.0515,90.4631 163.9933,90.5503 163.9061,90.6085 163.8032,90.6290 162.8407,90.6290 162.7379,90.6085 162.6507,90.5503 162.5925,90.4631 162.5720,90.3602 162.5720,89.8227 162.5925,89.7199 162.6507,89.6327 162.7379,89.5745 162.8407,89.5540 Z"/> 
<path style="fill:#ffffff; fill-opacity:1.0000; stroke:none;fill-rule:evenodd;" d="M 152.4998,78.3858 152.5203,78.2829 152.5785,78.1957 152.6657,78.1375 152.7686,78.1170 153.3060,78.1170 153.4089,78.1375 153.4961,78.1957 153.5543,78.2829 153.5748,78.3858 153.5748,79.3482 153.5543,79.4511 153.4961,79.5383 153.4089,79.5965 153.3060,79.6170 152.7686,79.6170 152.6657,79.5965 152.5785,79.5383 152.5203,79.4511 152.4998,79.3482 Z"/> 
<path style="fill:#ffffff; fill-opacity:1.0000; stroke:none;fill-rule:evenodd;" d="M 154.3748,78.3858 154.3953,78.2829 154.4535,78.1957 154.5407,78.1375 154.6436,78.1170 155.1810,78.1170 155.2839,78.1375 155.3711,78.1957 155.4293,78.2829 155.4498,78.3858 155.4498,79.3482 155.4293,79.4511 155.3711,79.5383 155.2839,79.5965 155.1810,79.6170 154.6436,79.6170 154.5407,79.5965 154.4535,79.5383 154.3953,79.4511 154.3748,79.3482 Z"/> 
<path style="fill:#ffffff; fill-opacity:1.0000; stroke:none;fill-rule:evenodd;" d="M 144.2733,80.4436 144.1705,80.4231 144.0833,80.3649 144.0251,80.2777 144.0046,80.1748 144.0046,79.6373 144.0251,79.5345 144.0833,79.4473 144.1705,79.3891 144.2733,79.3686 145.2358,79.3686 145.3387,79.3891 145.4259,79.4473 145.4841,79.5345 145.5046,79.6373 145.5046,80.1748 145.4841,80.2777 145.4259,80.3649 145.3387,80.4231 145.2358,80.4436 Z"/> 
<path style="fill:#ffffff; fill-opacity:1.0000; stroke:none;fill-rule:evenodd;" d="M 144.2733,78.5686 144.1705,78.5481 144.0833,78.4899 144.0251,78.4027 144.0046,78.2998 144.0046,77.7623 144.0251,77.6595 144.0833,77.5723 144.1705,77.5141 144.2733,77.4936 145.2358,77.4936 145.3387,77.5141 145.4259,77.5723 145.4841,77.6595 145.5046,77.7623 145.5046,78.2998 145.4841,78.4027 145.4259,78.4899 145.3387,78.5481 145.2358,78.5686 Z"/> 
<path style="fill:#ffffff; fill-opacity:1.0000; stroke:none;fill-rule:evenodd;" d="M 162.1590,98.8490 162.0557,98.8284 161.9681,98.7699 161.9096,98.6823 161.8890,98.5790 161.8890,97.7690 161.9096,97.6657 161.9681,97.5781 162.0557,97.5196 162.1590,97.4990 163.4690,97.4990 163.5723,97.5196 163.6599,97.5781 163.7184,97.6657 163.7390,97.7690 163.7390,98.5790 163.7184,98.6823 163.6599,98.7699 163.5723,98.8284 163.4690,98.8490 Z"/> 
<path style="fill:#ffffff; fill-opacity:1.0000; stroke:none;fill-rule:evenodd;" d="M 162.1590,96.0490 162.0557,96.0284 161.9681,95.9699 161.9096,95.8823 161.8890,95.7790 161.8890,94.9690 161.9096,94.8657 161.9681,94.7781 162.0557,94.7196 162.1590,94.6990 163.4690,94.6990 163.5723,94.7196 163.6599,94.7781 163.7184,94.8657 163.7390,94.9690 163.7390,95.7790 163.7184,95.8823 163.6599,95.9699 163.5723,96.0284 163.4690,96.0490 Z"/> 
<path style="fill:#ffffff; fill-opacity:1.0000; stroke:none;fill-rule:evenodd;" d="M 146.8388,76.4250 146.7359,76.4045 146.6487,76.3463 146.5905,76.2591 146.5700,76.1562 146.5700,75.6187 146.5905,75.5159 146.6487,75.4287 146.7359,75.3705 146.8388,75.3500 147.8012,75.3500 147.9041,75.3705 147.9913,75.4287 148.0495,75.5159 148.0700,75.6187 148.0700,76.1562 148.0495,76.2591 147.9913,76.3463 147.9041,76.4045 147.8012,76.4250 Z"/> 
<path style="fill:#ffffff; fill-opacity:1.0000; stroke:none;fill-rule:evenodd;" d="M 146.8388,74.5500 146.7359,74.5295 146.6487,74.4713 146.5905,74.3841 146.5700,74.2812 146.5700,73.7437 146.5905,73.6409 146.6487,73.5537 146.7359,73.4955 146.8388,73.4750 147.8012,73.4750 147.9041,73.4955 147.9913,73.5537 148.0495,73.6409 148.0700,73.7437 148.0700,74.2812 148.0495,74.3841 147.9913,74.4713 147.9041,74.5295 147.8012,74.5500 Z"/> 
<path style="fill:#ffffff; fill-opacity:1.0000; stroke:none;fill-rule:evenodd;" d="M 144.2987,76.4250 144.1959,76.4045 144.1087,76.3463 144.0505,76.2591 144.0300,76.1562 144.0300,75.6187 144.0505,75.5159 144.1087,75.4287 144.1959,75.3705 144.2987,75.3500 145.2612,75.3500 145.3641,75.3705 145.4513,75.4287 145.5095,75.5159 145.5300,75.6187 145.5300,76.1562 145.5095,76.2591 145.4513,76.3463 145.3641,76.4045 145.2612,76.4250 Z"/> 
<path style="fill:#ffffff; fill-opacity:1.0000; stroke:none;fill-rule:evenodd;" d="M 144.2987,74.5500 144.1959,74.5295 144.1087,74.4713 144.0505,74.3841 144.0300,74.2812 144.0300,73.7437 144.0505,73.6409 144.1087,73.5537 144.1959,73.4955 144.2987,73.4750 145.2612,73.4750 145.3641,73.4955 145.4513,73.5537 145.5095,73.6409 145.5300,73.7437 145.5300,74.2812 145.5095,74.3841 145.4513,74.4713 145.3641,74.5295 145.2612,74.5500 Z"/> 
<path style="fill:#ffffff; fill-opacity:1.0000; stroke:none;fill-rule:evenodd;" d="M 165.1440,75.7382 165.1647,75.6340 165.2237,75.5457 165.3120,75.4867 165.4162,75.4660 166.0968,75.4660 166.2010,75.4867 166.2893,75.5457 166.3483,75.6340 166.3690,75.7382 166.3690,78.6938 166.3483,78.7980 166.2893,78.8863 166.2010,78.9453 166.0968,78.9660 165.4162,78.9660 165.3120,78.9453 165.2237,78.8863 165.1647,78.7980 165.1440,78.6938 Z"/> 
<path style="fill:#ffffff; fill-opacity:1.0000; stroke:none;fill-rule:evenodd;" d="M 169.4190,75.7382 169.4397,75.6340 169.4987,75.5457 169.5870,75.4867 169.6912,75.4660 170.3718,75.4660 170.4760,75.4867 170.5643,75.5457 170.6233,75.6340 170.6440,75.7382 170.6440,78.6938 170.6233,78.7980 170.5643,78.8863 170.4760,78.9453 170.3718,78.9660 169.6912,78.9660 169.5870,78.9453 169.4987,78.8863 169.4397,78.7980 169.4190,78.6938 Z"/> 
<path style="fill:#ffffff; fill-opacity:1.0000; stroke:none;fill-rule:evenodd;" d="M 169.3690,91.1593 169.3485,91.2621 169.2903,91.3493 169.2031,91.4075 169.1002,91.4280 168.5627,91.4280 168.4599,91.4075 168.3727,91.3493 168.3145,91.2621 168.2940,91.1593 168.2940,90.1967 168.3145,90.0939 168.3727,90.0067 168.4599,89.9485 168.5627,89.9280 169.1002,89.9280 169.2031,89.9485 169.2903,90.0067 169.3485,90.0939 169.3690,90.1967 Z"/> 
<path style="fill:#ffffff; fill-opacity:1.0000; stroke:none;fill-rule:evenodd;" d="M 167.4940,91.1593 167.4735,91.2621 167.4153,91.3493 167.3281,91.4075 167.2252,91.4280 166.6877,91.4280 166.5849,91.4075 166.4977,91.3493 166.4395,91.2621 166.4190,91.1593 166.4190,90.1967 166.4395,90.0939 166.4977,90.0067 166.5849,89.9485 166.6877,89.9280 167.2252,89.9280 167.3281,89.9485 167.4153,90.0067 167.4735,90.0939 167.4940,90.1967 Z"/> 
</g>
<g style="fill:#ffffff; fill-opacity:1.0000; stroke:none;">
<circle cx="169.4180" cy="70.6120" r="0.7500"/> 
</g>
<g style="fill:#ffffff; fill-opacity:1.0000; stroke:none;">
<circle cx="171.7040" cy="97.2820" r="0.7500"/> 
</g>
<g style="fill:#ffffff; fill-opacity:1.0000; stroke:none;">
<circle cx="129.9972" cy="70.0786" r="0.7500"/> 
</g>
<g style="fill:#ffffff; fill-opacity:1.0000; stroke:none;">
<circle cx="137.2108" cy="98.1710" r="0.7500"/> 
</g>
<g style="fill:#ffffff; fill-opacity:1.0000; stroke:none;">
<circle cx="177.0000" cy="97.0000" r="1.4000"/> 
</g>
<g style="fill:#ffffff; fill-opacity:1.0000; stroke:none;">
<circle cx="123.0000" cy="97.0000" r="1.4000"/> 
</g>
<g style="fill:#ffffff; fill-opacity:1.0000; stroke:none;">
<circle cx="123.0000" cy="69.5000" r="1.4000"/> 
</g>
<g style="fill:#ffffff; fill-opacity:1.0000; stroke:none;">
<circle cx="177.0000" cy="69.5000" r="1.4000"/> 
</g>
<g style="fill:none;  stroke:#ffffff; stroke-width:1.6000; stroke-opacity:1;  stroke-linecap:round; stroke-linejoin:round;">
<path d="M123.2000 81.4500 L123.2000 80.9500 "/>
</g>
<g style="fill:#ffffff; fill-opacity:1.0000; stroke:none;">
<circle cx="127.6000" cy="81.2000" r="1.0500"/> 
<path style="fill:#ffffff; fill-opacity:1.0000; stroke:none;fill-rule:evenodd;" d="M 122.1000,77.2500 122.0809,77.2462 122.0646,77.2354 122.0538,77.2191 122.0500,77.2000 122.0500,74.2000 122.0538,74.1809 122.0646,74.1646 122.0809,74.1538 122.1000,74.1500 124.1000,74.1500 124.1191,74.1538 124.1354,74.1646 124.1462,74.1809 124.1500,74.2000 124.1500,77.2000 124.1462,77.2191 124.1354,77.2354 124.1191,77.2462 124.1000,77.2500 Z"/> 
<path style="fill:#ffffff; fill-opacity:1.0000; stroke:none;fill-rule:evenodd;" d="M 128.1000,77.2500 128.0809,77.2462 128.0646,77.2354 128.0538,77.2191 128.0500,77.2000 128.0500,74.2000 128.0538,74.1809 128.0646,74.1646 128.0809,74.1538 128.1000,74.1500 130.1000,74.1500 130.1191,74.1538 130.1354,74.1646 130.1462,74.1809 130.1500,74.2000 130.1500,77.2000 130.1462,77.2191 130.1354,77.2354 130.1191,77.2462 130.1000,77.2500 Z"/> 
<path style="fill:#ffffff; fill-opacity:1.0000; stroke:none;fill-rule:evenodd;" d="M 128.1000,88.2500 128.0809,88.2462 128.0646,88.2354 128.0538,88.2191 128.0500,88.2000 128.0500,85.2000 128.0538,85.1809 128.0646,85.1646 128.0809,85.1538 128.1000,85.1500 130.1000,85.1500 130.1191,85.1538 130.1354,85.1646 130.1462,85.1809 130.1500,85.2000 130.1500,88.2000 130.1462,88.2191 130.1354,88.2354 130.1191,88.2462 130.1000,88.2500 Z"/> 
<path style="fill:#ffffff; fill-opacity:1.0000; stroke:none;fill-rule:evenodd;" d="M 122.1000,88.2500 122.0809,88.2462 122.0646,88.2354 122.0538,88.2191 122.0500,88.2000 122.0500,85.2000 122.0538,85.1809 122.0646,85.1646 122.0809,85.1538 122.1000,85.1500 124.1000,85.1500 124.1191,85.1538 124.1354,85.1646 124.1462,85.1809 124.1500,85.2000 124.1500,88.2000 124.1462,88.2191 124.1354,88.2354 124.1191,88.2462 124.1000,88.2500 Z"/> 
<path style="fill:#ffffff; fill-opacity:1.0000; stroke:none;fill-rule:evenodd;" d="M 137.2000,80.3500 137.1962,80.3691 137.1854,80.3854 137.1691,80.3962 137.1500,80.4000 135.4500,80.4000 135.4309,80.3962 135.4146,80.3854 135.4038,80.3691 135.4000,80.3500 135.4000,78.6500 135.4038,78.6309 135.4146,78.6146 135.4309,78.6038 135.4500,78.6000 137.1500,78.6000 137.1691,78.6038 137.1854,78.6146 137.1962,78.6309 137.2000,78.6500 Z"/> 
</g>
<g style="fill:#ffffff; fill-opacity:1.0000; stroke:none;">
<circle cx="136.3000" cy="76.9600" r="0.9000"/> 
<circle cx="136.3000" cy="74.4200" r="0.9000"/> 
<circle cx="136.3000" cy="71.8800" r="0.9000"/> 
<circle cx="136.3000" cy="69.3400" r="0.9000"/> 
<path style="fill:#ffffff; fill-opacity:1.0000; stroke:none;fill-rule:evenodd;" d="M 150.9920,94.4000 150.9958,94.3809 151.0066,94.3646 151.0229,94.3538 151.0420,94.3500 152.7420,94.3500 152.7611,94.3538 152.7774,94.3646 152.7882,94.3809 152.7920,94.4000 152.7920,96.1000 152.7882,96.1191 152.7774,96.1354 152.7611,96.1462 152.7420,96.1500 151.0420,96.1500 151.0229,96.1462 151.0066,96.1354 150.9958,96.1191 150.9920,96.1000 Z"/> 
<circle cx="154.4320" cy="95.2500" r="0.9000"/> 
<circle cx="151.8920" cy="97.7900" r="0.9000"/> 
<circle cx="154.4320" cy="97.7900" r="0.9000"/> 
<path style="fill:#ffffff; fill-opacity:1.0000; stroke:none;fill-rule:evenodd;" d="M 140.2724,98.6646 140.2533,98.6608 140.2370,98.6500 140.2262,98.6337 140.2224,98.6146 140.2224,96.9146 140.2262,96.8955 140.2370,96.8792 140.2533,96.8684 140.2724,96.8646 141.9724,96.8646 141.9915,96.8684 142.0078,96.8792 142.0186,96.8955 142.0224,96.9146 142.0224,98.6146 142.0186,98.6337 142.0078,98.6500 141.9915,98.6608 141.9724,98.6646 Z"/> 
<circle cx="141.1224" cy="95.2246" r="0.9000"/> 
<circle cx="143.6624" cy="97.7646" r="0.9000"/> 
<circle cx="143.6624" cy="95.2246" r="0.9000"/> 
<circle cx="146.2024" cy="97.7646" r="0.9000"/> 
<circle cx="146.2024" cy="95.2246" r="0.9000"/> 
<path style="fill:#ffffff; fill-opacity:1.0000; stroke:none;fill-rule:evenodd;" d="M 140.0700,76.3660 140.0738,76.3469 140.0846,76.3306 140.1009,76.3198 140.1200,76.3160 141.8200,76.3160 141.8391,76.3198 141.8554,76.3306 141.8662,76.3469 141.8700,76.3660 141.8700,78.0660 141.8662,78.0851 141.8554,78.1014 141.8391,78.1122 141.8200,78.1160 140.1200,78.1160 140.1009,78.1122 140.0846,78.1014 140.0738,78.0851 140.0700,78.0660 Z"/> 
<circle cx="140.9700" cy="79.7560" r="0.9000"/> 
<circle cx="140.9700" cy="82.2960" r="0.9000"/> 
<circle cx="140.9700" cy="84.8360" r="0.9000"/> 
<circle cx="140.9700" cy="87.3760" r="0.9000"/> 
<circle cx="140.9700" cy="89.9160" r="0.9000"/> 
<path style="fill:#ffffff; fill-opacity:1.0000; stroke:none;fill-rule:evenodd;" d="M 168.0444,95.6688 168.0090,95.6834 166.5090,95.6834 166.4736,95.6688 166.4590,95.6334 166.4590,95.1334 166.4641,95.1211 166.4641,95.0622 166.4661,95.0482 166.5062,94.9116 166.5121,94.8987 166.5891,94.7789 166.5984,94.7682 166.7059,94.6750 166.7179,94.6673 166.8474,94.6082 166.8610,94.6042 167.0019,94.5839 167.0090,94.5834 167.5090,94.5834 167.5161,94.5839 167.6570,94.6042 167.6706,94.6082 167.8001,94.6673 167.8121,94.6750 167.9196,94.7682 167.9289,94.7789 168.0059,94.8987 168.0118,94.9116 168.0519,95.0482 168.0539,95.0622 168.0539,95.1211 168.0590,95.1334 168.0590,95.6334 Z"/> 
<path style="fill:#ffffff; fill-opacity:1.0000; stroke:none;fill-rule:evenodd;" d="M 168.0539,96.4457 168.0539,96.5046 168.0519,96.5186 168.0118,96.6552 168.0059,96.6681 167.9289,96.7879 167.9196,96.7986 167.8121,96.8918 167.8001,96.8995 167.6706,96.9586 167.6570,96.9626 167.5161,96.9829 167.5090,96.9834 167.0090,96.9834 167.0019,96.9829 166.8610,96.9626 166.8474,96.9586 166.7179,96.8995 166.7059,96.8918 166.5984,96.7986 166.5891,96.7879 166.5121,96.6681 166.5062,96.6552 166.4661,96.5186 166.4641,96.5046 166.4641,96.4457 166.4590,96.4334 166.4590,95.9334 166.4736,95.8980 166.5090,95.8834 168.0090,95.8834 168.0444,95.8980 168.0590,95.9334 168.0590,96.4334 Z"/> 
<path style="fill:#ffffff; fill-opacity:1.0000; stroke:none;fill-rule:evenodd;" d="M 164.8950,85.6247 164.9155,85.5219 164.9737,85.4347 165.0609,85.3765 165.1637,85.3560 165.7012,85.3560 165.8041,85.3765 165.8913,85.4347 165.9495,85.5219 165.9700,85.6247 165.9700,86.5872 165.9495,86.6901 165.8913,86.7773 165.8041,86.8355 165.7012,86.8560 165.1637,86.8560 165.0609,86.8355 164.9737,86.7773 164.9155,86.6901 164.8950,86.5872 Z"/> 
<path style="fill:#ffffff; fill-opacity:1.0000; stroke:none;fill-rule:evenodd;" d="M 166.7700,85.6247 166.7905,85.5219 166.8487,85.4347 166.9359,85.3765 167.0387,85.3560 167.5762,85.3560 167.6791,85.3765 167.7663,85.4347 167.8245,85.5219 167.8450,85.6247 167.8450,86.5872 167.8245,86.6901 167.7663,86.7773 167.6791,86.8355 167.5762,86.8560 167.0387,86.8560 166.9359,86.8355 166.8487,86.7773 166.7905,86.6901 166.7700,86.5872 Z"/> 
<path style="fill:#ffffff; fill-opacity:1.0000; stroke:none;fill-rule:evenodd;" d="M 164.8950,83.3387 164.9155,83.2359 164.9737,83.1487 165.0609,83.0905 165.1637,83.0700 165.7012,83.0700 165.8041,83.0905 165.8913,83.1487 165.9495,83.2359 165.9700,83.3387 165.9700,84.3012 165.9495,84.4041 165.8913,84.4913 165.8041,84.5495 165.7012,84.5700 165.1637,84.5700 165.0609,84.5495 164.9737,84.4913 164.9155,84.4041 164.8950,84.3012 Z"/> 
<path style="fill:#ffffff; fill-opacity:1.0000; stroke:none;fill-rule:evenodd;" d="M 166.7700,83.3387 166.7905,83.2359 166.8487,83.1487 166.9359,83.0905 167.0387,83.0700 167.5762,83.0700 167.6791,83.0905 167.7663,83.1487 167.8245,83.2359 167.8450,83.3387 167.8450,84.3012 167.8245,84.4041 167.7663,84.4913 167.6791,84.5495 167.5762,84.5700 167.0387,84.5700 166.9359,84.5495 166.8487,84.4913 166.7905,84.4041 166.7700,84.3012 Z"/> 
<path style="fill:#ffffff; fill-opacity:1.0000; stroke:none;fill-rule:evenodd;" d="M 160.4330,76.3593 160.4125,76.4621 160.3543,76.5493 160.2671,76.6075 160.1642,76.6280 159.6267,76.6280 159.5239,76.6075 159.4367,76.5493 159.3785,76.4621 159.3580,76.3593 159.3580,75.3967 159.3785,75.2939 159.4367,75.2067 159.5239,75.1485 159.6267,75.1280 160.1642,75.1280 160.2671,75.1485 160.3543,75.2067 160.4125,75.2939 160.4330,75.3967 Z"/> 
<path style="fill:#ffffff; fill-opacity:1.0000; stroke:none;fill-rule:evenodd;" d="M 158.5580,76.3593 158.5375,76.4621 158.4793,76.5493 158.3921,76.6075 158.2892,76.6280 157.7517,76.6280 157.6489,76.6075 157.5617,76.5493 157.5035,76.4621 157.4830,76.3593 157.4830,75.3967 157.5035,75.2939 157.5617,75.2067 157.6489,75.1485 157.7517,75.1280 158.2892,75.1280 158.3921,75.1485 158.4793,75.2067 158.5375,75.2939 158.5580,75.3967 Z"/> 
<path style="fill:#ffffff; fill-opacity:1.0000; stroke:none;fill-rule:evenodd;" d="M 158.5228,97.2330 158.4199,97.2125 158.3327,97.1543 158.2745,97.0671 158.2540,96.9642 158.2540,96.4267 158.2745,96.3239 158.3327,96.2367 158.4199,96.1785 158.5228,96.1580 159.4852,96.1580 159.5881,96.1785 159.6753,96.2367 159.7335,96.3239 159.7540,96.4267 159.7540,96.9642 159.7335,97.0671 159.6753,97.1543 159.5881,97.2125 159.4852,97.2330 Z"/> 
<path style="fill:#ffffff; fill-opacity:1.0000; stroke:none;fill-rule:evenodd;" d="M 158.5228,95.3580 158.4199,95.3375 158.3327,95.2793 158.2745,95.1921 158.2540,95.0892 158.2540,94.5517 158.2745,94.4489 158.3327,94.3617 158.4199,94.3035 158.5228,94.2830 159.4852,94.2830 159.5881,94.3035 159.6753,94.3617 159.7335,94.4489 159.7540,94.5517 159.7540,95.0892 159.7335,95.1921 159.6753,95.2793 159.5881,95.3375 159.4852,95.3580 Z"/> 
<path style="fill:#ffffff; fill-opacity:1.0000; stroke:none;fill-rule:evenodd;" d="M 145.2358,81.3290 145.3387,81.3495 145.4259,81.4077 145.4841,81.4949 145.5046,81.5977 145.5046,82.1352 145.4841,82.2381 145.4259,82.3253 145.3387,82.3835 145.2358,82.4040 144.2733,82.4040 144.1705,82.3835 144.0833,82.3253 144.0251,82.2381 144.0046,82.1352 144.0046,81.5977 144.0251,81.4949 144.0833,81.4077 144.1705,81.3495 144.2733,81.3290 Z"/> 
<path style="fill:#ffffff; fill-opacity:1.0000; stroke:none;fill-rule:evenodd;" d="M 145.2358,83.2040 145.3387,83.2245 145.4259,83.2827 145.4841,83.3699 145.5046,83.4727 145.5046,84.0102 145.4841,84.1131 145.4259,84.2003 145.3387,84.2585 145.2358,84.2790 144.2733,84.2790 144.1705,84.2585 144.0833,84.2003 144.0251,84.1131 144.0046,84.0102 144.0046,83.4727 144.0251,83.3699 144.0833,83.2827 144.1705,83.2245 144.2733,83.2040 Z"/> 
<path style="fill:#ffffff; fill-opacity:1.0000; stroke:none;fill-rule:evenodd;" d="M 147.8012,68.6998 147.9041,68.7203 147.9913,68.7785 148.0495,68.8657 148.0700,68.9685 148.0700,69.5061 148.0495,69.6089 147.9913,69.6961 147.9041,69.7543 147.8012,69.7748 146.8388,69.7748 146.7359,69.7543 146.6487,69.6961 146.5905,69.6089 146.5700,69.5061 146.5700,68.9685 146.5905,68.8657 146.6487,68.7785 146.7359,68.7203 146.8388,68.6998 Z"/> 
<path style="fill:#ffffff; fill-opacity:1.0000; stroke:none;fill-rule:evenodd;" d="M 147.8012,70.5748 147.9041,70.5953 147.9913,70.6535 148.0495,70.7407 148.0700,70.8435 148.0700,71.3811 148.0495,71.4839 147.9913,71.5711 147.9041,71.6293 147.8012,71.6498 146.8388,71.6498 146.7359,71.6293 146.6487,71.5711 146.5905,71.4839 146.5700,71.3811 146.5700,70.8435 146.5905,70.7407 146.6487,70.6535 146.7359,70.5953 146.8388,70.5748 Z"/> 
<path style="fill:#ffffff; fill-opacity:1.0000; stroke:none;fill-rule:evenodd;" d="M 145.2612,68.6998 145.3641,68.7203 145.4513,68.7785 145.5095,68.8657 145.5300,68.9685 145.5300,69.5061 145.5095,69.6089 145.4513,69.6961 145.3641,69.7543 145.2612,69.7748 144.2987,69.7748 144.1959,69.7543 144.1087,69.6961 144.0505,69.6089 144.0300,69.5061 144.0300,68.9685 144.0505,68.8657 144.1087,68.7785 144.1959,68.7203 144.2987,68.6998 Z"/> 
<path style="fill:#ffffff; fill-opacity:1.0000; stroke:none;fill-rule:evenodd;" d="M 145.2612,70.5748 145.3641,70.5953 145.4513,70.6535 145.5095,70.7407 145.5300,70.8435 145.5300,71.3811 145.5095,71.4839 145.4513,71.5711 145.3641,71.6293 145.2612,71.6498 144.2987,71.6498 144.1959,71.6293 144.1087,71.5711 144.0505,71.4839 144.0300,71.3811 144.0300,70.8435 144.0505,70.7407 144.1087,70.6535 144.1959,70.5953 144.2987,70.5748 Z"/> 
<path style="fill:#ffffff; fill-opacity:1.0000; stroke:none;fill-rule:evenodd;" d="M 170.7152,86.0755 170.8085,86.0941 170.8876,86.1469 170.9404,86.2260 170.9590,86.3192 170.9590,86.8067 170.9404,86.9000 170.8876,86.9791 170.8085,87.0319 170.7152,87.0505 170.1527,87.0505 170.0595,87.0319 169.9804,86.9791 169.9276,86.9000 169.9090,86.8067 169.9090,86.3192 169.9276,86.2260 169.9804,86.1469 170.0595,86.0941 170.1527,86.0755 Z"/> 
<path style="fill:#ffffff; fill-opacity:1.0000; stroke:none;fill-rule:evenodd;" d="M 170.7152,87.6505 170.8085,87.6691 170.8876,87.7219 170.9404,87.8010 170.9590,87.8942 170.9590,88.3817 170.9404,88.4750 170.8876,88.5541 170.8085,88.6069 170.7152,88.6255 170.1527,88.6255 170.0595,88.6069 169.9804,88.5541 169.9276,88.4750 169.9090,88.3817 169.9090,87.8942 169.9276,87.8010 169.9804,87.7219 170.0595,87.6691 170.1527,87.6505 Z"/> 
<path style="fill:#ffffff; fill-opacity:1.0000; stroke:none;fill-rule:evenodd;" d="M 161.9778,71.2278 161.9740,71.2469 161.9632,71.2632 161.9469,71.2740 161.9278,71.2778 160.0278,71.2778 160.0087,71.2740 159.9924,71.2632 159.9816,71.2469 159.9778,71.2278 159.9778,68.8278 159.9816,68.8087 159.9924,68.7924 160.0087,68.7816 160.0278,68.7778 161.9278,68.7778 161.9469,68.7816 161.9632,68.7924 161.9740,68.8087 161.9778,68.8278 Z"/> 
<path style="fill:#ffffff; fill-opacity:1.0000; stroke:none;fill-rule:evenodd;" d="M 157.8778,71.2278 157.8740,71.2469 157.8632,71.2632 157.8469,71.2740 157.8278,71.2778 155.9278,71.2778 155.9087,71.2740 155.8924,71.2632 155.8816,71.2469 155.8778,71.2278 155.8778,68.8278 155.8816,68.8087 155.8924,68.7924 155.9087,68.7816 155.9278,68.7778 157.8278,68.7778 157.8469,68.7816 157.8632,68.7924 157.8740,68.8087 157.8778,68.8278 Z"/> 
<path style="fill:#ffffff; fill-opacity:1.0000; stroke:none;fill-rule:evenodd;" d="M 172.6820,82.3840 172.6629,82.3802 172.6466,82.3694 172.6358,82.3531 172.6320,82.3340 172.6320,80.7340 172.6358,80.7149 172.6466,80.6986 172.6629,80.6878 172.6820,80.6840 174.2820,80.6840 174.3011,80.6878 174.3174,80.6986 174.3282,80.7149 174.3320,80.7340 174.3320,82.3340 174.3282,82.3531 174.3174,82.3694 174.3011,82.3802 174.2820,82.3840 Z"/> 
<circle cx="173.4820" cy="84.0340" r="0.8500"/> 
</g>
<g style="fill:#ffffff; fill-opacity:1.0000; stroke:none;">
<circle cx="175.4820" cy="84.0340" r="0.8500"/> 
</g>
<g style="fill:#ffffff; fill-opacity:1.0000; stroke:none;">
<circle cx="175.4820" cy="81.5340" r="0.8500"/> 
</g>
<g style="fill:#ffffff; fill-opacity:1.0000; stroke:none;">
<circle cx="178.3420" cy="76.7840" r="2.0500"/> 
</g>
<g style="fill:#ffffff; fill-opacity:1.0000; stroke:none;">
<circle cx="178.3420" cy="88.7840" r="2.0500"/> 
<path style="fill:#ffffff; fill-opacity:1.0000; stroke:none;fill-rule:evenodd;" d="M 157.5070,80.7520 157.5261,80.7558 157.5424,80.7666 157.5532,80.7829 157.5570,80.8020 157.5570,82.4020 157.5532,82.4211 157.5424,82.4374 157.5261,82.4482 157.5070,82.4520 156.9570,82.4520 156.9379,82.4482 156.9216,82.4374 156.9108,82.4211 156.9070,82.4020 156.9070,80.8020 156.9108,80.7829 156.9216,80.7666 156.9379,80.7558 156.9570,80.7520 Z"/> 
<path style="fill:#ffffff; fill-opacity:1.0000; stroke:none;fill-rule:evenodd;" d="M 156.7070,80.7520 156.7261,80.7558 156.7424,80.7666 156.7532,80.7829 156.7570,80.8020 156.7570,82.4020 156.7532,82.4211 156.7424,82.4374 156.7261,82.4482 156.7070,82.4520 156.1570,82.4520 156.1379,82.4482 156.1216,82.4374 156.1108,82.4211 156.1070,82.4020 156.1070,80.8020 156.1108,80.7829 156.1216,80.7666 156.1379,80.7558 156.1570,80.7520 Z"/> 
<path style="fill:#ffffff; fill-opacity:1.0000; stroke:none;fill-rule:evenodd;" d="M 155.9070,80.7520 155.9261,80.7558 155.9424,80.7666 155.9532,80.7829 155.9570,80.8020 155.9570,82.4020 155.9532,82.4211 155.9424,82.4374 155.9261,82.4482 155.9070,82.4520 155.3570,82.4520 155.3379,82.4482 155.3216,82.4374 155.3108,82.4211 155.3070,82.4020 155.3070,80.8020 155.3108,80.7829 155.3216,80.7666 155.3379,80.7558 155.3570,80.7520 Z"/> 
<path style="fill:#ffffff; fill-opacity:1.0000; stroke:none;fill-rule:evenodd;" d="M 155.1070,80.7520 155.1261,80.7558 155.1424,80.7666 155.1532,80.7829 155.1570,80.8020 155.1570,82.4020 155.1532,82.4211 155.1424,82.4374 155.1261,82.4482 155.1070,82.4520 154.5570,82.4520 154.5379,82.4482 154.5216,82.4374 154.5108,82.4211 154.5070,82.4020 154.5070,80.8020 154.5108,80.7829 154.5216,80.7666 154.5379,80.7558 154.5570,80.7520 Z"/> 
<path style="fill:#ffffff; fill-opacity:1.0000; stroke:none;fill-rule:evenodd;" d="M 154.3070,80.7520 154.3261,80.7558 154.3424,80.7666 154.3532,80.7829 154.3570,80.8020 154.3570,82.4020 154.3532,82.4211 154.3424,82.4374 154.3261,82.4482 154.3070,82.4520 153.7570,82.4520 153.7379,82.4482 153.7216,82.4374 153.7108,82.4211 153.7070,82.4020 153.7070,80.8020 153.7108,80.7829 153.7216,80.7666 153.7379,80.7558 153.7570,80.7520 Z"/> 
<path style="fill:#ffffff; fill-opacity:1.0000; stroke:none;fill-rule:evenodd;" d="M 153.5070,80.7520 153.5261,80.7558 153.5424,80.7666 153.5532,80.7829 153.5570,80.8020 153.5570,82.4020 153.5532,82.4211 153.5424,82.4374 153.5261,82.4482 153.5070,82.4520 152.9570,82.4520 152.9379,82.4482 152.9216,82.4374 152.9108,82.4211 152.9070,82.4020 152.9070,80.8020 152.9108,80.7829 152.9216,80.7666 152.9379,80.7558 152.9570,80.7520 Z"/> 
<path style="fill:#ffffff; fill-opacity:1.0000; stroke:none;fill-rule:evenodd;" d="M 152.7070,80.7520 152.7261,80.7558 152.7424,80.7666 152.7532,80.7829 152.7570,80.8020 152.7570,82.4020 152.7532,82.4211 152.7424,82.4374 152.7261,82.4482 152.7070,82.4520 152.1570,82.4520 152.1379,82.4482 152.1216,82.4374 152.1108,82.4211 152.1070,82.4020 152.1070,80.8020 152.1108,80.7829 152.1216,80.7666 152.1379,80.7558 152.1570,80.7520 Z"/> 
<path style="fill:#ffffff; fill-opacity:1.0000; stroke:none;fill-rule:evenodd;" d="M 151.9070,80.7520 151.9261,80.7558 151.9424,80.7666 151.9532,80.7829 151.9570,80.8020 151.9570,82.4020 151.9532,82.4211 151.9424,82.4374 151.9261,82.4482 151.9070,82.4520 151.3570,82.4520 151.3379,82.4482 151.3216,82.4374 151.3108,82.4211 151.3070,82.4020 151.3070,80.8020 151.3108,80.7829 151.3216,80.7666 151.3379,80.7558 151.3570,80.7520 Z"/> 
<path style="fill:#ffffff; fill-opacity:1.0000; stroke:none;fill-rule:evenodd;" d="M 149.3320,82.7770 149.3358,82.7579 149.3466,82.7416 149.3629,82.7308 149.3820,82.7270 150.9820,82.7270 151.0011,82.7308 151.0174,82.7416 151.0282,82.7579 151.0320,82.7770 151.0320,83.3270 151.0282,83.3461 151.0174,83.3624 151.0011,83.3732 150.9820,83.3770 149.3820,83.3770 149.3629,83.3732 149.3466,83.3624 149.3358,83.3461 149.3320,83.3270 Z"/> 
<path style="fill:#ffffff; fill-opacity:1.0000; stroke:none;fill-rule:evenodd;" d="M 149.3320,83.5770 149.3358,83.5579 149.3466,83.5416 149.3629,83.5308 149.3820,83.5270 150.9820,83.5270 151.0011,83.5308 151.0174,83.5416 151.0282,83.5579 151.0320,83.5770 151.0320,84.1270 151.0282,84.1461 151.0174,84.1624 151.0011,84.1732 150.9820,84.1770 149.3820,84.1770 149.3629,84.1732 149.3466,84.1624 149.3358,84.1461 149.3320,84.1270 Z"/> 
<path style="fill:#ffffff; fill-opacity:1.0000; stroke:none;fill-rule:evenodd;" d="M 149.3320,84.3770 149.3358,84.3579 149.3466,84.3416 149.3629,84.3308 149.3820,84.3270 150.9820,84.3270 151.0011,84.3308 151.0174,84.3416 151.0282,84.3579 151.0320,84.3770 151.0320,84.9270 151.0282,84.9461 151.0174,84.9624 151.0011,84.9732 150.9820,84.9770 149.3820,84.9770 149.3629,84.9732 149.3466,84.9624 149.3358,84.9461 149.3320,84.9270 Z"/> 
<path style="fill:#ffffff; fill-opacity:1.0000; stroke:none;fill-rule:evenodd;" d="M 149.3320,85.1770 149.3358,85.1579 149.3466,85.1416 149.3629,85.1308 149.3820,85.1270 150.9820,85.1270 151.0011,85.1308 151.0174,85.1416 151.0282,85.1579 151.0320,85.1770 151.0320,85.7270 151.0282,85.7461 151.0174,85.7624 151.0011,85.7732 150.9820,85.7770 149.3820,85.7770 149.3629,85.7732 149.3466,85.7624 149.3358,85.7461 149.3320,85.7270 Z"/> 
<path style="fill:#ffffff; fill-opacity:1.0000; stroke:none;fill-rule:evenodd;" d="M 149.3320,85.9770 149.3358,85.9579 149.3466,85.9416 149.3629,85.9308 149.3820,85.9270 150.9820,85.9270 151.0011,85.9308 151.0174,85.9416 151.0282,85.9579 151.0320,85.9770 151.0320,86.5270 151.0282,86.5461 151.0174,86.5624 151.0011,86.5732 150.9820,86.5770 149.3820,86.5770 149.3629,86.5732 149.3466,86.5624 149.3358,86.5461 149.3320,86.5270 Z"/> 
<path style="fill:#ffffff; fill-opacity:1.0000; stroke:none;fill-rule:evenodd;" d="M 149.3320,86.7770 149.3358,86.7579 149.3466,86.7416 149.3629,86.7308 149.3820,86.7270 150.9820,86.7270 151.0011,86.7308 151.0174,86.7416 151.0282,86.7579 151.0320,86.7770 151.0320,87.3270 151.0282,87.3461 151.0174,87.3624 151.0011,87.3732 150.9820,87.3770 149.3820,87.3770 149.3629,87.3732 149.3466,87.3624 149.3358,87.3461 149.3320,87.3270 Z"/> 
<path style="fill:#ffffff; fill-opacity:1.0000; stroke:none;fill-rule:evenodd;" d="M 149.3320,87.5770 149.3358,87.5579 149.3466,87.5416 149.3629,87.5308 149.3820,87.5270 150.9820,87.5270 151.0011,87.5308 151.0174,87.5416 151.0282,87.5579 151.0320,87.5770 151.0320,88.1270 151.0282,88.1461 151.0174,88.1624 151.0011,88.1732 150.9820,88.1770 149.3820,88.1770 149.3629,88.1732 149.3466,88.1624 149.3358,88.1461 149.3320,88.1270 Z"/> 
<path style="fill:#ffffff; fill-opacity:1.0000; stroke:none;fill-rule:evenodd;" d="M 149.3320,88.3770 149.3358,88.3579 149.3466,88.3416 149.3629,88.3308 149.3820,88.3270 150.9820,88.3270 151.0011,88.3308 151.0174,88.3416 151.0282,88.3579 151.0320,88.3770 151.0320,88.9270 151.0282,88.9461 151.0174,88.9624 151.0011,88.9732 150.9820,88.9770 149.3820,88.9770 149.3629,88.9732 149.3466,88.9624 149.3358,88.9461 149.3320,88.9270 Z"/> 
<path style="fill:#ffffff; fill-opacity:1.0000; stroke:none;fill-rule:evenodd;" d="M 151.9070,89.2520 151.9261,89.2558 151.9424,89.2666 151.9532,89.2829 151.9570,89.3020 151.9570,90.9020 151.9532,90.9211 151.9424,90.9374 151.9261,90.9482 151.9070,90.9520 151.3570,90.9520 151.3379,90.9482 151.3216,90.9374 151.3108,90.9211 151.3070,90.9020 151.3070,89.3020 151.3108,89.2829 151.3216,89.2666 151.3379,89.2558 151.3570,89.2520 Z"/> 
<path style="fill:#ffffff; fill-opacity:1.0000; stroke:none;fill-rule:evenodd;" d="M 152.7070,89.2520 152.7261,89.2558 152.7424,89.2666 152.7532,89.2829 152.7570,89.3020 152.7570,90.9020 152.7532,90.9211 152.7424,90.9374 152.7261,90.9482 152.7070,90.9520 152.1570,90.9520 152.1379,90.9482 152.1216,90.9374 152.1108,90.9211 152.1070,90.9020 152.1070,89.3020 152.1108,89.2829 152.1216,89.2666 152.1379,89.2558 152.1570,89.2520 Z"/> 
<path style="fill:#ffffff; fill-opacity:1.0000; stroke:none;fill-rule:evenodd;" d="M 153.5070,89.2520 153.5261,89.2558 153.5424,89.2666 153.5532,89.2829 153.5570,89.3020 153.5570,90.9020 153.5532,90.9211 153.5424,90.9374 153.5261,90.9482 153.5070,90.9520 152.9570,90.9520 152.9379,90.9482 152.9216,90.9374 152.9108,90.9211 152.9070,90.9020 152.9070,89.3020 152.9108,89.2829 152.9216,89.2666 152.9379,89.2558 152.9570,89.2520 Z"/> 
<path style="fill:#ffffff; fill-opacity:1.0000; stroke:none;fill-rule:evenodd;" d="M 154.3070,89.2520 154.3261,89.2558 154.3424,89.2666 154.3532,89.2829 154.3570,89.3020 154.3570,90.9020 154.3532,90.9211 154.3424,90.9374 154.3261,90.9482 154.3070,90.9520 153.7570,90.9520 153.7379,90.9482 153.7216,90.9374 153.7108,90.9211 153.7070,90.9020 153.7070,89.3020 153.7108,89.2829 153.7216,89.2666 153.7379,89.2558 153.7570,89.2520 Z"/> 
<path style="fill:#ffffff; fill-opacity:1.0000; stroke:none;fill-rule:evenodd;" d="M 155.1070,89.2520 155.1261,89.2558 155.1424,89.2666 155.1532,89.2829 155.1570,89.3020 155.1570,90.9020 155.1532,90.9211 155.1424,90.9374 155.1261,90.9482 155.1070,90.9520 154.5570,90.9520 154.5379,90.9482 154.5216,90.9374 154.5108,90.9211 154.5070,90.9020 154.5070,89.3020 154.5108,89.2829 154.5216,89.2666 154.5379,89.2558 154.5570,89.2520 Z"/> 
<path style="fill:#ffffff; fill-opacity:1.0000; stroke:none;fill-rule:evenodd;" d="M 155.9070,89.2520 155.9261,89.2558 155.9424,89.2666 155.9532,89.2829 155.9570,89.3020 155.9570,90.9020 155.9532,90.9211 155.9424,90.9374 155.9261,90.9482 155.9070,90.9520 155.3570,90.9520 155.3379,90.9482 155.3216,90.9374 155.3108,90.9211 155.3070,90.9020 155.3070,89.3020 155.3108,89.2829 155.3216,89.2666 155.3379,89.2558 155.3570,89.2520 Z"/> 
<path style="fill:#ffffff; fill-opacity:1.0000; stroke:none;fill-rule:evenodd;" d="M 156.7070,89.2520 156.7261,89.2558 156.7424,89.2666 156.7532,89.2829 156.7570,89.3020 156.7570,90.9020 156.7532,90.9211 156.7424,90.9374 156.7261,90.9482 156.7070,90.9520 156.1570,90.9520 156.1379,90.9482 156.1216,90.9374 156.1108,90.9211 156.1070,90.9020 156.1070,89.3020 156.1108,89.2829 156.1216,89.2666 156.1379,89.2558 156.1570,89.2520 Z"/> 
<path style="fill:#ffffff; fill-opacity:1.0000; stroke:none;fill-rule:evenodd;" d="M 157.5070,89.2520 157.5261,89.2558 157.5424,89.2666 157.5532,89.2829 157.5570,89.3020 157.5570,90.9020 157.5532,90.9211 157.5424,90.9374 157.5261,90.9482 157.5070,90.9520 156.9570,90.9520 156.9379,90.9482 156.9216,90.9374 156.9108,90.9211 156.9070,90.9020 156.9070,89.3020 156.9108,89.2829 156.9216,89.2666 156.9379,89.2558 156.9570,89.2520 Z"/> 
<path style="fill:#ffffff; fill-opacity:1.0000; stroke:none;fill-rule:evenodd;" d="M 157.8320,88.3770 157.8358,88.3579 157.8466,88.3416 157.8629,88.3308 157.8820,88.3270 159.4820,88.3270 159.5011,88.3308 159.5174,88.3416 159.5282,88.3579 159.5320,88.3770 159.5320,88.9270 159.5282,88.9461 159.5174,88.9624 159.5011,88.9732 159.4820,88.9770 157.8820,88.9770 157.8629,88.9732 157.8466,88.9624 157.8358,88.9461 157.8320,88.9270 Z"/> 
<path style="fill:#ffffff; fill-opacity:1.0000; stroke:none;fill-rule:evenodd;" d="M 157.8320,87.5770 157.8358,87.5579 157.8466,87.5416 157.8629,87.5308 157.8820,87.5270 159.4820,87.5270 159.5011,87.5308 159.5174,87.5416 159.5282,87.5579 159.5320,87.5770 159.5320,88.1270 159.5282,88.1461 159.5174,88.1624 159.5011,88.1732 159.4820,88.1770 157.8820,88.1770 157.8629,88.1732 157.8466,88.1624 157.8358,88.1461 157.8320,88.1270 Z"/> 
<path style="fill:#ffffff; fill-opacity:1.0000; stroke:none;fill-rule:evenodd;" d="M 157.8320,86.7770 157.8358,86.7579 157.8466,86.7416 157.8629,86.7308 157.8820,86.7270 159.4820,86.7270 159.5011,86.7308 159.5174,86.7416 159.5282,86.7579 159.5320,86.7770 159.5320,87.3270 159.5282,87.3461 159.5174,87.3624 159.5011,87.3732 159.4820,87.3770 157.8820,87.3770 157.8629,87.3732 157.8466,87.3624 157.8358,87.3461 157.8320,87.3270 Z"/> 
<path style="fill:#ffffff; fill-opacity:1.0000; stroke:none;fill-rule:evenodd;" d="M 157.8320,85.9770 157.8358,85.9579 157.8466,85.9416 157.8629,85.9308 157.8820,85.9270 159.4820,85.9270 159.5011,85.9308 159.5174,85.9416 159.5282,85.9579 159.5320,85.9770 159.5320,86.5270 159.5282,86.5461 159.5174,86.5624 159.5011,86.5732 159.4820,86.5770 157.8820,86.5770 157.8629,86.5732 157.8466,86.5624 157.8358,86.5461 157.8320,86.5270 Z"/> 
<path style="fill:#ffffff; fill-opacity:1.0000; stroke:none;fill-rule:evenodd;" d="M 157.8320,85.1770 157.8358,85.1579 157.8466,85.1416 157.8629,85.1308 157.8820,85.1270 159.4820,85.1270 159.5011,85.1308 159.5174,85.1416 159.5282,85.1579 159.5320,85.1770 159.5320,85.7270 159.5282,85.7461 159.5174,85.7624 159.5011,85.7732 159.4820,85.7770 157.8820,85.7770 157.8629,85.7732 157.8466,85.7624 157.8358,85.7461 157.8320,85.7270 Z"/> 
<path style="fill:#ffffff; fill-opacity:1.0000; stroke:none;fill-rule:evenodd;" d="M 157.8320,84.3770 157.8358,84.3579 157.8466,84.3416 157.8629,84.3308 157.8820,84.3270 159.4820,84.3270 159.5011,84.3308 159.5174,84.3416 159.5282,84.3579 159.5320,84.3770 159.5320,84.9270 159.5282,84.9461 159.5174,84.9624 159.5011,84.9732 159.4820,84.9770 157.8820,84.9770 157.8629,84.9732 157.8466,84.9624 157.8358,84.9461 157.8320,84.9270 Z"/> 
<path style="fill:#ffffff; fill-opacity:1.0000; stroke:none;fill-rule:evenodd;" d="M 157.8320,83.5770 157.8358,83.5579 157.8466,83.5416 157.8629,83.5308 157.8820,83.5270 159.4820,83.5270 159.5011,83.5308 159.5174,83.5416 159.5282,83.5579 159.5320,83.5770 159.5320,84.1270 159.5282,84.1461 159.5174,84.1624 159.5011,84.1732 159.4820,84.1770 157.8820,84.1770 157.8629,84.1732 157.8466,84.1624 157.8358,84.1461 157.8320,84.1270 Z"/> 
<path style="fill:#ffffff; fill-opacity:1.0000; stroke:none;fill-rule:evenodd;" d="M 157.8320,82.7770 157.8358,82.7579 157.8466,82.7416 157.8629,82.7308 157.8820,82.7270 159.4820,82.7270 159.5011,82.7308 159.5174,82.7416 159.5282,82.7579 159.5320,82.7770 159.5320,83.3270 159.5282,83.3461 159.5174,83.3624 159.5011,83.3732 159.4820,83.3770 157.8820,83.3770 157.8629,83.3732 157.8466,83.3624 157.8358,83.3461 157.8320,83.3270 Z"/> 
<path style="fill:#ffffff; fill-opacity:1.0000; stroke:none;fill-rule:evenodd;" d="M 170.1527,83.5964 170.0595,83.5778 169.9804,83.5250 169.9276,83.4459 169.9090,83.3526 169.9090,82.8651 169.9276,82.7719 169.9804,82.6928 170.0595,82.6400 170.1527,82.6214 170.7152,82.6214 170.8085,82.6400 170.8876,82.6928 170.9404,82.7719 170.9590,82.8651 170.9590,83.3526 170.9404,83.4459 170.8876,83.5250 170.8085,83.5778 170.7152,83.5964 Z"/> 
<path style="fill:#ffffff; fill-opacity:1.0000; stroke:none;fill-rule:evenodd;" d="M 170.1527,82.0214 170.0595,82.0028 169.9804,81.9500 169.9276,81.8709 169.9090,81.7776 169.9090,81.2901 169.9276,81.1969 169.9804,81.1178 170.0595,81.0650 170.1527,81.0464 170.7152,81.0464 170.8085,81.0650 170.8876,81.1178 170.9404,81.1969 170.9590,81.2901 170.9590,81.7776 170.9404,81.8709 170.8876,81.9500 170.8085,82.0028 170.7152,82.0214 Z"/> 
<path style="fill:#ffffff; fill-opacity:1.0000; stroke:none;fill-rule:evenodd;" d="M 161.9009,83.5424 161.7981,83.5219 161.7109,83.4637 161.6527,83.3765 161.6322,83.2736 161.6322,82.7361 161.6527,82.6333 161.7109,82.5461 161.7981,82.4879 161.9009,82.4674 162.8635,82.4674 162.9663,82.4879 163.0535,82.5461 163.1117,82.6333 163.1322,82.7361 163.1322,83.2736 163.1117,83.3765 163.0535,83.4637 162.9663,83.5219 162.8635,83.5424 Z"/> 
<path style="fill:#ffffff; fill-opacity:1.0000; stroke:none;fill-rule:evenodd;" d="M 161.9009,81.6674 161.7981,81.6469 161.7109,81.5887 161.6527,81.5015 161.6322,81.3986 161.6322,80.8611 161.6527,80.7583 161.7109,80.6711 161.7981,80.6129 161.9009,80.5924 162.8635,80.5924 162.9663,80.6129 163.0535,80.6711 163.1117,80.7583 163.1322,80.8611 163.1322,81.3986 163.1117,81.5015 163.0535,81.5887 162.9663,81.6469 162.8635,81.6674 Z"/> 
</g> 
</mask><mask id="pads-mask-silkscreen"><rect x="112.165963" y="61.763525" width="77.001037" height="39.611578" fill="white"/><g style="fill:#000000; fill-opacity:1.0000;stroke:#000000; stroke-opacity:1.0000; stroke-linecap:round; stroke-linejoin:round;" transform="translate(0 0) scale(1 1)">
<path style="fill:#000000; fill-opacity:1.0000; stroke:none;fill-rule:evenodd;" d="M 131.8754,89.8444 131.9749,89.8642 132.0592,89.9206 132.1156,90.0049 132.1354,90.1044 132.1354,93.1844 132.1156,93.2839 132.0592,93.3682 131.9749,93.4246 131.8754,93.4444 129.7954,93.4444 129.6959,93.4246 129.6116,93.3682 129.5552,93.2839 129.5354,93.1844 129.5354,90.1044 129.5552,90.0049 129.6116,89.9206 129.6959,89.8642 129.7954,89.8444 Z"/> 
<path style="fill:#000000; fill-opacity:1.0000; stroke:none;fill-rule:evenodd;" d="M 131.8754,96.3444 131.9749,96.3642 132.0592,96.4206 132.1156,96.5049 132.1354,96.6044 132.1354,99.6844 132.1156,99.7839 132.0592,99.8682 131.9749,99.9246 131.8754,99.9444 129.7954,99.9444 129.6959,99.9246 129.6116,99.8682 129.5552,99.7839 129.5354,99.6844 129.5354,96.6044 129.5552,96.5049 129.6116,96.4206 129.6959,96.3642 129.7954,96.3444 Z"/> 
<path style="fill:#000000; fill-opacity:1.0000; stroke:none;fill-rule:evenodd;" d="M 121.5250,90.4188 121.5455,90.3159 121.6037,90.2287 121.6909,90.1705 121.7937,90.1500 122.3312,90.1500 122.4341,90.1705 122.5213,90.2287 122.5795,90.3159 122.6000,90.4188 122.6000,91.3812 122.5795,91.4841 122.5213,91.5713 122.4341,91.6295 122.3312,91.6500 121.7937,91.6500 121.6909,91.6295 121.6037,91.5713 121.5455,91.4841 121.5250,91.3812 Z"/> 
<path style="fill:#000000; fill-opacity:1.0000; stroke:none;fill-rule:evenodd;" d="M 123.4000,90.4188 123.4205,90.3159 123.4787,90.2287 123.5659,90.1705 123.6687,90.1500 124.2062,90.1500 124.3091,90.1705 124.3963,90.2287 124.4545,90.3159 124.4750,90.4188 124.4750,91.3812 124.4545,91.4841 124.3963,91.5713 124.3091,91.6295 124.2062,91.6500 123.6687,91.6500 123.5659,91.6295 123.4787,91.5713 123.4205,91.4841 123.4000,91.3812 Z"/> 
<path style="fill:#000000; fill-opacity:1.0000; stroke:none;fill-rule:evenodd;" d="M 162.7412,73.6410 162.8441,73.6615 162.9313,73.7197 162.9895,73.8069 163.0100,73.9098 163.0100,74.4472 162.9895,74.5501 162.9313,74.6373 162.8441,74.6955 162.7412,74.7160 161.7788,74.7160 161.6759,74.6955 161.5887,74.6373 161.5305,74.5501 161.5100,74.4472 161.5100,73.9098 161.5305,73.8069 161.5887,73.7197 161.6759,73.6615 161.7788,73.6410 Z"/> 
<path style="fill:#000000; fill-opacity:1.0000; stroke:none;fill-rule:evenodd;" d="M 162.7412,75.5160 162.8441,75.5365 162.9313,75.5947 162.9895,75.6819 163.0100,75.7848 163.0100,76.3222 162.9895,76.4251 162.9313,76.5123 162.8441,76.5705 162.7412,76.5910 161.7788,76.5910 161.6759,76.5705 161.5887,76.5123 161.5305,76.4251 161.5100,76.3222 161.5100,75.7848 161.5305,75.6819 161.5887,75.5947 161.6759,75.5365 161.7788,75.5160 Z"/> 
<path style="fill:#000000; fill-opacity:1.0000; stroke:none;fill-rule:evenodd;" d="M 156.3912,73.6410 156.4941,73.6615 156.5813,73.7197 156.6395,73.8069 156.6600,73.9098 156.6600,74.4472 156.6395,74.5501 156.5813,74.6373 156.4941,74.6955 156.3912,74.7160 155.4287,74.7160 155.3259,74.6955 155.2387,74.6373 155.1805,74.5501 155.1600,74.4472 155.1600,73.9098 155.1805,73.8069 155.2387,73.7197 155.3259,73.6615 155.4287,73.6410 Z"/> 
<path style="fill:#000000; fill-opacity:1.0000; stroke:none;fill-rule:evenodd;" d="M 156.3912,75.5160 156.4941,75.5365 156.5813,75.5947 156.6395,75.6819 156.6600,75.7848 156.6600,76.3222 156.6395,76.4251 156.5813,76.5123 156.4941,76.5705 156.3912,76.5910 155.4287,76.5910 155.3259,76.5705 155.2387,76.5123 155.1805,76.4251 155.1600,76.3222 155.1600,75.7848 155.1805,75.6819 155.2387,75.5947 155.3259,75.5365 155.4287,75.5160 Z"/> 
<path style="fill:#000000; fill-opacity:1.0000; stroke:none;fill-rule:evenodd;" d="M 163.8032,87.6790 163.9061,87.6995 163.9933,87.7577 164.0515,87.8449 164.0720,87.9477 164.0720,88.4852 164.0515,88.5881 163.9933,88.6753 163.9061,88.7335 163.8032,88.7540 162.8407,88.7540 162.7379,88.7335 162.6507,88.6753 162.5925,88.5881 162.5720,88.4852 162.5720,87.9477 162.5925,87.8449 162.6507,87.7577 162.7379,87.6995 162.8407,87.6790 Z"/> 
<path style="fill:#000000; fill-opacity:1.0000; stroke:none;fill-rule:evenodd;" d="M 163.8032,89.5540 163.9061,89.5745 163.9933,89.6327 164.0515,89.7199 164.0720,89.8227 164.0720,90.3602 164.0515,90.4631 163.9933,90.5503 163.9061,90.6085 163.8032,90.6290 162.8407,90.6290 162.7379,90.6085 162.6507,90.5503 162.5925,90.4631 162.5720,90.3602 162.5720,89.8227 162.5925,89.7199 162.6507,89.6327 162.7379,89.5745 162.8407,89.5540 Z"/> 
<path style="fill:#000000; fill-opacity:1.0000; stroke:none;fill-rule:evenodd;" d="M 152.4998,78.3858 152.5203,78.2829 152.5785,78.1957 152.6657,78.1375 152.7686,78.1170 153.3060,78.1170 153.4089,78.1375 153.4961,78.1957 153.5543,78.2829 153.5748,78.3858 153.5748,79.3482 153.5543,79.4511 153.4961,79.5383 153.4089,79.5965 153.3060,79.6170 152.7686,79.6170 152.6657,79.5965 152.5785,79.5383 152.5203,79.4511 152.4998,79.3482 Z"/> 
<path style="fill:#000000; fill-opacity:1.0000; stroke:none;fill-rule:evenodd;" d="M 154.3748,78.3858 154.3953,78.2829 154.4535,78.1957 154.5407,78.1375 154.6436,78.1170 155.1810,78.1170 155.2839,78.1375 155.3711,78.1957 155.4293,78.2829 155.4498,78.3858 155.4498,79.3482 155.4293,79.4511 155.3711,79.5383 155.2839,79.5965 155.1810,79.6170 154.6436,79.6170 154.5407,79.5965 154.4535,79.5383 154.3953,79.4511 154.3748,79.3482 Z"/> 
<path style="fill:#000000; fill-opacity:1.0000; stroke:none;fill-rule:evenodd;" d="M 144.2733,80.4436 144.1705,80.4231 144.0833,80.3649 144.0251,80.2777 144.0046,80.1748 144.0046,79.6373 144.0251,79.5345 144.0833,79.4473 144.1705,79.3891 144.2733,79.3686 145.2358,79.3686 145.3387,79.3891 145.4259,79.4473 145.4841,79.5345 145.5046,79.6373 145.5046,80.1748 145.4841,80.2777 145.4259,80.3649 145.3387,80.4231 145.2358,80.4436 Z"/> 
<path style="fill:#000000; fill-opacity:1.0000; stroke:none;fill-rule:evenodd;" d="M 144.2733,78.5686 144.1705,78.5481 144.0833,78.4899 144.0251,78.4027 144.0046,78.2998 144.0046,77.7623 144.0251,77.6595 144.0833,77.5723 144.1705,77.5141 144.2733,77.4936 145.2358,77.4936 145.3387,77.5141 145.4259,77.5723 145.4841,77.6595 145.5046,77.7623 145.5046,78.2998 145.4841,78.4027 145.4259,78.4899 145.3387,78.5481 145.2358,78.5686 Z"/> 
<path style="fill:#000000; fill-opacity:1.0000; stroke:none;fill-rule:evenodd;" d="M 162.1590,98.8490 162.0557,98.8284 161.9681,98.7699 161.9096,98.6823 161.8890,98.5790 161.8890,97.7690 161.9096,97.6657 161.9681,97.5781 162.0557,97.5196 162.1590,97.4990 163.4690,97.4990 163.5723,97.5196 163.6599,97.5781 163.7184,97.6657 163.7390,97.7690 163.7390,98.5790 163.7184,98.6823 163.6599,98.7699 163.5723,98.8284 163.4690,98.8490 Z"/> 
<path style="fill:#000000; fill-opacity:1.0000; stroke:none;fill-rule:evenodd;" d="M 162.1590,96.0490 162.0557,96.0284 161.9681,95.9699 161.9096,95.8823 161.8890,95.7790 161.8890,94.9690 161.9096,94.8657 161.9681,94.7781 162.0557,94.7196 162.1590,94.6990 163.4690,94.6990 163.5723,94.7196 163.6599,94.7781 163.7184,94.8657 163.7390,94.9690 163.7390,95.7790 163.7184,95.8823 163.6599,95.9699 163.5723,96.0284 163.4690,96.0490 Z"/> 
<path style="fill:#000000; fill-opacity:1.0000; stroke:none;fill-rule:evenodd;" d="M 146.8388,76.4250 146.7359,76.4045 146.6487,76.3463 146.5905,76.2591 146.5700,76.1562 146.5700,75.6187 146.5905,75.5159 146.6487,75.4287 146.7359,75.3705 146.8388,75.3500 147.8012,75.3500 147.9041,75.3705 147.9913,75.4287 148.0495,75.5159 148.0700,75.6187 148.0700,76.1562 148.0495,76.2591 147.9913,76.3463 147.9041,76.4045 147.8012,76.4250 Z"/> 
<path style="fill:#000000; fill-opacity:1.0000; stroke:none;fill-rule:evenodd;" d="M 146.8388,74.5500 146.7359,74.5295 146.6487,74.4713 146.5905,74.3841 146.5700,74.2812 146.5700,73.7437 146.5905,73.6409 146.6487,73.5537 146.7359,73.4955 146.8388,73.4750 147.8012,73.4750 147.9041,73.4955 147.9913,73.5537 148.0495,73.6409 148.0700,73.7437 148.0700,74.2812 148.0495,74.3841 147.9913,74.4713 147.9041,74.5295 147.8012,74.5500 Z"/> 
<path style="fill:#000000; fill-opacity:1.0000; stroke:none;fill-rule:evenodd;" d="M 144.2987,76.4250 144.1959,76.4045 144.1087,76.3463 144.0505,76.2591 144.0300,76.1562 144.0300,75.6187 144.0505,75.5159 144.1087,75.4287 144.1959,75.3705 144.2987,75.3500 145.2612,75.3500 145.3641,75.3705 145.4513,75.4287 145.5095,75.5159 145.5300,75.6187 145.5300,76.1562 145.5095,76.2591 145.4513,76.3463 145.3641,76.4045 145.2612,76.4250 Z"/> 
<path style="fill:#000000; fill-opacity:1.0000; stroke:none;fill-rule:evenodd;" d="M 144.2987,74.5500 144.1959,74.5295 144.1087,74.4713 144.0505,74.3841 144.0300,74.2812 144.0300,73.7437 144.0505,73.6409 144.1087,73.5537 144.1959,73.4955 144.2987,73.4750 145.2612,73.4750 145.3641,73.4955 145.4513,73.5537 145.5095,73.6409 145.5300,73.7437 145.5300,74.2812 145.5095,74.3841 145.4513,74.4713 145.3641,74.5295 145.2612,74.5500 Z"/> 
<path style="fill:#000000; fill-opacity:1.0000; stroke:none;fill-rule:evenodd;" d="M 165.1440,75.7382 165.1647,75.6340 165.2237,75.5457 165.3120,75.4867 165.4162,75.4660 166.0968,75.4660 166.2010,75.4867 166.2893,75.5457 166.3483,75.6340 166.3690,75.7382 166.3690,78.6938 166.3483,78.7980 166.2893,78.8863 166.2010,78.9453 166.0968,78.9660 165.4162,78.9660 165.3120,78.9453 165.2237,78.8863 165.1647,78.7980 165.1440,78.6938 Z"/> 
<path style="fill:#000000; fill-opacity:1.0000; stroke:none;fill-rule:evenodd;" d="M 169.4190,75.7382 169.4397,75.6340 169.4987,75.5457 169.5870,75.4867 169.6912,75.4660 170.3718,75.4660 170.4760,75.4867 170.5643,75.5457 170.6233,75.6340 170.6440,75.7382 170.6440,78.6938 170.6233,78.7980 170.5643,78.8863 170.4760,78.9453 170.3718,78.9660 169.6912,78.9660 169.5870,78.9453 169.4987,78.8863 169.4397,78.7980 169.4190,78.6938 Z"/> 
<path style="fill:#000000; fill-opacity:1.0000; stroke:none;fill-rule:evenodd;" d="M 169.3690,91.1593 169.3485,91.2621 169.2903,91.3493 169.2031,91.4075 169.1002,91.4280 168.5627,91.4280 168.4599,91.4075 168.3727,91.3493 168.3145,91.2621 168.2940,91.1593 168.2940,90.1967 168.3145,90.0939 168.3727,90.0067 168.4599,89.9485 168.5627,89.9280 169.1002,89.9280 169.2031,89.9485 169.2903,90.0067 169.3485,90.0939 169.3690,90.1967 Z"/> 
<path style="fill:#000000; fill-opacity:1.0000; stroke:none;fill-rule:evenodd;" d="M 167.4940,91.1593 167.4735,91.2621 167.4153,91.3493 167.3281,91.4075 167.2252,91.4280 166.6877,91.4280 166.5849,91.4075 166.4977,91.3493 166.4395,91.2621 166.4190,91.1593 166.4190,90.1967 166.4395,90.0939 166.4977,90.0067 166.5849,89.9485 166.6877,89.9280 167.2252,89.9280 167.3281,89.9485 167.4153,90.0067 167.4735,90.0939 167.4940,90.1967 Z"/> 
</g>
<g style="fill:#000000; fill-opacity:1.0000; stroke:none;">
<circle cx="169.4180" cy="70.6120" r="0.7500"/> 
</g>
<g style="fill:#000000; fill-opacity:1.0000; stroke:none;">
<circle cx="171.7040" cy="97.2820" r="0.7500"/> 
</g>
<g style="fill:#000000; fill-opacity:1.0000; stroke:none;">
<circle cx="129.9972" cy="70.0786" r="0.7500"/> 
</g>
<g style="fill:#000000; fill-opacity:1.0000; stroke:none;">
<circle cx="137.2108" cy="98.1710" r="0.7500"/> 
</g>
<g style="fill:#000000; fill-opacity:1.0000; stroke:none;">
<circle cx="177.0000" cy="97.0000" r="1.4000"/> 
</g>
<g style="fill:#000000; fill-opacity:1.0000; stroke:none;">
<circle cx="123.0000" cy="97.0000" r="1.4000"/> 
</g>
<g style="fill:#000000; fill-opacity:1.0000; stroke:none;">
<circle cx="123.0000" cy="69.5000" r="1.4000"/> 
</g>
<g style="fill:#000000; fill-opacity:1.0000; stroke:none;">
<circle cx="177.0000" cy="69.5000" r="1.4000"/> 
</g>
<g style="fill:none;  stroke:#000000; stroke-width:1.6000; stroke-opacity:1;  stroke-linecap:round; stroke-linejoin:round;">
<path d="M123.2000 81.4500 L123.2000 80.9500 "/>
</g>
<g style="fill:#000000; fill-opacity:1.0000; stroke:none;">
<circle cx="127.6000" cy="81.2000" r="1.0500"/> 
<path style="fill:#000000; fill-opacity:1.0000; stroke:none;fill-rule:evenodd;" d="M 122.1000,77.2500 122.0809,77.2462 122.0646,77.2354 122.0538,77.2191 122.0500,77.2000 122.0500,74.2000 122.0538,74.1809 122.0646,74.1646 122.0809,74.1538 122.1000,74.1500 124.1000,74.1500 124.1191,74.1538 124.1354,74.1646 124.1462,74.1809 124.1500,74.2000 124.1500,77.2000 124.1462,77.2191 124.1354,77.2354 124.1191,77.2462 124.1000,77.2500 Z"/> 
<path style="fill:#000000; fill-opacity:1.0000; stroke:none;fill-rule:evenodd;" d="M 128.1000,77.2500 128.0809,77.2462 128.0646,77.2354 128.0538,77.2191 128.0500,77.2000 128.0500,74.2000 128.0538,74.1809 128.0646,74.1646 128.0809,74.1538 128.1000,74.1500 130.1000,74.1500 130.1191,74.1538 130.1354,74.1646 130.1462,74.1809 130.1500,74.2000 130.1500,77.2000 130.1462,77.2191 130.1354,77.2354 130.1191,77.2462 130.1000,77.2500 Z"/> 
<path style="fill:#000000; fill-opacity:1.0000; stroke:none;fill-rule:evenodd;" d="M 128.1000,88.2500 128.0809,88.2462 128.0646,88.2354 128.0538,88.2191 128.0500,88.2000 128.0500,85.2000 128.0538,85.1809 128.0646,85.1646 128.0809,85.1538 128.1000,85.1500 130.1000,85.1500 130.1191,85.1538 130.1354,85.1646 130.1462,85.1809 130.1500,85.2000 130.1500,88.2000 130.1462,88.2191 130.1354,88.2354 130.1191,88.2462 130.1000,88.2500 Z"/> 
<path style="fill:#000000; fill-opacity:1.0000; stroke:none;fill-rule:evenodd;" d="M 122.1000,88.2500 122.0809,88.2462 122.0646,88.2354 122.0538,88.2191 122.0500,88.2000 122.0500,85.2000 122.0538,85.1809 122.0646,85.1646 122.0809,85.1538 122.1000,85.1500 124.1000,85.1500 124.1191,85.1538 124.1354,85.1646 124.1462,85.1809 124.1500,85.2000 124.1500,88.2000 124.1462,88.2191 124.1354,88.2354 124.1191,88.2462 124.1000,88.2500 Z"/> 
<path style="fill:#000000; fill-opacity:1.0000; stroke:none;fill-rule:evenodd;" d="M 137.2000,80.3500 137.1962,80.3691 137.1854,80.3854 137.1691,80.3962 137.1500,80.4000 135.4500,80.4000 135.4309,80.3962 135.4146,80.3854 135.4038,80.3691 135.4000,80.3500 135.4000,78.6500 135.4038,78.6309 135.4146,78.6146 135.4309,78.6038 135.4500,78.6000 137.1500,78.6000 137.1691,78.6038 137.1854,78.6146 137.1962,78.6309 137.2000,78.6500 Z"/> 
</g>
<g style="fill:#000000; fill-opacity:1.0000; stroke:none;">
<circle cx="136.3000" cy="76.9600" r="0.9000"/> 
<circle cx="136.3000" cy="74.4200" r="0.9000"/> 
<circle cx="136.3000" cy="71.8800" r="0.9000"/> 
<circle cx="136.3000" cy="69.3400" r="0.9000"/> 
<path style="fill:#000000; fill-opacity:1.0000; stroke:none;fill-rule:evenodd;" d="M 150.9920,94.4000 150.9958,94.3809 151.0066,94.3646 151.0229,94.3538 151.0420,94.3500 152.7420,94.3500 152.7611,94.3538 152.7774,94.3646 152.7882,94.3809 152.7920,94.4000 152.7920,96.1000 152.7882,96.1191 152.7774,96.1354 152.7611,96.1462 152.7420,96.1500 151.0420,96.1500 151.0229,96.1462 151.0066,96.1354 150.9958,96.1191 150.9920,96.1000 Z"/> 
<circle cx="154.4320" cy="95.2500" r="0.9000"/> 
<circle cx="151.8920" cy="97.7900" r="0.9000"/> 
<circle cx="154.4320" cy="97.7900" r="0.9000"/> 
<path style="fill:#000000; fill-opacity:1.0000; stroke:none;fill-rule:evenodd;" d="M 140.2724,98.6646 140.2533,98.6608 140.2370,98.6500 140.2262,98.6337 140.2224,98.6146 140.2224,96.9146 140.2262,96.8955 140.2370,96.8792 140.2533,96.8684 140.2724,96.8646 141.9724,96.8646 141.9915,96.8684 142.0078,96.8792 142.0186,96.8955 142.0224,96.9146 142.0224,98.6146 142.0186,98.6337 142.0078,98.6500 141.9915,98.6608 141.9724,98.6646 Z"/> 
<circle cx="141.1224" cy="95.2246" r="0.9000"/> 
<circle cx="143.6624" cy="97.7646" r="0.9000"/> 
<circle cx="143.6624" cy="95.2246" r="0.9000"/> 
<circle cx="146.2024" cy="97.7646" r="0.9000"/> 
<circle cx="146.2024" cy="95.2246" r="0.9000"/> 
<path style="fill:#000000; fill-opacity:1.0000; stroke:none;fill-rule:evenodd;" d="M 140.0700,76.3660 140.0738,76.3469 140.0846,76.3306 140.1009,76.3198 140.1200,76.3160 141.8200,76.3160 141.8391,76.3198 141.8554,76.3306 141.8662,76.3469 141.8700,76.3660 141.8700,78.0660 141.8662,78.0851 141.8554,78.1014 141.8391,78.1122 141.8200,78.1160 140.1200,78.1160 140.1009,78.1122 140.0846,78.1014 140.0738,78.0851 140.0700,78.0660 Z"/> 
<circle cx="140.9700" cy="79.7560" r="0.9000"/> 
<circle cx="140.9700" cy="82.2960" r="0.9000"/> 
<circle cx="140.9700" cy="84.8360" r="0.9000"/> 
<circle cx="140.9700" cy="87.3760" r="0.9000"/> 
<circle cx="140.9700" cy="89.9160" r="0.9000"/> 
<path style="fill:#000000; fill-opacity:1.0000; stroke:none;fill-rule:evenodd;" d="M 168.0444,95.6688 168.0090,95.6834 166.5090,95.6834 166.4736,95.6688 166.4590,95.6334 166.4590,95.1334 166.4641,95.1211 166.4641,95.0622 166.4661,95.0482 166.5062,94.9116 166.5121,94.8987 166.5891,94.7789 166.5984,94.7682 166.7059,94.6750 166.7179,94.6673 166.8474,94.6082 166.8610,94.6042 167.0019,94.5839 167.0090,94.5834 167.5090,94.5834 167.5161,94.5839 167.6570,94.6042 167.6706,94.6082 167.8001,94.6673 167.8121,94.6750 167.9196,94.7682 167.9289,94.7789 168.0059,94.8987 168.0118,94.9116 168.0519,95.0482 168.0539,95.0622 168.0539,95.1211 168.0590,95.1334 168.0590,95.6334 Z"/> 
<path style="fill:#000000; fill-opacity:1.0000; stroke:none;fill-rule:evenodd;" d="M 168.0539,96.4457 168.0539,96.5046 168.0519,96.5186 168.0118,96.6552 168.0059,96.6681 167.9289,96.7879 167.9196,96.7986 167.8121,96.8918 167.8001,96.8995 167.6706,96.9586 167.6570,96.9626 167.5161,96.9829 167.5090,96.9834 167.0090,96.9834 167.0019,96.9829 166.8610,96.9626 166.8474,96.9586 166.7179,96.8995 166.7059,96.8918 166.5984,96.7986 166.5891,96.7879 166.5121,96.6681 166.5062,96.6552 166.4661,96.5186 166.4641,96.5046 166.4641,96.4457 166.4590,96.4334 166.4590,95.9334 166.4736,95.8980 166.5090,95.8834 168.0090,95.8834 168.0444,95.8980 168.0590,95.9334 168.0590,96.4334 Z"/> 
<path style="fill:#000000; fill-opacity:1.0000; stroke:none;fill-rule:evenodd;" d="M 164.8950,85.6247 164.9155,85.5219 164.9737,85.4347 165.0609,85.3765 165.1637,85.3560 165.7012,85.3560 165.8041,85.3765 165.8913,85.4347 165.9495,85.5219 165.9700,85.6247 165.9700,86.5872 165.9495,86.6901 165.8913,86.7773 165.8041,86.8355 165.7012,86.8560 165.1637,86.8560 165.0609,86.8355 164.9737,86.7773 164.9155,86.6901 164.8950,86.5872 Z"/> 
<path style="fill:#000000; fill-opacity:1.0000; stroke:none;fill-rule:evenodd;" d="M 166.7700,85.6247 166.7905,85.5219 166.8487,85.4347 166.9359,85.3765 167.0387,85.3560 167.5762,85.3560 167.6791,85.3765 167.7663,85.4347 167.8245,85.5219 167.8450,85.6247 167.8450,86.5872 167.8245,86.6901 167.7663,86.7773 167.6791,86.8355 167.5762,86.8560 167.0387,86.8560 166.9359,86.8355 166.8487,86.7773 166.7905,86.6901 166.7700,86.5872 Z"/> 
<path style="fill:#000000; fill-opacity:1.0000; stroke:none;fill-rule:evenodd;" d="M 164.8950,83.3387 164.9155,83.2359 164.9737,83.1487 165.0609,83.0905 165.1637,83.0700 165.7012,83.0700 165.8041,83.0905 165.8913,83.1487 165.9495,83.2359 165.9700,83.3387 165.9700,84.3012 165.9495,84.4041 165.8913,84.4913 165.8041,84.5495 165.7012,84.5700 165.1637,84.5700 165.0609,84.5495 164.9737,84.4913 164.9155,84.4041 164.8950,84.3012 Z"/> 
<path style="fill:#000000; fill-opacity:1.0000; stroke:none;fill-rule:evenodd;" d="M 166.7700,83.3387 166.7905,83.2359 166.8487,83.1487 166.9359,83.0905 167.0387,83.0700 167.5762,83.0700 167.6791,83.0905 167.7663,83.1487 167.8245,83.2359 167.8450,83.3387 167.8450,84.3012 167.8245,84.4041 167.7663,84.4913 167.6791,84.5495 167.5762,84.5700 167.0387,84.5700 166.9359,84.5495 166.8487,84.4913 166.7905,84.4041 166.7700,84.3012 Z"/> 
<path style="fill:#000000; fill-opacity:1.0000; stroke:none;fill-rule:evenodd;" d="M 160.4330,76.3593 160.4125,76.4621 160.3543,76.5493 160.2671,76.6075 160.1642,76.6280 159.6267,76.6280 159.5239,76.6075 159.4367,76.5493 159.3785,76.4621 159.3580,76.3593 159.3580,75.3967 159.3785,75.2939 159.4367,75.2067 159.5239,75.1485 159.6267,75.1280 160.1642,75.1280 160.2671,75.1485 160.3543,75.2067 160.4125,75.2939 160.4330,75.3967 Z"/> 
<path style="fill:#000000; fill-opacity:1.0000; stroke:none;fill-rule:evenodd;" d="M 158.5580,76.3593 158.5375,76.4621 158.4793,76.5493 158.3921,76.6075 158.2892,76.6280 157.7517,76.6280 157.6489,76.6075 157.5617,76.5493 157.5035,76.4621 157.4830,76.3593 157.4830,75.3967 157.5035,75.2939 157.5617,75.2067 157.6489,75.1485 157.7517,75.1280 158.2892,75.1280 158.3921,75.1485 158.4793,75.2067 158.5375,75.2939 158.5580,75.3967 Z"/> 
<path style="fill:#000000; fill-opacity:1.0000; stroke:none;fill-rule:evenodd;" d="M 158.5228,97.2330 158.4199,97.2125 158.3327,97.1543 158.2745,97.0671 158.2540,96.9642 158.2540,96.4267 158.2745,96.3239 158.3327,96.2367 158.4199,96.1785 158.5228,96.1580 159.4852,96.1580 159.5881,96.1785 159.6753,96.2367 159.7335,96.3239 159.7540,96.4267 159.7540,96.9642 159.7335,97.0671 159.6753,97.1543 159.5881,97.2125 159.4852,97.2330 Z"/> 
<path style="fill:#000000; fill-opacity:1.0000; stroke:none;fill-rule:evenodd;" d="M 158.5228,95.3580 158.4199,95.3375 158.3327,95.2793 158.2745,95.1921 158.2540,95.0892 158.2540,94.5517 158.2745,94.4489 158.3327,94.3617 158.4199,94.3035 158.5228,94.2830 159.4852,94.2830 159.5881,94.3035 159.6753,94.3617 159.7335,94.4489 159.7540,94.5517 159.7540,95.0892 159.7335,95.1921 159.6753,95.2793 159.5881,95.3375 159.4852,95.3580 Z"/> 
<path style="fill:#000000; fill-opacity:1.0000; stroke:none;fill-rule:evenodd;" d="M 145.2358,81.3290 145.3387,81.3495 145.4259,81.4077 145.4841,81.4949 145.5046,81.5977 145.5046,82.1352 145.4841,82.2381 145.4259,82.3253 145.3387,82.3835 145.2358,82.4040 144.2733,82.4040 144.1705,82.3835 144.0833,82.3253 144.0251,82.2381 144.0046,82.1352 144.0046,81.5977 144.0251,81.4949 144.0833,81.4077 144.1705,81.3495 144.2733,81.3290 Z"/> 
<path style="fill:#000000; fill-opacity:1.0000; stroke:none;fill-rule:evenodd;" d="M 145.2358,83.2040 145.3387,83.2245 145.4259,83.2827 145.4841,83.3699 145.5046,83.4727 145.5046,84.0102 145.4841,84.1131 145.4259,84.2003 145.3387,84.2585 145.2358,84.2790 144.2733,84.2790 144.1705,84.2585 144.0833,84.2003 144.0251,84.1131 144.0046,84.0102 144.0046,83.4727 144.0251,83.3699 144.0833,83.2827 144.1705,83.2245 144.2733,83.2040 Z"/> 
<path style="fill:#000000; fill-opacity:1.0000; stroke:none;fill-rule:evenodd;" d="M 147.8012,68.6998 147.9041,68.7203 147.9913,68.7785 148.0495,68.8657 148.0700,68.9685 148.0700,69.5061 148.0495,69.6089 147.9913,69.6961 147.9041,69.7543 147.8012,69.7748 146.8388,69.7748 146.7359,69.7543 146.6487,69.6961 146.5905,69.6089 146.5700,69.5061 146.5700,68.9685 146.5905,68.8657 146.6487,68.7785 146.7359,68.7203 146.8388,68.6998 Z"/> 
<path style="fill:#000000; fill-opacity:1.0000; stroke:none;fill-rule:evenodd;" d="M 147.8012,70.5748 147.9041,70.5953 147.9913,70.6535 148.0495,70.7407 148.0700,70.8435 148.0700,71.3811 148.0495,71.4839 147.9913,71.5711 147.9041,71.6293 147.8012,71.6498 146.8388,71.6498 146.7359,71.6293 146.6487,71.5711 146.5905,71.4839 146.5700,71.3811 146.5700,70.8435 146.5905,70.7407 146.6487,70.6535 146.7359,70.5953 146.8388,70.5748 Z"/> 
<path style="fill:#000000; fill-opacity:1.0000; stroke:none;fill-rule:evenodd;" d="M 145.2612,68.6998 145.3641,68.7203 145.4513,68.7785 145.5095,68.8657 145.5300,68.9685 145.5300,69.5061 145.5095,69.6089 145.4513,69.6961 145.3641,69.7543 145.2612,69.7748 144.2987,69.7748 144.1959,69.7543 144.1087,69.6961 144.0505,69.6089 144.0300,69.5061 144.0300,68.9685 144.0505,68.8657 144.1087,68.7785 144.1959,68.7203 144.2987,68.6998 Z"/> 
<path style="fill:#000000; fill-opacity:1.0000; stroke:none;fill-rule:evenodd;" d="M 145.2612,70.5748 145.3641,70.5953 145.4513,70.6535 145.5095,70.7407 145.5300,70.8435 145.5300,71.3811 145.5095,71.4839 145.4513,71.5711 145.3641,71.6293 145.2612,71.6498 144.2987,71.6498 144.1959,71.6293 144.1087,71.5711 144.0505,71.4839 144.0300,71.3811 144.0300,70.8435 144.0505,70.7407 144.1087,70.6535 144.1959,70.5953 144.2987,70.5748 Z"/> 
<path style="fill:#000000; fill-opacity:1.0000; stroke:none;fill-rule:evenodd;" d="M 170.7152,86.0755 170.8085,86.0941 170.8876,86.1469 170.9404,86.2260 170.9590,86.3192 170.9590,86.8067 170.9404,86.9000 170.8876,86.9791 170.8085,87.0319 170.7152,87.0505 170.1527,87.0505 170.0595,87.0319 169.9804,86.9791 169.9276,86.9000 169.9090,86.8067 169.9090,86.3192 169.9276,86.2260 169.9804,86.1469 170.0595,86.0941 170.1527,86.0755 Z"/> 
<path style="fill:#000000; fill-opacity:1.0000; stroke:none;fill-rule:evenodd;" d="M 170.7152,87.6505 170.8085,87.6691 170.8876,87.7219 170.9404,87.8010 170.9590,87.8942 170.9590,88.3817 170.9404,88.4750 170.8876,88.5541 170.8085,88.6069 170.7152,88.6255 170.1527,88.6255 170.0595,88.6069 169.9804,88.5541 169.9276,88.4750 169.9090,88.3817 169.9090,87.8942 169.9276,87.8010 169.9804,87.7219 170.0595,87.6691 170.1527,87.6505 Z"/> 
<path style="fill:#000000; fill-opacity:1.0000; stroke:none;fill-rule:evenodd;" d="M 161.9778,71.2278 161.9740,71.2469 161.9632,71.2632 161.9469,71.2740 161.9278,71.2778 160.0278,71.2778 160.0087,71.2740 159.9924,71.2632 159.9816,71.2469 159.9778,71.2278 159.9778,68.8278 159.9816,68.8087 159.9924,68.7924 160.0087,68.7816 160.0278,68.7778 161.9278,68.7778 161.9469,68.7816 161.9632,68.7924 161.9740,68.8087 161.9778,68.8278 Z"/> 
<path style="fill:#000000; fill-opacity:1.0000; stroke:none;fill-rule:evenodd;" d="M 157.8778,71.2278 157.8740,71.2469 157.8632,71.2632 157.8469,71.2740 157.8278,71.2778 155.9278,71.2778 155.9087,71.2740 155.8924,71.2632 155.8816,71.2469 155.8778,71.2278 155.8778,68.8278 155.8816,68.8087 155.8924,68.7924 155.9087,68.7816 155.9278,68.7778 157.8278,68.7778 157.8469,68.7816 157.8632,68.7924 157.8740,68.8087 157.8778,68.8278 Z"/> 
<path style="fill:#000000; fill-opacity:1.0000; stroke:none;fill-rule:evenodd;" d="M 172.6820,82.3840 172.6629,82.3802 172.6466,82.3694 172.6358,82.3531 172.6320,82.3340 172.6320,80.7340 172.6358,80.7149 172.6466,80.6986 172.6629,80.6878 172.6820,80.6840 174.2820,80.6840 174.3011,80.6878 174.3174,80.6986 174.3282,80.7149 174.3320,80.7340 174.3320,82.3340 174.3282,82.3531 174.3174,82.3694 174.3011,82.3802 174.2820,82.3840 Z"/> 
<circle cx="173.4820" cy="84.0340" r="0.8500"/> 
</g>
<g style="fill:#000000; fill-opacity:1.0000; stroke:none;">
<circle cx="175.4820" cy="84.0340" r="0.8500"/> 
</g>
<g style="fill:#000000; fill-opacity:1.0000; stroke:none;">
<circle cx="175.4820" cy="81.5340" r="0.8500"/> 
</g>
<g style="fill:#000000; fill-opacity:1.0000; stroke:none;">
<circle cx="178.3420" cy="76.7840" r="2.0500"/> 
</g>
<g style="fill:#000000; fill-opacity:1.0000; stroke:none;">
<circle cx="178.3420" cy="88.7840" r="2.0500"/> 
<path style="fill:#000000; fill-opacity:1.0000; stroke:none;fill-rule:evenodd;" d="M 157.5070,80.7520 157.5261,80.7558 157.5424,80.7666 157.5532,80.7829 157.5570,80.8020 157.5570,82.4020 157.5532,82.4211 157.5424,82.4374 157.5261,82.4482 157.5070,82.4520 156.9570,82.4520 156.9379,82.4482 156.9216,82.4374 156.9108,82.4211 156.9070,82.4020 156.9070,80.8020 156.9108,80.7829 156.9216,80.7666 156.9379,80.7558 156.9570,80.7520 Z"/> 
<path style="fill:#000000; fill-opacity:1.0000; stroke:none;fill-rule:evenodd;" d="M 156.7070,80.7520 156.7261,80.7558 156.7424,80.7666 156.7532,80.7829 156.7570,80.8020 156.7570,82.4020 156.7532,82.4211 156.7424,82.4374 156.7261,82.4482 156.7070,82.4520 156.1570,82.4520 156.1379,82.4482 156.1216,82.4374 156.1108,82.4211 156.1070,82.4020 156.1070,80.8020 156.1108,80.7829 156.1216,80.7666 156.1379,80.7558 156.1570,80.7520 Z"/> 
<path style="fill:#000000; fill-opacity:1.0000; stroke:none;fill-rule:evenodd;" d="M 155.9070,80.7520 155.9261,80.7558 155.9424,80.7666 155.9532,80.7829 155.9570,80.8020 155.9570,82.4020 155.9532,82.4211 155.9424,82.4374 155.9261,82.4482 155.9070,82.4520 155.3570,82.4520 155.3379,82.4482 155.3216,82.4374 155.3108,82.4211 155.3070,82.4020 155.3070,80.8020 155.3108,80.7829 155.3216,80.7666 155.3379,80.7558 155.3570,80.7520 Z"/> 
<path style="fill:#000000; fill-opacity:1.0000; stroke:none;fill-rule:evenodd;" d="M 155.1070,80.7520 155.1261,80.7558 155.1424,80.7666 155.1532,80.7829 155.1570,80.8020 155.1570,82.4020 155.1532,82.4211 155.1424,82.4374 155.1261,82.4482 155.1070,82.4520 154.5570,82.4520 154.5379,82.4482 154.5216,82.4374 154.5108,82.4211 154.5070,82.4020 154.5070,80.8020 154.5108,80.7829 154.5216,80.7666 154.5379,80.7558 154.5570,80.7520 Z"/> 
<path style="fill:#000000; fill-opacity:1.0000; stroke:none;fill-rule:evenodd;" d="M 154.3070,80.7520 154.3261,80.7558 154.3424,80.7666 154.3532,80.7829 154.3570,80.8020 154.3570,82.4020 154.3532,82.4211 154.3424,82.4374 154.3261,82.4482 154.3070,82.4520 153.7570,82.4520 153.7379,82.4482 153.7216,82.4374 153.7108,82.4211 153.7070,82.4020 153.7070,80.8020 153.7108,80.7829 153.7216,80.7666 153.7379,80.7558 153.7570,80.7520 Z"/> 
<path style="fill:#000000; fill-opacity:1.0000; stroke:none;fill-rule:evenodd;" d="M 153.5070,80.7520 153.5261,80.7558 153.5424,80.7666 153.5532,80.7829 153.5570,80.8020 153.5570,82.4020 153.5532,82.4211 153.5424,82.4374 153.5261,82.4482 153.5070,82.4520 152.9570,82.4520 152.9379,82.4482 152.9216,82.4374 152.9108,82.4211 152.9070,82.4020 152.9070,80.8020 152.9108,80.7829 152.9216,80.7666 152.9379,80.7558 152.9570,80.7520 Z"/> 
<path style="fill:#000000; fill-opacity:1.0000; stroke:none;fill-rule:evenodd;" d="M 152.7070,80.7520 152.7261,80.7558 152.7424,80.7666 152.7532,80.7829 152.7570,80.8020 152.7570,82.4020 152.7532,82.4211 152.7424,82.4374 152.7261,82.4482 152.7070,82.4520 152.1570,82.4520 152.1379,82.4482 152.1216,82.4374 152.1108,82.4211 152.1070,82.4020 152.1070,80.8020 152.1108,80.7829 152.1216,80.7666 152.1379,80.7558 152.1570,80.7520 Z"/> 
<path style="fill:#000000; fill-opacity:1.0000; stroke:none;fill-rule:evenodd;" d="M 151.9070,80.7520 151.9261,80.7558 151.9424,80.7666 151.9532,80.7829 151.9570,80.8020 151.9570,82.4020 151.9532,82.4211 151.9424,82.4374 151.9261,82.4482 151.9070,82.4520 151.3570,82.4520 151.3379,82.4482 151.3216,82.4374 151.3108,82.4211 151.3070,82.4020 151.3070,80.8020 151.3108,80.7829 151.3216,80.7666 151.3379,80.7558 151.3570,80.7520 Z"/> 
<path style="fill:#000000; fill-opacity:1.0000; stroke:none;fill-rule:evenodd;" d="M 149.3320,82.7770 149.3358,82.7579 149.3466,82.7416 149.3629,82.7308 149.3820,82.7270 150.9820,82.7270 151.0011,82.7308 151.0174,82.7416 151.0282,82.7579 151.0320,82.7770 151.0320,83.3270 151.0282,83.3461 151.0174,83.3624 151.0011,83.3732 150.9820,83.3770 149.3820,83.3770 149.3629,83.3732 149.3466,83.3624 149.3358,83.3461 149.3320,83.3270 Z"/> 
<path style="fill:#000000; fill-opacity:1.0000; stroke:none;fill-rule:evenodd;" d="M 149.3320,83.5770 149.3358,83.5579 149.3466,83.5416 149.3629,83.5308 149.3820,83.5270 150.9820,83.5270 151.0011,83.5308 151.0174,83.5416 151.0282,83.5579 151.0320,83.5770 151.0320,84.1270 151.0282,84.1461 151.0174,84.1624 151.0011,84.1732 150.9820,84.1770 149.3820,84.1770 149.3629,84.1732 149.3466,84.1624 149.3358,84.1461 149.3320,84.1270 Z"/> 
<path style="fill:#000000; fill-opacity:1.0000; stroke:none;fill-rule:evenodd;" d="M 149.3320,84.3770 149.3358,84.3579 149.3466,84.3416 149.3629,84.3308 149.3820,84.3270 150.9820,84.3270 151.0011,84.3308 151.0174,84.3416 151.0282,84.3579 151.0320,84.3770 151.0320,84.9270 151.0282,84.9461 151.0174,84.9624 151.0011,84.9732 150.9820,84.9770 149.3820,84.9770 149.3629,84.9732 149.3466,84.9624 149.3358,84.9461 149.3320,84.9270 Z"/> 
<path style="fill:#000000; fill-opacity:1.0000; stroke:none;fill-rule:evenodd;" d="M 149.3320,85.1770 149.3358,85.1579 149.3466,85.1416 149.3629,85.1308 149.3820,85.1270 150.9820,85.1270 151.0011,85.1308 151.0174,85.1416 151.0282,85.1579 151.0320,85.1770 151.0320,85.7270 151.0282,85.7461 151.0174,85.7624 151.0011,85.7732 150.9820,85.7770 149.3820,85.7770 149.3629,85.7732 149.3466,85.7624 149.3358,85.7461 149.3320,85.7270 Z"/> 
<path style="fill:#000000; fill-opacity:1.0000; stroke:none;fill-rule:evenodd;" d="M 149.3320,85.9770 149.3358,85.9579 149.3466,85.9416 149.3629,85.9308 149.3820,85.9270 150.9820,85.9270 151.0011,85.9308 151.0174,85.9416 151.0282,85.9579 151.0320,85.9770 151.0320,86.5270 151.0282,86.5461 151.0174,86.5624 151.0011,86.5732 150.9820,86.5770 149.3820,86.5770 149.3629,86.5732 149.3466,86.5624 149.3358,86.5461 149.3320,86.5270 Z"/> 
<path style="fill:#000000; fill-opacity:1.0000; stroke:none;fill-rule:evenodd;" d="M 149.3320,86.7770 149.3358,86.7579 149.3466,86.7416 149.3629,86.7308 149.3820,86.7270 150.9820,86.7270 151.0011,86.7308 151.0174,86.7416 151.0282,86.7579 151.0320,86.7770 151.0320,87.3270 151.0282,87.3461 151.0174,87.3624 151.0011,87.3732 150.9820,87.3770 149.3820,87.3770 149.3629,87.3732 149.3466,87.3624 149.3358,87.3461 149.3320,87.3270 Z"/> 
<path style="fill:#000000; fill-opacity:1.0000; stroke:none;fill-rule:evenodd;" d="M 149.3320,87.5770 149.3358,87.5579 149.3466,87.5416 149.3629,87.5308 149.3820,87.5270 150.9820,87.5270 151.0011,87.5308 151.0174,87.5416 151.0282,87.5579 151.0320,87.5770 151.0320,88.1270 151.0282,88.1461 151.0174,88.1624 151.0011,88.1732 150.9820,88.1770 149.3820,88.1770 149.3629,88.1732 149.3466,88.1624 149.3358,88.1461 149.3320,88.1270 Z"/> 
<path style="fill:#000000; fill-opacity:1.0000; stroke:none;fill-rule:evenodd;" d="M 149.3320,88.3770 149.3358,88.3579 149.3466,88.3416 149.3629,88.3308 149.3820,88.3270 150.9820,88.3270 151.0011,88.3308 151.0174,88.3416 151.0282,88.3579 151.0320,88.3770 151.0320,88.9270 151.0282,88.9461 151.0174,88.9624 151.0011,88.9732 150.9820,88.9770 149.3820,88.9770 149.3629,88.9732 149.3466,88.9624 149.3358,88.9461 149.3320,88.9270 Z"/> 
<path style="fill:#000000; fill-opacity:1.0000; stroke:none;fill-rule:evenodd;" d="M 151.9070,89.2520 151.9261,89.2558 151.9424,89.2666 151.9532,89.2829 151.9570,89.3020 151.9570,90.9020 151.9532,90.9211 151.9424,90.9374 151.9261,90.9482 151.9070,90.9520 151.3570,90.9520 151.3379,90.9482 151.3216,90.9374 151.3108,90.9211 151.3070,90.9020 151.3070,89.3020 151.3108,89.2829 151.3216,89.2666 151.3379,89.2558 151.3570,89.2520 Z"/> 
<path style="fill:#000000; fill-opacity:1.0000; stroke:none;fill-rule:evenodd;" d="M 152.7070,89.2520 152.7261,89.2558 152.7424,89.2666 152.7532,89.2829 152.7570,89.3020 152.7570,90.9020 152.7532,90.9211 152.7424,90.9374 152.7261,90.9482 152.7070,90.9520 152.1570,90.9520 152.1379,90.9482 152.1216,90.9374 152.1108,90.9211 152.1070,90.9020 152.1070,89.3020 152.1108,89.2829 152.1216,89.2666 152.1379,89.2558 152.1570,89.2520 Z"/> 
<path style="fill:#000000; fill-opacity:1.0000; stroke:none;fill-rule:evenodd;" d="M 153.5070,89.2520 153.5261,89.2558 153.5424,89.2666 153.5532,89.2829 153.5570,89.3020 153.5570,90.9020 153.5532,90.9211 153.5424,90.9374 153.5261,90.9482 153.5070,90.9520 152.9570,90.9520 152.9379,90.9482 152.9216,90.9374 152.9108,90.9211 152.9070,90.9020 152.9070,89.3020 152.9108,89.2829 152.9216,89.2666 152.9379,89.2558 152.9570,89.2520 Z"/> 
<path style="fill:#000000; fill-opacity:1.0000; stroke:none;fill-rule:evenodd;" d="M 154.3070,89.2520 154.3261,89.2558 154.3424,89.2666 154.3532,89.2829 154.3570,89.3020 154.3570,90.9020 154.3532,90.9211 154.3424,90.9374 154.3261,90.9482 154.3070,90.9520 153.7570,90.9520 153.7379,90.9482 153.7216,90.9374 153.7108,90.9211 153.7070,90.9020 153.7070,89.3020 153.7108,89.2829 153.7216,89.2666 153.7379,89.2558 153.7570,89.2520 Z"/> 
<path style="fill:#000000; fill-opacity:1.0000; stroke:none;fill-rule:evenodd;" d="M 155.1070,89.2520 155.1261,89.2558 155.1424,89.2666 155.1532,89.2829 155.1570,89.3020 155.1570,90.9020 155.1532,90.9211 155.1424,90.9374 155.1261,90.9482 155.1070,90.9520 154.5570,90.9520 154.5379,90.9482 154.5216,90.9374 154.5108,90.9211 154.5070,90.9020 154.5070,89.3020 154.5108,89.2829 154.5216,89.2666 154.5379,89.2558 154.5570,89.2520 Z"/> 
<path style="fill:#000000; fill-opacity:1.0000; stroke:none;fill-rule:evenodd;" d="M 155.9070,89.2520 155.9261,89.2558 155.9424,89.2666 155.9532,89.2829 155.9570,89.3020 155.9570,90.9020 155.9532,90.9211 155.9424,90.9374 155.9261,90.9482 155.9070,90.9520 155.3570,90.9520 155.3379,90.9482 155.3216,90.9374 155.3108,90.9211 155.3070,90.9020 155.3070,89.3020 155.3108,89.2829 155.3216,89.2666 155.3379,89.2558 155.3570,89.2520 Z"/> 
<path style="fill:#000000; fill-opacity:1.0000; stroke:none;fill-rule:evenodd;" d="M 156.7070,89.2520 156.7261,89.2558 156.7424,89.2666 156.7532,89.2829 156.7570,89.3020 156.7570,90.9020 156.7532,90.9211 156.7424,90.9374 156.7261,90.9482 156.7070,90.9520 156.1570,90.9520 156.1379,90.9482 156.1216,90.9374 156.1108,90.9211 156.1070,90.9020 156.1070,89.3020 156.1108,89.2829 156.1216,89.2666 156.1379,89.2558 156.1570,89.2520 Z"/> 
<path style="fill:#000000; fill-opacity:1.0000; stroke:none;fill-rule:evenodd;" d="M 157.5070,89.2520 157.5261,89.2558 157.5424,89.2666 157.5532,89.2829 157.5570,89.3020 157.5570,90.9020 157.5532,90.9211 157.5424,90.9374 157.5261,90.9482 157.5070,90.9520 156.9570,90.9520 156.9379,90.9482 156.9216,90.9374 156.9108,90.9211 156.9070,90.9020 156.9070,89.3020 156.9108,89.2829 156.9216,89.2666 156.9379,89.2558 156.9570,89.2520 Z"/> 
<path style="fill:#000000; fill-opacity:1.0000; stroke:none;fill-rule:evenodd;" d="M 157.8320,88.3770 157.8358,88.3579 157.8466,88.3416 157.8629,88.3308 157.8820,88.3270 159.4820,88.3270 159.5011,88.3308 159.5174,88.3416 159.5282,88.3579 159.5320,88.3770 159.5320,88.9270 159.5282,88.9461 159.5174,88.9624 159.5011,88.9732 159.4820,88.9770 157.8820,88.9770 157.8629,88.9732 157.8466,88.9624 157.8358,88.9461 157.8320,88.9270 Z"/> 
<path style="fill:#000000; fill-opacity:1.0000; stroke:none;fill-rule:evenodd;" d="M 157.8320,87.5770 157.8358,87.5579 157.8466,87.5416 157.8629,87.5308 157.8820,87.5270 159.4820,87.5270 159.5011,87.5308 159.5174,87.5416 159.5282,87.5579 159.5320,87.5770 159.5320,88.1270 159.5282,88.1461 159.5174,88.1624 159.5011,88.1732 159.4820,88.1770 157.8820,88.1770 157.8629,88.1732 157.8466,88.1624 157.8358,88.1461 157.8320,88.1270 Z"/> 
<path style="fill:#000000; fill-opacity:1.0000; stroke:none;fill-rule:evenodd;" d="M 157.8320,86.7770 157.8358,86.7579 157.8466,86.7416 157.8629,86.7308 157.8820,86.7270 159.4820,86.7270 159.5011,86.7308 159.5174,86.7416 159.5282,86.7579 159.5320,86.7770 159.5320,87.3270 159.5282,87.3461 159.5174,87.3624 159.5011,87.3732 159.4820,87.3770 157.8820,87.3770 157.8629,87.3732 157.8466,87.3624 157.8358,87.3461 157.8320,87.3270 Z"/> 
<path style="fill:#000000; fill-opacity:1.0000; stroke:none;fill-rule:evenodd;" d="M 157.8320,85.9770 157.8358,85.9579 157.8466,85.9416 157.8629,85.9308 157.8820,85.9270 159.4820,85.9270 159.5011,85.9308 159.5174,85.9416 159.5282,85.9579 159.5320,85.9770 159.5320,86.5270 159.5282,86.5461 159.5174,86.5624 159.5011,86.5732 159.4820,86.5770 157.8820,86.5770 157.8629,86.5732 157.8466,86.5624 157.8358,86.5461 157.8320,86.5270 Z"/> 
<path style="fill:#000000; fill-opacity:1.0000; stroke:none;fill-rule:evenodd;" d="M 157.8320,85.1770 157.8358,85.1579 157.8466,85.1416 157.8629,85.1308 157.8820,85.1270 159.4820,85.1270 159.5011,85.1308 159.5174,85.1416 159.5282,85.1579 159.5320,85.1770 159.5320,85.7270 159.5282,85.7461 159.5174,85.7624 159.5011,85.7732 159.4820,85.7770 157.8820,85.7770 157.8629,85.7732 157.8466,85.7624 157.8358,85.7461 157.8320,85.7270 Z"/> 
<path style="fill:#000000; fill-opacity:1.0000; stroke:none;fill-rule:evenodd;" d="M 157.8320,84.3770 157.8358,84.3579 157.8466,84.3416 157.8629,84.3308 157.8820,84.3270 159.4820,84.3270 159.5011,84.3308 159.5174,84.3416 159.5282,84.3579 159.5320,84.3770 159.5320,84.9270 159.5282,84.9461 159.5174,84.9624 159.5011,84.9732 159.4820,84.9770 157.8820,84.9770 157.8629,84.9732 157.8466,84.9624 157.8358,84.9461 157.8320,84.9270 Z"/> 
<path style="fill:#000000; fill-opacity:1.0000; stroke:none;fill-rule:evenodd;" d="M 157.8320,83.5770 157.8358,83.5579 157.8466,83.5416 157.8629,83.5308 157.8820,83.5270 159.4820,83.5270 159.5011,83.5308 159.5174,83.5416 159.5282,83.5579 159.5320,83.5770 159.5320,84.1270 159.5282,84.1461 159.5174,84.1624 159.5011,84.1732 159.4820,84.1770 157.8820,84.1770 157.8629,84.1732 157.8466,84.1624 157.8358,84.1461 157.8320,84.1270 Z"/> 
<path style="fill:#000000; fill-opacity:1.0000; stroke:none;fill-rule:evenodd;" d="M 157.8320,82.7770 157.8358,82.7579 157.8466,82.7416 157.8629,82.7308 157.8820,82.7270 159.4820,82.7270 159.5011,82.7308 159.5174,82.7416 159.5282,82.7579 159.5320,82.7770 159.5320,83.3270 159.5282,83.3461 159.5174,83.3624 159.5011,83.3732 159.4820,83.3770 157.8820,83.3770 157.8629,83.3732 157.8466,83.3624 157.8358,83.3461 157.8320,83.3270 Z"/> 
<path style="fill:#000000; fill-opacity:1.0000; stroke:none;fill-rule:evenodd;" d="M 170.1527,83.5964 170.0595,83.5778 169.9804,83.5250 169.9276,83.4459 169.9090,83.3526 169.9090,82.8651 169.9276,82.7719 169.9804,82.6928 170.0595,82.6400 170.1527,82.6214 170.7152,82.6214 170.8085,82.6400 170.8876,82.6928 170.9404,82.7719 170.9590,82.8651 170.9590,83.3526 170.9404,83.4459 170.8876,83.5250 170.8085,83.5778 170.7152,83.5964 Z"/> 
<path style="fill:#000000; fill-opacity:1.0000; stroke:none;fill-rule:evenodd;" d="M 170.1527,82.0214 170.0595,82.0028 169.9804,81.9500 169.9276,81.8709 169.9090,81.7776 169.9090,81.2901 169.9276,81.1969 169.9804,81.1178 170.0595,81.0650 170.1527,81.0464 170.7152,81.0464 170.8085,81.0650 170.8876,81.1178 170.9404,81.1969 170.9590,81.2901 170.9590,81.7776 170.9404,81.8709 170.8876,81.9500 170.8085,82.0028 170.7152,82.0214 Z"/> 
<path style="fill:#000000; fill-opacity:1.0000; stroke:none;fill-rule:evenodd;" d="M 161.9009,83.5424 161.7981,83.5219 161.7109,83.4637 161.6527,83.3765 161.6322,83.2736 161.6322,82.7361 161.6527,82.6333 161.7109,82.5461 161.7981,82.4879 161.9009,82.4674 162.8635,82.4674 162.9663,82.4879 163.0535,82.5461 163.1117,82.6333 163.1322,82.7361 163.1322,83.2736 163.1117,83.3765 163.0535,83.4637 162.9663,83.5219 162.8635,83.5424 Z"/> 
<path style="fill:#000000; fill-opacity:1.0000; stroke:none;fill-rule:evenodd;" d="M 161.9009,81.6674 161.7981,81.6469 161.7109,81.5887 161.6527,81.5015 161.6322,81.3986 161.6322,80.8611 161.6527,80.7583 161.7109,80.6711 161.7981,80.6129 161.9009,80.5924 162.8635,80.5924 162.9663,80.6129 163.0535,80.6711 163.1117,80.7583 163.1322,80.8611 163.1322,81.3986 163.1117,81.5015 163.0535,81.5887 162.9663,81.6469 162.8635,81.6674 Z"/> 
</g> 
</mask><mask id="hole-mask"><g><rect x="112.165963" y="61.763525" fill="white" width="77.001037" height="39.611578"/><polyline stroke-linecap="round" stroke="black" stroke-width="2.7" points="-0.0 0 0.0 0" transform="translate(177.0 97.0) rotate(-0.0)"/><polyline stroke-linecap="round" stroke="black" stroke-width="2.7" points="-0.0 0 0.0 0" transform="translate(123.0 97.0) rotate(-0.0)"/><polyline stroke-linecap="round" stroke="black" stroke-width="2.7" points="-0.0 0 0.0 0" transform="translate(123.0 69.5) rotate(-0.0)"/><polyline stroke-linecap="round" stroke="black" stroke-width="2.7" points="-0.0 0 0.0 0" transform="translate(177.0 69.5) rotate(-0.0)"/><polyline stroke-linecap="round" stroke="black" stroke-width="1.5" points="-0.25 0 0.25 0" transform="translate(123.2 81.2) rotate(-90.0)"/><polyline stroke-linecap="round" stroke="black" stroke-width="2.0" points="-0.0 0 0.0 0" transform="translate(127.6 81.2) rotate(-90.0)"/><polyline stroke-linecap="round" stroke="black" stroke-width="1.0" points="-0.0 0 0.0 0" transform="translate(136.3 79.5) rotate(-180.0)"/><polyline stroke-linecap="round" stroke="black" stroke-width="1.0" points="-0.0 0 0.0 0" transform="translate(136.3 76.96) rotate(-180.0)"/><polyline stroke-linecap="round" stroke="black" stroke-width="1.0" points="-0.0 0 0.0 0" transform="translate(136.3 74.42) rotate(-180.0)"/><polyline stroke-linecap="round" stroke="black" stroke-width="1.0" points="-0.0 0 0.0 0" transform="translate(136.3 71.88) rotate(-180.0)"/><polyline stroke-linecap="round" stroke="black" stroke-width="1.0" points="-0.0 0 0.0 0" transform="translate(136.3 69.34) rotate(-180.0)"/><polyline stroke-linecap="round" stroke="black" stroke-width="1.0" points="-0.0 0 0.0 0" transform="translate(151.892 95.25) rotate(-0.0)"/><polyline stroke-linecap="round" stroke="black" stroke-width="1.0" points="-0.0 0 0.0 0" transform="translate(154.432 95.25) rotate(-0.0)"/><polyline stroke-linecap="round" stroke="black" stroke-width="1.0" points="-0.0 0 0.0 0" transform="translate(151.892 97.79) rotate(-0.0)"/><polyline stroke-linecap="round" stroke="black" stroke-width="1.0" points="-0.0 0 0.0 0" transform="translate(154.432 97.79) rotate(-0.0)"/><polyline stroke-linecap="round" stroke="black" stroke-width="1.0" points="-0.0 0 0.0 0" transform="translate(141.1224 97.7646) rotate(-90.0)"/><polyline stroke-linecap="round" stroke="black" stroke-width="1.0" points="-0.0 0 0.0 0" transform="translate(141.1224 95.2246) rotate(-90.0)"/><polyline stroke-linecap="round" stroke="black" stroke-width="1.0" points="-0.0 0 0.0 0" transform="translate(143.6624 97.7646) rotate(-90.0)"/><polyline stroke-linecap="round" stroke="black" stroke-width="1.0" points="-0.0 0 0.0 0" transform="translate(143.6624 95.2246) rotate(-90.0)"/><polyline stroke-linecap="round" stroke="black" stroke-width="1.0" points="-0.0 0 0.0 0" transform="translate(146.2024 97.7646) rotate(-90.0)"/><polyline stroke-linecap="round" stroke="black" stroke-width="1.0" points="-0.0 0 0.0 0" transform="translate(146.2024 95.2246) rotate(-90.0)"/><polyline stroke-linecap="round" stroke="black" stroke-width="1.0" points="-0.0 0 0.0 0" transform="translate(140.97 77.216) rotate(-0.0)"/><polyline stroke-linecap="round" stroke="black" stroke-width="1.0" points="-0.0 0 0.0 0" transform="translate(140.97 79.756) rotate(-0.0)"/><polyline stroke-linecap="round" stroke="black" stroke-width="1.0" points="-0.0 0 0.0 0" transform="translate(140.97 82.296) rotate(-0.0)"/><polyline stroke-linecap="round" stroke="black" stroke-width="1.0" points="-0.0 0 0.0 0" transform="translate(140.97 84.836) rotate(-0.0)"/><polyline stroke-linecap="round" stroke="black" stroke-width="1.0" points="-0.0 0 0.0 0" transform="translate(140.97 87.376) rotate(-0.0)"/><polyline stroke-linecap="round" stroke="black" stroke-width="1.0" points="-0.0 0 0.0 0" transform="translate(140.97 89.916) rotate(-0.0)"/><polyline stroke-linecap="round" stroke="black" stroke-width="0.95" points="-0.0 0 0.0 0" transform="translate(173.482 81.534) rotate(-90.0)"/><polyline stroke-linecap="round" stroke="black" stroke-width="0.95" points="-0.0 0 0.0 0" transform="translate(173.482 84.034) rotate(-90.0)"/><polyline stroke-linecap="round" stroke="black" stroke-width="0.95" points="-0.0 0 0.0 0" transform="translate(175.482 84.034) rotate(-90.0)"/><polyline stroke-linecap="round" stroke="black" stroke-width="0.95" points="-0.0 0 0.0 0" transform="translate(175.482 81.534) rotate(-90.0)"/><polyline stroke-linecap="round" stroke="black" stroke-width="2.3" points="-0.0 0 0.0 0" transform="translate(178.342 76.784) rotate(-90.0)"/><polyline stroke-linecap="round" stroke="black" stroke-width="2.3" points="-0.0 0 0.0 0" transform="translate(178.342 88.784) rotate(-90.0)"/><polyline stroke-linecap="round" stroke="black" stroke-width="0.4" points="-0.0 0 0.0 0" transform="translate(154.3558 75.7936) rotate(-0.0)"/><polyline stroke-linecap="round" stroke="black" stroke-width="0.4" points="-0.0 0 0.0 0" transform="translate(123.1138 73.3298) rotate(-0.0)"/><polyline stroke-linecap="round" stroke="black" stroke-width="0.4" points="-0.0 0 0.0 0" transform="translate(129.1082 77.9526) rotate(-0.0)"/><polyline stroke-linecap="round" stroke="black" stroke-width="0.4" points="-0.0 0 0.0 0" transform="translate(167.259 97.9424) rotate(-0.0)"/><polyline stroke-linecap="round" stroke="black" stroke-width="0.4" points="-0.0 0 0.0 0" transform="translate(155.6766 83.058) rotate(-0.0)"/><polyline stroke-linecap="round" stroke="black" stroke-width="0.4" points="-0.0 0 0.0 0" transform="translate(163.83 76.7588) rotate(-0.0)"/><polyline stroke-linecap="round" stroke="black" stroke-width="0.4" points="-0.0 0 0.0 0" transform="translate(125.349 90.9066) rotate(-0.0)"/><polyline stroke-linecap="round" stroke="black" stroke-width="0.4" points="-0.0 0 0.0 0" transform="translate(130.81 95.3516) rotate(-0.0)"/><polyline stroke-linecap="round" stroke="black" stroke-width="0.4" points="-0.0 0 0.0 0" transform="translate(129.0828 73.3806) rotate(-0.0)"/><polyline stroke-linecap="round" stroke="black" stroke-width="0.4" points="-0.0 0 0.0 0" transform="translate(144.8308 85.0646) rotate(-0.0)"/><polyline stroke-linecap="round" stroke="black" stroke-width="0.4" points="-0.0 0 0.0 0" transform="translate(123.0884 78.1304) rotate(-0.0)"/><polyline stroke-linecap="round" stroke="black" stroke-width="0.4" points="-0.0 0 0.0 0" transform="translate(159.8422 98.6028) rotate(-0.0)"/><polyline stroke-linecap="round" stroke="black" stroke-width="0.4" points="-0.0 0 0.0 0" transform="translate(154.5336 83.2866) rotate(-0.0)"/><polyline stroke-linecap="round" stroke="black" stroke-width="0.4" points="-0.0 0 0.0 0" transform="translate(146.0246 69.2404) rotate(-0.0)"/><polyline stroke-linecap="round" stroke="black" stroke-width="0.4" points="-0.0 0 0.0 0" transform="translate(159.1818 81.9658) rotate(-0.0)"/><polyline stroke-linecap="round" stroke="black" stroke-width="0.4" points="-0.0 0 0.0 0" transform="translate(130.8354 88.9) rotate(-0.0)"/><polyline stroke-linecap="round" stroke="black" stroke-width="0.4" points="-0.0 0 0.0 0" transform="translate(129.1082 84.3026) rotate(-0.0)"/><polyline stroke-linecap="round" stroke="black" stroke-width="0.4" points="-0.0 0 0.0 0" transform="translate(121.5644 89.3318) rotate(-0.0)"/><polyline stroke-linecap="round" stroke="black" stroke-width="0.4" points="-0.0 0 0.0 0" transform="translate(123.1392 84.4042) rotate(-0.0)"/><polyline stroke-linecap="round" stroke="black" stroke-width="0.4" points="-0.0 0 0.0 0" transform="translate(162.7632 70.0024) rotate(-0.0)"/><polyline stroke-linecap="round" stroke="black" stroke-width="0.4" points="-0.0 0 0.0 0" transform="translate(155.0416 70.0786) rotate(-0.0)"/><polyline stroke-linecap="round" stroke="black" stroke-width="0.4" points="-0.0 0 0.0 0" transform="translate(160.6804 81.153) rotate(-0.0)"/><polyline stroke-linecap="round" stroke="black" stroke-width="0.4" points="-0.0 0 0.0 0" transform="translate(166.878 88.773) rotate(-0.0)"/><polyline stroke-linecap="round" stroke="black" stroke-width="0.4" points="-0.0 0 0.0 0" transform="translate(160.5534 86.233) rotate(-0.0)"/><polyline stroke-linecap="round" stroke="black" stroke-width="0.4" points="-0.0 0 0.0 0" transform="translate(167.2336 93.5228) rotate(-0.0)"/><polyline stroke-linecap="round" stroke="black" stroke-width="0.4" points="-0.0 0 0.0 0" transform="translate(165.0492 90.4494) rotate(-0.0)"/><polyline stroke-linecap="round" stroke="black" stroke-width="0.4" points="-0.0 0 0.0 0" transform="translate(165.735 80.1624) rotate(-0.0)"/><polyline stroke-linecap="round" stroke="black" stroke-width="0.4" points="-0.0 0 0.0 0" transform="translate(170.4594 80.4164) rotate(-0.0)"/><polyline stroke-linecap="round" stroke="black" stroke-width="0.4" points="-0.0 0 0.0 0" transform="translate(172.3898 88.138) rotate(-0.0)"/><polyline stroke-linecap="round" stroke="black" stroke-width="0.4" points="-0.0 0 0.0 0" transform="translate(170.561 90.678) rotate(-0.0)"/><polyline stroke-linecap="round" stroke="black" stroke-width="0.4" points="-0.0 0 0.0 0" transform="translate(156.8958 87.5538) rotate(-0.0)"/><polyline stroke-linecap="round" stroke="black" stroke-width="0.4" points="-0.0 0 0.0 0" transform="translate(156.1592 88.392) rotate(-0.0)"/><polyline stroke-linecap="round" stroke="black" stroke-width="0.4" points="-0.0 0 0.0 0" transform="translate(156.2862 91.694) rotate(-0.0)"/><polyline stroke-linecap="round" stroke="black" stroke-width="0.4" points="-0.0 0 0.0 0" transform="translate(155.067 88.5952) rotate(-0.0)"/><polyline stroke-linecap="round" stroke="black" stroke-width="0.4" points="-0.0 0 0.0 0" transform="translate(150.1394 81.8896) rotate(-0.0)"/><polyline stroke-linecap="round" stroke="black" stroke-width="0.4" points="-0.0 0 0.0 0" transform="translate(152.0698 87.2236) rotate(-0.0)"/><polyline stroke-linecap="round" stroke="black" stroke-width="0.4" points="-0.0 0 0.0 0" transform="translate(152.6794 88.3158) rotate(-0.0)"/><polyline stroke-linecap="round" stroke="black" stroke-width="0.4" points="-0.0 0 0.0 0" transform="translate(151.6891 85.852) rotate(-0.0)"/><polyline stroke-linecap="round" stroke="black" stroke-width="0.4" points="-0.0 0 0.0 0" transform="translate(148.595111 85.389689) rotate(-0.0)"/><polyline stroke-linecap="round" stroke="black" stroke-width="0.4" points="-0.0 0 0.0 0" transform="translate(155.956 85.775802) rotate(-0.0)"/></g></mask></defs><g transform="" id="boardContainer"><g id="substrate" clip-path="url(#cut-off)" mask="url(#hole-mask)"><g id="substrate-board" style="fill:#4ca06c; stroke:#4ca06c;"><path d=" M 182.0 101.3 L 182.0 65.7 L 119.0 65.7 L 119.0 101.3 L 182.0 101.3 " style="fill-rule: evenodd;"/><g style="fill: none;stroke: #4ca06c;stroke-width: 0.0500;stroke-opacity: 1;stroke-linecap: round;stroke-linejoin: round">
<path d="M119.0000 101.3000 L182.0000 101.3000 "/>
<path d="M182.0000 101.3000 L182.0000 65.7000 "/>
<path d="M119.0000 65.7000 L119.0000 101.3000 "/>
<path d="M182.0000 65.7000 L119.0000 65.7000 "/>
</g> 
</g></g></g></svg>