G04 #@! TF.GenerationSoftware,KiCad,Pcbnew,6.0.9+dfsg-1~bpo11+1*
G04 #@! TF.CreationDate,2022-12-02T22:38:18+00:00*
G04 #@! TF.ProjectId,t1,74312e6b-6963-4616-945f-706362585858,${git_hash}*
G04 #@! TF.SameCoordinates,Original*
G04 #@! TF.FileFunction,Copper,L4,Bot*
G04 #@! TF.FilePolarity,Positive*
%FSLAX46Y46*%
G04 Gerber Fmt 4.6, Leading zero omitted, Abs format (unit mm)*
G04 Created by KiCad (PCBNEW 6.0.9+dfsg-1~bpo11+1) date 2022-12-02 22:38:18*
%MOMM*%
%LPD*%
G01*
G04 APERTURE LIST*
G04 #@! TA.AperFunction,ComponentPad*
%ADD10R,1.700000X1.700000*%
G04 #@! TD*
G04 #@! TA.AperFunction,ComponentPad*
%ADD11O,1.700000X1.700000*%
G04 #@! TD*
G04 #@! TA.AperFunction,ComponentPad*
%ADD12R,1.600000X1.600000*%
G04 #@! TD*
G04 #@! TA.AperFunction,ComponentPad*
%ADD13C,1.600000*%
G04 #@! TD*
G04 #@! TA.AperFunction,ComponentPad*
%ADD14C,4.000000*%
G04 #@! TD*
G04 #@! TA.AperFunction,SMDPad,CuDef*
%ADD15C,1.000000*%
G04 #@! TD*
G04 #@! TA.AperFunction,ViaPad*
%ADD16C,0.800000*%
G04 #@! TD*
G04 #@! TA.AperFunction,Conductor*
%ADD17C,0.508000*%
G04 #@! TD*
G04 #@! TA.AperFunction,Conductor*
%ADD18C,0.381000*%
G04 #@! TD*
G04 APERTURE END LIST*
D10*
X136300000Y-79500000D03*
D11*
X136300000Y-76960000D03*
X136300000Y-74420000D03*
X136300000Y-71880000D03*
X136300000Y-69340000D03*
D10*
X151892000Y-95250000D03*
D11*
X154432000Y-95250000D03*
X151892000Y-97790000D03*
X154432000Y-97790000D03*
D10*
X141122400Y-97764600D03*
D11*
X141122400Y-95224600D03*
X143662400Y-97764600D03*
X143662400Y-95224600D03*
X146202400Y-97764600D03*
X146202400Y-95224600D03*
D10*
X140970000Y-77216000D03*
D11*
X140970000Y-79756000D03*
X140970000Y-82296000D03*
X140970000Y-84836000D03*
X140970000Y-87376000D03*
X140970000Y-89916000D03*
D12*
X173482000Y-81534000D03*
D13*
X173482000Y-84034000D03*
X175482000Y-84034000D03*
X175482000Y-81534000D03*
D14*
X178342000Y-76784000D03*
X178342000Y-88784000D03*
D15*
X167792400Y-80162400D03*
X173482000Y-78486000D03*
X179070000Y-80772000D03*
X179070000Y-84074000D03*
X164287200Y-70053200D03*
X153492200Y-70027800D03*
X155956000Y-84582000D03*
D16*
X154355800Y-75793600D03*
X123113800Y-73329800D03*
X129108200Y-77952600D03*
X167259000Y-97942400D03*
X155676600Y-83058000D03*
X163830000Y-76758800D03*
X125349000Y-90906600D03*
X130810000Y-95351600D03*
X129082800Y-73380600D03*
X144830800Y-85064600D03*
X123088400Y-78130400D03*
X159842200Y-98602800D03*
X154533600Y-83286600D03*
X146024600Y-69240400D03*
X159181800Y-81965800D03*
X130835400Y-88900000D03*
X129108200Y-84302600D03*
X121564400Y-89331800D03*
X123139200Y-84404200D03*
X162763200Y-70002400D03*
X155041600Y-70078600D03*
X160680400Y-81153000D03*
X166878000Y-88773000D03*
X160553400Y-86233000D03*
X167233600Y-93522800D03*
X165049200Y-90449400D03*
X165735000Y-80162400D03*
X170459400Y-80416400D03*
X172389800Y-88138000D03*
X170561000Y-90678000D03*
X156895800Y-87553800D03*
X156159200Y-88392000D03*
X156286200Y-91694000D03*
X155067000Y-88595200D03*
X152679400Y-88315800D03*
X152069800Y-87223600D03*
X151689100Y-85852000D03*
X150139400Y-81889600D03*
X148595111Y-85389689D03*
X155956000Y-85775802D03*
D17*
X164236400Y-70002400D02*
X164287200Y-70053200D01*
X162763200Y-70002400D02*
X164236400Y-70002400D01*
X154990800Y-70027800D02*
X155041600Y-70078600D01*
X153492200Y-70027800D02*
X154990800Y-70027800D01*
X178308000Y-81534000D02*
X179070000Y-80772000D01*
X175482000Y-81534000D02*
X178308000Y-81534000D01*
X165735000Y-80162400D02*
X167792400Y-80162400D01*
X173482000Y-81534000D02*
X173482000Y-78486000D01*
X175482000Y-84034000D02*
X179030000Y-84034000D01*
X179030000Y-84034000D02*
X179070000Y-84074000D01*
X148892800Y-71880000D02*
X156895800Y-79883000D01*
X136300000Y-71880000D02*
X148892800Y-71880000D01*
X156895800Y-79883000D02*
X156895800Y-87553800D01*
X136300000Y-74420000D02*
X149629400Y-74420000D01*
X153720800Y-78511400D02*
X153720800Y-85953600D01*
X153720800Y-85953600D02*
X156159200Y-88392000D01*
X149629400Y-74420000D02*
X153720800Y-78511400D01*
X156286200Y-91694000D02*
X145333526Y-91694000D01*
X145308126Y-91719400D02*
X138938000Y-91719400D01*
X145333526Y-91694000D02*
X145308126Y-91719400D01*
X138303000Y-77749400D02*
X137513600Y-76960000D01*
X137513600Y-76960000D02*
X136300000Y-76960000D01*
X138938000Y-91719400D02*
X138303000Y-91084400D01*
X138303000Y-91084400D02*
X138303000Y-77749400D01*
X134289800Y-78206600D02*
X134289800Y-77110726D01*
X135583200Y-79500000D02*
X134289800Y-78206600D01*
X136300000Y-79500000D02*
X135583200Y-79500000D01*
X152882600Y-86410800D02*
X155067000Y-88595200D01*
X152882600Y-78892400D02*
X152882600Y-86410800D01*
X135696927Y-75703599D02*
X149693799Y-75703599D01*
X149693799Y-75703599D02*
X152882600Y-78892400D01*
X134289800Y-77110726D02*
X135696927Y-75703599D01*
X147675600Y-88315800D02*
X146075400Y-89916000D01*
X152679400Y-88315800D02*
X147675600Y-88315800D01*
X146075400Y-89916000D02*
X140970000Y-89916000D01*
X141122400Y-87223600D02*
X140970000Y-87376000D01*
X152069800Y-87223600D02*
X141122400Y-87223600D01*
X151289101Y-86251999D02*
X142385999Y-86251999D01*
X142385999Y-86251999D02*
X140970000Y-84836000D01*
X151689100Y-85852000D02*
X151289101Y-86251999D01*
X148259800Y-81889600D02*
X150139400Y-81889600D01*
X147853400Y-82296000D02*
X148259800Y-81889600D01*
X140970000Y-82296000D02*
X147853400Y-82296000D01*
X146757823Y-83552401D02*
X148595111Y-85389689D01*
X139446000Y-82631474D02*
X140366927Y-83552401D01*
X140366927Y-83552401D02*
X146757823Y-83552401D01*
X139446000Y-81280000D02*
X139446000Y-82631474D01*
X140970000Y-79756000D02*
X139446000Y-81280000D01*
D18*
X155956000Y-84582000D02*
X155956000Y-85775802D01*
M02*
