G04 #@! TF.GenerationSoftware,KiCad,Pcbnew,6.0.5+dfsg-1~bpo11+1*
G04 #@! TF.CreationDate,2022-06-14T18:12:27+00:00*
G04 #@! TF.ProjectId,t1,74312e6b-6963-4616-945f-706362585858,${git_hash}*
G04 #@! TF.SameCoordinates,Original*
G04 #@! TF.FileFunction,Copper,L1,Top*
G04 #@! TF.FilePolarity,Positive*
%FSLAX46Y46*%
G04 Gerber Fmt 4.6, Leading zero omitted, Abs format (unit mm)*
G04 Created by KiCad (PCBNEW 6.0.5+dfsg-1~bpo11+1) date 2022-06-14 18:12:27*
%MOMM*%
%LPD*%
G01*
G04 APERTURE LIST*
G04 #@! TA.AperFunction,SMDPad,CuDef*
%ADD10C,0.750000*%
G04 #@! TD*
G04 #@! TA.AperFunction,SMDPad,CuDef*
%ADD11R,2.000000X3.000000*%
G04 #@! TD*
G04 #@! TA.AperFunction,ComponentPad*
%ADD12R,1.700000X1.700000*%
G04 #@! TD*
G04 #@! TA.AperFunction,ComponentPad*
%ADD13O,1.700000X1.700000*%
G04 #@! TD*
G04 #@! TA.AperFunction,SMDPad,CuDef*
%ADD14R,1.900000X2.400000*%
G04 #@! TD*
G04 #@! TA.AperFunction,ComponentPad*
%ADD15R,1.600000X1.600000*%
G04 #@! TD*
G04 #@! TA.AperFunction,ComponentPad*
%ADD16C,1.600000*%
G04 #@! TD*
G04 #@! TA.AperFunction,ComponentPad*
%ADD17C,4.000000*%
G04 #@! TD*
G04 #@! TA.AperFunction,SMDPad,CuDef*
%ADD18R,0.550000X1.600000*%
G04 #@! TD*
G04 #@! TA.AperFunction,SMDPad,CuDef*
%ADD19R,1.600000X0.550000*%
G04 #@! TD*
G04 #@! TA.AperFunction,ViaPad*
%ADD20C,0.800000*%
G04 #@! TD*
G04 #@! TA.AperFunction,Conductor*
%ADD21C,0.508000*%
G04 #@! TD*
G04 #@! TA.AperFunction,Conductor*
%ADD22C,0.381000*%
G04 #@! TD*
G04 APERTURE END LIST*
G04 #@! TA.AperFunction,SMDPad,CuDef*
G36*
G01*
X129835400Y-89894400D02*
X131835400Y-89894400D01*
G75*
G02*
X132085400Y-90144400I0J-250000D01*
G01*
X132085400Y-93144400D01*
G75*
G02*
X131835400Y-93394400I-250000J0D01*
G01*
X129835400Y-93394400D01*
G75*
G02*
X129585400Y-93144400I0J250000D01*
G01*
X129585400Y-90144400D01*
G75*
G02*
X129835400Y-89894400I250000J0D01*
G01*
G37*
G04 #@! TD.AperFunction*
G04 #@! TA.AperFunction,SMDPad,CuDef*
G36*
G01*
X129835400Y-96394400D02*
X131835400Y-96394400D01*
G75*
G02*
X132085400Y-96644400I0J-250000D01*
G01*
X132085400Y-99644400D01*
G75*
G02*
X131835400Y-99894400I-250000J0D01*
G01*
X129835400Y-99894400D01*
G75*
G02*
X129585400Y-99644400I0J250000D01*
G01*
X129585400Y-96644400D01*
G75*
G02*
X129835400Y-96394400I250000J0D01*
G01*
G37*
G04 #@! TD.AperFunction*
G04 #@! TA.AperFunction,SMDPad,CuDef*
G36*
G01*
X121575000Y-91356250D02*
X121575000Y-90443750D01*
G75*
G02*
X121818750Y-90200000I243750J0D01*
G01*
X122306250Y-90200000D01*
G75*
G02*
X122550000Y-90443750I0J-243750D01*
G01*
X122550000Y-91356250D01*
G75*
G02*
X122306250Y-91600000I-243750J0D01*
G01*
X121818750Y-91600000D01*
G75*
G02*
X121575000Y-91356250I0J243750D01*
G01*
G37*
G04 #@! TD.AperFunction*
G04 #@! TA.AperFunction,SMDPad,CuDef*
G36*
G01*
X123450000Y-91356250D02*
X123450000Y-90443750D01*
G75*
G02*
X123693750Y-90200000I243750J0D01*
G01*
X124181250Y-90200000D01*
G75*
G02*
X124425000Y-90443750I0J-243750D01*
G01*
X124425000Y-91356250D01*
G75*
G02*
X124181250Y-91600000I-243750J0D01*
G01*
X123693750Y-91600000D01*
G75*
G02*
X123450000Y-91356250I0J243750D01*
G01*
G37*
G04 #@! TD.AperFunction*
G04 #@! TA.AperFunction,SMDPad,CuDef*
G36*
G01*
X161803750Y-73691000D02*
X162716250Y-73691000D01*
G75*
G02*
X162960000Y-73934750I0J-243750D01*
G01*
X162960000Y-74422250D01*
G75*
G02*
X162716250Y-74666000I-243750J0D01*
G01*
X161803750Y-74666000D01*
G75*
G02*
X161560000Y-74422250I0J243750D01*
G01*
X161560000Y-73934750D01*
G75*
G02*
X161803750Y-73691000I243750J0D01*
G01*
G37*
G04 #@! TD.AperFunction*
G04 #@! TA.AperFunction,SMDPad,CuDef*
G36*
G01*
X161803750Y-75566000D02*
X162716250Y-75566000D01*
G75*
G02*
X162960000Y-75809750I0J-243750D01*
G01*
X162960000Y-76297250D01*
G75*
G02*
X162716250Y-76541000I-243750J0D01*
G01*
X161803750Y-76541000D01*
G75*
G02*
X161560000Y-76297250I0J243750D01*
G01*
X161560000Y-75809750D01*
G75*
G02*
X161803750Y-75566000I243750J0D01*
G01*
G37*
G04 #@! TD.AperFunction*
G04 #@! TA.AperFunction,SMDPad,CuDef*
G36*
G01*
X155453750Y-73691000D02*
X156366250Y-73691000D01*
G75*
G02*
X156610000Y-73934750I0J-243750D01*
G01*
X156610000Y-74422250D01*
G75*
G02*
X156366250Y-74666000I-243750J0D01*
G01*
X155453750Y-74666000D01*
G75*
G02*
X155210000Y-74422250I0J243750D01*
G01*
X155210000Y-73934750D01*
G75*
G02*
X155453750Y-73691000I243750J0D01*
G01*
G37*
G04 #@! TD.AperFunction*
G04 #@! TA.AperFunction,SMDPad,CuDef*
G36*
G01*
X155453750Y-75566000D02*
X156366250Y-75566000D01*
G75*
G02*
X156610000Y-75809750I0J-243750D01*
G01*
X156610000Y-76297250D01*
G75*
G02*
X156366250Y-76541000I-243750J0D01*
G01*
X155453750Y-76541000D01*
G75*
G02*
X155210000Y-76297250I0J243750D01*
G01*
X155210000Y-75809750D01*
G75*
G02*
X155453750Y-75566000I243750J0D01*
G01*
G37*
G04 #@! TD.AperFunction*
G04 #@! TA.AperFunction,SMDPad,CuDef*
G36*
G01*
X162865750Y-87729000D02*
X163778250Y-87729000D01*
G75*
G02*
X164022000Y-87972750I0J-243750D01*
G01*
X164022000Y-88460250D01*
G75*
G02*
X163778250Y-88704000I-243750J0D01*
G01*
X162865750Y-88704000D01*
G75*
G02*
X162622000Y-88460250I0J243750D01*
G01*
X162622000Y-87972750D01*
G75*
G02*
X162865750Y-87729000I243750J0D01*
G01*
G37*
G04 #@! TD.AperFunction*
G04 #@! TA.AperFunction,SMDPad,CuDef*
G36*
G01*
X162865750Y-89604000D02*
X163778250Y-89604000D01*
G75*
G02*
X164022000Y-89847750I0J-243750D01*
G01*
X164022000Y-90335250D01*
G75*
G02*
X163778250Y-90579000I-243750J0D01*
G01*
X162865750Y-90579000D01*
G75*
G02*
X162622000Y-90335250I0J243750D01*
G01*
X162622000Y-89847750D01*
G75*
G02*
X162865750Y-89604000I243750J0D01*
G01*
G37*
G04 #@! TD.AperFunction*
G04 #@! TA.AperFunction,SMDPad,CuDef*
G36*
G01*
X152549800Y-79323250D02*
X152549800Y-78410750D01*
G75*
G02*
X152793550Y-78167000I243750J0D01*
G01*
X153281050Y-78167000D01*
G75*
G02*
X153524800Y-78410750I0J-243750D01*
G01*
X153524800Y-79323250D01*
G75*
G02*
X153281050Y-79567000I-243750J0D01*
G01*
X152793550Y-79567000D01*
G75*
G02*
X152549800Y-79323250I0J243750D01*
G01*
G37*
G04 #@! TD.AperFunction*
G04 #@! TA.AperFunction,SMDPad,CuDef*
G36*
G01*
X154424800Y-79323250D02*
X154424800Y-78410750D01*
G75*
G02*
X154668550Y-78167000I243750J0D01*
G01*
X155156050Y-78167000D01*
G75*
G02*
X155399800Y-78410750I0J-243750D01*
G01*
X155399800Y-79323250D01*
G75*
G02*
X155156050Y-79567000I-243750J0D01*
G01*
X154668550Y-79567000D01*
G75*
G02*
X154424800Y-79323250I0J243750D01*
G01*
G37*
G04 #@! TD.AperFunction*
G04 #@! TA.AperFunction,SMDPad,CuDef*
G36*
G01*
X145210850Y-80393600D02*
X144298350Y-80393600D01*
G75*
G02*
X144054600Y-80149850I0J243750D01*
G01*
X144054600Y-79662350D01*
G75*
G02*
X144298350Y-79418600I243750J0D01*
G01*
X145210850Y-79418600D01*
G75*
G02*
X145454600Y-79662350I0J-243750D01*
G01*
X145454600Y-80149850D01*
G75*
G02*
X145210850Y-80393600I-243750J0D01*
G01*
G37*
G04 #@! TD.AperFunction*
G04 #@! TA.AperFunction,SMDPad,CuDef*
G36*
G01*
X145210850Y-78518600D02*
X144298350Y-78518600D01*
G75*
G02*
X144054600Y-78274850I0J243750D01*
G01*
X144054600Y-77787350D01*
G75*
G02*
X144298350Y-77543600I243750J0D01*
G01*
X145210850Y-77543600D01*
G75*
G02*
X145454600Y-77787350I0J-243750D01*
G01*
X145454600Y-78274850D01*
G75*
G02*
X145210850Y-78518600I-243750J0D01*
G01*
G37*
G04 #@! TD.AperFunction*
G04 #@! TA.AperFunction,SMDPad,CuDef*
G36*
G01*
X163439000Y-98799000D02*
X162189000Y-98799000D01*
G75*
G02*
X161939000Y-98549000I0J250000D01*
G01*
X161939000Y-97799000D01*
G75*
G02*
X162189000Y-97549000I250000J0D01*
G01*
X163439000Y-97549000D01*
G75*
G02*
X163689000Y-97799000I0J-250000D01*
G01*
X163689000Y-98549000D01*
G75*
G02*
X163439000Y-98799000I-250000J0D01*
G01*
G37*
G04 #@! TD.AperFunction*
G04 #@! TA.AperFunction,SMDPad,CuDef*
G36*
G01*
X163439000Y-95999000D02*
X162189000Y-95999000D01*
G75*
G02*
X161939000Y-95749000I0J250000D01*
G01*
X161939000Y-94999000D01*
G75*
G02*
X162189000Y-94749000I250000J0D01*
G01*
X163439000Y-94749000D01*
G75*
G02*
X163689000Y-94999000I0J-250000D01*
G01*
X163689000Y-95749000D01*
G75*
G02*
X163439000Y-95999000I-250000J0D01*
G01*
G37*
G04 #@! TD.AperFunction*
G04 #@! TA.AperFunction,SMDPad,CuDef*
G36*
G01*
X147776250Y-76375000D02*
X146863750Y-76375000D01*
G75*
G02*
X146620000Y-76131250I0J243750D01*
G01*
X146620000Y-75643750D01*
G75*
G02*
X146863750Y-75400000I243750J0D01*
G01*
X147776250Y-75400000D01*
G75*
G02*
X148020000Y-75643750I0J-243750D01*
G01*
X148020000Y-76131250D01*
G75*
G02*
X147776250Y-76375000I-243750J0D01*
G01*
G37*
G04 #@! TD.AperFunction*
G04 #@! TA.AperFunction,SMDPad,CuDef*
G36*
G01*
X147776250Y-74500000D02*
X146863750Y-74500000D01*
G75*
G02*
X146620000Y-74256250I0J243750D01*
G01*
X146620000Y-73768750D01*
G75*
G02*
X146863750Y-73525000I243750J0D01*
G01*
X147776250Y-73525000D01*
G75*
G02*
X148020000Y-73768750I0J-243750D01*
G01*
X148020000Y-74256250D01*
G75*
G02*
X147776250Y-74500000I-243750J0D01*
G01*
G37*
G04 #@! TD.AperFunction*
G04 #@! TA.AperFunction,SMDPad,CuDef*
G36*
G01*
X145236250Y-76375000D02*
X144323750Y-76375000D01*
G75*
G02*
X144080000Y-76131250I0J243750D01*
G01*
X144080000Y-75643750D01*
G75*
G02*
X144323750Y-75400000I243750J0D01*
G01*
X145236250Y-75400000D01*
G75*
G02*
X145480000Y-75643750I0J-243750D01*
G01*
X145480000Y-76131250D01*
G75*
G02*
X145236250Y-76375000I-243750J0D01*
G01*
G37*
G04 #@! TD.AperFunction*
G04 #@! TA.AperFunction,SMDPad,CuDef*
G36*
G01*
X145236250Y-74500000D02*
X144323750Y-74500000D01*
G75*
G02*
X144080000Y-74256250I0J243750D01*
G01*
X144080000Y-73768750D01*
G75*
G02*
X144323750Y-73525000I243750J0D01*
G01*
X145236250Y-73525000D01*
G75*
G02*
X145480000Y-73768750I0J-243750D01*
G01*
X145480000Y-74256250D01*
G75*
G02*
X145236250Y-74500000I-243750J0D01*
G01*
G37*
G04 #@! TD.AperFunction*
G04 #@! TA.AperFunction,SMDPad,CuDef*
G36*
G01*
X165194000Y-78666000D02*
X165194000Y-75766000D01*
G75*
G02*
X165444000Y-75516000I250000J0D01*
G01*
X166069000Y-75516000D01*
G75*
G02*
X166319000Y-75766000I0J-250000D01*
G01*
X166319000Y-78666000D01*
G75*
G02*
X166069000Y-78916000I-250000J0D01*
G01*
X165444000Y-78916000D01*
G75*
G02*
X165194000Y-78666000I0J250000D01*
G01*
G37*
G04 #@! TD.AperFunction*
G04 #@! TA.AperFunction,SMDPad,CuDef*
G36*
G01*
X169469000Y-78666000D02*
X169469000Y-75766000D01*
G75*
G02*
X169719000Y-75516000I250000J0D01*
G01*
X170344000Y-75516000D01*
G75*
G02*
X170594000Y-75766000I0J-250000D01*
G01*
X170594000Y-78666000D01*
G75*
G02*
X170344000Y-78916000I-250000J0D01*
G01*
X169719000Y-78916000D01*
G75*
G02*
X169469000Y-78666000I0J250000D01*
G01*
G37*
G04 #@! TD.AperFunction*
G04 #@! TA.AperFunction,SMDPad,CuDef*
G36*
G01*
X169319000Y-90221750D02*
X169319000Y-91134250D01*
G75*
G02*
X169075250Y-91378000I-243750J0D01*
G01*
X168587750Y-91378000D01*
G75*
G02*
X168344000Y-91134250I0J243750D01*
G01*
X168344000Y-90221750D01*
G75*
G02*
X168587750Y-89978000I243750J0D01*
G01*
X169075250Y-89978000D01*
G75*
G02*
X169319000Y-90221750I0J-243750D01*
G01*
G37*
G04 #@! TD.AperFunction*
G04 #@! TA.AperFunction,SMDPad,CuDef*
G36*
G01*
X167444000Y-90221750D02*
X167444000Y-91134250D01*
G75*
G02*
X167200250Y-91378000I-243750J0D01*
G01*
X166712750Y-91378000D01*
G75*
G02*
X166469000Y-91134250I0J243750D01*
G01*
X166469000Y-90221750D01*
G75*
G02*
X166712750Y-89978000I243750J0D01*
G01*
X167200250Y-89978000D01*
G75*
G02*
X167444000Y-90221750I0J-243750D01*
G01*
G37*
G04 #@! TD.AperFunction*
D10*
X169418000Y-70612000D03*
X171704000Y-97282000D03*
X129997200Y-70078600D03*
X137210800Y-98171000D03*
D11*
X123100000Y-75700000D03*
X129100000Y-75700000D03*
X129100000Y-86700000D03*
X123100000Y-86700000D03*
D12*
X136300000Y-79500000D03*
D13*
X136300000Y-76960000D03*
X136300000Y-74420000D03*
X136300000Y-71880000D03*
X136300000Y-69340000D03*
D12*
X151892000Y-95250000D03*
D13*
X154432000Y-95250000D03*
X151892000Y-97790000D03*
X154432000Y-97790000D03*
D12*
X141122400Y-97764600D03*
D13*
X141122400Y-95224600D03*
X143662400Y-97764600D03*
X143662400Y-95224600D03*
X146202400Y-97764600D03*
X146202400Y-95224600D03*
D12*
X140970000Y-77216000D03*
D13*
X140970000Y-79756000D03*
X140970000Y-82296000D03*
X140970000Y-84836000D03*
X140970000Y-87376000D03*
X140970000Y-89916000D03*
G04 #@! TA.AperFunction,SMDPad,CuDef*
G36*
X166509000Y-95633400D02*
G01*
X166509000Y-95133400D01*
X166513967Y-95133400D01*
X166515432Y-95053459D01*
X166557707Y-94918144D01*
X166636262Y-94800134D01*
X166744781Y-94708914D01*
X166874540Y-94651819D01*
X167009000Y-94634236D01*
X167009000Y-94633400D01*
X167509000Y-94633400D01*
X167509000Y-94634236D01*
X167515109Y-94633437D01*
X167655186Y-94655248D01*
X167783511Y-94715496D01*
X167889769Y-94809340D01*
X167965417Y-94929235D01*
X168004374Y-95065542D01*
X168003959Y-95133400D01*
X168009000Y-95133400D01*
X168009000Y-95633400D01*
X166509000Y-95633400D01*
G37*
G04 #@! TD.AperFunction*
G04 #@! TA.AperFunction,SMDPad,CuDef*
G36*
X168003959Y-96433400D02*
G01*
X168003508Y-96507305D01*
X167962889Y-96643126D01*
X167885782Y-96762088D01*
X167778385Y-96854626D01*
X167649333Y-96913303D01*
X167509000Y-96933400D01*
X167009000Y-96933400D01*
X166996784Y-96933251D01*
X166856983Y-96909731D01*
X166729404Y-96847919D01*
X166624300Y-96752784D01*
X166550123Y-96631974D01*
X166512834Y-96495201D01*
X166513967Y-96433400D01*
X166509000Y-96433400D01*
X166509000Y-95933400D01*
X168009000Y-95933400D01*
X168009000Y-96433400D01*
X168003959Y-96433400D01*
G37*
G04 #@! TD.AperFunction*
G04 #@! TA.AperFunction,SMDPad,CuDef*
G36*
G01*
X164945000Y-86562250D02*
X164945000Y-85649750D01*
G75*
G02*
X165188750Y-85406000I243750J0D01*
G01*
X165676250Y-85406000D01*
G75*
G02*
X165920000Y-85649750I0J-243750D01*
G01*
X165920000Y-86562250D01*
G75*
G02*
X165676250Y-86806000I-243750J0D01*
G01*
X165188750Y-86806000D01*
G75*
G02*
X164945000Y-86562250I0J243750D01*
G01*
G37*
G04 #@! TD.AperFunction*
G04 #@! TA.AperFunction,SMDPad,CuDef*
G36*
G01*
X166820000Y-86562250D02*
X166820000Y-85649750D01*
G75*
G02*
X167063750Y-85406000I243750J0D01*
G01*
X167551250Y-85406000D01*
G75*
G02*
X167795000Y-85649750I0J-243750D01*
G01*
X167795000Y-86562250D01*
G75*
G02*
X167551250Y-86806000I-243750J0D01*
G01*
X167063750Y-86806000D01*
G75*
G02*
X166820000Y-86562250I0J243750D01*
G01*
G37*
G04 #@! TD.AperFunction*
G04 #@! TA.AperFunction,SMDPad,CuDef*
G36*
G01*
X164945000Y-84276250D02*
X164945000Y-83363750D01*
G75*
G02*
X165188750Y-83120000I243750J0D01*
G01*
X165676250Y-83120000D01*
G75*
G02*
X165920000Y-83363750I0J-243750D01*
G01*
X165920000Y-84276250D01*
G75*
G02*
X165676250Y-84520000I-243750J0D01*
G01*
X165188750Y-84520000D01*
G75*
G02*
X164945000Y-84276250I0J243750D01*
G01*
G37*
G04 #@! TD.AperFunction*
G04 #@! TA.AperFunction,SMDPad,CuDef*
G36*
G01*
X166820000Y-84276250D02*
X166820000Y-83363750D01*
G75*
G02*
X167063750Y-83120000I243750J0D01*
G01*
X167551250Y-83120000D01*
G75*
G02*
X167795000Y-83363750I0J-243750D01*
G01*
X167795000Y-84276250D01*
G75*
G02*
X167551250Y-84520000I-243750J0D01*
G01*
X167063750Y-84520000D01*
G75*
G02*
X166820000Y-84276250I0J243750D01*
G01*
G37*
G04 #@! TD.AperFunction*
G04 #@! TA.AperFunction,SMDPad,CuDef*
G36*
G01*
X160383000Y-75421750D02*
X160383000Y-76334250D01*
G75*
G02*
X160139250Y-76578000I-243750J0D01*
G01*
X159651750Y-76578000D01*
G75*
G02*
X159408000Y-76334250I0J243750D01*
G01*
X159408000Y-75421750D01*
G75*
G02*
X159651750Y-75178000I243750J0D01*
G01*
X160139250Y-75178000D01*
G75*
G02*
X160383000Y-75421750I0J-243750D01*
G01*
G37*
G04 #@! TD.AperFunction*
G04 #@! TA.AperFunction,SMDPad,CuDef*
G36*
G01*
X158508000Y-75421750D02*
X158508000Y-76334250D01*
G75*
G02*
X158264250Y-76578000I-243750J0D01*
G01*
X157776750Y-76578000D01*
G75*
G02*
X157533000Y-76334250I0J243750D01*
G01*
X157533000Y-75421750D01*
G75*
G02*
X157776750Y-75178000I243750J0D01*
G01*
X158264250Y-75178000D01*
G75*
G02*
X158508000Y-75421750I0J-243750D01*
G01*
G37*
G04 #@! TD.AperFunction*
G04 #@! TA.AperFunction,SMDPad,CuDef*
G36*
G01*
X159460250Y-97183000D02*
X158547750Y-97183000D01*
G75*
G02*
X158304000Y-96939250I0J243750D01*
G01*
X158304000Y-96451750D01*
G75*
G02*
X158547750Y-96208000I243750J0D01*
G01*
X159460250Y-96208000D01*
G75*
G02*
X159704000Y-96451750I0J-243750D01*
G01*
X159704000Y-96939250D01*
G75*
G02*
X159460250Y-97183000I-243750J0D01*
G01*
G37*
G04 #@! TD.AperFunction*
G04 #@! TA.AperFunction,SMDPad,CuDef*
G36*
G01*
X159460250Y-95308000D02*
X158547750Y-95308000D01*
G75*
G02*
X158304000Y-95064250I0J243750D01*
G01*
X158304000Y-94576750D01*
G75*
G02*
X158547750Y-94333000I243750J0D01*
G01*
X159460250Y-94333000D01*
G75*
G02*
X159704000Y-94576750I0J-243750D01*
G01*
X159704000Y-95064250D01*
G75*
G02*
X159460250Y-95308000I-243750J0D01*
G01*
G37*
G04 #@! TD.AperFunction*
G04 #@! TA.AperFunction,SMDPad,CuDef*
G36*
G01*
X144298350Y-81379000D02*
X145210850Y-81379000D01*
G75*
G02*
X145454600Y-81622750I0J-243750D01*
G01*
X145454600Y-82110250D01*
G75*
G02*
X145210850Y-82354000I-243750J0D01*
G01*
X144298350Y-82354000D01*
G75*
G02*
X144054600Y-82110250I0J243750D01*
G01*
X144054600Y-81622750D01*
G75*
G02*
X144298350Y-81379000I243750J0D01*
G01*
G37*
G04 #@! TD.AperFunction*
G04 #@! TA.AperFunction,SMDPad,CuDef*
G36*
G01*
X144298350Y-83254000D02*
X145210850Y-83254000D01*
G75*
G02*
X145454600Y-83497750I0J-243750D01*
G01*
X145454600Y-83985250D01*
G75*
G02*
X145210850Y-84229000I-243750J0D01*
G01*
X144298350Y-84229000D01*
G75*
G02*
X144054600Y-83985250I0J243750D01*
G01*
X144054600Y-83497750D01*
G75*
G02*
X144298350Y-83254000I243750J0D01*
G01*
G37*
G04 #@! TD.AperFunction*
G04 #@! TA.AperFunction,SMDPad,CuDef*
G36*
G01*
X146863750Y-68749800D02*
X147776250Y-68749800D01*
G75*
G02*
X148020000Y-68993550I0J-243750D01*
G01*
X148020000Y-69481050D01*
G75*
G02*
X147776250Y-69724800I-243750J0D01*
G01*
X146863750Y-69724800D01*
G75*
G02*
X146620000Y-69481050I0J243750D01*
G01*
X146620000Y-68993550D01*
G75*
G02*
X146863750Y-68749800I243750J0D01*
G01*
G37*
G04 #@! TD.AperFunction*
G04 #@! TA.AperFunction,SMDPad,CuDef*
G36*
G01*
X146863750Y-70624800D02*
X147776250Y-70624800D01*
G75*
G02*
X148020000Y-70868550I0J-243750D01*
G01*
X148020000Y-71356050D01*
G75*
G02*
X147776250Y-71599800I-243750J0D01*
G01*
X146863750Y-71599800D01*
G75*
G02*
X146620000Y-71356050I0J243750D01*
G01*
X146620000Y-70868550D01*
G75*
G02*
X146863750Y-70624800I243750J0D01*
G01*
G37*
G04 #@! TD.AperFunction*
G04 #@! TA.AperFunction,SMDPad,CuDef*
G36*
G01*
X144323750Y-68749800D02*
X145236250Y-68749800D01*
G75*
G02*
X145480000Y-68993550I0J-243750D01*
G01*
X145480000Y-69481050D01*
G75*
G02*
X145236250Y-69724800I-243750J0D01*
G01*
X144323750Y-69724800D01*
G75*
G02*
X144080000Y-69481050I0J243750D01*
G01*
X144080000Y-68993550D01*
G75*
G02*
X144323750Y-68749800I243750J0D01*
G01*
G37*
G04 #@! TD.AperFunction*
G04 #@! TA.AperFunction,SMDPad,CuDef*
G36*
G01*
X144323750Y-70624800D02*
X145236250Y-70624800D01*
G75*
G02*
X145480000Y-70868550I0J-243750D01*
G01*
X145480000Y-71356050D01*
G75*
G02*
X145236250Y-71599800I-243750J0D01*
G01*
X144323750Y-71599800D01*
G75*
G02*
X144080000Y-71356050I0J243750D01*
G01*
X144080000Y-70868550D01*
G75*
G02*
X144323750Y-70624800I243750J0D01*
G01*
G37*
G04 #@! TD.AperFunction*
G04 #@! TA.AperFunction,SMDPad,CuDef*
G36*
G01*
X170177750Y-86125500D02*
X170690250Y-86125500D01*
G75*
G02*
X170909000Y-86344250I0J-218750D01*
G01*
X170909000Y-86781750D01*
G75*
G02*
X170690250Y-87000500I-218750J0D01*
G01*
X170177750Y-87000500D01*
G75*
G02*
X169959000Y-86781750I0J218750D01*
G01*
X169959000Y-86344250D01*
G75*
G02*
X170177750Y-86125500I218750J0D01*
G01*
G37*
G04 #@! TD.AperFunction*
G04 #@! TA.AperFunction,SMDPad,CuDef*
G36*
G01*
X170177750Y-87700500D02*
X170690250Y-87700500D01*
G75*
G02*
X170909000Y-87919250I0J-218750D01*
G01*
X170909000Y-88356750D01*
G75*
G02*
X170690250Y-88575500I-218750J0D01*
G01*
X170177750Y-88575500D01*
G75*
G02*
X169959000Y-88356750I0J218750D01*
G01*
X169959000Y-87919250D01*
G75*
G02*
X170177750Y-87700500I218750J0D01*
G01*
G37*
G04 #@! TD.AperFunction*
D14*
X160977800Y-70027800D03*
X156877800Y-70027800D03*
D15*
X173482000Y-81534000D03*
D16*
X173482000Y-84034000D03*
X175482000Y-84034000D03*
X175482000Y-81534000D03*
D17*
X178342000Y-76784000D03*
X178342000Y-88784000D03*
D18*
X157232000Y-81602000D03*
X156432000Y-81602000D03*
X155632000Y-81602000D03*
X154832000Y-81602000D03*
X154032000Y-81602000D03*
X153232000Y-81602000D03*
X152432000Y-81602000D03*
X151632000Y-81602000D03*
D19*
X150182000Y-83052000D03*
X150182000Y-83852000D03*
X150182000Y-84652000D03*
X150182000Y-85452000D03*
X150182000Y-86252000D03*
X150182000Y-87052000D03*
X150182000Y-87852000D03*
X150182000Y-88652000D03*
D18*
X151632000Y-90102000D03*
X152432000Y-90102000D03*
X153232000Y-90102000D03*
X154032000Y-90102000D03*
X154832000Y-90102000D03*
X155632000Y-90102000D03*
X156432000Y-90102000D03*
X157232000Y-90102000D03*
D19*
X158682000Y-88652000D03*
X158682000Y-87852000D03*
X158682000Y-87052000D03*
X158682000Y-86252000D03*
X158682000Y-85452000D03*
X158682000Y-84652000D03*
X158682000Y-83852000D03*
X158682000Y-83052000D03*
G04 #@! TA.AperFunction,SMDPad,CuDef*
G36*
G01*
X170690250Y-83546400D02*
X170177750Y-83546400D01*
G75*
G02*
X169959000Y-83327650I0J218750D01*
G01*
X169959000Y-82890150D01*
G75*
G02*
X170177750Y-82671400I218750J0D01*
G01*
X170690250Y-82671400D01*
G75*
G02*
X170909000Y-82890150I0J-218750D01*
G01*
X170909000Y-83327650D01*
G75*
G02*
X170690250Y-83546400I-218750J0D01*
G01*
G37*
G04 #@! TD.AperFunction*
G04 #@! TA.AperFunction,SMDPad,CuDef*
G36*
G01*
X170690250Y-81971400D02*
X170177750Y-81971400D01*
G75*
G02*
X169959000Y-81752650I0J218750D01*
G01*
X169959000Y-81315150D01*
G75*
G02*
X170177750Y-81096400I218750J0D01*
G01*
X170690250Y-81096400D01*
G75*
G02*
X170909000Y-81315150I0J-218750D01*
G01*
X170909000Y-81752650D01*
G75*
G02*
X170690250Y-81971400I-218750J0D01*
G01*
G37*
G04 #@! TD.AperFunction*
G04 #@! TA.AperFunction,SMDPad,CuDef*
G36*
G01*
X162838450Y-83492400D02*
X161925950Y-83492400D01*
G75*
G02*
X161682200Y-83248650I0J243750D01*
G01*
X161682200Y-82761150D01*
G75*
G02*
X161925950Y-82517400I243750J0D01*
G01*
X162838450Y-82517400D01*
G75*
G02*
X163082200Y-82761150I0J-243750D01*
G01*
X163082200Y-83248650D01*
G75*
G02*
X162838450Y-83492400I-243750J0D01*
G01*
G37*
G04 #@! TD.AperFunction*
G04 #@! TA.AperFunction,SMDPad,CuDef*
G36*
G01*
X162838450Y-81617400D02*
X161925950Y-81617400D01*
G75*
G02*
X161682200Y-81373650I0J243750D01*
G01*
X161682200Y-80886150D01*
G75*
G02*
X161925950Y-80642400I243750J0D01*
G01*
X162838450Y-80642400D01*
G75*
G02*
X163082200Y-80886150I0J-243750D01*
G01*
X163082200Y-81373650D01*
G75*
G02*
X162838450Y-81617400I-243750J0D01*
G01*
G37*
G04 #@! TD.AperFunction*
D20*
X154355800Y-75793600D03*
X123113800Y-73329800D03*
X129108200Y-77952600D03*
X167259000Y-97942400D03*
X155676600Y-83058000D03*
X163830000Y-76758800D03*
X125349000Y-90906600D03*
X130810000Y-95351600D03*
X129082800Y-73380600D03*
X144830800Y-85064600D03*
X123088400Y-78130400D03*
X159842200Y-98602800D03*
X154533600Y-83286600D03*
X146024600Y-69240400D03*
X159181800Y-81965800D03*
X130835400Y-88900000D03*
X129108200Y-84302600D03*
X121564400Y-89331800D03*
X123139200Y-84404200D03*
X162763200Y-70002400D03*
X155041600Y-70078600D03*
X160680400Y-81153000D03*
X166878000Y-88773000D03*
X160553400Y-86233000D03*
X167233600Y-93522800D03*
X165049200Y-90449400D03*
X165735000Y-80162400D03*
X170459400Y-80416400D03*
X172389800Y-88138000D03*
X170561000Y-90678000D03*
X156895800Y-87553800D03*
X156159200Y-88392000D03*
X156286200Y-91694000D03*
X155067000Y-88595200D03*
X152679400Y-88315800D03*
X152069800Y-87223600D03*
X151689100Y-85852000D03*
X150139400Y-81889600D03*
X148595111Y-85389689D03*
X155956000Y-85775802D03*
D21*
X144754600Y-84988400D02*
X144830800Y-85064600D01*
X125342400Y-90900000D02*
X125349000Y-90906600D01*
X129100000Y-75700000D02*
X129100000Y-77944400D01*
D22*
X155632000Y-83013400D02*
X155676600Y-83058000D01*
D21*
X144754600Y-83741500D02*
X144754600Y-84988400D01*
X123937500Y-90900000D02*
X125342400Y-90900000D01*
X123100000Y-75700000D02*
X123100000Y-78118800D01*
X163124700Y-76053500D02*
X163830000Y-76758800D01*
D22*
X155632000Y-79586700D02*
X154912300Y-78867000D01*
X155632000Y-81602000D02*
X155632000Y-83013400D01*
D21*
X123100000Y-75700000D02*
X123100000Y-73343600D01*
X154615700Y-76053500D02*
X154355800Y-75793600D01*
X123100000Y-73343600D02*
X123113800Y-73329800D01*
X162260000Y-76053500D02*
X163124700Y-76053500D01*
X155910000Y-76053500D02*
X154615700Y-76053500D01*
X167259000Y-96433400D02*
X167259000Y-97942400D01*
X130835400Y-95377000D02*
X130810000Y-95351600D01*
X129100000Y-73397800D02*
X129082800Y-73380600D01*
X129100000Y-77944400D02*
X129108200Y-77952600D01*
X123100000Y-78118800D02*
X123088400Y-78130400D01*
D22*
X155632000Y-81602000D02*
X155632000Y-79586700D01*
D21*
X130835400Y-98144400D02*
X130835400Y-95377000D01*
X129100000Y-75700000D02*
X129100000Y-73397800D01*
X123100000Y-84443400D02*
X123139200Y-84404200D01*
X144780000Y-69237300D02*
X146021500Y-69237300D01*
D22*
X154832000Y-82988200D02*
X154533600Y-83286600D01*
D21*
X129100000Y-84310800D02*
X129108200Y-84302600D01*
X162814000Y-98174000D02*
X160271000Y-98174000D01*
X158682000Y-83052000D02*
X158682000Y-82465600D01*
D22*
X154832000Y-80661700D02*
X153037300Y-78867000D01*
D21*
X159004000Y-97764600D02*
X159842200Y-98602800D01*
X123100000Y-86700000D02*
X123100000Y-84443400D01*
X146021500Y-69237300D02*
X146024600Y-69240400D01*
X159004000Y-96695500D02*
X159004000Y-97764600D01*
X123100000Y-86700000D02*
X123100000Y-87796200D01*
X129100000Y-86700000D02*
X129100000Y-84310800D01*
X129870200Y-88900000D02*
X130835400Y-88900000D01*
X122062500Y-89829900D02*
X121564400Y-89331800D01*
X122062500Y-90900000D02*
X122062500Y-89829900D01*
X130835400Y-91644400D02*
X130835400Y-88900000D01*
X160271000Y-98174000D02*
X159842200Y-98602800D01*
X146027700Y-69237300D02*
X146024600Y-69240400D01*
D22*
X154832000Y-81602000D02*
X154832000Y-80661700D01*
D21*
X158682000Y-82465600D02*
X159181800Y-81965800D01*
X123100000Y-87796200D02*
X121564400Y-89331800D01*
X129100000Y-88129800D02*
X129870200Y-88900000D01*
X129100000Y-86700000D02*
X129100000Y-88129800D01*
X147320000Y-69237300D02*
X146027700Y-69237300D01*
D22*
X154832000Y-81602000D02*
X154832000Y-82988200D01*
D21*
X162260000Y-74178500D02*
X159954300Y-74178500D01*
X162737800Y-70027800D02*
X162763200Y-70002400D01*
D22*
X157232000Y-80283400D02*
X158038800Y-79476600D01*
D21*
X159895500Y-73555900D02*
X160977800Y-72473600D01*
X160977800Y-72473600D02*
X160977800Y-70027800D01*
X158038800Y-79476600D02*
X159895500Y-77619900D01*
X159954300Y-74178500D02*
X159895500Y-74119700D01*
X159895500Y-75878000D02*
X159895500Y-74119700D01*
X160977800Y-70027800D02*
X162737800Y-70027800D01*
D22*
X157232000Y-81602000D02*
X157232000Y-80283400D01*
D21*
X159895500Y-77619900D02*
X159895500Y-75878000D01*
X159895500Y-74119700D02*
X159895500Y-73555900D01*
X155910000Y-74178500D02*
X157875900Y-74178500D01*
X156827000Y-70078600D02*
X156877800Y-70027800D01*
X158020500Y-75878000D02*
X158020500Y-77513700D01*
X155041600Y-70078600D02*
X156827000Y-70078600D01*
X158020500Y-75878000D02*
X158020500Y-74033900D01*
D22*
X156438600Y-79095600D02*
X156432000Y-79102200D01*
D21*
X158020500Y-74033900D02*
X158020500Y-73768700D01*
D22*
X156432000Y-79102200D02*
X156432000Y-81602000D01*
D21*
X158020500Y-77513700D02*
X156438600Y-79095600D01*
X156877800Y-72626000D02*
X156877800Y-70027800D01*
X157875900Y-74178500D02*
X158020500Y-74033900D01*
X158020500Y-73768700D02*
X156877800Y-72626000D01*
D22*
X158682000Y-86252000D02*
X160534400Y-86252000D01*
D21*
X160703500Y-81129900D02*
X160680400Y-81153000D01*
X166878000Y-88773000D02*
X166878000Y-90599500D01*
X163322000Y-90091500D02*
X164691300Y-90091500D01*
X167259000Y-95133400D02*
X167259000Y-93548200D01*
X162382200Y-81129900D02*
X160703500Y-81129900D01*
D22*
X160534400Y-86252000D02*
X160553400Y-86233000D01*
D21*
X166878000Y-90599500D02*
X166956500Y-90678000D01*
X164691300Y-90091500D02*
X165049200Y-90449400D01*
X167259000Y-93548200D02*
X167233600Y-93522800D01*
D22*
X161245400Y-87052000D02*
X162409900Y-88216500D01*
X158682000Y-87052000D02*
X161245400Y-87052000D01*
X162409900Y-88216500D02*
X163322000Y-88216500D01*
X160369000Y-83852000D02*
X161216100Y-83004900D01*
D21*
X162382200Y-83004900D02*
X162892500Y-83004900D01*
X162892500Y-83004900D02*
X165735000Y-80162400D01*
D22*
X158682000Y-83852000D02*
X160369000Y-83852000D01*
D21*
X165756500Y-77216000D02*
X165756500Y-80140900D01*
D22*
X161216100Y-83004900D02*
X162382200Y-83004900D01*
D21*
X165756500Y-80140900D02*
X165735000Y-80162400D01*
X140970000Y-77216000D02*
X143939500Y-77216000D01*
X143939500Y-77216000D02*
X144754600Y-78031100D01*
X146507200Y-82092800D02*
X146280900Y-81866500D01*
X147777200Y-85674200D02*
X146507200Y-84404200D01*
X147777200Y-85712200D02*
X147777200Y-85674200D01*
X146280900Y-81866500D02*
X144754600Y-81866500D01*
X146507200Y-84404200D02*
X146507200Y-82092800D01*
X148317000Y-86252000D02*
X147777200Y-85712200D01*
D22*
X150182000Y-86252000D02*
X148317000Y-86252000D01*
D21*
X144754600Y-79906100D02*
X144754600Y-81866500D01*
X158267400Y-93141800D02*
X157226000Y-92100400D01*
X159004000Y-93294200D02*
X159004000Y-94820500D01*
D22*
X157581600Y-95351600D02*
X158112700Y-94820500D01*
X158112700Y-94820500D02*
X159004000Y-94820500D01*
X146202400Y-97764600D02*
X147929600Y-99491800D01*
D21*
X159156400Y-93141800D02*
X158267400Y-93141800D01*
D22*
X157232000Y-92094400D02*
X157232000Y-90102000D01*
D21*
X162179000Y-93141800D02*
X159156400Y-93141800D01*
D22*
X157581600Y-97713800D02*
X157581600Y-95351600D01*
X157226000Y-92100400D02*
X157232000Y-92094400D01*
D21*
X162814000Y-95374000D02*
X162814000Y-93776800D01*
X162814000Y-93776800D02*
X162179000Y-93141800D01*
X159156400Y-93141800D02*
X159004000Y-93294200D01*
D22*
X147929600Y-99491800D02*
X155803600Y-99491800D01*
X155803600Y-99491800D02*
X157581600Y-97713800D01*
D21*
X147320000Y-71112300D02*
X147320000Y-74012500D01*
D22*
X149175478Y-83852000D02*
X148564600Y-83241122D01*
X150182000Y-83852000D02*
X149175478Y-83852000D01*
D21*
X148564600Y-83241122D02*
X148564600Y-77132100D01*
X148564600Y-77132100D02*
X147320000Y-75887500D01*
X144780000Y-71112300D02*
X144780000Y-74012500D01*
X144780000Y-75887500D02*
X147853400Y-78960900D01*
X147853400Y-78960900D02*
X147853400Y-84404200D01*
D22*
X150162800Y-84632800D02*
X150182000Y-84652000D01*
D21*
X147853400Y-84404200D02*
X148082000Y-84632800D01*
D22*
X148082000Y-84632800D02*
X150162800Y-84632800D01*
D21*
X173482000Y-81534000D02*
X173482000Y-78028800D01*
X173482000Y-78028800D02*
X172669200Y-77216000D01*
X172669200Y-77216000D02*
X170031500Y-77216000D01*
X170434000Y-81762500D02*
X170434000Y-80441800D01*
X170434000Y-88138000D02*
X172389800Y-88138000D01*
X170434000Y-80441800D02*
X170459400Y-80416400D01*
X168831500Y-90678000D02*
X170561000Y-90678000D01*
X175482000Y-84034000D02*
X174121200Y-85394800D01*
X170307000Y-85394800D02*
X168018700Y-85394800D01*
X170434000Y-86563000D02*
X170434000Y-85521800D01*
X168018700Y-85394800D02*
X167307500Y-86106000D01*
X174121200Y-85394800D02*
X170307000Y-85394800D01*
X170434000Y-85521800D02*
X170307000Y-85394800D01*
X170368600Y-84034000D02*
X167521500Y-84034000D01*
X173482000Y-84034000D02*
X170368600Y-84034000D01*
X167521500Y-84034000D02*
X167307500Y-83820000D01*
X170434000Y-83108900D02*
X170434000Y-83968600D01*
X170434000Y-83968600D02*
X170368600Y-84034000D01*
D22*
X154032000Y-80753000D02*
X153188910Y-79909910D01*
D21*
X149885400Y-67640200D02*
X137999800Y-67640200D01*
X151741110Y-79909910D02*
X151358600Y-79527400D01*
X151358600Y-79527400D02*
X151358600Y-69113400D01*
X137999800Y-67640200D02*
X136300000Y-69340000D01*
X151358600Y-69113400D02*
X149885400Y-67640200D01*
D22*
X153188910Y-79909910D02*
X151741110Y-79909910D01*
X154032000Y-81602000D02*
X154032000Y-80753000D01*
X158682000Y-87852000D02*
X157194000Y-87852000D01*
X157194000Y-87852000D02*
X156895800Y-87553800D01*
X156419200Y-88652000D02*
X156159200Y-88392000D01*
X158682000Y-88652000D02*
X156419200Y-88652000D01*
X156432000Y-90102000D02*
X156432000Y-91548200D01*
X156432000Y-91548200D02*
X156286200Y-91694000D01*
X155632000Y-90102000D02*
X155632000Y-89160200D01*
X155632000Y-89160200D02*
X155067000Y-88595200D01*
X155879800Y-94183200D02*
X155879800Y-96342200D01*
X155879800Y-96342200D02*
X154432000Y-97790000D01*
X154832000Y-90102000D02*
X154832000Y-93135400D01*
X154832000Y-93135400D02*
X155879800Y-94183200D01*
X153232000Y-96450000D02*
X151892000Y-97790000D01*
X153232000Y-90102000D02*
X153232000Y-96450000D01*
X154032000Y-94850000D02*
X154432000Y-95250000D01*
X154032000Y-90102000D02*
X154032000Y-94850000D01*
X152432000Y-94710000D02*
X151892000Y-95250000D01*
X152432000Y-90102000D02*
X152432000Y-94710000D01*
D21*
X148894800Y-89992200D02*
X149656800Y-89992200D01*
D22*
X149656800Y-89992200D02*
X150182000Y-89467000D01*
X150182000Y-89467000D02*
X150182000Y-88652000D01*
D21*
X143662400Y-95224600D02*
X148894800Y-89992200D01*
X143662400Y-97764600D02*
X142405999Y-96508199D01*
D22*
X148590000Y-87858600D02*
X148596600Y-87852000D01*
D21*
X148285200Y-87858600D02*
X148310600Y-87858600D01*
X142405999Y-96508199D02*
X142405999Y-93737801D01*
D22*
X148310600Y-87858600D02*
X148590000Y-87858600D01*
D21*
X142405999Y-93737801D02*
X148285200Y-87858600D01*
D22*
X148596600Y-87852000D02*
X150182000Y-87852000D01*
D21*
X148044799Y-96508199D02*
X149098000Y-95454998D01*
X150952200Y-91846400D02*
X150952200Y-91821000D01*
X141122400Y-97764600D02*
X141122400Y-98247200D01*
D22*
X150952200Y-91821000D02*
X151632000Y-91141200D01*
D21*
X141122400Y-98247200D02*
X142341600Y-99466400D01*
X149098000Y-93700600D02*
X150952200Y-91846400D01*
D22*
X151632000Y-91141200D02*
X151632000Y-90102000D01*
D21*
X149098000Y-95454998D02*
X149098000Y-93700600D01*
X144272000Y-99466400D02*
X144945999Y-98792401D01*
X144945999Y-97161527D02*
X145599327Y-96508199D01*
X144945999Y-98792401D02*
X144945999Y-97161527D01*
X145599327Y-96508199D02*
X148044799Y-96508199D01*
X142341600Y-99466400D02*
X144272000Y-99466400D01*
D22*
X153232000Y-87763200D02*
X152679400Y-88315800D01*
X153232000Y-81602000D02*
X153232000Y-87763200D01*
X152432000Y-81602000D02*
X152432000Y-86861400D01*
X152432000Y-86861400D02*
X152069800Y-87223600D01*
X151632000Y-85794900D02*
X151689100Y-85852000D01*
X151632000Y-81602000D02*
X151632000Y-85794900D01*
D21*
X150139400Y-81889600D02*
X150139400Y-83009400D01*
X150139400Y-83009400D02*
X150182000Y-83052000D01*
D22*
X148595111Y-85389689D02*
X150119689Y-85389689D01*
X150119689Y-85389689D02*
X150182000Y-85452000D01*
X158682000Y-85452000D02*
X162998200Y-85452000D01*
X162998200Y-85452000D02*
X163652200Y-86106000D01*
X163652200Y-86106000D02*
X165432500Y-86106000D01*
X158682000Y-84652000D02*
X162998000Y-84652000D01*
X162998000Y-84652000D02*
X163830000Y-83820000D01*
X163830000Y-83820000D02*
X165432500Y-83820000D01*
X157079802Y-84652000D02*
X155956000Y-85775802D01*
X158682000Y-84652000D02*
X157079802Y-84652000D01*
M02*
