<?xml version="1.0" standalone="no"?>
 <!DOCTYPE svg PUBLIC "-//W3C//DTD SVG 1.1//EN" 
 "http://www.w3.org/Graphics/SVG/1.1/DTD/svg11.dtd"> 
<svg
  xmlns:svg="http://www.w3.org/2000/svg"
  xmlns="http://www.w3.org/2000/svg"
  xmlns:xlink="http://www.w3.org/1999/xlink"
  version="1.1"
  width="29.700220cm" height="21.000720cm" viewBox="0 0 297002200 210007200">
<title>SVG Picture created as t1-B_Fab.svg date 2022/06/14 18:12:47 </title>
  <desc>Picture generated by PCBNEW </desc>
<g style="fill:#000000; fill-opacity:1.000000;stroke:#000000; stroke-opacity:1.000000;
stroke-linecap:round; stroke-linejoin:round;"
 transform="translate(0 0) scale(1 1)">
</g>
<g style="fill:#000000; fill-opacity:0.0; 
stroke:#000000; stroke-width:0.000000; stroke-opacity:1; 
stroke-linecap:round; stroke-linejoin:round;">
</g>
<g style="fill:#000000; fill-opacity:0.0; 
stroke:#000000; stroke-width:150000.000000; stroke-opacity:1; 
stroke-linecap:round; stroke-linejoin:round;">
<text x="131165600.000000" y="78833600.000000"
transform="scale(-1 1) translate(-262331200.000000 0)"
textLength="6662143.000000" font-size="1333333.000000" lengthAdjust="spacingAndGlyphs"
text-anchor="middle" opacity="0">TestPoint</text>
<g class="stroked-text"><desc>TestPoint</desc>
<path d="M127832267 77785980
L128403696 77785980
" />
<path d="M128117981 78785980
L128117981 77785980
" />
<path d="M129117981 78738361
L129022743 78785980
L128832267 78785980
L128737029 78738361
L128689410 78643123
L128689410 78262171
L128737029 78166933
L128832267 78119314
L129022743 78119314
L129117981 78166933
L129165600 78262171
L129165600 78357409
L128689410 78452647
" />
<path d="M129546553 78738361
L129641791 78785980
L129832267 78785980
L129927505 78738361
L129975124 78643123
L129975124 78595504
L129927505 78500266
L129832267 78452647
L129689410 78452647
L129594172 78405028
L129546553 78309790
L129546553 78262171
L129594172 78166933
L129689410 78119314
L129832267 78119314
L129927505 78166933
" />
<path d="M130260839 78119314
L130641791 78119314
" />
<path d="M130403696 77785980
L130403696 78643123
L130451315 78738361
L130546553 78785980
L130641791 78785980
" />
<path d="M130975124 78785980
L130975124 77785980
L131356077 77785980
L131451315 77833600
L131498934 77881219
L131546553 77976457
L131546553 78119314
L131498934 78214552
L131451315 78262171
L131356077 78309790
L130975124 78309790
" />
<path d="M132117981 78785980
L132022743 78738361
L131975124 78690742
L131927505 78595504
L131927505 78309790
L131975124 78214552
L132022743 78166933
L132117981 78119314
L132260839 78119314
L132356077 78166933
L132403696 78214552
L132451315 78309790
L132451315 78595504
L132403696 78690742
L132356077 78738361
L132260839 78785980
L132117981 78785980
" />
<path d="M132879886 78785980
L132879886 78119314
" />
<path d="M132879886 77785980
L132832267 77833600
L132879886 77881219
L132927505 77833600
L132879886 77785980
L132879886 77881219
" />
<path d="M133356077 78119314
L133356077 78785980
" />
<path d="M133356077 78214552
L133403696 78166933
L133498934 78119314
L133641791 78119314
L133737029 78166933
L133784648 78262171
L133784648 78785980
" />
<path d="M134117981 78119314
L134498934 78119314
" />
<path d="M134260839 77785980
L134260839 78643123
L134308458 78738361
L134403696 78785980
L134498934 78785980
" />
</g><text x="129209800.000000" y="82112400.000000"
transform="scale(-1 1) translate(-258419600.000000 0)"
textLength="2519286.000000" font-size="1333333.000000" lengthAdjust="spacingAndGlyphs"
text-anchor="middle" opacity="0">TP2</text>
<g class="stroked-text"><desc>TP2</desc>
<path d="M127947896 81064780
L128519324 81064780
" />
<path d="M128233610 82064780
L128233610 81064780
" />
<path d="M128852658 82064780
L128852658 81064780
L129233610 81064780
L129328848 81112400
L129376467 81160019
L129424086 81255257
L129424086 81398114
L129376467 81493352
L129328848 81540971
L129233610 81588590
L128852658 81588590
" />
<path d="M129805039 81160019
L129852658 81112400
L129947896 81064780
L130185991 81064780
L130281229 81112400
L130328848 81160019
L130376467 81255257
L130376467 81350495
L130328848 81493352
L129757420 82064780
L130376467 82064780
" />
</g><text x="124917200.000000" y="77208000.000000"
transform="scale(-1 1) translate(-249834400.000000 0)"
textLength="6662143.000000" font-size="1333333.000000" lengthAdjust="spacingAndGlyphs"
text-anchor="middle" opacity="0">TestPoint</text>
<g class="stroked-text"><desc>TestPoint</desc>
<path d="M121583867 76160380
L122155296 76160380
" />
<path d="M121869581 77160380
L121869581 76160380
" />
<path d="M122869581 77112761
L122774343 77160380
L122583867 77160380
L122488629 77112761
L122441010 77017523
L122441010 76636571
L122488629 76541333
L122583867 76493714
L122774343 76493714
L122869581 76541333
L122917200 76636571
L122917200 76731809
L122441010 76827047
" />
<path d="M123298153 77112761
L123393391 77160380
L123583867 77160380
L123679105 77112761
L123726724 77017523
L123726724 76969904
L123679105 76874666
L123583867 76827047
L123441010 76827047
L123345772 76779428
L123298153 76684190
L123298153 76636571
L123345772 76541333
L123441010 76493714
L123583867 76493714
L123679105 76541333
" />
<path d="M124012439 76493714
L124393391 76493714
" />
<path d="M124155296 76160380
L124155296 77017523
L124202915 77112761
L124298153 77160380
L124393391 77160380
" />
<path d="M124726724 77160380
L124726724 76160380
L125107677 76160380
L125202915 76208000
L125250534 76255619
L125298153 76350857
L125298153 76493714
L125250534 76588952
L125202915 76636571
L125107677 76684190
L124726724 76684190
" />
<path d="M125869581 77160380
L125774343 77112761
L125726724 77065142
L125679105 76969904
L125679105 76684190
L125726724 76588952
L125774343 76541333
L125869581 76493714
L126012439 76493714
L126107677 76541333
L126155296 76588952
L126202915 76684190
L126202915 76969904
L126155296 77065142
L126107677 77112761
L126012439 77160380
L125869581 77160380
" />
<path d="M126631486 77160380
L126631486 76493714
" />
<path d="M126631486 76160380
L126583867 76208000
L126631486 76255619
L126679105 76208000
L126631486 76160380
L126631486 76255619
" />
<path d="M127107677 76493714
L127107677 77160380
" />
<path d="M127107677 76588952
L127155296 76541333
L127250534 76493714
L127393391 76493714
L127488629 76541333
L127536248 76636571
L127536248 77160380
" />
<path d="M127869581 76493714
L128250534 76493714
" />
<path d="M128012439 76160380
L128012439 77017523
L128060058 77112761
L128155296 77160380
L128250534 77160380
" />
</g><text x="125476000.000000" y="80484600.000000"
transform="scale(-1 1) translate(-250952000.000000 0)"
textLength="2519286.000000" font-size="1333333.000000" lengthAdjust="spacingAndGlyphs"
text-anchor="middle" opacity="0">TP3</text>
<g class="stroked-text"><desc>TP3</desc>
<path d="M124214096 79436980
L124785524 79436980
" />
<path d="M124499810 80436980
L124499810 79436980
" />
<path d="M125118858 80436980
L125118858 79436980
L125499810 79436980
L125595048 79484600
L125642667 79532219
L125690286 79627457
L125690286 79770314
L125642667 79865552
L125595048 79913171
L125499810 79960790
L125118858 79960790
" />
<path d="M126023620 79436980
L126642667 79436980
L126309334 79817933
L126452191 79817933
L126547429 79865552
L126595048 79913171
L126642667 80008409
L126642667 80246504
L126595048 80341742
L126547429 80389361
L126452191 80436980
L126166477 80436980
L126071239 80389361
L126023620 80341742
" />
</g><text x="113004600.000000" y="81145000.000000"
transform="scale(-1 1) translate(-226009200.000000 0)"
textLength="6662143.000000" font-size="1333333.000000" lengthAdjust="spacingAndGlyphs"
text-anchor="middle" opacity="0">TestPoint</text>
<g class="stroked-text"><desc>TestPoint</desc>
<path d="M109671267 80097380
L110242696 80097380
" />
<path d="M109956981 81097380
L109956981 80097380
" />
<path d="M110956981 81049761
L110861743 81097380
L110671267 81097380
L110576029 81049761
L110528410 80954523
L110528410 80573571
L110576029 80478333
L110671267 80430714
L110861743 80430714
L110956981 80478333
L111004600 80573571
L111004600 80668809
L110528410 80764047
" />
<path d="M111385553 81049761
L111480791 81097380
L111671267 81097380
L111766505 81049761
L111814124 80954523
L111814124 80906904
L111766505 80811666
L111671267 80764047
L111528410 80764047
L111433172 80716428
L111385553 80621190
L111385553 80573571
L111433172 80478333
L111528410 80430714
L111671267 80430714
L111766505 80478333
" />
<path d="M112099839 80430714
L112480791 80430714
" />
<path d="M112242696 80097380
L112242696 80954523
L112290315 81049761
L112385553 81097380
L112480791 81097380
" />
<path d="M112814124 81097380
L112814124 80097380
L113195077 80097380
L113290315 80145000
L113337934 80192619
L113385553 80287857
L113385553 80430714
L113337934 80525952
L113290315 80573571
L113195077 80621190
L112814124 80621190
" />
<path d="M113956981 81097380
L113861743 81049761
L113814124 81002142
L113766505 80906904
L113766505 80621190
L113814124 80525952
L113861743 80478333
L113956981 80430714
L114099839 80430714
L114195077 80478333
L114242696 80525952
L114290315 80621190
L114290315 80906904
L114242696 81002142
L114195077 81049761
L114099839 81097380
L113956981 81097380
" />
<path d="M114718886 81097380
L114718886 80430714
" />
<path d="M114718886 80097380
L114671267 80145000
L114718886 80192619
L114766505 80145000
L114718886 80097380
L114718886 80192619
" />
<path d="M115195077 80430714
L115195077 81097380
" />
<path d="M115195077 80525952
L115242696 80478333
L115337934 80430714
L115480791 80430714
L115576029 80478333
L115623648 80573571
L115623648 81097380
" />
<path d="M115956981 80430714
L116337934 80430714
" />
<path d="M116099839 80097380
L116099839 80954523
L116147458 81049761
L116242696 81097380
L116337934 81097380
" />
</g><text x="118033800.000000" y="83075400.000000"
transform="scale(-1 1) translate(-236067600.000000 0)"
textLength="2519286.000000" font-size="1333333.000000" lengthAdjust="spacingAndGlyphs"
text-anchor="middle" opacity="0">TP4</text>
<g class="stroked-text"><desc>TP4</desc>
<path d="M116771896 82027780
L117343324 82027780
" />
<path d="M117057610 83027780
L117057610 82027780
" />
<path d="M117676658 83027780
L117676658 82027780
L118057610 82027780
L118152848 82075400
L118200467 82123019
L118248086 82218257
L118248086 82361114
L118200467 82456352
L118152848 82503971
L118057610 82551590
L117676658 82551590
" />
<path d="M119105229 82361114
L119105229 83027780
" />
<path d="M118867134 81980161
L118629039 82694447
L119248086 82694447
" />
</g><text x="113182400.000000" y="84574000.000000"
transform="scale(-1 1) translate(-226364800.000000 0)"
textLength="6662143.000000" font-size="1333333.000000" lengthAdjust="spacingAndGlyphs"
text-anchor="middle" opacity="0">TestPoint</text>
<g class="stroked-text"><desc>TestPoint</desc>
<path d="M109849067 83526380
L110420496 83526380
" />
<path d="M110134781 84526380
L110134781 83526380
" />
<path d="M111134781 84478761
L111039543 84526380
L110849067 84526380
L110753829 84478761
L110706210 84383523
L110706210 84002571
L110753829 83907333
L110849067 83859714
L111039543 83859714
L111134781 83907333
L111182400 84002571
L111182400 84097809
L110706210 84193047
" />
<path d="M111563353 84478761
L111658591 84526380
L111849067 84526380
L111944305 84478761
L111991924 84383523
L111991924 84335904
L111944305 84240666
L111849067 84193047
L111706210 84193047
L111610972 84145428
L111563353 84050190
L111563353 84002571
L111610972 83907333
L111706210 83859714
L111849067 83859714
L111944305 83907333
" />
<path d="M112277639 83859714
L112658591 83859714
" />
<path d="M112420496 83526380
L112420496 84383523
L112468115 84478761
L112563353 84526380
L112658591 84526380
" />
<path d="M112991924 84526380
L112991924 83526380
L113372877 83526380
L113468115 83574000
L113515734 83621619
L113563353 83716857
L113563353 83859714
L113515734 83954952
L113468115 84002571
L113372877 84050190
L112991924 84050190
" />
<path d="M114134781 84526380
L114039543 84478761
L113991924 84431142
L113944305 84335904
L113944305 84050190
L113991924 83954952
L114039543 83907333
L114134781 83859714
L114277639 83859714
L114372877 83907333
L114420496 83954952
L114468115 84050190
L114468115 84335904
L114420496 84431142
L114372877 84478761
L114277639 84526380
L114134781 84526380
" />
<path d="M114896686 84526380
L114896686 83859714
" />
<path d="M114896686 83526380
L114849067 83574000
L114896686 83621619
L114944305 83574000
L114896686 83526380
L114896686 83621619
" />
<path d="M115372877 83859714
L115372877 84526380
" />
<path d="M115372877 83954952
L115420496 83907333
L115515734 83859714
L115658591 83859714
L115753829 83907333
L115801448 84002571
L115801448 84526380
" />
<path d="M116134781 83859714
L116515734 83859714
" />
<path d="M116277639 83526380
L116277639 84383523
L116325258 84478761
L116420496 84526380
L116515734 84526380
" />
</g><text x="117957600.000000" y="86352000.000000"
transform="scale(-1 1) translate(-235915200.000000 0)"
textLength="2519286.000000" font-size="1333333.000000" lengthAdjust="spacingAndGlyphs"
text-anchor="middle" opacity="0">TP5</text>
<g class="stroked-text"><desc>TP5</desc>
<path d="M116695696 85304380
L117267124 85304380
" />
<path d="M116981410 86304380
L116981410 85304380
" />
<path d="M117600458 86304380
L117600458 85304380
L117981410 85304380
L118076648 85352000
L118124267 85399619
L118171886 85494857
L118171886 85637714
L118124267 85732952
L118076648 85780571
L117981410 85828190
L117600458 85828190
" />
<path d="M119076648 85304380
L118600458 85304380
L118552839 85780571
L118600458 85732952
L118695696 85685333
L118933791 85685333
L119029029 85732952
L119076648 85780571
L119124267 85875809
L119124267 86113904
L119076648 86209142
L119029029 86256761
L118933791 86304380
L118695696 86304380
L118600458 86256761
L118552839 86209142
" />
</g><text x="132283200.000000" y="68648200.000000"
transform="scale(-1 1) translate(-264566400.000000 0)"
textLength="6662143.000000" font-size="1333333.000000" lengthAdjust="spacingAndGlyphs"
text-anchor="middle" opacity="0">TestPoint</text>
<g class="stroked-text"><desc>TestPoint</desc>
<path d="M128949867 67600580
L129521296 67600580
" />
<path d="M129235581 68600580
L129235581 67600580
" />
<path d="M130235581 68552961
L130140343 68600580
L129949867 68600580
L129854629 68552961
L129807010 68457723
L129807010 68076771
L129854629 67981533
L129949867 67933914
L130140343 67933914
L130235581 67981533
L130283200 68076771
L130283200 68172009
L129807010 68267247
" />
<path d="M130664153 68552961
L130759391 68600580
L130949867 68600580
L131045105 68552961
L131092724 68457723
L131092724 68410104
L131045105 68314866
L130949867 68267247
L130807010 68267247
L130711772 68219628
L130664153 68124390
L130664153 68076771
L130711772 67981533
L130807010 67933914
L130949867 67933914
L131045105 67981533
" />
<path d="M131378439 67933914
L131759391 67933914
" />
<path d="M131521296 67600580
L131521296 68457723
L131568915 68552961
L131664153 68600580
L131759391 68600580
" />
<path d="M132092724 68600580
L132092724 67600580
L132473677 67600580
L132568915 67648200
L132616534 67695819
L132664153 67791057
L132664153 67933914
L132616534 68029152
L132568915 68076771
L132473677 68124390
L132092724 68124390
" />
<path d="M133235581 68600580
L133140343 68552961
L133092724 68505342
L133045105 68410104
L133045105 68124390
L133092724 68029152
L133140343 67981533
L133235581 67933914
L133378439 67933914
L133473677 67981533
L133521296 68029152
L133568915 68124390
L133568915 68410104
L133521296 68505342
L133473677 68552961
L133378439 68600580
L133235581 68600580
" />
<path d="M133997486 68600580
L133997486 67933914
" />
<path d="M133997486 67600580
L133949867 67648200
L133997486 67695819
L134045105 67648200
L133997486 67600580
L133997486 67695819
" />
<path d="M134473677 67933914
L134473677 68600580
" />
<path d="M134473677 68029152
L134521296 67981533
L134616534 67933914
L134759391 67933914
L134854629 67981533
L134902248 68076771
L134902248 68600580
" />
<path d="M135235581 67933914
L135616534 67933914
" />
<path d="M135378439 67600580
L135378439 68457723
L135426058 68552961
L135521296 68600580
L135616534 68600580
" />
</g><text x="132892800.000000" y="72407400.000000"
transform="scale(-1 1) translate(-265785600.000000 0)"
textLength="2519286.000000" font-size="1333333.000000" lengthAdjust="spacingAndGlyphs"
text-anchor="middle" opacity="0">TP6</text>
<g class="stroked-text"><desc>TP6</desc>
<path d="M131630896 71359780
L132202324 71359780
" />
<path d="M131916610 72359780
L131916610 71359780
" />
<path d="M132535658 72359780
L132535658 71359780
L132916610 71359780
L133011848 71407400
L133059467 71455019
L133107086 71550257
L133107086 71693114
L133059467 71788352
L133011848 71835971
L132916610 71883590
L132535658 71883590
" />
<path d="M133964229 71359780
L133773753 71359780
L133678515 71407400
L133630896 71455019
L133535658 71597876
L133488039 71788352
L133488039 72169304
L133535658 72264542
L133583277 72312161
L133678515 72359780
L133868991 72359780
L133964229 72312161
L134011848 72264542
L134059467 72169304
L134059467 71931209
L134011848 71835971
L133964229 71788352
L133868991 71740733
L133678515 71740733
L133583277 71788352
L133535658 71835971
L133488039 71931209
" />
</g><text x="144221200.000000" y="68724400.000000"
transform="scale(-1 1) translate(-288442400.000000 0)"
textLength="6662143.000000" font-size="1333333.000000" lengthAdjust="spacingAndGlyphs"
text-anchor="middle" opacity="0">TestPoint</text>
<g class="stroked-text"><desc>TestPoint</desc>
<path d="M140887867 67676780
L141459296 67676780
" />
<path d="M141173581 68676780
L141173581 67676780
" />
<path d="M142173581 68629161
L142078343 68676780
L141887867 68676780
L141792629 68629161
L141745010 68533923
L141745010 68152971
L141792629 68057733
L141887867 68010114
L142078343 68010114
L142173581 68057733
L142221200 68152971
L142221200 68248209
L141745010 68343447
" />
<path d="M142602153 68629161
L142697391 68676780
L142887867 68676780
L142983105 68629161
L143030724 68533923
L143030724 68486304
L142983105 68391066
L142887867 68343447
L142745010 68343447
L142649772 68295828
L142602153 68200590
L142602153 68152971
L142649772 68057733
L142745010 68010114
L142887867 68010114
L142983105 68057733
" />
<path d="M143316439 68010114
L143697391 68010114
" />
<path d="M143459296 67676780
L143459296 68533923
L143506915 68629161
L143602153 68676780
L143697391 68676780
" />
<path d="M144030724 68676780
L144030724 67676780
L144411677 67676780
L144506915 67724400
L144554534 67772019
L144602153 67867257
L144602153 68010114
L144554534 68105352
L144506915 68152971
L144411677 68200590
L144030724 68200590
" />
<path d="M145173581 68676780
L145078343 68629161
L145030724 68581542
L144983105 68486304
L144983105 68200590
L145030724 68105352
L145078343 68057733
L145173581 68010114
L145316439 68010114
L145411677 68057733
L145459296 68105352
L145506915 68200590
L145506915 68486304
L145459296 68581542
L145411677 68629161
L145316439 68676780
L145173581 68676780
" />
<path d="M145935486 68676780
L145935486 68010114
" />
<path d="M145935486 67676780
L145887867 67724400
L145935486 67772019
L145983105 67724400
L145935486 67676780
L145935486 67772019
" />
<path d="M146411677 68010114
L146411677 68676780
" />
<path d="M146411677 68105352
L146459296 68057733
L146554534 68010114
L146697391 68010114
L146792629 68057733
L146840248 68152971
L146840248 68676780
" />
<path d="M147173581 68010114
L147554534 68010114
" />
<path d="M147316439 67676780
L147316439 68533923
L147364058 68629161
L147459296 68676780
L147554534 68676780
" />
</g><text x="143586200.000000" y="72483600.000000"
transform="scale(-1 1) translate(-287172400.000000 0)"
textLength="2519286.000000" font-size="1333333.000000" lengthAdjust="spacingAndGlyphs"
text-anchor="middle" opacity="0">TP8</text>
<g class="stroked-text"><desc>TP8</desc>
<path d="M142324296 71435980
L142895724 71435980
" />
<path d="M142610010 72435980
L142610010 71435980
" />
<path d="M143229058 72435980
L143229058 71435980
L143610010 71435980
L143705248 71483600
L143752867 71531219
L143800486 71626457
L143800486 71769314
L143752867 71864552
L143705248 71912171
L143610010 71959790
L143229058 71959790
" />
<path d="M144371915 71864552
L144276677 71816933
L144229058 71769314
L144181439 71674076
L144181439 71626457
L144229058 71531219
L144276677 71483600
L144371915 71435980
L144562391 71435980
L144657629 71483600
L144705248 71531219
L144752867 71626457
L144752867 71674076
L144705248 71769314
L144657629 71816933
L144562391 71864552
L144371915 71864552
L144276677 71912171
L144229058 71959790
L144181439 72055028
L144181439 72245504
L144229058 72340742
L144276677 72388361
L144371915 72435980
L144562391 72435980
L144657629 72388361
L144705248 72340742
L144752867 72245504
L144752867 72055028
L144705248 71959790
L144657629 71912171
L144562391 71864552
" />
</g><text x="141071600.000000" y="83304000.000000"
transform="scale(-1 1) translate(-282143200.000000 0)"
textLength="6662143.000000" font-size="1333333.000000" lengthAdjust="spacingAndGlyphs"
text-anchor="middle" opacity="0">TestPoint</text>
<g class="stroked-text"><desc>TestPoint</desc>
<path d="M137738267 82256380
L138309696 82256380
" />
<path d="M138023981 83256380
L138023981 82256380
" />
<path d="M139023981 83208761
L138928743 83256380
L138738267 83256380
L138643029 83208761
L138595410 83113523
L138595410 82732571
L138643029 82637333
L138738267 82589714
L138928743 82589714
L139023981 82637333
L139071600 82732571
L139071600 82827809
L138595410 82923047
" />
<path d="M139452553 83208761
L139547791 83256380
L139738267 83256380
L139833505 83208761
L139881124 83113523
L139881124 83065904
L139833505 82970666
L139738267 82923047
L139595410 82923047
L139500172 82875428
L139452553 82780190
L139452553 82732571
L139500172 82637333
L139595410 82589714
L139738267 82589714
L139833505 82637333
" />
<path d="M140166839 82589714
L140547791 82589714
" />
<path d="M140309696 82256380
L140309696 83113523
L140357315 83208761
L140452553 83256380
L140547791 83256380
" />
<path d="M140881124 83256380
L140881124 82256380
L141262077 82256380
L141357315 82304000
L141404934 82351619
L141452553 82446857
L141452553 82589714
L141404934 82684952
L141357315 82732571
L141262077 82780190
L140881124 82780190
" />
<path d="M142023981 83256380
L141928743 83208761
L141881124 83161142
L141833505 83065904
L141833505 82780190
L141881124 82684952
L141928743 82637333
L142023981 82589714
L142166839 82589714
L142262077 82637333
L142309696 82684952
L142357315 82780190
L142357315 83065904
L142309696 83161142
L142262077 83208761
L142166839 83256380
L142023981 83256380
" />
<path d="M142785886 83256380
L142785886 82589714
" />
<path d="M142785886 82256380
L142738267 82304000
L142785886 82351619
L142833505 82304000
L142785886 82256380
L142785886 82351619
" />
<path d="M143262077 82589714
L143262077 83256380
" />
<path d="M143262077 82684952
L143309696 82637333
L143404934 82589714
L143547791 82589714
L143643029 82637333
L143690648 82732571
L143690648 83256380
" />
<path d="M144023981 82589714
L144404934 82589714
" />
<path d="M144166839 82256380
L144166839 83113523
L144214458 83208761
L144309696 83256380
L144404934 83256380
" />
</g><text x="141122400.000000" y="86936200.000000"
transform="scale(-1 1) translate(-282244800.000000 0)"
textLength="2519286.000000" font-size="1333333.000000" lengthAdjust="spacingAndGlyphs"
text-anchor="middle" opacity="0">TP9</text>
<g class="stroked-text"><desc>TP9</desc>
<path d="M139860496 85888580
L140431924 85888580
" />
<path d="M140146210 86888580
L140146210 85888580
" />
<path d="M140765258 86888580
L140765258 85888580
L141146210 85888580
L141241448 85936200
L141289067 85983819
L141336686 86079057
L141336686 86221914
L141289067 86317152
L141241448 86364771
L141146210 86412390
L140765258 86412390
" />
<path d="M141812877 86888580
L142003353 86888580
L142098591 86840961
L142146210 86793342
L142241448 86650485
L142289067 86460009
L142289067 86079057
L142241448 85983819
L142193829 85936200
L142098591 85888580
L141908115 85888580
L141812877 85936200
L141765258 85983819
L141717639 86079057
L141717639 86317152
L141765258 86412390
L141812877 86460009
L141908115 86507628
L142098591 86507628
L142193829 86460009
L142241448 86412390
L142289067 86317152
" />
</g><g >
</g>
<g >
</g>
<g >
</g>
<g >
</g>
<g >
</g>
<g >
</g>
<g >
</g>
<g >
</g>
<g >
</g>
<g >
</g>
<g >
</g>
<g >
</g>
<g >
</g>
<g >
</g>
<g >
</g>
<g >
</g>
<g >
</g>
<g >
</g>
<g >
</g>
<g >
</g>
<g >
</g>
<g >
</g>
<g >
</g>
<g >
</g>
<g >
</g>
<g >
</g>
<g >
</g>
<g >
</g>
<g >
</g>
<g >
</g>
<g >
</g>
<g >
</g>
<g >
</g>
<g >
</g>
<g >
</g>
<g >
</g>
<g >
</g>
<g >
</g>
<g >
</g>
<g >
</g>
<g >
</g>
<g >
</g>
<g >
</g>
<g >
</g>
<g >
</g>
<g >
</g>
<g >
</g>
<g >
</g>
<g >
</g>
<g >
</g>
</g> 
</svg>
