<?xml version="1.0" standalone="no"?>
 <!DOCTYPE svg PUBLIC "-//W3C//DTD SVG 1.1//EN" 
 "http://www.w3.org/Graphics/SVG/1.1/DTD/svg11.dtd"> 
<svg
  xmlns:svg="http://www.w3.org/2000/svg"
  xmlns="http://www.w3.org/2000/svg"
  xmlns:xlink="http://www.w3.org/1999/xlink"
  version="1.1"
  width="29.700220cm" height="21.000720cm" viewBox="0 0 2970022 2100072">
<title>SVG Picture created as t1-B_Fab.svg date 2022/12/04 00:04:10 </title>
  <desc>Picture generated by PCBNEW </desc>
<g style="fill:#000000; fill-opacity:1.000000;stroke:#000000; stroke-opacity:1.000000;
stroke-linecap:round; stroke-linejoin:round;"
 transform="translate(0 0) scale(1 1)">
</g>
<g style="fill:#000000; fill-opacity:0.0; 
stroke:#000000; stroke-width:0.000000; stroke-opacity:1; 
stroke-linecap:round; stroke-linejoin:round;">
</g>
<g style="fill:#000000; fill-opacity:0.0; 
stroke:#000000; stroke-width:1500.000000; stroke-opacity:1; 
stroke-linecap:round; stroke-linejoin:round;">
<text x="1311656.000000" y="788336.000000"
transform="scale(-1 1) translate(-2623312.000000 0)"
textLength="66621.430000" font-size="13333.330000" lengthAdjust="spacingAndGlyphs"
text-anchor="middle" opacity="0">TestPoint</text>
<g class="stroked-text"><desc>TestPoint</desc>
<path d="M1278322 777859
L1284036 777859
" />
<path d="M1281179 787859
L1281179 777859
" />
<path d="M1291179 787383
L1290227 787859
L1288322 787859
L1287370 787383
L1286894 786431
L1286894 782621
L1287370 781669
L1288322 781193
L1290227 781193
L1291179 781669
L1291656 782621
L1291656 783574
L1286894 784526
" />
<path d="M1295465 787383
L1296417 787859
L1298322 787859
L1299275 787383
L1299751 786431
L1299751 785955
L1299275 785002
L1298322 784526
L1296894 784526
L1295941 784050
L1295465 783097
L1295465 782621
L1295941 781669
L1296894 781193
L1298322 781193
L1299275 781669
" />
<path d="M1302608 781193
L1306417 781193
" />
<path d="M1304036 777859
L1304036 786431
L1304513 787383
L1305465 787859
L1306417 787859
" />
<path d="M1309751 787859
L1309751 777859
L1313560 777859
L1314513 778336
L1314989 778812
L1315465 779764
L1315465 781193
L1314989 782145
L1314513 782621
L1313560 783097
L1309751 783097
" />
<path d="M1321179 787859
L1320227 787383
L1319751 786907
L1319275 785955
L1319275 783097
L1319751 782145
L1320227 781669
L1321179 781193
L1322608 781193
L1323560 781669
L1324036 782145
L1324513 783097
L1324513 785955
L1324036 786907
L1323560 787383
L1322608 787859
L1321179 787859
" />
<path d="M1328798 787859
L1328798 781193
" />
<path d="M1328798 777859
L1328322 778336
L1328798 778812
L1329275 778336
L1328798 777859
L1328798 778812
" />
<path d="M1333560 781193
L1333560 787859
" />
<path d="M1333560 782145
L1334036 781669
L1334989 781193
L1336417 781193
L1337370 781669
L1337846 782621
L1337846 787859
" />
<path d="M1341179 781193
L1344989 781193
" />
<path d="M1342608 777859
L1342608 786431
L1343084 787383
L1344036 787859
L1344989 787859
" />
</g><text x="1292098.000000" y="821124.000000"
transform="scale(-1 1) translate(-2584196.000000 0)"
textLength="25192.860000" font-size="13333.330000" lengthAdjust="spacingAndGlyphs"
text-anchor="middle" opacity="0">TP2</text>
<g class="stroked-text"><desc>TP2</desc>
<path d="M1279478 810647
L1285193 810647
" />
<path d="M1282336 820647
L1282336 810647
" />
<path d="M1288526 820647
L1288526 810647
L1292336 810647
L1293288 811124
L1293764 811600
L1294240 812552
L1294240 813981
L1293764 814933
L1293288 815409
L1292336 815885
L1288526 815885
" />
<path d="M1298050 811600
L1298526 811124
L1299478 810647
L1301859 810647
L1302812 811124
L1303288 811600
L1303764 812552
L1303764 813504
L1303288 814933
L1297574 820647
L1303764 820647
" />
</g><text x="1249172.000000" y="772080.000000"
transform="scale(-1 1) translate(-2498344.000000 0)"
textLength="66621.430000" font-size="13333.330000" lengthAdjust="spacingAndGlyphs"
text-anchor="middle" opacity="0">TestPoint</text>
<g class="stroked-text"><desc>TestPoint</desc>
<path d="M1215838 761603
L1221552 761603
" />
<path d="M1218695 771603
L1218695 761603
" />
<path d="M1228695 771127
L1227743 771603
L1225838 771603
L1224886 771127
L1224410 770175
L1224410 766365
L1224886 765413
L1225838 764937
L1227743 764937
L1228695 765413
L1229172 766365
L1229172 767318
L1224410 768270
" />
<path d="M1232981 771127
L1233933 771603
L1235838 771603
L1236791 771127
L1237267 770175
L1237267 769699
L1236791 768746
L1235838 768270
L1234410 768270
L1233457 767794
L1232981 766841
L1232981 766365
L1233457 765413
L1234410 764937
L1235838 764937
L1236791 765413
" />
<path d="M1240124 764937
L1243933 764937
" />
<path d="M1241552 761603
L1241552 770175
L1242029 771127
L1242981 771603
L1243933 771603
" />
<path d="M1247267 771603
L1247267 761603
L1251076 761603
L1252029 762080
L1252505 762556
L1252981 763508
L1252981 764937
L1252505 765889
L1252029 766365
L1251076 766841
L1247267 766841
" />
<path d="M1258695 771603
L1257743 771127
L1257267 770651
L1256791 769699
L1256791 766841
L1257267 765889
L1257743 765413
L1258695 764937
L1260124 764937
L1261076 765413
L1261552 765889
L1262029 766841
L1262029 769699
L1261552 770651
L1261076 771127
L1260124 771603
L1258695 771603
" />
<path d="M1266314 771603
L1266314 764937
" />
<path d="M1266314 761603
L1265838 762080
L1266314 762556
L1266791 762080
L1266314 761603
L1266314 762556
" />
<path d="M1271076 764937
L1271076 771603
" />
<path d="M1271076 765889
L1271552 765413
L1272505 764937
L1273933 764937
L1274886 765413
L1275362 766365
L1275362 771603
" />
<path d="M1278695 764937
L1282505 764937
" />
<path d="M1280124 761603
L1280124 770175
L1280600 771127
L1281552 771603
L1282505 771603
" />
</g><text x="1254760.000000" y="804846.000000"
transform="scale(-1 1) translate(-2509520.000000 0)"
textLength="25192.860000" font-size="13333.330000" lengthAdjust="spacingAndGlyphs"
text-anchor="middle" opacity="0">TP3</text>
<g class="stroked-text"><desc>TP3</desc>
<path d="M1242140 794369
L1247855 794369
" />
<path d="M1244998 804369
L1244998 794369
" />
<path d="M1251188 804369
L1251188 794369
L1254998 794369
L1255950 794846
L1256426 795322
L1256902 796274
L1256902 797703
L1256426 798655
L1255950 799131
L1254998 799607
L1251188 799607
" />
<path d="M1260236 794369
L1266426 794369
L1263093 798179
L1264521 798179
L1265474 798655
L1265950 799131
L1266426 800084
L1266426 802465
L1265950 803417
L1265474 803893
L1264521 804369
L1261664 804369
L1260712 803893
L1260236 803417
" />
</g><text x="1130046.000000" y="811450.000000"
transform="scale(-1 1) translate(-2260092.000000 0)"
textLength="66621.430000" font-size="13333.330000" lengthAdjust="spacingAndGlyphs"
text-anchor="middle" opacity="0">TestPoint</text>
<g class="stroked-text"><desc>TestPoint</desc>
<path d="M1096712 800973
L1102426 800973
" />
<path d="M1099569 810973
L1099569 800973
" />
<path d="M1109569 810497
L1108617 810973
L1106712 810973
L1105760 810497
L1105284 809545
L1105284 805735
L1105760 804783
L1106712 804307
L1108617 804307
L1109569 804783
L1110046 805735
L1110046 806688
L1105284 807640
" />
<path d="M1113855 810497
L1114807 810973
L1116712 810973
L1117665 810497
L1118141 809545
L1118141 809069
L1117665 808116
L1116712 807640
L1115284 807640
L1114331 807164
L1113855 806211
L1113855 805735
L1114331 804783
L1115284 804307
L1116712 804307
L1117665 804783
" />
<path d="M1120998 804307
L1124807 804307
" />
<path d="M1122426 800973
L1122426 809545
L1122903 810497
L1123855 810973
L1124807 810973
" />
<path d="M1128141 810973
L1128141 800973
L1131950 800973
L1132903 801450
L1133379 801926
L1133855 802878
L1133855 804307
L1133379 805259
L1132903 805735
L1131950 806211
L1128141 806211
" />
<path d="M1139569 810973
L1138617 810497
L1138141 810021
L1137665 809069
L1137665 806211
L1138141 805259
L1138617 804783
L1139569 804307
L1140998 804307
L1141950 804783
L1142426 805259
L1142903 806211
L1142903 809069
L1142426 810021
L1141950 810497
L1140998 810973
L1139569 810973
" />
<path d="M1147188 810973
L1147188 804307
" />
<path d="M1147188 800973
L1146712 801450
L1147188 801926
L1147665 801450
L1147188 800973
L1147188 801926
" />
<path d="M1151950 804307
L1151950 810973
" />
<path d="M1151950 805259
L1152426 804783
L1153379 804307
L1154807 804307
L1155760 804783
L1156236 805735
L1156236 810973
" />
<path d="M1159569 804307
L1163379 804307
" />
<path d="M1160998 800973
L1160998 809545
L1161474 810497
L1162426 810973
L1163379 810973
" />
</g><text x="1180338.000000" y="830754.000000"
transform="scale(-1 1) translate(-2360676.000000 0)"
textLength="25192.860000" font-size="13333.330000" lengthAdjust="spacingAndGlyphs"
text-anchor="middle" opacity="0">TP4</text>
<g class="stroked-text"><desc>TP4</desc>
<path d="M1167718 820277
L1173433 820277
" />
<path d="M1170576 830277
L1170576 820277
" />
<path d="M1176766 830277
L1176766 820277
L1180576 820277
L1181528 820754
L1182004 821230
L1182480 822182
L1182480 823611
L1182004 824563
L1181528 825039
L1180576 825515
L1176766 825515
" />
<path d="M1191052 823611
L1191052 830277
" />
<path d="M1188671 819801
L1186290 826944
L1192480 826944
" />
</g><text x="1131824.000000" y="845740.000000"
transform="scale(-1 1) translate(-2263648.000000 0)"
textLength="66621.430000" font-size="13333.330000" lengthAdjust="spacingAndGlyphs"
text-anchor="middle" opacity="0">TestPoint</text>
<g class="stroked-text"><desc>TestPoint</desc>
<path d="M1098490 835263
L1104204 835263
" />
<path d="M1101347 845263
L1101347 835263
" />
<path d="M1111347 844787
L1110395 845263
L1108490 845263
L1107538 844787
L1107062 843835
L1107062 840025
L1107538 839073
L1108490 838597
L1110395 838597
L1111347 839073
L1111824 840025
L1111824 840978
L1107062 841930
" />
<path d="M1115633 844787
L1116585 845263
L1118490 845263
L1119443 844787
L1119919 843835
L1119919 843359
L1119443 842406
L1118490 841930
L1117062 841930
L1116109 841454
L1115633 840501
L1115633 840025
L1116109 839073
L1117062 838597
L1118490 838597
L1119443 839073
" />
<path d="M1122776 838597
L1126585 838597
" />
<path d="M1124204 835263
L1124204 843835
L1124681 844787
L1125633 845263
L1126585 845263
" />
<path d="M1129919 845263
L1129919 835263
L1133728 835263
L1134681 835740
L1135157 836216
L1135633 837168
L1135633 838597
L1135157 839549
L1134681 840025
L1133728 840501
L1129919 840501
" />
<path d="M1141347 845263
L1140395 844787
L1139919 844311
L1139443 843359
L1139443 840501
L1139919 839549
L1140395 839073
L1141347 838597
L1142776 838597
L1143728 839073
L1144204 839549
L1144681 840501
L1144681 843359
L1144204 844311
L1143728 844787
L1142776 845263
L1141347 845263
" />
<path d="M1148966 845263
L1148966 838597
" />
<path d="M1148966 835263
L1148490 835740
L1148966 836216
L1149443 835740
L1148966 835263
L1148966 836216
" />
<path d="M1153728 838597
L1153728 845263
" />
<path d="M1153728 839549
L1154204 839073
L1155157 838597
L1156585 838597
L1157538 839073
L1158014 840025
L1158014 845263
" />
<path d="M1161347 838597
L1165157 838597
" />
<path d="M1162776 835263
L1162776 843835
L1163252 844787
L1164204 845263
L1165157 845263
" />
</g><text x="1179576.000000" y="863520.000000"
transform="scale(-1 1) translate(-2359152.000000 0)"
textLength="25192.860000" font-size="13333.330000" lengthAdjust="spacingAndGlyphs"
text-anchor="middle" opacity="0">TP5</text>
<g class="stroked-text"><desc>TP5</desc>
<path d="M1166956 853043
L1172671 853043
" />
<path d="M1169814 863043
L1169814 853043
" />
<path d="M1176004 863043
L1176004 853043
L1179814 853043
L1180766 853520
L1181242 853996
L1181718 854948
L1181718 856377
L1181242 857329
L1180766 857805
L1179814 858281
L1176004 858281
" />
<path d="M1190766 853043
L1186004 853043
L1185528 857805
L1186004 857329
L1186956 856853
L1189337 856853
L1190290 857329
L1190766 857805
L1191242 858758
L1191242 861139
L1190766 862091
L1190290 862567
L1189337 863043
L1186956 863043
L1186004 862567
L1185528 862091
" />
</g><text x="1322832.000000" y="686482.000000"
transform="scale(-1 1) translate(-2645664.000000 0)"
textLength="66621.430000" font-size="13333.330000" lengthAdjust="spacingAndGlyphs"
text-anchor="middle" opacity="0">TestPoint</text>
<g class="stroked-text"><desc>TestPoint</desc>
<path d="M1289498 676005
L1295212 676005
" />
<path d="M1292355 686005
L1292355 676005
" />
<path d="M1302355 685529
L1301403 686005
L1299498 686005
L1298546 685529
L1298070 684577
L1298070 680767
L1298546 679815
L1299498 679339
L1301403 679339
L1302355 679815
L1302832 680767
L1302832 681720
L1298070 682672
" />
<path d="M1306641 685529
L1307593 686005
L1309498 686005
L1310451 685529
L1310927 684577
L1310927 684101
L1310451 683148
L1309498 682672
L1308070 682672
L1307117 682196
L1306641 681243
L1306641 680767
L1307117 679815
L1308070 679339
L1309498 679339
L1310451 679815
" />
<path d="M1313784 679339
L1317593 679339
" />
<path d="M1315212 676005
L1315212 684577
L1315689 685529
L1316641 686005
L1317593 686005
" />
<path d="M1320927 686005
L1320927 676005
L1324736 676005
L1325689 676482
L1326165 676958
L1326641 677910
L1326641 679339
L1326165 680291
L1325689 680767
L1324736 681243
L1320927 681243
" />
<path d="M1332355 686005
L1331403 685529
L1330927 685053
L1330451 684101
L1330451 681243
L1330927 680291
L1331403 679815
L1332355 679339
L1333784 679339
L1334736 679815
L1335212 680291
L1335689 681243
L1335689 684101
L1335212 685053
L1334736 685529
L1333784 686005
L1332355 686005
" />
<path d="M1339974 686005
L1339974 679339
" />
<path d="M1339974 676005
L1339498 676482
L1339974 676958
L1340451 676482
L1339974 676005
L1339974 676958
" />
<path d="M1344736 679339
L1344736 686005
" />
<path d="M1344736 680291
L1345212 679815
L1346165 679339
L1347593 679339
L1348546 679815
L1349022 680767
L1349022 686005
" />
<path d="M1352355 679339
L1356165 679339
" />
<path d="M1353784 676005
L1353784 684577
L1354260 685529
L1355212 686005
L1356165 686005
" />
</g><text x="1328928.000000" y="724074.000000"
transform="scale(-1 1) translate(-2657856.000000 0)"
textLength="25192.860000" font-size="13333.330000" lengthAdjust="spacingAndGlyphs"
text-anchor="middle" opacity="0">TP6</text>
<g class="stroked-text"><desc>TP6</desc>
<path d="M1316308 713597
L1322023 713597
" />
<path d="M1319166 723597
L1319166 713597
" />
<path d="M1325356 723597
L1325356 713597
L1329166 713597
L1330118 714074
L1330594 714550
L1331070 715502
L1331070 716931
L1330594 717883
L1330118 718359
L1329166 718835
L1325356 718835
" />
<path d="M1339642 713597
L1337737 713597
L1336785 714074
L1336308 714550
L1335356 715978
L1334880 717883
L1334880 721693
L1335356 722645
L1335832 723121
L1336785 723597
L1338689 723597
L1339642 723121
L1340118 722645
L1340594 721693
L1340594 719312
L1340118 718359
L1339642 717883
L1338689 717407
L1336785 717407
L1335832 717883
L1335356 718359
L1334880 719312
" />
</g><text x="1442212.000000" y="687244.000000"
transform="scale(-1 1) translate(-2884424.000000 0)"
textLength="66621.430000" font-size="13333.330000" lengthAdjust="spacingAndGlyphs"
text-anchor="middle" opacity="0">TestPoint</text>
<g class="stroked-text"><desc>TestPoint</desc>
<path d="M1408878 676767
L1414592 676767
" />
<path d="M1411735 686767
L1411735 676767
" />
<path d="M1421735 686291
L1420783 686767
L1418878 686767
L1417926 686291
L1417450 685339
L1417450 681529
L1417926 680577
L1418878 680101
L1420783 680101
L1421735 680577
L1422212 681529
L1422212 682482
L1417450 683434
" />
<path d="M1426021 686291
L1426973 686767
L1428878 686767
L1429831 686291
L1430307 685339
L1430307 684863
L1429831 683910
L1428878 683434
L1427450 683434
L1426497 682958
L1426021 682005
L1426021 681529
L1426497 680577
L1427450 680101
L1428878 680101
L1429831 680577
" />
<path d="M1433164 680101
L1436973 680101
" />
<path d="M1434592 676767
L1434592 685339
L1435069 686291
L1436021 686767
L1436973 686767
" />
<path d="M1440307 686767
L1440307 676767
L1444116 676767
L1445069 677244
L1445545 677720
L1446021 678672
L1446021 680101
L1445545 681053
L1445069 681529
L1444116 682005
L1440307 682005
" />
<path d="M1451735 686767
L1450783 686291
L1450307 685815
L1449831 684863
L1449831 682005
L1450307 681053
L1450783 680577
L1451735 680101
L1453164 680101
L1454116 680577
L1454592 681053
L1455069 682005
L1455069 684863
L1454592 685815
L1454116 686291
L1453164 686767
L1451735 686767
" />
<path d="M1459354 686767
L1459354 680101
" />
<path d="M1459354 676767
L1458878 677244
L1459354 677720
L1459831 677244
L1459354 676767
L1459354 677720
" />
<path d="M1464116 680101
L1464116 686767
" />
<path d="M1464116 681053
L1464592 680577
L1465545 680101
L1466973 680101
L1467926 680577
L1468402 681529
L1468402 686767
" />
<path d="M1471735 680101
L1475545 680101
" />
<path d="M1473164 676767
L1473164 685339
L1473640 686291
L1474592 686767
L1475545 686767
" />
</g><text x="1435862.000000" y="724836.000000"
transform="scale(-1 1) translate(-2871724.000000 0)"
textLength="25192.860000" font-size="13333.330000" lengthAdjust="spacingAndGlyphs"
text-anchor="middle" opacity="0">TP8</text>
<g class="stroked-text"><desc>TP8</desc>
<path d="M1423242 714359
L1428957 714359
" />
<path d="M1426100 724359
L1426100 714359
" />
<path d="M1432290 724359
L1432290 714359
L1436100 714359
L1437052 714836
L1437528 715312
L1438004 716264
L1438004 717693
L1437528 718645
L1437052 719121
L1436100 719597
L1432290 719597
" />
<path d="M1443719 718645
L1442766 718169
L1442290 717693
L1441814 716740
L1441814 716264
L1442290 715312
L1442766 714836
L1443719 714359
L1445623 714359
L1446576 714836
L1447052 715312
L1447528 716264
L1447528 716740
L1447052 717693
L1446576 718169
L1445623 718645
L1443719 718645
L1442766 719121
L1442290 719597
L1441814 720550
L1441814 722455
L1442290 723407
L1442766 723883
L1443719 724359
L1445623 724359
L1446576 723883
L1447052 723407
L1447528 722455
L1447528 720550
L1447052 719597
L1446576 719121
L1445623 718645
" />
</g><text x="1410716.000000" y="833040.000000"
transform="scale(-1 1) translate(-2821432.000000 0)"
textLength="66621.430000" font-size="13333.330000" lengthAdjust="spacingAndGlyphs"
text-anchor="middle" opacity="0">TestPoint</text>
<g class="stroked-text"><desc>TestPoint</desc>
<path d="M1377382 822563
L1383096 822563
" />
<path d="M1380239 832563
L1380239 822563
" />
<path d="M1390239 832087
L1389287 832563
L1387382 832563
L1386430 832087
L1385954 831135
L1385954 827325
L1386430 826373
L1387382 825897
L1389287 825897
L1390239 826373
L1390716 827325
L1390716 828278
L1385954 829230
" />
<path d="M1394525 832087
L1395477 832563
L1397382 832563
L1398335 832087
L1398811 831135
L1398811 830659
L1398335 829706
L1397382 829230
L1395954 829230
L1395001 828754
L1394525 827801
L1394525 827325
L1395001 826373
L1395954 825897
L1397382 825897
L1398335 826373
" />
<path d="M1401668 825897
L1405477 825897
" />
<path d="M1403096 822563
L1403096 831135
L1403573 832087
L1404525 832563
L1405477 832563
" />
<path d="M1408811 832563
L1408811 822563
L1412620 822563
L1413573 823040
L1414049 823516
L1414525 824468
L1414525 825897
L1414049 826849
L1413573 827325
L1412620 827801
L1408811 827801
" />
<path d="M1420239 832563
L1419287 832087
L1418811 831611
L1418335 830659
L1418335 827801
L1418811 826849
L1419287 826373
L1420239 825897
L1421668 825897
L1422620 826373
L1423096 826849
L1423573 827801
L1423573 830659
L1423096 831611
L1422620 832087
L1421668 832563
L1420239 832563
" />
<path d="M1427858 832563
L1427858 825897
" />
<path d="M1427858 822563
L1427382 823040
L1427858 823516
L1428335 823040
L1427858 822563
L1427858 823516
" />
<path d="M1432620 825897
L1432620 832563
" />
<path d="M1432620 826849
L1433096 826373
L1434049 825897
L1435477 825897
L1436430 826373
L1436906 827325
L1436906 832563
" />
<path d="M1440239 825897
L1444049 825897
" />
<path d="M1441668 822563
L1441668 831135
L1442144 832087
L1443096 832563
L1444049 832563
" />
</g><text x="1411224.000000" y="869362.000000"
transform="scale(-1 1) translate(-2822448.000000 0)"
textLength="25192.860000" font-size="13333.330000" lengthAdjust="spacingAndGlyphs"
text-anchor="middle" opacity="0">TP9</text>
<g class="stroked-text"><desc>TP9</desc>
<path d="M1398604 858885
L1404319 858885
" />
<path d="M1401462 868885
L1401462 858885
" />
<path d="M1407652 868885
L1407652 858885
L1411462 858885
L1412414 859362
L1412890 859838
L1413366 860790
L1413366 862219
L1412890 863171
L1412414 863647
L1411462 864123
L1407652 864123
" />
<path d="M1418128 868885
L1420033 868885
L1420985 868409
L1421462 867933
L1422414 866504
L1422890 864600
L1422890 860790
L1422414 859838
L1421938 859362
L1420985 858885
L1419081 858885
L1418128 859362
L1417652 859838
L1417176 860790
L1417176 863171
L1417652 864123
L1418128 864600
L1419081 865076
L1420985 865076
L1421938 864600
L1422414 864123
L1422890 863171
" />
</g><g >
</g>
<g >
</g>
<g >
</g>
<g >
</g>
<g >
</g>
<g >
</g>
<g >
</g>
<g >
</g>
<g >
</g>
<g >
</g>
<g >
</g>
<g >
</g>
<g >
</g>
<g >
</g>
<g >
</g>
<g >
</g>
<g >
</g>
<g >
</g>
<g >
</g>
<g >
</g>
<g >
</g>
<g >
</g>
<g >
</g>
<g >
</g>
<g >
</g>
<g >
</g>
<g >
</g>
<g >
</g>
<g >
</g>
<g >
</g>
<g >
</g>
<g >
</g>
<g >
</g>
<g >
</g>
<g >
</g>
<g >
</g>
<g >
</g>
<g >
</g>
<g >
</g>
<g >
</g>
<g >
</g>
<g >
</g>
<g >
</g>
<g >
</g>
<g >
</g>
<g >
</g>
<g >
</g>
<g >
</g>
<g >
</g>
<g >
</g>
</g> 
</svg>
