<?xml version="1.0" standalone="no"?>
 <!DOCTYPE svg PUBLIC "-//W3C//DTD SVG 1.1//EN" 
 "http://www.w3.org/Graphics/SVG/1.1/DTD/svg11.dtd"> 
<svg
  xmlns:svg="http://www.w3.org/2000/svg"
  xmlns="http://www.w3.org/2000/svg"
  xmlns:xlink="http://www.w3.org/1999/xlink"
  version="1.1"
  width="29.700220cm" height="21.000720cm" viewBox="0 0 297002200 210007200">
<title>SVG Picture created as t1-F_Courtyard.svg date 2022/09/27 14:40:55 </title>
  <desc>Picture generated by PCBNEW </desc>
<g style="fill:#000000; fill-opacity:1.000000;stroke:#000000; stroke-opacity:1.000000;
stroke-linecap:round; stroke-linejoin:round;"
 transform="translate(0 0) scale(1 1)">
</g>
<g style="fill:#000000; fill-opacity:0.0; 
stroke:#000000; stroke-width:0.000000; stroke-opacity:1; 
stroke-linecap:round; stroke-linejoin:round;">
</g>
<g style="fill:#000000; fill-opacity:0.0; 
stroke:#000000; stroke-width:50000.000000; stroke-opacity:1; 
stroke-linecap:round; stroke-linejoin:round;">
<path d="M132335400 90494400
L132335400 89644400
" />
<path d="M134085400 90494400
L135235400 91644400
" />
<path d="M126435400 91644400
L126435400 99294400
" />
<path d="M129335400 99294400
L126435400 99294400
" />
<path d="M132335400 99294400
L132335400 100144400
" />
<path d="M135235400 91644400
L135235400 99294400
" />
<path d="M132335400 89644400
L129335400 89644400
" />
<path d="M132335400 100144400
L129335400 100144400
" />
<path d="M129335400 89644400
L129335400 90494400
" />
<path d="M129335400 100144400
L129335400 99294400
" />
<path d="M135235400 99294400
L132335400 99294400
" />
<path d="M127585400 90494400
L126435400 91644400
" />
<path d="M129335400 90494400
L127585400 90494400
" />
<path d="M134085400 90494400
L132335400 90494400
" />
<path d="M121320000 91850000
L121320000 89950000
" />
<path d="M121320000 89950000
L124680000 89950000
" />
<path d="M124680000 91850000
L121320000 91850000
" />
<path d="M124680000 89950000
L124680000 91850000
" />
<path d="M161310000 76796000
L161310000 73436000
" />
<path d="M161310000 73436000
L163210000 73436000
" />
<path d="M163210000 76796000
L161310000 76796000
" />
<path d="M163210000 73436000
L163210000 76796000
" />
<path d="M156860000 73436000
L156860000 76796000
" />
<path d="M154960000 76796000
L154960000 73436000
" />
<path d="M154960000 73436000
L156860000 73436000
" />
<path d="M156860000 76796000
L154960000 76796000
" />
<path d="M164272000 87474000
L164272000 90834000
" />
<path d="M164272000 90834000
L162372000 90834000
" />
<path d="M162372000 90834000
L162372000 87474000
" />
<path d="M162372000 87474000
L164272000 87474000
" />
<path d="M155654800 77917000
L155654800 79817000
" />
<path d="M152294800 79817000
L152294800 77917000
" />
<path d="M155654800 79817000
L152294800 79817000
" />
<path d="M152294800 77917000
L155654800 77917000
" />
<path d="M145704600 80648600
L143804600 80648600
" />
<path d="M143804600 80648600
L143804600 77288600
" />
<path d="M145704600 77288600
L145704600 80648600
" />
<path d="M143804600 77288600
L145704600 77288600
" />
<path d="M161694000 99054000
L161694000 94494000
" />
<path d="M163934000 94494000
L163934000 99054000
" />
<path d="M161694000 94494000
L163934000 94494000
" />
<path d="M163934000 99054000
L161694000 99054000
" />
<path d="M148270000 73270000
L148270000 76630000
" />
<path d="M146370000 76630000
L146370000 73270000
" />
<path d="M148270000 76630000
L146370000 76630000
" />
<path d="M146370000 73270000
L148270000 73270000
" />
<path d="M145730000 76630000
L143830000 76630000
" />
<path d="M145730000 73270000
L145730000 76630000
" />
<path d="M143830000 73270000
L145730000 73270000
" />
<path d="M143830000 76630000
L143830000 73270000
" />
<path d="M164944000 75266000
L170844000 75266000
" />
<path d="M164944000 79166000
L164944000 75266000
" />
<path d="M170844000 75266000
L170844000 79166000
" />
<path d="M170844000 79166000
L164944000 79166000
" />
<path d="M166214000 91628000
L166214000 89728000
" />
<path d="M166214000 89728000
L169574000 89728000
" />
<path d="M169574000 91628000
L166214000 91628000
" />
<path d="M169574000 89728000
L169574000 91628000
" />
<circle cx="169418000.000000" cy="70612000.000000" r="1000000.000000" /> 
<circle cx="171704000.000000" cy="97282000.000000" r="1000000.000000" /> 
<circle cx="129997200.000000" cy="70078600.000000" r="1000000.000000" /> 
<circle cx="137210800.000000" cy="98171000.000000" r="1000000.000000" /> 
<circle cx="177000000.000000" cy="97000000.000000" r="2950000.000000" /> 
<circle cx="123000000.000000" cy="97000000.000000" r="2950000.000000" /> 
<circle cx="123000000.000000" cy="69500000.000000" r="2950000.000000" /> 
<circle cx="177000000.000000" cy="69500000.000000" r="2950000.000000" /> 
<path d="M117600000 88700000
L117600000 73700000
" />
<path d="M133300000 88700000
L133300000 73700000
" />
<path d="M117600000 73700000
L133300000 73700000
" />
<path d="M117600000 88700000
L133300000 88700000
" />
<path d="M134500000 67550000
L134500000 81300000
" />
<path d="M138100000 67550000
L134500000 67550000
" />
<path d="M138100000 81300000
L138100000 67550000
" />
<path d="M134500000 81300000
L138100000 81300000
" />
<path d="M156242000 99600000
L156242000 93450000
" />
<path d="M156242000 93450000
L150092000 93450000
" />
<path d="M150092000 99600000
L156242000 99600000
" />
<path d="M150092000 93450000
L150092000 99600000
" />
<path d="M139322400 99564600
L147972400 99564600
" />
<path d="M147972400 99564600
L147972400 93414600
" />
<path d="M147972400 93414600
L139322400 93414600
" />
<path d="M139322400 93414600
L139322400 99564600
" />
<path d="M139170000 75416000
L139170000 91716000
" />
<path d="M142770000 75416000
L139170000 75416000
" />
<path d="M139170000 91716000
L142770000 91716000
" />
<path d="M142770000 91716000
L142770000 75416000
" />
<path d="M166009000 97433400
L166009000 94133400
" />
<path d="M168509000 94133400
L166009000 94133400
" />
<path d="M166009000 97433400
L168509000 97433400
" />
<path d="M168509000 94133400
L168509000 97433400
" />
<path d="M168050000 85156000
L168050000 87056000
" />
<path d="M164690000 85156000
L168050000 85156000
" />
<path d="M168050000 87056000
L164690000 87056000
" />
<path d="M164690000 87056000
L164690000 85156000
" />
<path d="M164690000 82870000
L168050000 82870000
" />
<path d="M168050000 82870000
L168050000 84770000
" />
<path d="M164690000 84770000
L164690000 82870000
" />
<path d="M168050000 84770000
L164690000 84770000
" />
<path d="M160638000 76828000
L157278000 76828000
" />
<path d="M157278000 74928000
L160638000 74928000
" />
<path d="M157278000 76828000
L157278000 74928000
" />
<path d="M160638000 74928000
L160638000 76828000
" />
<path d="M158054000 97438000
L158054000 94078000
" />
<path d="M158054000 94078000
L159954000 94078000
" />
<path d="M159954000 94078000
L159954000 97438000
" />
<path d="M159954000 97438000
L158054000 97438000
" />
<path d="M143804600 81124000
L145704600 81124000
" />
<path d="M145704600 84484000
L143804600 84484000
" />
<path d="M145704600 81124000
L145704600 84484000
" />
<path d="M143804600 84484000
L143804600 81124000
" />
<path d="M146370000 68494800
L148270000 68494800
" />
<path d="M148270000 68494800
L148270000 71854800
" />
<path d="M148270000 71854800
L146370000 71854800
" />
<path d="M146370000 71854800
L146370000 68494800
" />
<path d="M145730000 68494800
L145730000 71854800
" />
<path d="M143830000 71854800
L143830000 68494800
" />
<path d="M143830000 68494800
L145730000 68494800
" />
<path d="M145730000 71854800
L143830000 71854800
" />
<path d="M169704000 88830500
L169704000 85870500
" />
<path d="M171164000 85870500
L171164000 88830500
" />
<path d="M169704000 85870500
L171164000 85870500
" />
<path d="M171164000 88830500
L169704000 88830500
" />
<path d="M155627800 68127800
L155627800 71927800
" />
<path d="M162227800 71927800
L162227800 68127800
" />
<path d="M155627800 71927800
L162227800 71927800
" />
<path d="M162227800 68127800
L155627800 68127800
" />
<path d="M189142000 91284000
L189142000 74284000
" />
<path d="M171742000 74284000
L171742000 91284000
" />
<path d="M171742000 91284000
L189142000 91284000
" />
<path d="M189142000 74284000
L171742000 74284000
" />
<path d="M159732000 80552000
L159732000 91152000
" />
<path d="M149132000 80552000
L149132000 91152000
" />
<path d="M159732000 80552000
L149132000 80552000
" />
<path d="M159732000 91152000
L149132000 91152000
" />
<path d="M169704000 83801400
L169704000 80841400
" />
<path d="M171164000 80841400
L171164000 83801400
" />
<path d="M171164000 83801400
L169704000 83801400
" />
<path d="M169704000 80841400
L171164000 80841400
" />
<path d="M163332200 80387400
L163332200 83747400
" />
<path d="M161432200 83747400
L161432200 80387400
" />
<path d="M161432200 80387400
L163332200 80387400
" />
<path d="M163332200 83747400
L161432200 83747400
" />
<g >
</g>
<g >
</g>
<g >
</g>
<g >
</g>
<g >
</g>
<g >
</g>
<g >
</g>
<g >
</g>
<g >
</g>
<g >
</g>
<g >
</g>
<g >
</g>
<g >
</g>
<g >
</g>
<g >
</g>
<g >
</g>
<g >
</g>
<g >
</g>
<g >
</g>
<g >
</g>
<g >
</g>
<g >
</g>
<g >
</g>
<g >
</g>
<g >
</g>
<g >
</g>
<g >
</g>
<g >
</g>
<g >
</g>
<g >
</g>
<g >
</g>
<g >
</g>
<g >
</g>
<g >
</g>
<g >
</g>
<g >
</g>
<g >
</g>
<g >
</g>
<g >
</g>
<g >
</g>
<g >
</g>
<g >
</g>
<g >
</g>
<g >
</g>
<g >
</g>
<g >
</g>
<g >
</g>
<g >
</g>
<g >
</g>
<g >
</g>
</g> 
</svg>
