<?xml version="1.0" standalone="no"?>
 <!DOCTYPE svg PUBLIC "-//W3C//DTD SVG 1.1//EN" 
 "http://www.w3.org/Graphics/SVG/1.1/DTD/svg11.dtd"> 
<svg
  xmlns:svg="http://www.w3.org/2000/svg"
  xmlns="http://www.w3.org/2000/svg"
  xmlns:xlink="http://www.w3.org/1999/xlink"
  version="1.1"
  width="297.0022mm" height="210.0072mm" viewBox="0.0000 0.0000 297.0022 210.0072">
<title>SVG Image created as t1-F_Courtyard.svg date 2024/02/01 13:51:27 </title>
  <desc>Image generated by PCBNEW </desc>
<g style="fill:#000000; fill-opacity:1.0000;stroke:#000000; stroke-opacity:1.0000;
stroke-linecap:round; stroke-linejoin:round;"
 transform="translate(0 0) scale(1 1)">
</g>
<g style="fill:#000000; fill-opacity:0.0; 
stroke:#000000; stroke-width:0.0000; stroke-opacity:1; 
stroke-linecap:round; stroke-linejoin:round;">
</g>
<g style="fill:#000000; fill-opacity:0.0; 
stroke:#000000; stroke-width:0.0500; stroke-opacity:1; 
stroke-linecap:round; stroke-linejoin:round;">
<path d="M132.3354 89.6444
L129.3354 89.6444
" />
<path d="M129.3354 89.6444
L129.3354 90.4944
" />
<path d="M134.0854 90.4944
L132.3354 90.4944
" />
<path d="M134.0854 90.4944
L135.2354 91.6444
" />
<path d="M132.3354 90.4944
L132.3354 89.6444
" />
<path d="M129.3354 90.4944
L127.5854 90.4944
" />
<path d="M127.5854 90.4944
L126.4354 91.6444
" />
<path d="M135.2354 91.6444
L135.2354 99.2944
" />
<path d="M126.4354 91.6444
L126.4354 99.2944
" />
<path d="M135.2354 99.2944
L132.3354 99.2944
" />
<path d="M132.3354 99.2944
L132.3354 100.1444
" />
<path d="M129.3354 99.2944
L126.4354 99.2944
" />
<path d="M132.3354 100.1444
L129.3354 100.1444
" />
<path d="M129.3354 100.1444
L129.3354 99.2944
" />
<path d="M121.3200 89.9500
L124.6800 89.9500
" />
<path d="M121.3200 91.8500
L121.3200 89.9500
" />
<path d="M124.6800 89.9500
L124.6800 91.8500
" />
<path d="M124.6800 91.8500
L121.3200 91.8500
" />
<path d="M163.2100 73.4360
L163.2100 76.7960
" />
<path d="M161.3100 73.4360
L163.2100 73.4360
" />
<path d="M163.2100 76.7960
L161.3100 76.7960
" />
<path d="M161.3100 76.7960
L161.3100 73.4360
" />
<path d="M156.8600 73.4360
L156.8600 76.7960
" />
<path d="M154.9600 73.4360
L156.8600 73.4360
" />
<path d="M156.8600 76.7960
L154.9600 76.7960
" />
<path d="M154.9600 76.7960
L154.9600 73.4360
" />
<path d="M164.2720 87.4740
L164.2720 90.8340
" />
<path d="M162.3720 87.4740
L164.2720 87.4740
" />
<path d="M164.2720 90.8340
L162.3720 90.8340
" />
<path d="M162.3720 90.8340
L162.3720 87.4740
" />
<path d="M152.2948 77.9170
L155.6548 77.9170
" />
<path d="M152.2948 79.8170
L152.2948 77.9170
" />
<path d="M155.6548 77.9170
L155.6548 79.8170
" />
<path d="M155.6548 79.8170
L152.2948 79.8170
" />
<path d="M143.8046 80.6486
L143.8046 77.2886
" />
<path d="M145.7046 80.6486
L143.8046 80.6486
" />
<path d="M143.8046 77.2886
L145.7046 77.2886
" />
<path d="M145.7046 77.2886
L145.7046 80.6486
" />
<path d="M161.6940 99.0540
L161.6940 94.4940
" />
<path d="M163.9340 99.0540
L161.6940 99.0540
" />
<path d="M161.6940 94.4940
L163.9340 94.4940
" />
<path d="M163.9340 94.4940
L163.9340 99.0540
" />
<path d="M146.3700 76.6300
L146.3700 73.2700
" />
<path d="M148.2700 76.6300
L146.3700 76.6300
" />
<path d="M146.3700 73.2700
L148.2700 73.2700
" />
<path d="M148.2700 73.2700
L148.2700 76.6300
" />
<path d="M143.8300 76.6300
L143.8300 73.2700
" />
<path d="M145.7300 76.6300
L143.8300 76.6300
" />
<path d="M143.8300 73.2700
L145.7300 73.2700
" />
<path d="M145.7300 73.2700
L145.7300 76.6300
" />
<path d="M164.9440 75.2660
L170.8440 75.2660
" />
<path d="M164.9440 79.1660
L164.9440 75.2660
" />
<path d="M170.8440 75.2660
L170.8440 79.1660
" />
<path d="M170.8440 79.1660
L164.9440 79.1660
" />
<path d="M169.5740 91.6280
L166.2140 91.6280
" />
<path d="M169.5740 89.7280
L169.5740 91.6280
" />
<path d="M166.2140 91.6280
L166.2140 89.7280
" />
<path d="M166.2140 89.7280
L169.5740 89.7280
" />
<circle cx="169.4180" cy="70.6120" r="1.0000" /> 
<circle cx="171.7040" cy="97.2820" r="1.0000" /> 
<circle cx="129.9972" cy="70.0786" r="1.0000" /> 
<circle cx="137.2108" cy="98.1710" r="1.0000" /> 
<circle cx="177.0000" cy="97.0000" r="2.9500" /> 
<circle cx="123.0000" cy="97.0000" r="2.9500" /> 
<circle cx="123.0000" cy="69.5000" r="2.9500" /> 
<circle cx="177.0000" cy="69.5000" r="2.9500" /> 
<path d="M117.6000 73.7000
L133.3000 73.7000
" />
<path d="M117.6000 88.7000
L117.6000 73.7000
" />
<path d="M117.6000 88.7000
L133.3000 88.7000
" />
<path d="M133.3000 88.7000
L133.3000 73.7000
" />
<path d="M138.1000 81.3000
L138.1000 67.5500
" />
<path d="M138.1000 67.5500
L134.5000 67.5500
" />
<path d="M134.5000 81.3000
L138.1000 81.3000
" />
<path d="M134.5000 67.5500
L134.5000 81.3000
" />
<path d="M150.0920 93.4500
L150.0920 99.6000
" />
<path d="M150.0920 99.6000
L156.2420 99.6000
" />
<path d="M156.2420 93.4500
L150.0920 93.4500
" />
<path d="M156.2420 99.6000
L156.2420 93.4500
" />
<path d="M139.3224 99.5646
L147.9724 99.5646
" />
<path d="M147.9724 99.5646
L147.9724 93.4146
" />
<path d="M139.3224 93.4146
L139.3224 99.5646
" />
<path d="M147.9724 93.4146
L139.3224 93.4146
" />
<path d="M139.1700 75.4160
L139.1700 91.7160
" />
<path d="M139.1700 91.7160
L142.7700 91.7160
" />
<path d="M142.7700 75.4160
L139.1700 75.4160
" />
<path d="M142.7700 91.7160
L142.7700 75.4160
" />
<path d="M168.5090 94.1334
L166.0090 94.1334
" />
<path d="M168.5090 94.1334
L168.5090 97.4334
" />
<path d="M166.0090 97.4334
L166.0090 94.1334
" />
<path d="M166.0090 97.4334
L168.5090 97.4334
" />
<path d="M164.6900 85.1560
L168.0500 85.1560
" />
<path d="M164.6900 87.0560
L164.6900 85.1560
" />
<path d="M168.0500 85.1560
L168.0500 87.0560
" />
<path d="M168.0500 87.0560
L164.6900 87.0560
" />
<path d="M164.6900 82.8700
L168.0500 82.8700
" />
<path d="M164.6900 84.7700
L164.6900 82.8700
" />
<path d="M168.0500 82.8700
L168.0500 84.7700
" />
<path d="M168.0500 84.7700
L164.6900 84.7700
" />
<path d="M160.6380 76.8280
L157.2780 76.8280
" />
<path d="M160.6380 74.9280
L160.6380 76.8280
" />
<path d="M157.2780 76.8280
L157.2780 74.9280
" />
<path d="M157.2780 74.9280
L160.6380 74.9280
" />
<path d="M158.0540 97.4380
L158.0540 94.0780
" />
<path d="M159.9540 97.4380
L158.0540 97.4380
" />
<path d="M158.0540 94.0780
L159.9540 94.0780
" />
<path d="M159.9540 94.0780
L159.9540 97.4380
" />
<path d="M145.7046 81.1240
L145.7046 84.4840
" />
<path d="M143.8046 81.1240
L145.7046 81.1240
" />
<path d="M145.7046 84.4840
L143.8046 84.4840
" />
<path d="M143.8046 84.4840
L143.8046 81.1240
" />
<path d="M148.2700 68.4948
L148.2700 71.8548
" />
<path d="M146.3700 68.4948
L148.2700 68.4948
" />
<path d="M148.2700 71.8548
L146.3700 71.8548
" />
<path d="M146.3700 71.8548
L146.3700 68.4948
" />
<path d="M145.7300 68.4948
L145.7300 71.8548
" />
<path d="M143.8300 68.4948
L145.7300 68.4948
" />
<path d="M145.7300 71.8548
L143.8300 71.8548
" />
<path d="M143.8300 71.8548
L143.8300 68.4948
" />
<path d="M171.1640 85.8705
L171.1640 88.8305
" />
<path d="M169.7040 85.8705
L171.1640 85.8705
" />
<path d="M171.1640 88.8305
L169.7040 88.8305
" />
<path d="M169.7040 88.8305
L169.7040 85.8705
" />
<path d="M162.2278 71.9278
L162.2278 68.1278
" />
<path d="M162.2278 68.1278
L155.6278 68.1278
" />
<path d="M155.6278 71.9278
L162.2278 71.9278
" />
<path d="M155.6278 68.1278
L155.6278 71.9278
" />
<path d="M171.7420 74.2840
L171.7420 91.2840
" />
<path d="M171.7420 91.2840
L189.1420 91.2840
" />
<path d="M189.1420 74.2840
L171.7420 74.2840
" />
<path d="M189.1420 91.2840
L189.1420 74.2840
" />
<path d="M159.7320 80.5520
L149.1320 80.5520
" />
<path d="M159.7320 80.5520
L159.7320 91.1520
" />
<path d="M149.1320 80.5520
L149.1320 91.1520
" />
<path d="M159.7320 91.1520
L149.1320 91.1520
" />
<path d="M169.7040 83.8014
L169.7040 80.8414
" />
<path d="M171.1640 83.8014
L169.7040 83.8014
" />
<path d="M169.7040 80.8414
L171.1640 80.8414
" />
<path d="M171.1640 80.8414
L171.1640 83.8014
" />
<path d="M161.4322 83.7474
L161.4322 80.3874
" />
<path d="M163.3322 83.7474
L161.4322 83.7474
" />
<path d="M161.4322 80.3874
L163.3322 80.3874
" />
<path d="M163.3322 80.3874
L163.3322 83.7474
" />
<g >
</g>
<g >
</g>
<g >
</g>
<g >
</g>
<g >
</g>
<g >
</g>
<g >
</g>
<g >
</g>
<g >
</g>
<g >
</g>
<g >
</g>
<g >
</g>
<g >
</g>
<g >
</g>
<g >
</g>
<g >
</g>
<g >
</g>
<g >
</g>
<g >
</g>
<g >
</g>
<g >
</g>
<g >
</g>
<g >
</g>
<g >
</g>
<g >
</g>
<g >
</g>
<g >
</g>
<g >
</g>
<g >
</g>
<g >
</g>
<g >
</g>
<g >
</g>
<g >
</g>
<g >
</g>
<g >
</g>
<g >
</g>
<g >
</g>
<g >
</g>
<g >
</g>
<g >
</g>
<g >
</g>
<g >
</g>
<g >
</g>
<g >
</g>
<g >
</g>
<g >
</g>
<g >
</g>
<g >
</g>
<g >
</g>
<g >
</g>
</g> 
</svg>
