<?xml version="1.0" standalone="no"?>
 <!DOCTYPE svg PUBLIC "-//W3C//DTD SVG 1.1//EN" 
 "http://www.w3.org/Graphics/SVG/1.1/DTD/svg11.dtd"> 
<svg
  xmlns:svg="http://www.w3.org/2000/svg"
  xmlns="http://www.w3.org/2000/svg"
  xmlns:xlink="http://www.w3.org/1999/xlink"
  version="1.1"
  width="297.0022mm" height="210.0072mm" viewBox="0.0000 0.0000 297.0022 210.0072">
<title>SVG Image created as t1-User_Drawings4.svg date 2025/04/03 15:51:09 </title>
  <desc>Image generated by PCBNEW </desc>
<g style="fill:#000000; fill-opacity:1.0000;stroke:#000000; stroke-opacity:1.0000;
stroke-linecap:round; stroke-linejoin:round;"
 transform="translate(0 0) scale(1 1)">
</g>
<g style="fill:none; 
stroke:#000000; stroke-width:0.1500; stroke-opacity:1; 
stroke-linecap:round; stroke-linejoin:round;">
<g transform="rotate(270.001609 179.9017 83.4923)">
<text x="179.9017" y="83.9923"
textLength="9.8690" font-size="1.3333" lengthAdjust="spacingAndGlyphs"
text-anchor="middle" opacity="0" stroke-opacity="0">35.6156 mm</text>
</g>
<g class="stroked-text"><desc>35.6156 mm</desc>
<path d="M179.3564 88.1589
L179.3564 87.5399
" />
<path d="M179.3564 87.5399
L179.7374 87.8732
" />
<path d="M179.7374 87.8732
L179.7374 87.7303
" />
<path d="M179.7374 87.7303
L179.7850 87.6351
" />
<path d="M179.7850 87.6351
L179.8326 87.5875
" />
<path d="M179.8326 87.5875
L179.9278 87.5399
" />
<path d="M179.9278 87.5399
L180.1659 87.5399
" />
<path d="M180.1659 87.5399
L180.2612 87.5875
" />
<path d="M180.2612 87.5875
L180.3088 87.6351
" />
<path d="M180.3088 87.6351
L180.3564 87.7304
" />
<path d="M180.3564 87.7304
L180.3564 88.0161
" />
<path d="M180.3564 88.0161
L180.3088 88.1113
" />
<path d="M180.3088 88.1113
L180.2612 88.1589
" />
<path d="M179.3564 86.6351
L179.3564 87.1113
" />
<path d="M179.3564 87.1113
L179.8326 87.1589
" />
<path d="M179.8326 87.1589
L179.7850 87.1113
" />
<path d="M179.7850 87.1113
L179.7374 87.0161
" />
<path d="M179.7374 87.0161
L179.7374 86.7780
" />
<path d="M179.7374 86.7780
L179.7850 86.6827
" />
<path d="M179.7850 86.6827
L179.8326 86.6351
" />
<path d="M179.8326 86.6351
L179.9279 86.5875
" />
<path d="M179.9279 86.5875
L180.1660 86.5875
" />
<path d="M180.1660 86.5875
L180.2612 86.6351
" />
<path d="M180.2612 86.6351
L180.3088 86.6827
" />
<path d="M180.3088 86.6827
L180.3564 86.7780
" />
<path d="M180.3564 86.7780
L180.3564 87.0161
" />
<path d="M180.3564 87.0161
L180.3088 87.1113
" />
<path d="M180.3088 87.1113
L180.2612 87.1589
" />
<path d="M180.2612 86.1589
L180.3088 86.1113
" />
<path d="M180.3088 86.1113
L180.3565 86.1589
" />
<path d="M180.3565 86.1589
L180.3088 86.2065
" />
<path d="M180.3088 86.2065
L180.2612 86.1589
" />
<path d="M180.2612 86.1589
L180.3565 86.1589
" />
<path d="M179.3565 85.2541
L179.3565 85.4446
" />
<path d="M179.3565 85.4446
L179.4041 85.5399
" />
<path d="M179.4041 85.5399
L179.4517 85.5875
" />
<path d="M179.4517 85.5875
L179.5946 85.6827
" />
<path d="M179.5946 85.6827
L179.7850 85.7303
" />
<path d="M179.7850 85.7303
L180.1660 85.7304
" />
<path d="M180.1660 85.7304
L180.2612 85.6827
" />
<path d="M180.2612 85.6827
L180.3089 85.6351
" />
<path d="M180.3089 85.6351
L180.3565 85.5399
" />
<path d="M180.3565 85.5399
L180.3565 85.3494
" />
<path d="M180.3565 85.3494
L180.3089 85.2542
" />
<path d="M180.3089 85.2542
L180.2612 85.2065
" />
<path d="M180.2612 85.2065
L180.1660 85.1589
" />
<path d="M180.1660 85.1589
L179.9279 85.1589
" />
<path d="M179.9279 85.1589
L179.8327 85.2065
" />
<path d="M179.8327 85.2065
L179.7851 85.2542
" />
<path d="M179.7851 85.2542
L179.7374 85.3494
" />
<path d="M179.7374 85.3494
L179.7374 85.5399
" />
<path d="M179.7374 85.5399
L179.7850 85.6351
" />
<path d="M179.7850 85.6351
L179.8327 85.6827
" />
<path d="M179.8327 85.6827
L179.9279 85.7303
" />
<path d="M180.3565 84.2066
L180.3565 84.7780
" />
<path d="M180.3565 84.4923
L179.3565 84.4922
" />
<path d="M179.3565 84.4922
L179.4994 84.5875
" />
<path d="M179.4994 84.5875
L179.5946 84.6827
" />
<path d="M179.5946 84.6827
L179.6422 84.7780
" />
<path d="M179.3565 83.3018
L179.3565 83.7780
" />
<path d="M179.3565 83.7780
L179.8327 83.8256
" />
<path d="M179.8327 83.8256
L179.7851 83.7780
" />
<path d="M179.7851 83.7780
L179.7375 83.6827
" />
<path d="M179.7375 83.6827
L179.7375 83.4446
" />
<path d="M179.7375 83.4446
L179.7851 83.3494
" />
<path d="M179.7851 83.3494
L179.8327 83.3018
" />
<path d="M179.8327 83.3018
L179.9280 83.2542
" />
<path d="M179.9280 83.2542
L180.1661 83.2542
" />
<path d="M180.1661 83.2542
L180.2613 83.3018
" />
<path d="M180.2613 83.3018
L180.3089 83.3494
" />
<path d="M180.3089 83.3494
L180.3565 83.4446
" />
<path d="M180.3565 83.4446
L180.3565 83.6827
" />
<path d="M180.3565 83.6827
L180.3089 83.7780
" />
<path d="M180.3089 83.7780
L180.2613 83.8256
" />
<path d="M179.3566 82.3970
L179.3566 82.5875
" />
<path d="M179.3566 82.5875
L179.4042 82.6827
" />
<path d="M179.4042 82.6827
L179.4518 82.7303
" />
<path d="M179.4518 82.7303
L179.5946 82.8256
" />
<path d="M179.5946 82.8256
L179.7851 82.8732
" />
<path d="M179.7851 82.8732
L180.1661 82.8732
" />
<path d="M180.1661 82.8732
L180.2613 82.8256
" />
<path d="M180.2613 82.8256
L180.3089 82.7780
" />
<path d="M180.3089 82.7780
L180.3566 82.6827
" />
<path d="M180.3566 82.6827
L180.3566 82.4923
" />
<path d="M180.3566 82.4923
L180.3089 82.3970
" />
<path d="M180.3089 82.3970
L180.2613 82.3494
" />
<path d="M180.2613 82.3494
L180.1661 82.3018
" />
<path d="M180.1661 82.3018
L179.9280 82.3018
" />
<path d="M179.9280 82.3018
L179.8328 82.3494
" />
<path d="M179.8328 82.3494
L179.7851 82.3970
" />
<path d="M179.7851 82.3970
L179.7375 82.4922
" />
<path d="M179.7375 82.4922
L179.7375 82.6827
" />
<path d="M179.7375 82.6827
L179.7851 82.7780
" />
<path d="M179.7851 82.7780
L179.8327 82.8256
" />
<path d="M179.8327 82.8256
L179.9280 82.8732
" />
<path d="M180.3566 81.1113
L179.6899 81.1113
" />
<path d="M179.7852 81.1113
L179.7376 81.0637
" />
<path d="M179.7376 81.0637
L179.6899 80.9684
" />
<path d="M179.6899 80.9684
L179.6899 80.8256
" />
<path d="M179.6899 80.8256
L179.7376 80.7303
" />
<path d="M179.7376 80.7303
L179.8328 80.6827
" />
<path d="M179.8328 80.6827
L180.3566 80.6827
" />
<path d="M179.8328 80.6827
L179.7376 80.6351
" />
<path d="M179.7376 80.6351
L179.6899 80.5399
" />
<path d="M179.6899 80.5399
L179.6900 80.3970
" />
<path d="M179.6900 80.3970
L179.7376 80.3018
" />
<path d="M179.7376 80.3018
L179.8328 80.2542
" />
<path d="M179.8328 80.2542
L180.3566 80.2542
" />
<path d="M180.3566 79.7780
L179.6900 79.7780
" />
<path d="M179.7852 79.7780
L179.7376 79.7303
" />
<path d="M179.7376 79.7303
L179.6900 79.6351
" />
<path d="M179.6900 79.6351
L179.6900 79.4922
" />
<path d="M179.6900 79.4922
L179.7376 79.3970
" />
<path d="M179.7376 79.3970
L179.8328 79.3494
" />
<path d="M179.8328 79.3494
L180.3567 79.3494
" />
<path d="M179.8328 79.3494
L179.7376 79.3018
" />
<path d="M179.7376 79.3018
L179.6900 79.2065
" />
<path d="M179.6900 79.2065
L179.6900 79.0637
" />
<path d="M179.6900 79.0637
L179.7376 78.9684
" />
<path d="M179.7376 78.9684
L179.8329 78.9208
" />
<path d="M179.8329 78.9208
L180.3567 78.9208
" />
</g><path d="M178.0022 101.3000
L181.6376 101.3001
" />
<path d="M178.0032 65.6844
L181.6386 65.6845
" />
<path d="M181.0512 101.3001
L181.0522 65.6845
" />
<path d="M181.0512 101.3001
L181.6377 100.1736
" />
<path d="M181.0512 101.3001
L180.4648 100.1736
" />
<path d="M181.0522 65.6845
L180.4658 66.8110
" />
<path d="M181.0522 65.6845
L181.6386 66.8110
" />
<g transform="rotate(359.985813 146.5019 62.6118)">
<text x="146.5019" y="63.1118"
textLength="9.8690" font-size="1.3333" lengthAdjust="spacingAndGlyphs"
text-anchor="middle" opacity="0" stroke-opacity="0">63.0010 mm</text>
</g>
<g class="stroked-text"><desc>63.0010 mm</desc>
<path d="M142.3589 62.0676
L142.1685 62.0677
" />
<path d="M142.1685 62.0677
L142.0732 62.1153
" />
<path d="M142.0732 62.1153
L142.0256 62.1629
" />
<path d="M142.0256 62.1629
L141.9304 62.3058
" />
<path d="M141.9304 62.3058
L141.8829 62.4963
" />
<path d="M141.8829 62.4963
L141.8830 62.8773
" />
<path d="M141.8830 62.8773
L141.9306 62.9725
" />
<path d="M141.9306 62.9725
L141.9782 63.0201
" />
<path d="M141.9782 63.0201
L142.0735 63.0677
" />
<path d="M142.0735 63.0677
L142.2640 63.0676
" />
<path d="M142.2640 63.0676
L142.3592 63.0200
" />
<path d="M142.3592 63.0200
L142.4068 62.9724
" />
<path d="M142.4068 62.9724
L142.4544 62.8771
" />
<path d="M142.4544 62.8771
L142.4543 62.6390
" />
<path d="M142.4543 62.6390
L142.4067 62.5438
" />
<path d="M142.4067 62.5438
L142.3591 62.4962
" />
<path d="M142.3591 62.4962
L142.2638 62.4486
" />
<path d="M142.2638 62.4486
L142.0733 62.4486
" />
<path d="M142.0733 62.4486
L141.9781 62.4963
" />
<path d="M141.9781 62.4963
L141.9305 62.5439
" />
<path d="M141.9305 62.5439
L141.8829 62.6392
" />
<path d="M142.7875 62.0675
L143.4066 62.0674
" />
<path d="M143.4066 62.0674
L143.0733 62.4484
" />
<path d="M143.0733 62.4484
L143.2162 62.4484
" />
<path d="M143.2162 62.4484
L143.3114 62.4960
" />
<path d="M143.3114 62.4960
L143.3591 62.5436
" />
<path d="M143.3591 62.5436
L143.4067 62.6388
" />
<path d="M143.4067 62.6388
L143.4068 62.8769
" />
<path d="M143.4068 62.8769
L143.3592 62.9721
" />
<path d="M143.3592 62.9721
L143.3116 63.0198
" />
<path d="M143.3116 63.0198
L143.2163 63.0674
" />
<path d="M143.2163 63.0674
L142.9306 63.0675
" />
<path d="M142.9306 63.0675
L142.8354 63.0199
" />
<path d="M142.8354 63.0199
L142.7877 62.9723
" />
<path d="M143.8354 62.9720
L143.8830 63.0196
" />
<path d="M143.8830 63.0196
L143.8354 63.0673
" />
<path d="M143.8354 63.0673
L143.7878 63.0196
" />
<path d="M143.7878 63.0196
L143.8354 62.9720
" />
<path d="M143.8354 62.9720
L143.8354 63.0673
" />
<path d="M144.5018 62.0671
L144.5970 62.0671
" />
<path d="M144.5970 62.0671
L144.6923 62.1147
" />
<path d="M144.6923 62.1147
L144.7399 62.1623
" />
<path d="M144.7399 62.1623
L144.7876 62.2575
" />
<path d="M144.7876 62.2575
L144.8352 62.4480
" />
<path d="M144.8352 62.4480
L144.8353 62.6861
" />
<path d="M144.8353 62.6861
L144.7877 62.8765
" />
<path d="M144.7877 62.8765
L144.7401 62.9718
" />
<path d="M144.7401 62.9718
L144.6925 63.0194
" />
<path d="M144.6925 63.0194
L144.5973 63.0671
" />
<path d="M144.5973 63.0671
L144.5021 63.0671
" />
<path d="M144.5021 63.0671
L144.4068 63.0195
" />
<path d="M144.4068 63.0195
L144.3592 62.9719
" />
<path d="M144.3592 62.9719
L144.3115 62.8767
" />
<path d="M144.3115 62.8767
L144.2639 62.6862
" />
<path d="M144.2639 62.6862
L144.2638 62.4481
" />
<path d="M144.2638 62.4481
L144.3114 62.2576
" />
<path d="M144.3114 62.2576
L144.3590 62.1624
" />
<path d="M144.3590 62.1624
L144.4066 62.1147
" />
<path d="M144.4066 62.1147
L144.5018 62.0671
" />
<path d="M145.4542 62.0669
L145.5494 62.0668
" />
<path d="M145.5494 62.0668
L145.6447 62.1144
" />
<path d="M145.6447 62.1144
L145.6923 62.1620
" />
<path d="M145.6923 62.1620
L145.7399 62.2573
" />
<path d="M145.7399 62.2573
L145.7876 62.4477
" />
<path d="M145.7876 62.4477
L145.7877 62.6858
" />
<path d="M145.7877 62.6858
L145.7401 62.8763
" />
<path d="M145.7401 62.8763
L145.6925 62.9716
" />
<path d="M145.6925 62.9716
L145.6449 63.0192
" />
<path d="M145.6449 63.0192
L145.5497 63.0668
" />
<path d="M145.5497 63.0668
L145.4544 63.0669
" />
<path d="M145.4544 63.0669
L145.3592 63.0193
" />
<path d="M145.3592 63.0193
L145.3116 62.9716
" />
<path d="M145.3116 62.9716
L145.2639 62.8764
" />
<path d="M145.2639 62.8764
L145.2162 62.6860
" />
<path d="M145.2162 62.6860
L145.2162 62.4479
" />
<path d="M145.2162 62.4479
L145.2638 62.2574
" />
<path d="M145.2638 62.2574
L145.3114 62.1621
" />
<path d="M145.3114 62.1621
L145.3590 62.1145
" />
<path d="M145.3590 62.1145
L145.4542 62.0669
" />
<path d="M146.7401 63.0665
L146.1687 63.0667
" />
<path d="M146.4544 63.0666
L146.4542 62.0666
" />
<path d="M146.4542 62.0666
L146.3590 62.2095
" />
<path d="M146.3590 62.2095
L146.2638 62.3047
" />
<path d="M146.2638 62.3047
L146.1685 62.3524
" />
<path d="M147.3589 62.0664
L147.4542 62.0664
" />
<path d="M147.4542 62.0664
L147.5494 62.1140
" />
<path d="M147.5494 62.1140
L147.5971 62.1616
" />
<path d="M147.5971 62.1616
L147.6447 62.2568
" />
<path d="M147.6447 62.2568
L147.6924 62.4473
" />
<path d="M147.6924 62.4473
L147.6924 62.6853
" />
<path d="M147.6924 62.6853
L147.6449 62.8758
" />
<path d="M147.6449 62.8758
L147.5973 62.9711
" />
<path d="M147.5973 62.9711
L147.5497 63.0187
" />
<path d="M147.5497 63.0187
L147.4544 63.0664
" />
<path d="M147.4544 63.0664
L147.3592 63.0664
" />
<path d="M147.3592 63.0664
L147.2639 63.0188
" />
<path d="M147.2639 63.0188
L147.2163 62.9712
" />
<path d="M147.2163 62.9712
L147.1687 62.8760
" />
<path d="M147.1687 62.8760
L147.1210 62.6855
" />
<path d="M147.1210 62.6855
L147.1209 62.4474
" />
<path d="M147.1209 62.4474
L147.1685 62.2569
" />
<path d="M147.1685 62.2569
L147.2161 62.1617
" />
<path d="M147.2161 62.1617
L147.2637 62.1140
" />
<path d="M147.2637 62.1140
L147.3589 62.0664
" />
<path d="M148.8830 63.0660
L148.8828 62.3993
" />
<path d="M148.8829 62.4946
L148.9305 62.4469
" />
<path d="M148.9305 62.4469
L149.0257 62.3993
" />
<path d="M149.0257 62.3993
L149.1686 62.3993
" />
<path d="M149.1686 62.3993
L149.2638 62.4469
" />
<path d="M149.2638 62.4469
L149.3114 62.5421
" />
<path d="M149.3114 62.5421
L149.3116 63.0659
" />
<path d="M149.3114 62.5421
L149.3590 62.4468
" />
<path d="M149.3590 62.4468
L149.4543 62.3992
" />
<path d="M149.4543 62.3992
L149.5971 62.3992
" />
<path d="M149.5971 62.3992
L149.6924 62.4468
" />
<path d="M149.6924 62.4468
L149.7400 62.5420
" />
<path d="M149.7400 62.5420
L149.7401 63.0658
" />
<path d="M150.2163 63.0657
L150.2162 62.3990
" />
<path d="M150.2162 62.4942
L150.2638 62.4466
" />
<path d="M150.2638 62.4466
L150.3590 62.3990
" />
<path d="M150.3590 62.3990
L150.5019 62.3989
" />
<path d="M150.5019 62.3989
L150.5971 62.4465
" />
<path d="M150.5971 62.4465
L150.6448 62.5418
" />
<path d="M150.6448 62.5418
L150.6449 63.0656
" />
<path d="M150.6448 62.5418
L150.6924 62.4465
" />
<path d="M150.6924 62.4465
L150.7876 62.3989
" />
<path d="M150.7876 62.3989
L150.9305 62.3988
" />
<path d="M150.9305 62.3988
L151.0257 62.4464
" />
<path d="M151.0257 62.4464
L151.0733 62.5417
" />
<path d="M151.0733 62.5417
L151.0735 63.0655
" />
</g><path d="M178.0032 65.6844
L178.0026 63.1676
" />
<path d="M115.0022 65.7000
L115.0016 63.1832
" />
<path d="M178.0027 63.7540
L115.0017 63.7696
" />
<path d="M178.0027 63.7540
L176.8761 63.1678
" />
<path d="M178.0027 63.7540
L176.8764 64.3407
" />
<path d="M115.0017 63.7696
L116.1284 64.3557
" />
<path d="M115.0017 63.7696
L116.1281 63.1829
" />
</g> 
</svg>
