<?xml version="1.0" standalone="no"?>
 <!DOCTYPE svg PUBLIC "-//W3C//DTD SVG 1.1//EN" 
 "http://www.w3.org/Graphics/SVG/1.1/DTD/svg11.dtd"> 
<svg
  xmlns:svg="http://www.w3.org/2000/svg"
  xmlns="http://www.w3.org/2000/svg"
  xmlns:xlink="http://www.w3.org/1999/xlink"
  version="1.1"
  width="297.0022mm" height="210.0072mm" viewBox="0.0000 0.0000 297.0022 210.0072">
<title>SVG Image created as t1-Power_Cu.svg date 2024/02/01 13:59:53 </title>
  <desc>Image generated by PCBNEW </desc>
<g style="fill:#000000; fill-opacity:1.0000;stroke:#000000; stroke-opacity:1.0000;
stroke-linecap:round; stroke-linejoin:round;"
 transform="translate(0 0) scale(1 1)">
</g>
<g style="fill:#000000; fill-opacity:0.0; 
stroke:#000000; stroke-width:0.0000; stroke-opacity:1; 
stroke-linecap:round; stroke-linejoin:round;">
<g >
</g>
<g >
</g>
<g >
</g>
<g >
</g>
<g >
</g>
<g >
</g>
<g >
</g>
<g >
</g>
<g >
</g>
<g >
</g>
<g >
</g>
<g >
</g>
<g >
</g>
<g >
</g>
<g >
</g>
<g >
</g>
<g >
</g>
<g >
</g>
<g >
</g>
<g >
</g>
<g >
</g>
<g >
</g>
<g style="fill:#000000; fill-opacity:0.0; 
stroke:#000000; stroke-width:0.0000; stroke-opacity:1; 
stroke-linecap:round; stroke-linejoin:round;">
</g>
<g style="fill:#000000; fill-opacity:0.0; 
stroke:#000000; stroke-width:0.0000; stroke-opacity:1; 
stroke-linecap:round; stroke-linejoin:round;">
</g>
<g style="fill:#000000; fill-opacity:1.0000; 
stroke:#000000; stroke-width:0.0000; stroke-opacity:1; 
stroke-linecap:round; stroke-linejoin:round;">
<path style="fill:#000000; fill-opacity:1.0000; 
stroke:#000000; stroke-width:0.0000; stroke-opacity:1; 
stroke-linecap:round; stroke-linejoin:round;fill-rule:evenodd;"
d="M 137.1500,78.6500
137.1500,80.3500
135.4500,80.3500
135.4500,78.6500
Z" /> 
<circle cx="136.3000" cy="76.9600" r="0.8500" /> 
<circle cx="136.3000" cy="74.4200" r="0.8500" /> 
<circle cx="136.3000" cy="71.8800" r="0.8500" /> 
<circle cx="136.3000" cy="69.3400" r="0.8500" /> 
</g>
<g >
</g>
<g style="fill:#000000; fill-opacity:1.0000; 
stroke:#000000; stroke-width:0.0000; stroke-opacity:1; 
stroke-linecap:round; stroke-linejoin:round;">
<path style="fill:#000000; fill-opacity:1.0000; 
stroke:#000000; stroke-width:0.0000; stroke-opacity:1; 
stroke-linecap:round; stroke-linejoin:round;fill-rule:evenodd;"
d="M 151.0420,96.1000
151.0420,94.4000
152.7420,94.4000
152.7420,96.1000
Z" /> 
<circle cx="154.4320" cy="95.2500" r="0.8500" /> 
<circle cx="151.8920" cy="97.7900" r="0.8500" /> 
<circle cx="154.4320" cy="97.7900" r="0.8500" /> 
</g>
<g >
</g>
<g style="fill:#000000; fill-opacity:1.0000; 
stroke:#000000; stroke-width:0.0000; stroke-opacity:1; 
stroke-linecap:round; stroke-linejoin:round;">
<path style="fill:#000000; fill-opacity:1.0000; 
stroke:#000000; stroke-width:0.0000; stroke-opacity:1; 
stroke-linecap:round; stroke-linejoin:round;fill-rule:evenodd;"
d="M 141.9724,98.6146
140.2724,98.6146
140.2724,96.9146
141.9724,96.9146
Z" /> 
<circle cx="141.1224" cy="95.2246" r="0.8500" /> 
<circle cx="143.6624" cy="97.7646" r="0.8500" /> 
<circle cx="143.6624" cy="95.2246" r="0.8500" /> 
<circle cx="146.2024" cy="97.7646" r="0.8500" /> 
<circle cx="146.2024" cy="95.2246" r="0.8500" /> 
</g>
<g >
</g>
<g style="fill:#000000; fill-opacity:1.0000; 
stroke:#000000; stroke-width:0.0000; stroke-opacity:1; 
stroke-linecap:round; stroke-linejoin:round;">
<path style="fill:#000000; fill-opacity:1.0000; 
stroke:#000000; stroke-width:0.0000; stroke-opacity:1; 
stroke-linecap:round; stroke-linejoin:round;fill-rule:evenodd;"
d="M 140.1200,78.0660
140.1200,76.3660
141.8200,76.3660
141.8200,78.0660
Z" /> 
<circle cx="140.9700" cy="79.7560" r="0.8500" /> 
<circle cx="140.9700" cy="82.2960" r="0.8500" /> 
<circle cx="140.9700" cy="84.8360" r="0.8500" /> 
<circle cx="140.9700" cy="87.3760" r="0.8500" /> 
<circle cx="140.9700" cy="89.9160" r="0.8500" /> 
</g>
<g >
</g>
<g >
</g>
<g >
</g>
<g >
</g>
<g >
</g>
<g >
</g>
<g >
</g>
<g >
</g>
<g >
</g>
<g >
</g>
<g >
</g>
<g style="fill:#000000; fill-opacity:1.0000; 
stroke:#000000; stroke-width:0.0000; stroke-opacity:1; 
stroke-linecap:round; stroke-linejoin:round;">
<path style="fill:#000000; fill-opacity:1.0000; 
stroke:#000000; stroke-width:0.0000; stroke-opacity:1; 
stroke-linecap:round; stroke-linejoin:round;fill-rule:evenodd;"
d="M 174.2820,82.3340
172.6820,82.3340
172.6820,80.7340
174.2820,80.7340
Z" /> 
<circle cx="173.4820" cy="84.0340" r="0.8000" /> 
</g>
<g style="fill:#000000; fill-opacity:1.0000; 
stroke:#000000; stroke-width:0.0212; stroke-opacity:1; 
stroke-linecap:round; stroke-linejoin:round;">
</g>
<g style="fill:#000000; fill-opacity:1.0000; 
stroke:#000000; stroke-width:0.0000; stroke-opacity:1; 
stroke-linecap:round; stroke-linejoin:round;">
<circle cx="175.4820" cy="84.0340" r="0.8000" /> 
</g>
<g style="fill:#000000; fill-opacity:1.0000; 
stroke:#000000; stroke-width:0.0212; stroke-opacity:1; 
stroke-linecap:round; stroke-linejoin:round;">
</g>
<g style="fill:#000000; fill-opacity:1.0000; 
stroke:#000000; stroke-width:0.0000; stroke-opacity:1; 
stroke-linecap:round; stroke-linejoin:round;">
<circle cx="175.4820" cy="81.5340" r="0.8000" /> 
</g>
<g style="fill:#000000; fill-opacity:1.0000; 
stroke:#000000; stroke-width:0.0212; stroke-opacity:1; 
stroke-linecap:round; stroke-linejoin:round;">
</g>
<g style="fill:#000000; fill-opacity:1.0000; 
stroke:#000000; stroke-width:0.0000; stroke-opacity:1; 
stroke-linecap:round; stroke-linejoin:round;">
<circle cx="178.3420" cy="76.7840" r="2.0000" /> 
</g>
<g style="fill:#000000; fill-opacity:1.0000; 
stroke:#000000; stroke-width:0.0212; stroke-opacity:1; 
stroke-linecap:round; stroke-linejoin:round;">
</g>
<g style="fill:#000000; fill-opacity:1.0000; 
stroke:#000000; stroke-width:0.0000; stroke-opacity:1; 
stroke-linecap:round; stroke-linejoin:round;">
<circle cx="178.3420" cy="88.7840" r="2.0000" /> 
</g>
<g style="fill:#000000; fill-opacity:1.0000; 
stroke:#000000; stroke-width:0.0212; stroke-opacity:1; 
stroke-linecap:round; stroke-linejoin:round;">
</g>
<g >
</g>
<g >
</g>
<g >
</g>
<g >
</g>
<g >
</g>
<g >
</g>
<g >
</g>
<g >
</g>
<g >
</g>
<g >
</g>
<g >
</g>
<g >
</g>
<g style="fill:#000000; fill-opacity:1.0000; 
stroke:#000000; stroke-width:0.0212; stroke-opacity:1; 
stroke-linecap:round; stroke-linejoin:round;">
</g>
<g style="fill:#000000; fill-opacity:1.0000; 
stroke:#000000; stroke-width:0.0000; stroke-opacity:1; 
stroke-linecap:round; stroke-linejoin:round;">
<circle cx="154.3558" cy="75.7936" r="0.4000" /> 
</g>
<g style="fill:#000000; fill-opacity:1.0000; 
stroke:#000000; stroke-width:0.0212; stroke-opacity:1; 
stroke-linecap:round; stroke-linejoin:round;">
</g>
<g style="fill:#000000; fill-opacity:1.0000; 
stroke:#000000; stroke-width:0.0000; stroke-opacity:1; 
stroke-linecap:round; stroke-linejoin:round;">
<circle cx="123.1138" cy="73.3298" r="0.4000" /> 
</g>
<g style="fill:#000000; fill-opacity:1.0000; 
stroke:#000000; stroke-width:0.0212; stroke-opacity:1; 
stroke-linecap:round; stroke-linejoin:round;">
</g>
<g style="fill:#000000; fill-opacity:1.0000; 
stroke:#000000; stroke-width:0.0000; stroke-opacity:1; 
stroke-linecap:round; stroke-linejoin:round;">
<circle cx="129.1082" cy="77.9526" r="0.4000" /> 
</g>
<g style="fill:#000000; fill-opacity:1.0000; 
stroke:#000000; stroke-width:0.0212; stroke-opacity:1; 
stroke-linecap:round; stroke-linejoin:round;">
</g>
<g style="fill:#000000; fill-opacity:1.0000; 
stroke:#000000; stroke-width:0.0000; stroke-opacity:1; 
stroke-linecap:round; stroke-linejoin:round;">
<circle cx="167.2590" cy="97.9424" r="0.4000" /> 
</g>
<g style="fill:#000000; fill-opacity:1.0000; 
stroke:#000000; stroke-width:0.0212; stroke-opacity:1; 
stroke-linecap:round; stroke-linejoin:round;">
</g>
<g style="fill:#000000; fill-opacity:1.0000; 
stroke:#000000; stroke-width:0.0000; stroke-opacity:1; 
stroke-linecap:round; stroke-linejoin:round;">
<circle cx="155.6766" cy="83.0580" r="0.4000" /> 
</g>
<g style="fill:#000000; fill-opacity:1.0000; 
stroke:#000000; stroke-width:0.0212; stroke-opacity:1; 
stroke-linecap:round; stroke-linejoin:round;">
</g>
<g style="fill:#000000; fill-opacity:1.0000; 
stroke:#000000; stroke-width:0.0000; stroke-opacity:1; 
stroke-linecap:round; stroke-linejoin:round;">
<circle cx="163.8300" cy="76.7588" r="0.4000" /> 
</g>
<g style="fill:#000000; fill-opacity:1.0000; 
stroke:#000000; stroke-width:0.0212; stroke-opacity:1; 
stroke-linecap:round; stroke-linejoin:round;">
</g>
<g style="fill:#000000; fill-opacity:1.0000; 
stroke:#000000; stroke-width:0.0000; stroke-opacity:1; 
stroke-linecap:round; stroke-linejoin:round;">
<circle cx="125.3490" cy="90.9066" r="0.4000" /> 
</g>
<g style="fill:#000000; fill-opacity:1.0000; 
stroke:#000000; stroke-width:0.0212; stroke-opacity:1; 
stroke-linecap:round; stroke-linejoin:round;">
</g>
<g style="fill:#000000; fill-opacity:1.0000; 
stroke:#000000; stroke-width:0.0000; stroke-opacity:1; 
stroke-linecap:round; stroke-linejoin:round;">
<circle cx="130.8100" cy="95.3516" r="0.4000" /> 
</g>
<g style="fill:#000000; fill-opacity:1.0000; 
stroke:#000000; stroke-width:0.0212; stroke-opacity:1; 
stroke-linecap:round; stroke-linejoin:round;">
</g>
<g style="fill:#000000; fill-opacity:1.0000; 
stroke:#000000; stroke-width:0.0000; stroke-opacity:1; 
stroke-linecap:round; stroke-linejoin:round;">
<circle cx="129.0828" cy="73.3806" r="0.4000" /> 
</g>
<g style="fill:#000000; fill-opacity:1.0000; 
stroke:#000000; stroke-width:0.0212; stroke-opacity:1; 
stroke-linecap:round; stroke-linejoin:round;">
</g>
<g style="fill:#000000; fill-opacity:1.0000; 
stroke:#000000; stroke-width:0.0000; stroke-opacity:1; 
stroke-linecap:round; stroke-linejoin:round;">
<circle cx="144.8308" cy="85.0646" r="0.4000" /> 
</g>
<g style="fill:#000000; fill-opacity:1.0000; 
stroke:#000000; stroke-width:0.0212; stroke-opacity:1; 
stroke-linecap:round; stroke-linejoin:round;">
</g>
<g style="fill:#000000; fill-opacity:1.0000; 
stroke:#000000; stroke-width:0.0000; stroke-opacity:1; 
stroke-linecap:round; stroke-linejoin:round;">
<circle cx="123.0884" cy="78.1304" r="0.4000" /> 
</g>
<g style="fill:#000000; fill-opacity:1.0000; 
stroke:#000000; stroke-width:0.0212; stroke-opacity:1; 
stroke-linecap:round; stroke-linejoin:round;">
</g>
<g style="fill:#000000; fill-opacity:1.0000; 
stroke:#000000; stroke-width:0.0000; stroke-opacity:1; 
stroke-linecap:round; stroke-linejoin:round;">
<circle cx="159.8422" cy="98.6028" r="0.4000" /> 
</g>
<g style="fill:#000000; fill-opacity:1.0000; 
stroke:#000000; stroke-width:0.0212; stroke-opacity:1; 
stroke-linecap:round; stroke-linejoin:round;">
</g>
<g style="fill:#000000; fill-opacity:1.0000; 
stroke:#000000; stroke-width:0.0000; stroke-opacity:1; 
stroke-linecap:round; stroke-linejoin:round;">
<circle cx="154.5336" cy="83.2866" r="0.4000" /> 
</g>
<g style="fill:#000000; fill-opacity:1.0000; 
stroke:#000000; stroke-width:0.0212; stroke-opacity:1; 
stroke-linecap:round; stroke-linejoin:round;">
</g>
<g style="fill:#000000; fill-opacity:1.0000; 
stroke:#000000; stroke-width:0.0000; stroke-opacity:1; 
stroke-linecap:round; stroke-linejoin:round;">
<circle cx="146.0246" cy="69.2404" r="0.4000" /> 
</g>
<g style="fill:#000000; fill-opacity:1.0000; 
stroke:#000000; stroke-width:0.0212; stroke-opacity:1; 
stroke-linecap:round; stroke-linejoin:round;">
</g>
<g style="fill:#000000; fill-opacity:1.0000; 
stroke:#000000; stroke-width:0.0000; stroke-opacity:1; 
stroke-linecap:round; stroke-linejoin:round;">
<circle cx="159.1818" cy="81.9658" r="0.4000" /> 
</g>
<g style="fill:#000000; fill-opacity:1.0000; 
stroke:#000000; stroke-width:0.0212; stroke-opacity:1; 
stroke-linecap:round; stroke-linejoin:round;">
</g>
<g style="fill:#000000; fill-opacity:1.0000; 
stroke:#000000; stroke-width:0.0000; stroke-opacity:1; 
stroke-linecap:round; stroke-linejoin:round;">
<circle cx="130.8354" cy="88.9000" r="0.4000" /> 
</g>
<g style="fill:#000000; fill-opacity:1.0000; 
stroke:#000000; stroke-width:0.0212; stroke-opacity:1; 
stroke-linecap:round; stroke-linejoin:round;">
</g>
<g style="fill:#000000; fill-opacity:1.0000; 
stroke:#000000; stroke-width:0.0000; stroke-opacity:1; 
stroke-linecap:round; stroke-linejoin:round;">
<circle cx="129.1082" cy="84.3026" r="0.4000" /> 
</g>
<g style="fill:#000000; fill-opacity:1.0000; 
stroke:#000000; stroke-width:0.0212; stroke-opacity:1; 
stroke-linecap:round; stroke-linejoin:round;">
</g>
<g style="fill:#000000; fill-opacity:1.0000; 
stroke:#000000; stroke-width:0.0000; stroke-opacity:1; 
stroke-linecap:round; stroke-linejoin:round;">
<circle cx="121.5644" cy="89.3318" r="0.4000" /> 
</g>
<g style="fill:#000000; fill-opacity:1.0000; 
stroke:#000000; stroke-width:0.0212; stroke-opacity:1; 
stroke-linecap:round; stroke-linejoin:round;">
</g>
<g style="fill:#000000; fill-opacity:1.0000; 
stroke:#000000; stroke-width:0.0000; stroke-opacity:1; 
stroke-linecap:round; stroke-linejoin:round;">
<circle cx="123.1392" cy="84.4042" r="0.4000" /> 
</g>
<g style="fill:#000000; fill-opacity:1.0000; 
stroke:#000000; stroke-width:0.0212; stroke-opacity:1; 
stroke-linecap:round; stroke-linejoin:round;">
</g>
<g style="fill:#000000; fill-opacity:1.0000; 
stroke:#000000; stroke-width:0.0000; stroke-opacity:1; 
stroke-linecap:round; stroke-linejoin:round;">
<circle cx="162.7632" cy="70.0024" r="0.4000" /> 
</g>
<g style="fill:#000000; fill-opacity:1.0000; 
stroke:#000000; stroke-width:0.0212; stroke-opacity:1; 
stroke-linecap:round; stroke-linejoin:round;">
</g>
<g style="fill:#000000; fill-opacity:1.0000; 
stroke:#000000; stroke-width:0.0000; stroke-opacity:1; 
stroke-linecap:round; stroke-linejoin:round;">
<circle cx="155.0416" cy="70.0786" r="0.4000" /> 
</g>
<g style="fill:#000000; fill-opacity:1.0000; 
stroke:#000000; stroke-width:0.0212; stroke-opacity:1; 
stroke-linecap:round; stroke-linejoin:round;">
</g>
<g style="fill:#000000; fill-opacity:1.0000; 
stroke:#000000; stroke-width:0.0000; stroke-opacity:1; 
stroke-linecap:round; stroke-linejoin:round;">
<circle cx="160.6804" cy="81.1530" r="0.4000" /> 
</g>
<g style="fill:#000000; fill-opacity:1.0000; 
stroke:#000000; stroke-width:0.0212; stroke-opacity:1; 
stroke-linecap:round; stroke-linejoin:round;">
</g>
<g style="fill:#000000; fill-opacity:1.0000; 
stroke:#000000; stroke-width:0.0000; stroke-opacity:1; 
stroke-linecap:round; stroke-linejoin:round;">
<circle cx="166.8780" cy="88.7730" r="0.4000" /> 
</g>
<g style="fill:#000000; fill-opacity:1.0000; 
stroke:#000000; stroke-width:0.0212; stroke-opacity:1; 
stroke-linecap:round; stroke-linejoin:round;">
</g>
<g style="fill:#000000; fill-opacity:1.0000; 
stroke:#000000; stroke-width:0.0000; stroke-opacity:1; 
stroke-linecap:round; stroke-linejoin:round;">
<circle cx="160.5534" cy="86.2330" r="0.4000" /> 
</g>
<g style="fill:#000000; fill-opacity:1.0000; 
stroke:#000000; stroke-width:0.0212; stroke-opacity:1; 
stroke-linecap:round; stroke-linejoin:round;">
</g>
<g style="fill:#000000; fill-opacity:1.0000; 
stroke:#000000; stroke-width:0.0000; stroke-opacity:1; 
stroke-linecap:round; stroke-linejoin:round;">
<circle cx="167.2336" cy="93.5228" r="0.4000" /> 
</g>
<g style="fill:#000000; fill-opacity:1.0000; 
stroke:#000000; stroke-width:0.0212; stroke-opacity:1; 
stroke-linecap:round; stroke-linejoin:round;">
</g>
<g style="fill:#000000; fill-opacity:1.0000; 
stroke:#000000; stroke-width:0.0000; stroke-opacity:1; 
stroke-linecap:round; stroke-linejoin:round;">
<circle cx="165.0492" cy="90.4494" r="0.4000" /> 
</g>
<g style="fill:#000000; fill-opacity:1.0000; 
stroke:#000000; stroke-width:0.0212; stroke-opacity:1; 
stroke-linecap:round; stroke-linejoin:round;">
</g>
<g style="fill:#000000; fill-opacity:1.0000; 
stroke:#000000; stroke-width:0.0000; stroke-opacity:1; 
stroke-linecap:round; stroke-linejoin:round;">
<circle cx="165.7350" cy="80.1624" r="0.4000" /> 
</g>
<g style="fill:#000000; fill-opacity:1.0000; 
stroke:#000000; stroke-width:0.0212; stroke-opacity:1; 
stroke-linecap:round; stroke-linejoin:round;">
</g>
<g style="fill:#000000; fill-opacity:1.0000; 
stroke:#000000; stroke-width:0.0000; stroke-opacity:1; 
stroke-linecap:round; stroke-linejoin:round;">
<circle cx="170.4594" cy="80.4164" r="0.4000" /> 
</g>
<g style="fill:#000000; fill-opacity:1.0000; 
stroke:#000000; stroke-width:0.0212; stroke-opacity:1; 
stroke-linecap:round; stroke-linejoin:round;">
</g>
<g style="fill:#000000; fill-opacity:1.0000; 
stroke:#000000; stroke-width:0.0000; stroke-opacity:1; 
stroke-linecap:round; stroke-linejoin:round;">
<circle cx="172.3898" cy="88.1380" r="0.4000" /> 
</g>
<g style="fill:#000000; fill-opacity:1.0000; 
stroke:#000000; stroke-width:0.0212; stroke-opacity:1; 
stroke-linecap:round; stroke-linejoin:round;">
</g>
<g style="fill:#000000; fill-opacity:1.0000; 
stroke:#000000; stroke-width:0.0000; stroke-opacity:1; 
stroke-linecap:round; stroke-linejoin:round;">
<circle cx="170.5610" cy="90.6780" r="0.4000" /> 
</g>
<g style="fill:#000000; fill-opacity:1.0000; 
stroke:#000000; stroke-width:0.0212; stroke-opacity:1; 
stroke-linecap:round; stroke-linejoin:round;">
</g>
<g style="fill:#000000; fill-opacity:1.0000; 
stroke:#000000; stroke-width:0.0000; stroke-opacity:1; 
stroke-linecap:round; stroke-linejoin:round;">
<circle cx="156.8958" cy="87.5538" r="0.4000" /> 
</g>
<g style="fill:#000000; fill-opacity:1.0000; 
stroke:#000000; stroke-width:0.0212; stroke-opacity:1; 
stroke-linecap:round; stroke-linejoin:round;">
</g>
<g style="fill:#000000; fill-opacity:1.0000; 
stroke:#000000; stroke-width:0.0000; stroke-opacity:1; 
stroke-linecap:round; stroke-linejoin:round;">
<circle cx="156.1592" cy="88.3920" r="0.4000" /> 
</g>
<g style="fill:#000000; fill-opacity:1.0000; 
stroke:#000000; stroke-width:0.0212; stroke-opacity:1; 
stroke-linecap:round; stroke-linejoin:round;">
</g>
<g style="fill:#000000; fill-opacity:1.0000; 
stroke:#000000; stroke-width:0.0000; stroke-opacity:1; 
stroke-linecap:round; stroke-linejoin:round;">
<circle cx="156.2862" cy="91.6940" r="0.4000" /> 
</g>
<g style="fill:#000000; fill-opacity:1.0000; 
stroke:#000000; stroke-width:0.0212; stroke-opacity:1; 
stroke-linecap:round; stroke-linejoin:round;">
</g>
<g style="fill:#000000; fill-opacity:1.0000; 
stroke:#000000; stroke-width:0.0000; stroke-opacity:1; 
stroke-linecap:round; stroke-linejoin:round;">
<circle cx="155.0670" cy="88.5952" r="0.4000" /> 
</g>
<g style="fill:#000000; fill-opacity:1.0000; 
stroke:#000000; stroke-width:0.0212; stroke-opacity:1; 
stroke-linecap:round; stroke-linejoin:round;">
</g>
<g style="fill:#000000; fill-opacity:1.0000; 
stroke:#000000; stroke-width:0.0000; stroke-opacity:1; 
stroke-linecap:round; stroke-linejoin:round;">
<circle cx="152.6794" cy="88.3158" r="0.4000" /> 
</g>
<g style="fill:#000000; fill-opacity:1.0000; 
stroke:#000000; stroke-width:0.0212; stroke-opacity:1; 
stroke-linecap:round; stroke-linejoin:round;">
</g>
<g style="fill:#000000; fill-opacity:1.0000; 
stroke:#000000; stroke-width:0.0000; stroke-opacity:1; 
stroke-linecap:round; stroke-linejoin:round;">
<circle cx="152.0698" cy="87.2236" r="0.4000" /> 
</g>
<g style="fill:#000000; fill-opacity:1.0000; 
stroke:#000000; stroke-width:0.0212; stroke-opacity:1; 
stroke-linecap:round; stroke-linejoin:round;">
</g>
<g style="fill:#000000; fill-opacity:1.0000; 
stroke:#000000; stroke-width:0.0000; stroke-opacity:1; 
stroke-linecap:round; stroke-linejoin:round;">
<circle cx="151.6891" cy="85.8520" r="0.4000" /> 
</g>
<g style="fill:#000000; fill-opacity:1.0000; 
stroke:#000000; stroke-width:0.0212; stroke-opacity:1; 
stroke-linecap:round; stroke-linejoin:round;">
</g>
<g style="fill:#000000; fill-opacity:1.0000; 
stroke:#000000; stroke-width:0.0000; stroke-opacity:1; 
stroke-linecap:round; stroke-linejoin:round;">
<circle cx="150.1394" cy="81.8896" r="0.4000" /> 
</g>
<g style="fill:#000000; fill-opacity:1.0000; 
stroke:#000000; stroke-width:0.0212; stroke-opacity:1; 
stroke-linecap:round; stroke-linejoin:round;">
</g>
<g style="fill:#000000; fill-opacity:1.0000; 
stroke:#000000; stroke-width:0.0000; stroke-opacity:1; 
stroke-linecap:round; stroke-linejoin:round;">
<circle cx="148.5951" cy="85.3897" r="0.4000" /> 
</g>
<g style="fill:#000000; fill-opacity:1.0000; 
stroke:#000000; stroke-width:0.0212; stroke-opacity:1; 
stroke-linecap:round; stroke-linejoin:round;">
</g>
<g style="fill:#000000; fill-opacity:1.0000; 
stroke:#000000; stroke-width:0.0000; stroke-opacity:1; 
stroke-linecap:round; stroke-linejoin:round;">
<circle cx="155.9560" cy="85.7758" r="0.4000" /> 
</g>
<g style="fill:#000000; fill-opacity:1.0000; 
stroke:#000000; stroke-width:0.0212; stroke-opacity:1; 
stroke-linecap:round; stroke-linejoin:round;">
</g>
<g >
</g>
<g >
</g>
<g style="fill:#000000; fill-opacity:1.0000; 
stroke:#000000; stroke-width:0.0212; stroke-opacity:1; 
stroke-linecap:round; stroke-linejoin:round;">
<g >
</g>
<g style="fill:#000000; fill-opacity:1.0000; 
stroke:#000000; stroke-width:0.0000; stroke-opacity:1; 
stroke-linecap:round; stroke-linejoin:round;">
<path style="fill:#000000; fill-opacity:1.0000; 
stroke:#000000; stroke-width:0.0000; stroke-opacity:1; 
stroke-linecap:round; stroke-linejoin:round;fill-rule:evenodd;"
d="M 181.9166,65.7455
181.9631,65.7992
181.9745,65.8515
181.9745,101.1485
181.9545,101.2166
181.9008,101.2631
181.8485,101.2745
119.1515,101.2745
119.0834,101.2545
119.0369,101.2008
119.0255,101.1485
119.0255,98.6632
139.7639,98.6632
139.7704,98.7238
139.7704,98.7238
139.8215,98.8608
139.8215,98.8608
139.9091,98.9779
140.0262,99.0655
140.0262,99.0655
140.0262,99.0655
140.0813,99.0860
140.1632,99.1166
140.1632,99.1166
140.2237,99.1231
140.2238,99.1231
140.2238,99.1231
140.2238,99.1231
142.0210,99.1231
142.0210,99.1231
142.0210,99.1231
142.0210,99.1231
142.0816,99.1166
142.0816,99.1166
142.0816,99.1166
142.0954,99.1114
142.1004,99.1096
142.2186,99.0655
142.2549,99.0383
142.3357,98.9779
142.4233,98.8608
142.4233,98.8608
142.4233,98.8608
142.4674,98.7425
142.5099,98.6857
142.5765,98.6609
142.6458,98.6760
142.6782,98.7012
142.6989,98.7238
142.7392,98.7675
142.7718,98.7929
142.9168,98.9058
143.1148,99.0129
143.1148,99.0129
143.1148,99.0129
143.2266,99.0513
143.3278,99.0860
143.5498,99.1231
143.5498,99.1231
143.7750,99.1231
143.7750,99.1231
143.9970,99.0860
144.2100,99.0129
144.4080,98.9058
144.5856,98.7675
144.7381,98.6019
144.8269,98.4660
144.8809,98.4199
144.9513,98.4103
145.0156,98.4403
145.0379,98.4660
145.0466,98.4794
145.1267,98.6019
145.1267,98.6019
145.2792,98.7675
145.3118,98.7929
145.4568,98.9058
145.6548,99.0129
145.6548,99.0129
145.6548,99.0129
145.7666,99.0513
145.8678,99.0860
146.0898,99.1231
146.0898,99.1231
146.3150,99.1231
146.3150,99.1231
146.5370,99.0860
146.7500,99.0129
146.9480,98.9058
147.1256,98.7675
147.2781,98.6019
147.4013,98.4134
147.4917,98.2072
147.5470,97.9890
147.5635,97.7900
150.5288,97.7900
150.5453,97.9890
150.5474,98.0144
150.6027,98.2326
150.6027,98.2326
150.6027,98.2326
150.6848,98.4199
150.6931,98.4388
150.8163,98.6273
150.8163,98.6273
150.9688,98.7929
150.9923,98.8112
151.1464,98.9312
151.3444,99.0383
151.3444,99.0383
151.3444,99.0383
151.4562,99.0767
151.5574,99.1114
151.7794,99.1485
151.7794,99.1485
152.0046,99.1485
152.0046,99.1485
152.2266,99.1114
152.4396,99.0383
152.6376,98.9312
152.8152,98.7929
152.9677,98.6273
153.0565,98.4914
153.1105,98.4453
153.1809,98.4357
153.2452,98.4657
153.2675,98.4914
153.2907,98.5269
153.3563,98.6273
153.3563,98.6273
153.5088,98.7929
153.5323,98.8112
153.6864,98.9312
153.8844,99.0383
153.8844,99.0383
153.8844,99.0383
153.9962,99.0767
154.0974,99.1114
154.3194,99.1485
154.3194,99.1485
154.5446,99.1485
154.5446,99.1485
154.7666,99.1114
154.9796,99.0383
155.1776,98.9312
155.3552,98.7929
155.5077,98.6273
155.6309,98.4388
155.7213,98.2326
155.7766,98.0144
155.7825,97.9424
166.3455,97.9424
166.3655,98.1323
166.3898,98.2072
166.4245,98.3140
166.4245,98.3140
166.5200,98.4793
166.5200,98.4794
166.6477,98.6213
166.6477,98.6213
166.8022,98.7335
166.9767,98.8112
167.1635,98.8509
167.3545,98.8509
167.5413,98.8112
167.7158,98.7335
167.8703,98.6213
167.9552,98.5269
167.9980,98.4794
167.9980,98.4793
167.9980,98.4793
168.0935,98.3140
168.1525,98.1323
168.1725,97.9424
168.1525,97.7525
168.0935,97.5708
167.9980,97.4055
167.9980,97.4055
167.9980,97.4054
167.8703,97.2635
167.7158,97.1513
167.5413,97.0736
167.3545,97.0339
167.1635,97.0339
166.9767,97.0736
166.8022,97.1513
166.6477,97.2635
166.5200,97.4054
166.5200,97.4055
166.4245,97.5708
166.4245,97.5708
166.3655,97.7525
166.3455,97.9424
155.7825,97.9424
155.7952,97.7900
155.7766,97.5656
155.7590,97.4961
155.7213,97.3474
155.7213,97.3474
155.7213,97.3474
155.6309,97.1412
155.6143,97.1158
155.5386,97.0000
175.3946,97.0000
175.4037,97.1158
175.4143,97.2511
175.4731,97.4961
175.4731,97.4961
175.5695,97.7289
175.7004,97.9424
175.7012,97.9437
175.7012,97.9437
175.8648,98.1352
176.0563,98.2988
176.0563,98.2988
176.2711,98.4305
176.5039,98.5269
176.7489,98.5857
176.9012,98.5977
176.9371,98.6005
176.9371,98.6005
177.0629,98.6005
177.0967,98.5978
177.2511,98.5857
177.4961,98.5269
177.7289,98.4305
177.9437,98.2988
178.1352,98.1352
178.2988,97.9437
178.4305,97.7289
178.5269,97.4961
178.5857,97.2511
178.6054,97.0000
178.5857,96.7489
178.5269,96.5039
178.4305,96.2711
178.2988,96.0563
178.1875,95.9260
178.1352,95.8648
177.9437,95.7012
177.9437,95.7012
177.9437,95.7012
177.7289,95.5695
177.6612,95.5415
177.4961,95.4731
177.3285,95.4329
177.2511,95.4143
177.2041,95.4106
177.0629,95.3995
177.0629,95.3995
176.9371,95.3995
176.9371,95.3995
176.7489,95.4143
176.5039,95.4731
176.2711,95.5695
176.0563,95.7012
176.0563,95.7012
175.8648,95.8648
175.7012,96.0563
175.7012,96.0563
175.5695,96.2711
175.4731,96.5039
175.4180,96.7335
175.4143,96.7489
175.3946,97.0000
155.5386,97.0000
155.5077,96.9527
155.5077,96.9527
155.3552,96.7871
155.2470,96.7029
155.1776,96.6488
155.1443,96.6308
155.0939,96.5808
155.0786,96.5115
155.1031,96.4449
155.1443,96.4092
155.1493,96.4065
155.1776,96.3912
155.3552,96.2529
155.5077,96.0873
155.6309,95.8988
155.7213,95.6926
155.7766,95.4744
155.7952,95.2500
155.7766,95.0256
155.7231,94.8147
155.7213,94.8074
155.7213,94.8074
155.7213,94.8074
155.6309,94.6012
155.6163,94.5789
155.5077,94.4127
155.5077,94.4127
155.3552,94.2471
155.2354,94.1538
155.1776,94.1088
154.9796,94.0017
154.9796,94.0017
154.9796,94.0017
154.7666,93.9286
154.7666,93.9286
154.7225,93.9212
154.5446,93.8915
154.3194,93.8915
154.1712,93.9162
154.0974,93.9286
154.0974,93.9286
153.8844,94.0017
153.8844,94.0017
153.6864,94.1088
153.6864,94.1088
153.5088,94.2471
153.4478,94.3134
153.3869,94.3499
153.3159,94.3478
153.2574,94.3076
153.2370,94.2721
153.1929,94.1538
153.1929,94.1538
153.1053,94.0367
152.9882,93.9491
152.9882,93.9491
152.8512,93.8980
152.8512,93.8980
152.7906,93.8915
152.7906,93.8915
150.9934,93.8915
150.9933,93.8915
150.9328,93.8980
150.9328,93.8980
150.7958,93.9491
150.7958,93.9491
150.6787,94.0367
150.5911,94.1538
150.5911,94.1538
150.5400,94.2908
150.5400,94.2908
150.5335,94.3513
150.5335,96.1486
150.5400,96.2092
150.5400,96.2092
150.5911,96.3462
150.5911,96.3462
150.6787,96.4633
150.7958,96.5509
150.7958,96.5509
150.7958,96.5509
150.9108,96.5938
150.9676,96.6363
150.9925,96.7029
150.9774,96.7722
150.9595,96.7972
150.8163,96.9527
150.8163,96.9527
150.6931,97.1412
150.6027,97.3474
150.6027,97.3474
150.5474,97.5656
150.5474,97.5656
150.5474,97.5656
150.5288,97.7900
147.5635,97.7900
147.5656,97.7646
147.5470,97.5402
147.4917,97.3220
147.4013,97.1158
147.3839,97.0892
147.2781,96.9273
147.2781,96.9273
147.1583,96.7972
147.1256,96.7617
147.1256,96.7617
147.1256,96.7617
146.9988,96.6630
146.9480,96.6234
146.9147,96.6054
146.8643,96.5554
146.8490,96.4861
146.8735,96.4195
146.9147,96.3838
146.9480,96.3658
147.1256,96.2275
147.2781,96.0619
147.4013,95.8734
147.4917,95.6672
147.5470,95.4490
147.5656,95.2246
147.5470,95.0002
147.4917,94.7822
147.4917,94.7820
147.4917,94.7820
147.4917,94.7820
147.4013,94.5758
147.3840,94.5494
147.2781,94.3873
147.2781,94.3873
147.1620,94.2612
147.1256,94.2217
147.1256,94.2217
147.1256,94.2217
147.0384,94.1538
146.9480,94.0834
146.7500,93.9763
146.7500,93.9763
146.7500,93.9763
146.5370,93.9032
146.5370,93.9032
146.4843,93.8944
146.3150,93.8661
146.0898,93.8661
145.9454,93.8902
145.8678,93.9032
145.8678,93.9032
145.6548,93.9763
145.6548,93.9763
145.5006,94.0597
145.4568,94.0834
145.4568,94.0834
145.2792,94.2217
145.1267,94.3873
145.0379,94.5232
144.9839,94.5693
144.9135,94.5789
144.8492,94.5489
144.8269,94.5232
144.7381,94.3873
144.6220,94.2612
144.5856,94.2217
144.5856,94.2217
144.5856,94.2217
144.4984,94.1538
144.4080,94.0834
144.2100,93.9763
144.2100,93.9763
144.2100,93.9763
143.9970,93.9032
143.9970,93.9032
143.9443,93.8944
143.7750,93.8661
143.5498,93.8661
143.4054,93.8902
143.3278,93.9032
143.3278,93.9032
143.1148,93.9763
143.1148,93.9763
142.9606,94.0597
142.9168,94.0834
142.9168,94.0834
142.7392,94.2217
142.5867,94.3873
142.4976,94.5237
142.4436,94.5698
142.3732,94.5794
142.3089,94.5494
142.2866,94.5237
142.1977,94.3876
142.0453,94.2221
141.8677,94.0838
141.8677,94.0838
141.6698,93.9767
141.6698,93.9767
141.4569,93.9036
141.4569,93.9036
141.3764,93.8902
141.3764,94.7909
141.2647,94.7399
141.1582,94.7246
141.0866,94.7246
140.9801,94.7399
140.8684,94.7909
140.8684,93.8902
140.8684,93.8902
140.7879,93.9036
140.7879,93.9036
140.5750,93.9767
140.5750,93.9767
140.3771,94.0838
140.3771,94.0838
140.1995,94.2221
140.0471,94.3876
139.9240,94.5761
139.8336,94.7821
139.8336,94.7822
139.7859,94.9706
139.7859,94.9706
140.6913,94.9706
140.6629,95.0148
140.6224,95.1527
140.6224,95.2965
140.6629,95.4344
140.6913,95.4786
139.7859,95.4786
139.8336,95.6670
139.8336,95.6671
139.9240,95.8731
140.0471,96.0616
140.1904,96.2172
140.2218,96.2809
140.2138,96.3514
140.1690,96.4065
140.1417,96.4206
140.0262,96.4637
140.0262,96.4637
139.9091,96.5513
139.8215,96.6684
139.8215,96.6684
139.7704,96.8054
139.7704,96.8054
139.7639,96.8659
139.7639,98.6632
119.0255,98.6632
119.0255,97.0000
121.3946,97.0000
121.4037,97.1158
121.4143,97.2511
121.4731,97.4961
121.4731,97.4961
121.5695,97.7289
121.7004,97.9424
121.7012,97.9437
121.7012,97.9437
121.8648,98.1352
122.0563,98.2988
122.0563,98.2988
122.2711,98.4305
122.5039,98.5269
122.7489,98.5857
122.9012,98.5977
122.9371,98.6005
122.9371,98.6005
123.0629,98.6005
123.0967,98.5978
123.2511,98.5857
123.4961,98.5269
123.7289,98.4305
123.9437,98.2988
124.1352,98.1352
124.2988,97.9437
124.4305,97.7289
124.5269,97.4961
124.5857,97.2511
124.6054,97.0000
124.5857,96.7489
124.5269,96.5039
124.4305,96.2711
124.2988,96.0563
124.1875,95.9260
124.1352,95.8648
123.9437,95.7012
123.9437,95.7012
123.9437,95.7012
123.7289,95.5695
123.6612,95.5415
123.4961,95.4731
123.3285,95.4329
123.2511,95.4143
123.2041,95.4106
123.0629,95.3995
123.0629,95.3995
122.9371,95.3995
122.9371,95.3995
122.7489,95.4143
122.5039,95.4731
122.2711,95.5695
122.0563,95.7012
122.0563,95.7012
121.8648,95.8648
121.7012,96.0563
121.7012,96.0563
121.5695,96.2711
121.4731,96.5039
121.4180,96.7335
121.4143,96.7489
121.3946,97.0000
119.0255,97.0000
119.0255,95.3516
129.8965,95.3516
129.9165,95.5415
129.9465,95.6341
129.9755,95.7232
129.9755,95.7232
130.0710,95.8885
130.0710,95.8886
130.1987,96.0305
130.1987,96.0305
130.3532,96.1427
130.5277,96.2204
130.7145,96.2601
130.9055,96.2601
131.0923,96.2204
131.2668,96.1427
131.4213,96.0305
131.5385,95.9003
131.5490,95.8886
131.5490,95.8885
131.5490,95.8885
131.6445,95.7232
131.7035,95.5415
131.7235,95.3516
131.7035,95.1617
131.6445,94.9800
131.5490,94.8147
131.5490,94.8147
131.5490,94.8146
131.4213,94.6727
131.2668,94.5605
131.0923,94.4828
130.9055,94.4431
130.7145,94.4431
130.5277,94.4828
130.3532,94.5605
130.1987,94.6727
130.0710,94.8146
130.0710,94.8147
129.9755,94.9800
129.9755,94.9800
129.9642,95.0148
129.9165,95.1617
129.8965,95.3516
119.0255,95.3516
119.0255,93.5228
166.3201,93.5228
166.3401,93.7127
166.3701,93.8053
166.3991,93.8944
166.3991,93.8944
166.4946,94.0597
166.4946,94.0598
166.6223,94.2017
166.6223,94.2017
166.7768,94.3139
166.9513,94.3916
167.1381,94.4313
167.3291,94.4313
167.5159,94.3916
167.6904,94.3139
167.8449,94.2017
167.8449,94.2017
167.9726,94.0598
167.9726,94.0597
167.9726,94.0597
168.0681,93.8944
168.1271,93.7127
168.1471,93.5228
168.1271,93.3329
168.0681,93.1512
167.9726,92.9859
167.9726,92.9859
167.9726,92.9858
167.8449,92.8439
167.6904,92.7317
167.5159,92.6540
167.3291,92.6143
167.1381,92.6143
166.9513,92.6540
166.7768,92.7317
166.6223,92.8439
166.4946,92.9858
166.4946,92.9859
166.3991,93.1512
166.3991,93.1512
166.3401,93.3329
166.3201,93.5228
119.0255,93.5228
119.0255,90.9066
124.4355,90.9066
124.4555,91.0965
124.4808,91.1744
124.5145,91.2782
124.5145,91.2782
124.6100,91.4435
124.6100,91.4436
124.7377,91.5855
124.7377,91.5855
124.8922,91.6977
125.0667,91.7754
125.2535,91.8151
125.4445,91.8151
125.6313,91.7754
125.8058,91.6977
125.8109,91.6940
155.3727,91.6940
155.3927,91.8839
155.4227,91.9765
155.4517,92.0656
155.4517,92.0656
155.5472,92.2309
155.5472,92.2310
155.6749,92.3729
155.6749,92.3729
155.8294,92.4851
156.0039,92.5628
156.1907,92.6025
156.3817,92.6025
156.5685,92.5628
156.7430,92.4851
156.8975,92.3729
157.0252,92.2309
157.1207,92.0656
157.1797,91.8839
157.1997,91.6940
157.1797,91.5041
157.1207,91.3224
157.0252,91.1571
157.0252,91.1571
157.0252,91.1570
156.8975,91.0151
156.7430,90.9029
156.5685,90.8252
156.3817,90.7855
156.1907,90.7855
156.0039,90.8252
155.8294,90.9029
155.6749,91.0151
155.5472,91.1570
155.5472,91.1571
155.4517,91.3224
155.4517,91.3224
155.3927,91.5041
155.3727,91.6940
125.8109,91.6940
125.9603,91.5855
125.9603,91.5855
126.0880,91.4436
126.0880,91.4435
126.0880,91.4435
126.1835,91.2782
126.2425,91.0965
126.2625,90.9066
126.2425,90.7167
126.1835,90.5350
126.0880,90.3697
126.0880,90.3697
126.0880,90.3696
125.9603,90.2277
125.8058,90.1155
125.6313,90.0378
125.4445,89.9981
125.2535,89.9981
125.0667,90.0378
124.8922,90.1155
124.7377,90.2277
124.6100,90.3696
124.6100,90.3697
124.5145,90.5350
124.5145,90.5350
124.4555,90.7167
124.4355,90.9066
119.0255,90.9066
119.0255,89.9160
139.6068,89.9160
139.6169,90.0378
139.6254,90.1404
139.6807,90.3586
139.6807,90.3586
139.6807,90.3586
139.7447,90.5046
139.7711,90.5648
139.8943,90.7533
139.8943,90.7533
139.9566,90.8210
140.0354,90.9066
140.0468,90.9189
140.1013,90.9614
140.2244,91.0572
140.4224,91.1643
140.4224,91.1643
140.4224,91.1643
140.4518,91.1744
140.6354,91.2374
140.8574,91.2745
140.8574,91.2745
141.0826,91.2745
141.0826,91.2745
141.3046,91.2374
141.5176,91.1643
141.7156,91.0572
141.8932,90.9189
142.0457,90.7533
142.1689,90.5648
142.2195,90.4494
164.1357,90.4494
164.1557,90.6393
164.1682,90.6780
164.2147,90.8210
164.2147,90.8210
164.3102,90.9863
164.3102,90.9864
164.4379,91.1283
164.4992,91.1728
164.5924,91.2405
164.7669,91.3182
164.9537,91.3579
165.1447,91.3579
165.3315,91.3182
165.5060,91.2405
165.6605,91.1283
165.6890,91.0965
165.7882,90.9864
165.7882,90.9863
165.7882,90.9863
165.8837,90.8210
165.9302,90.6780
169.6475,90.6780
169.6675,90.8679
169.6975,90.9605
169.7265,91.0496
169.7265,91.0496
169.8220,91.2149
169.8220,91.2150
169.9497,91.3569
169.9497,91.3569
170.1042,91.4691
170.2787,91.5468
170.4655,91.5865
170.6565,91.5865
170.8433,91.5468
171.0178,91.4691
171.1723,91.3569
171.2033,91.3224
171.3000,91.2150
171.3000,91.2149
171.3000,91.2149
171.3955,91.0496
171.4545,90.8679
171.4745,90.6780
171.4545,90.4881
171.3955,90.3064
171.3000,90.1411
171.3000,90.1411
171.3000,90.1410
171.1723,89.9991
171.0178,89.8869
170.8433,89.8092
170.6565,89.7695
170.4655,89.7695
170.2787,89.8092
170.1042,89.8869
169.9497,89.9991
169.8220,90.1410
169.8220,90.1411
169.7265,90.3064
169.7265,90.3064
169.6675,90.4881
169.6475,90.6780
165.9302,90.6780
165.9427,90.6393
165.9627,90.4494
165.9427,90.2595
165.8837,90.0778
165.7882,89.9125
165.7882,89.9125
165.7882,89.9124
165.6605,89.7705
165.5060,89.6583
165.3315,89.5806
165.1447,89.5409
164.9537,89.5409
164.7669,89.5806
164.5924,89.6583
164.4379,89.7705
164.3102,89.9124
164.3102,89.9125
164.2147,90.0778
164.2147,90.0778
164.1557,90.2595
164.1357,90.4494
142.2195,90.4494
142.2593,90.3586
142.3146,90.1404
142.3332,89.9160
142.3146,89.6916
142.2823,89.5641
142.2593,89.4734
142.2593,89.4734
142.2593,89.4734
142.1689,89.2672
142.1149,89.1846
142.0457,89.0787
142.0457,89.0787
141.9080,88.9291
141.8932,88.9131
141.8932,88.9131
141.8932,88.9131
141.8114,88.8494
141.7156,88.7748
141.6823,88.7568
141.6319,88.7068
141.6166,88.6375
141.6411,88.5709
141.6823,88.5352
141.7156,88.5172
141.8932,88.3789
142.0457,88.2133
142.1689,88.0248
142.2593,87.8186
142.3146,87.6004
142.3332,87.3760
142.3146,87.1516
142.2922,87.0634
142.2593,86.9334
142.2593,86.9334
142.2593,86.9334
142.1689,86.7272
142.1424,86.6867
142.0457,86.5387
142.0457,86.5387
141.9121,86.3936
141.8932,86.3731
141.8932,86.3731
141.8932,86.3731
141.7970,86.2982
141.7156,86.2348
141.6823,86.2168
141.6319,86.1668
141.6166,86.0975
141.6411,86.0309
141.6823,85.9952
141.7156,85.9772
141.8932,85.8389
142.0457,85.6733
142.1689,85.4848
142.2593,85.2786
142.3135,85.0646
143.9173,85.0646
143.9373,85.2545
143.9600,85.3245
143.9963,85.4362
143.9963,85.4362
144.0918,85.6015
144.0918,85.6016
144.2195,85.7435
144.2808,85.7880
144.3740,85.8557
144.5485,85.9334
144.7353,85.9731
144.9263,85.9731
145.1131,85.9334
145.2876,85.8557
145.4421,85.7435
145.4421,85.7435
145.5698,85.6016
145.5698,85.6015
145.5698,85.6015
145.6653,85.4362
145.6804,85.3897
147.6816,85.3897
147.7016,85.5796
147.7284,85.6621
147.7606,85.7612
147.7606,85.7612
147.8561,85.9266
147.8561,85.9266
147.9839,86.0686
148.0354,86.1060
148.1384,86.1808
148.3128,86.2585
148.4996,86.2982
148.6906,86.2982
148.8774,86.2585
149.0519,86.1808
149.2064,86.0686
149.2989,85.9657
149.3341,85.9266
149.3341,85.9266
149.3342,85.9266
149.3772,85.8520
150.7756,85.8520
150.7956,86.0419
150.8164,86.1060
150.8546,86.2236
150.8546,86.2236
150.9501,86.3889
150.9501,86.3890
151.0778,86.5309
151.2276,86.6397
151.2710,86.6959
151.2770,86.7666
151.2627,86.8046
151.2353,86.8520
151.2353,86.8520
151.1763,87.0337
151.1563,87.2236
151.1763,87.4135
151.1960,87.4742
151.2353,87.5952
151.2353,87.5952
151.3308,87.7605
151.3308,87.7606
151.4585,87.9025
151.4585,87.9025
151.6130,88.0147
151.7057,88.0560
151.7598,88.1019
151.7804,88.1699
151.7797,88.1842
151.7659,88.3158
151.7859,88.5057
151.8070,88.5709
151.8449,88.6874
151.8449,88.6874
151.9404,88.8527
151.9404,88.8528
152.0681,88.9947
152.0681,88.9947
152.2226,89.1069
152.3971,89.1846
152.5839,89.2243
152.7749,89.2243
152.9617,89.1846
153.1362,89.1069
153.2907,88.9947
153.3498,88.9290
153.4184,88.8528
153.4184,88.8527
153.4184,88.8527
153.5139,88.6874
153.5439,88.5952
154.1535,88.5952
154.1735,88.7851
154.1838,88.8169
154.2325,88.9668
154.2325,88.9668
154.3280,89.1321
154.3280,89.1322
154.4557,89.2741
154.5051,89.3099
154.6102,89.3863
154.7847,89.4640
154.9715,89.5037
155.1625,89.5037
155.3493,89.4640
155.5238,89.3863
155.6783,89.2741
155.6824,89.2695
155.7428,89.2322
155.8138,89.2336
155.8273,89.2387
155.8769,89.2608
155.9394,89.2741
156.0637,89.3005
156.2547,89.3005
156.4415,89.2608
156.6160,89.1831
156.7705,89.0709
156.8391,88.9947
156.8982,88.9290
156.8982,88.9289
156.8982,88.9289
156.9883,88.7730
165.9645,88.7730
165.9845,88.9629
165.9987,89.0068
166.0435,89.1446
166.0435,89.1446
166.1390,89.3099
166.1390,89.3100
166.2667,89.4519
166.2964,89.4734
166.4212,89.5641
166.5957,89.6418
166.7825,89.6815
166.9735,89.6815
167.1603,89.6418
167.3348,89.5641
167.4893,89.4519
167.5278,89.4091
167.6170,89.3100
167.6170,89.3099
167.6170,89.3099
167.7125,89.1446
167.7715,88.9629
167.7915,88.7730
167.7715,88.5831
167.7125,88.4014
167.6170,88.2361
167.6170,88.2361
167.6170,88.2360
167.5288,88.1380
171.4763,88.1380
171.4963,88.3279
171.5201,88.4014
171.5553,88.5096
171.5553,88.5096
171.6508,88.6749
171.6508,88.6750
171.7785,88.8169
171.7785,88.8169
171.7785,88.8169
171.9330,88.9291
172.1075,89.0068
172.2943,89.0465
172.4853,89.0465
172.6721,89.0068
172.8466,88.9291
173.0011,88.8169
173.0011,88.8169
173.0011,88.8169
173.0306,88.7840
175.8285,88.7840
175.8484,89.0990
175.8484,89.0990
175.9075,89.4091
175.9075,89.4091
176.0050,89.7093
176.0050,89.7093
176.1394,89.9949
176.1394,89.9949
176.1394,89.9949
176.3086,90.2614
176.5098,90.5046
176.5098,90.5046
176.5098,90.5046
176.5422,90.5350
176.7399,90.7207
176.9426,90.8679
176.9952,90.9062
177.2718,91.0582
177.5653,91.1744
177.8710,91.2529
177.8710,91.2529
177.8710,91.2529
178.0351,91.2737
178.1842,91.2925
178.1842,91.2925
178.4998,91.2925
178.4998,91.2925
178.8130,91.2529
179.1187,91.1744
179.4122,91.0582
179.6888,90.9062
179.9441,90.7207
180.1742,90.5046
180.3754,90.2614
180.3754,90.2614
180.3754,90.2614
180.5173,90.0378
180.5446,89.9949
180.6790,89.7093
180.7765,89.4091
180.8356,89.0990
180.8369,89.0787
180.8555,88.7840
180.8555,88.7840
180.8356,88.4690
180.8356,88.4690
180.8313,88.4462
180.7765,88.1589
180.7080,87.9481
180.6790,87.8587
180.6790,87.8587
180.6601,87.8186
180.5446,87.5731
180.5446,87.5731
180.3754,87.3066
180.1742,87.0634
180.1246,87.0169
179.9491,86.8520
179.9441,86.8473
179.6888,86.6618
179.5846,86.6046
179.4122,86.5098
179.1187,86.3936
178.8130,86.3151
178.8130,86.3151
178.8130,86.3151
178.8130,86.3151
178.4998,86.2755
178.4998,86.2755
178.4998,86.2755
178.1842,86.2755
178.1842,86.2755
178.1842,86.2755
177.8710,86.3151
177.5653,86.3936
177.5653,86.3936
177.5653,86.3936
177.3978,86.4599
177.2718,86.5098
176.9952,86.6618
176.7399,86.8473
176.7399,86.8473
176.5098,87.0634
176.3086,87.3066
176.1394,87.5731
176.1394,87.5731
176.0050,87.8587
176.0050,87.8587
175.9075,88.1589
175.9075,88.1589
175.8484,88.4690
175.8484,88.4690
175.8285,88.7840
175.8285,88.7840
173.0306,88.7840
173.1288,88.6750
173.1288,88.6749
173.1288,88.6749
173.2243,88.5096
173.2833,88.3279
173.3033,88.1380
173.2833,87.9481
173.2243,87.7664
173.1288,87.6011
173.1288,87.6011
173.1288,87.6010
173.0011,87.4591
172.8466,87.3469
172.6721,87.2692
172.4853,87.2295
172.2943,87.2295
172.1075,87.2692
171.9330,87.3469
171.7785,87.4591
171.6508,87.6010
171.6508,87.6011
171.5587,87.7605
171.5553,87.7664
171.5490,87.7857
171.4963,87.9481
171.4763,88.1380
167.5288,88.1380
167.4893,88.0941
167.3348,87.9819
167.1603,87.9042
166.9735,87.8645
166.7825,87.8645
166.5957,87.9042
166.4212,87.9819
166.2667,88.0941
166.1390,88.2360
166.1390,88.2361
166.0435,88.4014
166.0435,88.4014
165.9845,88.5831
165.9645,88.7730
156.9883,88.7730
156.9937,88.7636
157.0527,88.5819
157.0574,88.5372
157.0844,88.4716
157.1427,88.4310
157.1566,88.4272
157.1629,88.4258
157.1781,88.4226
157.1781,88.4226
157.1781,88.4226
157.3526,88.3449
157.5071,88.2327
157.5152,88.2236
157.6348,88.0908
157.6348,88.0907
157.6348,88.0907
157.7303,87.9254
157.7893,87.7437
157.8093,87.5538
157.7893,87.3639
157.7303,87.1822
157.6348,87.0169
157.6348,87.0169
157.6348,87.0168
157.5071,86.8749
157.3526,86.7627
157.1781,86.6850
156.9913,86.6453
156.8003,86.6453
156.6781,86.6713
156.6073,86.6659
156.5506,86.6231
156.5261,86.5564
156.5416,86.4871
156.5632,86.4599
156.5628,86.4596
156.6950,86.3128
156.6950,86.3128
156.6950,86.3127
156.7411,86.2330
159.6399,86.2330
159.6599,86.4229
159.6807,86.4871
159.7189,86.6046
159.7189,86.6046
159.8144,86.7699
159.8144,86.7700
159.9421,86.9119
159.9718,86.9334
160.0966,87.0241
160.2711,87.1018
160.4579,87.1415
160.6489,87.1415
160.8357,87.1018
161.0102,87.0241
161.1647,86.9119
161.2023,86.8700
161.2924,86.7700
161.2924,86.7699
161.2924,86.7699
161.3879,86.6046
161.4469,86.4229
161.4669,86.2330
161.4469,86.0431
161.3879,85.8614
161.2924,85.6961
161.2924,85.6961
161.2924,85.6960
161.1647,85.5541
161.0102,85.4419
160.8357,85.3642
160.6489,85.3245
160.4579,85.3245
160.2711,85.3642
160.0966,85.4419
159.9421,85.5541
159.8144,85.6960
159.8144,85.6961
159.7189,85.8614
159.7189,85.8614
159.6599,86.0431
159.6399,86.2330
156.7411,86.2330
156.7905,86.1474
156.8495,85.9657
156.8695,85.7758
156.8495,85.5859
156.7905,85.4042
156.6950,85.2389
156.6950,85.2389
156.6950,85.2388
156.5673,85.0969
156.4128,84.9847
156.2383,84.9070
156.0515,84.8673
155.8605,84.8673
155.6737,84.9070
155.4992,84.9847
155.3447,85.0969
155.2170,85.2388
155.2170,85.2389
155.1215,85.4042
155.1215,85.4042
155.0625,85.5859
155.0425,85.7758
155.0625,85.9657
155.0925,86.0583
155.1215,86.1474
155.1215,86.1474
155.2170,86.3127
155.2170,86.3128
155.3447,86.4547
155.4060,86.4992
155.4992,86.5669
155.6737,86.6446
155.8605,86.6843
156.0515,86.6843
156.1483,86.6637
156.1737,86.6583
156.2445,86.6637
156.3012,86.7065
156.3257,86.7732
156.3102,86.8425
156.2886,86.8697
156.2890,86.8700
156.1568,87.0168
156.1568,87.0169
156.0613,87.1822
156.0613,87.1822
156.0023,87.3639
155.9976,87.4086
155.9705,87.4742
155.9123,87.5148
155.8985,87.5186
155.8769,87.5232
155.8769,87.5232
155.7024,87.6009
155.5479,87.7131
155.5438,87.7177
155.4834,87.7550
155.4124,87.7536
155.3989,87.7485
155.3493,87.7264
155.1625,87.6867
154.9715,87.6867
154.7847,87.7264
154.6102,87.8041
154.4557,87.9163
154.3280,88.0582
154.3280,88.0583
154.2385,88.2133
154.2325,88.2236
154.2180,88.2682
154.1735,88.4053
154.1535,88.5952
153.5439,88.5952
153.5729,88.5057
153.5929,88.3158
153.5729,88.1259
153.5139,87.9442
153.4184,87.7789
153.4184,87.7789
153.4184,87.7788
153.2907,87.6369
153.1362,87.5247
153.0435,87.4834
152.9894,87.4375
152.9688,87.3695
152.9695,87.3552
152.9833,87.2236
152.9633,87.0337
152.9043,86.8520
152.8088,86.6867
152.8088,86.6867
152.8088,86.6866
152.6811,86.5447
152.5313,86.4359
152.4879,86.3797
152.4819,86.3090
152.4962,86.2710
152.5236,86.2236
152.5236,86.2236
152.5236,86.2236
152.5826,86.0419
152.6026,85.8520
152.5826,85.6621
152.5236,85.4804
152.4281,85.3151
152.4281,85.3151
152.4281,85.3150
152.3004,85.1731
152.1459,85.0609
151.9714,84.9832
151.7846,84.9435
151.5936,84.9435
151.4068,84.9832
151.2323,85.0609
151.0778,85.1731
150.9501,85.3150
150.9501,85.3151
150.8546,85.4804
150.8546,85.4804
150.7956,85.6621
150.7756,85.8520
149.3772,85.8520
149.4296,85.7612
149.4887,85.5796
149.5086,85.3897
149.4887,85.1998
149.4296,85.0181
149.3342,84.8527
149.3341,84.8527
149.3341,84.8527
149.2064,84.7108
149.0519,84.5986
148.8774,84.5209
148.6906,84.4812
148.4996,84.4812
148.3128,84.5209
148.1384,84.5986
147.9839,84.7108
147.8561,84.8527
147.8561,84.8527
147.7606,85.0181
147.7606,85.0181
147.7016,85.1998
147.6816,85.3897
145.6804,85.3897
145.7243,85.2545
145.7443,85.0646
145.7243,84.8747
145.6653,84.6930
145.5698,84.5277
145.5698,84.5277
145.5698,84.5276
145.4421,84.3857
145.2876,84.2735
145.1131,84.1958
144.9263,84.1561
144.7353,84.1561
144.5485,84.1958
144.3740,84.2735
144.2195,84.3857
144.0918,84.5276
144.0918,84.5277
143.9963,84.6930
143.9963,84.6930
143.9373,84.8747
143.9173,85.0646
142.3135,85.0646
142.3146,85.0604
142.3332,84.8360
142.3146,84.6116
142.3146,84.6116
142.2593,84.3934
142.2593,84.3934
142.2593,84.3934
142.1689,84.1872
142.0688,84.0340
172.1685,84.0340
172.1885,84.2621
172.2216,84.3857
172.2477,84.4832
172.2477,84.4832
172.3445,84.6907
172.4733,84.8747
172.4758,84.8783
172.6377,85.0402
172.8253,85.1715
173.0328,85.2683
173.2539,85.3275
173.4820,85.3475
173.7101,85.3275
173.9312,85.2683
174.1387,85.1715
174.3263,85.0402
174.3929,84.9736
174.4552,84.9396
174.5260,84.9446
174.5711,84.9736
174.6377,85.0402
174.8253,85.1715
175.0328,85.2683
175.2539,85.3275
175.4820,85.3475
175.7101,85.3275
175.9312,85.2683
176.1387,85.1715
176.3263,85.0402
176.4882,84.8783
176.6195,84.6907
176.7163,84.4832
176.7755,84.2621
176.7955,84.0340
176.7755,83.8059
176.7163,83.5848
176.6195,83.3773
176.4882,83.1897
176.3263,83.0278
176.3263,83.0278
176.1387,82.8965
176.1340,82.8937
176.1351,82.8918
176.0892,82.8513
176.0697,82.7830
176.0902,82.7150
176.1351,82.6762
176.1340,82.6743
176.1387,82.6715
176.1654,82.6529
176.3263,82.5402
176.4882,82.3783
176.6195,82.1907
176.7163,81.9832
176.7755,81.7621
176.7955,81.5340
176.7755,81.3059
176.7163,81.0848
176.6195,80.8773
176.4882,80.6897
176.3263,80.5278
176.2985,80.5083
176.1387,80.3965
175.9312,80.2997
175.9312,80.2997
175.7624,80.2545
175.7101,80.2405
175.4820,80.2205
175.2539,80.2405
175.0328,80.2997
175.0328,80.2997
174.8252,80.3965
174.8252,80.3965
174.8198,80.4003
174.7525,80.4230
174.6837,80.4057
174.6517,80.3771
174.6516,80.3771
174.6511,80.3766
174.6466,80.3726
174.6453,80.3707
174.6453,80.3707
174.6453,80.3707
174.5282,80.2831
174.5282,80.2831
174.3912,80.2320
174.3912,80.2320
174.3306,80.2255
174.3306,80.2255
172.6334,80.2255
172.6333,80.2255
172.5728,80.2320
172.5728,80.2320
172.4358,80.2831
172.4358,80.2831
172.3187,80.3707
172.2311,80.4878
172.2311,80.4878
172.1800,80.6248
172.1800,80.6248
172.1735,80.6853
172.1735,82.3826
172.1800,82.4432
172.1800,82.4432
172.2311,82.5802
172.2311,82.5802
172.3187,82.6973
172.4358,82.7849
172.4358,82.7849
172.5761,82.8372
172.6329,82.8798
172.6577,82.9463
172.6426,83.0157
172.6211,83.0444
172.4758,83.1897
172.3445,83.3772
172.2477,83.5848
172.2477,83.5848
172.2364,83.6268
172.1885,83.8059
172.1685,84.0340
142.0688,84.0340
142.0457,83.9987
142.0457,83.9987
141.8932,83.8331
141.8114,83.7694
141.7156,83.6948
141.6823,83.6768
141.6319,83.6268
141.6166,83.5575
141.6411,83.4909
141.6823,83.4552
141.7156,83.4372
141.8932,83.2989
142.0457,83.1333
142.0949,83.0580
154.7631,83.0580
154.7831,83.2479
154.8131,83.3405
154.8421,83.4296
154.8421,83.4296
154.9376,83.5949
154.9376,83.5950
155.0653,83.7369
155.0653,83.7369
155.0653,83.7369
155.2198,83.8491
155.3943,83.9268
155.5811,83.9665
155.7721,83.9665
155.9589,83.9268
156.1334,83.8491
156.2879,83.7369
156.2879,83.7369
156.2879,83.7369
156.4156,83.5950
156.4156,83.5949
156.4156,83.5949
156.5111,83.4296
156.5701,83.2479
156.5901,83.0580
156.5701,82.8681
156.5111,82.6864
156.4156,82.5211
156.4156,82.5211
156.4156,82.5210
156.2879,82.3791
156.1334,82.2669
155.9589,82.1892
155.7721,82.1495
155.5811,82.1495
155.3943,82.1892
155.2198,82.2669
155.0653,82.3791
154.9376,82.5210
154.9376,82.5211
154.8421,82.6864
154.8421,82.6864
154.8328,82.7150
154.7831,82.8681
154.7631,83.0580
142.0949,83.0580
142.1689,82.9448
142.2593,82.7386
142.3146,82.5204
142.3332,82.2960
142.3146,82.0716
142.2922,81.9832
142.2685,81.8896
149.2259,81.8896
149.2459,82.0795
149.2673,82.1455
149.3049,82.2612
149.3145,82.2778
149.4004,82.4265
149.4004,82.4266
149.5281,82.5685
149.5281,82.5685
149.6826,82.6807
149.8571,82.7584
150.0439,82.7981
150.2349,82.7981
150.4217,82.7584
150.5962,82.6807
150.7507,82.5685
150.7761,82.5402
150.8784,82.4266
150.8784,82.4265
150.8784,82.4265
150.9739,82.2612
151.0329,82.0795
151.0529,81.8896
151.0329,81.6997
150.9739,81.5180
150.8784,81.3527
150.8784,81.3527
150.8784,81.3526
150.7507,81.2107
150.6712,81.1530
159.7669,81.1530
159.7869,81.3429
159.7952,81.3685
159.8459,81.5246
159.8459,81.5246
159.9414,81.6899
159.9414,81.6900
160.0691,81.8319
160.0988,81.8534
160.2236,81.9441
160.3981,82.0218
160.5849,82.0615
160.7759,82.0615
160.9627,82.0218
161.1372,81.9441
161.2917,81.8319
161.2917,81.8319
161.4194,81.6900
161.4194,81.6899
161.4194,81.6899
161.5149,81.5246
161.5739,81.3429
161.5939,81.1530
161.5739,80.9631
161.5149,80.7814
161.4194,80.6161
161.4194,80.6161
161.4194,80.6160
161.2917,80.4741
161.1372,80.3619
160.9627,80.2842
160.7759,80.2445
160.5849,80.2445
160.3981,80.2842
160.2236,80.3619
160.0691,80.4741
159.9414,80.6160
159.9414,80.6161
159.8589,80.7589
159.8459,80.7814
159.8314,80.8260
159.7869,80.9631
159.7669,81.1530
150.6712,81.1530
150.5962,81.0985
150.4217,81.0208
150.2349,80.9811
150.0439,80.9811
149.8571,81.0208
149.6826,81.0985
149.5281,81.2107
149.4004,81.3526
149.4004,81.3527
149.3049,81.5180
149.3049,81.5180
149.2997,81.5340
149.2459,81.6997
149.2259,81.8896
142.2685,81.8896
142.2593,81.8534
142.2593,81.8534
142.2593,81.8534
142.1689,81.6472
142.1065,81.5517
142.0457,81.4587
142.0457,81.4587
141.8932,81.2931
141.7833,81.2075
141.7156,81.1548
141.6823,81.1368
141.6319,81.0868
141.6166,81.0175
141.6411,80.9509
141.6823,80.9152
141.7156,80.8972
141.8932,80.7589
142.0457,80.5933
142.1689,80.4048
142.2593,80.1986
142.2685,80.1624
164.8215,80.1624
164.8415,80.3523
164.8623,80.4164
164.9005,80.5340
164.9005,80.5340
164.9960,80.6993
164.9960,80.6994
165.1237,80.8413
165.1733,80.8773
165.2782,80.9535
165.4527,81.0312
165.6395,81.0709
165.8305,81.0709
166.0173,81.0312
166.1918,80.9535
166.3463,80.8413
166.3463,80.8413
166.4740,80.6994
166.4740,80.6993
166.4740,80.6993
166.5695,80.5340
166.6077,80.4164
169.5459,80.4164
169.5659,80.6063
169.5797,80.6489
169.6249,80.7880
169.6249,80.7880
169.7204,80.9533
169.7204,80.9534
169.8481,81.0953
169.9053,81.1368
170.0026,81.2075
170.1771,81.2852
170.3639,81.3249
170.5549,81.3249
170.7417,81.2852
170.9162,81.2075
171.0707,81.0953
171.0801,81.0848
171.1984,80.9534
171.1984,80.9533
171.1984,80.9533
171.2939,80.7880
171.3529,80.6063
171.3729,80.4164
171.3529,80.2265
171.2939,80.0448
171.1984,79.8795
171.1984,79.8795
171.1984,79.8794
171.0707,79.7375
170.9162,79.6253
170.7417,79.5476
170.5549,79.5079
170.3639,79.5079
170.1771,79.5476
170.0026,79.6253
169.8481,79.7375
169.7204,79.8794
169.7204,79.8795
169.6249,80.0448
169.6249,80.0448
169.6241,80.0471
169.5659,80.2265
169.5459,80.4164
166.6077,80.4164
166.6285,80.3523
166.6485,80.1624
166.6285,79.9725
166.5695,79.7908
166.4740,79.6255
166.4740,79.6255
166.4740,79.6254
166.3463,79.4835
166.1918,79.3713
166.0173,79.2936
165.8305,79.2539
165.6395,79.2539
165.4527,79.2936
165.2782,79.3713
165.1237,79.4835
164.9960,79.6254
164.9960,79.6255
164.9005,79.7908
164.9005,79.7908
164.8415,79.9725
164.8215,80.1624
142.2685,80.1624
142.3146,79.9804
142.3332,79.7560
142.3146,79.5316
142.2593,79.3134
142.1689,79.1072
142.1242,79.0389
142.0457,78.9187
142.0457,78.9187
142.0342,78.9062
141.9025,78.7632
141.8711,78.6995
141.8791,78.6290
141.9239,78.5739
141.9512,78.5598
142.0662,78.5169
142.0861,78.5020
142.1833,78.4293
142.2709,78.3122
142.2709,78.3122
142.2709,78.3122
142.3220,78.1752
142.3240,78.1562
142.3285,78.1146
142.3285,78.1146
142.3285,76.7588
162.9165,76.7588
162.9365,76.9487
162.9665,77.0413
162.9955,77.1304
162.9955,77.1304
163.0910,77.2957
163.0910,77.2958
163.2187,77.4377
163.2378,77.4515
163.3732,77.5499
163.5477,77.6276
163.7345,77.6673
163.9255,77.6673
164.1123,77.6276
164.2868,77.5499
164.4413,77.4377
164.4728,77.4026
164.5690,77.2958
164.5690,77.2957
164.5690,77.2957
164.6645,77.1304
164.7235,76.9487
164.7409,76.7840
175.8285,76.7840
175.8484,77.0990
175.8484,77.0990
175.9075,77.4091
175.9075,77.4091
176.0050,77.7093
176.0050,77.7093
176.0818,77.8725
176.1394,77.9949
176.1394,77.9949
176.1394,77.9949
176.3086,78.2614
176.5098,78.5046
176.5098,78.5046
176.5098,78.5046
176.6831,78.6673
176.7399,78.7207
176.8618,78.8093
176.9952,78.9062
177.2718,79.0582
177.5653,79.1744
177.8710,79.2529
177.8710,79.2529
177.8710,79.2529
178.0351,79.2737
178.1842,79.2925
178.1842,79.2925
178.4998,79.2925
178.4998,79.2925
178.8130,79.2529
179.1187,79.1744
179.4122,79.0582
179.6888,78.9062
179.9441,78.7207
180.1742,78.5046
180.3754,78.2614
180.3754,78.2614
180.3754,78.2614
180.5446,77.9949
180.5446,77.9949
180.6790,77.7093
180.7765,77.4091
180.8356,77.0990
180.8444,76.9600
180.8555,76.7840
180.8555,76.7840
180.8356,76.4690
180.8356,76.4690
180.8092,76.3306
180.7765,76.1589
180.7195,75.9835
180.6790,75.8587
180.6790,75.8587
180.6282,75.7508
180.5446,75.5731
180.5446,75.5731
180.3754,75.3066
180.1742,75.0634
179.9441,74.8473
179.6888,74.6618
179.6464,74.6385
179.4122,74.5098
179.1187,74.3936
178.8130,74.3151
178.8130,74.3151
178.8130,74.3151
178.8130,74.3151
178.4998,74.2755
178.4998,74.2755
178.4998,74.2755
178.1842,74.2755
178.1842,74.2755
178.1842,74.2755
177.8710,74.3151
177.5653,74.3936
177.2718,74.5098
176.9952,74.6618
176.7399,74.8473
176.7399,74.8473
176.5098,75.0634
176.3086,75.3066
176.1394,75.5731
176.1394,75.5731
176.0050,75.8587
176.0050,75.8587
175.9075,76.1589
175.9075,76.1589
175.8484,76.4690
175.8484,76.4690
175.8285,76.7840
175.8285,76.7840
164.7409,76.7840
164.7435,76.7588
164.7235,76.5689
164.6645,76.3872
164.5690,76.2219
164.5690,76.2219
164.5690,76.2218
164.4413,76.0799
164.2868,75.9677
164.1123,75.8900
163.9255,75.8503
163.7345,75.8503
163.5477,75.8900
163.3732,75.9677
163.2187,76.0799
163.0910,76.2218
163.0910,76.2219
162.9955,76.3872
162.9955,76.3872
162.9365,76.5689
162.9165,76.7588
142.3285,76.7588
142.3285,76.3174
142.3285,76.3173
142.3220,76.2568
142.3220,76.2568
142.2878,76.1652
142.2709,76.1198
142.2709,76.1198
142.2709,76.1198
142.1833,76.0027
142.0662,75.9151
142.0662,75.9151
141.9292,75.8640
141.9292,75.8640
141.8686,75.8575
141.8686,75.8575
140.0714,75.8575
140.0713,75.8575
140.0108,75.8640
140.0108,75.8640
139.8738,75.9151
139.8738,75.9151
139.7567,76.0027
139.6691,76.1198
139.6691,76.1198
139.6180,76.2568
139.6180,76.2568
139.6115,76.3173
139.6115,78.1146
139.6180,78.1752
139.6180,78.1752
139.6691,78.3122
139.6691,78.3122
139.7567,78.4293
139.8738,78.5169
139.8738,78.5169
139.8738,78.5169
139.9888,78.5598
140.0456,78.6023
140.0705,78.6689
140.0554,78.7382
140.0375,78.7632
139.8943,78.9187
139.8943,78.9187
139.7711,79.1072
139.6807,79.3134
139.6807,79.3134
139.6254,79.5316
139.6254,79.5316
139.6254,79.5316
139.6068,79.7560
139.6241,79.9646
139.6254,79.9804
139.6807,80.1986
139.6807,80.1986
139.6807,80.1986
139.7711,80.4048
139.7711,80.4048
139.8943,80.5933
139.8943,80.5933
140.0468,80.7589
140.0757,80.7814
140.2244,80.8972
140.2577,80.9152
140.3081,80.9652
140.3234,81.0345
140.2989,81.1011
140.2577,81.1368
140.2244,81.1548
140.2244,81.1548
140.0468,81.2931
139.8943,81.4587
139.8943,81.4587
139.7711,81.6472
139.6807,81.8534
139.6807,81.8534
139.6254,82.0716
139.6254,82.0716
139.6254,82.0716
139.6068,82.2960
139.6196,82.4505
139.6254,82.5204
139.6807,82.7386
139.6807,82.7386
139.6807,82.7386
139.7499,82.8965
139.7711,82.9448
139.8943,83.1333
139.8943,83.1333
140.0468,83.2989
140.1013,83.3414
140.2244,83.4372
140.2577,83.4552
140.3081,83.5052
140.3234,83.5745
140.2989,83.6411
140.2577,83.6768
140.2244,83.6948
140.2244,83.6948
140.0468,83.8331
139.8943,83.9987
139.8943,83.9987
139.7711,84.1872
139.6807,84.3934
139.6807,84.3934
139.6254,84.6116
139.6254,84.6116
139.6254,84.6116
139.6068,84.8360
139.6238,85.0402
139.6254,85.0604
139.6807,85.2786
139.6807,85.2786
139.6807,85.2786
139.7498,85.4362
139.7711,85.4848
139.8943,85.6733
139.8943,85.6733
140.0468,85.8389
140.0757,85.8614
140.2244,85.9772
140.2577,85.9952
140.3081,86.0452
140.3234,86.1145
140.2989,86.1811
140.2577,86.2168
140.2244,86.2348
140.2244,86.2348
140.0468,86.3731
139.8943,86.5387
139.8943,86.5387
139.7711,86.7272
139.6807,86.9334
139.6807,86.9334
139.6254,87.1516
139.6254,87.1516
139.6254,87.1516
139.6068,87.3760
139.6250,87.5952
139.6254,87.6004
139.6807,87.8186
139.6807,87.8186
139.6807,87.8186
139.7358,87.9442
139.7711,88.0248
139.8943,88.2133
139.8943,88.2133
140.0468,88.3789
140.1013,88.4214
140.2244,88.5172
140.2577,88.5352
140.3081,88.5852
140.3234,88.6545
140.2989,88.7211
140.2577,88.7568
140.2244,88.7748
140.2244,88.7748
140.0468,88.9131
139.8943,89.0787
139.8943,89.0787
139.7711,89.2672
139.6807,89.4734
139.6807,89.4734
139.6254,89.6916
139.6254,89.6916
139.6254,89.6916
139.6068,89.9160
119.0255,89.9160
119.0255,81.5008
122.1995,81.5008
122.2144,81.6472
122.2149,81.6524
122.2267,81.6899
122.2758,81.8466
122.3746,82.0245
122.5071,82.1789
122.5071,82.1789
122.6680,82.3034
122.6680,82.3034
122.8507,82.3931
122.8507,82.3931
122.8507,82.3931
123.0477,82.4441
123.2171,82.4527
123.2509,82.4544
123.2509,82.4544
123.2509,82.4544
123.4521,82.4236
123.6429,82.3529
123.8156,82.2453
123.8156,82.2452
123.8156,82.2452
123.9205,82.1455
123.9631,82.1051
124.0793,81.9380
124.0793,81.9380
124.0793,81.9380
124.1595,81.7511
124.1595,81.7511
124.1595,81.7511
124.1595,81.7511
124.2005,81.5517
124.2005,81.2563
126.3457,81.2563
126.3609,81.3685
126.3759,81.4794
126.4455,81.6935
126.5521,81.8917
126.5521,81.8917
126.6252,81.9832
126.6925,82.0677
126.8620,82.2158
127.0552,82.3312
127.2660,82.4103
127.2660,82.4103
127.2660,82.4103
127.3992,82.4345
127.4875,82.4505
127.4875,82.4505
127.6561,82.4505
127.6562,82.4505
127.8138,82.4363
127.8242,82.4354
127.8242,82.4354
128.0280,82.3791
128.0412,82.3755
128.0412,82.3755
128.0412,82.3755
128.2440,82.2778
128.4261,82.1455
128.5816,81.9828
128.7056,81.7950
128.7941,81.5880
128.8442,81.3685
128.8543,81.1437
128.8241,80.9206
128.8171,80.8993
128.8006,80.8483
128.7545,80.7065
128.7431,80.6854
128.6479,80.5083
128.6479,80.5083
128.5587,80.3965
128.5075,80.3323
128.3380,80.1842
128.1448,80.0688
127.9340,79.9897
127.7441,79.9552
127.7125,79.9495
127.5438,79.9495
127.5126,79.9523
127.3758,79.9646
127.3758,79.9646
127.1588,80.0245
126.9560,80.1222
126.9560,80.1222
126.7739,80.2545
126.7739,80.2545
126.6184,80.4172
126.4944,80.6050
126.4944,80.6050
126.4059,80.8120
126.4059,80.8120
126.3558,81.0315
126.3558,81.0315
126.3508,81.1437
126.3457,81.2563
124.2005,81.2563
124.2005,80.8993
124.2005,80.8992
124.1892,80.7880
124.1851,80.7476
124.1242,80.5534
124.0481,80.4164
124.0254,80.3755
123.8929,80.2211
123.8929,80.2211
123.7320,80.0966
123.7320,80.0965
123.5493,80.0069
123.4808,79.9892
123.3523,79.9559
123.3523,79.9559
123.3523,79.9559
123.1491,79.9456
122.9746,79.9723
122.9479,79.9764
122.9479,79.9764
122.7571,80.0471
122.7571,80.0471
122.5844,80.1547
122.5844,80.1548
122.4370,80.2949
122.4369,80.2949
122.3207,80.4620
122.3207,80.4620
122.2405,80.6489
122.2405,80.6489
122.2179,80.7589
122.2009,80.8413
122.1995,80.8483
122.1995,81.5008
119.0255,81.5008
119.0255,78.1304
122.1749,78.1304
122.1949,78.3203
122.1961,78.3242
122.2539,78.5020
122.2625,78.5169
122.3494,78.6673
122.3494,78.6674
122.4771,78.8093
122.4771,78.8093
122.6316,78.9215
122.8061,78.9992
122.9929,79.0389
123.1839,79.0389
123.3707,78.9992
123.5452,78.9215
123.6997,78.8093
123.7411,78.7632
123.8274,78.6674
123.8274,78.6673
123.8274,78.6673
123.9229,78.5020
123.9819,78.3203
124.0019,78.1304
123.9832,77.9526
128.1947,77.9526
128.2147,78.1425
128.2330,78.1991
128.2737,78.3242
128.2737,78.3242
128.3692,78.4895
128.3692,78.4896
128.4969,78.6315
128.5463,78.6673
128.6514,78.7437
128.8259,78.8214
129.0127,78.8611
129.2037,78.8611
129.3905,78.8214
129.5650,78.7437
129.7195,78.6315
129.7344,78.6148
129.8472,78.4896
129.8472,78.4895
129.8472,78.4895
129.9427,78.3242
130.0017,78.1425
130.0217,77.9526
130.0017,77.7627
129.9427,77.5810
129.8472,77.4157
129.8472,77.4157
129.8472,77.4156
129.7195,77.2737
129.5650,77.1615
129.3905,77.0838
129.2037,77.0441
129.0127,77.0441
128.8259,77.0838
128.6514,77.1615
128.4969,77.2737
128.3692,77.4156
128.3692,77.4157
128.2737,77.5810
128.2737,77.5810
128.2647,77.6088
128.2147,77.7627
128.1947,77.9526
123.9832,77.9526
123.9819,77.9405
123.9229,77.7588
123.8274,77.5935
123.8274,77.5935
123.8274,77.5934
123.6997,77.4515
123.5452,77.3393
123.3707,77.2616
123.1839,77.2219
122.9929,77.2219
122.8061,77.2616
122.6316,77.3393
122.4771,77.4515
122.3494,77.5934
122.3494,77.5935
122.2539,77.7588
122.2539,77.7588
122.1949,77.9405
122.1749,78.1304
119.0255,78.1304
119.0255,76.9600
134.9368,76.9600
134.9510,77.1304
134.9554,77.1844
135.0107,77.4026
135.0107,77.4026
135.0107,77.4026
135.1011,77.6088
135.1011,77.6088
135.2243,77.7973
135.2243,77.7973
135.3675,77.9528
135.3989,78.0165
135.3909,78.0870
135.3461,78.1421
135.3188,78.1562
135.2038,78.1991
135.2038,78.1991
135.0867,78.2867
134.9991,78.4038
134.9991,78.4038
134.9480,78.5408
134.9480,78.5408
134.9415,78.6013
134.9415,80.3986
134.9480,80.4592
134.9480,80.4592
134.9991,80.5962
134.9991,80.5962
135.0867,80.7133
135.2038,80.8009
135.2038,80.8009
135.2038,80.8009
135.2629,80.8229
135.3408,80.8520
135.3408,80.8520
135.4014,80.8585
135.4014,80.8585
135.4014,80.8585
135.4014,80.8585
137.1986,80.8585
137.1986,80.8585
137.1986,80.8585
137.1986,80.8585
137.2592,80.8520
137.2592,80.8520
137.2592,80.8520
137.2692,80.8483
137.2879,80.8413
137.3962,80.8009
137.4135,80.7880
137.5133,80.7133
137.6009,80.5962
137.6009,80.5962
137.6009,80.5962
137.6520,80.4592
137.6565,80.4172
137.6585,80.3986
137.6585,80.3986
137.6585,78.6014
137.6585,78.6013
137.6520,78.5408
137.6520,78.5408
137.6009,78.4038
137.6009,78.4038
137.5133,78.2867
137.3962,78.1991
137.3962,78.1991
137.2812,78.1562
137.2244,78.1137
137.1995,78.0471
137.2146,77.9778
137.2325,77.9528
137.3757,77.7973
137.3757,77.7973
137.4008,77.7588
137.4989,77.6088
137.5893,77.4026
137.6446,77.1844
137.6632,76.9600
137.6446,76.7356
137.5893,76.5174
137.4989,76.3112
137.4405,76.2218
137.3757,76.1227
137.3757,76.1227
137.2476,75.9835
137.2232,75.9571
137.2232,75.9571
137.2232,75.9571
137.1036,75.8640
137.0456,75.8188
137.0123,75.8008
137.0051,75.7936
153.4423,75.7936
153.4623,75.9835
153.4685,76.0027
153.5213,76.1652
153.5213,76.1652
153.6168,76.3305
153.6168,76.3306
153.7445,76.4725
153.7445,76.4725
153.8990,76.5847
154.0735,76.6624
154.2603,76.7021
154.4513,76.7021
154.6381,76.6624
154.8126,76.5847
154.9671,76.4725
154.9702,76.4690
155.0948,76.3306
155.0948,76.3305
155.0948,76.3305
155.1903,76.1652
155.2493,75.9835
155.2693,75.7936
155.2493,75.6037
155.1903,75.4220
155.0948,75.2567
155.0948,75.2567
155.0948,75.2566
154.9671,75.1147
154.8126,75.0025
154.6381,74.9248
154.4513,74.8851
154.2603,74.8851
154.0735,74.9248
153.8990,75.0025
153.7445,75.1147
153.6168,75.2566
153.6168,75.2567
153.5213,75.4220
153.5213,75.4220
153.5068,75.4666
153.4623,75.6037
153.4423,75.7936
137.0051,75.7936
136.9619,75.7508
136.9466,75.6815
136.9711,75.6149
137.0123,75.5792
137.0456,75.5612
137.2232,75.4229
137.3757,75.2573
137.4989,75.0688
137.5893,74.8626
137.6446,74.6444
137.6632,74.4200
137.6446,74.1956
137.5893,73.9774
137.4989,73.7712
137.4532,73.7014
137.3757,73.5827
137.3757,73.5827
137.2232,73.4171
137.1111,73.3298
137.0456,73.2788
137.0123,73.2608
136.9619,73.2108
136.9466,73.1415
136.9711,73.0749
137.0123,73.0392
137.0456,73.0212
137.2232,72.8829
137.3757,72.7173
137.4989,72.5288
137.5893,72.3226
137.6446,72.1044
137.6632,71.8800
137.6446,71.6556
137.5893,71.4374
137.4989,71.2312
137.4135,71.1005
137.3757,71.0427
137.3757,71.0427
137.2232,70.8771
137.1227,70.7988
137.0456,70.7388
137.0123,70.7208
136.9619,70.6708
136.9466,70.6015
136.9711,70.5349
137.0123,70.4992
137.0456,70.4812
137.2232,70.3429
137.3757,70.1773
137.4402,70.0786
154.1281,70.0786
154.1481,70.2685
154.1722,70.3429
154.2071,70.4502
154.2071,70.4502
154.3026,70.6155
154.3026,70.6156
154.4303,70.7575
154.4303,70.7575
154.5848,70.8697
154.7593,70.9474
154.9461,70.9871
155.1371,70.9871
155.3239,70.9474
155.4984,70.8697
155.6529,70.7575
155.6859,70.7208
155.7806,70.6156
155.7806,70.6155
155.7806,70.6155
155.8761,70.4502
155.9351,70.2685
155.9551,70.0786
155.9471,70.0024
161.8497,70.0024
161.8697,70.1923
161.8944,70.2685
161.9287,70.3740
161.9287,70.3740
162.0242,70.5393
162.0242,70.5394
162.1519,70.6813
162.1519,70.6813
162.3064,70.7935
162.4809,70.8712
162.6677,70.9109
162.8587,70.9109
163.0455,70.8712
163.2200,70.7935
163.3745,70.6813
163.3839,70.6708
163.5022,70.5394
163.5022,70.5393
163.5022,70.5393
163.5977,70.3740
163.6567,70.1923
163.6767,70.0024
163.6567,69.8125
163.5977,69.6308
163.5222,69.5000
175.3946,69.5000
175.4143,69.7511
175.4329,69.8285
175.4731,69.9961
175.4731,69.9961
175.5695,70.2289
175.6394,70.3429
175.7012,70.4437
175.7012,70.4437
175.8648,70.6352
176.0501,70.7935
176.0563,70.7988
176.2711,70.9305
176.5039,71.0269
176.7489,71.0857
176.9012,71.0977
176.9371,71.1005
176.9371,71.1005
177.0629,71.1005
177.0967,71.0978
177.2511,71.0857
177.4961,71.0269
177.7289,70.9305
177.9437,70.7988
178.1352,70.6352
178.2988,70.4437
178.4305,70.2289
178.5269,69.9961
178.5857,69.7511
178.6054,69.5000
178.5857,69.2489
178.5269,69.0039
178.4305,68.7711
178.2988,68.5563
178.2988,68.5563
178.1352,68.3648
177.9437,68.2012
177.9437,68.2012
177.9437,68.2012
177.7289,68.0695
177.6058,68.0186
177.4961,67.9731
177.3285,67.9329
177.2511,67.9143
177.2041,67.9106
177.0629,67.8995
177.0629,67.8995
176.9371,67.8995
176.9371,67.8995
176.7489,67.9143
176.5039,67.9731
176.2711,68.0695
176.0563,68.2012
176.0563,68.2012
175.8648,68.3648
175.7012,68.5563
175.7012,68.5563
175.5695,68.7711
175.4731,69.0039
175.4237,69.2098
175.4143,69.2489
175.3946,69.5000
163.5222,69.5000
163.5022,69.4655
163.5022,69.4655
163.5022,69.4654
163.3745,69.3235
163.2200,69.2113
163.0455,69.1336
162.8587,69.0939
162.6677,69.0939
162.4809,69.1336
162.3064,69.2113
162.1519,69.3235
162.0242,69.4654
162.0242,69.4655
161.9287,69.6308
161.9287,69.6308
161.8697,69.8125
161.8497,70.0024
155.9471,70.0024
155.9351,69.8887
155.8761,69.7070
155.7806,69.5417
155.7806,69.5417
155.7806,69.5416
155.6529,69.3997
155.4984,69.2875
155.3239,69.2098
155.1371,69.1701
154.9461,69.1701
154.7593,69.2098
154.5848,69.2875
154.4303,69.3997
154.3026,69.5416
154.3026,69.5417
154.2071,69.7070
154.2071,69.7070
154.1481,69.8887
154.1281,70.0786
137.4402,70.0786
137.4989,69.9888
137.5893,69.7826
137.6446,69.5644
137.6632,69.3400
137.6446,69.1156
137.5893,68.8974
137.4989,68.6912
137.4921,68.6809
137.3757,68.5027
137.3757,68.5027
137.2232,68.3371
137.1414,68.2734
137.0456,68.1988
136.8476,68.0917
136.8476,68.0917
136.8476,68.0917
136.6346,68.0186
136.6346,68.0186
136.5905,68.0112
136.4126,67.9815
136.1874,67.9815
136.0392,68.0062
135.9654,68.0186
135.9654,68.0186
135.7524,68.0917
135.7524,68.0917
135.5544,68.1988
135.5544,68.1988
135.3768,68.3371
135.2243,68.5027
135.2243,68.5027
135.1011,68.6912
135.0107,68.8974
135.0107,68.8974
134.9554,69.1156
134.9554,69.1156
134.9554,69.1156
134.9368,69.3400
134.9536,69.5417
134.9554,69.5644
135.0107,69.7826
135.0107,69.7826
135.1011,69.9888
135.2243,70.1773
135.2243,70.1773
135.3768,70.3429
135.4167,70.3740
135.5544,70.4812
135.5877,70.4992
135.6381,70.5492
135.6534,70.6185
135.6289,70.6851
135.5877,70.7208
135.5544,70.7388
135.5544,70.7388
135.3768,70.8771
135.2243,71.0427
135.2243,71.0427
135.1011,71.2312
135.0107,71.4374
135.0107,71.4374
134.9554,71.6556
134.9368,71.8800
134.9554,72.1044
135.0107,72.3226
135.0107,72.3226
135.0107,72.3226
135.0714,72.4610
135.1011,72.5288
135.2243,72.7173
135.2243,72.7173
135.3768,72.8829
135.4313,72.9254
135.5544,73.0212
135.5877,73.0392
135.6381,73.0892
135.6534,73.1585
135.6289,73.2251
135.5877,73.2608
135.5544,73.2788
135.5544,73.2788
135.3768,73.4171
135.2243,73.5827
135.2243,73.5827
135.1011,73.7712
135.0107,73.9774
135.0107,73.9774
134.9554,74.1956
134.9554,74.1956
134.9554,74.1956
134.9510,74.2494
134.9368,74.4200
134.9554,74.6444
135.0107,74.8626
135.0107,74.8626
135.0107,74.8626
135.0988,75.0634
135.1011,75.0688
135.2243,75.2573
135.2243,75.2573
135.2697,75.3066
135.3760,75.4220
135.3768,75.4229
135.4313,75.4654
135.5544,75.5612
135.5877,75.5792
135.6381,75.6292
135.6534,75.6985
135.6289,75.7651
135.5877,75.8008
135.5544,75.8188
135.5544,75.8188
135.3768,75.9571
135.2243,76.1227
135.2243,76.1227
135.1011,76.3112
135.0107,76.5174
135.0107,76.5174
134.9554,76.7356
134.9554,76.7356
134.9554,76.7356
134.9368,76.9600
119.0255,76.9600
119.0255,73.3298
122.2003,73.3298
122.2203,73.5197
122.2368,73.5705
122.2793,73.7014
122.2793,73.7014
122.3748,73.8667
122.3748,73.8668
122.5025,74.0087
122.5025,74.0087
122.6570,74.1209
122.8315,74.1986
123.0183,74.2383
123.2093,74.2383
123.3961,74.1986
123.5706,74.1209
123.7251,74.0087
123.7532,73.9774
123.8528,73.8668
123.8528,73.8667
123.8528,73.8667
123.9483,73.7014
124.0073,73.5197
124.0220,73.3806
128.1693,73.3806
128.1893,73.5705
128.2193,73.6631
128.2483,73.7522
128.2483,73.7522
128.3438,73.9175
128.3438,73.9176
128.4715,74.0595
128.4715,74.0595
128.6260,74.1717
128.8005,74.2494
128.9873,74.2891
129.1783,74.2891
129.3651,74.2494
129.5396,74.1717
129.6941,74.0595
129.6941,74.0595
129.8218,73.9176
129.8218,73.9175
129.8218,73.9175
129.9173,73.7522
129.9763,73.5705
129.9963,73.3806
129.9763,73.1907
129.9173,73.0090
129.8218,72.8437
129.8218,72.8437
129.8218,72.8436
129.6941,72.7017
129.5396,72.5895
129.3651,72.5118
129.1783,72.4721
128.9873,72.4721
128.8005,72.5118
128.6260,72.5895
128.4715,72.7017
128.3438,72.8436
128.3438,72.8437
128.2483,73.0090
128.2483,73.0090
128.1893,73.1907
128.1693,73.3806
124.0220,73.3806
124.0273,73.3298
124.0073,73.1399
123.9483,72.9582
123.8528,72.7929
123.8528,72.7929
123.8528,72.7928
123.7251,72.6509
123.5706,72.5387
123.3961,72.4610
123.2093,72.4213
123.0183,72.4213
122.8315,72.4610
122.6570,72.5387
122.5025,72.6509
122.3748,72.7928
122.3748,72.7929
122.2793,72.9582
122.2793,72.9582
122.2203,73.1399
122.2003,73.3298
119.0255,73.3298
119.0255,69.5000
121.3946,69.5000
121.4143,69.7511
121.4329,69.8285
121.4731,69.9961
121.4731,69.9961
121.5695,70.2289
121.6394,70.3429
121.7012,70.4437
121.7012,70.4437
121.8648,70.6352
122.0501,70.7935
122.0563,70.7988
122.2711,70.9305
122.5039,71.0269
122.7489,71.0857
122.9012,71.0977
122.9371,71.1005
122.9371,71.1005
123.0629,71.1005
123.0967,71.0978
123.2511,71.0857
123.4961,71.0269
123.7289,70.9305
123.9437,70.7988
124.1352,70.6352
124.2988,70.4437
124.4305,70.2289
124.5269,69.9961
124.5857,69.7511
124.6054,69.5000
124.5857,69.2489
124.5269,69.0039
124.4305,68.7711
124.2988,68.5563
124.2988,68.5563
124.1352,68.3648
123.9437,68.2012
123.9437,68.2012
123.9437,68.2012
123.7289,68.0695
123.6058,68.0186
123.4961,67.9731
123.3285,67.9329
123.2511,67.9143
123.2041,67.9106
123.0629,67.8995
123.0629,67.8995
122.9371,67.8995
122.9371,67.8995
122.7489,67.9143
122.5039,67.9731
122.2711,68.0695
122.0563,68.2012
122.0563,68.2012
121.8648,68.3648
121.7012,68.5563
121.7012,68.5563
121.5695,68.7711
121.4731,69.0039
121.4237,69.2098
121.4143,69.2489
121.3946,69.5000
119.0255,69.5000
119.0255,65.8515
119.0455,65.7834
119.0992,65.7369
119.1515,65.7255
181.8485,65.7255
Z" /> 
</g>
</g>
</g>
<g style="fill:#FFFFFF; fill-opacity:1.0000; 
stroke:#FFFFFF; stroke-width:0.0000; stroke-opacity:1; 
stroke-linecap:round; stroke-linejoin:round;">
<circle cx="154.3558" cy="75.7936" r="0.2000" /> 
</g>
<g style="fill:#FFFFFF; fill-opacity:1.0000; 
stroke:#FFFFFF; stroke-width:0.0212; stroke-opacity:1; 
stroke-linecap:round; stroke-linejoin:round;">
</g>
<g style="fill:#FFFFFF; fill-opacity:1.0000; 
stroke:#FFFFFF; stroke-width:0.0000; stroke-opacity:1; 
stroke-linecap:round; stroke-linejoin:round;">
<circle cx="123.1138" cy="73.3298" r="0.2000" /> 
</g>
<g style="fill:#FFFFFF; fill-opacity:1.0000; 
stroke:#FFFFFF; stroke-width:0.0212; stroke-opacity:1; 
stroke-linecap:round; stroke-linejoin:round;">
</g>
<g style="fill:#FFFFFF; fill-opacity:1.0000; 
stroke:#FFFFFF; stroke-width:0.0000; stroke-opacity:1; 
stroke-linecap:round; stroke-linejoin:round;">
<circle cx="129.1082" cy="77.9526" r="0.2000" /> 
</g>
<g style="fill:#FFFFFF; fill-opacity:1.0000; 
stroke:#FFFFFF; stroke-width:0.0212; stroke-opacity:1; 
stroke-linecap:round; stroke-linejoin:round;">
</g>
<g style="fill:#FFFFFF; fill-opacity:1.0000; 
stroke:#FFFFFF; stroke-width:0.0000; stroke-opacity:1; 
stroke-linecap:round; stroke-linejoin:round;">
<circle cx="167.2590" cy="97.9424" r="0.2000" /> 
</g>
<g style="fill:#FFFFFF; fill-opacity:1.0000; 
stroke:#FFFFFF; stroke-width:0.0212; stroke-opacity:1; 
stroke-linecap:round; stroke-linejoin:round;">
</g>
<g style="fill:#FFFFFF; fill-opacity:1.0000; 
stroke:#FFFFFF; stroke-width:0.0000; stroke-opacity:1; 
stroke-linecap:round; stroke-linejoin:round;">
<circle cx="155.6766" cy="83.0580" r="0.2000" /> 
</g>
<g style="fill:#FFFFFF; fill-opacity:1.0000; 
stroke:#FFFFFF; stroke-width:0.0212; stroke-opacity:1; 
stroke-linecap:round; stroke-linejoin:round;">
</g>
<g style="fill:#FFFFFF; fill-opacity:1.0000; 
stroke:#FFFFFF; stroke-width:0.0000; stroke-opacity:1; 
stroke-linecap:round; stroke-linejoin:round;">
<circle cx="163.8300" cy="76.7588" r="0.2000" /> 
</g>
<g style="fill:#FFFFFF; fill-opacity:1.0000; 
stroke:#FFFFFF; stroke-width:0.0212; stroke-opacity:1; 
stroke-linecap:round; stroke-linejoin:round;">
</g>
<g style="fill:#FFFFFF; fill-opacity:1.0000; 
stroke:#FFFFFF; stroke-width:0.0000; stroke-opacity:1; 
stroke-linecap:round; stroke-linejoin:round;">
<circle cx="125.3490" cy="90.9066" r="0.2000" /> 
</g>
<g style="fill:#FFFFFF; fill-opacity:1.0000; 
stroke:#FFFFFF; stroke-width:0.0212; stroke-opacity:1; 
stroke-linecap:round; stroke-linejoin:round;">
</g>
<g style="fill:#FFFFFF; fill-opacity:1.0000; 
stroke:#FFFFFF; stroke-width:0.0000; stroke-opacity:1; 
stroke-linecap:round; stroke-linejoin:round;">
<circle cx="130.8100" cy="95.3516" r="0.2000" /> 
</g>
<g style="fill:#FFFFFF; fill-opacity:1.0000; 
stroke:#FFFFFF; stroke-width:0.0212; stroke-opacity:1; 
stroke-linecap:round; stroke-linejoin:round;">
</g>
<g style="fill:#FFFFFF; fill-opacity:1.0000; 
stroke:#FFFFFF; stroke-width:0.0000; stroke-opacity:1; 
stroke-linecap:round; stroke-linejoin:round;">
<circle cx="129.0828" cy="73.3806" r="0.2000" /> 
</g>
<g style="fill:#FFFFFF; fill-opacity:1.0000; 
stroke:#FFFFFF; stroke-width:0.0212; stroke-opacity:1; 
stroke-linecap:round; stroke-linejoin:round;">
</g>
<g style="fill:#FFFFFF; fill-opacity:1.0000; 
stroke:#FFFFFF; stroke-width:0.0000; stroke-opacity:1; 
stroke-linecap:round; stroke-linejoin:round;">
<circle cx="144.8308" cy="85.0646" r="0.2000" /> 
</g>
<g style="fill:#FFFFFF; fill-opacity:1.0000; 
stroke:#FFFFFF; stroke-width:0.0212; stroke-opacity:1; 
stroke-linecap:round; stroke-linejoin:round;">
</g>
<g style="fill:#FFFFFF; fill-opacity:1.0000; 
stroke:#FFFFFF; stroke-width:0.0000; stroke-opacity:1; 
stroke-linecap:round; stroke-linejoin:round;">
<circle cx="123.0884" cy="78.1304" r="0.2000" /> 
</g>
<g style="fill:#FFFFFF; fill-opacity:1.0000; 
stroke:#FFFFFF; stroke-width:0.0212; stroke-opacity:1; 
stroke-linecap:round; stroke-linejoin:round;">
</g>
<g style="fill:#FFFFFF; fill-opacity:1.0000; 
stroke:#FFFFFF; stroke-width:0.0000; stroke-opacity:1; 
stroke-linecap:round; stroke-linejoin:round;">
<circle cx="159.8422" cy="98.6028" r="0.2000" /> 
</g>
<g style="fill:#FFFFFF; fill-opacity:1.0000; 
stroke:#FFFFFF; stroke-width:0.0212; stroke-opacity:1; 
stroke-linecap:round; stroke-linejoin:round;">
</g>
<g style="fill:#FFFFFF; fill-opacity:1.0000; 
stroke:#FFFFFF; stroke-width:0.0000; stroke-opacity:1; 
stroke-linecap:round; stroke-linejoin:round;">
<circle cx="154.5336" cy="83.2866" r="0.2000" /> 
</g>
<g style="fill:#FFFFFF; fill-opacity:1.0000; 
stroke:#FFFFFF; stroke-width:0.0212; stroke-opacity:1; 
stroke-linecap:round; stroke-linejoin:round;">
</g>
<g style="fill:#FFFFFF; fill-opacity:1.0000; 
stroke:#FFFFFF; stroke-width:0.0000; stroke-opacity:1; 
stroke-linecap:round; stroke-linejoin:round;">
<circle cx="146.0246" cy="69.2404" r="0.2000" /> 
</g>
<g style="fill:#FFFFFF; fill-opacity:1.0000; 
stroke:#FFFFFF; stroke-width:0.0212; stroke-opacity:1; 
stroke-linecap:round; stroke-linejoin:round;">
</g>
<g style="fill:#FFFFFF; fill-opacity:1.0000; 
stroke:#FFFFFF; stroke-width:0.0000; stroke-opacity:1; 
stroke-linecap:round; stroke-linejoin:round;">
<circle cx="159.1818" cy="81.9658" r="0.2000" /> 
</g>
<g style="fill:#FFFFFF; fill-opacity:1.0000; 
stroke:#FFFFFF; stroke-width:0.0212; stroke-opacity:1; 
stroke-linecap:round; stroke-linejoin:round;">
</g>
<g style="fill:#FFFFFF; fill-opacity:1.0000; 
stroke:#FFFFFF; stroke-width:0.0000; stroke-opacity:1; 
stroke-linecap:round; stroke-linejoin:round;">
<circle cx="130.8354" cy="88.9000" r="0.2000" /> 
</g>
<g style="fill:#FFFFFF; fill-opacity:1.0000; 
stroke:#FFFFFF; stroke-width:0.0212; stroke-opacity:1; 
stroke-linecap:round; stroke-linejoin:round;">
</g>
<g style="fill:#FFFFFF; fill-opacity:1.0000; 
stroke:#FFFFFF; stroke-width:0.0000; stroke-opacity:1; 
stroke-linecap:round; stroke-linejoin:round;">
<circle cx="129.1082" cy="84.3026" r="0.2000" /> 
</g>
<g style="fill:#FFFFFF; fill-opacity:1.0000; 
stroke:#FFFFFF; stroke-width:0.0212; stroke-opacity:1; 
stroke-linecap:round; stroke-linejoin:round;">
</g>
<g style="fill:#FFFFFF; fill-opacity:1.0000; 
stroke:#FFFFFF; stroke-width:0.0000; stroke-opacity:1; 
stroke-linecap:round; stroke-linejoin:round;">
<circle cx="121.5644" cy="89.3318" r="0.2000" /> 
</g>
<g style="fill:#FFFFFF; fill-opacity:1.0000; 
stroke:#FFFFFF; stroke-width:0.0212; stroke-opacity:1; 
stroke-linecap:round; stroke-linejoin:round;">
</g>
<g style="fill:#FFFFFF; fill-opacity:1.0000; 
stroke:#FFFFFF; stroke-width:0.0000; stroke-opacity:1; 
stroke-linecap:round; stroke-linejoin:round;">
<circle cx="123.1392" cy="84.4042" r="0.2000" /> 
</g>
<g style="fill:#FFFFFF; fill-opacity:1.0000; 
stroke:#FFFFFF; stroke-width:0.0212; stroke-opacity:1; 
stroke-linecap:round; stroke-linejoin:round;">
</g>
<g style="fill:#FFFFFF; fill-opacity:1.0000; 
stroke:#FFFFFF; stroke-width:0.0000; stroke-opacity:1; 
stroke-linecap:round; stroke-linejoin:round;">
<circle cx="162.7632" cy="70.0024" r="0.2000" /> 
</g>
<g style="fill:#FFFFFF; fill-opacity:1.0000; 
stroke:#FFFFFF; stroke-width:0.0212; stroke-opacity:1; 
stroke-linecap:round; stroke-linejoin:round;">
</g>
<g style="fill:#FFFFFF; fill-opacity:1.0000; 
stroke:#FFFFFF; stroke-width:0.0000; stroke-opacity:1; 
stroke-linecap:round; stroke-linejoin:round;">
<circle cx="155.0416" cy="70.0786" r="0.2000" /> 
</g>
<g style="fill:#FFFFFF; fill-opacity:1.0000; 
stroke:#FFFFFF; stroke-width:0.0212; stroke-opacity:1; 
stroke-linecap:round; stroke-linejoin:round;">
</g>
<g style="fill:#FFFFFF; fill-opacity:1.0000; 
stroke:#FFFFFF; stroke-width:0.0000; stroke-opacity:1; 
stroke-linecap:round; stroke-linejoin:round;">
<circle cx="160.6804" cy="81.1530" r="0.2000" /> 
</g>
<g style="fill:#FFFFFF; fill-opacity:1.0000; 
stroke:#FFFFFF; stroke-width:0.0212; stroke-opacity:1; 
stroke-linecap:round; stroke-linejoin:round;">
</g>
<g style="fill:#FFFFFF; fill-opacity:1.0000; 
stroke:#FFFFFF; stroke-width:0.0000; stroke-opacity:1; 
stroke-linecap:round; stroke-linejoin:round;">
<circle cx="166.8780" cy="88.7730" r="0.2000" /> 
</g>
<g style="fill:#FFFFFF; fill-opacity:1.0000; 
stroke:#FFFFFF; stroke-width:0.0212; stroke-opacity:1; 
stroke-linecap:round; stroke-linejoin:round;">
</g>
<g style="fill:#FFFFFF; fill-opacity:1.0000; 
stroke:#FFFFFF; stroke-width:0.0000; stroke-opacity:1; 
stroke-linecap:round; stroke-linejoin:round;">
<circle cx="160.5534" cy="86.2330" r="0.2000" /> 
</g>
<g style="fill:#FFFFFF; fill-opacity:1.0000; 
stroke:#FFFFFF; stroke-width:0.0212; stroke-opacity:1; 
stroke-linecap:round; stroke-linejoin:round;">
</g>
<g style="fill:#FFFFFF; fill-opacity:1.0000; 
stroke:#FFFFFF; stroke-width:0.0000; stroke-opacity:1; 
stroke-linecap:round; stroke-linejoin:round;">
<circle cx="167.2336" cy="93.5228" r="0.2000" /> 
</g>
<g style="fill:#FFFFFF; fill-opacity:1.0000; 
stroke:#FFFFFF; stroke-width:0.0212; stroke-opacity:1; 
stroke-linecap:round; stroke-linejoin:round;">
</g>
<g style="fill:#FFFFFF; fill-opacity:1.0000; 
stroke:#FFFFFF; stroke-width:0.0000; stroke-opacity:1; 
stroke-linecap:round; stroke-linejoin:round;">
<circle cx="165.0492" cy="90.4494" r="0.2000" /> 
</g>
<g style="fill:#FFFFFF; fill-opacity:1.0000; 
stroke:#FFFFFF; stroke-width:0.0212; stroke-opacity:1; 
stroke-linecap:round; stroke-linejoin:round;">
</g>
<g style="fill:#FFFFFF; fill-opacity:1.0000; 
stroke:#FFFFFF; stroke-width:0.0000; stroke-opacity:1; 
stroke-linecap:round; stroke-linejoin:round;">
<circle cx="165.7350" cy="80.1624" r="0.2000" /> 
</g>
<g style="fill:#FFFFFF; fill-opacity:1.0000; 
stroke:#FFFFFF; stroke-width:0.0212; stroke-opacity:1; 
stroke-linecap:round; stroke-linejoin:round;">
</g>
<g style="fill:#FFFFFF; fill-opacity:1.0000; 
stroke:#FFFFFF; stroke-width:0.0000; stroke-opacity:1; 
stroke-linecap:round; stroke-linejoin:round;">
<circle cx="170.4594" cy="80.4164" r="0.2000" /> 
</g>
<g style="fill:#FFFFFF; fill-opacity:1.0000; 
stroke:#FFFFFF; stroke-width:0.0212; stroke-opacity:1; 
stroke-linecap:round; stroke-linejoin:round;">
</g>
<g style="fill:#FFFFFF; fill-opacity:1.0000; 
stroke:#FFFFFF; stroke-width:0.0000; stroke-opacity:1; 
stroke-linecap:round; stroke-linejoin:round;">
<circle cx="172.3898" cy="88.1380" r="0.2000" /> 
</g>
<g style="fill:#FFFFFF; fill-opacity:1.0000; 
stroke:#FFFFFF; stroke-width:0.0212; stroke-opacity:1; 
stroke-linecap:round; stroke-linejoin:round;">
</g>
<g style="fill:#FFFFFF; fill-opacity:1.0000; 
stroke:#FFFFFF; stroke-width:0.0000; stroke-opacity:1; 
stroke-linecap:round; stroke-linejoin:round;">
<circle cx="170.5610" cy="90.6780" r="0.2000" /> 
</g>
<g style="fill:#FFFFFF; fill-opacity:1.0000; 
stroke:#FFFFFF; stroke-width:0.0212; stroke-opacity:1; 
stroke-linecap:round; stroke-linejoin:round;">
</g>
<g style="fill:#FFFFFF; fill-opacity:1.0000; 
stroke:#FFFFFF; stroke-width:0.0000; stroke-opacity:1; 
stroke-linecap:round; stroke-linejoin:round;">
<circle cx="156.8958" cy="87.5538" r="0.2000" /> 
</g>
<g style="fill:#FFFFFF; fill-opacity:1.0000; 
stroke:#FFFFFF; stroke-width:0.0212; stroke-opacity:1; 
stroke-linecap:round; stroke-linejoin:round;">
</g>
<g style="fill:#FFFFFF; fill-opacity:1.0000; 
stroke:#FFFFFF; stroke-width:0.0000; stroke-opacity:1; 
stroke-linecap:round; stroke-linejoin:round;">
<circle cx="156.1592" cy="88.3920" r="0.2000" /> 
</g>
<g style="fill:#FFFFFF; fill-opacity:1.0000; 
stroke:#FFFFFF; stroke-width:0.0212; stroke-opacity:1; 
stroke-linecap:round; stroke-linejoin:round;">
</g>
<g style="fill:#FFFFFF; fill-opacity:1.0000; 
stroke:#FFFFFF; stroke-width:0.0000; stroke-opacity:1; 
stroke-linecap:round; stroke-linejoin:round;">
<circle cx="156.2862" cy="91.6940" r="0.2000" /> 
</g>
<g style="fill:#FFFFFF; fill-opacity:1.0000; 
stroke:#FFFFFF; stroke-width:0.0212; stroke-opacity:1; 
stroke-linecap:round; stroke-linejoin:round;">
</g>
<g style="fill:#FFFFFF; fill-opacity:1.0000; 
stroke:#FFFFFF; stroke-width:0.0000; stroke-opacity:1; 
stroke-linecap:round; stroke-linejoin:round;">
<circle cx="155.0670" cy="88.5952" r="0.2000" /> 
</g>
<g style="fill:#FFFFFF; fill-opacity:1.0000; 
stroke:#FFFFFF; stroke-width:0.0212; stroke-opacity:1; 
stroke-linecap:round; stroke-linejoin:round;">
</g>
<g style="fill:#FFFFFF; fill-opacity:1.0000; 
stroke:#FFFFFF; stroke-width:0.0000; stroke-opacity:1; 
stroke-linecap:round; stroke-linejoin:round;">
<circle cx="152.6794" cy="88.3158" r="0.2000" /> 
</g>
<g style="fill:#FFFFFF; fill-opacity:1.0000; 
stroke:#FFFFFF; stroke-width:0.0212; stroke-opacity:1; 
stroke-linecap:round; stroke-linejoin:round;">
</g>
<g style="fill:#FFFFFF; fill-opacity:1.0000; 
stroke:#FFFFFF; stroke-width:0.0000; stroke-opacity:1; 
stroke-linecap:round; stroke-linejoin:round;">
<circle cx="152.0698" cy="87.2236" r="0.2000" /> 
</g>
<g style="fill:#FFFFFF; fill-opacity:1.0000; 
stroke:#FFFFFF; stroke-width:0.0212; stroke-opacity:1; 
stroke-linecap:round; stroke-linejoin:round;">
</g>
<g style="fill:#FFFFFF; fill-opacity:1.0000; 
stroke:#FFFFFF; stroke-width:0.0000; stroke-opacity:1; 
stroke-linecap:round; stroke-linejoin:round;">
<circle cx="151.6891" cy="85.8520" r="0.2000" /> 
</g>
<g style="fill:#FFFFFF; fill-opacity:1.0000; 
stroke:#FFFFFF; stroke-width:0.0212; stroke-opacity:1; 
stroke-linecap:round; stroke-linejoin:round;">
</g>
<g style="fill:#FFFFFF; fill-opacity:1.0000; 
stroke:#FFFFFF; stroke-width:0.0000; stroke-opacity:1; 
stroke-linecap:round; stroke-linejoin:round;">
<circle cx="150.1394" cy="81.8896" r="0.2000" /> 
</g>
<g style="fill:#FFFFFF; fill-opacity:1.0000; 
stroke:#FFFFFF; stroke-width:0.0212; stroke-opacity:1; 
stroke-linecap:round; stroke-linejoin:round;">
</g>
<g style="fill:#FFFFFF; fill-opacity:1.0000; 
stroke:#FFFFFF; stroke-width:0.0000; stroke-opacity:1; 
stroke-linecap:round; stroke-linejoin:round;">
<circle cx="148.5951" cy="85.3897" r="0.2000" /> 
</g>
<g style="fill:#FFFFFF; fill-opacity:1.0000; 
stroke:#FFFFFF; stroke-width:0.0212; stroke-opacity:1; 
stroke-linecap:round; stroke-linejoin:round;">
</g>
<g style="fill:#FFFFFF; fill-opacity:1.0000; 
stroke:#FFFFFF; stroke-width:0.0000; stroke-opacity:1; 
stroke-linecap:round; stroke-linejoin:round;">
<circle cx="155.9560" cy="85.7758" r="0.2000" /> 
</g>
<g style="fill:#FFFFFF; fill-opacity:1.0000; 
stroke:#FFFFFF; stroke-width:0.0212; stroke-opacity:1; 
stroke-linecap:round; stroke-linejoin:round;">
</g>
<g style="fill:#FFFFFF; fill-opacity:1.0000; 
stroke:#FFFFFF; stroke-width:0.0000; stroke-opacity:1; 
stroke-linecap:round; stroke-linejoin:round;">
<circle cx="177.0000" cy="97.0000" r="1.3500" /> 
</g>
<g style="fill:#FFFFFF; fill-opacity:1.0000; 
stroke:#FFFFFF; stroke-width:0.0212; stroke-opacity:1; 
stroke-linecap:round; stroke-linejoin:round;">
</g>
<g style="fill:#FFFFFF; fill-opacity:1.0000; 
stroke:#FFFFFF; stroke-width:0.0000; stroke-opacity:1; 
stroke-linecap:round; stroke-linejoin:round;">
<circle cx="123.0000" cy="97.0000" r="1.3500" /> 
</g>
<g style="fill:#FFFFFF; fill-opacity:1.0000; 
stroke:#FFFFFF; stroke-width:0.0212; stroke-opacity:1; 
stroke-linecap:round; stroke-linejoin:round;">
</g>
<g style="fill:#FFFFFF; fill-opacity:1.0000; 
stroke:#FFFFFF; stroke-width:0.0000; stroke-opacity:1; 
stroke-linecap:round; stroke-linejoin:round;">
<circle cx="123.0000" cy="69.5000" r="1.3500" /> 
</g>
<g style="fill:#FFFFFF; fill-opacity:1.0000; 
stroke:#FFFFFF; stroke-width:0.0212; stroke-opacity:1; 
stroke-linecap:round; stroke-linejoin:round;">
</g>
<g style="fill:#FFFFFF; fill-opacity:1.0000; 
stroke:#FFFFFF; stroke-width:0.0000; stroke-opacity:1; 
stroke-linecap:round; stroke-linejoin:round;">
<circle cx="177.0000" cy="69.5000" r="1.3500" /> 
</g>
<g style="fill:#FFFFFF; fill-opacity:1.0000; 
stroke:#FFFFFF; stroke-width:0.0212; stroke-opacity:1; 
stroke-linecap:round; stroke-linejoin:round;">
</g>
<g style="fill:#FFFFFF; fill-opacity:1.0000; 
stroke:#FFFFFF; stroke-width:1.5000; stroke-opacity:1; 
stroke-linecap:round; stroke-linejoin:round;">
</g>
<g style="fill:#FFFFFF; fill-opacity:0.0; 
stroke:#FFFFFF; stroke-width:1.5000; stroke-opacity:1; 
stroke-linecap:round; stroke-linejoin:round;">
<path d="M123.2000 81.4500
L123.2000 80.9500
" />
</g>
<g style="fill:#FFFFFF; fill-opacity:1.0000; 
stroke:#FFFFFF; stroke-width:0.0000; stroke-opacity:1; 
stroke-linecap:round; stroke-linejoin:round;">
<circle cx="127.6000" cy="81.2000" r="1.0000" /> 
</g>
<g style="fill:#FFFFFF; fill-opacity:1.0000; 
stroke:#FFFFFF; stroke-width:0.0212; stroke-opacity:1; 
stroke-linecap:round; stroke-linejoin:round;">
</g>
<g style="fill:#FFFFFF; fill-opacity:1.0000; 
stroke:#FFFFFF; stroke-width:0.0000; stroke-opacity:1; 
stroke-linecap:round; stroke-linejoin:round;">
<circle cx="136.3000" cy="79.5000" r="0.5000" /> 
</g>
<g style="fill:#FFFFFF; fill-opacity:1.0000; 
stroke:#FFFFFF; stroke-width:0.0212; stroke-opacity:1; 
stroke-linecap:round; stroke-linejoin:round;">
</g>
<g style="fill:#FFFFFF; fill-opacity:1.0000; 
stroke:#FFFFFF; stroke-width:0.0000; stroke-opacity:1; 
stroke-linecap:round; stroke-linejoin:round;">
<circle cx="136.3000" cy="76.9600" r="0.5000" /> 
</g>
<g style="fill:#FFFFFF; fill-opacity:1.0000; 
stroke:#FFFFFF; stroke-width:0.0212; stroke-opacity:1; 
stroke-linecap:round; stroke-linejoin:round;">
</g>
<g style="fill:#FFFFFF; fill-opacity:1.0000; 
stroke:#FFFFFF; stroke-width:0.0000; stroke-opacity:1; 
stroke-linecap:round; stroke-linejoin:round;">
<circle cx="136.3000" cy="74.4200" r="0.5000" /> 
</g>
<g style="fill:#FFFFFF; fill-opacity:1.0000; 
stroke:#FFFFFF; stroke-width:0.0212; stroke-opacity:1; 
stroke-linecap:round; stroke-linejoin:round;">
</g>
<g style="fill:#FFFFFF; fill-opacity:1.0000; 
stroke:#FFFFFF; stroke-width:0.0000; stroke-opacity:1; 
stroke-linecap:round; stroke-linejoin:round;">
<circle cx="136.3000" cy="71.8800" r="0.5000" /> 
</g>
<g style="fill:#FFFFFF; fill-opacity:1.0000; 
stroke:#FFFFFF; stroke-width:0.0212; stroke-opacity:1; 
stroke-linecap:round; stroke-linejoin:round;">
</g>
<g style="fill:#FFFFFF; fill-opacity:1.0000; 
stroke:#FFFFFF; stroke-width:0.0000; stroke-opacity:1; 
stroke-linecap:round; stroke-linejoin:round;">
<circle cx="136.3000" cy="69.3400" r="0.5000" /> 
</g>
<g style="fill:#FFFFFF; fill-opacity:1.0000; 
stroke:#FFFFFF; stroke-width:0.0212; stroke-opacity:1; 
stroke-linecap:round; stroke-linejoin:round;">
</g>
<g style="fill:#FFFFFF; fill-opacity:1.0000; 
stroke:#FFFFFF; stroke-width:0.0000; stroke-opacity:1; 
stroke-linecap:round; stroke-linejoin:round;">
<circle cx="151.8920" cy="95.2500" r="0.5000" /> 
</g>
<g style="fill:#FFFFFF; fill-opacity:1.0000; 
stroke:#FFFFFF; stroke-width:0.0212; stroke-opacity:1; 
stroke-linecap:round; stroke-linejoin:round;">
</g>
<g style="fill:#FFFFFF; fill-opacity:1.0000; 
stroke:#FFFFFF; stroke-width:0.0000; stroke-opacity:1; 
stroke-linecap:round; stroke-linejoin:round;">
<circle cx="154.4320" cy="95.2500" r="0.5000" /> 
</g>
<g style="fill:#FFFFFF; fill-opacity:1.0000; 
stroke:#FFFFFF; stroke-width:0.0212; stroke-opacity:1; 
stroke-linecap:round; stroke-linejoin:round;">
</g>
<g style="fill:#FFFFFF; fill-opacity:1.0000; 
stroke:#FFFFFF; stroke-width:0.0000; stroke-opacity:1; 
stroke-linecap:round; stroke-linejoin:round;">
<circle cx="151.8920" cy="97.7900" r="0.5000" /> 
</g>
<g style="fill:#FFFFFF; fill-opacity:1.0000; 
stroke:#FFFFFF; stroke-width:0.0212; stroke-opacity:1; 
stroke-linecap:round; stroke-linejoin:round;">
</g>
<g style="fill:#FFFFFF; fill-opacity:1.0000; 
stroke:#FFFFFF; stroke-width:0.0000; stroke-opacity:1; 
stroke-linecap:round; stroke-linejoin:round;">
<circle cx="154.4320" cy="97.7900" r="0.5000" /> 
</g>
<g style="fill:#FFFFFF; fill-opacity:1.0000; 
stroke:#FFFFFF; stroke-width:0.0212; stroke-opacity:1; 
stroke-linecap:round; stroke-linejoin:round;">
</g>
<g style="fill:#FFFFFF; fill-opacity:1.0000; 
stroke:#FFFFFF; stroke-width:0.0000; stroke-opacity:1; 
stroke-linecap:round; stroke-linejoin:round;">
<circle cx="141.1224" cy="97.7646" r="0.5000" /> 
</g>
<g style="fill:#FFFFFF; fill-opacity:1.0000; 
stroke:#FFFFFF; stroke-width:0.0212; stroke-opacity:1; 
stroke-linecap:round; stroke-linejoin:round;">
</g>
<g style="fill:#FFFFFF; fill-opacity:1.0000; 
stroke:#FFFFFF; stroke-width:0.0000; stroke-opacity:1; 
stroke-linecap:round; stroke-linejoin:round;">
<circle cx="141.1224" cy="95.2246" r="0.5000" /> 
</g>
<g style="fill:#FFFFFF; fill-opacity:1.0000; 
stroke:#FFFFFF; stroke-width:0.0212; stroke-opacity:1; 
stroke-linecap:round; stroke-linejoin:round;">
</g>
<g style="fill:#FFFFFF; fill-opacity:1.0000; 
stroke:#FFFFFF; stroke-width:0.0000; stroke-opacity:1; 
stroke-linecap:round; stroke-linejoin:round;">
<circle cx="143.6624" cy="97.7646" r="0.5000" /> 
</g>
<g style="fill:#FFFFFF; fill-opacity:1.0000; 
stroke:#FFFFFF; stroke-width:0.0212; stroke-opacity:1; 
stroke-linecap:round; stroke-linejoin:round;">
</g>
<g style="fill:#FFFFFF; fill-opacity:1.0000; 
stroke:#FFFFFF; stroke-width:0.0000; stroke-opacity:1; 
stroke-linecap:round; stroke-linejoin:round;">
<circle cx="143.6624" cy="95.2246" r="0.5000" /> 
</g>
<g style="fill:#FFFFFF; fill-opacity:1.0000; 
stroke:#FFFFFF; stroke-width:0.0212; stroke-opacity:1; 
stroke-linecap:round; stroke-linejoin:round;">
</g>
<g style="fill:#FFFFFF; fill-opacity:1.0000; 
stroke:#FFFFFF; stroke-width:0.0000; stroke-opacity:1; 
stroke-linecap:round; stroke-linejoin:round;">
<circle cx="146.2024" cy="97.7646" r="0.5000" /> 
</g>
<g style="fill:#FFFFFF; fill-opacity:1.0000; 
stroke:#FFFFFF; stroke-width:0.0212; stroke-opacity:1; 
stroke-linecap:round; stroke-linejoin:round;">
</g>
<g style="fill:#FFFFFF; fill-opacity:1.0000; 
stroke:#FFFFFF; stroke-width:0.0000; stroke-opacity:1; 
stroke-linecap:round; stroke-linejoin:round;">
<circle cx="146.2024" cy="95.2246" r="0.5000" /> 
</g>
<g style="fill:#FFFFFF; fill-opacity:1.0000; 
stroke:#FFFFFF; stroke-width:0.0212; stroke-opacity:1; 
stroke-linecap:round; stroke-linejoin:round;">
</g>
<g style="fill:#FFFFFF; fill-opacity:1.0000; 
stroke:#FFFFFF; stroke-width:0.0000; stroke-opacity:1; 
stroke-linecap:round; stroke-linejoin:round;">
<circle cx="140.9700" cy="77.2160" r="0.5000" /> 
</g>
<g style="fill:#FFFFFF; fill-opacity:1.0000; 
stroke:#FFFFFF; stroke-width:0.0212; stroke-opacity:1; 
stroke-linecap:round; stroke-linejoin:round;">
</g>
<g style="fill:#FFFFFF; fill-opacity:1.0000; 
stroke:#FFFFFF; stroke-width:0.0000; stroke-opacity:1; 
stroke-linecap:round; stroke-linejoin:round;">
<circle cx="140.9700" cy="79.7560" r="0.5000" /> 
</g>
<g style="fill:#FFFFFF; fill-opacity:1.0000; 
stroke:#FFFFFF; stroke-width:0.0212; stroke-opacity:1; 
stroke-linecap:round; stroke-linejoin:round;">
</g>
<g style="fill:#FFFFFF; fill-opacity:1.0000; 
stroke:#FFFFFF; stroke-width:0.0000; stroke-opacity:1; 
stroke-linecap:round; stroke-linejoin:round;">
<circle cx="140.9700" cy="82.2960" r="0.5000" /> 
</g>
<g style="fill:#FFFFFF; fill-opacity:1.0000; 
stroke:#FFFFFF; stroke-width:0.0212; stroke-opacity:1; 
stroke-linecap:round; stroke-linejoin:round;">
</g>
<g style="fill:#FFFFFF; fill-opacity:1.0000; 
stroke:#FFFFFF; stroke-width:0.0000; stroke-opacity:1; 
stroke-linecap:round; stroke-linejoin:round;">
<circle cx="140.9700" cy="84.8360" r="0.5000" /> 
</g>
<g style="fill:#FFFFFF; fill-opacity:1.0000; 
stroke:#FFFFFF; stroke-width:0.0212; stroke-opacity:1; 
stroke-linecap:round; stroke-linejoin:round;">
</g>
<g style="fill:#FFFFFF; fill-opacity:1.0000; 
stroke:#FFFFFF; stroke-width:0.0000; stroke-opacity:1; 
stroke-linecap:round; stroke-linejoin:round;">
<circle cx="140.9700" cy="87.3760" r="0.5000" /> 
</g>
<g style="fill:#FFFFFF; fill-opacity:1.0000; 
stroke:#FFFFFF; stroke-width:0.0212; stroke-opacity:1; 
stroke-linecap:round; stroke-linejoin:round;">
</g>
<g style="fill:#FFFFFF; fill-opacity:1.0000; 
stroke:#FFFFFF; stroke-width:0.0000; stroke-opacity:1; 
stroke-linecap:round; stroke-linejoin:round;">
<circle cx="140.9700" cy="89.9160" r="0.5000" /> 
</g>
<g style="fill:#FFFFFF; fill-opacity:1.0000; 
stroke:#FFFFFF; stroke-width:0.0212; stroke-opacity:1; 
stroke-linecap:round; stroke-linejoin:round;">
</g>
<g style="fill:#FFFFFF; fill-opacity:1.0000; 
stroke:#FFFFFF; stroke-width:0.0000; stroke-opacity:1; 
stroke-linecap:round; stroke-linejoin:round;">
<circle cx="173.4820" cy="81.5340" r="0.4750" /> 
</g>
<g style="fill:#FFFFFF; fill-opacity:1.0000; 
stroke:#FFFFFF; stroke-width:0.0212; stroke-opacity:1; 
stroke-linecap:round; stroke-linejoin:round;">
</g>
<g style="fill:#FFFFFF; fill-opacity:1.0000; 
stroke:#FFFFFF; stroke-width:0.0000; stroke-opacity:1; 
stroke-linecap:round; stroke-linejoin:round;">
<circle cx="173.4820" cy="84.0340" r="0.4750" /> 
</g>
<g style="fill:#FFFFFF; fill-opacity:1.0000; 
stroke:#FFFFFF; stroke-width:0.0212; stroke-opacity:1; 
stroke-linecap:round; stroke-linejoin:round;">
</g>
<g style="fill:#FFFFFF; fill-opacity:1.0000; 
stroke:#FFFFFF; stroke-width:0.0000; stroke-opacity:1; 
stroke-linecap:round; stroke-linejoin:round;">
<circle cx="175.4820" cy="84.0340" r="0.4750" /> 
</g>
<g style="fill:#FFFFFF; fill-opacity:1.0000; 
stroke:#FFFFFF; stroke-width:0.0212; stroke-opacity:1; 
stroke-linecap:round; stroke-linejoin:round;">
</g>
<g style="fill:#FFFFFF; fill-opacity:1.0000; 
stroke:#FFFFFF; stroke-width:0.0000; stroke-opacity:1; 
stroke-linecap:round; stroke-linejoin:round;">
<circle cx="175.4820" cy="81.5340" r="0.4750" /> 
</g>
<g style="fill:#FFFFFF; fill-opacity:1.0000; 
stroke:#FFFFFF; stroke-width:0.0212; stroke-opacity:1; 
stroke-linecap:round; stroke-linejoin:round;">
</g>
<g style="fill:#FFFFFF; fill-opacity:1.0000; 
stroke:#FFFFFF; stroke-width:0.0000; stroke-opacity:1; 
stroke-linecap:round; stroke-linejoin:round;">
<circle cx="178.3420" cy="76.7840" r="1.1500" /> 
</g>
<g style="fill:#FFFFFF; fill-opacity:1.0000; 
stroke:#FFFFFF; stroke-width:0.0212; stroke-opacity:1; 
stroke-linecap:round; stroke-linejoin:round;">
</g>
<g style="fill:#FFFFFF; fill-opacity:1.0000; 
stroke:#FFFFFF; stroke-width:0.0000; stroke-opacity:1; 
stroke-linecap:round; stroke-linejoin:round;">
<circle cx="178.3420" cy="88.7840" r="1.1500" /> 
</g>
<g style="fill:#FFFFFF; fill-opacity:1.0000; 
stroke:#FFFFFF; stroke-width:0.0212; stroke-opacity:1; 
stroke-linecap:round; stroke-linejoin:round;">
</g>
<g style="fill:#000000; fill-opacity:1.0000; 
stroke:#000000; stroke-width:0.0212; stroke-opacity:1; 
stroke-linecap:round; stroke-linejoin:round;">
</g> 
</svg>
