<?xml version="1.0" standalone="no"?>
 <!DOCTYPE svg PUBLIC "-//W3C//DTD SVG 1.1//EN" 
 "http://www.w3.org/Graphics/SVG/1.1/DTD/svg11.dtd"> 
<svg
  xmlns:svg="http://www.w3.org/2000/svg"
  xmlns="http://www.w3.org/2000/svg"
  xmlns:xlink="http://www.w3.org/1999/xlink"
  version="1.1"
  width="297.0022mm" height="210.0072mm" viewBox="0.0000 0.0000 297.0022 210.0072">
<title>SVG Image created as t1-B_Silkscreen.svg date 2024/04/10 14:29:57 </title>
  <desc>Image generated by PCBNEW </desc>
<g style="fill:#000000; fill-opacity:1.0000;stroke:#000000; stroke-opacity:1.0000;
stroke-linecap:round; stroke-linejoin:round;"
 transform="translate(0 0) scale(1 1)">
</g>
<g style="fill:none; 
stroke:#000000; stroke-width:0.1500; stroke-opacity:1; 
stroke-linecap:round; stroke-linejoin:round;">
<text x="168.2750" y="87.7060"
textLength="17.8690" font-size="1.3333" lengthAdjust="spacingAndGlyphs"
text-anchor="middle" opacity="0">KiBot variants example</text>
<g class="stroked-text"><desc>KiBot variants example</desc>
<path d="M159.7036 87.6608
L159.7036 86.6608
" />
<path d="M160.2750 87.6608
L159.8464 87.0894
" />
<path d="M160.2750 86.6608
L159.7036 87.2323
" />
<path d="M160.7036 87.6608
L160.7036 86.9942
" />
<path d="M160.7036 86.6608
L160.6560 86.7085
" />
<path d="M160.6560 86.7085
L160.7036 86.7561
" />
<path d="M160.7036 86.7561
L160.7512 86.7085
" />
<path d="M160.7512 86.7085
L160.7036 86.6608
" />
<path d="M160.7036 86.6608
L160.7036 86.7561
" />
<path d="M161.5131 87.1370
L161.6560 87.1847
" />
<path d="M161.6560 87.1847
L161.7036 87.2323
" />
<path d="M161.7036 87.2323
L161.7512 87.3275
" />
<path d="M161.7512 87.3275
L161.7512 87.4704
" />
<path d="M161.7512 87.4704
L161.7036 87.5656
" />
<path d="M161.7036 87.5656
L161.6560 87.6132
" />
<path d="M161.6560 87.6132
L161.5607 87.6608
" />
<path d="M161.5607 87.6608
L161.1798 87.6608
" />
<path d="M161.1798 87.6608
L161.1798 86.6608
" />
<path d="M161.1798 86.6608
L161.5131 86.6608
" />
<path d="M161.5131 86.6608
L161.6083 86.7085
" />
<path d="M161.6083 86.7085
L161.6560 86.7561
" />
<path d="M161.6560 86.7561
L161.7036 86.8513
" />
<path d="M161.7036 86.8513
L161.7036 86.9466
" />
<path d="M161.7036 86.9466
L161.6560 87.0418
" />
<path d="M161.6560 87.0418
L161.6083 87.0894
" />
<path d="M161.6083 87.0894
L161.5131 87.1370
" />
<path d="M161.5131 87.1370
L161.1798 87.1370
" />
<path d="M162.3226 87.6608
L162.2274 87.6132
" />
<path d="M162.2274 87.6132
L162.1798 87.5656
" />
<path d="M162.1798 87.5656
L162.1321 87.4704
" />
<path d="M162.1321 87.4704
L162.1321 87.1847
" />
<path d="M162.1321 87.1847
L162.1798 87.0894
" />
<path d="M162.1798 87.0894
L162.2274 87.0418
" />
<path d="M162.2274 87.0418
L162.3226 86.9942
" />
<path d="M162.3226 86.9942
L162.4655 86.9942
" />
<path d="M162.4655 86.9942
L162.5607 87.0418
" />
<path d="M162.5607 87.0418
L162.6083 87.0894
" />
<path d="M162.6083 87.0894
L162.6560 87.1847
" />
<path d="M162.6560 87.1847
L162.6560 87.4704
" />
<path d="M162.6560 87.4704
L162.6083 87.5656
" />
<path d="M162.6083 87.5656
L162.5607 87.6132
" />
<path d="M162.5607 87.6132
L162.4655 87.6608
" />
<path d="M162.4655 87.6608
L162.3226 87.6608
" />
<path d="M162.9417 86.9942
L163.3226 86.9942
" />
<path d="M163.0845 86.6608
L163.0845 87.5180
" />
<path d="M163.0845 87.5180
L163.1321 87.6132
" />
<path d="M163.1321 87.6132
L163.2274 87.6608
" />
<path d="M163.2274 87.6608
L163.3226 87.6608
" />
<path d="M164.3226 86.9942
L164.5607 87.6608
" />
<path d="M164.5607 87.6608
L164.7988 86.9942
" />
<path d="M165.6083 87.6608
L165.6083 87.1370
" />
<path d="M165.6083 87.1370
L165.5607 87.0418
" />
<path d="M165.5607 87.0418
L165.4655 86.9942
" />
<path d="M165.4655 86.9942
L165.2750 86.9942
" />
<path d="M165.2750 86.9942
L165.1798 87.0418
" />
<path d="M165.6083 87.6132
L165.5131 87.6608
" />
<path d="M165.5131 87.6608
L165.2750 87.6608
" />
<path d="M165.2750 87.6608
L165.1798 87.6132
" />
<path d="M165.1798 87.6132
L165.1321 87.5180
" />
<path d="M165.1321 87.5180
L165.1321 87.4228
" />
<path d="M165.1321 87.4228
L165.1798 87.3275
" />
<path d="M165.1798 87.3275
L165.2750 87.2799
" />
<path d="M165.2750 87.2799
L165.5131 87.2799
" />
<path d="M165.5131 87.2799
L165.6083 87.2323
" />
<path d="M166.0845 87.6608
L166.0845 86.9942
" />
<path d="M166.0845 87.1847
L166.1321 87.0894
" />
<path d="M166.1321 87.0894
L166.1798 87.0418
" />
<path d="M166.1798 87.0418
L166.2750 86.9942
" />
<path d="M166.2750 86.9942
L166.3702 86.9942
" />
<path d="M166.7036 87.6608
L166.7036 86.9942
" />
<path d="M166.7036 86.6608
L166.6560 86.7085
" />
<path d="M166.6560 86.7085
L166.7036 86.7561
" />
<path d="M166.7036 86.7561
L166.7512 86.7085
" />
<path d="M166.7512 86.7085
L166.7036 86.6608
" />
<path d="M166.7036 86.6608
L166.7036 86.7561
" />
<path d="M167.6083 87.6608
L167.6083 87.1370
" />
<path d="M167.6083 87.1370
L167.5607 87.0418
" />
<path d="M167.5607 87.0418
L167.4655 86.9942
" />
<path d="M167.4655 86.9942
L167.2750 86.9942
" />
<path d="M167.2750 86.9942
L167.1798 87.0418
" />
<path d="M167.6083 87.6132
L167.5131 87.6608
" />
<path d="M167.5131 87.6608
L167.2750 87.6608
" />
<path d="M167.2750 87.6608
L167.1798 87.6132
" />
<path d="M167.1798 87.6132
L167.1321 87.5180
" />
<path d="M167.1321 87.5180
L167.1321 87.4228
" />
<path d="M167.1321 87.4228
L167.1798 87.3275
" />
<path d="M167.1798 87.3275
L167.2750 87.2799
" />
<path d="M167.2750 87.2799
L167.5131 87.2799
" />
<path d="M167.5131 87.2799
L167.6083 87.2323
" />
<path d="M168.0845 86.9942
L168.0845 87.6608
" />
<path d="M168.0845 87.0894
L168.1321 87.0418
" />
<path d="M168.1321 87.0418
L168.2274 86.9942
" />
<path d="M168.2274 86.9942
L168.3702 86.9942
" />
<path d="M168.3702 86.9942
L168.4655 87.0418
" />
<path d="M168.4655 87.0418
L168.5131 87.1370
" />
<path d="M168.5131 87.1370
L168.5131 87.6608
" />
<path d="M168.8464 86.9942
L169.2274 86.9942
" />
<path d="M168.9893 86.6608
L168.9893 87.5180
" />
<path d="M168.9893 87.5180
L169.0369 87.6132
" />
<path d="M169.0369 87.6132
L169.1321 87.6608
" />
<path d="M169.1321 87.6608
L169.2274 87.6608
" />
<path d="M169.5131 87.6132
L169.6083 87.6608
" />
<path d="M169.6083 87.6608
L169.7988 87.6608
" />
<path d="M169.7988 87.6608
L169.8940 87.6132
" />
<path d="M169.8940 87.6132
L169.9417 87.5180
" />
<path d="M169.9417 87.5180
L169.9417 87.4704
" />
<path d="M169.9417 87.4704
L169.8940 87.3751
" />
<path d="M169.8940 87.3751
L169.7988 87.3275
" />
<path d="M169.7988 87.3275
L169.6560 87.3275
" />
<path d="M169.6560 87.3275
L169.5607 87.2799
" />
<path d="M169.5607 87.2799
L169.5131 87.1847
" />
<path d="M169.5131 87.1847
L169.5131 87.1370
" />
<path d="M169.5131 87.1370
L169.5607 87.0418
" />
<path d="M169.5607 87.0418
L169.6560 86.9942
" />
<path d="M169.6560 86.9942
L169.7988 86.9942
" />
<path d="M169.7988 86.9942
L169.8940 87.0418
" />
<path d="M171.5131 87.6132
L171.4179 87.6608
" />
<path d="M171.4179 87.6608
L171.2274 87.6608
" />
<path d="M171.2274 87.6608
L171.1321 87.6132
" />
<path d="M171.1321 87.6132
L171.0845 87.5180
" />
<path d="M171.0845 87.5180
L171.0845 87.1370
" />
<path d="M171.0845 87.1370
L171.1321 87.0418
" />
<path d="M171.1321 87.0418
L171.2274 86.9942
" />
<path d="M171.2274 86.9942
L171.4179 86.9942
" />
<path d="M171.4179 86.9942
L171.5131 87.0418
" />
<path d="M171.5131 87.0418
L171.5607 87.1370
" />
<path d="M171.5607 87.1370
L171.5607 87.2323
" />
<path d="M171.5607 87.2323
L171.0845 87.3275
" />
<path d="M171.8940 87.6608
L172.4179 86.9942
" />
<path d="M171.8940 86.9942
L172.4179 87.6608
" />
<path d="M173.2274 87.6608
L173.2274 87.1370
" />
<path d="M173.2274 87.1370
L173.1798 87.0418
" />
<path d="M173.1798 87.0418
L173.0845 86.9942
" />
<path d="M173.0845 86.9942
L172.8940 86.9942
" />
<path d="M172.8940 86.9942
L172.7988 87.0418
" />
<path d="M173.2274 87.6132
L173.1321 87.6608
" />
<path d="M173.1321 87.6608
L172.8940 87.6608
" />
<path d="M172.8940 87.6608
L172.7988 87.6132
" />
<path d="M172.7988 87.6132
L172.7512 87.5180
" />
<path d="M172.7512 87.5180
L172.7512 87.4228
" />
<path d="M172.7512 87.4228
L172.7988 87.3275
" />
<path d="M172.7988 87.3275
L172.8940 87.2799
" />
<path d="M172.8940 87.2799
L173.1321 87.2799
" />
<path d="M173.1321 87.2799
L173.2274 87.2323
" />
<path d="M173.7036 87.6608
L173.7036 86.9942
" />
<path d="M173.7036 87.0894
L173.7512 87.0418
" />
<path d="M173.7512 87.0418
L173.8464 86.9942
" />
<path d="M173.8464 86.9942
L173.9893 86.9942
" />
<path d="M173.9893 86.9942
L174.0845 87.0418
" />
<path d="M174.0845 87.0418
L174.1321 87.1370
" />
<path d="M174.1321 87.1370
L174.1321 87.6608
" />
<path d="M174.1321 87.1370
L174.1798 87.0418
" />
<path d="M174.1798 87.0418
L174.2750 86.9942
" />
<path d="M174.2750 86.9942
L174.4179 86.9942
" />
<path d="M174.4179 86.9942
L174.5131 87.0418
" />
<path d="M174.5131 87.0418
L174.5607 87.1370
" />
<path d="M174.5607 87.1370
L174.5607 87.6608
" />
<path d="M175.0369 86.9942
L175.0369 87.9942
" />
<path d="M175.0369 87.0418
L175.1321 86.9942
" />
<path d="M175.1321 86.9942
L175.3226 86.9942
" />
<path d="M175.3226 86.9942
L175.4179 87.0418
" />
<path d="M175.4179 87.0418
L175.4655 87.0894
" />
<path d="M175.4655 87.0894
L175.5131 87.1847
" />
<path d="M175.5131 87.1847
L175.5131 87.4704
" />
<path d="M175.5131 87.4704
L175.4655 87.5656
" />
<path d="M175.4655 87.5656
L175.4179 87.6132
" />
<path d="M175.4179 87.6132
L175.3226 87.6608
" />
<path d="M175.3226 87.6608
L175.1321 87.6608
" />
<path d="M175.1321 87.6608
L175.0369 87.6132
" />
<path d="M176.0845 87.6608
L175.9893 87.6132
" />
<path d="M175.9893 87.6132
L175.9417 87.5180
" />
<path d="M175.9417 87.5180
L175.9417 86.6608
" />
<path d="M176.8464 87.6132
L176.7512 87.6608
" />
<path d="M176.7512 87.6608
L176.5607 87.6608
" />
<path d="M176.5607 87.6608
L176.4655 87.6132
" />
<path d="M176.4655 87.6132
L176.4179 87.5180
" />
<path d="M176.4179 87.5180
L176.4179 87.1370
" />
<path d="M176.4179 87.1370
L176.4655 87.0418
" />
<path d="M176.4655 87.0418
L176.5607 86.9942
" />
<path d="M176.5607 86.9942
L176.7512 86.9942
" />
<path d="M176.7512 86.9942
L176.8464 87.0418
" />
<path d="M176.8464 87.0418
L176.8940 87.1370
" />
<path d="M176.8940 87.1370
L176.8940 87.2323
" />
<path d="M176.8940 87.2323
L176.4179 87.3275
" />
</g><text x="168.2750" y="89.3160"
textLength="16.2976" font-size="1.3333" lengthAdjust="spacingAndGlyphs"
text-anchor="middle" opacity="0">Not a real life board</text>
<g class="stroked-text"><desc>Not a real life board</desc>
<path d="M160.4893 89.2708
L160.4893 88.2708
" />
<path d="M160.4893 88.2708
L161.0607 89.2708
" />
<path d="M161.0607 89.2708
L161.0607 88.2708
" />
<path d="M161.6798 89.2708
L161.5845 89.2232
" />
<path d="M161.5845 89.2232
L161.5369 89.1756
" />
<path d="M161.5369 89.1756
L161.4893 89.0803
" />
<path d="M161.4893 89.0803
L161.4893 88.7946
" />
<path d="M161.4893 88.7946
L161.5369 88.6994
" />
<path d="M161.5369 88.6994
L161.5845 88.6517
" />
<path d="M161.5845 88.6517
L161.6798 88.6041
" />
<path d="M161.6798 88.6041
L161.8226 88.6041
" />
<path d="M161.8226 88.6041
L161.9179 88.6517
" />
<path d="M161.9179 88.6517
L161.9655 88.6994
" />
<path d="M161.9655 88.6994
L162.0131 88.7946
" />
<path d="M162.0131 88.7946
L162.0131 89.0803
" />
<path d="M162.0131 89.0803
L161.9655 89.1756
" />
<path d="M161.9655 89.1756
L161.9179 89.2232
" />
<path d="M161.9179 89.2232
L161.8226 89.2708
" />
<path d="M161.8226 89.2708
L161.6798 89.2708
" />
<path d="M162.2988 88.6041
L162.6798 88.6041
" />
<path d="M162.4417 88.2708
L162.4417 89.1279
" />
<path d="M162.4417 89.1279
L162.4893 89.2232
" />
<path d="M162.4893 89.2232
L162.5845 89.2708
" />
<path d="M162.5845 89.2708
L162.6798 89.2708
" />
<path d="M164.2036 89.2708
L164.2036 88.7470
" />
<path d="M164.2036 88.7470
L164.1560 88.6517
" />
<path d="M164.1560 88.6517
L164.0607 88.6041
" />
<path d="M164.0607 88.6041
L163.8702 88.6041
" />
<path d="M163.8702 88.6041
L163.7750 88.6517
" />
<path d="M164.2036 89.2232
L164.1083 89.2708
" />
<path d="M164.1083 89.2708
L163.8702 89.2708
" />
<path d="M163.8702 89.2708
L163.7750 89.2232
" />
<path d="M163.7750 89.2232
L163.7274 89.1279
" />
<path d="M163.7274 89.1279
L163.7274 89.0327
" />
<path d="M163.7274 89.0327
L163.7750 88.9375
" />
<path d="M163.7750 88.9375
L163.8702 88.8898
" />
<path d="M163.8702 88.8898
L164.1083 88.8898
" />
<path d="M164.1083 88.8898
L164.2036 88.8422
" />
<path d="M165.4417 89.2708
L165.4417 88.6041
" />
<path d="M165.4417 88.7946
L165.4893 88.6994
" />
<path d="M165.4893 88.6994
L165.5369 88.6517
" />
<path d="M165.5369 88.6517
L165.6321 88.6041
" />
<path d="M165.6321 88.6041
L165.7274 88.6041
" />
<path d="M166.4417 89.2232
L166.3464 89.2708
" />
<path d="M166.3464 89.2708
L166.1560 89.2708
" />
<path d="M166.1560 89.2708
L166.0607 89.2232
" />
<path d="M166.0607 89.2232
L166.0131 89.1279
" />
<path d="M166.0131 89.1279
L166.0131 88.7470
" />
<path d="M166.0131 88.7470
L166.0607 88.6517
" />
<path d="M166.0607 88.6517
L166.1560 88.6041
" />
<path d="M166.1560 88.6041
L166.3464 88.6041
" />
<path d="M166.3464 88.6041
L166.4417 88.6517
" />
<path d="M166.4417 88.6517
L166.4893 88.7470
" />
<path d="M166.4893 88.7470
L166.4893 88.8422
" />
<path d="M166.4893 88.8422
L166.0131 88.9375
" />
<path d="M167.3464 89.2708
L167.3464 88.7470
" />
<path d="M167.3464 88.7470
L167.2988 88.6517
" />
<path d="M167.2988 88.6517
L167.2036 88.6041
" />
<path d="M167.2036 88.6041
L167.0131 88.6041
" />
<path d="M167.0131 88.6041
L166.9179 88.6517
" />
<path d="M167.3464 89.2232
L167.2512 89.2708
" />
<path d="M167.2512 89.2708
L167.0131 89.2708
" />
<path d="M167.0131 89.2708
L166.9179 89.2232
" />
<path d="M166.9179 89.2232
L166.8702 89.1279
" />
<path d="M166.8702 89.1279
L166.8702 89.0327
" />
<path d="M166.8702 89.0327
L166.9179 88.9375
" />
<path d="M166.9179 88.9375
L167.0131 88.8898
" />
<path d="M167.0131 88.8898
L167.2512 88.8898
" />
<path d="M167.2512 88.8898
L167.3464 88.8422
" />
<path d="M167.9655 89.2708
L167.8702 89.2232
" />
<path d="M167.8702 89.2232
L167.8226 89.1279
" />
<path d="M167.8226 89.1279
L167.8226 88.2708
" />
<path d="M169.2512 89.2708
L169.1560 89.2232
" />
<path d="M169.1560 89.2232
L169.1083 89.1279
" />
<path d="M169.1083 89.1279
L169.1083 88.2708
" />
<path d="M169.6321 89.2708
L169.6321 88.6041
" />
<path d="M169.6321 88.2708
L169.5845 88.3184
" />
<path d="M169.5845 88.3184
L169.6321 88.3660
" />
<path d="M169.6321 88.3660
L169.6798 88.3184
" />
<path d="M169.6798 88.3184
L169.6321 88.2708
" />
<path d="M169.6321 88.2708
L169.6321 88.3660
" />
<path d="M169.9655 88.6041
L170.3464 88.6041
" />
<path d="M170.1083 89.2708
L170.1083 88.4136
" />
<path d="M170.1083 88.4136
L170.1560 88.3184
" />
<path d="M170.1560 88.3184
L170.2512 88.2708
" />
<path d="M170.2512 88.2708
L170.3464 88.2708
" />
<path d="M171.0607 89.2232
L170.9655 89.2708
" />
<path d="M170.9655 89.2708
L170.7750 89.2708
" />
<path d="M170.7750 89.2708
L170.6798 89.2232
" />
<path d="M170.6798 89.2232
L170.6321 89.1279
" />
<path d="M170.6321 89.1279
L170.6321 88.7470
" />
<path d="M170.6321 88.7470
L170.6798 88.6517
" />
<path d="M170.6798 88.6517
L170.7750 88.6041
" />
<path d="M170.7750 88.6041
L170.9655 88.6041
" />
<path d="M170.9655 88.6041
L171.0607 88.6517
" />
<path d="M171.0607 88.6517
L171.1083 88.7470
" />
<path d="M171.1083 88.7470
L171.1083 88.8422
" />
<path d="M171.1083 88.8422
L170.6321 88.9375
" />
<path d="M172.2988 89.2708
L172.2988 88.2708
" />
<path d="M172.2988 88.6517
L172.3940 88.6041
" />
<path d="M172.3940 88.6041
L172.5845 88.6041
" />
<path d="M172.5845 88.6041
L172.6798 88.6517
" />
<path d="M172.6798 88.6517
L172.7274 88.6994
" />
<path d="M172.7274 88.6994
L172.7750 88.7946
" />
<path d="M172.7750 88.7946
L172.7750 89.0803
" />
<path d="M172.7750 89.0803
L172.7274 89.1756
" />
<path d="M172.7274 89.1756
L172.6798 89.2232
" />
<path d="M172.6798 89.2232
L172.5845 89.2708
" />
<path d="M172.5845 89.2708
L172.3940 89.2708
" />
<path d="M172.3940 89.2708
L172.2988 89.2232
" />
<path d="M173.3464 89.2708
L173.2512 89.2232
" />
<path d="M173.2512 89.2232
L173.2036 89.1756
" />
<path d="M173.2036 89.1756
L173.1560 89.0803
" />
<path d="M173.1560 89.0803
L173.1560 88.7946
" />
<path d="M173.1560 88.7946
L173.2036 88.6994
" />
<path d="M173.2036 88.6994
L173.2512 88.6517
" />
<path d="M173.2512 88.6517
L173.3464 88.6041
" />
<path d="M173.3464 88.6041
L173.4893 88.6041
" />
<path d="M173.4893 88.6041
L173.5845 88.6517
" />
<path d="M173.5845 88.6517
L173.6321 88.6994
" />
<path d="M173.6321 88.6994
L173.6798 88.7946
" />
<path d="M173.6798 88.7946
L173.6798 89.0803
" />
<path d="M173.6798 89.0803
L173.6321 89.1756
" />
<path d="M173.6321 89.1756
L173.5845 89.2232
" />
<path d="M173.5845 89.2232
L173.4893 89.2708
" />
<path d="M173.4893 89.2708
L173.3464 89.2708
" />
<path d="M174.5369 89.2708
L174.5369 88.7470
" />
<path d="M174.5369 88.7470
L174.4893 88.6517
" />
<path d="M174.4893 88.6517
L174.3940 88.6041
" />
<path d="M174.3940 88.6041
L174.2036 88.6041
" />
<path d="M174.2036 88.6041
L174.1083 88.6517
" />
<path d="M174.5369 89.2232
L174.4417 89.2708
" />
<path d="M174.4417 89.2708
L174.2036 89.2708
" />
<path d="M174.2036 89.2708
L174.1083 89.2232
" />
<path d="M174.1083 89.2232
L174.0607 89.1279
" />
<path d="M174.0607 89.1279
L174.0607 89.0327
" />
<path d="M174.0607 89.0327
L174.1083 88.9375
" />
<path d="M174.1083 88.9375
L174.2036 88.8898
" />
<path d="M174.2036 88.8898
L174.4417 88.8898
" />
<path d="M174.4417 88.8898
L174.5369 88.8422
" />
<path d="M175.0131 89.2708
L175.0131 88.6041
" />
<path d="M175.0131 88.7946
L175.0607 88.6994
" />
<path d="M175.0607 88.6994
L175.1083 88.6517
" />
<path d="M175.1083 88.6517
L175.2036 88.6041
" />
<path d="M175.2036 88.6041
L175.2988 88.6041
" />
<path d="M176.0607 89.2708
L176.0607 88.2708
" />
<path d="M176.0607 89.2232
L175.9655 89.2708
" />
<path d="M175.9655 89.2708
L175.7750 89.2708
" />
<path d="M175.7750 89.2708
L175.6798 89.2232
" />
<path d="M175.6798 89.2232
L175.6321 89.1756
" />
<path d="M175.6321 89.1756
L175.5845 89.0803
" />
<path d="M175.5845 89.0803
L175.5845 88.7946
" />
<path d="M175.5845 88.7946
L175.6321 88.6994
" />
<path d="M175.6321 88.6994
L175.6798 88.6517
" />
<path d="M175.6798 88.6517
L175.7750 88.6041
" />
<path d="M175.7750 88.6041
L175.9655 88.6041
" />
<path d="M175.9655 88.6041
L176.0607 88.6517
" />
</g><text x="129.3876" y="82.4912"
textLength="2.9643" font-size="1.3333" lengthAdjust="spacingAndGlyphs"
text-anchor="middle" opacity="0">TP2</text>
<g class="stroked-text"><desc>TP2</desc>
<path d="M128.1257 81.4460
L128.6971 81.4460
" />
<path d="M128.4114 82.4460
L128.4114 81.4460
" />
<path d="M129.0305 82.4460
L129.0305 81.4460
" />
<path d="M129.0305 81.4460
L129.4114 81.4460
" />
<path d="M129.4114 81.4460
L129.5066 81.4936
" />
<path d="M129.5066 81.4936
L129.5543 81.5413
" />
<path d="M129.5543 81.5413
L129.6019 81.6365
" />
<path d="M129.6019 81.6365
L129.6019 81.7794
" />
<path d="M129.6019 81.7794
L129.5543 81.8746
" />
<path d="M129.5543 81.8746
L129.5066 81.9222
" />
<path d="M129.5066 81.9222
L129.4114 81.9698
" />
<path d="M129.4114 81.9698
L129.0305 81.9698
" />
<path d="M129.9828 81.5413
L130.0305 81.4936
" />
<path d="M130.0305 81.4936
L130.1257 81.4460
" />
<path d="M130.1257 81.4460
L130.3638 81.4460
" />
<path d="M130.3638 81.4460
L130.4590 81.4936
" />
<path d="M130.4590 81.4936
L130.5066 81.5413
" />
<path d="M130.5066 81.5413
L130.5543 81.6365
" />
<path d="M130.5543 81.6365
L130.5543 81.7317
" />
<path d="M130.5543 81.7317
L130.5066 81.8746
" />
<path d="M130.5066 81.8746
L129.9352 82.4460
" />
<path d="M129.9352 82.4460
L130.5543 82.4460
" />
</g><text x="121.1580" y="80.1290"
textLength="2.9643" font-size="1.3333" lengthAdjust="spacingAndGlyphs"
text-anchor="middle" opacity="0">TP3</text>
<g class="stroked-text"><desc>TP3</desc>
<path d="M119.8961 79.0838
L120.4675 79.0838
" />
<path d="M120.1818 80.0838
L120.1818 79.0838
" />
<path d="M120.8009 80.0838
L120.8009 79.0838
" />
<path d="M120.8009 79.0838
L121.1818 79.0838
" />
<path d="M121.1818 79.0838
L121.2770 79.1314
" />
<path d="M121.2770 79.1314
L121.3247 79.1791
" />
<path d="M121.3247 79.1791
L121.3723 79.2743
" />
<path d="M121.3723 79.2743
L121.3723 79.4172
" />
<path d="M121.3723 79.4172
L121.3247 79.5124
" />
<path d="M121.3247 79.5124
L121.2770 79.5600
" />
<path d="M121.2770 79.5600
L121.1818 79.6076
" />
<path d="M121.1818 79.6076
L120.8009 79.6076
" />
<path d="M121.7056 79.0838
L122.3247 79.0838
" />
<path d="M122.3247 79.0838
L121.9913 79.4648
" />
<path d="M121.9913 79.4648
L122.1342 79.4648
" />
<path d="M122.1342 79.4648
L122.2294 79.5124
" />
<path d="M122.2294 79.5124
L122.2770 79.5600
" />
<path d="M122.2770 79.5600
L122.3247 79.6552
" />
<path d="M122.3247 79.6552
L122.3247 79.8933
" />
<path d="M122.3247 79.8933
L122.2770 79.9886
" />
<path d="M122.2770 79.9886
L122.2294 80.0362
" />
<path d="M122.2294 80.0362
L122.1342 80.0838
" />
<path d="M122.1342 80.0838
L121.8485 80.0838
" />
<path d="M121.8485 80.0838
L121.7532 80.0362
" />
<path d="M121.7532 80.0362
L121.7056 79.9886
" />
</g><text x="118.0338" y="82.9992"
textLength="2.9643" font-size="1.3333" lengthAdjust="spacingAndGlyphs"
text-anchor="middle" opacity="0">TP4</text>
<g class="stroked-text"><desc>TP4</desc>
<path d="M116.7719 81.9540
L117.3433 81.9540
" />
<path d="M117.0576 82.9540
L117.0576 81.9540
" />
<path d="M117.6767 82.9540
L117.6767 81.9540
" />
<path d="M117.6767 81.9540
L118.0576 81.9540
" />
<path d="M118.0576 81.9540
L118.1528 82.0016
" />
<path d="M118.1528 82.0016
L118.2005 82.0493
" />
<path d="M118.2005 82.0493
L118.2481 82.1445
" />
<path d="M118.2481 82.1445
L118.2481 82.2874
" />
<path d="M118.2481 82.2874
L118.2005 82.3826
" />
<path d="M118.2005 82.3826
L118.1528 82.4302
" />
<path d="M118.1528 82.4302
L118.0576 82.4778
" />
<path d="M118.0576 82.4778
L117.6767 82.4778
" />
<path d="M119.1052 82.2874
L119.1052 82.9540
" />
<path d="M118.8671 81.9064
L118.6290 82.6207
" />
<path d="M118.6290 82.6207
L119.2481 82.6207
" />
</g><text x="117.9576" y="86.3774"
textLength="2.9643" font-size="1.3333" lengthAdjust="spacingAndGlyphs"
text-anchor="middle" opacity="0">TP5</text>
<g class="stroked-text"><desc>TP5</desc>
<path d="M116.6957 85.3322
L117.2671 85.3322
" />
<path d="M116.9814 86.3322
L116.9814 85.3322
" />
<path d="M117.6005 86.3322
L117.6005 85.3322
" />
<path d="M117.6005 85.3322
L117.9814 85.3322
" />
<path d="M117.9814 85.3322
L118.0766 85.3798
" />
<path d="M118.0766 85.3798
L118.1243 85.4275
" />
<path d="M118.1243 85.4275
L118.1719 85.5227
" />
<path d="M118.1719 85.5227
L118.1719 85.6656
" />
<path d="M118.1719 85.6656
L118.1243 85.7608
" />
<path d="M118.1243 85.7608
L118.0766 85.8084
" />
<path d="M118.0766 85.8084
L117.9814 85.8560
" />
<path d="M117.9814 85.8560
L117.6005 85.8560
" />
<path d="M119.0766 85.3322
L118.6005 85.3322
" />
<path d="M118.6005 85.3322
L118.5528 85.8084
" />
<path d="M118.5528 85.8084
L118.6005 85.7608
" />
<path d="M118.6005 85.7608
L118.6957 85.7132
" />
<path d="M118.6957 85.7132
L118.9338 85.7132
" />
<path d="M118.9338 85.7132
L119.0290 85.7608
" />
<path d="M119.0290 85.7608
L119.0766 85.8084
" />
<path d="M119.0766 85.8084
L119.1243 85.9036
" />
<path d="M119.1243 85.9036
L119.1243 86.1417
" />
<path d="M119.1243 86.1417
L119.0766 86.2370
" />
<path d="M119.0766 86.2370
L119.0290 86.2846
" />
<path d="M119.0290 86.2846
L118.9338 86.3322
" />
<path d="M118.9338 86.3322
L118.6957 86.3322
" />
<path d="M118.6957 86.3322
L118.6005 86.2846
" />
<path d="M118.6005 86.2846
L118.5528 86.2370
" />
</g><text x="132.6642" y="72.4582"
textLength="2.9643" font-size="1.3333" lengthAdjust="spacingAndGlyphs"
text-anchor="middle" opacity="0">TP6</text>
<g class="stroked-text"><desc>TP6</desc>
<path d="M131.4023 71.4130
L131.9737 71.4130
" />
<path d="M131.6880 72.4130
L131.6880 71.4130
" />
<path d="M132.3071 72.4130
L132.3071 71.4130
" />
<path d="M132.3071 71.4130
L132.6880 71.4130
" />
<path d="M132.6880 71.4130
L132.7832 71.4606
" />
<path d="M132.7832 71.4606
L132.8309 71.5083
" />
<path d="M132.8309 71.5083
L132.8785 71.6035
" />
<path d="M132.8785 71.6035
L132.8785 71.7464
" />
<path d="M132.8785 71.7464
L132.8309 71.8416
" />
<path d="M132.8309 71.8416
L132.7832 71.8892
" />
<path d="M132.7832 71.8892
L132.6880 71.9368
" />
<path d="M132.6880 71.9368
L132.3071 71.9368
" />
<path d="M133.7356 71.4130
L133.5452 71.4130
" />
<path d="M133.5452 71.4130
L133.4499 71.4606
" />
<path d="M133.4499 71.4606
L133.4023 71.5083
" />
<path d="M133.4023 71.5083
L133.3071 71.6511
" />
<path d="M133.3071 71.6511
L133.2594 71.8416
" />
<path d="M133.2594 71.8416
L133.2594 72.2225
" />
<path d="M133.2594 72.2225
L133.3071 72.3178
" />
<path d="M133.3071 72.3178
L133.3547 72.3654
" />
<path d="M133.3547 72.3654
L133.4499 72.4130
" />
<path d="M133.4499 72.4130
L133.6404 72.4130
" />
<path d="M133.6404 72.4130
L133.7356 72.3654
" />
<path d="M133.7356 72.3654
L133.7832 72.3178
" />
<path d="M133.7832 72.3178
L133.8309 72.2225
" />
<path d="M133.8309 72.2225
L133.8309 71.9844
" />
<path d="M133.8309 71.9844
L133.7832 71.8892
" />
<path d="M133.7832 71.8892
L133.7356 71.8416
" />
<path d="M133.7356 71.8416
L133.6404 71.7940
" />
<path d="M133.6404 71.7940
L133.4499 71.7940
" />
<path d="M133.4499 71.7940
L133.3547 71.8416
" />
<path d="M133.3547 71.8416
L133.3071 71.8892
" />
<path d="M133.3071 71.8892
L133.2594 71.9844
" />
</g><text x="143.5608" y="72.4582"
textLength="2.9643" font-size="1.3333" lengthAdjust="spacingAndGlyphs"
text-anchor="middle" opacity="0">TP8</text>
<g class="stroked-text"><desc>TP8</desc>
<path d="M142.2989 71.4130
L142.8703 71.4130
" />
<path d="M142.5846 72.4130
L142.5846 71.4130
" />
<path d="M143.2037 72.4130
L143.2037 71.4130
" />
<path d="M143.2037 71.4130
L143.5846 71.4130
" />
<path d="M143.5846 71.4130
L143.6798 71.4606
" />
<path d="M143.6798 71.4606
L143.7275 71.5083
" />
<path d="M143.7275 71.5083
L143.7751 71.6035
" />
<path d="M143.7751 71.6035
L143.7751 71.7464
" />
<path d="M143.7751 71.7464
L143.7275 71.8416
" />
<path d="M143.7275 71.8416
L143.6798 71.8892
" />
<path d="M143.6798 71.8892
L143.5846 71.9368
" />
<path d="M143.5846 71.9368
L143.2037 71.9368
" />
<path d="M144.3465 71.8416
L144.2513 71.7940
" />
<path d="M144.2513 71.7940
L144.2037 71.7464
" />
<path d="M144.2037 71.7464
L144.1560 71.6511
" />
<path d="M144.1560 71.6511
L144.1560 71.6035
" />
<path d="M144.1560 71.6035
L144.2037 71.5083
" />
<path d="M144.2037 71.5083
L144.2513 71.4606
" />
<path d="M144.2513 71.4606
L144.3465 71.4130
" />
<path d="M144.3465 71.4130
L144.5370 71.4130
" />
<path d="M144.5370 71.4130
L144.6322 71.4606
" />
<path d="M144.6322 71.4606
L144.6798 71.5083
" />
<path d="M144.6798 71.5083
L144.7275 71.6035
" />
<path d="M144.7275 71.6035
L144.7275 71.6511
" />
<path d="M144.7275 71.6511
L144.6798 71.7464
" />
<path d="M144.6798 71.7464
L144.6322 71.7940
" />
<path d="M144.6322 71.7940
L144.5370 71.8416
" />
<path d="M144.5370 71.8416
L144.3465 71.8416
" />
<path d="M144.3465 71.8416
L144.2513 71.8892
" />
<path d="M144.2513 71.8892
L144.2037 71.9368
" />
<path d="M144.2037 71.9368
L144.1560 72.0321
" />
<path d="M144.1560 72.0321
L144.1560 72.2225
" />
<path d="M144.1560 72.2225
L144.2037 72.3178
" />
<path d="M144.2037 72.3178
L144.2513 72.3654
" />
<path d="M144.2513 72.3654
L144.3465 72.4130
" />
<path d="M144.3465 72.4130
L144.5370 72.4130
" />
<path d="M144.5370 72.4130
L144.6322 72.3654
" />
<path d="M144.6322 72.3654
L144.6798 72.3178
" />
<path d="M144.6798 72.3178
L144.7275 72.2225
" />
<path d="M144.7275 72.2225
L144.7275 72.0321
" />
<path d="M144.7275 72.0321
L144.6798 71.9368
" />
<path d="M144.6798 71.9368
L144.6322 71.8892
" />
<path d="M144.6322 71.8892
L144.5370 71.8416
" />
</g><text x="141.0716" y="86.9616"
textLength="2.9643" font-size="1.3333" lengthAdjust="spacingAndGlyphs"
text-anchor="middle" opacity="0">TP9</text>
<g class="stroked-text"><desc>TP9</desc>
<path d="M139.8097 85.9164
L140.3811 85.9164
" />
<path d="M140.0954 86.9164
L140.0954 85.9164
" />
<path d="M140.7145 86.9164
L140.7145 85.9164
" />
<path d="M140.7145 85.9164
L141.0954 85.9164
" />
<path d="M141.0954 85.9164
L141.1906 85.9640
" />
<path d="M141.1906 85.9640
L141.2383 86.0117
" />
<path d="M141.2383 86.0117
L141.2859 86.1069
" />
<path d="M141.2859 86.1069
L141.2859 86.2498
" />
<path d="M141.2859 86.2498
L141.2383 86.3450
" />
<path d="M141.2383 86.3450
L141.1906 86.3926
" />
<path d="M141.1906 86.3926
L141.0954 86.4402
" />
<path d="M141.0954 86.4402
L140.7145 86.4402
" />
<path d="M141.7621 86.9164
L141.9526 86.9164
" />
<path d="M141.9526 86.9164
L142.0478 86.8688
" />
<path d="M142.0478 86.8688
L142.0954 86.8212
" />
<path d="M142.0954 86.8212
L142.1906 86.6783
" />
<path d="M142.1906 86.6783
L142.2383 86.4878
" />
<path d="M142.2383 86.4878
L142.2383 86.1069
" />
<path d="M142.2383 86.1069
L142.1906 86.0117
" />
<path d="M142.1906 86.0117
L142.1430 85.9640
" />
<path d="M142.1430 85.9640
L142.0478 85.9164
" />
<path d="M142.0478 85.9164
L141.8573 85.9164
" />
<path d="M141.8573 85.9164
L141.7621 85.9640
" />
<path d="M141.7621 85.9640
L141.7145 86.0117
" />
<path d="M141.7145 86.0117
L141.6668 86.1069
" />
<path d="M141.6668 86.1069
L141.6668 86.3450
" />
<path d="M141.6668 86.3450
L141.7145 86.4402
" />
<path d="M141.7145 86.4402
L141.7621 86.4878
" />
<path d="M141.7621 86.4878
L141.8573 86.5355
" />
<path d="M141.8573 86.5355
L142.0478 86.5355
" />
<path d="M142.0478 86.5355
L142.1430 86.4878
" />
<path d="M142.1430 86.4878
L142.1906 86.4402
" />
<path d="M142.1906 86.4402
L142.2383 86.3450
" />
</g></g>
<g style="fill:none; 
stroke:#000000; stroke-width:0.1200; stroke-opacity:1; 
stroke-linecap:round; stroke-linejoin:round;">
<circle cx="129.2098" cy="80.1624" r="0.7000" /> 
<circle cx="123.5202" cy="78.4860" r="0.7000" /> 
<circle cx="117.9322" cy="80.7720" r="0.7000" /> 
<circle cx="117.9322" cy="84.0740" r="0.7000" /> 
<circle cx="132.7150" cy="70.0532" r="0.7000" /> 
<circle cx="143.5100" cy="70.0278" r="0.7000" /> 
<circle cx="141.0462" cy="84.5820" r="0.7000" /> 
<path style="fill:#000000; fill-opacity:1.0000; 
stroke:#000000; stroke-width:0.0100; stroke-opacity:1; 
stroke-linecap:round; stroke-linejoin:round;fill-rule:evenodd;"
d="M 134.1514,94.3194
134.0903,94.3384
134.0151,94.3701
133.9787,94.3871
133.9525,94.3902
133.9467,94.3666
133.9466,94.3660
133.9343,94.3434
133.8919,94.3319
133.8097,94.3286
133.6727,94.3286
133.6727,95.5239
133.9467,95.5239
133.9467,94.6998
134.0147,94.6367
134.0360,94.6187
134.0994,94.5881
134.1774,94.5869
134.2837,94.6139
134.3195,94.6156
134.3615,94.5894
134.4174,94.5270
134.4446,94.4925
134.4767,94.4439
134.4816,94.4129
134.4636,94.3867
134.4085,94.3536
134.3228,94.3275
134.2299,94.3145
Z" /> 
<path style="fill:#000000; fill-opacity:1.0000; 
stroke:#000000; stroke-width:0.0100; stroke-opacity:1; 
stroke-linecap:round; stroke-linejoin:round;fill-rule:evenodd;"
d="M 133.7887,96.2127
133.7134,96.2479
133.6478,96.2995
133.6478,96.2479
133.6462,96.2283
133.6310,96.2075
133.5898,96.1983
133.5109,96.1963
133.3739,96.1963
133.3739,97.4165
133.6478,97.4165
133.6478,97.0192
133.6479,96.9964
133.6502,96.8361
133.6559,96.7055
133.6647,96.6113
133.6760,96.5602
133.6863,96.5409
133.7502,96.4804
133.8373,96.4536
133.9323,96.4661
133.9556,96.4746
134.0053,96.4896
134.0392,96.4849
134.0734,96.4545
134.1236,96.3921
134.2052,96.2891
134.1479,96.2427
134.0934,96.2148
133.9976,96.1959
133.8897,96.1953
Z" /> 
<path style="fill:#000000; fill-opacity:1.0000; 
stroke:#000000; stroke-width:0.0100; stroke-opacity:1; 
stroke-linecap:round; stroke-linejoin:round;fill-rule:evenodd;"
d="M 128.5927,97.4165
128.8417,97.4165
128.8417,97.0321
128.8420,96.9427
128.8449,96.7946
128.8520,96.6850
128.8651,96.6063
128.8856,96.5508
128.9151,96.5111
128.9552,96.4795
128.9989,96.4559
129.0507,96.4492
129.1244,96.4641
129.1480,96.4703
129.2071,96.4796
129.2494,96.4662
129.2984,96.4250
129.3076,96.4160
129.3590,96.3605
129.3922,96.3154
129.3967,96.3045
129.3877,96.2644
129.3420,96.2323
129.2700,96.2098
129.1817,96.1984
129.0876,96.1995
128.9978,96.2148
128.9227,96.2458
128.8989,96.2603
128.8588,96.2814
128.8439,96.2766
128.8417,96.2457
128.8412,96.2346
128.8292,96.2101
128.7920,96.1989
128.7172,96.1963
128.5927,96.1963
Z" /> 
<path style="fill:#000000; fill-opacity:1.0000; 
stroke:#000000; stroke-width:0.0100; stroke-opacity:1; 
stroke-linecap:round; stroke-linejoin:round;fill-rule:evenodd;"
d="M 133.1747,94.7162
133.1726,94.8906
133.1644,95.0315
133.1477,95.1338
133.1203,95.2035
133.0799,95.2461
133.0240,95.2675
132.9506,95.2733
132.8804,95.2681
132.8238,95.2477
132.7826,95.2063
132.7546,95.1381
132.7374,95.0376
132.7288,94.8989
132.7265,94.7162
132.7265,94.3286
132.4774,94.3286
132.4774,94.7959
132.4779,94.9207
132.4812,95.0820
132.4895,95.2050
132.5049,95.2967
132.5293,95.3643
132.5648,95.4147
132.6133,95.4550
132.6770,95.4922
132.8106,95.5393
132.9501,95.5423
133.0817,95.4990
133.1391,95.4709
133.1675,95.4667
133.1747,95.4865
133.1866,95.5088
133.2291,95.5206
133.3117,95.5239
133.4486,95.5239
133.4486,94.3286
133.1747,94.3286
Z" /> 
<path style="fill:#000000; fill-opacity:1.0000; 
stroke:#000000; stroke-width:0.0100; stroke-opacity:1; 
stroke-linecap:round; stroke-linejoin:round;fill-rule:evenodd;"
d="M 129.0113,94.3263
128.8978,94.3619
128.8477,94.3862
128.8226,94.3887
128.8168,94.3666
128.8168,94.3660
128.8045,94.3434
128.7621,94.3319
128.6799,94.3286
128.5429,94.3286
128.5429,95.5239
128.8168,95.5239
128.8168,95.1119
128.8170,94.9728
128.8183,94.8585
128.8217,94.7785
128.8284,94.7247
128.8392,94.6889
128.8554,94.6630
128.8780,94.6388
128.9087,94.6130
128.9970,94.5784
129.0896,94.5886
129.1745,94.6433
129.1988,94.6688
129.2162,94.6945
129.2279,94.7288
129.2350,94.7799
129.2386,94.8561
129.2400,94.9655
129.2402,95.1164
129.2402,95.5239
129.5141,95.5239
129.5136,95.0819
129.5135,95.0622
129.5111,94.8742
129.5038,94.7282
129.4898,94.6170
129.4670,94.5335
129.4337,94.4708
129.3880,94.4216
129.3279,94.3788
129.2660,94.3492
129.1411,94.3223
Z" /> 
<path style="fill:#000000; fill-opacity:1.0000; 
stroke:#000000; stroke-width:0.0100; stroke-opacity:1; 
stroke-linecap:round; stroke-linejoin:round;fill-rule:evenodd;"
d="M 134.8519,94.3343
134.7160,94.3873
134.6011,94.4747
134.5162,94.5947
134.5105,94.6069
134.4741,94.7263
134.4559,94.8689
134.4560,95.0173
134.4746,95.1543
134.5117,95.2625
134.5576,95.3378
134.6585,95.4446
134.7847,95.5125
134.8927,95.5399
135.0571,95.5429
135.2144,95.5015
135.3539,95.4175
135.4442,95.3431
135.3629,95.2592
135.3115,95.2095
135.2651,95.1818
135.2220,95.1879
135.1668,95.2251
135.1449,95.2397
135.0520,95.2694
134.9453,95.2694
134.8454,95.2387
134.8078,95.2141
134.7526,95.1412
134.7249,95.0343
134.7231,94.8885
134.7231,94.8884
134.7437,94.7580
134.7891,94.6676
134.8637,94.6117
134.9721,94.5847
135.0403,94.5811
135.1000,94.5959
135.1611,94.6389
135.2403,94.7055
135.3405,94.6250
135.3772,94.5941
135.4229,94.5499
135.4408,94.5238
135.4344,94.5121
135.3980,94.4760
135.3399,94.4302
135.2945,94.4003
135.1502,94.3391
134.9996,94.3177
Z" /> 
<path style="fill:#000000; fill-opacity:1.0000; 
stroke:#000000; stroke-width:0.0100; stroke-opacity:1; 
stroke-linecap:round; stroke-linejoin:round;fill-rule:evenodd;"
d="M 131.2882,95.0122
131.2952,95.0910
131.3259,95.2414
131.3808,95.3562
131.4644,95.4430
131.5811,95.5092
131.6265,95.5249
131.7438,95.5446
131.8673,95.5440
131.9715,95.5224
131.9736,95.5217
132.0576,95.4723
132.1424,95.3958
132.2128,95.3083
132.2535,95.2260
132.2655,95.1658
132.2759,95.0531
132.2776,94.9526
132.0267,94.9526
132.0117,95.0731
131.9765,95.1721
131.9231,95.2368
131.9029,95.2479
131.8257,95.2681
131.7365,95.2723
131.6614,95.2582
131.6321,95.2381
131.5909,95.1678
131.5651,95.0576
131.5561,94.9131
131.5562,94.8715
131.5593,94.7873
131.5697,94.7323
131.5915,94.6917
131.6289,94.6504
131.6999,94.6005
131.7924,94.5801
131.8818,94.5995
131.9560,94.6558
132.0030,94.7458
132.0194,94.8235
132.0267,94.9526
132.2776,94.9526
132.2781,94.9247
132.2725,94.7970
132.2596,94.6861
132.2397,94.6083
132.1932,94.5202
132.0947,94.4120
131.9687,94.3434
131.8191,94.3162
131.6496,94.3323
131.6214,94.3391
131.4900,94.3980
131.3910,94.4948
131.3244,94.6294
131.2901,94.8019
131.2891,94.9131
Z" /> 
<path style="fill:#000000; fill-opacity:1.0000; 
stroke:#000000; stroke-width:0.0100; stroke-opacity:1; 
stroke-linecap:round; stroke-linejoin:round;fill-rule:evenodd;"
d="M 131.0899,96.5873
131.0563,96.6877
131.0164,96.7989
130.9832,96.8832
130.9592,96.9336
130.9474,96.9433
130.9445,96.9349
130.9290,96.8830
130.9043,96.7963
130.8732,96.6845
130.8383,96.5574
130.7435,96.2087
130.5988,96.2012
130.5866,96.2006
130.5085,96.1998
130.4710,96.2078
130.4662,96.2261
130.4722,96.2439
130.4921,96.3051
130.5232,96.4020
130.5633,96.5276
130.6102,96.6751
130.6616,96.8375
130.8449,97.4165
131.0741,97.4165
131.1821,97.0492
131.2020,96.9817
131.2389,96.8591
131.2704,96.7569
131.2937,96.6843
131.3059,96.6504
131.3094,96.6479
131.3264,96.6698
131.3507,96.7276
131.3782,96.8123
131.3797,96.8173
131.4165,96.9423
131.4586,97.0839
131.4973,97.2123
131.5599,97.4190
131.7908,97.4040
131.8977,97.0678
131.9447,96.9201
131.9973,96.7545
132.0476,96.5956
132.0893,96.4640
132.1740,96.1963
131.8908,96.1963
131.8221,96.4515
131.8039,96.5190
131.7694,96.6447
131.7374,96.7591
131.7131,96.8437
131.6727,96.9807
131.5440,96.5947
131.4152,96.2087
131.3167,96.2013
131.2182,96.1939
Z" /> 
<path style="fill:#000000; fill-opacity:1.0000; 
stroke:#000000; stroke-width:0.0100; stroke-opacity:1; 
stroke-linecap:round; stroke-linejoin:round;fill-rule:evenodd;"
d="M 129.3912,96.8996
129.3944,97.0060
129.4007,97.0802
129.4018,97.0870
129.4445,97.2086
129.5226,97.3116
129.6249,97.3814
129.7348,97.4103
129.8700,97.4081
129.9944,97.3694
130.0268,97.3530
130.0685,97.3355
130.0843,97.3409
130.0868,97.3694
130.0880,97.3835
130.1029,97.4045
130.1443,97.4141
130.2238,97.4165
130.3608,97.4165
130.3608,96.8186
130.0868,96.8186
130.0849,96.9222
130.0769,96.9911
130.0599,97.0384
130.0308,97.0780
129.9540,97.1368
129.8641,97.1566
129.7769,97.1322
129.7035,97.0641
129.6841,97.0143
129.6698,96.9261
129.6635,96.8191
129.6655,96.7093
129.6760,96.6128
129.6953,96.5457
129.7015,96.5347
129.7610,96.4795
129.8417,96.4550
129.9283,96.4607
130.0057,96.4959
130.0587,96.5602
130.0609,96.5656
130.0741,96.6259
130.0833,96.7160
130.0868,96.8186
130.3608,96.8186
130.3608,95.7231
130.0868,95.7231
130.0868,96.3036
130.0361,96.2577
129.9873,96.2291
129.8948,96.2053
129.7867,96.1976
129.6812,96.2070
129.5963,96.2346
129.5356,96.2737
129.4730,96.3404
129.4309,96.4301
129.4056,96.5514
129.3934,96.7129
129.3916,96.7782
129.3915,96.8191
Z" /> 
<path style="fill:#000000; fill-opacity:1.0000; 
stroke:#000000; stroke-width:0.0100; stroke-opacity:1; 
stroke-linecap:round; stroke-linejoin:round;fill-rule:evenodd;"
d="M 125.0854,94.9947
125.0886,95.0727
125.0959,95.1678
125.1083,95.2352
125.1289,95.2886
125.1604,95.3417
125.1618,95.3437
125.2396,95.4298
125.3348,95.4954
125.4454,95.5343
125.5910,95.5470
125.7337,95.5221
125.8613,95.4622
125.9614,95.3697
125.9902,95.3260
126.0439,95.1901
126.0705,95.0224
126.0701,94.9800
125.8024,94.9800
125.8019,95.0593
125.7935,95.1123
125.7744,95.1530
125.7416,95.1955
125.6961,95.2377
125.6052,95.2753
125.5076,95.2683
125.4143,95.2160
125.3880,95.1910
125.3599,95.1482
125.3443,95.0881
125.3354,94.9943
125.3330,94.9239
125.3463,94.7802
125.3873,94.6772
125.4559,94.6146
125.5364,94.5846
125.6324,94.5871
125.7214,94.6377
125.7427,94.6570
125.7695,94.6908
125.7854,94.7349
125.7943,94.8026
125.7998,94.9069
125.8024,94.9800
126.0701,94.9800
126.0685,94.8311
126.0659,94.8040
126.0293,94.6302
125.9616,94.4953
125.8627,94.3992
125.7324,94.3416
125.5707,94.3224
125.5095,94.3242
125.3842,94.3462
125.2817,94.3987
125.1861,94.4887
125.1708,94.5067
125.1296,94.5675
125.1025,94.6364
125.0875,94.7236
125.0824,94.8396
125.0840,94.9239
Z" /> 
<path style="fill:#000000; fill-opacity:1.0000; 
stroke:#000000; stroke-width:0.0100; stroke-opacity:1; 
stroke-linecap:round; stroke-linejoin:round;fill-rule:evenodd;"
d="M 135.4736,94.8460
135.4768,95.0366
135.4773,95.0404
135.5131,95.2153
135.5778,95.3512
135.6733,95.4513
135.8018,95.5184
135.8254,95.5261
135.9716,95.5487
136.1229,95.5361
136.2635,95.4910
136.3778,95.4163
136.4634,95.3372
136.3724,95.2652
136.2814,95.1932
136.1717,95.2465
136.0448,95.2897
135.9327,95.2910
135.8410,95.2513
135.7751,95.1717
135.7514,95.1240
135.7382,95.0832
135.7459,95.0556
135.7801,95.0387
135.8468,95.0299
135.9517,95.0264
136.1007,95.0259
136.4617,95.0259
136.4617,94.8532
136.4591,94.7774
136.2048,94.7774
136.1926,94.7913
136.1565,94.7986
136.0877,94.8013
135.9778,94.8018
135.9189,94.8011
135.8259,94.7965
135.7628,94.7885
135.7396,94.7780
135.7455,94.7395
135.7874,94.6656
135.8573,94.6050
135.9405,94.5684
136.0226,94.5666
136.0845,94.5960
136.1545,94.6628
136.1991,94.7457
136.2017,94.7546
136.2048,94.7774
136.4591,94.7774
136.4585,94.7619
136.4490,94.6715
136.4353,94.6104
136.4254,94.5871
136.3530,94.4832
136.2485,94.3966
136.1263,94.3398
136.0625,94.3244
135.9106,94.3173
135.7752,94.3532
135.6601,94.4280
135.5690,94.5377
135.5056,94.6784
135.4866,94.7780
Z" /> 
<path style="fill:#000000; fill-opacity:1.0000; 
stroke:#000000; stroke-width:0.0100; stroke-opacity:1; 
stroke-linecap:round; stroke-linejoin:round;fill-rule:evenodd;"
d="M 130.5634,94.3278
130.4196,94.3639
130.3145,94.4307
130.2476,94.5287
130.2183,94.6584
130.2242,94.7825
130.2671,94.8873
130.3493,94.9647
130.4726,95.0163
130.6385,95.0437
130.7462,95.0581
130.8446,95.0891
130.8954,95.1341
130.8985,95.1928
130.8781,95.2295
130.8147,95.2729
130.7248,95.2935
130.6193,95.2907
130.5096,95.2640
130.4068,95.2131
130.3044,95.1453
130.2143,95.2365
130.1242,95.3277
130.1989,95.3887
130.2280,95.4098
130.3097,95.4580
130.3981,95.4995
130.4681,95.5233
130.5706,95.5405
130.6969,95.5407
130.8519,95.5217
130.9915,95.4736
131.0902,95.3972
131.1485,95.2923
131.1664,95.1586
131.1535,95.0411
131.1118,94.9448
131.0367,94.8759
130.9236,94.8300
130.7675,94.8030
130.7496,94.8011
130.6525,94.7886
130.5737,94.7756
130.5289,94.7645
130.5139,94.7556
130.4886,94.7095
130.4927,94.6506
130.5265,94.5994
130.5443,94.5882
130.6182,94.5703
130.7137,94.5715
130.8134,94.5906
130.8996,94.6262
130.9902,94.6796
131.0604,94.5975
131.0775,94.5766
131.1159,94.5208
131.1317,94.4829
131.1151,94.4597
131.0637,94.4234
130.9895,94.3844
130.9791,94.3796
130.8813,94.3422
130.7870,94.3243
130.6699,94.3208
Z" /> 
<path style="fill:#000000; fill-opacity:1.0000; 
stroke:#000000; stroke-width:0.0100; stroke-opacity:1; 
stroke-linecap:round; stroke-linejoin:round;fill-rule:evenodd;"
d="M 134.1965,96.8064
134.1997,96.8993
134.2292,97.0771
134.2899,97.2169
134.3823,97.3197
134.5069,97.3865
134.5472,97.3983
134.6910,97.4148
134.8429,97.4009
134.9801,97.3579
135.0284,97.3336
135.0977,97.2918
135.1397,97.2575
135.1459,97.2496
135.1575,97.2209
135.1408,97.1897
135.0899,97.1425
135.0653,97.1219
135.0169,97.0842
134.9916,97.0689
134.9843,97.0704
134.9427,97.0876
134.8805,97.1176
134.8602,97.1275
134.7406,97.1643
134.6367,97.1548
134.5456,97.0990
134.5350,97.0887
134.4843,97.0240
134.4553,96.9620
134.4393,96.8935
135.1917,96.8935
135.1916,96.7628
135.1915,96.7498
135.1814,96.6449
134.9178,96.6449
134.9147,96.6667
134.8987,96.6816
134.8607,96.6900
134.7912,96.6935
134.6813,96.6943
134.6201,96.6935
134.5299,96.6889
134.4678,96.6810
134.4447,96.6710
134.4644,96.5887
134.5220,96.5118
134.6052,96.4585
134.7013,96.4400
134.7720,96.4608
134.8427,96.5117
134.8965,96.5779
134.9178,96.6449
135.1814,96.6449
135.1760,96.5889
135.1306,96.4581
135.0515,96.3453
135.0032,96.2976
134.9035,96.2337
134.7845,96.2028
134.6342,96.2006
134.5615,96.2091
134.4275,96.2534
134.3248,96.3341
134.2527,96.4523
134.2102,96.6093
134.2059,96.6710
Z" /> 
<path style="fill:#000000; fill-opacity:1.0000; 
stroke:#000000; stroke-width:0.0100; stroke-opacity:1; 
stroke-linecap:round; stroke-linejoin:round;fill-rule:evenodd;"
d="M 127.3786,94.7767
127.3699,94.9511
127.3721,95.0272
127.3966,95.1936
127.4507,95.3247
127.5372,95.4261
127.6589,95.5031
127.7770,95.5390
127.9250,95.5459
128.0745,95.5195
128.2077,95.4610
128.2571,95.4285
128.3115,95.3869
128.3364,95.3595
128.3350,95.3481
128.3072,95.3096
128.2549,95.2629
128.1644,95.1939
128.0583,95.2468
128.0297,95.2599
127.9452,95.2884
127.8745,95.2998
127.8223,95.2904
127.7404,95.2454
127.6716,95.1754
127.6322,95.0944
127.6162,95.0259
128.3686,95.0259
128.3685,94.8951
128.3673,94.8537
128.3590,94.7648
128.0947,94.7648
128.0942,94.7699
128.0805,94.7858
128.0418,94.7955
127.9699,94.8004
127.8564,94.8018
127.8192,94.8017
127.7223,94.8009
127.6641,94.7970
127.6359,94.7880
127.6290,94.7716
127.6349,94.7457
127.6358,94.7428
127.6862,94.6528
127.7658,94.5908
127.8606,94.5677
127.8957,94.5695
127.9607,94.5916
128.0231,94.6478
128.0400,94.6676
128.0791,94.7243
128.0947,94.7648
128.3590,94.7648
128.3579,94.7534
128.3422,94.6703
128.3250,94.6239
128.2643,94.5228
128.1831,94.4310
128.0972,94.3680
128.0724,94.3564
127.9279,94.3176
127.7804,94.3217
127.6416,94.3669
127.5236,94.4515
127.4598,94.5295
127.4076,94.6393
127.3797,94.7716
Z" /> 
<path style="fill:#000000; fill-opacity:1.0000; 
stroke:#000000; stroke-width:0.0100; stroke-opacity:1; 
stroke-linecap:round; stroke-linejoin:round;fill-rule:evenodd;"
d="M 132.1664,97.0887
132.1965,97.2018
132.2618,97.2985
132.3608,97.3681
132.3705,97.3723
132.4789,97.4028
132.6010,97.4146
132.7171,97.4074
132.8074,97.3804
132.8435,97.3629
132.8699,97.3587
132.8759,97.3806
132.8871,97.4009
132.9305,97.4129
133.0147,97.4165
133.1536,97.4165
133.1462,96.9807
132.8759,96.9807
132.8665,97.0458
132.8261,97.1176
132.8111,97.1308
132.7500,97.1586
132.6580,97.1658
132.6028,97.1630
132.4995,97.1420
132.4354,97.1028
132.4138,97.0481
132.4378,96.9806
132.4518,96.9630
132.5144,96.9233
132.6134,96.9007
132.7545,96.8935
132.8759,96.8935
132.8759,96.9807
133.1462,96.9807
133.1455,96.9371
133.1433,96.8263
133.1374,96.6603
133.1276,96.5334
133.1119,96.4387
133.0883,96.3691
133.0549,96.3179
133.0098,96.2780
132.9510,96.2427
132.9206,96.2292
132.8157,96.2037
132.6891,96.1931
132.5582,96.1974
132.4404,96.2161
132.3529,96.2493
132.3225,96.2686
132.2525,96.3256
132.2288,96.3734
132.2346,96.3827
132.2704,96.4149
132.3283,96.4579
132.3579,96.4781
132.4083,96.5066
132.4411,96.5094
132.4715,96.4897
132.5473,96.4498
132.6493,96.4334
132.7535,96.4459
132.7555,96.4465
132.8290,96.4784
132.8654,96.5284
132.8755,96.6111
132.8759,96.6898
132.6160,96.6983
132.5746,96.6997
132.4702,96.7045
132.4002,96.7122
132.3529,96.7254
132.3165,96.7472
132.2794,96.7803
132.2181,96.8569
132.1731,96.9702
132.1687,97.0481
Z" /> 
<path style="fill:#000000; fill-opacity:1.0000; 
stroke:#000000; stroke-width:0.0100; stroke-opacity:1; 
stroke-linecap:round; stroke-linejoin:round;fill-rule:evenodd;"
d="M 127.3781,97.0846
127.3784,97.0878
127.4087,97.2158
127.4762,97.3120
127.5842,97.3813
127.6400,97.3982
127.7356,97.4113
127.8401,97.4145
127.9345,97.4072
127.9994,97.3893
128.0388,97.3749
128.0774,97.3893
128.0916,97.3976
128.1479,97.4111
128.2242,97.4165
128.3437,97.4165
128.3437,96.9893
128.0698,96.9893
128.0606,97.0621
128.0242,97.1262
128.0035,97.1401
127.9292,97.1617
127.8366,97.1671
127.7457,97.1562
127.6769,97.1287
127.6426,97.0924
127.6216,97.0278
127.6402,96.9766
127.7019,96.9321
127.8012,96.9036
127.9320,96.8935
128.0698,96.8935
128.0698,96.9893
128.3437,96.9893
128.3437,96.9346
128.3437,96.8929
128.3432,96.7358
128.3415,96.6190
128.3378,96.5348
128.3313,96.4753
128.3212,96.4329
128.3067,96.3997
128.2872,96.3680
128.2243,96.2938
128.1351,96.2372
128.0179,96.2059
127.8635,96.1963
127.8585,96.1963
127.7512,96.2012
127.6552,96.2133
127.5896,96.2302
127.5717,96.2387
127.5145,96.2746
127.4627,96.3174
127.4286,96.3558
127.4246,96.3789
127.4325,96.3852
127.5193,96.4519
127.5774,96.4912
127.6157,96.5071
127.6435,96.5034
127.6699,96.4840
127.7185,96.4598
127.8004,96.4437
127.8929,96.4395
127.9767,96.4480
128.0322,96.4700
128.0351,96.4726
128.0600,96.5228
128.0698,96.5978
128.0698,96.6943
127.8394,96.6944
127.7336,96.6961
127.6446,96.7034
127.5809,96.7184
127.5294,96.7431
127.5174,96.7507
127.4307,96.8343
127.3846,96.9448
127.3807,97.0278
Z" /> 
<path style="fill:#000000; fill-opacity:1.0000; 
stroke:#000000; stroke-width:0.0100; stroke-opacity:1; 
stroke-linecap:round; stroke-linejoin:round;fill-rule:evenodd;"
d="M 126.2519,97.4191
126.3827,97.4115
126.5134,97.4040
126.5196,97.0056
126.5215,96.9087
126.5267,96.7631
126.5356,96.6563
126.5500,96.5811
126.5714,96.5302
126.6014,96.4966
126.6418,96.4729
126.7176,96.4488
126.7930,96.4582
126.8726,96.5098
126.9492,96.5742
126.9492,97.4165
127.2231,97.4165
127.2231,96.9597
127.2229,96.8165
127.2214,96.6893
127.2179,96.5962
127.2115,96.5287
127.2014,96.4785
127.1866,96.4370
127.1665,96.3958
127.1617,96.3871
127.0981,96.3020
127.0237,96.2425
126.9339,96.2112
126.8151,96.1973
126.6961,96.2049
126.5993,96.2343
126.5259,96.2723
126.5259,95.4500
126.6265,95.5025
126.6686,95.5215
126.8013,95.5485
126.9332,95.5299
127.0555,95.4679
127.1593,95.3649
127.1756,95.3407
127.1912,95.3053
127.2014,95.2570
127.2073,95.1868
127.2100,95.0852
127.2105,94.9794
126.9474,94.9794
126.9472,95.0678
126.9405,95.1267
126.9253,95.1688
126.8998,95.2065
126.8674,95.2416
126.8156,95.2682
126.7375,95.2749
126.6686,95.2690
126.6003,95.2396
126.5564,95.1801
126.5328,95.0844
126.5259,94.9466
126.5277,94.8733
126.5457,94.7348
126.5829,94.6412
126.6390,94.5931
126.6958,94.5796
126.7945,94.5859
126.8780,94.6252
126.8979,94.6432
126.9191,94.6744
126.9322,94.7208
126.9399,94.7940
126.9452,94.9054
126.9474,94.9794
127.2105,94.9794
127.2107,94.9431
127.2104,94.8783
127.2066,94.7275
127.1960,94.6149
127.1759,94.5319
127.1435,94.4700
127.0964,94.4207
127.0316,94.3755
126.9791,94.3496
126.8546,94.3210
126.7234,94.3249
126.6068,94.3619
126.5567,94.3862
126.5316,94.3887
126.5259,94.3666
126.5259,94.3660
126.5136,94.3434
126.4711,94.3319
126.3889,94.3286
126.2519,94.3286
126.2519,94.9466
Z" /> 
<path style="fill:#000000; fill-opacity:1.0000; 
stroke:#000000; stroke-width:0.0100; stroke-opacity:1; 
stroke-linecap:round; stroke-linejoin:round;fill-rule:evenodd;"
d="M 130.0376,86.0732
129.9250,86.6704
129.5096,86.8416
129.0942,87.0129
128.5958,86.6740
128.4972,86.6072
128.3664,86.5195
128.2532,86.4446
128.1634,86.3863
128.1029,86.3485
128.0777,86.3351
128.0621,86.3447
128.0157,86.3847
127.9455,86.4505
127.8574,86.5359
127.7573,86.6349
127.6513,86.7415
127.5453,86.8496
127.4452,86.9533
127.3569,87.0464
127.2866,87.1229
127.2400,87.1768
127.2231,87.2020
127.2270,87.2129
127.2542,87.2612
127.3038,87.3408
127.3717,87.4455
127.4541,87.5688
127.5468,87.7047
127.5977,87.7788
127.6853,87.9078
127.7603,88.0204
127.8189,88.1105
127.8570,88.1719
127.8706,88.1986
127.8703,88.2001
127.8584,88.2340
127.8309,88.3031
127.7917,88.3984
127.7447,88.5110
127.6937,88.6317
127.6425,88.7516
127.5950,88.8616
127.5549,88.9527
127.5262,89.0159
127.5126,89.0422
127.5045,89.0445
127.4557,89.0550
127.3685,89.0724
127.2502,89.0953
127.1075,89.1224
126.9475,89.1523
126.8632,89.1682
126.7084,89.1984
126.5731,89.2263
126.4646,89.2504
126.3904,89.2689
126.3578,89.2802
126.3519,89.2915
126.3422,89.3466
126.3346,89.4383
126.3290,89.5581
126.3255,89.6972
126.3241,89.8471
126.3247,89.9992
126.3274,90.1447
126.3322,90.2751
126.3390,90.3818
126.3478,90.4560
126.3586,90.4892
126.3652,90.4930
126.4142,90.5091
126.4994,90.5303
126.6107,90.5545
126.7384,90.5791
126.7814,90.5870
126.9804,90.6235
127.1368,90.6529
127.2560,90.6763
127.3435,90.6950
127.4046,90.7101
127.4448,90.7230
127.4695,90.7348
127.4841,90.7467
127.4858,90.7486
127.5097,90.7903
127.5451,90.8664
127.5885,90.9682
127.6365,91.0866
127.6858,91.2128
127.7328,91.3378
127.7741,91.4526
127.8063,91.5483
127.8259,91.6161
127.8296,91.6469
127.8272,91.6509
127.8015,91.6896
127.7533,91.7609
127.6869,91.8583
127.6070,91.9752
127.5178,92.1051
127.4933,92.1408
127.4073,92.2690
127.3329,92.3836
127.2745,92.4779
127.2363,92.5450
127.2224,92.5782
127.2254,92.5870
127.2565,92.6300
127.3178,92.7002
127.4051,92.7930
127.5138,92.9035
127.6395,93.0271
127.7114,93.0962
127.8251,93.2040
127.9245,93.2962
128.0045,93.3682
128.0596,93.4150
128.0845,93.4317
128.1016,93.4255
128.1543,93.3961
128.2308,93.3481
128.3211,93.2874
128.3853,93.2432
128.5135,93.1553
128.6503,93.0619
128.7753,92.9771
129.0201,92.8115
129.2256,92.9226
129.2739,92.9483
129.3619,92.9921
129.4300,93.0224
129.4663,93.0337
129.4782,93.0192
129.5078,92.9640
129.5515,92.8730
129.6068,92.7519
129.6713,92.6066
129.7427,92.4427
129.8185,92.2662
129.8962,92.0828
129.9734,91.8981
130.0477,91.7181
130.1167,91.5486
130.1780,91.3951
130.2290,91.2637
130.2674,91.1599
130.2908,91.0897
130.2967,91.0588
130.2963,91.0579
130.2689,91.0293
130.2114,90.9845
130.1358,90.9328
130.1120,90.9170
129.9305,90.7672
129.7802,90.5888
129.6649,90.3892
129.5879,90.1758
129.5529,89.9561
129.5634,89.7375
129.6059,89.5430
129.6823,89.3467
129.7936,89.1715
129.9464,89.0051
130.0065,88.9519
130.2005,88.8210
130.4102,88.7327
130.6294,88.6865
130.8520,88.6815
131.0719,88.7168
131.2831,88.7918
131.4795,88.9056
131.6551,89.0574
131.8037,89.2464
131.8322,89.2932
131.9293,89.5072
131.9809,89.7300
131.9883,89.9559
131.9528,90.1791
131.8759,90.3938
131.7589,90.5943
131.6030,90.7748
131.4098,90.9295
131.4035,90.9337
131.3287,90.9864
131.2727,91.0312
131.2471,91.0588
131.2503,91.0804
131.2704,91.1434
131.3060,91.2410
131.3547,91.3675
131.4141,91.5171
131.4817,91.6840
131.5551,91.8625
131.6319,92.0466
131.7097,92.2308
131.7860,92.4091
131.8584,92.5759
131.9245,92.7253
131.9818,92.8516
132.0279,92.9489
132.0605,93.0115
132.0770,93.0337
132.0907,93.0307
132.1445,93.0091
132.2241,92.9713
132.3178,92.9226
132.5232,92.8115
132.7680,92.9771
132.8404,93.0261
132.9749,93.1177
133.1090,93.2095
133.2222,93.2874
133.2847,93.3299
133.3660,93.3826
133.4262,93.4188
133.4556,93.4322
133.4682,93.4265
133.5139,93.3916
133.5844,93.3303
133.6734,93.2486
133.7749,93.1524
133.8828,93.0478
133.9909,92.9408
134.0931,92.8375
134.1832,92.7439
134.2552,92.6660
134.3029,92.6099
134.3202,92.5816
134.3192,92.5762
134.2986,92.5323
134.2548,92.4564
134.1918,92.3553
134.1140,92.2359
134.0255,92.1051
134.0007,92.0690
133.9136,91.9420
133.8369,91.8297
133.7750,91.7387
133.7324,91.6756
133.7137,91.6469
133.7132,91.6457
133.7187,91.6106
133.7399,91.5395
133.7732,91.4413
133.8153,91.3250
133.8626,91.1995
133.9119,91.0737
133.9596,90.9566
134.0024,90.8571
134.0367,90.7841
134.0592,90.7467
134.0615,90.7443
134.0776,90.7325
134.1048,90.7207
134.1486,90.7075
134.2143,90.6918
134.3073,90.6723
134.4332,90.6478
134.5972,90.6172
134.8049,90.5791
134.8480,90.5711
134.9714,90.5464
135.0752,90.5229
135.1496,90.5031
135.1847,90.4892
135.1906,90.4777
135.2004,90.4221
135.2081,90.3300
135.2138,90.2100
135.2175,90.0706
135.2191,89.9206
135.2187,89.7686
135.2162,89.6232
135.2117,89.4930
135.2050,89.3867
135.1963,89.3129
135.1855,89.2802
135.1745,89.2754
135.1197,89.2602
135.0270,89.2387
134.9038,89.2124
134.7577,89.1831
134.5958,89.1523
134.5074,89.1358
134.3559,89.1073
134.2256,89.0823
134.1232,89.0622
134.0560,89.0484
134.0307,89.0422
134.0298,89.0409
134.0137,89.0084
133.9830,88.9405
133.9416,88.8460
133.8933,88.7340
133.8418,88.6135
133.7912,88.4936
133.7451,88.3832
133.7075,88.2915
133.6820,88.2273
133.6727,88.1998
133.6768,88.1901
133.7042,88.1440
133.7538,88.0664
133.8217,87.9635
133.9039,87.8412
133.9965,87.7056
134.0472,87.6314
134.1348,87.5013
134.2099,87.3871
134.2685,87.2951
134.3066,87.2314
134.3202,87.2023
134.3107,87.1866
134.2712,87.1395
134.2064,87.0682
134.1223,86.9788
134.0247,86.8772
133.9197,86.7696
133.8132,86.6620
133.7111,86.5604
133.6194,86.4709
133.5441,86.3995
133.4910,86.3522
133.4662,86.3351
133.4524,86.3417
133.4018,86.3726
133.3201,86.4251
133.2132,86.4954
133.0871,86.5796
132.9475,86.6740
132.4491,87.0129
132.0337,86.8416
131.6183,86.6704
131.5057,86.0732
131.3932,85.4760
130.1501,85.4760
Z" /> 
</g> 
</svg>
