<?xml version="1.0" standalone="no"?>
 <!DOCTYPE svg PUBLIC "-//W3C//DTD SVG 1.1//EN" 
 "http://www.w3.org/Graphics/SVG/1.1/DTD/svg11.dtd"> 
<svg
  xmlns:svg="http://www.w3.org/2000/svg"
  xmlns="http://www.w3.org/2000/svg"
  xmlns:xlink="http://www.w3.org/1999/xlink"
  version="1.1"
  width="29.700220cm" height="21.000720cm" viewBox="0 0 2970022 2100072">
<title>SVG Picture created as t1-B_Silkscreen.svg date 2023/06/26 15:44:32 </title>
  <desc>Picture generated by PCBNEW </desc>
<g style="fill:#000000; fill-opacity:1.000000;stroke:#000000; stroke-opacity:1.000000;
stroke-linecap:round; stroke-linejoin:round;"
 transform="translate(0 0) scale(1 1)">
</g>
<g style="fill:#000000; fill-opacity:0.0; 
stroke:#000000; stroke-width:0.000000; stroke-opacity:1; 
stroke-linecap:round; stroke-linejoin:round;">
</g>
<g style="fill:#000000; fill-opacity:0.0; 
stroke:#000000; stroke-width:1500.000000; stroke-opacity:1; 
stroke-linecap:round; stroke-linejoin:round;">
<text x="1682750.000000" y="877060.000000"
transform="scale(-1 1) translate(-3365500.000000 0)"
textLength="174240.480000" font-size="13333.330000" lengthAdjust="spacingAndGlyphs"
text-anchor="middle" opacity="0">KiBot variants example</text>
<g class="stroked-text"><desc>KiBot variants example</desc>
<path d="M1597035 876583
L1597035 866583
" />
<path d="M1602750 876583
L1598464 870869
" />
<path d="M1602750 866583
L1597035 872298
" />
<path d="M1607035 876583
L1607035 869917
" />
<path d="M1607035 866583
L1606559 867060
L1607035 867536
L1607511 867060
L1607035 866583
L1607035 867536
" />
<path d="M1615130 871345
L1616559 871821
L1617035 872298
L1617511 873250
L1617511 874679
L1617035 875631
L1616559 876107
L1615607 876583
L1611797 876583
L1611797 866583
L1615130 866583
L1616083 867060
L1616559 867536
L1617035 868488
L1617035 869440
L1616559 870393
L1616083 870869
L1615130 871345
L1611797 871345
" />
<path d="M1623226 876583
L1622273 876107
L1621797 875631
L1621321 874679
L1621321 871821
L1621797 870869
L1622273 870393
L1623226 869917
L1624654 869917
L1625607 870393
L1626083 870869
L1626559 871821
L1626559 874679
L1626083 875631
L1625607 876107
L1624654 876583
L1623226 876583
" />
<path d="M1629416 869917
L1633226 869917
" />
<path d="M1630845 866583
L1630845 875155
L1631321 876107
L1632273 876583
L1633226 876583
" />
<path d="M1643226 869917
L1645607 876583
L1647988 869917
" />
<path d="M1656083 876583
L1656083 871345
L1655607 870393
L1654654 869917
L1652750 869917
L1651797 870393
" />
<path d="M1656083 876107
L1655130 876583
L1652750 876583
L1651797 876107
L1651321 875155
L1651321 874202
L1651797 873250
L1652750 872774
L1655130 872774
L1656083 872298
" />
<path d="M1660845 876583
L1660845 869917
" />
<path d="M1660845 871821
L1661321 870869
L1661797 870393
L1662750 869917
L1663702 869917
" />
<path d="M1667035 876583
L1667035 869917
" />
<path d="M1667035 866583
L1666559 867060
L1667035 867536
L1667511 867060
L1667035 866583
L1667035 867536
" />
<path d="M1676083 876583
L1676083 871345
L1675607 870393
L1674654 869917
L1672750 869917
L1671797 870393
" />
<path d="M1676083 876107
L1675130 876583
L1672750 876583
L1671797 876107
L1671321 875155
L1671321 874202
L1671797 873250
L1672750 872774
L1675130 872774
L1676083 872298
" />
<path d="M1680845 869917
L1680845 876583
" />
<path d="M1680845 870869
L1681321 870393
L1682273 869917
L1683702 869917
L1684654 870393
L1685130 871345
L1685130 876583
" />
<path d="M1688464 869917
L1692273 869917
" />
<path d="M1689892 866583
L1689892 875155
L1690369 876107
L1691321 876583
L1692273 876583
" />
<path d="M1695130 876107
L1696083 876583
L1697988 876583
L1698940 876107
L1699416 875155
L1699416 874679
L1698940 873726
L1697988 873250
L1696559 873250
L1695607 872774
L1695130 871821
L1695130 871345
L1695607 870393
L1696559 869917
L1697988 869917
L1698940 870393
" />
<path d="M1715130 876107
L1714178 876583
L1712273 876583
L1711321 876107
L1710845 875155
L1710845 871345
L1711321 870393
L1712273 869917
L1714178 869917
L1715130 870393
L1715607 871345
L1715607 872298
L1710845 873250
" />
<path d="M1718940 876583
L1724178 869917
" />
<path d="M1718940 869917
L1724178 876583
" />
<path d="M1732273 876583
L1732273 871345
L1731797 870393
L1730845 869917
L1728940 869917
L1727988 870393
" />
<path d="M1732273 876107
L1731321 876583
L1728940 876583
L1727988 876107
L1727511 875155
L1727511 874202
L1727988 873250
L1728940 872774
L1731321 872774
L1732273 872298
" />
<path d="M1737035 876583
L1737035 869917
" />
<path d="M1737035 870869
L1737511 870393
L1738464 869917
L1739892 869917
L1740845 870393
L1741321 871345
L1741321 876583
" />
<path d="M1741321 871345
L1741797 870393
L1742750 869917
L1744178 869917
L1745130 870393
L1745607 871345
L1745607 876583
" />
<path d="M1750369 869917
L1750369 879917
" />
<path d="M1750369 870393
L1751321 869917
L1753226 869917
L1754178 870393
L1754654 870869
L1755130 871821
L1755130 874679
L1754654 875631
L1754178 876107
L1753226 876583
L1751321 876583
L1750369 876107
" />
<path d="M1760845 876583
L1759892 876107
L1759416 875155
L1759416 866583
" />
<path d="M1768464 876107
L1767511 876583
L1765607 876583
L1764654 876107
L1764178 875155
L1764178 871345
L1764654 870393
L1765607 869917
L1767511 869917
L1768464 870393
L1768940 871345
L1768940 872298
L1764178 873250
" />
</g><text x="1682750.000000" y="893160.000000"
transform="scale(-1 1) translate(-3365500.000000 0)"
textLength="158526.190000" font-size="13333.330000" lengthAdjust="spacingAndGlyphs"
text-anchor="middle" opacity="0">Not a real life board</text>
<g class="stroked-text"><desc>Not a real life board</desc>
<path d="M1604892 892683
L1604892 882683
L1610607 892683
L1610607 882683
" />
<path d="M1616797 892683
L1615845 892207
L1615369 891731
L1614892 890779
L1614892 887921
L1615369 886969
L1615845 886493
L1616797 886017
L1618226 886017
L1619178 886493
L1619654 886969
L1620130 887921
L1620130 890779
L1619654 891731
L1619178 892207
L1618226 892683
L1616797 892683
" />
<path d="M1622988 886017
L1626797 886017
" />
<path d="M1624416 882683
L1624416 891255
L1624892 892207
L1625845 892683
L1626797 892683
" />
<path d="M1642035 892683
L1642035 887445
L1641559 886493
L1640607 886017
L1638702 886017
L1637750 886493
" />
<path d="M1642035 892207
L1641083 892683
L1638702 892683
L1637750 892207
L1637273 891255
L1637273 890302
L1637750 889350
L1638702 888874
L1641083 888874
L1642035 888398
" />
<path d="M1654416 892683
L1654416 886017
" />
<path d="M1654416 887921
L1654892 886969
L1655369 886493
L1656321 886017
L1657273 886017
" />
<path d="M1664416 892207
L1663464 892683
L1661559 892683
L1660607 892207
L1660130 891255
L1660130 887445
L1660607 886493
L1661559 886017
L1663464 886017
L1664416 886493
L1664892 887445
L1664892 888398
L1660130 889350
" />
<path d="M1673464 892683
L1673464 887445
L1672988 886493
L1672035 886017
L1670130 886017
L1669178 886493
" />
<path d="M1673464 892207
L1672511 892683
L1670130 892683
L1669178 892207
L1668702 891255
L1668702 890302
L1669178 889350
L1670130 888874
L1672511 888874
L1673464 888398
" />
<path d="M1679654 892683
L1678702 892207
L1678226 891255
L1678226 882683
" />
<path d="M1692511 892683
L1691559 892207
L1691083 891255
L1691083 882683
" />
<path d="M1696321 892683
L1696321 886017
" />
<path d="M1696321 882683
L1695845 883160
L1696321 883636
L1696797 883160
L1696321 882683
L1696321 883636
" />
<path d="M1699654 886017
L1703464 886017
" />
<path d="M1701083 892683
L1701083 884112
L1701559 883160
L1702511 882683
L1703464 882683
" />
<path d="M1710607 892207
L1709654 892683
L1707750 892683
L1706797 892207
L1706321 891255
L1706321 887445
L1706797 886493
L1707750 886017
L1709654 886017
L1710607 886493
L1711083 887445
L1711083 888398
L1706321 889350
" />
<path d="M1722988 892683
L1722988 882683
" />
<path d="M1722988 886493
L1723940 886017
L1725845 886017
L1726797 886493
L1727273 886969
L1727750 887921
L1727750 890779
L1727273 891731
L1726797 892207
L1725845 892683
L1723940 892683
L1722988 892207
" />
<path d="M1733464 892683
L1732511 892207
L1732035 891731
L1731559 890779
L1731559 887921
L1732035 886969
L1732511 886493
L1733464 886017
L1734892 886017
L1735845 886493
L1736321 886969
L1736797 887921
L1736797 890779
L1736321 891731
L1735845 892207
L1734892 892683
L1733464 892683
" />
<path d="M1745369 892683
L1745369 887445
L1744892 886493
L1743940 886017
L1742035 886017
L1741083 886493
" />
<path d="M1745369 892207
L1744416 892683
L1742035 892683
L1741083 892207
L1740607 891255
L1740607 890302
L1741083 889350
L1742035 888874
L1744416 888874
L1745369 888398
" />
<path d="M1750130 892683
L1750130 886017
" />
<path d="M1750130 887921
L1750607 886969
L1751083 886493
L1752035 886017
L1752988 886017
" />
<path d="M1760607 892683
L1760607 882683
" />
<path d="M1760607 892207
L1759654 892683
L1757750 892683
L1756797 892207
L1756321 891731
L1755845 890779
L1755845 887921
L1756321 886969
L1756797 886493
L1757750 886017
L1759654 886017
L1760607 886493
" />
</g><text x="1293876.000000" y="824912.000000"
transform="scale(-1 1) translate(-2587752.000000 0)"
textLength="25192.860000" font-size="13333.330000" lengthAdjust="spacingAndGlyphs"
text-anchor="middle" opacity="0">TP2</text>
<g class="stroked-text"><desc>TP2</desc>
<path d="M1281256 814435
L1286971 814435
" />
<path d="M1284114 824435
L1284114 814435
" />
<path d="M1290304 824435
L1290304 814435
L1294114 814435
L1295066 814912
L1295542 815388
L1296018 816340
L1296018 817769
L1295542 818721
L1295066 819197
L1294114 819673
L1290304 819673
" />
<path d="M1299828 815388
L1300304 814912
L1301256 814435
L1303637 814435
L1304590 814912
L1305066 815388
L1305542 816340
L1305542 817292
L1305066 818721
L1299352 824435
L1305542 824435
" />
</g><text x="1211580.000000" y="801290.000000"
transform="scale(-1 1) translate(-2423160.000000 0)"
textLength="25192.860000" font-size="13333.330000" lengthAdjust="spacingAndGlyphs"
text-anchor="middle" opacity="0">TP3</text>
<g class="stroked-text"><desc>TP3</desc>
<path d="M1198960 790813
L1204675 790813
" />
<path d="M1201818 800813
L1201818 790813
" />
<path d="M1208008 800813
L1208008 790813
L1211818 790813
L1212770 791290
L1213246 791766
L1213722 792718
L1213722 794147
L1213246 795099
L1212770 795575
L1211818 796051
L1208008 796051
" />
<path d="M1217056 790813
L1223246 790813
L1219913 794623
L1221341 794623
L1222294 795099
L1222770 795575
L1223246 796528
L1223246 798909
L1222770 799861
L1222294 800337
L1221341 800813
L1218484 800813
L1217532 800337
L1217056 799861
" />
</g><text x="1180338.000000" y="829992.000000"
transform="scale(-1 1) translate(-2360676.000000 0)"
textLength="25192.860000" font-size="13333.330000" lengthAdjust="spacingAndGlyphs"
text-anchor="middle" opacity="0">TP4</text>
<g class="stroked-text"><desc>TP4</desc>
<path d="M1167718 819515
L1173433 819515
" />
<path d="M1170576 829515
L1170576 819515
" />
<path d="M1176766 829515
L1176766 819515
L1180576 819515
L1181528 819992
L1182004 820468
L1182480 821420
L1182480 822849
L1182004 823801
L1181528 824277
L1180576 824753
L1176766 824753
" />
<path d="M1191052 822849
L1191052 829515
" />
<path d="M1188671 819039
L1186290 826182
L1192480 826182
" />
</g><text x="1179576.000000" y="863774.000000"
transform="scale(-1 1) translate(-2359152.000000 0)"
textLength="25192.860000" font-size="13333.330000" lengthAdjust="spacingAndGlyphs"
text-anchor="middle" opacity="0">TP5</text>
<g class="stroked-text"><desc>TP5</desc>
<path d="M1166956 853297
L1172671 853297
" />
<path d="M1169814 863297
L1169814 853297
" />
<path d="M1176004 863297
L1176004 853297
L1179814 853297
L1180766 853774
L1181242 854250
L1181718 855202
L1181718 856631
L1181242 857583
L1180766 858059
L1179814 858535
L1176004 858535
" />
<path d="M1190766 853297
L1186004 853297
L1185528 858059
L1186004 857583
L1186956 857107
L1189337 857107
L1190290 857583
L1190766 858059
L1191242 859012
L1191242 861393
L1190766 862345
L1190290 862821
L1189337 863297
L1186956 863297
L1186004 862821
L1185528 862345
" />
</g><text x="1326642.000000" y="724582.000000"
transform="scale(-1 1) translate(-2653284.000000 0)"
textLength="25192.860000" font-size="13333.330000" lengthAdjust="spacingAndGlyphs"
text-anchor="middle" opacity="0">TP6</text>
<g class="stroked-text"><desc>TP6</desc>
<path d="M1314022 714105
L1319737 714105
" />
<path d="M1316880 724105
L1316880 714105
" />
<path d="M1323070 724105
L1323070 714105
L1326880 714105
L1327832 714582
L1328308 715058
L1328784 716010
L1328784 717439
L1328308 718391
L1327832 718867
L1326880 719343
L1323070 719343
" />
<path d="M1337356 714105
L1335451 714105
L1334499 714582
L1334022 715058
L1333070 716486
L1332594 718391
L1332594 722201
L1333070 723153
L1333546 723629
L1334499 724105
L1336403 724105
L1337356 723629
L1337832 723153
L1338308 722201
L1338308 719820
L1337832 718867
L1337356 718391
L1336403 717915
L1334499 717915
L1333546 718391
L1333070 718867
L1332594 719820
" />
</g><text x="1435608.000000" y="724582.000000"
transform="scale(-1 1) translate(-2871216.000000 0)"
textLength="25192.860000" font-size="13333.330000" lengthAdjust="spacingAndGlyphs"
text-anchor="middle" opacity="0">TP8</text>
<g class="stroked-text"><desc>TP8</desc>
<path d="M1422988 714105
L1428703 714105
" />
<path d="M1425846 724105
L1425846 714105
" />
<path d="M1432036 724105
L1432036 714105
L1435846 714105
L1436798 714582
L1437274 715058
L1437750 716010
L1437750 717439
L1437274 718391
L1436798 718867
L1435846 719343
L1432036 719343
" />
<path d="M1443465 718391
L1442512 717915
L1442036 717439
L1441560 716486
L1441560 716010
L1442036 715058
L1442512 714582
L1443465 714105
L1445369 714105
L1446322 714582
L1446798 715058
L1447274 716010
L1447274 716486
L1446798 717439
L1446322 717915
L1445369 718391
L1443465 718391
L1442512 718867
L1442036 719343
L1441560 720296
L1441560 722201
L1442036 723153
L1442512 723629
L1443465 724105
L1445369 724105
L1446322 723629
L1446798 723153
L1447274 722201
L1447274 720296
L1446798 719343
L1446322 718867
L1445369 718391
" />
</g><text x="1410716.000000" y="869616.000000"
transform="scale(-1 1) translate(-2821432.000000 0)"
textLength="25192.860000" font-size="13333.330000" lengthAdjust="spacingAndGlyphs"
text-anchor="middle" opacity="0">TP9</text>
<g class="stroked-text"><desc>TP9</desc>
<path d="M1398096 859139
L1403811 859139
" />
<path d="M1400954 869139
L1400954 859139
" />
<path d="M1407144 869139
L1407144 859139
L1410954 859139
L1411906 859616
L1412382 860092
L1412858 861044
L1412858 862473
L1412382 863425
L1411906 863901
L1410954 864377
L1407144 864377
" />
<path d="M1417620 869139
L1419525 869139
L1420477 868663
L1420954 868187
L1421906 866758
L1422382 864854
L1422382 861044
L1421906 860092
L1421430 859616
L1420477 859139
L1418573 859139
L1417620 859616
L1417144 860092
L1416668 861044
L1416668 863425
L1417144 864377
L1417620 864854
L1418573 865330
L1420477 865330
L1421430 864854
L1421906 864377
L1422382 863425
" />
</g></g>
<g style="fill:#000000; fill-opacity:0.0; 
stroke:#000000; stroke-width:1200.000000; stroke-opacity:1; 
stroke-linecap:round; stroke-linejoin:round;">
<circle cx="1292098.000000" cy="801624.000000" r="7000.000000" /> 
<circle cx="1235202.000000" cy="784860.000000" r="7000.000000" /> 
<circle cx="1179322.000000" cy="807720.000000" r="7000.000000" /> 
<circle cx="1179322.000000" cy="840740.000000" r="7000.000000" /> 
<circle cx="1327150.000000" cy="700532.000000" r="7000.000000" /> 
<circle cx="1435100.000000" cy="700278.000000" r="7000.000000" /> 
<circle cx="1410462.000000" cy="845820.000000" r="7000.000000" /> 
</g>
<g style="fill:#000000; fill-opacity:1.0; 
stroke:#000000; stroke-width:100.000000; stroke-opacity:1; 
stroke-linecap:round; stroke-linejoin:round;">
<path style="fill:#000000; fill-opacity:1.0; 
stroke:#000000; stroke-width:100.000000; stroke-opacity:1; 
stroke-linecap:round; stroke-linejoin:round;fill-rule:evenodd;"
d="M 1250885.970000,950726.530000
1250958.950000,951677.540000
1251083.270000,952351.600000
1251288.570000,952885.700000
1251604.490000,953416.850000
1251617.940000,953436.990000
1252395.840000,954297.550000
1253347.620000,954953.910000
1254454.400000,955343.390000
1255910.370000,955469.850000
1257337.370000,955221.190000
1258612.910000,954621.980000
1259614.470000,953696.810000
1259902.010000,953259.670000
1260438.990000,951900.730000
1260705.300000,950224.080000
1260700.750000,949799.970000
1258024.370000,949799.970000
1258019.330000,950593.140000
1257935.230000,951122.670000
1257743.620000,951529.560000
1257416.020000,951954.790000
1256961.420000,952376.760000
1256052.200000,952753.330000
1255075.920000,952683.380000
1254142.860000,952160.020000
1253879.660000,951910.060000
1253598.640000,951482.140000
1253442.800000,950880.680000
1253354.470000,949943.480000
1253330.140000,949239.440000
1253463.440000,947801.680000
1253872.530000,946772.310000
1254559.190000,946145.670000
1255364.110000,945845.600000
1256324.060000,945870.860000
1257213.890000,946377.460000
1257426.620000,946570.310000
1257695.070000,946907.740000
1257854.340000,947349.200000
1257942.710000,948026.010000
1257998.450000,949069.500000
1258024.370000,949799.970000
1260700.750000,949799.970000
1260684.760000,948311.260000
1260658.550000,948039.960000
1260292.820000,946302.290000
1259616.190000,944953.340000
1258627.220000,943991.630000
1257324.470000,943415.680000
1255706.500000,943224.020000
1255095.210000,943242.010000
1253841.610000,943462.110000
1252816.540000,943987.460000
1251860.850000,944886.860000
1251708.000000,945067.370000
1251295.760000,945675.300000
1251024.830000,946363.670000
1250874.600000,947236.000000
1250824.460000,948395.820000
1250840.440000,949239.440000
1250853.820000,949946.660000
Z" /> 
<path style="fill:#000000; fill-opacity:1.0; 
stroke:#000000; stroke-width:100.000000; stroke-opacity:1; 
stroke-linecap:round; stroke-linejoin:round;fill-rule:evenodd;"
d="M 1331746.900000,947162.450000
1331725.890000,948906.240000
1331643.670000,950314.600000
1331477.090000,951338.250000
1331203.090000,952034.580000
1330798.570000,952460.930000
1330240.480000,952674.680000
1329505.720000,952733.180000
1328804.170000,952680.970000
1328237.570000,952476.590000
1327825.740000,952062.540000
1327545.600000,951381.470000
1327374.070000,950376.000000
1327288.080000,948988.790000
1327264.540000,947162.450000
1327264.540000,943286.280000
1324774.350000,943286.280000
1324774.350000,947959.280000
1324778.620000,949206.590000
1324811.820000,950819.550000
1324895.130000,952049.650000
1325048.740000,952967.290000
1325292.810000,953642.910000
1325647.530000,954146.910000
1326133.080000,954549.710000
1326769.650000,954921.740000
1328106.380000,955392.700000
1329501.450000,955423.420000
1330816.760000,954989.710000
1331390.650000,954708.570000
1331675.360000,954666.540000
1331746.900000,954865.200000
1331865.680000,955088.260000
1332290.840000,955205.760000
1333116.510000,955239.220000
1334486.110000,955239.220000
1334486.110000,943286.280000
1331746.900000,943286.280000
Z" /> 
<path style="fill:#000000; fill-opacity:1.0; 
stroke:#000000; stroke-width:100.000000; stroke-opacity:1; 
stroke-linecap:round; stroke-linejoin:round;fill-rule:evenodd;"
d="M 1354768.400000,950366.320000
1354772.570000,950403.800000
1355130.610000,952152.710000
1355777.510000,953512.470000
1356733.410000,954512.960000
1358018.470000,955184.050000
1358254.360000,955260.790000
1359716.490000,955486.960000
1361228.660000,955360.840000
1362634.500000,954910.170000
1363777.630000,954162.690000
1364633.880000,953371.570000
1363723.730000,952651.910000
1362813.580000,951932.240000
1361716.720000,952465.140000
1360447.550000,952896.950000
1359327.120000,952909.870000
1358410.430000,952513.140000
1357750.770000,951716.830000
1357514.290000,951239.680000
1357382.280000,950831.890000
1357458.660000,950556.410000
1357801.370000,950387.310000
1358468.320000,950298.640000
1359517.460000,950264.450000
1361006.700000,950258.820000
1364617.490000,950258.820000
1364617.490000,948531.900000
1364590.510000,947773.760000
1362048.150000,947773.760000
1361926.050000,947913.210000
1361564.520000,947985.780000
1360877.370000,948013.320000
1359778.380000,948017.650000
1359189.060000,948010.730000
1358259.100000,947965.000000
1357628.270000,947884.910000
1357395.920000,947780.350000
1357455.370000,947394.560000
1357874.380000,946656.340000
1358572.620000,946049.900000
1359405.010000,945683.620000
1360226.460000,945665.890000
1360844.790000,945959.600000
1361545.440000,946628.000000
1361990.940000,947457.350000
1362017.040000,947545.620000
1362048.150000,947773.760000
1364590.510000,947773.760000
1364584.980000,947618.530000
1364489.540000,946714.840000
1364353.190000,946103.960000
1364253.800000,945870.740000
1363530.340000,944832.020000
1362485.000000,943965.690000
1361262.510000,943398.450000
1360624.870000,943243.550000
1359105.550000,943173.040000
1357751.780000,943531.740000
1356600.780000,944279.740000
1355689.730000,945377.110000
1355055.850000,946783.950000
1354865.930000,947780.350000
1354736.340000,948460.320000
Z" /> 
<path style="fill:#000000; fill-opacity:1.0; 
stroke:#000000; stroke-width:100.000000; stroke-opacity:1; 
stroke-linecap:round; stroke-linejoin:round;fill-rule:evenodd;"
d="M 1263826.800000,974115.470000
1265134.150000,974040.200000
1265196.310000,970055.880000
1265214.700000,969087.040000
1265266.900000,967631.460000
1265356.500000,966563.340000
1265499.970000,965810.870000
1265713.790000,965302.270000
1266014.410000,964965.740000
1266418.330000,964729.470000
1267176.220000,964488.180000
1267929.930000,964581.940000
1268725.830000,965097.630000
1269492.000000,965742.310000
1269492.000000,974164.710000
1272231.210000,974164.710000
1272231.210000,969597.010000
1272228.580000,968165.310000
1272214.010000,966893.090000
1272178.990000,965961.840000
1272115.030000,965287.130000
1272013.650000,964784.540000
1271866.370000,964369.660000
1271664.710000,963958.050000
1271616.900000,963870.660000
1270980.990000,963019.540000
1270236.730000,962424.760000
1269339.450000,962112.450000
1268151.280000,961973.420000
1266961.410000,962048.720000
1265993.350000,962342.670000
1265258.660000,962722.590000
1265258.660000,954500.150000
1266265.330000,955024.860000
1266685.840000,955215.490000
1268013.140000,955485.060000
1269332.210000,955298.740000
1270554.950000,954679.290000
1271593.280000,953649.430000
1271755.940000,953407.380000
1271912.270000,953052.560000
1272014.240000,952570.150000
1272073.120000,951867.570000
1272100.180000,950852.210000
1272105.040000,949794.280000
1269474.410000,949794.280000
1269472.190000,950677.790000
1269404.650000,951267.000000
1269252.840000,951687.520000
1268997.830000,952064.990000
1268673.890000,952415.940000
1268155.860000,952681.540000
1267375.330000,952749.020000
1266685.820000,952690.290000
1266003.350000,952396.410000
1265563.820000,951801.070000
1265328.500000,950844.230000
1265258.660000,949465.820000
1265276.720000,948732.540000
1265456.990000,947348.330000
1265828.920000,946412.330000
1266390.410000,945931.160000
1266957.510000,945795.790000
1267945.140000,945859.250000
1268779.600000,946252.230000
1268979.320000,946432.440000
1269190.950000,946744.220000
1269321.790000,947208.330000
1269399.490000,947940.000000
1269451.680000,949054.480000
1269474.410000,949794.280000
1272105.040000,949794.280000
1272106.700000,949431.490000
1272104.470000,948783.240000
1272066.300000,947275.380000
1271959.970000,946148.960000
1271758.650000,945318.850000
1271435.470000,944699.910000
1270963.580000,944207.000000
1270316.120000,943754.990000
1269791.090000,943495.600000
1268546.290000,943209.530000
1267234.190000,943248.510000
1266067.980000,943619.350000
1265567.470000,943861.760000
1265315.740000,943886.810000
1265258.660000,943666.200000
1265258.610000,943659.520000
1265135.600000,943434.260000
1264711.350000,943318.790000
1263889.050000,943286.280000
1262519.450000,943286.280000
1262519.450000,974190.730000
Z" /> 
<path style="fill:#000000; fill-opacity:1.0; 
stroke:#000000; stroke-width:100.000000; stroke-opacity:1; 
stroke-linecap:round; stroke-linejoin:round;fill-rule:evenodd;"
d="M 1273783.590000,970878.440000
1274087.030000,972157.720000
1274761.980000,973119.860000
1275842.000000,973813.180000
1276400.110000,973981.860000
1277356.070000,974113.330000
1278401.450000,974144.720000
1279344.620000,974072.370000
1279993.920000,973892.620000
1280388.300000,973748.640000
1280774.420000,973892.620000
1280915.660000,973976.040000
1281479.390000,974111.310000
1282241.800000,974164.710000
1283437.090000,974164.710000
1283437.090000,969892.780000
1280697.880000,969892.780000
1280605.810000,970621.430000
1280242.490000,971262.390000
1280034.560000,971401.100000
1279292.420000,971617.310000
1278365.900000,971671.290000
1277457.320000,971561.620000
1276768.970000,971286.860000
1276426.050000,970923.580000
1276215.530000,970278.080000
1276402.230000,969766.390000
1277019.410000,969321.480000
1278011.530000,969036.050000
1279320.270000,968935.300000
1280697.880000,968935.300000
1280697.880000,969892.780000
1283437.090000,969892.780000
1283437.090000,969345.650000
1283437.000000,968928.900000
1283432.460000,967358.100000
1283415.420000,966190.290000
1283378.150000,965347.880000
1283312.890000,964753.290000
1283211.920000,964328.910000
1283067.480000,963997.160000
1282871.840000,963680.450000
1282242.510000,962938.370000
1281350.700000,962371.800000
1280179.200000,962059.220000
1278635.470000,961963.130000
1278585.290000,961963.230000
1277512.200000,962011.700000
1276551.720000,962132.520000
1275896.250000,962301.910000
1275716.550000,962386.790000
1275144.600000,962746.270000
1274627.010000,963173.520000
1274286.470000,963558.000000
1274245.650000,963789.160000
1274325.310000,963851.640000
1275193.250000,964518.550000
1275773.610000,964911.880000
1276157.350000,965070.570000
1276435.410000,965033.590000
1276698.730000,964839.900000
1277184.700000,964598.090000
1278003.670000,964436.870000
1278929.270000,964395.050000
1279766.810000,964480.150000
1280321.650000,964699.720000
1280350.840000,964726.440000
1280600.170000,965228.360000
1280697.880000,965977.550000
1280697.880000,966943.140000
1278394.450000,966944.070000
1277336.350000,966960.820000
1276445.680000,967033.680000
1275808.550000,967183.570000
1275293.790000,967431.100000
1275174.000000,967507.120000
1274307.340000,968342.820000
1273846.360000,969447.900000
1273807.400000,970278.080000
1273780.770000,970845.590000
Z" /> 
<path style="fill:#000000; fill-opacity:1.0; 
stroke:#000000; stroke-width:100.000000; stroke-opacity:1; 
stroke-linecap:round; stroke-linejoin:round;fill-rule:evenodd;"
d="M 1337886.750000,962126.750000
1337134.400000,962478.860000
1336478.270000,962994.970000
1336478.270000,962478.860000
1336461.920000,962282.900000
1336309.790000,962075.130000
1335898.380000,961983.370000
1335108.660000,961962.750000
1333739.050000,961962.750000
1333739.050000,974164.710000
1336478.270000,974164.710000
1336478.270000,970192.110000
1336478.600000,969964.050000
1336501.970000,968360.890000
1336559.320000,967055.000000
1336646.560000,966113.140000
1336759.590000,965602.080000
1336863.380000,965409.150000
1337502.320000,964804.060000
1338372.630000,964536.220000
1339322.960000,964661.170000
1339556.060000,964745.860000
1340052.630000,964895.550000
1340392.010000,964849.070000
1340733.500000,964544.790000
1341236.410000,963921.110000
1342052.080000,962891.230000
1341478.770000,962426.990000
1340933.770000,962147.550000
1339976.460000,961958.830000
1338897.440000,961952.650000
Z" /> 
<path style="fill:#000000; fill-opacity:1.0; 
stroke:#000000; stroke-width:100.000000; stroke-opacity:1; 
stroke-linecap:round; stroke-linejoin:round;fill-rule:evenodd;"
d="M 1312951.950000,950909.820000
1313259.010000,952414.380000
1313808.240000,953562.460000
1314644.200000,954429.660000
1315811.420000,955091.550000
1316264.610000,955249.080000
1317438.270000,955445.620000
1318673.340000,955440.270000
1319715.490000,955224.390000
1319735.970000,955216.550000
1320575.820000,954722.510000
1321424.300000,953957.700000
1322128.340000,953083.110000
1322534.860000,952259.690000
1322655.370000,951657.790000
1322758.540000,950530.840000
1322775.830000,949526.320000
1320266.980000,949526.320000
1320117.000000,950731.190000
1319764.650000,951721.230000
1319230.830000,952368.150000
1319028.500000,952479.220000
1318256.940000,952681.110000
1317364.510000,952722.650000
1316613.720000,952582.350000
1316320.680000,952381.160000
1315909.360000,951677.600000
1315650.540000,950576.450000
1315560.620000,949131.450000
1315562.060000,948715.490000
1315593.300000,947872.640000
1315697.180000,947322.810000
1315915.120000,946916.550000
1316288.530000,946504.370000
1316999.070000,946004.810000
1317924.090000,945800.570000
1318817.820000,945995.090000
1319559.900000,946557.710000
1320029.990000,947457.750000
1320193.720000,948234.940000
1320266.980000,949526.320000
1322775.830000,949526.320000
1322780.630000,949247.380000
1322725.280000,947969.930000
1322596.120000,946861.010000
1322396.780000,946083.150000
1321932.470000,945202.450000
1320947.020000,944119.590000
1319687.470000,943433.640000
1318191.260000,943162.130000
1316495.850000,943322.590000
1316213.750000,943390.940000
1314899.990000,943980.400000
1313910.020000,944948.140000
1313243.800000,946294.230000
1312901.300000,948018.740000
1312891.330000,949131.450000
1312882.470000,950121.730000
Z" /> 
<path style="fill:#000000; fill-opacity:1.0; 
stroke:#000000; stroke-width:100.000000; stroke-opacity:1; 
stroke-linecap:round; stroke-linejoin:round;fill-rule:evenodd;"
d="M 1305633.900000,943278.200000
1304195.710000,943638.660000
1303145.090000,944306.770000
1302476.060000,945287.020000
1302182.600000,946583.870000
1302242.010000,947825.440000
1302670.860000,948872.660000
1303493.240000,949646.930000
1304725.650000,950163.370000
1306384.560000,950437.100000
1307462.480000,950580.570000
1308446.340000,950890.990000
1308954.290000,951340.530000
1308984.960000,951928.380000
1308780.540000,952294.930000
1308147.460000,952729.350000
1307247.510000,952934.830000
1306192.870000,952906.730000
1305095.740000,952640.420000
1304068.320000,952131.280000
1303043.960000,951453.390000
1302142.980000,952365.080000
1301242.000000,953276.760000
1301989.050000,953886.550000
1302279.540000,954098.420000
1303096.830000,954579.780000
1303981.210000,954994.570000
1304681.130000,955232.620000
1305705.980000,955405.040000
1306969.450000,955407.320000
1308518.820000,955217.480000
1309914.550000,954736.300000
1310902.500000,953971.950000
1311484.990000,952922.540000
1311664.380000,951586.170000
1311534.530000,950410.540000
1311117.690000,949448.030000
1310367.230000,948758.730000
1309235.650000,948300.300000
1307675.460000,948030.420000
1307496.260000,948010.880000
1306524.860000,947886.300000
1305736.860000,947755.920000
1305288.560000,947644.990000
1305138.960000,947555.670000
1304886.040000,947095.090000
1304927.120000,946505.530000
1305265.120000,945993.730000
1305442.610000,945882.100000
1306182.190000,945703.260000
1307137.490000,945715.290000
1308133.640000,945905.610000
1308995.790000,946261.680000
1309901.690000,946796.180000
1310604.370000,945975.050000
1310774.880000,945766.440000
1311159.020000,945207.610000
1311317.170000,944828.870000
1311151.100000,944596.640000
1310637.310000,944234.120000
1309895.430000,943844.020000
1309790.900000,943796.330000
1308812.590000,943422.290000
1307869.590000,943243.450000
1306699.380000,943207.540000
Z" /> 
<path style="fill:#000000; fill-opacity:1.0; 
stroke:#000000; stroke-width:100.000000; stroke-opacity:1; 
stroke-linecap:round; stroke-linejoin:round;fill-rule:evenodd;"
d="M 1273699.140000,949511.080000
1273720.910000,950272.240000
1273966.410000,951935.700000
1274507.400000,953247.280000
1275372.180000,954261.010000
1276589.050000,955030.960000
1277769.510000,955390.390000
1279250.390000,955459.150000
1280744.520000,955194.680000
1282077.280000,954610.370000
1282571.170000,954285.320000
1283115.320000,953868.680000
1283363.600000,953594.520000
1283349.530000,953481.400000
1283071.610000,953095.970000
1282549.280000,952629.010000
1281644.090000,951938.580000
1280583.420000,952468.310000
1280296.600000,952599.430000
1279452.290000,952884.410000
1278744.630000,952998.040000
1278222.810000,952904.410000
1277403.940000,952453.510000
1276715.630000,951753.550000
1276321.930000,950943.630000
1276161.530000,950258.820000
1283686.110000,950258.820000
1283684.720000,948951.470000
1283673.330000,948537.130000
1283590.180000,947648.050000
1280946.900000,947648.050000
1280942.050000,947698.990000
1280805.130000,947857.600000
1280418.220000,947955.050000
1279698.830000,948004.130000
1278564.430000,948017.650000
1278191.580000,948017.490000
1277223.270000,948008.540000
1276641.170000,947969.880000
1276358.940000,947879.680000
1276290.270000,947716.110000
1276348.830000,947457.350000
1276357.770000,947428.020000
1276862.270000,946527.590000
1277657.580000,945907.660000
1278605.970000,945676.860000
1278956.530000,945695.320000
1279607.190000,945916.110000
1280231.390000,946477.660000
1280399.530000,946676.210000
1280790.630000,947243.260000
1280946.900000,947648.050000
1283590.180000,947648.050000
1283579.490000,947533.760000
1283422.120000,946703.490000
1283249.640000,946238.680000
1282643.210000,945227.690000
1281831.060000,944309.510000
1280972.190000,943680.370000
1280724.040000,943563.540000
1279279.100000,943176.000000
1277803.580000,943216.860000
1276416.330000,943668.820000
1275236.210000,944514.610000
1274597.900000,945294.610000
1274075.990000,946393.430000
1273796.970000,947716.110000
1273786.270000,947766.850000
Z" /> 
<path style="fill:#000000; fill-opacity:1.0; 
stroke:#000000; stroke-width:100.000000; stroke-opacity:1; 
stroke-linecap:round; stroke-linejoin:round;fill-rule:evenodd;"
d="M 1285927.290000,974164.710000
1288417.490000,974164.710000
1288417.490000,970321.110000
1288420.240000,969427.060000
1288448.560000,967946.290000
1288520.240000,966850.030000
1288650.840000,966062.520000
1288855.920000,965507.980000
1289151.020000,965110.610000
1289551.690000,964794.650000
1289989.100000,964559.210000
1290507.040000,964492.460000
1291243.690000,964640.900000
1291480.410000,964702.710000
1292071.310000,964795.720000
1292493.820000,964662.450000
1292983.520000,964249.960000
1293076.450000,964160.260000
1293590.210000,963605.340000
1293921.530000,963154.150000
1293966.980000,963045.450000
1293876.920000,962644.090000
1293420.260000,962323.200000
1292699.540000,962097.990000
1291817.290000,961983.670000
1290876.060000,961995.440000
1289978.380000,962148.500000
1289226.800000,962458.060000
1288988.570000,962602.600000
1288587.510000,962814.170000
1288439.040000,962765.720000
1288417.490000,962457.120000
1288412.430000,962346.330000
1288292.300000,962100.910000
1287919.640000,961989.210000
1287172.390000,961962.750000
1285927.290000,961962.750000
Z" /> 
<path style="fill:#000000; fill-opacity:1.0; 
stroke:#000000; stroke-width:100.000000; stroke-opacity:1; 
stroke-linecap:round; stroke-linejoin:round;fill-rule:evenodd;"
d="M 1290112.940000,943262.710000
1288977.780000,943619.370000
1288477.270000,943861.770000
1288225.540000,943886.810000
1288168.470000,943666.200000
1288168.410000,943659.520000
1288045.400000,943434.260000
1287621.160000,943318.790000
1286798.860000,943286.280000
1285429.250000,943286.280000
1285429.250000,955239.220000
1288168.470000,955239.220000
1288168.470000,951119.070000
1288170.340000,949727.790000
1288183.150000,948584.930000
1288217.420000,947785.190000
1288283.680000,947247.080000
1288392.460000,946889.120000
1288554.290000,946629.820000
1288779.700000,946387.700000
1289086.730000,946130.170000
1289969.610000,945784.160000
1290896.350000,945885.710000
1291745.290000,946432.980000
1291987.940000,946687.680000
1292162.130000,946945.450000
1292278.960000,947288.480000
1292349.880000,947799.330000
1292386.360000,948560.560000
1292399.850000,949654.710000
1292401.800000,951164.350000
1292401.800000,955239.220000
1295141.020000,955239.220000
1295135.550000,950819.120000
1295135.180000,950622.230000
1295111.420000,948742.090000
1295038.470000,947281.590000
1294897.550000,946169.710000
1294669.930000,945335.440000
1294336.860000,944707.750000
1293879.590000,944215.610000
1293279.360000,943788.020000
1292659.600000,943491.990000
1291411.450000,943223.050000
Z" /> 
<path style="fill:#000000; fill-opacity:1.0; 
stroke:#000000; stroke-width:100.000000; stroke-opacity:1; 
stroke-linecap:round; stroke-linejoin:round;fill-rule:evenodd;"
d="M 1300375.660000,860731.720000
1299249.840000,866703.630000
1295095.710000,868416.100000
1290941.570000,870128.570000
1285958.000000,866739.780000
1284971.640000,866071.700000
1283664.030000,865194.790000
1282531.920000,864445.800000
1281634.110000,863863.200000
1281029.390000,863485.450000
1280776.560000,863350.980000
1280621.280000,863446.610000
1280157.130000,863847.300000
1279454.700000,864504.870000
1278573.520000,865358.950000
1277573.110000,866349.150000
1276512.980000,867415.090000
1275452.650000,868496.400000
1274451.650000,869532.680000
1273569.490000,870463.580000
1272865.680000,871228.690000
1272399.750000,871767.650000
1272231.210000,872020.070000
1272270.420000,872128.520000
1272541.880000,872612.280000
1273037.610000,873408.420000
1273717.410000,874454.540000
1274541.090000,875688.220000
1275468.470000,877047.060000
1275977.400000,877788.150000
1276852.880000,879078.350000
1277603.470000,880204.340000
1278189.150000,881105.050000
1278569.910000,881719.420000
1278705.720000,881986.400000
1278703.490000,882001.190000
1278583.690000,882339.620000
1278308.840000,883030.710000
1277917.260000,883984.160000
1277447.260000,885109.720000
1276937.150000,886317.100000
1276425.240000,887516.020000
1275949.850000,888616.220000
1275549.290000,889527.400000
1275261.870000,890159.310000
1275125.900000,890421.650000
1275045.450000,890444.920000
1274556.650000,890549.880000
1273685.480000,890723.760000
1272501.670000,890952.950000
1271074.960000,891223.890000
1269475.080000,891522.960000
1268631.850000,891681.530000
1267084.170000,891984.070000
1265730.960000,892263.470000
1264646.180000,892503.690000
1263903.800000,892688.680000
1263577.780000,892802.380000
1263519.220000,892915.110000
1263422.080000,893465.860000
1263345.760000,894383.170000
1263290.200000,895580.730000
1263255.340000,896972.210000
1263241.130000,898471.310000
1263247.500000,899991.720000
1263274.400000,901447.120000
1263321.760000,902751.210000
1263389.530000,903817.660000
1263477.640000,904560.180000
1263586.050000,904892.450000
1263651.830000,904929.930000
1264142.450000,905090.690000
1264993.530000,905303.380000
1266106.710000,905544.720000
1267383.600000,905791.430000
1267814.430000,905870.000000
1269804.270000,906235.420000
1271368.120000,906529.100000
1272560.170000,906763.210000
1273434.630000,906949.940000
1274045.720000,907101.460000
1274447.650000,907229.950000
1274694.620000,907347.580000
1274840.840000,907466.530000
1274857.840000,907486.490000
1275096.960000,907902.710000
1275450.810000,908664.300000
1275885.080000,909681.930000
1276365.490000,910866.240000
1276857.750000,912127.890000
1277327.550000,913377.540000
1277740.600000,914525.840000
1278062.610000,915483.440000
1278259.290000,916161.000000
1278296.350000,916469.170000
1278271.570000,916509.150000
1278015.110000,916895.840000
1277532.800000,917609.070000
1276869.380000,918583.140000
1276069.550000,919752.340000
1275178.030000,921050.980000
1274933.350000,921408.280000
1274072.970000,922689.900000
1273329.420000,923836.080000
1272745.120000,924778.870000
1272362.530000,925450.290000
1272224.080000,925782.350000
1272253.910000,925869.650000
1272564.890000,926299.820000
1273178.450000,927002.300000
1274050.630000,927929.790000
1275137.510000,929035.020000
1276395.150000,930270.710000
1277114.000000,930962.350000
1278250.610000,932039.570000
1279245.430000,932962.250000
1280045.050000,933681.810000
1280596.050000,934149.680000
1280845.020000,934317.270000
1281016.070000,934255.150000
1281542.710000,933961.260000
1282307.510000,933480.630000
1283210.710000,932874.120000
1283852.890000,932431.530000
1285134.950000,931552.610000
1286503.060000,930619.150000
1287752.680000,929770.910000
1290200.630000,928115.150000
1292255.510000,929226.200000
1292739.370000,929482.650000
1293619.300000,929921.300000
1294299.770000,930224.140000
1294663.440000,930337.060000
1294782.460000,930192.050000
1295078.000000,929639.920000
1295514.520000,928729.620000
1296067.740000,927518.920000
1296713.370000,926065.590000
1297427.110000,924427.410000
1298184.680000,922662.130000
1298961.780000,920827.530000
1299734.140000,918981.380000
1300477.440000,917181.460000
1301167.420000,915485.520000
1301779.770000,913951.350000
1302290.210000,912636.700000
1302674.450000,911599.360000
1302908.200000,910897.090000
1302967.170000,910587.660000
1302963.170000,910578.620000
1302688.510000,910292.570000
1302114.010000,909844.570000
1301358.270000,909327.510000
1301119.730000,909169.620000
1299304.660000,907671.740000
1297802.470000,905887.670000
1296648.730000,903891.650000
1295879.010000,901757.970000
1295528.860000,899560.870000
1295633.870000,897374.620000
1296059.230000,895430.110000
1296822.970000,893466.570000
1297936.350000,891714.840000
1299464.260000,890050.820000
1300064.610000,889519.240000
1302005.420000,888209.510000
1304102.010000,887327.440000
1306293.630000,886865.120000
1308519.530000,886814.670000
1310718.930000,887168.200000
1312831.100000,887917.790000
1314795.270000,889055.570000
1316550.680000,890573.630000
1318036.580000,892464.090000
1318322.260000,892932.240000
1319293.270000,895072.040000
1319808.970000,897300.260000
1319882.860000,899559.220000
1319528.450000,901791.190000
1318759.240000,903938.470000
1317588.740000,905943.360000
1316030.450000,907748.140000
1314097.870000,909295.100000
1314035.110000,909336.790000
1313287.390000,909863.700000
1312726.960000,910311.690000
1312471.000000,910587.660000
1312503.300000,910804.020000
1312704.100000,911433.990000
1313060.160000,912410.380000
1313547.200000,913675.420000
1314140.920000,915171.320000
1314817.060000,916840.300000
1315551.340000,918624.570000
1316319.460000,920466.360000
1317097.160000,922307.870000
1317860.150000,924091.330000
1318584.160000,925758.950000
1319244.900000,927252.940000
1319818.090000,928515.540000
1320279.450000,929488.940000
1320604.700000,930115.380000
1320769.570000,930337.060000
1320906.670000,930307.030000
1321445.300000,930091.260000
1322241.360000,929712.930000
1323177.510000,929226.200000
1325232.380000,928115.150000
1327680.330000,929770.910000
1328403.550000,930261.200000
1329748.740000,931177.290000
1331089.850000,932094.850000
1332222.300000,932874.120000
1332847.300000,933298.810000
1333659.610000,933826.440000
1334261.910000,934187.650000
1334556.090000,934321.570000
1334682.470000,934264.710000
1335139.330000,933916.450000
1335843.620000,933303.290000
1336734.040000,932485.540000
1337749.280000,931523.510000
1338828.060000,930477.510000
1339909.050000,929407.860000
1340930.970000,928374.850000
1341832.500000,927438.820000
1342552.360000,926660.060000
1343029.220000,926098.890000
1343201.800000,925815.620000
1343191.850000,925761.720000
1342986.450000,925323.040000
1342547.660000,924564.070000
1341917.880000,923553.360000
1341139.530000,922359.480000
1340254.990000,921050.980000
1340006.910000,920690.050000
1339135.820000,919420.000000
1338368.530000,918297.180000
1337749.760000,917387.300000
1337324.230000,916756.060000
1337136.660000,916469.170000
1337132.050000,916456.870000
1337187.410000,916105.880000
1337398.800000,915394.840000
1337731.950000,914413.100000
1338152.550000,913250.020000
1338626.300000,911994.930000
1339118.920000,910737.180000
1339596.110000,909566.120000
1340023.580000,908571.100000
1340367.030000,907841.450000
1340592.170000,907466.530000
1340614.720000,907443.250000
1340775.920000,907325.490000
1341048.170000,907206.730000
1341485.670000,907074.810000
1342142.650000,906917.540000
1343073.300000,906722.740000
1344331.840000,906478.240000
1345972.470000,906171.860000
1348049.410000,905791.430000
1348480.190000,905711.360000
1349714.230000,905463.840000
1350752.280000,905229.330000
1351495.990000,905031.100000
1351846.960000,904892.450000
1351905.680000,904776.770000
1352003.580000,904221.100000
1352081.150000,903299.900000
1352138.350000,902099.510000
1352175.110000,900706.220000
1352191.380000,899206.350000
1352187.090000,897686.210000
1352162.180000,896232.120000
1352116.600000,894930.370000
1352050.290000,893867.300000
1351963.190000,893129.190000
1351855.230000,892802.380000
1351745.010000,892754.100000
1351196.690000,892601.910000
1350269.870000,892386.660000
1349038.490000,892124.390000
1347576.520000,891831.140000
1345957.940000,891522.960000
1345074.160000,891358.310000
1343559.410000,891072.790000
1342255.600000,890822.770000
1341232.460000,890621.850000
1340559.720000,890483.620000
1340307.110000,890421.650000
1340297.620000,890408.880000
1340136.740000,890084.370000
1339830.060000,889404.520000
1339415.890000,888459.540000
1338932.590000,887339.640000
1338418.460000,886135.000000
1337911.860000,884935.840000
1337451.110000,883832.350000
1337074.540000,882914.730000
1336820.490000,882273.190000
1336727.290000,881997.920000
1336768.400000,881901.060000
1337042.000000,881440.180000
1337538.300000,880664.400000
1338217.400000,879634.610000
1339039.450000,878411.670000
1339964.540000,877056.460000
1340472.090000,876314.290000
1341347.970000,875013.090000
1342098.940000,873871.120000
1342684.930000,872950.660000
1343065.910000,872313.980000
1343201.800000,872023.370000
1343107.380000,871865.730000
1342712.400000,871394.710000
1342064.420000,870681.860000
1341222.910000,869787.600000
1340247.360000,868772.320000
1339197.260000,867696.430000
1338132.070000,866620.340000
1337111.290000,865604.450000
1336194.400000,864709.170000
1335440.880000,863994.890000
1334910.200000,863522.030000
1334661.860000,863350.980000
1334524.010000,863417.490000
1334017.820000,863725.920000
1333200.950000,864250.830000
1332132.280000,864953.750000
1330870.680000,865796.220000
1329475.020000,866739.780000
1324491.440000,870128.570000
1320337.310000,868416.100000
1316183.170000,866703.630000
1315057.350000,860731.720000
1313931.520000,854759.800000
1301501.490000,854759.800000
Z" /> 
<path style="fill:#000000; fill-opacity:1.0; 
stroke:#000000; stroke-width:100.000000; stroke-opacity:1; 
stroke-linecap:round; stroke-linejoin:round;fill-rule:evenodd;"
d="M 1321964.810000,972017.890000
1322617.680000,972985.050000
1323608.020000,973680.770000
1323705.210000,973723.050000
1324788.800000,974027.670000
1326009.770000,974146.420000
1327170.620000,974073.820000
1328073.860000,973804.410000
1328434.660000,973628.650000
1328699.440000,973586.740000
1328758.660000,973805.940000
1328870.840000,974008.660000
1329304.870000,974129.380000
1330147.310000,974164.710000
1331535.960000,974164.710000
1331462.050000,969806.860000
1328758.660000,969806.860000
1328664.870000,970458.290000
1328260.620000,971176.470000
1328111.410000,971308.480000
1327499.820000,971586.200000
1326579.740000,971657.660000
1326027.650000,971629.740000
1324994.590000,971419.520000
1324354.290000,971027.820000
1324138.330000,970481.220000
1324378.310000,969806.280000
1324518.330000,969629.640000
1325143.730000,969233.450000
1326133.530000,969007.220000
1327544.690000,968935.300000
1328758.660000,968935.300000
1328758.660000,969806.860000
1331462.050000,969806.860000
1331454.660000,969371.080000
1331432.570000,968262.580000
1331374.390000,966603.050000
1331276.330000,965334.090000
1331119.010000,964386.540000
1330883.060000,963691.200000
1330549.090000,963178.900000
1330097.730000,962780.460000
1329509.610000,962426.690000
1329206.200000,962291.630000
1328156.590000,962036.690000
1326890.660000,961931.290000
1325581.830000,961973.500000
1324403.550000,962161.400000
1323529.250000,962493.050000
1323225.130000,962685.620000
1322524.950000,963256.360000
1322287.970000,963734.270000
1322345.520000,963826.620000
1322704.180000,964149.190000
1323283.190000,964579.500000
1323579.210000,964780.910000
1324083.320000,965066.290000
1324410.900000,965093.540000
1324715.050000,964896.570000
1325473.080000,964497.660000
1326493.050000,964333.610000
1327535.390000,964459.200000
1327555.110000,964464.890000
1328290.290000,964784.310000
1328654.190000,965284.280000
1328754.850000,966111.160000
1328758.660000,966897.800000
1326159.700000,966982.730000
1325745.640000,966996.700000
1324701.730000,967045.280000
1324001.900000,967121.610000
1323528.870000,967254.250000
1323165.320000,967471.810000
1322793.960000,967802.850000
1322180.800000,968568.550000
1321731.410000,969701.570000
1321687.350000,970481.220000
1321664.400000,970887.380000
Z" /> 
<path style="fill:#000000; fill-opacity:1.0; 
stroke:#000000; stroke-width:100.000000; stroke-opacity:1; 
stroke-linecap:round; stroke-linejoin:round;fill-rule:evenodd;"
d="M 1341513.580000,943193.810000
1340903.110000,943384.390000
1340151.310000,943701.150000
1339787.310000,943871.380000
1339524.600000,943902.150000
1339466.510000,943666.200000
1339466.450000,943659.520000
1339343.440000,943434.260000
1338919.190000,943318.790000
1338096.900000,943286.280000
1336727.290000,943286.280000
1336727.290000,955239.220000
1339466.510000,955239.220000
1339466.510000,946997.790000
1340147.460000,946366.700000
1340360.200000,946187.350000
1340993.890000,945880.910000
1341774.240000,945868.630000
1342836.800000,946139.030000
1343194.990000,946156.150000
1343615.170000,945893.830000
1344174.430000,945270.350000
1344445.720000,944925.470000
1344766.570000,944438.520000
1344816.010000,944128.550000
1344636.370000,943867.070000
1344084.900000,943536.410000
1343228.370000,943274.720000
1342299.080000,943144.960000
Z" /> 
<path style="fill:#000000; fill-opacity:1.0; 
stroke:#000000; stroke-width:100.000000; stroke-opacity:1; 
stroke-linecap:round; stroke-linejoin:round;fill-rule:evenodd;"
d="M 1341996.980000,968993.300000
1342291.900000,970771.050000
1342898.710000,972168.920000
1343822.780000,973196.890000
1345069.450000,973864.960000
1345472.240000,973983.000000
1346910.470000,974147.860000
1348429.110000,974008.730000
1349800.820000,973579.350000
1350284.060000,973335.650000
1350976.930000,972918.190000
1351396.830000,972574.680000
1351458.830000,972496.200000
1351574.810000,972209.170000
1351407.700000,971897.140000
1350898.790000,971424.590000
1350653.200000,971218.870000
1350169.400000,970842.420000
1349915.730000,970688.550000
1349843.060000,970704.400000
1349426.560000,970875.740000
1348804.740000,971176.470000
1348602.000000,971275.400000
1347406.000000,971642.750000
1346366.940000,971548.050000
1345455.790000,970989.710000
1345349.780000,970886.540000
1344842.910000,970240.310000
1344553.300000,969620.100000
1344392.910000,968935.300000
1351917.490000,968935.300000
1351916.100000,967627.940000
1351915.300000,967497.920000
1351813.710000,966449.030000
1349178.270000,966449.030000
1349147.150000,966666.570000
1348987.380000,966816.490000
1348606.570000,966899.700000
1347912.400000,966935.490000
1346812.580000,966943.140000
1346201.140000,966935.210000
1345298.620000,966888.880000
1344677.840000,966810.380000
1344446.900000,966710.330000
1344643.860000,965886.770000
1345220.490000,965118.110000
1346052.160000,964584.840000
1347012.890000,964400.380000
1347720.220000,964608.320000
1348427.290000,965116.640000
1348964.780000,965778.920000
1349178.270000,966449.030000
1351813.710000,966449.030000
1351759.520000,965889.500000
1351306.080000,964581.060000
1350514.880000,963453.130000
1350032.210000,962976.000000
1349035.370000,962337.310000
1347845.070000,962027.840000
1346341.570000,962006.070000
1345615.320000,962091.390000
1344274.730000,962534.400000
1343248.350000,963340.690000
1342527.200000,964522.710000
1342102.280000,966092.910000
1342059.140000,966710.330000
1341964.600000,968063.730000
Z" /> 
<path style="fill:#000000; fill-opacity:1.0; 
stroke:#000000; stroke-width:100.000000; stroke-opacity:1; 
stroke-linecap:round; stroke-linejoin:round;fill-rule:evenodd;"
d="M 1348518.590000,943343.290000
1347159.820000,943872.670000
1346010.650000,944746.550000
1345161.870000,945946.800000
1345104.550000,946069.180000
1344740.650000,947262.810000
1344558.840000,948688.640000
1344560.270000,950173.180000
1344746.100000,951542.970000
1345117.480000,952624.510000
1345576.010000,953378.310000
1346585.310000,954446.200000
1347847.310000,955125.000000
1348927.030000,955399.500000
1350571.120000,955429.470000
1352144.360000,955015.490000
1353539.490000,954175.460000
1354442.460000,953431.160000
1353629.160000,952592.050000
1353115.350000,952094.960000
1352650.590000,951818.200000
1352219.650000,951879.140000
1351668.470000,952250.980000
1351448.690000,952396.550000
1350520.220000,952694.490000
1349453.050000,952694.310000
1348453.920000,952387.230000
1348077.710000,952140.640000
1347525.870000,951412.450000
1347249.220000,950342.900000
1347231.420000,948885.170000
1347231.470000,948884.350000
1347437.300000,947580.140000
1347890.720000,946675.870000
1348636.820000,946116.520000
1349720.720000,945847.040000
1350403.290000,945810.790000
1350999.690000,945959.210000
1351611.350000,946389.180000
1352402.880000,947055.200000
1353405.280000,946249.650000
1353771.500000,945941.050000
1354228.930000,945498.890000
1354407.680000,945238.320000
1354344.380000,945120.890000
1353979.790000,944760.360000
1353398.990000,944301.850000
1352944.560000,944003.480000
1351501.760000,943390.560000
1349996.170000,943176.540000
Z" /> 
<path style="fill:#000000; fill-opacity:1.0; 
stroke:#000000; stroke-width:100.000000; stroke-opacity:1; 
stroke-linecap:round; stroke-linejoin:round;fill-rule:evenodd;"
d="M 1293943.780000,970060.320000
1294007.260000,970801.920000
1294018.140000,970869.890000
1294445.400000,972085.550000
1295225.660000,973116.190000
1296249.260000,973814.440000
1297348.460000,974103.460000
1298700.490000,974081.030000
1299944.240000,973693.510000
1300268.210000,973529.980000
1300684.800000,973354.750000
1300843.330000,973409.270000
1300868.470000,973693.510000
1300880.010000,973835.250000
1301029.080000,974044.880000
1301443.110000,974141.400000
1302238.070000,974164.710000
1303607.680000,974164.710000
1303607.680000,968186.070000
1300868.470000,968186.070000
1300848.840000,969221.810000
1300769.170000,969911.380000
1300599.080000,970383.790000
1300308.170000,970779.680000
1299540.040000,971368.310000
1298641.140000,971565.640000
1297769.460000,971321.620000
1297035.310000,970640.900000
1296841.250000,970142.780000
1296697.900000,969260.700000
1296634.890000,968190.520000
1296654.740000,967092.840000
1296760.010000,966128.270000
1296953.240000,965457.430000
1297014.970000,965347.420000
1297610.070000,964794.530000
1298416.540000,964549.590000
1299282.670000,964606.560000
1300056.780000,964959.400000
1300587.140000,965602.080000
1300609.060000,965656.130000
1300740.570000,966259.210000
1300833.340000,967160.390000
1300868.470000,968186.070000
1303607.680000,968186.070000
1303607.680000,957231.370000
1300868.470000,957231.370000
1300868.470000,963036.010000
1300361.100000,962576.850000
1299872.580000,962291.460000
1298947.980000,962052.900000
1297867.150000,961976.030000
1296811.640000,962070.400000
1295963.000000,962345.570000
1295355.590000,962736.990000
1294729.930000,963403.790000
1294308.850000,964300.530000
1294055.730000,965513.550000
1293933.940000,967129.180000
1293916.040000,967782.250000
1293914.750000,968190.520000
1293912.210000,968995.700000
Z" /> 
<path style="fill:#000000; fill-opacity:1.0; 
stroke:#000000; stroke-width:100.000000; stroke-opacity:1; 
stroke-linecap:round; stroke-linejoin:round;fill-rule:evenodd;"
d="M 1310899.300000,965872.970000
1310562.640000,966877.410000
1310164.390000,967989.350000
1309831.830000,968831.720000
1309592.460000,969335.870000
1309473.760000,969433.180000
1309445.120000,969348.560000
1309290.090000,968829.530000
1309043.170000,967962.650000
1308731.770000,966844.970000
1308383.300000,965573.530000
1307435.260000,962087.260000
1305987.740000,962011.630000
1305865.550000,962005.570000
1305084.970000,961997.550000
1304709.880000,962077.680000
1304662.110000,962260.650000
1304722.450000,962439.340000
1304920.970000,963050.950000
1305231.770000,964019.600000
1305632.700000,965276.020000
1306101.630000,966750.910000
1306616.390000,968375.000000
1308448.790000,974164.710000
1310740.950000,974164.710000
1311820.990000,970491.670000
1312020.420000,969817.200000
1312389.000000,968591.010000
1312703.950000,967569.300000
1312936.900000,966843.360000
1313059.500000,966504.460000
1313094.430000,966479.180000
1313264.420000,966697.780000
1313507.110000,967275.860000
1313782.180000,968123.090000
1313796.720000,968172.850000
1314165.000000,969423.220000
1314586.380000,970838.960000
1314972.500000,972123.160000
1315598.610000,974190.440000
1317907.890000,974040.200000
1318977.300000,970678.430000
1319446.810000,969201.280000
1319972.740000,967544.580000
1320476.350000,965956.380000
1320893.220000,964639.710000
1321739.730000,961962.750000
1318907.710000,961962.750000
1318221.280000,964515.200000
1318038.790000,965189.630000
1317693.670000,966446.970000
1317374.070000,967590.830000
1317131.110000,968437.260000
1316727.370000,969806.860000
1315439.760000,965947.060000
1314152.140000,962087.260000
1313167.280000,962013.320000
1312182.410000,961939.390000
Z" /> 
<g >
</g>
<g >
</g>
<g >
</g>
<g >
</g>
<g >
</g>
<g >
</g>
<g >
</g>
<g >
</g>
<g >
</g>
<g >
</g>
<g >
</g>
<g >
</g>
<g >
</g>
<g >
</g>
<g >
</g>
<g >
</g>
<g >
</g>
<g >
</g>
<g >
</g>
<g >
</g>
<g >
</g>
<g >
</g>
<g >
</g>
<g >
</g>
<g >
</g>
<g >
</g>
<g >
</g>
<g >
</g>
<g >
</g>
<g >
</g>
<g >
</g>
<g >
</g>
<g >
</g>
<g >
</g>
<g >
</g>
<g >
</g>
<g >
</g>
<g >
</g>
<g >
</g>
<g >
</g>
<g >
</g>
<g >
</g>
<g >
</g>
<g >
</g>
<g >
</g>
<g >
</g>
<g >
</g>
<g >
</g>
<g >
</g>
<g >
</g>
</g> 
</svg>
