G04 #@! TF.GenerationSoftware,KiCad,Pcbnew,6.0.7+dfsg-1~bpo11+1*
G04 #@! TF.CreationDate,2022-09-27T14:32:04+00:00*
G04 #@! TF.ProjectId,t1,74312e6b-6963-4616-945f-706362585858,${git_hash}*
G04 #@! TF.SameCoordinates,Original*
G04 #@! TF.FileFunction,Copper,L2,Inr*
G04 #@! TF.FilePolarity,Positive*
%FSLAX46Y46*%
G04 Gerber Fmt 4.6, Leading zero omitted, Abs format (unit mm)*
G04 Created by KiCad (PCBNEW 6.0.7+dfsg-1~bpo11+1) date 2022-09-27 14:32:04*
%MOMM*%
%LPD*%
G01*
G04 APERTURE LIST*
G04 #@! TA.AperFunction,ComponentPad*
%ADD10R,1.700000X1.700000*%
G04 #@! TD*
G04 #@! TA.AperFunction,ComponentPad*
%ADD11O,1.700000X1.700000*%
G04 #@! TD*
G04 #@! TA.AperFunction,ComponentPad*
%ADD12R,1.600000X1.600000*%
G04 #@! TD*
G04 #@! TA.AperFunction,ComponentPad*
%ADD13C,1.600000*%
G04 #@! TD*
G04 #@! TA.AperFunction,ComponentPad*
%ADD14C,4.000000*%
G04 #@! TD*
G04 #@! TA.AperFunction,ViaPad*
%ADD15C,0.800000*%
G04 #@! TD*
G04 #@! TA.AperFunction,Conductor*
%ADD16C,0.508000*%
G04 #@! TD*
G04 APERTURE END LIST*
D10*
X136300000Y-79500000D03*
D11*
X136300000Y-76960000D03*
X136300000Y-74420000D03*
X136300000Y-71880000D03*
X136300000Y-69340000D03*
D10*
X151892000Y-95250000D03*
D11*
X154432000Y-95250000D03*
X151892000Y-97790000D03*
X154432000Y-97790000D03*
D10*
X141122400Y-97764600D03*
D11*
X141122400Y-95224600D03*
X143662400Y-97764600D03*
X143662400Y-95224600D03*
X146202400Y-97764600D03*
X146202400Y-95224600D03*
D10*
X140970000Y-77216000D03*
D11*
X140970000Y-79756000D03*
X140970000Y-82296000D03*
X140970000Y-84836000D03*
X140970000Y-87376000D03*
X140970000Y-89916000D03*
D12*
X173482000Y-81534000D03*
D13*
X173482000Y-84034000D03*
X175482000Y-84034000D03*
X175482000Y-81534000D03*
D14*
X178342000Y-76784000D03*
X178342000Y-88784000D03*
D15*
X154355800Y-75793600D03*
X123113800Y-73329800D03*
X129108200Y-77952600D03*
X167259000Y-97942400D03*
X155676600Y-83058000D03*
X163830000Y-76758800D03*
X125349000Y-90906600D03*
X130810000Y-95351600D03*
X129082800Y-73380600D03*
X144830800Y-85064600D03*
X123088400Y-78130400D03*
X159842200Y-98602800D03*
X154533600Y-83286600D03*
X146024600Y-69240400D03*
X159181800Y-81965800D03*
X130835400Y-88900000D03*
X129108200Y-84302600D03*
X121564400Y-89331800D03*
X123139200Y-84404200D03*
X162763200Y-70002400D03*
X155041600Y-70078600D03*
X160680400Y-81153000D03*
X166878000Y-88773000D03*
X160553400Y-86233000D03*
X167233600Y-93522800D03*
X165049200Y-90449400D03*
X165735000Y-80162400D03*
X170459400Y-80416400D03*
X172389800Y-88138000D03*
X170561000Y-90678000D03*
X156895800Y-87553800D03*
X156159200Y-88392000D03*
X156286200Y-91694000D03*
X155067000Y-88595200D03*
X152679400Y-88315800D03*
X152069800Y-87223600D03*
X151689100Y-85852000D03*
X150139400Y-81889600D03*
X148595111Y-85389689D03*
X155956000Y-85775802D03*
D16*
X160553400Y-86233000D02*
X161467800Y-86233000D01*
X160680400Y-85445600D02*
X161467800Y-86233000D01*
X176123600Y-85953600D02*
X169722800Y-85953600D01*
X160680400Y-81153000D02*
X160680400Y-85445600D01*
X167233600Y-89128600D02*
X166878000Y-88773000D01*
X166903400Y-88773000D02*
X166878000Y-88773000D01*
X177088800Y-83140800D02*
X177088800Y-84988400D01*
X166878000Y-88773000D02*
X166725600Y-88773000D01*
X177088800Y-84988400D02*
X176123600Y-85953600D01*
X169722800Y-85953600D02*
X166903400Y-88773000D01*
X167233600Y-93522800D02*
X167233600Y-89128600D01*
X166725600Y-88773000D02*
X165049200Y-90449400D01*
X164338000Y-86233000D02*
X166878000Y-88773000D01*
X175482000Y-81534000D02*
X177088800Y-83140800D01*
X161467800Y-86233000D02*
X164338000Y-86233000D01*
X181178200Y-77927200D02*
X181178200Y-85947800D01*
X171653200Y-79222600D02*
X175903400Y-79222600D01*
X172389800Y-88138000D02*
X172389800Y-88849200D01*
X177696000Y-88138000D02*
X178342000Y-88784000D01*
X175903400Y-79222600D02*
X178342000Y-76784000D01*
X181178200Y-85947800D02*
X178342000Y-88784000D01*
X170459400Y-80416400D02*
X171653200Y-79222600D01*
X180035000Y-76784000D02*
X181178200Y-77927200D01*
X178342000Y-76784000D02*
X180035000Y-76784000D01*
X172389800Y-88849200D02*
X170561000Y-90678000D01*
X172389800Y-88138000D02*
X177696000Y-88138000D01*
G04 #@! TA.AperFunction,Conductor*
G36*
X165382754Y-79395002D02*
G01*
X165429247Y-79448658D01*
X165439351Y-79518932D01*
X165409857Y-79583512D01*
X165377299Y-79609130D01*
X165377446Y-79609346D01*
X165374351Y-79611449D01*
X165372426Y-79612964D01*
X165371163Y-79613616D01*
X165371159Y-79613618D01*
X165364414Y-79617100D01*
X165245039Y-79721238D01*
X165153950Y-79850844D01*
X165096406Y-79998437D01*
X165075729Y-80155496D01*
X165093113Y-80312953D01*
X165147553Y-80461719D01*
X165235908Y-80593205D01*
X165241527Y-80598318D01*
X165241528Y-80598319D01*
X165347460Y-80694709D01*
X165353076Y-80699819D01*
X165492293Y-80775408D01*
X165645522Y-80815607D01*
X165729477Y-80816926D01*
X165796319Y-80817976D01*
X165796322Y-80817976D01*
X165803916Y-80818095D01*
X165958332Y-80782729D01*
X166055172Y-80734024D01*
X166093072Y-80714963D01*
X166093075Y-80714961D01*
X166099855Y-80711551D01*
X166105626Y-80706622D01*
X166105629Y-80706620D01*
X166214536Y-80613604D01*
X166214536Y-80613603D01*
X166220314Y-80608669D01*
X166312755Y-80480024D01*
X166371842Y-80333041D01*
X166394162Y-80176207D01*
X166394307Y-80162400D01*
X166375276Y-80005133D01*
X166319280Y-79856946D01*
X166229553Y-79726392D01*
X166111275Y-79621011D01*
X166094923Y-79612353D01*
X166044081Y-79562801D01*
X166028100Y-79493626D01*
X166052054Y-79426793D01*
X166108339Y-79383520D01*
X166153884Y-79375000D01*
X169317400Y-79375000D01*
X169385521Y-79395002D01*
X169432014Y-79448658D01*
X169443400Y-79501000D01*
X169443400Y-80695800D01*
X169791431Y-80695800D01*
X169859552Y-80715802D01*
X169896013Y-80751524D01*
X169943237Y-80821800D01*
X169960308Y-80847205D01*
X169965927Y-80852318D01*
X169965928Y-80852319D01*
X169993604Y-80877502D01*
X170077476Y-80953819D01*
X170216693Y-81029408D01*
X170369922Y-81069607D01*
X170453877Y-81070926D01*
X170520719Y-81071976D01*
X170520722Y-81071976D01*
X170528316Y-81072095D01*
X170682732Y-81036729D01*
X170753142Y-81001317D01*
X170817472Y-80968963D01*
X170817475Y-80968961D01*
X170824255Y-80965551D01*
X170830026Y-80960622D01*
X170830029Y-80960620D01*
X170938936Y-80867604D01*
X170938936Y-80867603D01*
X170944714Y-80862669D01*
X171026917Y-80748272D01*
X171082909Y-80704626D01*
X171129237Y-80695800D01*
X172301500Y-80695800D01*
X172369621Y-80715802D01*
X172416114Y-80769458D01*
X172427500Y-80821800D01*
X172427501Y-81623095D01*
X172427501Y-82359066D01*
X172434612Y-82394818D01*
X172439025Y-82417004D01*
X172442266Y-82433301D01*
X172498516Y-82517484D01*
X172508832Y-82524377D01*
X172546307Y-82549417D01*
X172582699Y-82573734D01*
X172656933Y-82588500D01*
X173481866Y-82588500D01*
X174307066Y-82588499D01*
X174346107Y-82580734D01*
X174369126Y-82576156D01*
X174369128Y-82576155D01*
X174381301Y-82573734D01*
X174391621Y-82566839D01*
X174391622Y-82566838D01*
X174465484Y-82517484D01*
X174467298Y-82520198D01*
X174512094Y-82495737D01*
X174582909Y-82500802D01*
X174627972Y-82529763D01*
X174634125Y-82535916D01*
X174642533Y-82542972D01*
X174820993Y-82667931D01*
X174830489Y-82673414D01*
X175027947Y-82765490D01*
X175038239Y-82769236D01*
X175131874Y-82794325D01*
X175192497Y-82831277D01*
X175223518Y-82895137D01*
X175215090Y-82965632D01*
X175169887Y-83020379D01*
X175134840Y-83036905D01*
X175085066Y-83051554D01*
X175079601Y-83054411D01*
X174907261Y-83144508D01*
X174907257Y-83144511D01*
X174901801Y-83147363D01*
X174740635Y-83276943D01*
X174607708Y-83435360D01*
X174593054Y-83462015D01*
X174542710Y-83512070D01*
X174473293Y-83526963D01*
X174406844Y-83501961D01*
X174371393Y-83460466D01*
X174364565Y-83447625D01*
X174360674Y-83442855D01*
X174360672Y-83442851D01*
X174237758Y-83292143D01*
X174237755Y-83292140D01*
X174233863Y-83287368D01*
X174226966Y-83281662D01*
X174079271Y-83159478D01*
X174079266Y-83159475D01*
X174074522Y-83155550D01*
X174069103Y-83152620D01*
X174069100Y-83152618D01*
X173898032Y-83060122D01*
X173898027Y-83060120D01*
X173892612Y-83057192D01*
X173695063Y-82996040D01*
X173688938Y-82995396D01*
X173688937Y-82995396D01*
X173495526Y-82975068D01*
X173495524Y-82975068D01*
X173489397Y-82974424D01*
X173363229Y-82985906D01*
X173289591Y-82992607D01*
X173289590Y-82992607D01*
X173283450Y-82993166D01*
X173085066Y-83051554D01*
X173079601Y-83054411D01*
X172907261Y-83144508D01*
X172907257Y-83144511D01*
X172901801Y-83147363D01*
X172740635Y-83276943D01*
X172607708Y-83435360D01*
X172508082Y-83616578D01*
X172445553Y-83813696D01*
X172422501Y-84019206D01*
X172439806Y-84225278D01*
X172496807Y-84424066D01*
X172499625Y-84429548D01*
X172499626Y-84429552D01*
X172588514Y-84602509D01*
X172588517Y-84602513D01*
X172591334Y-84607995D01*
X172719786Y-84770061D01*
X172877271Y-84904091D01*
X173057789Y-85004980D01*
X173254466Y-85068884D01*
X173459809Y-85093370D01*
X173465944Y-85092898D01*
X173465946Y-85092898D01*
X173659856Y-85077977D01*
X173659860Y-85077976D01*
X173665998Y-85077504D01*
X173865178Y-85021892D01*
X173870682Y-85019112D01*
X173870684Y-85019111D01*
X174044262Y-84931431D01*
X174044264Y-84931430D01*
X174049763Y-84928652D01*
X174212722Y-84801334D01*
X174216748Y-84796670D01*
X174216751Y-84796667D01*
X174343819Y-84649457D01*
X174343820Y-84649455D01*
X174347848Y-84644789D01*
X174370603Y-84604733D01*
X174421643Y-84555383D01*
X174491262Y-84541461D01*
X174557355Y-84567388D01*
X174586073Y-84598719D01*
X174588512Y-84602503D01*
X174591334Y-84607995D01*
X174719786Y-84770061D01*
X174877271Y-84904091D01*
X175057789Y-85004980D01*
X175254466Y-85068884D01*
X175459809Y-85093370D01*
X175465944Y-85092898D01*
X175465946Y-85092898D01*
X175659856Y-85077977D01*
X175659860Y-85077976D01*
X175665998Y-85077504D01*
X175865178Y-85021892D01*
X175870682Y-85019112D01*
X175870684Y-85019111D01*
X176044262Y-84931431D01*
X176044264Y-84931430D01*
X176049763Y-84928652D01*
X176212722Y-84801334D01*
X176216748Y-84796670D01*
X176216751Y-84796667D01*
X176343819Y-84649457D01*
X176343820Y-84649455D01*
X176347848Y-84644789D01*
X176449995Y-84464979D01*
X176515270Y-84268753D01*
X176541189Y-84063586D01*
X176541602Y-84034000D01*
X176521422Y-83828189D01*
X176461651Y-83630217D01*
X176393456Y-83501961D01*
X176367459Y-83453067D01*
X176367457Y-83453064D01*
X176364565Y-83447625D01*
X176360674Y-83442855D01*
X176360672Y-83442851D01*
X176237758Y-83292143D01*
X176237755Y-83292140D01*
X176233863Y-83287368D01*
X176226966Y-83281662D01*
X176079271Y-83159478D01*
X176079266Y-83159475D01*
X176074522Y-83155550D01*
X176069103Y-83152620D01*
X176069100Y-83152618D01*
X175898032Y-83060122D01*
X175898027Y-83060120D01*
X175892612Y-83057192D01*
X175826382Y-83036690D01*
X175767224Y-82997440D01*
X175738676Y-82932436D01*
X175749804Y-82862317D01*
X175797075Y-82809345D01*
X175831030Y-82794619D01*
X175925764Y-82769235D01*
X175936053Y-82765490D01*
X176133511Y-82673414D01*
X176143006Y-82667931D01*
X176195048Y-82631491D01*
X176203424Y-82621012D01*
X176196356Y-82607566D01*
X175211885Y-81623095D01*
X175177859Y-81560783D01*
X175182924Y-81489968D01*
X175211885Y-81444905D01*
X175392905Y-81263885D01*
X175455217Y-81229859D01*
X175526032Y-81234924D01*
X175571095Y-81263885D01*
X176556287Y-82249077D01*
X176568062Y-82255507D01*
X176580077Y-82246211D01*
X176615931Y-82195006D01*
X176621414Y-82185511D01*
X176713490Y-81988053D01*
X176717236Y-81977761D01*
X176773625Y-81767312D01*
X176775528Y-81756519D01*
X176794517Y-81539475D01*
X176794517Y-81528525D01*
X176775528Y-81311481D01*
X176773625Y-81300688D01*
X176717236Y-81090239D01*
X176713490Y-81079947D01*
X176619088Y-80877502D01*
X176620788Y-80876709D01*
X176606009Y-80815818D01*
X176629223Y-80748723D01*
X176685025Y-80704830D01*
X176731867Y-80695800D01*
X179477400Y-80695800D01*
X179545521Y-80715802D01*
X179592014Y-80769458D01*
X179603400Y-80821800D01*
X179603400Y-86157800D01*
X179583398Y-86225921D01*
X179529742Y-86272414D01*
X179477400Y-86283800D01*
X169621200Y-86283800D01*
X169621200Y-95378000D01*
X169601198Y-95446121D01*
X169547542Y-95492614D01*
X169495200Y-95504000D01*
X158850600Y-95504000D01*
X158782479Y-95483998D01*
X158735986Y-95430342D01*
X158724600Y-95378000D01*
X158724600Y-82674135D01*
X158744602Y-82606014D01*
X158798258Y-82559521D01*
X158868532Y-82549417D01*
X158910721Y-82563404D01*
X158932417Y-82575184D01*
X158932422Y-82575186D01*
X158939093Y-82578808D01*
X159092322Y-82619007D01*
X159176277Y-82620326D01*
X159243119Y-82621376D01*
X159243122Y-82621376D01*
X159250716Y-82621495D01*
X159405132Y-82586129D01*
X159490941Y-82542972D01*
X159539872Y-82518363D01*
X159539875Y-82518361D01*
X159546655Y-82514951D01*
X159552426Y-82510022D01*
X159552429Y-82510020D01*
X159661336Y-82417004D01*
X159661336Y-82417003D01*
X159667114Y-82412069D01*
X159759555Y-82283424D01*
X159818642Y-82136441D01*
X159840962Y-81979607D01*
X159841107Y-81965800D01*
X159822076Y-81808533D01*
X159766080Y-81660346D01*
X159740478Y-81623095D01*
X159680655Y-81536051D01*
X159680654Y-81536049D01*
X159676353Y-81529792D01*
X159558075Y-81424411D01*
X159550689Y-81420500D01*
X159424788Y-81353839D01*
X159424789Y-81353839D01*
X159418074Y-81350284D01*
X159264433Y-81311692D01*
X159256834Y-81311652D01*
X159256833Y-81311652D01*
X159190981Y-81311307D01*
X159106021Y-81310862D01*
X159098641Y-81312634D01*
X159098639Y-81312634D01*
X158959363Y-81346071D01*
X158959360Y-81346072D01*
X158951984Y-81347843D01*
X158945240Y-81351324D01*
X158945237Y-81351325D01*
X158908391Y-81370343D01*
X158838684Y-81383813D01*
X158772760Y-81357458D01*
X158731550Y-81299646D01*
X158724600Y-81258378D01*
X158724600Y-79501000D01*
X158744602Y-79432879D01*
X158798258Y-79386386D01*
X158850600Y-79375000D01*
X165314633Y-79375000D01*
X165382754Y-79395002D01*
G37*
G04 #@! TD.AperFunction*
G04 #@! TA.AperFunction,Conductor*
G36*
X181688121Y-65974002D02*
G01*
X181734614Y-66027658D01*
X181746000Y-66080000D01*
X181746000Y-73915000D01*
X181725998Y-73983121D01*
X181672342Y-74029614D01*
X181620000Y-74041000D01*
X169545000Y-74041000D01*
X169545000Y-78918800D01*
X169524998Y-78986921D01*
X169471342Y-79033414D01*
X169419000Y-79044800D01*
X158343600Y-79044800D01*
X158343651Y-79058465D01*
X158343651Y-79058467D01*
X158383181Y-89553999D01*
X158407791Y-96088200D01*
X170014209Y-96088200D01*
X170014161Y-96070083D01*
X170002536Y-91693335D01*
X170022357Y-91625161D01*
X170075889Y-91578526D01*
X170128536Y-91567000D01*
X181620000Y-91567000D01*
X181688121Y-91587002D01*
X181734614Y-91640658D01*
X181746000Y-91693000D01*
X181746000Y-100920000D01*
X181725998Y-100988121D01*
X181672342Y-101034614D01*
X181620000Y-101046000D01*
X119380000Y-101046000D01*
X119311879Y-101025998D01*
X119265386Y-100972342D01*
X119254000Y-100920000D01*
X119254000Y-97000000D01*
X121390539Y-97000000D01*
X121410354Y-97251775D01*
X121411508Y-97256582D01*
X121411509Y-97256588D01*
X121439373Y-97372646D01*
X121469312Y-97497351D01*
X121471205Y-97501922D01*
X121471206Y-97501924D01*
X121506802Y-97587859D01*
X121565960Y-97730680D01*
X121697919Y-97946017D01*
X121861939Y-98138061D01*
X122053983Y-98302081D01*
X122269320Y-98434040D01*
X122273890Y-98435933D01*
X122273894Y-98435935D01*
X122463384Y-98514424D01*
X122502649Y-98530688D01*
X122560234Y-98544513D01*
X122743412Y-98588491D01*
X122743418Y-98588492D01*
X122748225Y-98589646D01*
X122836253Y-98596574D01*
X122934507Y-98604307D01*
X122934516Y-98604307D01*
X122936964Y-98604500D01*
X123063036Y-98604500D01*
X123065484Y-98604307D01*
X123065493Y-98604307D01*
X123163747Y-98596574D01*
X123251775Y-98589646D01*
X123256582Y-98588492D01*
X123256588Y-98588491D01*
X123439766Y-98544513D01*
X123497351Y-98530688D01*
X123536616Y-98514424D01*
X123726106Y-98435935D01*
X123726110Y-98435933D01*
X123730680Y-98434040D01*
X123946017Y-98302081D01*
X124138061Y-98138061D01*
X124302081Y-97946017D01*
X124434040Y-97730680D01*
X124493199Y-97587859D01*
X124528794Y-97501924D01*
X124528795Y-97501922D01*
X124530688Y-97497351D01*
X124560627Y-97372646D01*
X124588491Y-97256588D01*
X124588492Y-97256582D01*
X124589646Y-97251775D01*
X124609461Y-97000000D01*
X124600767Y-96889533D01*
X140017900Y-96889533D01*
X140017901Y-98639666D01*
X140032666Y-98713901D01*
X140039561Y-98724220D01*
X140039562Y-98724222D01*
X140077163Y-98780495D01*
X140088916Y-98798084D01*
X140173099Y-98854334D01*
X140247333Y-98869100D01*
X141122258Y-98869100D01*
X141997466Y-98869099D01*
X142033218Y-98861988D01*
X142059526Y-98856756D01*
X142059528Y-98856755D01*
X142071701Y-98854334D01*
X142082021Y-98847439D01*
X142082022Y-98847438D01*
X142145568Y-98804977D01*
X142155884Y-98798084D01*
X142185773Y-98753353D01*
X142205239Y-98724220D01*
X142212134Y-98713901D01*
X142226900Y-98639667D01*
X142226899Y-97735564D01*
X142553548Y-97735564D01*
X142566824Y-97938122D01*
X142568245Y-97943718D01*
X142568246Y-97943723D01*
X142599419Y-98066464D01*
X142616792Y-98134869D01*
X142619209Y-98140112D01*
X142656410Y-98220808D01*
X142701777Y-98319216D01*
X142705110Y-98323932D01*
X142791641Y-98446371D01*
X142818933Y-98484989D01*
X142964338Y-98626635D01*
X143133120Y-98739412D01*
X143138423Y-98741690D01*
X143138426Y-98741692D01*
X143281903Y-98803334D01*
X143319628Y-98819542D01*
X143392644Y-98836064D01*
X143511979Y-98863067D01*
X143511984Y-98863068D01*
X143517616Y-98864342D01*
X143523387Y-98864569D01*
X143523389Y-98864569D01*
X143578340Y-98866728D01*
X143720453Y-98872312D01*
X143827748Y-98856755D01*
X143915631Y-98844013D01*
X143915636Y-98844012D01*
X143921345Y-98843184D01*
X143926809Y-98841329D01*
X143926814Y-98841328D01*
X144108093Y-98779792D01*
X144108098Y-98779790D01*
X144113565Y-98777934D01*
X144135027Y-98765915D01*
X144188083Y-98736202D01*
X144290676Y-98678747D01*
X144322794Y-98652035D01*
X144442313Y-98552631D01*
X144446745Y-98548945D01*
X144478812Y-98510389D01*
X144572853Y-98397318D01*
X144572855Y-98397315D01*
X144576547Y-98392876D01*
X144675734Y-98215765D01*
X144677590Y-98210298D01*
X144677592Y-98210293D01*
X144739128Y-98029014D01*
X144739129Y-98029009D01*
X144740984Y-98023545D01*
X144741812Y-98017836D01*
X144741813Y-98017831D01*
X144769579Y-97826327D01*
X144770112Y-97822653D01*
X144771632Y-97764600D01*
X144753058Y-97562459D01*
X144750633Y-97553861D01*
X144699525Y-97372646D01*
X144699524Y-97372644D01*
X144697957Y-97367087D01*
X144687378Y-97345633D01*
X144610731Y-97190209D01*
X144608176Y-97185028D01*
X144486720Y-97022379D01*
X144369380Y-96913911D01*
X144341903Y-96888511D01*
X144337658Y-96884587D01*
X144332775Y-96881506D01*
X144332771Y-96881503D01*
X144170864Y-96779348D01*
X144165981Y-96776267D01*
X143977439Y-96701046D01*
X143971779Y-96699920D01*
X143971775Y-96699919D01*
X143784013Y-96662571D01*
X143784010Y-96662571D01*
X143778346Y-96661444D01*
X143772571Y-96661368D01*
X143772567Y-96661368D01*
X143671193Y-96660041D01*
X143575371Y-96658787D01*
X143569674Y-96659766D01*
X143569673Y-96659766D01*
X143381007Y-96692185D01*
X143375310Y-96693164D01*
X143184863Y-96763424D01*
X143010410Y-96867212D01*
X143006070Y-96871018D01*
X143006066Y-96871021D01*
X142957160Y-96913911D01*
X142857792Y-97001055D01*
X142732120Y-97160469D01*
X142729431Y-97165580D01*
X142729429Y-97165583D01*
X142705835Y-97210428D01*
X142637603Y-97340115D01*
X142577407Y-97533978D01*
X142553548Y-97735564D01*
X142226899Y-97735564D01*
X142226899Y-96889534D01*
X142212134Y-96815299D01*
X142203026Y-96801667D01*
X142162777Y-96741432D01*
X142155884Y-96731116D01*
X142071701Y-96674866D01*
X141997467Y-96660100D01*
X141122542Y-96660100D01*
X140247334Y-96660101D01*
X140211582Y-96667212D01*
X140185274Y-96672444D01*
X140185272Y-96672445D01*
X140173099Y-96674866D01*
X140162779Y-96681761D01*
X140162778Y-96681762D01*
X140109166Y-96717585D01*
X140088916Y-96731116D01*
X140032666Y-96815299D01*
X140017900Y-96889533D01*
X124600767Y-96889533D01*
X124589646Y-96748225D01*
X124588492Y-96743418D01*
X124588491Y-96743412D01*
X124543315Y-96555244D01*
X124530688Y-96502649D01*
X124527434Y-96494792D01*
X124435935Y-96273894D01*
X124435933Y-96273890D01*
X124434040Y-96269320D01*
X124302081Y-96053983D01*
X124138061Y-95861939D01*
X123946017Y-95697919D01*
X123730680Y-95565960D01*
X123726110Y-95564067D01*
X123726106Y-95564065D01*
X123501924Y-95471206D01*
X123501922Y-95471205D01*
X123497351Y-95469312D01*
X123411135Y-95448613D01*
X123256588Y-95411509D01*
X123256582Y-95411508D01*
X123251775Y-95410354D01*
X123163747Y-95403426D01*
X123065493Y-95395693D01*
X123065484Y-95395693D01*
X123063036Y-95395500D01*
X122936964Y-95395500D01*
X122934516Y-95395693D01*
X122934507Y-95395693D01*
X122836253Y-95403426D01*
X122748225Y-95410354D01*
X122743418Y-95411508D01*
X122743412Y-95411509D01*
X122588865Y-95448613D01*
X122502649Y-95469312D01*
X122498078Y-95471205D01*
X122498076Y-95471206D01*
X122273894Y-95564065D01*
X122273890Y-95564067D01*
X122269320Y-95565960D01*
X122053983Y-95697919D01*
X121861939Y-95861939D01*
X121697919Y-96053983D01*
X121565960Y-96269320D01*
X121564067Y-96273890D01*
X121564065Y-96273894D01*
X121472566Y-96494792D01*
X121469312Y-96502649D01*
X121456685Y-96555244D01*
X121411509Y-96743412D01*
X121411508Y-96743418D01*
X121410354Y-96748225D01*
X121390539Y-97000000D01*
X119254000Y-97000000D01*
X119254000Y-95195564D01*
X140013548Y-95195564D01*
X140026824Y-95398122D01*
X140028245Y-95403718D01*
X140028246Y-95403723D01*
X140054587Y-95507437D01*
X140076792Y-95594869D01*
X140079209Y-95600112D01*
X140116410Y-95680808D01*
X140161777Y-95779216D01*
X140278933Y-95944989D01*
X140424338Y-96086635D01*
X140593120Y-96199412D01*
X140598423Y-96201690D01*
X140598426Y-96201692D01*
X140764792Y-96273168D01*
X140779628Y-96279542D01*
X140827512Y-96290377D01*
X140971979Y-96323067D01*
X140971984Y-96323068D01*
X140977616Y-96324342D01*
X140983387Y-96324569D01*
X140983389Y-96324569D01*
X141038340Y-96326728D01*
X141180453Y-96332312D01*
X141280899Y-96317748D01*
X141375631Y-96304013D01*
X141375636Y-96304012D01*
X141381345Y-96303184D01*
X141386809Y-96301329D01*
X141386814Y-96301328D01*
X141568093Y-96239792D01*
X141568098Y-96239790D01*
X141573565Y-96237934D01*
X141750676Y-96138747D01*
X141759829Y-96131135D01*
X141881534Y-96029913D01*
X141906745Y-96008945D01*
X141938812Y-95970389D01*
X142032853Y-95857318D01*
X142032855Y-95857315D01*
X142036547Y-95852876D01*
X142135734Y-95675765D01*
X142137590Y-95670298D01*
X142137592Y-95670293D01*
X142199128Y-95489014D01*
X142199129Y-95489009D01*
X142200984Y-95483545D01*
X142201812Y-95477836D01*
X142201813Y-95477831D01*
X142229579Y-95286327D01*
X142230112Y-95282653D01*
X142231632Y-95224600D01*
X142228964Y-95195564D01*
X142553548Y-95195564D01*
X142566824Y-95398122D01*
X142568245Y-95403718D01*
X142568246Y-95403723D01*
X142594587Y-95507437D01*
X142616792Y-95594869D01*
X142619209Y-95600112D01*
X142656410Y-95680808D01*
X142701777Y-95779216D01*
X142818933Y-95944989D01*
X142964338Y-96086635D01*
X143133120Y-96199412D01*
X143138423Y-96201690D01*
X143138426Y-96201692D01*
X143304792Y-96273168D01*
X143319628Y-96279542D01*
X143367512Y-96290377D01*
X143511979Y-96323067D01*
X143511984Y-96323068D01*
X143517616Y-96324342D01*
X143523387Y-96324569D01*
X143523389Y-96324569D01*
X143578340Y-96326728D01*
X143720453Y-96332312D01*
X143820899Y-96317748D01*
X143915631Y-96304013D01*
X143915636Y-96304012D01*
X143921345Y-96303184D01*
X143926809Y-96301329D01*
X143926814Y-96301328D01*
X144108093Y-96239792D01*
X144108098Y-96239790D01*
X144113565Y-96237934D01*
X144290676Y-96138747D01*
X144299829Y-96131135D01*
X144421534Y-96029913D01*
X144446745Y-96008945D01*
X144478812Y-95970389D01*
X144572853Y-95857318D01*
X144572855Y-95857315D01*
X144576547Y-95852876D01*
X144675734Y-95675765D01*
X144678120Y-95668735D01*
X144678570Y-95668096D01*
X144679941Y-95665016D01*
X144680546Y-95665285D01*
X144718953Y-95610659D01*
X144784705Y-95583878D01*
X144854498Y-95596895D01*
X144906173Y-95645580D01*
X144914177Y-95661829D01*
X144984170Y-95834203D01*
X144988813Y-95843394D01*
X145100094Y-96024988D01*
X145106177Y-96033299D01*
X145245613Y-96194267D01*
X145252980Y-96201483D01*
X145416834Y-96337516D01*
X145425281Y-96343431D01*
X145609156Y-96450879D01*
X145618442Y-96455329D01*
X145767524Y-96512257D01*
X145824027Y-96555244D01*
X145848320Y-96621955D01*
X145832690Y-96691210D01*
X145782099Y-96741021D01*
X145766185Y-96748179D01*
X145724863Y-96763424D01*
X145550410Y-96867212D01*
X145546070Y-96871018D01*
X145546066Y-96871021D01*
X145497160Y-96913911D01*
X145397792Y-97001055D01*
X145272120Y-97160469D01*
X145269431Y-97165580D01*
X145269429Y-97165583D01*
X145245835Y-97210428D01*
X145177603Y-97340115D01*
X145117407Y-97533978D01*
X145093548Y-97735564D01*
X145106824Y-97938122D01*
X145108245Y-97943718D01*
X145108246Y-97943723D01*
X145139419Y-98066464D01*
X145156792Y-98134869D01*
X145159209Y-98140112D01*
X145196410Y-98220808D01*
X145241777Y-98319216D01*
X145245110Y-98323932D01*
X145331641Y-98446371D01*
X145358933Y-98484989D01*
X145504338Y-98626635D01*
X145673120Y-98739412D01*
X145678423Y-98741690D01*
X145678426Y-98741692D01*
X145821903Y-98803334D01*
X145859628Y-98819542D01*
X145932644Y-98836064D01*
X146051979Y-98863067D01*
X146051984Y-98863068D01*
X146057616Y-98864342D01*
X146063387Y-98864569D01*
X146063389Y-98864569D01*
X146118340Y-98866728D01*
X146260453Y-98872312D01*
X146367748Y-98856755D01*
X146455631Y-98844013D01*
X146455636Y-98844012D01*
X146461345Y-98843184D01*
X146466809Y-98841329D01*
X146466814Y-98841328D01*
X146648093Y-98779792D01*
X146648098Y-98779790D01*
X146653565Y-98777934D01*
X146675027Y-98765915D01*
X146728083Y-98736202D01*
X146830676Y-98678747D01*
X146862794Y-98652035D01*
X146982313Y-98552631D01*
X146986745Y-98548945D01*
X147018812Y-98510389D01*
X147112853Y-98397318D01*
X147112855Y-98397315D01*
X147116547Y-98392876D01*
X147215734Y-98215765D01*
X147217590Y-98210298D01*
X147217592Y-98210293D01*
X147279128Y-98029014D01*
X147279129Y-98029009D01*
X147280984Y-98023545D01*
X147281812Y-98017836D01*
X147281813Y-98017831D01*
X147309579Y-97826327D01*
X147310112Y-97822653D01*
X147311632Y-97764600D01*
X147311298Y-97760964D01*
X150783148Y-97760964D01*
X150796424Y-97963522D01*
X150797845Y-97969118D01*
X150797846Y-97969123D01*
X150822568Y-98066464D01*
X150846392Y-98160269D01*
X150848809Y-98165512D01*
X150886010Y-98246208D01*
X150931377Y-98344616D01*
X150934710Y-98349332D01*
X151002698Y-98445533D01*
X151048533Y-98510389D01*
X151193938Y-98652035D01*
X151362720Y-98764812D01*
X151368023Y-98767090D01*
X151368026Y-98767092D01*
X151493075Y-98820817D01*
X151549228Y-98844942D01*
X151622244Y-98861464D01*
X151741579Y-98888467D01*
X151741584Y-98888468D01*
X151747216Y-98889742D01*
X151752987Y-98889969D01*
X151752989Y-98889969D01*
X151812756Y-98892317D01*
X151950053Y-98897712D01*
X152050499Y-98883148D01*
X152145231Y-98869413D01*
X152145236Y-98869412D01*
X152150945Y-98868584D01*
X152156409Y-98866729D01*
X152156414Y-98866728D01*
X152337693Y-98805192D01*
X152337698Y-98805190D01*
X152343165Y-98803334D01*
X152520276Y-98704147D01*
X152547420Y-98681572D01*
X152671913Y-98578031D01*
X152676345Y-98574345D01*
X152754588Y-98480269D01*
X152802453Y-98422718D01*
X152802455Y-98422715D01*
X152806147Y-98418276D01*
X152905334Y-98241165D01*
X152907190Y-98235698D01*
X152907192Y-98235693D01*
X152968728Y-98054414D01*
X152968729Y-98054409D01*
X152970584Y-98048945D01*
X152971412Y-98043236D01*
X152971413Y-98043231D01*
X152999179Y-97851727D01*
X152999712Y-97848053D01*
X153001232Y-97790000D01*
X152998564Y-97760964D01*
X153323148Y-97760964D01*
X153336424Y-97963522D01*
X153337845Y-97969118D01*
X153337846Y-97969123D01*
X153362568Y-98066464D01*
X153386392Y-98160269D01*
X153388809Y-98165512D01*
X153426010Y-98246208D01*
X153471377Y-98344616D01*
X153474710Y-98349332D01*
X153542698Y-98445533D01*
X153588533Y-98510389D01*
X153733938Y-98652035D01*
X153902720Y-98764812D01*
X153908023Y-98767090D01*
X153908026Y-98767092D01*
X154033075Y-98820817D01*
X154089228Y-98844942D01*
X154162244Y-98861464D01*
X154281579Y-98888467D01*
X154281584Y-98888468D01*
X154287216Y-98889742D01*
X154292987Y-98889969D01*
X154292989Y-98889969D01*
X154352756Y-98892317D01*
X154490053Y-98897712D01*
X154590499Y-98883148D01*
X154685231Y-98869413D01*
X154685236Y-98869412D01*
X154690945Y-98868584D01*
X154696409Y-98866729D01*
X154696414Y-98866728D01*
X154877693Y-98805192D01*
X154877698Y-98805190D01*
X154883165Y-98803334D01*
X155060276Y-98704147D01*
X155087420Y-98681572D01*
X155190433Y-98595896D01*
X159182929Y-98595896D01*
X159191621Y-98674625D01*
X159199026Y-98741692D01*
X159200313Y-98753353D01*
X159202923Y-98760484D01*
X159202923Y-98760486D01*
X159250307Y-98889969D01*
X159254753Y-98902119D01*
X159343108Y-99033605D01*
X159348727Y-99038718D01*
X159348728Y-99038719D01*
X159360103Y-99049069D01*
X159460276Y-99140219D01*
X159599493Y-99215808D01*
X159752722Y-99256007D01*
X159836677Y-99257326D01*
X159903519Y-99258376D01*
X159903522Y-99258376D01*
X159911116Y-99258495D01*
X160065532Y-99223129D01*
X160135942Y-99187717D01*
X160200272Y-99155363D01*
X160200275Y-99155361D01*
X160207055Y-99151951D01*
X160212826Y-99147022D01*
X160212829Y-99147020D01*
X160321736Y-99054004D01*
X160321736Y-99054003D01*
X160327514Y-99049069D01*
X160419955Y-98920424D01*
X160479042Y-98773441D01*
X160486047Y-98724220D01*
X160500781Y-98620691D01*
X160500781Y-98620688D01*
X160501362Y-98616607D01*
X160501507Y-98602800D01*
X160499776Y-98588491D01*
X160492551Y-98528794D01*
X160482476Y-98445533D01*
X160426480Y-98297346D01*
X160370411Y-98215765D01*
X160341055Y-98173051D01*
X160341054Y-98173049D01*
X160336753Y-98166792D01*
X160218475Y-98061411D01*
X160211089Y-98057500D01*
X160085188Y-97990839D01*
X160085189Y-97990839D01*
X160078474Y-97987284D01*
X159924833Y-97948692D01*
X159917234Y-97948652D01*
X159917233Y-97948652D01*
X159851381Y-97948307D01*
X159766421Y-97947862D01*
X159759041Y-97949634D01*
X159759039Y-97949634D01*
X159619763Y-97983071D01*
X159619760Y-97983072D01*
X159612384Y-97984843D01*
X159471614Y-98057500D01*
X159352239Y-98161638D01*
X159261150Y-98291244D01*
X159232378Y-98365041D01*
X159206485Y-98431454D01*
X159203606Y-98438837D01*
X159202614Y-98446370D01*
X159202614Y-98446371D01*
X159186350Y-98569913D01*
X159182929Y-98595896D01*
X155190433Y-98595896D01*
X155211913Y-98578031D01*
X155216345Y-98574345D01*
X155294588Y-98480269D01*
X155342453Y-98422718D01*
X155342455Y-98422715D01*
X155346147Y-98418276D01*
X155445334Y-98241165D01*
X155447190Y-98235698D01*
X155447192Y-98235693D01*
X155508728Y-98054414D01*
X155508729Y-98054409D01*
X155510584Y-98048945D01*
X155511412Y-98043236D01*
X155511413Y-98043231D01*
X155539179Y-97851727D01*
X155539712Y-97848053D01*
X155541232Y-97790000D01*
X155522658Y-97587859D01*
X155517117Y-97568213D01*
X155469125Y-97398046D01*
X155469124Y-97398044D01*
X155467557Y-97392487D01*
X155456978Y-97371033D01*
X155380331Y-97215609D01*
X155377776Y-97210428D01*
X155256320Y-97047779D01*
X155204633Y-97000000D01*
X175390539Y-97000000D01*
X175410354Y-97251775D01*
X175411508Y-97256582D01*
X175411509Y-97256588D01*
X175439373Y-97372646D01*
X175469312Y-97497351D01*
X175471205Y-97501922D01*
X175471206Y-97501924D01*
X175506802Y-97587859D01*
X175565960Y-97730680D01*
X175697919Y-97946017D01*
X175861939Y-98138061D01*
X176053983Y-98302081D01*
X176269320Y-98434040D01*
X176273890Y-98435933D01*
X176273894Y-98435935D01*
X176463384Y-98514424D01*
X176502649Y-98530688D01*
X176560234Y-98544513D01*
X176743412Y-98588491D01*
X176743418Y-98588492D01*
X176748225Y-98589646D01*
X176836253Y-98596574D01*
X176934507Y-98604307D01*
X176934516Y-98604307D01*
X176936964Y-98604500D01*
X177063036Y-98604500D01*
X177065484Y-98604307D01*
X177065493Y-98604307D01*
X177163747Y-98596574D01*
X177251775Y-98589646D01*
X177256582Y-98588492D01*
X177256588Y-98588491D01*
X177439766Y-98544513D01*
X177497351Y-98530688D01*
X177536616Y-98514424D01*
X177726106Y-98435935D01*
X177726110Y-98435933D01*
X177730680Y-98434040D01*
X177946017Y-98302081D01*
X178138061Y-98138061D01*
X178302081Y-97946017D01*
X178434040Y-97730680D01*
X178493199Y-97587859D01*
X178528794Y-97501924D01*
X178528795Y-97501922D01*
X178530688Y-97497351D01*
X178560627Y-97372646D01*
X178588491Y-97256588D01*
X178588492Y-97256582D01*
X178589646Y-97251775D01*
X178609461Y-97000000D01*
X178589646Y-96748225D01*
X178588492Y-96743418D01*
X178588491Y-96743412D01*
X178543315Y-96555244D01*
X178530688Y-96502649D01*
X178527434Y-96494792D01*
X178435935Y-96273894D01*
X178435933Y-96273890D01*
X178434040Y-96269320D01*
X178302081Y-96053983D01*
X178138061Y-95861939D01*
X177946017Y-95697919D01*
X177730680Y-95565960D01*
X177726110Y-95564067D01*
X177726106Y-95564065D01*
X177501924Y-95471206D01*
X177501922Y-95471205D01*
X177497351Y-95469312D01*
X177411135Y-95448613D01*
X177256588Y-95411509D01*
X177256582Y-95411508D01*
X177251775Y-95410354D01*
X177163747Y-95403426D01*
X177065493Y-95395693D01*
X177065484Y-95395693D01*
X177063036Y-95395500D01*
X176936964Y-95395500D01*
X176934516Y-95395693D01*
X176934507Y-95395693D01*
X176836253Y-95403426D01*
X176748225Y-95410354D01*
X176743418Y-95411508D01*
X176743412Y-95411509D01*
X176588865Y-95448613D01*
X176502649Y-95469312D01*
X176498078Y-95471205D01*
X176498076Y-95471206D01*
X176273894Y-95564065D01*
X176273890Y-95564067D01*
X176269320Y-95565960D01*
X176053983Y-95697919D01*
X175861939Y-95861939D01*
X175697919Y-96053983D01*
X175565960Y-96269320D01*
X175564067Y-96273890D01*
X175564065Y-96273894D01*
X175472566Y-96494792D01*
X175469312Y-96502649D01*
X175456685Y-96555244D01*
X175411509Y-96743412D01*
X175411508Y-96743418D01*
X175410354Y-96748225D01*
X175390539Y-97000000D01*
X155204633Y-97000000D01*
X155107258Y-96909987D01*
X155102375Y-96906906D01*
X155102371Y-96906903D01*
X154940464Y-96804748D01*
X154935581Y-96801667D01*
X154747039Y-96726446D01*
X154741379Y-96725320D01*
X154741375Y-96725319D01*
X154553613Y-96687971D01*
X154553610Y-96687971D01*
X154547946Y-96686844D01*
X154542171Y-96686768D01*
X154542167Y-96686768D01*
X154440793Y-96685441D01*
X154344971Y-96684187D01*
X154339274Y-96685166D01*
X154339273Y-96685166D01*
X154150607Y-96717585D01*
X154144910Y-96718564D01*
X153954463Y-96788824D01*
X153780010Y-96892612D01*
X153775670Y-96896418D01*
X153775666Y-96896421D01*
X153660696Y-96997248D01*
X153627392Y-97026455D01*
X153501720Y-97185869D01*
X153499031Y-97190980D01*
X153499029Y-97190983D01*
X153486073Y-97215609D01*
X153407203Y-97365515D01*
X153398828Y-97392487D01*
X153353113Y-97539715D01*
X153347007Y-97559378D01*
X153323148Y-97760964D01*
X152998564Y-97760964D01*
X152982658Y-97587859D01*
X152977117Y-97568213D01*
X152929125Y-97398046D01*
X152929124Y-97398044D01*
X152927557Y-97392487D01*
X152916978Y-97371033D01*
X152840331Y-97215609D01*
X152837776Y-97210428D01*
X152716320Y-97047779D01*
X152567258Y-96909987D01*
X152562375Y-96906906D01*
X152562371Y-96906903D01*
X152400464Y-96804748D01*
X152395581Y-96801667D01*
X152207039Y-96726446D01*
X152201379Y-96725320D01*
X152201375Y-96725319D01*
X152013613Y-96687971D01*
X152013610Y-96687971D01*
X152007946Y-96686844D01*
X152002171Y-96686768D01*
X152002167Y-96686768D01*
X151900793Y-96685441D01*
X151804971Y-96684187D01*
X151799274Y-96685166D01*
X151799273Y-96685166D01*
X151610607Y-96717585D01*
X151604910Y-96718564D01*
X151414463Y-96788824D01*
X151240010Y-96892612D01*
X151235670Y-96896418D01*
X151235666Y-96896421D01*
X151120696Y-96997248D01*
X151087392Y-97026455D01*
X150961720Y-97185869D01*
X150959031Y-97190980D01*
X150959029Y-97190983D01*
X150946073Y-97215609D01*
X150867203Y-97365515D01*
X150858828Y-97392487D01*
X150813113Y-97539715D01*
X150807007Y-97559378D01*
X150783148Y-97760964D01*
X147311298Y-97760964D01*
X147293058Y-97562459D01*
X147290633Y-97553861D01*
X147239525Y-97372646D01*
X147239524Y-97372644D01*
X147237957Y-97367087D01*
X147227378Y-97345633D01*
X147150731Y-97190209D01*
X147148176Y-97185028D01*
X147026720Y-97022379D01*
X146909380Y-96913911D01*
X146881903Y-96888511D01*
X146877658Y-96884587D01*
X146872775Y-96881506D01*
X146872771Y-96881503D01*
X146710864Y-96779348D01*
X146705981Y-96776267D01*
X146634014Y-96747555D01*
X146578155Y-96703734D01*
X146554855Y-96636669D01*
X146571511Y-96567654D01*
X146622836Y-96518600D01*
X146644498Y-96509839D01*
X146694652Y-96494792D01*
X146704242Y-96491033D01*
X146895495Y-96397339D01*
X146904345Y-96392064D01*
X147077728Y-96268392D01*
X147085600Y-96261739D01*
X147236452Y-96111412D01*
X147243130Y-96103565D01*
X147367403Y-95930620D01*
X147372713Y-95921783D01*
X147467070Y-95730867D01*
X147470869Y-95721272D01*
X147532777Y-95517510D01*
X147534955Y-95507437D01*
X147536386Y-95496562D01*
X147534175Y-95482378D01*
X147521017Y-95478600D01*
X146074400Y-95478600D01*
X146006279Y-95458598D01*
X145959786Y-95404942D01*
X145948400Y-95352600D01*
X145948400Y-94952485D01*
X146456400Y-94952485D01*
X146460875Y-94967724D01*
X146462265Y-94968929D01*
X146469948Y-94970600D01*
X147520744Y-94970600D01*
X147534275Y-94966627D01*
X147535580Y-94957547D01*
X147493614Y-94790475D01*
X147490294Y-94780724D01*
X147405372Y-94585414D01*
X147400505Y-94576339D01*
X147284826Y-94397526D01*
X147278536Y-94389357D01*
X147265411Y-94374933D01*
X150787500Y-94374933D01*
X150787501Y-96125066D01*
X150802266Y-96199301D01*
X150809161Y-96209620D01*
X150809162Y-96209622D01*
X150848432Y-96268392D01*
X150858516Y-96283484D01*
X150942699Y-96339734D01*
X151016933Y-96354500D01*
X151891858Y-96354500D01*
X152767066Y-96354499D01*
X152802818Y-96347388D01*
X152829126Y-96342156D01*
X152829128Y-96342155D01*
X152841301Y-96339734D01*
X152851621Y-96332839D01*
X152851622Y-96332838D01*
X152915168Y-96290377D01*
X152925484Y-96283484D01*
X152981734Y-96199301D01*
X152996500Y-96125067D01*
X152996499Y-95220964D01*
X153323148Y-95220964D01*
X153323526Y-95226730D01*
X153335536Y-95409966D01*
X153336424Y-95423522D01*
X153337845Y-95429118D01*
X153337846Y-95429123D01*
X153357736Y-95507437D01*
X153386392Y-95620269D01*
X153388809Y-95625512D01*
X153426010Y-95706208D01*
X153471377Y-95804616D01*
X153588533Y-95970389D01*
X153592675Y-95974424D01*
X153674345Y-96053983D01*
X153733938Y-96112035D01*
X153902720Y-96224812D01*
X153908023Y-96227090D01*
X153908026Y-96227092D01*
X154033075Y-96280817D01*
X154089228Y-96304942D01*
X154162244Y-96321464D01*
X154281579Y-96348467D01*
X154281584Y-96348468D01*
X154287216Y-96349742D01*
X154292987Y-96349969D01*
X154292989Y-96349969D01*
X154352756Y-96352317D01*
X154490053Y-96357712D01*
X154597348Y-96342155D01*
X154685231Y-96329413D01*
X154685236Y-96329412D01*
X154690945Y-96328584D01*
X154696409Y-96326729D01*
X154696414Y-96326728D01*
X154877693Y-96265192D01*
X154877698Y-96265190D01*
X154883165Y-96263334D01*
X155060276Y-96164147D01*
X155087420Y-96141572D01*
X155211913Y-96038031D01*
X155216345Y-96034345D01*
X155302613Y-95930620D01*
X155342453Y-95882718D01*
X155342455Y-95882715D01*
X155346147Y-95878276D01*
X155445334Y-95701165D01*
X155447190Y-95695698D01*
X155447192Y-95695693D01*
X155508728Y-95514414D01*
X155508729Y-95514409D01*
X155510584Y-95508945D01*
X155511412Y-95503236D01*
X155511413Y-95503231D01*
X155539179Y-95311727D01*
X155539712Y-95308053D01*
X155541232Y-95250000D01*
X155522658Y-95047859D01*
X155517117Y-95028213D01*
X155469125Y-94858046D01*
X155469124Y-94858044D01*
X155467557Y-94852487D01*
X155459200Y-94835539D01*
X155380331Y-94675609D01*
X155377776Y-94670428D01*
X155256320Y-94507779D01*
X155107258Y-94369987D01*
X155102375Y-94366906D01*
X155102371Y-94366903D01*
X154940464Y-94264748D01*
X154935581Y-94261667D01*
X154747039Y-94186446D01*
X154741379Y-94185320D01*
X154741375Y-94185319D01*
X154553613Y-94147971D01*
X154553610Y-94147971D01*
X154547946Y-94146844D01*
X154542171Y-94146768D01*
X154542167Y-94146768D01*
X154440793Y-94145441D01*
X154344971Y-94144187D01*
X154339274Y-94145166D01*
X154339273Y-94145166D01*
X154150607Y-94177585D01*
X154144910Y-94178564D01*
X153954463Y-94248824D01*
X153780010Y-94352612D01*
X153775670Y-94356418D01*
X153775666Y-94356421D01*
X153660696Y-94457248D01*
X153627392Y-94486455D01*
X153501720Y-94645869D01*
X153499031Y-94650980D01*
X153499029Y-94650983D01*
X153486073Y-94675609D01*
X153407203Y-94825515D01*
X153398828Y-94852487D01*
X153353113Y-94999715D01*
X153347007Y-95019378D01*
X153323148Y-95220964D01*
X152996499Y-95220964D01*
X152996499Y-94374934D01*
X152987765Y-94331021D01*
X152984156Y-94312874D01*
X152984155Y-94312872D01*
X152981734Y-94300699D01*
X152955654Y-94261667D01*
X152932377Y-94226832D01*
X152925484Y-94216516D01*
X152841301Y-94160266D01*
X152767067Y-94145500D01*
X151892142Y-94145500D01*
X151016934Y-94145501D01*
X150981182Y-94152612D01*
X150954874Y-94157844D01*
X150954872Y-94157845D01*
X150942699Y-94160266D01*
X150932379Y-94167161D01*
X150932378Y-94167162D01*
X150879485Y-94202505D01*
X150858516Y-94216516D01*
X150802266Y-94300699D01*
X150787500Y-94374933D01*
X147265411Y-94374933D01*
X147135206Y-94231840D01*
X147127673Y-94224815D01*
X146960539Y-94092822D01*
X146951952Y-94087117D01*
X146765517Y-93984199D01*
X146756105Y-93979969D01*
X146555359Y-93908880D01*
X146545388Y-93906246D01*
X146474237Y-93893572D01*
X146460940Y-93895032D01*
X146456400Y-93909589D01*
X146456400Y-94952485D01*
X145948400Y-94952485D01*
X145948400Y-93907702D01*
X145944482Y-93894358D01*
X145930206Y-93892371D01*
X145891724Y-93898260D01*
X145881688Y-93900651D01*
X145679268Y-93966812D01*
X145669759Y-93970809D01*
X145480863Y-94069142D01*
X145472138Y-94074636D01*
X145301833Y-94202505D01*
X145294126Y-94209348D01*
X145146990Y-94363317D01*
X145140504Y-94371327D01*
X145020498Y-94547249D01*
X145015400Y-94556223D01*
X144925738Y-94749383D01*
X144922177Y-94759064D01*
X144917691Y-94775240D01*
X144880213Y-94835539D01*
X144816084Y-94866003D01*
X144745666Y-94856960D01*
X144691315Y-94811282D01*
X144683267Y-94797298D01*
X144610731Y-94650209D01*
X144608176Y-94645028D01*
X144486720Y-94482379D01*
X144366585Y-94371327D01*
X144341903Y-94348511D01*
X144337658Y-94344587D01*
X144332775Y-94341506D01*
X144332771Y-94341503D01*
X144170864Y-94239348D01*
X144165981Y-94236267D01*
X143977439Y-94161046D01*
X143971779Y-94159920D01*
X143971775Y-94159919D01*
X143784013Y-94122571D01*
X143784010Y-94122571D01*
X143778346Y-94121444D01*
X143772571Y-94121368D01*
X143772567Y-94121368D01*
X143671193Y-94120041D01*
X143575371Y-94118787D01*
X143569674Y-94119766D01*
X143569673Y-94119766D01*
X143412532Y-94146768D01*
X143375310Y-94153164D01*
X143184863Y-94223424D01*
X143010410Y-94327212D01*
X143006070Y-94331018D01*
X143006066Y-94331021D01*
X142862133Y-94457248D01*
X142857792Y-94461055D01*
X142732120Y-94620469D01*
X142729431Y-94625580D01*
X142729429Y-94625583D01*
X142705835Y-94670428D01*
X142637603Y-94800115D01*
X142577407Y-94993978D01*
X142553548Y-95195564D01*
X142228964Y-95195564D01*
X142213058Y-95022459D01*
X142210633Y-95013861D01*
X142159525Y-94832646D01*
X142159524Y-94832644D01*
X142157957Y-94827087D01*
X142147378Y-94805633D01*
X142070731Y-94650209D01*
X142068176Y-94645028D01*
X141946720Y-94482379D01*
X141826585Y-94371327D01*
X141801903Y-94348511D01*
X141797658Y-94344587D01*
X141792775Y-94341506D01*
X141792771Y-94341503D01*
X141630864Y-94239348D01*
X141625981Y-94236267D01*
X141437439Y-94161046D01*
X141431779Y-94159920D01*
X141431775Y-94159919D01*
X141244013Y-94122571D01*
X141244010Y-94122571D01*
X141238346Y-94121444D01*
X141232571Y-94121368D01*
X141232567Y-94121368D01*
X141131193Y-94120041D01*
X141035371Y-94118787D01*
X141029674Y-94119766D01*
X141029673Y-94119766D01*
X140872532Y-94146768D01*
X140835310Y-94153164D01*
X140644863Y-94223424D01*
X140470410Y-94327212D01*
X140466070Y-94331018D01*
X140466066Y-94331021D01*
X140322133Y-94457248D01*
X140317792Y-94461055D01*
X140192120Y-94620469D01*
X140189431Y-94625580D01*
X140189429Y-94625583D01*
X140165835Y-94670428D01*
X140097603Y-94800115D01*
X140037407Y-94993978D01*
X140013548Y-95195564D01*
X119254000Y-95195564D01*
X119254000Y-91687096D01*
X155626929Y-91687096D01*
X155644313Y-91844553D01*
X155698753Y-91993319D01*
X155787108Y-92124805D01*
X155792727Y-92129918D01*
X155792728Y-92129919D01*
X155804103Y-92140269D01*
X155904276Y-92231419D01*
X156043493Y-92307008D01*
X156196722Y-92347207D01*
X156280677Y-92348526D01*
X156347519Y-92349576D01*
X156347522Y-92349576D01*
X156355116Y-92349695D01*
X156509532Y-92314329D01*
X156579942Y-92278917D01*
X156644272Y-92246563D01*
X156644275Y-92246561D01*
X156651055Y-92243151D01*
X156656826Y-92238222D01*
X156656829Y-92238220D01*
X156765736Y-92145204D01*
X156765736Y-92145203D01*
X156771514Y-92140269D01*
X156863955Y-92011624D01*
X156923042Y-91864641D01*
X156945362Y-91707807D01*
X156945507Y-91694000D01*
X156926476Y-91536733D01*
X156870480Y-91388546D01*
X156780753Y-91257992D01*
X156662475Y-91152611D01*
X156655089Y-91148700D01*
X156529188Y-91082039D01*
X156529189Y-91082039D01*
X156522474Y-91078484D01*
X156368833Y-91039892D01*
X156361234Y-91039852D01*
X156361233Y-91039852D01*
X156295381Y-91039507D01*
X156210421Y-91039062D01*
X156203041Y-91040834D01*
X156203039Y-91040834D01*
X156063763Y-91074271D01*
X156063760Y-91074272D01*
X156056384Y-91076043D01*
X155915614Y-91148700D01*
X155796239Y-91252838D01*
X155705150Y-91382444D01*
X155647606Y-91530037D01*
X155646614Y-91537570D01*
X155646614Y-91537571D01*
X155633043Y-91640658D01*
X155626929Y-91687096D01*
X119254000Y-91687096D01*
X119254000Y-89324896D01*
X120905129Y-89324896D01*
X120922513Y-89482353D01*
X120925123Y-89489484D01*
X120925123Y-89489486D01*
X120949309Y-89555576D01*
X120976953Y-89631119D01*
X120981189Y-89637422D01*
X120981189Y-89637423D01*
X121036419Y-89719613D01*
X121065308Y-89762605D01*
X121070927Y-89767718D01*
X121070928Y-89767719D01*
X121140960Y-89831443D01*
X121182476Y-89869219D01*
X121321693Y-89944808D01*
X121474922Y-89985007D01*
X121558877Y-89986326D01*
X121625719Y-89987376D01*
X121625722Y-89987376D01*
X121633316Y-89987495D01*
X121787732Y-89952129D01*
X121883228Y-89904100D01*
X121917300Y-89886964D01*
X139861148Y-89886964D01*
X139874424Y-90089522D01*
X139875845Y-90095118D01*
X139875846Y-90095123D01*
X139896119Y-90174945D01*
X139924392Y-90286269D01*
X139926809Y-90291512D01*
X140006959Y-90465371D01*
X140009377Y-90470616D01*
X140126533Y-90636389D01*
X140271938Y-90778035D01*
X140440720Y-90890812D01*
X140446023Y-90893090D01*
X140446026Y-90893092D01*
X140534707Y-90931192D01*
X140627228Y-90970942D01*
X140697394Y-90986819D01*
X140819579Y-91014467D01*
X140819584Y-91014468D01*
X140825216Y-91015742D01*
X140830987Y-91015969D01*
X140830989Y-91015969D01*
X140890756Y-91018317D01*
X141028053Y-91023712D01*
X141128499Y-91009148D01*
X141223231Y-90995413D01*
X141223236Y-90995412D01*
X141228945Y-90994584D01*
X141234409Y-90992729D01*
X141234414Y-90992728D01*
X141415693Y-90931192D01*
X141415698Y-90931190D01*
X141421165Y-90929334D01*
X141598276Y-90830147D01*
X141660934Y-90778035D01*
X141749913Y-90704031D01*
X141754345Y-90700345D01*
X141884147Y-90544276D01*
X141983334Y-90367165D01*
X141985190Y-90361698D01*
X141985192Y-90361693D01*
X142046728Y-90180414D01*
X142046729Y-90180409D01*
X142048584Y-90174945D01*
X142049412Y-90169236D01*
X142049413Y-90169231D01*
X142076106Y-89985126D01*
X142077712Y-89974053D01*
X142079232Y-89916000D01*
X142067797Y-89791551D01*
X142061187Y-89719613D01*
X142061186Y-89719610D01*
X142060658Y-89713859D01*
X142059090Y-89708299D01*
X142007125Y-89524046D01*
X142007124Y-89524044D01*
X142005557Y-89518487D01*
X142002856Y-89513008D01*
X141918331Y-89341609D01*
X141915776Y-89336428D01*
X141794320Y-89173779D01*
X141645258Y-89035987D01*
X141640375Y-89032906D01*
X141640371Y-89032903D01*
X141478464Y-88930748D01*
X141473581Y-88927667D01*
X141285039Y-88852446D01*
X141279379Y-88851320D01*
X141279375Y-88851319D01*
X141091613Y-88813971D01*
X141091610Y-88813971D01*
X141085946Y-88812844D01*
X141080171Y-88812768D01*
X141080167Y-88812768D01*
X140978793Y-88811441D01*
X140882971Y-88810187D01*
X140877274Y-88811166D01*
X140877273Y-88811166D01*
X140688607Y-88843585D01*
X140682910Y-88844564D01*
X140492463Y-88914824D01*
X140318010Y-89018612D01*
X140313670Y-89022418D01*
X140313666Y-89022421D01*
X140174633Y-89144351D01*
X140165392Y-89152455D01*
X140039720Y-89311869D01*
X140037031Y-89316980D01*
X140037029Y-89316983D01*
X139989128Y-89408027D01*
X139945203Y-89491515D01*
X139885007Y-89685378D01*
X139861148Y-89886964D01*
X121917300Y-89886964D01*
X121922472Y-89884363D01*
X121922475Y-89884361D01*
X121929255Y-89880951D01*
X121935026Y-89876022D01*
X121935029Y-89876020D01*
X122043936Y-89783004D01*
X122043936Y-89783003D01*
X122049714Y-89778069D01*
X122142155Y-89649424D01*
X122201242Y-89502441D01*
X122220267Y-89368759D01*
X122222981Y-89349691D01*
X122222981Y-89349688D01*
X122223562Y-89345607D01*
X122223631Y-89339065D01*
X122223664Y-89335934D01*
X122223664Y-89335928D01*
X122223707Y-89331800D01*
X122204676Y-89174533D01*
X122148680Y-89026346D01*
X122110900Y-88971376D01*
X122063255Y-88902051D01*
X122063254Y-88902049D01*
X122058953Y-88895792D01*
X122055927Y-88893096D01*
X130176129Y-88893096D01*
X130181067Y-88937824D01*
X130191905Y-89035987D01*
X130193513Y-89050553D01*
X130196123Y-89057684D01*
X130196123Y-89057686D01*
X130238883Y-89174533D01*
X130247953Y-89199319D01*
X130252189Y-89205622D01*
X130252189Y-89205623D01*
X130327277Y-89317365D01*
X130336308Y-89330805D01*
X130341927Y-89335918D01*
X130341928Y-89335919D01*
X130358726Y-89351204D01*
X130453476Y-89437419D01*
X130592693Y-89513008D01*
X130745922Y-89553207D01*
X130829877Y-89554526D01*
X130896719Y-89555576D01*
X130896722Y-89555576D01*
X130904316Y-89555695D01*
X131058732Y-89520329D01*
X131134240Y-89482353D01*
X131193472Y-89452563D01*
X131193475Y-89452561D01*
X131200255Y-89449151D01*
X131206026Y-89444222D01*
X131206029Y-89444220D01*
X131314936Y-89351204D01*
X131314936Y-89351203D01*
X131320714Y-89346269D01*
X131413155Y-89217624D01*
X131472242Y-89070641D01*
X131486369Y-88971376D01*
X131493981Y-88917891D01*
X131493981Y-88917888D01*
X131494562Y-88913807D01*
X131494707Y-88900000D01*
X131493181Y-88887385D01*
X131484331Y-88814259D01*
X131475676Y-88742733D01*
X131419680Y-88594546D01*
X131343350Y-88483485D01*
X131334255Y-88470251D01*
X131334254Y-88470249D01*
X131329953Y-88463992D01*
X131317311Y-88452728D01*
X131246158Y-88389334D01*
X131211675Y-88358611D01*
X131204289Y-88354700D01*
X131117780Y-88308896D01*
X131071674Y-88284484D01*
X130918033Y-88245892D01*
X130910434Y-88245852D01*
X130910433Y-88245852D01*
X130844581Y-88245507D01*
X130759621Y-88245062D01*
X130752241Y-88246834D01*
X130752239Y-88246834D01*
X130612963Y-88280271D01*
X130612960Y-88280272D01*
X130605584Y-88282043D01*
X130464814Y-88354700D01*
X130345439Y-88458838D01*
X130254350Y-88588444D01*
X130243950Y-88615119D01*
X130205229Y-88714434D01*
X130196806Y-88736037D01*
X130195814Y-88743570D01*
X130195814Y-88743571D01*
X130180902Y-88856842D01*
X130176129Y-88893096D01*
X122055927Y-88893096D01*
X122047475Y-88885565D01*
X121987460Y-88832095D01*
X121940675Y-88790411D01*
X121933289Y-88786500D01*
X121807388Y-88719839D01*
X121807389Y-88719839D01*
X121800674Y-88716284D01*
X121647033Y-88677692D01*
X121639434Y-88677652D01*
X121639433Y-88677652D01*
X121573581Y-88677307D01*
X121488621Y-88676862D01*
X121481241Y-88678634D01*
X121481239Y-88678634D01*
X121341963Y-88712071D01*
X121341960Y-88712072D01*
X121334584Y-88713843D01*
X121193814Y-88786500D01*
X121074439Y-88890638D01*
X120983350Y-89020244D01*
X120971533Y-89050553D01*
X120930035Y-89156991D01*
X120925806Y-89167837D01*
X120924814Y-89175370D01*
X120924814Y-89175371D01*
X120906171Y-89316983D01*
X120905129Y-89324896D01*
X119254000Y-89324896D01*
X119254000Y-87346964D01*
X139861148Y-87346964D01*
X139874424Y-87549522D01*
X139875845Y-87555118D01*
X139875846Y-87555123D01*
X139916937Y-87716915D01*
X139924392Y-87746269D01*
X140009377Y-87930616D01*
X140012710Y-87935332D01*
X140111519Y-88075144D01*
X140126533Y-88096389D01*
X140271938Y-88238035D01*
X140440720Y-88350812D01*
X140446023Y-88353090D01*
X140446026Y-88353092D01*
X140578230Y-88409891D01*
X140627228Y-88430942D01*
X140700244Y-88447464D01*
X140819579Y-88474467D01*
X140819584Y-88474468D01*
X140825216Y-88475742D01*
X140830987Y-88475969D01*
X140830989Y-88475969D01*
X140890756Y-88478317D01*
X141028053Y-88483712D01*
X141147776Y-88466353D01*
X141223231Y-88455413D01*
X141223236Y-88455412D01*
X141228945Y-88454584D01*
X141234409Y-88452729D01*
X141234414Y-88452728D01*
X141415693Y-88391192D01*
X141415698Y-88391190D01*
X141421165Y-88389334D01*
X141598276Y-88290147D01*
X141607310Y-88282634D01*
X141749913Y-88164031D01*
X141754345Y-88160345D01*
X141804181Y-88100424D01*
X141880453Y-88008718D01*
X141880455Y-88008715D01*
X141884147Y-88004276D01*
X141950356Y-87886051D01*
X141980510Y-87832208D01*
X141980511Y-87832206D01*
X141983334Y-87827165D01*
X141985190Y-87821698D01*
X141985192Y-87821693D01*
X142046728Y-87640414D01*
X142046729Y-87640409D01*
X142048584Y-87634945D01*
X142049412Y-87629236D01*
X142049413Y-87629231D01*
X142077179Y-87437727D01*
X142077712Y-87434053D01*
X142079232Y-87376000D01*
X142066497Y-87237407D01*
X142061187Y-87179613D01*
X142061186Y-87179610D01*
X142060658Y-87173859D01*
X142059090Y-87168299D01*
X142007125Y-86984046D01*
X142007124Y-86984044D01*
X142005557Y-86978487D01*
X141994978Y-86957033D01*
X141918331Y-86801609D01*
X141915776Y-86796428D01*
X141909970Y-86788652D01*
X141830486Y-86682211D01*
X141794320Y-86633779D01*
X141645258Y-86495987D01*
X141640375Y-86492906D01*
X141640371Y-86492903D01*
X141478464Y-86390748D01*
X141473581Y-86387667D01*
X141285039Y-86312446D01*
X141279379Y-86311320D01*
X141279375Y-86311319D01*
X141091613Y-86273971D01*
X141091610Y-86273971D01*
X141085946Y-86272844D01*
X141080171Y-86272768D01*
X141080167Y-86272768D01*
X140978793Y-86271441D01*
X140882971Y-86270187D01*
X140877274Y-86271166D01*
X140877273Y-86271166D01*
X140688607Y-86303585D01*
X140682910Y-86304564D01*
X140492463Y-86374824D01*
X140318010Y-86478612D01*
X140313670Y-86482418D01*
X140313666Y-86482421D01*
X140211987Y-86571592D01*
X140165392Y-86612455D01*
X140039720Y-86771869D01*
X140037031Y-86776980D01*
X140037029Y-86776983D01*
X139989128Y-86868027D01*
X139945203Y-86951515D01*
X139885007Y-87145378D01*
X139861148Y-87346964D01*
X119254000Y-87346964D01*
X119254000Y-84397296D01*
X122479929Y-84397296D01*
X122497313Y-84554753D01*
X122499923Y-84561884D01*
X122499923Y-84561886D01*
X122524227Y-84628299D01*
X122551753Y-84703519D01*
X122555989Y-84709822D01*
X122555989Y-84709823D01*
X122601650Y-84777773D01*
X122640108Y-84835005D01*
X122645727Y-84840118D01*
X122645728Y-84840119D01*
X122743025Y-84928652D01*
X122757276Y-84941619D01*
X122896493Y-85017208D01*
X123049722Y-85057407D01*
X123133677Y-85058726D01*
X123200519Y-85059776D01*
X123200522Y-85059776D01*
X123208116Y-85059895D01*
X123362532Y-85024529D01*
X123432942Y-84989117D01*
X123497272Y-84956763D01*
X123497275Y-84956761D01*
X123504055Y-84953351D01*
X123509826Y-84948422D01*
X123509829Y-84948420D01*
X123618736Y-84855404D01*
X123618736Y-84855403D01*
X123624514Y-84850469D01*
X123716955Y-84721824D01*
X123776042Y-84574841D01*
X123782165Y-84531815D01*
X123797781Y-84422091D01*
X123797781Y-84422088D01*
X123798362Y-84418007D01*
X123798507Y-84404200D01*
X123785377Y-84295696D01*
X128448929Y-84295696D01*
X128457184Y-84370462D01*
X128465308Y-84444046D01*
X128466313Y-84453153D01*
X128468923Y-84460284D01*
X128468923Y-84460286D01*
X128470641Y-84464979D01*
X128520753Y-84601919D01*
X128524989Y-84608222D01*
X128524989Y-84608223D01*
X128593262Y-84709823D01*
X128609108Y-84733405D01*
X128614727Y-84738518D01*
X128614728Y-84738519D01*
X128717798Y-84832305D01*
X128726276Y-84840019D01*
X128865493Y-84915608D01*
X129018722Y-84955807D01*
X129102677Y-84957126D01*
X129169519Y-84958176D01*
X129169522Y-84958176D01*
X129177116Y-84958295D01*
X129331532Y-84922929D01*
X129401942Y-84887517D01*
X129466272Y-84855163D01*
X129466275Y-84855161D01*
X129473055Y-84851751D01*
X129478826Y-84846822D01*
X129478829Y-84846820D01*
X129525494Y-84806964D01*
X139861148Y-84806964D01*
X139874424Y-85009522D01*
X139875845Y-85015118D01*
X139875846Y-85015123D01*
X139919251Y-85186026D01*
X139924392Y-85206269D01*
X139926809Y-85211512D01*
X139964010Y-85292208D01*
X140009377Y-85390616D01*
X140012710Y-85395332D01*
X140120163Y-85547375D01*
X140126533Y-85556389D01*
X140130675Y-85560424D01*
X140187610Y-85615887D01*
X140271938Y-85698035D01*
X140276742Y-85701245D01*
X140315844Y-85727372D01*
X140440720Y-85810812D01*
X140446023Y-85813090D01*
X140446026Y-85813092D01*
X140578230Y-85869891D01*
X140627228Y-85890942D01*
X140700244Y-85907464D01*
X140819579Y-85934467D01*
X140819584Y-85934468D01*
X140825216Y-85935742D01*
X140830987Y-85935969D01*
X140830989Y-85935969D01*
X140890756Y-85938317D01*
X141028053Y-85943712D01*
X141142569Y-85927108D01*
X141223231Y-85915413D01*
X141223236Y-85915412D01*
X141228945Y-85914584D01*
X141234409Y-85912729D01*
X141234414Y-85912728D01*
X141415693Y-85851192D01*
X141415698Y-85851190D01*
X141421165Y-85849334D01*
X141428733Y-85845096D01*
X141523831Y-85791838D01*
X141598276Y-85750147D01*
X141613876Y-85737173D01*
X141749913Y-85624031D01*
X141754345Y-85620345D01*
X141796825Y-85569269D01*
X141880453Y-85468718D01*
X141880455Y-85468715D01*
X141884147Y-85464276D01*
X141929784Y-85382785D01*
X147935840Y-85382785D01*
X147940197Y-85422251D01*
X147948782Y-85500004D01*
X147953224Y-85540242D01*
X147955834Y-85547373D01*
X147955834Y-85547375D01*
X148004718Y-85680957D01*
X148007664Y-85689008D01*
X148011900Y-85695311D01*
X148011900Y-85695312D01*
X148040030Y-85737173D01*
X148096019Y-85820494D01*
X148101638Y-85825607D01*
X148101639Y-85825608D01*
X148199423Y-85914584D01*
X148213187Y-85927108D01*
X148352404Y-86002697D01*
X148505633Y-86042896D01*
X148589588Y-86044215D01*
X148656430Y-86045265D01*
X148656433Y-86045265D01*
X148664027Y-86045384D01*
X148818443Y-86010018D01*
X148930824Y-85953497D01*
X148953183Y-85942252D01*
X148953186Y-85942250D01*
X148959966Y-85938840D01*
X148965737Y-85933911D01*
X148965740Y-85933909D01*
X149069726Y-85845096D01*
X151029829Y-85845096D01*
X151035221Y-85893933D01*
X151045542Y-85987414D01*
X151047213Y-86002553D01*
X151049823Y-86009684D01*
X151049823Y-86009686D01*
X151082727Y-86099600D01*
X151101653Y-86151319D01*
X151105889Y-86157622D01*
X151105889Y-86157623D01*
X151184814Y-86275075D01*
X151190008Y-86282805D01*
X151195627Y-86287918D01*
X151195628Y-86287919D01*
X151266256Y-86352185D01*
X151307176Y-86389419D01*
X151446393Y-86465008D01*
X151545483Y-86491004D01*
X151598550Y-86504926D01*
X151659365Y-86541560D01*
X151690720Y-86605257D01*
X151682661Y-86675795D01*
X151649405Y-86721751D01*
X151585565Y-86777442D01*
X151585561Y-86777446D01*
X151579839Y-86782438D01*
X151488750Y-86912044D01*
X151475356Y-86946399D01*
X151447649Y-87017464D01*
X151431206Y-87059637D01*
X151430214Y-87067170D01*
X151430214Y-87067171D01*
X151414517Y-87186407D01*
X151410529Y-87216696D01*
X151414808Y-87255449D01*
X151425548Y-87352730D01*
X151427913Y-87374153D01*
X151430523Y-87381284D01*
X151430523Y-87381286D01*
X151475805Y-87505025D01*
X151482353Y-87522919D01*
X151486589Y-87529222D01*
X151486589Y-87529223D01*
X151553973Y-87629500D01*
X151570708Y-87654405D01*
X151576327Y-87659518D01*
X151576328Y-87659519D01*
X151663495Y-87738834D01*
X151687876Y-87761019D01*
X151827093Y-87836608D01*
X151980322Y-87876807D01*
X151983310Y-87876854D01*
X152046293Y-87905107D01*
X152085077Y-87964574D01*
X152085554Y-88035569D01*
X152081815Y-88046654D01*
X152048893Y-88131096D01*
X152040806Y-88151837D01*
X152039814Y-88159370D01*
X152039814Y-88159371D01*
X152022875Y-88288039D01*
X152020129Y-88308896D01*
X152025186Y-88354700D01*
X152036214Y-88454584D01*
X152037513Y-88466353D01*
X152040123Y-88473484D01*
X152040123Y-88473486D01*
X152087024Y-88601649D01*
X152091953Y-88615119D01*
X152096189Y-88621422D01*
X152096189Y-88621423D01*
X152173207Y-88736037D01*
X152180308Y-88746605D01*
X152185927Y-88751718D01*
X152185928Y-88751719D01*
X152286888Y-88843585D01*
X152297476Y-88853219D01*
X152436693Y-88928808D01*
X152589922Y-88969007D01*
X152673877Y-88970326D01*
X152740719Y-88971376D01*
X152740722Y-88971376D01*
X152748316Y-88971495D01*
X152902732Y-88936129D01*
X152985465Y-88894519D01*
X153037472Y-88868363D01*
X153037475Y-88868361D01*
X153044255Y-88864951D01*
X153050026Y-88860022D01*
X153050029Y-88860020D01*
X153158936Y-88767004D01*
X153158936Y-88767003D01*
X153164714Y-88762069D01*
X153257155Y-88633424D01*
X153275296Y-88588296D01*
X154407729Y-88588296D01*
X154413280Y-88638573D01*
X154423259Y-88728957D01*
X154425113Y-88745753D01*
X154427723Y-88752884D01*
X154427723Y-88752886D01*
X154468733Y-88864951D01*
X154479553Y-88894519D01*
X154483789Y-88900822D01*
X154483789Y-88900823D01*
X154556425Y-89008916D01*
X154567908Y-89026005D01*
X154573527Y-89031118D01*
X154573528Y-89031119D01*
X154644726Y-89095904D01*
X154685076Y-89132619D01*
X154824293Y-89208208D01*
X154977522Y-89248407D01*
X155061477Y-89249726D01*
X155128319Y-89250776D01*
X155128322Y-89250776D01*
X155135916Y-89250895D01*
X155290332Y-89215529D01*
X155371844Y-89174533D01*
X155425072Y-89147763D01*
X155425075Y-89147761D01*
X155431855Y-89144351D01*
X155437626Y-89139422D01*
X155437629Y-89139420D01*
X155546536Y-89046404D01*
X155546536Y-89046403D01*
X155552314Y-89041469D01*
X155609049Y-88962514D01*
X155665043Y-88918866D01*
X155735747Y-88912420D01*
X155776894Y-88930123D01*
X155777276Y-88929419D01*
X155916493Y-89005008D01*
X156069722Y-89045207D01*
X156153677Y-89046526D01*
X156220519Y-89047576D01*
X156220522Y-89047576D01*
X156228116Y-89047695D01*
X156382532Y-89012329D01*
X156463959Y-88971376D01*
X156517272Y-88944563D01*
X156517275Y-88944561D01*
X156524055Y-88941151D01*
X156529826Y-88936222D01*
X156529829Y-88936220D01*
X156638736Y-88843204D01*
X156638736Y-88843203D01*
X156644514Y-88838269D01*
X156736955Y-88709624D01*
X156796042Y-88562641D01*
X156805883Y-88493495D01*
X156817781Y-88409891D01*
X156817781Y-88409888D01*
X156818362Y-88405807D01*
X156818507Y-88392000D01*
X156813453Y-88350236D01*
X156825126Y-88280206D01*
X156872807Y-88227604D01*
X156940519Y-88209115D01*
X156957118Y-88209376D01*
X156957121Y-88209376D01*
X156964716Y-88209495D01*
X157119132Y-88174129D01*
X157189542Y-88138717D01*
X157253872Y-88106363D01*
X157253875Y-88106361D01*
X157260655Y-88102951D01*
X157266426Y-88098022D01*
X157266429Y-88098020D01*
X157375336Y-88005004D01*
X157375336Y-88005003D01*
X157381114Y-88000069D01*
X157473555Y-87871424D01*
X157532642Y-87724441D01*
X157551391Y-87592700D01*
X157554381Y-87571691D01*
X157554381Y-87571688D01*
X157554962Y-87567607D01*
X157555107Y-87553800D01*
X157553892Y-87543755D01*
X157540167Y-87430344D01*
X157536076Y-87396533D01*
X157480080Y-87248346D01*
X157428887Y-87173859D01*
X157394655Y-87124051D01*
X157394654Y-87124049D01*
X157390353Y-87117792D01*
X157272075Y-87012411D01*
X157264689Y-87008500D01*
X157198221Y-86973307D01*
X157132074Y-86938284D01*
X156978433Y-86899692D01*
X156970834Y-86899652D01*
X156970833Y-86899652D01*
X156904981Y-86899307D01*
X156820021Y-86898862D01*
X156812641Y-86900634D01*
X156812639Y-86900634D01*
X156673363Y-86934071D01*
X156673360Y-86934072D01*
X156665984Y-86935843D01*
X156525214Y-87008500D01*
X156405839Y-87112638D01*
X156314750Y-87242244D01*
X156311990Y-87249324D01*
X156261157Y-87379704D01*
X156257206Y-87389837D01*
X156256214Y-87397370D01*
X156256214Y-87397371D01*
X156238856Y-87529223D01*
X156236529Y-87546896D01*
X156241253Y-87589682D01*
X156242106Y-87597409D01*
X156229700Y-87667313D01*
X156181471Y-87719413D01*
X156116207Y-87737234D01*
X156083421Y-87737062D01*
X156076041Y-87738834D01*
X156076039Y-87738834D01*
X155936763Y-87772271D01*
X155936760Y-87772272D01*
X155929384Y-87774043D01*
X155788614Y-87846700D01*
X155669239Y-87950838D01*
X155664872Y-87957051D01*
X155664867Y-87957057D01*
X155618010Y-88023727D01*
X155562476Y-88067959D01*
X155491844Y-88075144D01*
X155445474Y-88055770D01*
X155443275Y-88053811D01*
X155436561Y-88050256D01*
X155436558Y-88050254D01*
X155309988Y-87983239D01*
X155309989Y-87983239D01*
X155303274Y-87979684D01*
X155149633Y-87941092D01*
X155142034Y-87941052D01*
X155142033Y-87941052D01*
X155076181Y-87940707D01*
X154991221Y-87940262D01*
X154983841Y-87942034D01*
X154983839Y-87942034D01*
X154844563Y-87975471D01*
X154844560Y-87975472D01*
X154837184Y-87977243D01*
X154696414Y-88049900D01*
X154577039Y-88154038D01*
X154485950Y-88283644D01*
X154479041Y-88301365D01*
X154438321Y-88405807D01*
X154428406Y-88431237D01*
X154427414Y-88438770D01*
X154427414Y-88438771D01*
X154410178Y-88569695D01*
X154407729Y-88588296D01*
X153275296Y-88588296D01*
X153316242Y-88486441D01*
X153329094Y-88396134D01*
X153337981Y-88333691D01*
X153337981Y-88333688D01*
X153338562Y-88329607D01*
X153338707Y-88315800D01*
X153319676Y-88158533D01*
X153263680Y-88010346D01*
X153227056Y-87957057D01*
X153178255Y-87886051D01*
X153178254Y-87886049D01*
X153173953Y-87879792D01*
X153055675Y-87774411D01*
X152915674Y-87700284D01*
X152762033Y-87661692D01*
X152762291Y-87660665D01*
X152703605Y-87635070D01*
X152664202Y-87576011D01*
X152662985Y-87505025D01*
X152667565Y-87491449D01*
X152703806Y-87401298D01*
X152703808Y-87401291D01*
X152706642Y-87394241D01*
X152714186Y-87341229D01*
X152728381Y-87241491D01*
X152728381Y-87241488D01*
X152728962Y-87237407D01*
X152729107Y-87223600D01*
X152710076Y-87066333D01*
X152654080Y-86918146D01*
X152564353Y-86787592D01*
X152541614Y-86767332D01*
X152451746Y-86687264D01*
X152446075Y-86682211D01*
X152438689Y-86678300D01*
X152312788Y-86611639D01*
X152312789Y-86611639D01*
X152306074Y-86608084D01*
X152298711Y-86606235D01*
X152298707Y-86606233D01*
X152160793Y-86571592D01*
X152099597Y-86535597D01*
X152067576Y-86472232D01*
X152074896Y-86401614D01*
X152109657Y-86353577D01*
X152168636Y-86303204D01*
X152168636Y-86303203D01*
X152174414Y-86298269D01*
X152266855Y-86169624D01*
X152325942Y-86022641D01*
X152341566Y-85912859D01*
X152347681Y-85869891D01*
X152347681Y-85869888D01*
X152348262Y-85865807D01*
X152348407Y-85852000D01*
X152346751Y-85838311D01*
X152338350Y-85768898D01*
X155296729Y-85768898D01*
X155302990Y-85825608D01*
X155312609Y-85912728D01*
X155314113Y-85926355D01*
X155316723Y-85933486D01*
X155316723Y-85933488D01*
X155362330Y-86058115D01*
X155368553Y-86075121D01*
X155456908Y-86206607D01*
X155462527Y-86211720D01*
X155462528Y-86211721D01*
X155532154Y-86275075D01*
X155574076Y-86313221D01*
X155713293Y-86388810D01*
X155866522Y-86429009D01*
X155950477Y-86430328D01*
X156017319Y-86431378D01*
X156017322Y-86431378D01*
X156024916Y-86431497D01*
X156179332Y-86396131D01*
X156292878Y-86339024D01*
X156314072Y-86328365D01*
X156314075Y-86328363D01*
X156320855Y-86324953D01*
X156326626Y-86320024D01*
X156326629Y-86320022D01*
X156435536Y-86227006D01*
X156435536Y-86227005D01*
X156441314Y-86222071D01*
X156533755Y-86093426D01*
X156592842Y-85946443D01*
X156604905Y-85861682D01*
X156614581Y-85793693D01*
X156614581Y-85793690D01*
X156615162Y-85789609D01*
X156615307Y-85775802D01*
X156612203Y-85750147D01*
X156606285Y-85701245D01*
X156596276Y-85618535D01*
X156540280Y-85470348D01*
X156483867Y-85388266D01*
X156454855Y-85346053D01*
X156454854Y-85346051D01*
X156450553Y-85339794D01*
X156332275Y-85234413D01*
X156324889Y-85230502D01*
X156261807Y-85197102D01*
X156192274Y-85160286D01*
X156038633Y-85121694D01*
X156031034Y-85121654D01*
X156031033Y-85121654D01*
X155965181Y-85121309D01*
X155880221Y-85120864D01*
X155872841Y-85122636D01*
X155872839Y-85122636D01*
X155733563Y-85156073D01*
X155733560Y-85156074D01*
X155726184Y-85157845D01*
X155585414Y-85230502D01*
X155466039Y-85334640D01*
X155374950Y-85464246D01*
X155348264Y-85532692D01*
X155326004Y-85589787D01*
X155317406Y-85611839D01*
X155316414Y-85619372D01*
X155316414Y-85619373D01*
X155298826Y-85752972D01*
X155296729Y-85768898D01*
X152338350Y-85768898D01*
X152337439Y-85761367D01*
X152329376Y-85694733D01*
X152273380Y-85546546D01*
X152229097Y-85482113D01*
X152187955Y-85422251D01*
X152187954Y-85422249D01*
X152183653Y-85415992D01*
X152065375Y-85310611D01*
X152057989Y-85306700D01*
X151932088Y-85240039D01*
X151932089Y-85240039D01*
X151925374Y-85236484D01*
X151771733Y-85197892D01*
X151764134Y-85197852D01*
X151764133Y-85197852D01*
X151698281Y-85197507D01*
X151613321Y-85197062D01*
X151605941Y-85198834D01*
X151605939Y-85198834D01*
X151466663Y-85232271D01*
X151466660Y-85232272D01*
X151459284Y-85234043D01*
X151318514Y-85306700D01*
X151199139Y-85410838D01*
X151108050Y-85540444D01*
X151088812Y-85589787D01*
X151058156Y-85668417D01*
X151050506Y-85688037D01*
X151049514Y-85695570D01*
X151049514Y-85695571D01*
X151031845Y-85829784D01*
X151029829Y-85845096D01*
X149069726Y-85845096D01*
X149074647Y-85840893D01*
X149074647Y-85840892D01*
X149080425Y-85835958D01*
X149172866Y-85707313D01*
X149231953Y-85560330D01*
X149240898Y-85497478D01*
X149253692Y-85407580D01*
X149253692Y-85407577D01*
X149254273Y-85403496D01*
X149254418Y-85389689D01*
X149253896Y-85385371D01*
X149241349Y-85281693D01*
X149235387Y-85232422D01*
X149179391Y-85084235D01*
X149161497Y-85058199D01*
X149093966Y-84959940D01*
X149093965Y-84959938D01*
X149089664Y-84953681D01*
X149070391Y-84936509D01*
X149022738Y-84894053D01*
X148971386Y-84848300D01*
X148964000Y-84844389D01*
X148838099Y-84777728D01*
X148838100Y-84777728D01*
X148831385Y-84774173D01*
X148677744Y-84735581D01*
X148670145Y-84735541D01*
X148670144Y-84735541D01*
X148604292Y-84735196D01*
X148519332Y-84734751D01*
X148511952Y-84736523D01*
X148511950Y-84736523D01*
X148372674Y-84769960D01*
X148372671Y-84769961D01*
X148365295Y-84771732D01*
X148224525Y-84844389D01*
X148105150Y-84948527D01*
X148014061Y-85078133D01*
X148006036Y-85098716D01*
X147962059Y-85211512D01*
X147956517Y-85225726D01*
X147955525Y-85233259D01*
X147955525Y-85233260D01*
X147940676Y-85346053D01*
X147935840Y-85382785D01*
X141929784Y-85382785D01*
X141972394Y-85306700D01*
X141980510Y-85292208D01*
X141980511Y-85292206D01*
X141983334Y-85287165D01*
X141985190Y-85281698D01*
X141985192Y-85281693D01*
X142046728Y-85100414D01*
X142046729Y-85100409D01*
X142048584Y-85094945D01*
X142049412Y-85089236D01*
X142049413Y-85089231D01*
X142069066Y-84953681D01*
X142077712Y-84894053D01*
X142079232Y-84836000D01*
X142066403Y-84696385D01*
X142061187Y-84639613D01*
X142061186Y-84639610D01*
X142060658Y-84633859D01*
X142054823Y-84613171D01*
X142007125Y-84444046D01*
X142007124Y-84444044D01*
X142005557Y-84438487D01*
X141998446Y-84424066D01*
X141918331Y-84261609D01*
X141915776Y-84256428D01*
X141909312Y-84247771D01*
X141880389Y-84209039D01*
X141794320Y-84093779D01*
X141645258Y-83955987D01*
X141640375Y-83952906D01*
X141640371Y-83952903D01*
X141478464Y-83850748D01*
X141473581Y-83847667D01*
X141285039Y-83772446D01*
X141279379Y-83771320D01*
X141279375Y-83771319D01*
X141091613Y-83733971D01*
X141091610Y-83733971D01*
X141085946Y-83732844D01*
X141080171Y-83732768D01*
X141080167Y-83732768D01*
X140978793Y-83731441D01*
X140882971Y-83730187D01*
X140877274Y-83731166D01*
X140877273Y-83731166D01*
X140688607Y-83763585D01*
X140682910Y-83764564D01*
X140492463Y-83834824D01*
X140318010Y-83938612D01*
X140313670Y-83942418D01*
X140313666Y-83942421D01*
X140209241Y-84034000D01*
X140165392Y-84072455D01*
X140161817Y-84076990D01*
X140161816Y-84076991D01*
X140151675Y-84089855D01*
X140039720Y-84231869D01*
X140037031Y-84236980D01*
X140037029Y-84236983D01*
X140024073Y-84261609D01*
X139945203Y-84411515D01*
X139885007Y-84605378D01*
X139861148Y-84806964D01*
X129525494Y-84806964D01*
X129587736Y-84753804D01*
X129587736Y-84753803D01*
X129593514Y-84748869D01*
X129685955Y-84620224D01*
X129745042Y-84473241D01*
X129767362Y-84316407D01*
X129767507Y-84302600D01*
X129748476Y-84145333D01*
X129692480Y-83997146D01*
X129654700Y-83942176D01*
X129607055Y-83872851D01*
X129607054Y-83872849D01*
X129602753Y-83866592D01*
X129484475Y-83761211D01*
X129477089Y-83757300D01*
X129351188Y-83690639D01*
X129351189Y-83690639D01*
X129344474Y-83687084D01*
X129190833Y-83648492D01*
X129183234Y-83648452D01*
X129183233Y-83648452D01*
X129117381Y-83648107D01*
X129032421Y-83647662D01*
X129025041Y-83649434D01*
X129025039Y-83649434D01*
X128885763Y-83682871D01*
X128885760Y-83682872D01*
X128878384Y-83684643D01*
X128737614Y-83757300D01*
X128618239Y-83861438D01*
X128527150Y-83991044D01*
X128524390Y-83998124D01*
X128484778Y-84099724D01*
X128469606Y-84138637D01*
X128468614Y-84146170D01*
X128468614Y-84146171D01*
X128453417Y-84261609D01*
X128448929Y-84295696D01*
X123785377Y-84295696D01*
X123779476Y-84246933D01*
X123723480Y-84098746D01*
X123699315Y-84063586D01*
X123638055Y-83974451D01*
X123638054Y-83974449D01*
X123633753Y-83968192D01*
X123515475Y-83862811D01*
X123508089Y-83858900D01*
X123382188Y-83792239D01*
X123382189Y-83792239D01*
X123375474Y-83788684D01*
X123221833Y-83750092D01*
X123214234Y-83750052D01*
X123214233Y-83750052D01*
X123148381Y-83749707D01*
X123063421Y-83749262D01*
X123056041Y-83751034D01*
X123056039Y-83751034D01*
X122916763Y-83784471D01*
X122916760Y-83784472D01*
X122909384Y-83786243D01*
X122768614Y-83858900D01*
X122649239Y-83963038D01*
X122558150Y-84092644D01*
X122537281Y-84146171D01*
X122503869Y-84231869D01*
X122500606Y-84240237D01*
X122499614Y-84247770D01*
X122499614Y-84247771D01*
X122483462Y-84370462D01*
X122479929Y-84397296D01*
X119254000Y-84397296D01*
X119254000Y-81500997D01*
X122195500Y-81500997D01*
X122210942Y-81653024D01*
X122271967Y-81847755D01*
X122370902Y-82026238D01*
X122503705Y-82181182D01*
X122664951Y-82306257D01*
X122670673Y-82309072D01*
X122670672Y-82309072D01*
X122842332Y-82393540D01*
X122842337Y-82393542D01*
X122848054Y-82396355D01*
X122854227Y-82397963D01*
X122854230Y-82397964D01*
X122908381Y-82412069D01*
X123045533Y-82447794D01*
X123147428Y-82453134D01*
X123242942Y-82458141D01*
X123242946Y-82458141D01*
X123249323Y-82458475D01*
X123451097Y-82427959D01*
X123642615Y-82357494D01*
X123816051Y-82249959D01*
X123964323Y-82109746D01*
X123979341Y-82088299D01*
X124077708Y-81947815D01*
X124077709Y-81947814D01*
X124081372Y-81942582D01*
X124162418Y-81755297D01*
X124204149Y-81555540D01*
X124204500Y-81548842D01*
X124204500Y-81239564D01*
X126341051Y-81239564D01*
X126367954Y-81461880D01*
X126433800Y-81675917D01*
X126436370Y-81680897D01*
X126436372Y-81680901D01*
X126481716Y-81768753D01*
X126536509Y-81874912D01*
X126672833Y-82052573D01*
X126676979Y-82056346D01*
X126676984Y-82056351D01*
X126735665Y-82109746D01*
X126838464Y-82203286D01*
X127028167Y-82322286D01*
X127033376Y-82324380D01*
X127033378Y-82324381D01*
X127074232Y-82340804D01*
X127235944Y-82405812D01*
X127241436Y-82406949D01*
X127241438Y-82406950D01*
X127347498Y-82428914D01*
X127455228Y-82451224D01*
X127459839Y-82451490D01*
X127459840Y-82451490D01*
X127510225Y-82454395D01*
X127510229Y-82454395D01*
X127512048Y-82454500D01*
X127656819Y-82454500D01*
X127659606Y-82454251D01*
X127659612Y-82454251D01*
X127731957Y-82447794D01*
X127823051Y-82439664D01*
X128039051Y-82380573D01*
X128044109Y-82378161D01*
X128044113Y-82378159D01*
X128236107Y-82286583D01*
X128236109Y-82286582D01*
X128241174Y-82284166D01*
X128265113Y-82266964D01*
X139861148Y-82266964D01*
X139874424Y-82469522D01*
X139875845Y-82475118D01*
X139875846Y-82475123D01*
X139904641Y-82588500D01*
X139924392Y-82666269D01*
X139926809Y-82671512D01*
X139963114Y-82750264D01*
X140009377Y-82850616D01*
X140018849Y-82864018D01*
X140110121Y-82993166D01*
X140126533Y-83016389D01*
X140271938Y-83158035D01*
X140440720Y-83270812D01*
X140446023Y-83273090D01*
X140446026Y-83273092D01*
X140534707Y-83311192D01*
X140627228Y-83350942D01*
X140700244Y-83367464D01*
X140819579Y-83394467D01*
X140819584Y-83394468D01*
X140825216Y-83395742D01*
X140830987Y-83395969D01*
X140830989Y-83395969D01*
X140890756Y-83398317D01*
X141028053Y-83403712D01*
X141128499Y-83389148D01*
X141223231Y-83375413D01*
X141223236Y-83375412D01*
X141228945Y-83374584D01*
X141234409Y-83372729D01*
X141234414Y-83372728D01*
X141415693Y-83311192D01*
X141415698Y-83311190D01*
X141421165Y-83309334D01*
X141437106Y-83300407D01*
X141474088Y-83279696D01*
X153874329Y-83279696D01*
X153891713Y-83437153D01*
X153946153Y-83585919D01*
X153950389Y-83592222D01*
X153950389Y-83592223D01*
X153987643Y-83647662D01*
X154034508Y-83717405D01*
X154040127Y-83722518D01*
X154040128Y-83722519D01*
X154097349Y-83774586D01*
X154151676Y-83824019D01*
X154290893Y-83899608D01*
X154444122Y-83939807D01*
X154528077Y-83941126D01*
X154594919Y-83942176D01*
X154594922Y-83942176D01*
X154602516Y-83942295D01*
X154756932Y-83906929D01*
X154837134Y-83866592D01*
X154891672Y-83839163D01*
X154891675Y-83839161D01*
X154898455Y-83835751D01*
X154904226Y-83830822D01*
X154904229Y-83830820D01*
X155013136Y-83737804D01*
X155013136Y-83737803D01*
X155018914Y-83732869D01*
X155111355Y-83604224D01*
X155170442Y-83457241D01*
X155179376Y-83394467D01*
X155192181Y-83304491D01*
X155192181Y-83304488D01*
X155192762Y-83300407D01*
X155192907Y-83286600D01*
X155190997Y-83270812D01*
X155183208Y-83206453D01*
X155173876Y-83129333D01*
X155117880Y-82981146D01*
X155081847Y-82928718D01*
X155032455Y-82856851D01*
X155032454Y-82856849D01*
X155028153Y-82850592D01*
X154909875Y-82745211D01*
X154902489Y-82741300D01*
X154776588Y-82674639D01*
X154776589Y-82674639D01*
X154769874Y-82671084D01*
X154616233Y-82632492D01*
X154608634Y-82632452D01*
X154608633Y-82632452D01*
X154542781Y-82632107D01*
X154457821Y-82631662D01*
X154450441Y-82633434D01*
X154450439Y-82633434D01*
X154311163Y-82666871D01*
X154311160Y-82666872D01*
X154303784Y-82668643D01*
X154163014Y-82741300D01*
X154043639Y-82845438D01*
X153952550Y-82975044D01*
X153895006Y-83122637D01*
X153894014Y-83130170D01*
X153894014Y-83130171D01*
X153875499Y-83270812D01*
X153874329Y-83279696D01*
X141474088Y-83279696D01*
X141495683Y-83267602D01*
X141598276Y-83210147D01*
X141660934Y-83158035D01*
X141749913Y-83084031D01*
X141754345Y-83080345D01*
X141824461Y-82996040D01*
X141880453Y-82928718D01*
X141880455Y-82928715D01*
X141884147Y-82924276D01*
X141948566Y-82809247D01*
X141980510Y-82752208D01*
X141980511Y-82752206D01*
X141983334Y-82747165D01*
X141985190Y-82741698D01*
X141985192Y-82741693D01*
X142046728Y-82560414D01*
X142046729Y-82560409D01*
X142048584Y-82554945D01*
X142049412Y-82549236D01*
X142049413Y-82549231D01*
X142077179Y-82357727D01*
X142077712Y-82354053D01*
X142079232Y-82296000D01*
X142060658Y-82093859D01*
X142059090Y-82088299D01*
X142007125Y-81904046D01*
X142007124Y-81904044D01*
X142005557Y-81898487D01*
X142001175Y-81889600D01*
X141997770Y-81882696D01*
X149480129Y-81882696D01*
X149488542Y-81958896D01*
X149495977Y-82026238D01*
X149497513Y-82040153D01*
X149500123Y-82047284D01*
X149500123Y-82047286D01*
X149549122Y-82181182D01*
X149551953Y-82188919D01*
X149556189Y-82195222D01*
X149556189Y-82195223D01*
X149632693Y-82309072D01*
X149640308Y-82320405D01*
X149645927Y-82325518D01*
X149645928Y-82325519D01*
X149735420Y-82406950D01*
X149757476Y-82427019D01*
X149896693Y-82502608D01*
X150049922Y-82542807D01*
X150133877Y-82544126D01*
X150200719Y-82545176D01*
X150200722Y-82545176D01*
X150208316Y-82545295D01*
X150362732Y-82509929D01*
X150466939Y-82457519D01*
X150497472Y-82442163D01*
X150497475Y-82442161D01*
X150504255Y-82438751D01*
X150510026Y-82433822D01*
X150510029Y-82433820D01*
X150618936Y-82340804D01*
X150618936Y-82340803D01*
X150624714Y-82335869D01*
X150717155Y-82207224D01*
X150776242Y-82060241D01*
X150787718Y-81979607D01*
X150797981Y-81907491D01*
X150797981Y-81907488D01*
X150798562Y-81903407D01*
X150798707Y-81889600D01*
X150779676Y-81732333D01*
X150723680Y-81584146D01*
X150686324Y-81529792D01*
X150638255Y-81459851D01*
X150638254Y-81459849D01*
X150633953Y-81453592D01*
X150515675Y-81348211D01*
X150508289Y-81344300D01*
X150382388Y-81277639D01*
X150382389Y-81277639D01*
X150375674Y-81274084D01*
X150222033Y-81235492D01*
X150214434Y-81235452D01*
X150214433Y-81235452D01*
X150148581Y-81235107D01*
X150063621Y-81234662D01*
X150056241Y-81236434D01*
X150056239Y-81236434D01*
X149916963Y-81269871D01*
X149916960Y-81269872D01*
X149909584Y-81271643D01*
X149768814Y-81344300D01*
X149649439Y-81448438D01*
X149558350Y-81578044D01*
X149549107Y-81601752D01*
X149511978Y-81696983D01*
X149500806Y-81725637D01*
X149499814Y-81733170D01*
X149499814Y-81733171D01*
X149481154Y-81874912D01*
X149480129Y-81882696D01*
X141997770Y-81882696D01*
X141918331Y-81721609D01*
X141915776Y-81716428D01*
X141794320Y-81553779D01*
X141645258Y-81415987D01*
X141640375Y-81412906D01*
X141640371Y-81412903D01*
X141478464Y-81310748D01*
X141473581Y-81307667D01*
X141285039Y-81232446D01*
X141279379Y-81231320D01*
X141279375Y-81231319D01*
X141091613Y-81193971D01*
X141091610Y-81193971D01*
X141085946Y-81192844D01*
X141080171Y-81192768D01*
X141080167Y-81192768D01*
X140978793Y-81191441D01*
X140882971Y-81190187D01*
X140877274Y-81191166D01*
X140877273Y-81191166D01*
X140688607Y-81223585D01*
X140682910Y-81224564D01*
X140492463Y-81294824D01*
X140318010Y-81398612D01*
X140313670Y-81402418D01*
X140313666Y-81402421D01*
X140169733Y-81528648D01*
X140165392Y-81532455D01*
X140161817Y-81536990D01*
X140161816Y-81536991D01*
X140151675Y-81549855D01*
X140039720Y-81691869D01*
X140037031Y-81696980D01*
X140037029Y-81696983D01*
X139999269Y-81768753D01*
X139945203Y-81871515D01*
X139885007Y-82065378D01*
X139861148Y-82266964D01*
X128265113Y-82266964D01*
X128349578Y-82206270D01*
X128418470Y-82156766D01*
X128418472Y-82156764D01*
X128423030Y-82153489D01*
X128578871Y-81992674D01*
X128638426Y-81904046D01*
X128700641Y-81811460D01*
X128700643Y-81811457D01*
X128703770Y-81806803D01*
X128793782Y-81601752D01*
X128828700Y-81456308D01*
X128844749Y-81389459D01*
X128844749Y-81389458D01*
X128846059Y-81384002D01*
X128852337Y-81275124D01*
X128858626Y-81166043D01*
X128858626Y-81166040D01*
X128858949Y-81160436D01*
X128832046Y-80938120D01*
X128766200Y-80724083D01*
X128753677Y-80699819D01*
X128666063Y-80530071D01*
X128666063Y-80530070D01*
X128663491Y-80525088D01*
X128527167Y-80347427D01*
X128523021Y-80343654D01*
X128523016Y-80343649D01*
X128365689Y-80200493D01*
X128361536Y-80196714D01*
X128171833Y-80077714D01*
X127964056Y-79994188D01*
X127958564Y-79993051D01*
X127958562Y-79993050D01*
X127807754Y-79961819D01*
X127744772Y-79948776D01*
X127740161Y-79948510D01*
X127740160Y-79948510D01*
X127689775Y-79945605D01*
X127689771Y-79945605D01*
X127687952Y-79945500D01*
X127543181Y-79945500D01*
X127540394Y-79945749D01*
X127540388Y-79945749D01*
X127471785Y-79951872D01*
X127376949Y-79960336D01*
X127160949Y-80019427D01*
X127155891Y-80021839D01*
X127155887Y-80021841D01*
X126981867Y-80104844D01*
X126958826Y-80115834D01*
X126954265Y-80119111D01*
X126954264Y-80119112D01*
X126808764Y-80223665D01*
X126776970Y-80246511D01*
X126621129Y-80407326D01*
X126618001Y-80411981D01*
X126500367Y-80587041D01*
X126496230Y-80593197D01*
X126406218Y-80798248D01*
X126353941Y-81015998D01*
X126353618Y-81021603D01*
X126343894Y-81190263D01*
X126341051Y-81239564D01*
X124204500Y-81239564D01*
X124204500Y-80899003D01*
X124198960Y-80844460D01*
X124189703Y-80753324D01*
X124189703Y-80753322D01*
X124189058Y-80746976D01*
X124128033Y-80552245D01*
X124029098Y-80373762D01*
X123896295Y-80218818D01*
X123735049Y-80093743D01*
X123626439Y-80040300D01*
X123557668Y-80006460D01*
X123557663Y-80006458D01*
X123551946Y-80003645D01*
X123545773Y-80002037D01*
X123545770Y-80002036D01*
X123391372Y-79961819D01*
X123354467Y-79952206D01*
X123252572Y-79946866D01*
X123157058Y-79941859D01*
X123157054Y-79941859D01*
X123150677Y-79941525D01*
X122948903Y-79972041D01*
X122757385Y-80042506D01*
X122583949Y-80150041D01*
X122435677Y-80290254D01*
X122432015Y-80295484D01*
X122432014Y-80295485D01*
X122322292Y-80452185D01*
X122318628Y-80457418D01*
X122237582Y-80644703D01*
X122195851Y-80844460D01*
X122195500Y-80851158D01*
X122195500Y-81500997D01*
X119254000Y-81500997D01*
X119254000Y-78624933D01*
X135195500Y-78624933D01*
X135195501Y-80375066D01*
X135210266Y-80449301D01*
X135217161Y-80459620D01*
X135217162Y-80459622D01*
X135231062Y-80480424D01*
X135266516Y-80533484D01*
X135350699Y-80589734D01*
X135424933Y-80604500D01*
X136299858Y-80604500D01*
X137175066Y-80604499D01*
X137210818Y-80597388D01*
X137237126Y-80592156D01*
X137237128Y-80592155D01*
X137249301Y-80589734D01*
X137259621Y-80582839D01*
X137259622Y-80582838D01*
X137323168Y-80540377D01*
X137333484Y-80533484D01*
X137389734Y-80449301D01*
X137404500Y-80375067D01*
X137404500Y-79726964D01*
X139861148Y-79726964D01*
X139874424Y-79929522D01*
X139875845Y-79935118D01*
X139875846Y-79935123D01*
X139903974Y-80045874D01*
X139924392Y-80126269D01*
X139926809Y-80131512D01*
X140006959Y-80305371D01*
X140009377Y-80310616D01*
X140012710Y-80315332D01*
X140113126Y-80457418D01*
X140126533Y-80476389D01*
X140271938Y-80618035D01*
X140440720Y-80730812D01*
X140446023Y-80733090D01*
X140446026Y-80733092D01*
X140597682Y-80798248D01*
X140627228Y-80810942D01*
X140700244Y-80827464D01*
X140819579Y-80854467D01*
X140819584Y-80854468D01*
X140825216Y-80855742D01*
X140830987Y-80855969D01*
X140830989Y-80855969D01*
X140890756Y-80858317D01*
X141028053Y-80863712D01*
X141141900Y-80847205D01*
X141223231Y-80835413D01*
X141223236Y-80835412D01*
X141228945Y-80834584D01*
X141234409Y-80832729D01*
X141234414Y-80832728D01*
X141415693Y-80771192D01*
X141415698Y-80771190D01*
X141421165Y-80769334D01*
X141484216Y-80734024D01*
X141529017Y-80708934D01*
X141598276Y-80670147D01*
X141640898Y-80634699D01*
X141749913Y-80544031D01*
X141754345Y-80540345D01*
X141823315Y-80457418D01*
X141880453Y-80388718D01*
X141880455Y-80388715D01*
X141884147Y-80384276D01*
X141943845Y-80277677D01*
X141980510Y-80212208D01*
X141980511Y-80212206D01*
X141983334Y-80207165D01*
X141985190Y-80201698D01*
X141985192Y-80201693D01*
X142046728Y-80020414D01*
X142046729Y-80020409D01*
X142048584Y-80014945D01*
X142049412Y-80009236D01*
X142049413Y-80009231D01*
X142066991Y-79887996D01*
X142077712Y-79814053D01*
X142079232Y-79756000D01*
X142065833Y-79610175D01*
X142061187Y-79559613D01*
X142061186Y-79559610D01*
X142060658Y-79553859D01*
X142057899Y-79544075D01*
X142007125Y-79364046D01*
X142007124Y-79364044D01*
X142005557Y-79358487D01*
X141994978Y-79337033D01*
X141918331Y-79181609D01*
X141915776Y-79176428D01*
X141794320Y-79013779D01*
X141645258Y-78875987D01*
X141640375Y-78872906D01*
X141640371Y-78872903D01*
X141478464Y-78770748D01*
X141473581Y-78767667D01*
X141285039Y-78692446D01*
X141279379Y-78691320D01*
X141279375Y-78691319D01*
X141091613Y-78653971D01*
X141091610Y-78653971D01*
X141085946Y-78652844D01*
X141080171Y-78652768D01*
X141080167Y-78652768D01*
X140978793Y-78651441D01*
X140882971Y-78650187D01*
X140877274Y-78651166D01*
X140877273Y-78651166D01*
X140688607Y-78683585D01*
X140682910Y-78684564D01*
X140492463Y-78754824D01*
X140318010Y-78858612D01*
X140313670Y-78862418D01*
X140313666Y-78862421D01*
X140171702Y-78986921D01*
X140165392Y-78992455D01*
X140039720Y-79151869D01*
X140037031Y-79156980D01*
X140037029Y-79156983D01*
X140024073Y-79181609D01*
X139945203Y-79331515D01*
X139885007Y-79525378D01*
X139861148Y-79726964D01*
X137404500Y-79726964D01*
X137404499Y-78624934D01*
X137397388Y-78589182D01*
X137392156Y-78562874D01*
X137392155Y-78562872D01*
X137389734Y-78550699D01*
X137333484Y-78466516D01*
X137249301Y-78410266D01*
X137175067Y-78395500D01*
X136300142Y-78395500D01*
X135424934Y-78395501D01*
X135389182Y-78402612D01*
X135362874Y-78407844D01*
X135362872Y-78407845D01*
X135350699Y-78410266D01*
X135340379Y-78417161D01*
X135340378Y-78417162D01*
X135279985Y-78457516D01*
X135266516Y-78466516D01*
X135210266Y-78550699D01*
X135195500Y-78624933D01*
X119254000Y-78624933D01*
X119254000Y-76930964D01*
X135191148Y-76930964D01*
X135204424Y-77133522D01*
X135205845Y-77139118D01*
X135205846Y-77139123D01*
X135226119Y-77218945D01*
X135254392Y-77330269D01*
X135256809Y-77335512D01*
X135294010Y-77416208D01*
X135339377Y-77514616D01*
X135342710Y-77519332D01*
X135434075Y-77648611D01*
X135456533Y-77680389D01*
X135601938Y-77822035D01*
X135770720Y-77934812D01*
X135776023Y-77937090D01*
X135776026Y-77937092D01*
X135864707Y-77975192D01*
X135957228Y-78014942D01*
X136030244Y-78031464D01*
X136149579Y-78058467D01*
X136149584Y-78058468D01*
X136155216Y-78059742D01*
X136160987Y-78059969D01*
X136160989Y-78059969D01*
X136220756Y-78062317D01*
X136358053Y-78067712D01*
X136458499Y-78053148D01*
X136553231Y-78039413D01*
X136553236Y-78039412D01*
X136558945Y-78038584D01*
X136564409Y-78036729D01*
X136564414Y-78036728D01*
X136745693Y-77975192D01*
X136745698Y-77975190D01*
X136751165Y-77973334D01*
X136759976Y-77968400D01*
X136862843Y-77910791D01*
X136928276Y-77874147D01*
X136990934Y-77822035D01*
X137079913Y-77748031D01*
X137084345Y-77744345D01*
X137214147Y-77588276D01*
X137313334Y-77411165D01*
X137315190Y-77405698D01*
X137315192Y-77405693D01*
X137376728Y-77224414D01*
X137376729Y-77224409D01*
X137378584Y-77218945D01*
X137379412Y-77213236D01*
X137379413Y-77213231D01*
X137407179Y-77021727D01*
X137407712Y-77018053D01*
X137409232Y-76960000D01*
X137390658Y-76757859D01*
X137389090Y-76752299D01*
X137337125Y-76568046D01*
X137337124Y-76568044D01*
X137335557Y-76562487D01*
X137324978Y-76541033D01*
X137248331Y-76385609D01*
X137245776Y-76380428D01*
X137216284Y-76340933D01*
X139865500Y-76340933D01*
X139865501Y-78091066D01*
X139872612Y-78126818D01*
X139874802Y-78137827D01*
X139880266Y-78165301D01*
X139936516Y-78249484D01*
X140020699Y-78305734D01*
X140094933Y-78320500D01*
X140969858Y-78320500D01*
X141845066Y-78320499D01*
X141880818Y-78313388D01*
X141907126Y-78308156D01*
X141907128Y-78308155D01*
X141919301Y-78305734D01*
X141929621Y-78298839D01*
X141929622Y-78298838D01*
X141993168Y-78256377D01*
X142003484Y-78249484D01*
X142059734Y-78165301D01*
X142074500Y-78091067D01*
X142074499Y-76340934D01*
X142059734Y-76266699D01*
X142003484Y-76182516D01*
X141919301Y-76126266D01*
X141845067Y-76111500D01*
X140970142Y-76111500D01*
X140094934Y-76111501D01*
X140059182Y-76118612D01*
X140032874Y-76123844D01*
X140032872Y-76123845D01*
X140020699Y-76126266D01*
X140010379Y-76133161D01*
X140010378Y-76133162D01*
X139949985Y-76173516D01*
X139936516Y-76182516D01*
X139880266Y-76266699D01*
X139865500Y-76340933D01*
X137216284Y-76340933D01*
X137124320Y-76217779D01*
X136975258Y-76079987D01*
X136970375Y-76076906D01*
X136970371Y-76076903D01*
X136808464Y-75974748D01*
X136803581Y-75971667D01*
X136615039Y-75896446D01*
X136609379Y-75895320D01*
X136609375Y-75895319D01*
X136421613Y-75857971D01*
X136421610Y-75857971D01*
X136415946Y-75856844D01*
X136410171Y-75856768D01*
X136410167Y-75856768D01*
X136308793Y-75855441D01*
X136212971Y-75854187D01*
X136207274Y-75855166D01*
X136207273Y-75855166D01*
X136018607Y-75887585D01*
X136012910Y-75888564D01*
X135822463Y-75958824D01*
X135648010Y-76062612D01*
X135643670Y-76066418D01*
X135643666Y-76066421D01*
X135519146Y-76175623D01*
X135495392Y-76196455D01*
X135369720Y-76355869D01*
X135367031Y-76360980D01*
X135367029Y-76360983D01*
X135354073Y-76385609D01*
X135275203Y-76535515D01*
X135215007Y-76729378D01*
X135191148Y-76930964D01*
X119254000Y-76930964D01*
X119254000Y-74390964D01*
X135191148Y-74390964D01*
X135204424Y-74593522D01*
X135205845Y-74599118D01*
X135205846Y-74599123D01*
X135226119Y-74678945D01*
X135254392Y-74790269D01*
X135256809Y-74795512D01*
X135294010Y-74876208D01*
X135339377Y-74974616D01*
X135456533Y-75140389D01*
X135601938Y-75282035D01*
X135770720Y-75394812D01*
X135776023Y-75397090D01*
X135776026Y-75397092D01*
X135864707Y-75435192D01*
X135957228Y-75474942D01*
X136030244Y-75491464D01*
X136149579Y-75518467D01*
X136149584Y-75518468D01*
X136155216Y-75519742D01*
X136160987Y-75519969D01*
X136160989Y-75519969D01*
X136220756Y-75522317D01*
X136358053Y-75527712D01*
X136458499Y-75513148D01*
X136553231Y-75499413D01*
X136553236Y-75499412D01*
X136558945Y-75498584D01*
X136564409Y-75496729D01*
X136564414Y-75496728D01*
X136745693Y-75435192D01*
X136745698Y-75435190D01*
X136751165Y-75433334D01*
X136795326Y-75408603D01*
X136825683Y-75391602D01*
X136928276Y-75334147D01*
X136990934Y-75282035D01*
X137079913Y-75208031D01*
X137084345Y-75204345D01*
X137214147Y-75048276D01*
X137313334Y-74871165D01*
X137315190Y-74865698D01*
X137315192Y-74865693D01*
X137376728Y-74684414D01*
X137376729Y-74684409D01*
X137378584Y-74678945D01*
X137379412Y-74673236D01*
X137379413Y-74673231D01*
X137407179Y-74481727D01*
X137407712Y-74478053D01*
X137409232Y-74420000D01*
X137390658Y-74217859D01*
X137389090Y-74212299D01*
X137337125Y-74028046D01*
X137337124Y-74028044D01*
X137335557Y-74022487D01*
X137324978Y-74001033D01*
X137248331Y-73845609D01*
X137245776Y-73840428D01*
X137124320Y-73677779D01*
X136975258Y-73539987D01*
X136970375Y-73536906D01*
X136970371Y-73536903D01*
X136808464Y-73434748D01*
X136803581Y-73431667D01*
X136615039Y-73356446D01*
X136609379Y-73355320D01*
X136609375Y-73355319D01*
X136421613Y-73317971D01*
X136421610Y-73317971D01*
X136415946Y-73316844D01*
X136410171Y-73316768D01*
X136410167Y-73316768D01*
X136308793Y-73315441D01*
X136212971Y-73314187D01*
X136207274Y-73315166D01*
X136207273Y-73315166D01*
X136018607Y-73347585D01*
X136012910Y-73348564D01*
X135822463Y-73418824D01*
X135648010Y-73522612D01*
X135643670Y-73526418D01*
X135643666Y-73526421D01*
X135623723Y-73543911D01*
X135495392Y-73656455D01*
X135369720Y-73815869D01*
X135367031Y-73820980D01*
X135367029Y-73820983D01*
X135354073Y-73845609D01*
X135275203Y-73995515D01*
X135215007Y-74189378D01*
X135191148Y-74390964D01*
X119254000Y-74390964D01*
X119254000Y-71850964D01*
X135191148Y-71850964D01*
X135204424Y-72053522D01*
X135205845Y-72059118D01*
X135205846Y-72059123D01*
X135226119Y-72138945D01*
X135254392Y-72250269D01*
X135256809Y-72255512D01*
X135294010Y-72336208D01*
X135339377Y-72434616D01*
X135456533Y-72600389D01*
X135601938Y-72742035D01*
X135770720Y-72854812D01*
X135776023Y-72857090D01*
X135776026Y-72857092D01*
X135864707Y-72895192D01*
X135957228Y-72934942D01*
X136030244Y-72951464D01*
X136149579Y-72978467D01*
X136149584Y-72978468D01*
X136155216Y-72979742D01*
X136160987Y-72979969D01*
X136160989Y-72979969D01*
X136220756Y-72982317D01*
X136358053Y-72987712D01*
X136458499Y-72973148D01*
X136553231Y-72959413D01*
X136553236Y-72959412D01*
X136558945Y-72958584D01*
X136564409Y-72956729D01*
X136564414Y-72956728D01*
X136745693Y-72895192D01*
X136745698Y-72895190D01*
X136751165Y-72893334D01*
X136928276Y-72794147D01*
X136990934Y-72742035D01*
X137079913Y-72668031D01*
X137084345Y-72664345D01*
X137214147Y-72508276D01*
X137313334Y-72331165D01*
X137315190Y-72325698D01*
X137315192Y-72325693D01*
X137376728Y-72144414D01*
X137376729Y-72144409D01*
X137378584Y-72138945D01*
X137379412Y-72133236D01*
X137379413Y-72133231D01*
X137407179Y-71941727D01*
X137407712Y-71938053D01*
X137409232Y-71880000D01*
X137390658Y-71677859D01*
X137389090Y-71672299D01*
X137337125Y-71488046D01*
X137337124Y-71488044D01*
X137335557Y-71482487D01*
X137324978Y-71461033D01*
X137248331Y-71305609D01*
X137245776Y-71300428D01*
X137124320Y-71137779D01*
X136975258Y-70999987D01*
X136970375Y-70996906D01*
X136970371Y-70996903D01*
X136808464Y-70894748D01*
X136803581Y-70891667D01*
X136615039Y-70816446D01*
X136609379Y-70815320D01*
X136609375Y-70815319D01*
X136421613Y-70777971D01*
X136421610Y-70777971D01*
X136415946Y-70776844D01*
X136410171Y-70776768D01*
X136410167Y-70776768D01*
X136308793Y-70775441D01*
X136212971Y-70774187D01*
X136207274Y-70775166D01*
X136207273Y-70775166D01*
X136018607Y-70807585D01*
X136012910Y-70808564D01*
X135822463Y-70878824D01*
X135648010Y-70982612D01*
X135643670Y-70986418D01*
X135643666Y-70986421D01*
X135593190Y-71030688D01*
X135495392Y-71116455D01*
X135369720Y-71275869D01*
X135367031Y-71280980D01*
X135367029Y-71280983D01*
X135354073Y-71305609D01*
X135275203Y-71455515D01*
X135215007Y-71649378D01*
X135191148Y-71850964D01*
X119254000Y-71850964D01*
X119254000Y-69500000D01*
X121390539Y-69500000D01*
X121410354Y-69751775D01*
X121411508Y-69756582D01*
X121411509Y-69756588D01*
X121434754Y-69853408D01*
X121469312Y-69997351D01*
X121471205Y-70001922D01*
X121471206Y-70001924D01*
X121554095Y-70202035D01*
X121565960Y-70230680D01*
X121697919Y-70446017D01*
X121861939Y-70638061D01*
X122053983Y-70802081D01*
X122269320Y-70934040D01*
X122273890Y-70935933D01*
X122273894Y-70935935D01*
X122498076Y-71028794D01*
X122502649Y-71030688D01*
X122588865Y-71051387D01*
X122743412Y-71088491D01*
X122743418Y-71088492D01*
X122748225Y-71089646D01*
X122836253Y-71096574D01*
X122934507Y-71104307D01*
X122934516Y-71104307D01*
X122936964Y-71104500D01*
X123063036Y-71104500D01*
X123065484Y-71104307D01*
X123065493Y-71104307D01*
X123163747Y-71096574D01*
X123251775Y-71089646D01*
X123256582Y-71088492D01*
X123256588Y-71088491D01*
X123411135Y-71051387D01*
X123497351Y-71030688D01*
X123501924Y-71028794D01*
X123726106Y-70935935D01*
X123726110Y-70935933D01*
X123730680Y-70934040D01*
X123946017Y-70802081D01*
X124138061Y-70638061D01*
X124302081Y-70446017D01*
X124434040Y-70230680D01*
X124445906Y-70202035D01*
X124528794Y-70001924D01*
X124528795Y-70001922D01*
X124530688Y-69997351D01*
X124565246Y-69853408D01*
X124588491Y-69756588D01*
X124588492Y-69756582D01*
X124589646Y-69751775D01*
X124609461Y-69500000D01*
X124594584Y-69310964D01*
X135191148Y-69310964D01*
X135204424Y-69513522D01*
X135205845Y-69519118D01*
X135205846Y-69519123D01*
X135244471Y-69671205D01*
X135254392Y-69710269D01*
X135256809Y-69715512D01*
X135292514Y-69792963D01*
X135339377Y-69894616D01*
X135456533Y-70060389D01*
X135601938Y-70202035D01*
X135770720Y-70314812D01*
X135776023Y-70317090D01*
X135776026Y-70317092D01*
X135951921Y-70392662D01*
X135957228Y-70394942D01*
X136030244Y-70411464D01*
X136149579Y-70438467D01*
X136149584Y-70438468D01*
X136155216Y-70439742D01*
X136160987Y-70439969D01*
X136160989Y-70439969D01*
X136220756Y-70442317D01*
X136358053Y-70447712D01*
X136458499Y-70433148D01*
X136553231Y-70419413D01*
X136553236Y-70419412D01*
X136558945Y-70418584D01*
X136564409Y-70416729D01*
X136564414Y-70416728D01*
X136745693Y-70355192D01*
X136745698Y-70355190D01*
X136751165Y-70353334D01*
X136928276Y-70254147D01*
X136949752Y-70236286D01*
X137079913Y-70128031D01*
X137084345Y-70124345D01*
X137128133Y-70071696D01*
X154382329Y-70071696D01*
X154388142Y-70124345D01*
X154396274Y-70198002D01*
X154399713Y-70229153D01*
X154402323Y-70236284D01*
X154402323Y-70236286D01*
X154432967Y-70320024D01*
X154454153Y-70377919D01*
X154458389Y-70384222D01*
X154458389Y-70384223D01*
X154494840Y-70438467D01*
X154542508Y-70509405D01*
X154548127Y-70514518D01*
X154548128Y-70514519D01*
X154559503Y-70524869D01*
X154659676Y-70616019D01*
X154798893Y-70691608D01*
X154952122Y-70731807D01*
X155036077Y-70733126D01*
X155102919Y-70734176D01*
X155102922Y-70734176D01*
X155110516Y-70734295D01*
X155264932Y-70698929D01*
X155346359Y-70657976D01*
X155399672Y-70631163D01*
X155399675Y-70631161D01*
X155406455Y-70627751D01*
X155412226Y-70622822D01*
X155412229Y-70622820D01*
X155521136Y-70529804D01*
X155521136Y-70529803D01*
X155526914Y-70524869D01*
X155619355Y-70396224D01*
X155678442Y-70249241D01*
X155688283Y-70180095D01*
X155700181Y-70096491D01*
X155700181Y-70096488D01*
X155700762Y-70092407D01*
X155700907Y-70078600D01*
X155690851Y-69995496D01*
X162103929Y-69995496D01*
X162111510Y-70064165D01*
X162118155Y-70124345D01*
X162121313Y-70152953D01*
X162123923Y-70160084D01*
X162123923Y-70160086D01*
X162156993Y-70250453D01*
X162175753Y-70301719D01*
X162179989Y-70308022D01*
X162179989Y-70308023D01*
X162243407Y-70402398D01*
X162264108Y-70433205D01*
X162269727Y-70438318D01*
X162269728Y-70438319D01*
X162375660Y-70534709D01*
X162381276Y-70539819D01*
X162520493Y-70615408D01*
X162673722Y-70655607D01*
X162757677Y-70656926D01*
X162824519Y-70657976D01*
X162824522Y-70657976D01*
X162832116Y-70658095D01*
X162986532Y-70622729D01*
X163056942Y-70587317D01*
X163121272Y-70554963D01*
X163121275Y-70554961D01*
X163128055Y-70551551D01*
X163133826Y-70546622D01*
X163133829Y-70546620D01*
X163242736Y-70453604D01*
X163242736Y-70453603D01*
X163248514Y-70448669D01*
X163340955Y-70320024D01*
X163400042Y-70173041D01*
X163413391Y-70079246D01*
X163421781Y-70020291D01*
X163421781Y-70020288D01*
X163422362Y-70016207D01*
X163422507Y-70002400D01*
X163403476Y-69845133D01*
X163347480Y-69696946D01*
X163336174Y-69680495D01*
X163262055Y-69572651D01*
X163262054Y-69572649D01*
X163257753Y-69566392D01*
X163183236Y-69500000D01*
X175390539Y-69500000D01*
X175410354Y-69751775D01*
X175411508Y-69756582D01*
X175411509Y-69756588D01*
X175434754Y-69853408D01*
X175469312Y-69997351D01*
X175471205Y-70001922D01*
X175471206Y-70001924D01*
X175554095Y-70202035D01*
X175565960Y-70230680D01*
X175697919Y-70446017D01*
X175861939Y-70638061D01*
X176053983Y-70802081D01*
X176269320Y-70934040D01*
X176273890Y-70935933D01*
X176273894Y-70935935D01*
X176498076Y-71028794D01*
X176502649Y-71030688D01*
X176588865Y-71051387D01*
X176743412Y-71088491D01*
X176743418Y-71088492D01*
X176748225Y-71089646D01*
X176836253Y-71096574D01*
X176934507Y-71104307D01*
X176934516Y-71104307D01*
X176936964Y-71104500D01*
X177063036Y-71104500D01*
X177065484Y-71104307D01*
X177065493Y-71104307D01*
X177163747Y-71096574D01*
X177251775Y-71089646D01*
X177256582Y-71088492D01*
X177256588Y-71088491D01*
X177411135Y-71051387D01*
X177497351Y-71030688D01*
X177501924Y-71028794D01*
X177726106Y-70935935D01*
X177726110Y-70935933D01*
X177730680Y-70934040D01*
X177946017Y-70802081D01*
X178138061Y-70638061D01*
X178302081Y-70446017D01*
X178434040Y-70230680D01*
X178445906Y-70202035D01*
X178528794Y-70001924D01*
X178528795Y-70001922D01*
X178530688Y-69997351D01*
X178565246Y-69853408D01*
X178588491Y-69756588D01*
X178588492Y-69756582D01*
X178589646Y-69751775D01*
X178609461Y-69500000D01*
X178589646Y-69248225D01*
X178588492Y-69243418D01*
X178588491Y-69243412D01*
X178531843Y-69007461D01*
X178530688Y-69002649D01*
X178505587Y-68942049D01*
X178435935Y-68773894D01*
X178435933Y-68773890D01*
X178434040Y-68769320D01*
X178302081Y-68553983D01*
X178138061Y-68361939D01*
X177946017Y-68197919D01*
X177730680Y-68065960D01*
X177726110Y-68064067D01*
X177726106Y-68064065D01*
X177501924Y-67971206D01*
X177501922Y-67971205D01*
X177497351Y-67969312D01*
X177411135Y-67948613D01*
X177256588Y-67911509D01*
X177256582Y-67911508D01*
X177251775Y-67910354D01*
X177163747Y-67903426D01*
X177065493Y-67895693D01*
X177065484Y-67895693D01*
X177063036Y-67895500D01*
X176936964Y-67895500D01*
X176934516Y-67895693D01*
X176934507Y-67895693D01*
X176836253Y-67903426D01*
X176748225Y-67910354D01*
X176743418Y-67911508D01*
X176743412Y-67911509D01*
X176588865Y-67948613D01*
X176502649Y-67969312D01*
X176498078Y-67971205D01*
X176498076Y-67971206D01*
X176273894Y-68064065D01*
X176273890Y-68064067D01*
X176269320Y-68065960D01*
X176053983Y-68197919D01*
X175861939Y-68361939D01*
X175697919Y-68553983D01*
X175565960Y-68769320D01*
X175564067Y-68773890D01*
X175564065Y-68773894D01*
X175494413Y-68942049D01*
X175469312Y-69002649D01*
X175468157Y-69007461D01*
X175411509Y-69243412D01*
X175411508Y-69243418D01*
X175410354Y-69248225D01*
X175390539Y-69500000D01*
X163183236Y-69500000D01*
X163139475Y-69461011D01*
X163132089Y-69457100D01*
X163006188Y-69390439D01*
X163006189Y-69390439D01*
X162999474Y-69386884D01*
X162845833Y-69348292D01*
X162838234Y-69348252D01*
X162838233Y-69348252D01*
X162772381Y-69347907D01*
X162687421Y-69347462D01*
X162680041Y-69349234D01*
X162680039Y-69349234D01*
X162540763Y-69382671D01*
X162540760Y-69382672D01*
X162533384Y-69384443D01*
X162392614Y-69457100D01*
X162273239Y-69561238D01*
X162182150Y-69690844D01*
X162160318Y-69746841D01*
X162142336Y-69792963D01*
X162124606Y-69838437D01*
X162123614Y-69845970D01*
X162123614Y-69845971D01*
X162106928Y-69972718D01*
X162103929Y-69995496D01*
X155690851Y-69995496D01*
X155681876Y-69921333D01*
X155625880Y-69773146D01*
X155607801Y-69746841D01*
X155540455Y-69648851D01*
X155540454Y-69648849D01*
X155536153Y-69642592D01*
X155417875Y-69537211D01*
X155410489Y-69533300D01*
X155372165Y-69513009D01*
X155277874Y-69463084D01*
X155124233Y-69424492D01*
X155116634Y-69424452D01*
X155116633Y-69424452D01*
X155050781Y-69424107D01*
X154965821Y-69423662D01*
X154958441Y-69425434D01*
X154958439Y-69425434D01*
X154819163Y-69458871D01*
X154819160Y-69458872D01*
X154811784Y-69460643D01*
X154671014Y-69533300D01*
X154551639Y-69637438D01*
X154460550Y-69767044D01*
X154432873Y-69838031D01*
X154410282Y-69895976D01*
X154403006Y-69914637D01*
X154402014Y-69922170D01*
X154402014Y-69922171D01*
X154383818Y-70060389D01*
X154382329Y-70071696D01*
X137128133Y-70071696D01*
X137134181Y-70064424D01*
X137210453Y-69972718D01*
X137210455Y-69972715D01*
X137214147Y-69968276D01*
X137282641Y-69845971D01*
X137310510Y-69796208D01*
X137310511Y-69796206D01*
X137313334Y-69791165D01*
X137315190Y-69785698D01*
X137315192Y-69785693D01*
X137376728Y-69604414D01*
X137376729Y-69604409D01*
X137378584Y-69598945D01*
X137379412Y-69593236D01*
X137379413Y-69593231D01*
X137398551Y-69461234D01*
X137407712Y-69398053D01*
X137409232Y-69340000D01*
X137399446Y-69233496D01*
X145365329Y-69233496D01*
X145373249Y-69305229D01*
X145381799Y-69382671D01*
X145382713Y-69390953D01*
X145385323Y-69398084D01*
X145385323Y-69398086D01*
X145408745Y-69462089D01*
X145437153Y-69539719D01*
X145441389Y-69546022D01*
X145441389Y-69546023D01*
X145473112Y-69593231D01*
X145525508Y-69671205D01*
X145531127Y-69676318D01*
X145531128Y-69676319D01*
X145547091Y-69690844D01*
X145642676Y-69777819D01*
X145781893Y-69853408D01*
X145935122Y-69893607D01*
X146019077Y-69894926D01*
X146085919Y-69895976D01*
X146085922Y-69895976D01*
X146093516Y-69896095D01*
X146247932Y-69860729D01*
X146318342Y-69825317D01*
X146382672Y-69792963D01*
X146382675Y-69792961D01*
X146389455Y-69789551D01*
X146395226Y-69784622D01*
X146395229Y-69784620D01*
X146504136Y-69691604D01*
X146504136Y-69691603D01*
X146509914Y-69686669D01*
X146602355Y-69558024D01*
X146661442Y-69411041D01*
X146683762Y-69254207D01*
X146683907Y-69240400D01*
X146664876Y-69083133D01*
X146608880Y-68934946D01*
X146599318Y-68921033D01*
X146523455Y-68810651D01*
X146523454Y-68810649D01*
X146519153Y-68804392D01*
X146400875Y-68699011D01*
X146393489Y-68695100D01*
X146267588Y-68628439D01*
X146267589Y-68628439D01*
X146260874Y-68624884D01*
X146107233Y-68586292D01*
X146099634Y-68586252D01*
X146099633Y-68586252D01*
X146033781Y-68585907D01*
X145948821Y-68585462D01*
X145941441Y-68587234D01*
X145941439Y-68587234D01*
X145802163Y-68620671D01*
X145802160Y-68620672D01*
X145794784Y-68622443D01*
X145654014Y-68695100D01*
X145534639Y-68799238D01*
X145443550Y-68928844D01*
X145386006Y-69076437D01*
X145385014Y-69083970D01*
X145385014Y-69083971D01*
X145377920Y-69137859D01*
X145365329Y-69233496D01*
X137399446Y-69233496D01*
X137390658Y-69137859D01*
X137389090Y-69132299D01*
X137337125Y-68948046D01*
X137337124Y-68948044D01*
X137335557Y-68942487D01*
X137331839Y-68934946D01*
X137248331Y-68765609D01*
X137245776Y-68760428D01*
X137124320Y-68597779D01*
X136975258Y-68459987D01*
X136970375Y-68456906D01*
X136970371Y-68456903D01*
X136808464Y-68354748D01*
X136803581Y-68351667D01*
X136615039Y-68276446D01*
X136609379Y-68275320D01*
X136609375Y-68275319D01*
X136421613Y-68237971D01*
X136421610Y-68237971D01*
X136415946Y-68236844D01*
X136410171Y-68236768D01*
X136410167Y-68236768D01*
X136308793Y-68235441D01*
X136212971Y-68234187D01*
X136207274Y-68235166D01*
X136207273Y-68235166D01*
X136018607Y-68267585D01*
X136012910Y-68268564D01*
X135822463Y-68338824D01*
X135648010Y-68442612D01*
X135643670Y-68446418D01*
X135643666Y-68446421D01*
X135623723Y-68463911D01*
X135495392Y-68576455D01*
X135491817Y-68580990D01*
X135491816Y-68580991D01*
X135486178Y-68588143D01*
X135369720Y-68735869D01*
X135367031Y-68740980D01*
X135367029Y-68740983D01*
X135333668Y-68804392D01*
X135275203Y-68915515D01*
X135215007Y-69109378D01*
X135191148Y-69310964D01*
X124594584Y-69310964D01*
X124589646Y-69248225D01*
X124588492Y-69243418D01*
X124588491Y-69243412D01*
X124531843Y-69007461D01*
X124530688Y-69002649D01*
X124505587Y-68942049D01*
X124435935Y-68773894D01*
X124435933Y-68773890D01*
X124434040Y-68769320D01*
X124302081Y-68553983D01*
X124138061Y-68361939D01*
X123946017Y-68197919D01*
X123730680Y-68065960D01*
X123726110Y-68064067D01*
X123726106Y-68064065D01*
X123501924Y-67971206D01*
X123501922Y-67971205D01*
X123497351Y-67969312D01*
X123411135Y-67948613D01*
X123256588Y-67911509D01*
X123256582Y-67911508D01*
X123251775Y-67910354D01*
X123163747Y-67903426D01*
X123065493Y-67895693D01*
X123065484Y-67895693D01*
X123063036Y-67895500D01*
X122936964Y-67895500D01*
X122934516Y-67895693D01*
X122934507Y-67895693D01*
X122836253Y-67903426D01*
X122748225Y-67910354D01*
X122743418Y-67911508D01*
X122743412Y-67911509D01*
X122588865Y-67948613D01*
X122502649Y-67969312D01*
X122498078Y-67971205D01*
X122498076Y-67971206D01*
X122273894Y-68064065D01*
X122273890Y-68064067D01*
X122269320Y-68065960D01*
X122053983Y-68197919D01*
X121861939Y-68361939D01*
X121697919Y-68553983D01*
X121565960Y-68769320D01*
X121564067Y-68773890D01*
X121564065Y-68773894D01*
X121494413Y-68942049D01*
X121469312Y-69002649D01*
X121468157Y-69007461D01*
X121411509Y-69243412D01*
X121411508Y-69243418D01*
X121410354Y-69248225D01*
X121390539Y-69500000D01*
X119254000Y-69500000D01*
X119254000Y-66080000D01*
X119274002Y-66011879D01*
X119327658Y-65965386D01*
X119380000Y-65954000D01*
X181620000Y-65954000D01*
X181688121Y-65974002D01*
G37*
G04 #@! TD.AperFunction*
G04 #@! TA.AperFunction,Conductor*
G36*
X172917822Y-74415732D02*
G01*
X176938145Y-74424125D01*
X177006222Y-74444268D01*
X177052603Y-74498021D01*
X177062560Y-74568316D01*
X177032932Y-74632835D01*
X177002023Y-74657763D01*
X177002305Y-74658208D01*
X176992281Y-74664570D01*
X176769177Y-74826664D01*
X176760754Y-74837587D01*
X176767658Y-74850448D01*
X178329188Y-76411978D01*
X178343132Y-76419592D01*
X178344965Y-76419461D01*
X178351580Y-76415210D01*
X179916666Y-74850124D01*
X179923279Y-74838013D01*
X179914452Y-74826395D01*
X179691710Y-74664563D01*
X179688280Y-74662386D01*
X179641486Y-74608992D01*
X179630988Y-74538776D01*
X179660118Y-74474031D01*
X179719627Y-74435312D01*
X179756064Y-74430007D01*
X181620264Y-74433899D01*
X181688342Y-74454044D01*
X181734723Y-74507796D01*
X181746000Y-74559899D01*
X181746000Y-91136200D01*
X181725998Y-91204321D01*
X181672342Y-91250814D01*
X181620000Y-91262200D01*
X179530889Y-91262200D01*
X179462768Y-91242198D01*
X179416275Y-91188542D01*
X179406171Y-91118268D01*
X179435665Y-91053688D01*
X179470188Y-91025785D01*
X179685039Y-90907670D01*
X179691719Y-90903430D01*
X179914823Y-90741336D01*
X179923246Y-90730413D01*
X179916342Y-90717552D01*
X178354812Y-89156022D01*
X178340868Y-89148408D01*
X178339035Y-89148539D01*
X178332420Y-89152790D01*
X176767334Y-90717876D01*
X176760721Y-90729987D01*
X176769548Y-90741605D01*
X176992281Y-90903430D01*
X176998961Y-90907670D01*
X177213812Y-91025785D01*
X177263871Y-91076131D01*
X177278764Y-91145548D01*
X177253763Y-91211997D01*
X177196806Y-91254381D01*
X177153111Y-91262200D01*
X170128200Y-91262200D01*
X170060079Y-91242198D01*
X170013586Y-91188542D01*
X170002200Y-91136200D01*
X170002200Y-88787958D01*
X175829290Y-88787958D01*
X175848607Y-89094994D01*
X175849600Y-89102855D01*
X175907246Y-89405046D01*
X175909217Y-89412723D01*
X176004284Y-89705309D01*
X176007199Y-89712672D01*
X176138189Y-89991041D01*
X176142001Y-89997974D01*
X176306851Y-90257736D01*
X176311495Y-90264129D01*
X176386497Y-90354790D01*
X176399014Y-90363245D01*
X176409752Y-90357038D01*
X177969978Y-88796812D01*
X177976356Y-88785132D01*
X178706408Y-88785132D01*
X178706539Y-88786965D01*
X178710790Y-88793580D01*
X180273145Y-90355935D01*
X180286407Y-90363177D01*
X180296512Y-90355988D01*
X180372505Y-90264129D01*
X180377149Y-90257736D01*
X180541999Y-89997974D01*
X180545811Y-89991041D01*
X180676801Y-89712672D01*
X180679716Y-89705309D01*
X180774783Y-89412723D01*
X180776754Y-89405046D01*
X180834400Y-89102855D01*
X180835393Y-89094994D01*
X180854710Y-88787958D01*
X180854710Y-88780042D01*
X180835393Y-88473006D01*
X180834400Y-88465145D01*
X180776754Y-88162954D01*
X180774783Y-88155277D01*
X180679716Y-87862691D01*
X180676801Y-87855328D01*
X180545811Y-87576959D01*
X180541999Y-87570026D01*
X180377149Y-87310264D01*
X180372505Y-87303871D01*
X180297503Y-87213210D01*
X180284986Y-87204755D01*
X180274248Y-87210962D01*
X178714022Y-88771188D01*
X178706408Y-88785132D01*
X177976356Y-88785132D01*
X177977592Y-88782868D01*
X177977461Y-88781035D01*
X177973210Y-88774420D01*
X176410855Y-87212065D01*
X176397593Y-87204823D01*
X176387488Y-87212012D01*
X176311495Y-87303871D01*
X176306851Y-87310264D01*
X176142001Y-87570026D01*
X176138189Y-87576959D01*
X176007199Y-87855328D01*
X176004284Y-87862691D01*
X175909217Y-88155277D01*
X175907246Y-88162954D01*
X175849600Y-88465145D01*
X175848607Y-88473006D01*
X175829290Y-88780042D01*
X175829290Y-88787958D01*
X170002200Y-88787958D01*
X170002200Y-86841600D01*
X170022202Y-86773479D01*
X170075858Y-86726986D01*
X170128200Y-86715600D01*
X176632813Y-86715600D01*
X176700934Y-86735602D01*
X176747427Y-86789258D01*
X176753429Y-86823941D01*
X176767658Y-86850448D01*
X178329188Y-88411978D01*
X178343132Y-88419592D01*
X178344965Y-88419461D01*
X178351580Y-88415210D01*
X179916666Y-86850124D01*
X179924280Y-86836181D01*
X179923941Y-86831440D01*
X179939032Y-86762066D01*
X179959822Y-86741275D01*
X179957296Y-86739086D01*
X179977647Y-86715600D01*
X179984400Y-86715600D01*
X180022703Y-80352901D01*
X178815108Y-80349889D01*
X169962587Y-80327812D01*
X169894516Y-80307640D01*
X169848157Y-80253868D01*
X169836901Y-80201808D01*
X169836933Y-79292000D01*
X169836952Y-78729987D01*
X176760721Y-78729987D01*
X176769548Y-78741605D01*
X176992281Y-78903430D01*
X176998961Y-78907670D01*
X177268572Y-79055890D01*
X177275707Y-79059247D01*
X177561770Y-79172508D01*
X177569296Y-79174953D01*
X177867279Y-79251462D01*
X177875050Y-79252945D01*
X178180278Y-79291503D01*
X178188169Y-79292000D01*
X178495831Y-79292000D01*
X178503722Y-79291503D01*
X178808950Y-79252945D01*
X178816721Y-79251462D01*
X179114704Y-79174953D01*
X179122230Y-79172508D01*
X179408293Y-79059247D01*
X179415428Y-79055890D01*
X179685039Y-78907670D01*
X179691719Y-78903430D01*
X179914823Y-78741336D01*
X179923246Y-78730413D01*
X179916342Y-78717552D01*
X178354812Y-77156022D01*
X178340868Y-77148408D01*
X178339035Y-77148539D01*
X178332420Y-77152790D01*
X176767334Y-78717876D01*
X176760721Y-78729987D01*
X169836952Y-78729987D01*
X169837018Y-76787958D01*
X175829290Y-76787958D01*
X175848607Y-77094994D01*
X175849600Y-77102855D01*
X175907246Y-77405046D01*
X175909217Y-77412723D01*
X176004284Y-77705309D01*
X176007199Y-77712672D01*
X176138189Y-77991041D01*
X176142001Y-77997974D01*
X176306851Y-78257736D01*
X176311495Y-78264129D01*
X176386497Y-78354790D01*
X176399014Y-78363245D01*
X176409752Y-78357038D01*
X177969978Y-76796812D01*
X177976356Y-76785132D01*
X178706408Y-76785132D01*
X178706539Y-76786965D01*
X178710790Y-76793580D01*
X180273145Y-78355935D01*
X180286407Y-78363177D01*
X180296512Y-78355988D01*
X180372505Y-78264129D01*
X180377149Y-78257736D01*
X180541999Y-77997974D01*
X180545811Y-77991041D01*
X180676801Y-77712672D01*
X180679716Y-77705309D01*
X180774783Y-77412723D01*
X180776754Y-77405046D01*
X180834400Y-77102855D01*
X180835393Y-77094994D01*
X180854710Y-76787958D01*
X180854710Y-76780042D01*
X180835393Y-76473006D01*
X180834400Y-76465145D01*
X180776754Y-76162954D01*
X180774783Y-76155277D01*
X180679716Y-75862691D01*
X180676801Y-75855328D01*
X180545811Y-75576959D01*
X180541999Y-75570026D01*
X180377149Y-75310264D01*
X180372505Y-75303871D01*
X180297503Y-75213210D01*
X180284986Y-75204755D01*
X180274248Y-75210962D01*
X178714022Y-76771188D01*
X178706408Y-76785132D01*
X177976356Y-76785132D01*
X177977592Y-76782868D01*
X177977461Y-76781035D01*
X177973210Y-76774420D01*
X176410855Y-75212065D01*
X176397593Y-75204823D01*
X176387488Y-75212012D01*
X176311495Y-75303871D01*
X176306851Y-75310264D01*
X176142001Y-75570026D01*
X176138189Y-75576959D01*
X176007199Y-75855328D01*
X176004284Y-75862691D01*
X175909217Y-76155277D01*
X175907246Y-76162954D01*
X175849600Y-76465145D01*
X175848607Y-76473006D01*
X175829290Y-76780042D01*
X175829290Y-76787958D01*
X169837018Y-76787958D01*
X169837096Y-74535560D01*
X169857100Y-74467440D01*
X169910758Y-74420949D01*
X169963359Y-74409564D01*
X172917822Y-74415732D01*
G37*
G04 #@! TD.AperFunction*
M02*
