<?xml version="1.0" standalone="no"?>
 <!DOCTYPE svg PUBLIC "-//W3C//DTD SVG 1.1//EN" 
 "http://www.w3.org/Graphics/SVG/1.1/DTD/svg11.dtd"> 
<svg
  xmlns:svg="http://www.w3.org/2000/svg"
  xmlns="http://www.w3.org/2000/svg"
  xmlns:xlink="http://www.w3.org/1999/xlink"
  version="1.1"
  width="29.700220cm" height="21.000720cm" viewBox="0 0 2970022 2100072">
<title>SVG Picture created as t1-F_Silkscreen.svg date 2022/12/02 22:38:34 </title>
  <desc>Picture generated by PCBNEW </desc>
<g style="fill:#000000; fill-opacity:1.000000;stroke:#000000; stroke-opacity:1.000000;
stroke-linecap:round; stroke-linejoin:round;"
 transform="translate(0 0) scale(1 1)">
</g>
<g style="fill:#000000; fill-opacity:0.0; 
stroke:#000000; stroke-width:0.000000; stroke-opacity:1; 
stroke-linecap:round; stroke-linejoin:round;">
</g>
<g style="fill:#000000; fill-opacity:0.0; 
stroke:#000000; stroke-width:1500.000000; stroke-opacity:1; 
stroke-linecap:round; stroke-linejoin:round;">
<text x="1358392.000000" y="905430.000000"
textLength="21473.810000" font-size="13333.330000" lengthAdjust="spacingAndGlyphs"
text-anchor="middle" opacity="0">C1</text>
<g class="stroked-text"><desc>C1</desc>
<path d="M1356725 904001
L1356249 904477
L1354820 904953
L1353868 904953
L1352439 904477
L1351487 903525
L1351011 902572
L1350534 900668
L1350534 899239
L1351011 897334
L1351487 896382
L1352439 895430
L1353868 894953
L1354820 894953
L1356249 895430
L1356725 895906
" />
<path d="M1366249 904953
L1360534 904953
" />
<path d="M1363392 904953
L1363392 894953
L1362439 896382
L1361487 897334
L1360534 897810
" />
</g><text x="1229360.000000" y="933370.000000"
textLength="21473.810000" font-size="13333.330000" lengthAdjust="spacingAndGlyphs"
text-anchor="middle" opacity="0">C2</text>
<g class="stroked-text"><desc>C2</desc>
<path d="M1227693 931941
L1227217 932417
L1225788 932893
L1224836 932893
L1223407 932417
L1222455 931465
L1221979 930512
L1221502 928608
L1221502 927179
L1221979 925274
L1222455 924322
L1223407 923370
L1224836 922893
L1225788 922893
L1227217 923370
L1227693 923846
" />
<path d="M1231502 923846
L1231979 923370
L1232931 922893
L1235312 922893
L1236264 923370
L1236740 923846
L1237217 924798
L1237217 925750
L1236740 927179
L1231026 932893
L1237217 932893
" />
</g><text x="1643634.000000" y="746172.000000"
textLength="21473.810000" font-size="13333.330000" lengthAdjust="spacingAndGlyphs"
text-anchor="middle" opacity="0">C3</text>
<g class="stroked-text"><desc>C3</desc>
<path d="M1641967 744743
L1641491 745219
L1640062 745695
L1639110 745695
L1637681 745219
L1636729 744267
L1636253 743314
L1635776 741410
L1635776 739981
L1636253 738076
L1636729 737124
L1637681 736172
L1639110 735695
L1640062 735695
L1641491 736172
L1641967 736648
" />
<path d="M1645300 735695
L1651491 735695
L1648157 739505
L1649586 739505
L1650538 739981
L1651014 740457
L1651491 741410
L1651491 743791
L1651014 744743
L1650538 745219
L1649586 745695
L1646729 745695
L1645776 745219
L1645300 744743
" />
</g><text x="1537970.000000" y="755570.000000"
textLength="21473.810000" font-size="13333.330000" lengthAdjust="spacingAndGlyphs"
text-anchor="middle" opacity="0">C4</text>
<g class="stroked-text"><desc>C4</desc>
<path d="M1536303 754141
L1535827 754617
L1534398 755093
L1533446 755093
L1532017 754617
L1531065 753665
L1530589 752712
L1530112 750808
L1530112 749379
L1530589 747474
L1531065 746522
L1532017 745570
L1533446 745093
L1534398 745093
L1535827 745570
L1536303 746046
" />
<path d="M1544874 748427
L1544874 755093
" />
<path d="M1542493 744617
L1540112 751760
L1546303 751760
" />
</g><text x="1633220.000000" y="872410.000000"
textLength="21473.810000" font-size="13333.330000" lengthAdjust="spacingAndGlyphs"
text-anchor="middle" opacity="0">C5</text>
<g class="stroked-text"><desc>C5</desc>
<path d="M1631553 870981
L1631077 871457
L1629648 871933
L1628696 871933
L1627267 871457
L1626315 870505
L1625839 869552
L1625362 867648
L1625362 866219
L1625839 864314
L1626315 863362
L1627267 862410
L1628696 861933
L1629648 861933
L1631077 862410
L1631553 862886
" />
<path d="M1640600 861933
L1635839 861933
L1635362 866695
L1635839 866219
L1636791 865743
L1639172 865743
L1640124 866219
L1640600 866695
L1641077 867648
L1641077 870029
L1640600 870981
L1640124 871457
L1639172 871933
L1636791 871933
L1635839 871457
L1635362 870981
" />
</g><text x="1568450.000000" y="794178.000000"
textLength="21473.810000" font-size="13333.330000" lengthAdjust="spacingAndGlyphs"
text-anchor="middle" opacity="0">C7</text>
<g class="stroked-text"><desc>C7</desc>
<path d="M1566783 792749
L1566307 793225
L1564878 793701
L1563926 793701
L1562497 793225
L1561545 792273
L1561069 791320
L1560592 789416
L1560592 787987
L1561069 786082
L1561545 785130
L1562497 784178
L1563926 783701
L1564878 783701
L1566307 784178
L1566783 784654
" />
<path d="M1570116 783701
L1576783 783701
L1572497 793701
" />
</g><text x="1467612.000000" y="796464.000000"
textLength="21473.810000" font-size="13333.330000" lengthAdjust="spacingAndGlyphs"
text-anchor="middle" opacity="0">C8</text>
<g class="stroked-text"><desc>C8</desc>
<path d="M1465945 795035
L1465469 795511
L1464040 795987
L1463088 795987
L1461659 795511
L1460707 794559
L1460231 793606
L1459754 791702
L1459754 790273
L1460231 788368
L1460707 787416
L1461659 786464
L1463088 785987
L1464040 785987
L1465469 786464
L1465945 786940
" />
<path d="M1471659 790273
L1470707 789797
L1470231 789321
L1469754 788368
L1469754 787892
L1470231 786940
L1470707 786464
L1471659 785987
L1473564 785987
L1474516 786464
L1474992 786940
L1475469 787892
L1475469 788368
L1474992 789321
L1474516 789797
L1473564 790273
L1471659 790273
L1470707 790749
L1470231 791225
L1469754 792178
L1469754 794083
L1470231 795035
L1470707 795511
L1471659 795987
L1473564 795987
L1474516 795511
L1474992 795035
L1475469 794083
L1475469 792178
L1474992 791225
L1474516 790749
L1473564 790273
" />
</g><text x="1628648.000000" y="942260.000000"
textLength="21473.810000" font-size="13333.330000" lengthAdjust="spacingAndGlyphs"
text-anchor="middle" opacity="0">D1</text>
<g class="stroked-text"><desc>D1</desc>
<path d="M1621267 941783
L1621267 931783
L1623648 931783
L1625076 932260
L1626028 933212
L1626505 934164
L1626981 936069
L1626981 937498
L1626505 939402
L1626028 940355
L1625076 941307
L1623648 941783
L1621267 941783
" />
<path d="M1636505 941783
L1630790 941783
" />
<path d="M1633648 941783
L1633648 931783
L1632695 933212
L1631743 934164
L1630790 934640
" />
</g><text x="1493774.000000" y="754554.000000"
textLength="21473.810000" font-size="13333.330000" lengthAdjust="spacingAndGlyphs"
text-anchor="middle" opacity="0">D2</text>
<g class="stroked-text"><desc>D2</desc>
<path d="M1486393 754077
L1486393 744077
L1488774 744077
L1490202 744554
L1491154 745506
L1491631 746458
L1492107 748363
L1492107 749792
L1491631 751696
L1491154 752649
L1490202 753601
L1488774 754077
L1486393 754077
" />
<path d="M1495916 745030
L1496393 744554
L1497345 744077
L1499726 744077
L1500678 744554
L1501154 745030
L1501631 745982
L1501631 746934
L1501154 748363
L1495440 754077
L1501631 754077
" />
</g><text x="1425956.000000" y="743632.000000"
textLength="21473.810000" font-size="13333.330000" lengthAdjust="spacingAndGlyphs"
text-anchor="middle" opacity="0">D3</text>
<g class="stroked-text"><desc>D3</desc>
<path d="M1418575 743155
L1418575 733155
L1420956 733155
L1422384 733632
L1423336 734584
L1423813 735536
L1424289 737441
L1424289 738870
L1423813 740774
L1423336 741727
L1422384 742679
L1420956 743155
L1418575 743155
" />
<path d="M1427622 733155
L1433813 733155
L1430479 736965
L1431908 736965
L1432860 737441
L1433336 737917
L1433813 738870
L1433813 741251
L1433336 742203
L1432860 742679
L1431908 743155
L1429051 743155
L1428098 742679
L1427622 742203
" />
</g><text x="1678940.000000" y="750660.000000"
textLength="20045.240000" font-size="13333.330000" lengthAdjust="spacingAndGlyphs"
text-anchor="middle" opacity="0">F1</text>
<g class="stroked-text"><desc>F1</desc>
<path d="M1675606 744945
L1672273 744945
" />
<path d="M1672273 750183
L1672273 740183
L1677035 740183
" />
<path d="M1686082 750183
L1680368 750183
" />
<path d="M1683225 750183
L1683225 740183
L1682273 741612
L1681320 742564
L1680368 743040
" />
</g><text x="1678940.000000" y="928280.000000"
textLength="30045.240000" font-size="13333.330000" lengthAdjust="spacingAndGlyphs"
text-anchor="middle" opacity="0">FB1</text>
<g class="stroked-text"><desc>FB1</desc>
<path d="M1670606 922565
L1667273 922565
" />
<path d="M1667273 927803
L1667273 917803
L1672035 917803
" />
<path d="M1679178 922565
L1680606 923041
L1681082 923518
L1681559 924470
L1681559 925899
L1681082 926851
L1680606 927327
L1679654 927803
L1675844 927803
L1675844 917803
L1679178 917803
L1680130 918280
L1680606 918756
L1681082 919708
L1681082 920660
L1680606 921613
L1680130 922089
L1679178 922565
L1675844 922565
" />
<path d="M1691082 927803
L1685368 927803
" />
<path d="M1688225 927803
L1688225 917803
L1687273 919232
L1686320 920184
L1685368 920660
" />
</g><text x="1319784.000000" y="879522.000000"
textLength="19092.860000" font-size="13333.330000" lengthAdjust="spacingAndGlyphs"
text-anchor="middle" opacity="0">J1</text>
<g class="stroked-text"><desc>J1</desc>
<path d="M1316450 869045
L1316450 876188
L1315974 877617
L1315022 878569
L1313593 879045
L1312641 879045
" />
<path d="M1326450 879045
L1320736 879045
" />
<path d="M1323593 879045
L1323593 869045
L1322641 870474
L1321688 871426
L1320736 871902
" />
</g><text x="1361440.000000" y="828976.000000"
textLength="19092.860000" font-size="13333.330000" lengthAdjust="spacingAndGlyphs"
text-anchor="middle" opacity="0">J3</text>
<g class="stroked-text"><desc>J3</desc>
<path d="M1358106 818499
L1358106 825642
L1357630 827071
L1356678 828023
L1355249 828499
L1354297 828499
" />
<path d="M1361916 818499
L1368106 818499
L1364773 822309
L1366201 822309
L1367154 822785
L1367630 823261
L1368106 824214
L1368106 826595
L1367630 827547
L1367154 828023
L1366201 828499
L1363344 828499
L1362392 828023
L1361916 827547
" />
</g><text x="1531366.000000" y="931084.000000"
textLength="19092.860000" font-size="13333.330000" lengthAdjust="spacingAndGlyphs"
text-anchor="middle" opacity="0">J4</text>
<g class="stroked-text"><desc>J4</desc>
<path d="M1528032 920607
L1528032 927750
L1527556 929179
L1526604 930131
L1525175 930607
L1524223 930607
" />
<path d="M1537080 923941
L1537080 930607
" />
<path d="M1534699 920131
L1532318 927274
L1538508 927274
" />
</g><text x="1459484.000000" y="931084.000000"
textLength="19092.860000" font-size="13333.330000" lengthAdjust="spacingAndGlyphs"
text-anchor="middle" opacity="0">J5</text>
<g class="stroked-text"><desc>J5</desc>
<path d="M1456150 920607
L1456150 927750
L1455674 929179
L1454722 930131
L1453293 930607
L1452341 930607
" />
<path d="M1465674 920607
L1460912 920607
L1460436 925369
L1460912 924893
L1461864 924417
L1464245 924417
L1465198 924893
L1465674 925369
L1466150 926322
L1466150 928703
L1465674 929655
L1465198 930131
L1464245 930607
L1461864 930607
L1460912 930131
L1460436 929655
" />
</g><text x="1406144.000000" y="751252.000000"
textLength="19092.860000" font-size="13333.330000" lengthAdjust="spacingAndGlyphs"
text-anchor="middle" opacity="0">J6</text>
<g class="stroked-text"><desc>J6</desc>
<path d="M1402810 740775
L1402810 747918
L1402334 749347
L1401382 750299
L1399953 750775
L1399001 750775
" />
<path d="M1411858 740775
L1409953 740775
L1409001 741252
L1408524 741728
L1407572 743156
L1407096 745061
L1407096 748871
L1407572 749823
L1408048 750299
L1409001 750775
L1410905 750775
L1411858 750299
L1412334 749823
L1412810 748871
L1412810 746490
L1412334 745537
L1411858 745061
L1410905 744585
L1409001 744585
L1408048 745061
L1407572 745537
L1407096 746490
" />
</g><text x="1673098.000000" y="987218.000000"
textLength="29092.860000" font-size="13333.330000" lengthAdjust="spacingAndGlyphs"
text-anchor="middle" opacity="0">JP1</text>
<g class="stroked-text"><desc>JP1</desc>
<path d="M1664764 976741
L1664764 983884
L1664288 985313
L1663336 986265
L1661907 986741
L1660955 986741
" />
<path d="M1669526 986741
L1669526 976741
L1673336 976741
L1674288 977218
L1674764 977694
L1675240 978646
L1675240 980075
L1674764 981027
L1674288 981503
L1673336 981979
L1669526 981979
" />
<path d="M1684764 986741
L1679050 986741
" />
<path d="M1681907 986741
L1681907 976741
L1680955 978170
L1680002 979122
L1679050 979598
" />
</g><text x="1664462.000000" y="884094.000000"
textLength="21473.810000" font-size="13333.330000" lengthAdjust="spacingAndGlyphs"
text-anchor="middle" opacity="0">R1</text>
<g class="stroked-text"><desc>R1</desc>
<path d="M1662795 883617
L1659462 878855
" />
<path d="M1657081 883617
L1657081 873617
L1660890 873617
L1661842 874094
L1662319 874570
L1662795 875522
L1662795 876951
L1662319 877903
L1661842 878379
L1660890 878855
L1657081 878855
" />
<path d="M1672319 883617
L1666604 883617
" />
<path d="M1669462 883617
L1669462 873617
L1668509 875046
L1667557 875998
L1666604 876474
" />
</g><text x="1663700.000000" y="826700.000000"
textLength="21473.810000" font-size="13333.330000" lengthAdjust="spacingAndGlyphs"
text-anchor="middle" opacity="0">R2</text>
<g class="stroked-text"><desc>R2</desc>
<path d="M1662033 826223
L1658700 821461
" />
<path d="M1656319 826223
L1656319 816223
L1660128 816223
L1661080 816700
L1661557 817176
L1662033 818128
L1662033 819557
L1661557 820509
L1661080 820985
L1660128 821461
L1656319 821461
" />
<path d="M1665842 817176
L1666319 816700
L1667271 816223
L1669652 816223
L1670604 816700
L1671080 817176
L1671557 818128
L1671557 819080
L1671080 820509
L1665366 826223
L1671557 826223
" />
</g><text x="1589580.000000" y="780280.000000"
textLength="21473.810000" font-size="13333.330000" lengthAdjust="spacingAndGlyphs"
text-anchor="middle" opacity="0">R3</text>
<g class="stroked-text"><desc>R3</desc>
<path d="M1587913 779803
L1584580 775041
" />
<path d="M1582199 779803
L1582199 769803
L1586008 769803
L1586960 770280
L1587437 770756
L1587913 771708
L1587913 773137
L1587437 774089
L1586960 774565
L1586008 775041
L1582199 775041
" />
<path d="M1591246 769803
L1597437 769803
L1594103 773613
L1595532 773613
L1596484 774089
L1596960 774565
L1597437 775518
L1597437 777899
L1596960 778851
L1596484 779327
L1595532 779803
L1592675 779803
L1591722 779327
L1591246 778851
" />
</g><text x="1591056.000000" y="938196.000000"
textLength="21473.810000" font-size="13333.330000" lengthAdjust="spacingAndGlyphs"
text-anchor="middle" opacity="0">R4</text>
<g class="stroked-text"><desc>R4</desc>
<path d="M1589389 937719
L1586056 932957
" />
<path d="M1583675 937719
L1583675 927719
L1587484 927719
L1588436 928196
L1588913 928672
L1589389 929624
L1589389 931053
L1588913 932005
L1588436 932481
L1587484 932957
L1583675 932957
" />
<path d="M1597960 931053
L1597960 937719
" />
<path d="M1595579 927243
L1593198 934386
L1599389 934386
" />
</g><text x="1447800.000000" y="858694.000000"
textLength="21473.810000" font-size="13333.330000" lengthAdjust="spacingAndGlyphs"
text-anchor="middle" opacity="0">R5</text>
<g class="stroked-text"><desc>R5</desc>
<path d="M1446133 858217
L1442800 853455
" />
<path d="M1440419 858217
L1440419 848217
L1444228 848217
L1445180 848694
L1445657 849170
L1446133 850122
L1446133 851551
L1445657 852503
L1445180 852979
L1444228 853455
L1440419 853455
" />
<path d="M1455180 848217
L1450419 848217
L1449942 852979
L1450419 852503
L1451371 852027
L1453752 852027
L1454704 852503
L1455180 852979
L1455657 853932
L1455657 856313
L1455180 857265
L1454704 857741
L1453752 858217
L1451371 858217
L1450419 857741
L1449942 857265
" />
</g><text x="1473200.000000" y="682164.000000"
textLength="21473.810000" font-size="13333.330000" lengthAdjust="spacingAndGlyphs"
text-anchor="middle" opacity="0">R6</text>
<g class="stroked-text"><desc>R6</desc>
<path d="M1471533 681687
L1468200 676925
" />
<path d="M1465819 681687
L1465819 671687
L1469628 671687
L1470580 672164
L1471057 672640
L1471533 673592
L1471533 675021
L1471057 675973
L1470580 676449
L1469628 676925
L1465819 676925
" />
<path d="M1480104 671687
L1478200 671687
L1477247 672164
L1476771 672640
L1475819 674068
L1475342 675973
L1475342 679783
L1475819 680735
L1476295 681211
L1477247 681687
L1479152 681687
L1480104 681211
L1480580 680735
L1481057 679783
L1481057 677402
L1480580 676449
L1480104 675973
L1479152 675497
L1477247 675497
L1476295 675973
L1475819 676449
L1475342 677402
" />
</g><text x="1448562.000000" y="682672.000000"
textLength="21473.810000" font-size="13333.330000" lengthAdjust="spacingAndGlyphs"
text-anchor="middle" opacity="0">R7</text>
<g class="stroked-text"><desc>R7</desc>
<path d="M1446895 682195
L1443562 677433
" />
<path d="M1441181 682195
L1441181 672195
L1444990 672195
L1445942 672672
L1446419 673148
L1446895 674100
L1446895 675529
L1446419 676481
L1445942 676957
L1444990 677433
L1441181 677433
" />
<path d="M1450228 672195
L1456895 672195
L1452609 682195
" />
</g><text x="1703324.000000" y="856408.000000"
textLength="30045.240000" font-size="13333.330000" lengthAdjust="spacingAndGlyphs"
text-anchor="middle" opacity="0">VR1</text>
<g class="stroked-text"><desc>VR1</desc>
<path d="M1690228 845931
L1693562 855931
L1696895 845931
" />
<path d="M1705943 855931
L1702609 851169
" />
<path d="M1700228 855931
L1700228 845931
L1704038 845931
L1704990 846408
L1705466 846884
L1705943 847836
L1705943 849265
L1705466 850217
L1704990 850693
L1704038 851169
L1700228 851169
" />
<path d="M1715466 855931
L1709752 855931
" />
<path d="M1712609 855931
L1712609 845931
L1711657 847360
L1710704 848312
L1709752 848788
" />
</g><text x="1589278.000000" y="733278.000000"
textLength="20045.240000" font-size="13333.330000" lengthAdjust="spacingAndGlyphs"
text-anchor="middle" opacity="0">Y1</text>
<g class="stroked-text"><desc>Y1</desc>
<path d="M1584516 728039
L1584516 732801
" />
<path d="M1581182 722801
L1584516 728039
L1587849 722801
" />
<path d="M1596420 732801
L1590706 732801
" />
<path d="M1593563 732801
L1593563 722801
L1592611 724230
L1591658 725182
L1590706 725658
" />
</g><text x="1734312.000000" y="756332.000000"
textLength="19092.860000" font-size="13333.330000" lengthAdjust="spacingAndGlyphs"
text-anchor="middle" opacity="0">J2</text>
<g class="stroked-text"><desc>J2</desc>
<path d="M1730978 745855
L1730978 752998
L1730502 754427
L1729550 755379
L1728121 755855
L1727169 755855
" />
<path d="M1735264 746808
L1735740 746332
L1736692 745855
L1739073 745855
L1740026 746332
L1740502 746808
L1740978 747760
L1740978 748712
L1740502 750141
L1734788 755855
L1740978 755855
" />
</g><text x="1499616.000000" y="801290.000000"
textLength="21950.000000" font-size="13333.330000" lengthAdjust="spacingAndGlyphs"
text-anchor="middle" opacity="0">U1</text>
<g class="stroked-text"><desc>U1</desc>
<path d="M1491996 790813
L1491996 798909
L1492473 799861
L1492949 800337
L1493901 800813
L1495806 800813
L1496758 800337
L1497235 799861
L1497711 798909
L1497711 790813
" />
<path d="M1507711 800813
L1501996 800813
" />
<path d="M1504854 800813
L1504854 790813
L1503901 792242
L1502949 793194
L1501996 793670
" />
</g><text x="1702816.000000" y="806116.000000"
textLength="30045.240000" font-size="13333.330000" lengthAdjust="spacingAndGlyphs"
text-anchor="middle" opacity="0">VR2</text>
<g class="stroked-text"><desc>VR2</desc>
<path d="M1689720 795639
L1693054 805639
L1696387 795639
" />
<path d="M1705435 805639
L1702101 800877
" />
<path d="M1699720 805639
L1699720 795639
L1703530 795639
L1704482 796116
L1704958 796592
L1705435 797544
L1705435 798973
L1704958 799925
L1704482 800401
L1703530 800877
L1699720 800877
" />
<path d="M1709244 796592
L1709720 796116
L1710673 795639
L1713054 795639
L1714006 796116
L1714482 796592
L1714958 797544
L1714958 798496
L1714482 799925
L1708768 805639
L1714958 805639
" />
</g><text x="1623568.000000" y="800528.000000"
textLength="21473.810000" font-size="13333.330000" lengthAdjust="spacingAndGlyphs"
text-anchor="middle" opacity="0">C6</text>
<g class="stroked-text"><desc>C6</desc>
<path d="M1621901 799099
L1621425 799575
L1619996 800051
L1619044 800051
L1617615 799575
L1616663 798623
L1616187 797670
L1615710 795766
L1615710 794337
L1616187 792432
L1616663 791480
L1617615 790528
L1619044 790051
L1619996 790051
L1621425 790528
L1621901 791004
" />
<path d="M1630472 790051
L1628568 790051
L1627615 790528
L1627139 791004
L1626187 792432
L1625710 794337
L1625710 798147
L1626187 799099
L1626663 799575
L1627615 800051
L1629520 800051
L1630472 799575
L1630948 799099
L1631425 798147
L1631425 795766
L1630948 794813
L1630472 794337
L1629520 793861
L1627615 793861
L1626663 794337
L1626187 794813
L1625710 795766
" />
</g></g>
<g style="fill:#000000; fill-opacity:0.0; 
stroke:#000000; stroke-width:1200.000000; stroke-opacity:1; 
stroke-linecap:round; stroke-linejoin:round;">
<path d="M1276398 906344
L1265754 916988
" />
<path d="M1333454 893944
L1333454 903944
" />
<path d="M1350954 991544
L1323454 991544
" />
<path d="M1276398 906344
L1293254 906344
" />
<path d="M1265754 991544
L1293254 991544
" />
<path d="M1265754 916988
L1265754 991544
" />
<path d="M1340309 906344
L1350954 916988
" />
<path d="M1350954 916988
L1350954 991544
" />
<path d="M1338454 898944
L1328454 898944
" />
<path d="M1340309 906344
L1323454 906344
" />
<path d="M1227414 901900
L1232585 901900
" />
<path d="M1227414 916100
L1232585 916100
" />
<path d="M1615500 748574
L1615500 753745
" />
<path d="M1629700 748574
L1629700 753745
" />
<path d="M1566200 748574
L1566200 753745
" />
<path d="M1552000 748574
L1552000 753745
" />
<path d="M1640320 888954
L1640320 894125
" />
<path d="M1626120 888954
L1626120 894125
" />
<path d="M1537162 781570
L1542333 781570
" />
<path d="M1537162 795770
L1542333 795770
" />
<path d="M1454646 792271
L1454646 787100
" />
<path d="M1440446 792271
L1440446 787100
" />
<path d="M1639490 990590
L1639490 951740
" />
<path d="M1616790 951740
L1616790 990590
" />
<path d="M1616790 990590
L1639490 990590
" />
<path d="M1463600 766350
L1482800 766350
" />
<path d="M1463600 739500
L1463600 766350
" />
<path d="M1482800 766350
L1482800 739500
" />
<path d="M1438200 766350
L1457400 766350
" />
<path d="M1457400 766350
L1457400 739500
" />
<path d="M1438200 739500
L1438200 766350
" />
<path d="M1665077 755060
L1692802 755060
" />
<path d="M1665077 789260
L1692802 789260
" />
<path d="M1681525 913880
L1676354 913880
" />
<path d="M1681525 899680
L1676354 899680
" />
<path d="M1213000 842000
L1261000 842000
" />
<path d="M1231800 739400
L1218400 739400
" />
<path d="M1306000 857600
L1329100 857600
" />
<path d="M1179900 766400
L1216000 766400
" />
<path d="M1306000 766400
L1329100 766400
" />
<path d="M1179900 857600
L1216000 857600
" />
<path d="M1213000 782000
L1261000 782000
" />
<path d="M1246000 857600
L1276000 857600
" />
<path d="M1213000 857600
L1213000 766400
" />
<path d="M1179900 857600
L1179900 766400
" />
<path d="M1218400 739400
L1218400 758400
" />
<path d="M1246000 766400
L1276000 766400
" />
<path d="M1329100 857600
L1329100 766400
" />
<path d="M1261000.000000 842000.000000 A30000.000000 30000.000000 0.0 0 0 1261000.000000 782000.000000" />
<path d="M1349700 782300
L1349700 680100
" />
<path d="M1376300 782300
L1376300 680100
" />
<path d="M1376300 795000
L1376300 808300
" />
<path d="M1376300 808300
L1363000 808300
" />
<path d="M1376300 782300
L1349700 782300
" />
<path d="M1376300 680100
L1349700 680100
" />
<path d="M1505620 991200
L1557620 991200
" />
<path d="M1531620 939200
L1557620 939200
" />
<path d="M1531620 965200
L1531620 939200
" />
<path d="M1505620 965200
L1531620 965200
" />
<path d="M1505620 939200
L1518920 939200
" />
<path d="M1557620 939200
L1557620 991200
" />
<path d="M1505620 965200
L1505620 991200
" />
<path d="M1505620 952500
L1505620 939200
" />
<path d="M1397924 990946
L1397924 977646
" />
<path d="M1411224 990946
L1397924 990946
" />
<path d="M1397924 938946
L1475324 938946
" />
<path d="M1475324 990946
L1475324 938946
" />
<path d="M1397924 964946
L1397924 938946
" />
<path d="M1423924 990946
L1475324 990946
" />
<path d="M1423924 990946
L1423924 964946
" />
<path d="M1423924 964946
L1397924 964946
" />
<path d="M1396400 784860
L1396400 912460
" />
<path d="M1423000 784860
L1423000 912460
" />
<path d="M1396400 912460
L1423000 912460
" />
<path d="M1396400 784860
L1423000 784860
" />
<path d="M1396400 758860
L1409700 758860
" />
<path d="M1396400 772160
L1396400 758860
" />
<path d="M1675590 971834
L1669590 971834
" />
<path d="M1662590 964834
L1662590 950834
" />
<path d="M1682590 950834
L1682590 964834
" />
<path d="M1669590 943834
L1675590 943834
" />
<path d="M1669590.000000 943834.000000 A6999.990000 6999.990000 0.0 0 0 1662590.000000 950834.000000" />
<path d="M1682590.000000 950834.000000 A6999.990000 6999.990000 0.0 0 0 1675590.000000 943834.000000" />
<path d="M1662590.000000 964834.000000 A7000.000000 7000.000000 0.0 0 0 1669590.000000 971834.000000" />
<path d="M1675590.000000 971834.000000 A7000.000000 7000.000000 0.0 0 0 1682590.000000 964834.000000" />
<path d="M1661114 853960
L1666285 853960
" />
<path d="M1661114 868160
L1666285 868160
" />
<path d="M1661114 845300
L1666285 845300
" />
<path d="M1661114 831100
L1666285 831100
" />
<path d="M1592165 765880
L1586994 765880
" />
<path d="M1592165 751680
L1586994 751680
" />
<path d="M1582940 960165
L1582940 954994
" />
<path d="M1597140 960165
L1597140 954994
" />
<path d="M1454646 825454
L1454646 830625
" />
<path d="M1440446 825454
L1440446 830625
" />
<path d="M1480300 699162
L1480300 704333
" />
<path d="M1466100 699162
L1466100 704333
" />
<path d="M1440700 699162
L1440700 704333
" />
<path d="M1454900 699162
L1454900 704333
" />
<path d="M1709440 871877
L1709440 875132
" />
<path d="M1699240 871877
L1699240 875132
" />
<path d="M1621278 718278
L1621278 682278
" />
<path d="M1621278 682278
L1562278 682278
" />
<path d="M1562278 718278
L1621278 718278
" />
<path d="M1721320 766740
L1758820 766740
" />
<path d="M1887520 766740
L1807820 766740
" />
<path d="M1714320 810340
L1714320 820340
" />
<path d="M1719320 815340
L1714320 810340
" />
<path d="M1721320 888940
L1721320 766740
" />
<path d="M1887520 888940
L1807820 888940
" />
<path d="M1887520 888940
L1887520 766740
" />
<path d="M1714320 820340
L1719320 815340
" />
<path d="M1721320 888940
L1758820 888940
" />
</g>
<g style="fill:#000000; fill-opacity:0.0; 
stroke:#000000; stroke-width:1500.000000; stroke-opacity:1; 
stroke-linecap:round; stroke-linejoin:round;">
<path d="M1580570 894770
L1577320 894770
" />
<path d="M1580570 894770
L1580570 891520
" />
<path d="M1508070 822270
L1511320 822270
" />
<path d="M1508070 894770
L1511320 894770
" />
<path d="M1580570 822270
L1578320 822270
" />
<path d="M1580570 822270
L1580570 825520
" />
<path d="M1508070 822270
L1508070 825520
" />
<path d="M1578320 822270
L1578320 808020
" />
<path d="M1508070 894770
L1508070 891520
" />
</g>
<g style="fill:#000000; fill-opacity:0.0; 
stroke:#000000; stroke-width:1200.000000; stroke-opacity:1; 
stroke-linecap:round; stroke-linejoin:round;">
<path d="M1709440 824841
L1709440 821586
" />
<path d="M1699240 824841
L1699240 821586
" />
<path d="M1616722 823259
L1616722 818088
" />
<path d="M1630922 823259
L1630922 818088
" />
<g >
</g>
<g >
</g>
<g >
</g>
<g >
</g>
<g >
</g>
<g >
</g>
<g >
</g>
<g >
</g>
<g >
</g>
<g >
</g>
<g >
</g>
<g >
</g>
<g >
</g>
<g >
</g>
<g >
</g>
<g >
</g>
<g >
</g>
<g >
</g>
<g >
</g>
<g >
</g>
<g >
</g>
<g >
</g>
<g >
</g>
<g >
</g>
<g >
</g>
<g >
</g>
<g >
</g>
<g >
</g>
<g >
</g>
<g >
</g>
<g >
</g>
<g >
</g>
<g >
</g>
<g >
</g>
<g >
</g>
<g >
</g>
<g >
</g>
<g >
</g>
<g >
</g>
<g >
</g>
<g >
</g>
<g >
</g>
<g >
</g>
<g >
</g>
<g >
</g>
<g >
</g>
<g >
</g>
<g >
</g>
<g >
</g>
<g >
</g>
</g> 
</svg>
