<?xml version="1.0" standalone="no"?>
 <!DOCTYPE svg PUBLIC "-//W3C//DTD SVG 1.1//EN" 
 "http://www.w3.org/Graphics/SVG/1.1/DTD/svg11.dtd"> 
<svg
  xmlns:svg="http://www.w3.org/2000/svg"
  xmlns="http://www.w3.org/2000/svg"
  xmlns:xlink="http://www.w3.org/1999/xlink"
  version="1.1"
  width="29.700220cm" height="21.000720cm" viewBox="0 0 297002200 210007200">
<title>SVG Picture created as t1-F_Paste.svg date 2022/09/27 16:50:26 </title>
  <desc>Picture generated by PCBNEW </desc>
<g style="fill:#000000; fill-opacity:1.000000;stroke:#000000; stroke-opacity:1.000000;
stroke-linecap:round; stroke-linejoin:round;"
 transform="translate(0 0) scale(1 1)">
</g>
<g style="fill:#000000; fill-opacity:0.0; 
stroke:#000000; stroke-width:0.000000; stroke-opacity:1; 
stroke-linecap:round; stroke-linejoin:round;">
<g >
</g>
<g style="fill:#000000; fill-opacity:0.0; 
stroke:#000000; stroke-width:1.000000; stroke-opacity:1; 
stroke-linecap:round; stroke-linejoin:round;">
</g>
<g style="fill:#000000; fill-opacity:1.0; 
stroke:#000000; stroke-width:1.000000; stroke-opacity:1; 
stroke-linecap:round; stroke-linejoin:round;">
<path style="fill:#000000; fill-opacity:1.0; 
stroke:#000000; stroke-width:1.000000; stroke-opacity:1; 
stroke-linecap:round; stroke-linejoin:round;fill-rule:evenodd;"
d="M 131835400.000000,89894400.000000
131931071.000000,89913430.000000
132012177.000000,89967623.000000
132066370.000000,90048729.000000
132085400.000000,90144400.000000
132085400.000000,93144400.000000
132066370.000000,93240071.000000
132012177.000000,93321177.000000
131931071.000000,93375370.000000
131835400.000000,93394400.000000
129835400.000000,93394400.000000
129739729.000000,93375370.000000
129658623.000000,93321177.000000
129604430.000000,93240071.000000
129585400.000000,93144400.000000
129585400.000000,90144400.000000
129604430.000000,90048729.000000
129658623.000000,89967623.000000
129739729.000000,89913430.000000
129835400.000000,89894400.000000
Z" /> 
<path style="fill:#000000; fill-opacity:1.0; 
stroke:#000000; stroke-width:1.000000; stroke-opacity:1; 
stroke-linecap:round; stroke-linejoin:round;fill-rule:evenodd;"
d="M 131835400.000000,96394400.000000
131931071.000000,96413430.000000
132012177.000000,96467623.000000
132066370.000000,96548729.000000
132085400.000000,96644400.000000
132085400.000000,99644400.000000
132066370.000000,99740071.000000
132012177.000000,99821177.000000
131931071.000000,99875370.000000
131835400.000000,99894400.000000
129835400.000000,99894400.000000
129739729.000000,99875370.000000
129658623.000000,99821177.000000
129604430.000000,99740071.000000
129585400.000000,99644400.000000
129585400.000000,96644400.000000
129604430.000000,96548729.000000
129658623.000000,96467623.000000
129739729.000000,96413430.000000
129835400.000000,96394400.000000
Z" /> 
</g>
<g >
</g>
<g style="fill:#000000; fill-opacity:1.0; 
stroke:#000000; stroke-width:1.000000; stroke-opacity:1; 
stroke-linecap:round; stroke-linejoin:round;">
<path style="fill:#000000; fill-opacity:1.0; 
stroke:#000000; stroke-width:1.000000; stroke-opacity:1; 
stroke-linecap:round; stroke-linejoin:round;fill-rule:evenodd;"
d="M 121575000.000000,90443750.000000
121593554.000000,90350471.000000
121646393.000000,90271393.000000
121725471.000000,90218554.000000
121818750.000000,90200000.000000
122306250.000000,90200000.000000
122399529.000000,90218554.000000
122478607.000000,90271393.000000
122531446.000000,90350471.000000
122550000.000000,90443750.000000
122550000.000000,91356250.000000
122531446.000000,91449529.000000
122478607.000000,91528607.000000
122399529.000000,91581446.000000
122306250.000000,91600000.000000
121818750.000000,91600000.000000
121725471.000000,91581446.000000
121646393.000000,91528607.000000
121593554.000000,91449529.000000
121575000.000000,91356250.000000
Z" /> 
<path style="fill:#000000; fill-opacity:1.0; 
stroke:#000000; stroke-width:1.000000; stroke-opacity:1; 
stroke-linecap:round; stroke-linejoin:round;fill-rule:evenodd;"
d="M 123450000.000000,90443750.000000
123468554.000000,90350471.000000
123521393.000000,90271393.000000
123600471.000000,90218554.000000
123693750.000000,90200000.000000
124181250.000000,90200000.000000
124274529.000000,90218554.000000
124353607.000000,90271393.000000
124406446.000000,90350471.000000
124425000.000000,90443750.000000
124425000.000000,91356250.000000
124406446.000000,91449529.000000
124353607.000000,91528607.000000
124274529.000000,91581446.000000
124181250.000000,91600000.000000
123693750.000000,91600000.000000
123600471.000000,91581446.000000
123521393.000000,91528607.000000
123468554.000000,91449529.000000
123450000.000000,91356250.000000
Z" /> 
</g>
<g >
</g>
<g style="fill:#000000; fill-opacity:1.0; 
stroke:#000000; stroke-width:1.000000; stroke-opacity:1; 
stroke-linecap:round; stroke-linejoin:round;">
<path style="fill:#000000; fill-opacity:1.0; 
stroke:#000000; stroke-width:1.000000; stroke-opacity:1; 
stroke-linecap:round; stroke-linejoin:round;fill-rule:evenodd;"
d="M 162716250.000000,73691000.000000
162809529.000000,73709554.000000
162888607.000000,73762393.000000
162941446.000000,73841471.000000
162960000.000000,73934750.000000
162960000.000000,74422250.000000
162941446.000000,74515529.000000
162888607.000000,74594607.000000
162809529.000000,74647446.000000
162716250.000000,74666000.000000
161803750.000000,74666000.000000
161710471.000000,74647446.000000
161631393.000000,74594607.000000
161578554.000000,74515529.000000
161560000.000000,74422250.000000
161560000.000000,73934750.000000
161578554.000000,73841471.000000
161631393.000000,73762393.000000
161710471.000000,73709554.000000
161803750.000000,73691000.000000
Z" /> 
<path style="fill:#000000; fill-opacity:1.0; 
stroke:#000000; stroke-width:1.000000; stroke-opacity:1; 
stroke-linecap:round; stroke-linejoin:round;fill-rule:evenodd;"
d="M 162716250.000000,75566000.000000
162809529.000000,75584554.000000
162888607.000000,75637393.000000
162941446.000000,75716471.000000
162960000.000000,75809750.000000
162960000.000000,76297250.000000
162941446.000000,76390529.000000
162888607.000000,76469607.000000
162809529.000000,76522446.000000
162716250.000000,76541000.000000
161803750.000000,76541000.000000
161710471.000000,76522446.000000
161631393.000000,76469607.000000
161578554.000000,76390529.000000
161560000.000000,76297250.000000
161560000.000000,75809750.000000
161578554.000000,75716471.000000
161631393.000000,75637393.000000
161710471.000000,75584554.000000
161803750.000000,75566000.000000
Z" /> 
</g>
<g >
</g>
<g style="fill:#000000; fill-opacity:1.0; 
stroke:#000000; stroke-width:1.000000; stroke-opacity:1; 
stroke-linecap:round; stroke-linejoin:round;">
<path style="fill:#000000; fill-opacity:1.0; 
stroke:#000000; stroke-width:1.000000; stroke-opacity:1; 
stroke-linecap:round; stroke-linejoin:round;fill-rule:evenodd;"
d="M 156366250.000000,73691000.000000
156459529.000000,73709554.000000
156538607.000000,73762393.000000
156591446.000000,73841471.000000
156610000.000000,73934750.000000
156610000.000000,74422250.000000
156591446.000000,74515529.000000
156538607.000000,74594607.000000
156459529.000000,74647446.000000
156366250.000000,74666000.000000
155453750.000000,74666000.000000
155360471.000000,74647446.000000
155281393.000000,74594607.000000
155228554.000000,74515529.000000
155210000.000000,74422250.000000
155210000.000000,73934750.000000
155228554.000000,73841471.000000
155281393.000000,73762393.000000
155360471.000000,73709554.000000
155453750.000000,73691000.000000
Z" /> 
<path style="fill:#000000; fill-opacity:1.0; 
stroke:#000000; stroke-width:1.000000; stroke-opacity:1; 
stroke-linecap:round; stroke-linejoin:round;fill-rule:evenodd;"
d="M 156366250.000000,75566000.000000
156459529.000000,75584554.000000
156538607.000000,75637393.000000
156591446.000000,75716471.000000
156610000.000000,75809750.000000
156610000.000000,76297250.000000
156591446.000000,76390529.000000
156538607.000000,76469607.000000
156459529.000000,76522446.000000
156366250.000000,76541000.000000
155453750.000000,76541000.000000
155360471.000000,76522446.000000
155281393.000000,76469607.000000
155228554.000000,76390529.000000
155210000.000000,76297250.000000
155210000.000000,75809750.000000
155228554.000000,75716471.000000
155281393.000000,75637393.000000
155360471.000000,75584554.000000
155453750.000000,75566000.000000
Z" /> 
</g>
<g >
</g>
<g style="fill:#000000; fill-opacity:1.0; 
stroke:#000000; stroke-width:1.000000; stroke-opacity:1; 
stroke-linecap:round; stroke-linejoin:round;">
<path style="fill:#000000; fill-opacity:1.0; 
stroke:#000000; stroke-width:1.000000; stroke-opacity:1; 
stroke-linecap:round; stroke-linejoin:round;fill-rule:evenodd;"
d="M 163778250.000000,87729000.000000
163871529.000000,87747554.000000
163950607.000000,87800393.000000
164003446.000000,87879471.000000
164022000.000000,87972750.000000
164022000.000000,88460250.000000
164003446.000000,88553529.000000
163950607.000000,88632607.000000
163871529.000000,88685446.000000
163778250.000000,88704000.000000
162865750.000000,88704000.000000
162772471.000000,88685446.000000
162693393.000000,88632607.000000
162640554.000000,88553529.000000
162622000.000000,88460250.000000
162622000.000000,87972750.000000
162640554.000000,87879471.000000
162693393.000000,87800393.000000
162772471.000000,87747554.000000
162865750.000000,87729000.000000
Z" /> 
<path style="fill:#000000; fill-opacity:1.0; 
stroke:#000000; stroke-width:1.000000; stroke-opacity:1; 
stroke-linecap:round; stroke-linejoin:round;fill-rule:evenodd;"
d="M 163778250.000000,89604000.000000
163871529.000000,89622554.000000
163950607.000000,89675393.000000
164003446.000000,89754471.000000
164022000.000000,89847750.000000
164022000.000000,90335250.000000
164003446.000000,90428529.000000
163950607.000000,90507607.000000
163871529.000000,90560446.000000
163778250.000000,90579000.000000
162865750.000000,90579000.000000
162772471.000000,90560446.000000
162693393.000000,90507607.000000
162640554.000000,90428529.000000
162622000.000000,90335250.000000
162622000.000000,89847750.000000
162640554.000000,89754471.000000
162693393.000000,89675393.000000
162772471.000000,89622554.000000
162865750.000000,89604000.000000
Z" /> 
</g>
<g >
</g>
<g style="fill:#000000; fill-opacity:1.0; 
stroke:#000000; stroke-width:1.000000; stroke-opacity:1; 
stroke-linecap:round; stroke-linejoin:round;">
<path style="fill:#000000; fill-opacity:1.0; 
stroke:#000000; stroke-width:1.000000; stroke-opacity:1; 
stroke-linecap:round; stroke-linejoin:round;fill-rule:evenodd;"
d="M 152549800.000000,78410750.000000
152568354.000000,78317471.000000
152621193.000000,78238393.000000
152700271.000000,78185554.000000
152793550.000000,78167000.000000
153281050.000000,78167000.000000
153374329.000000,78185554.000000
153453407.000000,78238393.000000
153506246.000000,78317471.000000
153524800.000000,78410750.000000
153524800.000000,79323250.000000
153506246.000000,79416529.000000
153453407.000000,79495607.000000
153374329.000000,79548446.000000
153281050.000000,79567000.000000
152793550.000000,79567000.000000
152700271.000000,79548446.000000
152621193.000000,79495607.000000
152568354.000000,79416529.000000
152549800.000000,79323250.000000
Z" /> 
<path style="fill:#000000; fill-opacity:1.0; 
stroke:#000000; stroke-width:1.000000; stroke-opacity:1; 
stroke-linecap:round; stroke-linejoin:round;fill-rule:evenodd;"
d="M 154424800.000000,78410750.000000
154443354.000000,78317471.000000
154496193.000000,78238393.000000
154575271.000000,78185554.000000
154668550.000000,78167000.000000
155156050.000000,78167000.000000
155249329.000000,78185554.000000
155328407.000000,78238393.000000
155381246.000000,78317471.000000
155399800.000000,78410750.000000
155399800.000000,79323250.000000
155381246.000000,79416529.000000
155328407.000000,79495607.000000
155249329.000000,79548446.000000
155156050.000000,79567000.000000
154668550.000000,79567000.000000
154575271.000000,79548446.000000
154496193.000000,79495607.000000
154443354.000000,79416529.000000
154424800.000000,79323250.000000
Z" /> 
</g>
<g >
</g>
<g style="fill:#000000; fill-opacity:1.0; 
stroke:#000000; stroke-width:1.000000; stroke-opacity:1; 
stroke-linecap:round; stroke-linejoin:round;">
<path style="fill:#000000; fill-opacity:1.0; 
stroke:#000000; stroke-width:1.000000; stroke-opacity:1; 
stroke-linecap:round; stroke-linejoin:round;fill-rule:evenodd;"
d="M 144298350.000000,80393600.000000
144205071.000000,80375046.000000
144125993.000000,80322207.000000
144073154.000000,80243129.000000
144054600.000000,80149850.000000
144054600.000000,79662350.000000
144073154.000000,79569071.000000
144125993.000000,79489993.000000
144205071.000000,79437154.000000
144298350.000000,79418600.000000
145210850.000000,79418600.000000
145304129.000000,79437154.000000
145383207.000000,79489993.000000
145436046.000000,79569071.000000
145454600.000000,79662350.000000
145454600.000000,80149850.000000
145436046.000000,80243129.000000
145383207.000000,80322207.000000
145304129.000000,80375046.000000
145210850.000000,80393600.000000
Z" /> 
<path style="fill:#000000; fill-opacity:1.0; 
stroke:#000000; stroke-width:1.000000; stroke-opacity:1; 
stroke-linecap:round; stroke-linejoin:round;fill-rule:evenodd;"
d="M 144298350.000000,78518600.000000
144205071.000000,78500046.000000
144125993.000000,78447207.000000
144073154.000000,78368129.000000
144054600.000000,78274850.000000
144054600.000000,77787350.000000
144073154.000000,77694071.000000
144125993.000000,77614993.000000
144205071.000000,77562154.000000
144298350.000000,77543600.000000
145210850.000000,77543600.000000
145304129.000000,77562154.000000
145383207.000000,77614993.000000
145436046.000000,77694071.000000
145454600.000000,77787350.000000
145454600.000000,78274850.000000
145436046.000000,78368129.000000
145383207.000000,78447207.000000
145304129.000000,78500046.000000
145210850.000000,78518600.000000
Z" /> 
</g>
<g >
</g>
<g style="fill:#000000; fill-opacity:1.0; 
stroke:#000000; stroke-width:1.000000; stroke-opacity:1; 
stroke-linecap:round; stroke-linejoin:round;">
<path style="fill:#000000; fill-opacity:1.0; 
stroke:#000000; stroke-width:1.000000; stroke-opacity:1; 
stroke-linecap:round; stroke-linejoin:round;fill-rule:evenodd;"
d="M 162189000.000000,98799000.000000
162093329.000000,98779970.000000
162012223.000000,98725777.000000
161958030.000000,98644671.000000
161939000.000000,98549000.000000
161939000.000000,97799000.000000
161958030.000000,97703329.000000
162012223.000000,97622223.000000
162093329.000000,97568030.000000
162189000.000000,97549000.000000
163439000.000000,97549000.000000
163534671.000000,97568030.000000
163615777.000000,97622223.000000
163669970.000000,97703329.000000
163689000.000000,97799000.000000
163689000.000000,98549000.000000
163669970.000000,98644671.000000
163615777.000000,98725777.000000
163534671.000000,98779970.000000
163439000.000000,98799000.000000
Z" /> 
<path style="fill:#000000; fill-opacity:1.0; 
stroke:#000000; stroke-width:1.000000; stroke-opacity:1; 
stroke-linecap:round; stroke-linejoin:round;fill-rule:evenodd;"
d="M 162189000.000000,95999000.000000
162093329.000000,95979970.000000
162012223.000000,95925777.000000
161958030.000000,95844671.000000
161939000.000000,95749000.000000
161939000.000000,94999000.000000
161958030.000000,94903329.000000
162012223.000000,94822223.000000
162093329.000000,94768030.000000
162189000.000000,94749000.000000
163439000.000000,94749000.000000
163534671.000000,94768030.000000
163615777.000000,94822223.000000
163669970.000000,94903329.000000
163689000.000000,94999000.000000
163689000.000000,95749000.000000
163669970.000000,95844671.000000
163615777.000000,95925777.000000
163534671.000000,95979970.000000
163439000.000000,95999000.000000
Z" /> 
</g>
<g >
</g>
<g style="fill:#000000; fill-opacity:1.0; 
stroke:#000000; stroke-width:1.000000; stroke-opacity:1; 
stroke-linecap:round; stroke-linejoin:round;">
<path style="fill:#000000; fill-opacity:1.0; 
stroke:#000000; stroke-width:1.000000; stroke-opacity:1; 
stroke-linecap:round; stroke-linejoin:round;fill-rule:evenodd;"
d="M 146863750.000000,76375000.000000
146770471.000000,76356446.000000
146691393.000000,76303607.000000
146638554.000000,76224529.000000
146620000.000000,76131250.000000
146620000.000000,75643750.000000
146638554.000000,75550471.000000
146691393.000000,75471393.000000
146770471.000000,75418554.000000
146863750.000000,75400000.000000
147776250.000000,75400000.000000
147869529.000000,75418554.000000
147948607.000000,75471393.000000
148001446.000000,75550471.000000
148020000.000000,75643750.000000
148020000.000000,76131250.000000
148001446.000000,76224529.000000
147948607.000000,76303607.000000
147869529.000000,76356446.000000
147776250.000000,76375000.000000
Z" /> 
<path style="fill:#000000; fill-opacity:1.0; 
stroke:#000000; stroke-width:1.000000; stroke-opacity:1; 
stroke-linecap:round; stroke-linejoin:round;fill-rule:evenodd;"
d="M 146863750.000000,74500000.000000
146770471.000000,74481446.000000
146691393.000000,74428607.000000
146638554.000000,74349529.000000
146620000.000000,74256250.000000
146620000.000000,73768750.000000
146638554.000000,73675471.000000
146691393.000000,73596393.000000
146770471.000000,73543554.000000
146863750.000000,73525000.000000
147776250.000000,73525000.000000
147869529.000000,73543554.000000
147948607.000000,73596393.000000
148001446.000000,73675471.000000
148020000.000000,73768750.000000
148020000.000000,74256250.000000
148001446.000000,74349529.000000
147948607.000000,74428607.000000
147869529.000000,74481446.000000
147776250.000000,74500000.000000
Z" /> 
</g>
<g >
</g>
<g style="fill:#000000; fill-opacity:1.0; 
stroke:#000000; stroke-width:1.000000; stroke-opacity:1; 
stroke-linecap:round; stroke-linejoin:round;">
<path style="fill:#000000; fill-opacity:1.0; 
stroke:#000000; stroke-width:1.000000; stroke-opacity:1; 
stroke-linecap:round; stroke-linejoin:round;fill-rule:evenodd;"
d="M 144323750.000000,76375000.000000
144230471.000000,76356446.000000
144151393.000000,76303607.000000
144098554.000000,76224529.000000
144080000.000000,76131250.000000
144080000.000000,75643750.000000
144098554.000000,75550471.000000
144151393.000000,75471393.000000
144230471.000000,75418554.000000
144323750.000000,75400000.000000
145236250.000000,75400000.000000
145329529.000000,75418554.000000
145408607.000000,75471393.000000
145461446.000000,75550471.000000
145480000.000000,75643750.000000
145480000.000000,76131250.000000
145461446.000000,76224529.000000
145408607.000000,76303607.000000
145329529.000000,76356446.000000
145236250.000000,76375000.000000
Z" /> 
<path style="fill:#000000; fill-opacity:1.0; 
stroke:#000000; stroke-width:1.000000; stroke-opacity:1; 
stroke-linecap:round; stroke-linejoin:round;fill-rule:evenodd;"
d="M 144323750.000000,74500000.000000
144230471.000000,74481446.000000
144151393.000000,74428607.000000
144098554.000000,74349529.000000
144080000.000000,74256250.000000
144080000.000000,73768750.000000
144098554.000000,73675471.000000
144151393.000000,73596393.000000
144230471.000000,73543554.000000
144323750.000000,73525000.000000
145236250.000000,73525000.000000
145329529.000000,73543554.000000
145408607.000000,73596393.000000
145461446.000000,73675471.000000
145480000.000000,73768750.000000
145480000.000000,74256250.000000
145461446.000000,74349529.000000
145408607.000000,74428607.000000
145329529.000000,74481446.000000
145236250.000000,74500000.000000
Z" /> 
</g>
<g >
</g>
<g style="fill:#000000; fill-opacity:1.0; 
stroke:#000000; stroke-width:1.000000; stroke-opacity:1; 
stroke-linecap:round; stroke-linejoin:round;">
<path style="fill:#000000; fill-opacity:1.0; 
stroke:#000000; stroke-width:1.000000; stroke-opacity:1; 
stroke-linecap:round; stroke-linejoin:round;fill-rule:evenodd;"
d="M 165194000.000000,75766000.000000
165213030.000000,75670329.000000
165267223.000000,75589223.000000
165348329.000000,75535030.000000
165444000.000000,75516000.000000
166069000.000000,75516000.000000
166164671.000000,75535030.000000
166245777.000000,75589223.000000
166299970.000000,75670329.000000
166319000.000000,75766000.000000
166319000.000000,78666000.000000
166299970.000000,78761671.000000
166245777.000000,78842777.000000
166164671.000000,78896970.000000
166069000.000000,78916000.000000
165444000.000000,78916000.000000
165348329.000000,78896970.000000
165267223.000000,78842777.000000
165213030.000000,78761671.000000
165194000.000000,78666000.000000
Z" /> 
<path style="fill:#000000; fill-opacity:1.0; 
stroke:#000000; stroke-width:1.000000; stroke-opacity:1; 
stroke-linecap:round; stroke-linejoin:round;fill-rule:evenodd;"
d="M 169469000.000000,75766000.000000
169488030.000000,75670329.000000
169542223.000000,75589223.000000
169623329.000000,75535030.000000
169719000.000000,75516000.000000
170344000.000000,75516000.000000
170439671.000000,75535030.000000
170520777.000000,75589223.000000
170574970.000000,75670329.000000
170594000.000000,75766000.000000
170594000.000000,78666000.000000
170574970.000000,78761671.000000
170520777.000000,78842777.000000
170439671.000000,78896970.000000
170344000.000000,78916000.000000
169719000.000000,78916000.000000
169623329.000000,78896970.000000
169542223.000000,78842777.000000
169488030.000000,78761671.000000
169469000.000000,78666000.000000
Z" /> 
</g>
<g >
</g>
<g style="fill:#000000; fill-opacity:1.0; 
stroke:#000000; stroke-width:1.000000; stroke-opacity:1; 
stroke-linecap:round; stroke-linejoin:round;">
<path style="fill:#000000; fill-opacity:1.0; 
stroke:#000000; stroke-width:1.000000; stroke-opacity:1; 
stroke-linecap:round; stroke-linejoin:round;fill-rule:evenodd;"
d="M 169319000.000000,91134250.000000
169300446.000000,91227529.000000
169247607.000000,91306607.000000
169168529.000000,91359446.000000
169075250.000000,91378000.000000
168587750.000000,91378000.000000
168494471.000000,91359446.000000
168415393.000000,91306607.000000
168362554.000000,91227529.000000
168344000.000000,91134250.000000
168344000.000000,90221750.000000
168362554.000000,90128471.000000
168415393.000000,90049393.000000
168494471.000000,89996554.000000
168587750.000000,89978000.000000
169075250.000000,89978000.000000
169168529.000000,89996554.000000
169247607.000000,90049393.000000
169300446.000000,90128471.000000
169319000.000000,90221750.000000
Z" /> 
<path style="fill:#000000; fill-opacity:1.0; 
stroke:#000000; stroke-width:1.000000; stroke-opacity:1; 
stroke-linecap:round; stroke-linejoin:round;fill-rule:evenodd;"
d="M 167444000.000000,91134250.000000
167425446.000000,91227529.000000
167372607.000000,91306607.000000
167293529.000000,91359446.000000
167200250.000000,91378000.000000
166712750.000000,91378000.000000
166619471.000000,91359446.000000
166540393.000000,91306607.000000
166487554.000000,91227529.000000
166469000.000000,91134250.000000
166469000.000000,90221750.000000
166487554.000000,90128471.000000
166540393.000000,90049393.000000
166619471.000000,89996554.000000
166712750.000000,89978000.000000
167200250.000000,89978000.000000
167293529.000000,89996554.000000
167372607.000000,90049393.000000
167425446.000000,90128471.000000
167444000.000000,90221750.000000
Z" /> 
</g>
<g >
</g>
<g >
</g>
<g >
</g>
<g >
</g>
<g >
</g>
<g >
</g>
<g >
</g>
<g >
</g>
<g >
</g>
<g style="fill:#000000; fill-opacity:1.0; 
stroke:#000000; stroke-width:1.000000; stroke-opacity:1; 
stroke-linecap:round; stroke-linejoin:round;">
<path style="fill:#000000; fill-opacity:1.0; 
stroke:#000000; stroke-width:1.000000; stroke-opacity:1; 
stroke-linecap:round; stroke-linejoin:round;fill-rule:evenodd;"
d="M 124100000.000000,77200000.000000
122100000.000000,77200000.000000
122100000.000000,74200000.000000
124100000.000000,74200000.000000
Z" /> 
<path style="fill:#000000; fill-opacity:1.0; 
stroke:#000000; stroke-width:1.000000; stroke-opacity:1; 
stroke-linecap:round; stroke-linejoin:round;fill-rule:evenodd;"
d="M 130100000.000000,77200000.000000
128100000.000000,77200000.000000
128100000.000000,74200000.000000
130100000.000000,74200000.000000
Z" /> 
<path style="fill:#000000; fill-opacity:1.0; 
stroke:#000000; stroke-width:1.000000; stroke-opacity:1; 
stroke-linecap:round; stroke-linejoin:round;fill-rule:evenodd;"
d="M 130100000.000000,88200000.000000
128100000.000000,88200000.000000
128100000.000000,85200000.000000
130100000.000000,85200000.000000
Z" /> 
<path style="fill:#000000; fill-opacity:1.0; 
stroke:#000000; stroke-width:1.000000; stroke-opacity:1; 
stroke-linecap:round; stroke-linejoin:round;fill-rule:evenodd;"
d="M 124100000.000000,88200000.000000
122100000.000000,88200000.000000
122100000.000000,85200000.000000
124100000.000000,85200000.000000
Z" /> 
</g>
<g >
</g>
<g >
</g>
<g >
</g>
<g >
</g>
<g >
</g>
<g >
</g>
<g style="fill:#000000; fill-opacity:1.0; 
stroke:#000000; stroke-width:1.000000; stroke-opacity:1; 
stroke-linecap:round; stroke-linejoin:round;">
<path style="fill:#000000; fill-opacity:1.0; 
stroke:#000000; stroke-width:1.000000; stroke-opacity:1; 
stroke-linecap:round; stroke-linejoin:round;fill-rule:evenodd;"
d="M 164945000.000000,85649750.000000
164963554.000000,85556471.000000
165016393.000000,85477393.000000
165095471.000000,85424554.000000
165188750.000000,85406000.000000
165676250.000000,85406000.000000
165769529.000000,85424554.000000
165848607.000000,85477393.000000
165901446.000000,85556471.000000
165920000.000000,85649750.000000
165920000.000000,86562250.000000
165901446.000000,86655529.000000
165848607.000000,86734607.000000
165769529.000000,86787446.000000
165676250.000000,86806000.000000
165188750.000000,86806000.000000
165095471.000000,86787446.000000
165016393.000000,86734607.000000
164963554.000000,86655529.000000
164945000.000000,86562250.000000
Z" /> 
<path style="fill:#000000; fill-opacity:1.0; 
stroke:#000000; stroke-width:1.000000; stroke-opacity:1; 
stroke-linecap:round; stroke-linejoin:round;fill-rule:evenodd;"
d="M 166820000.000000,85649750.000000
166838554.000000,85556471.000000
166891393.000000,85477393.000000
166970471.000000,85424554.000000
167063750.000000,85406000.000000
167551250.000000,85406000.000000
167644529.000000,85424554.000000
167723607.000000,85477393.000000
167776446.000000,85556471.000000
167795000.000000,85649750.000000
167795000.000000,86562250.000000
167776446.000000,86655529.000000
167723607.000000,86734607.000000
167644529.000000,86787446.000000
167551250.000000,86806000.000000
167063750.000000,86806000.000000
166970471.000000,86787446.000000
166891393.000000,86734607.000000
166838554.000000,86655529.000000
166820000.000000,86562250.000000
Z" /> 
</g>
<g >
</g>
<g style="fill:#000000; fill-opacity:1.0; 
stroke:#000000; stroke-width:1.000000; stroke-opacity:1; 
stroke-linecap:round; stroke-linejoin:round;">
<path style="fill:#000000; fill-opacity:1.0; 
stroke:#000000; stroke-width:1.000000; stroke-opacity:1; 
stroke-linecap:round; stroke-linejoin:round;fill-rule:evenodd;"
d="M 164945000.000000,83363750.000000
164963554.000000,83270471.000000
165016393.000000,83191393.000000
165095471.000000,83138554.000000
165188750.000000,83120000.000000
165676250.000000,83120000.000000
165769529.000000,83138554.000000
165848607.000000,83191393.000000
165901446.000000,83270471.000000
165920000.000000,83363750.000000
165920000.000000,84276250.000000
165901446.000000,84369529.000000
165848607.000000,84448607.000000
165769529.000000,84501446.000000
165676250.000000,84520000.000000
165188750.000000,84520000.000000
165095471.000000,84501446.000000
165016393.000000,84448607.000000
164963554.000000,84369529.000000
164945000.000000,84276250.000000
Z" /> 
<path style="fill:#000000; fill-opacity:1.0; 
stroke:#000000; stroke-width:1.000000; stroke-opacity:1; 
stroke-linecap:round; stroke-linejoin:round;fill-rule:evenodd;"
d="M 166820000.000000,83363750.000000
166838554.000000,83270471.000000
166891393.000000,83191393.000000
166970471.000000,83138554.000000
167063750.000000,83120000.000000
167551250.000000,83120000.000000
167644529.000000,83138554.000000
167723607.000000,83191393.000000
167776446.000000,83270471.000000
167795000.000000,83363750.000000
167795000.000000,84276250.000000
167776446.000000,84369529.000000
167723607.000000,84448607.000000
167644529.000000,84501446.000000
167551250.000000,84520000.000000
167063750.000000,84520000.000000
166970471.000000,84501446.000000
166891393.000000,84448607.000000
166838554.000000,84369529.000000
166820000.000000,84276250.000000
Z" /> 
</g>
<g >
</g>
<g style="fill:#000000; fill-opacity:1.0; 
stroke:#000000; stroke-width:1.000000; stroke-opacity:1; 
stroke-linecap:round; stroke-linejoin:round;">
<path style="fill:#000000; fill-opacity:1.0; 
stroke:#000000; stroke-width:1.000000; stroke-opacity:1; 
stroke-linecap:round; stroke-linejoin:round;fill-rule:evenodd;"
d="M 160383000.000000,76334250.000000
160364446.000000,76427529.000000
160311607.000000,76506607.000000
160232529.000000,76559446.000000
160139250.000000,76578000.000000
159651750.000000,76578000.000000
159558471.000000,76559446.000000
159479393.000000,76506607.000000
159426554.000000,76427529.000000
159408000.000000,76334250.000000
159408000.000000,75421750.000000
159426554.000000,75328471.000000
159479393.000000,75249393.000000
159558471.000000,75196554.000000
159651750.000000,75178000.000000
160139250.000000,75178000.000000
160232529.000000,75196554.000000
160311607.000000,75249393.000000
160364446.000000,75328471.000000
160383000.000000,75421750.000000
Z" /> 
<path style="fill:#000000; fill-opacity:1.0; 
stroke:#000000; stroke-width:1.000000; stroke-opacity:1; 
stroke-linecap:round; stroke-linejoin:round;fill-rule:evenodd;"
d="M 158508000.000000,76334250.000000
158489446.000000,76427529.000000
158436607.000000,76506607.000000
158357529.000000,76559446.000000
158264250.000000,76578000.000000
157776750.000000,76578000.000000
157683471.000000,76559446.000000
157604393.000000,76506607.000000
157551554.000000,76427529.000000
157533000.000000,76334250.000000
157533000.000000,75421750.000000
157551554.000000,75328471.000000
157604393.000000,75249393.000000
157683471.000000,75196554.000000
157776750.000000,75178000.000000
158264250.000000,75178000.000000
158357529.000000,75196554.000000
158436607.000000,75249393.000000
158489446.000000,75328471.000000
158508000.000000,75421750.000000
Z" /> 
</g>
<g >
</g>
<g style="fill:#000000; fill-opacity:1.0; 
stroke:#000000; stroke-width:1.000000; stroke-opacity:1; 
stroke-linecap:round; stroke-linejoin:round;">
<path style="fill:#000000; fill-opacity:1.0; 
stroke:#000000; stroke-width:1.000000; stroke-opacity:1; 
stroke-linecap:round; stroke-linejoin:round;fill-rule:evenodd;"
d="M 158547750.000000,97183000.000000
158454471.000000,97164446.000000
158375393.000000,97111607.000000
158322554.000000,97032529.000000
158304000.000000,96939250.000000
158304000.000000,96451750.000000
158322554.000000,96358471.000000
158375393.000000,96279393.000000
158454471.000000,96226554.000000
158547750.000000,96208000.000000
159460250.000000,96208000.000000
159553529.000000,96226554.000000
159632607.000000,96279393.000000
159685446.000000,96358471.000000
159704000.000000,96451750.000000
159704000.000000,96939250.000000
159685446.000000,97032529.000000
159632607.000000,97111607.000000
159553529.000000,97164446.000000
159460250.000000,97183000.000000
Z" /> 
<path style="fill:#000000; fill-opacity:1.0; 
stroke:#000000; stroke-width:1.000000; stroke-opacity:1; 
stroke-linecap:round; stroke-linejoin:round;fill-rule:evenodd;"
d="M 158547750.000000,95308000.000000
158454471.000000,95289446.000000
158375393.000000,95236607.000000
158322554.000000,95157529.000000
158304000.000000,95064250.000000
158304000.000000,94576750.000000
158322554.000000,94483471.000000
158375393.000000,94404393.000000
158454471.000000,94351554.000000
158547750.000000,94333000.000000
159460250.000000,94333000.000000
159553529.000000,94351554.000000
159632607.000000,94404393.000000
159685446.000000,94483471.000000
159704000.000000,94576750.000000
159704000.000000,95064250.000000
159685446.000000,95157529.000000
159632607.000000,95236607.000000
159553529.000000,95289446.000000
159460250.000000,95308000.000000
Z" /> 
</g>
<g >
</g>
<g style="fill:#000000; fill-opacity:1.0; 
stroke:#000000; stroke-width:1.000000; stroke-opacity:1; 
stroke-linecap:round; stroke-linejoin:round;">
<path style="fill:#000000; fill-opacity:1.0; 
stroke:#000000; stroke-width:1.000000; stroke-opacity:1; 
stroke-linecap:round; stroke-linejoin:round;fill-rule:evenodd;"
d="M 145210850.000000,81379000.000000
145304129.000000,81397554.000000
145383207.000000,81450393.000000
145436046.000000,81529471.000000
145454600.000000,81622750.000000
145454600.000000,82110250.000000
145436046.000000,82203529.000000
145383207.000000,82282607.000000
145304129.000000,82335446.000000
145210850.000000,82354000.000000
144298350.000000,82354000.000000
144205071.000000,82335446.000000
144125993.000000,82282607.000000
144073154.000000,82203529.000000
144054600.000000,82110250.000000
144054600.000000,81622750.000000
144073154.000000,81529471.000000
144125993.000000,81450393.000000
144205071.000000,81397554.000000
144298350.000000,81379000.000000
Z" /> 
<path style="fill:#000000; fill-opacity:1.0; 
stroke:#000000; stroke-width:1.000000; stroke-opacity:1; 
stroke-linecap:round; stroke-linejoin:round;fill-rule:evenodd;"
d="M 145210850.000000,83254000.000000
145304129.000000,83272554.000000
145383207.000000,83325393.000000
145436046.000000,83404471.000000
145454600.000000,83497750.000000
145454600.000000,83985250.000000
145436046.000000,84078529.000000
145383207.000000,84157607.000000
145304129.000000,84210446.000000
145210850.000000,84229000.000000
144298350.000000,84229000.000000
144205071.000000,84210446.000000
144125993.000000,84157607.000000
144073154.000000,84078529.000000
144054600.000000,83985250.000000
144054600.000000,83497750.000000
144073154.000000,83404471.000000
144125993.000000,83325393.000000
144205071.000000,83272554.000000
144298350.000000,83254000.000000
Z" /> 
</g>
<g >
</g>
<g style="fill:#000000; fill-opacity:1.0; 
stroke:#000000; stroke-width:1.000000; stroke-opacity:1; 
stroke-linecap:round; stroke-linejoin:round;">
<path style="fill:#000000; fill-opacity:1.0; 
stroke:#000000; stroke-width:1.000000; stroke-opacity:1; 
stroke-linecap:round; stroke-linejoin:round;fill-rule:evenodd;"
d="M 147776250.000000,68749800.000000
147869529.000000,68768354.000000
147948607.000000,68821193.000000
148001446.000000,68900271.000000
148020000.000000,68993550.000000
148020000.000000,69481050.000000
148001446.000000,69574329.000000
147948607.000000,69653407.000000
147869529.000000,69706246.000000
147776250.000000,69724800.000000
146863750.000000,69724800.000000
146770471.000000,69706246.000000
146691393.000000,69653407.000000
146638554.000000,69574329.000000
146620000.000000,69481050.000000
146620000.000000,68993550.000000
146638554.000000,68900271.000000
146691393.000000,68821193.000000
146770471.000000,68768354.000000
146863750.000000,68749800.000000
Z" /> 
<path style="fill:#000000; fill-opacity:1.0; 
stroke:#000000; stroke-width:1.000000; stroke-opacity:1; 
stroke-linecap:round; stroke-linejoin:round;fill-rule:evenodd;"
d="M 147776250.000000,70624800.000000
147869529.000000,70643354.000000
147948607.000000,70696193.000000
148001446.000000,70775271.000000
148020000.000000,70868550.000000
148020000.000000,71356050.000000
148001446.000000,71449329.000000
147948607.000000,71528407.000000
147869529.000000,71581246.000000
147776250.000000,71599800.000000
146863750.000000,71599800.000000
146770471.000000,71581246.000000
146691393.000000,71528407.000000
146638554.000000,71449329.000000
146620000.000000,71356050.000000
146620000.000000,70868550.000000
146638554.000000,70775271.000000
146691393.000000,70696193.000000
146770471.000000,70643354.000000
146863750.000000,70624800.000000
Z" /> 
</g>
<g >
</g>
<g style="fill:#000000; fill-opacity:1.0; 
stroke:#000000; stroke-width:1.000000; stroke-opacity:1; 
stroke-linecap:round; stroke-linejoin:round;">
<path style="fill:#000000; fill-opacity:1.0; 
stroke:#000000; stroke-width:1.000000; stroke-opacity:1; 
stroke-linecap:round; stroke-linejoin:round;fill-rule:evenodd;"
d="M 145236250.000000,68749800.000000
145329529.000000,68768354.000000
145408607.000000,68821193.000000
145461446.000000,68900271.000000
145480000.000000,68993550.000000
145480000.000000,69481050.000000
145461446.000000,69574329.000000
145408607.000000,69653407.000000
145329529.000000,69706246.000000
145236250.000000,69724800.000000
144323750.000000,69724800.000000
144230471.000000,69706246.000000
144151393.000000,69653407.000000
144098554.000000,69574329.000000
144080000.000000,69481050.000000
144080000.000000,68993550.000000
144098554.000000,68900271.000000
144151393.000000,68821193.000000
144230471.000000,68768354.000000
144323750.000000,68749800.000000
Z" /> 
<path style="fill:#000000; fill-opacity:1.0; 
stroke:#000000; stroke-width:1.000000; stroke-opacity:1; 
stroke-linecap:round; stroke-linejoin:round;fill-rule:evenodd;"
d="M 145236250.000000,70624800.000000
145329529.000000,70643354.000000
145408607.000000,70696193.000000
145461446.000000,70775271.000000
145480000.000000,70868550.000000
145480000.000000,71356050.000000
145461446.000000,71449329.000000
145408607.000000,71528407.000000
145329529.000000,71581246.000000
145236250.000000,71599800.000000
144323750.000000,71599800.000000
144230471.000000,71581246.000000
144151393.000000,71528407.000000
144098554.000000,71449329.000000
144080000.000000,71356050.000000
144080000.000000,70868550.000000
144098554.000000,70775271.000000
144151393.000000,70696193.000000
144230471.000000,70643354.000000
144323750.000000,70624800.000000
Z" /> 
</g>
<g >
</g>
<g style="fill:#000000; fill-opacity:1.0; 
stroke:#000000; stroke-width:1.000000; stroke-opacity:1; 
stroke-linecap:round; stroke-linejoin:round;">
<path style="fill:#000000; fill-opacity:1.0; 
stroke:#000000; stroke-width:1.000000; stroke-opacity:1; 
stroke-linecap:round; stroke-linejoin:round;fill-rule:evenodd;"
d="M 170690250.000000,86125500.000000
170773962.000000,86142151.000000
170844930.000000,86189570.000000
170892349.000000,86260538.000000
170909000.000000,86344250.000000
170909000.000000,86781750.000000
170892349.000000,86865462.000000
170844930.000000,86936430.000000
170773962.000000,86983849.000000
170690250.000000,87000500.000000
170177750.000000,87000500.000000
170094038.000000,86983849.000000
170023070.000000,86936430.000000
169975651.000000,86865462.000000
169959000.000000,86781750.000000
169959000.000000,86344250.000000
169975651.000000,86260538.000000
170023070.000000,86189570.000000
170094038.000000,86142151.000000
170177750.000000,86125500.000000
Z" /> 
<path style="fill:#000000; fill-opacity:1.0; 
stroke:#000000; stroke-width:1.000000; stroke-opacity:1; 
stroke-linecap:round; stroke-linejoin:round;fill-rule:evenodd;"
d="M 170690250.000000,87700500.000000
170773962.000000,87717151.000000
170844930.000000,87764570.000000
170892349.000000,87835538.000000
170909000.000000,87919250.000000
170909000.000000,88356750.000000
170892349.000000,88440462.000000
170844930.000000,88511430.000000
170773962.000000,88558849.000000
170690250.000000,88575500.000000
170177750.000000,88575500.000000
170094038.000000,88558849.000000
170023070.000000,88511430.000000
169975651.000000,88440462.000000
169959000.000000,88356750.000000
169959000.000000,87919250.000000
169975651.000000,87835538.000000
170023070.000000,87764570.000000
170094038.000000,87717151.000000
170177750.000000,87700500.000000
Z" /> 
</g>
<g >
</g>
<g style="fill:#000000; fill-opacity:1.0; 
stroke:#000000; stroke-width:1.000000; stroke-opacity:1; 
stroke-linecap:round; stroke-linejoin:round;">
<path style="fill:#000000; fill-opacity:1.0; 
stroke:#000000; stroke-width:1.000000; stroke-opacity:1; 
stroke-linecap:round; stroke-linejoin:round;fill-rule:evenodd;"
d="M 161927800.000000,68827800.000000
161927800.000000,71227800.000000
160027800.000000,71227800.000000
160027800.000000,68827800.000000
Z" /> 
<path style="fill:#000000; fill-opacity:1.0; 
stroke:#000000; stroke-width:1.000000; stroke-opacity:1; 
stroke-linecap:round; stroke-linejoin:round;fill-rule:evenodd;"
d="M 157827800.000000,68827800.000000
157827800.000000,71227800.000000
155927800.000000,71227800.000000
155927800.000000,68827800.000000
Z" /> 
</g>
<g >
</g>
<g >
</g>
<g style="fill:#000000; fill-opacity:1.0; 
stroke:#000000; stroke-width:1.000000; stroke-opacity:1; 
stroke-linecap:round; stroke-linejoin:round;">
<path style="fill:#000000; fill-opacity:1.0; 
stroke:#000000; stroke-width:1.000000; stroke-opacity:1; 
stroke-linecap:round; stroke-linejoin:round;fill-rule:evenodd;"
d="M 156957000.000000,80802000.000000
157507000.000000,80802000.000000
157507000.000000,82402000.000000
156957000.000000,82402000.000000
Z" /> 
<path style="fill:#000000; fill-opacity:1.0; 
stroke:#000000; stroke-width:1.000000; stroke-opacity:1; 
stroke-linecap:round; stroke-linejoin:round;fill-rule:evenodd;"
d="M 156157000.000000,80802000.000000
156707000.000000,80802000.000000
156707000.000000,82402000.000000
156157000.000000,82402000.000000
Z" /> 
<path style="fill:#000000; fill-opacity:1.0; 
stroke:#000000; stroke-width:1.000000; stroke-opacity:1; 
stroke-linecap:round; stroke-linejoin:round;fill-rule:evenodd;"
d="M 155357000.000000,80802000.000000
155907000.000000,80802000.000000
155907000.000000,82402000.000000
155357000.000000,82402000.000000
Z" /> 
<path style="fill:#000000; fill-opacity:1.0; 
stroke:#000000; stroke-width:1.000000; stroke-opacity:1; 
stroke-linecap:round; stroke-linejoin:round;fill-rule:evenodd;"
d="M 154557000.000000,80802000.000000
155107000.000000,80802000.000000
155107000.000000,82402000.000000
154557000.000000,82402000.000000
Z" /> 
<path style="fill:#000000; fill-opacity:1.0; 
stroke:#000000; stroke-width:1.000000; stroke-opacity:1; 
stroke-linecap:round; stroke-linejoin:round;fill-rule:evenodd;"
d="M 153757000.000000,80802000.000000
154307000.000000,80802000.000000
154307000.000000,82402000.000000
153757000.000000,82402000.000000
Z" /> 
<path style="fill:#000000; fill-opacity:1.0; 
stroke:#000000; stroke-width:1.000000; stroke-opacity:1; 
stroke-linecap:round; stroke-linejoin:round;fill-rule:evenodd;"
d="M 152957000.000000,80802000.000000
153507000.000000,80802000.000000
153507000.000000,82402000.000000
152957000.000000,82402000.000000
Z" /> 
<path style="fill:#000000; fill-opacity:1.0; 
stroke:#000000; stroke-width:1.000000; stroke-opacity:1; 
stroke-linecap:round; stroke-linejoin:round;fill-rule:evenodd;"
d="M 152157000.000000,80802000.000000
152707000.000000,80802000.000000
152707000.000000,82402000.000000
152157000.000000,82402000.000000
Z" /> 
<path style="fill:#000000; fill-opacity:1.0; 
stroke:#000000; stroke-width:1.000000; stroke-opacity:1; 
stroke-linecap:round; stroke-linejoin:round;fill-rule:evenodd;"
d="M 151357000.000000,80802000.000000
151907000.000000,80802000.000000
151907000.000000,82402000.000000
151357000.000000,82402000.000000
Z" /> 
<path style="fill:#000000; fill-opacity:1.0; 
stroke:#000000; stroke-width:1.000000; stroke-opacity:1; 
stroke-linecap:round; stroke-linejoin:round;fill-rule:evenodd;"
d="M 149382000.000000,83327000.000000
149382000.000000,82777000.000000
150982000.000000,82777000.000000
150982000.000000,83327000.000000
Z" /> 
<path style="fill:#000000; fill-opacity:1.0; 
stroke:#000000; stroke-width:1.000000; stroke-opacity:1; 
stroke-linecap:round; stroke-linejoin:round;fill-rule:evenodd;"
d="M 149382000.000000,84127000.000000
149382000.000000,83577000.000000
150982000.000000,83577000.000000
150982000.000000,84127000.000000
Z" /> 
<path style="fill:#000000; fill-opacity:1.0; 
stroke:#000000; stroke-width:1.000000; stroke-opacity:1; 
stroke-linecap:round; stroke-linejoin:round;fill-rule:evenodd;"
d="M 149382000.000000,84927000.000000
149382000.000000,84377000.000000
150982000.000000,84377000.000000
150982000.000000,84927000.000000
Z" /> 
<path style="fill:#000000; fill-opacity:1.0; 
stroke:#000000; stroke-width:1.000000; stroke-opacity:1; 
stroke-linecap:round; stroke-linejoin:round;fill-rule:evenodd;"
d="M 149382000.000000,85727000.000000
149382000.000000,85177000.000000
150982000.000000,85177000.000000
150982000.000000,85727000.000000
Z" /> 
<path style="fill:#000000; fill-opacity:1.0; 
stroke:#000000; stroke-width:1.000000; stroke-opacity:1; 
stroke-linecap:round; stroke-linejoin:round;fill-rule:evenodd;"
d="M 149382000.000000,86527000.000000
149382000.000000,85977000.000000
150982000.000000,85977000.000000
150982000.000000,86527000.000000
Z" /> 
<path style="fill:#000000; fill-opacity:1.0; 
stroke:#000000; stroke-width:1.000000; stroke-opacity:1; 
stroke-linecap:round; stroke-linejoin:round;fill-rule:evenodd;"
d="M 149382000.000000,87327000.000000
149382000.000000,86777000.000000
150982000.000000,86777000.000000
150982000.000000,87327000.000000
Z" /> 
<path style="fill:#000000; fill-opacity:1.0; 
stroke:#000000; stroke-width:1.000000; stroke-opacity:1; 
stroke-linecap:round; stroke-linejoin:round;fill-rule:evenodd;"
d="M 149382000.000000,88127000.000000
149382000.000000,87577000.000000
150982000.000000,87577000.000000
150982000.000000,88127000.000000
Z" /> 
<path style="fill:#000000; fill-opacity:1.0; 
stroke:#000000; stroke-width:1.000000; stroke-opacity:1; 
stroke-linecap:round; stroke-linejoin:round;fill-rule:evenodd;"
d="M 149382000.000000,88927000.000000
149382000.000000,88377000.000000
150982000.000000,88377000.000000
150982000.000000,88927000.000000
Z" /> 
<path style="fill:#000000; fill-opacity:1.0; 
stroke:#000000; stroke-width:1.000000; stroke-opacity:1; 
stroke-linecap:round; stroke-linejoin:round;fill-rule:evenodd;"
d="M 151357000.000000,89302000.000000
151907000.000000,89302000.000000
151907000.000000,90902000.000000
151357000.000000,90902000.000000
Z" /> 
<path style="fill:#000000; fill-opacity:1.0; 
stroke:#000000; stroke-width:1.000000; stroke-opacity:1; 
stroke-linecap:round; stroke-linejoin:round;fill-rule:evenodd;"
d="M 152157000.000000,89302000.000000
152707000.000000,89302000.000000
152707000.000000,90902000.000000
152157000.000000,90902000.000000
Z" /> 
<path style="fill:#000000; fill-opacity:1.0; 
stroke:#000000; stroke-width:1.000000; stroke-opacity:1; 
stroke-linecap:round; stroke-linejoin:round;fill-rule:evenodd;"
d="M 152957000.000000,89302000.000000
153507000.000000,89302000.000000
153507000.000000,90902000.000000
152957000.000000,90902000.000000
Z" /> 
<path style="fill:#000000; fill-opacity:1.0; 
stroke:#000000; stroke-width:1.000000; stroke-opacity:1; 
stroke-linecap:round; stroke-linejoin:round;fill-rule:evenodd;"
d="M 153757000.000000,89302000.000000
154307000.000000,89302000.000000
154307000.000000,90902000.000000
153757000.000000,90902000.000000
Z" /> 
<path style="fill:#000000; fill-opacity:1.0; 
stroke:#000000; stroke-width:1.000000; stroke-opacity:1; 
stroke-linecap:round; stroke-linejoin:round;fill-rule:evenodd;"
d="M 154557000.000000,89302000.000000
155107000.000000,89302000.000000
155107000.000000,90902000.000000
154557000.000000,90902000.000000
Z" /> 
<path style="fill:#000000; fill-opacity:1.0; 
stroke:#000000; stroke-width:1.000000; stroke-opacity:1; 
stroke-linecap:round; stroke-linejoin:round;fill-rule:evenodd;"
d="M 155357000.000000,89302000.000000
155907000.000000,89302000.000000
155907000.000000,90902000.000000
155357000.000000,90902000.000000
Z" /> 
<path style="fill:#000000; fill-opacity:1.0; 
stroke:#000000; stroke-width:1.000000; stroke-opacity:1; 
stroke-linecap:round; stroke-linejoin:round;fill-rule:evenodd;"
d="M 156157000.000000,89302000.000000
156707000.000000,89302000.000000
156707000.000000,90902000.000000
156157000.000000,90902000.000000
Z" /> 
<path style="fill:#000000; fill-opacity:1.0; 
stroke:#000000; stroke-width:1.000000; stroke-opacity:1; 
stroke-linecap:round; stroke-linejoin:round;fill-rule:evenodd;"
d="M 156957000.000000,89302000.000000
157507000.000000,89302000.000000
157507000.000000,90902000.000000
156957000.000000,90902000.000000
Z" /> 
<path style="fill:#000000; fill-opacity:1.0; 
stroke:#000000; stroke-width:1.000000; stroke-opacity:1; 
stroke-linecap:round; stroke-linejoin:round;fill-rule:evenodd;"
d="M 157882000.000000,88927000.000000
157882000.000000,88377000.000000
159482000.000000,88377000.000000
159482000.000000,88927000.000000
Z" /> 
<path style="fill:#000000; fill-opacity:1.0; 
stroke:#000000; stroke-width:1.000000; stroke-opacity:1; 
stroke-linecap:round; stroke-linejoin:round;fill-rule:evenodd;"
d="M 157882000.000000,88127000.000000
157882000.000000,87577000.000000
159482000.000000,87577000.000000
159482000.000000,88127000.000000
Z" /> 
<path style="fill:#000000; fill-opacity:1.0; 
stroke:#000000; stroke-width:1.000000; stroke-opacity:1; 
stroke-linecap:round; stroke-linejoin:round;fill-rule:evenodd;"
d="M 157882000.000000,87327000.000000
157882000.000000,86777000.000000
159482000.000000,86777000.000000
159482000.000000,87327000.000000
Z" /> 
<path style="fill:#000000; fill-opacity:1.0; 
stroke:#000000; stroke-width:1.000000; stroke-opacity:1; 
stroke-linecap:round; stroke-linejoin:round;fill-rule:evenodd;"
d="M 157882000.000000,86527000.000000
157882000.000000,85977000.000000
159482000.000000,85977000.000000
159482000.000000,86527000.000000
Z" /> 
<path style="fill:#000000; fill-opacity:1.0; 
stroke:#000000; stroke-width:1.000000; stroke-opacity:1; 
stroke-linecap:round; stroke-linejoin:round;fill-rule:evenodd;"
d="M 157882000.000000,85727000.000000
157882000.000000,85177000.000000
159482000.000000,85177000.000000
159482000.000000,85727000.000000
Z" /> 
<path style="fill:#000000; fill-opacity:1.0; 
stroke:#000000; stroke-width:1.000000; stroke-opacity:1; 
stroke-linecap:round; stroke-linejoin:round;fill-rule:evenodd;"
d="M 157882000.000000,84927000.000000
157882000.000000,84377000.000000
159482000.000000,84377000.000000
159482000.000000,84927000.000000
Z" /> 
<path style="fill:#000000; fill-opacity:1.0; 
stroke:#000000; stroke-width:1.000000; stroke-opacity:1; 
stroke-linecap:round; stroke-linejoin:round;fill-rule:evenodd;"
d="M 157882000.000000,84127000.000000
157882000.000000,83577000.000000
159482000.000000,83577000.000000
159482000.000000,84127000.000000
Z" /> 
<path style="fill:#000000; fill-opacity:1.0; 
stroke:#000000; stroke-width:1.000000; stroke-opacity:1; 
stroke-linecap:round; stroke-linejoin:round;fill-rule:evenodd;"
d="M 157882000.000000,83327000.000000
157882000.000000,82777000.000000
159482000.000000,82777000.000000
159482000.000000,83327000.000000
Z" /> 
</g>
<g >
</g>
<g style="fill:#000000; fill-opacity:1.0; 
stroke:#000000; stroke-width:1.000000; stroke-opacity:1; 
stroke-linecap:round; stroke-linejoin:round;">
<path style="fill:#000000; fill-opacity:1.0; 
stroke:#000000; stroke-width:1.000000; stroke-opacity:1; 
stroke-linecap:round; stroke-linejoin:round;fill-rule:evenodd;"
d="M 170177750.000000,83546400.000000
170094038.000000,83529749.000000
170023070.000000,83482330.000000
169975651.000000,83411362.000000
169959000.000000,83327650.000000
169959000.000000,82890150.000000
169975651.000000,82806438.000000
170023070.000000,82735470.000000
170094038.000000,82688051.000000
170177750.000000,82671400.000000
170690250.000000,82671400.000000
170773962.000000,82688051.000000
170844930.000000,82735470.000000
170892349.000000,82806438.000000
170909000.000000,82890150.000000
170909000.000000,83327650.000000
170892349.000000,83411362.000000
170844930.000000,83482330.000000
170773962.000000,83529749.000000
170690250.000000,83546400.000000
Z" /> 
<path style="fill:#000000; fill-opacity:1.0; 
stroke:#000000; stroke-width:1.000000; stroke-opacity:1; 
stroke-linecap:round; stroke-linejoin:round;fill-rule:evenodd;"
d="M 170177750.000000,81971400.000000
170094038.000000,81954749.000000
170023070.000000,81907330.000000
169975651.000000,81836362.000000
169959000.000000,81752650.000000
169959000.000000,81315150.000000
169975651.000000,81231438.000000
170023070.000000,81160470.000000
170094038.000000,81113051.000000
170177750.000000,81096400.000000
170690250.000000,81096400.000000
170773962.000000,81113051.000000
170844930.000000,81160470.000000
170892349.000000,81231438.000000
170909000.000000,81315150.000000
170909000.000000,81752650.000000
170892349.000000,81836362.000000
170844930.000000,81907330.000000
170773962.000000,81954749.000000
170690250.000000,81971400.000000
Z" /> 
</g>
<g >
</g>
<g style="fill:#000000; fill-opacity:1.0; 
stroke:#000000; stroke-width:1.000000; stroke-opacity:1; 
stroke-linecap:round; stroke-linejoin:round;">
<path style="fill:#000000; fill-opacity:1.0; 
stroke:#000000; stroke-width:1.000000; stroke-opacity:1; 
stroke-linecap:round; stroke-linejoin:round;fill-rule:evenodd;"
d="M 161925950.000000,83492400.000000
161832671.000000,83473846.000000
161753593.000000,83421007.000000
161700754.000000,83341929.000000
161682200.000000,83248650.000000
161682200.000000,82761150.000000
161700754.000000,82667871.000000
161753593.000000,82588793.000000
161832671.000000,82535954.000000
161925950.000000,82517400.000000
162838450.000000,82517400.000000
162931729.000000,82535954.000000
163010807.000000,82588793.000000
163063646.000000,82667871.000000
163082200.000000,82761150.000000
163082200.000000,83248650.000000
163063646.000000,83341929.000000
163010807.000000,83421007.000000
162931729.000000,83473846.000000
162838450.000000,83492400.000000
Z" /> 
<path style="fill:#000000; fill-opacity:1.0; 
stroke:#000000; stroke-width:1.000000; stroke-opacity:1; 
stroke-linecap:round; stroke-linejoin:round;fill-rule:evenodd;"
d="M 161925950.000000,81617400.000000
161832671.000000,81598846.000000
161753593.000000,81546007.000000
161700754.000000,81466929.000000
161682200.000000,81373650.000000
161682200.000000,80886150.000000
161700754.000000,80792871.000000
161753593.000000,80713793.000000
161832671.000000,80660954.000000
161925950.000000,80642400.000000
162838450.000000,80642400.000000
162931729.000000,80660954.000000
163010807.000000,80713793.000000
163063646.000000,80792871.000000
163082200.000000,80886150.000000
163082200.000000,81373650.000000
163063646.000000,81466929.000000
163010807.000000,81546007.000000
162931729.000000,81598846.000000
162838450.000000,81617400.000000
Z" /> 
</g>
<g >
</g>
<g >
</g>
<g >
</g>
<g >
</g>
<g >
</g>
<g >
</g>
<g >
</g>
<g >
</g>
<g >
</g>
<g >
</g>
<g >
</g>
</g> 
</svg>
